<?xml version="1.0" encoding="UTF-8" standalone="no"?>
<svg xmlns="http://www.w3.org/2000/svg" height="24" width="24" version="1.1">
 <g id="layer9" fill="#bebebe" transform="translate(-577 -89)">
  <path id="path4544-6" d="m578 94v1.4062 1.5938h5.5581c0.85695 0 1.5 0.64305 1.5 1.5v6c0 2.467 2.033 4.5 4.5 4.5h7.9419v-3h-7.9419c-0.85695 0-1.5-0.64306-1.5-1.5v-6c0-2.467-2.033-4.5-4.5-4.5z" color="#bebebe"/>
  <path id="path4544-1-5" d="m589.56 94c-0.34436 0-0.66128 0.0657-0.98438 0.14055 0.72195 0.82665 1.2919 1.7664 1.5468 2.8593h7.3794v-3h-7.9419zm-11.56 15h5.5581c0.34435 0 0.66127-0.0657 0.98437-0.14056-0.72195-0.82672-1.2919-1.7666-1.5468-2.8594h-4.9956z" color="#bebebe"/>
  <path id="path3003-08" d="m594 91v9l6-4.5z"/>
  <path id="path3773" d="m594 103v9l6-4.5z"/>
 </g>
</svg>
