<?xml version="1.0" encoding="UTF-8" standalone="no"?>
<svg xmlns="http://www.w3.org/2000/svg" height="24" width="24" version="1.1">
 <g id="layer9" transform="translate(-553 -89)">
  <path id="path3991-1" color="#000000" fill="#bebebe" d="m561 91v3h-2.5c-2.467 0-4.5 2.033-4.5 4.5v6c0 2.467 2.033 4.5 4.5 4.5h1.5 1 5 4.5c2.467 0 4.5-2.033 4.5-4.5v-6c0-2.467-2-4.5-4.5-4.5h-0.375-1.125v0.75 1.5 0.75h1.125 0.375c0.85695 0 1.5 0.64305 1.5 1.5v6c0 0.85695-0.64305 1.5-1.5 1.5h-4.5-5-1-1.5c-0.85695 0-1.5-0.64305-1.5-1.5v-6c0-0.85695 0.64305-1.5 1.5-1.5h2.5v3l6-4.5-6-4.5z"/>
 </g>
</svg>
