<?xml version="1.0" encoding="UTF-8" standalone="no"?>
<svg id="svg2" xmlns:rdf="http://www.w3.org/1999/02/22-rdf-syntax-ns#" xmlns="http://www.w3.org/2000/svg" height="24" width="24" version="1.1" xmlns:cc="http://creativecommons.org/ns#" xmlns:dc="http://purl.org/dc/elements/1.1/">
 <metadata id="metadata90">
  <rdf:RDF>
   <cc:Work rdf:about="">
    <dc:format>image/svg+xml</dc:format>
    <dc:type rdf:resource="http://purl.org/dc/dcmitype/StillImage"/>
   </cc:Work>
  </rdf:RDF>
 </metadata>
 <title id="title8473">Faba Symbolic Icon Theme</title>
 <g id="layer9" transform="translate(-601 -89)">
  <path id="path3570" style="color:#bebebe;fill:#bebebe" d="m624 94v1.4062 1.5938h-5.5581c-0.85695 0-1.5 0.64305-1.5 1.5v6c0 2.467-2.033 4.5-4.5 4.5h-7.9419v-3h7.9419c0.85695 0 1.5-0.64306 1.5-1.5v-6c0-2.467 2.033-4.5 4.5-4.5z"/>
  <path id="path3572" style="color:#bebebe;fill:#bebebe" d="m612.44 94c0.34436 0 0.66128 0.0657 0.98438 0.14055-0.72195 0.82665-1.2919 1.7664-1.5468 2.8593h-7.3794v-3h7.9419zm11.56 15h-5.5581c-0.34435 0-0.66127-0.0657-0.98437-0.14056 0.72195-0.82672 1.2919-1.7666 1.5468-2.8594h4.9956z"/>
  <path id="path3574" style="fill:#bebebe" d="m608 91v9l-6-4.5z"/>
  <path id="path3576" style="fill:#bebebe" d="m608 103v9l-6-4.5z"/>
 </g>
</svg>
