<svg xmlns="http://www.w3.org/2000/svg" viewBox="0 0 256 256"><defs><clipPath><path d="m 171 132 h 54.625 v 24 h -54.625"/></clipPath><clipPath><path d="m 148 97 h 77.63 v 24 h -77.62"/></clipPath><clipPath><path d="m 27.707 56.824 h 82.29 v 139.69 h -82.29"/></clipPath><clipPath><path d="m 74 56.824 h 129 v 139.69 h -129"/></clipPath></defs><g transform="translate(1.31 -795.35)"><path d="m 59.35 822.62 c 129.14 -91.63 260 77.59 154.77 185.54 -99.14 101.71 -253.18 7.415 -205.02 -119.15 10.05 -26.405 26.547 -49.575 50.25 -66.4 z" style="fill:#9acd32;color:#000"/><g transform="matrix(5.36366 0 0 5.82076 -1.876 766.67)"><path d="m 12.819,16.817 v 23.09 H 35.452 V 16.817 H 12.819 z m 1.042,1.062 h 20.55 V 38.842 H 13.861 V 17.879 z" style="fill:#fff"/><path transform="matrix(0.28547 -0.18636 0.24179 0.22079 53.768 -0.889)" d="m -147.47,1.764 11.19,9.226 -16.315,18.646 39.622,-15.538 -12.431,17.09 25.639,-10.877 -15.538,20.2 13.207,10.876" style="fill:none;stroke:#fff;stroke-width:6.339"/></g></g></svg>