<svg xmlns="http://www.w3.org/2000/svg" viewBox="0 0 256 256"><defs><clipPath><path d="m 171 132 h 54.625 v 24 h -54.625"/></clipPath><clipPath><path d="m 148 97 h 77.63 v 24 h -77.62"/></clipPath><clipPath><path d="m 27.707 56.824 h 82.29 v 139.69 h -82.29"/></clipPath><clipPath><path d="m 74 56.824 h 129 v 139.69 h -129"/></clipPath></defs><g transform="translate(0.145 -794.19)"><path d="m 61.952 822.5 c 129.74 -91.21 261.2 77.24 155.48 184.69 -99.6 101.24 -254.34 7.381 -205.97 -118.6 10.09 -26.28 26.669 -49.35 50.48 -66.09 z" style="fill:#9acd32;color:#000"/><path d="m 109.53 892.28 a 48.39 52.827 0 0 0 -45.796 35.902 38.712 42.26 0 0 0 -21.95 38.06 38.712 42.26 0 0 0 38.712 42.26 38.712 42.26 0 0 0 25.724 -10.756 48.39 52.827 0 0 0 3.31 0.19 48.39 52.827 0 0 0 20.45 -5.02 38.712 42.26 0 0 0 18.262 5.02 38.712 42.26 0 0 0 38.712 -42.26 38.712 42.26 0 0 0 -38.712 -42.26 38.712 42.26 0 0 0 -0.077 0 48.39 52.827 0 0 0 -38.636 -21.13 z" style="fill:#fff"/></g></svg>