<svg xmlns="http://www.w3.org/2000/svg" viewBox="0 0 256 256"><defs><clipPath><path d="m 171 132 h 54.625 v 24 h -54.625"/></clipPath><clipPath><path d="m 148 97 h 77.63 v 24 h -77.62"/></clipPath><clipPath><path d="m 27.707 56.824 h 82.29 v 139.69 h -82.29"/></clipPath><clipPath><path d="m 74 56.824 h 129 v 139.69 h -129"/></clipPath></defs><g transform="translate(0 -796.36)"><g transform="matrix(9.82876 0 0 9.69289 49.638 849.82)" style="fill:#fff;color:#bebebe"><path d="M 8,0 C 3.582,0 0,3.582 0,8 c 0,4.418 3.582,8 8,8 4.418,0 8,-3.582 8,-8 C 16,3.582 12.418,0 8,0 z m 0,2 c 3.314,0 6,2.686 6,6 0,3.314 -2.686,6 -6,6 C 4.686,14 2,11.314 2,8 2,4.686 4.686,2 8,2 z"/><path d="M 7,4 7,8 4,8 8,12 12,8 9,8 9,4 z"/></g><g transform="matrix(0.9909 0 0 0.99545 2.475 4.634)"><path d="M 60.17,822.74 C 191.1,730.69 323.77,900.688 217.08,1009.13 116.57,1111.3 -39.6,1016.579 9.22,889.44 19.405,862.914 36.134,839.638 60.168,822.74 z" style="fill:#9acd32;color:#000"/><path d="m 79.6,897.21 -8.516,8.412 h -8.516 c -17.03,0 -17.03,16.825 -17.03,16.825 v 58.887 c 0,16.825 17.03,16.825 17.03,16.825 h 85.16 c 17.03,0 17.03,-16.825 17.03,-16.825 v -58.887 c 0,-16.825 -17.03,-16.825 -17.03,-16.825 h -8.516 l -8.516,-8.412 z m 25.547,25.24 c 14.11,0 25.547,11.299 25.547,25.24 0,13.938 -11.438,25.24 -25.547,25.24 -14.11,0 -25.547,-11.299 -25.547,-25.24 0,-13.938 11.438,-25.24 25.547,-25.24 z" style="fill:#fff;color:#bebebe"/></g></g></svg>