<svg xmlns="http://www.w3.org/2000/svg" viewBox="0 0 256 256"><defs><clipPath><path d="m 171 132 h 54.625 v 24 h -54.625"/></clipPath><clipPath><path d="m 148 97 h 77.63 v 24 h -77.62"/></clipPath><clipPath><path d="m 27.707 56.824 h 82.29 v 139.69 h -82.29"/></clipPath><clipPath><path d="m 74 56.824 h 129 v 139.69 h -129"/></clipPath></defs><g transform="translate(0.145 -795.35)"><path d="m 60.17 822.62 c 130.93 -91.63 263.6 77.59 156.91 185.54 -100.51 101.71 -256.68 7.415 -207.86 -119.15 10.185 -26.405 26.914 -49.575 50.948 -66.4 z" style="fill:#9acd32;color:#000"/><path d="m 155.87,883.11 -33.18,53.49 17.864,8.915 z m -102.08,29.717 -25.521,23.774 33.18,-5.944 20.417,77.27 12.76,-8.915 76.56,8.915 -25.521,-56.46 -12.76,-2.972 -43.38,29.718 -20.416,-59.44 z m 51.04,23.774 -20.417,14.859 7.656,20.802 35.729,-23.774 -12.76,-11.887 z" style="fill:#fff"/></g></svg>