<svg xmlns="http://www.w3.org/2000/svg" viewBox="0 0 256 256"><defs><clipPath><path d="m 171 132 h 54.625 v 24 h -54.625"/></clipPath><clipPath><path d="m 148 97 h 77.63 v 24 h -77.62"/></clipPath><clipPath><path d="m 27.707 56.824 h 82.29 v 139.69 h -82.29"/></clipPath><clipPath><path d="m 74 56.824 h 129 v 139.69 h -129"/></clipPath></defs><g transform="translate(0 -796.36)"><g transform="matrix(9.82876 0 0 9.69289 49.638 849.82)" style="fill:#fff;color:#bebebe"><path d="M 8,0 C 3.582,0 0,3.582 0,8 c 0,4.418 3.582,8 8,8 4.418,0 8,-3.582 8,-8 C 16,3.582 12.418,0 8,0 z m 0,2 c 3.314,0 6,2.686 6,6 0,3.314 -2.686,6 -6,6 C 4.686,14 2,11.314 2,8 2,4.686 4.686,2 8,2 z"/><path d="M 7,4 7,8 4,8 8,12 12,8 9,8 9,4 z"/></g><g transform="translate(1.31 1.01)"><path d="m 59.62 822.5 c 129.74 -91.21 261.2 77.24 155.48 184.69 -99.6 101.24 -254.34 7.381 -205.97 -118.6 10.09 -26.28 26.669 -49.35 50.48 -66.09 z" style="fill:#9acd32;color:#000"/><path d="m 136.06 819.43 c -42.08 0 -76.19 33.867 -76.19 75.64 0 41.78 34.11 75.64 76.19 75.64 42.08 0 76.19 -33.867 76.19 -75.64 0 -41.78 -34.11 -75.64 -76.19 -75.64 m 0.152 18.929 c 9.696 0 15.999 6.893 15.999 17.646 0 4.493 -0.634 7.873 -3.867 21.35 -3.555 15.725 -4.525 22.305 -5.657 37.707 h -13.256 c -1.454 -14.922 -2.91 -24.388 -5.657 -36.744 -3.232 -14.762 -3.867 -18.608 -3.867 -23.904 0 -8.986 7.092 -16.06 16.304 -16.06 m -0.152 83.76 c 8.242 0 14.875 6.586 14.875 14.769 0 8.183 -6.785 14.921 -15.03 14.921 -8.242 0 -14.875 -6.738 -14.875 -15.244 0 -7.863 6.785 -14.448 15.03 -14.448" style="fill:#fff;fill-rule:evenodd"/></g></g></svg>