<svg xmlns="http://www.w3.org/2000/svg" viewBox="0 0 256 256"><defs><clipPath><path d="m 171 132 h 54.625 v 24 h -54.625"/></clipPath><clipPath><path d="m 148 97 h 77.63 v 24 h -77.62"/></clipPath><clipPath><path d="m 27.707 56.824 h 82.29 v 139.69 h -82.29"/></clipPath><clipPath><path d="m 74 56.824 h 129 v 139.69 h -129"/></clipPath></defs><g transform="translate(1.31 -795.35)"><path d="m 59.896 822.62 c 130.33 -91.63 262.4 77.59 156.2 185.54 -100.05 101.71 -255.51 7.415 -206.91 -119.15 10.139 -26.405 26.792 -49.575 50.716 -66.4 z" style="fill:#9acd32;color:#000"/><path d="m 93.76,891.87 a 63.41,62.864 0 0 0 -63.41,62.864 63.41,62.864 0 0 0 63.41,62.864 63.41,62.864 0 0 0 63.41,-62.864 63.41,62.864 0 0 0 -63.41,-62.864 z m -36.23,26.942 h 18.12 v 0.054 l 0.018,-0.018 18.1,26.907 18.12,-26.942 h 0.018 18.1 v 71.845 h -18.12 v -35.923 l -18.12,17.961 -18.12,-17.961 v 35.923 h -18.12 v -71.845 z" style="fill:#fff"/></g></svg>