<?xml version="1.0" encoding="UTF-8" standalone="no"?>
<svg
   xmlns:dc="http://purl.org/dc/elements/1.1/"
   xmlns:cc="http://creativecommons.org/ns#"
   xmlns:rdf="http://www.w3.org/1999/02/22-rdf-syntax-ns#"
   xmlns:svg="http://www.w3.org/2000/svg"
   xmlns="http://www.w3.org/2000/svg"
   xmlns:sodipodi="http://sodipodi.sourceforge.net/DTD/sodipodi-0.dtd"
   xmlns:inkscape="http://www.inkscape.org/namespaces/inkscape"
   viewBox="0 0 256 256"
   id="svg2"
   version="1.1"
   inkscape:version="0.48.4 r9939"
   width="100%"
   height="100%"
   sodipodi:docname="folder-video.svg">
  <metadata
     id="metadata34">
    <rdf:RDF>
      <cc:Work
         rdf:about="">
        <dc:format>image/svg+xml</dc:format>
        <dc:type
           rdf:resource="http://purl.org/dc/dcmitype/StillImage" />
        <dc:title></dc:title>
      </cc:Work>
    </rdf:RDF>
  </metadata>
  <sodipodi:namedview
     pagecolor="#ffffff"
     bordercolor="#666666"
     borderopacity="1"
     objecttolerance="10"
     gridtolerance="10"
     guidetolerance="10"
     inkscape:pageopacity="0"
     inkscape:pageshadow="2"
     inkscape:window-width="644"
     inkscape:window-height="496"
     id="namedview32"
     showgrid="false"
     inkscape:zoom="0.921875"
     inkscape:cx="128"
     inkscape:cy="128"
     inkscape:window-x="101"
     inkscape:window-y="51"
     inkscape:window-maximized="0"
     inkscape:current-layer="g3359" />
  <defs
     id="defs4">
    <clipPath
       id="clipPath6">
      <path
         d="m 27.707 56.824 h 82.29 v 139.69 h -82.29"
         id="path8" />
    </clipPath>
    <clipPath
       id="clipPath10">
      <path
         d="m 74 56.824 h 129 v 139.69 h -129"
         id="path12" />
    </clipPath>
    <clipPath
       id="clipPath14">
      <path
         d="m 148 97 h 77.63 v 24 h -77.62"
         id="path16" />
    </clipPath>
    <clipPath
       id="clipPath18">
      <path
         d="m 171 132 h 54.625 v 24 h -54.625"
         id="path20" />
    </clipPath>
    <clipPath
       id="clipPath3355">
      <path
         id="path3357"
         d="m 27.707 56.824 h 82.29 v 139.69 h -82.29 Z" />
    </clipPath>
    <clipPath
       id="clipPath3351">
      <path
         id="path3353"
         d="m 74 56.824 h 129 v 139.69 h -129 Z" />
    </clipPath>
    <clipPath
       id="clipPath3347">
      <path
         id="path3349"
         d="m 171 132 h 54.625 v 24 h -54.625 Z" />
    </clipPath>
    <clipPath
       id="clipPath3343">
      <path
         id="path3345"
         d="m 148 97 h 77.63 v 24 h -77.62 Z" />
    </clipPath>
  </defs>
  <g
     transform="translate(0 -796.36)"
     id="g22">
    <g
       transform="matrix(9.82876 0 0 9.69289 49.638 849.82)"
       style="fill:#fff;color:#bebebe"
       id="g26">
      <path
         d="M 8,0 C 3.582,0 0,3.582 0,8 c 0,4.418 3.582,8 8,8 4.418,0 8,-3.582 8,-8 C 16,3.582 12.418,0 8,0 z m 0,2 c 3.314,0 6,2.686 6,6 0,3.314 -2.686,6 -6,6 C 4.686,14 2,11.314 2,8 2,4.686 4.686,2 8,2 z"
         id="path28" />
      <path
         d="M 7,4 7,8 4,8 8,12 12,8 9,8 9,4 z"
         id="path30" />
    </g>
    <g
       id="g3359"
       transform="translate(-0.00167694,-0.00843273)">
      <path
         id="path3361"
         style="color:#000000;fill:#9acd32"
         d="M 60.17,822.74 C 191.1,730.69 323.77,900.688 217.08,1009.13 116.57,1111.3 -39.6,1016.579 9.22,889.44 19.405,862.914 36.134,839.638 60.168,822.74 z"
         inkscape:connector-curvature="0" />
      <g
         id="g3363"
         style="color:#bebebe;fill:#ffffff">
        <path
           id="path3365"
           d="m 87.84,862.84 c -5.02,0 -9.06,3.718 -9.06,8.337 v 116.72 c 0,4.619 4.04,8.337 9.06,8.337 h 90.62 c 5.02,0 9.06,-3.718 9.06,-8.337 v -83.37 c 0,-4.619 -40.29,-41.685 -45.31,-41.685 z m 4.531,8.337 h 49.839 v 33.35 h 36.25 v 79.2 c 0,2.309 -2.02,4.168 -4.531,4.168 h -81.55 c -2.51,0 -4.531,-1.859 -4.531,-4.168 v -108.38 c 0,-2.309 2.02,-4.168 4.531,-4.168 z"
           inkscape:connector-curvature="0" />
        <path
           id="path3367"
           d="m 85.67,860.67 c -5.02,0 -9.06,3.718 -9.06,8.337 v 116.72 c 0,4.619 4.04,8.337 9.06,8.337 h 90.62 c 5.02,0 9.06,-3.718 9.06,-8.337 v -83.37 c 0,-4.619 -40.29,-41.685 -45.31,-41.685 z m 4.531,8.337 h 49.839 v 33.35 h 36.25 v 79.2 c 0,2.309 -2.02,4.168 -4.531,4.168 h -81.55 c -2.51,0 -4.531,-1.859 -4.531,-4.168 v -108.38 c 0,-2.309 2.02,-4.168 4.531,-4.168 z"
           inkscape:connector-curvature="0" />
      </g>
    </g>
  </g>
</svg>
