<svg xmlns="http://www.w3.org/2000/svg" viewBox="0 0 256 256"><defs><clipPath><path d="m 171 132 h 54.625 v 24 h -54.625"/></clipPath><clipPath><path d="m 148 97 h 77.63 v 24 h -77.62"/></clipPath><clipPath><path d="m 27.707 56.824 h 82.29 v 139.69 h -82.29"/></clipPath><clipPath><path d="m 74 56.824 h 129 v 139.69 h -129"/></clipPath></defs><g transform="translate(1.31 -797.68)"><path d="m 59.896 825.87 c 130.33 -90.79 262.4 76.884 156.2 183.85 -100.05 100.78 -255.51 7.347 -206.91 -118.06 10.139 -26.16 26.792 -49.12 50.716 -65.789 z" style="fill:#9acd32;color:#000"/><g transform="matrix(6.32025 0 0 6.52642 -70.22 752.77)"><g style="font-family:Bitstream Vera Sans"><g style="font-size:12.666"><text x="877.23" y="10.813" style="opacity:0.8"><tspan x="877.23" y="10.813"/></text><text x="901.19" y="-29.929" style="opacity:0.8"><tspan x="901.19" y="-29.929"/></text><text x="-569.37" y="-60.01" style="opacity:0.8"><tspan x="-569.37" y="-60.01"/></text><text x="-2393.06" y="685.55" style="opacity:0.8"><tspan x="-2393.06" y="685.55"/></text><text x="-454.88" y="-445.33" style="opacity:0.8"><tspan x="-454.88" y="-445.33"/></text><text x="352.72" y="-858.8" style="opacity:0.8"><tspan x="352.72" y="-858.8"/></text><text x="376.68" y="-899.54" style="opacity:0.8"><tspan x="376.68" y="-899.54"/></text><text x="-1114.78" y="-906.75" style="opacity:0.8"><tspan x="-1114.78" y="-906.75"/></text><text x="345.76" y="-1179.98" style="opacity:0.8"><tspan x="345.76" y="-1179.98"/></text><text x="1831.89" y="-553.29" style="opacity:0.8"><tspan x="1831.89" y="-553.29"/></text><text x="1855.85" y="-594.03" style="opacity:0.8"><tspan x="1855.85" y="-594.03"/></text><text x="364.38" y="-601.24" style="opacity:0.8"><tspan x="364.38" y="-601.24"/></text><text x="1824.93" y="-874.48" style="opacity:0.8"><tspan x="1824.93" y="-874.48"/></text><text x="-573.43" y="-649.34" style="opacity:0.8"><tspan x="-573.43" y="-649.34"/></text><text x="-2397.12" y="96.22" style="opacity:0.8"><tspan x="-2397.12" y="96.22"/></text><text x="-682.36" y="189.09" style="opacity:0.8"><tspan x="-682.36" y="189.09"/></text><text x="426.66" y="9.908" style="opacity:0.8"><tspan x="426.66" y="9.908"/></text><text x="450.62" y="-30.834" style="opacity:0.8"><tspan x="450.62" y="-30.834"/></text><text x="-1040.84" y="-38.04" style="opacity:0.8"><tspan x="-1040.84" y="-38.04"/></text><text x="419.7" y="-311.28" style="opacity:0.8"><tspan x="419.7" y="-311.28"/></text><text x="-608.03" y="-40.758" style="opacity:0.8"><tspan x="-608.03" y="-40.758"/></text><text x="-2431.72" y="704.8" style="opacity:0.8"><tspan x="-2431.72" y="704.8"/></text><text x="-456.94" y="-902.29" style="opacity:0.8"><tspan x="-456.94" y="-902.29"/></text><text x="350.66" y="-1315.76" style="opacity:0.8"><tspan x="350.66" y="-1315.76"/></text><text x="374.62" y="-1356.5" style="opacity:0.8"><tspan x="374.62" y="-1356.5"/></text><text x="-1116.84" y="-1363.71" style="opacity:0.8"><tspan x="-1116.84" y="-1363.71"/></text><text x="343.7" y="-1636.94" style="opacity:0.8"><tspan x="343.7" y="-1636.94"/></text><text x="1829.83" y="-1010.25" style="opacity:0.8"><tspan x="1829.83" y="-1010.25"/></text><text x="1853.79" y="-1050.99" style="opacity:0.8"><tspan x="1853.79" y="-1050.99"/></text><text x="362.32" y="-1058.2" style="opacity:0.8"><tspan x="362.32" y="-1058.2"/></text><text x="1822.87" y="-1331.44" style="opacity:0.8"><tspan x="1822.87" y="-1331.44"/></text><text x="-575.49" y="-1106.3" style="opacity:0.8"><tspan x="-575.49" y="-1106.3"/></text><text x="-2399.18" y="-360.74" style="opacity:0.8"><tspan x="-2399.18" y="-360.74"/></text><text x="-684.42" y="-267.87" style="opacity:0.8"><tspan x="-684.42" y="-267.87"/></text><text x="155.59" y="-26.956" style="opacity:0.8"><tspan x="155.59" y="-26.956"/></text><text x="179.55" y="-67.7" style="opacity:0.8"><tspan x="179.55" y="-67.7"/></text><text x="-1090.26" y="-261.73" style="opacity:0.8"><tspan x="-1090.26" y="-261.73"/></text><text x="-282.66" y="-675.2" style="opacity:0.8"><tspan x="-282.66" y="-675.2"/></text><text x="-258.7" y="-715.94" style="opacity:0.8"><tspan x="-258.7" y="-715.94"/></text><text x="-1750.16" y="-723.15" style="opacity:0.8"><tspan x="-1750.16" y="-723.15"/></text><text x="-289.62" y="-996.38" style="opacity:0.8"><tspan x="-289.62" y="-996.38"/></text><text x="1196.5" y="-369.69" style="opacity:0.8"><tspan x="1196.5" y="-369.69"/></text><text x="1220.46" y="-410.43" style="opacity:0.8"><tspan x="1220.46" y="-410.43"/></text><text x="-271" y="-417.64" style="opacity:0.8"><tspan x="-271" y="-417.64"/></text><text x="1189.54" y="-690.88" style="opacity:0.8"><tspan x="1189.54" y="-690.88"/></text><text x="-1208.82" y="-465.73" style="opacity:0.8"><tspan x="-1208.82" y="-465.73"/></text><text x="-3032.5" y="279.82" style="opacity:0.8"><tspan x="-3032.5" y="279.82"/></text></g><text x="-664.27" y="1159.42" transform="matrix(0.90475 0 0 0.90475 -716.75 -676.29)" style="font-size:14;opacity:0.8"><tspan x="-664.27" y="1159.42"/></text><g style="font-size:12.666"><text x="877.23" y="18.05" style="opacity:0.8"><tspan x="877.23" y="18.05"/></text><text x="901.19" y="-22.691" style="opacity:0.8"><tspan x="901.19" y="-22.691"/></text><text x="-569.37" y="-52.769" style="opacity:0.8"><tspan x="-569.37" y="-52.769"/></text><text x="-2393.06" y="692.78" style="opacity:0.8"><tspan x="-2393.06" y="692.78"/></text><text x="-454.88" y="-438.09" style="opacity:0.8"><tspan x="-454.88" y="-438.09"/></text><text x="352.72" y="-851.56" style="opacity:0.8"><tspan x="352.72" y="-851.56"/></text><text x="376.68" y="-892.3" style="opacity:0.8"><tspan x="376.68" y="-892.3"/></text><text x="-1114.78" y="-899.51" style="opacity:0.8"><tspan x="-1114.78" y="-899.51"/></text><text x="345.76" y="-1172.75" style="opacity:0.8"><tspan x="345.76" y="-1172.75"/></text><text x="1831.89" y="-546.05" style="opacity:0.8"><tspan x="1831.89" y="-546.05"/></text><text x="1855.85" y="-586.8" style="opacity:0.8"><tspan x="1855.85" y="-586.8"/></text><text x="364.38" y="-594.01" style="opacity:0.8"><tspan x="364.38" y="-594.01"/></text><text x="1824.93" y="-867.24" style="opacity:0.8"><tspan x="1824.93" y="-867.24"/></text><text x="-573.43" y="-642.1" style="opacity:0.8"><tspan x="-573.43" y="-642.1"/></text><text x="-2397.12" y="103.46" style="opacity:0.8"><tspan x="-2397.12" y="103.46"/></text><text x="-682.36" y="196.33" style="opacity:0.8"><tspan x="-682.36" y="196.33"/></text><text x="426.66" y="17.15" style="opacity:0.8"><tspan x="426.66" y="17.15"/></text><text x="450.62" y="-23.596" style="opacity:0.8"><tspan x="450.62" y="-23.596"/></text><text x="-1040.84" y="-30.806" style="opacity:0.8"><tspan x="-1040.84" y="-30.806"/></text><text x="419.7" y="-304.04" style="opacity:0.8"><tspan x="419.7" y="-304.04"/></text><text x="-608.03" y="-33.52" style="opacity:0.8"><tspan x="-608.03" y="-33.52"/></text><text x="-2431.72" y="712.03" style="opacity:0.8"><tspan x="-2431.72" y="712.03"/></text><text x="-456.94" y="-895.05" style="opacity:0.8"><tspan x="-456.94" y="-895.05"/></text><text x="350.66" y="-1308.52" style="opacity:0.8"><tspan x="350.66" y="-1308.52"/></text><text x="374.62" y="-1349.26" style="opacity:0.8"><tspan x="374.62" y="-1349.26"/></text><text x="-1116.84" y="-1356.47" style="opacity:0.8"><tspan x="-1116.84" y="-1356.47"/></text><text x="343.7" y="-1629.71" style="opacity:0.8"><tspan x="343.7" y="-1629.71"/></text><text x="1829.83" y="-1003.02" style="opacity:0.8"><tspan x="1829.83" y="-1003.02"/></text><text x="1853.79" y="-1043.76" style="opacity:0.8"><tspan x="1853.79" y="-1043.76"/></text><text x="362.32" y="-1050.97" style="opacity:0.8"><tspan x="362.32" y="-1050.97"/></text><text x="1822.87" y="-1324.2" style="opacity:0.8"><tspan x="1822.87" y="-1324.2"/></text><text x="-575.49" y="-1099.06" style="opacity:0.8"><tspan x="-575.49" y="-1099.06"/></text><text x="-2399.18" y="-353.5" style="opacity:0.8"><tspan x="-2399.18" y="-353.5"/></text><text x="-684.42" y="-260.63" style="opacity:0.8"><tspan x="-684.42" y="-260.63"/></text><text x="155.59" y="-19.718" style="opacity:0.8"><tspan x="155.59" y="-19.718"/></text><text x="179.55" y="-60.46" style="opacity:0.8"><tspan x="179.55" y="-60.46"/></text><text x="-1090.26" y="-254.49" style="opacity:0.8"><tspan x="-1090.26" y="-254.49"/></text><text x="-282.66" y="-667.96" style="opacity:0.8"><tspan x="-282.66" y="-667.96"/></text><text x="-258.7" y="-708.7" style="opacity:0.8"><tspan x="-258.7" y="-708.7"/></text><text x="-1750.16" y="-715.91" style="opacity:0.8"><tspan x="-1750.16" y="-715.91"/></text><text x="-289.62" y="-989.14" style="opacity:0.8"><tspan x="-289.62" y="-989.14"/></text><text x="1196.5" y="-362.45" style="opacity:0.8"><tspan x="1196.5" y="-362.45"/></text><text x="1220.46" y="-403.19" style="opacity:0.8"><tspan x="1220.46" y="-403.19"/></text><text x="-271" y="-410.4" style="opacity:0.8"><tspan x="-271" y="-410.4"/></text><text x="1189.54" y="-683.64" style="opacity:0.8"><tspan x="1189.54" y="-683.64"/></text><text x="-1208.82" y="-458.5" style="opacity:0.8"><tspan x="-1208.82" y="-458.5"/></text><text x="-3032.5" y="287.06" style="opacity:0.8"><tspan x="-3032.5" y="287.06"/></text></g><text x="-664.27" y="1159.42" transform="matrix(0.90475 0 0 0.90475 -716.75 -669.05)" style="font-size:14;opacity:0.8"><tspan x="-664.27" y="1159.42"/></text></g><g style="font-size:12.666"><text x="435.9" y="-361.23" style="font-family:Droid Sans"><tspan x="435.9" y="-361.23"/><tspan x="435.9" y="-345.39"/></text><g style="font-family:Bitstream Vera Sans"><text x="901.09" y="-843.27" style="opacity:0.8"><tspan x="901.09" y="-843.27"/></text><text x="-922.6" y="-97.72" style="opacity:0.8"><tspan x="-922.6" y="-97.72"/></text><text x="1628.17" y="-1128.27" style="opacity:0.8"><tspan x="1628.17" y="-1128.27"/></text><text x="1652.13" y="-1169.01" style="opacity:0.8"><tspan x="1652.13" y="-1169.01"/></text><text x="160.67" y="-1176.22" style="opacity:0.8"><tspan x="160.67" y="-1176.22"/></text><text x="1621.21" y="-1449.45" style="opacity:0.8"><tspan x="1621.21" y="-1449.45"/></text></g></g><path d="M 27.5 24.25 A 3.25 3.25 0 0 0 24.406 26.506 1.75 1.75 0 0 0 23.5 26.25 1.75 1.75 0 0 0 21.75 28 1.75 1.75 0 0 0 21.971 28.848 3.75 3.75 0 0 0 20.324 31.26 3.25 3.25 0 0 0 17.25 34.5 3.25 3.25 0 0 0 20.5 37.75 3.25 3.25 0 0 0 22.568 37 1.75 1.75 0 0 0 24 37.75 1.75 1.75 0 0 0 25.699 36.408 4.75 4.75 0 0 0 29 37.75 4.75 4.75 0 0 0 32.21 36.496 3.75 3.75 0 0 0 35 37.75 3.75 3.75 0 0 0 37.459 36.826 1.75 1.75 0 0 0 39 37.75 1.75 1.75 0 0 0 40.75 36 1.75 1.75 0 0 0 39 34.25 1.75 1.75 0 0 0 38.736 34.27 3.75 3.75 0 0 0 38.75 34 3.75 3.75 0 0 0 35 30.25 3.75 3.75 0 0 0 34.654 30.27 3.25 3.25 0 0 0 34.75 29.5 3.25 3.25 0 0 0 31.5 26.25 3.25 3.25 0 0 0 30.553 26.395 3.25 3.25 0 0 0 27.5 24.25 z" style="opacity:0.2"/><g style="fill:#fff;stroke:#9acd32;stroke-linecap:round;stroke-linejoin:round;stroke-width:0.5"><circle r="3.25" cx="31.5" cy="28.5"/><circle r="1.75" cx="39" cy="35"/><circle r="3.75" cx="35" cy="33"/><circle r="3.25" cy="33.5" cx="20.5"/><circle r="1.75" cy="27" cx="23.5"/><circle r="3.75" cx="24" cy="31"/><circle r="1.75" cy="35" cx="24"/><circle r="3.25" cy="26.5" cx="27.5"/><circle r="4.75" cy="32" cx="29"/></g></g></g></svg>