<svg xmlns="http://www.w3.org/2000/svg" viewBox="0 0 256 256"><defs><clipPath><path d="m 171 132 h 54.625 v 24 h -54.625"/></clipPath><clipPath><path d="m 148 97 h 77.63 v 24 h -77.62"/></clipPath><clipPath><path d="m 27.707 56.824 h 82.29 v 139.69 h -82.29"/></clipPath><clipPath><path d="m 74 56.824 h 129 v 139.69 h -129"/></clipPath></defs><g transform="translate(0 -796.36)"><g transform="matrix(9.82876 0 0 9.69289 49.638 849.82)" style="fill:#fff;color:#bebebe"><path d="M 8,0 C 3.582,0 0,3.582 0,8 c 0,4.418 3.582,8 8,8 4.418,0 8,-3.582 8,-8 C 16,3.582 12.418,0 8,0 z m 0,2 c 3.314,0 6,2.686 6,6 0,3.314 -2.686,6 -6,6 C 4.686,14 2,11.314 2,8 2,4.686 4.686,2 8,2 z"/><path d="M 7,4 7,8 4,8 8,12 12,8 9,8 9,4 z"/></g><g transform="matrix(1 0 0 0.9909 0.145 9.423)"><path d="M 60.17,822.74 C 191.1,730.69 323.77,900.688 217.08,1009.13 116.57,1111.3 -39.6,1016.579 9.22,889.44 19.405,862.914 36.134,839.638 60.168,822.74 z" style="fill:#9acd32;color:#000"/><path d="m 114.7 873.02 c -17.964 0.001 -35.809 7.141 -48.5 19.395 -12.693 12.257 -20.08 29.479 -20.08 46.811 0 17.332 7.39 34.555 20.08 46.811 12.693 12.257 30.538 19.395 48.5 19.395 17.964 0 35.82 -7.131 48.529 -19.385 12.709 -12.257 20.11 -29.486 20.11 -46.82 0 -17.333 -7.401 -34.563 -20.11 -46.82 c -12.709 -12.257 -30.565 -19.385 -48.529 -19.385 z m 0 17.655 c 13.174 -0.001 26.27 5.228 35.593 14.216 9.32 8.989 14.75 21.625 14.75 34.33 0 12.711 -5.43 25.348 -14.75 34.33 -9.32 8.989 -22.419 14.217 -35.593 14.216 -13.174 -0.001 -26.26 -5.236 -35.566 -14.224 -9.308 -8.989 -14.723 -21.619 -14.723 -34.32 0 -12.71 5.415 -25.34 14.723 -34.32 9.308 -8.989 22.392 -14.224 35.566 -14.224 z m -9.122 8.828 v 48.553 h 9.148 h 9.148 h 32.02 v -17.655 h -32.02 v -30.897 h -18.297 z" style="fill:#fff;fill-rule:evenodd"/></g></g></svg>