<svg xmlns="http://www.w3.org/2000/svg" viewBox="0 0 256 256"><defs><clipPath><path d="m 171 132 h 54.625 v 24 h -54.625"/></clipPath><clipPath><path d="m 74 56.824 h 129 v 139.69 h -129"/></clipPath><clipPath><path d="m 148 97 h 77.63 v 24 h -77.62"/></clipPath><clipPath><path d="m 27.707 56.824 h 82.29 v 139.69 h -82.29"/></clipPath><clipPath><path d="m 171 132 h 54.625 v 24 h -54.625"/></clipPath><clipPath><path d="m 27.707 56.824 h 82.29 v 139.69 h -82.29"/></clipPath><clipPath><path d="m 148 97 h 77.63 v 24 h -77.62"/></clipPath><clipPath><path d="m 74 56.824 h 129 v 139.69 h -129"/></clipPath></defs><g transform="translate(0 -796.36)"><g transform="matrix(9.82876 0 0 9.69289 49.638 849.82)" style="fill:#fff;color:#bebebe"><path d="M 8,0 C 3.582,0 0,3.582 0,8 c 0,4.418 3.582,8 8,8 4.418,0 8,-3.582 8,-8 C 16,3.582 12.418,0 8,0 z m 0,2 c 3.314,0 6,2.686 6,6 0,3.314 -2.686,6 -6,6 C 4.686,14 2,11.314 2,8 2,4.686 4.686,2 8,2 z"/><path d="M 7,4 7,8 4,8 8,12 12,8 9,8 9,4 z"/></g><g transform="translate(-1.086 1.076)"><path d="m 63.49 822.63 c 128.71 -91.66 259.13 77.62 154.25 185.6 -98.81 101.74 -252.33 7.417 -204.34 -119.18 10.01 -26.414 26.458 -49.591 50.08 -66.42 z" style="fill:#9acd32;color:#000"/><g transform="matrix(3.06306 0 0 3.68361 -108.13 831.73)" style="fill:#fff;color:#bebebe"><path d="m 77.57,6.945 c -11.317,0 -20.631,6.319 -21.649,15.54 h -5.49 l 8.108,8.633 8.108,-8.633 h -5.293 c 1,-6.722 7.89,-11.04 16.215,-11.04 9.01,0 16.328,6.104 16.328,13.625 0,7.521 -7.315,13.625 -16.328,13.625 -4.89,0 -9.281,-1.8 -12.274,-4.645 l -3.969,3.069 C 65.308,40.855 71.11,43.2 77.57,43.2 89.567,43.2 99.303,35.078 99.303,25.07 99.303,15.06 89.567,6.94 77.57,6.94 z"/><path d="m 78.94,13.852 h -2.036 l -2.036,12.09 10.182,6.907 v -1.727 l -6.109,-6.907 v -10.36 z"/></g></g></g></svg>