<svg xmlns="http://www.w3.org/2000/svg" xmlns:xlink="http://www.w3.org/1999/xlink" viewBox="0 0 256 256"><defs><path d="m -66.17 84.21 c 0 0.51 -0.649 0.923 -1.45 0.923 -0.801 0 -1.45 -0.413 -1.45 -0.923 0 -0.51 0.649 -0.923 1.45 -0.923 0.801 0 1.45 0.413 1.45 0.923 z" id="4" style="fill:#fff;opacity:0.212"/><clipPath><path d="m 171 132 h 54.625 v 24 h -54.625"/></clipPath><clipPath><path d="m 148 97 h 77.63 v 24 h -77.62"/></clipPath><clipPath><path d="m 74 56.824 h 129 v 139.69 h -129"/></clipPath><clipPath><path d="m 27.707 56.824 h 82.29 v 139.69 h -82.29"/></clipPath><filter id="2" style="color-interpolation-filters:sRGB"><feGaussianBlur stdDeviation="1.51175"/></filter><filter id="0" style="color-interpolation-filters:sRGB"><feGaussianBlur stdDeviation="0.25678"/></filter><filter id="3" style="color-interpolation-filters:sRGB"><feGaussianBlur stdDeviation="0.24682"/></filter><filter id="1" height="1.27" y="-0.135" width="1.058" x="-0.029" style="color-interpolation-filters:sRGB"><feGaussianBlur stdDeviation="0.47765"/></filter></defs><g transform="translate(1.31 -796.52)"><path d="m 59.896 824.83 c 130.33 -91.21 262.4 77.24 156.2 184.69 -100.05 101.24 -255.51 7.381 -206.91 -118.6 10.139 -26.28 26.792 -49.35 50.716 -66.09 z" style="fill:#9acd32;color:#000"/><g transform="matrix(1.67117 0 0 1.63781 0.356 783.01)" style="fill:#fff"><path id="5" transform="matrix(0.83696 0 0 0.95665 7.543 1.875)" d="m 63.2,49.605 c -7.551,0.105 -15.273,2.407 -21.404,6.501 -0.299,0.199 -4.36,4.255 -5.193,6.442 l -6.681,2.108 -3.705,2.548 c 1.629,2.993 3.554,5.777 6.05,8.228 l 4.116,-2.167 4.749,-5.769 c 3.932,-1.162 8.874,-0.767 13.172,2.957 l 10.322,13.528 c -1.308,0.854 -1.015,1.118 -0.412,2.255 0.509,0.96 7.401,11.679 10.734,16.427 6.666,9.497 15.07,20.09 15.07,20.09 1.01,1.321 2.985,1.641 4.433,0.732 l 7.156,-4.509 c 1.448,-0.909 1.832,-2.69 0.823,-4.01 0,0 -8.02,-10.857 -15.388,-19.912 -3.685,-4.527 -12.192,-14.186 -12.918,-15.02 -0.722,-0.831 -1.569,-1 -2.66,-0.351 L 61.11,66.155 c 0,0 -3.39,-5.158 -0.412,-7.35 6.722,-4.946 19.12,-1.959 20.232,-1.171 0,0 -1.239,-4.062 -1.266,-4.07 C 74.849,50.769 69.072,49.534 63.2,49.611 z" style="fill:#fff;opacity:0.4;fill-rule:evenodd;filter:url(#2)"/><path id="6" d="m 53.952,66.853 1.01,-0.745 C 51.84,60.522 49.22,53.231 40.799,52.198 c -2.096,0.265 -3.481,3.856 -4.312,6.215 l -6.603,2.236 -3.677,2.723 c 1.608,3.195 3.533,6.174 5.993,8.79 l 4.044,-2.32 4.688,-6.164 c 3.88,-1.24 8.782,-0.8 13.02,3.175 z" style="fill:#fff;fill-rule:evenodd"/><path id="7" d="m 5.537,85.58 h 8.149 v 18.507 H 5.537 z" transform="matrix(0.82727 -0.56181 0.57661 0.81702 0 0)" style="fill:#fff"/><path id="8" d="m 63.728 83.69 c 0.503 1.024 7.287 12.452 10.577 17.519 6.579 10.135 14.877 21.465 14.877 21.465 0.995 1.41 2.944 1.747 4.373 0.777 l 7.086 -4.812 c 1.429 -0.97 1.793 -2.878 0.798 -4.289 0 0 -7.91 -11.593 -15.183 -21.257 -3.637 -4.832 -12 -15.179 -12.759 -16.04 -0.764 -0.866 -1.527 -1.104 -2.335 -0.555 -2.37 1.609 -4.74 3.219 -7.11 4.828 -0.681 0.463 -0.918 1.147 -0.323 2.36 z" style="fill:#fff"/><path id="9" d="m 63.843 83.71 c 0.503 1.024 10.525 -5.775 9.768 -6.634 -0.764 -0.866 -1.527 -1.104 -2.335 -0.555 -2.37 1.609 -4.74 3.219 -7.11 4.828 -0.681 0.463 -0.918 1.147 -0.323 2.36 z" style="fill:#fff;opacity:0.092"/><path id="A" d="m 89.18 122.67 c 0.995 1.41 2.944 1.747 4.373 0.777 l 7.086 -4.812 c 1.429 -0.97 1.793 -2.878 0.798 -4.289 0 0 -12.256 8.323 -12.256 8.323 z" style="fill:#fff;opacity:0.5"/><use xlink:href="#4" transform="matrix(0.63402 -0.43057 0.69401 0.98337 53.652 -29.99)" width="1" height="1"/><use xlink:href="#4" transform="matrix(0.63402 -0.43057 0.69401 0.98337 56.21 -26.36)" width="1" height="1"/><use xlink:href="#4" transform="matrix(0.63402 -0.43057 0.69401 0.98337 58.774 -22.731)" width="1" height="1"/><use xlink:href="#4" transform="matrix(0.63402 -0.43057 0.69401 0.98337 61.34 -19.1)" width="1" height="1"/><use xlink:href="#4" transform="matrix(0.63402 -0.43057 0.69401 0.98337 63.897 -15.473)" width="1" height="1"/><use xlink:href="#4" transform="matrix(0.63402 -0.43057 0.69401 0.98337 61.17 -27.04)" width="1" height="1"/><use xlink:href="#4" transform="matrix(0.63402 -0.43057 0.69401 0.98337 63.732 -23.414)" width="1" height="1"/><use xlink:href="#4" transform="matrix(0.63402 -0.43057 0.69401 0.98337 66.29 -19.785)" width="1" height="1"/><use xlink:href="#4" transform="matrix(0.63402 -0.43057 0.69401 0.98337 68.854 -16.16)" width="1" height="1"/><use xlink:href="#4" transform="matrix(0.63402 -0.43057 0.69401 0.98337 51.26 -25.678)" width="1" height="1"/><use xlink:href="#4" transform="matrix(0.63402 -0.43057 0.69401 0.98337 53.817 -22.05)" width="1" height="1"/><use xlink:href="#4" transform="matrix(0.63402 -0.43057 0.69401 0.98337 58.939 -14.791)" width="1" height="1"/><use xlink:href="#4" transform="matrix(0.63402 -0.43057 0.69401 0.98337 59.848 12.263)" width="1" height="1"/><path d="m 41.588 51.54 c -0.792 0.572 -1.559 1.183 -2.312 1.822 0.649 1.348 2.884 3.941 3.82 5.01 0.628 0.718 3.626 0.556 4.439 1.152 2.568 1.881 4.549 4.869 7.01 6.905 l 6.05 -3.954 c 0 0 -3.279 -5.735 -0.339 -8.07 6.635 -5.279 18.869 -2.101 19.969 -1.261 l -1.087 -4.225 c 0 0 -0.161 -0.081 -0.188 -0.09 -10.862 -6.818 -26.614 -5.05 -37.37 2.714 z" id="B" style="fill:#fff;fill-rule:evenodd"/><path id="C" d="m 40.768 55.52 c -0.855 -0.136 -3.131 -0.838 -1.369 -2.574 18.781 -13.5 33.919 -7.895 39.59 -4.04 -6.363 -3.582 -22.436 -6.104 -38.22 6.616 z" style="fill:#fff;opacity:0.11;fill-rule:evenodd;filter:url(#0)"/><path id="D" d="m 40.849 54.66 c -2.332 -0.301 -1.839 -1.382 -1.163 -1.857 18.781 -12.688 33.632 -7.178 39.3 -3.557 -5.9 -3.985 -22.355 -6.541 -38.14 5.414 z" style="fill:#fff;opacity:0.11;fill-rule:evenodd"/><path id="E" transform="matrix(1 0 0 0.94922 0 2.743)" d="m 40.845 53.977 c -1.22 0.266 -1.85 -0.737 -0.943 -1.454 18.781 -13.5 33.415 -7.475 39.09 -3.622 -5.9 -4.24 -21.262 -8.387 -38.14 5.076 z" style="fill:#fff;opacity:0.11;fill-rule:evenodd;filter:url(#3)"/><path id="F" d="m 40.725 53.26 c -0.23 0.184 -1.708 0.031 -0.618 -0.803 18.781 -12.403 33.21 -6.74 38.882 -3.2 -5.9 -3.895 -21.22 -8.154 -38.26 4 z" style="fill:#fff;opacity:0.11;fill-rule:evenodd;filter:url(#1)"/><path id="G" d="m 79.15,48.913 1.1,4.218 -0.147,0.1 -1.106,-4.187 0.153,-0.13 z" style="fill:#fff;opacity:0.11;fill-rule:evenodd"/><path id="H" d="m 47.841 43.681 c 0 3.627 -0.021 6.566 -0.047 6.566 -0.026 0 -0.047 -2.94 -0.047 -6.566 0 -3.627 0.021 -6.566 0.047 -6.566 0.026 0 0.047 2.94 0.047 6.566 z" transform="matrix(6.74098 -4.57793 0.42688 0.60486 -311.64 260.51)" style="fill:#fff"/><path id="I" d="m 27.505 64.06 c 1.86 -1.778 8.693 -5.692 9.595 -4.32 1.087 1.655 -5.07 6.05 -7.452 7.125 -0.816 0.367 -2.767 -2.208 -2.143 -2.805 z" style="fill:#fff;fill-rule:evenodd"/><path id="J" d="m 27.505 64.06 c 2.219 -1.509 8.36 -5.548 9.262 -4.176 1.087 1.655 -4.795 5.388 -7.119 6.981 -0.738 0.506 -2.857 -2.319 -2.143 -2.805 z" style="fill:#fff;fill-rule:evenodd"/><path id="K" d="m 27.505 64.06 c 2.219 -1.509 7.969 -5.364 8.871 -3.992 1.087 1.655 -4.404 5.204 -6.728 6.797 -0.738 0.506 -2.857 -2.319 -2.143 -2.805 z" style="fill:#fff;fill-rule:evenodd"/></g><g transform="matrix(-1.61393 0 0 1.57133 260.84 810.86)" style="fill:#fff"><use xlink:href="#5" width="1" height="1"/><use xlink:href="#6" width="1" height="1"/><use xlink:href="#7" width="1" height="1"/><use xlink:href="#8" width="1" height="1"/><use xlink:href="#9" width="1" height="1"/><use xlink:href="#A" width="1" height="1"/><use xlink:href="#4" transform="matrix(0.63402 -0.43057 0.69401 0.98337 53.652 -29.99)" width="1" height="1"/><use xlink:href="#4" transform="matrix(0.63402 -0.43057 0.69401 0.98337 56.21 -26.36)" width="1" height="1"/><use xlink:href="#4" transform="matrix(0.63402 -0.43057 0.69401 0.98337 58.774 -22.731)" width="1" height="1"/><use xlink:href="#4" transform="matrix(0.63402 -0.43057 0.69401 0.98337 61.34 -19.1)" width="1" height="1"/><use xlink:href="#4" transform="matrix(0.63402 -0.43057 0.69401 0.98337 63.897 -15.473)" width="1" height="1"/><use xlink:href="#4" transform="matrix(0.63402 -0.43057 0.69401 0.98337 61.17 -27.04)" width="1" height="1"/><use xlink:href="#4" transform="matrix(0.63402 -0.43057 0.69401 0.98337 63.732 -23.414)" width="1" height="1"/><use xlink:href="#4" transform="matrix(0.63402 -0.43057 0.69401 0.98337 66.29 -19.785)" width="1" height="1"/><use xlink:href="#4" transform="matrix(0.63402 -0.43057 0.69401 0.98337 68.854 -16.16)" width="1" height="1"/><use xlink:href="#4" transform="matrix(0.63402 -0.43057 0.69401 0.98337 51.26 -25.678)" width="1" height="1"/><use xlink:href="#4" transform="matrix(0.63402 -0.43057 0.69401 0.98337 53.817 -22.05)" width="1" height="1"/><use xlink:href="#4" transform="matrix(0.63402 -0.43057 0.69401 0.98337 58.939 -14.791)" width="1" height="1"/><use xlink:href="#4" transform="matrix(0.63402 -0.43057 0.69401 0.98337 59.848 12.263)" width="1" height="1"/><use xlink:href="#B"/><use xlink:href="#C" width="1" height="1"/><use xlink:href="#D" width="1" height="1"/><use xlink:href="#E" width="1" height="1"/><use xlink:href="#F" width="1" height="1"/><use xlink:href="#G" width="1" height="1"/><use xlink:href="#H" width="1" height="1"/><use xlink:href="#I" width="1" height="1"/><use xlink:href="#J" width="1" height="1"/><use xlink:href="#K" width="1" height="1"/></g></g></svg>