<svg xmlns="http://www.w3.org/2000/svg" viewBox="0 0 256 256"><defs><clipPath><path d="m 171 132 h 54.625 v 24 h -54.625"/></clipPath><clipPath><path d="m 148 97 h 77.63 v 24 h -77.62"/></clipPath><clipPath><path d="m 27.707 56.824 h 82.29 v 139.69 h -82.29"/></clipPath><clipPath><path d="m 74 56.824 h 129 v 139.69 h -129"/></clipPath></defs><g transform="translate(-1.02 -796.52)"><path d="m 61.952 822.74 c 129.74 -92.05 261.2 77.948 155.48 186.39 -99.6 102.17 -254.34 7.449 -205.97 -119.69 c 10.09 -26.526 26.669 -49.802 50.48 -66.7 z" style="fill:#9acd32;color:#000"/><g transform="matrix(11.096 0 0 11.24304 15.84 -10789.5)" style="fill:#fff"><path d="m 14,1045.8 -4,-6.4286 -3.875,0 3.75,6.4286 z"/><path d="m 6.875,1046.5 -1.875,2.8571 7,0 2,-2.8571 z"/><path d="M 5.75,3.7143 2,10.143 4,13 7.775,7.2857 z" transform="translate(0 1036.4)"/></g></g></svg>