<svg xmlns="http://www.w3.org/2000/svg" viewBox="0 0 256 256"><defs><clipPath><path d="m 171 132 h 54.625 v 24 h -54.625"/></clipPath><clipPath><path d="m 148 97 h 77.63 v 24 h -77.62"/></clipPath><clipPath><path d="m 27.707 56.824 h 82.29 v 139.69 h -82.29"/></clipPath><clipPath><path d="m 74 56.824 h 129 v 139.69 h -129"/></clipPath></defs><g transform="translate(1.31 -794.19)"><path d="m 59.35 822.38 c 129.14 -90.79 260 76.884 154.77 183.85 -99.14 100.78 -253.18 7.347 -205.02 -118.06 10.05 -26.16 26.547 -49.12 50.25 -65.789 z" style="fill:#9acd32;color:#000"/><path d="m 120.3,885.06 c -2.988,-0.092 -5.672,1.067 -7.03,3.304 -2.179,3.579 -0.098,8.548 4.656,11.148 l 14.233,7.798 15.04,8.236 c -1.674,0.462 -3.335,1.01 -4.953,1.628 l -33.862,8.612 c -0.134,0.034 -0.249,0.072 -0.38,0.11 l -26.335,6.701 c -5.305,1.347 -8.656,5.651 -7.529,9.645 1.128,3.993 6.289,6.108 11.591,4.76 l 27.474,-6.983 -3.73,4.917 c -0.061,0.076 -0.122,0.157 -0.182,0.235 l -32.1,42.24 c -3.208,4.222 -2.958,9.56 0.578,11.978 3.536,2.416 8.975,0.966 12.184,-3.257 l 6.654,-8.737 c 0.064,-0.08 0.119,-0.153 0.182,-0.235 l 14.15,-18.618 c 2.08,14.277 10.833,27.528 25.01,35.29 24.383,13.351 55.58,5.417 69.66,-17.707 13.785,-22.642 6.05,-51.46 -17.17,-65.18 -0.117,-0.076 -0.243,-0.146 -0.363,-0.219 -0.006,0 -0.01,-0.012 -0.016,-0.015 -0.158,-0.096 -0.314,-0.192 -0.479,-0.282 l -0.644,-0.345 -13.589,-7.453 -33.32,-18.241 -14.249,-7.798 c -1.783,-0.976 -3.688,-1.48 -5.482,-1.535 m 40.601,52.42 c 4.567,-0.097 9.212,0.949 13.457,3.272 12.349,6.761 16.59,21.735 9.461,33.444 -7.13,11.71 -22.936,15.732 -35.28,8.971 -12.349,-6.761 -16.574,-21.75 -9.444,-33.46 4.679,-7.685 13.09,-12.04 21.81,-12.228 m 0.182,8.377 c -5.732,0.122 -11.255,2.996 -14.329,8.05 -4.687,7.699 -1.911,17.551 6.208,21.998 8.119,4.445 18.492,1.796 23.18,-5.903 4.687,-7.699 1.911,-17.536 -6.208,-21.983 -2.791,-1.528 -5.849,-2.225 -8.85,-2.161" style="fill:#fff;fill-rule:evenodd"/></g></svg>