<svg xmlns="http://www.w3.org/2000/svg" viewBox="0 0 256 256" xmlns:xlink="http://www.w3.org/1999/xlink"><defs><clipPath><path d="m 171 132 h 54.625 v 24 h -54.625"/></clipPath><clipPath><path d="m 148 97 h 77.63 v 24 h -77.62"/></clipPath><clipPath><path d="m 27.707 56.824 h 82.29 v 139.69 h -82.29"/></clipPath><clipPath><path d="m 74 56.824 h 129 v 139.69 h -129"/></clipPath></defs><g transform="translate(0 -796.36)"><g transform="matrix(9.82876 0 0 9.69289 49.638 849.82)" style="fill:#fff;color:#bebebe"><path d="M 8,0 C 3.582,0 0,3.582 0,8 c 0,4.418 3.582,8 8,8 4.418,0 8,-3.582 8,-8 C 16,3.582 12.418,0 8,0 z m 0,2 c 3.314,0 6,2.686 6,6 0,3.314 -2.686,6 -6,6 C 4.686,14 2,11.314 2,8 2,4.686 4.686,2 8,2 z" id="0"/><path d="M 7,4 7,8 4,8 8,12 12,8 9,8 9,4 z" id="1"/></g><g transform="translate(-1.165 1.165)"><g transform="matrix(9.82876 0 0 9.69289 49.638 849.82)" style="fill:#fff;color:#bebebe"><use xlink:href="#0"/><use xlink:href="#1"/></g><g transform="matrix(1 0 0 0.98635 1.31 11.882)"><path d="m 59.62 822.74 c 129.74 -92.05 261.2 77.948 155.48 186.39 -99.6 102.17 -254.34 7.449 -205.97 -119.69 10.09 -26.526 26.669 -49.802 50.48 -66.7 z" style="fill:#9acd32;color:#000"/><g transform="matrix(8.41243 0 0 7.62445 -2933.29 3953.34)" style="fill:#fffafa;color:#bebebe"><path d="m 360 -402 c -2.02 0 -4 2.026 -4 4 v 2 h 10 v -2 c 0 -1.995 -1.964 -4 -4 -4 z m 0 2 h 2 c 1.157 0 2 1.17 2 2 v 2 h -6 v -2 c 0 -0.667 0.801 -2 2 -2 z"/><path d="m 355,-395 v 2.25 h 2.25 v 0.5 H 355 v 1.25 0.25 h 2.25 v 0.5 H 355 v 1.5 h 2.25 v 0.5 H 355 v 0.25 0.5 c 0,0.831 0.669,1.5 1.5,1.5 h 9 c 0.831,0 1.5,-0.669 1.5,-1.5 v -0.5 -0.25 h -2.25 v -0.5 H 367 v -1.5 h -2.25 v -0.5 H 367 v -0.25 -1.25 h -2.25 v -0.5 H 367 V -395 z"/></g></g></g></g></svg>