<svg xmlns="http://www.w3.org/2000/svg" viewBox="0 0 256 256"><defs><clipPath><path d="m 171 132 h 54.625 v 24 h -54.625"/></clipPath><clipPath><path d="m 74 56.824 h 129 v 139.69 h -129"/></clipPath><clipPath><path d="m 148 97 h 77.63 v 24 h -77.62"/></clipPath><clipPath><path d="m 27.707 56.824 h 82.29 v 139.69 h -82.29"/></clipPath><clipPath><path d="m 171 132 h 54.625 v 24 h -54.625"/></clipPath><clipPath><path d="m 27.707 56.824 h 82.29 v 139.69 h -82.29"/></clipPath><clipPath><path d="m 148 97 h 77.63 v 24 h -77.62"/></clipPath><clipPath><path d="m 74 56.824 h 129 v 139.69 h -129"/></clipPath></defs><g transform="translate(0 -796.36)"><g transform="matrix(9.82876 0 0 9.69289 49.638 849.82)" style="fill:#fff;color:#bebebe"><path d="M 8,0 C 3.582,0 0,3.582 0,8 c 0,4.418 3.582,8 8,8 4.418,0 8,-3.582 8,-8 C 16,3.582 12.418,0 8,0 z m 0,2 c 3.314,0 6,2.686 6,6 0,3.314 -2.686,6 -6,6 C 4.686,14 2,11.314 2,8 2,4.686 4.686,2 8,2 z"/><path d="M 7,4 7,8 4,8 8,12 12,8 9,8 9,4 z"/></g><g transform="matrix(0.99153 0 0 0.99576 2.168 4.451)"><path d="M 60.17,822.74 C 191.1,730.69 323.77,900.688 217.08,1009.13 116.57,1111.3 -39.6,1016.579 9.22,889.44 19.405,862.914 36.134,839.638 60.168,822.74 z" style="fill:#9acd32;color:#000"/><path transform="matrix(8.69575 0 0 7.51839 51.06 866.1)" d="M 13.375,0 6,1.906 C 5.446,2.054 5,2.645 5,3.219 v 9.09 C 4.438,12.015 3.717,11.896 2.969,12.09 c -1.35,0.351 -2.196,1.484 -1.906,2.531 0.289,1.047 1.619,1.632 2.969,1.281 1.077,-0.28 1.819,-1.071 1.938,-1.906 l 0.031,-8.594 7,-1.875 v 6.781 C 12.439,10.014 11.718,9.895 10.97,10.089 9.62,10.44 8.774,11.573 9.064,12.62 c 0.289,1.047 1.619,1.632 2.969,1.281 1.077,-0.28 1.819,-1.071 1.938,-1.906 L 14.002,0.807 c 0,-0.43 -0.266,-0.752 -0.625,-0.813 z" style="fill:#fff;color:#bebebe"/></g></g></svg>