<svg xmlns="http://www.w3.org/2000/svg" viewBox="0 0 256 256"><defs><clipPath><path d="m 171 132 h 54.625 v 24 h -54.625"/></clipPath><clipPath><path d="m 148 97 h 77.63 v 24 h -77.62"/></clipPath><clipPath><path d="m 27.707 56.824 h 82.29 v 139.69 h -82.29"/></clipPath><clipPath><path d="m 74 56.824 h 129 v 139.69 h -129"/></clipPath></defs><g transform="translate(0 -796.36)"><g transform="matrix(9.82876 0 0 9.69289 49.638 849.82)" style="fill:#fff;color:#bebebe"><path d="M 8,0 C 3.582,0 0,3.582 0,8 c 0,4.418 3.582,8 8,8 4.418,0 8,-3.582 8,-8 C 16,3.582 12.418,0 8,0 z m 0,2 c 3.314,0 6,2.686 6,6 0,3.314 -2.686,6 -6,6 C 4.686,14 2,11.314 2,8 2,4.686 4.686,2 8,2 z"/><path d="M 7,4 7,8 4,8 8,12 12,8 9,8 9,4 z"/></g><g transform="matrix(1 0 0 0.9909 1.31 9.423)"><path d="m 59.62 822.74 c 129.74 -92.05 261.2 77.948 155.48 186.39 -99.6 102.17 -254.34 7.449 -205.97 -119.69 10.09 -26.526 26.669 -49.802 50.48 -66.7 z" style="fill:#9acd32;color:#000"/><path d="m 59.941,989.16 -3.29,-3.045 v -59.991 -59.991 l 2.694,-2.901 2.694,-2.901 29.573,-0.306 29.573,-0.306 10.375,10.341 10.375,10.341 29.933,0.305 c 29.451,0.3 29.974,0.343 32.476,2.66 l 2.542,2.355 v 50.606 50.606 l -2.544,2.355 -2.544,2.355 -69.28,0.282 -69.28,0.282 -3.29,-3.045 z m 71.909,-17.938 c -0.695,-11.661 0.431,-17.41 4.303,-21.966 2.801,-3.296 10.152,-6.67 14.605,-6.703 l 3.072,-0.023 v 9.909 c 0,5.45 0.44,9.754 0.978,9.564 1.578,-0.556 43.568,-30.28 43.578,-30.846 0.011,-0.578 -41.953,-30.3 -43.543,-30.846 -0.563,-0.192 -1.013,4.282 -1.013,10.08 v 10.426 h -5.407 c -6.664,0 -14.528,2.112 -19.11,5.133 -10.917,7.195 -11.266,25.54 -0.921,48.35 1.875,4.134 3.562,7.517 3.75,7.517 0.188,0 0.057,-4.769 -0.291,-10.598 z" style="fill:#fff"/></g></g></svg>