<svg xmlns="http://www.w3.org/2000/svg" viewBox="0 0 256 256"><defs><clipPath><path d="m 171 132 h 54.625 v 24 h -54.625"/></clipPath><clipPath><path d="m -24 13 c 0 1.105 -0.672 2 -1.5 2 -0.828 0 -1.5 -0.895 -1.5 -2 0 -1.105 0.672 -2 1.5 -2 0.828 0 1.5 0.895 1.5 2 z" transform="matrix(15.33333 0 0 11.5 415 -125.5)"/></clipPath><clipPath><path d="m 148 97 h 77.63 v 24 h -77.62"/></clipPath><clipPath><path d="m 27.707 56.824 h 82.29 v 139.69 h -82.29"/></clipPath><clipPath><path d="m 74 56.824 h 129 v 139.69 h -129"/></clipPath></defs><g transform="translate(0 -796.36)"><g transform="matrix(9.82876 0 0 9.69289 49.638 849.82)" style="fill:#fff;color:#bebebe"><path d="M 8,0 C 3.582,0 0,3.582 0,8 c 0,4.418 3.582,8 8,8 4.418,0 8,-3.582 8,-8 C 16,3.582 12.418,0 8,0 z m 0,2 c 3.314,0 6,2.686 6,6 0,3.314 -2.686,6 -6,6 C 4.686,14 2,11.314 2,8 2,4.686 4.686,2 8,2 z"/><path d="M 7,4 7,8 4,8 8,12 12,8 9,8 9,4 z"/></g><g transform="matrix(-0.99153 0 0 0.98729 256.01 10.661)" style="fill:#9acd32;color:#000"><path d="m 203.23 1027.39 c -192.46 127.95 -311 -280.09 -62.2 -226.07 102.82 23.02 165.22 167.39 62.2 226.07 z"/><path transform="matrix(-4.2688 0 0 4.34188 229.36 819.66)" d="m 13,9 0,32 11,-7 11,7 0,-32 z m 4,4 14,0 0,20.6 -7,-3.85 -7,3.85 z" style="fill:#fff;color:#000;fill-rule:evenodd"/></g></g></svg>