<svg xmlns="http://www.w3.org/2000/svg" viewBox="0 0 256 256"><defs><clipPath><path d="m 171 132 h 54.625 v 24 h -54.625"/></clipPath><clipPath><path d="m 148 97 h 77.63 v 24 h -77.62"/></clipPath><clipPath><path d="m 27.707 56.824 h 82.29 v 139.69 h -82.29"/></clipPath><clipPath><path d="m 74 56.824 h 129 v 139.69 h -129"/></clipPath></defs><g transform="translate(0 -796.36)"><g transform="matrix(9.82876 0 0 9.69289 49.638 849.82)" style="fill:#fff;color:#bebebe"><path d="M 8,0 C 3.582,0 0,3.582 0,8 c 0,4.418 3.582,8 8,8 4.418,0 8,-3.582 8,-8 C 16,3.582 12.418,0 8,0 z m 0,2 c 3.314,0 6,2.686 6,6 0,3.314 -2.686,6 -6,6 C 4.686,14 2,11.314 2,8 2,4.686 4.686,2 8,2 z"/><path d="M 7,4 7,8 4,8 8,12 12,8 9,8 9,4 z"/></g><g transform="translate(1.31 -0.155)" style="color:#000"><path d="m 59.896 824.83 c 130.33 -91.21 262.4 77.24 156.2 184.69 -100.05 101.24 -255.51 7.381 -206.91 -118.6 10.139 -26.28 26.792 -49.35 50.716 -66.09 z" style="fill:#9acd32"/><g transform="matrix(9.22599 0 0 9.18489 35.21 -8637.32)" style="fill:#fff"><path d="m 2,1049.36 h 9 v 1 H 2 z"/><path d="m 2,1047.36 h 12 v 1 H 2 z"/><path d="m 2,1045.36 h 6 v 1 H 2 z"/><path d="m 2,1043.36 h 10 v 1 H 2 z"/><path d="m 2,1039.36 h 6 v 1 H 2 z"/><path d="m 2,1041.36 h 12 v 1 H 2 z"/></g></g></g></svg>