<svg xmlns="http://www.w3.org/2000/svg" viewBox="0 0 256 256"><defs><clipPath><path d="m 171 132 h 54.625 v 24 h -54.625"/></clipPath><clipPath><path d="m 148 97 h 77.63 v 24 h -77.62"/></clipPath><clipPath><path d="m 27.707 56.824 h 82.29 v 139.69 h -82.29"/></clipPath><clipPath><path d="m 74 56.824 h 129 v 139.69 h -129"/></clipPath></defs><g transform="translate(0 -796.36)"><g transform="matrix(9.82876 0 0 9.69289 49.638 849.82)" style="fill:#fff;color:#bebebe"><path d="M 8,0 C 3.582,0 0,3.582 0,8 c 0,4.418 3.582,8 8,8 4.418,0 8,-3.582 8,-8 C 16,3.582 12.418,0 8,0 z m 0,2 c 3.314,0 6,2.686 6,6 0,3.314 -2.686,6 -6,6 C 4.686,14 2,11.314 2,8 2,4.686 4.686,2 8,2 z"/><path d="M 7,4 7,8 4,8 8,12 12,8 9,8 9,4 z"/></g><g transform="translate(1.083 -1.093)" style="color:#000"><path d="m 59.66 824.83 c 129.82 -91.21 261.37 77.24 155.58 184.69 -99.66 101.24 -254.5 7.381 -206.1 -118.6 10.1 -26.28 26.686 -49.35 50.52 -66.09 z" style="fill:#9acd32"/><path transform="matrix(9.2868 -0.0791 0.07733 9.49992 -4796.44 -746.17)" d="m 530.95 186.71 c -0.779 0.552 -3.158 -1.906 -4.113 -1.918 -0.955 -0.012 -3.395 2.386 -4.161 1.815 -0.766 -0.571 0.837 -3.592 0.553 -4.504 -0.284 -0.912 -3.318 -2.492 -3.01 -3.396 0.306 -0.905 3.675 -0.314 4.454 -0.866 0.78 -0.552 1.344 -3.926 2.3 -3.914 0.955 0.012 1.434 3.398 2.2 3.969 0.766 0.571 4.149 0.065 4.433 0.977 0.284 0.912 -2.788 2.414 -3.095 3.319 -0.307 0.905 1.22 3.966 0.44 4.518 z" style="fill:#fff"/></g></g></svg>