<svg xmlns="http://www.w3.org/2000/svg" viewBox="0 0 256 256"><defs><clipPath><path d="m 171 132 h 54.625 v 24 h -54.625"/></clipPath><clipPath><path d="m 148 97 h 77.63 v 24 h -77.62"/></clipPath><clipPath><path d="m 27.707 56.824 h 82.29 v 139.69 h -82.29"/></clipPath><clipPath><path d="m 74 56.824 h 129 v 139.69 h -129"/></clipPath></defs><g transform="matrix(0.98635 0 0 0.9909 2.475 -788.1)" style="color:#000"><path d="M 60.17,822.74 C 191.1,730.69 323.77,900.688 217.08,1009.13 116.57,1111.3 -39.6,1016.579 9.22,889.44 19.405,862.914 36.134,839.638 60.168,822.74 z" style="fill:#9acd32"/><path d="m 99.31,895.92 c -30.414,0 -55.06,26.814 -55.06,59.894 0,33.08 24.648,59.894 55.06,59.894 h 71.21 v -11.232 H 99.31 c -24.711,0 -44.744,-21.787 -44.744,-48.665 0,-26.877 20.03,-48.675 44.744,-48.675 v -11.22 m 0,14.971 c -22.811,0 -41.29,20.12 -41.29,44.923 0,24.808 18.483,44.914 41.29,44.914 h 71.21 V 989.492 H 99.31 c -17.11,0 -30.975,-15.07 -30.975,-33.682 0,-18.607 13.866,-33.694 30.975,-33.694 4.157,0 8.106,0.901 11.728,2.514 l 3.92,-10.415 c -4.969,-2.214 -10.278,-3.332 -15.649,-3.332 m 0,14.971 c -15.207,0 -27.524,13.413 -27.524,29.952 0,16.539 12.318,29.943 27.524,29.943 h 71.21 v -11.232 h -71.21 c -9.504,0 -17.208,-8.374 -17.208,-18.71 0,-10.338 7.703,-18.723 17.208,-18.723 4.752,0 9.04,2.109 12.154,5.497 l 7.316,-7.956 c -5.164,-5.618 -12.169,-8.771 -19.472,-8.771" style="fill:#fff"/></g></svg>