<svg xmlns="http://www.w3.org/2000/svg" viewBox="0 0 256 256"><defs><clipPath><path d="m 171 132 h 54.625 v 24 h -54.625"/></clipPath><clipPath><path d="m 148 97 h 77.63 v 24 h -77.62"/></clipPath><clipPath><path d="m 27.707 56.824 h 82.29 v 139.69 h -82.29"/></clipPath><clipPath><path d="m 74 56.824 h 129 v 139.69 h -129"/></clipPath></defs><g transform="translate(0.145 -795.35)"><path d="m 60.17 822.62 c 130.93 -91.63 263.6 77.59 156.91 185.54 -100.51 101.71 -256.68 7.415 -207.86 -119.15 10.185 -26.405 26.914 -49.575 50.948 -66.4 z" style="fill:#9acd32;color:#000"/><g style="fill:#fff;fill-rule:evenodd"><path transform="matrix(3.03343 0 0 3.09925 65.23 904.22)" d="M 9,9 V 15.406 16 16.313 28.594 35 h 6.406 2.188 2.906 l 3.5,4 3.5,-4 H 30.406 32.594 39 V 28.594 16.313 16 15.406 9 H 32.594 32 30.406 C 26.857,9 24,11.857 24,15.406 24,11.857 21.143,9 17.594,9 H 16 15.406 9 z m 4,4 h 3.711 0.365 0.98 c 2.169,0 3.943,1.757 3.943,3.941 V 17.5 26.059 31 H 18.056 16.71 12.999 V 26.059 17.5 17.309 16.942 13.001 z m 16.943,0 h 0.98 0.365 3.711 v 3.941 0.367 0.191 8.559 4.941 H 31.288 29.942 25.999 V 26.058 17.499 16.94 c 0,-2.184 1.774,-3.941 3.943,-3.941 z"/><path transform="matrix(3.06959 0 0 3.3162 -962.9 -794.42)" d="m 323.34,506.89 v 6.406 0.594 0.313 12.281 6.406 h 6.406 2.188 2.906 l 3.5,4 3.5,-4 h 2.906 2.188 6.406 v -6.406 -12.281 -0.313 -0.594 -6.406 h -6.406 -0.594 -1.594 c -3.549,0 -6.406,2.857 -6.406,6.406 0,-3.549 -2.857,-6.406 -6.406,-6.406 h -1.594 -0.594 -6.406 z m 4,4 h 3.711 0.365 0.98 c 2.169,0 3.943,1.757 3.943,3.941 v 0.559 8.559 4.941 h -3.943 -1.346 -3.711 v -4.941 -8.559 -0.191 -0.367 -3.941 z m 16.943,0 h 0.98 0.365 3.711 v 3.941 0.367 0.191 8.559 4.941 h -3.711 -1.346 -3.943 v -4.941 -8.559 -0.559 c 0,-2.184 1.774,-3.941 3.943,-3.941 z"/></g></g></svg>