<svg xmlns="http://www.w3.org/2000/svg" viewBox="0 0 256 256"><defs><clipPath><path d="m 171 132 h 54.625 v 24 h -54.625"/></clipPath><clipPath><path d="m 148 97 h 77.63 v 24 h -77.62"/></clipPath><clipPath><path d="m 27.707 56.824 h 82.29 v 139.69 h -82.29"/></clipPath><clipPath><path d="m 74 56.824 h 129 v 139.69 h -129"/></clipPath></defs><g transform="translate(1.31 -796.52)" style="color:#000"><path d="m 59.62 822.74 c 129.74 -92.05 261.2 77.948 155.48 186.39 -99.6 102.17 -254.34 7.449 -205.97 -119.69 10.09 -26.526 26.669 -49.802 50.48 -66.7 z" style="fill:#9acd32"/><path d="m 135.32,897.46 c 21.13,46.25 -3.758,52.846 -5.637,79.27 0,0 -0.268,3.18 1.102,8.35 1.37,5.17 3.177,7.8 3.177,7.8 7.653,16.317 29.17,9.554 31.31,17.629 l -33.19,8.794 -33.19,8.794 c -2.14,-8.07 19.904,-12.855 18.474,-30.82 0,0 0.268,-3.18 -1.102,-8.35 -1.37,-5.17 -3.177,-7.8 -3.177,-7.8 -14.716,-22.03 -39.609,-15.43 -44.15,-66.08 l 33.19,-8.794 33.19,-8.794 z" style="fill:#fff"/></g></svg>