<svg xmlns="http://www.w3.org/2000/svg" viewBox="0 0 256 256"><defs><clipPath><path d="m 171 132 h 54.625 v 24 h -54.625"/></clipPath><clipPath><path d="m 148 97 h 77.63 v 24 h -77.62"/></clipPath><clipPath><path d="m 27.707 56.824 h 82.29 v 139.69 h -82.29"/></clipPath><clipPath><path d="m 74 56.824 h 129 v 139.69 h -129"/></clipPath></defs><g transform="translate(0 -796.36)"><g transform="matrix(9.82876 0 0 9.69289 49.638 849.82)" style="fill:#fff;color:#bebebe"><path d="M 8,0 C 3.582,0 0,3.582 0,8 c 0,4.418 3.582,8 8,8 4.418,0 8,-3.582 8,-8 C 16,3.582 12.418,0 8,0 z m 0,2 c 3.314,0 6,2.686 6,6 0,3.314 -2.686,6 -6,6 C 4.686,14 2,11.314 2,8 2,4.686 4.686,2 8,2 z"/><path d="M 7,4 7,8 4,8 8,12 12,8 9,8 9,4 z"/></g><g transform="matrix(1 0 0 0.99545 0.145 4.634)"><g style="color:#000"><path d="M 60.17,822.74 C 191.1,730.69 323.77,900.688 217.08,1009.13 116.57,1111.3 -39.6,1016.579 9.22,889.44 19.405,862.914 36.134,839.638 60.168,822.74 z" style="fill:#9acd32"/><g transform="matrix(9.19889 0 0 8.58773 -4018.66 -805.94)" style="fill:#fff"><path d="m 447.51 195.32 c -3.03 0 -5.511 2.632 -5.511 5.845 0 3.218 2.482 5.845 5.511 5.845 3.03 0 5.511 -2.632 5.511 -5.845 0 -3.218 -2.482 -5.845 -5.511 -5.845 z m 0 2.134 c 1.947 0 3.5 1.646 3.5 3.712 0 2.065 -1.552 3.712 -3.5 3.712 -1.947 0 -3.5 -1.646 -3.5 -3.712 0 -2.065 1.552 -3.712 3.5 -3.712 z"/><path d="m 450.81 204 a 1 1 0 0 0 -0.5 1.719 l 4 4 a 1.01 1.01 0 1 0 1.406 -1.438 l -4 -4 A 1 1 0 0 0 450.81 204 z"/></g></g><g transform="matrix(4.61575 0 0 5.26053 -2161.76 -159.26)" style="fill:#fff"><path d="m 503,203 v 1 c 0,0.01 0,0.021 0,0.031 0.011,0.255 0.129,0.51 0.313,0.688 l 5.219,5.281 0.969,-0.003 5.219,-5.278 c 0.188,-0.188 0.281,-0.454 0.281,-0.719 v -1 h -1.707 c -0.265,0 -0.531,0.093 -0.719,0.281 l -3.45,3.716 -0.108,1.5 -0.124,-1.5 -3.479,-3.716 c -0.195,-0.211 -0.469,-0.303 -0.75,-0.281 z" style="color:#bebebe"/><g style="color:#000"><rect height="2" rx="0.108" ry="0.095" width="2" x="508" y="202"/><rect height="2" rx="0.217" ry="0.19" width="2" x="508" y="196"/><rect height="2" rx="0.149" ry="0.131" width="2" x="508" y="199"/></g></g></g></g></svg>