<svg xmlns="http://www.w3.org/2000/svg" xmlns:xlink="http://www.w3.org/1999/xlink" viewBox="0 0 256 256"><defs><clipPath><path d="m 171 132 h 54.625 v 24 h -54.625"/></clipPath><clipPath><path d="m 148 97 h 77.63 v 24 h -77.62"/></clipPath><clipPath><path d="m 27.707 56.824 h 82.29 v 139.69 h -82.29"/></clipPath><clipPath><path d="m 74 56.824 h 129 v 139.69 h -129"/></clipPath></defs><g transform="translate(-1.02 -795.35)"><path d="m 62.843 822.62 c 129.14 -91.63 260 77.59 154.77 185.54 -99.14 101.71 -253.18 7.415 -205.02 -119.15 10.05 -26.405 26.547 -49.575 50.25 -66.4 z" style="fill:#9acd32;color:#000"/><g transform="matrix(3.23693 0 0 3.25988 49.784 -2425.8)" style="fill:#fff"><path id="0" d="m 27.5 1048.86 c 0 1.933 -1.568 3.5 -3.502 3.5 -1.934 0 -3.502 -1.567 -3.502 -3.5 0 -1.933 1.568 -3.5 3.502 -3.5 1.934 0 3.502 1.567 3.502 3.5 z" style="fill:#fff"/><path id="1" d="m 27.5 1007.86 c 0 1.933 -1.568 3.5 -3.502 3.5 -1.934 0 -3.502 -1.567 -3.502 -3.5 0 -1.933 1.568 -3.5 3.502 -3.5 1.934 0 3.502 1.567 3.502 3.5 z" style="fill:#fff"/><path id="2" d="m 11 1028.36 c 0 3.038 -2.464 5.5 -5.504 5.5 -3.04 0 -5.504 -2.463 -5.504 -5.5 0 -3.038 2.464 -5.5 5.504 -5.5 3.04 0 5.504 2.463 5.504 5.5 z" style="fill:#fff"/><path id="3" d="m 48 1028.36 c 0 3.038 -2.464 5.5 -5.504 5.5 -3.04 0 -5.504 -2.463 -5.504 -5.5 0 -3.038 2.464 -5.5 5.504 -5.5 3.04 0 5.504 2.463 5.504 5.5 z" style="fill:#fff"/><use xlink:href="#0" width="1" height="1"/><use xlink:href="#1" width="1" height="1"/><use xlink:href="#2" width="1" height="1"/><use xlink:href="#3" width="1" height="1"/><g style="fill:#fff;fill-rule:evenodd"><path d="m 10.136,1041.99 h 27.522 v 3.36 H 10.136 z"/><path d="m 1031.11 -25.776 h 14.18 v 3.611 h -14.18 z" transform="matrix(0 1 -1 0 0 0)"/><path d="m 40.19,18.538 c 0,6.373 -6.534,11.539 -14.595,11.539 C 17.535,30.077 11,24.911 11,18.538 11,12.165 17.534,6.999 25.595,6.999 c 8.06,0 14.595,5.166 14.595,11.539 z" transform="matrix(0.88913 0 0 1.03775 1.22 1004.1)" style="color:#000"/></g></g></g></svg>