<?xml version="1.0" encoding="UTF-8" standalone="no"?>
<svg id="svg2" xmlns:rdf="http://www.w3.org/1999/02/22-rdf-syntax-ns#" xmlns="http://www.w3.org/2000/svg" height="48" width="48" version="1.2" xmlns:cc="http://creativecommons.org/ns#" xmlns:xlink="http://www.w3.org/1999/xlink" xmlns:dc="http://purl.org/dc/elements/1.1/">
 <metadata id="metadata7">
  <rdf:RDF>
   <cc:Work rdf:about="">
    <dc:format>image/svg+xml</dc:format>
    <dc:type rdf:resource="http://purl.org/dc/dcmitype/StillImage"/>
    <dc:title/>
   </cc:Work>
  </rdf:RDF>
 </metadata>
 <path id="path5491" style="fill:#fff" d="m20.938 12l-6 6h-2.938-2v12h4.938l2.468 2.469 4.594-4.594v-15.875h-1.062zm6.5 2.25c-0.757 0.18-0.966 1.39-0.313 1.812 1.287 1.06 2.251 2.379 2.875 3.813l1.5-1.5c-0.741-1.456-1.79-2.776-3.125-3.875-0.217-0.197-0.523-0.291-0.813-0.25-0.041-0.003-0.083-0.003-0.124 0zm-2.813 4.438c-0.715 0.184-0.952 1.288-0.375 1.75 1.03 1.038 1.488 2.402 1.438 3.75l1.843-1.844c-0.289-1.228-0.898-2.391-1.843-3.344-0.231-0.256-0.6-0.379-0.938-0.312-0.042-0.003-0.083-0.003-0.125 0zm7.969 2.843l-1.782 1.781c0.167 2.507-0.553 5.082-2.25 7.188-0.454 0.564-0.82 0.975-1.374 1.438-0.531 0.273-0.695 1.072-0.313 1.531 0.382 0.458 1.198 0.441 1.563-0.031 0.64-0.535 1.163-1.037 1.687-1.688 2.388-2.965 3.175-6.736 2.469-10.219zm-5.594 5.594l-2.312 2.313c0.362 0.018 0.746-0.126 0.937-0.438 0.016-0.016 0.055 0.008 0.063 0 0.551-0.559 0.984-1.202 1.312-1.875zm-5 5l-2.438 2.437 1.5 1.5 0.938-0.062v-3.875z"/>
 <path id="path1023" style="color:#000000;stroke-width:1.5;fill:#fff" d="m33.938 11.938-22 22 2.125 2.125 22-22-2.125-2.125z"/>
</svg>
