<?xml version="1.0" encoding="UTF-8" standalone="no"?>
<svg xmlns="http://www.w3.org/2000/svg" height="48" width="48" version="1.2" xmlns:xlink="http://www.w3.org/1999/xlink">
 <path id="path6210" fill="#fff" d="m23 8c-0.554 0-1 0.446-1 1v2c0 0.554 0.446 1 1 1h2c0.554 0 1-0.446 1-1v-2c0-0.554-0.446-1-1-1h-2zm-8.906 3.688c-0.256 0-0.492 0.085-0.688 0.281l-1.437 1.437c-0.392 0.392-0.392 1.015 0 1.406l1.437 1.407c0.392 0.391 1.015 0.391 1.406 0l1.407-1.407c0.391-0.391 0.391-1.014 0-1.406l-1.407-1.437c-0.195-0.196-0.463-0.281-0.718-0.281zm19.812 0c-0.255 0-0.523 0.085-0.718 0.281l-1.407 1.437c-0.391 0.392-0.391 1.015 0 1.406l1.407 1.407c0.391 0.391 1.014 0.391 1.406 0l1.437-1.407c0.392-0.391 0.392-1.014 0-1.406l-1.437-1.437c-0.196-0.196-0.432-0.281-0.688-0.281zm-9.906 2.312c-5.236 0-10 4.764-10 10s4.764 10 10 10 10-4.764 10-10-4.764-10-10-10zm-15 8c-0.554 0-1 0.446-1 1v2c0 0.554 0.446 1 1 1h2c0.554 0 1-0.446 1-1v-2c0-0.554-0.446-1-1-1h-2zm28 0c-0.554 0-1 0.446-1 1v2c0 0.554 0.446 1 1 1h2c0.554 0 1-0.446 1-1v-2c0-0.554-0.446-1-1-1h-2zm-22.906 9.469c-0.256 0-0.492 0.116-0.688 0.312l-1.437 1.407c-0.392 0.391-0.392 1.014 0 1.406l1.437 1.437c0.392 0.392 1.015 0.392 1.406 0l1.407-1.437c0.391-0.392 0.391-1.015 0-1.406l-1.407-1.407c-0.195-0.196-0.463-0.312-0.718-0.312zm19.812 0c-0.255 0-0.523 0.116-0.718 0.312l-1.407 1.407c-0.391 0.391-0.391 1.014 0 1.406l1.407 1.437c0.391 0.392 1.014 0.392 1.406 0l1.437-1.437c0.392-0.392 0.392-1.015 0-1.406l-1.437-1.407c-0.196-0.196-0.432-0.312-0.688-0.312zm-10.906 4.531c-0.554 0-1 0.446-1 1v2c0 0.554 0.446 1 1 1h2c0.554 0 1-0.446 1-1v-2c0-0.554-0.446-1-1-1h-2z"/>
</svg>
