<?xml version="1.0" encoding="UTF-8" standalone="no"?>
<svg xmlns="http://www.w3.org/2000/svg" height="48" width="48" version="1.2" xmlns:xlink="http://www.w3.org/1999/xlink">
 <path id="path5491" d="m20.94 12.007-6 6h-2.9375-2v12h4.9375l6.125 6.0625 0.9375-0.0624v-24h-1.0625z" color="#ffffff" fill="#fff"/>
 <path id="path2995" d="m24.627 18.695c-0.7154 0.18403-0.95218 1.289-0.375 1.75 1.9639 1.9802 1.9581 5.1394 0 7.125-0.016 0.016 0.008 0.0552 0 0.0624-0.51396 0.31436-0.61135 1.1343-0.18534 1.5603 0.42602 0.42602 1.246 0.32862 1.5603-0.18534 0.016-0.016 0.0544 0.008 0.0624 0 2.7179-2.756 2.7259-7.2514 0-10-0.23035-0.25621-0.5995-0.37926-0.9375-0.3125-0.04161-0.0026-0.08339-0.0026-0.125 0z" color="#ffffff" fill="#fff"/>
 <path id="path2997" d="m27.44 14.257c-0.75694 0.17977-0.96554 1.3896-0.3125 1.8125 4.3507 3.5817 4.9825 10.036 1.4375 14.437-0.45408 0.56376-0.8205 0.97522-1.375 1.4375-0.53022 0.27339-0.69188 1.0709-0.30998 1.5291 0.3819 0.45828 1.1955 0.44308 1.56-0.02915 0.64074-0.5342 1.1633-1.0367 1.6875-1.6875 4.2222-5.2422 3.4379-12.979-1.75-17.25-0.21663-0.1968-0.52271-0.29098-0.8125-0.25-0.04161-0.0026-0.08339-0.0026-0.125 0z" color="#ffffff" fill="#fff"/>
 <path id="path2999" d="m30.377 10.007c-0.74024 0.21195-0.90522 1.4081-0.25 1.8125 6.6707 5.2423 7.8754 14.94 2.6875 21.687-0.83328 1.0838-1.6157 1.8457-2.6875 2.6875-0.42542 0.31089-0.52964 0.98083-0.21875 1.4062 0.31089 0.42542 0.98083 0.52964 1.4062 0.21875 1.1835-0.9296 2.1431-1.9292 3.0625-3.125 5.8456-7.6031 4.4613-18.587-3.0625-24.5-0.22707-0.17503-0.53171-0.24529-0.8125-0.1874-0.04161-0.0026-0.08339-0.0026-0.125 0z" color="#ffffff" fill="#fff"/>
</svg>
