<?xml version="1.0" encoding="UTF-8" standalone="no"?>
<!-- Created with Inkscape (http://www.inkscape.org/) -->
<svg id="svg5808" xmlns:rdf="http://www.w3.org/1999/02/22-rdf-syntax-ns#" xmlns="http://www.w3.org/2000/svg" height="16" width="16" version="1.1" xmlns:cc="http://creativecommons.org/ns#" xmlns:xlink="http://www.w3.org/1999/xlink" xmlns:dc="http://purl.org/dc/elements/1.1/">
 <defs id="defs5810">
  <linearGradient id="linearGradient3844" gradientUnits="userSpaceOnUse" x2="16" y1="16" x1="16">
   <stop id="stop3840" style="stop-color:#e1bf23" offset="0"/>
   <stop id="stop3842" style="stop-color:#fdf40b" offset="1"/>
  </linearGradient>
  <linearGradient id="linearGradient3902" y2="8" gradientUnits="userSpaceOnUse" x2="12" gradientTransform="translate(.5 .5)" y1="16" x1="12">
   <stop id="stop3906" style="stop-color:#104b88" offset="0"/>
   <stop id="stop3908" style="stop-color:#0e7398" offset="1"/>
  </linearGradient>
  <linearGradient id="linearGradient3058" y2="9" gradientUnits="userSpaceOnUse" y1="15" gradientTransform="translate(.5 .5)" x2="12" x1="12">
   <stop id="stop3888" style="stop-color:#5097e1" offset="0"/>
   <stop id="stop3890" style="stop-color:#53d0ff" offset="1"/>
  </linearGradient>
 </defs>
 <metadata id="metadata5813">
  <rdf:RDF>
   <cc:Work rdf:about="">
    <dc:format>image/svg+xml</dc:format>
    <dc:type rdf:resource="http://purl.org/dc/dcmitype/StillImage"/>
    <dc:title/>
   </cc:Work>
  </rdf:RDF>
 </metadata>
 <path id="path3813" style="block-progression:tb;text-indent:0;color:#000000;text-transform:none;fill:url(#linearGradient3844)" d="m8 1.8125l-0.4688 1.1875-1.1874 3.0625-0.0938 0.3125h-0.3438l-3.3437 0.1875-1.2813 0.0625 1 0.8125 2.5938 2.0937v0.0313l0.2812 0.2187-0.0937 0.2498v0.031l-0.8437 3.188-0.3438 1.25 1.0938-0.719 2.7812-1.812 0.25-0.157 0.25 0.157 2.781 1.812 1.094 0.719-0.344-1.25-0.843-3.188v-0.031l-0.094-0.2498 0.281-0.2187v-0.0313l2.594-2.0937 1-0.8125-1.281-0.0625-3.344-0.1875h-0.344l-0.0938-0.3125-1.1874-3.0625-0.4688-1.1875z"/>
 <path id="polygon5122-0" style="opacity:.8;block-progression:tb;text-indent:0;color:#000000;text-transform:none;fill:#9a7b00" d="m8 0.40625l-2.125 5.4688-5.875 0.3438 4.5625 3.6874-1.5 5.6878 4.9375-3.188 4.938 3.188-1.5-5.6878 4.562-3.6874-5.875-0.3438-2.125-5.4688zm0 2.7812l1.1875 3.0625 0.2187 0.5938 0.6558 0.0312 3.344 0.1875-2.594 2.0937-0.531 0.4063 0.188 0.6255 0.843 3.187-2.7808-1.813-0.5312-0.343-0.5312 0.343-2.7813 1.813 0.8437-3.187 0.1876-0.6255-0.5313-0.4063-2.5937-2.0937 3.3437-0.1875 0.6563-0.0312 0.2187-0.5938 1.1875-3.0625z"/>
 <path id="path3832" style="opacity:.4;block-progression:tb;text-indent:0;color:#000000;text-transform:none;fill:#fff" d="m8 3.1875l-1.1875 3.0313v0.0312l-0.0937 0.2812-0.0938 0.3438h-0.375-0.3125-0.0313l-3.3124 0.1875 1.1562 0.9375 2.1562-0.125h0.0313 0.3125 0.375l0.0938-0.3438 0.0937-0.2812v-0.0312l1.1875-3.0313 1.1875 3.0313v0.0312l0.0937 0.2812 0.0938 0.3438h0.375 0.312 0.032l2.156 0.125 1.156-0.9375-3.312-0.1875h-0.032-0.312-0.375l-0.0938-0.3438-0.0937-0.2812v-0.0312l-1.1875-3.0313zm-2.5 7.1875l-0.8125 3 0.3125-0.219 0.5312-1.937v-0.031l0.0313-0.063 0.0625-0.156 0.125-0.344-0.25-0.25zm5 0l-0.25 0.25 0.125 0.344 0.063 0.156 0.031 0.063v0.031l0.531 1.937 0.312 0.219-0.812-3z"/>
 <path id="rect3881" style="fill:url(#linearGradient3058)" d="m11.5 9.5v2h-2v2h2v2h2v-2h2v-2h-2v-2h-2z"/>
 <path id="path3894" d="m11.5 9.5v2h-2v2h2v2h2v-2h2v-2h-2v-2h-2z" style="opacity:0.81;stroke:url(#linearGradient3902);fill:none"/>
 <path id="rect3910" style="opacity:.1;fill:#d4f3ff" d="m12 10v1h1v-1h-1zm-2 2v1h2v-1h-2zm3 0v1h2v-1h-2z"/>
</svg>
