<?xml version="1.0" encoding="UTF-8" standalone="no"?>
<!-- Created with Inkscape (http://www.inkscape.org/) -->
<svg id="svg5400" xmlns:rdf="http://www.w3.org/1999/02/22-rdf-syntax-ns#" xmlns="http://www.w3.org/2000/svg" height="16px" width="16px" version="1.1" xmlns:cc="http://creativecommons.org/ns#" xmlns:xlink="http://www.w3.org/1999/xlink" xmlns:dc="http://purl.org/dc/elements/1.1/">
 <defs id="defs5402">
  <linearGradient id="linearGradient3917" y2="8" gradientUnits="userSpaceOnUse" x2="15.5" gradientTransform="matrix(0 -1 1 0 -1.213e-7 16)" y1="8" x1="0.5">
   <stop id="stop3864-8-6-6" style="stop-color:#cfcfcf" offset="0"/>
   <stop id="stop3866-9-1-7" style="stop-color:#d7d7d7" offset="1"/>
  </linearGradient>
 </defs>
 <metadata id="metadata5405">
  <rdf:RDF>
   <cc:Work rdf:about="">
    <dc:format>image/svg+xml</dc:format>
    <dc:type rdf:resource="http://purl.org/dc/dcmitype/StillImage"/>
    <dc:title/>
   </cc:Work>
  </rdf:RDF>
 </metadata>
 <g id="layer1">
  <path id="path3-8-5-9" d="m0.50426 8.2357c0.013176 0.1387 0.035994 0.32046 0.10038 0.46867 0 0 0.31712 0.094697 1.1047 0.16738 0.96328 0.08902 1.2196 0.45451 1.4163 0.73232 0.19674 0.2778 0.24356 0.36874 0.29091 0.47282 0.091377 0.54434 0.1495 1.0301-0.46867 1.7742-0.50536 0.60823-0.66952 0.87038-0.66952 0.87038 0.11792 0.30025 0.43519 0.5691 0.43519 0.5691s0.26821 0.3168 0.5691 0.43519c0 0 0.26216-0.16418 0.87038-0.66952 0.7441-0.6182 1.2301-0.55986 1.7742-0.46867 0.1038 0.04713 0.19507 0.09395 0.47299 0.29068 0.27791 0.19672 0.643 0.4533 0.73215 1.4166 0.072844 0.78748 0.16738 1.0712 0.16738 1.0712 0.29686 0.1289 0.70311 0.13396 0.70311 0.13396s0.40662-0.0054 0.703-0.1339c0 0 0.095019-0.28365 0.16738-1.0712 0.089127-0.96324 0.45468-1.2194 0.73246-1.4163 0.27777-0.1969 0.36874-0.24382 0.47268-0.29096 0.54433-0.09159 1.0302-0.14947 1.7742 0.46867 0.60836 0.50535 0.87038 0.66952 0.87038 0.66952 0.30087-0.11882 0.5691-0.43519 0.5691-0.43519s0.31689-0.2683 0.43519-0.5691c0 0-0.16384-0.26216-0.66952-0.87038-0.61812-0.74415-0.55952-1.23-0.46867-1.7742 0.04724-0.10412 0.09416-0.19495 0.29086-0.47295 0.19667-0.27801 0.4532-0.64304 1.4164-0.73219 0.78749-0.072737 1.0712-0.16738 1.0712-0.16738 0.1286-0.29682 0.1339-0.70305 0.1339-0.70305s-0.0054-0.40674-0.1339-0.703c0 0-0.2835-0.094912-1.0712-0.16738-0.961-0.0893-1.217-0.4551-1.537-0.904h-0.03342c-0.03974-0.10627-0.08677-0.19728-0.1339-0.30129-0.09159-0.5443-0.1495-1.0301 0.46867-1.7742 0.50536-0.60823 0.66952-0.87038 0.66952-0.87038-0.11894-0.30092-0.43519-0.5691-0.43519-0.5691s-0.26827-0.31686-0.5691-0.43519c0 0-0.26214 0.16373-0.87038 0.66952-0.7441 0.6182-1.2301 0.55965-1.7742 0.46867-0.10412-0.04724-0.19501-0.09416-0.30129-0.1339v-0.03342c-0.4504-0.3202-0.8156-0.5767-0.9047-1.5399-0.0728-0.78759-0.1674-1.1048-0.1674-1.1048-0.29683-0.12872-0.70305-0.10048-0.70305-0.10048s-0.40646-0.02839-0.703 0.10038c0 0-0.094805 0.31708-0.16738 1.1047-0.0891 0.9634-0.4546 1.2195-0.9039 1.54-0.1063 0.0397-0.1974 0.1199-0.3013 0.1673-0.5441 0.0914-1.0301 0.1495-1.7742-0.4686-0.6083-0.5054-0.8704-0.6696-0.8704-0.6696-0.30079 0.11874-0.5691 0.43519-0.5691 0.43519s-0.31686 0.26828-0.43519 0.5691c0 0 0.16385 0.26193 0.66952 0.87038 0.61821 0.74413 0.55994 1.1964 0.27055 1.8607-0.2894 0.6643-0.5458 1.0296-1.5091 1.1186-0.78755 0.0729-1.1048 0.1674-1.1048 0.1674-0.12896 0.2968-0.10044 0.7031-0.10044 0.7031s-0.013176 0.095662 0 0.23433zm4.2849-0.2344c0-1.7749 1.4388-3.2137 3.2137-3.2137s3.2137 1.4388 3.2137 3.2137-1.4388 3.2137-3.2137 3.2137-3.2137-1.4388-3.2137-3.2137z" style="enable-background:new;fill:url(#linearGradient3917)"/>
  <path id="path3919" style="opacity:.41;stroke:#000;enable-background:new;fill:none" d="m0.50426 8.2357c0.013176 0.1387 0.035994 0.32046 0.10038 0.46867 0 0 0.31712 0.094697 1.1047 0.16738 0.96328 0.08902 1.2196 0.45451 1.4163 0.73232 0.19674 0.2778 0.24356 0.36874 0.29091 0.47282 0.091377 0.54434 0.1495 1.0301-0.46867 1.7742-0.50536 0.60823-0.66952 0.87038-0.66952 0.87038 0.11792 0.30025 0.43519 0.5691 0.43519 0.5691s0.26821 0.3168 0.5691 0.43519c0 0 0.26216-0.16418 0.87038-0.66952 0.7441-0.6182 1.2301-0.55986 1.7742-0.46867 0.1038 0.04713 0.19507 0.09395 0.47299 0.29068 0.27791 0.19672 0.643 0.4533 0.73215 1.4166 0.072844 0.78748 0.16738 1.0712 0.16738 1.0712 0.29686 0.1289 0.70311 0.13396 0.70311 0.13396s0.40662-0.0054 0.703-0.1339c0 0 0.095019-0.28365 0.16738-1.0712 0.089127-0.96324 0.45468-1.2194 0.73246-1.4163 0.27777-0.1969 0.36874-0.24382 0.47268-0.29096 0.54433-0.09159 1.0302-0.14947 1.7742 0.46867 0.60836 0.50535 0.87038 0.66952 0.87038 0.66952 0.30087-0.11882 0.5691-0.43519 0.5691-0.43519s0.31689-0.2683 0.43519-0.5691c0 0-0.16384-0.26216-0.66952-0.87038-0.61812-0.74415-0.55952-1.23-0.46867-1.7742 0.04724-0.10412 0.09416-0.19495 0.29086-0.47295 0.19667-0.27801 0.4532-0.64304 1.4164-0.73219 0.78749-0.072737 1.0712-0.16738 1.0712-0.16738 0.1286-0.29682 0.1339-0.70305 0.1339-0.70305s-0.0054-0.40674-0.1339-0.703c0 0-0.2835-0.094912-1.0712-0.16738-0.961-0.0893-1.217-0.4551-1.537-0.904h-0.03342c-0.03974-0.10627-0.08677-0.19728-0.1339-0.30129-0.09159-0.5443-0.1495-1.0301 0.46867-1.7742 0.50536-0.60823 0.66952-0.87038 0.66952-0.87038-0.11894-0.30092-0.43519-0.5691-0.43519-0.5691s-0.26827-0.31686-0.5691-0.43519c0 0-0.26214 0.16373-0.87038 0.66952-0.7441 0.6182-1.2301 0.55965-1.7742 0.46867-0.10412-0.04724-0.19501-0.09416-0.30129-0.1339v-0.03342c-0.4504-0.3202-0.8156-0.5767-0.9047-1.5399-0.0728-0.78759-0.1674-1.1048-0.1674-1.1048-0.29683-0.12872-0.70305-0.10048-0.70305-0.10048s-0.40646-0.02839-0.703 0.10038c0 0-0.094805 0.31708-0.16738 1.1047-0.0891 0.9634-0.4546 1.2195-0.9039 1.54-0.1063 0.0397-0.1974 0.1199-0.3013 0.1673-0.5441 0.0914-1.0301 0.1495-1.7742-0.4686-0.6083-0.5054-0.8704-0.6696-0.8704-0.6696-0.30079 0.11874-0.5691 0.43519-0.5691 0.43519s-0.31686 0.26828-0.43519 0.5691c0 0 0.16385 0.26193 0.66952 0.87038 0.61821 0.74413 0.55994 1.1964 0.27055 1.8607-0.2894 0.6643-0.5458 1.0296-1.5091 1.1186-0.78755 0.0729-1.1048 0.1674-1.1048 0.1674-0.12896 0.2968-0.10044 0.7031-0.10044 0.7031s-0.013176 0.095662 0 0.23433zm4.2849-0.2344c0-1.7749 1.4388-3.2137 3.2137-3.2137s3.2137 1.4388 3.2137 3.2137-1.4388 3.2137-3.2137 3.2137-3.2137-1.4388-3.2137-3.2137z"/>
  <path id="path3921" style="opacity:.41;enable-background:new;fill:#fff" d="m7.9688 1s-0.1252 0.024-0.2188 0.0312c-0.0267 0.1145-0.0745 0.1709-0.125 0.7188-0.0499 0.5401-0.1894 0.9432-0.4062 1.25-0.2169 0.3068-0.4638 0.4967-0.6876 0.6562l-0.0624 0.0313-0.0626 0.0313c0.0126-0.0047-0.0842 0.0662-0.2812 0.1562l-0.0625 0.0312h-0.0625c-0.5579 0.0937-1.3179 0.1339-2.1562-0.5624-0.417-0.3465-0.4602-0.3978-0.5626-0.4688-0.0829 0.0709-0.1874 0.1562-0.1874 0.1562l-0.0313 0.0313-0.0313 0.0313s-0.0854 0.1046-0.1562 0.1874c0.0709 0.1023 0.1221 0.1454 0.4688 0.5626 0.0541 0.0651 0.0789 0.1235 0.125 0.1874 0.074 0.0619 0.097 0.0816 0.375 0.3126 0.8108 0.6735 1.5414 0.649 2.0937 0.5624 0.2332-0.1579 0.4837-0.2726 0.75-0.375 0.1793-0.1376 0.3632-0.2935 0.5313-0.5312 0.2168-0.3068 0.3563-0.7099 0.4062-1.25 0.0505-0.5479 0.0983-0.6043 0.125-0.7188 0.0936-0.0072 0.2188-0.0312 0.2188-0.0312h0.0312 0.0312s0.1252 0.024 0.2188 0.0312c0.0267 0.1146 0.0744 0.1709 0.125 0.7188 0.05 0.54 0.1894 0.9431 0.4062 1.25 0.1527 0.2161 0.3309 0.341 0.5 0.4688v0.0312c0.2801 0.1041 0.5373 0.2411 0.7808 0.4062 0.554 0.0862 1.315 0.1112 2.126-0.5624 0.277-0.2312 0.303-0.2553 0.374-0.3126 0.045-0.0623 0.073-0.1241 0.126-0.1874 0.343-0.4136 0.365-0.4589 0.437-0.5626-0.071-0.0829-0.156-0.1874-0.156-0.1874l-0.031-0.0313-0.032-0.0313s-0.113-0.0604-0.187-0.125c-0.111 0.078-0.14 0.1117-0.531 0.4376-0.839 0.6965-1.631 0.6557-2.188 0.5624h-0.0625l-0.0625-0.0312c-0.1179-0.0535-0.2083-0.0977-0.2812-0.125l-0.3126-0.125v-0.1562c-0.1691-0.1278-0.3473-0.2527-0.5-0.4688-0.2168-0.3069-0.3562-0.71-0.4062-1.25-0.0506-0.5479-0.0983-0.6042-0.125-0.7188-0.0936-0.0072-0.2188-0.0312-0.2188-0.0312h-0.0312-0.0312zm-4.125 4.75c-0.0398 0.1581-0.0911 0.3192-0.1563 0.4688-0.1529 0.3509-0.3389 0.6707-0.6563 0.9374-0.3173 0.2668-0.7412 0.4189-1.2812 0.4688-0.5479 0.0507-0.6041 0.0983-0.7188 0.125-0.0072 0.0935-0.0312 0.2188-0.0312 0.2188v0.0624 0.0313s-0.00816 0.0391 0 0.125c0.0023 0.0241-0.00328 0.038 0 0.0625 0.1048 0.0253 0.1789 0.0723 0.75 0.125 0.2358 0.0218 0.4425 0.0733 0.625 0.125 0.2501-0.0798 0.4764-0.1926 0.6562-0.3438 0.3174-0.2667 0.5034-0.5865 0.6563-0.9374 0.1564-0.359 0.257-0.7391 0.2187-1.1563-0.0095-0.1043-0.0349-0.2112-0.0624-0.3125zm8.2502 0.3125c-0.065 0.351-0.046 0.667 0 0.9375v0.0625l0.031 0.0625c0.053 0.118 0.098 0.2085 0.125 0.2812l0.125 0.3126h0.156c0.13 0.1726 0.248 0.3436 0.469 0.5 0.153 0.1084 0.325 0.213 0.531 0.2812 0.201-0.0638 0.449-0.1 0.719-0.125 0.54-0.0499 0.584-0.0993 0.688-0.125 0.015-0.1108 0.062-0.25 0.062-0.25s-0.047-0.1391-0.062-0.25c-0.104-0.0257-0.148-0.0753-0.688-0.125-0.54-0.05-0.943-0.1894-1.25-0.4062-0.221-0.1564-0.339-0.3274-0.469-0.5h-0.156l-0.125-0.3126c-0.027-0.0727-0.072-0.1632-0.125-0.2812l-0.031-0.0625zm-7.7815 2.4375c-0.0224 0.1642-0.0313 0.3299-0.0313 0.5 0 1.278 0.6667 2.424 1.6563 3.094 0.0187 0.003 0.0442-0.003 0.0625 0h0.0625l0.0625 0.031c0.1168 0.053 0.273 0.139 0.5625 0.344 0.4118 0.158 0.8468 0.25 1.3125 0.25s0.9007-0.092 1.3125-0.25c0.2892-0.205 0.4448-0.291 0.5625-0.344l0.0625-0.031h0.0625c0.018-0.003 0.044 0.003 0.062 0 0.99-0.67 1.657-1.816 1.657-3.094 0-0.1701-0.009-0.3358-0.031-0.5-0.248 1.81-1.813 3.219-3.688 3.219s-3.4405-1.409-3.6875-3.219zm-0.4063 2.5c-0.0686 0.357-0.2233 0.748-0.5624 1.156-0.3295 0.397-0.3606 0.453-0.4376 0.563 0.0647 0.074 0.125 0.187 0.125 0.187l0.0313 0.032 0.0313 0.031s0.1046 0.085 0.1874 0.156c0.0342-0.024 0.1505-0.125 0.1876-0.156 0.5444-0.764 0.5241-1.453 0.4374-1.969zm8.1878 0c-0.086 0.515-0.08 1.205 0.468 1.969 0.03 0.023 0.124 0.102 0.157 0.125 0.074-0.065 0.187-0.125 0.187-0.125l0.032-0.031 0.031-0.032s0.06-0.113 0.125-0.187c-0.078-0.111-0.08-0.17-0.406-0.563-0.34-0.408-0.518-0.799-0.594-1.156z"/>
  <path id="path3935" style="opacity:.2;enable-background:new" d="m7.9688 16s-0.1252-0.024-0.2188-0.031c-0.0267-0.115-0.0745-0.171-0.125-0.719-0.0499-0.54-0.1894-0.943-0.4062-1.25-0.2169-0.307-0.4638-0.497-0.6876-0.656l-0.0624-0.032-0.0626-0.031c0.0126 0.005-0.0842-0.066-0.2812-0.156l-0.0625-0.031h-0.0625c-0.5579-0.094-1.3179-0.134-2.1562 0.562-0.417 0.347-0.4602 0.398-0.5626 0.469-0.0829-0.071-0.1874-0.156-0.1874-0.156l-0.0313-0.031-0.0313-0.032s-0.085442-0.10465-0.15625-0.1875c0.070852-0.10222 0.12209-0.14539 0.46875-0.5625 0.054163-0.06519 0.078948-0.12359 0.125-0.1875 0.074-0.0619 0.097-0.08153 0.375-0.3125 0.81085-0.67359 1.5414-0.64903 2.0938-0.5625 0.2332 0.1579 0.48366 0.27268 0.75 0.375 0.1793 0.138 0.3632 0.294 0.5313 0.532 0.2168 0.307 0.3563 0.71 0.4062 1.25 0.0505 0.548 0.0983 0.604 0.125 0.719 0.0936 0.007 0.2188 0.031 0.2188 0.031h0.0312 0.0312s0.12516-0.02397 0.21875-0.03125c0.0267-0.115 0.0744-0.171 0.125-0.719 0.05-0.54 0.1894-0.943 0.4062-1.25 0.15266-0.21611 0.3308-0.341 0.5-0.46875v-0.03125c0.28003-0.10415 0.53728-0.24106 0.78125-0.40625 0.55387-0.08613 1.3141-0.11119 2.125 0.5625 0.27794 0.23113 0.3036 0.2553 0.375 0.3125 0.04484 0.0624 0.07238 0.12415 0.125 0.1875 0.34358 0.41352 0.36548 0.45885 0.4375 0.5625-0.07086 0.08293-0.15625 0.1875-0.15625 0.1875l-0.03125 0.03125-0.03125 0.03125s-0.11318 0.06049-0.1875 0.125c-0.11-0.077-0.139-0.111-0.53-0.437-0.839-0.696-1.631-0.655-2.188-0.562h-0.0625l-0.0625 0.031c-0.1179 0.053-0.2083 0.098-0.2812 0.125l-0.3125 0.125v0.15625c-0.1692 0.128-0.3474 0.253-0.5001 0.469-0.2168 0.307-0.3562 0.71-0.4062 1.25-0.0506 0.548-0.0983 0.604-0.125 0.719-0.0936 0.007-0.2188 0.031-0.2188 0.031h-0.0312-0.0312zm-4.125-4.75c-0.0398-0.158-0.0911-0.319-0.1563-0.469-0.1529-0.351-0.3389-0.67-0.6563-0.9372-0.3173-0.2668-0.7412-0.4189-1.2812-0.4688-0.5479-0.0507-0.6041-0.0983-0.7188-0.125-0.0072-0.0935-0.0312-0.2188-0.0312-0.2188v-0.0624-0.0313s-0.008159-0.039133 0-0.125c0.0023-0.0241-0.00328-0.038 0-0.0625 0.1048-0.0253 0.1789-0.0723 0.75-0.125 0.2358-0.0218 0.4425-0.0733 0.625-0.125 0.25006 0.079791 0.47636 0.19255 0.65625 0.34375 0.31739 0.26676 0.50337 0.58654 0.65625 0.9375 0.15638 0.35898 0.25704 0.73901 0.21875 1.1562-0.00957 0.10431-0.034991 0.21121-0.0625 0.3125zm8.25-0.3125c-0.06498-0.35102-0.04551-0.66704 0-0.9375v-0.0625l0.031-0.0625c0.053-0.118 0.098-0.2085 0.125-0.2812l0.125-0.3125h0.15625c0.13-0.1727 0.248-0.3437 0.469-0.5001 0.153-0.1084 0.325-0.213 0.531-0.2812 0.201 0.0638 0.449 0.1 0.719 0.125 0.54 0.0499 0.584 0.0993 0.688 0.125 0.015 0.1108 0.062 0.25 0.062 0.25s-0.047 0.1391-0.062 0.25c-0.104 0.0257-0.148 0.0753-0.688 0.125-0.54 0.05-0.943 0.1894-1.25 0.4062-0.22122 0.15638-0.33924 0.32738-0.46875 0.5h-0.15625l-0.125 0.3125c-0.02721 0.07277-0.07152 0.16324-0.125 0.28125l-0.03125 0.0625zm-7.7815-2.438c-0.0224-0.1642-0.0313-0.3299-0.0313-0.5 0-1.2782 0.66663-2.4237 1.6562-3.0938 0.018697-0.00292 0.044233 0.00306 0.0625 0h0.0625l0.0626-0.0312c0.1168-0.0531 0.273-0.1388 0.5625-0.3438 0.4118-0.1582 0.8468-0.25 1.3125-0.25 0.46571 0 0.90069 0.091798 1.3125 0.25 0.2892 0.2051 0.4448 0.2904 0.5625 0.3438l0.0625 0.03125h0.0625c0.01829 0.00308 0.04372-0.00294 0.0625 0 0.98962 0.67007 1.6562 1.8156 1.6562 3.0938 0 0.17013-0.0088 0.33576-0.03125 0.5-0.247-1.81-1.812-3.2188-3.687-3.2188s-3.4405 1.4088-3.6875 3.2188zm-0.4063-2.5c-0.0686-0.3569-0.2233-0.7479-0.5624-1.1562-0.3295-0.3966-0.3606-0.4529-0.4376-0.5626 0.064606-0.07447 0.125-0.1875 0.125-0.1875l0.0313-0.0312 0.0313-0.0313s0.10467-0.085452 0.1875-0.15625c0.034113 0.023658 0.1505 0.1253 0.1875 0.15625 0.5444 0.7634 0.5241 1.4529 0.4374 1.9688zm8.1875 0c-0.086-0.5153-0.08-1.2053 0.468-1.9688 0.02925-0.023471 0.12393-0.10226 0.15625-0.125 0.07437 0.06455 0.1875 0.125 0.1875 0.125l0.03125 0.03125 0.03125 0.03125s0.06048 0.11318 0.125 0.1875c-0.077 0.1107-0.079 0.1696-0.405 0.5626-0.34 0.4087-0.518 0.799-0.594 1.1562z"/>
 </g>
</svg>
