<?xml version="1.0" encoding="UTF-8" standalone="no"?>
<!-- Created with Inkscape (http://www.inkscape.org/) -->
<svg id="svg5400" xmlns:rdf="http://www.w3.org/1999/02/22-rdf-syntax-ns#" xmlns="http://www.w3.org/2000/svg" height="16px" width="16px" version="1.1" xmlns:cc="http://creativecommons.org/ns#" xmlns:xlink="http://www.w3.org/1999/xlink" xmlns:dc="http://purl.org/dc/elements/1.1/">
 <defs id="defs5402">
  <linearGradient id="linearGradient3829" y2="40" gradientUnits="userSpaceOnUse" x2="144" gradientTransform="matrix(.055556 0 0 .057143 -2 -2.1429)" y1="280" x1="144">
   <stop id="stop3864-8-6-6" style="stop-color:#f0f0f0" offset="0"/>
   <stop id="stop3866-9-1-7" style="stop-color:#f9f9f9" offset="1"/>
  </linearGradient>
  <linearGradient id="linearGradient3831" y2="14" gradientUnits="userSpaceOnUse" x2="5" y1="1" x1="5">
   <stop id="stop3806" style="stop-color:#fff" offset="0"/>
   <stop id="stop3808" style="stop-color:#fff;stop-opacity:0" offset="1"/>
  </linearGradient>
  <linearGradient id="linearGradient3875" y2="16" gradientUnits="userSpaceOnUse" x2="8" x1="8">
   <stop id="stop3820" offset="0"/>
   <stop id="stop3822" style="stop-opacity:.51485" offset="1"/>
  </linearGradient>
 </defs>
 <metadata id="metadata5405">
  <rdf:RDF>
   <cc:Work rdf:about="">
    <dc:format>image/svg+xml</dc:format>
    <dc:type rdf:resource="http://purl.org/dc/dcmitype/StillImage"/>
    <dc:title/>
   </cc:Work>
  </rdf:RDF>
 </metadata>
 <g id="layer1">
  <g id="g3812" transform="translate(2,1)">
   <path id="path3029" style="opacity:0.41;stroke-linejoin:round;stroke-width:2;color:#bebebe;stroke:#000;fill:none" d="m1 1h10v12h-10z"/>
   <path id="rect3373-6" d="m1 1h10v12h-10z" style="color:#bebebe;fill:url(#linearGradient3829)"/>
   <path id="path3799" style="color:#bebebe;fill:url(#linearGradient3831)" d="m1 1v12h10v-12h-10zm1 1h8v10h-8v-10z"/>
  </g>
 </g>
 <g id="layer2">
  <path id="rect3005" d="m7 12.009v-3.9997h-2l3-4 3 4h-2v3.9997z" style="opacity:.3;color:#000000;fill:url(#linearGradient3875)"/>
  <path id="path3826" style="opacity:.3;block-progression:tb;text-indent:0;color:#000000;text-transform:none;fill:#fff" d="m6.8125 13.01a1.0001 1.0001 0 0 1 -0.8125 -1v-3h-1a1.0001 1.0001 0 0 1 -0.8125 -1.5941l3-4a1.0001 1.0001 0 0 1 1.625 0l3 4a1.0001 1.0001 0 0 1 -0.812 1.5937h-1v3a1.0001 1.0001 0 0 1 -1 1h-2a1.0001 1.0001 0 0 1 -0.09375 0 1.0001 1.0001 0 0 1 -0.09375 0zm0.1875-1h2v-4h2l-3-4-3 4h2v4z"/>
  <path id="path3877" style="opacity:.2;fill-opacity:.51485;color:#000000" d="m8 4l-3 4h0.75l2.25-3 2.25 3h0.75l-3-4z"/>
 </g>
</svg>
