<?xml version="1.0" encoding="UTF-8" standalone="no"?>
<!-- Created with Inkscape (http://www.inkscape.org/) -->
<svg id="svg5400" xmlns:rdf="http://www.w3.org/1999/02/22-rdf-syntax-ns#" xmlns="http://www.w3.org/2000/svg" height="16px" width="16px" version="1.1" xmlns:cc="http://creativecommons.org/ns#" xmlns:xlink="http://www.w3.org/1999/xlink" xmlns:dc="http://purl.org/dc/elements/1.1/">
 <defs id="defs5402">
  <linearGradient id="linearGradient3829" y2="40" gradientUnits="userSpaceOnUse" x2="144" gradientTransform="matrix(.055556 0 0 .057143 -2 -2.1429)" y1="280" x1="144">
   <stop id="stop3864-8-6-6" style="stop-color:#f0f0f0" offset="0"/>
   <stop id="stop3866-9-1-7" style="stop-color:#f9f9f9" offset="1"/>
  </linearGradient>
  <linearGradient id="linearGradient3831" y2="14" gradientUnits="userSpaceOnUse" x2="5" y1="1" x1="5">
   <stop id="stop3806" style="stop-color:#fff" offset="0"/>
   <stop id="stop3808" style="stop-color:#fff;stop-opacity:0" offset="1"/>
  </linearGradient>
  <linearGradient id="linearGradient3824" y2="16" gradientUnits="userSpaceOnUse" x2="8" x1="8">
   <stop id="stop3820" offset="0"/>
   <stop id="stop3822" style="stop-opacity:.51485" offset="1"/>
  </linearGradient>
  <linearGradient id="linearGradient3940" y2="9" gradientUnits="userSpaceOnUse" x2="12" gradientTransform="translate(-2)" y1="16" x1="12">
   <stop id="stop3922" style="stop-color:#f8f8f8" offset="0"/>
   <stop id="stop3924" style="stop-color:#e6e6e6" offset="1"/>
  </linearGradient>
 </defs>
 <metadata id="metadata5405">
  <rdf:RDF>
   <cc:Work rdf:about="">
    <dc:format>image/svg+xml</dc:format>
    <dc:type rdf:resource="http://purl.org/dc/dcmitype/StillImage"/>
    <dc:title/>
   </cc:Work>
  </rdf:RDF>
 </metadata>
 <g id="layer1">
  <g id="g3812" transform="translate(2,1)">
   <path id="path3029" style="opacity:0.41;stroke-linejoin:round;stroke-width:2;color:#bebebe;stroke:#000;fill:none" d="m1 1h10v12h-10z"/>
   <path id="rect3373-6" d="m1 1h10v12h-10z" style="color:#bebebe;fill:url(#linearGradient3829)"/>
   <path id="path3799" style="color:#bebebe;fill:url(#linearGradient3831)" d="m1 1v12h10v-12h-10zm1 1h8v10h-8v-10z"/>
  </g>
  <path id="rect3005" d="m7 4.0001v3.9997h-2l3 4 3-4h-2v-3.9997z" style="opacity:.3;color:#000000;fill:url(#linearGradient3824)"/>
  <path id="path3815" style="opacity:.1;color:#000000" d="m7 4v1h2v-1h-2zm-2 4l0.75 1h1.25v-1h-2zm4 0v1h1.25l0.75-1h-2z"/>
  <path id="path3826" style="opacity:.3;block-progression:tb;text-indent:0;color:#000000;text-transform:none;fill:#fff" d="m6.8125 3a1.0001 1.0001 0 0 0 -0.8125 1v3h-1a1.0001 1.0001 0 0 0 -0.8125 1.5938l3 4.0002a1.0001 1.0001 0 0 0 1.625 0l2.9995-4.0002a1.0001 1.0001 0 0 0 -0.812 -1.5938h-1v-3a1.0001 1.0001 0 0 0 -1 -1h-2a1.0001 1.0001 0 0 0 -0.0938 0 1.0001 1.0001 0 0 0 -0.0937 0zm0.1875 1h2v4h2l-3 4-3-4h2v-4z"/>
 </g>
 <g id="layer2">
  <path id="rect3140" style="fill:url(#linearGradient3940);fill-rule:evenodd" d="m9 9.5c-0.8224 0-1.5 0.678-1.5 1.5v3c0 0.82235 0.67765 1.5 1.5 1.5h5c0.82235 0 1.5-0.67765 1.5-1.5v-3c0-0.822-0.678-1.5-1.5-1.5z"/>
  <path id="path3925" style="opacity:0.31;block-progression:tb;text-indent:0;color:#000000;text-transform:none" d="m9 9c-1.097 0-2 0.903-2 2v3c0 1.097 0.90297 2 2 2h5c1.097 0 2-0.90297 2-2v-3c0-1.097-0.903-2-2-2zm0 1h5c0.54767 0 1 0.45233 1 1v3c0 0.54767-0.45233 1-1 1h-5c-0.5477 0-1-0.452-1-1v-3c0-0.54767 0.45233-1 1-1z"/>
  <rect id="rect3951" style="opacity:.1" ry="0" height="5" width="4" y="10" x="8"/>
  <path id="rect3956" style="opacity:.2" d="m9 11v0.5h1v2h-1v0.5h3v-0.5h-1v-2h1v-0.5z"/>
 </g>
</svg>
