<?xml version="1.0" encoding="UTF-8" standalone="no"?>
<!-- Created with Inkscape (http://www.inkscape.org/) -->
<svg id="svg5400" xmlns:rdf="http://www.w3.org/1999/02/22-rdf-syntax-ns#" xmlns="http://www.w3.org/2000/svg" height="16px" width="16px" version="1.1" xmlns:cc="http://creativecommons.org/ns#" xmlns:xlink="http://www.w3.org/1999/xlink" xmlns:dc="http://purl.org/dc/elements/1.1/">
 <defs id="defs5402">
  <linearGradient id="linearGradient3827" gradientUnits="userSpaceOnUse" x2="8" y1="16" x1="8">
   <stop id="stop3823" style="stop-color:#555" offset="0"/>
   <stop id="stop3825" style="stop-color:#666" offset="1"/>
  </linearGradient>
 </defs>
 <metadata id="metadata5405">
  <rdf:RDF>
   <cc:Work rdf:about="">
    <dc:format>image/svg+xml</dc:format>
    <dc:type rdf:resource="http://purl.org/dc/dcmitype/StillImage"/>
    <dc:title/>
   </cc:Work>
  </rdf:RDF>
 </metadata>
 <g id="layer1">
  <path id="path3812" style="block-progression:tb;text-indent:0;color:#bebebe;text-transform:none;fill:url(#linearGradient3827)" d="m8.5 1.125 0.75 0.4375 5 3l0.719 0.4375-0.719 0.4375-5 3-0.75 0.4375v-0.875-1.5h-2.5c-1.4171 0-2.5 1.0829-2.5 2.5s1.0944 2.5267 2.5 2.5h5 0.5v0.5 2 0.5h-0.5-5c-3.0248 0-5.5-2.475-5.5-5.5s2.466-5.3997 5.4688-5.5h0.0312 2.5v-1.5-0.875z"/>
  <path id="path4400" style="opacity:.2;block-progression:tb;text-indent:0;color:#bebebe;text-transform:none;fill:#fff" d="m9 2 5 3-0.844 0.5-4.156-2.5v-1zm0 2v1h-3c-2.5792 0.0861-4.7116 1.9947-4.9688 4.5-0.0171-0.1677-0.0312-0.328-0.0312-0.5 0-2.7527 2.2488-4.9081 5-5h3zm-5.9375 5.5c0.2296 1.442 1.4268 2.529 2.9375 2.5h5v1h-5c-1.679 0.032-3-1.321-3-3 0-0.1683 0.0369-0.3398 0.0625-0.5z"/>
  <path id="path3832" style="opacity:0.61;block-progression:tb;text-indent:0;color:#bebebe;stroke:#000;text-transform:none;fill:none" d="m8.5 1.125 0.75 0.4375 5 3l0.719 0.4375-0.719 0.4375-5 3-0.75 0.4375v-0.875-1.5h-2.5c-1.4171 0-2.5 1.0829-2.5 2.5s1.0944 2.5267 2.5 2.5h5 0.5v0.5 2 0.5h-0.5-5c-3.0248 0-5.5-2.475-5.5-5.5s2.466-5.3997 5.4688-5.5h0.0312 2.5v-1.5-0.875z"/>
 </g>
</svg>
