<?xml version="1.0" encoding="UTF-8" standalone="no"?>
<svg id="svg2989" xmlns:rdf="http://www.w3.org/1999/02/22-rdf-syntax-ns#" xmlns="http://www.w3.org/2000/svg" xmlns:osb="http://www.openswatchbook.org/uri/2009/osb" height="16" width="16" version="1.1" xmlns:cc="http://creativecommons.org/ns#" xmlns:xlink="http://www.w3.org/1999/xlink" enable-background="new" xmlns:dc="http://purl.org/dc/elements/1.1/">
 <metadata id="metadata90">
  <rdf:RDF>
   <cc:Work rdf:about="">
    <dc:format>image/svg+xml</dc:format>
    <dc:type rdf:resource="http://purl.org/dc/dcmitype/StillImage"/>
    <dc:title/>
   </cc:Work>
  </rdf:RDF>
 </metadata>
 <defs id="defs7386">
  <linearGradient id="linearGradient4433" gradientUnits="userSpaceOnUse" x2="8" gradientTransform="translate(441 69)" y1="16" x1="8">
   <stop id="stop4398" style="stop-color:#555" offset="0"/>
   <stop id="stop4400" style="stop-color:#666" offset="1"/>
  </linearGradient>
 </defs>
 <g id="layer12" transform="translate(-441 -69)">
  <path id="path11643-3-5" style="color:#000000;stroke-width:2;fill:url(#linearGradient4433)" d="m445.5 71.5v0.5 2 0.5h0.5 6c-0.005-0.0078-0.00026-0.01827-0.0312 0.09375l-0.25 0.90625h-4.8438c-2.0837 0-3.5719 1.5288-4 3.125-0.21446 0.79958-0.18357 1.716 0.3125 2.5312 0.52092 0.85611 1.5327 1.3438 2.5938 1.3438h6c1.052-0.000015 1.4375-1.0625 1.4375-1.0625v-0.03125l1.6562-6c0.52079-1.8797-0.85506-3.9062-2.875-3.9062h-6-0.5zm1.375 7h4l-0.28125 1h-4.8125c0.004-0.03858-0.0136-0.07433 0-0.125 0.11042-0.41165 0.50459-0.875 1.0938-0.875z"/>
  <path id="path4394" style="opacity:0.61;stroke-linejoin:round;color:#000000;stroke:#000;fill:none" d="m445.5 71.5v0.5 2 0.5h0.5 6c-0.005-0.0078-0.00026-0.01827-0.0312 0.09375l-0.25 0.90625h-4.8438c-2.0837 0-3.5719 1.5288-4 3.125-0.21446 0.79958-0.18357 1.716 0.3125 2.5312 0.52092 0.85611 1.5327 1.3438 2.5938 1.3438h6c1.052-0.000015 1.4375-1.0625 1.4375-1.0625v-0.03125l1.6562-6c0.52079-1.8797-0.85506-3.9062-2.875-3.9062h-6-0.5zm1.375 7h4l-0.28125 1h-4.8125c0.004-0.03858-0.0136-0.07433 0-0.125 0.11042-0.41165 0.50459-0.875 1.0938-0.875z"/>
  <path id="path4455" style="color:#000000;opacity:.2;stroke-width:2;fill:#fff" d="m5 3v1h6c1.264 0 2.217 0.9498 2.438 2.0938 0.299-1.5178-0.819-3.0938-2.438-3.0938h-6zm6.312 3.125l-0.124 0.5a0.50005 0.50005 0 0 1 -0.469 0.375h-4.844c-1.8392 0-3.1576 1.3567-3.5312 2.75-0.1096 0.408-0.1428 0.852-0.0626 1.281 0.0161-0.095 0.0377-0.188 0.0626-0.281 0.3736-1.3933 1.692-2.75 3.5312-2.75h4.844a0.50005 0.50005 0 0 0 0.469 -0.375l0.218-0.8125a0.50005 0.50005 0 0 0 0 -0.0313c0 0.0002 0.032-0.0627 0.032-0.0624-0.001 0.0005 0.022-0.01 0.031-0.0313a0.50005 0.50005 0 0 0 -0.031 -0.4063c0.002 0.0048 0.002-0.027 0-0.0312a0.50005 0.50005 0 0 0 -0.032 -0.0312c0-0.0002-0.062-0.0625-0.062-0.0626 0 0-0.02-0.0218-0.032-0.0312zm-1.124 4l-0.126 0.5a0.50005 0.50005 0 0 1 -0.4682 0.375h-4.8126a0.50005 0.50005 0 0 1 -0.3124 -0.125c-0.0691 0.126-0.1215 0.245-0.1563 0.375-0.0568 0.212-0.0461 0.33-0.0313 0.188a0.50005 0.50005 0 0 0 0.5 0.562h4.8126a0.50005 0.50005 0 0 0 0.4682 -0.375l0.282-1a0.50005 0.50005 0 0 0 -0.156 -0.5z" transform="translate(441 69)"/>
 </g>
</svg>
