<?xml version="1.0" encoding="UTF-8" standalone="no"?>
<svg id="svg2" xmlns:rdf="http://www.w3.org/1999/02/22-rdf-syntax-ns#" xmlns="http://www.w3.org/2000/svg" xmlns:osb="http://www.openswatchbook.org/uri/2009/osb" height="16" width="16" version="1.1" xmlns:cc="http://creativecommons.org/ns#" xmlns:xlink="http://www.w3.org/1999/xlink" enable-background="new" xmlns:dc="http://purl.org/dc/elements/1.1/">
 <metadata id="metadata90">
  <rdf:RDF>
   <cc:Work rdf:about="">
    <dc:format>image/svg+xml</dc:format>
    <dc:type rdf:resource="http://purl.org/dc/dcmitype/StillImage"/>
    <dc:title/>
   </cc:Work>
  </rdf:RDF>
 </metadata>
 <defs id="defs7386">
  <linearGradient id="linearGradient3832" gradientUnits="userSpaceOnUse" x2="9" gradientTransform="translate(381 69)" y1="16" x1="9">
   <stop id="stop3798" style="stop-color:#555" offset="0"/>
   <stop id="stop3800" style="stop-color:#666" offset="1"/>
  </linearGradient>
 </defs>
 <g id="layer12" transform="translate(-381 -69)">
  <path id="path11643-3-1" style="fill:url(#linearGradient3832)" d="m384.5 71.5v0.5 2 0.5h0.5 1 4c-0.025 0 0.17547 0.07803 0.3125 0.21875s0.1875 0.33532 0.1875 0.28125v0.5h-2.5-2c-1.0585 0-2.009 0.42473-2.625 1.125-0.59855 0.68046-0.88241 1.5395-0.875 2.375 0.007 0.83941 0.31143 1.7033 0.90625 2.375 0.60922 0.68796 1.5423 1.125 2.5938 1.125h8s0.34949-0.0029 0.71875-0.1875c0.36926-0.18463 0.78125-0.64583 0.78125-1.3125v-6c0-1.9035-1.5489-3.5-3.5-3.5h-2-4-1-0.5zm3.5 7h2.5v1h-2.5c-0.30589 0-0.24379-0.01212-0.34375-0.125-0.0722-0.08147-0.15509-0.24421-0.15625-0.375-0.001-0.14978 0.0807-0.32466 0.125-0.375 0.0851-0.09669 0.0442-0.125 0.375-0.125z"/>
  <path id="path3834" d="m384.5 71.5v0.5 2 0.5h0.5 1 4c-0.025 0 0.17547 0.07803 0.3125 0.21875s0.1875 0.33532 0.1875 0.28125v0.5h-2.5-2c-1.0585 0-2.009 0.42473-2.625 1.125-0.59855 0.68046-0.88241 1.5395-0.875 2.375 0.007 0.83941 0.31143 1.7033 0.90625 2.375 0.60922 0.68796 1.5423 1.125 2.5938 1.125h8s0.34949-0.0029 0.71875-0.1875c0.36926-0.18463 0.78125-0.64583 0.78125-1.3125v-6c0-1.9035-1.5489-3.5-3.5-3.5h-2-4-1-0.5zm3.5 7h2.5v1h-2.5c-0.30589 0-0.24379-0.01212-0.34375-0.125-0.0722-0.08147-0.15509-0.24421-0.15625-0.375-0.001-0.14978 0.0807-0.32466 0.125-0.375 0.0851-0.09669 0.0442-0.125 0.375-0.125z" style="opacity:.61;stroke:#000;fill:none"/>
  <path id="path3850" style="opacity:.2;fill:#fff" d="m4 3v1h1 4 2c1.678 0 3 1.3677 3 3v-1c0-1.6323-1.322-3-3-3h-2-4-1zm1 4c-0.9248 0-1.7363 0.3847-2.25 0.9688-0.5125 0.5826-0.756 1.312-0.75 2.0312 0.0012 0.138 0.0423 0.268 0.0625 0.406 0.0976-0.512 0.319-1.0184 0.6875-1.4372 0.5137-0.5841 1.3252-0.9688 2.25-0.9688h2 2.5 0.5v-0.5-0.4688c0.002-0.0201 0-0.0198 0-0.0312h-0.5-2.5-2zm1.125 3.469c-0.0186 0.037-0.0467 0.083-0.0625 0.125-0.0413 0.11-0.0635 0.239-0.0625 0.406 0.003 0.338 0.1158 0.532 0.2812 0.719 0.005 0.005 0.0041-0.005 0.0313 0.031 0.0274 0.036 0.1095 0.134 0.2187 0.188 0.2186 0.106 0.3092 0.062 0.4688 0.062h2.5 0.5v-0.5-0.5h-0.5-2.5c-0.1596 0-0.2502 0.044-0.4688-0.062-0.1092-0.054-0.1913-0.152-0.2187-0.188-0.0272-0.036-0.0263-0.026-0.0313-0.031-0.0668-0.076-0.1103-0.163-0.1562-0.25z" transform="translate(381 69)"/>
 </g>
</svg>
