<?xml version="1.0" encoding="UTF-8" standalone="no"?>
<svg id="svg3001" xmlns:rdf="http://www.w3.org/1999/02/22-rdf-syntax-ns#" xmlns="http://www.w3.org/2000/svg" xmlns:osb="http://www.openswatchbook.org/uri/2009/osb" height="16" width="16" version="1.1" xmlns:cc="http://creativecommons.org/ns#" xmlns:xlink="http://www.w3.org/1999/xlink" enable-background="new" xmlns:dc="http://purl.org/dc/elements/1.1/">
 <metadata id="metadata90">
  <rdf:RDF>
   <cc:Work rdf:about="">
    <dc:format>image/svg+xml</dc:format>
    <dc:type rdf:resource="http://purl.org/dc/dcmitype/StillImage"/>
    <dc:title/>
   </cc:Work>
  </rdf:RDF>
 </metadata>
 <defs id="defs7386">
  <linearGradient id="linearGradient5175" gradientUnits="userSpaceOnUse" x2="8" y1="16" x1="8">
   <stop id="stop5155" style="stop-color:#555" offset="0"/>
   <stop id="stop5157" style="stop-color:#666" offset="1"/>
  </linearGradient>
 </defs>
 <g id="layer12" transform="translate(-401 -69)">
  <path id="path11643-3-2" style="color:#000000;fill:url(#linearGradient5175)" d="m3.5 0.5v0.5 2 0.5h0.5 6c-0.025 0 0.175 0.078 0.312 0.2188 0.138 0.1407 0.188 0.3353 0.188 0.2812v0.5h-4.5c-1.0585 0-2.009 0.4247-2.625 1.125-0.5986 0.6805-0.8824 1.5395-0.875 2.375 0.007 0.8394 0.3114 1.7033 0.9062 2.375 0.6093 0.688 1.5423 1.125 2.5938 1.125h5 1 1 0.5v-0.5-0.75-0.094c0.001-0.07 0.006-0.115 0-0.156v-0.125-0.875-5c0-1.9035-1.549-3.5-3.5-3.5h-6-0.5zm2.5 7h4.5v1h-4.5c-0.3059 0-0.2438-0.0121-0.3438-0.125-0.0722-0.0815-0.155-0.2442-0.1562-0.375-0.0007-0.0921 0.0126-0.1981 0.0312-0.25s0.0554-0.0813 0.0938-0.125c0.0851-0.0967 0.0442-0.125 0.375-0.125zm-4.5 5v0.5 2 0.5h0.5 12 0.5v-0.5-2-0.5h-0.5-12-0.5z" transform="translate(401 69)"/>
  <path id="path5178" d="m3.5 0.5v0.5 2 0.5h0.5 6c-0.025 0 0.175 0.078 0.312 0.2188 0.138 0.1407 0.188 0.3353 0.188 0.2812v0.5h-4.5c-1.0585 0-2.009 0.4247-2.625 1.125-0.5986 0.6805-0.8824 1.5395-0.875 2.375 0.007 0.8394 0.3114 1.7033 0.9062 2.375 0.6093 0.688 1.5423 1.125 2.5938 1.125h5 1 1 0.5v-0.5-0.75-0.094c0.001-0.07 0.006-0.115 0-0.156v-0.125-0.875-5c0-1.9035-1.549-3.5-3.5-3.5h-6-0.5zm2.5 7h4.5v1h-4.5c-0.3059 0-0.2438-0.0121-0.3438-0.125-0.0722-0.0815-0.155-0.2442-0.1562-0.375-0.0007-0.0921 0.0126-0.1981 0.0312-0.25s0.0554-0.0813 0.0938-0.125c0.0851-0.0967 0.0442-0.125 0.375-0.125zm-4.5 5v0.5 2 0.5h0.5 12 0.5v-0.5-2-0.5h-0.5-12-0.5z" style="opacity:.61;color:#000000;stroke:#000;fill:none" transform="translate(401 69)"/>
  <path id="path5180" style="opacity:.2;color:#000000;fill:#fff" d="m4 1v1h6c1.678 0 3 1.3677 3 3v-1c0-1.6323-1.322-3-3-3h-6zm2 4c-0.9248 0-1.7363 0.3847-2.25 0.9688-0.5125 0.5826-0.756 1.312-0.75 2.0312 0.0012 0.1385 0.0423 0.268 0.0625 0.4062 0.0976-0.5122 0.319-1.0186 0.6875-1.4374 0.5137-0.5841 1.3252-0.9688 2.25-0.9688h4.5 0.5v-0.5-0.4688c0.002-0.0201 0-0.0198 0-0.0312h-0.5-4.5zm-0.875 3.4688c-0.0224 0.0404-0.0434 0.0717-0.0625 0.125-0.0655 0.184-0.0635 0.2632-0.0625 0.4062 0.003 0.3383 0.1158 0.5321 0.2812 0.7188 0.005 0.0056 0.0041-0.0046 0.0313 0.0312 0.0274 0.0358 0.1095 0.1343 0.2187 0.1875 0.2186 0.1065 0.3092 0.0625 0.4688 0.0625h4.5 0.5v-0.5-0.5h-0.5-4.5c-0.1596 0-0.2502 0.0439-0.4688-0.0625-0.1092-0.0532-0.1913-0.1517-0.2187-0.1875-0.0272-0.0358-0.0263-0.0256-0.0313-0.0312-0.0668-0.0755-0.1103-0.1631-0.1562-0.25zm-3.125 4.5312v1h12v-1h-12z" transform="translate(401 69)"/>
 </g>
</svg>
