<?xml version="1.0" encoding="UTF-8" standalone="no"?>
<!-- Created with Inkscape (http://www.inkscape.org/) -->
<svg id="svg5400" xmlns:rdf="http://www.w3.org/1999/02/22-rdf-syntax-ns#" xmlns="http://www.w3.org/2000/svg" height="16px" width="16px" version="1.1" xmlns:cc="http://creativecommons.org/ns#" xmlns:xlink="http://www.w3.org/1999/xlink" xmlns:dc="http://purl.org/dc/elements/1.1/">
 <defs id="defs5402">
  <linearGradient id="linearGradient4241" gradientUnits="userSpaceOnUse" x2="8" y1="16" x1="8">
   <stop id="stop3823" style="stop-color:#555" offset="0"/>
   <stop id="stop3825" style="stop-color:#666" offset="1"/>
  </linearGradient>
 </defs>
 <metadata id="metadata5405">
  <rdf:RDF>
   <cc:Work rdf:about="">
    <dc:format>image/svg+xml</dc:format>
    <dc:type rdf:resource="http://purl.org/dc/dcmitype/StillImage"/>
    <dc:title/>
   </cc:Work>
  </rdf:RDF>
 </metadata>
 <g id="layer1">
  <path id="path4229" style="block-progression:tb;text-indent:0;color:#000000;text-transform:none;fill:url(#linearGradient4241)" d="m1.2656 6.2188 0.375 0.34375 6 6 0.0625 0.0625c-0.6705 0.14885-1.2188 0.66261-1.2188 1.375 0 0.8225 0.6775 1.5 1.5 1.5s1.5-0.6775 1.5-1.5c0-0.71239-0.54825-1.2262-1.2188-1.375l0.0625-0.0625 6.0312-6 0.375-0.34375-0.375-0.34375-1.375-1.4062-0.34375-0.375-0.34375 0.375-2.7812 2.8125-0.0311-6.2823v-0.5h-0.5-2-0.5v0.5l0.03125 6.2812-2.8125-2.8125-0.34375-0.375-0.34375 0.375-1.375 1.4062z"/>
  <path id="path4243" d="m1.2656 6.2188 0.375 0.34375 6 6 0.0625 0.0625c-0.6705 0.14885-1.2188 0.66261-1.2188 1.375 0 0.8225 0.6775 1.5 1.5 1.5s1.5-0.6775 1.5-1.5c0-0.71239-0.54825-1.2262-1.2188-1.375l0.0625-0.0625 6.0312-6 0.375-0.34375-0.375-0.34375-1.375-1.4062-0.34375-0.375-0.34375 0.375-2.7812 2.8125-0.0311-6.2823v-0.5h-0.5-2-0.5v0.5l0.03125 6.2812-2.8125-2.8125-0.34375-0.375-0.34375 0.375-1.375 1.4062z" style="stroke-linejoin:round;opacity:0.61;block-progression:tb;text-indent:0;color:#000000;stroke:#000;text-transform:none;fill:none"/>
  <path id="path4319" style="opacity:.2;block-progression:tb;text-indent:0;color:#000000;text-transform:none;fill:#fff" d="m6.9688 1v1h0.0312 2v-1h-2-0.0312zm-3.5938 3.8438l-1.375 1.375 0.5 0.5 0.875-0.875 2.7812 2.7812a0.50005 0.50005 0 0 0 0.8438 -0.3438v-0.9062a0.50005 0.50005 0 0 1 -0.8438 0.25l-2.7812-2.7812zm9.25 0l-2.75 2.7812a0.50005 0.50005 0 0 1 -0.8438 -0.25v0.9062a0.50005 0.50005 0 0 0 0.8438 0.3438l2.75-2.7812 0.875 0.875 0.5-0.5-1.375-1.375zm-4.75 8.2502a0.50005 0.50005 0 0 1 -0.0625 0.031c-0.4892 0.109-0.8125 0.419-0.8125 0.875 0 0.186 0.0661 0.35 0.1562 0.5 0.1418-0.184 0.376-0.313 0.6563-0.375a0.50005 0.50005 0 0 0 0.1563 -0.094 0.50005 0.50005 0 0 0 0.0312 0 0.50005 0.50005 0 0 0 0.1562 0.094c0.2887 0.064 0.5066 0.213 0.6563 0.406 0.1038-0.157 0.1875-0.33 0.1875-0.531 0-0.456-0.3546-0.766-0.8438-0.875a0.50005 0.50005 0 0 1 -0.0312 -0.031l-0.125 0.125h-0.0312l-0.0938-0.125z"/>
 </g>
</svg>
