<?xml version="1.0" encoding="UTF-8" standalone="no"?>
<!-- Created with Inkscape (http://www.inkscape.org/) -->
<svg id="svg5400" xmlns:rdf="http://www.w3.org/1999/02/22-rdf-syntax-ns#" xmlns="http://www.w3.org/2000/svg" height="16px" width="16px" version="1.1" xmlns:cc="http://creativecommons.org/ns#" xmlns:xlink="http://www.w3.org/1999/xlink" xmlns:dc="http://purl.org/dc/elements/1.1/">
 <defs id="defs5402">
  <linearGradient id="linearGradient3955" gradientUnits="userSpaceOnUse" x2="8" gradientTransform="matrix(-1 0 0 1 16 1.9995e-7)" y1="16" x1="8">
   <stop id="stop3823" style="stop-color:#555" offset="0"/>
   <stop id="stop3825" style="stop-color:#666" offset="1"/>
  </linearGradient>
 </defs>
 <metadata id="metadata5405">
  <rdf:RDF>
   <cc:Work rdf:about="">
    <dc:format>image/svg+xml</dc:format>
    <dc:type rdf:resource="http://purl.org/dc/dcmitype/StillImage"/>
    <dc:title/>
   </cc:Work>
  </rdf:RDF>
 </metadata>
 <g id="layer1">
  <path id="path3887" style="block-progression:tb;text-indent:0;color:#000000;enable-background:new;text-transform:none;fill:url(#linearGradient3955)" d="m1.2763 8.2386 0.375 0.34375 6 6 0.34375 0.34375 0.34375-0.34375 6.0625-6 0.34375-0.34375-0.34375-0.375-1.4062-1.375-0.34375-0.34375-0.34375 0.34375-2.7812 2.75-0.03125-7.2187v-0.5h-0.5-2-0.5v0.5l0.03125 7.25-2.7812-2.7812-0.375-0.34375-0.34375 0.34375-1.375 1.375z"/>
  <path id="path3904" style="opacity:0.61;enable-background:new;block-progression:tb;text-indent:0;color:#000000;stroke:#000;text-transform:none;fill:none" d="m1.2763 8.2386 0.375 0.34375 6 6 0.34375 0.34375 0.34375-0.34375 6.0625-6 0.34375-0.34375-0.34375-0.375-1.4062-1.375-0.34375-0.34375-0.34375 0.34375-2.7812 2.75-0.03125-7.2187v-0.5h-0.5-2-0.5v0.5l0.03125 7.25-2.7812-2.7812-0.375-0.34375-0.34375 0.34375-1.375 1.375z"/>
  <path id="path3992" style="opacity:.2;block-progression:tb;text-indent:0;color:#000000;enable-background:new;text-transform:none;fill:#fff" d="m7 2.0312v1h2v-1h-2zm-3.625 4.8126l-1.375 1.375 0.5 0.5 0.875-0.875h0.0312l2.7813 2.7812 0.8437 0.844v-1l-0.8437-0.844-2.7813-2.7812h-0.0312zm9.281 0l-2.781 2.75-0.8438 0.8442v1l0.8438-0.844 2.781-2.7502 0.906 0.875 0.5-0.5-0.031-0.0313-1.375-1.3437z"/>
 </g>
</svg>
