<?xml version="1.0" encoding="UTF-8" standalone="no"?>
<!-- Created with Inkscape (http://www.inkscape.org/) -->
<svg id="svg5400" xmlns:rdf="http://www.w3.org/1999/02/22-rdf-syntax-ns#" xmlns="http://www.w3.org/2000/svg" height="16px" width="16px" version="1.1" xmlns:cc="http://creativecommons.org/ns#" xmlns:xlink="http://www.w3.org/1999/xlink" xmlns:dc="http://purl.org/dc/elements/1.1/">
 <defs id="defs5402">
  <linearGradient id="linearGradient6948" y2="10" gradientUnits="userSpaceOnUse" x2="8" y1="15" x1="8">
   <stop id="stop5606-8" style="stop-color:#6f6c7e" offset="0"/>
   <stop id="stop5608-5" style="stop-color:#aaa" offset="1"/>
  </linearGradient>
  <linearGradient id="linearGradient6950" y2="15" gradientUnits="userSpaceOnUse" x2="9" y1="10" x1="9">
   <stop id="stop5614-2" style="stop-color:#212121" offset="0"/>
   <stop id="stop5616-0" style="stop-color:#58575e" offset="1"/>
  </linearGradient>
  <linearGradient id="linearGradient6954" y2="230.17" gradientUnits="userSpaceOnUse" x2="633.3" gradientTransform="translate(-625 -216)" y1="218.84" x1="633.3">
   <stop id="stop3979" style="stop-color:#fff" offset="0"/>
   <stop id="stop3981" style="stop-color:#fff;stop-opacity:.23529" offset=".029293"/>
   <stop id="stop3983" style="stop-color:#fff;stop-opacity:.15686" offset=".97230"/>
   <stop id="stop3985" style="stop-color:#fff;stop-opacity:.39216" offset="1"/>
  </linearGradient>
  <linearGradient id="linearGradient6957" y2="3.1024" gradientUnits="userSpaceOnUse" x2="8.6743" gradientTransform="translate(0,-10e-6)" y1="15.028" x1="8.6743">
   <stop id="stop5520-3" style="stop-color:#eae5ff" offset="0"/>
   <stop id="stop5522-8" style="stop-color:#d4d5da" offset="1"/>
  </linearGradient>
 </defs>
 <metadata id="metadata5405">
  <rdf:RDF>
   <cc:Work rdf:about="">
    <dc:format>image/svg+xml</dc:format>
    <dc:type rdf:resource="http://purl.org/dc/dcmitype/StillImage"/>
    <dc:title/>
   </cc:Work>
  </rdf:RDF>
 </metadata>
 <g id="layer1">
  <path id="path7059" style="color:#000000;fill:url(#linearGradient6957)" d="m11.5 2.5v2.5l-3.5-3.4688-5.5 5.4688v7.4997h11v-7.4997l-0.5-0.5h0.5v-4z"/>
  <path id="path2998-4-3-3" d="m11.5 2.5v2.5l-3.5-3.4688-5.5 5.4688v7.4997h11v-7.4997l-0.5-0.5h0.5v-4z" style="opacity:0.61;color:#000000;stroke:#3f3f3f;fill:none"/>
  <path id="path2998-4-3-3-1" d="m8 1.5312-4.5 5.4688v6.4997h9v-6.9997z" style="color:#000000;stroke:url(#linearGradient6954);fill:none"/>
  <path id="path2998-4-0" style="color:#000000;fill:#49485a" d="m8 1.1247-6.5 6.5v0.875h0.75l5.4062-5.4687 0.3438-0.375 0.3438 0.375 5.4062 5.4688h0.75v-0.875l-6.5-6.5z"/>
  <path id="rect5583" d="m6.5 10.5v4.0003h3v-4.0003c-1-0.00028-2-0.00028-3 0z" style="stroke-linejoin:round;color:#000000;stroke:url(#linearGradient6950);fill:url(#linearGradient6948)"/>
  <path id="path5620" style="color:#000000;fill:#0a0a0a" d="m10 12.5a0.5 0.5 0 0 1 -1 0 0.5 0.5 0 1 1 1 0z"/>
  <path id="path7057" d="m8 1.1247-6.5 6.5v0.875h0.75l5.4062-5.4687 0.3438-0.375 0.3438 0.375 5.4062 5.4688h0.75v-0.875l-6.5-6.5z" style="opacity:.7;color:#000000;stroke:#49485a;fill:none"/>
  <rect id="rect6115" style="opacity:.5;color:#000000;fill:#fff" height="1" width="1" y="3" x="12"/>
  <rect id="rect6961" style="opacity:.1;enable-background:new;fill:#fff" height="1" width="2" y="11" x="7"/>
 </g>
</svg>
