<?xml version="1.0" encoding="UTF-8" standalone="no"?>
<!-- Created with Inkscape (http://www.inkscape.org/) -->
<svg id="svg5400" xmlns:rdf="http://www.w3.org/1999/02/22-rdf-syntax-ns#" xmlns="http://www.w3.org/2000/svg" height="16px" width="16px" version="1.1" xmlns:cc="http://creativecommons.org/ns#" xmlns:xlink="http://www.w3.org/1999/xlink" xmlns:dc="http://purl.org/dc/elements/1.1/">
 <defs id="defs5402">
  <linearGradient id="linearGradient3058" gradientUnits="userSpaceOnUse" x2="8" y1="16" x1="8">
   <stop id="stop3823" style="stop-color:#555" offset="0"/>
   <stop id="stop3825" style="stop-color:#666" offset="1"/>
  </linearGradient>
 </defs>
 <metadata id="metadata5405">
  <rdf:RDF>
   <cc:Work rdf:about="">
    <dc:format>image/svg+xml</dc:format>
    <dc:type rdf:resource="http://purl.org/dc/dcmitype/StillImage"/>
    <dc:title/>
   </cc:Work>
  </rdf:RDF>
 </metadata>
 <g id="layer1">
  <path id="path3812" style="block-progression:tb;text-indent:0;color:#bebebe;text-transform:none;fill:url(#linearGradient3058)" d="m1.1406 8.5781 0.4375 0.75 3 5 0.4375 0.71875 0.4375-0.71875 3-5 0.4375-0.75h-0.875-1.5v-2.5c0-1.4171 1.0829-2.5 2.5-2.5s2.5267 1.0944 2.5 2.5v5 0.5h0.5 2 0.5v-0.5-5c0-3.0248-2.4752-5.5-5.5-5.5-3.025 0-5.3997 2.466-5.5 5.4688v0.03125 2.5h-1.5-0.875z"/>
  <path id="path3832" style="opacity:0.61;block-progression:tb;text-indent:0;color:#bebebe;stroke:#000;text-transform:none;fill:none" d="m1.1406 8.5781 0.4375 0.75 3 5 0.4375 0.71875 0.4375-0.71875 3-5 0.4375-0.75h-0.875-1.5v-2.5c0-1.4171 1.0829-2.5 2.5-2.5s2.5267 1.0944 2.5 2.5v5 0.5h0.5 2 0.5v-0.5-5c0-3.0248-2.4752-5.5-5.5-5.5-3.025 0-5.3997 2.466-5.5 5.4688v0.03125 2.5h-1.5-0.875z"/>
  <path id="path3060" style="opacity:.2;block-progression:tb;text-indent:0;color:#bebebe;text-transform:none;fill:#fff" d="m9 1.0625c-2.7533 0-4.9082 2.2512-5 5v1c0.0918-2.7488 2.2467-5 5-5 2.752 0 5 2.2479 5 5v-1c0-2.7521-2.248-5-5-5zm-7 8l0.5938 0.9995h0.9062 0.5v-0.4995-0.5h-0.5-1.5zm4 0v0.5 0.4995h0.5 0.9375l0.5937-0.9995h-0.0312-1.5-0.5z"/>
 </g>
</svg>
