<?xml version="1.0" encoding="UTF-8" standalone="no"?>
<!-- Created with Inkscape (http://www.inkscape.org/) -->
<svg id="svg5400" xmlns:rdf="http://www.w3.org/1999/02/22-rdf-syntax-ns#" xmlns="http://www.w3.org/2000/svg" height="16px" width="16px" version="1.1" xmlns:cc="http://creativecommons.org/ns#" xmlns:xlink="http://www.w3.org/1999/xlink" xmlns:dc="http://purl.org/dc/elements/1.1/">
 <defs id="defs5402">
  <linearGradient id="linearGradient4241" gradientUnits="userSpaceOnUse" x2="8" y1="16" x1="8">
   <stop id="stop3823" style="stop-color:#555" offset="0"/>
   <stop id="stop3825" style="stop-color:#666" offset="1"/>
  </linearGradient>
 </defs>
 <metadata id="metadata5405">
  <rdf:RDF>
   <cc:Work rdf:about="">
    <dc:format>image/svg+xml</dc:format>
    <dc:type rdf:resource="http://purl.org/dc/dcmitype/StillImage"/>
    <dc:title/>
   </cc:Work>
  </rdf:RDF>
 </metadata>
 <g id="layer1">
  <path id="path4229" style="block-progression:tb;text-indent:0;color:#000000;text-transform:none;fill:url(#linearGradient4241)" d="m6.2188 1.2812 0.34375 0.375 6 6 0.0625 0.0625c0.148-0.6704 0.662-1.2187 1.374-1.2187 0.8225 0 1.5 0.6775 1.5 1.5s-0.6775 1.5-1.5 1.5c-0.71239 0-1.2262-0.54825-1.375-1.2188l-0.0625 0.0625-6 6.0312-0.3437 0.375-0.3438-0.375-1.4062-1.375-0.375-0.344 0.375-0.344 2.8124-2.7808-6.2812-0.0312h-0.5v-0.5-2-0.5h0.5l6.2812 0.0312-2.8124-2.8124-0.375-0.3438 0.375-0.3438 1.4062-1.375z"/>
  <path id="path4243" d="m6.2188 1.2812 0.34375 0.375 6 6 0.0625 0.0625c0.148-0.6704 0.662-1.2187 1.374-1.2187 0.8225 0 1.5 0.6775 1.5 1.5s-0.6775 1.5-1.5 1.5c-0.71239 0-1.2262-0.54825-1.375-1.2188l-0.0625 0.0625-6 6.0312-0.3437 0.375-0.3438-0.375-1.4062-1.375-0.375-0.344 0.375-0.344 2.8124-2.7808-6.2812-0.0312h-0.5v-0.5-2-0.5h0.5l6.2812 0.0312-2.8124-2.8124-0.375-0.3438 0.375-0.3438 1.4062-1.375z" style="stroke-linejoin:round;opacity:0.61;block-progression:tb;text-indent:0;color:#000000;stroke:#000;text-transform:none;fill:none"/>
  <path id="path5849" style="opacity:.2;fill:#fff" d="m6.2188 2 6 6-0.5 0.5-5.5-5.5-0.90625 0.875-0.5-0.5l1.406-1.375zm7.7812 5c0.55228 0 1 0.44772 1 1 0 0.18732-0.06663 0.35013-0.15625 0.5-0.175-0.292-0.479-0.5-0.844-0.5s-0.669 0.208-0.844 0.5c-0.089-0.1499-0.156-0.3127-0.156-0.5 0-0.5523 0.448-1 1-1zm-13 0 6.4688 0.03125 1 1l-7.4688-0.0312v-1zm7.4688 3.0312-3.1562 3.125-0.5-0.5 2.6562-2.625h1z"/>
 </g>
</svg>
