<?xml version="1.0" encoding="UTF-8" standalone="no"?>
<!-- Created with Inkscape (http://www.inkscape.org/) -->
<svg id="svg5400" xmlns:rdf="http://www.w3.org/1999/02/22-rdf-syntax-ns#" xmlns="http://www.w3.org/2000/svg" height="16px" width="16px" version="1.1" xmlns:cc="http://creativecommons.org/ns#" xmlns:xlink="http://www.w3.org/1999/xlink" xmlns:dc="http://purl.org/dc/elements/1.1/">
 <defs id="defs5402">
  <linearGradient id="linearGradient3902" gradientUnits="userSpaceOnUse" x2="8" gradientTransform="matrix(-1,0,0,1,16,0)" y1="16" x1="8">
   <stop id="stop3823" style="stop-color:#555" offset="0"/>
   <stop id="stop3825" style="stop-color:#666" offset="1"/>
  </linearGradient>
 </defs>
 <metadata id="metadata5405">
  <rdf:RDF>
   <cc:Work rdf:about="">
    <dc:format>image/svg+xml</dc:format>
    <dc:type rdf:resource="http://purl.org/dc/dcmitype/StillImage"/>
    <dc:title/>
   </cc:Work>
  </rdf:RDF>
 </metadata>
 <g id="layer1">
  <path id="path3887" style="block-progression:tb;text-indent:0;color:#000000;enable-background:new;text-transform:none;fill:url(#linearGradient3902)" d="m8.2188 1.2812 0.34375 0.375 6 6l0.343 0.3438-0.344 0.3438-6 6.0625-0.3432 0.344-0.375-0.344-1.375-1.406-0.3438-0.344 0.3438-0.344 2.75-2.7808-7.2188-0.0312h-0.5v-0.5-2-0.5h0.5l7.25 0.0312-2.7812-2.7812-0.3438-0.375 0.3438-0.3438 1.375-1.375 0.375-0.375z"/>
  <path id="path3904" style="opacity:0.61;enable-background:new;block-progression:tb;text-indent:0;color:#000000;stroke:#000;text-transform:none;fill:none" d="m8.2188 1.2812 0.34375 0.375 6 6l0.343 0.3438-0.344 0.3438-6 6.0625-0.3432 0.344-0.375-0.344-1.375-1.406-0.3438-0.344 0.3438-0.344 2.75-2.7808-7.2188-0.0312h-0.5v-0.5-2-0.5h0.5l7.25 0.0312-2.7812-2.7812-0.3438-0.375 0.3438-0.3438 1.375-1.375 0.375-0.375z"/>
  <path id="path4765" style="opacity:.2;enable-background:new;fill:#fff" d="m8.2188 2 6 6-0.5 0.5-5.5-5.5-0.90625 0.875-0.5-0.5l1.406-1.375zm-6.2188 5l7.4688 0.03125 1 1-8.469-0.0312v-1zm8.4688 3.0312-3.1562 3.125-0.5-0.5 2.6562-2.625h1z"/>
 </g>
</svg>
