<?xml version="1.0" encoding="UTF-8" standalone="no"?>
<!-- Created with Inkscape (http://www.inkscape.org/) -->
<svg id="svg5400" xmlns:rdf="http://www.w3.org/1999/02/22-rdf-syntax-ns#" xmlns="http://www.w3.org/2000/svg" height="16px" width="16px" version="1.1" xmlns:cc="http://creativecommons.org/ns#" xmlns:xlink="http://www.w3.org/1999/xlink" xmlns:dc="http://purl.org/dc/elements/1.1/">
 <defs id="defs5402">
  <linearGradient id="linearGradient7546" y2="132" gradientUnits="userSpaceOnUse" x2="1888" gradientTransform="matrix(0,1,-1,0,140,-1872)" y1="132" x1="1872">
   <stop id="stop3815" style="stop-color:#3e8292" offset="0"/>
   <stop id="stop3817" style="stop-color:#133f8f" offset="1"/>
  </linearGradient>
  <linearGradient id="linearGradient7045" y2="44.341" gradientUnits="userSpaceOnUse" x2="71.204" gradientTransform="matrix(.35135 0 0 .35135 -17.204 -.9093)" y1="6.2376" x1="71.204">
   <stop id="stop6853" style="stop-color:#fff" offset="0"/>
   <stop id="stop6855" style="stop-color:#fff;stop-opacity:0" offset="1"/>
  </linearGradient>
  <linearGradient id="linearGradient7048" y2="16" gradientUnits="userSpaceOnUse" x2="16" y1="-2.8422e-14" x1="16">
   <stop id="stop3812" style="stop-color:#4cc7e0" offset="0"/>
   <stop id="stop3814" style="stop-color:#2061be" offset="1"/>
  </linearGradient>
  <linearGradient id="linearGradient4203" y2="31.773" gradientUnits="userSpaceOnUse" x2="287.72" gradientTransform="matrix(.18642 0 0 .18642 361.36 133.83)" y1="116.26" x1="287.72">
   <stop id="stop3990" style="stop-color:#eeeeec" offset="0"/>
   <stop id="stop3992" style="stop-color:#fff" offset="1"/>
  </linearGradient>
  <linearGradient id="linearGradient3892" y2="9" gradientUnits="userSpaceOnUse" x2="12" gradientTransform="translate(.5 .5)" y1="15" x1="12">
   <stop id="stop3888" style="stop-color:#5097e1" offset="0"/>
   <stop id="stop3890" style="stop-color:#53d0ff" offset="1"/>
  </linearGradient>
  <linearGradient id="linearGradient3902" y2="8" gradientUnits="userSpaceOnUse" x2="12" gradientTransform="translate(.5 .5)" y1="16" x1="12">
   <stop id="stop3906" style="stop-color:#104b88" offset="0"/>
   <stop id="stop3908" style="stop-color:#0e7398" offset="1"/>
  </linearGradient>
 </defs>
 <metadata id="metadata5405">
  <rdf:RDF>
   <cc:Work rdf:about="">
    <dc:format>image/svg+xml</dc:format>
    <dc:type rdf:resource="http://purl.org/dc/dcmitype/StillImage"/>
    <dc:title/>
   </cc:Work>
  </rdf:RDF>
 </metadata>
 <g id="layer1">
  <path id="path2555-7" d="m8 0.5c-4.1382 0-7.5 3.3618-7.5 7.5s3.3618 7.5 7.5 7.5 7.5-3.3618 7.5-7.5-3.362-7.5-7.5-7.5z" style="color:#000000;fill:url(#linearGradient7048)"/>
  <path id="path8655-6" d="m14.5 7.9998c0 3.5902-2.91 6.5002-6.4999 6.5002s-6.5001-2.91-6.5001-6.5002c0-3.5898 2.9102-6.4998 6.5001-6.4998s6.4999 2.91 6.4999 6.4998z" style="opacity:.5;stroke-linejoin:round;color:#000000;stroke:url(#linearGradient7045);stroke-linecap:round;fill:none"/>
  <path id="path7037" style="opacity:0.91;stroke-linejoin:round;color:#000000;stroke:url(#linearGradient7546);stroke-linecap:round;fill:none" d="m8 15.5c4.1382 0 7.5-3.3618 7.5-7.5s-3.362-7.5-7.5-7.5c-4.1382 0-7.5 3.3618-7.5 7.5s3.3618 7.5 7.5 7.5z"/>
  <g id="g4217" style="opacity:.2;enable-background:new" transform="translate(-416,-139)">
   <path id="path4219" d="m418 148 2.25 0.75v-1.5z"/>
   <path id="path4221" d="m430 148-2.25 0.75v-1.5z"/>
   <path id="path4223" style="enable-background:new" d="m424 142-0.75 2.25h1.5z"/>
   <path id="path4225" d="m424 154-0.75-2.25h1.5z" style="enable-background:new"/>
   <path id="path4227" d="m424 144c-2.2091 0-4 1.7909-4 4s1.7909 4 4 4 4-1.7909 4-4-1.7909-4-4-4zm0 1c1.6568 0 3 1.3432 3 3s-1.3432 3-3 3-3-1.3432-3-3 1.3432-3 3-3z" style="color:#000000;enable-background:accumulate"/>
   <path id="path4229" d="m424.65 148.65-1.3048-1.3048 5.5274-4.2226-4.2226 5.5274z" style="fill-rule:evenodd"/>
   <path id="path4231" style="fill-rule:evenodd" d="m424.65 148.65-1.3048-1.3048-4.2226 5.5274 5.5274-4.2226z"/>
  </g>
  <g id="g4208" style="enable-background:new" transform="translate(-416,-140)">
   <path id="path4048" style="fill:#fff" d="m418 148 2.25 0.75v-1.5z"/>
   <path id="path4050" d="m430 148-2.25 0.75v-1.5z" style="fill:#fff"/>
   <path id="path4052" d="m424 142-0.75 2.25h1.5z" style="enable-background:new;fill:#fff"/>
   <path id="path4054" style="enable-background:new;fill:#fff" d="m424 154-0.75-2.25h1.5z"/>
   <path id="path4056" style="color:#000000;enable-background:accumulate;fill:#fff" d="m424 144c-2.2091 0-4 1.7909-4 4s1.7909 4 4 4 4-1.7909 4-4-1.7909-4-4-4zm0 1c1.6568 0 3 1.3432 3 3s-1.3432 3-3 3-3-1.3432-3-3 1.3432-3 3-3z"/>
   <path id="path4060" style="fill:#ef5a5a;fill-rule:evenodd" d="m424.65 148.65-1.3048-1.3048 5.5274-4.2226-4.2226 5.5274z"/>
   <path id="path4062" style="fill:url(#linearGradient4203);fill-rule:evenodd" d="m424.65 148.65-1.3048-1.3048-4.2226 5.5274 5.5274-4.2226z"/>
  </g>
  <g id="g3937">
   <path id="rect3881" d="m11.5 9.5v2h-2v2h2v2h2v-2h2v-2h-2v-2h-2z" style="fill:url(#linearGradient3892)"/>
   <path id="path3894" style="opacity:0.81;stroke:url(#linearGradient3902);fill:none" d="m11.5 9.5v2h-2v2h2v2h2v-2h2v-2h-2v-2h-2z"/>
   <path id="rect3910" d="m12 10v1h1v-1h-1zm-2 2v1h2v-1h-2zm3 0v1h2v-1h-2z" style="opacity:.1;fill:#d4f3ff"/>
  </g>
 </g>
</svg>
