<?xml version="1.0" encoding="UTF-8" standalone="no"?>
<!-- Created with Inkscape (http://www.inkscape.org/) -->
<svg id="svg5400" xmlns:rdf="http://www.w3.org/1999/02/22-rdf-syntax-ns#" xmlns="http://www.w3.org/2000/svg" height="16px" width="16px" version="1.1" xmlns:cc="http://creativecommons.org/ns#" xmlns:xlink="http://www.w3.org/1999/xlink" xmlns:dc="http://purl.org/dc/elements/1.1/">
 <defs id="defs5402">
  <linearGradient id="linearGradient3852" y2="14" gradientUnits="userSpaceOnUse" x2="5" gradientTransform="translate(2,1)" y1="1" x1="5">
   <stop id="stop3806" style="stop-color:#fff" offset="0"/>
   <stop id="stop3808" style="stop-color:#fff;stop-opacity:0" offset="1"/>
  </linearGradient>
  <linearGradient id="linearGradient3855" y2="40" gradientUnits="userSpaceOnUse" x2="144" gradientTransform="matrix(.055556 0 0 .057143 0 -1.1429)" y1="280" x1="144">
   <stop id="stop3864-8-6-6" style="stop-color:#f0f0f0" offset="0"/>
   <stop id="stop3866-9-1-7" style="stop-color:#f9f9f9" offset="1"/>
  </linearGradient>
 </defs>
 <metadata id="metadata5405">
  <rdf:RDF>
   <cc:Work rdf:about="">
    <dc:format>image/svg+xml</dc:format>
    <dc:type rdf:resource="http://purl.org/dc/dcmitype/StillImage"/>
    <dc:title/>
   </cc:Work>
  </rdf:RDF>
 </metadata>
 <g id="layer1">
  <path id="path3862" d="m14 3v10h-12v-10z" style="opacity:.1;stroke-linejoin:round;stroke-width:4;color:#bebebe;stroke:#1a68d3;fill:none"/>
  <path id="path3860" style="opacity:.4;stroke-linejoin:round;stroke-width:3;color:#bebebe;stroke:#1a68d3;fill:none" d="m14 3v10h-12v-10z"/>
  <path id="path3029" d="m14 3v10h-12v-10z" style="opacity:.61;stroke-linejoin:round;stroke-width:2;color:#bebebe;stroke:#1a68d3;fill:none"/>
  <path id="rect3373-6" style="color:#bebebe;fill:url(#linearGradient3855)" d="m14 3v10h-12v-10z"/>
  <path id="path3799" style="color:#bebebe;fill:url(#linearGradient3852)" d="m14 3h-12v10h12v-10zm-1 1v8h-10v-8h10z"/>
  <path id="path3886" style="opacity:.4;block-progression:tb;text-indent:0;color:#000000;text-transform:none" d="m3.1562 4.5625-0.1562 0.1875-0.1562 0.1875 3.2812 3.125l-3.0312 3h-0.03125l0.1874 0.188 0.1875 0.188 0.25-0.219 3.0313-2.6565 0.9687 0.8125 0.1563 0.1562 0.1562 0.125 0.1562-0.125 0.1563-0.1562 0.9687-0.8125 3.0308 2.6565 0.282 0.219 0.156-0.188 0.1875-0.1875h-0.03125l-3.0312-3 3.2812-3.125-0.156-0.1875-0.156-0.1875-4.844 3.7813-4.8438-3.7813z"/>
  <path id="path3858" style="opacity:.61;color:#bebebe;fill:none" d="m14 3v10h-12v-10z"/>
 </g>
</svg>
