<?xml version="1.0" encoding="UTF-8" standalone="no"?>
<!-- Created with Inkscape (http://www.inkscape.org/) -->
<svg id="svg5400" xmlns:rdf="http://www.w3.org/1999/02/22-rdf-syntax-ns#" xmlns="http://www.w3.org/2000/svg" height="16px" width="16px" version="1.1" xmlns:cc="http://creativecommons.org/ns#" xmlns:xlink="http://www.w3.org/1999/xlink" xmlns:dc="http://purl.org/dc/elements/1.1/">
 <defs id="defs5402">
  <linearGradient id="linearGradient4035" gradientUnits="userSpaceOnUse" x2="8" gradientTransform="translate(-1)" y1="16" x1="8">
   <stop id="stop3823" style="stop-color:#555" offset="0"/>
   <stop id="stop3825" style="stop-color:#666" offset="1"/>
  </linearGradient>
 </defs>
 <metadata id="metadata5405">
  <rdf:RDF>
   <cc:Work rdf:about="">
    <dc:format>image/svg+xml</dc:format>
    <dc:type rdf:resource="http://purl.org/dc/dcmitype/StillImage"/>
    <dc:title/>
   </cc:Work>
  </rdf:RDF>
 </metadata>
 <g id="layer1">
  <path id="path4020" style="block-progression:tb;text-indent:0;color:#bebebe;text-transform:none;fill:url(#linearGradient4035)" d="m8.5 0.53125-0.7812 0.56255-6.4688 4.5-0.59375 0.4062 0.59375 0.4062l6.4688 4.5 0.78125 0.5625v-0.96875-2h0.9375c1.1516 0 2.1792 0.76456 2.4688 1.6562 0.12424 0.38257-0.13701 1.3333-0.53125 2.125-0.39424 0.79171-0.84375 1.4375-0.84375 1.4375l-0.9375 1.3125 1.5312-0.5625s1.0587-0.38573 2.125-1.2188c1.0663-0.83302 2.1875-2.1699 2.1875-4 0-1.6685-0.52739-3.1001-1.5-4.125-0.973-1.0251-2.382-1.6252-4.0005-1.6252h-1.4375v-2z"/>
  <path id="path4400-3-3" style="opacity:.2;block-progression:tb;text-indent:0;color:#bebebe;text-transform:none;fill:#fff" d="m8 1.5-6.4688 4.5 0.7188 0.5 5.75-4zm0 2.5v1h1.9375c2.8647 0 4.7984 1.9492 4.9688 4.8438 0.0293-0.18951 0.03125-0.39062 0.03125-0.59375 0-3.1235-2-5.25-5-5.25zm4.375 7c-0.28032 1.3573-1.4375 3-1.4375 3s0.33847-0.15036 0.8125-0.40625c0.437-0.853 0.854-1.889 0.625-2.594z"/>
  <path id="path4037" style="opacity:0.61;block-progression:tb;text-indent:0;color:#bebebe;stroke:#000;text-transform:none;fill:none" d="m8.5 0.53125-0.7812 0.56255-6.4688 4.5-0.59375 0.4062 0.59375 0.4062l6.4688 4.5 0.78125 0.5625v-0.96875-2h0.9375c1.1516 0 2.1792 0.76456 2.4688 1.6562 0.12424 0.38257-0.13701 1.3333-0.53125 2.125-0.39424 0.79171-0.84375 1.4375-0.84375 1.4375l-0.9375 1.3125 1.5312-0.5625s1.0587-0.38573 2.125-1.2188c1.0663-0.83302 2.1875-2.1699 2.1875-4 0-1.6685-0.52739-3.1001-1.5-4.125-0.973-1.0251-2.382-1.6252-4.0005-1.6252h-1.4375v-2z"/>
 </g>
</svg>
