<?xml version="1.0" encoding="UTF-8" standalone="no"?>
<!-- Created with Inkscape (http://www.inkscape.org/) -->
<svg id="svg5400" xmlns:rdf="http://www.w3.org/1999/02/22-rdf-syntax-ns#" xmlns="http://www.w3.org/2000/svg" height="16px" width="16px" version="1.1" xmlns:cc="http://creativecommons.org/ns#" xmlns:xlink="http://www.w3.org/1999/xlink" xmlns:dc="http://purl.org/dc/elements/1.1/">
 <defs id="defs5402">
  <linearGradient id="linearGradient3829" y2="40" gradientUnits="userSpaceOnUse" x2="144" gradientTransform="matrix(0 -.055556 .057143 0 -3.1429 15)" y1="280" x1="144">
   <stop id="stop3864-8-6-6" style="stop-color:#f0f0f0" offset="0"/>
   <stop id="stop3866-9-1-7" style="stop-color:#f9f9f9" offset="1"/>
  </linearGradient>
  <linearGradient id="linearGradient3831" y2="14" gradientUnits="userSpaceOnUse" x2="5" gradientTransform="matrix(0,-1,1,0,-1,13)" y1="1" x1="5">
   <stop id="stop3806" style="stop-color:#fff" offset="0"/>
   <stop id="stop3808" style="stop-color:#fff;stop-opacity:0" offset="1"/>
  </linearGradient>
 </defs>
 <metadata id="metadata5405">
  <rdf:RDF>
   <cc:Work rdf:about="">
    <dc:format>image/svg+xml</dc:format>
    <dc:type rdf:resource="http://purl.org/dc/dcmitype/StillImage"/>
    <dc:title/>
   </cc:Work>
  </rdf:RDF>
 </metadata>
 <g id="layer1">
  <path id="path3870" style="opacity:0.41;block-progression:tb;text-indent:0;color:#bebebe;text-transform:none" d="m0.8125 0c-0.4584 0.087466-0.82072 0.5334-0.8125 1v1h1v-1h1v-1h-1c-0.03123-0.0014652-0.06252-0.0014652-0.09375 0-0.03123-0.0014652-0.06252-0.0014652-0.09375 0zm3.1875 0v1h2v-1zm4 0v1h2v-1zm4 0v1h1v1h1v-1c0-0.52358-0.476-0.99995-1-1zm-12 4v2h1v-2zm13 0v2h1v-2zm-13 4v2c0.000052351 0.52358 0.47642 0.99995 1 1h1v-1h-1v-2zm13 0v2h-1v1h1c0.52358-0.000052 0.99995-0.47642 1-1v-2zm-9 2v1h2v-1zm4 0v1h2v-1z"/>
  <g id="g3812" transform="matrix(0,1,-1,0,16,3)">
   <path id="path3029" style="opacity:0.41;stroke-linejoin:round;stroke-width:2;color:#bebebe;stroke:#000;fill:none" d="m1 1h10v12h-10z"/>
   <path id="rect3373-6" d="m1 1h10v12h-10z" style="color:#bebebe;fill:url(#linearGradient3829)"/>
   <path id="path3799" style="color:#bebebe;fill:url(#linearGradient3831)" d="m1 1v12h10v-12h-10zm1 1h8v10h-8v-10z"/>
  </g>
  <path id="path3886" style="opacity:.4;block-progression:tb;text-indent:0;color:#000000;text-transform:none" d="m4.1562 5.5625-0.1562 0.1875-0.1562 0.1875 3.2812 3.125l-3.0312 3h-0.03125l0.1874 0.188 0.1875 0.188 0.25-0.219 3.0313-2.6565 0.9687 0.8125 0.1563 0.156 0.1562 0.125 0.1562-0.125 0.1563-0.156 0.9685-0.8125 3.031 2.6565 0.282 0.219 0.156-0.188 0.1875-0.1875h-0.03125l-3.0312-3 3.2812-3.125-0.156-0.1875-0.156-0.1875-4.844 3.7813-4.8438-3.7813z"/>
 </g>
</svg>
