<?xml version="1.0" encoding="UTF-8" standalone="no"?>
<!-- Created with Inkscape (http://www.inkscape.org/) -->
<svg id="svg5400" xmlns:rdf="http://www.w3.org/1999/02/22-rdf-syntax-ns#" xmlns="http://www.w3.org/2000/svg" height="16px" width="16px" version="1.1" xmlns:cc="http://creativecommons.org/ns#" xmlns:xlink="http://www.w3.org/1999/xlink" xmlns:dc="http://purl.org/dc/elements/1.1/">
 <defs id="defs5402">
  <linearGradient id="linearGradient4506" gradientUnits="userSpaceOnUse" x2="8" y1="16" x1="8">
   <stop id="stop3823" style="stop-color:#555" offset="0"/>
   <stop id="stop3825" style="stop-color:#666" offset="1"/>
  </linearGradient>
 </defs>
 <metadata id="metadata5405">
  <rdf:RDF>
   <cc:Work rdf:about="">
    <dc:format>image/svg+xml</dc:format>
    <dc:type rdf:resource="http://purl.org/dc/dcmitype/StillImage"/>
    <dc:title/>
   </cc:Work>
  </rdf:RDF>
 </metadata>
 <g id="layer1">
  <path id="path4491" style="block-progression:tb;text-indent:0;color:#000000;text-transform:none;fill:url(#linearGradient4506)" d="m1.5 1.5v0.5 12 0.5h0.5 4 0.5v-0.5-12-0.5h-0.5-4-0.5zm8 0v0.5 12 0.5h0.5 4 0.5v-0.5-12-0.5h-0.5-4-0.5z"/>
  <path id="path3807-1-1-5-8-6" style="opacity:.2;fill:#fff" d="m2 2v1h4v-1h-4zm8 0v1h4v-1h-4z"/>
  <path id="path4508" style="opacity:.61;block-progression:tb;text-indent:0;color:#000000;stroke:#000;text-transform:none;fill:none" d="m1.5 1.5v0.5 12 0.5h0.5 4 0.5v-0.5-12-0.5h-0.5-4-0.5zm8 0v0.5 12 0.5h0.5 4 0.5v-0.5-12-0.5h-0.5-4-0.5z"/>
 </g>
</svg>
