<?xml version="1.0" encoding="UTF-8" standalone="no"?>
<!-- Created with Inkscape (http://www.inkscape.org/) -->
<svg id="svg3495" xmlns:rdf="http://www.w3.org/1999/02/22-rdf-syntax-ns#" xmlns="http://www.w3.org/2000/svg" height="16" width="16" version="1.1" xmlns:cc="http://creativecommons.org/ns#" xmlns:xlink="http://www.w3.org/1999/xlink" xmlns:dc="http://purl.org/dc/elements/1.1/">
 <defs id="defs3497">
  <clipPath id="clipPath4307" clipPathUnits="userSpaceOnUse">
   <path id="path4309" style="color:#000000;fill:#36e12b" d="m168 265c-3.866 0-7 3.134-7 7s3.134 7 7 7 7-3.134 7-7-3.134-7-7-7zm3.3125 3.0625 1.5625 1.4062-5.25 6.9375-4.0625-3.5 1.3438-1.7812 2.375 2.0625 4.0312-5.125z"/>
  </clipPath>
  <linearGradient id="linearGradient3852" y2="264" gradientUnits="userSpaceOnUse" x2="168" gradientTransform="matrix(.92857 0 0 -.92857 -148 292.57)" y1="280" x1="168">
   <stop id="stop3762" style="stop-color:#e44343" offset="0"/>
   <stop id="stop3764" style="stop-color:#ac0808" offset="1"/>
  </linearGradient>
 </defs>
 <metadata id="metadata3500">
  <rdf:RDF>
   <cc:Work rdf:about="">
    <dc:format>image/svg+xml</dc:format>
    <dc:type rdf:resource="http://purl.org/dc/dcmitype/StillImage"/>
    <dc:title/>
   </cc:Work>
  </rdf:RDF>
 </metadata>
 <g id="layer1" transform="translate(0,-32)">
  <path id="path2922-6-6-0" d="m8 46.5c-3.5898 0-6.5-2.9102-6.5-6.5s2.9102-6.5 6.5-6.5c3.5899 0 6.5 2.9102 6.5 6.5s-2.9101 6.5-6.5 6.5z" style="color:#000000;fill:url(#linearGradient3852)"/>
  <path id="path4303" style="opacity:.81;stroke-width:2;color:#000000;stroke:#790000;fill:none" d="m168 265c-3.866 0-7 3.134-7 7s3.134 7 7 7 7-3.134 7-7-3.134-7-7-7z" clip-path="url(#clipPath4307)" transform="matrix(0,-1,-1,0,280,208)"/>
  <path id="path3837" style="opacity:.2;color:#000000" d="m8 47c-3.3256 0-6-2.674-6-6 0-0.125 0.0238-0.252 0.0312-0.375 0.3061 3.034 2.8511 5.375 5.9688 5.375 3.118 0 5.663-2.341 5.969-5.375 0.007 0.123 0.031 0.25 0.031 0.375 0 3.3256-2.6744 6-6 6z"/>
  <path id="path3822" style="opacity:.4;color:#000000;fill:#fff" d="m8 2c-3.3256 0-6 2.6744-6 6 0 0.1249 0.0238 0.252 0.0312 0.375 0.3061-3.034 2.8511-5.375 5.9688-5.375 3.118 0 5.663 2.341 5.969 5.375 0.007-0.123 0.031-0.2501 0.031-0.375 0-3.3256-2.674-6-6-6z" transform="translate(0,32)"/>
 </g>
</svg>
