<?xml version="1.0" encoding="UTF-8" standalone="no"?>
<!-- Created with Inkscape (http://www.inkscape.org/) -->
<svg id="svg5400" xmlns:rdf="http://www.w3.org/1999/02/22-rdf-syntax-ns#" xmlns="http://www.w3.org/2000/svg" height="16px" width="16px" version="1.1" xmlns:cc="http://creativecommons.org/ns#" xmlns:xlink="http://www.w3.org/1999/xlink" xmlns:dc="http://purl.org/dc/elements/1.1/">
 <defs id="defs5402">
  <linearGradient id="linearGradient3846" gradientUnits="userSpaceOnUse" x2="8" y1="16" x1="8">
   <stop id="stop3823" style="stop-color:#555" offset="0"/>
   <stop id="stop3825" style="stop-color:#666" offset="1"/>
  </linearGradient>
 </defs>
 <metadata id="metadata5405">
  <rdf:RDF>
   <cc:Work rdf:about="">
    <dc:format>image/svg+xml</dc:format>
    <dc:type rdf:resource="http://purl.org/dc/dcmitype/StillImage"/>
    <dc:title/>
   </cc:Work>
  </rdf:RDF>
 </metadata>
 <g id="layer1">
  <path id="path4544-6" style="block-progression:tb;text-indent:0;color:#bebebe;text-transform:none;fill:url(#linearGradient3846)" d="m10.5 0v1 1.5h-2.5c-0.2932 0-0.5586 0.0422-0.7812 0.0938l-0.8125 0.1875 0.5625 0.65625c0.4435 0.5078 0.7593 1.0576 0.9062 1.6874l0.09375 0.375h0.40625 2.125v1.5l0.8125 0.40625 4-3 0.532-0.4062-0.532-0.4062-4-3zm0 7v1 1.5h-2.5c-0.3212 0-0.5-0.1788-0.5-0.5v-3c0-1.9194-1.5806-3.5-3.5-3.5h-3-0.5v0.5 0.9375 1.0625 0.5h0.5 3c0.32117 0 0.5 0.17883 0.5 0.5v3c0 1.9194 1.7179 2.7872 3.5 3.5h2.5v1.5 1l0.8125-0.59375 4-3 0.532-0.406-0.532-0.406-4-3zm-10 2.5v0.5 2 0.5h0.5 3c0.29324 0 0.55856-0.04216 0.78125-0.09375l0.8125-0.1875-0.5625-0.65625c-0.4435-0.507-0.7593-1.057-0.9062-1.687l-0.0938-0.375h-0.4062-2.625z"/>
  <path id="path3855" style="opacity:0.61;stroke-linejoin:round;color:#bebebe;text-indent:0;block-progression:tb;stroke:#000;text-transform:none;fill:none" d="m10.5 0v1 1.5h-2.5c-0.2932 0-0.5586 0.0422-0.7812 0.0938l-0.8125 0.1875 0.5625 0.65625c0.4435 0.5078 0.7593 1.0576 0.9062 1.6874l0.09375 0.375h0.40625 2.125v1.5l0.8125 0.40625 4-3 0.532-0.4062-0.532-0.4062-4-3zm0 7v1 1.5h-2.5c-0.3212 0-0.5-0.1788-0.5-0.5v-3c0-1.9194-1.5806-3.5-3.5-3.5h-3-0.5v0.5 0.9375 1.0625 0.5h0.5 3c0.32117 0 0.5 0.17883 0.5 0.5v3c0 1.9194 1.7179 2.7872 3.5 3.5h2.5v1.5 1l0.8125-0.59375 4-3 0.532-0.406-0.532-0.406-4-3zm-10 2.5v0.5 2 0.5h0.5 3c0.29324 0 0.55856-0.04216 0.78125-0.09375l0.8125-0.1875-0.5625-0.65625c-0.4435-0.507-0.7593-1.057-0.9062-1.687l-0.0938-0.375h-0.4062-2.625z"/>
  <path id="path3857" style="opacity:.2;block-progression:tb;text-indent:0;color:#bebebe;text-transform:none;fill:#fff" d="m11 1v1h0.03125l3.3125 2.5 0.656-0.5-3.969-3zm-10 2v0.9375 0.0625h3c1.6449 0 3 1.3551 3 3v-1c0-1.6449-1.3551-3-3-3zm7 0c-0.2453 0-0.4603 0.0483-0.6562 0.0938v0.03125c0.2373 0.2744 0.4472 0.5639 0.625 0.875 0.0109-0.0002 0.0201 0 0.0312 0h2.5 0.5v-0.5-0.5h-0.5zm3 5v1h0.03125l3.3125 2.5 0.656-0.5-3.969-3zm-4 1v1s0.08488 0.52238 0.28125 0.71875c0.1964 0.196 0.4835 0.187 0.7188 0.281h2.5 0.5v-0.5-0.5h-0.5-2.5c-0.2534 0-0.5224-0.0849-0.7188-0.2812-0.1963-0.1964-0.2812-0.4654-0.2812-0.7188zm-6 1v1h2.625c0.083075 0.35615 0.22854 0.6889 0.40625 1 0.23166-0.0041 0.43786-0.0504 0.625-0.09375v-0.03125c-0.4746-0.549-0.8651-1.163-1.0312-1.875z"/>
 </g>
</svg>
