<?xml version="1.0" encoding="UTF-8" standalone="no"?>
<!-- Created with Inkscape (http://www.inkscape.org/) -->
<svg id="svg5400" xmlns:rdf="http://www.w3.org/1999/02/22-rdf-syntax-ns#" xmlns="http://www.w3.org/2000/svg" height="16px" width="16px" version="1.1" xmlns:cc="http://creativecommons.org/ns#" xmlns:xlink="http://www.w3.org/1999/xlink" xmlns:dc="http://purl.org/dc/elements/1.1/">
 <defs id="defs5402">
  <linearGradient id="linearGradient3959" gradientUnits="userSpaceOnUse" x2="8" y1="16" x1="8">
   <stop id="stop3823" style="stop-color:#555" offset="0"/>
   <stop id="stop3825" style="stop-color:#666" offset="1"/>
  </linearGradient>
  <linearGradient id="linearGradient3085" y2="13" gradientUnits="userSpaceOnUse" y1="13" x2="15" x1="11">
   <stop id="stop3864-8-6-6-6" style="stop-color:#f0f0f0" offset="0"/>
   <stop id="stop3866-9-1-7-6" style="stop-color:#f9f9f9" offset="1"/>
  </linearGradient>
 </defs>
 <metadata id="metadata5405">
  <rdf:RDF>
   <cc:Work rdf:about="">
    <dc:format>image/svg+xml</dc:format>
    <dc:type rdf:resource="http://purl.org/dc/dcmitype/StillImage"/>
    <dc:title/>
   </cc:Work>
  </rdf:RDF>
 </metadata>
 <g id="layer1">
  <path id="path3991-1" style="block-progression:tb;text-indent:0;color:#000000;text-transform:none;fill:url(#linearGradient3959)" d="m5.5 0v1 1.5h-1.5c-1.9194 0-3.5 1.5806-3.5 3.5v4c0 1.919 1.5806 3.5 3.5 3.5h1 0.6562 3.3438 3c1.919 0 3.5-1.581 3.5-3.5v-4c0-1.9194-1.581-3.5-3.5-3.5h-0.25-0.75-0.5v0.5 0.5 0.25l-0.188-0.1562-3.9995-3-0.8125-0.5938zm5 4.25v0.25 0.5 0.5h0.5 0.75 0.25c0.321 0 0.5 0.1788 0.5 0.5v4c0 0.321-0.179 0.5-0.5 0.5h-3-3.3438-0.6562-1c-0.3212 0-0.5-0.179-0.5-0.5v-4c0-0.3212 0.1788-0.5 0.5-0.5h1.5v1.5 1l0.8125-0.5938 3.9995-3 0.188-0.1562z"/>
  <path id="path3951" style="opacity:.61;block-progression:tb;text-indent:0;color:#000000;stroke:#000;text-transform:none;fill:none" d="m5.5 0v1 1.5h-1.5c-1.9194 0-3.5 1.5806-3.5 3.5v4c0 1.919 1.5806 3.5 3.5 3.5h1 0.6562 3.3438 3c1.919 0 3.5-1.581 3.5-3.5v-4c0-1.9194-1.581-3.5-3.5-3.5h-0.25-0.75-0.5v0.5 0.5 0.25l-0.188-0.1562-3.9995-3-0.8125-0.5938zm5 4.25v0.25 0.5 0.5h0.5 0.75 0.25c0.321 0 0.5 0.1788 0.5 0.5v4c0 0.321-0.179 0.5-0.5 0.5h-3-3.3438-0.6562-1c-0.3212 0-0.5-0.179-0.5-0.5v-4c0-0.3212 0.1788-0.5 0.5-0.5h1.5v1.5 1l0.8125-0.5938 3.9995-3 0.188-0.1562z"/>
  <path id="path3998" style="opacity:.2;block-progression:tb;text-indent:0;color:#000000;text-transform:none;fill:#fff" d="m6 1v1h0.0312l3.3126 2.5 0.6562-0.5-3.9688-3h-0.0312zm-2 2c-1.6449 0-3 1.3551-3 3v1c0-1.6449 1.3551-3 3-3h1.5 0.5v-0.5-0.5h-0.5-1.5zm7 0v0.1875 0.3125 0.25 0.25h0.75 0.25c1.645 0 3 1.3551 3 3v-1c0-1.6449-1.355-3-3-3h-0.25-0.75zm-8 7v1c0 0.253 0.0849 0.522 0.2812 0.719 0.1964 0.196 0.4654 0.281 0.7188 0.281h1 0.6562 3.3438 3c0.253 0 0.522-0.085 0.719-0.281 0.196-0.197 0.281-0.466 0.281-0.719v-1c0 0.253-0.085 0.522-0.281 0.719-0.197 0.196-0.466 0.281-0.719 0.281h-3-3.3438-0.6562-1c-0.2534 0-0.5224-0.085-0.7188-0.281-0.1963-0.197-0.2812-0.466-0.2812-0.719z"/>
  <path id="path3042" style="fill:url(#linearGradient3085)" d="m15 13a2 2 0 1 1 -4 0 2 2 0 1 1 4 0z" transform="matrix(0,-1.75,1.75,0,-10.75,34.75)"/>
  <path id="path3814" style="opacity:.61;stroke:#000;stroke-width:.57143;fill:none" d="m15 13a2 2 0 1 1 -4 0 2 2 0 1 1 4 0z" transform="matrix(1.75,0,0,1.75,-10.75,-10.75)"/>
  <path id="path5102" style="color:#bebebe" d="m12 10.5h0.5v3h-0.5v-2.1h-0.5v-0.3c0.5 0 0.5-0.6 0.5-0.6z"/>
 </g>
</svg>
