<?xml version="1.0" encoding="UTF-8" standalone="no"?>
<!-- Created with Inkscape (http://www.inkscape.org/) -->
<svg id="svg5400" xmlns:rdf="http://www.w3.org/1999/02/22-rdf-syntax-ns#" xmlns="http://www.w3.org/2000/svg" height="16px" width="16px" version="1.1" xmlns:cc="http://creativecommons.org/ns#" xmlns:xlink="http://www.w3.org/1999/xlink" xmlns:dc="http://purl.org/dc/elements/1.1/">
 <defs id="defs5402">
  <linearGradient id="linearGradient3962" gradientUnits="userSpaceOnUse" x2="7" gradientTransform="matrix(-1,0,0,1,16,0)" y1="16" x1="7">
   <stop id="stop3823" style="stop-color:#555" offset="0"/>
   <stop id="stop3825" style="stop-color:#666" offset="1"/>
  </linearGradient>
 </defs>
 <metadata id="metadata5405">
  <rdf:RDF>
   <cc:Work rdf:about="">
    <dc:format>image/svg+xml</dc:format>
    <dc:type rdf:resource="http://purl.org/dc/dcmitype/StillImage"/>
    <dc:title/>
   </cc:Work>
  </rdf:RDF>
 </metadata>
 <g id="layer1">
  <path id="path3947" style="block-progression:tb;text-indent:0;color:#000000;text-transform:none;fill:url(#linearGradient3962)" d="m15.5 3.125v0.875 8 0.875l-0.75-0.4375-5.25-3v2.5625 0.875l-0.75-0.4375-7-4-0.75-0.438 0.75-0.4375 7-4 0.75-0.4375v0.875 2.5625l5.25-3 0.75-0.4375z"/>
  <path id="path3807-1-1-4-7-2-1" style="opacity:.2;fill:#fff" d="m15 4v1l-6 3.4375v-1l6-3.4375zm-6 0v1l-6.125 3.5-0.875-0.5 7-4z"/>
  <path id="path3898" style="fill:none" d="m15 4 0.062 8-6.937-4s6.9375-4 6.875-4zm-6.875 4v4l-7-4 7-4z"/>
  <path id="path3964" style="opacity:0.61;block-progression:tb;text-indent:0;color:#000000;stroke:#000;text-transform:none;fill:none" d="m15.5 3.125v0.875 8 0.875l-0.75-0.4375-5.25-3v2.5625 0.875l-0.75-0.4375-7-4-0.75-0.438 0.75-0.4375 7-4 0.75-0.4375v0.875 2.5625l5.25-3 0.75-0.4375z"/>
 </g>
</svg>
