<?xml version="1.0" encoding="UTF-8" standalone="no"?>
<!-- Created with Inkscape (http://www.inkscape.org/) -->
<svg id="svg5400" xmlns:rdf="http://www.w3.org/1999/02/22-rdf-syntax-ns#" xmlns="http://www.w3.org/2000/svg" height="16px" width="16px" version="1.1" xmlns:cc="http://creativecommons.org/ns#" xmlns:xlink="http://www.w3.org/1999/xlink" xmlns:dc="http://purl.org/dc/elements/1.1/">
 <defs id="defs5402">
  <linearGradient id="linearGradient3846" gradientUnits="userSpaceOnUse" x2="8" gradientTransform="matrix(-1 0 0 1 16.011 0)" y1="16" x1="8">
   <stop id="stop3823" style="stop-color:#555" offset="0"/>
   <stop id="stop3825" style="stop-color:#666" offset="1"/>
  </linearGradient>
 </defs>
 <metadata id="metadata5405">
  <rdf:RDF>
   <cc:Work rdf:about="">
    <dc:format>image/svg+xml</dc:format>
    <dc:type rdf:resource="http://purl.org/dc/dcmitype/StillImage"/>
    <dc:title/>
   </cc:Work>
  </rdf:RDF>
 </metadata>
 <g id="layer1">
  <path id="path4544-6" style="block-progression:tb;text-indent:0;color:#bebebe;text-transform:none;fill:url(#linearGradient3846)" d="m5.5106 0v1 1.5h2.5c0.29324 0 0.55856 0.042161 0.78125 0.09375l0.8125 0.1875-0.5625 0.65625c-0.4435 0.5078-0.7593 1.0576-0.9062 1.6874l-0.09375 0.375h-0.40625-2.125v1.5l-0.8125 0.40625-4-3-0.53125-0.4062 0.53125-0.40625 4-3zm0 7v1 1.5h2.5c0.32117 0 0.5-0.17883 0.5-0.5v-3c0-1.9194 1.5806-3.5 3.5-3.5h3 0.5v0.5 0.9375 1.0625 0.5h-0.5-3c-0.32117 0-0.5 0.17883-0.5 0.5v3c0 1.9194-1.7179 2.7872-3.5 3.5h-2.5v1.5 1l-0.8125-0.59375-4-3-0.53125-0.40625 0.53125-0.40625 4-3zm10 2.5v0.5 2 0.5h-0.5-3c-0.29324 0-0.55856-0.04216-0.78125-0.09375l-0.8125-0.1875 0.5625-0.65625c0.44359-0.50796 0.75935-1.0577 0.90625-1.6875l0.09375-0.375h0.40625 2.625z"/>
  <path id="path3855" style="opacity:0.61;stroke-linejoin:round;color:#bebebe;text-indent:0;block-progression:tb;stroke:#000;text-transform:none;fill:none" d="m5.5106 0v1 1.5h2.5c0.29324 0 0.55856 0.042161 0.78125 0.09375l0.8125 0.1875-0.5625 0.65625c-0.4435 0.5078-0.7593 1.0576-0.9062 1.6874l-0.09375 0.375h-0.40625-2.125v1.5l-0.8125 0.40625-4-3-0.53125-0.4062 0.53125-0.40625 4-3zm0 7v1 1.5h2.5c0.32117 0 0.5-0.17883 0.5-0.5v-3c0-1.9194 1.5806-3.5 3.5-3.5h3 0.5v0.5 0.9375 1.0625 0.5h-0.5-3c-0.32117 0-0.5 0.17883-0.5 0.5v3c0 1.9194-1.7179 2.7872-3.5 3.5h-2.5v1.5 1l-0.8125-0.59375-4-3-0.53125-0.40625 0.53125-0.40625 4-3zm10 2.5v0.5 2 0.5h-0.5-3c-0.29324 0-0.55856-0.04216-0.78125-0.09375l-0.8125-0.1875 0.5625-0.65625c0.44359-0.50796 0.75935-1.0577 0.90625-1.6875l0.09375-0.375h0.40625 2.625z"/>
  <path id="path3857" style="opacity:.2;block-progression:tb;text-indent:0;color:#bebebe;text-transform:none;fill:#fff" d="m5.0106 1v1h-0.03125l-3.3125 2.5-0.65625-0.5 3.9688-3zm10 2v0.9375 0.0625h-3c-1.645 0-3.0004 1.3551-3.0004 3v-1c0-1.6449 1.3551-3 3-3zm-7.0004 0c0.24531 0 0.46027 0.04835 0.65625 0.09375v0.03125c-0.2373 0.2744-0.4472 0.5639-0.6249 0.875-0.011-0.0002-0.0202 0-0.0313 0h-2.5-0.5v-0.5-0.5h0.5zm-3 5v1h-0.03125l-3.3125 2.5-0.65625-0.5 3.9688-3zm4 1v1s-0.08488 0.52238-0.28125 0.71875c-0.1964 0.196-0.4835 0.187-0.7188 0.281h-2.5-0.5v-0.5-0.5h0.5 2.5c0.2534 0 0.5224-0.0849 0.7188-0.2812 0.1963-0.1964 0.2812-0.4654 0.2812-0.7188zm6 1v1h-2.625c-0.08307 0.35615-0.22854 0.6889-0.40625 1-0.23166-0.0041-0.43786-0.0504-0.625-0.09375v-0.03125c0.47469-0.54885 0.8651-1.1627 1.0312-1.875z"/>
 </g>
</svg>
