<?xml version="1.0" encoding="UTF-8" standalone="no"?>
<!-- Created with Inkscape (http://www.inkscape.org/) -->
<svg id="svg5400" xmlns:rdf="http://www.w3.org/1999/02/22-rdf-syntax-ns#" xmlns="http://www.w3.org/2000/svg" height="16px" width="16px" version="1.1" xmlns:cc="http://creativecommons.org/ns#" xmlns:xlink="http://www.w3.org/1999/xlink" xmlns:dc="http://purl.org/dc/elements/1.1/">
 <defs id="defs5402">
  <linearGradient id="linearGradient3959" gradientUnits="userSpaceOnUse" x2="8" gradientTransform="matrix(-1,0,0,1,16,0)" y1="16" x1="8">
   <stop id="stop3823" style="stop-color:#555" offset="0"/>
   <stop id="stop3825" style="stop-color:#666" offset="1"/>
  </linearGradient>
 </defs>
 <metadata id="metadata5405">
  <rdf:RDF>
   <cc:Work rdf:about="">
    <dc:format>image/svg+xml</dc:format>
    <dc:type rdf:resource="http://purl.org/dc/dcmitype/StillImage"/>
    <dc:title/>
   </cc:Work>
  </rdf:RDF>
 </metadata>
 <g id="layer1">
  <path id="path3991-1" style="block-progression:tb;text-indent:0;color:#000000;text-transform:none;fill:url(#linearGradient3959)" d="m10.5 0v1 1.5h1.5c1.9194 0 3.5 1.5806 3.5 3.5v4c0 1.9194-1.5806 3.5-3.5 3.5h-1-0.65625-3.344-3c-1.9194 0-3.5-1.581-3.5-3.5v-4c0-1.9194 1.5806-3.5 3.5-3.5h0.25 0.75 0.5v0.5 0.5 0.25l0.1875-0.15625 4-3 0.8125-0.5938zm-5 4.25v0.25 0.5 0.5h-0.5-0.75-0.25c-0.3212 0-0.5 0.1788-0.5 0.5v4c0 0.32117 0.17883 0.5 0.5 0.5h3 3.3438 0.65625 1c0.32117 0 0.5-0.17883 0.5-0.5v-4c0-0.3212-0.179-0.5-0.5-0.5h-1.5v1.5 1l-0.8125-0.59375-4-3-0.1875-0.1562z"/>
  <path id="path3951" style="opacity:0.61;block-progression:tb;text-indent:0;color:#000000;stroke:#000;text-transform:none;fill:none" d="m10.5 0v1 1.5h1.5c1.9194 0 3.5 1.5806 3.5 3.5v4c0 1.9194-1.5806 3.5-3.5 3.5h-1-0.65625-3.344-3c-1.9194 0-3.5-1.581-3.5-3.5v-4c0-1.9194 1.5806-3.5 3.5-3.5h0.25 0.75 0.5v0.5 0.5 0.25l0.1875-0.15625 4-3 0.8125-0.5938zm-5 4.25v0.25 0.5 0.5h-0.5-0.75-0.25c-0.3212 0-0.5 0.1788-0.5 0.5v4c0 0.32117 0.17883 0.5 0.5 0.5h3 3.3438 0.65625 1c0.32117 0 0.5-0.17883 0.5-0.5v-4c0-0.3212-0.179-0.5-0.5-0.5h-1.5v1.5 1l-0.8125-0.59375-4-3-0.1875-0.1562z"/>
  <path id="path3998" style="opacity:.2;block-progression:tb;text-indent:0;color:#000000;text-transform:none;fill:#fff" d="m10 1v1h-0.0312l-3.3126 2.5-0.6562-0.5 3.9688-3h0.0312zm2 2c1.6449 0 3 1.3551 3 3v1c0-1.6449-1.355-3-3-3h-1.5-0.5v-0.5-0.5h0.5 1.5zm-7 0v0.1875 0.3125 0.25 0.25h-0.75-0.25c-1.6449 0-3 1.3551-3 3v-1c0-1.6449 1.3551-3 3-3h0.25 0.75zm8 7v1c0 0.25339-0.08488 0.52238-0.28125 0.71875-0.197 0.196-0.466 0.281-0.719 0.281h-1-0.656-3.344-3c-0.2534 0-0.5224-0.085-0.7188-0.281-0.1963-0.197-0.2812-0.466-0.2812-0.719v-1c0 0.25339 0.084881 0.52238 0.28125 0.71875 0.1964 0.196 0.4654 0.281 0.7188 0.281h3 3.3438 0.65625 1c0.25339 0 0.52238-0.08488 0.71875-0.28125 0.196-0.197 0.281-0.466 0.281-0.719z"/>
 </g>
</svg>
