<?xml version="1.0" encoding="UTF-8" standalone="no"?>
<!-- Created with Inkscape (http://www.inkscape.org/) -->
<svg id="svg5400" xmlns:rdf="http://www.w3.org/1999/02/22-rdf-syntax-ns#" xmlns="http://www.w3.org/2000/svg" height="16px" width="16px" version="1.1" xmlns:cc="http://creativecommons.org/ns#" xmlns:xlink="http://www.w3.org/1999/xlink" xmlns:dc="http://purl.org/dc/elements/1.1/">
 <defs id="defs5402">
  <linearGradient id="linearGradient3962" gradientUnits="userSpaceOnUse" x2="7" y1="16" x1="7">
   <stop id="stop3823" style="stop-color:#555" offset="0"/>
   <stop id="stop3825" style="stop-color:#666" offset="1"/>
  </linearGradient>
 </defs>
 <metadata id="metadata5405">
  <rdf:RDF>
   <cc:Work rdf:about="">
    <dc:format>image/svg+xml</dc:format>
    <dc:type rdf:resource="http://purl.org/dc/dcmitype/StillImage"/>
    <dc:title/>
   </cc:Work>
  </rdf:RDF>
 </metadata>
 <g id="layer1">
  <path id="path3947" style="block-progression:tb;text-indent:0;color:#000000;text-transform:none;fill:url(#linearGradient3962)" d="m0.5 3.125v0.875 8 0.875l0.75-0.437 5.25-3.0005v2.5625 0.875l0.75-0.437 7-4.0005 0.75-0.4375-0.75-0.4375-7-4-0.75-0.4375v0.875 2.5625l-5.25-3-0.75-0.4375z"/>
  <path id="path3807-1-1-4-7-2-1" style="opacity:.2;fill:#fff" d="m1 4v1l6 3.4375v-1l-6-3.4375zm6 0v1l6.125 3.5 0.875-0.5-7-4z"/>
  <path id="path3898" style="fill:none" d="m1 4-0.0625 8 6.9375-4s-6.9375-4-6.875-4zm6.875 4v4l7-4-7-4z"/>
  <path id="path3964" style="opacity:.61;block-progression:tb;text-indent:0;color:#000000;stroke:#000;text-transform:none;fill:none" d="m0.5 3.125v0.875 8 0.875l0.75-0.437 5.25-3.0005v2.5625 0.875l0.75-0.437 7-4.0005 0.75-0.4375-0.75-0.4375-7-4-0.75-0.4375v0.875 2.5625l-5.25-3-0.75-0.4375z"/>
 </g>
</svg>
