<?xml version="1.0" encoding="UTF-8" standalone="no"?>
<!-- Created with Inkscape (http://www.inkscape.org/) -->
<svg id="svg5400" xmlns:rdf="http://www.w3.org/1999/02/22-rdf-syntax-ns#" xmlns="http://www.w3.org/2000/svg" height="16px" width="16px" version="1.1" xmlns:cc="http://creativecommons.org/ns#" xmlns:xlink="http://www.w3.org/1999/xlink" xmlns:dc="http://purl.org/dc/elements/1.1/">
 <defs id="defs5402">
  <linearGradient id="linearGradient4025" gradientUnits="userSpaceOnUse" x2="8" y1="16" x1="8">
   <stop id="stop3888-1" style="stop-color:#2ca42a" offset="0"/>
   <stop id="stop3890-6" style="stop-color:#57d932" offset="1"/>
  </linearGradient>
  <linearGradient id="linearGradient4033" y2="8" gradientUnits="userSpaceOnUse" x2="15" gradientTransform="matrix(0,-1,1,0,0,16)" y1="8" x1="1">
   <stop id="stop3906-3" style="stop-color:#1c521e" offset="0"/>
   <stop id="stop3908-1" style="stop-color:#2f821a" offset="1"/>
  </linearGradient>
  <linearGradient id="linearGradient4104" y2="15.5" gradientUnits="userSpaceOnUse" x2="12" y1="6.5" x1="12">
   <stop id="stop3834" style="stop-color:#eedc1b" offset="0"/>
   <stop id="stop3836" style="stop-color:#e8c348" offset="1"/>
  </linearGradient>
  <linearGradient id="linearGradient4106" y2="7" gradientUnits="userSpaceOnUse" x2="12" y1="16" x1="12">
   <stop id="stop3850" style="stop-color:#6e660d" offset="0"/>
   <stop id="stop3852" style="stop-color:#75611c" offset="1"/>
  </linearGradient>
 </defs>
 <metadata id="metadata5405">
  <rdf:RDF>
   <cc:Work rdf:about="">
    <dc:format>image/svg+xml</dc:format>
    <dc:type rdf:resource="http://purl.org/dc/dcmitype/StillImage"/>
    <dc:title/>
   </cc:Work>
  </rdf:RDF>
 </metadata>
 <g id="layer1">
  <path id="path4436" style="block-progression:tb;text-indent:0;color:#000000;text-transform:none;fill:url(#linearGradient4025)" d="m1.5 3.5v9c0 2 2 2 2 2h9c2 0 2-2 2-2v-9c0-2-2-2-2-2h-9c-2 0-2 2-2 2z"/>
  <path id="path3832" d="m12.5 14.5h-9c-2 0-2-2-2-2v-9c0-2 2-2 2-2h9c2 0 2 2 2 2v9c0 2-2 2-2 2z" style="opacity:.81;block-progression:tb;text-indent:0;color:#000000;stroke:url(#linearGradient4033);text-transform:none;fill:none"/>
  <path id="path4035" style="opacity:.2;block-progression:tb;text-indent:0;color:#000000;text-transform:none;fill:#fff" d="m3.5 2s-0.4005-0.0029-0.7812 0.1875c-0.3808 0.1904-0.7188 0.4792-0.7188 1.3125v1c0-0.8333 0.338-1.1221 0.7188-1.3125 0.3807-0.1904 0.7812-0.1875 0.7812-0.1875h9c0.833 0 1.122 0.338 1.312 0.7188 0.191 0.3807 0.188 0.7812 0.188 0.7812v-1s0.003-0.4005-0.188-0.7812c-0.19-0.3808-0.479-0.7188-1.312-0.7188h-9z"/>
  <path id="path4051" style="opacity:.2;block-progression:tb;text-indent:0;color:#000000;text-transform:none" d="m3.5 15s-0.40051 0.0029-0.78125-0.1875c-0.38074-0.19037-0.71875-0.47917-0.71875-1.3125v-1c0 0.83333 0.33801 1.1221 0.71875 1.3125 0.38074 0.19037 0.78125 0.1875 0.78125 0.1875h9c0.83333 0 1.1221-0.33801 1.3125-0.71875s0.1875-0.78125 0.1875-0.78125v1s0.0029 0.40051-0.1875 0.78125c-0.19037 0.38074-0.47917 0.71875-1.3125 0.71875h-9z"/>
 </g>
 <g id="layer2">
  <path id="path5739" style="color:#000000;fill:url(#linearGradient4104)" d="m12 7.5c-1.3821 0-2.5 1.1458-2.5 2.5312v0.46875h-0.5-0.5v0.5 1 2 1 0.5h0.5 1 4 1 0.5v-0.5-1-2-1-0.5h-0.5-0.5v-0.46875c0-1.3856-1.118-2.531-2.5-2.531zm0 2c0.28784 0 0.5 0.20896 0.5 0.5v0.5h-1v-0.5c0-0.29104 0.21216-0.5 0.5-0.5z"/>
  <path id="path3970" style="opacity:0.61;color:#000000;stroke:url(#linearGradient4106);fill:none" d="m12 7.5c-1.3821 0-2.5 1.1458-2.5 2.5312v0.46875h-0.5-0.5v0.5 1 2 1 0.5h0.5 1 4 1 0.5v-0.5-1-2-1-0.5h-0.5-0.5v-0.46875c0-1.3856-1.118-2.531-2.5-2.531zm0 2c0.28784 0 0.5 0.20896 0.5 0.5v0.5h-1v-0.5c0-0.29104 0.21216-0.5 0.5-0.5z"/>
  <path id="path3972" style="opacity:.4;color:#000000;fill:#fff" d="m12 8c-1.1058 0-2 0.91472-2 2.0312v0.469 0.5c0.01687-1.102 0.90476-2 2-2s1.9831 0.89768 2 2v-0.5-0.46875c0-1.1166-0.894-2.031-2-2.031zm2 3c0.000163 0.01064 0 0.02057 0 0.03125v0.46875 0.5h0.5 0.5v-1h-0.5-0.5zm-4 0h-0.5-0.5v1h0.5 0.5v-0.5-0.46875c0-0.01-0.0002-0.02 0-0.031zm1 0v0.5 0.5h0.5 1 0.5v-0.5-0.5h-0.5-1-0.5z"/>
 </g>
</svg>
