<?xml version="1.0" encoding="UTF-8" standalone="no"?>
<!-- Created with Inkscape (http://www.inkscape.org/) -->
<svg id="svg3495" xmlns:rdf="http://www.w3.org/1999/02/22-rdf-syntax-ns#" xmlns="http://www.w3.org/2000/svg" height="16" width="16" version="1.1" xmlns:cc="http://creativecommons.org/ns#" xmlns:xlink="http://www.w3.org/1999/xlink" xmlns:dc="http://purl.org/dc/elements/1.1/">
 <defs id="defs3497">
  <linearGradient id="linearGradient3779" gradientUnits="userSpaceOnUse" x2="8" y1="16" x1="8">
   <stop id="stop3785" style="stop-color:#555" offset="0"/>
   <stop id="stop3787" style="stop-color:#666" offset="1"/>
  </linearGradient>
 </defs>
 <metadata id="metadata3500">
  <rdf:RDF>
   <cc:Work rdf:about="">
    <dc:format>image/svg+xml</dc:format>
    <dc:type rdf:resource="http://purl.org/dc/dcmitype/StillImage"/>
    <dc:title/>
   </cc:Work>
  </rdf:RDF>
 </metadata>
 <g id="layer1" transform="translate(0,-32)">
  <path id="path2992" style="block-progression:tb;text-indent:0;color:#000000;text-transform:none;fill:url(#linearGradient3779)" d="m3 0.875l-2.125 2.125 1.0625 1.0625 3.9375 3.9375-3.9375 3.938-1.0625 1.062 2.125 2.125 1.0625-1.063 3.9375-3.937 3.938 3.937 1.062 1.063 2.125-2.125-1.063-1.062-3.937-3.938 3.937-3.9375 1.063-1.0625-2.125-2.125-1.062 1.0625-3.938 3.9375-3.9375-3.9375-1.0625-1.0625z" transform="translate(0,32)"/>
  <path id="path3781" d="m3 0.875l-2.125 2.125 1.0625 1.0625 3.9375 3.9375-3.9375 3.938-1.0625 1.062 2.125 2.125 1.0625-1.063 3.9375-3.937 3.938 3.937 1.062 1.063 2.125-2.125-1.063-1.062-3.937-3.938 3.937-3.9375 1.063-1.0625-2.125-2.125-1.062 1.0625-3.938 3.9375-3.9375-3.9375-1.0625-1.0625z" style="opacity:.61;block-progression:tb;text-indent:0;color:#000000;stroke:#000;text-transform:none;fill:none" transform="translate(0,32)"/>
  <path id="path3783" style="opacity:.2;block-progression:tb;text-indent:0;color:#000000;text-transform:none;fill:#fff" d="m3 1.5625l-1.4375 1.4375 0.5 0.5 0.9375-0.9375 0.7188 0.7187 3.9374 3.9376 0.3438 0.375 0.3438-0.375 3.9372-3.9376 0.719-0.7187 0.938 0.9375 0.5-0.5-1.438-1.4375-0.719 0.7187-3.9372 3.9376-0.3438 0.375-0.3438-0.375-3.9374-3.9376-0.7188-0.7187zm3.0625 6.9375l-3.7813 3.781-0.7187 0.719 0.5 0.5 0.2187-0.219 3.9376-3.9372 0.375-0.3438-0.375-0.3438-0.1563-0.1562zm3.875 0l-0.1563 0.1562-0.375 0.3438 0.375 0.3438 3.9378 3.9372 0.219 0.219 0.5-0.5-0.719-0.719-3.7815-3.781z" transform="translate(0,32)"/>
 </g>
</svg>
