<?xml version="1.0" encoding="UTF-8" standalone="no"?>
<!-- Created with Inkscape (http://www.inkscape.org/) -->
<svg id="svg5400" xmlns:rdf="http://www.w3.org/1999/02/22-rdf-syntax-ns#" xmlns="http://www.w3.org/2000/svg" height="16px" width="16px" version="1.1" xmlns:cc="http://creativecommons.org/ns#" xmlns:xlink="http://www.w3.org/1999/xlink" xmlns:dc="http://purl.org/dc/elements/1.1/">
 <defs id="defs5402">
  <linearGradient id="linearGradient4448" gradientUnits="userSpaceOnUse" x2="8" gradientTransform="matrix(1,0,0,-1,0,16)" y1="16" x1="8">
   <stop id="stop3823" style="stop-color:#f7f7f7" offset="0"/>
   <stop id="stop3825" style="stop-color:#ddd" offset="1"/>
  </linearGradient>
 </defs>
 <metadata id="metadata5405">
  <rdf:RDF>
   <cc:Work rdf:about="">
    <dc:format>image/svg+xml</dc:format>
    <dc:type rdf:resource="http://purl.org/dc/dcmitype/StillImage"/>
    <dc:title/>
   </cc:Work>
  </rdf:RDF>
 </metadata>
 <g id="layer1">
  <path id="path4436" style="block-progression:tb;text-indent:0;color:#000000;text-transform:none;fill:url(#linearGradient4448)" d="m3.5 1.5s-2 0-2 2v9s0 2 2 2h9s2 0 2-2v-9s0-2-2-2h-9zm3 3h0.5 2 0.5v0.5 6 0.5h-0.5-2-0.5v-0.5-3.5h-0.5-0.5v-0.5-1-0.5h0.5s0.1505 0.0029 0.2812-0.0625c0.1308-0.0654 0.2188-0.1042 0.2188-0.4375v-0.5z"/>
  <path id="path3832" style="opacity:0.41;block-progression:tb;text-indent:0;color:#000000;stroke:#000;text-transform:none;fill:none" d="m3.5 1.5s-2 0-2 2v9s0 2 2 2h9s2 0 2-2v-9s0-2-2-2h-9zm3 3h0.5 2 0.5v0.5 6 0.5h-0.5-2-0.5v-0.5-3.5h-0.5-0.5v-0.5-1-0.5h0.5s0.1505 0.0029 0.2812-0.0625c0.1308-0.0654 0.2188-0.1042 0.2188-0.4375v-0.5z"/>
 </g>
</svg>
