<?xml version="1.0" encoding="UTF-8" standalone="no"?>
<svg xmlns="http://www.w3.org/2000/svg" height="24" width="24" version="1.1">
 <g id="layer1" transform="translate(0,8)">
  <rect id="rect4047" opacity=".2" color="#000000" height="3" width="3" y="8" x="6" stroke-width="2"/>
  <path id="path4017" opacity=".2" stroke-linejoin="round" d="m13-2c-0.554 0-1 0.446-1 1v12c0 0.554 0.446 1 1 1h6c0.554 0 1-0.446 1-1v-12c0-0.554-0.446-1-1-1zm0 1h6v7h-6zm1 8h1v1h1v-1h1v1h1v-1h1v1h-1v1h1v1h-1v1h-1v-1h-1v1h-1v-1h-1v1h-1v-1h1v-1h-1v-1h1zm0 1v1h1v-1zm1 1v1h1v-1zm1 0h1v-1h-1zm1 0v1h1v-1z" color="#bebebe" stroke="#333" stroke-linecap="round" stroke-width="0"/>
  <path id="path3775" opacity=".2" stroke-linejoin="round" d="m6.5-3c-0.277 0-0.5 0.223-0.5 0.5v0.5h-1.5c-0.277 0-0.5 0.223-0.5 0.5v14c0 0.277 0.223 0.5 0.5 0.5h6c0.277 0 0.5-0.223 0.5-0.5v-14c0-0.277-0.223-0.5-0.5-0.5h-1.5v-0.5c0-0.277-0.223-0.5-0.5-0.5zm-1.5 2h1.5 2 1.5v13h-5z" color="#bebebe" stroke="#333" stroke-linecap="round" stroke-width="0"/>
  <path id="path2994" stroke-linejoin="round" d="m6.5-4c-0.277 0-0.5 0.223-0.5 0.5v0.5h-1.5c-0.277 0-0.5 0.223-0.5 0.5v14c0 0.277 0.223 0.5 0.5 0.5h6c0.277 0 0.5-0.223 0.5-0.5v-14c0-0.277-0.223-0.5-0.5-0.5h-1.5v-0.5c0-0.277-0.223-0.5-0.5-0.5zm-1.5 2h1.5 2 1.5v13h-5z" color="#bebebe" stroke="#333" stroke-linecap="round" stroke-width="0" fill="#fff"/>
  <path id="path4950" stroke-linejoin="round" d="m13-3c-0.554 0-1 0.446-1 1v12c0 0.554 0.446 1 1 1h6c0.554 0 1-0.446 1-1v-12c0-0.554-0.446-1-1-1zm0 1h6v7h-6zm1 8h1v1h1v-1h1v1h1v-1h1v1h-1v1h1v1h-1v1h-1v-1h-1v1h-1v-1h-1v1h-1v-1h1v-1h-1v-1h1zm0 1v1h1v-1zm1 1v1h1v-1zm1 0h1v-1h-1zm1 0v1h1v-1z" color="#bebebe" stroke="#333" stroke-linecap="round" stroke-width="0" fill="#fff"/>
  <rect id="rect4038" color="#000000" height="9" width="3" y="1" x="6" stroke-width="2" fill="#fff"/>
 </g>
</svg>
