<?xml version="1.0" encoding="UTF-8" standalone="no"?>
<!-- Created with Inkscape (http://www.inkscape.org/) -->
<svg id="svg7384" xmlns:rdf="http://www.w3.org/1999/02/22-rdf-syntax-ns#" style="enable-background:new" xmlns="http://www.w3.org/2000/svg" xmlns:osb="http://www.openswatchbook.org/uri/2009/osb" height="16" width="16" version="1.1" xmlns:cc="http://creativecommons.org/ns#" xmlns:dc="http://purl.org/dc/elements/1.1/">
 <metadata id="metadata90">
  <rdf:RDF>
   <cc:Work rdf:about="">
    <dc:format>image/svg+xml</dc:format>
    <dc:type rdf:resource="http://purl.org/dc/dcmitype/StillImage"/>
    <dc:title>Moka Symbolic Icon Theme</dc:title>
   </cc:Work>
  </rdf:RDF>
 </metadata>
 <title id="title8473">Moka Symbolic Icon Theme</title>
 <defs id="defs7386">
  <filter id="filter7554" style="color-interpolation-filters:sRGB">
   <feBlend id="feBlend7556" in2="BackgroundImage" mode="darken"/>
  </filter>
 </defs>
 <g id="layer9" transform="translate(-461 308)">
  <path id="path6093-5" style="color:#000000;text-indent:0;block-progression:tb;text-decoration-line:none;enable-background:accumulate;text-transform:none;fill:#bebebe" d="m467.5-308c-1.9271 0-3.5 1.5729-3.5 3.5 0 0.17852 0.0365 0.35978 0.0625 0.53125-1.7244 0.21437-3.0625 1.6881-3.0625 3.4688 0 1.9271 1.5729 3.5 3.5 3.5h2.5v-4.9688-1.0312h4.0156l-0.0156 1.0312v4.9688h3c1.6509 0 3-1.3491 3-3s-1.3491-3-3-3c-0.17414 0-0.33381 0.0337-0.5 0.0625-0.10013-1.1461-1.0792-2.0625-2.25-2.0625-0.0997 0-0.18491 0.0187-0.28125 0.0312-0.22778-1.7097-1.6985-3.0312-3.4688-3.0312z"/>
  <rect id="rect7669" style="color:#bebebe;enable-background:new;fill:none" height="16" width="16" y="-308" x="461"/>
  <path id="rect7811" style="color:#bebebe;enable-background:accumulate;fill:#ef2929" d="m468-302v4l0.25 2h1.5l0.25-2v-4zm0 7v2h2v-2z" class="error"/>
 </g>
</svg>
