<?xml version="1.0" encoding="UTF-8" standalone="no"?>
<svg
   xmlns:dc="http://purl.org/dc/elements/1.1/"
   xmlns:cc="http://creativecommons.org/ns#"
   xmlns:rdf="http://www.w3.org/1999/02/22-rdf-syntax-ns#"
   xmlns:svg="http://www.w3.org/2000/svg"
   xmlns="http://www.w3.org/2000/svg"
   xmlns:xlink="http://www.w3.org/1999/xlink"
   xmlns:sodipodi="http://sodipodi.sourceforge.net/DTD/sodipodi-0.dtd"
   xmlns:inkscape="http://www.inkscape.org/namespaces/inkscape"
   sodipodi:docname="action-rename.svg"
   height="100%"
   width="100%"
   inkscape:version="0.48.4 r9939"
   version="1.1"
   id="svg2"
   viewBox="0 0 256 256">
  <metadata
     id="metadata10">
    <rdf:RDF>
      <cc:Work
         rdf:about="">
        <dc:format>image/svg+xml</dc:format>
        <dc:type
           rdf:resource="http://purl.org/dc/dcmitype/StillImage" />
        <dc:title></dc:title>
      </cc:Work>
    </rdf:RDF>
  </metadata>
  <defs
     id="defs8">
    <linearGradient
       gradientUnits="userSpaceOnUse"
       x2="0"
       y2="37"
       y1="15"
       xlink:href="#D"
       id="E" />
    <linearGradient
       id="D">
      <stop
         id="F"
         stop-color="#fff" />
      <stop
         stop-opacity="0"
         id="G"
         stop-color="#fff"
         offset="1" />
    </linearGradient>
  </defs>
  <sodipodi:namedview
     pagecolor="#ffffff"
     bordercolor="#666666"
     borderopacity="1"
     objecttolerance="10"
     gridtolerance="10"
     guidetolerance="10"
     inkscape:pageopacity="0"
     inkscape:pageshadow="2"
     inkscape:window-width="688"
     inkscape:window-height="496"
     id="namedview6"
     showgrid="false"
     inkscape:zoom="0.98901497"
     inkscape:cx="131.89377"
     inkscape:cy="128"
     inkscape:window-x="0"
     inkscape:window-y="24"
     inkscape:window-maximized="0"
     inkscape:current-layer="g4438" />
  <path
     d="m 125.73 798.56 c -111.92 -22.351 -154.42 130.95 -105.92 214.2 38.644 66.33 171.02 47.37 220.37 -42.17 49.35 -89.54 -24.617 -154.09 -114.45 -172.03 z"
     style="fill:#ffffff;color:#000"
     id="path4"
     transform="translate(0 -796.36)" />
  <g
     id="g4438"
     transform="matrix(3.8407293,0,0,3.9119883,32.188662,23.921715)">
    <path
       d="m 3,15 0,24 42,0 0,-24 -42,0 0,0 z"
       id="1"
       inkscape:connector-curvature="0"
       style="opacity:0.1" />
    <path
       d="m 3,14.258464 0,24 42,0 0,-24 -42,0 0,0 z"
       id="2"
       inkscape:connector-curvature="0"
       style="fill:#ff4500" />
    <path
       d="m 7.056,19.012299 0,1.898062 1.9923132,0 0,-1.898062 -1.9923132,0 z m 1.9923132,1.898062 0,13.223161 1.9591078,0 0,-13.223161 -1.9591078,0 z m 1.9591078,0 1.992313,0 0,-1.898062 -1.992313,0 0,1.898062 z m 0,13.223161 0,1.866478 1.992313,0 0,-1.866478 -1.992313,0 z m -1.9591078,0 -1.9923132,0 0,1.866478 1.9923132,0 0,-1.866478 z"
       id="8"
       inkscape:connector-curvature="0"
       style="fill:#ffffff" />
    <path
       d="m 7.056,18 0,1.898061 1.9924024,0 0,-1.898061 L 7.056,18 z m 1.9924024,1.898061 0,13.223162 1.9591956,0 0,-13.223162 -1.9591956,0 z m 1.9591956,0 1.992402,0 L 13,18 l -1.992402,0 0,1.898061 z m 0,13.223162 0,1.866478 1.992402,0 0,-1.866478 -1.992402,0 z m -1.9591956,0 -1.9924024,0 0,1.866478 1.9924024,0 0,-1.866478 z"
       id="9"
       inkscape:connector-curvature="0"
       style="fill:#ffffff" />
    <path
       d="m 3.53125,14.53125 0,22.9375 40.9375,0 0,-22.9375 -40.9375,0 z"
       id="B"
       inkscape:connector-curvature="0"
       style="opacity:0.4;fill:none;stroke:#000000" />
    <path
       d="m 4.53125,15.53125 0,20.9375 38.9375,0 0,-20.9375 -38.9375,0 z"
       id="C"
       inkscape:connector-curvature="0"
       style="opacity:0.65;fill:none;stroke:url(#E)" />
  </g>
</svg>
