<svg xmlns="http://www.w3.org/2000/svg" viewBox="0 0 256 256"><g style="color:#000"><path d="m 52.77 231.02 c 192.46 127.95 311 -280.09 62.2 -226.07 -102.82 23.02 -165.22 167.39 -62.2 226.07 z" style="fill:#fff"/><path d="m 154.72 31.1 c 12.4 3.264 33.594 8.118 27.963 30.06 -7.16 27.891 -27.342 53.26 -44.04 72.67 -0.016 0.018 -0.033 0.039 -0.049 0.059 -0.016 0.018 -0.033 0.039 -0.049 0.057 -16.705 19.413 -38.534 42.88 -62.52 51.2 -18.871 6.549 -23.05 -18.09 -25.856 -32.51 l 40.06 -20.471 l 15.695 9.839 c 5.809 -4.308 15.836 -15.12 22.04 -22.317 6.198 -7.21 15.495 -18.869 19.2 -25.621 l -10.05 -16.399 l 17.615 -46.572 z" style="fill:#ff4500"/><g transform="matrix(-2.58227 0 0 -2.61085 226.31 223.75)" style="fill:#ffdead;color:#000"><path d="M 44,24 C 44,35.04 35.043,44 24,44 12.96,44 4,35.043 4,24 4,12.96 12.957,4 24,4 35.04,4 44,12.957 44,24 z" style="fill-rule:evenodd"/><g style="fill:#ff4500;fill-opacity:0.902"><path d="M 28,38 H 20 V 22 h 8 v 16"/><path d="m 28 14 c 0 2.203 -1.797 4 -4 4 -2.203 0 -4 -1.797 -4 -4 0 -2.203 1.797 -4 4 -4 2.203 0 4 1.797 4 4 z" style="fill-rule:evenodd"/></g></g></g></svg>