<svg xmlns="http://www.w3.org/2000/svg" viewBox="0 0 256 256"><defs><clipPath><path d="m -24 13 c 0 1.105 -0.672 2 -1.5 2 -0.828 0 -1.5 -0.895 -1.5 -2 0 -1.105 0.672 -2 1.5 -2 0.828 0 1.5 0.895 1.5 2 z" transform="matrix(15.33333 0 0 11.5 415 -125.5)"/></clipPath></defs><g transform="translate(-1.089)"><path d="m 291.82 921.19 c 200.11 265.25 -350.59 302.94 -173.86 32.17 40.29 -61.728 120.86 -102.43 173.86 -32.17 z" transform="translate(-80.27 -882.59)" style="fill:#fff;stroke:#fff;color:#000"/><g transform="matrix(2.54417 0 0 3.0101 54.3 41.694)" style="fill:#ffdead;stroke:#ff4500"><path d="m 5.654,47.38 -3.188,5.281 h 55.12 L 54.367,47.38 H 5.648 z" style="fill-rule:evenodd;stroke-linecap:round;stroke-linejoin:round;stroke-width:2.689"/><g style="stroke-width:5.378"><g transform="translate(-0.082 -0.433)"><path d="M 8.652,48.42 V 25.771"/><path d="M 19.381,48.42 V 25.771"/><path d="M 30.11,48.42 V 25.771"/><path d="M 40.839,48.42 V 25.771"/></g><path d="M 51.569,47.988 V 25.339" transform="translate(-0.082)"/></g><g style="fill-rule:evenodd"><path d="m 5.683,16.865 c -0.459,0 -0.828,0.369 -0.828,0.828 v 7.506 c 0,0.459 0.369,0.828 0.828,0.828 h 48.693 c 0.459,0 0.828,-0.369 0.828,-0.828 v -7.506 c 0,-0.459 -0.369,-0.828 -0.828,-0.828 H 5.683 z" transform="translate(0 -0.433)" style="stroke-width:2.689"/><path d="M 3.02,16.432 H 57.04 L 30.281,7.87 3.011,16.432 z" style="stroke-linecap:round;stroke-linejoin:round;stroke-width:3.361"/></g></g></g></svg>