<svg xmlns="http://www.w3.org/2000/svg" viewBox="0 0 256 256"><defs><clipPath><path d="M 0,64 H64 V128 H0 z"/></clipPath></defs><g style="color:#000"><path transform="matrix(1.03665 0 0 -1.35742 1657.71 2320.79)" d="m -1360.14 1641.33 c 46.11 -98.28 -119.59 -146.07 -181.85 -106.06 -62.25 40.01 -83.52 108.58 -13.01 143.08 70.51 34.501 148.75 61.26 194.86 -37.03 z" style="fill:#fff"/></g><g transform="matrix(2.99238 0 0 2.8643 39.31 44.24)" style="fill:#ff4500;stroke:#fff;stroke-linecap:round;stroke-linejoin:round"><path d="m 6.546 11.356 c -1.03 0 -1.859 0.827 -1.859 1.855 v 33.579 c 0 1.028 0.829 1.855 1.859 1.855 h 46.908 c 1.03 0 1.859 -0.827 1.859 -1.855 v -33.579 c 0 -1.028 -0.829 -1.855 -1.859 -1.855 h -46.908 z" style="stroke-width:8.125"/><path d="m 6.546 11.356 c -1.03 0 -1.859 0.827 -1.859 1.855 v 33.579 c 0 1.028 0.829 1.855 1.859 1.855 h 46.908 c 1.03 0 1.859 -0.827 1.859 -1.855 v -33.579 c 0 -1.028 -0.829 -1.855 -1.859 -1.855 h -46.908 z" style="fill-opacity:0.75;fill-rule:evenodd;stroke-width:3.125"/></g></svg>