<svg xmlns="http://www.w3.org/2000/svg" viewBox="0 0 256 256"><g transform="matrix(0 0.99152 -0.99163 0 1046.65 1.244)" style="fill:#dc143c;color:#000"><path d="m 231.03 999.59 c 127.95 -192.46 -263.72 -302.82 -226.07 -62.2 c 23.02 102.82 167.39 165.22 226.07 62.2 z" style="fill:#fff"/><g transform="matrix(0 -8.93923 9.57471 0 -9844.75 1015.98)" style="fill:#ff4500"><path d="m 16.43 1044.43 c -1.385 0 -2.5 1.115 -2.5 2.5 0 0.433 0.118 0.835 0.311 1.189 l 0.76 -0.76 c -0.041 -0.137 -0.07 -0.279 -0.07 -0.43 0 -0.831 0.669 -1.5 1.5 -1.5 0.151 0 0.293 0.029 0.43 0.07 l 0.76 -0.76 c -0.355 -0.192 -0.756 -0.31 -1.189 -0.31 z m 2.189 1.311 l -0.76 0.76 c 0.041 0.137 0.07 0.279 0.07 0.43 0 0.831 -0.669 1.5 -1.5 1.5 -0.151 0 -0.293 -0.029 -0.43 -0.07 l -0.76 0.76 c 0.355 0.192 0.756 0.311 1.189 0.311 1.385 0 2.5 -1.115 2.5 -2.5 0 -0.433 -0.118 -0.835 -0.311 -1.189 z" style="stroke:#ff4500"/><path d="m 4 1034.36 c -0.554 0 -1 0.446 -1 1 v 1 v 1 v 1 v 9 v 1 h 1 h 8 v -1 h -8 v -8 h 5 l 2 -2 h 7 v 5 h 1 v -6 h -8 v -1 c 0 -0.554 -0.446 -1 -1 -1 z m 0.404 1 h 5.191 c 0.223 0 0.404 0.181 0.404 0.404 v 1.096 l -1.5 1.5 h -4.5 v -2.596 c 0 -0.224 0.181 -0.404 0.404 -0.404 z"/><path d="m 4.734 1033.91 c -0.554 0 -1 0.431 -1 0.967 v 0.967 v 0.967 v 0.967 v 8.706 v 0.967 h 1 h 8 v -0.967 h -8 v -7.739 h 5 l 2 -1.935 h 7 v 4.837 h 1 v -5.804 h -8 v -0.967 c 0 -0.536 -0.446 -0.967 -1 -0.967 z m 0.404 0.967 h 5.191 c 0.223 0 0.404 0.175 0.404 0.391 v 1.06 l -1.5 1.451 h -4.5 v -2.511 c 0 -0.216 0.181 -0.391 0.404 -0.391 z"/></g></g></svg>