<svg xmlns="http://www.w3.org/2000/svg" viewBox="0 0 256 256"><g transform="translate(0 -796.36)"><path d="m 134.43 799.97 c 347.01 154.26 -162.11 431.5 -133.24 87.84 6.753 -51.745 60.23 -106.08 133.24 -87.84 z" style="fill:#fff;color:#000"/><path d="m 36.628 896.37 l 91.2 125.25 l 60.51 -41.575 l 6.795 -59.937 l -64.37 -88.41 z m 36.26 8.247 l 1.359 -11.989 l 10.729 14.736 l -13.447 9.239 z m 8.08 -16.609 l 12.09 2.75 l 12.09 2.747 l -13.447 9.239 z m -4.077 35.962 l 13.447 -9.239 l 10.729 14.736 l -12.09 -2.747 z m 20.17 -13.858 l 13.447 -9.239 l -1.359 11.989 l -1.359 11.986 z m 52.36 30.349 l 33.617 -23.1 l -6.795 59.937 z" style="fill:#ff4500"/></g></svg>