<svg xmlns="http://www.w3.org/2000/svg" viewBox="0 0 256 256"><g transform="matrix(0.99148 0 0 0.9787 2.165 -774)"><path d="m -65.02 748.3 c -5.567 3.251 -11.218 11 -10.513 21.12 -0.278 37.13 -0.265 74.29 0.261 111.42 -0.101 9.151 5.313 17.02 10.897 18.23 44.68 0.898 89.37 0.466 134.05 0.657 6.287 -2.929 11.702 -12.154 11.11 -22.843 0.528 -37.25 0.176 -74.52 0.284 -111.78 -1.971 -8.04 -6.294 -15.531 -11.891 -16.95 -44.728 0.097 -89.49 -0.194 -134.2 0.146 z" transform="translate(122.41 99.58)" style="fill:#ff4500"/><g style="fill:#fff"><path d="m 103.45,1047.77 c -21.523,-4.177 -40.2,-12.422 -55.18,-24.362 -10.311,-8.219 -21.05,-20.808 -27.337,-32.06 -8.329,-14.894 -15.43,-39.31 -19.479,-66.985 -1.369,-9.361 -1.505,-12.618 -1.181,-28.429 0.391,-19.11 0.887,-22.694 4.863,-35.13 10.956,-34.26 36.22,-55.754 74.74,-63.6 5.059,-1.03 9.785,-1.27 24.82,-1.261 16.279,0.011 19.718,0.218 27.857,1.676 43.618,7.816 83.81,31.956 104.22,62.6 29.575,44.4 20.13,95.15 -27.23,146.33 -9.294,10.04 -20.757,20.648 -27.703,25.629 -5.731,4.109 -18.536,10.412 -25.559,12.582 -8.632,2.666 -16.824,3.714 -31.584,4.04 -12,0.266 -15.4,0.1 -21.252,-1.035 z m 31.07,-58.44 c 3.599,-4.053 20.947,-35.06 20.09,-35.908 -1.601,-1.585 -68.846,-39.985 -70.02,-39.985 -1.054,0 -21.626,34.736 -21.662,36.577 -0.005,0.278 1.442,1.357 3.217,2.397 l 3.227,1.891 2.44,-1.861 c 1.342,-1.024 2.604,-1.861 2.805,-1.861 0.201,0 0.464,1.502 0.583,3.337 l 0.218,3.337 12.857,7.716 c 7.07,4.244 15.811,9.251 19.421,11.128 l 6.564,3.412 2.65,-2.5 c 1.914,-1.806 2.507,-2.103 2.136,-1.071 -1.875,5.207 -1.378,5.97 7.41,11.371 5.954,3.659 6.491,3.794 8.06,2.02 l 0,0 z m 25.09,-42.5 c 4.975,-7.82 6.879,-12.179 6.881,-15.75 0.003,-6.316 -1.593,-8 -14.785,-15.642 l -8,-4.632 13.536,-20.26 c 12.365,-18.507 13.536,-20.527 13.536,-23.35 0,-4.151 -1.401,-7.246 -4.521,-9.985 -2.855,-2.506 -6.247,-3.432 -10.491,-2.863 -5.27,0.707 -6.093,1.865 -17.27,24.309 -5.773,11.592 -10.821,21.277 -11.219,21.523 -0.398,0.246 -4.991,-1.894 -10.206,-4.755 -8.541,-4.685 -9.875,-5.202 -13.424,-5.202 -2.827,0 -4.481,0.404 -5.853,1.429 -3.406,2.543 -11.827,16.542 -11.09,18.437 0.351,0.902 4.191,3.171 44.01,25.994 13.911,7.974 25.567,14.498 25.902,14.498 0.334,0 1.682,-1.688 2.994,-3.75 z" style="stroke:#fff"/><path d="m 154.09 874.4 c -3.53 -1.916 -4.433 -5.865 -2.203 -9.639 2.646 -4.48 8.466 -4.449 11.51 0.061 2.112 3.129 1.683 6.01 -1.298 8.727 -2.413 2.199 -5.01 2.475 -8.01 0.851 z"/></g></g></svg>