<svg xmlns="http://www.w3.org/2000/svg" viewBox="0 0 256 256"><path d="M 229.63,195.84 C 321.68,64.91 151.682,-67.76 43.24,38.93 -58.93,139.44 35.791,295.61 162.93,246.79 c 26.526,-10.185 49.802,-26.914 66.7,-50.948 z" style="fill:#fff;color:#000"/><g transform="matrix(2.43948 0 0 2.47751 51.56 54.76)" style="stroke:#ff4500;stroke-linecap:round;stroke-linejoin:round"><g style="fill:none"><path d="m 4.687 4.685 v 50.63 h 50.625 v -50.63 h -50.625 z" style="stroke-width:8.125"/><path d="m 4.687 4.685 v 50.63 h 50.625 v -50.63 h -50.625 z" style="stroke-dasharray:3.125 3.125;stroke-width:3.125"/></g><g transform="matrix(0.89287 0 0 0.84071 3.213 5.217)" style="fill:#ffdead"><path d="M 98.08,41.949 59,17.556 81.2,59.192 86.783,53.752 98.475,66.308 103.861,61.06 92.08,48.193 98.079,41.949 z" transform="matrix(0.73873 0 0 0.73873 -30.16 -0.976)" style="stroke-width:10.999"/><path d="M 42.3,30.01 13.431,11.99 29.83,42.748 l 4.125,-4.02 8.637,9.276 3.979,-3.877 -8.703,-9.505 4.432,-4.613 z" style="fill-rule:evenodd;stroke-width:3.125"/></g></g></svg>