<svg xmlns="http://www.w3.org/2000/svg" viewBox="0 0 256 256" xmlns:xlink="http://www.w3.org/1999/xlink"><defs><clipPath><path d="m -24 13 c 0 1.105 -0.672 2 -1.5 2 -0.828 0 -1.5 -0.895 -1.5 -2 0 -1.105 0.672 -2 1.5 -2 0.828 0 1.5 0.895 1.5 2 z" transform="matrix(15.33333 0 0 11.5 415 -125.5)"/></clipPath></defs><path d="m 33.675 216.42 c -145.18 -221.56 251.35 -307.3 219.76 -79.37 c -12.881 92.96 -164.23 164.13 -219.76 79.37 z" style="fill:#fff;color:#000"/><g transform="matrix(2.93869 0 0 3.0125 52.31 44.671)" style="fill:#ffb6c1;stroke:#ff4500;stroke-linecap:round;stroke-linejoin:round"><g><g style="display:block;color:#000;stroke-width:6.875"><path d="m 25.816 40.746 c 1.094 1.094 1.094 2.871 0 3.965 -1.094 1.094 -2.871 1.094 -3.965 0 -1.094 -1.094 -1.094 -2.871 0 -3.965 1.094 -1.094 2.871 -1.094 3.965 0 z" id="0"/><path d="m 20.747 26.12 c 1.094 1.094 1.094 2.871 0 3.965 -1.094 1.094 -2.871 1.094 -3.965 0 -1.094 -1.094 -1.094 -2.871 0 -3.965 1.094 -1.094 2.871 -1.094 3.965 0 z" id="1"/><path d="m 42.42 35.42 c -0.5 1.867 -2.422 2.977 -4.289 2.476 -1.867 -0.5 -2.977 -2.422 -2.476 -4.289 0.5 -1.867 2.422 -2.977 4.289 -2.476 1.867 0.5 2.977 2.422 2.476 4.289 z" id="2"/><path d="m 55.59 32.09 c -0.5 1.867 -2.422 2.977 -4.289 2.476 -1.867 -0.5 -2.977 -2.422 -2.476 -4.289 0.5 -1.867 2.422 -2.977 4.289 -2.476 1.867 0.5 2.977 2.422 2.476 4.289 z" id="3"/></g><path d="m 35.614,11.38 c 23.905,2.67 22.3,17.568 22.17,18.885 h 7.15 L 54.583,40.576 44.254,30.265 h 7.06 C 51.498,28.717 52.97,19.826 35.606,11.38 z" transform="matrix(0 -0.7463 0.73914 0 -2.425 44.34)" style="fill-rule:evenodd;stroke-width:4.718"/><g style="color:#000"><path d="m 33.743 20.235 c -0.5 1.867 -2.422 2.977 -4.289 2.476 -1.867 -0.5 -2.977 -2.422 -2.476 -4.289 0.5 -1.867 2.422 -2.977 4.289 -2.476 1.867 0.5 2.977 2.422 2.476 4.289 z" style="display:block;stroke-width:6.875"/><path d="M 52.733,32.09 38.819,35.789 30.905,19.488 52.733,6.886 v 25.2 z" style="stroke-width:8.125"/><path d="m 55.817 8.472 c -0.5 1.867 -2.422 2.977 -4.289 2.476 -1.867 -0.5 -2.977 -2.422 -2.476 -4.289 0.5 -1.867 2.422 -2.977 4.289 -2.476 1.867 0.5 2.977 2.422 2.476 4.289 z" style="display:block;stroke-width:6.875"/></g></g><g style="color:#000"><g><path d="M 52.733,32.09 38.819,35.789 30.905,19.488 52.733,6.886 v 25.2 z" style="stroke-width:3.125"/><g style="display:block;stroke-width:1.875"><path d="m 55.817 8.472 c -0.5 1.867 -2.422 2.977 -4.289 2.476 -1.867 -0.5 -2.977 -2.422 -2.476 -4.289 0.5 -1.867 2.422 -2.977 4.289 -2.476 1.867 0.5 2.977 2.422 2.476 4.289 z"/><path d="m 33.743 20.235 c -0.5 1.867 -2.422 2.977 -4.289 2.476 -1.867 -0.5 -2.977 -2.422 -2.476 -4.289 0.5 -1.867 2.422 -2.977 4.289 -2.476 1.867 0.5 2.977 2.422 2.476 4.289 z"/></g></g><g><path d="m 8.849 51.15 c 1.094 1.094 1.094 2.871 0 3.965 -1.094 1.094 -2.871 1.094 -3.965 0 -1.094 -1.094 -1.094 -2.871 0 -3.965 1.094 -1.094 2.871 -1.094 3.965 0 z" style="display:block;stroke-width:6.875"/><path d="M 24.668,42.728 7.192,52.818 v -20.18 l 11.738,-4.955 5.738,15.05 z" style="stroke-width:8.125"/><path d="m 9.529 31.14 c 1.094 1.094 1.094 2.871 0 3.965 -1.094 1.094 -2.871 1.094 -3.965 0 -1.094 -1.094 -1.094 -2.871 0 -3.965 1.094 -1.094 2.871 -1.094 3.965 0 z" style="display:block;stroke-width:6.875"/></g><g><g><path d="M 24.668,42.728 7.192,52.818 v -20.18 l 11.738,-4.955 5.738,15.05 z" style="stroke-width:3.125"/><g style="display:block;stroke-width:1.875"><path d="m 9.529 31.14 c 1.094 1.094 1.094 2.871 0 3.965 -1.094 1.094 -2.871 1.094 -3.965 0 -1.094 -1.094 -1.094 -2.871 0 -3.965 1.094 -1.094 2.871 -1.094 3.965 0 z"/><path d="m 8.849 51.15 c 1.094 1.094 1.094 2.871 0 3.965 -1.094 1.094 -2.871 1.094 -3.965 0 -1.094 -1.094 -1.094 -2.871 0 -3.965 1.094 -1.094 2.871 -1.094 3.965 0 z"/></g></g><g style="display:block;stroke-width:1.875"><g><use xlink:href="#2"/><use xlink:href="#3"/></g><g><use xlink:href="#0"/><use xlink:href="#1"/></g></g></g></g></g></svg>