<svg xmlns="http://www.w3.org/2000/svg" xmlns:xlink="http://www.w3.org/1999/xlink" viewBox="0 0 256 256"><defs><path id="0" d="m 9.31 44.15 c 0 1.806 -1.465 3.271 -3.271 3.271 -1.806 0 -3.271 -1.465 -3.271 -3.271 0 -1.806 1.465 -3.271 3.271 -3.271 1.806 0 3.271 1.465 3.271 3.271 z" style="fill:#ff4500;stroke:#fff;color:#000;fill-rule:evenodd;stroke-linecap:round;stroke-linejoin:round;stroke-width:5"/></defs><path d="m 235.23 53.52 c 83.29 119.08 -104.26 268.19 -202.26 171.28 -92.42 -91.39 27.07 -261.92 141.96 -217.58 c 24.03 9.275 45.09 24.542 60.3 46.3 z" style="fill:#fff;color:#000"/><g transform="matrix(2.7854 0 0 -3.35674 44.983 244.42)" style="fill:#ff4500;stroke:#ff4500"><g transform="translate(0 2.383)" style="stroke-linecap:round;stroke-linejoin:round;stroke-width:5"><path d="m 5.624 28.21 h 48.752"/><path d="M 30,11.338 V 27.59"/></g><use transform="translate(2.856 -1.14)" xlink:href="#0" width="256" height="256"/><use transform="translate(45.07 -1.14)" xlink:href="#0" width="256" height="256"/><use transform="translate(23.961 -1.14)" xlink:href="#0" width="256" height="256"/><g transform="matrix(0.34443 0 0 -0.26946 -13.154 67.56)" style="stroke:none;fill-rule:evenodd"><path d="m 116.52 108 c -12.477 -7.99 -10.05 -31.15 3.738 -35.703 11.343 -3.744 21.981 5.366 22.04 18.876 0.029 6.453 -2.295 11.593 -7.185 15.886 -3.122 2.741 -4.615 3.258 -9.371 3.243 -3.874 -0.013 -6.781 -0.738 -9.223 -2.302 z m 10.437 -17.267 c -0.556 -3.8 -3.075 -3.972 -3.075 -0.21 0 1.74 0.334 3.497 0.741 3.905 1.251 1.251 2.718 -1.072 2.334 -3.695 z"/><path d="m 54.25 107.06 c -10.604 -8.74 -9.227 -27.7 2.444 -33.654 11.833 -6.04 24.08 2.771 24.19 17.39 0.082 11.762 -6.757 19.514 -17.224 19.521 -4.459 0.003 -6.166 -0.588 -9.405 -3.258 z m 11.06 -15.721 c 0 -3.695 -1.319 -4.966 -2.75 -2.65 -0.945 1.529 0.341 6.447 1.686 6.447 0.585 0 1.064 -1.708 1.064 -3.797 z"/><path d="m 177.17 107.41 c -10.774 -8.489 -9.902 -27.15 1.573 -33.684 6.528 -3.715 13.207 -2.922 18.734 2.224 8.932 8.316 7.65 26.16 -2.316 32.24 -5.282 3.221 -13.359 2.871 -17.99 -0.778 z m 10.712 -16.07 c 0 -3.695 -1.319 -4.966 -2.75 -2.65 -0.945 1.529 0.341 6.447 1.686 6.447 0.585 0 1.064 -1.708 1.064 -3.797 z"/></g></g></svg>