<svg xmlns="http://www.w3.org/2000/svg" viewBox="0 0 256 256"><g transform="translate(0 -796.36)"><path d="m 135.76 1048.76 c 330.8 -154.26 -154.54 -431.5 -127.02 -87.84 6.438 51.745 57.41 106.08 127.02 87.84 z" style="fill:#fff;color:#000"/><g transform="matrix(6.47101 0 0 6.47101 -39.543 769.34)" style="fill:#ff4500"><path d="m 27.559 15.305 a 2.593 2.593 0 1 1 -5.186 0 2.593 2.593 0 1 1 5.186 0 z" transform="matrix(1.16193 0 0 1.16193 -3.623 -2.898)" style="color:#000"/><path d="m 14.644 33.29 l 0.975 1.603 c 0 0 5.635 -1.817 7.04 -3.848 1.409 -2.031 2.059 -2.993 1.842 -2.565 -0.217 0.428 6.935 6.627 6.935 6.627 l 1.517 -1.603 l -7.04 -7.05 l 0.975 -4.917 l 3.804 0.797 c 0 0 1.392 -0.426 1.821 -1.408 0.495 -1.134 1.422 -2.914 1.202 -2.489 l -1.506 -0.495 c 0 0 -0.73 2.129 -1.637 2.478 -0.769 0.297 -2.709 -0.594 -2.709 -0.594 0 0 -0.927 -0.885 -1.597 -1.507 -0.441 -0.41 -1.654 -0.844 -2.521 -0.096 -0.867 0.748 -0.759 5.879 -0.759 5.879 0 0 -1.517 1.176 -1.409 2.351 0.059 0.639 -0.551 2.456 -0.551 2.456 0 0 -0.641 1.072 -1.183 1.499 -0.542 0.428 -5.201 2.886 -5.201 2.886 z"/></g></g></svg>