<svg xmlns="http://www.w3.org/2000/svg" viewBox="0 0 256 256"><g transform="translate(0 -796.36)"><path d="m 98.7 1049.11 c -239.91 -49.981 17.642 -393.86 139.59 -187.29 c 52.27 80.25 -16.2 213 -139.59 187.29 z" style="fill:#fff;color:#000"/><g transform="matrix(4.87685 0 0 4.99359 18.521 -4201.34)" style="fill:#ff4500"><g style="color:#000"><g><rect ry="0.065" y="1034.39" x="33.539" height="9.06" width="1.914" rx="0.067"/><rect width="1.914" height="9.06" x="1037.96" y="-39.03" transform="matrix(0 1 -1 0 0 0)" ry="0.067" rx="0.065"/></g><rect ry="0.068" y="1013.94" x="9.416" height="20.94" width="20.545" rx="0.07"/><path d="m 10.484,1013.09 c -0.911,0 -1.65,0.909 -1.65,2.028 v 18.86 c 0,1.119 0.74,1.993 1.65,1.993 h 18.762 c 0.911,0 1.621,-0.873 1.621,-1.993 v -18.86 c 0,-1.12 -0.711,-2.028 -1.621,-2.028 H 10.484 z m 1.158,1.423 h 16.417 c 0.798,0 1.448,0.799 1.448,1.779 v 16.511 c 0,0.98 -0.65,1.779 -1.448,1.779 H 11.642 c -0.798,0 -1.448,-0.799 -1.448,-1.779 v -16.511 c 0,-0.98 0.65,-1.779 1.448,-1.779 z"/></g><g style="fill:#ffdead"><text y="1019.07" x="13.639" line-height="125%" style="letter-spacing:0;word-spacing:0;font-size:5.659;font-family:DejaVu Sans"><tspan y="1019.07" x="13.639">note</tspan></text><g transform="matrix(0.11518 0 0 0.11518 14.849 1019.84)"><path d="M 86.068,0 C 61.466,0 56.851,35.041 70.691,35.041 84.529,35.041 110.671,0 86.068,0 z"/><path d="M 45.22,30.699 C 52.589,31.149 60.674,2.579 46.824,4.374 32.979,6.171 37.848,30.249 45.22,30.699 z"/><path d="M 11.445,48.453 C 16.686,46.146 12.12,23.581 3.208,29.735 -5.7,35.89 6.204,50.759 11.445,48.453 z"/><path d="M 26.21,36.642 C 32.449,35.37 32.791,9.778 21.665,14.369 10.537,18.961 19.976,37.916 26.21,36.642 z"/><path d="m 58.791 93.91 c 1.107 8.454 -6.202 12.629 -13.36 7.179 -22.787 -17.349 37.729 -26 33.74 -49.706 -3.311 -19.674 -63.68 -13.617 -70.55 17.17 -4.653 20.821 19.15 49.707 43.993 49.707 12.22 0 26.315 -11.03 28.952 -25.01 2.01 -10.659 -23.699 -6.388 -22.775 0.665 z"/></g></g></g></g></svg>