<svg xmlns="http://www.w3.org/2000/svg" viewBox="0 0 256 256"><g transform="matrix(0 0.99152 -0.99163 0 1046.65 1.244)" style="fill:#dc143c;color:#000"><path d="m 203.08 1027.54 c -192.48 127.94 -302.85 -263.69 -62.21 -226.05 c 102.83 23.02 165.24 167.37 62.21 226.05 z" style="fill:#fff"/><g transform="matrix(0 -7.50491 8.98411 0 -9223.45 1004.33)" style="stroke:#ff4500"><g transform="scale(-1 -1)"><path d="m -19 -1034.36 h 16 v 1 h -16 z"/><path d="m -11 -1039.36 h 8 v 1 h -8 z"/><path d="m -11 -1044.36 h 8 v 1 h -8 z"/><path d="m -11 -1049.36 h 8 v 1 h -8 z"/></g><path d="m 17.247 1049.49 v -3.665 v -7.588 l 2.293 2.09 l 0.723 -0.659 l -3.298 -3.01 l -0.22 -0.2 l -0.22 0.2 l -3.298 3.01 l 0.723 0.659 l 2.293 -2.09 v 7.588 v 3.665 h 1.01 z" style="stroke-width:0.967"/></g></g></svg>