<svg xmlns="http://www.w3.org/2000/svg" viewBox="0 0 256 256"><defs><clipPath><path d="m -24 13 c 0 1.105 -0.672 2 -1.5 2 -0.828 0 -1.5 -0.895 -1.5 -2 0 -1.105 0.672 -2 1.5 -2 0.828 0 1.5 0.895 1.5 2 z" transform="matrix(15.33333 0 0 11.5 415 -125.5)"/></clipPath></defs><path d="m 223.16 216.42 c 145.18 -221.56 -251.35 -307.3 -219.76 -79.37 c 12.881 92.96 164.23 164.13 219.76 79.37 z" style="fill:#fff;color:#000"/><g transform="matrix(-2.84712 0 0 3.0309 212.08 14.11)" style="fill:#ffe4c4;stroke:#ff4500;stroke-linecap:round;stroke-linejoin:round"><g><path d="m 6.845,20.2 h 15.292 c 1.195,0 2.158,0.962 2.158,2.158 V 37.65 c 0,1.195 -0.962,2.158 -2.158,2.158 H 6.845 C 5.65,39.808 4.687,38.846 4.687,37.65 V 22.358 c 0,-1.195 0.962,-2.158 2.158,-2.158 z" style="stroke-width:8.125"/><path d="m 14.92 30 h 39.456" style="stroke-width:10"/></g><g transform="matrix(0.95332 0 0 0.95332 1.024 0.42)"><path d="m 6.105,20.745 h 16.04 c 1.254,0 2.263,1.01 2.263,2.263 v 16.04 c 0,1.254 -1.01,2.263 -2.263,2.263 H 6.105 c -1.254,0 -2.263,-1.01 -2.263,-2.263 v -16.04 c 0,-1.254 1.01,-2.263 2.263,-2.263 z" style="stroke-width:3.278"/><path d="m 14.396 31.569 h 41.39" transform="translate(0.18 -0.54)" style="stroke-width:5.245"/></g><g><path d="m 37.26 46.09 l 8.721 8.844 l 9.691 -8.633 l -18.412 -0.212 z" style="stroke-width:7.424"/><path d="M 3.769,47.4 13.05,57.354 23.363,47.638 3.769,47.4 z" style="fill-rule:evenodd;stroke-width:3.125"/></g></g></svg>