<svg xmlns="http://www.w3.org/2000/svg" viewBox="0 0 256 256"><defs><clipPath><path transform="matrix(15.33333 0 0 11.5 415 -125.5)" d="m -24 13 c 0 1.105 -0.672 2 -1.5 2 -0.828 0 -1.5 -0.895 -1.5 -2 0 -1.105 0.672 -2 1.5 -2 0.828 0 1.5 0.895 1.5 2 z"/></clipPath></defs><path d="m 211.55 38.6 c 200.11 265.25 -350.59 302.94 -173.86 32.17 40.29 -61.728 120.86 -102.43 173.86 -32.17 z" style="fill:#fff;color:#000"/><g transform="matrix(-2.62528 0 0 -3.1397 213.16 246.62)"><path d="m 4 37.16 l 7.371 8.523 l -4.469 5.177 c -1.084 1.242 -1.816 2.085 -2.195 2.531 -0.361 0.465 -0.642 0.921 -0.84 1.367 -0.199 0.465 -0.298 0.989 -0.298 1.571 0 1.396 0.425 2.55 1.273 3.462 0.849 0.911 1.806 1.367 2.873 1.367 1.03 0 1.843 -0.155 2.439 -0.465 0.596 -0.31 1.211 -0.911 1.843 -1.804 l 4.606 -6.195 l 4.606 6.195 c 0.668 0.892 1.292 1.493 1.87 1.804 0.578 0.31 1.382 0.465 2.412 0.465 1.066 0 2.023 -0.446 2.873 -1.338 0.849 -0.892 1.273 -2.055 1.273 -3.49 0 -0.581 -0.099 -1.105 -0.298 -1.571 -0.199 -0.446 -0.488 -0.902 -0.867 -1.367 -0.361 -0.446 -1.084 -1.289 -2.168 -2.531 l -4.469 -5.177 l 7.371 -8.523 c 0.47 -0.543 0.867 -1.134 1.192 -1.774 0.343 -0.621 0.515 -1.358 0.515 -2.211 0 -1.415 -0.425 -2.56 -1.273 -3.432 -0.849 -0.853 -1.897 -1.28 -3.143 -1.28 -0.813 0 -1.481 0.184 -2.01 0.553 -0.506 0.368 -1.12 0.98 -1.843 1.833 l -6.04 7.676 l -6.04 -7.676 c -0.632 -0.775 -1.228 -1.367 -1.788 -1.774 c -0.56 -0.407 -1.247 -0.611 -2.059 -0.611 -1.247 0 -2.294 0.427 -3.143 1.28 c -0.849 0.872 -1.273 2.02 -1.273 3.432 c 0 0.834 0.144 1.542 0.434 2.123 0.307 0.581 0.732 1.202 1.273 1.861 z" style="fill:#ff4500"/><path d="m 39.533 34.978 c -0.541 0 -0.977 -0.381 -0.977 -0.854 v -19.963 c 0 -0.473 0.436 -0.854 0.977 -0.854 h 22.827 c 0.541 0 0.977 0.381 0.977 0.854 v 19.963 c 0 0.473 -0.436 0.854 -0.977 0.854 h -22.827 z" style="stroke-dasharray:3.85222 3.85222;fill:#ffdead;stroke:#ff4500;fill-rule:evenodd;stroke-linecap:round;stroke-linejoin:round;stroke-width:3.852"/></g></svg>