<svg xmlns="http://www.w3.org/2000/svg" viewBox="0 0 256 256"><defs><clipPath><path transform="matrix(15.33333 0 0 11.5 415 -125.5)" d="m -24 13 c 0 1.105 -0.672 2 -1.5 2 -0.828 0 -1.5 -0.895 -1.5 -2 0 -1.105 0.672 -2 1.5 -2 0.828 0 1.5 0.895 1.5 2 z"/></clipPath></defs><path d="m 211.55 219.57 c 200.11 -265.25 -350.59 -302.94 -173.86 -32.17 40.29 61.728 120.86 102.43 173.86 32.17 z" style="fill:#fff;color:#000"/><g transform="matrix(-2.62528 0 0 3.1397 213.16 11.55)"><path d="m 3.928 34.761 l 7.05 8.883 l -4.276 5.396 c -1.037 1.294 -1.737 2.173 -2.1 2.638 -0.345 0.485 -0.614 0.96 -0.803 1.425 -0.19 0.485 -0.285 1.031 -0.285 1.637 0 1.455 0.406 2.658 1.218 3.608 0.812 0.95 1.728 1.425 2.748 1.425 0.985 0 1.763 -0.162 2.333 -0.485 0.571 -0.323 1.158 -0.95 1.763 -1.88 l 4.407 -6.457 l 4.407 6.457 c 0.639 0.93 1.236 1.556 1.789 1.88 0.553 0.323 1.322 0.485 2.307 0.485 1.019 0 1.935 -0.465 2.748 -1.395 0.812 -0.93 1.218 -2.142 1.218 -3.638 0 -0.606 -0.095 -1.152 -0.285 -1.637 -0.19 -0.465 -0.467 -0.94 -0.83 -1.425 -0.345 -0.465 -1.037 -1.344 -2.074 -2.638 l -4.276 -5.396 l 7.05 -8.883 c 0.45 -0.566 0.83 -1.182 1.14 -1.849 0.328 -0.647 0.493 -1.415 0.493 -2.304 0 -1.475 -0.406 -2.668 -1.218 -3.577 -0.812 -0.889 -1.814 -1.334 -3.01 -1.334 -0.778 0 -1.417 0.192 -1.919 0.576 -0.484 0.384 -1.072 1.021 -1.763 1.91 l -5.781 8 l -5.781 -8 c -0.605 -0.808 -1.175 -1.425 -1.71 -1.849 -0.536 -0.424 -1.193 -0.637 -1.97 -0.637 c -1.193 0 -2.195 0.445 -3.01 1.334 c -0.812 0.909 -1.218 2.102 -1.218 3.577 c 0 0.869 0.138 1.607 0.415 2.213 0.294 0.606 0.7 1.253 1.218 1.94 z" style="fill:#ff4500"/><path d="m 39.533 34.978 c -0.541 0 -0.977 -0.381 -0.977 -0.854 v -19.963 c 0 -0.473 0.436 -0.854 0.977 -0.854 h 22.827 c 0.541 0 0.977 0.381 0.977 0.854 v 19.963 c 0 0.473 -0.436 0.854 -0.977 0.854 h -22.827 z" style="stroke-dasharray:3.85222 3.85222;fill:#ffdead;stroke:#ff4500;fill-rule:evenodd;stroke-linecap:round;stroke-linejoin:round;stroke-width:3.852"/></g></svg>