<svg xmlns="http://www.w3.org/2000/svg" viewBox="0 0 256 256"><g transform="translate(0 -796.36)"><path d="m 124.4 1049.99 c -12.627 -1.365 -26.716 -5.548 -39.29 -11.664 c -42.41 -20.634 -74.826 -63.733 -83.7 -111.27 -2.025 -10.857 -1.855 -33.686 0.327 -43.874 5.306 -24.771 17.1 -44.45 36.94 -61.64 c 13.638 -11.817 31.81 -20.484 49.39 -23.558 39.912 -6.976 85.83 8.941 120.48 41.766 31.837 30.16 48.545 70.36 44.1 106.1 -2.263 18.19 -7.953 33.21 -18.832 49.715 -16.938 25.701 -47.15 46.04 -78.35 52.75 -6.673 1.435 -24.446 2.396 -31.07 1.68 z" style="fill:#fff"/><path d="m 62.824 972.63 c -1.327 -0.656 -3.272 -2.478 -4.321 -4.05 l -1.908 -2.858 l -0.216 -31.05 c -0.119 -17.08 -0.026 -31.544 0.207 -32.14 0.301 -0.779 6.974 5.376 23.26 21.454 22.782 22.491 27.346 26.317 34.37 28.813 4.718 1.676 13.903 1.706 18.524 0.06 8.126 -2.895 11.977 -6.06 35.683 -29.331 l 23.25 -22.825 l -0.208 32.817 c -0.194 30.682 -0.296 32.962 -1.566 35.04 -0.747 1.224 -2.367 2.831 -3.601 3.571 -2.143 1.287 -4.891 1.355 -61.65 1.522 -54.26 0.16 -59.62 0.072 -61.824 -1.017 z" style="fill:#ff4500"/><path d="m 114.28 956.92 c -6.114 -2.257 -11.12 -6.332 -25.763 -20.992 -7.575 -7.581 -17.906 -17.899 -22.958 -22.928 -8.374 -8.337 -9.185 -9.378 -9.185 -11.787 0 -3.204 3.443 -8.707 6.75 -10.788 2.194 -1.381 4.362 -1.431 61.54 -1.434 l 59.27 -0.003 l 2.958 2.212 c 3.423 2.559 4.257 3.927 4.891 8.02 0.443 2.86 0.317 3.105 -3.405 6.613 -2.126 2 -12.324 12.213 -22.663 22.689 -25.971 26.314 -29.738 29.02 -41.12 29.519 -5.071 0.223 -7.335 -0.023 -10.313 -1.123 z" style="fill:#ffdead"/></g></svg>