<svg xmlns="http://www.w3.org/2000/svg" viewBox="0 0 256 256"><g transform="translate(-1.204 -796.33)"><g style="fill:#fff"><path d="m 137.2 1052.18 c -0.83 -0.114 -3.659 -0.454 -6.288 -0.755 -18.213 -2.085 -39.704 -9.198 -57.969 -19.19 -33.915 -18.544 -59.32 -47.769 -67.6 -77.75 -2.557 -9.261 -2.932 -12.289 -2.942 -23.739 -0.011 -12.199 0.686 -16.897 4.02 -27.12 12.21 -37.422 49.642 -71.67 108.31 -99.09 8.888 -4.154 12.882 -5.285 23.473 -6.644 6.622 -0.85 20.09 -0.722 27.11 0.257 34.725 4.839 64.922 27.364 80.62 60.15 8.221 17.16 10.241 28.556 10.237 57.723 -0.005 33.958 -5.512 60.56 -17.17 82.919 -15.13 29.04 -40.24 47.12 -72.63 52.32 -4.773 0.766 -25.542 1.422 -29.17 0.922 z m 19.358 -64.984 c 4.769 -2.446 5.17 -4.482 4.953 -25.07 -0.162 -15.364 -0.171 -15.478 -1.402 -17.636 -0.681 -1.194 -2.04 -2.672 -3.02 -3.283 -1.76 -1.099 -2.053 -1.113 -26.18 -1.275 -26.13 -0.175 -28.441 -0.009 -30.826 2.212 -2.942 2.739 -2.928 2.624 -2.771 22.584 l 0.143 18.299 l 1.208 1.7 c 0.664 0.935 2.135 2.123 3.27 2.641 1.921 0.876 3.774 0.941 27.23 0.951 25.12 0.011 25.18 0.009 27.388 -1.125 z m -65.31 -34.36 c 0.164 -8.171 0.257 -8.886 1.452 -11.217 0.817 -1.592 2.171 -3.135 3.757 -4.278 l 2.48 -1.788 h 30.2 h 30.2 l 2.133 1.392 c 2.572 1.678 4.428 4.376 5.125 7.447 0.284 1.25 0.521 5.656 0.528 9.792 l 0.012 7.519 l 5.911 -0.262 c 4.347 -0.193 6.663 -0.55 8.755 -1.35 5.43 -2.078 9.887 -6.534 12.09 -12.09 1.083 -2.734 1.139 -3.611 1.315 -20.659 0.109 -10.551 -0.025 -19.15 -0.328 -21.1 -1.296 -8.357 -6.781 -14.773 -14.626 -17.11 -2.02 -0.6 -4.859 -0.813 -10.87 -0.813 h -8.137 l -0.281 3.729 c -0.154 2.051 -0.631 4.41 -1.061 5.243 -1.068 2.073 -3.535 4.059 -5.484 4.415 -0.891 0.163 -12.867 0.229 -26.612 0.146 -24.451 -0.146 -25.02 -0.172 -26.412 -1.206 -2.849 -2.12 -3.683 -4.02 -3.683 -8.362 v -3.966 h -8.461 c -6.06 0 -9.182 0.215 -11.01 0.759 -7.931 2.365 -13.597 8.904 -14.77 17.05 -0.626 4.339 -0.586 33.713 0.051 37.75 1.342 8.513 7.944 15.513 16.16 17.14 1.196 0.236 4.247 0.455 6.779 0.485 l 4.604 0.055 l 0.175 -8.727 z m 61.29 -54.837 c 0.955 -0.514 2.197 -1.553 2.759 -2.309 0.967 -1.3 1.03 -2.205 1.169 -16.763 0.142 -14.921 0.114 -15.447 -0.927 -17.308 -2.215 -3.957 -1.475 -3.849 -26.385 -3.849 -24.911 0 -24.17 -0.108 -26.385 3.849 -1.042 1.861 -1.07 2.389 -0.927 17.218 0.142 14.873 0.178 15.342 1.263 16.869 2.286 3.218 2.169 3.203 26.06 3.216 20.11 0.011 21.762 -0.054 23.377 -0.924 z"/><rect width="160.16" height="153.59" x="54.25" y="849.22" rx="47.974" ry="0.135" style="fill-rule:evenodd"/></g><g transform="matrix(0.39173 0 0 0.40211 207.64 760.85)"><path d="m -251.38 231.35 c -17.12 -0.299 -31.895 16.729 -28.28 33.741 2.436 25.995 19.2 47.09 32.28 68.56 1.471 7.994 -2.745 15.775 -3.03 23.71 -8.528 46.59 -21.538 92.93 -41.554 135.68 -24.767 11.402 -52.816 22.662 -67.3 47.24 -9.194 17.05 3.751 40.06 22.754 41.86 17.629 2.411 30.715 -12.696 40.35 -25.354 10.06 -13.616 16.684 -29.828 25.06 -44.46 50.666 -20.405 103.97 -34.665 158.38 -40.08 22 15.746 45.31 34.32 73.52 35.445 16.399 -0.244 29.669 -16.16 27.872 -32.33 -1.057 -14.721 -14.13 -25.04 -27.682 -27.806 -21.851 -6.582 -45.26 -2.977 -67.48 -2.818 -42.772 -34.18 -82.26 -73.5 -113.36 -118.49 2.308 -27.354 6.944 -57.61 -7.3 -82.5 -5.408 -7.849 -14.576 -13.23 -24.24 -12.383 m 0.815 24.842 c 4.816 0.929 5.136 8.102 6.485 11.938 1.269 7.818 1.13 15.796 1.038 23.692 -5.735 -10.72 -13.185 -21.919 -11.859 -34.626 1.512 -0.059 2.851 -0.826 4.336 -1 m 26.54 106.67 c 25.492 31.697 53.809 60.889 84.71 87.35 -40.748 6.214 -81.23 16.624 -120 30.669 14.869 -38.86 26.19 -79.01 33.648 -119.98 0.543 0.656 1.087 1.31 1.63 1.965 m 159.01 106.56 c 9.884 0.954 21.29 0.381 29.2 7.193 0.743 6.148 -6.779 7.05 -10.783 4.82 -8.356 -2.79 -16.623 -6.297 -23.717 -11.642 1.768 -0.109 3.529 -0.336 5.303 -0.371 m -247 64.66 c -4.7 8.742 -11.542 16.983 -18.677 23.17 -2.374 3.844 -8.891 -3.263 -5.892 -6.266 6.19 -9.69 16.999 -14.826 26.566 -20.615 -0.667 1.236 -1.332 2.472 -2 3.708" style="fill:#ffa07a;opacity:0.3"/><path d="m -263.83 217.82 c -17.12 -0.299 -31.895 16.729 -28.28 33.741 2.436 25.995 19.2 47.09 32.28 68.56 1.471 7.994 -2.745 15.775 -3.03 23.71 -8.528 46.59 -21.538 92.93 -41.554 135.68 -24.767 11.402 -52.816 22.662 -67.3 47.24 -9.194 17.05 3.751 40.06 22.754 41.86 17.629 2.411 30.715 -12.696 40.35 -25.354 10.06 -13.616 16.684 -29.828 25.06 -44.46 50.666 -20.405 103.97 -34.665 158.38 -40.08 22 15.746 45.31 34.32 73.52 35.445 16.399 -0.244 29.669 -16.16 27.872 -32.33 -1.057 -14.721 -14.13 -25.04 -27.682 -27.806 -21.851 -6.582 -45.26 -2.977 -67.48 -2.818 -42.772 -34.18 -82.26 -73.5 -113.36 -118.49 2.308 -27.354 6.944 -57.61 -7.3 -82.5 -5.408 -7.849 -14.576 -13.23 -24.24 -12.383 m 0.815 24.842 c 4.816 0.929 5.136 8.102 6.485 11.938 1.269 7.818 1.13 15.796 1.038 23.692 -5.735 -10.72 -13.185 -21.919 -11.859 -34.626 1.512 -0.059 2.851 -0.826 4.336 -1 m 26.54 106.67 c 25.492 31.697 53.809 60.889 84.71 87.35 -40.748 6.214 -81.23 16.624 -120 30.669 14.869 -38.86 26.19 -79.01 33.648 -119.98 0.543 0.656 1.087 1.31 1.63 1.965 m 159.01 106.56 c 9.884 0.954 21.29 0.381 29.2 7.193 0.743 6.148 -6.779 7.05 -10.783 4.82 -8.356 -2.79 -16.623 -6.297 -23.717 -11.642 1.768 -0.109 3.529 -0.336 5.303 -0.371 m -247 64.66 c -4.7 8.742 -11.542 16.983 -18.677 23.17 -2.374 3.844 -8.891 -3.263 -5.892 -6.266 6.19 -9.69 16.999 -14.826 26.566 -20.615 -0.667 1.236 -1.332 2.472 -2 3.708" style="fill:#ff4500"/></g></g></svg>