<svg xmlns="http://www.w3.org/2000/svg" viewBox="0 0 256 256"><defs><clipPath><path d="m -24 13 c 0 1.105 -0.672 2 -1.5 2 -0.828 0 -1.5 -0.895 -1.5 -2 0 -1.105 0.672 -2 1.5 -2 0.828 0 1.5 0.895 1.5 2 z" transform="matrix(15.33333 0 0 11.5 415 -125.5)"/></clipPath></defs><path transform="translate(0.508 2.624)" d="m 222.65 37.868 c 145.18 221.56 -251.35 307.3 -219.76 79.37 12.881 -92.96 164.23 -164.13 219.76 -79.37 z" style="fill:#fff;color:#000"/><g transform="matrix(3.0261 0 0 3.25347 46.849 27.14)" style="stroke:#ff4500;stroke-linecap:round;stroke-linejoin:round"><g style="fill:none"><g style="stroke-width:7.5"><g><path d="m 4.65,44.875 c -0.153,0 -0.276,0.123 -0.276,0.276 v 5.979 c 0,0.153 0.123,0.276 0.276,0.276 h 5.979 c 0.153,0 0.276,-0.123 0.276,-0.276 v -5.979 c 0,-0.153 -0.123,-0.276 -0.276,-0.276 H 4.65 z"/><path d="m 25.09,8.232 c -0.153,0 -0.276,0.123 -0.276,0.276 v 5.979 c 0,0.153 0.123,0.276 0.276,0.276 h 5.979 c 0.153,0 0.276,-0.123 0.276,-0.276 V 8.508 c 0,-0.153 -0.123,-0.276 -0.276,-0.276 H 25.09 z"/></g><path d="m 40.448 14.278 c -0.153 0 -0.276 0.123 -0.276 0.276 v 5.979 c 0 0.153 0.123 0.276 0.276 0.276 h 5.979 c 0.153 0 0.276 -0.123 0.276 -0.276 v -5.979 c 0 -0.153 -0.123 -0.276 -0.276 -0.276 h -5.979 z"/><path d="m 26.782 45.24 c -0.153 0 -0.276 0.123 -0.276 0.276 v 5.979 c 0 0.153 0.123 0.276 0.276 0.276 h 5.979 c 0.153 0 0.276 -0.123 0.276 -0.276 v -5.979 c 0 -0.153 -0.123 -0.276 -0.276 -0.276 h -5.979 z"/></g><path d="M 7.801,47.41 28.574,11.43 29.171,49.6 54.381,39.737 43.611,17.271" style="stroke-width:5"/></g><g style="fill:#ffe4c4;fill-rule:evenodd"><g style="stroke-width:2.63"><path d="m 2.072 44.48 c -0.161 0 -0.29 0.13 -0.29 0.29 v 6.29 c 0 0.161 0.13 0.29 0.29 0.29 h 6.29 c 0.161 0 0.29 -0.13 0.29 -0.29 v -6.29 c 0 -0.161 -0.13 -0.29 -0.29 -0.29 h -6.29 z" transform="matrix(0.95045 0 0 0.95045 2.681 2.602)"/><path d="m 1.436 44.09 c -0.161 0 -0.29 0.13 -0.29 0.29 v 6.29 c 0 0.161 0.13 0.29 0.29 0.29 h 6.29 c 0.161 0 0.29 -0.13 0.29 -0.29 v -6.29 c 0 -0.161 -0.13 -0.29 -0.29 -0.29 h -6.29 z" transform="matrix(0.95045 0 0 0.95045 23.724 -33.678)"/></g><path d="m 40.448 14.278 c -0.153 0 -0.276 0.123 -0.276 0.276 v 5.979 c 0 0.153 0.123 0.276 0.276 0.276 h 5.979 c 0.153 0 0.276 -0.123 0.276 -0.276 v -5.979 c 0 -0.153 -0.123 -0.276 -0.276 -0.276 h -5.979 z" style="stroke-width:2.5"/><path d="m 44.952 13.812 c -0.161 0 -0.29 0.13 -0.29 0.29 v 6.29 c 0 0.161 0.13 0.29 0.29 0.29 h 6.29 c 0.161 0 0.29 -0.13 0.29 -0.29 v -6.29 c 0 -0.161 -0.13 -0.29 -0.29 -0.29 h -6.29 z" transform="matrix(0.95045 0 0 0.95045 -15.943 32.11)" style="stroke-width:2.63"/></g></g></svg>