<?xml version="1.0" encoding="UTF-8" standalone="no"?>
<svg
   xmlns:dc="http://purl.org/dc/elements/1.1/"
   xmlns:cc="http://creativecommons.org/ns#"
   xmlns:rdf="http://www.w3.org/1999/02/22-rdf-syntax-ns#"
   xmlns:svg="http://www.w3.org/2000/svg"
   xmlns="http://www.w3.org/2000/svg"
   xmlns:sodipodi="http://sodipodi.sourceforge.net/DTD/sodipodi-0.dtd"
   xmlns:inkscape="http://www.inkscape.org/namespaces/inkscape"
   viewBox="0 0 256 256"
   id="svg2"
   version="1.1"
   inkscape:version="0.48.4 r9939"
   width="100%"
   height="100%"
   sodipodi:docname="prevmarked.svg">
  <metadata
     id="metadata28">
    <rdf:RDF>
      <cc:Work
         rdf:about="">
        <dc:format>image/svg+xml</dc:format>
        <dc:type
           rdf:resource="http://purl.org/dc/dcmitype/StillImage" />
      </cc:Work>
    </rdf:RDF>
  </metadata>
  <defs
     id="defs26" />
  <sodipodi:namedview
     pagecolor="#ffffff"
     bordercolor="#666666"
     borderopacity="1"
     objecttolerance="10"
     gridtolerance="10"
     guidetolerance="10"
     inkscape:pageopacity="0"
     inkscape:pageshadow="2"
     inkscape:window-width="644"
     inkscape:window-height="496"
     id="namedview24"
     showgrid="false"
     inkscape:zoom="0.921875"
     inkscape:cx="128"
     inkscape:cy="128"
     inkscape:window-x="0"
     inkscape:window-y="24"
     inkscape:window-maximized="0"
     inkscape:current-layer="g4" />
  <g
     transform="matrix(-0.99576 0 0 1 255.99 0.544)"
     id="g4"
     style="fill:#f5f5f5">
    <path
       d="m 130.25 3.273 c 111.92 -22.256 154.42 130.4 105.92 213.29 -38.644 66.05 -171.02 47.17 -220.37 -41.992 -49.35 -89.16 24.617 -153.44 114.45 -171.3 z"
       style="fill:#ffffff;color:#000"
       id="path6" />
    <g
       style="stroke:#ff4500;fill-rule:evenodd;stroke-linejoin:round;fill:#ffe4c4"
       id="g8">
      <path
         d="m 10.839 44.487 l 21.03 -16.251 l -21.03 -16.251 v 32.502 z"
         transform="matrix(2.53951 0 0 3.0024 45.747 42.937)"
         style="fill:#ffe4c4;stroke-linecap:round;stroke-width:5;stroke:#ff4500"
         id="path10" />
      <g
         transform="matrix(-2.33539 -1.18315 -1.1169 2.47391 299.41 112.02)"
         style="fill:#ffe4c4;stroke:#ff4500"
         id="g12">
        <g
           style="stroke-linecap:round;stroke-width:3.40799999999999992;fill:#ffe4c4;stroke:#ff4500"
           id="g14">
          <path
             d="m 48.1 30.863 c -12.897 9.383 -12.897 9.383 -12.897 9.383 l 7.947 -13.818 l 4.95 4.434 z"
             transform="matrix(0.78996 0 0 0.78996 -7.51 11.841)"
             id="path16"
             style="fill:#ffe4c4;stroke:#ff4500" />
          <path
             transform="matrix(-0.58589 -0.52987 0.52987 -0.58589 -7.51 11.841)"
             d="m -56.33 9.387 h 6.546 v 47.13 h -6.546 z"
             id="path18"
             style="fill:#ffe4c4;stroke:#ff4500" />
        </g>
        <path
           transform="matrix(-0.79329 -0.71743 0.71743 -0.79329 58.06 99.66)"
           d="m 61.966 18.726 c 0 0.342 -0.278 0.62 -0.62 0.62 -0.342 0 -0.62 -0.278 -0.62 -0.62 0 -0.342 0.278 -0.62 0.62 -0.62 0.342 0 0.62 0.278 0.62 0.62 z"
           style="stroke-width:2.51699999999999990;fill:#ffe4c4;stroke:#ff4500"
           id="path20" />
        <path
           d="m -54.664 56.37 c -1.14 0 -2.058 0.905 -2.058 2.029 0 1.124 0.918 2.029 2.058 2.029 h 3.347 c 1.14 0 2.058 -0.905 2.058 -2.029 0 -1.124 -0.918 -2.029 -2.058 -2.029 h -3.347 z"
           transform="matrix(-0.58589 -0.52987 0.52987 -0.58589 -7.51 11.841)"
           style="stroke-width:3.40799999999999992;fill:#ffe4c4;stroke:#ff4500"
           id="path22" />
      </g>
    </g>
  </g>
</svg>
