<?xml version="1.0" encoding="UTF-8" standalone="no"?>
<svg
   xmlns:dc="http://purl.org/dc/elements/1.1/"
   xmlns:cc="http://creativecommons.org/ns#"
   xmlns:rdf="http://www.w3.org/1999/02/22-rdf-syntax-ns#"
   xmlns:svg="http://www.w3.org/2000/svg"
   xmlns="http://www.w3.org/2000/svg"
   xmlns:sodipodi="http://sodipodi.sourceforge.net/DTD/sodipodi-0.dtd"
   xmlns:inkscape="http://www.inkscape.org/namespaces/inkscape"
   viewBox="0 0 256 256"
   id="svg2"
   version="1.1"
   inkscape:version="0.48.4 r9939"
   width="100%"
   height="100%"
   sodipodi:docname="prevtemplate.svg">
  <metadata
     id="metadata18">
    <rdf:RDF>
      <cc:Work
         rdf:about="">
        <dc:format>image/svg+xml</dc:format>
        <dc:type
           rdf:resource="http://purl.org/dc/dcmitype/StillImage" />
      </cc:Work>
    </rdf:RDF>
  </metadata>
  <defs
     id="defs16" />
  <sodipodi:namedview
     pagecolor="#ffffff"
     bordercolor="#666666"
     borderopacity="1"
     objecttolerance="10"
     gridtolerance="10"
     guidetolerance="10"
     inkscape:pageopacity="0"
     inkscape:pageshadow="2"
     inkscape:window-width="644"
     inkscape:window-height="496"
     id="namedview14"
     showgrid="false"
     inkscape:zoom="0.921875"
     inkscape:cx="128"
     inkscape:cy="128"
     inkscape:window-x="0"
     inkscape:window-y="24"
     inkscape:window-maximized="0"
     inkscape:current-layer="g8" />
  <g
     transform="matrix(-0.99576 0 0 0.99149 255.99 1.638)"
     id="g4"
     style="fill:#f5f5f5">
    <path
       d="m 125.73 3.273 c -111.92 -22.256 -154.42 130.4 -105.92 213.29 38.644 66.05 171.02 47.17 220.37 -41.992 49.35 -89.16 -24.617 -153.44 -114.45 -171.3 z"
       style="fill:#ffffff;color:#000"
       id="path6" />
    <g
       style="stroke:#ff4500;stroke-linejoin:round;fill:#f5f5f5"
       id="g8">
      <path
         d="m 10.839 44.487 l 21.03 -16.251 l -21.03 -16.251 v 32.502 z"
         transform="matrix(2.53951 0 0 3.0024 28.506 41.923)"
         style="fill:#ffe4c4;fill-rule:evenodd;stroke-linecap:round;stroke-width:5;stroke:#ff4500"
         id="path10" />
      <path
         d="m 41.916 6.33 c 0.813 0 1.559 0.139 2.237 0.418 0.705 0.279 1.261 0.725 1.667 1.338 0.407 0.585 0.61 1.338 0.61 2.257 0 0.697 -0.108 1.644 -0.325 2.843 -0.217 1.17 -0.366 2.062 -0.447 2.675 0.868 -0.613 1.64 -1.184 2.318 -1.714 0.705 -0.557 1.383 -0.989 2.033 -1.296 0.651 -0.334 1.288 -0.502 1.911 -0.502 1.274 0 2.345 0.502 3.213 1.505 0.868 1 1.301 2.174 1.301 3.511 0 0.948 -0.352 1.742 -1.057 2.383 -0.705 0.641 -1.844 1.296 -3.416 1.965 -1.572 0.641 -2.413 0.989 -2.521 1.045 0.108 0.056 0.949 0.418 2.521 1.087 1.6 0.669 2.738 1.31 3.416 1.923 0.705 0.585 1.057 1.352 1.057 2.299 0 1.366 -0.434 2.564 -1.301 3.595 -0.868 1.031 -1.938 1.547 -3.213 1.547 -0.868 0 -1.857 -0.39 -2.969 -1.17 -1.112 -0.78 -2.21 -1.561 -3.294 -2.341 0.136 0.892 0.298 1.839 0.488 2.843 0.19 1 0.285 1.853 0.285 2.55 0 1.393 -0.434 2.438 -1.301 3.135 -0.84 0.669 -1.911 1 -3.213 1 -1.274 0 -2.345 -0.334 -3.213 -1 -0.84 -0.697 -1.261 -1.742 -1.261 -3.135 0 -0.446 0.108 -1.282 0.325 -2.508 0.217 -1.226 0.352 -2.188 0.407 -2.884 -1.437 1.031 -2.386 1.728 -2.847 2.09 -0.461 0.334 -1.017 0.655 -1.667 0.961 -0.624 0.307 -1.22 0.46 -1.789 0.46 -1.301 0 -2.359 -0.502 -3.172 -1.505 -0.786 -1 -1.179 -2.216 -1.179 -3.637 0 -1 0.339 -1.798 1.017 -2.383 0.678 -0.585 1.776 -1.184 3.294 -1.798 1.518 -0.641 2.386 -1.017 2.603 -1.129 -0.217 -0.111 -1.084 -0.474 -2.603 -1.087 -1.491 -0.641 -2.589 -1.268 -3.294 -1.881 -0.678 -0.641 -1.017 -1.449 -1.017 -2.425 0 -1.366 0.393 -2.536 1.179 -3.511 0.813 -1 1.871 -1.505 3.172 -1.505 0.813 0 1.559 0.223 2.237 0.669 0.705 0.446 2.06 1.393 4.067 2.843 -0.054 -0.613 -0.19 -1.575 -0.407 -2.884 -0.217 -1.31 -0.325 -2.188 -0.325 -2.634 0 -1.393 0.42 -2.411 1.261 -3.052 0.868 -0.641 1.938 -0.961 3.213 -0.961 z"
         transform="matrix(2.39074 0 0 2.20419 78.14 80.03)"
         style="fill:#ffffff;stroke-width:5.83199999999999985;stroke:#ff4500"
         id="path12" />
    </g>
  </g>
</svg>
