<?xml version="1.0" encoding="UTF-8" standalone="no"?>
<svg
   xmlns:dc="http://purl.org/dc/elements/1.1/"
   xmlns:cc="http://creativecommons.org/ns#"
   xmlns:rdf="http://www.w3.org/1999/02/22-rdf-syntax-ns#"
   xmlns:svg="http://www.w3.org/2000/svg"
   xmlns="http://www.w3.org/2000/svg"
   xmlns:sodipodi="http://sodipodi.sourceforge.net/DTD/sodipodi-0.dtd"
   xmlns:inkscape="http://www.inkscape.org/namespaces/inkscape"
   viewBox="0 0 256 256"
   id="svg2"
   version="1.1"
   inkscape:version="0.48.4 r9939"
   width="100%"
   height="100%"
   sodipodi:docname="raindrop.svg">
  <metadata
     id="metadata30">
    <rdf:RDF>
      <cc:Work
         rdf:about="">
        <dc:format>image/svg+xml</dc:format>
        <dc:type
           rdf:resource="http://purl.org/dc/dcmitype/StillImage" />
      </cc:Work>
    </rdf:RDF>
  </metadata>
  <defs
     id="defs28" />
  <sodipodi:namedview
     pagecolor="#ffffff"
     bordercolor="#666666"
     borderopacity="1"
     objecttolerance="10"
     gridtolerance="10"
     guidetolerance="10"
     inkscape:pageopacity="0"
     inkscape:pageshadow="2"
     inkscape:window-width="644"
     inkscape:window-height="496"
     id="namedview26"
     showgrid="false"
     inkscape:zoom="0.921875"
     inkscape:cx="128"
     inkscape:cy="128"
     inkscape:window-x="0"
     inkscape:window-y="24"
     inkscape:window-maximized="0"
     inkscape:current-layer="svg2" />
  <path
     d="M 131.84947,2.2586409 C 242.4013,-20.08194 284.38176,133.1476 236.47465,216.35879 198.30305,282.65787 67.545276,263.70671 18.798552,174.20845 -29.948171,84.710189 43.114623,20.190278 131.84947,2.2586409 z"
     style="color:#000000;fill:#ffffff"
     id="path4"
     inkscape:connector-curvature="0" />
  <g
     transform="matrix(2.8773418,0,0,2.553819,46.257466,75.29458)"
     style="fill:#ff4500;stroke:#ffffff;stroke-linecap:round;stroke-linejoin:round"
     id="g6">
    <g
       transform="matrix(1,0,-0.4661,1,18.06,4.499)"
       style="stroke:#ff4500;stroke-width:3.25399995;stroke-dasharray:13.017, 6.50848, 3.25424, 6.50848"
       id="g8">
      <path
         d="M 9.357,30.669 28.791,50.103"
         id="path10"
         style="stroke:#ff4500"
         inkscape:connector-curvature="0" />
      <path
         d="M 9.177,22.21 37.788,50.821"
         id="path12"
         style="stroke:#ff4500"
         inkscape:connector-curvature="0" />
      <path
         d="m 11.337,15.913 36.35,36.35"
         id="path14"
         style="stroke:#ff4500"
         inkscape:connector-curvature="0" />
      <path
         d="m 13.676,9.795 41.12,41.12"
         id="path16"
         style="stroke:#ff4500"
         inkscape:connector-curvature="0" />
    </g>
    <path
       transform="translate(1.26,1.979)"
       d="m 2.531,2.063 v 20.625 c 0.272,0.173 0.499,0.406 0.781,0.563 1.764,4.642 6.148,7.938 11.406,7.938 4.692,0 8.641,-2.698 10.719,-6.563 1.043,0.396 2.193,0.656 3.375,0.656 1.219,0 2.336,-0.267 3.406,-0.688 2.349,2.644 5.656,4.375 9.469,4.375 7.078,0 12.844,-5.766 12.844,-12.844 C 54.531,9.636 49.632,4.505 43.375,3.656 43.272,3.086 42.991,2.602 42.812,2.062 H 2.532 z"
       style="fill-rule:evenodd;stroke-width:2.60299993"
       id="path18"
       inkscape:connector-curvature="0" />
    <path
       d="m 3.791,24.667 c 0.272,0.173 0.499,0.406 0.781,0.563 1.764,4.642 6.148,7.938 11.406,7.938 4.692,0 8.641,-2.698 10.719,-6.563 1.043,0.396 2.193,0.656 3.375,0.656 1.219,0 2.336,-0.267 3.406,-0.688 2.349,2.644 5.656,4.375 9.469,4.375 7.078,0 12.844,-5.766 12.844,-12.844 0,-6.489 -4.899,-11.62 -11.156,-12.469 -0.103,-0.57 -0.384,-1.054 -0.563,-1.594"
       style="stroke-width:3.25399995"
       id="path20"
       inkscape:connector-curvature="0" />
    <path
       d="M 44.607444,3.6115113 C 44.360622,3.3905914 44.155089,3.0913561 43.898173,2.8903074 42.297037,-3.0640081 38.316677,-7.290707 33.541713,-7.290707 c -4.260216,0 -7.845109,3.4599085 -9.732522,8.4171624 -0.946918,-0.50846627 -1.991098,-0.84159935 -3.06464,-0.84159935 -1.106573,0 -2.120473,0.34248418 -3.093083,0.88134145 -2.133318,-3.3921129 -5.135564,-5.611831 -8.5975045,-5.611831 -6.4228958,0 -11.6612261,7.3955541 -11.6612261,16.4696315 0,8.322482 4.448314,14.903322 10.1298242,15.991558 0.093591,0.730555 0.3486715,1.352402 0.511079,2.044385"
       style="stroke-width:3.51180744"
       id="path22"
       inkscape:connector-curvature="0" />
    <path
       d="M 39.13,18.539 56.547,53.288"
       style="fill:#ff4500;stroke:#ff4500;stroke-width:3.25399995;stroke-dasharray:13.017, 6.50848, 3.25424, 6.50848"
       id="path24"
       inkscape:connector-curvature="0" />
  </g>
</svg>
