<?xml version="1.0" encoding="UTF-8" standalone="no"?>
<svg
   xmlns:dc="http://purl.org/dc/elements/1.1/"
   xmlns:cc="http://creativecommons.org/ns#"
   xmlns:rdf="http://www.w3.org/1999/02/22-rdf-syntax-ns#"
   xmlns:svg="http://www.w3.org/2000/svg"
   xmlns="http://www.w3.org/2000/svg"
   xmlns:xlink="http://www.w3.org/1999/xlink"
   xmlns:sodipodi="http://sodipodi.sourceforge.net/DTD/sodipodi-0.dtd"
   xmlns:inkscape="http://www.inkscape.org/namespaces/inkscape"
   viewBox="0 0 256 256"
   id="svg2"
   version="1.1"
   inkscape:version="0.48.4 r9939"
   width="100%"
   height="100%"
   sodipodi:docname="raise.svg">
  <metadata
     id="metadata41">
    <rdf:RDF>
      <cc:Work
         rdf:about="">
        <dc:format>image/svg+xml</dc:format>
        <dc:type
           rdf:resource="http://purl.org/dc/dcmitype/StillImage" />
      </cc:Work>
    </rdf:RDF>
  </metadata>
  <sodipodi:namedview
     pagecolor="#ffffff"
     bordercolor="#666666"
     borderopacity="1"
     objecttolerance="10"
     gridtolerance="10"
     guidetolerance="10"
     inkscape:pageopacity="0"
     inkscape:pageshadow="2"
     inkscape:window-width="644"
     inkscape:window-height="496"
     id="namedview39"
     showgrid="false"
     inkscape:zoom="0.921875"
     inkscape:cx="128"
     inkscape:cy="128"
     inkscape:window-x="0"
     inkscape:window-y="24"
     inkscape:window-maximized="0"
     inkscape:current-layer="svg2" />
  <defs
     id="defs4">
    <path
       d="m 153.54 78.21 c 0 12.274 -9.95 22.22 -22.22 22.22 -12.274 0 -22.22 -9.95 -22.22 -22.22 0 -12.274 9.95 -22.22 22.22 -22.22 12.274 0 22.22 9.95 22.22 22.22 z"
       id="0"
       style="fill:#ff4500;color:#000" />
    <use
       xlink:href="#0"
       id="1" />
    <path
       id="2"
       d="m 40.912 36.911 h 20.802 c 1.507 0 2.721 1.214 2.721 2.721 v 20.802 c 0 1.507 -1.214 2.721 -2.721 2.721 h -20.802 c -1.507 0 -2.721 -1.214 -2.721 -2.721 v -20.802 c 0 -1.507 1.214 -2.721 2.721 -2.721 z"
       style="color:#000;stroke-linecap:round;stroke-linejoin:round" />
  </defs>
  <g
     transform="matrix(0.98729 0 0 0.99573 1.888 -1.729)"
     id="g9"
     style="fill:#ffffff">
    <use
       height="1"
       width="1"
       transform="translate(15.781 13.13)"
       xlink:href="#1"
       id="use11"
       style="fill:#ffffff" />
    <use
       height="1"
       width="1"
       transform="translate(18.424 91.18)"
       xlink:href="#1"
       id="use13"
       style="fill:#ffffff" />
    <use
       height="1"
       width="1"
       transform="translate(-66.794 48.49)"
       xlink:href="#1"
       id="use15"
       style="fill:#ffffff" />
    <path
       d="m 20.935 850.74 c -127.95 190.94 280.09 308.54 226.07 61.711 -23.02 -102.01 -167.39 -163.91 -226.07 -61.711 z"
       transform="translate(4.323 -795.63)"
       style="fill:#ffffff;color:#000"
       id="path17" />
  </g>
  <g
     transform="matrix(2.5313613,0,0,2.5333118,54.770364,56.879149)"
     id="g19"
     style="stroke:#ff4500">
    <g
       transform="matrix(0.66692,0,0,0.66692,11.403,12.256)"
       id="g21"
       style="stroke:#ff4500">
      <use
         xlink:href="#2"
         style="fill:none;stroke:#ff4500;stroke-width:14.99400043"
         id="use23"
         x="0"
         y="0"
         width="256"
         height="256" />
      <use
         xlink:href="#2"
         style="fill:#ff4500;fill-rule:evenodd;stroke:#ff4500;stroke-width:7.49700022"
         id="use25"
         x="0"
         y="0"
         width="256"
         height="256" />
    </g>
    <g
       transform="matrix(0.66692,0,0,0.66692,-19.845,-18.992)"
       id="g27"
       style="stroke:#ff4500">
      <use
         xlink:href="#2"
         style="fill:none;stroke:#ff4500;stroke-width:14.99400043"
         id="use29"
         x="0"
         y="0"
         width="256"
         height="256" />
      <use
         xlink:href="#2"
         style="fill:#ff4500;fill-rule:evenodd;stroke:#ff4500;stroke-width:7.49700022"
         id="use31"
         x="0"
         y="0"
         width="256"
         height="256" />
    </g>
    <g
       transform="matrix(0.79593,0,0,0.79593,3.087,4.106)"
       style="color:#000000;stroke:#ff4500;stroke-linecap:round;stroke-linejoin:round"
       id="g33">
      <path
         d="m 23.412,19.411 h 20.802 c 1.507,0 2.721,1.214 2.721,2.721 v 20.802 c 0,1.507 -1.214,2.721 -2.721,2.721 H 23.412 c -1.507,0 -2.721,-1.214 -2.721,-2.721 V 22.132 c 0,-1.507 1.214,-2.721 2.721,-2.721 z"
         style="fill:none;stroke:#ff4500;stroke-width:12.56400013"
         id="path35"
         inkscape:connector-curvature="0" />
      <path
         d="m 23.412,19.411 h 20.802 c 1.507,0 2.721,1.214 2.721,2.721 v 20.802 c 0,1.507 -1.214,2.721 -2.721,2.721 H 23.412 c -1.507,0 -2.721,-1.214 -2.721,-2.721 V 22.132 c 0,-1.507 1.214,-2.721 2.721,-2.721 z"
         style="fill:#ffffff;fill-rule:evenodd;stroke:#ff4500;stroke-width:6.28200006"
         id="path37"
         inkscape:connector-curvature="0" />
    </g>
  </g>
</svg>
