<?xml version="1.0" encoding="UTF-8" standalone="no"?>
<svg
   xmlns:dc="http://purl.org/dc/elements/1.1/"
   xmlns:cc="http://creativecommons.org/ns#"
   xmlns:rdf="http://www.w3.org/1999/02/22-rdf-syntax-ns#"
   xmlns:svg="http://www.w3.org/2000/svg"
   xmlns="http://www.w3.org/2000/svg"
   xmlns:sodipodi="http://sodipodi.sourceforge.net/DTD/sodipodi-0.dtd"
   xmlns:inkscape="http://www.inkscape.org/namespaces/inkscape"
   viewBox="0 0 256 256"
   id="svg2"
   version="1.1"
   inkscape:version="0.48.4 r9939"
   width="100%"
   height="100%"
   sodipodi:docname="random.svg">
  <metadata
     id="metadata30">
    <rdf:RDF>
      <cc:Work
         rdf:about="">
        <dc:format>image/svg+xml</dc:format>
        <dc:type
           rdf:resource="http://purl.org/dc/dcmitype/StillImage" />
      </cc:Work>
    </rdf:RDF>
  </metadata>
  <defs
     id="defs28" />
  <sodipodi:namedview
     pagecolor="#ffffff"
     bordercolor="#666666"
     borderopacity="1"
     objecttolerance="10"
     gridtolerance="10"
     guidetolerance="10"
     inkscape:pageopacity="0"
     inkscape:pageshadow="2"
     inkscape:window-width="644"
     inkscape:window-height="496"
     id="namedview26"
     showgrid="false"
     inkscape:zoom="0.921875"
     inkscape:cx="128"
     inkscape:cy="128"
     inkscape:window-x="0"
     inkscape:window-y="24"
     inkscape:window-maximized="0"
     inkscape:current-layer="svg2" />
  <path
     d="m 193.89 31.801 c 226.71 210.75 -241.2 343.53 -189.6 63.746 25.452 -73.816 116.81 -131.42 189.6 -63.746 z"
     style="fill:#ffffff;color:#000"
     id="path4" />
  <g
     transform="matrix(2.91088 0 0 2.90381 37.419 30.581)"
     style="fill:#ffe4c4;stroke:#ff4500"
     id="g6">
    <path
       d="m 33.749 35.773 c 0 2.07 -1.68 3.749 -3.749 3.749 -2.07 0 -3.749 -1.68 -3.749 -3.749 0 -2.07 1.68 -3.749 3.749 -3.749 2.07 0 3.749 1.68 3.749 3.749 z"
       style="stroke-linejoin:round;stroke-width:7.50000000000000000;fill:#ffe4c4;stroke:#ff4500"
       id="path8" />
    <path
       d="m 30 33.478 v -25.793"
       style="stroke-width:5;fill:#ffe4c4;stroke:#ff4500"
       id="path10" />
    <path
       d="m 42.09 16.1 l -12.09 -10.957 l -12.09 10.957 h 24.18 z"
       style="fill-rule:evenodd;stroke-linecap:round;stroke-linejoin:round;stroke-width:2.50000000000000000;fill:#ffe4c4;stroke:#ff4500"
       id="path12" />
    <path
       d="m 28.917 35.701 l -22.337 12.897"
       style="stroke-width:5;fill:#ffe4c4;stroke:#ff4500"
       id="path14" />
    <path
       d="m 7.82 33.923 l -3.445 15.948 l 15.534 4.991 l -12.09 -20.939 z"
       style="fill-rule:evenodd;stroke-linecap:round;stroke-linejoin:round;stroke-width:2.50000000000000000;fill:#ffe4c4;stroke:#ff4500"
       id="path16" />
    <path
       d="m 31.08 35.701 l 22.337 12.897"
       style="stroke-width:5;fill:#ffe4c4;stroke:#ff4500"
       id="path18" />
    <g
       style="fill-rule:evenodd;stroke-linecap:round;stroke-linejoin:round;stroke-width:2.50000000000000000;fill:#ffe4c4;stroke:#ff4500"
       id="g20">
      <path
         d="m 40.09 54.862 l 15.534 -4.991 l -3.445 -15.948 l -12.09 20.939 z"
         id="path22"
         style="fill:#ffe4c4;stroke:#ff4500" />
      <path
         d="m 33.749 35.773 c 0 2.07 -1.68 3.749 -3.749 3.749 -2.07 0 -3.749 -1.68 -3.749 -3.749 0 -2.07 1.68 -3.749 3.749 -3.749 2.07 0 3.749 1.68 3.749 3.749 z"
         id="path24"
         style="fill:#ffe4c4;stroke:#ff4500" />
    </g>
  </g>
</svg>
