<?xml version="1.0" encoding="UTF-8" standalone="no"?>
<svg
   xmlns:dc="http://purl.org/dc/elements/1.1/"
   xmlns:cc="http://creativecommons.org/ns#"
   xmlns:rdf="http://www.w3.org/1999/02/22-rdf-syntax-ns#"
   xmlns:svg="http://www.w3.org/2000/svg"
   xmlns="http://www.w3.org/2000/svg"
   xmlns:xlink="http://www.w3.org/1999/xlink"
   xmlns:sodipodi="http://sodipodi.sourceforge.net/DTD/sodipodi-0.dtd"
   xmlns:inkscape="http://www.inkscape.org/namespaces/inkscape"
   viewBox="0 0 256 256"
   id="svg2"
   version="1.1"
   inkscape:version="0.48.4 r9939"
   width="100%"
   height="100%"
   sodipodi:docname="remrow.svg">
  <metadata
     id="metadata29">
    <rdf:RDF>
      <cc:Work
         rdf:about="">
        <dc:format>image/svg+xml</dc:format>
        <dc:type
           rdf:resource="http://purl.org/dc/dcmitype/StillImage" />
      </cc:Work>
    </rdf:RDF>
  </metadata>
  <sodipodi:namedview
     pagecolor="#ffffff"
     bordercolor="#666666"
     borderopacity="1"
     objecttolerance="10"
     gridtolerance="10"
     guidetolerance="10"
     inkscape:pageopacity="0"
     inkscape:pageshadow="2"
     inkscape:window-width="644"
     inkscape:window-height="496"
     id="namedview27"
     showgrid="false"
     inkscape:zoom="0.921875"
     inkscape:cx="128"
     inkscape:cy="128"
     inkscape:window-x="0"
     inkscape:window-y="24"
     inkscape:window-maximized="0"
     inkscape:current-layer="svg2" />
  <defs
     id="defs4">
    <path
       id="0"
       d="m 153.54 78.21 c 0 12.274 -9.95 22.22 -22.22 22.22 -12.274 0 -22.22 -9.95 -22.22 -22.22 0 -12.274 9.95 -22.22 22.22 -22.22 12.274 0 22.22 9.95 22.22 22.22 z"
       style="fill:#ff4500;color:#000" />
  </defs>
  <use
     transform="matrix(0 -1 1 0 68.891 222.66)"
     xlink:href="#0"
     width="256"
     height="256"
     id="use7" />
  <use
     transform="matrix(0 -1 1 0 71.53 300.71)"
     xlink:href="#0"
     width="256"
     height="256"
     id="use9" />
  <use
     transform="matrix(0 -1 1 0 -13.684 258.02)"
     xlink:href="#0"
     width="256"
     height="256"
     id="use11" />
  <path
     d="m 31.87 62.61 c 210.75 -226.71 343.53 241.2 63.746 189.6 -73.816 -25.452 -131.42 -116.81 -63.746 -189.6 z"
     style="fill:#ffffff;color:#000"
     id="path13" />
  <g
     transform="matrix(0 -2.96005 2.74916 0 56 209.48)"
     style="fill:#ffdead;stroke:#ff4500"
     id="g15">
    <path
       d="m 5.783 3.137 h 9.309 c 1.309 0 2.364 1.054 2.364 2.364 v 49.26 c 0 1.309 -1.054 2.364 -2.364 2.364 h -9.309 c -1.309 0 -2.364 -1.054 -2.364 -2.364 v -49.26 c 0 -1.309 1.054 -2.364 2.364 -2.364 z"
       transform="matrix(1 0 0 0.93779 1.917 1.745)"
       style="fill-rule:evenodd;stroke-linecap:round;stroke-linejoin:round;stroke-width:3.22699999999999987;stroke:#ff4500"
       id="path17" />
    <path
       transform="matrix(0 7.0117 -5.67198 0 68.847 -12.669)"
       d="m 4.691 3.847 h 2.83 c 0.25 0 0.443 0.074 0.58 0.223 0.141 0.145 0.211 0.334 0.211 0.568 0 0.242 -0.07 0.438 -0.211 0.586 c -0.141 0.148 -0.334 0.223 -0.58 0.223 h -2.83 c -0.246 0 -0.441 -0.072 -0.586 -0.217 -0.141 -0.148 -0.211 -0.346 -0.211 -0.592 0 -0.238 0.07 -0.43 0.211 -0.574 0.141 -0.145 0.336 -0.217 0.586 -0.217 z"
       id="path19"
       style="stroke:#ff4500" />
    <g
       style="stroke-dasharray:1.87500000000000000 1.87500000000000000;stroke-linecap:round;stroke-linejoin:round;stroke-width:1.87500000000000000;stroke:#ff4500"
       id="g21">
      <path
         d="m 5.853 21.667 h 12.215"
         id="path23"
         style="stroke:#ff4500" />
      <path
         d="m 5.853 38.33 h 12.215"
         id="path25"
         style="stroke:#ff4500" />
    </g>
  </g>
</svg>
