<?xml version="1.0" encoding="UTF-8" standalone="no"?>
<svg
   xmlns:dc="http://purl.org/dc/elements/1.1/"
   xmlns:cc="http://creativecommons.org/ns#"
   xmlns:rdf="http://www.w3.org/1999/02/22-rdf-syntax-ns#"
   xmlns:svg="http://www.w3.org/2000/svg"
   xmlns="http://www.w3.org/2000/svg"
   xmlns:sodipodi="http://sodipodi.sourceforge.net/DTD/sodipodi-0.dtd"
   xmlns:inkscape="http://www.inkscape.org/namespaces/inkscape"
   viewBox="0 0 256 256"
   id="svg2"
   version="1.1"
   inkscape:version="0.48.4 r9939"
   width="100%"
   height="100%"
   sodipodi:docname="repeat_playlist.svg">
  <metadata
     id="metadata16">
    <rdf:RDF>
      <cc:Work
         rdf:about="">
        <dc:format>image/svg+xml</dc:format>
        <dc:type
           rdf:resource="http://purl.org/dc/dcmitype/StillImage" />
      </cc:Work>
    </rdf:RDF>
  </metadata>
  <defs
     id="defs14" />
  <sodipodi:namedview
     pagecolor="#ffffff"
     bordercolor="#666666"
     borderopacity="1"
     objecttolerance="10"
     gridtolerance="10"
     guidetolerance="10"
     inkscape:pageopacity="0"
     inkscape:pageshadow="2"
     inkscape:window-width="644"
     inkscape:window-height="496"
     id="namedview12"
     showgrid="false"
     inkscape:zoom="0.921875"
     inkscape:cx="128"
     inkscape:cy="128"
     inkscape:window-x="0"
     inkscape:window-y="24"
     inkscape:window-maximized="0"
     inkscape:current-layer="g6" />
  <path
     d="m 60.17 229.64 c 130.93 92.05 263.6 -77.948 156.91 -186.39 -100.51 -102.17 -256.68 -7.449 -207.86 119.69 10.185 26.526 26.914 49.802 50.948 66.7 z"
     style="fill:#ffffff;color:#000"
     id="path4" />
  <g
     transform="matrix(3.13734 0 0 -3.82254 29.977 248.24)"
     style="stroke:#fff;stroke-linejoin:round"
     id="g6">
    <path
       d="m 20.244 22.932 c -7.888 0 -14.239 4.911 -14.239 11.01 0 6.1 6.351 11.01 14.239 11.01 h 20.271 c 7.888 0 14.239 -4.911 14.239 -11.01 0 -6.1 -6.351 -11.01 -14.239 -11.01 h -20.271 z"
       style="fill:none;stroke-width:5;stroke:#ff4500"
       id="path8" />
    <path
       d="m 34.473 13.646 l -9.03 10 l 9.03 10 v -20 z"
       transform="matrix(1.24075 0 0 1.11216 -7.582 -3.133)"
       style="fill:#ffe4c4;fill-rule:evenodd;stroke-linecap:round;stroke-width:2.50000000000000000;stroke:#ff4500"
       id="path10" />
  </g>
</svg>
