<?xml version="1.0" encoding="UTF-8" standalone="no"?>
<svg
   xmlns:dc="http://purl.org/dc/elements/1.1/"
   xmlns:cc="http://creativecommons.org/ns#"
   xmlns:rdf="http://www.w3.org/1999/02/22-rdf-syntax-ns#"
   xmlns:svg="http://www.w3.org/2000/svg"
   xmlns="http://www.w3.org/2000/svg"
   xmlns:sodipodi="http://sodipodi.sourceforge.net/DTD/sodipodi-0.dtd"
   xmlns:inkscape="http://www.inkscape.org/namespaces/inkscape"
   viewBox="0 0 256 256"
   id="svg2"
   version="1.1"
   inkscape:version="0.48.4 r9939"
   width="100%"
   height="100%"
   sodipodi:docname="reset.svg">
  <metadata
     id="metadata20">
    <rdf:RDF>
      <cc:Work
         rdf:about="">
        <dc:format>image/svg+xml</dc:format>
        <dc:type
           rdf:resource="http://purl.org/dc/dcmitype/StillImage" />
      </cc:Work>
    </rdf:RDF>
  </metadata>
  <defs
     id="defs18" />
  <sodipodi:namedview
     pagecolor="#ffffff"
     bordercolor="#666666"
     borderopacity="1"
     objecttolerance="10"
     gridtolerance="10"
     guidetolerance="10"
     inkscape:pageopacity="0"
     inkscape:pageshadow="2"
     inkscape:window-width="644"
     inkscape:window-height="496"
     id="namedview16"
     showgrid="false"
     inkscape:zoom="0.921875"
     inkscape:cx="128"
     inkscape:cy="128"
     inkscape:window-x="0"
     inkscape:window-y="24"
     inkscape:window-maximized="0"
     inkscape:current-layer="g8" />
  <g
     transform="translate(0 -796.36)"
     style="color:#000"
     id="g4">
    <path
       d="m 252.75 953.66 c -49.981 239.91 -393.86 -17.642 -187.29 -139.59 80.25 -52.27 213 16.2 187.29 139.59 z"
       style="fill:#ffffff"
       id="path6" />
    <g
       transform="matrix(0 -1.77896 1.76836 0 -567.6 1611.08)"
       style="fill:#ff4500;stroke:#ff4500"
       id="g8">
      <path
         d="m 403 378.45 c 0 0 -4.853 -12.217 -7.01 -24.992 0.003 -0.003 0.005 -0.003 0.008 -0.003 0.005 -0.003 0.007 -0.002 0.01 -0.002 0.005 -0.002 0.008 -0.002 0.01 -0.002 0.005 -0.002 0.005 -0.002 0.008 -0.003 13.362 2.373 24.968 6.988 24.968 6.988 z"
         style="stroke-width:3;stroke:#ff4500"
         id="path10" />
      <path
         d="m 425.97 397.85 c -0.152 4.125 -0.96 8.272 -2.473 12.289 -6.05 16.07 -21.926 26.297 -39.06 25.17 -17.14 -1.123 -31.543 -13.336 -35.443 -30.05 -3.9 -16.719 3.614 -34.04 18.488 -42.625 l 2 3.465 c -13.363 7.711 -20.1 23.23 -16.592 38.25 3.504 15.02 16.411 25.964 31.809 26.973 15.398 1.01 29.623 -8.159 35.06 -22.592 5.435 -14.433 0.787 -30.699 -11.455 -40.09 l 2.436 -3.174 c 10.22 7.838 15.691 20.01 15.236 32.383 z"
         style="stroke-width:4;stroke:#ff4500"
         id="path12" />
      <ellipse
         transform="matrix(0 1 -1 0 0 0)"
         ry="8"
         rx="8"
         cy="-386.98"
         cx="396.36"
         style="stroke-width:8;stroke:#ff4500;fill:#ffe4c4"
         id="ellipse14"
         d="m 404.35999,-386.98001 c 0,4.41828 -3.58173,8 -8,8 -4.41828,0 -8,-3.58172 -8,-8 0,-4.41828 3.58172,-8 8,-8 4.41827,0 8,3.58172 8,8 z" />
    </g>
  </g>
</svg>
