<?xml version="1.0" encoding="UTF-8" standalone="no"?>
<svg
   xmlns:dc="http://purl.org/dc/elements/1.1/"
   xmlns:cc="http://creativecommons.org/ns#"
   xmlns:rdf="http://www.w3.org/1999/02/22-rdf-syntax-ns#"
   xmlns:svg="http://www.w3.org/2000/svg"
   xmlns="http://www.w3.org/2000/svg"
   xmlns:sodipodi="http://sodipodi.sourceforge.net/DTD/sodipodi-0.dtd"
   xmlns:inkscape="http://www.inkscape.org/namespaces/inkscape"
   viewBox="0 0 256 256"
   id="svg2"
   version="1.1"
   inkscape:version="0.48.4 r9939"
   width="100%"
   height="100%"
   sodipodi:docname="resize_image.svg">
  <metadata
     id="metadata34">
    <rdf:RDF>
      <cc:Work
         rdf:about="">
        <dc:format>image/svg+xml</dc:format>
        <dc:type
           rdf:resource="http://purl.org/dc/dcmitype/StillImage" />
      </cc:Work>
    </rdf:RDF>
  </metadata>
  <defs
     id="defs32" />
  <sodipodi:namedview
     pagecolor="#ffffff"
     bordercolor="#666666"
     borderopacity="1"
     objecttolerance="10"
     gridtolerance="10"
     guidetolerance="10"
     inkscape:pageopacity="0"
     inkscape:pageshadow="2"
     inkscape:window-width="644"
     inkscape:window-height="496"
     id="namedview30"
     showgrid="false"
     inkscape:zoom="0.921875"
     inkscape:cx="128"
     inkscape:cy="128"
     inkscape:window-x="0"
     inkscape:window-y="24"
     inkscape:window-maximized="0"
     inkscape:current-layer="g10" />
  <path
     d="m 193.89 31.801 c 226.71 210.75 -241.2 343.53 -189.6 63.746 25.452 -73.816 116.81 -131.42 189.6 -63.746 z"
     style="fill:#ffffff;color:#000"
     id="path4" />
  <g
     transform="matrix(2.71479 0 0 2.58914 48.18 57.919)"
     id="g6">
    <path
       d="m 4.688 4.688 v 40.599 h 40.599 v -40.599 h -40.599 z"
       style="fill:#ff4500;fill-rule:evenodd"
       id="path8" />
    <g
       style="stroke-linecap:round;stroke-linejoin:round"
       id="g10">
      <path
         transform="translate(-1.404 -1.321)"
         d="m 6.092 6.01 v 40.599 h 40.599 v -40.599 h -40.599 z"
         style="fill:none;stroke:#fff;stroke-width:8.125"
         id="path12" />
      <g
         transform="translate(-1.414 -1.384)"
         id="g14"
         style="fill:#ff4500">
        <path
           d="m 44.27 56.696 h 12.454 v -13.09 l -12.454 13.09 z"
           style="fill:#ff4500;stroke:#fff;stroke-width:8.12500000000000000"
           id="path16" />
        <path
           d="m 44.27 56.696 h 12.454 v -13.09 l -12.454 13.09 z"
           style="fill:#ff4500;stroke:#ffffff;fill-rule:evenodd;stroke-width:3.12500000000000000"
           id="path18" />
      </g>
      <g
         style="stroke:#ff4500"
         id="g20">
        <g
           transform="matrix(0.63812 0 0 0.63812 6.453 7.431)"
           style="fill:#ffffff;fill-rule:evenodd;stroke-width:4.89700000000000024;stroke:#ff4500"
           id="g22">
          <path
             d="m 51.48 55.41 c -2.206 -6.86 -5.794 -13.494 -11.665 -17.14 c -5.91 -0.257 -13.352 0 -20.548 0 c -6.372 3.392 -10.242 10.129 -12.652 17.14"
             id="path24"
             style="stroke:#ff4500;fill:#ffffff" />
          <path
             d="m 47.29 24.9 c 0 10.07 -8.174 18.246 -18.246 18.246 -10.07 0 -18.246 -8.174 -18.246 -18.246 0 -10.07 8.174 -18.246 18.246 -18.246 10.07 0 18.246 8.174 18.246 18.246 z"
             id="path26"
             style="stroke:#ff4500;fill:#ffffff" />
        </g>
        <path
           d="m 4.688 4.688 v 40.599 h 40.599 v -40.599 h -40.599 z"
           style="stroke-dasharray:3.12500000000000000 3.12500000000000000;fill:none;stroke-width:3.12500000000000000;stroke:#ff4500"
           id="path28" />
      </g>
    </g>
  </g>
</svg>
