<?xml version="1.0" encoding="UTF-8" standalone="no"?>
<svg
   xmlns:dc="http://purl.org/dc/elements/1.1/"
   xmlns:cc="http://creativecommons.org/ns#"
   xmlns:rdf="http://www.w3.org/1999/02/22-rdf-syntax-ns#"
   xmlns:svg="http://www.w3.org/2000/svg"
   xmlns="http://www.w3.org/2000/svg"
   xmlns:sodipodi="http://sodipodi.sourceforge.net/DTD/sodipodi-0.dtd"
   xmlns:inkscape="http://www.inkscape.org/namespaces/inkscape"
   viewBox="0 0 256 256"
   id="svg2"
   version="1.1"
   inkscape:version="0.48.4 r9939"
   width="100%"
   height="100%"
   sodipodi:docname="retweet.svg">
  <metadata
     id="metadata48">
    <rdf:RDF>
      <cc:Work
         rdf:about="">
        <dc:format>image/svg+xml</dc:format>
        <dc:type
           rdf:resource="http://purl.org/dc/dcmitype/StillImage" />
      </cc:Work>
    </rdf:RDF>
  </metadata>
  <sodipodi:namedview
     pagecolor="#ffffff"
     bordercolor="#666666"
     borderopacity="1"
     objecttolerance="10"
     gridtolerance="10"
     guidetolerance="10"
     inkscape:pageopacity="0"
     inkscape:pageshadow="2"
     inkscape:window-width="644"
     inkscape:window-height="496"
     id="namedview46"
     showgrid="false"
     inkscape:zoom="0.921875"
     inkscape:cx="128"
     inkscape:cy="128"
     inkscape:window-x="0"
     inkscape:window-y="24"
     inkscape:window-maximized="0"
     inkscape:current-layer="g30" />
  <defs
     id="defs4">
    <clipPath
       id="clipPath6">
      <rect
         x="6"
         y="6"
         width="84"
         height="80"
         rx="6"
         style="fill:#ff4500"
         id="rect8" />
    </clipPath>
    <clipPath
       id="clipPath10">
      <rect
         x="6"
         y="6"
         width="84"
         height="80"
         rx="6"
         style="fill:#ff4500"
         id="rect12" />
    </clipPath>
    <clipPath
       id="clipPath14">
      <path
         d="m 171 132 h 54.625 v 24 h -54.625"
         id="path16" />
    </clipPath>
    <clipPath
       id="clipPath18">
      <path
         d="m 74 56.824 h 129 v 139.69 h -129"
         id="path20" />
    </clipPath>
    <clipPath
       id="clipPath22">
      <path
         d="m 148 97 h 77.63 v 24 h -77.62"
         id="path24" />
    </clipPath>
    <clipPath
       id="clipPath26">
      <path
         d="m 27.707 56.824 h 82.29 v 139.69 h -82.29"
         id="path28" />
    </clipPath>
  </defs>
  <g
     transform="translate(0 -796.36)"
     style="color:#000"
     id="g30">
    <path
       d="m 195.83 822.74 c -130.93 -92.05 -263.6 77.948 -156.91 186.39 100.51 102.17 256.68 7.449 207.86 -119.69 c -10.185 -26.526 -26.914 -49.802 -50.948 -66.7 z"
       style="fill:#ffffff"
       id="path32" />
    <g
       transform="matrix(0 -1.91828 -1.81357 0 839.76 1674.08)"
       style="fill:#ffe4c4;stroke:#ff4500"
       id="g34">
      <path
         d="m 372.98 361.36 v 4 h 31.01 c 5 0 7.03 1.566 8.357 4.09 1.325 2.524 1.646 6.378 1.646 10.426 v 25.482 h 4 v -25.482 c 0 -4.21 -0.177 -8.615 -2.104 -12.285 -1.927 -3.67 -5.898 -6.232 -11.9 -6.232 h -31.01 z"
         style="stroke:#ff4500;stroke-width:4;fill:#ffe4c4"
         id="path36" />
      <path
         d="m 379.96 349.37 c 0 0 -13.19 5.444 -25.985 14 12.795 8.556 25.985 14 25.985 14 l 0.008 -14 z"
         id="path38"
         style="fill:#ffe4c4;stroke:#ff4500" />
      <g
         transform="matrix(-1 0 0 -1 775.97 786.73)"
         id="g40"
         style="fill:#ffe4c4;stroke:#ff4500">
        <path
           d="m 366.97 361.36 v 4 h 33.01 c 5 0 7.03 1.566 8.357 4.09 1.325 2.524 1.646 6.378 1.646 10.426 v 25.482 h 4 v -25.482 c 0 -4.21 -0.177 -8.615 -2.104 -12.285 -1.927 -3.67 -5.898 -6.232 -11.9 -6.232 h -33.01 z"
           style="stroke:#ff4500;stroke-width:4;fill:#ffe4c4"
           id="path42" />
        <path
           d="m 375.96 349.37 c 0 0 -13.19 5.444 -25.985 14 12.795 8.556 25.985 14 25.985 14 l 0.008 -14 z"
           id="path44"
           style="fill:#ffe4c4;stroke:#ff4500" />
      </g>
    </g>
  </g>
</svg>
