<?xml version="1.0" encoding="UTF-8" standalone="no"?>
<svg
   xmlns:dc="http://purl.org/dc/elements/1.1/"
   xmlns:cc="http://creativecommons.org/ns#"
   xmlns:rdf="http://www.w3.org/1999/02/22-rdf-syntax-ns#"
   xmlns:svg="http://www.w3.org/2000/svg"
   xmlns="http://www.w3.org/2000/svg"
   xmlns:sodipodi="http://sodipodi.sourceforge.net/DTD/sodipodi-0.dtd"
   xmlns:inkscape="http://www.inkscape.org/namespaces/inkscape"
   viewBox="0 0 256 256"
   id="svg2"
   version="1.1"
   inkscape:version="0.48.4 r9939"
   width="100%"
   height="100%"
   sodipodi:docname="rotation.svg">
  <metadata
     id="metadata32">
    <rdf:RDF>
      <cc:Work
         rdf:about="">
        <dc:format>image/svg+xml</dc:format>
        <dc:type
           rdf:resource="http://purl.org/dc/dcmitype/StillImage" />
      </cc:Work>
    </rdf:RDF>
  </metadata>
  <defs
     id="defs30" />
  <sodipodi:namedview
     pagecolor="#ffffff"
     bordercolor="#666666"
     borderopacity="1"
     objecttolerance="10"
     gridtolerance="10"
     guidetolerance="10"
     inkscape:pageopacity="0"
     inkscape:pageshadow="2"
     inkscape:window-width="644"
     inkscape:window-height="496"
     id="namedview28"
     showgrid="false"
     inkscape:zoom="0.921875"
     inkscape:cx="128"
     inkscape:cy="128"
     inkscape:window-x="0"
     inkscape:window-y="24"
     inkscape:window-maximized="0"
     inkscape:current-layer="g4" />
  <g
     style="color:#000"
     id="g4">
    <path
       d="m 193.89 31.801 c 226.71 210.75 -241.2 343.53 -189.6 63.746 25.452 -73.816 116.81 -131.42 189.6 -63.746 z"
       style="fill:#ffffff"
       id="path6" />
    <g
       transform="matrix(3.08013 0 0 3.48501 30.715 12.06)"
       id="g8"
       style="stroke:#ff4500">
      <path
         d="m 43.875 21.375 v 3.438 h -3.781 c 2.828 3.782 5.03 8.08 6.281 12.781 0.549 -0.179 1.081 -0.418 1.656 -0.5 c 1.132 -0.161 2.303 -0.036 3.469 0.219 -1.414 -5.891 -4.045 -11.294 -7.625 -15.938 z"
         style="fill:#ff4500;stroke:#ff4500"
         id="path10" />
      <g
         style="stroke:#ff4500;stroke-linecap:round;stroke-linejoin:round"
         id="g12">
        <path
           d="m 30 11.162 l -21.251 36.808 h 42.502"
           style="stroke-dasharray:5.00000999999999962 5.00000999999999962;fill:none;stroke-width:5;stroke:#ff4500"
           id="path14" />
        <g
           style="stroke-width:3.12500000000000000;stroke:#ff4500"
           id="g16">
          <g
             style="fill:#ffdead;display:block;stroke:#ff4500"
             id="g18">
            <path
               d="m 43.644 45.45 c -0.848 3.164 1.032 6.421 4.196 7.268 3.164 0.848 6.421 -1.032 7.268 -4.196 0.848 -3.164 -1.032 -6.421 -4.196 -7.268 -3.164 -0.848 -6.421 1.032 -7.268 4.196 z"
               id="path20"
               style="stroke:#ff4500" />
            <path
               d="m 4.891 45.45 c -0.848 3.164 1.032 6.421 4.196 7.268 3.164 0.848 6.421 -1.032 7.268 -4.196 0.848 -3.164 -1.032 -6.421 -4.196 -7.268 -3.164 -0.848 -6.421 1.032 -7.268 4.196 z"
               id="path22"
               style="stroke:#ff4500" />
            <path
               d="m 24.07 11.474 c -0.848 3.164 1.032 6.421 4.196 7.268 3.164 0.848 6.421 -1.032 7.268 -4.196 0.848 -3.164 -1.032 -6.421 -4.196 -7.268 -3.164 -0.848 -6.421 1.032 -7.268 4.196 z"
               id="path24"
               style="stroke:#ff4500" />
          </g>
          <path
             d="m 40.55 19.11 l 8.338 3.616 l -10.696 5.161 l 2.359 -8.777 z"
             style="fill:#ff4500;stroke:#ff4500"
             id="path26" />
        </g>
      </g>
    </g>
  </g>
</svg>
