<?xml version="1.0" encoding="UTF-8" standalone="no"?>
<svg
   xmlns:dc="http://purl.org/dc/elements/1.1/"
   xmlns:cc="http://creativecommons.org/ns#"
   xmlns:rdf="http://www.w3.org/1999/02/22-rdf-syntax-ns#"
   xmlns:svg="http://www.w3.org/2000/svg"
   xmlns="http://www.w3.org/2000/svg"
   xmlns:sodipodi="http://sodipodi.sourceforge.net/DTD/sodipodi-0.dtd"
   xmlns:inkscape="http://www.inkscape.org/namespaces/inkscape"
   viewBox="0 0 256 256"
   id="svg2"
   version="1.1"
   inkscape:version="0.48.4 r9939"
   width="100%"
   height="100%"
   sodipodi:docname="run-install.svg">
  <metadata
     id="metadata18">
    <rdf:RDF>
      <cc:Work
         rdf:about="">
        <dc:format>image/svg+xml</dc:format>
        <dc:type
           rdf:resource="http://purl.org/dc/dcmitype/StillImage" />
      </cc:Work>
    </rdf:RDF>
  </metadata>
  <defs
     id="defs16" />
  <sodipodi:namedview
     pagecolor="#ffffff"
     bordercolor="#666666"
     borderopacity="1"
     objecttolerance="10"
     gridtolerance="10"
     guidetolerance="10"
     inkscape:pageopacity="0"
     inkscape:pageshadow="2"
     inkscape:window-width="644"
     inkscape:window-height="496"
     id="namedview14"
     showgrid="false"
     inkscape:zoom="0.921875"
     inkscape:cx="128"
     inkscape:cy="128"
     inkscape:window-x="0"
     inkscape:window-y="24"
     inkscape:window-maximized="0"
     inkscape:current-layer="g4" />
  <g
     transform="matrix(0 0.99152 -0.99163 0 1046.65 1.244)"
     style="fill:#dc143c;color:#000"
     id="g4">
    <path
       d="m 203.08 824.72 c -192.48 -127.94 -302.85 263.69 -62.21 226.05 102.83 -23.02 165.24 -167.37 62.21 -226.05 z"
       style="fill:#ffffff"
       id="path6" />
    <g
       transform="matrix(0 -8.65978 9.17018 0 -4802.16 4677.92)"
       style="fill:#ffe4c4;stroke:#ff4500"
       id="g8">
      <path
         transform="translate(421.71 525.79)"
         d="m 10 3 v 1.078 c -1.188 0.169 -2.276 0.632 -3.191 1.316 l -1.395 -1.395 l -1.414 1.414 l 1.395 1.395 c -0.684 0.915 -1.147 2 -1.316 3.191 h -1.078 v 2 h 1.078 c 0.169 1.188 0.632 2.276 1.316 3.191 l -1.395 1.395 l 1.414 1.414 l 1.395 -1.395 c 0.915 0.684 2 1.147 3.191 1.316 v 1.078 h 2 v -1.078 v -1.012 c -0.326 0.054 -0.658 0.09 -1 0.09 -0.342 0 -0.674 -0.036 -1 -0.09 -0.913 -0.152 -1.754 -0.506 -2.477 -1.02 -0.547 -0.389 -1.025 -0.867 -1.414 -1.414 -0.514 -0.723 -0.867 -1.563 -1.02 -2.477 -0.054 -0.326 -0.09 -0.658 -0.09 -1 0 -0.342 0.036 -0.674 0.09 -1 0.152 -0.913 0.506 -1.754 1.02 -2.477 0.389 -0.547 0.867 -1.025 1.414 -1.414 0.723 -0.514 1.563 -0.867 2.477 -1.02 0.326 -0.054 0.658 -0.09 1 -0.09 c 0.342 0 0.674 0.036 1 0.09 0.913 0.152 1.754 0.506 2.477 1.02 0.547 0.389 1.025 0.867 1.414 1.414 c 0.514 0.723 0.867 1.563 1.02 2.477 0.054 0.326 0.09 0.658 0.09 1 c 0 0.342 -0.036 0.674 -0.09 1 h 1.012 h 1.078 v -2 h -1.078 c -0.169 -1.188 -0.632 -2.276 -1.316 -3.191 l 1.395 -1.395 l -1.414 -1.414 l -1.395 1.395 c -0.915 -0.684 -2 -1.147 -3.191 -1.316 v -1.078 h -2 z m -1 5 v 6 l 5 -3 l -5 -3 z"
         id="path10"
         style="fill:#ffe4c4;stroke:#ff4500" />
      <path
         d="m 439.6 547.15 l -0.207 -0.207 l -3.293 -3.293 l 0.707 -0.707 l 2.293 2.293 v -4.293 h 1 v 4.293 l 2.293 -2.293 l 0.707 0.707 l -3.293 3.293 l -0.207 0.207 z"
         id="path12"
         style="fill:#ffe4c4;stroke:#ff4500" />
    </g>
  </g>
</svg>
