<?xml version="1.0" encoding="UTF-8" standalone="no"?>
<svg
   xmlns:dc="http://purl.org/dc/elements/1.1/"
   xmlns:cc="http://creativecommons.org/ns#"
   xmlns:rdf="http://www.w3.org/1999/02/22-rdf-syntax-ns#"
   xmlns:svg="http://www.w3.org/2000/svg"
   xmlns="http://www.w3.org/2000/svg"
   xmlns:xlink="http://www.w3.org/1999/xlink"
   xmlns:sodipodi="http://sodipodi.sourceforge.net/DTD/sodipodi-0.dtd"
   xmlns:inkscape="http://www.inkscape.org/namespaces/inkscape"
   viewBox="0 0 256 256"
   id="svg2"
   version="1.1"
   inkscape:version="0.48.4 r9939"
   width="100%"
   height="100%"
   sodipodi:docname="segmentaxis.svg">
  <metadata
     id="metadata29">
    <rdf:RDF>
      <cc:Work
         rdf:about="">
        <dc:format>image/svg+xml</dc:format>
        <dc:type
           rdf:resource="http://purl.org/dc/dcmitype/StillImage" />
      </cc:Work>
    </rdf:RDF>
  </metadata>
  <sodipodi:namedview
     pagecolor="#ffffff"
     bordercolor="#666666"
     borderopacity="1"
     objecttolerance="10"
     gridtolerance="10"
     guidetolerance="10"
     inkscape:pageopacity="0"
     inkscape:pageshadow="2"
     inkscape:window-width="644"
     inkscape:window-height="496"
     id="namedview27"
     showgrid="false"
     inkscape:zoom="0.921875"
     inkscape:cx="128"
     inkscape:cy="128"
     inkscape:window-x="0"
     inkscape:window-y="24"
     inkscape:window-maximized="0"
     inkscape:current-layer="svg2" />
  <defs
     id="defs4">
    <path
       id="0"
       d="m 153.54 78.21 c 0 12.274 -9.95 22.22 -22.22 22.22 -12.274 0 -22.22 -9.95 -22.22 -22.22 0 -12.274 9.95 -22.22 22.22 -22.22 12.274 0 22.22 9.95 22.22 22.22 z"
       style="fill:#ff4500;color:#000" />
  </defs>
  <use
     transform="translate(15.781 13.13)"
     xlink:href="#0"
     id="use7" />
  <use
     transform="translate(18.424 91.18)"
     xlink:href="#0"
     id="use9" />
  <use
     transform="translate(-66.794 48.49)"
     xlink:href="#0"
     id="use11" />
  <path
     d="m 60.789 229.18 c 94.43 83.76 239.74 -48.37 180.98 -158.96 -59.4 -111.81 -255.97 -82.02 -239.26 55.31 4.977 40.865 27.46 76.32 58.27 103.65 z"
     style="fill:#ffffff;color:#000"
     id="path13" />
  <g
     transform="matrix(3.21109 0 0 3.61343 32.21 17.427)"
     style="fill:#ff4500;stroke:#ff4500;stroke-linecap:round;stroke-linejoin:round"
     id="g15">
    <path
       d="m 10.624 16.878 l 38.751 26.24"
       style="fill:#ff4500;stroke-width:5;stroke:#ff4500"
       id="path17" />
    <g
       style="fill:#ffdead;display:block;color:#000;stroke-width:3.12500000000000000;stroke:#ff4500"
       id="g19">
      <path
         d="m 54.52 46.09 c -1.638 2.837 -5.27 3.81 -8.107 2.172 -2.837 -1.638 -3.81 -5.27 -2.172 -8.107 1.638 -2.837 5.27 -3.81 8.107 -2.172 2.837 1.638 3.81 5.27 2.172 8.107 z"
         id="path21"
         style="stroke:#ff4500" />
      <path
         d="m 15.762 19.84 c -1.638 2.837 -5.27 3.81 -8.107 2.172 -2.837 -1.638 -3.81 -5.27 -2.172 -8.107 1.638 -2.837 5.27 -3.81 8.107 -2.172 2.837 1.638 3.81 5.27 2.172 8.107 z"
         id="path23"
         style="stroke:#ff4500" />
    </g>
    <path
       d="m 17.11 49.35 l 27.476 -36.897"
       style="stroke-dasharray:5.53348999999999958 5.53348999999999958;fill:#ff4500;stroke-width:5.53300000000000036;stroke:#ff4500"
       id="path25" />
  </g>
</svg>
