<?xml version="1.0" encoding="UTF-8" standalone="no"?>
<svg
   xmlns:dc="http://purl.org/dc/elements/1.1/"
   xmlns:cc="http://creativecommons.org/ns#"
   xmlns:rdf="http://www.w3.org/1999/02/22-rdf-syntax-ns#"
   xmlns:svg="http://www.w3.org/2000/svg"
   xmlns="http://www.w3.org/2000/svg"
   xmlns:sodipodi="http://sodipodi.sourceforge.net/DTD/sodipodi-0.dtd"
   xmlns:inkscape="http://www.inkscape.org/namespaces/inkscape"
   viewBox="0 0 256 256"
   id="svg2"
   version="1.1"
   inkscape:version="0.48.4 r9939"
   width="100%"
   height="100%"
   sodipodi:docname="segment_midpoint.svg">
  <metadata
     id="metadata24">
    <rdf:RDF>
      <cc:Work
         rdf:about="">
        <dc:format>image/svg+xml</dc:format>
        <dc:type
           rdf:resource="http://purl.org/dc/dcmitype/StillImage" />
      </cc:Work>
    </rdf:RDF>
  </metadata>
  <defs
     id="defs22" />
  <sodipodi:namedview
     pagecolor="#ffffff"
     bordercolor="#666666"
     borderopacity="1"
     objecttolerance="10"
     gridtolerance="10"
     guidetolerance="10"
     inkscape:pageopacity="0"
     inkscape:pageshadow="2"
     inkscape:window-width="644"
     inkscape:window-height="496"
     id="namedview20"
     showgrid="false"
     inkscape:zoom="0.921875"
     inkscape:cx="128"
     inkscape:cy="128"
     inkscape:window-x="0"
     inkscape:window-y="24"
     inkscape:window-maximized="0"
     inkscape:current-layer="svg2" />
  <path
     d="m 31.87 193.82 c 210.75 226.71 343.53 -241.2 63.746 -189.6 -73.816 25.452 -131.42 116.81 -63.746 189.6 z"
     style="fill:#ffffff;color:#000"
     id="path4" />
  <g
     transform="matrix(3.06544 0 0 3.30481 37.664 27.23)"
     style="fill:#ff4500;stroke:#ff4500;stroke-linecap:round;stroke-linejoin:round"
     id="g6">
    <path
       d="m 10.624 16.878 l 38.751 26.24"
       style="fill:#ff4500;stroke-width:5;stroke:#ff4500"
       id="path8" />
    <g
       style="display:block;color:#000;stroke-width:3.12500000000000000;stroke:#ff4500"
       id="g10">
      <g
         style="fill:#ffdead;stroke:#ff4500"
         id="g12">
        <path
           d="m 54.52 46.09 c -1.638 2.837 -5.27 3.81 -8.107 2.172 -2.837 -1.638 -3.81 -5.27 -2.172 -8.107 1.638 -2.837 5.27 -3.81 8.107 -2.172 2.837 1.638 3.81 5.27 2.172 8.107 z"
           id="path14"
           style="stroke:#ff4500" />
        <path
           d="m 15.762 19.84 c -1.638 2.837 -5.27 3.81 -8.107 2.172 -2.837 -1.638 -3.81 -5.27 -2.172 -8.107 1.638 -2.837 5.27 -3.81 8.107 -2.172 2.837 1.638 3.81 5.27 2.172 8.107 z"
           id="path16"
           style="stroke:#ff4500" />
      </g>
      <path
         d="m 35.14 32.967 c -1.638 2.837 -5.27 3.81 -8.107 2.172 -2.837 -1.638 -3.81 -5.27 -2.172 -8.107 1.638 -2.837 5.27 -3.81 8.107 -2.172 2.837 1.638 3.81 5.27 2.172 8.107 z"
         style="fill:#ff4500;stroke:#ff4500"
         id="path18" />
    </g>
  </g>
</svg>
