<?xml version="1.0" encoding="UTF-8" standalone="no"?>
<svg
   xmlns:dc="http://purl.org/dc/elements/1.1/"
   xmlns:cc="http://creativecommons.org/ns#"
   xmlns:rdf="http://www.w3.org/1999/02/22-rdf-syntax-ns#"
   xmlns:svg="http://www.w3.org/2000/svg"
   xmlns="http://www.w3.org/2000/svg"
   xmlns:sodipodi="http://sodipodi.sourceforge.net/DTD/sodipodi-0.dtd"
   xmlns:inkscape="http://www.inkscape.org/namespaces/inkscape"
   viewBox="0 0 256 256"
   id="svg2"
   version="1.1"
   inkscape:version="0.48.4 r9939"
   width="100%"
   height="100%"
   sodipodi:docname="show_table_column.svg">
  <metadata
     id="metadata88">
    <rdf:RDF>
      <cc:Work
         rdf:about="">
        <dc:format>image/svg+xml</dc:format>
        <dc:type
           rdf:resource="http://purl.org/dc/dcmitype/StillImage" />
      </cc:Work>
    </rdf:RDF>
  </metadata>
  <defs
     id="defs86" />
  <sodipodi:namedview
     pagecolor="#ffffff"
     bordercolor="#666666"
     borderopacity="1"
     objecttolerance="10"
     gridtolerance="10"
     guidetolerance="10"
     inkscape:pageopacity="0"
     inkscape:pageshadow="2"
     inkscape:window-width="644"
     inkscape:window-height="496"
     id="namedview84"
     showgrid="false"
     inkscape:zoom="0.921875"
     inkscape:cx="128"
     inkscape:cy="128"
     inkscape:window-x="0"
     inkscape:window-y="24"
     inkscape:window-maximized="0"
     inkscape:current-layer="g8" />
  <path
     d="M 229.63,195.84 C 321.68,64.91 151.682,-67.76 43.24,38.93 -58.93,139.44 35.791,295.61 162.93,246.79 c 26.526,-10.185 49.802,-26.914 66.7,-50.948 z"
     style="fill:#ffffff;color:#000"
     id="path4" />
  <g
     transform="matrix(-3.37038 0 0 2.73705 216.15 42.815)"
     id="g6"
     style="fill:#ffe4c4">
    <g
       transform="translate(-0.406 -1.129)"
       style="fill:#ffe4c4;fill-rule:evenodd;stroke-linecap:round;stroke-linejoin:round"
       id="g8">
      <path
         d="m 48.34 56.44 v -23.406 c 0 -1.108 -0.892 -2 -2 -2 h -31.875 c -1.108 0 -2 0.892 -2 2 v 23.406"
         style="stroke:#fff;stroke-width:8.12500000000000000;fill:#ffe4c4"
         id="path10" />
      <g
         style="stroke-width:3.12500000000000000;fill:#ffe4c4;stroke:#ff4500"
         id="g12">
        <path
           d="m 14.469 31.04 c -1.108 0 -2 0.892 -2 2 v 23.406 h 35.875 v -23.406 c 0 -1.108 -0.892 -2 -2 -2 h -31.875 z"
           id="path14"
           style="fill:#ffe4c4;stroke:#ff4500" />
        <path
           d="m 48.34 56.44 v -23.406 c 0 -1.108 -0.892 -2 -2 -2 h -31.875 c -1.108 0 -2 0.892 -2 2 v 23.406"
           style="stroke-dasharray:3.12500000000000000 3.12500000000000000;stroke:#ff4500;fill:#ffe4c4"
           id="path16" />
      </g>
    </g>
    <g
       transform="matrix(0.86075 0 0 0.86075 1.542 1.529)"
       id="g18"
       style="fill:#ffe4c4">
      <g
         style="fill:#ffe4c4"
         id="g20">
        <g
           style="stroke-linecap:round;stroke-linejoin:round;fill:#ffe4c4"
           id="g22">
          <g
             style="stroke:#fff;fill:#ffe4c4"
             id="g24">
            <g
               style="stroke-width:7.26100000000000012;fill:#ffe4c4"
               id="g26">
              <path
                 d="m 10.402 7.379 l -2.43 -3.17"
                 id="path28"
                 style="fill:#ffe4c4" />
              <path
                 d="m 27.548 5.756 v -3.176"
                 id="path30"
                 style="fill:#ffe4c4" />
              <path
                 d="m 33.26 6.673 v -3.388"
                 id="path32"
                 style="fill:#ffe4c4" />
              <path
                 d="m 37.39 7.591 l 2.02 -2.631"
                 id="path34"
                 style="fill:#ffe4c4" />
              <path
                 d="m 10.402 21.998 l -2.43 3.225"
                 id="path36"
                 style="fill:#ffe4c4" />
              <path
                 d="m 14.618 23 v 3.661"
                 id="path38"
                 style="fill:#ffe4c4" />
              <path
                 d="m 20.615 23.793 v 3.518"
                 id="path40"
                 style="fill:#ffe4c4" />
              <path
                 d="m 37.39 21.782 l 2.02 2.676"
                 id="path42"
                 style="fill:#ffe4c4" />
            </g>
            <path
               d="m 23.425 4.01 c -0.94 0 -1.832 0.095 -2.738 0.161 l 1.887 10.7 l 11.505 8.836 c 5.676 -1.89 9.48 -5.206 9.48 -9.02 0 -5.896 -9.01 -10.677 -20.13 -10.677 z m -11.643 1.979 c -5.126 1.937 -8.491 5.108 -8.491 8.698 c 0 5.686 8.411 10.284 18.984 10.608 l -1.105 -5.638 l -9.388 -13.668 z"
               style="stroke-width:8.71299999999999919;fill:#ffe4c4"
               id="path44" />
          </g>
          <g
             transform="matrix(0.73634 0 0 0.73634 1.22 -8.965)"
             style="stroke:#ffffff;stroke-width:1.97199999999999998;fill:#ffe4c4"
             id="g46">
            <path
               d="m 12.47 22.2 l -3.3 -4.306"
               id="path48"
               style="fill:#ffe4c4" />
            <path
               d="m 35.755 19.991 v -4.313"
               id="path50"
               style="fill:#ffe4c4" />
            <path
               d="m 43.516 21.237 v -4.601"
               id="path52"
               style="fill:#ffe4c4" />
            <path
               d="m 49.12 22.483 l 2.738 -3.573"
               id="path54"
               style="fill:#ffe4c4" />
            <path
               d="m 12.47 42.05 l -3.3 4.38"
               id="path56"
               style="fill:#ffe4c4" />
            <path
               d="m 18.2 43.41 v 4.972"
               id="path58"
               style="fill:#ffe4c4" />
            <path
               d="m 26.339 44.487 v 4.777"
               id="path60"
               style="fill:#ffe4c4" />
            <path
               d="m 49.12 41.757 l 2.738 3.634"
               id="path62"
               style="fill:#ffe4c4" />
          </g>
        </g>
        <g
           transform="matrix(0.73634 0 0 0.73634 1.22 -8.965)"
           style="stroke:#ffffff;stroke-width:1.16199999999999992;fill:#ffe4c4"
           id="g64">
          <path
             d="m 34.991 32.898 l 3.436 -0.127"
             id="path66"
             style="fill:#ffe4c4" />
          <path
             d="m 33.592 28.19 l 2.036 -3.054"
             id="path68"
             style="fill:#ffe4c4" />
        </g>
      </g>
      <g
         transform="matrix(0.73634 0 0 0.73634 1.22 -8.965)"
         style="stroke:#ff4500;fill-rule:evenodd;stroke-linejoin:round;fill:#ffe4c4"
         id="g70">
        <g
           style="fill:#ffe4c4;stroke:#ff4500"
           id="g72">
          <path
             d="m 30.16 17.625 c -1.276 0 -2.489 0.129 -3.719 0.219 l 2.563 14.531 l 15.625 12 c 7.709 -2.566 12.875 -7.07 12.875 -12.25 c 0 -8.01 -12.243 -14.5 -27.344 -14.5 z m -15.813 2.688 c -6.962 2.63 -11.531 6.938 -11.531 11.813 c 0 7.723 11.423 13.967 25.781 14.406 l -1.5 -7.656 l -12.75 -18.563 z"
             style="stroke-linecap:round;stroke-width:3.94399999999999995;fill:#ffe4c4;stroke:#ff4500"
             id="path74" />
          <g
             style="stroke-width:1.97199999999999998;fill:#ffe4c4;stroke:#ff4500"
             id="g76">
            <path
               d="m 30.22 22.469 c -1.043 0 -1.924 0.178 -2.938 0.219 l 1.719 9.688 l 11.625 8.938 c 9.964 -1.468 17 -4.974 17 -9.06 0 -5.408 -12.27 -9.781 -27.406 -9.781 z m -13.438 1.438 c -8.196 1.695 -13.969 4.719 -13.969 8.344 c 0 5.087 10.988 9.146 24.875 9.625 l -0.594 -3 l -10.313 -14.969 z"
               id="path78"
               style="fill:#ffe4c4;stroke:#ff4500" />
            <path
               d="m 30.406 22.594 c -1.069 0 -2.059 0.27 -3 0.688 l 1.594 9.09 l 7.75 5.938 c 1.23 -1.671 2.063 -3.771 2.063 -6.125 0 -5.303 -3.771 -9.594 -8.406 -9.594 z m -8.313 9.03 c -0.011 0.197 -0.094 0.363 -0.094 0.563 c 0 4.131 2.331 7.612 5.531 8.969 l -0.438 -2.281 l -5 -7.25 z"
               style="stroke-linecap:round;fill:#ffe4c4;stroke:#ff4500"
               id="path80" />
          </g>
        </g>
        <path
           d="m 30.531 27.406 c -0.842 0 -1.578 0.34 -2.25 0.813 l 0.719 4.156 l 4.781 3.688 c 0.739 -0.923 1.219 -2.141 1.219 -3.5 0 -2.855 -2.01 -5.156 -4.469 -5.156 z"
           style="fill:#ffe4c4;stroke-linecap:round;stroke-width:1.97199999999999998;stroke:#ff4500"
           id="path82" />
      </g>
    </g>
  </g>
</svg>
