<?xml version="1.0" encoding="UTF-8" standalone="no"?>
<svg
   xmlns:dc="http://purl.org/dc/elements/1.1/"
   xmlns:cc="http://creativecommons.org/ns#"
   xmlns:rdf="http://www.w3.org/1999/02/22-rdf-syntax-ns#"
   xmlns:svg="http://www.w3.org/2000/svg"
   xmlns="http://www.w3.org/2000/svg"
   xmlns:sodipodi="http://sodipodi.sourceforge.net/DTD/sodipodi-0.dtd"
   xmlns:inkscape="http://www.inkscape.org/namespaces/inkscape"
   viewBox="0 0 256 256"
   id="svg2"
   version="1.1"
   inkscape:version="0.48.4 r9939"
   width="100%"
   height="100%"
   sodipodi:docname="show_table_row.svg">
  <metadata
     id="metadata90">
    <rdf:RDF>
      <cc:Work
         rdf:about="">
        <dc:format>image/svg+xml</dc:format>
        <dc:type
           rdf:resource="http://purl.org/dc/dcmitype/StillImage" />
      </cc:Work>
    </rdf:RDF>
  </metadata>
  <sodipodi:namedview
     pagecolor="#ffffff"
     bordercolor="#666666"
     borderopacity="1"
     objecttolerance="10"
     gridtolerance="10"
     guidetolerance="10"
     inkscape:pageopacity="0"
     inkscape:pageshadow="2"
     inkscape:window-width="644"
     inkscape:window-height="496"
     id="namedview88"
     showgrid="false"
     inkscape:zoom="0.921875"
     inkscape:cx="128"
     inkscape:cy="128"
     inkscape:window-x="0"
     inkscape:window-y="24"
     inkscape:window-maximized="0"
     inkscape:current-layer="svg2" />
  <defs
     id="defs4">
    <clipPath
       id="clipPath6">
      <path
         d="m -24 13 c 0 1.105 -0.672 2 -1.5 2 -0.828 0 -1.5 -0.895 -1.5 -2 0 -1.105 0.672 -2 1.5 -2 0.828 0 1.5 0.895 1.5 2 z"
         transform="matrix(15.33333 0 0 11.5 415 -125.5)"
         id="path8" />
    </clipPath>
  </defs>
  <path
     d="m 211.55 38.6 c 200.11 265.25 -350.59 302.94 -173.86 32.17 40.29 -61.728 120.86 -102.43 173.86 -32.17 z"
     style="fill:#ffffff;color:#000"
     id="path10" />
  <g
     transform="matrix(-3.17379 0 0 2.53254 227.74 67.41)"
     id="g12"
     style="fill:#ffe4c4">
    <g
       transform="translate(-1.64 -1.41)"
       style="fill:#ffe4c4;fill-rule:evenodd;stroke-linecap:round;stroke-linejoin:round"
       id="g14">
      <path
         d="m 31.546 54.723 c 0 1.108 0.892 2 2 2 h 23.406 v -35.875 h -23.406 c -1.108 0 -2 0.892 -2 2 v 31.875 z"
         style="stroke-width:3.12500000000000000;fill:#ffe4c4"
         id="path16" />
      <path
         d="m 56.952 20.848 h -23.406 c -1.108 0 -2 0.892 -2 2 v 31.875 c 0 1.108 0.892 2 2 2 h 23.406"
         style="stroke:#fff;stroke-width:8.12500000000000000;fill:#ffe4c4"
         id="path18" />
      <path
         d="m 56.952 20.848 h -23.406 c -1.108 0 -2 0.892 -2 2 v 31.875 c 0 1.108 0.892 2 2 2 h 23.406"
         style="stroke-dasharray:3.12500000000000000 3.12500000000000000;stroke:#ff4500;stroke-width:3.12500000000000000;fill:#ffe4c4"
         id="path20" />
    </g>
    <g
       transform="matrix(0.86075 0 0 0.86075 1.542 1.529)"
       id="g22"
       style="fill:#ff4500">
      <g
         transform="matrix(0.73634,0,0,0.73634,0.02877445,-11.453082)"
         style="fill:#ff4500;fill-rule:evenodd;stroke:#ffffff;stroke-linejoin:round"
         id="g74">
        <g
           style="fill:#ff4500"
           id="g76">
          <path
             d="m 30.16,17.625 c -1.276,0 -2.489,0.129 -3.719,0.219 l 2.563,14.531 15.625,12 c 7.709,-2.566 12.875,-7.07 12.875,-12.25 0,-8.01 -12.243,-14.5 -27.344,-14.5 z m -15.813,2.688 c -6.962,2.63 -11.531,6.938 -11.531,11.813 0,7.723 11.423,13.967 25.781,14.406 l -1.5,-7.656 -12.75,-18.563 z"
             style="fill:#ff4500;stroke-width:3.94400001;stroke-linecap:round"
             id="path78"
             inkscape:connector-curvature="0" />
          <g
             style="fill:#ff4500;stroke-width:1.972"
             id="g80">
            <path
               d="m 30.22,22.469 c -1.043,0 -1.924,0.178 -2.938,0.219 l 1.719,9.688 11.625,8.938 c 9.964,-1.468 17,-4.974 17,-9.06 0,-5.408 -12.27,-9.781 -27.406,-9.781 z m -13.438,1.438 c -8.196,1.695 -13.969,4.719 -13.969,8.344 0,5.087 10.988,9.146 24.875,9.625 l -0.594,-3 -10.313,-14.969 z"
               id="path82"
               style="fill:#ff4500"
               inkscape:connector-curvature="0" />
            <path
               d="m 30.406,22.594 c -1.069,0 -2.059,0.27 -3,0.688 l 1.594,9.09 7.75,5.938 c 1.23,-1.671 2.063,-3.771 2.063,-6.125 0,-5.303 -3.771,-9.594 -8.406,-9.594 z m -8.313,9.03 c -0.011,0.197 -0.094,0.363 -0.094,0.563 0,4.131 2.331,7.612 5.531,8.969 l -0.438,-2.281 -5,-7.25 z"
               style="fill:#ff4500;stroke-linecap:round"
               id="path84"
               inkscape:connector-curvature="0" />
          </g>
        </g>
        <path
           d="m 30.531,27.406 c -0.842,0 -1.578,0.34 -2.25,0.813 L 29,32.375 33.781,36.063 C 34.52,35.14 35,33.922 35,32.563 35,29.708 32.99,27.407 30.531,27.407 z"
           style="fill:#ff4500;stroke-width:1.972;stroke-linecap:round"
           id="path86"
           inkscape:connector-curvature="0" />
      </g>
    </g>
  </g>
</svg>
