<?xml version="1.0" encoding="UTF-8" standalone="no"?>
<svg
   xmlns:dc="http://purl.org/dc/elements/1.1/"
   xmlns:cc="http://creativecommons.org/ns#"
   xmlns:rdf="http://www.w3.org/1999/02/22-rdf-syntax-ns#"
   xmlns:svg="http://www.w3.org/2000/svg"
   xmlns="http://www.w3.org/2000/svg"
   xmlns:xlink="http://www.w3.org/1999/xlink"
   xmlns:sodipodi="http://sodipodi.sourceforge.net/DTD/sodipodi-0.dtd"
   xmlns:inkscape="http://www.inkscape.org/namespaces/inkscape"
   viewBox="0 0 256 256"
   id="svg2"
   version="1.1"
   inkscape:version="0.48.4 r9939"
   width="100%"
   height="100%"
   sodipodi:docname="similitude.svg">
  <metadata
     id="metadata23">
    <rdf:RDF>
      <cc:Work
         rdf:about="">
        <dc:format>image/svg+xml</dc:format>
        <dc:type
           rdf:resource="http://purl.org/dc/dcmitype/StillImage" />
      </cc:Work>
    </rdf:RDF>
  </metadata>
  <defs
     id="defs21" />
  <sodipodi:namedview
     pagecolor="#ffffff"
     bordercolor="#666666"
     borderopacity="1"
     objecttolerance="10"
     gridtolerance="10"
     guidetolerance="10"
     inkscape:pageopacity="0"
     inkscape:pageshadow="2"
     inkscape:window-width="644"
     inkscape:window-height="496"
     id="namedview19"
     showgrid="false"
     inkscape:zoom="0.921875"
     inkscape:cx="128"
     inkscape:cy="128"
     inkscape:window-x="0"
     inkscape:window-y="24"
     inkscape:window-maximized="0"
     inkscape:current-layer="svg2" />
  <path
     d="m 31.87 193.82 c 210.75 226.71 343.53 -241.2 63.746 -189.6 -73.816 25.452 -131.42 116.81 -63.746 189.6 z"
     style="fill:#ffffff;color:#000"
     id="path4" />
  <g
     transform="matrix(2.89734 0 0 3.04806 52.54 35.587)"
     style="stroke:#ff4500"
     id="g6">
    <g
       style="stroke:#ff4500;color:#000;stroke-linecap:round;stroke-linejoin:round"
       id="g8">
      <path
         d="m 5.543 43.698 c 3.905 -14.575 15.503 -24.905 29.23 -28.18"
         transform="matrix(1.01467 0.36582 -0.35175 1.05525 15.575 -25.533)"
         style="fill:none;stroke-width:5;stroke:#ff4500"
         id="path10" />
      <path
         d="m 55.11 45.45 c 0.848 3.164 -1.032 6.421 -4.196 7.268 -3.164 0.848 -6.421 -1.032 -7.268 -4.196 -0.848 -3.164 1.032 -6.421 4.196 -7.268 3.164 -0.848 6.421 1.032 7.268 4.196 z"
         transform="translate(0 -2)"
         style="fill:#ffdead;display:block;stroke-width:3.12500000000000000;stroke:#ff4500"
         id="path12" />
    </g>
    <path
       d="m 33.11 48.45 c 0.848 3.164 -1.032 6.421 -4.196 7.268 -3.164 0.848 -6.421 -1.032 -7.268 -4.196 -0.848 -3.164 1.032 -6.421 4.196 -7.268 3.164 -0.848 6.421 1.032 7.268 4.196 z"
       transform="translate(1 -0.613)"
       id="0"
       style="fill:#ffdead;stroke:#ff4500;display:block;color:#000;stroke-linecap:round;stroke-linejoin:round;stroke-width:3.12500000000000000" />
    <use
       transform="translate(-17.753 -4)"
       xlink:href="#0"
       id="use15"
       style="stroke:#ff4500" />
    <path
       d="m 17.04 34.709 c 2.557 -9.544 10.151 -16.308 19.14 -18.45"
       transform="matrix(1.07969 0.29678 -0.30517 1.04999 12.396 -11.968)"
       style="fill:none;stroke:#ff4500;color:#000;stroke-linecap:round;stroke-linejoin:round;stroke-width:5"
       id="path17" />
  </g>
</svg>
