<?xml version="1.0" encoding="UTF-8" standalone="no"?>
<svg
   xmlns:dc="http://purl.org/dc/elements/1.1/"
   xmlns:cc="http://creativecommons.org/ns#"
   xmlns:rdf="http://www.w3.org/1999/02/22-rdf-syntax-ns#"
   xmlns:svg="http://www.w3.org/2000/svg"
   xmlns="http://www.w3.org/2000/svg"
   xmlns:sodipodi="http://sodipodi.sourceforge.net/DTD/sodipodi-0.dtd"
   xmlns:inkscape="http://www.inkscape.org/namespaces/inkscape"
   viewBox="0 0 256 256"
   id="svg2"
   version="1.1"
   inkscape:version="0.48.4 r9939"
   width="100%"
   height="100%"
   sodipodi:docname="slideshow.svg">
  <metadata
     id="metadata22">
    <rdf:RDF>
      <cc:Work
         rdf:about="">
        <dc:format>image/svg+xml</dc:format>
        <dc:type
           rdf:resource="http://purl.org/dc/dcmitype/StillImage" />
      </cc:Work>
    </rdf:RDF>
  </metadata>
  <defs
     id="defs20" />
  <sodipodi:namedview
     pagecolor="#ffffff"
     bordercolor="#666666"
     borderopacity="1"
     objecttolerance="10"
     gridtolerance="10"
     guidetolerance="10"
     inkscape:pageopacity="0"
     inkscape:pageshadow="2"
     inkscape:window-width="644"
     inkscape:window-height="496"
     id="namedview18"
     showgrid="false"
     inkscape:zoom="0.921875"
     inkscape:cx="128"
     inkscape:cy="128"
     inkscape:window-x="0"
     inkscape:window-y="24"
     inkscape:window-maximized="0"
     inkscape:current-layer="g4" />
  <g
     transform="translate(0 -796.36)"
     style="stroke:#fff;color:#000"
     id="g4">
    <path
       d="m 3.25 895.07 c 49.981 -239.91 393.86 17.642 187.29 139.59 -80.25 52.27 -213 -16.2 -187.29 -139.59 z"
       style="fill:#ffffff"
       id="path6" />
    <g
       transform="matrix(0 1.44728 -1.51425 0 1638.1 651.54)"
       style="fill:#ff4500;stroke:#ff4500"
       id="g8">
      <path
         d="m 160.66 1027.77 h 40.18 c 0 0 -9.485 -21.626 -20.09 -36.424 -10.603 14.798 -20.09 36.424 -20.09 36.424 z"
         style="stroke-width:1.21700000000000008;stroke:#ff4500"
         id="path10" />
      <g
         style="stroke-width:4;stroke:#ff4500"
         id="g12">
        <path
           d="m 146 1044.36 h 2 h 66.03 v -68 h -68.03 v 68 z m 4 -4 v -59.998 h 60.03 v 59.998 h -60.03 z"
           id="path14"
           style="stroke:#ff4500" />
        <path
           d="m 173.99 957.31 v 14 v 2 h 4 v -2 v -9.998 h 52.02 v 53.998 v 2 h 4 v -2 v -58 h -60.02 z"
           id="path16"
           style="stroke:#ff4500" />
      </g>
    </g>
  </g>
</svg>
