<?xml version="1.0" encoding="UTF-8" standalone="no"?>
<svg
   xmlns:dc="http://purl.org/dc/elements/1.1/"
   xmlns:cc="http://creativecommons.org/ns#"
   xmlns:rdf="http://www.w3.org/1999/02/22-rdf-syntax-ns#"
   xmlns:svg="http://www.w3.org/2000/svg"
   xmlns="http://www.w3.org/2000/svg"
   xmlns:sodipodi="http://sodipodi.sourceforge.net/DTD/sodipodi-0.dtd"
   xmlns:inkscape="http://www.inkscape.org/namespaces/inkscape"
   viewBox="0 0 256 256"
   id="svg2"
   version="1.1"
   inkscape:version="0.48.4 r9939"
   width="100%"
   height="100%"
   sodipodi:docname="sort-listitem.svg">
  <metadata
     id="metadata52">
    <rdf:RDF>
      <cc:Work
         rdf:about="">
        <dc:format>image/svg+xml</dc:format>
        <dc:type
           rdf:resource="http://purl.org/dc/dcmitype/StillImage" />
      </cc:Work>
    </rdf:RDF>
  </metadata>
  <sodipodi:namedview
     pagecolor="#ffffff"
     bordercolor="#666666"
     borderopacity="1"
     objecttolerance="10"
     gridtolerance="10"
     guidetolerance="10"
     inkscape:pageopacity="0"
     inkscape:pageshadow="2"
     inkscape:window-width="644"
     inkscape:window-height="496"
     id="namedview50"
     showgrid="false"
     inkscape:zoom="0.921875"
     inkscape:cx="128"
     inkscape:cy="128"
     inkscape:window-x="0"
     inkscape:window-y="24"
     inkscape:window-maximized="0"
     inkscape:current-layer="g34" />
  <defs
     id="defs4">
    <clipPath
       id="clipPath6">
      <rect
         x="6"
         y="6"
         width="84"
         height="80"
         rx="6"
         style="fill:#ff4500"
         id="rect8" />
    </clipPath>
    <clipPath
       id="clipPath10">
      <rect
         x="6"
         y="6"
         width="84"
         height="80"
         rx="6"
         style="fill:#ff4500"
         id="rect12" />
    </clipPath>
    <clipPath
       id="clipPath14">
      <path
         d="m 0,595.28 841.89,0 L 841.89,0 0,0 0,595.28 Z"
         id="path16" />
    </clipPath>
    <clipPath
       id="clipPath18">
      <path
         d="m 171 132 h 54.625 v 24 h -54.625"
         id="path20" />
    </clipPath>
    <clipPath
       id="clipPath22">
      <path
         d="m 74 56.824 h 129 v 139.69 h -129"
         id="path24" />
    </clipPath>
    <clipPath
       id="clipPath26">
      <path
         d="m 148 97 h 77.63 v 24 h -77.62"
         id="path28" />
    </clipPath>
    <clipPath
       id="clipPath30">
      <path
         d="m 27.707 56.824 h 82.29 v 139.69 h -82.29"
         id="path32" />
    </clipPath>
  </defs>
  <g
     transform="translate(0 -796.36)"
     id="g34">
    <path
       d="m 229.63 992.2 c 92.05 -130.93 -77.948 -263.6 -186.39 -156.91 -102.17 100.51 -7.449 256.68 119.69 207.86 26.526 -10.185 49.802 -26.914 66.7 -50.948 z"
       style="fill:#ffffff;color:#000"
       id="path36" />
    <g
       transform="matrix(0 -1.6886 -1.39548 0 675.3 1585.6)"
       style="fill:#ff4500;stroke:#ff4500"
       id="g38">
      <path
         d="m 379.41 433.36 v -80"
         style="color:#000;stroke-width:6.21499999999999986;stroke:#ff4500"
         id="path40" />
      <path
         d="m 430 393.37 l -0.185 0.412 c -0.666 1.47 -1.501 3.116 -2.607 5.04 -1.196 2.08 -2.548 4.224 -4.054 6.43 -1.36 1.993 -2.834 3.941 -4.362 5.864 l -1.797 2.261 v -6.113 l 0.209 -0.268 h -0.002 c 0.872 -1.138 1.726 -2.3 2.559 -3.511 1.054 -1.531 2.044 -3.097 2.97 -4.699 0.923 -1.598 2.051 -3.843 2.777 -5.374 l 0.004 -0.009 l 0.011 -0.02 l 0.004 -0.009 l -0.009 -0.02 l 0.035 0.06 c -0.042 -0.063 -0.028 -0.03 -0.059 -0.117 l 0.02 0.047 c -0.727 -1.531 -1.858 -3.784 -2.783 -5.385 -0.926 -1.602 -1.916 -3.17 -2.97 -4.701 -0.833 -1.211 -1.688 -2.372 -2.559 -3.51 l -0.207 -0.27 v -3.231 v -2.881 l 1.797 2.26 c 1.528 1.923 3 3.872 4.362 5.866 v 0.002 l 0.081 0.117 v 0.011 c 1.47 2.16 2.801 4.262 3.974 6.301 1.105 1.922 1.941 3.567 2.607 5.04 l 0.099 0.22 z"
         id="path42"
         style="stroke:#ff4500" />
      <path
         d="m 397.99 433.36 v -80"
         style="color:#000;stroke-width:4;stroke:#ff4500"
         id="path44" />
      <path
         d="m 349.97 393.37 l 0.185 0.412 c 0.666 1.47 1.501 3.116 2.607 5.04 1.196 2.08 2.548 4.224 4.054 6.43 1.36 1.993 2.834 3.941 4.362 5.864 l 1.797 2.261 v -6.113 l -0.209 -0.268 h 0.002 c -0.872 -1.138 -1.726 -2.3 -2.559 -3.511 -1.054 -1.531 -2.044 -3.097 -2.97 -4.699 -0.923 -1.598 -2.051 -3.843 -2.777 -5.374 l -0.004 -0.009 l -0.011 -0.02 l -0.004 -0.009 l 0.009 -0.02 l -0.035 0.06 c 0.042 -0.063 0.028 -0.03 0.059 -0.117 l -0.02 0.047 c 0.727 -1.531 1.858 -3.784 2.783 -5.385 0.926 -1.602 1.916 -3.17 2.97 -4.701 0.833 -1.211 1.688 -2.372 2.559 -3.51 l 0.207 -0.27 v -3.231 v -2.881 l -1.797 2.26 c -1.528 1.923 -3 3.872 -4.362 5.866 v 0.002 l -0.081 0.117 v 0.011 c -1.47 2.16 -2.801 4.262 -3.974 6.301 -1.105 1.922 -1.941 3.567 -2.607 5.04 l -0.099 0.22 z"
         id="path46"
         style="stroke:#ff4500" />
      <path
         d="m 398.04 433.36 v -80"
         style="color:#000;stroke-width:6.21499999999999986;stroke:#ff4500"
         id="path48" />
    </g>
  </g>
</svg>
