<svg xmlns="http://www.w3.org/2000/svg" viewBox="0 0 256 256"><g transform="translate(0 -796.36)"><path d="m 98.7 1049.11 c -239.91 -49.981 17.642 -393.86 139.59 -187.29 c 52.27 80.25 -16.2 213 -139.59 187.29 z" style="fill:#fff;color:#000"/><g transform="matrix(1.03347 0 0 1.02991 82.6 860.2)"><path d="m 50.893 3.281 v -2.795 v 2.795 z" style="fill:#fff;fill-opacity:0.757"/><g style="fill:#ff4500"><path d="m 49.35 3.296 c 15.41 -2.39 37.06 12.295 49.13 33.591 11.819 20.841 10.24 40.607 -3.149 45.67 l 0.014 0.05 l -0.2 0.047 l -0.535 0.178 l -114.03 38.07 l -0.186 0.096 l -0.2 0.046 c -0.08 0.035 -0.151 0.079 -0.236 0.108 l -0.25 0.058 c -0.022 0.006 -0.077 0.018 -0.1 0.023 -2.909 0.678 -7.167 -2.091 -9.51 -6.222 -1.785 -3.147 -1.888 -6.167 -0.577 -7.724 0.02 -0.024 0.015 -0.038 0.036 -0.061 l 0.123 -0.134 c 0.03 -0.029 0.042 -0.095 0.073 -0.122 l 0.086 -0.073 l 67.742 -95.95 c 0.104 -0.169 0.232 -0.337 0.341 -0.501 l 0.036 -0.061 c 0.009 -0.014 0.027 -0.048 0.036 -0.061 0.058 -0.08 0.139 -0.176 0.195 -0.256 l 0.073 -0.122 c 0.195 -0.274 0.376 -0.51 0.586 -0.769 l 0.145 -0.245 c 2.185 -2.609 5.201 -4.429 8.904 -5.292 0.363 -0.085 0.728 -0.192 1.098 -0.256 0.121 -0.021 0.228 -0.063 0.349 -0.081 z" style="stroke:#6a6a6a;fill-rule:evenodd;stroke-width:0.144"/><path d="m 42.956 39.885 c 0 10.645 -5.671 19.275 -12.666 19.275 -6.996 0 -12.666 -8.63 -12.666 -19.275 0 -10.645 5.671 -19.275 12.666 -19.275 6.996 0 12.666 8.63 12.666 19.275 z" transform="matrix(-2.67316 0.10351 1.04313 2.2833 118.79 -56.16)" style="stroke:#fff"/></g><path d="m 51.03 98.06 l 2.894 18.885 l -38.22 8.07 l -2.9 -18.924" style="fill:none;stroke:#ff4500;stroke-linecap:round;stroke-linejoin:round;stroke-width:6.804"/></g></g></svg>