<svg xmlns="http://www.w3.org/2000/svg" viewBox="0 0 256 256"><defs><clipPath><path d="M 0,64 H64 V128 H0 z"/></clipPath></defs><path d="m -1360.14 1641.33 c 46.11 -98.28 -119.59 -146.07 -181.85 -106.06 -62.25 40.01 -83.52 108.58 -13.01 143.08 70.51 34.501 148.75 61.26 194.86 -37.03 z" transform="matrix(1.03665 0 0 -1.35742 1657.71 2320.79)" style="fill:#fff;color:#000"/><path d="m 128 55.874 c 29.03 0 53.761 19.05 64.01 46.1 h -19.18 c -8.969 -16.534 -25.639 -27.658 -44.827 -27.658 -19.19 0 -35.867 11.124 -44.827 27.658 h -19.18 c 10.25 -27.04 34.979 -46.1 64.01 -46.1 z m 69.14 64.53 v 18.439 h -138.27 v -18.439 h 138.27 z m -5.131 36.876 c -10.25 27.04 -34.979 46.1 -64.01 46.1 -29.03 0 -53.761 -19.05 -64.01 -46.1 h 19.18 c 8.969 16.534 25.639 27.658 44.827 27.658 19.19 0 35.867 -11.124 44.827 -27.658 h 19.18 z" style="fill:#ff4500"/></svg>