<svg xmlns="http://www.w3.org/2000/svg" viewBox="0 0 256 256"><defs><clipPath><path d="M 0,64 H64 V128 H0 z"/></clipPath></defs><path d="m 163.27 246.77 c -131.81 47.42 -195.91 -122.98 -142.25 -187.01 53.661 -64.02 145.63 -85.89 191.9 -13.379 46.27 72.51 82.16 152.97 -49.664 200.39 z" style="fill:#fff;color:#000"/><g style="fill:#ff4500;fill-rule:evenodd"><path d="m 115.59 134.14 v -28.522 h 9.199 h 9.199 v 28.522 v 28.522 h -9.199 h -9.199 v -28.522 z"/><path d="m 116.02 209.83 c -6.923 -0.847 -15.796 -3.374 -22.1 -6.295 -4.381 -2.028 -6.453 -3.212 -11.01 -6.289 -14.542 -9.815 -25.15 -24.417 -30.26 -41.635 -2.088 -7.04 -3 -13.634 -3 -21.617 0 -6.154 0.3 -9.341 1.416 -15.06 4.382 -22.461 19.313 -42.33 39.624 -52.715 7.479 -3.826 14.24 -6.02 23.571 -7.64 l 1.065 -0.185 l -0.075 9.611 l -0.075 9.611 l -2.972 0.677 c -16.511 3.762 -30.405 14.863 -38.1 30.443 -5.474 11.08 -7.197 25.04 -4.601 37.28 3.273 15.421 12.751 28.96 25.923 37.03 5.544 3.397 13.156 6.276 19.657 7.435 4.303 0.767 11.509 1.04 15.43 0.586 12.04 -1.396 22.267 -5.834 31.25 -13.56 6.634 -5.706 12.06 -13.321 15.403 -21.613 9.323 -23.13 2.981 -49.49 -15.742 -65.43 -1.452 -1.236 -1.625 -1.312 -1.981 -0.869 -0.215 0.267 -4.085 3.942 -8.599 8.168 l -8.209 7.684 l -0.072 -22.835 c -0.04 -12.559 -0.029 -22.88 0.025 -22.935 0.054 -0.055 10.242 -0.067 22.641 -0.026 l 22.543 0.074 l -7.232 7.898 l -7.232 7.898 l 4.081 4.118 c 4.586 4.628 7.364 8.07 10.456 12.95 8.864 13.996 12.892 29.2 12.09 45.653 -0.507 10.412 -2.843 19.522 -7.487 29.2 -10.604 22.09 -30.657 37.3 -55.05 41.749 -3.603 0.657 -5.02 0.759 -11.605 0.833 -4.125 0.047 -8.52 -0.04 -9.765 -0.192 z"/></g></svg>