<svg xmlns="http://www.w3.org/2000/svg" viewBox="0 0 256 256"><defs><clipPath><path d="M 0,64 H64 V128 H0 z"/></clipPath></defs><path d="m -1360.14 1641.33 c 46.11 -98.28 -119.59 -146.07 -181.85 -106.06 -62.25 40.01 -83.52 108.58 -13.01 143.08 70.51 34.501 148.75 61.26 194.86 -37.03 z" transform="matrix(0 1.03665 1.35742 0 -2064.79 1657.71)" style="fill:#fff;color:#000"/><path d="m 126.24 57.988 c -35.403 0 -64.62 27.07 -68.901 62.02 h 17.633 c 4.106 -25.17 25.44 -44.29 51.27 -44.29 10.648 0 20.502 3.262 28.755 8.859 h 25.499 c -12.728 -16.199 -32.33 -26.578 -54.25 -26.578 z m 8.685 44.29 v 17.723 h 42.59 h 9.495 h 8.139 c -0.757 -6.167 -2.405 -12.149 -4.612 -17.723 h -3.527 h -15.734 h -36.35 z m -77.59 35.435 c 0.757 6.167 2.405 12.149 4.612 17.723 h 19.26 h 36.35 v -17.723 h -42.59 h -17.633 z m 120.17 0 c -4.106 25.17 -25.44 44.29 -51.27 44.29 -10.648 0 -20.502 -3.262 -28.755 -8.859 h -25.499 c 12.728 16.199 32.33 26.578 54.25 26.578 35.403 0 64.62 -27.07 68.901 -62.02 h -17.633 z" style="fill:#ff4500"/></svg>