<svg xmlns="http://www.w3.org/2000/svg" viewBox="0 0 256 256"><g transform="translate(0 -796.36)" style="fill:#fff"><path d="m 124.45 1086.29 c -42.05 -7.77 -72.47 -34.723 -83.59 -74.07 -3.602 -12.734 -5.164 -28.14 -5.211 -44.713 -0.061 -21.279 2.711 -31.398 9.394 -46.44 9.01 -20.286 25.921 -41.09 45.611 -56.11 16.389 -12.506 40.25 -23.575 59.745 -27.713 7.397 -1.57 18.379 -2.126 28.23 -1.711 6.607 0.278 12.703 0.993 16.864 2.131 27.563 7.539 44.31 23.2 62.99 58.9 6.878 13.147 14.03 32.02 17.07 45.03 6.01 25.752 3.55 53.626 -6.6 74.79 -17.771 37.05 -54.39 62.859 -99.26 69.954 -11.893 1.881 -34.971 1.863 -45.24 -0.034 z" transform="matrix(1.02131 -0.09612 0.09964 0.97462 -131.91 5.42)" style="fill:#fff"/></g><path d="m 120.59 213.11 c 0 -0.222 -1.455 -0.372 -3.61 -0.372 -2.706 0 -3.752 -0.14 -4.176 -0.558 -0.386 -0.38 -1.338 -0.558 -2.99 -0.558 -1.365 0 -2.425 -0.162 -2.425 -0.372 0 -0.21 -1.069 -0.372 -2.452 -0.372 -1.928 0 -2.452 -0.119 -2.452 -0.558 0 -0.403 -0.419 -0.558 -1.509 -0.558 -1.09 0 -1.509 -0.155 -1.509 -0.558 0 -0.403 -0.419 -0.558 -1.509 -0.558 -0.83 0 -1.509 -0.167 -1.509 -0.372 0 -0.204 -0.424 -0.372 -0.943 -0.372 -0.587 0 -0.943 -0.211 -0.943 -0.558 0 -0.347 -0.356 -0.558 -0.943 -0.558 -0.519 0 -0.943 -0.167 -0.943 -0.372 0 -0.204 -0.509 -0.372 -1.132 -0.372 -0.754 0 -1.132 -0.186 -1.132 -0.558 0 -0.316 -0.338 -0.558 -0.781 -0.558 -0.43 0 -1.036 -0.251 -1.347 -0.558 -0.311 -0.307 -0.99 -0.558 -1.509 -0.558 -0.972 0 -2.02 -0.758 -2.02 -1.461 0 -0.219 -0.424 -0.398 -0.943 -0.398 -0.587 0 -0.943 -0.211 -0.943 -0.558 0 -0.307 -0.255 -0.558 -0.566 -0.558 -0.311 0 -0.566 -0.167 -0.566 -0.372 0 -0.204 -0.424 -0.372 -0.943 -0.372 -0.587 0 -0.943 -0.211 -0.943 -0.558 0 -0.307 -0.255 -0.558 -0.566 -0.558 -0.311 0 -0.566 -0.167 -0.566 -0.372 0 -0.204 -0.424 -0.372 -0.943 -0.372 -0.587 0 -0.943 -0.211 -0.943 -0.558 0 -0.307 -0.255 -0.558 -0.566 -0.558 -0.311 0 -0.566 -0.179 -0.566 -0.398 0 -0.709 -1.053 -1.461 -2.048 -1.461 -0.611 0 -0.97 -0.207 -0.97 -0.558 0 -0.307 -0.158 -0.558 -0.352 -0.558 -0.193 0 -0.457 -0.326 -0.585 -0.725 -0.128 -0.398 -0.564 -0.828 -0.968 -0.954 -0.404 -0.126 -0.735 -0.47 -0.735 -0.763 0 -0.293 -0.255 -0.533 -0.566 -0.533 -0.311 0 -0.566 -0.167 -0.566 -0.372 0 -0.204 -0.255 -0.372 -0.566 -0.372 -0.311 0 -0.566 -0.179 -0.566 -0.398 0 -0.515 -0.96 -1.461 -1.482 -1.461 -0.222 0 -0.404 -0.418 -0.404 -0.929 0 -0.511 -0.17 -0.929 -0.377 -0.929 -0.207 0 -0.377 -0.251 -0.377 -0.558 0 -0.307 -0.255 -0.558 -0.566 -0.558 -0.311 0 -0.566 -0.251 -0.566 -0.558 0 -0.307 -0.182 -0.558 -0.404 -0.558 -0.522 0 -1.482 -0.946 -1.482 -1.461 0 -0.219 -0.255 -0.398 -0.566 -0.398 -0.352 0 -0.566 -0.351 -0.566 -0.929 0 -0.511 -0.17 -0.929 -0.377 -0.929 -0.207 0 -0.377 -0.251 -0.377 -0.558 0 -0.307 -0.255 -0.558 -0.566 -0.558 -0.352 0 -0.566 -0.351 -0.566 -0.929 0 -0.578 -0.214 -0.929 -0.566 -0.929 -0.311 0 -0.566 -0.251 -0.566 -0.558 0 -0.307 -0.17 -0.558 -0.377 -0.558 -0.207 0 -0.377 -0.418 -0.377 -0.929 0 -0.578 -0.214 -0.929 -0.566 -0.929 -0.352 0 -0.566 -0.351 -0.566 -0.929 0 -0.511 -0.17 -0.929 -0.377 -0.929 -0.207 0 -0.377 -0.251 -0.377 -0.558 0 -0.307 -0.255 -0.558 -0.566 -0.558 -0.352 0 -0.566 -0.351 -0.566 -0.929 0 -0.578 -0.214 -0.929 -0.566 -0.929 -0.352 0 -0.566 -0.351 -0.566 -0.929 0 -0.511 -0.17 -0.929 -0.377 -0.929 -0.207 0 -0.377 -0.657 -0.377 -1.461 0 -0.803 -0.255 -1.711 -0.566 -2.02 -0.311 -0.307 -0.566 -0.988 -0.566 -1.514 0 -0.526 -0.17 -0.956 -0.377 -0.956 -0.207 0 -0.377 -0.406 -0.377 -0.903 0 -0.497 -0.255 -1.154 -0.566 -1.461 -0.311 -0.307 -0.566 -1.155 -0.566 -1.885 0 -0.932 -0.168 -1.328 -0.566 -1.328 -0.409 0 -0.566 -0.413 -0.566 -1.487 0 -0.818 -0.17 -1.487 -0.377 -1.487 -0.213 0 -0.377 -1.053 -0.377 -2.417 0 -1.9 -0.121 -2.417 -0.566 -2.417 -0.492 0 -0.566 -1.694 -0.566 -13.01 0 -11.318 0.074 -13.01 0.566 -13.01 0.445 0 0.566 -0.516 0.566 -2.417 0 -1.363 0.164 -2.417 0.377 -2.417 0.207 0 0.377 -0.669 0.377 -1.487 0 -1.074 0.157 -1.487 0.566 -1.487 0.392 0 0.566 -0.388 0.566 -1.261 0 -0.778 0.217 -1.343 0.566 -1.475 0.355 -0.134 0.566 -0.703 0.566 -1.527 0 -0.722 0.17 -1.313 0.377 -1.313 0.207 0 0.377 -0.43 0.377 -0.956 0 -0.526 0.255 -1.207 0.566 -1.514 0.311 -0.307 0.566 -1.048 0.566 -1.646 0 -0.599 0.17 -1.089 0.377 -1.089 0.207 0 0.377 -0.586 0.377 -1.301 0 -0.909 0.171 -1.301 0.566 -1.301 0.352 0 0.566 -0.351 0.566 -0.929 0 -0.578 0.214 -0.929 0.566 -0.929 0.311 0 0.566 -0.251 0.566 -0.558 0 -0.307 0.17 -0.558 0.377 -0.558 0.207 0 0.377 -0.418 0.377 -0.929 0 -0.578 0.214 -0.929 0.566 -0.929 0.352 0 0.566 -0.351 0.566 -0.929 0 -0.511 0.17 -0.929 0.377 -0.929 0.207 0 0.377 -0.251 0.377 -0.558 0 -0.307 0.255 -0.558 0.566 -0.558 0.352 0 0.566 -0.351 0.566 -0.929 0 -0.578 0.214 -0.929 0.566 -0.929 0.352 0 0.566 -0.351 0.566 -0.929 0 -0.511 0.17 -0.929 0.377 -0.929 0.207 0 0.377 -0.251 0.377 -0.558 0 -0.307 0.182 -0.558 0.404 -0.558 0.522 0 1.482 -0.946 1.482 -1.461 0 -0.219 0.255 -0.398 0.566 -0.398 0.311 0 0.566 -0.251 0.566 -0.558 0 -0.307 0.158 -0.558 0.352 -0.558 0.193 0 0.47 -0.369 0.616 -0.819 0.308 -0.957 1.071 -1.783 1.646 -1.783 0.222 0 0.404 -0.251 0.404 -0.558 0 -0.307 0.17 -0.558 0.377 -0.558 0.207 0 0.377 -0.251 0.377 -0.558 0 -0.307 0.255 -0.558 0.566 -0.558 0.311 0 0.566 -0.167 0.566 -0.372 0 -0.204 0.255 -0.372 0.566 -0.372 0.311 0 0.566 -0.179 0.566 -0.398 0 -0.515 0.96 -1.461 1.482 -1.461 0.222 0 0.404 -0.251 0.404 -0.558 0 -0.307 0.17 -0.558 0.377 -0.558 0.207 0 0.377 -0.251 0.377 -0.558 0 -0.307 0.255 -0.558 0.566 -0.558 0.311 0 0.566 -0.167 0.566 -0.372 0 -0.204 0.255 -0.372 0.566 -0.372 0.311 0 0.566 -0.251 0.566 -0.558 0 -0.31 0.335 -0.558 0.754 -0.558 0.419 0 0.754 -0.248 0.754 -0.558 0 -0.307 0.255 -0.558 0.566 -0.558 0.311 0 0.566 -0.167 0.566 -0.372 0 -0.204 0.255 -0.372 0.566 -0.372 0.311 0 0.566 -0.251 0.566 -0.558 0 -0.307 0.255 -0.558 0.566 -0.558 0.311 0 0.566 -0.167 0.566 -0.372 0 -0.204 0.424 -0.372 0.943 -0.372 0.587 0 0.943 -0.211 0.943 -0.558 0 -0.307 0.255 -0.558 0.566 -0.558 0.311 0 0.566 -0.251 0.566 -0.558 0 -0.347 0.356 -0.558 0.943 -0.558 0.519 0 0.943 -0.167 0.943 -0.372 0 -0.204 0.424 -0.372 0.943 -0.372 0.587 0 0.943 -0.211 0.943 -0.558 0 -0.347 0.356 -0.558 0.943 -0.558 0.519 0 0.943 -0.167 0.943 -0.372 0 -0.204 0.255 -0.372 0.566 -0.372 0.311 0 0.566 -0.251 0.566 -0.558 0 -0.347 0.356 -0.558 0.943 -0.558 0.587 0 0.943 -0.211 0.943 -0.558 0 -0.347 0.356 -0.558 0.943 -0.558 0.519 0 0.943 -0.167 0.943 -0.372 0 -0.204 0.424 -0.372 0.943 -0.372 0.587 0 0.943 -0.211 0.943 -0.558 0 -0.421 0.461 -0.558 1.886 -0.558 1.037 0 1.886 -0.167 1.886 -0.372 0 -0.204 0.684 -0.372 1.521 -0.372 1 0 1.594 -0.19 1.738 -0.558 0.134 -0.344 0.707 -0.558 1.497 -0.558 0.886 0 1.28 -0.172 1.28 -0.558 0 -0.403 0.419 -0.558 1.509 -0.558 0.83 0 1.509 -0.167 1.509 -0.372 0 -0.204 0.934 -0.372 2.074 -0.372 1.593 0 2.074 -0.13 2.074 -0.558 0 -0.347 0.356 -0.558 0.943 -0.558 h 0.943 v -4.833 v -4.833 h 12.07 h 12.07 v 4.833 v 4.833 h 2.452 c 1.928 0 2.452 0.119 2.452 0.558 0 0.428 0.482 0.558 2.075 0.558 1.141 0 2.074 0.167 2.074 0.372 0 0.204 0.679 0.372 1.509 0.372 1.09 0 1.509 0.155 1.509 0.558 0 0.389 0.398 0.558 1.32 0.558 0.922 0 1.32 0.168 1.32 0.558 0 0.403 0.419 0.558 1.509 0.558 0.83 0 1.509 0.167 1.509 0.372 0 0.204 0.679 0.372 1.509 0.372 1.09 0 1.509 0.155 1.509 0.558 0 0.392 0.401 0.558 1.347 0.558 1.318 0 2.425 0.667 2.425 1.461 0 0.219 0.509 0.398 1.132 0.398 0.754 0 1.132 0.186 1.132 0.558 0 0.331 0.346 0.558 0.853 0.558 0.47 0 1.172 0.418 1.562 0.929 0.405 0.532 1.089 0.929 1.598 0.929 0.49 0 0.89 0.167 0.89 0.372 0 0.204 0.424 0.372 0.943 0.372 0.519 0 0.943 0.165 0.943 0.368 0 0.664 1.285 1.863 1.997 1.863 0.765 0 1.775 0.831 1.775 1.461 0 0.219 0.255 0.398 0.566 0.398 0.311 0 0.566 0.167 0.566 0.372 0 0.204 0.255 0.372 0.566 0.372 0.311 0 0.566 0.251 0.566 0.558 0 0.347 0.356 0.558 0.943 0.558 0.519 0 0.943 0.179 0.943 0.398 0 0.515 0.96 1.461 1.482 1.461 0.222 0 0.404 0.251 0.404 0.558 0 0.307 0.17 0.558 0.377 0.558 0.207 0 0.377 0.251 0.377 0.558 0 0.307 0.255 0.558 0.566 0.558 0.311 0 0.566 0.167 0.566 0.372 0 0.204 0.255 0.372 0.566 0.372 0.311 0 0.566 0.179 0.566 0.398 0 0.515 0.96 1.461 1.482 1.461 0.222 0 0.404 0.251 0.404 0.558 0 0.307 0.17 0.558 0.377 0.558 0.207 0 0.377 0.251 0.377 0.558 0 0.307 0.255 0.558 0.566 0.558 0.311 0 0.566 0.167 0.566 0.372 0 0.204 0.255 0.372 0.566 0.372 0.311 0 0.566 0.251 0.566 0.558 0 0.307 0.17 0.558 0.377 0.558 0.207 0 0.377 0.418 0.377 0.929 0 0.578 0.214 0.929 0.566 0.929 0.311 0 0.566 0.251 0.566 0.558 0 0.307 0.17 0.558 0.377 0.558 0.207 0 0.377 0.418 0.377 0.929 0 0.578 0.214 0.929 0.566 0.929 0.311 0 0.566 0.167 0.566 0.372 0 0.204 0.255 0.372 0.566 0.372 0.352 0 0.566 0.351 0.566 0.929 0 0.511 0.17 0.929 0.377 0.929 0.207 0 0.377 0.251 0.377 0.558 0 0.307 0.255 0.558 0.566 0.558 0.352 0 0.566 0.351 0.566 0.929 0 0.511 0.17 0.929 0.377 0.929 0.207 0 0.377 0.251 0.377 0.558 0 0.307 0.255 0.558 0.566 0.558 0.409 0 0.566 0.413 0.566 1.487 0 1.074 0.157 1.487 0.566 1.487 0.352 0 0.566 0.351 0.566 0.929 0 0.511 0.17 0.929 0.377 0.929 0.207 0 0.377 0.418 0.377 0.929 0 0.578 0.214 0.929 0.566 0.929 0.352 0 0.566 0.351 0.566 0.929 0 0.511 0.17 0.929 0.377 0.929 0.207 0 0.377 0.669 0.377 1.487 0 1.074 0.157 1.487 0.566 1.487 0.409 0 0.566 0.413 0.566 1.487 0 1.074 0.157 1.487 0.566 1.487 0.445 0 0.566 0.516 0.566 2.417 0 1.363 0.164 2.416 0.377 2.416 0.212 0 0.377 1.045 0.377 2.39 0 1.629 0.18 2.568 0.566 2.948 0.428 0.422 0.566 1.469 0.566 4.302 0 2.248 0.151 3.744 0.377 3.744 0.23 0 0.377 1.673 0.377 4.275 0 2.602 -0.148 4.275 -0.377 4.275 -0.227 0 -0.377 1.536 -0.377 3.864 0 3.092 -0.113 3.907 -0.566 4.078 -0.423 0.16 -0.566 0.827 -0.566 2.642 0 1.371 -0.164 2.428 -0.377 2.428 -0.218 0 -0.377 1.177 -0.377 2.788 0 2.231 -0.113 2.788 -0.566 2.788 -0.409 0 -0.566 0.413 -0.566 1.487 0 1.074 -0.157 1.487 -0.566 1.487 -0.352 0 -0.566 0.351 -0.566 0.929 0 0.511 -0.17 0.929 -0.377 0.929 -0.207 0 -0.377 0.669 -0.377 1.487 0 1.074 -0.157 1.487 -0.566 1.487 -0.352 0 -0.566 0.351 -0.566 0.929 0 0.511 -0.17 0.929 -0.377 0.929 -0.207 0 -0.377 0.418 -0.377 0.929 0 0.578 -0.214 0.929 -0.566 0.929 -0.352 0 -0.566 0.351 -0.566 0.929 0 0.578 -0.214 0.929 -0.566 0.929 -0.352 0 -0.566 0.351 -0.566 0.929 0 0.511 -0.17 0.929 -0.377 0.929 -0.207 0 -0.377 0.502 -0.377 1.115 0 0.613 -0.182 1.115 -0.404 1.115 -0.666 0 -1.482 1.01 -1.482 1.832 0 0.437 -0.245 0.77 -0.566 0.77 -0.311 0 -0.566 0.251 -0.566 0.558 0 0.307 -0.255 0.558 -0.566 0.558 -0.311 0 -0.566 0.251 -0.566 0.558 0 0.307 -0.17 0.558 -0.377 0.558 -0.207 0 -0.377 0.418 -0.377 0.929 0 0.578 -0.214 0.929 -0.566 0.929 -0.352 0 -0.566 0.351 -0.566 0.929 0 0.511 -0.17 0.929 -0.377 0.929 -0.207 0 -0.377 0.251 -0.377 0.558 0 0.307 -0.255 0.558 -0.566 0.558 -0.311 0 -0.566 0.167 -0.566 0.372 0 0.204 -0.255 0.372 -0.566 0.372 -0.311 0 -0.566 0.179 -0.566 0.398 0 0.515 -0.96 1.461 -1.482 1.461 -0.222 0 -0.404 0.251 -0.404 0.558 0 0.307 -0.17 0.558 -0.377 0.558 -0.207 0 -0.377 0.418 -0.377 0.929 0 0.578 -0.214 0.929 -0.566 0.929 -0.311 0 -0.566 0.251 -0.566 0.558 0 0.307 -0.255 0.558 -0.566 0.558 -0.311 0 -0.566 0.167 -0.566 0.372 0 0.204 -0.424 0.372 -0.943 0.372 -0.587 0 -0.943 0.211 -0.943 0.558 0 0.307 -0.17 0.558 -0.377 0.558 -0.207 0 -0.377 0.251 -0.377 0.558 0 0.307 -0.255 0.558 -0.566 0.558 -0.311 0 -0.566 0.167 -0.566 0.372 0 0.204 -0.255 0.372 -0.566 0.372 -0.311 0 -0.566 0.179 -0.566 0.398 0 0.515 -0.96 1.461 -1.482 1.461 -0.222 0 -0.404 0.251 -0.404 0.558 0 0.347 -0.356 0.558 -0.943 0.558 -0.587 0 -0.943 0.211 -0.943 0.558 0 0.347 -0.356 0.558 -0.943 0.558 -0.519 0 -0.943 0.167 -0.943 0.372 0 0.204 -0.255 0.372 -0.566 0.372 -0.311 0 -0.566 0.179 -0.566 0.398 0 0.709 -1.053 1.461 -2.048 1.461 -0.611 0 -0.97 0.207 -0.97 0.558 0 0.307 -0.17 0.558 -0.377 0.558 -0.207 0 -0.377 0.251 -0.377 0.558 0 0.347 -0.356 0.558 -0.943 0.558 -0.519 0 -0.943 0.167 -0.943 0.372 0 0.204 -0.497 0.372 -1.105 0.372 -0.608 0 -1.359 0.251 -1.67 0.558 -0.311 0.307 -0.917 0.558 -1.347 0.558 -0.443 0 -0.781 0.241 -0.781 0.558 0 0.372 -0.377 0.558 -1.132 0.558 -0.622 0 -1.132 0.167 -1.132 0.372 0 0.204 -0.424 0.372 -0.943 0.372 -0.587 0 -0.943 0.211 -0.943 0.558 0 0.347 -0.356 0.558 -0.943 0.558 -0.519 0 -0.943 0.167 -0.943 0.372 0 0.204 -0.679 0.372 -1.509 0.372 -1.09 0 -1.509 0.155 -1.509 0.558 0 0.403 -0.419 0.558 -1.509 0.558 -1.09 0 -1.509 0.155 -1.509 0.558 0 0.439 -0.524 0.558 -2.452 0.558 -1.383 0 -2.452 0.162 -2.452 0.372 0 0.209 -1.06 0.372 -2.425 0.372 -1.652 0 -2.605 0.178 -2.99 0.558 -0.428 0.422 -1.491 0.558 -4.364 0.558 -2.281 0 -3.799 0.149 -3.799 0.372 0 0.227 -1.76 0.372 -4.526 0.372 -2.766 0 -4.526 -0.145 -4.526 -0.372 z m 13.956 -23.979 c 0 -0.439 0.524 -0.558 2.452 -0.558 1.383 0 2.452 -0.162 2.452 -0.372 0 -0.204 0.679 -0.372 1.509 -0.372 1.09 0 1.509 -0.155 1.509 -0.558 0 -0.403 0.419 -0.558 1.509 -0.558 1.09 0 1.509 -0.155 1.509 -0.558 0 -0.347 0.356 -0.558 0.943 -0.558 0.519 0 0.943 -0.146 0.943 -0.324 0 -0.178 0.679 -0.431 1.509 -0.562 0.83 -0.131 1.509 -0.403 1.509 -0.605 0 -0.202 0.424 -0.367 0.943 -0.367 0.519 0 0.943 -0.167 0.943 -0.372 0 -0.204 0.424 -0.372 0.943 -0.372 0.587 0 0.943 -0.211 0.943 -0.558 0 -0.338 0.35 -0.558 0.89 -0.558 0.503 0 1.19 -0.394 1.581 -0.907 0.38 -0.499 1.083 -1 1.562 -1.122 0.479 -0.118 0.87 -0.379 0.87 -0.58 0 -0.201 0.255 -0.365 0.566 -0.365 0.311 0 0.566 -0.167 0.566 -0.372 0 -0.204 0.255 -0.372 0.566 -0.372 0.311 0 0.566 -0.24 0.566 -0.533 0 -0.293 0.339 -0.639 0.754 -0.769 0.415 -0.13 0.754 -0.392 0.754 -0.583 0 -0.191 0.255 -0.347 0.566 -0.347 0.311 0 0.566 -0.167 0.566 -0.372 0 -0.204 0.255 -0.372 0.566 -0.372 0.311 0 0.566 -0.251 0.566 -0.558 0 -0.307 0.182 -0.558 0.404 -0.558 0.522 0 1.482 -0.946 1.482 -1.461 0 -0.219 0.255 -0.398 0.566 -0.398 0.311 0 0.566 -0.251 0.566 -0.558 0 -0.307 0.255 -0.558 0.566 -0.558 0.311 0 0.566 -0.251 0.566 -0.558 0 -0.307 0.17 -0.558 0.377 -0.558 0.207 0 0.377 -0.335 0.377 -0.744 0 -0.413 0.251 -0.744 0.566 -0.744 0.311 0 0.566 -0.251 0.566 -0.558 0 -0.307 0.17 -0.558 0.377 -0.558 0.207 0 0.377 -0.418 0.377 -0.929 0 -0.578 0.214 -0.929 0.566 -0.929 0.311 0 0.566 -0.251 0.566 -0.558 0 -0.307 0.255 -0.558 0.566 -0.558 0.311 0 0.566 -0.251 0.566 -0.558 0 -0.307 0.17 -0.558 0.377 -0.558 0.207 0 0.377 -0.418 0.377 -0.929 0 -0.578 0.214 -0.929 0.566 -0.929 0.352 0 0.566 -0.351 0.566 -0.929 0 -0.511 0.17 -0.929 0.377 -0.929 0.207 0 0.377 -0.669 0.377 -1.487 0 -1.074 0.157 -1.487 0.566 -1.487 0.352 0 0.566 -0.351 0.566 -0.929 0 -0.578 0.214 -0.929 0.566 -0.929 0.352 0 0.566 -0.351 0.566 -0.929 0 -0.511 0.17 -0.929 0.377 -0.929 0.207 0 0.377 -0.669 0.377 -1.487 0 -1.074 0.157 -1.487 0.566 -1.487 0.409 0 0.566 -0.413 0.566 -1.487 0 -0.818 0.17 -1.487 0.377 -1.487 0.213 0 0.377 -1.053 0.377 -2.417 0 -1.9 0.121 -2.417 0.566 -2.417 0.487 0 0.566 -1.219 0.566 -8.737 0 -7.518 -0.079 -8.737 -0.566 -8.737 -0.445 0 -0.566 -0.516 -0.566 -2.417 0 -1.363 -0.164 -2.417 -0.377 -2.417 -0.207 0 -0.377 -0.669 -0.377 -1.487 0 -1.074 -0.157 -1.487 -0.566 -1.487 -0.409 0 -0.566 -0.413 -0.566 -1.487 0 -0.818 -0.17 -1.487 -0.377 -1.487 -0.207 0 -0.377 -0.418 -0.377 -0.929 0 -0.578 -0.214 -0.929 -0.566 -0.929 -0.348 0 -0.566 -0.348 -0.566 -0.903 0 -0.497 -0.255 -1.154 -0.566 -1.461 -0.311 -0.307 -0.566 -0.988 -0.566 -1.514 0 -0.526 -0.17 -0.956 -0.377 -0.956 -0.207 0 -0.377 -0.418 -0.377 -0.929 0 -0.578 -0.214 -0.929 -0.566 -0.929 -0.352 0 -0.566 -0.351 -0.566 -0.929 0 -0.511 -0.17 -0.929 -0.377 -0.929 -0.207 0 -0.377 -0.251 -0.377 -0.558 0 -0.307 -0.255 -0.558 -0.566 -0.558 -0.352 0 -0.566 -0.351 -0.566 -0.929 0 -0.578 -0.214 -0.929 -0.566 -0.929 -0.311 0 -0.566 -0.174 -0.566 -0.387 0 -0.365 -0.295 -0.785 -1.414 -2.02 -0.259 -0.285 -0.471 -0.709 -0.471 -0.943 0 -0.536 -0.947 -1.487 -1.482 -1.487 -0.222 0 -0.404 -0.251 -0.404 -0.558 0 -0.307 -0.182 -0.558 -0.404 -0.558 -0.522 0 -1.482 -0.946 -1.482 -1.461 0 -0.219 -0.255 -0.398 -0.566 -0.398 -0.311 0 -0.566 -0.251 -0.566 -0.558 0 -0.307 -0.182 -0.558 -0.404 -0.558 -0.522 0 -1.482 -0.946 -1.482 -1.461 0 -0.219 -0.182 -0.398 -0.404 -0.398 -0.522 0 -1.482 -0.946 -1.482 -1.461 0 -0.219 -0.255 -0.398 -0.566 -0.398 -0.311 0 -0.566 -0.149 -0.566 -0.331 0 -0.182 -0.424 -0.436 -0.943 -0.565 -0.519 -0.128 -0.943 -0.397 -0.943 -0.598 0 -0.201 -0.255 -0.365 -0.566 -0.365 -0.311 0 -0.566 -0.251 -0.566 -0.558 0 -0.307 -0.255 -0.558 -0.566 -0.558 -0.311 0 -0.566 -0.167 -0.566 -0.372 0 -0.204 -0.424 -0.372 -0.943 -0.372 -0.587 0 -0.943 -0.211 -0.943 -0.558 0 -0.347 -0.356 -0.558 -0.943 -0.558 -0.587 0 -0.943 -0.211 -0.943 -0.558 0 -0.347 -0.356 -0.558 -0.943 -0.558 -0.519 0 -0.943 -0.167 -0.943 -0.372 0 -0.204 -0.406 -0.372 -0.903 -0.372 -0.496 0 -1 -0.251 -1.12 -0.558 -0.136 -0.35 -0.713 -0.558 -1.549 -0.558 -0.733 0 -1.332 -0.167 -1.332 -0.372 0 -0.204 -0.424 -0.372 -0.943 -0.372 -0.587 0 -0.943 -0.211 -0.943 -0.558 0 -0.403 -0.419 -0.558 -1.509 -0.558 -1.09 0 -1.509 -0.155 -1.509 -0.558 0 -0.372 -0.377 -0.558 -1.132 -0.558 h -1.132 v 21.935 v 21.935 h -12.07 h -12.07 v -21.935 v -21.935 h -2.074 c -1.593 0 -2.074 0.13 -2.074 0.558 0 0.39 -0.399 0.558 -1.332 0.558 -0.836 0 -1.413 0.208 -1.549 0.558 -0.119 0.307 -0.623 0.558 -1.12 0.558 -0.496 0 -0.903 0.167 -0.903 0.372 0 0.204 -0.424 0.372 -0.943 0.372 -0.587 0 -0.943 0.211 -0.943 0.558 0 0.372 -0.377 0.558 -1.132 0.558 -0.622 0 -1.132 0.167 -1.132 0.372 0 0.204 -0.424 0.372 -0.943 0.372 -0.587 0 -0.943 0.211 -0.943 0.558 0 0.343 -0.353 0.558 -0.916 0.558 -0.504 0 -1.171 0.251 -1.482 0.558 -0.311 0.307 -0.748 0.558 -0.97 0.558 -0.222 0 -0.404 0.167 -0.404 0.372 0 0.204 -0.255 0.372 -0.566 0.372 -0.311 0 -0.566 0.251 -0.566 0.558 0 0.347 -0.356 0.558 -0.943 0.558 -0.519 0 -0.943 0.167 -0.943 0.372 0 0.204 -0.255 0.372 -0.566 0.372 -0.311 0 -0.566 0.251 -0.566 0.558 0 0.307 -0.17 0.558 -0.377 0.558 -0.207 0 -0.377 0.251 -0.377 0.558 0 0.322 -0.341 0.558 -0.805 0.558 -0.443 0 -1.199 0.418 -1.679 0.929 -0.481 0.511 -0.979 0.929 -1.107 0.929 -0.367 0 -1.311 1.023 -1.311 1.421 0 0.197 -0.255 0.455 -0.566 0.573 -0.311 0.118 -0.566 0.554 -0.566 0.969 0 0.415 -0.17 0.755 -0.377 0.755 -0.207 0 -0.377 0.251 -0.377 0.558 0 0.307 -0.255 0.558 -0.566 0.558 -0.311 0 -0.566 0.167 -0.566 0.372 0 0.204 -0.255 0.372 -0.566 0.372 -0.311 0 -0.566 0.251 -0.566 0.558 0 0.307 -0.17 0.558 -0.377 0.558 -0.207 0 -0.377 0.418 -0.377 0.929 0 0.578 -0.214 0.929 -0.566 0.929 -0.311 0 -0.566 0.251 -0.566 0.558 0 0.307 -0.17 0.558 -0.377 0.558 -0.207 0 -0.377 0.418 -0.377 0.929 0 0.578 -0.214 0.929 -0.566 0.929 -0.311 0 -0.566 0.251 -0.566 0.558 0 0.307 -0.255 0.558 -0.566 0.558 -0.352 0 -0.566 0.351 -0.566 0.929 0 0.511 -0.17 0.929 -0.377 0.929 -0.207 0 -0.377 0.179 -0.377 0.398 0 0.219 -0.255 0.649 -0.566 0.956 -0.311 0.307 -0.566 0.964 -0.566 1.461 0 0.497 -0.17 0.903 -0.377 0.903 -0.207 0 -0.377 0.669 -0.377 1.487 0 1.074 -0.157 1.487 -0.566 1.487 -0.409 0 -0.566 0.413 -0.566 1.487 0 1.074 -0.157 1.487 -0.566 1.487 -0.427 0 -0.566 0.454 -0.566 1.859 0 1.022 -0.17 1.859 -0.377 1.859 -0.207 0 -0.377 0.92 -0.377 2.045 0 1.57 -0.131 2.045 -0.566 2.045 -0.852 0 -0.852 18.13 0 18.454 0.396 0.15 0.566 0.759 0.566 2.033 0 1 0.17 1.819 0.377 1.819 0.207 0 0.377 0.836 0.377 1.859 0 1.404 0.138 1.859 0.566 1.859 0.409 0 0.566 0.413 0.566 1.487 0 1.074 0.157 1.487 0.566 1.487 0.409 0 0.566 0.413 0.566 1.487 0 0.818 0.17 1.487 0.377 1.487 0.207 0 0.377 0.418 0.377 0.929 0 0.578 0.214 0.929 0.566 0.929 0.352 0 0.566 0.351 0.566 0.929 0 0.511 0.17 0.929 0.377 0.929 0.207 0 0.377 0.502 0.377 1.115 0 0.744 0.189 1.115 0.566 1.115 0.311 0 0.566 0.167 0.566 0.372 0 0.204 0.255 0.372 0.566 0.372 0.356 0 0.566 0.354 0.566 0.956 0 0.98 0.762 2.02 1.482 2.02 0.222 0 0.404 0.418 0.404 0.929 0 0.511 0.17 0.929 0.377 0.929 0.207 0 0.377 0.251 0.377 0.558 0 0.307 0.255 0.558 0.566 0.558 0.352 0 0.566 0.351 0.566 0.929 0 0.578 0.214 0.929 0.566 0.929 0.311 0 0.566 0.179 0.566 0.398 0 0.515 0.96 1.461 1.482 1.461 0.222 0 0.404 0.251 0.404 0.558 0 0.307 0.17 0.558 0.377 0.558 0.207 0 0.377 0.251 0.377 0.558 0 0.307 0.255 0.558 0.566 0.558 0.311 0 0.566 0.167 0.566 0.372 0 0.204 0.255 0.372 0.566 0.372 0.311 0 0.566 0.179 0.566 0.398 0 0.656 1.024 1.461 1.859 1.461 0.443 0 0.781 0.241 0.781 0.558 0 0.307 0.255 0.558 0.566 0.558 0.311 0 0.566 0.251 0.566 0.558 0 0.307 0.255 0.558 0.566 0.558 0.311 0 0.566 0.167 0.566 0.372 0 0.204 0.424 0.372 0.943 0.372 0.519 0 0.943 0.179 0.943 0.398 0 0.515 0.96 1.461 1.482 1.461 0.222 0 0.404 0.251 0.404 0.558 0 0.347 0.356 0.558 0.943 0.558 0.587 0 0.943 0.211 0.943 0.558 0 0.347 0.356 0.558 0.943 0.558 0.519 0 0.943 0.167 0.943 0.372 0 0.204 0.509 0.372 1.132 0.372 0.754 0 1.132 0.186 1.132 0.558 0 0.389 0.398 0.558 1.32 0.558 0.726 0 1.32 0.167 1.32 0.372 0 0.204 0.509 0.372 1.132 0.372 0.754 0 1.132 0.186 1.132 0.558 0 0.389 0.398 0.558 1.32 0.558 0.922 0 1.32 0.168 1.32 0.558 0 0.403 0.419 0.558 1.509 0.558 0.83 0 1.509 0.167 1.509 0.372 0 0.209 1.055 0.372 2.411 0.372 1.795 0 2.467 0.142 2.628 0.558 0.183 0.471 1.425 0.558 7.961 0.558 6.632 0 7.744 -0.08 7.744 -0.558 z" style="fill:#ff4500;fill-rule:evenodd"/></svg>