<svg xmlns="http://www.w3.org/2000/svg" viewBox="0 0 256 256"><g transform="translate(0 -796.36)" style="color:#000"><path d="m 98.7 1049.11 c -239.91 -49.981 17.642 -393.86 139.59 -187.29 c 52.27 80.25 -16.2 213 -139.59 187.29 z" style="fill:#fff"/><path d="m 134.24 852.86 c 0 0 -4.282 27.594 -14.605 31.17 -10.322 3.58 -28.947 -15.859 -28.947 -15.859 0 0 11.504 24.808 5.121 34.21 -6.373 9.368 -32.28 5.199 -32.28 5.199 0 0 23.311 13.03 23.311 24.604 0 11.577 -23.311 24.604 -23.311 24.604 0 0 25.896 -4.169 32.28 5.199 6.373 9.368 -5.121 34.21 -5.121 34.21 0 0 18.624 -19.438 28.947 -15.859 10.322 3.58 14.605 31.17 14.605 31.17 0 0 4.282 -27.594 14.605 -31.17 10.322 -3.58 28.947 15.859 28.947 15.859 0 0 -11.504 -24.808 -5.121 -34.21 6.373 -9.368 32.28 -5.199 32.28 -5.199 0 0 -23.311 -13.03 -23.311 -24.604 0 -11.577 23.311 -24.604 23.311 -24.604 0 0 -25.896 4.169 -32.28 -5.199 -6.373 -9.368 5.121 -34.21 5.121 -34.21 0 0 -18.624 19.438 -28.947 15.859 -10.322 -3.58 -14.605 -31.17 -14.605 -31.17 z m 0 44.29 c 18.11 0 32.785 15.666 32.785 35 0 19.336 -14.685 35 -32.785 35 -18.11 0 -32.785 -15.666 -32.785 -35 0 -19.336 14.685 -35 32.785 -35 z" style="fill:#ff4500"/></g></svg>