<svg xmlns="http://www.w3.org/2000/svg" viewBox="0 0 256 256"><g style="color:#000"><path d="M 121.57,3.61 C -225.44,157.87 283.68,435.11 254.81,91.45 248.057,39.705 194.58,-14.63 121.57,3.61 z" style="fill:#fff"/><g style="fill:#ff4500"><path d="m 16.954 1.787 c -1.398 0 -2.529 1 -2.529 2.261 v 55.35 c 0 1.258 1.131 2.296 2.529 2.296 h 7.863 c 1.398 0 2.529 -1.038 2.529 -2.296 v -19.15 l 23.59 21.406 v -59.875 l -23.59 21.442 v -19.18 c 0 -1.258 -1.131 -2.261 -2.529 -2.261 h -7.863 z" transform="matrix(2.42784 0 0 1.86779 55.707 68.17)" style="stroke:#fff;stroke-linecap:round;stroke-linejoin:round;stroke-width:10.169"/><path d="m 95.46 75.932 h 10.847 v 101.97 h -10.847 z" style="fill-rule:evenodd"/></g></g></svg>