<?xml version="1.0" encoding="UTF-8" standalone="no"?>
<svg
   xmlns:dc="http://purl.org/dc/elements/1.1/"
   xmlns:cc="http://creativecommons.org/ns#"
   xmlns:rdf="http://www.w3.org/1999/02/22-rdf-syntax-ns#"
   xmlns:svg="http://www.w3.org/2000/svg"
   xmlns="http://www.w3.org/2000/svg"
   xmlns:sodipodi="http://sodipodi.sourceforge.net/DTD/sodipodi-0.dtd"
   xmlns:inkscape="http://www.inkscape.org/namespaces/inkscape"
   viewBox="0 0 256 256"
   id="svg2"
   version="1.1"
   inkscape:version="0.48.4 r9939"
   width="100%"
   height="100%"
   sodipodi:docname="testcontains.svg">
  <metadata
     id="metadata20">
    <rdf:RDF>
      <cc:Work
         rdf:about="">
        <dc:format>image/svg+xml</dc:format>
        <dc:type
           rdf:resource="http://purl.org/dc/dcmitype/StillImage" />
      </cc:Work>
    </rdf:RDF>
  </metadata>
  <defs
     id="defs18" />
  <sodipodi:namedview
     pagecolor="#ffffff"
     bordercolor="#666666"
     borderopacity="1"
     objecttolerance="10"
     gridtolerance="10"
     guidetolerance="10"
     inkscape:pageopacity="0"
     inkscape:pageshadow="2"
     inkscape:window-width="644"
     inkscape:window-height="496"
     id="namedview16"
     showgrid="false"
     inkscape:zoom="0.921875"
     inkscape:cx="128"
     inkscape:cy="128"
     inkscape:window-x="0"
     inkscape:window-y="24"
     inkscape:window-maximized="0"
     inkscape:current-layer="g6" />
  <path
     d="m 230.71 196.09 c 92.05 -130.38 -77.948 -262.48 -186.39 -156.25 -102.17 100.08 -7.449 255.59 119.69 206.98 26.526 -10.142 49.802 -26.8 66.7 -50.732 z"
     style="fill:#ffffff;color:#000"
     id="path4" />
  <g
     transform="matrix(3.1347 0 0 3.49457 20.413 28.658)"
     style="stroke:#fff"
     id="g6">
    <g
       transform="translate(0.094)"
       style="color:#000;stroke-linecap:round;stroke-linejoin:round;stroke:#ff4500"
       id="g8">
      <path
         d="m 37.13 54.38 c 5.298 -10.08 1.419 -22.546 -8.656 -27.844 -2.519 -1.324 -5.174 -2.088 -7.844 -2.313 -5.427 -0.456 -10.859 1.303 -15.03 4.813"
         style="fill:none;stroke-width:5;stroke:#ff4500"
         id="path10" />
      <path
         d="m 30.658 22.373 c 2.899 1.525 4.02 5.115 2.491 8.01 -1.525 2.899 -5.115 4.02 -8.01 2.491 -2.899 -1.525 -4.02 -5.115 -2.491 -8.01 1.525 -2.899 5.115 -4.02 8.01 -2.491 z"
         style="fill:#ffdead;display:block;stroke-width:3.12500000000000000;stroke:#ff4500"
         id="path12" />
    </g>
    <path
       d="m 43.619 22.76 v -3.466 c 0 -0.547 0.207 -0.921 0.62 -1.122 0.424 -0.201 1.144 -0.435 2.16 -0.703 0.86 -0.234 1.529 -0.558 2.01 -0.971 0.491 -0.413 0.737 -1.072 0.737 -1.976 0 -0.748 -0.285 -1.373 -0.854 -1.876 -0.569 -0.502 -1.234 -0.754 -1.993 -0.754 -0.636 0 -1.189 0.156 -1.658 0.469 -0.469 0.313 -0.949 0.754 -1.44 1.323 -0.491 0.569 -0.899 0.982 -1.222 1.239 -0.324 0.257 -0.726 0.385 -1.206 0.385 -0.625 0 -1.133 -0.223 -1.524 -0.67 -0.38 -0.458 -0.569 -1.066 -0.569 -1.825 0 -0.86 0.246 -1.652 0.737 -2.378 0.491 -0.737 1.116 -1.34 1.876 -1.809 0.77 -0.48 1.602 -0.848 2.495 -1.105 0.904 -0.268 1.742 -0.402 2.512 -0.402 1.496 0 2.864 0.296 4.103 0.888 1.239 0.592 2.227 1.457 2.964 2.596 0.748 1.128 1.122 2.434 1.122 3.919 0 1.239 -0.246 2.333 -0.737 3.282 -0.48 0.949 -1.161 1.73 -2.043 2.344 -0.871 0.603 -1.92 1.061 -3.148 1.373 v 1.239 c 0 0.715 -0.234 1.295 -0.703 1.742 -0.458 0.435 -1.044 0.653 -1.758 0.653 -0.748 0 -1.351 -0.218 -1.809 -0.653 -0.447 -0.447 -0.67 -1.027 -0.67 -1.742 z m 2.478 9.847 c -0.737 0 -1.368 -0.268 -1.892 -0.804 -0.525 -0.536 -0.787 -1.172 -0.787 -1.909 0 -0.737 0.262 -1.368 0.787 -1.892 0.525 -0.525 1.156 -0.787 1.892 -0.787 0.748 0 1.379 0.262 1.892 0.787 0.514 0.525 0.77 1.156 0.77 1.892 0 0.737 -0.257 1.373 -0.77 1.909 -0.514 0.536 -1.144 0.804 -1.892 0.804 z"
       transform="matrix(1.17694 0 0 1.17694 -7.253 -5.253)"
       style="fill:#ff4500;stroke-width:0.407"
       id="path14" />
  </g>
</svg>
