<?xml version="1.0" encoding="UTF-8" standalone="no"?>
<svg
   xmlns:dc="http://purl.org/dc/elements/1.1/"
   xmlns:cc="http://creativecommons.org/ns#"
   xmlns:rdf="http://www.w3.org/1999/02/22-rdf-syntax-ns#"
   xmlns:svg="http://www.w3.org/2000/svg"
   xmlns="http://www.w3.org/2000/svg"
   xmlns:sodipodi="http://sodipodi.sourceforge.net/DTD/sodipodi-0.dtd"
   xmlns:inkscape="http://www.inkscape.org/namespaces/inkscape"
   viewBox="0 0 256 256"
   id="svg2"
   version="1.1"
   inkscape:version="0.48.4 r9939"
   width="100%"
   height="100%"
   sodipodi:docname="testorthogonal.svg">
  <metadata
     id="metadata30">
    <rdf:RDF>
      <cc:Work
         rdf:about="">
        <dc:format>image/svg+xml</dc:format>
        <dc:type
           rdf:resource="http://purl.org/dc/dcmitype/StillImage" />
      </cc:Work>
    </rdf:RDF>
  </metadata>
  <sodipodi:namedview
     pagecolor="#ffffff"
     bordercolor="#666666"
     borderopacity="1"
     objecttolerance="10"
     gridtolerance="10"
     guidetolerance="10"
     inkscape:pageopacity="0"
     inkscape:pageshadow="2"
     inkscape:window-width="644"
     inkscape:window-height="496"
     id="namedview28"
     showgrid="false"
     inkscape:zoom="0.921875"
     inkscape:cx="128"
     inkscape:cy="128"
     inkscape:window-x="0"
     inkscape:window-y="24"
     inkscape:window-maximized="0"
     inkscape:current-layer="g14" />
  <defs
     id="defs4">
    <clipPath
       id="clipPath6">
      <path
         d="M 0,64 H64 V128 H0 z"
         id="path8" />
    </clipPath>
  </defs>
  <g
     transform="matrix(0.99575 0 0 0.99151 1.286 0.731)"
     id="g10">
    <path
       transform="matrix(0 1.03665 -1.35742 0 2320.8 1657.7)"
       d="m -1360.14 1641.33 c 46.11 -98.28 -119.59 -146.07 -181.85 -106.06 -62.25 40.01 -83.52 108.58 -13.01 143.08 70.51 34.501 148.75 61.26 194.86 -37.03 z"
       style="fill:#ffffff;color:#000"
       id="path12" />
    <g
       transform="matrix(2.63418 0 0 2.35286 55.06 67.09)"
       id="g14"
       style="fill:#ff4500">
      <g
         style="stroke:#ff4500;stroke-linecap:round;stroke-linejoin:round;fill:#ff4500"
         id="g16">
        <path
           d="m 18.307 49.21 l 22.88 -36.85"
           transform="matrix(1.37311 0.37709 -0.36792 1.40732 -1.574 -21.552)"
           style="fill:#ff4500;stroke-width:3.69799999999999995;stroke:#ff4500"
           id="path18" />
        <path
           d="m 6.81 10.35 l 41.03 45.27"
           style="fill:#ff4500;stroke-width:5.20300000000000029;stroke:#ff4500"
           id="path20" />
      </g>
      <g
         transform="matrix(1.88681 0 0 1.94293 -80.86 -26.981)"
         style="fill:#ff4500"
         id="g22">
        <path
           d="m 55.38 23.12 v -3.386 c 0 -0.534 0.178 -0.9 0.534 -1.096 0.366 -0.196 0.986 -0.425 1.862 -0.687 0.741 -0.229 1.318 -0.545 1.732 -0.949 0.423 -0.404 0.635 -1.047 0.635 -1.93 0 -0.731 -0.245 -1.341 -0.736 -1.832 -0.491 -0.491 -1.063 -0.736 -1.717 -0.736 -0.548 0 -1.025 0.153 -1.429 0.458 -0.404 0.305 -0.818 0.736 -1.241 1.292 -0.423 0.556 -0.774 0.96 -1.053 1.211 -0.279 0.251 -0.625 0.376 -1.039 0.376 -0.539 0 -0.977 -0.218 -1.313 -0.654 -0.327 -0.447 -0.491 -1.042 -0.491 -1.783 0 -0.84 0.212 -1.614 0.635 -2.323 0.423 -0.72 0.962 -1.309 1.616 -1.767 0.664 -0.469 1.381 -0.829 2.15 -1.08 0.779 -0.262 1.501 -0.393 2.165 -0.393 1.289 0 2.468 0.289 3.536 0.867 1.068 0.578 1.919 1.423 2.554 2.536 0.645 1.102 0.967 2.378 0.967 3.828 0 1.211 -0.212 2.279 -0.635 3.206 -0.414 0.927 -1 1.69 -1.761 2.29 -0.75 0.589 -1.655 1.036 -2.713 1.341 v 1.211 c 0 0.698 -0.202 1.265 -0.606 1.701 -0.394 0.425 -0.9 0.638 -1.515 0.638 -0.645 0 -1.164 -0.213 -1.559 -0.638 -0.385 -0.436 -0.577 -1 -0.577 -1.701 z m 2.136 9.619 c -0.635 0 -1.179 -0.262 -1.631 -0.785 -0.452 -0.524 -0.678 -1.145 -0.678 -1.865 0 -0.72 0.226 -1.336 0.678 -1.849 0.452 -0.513 0.996 -0.769 1.631 -0.769 0.645 0 1.188 0.256 1.631 0.769 0.443 0.513 0.664 1.129 0.664 1.849 0 0.72 -0.221 1.341 -0.664 1.865 -0.443 0.524 -0.986 0.785 -1.631 0.785 z"
           style="stroke-width:0.40699999999999997;fill:#ff4500"
           id="path24" />
        <path
           transform="matrix(0.12975 0 0 0.14468 39.24 8.208)"
           d="m 165.66 158.02 c 0 12.831 -11.08 23.23 -24.747 23.23 -13.668 0 -24.747 -10.401 -24.747 -23.23 0 -12.831 11.08 -23.23 24.747 -23.23 13.668 0 24.747 10.401 24.747 23.23 z"
           style="stroke:#fff;fill-rule:evenodd;fill:#ff4500"
           id="path26" />
      </g>
    </g>
  </g>
</svg>
