<?xml version="1.0" encoding="UTF-8" standalone="no"?>
<svg
   xmlns:dc="http://purl.org/dc/elements/1.1/"
   xmlns:cc="http://creativecommons.org/ns#"
   xmlns:rdf="http://www.w3.org/1999/02/22-rdf-syntax-ns#"
   xmlns:svg="http://www.w3.org/2000/svg"
   xmlns="http://www.w3.org/2000/svg"
   xmlns:sodipodi="http://sodipodi.sourceforge.net/DTD/sodipodi-0.dtd"
   xmlns:inkscape="http://www.inkscape.org/namespaces/inkscape"
   viewBox="0 0 256 256"
   id="svg2"
   version="1.1"
   inkscape:version="0.48.4 r9939"
   width="100%"
   height="100%"
   sodipodi:docname="text_letter_spacing.svg">
  <metadata
     id="metadata14">
    <rdf:RDF>
      <cc:Work
         rdf:about="">
        <dc:format>image/svg+xml</dc:format>
        <dc:type
           rdf:resource="http://purl.org/dc/dcmitype/StillImage" />
      </cc:Work>
    </rdf:RDF>
  </metadata>
  <defs
     id="defs12" />
  <sodipodi:namedview
     pagecolor="#ffffff"
     bordercolor="#666666"
     borderopacity="1"
     objecttolerance="10"
     gridtolerance="10"
     guidetolerance="10"
     inkscape:pageopacity="0"
     inkscape:pageshadow="2"
     inkscape:window-width="644"
     inkscape:window-height="496"
     id="namedview10"
     showgrid="false"
     inkscape:zoom="0.921875"
     inkscape:cx="128"
     inkscape:cy="128"
     inkscape:window-x="0"
     inkscape:window-y="24"
     inkscape:window-maximized="0"
     inkscape:current-layer="g4" />
  <g
     transform="matrix(0 0.99152 -0.99163 0 1046.65 1.244)"
     style="fill:#dc143c;color:#000"
     id="g4">
    <path
       d="m 231.03 999.59 c 127.95 -192.46 -263.72 -302.82 -226.07 -62.2 23.02 102.82 167.39 165.22 226.07 62.2 z"
       style="fill:#ffffff"
       id="path6" />
    <path
       d="m 68.771732,989.82465 16.818308,0 8.413478,0 16.818312,0 8.41347,0 0,-8.41134 0,-16.81409 c 0,-9.31439 -7.50554,-16.81407 -16.8183,-16.81407 -6.822444,0 -12.633191,4.05086 -15.279156,9.85623 -1.729389,-0.89446 -3.657658,-1.44489 -5.750219,-1.44489 -6.986732,0 -12.615893,5.62476 -12.615893,12.617 l 0,12.61701 z m 0,-92.49894 50.454928,0 0,-16.81408 0,-8.41134 c 0,-9.31439 -7.50555,-16.81408 -16.81831,-16.81408 l -16.81831,0 c -9.321406,0 -16.818308,7.49969 -16.818308,16.81408 l 0,8.41134 z m 4.185121,83.62317 0,-16.34106 c 0,0 6.096097,-0.009 8.430772,-0.009 2.326029,0 6.701382,1.91793 6.320917,4.20567 l 0,12.14399 z m 4.21971,-92.03451 0,-8.41134 0,-8.41135 c 0,-4.66149 3.752774,-8.41133 8.413477,-8.41133 l 16.81831,0 c 4.6607,0 8.41348,3.74984 8.41348,8.41133 l 0,8.41135 0,8.41134 z m 16.818308,92.49894 0,-12.61701 0,-4.20567 c 0,-4.66151 3.752774,-8.41134 8.413479,-8.41134 4.6607,0 8.41348,3.74983 8.41348,8.41134 l 0,16.81408 z m 0,-50.45084 8.413479,0 0,-16.81408 -8.413479,0 z m 50.454919,50.45084 8.41348,0 0,-16.81409 -8.41348,0 z m 0,-33.63677 8.41348,0 0,-16.81407 -8.41348,0 z m 0,-33.63675 8.41348,0 0,-16.81408 -8.41348,0 z m 0,-33.63676 8.41348,0 0,-16.81408 -8.41348,0 z m 25.23179,92.49894 16.81832,16.81408 16.8183,-16.81408 z m 0,-100.91029 33.63662,0 -16.8183,-16.81407 z m 8.41348,50.45085 c 0,4.66149 3.75278,8.41134 8.41348,8.41134 4.6607,0 8.41348,-3.74985 8.41348,-8.41134 0,-4.6615 -3.75278,-8.41134 -8.41348,-8.41134 -4.6607,0 -8.41348,3.74984 -8.41348,8.41134 z"
       style="fill:#ff4500;stroke:#ff4500;stroke-width:8.40812492"
       id="path8"
       inkscape:connector-curvature="0" />
  </g>
</svg>
