<?xml version="1.0" encoding="UTF-8" standalone="no"?>
<svg
   xmlns:dc="http://purl.org/dc/elements/1.1/"
   xmlns:cc="http://creativecommons.org/ns#"
   xmlns:rdf="http://www.w3.org/1999/02/22-rdf-syntax-ns#"
   xmlns:svg="http://www.w3.org/2000/svg"
   xmlns="http://www.w3.org/2000/svg"
   xmlns:sodipodi="http://sodipodi.sourceforge.net/DTD/sodipodi-0.dtd"
   xmlns:inkscape="http://www.inkscape.org/namespaces/inkscape"
   viewBox="0 0 256 256"
   id="svg2"
   version="1.1"
   inkscape:version="0.48.4 r9939"
   width="100%"
   height="100%"
   sodipodi:docname="tool_disconnect.svg">
  <metadata
     id="metadata32">
    <rdf:RDF>
      <cc:Work
         rdf:about="">
        <dc:format>image/svg+xml</dc:format>
        <dc:type
           rdf:resource="http://purl.org/dc/dcmitype/StillImage" />
      </cc:Work>
    </rdf:RDF>
  </metadata>
  <sodipodi:namedview
     pagecolor="#ffffff"
     bordercolor="#666666"
     borderopacity="1"
     objecttolerance="10"
     gridtolerance="10"
     guidetolerance="10"
     inkscape:pageopacity="0"
     inkscape:pageshadow="2"
     inkscape:window-width="644"
     inkscape:window-height="496"
     id="namedview30"
     showgrid="false"
     inkscape:zoom="0.921875"
     inkscape:cx="128"
     inkscape:cy="128"
     inkscape:window-x="0"
     inkscape:window-y="24"
     inkscape:window-maximized="0"
     inkscape:current-layer="svg2" />
  <defs
     id="defs4">
    <clipPath
       id="clipPath6">
      <path
         d="M 0,64 H64 V128 H0 z"
         id="path8" />
    </clipPath>
  </defs>
  <g
     style="color:#000"
     id="g10">
    <path
       d="m -1360.14 1641.33 c 46.11 -98.28 -119.59 -146.07 -181.85 -106.06 -62.25 40.01 -83.52 108.58 -13.01 143.08 70.51 34.501 148.75 61.26 194.86 -37.03 z"
       transform="matrix(1.03665 0 0 -1.35742 1657.71 2320.79)"
       style="fill:#ffffff"
       id="path12" />
  </g>
  <g
     transform="matrix(2.46047 0 0 2.55345 57.23 56.6)"
     style="stroke:#ff4500;stroke-linecap:round;stroke-linejoin:round"
     id="g14">
    <g
       transform="matrix(1.29772 0 0 1.29772 5.593 -21.19)"
       style="stroke-width:2.40799999999999992;fill:#ffe4c4;stroke:#ff4500"
       id="g16">
      <path
         d="m 4.689 54.08 c 5.871 -1.379 7.622 -5.519 11.465 -10.368"
         style="stroke-dasharray:2.40806999999999993 2.40806999999999993;fill:#ffe4c4;stroke:#ff4500"
         id="path18" />
      <g
         style="fill:#ffe4c4;fill-rule:evenodd;stroke:#ff4500"
         id="g20">
        <path
           d="m 26.91 35.699 l 6.02 -7.096"
           id="path22"
           style="fill:#ffe4c4;stroke:#ff4500" />
        <path
           d="m 22.437 31.906 l 6.02 -7.096"
           id="path24"
           style="fill:#ffe4c4;stroke:#ff4500" />
        <path
           d="m 29.811 37.17 c 0.508 0.43 0.582 1.176 0.163 1.67 l -5.358 6.32 c -2.605 3.072 -7.216 3.452 -10.289 0.847 -3.072 -2.605 -3.452 -7.216 -0.847 -10.289 l 5.358 -6.32 c 0.418 -0.494 1.166 -0.542 1.674 -0.112 l 9.298 7.884 z"
           id="path26"
           style="fill:#ffe4c4;stroke:#ff4500" />
      </g>
    </g>
    <path
       d="m 3.876 1.01 c -1.228 0 -2.216 0.967 -2.216 2.168 v 50.673 c 0 1.201 0.988 2.168 2.216 2.168 h 51.793 c 1.228 0 2.216 -0.967 2.216 -2.168 v -50.673 c 0 -1.201 -0.988 -2.168 -2.216 -2.168 h -51.793 z"
       style="stroke-dasharray:3.43289000000000000 3.43289000000000000;fill:none;stroke-width:3.43299999999999983;stroke:#ff4500"
       id="path28" />
  </g>
</svg>
