<?xml version="1.0" encoding="UTF-8" standalone="no"?>
<svg
   xmlns:dc="http://purl.org/dc/elements/1.1/"
   xmlns:cc="http://creativecommons.org/ns#"
   xmlns:rdf="http://www.w3.org/1999/02/22-rdf-syntax-ns#"
   xmlns:svg="http://www.w3.org/2000/svg"
   xmlns="http://www.w3.org/2000/svg"
   xmlns:sodipodi="http://sodipodi.sourceforge.net/DTD/sodipodi-0.dtd"
   xmlns:inkscape="http://www.inkscape.org/namespaces/inkscape"
   viewBox="0 0 256 256"
   id="svg2"
   version="1.1"
   inkscape:version="0.48.4 r9939"
   width="100%"
   height="100%"
   sodipodi:docname="tool_eraser_selection.svg">
  <metadata
     id="metadata32">
    <rdf:RDF>
      <cc:Work
         rdf:about="">
        <dc:format>image/svg+xml</dc:format>
        <dc:type
           rdf:resource="http://purl.org/dc/dcmitype/StillImage" />
      </cc:Work>
    </rdf:RDF>
  </metadata>
  <sodipodi:namedview
     pagecolor="#ffffff"
     bordercolor="#666666"
     borderopacity="1"
     objecttolerance="10"
     gridtolerance="10"
     guidetolerance="10"
     inkscape:pageopacity="0"
     inkscape:pageshadow="2"
     inkscape:window-width="644"
     inkscape:window-height="496"
     id="namedview30"
     showgrid="false"
     inkscape:zoom="0.921875"
     inkscape:cx="128"
     inkscape:cy="128"
     inkscape:window-x="0"
     inkscape:window-y="24"
     inkscape:window-maximized="0"
     inkscape:current-layer="svg2" />
  <defs
     id="defs4">
    <clipPath
       id="clipPath6">
      <path
         d="m -24 13 c 0 1.105 -0.672 2 -1.5 2 -0.828 0 -1.5 -0.895 -1.5 -2 0 -1.105 0.672 -2 1.5 -2 0.828 0 1.5 0.895 1.5 2 z"
         transform="matrix(15.33333 0 0 11.5 415 -125.5)"
         id="path8" />
    </clipPath>
  </defs>
  <path
     d="m 33.675 216.42 c -145.18 -221.56 251.35 -307.3 219.76 -79.37 c -12.881 92.96 -164.23 164.13 -219.76 79.37 z"
     style="fill:#ffffff;color:#000"
     id="path10" />
  <g
     transform="matrix(2.66341 0 0 2.6592 48.1 46.05)"
     style="stroke-linejoin:round;stroke:#ff4500"
     id="g12">
    <g
       style="fill:none;stroke-linecap:round;stroke:#ff4500"
       id="g14">
      <path
         d="m 6.683 4.687 c -1.105 0 -1.995 0.89 -1.995 1.995 v 46.635 c 0 1.105 0.89 1.995 1.995 1.995 h 46.635 c 1.105 0 1.995 -0.89 1.995 -1.995 v -46.635 c 0 -1.105 -0.89 -1.995 -1.995 -1.995 h -46.635 z"
         style="stroke:#ffffff;stroke-width:8.12500000000000000"
         id="path16" />
      <path
         d="m 6.683 4.687 c -1.105 0 -1.995 0.89 -1.995 1.995 v 46.635 c 0 1.105 0.89 1.995 1.995 1.995 h 46.635 c 1.105 0 1.995 -0.89 1.995 -1.995 v -46.635 c 0 -1.105 -0.89 -1.995 -1.995 -1.995 h -46.635 z"
         style="stroke-dasharray:3.12496999999999980 3.12496999999999980;stroke:#ff4500;stroke-width:3.12500000000000000"
         id="path18" />
    </g>
    <g
       transform="matrix(0.66186 0 0 0.64418 9.433 10.557)"
       style="stroke:#ff4500;fill-rule:evenodd"
       id="g20">
      <g
         style="stroke-linecap:round;stroke-width:4.16300000000000026;stroke:#ff4500"
         id="g22">
        <path
           d="m 27.17 48.89 l 27.678 -21.669 l 1.01 -15.689 l -28.335 21.657 l -0.349 15.7 z"
           style="fill:#ffffff;stroke:#ff4500"
           id="path24" />
        <path
           d="m 6.637 32.995 l 35.17 -21.531 l 14.05 0.069 l -28.335 21.657 l -20.885 -0.195 z"
           style="fill:#ff4500;stroke:#ff4500"
           id="path26" />
      </g>
      <path
         d="m 70.33 20.937 c -1.108 0 -2 0.892 -2 2 v 5.289 c 0 1.108 0.892 2 2 2 h 8.851 c 1.108 0 2 -0.892 2 -2 v -5.289 c 0 -1.108 -0.892 -2 -2 -2 h -8.851 z"
         transform="matrix(1.84582 0 0 1.84582 -121.06 -6.258)"
         style="fill:#ff4500;stroke-width:2.25499999999999989;stroke:#ff4500"
         id="path28" />
    </g>
  </g>
</svg>
