<?xml version="1.0" encoding="UTF-8" standalone="no"?>
<svg
   xmlns:dc="http://purl.org/dc/elements/1.1/"
   xmlns:cc="http://creativecommons.org/ns#"
   xmlns:rdf="http://www.w3.org/1999/02/22-rdf-syntax-ns#"
   xmlns:svg="http://www.w3.org/2000/svg"
   xmlns="http://www.w3.org/2000/svg"
   xmlns:sodipodi="http://sodipodi.sourceforge.net/DTD/sodipodi-0.dtd"
   xmlns:inkscape="http://www.inkscape.org/namespaces/inkscape"
   viewBox="0 0 256 256"
   id="svg2"
   version="1.1"
   inkscape:version="0.48.4 r9939"
   width="100%"
   height="100%"
   sodipodi:docname="tool_freehand.svg">
  <metadata
     id="metadata36">
    <rdf:RDF>
      <cc:Work
         rdf:about="">
        <dc:format>image/svg+xml</dc:format>
        <dc:type
           rdf:resource="http://purl.org/dc/dcmitype/StillImage" />
      </cc:Work>
    </rdf:RDF>
  </metadata>
  <sodipodi:namedview
     pagecolor="#ffffff"
     bordercolor="#666666"
     borderopacity="1"
     objecttolerance="10"
     gridtolerance="10"
     guidetolerance="10"
     inkscape:pageopacity="0"
     inkscape:pageshadow="2"
     inkscape:window-width="644"
     inkscape:window-height="496"
     id="namedview34"
     showgrid="false"
     inkscape:zoom="0.921875"
     inkscape:cx="128"
     inkscape:cy="128"
     inkscape:window-x="0"
     inkscape:window-y="24"
     inkscape:window-maximized="0"
     inkscape:current-layer="svg2" />
  <defs
     id="defs4">
    <clipPath
       id="clipPath6">
      <path
         d="m -24 13 c 0 1.105 -0.672 2 -1.5 2 -0.828 0 -1.5 -0.895 -1.5 -2 0 -1.105 0.672 -2 1.5 -2 0.828 0 1.5 0.895 1.5 2 z"
         transform="matrix(15.33333 0 0 11.5 415 -125.5)"
         id="path8" />
    </clipPath>
  </defs>
  <path
     d="m 38.604 211.55 c 265.25 200.11 302.94 -350.59 32.17 -173.86 -61.728 40.29 -102.43 120.86 -32.17 173.86 z"
     style="fill:#ffffff;color:#000"
     id="path10" />
  <g
     transform="matrix(1.9650111,0,0,2.3651958,86.405347,47.280468)"
     style="fill:#ffe4c4;stroke:#ff4500;stroke-linecap:round;stroke-linejoin:round"
     id="g12">
    <g
       style="fill:#ffe4c4;stroke:#ff4500;stroke-width:8.125"
       id="g14">
      <path
         d="M 19.752,46.03 C 7.026,55.311 7.026,55.311 7.026,55.311 l 7.842,-13.667 4.885,4.386 z"
         id="path16"
         style="fill:#ffe4c4;stroke:#ff4500"
         inkscape:connector-curvature="0" />
      <path
         transform="matrix(-0.7409,-0.67162,0.66989,-0.74246,0,0)"
         d="m -45.46,-20.824 h 6.467 v 46.57 h -6.467 z"
         id="path18"
         style="fill:#ffe4c4;stroke:#ff4500"
         inkscape:connector-curvature="0" />
      <path
         d="m 49.611,10.417 c 0.834,0.756 2.105,0.701 2.849,-0.123 C 53.204,9.469 53.131,8.196 52.297,7.44 L 49.847,5.22 C 49.013,4.464 47.742,4.519 46.998,5.343 46.254,6.168 46.327,7.441 47.161,8.197 l 2.45,2.22 z"
         id="path20"
         style="fill:#ffe4c4;stroke:#ff4500"
         inkscape:connector-curvature="0" />
    </g>
    <g
       transform="matrix(0.98679,0,0,0.9891,0.348,-0.052)"
       style="fill:#ffe4c4;fill-rule:evenodd;stroke:#ff4500"
       id="g22">
      <g
         transform="matrix(-1.52631,-1.38036,1.38036,-1.52631,85.51,171.65)"
         style="fill:#ffe4c4;stroke:#ff4500;stroke-width:1.53699994"
         id="g24">
        <path
           d="m 64.49,23.609 c 1.59,-7.585 1.59,-7.585 1.59,-7.585 l 1.64,7.57 -3.229,0.015 z"
           style="fill:#ffe4c4;stroke:#ff4500"
           id="path26"
           inkscape:connector-curvature="0" />
        <path
           d="m 64.51,23.617 h 3.181 V 46.52 H 64.51 z"
           style="fill:#ffe4c4;stroke:#ff4500"
           id="path28"
           inkscape:connector-curvature="0" />
      </g>
      <path
         d="m 61.966,18.726 c 0,0.342 -0.278,0.62 -0.62,0.62 -0.342,0 -0.62,-0.278 -0.62,-0.62 0,-0.342 0.278,-0.62 0.62,-0.62 0.342,0 0.62,0.278 0.62,0.62 z"
         transform="matrix(-1.0042,-0.90819,0.90819,-1.0042,54.57,126.9)"
         style="fill:#ffe4c4;stroke:#ff4500;stroke-width:2.33599997"
         id="path30"
         inkscape:connector-curvature="0" />
      <path
         d="m 65.32,46.45 c -0.554,0 -1,0.44 -1,0.986 0,0.546 0.446,0.986 1,0.986 h 1.626 c 0.554,0 1,-0.44 1,-0.986 0,-0.546 -0.446,-0.986 -1,-0.986 H 65.32 z"
         transform="matrix(-1.52631,-1.38036,1.38036,-1.52631,85.51,171.65)"
         style="fill:#ffe4c4;stroke:#ff4500;stroke-width:1.53699994"
         id="path32"
         inkscape:connector-curvature="0" />
    </g>
  </g>
</svg>
