<?xml version="1.0" encoding="UTF-8" standalone="no"?>
<svg
   xmlns:dc="http://purl.org/dc/elements/1.1/"
   xmlns:cc="http://creativecommons.org/ns#"
   xmlns:rdf="http://www.w3.org/1999/02/22-rdf-syntax-ns#"
   xmlns:svg="http://www.w3.org/2000/svg"
   xmlns="http://www.w3.org/2000/svg"
   xmlns:sodipodi="http://sodipodi.sourceforge.net/DTD/sodipodi-0.dtd"
   xmlns:inkscape="http://www.inkscape.org/namespaces/inkscape"
   viewBox="0 0 256 256"
   id="svg2"
   version="1.1"
   inkscape:version="0.48.4 r9939"
   width="100%"
   height="100%"
   sodipodi:docname="tool_rect_selection.svg">
  <metadata
     id="metadata16">
    <rdf:RDF>
      <cc:Work
         rdf:about="">
        <dc:format>image/svg+xml</dc:format>
        <dc:type
           rdf:resource="http://purl.org/dc/dcmitype/StillImage" />
      </cc:Work>
    </rdf:RDF>
  </metadata>
  <defs
     id="defs14" />
  <sodipodi:namedview
     pagecolor="#ffffff"
     bordercolor="#666666"
     borderopacity="1"
     objecttolerance="10"
     gridtolerance="10"
     guidetolerance="10"
     inkscape:pageopacity="0"
     inkscape:pageshadow="2"
     inkscape:window-width="644"
     inkscape:window-height="496"
     id="namedview12"
     showgrid="false"
     inkscape:zoom="0.921875"
     inkscape:cx="128"
     inkscape:cy="128"
     inkscape:window-x="0"
     inkscape:window-y="24"
     inkscape:window-maximized="0"
     inkscape:current-layer="g6" />
  <path
     d="m 26.373 195.84 c -92.05 -130.93 77.948 -263.6 186.39 -156.91 102.17 100.51 7.449 256.68 -119.69 207.86 -26.526 -10.185 -49.802 -26.914 -66.7 -50.948 z"
     style="fill:#ffffff;color:#000"
     id="path4" />
  <g
     transform="matrix(2.23704 0 0 2.78245 60.35 42.36)"
     style="fill:none;stroke-linecap:round;stroke-linejoin:round"
     id="g6">
    <path
       d="m 7.685 12.483 c -1.141 0 -2.06 0.919 -2.06 2.06 v 30.914 c 0 1.141 0.919 2.06 2.06 2.06 h 44.631 c 1.141 0 2.06 -0.919 2.06 -2.06 v -30.914 c 0 -1.141 -0.919 -2.06 -2.06 -2.06 h -44.631 z"
       style="stroke:#ff4500;stroke-width:10"
       id="path8" />
    <path
       d="m 7.685 12.483 c -1.141 0 -2.06 0.919 -2.06 2.06 v 30.914 c 0 1.141 0.919 2.06 2.06 2.06 h 44.631 c 1.141 0 2.06 -0.919 2.06 -2.06 v -30.914 c 0 -1.141 -0.919 -2.06 -2.06 -2.06 h -44.631 z"
       style="stroke-dasharray:5 5;stroke:#ffffff;stroke-width:5"
       id="path10" />
  </g>
</svg>
