<?xml version="1.0" encoding="UTF-8" standalone="no"?>
<svg
   xmlns:dc="http://purl.org/dc/elements/1.1/"
   xmlns:cc="http://creativecommons.org/ns#"
   xmlns:rdf="http://www.w3.org/1999/02/22-rdf-syntax-ns#"
   xmlns:svg="http://www.w3.org/2000/svg"
   xmlns="http://www.w3.org/2000/svg"
   xmlns:sodipodi="http://sodipodi.sourceforge.net/DTD/sodipodi-0.dtd"
   xmlns:inkscape="http://www.inkscape.org/namespaces/inkscape"
   viewBox="0 0 256 256"
   id="svg2"
   version="1.1"
   inkscape:version="0.48.4 r9939"
   width="100%"
   height="100%"
   sodipodi:docname="tool_picker_selection.svg">
  <metadata
     id="metadata24">
    <rdf:RDF>
      <cc:Work
         rdf:about="">
        <dc:format>image/svg+xml</dc:format>
        <dc:type
           rdf:resource="http://purl.org/dc/dcmitype/StillImage" />
      </cc:Work>
    </rdf:RDF>
  </metadata>
  <defs
     id="defs22" />
  <sodipodi:namedview
     pagecolor="#ffffff"
     bordercolor="#666666"
     borderopacity="1"
     objecttolerance="10"
     gridtolerance="10"
     guidetolerance="10"
     inkscape:pageopacity="0"
     inkscape:pageshadow="2"
     inkscape:window-width="644"
     inkscape:window-height="496"
     id="namedview20"
     showgrid="false"
     inkscape:zoom="0.921875"
     inkscape:cx="128"
     inkscape:cy="128"
     inkscape:window-x="0"
     inkscape:window-y="24"
     inkscape:window-maximized="0"
     inkscape:current-layer="svg2" />
  <path
     transform="translate(0 -796.36)"
     d="m 229.63 992.2 c 92.05 -130.93 -77.948 -263.6 -186.39 -156.91 -102.17 100.51 -7.449 256.68 119.69 207.86 c 26.526 -10.185 49.802 -26.914 66.7 -50.948 z"
     style="fill:#ffffff;color:#000"
     id="path4" />
  <g
     transform="matrix(2.40195 0 0 2.57089 53.772 51.42)"
     style="stroke-linecap:round;stroke-linejoin:round"
     id="g6">
    <g
       style="fill:none"
       id="g8">
      <path
         d="m 6.683 4.687 c -1.105 0 -1.995 0.89 -1.995 1.995 v 46.635 c 0 1.105 0.89 1.995 1.995 1.995 h 46.635 c 1.105 0 1.995 -0.89 1.995 -1.995 v -46.635 c 0 -1.105 -0.89 -1.995 -1.995 -1.995 h -46.635 z"
         style="stroke:#fff;stroke-width:8.125"
         id="path10" />
      <path
         d="m 6.683 4.687 c -1.105 0 -1.995 0.89 -1.995 1.995 v 46.635 c 0 1.105 0.89 1.995 1.995 1.995 h 46.635 c 1.105 0 1.995 -0.89 1.995 -1.995 v -46.635 c 0 -1.105 -0.89 -1.995 -1.995 -1.995 h -46.635 z"
         style="stroke-dasharray:3.12496999999999980 3.12496999999999980;stroke:#ff4500;stroke-width:3.12500000000000000"
         id="path12" />
    </g>
    <g
       transform="matrix(0.6628 -0.03879 0.04406 0.65727 7.978 12.1)"
       style="fill:#ffe4c4;stroke:#ff4500;fill-rule:evenodd"
       id="g14">
      <path
         transform="matrix(0.86302 1.05975 -1.05975 0.86302 39.03 -13.258)"
         d="m 18.714 19.512 v 26.812 c 0 1.196 0.963 2.159 2.159 2.159 1.196 0 2.159 -0.963 2.159 -2.159 v -26.812 c 0 -1.196 -4.319 -1.196 -4.319 0 z"
         style="stroke-width:3.10599999999999987;fill:#ffe4c4;stroke:#ff4500"
         id="path16" />
      <path
         transform="matrix(0.86302 1.05975 -1.05975 0.86302 39.19 -13.07)"
         d="m 17.203 4.577 c -0.957 0 -1.727 0.77 -1.727 1.727 v 12.741 c 0 0.957 0.77 1.727 1.727 1.727 h 6.802 c 0.957 0 1.727 -0.77 1.727 -1.727 v -12.741 c 0 -0.957 -0.77 -1.727 -1.727 -1.727 h -6.802 z"
         style="stroke-width:4.96900000000000031;fill:#ffe4c4;stroke:#ff4500"
         id="path18" />
    </g>
  </g>
</svg>
