<?xml version="1.0" encoding="UTF-8" standalone="no"?>
<svg
   xmlns:dc="http://purl.org/dc/elements/1.1/"
   xmlns:cc="http://creativecommons.org/ns#"
   xmlns:rdf="http://www.w3.org/1999/02/22-rdf-syntax-ns#"
   xmlns:svg="http://www.w3.org/2000/svg"
   xmlns="http://www.w3.org/2000/svg"
   xmlns:sodipodi="http://sodipodi.sourceforge.net/DTD/sodipodi-0.dtd"
   xmlns:inkscape="http://www.inkscape.org/namespaces/inkscape"
   viewBox="0 0 256 256"
   id="svg2"
   version="1.1"
   inkscape:version="0.48.4 r9939"
   width="100%"
   height="100%"
   sodipodi:docname="tool-connect.svg">
  <metadata
     id="metadata20">
    <rdf:RDF>
      <cc:Work
         rdf:about="">
        <dc:format>image/svg+xml</dc:format>
        <dc:type
           rdf:resource="http://purl.org/dc/dcmitype/StillImage" />
      </cc:Work>
    </rdf:RDF>
  </metadata>
  <defs
     id="defs18" />
  <sodipodi:namedview
     pagecolor="#ffffff"
     bordercolor="#666666"
     borderopacity="1"
     objecttolerance="10"
     gridtolerance="10"
     guidetolerance="10"
     inkscape:pageopacity="0"
     inkscape:pageshadow="2"
     inkscape:window-width="644"
     inkscape:window-height="496"
     id="namedview16"
     showgrid="false"
     inkscape:zoom="0.921875"
     inkscape:cx="128"
     inkscape:cy="128"
     inkscape:window-x="0"
     inkscape:window-y="24"
     inkscape:window-maximized="0"
     inkscape:current-layer="svg2" />
  <path
     d="m 230.71 196.09 c 92.05 -130.38 -77.948 -262.48 -186.39 -156.25 -102.17 100.08 -7.449 255.59 119.69 206.98 26.526 -10.142 49.802 -26.8 66.7 -50.732 z"
     style="fill:#ffffff;color:#000"
     id="path4" />
  <g
     transform="matrix(2.71799 0 0 2.73517 46.692 47.1)"
     style="stroke:#ff4500;stroke-linejoin:round"
     id="g6">
    <path
       d="m 17.995 44.34 v -14.04 h 25.372 v -14.216"
       style="stroke-dasharray:3.31067000000000000 3.31067000000000000;fill:none;stroke-linecap:round;stroke-width:3.31099999999999994;stroke:#ff4500"
       id="path8" />
    <g
       style="fill:#ffdead;fill-rule:evenodd;stroke-width:5.29699999999999971;stroke:#ff4500"
       id="g10">
      <path
         d="m 10.982 37.82 c -1.343 0 -2.424 1.081 -2.424 2.424 v 13.331 c 0 1.343 1.081 2.424 2.424 2.424 h 13.331 c 1.343 0 2.424 -1.081 2.424 -2.424 v -13.331 c 0 -1.343 -1.081 -2.424 -2.424 -2.424 h -13.331 z"
         id="path12"
         style="stroke:#ff4500" />
      <path
         d="m 36.714 4.35 c -1.343 0 -2.424 1.081 -2.424 2.424 v 13.331 c 0 1.343 1.081 2.424 2.424 2.424 h 13.331 c 1.343 0 2.424 -1.081 2.424 -2.424 v -13.331 c 0 -1.343 -1.081 -2.424 -2.424 -2.424 h -13.331 z"
         id="path14"
         style="stroke:#ff4500" />
    </g>
  </g>
</svg>
