<?xml version="1.0" encoding="UTF-8" standalone="no"?>
<svg
   xmlns:dc="http://purl.org/dc/elements/1.1/"
   xmlns:cc="http://creativecommons.org/ns#"
   xmlns:rdf="http://www.w3.org/1999/02/22-rdf-syntax-ns#"
   xmlns:svg="http://www.w3.org/2000/svg"
   xmlns="http://www.w3.org/2000/svg"
   xmlns:sodipodi="http://sodipodi.sourceforge.net/DTD/sodipodi-0.dtd"
   xmlns:inkscape="http://www.inkscape.org/namespaces/inkscape"
   viewBox="0 0 256 256"
   id="svg2"
   version="1.1"
   inkscape:version="0.48.4 r9939"
   width="100%"
   height="100%"
   sodipodi:docname="tool_color_washer.svg">
  <metadata
     id="metadata36">
    <rdf:RDF>
      <cc:Work
         rdf:about="">
        <dc:format>image/svg+xml</dc:format>
        <dc:type
           rdf:resource="http://purl.org/dc/dcmitype/StillImage" />
      </cc:Work>
    </rdf:RDF>
  </metadata>
  <sodipodi:namedview
     pagecolor="#ffffff"
     bordercolor="#666666"
     borderopacity="1"
     objecttolerance="10"
     gridtolerance="10"
     guidetolerance="10"
     inkscape:pageopacity="0"
     inkscape:pageshadow="2"
     inkscape:window-width="644"
     inkscape:window-height="496"
     id="namedview34"
     showgrid="false"
     inkscape:zoom="0.921875"
     inkscape:cx="128"
     inkscape:cy="128"
     inkscape:window-x="0"
     inkscape:window-y="24"
     inkscape:window-maximized="0"
     inkscape:current-layer="g12" />
  <defs
     id="defs4">
    <clipPath
       id="clipPath6">
      <path
         d="m -24 13 c 0 1.105 -0.672 2 -1.5 2 -0.828 0 -1.5 -0.895 -1.5 -2 0 -1.105 0.672 -2 1.5 -2 0.828 0 1.5 0.895 1.5 2 z"
         transform="matrix(15.33333 0 0 11.5 415 -125.5)"
         id="path8" />
    </clipPath>
  </defs>
  <path
     transform="translate(0.508 2.624)"
     d="m 222.65 37.868 c 145.18 221.56 -251.35 307.3 -219.76 79.37 12.881 -92.96 164.23 -164.13 219.76 -79.37 z"
     style="fill:#ffffff;color:#000"
     id="path10" />
  <g
     transform="matrix(2.66341 0 0 2.6592 50.27 51.48)"
     style="stroke-linejoin:round;fill:#ffe4c4;stroke:#ff4500"
     id="g12">
    <g
       style="fill:#ffe4c4;stroke-linecap:round;stroke:#ff4500"
       id="g14">
      <path
         d="m 6.683 4.687 c -1.105 0 -1.995 0.89 -1.995 1.995 v 46.635 c 0 1.105 0.89 1.995 1.995 1.995 h 46.635 c 1.105 0 1.995 -0.89 1.995 -1.995 v -46.635 c 0 -1.105 -0.89 -1.995 -1.995 -1.995 h -46.635 z"
         style="stroke:#ff4500;stroke-width:8.12500000000000000;fill:#ffe4c4"
         id="path16" />
      <path
         d="m 6.683 4.687 c -1.105 0 -1.995 0.89 -1.995 1.995 v 46.635 c 0 1.105 0.89 1.995 1.995 1.995 h 46.635 c 1.105 0 1.995 -0.89 1.995 -1.995 v -46.635 c 0 -1.105 -0.89 -1.995 -1.995 -1.995 h -46.635 z"
         style="stroke-dasharray:3.12496999999999980 3.12496999999999980;stroke:#ff4500;stroke-width:3.12500000000000000;fill:#ffe4c4"
         id="path18" />
    </g>
    <g
       transform="matrix(0.6733287,0,0,0.7032624,9.8000791,9.7180468)"
       id="g20"
       style="fill:#ffe4c4;stroke:#ff4500">
      <path
         d="M 41.31,11.03 6.435,32.499 c -1.031,0.651 -1.75,1.749 -1.75,3.063 v 9.719 c 0,2.038 1.649,3.688 3.688,3.688 h 16.281 c 0.788,0 1.465,-0.3 2.063,-0.719 l 27.594,-21.531 1,-15.625 -14,-0.063 z"
         style="fill:#ffe4c4;stroke:#ff4500;stroke-width:10.78800011;stroke-linecap:round"
         id="path22"
         inkscape:connector-curvature="0" />
      <g
         transform="matrix(0.99664,0,0,0.99664,-0.356,-0.396)"
         style="fill:#ffe4c4;fill-rule:evenodd;stroke:#ff4500"
         id="g24">
        <g
           style="fill:#ffe4c4;stroke:#ff4500;stroke-width:4.16300011;stroke-linecap:round"
           id="g26">
          <path
             d="m 27.17,48.89 27.678,-21.669 1.01,-15.689 -28.335,21.657 -0.349,15.7 z"
             style="fill:#ffe4c4;stroke:#ff4500"
             id="path28"
             inkscape:connector-curvature="0" />
          <path
             d="M 6.637,32.995 41.807,11.464 55.857,11.533 27.522,33.19 6.637,32.995 z"
             style="fill:#ffe4c4;stroke:#ff4500"
             id="path30"
             inkscape:connector-curvature="0" />
        </g>
        <path
           d="m 70.33,20.937 c -1.108,0 -2,0.892 -2,2 v 5.289 c 0,1.108 0.892,2 2,2 h 8.851 c 1.108,0 2,-0.892 2,-2 v -5.289 c 0,-1.108 -0.892,-2 -2,-2 H 70.33 z"
           transform="matrix(1.84582,0,0,1.84582,-121.06,-6.258)"
           style="fill:#ffe4c4;stroke:#ff4500;stroke-width:2.25500011"
           id="path32"
           inkscape:connector-curvature="0" />
      </g>
    </g>
  </g>
</svg>
