<?xml version="1.0" encoding="UTF-8" standalone="no"?>
<svg
   xmlns:dc="http://purl.org/dc/elements/1.1/"
   xmlns:cc="http://creativecommons.org/ns#"
   xmlns:rdf="http://www.w3.org/1999/02/22-rdf-syntax-ns#"
   xmlns:svg="http://www.w3.org/2000/svg"
   xmlns="http://www.w3.org/2000/svg"
   xmlns:sodipodi="http://sodipodi.sourceforge.net/DTD/sodipodi-0.dtd"
   xmlns:inkscape="http://www.inkscape.org/namespaces/inkscape"
   viewBox="0 0 256 256"
   id="svg2"
   version="1.1"
   inkscape:version="0.48.4 r9939"
   width="100%"
   height="100%"
   sodipodi:docname="torch-on.svg">
  <metadata
     id="metadata64">
    <rdf:RDF>
      <cc:Work
         rdf:about="">
        <dc:format>image/svg+xml</dc:format>
        <dc:type
           rdf:resource="http://purl.org/dc/dcmitype/StillImage" />
      </cc:Work>
    </rdf:RDF>
  </metadata>
  <sodipodi:namedview
     pagecolor="#ffffff"
     bordercolor="#666666"
     borderopacity="1"
     objecttolerance="10"
     gridtolerance="10"
     guidetolerance="10"
     inkscape:pageopacity="0"
     inkscape:pageshadow="2"
     inkscape:window-width="644"
     inkscape:window-height="496"
     id="namedview62"
     showgrid="false"
     inkscape:zoom="0.921875"
     inkscape:cx="128"
     inkscape:cy="128"
     inkscape:window-x="0"
     inkscape:window-y="24"
     inkscape:window-maximized="0"
     inkscape:current-layer="g30" />
  <defs
     id="defs4">
    <clipPath
       id="clipPath6">
      <rect
         x="6"
         y="6"
         width="84"
         height="80"
         rx="6"
         style="fill:#ff4500"
         id="rect8" />
    </clipPath>
    <clipPath
       id="clipPath10">
      <rect
         x="6"
         y="6"
         width="84"
         height="80"
         rx="6"
         style="fill:#ff4500"
         id="rect12" />
    </clipPath>
    <clipPath
       id="clipPath14">
      <path
         d="m 171 132 h 54.625 v 24 h -54.625"
         id="path16" />
    </clipPath>
    <clipPath
       id="clipPath18">
      <path
         d="m 74 56.824 h 129 v 139.69 h -129"
         id="path20" />
    </clipPath>
    <clipPath
       id="clipPath22">
      <path
         d="m 148 97 h 77.63 v 24 h -77.62"
         id="path24" />
    </clipPath>
    <clipPath
       id="clipPath26">
      <path
         d="m 27.707 56.824 h 82.29 v 139.69 h -82.29"
         id="path28" />
    </clipPath>
  </defs>
  <g
     transform="translate(0 -796.36)"
     id="g30">
    <path
       d="m 229.63 992.2 c 92.05 -130.93 -77.948 -263.6 -186.39 -156.91 -102.17 100.51 -7.449 256.68 119.69 207.86 26.526 -10.185 49.802 -26.914 66.7 -50.948 z"
       style="fill:#ffffff;color:#000"
       id="path32" />
    <g
       transform="matrix(0 -1.73377 -1.62147 0 767.45 1593.45)"
       style="fill:#ff4500;stroke:#ff4500"
       id="g34">
      <g
         style="color:#000;stroke:#ff4500"
         id="g36">
        <path
           transform="matrix(0 -1 -1 0 0 0)"
           d="m -401.13 -347.25 h 18.217 v 7.326 h -18.217 z"
           style="stroke-width:1.44399999999999995;stroke:#ff4500"
           id="path38" />
        <path
           transform="matrix(0 -1 -1.0004 0 438 441.36)"
           d="m 48 21 c -14.876 0 -27 12.1 -27 26.941 0 9.311 4.774 17.517 12 22.354 v 4.725 c 0 1.663 0.107 3.079 0.594 4.459 0.486 1.38 1.552 2.696 2.844 3.398 c 2.583 1.406 5.063 1.123 8.563 1.123 h 6 c 3.5 0 5.98 0.283 8.563 -1.123 1.291 -0.703 2.357 -2.02 2.844 -3.398 c 0.486 -1.38 0.594 -2.796 0.594 -4.459 v -4.725 c 7.226 -4.837 12 -13.04 12 -22.354 0 -14.844 -12.12 -26.941 -27 -26.941 z m 0 4 c 12.705 0 23 10.267 23 22.945 0 8.67 -4.892 16.08 -12 19.973 v 5.395 v 1.695 c 0 0.971 -0.157 1.912 -0.656 2.752 -0.499 0.84 -1.337 1.436 -2.145 1.738 c -1.615 0.604 -3.199 0.502 -5.199 0.502 h -6 c -2 0 -3.586 0.102 -5.201 -0.502 -0.807 -0.302 -1.645 -0.898 -2.145 -1.738 -0.499 -0.84 -0.656 -1.781 -0.656 -2.752 v -1.695 v -5.395 c -7.108 -3.895 -12 -11.303 -12 -19.973 c 0 -12.678 10.297 -22.945 23 -22.945 z"
           style="stroke-width:5.25000000000000000;stroke:#ff4500"
           id="path40" />
      </g>
      <path
         d="m 369.11 391.86 l 21.01 9.599 v -7.288 l 15.01 0.689 l -21.01 -9.601 v 7.389 z"
         id="path42"
         style="stroke:#ff4500" />
      <path
         d="m 436 390.36 h -2.318 q -2.271 0 -4.774 0.371 -2.457 0.371 -4.913 0.928 v 3.402 q 2.457 0.557 4.913 0.928 2.503 0.371 4.82 0.371 h 2.271 v -6 z"
         id="path44"
         style="stroke:#ff4500" />
      <path
         d="m 428.34 367.76 l -2.01 1.158 q -1.967 1.135 -3.949 2.708 -1.942 1.549 -3.791 3.259 l 1.702 2.946 q 2.406 -0.746 4.719 -1.652 2.353 -0.93 4.36 -2.088 l 1.967 -1.135 l -3 -5.196 z"
         id="path46"
         style="stroke:#ff4500" />
      <path
         d="m 410.39 352.03 l -1.159 2.01 q -1.136 1.966 -2.066 4.318 -0.907 2.312 -1.653 4.717 l 2.947 1.701 q 1.711 -1.848 3.26 -3.789 1.573 -1.981 2.732 -3.987 l 1.136 -1.966 l -5.198 -3 z"
         id="path48"
         style="stroke:#ff4500" />
      <path
         d="m 386.98 347.36 v 2.317 q 0 2.27 0.371 4.772 0.371 2.456 0.928 4.911 h 3.403 q 0.557 -2.456 0.928 -4.911 0.371 -2.502 0.371 -4.819 v -2.27 h -6 z"
         id="path50"
         style="stroke:#ff4500" />
      <path
         d="m 364.38 355.03 l 1.159 2.01 q 1.136 1.966 2.709 3.947 1.55 1.941 3.26 3.789 l 2.947 -1.701 q -0.746 -2.405 -1.653 -4.717 -0.93 -2.352 -2.089 -4.359 l -1.136 -1.966 l -5.198 3 z"
         id="path52"
         style="stroke:#ff4500" />
      <path
         d="m 431.34 413.76 l -2.01 -1.158 q -1.967 -1.135 -4.32 -2.065 -2.313 -0.906 -4.719 -1.652 l -1.702 2.946 q 1.849 1.71 3.791 3.259 1.982 1.572 3.989 2.731 l 1.967 1.135 l 3 -5.196 z"
         id="path54"
         style="stroke:#ff4500" />
      <path
         d="m 415.59 431.7 l -1.159 -2.01 q -1.136 -1.966 -2.709 -3.947 -1.55 -1.941 -3.26 -3.789 l -2.947 1.701 q 0.746 2.405 1.653 4.717 0.93 2.352 2.089 4.359 l 1.136 1.966 l 5.198 -3 z"
         id="path56"
         style="stroke:#ff4500" />
      <path
         d="m 392.98 439.36 v -2.317 q 0 -2.27 -0.371 -4.772 -0.371 -2.456 -0.928 -4.911 h -3.403 q -0.557 2.456 -0.928 4.911 -0.371 2.502 -0.371 4.819 v 2.27 h 6 z"
         id="path58"
         style="stroke:#ff4500" />
      <path
         d="m 369.57 434.7 l 1.159 -2.01 q 1.136 -1.966 2.066 -4.318 0.907 -2.312 1.653 -4.717 l -2.947 -1.701 q -1.711 1.848 -3.26 3.789 -1.573 1.981 -2.732 3.987 l -1.136 1.966 l 5.198 3 z"
         id="path60"
         style="stroke:#ff4500" />
    </g>
  </g>
</svg>
