<?xml version="1.0" encoding="UTF-8" standalone="no"?>
<svg
   xmlns:dc="http://purl.org/dc/elements/1.1/"
   xmlns:cc="http://creativecommons.org/ns#"
   xmlns:rdf="http://www.w3.org/1999/02/22-rdf-syntax-ns#"
   xmlns:svg="http://www.w3.org/2000/svg"
   xmlns="http://www.w3.org/2000/svg"
   xmlns:xlink="http://www.w3.org/1999/xlink"
   xmlns:sodipodi="http://sodipodi.sourceforge.net/DTD/sodipodi-0.dtd"
   xmlns:inkscape="http://www.inkscape.org/namespaces/inkscape"
   viewBox="0 0 256 256"
   id="svg2"
   version="1.1"
   inkscape:version="0.48.4 r9939"
   width="100%"
   height="100%"
   sodipodi:docname="vector.svg">
  <metadata
     id="metadata29">
    <rdf:RDF>
      <cc:Work
         rdf:about="">
        <dc:format>image/svg+xml</dc:format>
        <dc:type
           rdf:resource="http://purl.org/dc/dcmitype/StillImage" />
      </cc:Work>
    </rdf:RDF>
  </metadata>
  <sodipodi:namedview
     pagecolor="#ffffff"
     bordercolor="#666666"
     borderopacity="1"
     objecttolerance="10"
     gridtolerance="10"
     guidetolerance="10"
     inkscape:pageopacity="0"
     inkscape:pageshadow="2"
     inkscape:window-width="644"
     inkscape:window-height="496"
     id="namedview27"
     showgrid="false"
     inkscape:zoom="0.921875"
     inkscape:cx="128"
     inkscape:cy="128"
     inkscape:window-x="0"
     inkscape:window-y="24"
     inkscape:window-maximized="0"
     inkscape:current-layer="svg2" />
  <defs
     id="defs4">
    <path
       id="0"
       d="m 153.54 78.21 c 0 12.274 -9.95 22.22 -22.22 22.22 -12.274 0 -22.22 -9.95 -22.22 -22.22 0 -12.274 9.95 -22.22 22.22 -22.22 12.274 0 22.22 9.95 22.22 22.22 z"
       style="fill:#ff4500;color:#000" />
  </defs>
  <use
     transform="translate(15.781 13.13)"
     xlink:href="#0"
     id="use7" />
  <use
     transform="translate(18.424 91.18)"
     xlink:href="#0"
     id="use9" />
  <use
     transform="translate(-66.794 48.49)"
     xlink:href="#0"
     id="use11" />
  <path
     d="m 139.46 254.09 c -153.31 14.591 -194.57 -231.48 -37.15 -250.59 c 144.75 -23.684 219.3 199.36 75.47 243.97 -12.16 4.888 -25.458 4.794 -38.31 6.617 z"
     style="fill:#ffffff;color:#000"
     id="path13" />
  <g
     transform="matrix(3.11499 0 0 3.5272 33.465 23.811)"
     style="stroke:#ff4500;stroke-linecap:round;stroke-linejoin:round"
     id="g15">
    <path
       d="m 13.787 47.18 l -14.424 -8.328 l 14.424 -8.328 v 16.655 z"
       transform="matrix(0.54463 -0.3763 0.14084 0.52716 30.408 20.236)"
       style="color:#000;stroke-width:5.35799999999999965;stroke:#ff4500"
       id="path17" />
    <path
       d="m 10.624 16.878 l 38.751 26.24"
       style="fill:none;stroke-width:5;stroke:#ff4500"
       id="path19" />
    <g
       style="fill:#ffdead;display:block;color:#000;stroke-width:3.12500000000000000;stroke:#ff4500"
       id="g21">
      <path
         d="m 54.52 46.09 c -1.638 2.837 -5.27 3.81 -8.107 2.172 -2.837 -1.638 -3.81 -5.27 -2.172 -8.107 1.638 -2.837 5.27 -3.81 8.107 -2.172 2.837 1.638 3.81 5.27 2.172 8.107 z"
         id="path23"
         style="stroke:#ff4500" />
      <path
         d="m 15.762 19.84 c -1.638 2.837 -5.27 3.81 -8.107 2.172 -2.837 -1.638 -3.81 -5.27 -2.172 -8.107 1.638 -2.837 5.27 -3.81 8.107 -2.172 2.837 1.638 3.81 5.27 2.172 8.107 z"
         id="path25"
         style="stroke:#ff4500" />
    </g>
  </g>
</svg>
