<?xml version="1.0" encoding="UTF-8" standalone="no"?>
<svg
   xmlns:dc="http://purl.org/dc/elements/1.1/"
   xmlns:cc="http://creativecommons.org/ns#"
   xmlns:rdf="http://www.w3.org/1999/02/22-rdf-syntax-ns#"
   xmlns:svg="http://www.w3.org/2000/svg"
   xmlns="http://www.w3.org/2000/svg"
   xmlns:sodipodi="http://sodipodi.sourceforge.net/DTD/sodipodi-0.dtd"
   xmlns:inkscape="http://www.inkscape.org/namespaces/inkscape"
   viewBox="0 0 256 256"
   id="svg2"
   version="1.1"
   inkscape:version="0.48.4 r9939"
   width="100%"
   height="100%"
   sodipodi:docname="vectordifference.svg">
  <metadata
     id="metadata38">
    <rdf:RDF>
      <cc:Work
         rdf:about="">
        <dc:format>image/svg+xml</dc:format>
        <dc:type
           rdf:resource="http://purl.org/dc/dcmitype/StillImage" />
      </cc:Work>
    </rdf:RDF>
  </metadata>
  <defs
     id="defs36" />
  <sodipodi:namedview
     pagecolor="#ffffff"
     bordercolor="#666666"
     borderopacity="1"
     objecttolerance="10"
     gridtolerance="10"
     guidetolerance="10"
     inkscape:pageopacity="0"
     inkscape:pageshadow="2"
     inkscape:window-width="644"
     inkscape:window-height="496"
     id="namedview34"
     showgrid="false"
     inkscape:zoom="0.921875"
     inkscape:cx="128"
     inkscape:cy="128"
     inkscape:window-x="0"
     inkscape:window-y="24"
     inkscape:window-maximized="0"
     inkscape:current-layer="svg2" />
  <path
     d="m 130.25 4.351 c 111.92 -22.16 154.42 129.84 105.92 212.38 -38.644 65.768 -171.02 46.969 -220.37 -41.813 -49.35 -88.78 24.617 -152.78 114.45 -170.57 z"
     style="fill:#ffffff;color:#000"
     id="path4" />
  <g
     transform="matrix(3.1377 0 0 3.13005 34.468 36.85)"
     style="stroke:#ff4500;stroke-linecap:round;stroke-linejoin:round"
     id="g6">
    <g
       transform="matrix(-0.25882 -0.96593 0.96593 -0.25882 -10.664 52.12)"
       id="g8"
       style="stroke:#ff4500">
      <path
         d="m 37.563 43.08 l -9.03 1.038 l 6.683 -9.818 l 2.346 8.78 z"
         style="color:#000;stroke-width:3.12500000000000000;stroke:#ff4500"
         id="path10" />
      <path
         d="m 17.638 29.656 l 16.406 11.11"
         style="fill:none;stroke-width:5;stroke:#ff4500"
         id="path12" />
    </g>
    <path
       d="m 9.344 33.707 l 32.458 -12.595"
       style="fill:none;stroke-width:5;stroke:#ff4500"
       id="path14" />
    <g
       style="color:#000;stroke-width:3.12500000000000000;stroke:#ff4500"
       id="g16">
      <path
         d="m 19.225 33.659 c -0.848 3.164 -4.104 5.04 -7.268 4.196 -3.164 -0.848 -5.04 -4.104 -4.196 -7.268 0.848 -3.164 4.104 -5.04 7.268 -4.196 3.164 0.848 5.04 4.104 4.196 7.268 z"
         style="fill:#ffdead;display:block;stroke:#ff4500"
         id="path18" />
      <path
         d="m 35.17 23.628 l -4.208 8.06 l -4.376 -11.04 l 8.584 2.985 z"
         style="fill:#ff4500;stroke:#ff4500"
         id="path20" />
    </g>
    <g
       transform="matrix(0.98975 0.1428 -0.1428 0.98975 1.465 -7.01)"
       style="fill:#ff4500;stroke:#ff4500"
       id="g22">
      <g
         style="fill:#ff4500;stroke:#ff4500"
         id="g24">
        <path
           d="m 40.767 21.297 l 12.208 28.21"
           style="stroke-width:5;stroke:#ff4500"
           id="path26" />
        <path
           d="m 50.11 42.966 l -8.15 -4.02 l 10.937 -4.629 l -2.787 8.65 z"
           style="color:#000;stroke-width:3.12500000000000000;stroke:#ff4500"
           id="path28" />
      </g>
      <path
         d="m 58.37 50.913 c -0.848 3.164 -4.104 5.04 -7.268 4.196 -3.164 -0.848 -5.04 -4.104 -4.196 -7.268 0.848 -3.164 4.104 -5.04 7.268 -4.196 3.164 0.848 5.04 4.104 4.196 7.268 z"
         style="fill:#ffdead;display:block;color:#000;stroke-width:3.12500000000000000;stroke:#ff4500"
         id="path30" />
    </g>
    <path
       d="m 44.755 22.733 c -0.848 3.164 -4.104 5.04 -7.268 4.196 -3.164 -0.848 -5.04 -4.104 -4.196 -7.268 0.848 -3.164 4.104 -5.04 7.268 -4.196 3.164 0.848 5.04 4.104 4.196 7.268 z"
       style="fill:#ffdead;display:block;color:#000;stroke-width:3.12500000000000000;stroke:#ff4500"
       id="path32" />
  </g>
</svg>
