<svg xmlns="http://www.w3.org/2000/svg" viewBox="0 0 256 256"><g transform="translate(0 -796.36)" style="color:#000"><path d="m 3.605 917.93 c 154.26 -347.01 431.5 162.11 87.84 133.24 -51.745 -6.753 -106.08 -60.23 -87.84 -133.24 z" style="fill:#fff"/><g transform="matrix(11.86957 0 0 11.65217 -690.74 -9263.94)" style="fill:#ff4500;stroke:#ff4500"><rect x="64" y="870" width="2" height="2" ry="0.379" rx="0.385"/><rect x="68" y="870" width="2" height="2" ry="0.379" rx="0.385"/><rect x="72" y="870" width="2" height="2" ry="0.379" rx="0.385"/><rect x="64" y="874.02" width="2" height="2" ry="0.379" rx="0.385"/><rect x="68" y="874.02" width="2" height="2" ry="0.379" rx="0.385"/><rect x="72" y="874.02" width="2" height="2" ry="0.379" rx="0.385"/><rect x="64" y="878" width="2" height="2" ry="0.379" rx="0.385"/><rect x="68" y="878" width="2" height="2" ry="0.379" rx="0.385"/><rect x="72" y="878" width="2" height="2" ry="0.379" rx="0.385"/></g></g></svg>