<svg xmlns="http://www.w3.org/2000/svg" viewBox="0 0 256 256"><g transform="translate(0 -796.36)"><g transform="matrix(-1 0 0 1 256 0)" style="fill:#fff;color:#000"><path d="m 231.03 999.59 c 127.95 -192.46 -280.09 -311 -226.07 -62.2 23.02 102.82 167.39 165.22 226.07 62.2 z"/><path d="m 125.84 850.43 c -0.138 0.002 -0.277 0.011 -0.414 0.024 -1.45 0.051 -2.843 0.714 -3.579 1.704 l -20.866 28.658 l -20.891 28.658 c -0.755 1.048 -0.749 2.415 0.016 3.459 0.765 1.044 2.259 1.726 3.783 1.728 h 23.25 v 65.16 c 0 4.36 3.529 7.865 7.889 7.865 h 21.232 c 4.36 0 7.889 -3.504 7.889 -7.865 v -65.16 h 23.25 c 1.524 -0.001 3.02 -0.683 3.783 -1.728 0.765 -1.044 0.771 -2.41 0.016 -3.459 l -20.891 -28.658 l -20.866 -28.658 c -0.733 -1 -2.14 -1.679 -3.604 -1.729 z"/><path d="m 125.83 850.43 c -0.138 0.002 -0.279 0.014 -0.417 0.028 -1.45 0.051 -2.847 0.732 -3.584 1.722 l -20.864 28.642 l -20.891 28.67 c -0.755 1.048 -0.737 2.401 0.028 3.445 0.765 1.044 2.254 1.721 3.778 1.722 h 23.25 v 65.17 c 0 4.36 3.53 7.862 7.89 7.862 h 10.862 v -137.27 c -0.018 -0.001 -0.037 0.001 -0.055 0 z"/></g><g transform="translate(0 796.36)" style="fill:#ff4500;fill-rule:evenodd"><path d="m 93.38 189.38 c 0 -8.403 -0.062 -9.688 -0.469 -9.688 -0.258 0 -0.469 0.211 -0.469 0.469 0 0.258 -0.211 0.469 -0.469 0.469 -0.258 0 -0.469 0.141 -0.469 0.313 0 0.172 -0.211 0.313 -0.469 0.313 -0.258 0 -0.469 0.211 -0.469 0.469 0 0.258 -0.211 0.469 -0.469 0.469 -0.258 0 -0.469 0.211 -0.469 0.469 0 0.258 -0.211 0.469 -0.469 0.469 -0.258 0 -0.469 0.211 -0.469 0.469 0 0.258 -0.151 0.469 -0.335 0.469 -0.433 0 -1.228 0.795 -1.228 1.228 0 0.184 -0.211 0.335 -0.469 0.335 -0.258 0 -0.469 0.211 -0.469 0.469 0 0.258 -0.211 0.469 -0.469 0.469 -0.258 0 -0.469 0.141 -0.469 0.313 0 0.172 -0.211 0.313 -0.469 0.313 -0.258 0 -0.469 0.211 -0.469 0.469 0 0.258 -0.211 0.469 -0.469 0.469 -0.258 0 -0.469 0.211 -0.469 0.469 0 0.258 -0.151 0.469 -0.335 0.469 -0.433 0 -1.228 0.795 -1.228 1.228 0 0.184 -0.211 0.335 -0.469 0.335 -0.258 0 -0.469 0.211 -0.469 0.469 0 0.258 -0.211 0.469 -0.469 0.469 -0.258 0 -0.469 0.211 -0.469 0.469 0 0.258 -0.211 0.469 -0.469 0.469 -0.258 0 -0.469 0.141 -0.469 0.313 0 0.172 -0.211 0.313 -0.469 0.313 -0.258 0 -0.469 0.211 -0.469 0.469 0 0.258 -0.141 0.469 -0.313 0.469 -0.172 0 -0.313 0.211 -0.313 0.469 0 0.258 -0.211 0.469 -0.469 0.469 -0.258 0 -0.469 0.141 -0.469 0.313 0 0.172 -0.211 0.313 -0.469 0.313 -0.258 0 -0.469 0.211 -0.469 0.469 0 0.258 -0.211 0.469 -0.469 0.469 -0.258 0 -0.469 0.211 -0.469 0.469 0 0.258 -0.211 0.469 -0.469 0.469 -0.258 0 -0.469 0.211 -0.469 0.469 0 0.292 -0.295 0.469 -0.781 0.469 -0.486 0 -0.781 -0.177 -0.781 -0.469 0 -0.258 -0.211 -0.469 -0.469 -0.469 -0.258 0 -0.469 -0.211 -0.469 -0.469 0 -0.258 -0.211 -0.469 -0.469 -0.469 -0.258 0 -0.469 -0.151 -0.469 -0.335 0 -0.433 -0.795 -1.228 -1.228 -1.228 -0.184 0 -0.335 -0.211 -0.335 -0.469 0 -0.258 -0.211 -0.469 -0.469 -0.469 -0.258 0 -0.469 -0.211 -0.469 -0.469 0 -0.258 -0.211 -0.469 -0.469 -0.469 -0.258 0 -0.469 -0.141 -0.469 -0.313 0 -0.172 -0.211 -0.313 -0.469 -0.313 -0.258 0 -0.469 -0.211 -0.469 -0.469 0 -0.258 -0.141 -0.469 -0.313 -0.469 -0.172 0 -0.313 -0.211 -0.313 -0.469 0 -0.258 -0.211 -0.469 -0.469 -0.469 -0.258 0 -0.469 -0.211 -0.469 -0.469 0 -0.258 -0.211 -0.469 -0.469 -0.469 -0.258 0 -0.469 -0.141 -0.469 -0.313 0 -0.172 -0.211 -0.313 -0.469 -0.313 -0.258 0 -0.469 -0.211 -0.469 -0.469 0 -0.258 -0.211 -0.469 -0.469 -0.469 -0.258 0 -0.469 -0.211 -0.469 -0.469 0 -0.258 -0.211 -0.469 -0.469 -0.469 -0.292 0 -0.469 -0.295 -0.469 -0.781 0 -0.486 0.177 -0.781 0.469 -0.781 0.258 0 0.469 -0.141 0.469 -0.313 0 -0.172 0.211 -0.313 0.469 -0.313 0.258 0 0.469 -0.211 0.469 -0.469 0 -0.258 0.211 -0.469 0.469 -0.469 0.258 0 0.469 -0.211 0.469 -0.469 0 -0.258 0.211 -0.469 0.469 -0.469 0.258 0 0.469 -0.141 0.469 -0.313 0 -0.172 0.211 -0.313 0.469 -0.313 0.258 0 0.469 -0.211 0.469 -0.469 0 -0.258 0.141 -0.469 0.313 -0.469 0.172 0 0.313 -0.211 0.313 -0.469 0 -0.258 0.211 -0.469 0.469 -0.469 0.258 0 0.469 -0.211 0.469 -0.469 0 -0.258 0.211 -0.469 0.469 -0.469 0.258 0 0.469 -0.141 0.469 -0.313 0 -0.172 0.211 -0.313 0.469 -0.313 0.258 0 0.469 -0.211 0.469 -0.469 0 -0.258 0.211 -0.469 0.469 -0.469 0.258 0 0.469 -0.151 0.469 -0.335 0 -0.433 0.795 -1.228 1.228 -1.228 0.184 0 0.335 -0.211 0.335 -0.469 0 -0.258 0.211 -0.469 0.469 -0.469 0.258 0 0.469 -0.211 0.469 -0.469 0 -0.258 0.211 -0.469 0.469 -0.469 0.258 0 0.469 -0.211 0.469 -0.469 0 -0.258 0.211 -0.469 0.469 -0.469 0.258 0 0.469 -0.141 0.469 -0.313 0 -0.172 0.211 -0.313 0.469 -0.313 0.258 0 0.469 -0.211 0.469 -0.469 0 -0.258 0.141 -0.469 0.313 -0.469 0.172 0 0.313 -0.211 0.313 -0.469 0 -0.258 0.211 -0.469 0.469 -0.469 0.258 0 0.469 -0.141 0.469 -0.313 0 -0.172 0.211 -0.313 0.469 -0.313 0.258 0 0.469 -0.211 0.469 -0.469 0 -0.258 0.211 -0.469 0.469 -0.469 0.258 0 0.469 -0.211 0.469 -0.469 0 -0.258 0.211 -0.469 0.469 -0.469 0.258 0 0.469 -0.211 0.469 -0.469 0 -0.258 0.223 -0.469 0.495 -0.469 0.272 0 0.436 -0.176 0.365 -0.391 -0.1 -0.299 -2.478 -0.41 -10.182 -0.473 l -10.05 -0.082 v -8.27 v -8.27 l 19.14 -0.085 c 10.527 -0.047 21.988 -0.044 25.469 0.006 l 6.328 0.091 v 24.362 v 24.362 h -8.75 h -8.75 v -9.688 z"/><path d="m 149.87 180.71 c -0.047 -10.1 -0.044 -21.06 0.006 -24.363 l 0.091 -6 l 6.315 -0.091 c 3.473 -0.05 14.928 -0.052 25.456 -0.005 l 19.14 0.085 v 8.27 v 8.27 l -10.05 0.082 c -7.704 0.063 -10.08 0.174 -10.182 0.473 -0.072 0.215 0.093 0.391 0.365 0.391 0.272 0 0.495 0.211 0.495 0.469 0 0.258 0.211 0.469 0.469 0.469 0.258 0 0.469 0.211 0.469 0.469 0 0.258 0.211 0.469 0.469 0.469 0.258 0 0.469 0.151 0.469 0.335 0 0.433 0.795 1.228 1.228 1.228 0.184 0 0.335 0.211 0.335 0.469 0 0.258 0.211 0.469 0.469 0.469 0.258 0 0.469 0.211 0.469 0.469 0 0.258 0.211 0.469 0.469 0.469 0.258 0 0.469 0.141 0.469 0.313 0 0.172 0.211 0.313 0.469 0.313 0.258 0 0.469 0.211 0.469 0.469 0 0.258 0.141 0.469 0.313 0.469 0.172 0 0.313 0.211 0.313 0.469 0 0.258 0.211 0.469 0.469 0.469 0.258 0 0.469 0.211 0.469 0.469 0 0.258 0.211 0.469 0.469 0.469 0.258 0 0.469 0.141 0.469 0.313 0 0.172 0.211 0.313 0.469 0.313 0.258 0 0.469 0.211 0.469 0.469 0 0.258 0.211 0.469 0.469 0.469 0.258 0 0.469 0.211 0.469 0.469 0 0.258 0.151 0.469 0.335 0.469 0.433 0 1.228 0.795 1.228 1.228 0 0.184 0.211 0.335 0.469 0.335 0.258 0 0.469 0.211 0.469 0.469 0 0.258 0.211 0.469 0.469 0.469 0.258 0 0.469 0.211 0.469 0.469 0 0.258 0.211 0.469 0.469 0.469 0.258 0 0.469 0.141 0.469 0.313 0 0.172 0.211 0.313 0.469 0.313 0.258 0 0.469 0.211 0.469 0.469 0 0.258 0.211 0.469 0.469 0.469 0.258 0 0.469 0.151 0.469 0.335 0 0.433 0.795 1.228 1.228 1.228 0.184 0 0.335 0.352 0.335 0.781 0 0.486 -0.177 0.781 -0.469 0.781 -0.258 0 -0.469 0.211 -0.469 0.469 0 0.258 -0.141 0.469 -0.313 0.469 -0.172 0 -0.313 0.211 -0.313 0.469 0 0.258 -0.211 0.469 -0.469 0.469 -0.258 0 -0.469 0.141 -0.469 0.313 0 0.172 -0.211 0.313 -0.469 0.313 -0.258 0 -0.469 0.211 -0.469 0.469 0 0.258 -0.211 0.469 -0.469 0.469 -0.258 0 -0.469 0.211 -0.469 0.469 0 0.258 -0.211 0.469 -0.469 0.469 -0.258 0 -0.469 0.211 -0.469 0.469 0 0.258 -0.151 0.469 -0.335 0.469 -0.433 0 -1.228 0.795 -1.228 1.228 0 0.184 -0.211 0.335 -0.469 0.335 -0.258 0 -0.469 0.211 -0.469 0.469 0 0.258 -0.211 0.469 -0.469 0.469 -0.258 0 -0.469 0.141 -0.469 0.313 0 0.172 -0.211 0.313 -0.469 0.313 -0.258 0 -0.469 0.211 -0.469 0.469 0 0.258 -0.211 0.469 -0.469 0.469 -0.258 0 -0.469 0.211 -0.469 0.469 0 0.258 -0.211 0.469 -0.469 0.469 -0.258 0 -0.469 0.211 -0.469 0.469 0 0.292 -0.295 0.469 -0.781 0.469 -0.486 0 -0.781 -0.177 -0.781 -0.469 0 -0.258 -0.141 -0.469 -0.313 -0.469 -0.172 0 -0.313 -0.211 -0.313 -0.469 0 -0.258 -0.211 -0.469 -0.469 -0.469 -0.258 0 -0.469 -0.211 -0.469 -0.469 0 -0.258 -0.211 -0.469 -0.469 -0.469 -0.258 0 -0.469 -0.141 -0.469 -0.313 0 -0.172 -0.211 -0.313 -0.469 -0.313 -0.258 0 -0.469 -0.211 -0.469 -0.469 0 -0.258 -0.211 -0.469 -0.469 -0.469 -0.258 0 -0.469 -0.211 -0.469 -0.469 0 -0.258 -0.151 -0.469 -0.335 -0.469 -0.433 0 -1.228 -0.795 -1.228 -1.228 0 -0.184 -0.211 -0.335 -0.469 -0.335 -0.258 0 -0.469 -0.211 -0.469 -0.469 0 -0.258 -0.211 -0.469 -0.469 -0.469 -0.258 0 -0.469 -0.211 -0.469 -0.469 0 -0.258 -0.211 -0.469 -0.469 -0.469 -0.258 0 -0.469 -0.141 -0.469 -0.313 0 -0.172 -0.211 -0.313 -0.469 -0.313 -0.258 0 -0.469 -0.211 -0.469 -0.469 0 -0.258 -0.211 -0.469 -0.469 -0.469 -0.258 0 -0.469 -0.151 -0.469 -0.335 0 -0.433 -0.795 -1.228 -1.228 -1.228 -0.184 0 -0.335 -0.211 -0.335 -0.469 0 -0.258 -0.211 -0.469 -0.469 -0.469 -0.258 0 -0.469 -0.211 -0.469 -0.469 0 -0.258 -0.211 -0.469 -0.469 -0.469 -0.258 0 -0.469 -0.141 -0.469 -0.313 0 -0.172 -0.211 -0.313 -0.469 -0.313 -0.258 0 -0.469 -0.211 -0.469 -0.469 0 -0.258 -0.211 -0.469 -0.469 -0.469 -0.258 0 -0.469 -0.211 -0.469 -0.469 0 -0.258 -0.141 -0.469 -0.313 -0.469 -0.172 0 -0.313 -0.211 -0.313 -0.469 0 -0.258 -0.211 -0.469 -0.469 -0.469 -0.258 0 -0.469 -0.141 -0.469 -0.313 0 -0.172 -0.211 -0.313 -0.469 -0.313 -0.258 0 -0.469 -0.211 -0.469 -0.469 0 -0.258 -0.211 -0.469 -0.469 -0.469 -0.407 0 -0.469 1.285 -0.469 9.688 v 9.688 h -8.743 h -8.743 l -0.085 -18.359 z"/><path d="m 149.87 106.64 c -0.05 -3.395 -0.053 -14.434 -0.006 -24.531 l 0.085 -18.359 h 8.743 h 8.743 v 9.688 c 0 8.403 0.062 9.688 0.469 9.688 0.258 0 0.469 -0.211 0.469 -0.469 0 -0.258 0.211 -0.469 0.469 -0.469 0.258 0 0.469 -0.141 0.469 -0.313 0 -0.172 0.211 -0.313 0.469 -0.313 0.258 0 0.469 -0.211 0.469 -0.469 0 -0.258 0.141 -0.469 0.313 -0.469 0.172 0 0.313 -0.211 0.313 -0.469 0 -0.258 0.211 -0.469 0.469 -0.469 0.258 0 0.469 -0.141 0.469 -0.313 0 -0.172 0.211 -0.313 0.469 -0.313 0.258 0 0.469 -0.211 0.469 -0.469 0 -0.258 0.211 -0.469 0.469 -0.469 0.258 0 0.469 -0.211 0.469 -0.469 0 -0.258 0.211 -0.469 0.469 -0.469 0.258 0 0.469 -0.141 0.469 -0.313 0 -0.172 0.211 -0.313 0.469 -0.313 0.258 0 0.469 -0.211 0.469 -0.469 0 -0.258 0.141 -0.469 0.313 -0.469 0.172 0 0.313 -0.211 0.313 -0.469 0 -0.258 0.211 -0.469 0.469 -0.469 0.258 0 0.469 -0.211 0.469 -0.469 0 -0.258 0.211 -0.469 0.469 -0.469 0.258 0 0.469 -0.141 0.469 -0.313 0 -0.172 0.211 -0.313 0.469 -0.313 0.258 0 0.469 -0.211 0.469 -0.469 0 -0.258 0.211 -0.469 0.469 -0.469 0.258 0 0.469 -0.211 0.469 -0.469 0 -0.258 0.151 -0.469 0.335 -0.469 0.433 0 1.228 -0.795 1.228 -1.228 0 -0.184 0.211 -0.335 0.469 -0.335 0.258 0 0.469 -0.211 0.469 -0.469 0 -0.258 0.211 -0.469 0.469 -0.469 0.258 0 0.469 -0.211 0.469 -0.469 0 -0.258 0.211 -0.469 0.469 -0.469 0.258 0 0.469 -0.141 0.469 -0.313 0 -0.172 0.211 -0.313 0.469 -0.313 0.258 0 0.469 -0.211 0.469 -0.469 0 -0.258 0.211 -0.469 0.469 -0.469 0.258 0 0.469 -0.151 0.469 -0.335 0 -0.551 0.848 -1.228 1.54 -1.228 0.356 0 0.647 0.141 0.647 0.313 0 0.172 0.211 0.313 0.469 0.313 0.258 0 0.469 0.211 0.469 0.469 0 0.258 0.211 0.469 0.469 0.469 0.258 0 0.469 0.211 0.469 0.469 0 0.258 0.211 0.469 0.469 0.469 0.258 0 0.469 0.141 0.469 0.313 0 0.172 0.211 0.313 0.469 0.313 0.258 0 0.469 0.211 0.469 0.469 0 0.258 0.211 0.469 0.469 0.469 0.258 0 0.469 0.211 0.469 0.469 0 0.258 0.141 0.469 0.313 0.469 0.172 0 0.313 0.211 0.313 0.469 0 0.258 0.211 0.469 0.469 0.469 0.258 0 0.469 0.141 0.469 0.313 0 0.172 0.211 0.313 0.469 0.313 0.258 0 0.469 0.211 0.469 0.469 0 0.258 0.211 0.469 0.469 0.469 0.258 0 0.469 0.211 0.469 0.469 0 0.258 0.211 0.469 0.469 0.469 0.258 0 0.469 0.141 0.469 0.313 0 0.172 0.211 0.313 0.469 0.313 0.258 0 0.469 0.211 0.469 0.469 0 0.258 0.141 0.469 0.313 0.469 0.172 0 0.313 0.211 0.313 0.469 0 0.258 0.211 0.469 0.469 0.469 0.292 0 0.469 0.295 0.469 0.781 0 0.43 -0.151 0.781 -0.335 0.781 -0.433 0 -1.228 0.795 -1.228 1.228 0 0.184 -0.211 0.335 -0.469 0.335 -0.258 0 -0.469 0.211 -0.469 0.469 0 0.258 -0.211 0.469 -0.469 0.469 -0.258 0 -0.469 0.211 -0.469 0.469 0 0.258 -0.211 0.469 -0.469 0.469 -0.258 0 -0.469 0.141 -0.469 0.313 0 0.172 -0.211 0.313 -0.469 0.313 -0.258 0 -0.469 0.211 -0.469 0.469 0 0.258 -0.211 0.469 -0.469 0.469 -0.258 0 -0.469 0.151 -0.469 0.335 0 0.433 -0.795 1.228 -1.228 1.228 -0.184 0 -0.335 0.211 -0.335 0.469 0 0.258 -0.211 0.469 -0.469 0.469 -0.258 0 -0.469 0.211 -0.469 0.469 0 0.258 -0.211 0.469 -0.469 0.469 -0.258 0 -0.469 0.211 -0.469 0.469 0 0.258 -0.211 0.469 -0.469 0.469 -0.258 0 -0.469 0.141 -0.469 0.313 0 0.172 -0.211 0.313 -0.469 0.313 -0.258 0 -0.469 0.211 -0.469 0.469 0 0.258 -0.141 0.469 -0.313 0.469 -0.172 0 -0.313 0.211 -0.313 0.469 0 0.258 -0.211 0.469 -0.469 0.469 -0.258 0 -0.469 0.141 -0.469 0.313 0 0.172 -0.211 0.313 -0.469 0.313 -0.258 0 -0.469 0.211 -0.469 0.469 0 0.258 -0.211 0.469 -0.469 0.469 -0.258 0 -0.469 0.211 -0.469 0.469 0 0.258 -0.211 0.469 -0.469 0.469 -0.258 0 -0.469 0.151 -0.469 0.335 0 0.433 -0.795 1.228 -1.228 1.228 -0.184 0 -0.335 0.211 -0.335 0.469 0 0.258 -0.211 0.469 -0.469 0.469 -0.258 0 -0.469 0.211 -0.469 0.469 0 0.258 -0.223 0.469 -0.495 0.469 -0.272 0 -0.436 0.176 -0.365 0.391 0.1 0.299 2.478 0.41 10.182 0.473 l 10.05 0.082 v 8.433 v 8.433 h -25.456 h -25.456 l -0.091 -6.172 z"/><path d="m 59.938 104.38 v -8.433 l 10.05 -0.082 c 7.704 -0.063 10.08 -0.174 10.182 -0.473 0.072 -0.215 -0.093 -0.391 -0.365 -0.391 -0.272 0 -0.495 -0.211 -0.495 -0.469 0 -0.258 -0.211 -0.469 -0.469 -0.469 -0.258 0 -0.469 -0.211 -0.469 -0.469 0 -0.258 -0.211 -0.469 -0.469 -0.469 -0.258 0 -0.469 -0.141 -0.469 -0.313 0 -0.172 -0.211 -0.313 -0.469 -0.313 -0.258 0 -0.469 -0.211 -0.469 -0.469 0 -0.258 -0.211 -0.469 -0.469 -0.469 -0.258 0 -0.469 -0.211 -0.469 -0.469 0 -0.258 -0.141 -0.469 -0.313 -0.469 -0.172 0 -0.313 -0.211 -0.313 -0.469 0 -0.258 -0.211 -0.469 -0.469 -0.469 -0.258 0 -0.469 -0.141 -0.469 -0.313 0 -0.172 -0.211 -0.313 -0.469 -0.313 -0.258 0 -0.469 -0.211 -0.469 -0.469 0 -0.258 -0.211 -0.469 -0.469 -0.469 -0.258 0 -0.469 -0.211 -0.469 -0.469 0 -0.258 -0.211 -0.469 -0.469 -0.469 -0.258 0 -0.469 -0.141 -0.469 -0.313 0 -0.172 -0.211 -0.313 -0.469 -0.313 -0.258 0 -0.469 -0.211 -0.469 -0.469 0 -0.258 -0.141 -0.469 -0.313 -0.469 -0.172 0 -0.313 -0.211 -0.313 -0.469 0 -0.258 -0.211 -0.469 -0.469 -0.469 -0.258 0 -0.469 -0.211 -0.469 -0.469 0 -0.258 -0.211 -0.469 -0.469 -0.469 -0.258 0 -0.469 -0.141 -0.469 -0.313 0 -0.172 -0.211 -0.313 -0.469 -0.313 -0.258 0 -0.469 -0.211 -0.469 -0.469 0 -0.258 -0.211 -0.469 -0.469 -0.469 -0.258 0 -0.469 -0.151 -0.469 -0.335 0 -0.433 -0.795 -1.228 -1.228 -1.228 -0.184 0 -0.335 -0.211 -0.335 -0.469 0 -0.258 -0.211 -0.469 -0.469 -0.469 -0.258 0 -0.469 -0.211 -0.469 -0.469 0 -0.258 -0.211 -0.469 -0.469 -0.469 -0.258 0 -0.469 -0.211 -0.469 -0.469 0 -0.258 -0.211 -0.469 -0.469 -0.469 -0.258 0 -0.469 -0.141 -0.469 -0.313 0 -0.172 -0.211 -0.313 -0.469 -0.313 -0.292 0 -0.469 -0.295 -0.469 -0.781 0 -0.486 0.177 -0.781 0.469 -0.781 0.258 0 0.469 -0.211 0.469 -0.469 0 -0.258 0.211 -0.469 0.469 -0.469 0.258 0 0.469 -0.211 0.469 -0.469 0 -0.258 0.211 -0.469 0.469 -0.469 0.258 0 0.469 -0.141 0.469 -0.313 0 -0.172 0.211 -0.313 0.469 -0.313 0.258 0 0.469 -0.211 0.469 -0.469 0 -0.258 0.211 -0.469 0.469 -0.469 0.258 0 0.469 -0.151 0.469 -0.335 0 -0.433 0.795 -1.228 1.228 -1.228 0.184 0 0.335 -0.211 0.335 -0.469 0 -0.258 0.211 -0.469 0.469 -0.469 0.258 0 0.469 -0.211 0.469 -0.469 0 -0.258 0.211 -0.469 0.469 -0.469 0.258 0 0.469 -0.211 0.469 -0.469 0 -0.258 0.151 -0.469 0.335 -0.469 0.433 0 1.228 -0.795 1.228 -1.228 0 -0.184 0.211 -0.335 0.469 -0.335 0.258 0 0.469 -0.211 0.469 -0.469 0 -0.258 0.211 -0.469 0.469 -0.469 0.258 0 0.469 -0.141 0.469 -0.313 0 -0.172 0.352 -0.313 0.781 -0.313 0.43 0 0.781 0.141 0.781 0.313 0 0.172 0.211 0.313 0.469 0.313 0.258 0 0.469 0.211 0.469 0.469 0 0.258 0.211 0.469 0.469 0.469 0.258 0 0.469 0.211 0.469 0.469 0 0.258 0.211 0.469 0.469 0.469 0.258 0 0.469 0.141 0.469 0.313 0 0.172 0.211 0.313 0.469 0.313 0.258 0 0.469 0.211 0.469 0.469 0 0.258 0.141 0.469 0.313 0.469 0.172 0 0.313 0.211 0.313 0.469 0 0.258 0.211 0.469 0.469 0.469 0.258 0 0.469 0.211 0.469 0.469 0 0.258 0.211 0.469 0.469 0.469 0.258 0 0.469 0.141 0.469 0.313 0 0.172 0.211 0.313 0.469 0.313 0.258 0 0.469 0.211 0.469 0.469 0 0.258 0.211 0.469 0.469 0.469 0.258 0 0.469 0.151 0.469 0.335 0 0.433 0.795 1.228 1.228 1.228 0.184 0 0.335 0.211 0.335 0.469 0 0.258 0.211 0.469 0.469 0.469 0.258 0 0.469 0.211 0.469 0.469 0 0.258 0.211 0.469 0.469 0.469 0.258 0 0.469 0.211 0.469 0.469 0 0.258 0.211 0.469 0.469 0.469 0.258 0 0.469 0.141 0.469 0.313 0 0.172 0.211 0.313 0.469 0.313 0.258 0 0.469 0.211 0.469 0.469 0 0.258 0.141 0.469 0.313 0.469 0.172 0 0.313 0.211 0.313 0.469 0 0.258 0.211 0.469 0.469 0.469 0.258 0 0.469 0.141 0.469 0.313 0 0.172 0.211 0.313 0.469 0.313 0.258 0 0.469 0.211 0.469 0.469 0 0.258 0.211 0.469 0.469 0.469 0.258 0 0.469 0.211 0.469 0.469 0 0.258 0.211 0.469 0.469 0.469 0.258 0 0.469 0.141 0.469 0.313 0 0.172 0.211 0.313 0.469 0.313 0.258 0 0.469 0.211 0.469 0.469 0 0.258 0.211 0.469 0.469 0.469 0.407 0 0.469 -1.285 0.469 -9.688 v -9.688 h 8.75 h 8.75 v 24.531 v 24.531 h -25.469 h -25.469 v -8.433 z"/></g></g></svg>