<svg xmlns="http://www.w3.org/2000/svg" viewBox="0 0 256 256"><defs><clipPath><path d="m 171 132 h 54.625 v 24 h -54.625"/></clipPath><clipPath><path d="m 148 97 h 77.63 v 24 h -77.62"/></clipPath><clipPath><path d="m 27.707 56.824 h 82.29 v 139.69 h -82.29"/></clipPath><clipPath><path d="m 74 56.824 h 129 v 139.69 h -129"/></clipPath></defs><g transform="translate(0 -796.36)" style="color:#000"><path d="m 195.83 822.74 c -130.93 -92.05 -263.6 77.948 -156.91 186.39 c 100.51 102.17 256.68 7.449 207.86 -119.69 -10.185 -26.526 -26.914 -49.802 -50.948 -66.7 z" style="fill:#fff"/><g transform="translate(-0.023 803.71)"><path d="m 125 56 c -32.776 0 -59.34 26.568 -59.34 59.34 0 32.776 26.568 59.34 59.34 59.34 32.776 0 59.34 -26.568 59.34 -59.34 c 0 -32.776 -26.568 -59.34 -59.34 -59.34 z m 0 30.28 c 16.04 0 29.06 13.02 29.06 29.06 0 16.04 -13.02 29.03 -29.06 29.03 -16.04 0 -29.03 -12.992 -29.03 -29.03 0 -16.04 12.992 -29.06 29.03 -29.06 z" style="fill:#ff4500"/><path d="m 125 93.88 c -11.851 0 -21.469 9.618 -21.469 21.469 0 11.851 9.618 21.469 21.469 21.469 11.851 0 21.469 -9.618 21.469 -21.469 c 0 -11.851 -9.618 -21.469 -21.469 -21.469 z m 0 12.625 c 4.877 0 8.844 3.966 8.844 8.844 0 4.877 -3.966 8.844 -8.844 8.844 -4.877 0 -8.844 -3.966 -8.844 -8.844 0 -4.877 3.966 -8.844 8.844 -8.844 z" style="fill:#fd9da2"/><path d="m 102.78 160.81 c -2.066 0 -4.04 0.404 -5.844 1.125 8.182 4.928 17.79 7.75 28.06 7.75 10.273 0 19.88 -2.822 28.06 -7.75 -1.802 -0.721 -3.778 -1.125 -5.844 -1.125 h -44.44 z m -13.625 7.938 c -1.284 2.274 -2.031 4.911 -2.031 7.719 0 8.674 6.982 15.656 15.656 15.656 h 44.44 c 8.674 0 15.656 -6.982 15.656 -15.656 0 -2.808 -0.748 -5.445 -2.031 -7.719 -10.252 6.906 -22.58 10.938 -35.844 10.938 -13.264 0 -25.591 -4.03 -35.844 -10.938 z" style="fill:#ff4500"/></g></g><path d="m 173.67 190.89 c 1.047 0.298 4.093 0.543 6.769 0.545 l 4.866 0.003 l 0.331 17.817 c 0.322 17.313 0.361 17.842 1.407 18.727 0.93 0.787 2.229 0.91 9.568 0.91 7.987 0 8.549 -0.065 9.459 -1.094 0.904 -1.023 0.977 -2.245 1.124 -18.727 l 0.158 -17.633 l 5.171 -0.061 c 7.645 -0.091 8.183 -0.273 8.366 -2.825 0.141 -1.96 -0.32 -2.78 -6.868 -12.222 -14.385 -20.745 -15.37 -21.843 -18.878 -21.05 -1.726 0.388 -4.446 3.918 -16.691 21.654 -5.579 8.08 -6.685 9.991 -6.685 11.55 0 1.715 0.155 1.912 1.903 2.409 z" style="fill:#ff4500"/></svg>