<?xml version="1.0" encoding="UTF-8" standalone="no"?>
<!-- Created with Inkscape (http://www.inkscape.org/) -->
<svg id="svg3786" xmlns:rdf="http://www.w3.org/1999/02/22-rdf-syntax-ns#" xmlns="http://www.w3.org/2000/svg" height="16" width="16" version="1.0" xmlns:cc="http://creativecommons.org/ns#" xmlns:xlink="http://www.w3.org/1999/xlink" xmlns:dc="http://purl.org/dc/elements/1.1/">
 <metadata id="metadata39">
  <rdf:RDF>
   <cc:Work rdf:about="">
    <dc:format>image/svg+xml</dc:format>
    <dc:type rdf:resource="http://purl.org/dc/dcmitype/StillImage"/>
    <dc:title/>
   </cc:Work>
  </rdf:RDF>
 </metadata>
 <defs id="defs3788">
  <linearGradient id="linearGradient3932" x1="17.741" gradientUnits="userSpaceOnUse" x2="11.218" gradientTransform="matrix(.99778 0 0 .88551 .053179 4.2044)" y1="24.05" y2="12.883">
   <stop id="stop3934" style="stop-color:#acacac" offset="0"/>
   <stop id="stop3936" style="stop-color:#b6b6b6" offset=".1"/>
   <stop id="stop3938" style="stop-color:#d9d9d9" offset=".1"/>
   <stop id="stop3940" style="stop-color:#d4d4d4" offset="1"/>
  </linearGradient>
  <linearGradient id="linearGradient3961" y2="15" xlink:href="#linearGradient3932" gradientUnits="userSpaceOnUse" x2="25" gradientTransform="translate(-1,8)" y1="35" x1="25"/>
 </defs>
 <g id="layer1" transform="translate(0,-32)">
  <g id="g3963" transform="translate(0,5)">
   <path id="path3965" d="m2 32.5-1.5 8.5v1.5h15v-1.5312l-1.5-8.469z" style="fill-rule:evenodd;fill:url(#linearGradient3961);enable-background:new"/>
   <path id="path3967" d="m1 40h14v1h-14z" style="opacity:0.41;fill:#fff"/>
   <path id="path3969" style="opacity:0.41;stroke-linejoin:round;stroke:#000;enable-background:new;fill:none" d="m2 32.5-1.5 8.5v1.5h15v-1.5312l-1.5-8.469z"/>
   <path id="path3971" style="opacity:.2;fill:#fff;enable-background:new;fill-rule:evenodd" d="m2.4375 1-1.4375 7.9688 0.0938 0.25 1.3437-7.2188h11.124l1.344 7.2188 0.094-0.2813-1.438-7.9375z" transform="translate(0,32)"/>
   <path id="path3973" style="opacity:.2" d="m3.5 1c-0.2761 0-0.5 0.2239-0.5 0.5s0.2239 0.5 0.5 0.5 0.5-0.2239 0.5-0.5-0.2239-0.5-0.5-0.5zm9 0c-0.276 0-0.5 0.2239-0.5 0.5s0.224 0.5 0.5 0.5 0.5-0.2239 0.5-0.5-0.224-0.5-0.5-0.5zm-10 6c-0.2761 0-0.5 0.2239-0.5 0.5s0.2239 0.5 0.5 0.5 0.5-0.2239 0.5-0.5-0.2239-0.5-0.5-0.5zm11 0c-0.276 0-0.5 0.2239-0.5 0.5s0.224 0.5 0.5 0.5 0.5-0.2239 0.5-0.5-0.224-0.5-0.5-0.5z" transform="translate(0,32)"/>
  </g>
  <g id="g3949" transform="translate(0,3)">
   <path id="path3951" style="fill:url(#linearGradient3961);enable-background:new;fill-rule:evenodd" d="m2 32.5-1.5 8.5v1.5h15v-1.5312l-1.5-8.469z"/>
   <path id="path3953" style="opacity:0.41;fill:#fff" d="m1 40h14v1h-14z"/>
   <path id="path3955" d="m2 32.5-1.5 8.5v1.5h15v-1.5312l-1.5-8.469z" style="opacity:0.41;stroke-linejoin:round;stroke:#000;enable-background:new;fill:none"/>
   <path id="path3957" style="opacity:.2;fill:#fff;enable-background:new;fill-rule:evenodd" d="m2.4375 1-1.4375 7.9688 0.0938 0.25 1.3437-7.2188h11.124l1.344 7.2188 0.094-0.2813-1.438-7.9375z" transform="translate(0,32)"/>
   <path id="path3959" style="opacity:.2" d="m3.5 1c-0.2761 0-0.5 0.2239-0.5 0.5s0.2239 0.5 0.5 0.5 0.5-0.2239 0.5-0.5-0.2239-0.5-0.5-0.5zm9 0c-0.276 0-0.5 0.2239-0.5 0.5s0.224 0.5 0.5 0.5 0.5-0.2239 0.5-0.5-0.224-0.5-0.5-0.5zm-10 6c-0.2761 0-0.5 0.2239-0.5 0.5s0.2239 0.5 0.5 0.5 0.5-0.2239 0.5-0.5-0.2239-0.5-0.5-0.5zm11 0c-0.276 0-0.5 0.2239-0.5 0.5s0.224 0.5 0.5 0.5 0.5-0.2239 0.5-0.5-0.224-0.5-0.5-0.5z" transform="translate(0,32)"/>
  </g>
  <g id="g3942" transform="translate(0,1)">
   <path id="rect6431" d="m2 32.5-1.5 8.5v1.5h15v-1.5312l-1.5-8.469z" style="fill-rule:evenodd;fill:url(#linearGradient3961);enable-background:new"/>
   <path id="rect3875" d="m1 40h14v1h-14z" style="opacity:0.41;fill:#fff"/>
   <path id="path3116" style="opacity:0.41;stroke-linejoin:round;stroke:#000;enable-background:new;fill:none" d="m2 32.5-1.5 8.5v1.5h15v-1.5312l-1.5-8.469z"/>
   <path id="path3907" style="opacity:.2;fill:#fff;enable-background:new;fill-rule:evenodd" d="m2.4375 1-1.4375 7.9688 0.0938 0.25 1.3437-7.2188h11.124l1.344 7.2188 0.094-0.2813-1.438-7.9375z" transform="translate(0,32)"/>
   <path id="path3923" style="opacity:.2" d="m3.5 1c-0.2761 0-0.5 0.2239-0.5 0.5s0.2239 0.5 0.5 0.5 0.5-0.2239 0.5-0.5-0.2239-0.5-0.5-0.5zm9 0c-0.276 0-0.5 0.2239-0.5 0.5s0.224 0.5 0.5 0.5 0.5-0.2239 0.5-0.5-0.224-0.5-0.5-0.5zm-10 6c-0.2761 0-0.5 0.2239-0.5 0.5s0.2239 0.5 0.5 0.5 0.5-0.2239 0.5-0.5-0.2239-0.5-0.5-0.5zm11 0c-0.276 0-0.5 0.2239-0.5 0.5s0.224 0.5 0.5 0.5 0.5-0.2239 0.5-0.5-0.224-0.5-0.5-0.5z" transform="translate(0,32)"/>
  </g>
 </g>
</svg>
