<?xml version="1.0" encoding="UTF-8" standalone="no"?>
<!-- Created with Inkscape (http://www.inkscape.org/) -->
<svg id="svg3786" xmlns:rdf="http://www.w3.org/1999/02/22-rdf-syntax-ns#" xmlns="http://www.w3.org/2000/svg" height="16" width="16" version="1.0" xmlns:cc="http://creativecommons.org/ns#" xmlns:xlink="http://www.w3.org/1999/xlink" xmlns:dc="http://purl.org/dc/elements/1.1/">
 <metadata id="metadata39">
  <rdf:RDF>
   <cc:Work rdf:about="">
    <dc:format>image/svg+xml</dc:format>
    <dc:type rdf:resource="http://purl.org/dc/dcmitype/StillImage"/>
    <dc:title/>
   </cc:Work>
  </rdf:RDF>
 </metadata>
 <defs id="defs3788">
  <linearGradient id="linearGradient4072" y2="15" gradientUnits="userSpaceOnUse" x2="25.25" gradientTransform="translate(-1,8)" y1="39" x1="25.25">
   <stop id="stop3108" style="stop-color:#acacac" offset="0"/>
   <stop id="stop3110" style="stop-color:#b6b6b6" offset=".083333"/>
   <stop id="stop3112" style="stop-color:#d9d9d9" offset=".083333"/>
   <stop id="stop3114" style="stop-color:#d4d4d4" offset="1"/>
  </linearGradient>
 </defs>
 <g id="layer1" transform="translate(0,-32)">
  <path id="rect6431" style="fill:url(#linearGradient4072);enable-background:new;fill-rule:evenodd" d="m2 32.5-1.5 12.5v1.5h15v-1.5312l-1.5-12.469z"/>
  <rect id="rect3875" style="opacity:0.41;fill:#fff" ry="0" height="1" width="14" y="44" x="1"/>
  <path id="path3116" d="m2 32.5-1.5 12.5v1.5h15v-1.5312l-1.5-12.469z" style="opacity:0.41;stroke-linejoin:round;stroke:#000;enable-background:new;fill:none"/>
  <path id="path3907" style="opacity:.2;fill:#fff;enable-background:new;fill-rule:evenodd" d="m2.4375 1-1.4375 11.969 0.0938 0.25 1.3437-11.219h11.124l1.344 11.219 0.094-0.281-1.438-11.938z" transform="translate(0,32)"/>
  <path id="path3923" style="opacity:.2" d="m3.5 1c-0.2761 0-0.5 0.2239-0.5 0.5s0.2239 0.5 0.5 0.5 0.5-0.2239 0.5-0.5-0.2239-0.5-0.5-0.5zm9 0c-0.276 0-0.5 0.2239-0.5 0.5s0.224 0.5 0.5 0.5 0.5-0.2239 0.5-0.5-0.224-0.5-0.5-0.5zm-10 10c-0.2761 0-0.5 0.224-0.5 0.5s0.2239 0.5 0.5 0.5 0.5-0.224 0.5-0.5-0.2239-0.5-0.5-0.5zm11 0c-0.276 0-0.5 0.224-0.5 0.5s0.224 0.5 0.5 0.5 0.5-0.224 0.5-0.5-0.224-0.5-0.5-0.5z" transform="translate(0,32)"/>
 </g>
</svg>
