<svg xmlns="http://www.w3.org/2000/svg" viewBox="0 0 256 256"><defs><clipPath><path transform="matrix(15.33333 0 0 11.5 415 -125.5)" d="m -24 13 c 0 1.105 -0.672 2 -1.5 2 -0.828 0 -1.5 -0.895 -1.5 -2 0 -1.105 0.672 -2 1.5 -2 0.828 0 1.5 0.895 1.5 2 z"/></clipPath></defs><path transform="translate(1.087 -797.45)" d="m 116.8 1051.73 c 154.62 14.702 196.24 -233.26 37.473 -252.52 -145.99 -23.866 -221.18 200.9 -76.12 245.85 c 12.265 4.925 25.677 4.832 38.643 6.668 z" style="fill:#9acd32;color:#000"/><g transform="matrix(-2.87571 0 0 2.96505 199.73 58.47)" style="fill:#e1e1e1;stroke:#7f7f7f"><path d="M 0,0 H 14 V 14 H 0 z"/><g><path d="m 17 0 h 14 v 14 h -14 z"/><path d="m 34 0 h 14 v 14 h -14 z"/><path d="m 0 17 h 14 v 14 h -14 z"/><path d="m 17 17 h 14 v 14 h -14 z"/><path d="m 34 17 h 14 v 14 h -14 z"/><path d="m 0 34 h 14 v 14 h -14 z"/><path d="m 17 34 h 14 v 14 h -14 z"/><path d="m 34 34 h 14 v 14 h -14 z"/></g><g><path d="m 0.5 0.5 v 13 h 13 v -13 h -13 z m 17 0 v 13 h 13 v -13 h -13 z m 17 0 v 13 h 13 v -13 h -13 z m -34 17 v 13 h 13 v -13 h -13 z m 17 0 v 13 h 13 v -13 h -13 z m 17 0 v 13 h 13 v -13 h -13 z m -34 17 v 13 h 13 v -13 h -13 z m 17 0 v 13 h 13 v -13 h -13 z m 17 0 v 13 h 13 v -13 h -13 z" style="opacity:0.4"/><path d="m 1.5 1.5 v 11 h 11 v -11 h -11 z m 17 0 v 11 h 11 v -11 h -11 z m 17 0 v 11 h 11 v -11 h -11 z m -34 17 v 11 h 11 v -11 h -11 z m 17 0 v 11 h 11 v -11 h -11 z m 17 0 v 11 h 11 v -11 h -11 z m -34 17 v 11 h 11 v -11 h -11 z m 17 0 v 11 h 11 v -11 h -11 z m 17 0 v 11 h 11 v -11 h -11 z" style="opacity:0.3"/><path transform="matrix(0.34774 0 0 0.33726 -21.454 -19.718)" d="m 65.17 79.4 v -17.356 h 16.814 h 16.814 v 17.356 v 17.356 h -16.814 h -16.814 v -17.356 z" style="fill:#fff;stroke:none;fill-rule:evenodd"/></g></g></svg>