<svg xmlns="http://www.w3.org/2000/svg" viewBox="0 0 256 256"><defs><clipPath><path transform="matrix(15.33333 0 0 11.5 415 -125.5)" d="m -24 13 c 0 1.105 -0.672 2 -1.5 2 -0.828 0 -1.5 -0.895 -1.5 -2 0 -1.105 0.672 -2 1.5 -2 0.828 0 1.5 0.895 1.5 2 z"/></clipPath></defs><path transform="translate(1.087 -797.45)" d="m 116.8 1051.73 c 154.62 14.702 196.24 -233.26 37.473 -252.52 -145.99 -23.866 -221.18 200.9 -76.12 245.85 c 12.265 4.925 25.677 4.832 38.643 6.668 z" style="fill:#9acd32;color:#000"/><g transform="matrix(2.87571 0 0 2.96505 61.695 58.47)" style="fill:#e1e1e1;stroke:#7f7f7f"><path d="M 0,0 H 14 V 14 H 0 z"/><g><path d="M 17,0 H 31 V 14 H 17 z"/><path d="M 34,0 H 48 V 14 H 34 z"/><path d="M 0,17 H 14 V 31 H 0 z"/><path d="M 17,17 H 31 V 31 H 17 z"/><path d="M 34,17 H 48 V 31 H 34 z"/><path d="M 0,34 H 14 V 48 H 0 z"/><path d="M 17,34 H 31 V 48 H 17 z"/><path d="M 34,34 H 48 V 48 H 34 z"/></g><g><path d="m 0.5 0.5 v 13 h 13 v -13 h -13 z m 17 0 v 13 h 13 v -13 h -13 z m 17 0 v 13 h 13 v -13 h -13 z m -34 17 v 13 h 13 v -13 h -13 z m 17 0 v 13 h 13 v -13 h -13 z m 17 0 v 13 h 13 v -13 h -13 z m -34 17 v 13 h 13 v -13 h -13 z m 17 0 v 13 h 13 v -13 h -13 z m 17 0 v 13 h 13 v -13 h -13 z" style="opacity:0.4"/><path d="m 1.5 1.5 v 11 h 11 v -11 h -11 z m 17 0 v 11 h 11 v -11 h -11 z m 17 0 v 11 h 11 v -11 h -11 z m -34 17 v 11 h 11 v -11 h -11 z m 17 0 v 11 h 11 v -11 h -11 z m 17 0 v 11 h 11 v -11 h -11 z m -34 17 v 11 h 11 v -11 h -11 z m 17 0 v 11 h 11 v -11 h -11 z m 17 0 v 11 h 11 v -11 h -11 z" style="opacity:0.3"/><g style="stroke:none;fill-rule:evenodd"><path transform="matrix(0.34774 0 0 0.33726 -21.454 -19.718)" d="M 65.17,79.4 V 62.044 H 81.984 98.798 V 79.4 96.756 H 81.984 65.17 V 79.4 z"/><path d="m 35.13,23.913 v -5.897 h 5.868 5.868 v 5.897 5.897 H 40.998 35.13 v -5.897 z" style="fill:#fff"/><path d="M 1.1,7.03 V 1.119 h 5.93 5.93 V 7.03 12.941 H 7.03 1.1 V 7.03 z M 12.097,7.07 12.054,1.998 H 7.034 2.014 L 1.971,7.07 1.928,12.142 H 7.039 12.15 L 12.107,7.07 z" style="fill:#c4c4c4"/></g></g></g></svg>