<svg xmlns="http://www.w3.org/2000/svg" viewBox="0 0 256 256"><defs><linearGradient gradientUnits="userSpaceOnUse" x2="0" y2="37" y1="15" id="0"><stop id="1" style="stop-color:#fff"/><stop id="2" offset="1" style="stop-color:#fff;stop-opacity:0"/></linearGradient></defs><path d="m 125.73 798.56 c -111.92 -22.351 -154.42 130.95 -105.92 214.2 38.644 66.33 171.02 47.37 220.37 -42.17 49.35 -89.54 -24.617 -154.09 -114.45 -172.03 z" transform="translate(0 -796.36)" style="fill:#9acd32;color:#000"/><g transform="matrix(3.8407293 0 0 3.9119883 32.188662 23.921715)"><path d="m 3 15 v 24 h 42 v -24 h -42 z" style="opacity:0.1"/><path d="m 3 14.258464 v 24 h 42 v -24 h -42 z" style="fill:#fff"/><g style="fill:#9acd32"><path d="m 7.056 19.012299 v 1.898062 h 1.9923132 v -1.898062 h -1.9923132 z m 1.9923132 1.898062 v 13.223161 h 1.9591078 v -13.223161 h -1.9591078 z m 1.9591078 0 h 1.992313 v -1.898062 h -1.992313 v 1.898062 z m 0 13.223161 v 1.866478 h 1.992313 v -1.866478 h -1.992313 z m -1.9591078 0 h -1.9923132 v 1.866478 h 1.9923132 v -1.866478 z"/><path d="m 7.056,18 0,1.898061 1.9924024,0 0,-1.898061 L 7.056,18 z m 1.9924024,1.898061 0,13.223162 1.9591956,0 0,-13.223162 -1.9591956,0 z m 1.9591956,0 1.992402,0 L 13,18 l -1.992402,0 0,1.898061 z m 0,13.223162 0,1.866478 1.992402,0 0,-1.866478 -1.992402,0 z m -1.9591956,0 -1.9924024,0 0,1.866478 1.9924024,0 0,-1.866478 z"/></g><g style="fill:none"><path d="m 3.53125 14.53125 v 22.9375 h 40.9375 v -22.9375 h -40.9375 z" id="3" style="opacity:0.4;stroke:#000"/><path d="m 4.53125 15.53125 v 20.9375 h 38.9375 v -20.9375 h -38.9375 z" id="4" style="opacity:0.65;stroke:url(#0)"/></g></g></svg>