<?xml version="1.0" encoding="UTF-8" standalone="no"?>
<svg
   xmlns:dc="http://purl.org/dc/elements/1.1/"
   xmlns:cc="http://creativecommons.org/ns#"
   xmlns:rdf="http://www.w3.org/1999/02/22-rdf-syntax-ns#"
   xmlns:svg="http://www.w3.org/2000/svg"
   xmlns="http://www.w3.org/2000/svg"
   xmlns:sodipodi="http://sodipodi.sourceforge.net/DTD/sodipodi-0.dtd"
   xmlns:inkscape="http://www.inkscape.org/namespaces/inkscape"
   viewBox="0 0 256 256"
   id="svg2"
   version="1.1"
   inkscape:version="0.48.4 r9939"
   width="100%"
   height="100%"
   sodipodi:docname="bwtonal.svg">
  <metadata
     id="metadata16">
    <rdf:RDF>
      <cc:Work
         rdf:about="">
        <dc:format>image/svg+xml</dc:format>
        <dc:type
           rdf:resource="http://purl.org/dc/dcmitype/StillImage" />
        <dc:title></dc:title>
      </cc:Work>
    </rdf:RDF>
  </metadata>
  <sodipodi:namedview
     pagecolor="#ffffff"
     bordercolor="#666666"
     borderopacity="1"
     objecttolerance="10"
     gridtolerance="10"
     guidetolerance="10"
     inkscape:pageopacity="0"
     inkscape:pageshadow="2"
     inkscape:window-width="698"
     inkscape:window-height="768"
     id="namedview14"
     showgrid="false"
     inkscape:zoom="0.921875"
     inkscape:cx="122.52342"
     inkscape:cy="128"
     inkscape:window-x="580"
     inkscape:window-y="25"
     inkscape:window-maximized="0"
     inkscape:current-layer="svg2" />
  <defs
     id="defs4">
    <clipPath
       id="clipPath6">
      <path
         d="M 0,64 H64 V128 H0 z"
         id="path8" />
    </clipPath>
    <style
       type="text/css"
       id="current-color-scheme">.ColorScheme-Text {
        color:#4d4d4d;
      }
      .ColorScheme-Background {
        color:#eff0f1;
      }
      .ColorScheme-Highlight {
        color:#3daee9;
      }
      .ColorScheme-ViewText {
        color:#31363b;
      }
      .ColorScheme-ViewBackground {
        color:#fcfcfc;
      }
      .ColorScheme-ViewHover {
        color:#93cee9;
      }
      .ColorScheme-ViewFocus{
        color:#3daee9;
      }
      .ColorScheme-ButtonText {
        color:#31363b;
      }
      .ColorScheme-ButtonBackground {
        color:#eff0f1;
      }
      .ColorScheme-ButtonHover {
        color:#93cee9;
      }
      .ColorScheme-ButtonFocus{
        color:#3daee9;
      }</style>
  </defs>
  <g
     style="color:#000"
     id="g10">
    <path
       d="m -1360.14 1641.33 c 46.11 -98.28 -119.59 -146.07 -181.85 -106.06 -62.25 40.01 -83.52 108.58 -13.01 143.08 70.51 34.501 148.75 61.26 194.86 -37.03 z"
       transform="matrix(1.03665 0 0 -1.35742 1657.71 2320.79)"
       style="fill:#9acd32"
       id="path12" />
  </g>
  <g
     transform="matrix(10.375303,0,0,10.491525,-5601.2844,-7808.4689)"
     id="layer1">
    <rect
       x="507.14999"
       y="747.54999"
       width="0"
       height="11"
       class="ColorScheme-Text"
       style="color:#4d4d4d;fill:currentColor"
       id="rect4035" />
    <rect
       x="525.19"
       y="745.5"
       width="0"
       height="11"
       class="ColorScheme-Text"
       style="color:#4d4d4d;fill:currentColor"
       id="rect4035-5" />
    <rect
       x="507.14999"
       y="747.54999"
       width="0"
       height="11"
       class="ColorScheme-Text"
       style="color:#4d4d4d;fill:currentColor"
       id="rect4035-8" />
    <rect
       x="507.14999"
       y="747.54999"
       width="0"
       height="11"
       class="ColorScheme-Text"
       style="color:#4d4d4d;fill:currentColor"
       id="rect4035-59" />
    <rect
       x="499.85001"
       y="742.71997"
       width="0"
       height="11"
       class="ColorScheme-Text"
       style="color:#4d4d4d;fill:currentColor"
       id="rect4035-6" />
    <rect
       x="517.89001"
       y="740.66998"
       width="0"
       height="11"
       class="ColorScheme-Text"
       style="color:#4d4d4d;fill:currentColor"
       id="rect4035-5-1" />
    <rect
       x="499.85001"
       y="742.71997"
       width="0"
       height="11"
       class="ColorScheme-Text"
       style="color:#4d4d4d;fill:currentColor"
       id="rect4035-8-3" />
    <rect
       x="499.85001"
       y="742.71997"
       width="0"
       height="11"
       class="ColorScheme-Text"
       style="color:#4d4d4d;fill:currentColor"
       id="rect4035-59-4" />
    <rect
       x="505.85999"
       y="746.94"
       width="0"
       height="11"
       class="ColorScheme-Text"
       style="color:#4d4d4d;fill:currentColor"
       id="rect4035-1" />
    <rect
       x="523.90002"
       y="744.88"
       width="0"
       height="11"
       class="ColorScheme-Text"
       style="color:#4d4d4d;fill:currentColor"
       id="rect4035-5-0" />
    <rect
       x="505.85999"
       y="746.94"
       width="0"
       height="11"
       class="ColorScheme-Text"
       style="color:#4d4d4d;fill:currentColor"
       id="rect4035-8-1" />
    <rect
       x="505.85999"
       y="746.94"
       width="0"
       height="11"
       class="ColorScheme-Text"
       style="color:#4d4d4d;fill:currentColor"
       id="rect4035-59-1" />
    <rect
       x="507.14999"
       y="747.54999"
       width="0"
       height="11"
       class="ColorScheme-Text"
       style="color:#4d4d4d;fill:currentColor"
       id="rect4035-7" />
    <rect
       x="525.19"
       y="745.5"
       width="0"
       height="11"
       class="ColorScheme-Text"
       style="color:#4d4d4d;fill:currentColor"
       id="rect4035-5-7" />
    <rect
       x="507.14999"
       y="747.54999"
       width="0"
       height="11"
       class="ColorScheme-Text"
       style="color:#4d4d4d;fill:currentColor"
       id="rect4035-8-16" />
    <rect
       x="507.14999"
       y="747.54999"
       width="0"
       height="11"
       class="ColorScheme-Text"
       style="color:#4d4d4d;fill:currentColor"
       id="rect4035-59-18" />
    <rect
       x="499.85001"
       y="742.71997"
       width="0"
       height="11"
       class="ColorScheme-Text"
       style="color:#4d4d4d;fill:currentColor"
       id="rect4035-6-5" />
    <rect
       x="517.89001"
       y="740.66998"
       width="0"
       height="11"
       class="ColorScheme-Text"
       style="color:#4d4d4d;fill:currentColor"
       id="rect4035-5-1-8" />
    <rect
       x="499.85001"
       y="742.71997"
       width="0"
       height="11"
       class="ColorScheme-Text"
       style="color:#4d4d4d;fill:currentColor"
       id="rect4035-8-3-8" />
    <rect
       x="499.85001"
       y="742.71997"
       width="0"
       height="11"
       class="ColorScheme-Text"
       style="color:#4d4d4d;fill:currentColor"
       id="rect4035-59-4-7" />
    <rect
       x="505.85999"
       y="746.94"
       width="0"
       height="11"
       class="ColorScheme-Text"
       style="color:#4d4d4d;fill:currentColor"
       id="rect4035-1-7" />
    <rect
       x="523.90002"
       y="744.88"
       width="0"
       height="11"
       class="ColorScheme-Text"
       style="color:#4d4d4d;fill:currentColor"
       id="rect4035-5-0-8" />
    <rect
       x="505.85999"
       y="746.94"
       width="0"
       height="11"
       class="ColorScheme-Text"
       style="color:#4d4d4d;fill:currentColor"
       id="rect4035-8-1-0" />
    <rect
       x="505.85999"
       y="746.94"
       width="0"
       height="11"
       class="ColorScheme-Text"
       style="color:#4d4d4d;fill:currentColor"
       id="rect4035-59-1-3" />
    <rect
       x="504.62"
       y="750.92999"
       width="0"
       height="11"
       class="ColorScheme-Text"
       style="color:#4d4d4d;fill:currentColor"
       id="rect4035-0" />
    <rect
       x="522.65997"
       y="748.88"
       width="0"
       height="11"
       class="ColorScheme-Text"
       style="color:#4d4d4d;fill:currentColor"
       id="rect4035-5-5" />
    <rect
       x="504.62"
       y="750.92999"
       width="0"
       height="11"
       class="ColorScheme-Text"
       style="color:#4d4d4d;fill:currentColor"
       id="rect4035-8-6" />
    <rect
       x="504.62"
       y="750.92999"
       width="0"
       height="11"
       class="ColorScheme-Text"
       style="color:#4d4d4d;fill:currentColor"
       id="rect4035-59-11" />
    <rect
       x="488.63"
       y="747.29999"
       width="0"
       height="11"
       class="ColorScheme-Text"
       style="color:#4d4d4d;fill:currentColor"
       id="rect4035-9" />
    <rect
       x="506.67001"
       y="745.25"
       width="0"
       height="11"
       class="ColorScheme-Text"
       style="color:#4d4d4d;fill:currentColor"
       id="rect4035-5-8" />
    <rect
       x="488.63"
       y="747.29999"
       width="0"
       height="11"
       class="ColorScheme-Text"
       style="color:#4d4d4d;fill:currentColor"
       id="rect4035-8-0" />
    <rect
       x="488.63"
       y="747.29999"
       width="0"
       height="11"
       class="ColorScheme-Text"
       style="color:#4d4d4d;fill:currentColor"
       id="rect4035-59-1-8" />
    <rect
       x="507.14999"
       y="747.54999"
       width="0"
       height="11"
       class="ColorScheme-Text"
       style="color:#4d4d4d;fill:currentColor"
       id="rect4035-3" />
    <rect
       x="525.19"
       y="745.5"
       width="0"
       height="11"
       class="ColorScheme-Text"
       style="color:#4d4d4d;fill:currentColor"
       id="rect4035-5-2" />
    <rect
       x="507.14999"
       y="747.54999"
       width="0"
       height="11"
       class="ColorScheme-Text"
       style="color:#4d4d4d;fill:currentColor"
       id="rect4035-8-7" />
    <rect
       x="507.14999"
       y="747.54999"
       width="0"
       height="11"
       class="ColorScheme-Text"
       style="color:#4d4d4d;fill:currentColor"
       id="rect4035-59-43" />
    <rect
       x="499.85001"
       y="742.71997"
       width="0"
       height="11"
       class="ColorScheme-Text"
       style="color:#4d4d4d;fill:currentColor"
       id="rect4035-6-2" />
    <rect
       x="517.89001"
       y="740.66998"
       width="0"
       height="11"
       class="ColorScheme-Text"
       style="color:#4d4d4d;fill:currentColor"
       id="rect4035-5-1-6" />
    <rect
       x="499.85001"
       y="742.71997"
       width="0"
       height="11"
       class="ColorScheme-Text"
       style="color:#4d4d4d;fill:currentColor"
       id="rect4035-8-3-4" />
    <rect
       x="499.85001"
       y="742.71997"
       width="0"
       height="11"
       class="ColorScheme-Text"
       style="color:#4d4d4d;fill:currentColor"
       id="rect4035-59-4-8" />
    <rect
       x="505.85999"
       y="746.94"
       width="0"
       height="11"
       class="ColorScheme-Text"
       style="color:#4d4d4d;fill:currentColor"
       id="rect4035-1-8" />
    <rect
       x="523.90002"
       y="744.88"
       width="0"
       height="11"
       class="ColorScheme-Text"
       style="color:#4d4d4d;fill:currentColor"
       id="rect4035-5-0-0" />
    <rect
       x="505.85999"
       y="746.94"
       width="0"
       height="11"
       class="ColorScheme-Text"
       style="color:#4d4d4d;fill:currentColor"
       id="rect4035-8-1-3" />
    <rect
       x="505.85999"
       y="746.94"
       width="0"
       height="11"
       class="ColorScheme-Text"
       style="color:#4d4d4d;fill:currentColor"
       id="rect4035-59-1-1" />
    <path
       d="m 555.57,750.93 a 3,3 0 0 0 -2.8242,2 H 545.57 v 2 h 7.1738 a 3,3 0 0 0 2.8262,2 3,3 0 0 0 2.8242,-2 h 1.1758 v -2 h -1.1738 a 3,3 0 0 0 -2.8262,-2 z m -5,6 a 3,3 0 0 0 -2.8242,2 H 545.57 v 2 h 2.1738 a 3,3 0 0 0 2.8262,2 3,3 0 0 0 2.8242,-2 h 6.1758 v -2 h -6.1738 a 3,3 0 0 0 -2.8262,-2 z"
       id="rect4194"
       inkscape:connector-curvature="0"
       style="opacity:0.5" />
  </g>
  <path
     style="fill:#ffffff;fill-opacity:1;fill-rule:evenodd;stroke:#ffffff;stroke-width:5.93789816;stroke-miterlimit:4;stroke-opacity:1;stroke-dasharray:none"
     d="m 100.31241,193.04403 c -6.006264,-2.12826 -13.565537,-8.91764 -16.04102,-14.40728 l -1.996109,-4.42658 -11.225085,0 -11.225085,0 0,-9.76271 0,-9.76271 11.283715,0 11.283715,0 1.075455,-3.08506 c 0.5915,-1.69677 2.658743,-4.88831 4.593873,-7.09231 14.558151,-16.58081 39.523451,-13.52561 49.923881,6.10957 l 2.15464,4.0678 31.97795,0 31.97796,0 0,9.76271 0,9.76271 -31.97796,0 -31.97795,0 -2.09962,4.0678 c -2.8431,5.5082 -9.38421,11.61722 -15.30041,14.2897 -5.83705,2.63673 -15.7376,2.84701 -22.42795,0.47636 z"
     id="path5279"
     inkscape:connector-curvature="0" />
  <path
     style="fill:#ffffff;fill-opacity:1;fill-rule:evenodd;stroke:#ffffff;stroke-width:5.93789816;stroke-miterlimit:4;stroke-opacity:1;stroke-dasharray:none"
     d="m 152.05798,130.08697 c -5.61903,-2.05919 -15.84251,-11.70758 -16.90934,-15.95815 l -0.71126,-2.8339 -37.306136,0 -37.306133,0 0,-9.76272 0,-9.762708 36.778281,0 36.778278,0 2.72262,-4.61017 c 10.78264,-18.25813 33.00219,-21.76695 47.74493,-7.539688 2.28785,2.207846 5.10455,5.844773 6.25935,8.082061 2.03893,3.950226 2.27142,4.067797 8.04367,4.067797 l 5.94406,0 0,9.762708 0,9.76272 -5.93825,0 c -5.49496,0 -6.0633,0.24183 -7.6135,3.23959 -2.65021,5.12493 -8.02577,10.70185 -13.28797,13.7857 -6.20791,3.63808 -17.86244,4.45522 -25.1986,1.76676 l 0,0 z"
     id="path5281"
     inkscape:connector-curvature="0" />
</svg>
