<?xml version="1.0" encoding="UTF-8" standalone="no"?>
<svg
   xmlns:dc="http://purl.org/dc/elements/1.1/"
   xmlns:cc="http://creativecommons.org/ns#"
   xmlns:rdf="http://www.w3.org/1999/02/22-rdf-syntax-ns#"
   xmlns:svg="http://www.w3.org/2000/svg"
   xmlns="http://www.w3.org/2000/svg"
   xmlns:sodipodi="http://sodipodi.sourceforge.net/DTD/sodipodi-0.dtd"
   xmlns:inkscape="http://www.inkscape.org/namespaces/inkscape"
   viewBox="0 0 256 256"
   id="svg2"
   version="1.1"
   inkscape:version="0.48.4 r9939"
   width="100%"
   height="100%"
   sodipodi:docname="adjustcurves.svg">
  <metadata
     id="metadata16">
    <rdf:RDF>
      <cc:Work
         rdf:about="">
        <dc:format>image/svg+xml</dc:format>
        <dc:type
           rdf:resource="http://purl.org/dc/dcmitype/StillImage" />
      </cc:Work>
    </rdf:RDF>
  </metadata>
  <sodipodi:namedview
     pagecolor="#ffffff"
     bordercolor="#666666"
     borderopacity="1"
     objecttolerance="10"
     gridtolerance="10"
     guidetolerance="10"
     inkscape:pageopacity="0"
     inkscape:pageshadow="2"
     inkscape:window-width="698"
     inkscape:window-height="768"
     id="namedview14"
     showgrid="false"
     inkscape:zoom="0.921875"
     inkscape:cx="122.52342"
     inkscape:cy="128"
     inkscape:window-x="580"
     inkscape:window-y="25"
     inkscape:window-maximized="0"
     inkscape:current-layer="layer1" />
  <defs
     id="defs4">
    <clipPath
       id="clipPath6">
      <path
         d="M 0,64 H64 V128 H0 z"
         id="path8" />
    </clipPath>
    <style
       type="text/css"
       id="current-color-scheme">.ColorScheme-Text {
        color:#4d4d4d;
      }
      .ColorScheme-Background {
        color:#eff0f1;
      }
      .ColorScheme-Highlight {
        color:#3daee9;
      }
      .ColorScheme-ViewText {
        color:#31363b;
      }
      .ColorScheme-ViewBackground {
        color:#fcfcfc;
      }
      .ColorScheme-ViewHover {
        color:#93cee9;
      }
      .ColorScheme-ViewFocus{
        color:#3daee9;
      }
      .ColorScheme-ButtonText {
        color:#31363b;
      }
      .ColorScheme-ButtonBackground {
        color:#eff0f1;
      }
      .ColorScheme-ButtonHover {
        color:#93cee9;
      }
      .ColorScheme-ButtonFocus{
        color:#3daee9;
      }</style>
  </defs>
  <g
     style="color:#000000"
     id="g10"
     transform="matrix(0,1,1,0,0.01112179,-0.01112267)">
    <path
       d="m -1360.14,1641.33 c 46.11,-98.28 -119.59,-146.07 -181.85,-106.06 -62.25,40.01 -83.52,108.58 -13.01,143.08 70.51,34.501 148.75,61.26 194.86,-37.03 z"
       transform="matrix(1.03665,0,0,-1.35742,1657.71,2320.79)"
       style="fill:#9acd32"
       id="path12"
       inkscape:connector-curvature="0" />
  </g>
  <g
     transform="matrix(8.8644068,0,0,8.5930733,-4772.3747,-6368.7605)"
     id="layer1">
    <rect
       x="520.21002"
       y="747.07001"
       width="0"
       height="11"
       class="ColorScheme-Text"
       style="color:#4d4d4d;fill:currentColor"
       id="rect4035" />
    <rect
       x="538.25"
       y="745.02002"
       width="0"
       height="11"
       class="ColorScheme-Text"
       style="color:#4d4d4d;fill:currentColor"
       id="rect4035-5" />
    <rect
       x="520.21002"
       y="747.07001"
       width="0"
       height="11"
       class="ColorScheme-Text"
       style="color:#4d4d4d;fill:currentColor"
       id="rect4035-8" />
    <rect
       x="520.21002"
       y="747.07001"
       width="0"
       height="11"
       class="ColorScheme-Text"
       style="color:#4d4d4d;fill:currentColor"
       id="rect4035-59" />
    <rect
       x="512.90002"
       y="742.23999"
       width="0"
       height="11"
       class="ColorScheme-Text"
       style="color:#4d4d4d;fill:currentColor"
       id="rect4035-6" />
    <rect
       x="530.94"
       y="740.19"
       width="0"
       height="11"
       class="ColorScheme-Text"
       style="color:#4d4d4d;fill:currentColor"
       id="rect4035-5-1" />
    <rect
       x="512.90002"
       y="742.23999"
       width="0"
       height="11"
       class="ColorScheme-Text"
       style="color:#4d4d4d;fill:currentColor"
       id="rect4035-8-3" />
    <rect
       x="512.90002"
       y="742.23999"
       width="0"
       height="11"
       class="ColorScheme-Text"
       style="color:#4d4d4d;fill:currentColor"
       id="rect4035-59-4" />
    <rect
       x="518.91998"
       y="746.45001"
       width="0"
       height="11"
       class="ColorScheme-Text"
       style="color:#4d4d4d;fill:currentColor"
       id="rect4035-1" />
    <rect
       x="536.96002"
       y="744.40002"
       width="0"
       height="11"
       class="ColorScheme-Text"
       style="color:#4d4d4d;fill:currentColor"
       id="rect4035-5-0" />
    <rect
       x="518.91998"
       y="746.45001"
       width="0"
       height="11"
       class="ColorScheme-Text"
       style="color:#4d4d4d;fill:currentColor"
       id="rect4035-8-1" />
    <rect
       x="518.91998"
       y="746.45001"
       width="0"
       height="11"
       class="ColorScheme-Text"
       style="color:#4d4d4d;fill:currentColor"
       id="rect4035-59-1" />
    <rect
       x="520.21002"
       y="747.07001"
       width="0"
       height="11"
       class="ColorScheme-Text"
       style="color:#4d4d4d;fill:currentColor"
       id="rect4035-7" />
    <rect
       x="538.25"
       y="745.02002"
       width="0"
       height="11"
       class="ColorScheme-Text"
       style="color:#4d4d4d;fill:currentColor"
       id="rect4035-5-7" />
    <rect
       x="520.21002"
       y="747.07001"
       width="0"
       height="11"
       class="ColorScheme-Text"
       style="color:#4d4d4d;fill:currentColor"
       id="rect4035-8-16" />
    <rect
       x="520.21002"
       y="747.07001"
       width="0"
       height="11"
       class="ColorScheme-Text"
       style="color:#4d4d4d;fill:currentColor"
       id="rect4035-59-18" />
    <rect
       x="512.90002"
       y="742.23999"
       width="0"
       height="11"
       class="ColorScheme-Text"
       style="color:#4d4d4d;fill:currentColor"
       id="rect4035-6-5" />
    <rect
       x="530.94"
       y="740.19"
       width="0"
       height="11"
       class="ColorScheme-Text"
       style="color:#4d4d4d;fill:currentColor"
       id="rect4035-5-1-8" />
    <rect
       x="512.90002"
       y="742.23999"
       width="0"
       height="11"
       class="ColorScheme-Text"
       style="color:#4d4d4d;fill:currentColor"
       id="rect4035-8-3-8" />
    <rect
       x="512.90002"
       y="742.23999"
       width="0"
       height="11"
       class="ColorScheme-Text"
       style="color:#4d4d4d;fill:currentColor"
       id="rect4035-59-4-7" />
    <rect
       x="518.91998"
       y="746.45001"
       width="0"
       height="11"
       class="ColorScheme-Text"
       style="color:#4d4d4d;fill:currentColor"
       id="rect4035-1-7" />
    <rect
       x="536.96002"
       y="744.40002"
       width="0"
       height="11"
       class="ColorScheme-Text"
       style="color:#4d4d4d;fill:currentColor"
       id="rect4035-5-0-8" />
    <rect
       x="518.91998"
       y="746.45001"
       width="0"
       height="11"
       class="ColorScheme-Text"
       style="color:#4d4d4d;fill:currentColor"
       id="rect4035-8-1-0" />
    <rect
       x="518.91998"
       y="746.45001"
       width="0"
       height="11"
       class="ColorScheme-Text"
       style="color:#4d4d4d;fill:currentColor"
       id="rect4035-59-1-3" />
    <rect
       x="517.67999"
       y="750.45001"
       width="0"
       height="11"
       class="ColorScheme-Text"
       style="color:#4d4d4d;fill:currentColor"
       id="rect4035-0" />
    <rect
       x="535.71997"
       y="748.40002"
       width="0"
       height="11"
       class="ColorScheme-Text"
       style="color:#4d4d4d;fill:currentColor"
       id="rect4035-5-5" />
    <rect
       x="517.67999"
       y="750.45001"
       width="0"
       height="11"
       class="ColorScheme-Text"
       style="color:#4d4d4d;fill:currentColor"
       id="rect4035-8-6" />
    <rect
       x="517.67999"
       y="750.45001"
       width="0"
       height="11"
       class="ColorScheme-Text"
       style="color:#4d4d4d;fill:currentColor"
       id="rect4035-59-11" />
    <rect
       x="501.69"
       y="746.82001"
       width="0"
       height="11"
       class="ColorScheme-Text"
       style="color:#4d4d4d;fill:currentColor"
       id="rect4035-9" />
    <rect
       x="519.72998"
       y="744.77002"
       width="0"
       height="11"
       class="ColorScheme-Text"
       style="color:#4d4d4d;fill:currentColor"
       id="rect4035-5-8" />
    <rect
       x="501.69"
       y="746.82001"
       width="0"
       height="11"
       class="ColorScheme-Text"
       style="color:#4d4d4d;fill:currentColor"
       id="rect4035-8-0" />
    <rect
       x="501.69"
       y="746.82001"
       width="0"
       height="11"
       class="ColorScheme-Text"
       style="color:#4d4d4d;fill:currentColor"
       id="rect4035-59-1-8" />
    <rect
       x="520.21002"
       y="747.07001"
       width="0"
       height="11"
       class="ColorScheme-Text"
       style="color:#4d4d4d;fill:currentColor"
       id="rect4035-3" />
    <rect
       x="538.25"
       y="745.02002"
       width="0"
       height="11"
       class="ColorScheme-Text"
       style="color:#4d4d4d;fill:currentColor"
       id="rect4035-5-2" />
    <rect
       x="520.21002"
       y="747.07001"
       width="0"
       height="11"
       class="ColorScheme-Text"
       style="color:#4d4d4d;fill:currentColor"
       id="rect4035-8-7" />
    <rect
       x="520.21002"
       y="747.07001"
       width="0"
       height="11"
       class="ColorScheme-Text"
       style="color:#4d4d4d;fill:currentColor"
       id="rect4035-59-43" />
    <rect
       x="512.90002"
       y="742.23999"
       width="0"
       height="11"
       class="ColorScheme-Text"
       style="color:#4d4d4d;fill:currentColor"
       id="rect4035-6-2" />
    <rect
       x="530.94"
       y="740.19"
       width="0"
       height="11"
       class="ColorScheme-Text"
       style="color:#4d4d4d;fill:currentColor"
       id="rect4035-5-1-6" />
    <rect
       x="512.90002"
       y="742.23999"
       width="0"
       height="11"
       class="ColorScheme-Text"
       style="color:#4d4d4d;fill:currentColor"
       id="rect4035-8-3-4" />
    <rect
       x="512.90002"
       y="742.23999"
       width="0"
       height="11"
       class="ColorScheme-Text"
       style="color:#4d4d4d;fill:currentColor"
       id="rect4035-59-4-8" />
    <rect
       x="518.91998"
       y="746.45001"
       width="0"
       height="11"
       class="ColorScheme-Text"
       style="color:#4d4d4d;fill:currentColor"
       id="rect4035-1-8" />
    <rect
       x="536.96002"
       y="744.40002"
       width="0"
       height="11"
       class="ColorScheme-Text"
       style="color:#4d4d4d;fill:currentColor"
       id="rect4035-5-0-0" />
    <rect
       x="518.91998"
       y="746.45001"
       width="0"
       height="11"
       class="ColorScheme-Text"
       style="color:#4d4d4d;fill:currentColor"
       id="rect4035-8-1-3" />
    <rect
       x="518.91998"
       y="746.45001"
       width="0"
       height="11"
       class="ColorScheme-Text"
       style="color:#4d4d4d;fill:currentColor"
       id="rect4035-59-1-1" />
    <rect
       x="520.15997"
       y="747.07001"
       width="0"
       height="11"
       class="ColorScheme-Text"
       style="color:#4d4d4d;fill:currentColor"
       id="rect4035-08" />
    <rect
       x="538.20001"
       y="745.02002"
       width="0"
       height="11"
       class="ColorScheme-Text"
       style="color:#4d4d4d;fill:currentColor"
       id="rect4035-5-9" />
    <rect
       x="520.15997"
       y="747.07001"
       width="0"
       height="11"
       class="ColorScheme-Text"
       style="color:#4d4d4d;fill:currentColor"
       id="rect4035-8-09" />
    <rect
       x="520.15997"
       y="747.07001"
       width="0"
       height="11"
       class="ColorScheme-Text"
       style="color:#4d4d4d;fill:currentColor"
       id="rect4035-59-23" />
    <rect
       x="512.84998"
       y="742.23999"
       width="0"
       height="11"
       class="ColorScheme-Text"
       style="color:#4d4d4d;fill:currentColor"
       id="rect4035-6-51" />
    <rect
       x="530.89001"
       y="740.19"
       width="0"
       height="11"
       class="ColorScheme-Text"
       style="color:#4d4d4d;fill:currentColor"
       id="rect4035-5-1-67" />
    <rect
       x="512.84998"
       y="742.23999"
       width="0"
       height="11"
       class="ColorScheme-Text"
       style="color:#4d4d4d;fill:currentColor"
       id="rect4035-8-3-9" />
    <rect
       x="512.84998"
       y="742.23999"
       width="0"
       height="11"
       class="ColorScheme-Text"
       style="color:#4d4d4d;fill:currentColor"
       id="rect4035-59-4-5" />
    <rect
       x="518.87"
       y="746.45001"
       width="0"
       height="11"
       class="ColorScheme-Text"
       style="color:#4d4d4d;fill:currentColor"
       id="rect4035-1-79" />
    <rect
       x="536.90997"
       y="744.40002"
       width="0"
       height="11"
       class="ColorScheme-Text"
       style="color:#4d4d4d;fill:currentColor"
       id="rect4035-5-0-3" />
    <rect
       x="518.87"
       y="746.45001"
       width="0"
       height="11"
       class="ColorScheme-Text"
       style="color:#4d4d4d;fill:currentColor"
       id="rect4035-8-1-6" />
    <rect
       x="518.87"
       y="746.45001"
       width="0"
       height="11"
       class="ColorScheme-Text"
       style="color:#4d4d4d;fill:currentColor"
       id="rect4035-59-1-39" />
    <rect
       x="520.15997"
       y="747.07001"
       width="0"
       height="11"
       class="ColorScheme-Text"
       style="color:#4d4d4d;fill:currentColor"
       id="rect4035-7-5" />
    <rect
       x="538.20001"
       y="745.02002"
       width="0"
       height="11"
       class="ColorScheme-Text"
       style="color:#4d4d4d;fill:currentColor"
       id="rect4035-5-7-3" />
    <rect
       x="520.15997"
       y="747.07001"
       width="0"
       height="11"
       class="ColorScheme-Text"
       style="color:#4d4d4d;fill:currentColor"
       id="rect4035-8-16-1" />
    <rect
       x="520.15997"
       y="747.07001"
       width="0"
       height="11"
       class="ColorScheme-Text"
       style="color:#4d4d4d;fill:currentColor"
       id="rect4035-59-18-3" />
    <rect
       x="512.84998"
       y="742.23999"
       width="0"
       height="11"
       class="ColorScheme-Text"
       style="color:#4d4d4d;fill:currentColor"
       id="rect4035-6-5-0" />
    <rect
       x="530.89001"
       y="740.19"
       width="0"
       height="11"
       class="ColorScheme-Text"
       style="color:#4d4d4d;fill:currentColor"
       id="rect4035-5-1-8-6" />
    <rect
       x="512.84998"
       y="742.23999"
       width="0"
       height="11"
       class="ColorScheme-Text"
       style="color:#4d4d4d;fill:currentColor"
       id="rect4035-8-3-8-6" />
    <rect
       x="512.84998"
       y="742.23999"
       width="0"
       height="11"
       class="ColorScheme-Text"
       style="color:#4d4d4d;fill:currentColor"
       id="rect4035-59-4-7-6" />
    <rect
       x="518.87"
       y="746.45001"
       width="0"
       height="11"
       class="ColorScheme-Text"
       style="color:#4d4d4d;fill:currentColor"
       id="rect4035-1-7-0" />
    <rect
       x="536.90997"
       y="744.40002"
       width="0"
       height="11"
       class="ColorScheme-Text"
       style="color:#4d4d4d;fill:currentColor"
       id="rect4035-5-0-8-2" />
    <rect
       x="518.87"
       y="746.45001"
       width="0"
       height="11"
       class="ColorScheme-Text"
       style="color:#4d4d4d;fill:currentColor"
       id="rect4035-8-1-0-6" />
    <rect
       x="518.87"
       y="746.45001"
       width="0"
       height="11"
       class="ColorScheme-Text"
       style="color:#4d4d4d;fill:currentColor"
       id="rect4035-59-1-3-3" />
    <rect
       x="517.63"
       y="750.45001"
       width="0"
       height="11"
       class="ColorScheme-Text"
       style="color:#4d4d4d;fill:currentColor"
       id="rect4035-0-4" />
    <rect
       x="535.66998"
       y="748.40002"
       width="0"
       height="11"
       class="ColorScheme-Text"
       style="color:#4d4d4d;fill:currentColor"
       id="rect4035-5-5-7" />
    <rect
       x="517.63"
       y="750.45001"
       width="0"
       height="11"
       class="ColorScheme-Text"
       style="color:#4d4d4d;fill:currentColor"
       id="rect4035-8-6-2" />
    <rect
       x="517.63"
       y="750.45001"
       width="0"
       height="11"
       class="ColorScheme-Text"
       style="color:#4d4d4d;fill:currentColor"
       id="rect4035-59-11-4" />
    <rect
       x="501.64001"
       y="746.82001"
       width="0"
       height="11"
       class="ColorScheme-Text"
       style="color:#4d4d4d;fill:currentColor"
       id="rect4035-9-6" />
    <rect
       x="519.67999"
       y="744.77002"
       width="0"
       height="11"
       class="ColorScheme-Text"
       style="color:#4d4d4d;fill:currentColor"
       id="rect4035-5-8-6" />
    <rect
       x="501.64001"
       y="746.82001"
       width="0"
       height="11"
       class="ColorScheme-Text"
       style="color:#4d4d4d;fill:currentColor"
       id="rect4035-8-0-7" />
    <rect
       x="501.64001"
       y="746.82001"
       width="0"
       height="11"
       class="ColorScheme-Text"
       style="color:#4d4d4d;fill:currentColor"
       id="rect4035-59-1-8-4" />
    <g
       transform="translate(-3,3)"
       id="g4229">
      <path
         transform="translate(544.57,742.93)"
         d="m 4,3 v 6 1 3.461 1.414 0.125 1 1 H 3 v 1 h 1 v 1 H 5 V 18 H 18.293 19 V 17.293 17 H 18.707 17.293 5 V 15.432 15.424 15 13.875 L 8.998,9.877 11.121,12 11.127,11.996 11.131,12 19,4.125 V 3 h -0.289 c 0.0072,-0.012362 -7.584,7.5898 -7.584,7.5898 L 9,8.4646 8.998,8.4666 8.9961,8.4646 5,12.4608 v -0.03711 -1 -0.424 -1 -1 -3 -0.0078 -0.9922 -2 H 4 z"
         id="path4154"
         inkscape:connector-curvature="0"
         style="opacity:0.5;fill:currentColor" />
      <path
         class="ColorScheme-Text"
         transform="translate(544.57,742.93)"
         d="M 19,4.125 11.131,12 11.127,11.996 11.121,12 8.998,9.877 5,13.875 V 17 H 19 V 4.125 z"
         style="opacity:0.2;color:#4d4d4d;fill-rule:evenodd"
         id="path5276"
         inkscape:connector-curvature="0" />
    </g>
  </g>
  <path
     style="fill:#ffffff;fill-opacity:1;fill-rule:evenodd;stroke:#ffffff;stroke-width:5.93789816;stroke-miterlimit:4;stroke-opacity:1;stroke-dasharray:none"
     d="m 64.164094,199.15932 c 0,-4.33898 0,-4.33898 -4.338983,-4.33898 -4.235674,0 -4.338983,-0.0904 -4.338983,-3.79661 0,-3.70622 0.103309,-3.79661 4.338983,-3.79661 l 4.338983,0 0,-59.66102 0,-59.661015 3.79661,0 3.79661,0 0,40.225985 c 0,23.88556 0.403453,40.07911 0.993198,39.86441 0.546259,-0.19887 8.765165,-7.77428 18.264236,-16.83425 l 17.271042,-16.47267 8.55777,8.60826 c 4.70677,4.73455 9.12783,8.60826 9.82457,8.60826 0.69675,0 16.00534,-14.27796 34.0191,-31.72881 18.01376,-17.450846 33.44159,-31.886638 34.28407,-32.079537 1.11363,-0.254983 1.53178,0.783407 1.53178,3.803882 0,3.991117 -0.94976,5.074882 -24.1356,27.540837 -13.27457,12.862428 -28.90064,27.932518 -34.72458,33.489088 l -10.589,10.10285 -9.59578,-8.77019 -9.59579,-8.77018 -18.052507,17.40138 -18.052509,17.40139 0,13.46567 0,13.46566 62.372886,0 62.37288,0 0,3.79661 0,3.79661 -62.37288,0 -62.372886,0 0,4.33898 c 0,4.23567 -0.09039,4.33899 -3.79661,4.33899 -3.706215,0 -3.79661,-0.10327 -3.79661,-4.33899 z"
     id="path5965"
     inkscape:connector-curvature="0" />
</svg>
