<?xml version="1.0" encoding="UTF-8" standalone="no"?>
<svg
   xmlns:dc="http://purl.org/dc/elements/1.1/"
   xmlns:cc="http://creativecommons.org/ns#"
   xmlns:rdf="http://www.w3.org/1999/02/22-rdf-syntax-ns#"
   xmlns:svg="http://www.w3.org/2000/svg"
   xmlns="http://www.w3.org/2000/svg"
   xmlns:sodipodi="http://sodipodi.sourceforge.net/DTD/sodipodi-0.dtd"
   xmlns:inkscape="http://www.inkscape.org/namespaces/inkscape"
   viewBox="0 0 256 256"
   id="svg2"
   version="1.1"
   inkscape:version="0.48.4 r9939"
   width="100%"
   height="100%"
   sodipodi:docname="compass.svg">
  <metadata
     id="metadata10">
    <rdf:RDF>
      <cc:Work
         rdf:about="">
        <dc:format>image/svg+xml</dc:format>
        <dc:type
           rdf:resource="http://purl.org/dc/dcmitype/StillImage" />
        <dc:title></dc:title>
      </cc:Work>
    </rdf:RDF>
  </metadata>
  <defs
     id="defs8" />
  <sodipodi:namedview
     pagecolor="#ffffff"
     bordercolor="#666666"
     borderopacity="1"
     objecttolerance="10"
     gridtolerance="10"
     guidetolerance="10"
     inkscape:pageopacity="0"
     inkscape:pageshadow="2"
     inkscape:window-width="698"
     inkscape:window-height="774"
     id="namedview6"
     showgrid="false"
     inkscape:zoom="0.921875"
     inkscape:cx="134.01101"
     inkscape:cy="128"
     inkscape:window-x="580"
     inkscape:window-y="25"
     inkscape:window-maximized="0"
     inkscape:current-layer="svg2" />
  <path
     d="m 22.010839,203.4688 c 48.541,88.14 200.630001,53.931 226.360001,-18.64 30.66,-86.449996 -49.14,-250.629996 -184.300001,-154.449996 -45.527,33.585 -90.6,84.948996 -42.05,173.089996 z"
     style="color:#000000;fill:#9acd32"
     id="path4"
     inkscape:connector-curvature="0" />
  <g
     style="enable-background:new"
     id="g3228"
     transform="matrix(9.1717514,0,0,10.039548,56.006215,50.799433)">
    <g
       transform="translate(-585,-41)"
       id="layer12">
      <path
         transform="translate(585,41)"
         d="M 5,1 C 4.446,1 4,1.446 4,2 V 5 H 2 C 1.446,5 1,5.446 1,6 v 8 c 0,0.554 0.446,1 1,1 h 7 v -3 -1 h 6 V 6 C 15,5.446 14.554,5 14,5 H 12 V 2 C 12,1.446 11.554,1 11,1 H 5 z m 1,2 h 4 V 5 H 6 V 3 z m 4,9 v 2 h 6 v -2 h -6 z"
         id="rect4139"
         inkscape:connector-curvature="0"
         style="opacity:0.5" />
      <path
         d="m 597,51 v 2 h -2 v 2 h 2 v 2 h 2 v -2 h 2 v -2 h -2 v -2 h -2 z"
         id="path4162"
         inkscape:connector-curvature="0"
         style="opacity:0.5;fill:none" />
    </g>
  </g>
  <path
     style="fill:#ffffff;fill-opacity:1;fill-rule:evenodd;stroke:#ffffff;stroke-width:5.93789816;stroke-miterlimit:4;stroke-opacity:1;stroke-dasharray:none"
     d="m 68.551535,197.79845 -2.662557,-2.66255 0,-43.82311 0,-43.82311 2.660069,-2.87027 c 2.534142,-2.73438 3.1725,-2.87026 13.484678,-2.87026 l 10.82461,0 0.34583,-17.271712 C 93.535631,67.92307 93.659217,67.089594 96.179759,64.409641 l 2.629764,-2.796082 30.454977,0.0345 c 32.7889,0.03714 33.11576,0.09104 35.2937,5.819435 0.62006,1.630896 1.12739,10.011454 1.12739,18.623463 l 0,15.658193 10.89676,0 c 10.12308,0 11.08582,0.18905 13.55932,2.66256 l 2.66256,2.66256 0,26.62558 0,26.62557 -27.11864,0 -27.11865,0 0,20.0678 0,20.0678 -33.67642,0 -33.676427,0 -2.662558,-2.66257 0,0 z m 79.778125,-106.896755 0,-10.847458 -18.98306,0 -18.98305,0 0,10.847458 0,10.847455 18.98305,0 18.98306,0 0,-10.847455 z"
     id="path3233"
     inkscape:connector-curvature="0" />
  <path
     style="fill:#ffffff;fill-opacity:1;fill-rule:evenodd;stroke:#ffffff;stroke-width:5.93789816;stroke-miterlimit:4;stroke-opacity:1;stroke-dasharray:none"
     d="m 148.32966,181.47797 0,-9.22034 27.11864,0 27.11864,0 0,9.22034 0,9.22034 -27.11864,0 -27.11864,0 0,-9.22034 z"
     id="path3235"
     inkscape:connector-curvature="0" />
</svg>
