<?xml version="1.0" encoding="UTF-8" standalone="no"?>
<svg
   xmlns:dc="http://purl.org/dc/elements/1.1/"
   xmlns:cc="http://creativecommons.org/ns#"
   xmlns:rdf="http://www.w3.org/1999/02/22-rdf-syntax-ns#"
   xmlns:svg="http://www.w3.org/2000/svg"
   xmlns="http://www.w3.org/2000/svg"
   xmlns:sodipodi="http://sodipodi.sourceforge.net/DTD/sodipodi-0.dtd"
   xmlns:inkscape="http://www.inkscape.org/namespaces/inkscape"
   viewBox="0 0 256 256"
   id="svg2"
   version="1.1"
   inkscape:version="0.48.4 r9939"
   width="100%"
   height="100%"
   sodipodi:docname="texture.svg">
  <metadata
     id="metadata10">
    <rdf:RDF>
      <cc:Work
         rdf:about="">
        <dc:format>image/svg+xml</dc:format>
        <dc:type
           rdf:resource="http://purl.org/dc/dcmitype/StillImage" />
        <dc:title></dc:title>
      </cc:Work>
    </rdf:RDF>
  </metadata>
  <defs
     id="defs8" />
  <sodipodi:namedview
     pagecolor="#ffffff"
     bordercolor="#666666"
     borderopacity="1"
     objecttolerance="10"
     gridtolerance="10"
     guidetolerance="10"
     inkscape:pageopacity="0"
     inkscape:pageshadow="2"
     inkscape:window-width="698"
     inkscape:window-height="501"
     id="namedview6"
     showgrid="false"
     inkscape:zoom="0.921875"
     inkscape:cx="134.01101"
     inkscape:cy="128"
     inkscape:window-x="580"
     inkscape:window-y="25"
     inkscape:window-maximized="0"
     inkscape:current-layer="svg2" />
  <path
     d="m 260.02 66.64 c -48.541 -88.14 -200.63 -53.931 -226.36 18.64 -30.66 86.45 49.14 250.63 184.3 154.45 45.527 -33.585 90.6 -84.949 42.05 -173.09 z"
     style="fill:#9acd32;color:#000"
     id="path4"
     transform="translate(-26.04 -13.02)" />
  <g
     style="enable-background:new"
     id="g3066"
     transform="matrix(8.7378531,0,0,8.9548022,56.440119,49.71469)">
    <g
       transform="translate(-585,-41)"
       id="layer12">
      <path
         transform="translate(585,41)"
         d="M 5,1 C 4.446,1 4,1.446 4,2 V 5 H 2 C 1.446,5 1,5.446 1,6 v 8 c 0,0.554 0.446,1 1,1 h 7 v -4 h 2 V 10 9 h 4 V 6 C 15,5.446 14.554,5 14,5 H 12 V 2 C 12,1.446 11.554,1 11,1 H 5 z m 1,2 h 4 V 5 H 6 V 3 z m 6,7 v 2 h -2 v 2 h 2 v 2 h 2 v -2 h 2 v -2 h -2 v -2 h -2 z"
         id="rect4139"
         inkscape:connector-curvature="0"
         style="opacity:0.5" />
    </g>
  </g>
  <path
     style="fill:#ffffff;fill-opacity:1;fill-rule:evenodd;stroke:#ffffff;stroke-width:5.93789816;stroke-miterlimit:4;stroke-opacity:1;stroke-dasharray:none"
     d="m 68.551535,180.87642 -2.662557,-2.66255 0.0345,-38.82897 c 0.02678,-30.13694 0.350096,-39.24436 1.444334,-40.684626 2.247929,-2.958779 6.716164,-4.110443 15.947717,-4.110443 l 8.607349,0 0,-14.583579 c 0,-13.849203 0.131743,-14.73684 2.616222,-17.627118 l 2.616224,-3.043541 26.919456,-0.326653 c 14.80569,-0.179659 28.04081,-0.04521 29.41136,0.298779 1.37056,0.343986 3.45577,1.589285 4.63382,2.76733 1.92734,1.927338 2.1419,3.653001 2.1419,17.226693 l 0,15.084791 10.8195,0.372836 c 15.43333,0.531826 15.64706,0.795774 16.11149,19.898021 l 0.35474,14.58976 -17.71067,0.29846 -17.71065,0.29846 -0.31506,8.94915 -0.31506,8.94915 -8.63409,0 -8.6341,0 0,17.89831 0,17.8983 -31.50693,0 -31.506935,0 -2.662558,-2.66256 z m 75.439135,-95.506928 0,-9.220339 -17.8983,0 -17.89831,0 0,9.220339 0,9.220339 17.89831,0 17.8983,0 0,-9.220339 z"
     id="path3070"
     inkscape:connector-curvature="0" />
  <path
     style="fill:#ffffff;fill-opacity:1;fill-rule:evenodd;stroke:#ffffff;stroke-width:5.93789816;stroke-miterlimit:4;stroke-opacity:1;stroke-dasharray:none"
     d="m 161.3466,183.53898 0,-8.67796 -8.67796,0 -8.67797,0 0,-8.67797 0,-8.67797 8.67797,0 8.67796,0 0,-8.67796 0,-8.67797 8.67797,0 8.67797,0 0,8.67797 0,8.67796 8.67796,0 8.67797,0 0,8.67797 0,8.67797 -8.67797,0 -8.67796,0 0,8.67796 0,8.67797 -8.67797,0 -8.67797,0 0,-8.67797 z"
     id="path3072"
     inkscape:connector-curvature="0" />
</svg>
