<?xml version="1.0" encoding="UTF-8" standalone="no"?>
<svg
   xmlns:dc="http://purl.org/dc/elements/1.1/"
   xmlns:cc="http://creativecommons.org/ns#"
   xmlns:rdf="http://www.w3.org/1999/02/22-rdf-syntax-ns#"
   xmlns:svg="http://www.w3.org/2000/svg"
   xmlns="http://www.w3.org/2000/svg"
   xmlns:sodipodi="http://sodipodi.sourceforge.net/DTD/sodipodi-0.dtd"
   xmlns:inkscape="http://www.inkscape.org/namespaces/inkscape"
   viewBox="0 0 256 256"
   id="svg2"
   version="1.1"
   inkscape:version="0.48.4 r9939"
   width="100%"
   height="100%"
   sodipodi:docname="adjustcurves.svg">
  <metadata
     id="metadata16">
    <rdf:RDF>
      <cc:Work
         rdf:about="">
        <dc:format>image/svg+xml</dc:format>
        <dc:type
           rdf:resource="http://purl.org/dc/dcmitype/StillImage" />
        <dc:title></dc:title>
      </cc:Work>
    </rdf:RDF>
  </metadata>
  <sodipodi:namedview
     pagecolor="#ffffff"
     bordercolor="#666666"
     borderopacity="1"
     objecttolerance="10"
     gridtolerance="10"
     guidetolerance="10"
     inkscape:pageopacity="0"
     inkscape:pageshadow="2"
     inkscape:window-width="698"
     inkscape:window-height="768"
     id="namedview14"
     showgrid="false"
     inkscape:zoom="0.921875"
     inkscape:cx="122.52342"
     inkscape:cy="128"
     inkscape:window-x="580"
     inkscape:window-y="25"
     inkscape:window-maximized="0"
     inkscape:current-layer="svg2" />
  <defs
     id="defs4">
    <clipPath
       id="clipPath6">
      <path
         d="M 0,64 H64 V128 H0 z"
         id="path8" />
    </clipPath>
    <style
       type="text/css"
       id="current-color-scheme">.ColorScheme-Text {
        color:#4d4d4d;
      }
      .ColorScheme-Background {
        color:#eff0f1;
      }
      .ColorScheme-Highlight {
        color:#3daee9;
      }
      .ColorScheme-ViewText {
        color:#31363b;
      }
      .ColorScheme-ViewBackground {
        color:#fcfcfc;
      }
      .ColorScheme-ViewHover {
        color:#93cee9;
      }
      .ColorScheme-ViewFocus{
        color:#3daee9;
      }
      .ColorScheme-ButtonText {
        color:#31363b;
      }
      .ColorScheme-ButtonBackground {
        color:#eff0f1;
      }
      .ColorScheme-ButtonHover {
        color:#93cee9;
      }
      .ColorScheme-ButtonFocus{
        color:#3daee9;
      }</style>
  </defs>
  <g
     style="color:#000000"
     id="g10"
     transform="matrix(1,0,0,-1,0,255.99239)">
    <path
       d="m -1360.14,1641.33 c 46.11,-98.28 -119.59,-146.07 -181.85,-106.06 -62.25,40.01 -83.52,108.58 -13.01,143.08 70.51,34.501 148.75,61.26 194.86,-37.03 z"
       transform="matrix(1.03665,0,0,-1.35742,1657.71,2320.79)"
       style="fill:#9acd32"
       id="path12"
       inkscape:connector-curvature="0" />
  </g>
  <path
     style="fill:#ffffff;fill-opacity:1;fill-rule:evenodd;stroke:#ffffff;stroke-width:5.93789816;stroke-miterlimit:4;stroke-opacity:1;stroke-dasharray:none"
     d="M 116.77427,204.55642 C 93.674591,199.90521 70.200389,181.8972 58.834472,160.10848 c -7.545377,-14.46467 -9.314447,-21.46945 -9.314447,-36.88136 0,-12.00661 0.357314,-14.6497 3.120297,-23.08119 9.037189,-27.577807 32.781453,-50.193398 60.190188,-57.329062 10.19616,-2.654495 24.98867,-2.872206 35.10847,-0.516713 40.20129,9.357288 70.87886,52.212878 64.91076,90.678245 -2.95901,19.07129 -10.69513,33.72454 -25.49061,48.28262 -16.62293,16.35622 -35.61788,24.53825 -56.3855,24.28792 -5.42321,-0.0654 -11.81292,-0.512 -14.19936,-0.99252 z m 26.69939,-22.76951 c 7.91726,-1.49217 19.96059,-7.40992 25.98344,-12.76752 l 4.95403,-4.40683 -0.83624,-7.82631 c -0.64328,-6.02047 -0.47233,-8.53004 0.74089,-10.87615 2.00178,-3.87101 1.9973,-6.52637 -0.0155,-9.18752 -0.87594,-1.1581 -1.60814,-3.57291 -1.62712,-5.36625 -0.0483,-4.56006 -3.93191,-6.12191 -13.09494,-5.26626 l -7.0435,0.65773 -4.04604,-4.1656 c -3.84313,-3.95669 -4.02192,-4.45752 -3.56505,-9.98645 0.47277,-5.72126 1.11115,-7.09726 5.46641,-11.78247 1.19946,-1.290317 3.10201,-3.528477 4.22791,-4.973677 1.39179,-1.78651 2.82684,-2.47858 4.48302,-2.16198 1.33976,0.25611 2.76603,-0.0684 3.16948,-0.72124 0.40346,-0.65279 2.90136,-1.18689 5.55089,-1.18689 4.09417,0 4.81733,0.32568 4.81733,2.16949 0,1.19322 0.67641,2.16949 1.50313,2.16949 0.82671,0 2.90129,0.73022 4.61017,1.62271 2.78608,1.45508 3.2391,1.44461 4.38544,-0.10129 1.62295,-2.18865 -0.64438,-6.14698 -6.40709,-11.18548 -3.42498,-2.99457 -4.57244,-3.41966 -7.4969,-2.77734 -1.89913,0.41712 -4.58882,2.10829 -5.9771,3.75816 -4.27707,5.08301 -9.60738,5.01256 -8.88204,-0.1174 0.31261,-2.21097 0.8821,-2.5393 3.89856,-2.24766 3.98164,0.38494 5.75369,-1.98712 3.50691,-4.69432 -1.08161,-1.30326 -1.033,-1.61331 0.2529,-1.61331 0.8755,0 2.47532,-0.97627 3.55518,-2.16949 2.15428,-2.38046 1.1064,-2.74266 -3.19902,-1.10574 -2.60219,0.98935 -2.75192,0.88063 -2.14076,-1.55439 0.55751,-2.22133 0.0255,-2.93985 -3.51003,-4.74071 -10.1477,-5.16879 -27.04641,-7.27356 -38.25552,-4.76481 -4.50615,1.00854 -6.26195,4.09269 -1.84979,3.24925 2.19657,-0.4199 2.85343,-0.11125 2.85343,1.34078 0,1.03744 0.744,2.50371 1.65333,3.25839 2.45829,2.0402 1.37403,2.67972 -6.75618,3.98497 -3.08814,0.49579 -3.41203,0.87807 -2.90448,3.42819 0.51921,2.60873 0.25445,2.88136 -2.90661,2.99301 -1.99035,0.0703 -3.90282,0.88222 -4.47145,1.89831 -0.54648,0.9765 -1.57951,1.7917 -2.29563,1.81155 -1.73161,0.048 -6.18339,3.81266 -6.18339,5.229 0,0.6164 -1.457438,1.98166 -3.238752,3.03391 -1.781315,1.05225 -3.695319,3.15442 -4.253346,4.6715 -0.687612,1.869367 -1.042191,2.146537 -1.100231,0.860007 -0.06004,-1.330807 -0.97741,-1.893867 -3.068688,-1.883487 -6.46014,0.0321 -7.794968,1.03955 -9.59889,7.244817 -1.904266,6.55044 -1.459346,8.10532 1.54206,5.38908 2.793967,-2.5285 3.599718,-2.2464 2.790683,0.97705 -0.561028,2.23532 -0.247066,2.89605 1.606452,3.38075 1.591009,0.41606 2.303763,1.46083 2.303763,3.37689 0,2.77251 -0.0017,2.77299 -2.440678,0.68704 -2.499192,-2.13744 -6.852879,-4.79926 -7.849688,-4.79926 -0.3064,0 -0.557092,3.55846 -0.557092,7.90769 0,16.26067 6.722595,32.32651 18.300379,43.73475 3.870284,3.81361 7.693742,6.93384 8.496571,6.93384 1.168914,0 1.318656,-1.9988 0.751702,-10.0339 -0.714167,-10.12146 -1.614534,-12.74577 -4.372913,-12.74577 -2.112509,0 -8.991071,-11.10498 -8.81546,-14.23197 0.07974,-1.41987 0.786382,-3.54444 1.570317,-4.72125 0.783935,-1.17682 1.425336,-3.41981 1.425336,-4.98442 0,-4.41127 3.453458,-6.87818 8.38224,-5.98771 2.250784,0.40665 5.212295,0.8957 6.581135,1.08678 1.36883,0.19108 3.56545,1.32437 4.88135,2.51843 1.31592,1.19406 3.68096,2.4749 5.25565,2.84631 1.75284,0.41342 3.10308,1.63148 3.48197,3.1411 0.46549,1.85467 2.41695,3.13405 7.87363,5.16198 8.94875,3.32574 10.33716,5.12442 7.11632,9.21907 -1.29357,1.64451 -2.35943,4.51063 -2.36856,6.36916 -0.0211,4.29432 -0.92769,5.67888 -4.64343,7.0916 -1.64383,0.62499 -3.26752,1.9979 -3.6082,3.05091 -1.63635,5.05784 -4.31825,8.96544 -6.15323,8.96544 -1.50227,0 -1.82561,0.53657 -1.30734,2.16949 0.37871,1.19322 0.24223,2.16949 -0.3033,2.16949 -0.54553,0 -2.0416,0.91043 -3.3246,2.02317 l -2.33273,2.02316 4.60743,1.6977 c 2.53409,0.93374 5.5837,1.91923 6.77692,2.18999 4.15256,0.94226 17.64051,0.73672 23.44516,-0.35728 z M 90.276422,84.029723 c 0.971245,-1.81479 1.436647,-1.99706 2.150396,-0.84219 0.550572,0.89084 0.397178,1.80042 -0.387781,2.29943 -0.879275,0.55896 -0.685629,0.83094 0.599632,0.84219 1.044068,0.009 1.898305,-0.74849 1.898305,-1.68361 0,-1.25888 0.620405,-1.50331 2.390086,-0.94163 2.210398,0.70155 2.256999,0.6255 0.619855,-1.01165 -0.973628,-0.97363 -2.293234,-1.77023 -2.932458,-1.77023 -0.639226,0 -1.162228,-0.48813 -1.162228,-1.08474 0,-2.23813 -2.854669,-0.96931 -4.647477,2.06567 -2.131283,3.60797 -2.284317,4.4428 -0.814418,4.4428 0.575619,0 1.604359,-1.04222 2.286088,-2.31604 z m 11.853778,-9.64301 c 0,-0.61138 1.22034,-1.57557 2.71186,-2.14265 1.49153,-0.56707 2.71187,-1.53126 2.71187,-2.14264 0,-1.4758 -0.35861,-1.42276 -4.84456,0.71643 -3.871855,1.84636 -5.207803,4.68045 -2.20629,4.68045 0.89492,0 1.62712,-0.50022 1.62712,-1.11159 z"
     id="path6003"
     inkscape:connector-curvature="0" />
</svg>
