<svg xmlns="http://www.w3.org/2000/svg" viewBox="0 0 256 256"><defs><clipPath><path transform="matrix(15.33333 0 0 11.5 415 -125.5)" d="m -24 13 c 0 1.105 -0.672 2 -1.5 2 -0.828 0 -1.5 -0.895 -1.5 -2 0 -1.105 0.672 -2 1.5 -2 0.828 0 1.5 0.895 1.5 2 z"/></clipPath><clipPath><path d="m 171 132 h 54.625 v 24 h -54.625"/></clipPath><clipPath><rect x="6" y="6" width="84" height="80" rx="6" style="fill:#fff"/></clipPath><clipPath><path d="m 74 56.824 h 129 v 139.69 h -129"/></clipPath><clipPath><path d="m 148 97 h 77.63 v 24 h -77.62"/></clipPath><clipPath><rect rx="6" height="80" width="84" y="6" x="6" style="fill:#fff"/></clipPath><clipPath><path d="m 27.707 56.824 h 82.29 v 139.69 h -82.29"/></clipPath><clipPath><rect rx="6" height="80" width="84" y="6" x="6" style="fill:#fff"/></clipPath><clipPath><rect rx="6" height="80" width="84" y="6" x="6" style="fill:#fff"/></clipPath><clipPath><rect rx="6" height="80" width="84" y="6" x="6" style="fill:#fff"/></clipPath><clipPath><rect x="6" y="6" width="84" height="80" rx="6" style="fill:#fff"/></clipPath><clipPath><rect rx="6" height="80" width="84" y="6" x="6" style="fill:#fff"/></clipPath><clipPath><rect rx="6" height="80" width="84" y="6" x="6" style="fill:#fff"/></clipPath><clipPath><rect x="6" y="6" width="84" height="80" rx="6" style="fill:#fff"/></clipPath><clipPath><rect x="6" y="6" width="84" height="80" rx="6" style="fill:#fff"/></clipPath><clipPath><rect rx="6" height="80" width="84" y="6" x="6" style="fill:#fff"/></clipPath><clipPath><rect x="6" y="6" width="84" height="80" rx="6" style="fill:#fff"/></clipPath><clipPath><rect x="6" y="6" width="84" height="80" rx="6" style="fill:#fff"/></clipPath><clipPath><rect rx="6" height="80" width="84" y="6" x="6" style="fill:#fff"/></clipPath><clipPath><rect x="6" y="6" width="84" height="80" rx="6" style="fill:#fff"/></clipPath><clipPath><rect x="6" y="6" width="84" height="80" rx="6" style="fill:#fff"/></clipPath></defs><path d="m 193.89 224.63 c 226.71 -210.75 -241.2 -343.53 -189.6 -63.746 25.452 73.816 116.81 131.42 189.6 63.746 z" style="fill:#9acd32;color:#000"/><g style="stroke:#7f7f7f"><path transform="matrix(0 14.17296 14.35589 0 -6802.12 3732.19)" d="m -257.65 489.5 v -10 h 10 v 2 h -8 v 8 z" style="fill:#fff;stroke-linejoin:round"/><ellipse transform="matrix(14.23466 0 0 -14.173 3749.01 6973.82)" cy="485.41" cx="-256.74" rx="4" ry="4" style="fill:#d6d6d6;stroke-miterlimit:3.333"/></g></svg>