<?xml version="1.0" encoding="UTF-8" standalone="no"?>
<svg
   xmlns:dc="http://purl.org/dc/elements/1.1/"
   xmlns:cc="http://creativecommons.org/ns#"
   xmlns:rdf="http://www.w3.org/1999/02/22-rdf-syntax-ns#"
   xmlns:svg="http://www.w3.org/2000/svg"
   xmlns="http://www.w3.org/2000/svg"
   xmlns:sodipodi="http://sodipodi.sourceforge.net/DTD/sodipodi-0.dtd"
   xmlns:inkscape="http://www.inkscape.org/namespaces/inkscape"
   viewBox="0 0 256 256"
   id="svg2"
   version="1.1"
   inkscape:version="0.48.4 r9939"
   width="100%"
   height="100%"
   sodipodi:docname="whitebalance.svg">
  <metadata
     id="metadata16">
    <rdf:RDF>
      <cc:Work
         rdf:about="">
        <dc:format>image/svg+xml</dc:format>
        <dc:type
           rdf:resource="http://purl.org/dc/dcmitype/StillImage" />
        <dc:title></dc:title>
      </cc:Work>
    </rdf:RDF>
  </metadata>
  <sodipodi:namedview
     pagecolor="#ffffff"
     bordercolor="#666666"
     borderopacity="1"
     objecttolerance="10"
     gridtolerance="10"
     guidetolerance="10"
     inkscape:pageopacity="0"
     inkscape:pageshadow="2"
     inkscape:window-width="698"
     inkscape:window-height="768"
     id="namedview14"
     showgrid="false"
     inkscape:zoom="0.921875"
     inkscape:cx="122.52342"
     inkscape:cy="128"
     inkscape:window-x="580"
     inkscape:window-y="25"
     inkscape:window-maximized="0"
     inkscape:current-layer="svg2" />
  <defs
     id="defs4">
    <clipPath
       id="clipPath6">
      <path
         d="M 0,64 H64 V128 H0 z"
         id="path8" />
    </clipPath>
    <style
       type="text/css"
       id="current-color-scheme">.ColorScheme-Text {
        color:#4d4d4d;
      }
      .ColorScheme-Background {
        color:#eff0f1;
      }
      .ColorScheme-Highlight {
        color:#3daee9;
      }
      .ColorScheme-ViewText {
        color:#31363b;
      }
      .ColorScheme-ViewBackground {
        color:#fcfcfc;
      }
      .ColorScheme-ViewHover {
        color:#93cee9;
      }
      .ColorScheme-ViewFocus{
        color:#3daee9;
      }
      .ColorScheme-ButtonText {
        color:#31363b;
      }
      .ColorScheme-ButtonBackground {
        color:#eff0f1;
      }
      .ColorScheme-ButtonHover {
        color:#93cee9;
      }
      .ColorScheme-ButtonFocus{
        color:#3daee9;
      }</style>
  </defs>
  <g
     style="color:#000"
     id="g10">
    <path
       d="m -1360.14 1641.33 c 46.11 -98.28 -119.59 -146.07 -181.85 -106.06 -62.25 40.01 -83.52 108.58 -13.01 143.08 70.51 34.501 148.75 61.26 194.86 -37.03 z"
       transform="matrix(1.03665 0 0 -1.35742 1657.71 2320.79)"
       style="fill:#9acd32"
       id="path12" />
  </g>
  <g
     transform="matrix(10.607748,0,0,10.607611,-5729.1844,-7899.0505)"
     id="layer1">
    <rect
       x="507.10001"
       y="747.54999"
       width="0"
       height="11"
       class="ColorScheme-Text"
       style="color:#4d4d4d;fill:currentColor"
       id="rect4035" />
    <rect
       x="525.14001"
       y="745.5"
       width="0"
       height="11"
       class="ColorScheme-Text"
       style="color:#4d4d4d;fill:currentColor"
       id="rect4035-5" />
    <rect
       x="507.10001"
       y="747.54999"
       width="0"
       height="11"
       class="ColorScheme-Text"
       style="color:#4d4d4d;fill:currentColor"
       id="rect4035-8" />
    <rect
       x="507.10001"
       y="747.54999"
       width="0"
       height="11"
       class="ColorScheme-Text"
       style="color:#4d4d4d;fill:currentColor"
       id="rect4035-59" />
    <rect
       x="499.79999"
       y="742.71997"
       width="0"
       height="11"
       class="ColorScheme-Text"
       style="color:#4d4d4d;fill:currentColor"
       id="rect4035-6" />
    <rect
       x="517.84003"
       y="740.66998"
       width="0"
       height="11"
       class="ColorScheme-Text"
       style="color:#4d4d4d;fill:currentColor"
       id="rect4035-5-1" />
    <rect
       x="499.79999"
       y="742.71997"
       width="0"
       height="11"
       class="ColorScheme-Text"
       style="color:#4d4d4d;fill:currentColor"
       id="rect4035-8-3" />
    <rect
       x="499.79999"
       y="742.71997"
       width="0"
       height="11"
       class="ColorScheme-Text"
       style="color:#4d4d4d;fill:currentColor"
       id="rect4035-59-4" />
    <rect
       x="505.81"
       y="746.94"
       width="0"
       height="11"
       class="ColorScheme-Text"
       style="color:#4d4d4d;fill:currentColor"
       id="rect4035-1" />
    <rect
       x="523.84998"
       y="744.88"
       width="0"
       height="11"
       class="ColorScheme-Text"
       style="color:#4d4d4d;fill:currentColor"
       id="rect4035-5-0" />
    <rect
       x="505.81"
       y="746.94"
       width="0"
       height="11"
       class="ColorScheme-Text"
       style="color:#4d4d4d;fill:currentColor"
       id="rect4035-8-1" />
    <rect
       x="505.81"
       y="746.94"
       width="0"
       height="11"
       class="ColorScheme-Text"
       style="color:#4d4d4d;fill:currentColor"
       id="rect4035-59-1" />
    <rect
       x="507.10001"
       y="747.54999"
       width="0"
       height="11"
       class="ColorScheme-Text"
       style="color:#4d4d4d;fill:currentColor"
       id="rect4035-7" />
    <rect
       x="525.14001"
       y="745.5"
       width="0"
       height="11"
       class="ColorScheme-Text"
       style="color:#4d4d4d;fill:currentColor"
       id="rect4035-5-7" />
    <rect
       x="507.10001"
       y="747.54999"
       width="0"
       height="11"
       class="ColorScheme-Text"
       style="color:#4d4d4d;fill:currentColor"
       id="rect4035-8-16" />
    <rect
       x="507.10001"
       y="747.54999"
       width="0"
       height="11"
       class="ColorScheme-Text"
       style="color:#4d4d4d;fill:currentColor"
       id="rect4035-59-18" />
    <rect
       x="499.79999"
       y="742.71997"
       width="0"
       height="11"
       class="ColorScheme-Text"
       style="color:#4d4d4d;fill:currentColor"
       id="rect4035-6-5" />
    <rect
       x="517.84003"
       y="740.66998"
       width="0"
       height="11"
       class="ColorScheme-Text"
       style="color:#4d4d4d;fill:currentColor"
       id="rect4035-5-1-8" />
    <rect
       x="499.79999"
       y="742.71997"
       width="0"
       height="11"
       class="ColorScheme-Text"
       style="color:#4d4d4d;fill:currentColor"
       id="rect4035-8-3-8" />
    <rect
       x="499.79999"
       y="742.71997"
       width="0"
       height="11"
       class="ColorScheme-Text"
       style="color:#4d4d4d;fill:currentColor"
       id="rect4035-59-4-7" />
    <rect
       x="505.81"
       y="746.94"
       width="0"
       height="11"
       class="ColorScheme-Text"
       style="color:#4d4d4d;fill:currentColor"
       id="rect4035-1-7" />
    <rect
       x="523.84998"
       y="744.88"
       width="0"
       height="11"
       class="ColorScheme-Text"
       style="color:#4d4d4d;fill:currentColor"
       id="rect4035-5-0-8" />
    <rect
       x="505.81"
       y="746.94"
       width="0"
       height="11"
       class="ColorScheme-Text"
       style="color:#4d4d4d;fill:currentColor"
       id="rect4035-8-1-0" />
    <rect
       x="505.81"
       y="746.94"
       width="0"
       height="11"
       class="ColorScheme-Text"
       style="color:#4d4d4d;fill:currentColor"
       id="rect4035-59-1-3" />
    <rect
       x="504.57001"
       y="750.92999"
       width="0"
       height="11"
       class="ColorScheme-Text"
       style="color:#4d4d4d;fill:currentColor"
       id="rect4035-0" />
    <rect
       x="522.60999"
       y="748.88"
       width="0"
       height="11"
       class="ColorScheme-Text"
       style="color:#4d4d4d;fill:currentColor"
       id="rect4035-5-5" />
    <rect
       x="504.57001"
       y="750.92999"
       width="0"
       height="11"
       class="ColorScheme-Text"
       style="color:#4d4d4d;fill:currentColor"
       id="rect4035-8-6" />
    <rect
       x="504.57001"
       y="750.92999"
       width="0"
       height="11"
       class="ColorScheme-Text"
       style="color:#4d4d4d;fill:currentColor"
       id="rect4035-59-11" />
    <rect
       x="488.57999"
       y="747.29999"
       width="0"
       height="11"
       class="ColorScheme-Text"
       style="color:#4d4d4d;fill:currentColor"
       id="rect4035-9" />
    <rect
       x="506.62"
       y="745.25"
       width="0"
       height="11"
       class="ColorScheme-Text"
       style="color:#4d4d4d;fill:currentColor"
       id="rect4035-5-8" />
    <rect
       x="488.57999"
       y="747.29999"
       width="0"
       height="11"
       class="ColorScheme-Text"
       style="color:#4d4d4d;fill:currentColor"
       id="rect4035-8-0" />
    <rect
       x="488.57999"
       y="747.29999"
       width="0"
       height="11"
       class="ColorScheme-Text"
       style="color:#4d4d4d;fill:currentColor"
       id="rect4035-59-1-8" />
    <rect
       x="507.10001"
       y="747.54999"
       width="0"
       height="11"
       class="ColorScheme-Text"
       style="color:#4d4d4d;fill:currentColor"
       id="rect4035-3" />
    <rect
       x="525.14001"
       y="745.5"
       width="0"
       height="11"
       class="ColorScheme-Text"
       style="color:#4d4d4d;fill:currentColor"
       id="rect4035-5-2" />
    <rect
       x="507.10001"
       y="747.54999"
       width="0"
       height="11"
       class="ColorScheme-Text"
       style="color:#4d4d4d;fill:currentColor"
       id="rect4035-8-7" />
    <rect
       x="507.10001"
       y="747.54999"
       width="0"
       height="11"
       class="ColorScheme-Text"
       style="color:#4d4d4d;fill:currentColor"
       id="rect4035-59-43" />
    <rect
       x="499.79999"
       y="742.71997"
       width="0"
       height="11"
       class="ColorScheme-Text"
       style="color:#4d4d4d;fill:currentColor"
       id="rect4035-6-2" />
    <rect
       x="517.84003"
       y="740.66998"
       width="0"
       height="11"
       class="ColorScheme-Text"
       style="color:#4d4d4d;fill:currentColor"
       id="rect4035-5-1-6" />
    <rect
       x="499.79999"
       y="742.71997"
       width="0"
       height="11"
       class="ColorScheme-Text"
       style="color:#4d4d4d;fill:currentColor"
       id="rect4035-8-3-4" />
    <rect
       x="499.79999"
       y="742.71997"
       width="0"
       height="11"
       class="ColorScheme-Text"
       style="color:#4d4d4d;fill:currentColor"
       id="rect4035-59-4-8" />
    <rect
       x="505.81"
       y="746.94"
       width="0"
       height="11"
       class="ColorScheme-Text"
       style="color:#4d4d4d;fill:currentColor"
       id="rect4035-1-8" />
    <rect
       x="523.84998"
       y="744.88"
       width="0"
       height="11"
       class="ColorScheme-Text"
       style="color:#4d4d4d;fill:currentColor"
       id="rect4035-5-0-0" />
    <rect
       x="505.81"
       y="746.94"
       width="0"
       height="11"
       class="ColorScheme-Text"
       style="color:#4d4d4d;fill:currentColor"
       id="rect4035-8-1-3" />
    <rect
       x="505.81"
       y="746.94"
       width="0"
       height="11"
       class="ColorScheme-Text"
       style="color:#4d4d4d;fill:currentColor"
       id="rect4035-59-1-1" />
    <path
       d="m 552.57,749.93 a 5,5 0 0 0 -5,5 5,5 0 0 0 0,0.008 5,5 0 0 0 -2,3.9922 5,5 0 0 0 5,5 5,5 0 0 0 1.9961,-0.42187 5,5 0 0 0 2.0039,0.42187 5,5 0 0 0 5,-5 5,5 0 0 0 -2,-3.9922 5,5 0 0 0 0,-0.008 5,5 0 0 0 -5,-5 z"
       style="opacity:0.5;color:#4d4d4d"
       id="path4149-7"
       inkscape:connector-curvature="0" />
  </g>
  <path
     style="fill:#ffffff;fill-opacity:1;fill-rule:evenodd;stroke:#ffffff;stroke-width:5.93789816;stroke-miterlimit:4;stroke-opacity:1;stroke-dasharray:none"
     d="m 96.042428,200.92062 c -10.010109,-3.7211 -15.734148,-7.4877 -22.523961,-14.82151 -19.709294,-21.28839 -19.629949,-49.9332 0.195888,-70.71852 5.58638,-5.85673 6.102783,-6.83549 6.821197,-12.92842 1.143139,-9.695043 7.300607,-21.37797 15.687557,-29.764921 21.225921,-21.225923 51.608571,-21.106936 72.661021,0.284561 8.96504,9.109432 15.68674,22.964297 15.68674,32.33374 0,2.54277 1.10707,4.44131 4.47105,7.66752 13.27889,12.73507 19.70845,32.50307 15.68268,48.21717 -4.92892,19.23946 -18.57453,34.01785 -37.10384,40.18401 -6.04028,2.01008 -8.83992,2.31612 -17.10235,1.86951 -5.43386,-0.29372 -11.6742,-1.29291 -13.86744,-2.22042 -3.68619,-1.55888 -4.49317,-1.52906 -10.67291,0.39429 -9.3303,2.90392 -21.32241,2.70482 -29.935632,-0.49701 l 0,0 z"
     id="path5159"
     inkscape:connector-curvature="0" />
</svg>
