<?xml version="1.0" encoding="UTF-8" standalone="no"?>
<svg
   xmlns:dc="http://purl.org/dc/elements/1.1/"
   xmlns:cc="http://creativecommons.org/ns#"
   xmlns:rdf="http://www.w3.org/1999/02/22-rdf-syntax-ns#"
   xmlns:svg="http://www.w3.org/2000/svg"
   xmlns="http://www.w3.org/2000/svg"
   xmlns:sodipodi="http://sodipodi.sourceforge.net/DTD/sodipodi-0.dtd"
   xmlns:inkscape="http://www.inkscape.org/namespaces/inkscape"
   viewBox="0 0 256 256"
   id="svg2"
   version="1.1"
   inkscape:version="0.48.4 r9939"
   width="100%"
   height="100%"
   sodipodi:docname="blurfx.svg">
  <metadata
     id="metadata16">
    <rdf:RDF>
      <cc:Work
         rdf:about="">
        <dc:format>image/svg+xml</dc:format>
        <dc:type
           rdf:resource="http://purl.org/dc/dcmitype/StillImage" />
        <dc:title></dc:title>
      </cc:Work>
    </rdf:RDF>
  </metadata>
  <sodipodi:namedview
     pagecolor="#ffffff"
     bordercolor="#666666"
     borderopacity="1"
     objecttolerance="10"
     gridtolerance="10"
     guidetolerance="10"
     inkscape:pageopacity="0"
     inkscape:pageshadow="2"
     inkscape:window-width="698"
     inkscape:window-height="768"
     id="namedview14"
     showgrid="false"
     inkscape:zoom="0.921875"
     inkscape:cx="122.52342"
     inkscape:cy="128"
     inkscape:window-x="580"
     inkscape:window-y="25"
     inkscape:window-maximized="0"
     inkscape:current-layer="svg2" />
  <defs
     id="defs4">
    <clipPath
       id="clipPath6">
      <path
         d="M 0,64 H64 V128 H0 z"
         id="path8" />
    </clipPath>
    <style
       type="text/css"
       id="current-color-scheme">.ColorScheme-Text {
        color:#4d4d4d;
      }
      .ColorScheme-Background {
        color:#eff0f1;
      }
      .ColorScheme-Highlight {
        color:#3daee9;
      }
      .ColorScheme-ViewText {
        color:#31363b;
      }
      .ColorScheme-ViewBackground {
        color:#fcfcfc;
      }
      .ColorScheme-ViewHover {
        color:#93cee9;
      }
      .ColorScheme-ViewFocus{
        color:#3daee9;
      }
      .ColorScheme-ButtonText {
        color:#31363b;
      }
      .ColorScheme-ButtonBackground {
        color:#eff0f1;
      }
      .ColorScheme-ButtonHover {
        color:#93cee9;
      }
      .ColorScheme-ButtonFocus{
        color:#3daee9;
      }</style>
  </defs>
  <g
     style="color:#000000"
     id="g10"
     transform="matrix(-1,0,0,1,256.01463,0)">
    <path
       d="m -1360.14,1641.33 c 46.11,-98.28 -119.59,-146.07 -181.85,-106.06 -62.25,40.01 -83.52,108.58 -13.01,143.08 70.51,34.501 148.75,61.26 194.86,-37.03 z"
       transform="matrix(1.03665,0,0,-1.35742,1657.71,2320.79)"
       style="fill:#9acd32"
       id="path12"
       inkscape:connector-curvature="0" />
  </g>
  <g
     transform="matrix(10.626818,0,0,10.559382,-5745.1481,-7859.8309)"
     id="layer1">
    <rect
       x="507.10001"
       y="747.54999"
       width="0"
       height="11"
       class="ColorScheme-Text"
       style="color:#4d4d4d;fill:currentColor"
       id="rect4035" />
    <rect
       x="525.14001"
       y="745.5"
       width="0"
       height="11"
       class="ColorScheme-Text"
       style="color:#4d4d4d;fill:currentColor"
       id="rect4035-5" />
    <rect
       x="507.10001"
       y="747.54999"
       width="0"
       height="11"
       class="ColorScheme-Text"
       style="color:#4d4d4d;fill:currentColor"
       id="rect4035-8" />
    <rect
       x="507.10001"
       y="747.54999"
       width="0"
       height="11"
       class="ColorScheme-Text"
       style="color:#4d4d4d;fill:currentColor"
       id="rect4035-59" />
    <rect
       x="499.79999"
       y="742.71997"
       width="0"
       height="11"
       class="ColorScheme-Text"
       style="color:#4d4d4d;fill:currentColor"
       id="rect4035-6" />
    <rect
       x="517.84003"
       y="740.66998"
       width="0"
       height="11"
       class="ColorScheme-Text"
       style="color:#4d4d4d;fill:currentColor"
       id="rect4035-5-1" />
    <rect
       x="499.79999"
       y="742.71997"
       width="0"
       height="11"
       class="ColorScheme-Text"
       style="color:#4d4d4d;fill:currentColor"
       id="rect4035-8-3" />
    <rect
       x="499.79999"
       y="742.71997"
       width="0"
       height="11"
       class="ColorScheme-Text"
       style="color:#4d4d4d;fill:currentColor"
       id="rect4035-59-4" />
    <rect
       x="505.81"
       y="746.94"
       width="0"
       height="11"
       class="ColorScheme-Text"
       style="color:#4d4d4d;fill:currentColor"
       id="rect4035-1" />
    <rect
       x="523.84998"
       y="744.88"
       width="0"
       height="11"
       class="ColorScheme-Text"
       style="color:#4d4d4d;fill:currentColor"
       id="rect4035-5-0" />
    <rect
       x="505.81"
       y="746.94"
       width="0"
       height="11"
       class="ColorScheme-Text"
       style="color:#4d4d4d;fill:currentColor"
       id="rect4035-8-1" />
    <rect
       x="505.81"
       y="746.94"
       width="0"
       height="11"
       class="ColorScheme-Text"
       style="color:#4d4d4d;fill:currentColor"
       id="rect4035-59-1" />
    <rect
       x="507.10001"
       y="747.54999"
       width="0"
       height="11"
       class="ColorScheme-Text"
       style="color:#4d4d4d;fill:currentColor"
       id="rect4035-7" />
    <rect
       x="525.14001"
       y="745.5"
       width="0"
       height="11"
       class="ColorScheme-Text"
       style="color:#4d4d4d;fill:currentColor"
       id="rect4035-5-7" />
    <rect
       x="507.10001"
       y="747.54999"
       width="0"
       height="11"
       class="ColorScheme-Text"
       style="color:#4d4d4d;fill:currentColor"
       id="rect4035-8-16" />
    <rect
       x="507.10001"
       y="747.54999"
       width="0"
       height="11"
       class="ColorScheme-Text"
       style="color:#4d4d4d;fill:currentColor"
       id="rect4035-59-18" />
    <rect
       x="499.79999"
       y="742.71997"
       width="0"
       height="11"
       class="ColorScheme-Text"
       style="color:#4d4d4d;fill:currentColor"
       id="rect4035-6-5" />
    <rect
       x="517.84003"
       y="740.66998"
       width="0"
       height="11"
       class="ColorScheme-Text"
       style="color:#4d4d4d;fill:currentColor"
       id="rect4035-5-1-8" />
    <rect
       x="499.79999"
       y="742.71997"
       width="0"
       height="11"
       class="ColorScheme-Text"
       style="color:#4d4d4d;fill:currentColor"
       id="rect4035-8-3-8" />
    <rect
       x="499.79999"
       y="742.71997"
       width="0"
       height="11"
       class="ColorScheme-Text"
       style="color:#4d4d4d;fill:currentColor"
       id="rect4035-59-4-7" />
    <rect
       x="505.81"
       y="746.94"
       width="0"
       height="11"
       class="ColorScheme-Text"
       style="color:#4d4d4d;fill:currentColor"
       id="rect4035-1-7" />
    <rect
       x="523.84998"
       y="744.88"
       width="0"
       height="11"
       class="ColorScheme-Text"
       style="color:#4d4d4d;fill:currentColor"
       id="rect4035-5-0-8" />
    <rect
       x="505.81"
       y="746.94"
       width="0"
       height="11"
       class="ColorScheme-Text"
       style="color:#4d4d4d;fill:currentColor"
       id="rect4035-8-1-0" />
    <rect
       x="505.81"
       y="746.94"
       width="0"
       height="11"
       class="ColorScheme-Text"
       style="color:#4d4d4d;fill:currentColor"
       id="rect4035-59-1-3" />
    <rect
       x="504.57001"
       y="750.92999"
       width="0"
       height="11"
       class="ColorScheme-Text"
       style="color:#4d4d4d;fill:currentColor"
       id="rect4035-0" />
    <rect
       x="522.60999"
       y="748.88"
       width="0"
       height="11"
       class="ColorScheme-Text"
       style="color:#4d4d4d;fill:currentColor"
       id="rect4035-5-5" />
    <rect
       x="504.57001"
       y="750.92999"
       width="0"
       height="11"
       class="ColorScheme-Text"
       style="color:#4d4d4d;fill:currentColor"
       id="rect4035-8-6" />
    <rect
       x="504.57001"
       y="750.92999"
       width="0"
       height="11"
       class="ColorScheme-Text"
       style="color:#4d4d4d;fill:currentColor"
       id="rect4035-59-11" />
    <rect
       x="488.57999"
       y="747.29999"
       width="0"
       height="11"
       class="ColorScheme-Text"
       style="color:#4d4d4d;fill:currentColor"
       id="rect4035-9" />
    <rect
       x="506.62"
       y="745.25"
       width="0"
       height="11"
       class="ColorScheme-Text"
       style="color:#4d4d4d;fill:currentColor"
       id="rect4035-5-8" />
    <rect
       x="488.57999"
       y="747.29999"
       width="0"
       height="11"
       class="ColorScheme-Text"
       style="color:#4d4d4d;fill:currentColor"
       id="rect4035-8-0" />
    <rect
       x="488.57999"
       y="747.29999"
       width="0"
       height="11"
       class="ColorScheme-Text"
       style="color:#4d4d4d;fill:currentColor"
       id="rect4035-59-1-8" />
    <path
       d="m 552.07,748.93 v 1.8125 h 1 V 748.93 h -1 z m -4.8125,1.9688 -0.71875,0.71875 1.2812,1.3125 0.71875,-0.75 -1.2812,-1.2812 z m 10.625,0 -1.2812,1.2812 0.71875,0.75 1.2812,-1.3125 -0.71875,-0.71875 z M 552.57,751.93 c -2.7614,0 -5,2.2386 -5,5 0,2.7614 2.2386,5 5,5 2.7614,0 5,-2.2386 5,-5 0,-2.7614 -2.2386,-5 -5,-5 z m -8,4.5 v 1 h 1.8125 v -1 H 544.57 z m 14.188,0 v 1 h 1.8125 v -1 h -1.8125 z m -10.938,4.5312 -1.2812,1.2812 0.71875,0.71875 1.2812,-1.2812 -0.71875,-0.71875 z m 9.5,0 -0.71875,0.71875 1.2812,1.2812 0.71875,-0.71875 -1.2812,-1.2812 z m -5.25,2.1562 v 1.8125 h 1 v -1.8125 h -1 z"
       id="rect4148"
       inkscape:connector-curvature="0"
       style="opacity:0.5" />
    <rect
       x="507.10001"
       y="747.54999"
       width="0"
       height="11"
       class="ColorScheme-Text"
       style="color:#4d4d4d;fill:currentColor"
       id="rect4035-69" />
    <rect
       x="525.14001"
       y="745.5"
       width="0"
       height="11"
       class="ColorScheme-Text"
       style="color:#4d4d4d;fill:currentColor"
       id="rect4035-5-4" />
    <rect
       x="507.10001"
       y="747.54999"
       width="0"
       height="11"
       class="ColorScheme-Text"
       style="color:#4d4d4d;fill:currentColor"
       id="rect4035-8-72" />
    <rect
       x="507.10001"
       y="747.54999"
       width="0"
       height="11"
       class="ColorScheme-Text"
       style="color:#4d4d4d;fill:currentColor"
       id="rect4035-59-0" />
    <rect
       x="499.79999"
       y="742.71997"
       width="0"
       height="11"
       class="ColorScheme-Text"
       style="color:#4d4d4d;fill:currentColor"
       id="rect4035-6-9" />
    <rect
       x="517.84003"
       y="740.66998"
       width="0"
       height="11"
       class="ColorScheme-Text"
       style="color:#4d4d4d;fill:currentColor"
       id="rect4035-5-1-1" />
    <rect
       x="499.79999"
       y="742.71997"
       width="0"
       height="11"
       class="ColorScheme-Text"
       style="color:#4d4d4d;fill:currentColor"
       id="rect4035-8-3-7" />
    <rect
       x="499.79999"
       y="742.71997"
       width="0"
       height="11"
       class="ColorScheme-Text"
       style="color:#4d4d4d;fill:currentColor"
       id="rect4035-59-4-5" />
    <rect
       x="505.81"
       y="746.94"
       width="0"
       height="11"
       class="ColorScheme-Text"
       style="color:#4d4d4d;fill:currentColor"
       id="rect4035-1-1" />
    <rect
       x="523.84998"
       y="744.88"
       width="0"
       height="11"
       class="ColorScheme-Text"
       style="color:#4d4d4d;fill:currentColor"
       id="rect4035-5-0-2" />
    <rect
       x="505.81"
       y="746.94"
       width="0"
       height="11"
       class="ColorScheme-Text"
       style="color:#4d4d4d;fill:currentColor"
       id="rect4035-8-1-4" />
    <rect
       x="505.81"
       y="746.94"
       width="0"
       height="11"
       class="ColorScheme-Text"
       style="color:#4d4d4d;fill:currentColor"
       id="rect4035-59-1-7" />
    <rect
       x="507.10001"
       y="747.54999"
       width="0"
       height="11"
       class="ColorScheme-Text"
       style="color:#4d4d4d;fill:currentColor"
       id="rect4035-7-1" />
    <rect
       x="525.14001"
       y="745.5"
       width="0"
       height="11"
       class="ColorScheme-Text"
       style="color:#4d4d4d;fill:currentColor"
       id="rect4035-5-7-6" />
    <rect
       x="507.10001"
       y="747.54999"
       width="0"
       height="11"
       class="ColorScheme-Text"
       style="color:#4d4d4d;fill:currentColor"
       id="rect4035-8-16-2" />
    <rect
       x="507.10001"
       y="747.54999"
       width="0"
       height="11"
       class="ColorScheme-Text"
       style="color:#4d4d4d;fill:currentColor"
       id="rect4035-59-18-3" />
    <rect
       x="499.79999"
       y="742.71997"
       width="0"
       height="11"
       class="ColorScheme-Text"
       style="color:#4d4d4d;fill:currentColor"
       id="rect4035-6-5-7" />
    <rect
       x="517.84003"
       y="740.66998"
       width="0"
       height="11"
       class="ColorScheme-Text"
       style="color:#4d4d4d;fill:currentColor"
       id="rect4035-5-1-8-8" />
    <rect
       x="499.79999"
       y="742.71997"
       width="0"
       height="11"
       class="ColorScheme-Text"
       style="color:#4d4d4d;fill:currentColor"
       id="rect4035-8-3-8-9" />
    <rect
       x="499.79999"
       y="742.71997"
       width="0"
       height="11"
       class="ColorScheme-Text"
       style="color:#4d4d4d;fill:currentColor"
       id="rect4035-59-4-7-6" />
    <rect
       x="505.81"
       y="746.94"
       width="0"
       height="11"
       class="ColorScheme-Text"
       style="color:#4d4d4d;fill:currentColor"
       id="rect4035-1-7-1" />
    <rect
       x="523.84998"
       y="744.88"
       width="0"
       height="11"
       class="ColorScheme-Text"
       style="color:#4d4d4d;fill:currentColor"
       id="rect4035-5-0-8-1" />
    <rect
       x="505.81"
       y="746.94"
       width="0"
       height="11"
       class="ColorScheme-Text"
       style="color:#4d4d4d;fill:currentColor"
       id="rect4035-8-1-0-5" />
    <rect
       x="505.81"
       y="746.94"
       width="0"
       height="11"
       class="ColorScheme-Text"
       style="color:#4d4d4d;fill:currentColor"
       id="rect4035-59-1-3-6" />
    <rect
       x="504.57001"
       y="750.92999"
       width="0"
       height="11"
       class="ColorScheme-Text"
       style="color:#4d4d4d;fill:currentColor"
       id="rect4035-0-5" />
    <rect
       x="522.60999"
       y="748.88"
       width="0"
       height="11"
       class="ColorScheme-Text"
       style="color:#4d4d4d;fill:currentColor"
       id="rect4035-5-5-1" />
    <rect
       x="504.57001"
       y="750.92999"
       width="0"
       height="11"
       class="ColorScheme-Text"
       style="color:#4d4d4d;fill:currentColor"
       id="rect4035-8-6-9" />
    <rect
       x="504.57001"
       y="750.92999"
       width="0"
       height="11"
       class="ColorScheme-Text"
       style="color:#4d4d4d;fill:currentColor"
       id="rect4035-59-11-7" />
    <rect
       x="488.57999"
       y="747.29999"
       width="0"
       height="11"
       class="ColorScheme-Text"
       style="color:#4d4d4d;fill:currentColor"
       id="rect4035-9-9" />
    <rect
       x="506.62"
       y="745.25"
       width="0"
       height="11"
       class="ColorScheme-Text"
       style="color:#4d4d4d;fill:currentColor"
       id="rect4035-5-8-5" />
    <rect
       x="488.57999"
       y="747.29999"
       width="0"
       height="11"
       class="ColorScheme-Text"
       style="color:#4d4d4d;fill:currentColor"
       id="rect4035-8-0-9" />
    <rect
       x="488.57999"
       y="747.29999"
       width="0"
       height="11"
       class="ColorScheme-Text"
       style="color:#4d4d4d;fill:currentColor"
       id="rect4035-59-1-8-3" />
    <rect
       x="507.10001"
       y="747.54999"
       width="0"
       height="11"
       class="ColorScheme-Text"
       style="color:#4d4d4d;fill:currentColor"
       id="rect4035-3" />
    <rect
       x="525.14001"
       y="745.5"
       width="0"
       height="11"
       class="ColorScheme-Text"
       style="color:#4d4d4d;fill:currentColor"
       id="rect4035-5-2" />
    <rect
       x="507.10001"
       y="747.54999"
       width="0"
       height="11"
       class="ColorScheme-Text"
       style="color:#4d4d4d;fill:currentColor"
       id="rect4035-8-7" />
    <rect
       x="507.10001"
       y="747.54999"
       width="0"
       height="11"
       class="ColorScheme-Text"
       style="color:#4d4d4d;fill:currentColor"
       id="rect4035-59-43" />
    <rect
       x="499.79999"
       y="742.71997"
       width="0"
       height="11"
       class="ColorScheme-Text"
       style="color:#4d4d4d;fill:currentColor"
       id="rect4035-6-2" />
    <rect
       x="517.84003"
       y="740.66998"
       width="0"
       height="11"
       class="ColorScheme-Text"
       style="color:#4d4d4d;fill:currentColor"
       id="rect4035-5-1-6" />
    <rect
       x="499.79999"
       y="742.71997"
       width="0"
       height="11"
       class="ColorScheme-Text"
       style="color:#4d4d4d;fill:currentColor"
       id="rect4035-8-3-4" />
    <rect
       x="499.79999"
       y="742.71997"
       width="0"
       height="11"
       class="ColorScheme-Text"
       style="color:#4d4d4d;fill:currentColor"
       id="rect4035-59-4-8" />
    <rect
       x="505.81"
       y="746.94"
       width="0"
       height="11"
       class="ColorScheme-Text"
       style="color:#4d4d4d;fill:currentColor"
       id="rect4035-1-8" />
    <rect
       x="523.84998"
       y="744.88"
       width="0"
       height="11"
       class="ColorScheme-Text"
       style="color:#4d4d4d;fill:currentColor"
       id="rect4035-5-0-0" />
    <rect
       x="505.81"
       y="746.94"
       width="0"
       height="11"
       class="ColorScheme-Text"
       style="color:#4d4d4d;fill:currentColor"
       id="rect4035-8-1-3" />
    <rect
       x="505.81"
       y="746.94"
       width="0"
       height="11"
       class="ColorScheme-Text"
       style="color:#4d4d4d;fill:currentColor"
       id="rect4035-59-1-1" />
  </g>
  <path
     style="fill:#ffffff;fill-opacity:1;fill-rule:evenodd;stroke:#ffffff;stroke-width:5.93789816;stroke-miterlimit:4;stroke-opacity:1;stroke-dasharray:none"
     d="M 114.36017,183.38816 C 90.804287,177.04367 74.583741,156.45232 74.659604,132.98983 74.716577,115.36942 83.260851,99.4753 97.948829,89.667044 118.3941,76.014219 146.29961,78.750008 163.65258,96.10848 c 10.36865,10.37195 15.50626,22.58882 15.47859,36.80705 -0.0652,33.4829 -32.88791,59.05994 -64.771,50.47263 z"
     id="path5761"
     inkscape:connector-curvature="0" />
  <path
     style="fill:#ffffff;fill-opacity:1;fill-rule:evenodd;stroke:#ffffff;stroke-width:5.93789816;stroke-miterlimit:4;stroke-opacity:1;stroke-dasharray:none"
     d="m 66.887175,192.66256 -3.162703,-3.30116 6.429656,-6.49745 6.429656,-6.49745 3.265827,3.26582 3.265825,3.26583 -6.532778,6.53278 -6.532779,6.53278 -3.162704,-3.30115 z"
     id="path5763"
     inkscape:connector-curvature="0" />
  <path
     style="fill:#ffffff;fill-opacity:1;fill-rule:evenodd;stroke:#ffffff;stroke-width:5.93789816;stroke-miterlimit:4;stroke-opacity:1;stroke-dasharray:none"
     d="m 42.469178,132.98983 0,-4.33898 9.220339,0 9.220339,0 0,4.33898 0,4.33898 -9.220339,0 -9.220339,0 0,-4.33898 z"
     id="path5765"
     inkscape:connector-curvature="0" />
  <path
     style="fill:#ffffff;fill-opacity:1;fill-rule:evenodd;stroke:#ffffff;stroke-width:5.93789816;stroke-miterlimit:4;stroke-opacity:1;stroke-dasharray:none"
     d="m 70.130195,83.091525 -6.453589,-6.521639 3.254238,-3.254237 3.254237,-3.254237 6.453589,6.521639 6.453589,6.521639 -3.254238,3.254237 -3.254237,3.254237 -6.453589,-6.521639 z"
     id="path5767"
     inkscape:connector-curvature="0" />
  <path
     style="fill:#ffffff;fill-opacity:1;fill-rule:evenodd;stroke:#ffffff;stroke-width:5.93789816;stroke-miterlimit:4;stroke-opacity:1;stroke-dasharray:none"
     d="m 121.65562,58.142373 0,-8.677966 4.88136,0 4.88135,0 0,8.677966 0,8.677966 -4.88135,0 -4.88136,0 0,-8.677966 z"
     id="path5769"
     inkscape:connector-curvature="0" />
  <path
     style="fill:#ffffff;fill-opacity:1;fill-rule:evenodd;stroke:#ffffff;stroke-width:5.93789816;stroke-miterlimit:4;stroke-opacity:1;stroke-dasharray:none"
     d="m 173.95815,86.045569 -3.47147,-3.581646 6.27374,-6.208281 6.27375,-6.208281 3.47146,3.581646 3.47147,3.581646 -6.27374,6.208281 -6.27375,6.208281 -3.47146,-3.581646 0,0 z"
     id="path5771"
     inkscape:connector-curvature="0" />
  <path
     style="fill:#ffffff;fill-opacity:1;fill-rule:evenodd;stroke:#ffffff;stroke-width:5.93789816;stroke-miterlimit:4;stroke-opacity:1;stroke-dasharray:none"
     d="m 193.24884,132.98983 0,-4.33898 9.22034,0 9.22034,0 0,4.33898 0,4.33898 -9.22034,0 -9.22034,0 0,-4.33898 z"
     id="path5773"
     inkscape:connector-curvature="0" />
  <path
     style="fill:#ffffff;fill-opacity:1;fill-rule:evenodd;stroke:#ffffff;stroke-width:5.93789816;stroke-miterlimit:4;stroke-opacity:1;stroke-dasharray:none"
     d="m 176.62805,189.0991 -6.3157,-5.66859 3.64645,-3.51668 3.64646,-3.51667 6.21335,6.27888 6.21336,6.27887 -3.06109,2.93272 c -1.6836,1.61299 -3.27845,2.92086 -3.54411,2.90639 -0.26566,-0.0145 -3.32508,-2.57719 -6.79872,-5.69492 l 0,0 z"
     id="path5775"
     inkscape:connector-curvature="0" />
  <path
     style="fill:#ffffff;fill-opacity:1;fill-rule:evenodd;stroke:#ffffff;stroke-width:5.93789816;stroke-miterlimit:4;stroke-opacity:1;stroke-dasharray:none"
     d="m 121.65562,207.83729 0,-8.67797 4.88136,0 4.88135,0 0,8.67797 0,8.67796 -4.88135,0 -4.88136,0 0,-8.67796 z"
     id="path5777"
     inkscape:connector-curvature="0" />
</svg>
