<?xml version="1.0" encoding="UTF-8" standalone="no"?>
<svg
   xmlns:dc="http://purl.org/dc/elements/1.1/"
   xmlns:cc="http://creativecommons.org/ns#"
   xmlns:rdf="http://www.w3.org/1999/02/22-rdf-syntax-ns#"
   xmlns:svg="http://www.w3.org/2000/svg"
   xmlns="http://www.w3.org/2000/svg"
   xmlns:sodipodi="http://sodipodi.sourceforge.net/DTD/sodipodi-0.dtd"
   xmlns:inkscape="http://www.inkscape.org/namespaces/inkscape"
   viewBox="0 0 256 256"
   id="svg2"
   version="1.1"
   inkscape:version="0.48.4 r9939"
   width="100%"
   height="100%"
   sodipodi:docname="adjustlevels.svg">
  <metadata
     id="metadata16">
    <rdf:RDF>
      <cc:Work
         rdf:about="">
        <dc:format>image/svg+xml</dc:format>
        <dc:type
           rdf:resource="http://purl.org/dc/dcmitype/StillImage" />
        <dc:title></dc:title>
      </cc:Work>
    </rdf:RDF>
  </metadata>
  <sodipodi:namedview
     pagecolor="#ffffff"
     bordercolor="#666666"
     borderopacity="1"
     objecttolerance="10"
     gridtolerance="10"
     guidetolerance="10"
     inkscape:pageopacity="0"
     inkscape:pageshadow="2"
     inkscape:window-width="698"
     inkscape:window-height="768"
     id="namedview14"
     showgrid="false"
     inkscape:zoom="0.921875"
     inkscape:cx="122.52342"
     inkscape:cy="128"
     inkscape:window-x="580"
     inkscape:window-y="25"
     inkscape:window-maximized="0"
     inkscape:current-layer="svg2" />
  <defs
     id="defs4">
    <clipPath
       id="clipPath6">
      <path
         d="M 0,64 H64 V128 H0 z"
         id="path8" />
    </clipPath>
    <style
       type="text/css"
       id="current-color-scheme">.ColorScheme-Text {
        color:#4d4d4d;
      }
      .ColorScheme-Background {
        color:#eff0f1;
      }
      .ColorScheme-Highlight {
        color:#3daee9;
      }
      .ColorScheme-ViewText {
        color:#31363b;
      }
      .ColorScheme-ViewBackground {
        color:#fcfcfc;
      }
      .ColorScheme-ViewHover {
        color:#93cee9;
      }
      .ColorScheme-ViewFocus{
        color:#3daee9;
      }
      .ColorScheme-ButtonText {
        color:#31363b;
      }
      .ColorScheme-ButtonBackground {
        color:#eff0f1;
      }
      .ColorScheme-ButtonHover {
        color:#93cee9;
      }
      .ColorScheme-ButtonFocus{
        color:#3daee9;
      }</style>
  </defs>
  <g
     style="color:#000000"
     id="g10"
     transform="matrix(-1,0,0,1,256.01463,0)">
    <path
       d="m -1360.14,1641.33 c 46.11,-98.28 -119.59,-146.07 -181.85,-106.06 -62.25,40.01 -83.52,108.58 -13.01,143.08 70.51,34.501 148.75,61.26 194.86,-37.03 z"
       transform="matrix(1.03665,0,0,-1.35742,1657.71,2320.79)"
       style="fill:#9acd32"
       id="path12"
       inkscape:connector-curvature="0" />
  </g>
  <path
     style="fill:#ffffff;fill-opacity:1;fill-rule:evenodd;stroke:#ffffff;stroke-width:5.93789816;stroke-miterlimit:4;stroke-opacity:1;stroke-dasharray:none"
     d="m 63.079348,132.44746 0,-64.542375 64.542372,0 64.54237,0 0,64.542375 0,64.54237 -64.54237,0 -64.542372,0 0,-64.54237 z m 121.491522,0.28626 0,-57.747646 -14.43394,14.404228 -14.43393,14.404228 -2.10844,-2.33315 c -5.42594,-6.004255 -20.73278,-10.528801 -31.19667,-9.221426 -13.15852,1.64405 -26.421514,11.247166 -32.015294,23.180796 -2.562558,5.46689 -2.896468,7.49229 -2.896468,17.56908 0,12.29319 1.72399,17.77615 7.895421,25.11048 l 2.748101,3.26593 -13.72854,13.75908 c -7.550699,7.5675 -13.728542,14.1184 -13.728542,14.55755 0,0.43917 25.627119,0.79849 56.949152,0.79849 l 56.94915,0 0,-57.74764 z"
     id="path5443"
     inkscape:connector-curvature="0" />
  <path
     style="fill:#ffffff;fill-opacity:1;fill-rule:evenodd;stroke:#ffffff;stroke-width:5.5748806;stroke-miterlimit:4;stroke-opacity:1;stroke-dasharray:none"
     d="m 122.76592,170.45717 c -9.05507,-1.64004 -18.24597,-6.48396 -18.93881,-9.9814 -0.35303,-1.78205 4.32501,-6.80027 24.26327,-26.02769 17.53242,-16.90737 25.38345,-23.82795 27.05358,-23.84738 2.98035,-0.0347 6.35175,4.1545 9.19407,11.42421 2.98644,7.63831 2.43311,19.24364 -1.29045,27.06519 -5.50105,11.55526 -18.52422,20.39893 -31.46932,21.36991 -3.42126,0.25662 -7.38682,0.25534 -8.81234,-0.003 l 0,-4e-5 z"
     id="path5445"
     inkscape:connector-curvature="0" />
</svg>
