<?xml version="1.0" encoding="UTF-8" standalone="no"?>
<svg
   xmlns:dc="http://purl.org/dc/elements/1.1/"
   xmlns:cc="http://creativecommons.org/ns#"
   xmlns:rdf="http://www.w3.org/1999/02/22-rdf-syntax-ns#"
   xmlns:svg="http://www.w3.org/2000/svg"
   xmlns="http://www.w3.org/2000/svg"
   xmlns:sodipodi="http://sodipodi.sourceforge.net/DTD/sodipodi-0.dtd"
   xmlns:inkscape="http://www.inkscape.org/namespaces/inkscape"
   viewBox="0 0 256 256"
   id="svg2"
   version="1.1"
   inkscape:version="0.48.4 r9939"
   width="100%"
   height="100%"
   sodipodi:docname="format-align-vertical-center.svg">
  <metadata
     id="metadata10">
    <rdf:RDF>
      <cc:Work
         rdf:about="">
        <dc:format>image/svg+xml</dc:format>
        <dc:type
           rdf:resource="http://purl.org/dc/dcmitype/StillImage" />
        <dc:title></dc:title>
      </cc:Work>
    </rdf:RDF>
  </metadata>
  <defs
     id="defs8" />
  <sodipodi:namedview
     pagecolor="#ffffff"
     bordercolor="#666666"
     borderopacity="1"
     objecttolerance="10"
     gridtolerance="10"
     guidetolerance="10"
     inkscape:pageopacity="0"
     inkscape:pageshadow="2"
     inkscape:window-width="698"
     inkscape:window-height="774"
     id="namedview6"
     showgrid="false"
     inkscape:zoom="0.921875"
     inkscape:cx="134.01101"
     inkscape:cy="128"
     inkscape:window-x="580"
     inkscape:window-y="25"
     inkscape:window-maximized="0"
     inkscape:current-layer="svg2" />
  <path
     d="m 260.02 66.64 c -48.541 -88.14 -200.63 -53.931 -226.36 18.64 -30.66 86.45 49.14 250.63 184.3 154.45 45.527 -33.585 90.6 -84.949 42.05 -173.09 z"
     style="fill:#9acd32;color:#000"
     id="path4"
     transform="translate(-26.04 -13.02)" />
  <g
     transform="matrix(11.382567,0,0,11.382566,35.854722,-11759.952)"
     id="layer1">
    <path
       d="m 8,1037.4 c -3.866,0 -7,3.134 -7,7 0,3.866 3.134,7 7,7 3.866,0 7,-3.134 7,-7 0,-3.866 -3.134,-7 -7,-7 z m 0,2 c 2.7614,0 5,2.2386 5,5 0,2.7614 -2.2386,5 -5,5 -2.7614,0 -5,-2.2386 -5,-5 0,-2.7614 2.2386,-5 5,-5 z m 3.5,1.5 -3.5,1.166 c -1.2217,0 -2.334,1.1122 -2.334,2.334 l -1.166,3.5 3.5,-1.166 c 1.2217,0 2.334,-1.1123 2.334,-2.334 l 1.166,-3.5 z m -3.5,2.334 c 0.61088,0 1.166,0.5551 1.166,1.166 -2e-5,0.6108 -0.55517,1.166 -1.166,1.166 -0.61085,0 -1.166,-0.5552 -1.166,-1.166 -3e-5,-0.6109 0.55513,-1.166 1.166,-1.166 z"
       style="opacity:0.5;color:#4d4d4d"
       id="path4175"
       inkscape:connector-curvature="0" />
  </g>
  <path
     style="fill:#ffffff;fill-opacity:1;fill-rule:evenodd;stroke:#ffffff;stroke-width:5.93789816;stroke-miterlimit:4;stroke-opacity:1;stroke-dasharray:none"
     d="m 88.668639,165.904 c 0,-0.42413 2.634066,-8.64071 5.85348,-18.25906 3.219415,-9.61835 6.205951,-19.60849 6.636741,-22.20032 1.99872,-12.0251 11.10583,-21.13152 23.13745,-23.13572 2.59183,-0.43175 12.58197,-3.419056 22.20032,-6.63847 9.61835,-3.219415 17.82847,-5.853481 18.24471,-5.853481 0.41624,0 -2.11646,8.908475 -5.62823,19.796611 -3.51176,10.88813 -6.94425,22.09482 -7.62775,24.90374 -0.72143,2.96478 -2.87001,7.00824 -5.12195,9.63913 -3.87602,4.52825 -12.89027,9.62991 -17.05069,9.64992 -1.21186,0.006 -10.85254,2.90369 -21.42373,6.4397 -10.571193,3.536 -19.220351,6.08208 -19.220351,5.65795 z m 44.407691,-26.00137 c 3.98647,-2.13797 7.66011,-7.83794 7.66011,-11.88534 0,-7.06845 -6.5575,-13.26858 -13.9768,-13.2151 -13.81022,0.0996 -18.13199,17.74712 -6.13742,25.06164 4.17093,2.54352 7.76292,2.55471 12.45411,0.0388 l 0,0 z"
     id="path3195"
     inkscape:connector-curvature="0" />
  <path
     style="fill:#ffffff;fill-opacity:1;fill-rule:evenodd;stroke:#ffffff;stroke-width:5.93789816;stroke-miterlimit:4;stroke-opacity:1;stroke-dasharray:none"
     d="M 110.90593,205.43195 C 83.157341,199.01402 61.384965,179.94922 52.387823,154.19109 37.28543,110.95408 61.984191,64.241957 106.56694,51.723533 c 11.06147,-3.105958 29.01798,-3.338923 39.59322,-0.513675 22.7351,6.073839 41.32693,21.378722 51.51049,42.403701 6.44669,13.309801 8.59414,23.768521 7.88516,38.403021 -1.58971,32.81397 -22.8439,60.58808 -54.51429,71.23702 -10.66026,3.58443 -29.60958,4.6129 -40.13559,2.17835 z m 29.80711,-21.84574 c 9.24221,-2.1783 19.39001,-7.96269 26.57608,-15.14878 20.39402,-20.39401 22.45562,-53.06918 4.76501,-75.522343 -1.71287,-2.173991 -3.1143,-4.736703 -3.1143,-5.694915 0,-0.958213 -0.78399,-1.742206 -1.74222,-1.742206 -0.95821,0 -3.61222,-1.481088 -5.89781,-3.291306 -6.69595,-5.303292 -17.71983,-9.732712 -27.46106,-11.033916 -27.26115,-3.641462 -54.208922,14.311871 -62.206821,41.443866 -2.529029,8.57946 -2.250455,23.63701 0.602057,32.54237 1.242166,3.87797 4.487287,10.44164 7.21138,14.58594 2.724094,4.1443 4.708715,8.17142 4.41027,8.94915 -0.338546,0.88224 0.303796,1.41407 1.707906,1.41407 1.237794,0 4.029254,1.40063 6.203245,3.11251 13.415373,10.56378 31.715333,14.44672 48.946263,10.38556 l 0,0 z"
     id="path3197"
     inkscape:connector-curvature="0" />
</svg>
