<?xml version="1.0" encoding="UTF-8" standalone="no"?>
<svg
   xmlns:dc="http://purl.org/dc/elements/1.1/"
   xmlns:cc="http://creativecommons.org/ns#"
   xmlns:rdf="http://www.w3.org/1999/02/22-rdf-syntax-ns#"
   xmlns:svg="http://www.w3.org/2000/svg"
   xmlns="http://www.w3.org/2000/svg"
   xmlns:sodipodi="http://sodipodi.sourceforge.net/DTD/sodipodi-0.dtd"
   xmlns:inkscape="http://www.inkscape.org/namespaces/inkscape"
   sodipodi:docname="insert-page-break.svg"
   height="100%"
   width="100%"
   inkscape:version="0.48.4 r9939"
   version="1.1"
   id="svg2"
   viewBox="0 0 256 256">
  <metadata
     id="metadata10">
    <rdf:RDF>
      <cc:Work
         rdf:about="">
        <dc:format>image/svg+xml</dc:format>
        <dc:type
           rdf:resource="http://purl.org/dc/dcmitype/StillImage" />
        <dc:title></dc:title>
      </cc:Work>
    </rdf:RDF>
  </metadata>
  <defs
     id="defs8">
    <filter
       style="color-interpolation-filters:sRGB"
       id="filter7554">
      <feBlend
         mode="darken"
         in2="BackgroundImage"
         id="feBlend7556" />
    </filter>
  </defs>
  <sodipodi:namedview
     pagecolor="#ffffff"
     bordercolor="#666666"
     borderopacity="1"
     objecttolerance="10"
     gridtolerance="10"
     guidetolerance="10"
     inkscape:pageopacity="0"
     inkscape:pageshadow="2"
     inkscape:window-width="698"
     inkscape:window-height="774"
     id="namedview6"
     showgrid="false"
     inkscape:zoom="0.98901497"
     inkscape:cx="129.94642"
     inkscape:cy="127.17624"
     inkscape:window-x="580"
     inkscape:window-y="25"
     inkscape:window-maximized="0"
     inkscape:current-layer="svg2" />
  <path
     d="m 53.07102,234.52898 c -88.14,-48.541 -53.93100029,-200.63 18.64,-226.3600004 86.45,-30.6599996 250.63,49.1400004 154.45,184.3000004 -33.585,45.527 -84.949,90.6 -173.09,42.05 z"
     style="color:#000000;fill:#9acd32"
     id="path4"
     inkscape:connector-curvature="0" />
  <path
     style="fill:#ffffff;fill-opacity:1;fill-rule:evenodd;stroke:#ffffff;stroke-width:5.66188717;stroke-miterlimit:4;stroke-opacity:1;stroke-dasharray:none"
     d="m 135.93768,193.73237 -10.7757,-15.80399 -29.791391,-0.0222 c -26.524229,-0.0198 -30.256969,-0.22394 -34.03668,-1.86179 -5.293599,-2.29384 -10.647218,-8.00257 -12.190737,-12.99937 -0.795435,-2.57503 -1.067616,-15.72292 -0.84206,-40.67627 l 0.333282,-36.871383 2.808539,-4.556642 c 1.730137,-2.807013 4.576665,-5.522173 7.41335,-7.071222 l 4.604809,-2.51458 58.624888,-0.293057 c 64.30826,-0.321469 66.65742,-0.141682 72.63372,5.558804 6.49683,6.196994 6.38941,5.453966 6.73105,46.56654 l 0.31321,37.68985 -2.56015,5.33402 c -4.03126,8.39904 -10.58745,11.71728 -23.15113,11.71728 l -7.2945,0 -10.15325,14.90007 c -5.58428,8.19504 -10.54436,15.30685 -11.02239,15.80399 -0.47906,0.49823 -5.70552,-6.18922 -11.64486,-14.90008 z m -3.11136,-45.60655 7.89042,7.57683 6.72234,-6.31265 c 10.18468,-9.56395 10.13392,-8.9182 1.36338,-17.34019 l -7.54075,-7.24108 7.56942,-7.8357 7.56943,-7.83568 -7.28489,-7.40152 c -4.00669,-4.070822 -7.77426,-7.457853 -8.37235,-7.526722 -0.59811,-0.06885 -4.39868,3.057581 -8.44574,6.947662 l -7.35828,7.0729 -7.59171,-7.19303 c -4.17543,-3.956162 -8.03171,-7.02532 -8.56951,-6.820347 -0.5378,0.204973 -4.21095,3.658526 -8.16257,7.674557 l -7.184763,7.30188 7.502773,7.84351 7.50277,7.84352 -7.39614,7.10221 c -4.067873,3.90622 -7.396138,7.5354 -7.396138,8.06486 0,0.52948 3.44391,4.26972 7.653128,8.31166 l 7.65313,7.34899 7.99283,-7.57925 7.99283,-7.57924 7.89039,7.57683 z"
     id="path3438"
     inkscape:connector-curvature="0" />
</svg>
