<?xml version="1.0" encoding="UTF-8" standalone="no"?>
<svg
   xmlns:dc="http://purl.org/dc/elements/1.1/"
   xmlns:cc="http://creativecommons.org/ns#"
   xmlns:rdf="http://www.w3.org/1999/02/22-rdf-syntax-ns#"
   xmlns:svg="http://www.w3.org/2000/svg"
   xmlns="http://www.w3.org/2000/svg"
   xmlns:sodipodi="http://sodipodi.sourceforge.net/DTD/sodipodi-0.dtd"
   xmlns:inkscape="http://www.inkscape.org/namespaces/inkscape"
   viewBox="0 0 256 256"
   id="svg2"
   version="1.1"
   inkscape:version="0.48.4 r9939"
   width="100%"
   height="100%"
   sodipodi:docname="depth8to16.svg">
  <metadata
     id="metadata16">
    <rdf:RDF>
      <cc:Work
         rdf:about="">
        <dc:format>image/svg+xml</dc:format>
        <dc:type
           rdf:resource="http://purl.org/dc/dcmitype/StillImage" />
        <dc:title></dc:title>
      </cc:Work>
    </rdf:RDF>
  </metadata>
  <sodipodi:namedview
     pagecolor="#ffffff"
     bordercolor="#666666"
     borderopacity="1"
     objecttolerance="10"
     gridtolerance="10"
     guidetolerance="10"
     inkscape:pageopacity="0"
     inkscape:pageshadow="2"
     inkscape:window-width="698"
     inkscape:window-height="768"
     id="namedview14"
     showgrid="false"
     inkscape:zoom="0.921875"
     inkscape:cx="122.52342"
     inkscape:cy="128"
     inkscape:window-x="580"
     inkscape:window-y="25"
     inkscape:window-maximized="0"
     inkscape:current-layer="svg2" />
  <defs
     id="defs4">
    <clipPath
       id="clipPath6">
      <path
         d="M 0,64 H64 V128 H0 z"
         id="path8" />
    </clipPath>
    <style
       id="current-color-scheme"
       type="text/css">
      .ColorScheme-Text {
        color:#4d4d4d;
      }
      .ColorScheme-Background {
        color:#eff0f1;
      }
      .ColorScheme-Highlight {
        color:#3daee9;
      }
      .ColorScheme-ViewText {
        color:#31363b;
      }
      .ColorScheme-ViewBackground {
        color:#fcfcfc;
      }
      .ColorScheme-ViewHover {
        color:#93cee9;
      }
      .ColorScheme-ViewFocus{
        color:#3daee9;
      }
      .ColorScheme-ButtonText {
        color:#31363b;
      }
      .ColorScheme-ButtonBackground {
        color:#eff0f1;
      }
      .ColorScheme-ButtonHover {
        color:#93cee9;
      }
      .ColorScheme-ButtonFocus{
        color:#3daee9;
      }
      </style>
  </defs>
  <g
     style="color:#000000"
     id="g10"
     transform="matrix(-1,0,0,1,256.01463,0)">
    <path
       d="m -1360.14,1641.33 c 46.11,-98.28 -119.59,-146.07 -181.85,-106.06 -62.25,40.01 -83.52,108.58 -13.01,143.08 70.51,34.501 148.75,61.26 194.86,-37.03 z"
       transform="matrix(1.03665,0,0,-1.35742,1657.71,2320.79)"
       style="fill:#9acd32"
       id="path12"
       inkscape:connector-curvature="0" />
  </g>
  <path
     style="fill:#ffffff;fill-opacity:1;fill-rule:evenodd;stroke:#ffffff;stroke-width:5.93789816;stroke-miterlimit:4;stroke-opacity:1;stroke-dasharray:none"
     d="m 109.83614,195.85411 c -14.904384,-3.90313 -31.377155,-14.63118 -40.127251,-26.13328 -2.154723,-2.8324 -4.283778,-5.17762 -4.731236,-5.2116 -0.447458,-0.034 -0.813559,5.55179 -0.813559,12.4128 l 0,12.47458 -4.338983,0 -4.338983,0 0,-23.32203 0,-23.32204 23.322034,0 23.322038,0 0,4.33899 0,4.33898 -16.813564,0 c -9.247458,0 -16.813559,0.39257 -16.813559,0.87237 0,1.66442 6.477935,11.07534 11.091335,16.11312 9.212033,10.05941 30.341228,20.94269 40.761268,20.99542 6.17364,0.0312 7.80841,1.07659 7.80841,4.99306 0,3.66358 -0.009,3.66999 -5.15254,3.61037 -2.8339,-0.0328 -8.76283,-1.00518 -13.17541,-2.16074 z"
     id="path4523"
     inkscape:connector-curvature="0" />
  <path
     style="fill:#ffffff;fill-opacity:1;fill-rule:evenodd;stroke:#ffffff;stroke-width:5.93789816;stroke-miterlimit:4;stroke-opacity:1;stroke-dasharray:none"
     d="m 65.248839,101.5322 0,-28.203386 -4.881355,0 -4.881356,0 0,-4.338983 0,-4.338984 9.220339,0 9.220339,0 0,32.542373 0,32.54237 -4.338983,0 -4.338984,0 0,-28.20339 z"
     id="path4525"
     inkscape:connector-curvature="0" />
  <path
     style="fill:#ffffff;fill-opacity:1;fill-rule:evenodd;stroke:#ffffff;stroke-width:5.93789816;stroke-miterlimit:4;stroke-opacity:1;stroke-dasharray:none"
     d="m 96.143925,128.22393 c -3.901395,-1.69995 -9.999126,-8.3618 -10.885209,-11.89224 -0.347402,-1.38415 -0.476489,-10.81158 -0.28686,-20.94983 0.342005,-18.284827 0.36924,-18.465218 3.383905,-22.413746 9.837794,-12.88528 28.824319,-8.750834 32.790519,7.140361 0.72155,2.890993 0.607,2.98305 -3.71205,2.98305 -3.16176,0 -4.45658,-0.455169 -4.45658,-1.566628 0,-0.861647 -1.16853,-2.925129 -2.59673,-4.585517 -3.47423,-4.039032 -10.0909,-4.232439 -14.155677,-0.413776 -2.518078,2.365612 -2.773014,3.38904 -2.773014,11.132157 0,8.33408 0.0517,8.499375 2.284568,7.30438 3.832538,-2.051111 11.084313,-1.573838 15.726133,1.035012 9.95004,5.592237 12.88391,17.558717 6.31895,25.773347 -5.85198,7.32249 -14.03937,9.76434 -21.637955,6.45343 l 0,0 z m 13.361815,-9.36582 c 4.94603,-4.60792 4.39747,-11.76568 -1.16737,-15.23216 -9.645885,-6.008671 -20.222364,6.77034 -12.223583,14.76912 3.423554,3.42355 9.970233,3.64993 13.390953,0.46304 l 0,0 z"
     id="path4527"
     inkscape:connector-curvature="0" />
  <path
     style="fill:#ffffff;fill-opacity:1;fill-rule:evenodd;stroke:#ffffff;stroke-width:5.93789816;stroke-miterlimit:4;stroke-opacity:1;stroke-dasharray:none"
     d="m 158.53697,116.71865 0,-4.33899 16.81356,0 c 9.24746,0 16.81356,-0.39257 16.81356,-0.87237 0,-0.47981 -1.45212,-3.16213 -3.22693,-5.96071 C 178.53209,89.139478 158.99993,76.737771 140.31414,74.673989 l -7.26869,-0.802802 -0.34637,-4.230553 -0.34637,-4.230553 7.5908,0.70549 c 9.07314,0.84326 22.59038,5.432804 31.07416,10.550696 7.43815,4.487108 17.59806,13.490501 21.21372,18.798921 1.45451,2.13549 3.01067,3.88603 3.45813,3.89011 0.44745,0.004 0.81355,-5.60615 0.81355,-12.46716 l 0,-12.474578 4.33899,0 4.33898,0 0,23.322038 0,23.322032 -23.32203,0 -23.32204,0 0,-4.33898 z"
     id="path4529"
     inkscape:connector-curvature="0" />
  <path
     style="fill:#ffffff;fill-opacity:1;fill-rule:evenodd;stroke:#ffffff;stroke-width:5.93789816;stroke-miterlimit:4;stroke-opacity:1;stroke-dasharray:none"
     d="m 170.96532,196.11765 c -10.3819,-6.53199 -13.04407,-17.3253 -6.47083,-26.23482 l 2.58964,-3.51006 -2.68998,-4.06484 c -5.46849,-8.26345 -4.43723,-16.66576 2.85395,-23.25291 4.92597,-4.45032 8.02887,-5.45428 14.57639,-4.71628 13.28127,1.49699 20.31121,17.63783 12.2723,28.17738 l -2.73353,3.58385 2.73202,3.54267 c 5.78217,7.49787 3.73741,19.59649 -4.27637,25.3028 -4.82665,3.43688 -14.31636,4.0269 -18.85359,1.17221 l 0,0 z m 15.50386,-9.60099 c 4.39899,-4.80287 2.78356,-12.43959 -3.16006,-14.9387 -8.37268,-3.52044 -16.23461,4.19947 -12.7772,12.54639 2.64844,6.39391 11.10896,7.6639 15.93726,2.39231 z m -3.5779,-25.77398 c 4.10185,-1.71386 6.01858,-4.50677 6.01858,-8.7698 0,-9.73909 -13.50935,-13.36866 -17.93127,-4.81762 -0.87679,1.69552 -1.59416,3.81624 -1.59416,4.71271 0,3.28182 2.54194,7.06592 5.83913,8.69253 4.1215,2.03328 3.28499,2.0134 7.66772,0.18218 l 0,0 z"
     id="path4531"
     inkscape:connector-curvature="0" />
</svg>
