<?xml version="1.0" encoding="UTF-8" standalone="no"?>
<svg
   xmlns:dc="http://purl.org/dc/elements/1.1/"
   xmlns:cc="http://creativecommons.org/ns#"
   xmlns:rdf="http://www.w3.org/1999/02/22-rdf-syntax-ns#"
   xmlns:svg="http://www.w3.org/2000/svg"
   xmlns="http://www.w3.org/2000/svg"
   xmlns:sodipodi="http://sodipodi.sourceforge.net/DTD/sodipodi-0.dtd"
   xmlns:inkscape="http://www.inkscape.org/namespaces/inkscape"
   viewBox="0 0 256 256"
   id="svg2"
   version="1.1"
   inkscape:version="0.48.4 r9939"
   width="100%"
   height="100%"
   sodipodi:docname="lensdistortion.svg">
  <metadata
     id="metadata16">
    <rdf:RDF>
      <cc:Work
         rdf:about="">
        <dc:format>image/svg+xml</dc:format>
        <dc:type
           rdf:resource="http://purl.org/dc/dcmitype/StillImage" />
        <dc:title></dc:title>
      </cc:Work>
    </rdf:RDF>
  </metadata>
  <sodipodi:namedview
     pagecolor="#ffffff"
     bordercolor="#666666"
     borderopacity="1"
     objecttolerance="10"
     gridtolerance="10"
     guidetolerance="10"
     inkscape:pageopacity="0"
     inkscape:pageshadow="2"
     inkscape:window-width="698"
     inkscape:window-height="768"
     id="namedview14"
     showgrid="false"
     inkscape:zoom="0.921875"
     inkscape:cx="122.52342"
     inkscape:cy="128"
     inkscape:window-x="580"
     inkscape:window-y="25"
     inkscape:window-maximized="0"
     inkscape:current-layer="svg2" />
  <defs
     id="defs4">
    <clipPath
       id="clipPath6">
      <path
         d="M 0,64 H64 V128 H0 z"
         id="path8" />
    </clipPath>
    <style
       id="current-color-scheme"
       type="text/css">
      .ColorScheme-Text {
        color:#4d4d4d;
      }
      .ColorScheme-Background {
        color:#eff0f1;
      }
      .ColorScheme-Highlight {
        color:#3daee9;
      }
      .ColorScheme-ViewText {
        color:#31363b;
      }
      .ColorScheme-ViewBackground {
        color:#fcfcfc;
      }
      .ColorScheme-ViewHover {
        color:#93cee9;
      }
      .ColorScheme-ViewFocus{
        color:#3daee9;
      }
      .ColorScheme-ButtonText {
        color:#31363b;
      }
      .ColorScheme-ButtonBackground {
        color:#eff0f1;
      }
      .ColorScheme-ButtonHover {
        color:#93cee9;
      }
      .ColorScheme-ButtonFocus{
        color:#3daee9;
      }
      </style>
  </defs>
  <g
     style="color:#000"
     id="g10">
    <path
       d="m -1360.14 1641.33 c 46.11 -98.28 -119.59 -146.07 -181.85 -106.06 -62.25 40.01 -83.52 108.58 -13.01 143.08 70.51 34.501 148.75 61.26 194.86 -37.03 z"
       transform="matrix(1.03665 0 0 -1.35742 1657.71 2320.79)"
       style="fill:#9acd32"
       id="path12" />
  </g>
  <path
     style="fill:#ffffff;fill-opacity:1;fill-rule:evenodd;stroke:#ffffff;stroke-width:5.93789816;stroke-miterlimit:4;stroke-opacity:1;stroke-dasharray:none"
     d="M 112.44853,202.83213 C 89.044578,197.17437 68.964099,178.10016 61.141839,154.0965 c -2.293853,-7.039 -4.221888,-19.27049 -2.690577,-17.06908 0.664035,0.95462 4.525793,-1.24686 13.795455,-7.8644 7.0803,-5.05458 13.161587,-9.16804 13.51397,-9.14103 0.352381,0.027 8.684168,16.41505 18.515083,36.41785 12.97089,26.39167 18.08384,35.82634 18.6379,34.39157 0.41993,-1.08745 2.7811,-22.95809 5.24705,-48.60143 2.46594,-25.64334 4.62103,-46.761756 4.78908,-46.92981 0.16805,-0.168053 5.55753,13.97896 11.97662,31.43782 6.41908,17.45885 12.10944,32.20909 12.64523,32.7783 0.60569,0.64347 8.70803,-2.94669 21.42065,-9.49153 11.24557,-5.78955 20.76222,-10.52645 21.14812,-10.52645 1.27263,0 0.73285,4.77911 -1.3705,12.13412 -5.51028,19.26846 -19.94537,36.90957 -36.97871,45.19164 -5.07118,2.46575 -12.12967,5.22024 -15.68553,6.12108 -8.07314,2.04526 -24.96379,1.98853 -33.65715,-0.11302 z"
     id="path4431"
     inkscape:connector-curvature="0" />
  <path
     style="fill:#ffffff;fill-opacity:1;fill-rule:evenodd;stroke:#ffffff;stroke-width:5.93789816;stroke-miterlimit:4;stroke-opacity:1;stroke-dasharray:none"
     d="m 102.59981,127.06763 c -6.522694,-13.39959 -12.196138,-24.38264 -12.607652,-24.40678 -0.411513,-0.0241 -7.881921,5.10403 -16.600907,11.39594 l -15.852701,11.43983 0.689613,-4.1178 c 4.585126,-27.378635 22.499476,-49.325008 47.742177,-58.487614 7.65447,-2.778425 18.91367,-4.557869 18.98133,-2.999877 0.15183,3.495911 -9.3064,91.539181 -9.83378,91.539181 -0.36225,0 -5.99538,-10.9633 -12.51808,-24.36288 z"
     id="path4433"
     inkscape:connector-curvature="0" />
  <path
     style="fill:#ffffff;fill-opacity:1;fill-rule:evenodd;stroke:#ffffff;stroke-width:5.93789816;stroke-miterlimit:4;stroke-opacity:1;stroke-dasharray:none"
     d="M 149.31664,101.91277 C 140.9641,79.459718 133.97237,60.426039 133.77948,59.615706 c -0.48434,-2.034592 5.86686,-1.927219 14.29584,0.241686 23.90043,6.149944 43.2228,24.438367 50.90737,48.183288 2.70395,8.3551 4.86815,21.25656 3.12477,18.62777 -0.74301,-1.12037 -4.83939,0.50502 -18.45338,7.32203 -9.6241,4.81914 -17.87021,8.75846 -18.32468,8.75405 -0.45448,-0.004 -7.66022,-18.3787 -16.01276,-40.83176 z"
     id="path4435"
     inkscape:connector-curvature="0" />
</svg>
