<?xml version="1.0" encoding="UTF-8" standalone="no"?>
<svg
   xmlns:dc="http://purl.org/dc/elements/1.1/"
   xmlns:cc="http://creativecommons.org/ns#"
   xmlns:rdf="http://www.w3.org/1999/02/22-rdf-syntax-ns#"
   xmlns:svg="http://www.w3.org/2000/svg"
   xmlns="http://www.w3.org/2000/svg"
   xmlns:sodipodi="http://sodipodi.sourceforge.net/DTD/sodipodi-0.dtd"
   xmlns:inkscape="http://www.inkscape.org/namespaces/inkscape"
   viewBox="0 0 256 256"
   id="svg2"
   version="1.1"
   inkscape:version="0.48.4 r9939"
   width="100%"
   height="100%"
   sodipodi:docname="amarok_cart_add.svg">
  <metadata
     id="metadata10">
    <rdf:RDF>
      <cc:Work
         rdf:about="">
        <dc:format>image/svg+xml</dc:format>
        <dc:type
           rdf:resource="http://purl.org/dc/dcmitype/StillImage" />
        <dc:title></dc:title>
      </cc:Work>
    </rdf:RDF>
  </metadata>
  <defs
     id="defs8" />
  <sodipodi:namedview
     pagecolor="#ffffff"
     bordercolor="#666666"
     borderopacity="1"
     objecttolerance="10"
     gridtolerance="10"
     guidetolerance="10"
     inkscape:pageopacity="0"
     inkscape:pageshadow="2"
     inkscape:window-width="698"
     inkscape:window-height="501"
     id="namedview6"
     showgrid="false"
     inkscape:zoom="0.921875"
     inkscape:cx="134.01101"
     inkscape:cy="128"
     inkscape:window-x="580"
     inkscape:window-y="25"
     inkscape:window-maximized="0"
     inkscape:current-layer="svg2" />
  <path
     d="m 260.02 66.64 c -48.541 -88.14 -200.63 -53.931 -226.36 18.64 -30.66 86.45 49.14 250.63 184.3 154.45 45.527 -33.585 90.6 -84.949 42.05 -173.09 z"
     style="fill:#9acd32;color:#000"
     id="path4"
     transform="translate(-26.04 -13.02)" />
  <g
     style="enable-background:new"
     id="g3102"
     transform="matrix(9.5230025,0,0,9.1355932,49.646488,52.203391)">
    <g
       transform="translate(-565,39)"
       id="layer12">
      <path
         d="m 567,-38 c 0,0 -1,0.0186 -1,1 v 1 h 2 v -2 h -1 z m 3,0 v 2 h 2 v -2 h -2 z m 4,0 v 2 h 2 v -2 h -2 z m 4,0 v 2 h 2 v -1 c 0,-0.98141 -1,-1 -1,-1 h -1 z m -12,4 v 2 h 2 v -2 h -2 z m 12,0 v 2 h 2 v -2 h -2 z m -12,4 v 2 h 2 v -2 h -2 z m 12,0 v 2 h 2 v -2 h -2 z m -12,4 v 1 c 0,0.98141 1,1 1,1 h 1 v -2 h -2 z m 4,0 v 2 h 2 v -2 h -2 z m 4,0 v 2 h 2 v -2 h -2 z m 4,0 v 2 h 1 c 0,0 1,-0.0186 1,-1 v -1 h -2 z"
         id="rect10831"
         inkscape:connector-curvature="0"
         style="opacity:0.5" />
    </g>
  </g>
  <path
     style="fill:#ffffff;fill-opacity:1;fill-rule:evenodd;stroke:#ffffff;stroke-width:5.93789816;stroke-miterlimit:4;stroke-opacity:1;stroke-dasharray:none"
     d="m 136.39745,180.28475 0,-8.67797 8.67797,0 8.67796,0 0,8.67797 0,8.67796 -8.67796,0 -8.67797,0 0,-8.67796 z"
     id="path3106"
     inkscape:connector-curvature="0" />
  <path
     style="fill:#ffffff;fill-opacity:1;fill-rule:evenodd;stroke:#ffffff;stroke-width:5.93789816;stroke-miterlimit:4;stroke-opacity:1;stroke-dasharray:none"
     d="m 97.346605,180.28475 0,-8.67797 9.220335,0 9.22034,0 0,8.67797 0,8.67796 -9.22034,0 -9.220335,0 0,-8.67796 z"
     id="path3108"
     inkscape:connector-curvature="0" />
  <path
     style="fill:#ffffff;fill-opacity:1;fill-rule:evenodd;stroke:#ffffff;stroke-width:5.93789816;stroke-miterlimit:4;stroke-opacity:1;stroke-dasharray:none"
     d="m 64.82561,187.56941 c -3.547209,-1.7948 -5.409471,-5.68885 -5.429116,-11.35246 l -0.01599,-4.61017 9.220339,0 9.220339,0 0,8.67797 0,8.67796 -5.152542,-0.016 c -2.833899,-0.009 -6.363262,-0.62858 -7.843029,-1.37731 z"
     id="path3110"
     inkscape:connector-curvature="0" />
  <path
     style="fill:#ffffff;fill-opacity:1;fill-rule:evenodd;stroke:#ffffff;stroke-width:5.93789816;stroke-miterlimit:4;stroke-opacity:1;stroke-dasharray:none"
     d="m 59.380503,143.40339 0,-8.67797 9.220339,0 9.220339,0 0,8.67797 0,8.67797 -9.220339,0 -9.220339,0 0,-8.67797 z"
     id="path3112"
     inkscape:connector-curvature="0" />
  <path
     style="fill:#ffffff;fill-opacity:1;fill-rule:evenodd;stroke:#ffffff;stroke-width:5.93789816;stroke-miterlimit:4;stroke-opacity:1;stroke-dasharray:none"
     d="m 59.380503,107.06441 0,-8.135596 9.220339,0 9.220339,0 0,8.135596 0,8.13559 -9.220339,0 -9.220339,0 0,-8.13559 z"
     id="path3114"
     inkscape:connector-curvature="0" />
  <path
     style="fill:#ffffff;fill-opacity:1;fill-rule:evenodd;stroke:#ffffff;stroke-width:5.93789816;stroke-miterlimit:4;stroke-opacity:1;stroke-dasharray:none"
     d="m 59.380503,74.573074 c 0,-9.316917 3.347639,-12.525616 13.06799,-12.525616 l 5.372688,0 0,8.677966 0,8.677966 -9.220339,0 -9.220339,0 0,-4.830316 z"
     id="path3116"
     inkscape:connector-curvature="0" />
  <path
     style="fill:#ffffff;fill-opacity:1;fill-rule:evenodd;stroke:#ffffff;stroke-width:5.93789816;stroke-miterlimit:4;stroke-opacity:1;stroke-dasharray:none"
     d="m 97.346605,70.725424 0,-8.677966 9.220335,0 9.22034,0 0,8.677966 0,8.677966 -9.22034,0 -9.220335,0 0,-8.677966 z"
     id="path3118"
     inkscape:connector-curvature="0" />
  <path
     style="fill:#ffffff;fill-opacity:1;fill-rule:evenodd;stroke:#ffffff;stroke-width:5.93789816;stroke-miterlimit:4;stroke-opacity:1;stroke-dasharray:none"
     d="m 136.39745,70.725424 0,-8.677966 8.67797,0 8.67796,0 0,8.677966 0,8.677966 -8.67796,0 -8.67797,0 0,-8.677966 z"
     id="path3120"
     inkscape:connector-curvature="0" />
  <path
     style="fill:#ffffff;fill-opacity:1;fill-rule:evenodd;stroke:#ffffff;stroke-width:5.93789816;stroke-miterlimit:4;stroke-opacity:1;stroke-dasharray:none"
     d="m 174.36355,70.725424 0,-8.677966 5.81982,0 c 4.24523,0 6.5931,0.608269 8.67796,2.248222 2.51339,1.977027 2.85816,3.02382 2.85816,8.677966 l 0,6.429744 -8.67797,0 -8.67797,0 0,-8.677966 z"
     id="path3122"
     inkscape:connector-curvature="0" />
  <path
     style="fill:#ffffff;fill-opacity:1;fill-rule:evenodd;stroke:#ffffff;stroke-width:5.93789816;stroke-miterlimit:4;stroke-opacity:1;stroke-dasharray:none"
     d="m 174.36355,107.06441 0,-8.135596 8.67797,0 8.67797,0 0,8.135596 0,8.13559 -8.67797,0 -8.67797,0 0,-8.13559 z"
     id="path3124"
     inkscape:connector-curvature="0" />
  <path
     style="fill:#ffffff;fill-opacity:1;fill-rule:evenodd;stroke:#ffffff;stroke-width:5.93789816;stroke-miterlimit:4;stroke-opacity:1;stroke-dasharray:none"
     d="m 174.36355,143.40339 0,-8.67797 8.67797,0 8.67797,0 0,8.67797 0,8.67797 -8.67797,0 -8.67797,0 0,-8.67797 z"
     id="path3126"
     inkscape:connector-curvature="0" />
  <path
     style="fill:#ffffff;fill-opacity:1;fill-rule:evenodd;stroke:#ffffff;stroke-width:5.93789816;stroke-miterlimit:4;stroke-opacity:1;stroke-dasharray:none"
     d="m 174.36355,180.28475 0,-8.67797 8.67797,0 8.67797,0 0,5.33501 c 0,2.93426 -0.30323,6.12519 -0.67383,7.09097 -1.04398,2.72058 -6.30838,4.92995 -11.74688,4.92995 l -4.93523,0 0,-8.67796 z"
     id="path3128"
     inkscape:connector-curvature="0" />
</svg>
