<?xml version="1.0" encoding="UTF-8" standalone="no"?>
<svg
   xmlns:dc="http://purl.org/dc/elements/1.1/"
   xmlns:cc="http://creativecommons.org/ns#"
   xmlns:rdf="http://www.w3.org/1999/02/22-rdf-syntax-ns#"
   xmlns:svg="http://www.w3.org/2000/svg"
   xmlns="http://www.w3.org/2000/svg"
   xmlns:sodipodi="http://sodipodi.sourceforge.net/DTD/sodipodi-0.dtd"
   xmlns:inkscape="http://www.inkscape.org/namespaces/inkscape"
   viewBox="0 0 256 256"
   id="svg2"
   version="1.1"
   inkscape:version="0.48.4 r9939"
   width="100%"
   height="100%"
   sodipodi:docname="kstars_fitsviewer.svg">
  <metadata
     id="metadata10">
    <rdf:RDF>
      <cc:Work
         rdf:about="">
        <dc:format>image/svg+xml</dc:format>
        <dc:type
           rdf:resource="http://purl.org/dc/dcmitype/StillImage" />
        <dc:title></dc:title>
      </cc:Work>
    </rdf:RDF>
  </metadata>
  <defs
     id="defs8">
    <style
       type="text/css"
       id="current-color-scheme">.ColorScheme-Text {
        color:#4d4d4d;
      }
      .ColorScheme-Background {
        color:#eff0f1;
      }
      .ColorScheme-Highlight {
        color:#3daee9;
      }
      .ColorScheme-ViewText {
        color:#31363b;
      }
      .ColorScheme-ViewBackground {
        color:#fcfcfc;
      }
      .ColorScheme-ViewHover {
        color:#93cee9;
      }
      .ColorScheme-ViewFocus{
        color:#3daee9;
      }
      .ColorScheme-ButtonText {
        color:#31363b;
      }
      .ColorScheme-ButtonBackground {
        color:#eff0f1;
      }
      .ColorScheme-ButtonHover {
        color:#93cee9;
      }
      .ColorScheme-ButtonFocus{
        color:#3daee9;
      }</style>
  </defs>
  <sodipodi:namedview
     pagecolor="#ffffff"
     bordercolor="#666666"
     borderopacity="1"
     objecttolerance="10"
     gridtolerance="10"
     guidetolerance="10"
     inkscape:pageopacity="0"
     inkscape:pageshadow="2"
     inkscape:window-width="698"
     inkscape:window-height="774"
     id="namedview6"
     showgrid="false"
     inkscape:zoom="0.98901497"
     inkscape:cx="129.94642"
     inkscape:cy="127.17624"
     inkscape:window-x="580"
     inkscape:window-y="25"
     inkscape:window-maximized="0"
     inkscape:current-layer="svg2" />
  <path
     d="m 260.02 66.64 c -48.541 -88.14 -200.63 -53.931 -226.36 18.64 -30.66 86.45 49.14 250.63 184.3 154.45 45.527 -33.585 90.6 -84.949 42.05 -173.09 z"
     style="fill:#9acd32;color:#000"
     id="path4"
     transform="translate(-26.04 -13.02)" />
  <g
     transform="matrix(8.7279399,0,0,8.5112687,-3624.5985,-4467.759)"
     id="layer1">
    <g
       transform="matrix(0.75,0,0,0.75,421.46,-241.23)"
       id="layer1-0">
      <g
         transform="translate(6.2938e-7,-2.041e-4)"
         id="layer1-6">
        <text
           x="16.914654"
           y="1053.0374"
           font-size="12px"
           xml:space="preserve"
           line-height="125%"
           style="font-size:12px;line-height:125%;letter-spacing:0px;word-spacing:0px;fill:#000000;font-family:Sans"
           id="text3781"
           sodipodi:linespacing="125%"><tspan
             y="1053.0374"
             x="16.914654"
             id="tspan3783" /></text>
        <path
           transform="matrix(1.3333,0,0,1.3333,0.33333,1030.7)"
           d="M 1,1 V 15 H 15 V 1 H 1 z M 3,3 H 7 V 6.2773 C 6.6994,6.4521 6.4521,6.6994 6.2773,7 H 3 V 3 z m 6,0 h 4 V 7 H 9.7227 C 9.5479,6.6994 9.3006,6.4521 9,6.2773 V 3 z M 3,9 H 6.2773 C 6.4521,9.3006 6.6994,9.5479 7,9.7227 V 13 H 3 V 9 z M 9.7227,9 H 13 v 4 H 9 V 9.7227 C 9.3006,9.5479 9.5479,9.3006 9.7227,9 z"
           style="opacity:0.5;color:#000000;fill-rule:evenodd"
           id="rect4152-9"
           inkscape:connector-curvature="0" />
      </g>
    </g>
  </g>
  <path
     style="fill:#ffffff;fill-opacity:1;fill-rule:evenodd;stroke:#ffffff;stroke-width:5.53480005;stroke-miterlimit:4;stroke-opacity:1;stroke-dasharray:none"
     d="m 65.235572,126.90266 0,-59.149766 60.666418,0 60.66643,0 0,59.149766 0,59.14976 -60.66643,0 -60.666418,0 0,-59.14976 z m 52.577568,28.78284 0,-14.1892 -3.50517,-3.50517 -3.50517,-3.50517 -14.69476,0 -14.694755,0 0,17.69437 0,17.69437 18.199927,0 18.199928,0 0,-14.1892 z m 52.57756,-3.50517 0,-17.69437 -14.69475,0 -14.69476,0 -3.50517,3.50517 -3.50517,3.50517 0,14.1892 0,14.1892 18.19993,0 18.19992,0 0,-17.69437 z m -55.98197,-37.15818 3.38288,-3.2861 0.0108,-13.902722 0.0108,-13.902722 -18.199928,0 -18.199927,0 0,17.188824 0,17.18882 14.806286,0 14.806289,0 3.38287,-3.2861 z m 55.98197,-13.90272 0,-17.188824 -18.19992,0 -18.19993,0 0,13.854586 0,13.854588 3.23167,3.33423 3.23166,3.33424 14.96826,0 14.96826,0 0,-17.18882 z"
     id="path5734"
     inkscape:connector-curvature="0" />
</svg>
