<?xml version="1.0" encoding="UTF-8" standalone="no"?>
<svg
   xmlns:dc="http://purl.org/dc/elements/1.1/"
   xmlns:cc="http://creativecommons.org/ns#"
   xmlns:rdf="http://www.w3.org/1999/02/22-rdf-syntax-ns#"
   xmlns:svg="http://www.w3.org/2000/svg"
   xmlns="http://www.w3.org/2000/svg"
   xmlns:sodipodi="http://sodipodi.sourceforge.net/DTD/sodipodi-0.dtd"
   xmlns:inkscape="http://www.inkscape.org/namespaces/inkscape"
   viewBox="0 0 256 256"
   id="svg2"
   version="1.1"
   inkscape:version="0.48.4 r9939"
   width="100%"
   height="100%"
   sodipodi:docname="escape-direction-vertical.svg">
  <metadata
     id="metadata16">
    <rdf:RDF>
      <cc:Work
         rdf:about="">
        <dc:format>image/svg+xml</dc:format>
        <dc:type
           rdf:resource="http://purl.org/dc/dcmitype/StillImage" />
        <dc:title></dc:title>
      </cc:Work>
    </rdf:RDF>
  </metadata>
  <sodipodi:namedview
     pagecolor="#ffffff"
     bordercolor="#666666"
     borderopacity="1"
     objecttolerance="10"
     gridtolerance="10"
     guidetolerance="10"
     inkscape:pageopacity="0"
     inkscape:pageshadow="2"
     inkscape:window-width="698"
     inkscape:window-height="768"
     id="namedview14"
     showgrid="false"
     inkscape:zoom="0.921875"
     inkscape:cx="121.98899"
     inkscape:cy="128"
     inkscape:window-x="580"
     inkscape:window-y="25"
     inkscape:window-maximized="0"
     inkscape:current-layer="svg2" />
  <defs
     id="defs4">
    <clipPath
       id="clipPath6">
      <path
         d="M 0,64 H64 V128 H0 z"
         id="path8" />
    </clipPath>
    <style
       type="text/css"
       id="current-color-scheme">.ColorScheme-Text {
        color:#4d4d4d;
      }
      .ColorScheme-Background {
        color:#eff0f1;
      }
      .ColorScheme-Highlight {
        color:#3daee9;
      }
      .ColorScheme-ViewText {
        color:#31363b;
      }
      .ColorScheme-ViewBackground {
        color:#fcfcfc;
      }
      .ColorScheme-ViewHover {
        color:#93cee9;
      }
      .ColorScheme-ViewFocus{
        color:#3daee9;
      }
      .ColorScheme-ButtonText {
        color:#31363b;
      }
      .ColorScheme-ButtonBackground {
        color:#eff0f1;
      }
      .ColorScheme-ButtonHover {
        color:#93cee9;
      }
      .ColorScheme-ButtonFocus{
        color:#3daee9;
      }</style>
  </defs>
  <g
     style="color:#000000"
     id="g10"
     transform="matrix(0,1,-1,0,256.00351,-0.01112446)">
    <path
       d="m -1360.14,1641.33 c 46.11,-98.28 -119.59,-146.07 -181.85,-106.06 -62.25,40.01 -83.52,108.58 -13.01,143.08 70.51,34.501 148.75,61.26 194.86,-37.03 z"
       transform="matrix(1.03665,0,0,-1.35742,1657.71,2320.79)"
       style="fill:#9acd32"
       id="path12"
       inkscape:connector-curvature="0" />
  </g>
  <path
     style="fill:#ffffff;fill-opacity:1;fill-rule:evenodd;stroke:#ffffff;stroke-width:5.7979598;stroke-miterlimit:4;stroke-opacity:1;stroke-dasharray:none"
     d="m 126.54493,62.411376 62.98522,0 0,65.154724 0,65.15472 -62.98522,0 -62.985224,0 0,-65.15472 0,-65.154724 62.985224,0 z m -27.222434,112.444434 18.682064,0 0,-15.76324 c 0,-9.7419 -0.40523,-15.76323 -1.06085,-15.76323 -2.0513,0 -7.38267,-8.63011 -8.05408,-13.03747 -0.82143,-5.3922 1.38111,-11.24772 5.99684,-15.94274 l 3.17897,-3.2336 -0.29733,-15.156857 -0.29732,-15.156853 -18.415184,-0.287536 -18.41516,-0.287536 0,47.314542 0,47.31452 18.68205,0 z m 38.569254,-59.82077 c 7.63518,6.93116 7.37055,19.55986 -0.55776,26.61812 -2.09424,1.86442 -2.24869,3.07342 -2.24869,17.60229 l 0,15.60036 18.69305,0 18.69304,0 -0.27787,-47.02699 -0.27789,-47.027 -18.41516,-0.287536 -18.41517,-0.287536 0,16.13031 c 0,16.069892 0.0104,16.139862 2.80645,18.677982 l 0,0 z"
     id="path3350"
     inkscape:connector-curvature="0" />
</svg>
