<svg xmlns="http://www.w3.org/2000/svg" viewBox="0 0 256 256"><defs><clipPath><path d="m 27.707 56.824 h 82.29 v 139.69 h -82.29"/></clipPath><clipPath><path d="m 148 97 h 77.63 v 24 h -77.62"/></clipPath><clipPath><path d="m 74 56.824 h 129 v 139.69 h -129"/></clipPath><clipPath><path d="m 171 132 h 54.625 v 24 h -54.625"/></clipPath><clipPath><path d="m 74 56.824 h 129 v 139.69 h -129"/></clipPath><clipPath><path d="m 27.707 56.824 h 82.29 v 139.69 h -82.29"/></clipPath><clipPath><path d="m 148 97 h 77.63 v 24 h -77.62"/></clipPath><clipPath><path d="m 171 132 h 54.625 v 24 h -54.625"/></clipPath><clipPath><rect rx="6" height="80" width="84" y="6" x="6" style="fill:#fff"/></clipPath></defs><g transform="translate(0.828 -795.03)" style="color:#000"><path d="m 59.916 822.63 c 130.38 -91.66 262.49 77.62 156.25 185.6 -100.08 101.74 -255.59 7.417 -206.98 -119.18 10.142 -26.414 26.8 -49.591 50.733 -66.42 z" style="fill:#6b8e23"/><path d="m 127.91 869.37 c -5.511 -1.249 -12.11 2.592 -12.11 2.592 l -5.929 2.873 c 0 0 -6.425 5.439 -6.494 7.287 -3.616 6.208 -1.968 13.732 -2.335 20.523 0.352 5.831 -3.829 10.154 -1.731 16.07 -0.306 5.708 4.543 9.06 7.66 13.184 3.508 5.223 8.273 12.04 4.521 18.289 -6.936 9.752 -18.468 14.92 -28.996 20.233 -3.576 0.355 -2.23 3.686 -2.47 6.06 -0.006 1.888 -0.646 4.391 2.211 3.507 31.549 0 63.1 0 94.65 0 0 -3.267 0 -6.534 0 -9.801 -10.192 -5.01 -20.829 -10.37 -27.973 -19.273 -4.292 -5.963 0.012 -13.13 3.397 -18.43 2.637 -4.416 8.149 -7.238 8.228 -12.87 2.027 -5.713 -1.032 -10.443 -1.603 -15.892 -0.746 -7.224 1.274 -15.12 -2.283 -21.846 -4.823 -6.878 -13.656 -9.89 -21.672 -11.735 -2.325 -0.455 -4.691 -0.752 -7.07 -0.77 z" transform="translate(-3.248 -8.661)" style="fill:#fffafa;stroke:#fffafa;stroke-linecap:round;stroke-linejoin:round"/></g></svg>