<?xml version="1.0" encoding="UTF-8" standalone="no"?>
<svg
   xmlns:dc="http://purl.org/dc/elements/1.1/"
   xmlns:cc="http://creativecommons.org/ns#"
   xmlns:rdf="http://www.w3.org/1999/02/22-rdf-syntax-ns#"
   xmlns:svg="http://www.w3.org/2000/svg"
   xmlns="http://www.w3.org/2000/svg"
   xmlns:sodipodi="http://sodipodi.sourceforge.net/DTD/sodipodi-0.dtd"
   xmlns:inkscape="http://www.inkscape.org/namespaces/inkscape"
   viewBox="0 0 256 256"
   id="svg2"
   version="1.1"
   inkscape:version="0.48.4 r9939"
   width="100%"
   height="100%"
   sodipodi:docname="format-node-curve.svg">
  <metadata
     id="metadata16">
    <rdf:RDF>
      <cc:Work
         rdf:about="">
        <dc:format>image/svg+xml</dc:format>
        <dc:type
           rdf:resource="http://purl.org/dc/dcmitype/StillImage" />
        <dc:title></dc:title>
      </cc:Work>
    </rdf:RDF>
  </metadata>
  <sodipodi:namedview
     pagecolor="#ffffff"
     bordercolor="#666666"
     borderopacity="1"
     objecttolerance="10"
     gridtolerance="10"
     guidetolerance="10"
     inkscape:pageopacity="0"
     inkscape:pageshadow="2"
     inkscape:window-width="698"
     inkscape:window-height="768"
     id="namedview14"
     showgrid="false"
     inkscape:zoom="0.921875"
     inkscape:cx="122.52342"
     inkscape:cy="128"
     inkscape:window-x="580"
     inkscape:window-y="25"
     inkscape:window-maximized="0"
     inkscape:current-layer="svg2" />
  <defs
     id="defs4">
    <clipPath
       id="clipPath6">
      <path
         d="M 0,64 H64 V128 H0 z"
         id="path8" />
    </clipPath>
    <style
       type="text/css"
       id="current-color-scheme">.ColorScheme-Text {
        color:#4d4d4d;
      }
      .ColorScheme-Background {
        color:#eff0f1;
      }
      .ColorScheme-Highlight {
        color:#3daee9;
      }
      .ColorScheme-ViewText {
        color:#31363b;
      }
      .ColorScheme-ViewBackground {
        color:#fcfcfc;
      }
      .ColorScheme-ViewHover {
        color:#93cee9;
      }
      .ColorScheme-ViewFocus{
        color:#3daee9;
      }
      .ColorScheme-ButtonText {
        color:#31363b;
      }
      .ColorScheme-ButtonBackground {
        color:#eff0f1;
      }
      .ColorScheme-ButtonHover {
        color:#93cee9;
      }
      .ColorScheme-ButtonFocus{
        color:#3daee9;
      }</style>
  </defs>
  <g
     style="color:#000"
     id="g10">
    <path
       d="m -1360.14 1641.33 c 46.11 -98.28 -119.59 -146.07 -181.85 -106.06 -62.25 40.01 -83.52 108.58 -13.01 143.08 70.51 34.501 148.75 61.26 194.86 -37.03 z"
       transform="matrix(1.03665 0 0 -1.35742 1657.71 2320.79)"
       style="fill:#9acd32"
       id="path12" />
  </g>
  <g
     transform="matrix(10.094992,0,0,10.872049,-4203.1558,-5740.3789)"
     id="layer1">
    <path
       d="m 428.99,532.84 c -1.1178,0 -2.1531,0.29327 -2.9559,0.91678 -0.80478,0.62368 -1.2701,1.5767 -1.2701,2.5725 0,0.91979 0.42415,1.7854 1.026,2.6021 -0.24211,0.16584 -0.47782,0.34518 -0.70744,0.55917 -0.2794,0.26021 -0.52332,0.54444 -0.72191,0.85355 a 1.0233,0.97743 0 0 0 -0.002,0.006 c -0.20359,0.32163 -0.35657,0.67906 -0.47163,1.0669 a 1.0233,0.97743 0 0 0 -0.002,0.0101 c -0.11563,0.40727 -0.16961,0.83387 -0.16961,1.2744 0,0.5513 0.14738,1.0988 0.4199,1.5905 a 1.0233,0.97743 0 0 0 0.006,0.0101 c 0.27063,0.47508 0.63725,0.89508 1.0798,1.2428 0.45013,0.35367 0.97755,0.62579 1.5597,0.82392 a 1.0233,0.97743 0 0 0 0.0124,0.004 c 0.60056,0.19557 1.2318,0.29242 1.8762,0.29242 1.1651,0 2.2742,-0.39721 3.3241,-0.98791 l 0.74881,0.79429 a 1.0233,0.97743 0 0 0 1.4128,0.0987 l 0.97427,-0.77057 a 1.0233,0.97743 0 0 0 0.10136,-1.4147 l -0.77363,-0.80416 c 0.4006,-0.47929 0.81289,-0.93142 1.1687,-1.5234 a 1.0233,0.97743 0 0 0 -0.32682,-1.304 l -0.95773,-0.60064 a 1.0233,0.97743 0 0 0 -1.4542,0.33984 c -0.18994,0.32468 -0.41134,0.55057 -0.61641,0.82787 l -1.6445,-1.7071 c 0.21463,-0.12287 0.4048,-0.23709 0.57091,-0.36553 0.12924,-0.1 0.27663,-0.21723 0.44473,-0.35564 a 1.0233,0.97743 0 0 0 0.002,-0.002 c 0.21777,-0.1803 0.40802,-0.37123 0.56677,-0.59868 a 1.0233,0.97743 0 0 0 0.0106,-0.0139 c 0.10422,-0.1556 0.20522,-0.32342 0.30408,-0.49988 0.1449,-0.25233 0.24917,-0.52594 0.3082,-0.80811 0.0411,-0.19644 0.0509,-0.39911 0.06,-0.60263 a 1.0233,0.97743 0 0 0 0.0186,-0.18177 c 0,-0.97937 -0.40019,-1.9241 -1.1708,-2.5192 -0.74319,-0.57395 -1.7065,-0.82589 -2.7511,-0.82589 z m 1.9361,1.5965 0.006,0.008 c -10e-4,-10e-4 -0.003,-9.1e-4 -0.004,-0.002 -0.002,-10e-4 -4e-4,-0.004 -0.002,-0.006 z m -1.9196,1.312 c 0.37084,0 0.47733,0.0759 0.51093,0.10669 a 1.0233,0.97743 0 0 0 0.006,0.006 c 0.0372,0.0333 0.089,0.074 0.089,0.36356 0,0.11698 -0.0184,0.21286 -0.0599,0.31217 a 1.0233,0.97743 0 0 0 -0.006,0.0118 c -0.0506,0.12563 -0.10496,0.20835 -0.15515,0.26673 a 1.0233,0.97743 0 0 0 -0.0124,0.0178 c -0.0421,0.0513 -0.15124,0.1564 -0.3289,0.28057 -0.15196,0.10517 -0.27494,0.18068 -0.39922,0.25685 -0.29603,-0.41543 -0.604,-0.83917 -0.604,-1.1302 0,-0.17332 -0.0115,-0.15983 0.15721,-0.27661 0.20017,-0.13856 0.42757,-0.21536 0.80258,-0.21536 z m -1.1625,5.5343 1.8865,1.9995 c -0.33249,0.11227 -0.68899,0.36949 -1.0094,0.36949 -0.56149,0 -0.91933,-0.12733 -1.2308,-0.37146 -0.31584,-0.25253 -0.38474,-0.41044 -0.38474,-0.70734 0,-0.43064 0.0993,-0.69218 0.27718,-0.91481 a 1.0233,0.97743 0 0 0 0.004,-0.006 c 0.095,-0.12041 0.31545,-0.24561 0.45714,-0.36947 z"
       style="text-indent:0;text-transform:none;block-progression:tb;opacity:0.5;color:#4d4d4d"
       id="path4149"
       inkscape:connector-curvature="0" />
  </g>
  <path
     style="fill:#ffffff;fill-opacity:1;fill-rule:evenodd;stroke:#ffffff;stroke-width:5.93789816;stroke-miterlimit:4;stroke-opacity:1;stroke-dasharray:none"
     d="m 163.45548,197.62104 -5.46973,-5.87727 -8.49893,4.14554 c -15.20105,7.41466 -29.94885,8.29845 -44.85443,2.68801 -22.760533,-8.56704 -33.88169,-29.24775 -27.958022,-51.99024 2.390392,-9.17734 6.672094,-16.3722 13.212026,-22.20114 l 5.710673,-5.08984 -4.597843,-8.99927 c -4.467148,-8.74345 -4.597842,-9.29656 -4.597842,-19.458215 0,-8.903765 0.394788,-11.261227 2.655028,-15.854393 7.473833,-15.188014 24.96836,-23.297628 45.29997,-20.998865 8.58926,0.971132 15.18595,3.905295 21.15966,9.411662 7.10248,6.546843 9.8771,12.963208 10.39277,24.033489 0.60781,13.048322 -2.03245,19.732662 -11.60677,29.384812 -3.93519,3.96718 -8.09541,7.71063 -9.24493,8.31878 -1.90572,1.00821 -1.34017,1.92946 6.41327,10.44682 4.67682,5.13761 8.83111,9.34111 9.23176,9.34111 0.40066,0 2.56126,-2.66114 4.80135,-5.91365 5.60062,-8.13185 9.48508,-9.41781 16.60792,-5.49811 8.68646,4.78016 13.30692,9.71969 13.30692,14.22581 0,1.87251 -6.80639,13.17101 -12.45118,20.66876 -0.76484,1.01592 0.0326,2.55402 2.8548,5.50584 9.58764,10.02821 8.78687,15.41223 -3.72828,25.0676 -8.40825,6.48692 -11.55094,6.25807 -18.63819,-1.35724 z m -32.50883,-28.8649 5.1319,-2.1998 -2.12842,-2.41037 c -1.17063,-1.32571 -5.74528,-6.48135 -10.16589,-11.45699 l -8.03747,-9.04661 -3.55405,3.87814 c -7.02505,7.66565 -4.04492,19.46927 5.62554,22.28155 5.18355,1.50742 7.62554,1.31287 13.12839,-1.04592 l 0,0 z M 132.907,93.490896 c 1.6223,-3.252981 1.7907,-4.600027 0.83681,-6.693592 -1.02131,-2.241532 -1.94795,-2.621033 -6.39984,-2.621033 -10.28089,0 -12.26742,4.53895 -6.19593,14.156811 l 2.81343,4.456758 3.45724,-2.61319 c 1.90149,-1.437259 4.37121,-4.445847 5.48829,-6.685754 z"
     id="path4254"
     inkscape:connector-curvature="0" />
</svg>
