<svg xmlns="http://www.w3.org/2000/svg" viewBox="0 0 256 256"><defs><clipPath><path transform="matrix(15.33333 0 0 11.5 415 -125.5)" d="m -24 13 c 0 1.105 -0.672 2 -1.5 2 -0.828 0 -1.5 -0.895 -1.5 -2 0 -1.105 0.672 -2 1.5 -2 0.828 0 1.5 0.895 1.5 2 z"/></clipPath><clipPath><path d="m 148 97 h 77.63 v 24 h -77.62"/></clipPath><clipPath><rect rx="6" height="80" width="84" y="6" x="6" style="fill:#fff"/></clipPath><clipPath><path d="m 74 56.824 h 129 v 139.69 h -129"/></clipPath><clipPath><path d="m 27.707 56.824 h 82.29 v 139.69 h -82.29"/></clipPath><clipPath><path d="m 171 132 h 54.625 v 24 h -54.625"/></clipPath><clipPath><rect rx="6" height="80" width="84" y="6" x="6" style="fill:#fff"/></clipPath><clipPath><rect rx="6" height="80" width="84" y="6" x="6" style="fill:#fff"/></clipPath><clipPath><rect x="6" y="6" width="84" height="80" rx="6" style="fill:#fff"/></clipPath><clipPath><rect rx="6" height="80" width="84" y="6" x="6" style="fill:#fff"/></clipPath><clipPath><rect x="6" y="6" width="84" height="80" rx="6" style="fill:#fff"/></clipPath><clipPath><rect rx="6" height="80" width="84" y="6" x="6" style="fill:#fff"/></clipPath><clipPath><rect rx="6" height="80" width="84" y="6" x="6" style="fill:#fff"/></clipPath></defs><path d="m 46.627 219.57 c -200.11 -265.25 350.59 -302.94 173.86 -32.17 -40.29 61.728 -120.86 102.43 -173.86 32.17 z" style="fill:#9acd32;color:#000"/><g style="fill:#fff"><path d="m 1054.26 983.85 c 10.397 0 12.885 -20 6.421 -20 -6.547 0 -16.842 16 -6.384 16 10.326 0 0.09 -16 -6.432 -16 -6.522 0 -4.184 20 6.395 20 z" transform="matrix(9.29835281 0 0 8.86441928 -9675.177444 -8497.5803525)" style="fill:#fff;fill-rule:evenodd"/></g></svg>