<?xml version="1.0" encoding="UTF-8" standalone="no"?>
<svg
   xmlns:dc="http://purl.org/dc/elements/1.1/"
   xmlns:cc="http://creativecommons.org/ns#"
   xmlns:rdf="http://www.w3.org/1999/02/22-rdf-syntax-ns#"
   xmlns:svg="http://www.w3.org/2000/svg"
   xmlns="http://www.w3.org/2000/svg"
   xmlns:sodipodi="http://sodipodi.sourceforge.net/DTD/sodipodi-0.dtd"
   xmlns:inkscape="http://www.inkscape.org/namespaces/inkscape"
   sodipodi:docname="map-flat.svg"
   height="100%"
   width="100%"
   inkscape:version="0.48.4 r9939"
   version="1.1"
   id="svg2"
   viewBox="0 0 256 256">
  <metadata
     id="metadata10">
    <rdf:RDF>
      <cc:Work
         rdf:about="">
        <dc:format>image/svg+xml</dc:format>
        <dc:type
           rdf:resource="http://purl.org/dc/dcmitype/StillImage" />
        <dc:title></dc:title>
      </cc:Work>
    </rdf:RDF>
  </metadata>
  <defs
     id="defs8">
    <style
       type="text/css"
       id="current-color-scheme">.ColorScheme-Text {
        color:#4d4d4d;
      }
      .ColorScheme-Background {
        color:#eff0f1;
      }
      .ColorScheme-Highlight {
        color:#3daee9;
      }
      .ColorScheme-ViewText {
        color:#31363b;
      }
      .ColorScheme-ViewBackground {
        color:#fcfcfc;
      }
      .ColorScheme-ViewHover {
        color:#93cee9;
      }
      .ColorScheme-ViewFocus{
        color:#3daee9;
      }
      .ColorScheme-ButtonText {
        color:#31363b;
      }
      .ColorScheme-ButtonBackground {
        color:#eff0f1;
      }
      .ColorScheme-ButtonHover {
        color:#93cee9;
      }
      .ColorScheme-ButtonFocus{
        color:#3daee9;
      }</style>
  </defs>
  <sodipodi:namedview
     pagecolor="#ffffff"
     bordercolor="#666666"
     borderopacity="1"
     objecttolerance="10"
     gridtolerance="10"
     guidetolerance="10"
     inkscape:pageopacity="0"
     inkscape:pageshadow="2"
     inkscape:window-width="698"
     inkscape:window-height="774"
     id="namedview6"
     showgrid="false"
     inkscape:zoom="0.98901497"
     inkscape:cx="129.94642"
     inkscape:cy="127.17624"
     inkscape:window-x="580"
     inkscape:window-y="25"
     inkscape:window-maximized="0"
     inkscape:current-layer="svg2" />
  <path
     d="m 22.010839,203.4688 c 48.541,88.14 200.630001,53.931 226.360001,-18.64 30.66,-86.449996 -49.14,-250.629996 -184.300001,-154.449996 -45.527,33.585 -90.6,84.948996 -42.05,173.089996 z"
     style="color:#000000;fill:#9acd32"
     id="path4"
     inkscape:connector-curvature="0" />
  <g
     transform="matrix(8.8721905,0,0,8.5110809,-4773.5901,-6309.6474)"
     id="layer1">
    <path
       d="m 545.57,749.93 v 14 h 1 2 8 2 1 v -14 h -1 -2 -8 -2 -1 z m 3,1 h 8 v 5 h -8 v -5 z m -2,1 h 1 v 1 h -1 v -1 z m 11,0 h 1 v 1 h -1 v -1 z m -11,3 h 1 v 1 h -1 v -1 z m 11,0 h 1 v 1 h -1 v -1 z m -11,3 h 1 v 1 h -1 v -1 z m 2,0 h 8 v 5 h -8 v -5 z m 9,0 h 1 v 1 h -1 v -1 z m -11,3 h 1 v 1 h -1 v -1 z m 11,0 h 1 v 1 h -1 v -1 z"
       style="opacity:0.5;color:#4d4d4d"
       id="path4196"
       inkscape:connector-curvature="0" />
  </g>
  <path
     style="fill:#ffffff;fill-opacity:1;fill-rule:evenodd;stroke:#ffffff;stroke-width:5.53480005;stroke-miterlimit:4;stroke-opacity:1;stroke-dasharray:none"
     d="m 67.257786,132.9693 0,-59.149764 61.677534,0 61.67753,0 0,59.149764 0,59.14976 -61.67753,0 -61.677534,0 0,-59.14976 z m 98.077384,29.3221 0,-21.7388 -36.39985,0 -36.399858,0 0,21.7388 0,21.7388 36.399858,0 36.39985,0 0,-21.7388 z m -80.38301,8.59441 0,-4.54998 -4.802759,-0.30818 -4.802758,-0.30817 0,5.16633 0,5.16633 4.802758,-0.30817 4.802759,-0.30818 0,-4.54998 z m 97.57183,-0.0554 0,-5.11093 -4.80276,0.30817 -4.80276,0.30818 -0.30817,4.80276 -0.30818,4.80276 5.11094,0 5.11093,0 0,-5.11094 z m -97.066277,-25.72783 0,-4.54998 -5.055535,0 -5.055535,0 0,4.54998 0,4.54998 5.055535,0 5.055535,0 0,-4.54998 z m 97.066277,0 0,-4.54998 -5.05554,0 -5.05553,0 0,4.54998 0,4.54998 5.05553,0 5.05554,0 0,-4.54998 z m -97.066277,-25.27767 0,-4.54999 -5.055535,0 -5.055535,0 0,4.54999 0,4.54998 5.055535,0 5.055535,0 0,-4.54998 z m 79.877457,-17.18882 0,-21.738805 -36.39985,0 -36.399858,0 0,21.738805 0,21.7388 36.399858,0 36.39985,0 0,-21.7388 z m 17.18882,17.18882 0,-4.54999 -5.05554,0 -5.05553,0 0,4.54999 0,4.54998 5.05553,0 5.05554,0 0,-4.54998 z m -97.066277,-25.27768 0,-4.549981 -5.055535,0 -5.055535,0 0,4.549981 0,4.549982 5.055535,0 5.055535,0 0,-4.549982 z m 97.066277,0 0,-4.549981 -5.05554,0 -5.05553,0 0,4.549981 0,4.549982 5.05553,0 5.05554,0 0,-4.549982 z"
     id="path3917"
     inkscape:connector-curvature="0" />
</svg>
