<svg xmlns="http://www.w3.org/2000/svg" viewBox="0 0 256 256"><defs><clipPath><path d="m 171 132 h 54.625 v 24 h -54.625"/></clipPath><clipPath><path d="m 74 56.824 h 129 v 139.69 h -129"/></clipPath><clipPath><path d="m 148 97 h 77.63 v 24 h -77.62"/></clipPath><clipPath><path d="m 27.707 56.824 h 82.29 v 139.69 h -82.29"/></clipPath><clipPath><path d="m 171 132 h 54.625 v 24 h -54.625"/></clipPath><clipPath><path d="m 27.707 56.824 h 82.29 v 139.69 h -82.29"/></clipPath><clipPath><path d="m 148 97 h 77.63 v 24 h -77.62"/></clipPath><clipPath><path d="m 74 56.824 h 129 v 139.69 h -129"/></clipPath></defs><g transform="translate(0 -796.36)"><g transform="matrix(9.82876 0 0 9.69289 49.638 849.82)" style="fill:#fff;color:#bebebe"><path d="M 8,0 C 3.582,0 0,3.582 0,8 c 0,4.418 3.582,8 8,8 4.418,0 8,-3.582 8,-8 C 16,3.582 12.418,0 8,0 z m 0,2 c 3.314,0 6,2.686 6,6 0,3.314 -2.686,6 -6,6 C 4.686,14 2,11.314 2,8 2,4.686 4.686,2 8,2 z"/><path d="M 7,4 7,8 4,8 8,12 12,8 9,8 9,4 z"/></g><g transform="matrix(1 0 0 0.99576 1.083 4.451)" style="color:#000"><path d="m 59.915 822.74 c 130.38 -92.05 262.48 77.948 156.25 186.39 -100.08 102.17 -255.59 7.449 -206.98 -119.69 10.142 -26.526 26.8 -49.802 50.732 -66.7 z" style="fill:#9acd32"/><path d="m 134.91,862.87 c -0.546,0.063 -1.08,0.221 -1.588,0.495 l -42.885,23.288 h 33.619 l 6.883,-3.716 2.382,3.716 h 19.325 l -13.501,-21.801 c -0.88,-1.426 -2.597,-2.174 -4.236,-1.982 z m -58.768,31.463 -23.295,12.635 c -2.032,1.098 -2.762,3.549 -1.588,5.45 l 24.884,40.13 v -31.463 l -3.971,-6.441 3.971,-2.23 v -18.09 z m 12.707,0.247 c -2.346,0 -4.236,1.768 -4.236,3.964 v 87.21 c 0,2.196 1.889,3.964 4.236,3.964 h 93.18 c 2.346,0 4.236,-1.768 4.236,-3.964 v -87.21 c 0,-2.196 -1.889,-3.964 -4.236,-3.964 h -93.18 z m 12.707,15.855 h 67.768 v 55.49 h -67.768 v -55.49 z" style="fill:#fff"/></g></g></svg>