<svg xmlns="http://www.w3.org/2000/svg" viewBox="0 0 256 256"><defs><clipPath><path d="m 171 132 h 54.625 v 24 h -54.625"/></clipPath><clipPath><path d="m 148 97 h 77.63 v 24 h -77.62"/></clipPath><clipPath><path d="m 27.707 56.824 h 82.29 v 139.69 h -82.29"/></clipPath><clipPath><path d="m 74 56.824 h 129 v 139.69 h -129"/></clipPath></defs><g transform="translate(0 -796.36)"><g transform="matrix(9.82876 0 0 9.69289 49.638 849.82)" style="fill:#fff;color:#bebebe"><path d="M 8,0 C 3.582,0 0,3.582 0,8 c 0,4.418 3.582,8 8,8 4.418,0 8,-3.582 8,-8 C 16,3.582 12.418,0 8,0 z m 0,2 c 3.314,0 6,2.686 6,6 0,3.314 -2.686,6 -6,6 C 4.686,14 2,11.314 2,8 2,4.686 4.686,2 8,2 z"/><path d="M 7,4 7,8 4,8 8,12 12,8 9,8 9,4 z"/></g><g transform="translate(-0.002 1.076)"><path d="M 60.17,822.74 C 191.1,730.69 323.77,900.688 217.08,1009.13 116.57,1111.3 -39.6,1016.579 9.22,889.44 19.405,862.914 36.134,839.638 60.168,822.74 z" style="fill:#9acd32;color:#000"/><path d="m 128.82,866.53 c -15.698,10e-4 -31.3,6.631 -42.39,18.01 -6.779,6.956 -11.767,15.652 -14.661,25.03 h 13.08 c 7.566,-17.5 25.1,-30.74 43.972,-30.741 14.1,-10e-4 27.471,7.402 36.489,18.445 h -18.479 v 12.296 h 25.997 15.973 V 897.274 866.533 H 176.81 v 24.785 c -1.712,-2.383 -3.54,-4.676 -5.586,-6.773 -11.11,-11.382 -26.705,-18.01 -42.4,-18.01 z m -59.934,79.927 v 12.296 30.741 h 11.991 v -24.749 c 1.703,2.37 3.518,4.651 5.551,6.737 11.09,11.382 26.694,18.01 42.39,18.01 15.698,0.001 31.3,-6.631 42.4,-18.01 6.789,-6.958 11.784,-15.652 14.685,-25.03 h -13.08 c -7.577,17.505 -25.14,30.742 -44.01,30.741 -14.1,-10e-4 -27.446,-7.403 -36.454,-18.445 H 110.85 V 946.452 H 71.76 68.879 z" style="fill:#fff;fill-rule:evenodd"/></g></g></svg>