<svg xmlns="http://www.w3.org/2000/svg" xmlns:xlink="http://www.w3.org/1999/xlink" viewBox="0 0 256 256"><defs><path d="m 153.54 78.21 c 0 12.274 -9.95 22.22 -22.22 22.22 -12.274 0 -22.22 -9.95 -22.22 -22.22 0 -12.274 9.95 -22.22 22.22 -22.22 12.274 0 22.22 9.95 22.22 22.22 z" id="0" style="fill:#fff;color:#000"/><use xlink:href="#0" id="1"/></defs><g transform="matrix(-0.98729 0 0 0.99573 255.2 -1.729)" style="fill:#9acd32"><use height="1" width="1" transform="translate(15.781 13.13)" xlink:href="#1"/><use height="1" width="1" transform="translate(18.424 91.18)" xlink:href="#1"/><use height="1" width="1" transform="translate(-66.794 48.49)" xlink:href="#1"/><path d="m 20.935 850.74 c -127.95 190.94 280.09 308.54 226.07 61.711 -23.02 -102.01 -167.39 -163.91 -226.07 -61.711 z" transform="translate(4.323 -795.63)" style="color:#000"/></g><g transform="matrix(8.12509 0 0 9.11494 55.31 -227.69)" style="fill:#fff;stroke:#fff;stroke-linecap:round"><g transform="matrix(0.27932 0.27932 -0.27932 0.27932 -0.919 18.09)" style="stroke-linejoin:round"><rect transform="matrix(0.99999 -0.00409 -0.0027 1 0 0)" ry="3.659" rx="4.074" y="27.727" x="50.588" height="17.997" width="8.997"/><rect transform="matrix(0.99999 -0.00505 -0.0029 1 0 0)" ry="2.597" rx="3.08" y="28.816" x="51.574" height="15.96" width="7.02" style="opacity:0.5"/><path d="m 52.25 0.5 l 0.358 4.955 l 0.989 1.708 l -0.007 21.593 c 0.088 1.503 2.833 1.581 3.01 -0.01 l 0.025 -21.57 l 1.01 -1.298 l 0.331 -5.363 c 0 0 -5.713 -0.015 -5.713 -0.015 z"/></g><g transform="matrix(0.27932 -0.27932 0.27932 0.27932 -24.01 58.662)" style="stroke-dashoffset:0.7"><path d="m 91 1.148 c -2.643 1.16 -4.5 3.805 -4.5 6.875 0 2.871 1.629 5.365 4 6.625 v 28.766 c 0 1.939 1.561 3.5 3.5 3.5 1.939 0 3.5 -1.561 3.5 -3.5 v -28.766 c 2.371 -1.26 4 -3.754 4 -6.625 0 -3.07 -1.857 -5.715 -4.5 -6.875 v 5.938 l -1.719 2 h -2.563 l -1.719 -2 v -5.938 z" style="stroke-linejoin:round"/><path transform="translate(0 0.914)" d="m 95.5 42.5 c 0 0.828 -0.672 1.5 -1.5 1.5 -0.828 0 -1.5 -0.672 -1.5 -1.5 0 -0.828 0.672 -1.5 1.5 -1.5 0.828 0 1.5 0.672 1.5 1.5 z"/></g></g></svg>