<svg xmlns="http://www.w3.org/2000/svg" xmlns:xlink="http://www.w3.org/1999/xlink" viewBox="0 0 256 256"><defs><clipPath><path d="m 74 56.824 h 129 v 139.69 h -129"/></clipPath><clipPath><path d="m 171 132 h 54.625 v 24 h -54.625"/></clipPath><clipPath><path d="m 148 97 h 77.63 v 24 h -77.62"/></clipPath><clipPath><path d="m 27.707 56.824 h 82.29 v 139.69 h -82.29"/></clipPath><clipPath><path d="m 171 132 h 54.625 v 24 h -54.625"/></clipPath><clipPath><path d="m 27.707 56.824 h 82.29 v 139.69 h -82.29"/></clipPath><clipPath><path d="m 148 97 h 77.63 v 24 h -77.62"/></clipPath><clipPath><path d="m 74 56.824 h 129 v 139.69 h -129"/></clipPath></defs><g transform="translate(0 -796.36)"><g transform="matrix(9.82876 0 0 9.69289 49.638 849.82)" style="fill:#fff;color:#bebebe"><path d="M 8,0 C 3.582,0 0,3.582 0,8 c 0,4.418 3.582,8 8,8 4.418,0 8,-3.582 8,-8 C 16,3.582 12.418,0 8,0 z m 0,2 c 3.314,0 6,2.686 6,6 0,3.314 -2.686,6 -6,6 C 4.686,14 2,11.314 2,8 2,4.686 4.686,2 8,2 z"/><path d="M 7,4 7,8 4,8 8,12 12,8 9,8 9,4 z"/></g><g transform="matrix(1 0 0 0.99153 -0.002 8.91)"><path d="M 60.17,822.74 C 191.1,730.69 323.77,900.688 217.08,1009.13 116.57,1111.3 -39.6,1016.579 9.22,889.44 19.405,862.914 36.134,839.638 60.168,822.74 z" style="fill:#9acd32;color:#000"/><path id="0" d="m 80.66,864.9 v 8.307 c 0,0.935 -1.525,1.704 -3.381,1.704 h -9.721 c -1.856,0 -3.381,-0.769 -3.381,-1.704 v -6.923 c -2.086,0.965 -3.381,2.39 -3.381,3.941 v 128.44 c 0,1.55 1.295,2.976 3.381,3.941 v -6.923 c 0,-0.935 1.525,-1.704 3.381,-1.704 h 9.721 c 1.856,0 3.381,0.769 3.381,1.704 v 8.307 h 7.185 v -7.455 c 0,-2.784 5.158,-5.112 11.623,-5.112 h 57.27 c 6.465,0 11.834,2.328 11.834,5.112 v 7.455 h 6.551 v -8.307 c 0,-0.935 1.525,-1.704 3.381,-1.704 h 9.721 c 1.856,0 3.381,0.769 3.381,1.704 v 6.923 c 2.145,-0.967 3.593,-2.365 3.593,-3.941 v -128.44 c 0,-1.576 -1.447,-2.974 -3.593,-3.941 v 6.923 c 0,0.935 -1.525,1.704 -3.381,1.704 h -9.721 c -1.856,0 -3.381,-0.769 -3.381,-1.704 V 864.9 h -6.551 v 7.562 c 0,2.784 -5.369,5.01 -11.834,5.01 h -57.27 c -6.465,0 -11.623,-2.222 -11.623,-5.01 V 864.9 H 80.66 z m -13.1,12.04 h 9.721 c 1.856,0 3.381,0.769 3.381,1.704 v 11.289 c 0,0.935 -1.525,1.704 -3.381,1.704 H 67.56 c -1.856,0 -3.381,-0.769 -3.381,-1.704 v -11.289 c 0,-0.935 1.525,-1.704 3.381,-1.704 z m 110.95,0 h 9.721 c 1.856,0 3.381,0.769 3.381,1.704 v 11.289 c 0,0.935 -1.525,1.704 -3.381,1.704 h -9.721 c -1.856,0 -3.381,-0.769 -3.381,-1.704 v -11.289 c 0,-0.935 1.525,-1.704 3.381,-1.704 z M 67.56,893.661 h 9.721 c 1.856,0 3.381,0.769 3.381,1.704 v 11.289 c 0,0.935 -1.525,1.704 -3.381,1.704 H 67.56 c -1.856,0 -3.381,-0.769 -3.381,-1.704 v -11.289 c 0,-0.935 1.525,-1.704 3.381,-1.704 z m 31.91,0 h 57.27 c 6.465,0 11.834,2.222 11.834,5.01 v 22.685 c 0,2.784 -5.369,5.01 -11.834,5.01 H 99.47 c -6.465,0 -11.623,-2.222 -11.623,-5.01 v -22.685 c 0,-2.784 5.158,-5.01 11.623,-5.01 z m 79.04,0 h 9.721 c 1.856,0 3.381,0.769 3.381,1.704 v 11.289 c 0,0.935 -1.525,1.704 -3.381,1.704 h -9.721 c -1.856,0 -3.381,-0.769 -3.381,-1.704 v -11.289 c 0,-0.935 1.525,-1.704 3.381,-1.704 z M 67.56,910.382 h 9.721 c 1.856,0 3.381,0.769 3.381,1.704 v 11.289 c 0,0.935 -1.525,1.704 -3.381,1.704 H 67.56 c -1.856,0 -3.381,-0.769 -3.381,-1.704 v -11.289 c 0,-0.935 1.525,-1.704 3.381,-1.704 z m 110.95,0 h 9.721 c 1.856,0 3.381,0.769 3.381,1.704 v 11.289 c 0,0.935 -1.525,1.704 -3.381,1.704 h -9.721 c -1.856,0 -3.381,-0.769 -3.381,-1.704 v -11.289 c 0,-0.935 1.525,-1.704 3.381,-1.704 z M 67.56,927.103 h 9.721 c 1.856,0 3.381,0.769 3.381,1.704 v 11.289 c 0,0.935 -1.525,1.704 -3.381,1.704 H 67.56 c -1.856,0 -3.381,-0.769 -3.381,-1.704 v -11.289 c 0,-0.935 1.525,-1.704 3.381,-1.704 z m 110.95,0 h 9.721 c 1.856,0 3.381,0.769 3.381,1.704 v 11.289 c 0,0.935 -1.525,1.704 -3.381,1.704 h -9.721 c -1.856,0 -3.381,-0.769 -3.381,-1.704 v -11.289 c 0,-0.935 1.525,-1.704 3.381,-1.704 z m -79.04,15.55 h 57.27 c 6.465,0 11.834,2.222 11.834,5.01 v 22.579 c 0,2.784 -5.369,5.01 -11.834,5.01 H 99.47 c -6.465,0 -11.623,-2.222 -11.623,-5.01 v -22.579 c 0,-2.784 5.158,-5.01 11.623,-5.01 z m -31.91,1.172 h 9.721 c 1.856,0 3.381,0.769 3.381,1.704 v 11.289 c 0,0.936 -1.525,1.704 -3.381,1.704 H 67.56 c -1.856,0 -3.381,-0.769 -3.381,-1.704 v -11.289 c 0,-0.935 1.525,-1.704 3.381,-1.704 z m 110.95,0 h 9.721 c 1.856,0 3.381,0.769 3.381,1.704 v 11.289 c 0,0.936 -1.525,1.704 -3.381,1.704 h -9.721 c -1.856,0 -3.381,-0.769 -3.381,-1.704 v -11.289 c 0,-0.935 1.525,-1.704 3.381,-1.704 z M 67.56,960.546 h 9.721 c 1.856,0 3.381,0.769 3.381,1.704 v 11.289 c 0,0.935 -1.525,1.704 -3.381,1.704 H 67.56 c -1.856,0 -3.381,-0.769 -3.381,-1.704 V 962.25 c 0,-0.935 1.525,-1.704 3.381,-1.704 z m 110.95,0 h 9.721 c 1.856,0 3.381,0.769 3.381,1.704 v 11.289 c 0,0.935 -1.525,1.704 -3.381,1.704 h -9.721 c -1.856,0 -3.381,-0.769 -3.381,-1.704 V 962.25 c 0,-0.935 1.525,-1.704 3.381,-1.704 z M 67.56,977.267 h 9.721 c 1.856,0 3.381,0.769 3.381,1.704 v 11.289 c 0,0.936 -1.525,1.704 -3.381,1.704 H 67.56 c -1.856,0 -3.381,-0.769 -3.381,-1.704 v -11.289 c 0,-0.935 1.525,-1.704 3.381,-1.704 z m 110.95,0 h 9.721 c 1.856,0 3.381,0.769 3.381,1.704 v 11.289 c 0,0.936 -1.525,1.704 -3.381,1.704 h -9.721 c -1.856,0 -3.381,-0.769 -3.381,-1.704 v -11.289 c 0,-0.935 1.525,-1.704 3.381,-1.704 z" style="fill:#fff"/><use xlink:href="#0" width="1" height="1"/></g></g></svg>