<?xml version="1.0" encoding="UTF-8" standalone="no"?>
<svg
   xmlns:dc="http://purl.org/dc/elements/1.1/"
   xmlns:cc="http://creativecommons.org/ns#"
   xmlns:rdf="http://www.w3.org/1999/02/22-rdf-syntax-ns#"
   xmlns:svg="http://www.w3.org/2000/svg"
   xmlns="http://www.w3.org/2000/svg"
   xmlns:sodipodi="http://sodipodi.sourceforge.net/DTD/sodipodi-0.dtd"
   xmlns:inkscape="http://www.inkscape.org/namespaces/inkscape"
   viewBox="0 0 256 256"
   id="svg2"
   version="1.1"
   inkscape:version="0.48.4 r9939"
   width="100%"
   height="100%"
   sodipodi:docname="labplot-TeX-logo.svg">
  <metadata
     id="metadata16">
    <rdf:RDF>
      <cc:Work
         rdf:about="">
        <dc:format>image/svg+xml</dc:format>
        <dc:type
           rdf:resource="http://purl.org/dc/dcmitype/StillImage" />
        <dc:title></dc:title>
      </cc:Work>
    </rdf:RDF>
  </metadata>
  <sodipodi:namedview
     pagecolor="#ffffff"
     bordercolor="#666666"
     borderopacity="1"
     objecttolerance="10"
     gridtolerance="10"
     guidetolerance="10"
     inkscape:pageopacity="0"
     inkscape:pageshadow="2"
     inkscape:window-width="698"
     inkscape:window-height="768"
     id="namedview14"
     showgrid="false"
     inkscape:zoom="0.921875"
     inkscape:cx="122.52342"
     inkscape:cy="128"
     inkscape:window-x="580"
     inkscape:window-y="25"
     inkscape:window-maximized="0"
     inkscape:current-layer="svg2" />
  <defs
     id="defs4">
    <clipPath
       id="clipPath6">
      <path
         d="M 0,64 H64 V128 H0 z"
         id="path8" />
    </clipPath>
    <style
       id="current-color-scheme"
       type="text/css">
      .ColorScheme-Text {
        color:#4d4d4d;
      }
      .ColorScheme-Background {
        color:#eff0f1;
      }
      .ColorScheme-Highlight {
        color:#3daee9;
      }
      .ColorScheme-ViewText {
        color:#31363b;
      }
      .ColorScheme-ViewBackground {
        color:#fcfcfc;
      }
      .ColorScheme-ViewHover {
        color:#93cee9;
      }
      .ColorScheme-ViewFocus{
        color:#3daee9;
      }
      .ColorScheme-ButtonText {
        color:#31363b;
      }
      .ColorScheme-ButtonBackground {
        color:#eff0f1;
      }
      .ColorScheme-ButtonHover {
        color:#93cee9;
      }
      .ColorScheme-ButtonFocus{
        color:#3daee9;
      }
      </style>
  </defs>
  <g
     style="color:#000000"
     id="g10"
     transform="matrix(-1,0,0,-1,256.01463,255.99239)">
    <path
       d="m -1360.14,1641.33 c 46.11,-98.28 -119.59,-146.07 -181.85,-106.06 -62.25,40.01 -83.52,108.58 -13.01,143.08 70.51,34.501 148.75,61.26 194.86,-37.03 z"
       transform="matrix(1.03665,0,0,-1.35742,1657.71,2320.79)"
       style="fill:#9acd32"
       id="path12"
       inkscape:connector-curvature="0" />
  </g>
  <g
     transform="matrix(9.9104116,0,0,9.6004843,-4523.2654,-5052.6255)"
     id="layer1"
     inkscape:label="Capa 1">
    <path
       inkscape:connector-curvature="0"
       id="path4156"
       d="m 473.71429,532.79075 0,1 0,0.18164 a 12,12 0 0 0 -9.83008,9.81836 l -0.16992,0 -1,0 0,3 3,0 0,-3 -0.80859,0 a 11,11 0 0 1 8.80859,-8.81055 l 0,0.81055 3,0 0,-3 -3,0 z"
       style="opacity:0.5;fill:#000000;fill-opacity:1;stroke:none" />
    <g
       style="fill:#1d99f3;fill-opacity:1"
       id="g4191">
      <g
         style="fill:#1d99f3;fill-opacity:1"
         id="g4185">
        <g
           style="fill:#1d99f3;fill-opacity:1"
           id="g4180">
          <g
             style="fill:#1d99f3;fill-opacity:1"
             id="g4176">
            <g
               style="fill:#1d99f3;fill-opacity:1"
               id="g4173" />
          </g>
        </g>
      </g>
    </g>
  </g>
  <path
     style="fill:#ffffff;fill-opacity:1;fill-rule:evenodd;stroke:#ffffff;stroke-width:5.93789816;stroke-miterlimit:4;stroke-opacity:1;stroke-dasharray:none"
     d="m 63.079348,182.34576 0,-13.55932 5.694915,-0.006 5.694915,-0.006 1.995852,-8.40058 c 9.262749,-38.98713 45.93457,-74.457118 87.22449,-84.365943 l 7.8644,-1.887315 0,-5.819438 0,-5.819438 14.64407,0 14.64407,0 0,14.101695 0,14.101695 -14.64407,0 -14.64407,0 0,-3.882799 c 0,-3.801927 -0.0734,-3.868127 -3.52542,-3.178375 -11.6968,2.337166 -27.62619,9.259643 -38.88276,16.897378 -21.97325,14.90915 -39.810772,40.63646 -44.886254,64.74007 -0.728372,3.45905 -0.669253,3.52542 3.140453,3.52542 l 3.882799,0 0,13.55932 0,13.55932 -14.101695,0 -14.101695,0 0,-13.55932 z"
     id="path4348"
     inkscape:connector-curvature="0" />
</svg>
