<?xml version="1.0" encoding="UTF-8" standalone="no"?>
<svg
   xmlns:dc="http://purl.org/dc/elements/1.1/"
   xmlns:cc="http://creativecommons.org/ns#"
   xmlns:rdf="http://www.w3.org/1999/02/22-rdf-syntax-ns#"
   xmlns:svg="http://www.w3.org/2000/svg"
   xmlns="http://www.w3.org/2000/svg"
   xmlns:sodipodi="http://sodipodi.sourceforge.net/DTD/sodipodi-0.dtd"
   xmlns:inkscape="http://www.inkscape.org/namespaces/inkscape"
   viewBox="0 0 256 256"
   id="svg2"
   version="1.1"
   inkscape:version="0.48.4 r9939"
   width="100%"
   height="100%"
   sodipodi:docname="tool_color_eraser.svg">
  <metadata
     id="metadata16">
    <rdf:RDF>
      <cc:Work
         rdf:about="">
        <dc:format>image/svg+xml</dc:format>
        <dc:type
           rdf:resource="http://purl.org/dc/dcmitype/StillImage" />
        <dc:title></dc:title>
      </cc:Work>
    </rdf:RDF>
  </metadata>
  <sodipodi:namedview
     pagecolor="#ffffff"
     bordercolor="#666666"
     borderopacity="1"
     objecttolerance="10"
     gridtolerance="10"
     guidetolerance="10"
     inkscape:pageopacity="0"
     inkscape:pageshadow="2"
     inkscape:window-width="698"
     inkscape:window-height="768"
     id="namedview14"
     showgrid="false"
     inkscape:zoom="0.921875"
     inkscape:cx="121.98899"
     inkscape:cy="128"
     inkscape:window-x="580"
     inkscape:window-y="25"
     inkscape:window-maximized="0"
     inkscape:current-layer="svg2" />
  <defs
     id="defs4">
    <clipPath
       id="clipPath6">
      <path
         d="M 0,64 H64 V128 H0 z"
         id="path8" />
    </clipPath>
    <style
       type="text/css"
       id="current-color-scheme">.ColorScheme-Text {
        color:#4d4d4d;
      }
      .ColorScheme-Background {
        color:#eff0f1;
      }
      .ColorScheme-Highlight {
        color:#3daee9;
      }
      .ColorScheme-ViewText {
        color:#31363b;
      }
      .ColorScheme-ViewBackground {
        color:#fcfcfc;
      }
      .ColorScheme-ViewHover {
        color:#93cee9;
      }
      .ColorScheme-ViewFocus{
        color:#3daee9;
      }
      .ColorScheme-ButtonText {
        color:#31363b;
      }
      .ColorScheme-ButtonBackground {
        color:#eff0f1;
      }
      .ColorScheme-ButtonHover {
        color:#93cee9;
      }
      .ColorScheme-ButtonFocus{
        color:#3daee9;
      }</style>
  </defs>
  <g
     style="color:#000"
     id="g10">
    <path
       d="m -1360.14 1641.33 c 46.11 -98.28 -119.59 -146.07 -181.85 -106.06 -62.25 40.01 -83.52 108.58 -13.01 143.08 70.51 34.501 148.75 61.26 194.86 -37.03 z"
       transform="matrix(1.03665 0 0 -1.35742 1657.71 2320.79)"
       style="fill:#9acd32"
       id="path12" />
  </g>
  <g
     transform="matrix(10.68523,0,0,11.214689,-4471.6858,-5931.5433)"
     id="layer1">
    <rect
       x="418.20999"
       y="534.78998"
       width="0"
       height="11"
       id="rect4035"
       style="fill:#4d4d4d" />
    <rect
       x="412.07001"
       y="535.06"
       width="0"
       height="11"
       id="rect4035-2"
       style="fill:#4d4d4d" />
    <rect
       x="430.10999"
       y="533.01001"
       width="0"
       height="11"
       id="rect4035-5"
       style="fill:#4d4d4d" />
    <rect
       x="412.07001"
       y="535.06"
       width="0"
       height="11"
       id="rect4035-8"
       style="fill:#4d4d4d" />
    <rect
       x="412.07001"
       y="535.06"
       width="0"
       height="11"
       id="rect4035-59"
       style="fill:#4d4d4d" />
    <text
       line-height="125%"
       x="427.51004"
       y="547.81396"
       font-size="9px"
       xml:space="preserve"
       style="font-size:9px;line-height:125%;letter-spacing:0px;word-spacing:0px;fill:#4d4d4d;font-family:Sans"
       id="text3781"
       sodipodi:linespacing="125%"><tspan
         x="427.51004"
         y="547.81396"
         id="tspan3783" /></text>
    <text
       line-height="125%"
       x="428.24673"
       y="541.95062"
       font-size="9px"
       xml:space="preserve"
       style="font-size:9px;line-height:125%;letter-spacing:0px;word-spacing:0px;fill:#4d4d4d;font-family:Sans"
       id="text3781-8"
       sodipodi:linespacing="125%"><tspan
         x="428.24673"
         y="541.95062"
         id="tspan3783-1" /></text>
    <text
       line-height="125%"
       x="421.51004"
       y="548.81396"
       font-size="9px"
       xml:space="preserve"
       style="font-size:9px;line-height:125%;letter-spacing:0px;word-spacing:0px;fill:#4d4d4d;font-family:Sans"
       id="text3781-4"
       sodipodi:linespacing="125%"><tspan
         x="421.51004"
         y="548.81396"
         id="tspan3783-13" /></text>
    <rect
       x="412.07001"
       y="535.06"
       width="0"
       height="11"
       id="rect4035-9"
       style="fill:#4d4d4d" />
    <rect
       x="430.10999"
       y="533.01001"
       width="0"
       height="11"
       id="rect4035-5-7"
       style="fill:#4d4d4d" />
    <rect
       x="392.07001"
       y="535.06"
       width="0"
       height="11"
       id="rect4035-9-0"
       style="fill:#4d4d4d" />
    <rect
       x="410.10999"
       y="533.01001"
       width="0"
       height="11"
       id="rect4035-5-7-5"
       style="fill:#4d4d4d" />
    <rect
       x="410.20999"
       y="512.78998"
       width="0"
       height="11"
       id="rect4035-90"
       style="fill:#4d4d4d" />
    <path
       d="m 431.71,533.79 2.5,3 2.5,-3 h -5 z m -1,1 v 11 h 1 v -0.76953 a 3,3 0 0 0 2,0.76953 3,3 0 0 0 3,-3 3,3 0 0 0 -3,-3 3,3 0 0 0 -2,0.76758 v -5.7676 h -1 z m -5,5 a 3,3 0 0 0 -3,3 3,3 0 0 0 3,3 3,3 0 0 0 2,-0.76758 V 545.79 h 1 v -6 h -1 v 0.76953 a 3,3 0 0 0 -2,-0.76953 z m 0,1 a 2,2 0 0 1 2,2 2,2 0 0 1 -2,2 2,2 0 0 1 -2,-2 2,2 0 0 1 2,-2 z m 8,0 a 2,2 0 0 1 2,2 2,2 0 0 1 -2,2 2,2 0 0 1 -2,-2 2,2 0 0 1 2,-2 z"
       id="path5641"
       inkscape:connector-curvature="0"
       style="opacity:0.5" />
  </g>
  <path
     style="fill:#ffffff;fill-opacity:1;fill-rule:evenodd;stroke:#ffffff;stroke-width:5.93789816;stroke-miterlimit:4;stroke-opacity:1;stroke-dasharray:none"
     d="m 65.256785,185.75377 c -6.104435,-2.8553 -14.007051,-10.8388 -16.401394,-16.56927 -5.489219,-13.13755 -2.942771,-26.82579 6.803581,-36.57214 10.846697,-10.8467 25.13357,-12.7579 37.602093,-5.03014 2.873541,1.78096 5.436253,3.23812 5.694916,3.23812 0.258663,0 0.470296,-1.95254 0.470296,-4.33898 l 0,-4.33899 4.881353,0 4.88136,0 0,33.08475 0,33.08474 -4.88136,0 c -4.855526,0 -4.881353,-0.0201 -4.881353,-3.79661 0,-2.08813 -0.174679,-3.79661 -0.388175,-3.79661 -0.213496,0 -3.665914,1.70848 -7.672041,3.79661 -9.202488,4.79667 -17.645905,5.19719 -26.109276,1.23852 z m 22.727338,-10.5423 c 8.406094,-5.68845 12.327037,-15.55785 9.899227,-24.91732 -3.512812,-13.54224 -16.530381,-20.65958 -28.578805,-15.62543 -8.563188,3.57793 -13.606175,11.4417 -13.620658,21.23934 -0.01387,9.38403 5.659185,17.74684 14.611715,21.53953 4.311913,1.82672 13.378391,0.68057 17.688521,-2.23612 l 0,0 z"
     id="path3560"
     inkscape:connector-curvature="0" />
  <path
     style="fill:#ffffff;fill-opacity:1;fill-rule:evenodd;stroke:#ffffff;stroke-width:5.93789816;stroke-miterlimit:4;stroke-opacity:1;stroke-dasharray:none"
     d="m 130.8839,127.5661 0,-60.745761 4.88136,0 4.88136,0 0,32 c 0,17.633541 0.42736,32.000001 0.95192,32.000001 0.52356,0 1.5152,-0.6787 2.20365,-1.50823 0.68844,-0.82953 3.75895,-2.58682 6.82335,-3.90509 19.33364,-8.3171 41.37899,6.17019 42.90133,28.19298 0.92266,13.34747 -6.72294,26.28186 -18.95629,32.06915 -5.3841,2.54709 -7.10174,2.83938 -14.06116,2.39276 -6.47587,-0.4156 -8.93463,-1.13465 -13.42502,-3.92602 -3.02346,-1.87949 -5.70883,-3.41725 -5.96749,-3.41725 -0.25866,0 -0.47029,1.70848 -0.47029,3.79661 0,3.77652 -0.0258,3.79661 -4.88136,3.79661 l -4.88136,0 0,-60.74576 z m 39.90762,48.90802 c 9.38494,-4.83876 13.69168,-12.23392 13.04443,-22.39874 -1.29094,-20.27381 -24.77713,-28.36427 -37.50727,-12.92041 -3.43985,4.17314 -5.68857,10.23271 -5.67147,15.28275 0.0137,4.03135 4.38372,13.2936 7.718,16.35811 6.2288,5.72485 15.49721,7.2457 22.41631,3.67829 l 0,0 z"
     id="path3562"
     inkscape:connector-curvature="0" />
  <path
     style="fill:#ffffff;fill-opacity:1;fill-rule:evenodd;stroke:#ffffff;stroke-width:5.93789816;stroke-miterlimit:4;stroke-opacity:1;stroke-dasharray:none"
     d="m 155.21718,71.45084 -12.74384,-16.020332 13.25054,-0.305073 c 7.2878,-0.16779 18.73696,-0.16779 25.44258,0 L 193.35849,55.430508 180.65975,71.45084 167.96101,87.471171 155.21718,71.45084 z"
     id="path3564"
     inkscape:connector-curvature="0" />
</svg>
