<?xml version="1.0" encoding="UTF-8" standalone="no"?>
<svg
   xmlns:dc="http://purl.org/dc/elements/1.1/"
   xmlns:cc="http://creativecommons.org/ns#"
   xmlns:rdf="http://www.w3.org/1999/02/22-rdf-syntax-ns#"
   xmlns:svg="http://www.w3.org/2000/svg"
   xmlns="http://www.w3.org/2000/svg"
   xmlns:sodipodi="http://sodipodi.sourceforge.net/DTD/sodipodi-0.dtd"
   xmlns:inkscape="http://www.inkscape.org/namespaces/inkscape"
   viewBox="0 0 256 256"
   id="svg2"
   version="1.1"
   inkscape:version="0.48.4 r9939"
   width="100%"
   height="100%"
   sodipodi:docname="edit-select-original.svg">
  <metadata
     id="metadata10">
    <rdf:RDF>
      <cc:Work
         rdf:about="">
        <dc:format>image/svg+xml</dc:format>
        <dc:type
           rdf:resource="http://purl.org/dc/dcmitype/StillImage" />
        <dc:title></dc:title>
      </cc:Work>
    </rdf:RDF>
  </metadata>
  <defs
     id="defs8" />
  <sodipodi:namedview
     pagecolor="#ffffff"
     bordercolor="#666666"
     borderopacity="1"
     objecttolerance="10"
     gridtolerance="10"
     guidetolerance="10"
     inkscape:pageopacity="0"
     inkscape:pageshadow="2"
     inkscape:window-width="698"
     inkscape:window-height="774"
     id="namedview6"
     showgrid="false"
     inkscape:zoom="0.921875"
     inkscape:cx="134.01101"
     inkscape:cy="128"
     inkscape:window-x="580"
     inkscape:window-y="25"
     inkscape:window-maximized="0"
     inkscape:current-layer="svg2" />
  <path
     d="m 202.91982,22.559821 c 88.14,48.541 53.931,200.629999 -18.64,226.359999 -86.449998,30.66 -250.629998,-49.14 -154.449998,-184.299999 33.585,-45.527 84.948998,-90.6 173.089998,-42.05 z"
     style="color:#000000;fill:#9acd32"
     id="path4"
     inkscape:connector-curvature="0" />
  <g
     style="enable-background:new"
     id="g3158"
     transform="matrix(10.039548,0,0,9.1355932,50.937853,59.254235)">
    <g
       transform="translate(-345,100)"
       id="layer12">
      <path
         transform="translate(345,-100)"
         d="M 7.0176,0 6.9863,4.4688 3.3711,0.8125 2,2.2188 8.0156,8 14,2.2188 12.629,0.8125 8.9824,4.4688 9.0137,0 H 7.0176 z M 8.0156,8 2,13.781 3.3711,15.188 6.9863,11.531 7.0176,16 H 9.0137 L 8.9824,11.531 12.629,15.188 14,13.781 8.0156,8 z"
         id="path4140"
         inkscape:connector-curvature="0"
         style="opacity:0.5" />
    </g>
  </g>
  <path
     style="fill:#ffffff;fill-opacity:1;fill-rule:evenodd;stroke:#ffffff;stroke-width:5.93789816;stroke-miterlimit:4;stroke-opacity:1;stroke-dasharray:none"
     d="m 121.92518,190.96949 c -0.38795,-7.60678 -0.70735,-16.63729 -0.70977,-20.0678 -0.002,-3.4305 -0.26909,-6.23728 -0.5926,-6.23728 -0.32351,0 -8.46893,7.27624 -18.10094,16.16943 l -17.512738,16.16943 -6.333881,-5.50904 c -3.483634,-3.02997 -6.199227,-5.90362 -6.034653,-6.38589 0.164575,-0.48228 13.435326,-12.36206 29.490562,-26.39952 25.6932,-22.46417 29.39791,-25.34336 30.91525,-24.02644 0.94816,0.82292 14.24725,12.48175 29.55354,25.9085 l 27.82961,24.41228 -6.2742,6.20873 -6.27421,6.20874 -17.59271,-16.10693 c -9.67599,-8.85881 -18.03355,-16.26963 -18.57236,-16.4685 -0.56086,-0.20701 -0.97964,8.25579 -0.97964,19.79661 l 0,20.15819 -9.05294,0 -9.05294,0 -0.70538,-13.83051 z"
     id="path3162"
     inkscape:connector-curvature="0" />
  <path
     style="fill:#ffffff;fill-opacity:1;fill-rule:evenodd;stroke:#ffffff;stroke-width:5.93789816;stroke-miterlimit:4;stroke-opacity:1;stroke-dasharray:none"
     d="m 101.32906,105.33547 -29.102284,-25.58822 6.199193,-6.264561 6.199194,-6.264561 18.021737,16.657542 18.02174,16.65754 0.66648,-12.680164 c 0.36656,-6.974091 0.73266,-16.219148 0.81356,-20.544571 l 0.14708,-7.864407 9.19691,0 9.19692,0 0.29461,20.597505 0.29461,20.597507 17.87764,-16.258524 c 9.83271,-8.942187 18.13101,-16.257641 18.44068,-16.256564 0.30967,0.0011 3.39335,2.563789 6.85264,5.694915 l 6.28959,5.692957 -29.35241,25.762716 c -16.14383,14.16949 -29.71313,25.73715 -30.15401,25.7059 -0.44087,-0.0312 -13.89762,-11.5715 -29.90388,-25.64501 z"
     id="path3164"
     inkscape:connector-curvature="0" />
</svg>
