<?xml version="1.0" encoding="UTF-8" standalone="no"?>
<svg
   xmlns:dc="http://purl.org/dc/elements/1.1/"
   xmlns:cc="http://creativecommons.org/ns#"
   xmlns:rdf="http://www.w3.org/1999/02/22-rdf-syntax-ns#"
   xmlns:svg="http://www.w3.org/2000/svg"
   xmlns="http://www.w3.org/2000/svg"
   xmlns:sodipodi="http://sodipodi.sourceforge.net/DTD/sodipodi-0.dtd"
   xmlns:inkscape="http://www.inkscape.org/namespaces/inkscape"
   viewBox="0 0 256 256"
   id="svg2"
   version="1.1"
   inkscape:version="0.48.4 r9939"
   width="100%"
   height="100%"
   sodipodi:docname="view-readermode.svg">
  <metadata
     id="metadata16">
    <rdf:RDF>
      <cc:Work
         rdf:about="">
        <dc:format>image/svg+xml</dc:format>
        <dc:type
           rdf:resource="http://purl.org/dc/dcmitype/StillImage" />
        <dc:title></dc:title>
      </cc:Work>
    </rdf:RDF>
  </metadata>
  <sodipodi:namedview
     pagecolor="#ffffff"
     bordercolor="#666666"
     borderopacity="1"
     objecttolerance="10"
     gridtolerance="10"
     guidetolerance="10"
     inkscape:pageopacity="0"
     inkscape:pageshadow="2"
     inkscape:window-width="698"
     inkscape:window-height="768"
     id="namedview14"
     showgrid="false"
     inkscape:zoom="0.921875"
     inkscape:cx="121.98899"
     inkscape:cy="128"
     inkscape:window-x="580"
     inkscape:window-y="25"
     inkscape:window-maximized="0"
     inkscape:current-layer="svg2" />
  <defs
     id="defs4">
    <clipPath
       id="clipPath6">
      <path
         d="M 0,64 H64 V128 H0 z"
         id="path8" />
    </clipPath>
    <style
       type="text/css"
       id="current-color-scheme">.ColorScheme-Text {
        color:#4d4d4d;
      }
      .ColorScheme-Background {
        color:#eff0f1;
      }
      .ColorScheme-Highlight {
        color:#3daee9;
      }
      .ColorScheme-ViewText {
        color:#31363b;
      }
      .ColorScheme-ViewBackground {
        color:#fcfcfc;
      }
      .ColorScheme-ViewHover {
        color:#93cee9;
      }
      .ColorScheme-ViewFocus{
        color:#3daee9;
      }
      .ColorScheme-ButtonText {
        color:#31363b;
      }
      .ColorScheme-ButtonBackground {
        color:#eff0f1;
      }
      .ColorScheme-ButtonHover {
        color:#93cee9;
      }
      .ColorScheme-ButtonFocus{
        color:#3daee9;
      }</style>
  </defs>
  <g
     style="color:#000"
     id="g10">
    <path
       d="m -1360.14 1641.33 c 46.11 -98.28 -119.59 -146.07 -181.85 -106.06 -62.25 40.01 -83.52 108.58 -13.01 143.08 70.51 34.501 148.75 61.26 194.86 -37.03 z"
       transform="matrix(1.03665 0 0 -1.35742 1657.71 2320.79)"
       style="fill:#9acd32"
       id="path12" />
  </g>
  <g
     transform="matrix(9.7554479,0,0,9.7554479,-4061.3017,-5133.0118)"
     id="layer1">
    <path
       transform="translate(421.71,531.79)"
       d="M 4.5,1 C 2.5788,1 1,2.5789 1,4.5 1,6.4212 2.5788,8 4.5,8 5.3976,8 6.2022,7.6316 6.8242,7.0684 l -3.875,5.8146 a 1.0001,1.0001 0 0 0 0.2637,1.377 l 0.8125,0.562 A 1.0001,1.0001 0 0 0 5.4258,14.555 L 8.2383,10.336 C 8.1053,10.704 8,11.088 8,11.5 8,13.421 9.5788,15 11.5,15 13.421,15 15,13.421 15,11.5 15,9.5788 13.421,8 11.5,8 10.602,8 9.7978,8.3684 9.1758,8.9316 L 13.051,3.1172 A 1.0001,1.0001 0 0 0 12.787,1.7402 L 11.975,1.1777 A 1.0001,1.0001 0 0 0 10.574,1.4453 L 7.7617,5.6641 C 7.8947,5.2958 8,4.9119 8,4.5 8,2.5789 6.4212,1 4.5,1 z m 0,2 C 5.364,3 6,3.636 6,4.5 6,5.364 5.364,6 4.5,6 3.636,6 3,5.364 3,4.5 3,3.636 3.636,3 4.5,3 z m 7,7 C 12.364,10 13,10.636 13,11.5 13,12.364 12.364,13 11.5,13 10.636,13 10,12.364 10,11.5 10,10.636 10.636,10 11.5,10 z"
       style="text-indent:0;text-transform:none;block-progression:tb;opacity:0.5;color:#000000"
       id="path4158"
       inkscape:connector-curvature="0" />
  </g>
  <path
     style="fill:#ffffff;fill-opacity:1;fill-rule:evenodd;stroke:#ffffff;stroke-width:5.93789816;stroke-miterlimit:4;stroke-opacity:1;stroke-dasharray:none"
     d="m 88.871083,196.44259 c -11.819088,-7.95944 -11.714393,-8.35042 11.603427,-43.33183 10.71807,-16.07926 19.25818,-29.46423 18.97802,-29.74439 -0.28016,-0.28017 -1.65954,0.57112 -3.06528,1.89175 -4.00376,3.76134 -12.90397,6.64707 -20.498033,6.64611 -5.223894,-6.6e-4 -8.252939,-0.71303 -13.2765,-3.12237 -21.994269,-10.54863 -26.09206,-38.560264 -8.018133,-54.810277 15.927433,-14.320132 40.981256,-9.845001 51.329726,9.168554 3.49008,6.412434 4.80502,16.48162 3.00386,23.002233 -0.61799,2.23729 -0.79687,4.05652 -0.39751,4.04273 0.39937,-0.0138 7.04504,-9.5662 14.76816,-21.227585 7.72312,-11.661383 14.89103,-21.656881 15.92869,-22.212218 3.43098,-1.836203 7.73711,-1.053557 13.08509,2.378238 6.24986,4.010522 8.46961,6.870419 8.46961,10.912131 0,2.040239 -6.13262,12.18646 -19.59147,32.413424 -10.77531,16.19394 -19.19565,29.27091 -18.71187,29.05993 0.48379,-0.21098 4.16235,-2.03105 8.17459,-4.04461 6.01586,-3.01909 8.51457,-3.66102 14.2504,-3.66102 17.61849,0 31.88366,13.46011 32.97453,31.11358 1.21806,19.71194 -13.67068,35.32878 -33.67925,35.32624 -19.69456,-0.002 -35.75394,-19.19489 -32.14519,-38.41637 0.55063,-2.93286 0.83272,-5.50091 0.62685,-5.70678 -0.20586,-0.20586 -6.41046,8.70677 -13.788,19.80584 -7.37754,11.09908 -14.59735,21.1112 -16.04403,22.24916 -3.839993,3.02054 -7.614579,2.5527 -13.977687,-1.73247 l 0,0 z m 83.200597,-16.02693 c 1.47363,-0.74566 3.83575,-3.0571 5.24917,-5.13655 3.71836,-5.47049 2.98008,-13.98308 -1.61089,-18.57404 -8.29612,-8.29612 -22.12493,-4.88483 -25.18939,6.21371 -2.73451,9.90358 3.92278,18.9013 13.96063,18.86862 2.70115,-0.009 6.11686,-0.62608 7.59048,-1.37174 z M 107.22117,109.4244 c 6.39141,-6.39141 5.0777,-19.048303 -2.4379,-23.48788 -4.07747,-2.408623 -11.617916,-2.50492 -16.065152,-0.205164 -9.12764,4.720086 -9.29263,20.173584 -0.277274,25.970414 2.067938,1.32967 4.575444,1.72843 9.139255,1.45336 5.315701,-0.32039 6.808311,-0.89797 9.641071,-3.73073 l 0,0 z"
     id="path3113"
     inkscape:connector-curvature="0" />
</svg>
