<?xml version="1.0" encoding="UTF-8" standalone="no"?>
<svg
   xmlns:dc="http://purl.org/dc/elements/1.1/"
   xmlns:cc="http://creativecommons.org/ns#"
   xmlns:rdf="http://www.w3.org/1999/02/22-rdf-syntax-ns#"
   xmlns:svg="http://www.w3.org/2000/svg"
   xmlns="http://www.w3.org/2000/svg"
   xmlns:sodipodi="http://sodipodi.sourceforge.net/DTD/sodipodi-0.dtd"
   xmlns:inkscape="http://www.inkscape.org/namespaces/inkscape"
   sodipodi:docname="dialog-tile-clones.svg"
   height="100%"
   width="100%"
   inkscape:version="0.48.4 r9939"
   version="1.1"
   id="svg2"
   viewBox="0 0 256 256">
  <metadata
     id="metadata10">
    <rdf:RDF>
      <cc:Work
         rdf:about="">
        <dc:format>image/svg+xml</dc:format>
        <dc:type
           rdf:resource="http://purl.org/dc/dcmitype/StillImage" />
        <dc:title></dc:title>
      </cc:Work>
    </rdf:RDF>
  </metadata>
  <defs
     id="defs8">
    <style
       type="text/css"
       id="current-color-scheme">.ColorScheme-Text {
        color:#4d4d4d;
      }
      .ColorScheme-Background {
        color:#eff0f1;
      }
      .ColorScheme-Highlight {
        color:#3daee9;
      }
      .ColorScheme-ViewText {
        color:#31363b;
      }
      .ColorScheme-ViewBackground {
        color:#fcfcfc;
      }
      .ColorScheme-ViewHover {
        color:#93cee9;
      }
      .ColorScheme-ViewFocus{
        color:#3daee9;
      }
      .ColorScheme-ButtonText {
        color:#31363b;
      }
      .ColorScheme-ButtonBackground {
        color:#eff0f1;
      }
      .ColorScheme-ButtonHover {
        color:#93cee9;
      }
      .ColorScheme-ButtonFocus{
        color:#3daee9;
      }</style>
  </defs>
  <sodipodi:namedview
     pagecolor="#ffffff"
     bordercolor="#666666"
     borderopacity="1"
     objecttolerance="10"
     gridtolerance="10"
     guidetolerance="10"
     inkscape:pageopacity="0"
     inkscape:pageshadow="2"
     inkscape:window-width="698"
     inkscape:window-height="774"
     id="namedview6"
     showgrid="false"
     inkscape:zoom="0.98901497"
     inkscape:cx="129.94642"
     inkscape:cy="127.17624"
     inkscape:window-x="580"
     inkscape:window-y="25"
     inkscape:window-maximized="0"
     inkscape:current-layer="svg2" />
  <path
     d="m 260.02 66.64 c -48.541 -88.14 -200.63 -53.931 -226.36 18.64 -30.66 86.45 49.14 250.63 184.3 154.45 45.527 -33.585 90.6 -84.949 42.05 -173.09 z"
     style="fill:#9acd32;color:#000"
     id="path4"
     transform="translate(-26.04 -13.02)" />
  <g
     transform="matrix(9.1610724,0,0,9.5221819,-4164.0202,-5003.2891)"
     id="layer1">
    <path
       d="m 464.21,532.79 c -0.82843,0 -1.5,0.67157 -1.5,1.5 8.9e-4,0.6349 0.40141,1.2005 1,1.4121 v 8.0879 h -1 v 3 h 3 v -3 h -1 v -8.0879 c 0.42591,-0.15111 0.761,-0.4862 0.91211,-0.91211 h 8.0879 v 1 h 3 v -3 h -3 v 1 h -8.0879 c -0.21163,-0.59859 -0.77721,-0.99911 -1.4121,-1 z"
       style="opacity:0.5;color:#4d4d4d"
       id="path4152"
       inkscape:connector-curvature="0" />
  </g>
  <path
     style="fill:#ffffff;fill-opacity:1;fill-rule:evenodd;stroke:#ffffff;stroke-width:5.53480005;stroke-miterlimit:4;stroke-opacity:1;stroke-dasharray:none"
     d="m 75.346643,189.08574 0,-14.1555 4.549981,0 4.549982,0 0,-38.73747 0,-38.737478 -3.126277,-2.311357 c -3.245473,-2.399481 -5.973686,-7.551491 -5.973686,-11.280822 0,-3.640106 3.214895,-9.172346 6.491271,-11.170276 5.984079,-3.649084 15.269457,-1.237928 17.958214,4.663251 l 1.152782,2.53009 37.75422,0 37.75422,0 0,-4.549981 0,-4.549982 13.14439,0 13.14439,0 0,13.649945 0,13.649945 -13.14439,0 -13.14439,0 0,-4.549982 0,-4.549981 -37.66374,0.0064 -37.66374,0.0064 -1.722603,3.027266 c -0.947432,1.664997 -2.881174,3.555148 -4.297205,4.200334 l -2.5746,1.173112 0,38.765326 0,38.76532 4.549982,0 4.549986,0 0,14.1555 0,14.1555 -13.144396,0 -13.144391,0 0,-14.1555 z"
     id="path3987"
     inkscape:connector-curvature="0" />
</svg>
