<?xml version="1.0" encoding="UTF-8" standalone="no"?>
<svg
   xmlns:dc="http://purl.org/dc/elements/1.1/"
   xmlns:cc="http://creativecommons.org/ns#"
   xmlns:rdf="http://www.w3.org/1999/02/22-rdf-syntax-ns#"
   xmlns:svg="http://www.w3.org/2000/svg"
   xmlns="http://www.w3.org/2000/svg"
   xmlns:sodipodi="http://sodipodi.sourceforge.net/DTD/sodipodi-0.dtd"
   xmlns:inkscape="http://www.inkscape.org/namespaces/inkscape"
   viewBox="0 0 256 256"
   id="svg2"
   version="1.1"
   inkscape:version="0.48.4 r9939"
   width="100%"
   height="100%"
   sodipodi:docname="restoration.svg">
  <metadata
     id="metadata16">
    <rdf:RDF>
      <cc:Work
         rdf:about="">
        <dc:format>image/svg+xml</dc:format>
        <dc:type
           rdf:resource="http://purl.org/dc/dcmitype/StillImage" />
        <dc:title></dc:title>
      </cc:Work>
    </rdf:RDF>
  </metadata>
  <sodipodi:namedview
     pagecolor="#ffffff"
     bordercolor="#666666"
     borderopacity="1"
     objecttolerance="10"
     gridtolerance="10"
     guidetolerance="10"
     inkscape:pageopacity="0"
     inkscape:pageshadow="2"
     inkscape:window-width="698"
     inkscape:window-height="768"
     id="namedview14"
     showgrid="false"
     inkscape:zoom="0.921875"
     inkscape:cx="121.98899"
     inkscape:cy="128"
     inkscape:window-x="580"
     inkscape:window-y="25"
     inkscape:window-maximized="0"
     inkscape:current-layer="svg2" />
  <defs
     id="defs4">
    <clipPath
       id="clipPath6">
      <path
         d="M 0,64 H64 V128 H0 z"
         id="path8" />
    </clipPath>
    <style
       type="text/css"
       id="current-color-scheme-7">.ColorScheme-Text {
        color:#4d4d4d;
      }
      .ColorScheme-Background {
        color:#eff0f1;
      }
      .ColorScheme-Highlight {
        color:#3daee9;
      }
      .ColorScheme-ViewText {
        color:#31363b;
      }
      .ColorScheme-ViewBackground {
        color:#fcfcfc;
      }
      .ColorScheme-ViewHover {
        color:#93cee9;
      }
      .ColorScheme-ViewFocus{
        color:#3daee9;
      }
      .ColorScheme-ButtonText {
        color:#31363b;
      }
      .ColorScheme-ButtonBackground {
        color:#eff0f1;
      }
      .ColorScheme-ButtonHover {
        color:#93cee9;
      }
      .ColorScheme-ButtonFocus{
        color:#3daee9;
      }</style>
    <style
       type="text/css"
       id="current-color-scheme">.ColorScheme-Text {
        color:#4d4d4d;
      }
      .ColorScheme-Background {
        color:#eff0f1;
      }
      .ColorScheme-Highlight {
        color:#3daee9;
      }
      .ColorScheme-ViewText {
        color:#31363b;
      }
      .ColorScheme-ViewBackground {
        color:#fcfcfc;
      }
      .ColorScheme-ViewHover {
        color:#93cee9;
      }
      .ColorScheme-ViewFocus{
        color:#3daee9;
      }
      .ColorScheme-ButtonText {
        color:#31363b;
      }
      .ColorScheme-ButtonBackground {
        color:#eff0f1;
      }
      .ColorScheme-ButtonHover {
        color:#93cee9;
      }
      .ColorScheme-ButtonFocus{
        color:#3daee9;
      }</style>
  </defs>
  <g
     style="color:#000000"
     id="g10"
     transform="matrix(0,1,-1,0,256.00351,-0.01112179)">
    <path
       d="m -1360.14,1641.33 c 46.11,-98.28 -119.59,-146.07 -181.85,-106.06 -62.25,40.01 -83.52,108.58 -13.01,143.08 70.51,34.501 148.75,61.26 194.86,-37.03 z"
       transform="matrix(1.03665,0,0,-1.35742,1657.71,2320.79)"
       style="fill:#9acd32"
       id="path12"
       inkscape:connector-curvature="0" />
  </g>
  <g
     transform="matrix(9.0865806,0,0,8.9317176,-3775.3037,-4694.1504)"
     id="layer1">
    <g
       transform="translate(417.71,-501.57)"
       id="layer1-5"
       style="opacity:0.5">
      <path
         transform="translate(1,1030.4)"
         d="M 9,3 V 4.1309 C 8.0228,4.2727 7.1907,4.5299 6.5371,4.9316 5.5266,5.5465 5.0215,6.4897 5.0215,7.7617 5.0169,9.957 6.579,10.68 9,11.346 v 4.9902 C 7.8273,16.2372 6.7551,16.0172 5.623,15.5332 L 5,16.8892 c 0.56451,0.3013 1.3273,0.56216 2.2891,0.78516 0.5442,0.122 1.1112,0.2 1.7109,0.254 v 1.072 h 1 v -1.0234 c 0.17,0.004 0.314,0.023 0.494,0.023 0.164,-0.001 0.336,-0.015 0.506,-0.023 v 1.023 h 1 v -1.1191 c 1.9967,-0.28485 3.98,-1.2023 3.959,-3.6875 -0.07,-1.83 -1.203,-2.508 -3.959,-3.477 v -4.9531 c 0.90326,0.12074 2.0021,0.37228 3.2246,0.98242 l 0.775,-1.5432 c -0.551,-0.2955 -1.831,-0.7664 -2.646,-0.9414 -0.434,-0.0926 -0.887,-0.1556 -1.354,-0.1992 v -1.0625 h -1 v 1.0137 c -0.092,-0.0018 -0.178,-0.0137 -0.271,-0.0137 -0.257,0 -0.488,0.0203 -0.729,0.0332 v -1.0332 h -1 z m 1.4375,2.6484 C 10.58852,5.6492281 10.79984,5.65785 11,5.665978 v 4.7012 c -0.157,-0.053 -0.255,-0.093 -0.422,-0.148 -0.179,-0.044 -0.385,-0.108 -0.578,-0.16 v -4.3965 c 0.14588,-0.00637 0.29158,-0.013656 0.4375,-0.013672 z M 8.9995,5.7598 V 9.7559 C 7.7725,9.3215 6.6425,8.6647 6.6753,7.5664 6.6157,6.5251 7.6797,5.9756 8.9995,5.7598 z m 1,5.8535 c 0.18387,0.04679 0.32982,0.09211 0.52148,0.14062 0.16101,0.04582 0.3174,0.09735 0.47852,0.14453 v 4.4922 c -0.14946,0.0031 -0.31139,0.01879 -0.45117,0.01758 -0.19148,-0.0018 -0.36467,-0.01399 -0.54883,-0.01953 v -4.7754 z m 2,0.59766 c 1.2815,0.44854 2.3197,1.0353 2.2969,2.0645 -0.039,1.395 -1.132,1.882 -2.297,2.048 v -4.1133 z"
         id="path3775"
         inkscape:connector-curvature="0" />
    </g>
  </g>
  <path
     style="fill:#ffffff;fill-opacity:1;fill-rule:evenodd;stroke:#ffffff;stroke-width:5.93789816;stroke-miterlimit:4;stroke-opacity:1;stroke-dasharray:none"
     d="m 111.35848,193.34301 0,-4.73155 -6.79826,-0.6965 c -7.117502,-0.72921 -18.044951,-3.55685 -24.893442,-6.44155 l -4.030685,-1.6978 2.403566,-5.51461 c 1.665356,-3.8209 2.903306,-5.35769 4.030685,-5.00369 10.062381,3.15956 17.546399,4.9894 22.869966,5.5917 l 6.41817,0.72613 0,-22.69619 0,-22.69619 -9.00187,-2.93158 C 79.811642,119.9091 71.661361,107.46719 77.193571,88.838217 80.207347,78.689731 89.483839,71.524865 103.79341,68.293355 l 7.56507,-1.70841 0,-5.306032 0,-5.306032 4.33898,0 4.33899,0 0,4.881356 0,4.881356 4.88135,0 4.88136,0 0,-4.881356 c 0,-4.855528 0.0201,-4.881356 3.79661,-4.881356 3.7708,0 3.79661,0.03285 3.79661,4.832203 0,4.743932 0.0743,4.844203 4.06779,5.489107 8.65889,1.398312 15.25214,3.110196 23.83383,6.188261 l 8.91857,3.198895 -3.23927,6.416954 c -1.7816,3.529324 -3.39215,6.416953 -3.57901,6.416953 -0.18686,0 -3.26031,-1.186734 -6.8299,-2.637188 -6.72328,-2.731913 -20.93186,-6.091712 -22.35845,-5.286941 -0.44746,0.25242 -0.81356,10.367075 -0.81356,22.477015 l 0,22.01806 9.47876,3.66456 c 13.24486,5.12055 21.22321,10.6711 24.21141,16.8439 4.36194,9.01057 2.60452,21.85431 -4.0549,29.63434 -4.38499,5.12287 -14.48167,10.38384 -23.23239,12.10543 l -6.40288,1.2597 0,4.74023 c 0,4.69422 -0.0368,4.74022 -3.79661,4.74022 -3.70622,0 -3.79661,-0.10331 -3.79661,-4.33899 l 0,-4.33898 -4.88136,0 -4.88135,0 0,4.33898 c 0,4.33899 0,4.33899 -4.33899,4.33899 l -4.33898,0 0,-4.73157 z m 18.44068,-37.5095 c 0,-11.30038 -0.36982,-20.77471 -0.82182,-21.05406 -0.452,-0.27936 -2.64861,-0.85063 -4.88136,-1.26949 l -4.05953,-0.76157 0,21.81563 0,21.81564 4.88135,0 4.88136,0 0,-20.54615 z m 20.24913,16.08376 c 10.1062,-4.81267 12.67593,-17.75965 4.97807,-25.08081 -3.35418,-3.19004 -13.22809,-8.4229 -15.89321,-8.4229 -1.53004,0 -1.74077,2.24694 -1.74077,18.5614 l 0,18.5614 4.06779,-0.73324 c 2.23729,-0.40328 6.10194,-1.70192 8.58812,-2.88585 z m -20.49739,-71.19863 -0.29411,-21.423725 -4.61017,-0.333557 -4.61017,-0.333557 0,20.515621 0,20.515618 3.52542,1.13093 c 6.62874,2.12644 6.30851,3.19966 5.98903,-20.07133 z m -18.19242,-2.342491 0,-18.342495 -5.15254,1.35996 c -11.248412,2.968902 -16.542375,7.74207 -16.542375,14.915017 0,4.637989 1.883411,9.070479 5.085461,11.968289 2.080308,1.88266 14.300354,8.40272 15.795894,8.42798 0.44746,0.008 0.81356,-8.24038 0.81356,-18.328751 l 0,0 z"
     id="path3641"
     inkscape:connector-curvature="0" />
</svg>
