<svg xmlns="http://www.w3.org/2000/svg" viewBox="0 0 256 256"><defs><clipPath><path d="m 27.707 56.824 h 82.29 v 139.69 h -82.29"/></clipPath><clipPath><path d="m 148 97 h 77.63 v 24 h -77.62"/></clipPath><clipPath><path d="m 74 56.824 h 129 v 139.69 h -129"/></clipPath><clipPath><path d="m 171 132 h 54.625 v 24 h -54.625"/></clipPath><clipPath><path d="m 74 56.824 h 129 v 139.69 h -129"/></clipPath><clipPath><path d="m 27.707 56.824 h 82.29 v 139.69 h -82.29"/></clipPath><clipPath><path d="m 148 97 h 77.63 v 24 h -77.62"/></clipPath><clipPath><path d="m 171 132 h 54.625 v 24 h -54.625"/></clipPath><clipPath><rect rx="6" height="80" width="84" y="6" x="6" style="fill:#fff"/></clipPath></defs><g transform="matrix(1 0 0 0.99154 -0.247 -787.21)" style="color:#000"><path transform="matrix(0 -1 -1 0 1711.48 -553.08)" d="m -1374.42 1658.71 c 127.95 -192.46 -280.09 -311 -226.07 -62.2 23.02 102.82 167.39 165.22 226.07 62.2 z" style="fill:#6b8e23"/><g transform="matrix(0 -1.85977 -1.79257 0 841 1662.42)" style="fill:#fff;stroke:#fff"><path d="m 363.55 348.5 h -2.739 v 35.05 h 2.739 z" style="stroke-width:5.809"/><path d="m 434,437.36 h -58.02 v -40 -2 l 16.01,-16 h 2 40.02 z m -4,-4 v -50 h -36.01 v 14 h -14.01 v 36 z" style="stroke-width:4"/><g transform="matrix(0 -1 -1 0 0 0)" style="stroke-width:2.25"><path d="m -425.36 -418 h 34 v 4 h -34 z"/><path d="m -425.36 -405.99 h 34 v 4 h -34 z"/></g></g></g></svg>