<svg xmlns="http://www.w3.org/2000/svg" viewBox="0 0 256 256"><defs><filter style="color-interpolation-filters:sRGB"><feBlend mode="darken" in2="BackgroundImage"/></filter></defs><g transform="matrix(-1 0 0 1 256 -796.36)" style="fill:#9acd32;color:#000"><path d="m 24.976 848.47 c -122.53 194.31 252.97 305.99 226.07 61.41 -23.02 -101.52 -156.54 -159.87 -226.07 -61.41 z"/><path d="m 125.84 850.43 c -0.138 0.002 -0.277 0.011 -0.414 0.024 -1.45 0.051 -2.843 0.714 -3.579 1.704 l -20.866 28.658 l -20.891 28.658 c -0.755 1.048 -0.749 2.415 0.016 3.459 0.765 1.044 2.259 1.726 3.783 1.728 h 23.25 v 65.16 c 0 4.36 3.529 7.865 7.889 7.865 h 21.232 c 4.36 0 7.889 -3.504 7.889 -7.865 v -65.16 h 23.25 c 1.524 -0.001 3.02 -0.683 3.783 -1.728 0.765 -1.044 0.771 -2.41 0.016 -3.459 l -20.891 -28.658 l -20.866 -28.658 c -0.733 -1 -2.14 -1.679 -3.604 -1.729 z"/><path d="m 125.83 850.43 c -0.138 0.002 -0.279 0.014 -0.417 0.028 -1.45 0.051 -2.847 0.732 -3.584 1.722 l -20.864 28.642 l -20.891 28.67 c -0.755 1.048 -0.737 2.401 0.028 3.445 0.765 1.044 2.254 1.721 3.778 1.722 h 23.25 v 65.17 c 0 4.36 3.53 7.862 7.89 7.862 h 10.862 v -137.27 c -0.018 -0.001 -0.037 0.001 -0.055 0 z"/><path d="m 493 -38 c -3.866 0 -7 3.134 -7 7 0 3.866 3.134 7 7 7 3.866 0 7 -3.134 7 -7 0 -3.866 -3.134 -7 -7 -7 z m 0 2.75 c 0.69 0 1.25 0.56 1.25 1.25 0 0.69 -0.56 1.25 -1.25 1.25 -0.69 0 -1.25 -0.56 -1.25 -1.25 0 -0.69 0.56 -1.25 1.25 -1.25 z m -1 3.25 h 1 h 1 v 5 h -2 v -5 z" transform="matrix(-10.14286 0 0 10.84019 5126.26 1263.15)" style="fill:#fff;enable-background:new"/></g></svg>