<svg xmlns="http://www.w3.org/2000/svg" viewBox="0 0 256 256"><defs><clipPath><path d="M 0,64 H64 V128 H0 z"/></clipPath></defs><g style="fill:#9acd32;color:#000"><path d="m -1360.14 1641.33 c 46.11 -98.28 -119.59 -146.07 -181.85 -106.06 -62.25 40.01 -83.52 108.58 -13.01 143.08 70.51 34.501 148.75 61.26 194.86 -37.03 z" transform="matrix(0 1.03665 -1.35742 0 2320.8011191 1657.6988755)"/></g><g transform="translate(11.924891 19.52923)" style="fill:#fff;fill-rule:evenodd"><path d="m 45.862016,165.84698 c -6.846293,-2.97765 -6.84986,-3.0067 -6.84986,-55.77934 0,-27.107068 0.439761,-48.868726 1.018293,-50.39038 0.560062,-1.473073 2.116512,-3.701461 3.458779,-4.951973 2.430133,-2.264013 2.76285,-2.273555 78.439332,-2.249537 70.36989,0.02233 76.17022,0.162934 78.31257,1.898305 4.66528,3.779022 4.73713,4.613354 4.73713,55.009285 0,53.78554 0.0315,53.53497 -7.08805,56.50968 -5.3997,2.25613 -146.833455,2.21331 -152.028194,-0.046 l 0,-4e-5 z m 65.488824,-23.5306 c 8.01046,-2.9971 16.61373,-11.00886 19.96789,-18.59501 1.92015,-4.34283 2.49742,-7.64161 2.50601,-14.32059 C 133.83804,99.080452 131.54902,93.084652 124.801,85.763912 114.83271,74.949595 96.63497,71.309339 83.486732,77.49945 72.105507,82.857662 66.277366,89.775212 63.276984,101.48684 c -7.006851,27.35042 20.854748,51.01351 48.073856,40.82954 z m 82.77996,-3.62746 0,-5.96611 -24.40678,0 -24.40678,0 0,5.96611 0,5.9661 24.40678,0 24.40678,0 0,-5.9661 z m 0,-23.32204 0,-6.50847 -24.40678,0 -24.40678,0 0,6.50847 0,6.50848 24.40678,0 24.40678,0 0,-6.50848 z m 0,-23.322028 0,-5.9661 -24.40678,0 -24.40678,0 0,5.9661 0,5.9661 24.40678,0 24.40678,0 0,-5.9661 z"/><path d="m 94.334188 131.66437 c -10.663542 -2.03123 -19.525422 -12.02338 -19.525422 -22.01576 0 -5.89607 4.967734 -14.469608 10.684405 -18.439608 4.524439 -3.14204 5.835267 -3.50314 12.716847 -3.50314 6.560812 0 8.327942 0.4338 12.196712 2.99402 5.60357 3.70827 10.11697 10.666258 10.78956 16.633508 1.58679 14.07794 -12.7092 27.02687 -26.862102 24.33098 z"/></g></svg>