<?xml version="1.0" encoding="UTF-8" standalone="no"?>
<svg
   xmlns:dc="http://purl.org/dc/elements/1.1/"
   xmlns:cc="http://creativecommons.org/ns#"
   xmlns:rdf="http://www.w3.org/1999/02/22-rdf-syntax-ns#"
   xmlns:svg="http://www.w3.org/2000/svg"
   xmlns="http://www.w3.org/2000/svg"
   xmlns:sodipodi="http://sodipodi.sourceforge.net/DTD/sodipodi-0.dtd"
   xmlns:inkscape="http://www.inkscape.org/namespaces/inkscape"
   viewBox="0 0 256 256"
   id="svg2"
   version="1.1"
   inkscape:version="0.48.4 r9939"
   width="100%"
   height="100%"
   sodipodi:docname="view-readermode-active.svg">
  <metadata
     id="metadata16">
    <rdf:RDF>
      <cc:Work
         rdf:about="">
        <dc:format>image/svg+xml</dc:format>
        <dc:type
           rdf:resource="http://purl.org/dc/dcmitype/StillImage" />
        <dc:title></dc:title>
      </cc:Work>
    </rdf:RDF>
  </metadata>
  <sodipodi:namedview
     pagecolor="#ffffff"
     bordercolor="#666666"
     borderopacity="1"
     objecttolerance="10"
     gridtolerance="10"
     guidetolerance="10"
     inkscape:pageopacity="0"
     inkscape:pageshadow="2"
     inkscape:window-width="698"
     inkscape:window-height="768"
     id="namedview14"
     showgrid="false"
     inkscape:zoom="0.921875"
     inkscape:cx="121.98899"
     inkscape:cy="128"
     inkscape:window-x="580"
     inkscape:window-y="25"
     inkscape:window-maximized="0"
     inkscape:current-layer="svg2" />
  <defs
     id="defs4">
    <clipPath
       id="clipPath6">
      <path
         d="M 0,64 H64 V128 H0 z"
         id="path8" />
    </clipPath>
    <filter
       style="color-interpolation-filters:sRGB"
       id="filter7554">
      <feBlend
         mode="darken"
         in2="BackgroundImage"
         id="feBlend7556" />
    </filter>
  </defs>
  <g
     style="color:#000"
     id="g10">
    <path
       d="m -1360.14 1641.33 c 46.11 -98.28 -119.59 -146.07 -181.85 -106.06 -62.25 40.01 -83.52 108.58 -13.01 143.08 70.51 34.501 148.75 61.26 194.86 -37.03 z"
       transform="matrix(1.03665 0 0 -1.35742 1657.71 2320.79)"
       style="fill:#9acd32"
       id="path12" />
  </g>
  <g
     style="enable-background:new"
     id="g3232"
     transform="matrix(10.762712,0,0,10.762712,45.152543,45.189135)">
    <g
       transform="translate(-484,-182)"
       id="layer1">
      <g
         transform="translate(-62,-4.0034)"
         id="layer1-2"
         style="opacity:0.5">
        <path
           d="m 554,187 c -3.866,0 -7,3.134 -7,7 0,3.866 3.134,7 7,7 3.866,0 7,-3.134 7,-7 0,-3.866 -3.134,-7 -7,-7 z m -0.5,1.9375 c 0.0669,-0.007 0.15125,0.004 0.21875,0 0.008,0.032 -0.0487,0.14587 -0.125,0.3125 -0.48586,1.0614 -0.51342,2.3044 -0.0625,2.9688 0.0816,0.12046 0.15625,0.2351 0.15625,0.25 0,0.0149 -0.088,0.0312 -0.1875,0.0312 -0.23358,0 -0.45462,-0.14236 -0.90625,-0.49999 -0.20063,-0.15887 -0.46145,-0.29231 -0.5625,-0.31251 -0.15868,-0.0317 -0.20098,-0.0178 -0.40626,0.1875 -0.19099,0.19096 -0.24999,0.29393 -0.24999,0.46875 0,0.66294 0.78708,1.1899 2.25,1.5 1.9867,0.42107 2.4764,0.79912 2.5312,1.8438 0.0688,1.31 -0.6286,2.2978 -2.1562,3.0625 -0.18233,0.0913 -0.2985,0.12675 -0.375,0.15625 -0.0339,-0.003 -0.0599,0.003 -0.0937,0 -0.013,-0.0405 -0.0312,-0.13446 -0.0312,-0.3125 0,-0.69578 -0.27424,-1.412 -0.68749,-1.8125 -0.11093,-0.10752 -0.42153,-0.33535 -0.68751,-0.5 -0.26597,-0.16464 -0.53395,-0.3559 -0.59375,-0.4375 -0.0991,-0.13541 -0.10734,-0.2186 -0.0312,-0.46875 0.13876,-0.45687 0.30391,-0.71133 0.62499,-1 0.16833,-0.15134 0.33771,-0.27825 0.375,-0.28125 0.0373,-0.003 -0.21515,-0.0788 -0.59375,-0.15625 -0.37858,-0.0776 -0.93237,-0.24012 -1.2187,-0.34375 -0.52358,-0.18945 -1.2305,-0.58716 -1.5,-0.875 -0.0114,-0.0122 -0.0213,-0.0204 -0.0312,-0.0312 0.38613,-1.5381 1.4697,-2.7987 2.9062,-3.4062 0.30057,-0.12713 0.61042,-0.21435 0.9375,-0.28125 0.16292,-0.0333 0.33178,-0.0454 0.5,-0.0625 z m 4.6875,2.3438 c 0.11745,0.0726 0.56091,1.032 0.6875,1.5 0.16344,0.60419 0.15161,1.6498 0,2.25 -0.0577,0.22844 -0.13165,0.44215 -0.15625,0.46875 -0.0246,0.0266 -0.11381,-0.12653 -0.21875,-0.3125 -0.10495,-0.18594 -0.44016,-0.58105 -0.71875,-0.875 -0.80414,-0.84853 -0.93059,-1.2916 -0.59375,-1.9688 0.16987,-0.34149 0.9091,-1.1186 1,-1.0625 z"
           style="enable-background:new"
           id="path6214"
           inkscape:connector-curvature="0" />
      </g>
    </g>
  </g>
  <path
     style="fill:#ffffff;fill-opacity:1;fill-rule:evenodd;stroke:#ffffff;stroke-width:5.93789816;stroke-miterlimit:4;stroke-opacity:1;stroke-dasharray:none"
     d="m 112.87649,203.52873 c -21.472925,-5.63036 -39.3553,-20.18133 -48.695346,-39.62365 -5.413751,-11.2693 -7.317717,-19.91458 -7.286312,-33.08474 0.05,-20.96631 7.061093,-37.474918 22.357212,-52.643179 14.217126,-14.098286 31.233846,-21.208147 51.017256,-21.31583 11.41921,-0.06216 19.57007,1.404634 28.92202,5.204674 40.05035,16.273913 58.10384,63.396965 39.01596,101.839075 -9.89842,19.93499 -27.38589,34.23398 -48.45908,39.6236 -10.84311,2.77319 -26.29548,2.77322 -36.87171,5e-5 l 0,0 z m 31.11648,-28.98845 c 2.40181,-2.16989 5.68228,-6.18269 7.28994,-8.91735 2.53022,-4.30391 2.92303,-6.16351 2.92303,-13.83787 0,-7.29524 -0.40093,-9.40347 -2.26325,-11.90099 -3.04415,-4.08244 -9.57626,-7.05912 -23.26784,-10.60313 -18.48516,-4.78481 -26.26414,-10.2719 -24.50409,-17.28452 0.40651,-1.61963 1.92699,-3.48602 3.37885,-4.14753 2.30486,-1.05016 3.5148,-0.63263 9.53723,3.29113 3.79361,2.47163 7.97166,4.49388 9.28457,4.49388 l 2.38709,0 -2.45127,-4.61017 c -3.35688,-6.31335 -3.33181,-19.345769 0.0537,-27.932205 1.2938,-3.281356 2.35261,-6.088135 2.35292,-6.237288 0.002,-1.023317 -8.53127,0.08951 -14.25808,1.859391 -8.55602,2.644253 -15.685865,7.09989 -22.143406,13.838031 -8.544969,8.916271 -15.058887,22.604231 -12.324802,25.898601 2.719337,3.27661 11.396075,7.46171 22.343208,10.77694 l 11.17005,3.38273 -3.32952,3.173 c -3.6272,3.45669 -6.40606,9.07171 -6.40606,12.94421 0,1.78986 2.13168,4.03264 7.86441,8.2743 8.66453,6.41092 12.18217,11.77809 13.32312,20.3283 0.36813,2.75881 0.86639,5.63856 1.10723,6.39943 0.60624,1.91525 12.24069,-4.04628 17.93295,-9.18889 l 0,0 z m 40.84079,-46.43181 c -0.36161,-9.4711 -0.86981,-11.84531 -4.00521,-18.71186 -1.97507,-4.32542 -4.08941,-7.86441 -4.69851,-7.86441 -1.813,0 -9.59781,8.76791 -11.20939,12.62495 -3.0155,7.21713 -1.14868,12.59512 7.66689,22.08692 1.93936,2.08813 4.93506,5.70121 6.6571,8.02905 l 3.13097,4.23245 1.43616,-4.77482 c 0.93024,-3.0928 1.29025,-8.59604 1.02199,-15.62228 l 0,0 z"
     id="path3237"
     inkscape:connector-curvature="0" />
</svg>
