<?xml version="1.0" encoding="UTF-8" standalone="no"?>
<svg
   xmlns:dc="http://purl.org/dc/elements/1.1/"
   xmlns:cc="http://creativecommons.org/ns#"
   xmlns:rdf="http://www.w3.org/1999/02/22-rdf-syntax-ns#"
   xmlns:svg="http://www.w3.org/2000/svg"
   xmlns="http://www.w3.org/2000/svg"
   xmlns:sodipodi="http://sodipodi.sourceforge.net/DTD/sodipodi-0.dtd"
   xmlns:inkscape="http://www.inkscape.org/namespaces/inkscape"
   viewBox="0 0 256 256"
   id="svg2"
   version="1.1"
   inkscape:version="0.48.4 r9939"
   width="100%"
   height="100%"
   sodipodi:docname="filename-slash-amarok.svg">
  <metadata
     id="metadata10">
    <rdf:RDF>
      <cc:Work
         rdf:about="">
        <dc:format>image/svg+xml</dc:format>
        <dc:type
           rdf:resource="http://purl.org/dc/dcmitype/StillImage" />
        <dc:title></dc:title>
      </cc:Work>
    </rdf:RDF>
  </metadata>
  <defs
     id="defs8">
    <style
       type="text/css"
       id="current-color-scheme">.ColorScheme-Text {
        color:#4d4d4d;
      }
      .ColorScheme-Background {
        color:#eff0f1;
      }
      .ColorScheme-Highlight {
        color:#3daee9;
      }
      .ColorScheme-ViewText {
        color:#31363b;
      }
      .ColorScheme-ViewBackground {
        color:#fcfcfc;
      }
      .ColorScheme-ViewHover {
        color:#93cee9;
      }
      .ColorScheme-ViewFocus{
        color:#3daee9;
      }
      .ColorScheme-ButtonText {
        color:#31363b;
      }
      .ColorScheme-ButtonBackground {
        color:#eff0f1;
      }
      .ColorScheme-ButtonHover {
        color:#93cee9;
      }
      .ColorScheme-ButtonFocus{
        color:#3daee9;
      }</style>
  </defs>
  <sodipodi:namedview
     pagecolor="#ffffff"
     bordercolor="#666666"
     borderopacity="1"
     objecttolerance="10"
     gridtolerance="10"
     guidetolerance="10"
     inkscape:pageopacity="0"
     inkscape:pageshadow="2"
     inkscape:window-width="698"
     inkscape:window-height="774"
     id="namedview6"
     showgrid="false"
     inkscape:zoom="0.98901497"
     inkscape:cx="129.94642"
     inkscape:cy="127.17624"
     inkscape:window-x="580"
     inkscape:window-y="25"
     inkscape:window-maximized="0"
     inkscape:current-layer="svg2" />
  <path
     d="m 260.02 66.64 c -48.541 -88.14 -200.63 -53.931 -226.36 18.64 -30.66 86.45 49.14 250.63 184.3 154.45 45.527 -33.585 90.6 -84.949 42.05 -173.09 z"
     style="fill:#9acd32;color:#000"
     id="path4"
     transform="translate(-26.04 -13.02)" />
  <g
     transform="matrix(10.436999,0,0,8.8992738,41.88128,-9162.2621)"
     id="layer1">
    <path
       d="m 2,1036.4 2.8125,16 H 10.25 l 3.75,-16 z m 1.5,2 c 0.27614,0 0.5,0.2239 0.5,0.5 0,0.2761 -0.22386,0.5 -0.5,0.5 -0.27614,0 -0.5,-0.2239 -0.5,-0.5 0,-0.2761 0.22386,-0.5 0.5,-0.5 z m 7,0 c 0.27614,0 0.5,0.2239 0.5,0.5 0,0.2761 -0.22386,0.5 -0.5,0.5 -0.27614,0 -0.5,-0.2239 -0.5,-0.5 0,-0.2761 0.22386,-0.5 0.5,-0.5 z m -2.5957,2.002 c 1.5402,-0.05 2.8674,1.0759 3.0703,2.6035 0.21827,1.6429 -0.93705,3.1516 -2.5801,3.3691 -1.6429,0.2183 -3.1516,-0.937 -3.3691,-2.5801 -0.21827,-1.6429 0.93705,-3.1516 2.5801,-3.3691 0.09916,-0.013 0.19889,-0.021 0.29883,-0.023 z m 1.5957,7 c 0.27614,0 0.5,0.2239 0.5,0.5 0,0.2761 -0.22386,0.5 -0.5,0.5 -0.27614,0 -0.5,-0.2239 -0.5,-0.5 0,-0.2761 0.22386,-0.5 0.5,-0.5 z m -3,2 c 0.27614,0 0.5,0.2239 0.5,0.5 0,0.2761 -0.22386,0.5 -0.5,0.5 -0.27614,0 -0.5,-0.2239 -0.5,-0.5 0,-0.2761 0.22386,-0.5 0.5,-0.5 z"
       id="path4163"
       inkscape:connector-curvature="0"
       style="opacity:0.5;fill-rule:evenodd" />
  </g>
  <path
     style="fill:#ffffff;fill-opacity:1;fill-rule:evenodd;stroke:#ffffff;stroke-width:5.53480005;stroke-miterlimit:4;stroke-opacity:1;stroke-dasharray:none"
     d="M 91.456143,197.44324 C 90.780041,194.23688 84.224084,162.49362 76.887347,126.90266 L 63.547828,62.191805 94.797819,61.924521 c 17.187491,-0.147006 44.995541,-0.147006 61.795651,0 l 30.54567,0.267284 -19.31165,70.271935 -19.31165,70.27194 -27.91521,0.26864 -27.915211,0.26865 -1.229276,-5.82973 0,0 z M 113.76871,184.0302 c 1.11222,-1.11221 2.02221,-2.47721 2.02221,-3.03332 0,-1.75549 -3.96005,-5.05553 -6.06664,-5.05553 -2.10659,0 -6.06664,3.30004 -6.06664,5.05553 0,1.7555 3.96005,5.05554 6.06664,5.05554 1.11222,0 2.93221,-0.91 4.04443,-2.02222 z m 31.77916,-18.4058 c 2.24436,-3.20427 0.0196,-6.36632 -4.47927,-6.36632 -4.49884,0 -6.72363,3.16205 -4.47927,6.36632 0.9958,1.4217 2.61693,2.22809 4.47927,2.22809 1.86234,0 3.48347,-0.80639 4.47927,-2.22809 z m -5.57723,-18.55619 c 11.14731,-5.09345 16.69532,-12.97065 16.69532,-23.70443 0,-10.67768 -5.45257,-18.58418 -16.58765,-24.052914 -4.81468,-2.364614 -6.83269,-2.741422 -14.68187,-2.741422 -7.87365,0 -9.84937,0.371429 -14.66105,2.756223 -11.300348,5.600753 -16.608469,13.283413 -16.608469,24.038113 0,4.75875 0.592963,7.68816 2.148989,10.61662 7.68389,14.4612 27.62011,20.43266 43.69473,13.08781 z M 82.929574,85.589737 c 0.859599,-1.311913 1.263031,-3.166761 0.896517,-4.121883 -1.586466,-4.134261 -9.656668,-3.911034 -10.757238,0.297553 -1.426088,5.453371 6.722596,8.613715 9.860721,3.82433 l 0,0 z m 72.727856,0.796415 c 3.29708,-3.297078 1.01175,-7.763858 -3.97221,-7.763858 -3.32281,0 -5.56108,1.962661 -5.56108,4.876322 0,4.098642 6.38748,6.033345 9.53329,2.887536 z"
     id="path5501"
     inkscape:connector-curvature="0" />
</svg>
