<?xml version="1.0" encoding="UTF-8" standalone="no"?>
<svg
   xmlns:dc="http://purl.org/dc/elements/1.1/"
   xmlns:cc="http://creativecommons.org/ns#"
   xmlns:rdf="http://www.w3.org/1999/02/22-rdf-syntax-ns#"
   xmlns:svg="http://www.w3.org/2000/svg"
   xmlns="http://www.w3.org/2000/svg"
   xmlns:sodipodi="http://sodipodi.sourceforge.net/DTD/sodipodi-0.dtd"
   xmlns:inkscape="http://www.inkscape.org/namespaces/inkscape"
   viewBox="0 0 256 256"
   id="svg2"
   version="1.1"
   inkscape:version="0.48.4 r9939"
   width="100%"
   height="100%"
   sodipodi:docname="escape-direction-left.svg">
  <metadata
     id="metadata10">
    <rdf:RDF>
      <cc:Work
         rdf:about="">
        <dc:format>image/svg+xml</dc:format>
        <dc:type
           rdf:resource="http://purl.org/dc/dcmitype/StillImage" />
        <dc:title></dc:title>
      </cc:Work>
    </rdf:RDF>
  </metadata>
  <defs
     id="defs8">
    <style
       type="text/css"
       id="current-color-scheme">.ColorScheme-Text {
        color:#4d4d4d;
      }
      .ColorScheme-Background {
        color:#eff0f1;
      }
      .ColorScheme-Highlight {
        color:#3daee9;
      }
      .ColorScheme-ViewText {
        color:#31363b;
      }
      .ColorScheme-ViewBackground {
        color:#fcfcfc;
      }
      .ColorScheme-ViewHover {
        color:#93cee9;
      }
      .ColorScheme-ViewFocus{
        color:#3daee9;
      }
      .ColorScheme-ButtonText {
        color:#31363b;
      }
      .ColorScheme-ButtonBackground {
        color:#eff0f1;
      }
      .ColorScheme-ButtonHover {
        color:#93cee9;
      }
      .ColorScheme-ButtonFocus{
        color:#3daee9;
      }</style>
  </defs>
  <sodipodi:namedview
     pagecolor="#ffffff"
     bordercolor="#666666"
     borderopacity="1"
     objecttolerance="10"
     gridtolerance="10"
     guidetolerance="10"
     inkscape:pageopacity="0"
     inkscape:pageshadow="2"
     inkscape:window-width="698"
     inkscape:window-height="774"
     id="namedview6"
     showgrid="false"
     inkscape:zoom="0.98901497"
     inkscape:cx="129.94642"
     inkscape:cy="127.17624"
     inkscape:window-x="580"
     inkscape:window-y="25"
     inkscape:window-maximized="0"
     inkscape:current-layer="svg2" />
  <path
     d="m 260.02 66.64 c -48.541 -88.14 -200.63 -53.931 -226.36 18.64 -30.66 86.45 49.14 250.63 184.3 154.45 45.527 -33.585 90.6 -84.949 42.05 -173.09 z"
     style="fill:#9acd32;color:#000"
     id="path4"
     transform="translate(-26.04 -13.02)" />
  <g
     transform="matrix(8.1499711,0,0,9.555163,60.683307,-9854.2857)"
     id="layer1">
    <path
       d="m 8,1036.4 a 7,6 0 0 0 -0.91992,0.059 7,6 0 0 0 -0.16211,0.018 h -0.0039 a 7,6 0 0 0 -5.9141,5.9 7,3 0 0 0 0.0117,0.1 7,2 0 0 1 -0.0117,-0.1 v 8 a 7,2 0 0 0 7,2 7,2 0 0 0 7,-2 v -8 a 7,6 0 0 0 -4.3164,-5.5352 h 0.002 a 7,6 0 0 0 -0.05474,-0.018 7,6 0 0 0 -0.39062,-0.1192 7,6 0 0 0 -0.28125,-0.08 7,6 0 0 0 -0.38086,-0.082 7,6 0 0 0 -0.30273,-0.059 7,6 0 0 0 -0.37109,-0.045 7,6 0 0 0 -0.32812,-0.035 7,6 0 0 0 -0.5766,-0.1 z m 2.1152,1.3262 a 6,5 0 0 1 3.885,4.7 6,2 0 0 1 -6,2 6,2 0 0 1 -6,-2 6,5 0 0 1 3.752,-4.6328 c -1.0237,1.4859 -1.5613,3.4269 -1.7109,5.1328 a 6,2 0 0 0 3.9589,0.5 c 0.29858,-2.4953 1.1928,-4.2446 2.1152,-5.6738 z m -8.115,6.2 a 7,3 0 0 0 6,1.4629 7,3 0 0 0 6,-1.4609 v 6.4609 a 6,1 0 0 1 -6,1 6,1 0 0 1 -6,-1 v -6.4629 z"
       id="rect4254"
       inkscape:connector-curvature="0"
       style="opacity:0.5" />
  </g>
  <path
     style="fill:#ffffff;fill-opacity:1;fill-rule:evenodd;stroke:#ffffff;stroke-width:5.53480005;stroke-miterlimit:4;stroke-opacity:1;stroke-dasharray:none"
     d="m 117.30758,200.5738 c -20.942173,-1.3903 -40.747596,-7.56131 -46.09807,-14.36334 -1.825094,-2.32022 -1.929193,-4.62054 -1.923653,-42.50812 0.0032,-22.03033 0.418787,-42.55764 0.92348,-45.616235 3.719183,-22.539434 20.782507,-41.376403 42.602163,-47.030444 25.89671,-6.710511 52.19938,6.186395 64.15403,31.456435 5.06563,10.707866 5.52187,15.663076 5.54091,60.179134 0.0199,46.64942 0.56926,43.59295 -8.73693,48.61295 -11.86835,6.40208 -37.14563,10.55197 -56.46193,9.26962 z m 34.8832,-9.99676 c 11.62775,-1.64831 19.42295,-3.86988 21.75233,-6.19926 1.2653,-1.2653 1.50313,-6.45107 1.50313,-32.77523 0,-17.19965 -0.27101,-31.27209 -0.60225,-31.27209 -0.33123,0 -1.9017,0.92529 -3.48991,2.0562 -20.92052,14.89673 -69.98365,14.89673 -90.904171,0 -1.588218,-1.13091 -3.158679,-2.0562 -3.489914,-2.0562 -0.331235,0 -0.602245,14.07244 -0.602245,31.27209 0,35.14786 -0.442901,33.13273 7.890503,35.90064 13.216336,4.38977 47.665127,5.9483 67.942527,3.07385 z m -6.91392,-66.61568 c 9.37773,-1.80065 20.09586,-5.81874 24.51754,-9.19132 5.15902,-3.93497 6.08959,-7.08303 4.63789,-15.68965 -2.46337,-14.604543 -12.38128,-28.418151 -25.37682,-35.344702 l -6.01846,-3.207809 -4.97245,10.43748 C 132.68957,82.247822 127.4369,99.399393 126.3122,109.34043 l -0.70262,6.21035 -8.5677,-0.65857 c -4.71224,-0.36221 -11.75667,-1.38388 -15.65429,-2.27037 l -7.086584,-1.61181 0.672817,-6.56707 c 1.210397,-11.814175 5.839207,-28.161409 10.636957,-37.565767 1.2278,-2.406688 2.01721,-4.590946 1.75425,-4.853906 -1.08247,-1.082471 -9.120712,4.111295 -15.279621,9.872652 -7.948525,7.435455 -12.937261,16.652437 -14.713715,27.184451 -1.464006,8.67961 -0.525886,11.75104 4.839006,15.84304 4.288907,3.27131 14.327065,7.097 23.46915,8.94443 8.91084,1.80071 30.44114,1.85155 39.59701,0.0935 l 0,0 z"
     id="path5630"
     inkscape:connector-curvature="0" />
</svg>
