<?xml version="1.0" encoding="UTF-8" standalone="no"?>
<svg
   xmlns:dc="http://purl.org/dc/elements/1.1/"
   xmlns:cc="http://creativecommons.org/ns#"
   xmlns:rdf="http://www.w3.org/1999/02/22-rdf-syntax-ns#"
   xmlns:svg="http://www.w3.org/2000/svg"
   xmlns="http://www.w3.org/2000/svg"
   xmlns:xlink="http://www.w3.org/1999/xlink"
   xmlns:sodipodi="http://sodipodi.sourceforge.net/DTD/sodipodi-0.dtd"
   xmlns:inkscape="http://www.inkscape.org/namespaces/inkscape"
   viewBox="0 0 256 256"
   id="svg2"
   version="1.1"
   inkscape:version="0.48.4 r9939"
   width="100%"
   height="100%"
   sodipodi:docname="kstars_hgrid.svg">
  <metadata
     id="metadata17">
    <rdf:RDF>
      <cc:Work
         rdf:about="">
        <dc:format>image/svg+xml</dc:format>
        <dc:type
           rdf:resource="http://purl.org/dc/dcmitype/StillImage" />
        <dc:title></dc:title>
      </cc:Work>
    </rdf:RDF>
  </metadata>
  <sodipodi:namedview
     pagecolor="#ffffff"
     bordercolor="#666666"
     borderopacity="1"
     objecttolerance="10"
     gridtolerance="10"
     guidetolerance="10"
     inkscape:pageopacity="0"
     inkscape:pageshadow="2"
     inkscape:window-width="646"
     inkscape:window-height="501"
     id="namedview15"
     showgrid="false"
     inkscape:zoom="0.921875"
     inkscape:cx="128"
     inkscape:cy="128"
     inkscape:window-x="632"
     inkscape:window-y="38"
     inkscape:window-maximized="0"
     inkscape:current-layer="svg2" />
  <defs
     id="defs4">
    <path
       id="0"
       d="m 153.54 78.21 c 0 12.274 -9.95 22.22 -22.22 22.22 -12.274 0 -22.22 -9.95 -22.22 -22.22 0 -12.274 9.95 -22.22 22.22 -22.22 12.274 0 22.22 9.95 22.22 22.22 z"
       style="fill:#ff4500;color:#000" />
    <clipPath
       clipPathUnits="userSpaceOnUse"
       id="clipPath3979">
      <rect
         x=".090116"
         y="-.090115"
         width="64"
         height="64"
         id="rect3981" />
    </clipPath>
    <style
       type="text/css"
       id="current-color-scheme">.ColorScheme-Text {
        color:#4d4d4d;
      }
      .ColorScheme-Background {
        color:#eff0f1;
      }
      .ColorScheme-Highlight {
        color:#3daee9;
      }
      .ColorScheme-ViewText {
        color:#31363b;
      }
      .ColorScheme-ViewBackground {
        color:#fcfcfc;
      }
      .ColorScheme-ViewHover {
        color:#93cee9;
      }
      .ColorScheme-ViewFocus{
        color:#3daee9;
      }
      .ColorScheme-ButtonText {
        color:#31363b;
      }
      .ColorScheme-ButtonBackground {
        color:#eff0f1;
      }
      .ColorScheme-ButtonHover {
        color:#93cee9;
      }
      .ColorScheme-ButtonFocus{
        color:#3daee9;
      }</style>
  </defs>
  <use
     transform="translate(15.781 13.13)"
     xlink:href="#0"
     id="use7" />
  <use
     transform="translate(18.424 91.18)"
     xlink:href="#0"
     id="use9" />
  <use
     transform="translate(-66.794 48.49)"
     xlink:href="#0"
     id="use11" />
  <path
     d="M 118.3361,254.09 C 271.6422,268.681 312.91084,22.61 155.48973,3.5 10.743423,-20.184 -63.8067,202.86 80.021428,247.47 c 12.160427,4.888 25.458212,4.794 38.313692,6.617 z"
     style="color:#000000;fill:#9acd32"
     id="path13"
     inkscape:connector-curvature="0" />
  <path
     style="fill:#ffffff;fill-opacity:1;fill-rule:evenodd;stroke:#ffffff;stroke-width:5.76738214;stroke-miterlimit:4;stroke-opacity:1;stroke-dasharray:none"
     d="m 124.25864,203.23008 c 0,-1.69091 -0.9326,-2.20169 -4.89333,-2.67997 -20.854671,-2.51841 -35.341445,-6.04069 -51.67176,-12.56339 l -8.336026,-3.32961 0,-13.1968 c 0,-12.91241 0.08881,-13.42512 4.120706,-23.78992 2.266387,-5.82621 4.120706,-10.92425 4.120706,-11.329 0,-0.40474 -1.854319,-1.49777 -4.120706,-2.42898 -4.050672,-1.66431 -4.120706,-1.78567 -4.120706,-7.14084 0,-5.36961 0.03704,-5.43302 2.582432,-4.42076 1.420339,0.56484 4.023292,1.80635 5.78434,2.7589 1.761049,0.95254 3.563047,1.32697 4.004438,0.83205 0.831538,-0.93238 12.012769,-28.901963 12.559039,-31.416123 0.198473,-0.91347 -3.008731,-2.70862 -8.962514,-5.01653 -17.311985,-6.71079 -15.967735,-5.73009 -15.967735,-11.64936 0,-4.92083 0.134563,-5.1807 2.317897,-4.47621 1.274843,0.41134 3.690397,1.47909 5.367897,2.37276 3.031775,1.61516 19.865153,7.80004 21.229345,7.80004 0.392631,0 2.044093,-3.3927 3.669913,-7.53933 l 2.956038,-7.53932 5.374026,-0.003 5.37402,-0.004 -3.57121,8.85705 c -1.96417,4.87137 -3.571219,8.94322 -3.571219,9.04854 0,0.33571 12.642789,2.3881 19.315809,3.13566 l 6.4386,0.72129 0,-10.88127 0,-10.88127 5.15089,0 5.15088,0 0,10.77547 0,10.77547 5.62389,0 c 6.75108,0 21.1607,-2.12933 21.1607,-3.12696 0,-0.39043 -1.60705,-4.69556 -3.57122,-9.56693 l -3.57122,-8.85705 5.37402,0.004 5.37404,0.003 2.99651,7.80871 c 1.64808,4.29479 3.2706,8.12057 3.60562,8.50173 0.675,0.76801 13.04554,-2.97186 21.50831,-6.5024 2.99561,-1.24973 5.66119,-2.27223 5.92351,-2.27223 0.26233,0 0.47696,2.37696 0.47696,5.28213 l 0,5.28214 -11.84704,4.00561 c -6.51586,2.20308 -11.84702,4.30584 -11.84702,4.67279 0,0.58434 13.39449,34.700343 13.92608,35.469923 0.11263,0.16306 2.3565,-0.66828 4.98637,-1.84741 l 4.78161,-2.14388 0,5.21871 c 0,4.80246 -0.25079,5.32737 -3.14426,6.58099 -1.72933,0.74925 -2.92526,1.8991 -2.65763,2.55521 6.03566,14.79664 5.872,13.90201 5.57162,30.45649 l -0.28482,15.69664 -6.69615,2.57989 c -14.02097,5.40202 -31.95695,9.30951 -49.19093,10.71661 -7.42337,0.6061 -8.49895,0.95247 -8.49895,2.73687 0,1.73317 -0.78105,2.04294 -5.15088,2.04294 -4.40984,0 -5.15089,-0.30055 -5.15089,-2.08908 z m 0,-32.93121 0,-21.01216 -3.86316,-0.004 c -6.22607,-0.007 -21.59214,-2.92625 -32.849947,-6.24086 l -10.443612,-3.07491 -6.963893,17.61118 c -3.830142,9.68614 -6.779577,17.80223 -6.554302,18.03574 1.034485,1.07234 16.641573,7.0492 23.588563,9.03345 9.450165,2.69921 22.612371,5.39445 28.844941,5.90661 2.54969,0.20953 5.44705,0.46567 6.4386,0.56921 1.66148,0.17347 1.80281,-1.45899 1.80281,-20.82394 z m 34.51091,18.69045 c 11.62345,-1.79571 35.0213,-8.9791 37.86884,-11.62613 0.65455,-0.60847 -11.3081,-32.44123 -12.76335,-33.96339 -0.26238,-0.27445 -3.0052,0.21419 -6.09512,1.08585 -7.80494,2.20176 -22.37579,4.54598 -33.69038,5.42026 l -9.52913,0.73632 0,20.47355 0,20.47354 8.49895,-0.74297 c 4.67443,-0.40863 11.74401,-1.24429 15.71019,-1.85703 l 0,0 z m 7.27047,-51.64397 c 6.26515,-1.22206 12.00746,-2.62034 12.76069,-3.10727 1.07038,-0.69195 -0.0179,-4.32549 -4.98215,-16.63562 -3.49342,-8.66267 -6.76105,-16.87658 -7.26141,-18.253123 l -0.90973,-2.50281 -10.13508,1.39773 c -5.57429,0.76875 -12.56888,1.41517 -15.54351,1.43651 l -5.40842,0.0387 0,20.632433 0,20.63244 10.04422,-0.70855 c 5.52432,-0.38972 15.17025,-1.70844 21.43539,-2.93052 z m -41.78138,-17.61365 0,-19.857093 -5.92351,-0.668 c -3.25794,-0.3674 -9.86394,-1.3218 -14.68002,-2.12088 -4.816072,-0.79907 -8.818621,-1.38194 -8.894551,-1.29523 -0.121989,0.13928 -12.251246,30.566773 -13.441371,33.719053 -0.5456,1.44513 8.974338,4.865 20.275572,7.28364 10.41692,2.22939 12.08773,2.47844 17.77055,2.64886 l 4.89333,0.14674 0,-19.85709 z"
     id="path3009"
     inkscape:connector-curvature="0" />
</svg>
