<?xml version="1.0" encoding="UTF-8" standalone="no"?>
<svg
   xmlns:dc="http://purl.org/dc/elements/1.1/"
   xmlns:cc="http://creativecommons.org/ns#"
   xmlns:rdf="http://www.w3.org/1999/02/22-rdf-syntax-ns#"
   xmlns:svg="http://www.w3.org/2000/svg"
   xmlns="http://www.w3.org/2000/svg"
   xmlns:sodipodi="http://sodipodi.sourceforge.net/DTD/sodipodi-0.dtd"
   xmlns:inkscape="http://www.inkscape.org/namespaces/inkscape"
   viewBox="0 0 256 256"
   id="svg2"
   version="1.1"
   inkscape:version="0.48.4 r9939"
   width="100%"
   height="100%"
   sodipodi:docname="speedometer.svg">
  <metadata
     id="metadata16">
    <rdf:RDF>
      <cc:Work
         rdf:about="">
        <dc:format>image/svg+xml</dc:format>
        <dc:type
           rdf:resource="http://purl.org/dc/dcmitype/StillImage" />
        <dc:title></dc:title>
      </cc:Work>
    </rdf:RDF>
  </metadata>
  <sodipodi:namedview
     pagecolor="#ffffff"
     bordercolor="#666666"
     borderopacity="1"
     objecttolerance="10"
     gridtolerance="10"
     guidetolerance="10"
     inkscape:pageopacity="0"
     inkscape:pageshadow="2"
     inkscape:window-width="698"
     inkscape:window-height="768"
     id="namedview14"
     showgrid="false"
     inkscape:zoom="0.921875"
     inkscape:cx="122.52342"
     inkscape:cy="128"
     inkscape:window-x="580"
     inkscape:window-y="25"
     inkscape:window-maximized="0"
     inkscape:current-layer="svg2" />
  <defs
     id="defs4">
    <clipPath
       id="clipPath6">
      <path
         d="M 0,64 H64 V128 H0 z"
         id="path8" />
    </clipPath>
    <style
       id="current-color-scheme"
       type="text/css">
      .ColorScheme-Text {
        color:#4d4d4d;
      }
      .ColorScheme-Background {
        color:#eff0f1;
      }
      .ColorScheme-Highlight {
        color:#3daee9;
      }
      .ColorScheme-ViewText {
        color:#31363b;
      }
      .ColorScheme-ViewBackground {
        color:#fcfcfc;
      }
      .ColorScheme-ViewHover {
        color:#93cee9;
      }
      .ColorScheme-ViewFocus{
        color:#3daee9;
      }
      .ColorScheme-ButtonText {
        color:#31363b;
      }
      .ColorScheme-ButtonBackground {
        color:#eff0f1;
      }
      .ColorScheme-ButtonHover {
        color:#93cee9;
      }
      .ColorScheme-ButtonFocus{
        color:#3daee9;
      }
      </style>
  </defs>
  <g
     style="color:#000000"
     id="g10"
     transform="matrix(-1,0,0,1,256.01463,0)">
    <path
       d="m -1360.14,1641.33 c 46.11,-98.28 -119.59,-146.07 -181.85,-106.06 -62.25,40.01 -83.52,108.58 -13.01,143.08 70.51,34.501 148.75,61.26 194.86,-37.03 z"
       transform="matrix(1.03665,0,0,-1.35742,1657.71,2320.79)"
       style="fill:#9acd32"
       id="path12"
       inkscape:connector-curvature="0" />
  </g>
  <g
     transform="matrix(8.1186441,0,0,8.2542373,-4359.7577,-6118.2824)"
     id="layer1"
     inkscape:label="Capa 1">
    <path
       inkscape:connector-curvature="0"
       id="rect3354"
       d="m 544.57141,748.93359 0,2 0,4 6,0 0,-2 0,-4 -6,0 z m 9,0 0,1 6,0 0,6 0,2 0,6 -6,0 0,1 7,0 0,-1 0,-6 0,-2 0,-7 -1,0 -6,0 z m -6.17187,9.66992 -2.1211,2.1211 -0.70703,0.70703 2.82813,2.83007 0.70703,-0.70703 -1.6211,-1.62304 4.65625,0 0,-1 -4.65625,0 1.6211,-1.6211 -0.70703,-0.70703 z"
       style="opacity:0.5;fill:#000000;fill-opacity:1;stroke:none" />
  </g>
  <path
     style="fill:#ffffff;fill-opacity:1;fill-rule:evenodd;stroke:#ffffff;stroke-width:5.93789816;stroke-miterlimit:4;stroke-opacity:1;stroke-dasharray:none"
     d="m 61.994602,88.515254 0,-23.864407 23.864407,0 23.864411,0 0,23.864407 0,23.864406 -23.864411,0 -23.864407,0 0,-23.864406 z"
     id="path3979"
     inkscape:connector-curvature="0" />
  <path
     style="fill:#ffffff;fill-opacity:1;fill-rule:evenodd;stroke:#ffffff;stroke-width:5.93789816;stroke-miterlimit:4;stroke-opacity:1;stroke-dasharray:none"
     d="m 76.567595,181.51142 c -4.162791,-4.31399 -8.992608,-9.43077 -10.732927,-11.37061 l -3.164216,-3.52699 11.03075,-11.20951 11.03075,-11.20951 2.40318,2.55806 2.403181,2.55807 -6.178635,6.24379 c -3.39825,3.43408 -6.178635,6.59573 -6.178635,7.02589 0,0.43016 8.298305,0.7821 18.440678,0.7821 l 18.440679,0 0,3.25424 0,3.25424 -18.440679,0 c -10.142373,0 -18.440678,0.31196 -18.440678,0.69326 0,0.38129 2.666428,3.73036 5.925395,7.44237 l 5.925396,6.74912 -2.447764,2.29955 -2.447763,2.29956 -7.568712,-7.84363 0,0 z"
     id="path3981"
     inkscape:connector-curvature="0" />
  <path
     style="fill:#ffffff;fill-opacity:1;fill-rule:evenodd;stroke:#ffffff;stroke-width:5.93789816;stroke-miterlimit:4;stroke-opacity:1;stroke-dasharray:none"
     d="m 134.67257,191.5661 0,-3.25424 24.40678,0 24.40678,0 0,-58.57627 0,-58.576268 -24.40678,0 -24.40678,0 0,-3.254237 0,-3.254238 28.20339,0 28.20339,0 0,65.084743 0,65.08475 -28.20339,0 -28.20339,0 0,-3.25424 z"
     id="path3983"
     inkscape:connector-curvature="0" />
</svg>
