<?xml version="1.0" encoding="UTF-8" standalone="no"?>
<svg
   xmlns:dc="http://purl.org/dc/elements/1.1/"
   xmlns:cc="http://creativecommons.org/ns#"
   xmlns:rdf="http://www.w3.org/1999/02/22-rdf-syntax-ns#"
   xmlns:svg="http://www.w3.org/2000/svg"
   xmlns="http://www.w3.org/2000/svg"
   xmlns:sodipodi="http://sodipodi.sourceforge.net/DTD/sodipodi-0.dtd"
   xmlns:inkscape="http://www.inkscape.org/namespaces/inkscape"
   sodipodi:docname="view-object-histogram-logarithmic.svg"
   height="100%"
   width="100%"
   inkscape:version="0.48.4 r9939"
   version="1.1"
   id="svg2"
   viewBox="0 0 256 256">
  <metadata
     id="metadata10">
    <rdf:RDF>
      <cc:Work
         rdf:about="">
        <dc:format>image/svg+xml</dc:format>
        <dc:type
           rdf:resource="http://purl.org/dc/dcmitype/StillImage" />
        <dc:title></dc:title>
      </cc:Work>
    </rdf:RDF>
  </metadata>
  <defs
     id="defs8">
    <style
       type="text/css"
       id="current-color-scheme">.ColorScheme-Text {
        color:#4d4d4d;
      }
      .ColorScheme-Background {
        color:#eff0f1;
      }
      .ColorScheme-Highlight {
        color:#3daee9;
      }
      .ColorScheme-ViewText {
        color:#31363b;
      }
      .ColorScheme-ViewBackground {
        color:#fcfcfc;
      }
      .ColorScheme-ViewHover {
        color:#93cee9;
      }
      .ColorScheme-ViewFocus{
        color:#3daee9;
      }
      .ColorScheme-ButtonText {
        color:#31363b;
      }
      .ColorScheme-ButtonBackground {
        color:#eff0f1;
      }
      .ColorScheme-ButtonHover {
        color:#93cee9;
      }
      .ColorScheme-ButtonFocus{
        color:#3daee9;
      }</style>
  </defs>
  <sodipodi:namedview
     pagecolor="#ffffff"
     bordercolor="#666666"
     borderopacity="1"
     objecttolerance="10"
     gridtolerance="10"
     guidetolerance="10"
     inkscape:pageopacity="0"
     inkscape:pageshadow="2"
     inkscape:window-width="698"
     inkscape:window-height="774"
     id="namedview6"
     showgrid="false"
     inkscape:zoom="0.98901497"
     inkscape:cx="129.94642"
     inkscape:cy="127.17624"
     inkscape:window-x="580"
     inkscape:window-y="25"
     inkscape:window-maximized="0"
     inkscape:current-layer="svg2" />
  <path
     d="M 233.98,53.62 C 185.439,-34.52 33.35,-0.31100018 7.6199996,72.26 -23.04,158.71 56.76,322.89 191.92,226.71 c 45.527,-33.585 90.6,-84.949 42.05,-173.09 z"
     style="color:#000000;fill:#9acd32"
     id="path4"
     inkscape:connector-curvature="0" />
  <g
     transform="matrix(9.9103808,0,0,12.324399,-5439.9652,-7246.7222)"
     id="layer1">
    <path
       class="ColorScheme-Text"
       d="m 561.72,592.12 -2,4 h 4 l -2,-4 z m -4,6 -4,2 4,2 v -4 z m 8,0 v 4 l 4,-2 -4,-2 z m -4,1 c -0.554,0 -1,0.446 -1,1 0,0.554 0.446,1 1,1 0.554,0 1,-0.446 1,-1 0,-0.554 -0.446,-1 -1,-1 z"
       style="opacity:0.5;color:#4d4d4d"
       id="rect4148-2"
       inkscape:connector-curvature="0" />
  </g>
  <path
     style="fill:#ffffff;fill-opacity:1;fill-rule:evenodd;stroke:#ffffff;stroke-width:5.53480005;stroke-miterlimit:4;stroke-opacity:1;stroke-dasharray:none"
     d="m 68.389066,161.68868 c -9.665811,-5.98717 -17.959759,-11.27133 -18.430997,-11.74257 -0.471238,-0.47124 7.381401,-5.98038 17.450312,-12.24253 10.068909,-6.26216 18.485322,-11.20752 18.703138,-10.98971 0.217817,0.21782 0.273567,10.62556 0.123889,23.12831 l -0.272141,22.73228 -17.574201,-10.88578 z"
     id="path3752"
     inkscape:connector-curvature="0" />
  <path
     style="fill:#ffffff;fill-opacity:1;fill-rule:evenodd;stroke:#ffffff;stroke-width:5.53480005;stroke-miterlimit:4;stroke-opacity:1;stroke-dasharray:none"
     d="m 121.6824,159.05365 c -3.91912,-4.48849 -5.02988,-10.80309 -2.772,-15.7586 1.20538,-2.64552 5.81889,-5.77577 8.51259,-5.77577 0.943,0 3.26154,1.54699 5.15231,3.43776 2.88006,2.88007 3.43777,4.16805 3.43777,7.93933 0,6.71092 -3.39915,11.28265 -8.67974,11.67394 -2.92194,0.21651 -4.5097,-0.20963 -5.65093,-1.51666 l 0,0 z"
     id="path3754"
     inkscape:connector-curvature="0" />
  <path
     style="fill:#ffffff;fill-opacity:1;fill-rule:evenodd;stroke:#ffffff;stroke-width:5.53480005;stroke-miterlimit:4;stroke-opacity:1;stroke-dasharray:none"
     d="m 167.35738,149.57524 c 0,-12.84066 0.37139,-23.19499 0.82532,-23.00962 0.45392,0.18537 8.86891,5.32824 18.69999,11.42859 13.76378,8.54068 17.58526,11.35629 16.61628,12.24265 -0.69212,0.6331 -5.58088,3.78889 -10.86391,7.01288 -5.28303,3.22398 -13.13175,8.06912 -17.4416,10.76697 l -7.83608,4.90518 0,-23.34665 z"
     id="path3756"
     inkscape:connector-curvature="0" />
  <path
     style="fill:#ffffff;fill-opacity:1;fill-rule:evenodd;stroke:#ffffff;stroke-width:5.53480005;stroke-miterlimit:4;stroke-opacity:1;stroke-dasharray:none"
     d="m 109.02767,96.822221 c 0.744,-1.807354 4.92909,-12.272312 9.3002,-23.255462 4.37111,-10.98315 8.23446,-19.969364 8.58523,-19.969364 0.35077,0 4.21413,8.986214 8.58523,19.969364 4.37111,10.98315 8.5562,21.448108 9.30021,23.255462 l 1.35273,3.286099 -19.23817,0 -19.23817,0 1.35274,-3.286099 z"
     id="path3758"
     inkscape:connector-curvature="0" />
</svg>
