<?xml version="1.0" encoding="UTF-8" standalone="no"?>
<svg
   xmlns:dc="http://purl.org/dc/elements/1.1/"
   xmlns:cc="http://creativecommons.org/ns#"
   xmlns:rdf="http://www.w3.org/1999/02/22-rdf-syntax-ns#"
   xmlns:svg="http://www.w3.org/2000/svg"
   xmlns="http://www.w3.org/2000/svg"
   xmlns:sodipodi="http://sodipodi.sourceforge.net/DTD/sodipodi-0.dtd"
   xmlns:inkscape="http://www.inkscape.org/namespaces/inkscape"
   viewBox="0 0 256 256"
   id="svg2"
   version="1.1"
   inkscape:version="0.48.4 r9939"
   width="100%"
   height="100%"
   sodipodi:docname="format-node-line.svg">
  <metadata
     id="metadata16">
    <rdf:RDF>
      <cc:Work
         rdf:about="">
        <dc:format>image/svg+xml</dc:format>
        <dc:type
           rdf:resource="http://purl.org/dc/dcmitype/StillImage" />
        <dc:title></dc:title>
      </cc:Work>
    </rdf:RDF>
  </metadata>
  <sodipodi:namedview
     pagecolor="#ffffff"
     bordercolor="#666666"
     borderopacity="1"
     objecttolerance="10"
     gridtolerance="10"
     guidetolerance="10"
     inkscape:pageopacity="0"
     inkscape:pageshadow="2"
     inkscape:window-width="698"
     inkscape:window-height="768"
     id="namedview14"
     showgrid="false"
     inkscape:zoom="0.921875"
     inkscape:cx="122.52342"
     inkscape:cy="128"
     inkscape:window-x="580"
     inkscape:window-y="25"
     inkscape:window-maximized="0"
     inkscape:current-layer="svg2" />
  <defs
     id="defs4">
    <clipPath
       id="clipPath6">
      <path
         d="M 0,64 H64 V128 H0 z"
         id="path8" />
    </clipPath>
    <style
       id="current-color-scheme"
       type="text/css">
      .ColorScheme-Text {
        color:#4d4d4d;
      }
      .ColorScheme-Background {
        color:#eff0f1;
      }
      .ColorScheme-Highlight {
        color:#3daee9;
      }
      .ColorScheme-ViewText {
        color:#31363b;
      }
      .ColorScheme-ViewBackground {
        color:#fcfcfc;
      }
      .ColorScheme-ViewHover {
        color:#93cee9;
      }
      .ColorScheme-ViewFocus{
        color:#3daee9;
      }
      .ColorScheme-ButtonText {
        color:#31363b;
      }
      .ColorScheme-ButtonBackground {
        color:#eff0f1;
      }
      .ColorScheme-ButtonHover {
        color:#93cee9;
      }
      .ColorScheme-ButtonFocus{
        color:#3daee9;
      }
      </style>
  </defs>
  <g
     style="color:#000"
     id="g10">
    <path
       d="m -1360.14 1641.33 c 46.11 -98.28 -119.59 -146.07 -181.85 -106.06 -62.25 40.01 -83.52 108.58 -13.01 143.08 70.51 34.501 148.75 61.26 194.86 -37.03 z"
       transform="matrix(1.03665 0 0 -1.35742 1657.71 2320.79)"
       style="fill:#9acd32"
       id="path12" />
  </g>
  <g
     transform="matrix(9.2033898,0,0,8.7966102,-4949.3945,-6526.6532)"
     id="layer1"
     inkscape:label="Capa 1">
    <path
       inkscape:connector-curvature="0"
       id="rect3354"
       d="m 544.57141,748.93359 0,2 0,4 6,0 0,-2 0,-4 -6,0 z m 9,0 0,1 6,0 0,6 1,0 0,-6 0,-1 -7,0 z m -9,9 0,7 1,0 6,0 0,-1 -6,0 0,-6 -1,0 z m 11.99805,0.42969 0,4.65625 -1.6211,-1.6211 -0.70703,0.70703 2.1211,2.1211 0.70703,0.70703 2.83008,-2.82813 -0.70704,-0.70703 -1.62304,1.6211 0,-4.65625 -1,0 z"
       style="opacity:0.5;fill:#000000;fill-opacity:1;stroke:none" />
  </g>
  <path
     style="fill:#ffffff;fill-opacity:1;fill-rule:evenodd;stroke:#ffffff;stroke-width:5.93789816;stroke-miterlimit:4;stroke-opacity:1;stroke-dasharray:none"
     d="m 63.079348,87.972881 0,-25.491525 27.118644,0 27.118648,0 0,25.491525 0,25.491529 -27.118648,0 -27.118644,0 0,-25.491529 z"
     id="path4063"
     inkscape:connector-curvature="0" />
  <path
     style="fill:#ffffff;fill-opacity:1;fill-rule:evenodd;stroke:#ffffff;stroke-width:5.93789816;stroke-miterlimit:4;stroke-opacity:1;stroke-dasharray:none"
     d="m 63.079348,170.95593 0,-30.37288 3.777325,0 3.777325,0 0.290471,26.30509 0.290472,26.30508 27.389831,0.28981 27.389828,0.28982 0,3.77798 0,3.77798 -31.457625,0 -31.457627,0 0,-30.37288 z"
     id="path4067"
     inkscape:connector-curvature="0" />
  <path
     style="fill:#ffffff;fill-opacity:1;fill-rule:evenodd;stroke:#ffffff;stroke-width:5.93789816;stroke-miterlimit:4;stroke-opacity:1;stroke-dasharray:none"
     d="m 165.03678,189.37556 -12.46591,-11.70706 2.59317,-2.77495 2.59316,-2.77495 7.98311,7.14484 7.98311,7.14485 0,-20.74313 0,-20.74313 3.77318,0 3.77319,0 0.29461,20.57776 0.29461,20.57776 7.71648,-6.97462 7.71649,-6.97462 2.43106,2.58775 c 1.33708,1.42326 2.14715,3.04712 1.80015,3.60857 -0.34699,0.56146 -5.89356,5.91169 -12.3257,11.88941 l -11.69479,10.86858 -12.46592,-11.70706 z"
     id="path4069"
     inkscape:connector-curvature="0" />
  <path
     style="fill:#ffffff;fill-opacity:1;fill-rule:evenodd;stroke:#ffffff;stroke-width:5.93789816;stroke-miterlimit:4;stroke-opacity:1;stroke-dasharray:none"
     d="m 200.84206,96.108475 0,-26.033899 -27.66102,0 -27.66101,0 0,-3.79661 0,-3.79661 32,0 32,0 0,29.830508 0,29.830506 -4.33899,0 -4.33898,0 0,-26.033895 z"
     id="path4071"
     inkscape:connector-curvature="0" />
</svg>
