<?xml version="1.0" encoding="UTF-8" standalone="no"?>
<svg
   xmlns:dc="http://purl.org/dc/elements/1.1/"
   xmlns:cc="http://creativecommons.org/ns#"
   xmlns:rdf="http://www.w3.org/1999/02/22-rdf-syntax-ns#"
   xmlns:svg="http://www.w3.org/2000/svg"
   xmlns="http://www.w3.org/2000/svg"
   xmlns:sodipodi="http://sodipodi.sourceforge.net/DTD/sodipodi-0.dtd"
   xmlns:inkscape="http://www.inkscape.org/namespaces/inkscape"
   viewBox="0 0 256 256"
   id="svg2"
   version="1.1"
   inkscape:version="0.48.4 r9939"
   width="100%"
   height="100%"
   sodipodi:docname="labplot-zoom-in-y.svg">
  <metadata
     id="metadata16">
    <rdf:RDF>
      <cc:Work
         rdf:about="">
        <dc:format>image/svg+xml</dc:format>
        <dc:type
           rdf:resource="http://purl.org/dc/dcmitype/StillImage" />
        <dc:title></dc:title>
      </cc:Work>
    </rdf:RDF>
  </metadata>
  <sodipodi:namedview
     pagecolor="#ffffff"
     bordercolor="#666666"
     borderopacity="1"
     objecttolerance="10"
     gridtolerance="10"
     guidetolerance="10"
     inkscape:pageopacity="0"
     inkscape:pageshadow="2"
     inkscape:window-width="698"
     inkscape:window-height="768"
     id="namedview14"
     showgrid="false"
     inkscape:zoom="0.921875"
     inkscape:cx="122.52342"
     inkscape:cy="128"
     inkscape:window-x="580"
     inkscape:window-y="25"
     inkscape:window-maximized="0"
     inkscape:current-layer="svg2" />
  <defs
     id="defs4">
    <clipPath
       id="clipPath6">
      <path
         d="M 0,64 H64 V128 H0 z"
         id="path8" />
    </clipPath>
    <style
       id="current-color-scheme"
       type="text/css">
      .ColorScheme-Text {
        color:#4d4d4d;
      }
      .ColorScheme-Background {
        color:#eff0f1;
      }
      .ColorScheme-Highlight {
        color:#3daee9;
      }
      .ColorScheme-ViewText {
        color:#31363b;
      }
      .ColorScheme-ViewBackground {
        color:#fcfcfc;
      }
      .ColorScheme-ViewHover {
        color:#93cee9;
      }
      .ColorScheme-ViewFocus{
        color:#3daee9;
      }
      .ColorScheme-ButtonText {
        color:#31363b;
      }
      .ColorScheme-ButtonBackground {
        color:#eff0f1;
      }
      .ColorScheme-ButtonHover {
        color:#93cee9;
      }
      .ColorScheme-ButtonFocus{
        color:#3daee9;
      }
      </style>
  </defs>
  <g
     style="color:#000000"
     id="g10"
     transform="matrix(0,1,1,0,0.01112179,-0.01112446)">
    <path
       d="m -1360.14,1641.33 c 46.11,-98.28 -119.59,-146.07 -181.85,-106.06 -62.25,40.01 -83.52,108.58 -13.01,143.08 70.51,34.501 148.75,61.26 194.86,-37.03 z"
       transform="matrix(1.03665,0,0,-1.35742,1657.71,2320.79)"
       style="fill:#9acd32"
       id="path12"
       inkscape:connector-curvature="0" />
  </g>
  <g
     transform="matrix(8.7288136,0,0,8.8644068,-4690.9539,-6578.513)"
     id="layer1"
     inkscape:label="Capa 1">
    <path
       inkscape:connector-curvature="0"
       id="path4153"
       d="m 544.57141,748.93359 0,2 1,0 0,-1 1,0 0,-1 -2,0 z m 5,0 0,1 2,0 0,-1 -2,0 z m 8.17188,0.66992 -0.70704,0.70703 1.6211,1.62305 -4.65625,0 0,1 4.65625,0 -1.6211,1.62109 0.70704,0.70703 2.12109,-2.12109 0.70703,-0.70703 -2.82812,-2.83008 z m -13.17188,4.33008 0,2 1,0 0,-2 -1,0 z m 15,4 0,2 1,0 0,-2 -1,0 z m -15,1 0,6 6,0 0,-6 -6,0 z m 15,4 0,1 -1,0 0,1 2,0 0,-2 -1,0 z m -6,1 0,1 2,0 0,-1 -2,0 z"
       style="opacity:0.5;fill:#000000;fill-opacity:1;stroke:none" />
  </g>
  <path
     style="fill:#ffffff;fill-opacity:1;fill-rule:evenodd;stroke:#ffffff;stroke-width:5.93789816;stroke-miterlimit:4;stroke-opacity:1;stroke-dasharray:none"
     d="m 63.079348,175.29492 0,-26.0339 25.491525,0 25.491527,0 0,26.0339 0,26.03389 -25.491527,0 -25.491525,0 0,-26.03389 z"
     id="path4130"
     inkscape:connector-curvature="0" />
  <path
     style="fill:#ffffff;fill-opacity:1;fill-rule:evenodd;stroke:#ffffff;stroke-width:5.93789816;stroke-miterlimit:4;stroke-opacity:1;stroke-dasharray:none"
     d="m 63.079348,113.46441 0,-8.67797 3.79661,0 3.79661,0 0,8.67797 0,8.67796 -3.79661,0 -3.79661,0 0,-8.67796 z"
     id="path4132"
     inkscape:connector-curvature="0" />
  <path
     style="fill:#ffffff;fill-opacity:1;fill-rule:evenodd;stroke:#ffffff;stroke-width:5.93789816;stroke-miterlimit:4;stroke-opacity:1;stroke-dasharray:none"
     d="m 63.079348,69.532203 0,-8.135593 8.135593,0 8.135593,0 0,3.79661 c 0,3.706215 -0.103309,3.796611 -4.338983,3.796611 -4.338983,0 -4.338983,0 -4.338983,4.338983 0,4.235674 -0.0904,4.338983 -3.79661,4.338983 l -3.79661,0 0,-8.135594 z"
     id="path4134"
     inkscape:connector-curvature="0" />
  <path
     style="fill:#ffffff;fill-opacity:1;fill-rule:evenodd;stroke:#ffffff;stroke-width:5.93789816;stroke-miterlimit:4;stroke-opacity:1;stroke-dasharray:none"
     d="m 106.46918,65.19322 0,-3.79661 8.13559,0 8.13559,0 0,3.79661 0,3.796611 -8.13559,0 -8.13559,0 0,-3.796611 z"
     id="path4136"
     inkscape:connector-curvature="0" />
  <path
     style="fill:#ffffff;fill-opacity:1;fill-rule:evenodd;stroke:#ffffff;stroke-width:5.93789816;stroke-miterlimit:4;stroke-opacity:1;stroke-dasharray:none"
     d="m 174.82031,112.93496 -2.60922,-2.77738 6.72227,-6.78255 c 3.69724,-3.730405 6.72226,-7.135521 6.72226,-7.566927 0,-0.431406 -9.03051,-0.784374 -20.0678,-0.784374 l -20.06779,0 0,-3.79661 0,-3.796611 20.06779,0 c 11.03729,0 20.0678,-0.352968 20.0678,-0.784374 0,-0.431405 -3.03824,-3.849864 -6.75165,-7.596576 l -6.75165,-6.812203 2.7788,-2.778804 2.7788,-2.778804 11.76335,12.612754 11.76335,12.612753 -11.90355,11.903546 -11.90355,11.90355 -2.60921,-2.77739 z"
     id="path4138"
     inkscape:connector-curvature="0" />
  <path
     style="fill:#ffffff;fill-opacity:1;fill-rule:evenodd;stroke:#ffffff;stroke-width:5.93789816;stroke-miterlimit:4;stroke-opacity:1;stroke-dasharray:none"
     d="m 194.33359,148.71864 0,-8.13559 3.79661,0 3.79661,0 0,8.13559 0,8.1356 -3.79661,0 -3.79661,0 0,-8.1356 z"
     id="path4140"
     inkscape:connector-curvature="0" />
  <path
     style="fill:#ffffff;fill-opacity:1;fill-rule:evenodd;stroke:#ffffff;stroke-width:5.93789816;stroke-miterlimit:4;stroke-opacity:1;stroke-dasharray:none"
     d="m 185.65562,197.5322 c 0,-3.70621 0.10331,-3.79661 4.33898,-3.79661 4.33899,0 4.33899,0 4.33899,-4.33898 0,-4.23567 0.0904,-4.33898 3.79661,-4.33898 l 3.79661,0 0,8.13559 0,8.13559 -8.1356,0 -8.13559,0 0,-3.79661 z"
     id="path4142"
     inkscape:connector-curvature="0" />
  <path
     style="fill:#ffffff;fill-opacity:1;fill-rule:evenodd;stroke:#ffffff;stroke-width:5.93789816;stroke-miterlimit:4;stroke-opacity:1;stroke-dasharray:none"
     d="m 141.18104,197.5322 0,-3.79661 8.67797,0 8.67797,0 0,3.79661 0,3.79661 -8.67797,0 -8.67797,0 0,-3.79661 z"
     id="path4144"
     inkscape:connector-curvature="0" />
</svg>
