<?xml version="1.0" encoding="UTF-8" standalone="no"?>
<svg
   xmlns:dc="http://purl.org/dc/elements/1.1/"
   xmlns:cc="http://creativecommons.org/ns#"
   xmlns:rdf="http://www.w3.org/1999/02/22-rdf-syntax-ns#"
   xmlns:svg="http://www.w3.org/2000/svg"
   xmlns="http://www.w3.org/2000/svg"
   xmlns:sodipodi="http://sodipodi.sourceforge.net/DTD/sodipodi-0.dtd"
   xmlns:inkscape="http://www.inkscape.org/namespaces/inkscape"
   sodipodi:docname="labplot-shift-right-x.svg"
   height="100%"
   width="100%"
   inkscape:version="0.48.4 r9939"
   version="1.1"
   id="svg2"
   viewBox="0 0 256 256">
  <metadata
     id="metadata10">
    <rdf:RDF>
      <cc:Work
         rdf:about="">
        <dc:format>image/svg+xml</dc:format>
        <dc:type
           rdf:resource="http://purl.org/dc/dcmitype/StillImage" />
        <dc:title></dc:title>
      </cc:Work>
    </rdf:RDF>
  </metadata>
  <defs
     id="defs8">
    <style
       type="text/css"
       id="current-color-scheme">.ColorScheme-Text {
        color:#4d4d4d;
      }
      .ColorScheme-Background {
        color:#eff0f1;
      }
      .ColorScheme-Highlight {
        color:#3daee9;
      }
      .ColorScheme-ViewText {
        color:#31363b;
      }
      .ColorScheme-ViewBackground {
        color:#fcfcfc;
      }
      .ColorScheme-ViewHover {
        color:#93cee9;
      }
      .ColorScheme-ViewFocus{
        color:#3daee9;
      }
      .ColorScheme-ButtonText {
        color:#31363b;
      }
      .ColorScheme-ButtonBackground {
        color:#eff0f1;
      }
      .ColorScheme-ButtonHover {
        color:#93cee9;
      }
      .ColorScheme-ButtonFocus{
        color:#3daee9;
      }</style>
  </defs>
  <sodipodi:namedview
     pagecolor="#ffffff"
     bordercolor="#666666"
     borderopacity="1"
     objecttolerance="10"
     gridtolerance="10"
     guidetolerance="10"
     inkscape:pageopacity="0"
     inkscape:pageshadow="2"
     inkscape:window-width="698"
     inkscape:window-height="774"
     id="namedview6"
     showgrid="false"
     inkscape:zoom="0.98901497"
     inkscape:cx="129.94642"
     inkscape:cy="127.17624"
     inkscape:window-x="580"
     inkscape:window-y="25"
     inkscape:window-maximized="0"
     inkscape:current-layer="svg2" />
  <path
     d="M 233.98,53.62 C 185.439,-34.52 33.35,-0.311 7.6199996,72.26 -23.04,158.71 56.76,322.89 191.92,226.71 c 45.527,-33.585 90.6,-84.949 42.05,-173.09 z"
     style="color:#000000;fill:#9acd32"
     id="path4"
     inkscape:connector-curvature="0" />
  <g
     transform="matrix(13.436617,0,0,10.163158,-7389.378,-5941.5409)"
     id="layer1">
    <path
       class="ColorScheme-Text"
       d="m 558.72,589.12 -2,4 h 4 l -2,-4 z m 4,6 v 4 l 4,-2 -4,-2 z m -4,1 c -0.554,0 -1,0.446 -1,1 0,0.554 0.446,1 1,1 0.554,0 1,-0.446 1,-1 0,-0.554 -0.446,-1 -1,-1 z m -2,5 2,4 2,-4 h -4 z"
       style="opacity:0.5;color:#4d4d4d"
       id="rect4148-2"
       inkscape:connector-curvature="0" />
  </g>
  <path
     style="fill:#ffffff;fill-opacity:1;fill-rule:evenodd;stroke:#ffffff;stroke-width:5.53480005;stroke-miterlimit:4;stroke-opacity:1;stroke-dasharray:none"
     d="M 105.15424,188.08392 C 98.14808,177.3932 92.60233,168.4597 92.83033,168.23169 c 0.22801,-0.228 11.76364,-0.29285 25.63474,-0.1441 l 25.22018,0.27045 -12.89628,19.58177 -12.89627,19.58177 -12.73846,-19.43766 z"
     id="path3809"
     inkscape:connector-curvature="0" />
  <path
     style="fill:#ffffff;fill-opacity:1;fill-rule:evenodd;stroke:#ffffff;stroke-width:5.53480005;stroke-miterlimit:4;stroke-opacity:1;stroke-dasharray:none"
     d="m 110.49532,134.9254 c -3.33442,-1.80924 -6.16324,-6.8858 -5.31907,-9.54553 0.98199,-3.09399 6.17206,-6.8266 10.5116,-7.55976 5.11312,-0.86386 12.14154,2.06376 14.19134,5.91127 4.41772,8.29215 -9.70304,16.44677 -19.38387,11.19402 z"
     id="path3811"
     inkscape:connector-curvature="0" />
  <path
     style="fill:#ffffff;fill-opacity:1;fill-rule:evenodd;stroke:#ffffff;stroke-width:5.53480005;stroke-miterlimit:4;stroke-opacity:1;stroke-dasharray:none"
     d="m 92.70398,85.059233 c 0.74801,-1.98321 24.65004,-37.484446 25.25155,-37.505645 0.62202,-0.02192 25.13529,36.970459 25.13529,37.931059 0,0.257495 -11.41288,0.468174 -25.36194,0.468174 -14.26448,0 -25.21446,-0.391002 -25.0249,-0.893588 z"
     id="path3813"
     inkscape:connector-curvature="0" />
  <path
     style="fill:#ffffff;fill-opacity:1;fill-rule:evenodd;stroke:#ffffff;stroke-width:5.53480005;stroke-miterlimit:4;stroke-opacity:1;stroke-dasharray:none"
     d="m 172.41292,127.39952 c 0,-10.56129 0.38329,-19.20234 0.85176,-19.20234 0.46847,0 12.09954,4.25618 25.84683,9.45819 l 24.99507,9.45819 -19.02186,7.14902 c -10.46202,3.93195 -22.09309,8.31682 -25.84683,9.74415 l -6.82497,2.59514 0,-19.20235 z"
     id="path3815"
     inkscape:connector-curvature="0" />
</svg>
