<?xml version="1.0" encoding="UTF-8" standalone="no"?>
<svg
   xmlns:dc="http://purl.org/dc/elements/1.1/"
   xmlns:cc="http://creativecommons.org/ns#"
   xmlns:rdf="http://www.w3.org/1999/02/22-rdf-syntax-ns#"
   xmlns:svg="http://www.w3.org/2000/svg"
   xmlns="http://www.w3.org/2000/svg"
   xmlns:sodipodi="http://sodipodi.sourceforge.net/DTD/sodipodi-0.dtd"
   xmlns:inkscape="http://www.inkscape.org/namespaces/inkscape"
   viewBox="0 0 256 256"
   id="svg2"
   version="1.1"
   inkscape:version="0.48.4 r9939"
   width="100%"
   height="100%"
   sodipodi:docname="filename-and-amarok.svg">
  <metadata
     id="metadata16">
    <rdf:RDF>
      <cc:Work
         rdf:about="">
        <dc:format>image/svg+xml</dc:format>
        <dc:type
           rdf:resource="http://purl.org/dc/dcmitype/StillImage" />
        <dc:title></dc:title>
      </cc:Work>
    </rdf:RDF>
  </metadata>
  <sodipodi:namedview
     pagecolor="#ffffff"
     bordercolor="#666666"
     borderopacity="1"
     objecttolerance="10"
     gridtolerance="10"
     guidetolerance="10"
     inkscape:pageopacity="0"
     inkscape:pageshadow="2"
     inkscape:window-width="698"
     inkscape:window-height="768"
     id="namedview14"
     showgrid="false"
     inkscape:zoom="0.921875"
     inkscape:cx="122.52342"
     inkscape:cy="128"
     inkscape:window-x="580"
     inkscape:window-y="25"
     inkscape:window-maximized="0"
     inkscape:current-layer="svg2" />
  <defs
     id="defs4">
    <clipPath
       id="clipPath6">
      <path
         d="M 0,64 H64 V128 H0 z"
         id="path8" />
    </clipPath>
    <style
       id="current-color-scheme"
       type="text/css">
      .ColorScheme-Text {
        color:#4d4d4d;
      }
      .ColorScheme-Background {
        color:#eff0f1;
      }
      .ColorScheme-Highlight {
        color:#3daee9;
      }
      .ColorScheme-ViewText {
        color:#31363b;
      }
      .ColorScheme-ViewBackground {
        color:#fcfcfc;
      }
      .ColorScheme-ViewHover {
        color:#93cee9;
      }
      .ColorScheme-ViewFocus{
        color:#3daee9;
      }
      .ColorScheme-ButtonText {
        color:#31363b;
      }
      .ColorScheme-ButtonBackground {
        color:#eff0f1;
      }
      .ColorScheme-ButtonHover {
        color:#93cee9;
      }
      .ColorScheme-ButtonFocus{
        color:#3daee9;
      }
      </style>
  </defs>
  <g
     style="color:#000000"
     id="g10"
     transform="matrix(0.99173113,0,0,0.9786083,1.0584763,2.1956843)">
    <path
       d="m -1360.14,1641.33 c 46.11,-98.28 -119.59,-146.07 -181.85,-106.06 -62.25,40.01 -83.52,108.58 -13.01,143.08 70.51,34.501 148.75,61.26 194.86,-37.03 z"
       transform="matrix(1.03665,0,0,-1.35742,1657.71,2320.79)"
       style="fill:#9acd32"
       id="path12"
       inkscape:connector-curvature="0" />
  </g>
  <path
     style="fill:#ffffff;fill-opacity:1;fill-rule:evenodd;stroke:#ffffff;stroke-width:5.61057234;stroke-miterlimit:4;stroke-opacity:1;stroke-dasharray:none"
     d="m 68.753807,129.72843 0,-33.006223 -10.34409,0 -10.34409,0 0,-5.077881 0,-5.077881 25.343019,0 25.34302,0 0,5.077881 0,5.077881 -10.344089,0 -10.344089,0 0,33.006223 0,33.00623 -4.654842,0 -4.654839,0 0,-33.00623 z"
     id="path4294"
     inkscape:connector-curvature="0" />
  <path
     style="fill:#ffffff;fill-opacity:1;fill-rule:evenodd;stroke:#ffffff;stroke-width:5.61057234;stroke-miterlimit:4;stroke-opacity:1;stroke-dasharray:none"
     d="m 94.614032,148.0088 0,-38.0841 25.860218,0 25.86024,0 0,5.07788 0,5.07788 -21.2054,0 -21.20538,0 0,11.17134 0,11.17134 21.20538,0 21.2054,0 0,5.05685 0,5.05685 -20.94679,0.27492 -20.94678,0.27493 -0.29249,11.42523 -0.29247,11.42523 21.23925,0 21.23928,0 0,5.07789 0,5.07787 -25.86024,0 -25.860218,0 0,-38.08411 z"
     id="path4296"
     inkscape:connector-curvature="0" />
  <path
     style="fill:#ffffff;fill-opacity:1;fill-rule:evenodd;stroke:#ffffff;stroke-width:5.744452;stroke-miterlimit:4;stroke-opacity:1;stroke-dasharray:none"
     d="m 160.08706,161.75099 -3.73951,-2.89407 2.0408,-2.9082 c 1.12243,-1.5995 6.38504,-8.54723 11.69467,-15.43939 5.30966,-6.89216 9.86573,-13.0512 10.1246,-13.68676 0.25889,-0.63556 -4.90955,-8.18466 -11.48541,-16.77577 -6.57586,-8.59112 -11.95612,-15.950639 -11.95612,-16.354484 0,-0.403844 1.64522,-1.905495 3.65603,-3.336999 l 3.65603,-2.602735 11.26861,14.648408 c 6.19774,8.05663 11.61094,14.64843 12.02937,14.64843 0.41841,0 5.03453,-5.58876 10.25802,-12.41947 5.22349,-6.830714 10.3475,-13.462873 11.38669,-14.738135 l 1.88945,-2.318659 3.82763,3.136729 3.82763,3.136729 -12.52106,16.163656 -12.52106,16.16366 12.52106,16.16364 12.52106,16.16365 -3.82763,3.13673 -3.82763,3.13673 -1.88945,-2.31865 c -1.03919,-1.27527 -6.1632,-7.90743 -11.38669,-14.73813 -5.22349,-6.83071 -9.85153,-12.41948 -10.28451,-12.41948 -0.43298,0 -5.86915,6.61528 -12.08037,14.7006 -6.21122,8.08533 -11.32679,14.68834 -11.36791,14.67333 -0.0412,-0.0151 -1.75756,-1.32962 -3.8143,-2.92136 z"
     id="path4298"
     inkscape:connector-curvature="0" />
</svg>
