<?xml version="1.0" encoding="UTF-8" standalone="no"?>
<svg
   xmlns:dc="http://purl.org/dc/elements/1.1/"
   xmlns:cc="http://creativecommons.org/ns#"
   xmlns:rdf="http://www.w3.org/1999/02/22-rdf-syntax-ns#"
   xmlns:svg="http://www.w3.org/2000/svg"
   xmlns="http://www.w3.org/2000/svg"
   xmlns:sodipodi="http://sodipodi.sourceforge.net/DTD/sodipodi-0.dtd"
   xmlns:inkscape="http://www.inkscape.org/namespaces/inkscape"
   sodipodi:docname="format-node-symmetric.svg"
   height="100%"
   width="100%"
   inkscape:version="0.48.4 r9939"
   version="1.1"
   id="svg2"
   viewBox="0 0 256 256">
  <metadata
     id="metadata10">
    <rdf:RDF>
      <cc:Work
         rdf:about="">
        <dc:format>image/svg+xml</dc:format>
        <dc:type
           rdf:resource="http://purl.org/dc/dcmitype/StillImage" />
        <dc:title></dc:title>
      </cc:Work>
    </rdf:RDF>
  </metadata>
  <defs
     id="defs8">
    <style
       type="text/css"
       id="current-color-scheme">.ColorScheme-Text {
        color:#4d4d4d;
      }
      .ColorScheme-Background {
        color:#eff0f1;
      }
      .ColorScheme-Highlight {
        color:#3daee9;
      }
      .ColorScheme-ViewText {
        color:#31363b;
      }
      .ColorScheme-ViewBackground {
        color:#fcfcfc;
      }
      .ColorScheme-ViewHover {
        color:#93cee9;
      }
      .ColorScheme-ViewFocus{
        color:#3daee9;
      }
      .ColorScheme-ButtonText {
        color:#31363b;
      }
      .ColorScheme-ButtonBackground {
        color:#eff0f1;
      }
      .ColorScheme-ButtonHover {
        color:#93cee9;
      }
      .ColorScheme-ButtonFocus{
        color:#3daee9;
      }</style>
  </defs>
  <sodipodi:namedview
     pagecolor="#ffffff"
     bordercolor="#666666"
     borderopacity="1"
     objecttolerance="10"
     gridtolerance="10"
     guidetolerance="10"
     inkscape:pageopacity="0"
     inkscape:pageshadow="2"
     inkscape:window-width="698"
     inkscape:window-height="774"
     id="namedview6"
     showgrid="false"
     inkscape:zoom="0.98901497"
     inkscape:cx="129.94642"
     inkscape:cy="127.17624"
     inkscape:window-x="580"
     inkscape:window-y="25"
     inkscape:window-maximized="0"
     inkscape:current-layer="svg2" />
  <path
     d="m 260.02 66.64 c -48.541 -88.14 -200.63 -53.931 -226.36 18.64 -30.66 86.45 49.14 250.63 184.3 154.45 45.527 -33.585 90.6 -84.949 42.05 -173.09 z"
     style="fill:#9acd32;color:#000"
     id="path4"
     transform="translate(-26.04 -13.02)" />
  <g
     transform="matrix(8.7728854,0,0,9.1520506,-3267.9957,-4946.9177)"
     id="layer1">
    <path
       class="ColorScheme-Text"
       d="m 379.86,546.08 v 14 h -1 v 1 h 1 v 1 h 1 v -1 h 14 v -1 h -2 v -2 h -1 v 2 h -3 v -2 h -1 v 2 h -3 v -2 h -1 v 2 h -3 v -14 h -1 z"
       style="opacity:0.5;color:#4d4d4d"
       id="rect3343"
       inkscape:connector-curvature="0" />
  </g>
  <path
     style="fill:#ffffff;fill-opacity:1;fill-rule:evenodd;stroke:#ffffff;stroke-width:5.53480005;stroke-miterlimit:4;stroke-opacity:1;stroke-dasharray:none"
     d="m 65.235572,192.62461 0,-4.54998 -4.549981,0 -4.549982,0 0,-4.54998 0,-4.54998 4.549982,0 4.549981,0 0,-63.69975 0,-63.699739 3.538875,0 3.538875,0 0,63.699739 0,63.69975 13.649945,0 13.649945,0 0,-9.09997 0,-9.09996 4.044428,0 4.04443,0 0,9.09996 0,9.09997 13.64994,0 13.64995,0 0,-9.09997 0,-9.09996 4.04443,0 4.04442,0 0,9.09996 0,9.09997 13.64995,0 13.64994,0 0,-9.09997 0,-9.09996 4.04443,0 4.04443,0 0,9.09996 0,9.09997 8.59441,0 8.59441,0 0,4.54998 0,4.54998 -61.67753,0 -61.677528,0 0,4.54998 c 0,4.52591 -0.01873,4.54998 -3.538875,4.54998 -3.52015,0 -3.538875,-0.0241 -3.538875,-4.54998 z"
     id="path3688"
     inkscape:connector-curvature="0" />
</svg>
