<?xml version="1.0" encoding="UTF-8" standalone="no"?>
<svg
   xmlns:dc="http://purl.org/dc/elements/1.1/"
   xmlns:cc="http://creativecommons.org/ns#"
   xmlns:rdf="http://www.w3.org/1999/02/22-rdf-syntax-ns#"
   xmlns:svg="http://www.w3.org/2000/svg"
   xmlns="http://www.w3.org/2000/svg"
   xmlns:sodipodi="http://sodipodi.sourceforge.net/DTD/sodipodi-0.dtd"
   xmlns:inkscape="http://www.inkscape.org/namespaces/inkscape"
   sodipodi:docname="format-node-corner.svg"
   height="100%"
   width="100%"
   inkscape:version="0.48.4 r9939"
   version="1.1"
   id="svg2"
   viewBox="0 0 256 256">
  <metadata
     id="metadata10">
    <rdf:RDF>
      <cc:Work
         rdf:about="">
        <dc:format>image/svg+xml</dc:format>
        <dc:type
           rdf:resource="http://purl.org/dc/dcmitype/StillImage" />
        <dc:title></dc:title>
      </cc:Work>
    </rdf:RDF>
  </metadata>
  <defs
     id="defs8">
    <style
       type="text/css"
       id="current-color-scheme">.ColorScheme-Text {
        color:#4d4d4d;
      }
      .ColorScheme-Background {
        color:#eff0f1;
      }
      .ColorScheme-Highlight {
        color:#3daee9;
      }
      .ColorScheme-ViewText {
        color:#31363b;
      }
      .ColorScheme-ViewBackground {
        color:#fcfcfc;
      }
      .ColorScheme-ViewHover {
        color:#93cee9;
      }
      .ColorScheme-ViewFocus{
        color:#3daee9;
      }
      .ColorScheme-ButtonText {
        color:#31363b;
      }
      .ColorScheme-ButtonBackground {
        color:#eff0f1;
      }
      .ColorScheme-ButtonHover {
        color:#93cee9;
      }
      .ColorScheme-ButtonFocus{
        color:#3daee9;
      }</style>
  </defs>
  <sodipodi:namedview
     pagecolor="#ffffff"
     bordercolor="#666666"
     borderopacity="1"
     objecttolerance="10"
     gridtolerance="10"
     guidetolerance="10"
     inkscape:pageopacity="0"
     inkscape:pageshadow="2"
     inkscape:window-width="698"
     inkscape:window-height="774"
     id="namedview6"
     showgrid="false"
     inkscape:zoom="0.98901497"
     inkscape:cx="129.94642"
     inkscape:cy="127.17624"
     inkscape:window-x="580"
     inkscape:window-y="25"
     inkscape:window-maximized="0"
     inkscape:current-layer="svg2" />
  <path
     d="m 260.02 66.64 c -48.541 -88.14 -200.63 -53.931 -226.36 18.64 -30.66 86.45 49.14 250.63 184.3 154.45 45.527 -33.585 90.6 -84.949 42.05 -173.09 z"
     style="fill:#9acd32;color:#000"
     id="path4"
     transform="translate(-26.04 -13.02)" />
  <g
     transform="matrix(8.4569284,0,0,9.0255267,-4601.4649,-5484.6454)"
     id="layer1">
    <path
       class="ColorScheme-Text"
       d="m 566.29,613.65 v 2.4062 l -4,3.6719 v 0.92188 1 h -3 v -7 h -1 v 7 h -7 v 1 h 7 v 3.2422 l -3,2.7539 v 0.004 h -4 v 1 h 4 0.38477 l 2.6152,-2.4004 v 2.4004 h 1 v -3.3184 l 4,-3.6719 v -0.01 h 3 v -1 h -3 v -1.4824 l 4,-3.6719 v -0.84567 -2 h -1 z m -7,9 h 2.5312 l -2.5312,2.3242 V 622.65 z"
       style="opacity:0.5;color:#4d4d4d"
       id="rect3343"
       inkscape:connector-curvature="0" />
  </g>
  <path
     style="fill:#ffffff;fill-opacity:1;fill-rule:evenodd;stroke:#ffffff;stroke-width:5.53480005;stroke-miterlimit:4;stroke-opacity:1;stroke-dasharray:none"
     d="m 61.191144,194.14127 0,-4.04442 16.653893,0 16.653891,0 13.173762,-12.76351 13.17377,-12.76352 0,-15.04193 0,-15.04193 -29.827658,0 -29.827658,0 0,-4.04443 0,-4.04443 29.827658,0 29.827658,0 0,-31.344316 0,-31.344318 3.53887,0 3.53888,0 0,31.344318 0,31.344316 13.14439,0 13.14439,0 0,-8.65793 0,-8.65792 17.21285,-16.872528 17.21283,-16.872525 -0.024,-10.363848 -0.024,-10.363847 3.53888,0 3.53887,0 0,12.46505 0,12.46505 -17.18882,16.436723 -17.18882,16.436725 0,6.99252 0,6.99253 13.14439,0 13.14439,0 0,4.04443 0,4.04443 -12.90276,0 -12.90277,0 -16.92489,16.94688 -16.92489,16.94688 0,14.90299 0,14.90299 -3.50576,0 -3.50576,0 -0.28589,-11.37495 -0.28589,-11.37496 -11.681,11.37496 -11.680993,11.37495 -17.893887,0 -17.893886,0 0,-4.04443 z m 88.838106,-58.89698 c 0.0766,-0.41708 -4.86567,-0.75833 -10.98286,-0.75833 l -11.12218,0 0,11.32384 0,11.32385 10.98286,-10.56552 c 6.04058,-5.81103 11.04556,-10.90676 11.12218,-11.32384 z"
     id="path4019"
     inkscape:connector-curvature="0" />
</svg>
