<?xml version="1.0" encoding="UTF-8" standalone="no"?>
<svg
   xmlns:dc="http://purl.org/dc/elements/1.1/"
   xmlns:cc="http://creativecommons.org/ns#"
   xmlns:rdf="http://www.w3.org/1999/02/22-rdf-syntax-ns#"
   xmlns:svg="http://www.w3.org/2000/svg"
   xmlns="http://www.w3.org/2000/svg"
   xmlns:sodipodi="http://sodipodi.sourceforge.net/DTD/sodipodi-0.dtd"
   xmlns:inkscape="http://www.inkscape.org/namespaces/inkscape"
   viewBox="0 0 256 256"
   id="svg2"
   version="1.1"
   inkscape:version="0.48.4 r9939"
   width="100%"
   height="100%"
   sodipodi:docname="depth16to8.svg">
  <metadata
     id="metadata16">
    <rdf:RDF>
      <cc:Work
         rdf:about="">
        <dc:format>image/svg+xml</dc:format>
        <dc:type
           rdf:resource="http://purl.org/dc/dcmitype/StillImage" />
        <dc:title></dc:title>
      </cc:Work>
    </rdf:RDF>
  </metadata>
  <sodipodi:namedview
     pagecolor="#ffffff"
     bordercolor="#666666"
     borderopacity="1"
     objecttolerance="10"
     gridtolerance="10"
     guidetolerance="10"
     inkscape:pageopacity="0"
     inkscape:pageshadow="2"
     inkscape:window-width="698"
     inkscape:window-height="768"
     id="namedview14"
     showgrid="false"
     inkscape:zoom="0.921875"
     inkscape:cx="122.52342"
     inkscape:cy="128"
     inkscape:window-x="580"
     inkscape:window-y="25"
     inkscape:window-maximized="0"
     inkscape:current-layer="svg2" />
  <defs
     id="defs4">
    <clipPath
       id="clipPath6">
      <path
         d="M 0,64 H64 V128 H0 z"
         id="path8" />
    </clipPath>
    <style
       type="text/css"
       id="current-color-scheme">.ColorScheme-Text {
        color:#4d4d4d;
      }
      .ColorScheme-Background {
        color:#eff0f1;
      }
      .ColorScheme-Highlight {
        color:#3daee9;
      }
      .ColorScheme-ViewText {
        color:#31363b;
      }
      .ColorScheme-ViewBackground {
        color:#fcfcfc;
      }
      .ColorScheme-ViewHover {
        color:#93cee9;
      }
      .ColorScheme-ViewFocus{
        color:#3daee9;
      }
      .ColorScheme-ButtonText {
        color:#31363b;
      }
      .ColorScheme-ButtonBackground {
        color:#eff0f1;
      }
      .ColorScheme-ButtonHover {
        color:#93cee9;
      }
      .ColorScheme-ButtonFocus{
        color:#3daee9;
      }</style>
  </defs>
  <g
     style="color:#000000"
     id="g10"
     transform="matrix(1,0,0,-1,0,255.99239)">
    <path
       d="m -1360.14,1641.33 c 46.11,-98.28 -119.59,-146.07 -181.85,-106.06 -62.25,40.01 -83.52,108.58 -13.01,143.08 70.51,34.501 148.75,61.26 194.86,-37.03 z"
       transform="matrix(1.03665,0,0,-1.35742,1657.71,2320.79)"
       style="fill:#9acd32"
       id="path12"
       inkscape:connector-curvature="0" />
  </g>
  <g
     transform="matrix(11.372901,0,0,8.2832617,-6154.6964,-6149.4812)"
     id="layer1">
    <g
       transform="translate(0,-0.53516)"
       id="g3845">
      <g
         transform="translate(0,3)"
         id="g3984">
        <path
           d="m 552.57,747.47 c -0.93056,0 -1.7296,0.49541 -2.4453,1.1445 -0.71569,0.6491 -1.3779,1.4764 -2.0606,2.2832 -0.84454,1.167 -2.9986,2.7375 -3.4941,3.002 v 0.0703 1 c 1.272,0 1.3661,0.79186 2.3984,1.8516 0.0397,0.11742 0.0763,0.23816 0.12695,0.3418 0.0753,0.15404 0.13895,0.32965 0.42383,0.45118 l 0.11914,0.0508 0.0801,-0.008 c 0.11398,0.13108 0.23038,0.2508 0.34375,0.38477 0.68268,0.80678 1.3468,1.6341 2.0625,2.2832 0.71569,0.6491 1.5148,1.1445 2.4453,1.1445 0.93055,0 1.7296,-0.49542 2.4453,-1.1446 0.71569,-0.64909 1.3779,-1.4764 2.0606,-2.2832 1.3654,-1.6136 1.765,-3.0723 3.4941,-3.0723 v -1 c -0.78416,0 -0.49768,-0.3107 -1.1738,-0.78906 -0.0989,-0.0875 -0.20044,-0.1734 -0.29492,-0.26563 -0.2881,-0.2812 -0.55342,-0.56271 -0.78906,-0.78711 -0.11781,-0.11219 -0.22544,-0.21022 -0.34571,-0.29492 -0.0327,-0.0231 -0.0759,-0.0441 -0.11523,-0.0664 -0.26004,-0.28276 -0.51969,-0.56694 -0.77539,-0.86914 -0.68268,-0.80679 -1.3449,-1.6341 -2.0606,-2.2832 -0.71569,-0.6491 -1.5148,-1.1445 -2.4453,-1.1445 z m 0,1 c 0.56944,0 1.1454,0.31709 1.7734,0.88671 0.62806,0.56965 1.2784,1.3674 1.9707,2.1856 0.12133,0.14338 0.25591,0.28522 0.38086,0.42967 -0.0592,0.0497 -0.11612,0.10182 -0.16602,0.15822 -0.23429,0.26477 -0.41434,0.59335 -0.58007,0.9707 -0.33145,0.75472 -0.59715,1.71 -0.83594,2.664 -0.23878,0.95401 -0.44806,1.9043 -0.63867,2.5996 -0.0418,0.15233 -0.0757,0.22764 -0.11524,0.35156 -0.0935,-0.24922 -0.18738,-0.49638 -0.29297,-0.86718 -0.28929,-1.0158 -0.60343,-2.3978 -0.91015,-3.7793 -0.30671,-1.3815 -0.60635,-2.7635 -0.875,-3.8125 -0.13432,-0.5245 -0.25868,-0.96257 -0.38281,-1.2949 -0.0407,-0.10878 -0.0875,-0.19449 -0.13282,-0.28516 0.2724,-0.13082 0.53971,-0.20703 0.80469,-0.20703 z m -1.5644,0.9922 c 0.0914,0.26477 0.19285,0.59864 0.30664,1.043 0.26045,1.0169 0.55973,2.3964 0.86719,3.7812 0.30745,1.3849 0.62358,2.7748 0.92578,3.8359 0.1511,0.53058 0.29567,0.97578 0.44922,1.3203 0.0768,0.17227 0.1523,0.31938 0.25781,0.45507 0.0169,0.0217 0.0482,0.0433 0.0684,0.0664 -0.45279,0.32842 -0.8842,0.50586 -1.3106,0.50586 -0.56945,0 -1.1454,-0.31709 -1.7734,-0.88672 -0.62806,-0.56965 -1.2784,-1.3673 -1.9707,-2.1856 -0.0629,-0.0743 -0.13348,-0.14791 -0.19727,-0.22265 0.0423,-0.0461 0.0854,-0.0914 0.12305,-0.14063 0.23728,-0.31073 0.41346,-0.68917 0.57227,-1.1191 0.31763,-0.85991 0.54953,-1.93 0.76757,-2.9824 0.21804,-1.0524 0.42147,-2.0879 0.64649,-2.8223 0.0894,-0.29175 0.18207,-0.48202 0.26758,-0.64842 z m -1.4395,1.2109 c -0.1562,0.64684 -0.30415,1.3376 -0.45312,2.0566 -0.21639,1.0444 -0.44872,2.0857 -0.72656,2.8379 -0.13747,0.37216 -0.28812,0.67108 -0.42578,0.85352 -0.0415,-0.0452 -0.0791,-0.0919 -0.1211,-0.13672 -0.0929,-0.31393 -0.18998,-0.71182 -0.29687,-1.125 -0.11434,-0.44195 -0.23417,-0.88506 -0.39258,-1.2539 -0.0587,-0.1368 -0.12675,-0.26121 -0.20899,-0.38086 0.68684,-0.59577 1.3064,-1.2988 1.8848,-1.9824 0.25377,-0.29993 0.49678,-0.58496 0.74023,-0.86915 z m 7.7969,2.0547 c 0.43884,0.46267 0.90762,0.89137 1.4121,1.2539 0.21311,0.1967 0.43639,0.38546 0.67969,0.55273 -1.2245,0.65712 -2.2334,1.7888 -3.1426,2.8633 -0.27556,0.32567 -0.53961,0.63728 -0.80274,0.94336 0.1814,-0.69548 0.36589,-1.4997 0.57422,-2.332 0.23414,-0.93546 0.49757,-1.8599 0.78125,-2.5059 0.14184,-0.32296 0.29161,-0.57475 0.41211,-0.71093 0.058,-0.0656 0.0643,-0.0536 0.0859,-0.0645 z m -11.209,1.4316 c 0.0263,0.0445 0.0461,0.0661 0.0781,0.14063 0.0737,0.17156 0.14815,0.45797 0.22266,0.71875 -0.28648,-0.21251 -0.58905,-0.39177 -0.90235,-0.54883 0.14433,-0.0724 0.28934,-0.14332 0.42774,-0.22852 0.0587,-0.0298 0.11496,-0.0495 0.17382,-0.082 z"
           style="text-indent:0;text-transform:none;block-progression:tb;opacity:0.5;color:#4d4d4d"
           id="path4725"
           inkscape:connector-curvature="0" />
        <g
           id="g3012" />
      </g>
    </g>
  </g>
  <path
     style="fill:#ffffff;fill-opacity:1;fill-rule:evenodd;stroke:#ffffff;stroke-width:5.93789816;stroke-miterlimit:4;stroke-opacity:1;stroke-dasharray:none"
     d="m 117.85901,176.00344 c -10.10736,-3.35497 -18.469364,-8.9558 -38.578287,-25.83958 -2.723141,-2.28639 -5.475217,-4.15708 -6.115724,-4.15708 -0.640507,0 -5.214871,-3.96948 -10.165254,-8.82107 -9.117773,-8.9358 -15.38411,-12.80676 -20.801753,-12.85002 -2.72179,-0.0217 -2.982027,-0.38009 -2.971355,-4.09162 0.0114,-3.96367 0.223812,-4.17887 8.297996,-8.40678 12.209111,-6.3931 25.612957,-15.572761 37.170708,-25.456465 20.664219,-17.671173 31.218149,-23.049271 45.125189,-22.995008 12.97749,0.05064 21.83502,4.220836 39.33918,18.521205 22.49756,18.379838 45.60483,34.811618 48.954,34.811618 1.83479,0 2.25377,0.67772 2.25377,3.64552 0,3.55906 -0.12686,3.66054 -5.34954,4.27909 -8.29641,0.98258 -12.77429,3.93359 -28.36228,18.69125 -17.13275,16.22013 -29.30184,25.65052 -38.94738,30.18213 -5.80667,2.72805 -8.64207,3.35807 -16.27118,3.61541 -5.61563,0.18942 -10.94081,-0.2532 -13.57809,-1.1286 z m 23.03283,-7.93506 c 3.59815,-1.50341 4.43718,-2.94053 2.43807,-4.17604 -3.15652,-1.95084 -8.51748,-16.35229 -23.31462,-62.63132 -3.95824,-12.379664 -7.54388,-22.508478 -7.96809,-22.508478 -1.78901,0 -4.72997,7.224805 -9.75399,23.961798 -6.592552,21.96235 -10.076531,30.6499 -14.498033,36.15186 l -3.423625,4.26025 4.811525,4.2309 c 8.30766,7.30514 20.897313,16.67719 25.676033,19.11386 8.90473,4.54052 17.69723,5.07997 26.03273,1.59717 l 0,0 z m 15.46019,-28.84126 c 6.70429,-19.49213 11.83813,-30.25774 16.98684,-35.62122 l 3.73655,-3.892411 -6.82854,-5.950678 c -20.66938,-18.01216 -29.71089,-23.089434 -41.17883,-23.12404 -3.9774,-0.012 -7.57671,0.323251 -7.99847,0.745006 -0.42175,0.421756 0.55587,4.070877 2.17251,8.109158 1.61663,4.03828 6.06873,17.361004 9.89356,29.606055 8.09278,25.90879 15.52248,46.6705 16.70131,46.6705 0.45393,0 3.38572,-7.44407 6.51507,-16.54237 z m 17.69793,4.79163 c 11.61165,-9.76282 20.46601,-15.95764 28.92155,-20.2345 l 5.92607,-2.99744 -4.10837,-2.30527 c -2.2596,-1.2679 -7.8042,-4.69861 -12.32134,-7.6238 -9.68448,-6.27144 -10.10234,-6.17247 -15.34979,3.63585 -3.28091,6.13253 -14.24212,34.65199 -14.24212,37.05588 0,1.713 0.90598,1.10242 11.174,-7.53072 l 0,0 z M 80.166875,133.7248 c 3.622541,-5.32115 16.627881,-43.313346 15.286151,-44.655077 -0.21552,-0.215519 -3.316578,2.05726 -6.891241,5.05062 -4.99098,4.17936 -20.459408,16.123657 -23.165494,17.887757 -0.217206,0.14159 0.646345,1.94225 1.919002,4.00145 1.272658,2.05921 3.229387,6.35607 4.348289,9.54859 4.766021,13.59869 4.789746,13.62148 8.503293,8.16666 z M 59.330263,121.87119 c -1.663994,-3.97751 -4.453443,-4.91055 -7.648618,-2.55837 -2.069773,1.5237 -1.954211,1.68574 2.719737,3.81373 6.430118,2.92754 6.654857,2.8703 4.928881,-1.25536 z"
     id="path4569"
     inkscape:connector-curvature="0" />
</svg>
