<?xml version="1.0" encoding="UTF-8" standalone="no"?>
<svg
   xmlns:dc="http://purl.org/dc/elements/1.1/"
   xmlns:cc="http://creativecommons.org/ns#"
   xmlns:rdf="http://www.w3.org/1999/02/22-rdf-syntax-ns#"
   xmlns:svg="http://www.w3.org/2000/svg"
   xmlns="http://www.w3.org/2000/svg"
   xmlns:sodipodi="http://sodipodi.sourceforge.net/DTD/sodipodi-0.dtd"
   xmlns:inkscape="http://www.inkscape.org/namespaces/inkscape"
   viewBox="0 0 256 256"
   id="svg2"
   version="1.1"
   inkscape:version="0.48.4 r9939"
   width="100%"
   height="100%"
   sodipodi:docname="labplot-xy-plot-four-axes.svg">
  <metadata
     id="metadata10">
    <rdf:RDF>
      <cc:Work
         rdf:about="">
        <dc:format>image/svg+xml</dc:format>
        <dc:type
           rdf:resource="http://purl.org/dc/dcmitype/StillImage" />
      </cc:Work>
    </rdf:RDF>
  </metadata>
  <defs
     id="defs8">
    <style
       type="text/css"
       id="current-color-scheme">.ColorScheme-Text {
        color:#4d4d4d;
      }
      .ColorScheme-Background {
        color:#eff0f1;
      }
      .ColorScheme-Highlight {
        color:#3daee9;
      }
      .ColorScheme-ViewText {
        color:#31363b;
      }
      .ColorScheme-ViewBackground {
        color:#fcfcfc;
      }
      .ColorScheme-ViewHover {
        color:#93cee9;
      }
      .ColorScheme-ViewFocus{
        color:#3daee9;
      }
      .ColorScheme-ButtonText {
        color:#31363b;
      }
      .ColorScheme-ButtonBackground {
        color:#eff0f1;
      }
      .ColorScheme-ButtonHover {
        color:#93cee9;
      }
      .ColorScheme-ButtonFocus{
        color:#3daee9;
      }</style>
  </defs>
  <sodipodi:namedview
     pagecolor="#ffffff"
     bordercolor="#666666"
     borderopacity="1"
     objecttolerance="10"
     gridtolerance="10"
     guidetolerance="10"
     inkscape:pageopacity="0"
     inkscape:pageshadow="2"
     inkscape:window-width="698"
     inkscape:window-height="774"
     id="namedview6"
     showgrid="false"
     inkscape:zoom="0.98901497"
     inkscape:cx="129.94642"
     inkscape:cy="127.17624"
     inkscape:window-x="580"
     inkscape:window-y="25"
     inkscape:window-maximized="0"
     inkscape:current-layer="svg2" />
  <path
     d="m 22.010841,53.619998 c 48.541,-88.14 200.629999,-53.93100051 226.359999,18.64 C 279.03084,158.71 199.23084,322.89 64.070841,226.71 c -45.527,-33.585 -90.6,-84.949 -42.05,-173.090002 z"
     style="color:#000000;fill:#9acd32"
     id="path4"
     inkscape:connector-curvature="0" />
  <path
     style="fill:#ffffff;fill-opacity:1;fill-rule:evenodd;stroke:#ffffff;stroke-width:5.53480005;stroke-miterlimit:4;stroke-opacity:1;stroke-dasharray:none"
     d="m 68.268894,129.43042 0,-62.688633 61.677526,0 61.67753,0 0,62.688633 0,62.68864 -61.67753,0 -61.677526,0 0,-62.68864 z m 106.166236,54.83359 c 0,-0.42752 -4.54922,-5.30946 -10.10938,-10.84876 l -10.10939,-10.07145 -8.37673,8.33321 -8.37673,8.33322 -16.98108,-17.7066 -16.98109,-17.70661 -14.077046,0 -14.077041,0 0,20.22215 0,20.22214 49.544247,0 c 27.24933,0 49.54424,-0.34979 49.54424,-0.7773 z m 10.11107,-55.57928 0,-54.334356 -15.16175,15.136476 -15.16174,15.13646 -8.42903,-8.38523 -8.42903,-8.38525 -15.76649,16.23881 -15.76648,16.23882 -15.242521,0 -15.242516,0 0,8.59441 0,8.59441 14.925681,0 14.925676,0 16.1494,16.17308 16.14939,16.17309 8.4019,-8.33701 8.4019,-8.33701 14.24928,14.91383 c 7.83711,8.20261 14.64238,14.91383 15.12282,14.91383 0.48043,0 0.87351,-24.45046 0.87351,-54.33436 z m -64.39815,-32.36806 18.02759,-17.947152 7.95992,8.594412 c 4.89079,5.28063 8.28854,8.20455 8.81218,7.5833 0.46874,-0.55611 5.12898,-5.44734 10.35609,-10.8694 l 9.50384,-9.858294 -49.73052,0 -49.730507,0 0,20.222144 0,20.22213 13.386915,0 13.386912,0 18.02758,-17.94714 z"
     id="path5372"
     inkscape:connector-curvature="0" />
</svg>
