<?xml version="1.0" encoding="UTF-8" standalone="no"?>
<svg
   xmlns:dc="http://purl.org/dc/elements/1.1/"
   xmlns:cc="http://creativecommons.org/ns#"
   xmlns:rdf="http://www.w3.org/1999/02/22-rdf-syntax-ns#"
   xmlns:svg="http://www.w3.org/2000/svg"
   xmlns="http://www.w3.org/2000/svg"
   xmlns:sodipodi="http://sodipodi.sourceforge.net/DTD/sodipodi-0.dtd"
   xmlns:inkscape="http://www.inkscape.org/namespaces/inkscape"
   viewBox="0 0 256 256"
   id="svg2"
   version="1.1"
   inkscape:version="0.48.4 r9939"
   width="100%"
   height="100%"
   sodipodi:docname="labplot-xy-equation-curve.svg">
  <metadata
     id="metadata16">
    <rdf:RDF>
      <cc:Work
         rdf:about="">
        <dc:format>image/svg+xml</dc:format>
        <dc:type
           rdf:resource="http://purl.org/dc/dcmitype/StillImage" />
        <dc:title></dc:title>
      </cc:Work>
    </rdf:RDF>
  </metadata>
  <sodipodi:namedview
     pagecolor="#ffffff"
     bordercolor="#666666"
     borderopacity="1"
     objecttolerance="10"
     gridtolerance="10"
     guidetolerance="10"
     inkscape:pageopacity="0"
     inkscape:pageshadow="2"
     inkscape:window-width="698"
     inkscape:window-height="768"
     id="namedview14"
     showgrid="false"
     inkscape:zoom="0.921875"
     inkscape:cx="122.52342"
     inkscape:cy="128"
     inkscape:window-x="580"
     inkscape:window-y="25"
     inkscape:window-maximized="0"
     inkscape:current-layer="svg2" />
  <defs
     id="defs4">
    <clipPath
       id="clipPath6">
      <path
         d="M 0,64 H64 V128 H0 z"
         id="path8" />
    </clipPath>
    <style
       id="current-color-scheme"
       type="text/css">
      .ColorScheme-Text {
        color:#4d4d4d;
      }
      .ColorScheme-Background {
        color:#eff0f1;
      }
      .ColorScheme-Highlight {
        color:#3daee9;
      }
      .ColorScheme-ViewText {
        color:#31363b;
      }
      .ColorScheme-ViewBackground {
        color:#fcfcfc;
      }
      .ColorScheme-ViewHover {
        color:#93cee9;
      }
      .ColorScheme-ViewFocus{
        color:#3daee9;
      }
      .ColorScheme-ButtonText {
        color:#31363b;
      }
      .ColorScheme-ButtonBackground {
        color:#eff0f1;
      }
      .ColorScheme-ButtonHover {
        color:#93cee9;
      }
      .ColorScheme-ButtonFocus{
        color:#3daee9;
      }
      </style>
  </defs>
  <g
     style="color:#000"
     id="g10">
    <path
       d="m -1360.14 1641.33 c 46.11 -98.28 -119.59 -146.07 -181.85 -106.06 -62.25 40.01 -83.52 108.58 -13.01 143.08 70.51 34.501 148.75 61.26 194.86 -37.03 z"
       transform="matrix(1.03665 0 0 -1.35742 1657.71 2320.79)"
       style="fill:#9acd32"
       id="path12" />
  </g>
  <g
     transform="matrix(11.169498,0,0,9.7516769,-6048.2842,-7258.6374)"
     id="layer1"
     inkscape:label="Capa 1">
    <g
       transform="translate(0,-0.53516)"
       id="g3845">
      <path
         inkscape:connector-curvature="0"
         id="path5273-9-0"
         d="m 558.35264,752.43746 -0.0312,0.0566 c -0.0743,-0.0124 -0.14905,-0.0254 -0.22656,-0.0254 -0.8178,0 -1.52536,0.72322 -1.52344,1.52344 -9e-4,0.35866 0.14663,0.68804 0.37695,0.94726 l -3.12109,5.55469 c -0.0761,-0.0131 -0.15293,-0.0254 -0.23242,-0.0254 -0.0133,0 -0.0259,0.004 -0.0391,0.004 l -1.54297,-4.33398 c 0.3393,-0.27333 0.55969,-0.68755 0.55859,-1.14648 0.002,-0.80022 -0.65877,-1.52344 -1.47656,-1.52344 -0.8178,0 -1.52536,0.72322 -1.52344,1.52344 -1.5e-4,0.058 0.0105,0.11343 0.0176,0.16992 l -2.48047,1.24023 c -0.26449,-0.26356 -0.61952,-0.43359 -1.01367,-0.43359 -0.8178,0 -1.52536,0.72322 -1.52344,1.52344 -0.002,0.80023 0.70564,1.47656 1.52344,1.47656 0.81779,0 1.47848,-0.67633 1.47656,-1.47656 1.8e-4,-0.0735 -0.0109,-0.14508 -0.0215,-0.2168 l 2.48242,-1.24023 c 0.27487,0.26288 0.64648,0.42733 1.04687,0.43164 l 1.5625,4.36718 c -0.34226,0.2863 -0.57139,0.70736 -0.57031,1.15821 -0.002,0.80023 0.70564,1.47656 1.52344,1.47656 0.81779,0 1.47848,-0.67633 1.47656,-1.47656 9.2e-4,-0.36959 -0.14504,-0.7192 -0.37695,-0.99219 l 3.0957,-5.5 0.58984,4.16992 c -0.4729,0.26781 -0.80991,0.77345 -0.80859,1.32227 -0.002,0.80023 0.70564,1.47656 1.52344,1.47656 0.81779,0 1.47848,-0.67633 1.47656,-1.47656 0.002,-0.70802 -0.51564,-1.35238 -1.20117,-1.49219 l -0.59961,-4.20313 c 0.47546,-0.24905 0.80213,-0.74384 0.80078,-1.30468 0.002,-0.71067 -0.51962,-1.35764 -1.20898,-1.49414 l -0.01,-0.0606 z"
         style="font-size:medium;font-style:normal;font-variant:normal;font-weight:normal;font-stretch:normal;text-indent:0;text-align:start;text-decoration:none;line-height:normal;letter-spacing:normal;word-spacing:normal;text-transform:none;direction:ltr;block-progression:tb;writing-mode:lr-tb;text-anchor:start;baseline-shift:baseline;opacity:0.5;fill:#000000;fill-opacity:1;fill-rule:nonzero;stroke:none;stroke-width:0.41041371;marker:none;visibility:visible;display:inline;overflow:visible;enable-background:accumulate;font-family:Sans;-inkscape-font-specification:Sans" />
    </g>
  </g>
  <path
     style="fill:#ffffff;fill-opacity:1;fill-rule:evenodd;stroke:#ffffff;stroke-width:5.93789816;stroke-miterlimit:4;stroke-opacity:1;stroke-dasharray:none"
     d="m 127.06283,178.27797 c -8.88873,-4.50543 -10.96896,-13.10765 -4.7837,-19.78165 l 2.74426,-2.96111 -6.50031,-15.88286 c -11.18393,-27.32683 -11.15801,-27.27269 -13.05391,-27.27269 -0.98753,0 -3.67623,-0.95885 -5.974897,-2.13077 l -4.179389,-2.13078 -13.948277,6.07848 c -10.820969,4.71565 -13.948276,6.53884 -13.948276,8.13172 0,11.21249 -15.139438,18.14421 -25.561015,11.70332 C 25.640352,124.00899 41.73647,102.60377 59.22055,110.94135 l 3.808026,1.81592 13.855895,-6.00898 c 7.620742,-3.30493 13.916911,-6.56277 13.991487,-7.239645 0.07458,-0.676874 0.19661,-2.264378 0.271187,-3.527788 0.212727,-3.603842 7.743533,-10.420795 12.497215,-11.312592 5.79434,-1.087025 11.78031,1.014091 15.74116,5.525255 4.32886,4.930298 4.52066,10.40275 0.56871,16.22628 l -2.78614,4.1056 8.48106,20.98046 c 7.0607,17.46679 8.84438,20.97778 10.65054,20.96451 1.63161,-0.012 5.8002,-5.68831 16.81356,-22.89484 21.867,-34.163509 20.19207,-30.960857 18.07031,-34.552728 -5.99442,-10.147739 4.62187,-22.495093 17.29688,-20.117249 6.06393,1.137601 12.36162,7.766129 12.36162,13.011024 0,4.869683 -1.43075,7.882234 -5.43611,11.446135 l -3.04777,2.711868 3.42838,20.35049 3.42838,20.35049 4.53548,2.23439 c 7.26038,3.5768 10.23627,10.09695 7.54655,16.53438 -2.89729,6.9342 -10.38921,10.47937 -18.80809,8.89998 -5.58859,-1.04843 -12.25699,-7.81181 -12.25699,-12.43158 0,-4.39132 2.40839,-9.03935 6.06328,-11.70176 l 2.8698,-2.09049 -2.88669,-17.81872 c -3.93653,-24.29914 -3.69712,-23.35729 -5.46836,-21.51342 -0.80584,0.83887 -8.79534,12.9223 -17.75444,26.85207 l -16.28928,25.32685 2.08472,3.41891 c 2.96078,4.85564 2.67091,9.61631 -0.83957,13.78827 -5.57752,6.62851 -12.97901,8.04303 -20.94852,4.00353 l 0,0 z"
     id="path4611"
     inkscape:connector-curvature="0" />
</svg>
