<svg xmlns="http://www.w3.org/2000/svg" viewBox="0 0 256 256"><g style="fill:#9acd32"><path d="m211.1658,833.4916c201.8232,266.3835-353.5855,304.2246-175.3473,32.3068 40.6339-61.9905 121.8924-102.8613 175.3473-32.3068z" transform="translate(0 -796.36218)" style="color:#000"/></g><g style="fill:#fff"><path d="m-56.288-87.6914c-17.7868,0-32.0418,14.7578-32.0418,33.0471 .0399,1.9476 .1722,4.7627 .3408,7.1352-3.0417,1.4222-3.2636,7.9439-.6818,14.6459 1.0238,2.6577 2.3278,4.6983 3.7496,6.3841 .3455,1.8835 .2548,2.7291 .6817,4.882 1.1914,3.9375 5.8884,11.6546 10.2261,18.0257 .4253,4.8929 .8666,9.8306 0,15.397-12.4989,11.4243-44.7018,16.3381-44.6539,28.1651l-.6817,4.5064h126.1218l-.6818-4.5064c-.051-10.1224-32.3083-16.3381-44.6539-28.1651-.4995-4.5274-.5947-9.06-.3408-13.5193 3.9526-6.72 9.24-15.5177 10.567-19.9034 .4768-2.2209 .6505-3.7208 1.0226-5.633 1.1844-1.5806 2.1953-3.3682 3.0678-5.633 2.4528-6.3668 2.2942-12.4448-.3408-14.2703 .1554-2.5653 .2724-5.2949 .3408-7.5107 0-18.2893-14.2549-33.0471-32.0418-33.0471z" transform="translate(184.28799 152.12491)" style="fill:#fff;fill-rule:evenodd"/></g></svg>