<?xml version="1.0" encoding="UTF-8" standalone="no"?>
<svg
   xmlns:dc="http://purl.org/dc/elements/1.1/"
   xmlns:cc="http://creativecommons.org/ns#"
   xmlns:rdf="http://www.w3.org/1999/02/22-rdf-syntax-ns#"
   xmlns:svg="http://www.w3.org/2000/svg"
   xmlns="http://www.w3.org/2000/svg"
   xmlns:sodipodi="http://sodipodi.sourceforge.net/DTD/sodipodi-0.dtd"
   xmlns:inkscape="http://www.inkscape.org/namespaces/inkscape"
   viewBox="0 0 256 256"
   id="svg2"
   version="1.1"
   inkscape:version="0.48.4 r9939"
   width="100%"
   height="100%"
   sodipodi:docname="format-segment-curve.svg">
  <metadata
     id="metadata16">
    <rdf:RDF>
      <cc:Work
         rdf:about="">
        <dc:format>image/svg+xml</dc:format>
        <dc:type
           rdf:resource="http://purl.org/dc/dcmitype/StillImage" />
        <dc:title></dc:title>
      </cc:Work>
    </rdf:RDF>
  </metadata>
  <sodipodi:namedview
     pagecolor="#ffffff"
     bordercolor="#666666"
     borderopacity="1"
     objecttolerance="10"
     gridtolerance="10"
     guidetolerance="10"
     inkscape:pageopacity="0"
     inkscape:pageshadow="2"
     inkscape:window-width="698"
     inkscape:window-height="768"
     id="namedview14"
     showgrid="false"
     inkscape:zoom="0.921875"
     inkscape:cx="122.52342"
     inkscape:cy="128"
     inkscape:window-x="580"
     inkscape:window-y="25"
     inkscape:window-maximized="0"
     inkscape:current-layer="svg2" />
  <defs
     id="defs4">
    <clipPath
       id="clipPath6">
      <path
         d="M 0,64 H64 V128 H0 z"
         id="path8" />
    </clipPath>
    <style
       id="current-color-scheme"
       type="text/css">
      .ColorScheme-Text {
        color:#4d4d4d;
      }
      .ColorScheme-Background {
        color:#eff0f1;
      }
      .ColorScheme-Highlight {
        color:#3daee9;
      }
      .ColorScheme-ViewText {
        color:#31363b;
      }
      .ColorScheme-ViewBackground {
        color:#fcfcfc;
      }
      .ColorScheme-ViewHover {
        color:#93cee9;
      }
      .ColorScheme-ViewFocus{
        color:#3daee9;
      }
      .ColorScheme-ButtonText {
        color:#31363b;
      }
      .ColorScheme-ButtonBackground {
        color:#eff0f1;
      }
      .ColorScheme-ButtonHover {
        color:#93cee9;
      }
      .ColorScheme-ButtonFocus{
        color:#3daee9;
      }
      </style>
  </defs>
  <g
     style="color:#000000"
     id="g10"
     transform="matrix(0,-1,1,0,0.01111733,256.00351)">
    <path
       d="m -1360.14,1641.33 c 46.11,-98.28 -119.59,-146.07 -181.85,-106.06 -62.25,40.01 -83.52,108.58 -13.01,143.08 70.51,34.501 148.75,61.26 194.86,-37.03 z"
       transform="matrix(1.03665,0,0,-1.35742,1657.71,2320.79)"
       style="fill:#9acd32"
       id="path12"
       inkscape:connector-curvature="0" />
  </g>
  <g
     transform="matrix(8.4576272,0,0,7.8474576,-4541.104,-5812.5467)"
     id="layer1"
     inkscape:label="Capa 1">
    <path
       inkscape:connector-curvature="0"
       id="path4155"
       d="m 544.57141,748.93359 0,3.88867 0,1.1211 0,2.99023 0,2.99023 0,1.00977 0,0.11133 0,3.88867 16,0 0,-3.89258 0,-0.10742 0,-1.00977 0,-2.99023 0,-2.99023 0,-1.11719 0,-3.89258 -16,0 z m 1,1 14,0 0,2.38672 a 11,6 0 0 0 -7,-1.38672 11,6 0 0 0 -7,1.38086 l 0,-2.38086 z m 7,2 a 10,5 0 0 1 7,1.44141 l 0,2.10742 a 8,3 0 0 0 -7,-1.54883 8,3 0 0 0 -7,1.55469 l 0,-2.10938 a 10,5 0 0 1 7,-1.44531 z m 0,3 a 7,2 0 0 1 7,2 7,2 0 0 1 -7,2 7,2 0 0 1 -7,-2 7,2 0 0 1 7,-2 z m 7,3.44531 0,2.11328 a 10,5 0 0 1 -7,1.44141 10,5 0 0 1 -7,-1.44531 l 0,-2.10352 a 8,3 0 0 0 7,1.54883 8,3 0 0 0 7,-1.55469 z m 0,3.16797 0,2.38672 -14,0 0,-2.38086 a 11,6 0 0 0 7,1.38086 11,6 0 0 0 7,-1.38672 z"
       style="opacity:0.50000018;fill:#000000;fill-opacity:1;stroke:none" />
  </g>
  <path
     style="fill:#ffffff;fill-opacity:1;fill-rule:evenodd;stroke:#ffffff;stroke-width:5.93789816;stroke-miterlimit:4;stroke-opacity:1;stroke-dasharray:none"
     d="m 65.248839,127.5661 0,-61.830507 67.254241,0 67.25423,0 0,61.830507 0,61.83051 -67.25423,0 -67.254241,0 0,-61.83051 z m 126.915251,45.55932 c 0,-5.5351 -0.45235,-9.76271 -1.04458,-9.76271 -0.57453,0 -3.38131,0.91368 -6.23729,2.0304 -8.66066,3.3864 -23.96144,6.47393 -38.47723,7.76428 -21.69288,1.92834 -47.411079,-1.00649 -66.410713,-7.57846 -3.523909,-1.21892 -6.574756,-2.21622 -6.779662,-2.21622 -0.204905,0 -0.372555,4.39322 -0.372555,9.76271 l 0,9.76272 59.66102,0 59.66101,0 0,-9.76272 z m -37.42373,-7.70084 c 10.80409,-1.28107 23.16339,-4.16904 31.45763,-7.35063 l 5.42373,-2.08049 0.31721,-8.92367 c 0.24799,-6.97605 0.0113,-8.78949 -1.08474,-8.30889 -16.25337,7.12737 -30.85515,10.33531 -51.20057,11.24853 -25.25401,1.13354 -48.950273,-2.95073 -66.043577,-11.38322 -0.472524,-0.2331 -0.716592,3.64047 -0.542372,8.60794 l 0.316762,9.03176 8.677966,2.92994 c 21.814071,7.36509 45.775411,9.41865 72.677961,6.22873 l 0,0 z m 8.1356,-24.30138 c 17.90886,-3.34686 29.28813,-8.57818 29.28813,-13.46444 0,-8.47796 -28.75119,-16.36384 -59.66101,-16.36384 -28.64254,0 -57.350113,7.21146 -59.277494,14.89076 -1.752559,6.98275 14.096197,13.59091 39.752064,16.57468 11.37447,1.32284 38.89029,0.42005 49.89831,-1.63716 z M 89.455894,110.19585 c 31.312426,-8.59044 72.841906,-6.81048 97.705016,4.18766 l 5.08957,2.25135 -0.31438,-8.89875 -0.31438,-8.898757 -10.30508,-3.450127 c -15.25648,-5.107844 -29.1994,-7.142709 -48.81356,-7.123972 -21.58843,0.02062 -38.384566,2.660636 -53.071385,8.341745 l -6.047262,2.339183 -0.31578,8.932028 -0.31578,8.93203 4.304168,-2.19583 c 2.367292,-1.2077 7.946776,-3.19515 12.398853,-4.41656 l 0,0 z M 77.979984,90.10508 c 7.198173,-3.007588 24.471746,-6.81584 37.055256,-8.169456 24.4948,-2.634923 53.5492,1.017615 75.69557,9.515974 1.12322,0.431024 1.43328,-1.587052 1.43328,-9.328762 l 0,-9.878768 -59.66101,0 -59.66102,0 0,9.762712 c 0,5.369491 0.259746,9.762712 0.577213,9.762712 0.317468,0 2.369787,-0.748986 4.560711,-1.664412 z"
     id="path4388"
     inkscape:connector-curvature="0" />
</svg>
