<?xml version="1.0" encoding="UTF-8" standalone="no"?>
<svg
   xmlns:dc="http://purl.org/dc/elements/1.1/"
   xmlns:cc="http://creativecommons.org/ns#"
   xmlns:rdf="http://www.w3.org/1999/02/22-rdf-syntax-ns#"
   xmlns:svg="http://www.w3.org/2000/svg"
   xmlns="http://www.w3.org/2000/svg"
   xmlns:sodipodi="http://sodipodi.sourceforge.net/DTD/sodipodi-0.dtd"
   xmlns:inkscape="http://www.inkscape.org/namespaces/inkscape"
   viewBox="0 0 256 256"
   id="svg2"
   version="1.1"
   inkscape:version="0.48.4 r9939"
   width="100%"
   height="100%"
   sodipodi:docname="crosshairs.svg">
  <metadata
     id="metadata10">
    <rdf:RDF>
      <cc:Work
         rdf:about="">
        <dc:format>image/svg+xml</dc:format>
        <dc:type
           rdf:resource="http://purl.org/dc/dcmitype/StillImage" />
        <dc:title></dc:title>
      </cc:Work>
    </rdf:RDF>
  </metadata>
  <defs
     id="defs8">
    <style
       type="text/css"
       id="current-color-scheme">.ColorScheme-Text {
        color:#4d4d4d;
      }
      .ColorScheme-Background {
        color:#eff0f1;
      }
      .ColorScheme-Highlight {
        color:#3daee9;
      }
      .ColorScheme-ViewText {
        color:#31363b;
      }
      .ColorScheme-ViewBackground {
        color:#fcfcfc;
      }
      .ColorScheme-ViewHover {
        color:#93cee9;
      }
      .ColorScheme-ViewFocus{
        color:#3daee9;
      }
      .ColorScheme-ButtonText {
        color:#31363b;
      }
      .ColorScheme-ButtonBackground {
        color:#eff0f1;
      }
      .ColorScheme-ButtonHover {
        color:#93cee9;
      }
      .ColorScheme-ButtonFocus{
        color:#3daee9;
      }</style>
  </defs>
  <sodipodi:namedview
     pagecolor="#ffffff"
     bordercolor="#666666"
     borderopacity="1"
     objecttolerance="10"
     gridtolerance="10"
     guidetolerance="10"
     inkscape:pageopacity="0"
     inkscape:pageshadow="2"
     inkscape:window-width="698"
     inkscape:window-height="774"
     id="namedview6"
     showgrid="false"
     inkscape:zoom="0.98901497"
     inkscape:cx="129.94642"
     inkscape:cy="127.17624"
     inkscape:window-x="580"
     inkscape:window-y="25"
     inkscape:window-maximized="0"
     inkscape:current-layer="svg2" />
  <path
     d="m 260.02 66.64 c -48.541 -88.14 -200.63 -53.931 -226.36 18.64 -30.66 86.45 49.14 250.63 184.3 154.45 45.527 -33.585 90.6 -84.949 42.05 -173.09 z"
     style="fill:#9acd32;color:#000"
     id="path4"
     transform="translate(-26.04 -13.02)" />
  <g
     transform="matrix(8.9446111,0,0,8.5112987,-3713.1542,-4467.7328)"
     id="layer1">
    <g
       transform="matrix(0.75,0,0,0.83333,421.46,-327.99)"
       id="layer1-4">
      <g
         transform="matrix(1,0,0,0.9,0,104.11)"
         id="layer1-8">
        <path
           transform="matrix(1.3333,0,0,1.3333,0.33333,1030.7)"
           d="M 10,1 V 3 H 9 8.4609 L 6.8613,12 H 6 V 10 H 1 v 5 H 6 V 13 H 7 7.5391 L 9.1367,4 H 10 v 2 h 5 V 1 h -5 z"
           id="rect4152"
           inkscape:connector-curvature="0"
           style="opacity:0.5" />
        <g
           transform="translate(0,-0.0016187)"
           id="layer1-7" />
        <g
           transform="matrix(-1,0,0,1,22,-0.0016274)"
           id="layer1-7-4" />
      </g>
    </g>
  </g>
  <path
     style="fill:#ffffff;fill-opacity:1;fill-rule:evenodd;stroke:#ffffff;stroke-width:5.53480005;stroke-miterlimit:4;stroke-opacity:1;stroke-dasharray:none"
     d="m 68.268893,164.81917 0,-21.23325 21.738802,0 21.738805,0 0,8.59441 0,8.59441 4.54998,0 c 2.50249,0 4.54998,-0.13349 4.54998,-0.29664 0,-0.59024 13.12809,-71.043958 13.64269,-73.215374 0.47053,-1.985473 1.27297,-2.261611 7.34549,-2.527768 l 6.81726,-0.298798 0.29367,-8.341633 0.29367,-8.341633 21.69791,0 21.69791,0 0,20.727694 0,20.727692 -21.7388,0 -21.7388,0 0,-8.59441 0,-8.594407 -4.46965,0 c -4.06477,0 -4.52088,0.251871 -5.03533,2.780544 -0.31112,1.5293 -3.08565,16.430493 -6.16562,33.113753 -3.07997,16.68327 -6.07881,32.72195 -6.66409,35.64153 l -1.06415,5.30831 -7.00606,0 -7.00606,0 0,8.59441 0,8.59441 -21.738805,0 -21.738802,0 0,-21.23325 z"
     id="path4295"
     inkscape:connector-curvature="0" />
</svg>
