<?xml version="1.0" encoding="UTF-8" standalone="no"?>
<svg
   xmlns:dc="http://purl.org/dc/elements/1.1/"
   xmlns:cc="http://creativecommons.org/ns#"
   xmlns:rdf="http://www.w3.org/1999/02/22-rdf-syntax-ns#"
   xmlns:svg="http://www.w3.org/2000/svg"
   xmlns="http://www.w3.org/2000/svg"
   xmlns:sodipodi="http://sodipodi.sourceforge.net/DTD/sodipodi-0.dtd"
   xmlns:inkscape="http://www.inkscape.org/namespaces/inkscape"
   viewBox="0 0 256 256"
   id="svg2"
   version="1.1"
   inkscape:version="0.48.4 r9939"
   width="100%"
   height="100%"
   sodipodi:docname="22.svg">
  <metadata
     id="metadata16">
    <rdf:RDF>
      <cc:Work
         rdf:about="">
        <dc:format>image/svg+xml</dc:format>
        <dc:type
           rdf:resource="http://purl.org/dc/dcmitype/StillImage" />
        <dc:title></dc:title>
      </cc:Work>
    </rdf:RDF>
  </metadata>
  <sodipodi:namedview
     pagecolor="#ffffff"
     bordercolor="#666666"
     borderopacity="1"
     objecttolerance="10"
     gridtolerance="10"
     guidetolerance="10"
     inkscape:pageopacity="0"
     inkscape:pageshadow="2"
     inkscape:window-width="698"
     inkscape:window-height="768"
     id="namedview14"
     showgrid="false"
     inkscape:zoom="0.921875"
     inkscape:cx="121.98899"
     inkscape:cy="128"
     inkscape:window-x="580"
     inkscape:window-y="25"
     inkscape:window-maximized="0"
     inkscape:current-layer="svg2" />
  <defs
     id="defs4">
    <clipPath
       id="clipPath6">
      <path
         d="M 0,64 H64 V128 H0 z"
         id="path8" />
    </clipPath>
    <style
       type="text/css"
       id="current-color-scheme">.ColorScheme-Text {
        color:#4d4d4d;
      }
      .ColorScheme-Background {
        color:#eff0f1;
      }
      .ColorScheme-Highlight {
        color:#3daee9;
      }
      .ColorScheme-ViewText {
        color:#31363b;
      }
      .ColorScheme-ViewBackground {
        color:#fcfcfc;
      }
      .ColorScheme-ViewHover {
        color:#93cee9;
      }
      .ColorScheme-ViewFocus{
        color:#3daee9;
      }
      .ColorScheme-ButtonText {
        color:#31363b;
      }
      .ColorScheme-ButtonBackground {
        color:#eff0f1;
      }
      .ColorScheme-ButtonHover {
        color:#93cee9;
      }
      .ColorScheme-ButtonFocus{
        color:#3daee9;
      }</style>
  </defs>
  <g
     style="color:#000"
     id="g10">
    <path
       d="m -1360.14 1641.33 c 46.11 -98.28 -119.59 -146.07 -181.85 -106.06 -62.25 40.01 -83.52 108.58 -13.01 143.08 70.51 34.501 148.75 61.26 194.86 -37.03 z"
       transform="matrix(1.03665 0 0 -1.35742 1657.71 2320.79)"
       style="fill:#9acd32"
       id="path12" />
  </g>
  <g
     transform="matrix(9.1373309,0,0,9.4751488,-4981.2655,-5757.3318)"
     id="layer1">
    <path
       class="ColorScheme-Text"
       d="m 559.4,613.65 a 8,8 0 0 0 -5.7734,2.3438 8,8 0 0 0 0,11.312 8,8 0 0 0 11.312,0 8,8 0 0 0 0,-11.312 8,8 0 0 0 -5.5391,-2.3438 z m -0.21875,1 a 7,7 0 0 1 4.6797,1.7148 l -1.4043,1.4043 a 8,5 45 0 0 -5.4238,-2.7422 7,7 0 0 1 2.1484,-0.37695 z m -3.0274,1.3066 a 7,4 45 0 1 5.5938,2.5215 l -2.4648,2.4648 -4.5508,-4.5508 a 7,4 45 0 1 1.4219,-0.43555 z m 8.4199,1.1094 a 7,7 0 0 1 1.3359,6.8105 8,5 45 0 0 -2.75,-5.3965 l 1.4141,-1.4141 z m -10.551,0.0312 4.5527,4.5527 -2.4668,2.4668 a 7,4 45 0 1 -2.0859,-7.0195 z m 8.4336,2.0859 a 7,4 45 0 1 2.0859,7.0195 l -4.5527,-4.5527 2.4668,-2.4668 z m -9.8008,0.24024 a 8,5 45 0 0 2.75,5.3965 l -1.4141,1.4141 a 7,7 0 0 1 -1.3359,-6.8105 z m 6.627,2.9336 4.5508,4.5508 a 7,4 45 0 1 -7.0156,-2.0859 l 2.4648,-2.4648 z m -3.1738,3.1738 a 8,5 45 0 0 5.4238,2.7422 7,7 0 0 1 -6.8281,-1.3379 l 1.4043,-1.4043 z"
       style="opacity:0.5;color:#4d4d4d"
       id="path4521"
       inkscape:connector-curvature="0" />
  </g>
  <path
     style="fill:#ffffff;fill-opacity:1;fill-rule:evenodd;stroke:#ffffff;stroke-width:5.93789816;stroke-miterlimit:4;stroke-opacity:1;stroke-dasharray:none"
     d="M 111.59227,205.71251 C 71.671324,194.92518 48.145174,152.24681 59.844212,111.83729 67.001327,87.115971 84.186097,69.0595 108.31891,60.9037 c 8.42094,-2.845897 27.69748,-3.505612 36.68732,-1.255577 20.29594,5.0798 38.72022,19.636073 47.5389,37.558544 6.81887,13.858213 9.26226,25.004473 8.5538,39.020673 -1.03296,20.43614 -8.05588,36.55251 -21.98025,50.44078 -14.06113,14.02464 -28.20744,20.19604 -47.6924,20.80604 -9.35486,0.29286 -13.63899,-0.0877 -19.83401,-1.76165 l 0,0 z m 35.02045,-8.67303 c 3.22017,-1.31819 3.15772,-1.36005 -5.9661,-3.99859 -10.9909,-3.17847 -22.58886,-9.49501 -33.0381,-17.99337 l -7.639871,-6.2135 -6.881807,7.14477 -6.881807,7.14478 5.254689,3.805 c 6.258469,4.53186 12.684216,7.59157 21.525876,10.24985 7.49691,2.25399 27.98839,2.16932 33.62712,-0.13894 z m 21.31074,-12.60604 3.22559,-1.66801 -11.91732,-12.68441 c -6.55452,-6.97643 -16.1238,-16.83356 -21.26506,-21.90475 l -9.34774,-9.22034 -11.31578,11.93221 -11.31576,11.9322 4.87475,4.41502 c 5.29152,4.79249 19.3567,13.43955 25.44549,15.6435 11.98323,4.33756 24.99674,4.97745 31.61583,1.55458 l 0,0 z M 88.053795,169.85366 c 4.899594,-4.95126 6.200165,-6.89845 5.389772,-8.06944 -0.587475,-0.84889 -3.144686,-4.18356 -5.682691,-7.41039 -6.765885,-8.60216 -15.023972,-25.54338 -17.184074,-35.25263 l -1.856221,-8.34336 -1.621474,4.32633 c -1.104651,2.94738 -1.625824,8.47531 -1.635122,17.34329 -0.01172,11.17689 0.39271,14.25567 2.861021,21.77997 2.706657,8.25086 10.487947,22.15223 12.399706,22.15223 0.479145,0 3.777232,-2.9367 7.329083,-6.526 z m 91.156645,2.76423 c 2.04919,-4.90439 2.0163,-17.89218 -0.0662,-26.11202 -2.1508,-8.48982 -9.00332,-22.202 -15.1569,-30.3296 -2.71024,-3.57966 -5.31786,-6.64059 -5.79471,-6.80208 -0.47685,-0.16148 -5.9141,5.12404 -12.08278,11.7456 l -11.21578,12.03919 9.653,9.94932 c 22.44924,23.13839 32.42237,33.27136 32.74652,33.27136 0.18978,0 1.05234,-1.6928 1.91681,-3.76177 z m -76.5052,-61.24127 C 91.181458,99.39948 81.383944,89.6 80.932994,89.6 c -1.16665,0 -3.040742,5.813854 -3.787382,11.74931 -1.518528,12.07162 6.411348,34.32159 17.400895,48.82415 l 5.212326,6.87854 11.949377,-11.94938 11.94938,-11.94937 -20.95235,-21.77663 z m 89.98825,21.82237 c 0.0115,-6.14937 -0.53028,-13.4714 -1.20398,-16.27119 -1.45139,-6.03173 -8.53137,-21.310297 -11.65818,-25.158308 l -2.20359,-2.711865 -6.55837,6.474519 c -3.60709,3.560985 -6.55835,6.927664 -6.55835,7.481504 0,0.55384 1.6848,3.06305 3.74399,5.57603 9.35337,11.41456 17.1562,27.73035 20.74746,43.3832 0.72709,3.16908 0.78489,3.1123 2.20837,-2.16949 0.80394,-2.98305 1.47114,-10.45503 1.48265,-16.6044 z M 140.5486,115.18987 c 7.49561,-7.5212 11.0432,-11.83838 10.62455,-12.92937 -2.0686,-5.390687 -27.29977,-20.084448 -38.65765,-22.512886 -9.71528,-2.077231 -25.835786,0.358461 -24.710735,3.733615 0.419586,1.258757 40.072805,42.867671 40.929025,42.947651 0.30897,0.0289 5.62563,-5.02869 11.81481,-11.23901 l 0,0 z m 24.53875,-25.670163 6.47452,-6.588766 -3.79661,-3.231558 c -5.90935,-5.029851 -18.12202,-10.47281 -27.73578,-12.361314 -9.31385,-1.829589 -22.38098,-1.045275 -29.25975,1.756226 l -3.20786,1.306459 4.34993,0.820666 c 11.95101,2.254699 25.97525,9.328519 38.63109,19.485499 3.70175,2.970856 7.03184,5.401556 7.4002,5.401556 0.36836,0 3.58328,-2.964946 7.14426,-6.588768 z"
     id="path3004"
     inkscape:connector-curvature="0" />
</svg>
