<?xml version="1.0" encoding="UTF-8" standalone="no"?>
<svg
   xmlns:dc="http://purl.org/dc/elements/1.1/"
   xmlns:cc="http://creativecommons.org/ns#"
   xmlns:rdf="http://www.w3.org/1999/02/22-rdf-syntax-ns#"
   xmlns:svg="http://www.w3.org/2000/svg"
   xmlns="http://www.w3.org/2000/svg"
   xmlns:sodipodi="http://sodipodi.sourceforge.net/DTD/sodipodi-0.dtd"
   xmlns:inkscape="http://www.inkscape.org/namespaces/inkscape"
   viewBox="0 0 256 256"
   id="svg2"
   version="1.1"
   inkscape:version="0.48.4 r9939"
   width="100%"
   height="100%"
   sodipodi:docname="playlist-queue.svg">
  <metadata
     id="metadata10">
    <rdf:RDF>
      <cc:Work
         rdf:about="">
        <dc:format>image/svg+xml</dc:format>
        <dc:type
           rdf:resource="http://purl.org/dc/dcmitype/StillImage" />
        <dc:title></dc:title>
      </cc:Work>
    </rdf:RDF>
  </metadata>
  <defs
     id="defs8">
    <style
       type="text/css"
       id="current-color-scheme">.ColorScheme-Text {
        color:#4d4d4d;
      }
      .ColorScheme-Background {
        color:#eff0f1;
      }
      .ColorScheme-Highlight {
        color:#3daee9;
      }
      .ColorScheme-ViewText {
        color:#31363b;
      }
      .ColorScheme-ViewBackground {
        color:#fcfcfc;
      }
      .ColorScheme-ViewHover {
        color:#93cee9;
      }
      .ColorScheme-ViewFocus{
        color:#3daee9;
      }
      .ColorScheme-ButtonText {
        color:#31363b;
      }
      .ColorScheme-ButtonBackground {
        color:#eff0f1;
      }
      .ColorScheme-ButtonHover {
        color:#93cee9;
      }
      .ColorScheme-ButtonFocus{
        color:#3daee9;
      }</style>
  </defs>
  <sodipodi:namedview
     pagecolor="#ffffff"
     bordercolor="#666666"
     borderopacity="1"
     objecttolerance="10"
     gridtolerance="10"
     guidetolerance="10"
     inkscape:pageopacity="0"
     inkscape:pageshadow="2"
     inkscape:window-width="698"
     inkscape:window-height="774"
     id="namedview6"
     showgrid="false"
     inkscape:zoom="0.98901497"
     inkscape:cx="129.94642"
     inkscape:cy="127.17624"
     inkscape:window-x="580"
     inkscape:window-y="25"
     inkscape:window-maximized="0"
     inkscape:current-layer="svg2" />
  <path
     d="m 22.010839,203.4688 c 48.541,88.14 200.630001,53.931 226.360001,-18.64 30.66,-86.449996 -49.14,-250.629996 -184.300001,-154.449996 -45.527,33.585 -90.6,84.948996 -42.05,173.089996 z"
     style="color:#000000;fill:#9acd32"
     id="path4"
     inkscape:connector-curvature="0" />
  <g
     transform="matrix(7.6353899,0,0,8.0777493,-4139.4589,-4884.8434)"
     id="layer1">
    <path
       class="ColorScheme-Text"
       d="m 551.29,613.65 v 3 10 3 h 16 v -3 -10 -3 h -16 z m 1,1 h 4 v 4.707 a 7,3 0 0 1 -4,-2.707 v -2 z m 5,0 h 4 v 4.873 a 7,3 0 0 1 -2,0.12695 7,3 0 0 1 -2,-0.12695 v -4.873 z m 5,0 h 4 v 2 a 7,3 0 0 1 -4,2.707 v -4.707 z m -10,3.9277 a 8,4 0 0 0 4,1.7774 v 2.5898 a 8,4 0 0 0 -4,1.7774 v -6.1445 z m 14,0.008 v 6.1289 a 8,4 0 0 0 -4,-1.7695 v -2.5898 a 8,4 0 0 0 4,-1.7695 z m -9,1.9316 a 8,4 0 0 0 2,0.13281 8,4 0 0 0 2,-0.13086 v 2.2617 a 8,4 0 0 0 -2,-0.13086 8,4 0 0 0 -2,0.13281 v -2.2656 z m 2,3.1328 a 7,3 0 0 1 2,0.12695 v 4.873 h -4 v -4.873 a 7,3 0 0 1 2,-0.12695 z m -3,0.29297 v 4.707 h -4 v -2 a 7,3 0 0 1 4,-2.707 z m 6,0 a 7,3 0 0 1 4,2.707 v 2 h -4 v -4.707 z"
       style="opacity:0.5;color:#4d4d4d"
       id="rect4404-0-5"
       inkscape:connector-curvature="0" />
  </g>
  <path
     style="fill:#ffffff;fill-opacity:1;fill-rule:evenodd;stroke:#ffffff;stroke-width:5.53480005;stroke-miterlimit:4;stroke-opacity:1;stroke-dasharray:none"
     d="m 70.291108,137.01373 0,-64.205301 60.666422,0 60.66642,0 0,64.205301 0,64.20529 -60.66642,0 -60.666422,0 0,-64.20529 z m 38.422072,37.33061 0,-19.79692 -3.2861,0.70219 c -5.473491,1.16959 -14.480191,5.12963 -19.461134,8.55661 -7.423135,5.10725 -8.588877,7.81648 -8.59331,19.97121 l -0.0038,10.36384 15.672159,0 15.672165,0 0,-19.79693 z m 38.19025,-0.55458 0.27374,-19.84595 -2.29595,-0.61516 c -2.97154,-0.79616 -24.8599,-0.80047 -27.82641,-0.005 -2.25918,0.60544 -2.27499,0.74476 -2.27499,20.03981 0,10.68659 0.31471,19.74486 0.69936,20.12952 0.38465,0.38464 7.55087,0.57422 15.92494,0.42128 l 15.22557,-0.27806 0.27374,-19.84596 z m 37.64277,10.10701 c 0,-8.62718 -0.33365,-10.78437 -2.11345,-13.66415 -3.53499,-5.71972 -15.83441,-12.8226 -25.94477,-14.98301 l -3.2861,-0.70219 0,19.79692 0,19.79693 15.67216,0 15.67216,0 0,-10.2445 z M 84.95216,156.71453 c 3.804302,-2.49747 13.808536,-6.64899 19.46381,-8.07702 l 4.29721,-1.0851 0,-10.89206 0,-10.89206 -5.30832,-1.3446 c -7.402383,-1.87504 -15.338386,-5.50436 -21.122429,-9.65978 l -4.913574,-3.53005 0,25.39932 0,25.39932 2.274991,-1.66332 c 1.251245,-0.91483 3.639985,-2.55942 5.308312,-3.65465 z m 99.59404,-20.20468 0,-25.27599 -4.91357,3.53005 c -5.78404,4.15542 -13.72005,7.78474 -21.12243,9.65978 l -5.30832,1.3446 0,10.89206 0,10.89206 4.29721,1.09737 c 8.56705,2.18776 18.66612,6.83799 23.33304,10.74397 1.57196,1.31565 3.05071,2.3921 3.2861,2.3921 0.23539,0 0.42797,-11.3742 0.42797,-25.276 z m -37.62828,0.27091 0.28824,-8.997 -16.21317,0 -16.21317,0 0,8.74367 c 0,4.80902 0.18946,8.93325 0.42102,9.16496 0.23156,0.23172 7.39778,0.34571 15.92493,0.25333 l 15.50392,-0.16797 0.28823,-8.99699 z m -0.54101,-17.12178 c 0.41708,-0.25243 0.75833,-9.30458 0.75833,-20.115887 l 0,-19.656915 -16.19908,0 -16.19909,0 0.27415,19.969364 0.27415,19.969368 5.56109,0.64366 c 5.56246,0.64382 24.10034,0.056 25.53045,-0.80959 l 0,0 z m -37.66373,-20.561768 0,-19.211034 -15.672164,0 -15.672159,0 0,9.655729 c 0,10.481903 0.895232,13.269833 5.723598,17.824433 4.60134,4.34045 18.482255,10.66903 23.851285,10.87427 1.62546,0.0621 1.76944,-1.49548 1.76944,-19.143398 z m 51.0609,18.086258 c 5.92564,-1.63143 15.75038,-6.69134 19.04853,-9.81032 4.83018,-4.56778 5.72359,-7.3511 5.72359,-17.831243 l 0,-9.655729 -15.67216,0 -15.67216,0 0,19.211034 c 0,21.070578 -0.3881,20.002548 6.5722,18.086258 z"
     id="path5304"
     inkscape:connector-curvature="0" />
</svg>
