<svg xmlns="http://www.w3.org/2000/svg" viewBox="0 0 256 256"><defs><clipPath><path d="m171,132h54.625v24h-54.625Z"/></clipPath><clipPath><path d="m148,97h77.63v24h-77.62Z"/></clipPath><clipPath><path d="m27.707,56.824h82.29v139.69h-82.29Z"/></clipPath><clipPath><path d="m74,56.824h129v139.69h-129Z"/></clipPath></defs><g transform="translate(0 -796.36)"><path d="m195.83,822.74c-130.93-92.05-263.6,77.948-156.91,186.39 100.51,102.17 256.68,7.449 207.86-119.69-10.185-26.526-26.914-49.802-50.948-66.7z" style="fill:#9acd32;color:#000"/><path d="m45.45,921.0893 72.7739,15.7384-8.7705-27.2801c28.1566-7.886 56.5677,5.9203 65.1207,32.5238 3.1617,9.8342 3.2235,20.2488 .6478,29.9286l27.1605,4.5477c3.8077-14.4729 3.8547-29.8785-.8616-44.5482-13.074-40.6658-57.2538-61.3209-100.2824-48.0077l-7.6604-23.8272-48.1277,60.922-.0003,.002z" style="fill:#fff;stroke:#fff"/></g></svg>