<svg xmlns="http://www.w3.org/2000/svg" viewBox="0 0 256 256"><defs><clipPath><path d="m 27.707 56.824 h 82.29 v 139.69 h -82.29"/></clipPath><clipPath><path d="m 74 56.824 h 129 v 139.69 h -129"/></clipPath><clipPath><path d="m 171 132 h 54.625 v 24 h -54.625"/></clipPath><clipPath><path d="m 148 97 h 77.63 v 24 h -77.62"/></clipPath><clipPath><rect rx="6" height="80" width="84" y="6" x="6" style="fill:#fff"/></clipPath></defs><g transform="translate(0.828 -795.03)"><path d="m 59.916 822.63 c 130.38 -91.66 262.49 77.62 156.25 185.6 -100.08 101.74 -255.59 7.417 -206.98 -119.18 10.142 -26.414 26.8 -49.591 50.733 -66.42 z" style="fill:#6b8e23;color:#000"/><g transform="matrix(7.84746 0 0 8.0508 44.39 -7455.45)" style="fill:#fff"><path d="M 3,3 V 4 H 19 V 3 z M 3,6 V 7 H 19 V 6 z m 0,3 v 1 H 19 V 9 z m 7,3 v 1 h 9 v -1 z m 0,3 v 1 h 9 v -1 z m 0,3 v 1 h 9 v -1 z" transform="translate(0 1030.4)"/><path d="m 6.11 1041.4 v 5.791 c -0.326 -0.279 -0.799 -0.457 -1.332 -0.457 -0.982 0 -1.778 0.6 -1.778 1.3 0 0.736 0.796 1.332 1.778 1.332 0.982 0 1.778 -0.595 1.778 -1.332 v -4.887 c 2.722 0 2.048 2.375 1.836 2.971 1.225 -2.584 -0.358 -3.302 -1.013 -3.793 -0.667 -0.5 -0.822 -0.956 -0.822 -0.956 z"/></g></g></svg>