<svg xmlns="http://www.w3.org/2000/svg" viewBox="0 0 256 256"><defs><clipPath><path d="m 171 132 h 54.625 v 24 h -54.625"/></clipPath><clipPath><rect rx="6" height="80" width="84" y="6" x="6" style="fill:#fff"/></clipPath><clipPath><path d="m 148 97 h 77.63 v 24 h -77.62"/></clipPath><clipPath><rect x="6" y="6" width="84" height="80" rx="6" style="fill:#fff"/></clipPath><clipPath><rect x="6" y="6" width="84" height="80" rx="6" style="fill:#fff"/></clipPath><clipPath><path d="m 27.707 56.824 h 82.29 v 139.69 h -82.29"/></clipPath><clipPath><path d="m 74 56.824 h 129 v 139.69 h -129"/></clipPath><clipPath><rect x="6" y="6" width="84" height="80" rx="6" style="fill:#fff"/></clipPath><clipPath><rect x="6" y="6" width="84" height="80" rx="6" style="fill:#fff"/></clipPath><clipPath><rect x="6" y="6" width="84" height="80" rx="6" style="fill:#fff"/></clipPath><clipPath><rect rx="6" height="80" width="84" y="6" x="6" style="fill:#fff"/></clipPath><clipPath><rect x="6" y="6" width="84" height="80" rx="6" style="fill:#fff"/></clipPath><clipPath><rect x="6" y="6" width="84" height="80" rx="6" style="fill:#fff"/></clipPath><clipPath><path d="m -24 13 c 0 1.105 -0.672 2 -1.5 2 -0.828 0 -1.5 -0.895 -1.5 -2 0 -1.105 0.672 -2 1.5 -2 0.828 0 1.5 0.895 1.5 2 z" transform="matrix(15.33333 0 0 11.5 415 -125.5)"/></clipPath><clipPath><rect x="6" y="6" width="84" height="80" rx="6" style="fill:#fff"/></clipPath><clipPath><rect x="6" y="6" width="84" height="80" rx="6" style="fill:#fff"/></clipPath><clipPath><rect rx="6" height="80" width="84" y="6" x="6" style="fill:#fff"/></clipPath><clipPath><rect x="6" y="6" width="84" height="80" rx="6" style="fill:#fff"/></clipPath><clipPath><rect rx="6" height="80" width="84" y="6" x="6" style="fill:#fff"/></clipPath><clipPath><rect x="6" y="6" width="84" height="80" rx="6" style="fill:#fff"/></clipPath><clipPath><rect rx="6" height="80" width="84" y="6" x="6" style="fill:#fff"/></clipPath><clipPath><rect rx="6" height="80" width="84" y="6" x="6" style="fill:#fff"/></clipPath><clipPath><rect rx="6" height="80" width="84" y="6" x="6" style="fill:#fff"/></clipPath><clipPath><rect rx="6" height="80" width="84" y="6" x="6" style="fill:#fff"/></clipPath><clipPath><rect x="6" y="6" width="84" height="80" rx="6" style="fill:#fff"/></clipPath><clipPath><rect x="6" y="6" width="84" height="80" rx="6" style="fill:#fff"/></clipPath><clipPath><rect x="6" y="6" width="84" height="80" rx="6" style="fill:#fff"/></clipPath><clipPath><rect rx="6" height="80" width="84" y="6" x="6" style="fill:#fff"/></clipPath><clipPath><rect rx="6" height="80" width="84" y="6" x="6" style="fill:#fff"/></clipPath></defs><path d="m 3.74 950.97 c 19.829 131.87 217.21 135.83 247.04 7.636 30.702 -103.78 -80.47 -188.63 -163.63 -154.63 -55.684 16.07 -100.67 81.83 -83.41 146.99 z" transform="translate(0 -796.36)" style="fill:#9acd32;color:#000"/><g style="fill:#fff"><path d="m 1082 391 v 12 h 12 v -12 h -12 z m 1 1 h 10 v 10 h -10 v -10 z" transform="matrix(13.0226234 0 0 12.57057973 -14041.1532202 -4861.9799384)" style="fill:#fff"/></g></svg>