<svg xmlns="http://www.w3.org/2000/svg" viewBox="0 0 256 256"><defs><clipPath><rect x="6" y="6" width="84" height="80" rx="6" style="fill:#fff"/></clipPath><clipPath><rect x="6" y="6" width="84" height="80" rx="6" style="fill:#fff"/></clipPath><clipPath><path d="m 0,595.28 841.89,0 L 841.89,0 0,0 0,595.28 Z"/></clipPath><clipPath><path d="m 171 132 h 54.625 v 24 h -54.625"/></clipPath><clipPath><path d="m 74 56.824 h 129 v 139.69 h -129"/></clipPath><clipPath><path d="m 148 97 h 77.63 v 24 h -77.62"/></clipPath><clipPath><path d="m 27.707 56.824 h 82.29 v 139.69 h -82.29"/></clipPath></defs><g transform="translate(0 -796.36)" style="color:#000"><path d="m 60.17 822.74 c 130.93 -92.05 263.6 77.948 156.91 186.39 -100.51 102.17 -256.68 7.449 -207.86 -119.69 10.185 -26.526 26.914 -49.802 50.948 -66.7 z" style="fill:#9acd32"/><g transform="matrix(0 1.69989 -1.68927 0 1824.09 614.66)" style="fill:#fff"><path d="m 144 1042.36 h 76.03 v -22.06 h -4 v 18.06 h -68.03 v -67.998 h 68.03 v 18.02 h 4 v -22.02 h -76.03 v 76 z" style="stroke:#fff;stroke-width:4"/><path d="m 230.03 1019.36 v -30 c 0 0 -16.631 7.082 -28.01 15 11.38 7.918 28.01 15 28.01 15 z"/></g></g></svg>