<?xml version="1.0" encoding="UTF-8" standalone="no"?>
<svg
   xmlns:dc="http://purl.org/dc/elements/1.1/"
   xmlns:cc="http://creativecommons.org/ns#"
   xmlns:rdf="http://www.w3.org/1999/02/22-rdf-syntax-ns#"
   xmlns:svg="http://www.w3.org/2000/svg"
   xmlns="http://www.w3.org/2000/svg"
   xmlns:sodipodi="http://sodipodi.sourceforge.net/DTD/sodipodi-0.dtd"
   xmlns:inkscape="http://www.inkscape.org/namespaces/inkscape"
   viewBox="0 0 256 256"
   id="svg2"
   version="1.1"
   inkscape:version="0.48.4 r9939"
   width="100%"
   height="100%"
   sodipodi:docname="license.svg">
  <metadata
     id="metadata10">
    <rdf:RDF>
      <cc:Work
         rdf:about="">
        <dc:format>image/svg+xml</dc:format>
        <dc:type
           rdf:resource="http://purl.org/dc/dcmitype/StillImage" />
        <dc:title></dc:title>
      </cc:Work>
    </rdf:RDF>
  </metadata>
  <defs
     id="defs8" />
  <sodipodi:namedview
     pagecolor="#ffffff"
     bordercolor="#666666"
     borderopacity="1"
     objecttolerance="10"
     gridtolerance="10"
     guidetolerance="10"
     inkscape:pageopacity="0"
     inkscape:pageshadow="2"
     inkscape:window-width="698"
     inkscape:window-height="774"
     id="namedview6"
     showgrid="false"
     inkscape:zoom="0.98901497"
     inkscape:cx="129.94642"
     inkscape:cy="127.17624"
     inkscape:window-x="580"
     inkscape:window-y="25"
     inkscape:window-maximized="0"
     inkscape:current-layer="svg2" />
  <path
     d="m 260.02 66.64 c -48.541 -88.14 -200.63 -53.931 -226.36 18.64 -30.66 86.45 49.14 250.63 184.3 154.45 45.527 -33.585 90.6 -84.949 42.05 -173.09 z"
     style="fill:#9acd32;color:#000"
     id="path4"
     transform="translate(-26.04 -13.02)" />
  <g
     style="enable-background:new"
     id="g5223"
     transform="matrix(8.5833028,0,0,9.2333002,59.238618,52.711897)">
    <path
       id="rect10753"
       d="M 1,1 1,3 15,3 15,1 1,1 z m 8,4 0,2 0,3 0,1 4,0 0,2 -4,0 0,2 6,0 0,-2 0,-3 0,-1 -4,0 0,-2 4,0 0,-2 -4,0 -2,0 z m -8,0.00391 0,2 6,0 0,-2 -6,0 z m 0,4 0,2 6,0 0,-2 -6,0 z M 1,13 l 0,2 6,0 0,-2 -6,0 z"
       style="opacity:0.5"
       inkscape:connector-curvature="0" />
  </g>
  <path
     style="fill:#ffffff;fill-opacity:1;fill-rule:evenodd;stroke:#ffffff;stroke-width:5.53480005;stroke-miterlimit:4;stroke-opacity:1;stroke-dasharray:none"
     d="m 68.268893,145.10258 0,-8.59441 25.277676,0 25.277681,0 0,8.59441 0,8.59441 -25.277681,0 -25.277676,0 0,-8.59441 z"
     id="path5226"
     inkscape:connector-curvature="0" />
  <path
     style="fill:#ffffff;fill-opacity:1;fill-rule:evenodd;stroke:#ffffff;stroke-width:5.53480005;stroke-miterlimit:4;stroke-opacity:1;stroke-dasharray:none"
     d="m 68.268893,108.19718 0,-9.099968 25.277676,0 25.277681,0 0,9.099968 0,9.09996 -25.277681,0 -25.277676,0 0,-9.09996 z"
     id="path5228"
     inkscape:connector-curvature="0" />
  <path
     style="fill:#ffffff;fill-opacity:1;fill-rule:evenodd;stroke:#ffffff;stroke-width:5.53480005;stroke-miterlimit:4;stroke-opacity:1;stroke-dasharray:none"
     d="m 68.268893,71.291768 0,-8.594409 59.655317,0 59.65531,0 0,8.594409 0,8.59441 -59.65531,0 -59.655317,0 0,-8.59441 z"
     id="path5230"
     inkscape:connector-curvature="0" />
  <path
     style="fill:#ffffff;fill-opacity:1;fill-rule:evenodd;stroke:#ffffff;stroke-width:5.53480005;stroke-miterlimit:4;stroke-opacity:1;stroke-dasharray:none"
     d="m 68.268893,182.00799 0,-9.09996 25.277676,0 25.277681,0 0,9.09996 0,9.09996 -25.277681,0 -25.277676,0 0,-9.09996 z"
     id="path5232"
     inkscape:connector-curvature="0" />
  <path
     style="fill:#ffffff;fill-opacity:1;fill-rule:evenodd;stroke:#ffffff;stroke-width:5.53480005;stroke-miterlimit:4;stroke-opacity:1;stroke-dasharray:none"
     d="m 137.02417,182.00799 0,-9.09996 17.18882,0 17.18882,0 0,-9.60552 0,-9.60552 -17.18882,0 -17.18882,0 0,-27.29989 0,-27.299888 25.27768,0 25.27767,0 0,9.099968 0,9.09996 -17.18882,0 -17.18882,0 0,9.60552 0,9.60551 17.18882,0 17.18882,0 0,27.29989 0,27.29989 -25.27767,0 -25.27768,0 0,-9.09996 z"
     id="path5234"
     inkscape:connector-curvature="0" />
</svg>
