<?xml version="1.0" encoding="UTF-8" standalone="no"?>
<svg
   xmlns:dc="http://purl.org/dc/elements/1.1/"
   xmlns:cc="http://creativecommons.org/ns#"
   xmlns:rdf="http://www.w3.org/1999/02/22-rdf-syntax-ns#"
   xmlns:svg="http://www.w3.org/2000/svg"
   xmlns="http://www.w3.org/2000/svg"
   xmlns:sodipodi="http://sodipodi.sourceforge.net/DTD/sodipodi-0.dtd"
   xmlns:inkscape="http://www.inkscape.org/namespaces/inkscape"
   viewBox="0 0 256 256"
   id="svg2"
   version="1.1"
   inkscape:version="0.48.4 r9939"
   width="100%"
   height="100%"
   sodipodi:docname="playlist-similar.svg">
  <metadata
     id="metadata10">
    <rdf:RDF>
      <cc:Work
         rdf:about="">
        <dc:format>image/svg+xml</dc:format>
        <dc:type
           rdf:resource="http://purl.org/dc/dcmitype/StillImage" />
        <dc:title></dc:title>
      </cc:Work>
    </rdf:RDF>
  </metadata>
  <defs
     id="defs8" />
  <sodipodi:namedview
     pagecolor="#ffffff"
     bordercolor="#666666"
     borderopacity="1"
     objecttolerance="10"
     gridtolerance="10"
     guidetolerance="10"
     inkscape:pageopacity="0"
     inkscape:pageshadow="2"
     inkscape:window-width="698"
     inkscape:window-height="774"
     id="namedview6"
     showgrid="false"
     inkscape:zoom="0.98901497"
     inkscape:cx="129.94642"
     inkscape:cy="127.17624"
     inkscape:window-x="580"
     inkscape:window-y="25"
     inkscape:window-maximized="0"
     inkscape:current-layer="svg2" />
  <path
     d="m 260.02 66.64 c -48.541 -88.14 -200.63 -53.931 -226.36 18.64 -30.66 86.45 49.14 250.63 184.3 154.45 45.527 -33.585 90.6 -84.949 42.05 -173.09 z"
     style="fill:#9acd32;color:#000"
     id="path4"
     transform="translate(-26.04 -13.02)" />
  <g
     style="enable-background:new"
     id="g5261"
     transform="matrix(8.6844135,0,0,9.2910777,55.604187,45.07637)">
    <path
       id="rect10753"
       d="M 1,1 1,3 15,3 15,1 1,1 z m 8,4 0,2 0,6 0,2 5,0 0,1 2,0 0,-2 -1,0 0,-1 0,-6 0,-2 -6,0 z m -8,0.00391 0,2 6,0 0,-2 -6,0 z M 11,7 l 2,0 0,6 -2,0 0,-6 z m -10,2.0039062 0,1.9999998 6,0 0,-1.9999998 -6,0 z M 1,13 l 0,2 6,0 0,-2 -6,0 z"
       style="opacity:0.5"
       inkscape:connector-curvature="0" />
  </g>
  <path
     style="fill:#ffffff;fill-opacity:1;fill-rule:evenodd;stroke:#ffffff;stroke-width:5.53480005;stroke-miterlimit:4;stroke-opacity:1;stroke-dasharray:none"
     d="m 65.235572,175.43579 0,-8.59441 25.277676,0 25.277672,0 0,8.59441 0,8.59441 -25.277672,0 -25.277676,0 0,-8.59441 z"
     id="path5264"
     inkscape:connector-curvature="0" />
  <path
     style="fill:#ffffff;fill-opacity:1;fill-rule:evenodd;stroke:#ffffff;stroke-width:5.53480005;stroke-miterlimit:4;stroke-opacity:1;stroke-dasharray:none"
     d="m 65.235572,138.02483 0,-8.59441 25.277676,0 25.277672,0 0,8.59441 0,8.59441 -25.277672,0 -25.277676,0 0,-8.59441 z"
     id="path5266"
     inkscape:connector-curvature="0" />
  <path
     style="fill:#ffffff;fill-opacity:1;fill-rule:evenodd;stroke:#ffffff;stroke-width:5.53480005;stroke-miterlimit:4;stroke-opacity:1;stroke-dasharray:none"
     d="m 65.235572,100.61387 0,-8.594407 25.277676,0 25.277672,0 0,8.594407 0,8.59441 -25.277672,0 -25.277676,0 0,-8.59441 z"
     id="path5268"
     inkscape:connector-curvature="0" />
  <path
     style="fill:#ffffff;fill-opacity:1;fill-rule:evenodd;stroke:#ffffff;stroke-width:5.53480005;stroke-miterlimit:4;stroke-opacity:1;stroke-dasharray:none"
     d="m 65.235572,63.708466 0,-9.099964 60.160868,0 60.16087,0 0,9.099964 0,9.099963 -60.16087,0 -60.160868,0 0,-9.099963 z"
     id="path5270"
     inkscape:connector-curvature="0" />
  <path
     style="fill:#ffffff;fill-opacity:1;fill-rule:evenodd;stroke:#ffffff;stroke-width:5.53480005;stroke-miterlimit:4;stroke-opacity:1;stroke-dasharray:none"
     d="m 177.46845,188.58019 0,-4.54999 -21.7388,0 -21.7388,0 0,-46.00537 0,-46.005367 25.78323,0 25.78323,0 0,41.960937 0,41.96095 4.04443,0 4.04443,0 0,8.59441 0,8.59441 -8.08886,0 -8.08886,0 0,-4.54998 z m -8.59441,-50.55536 0,-28.31099 -9.09996,0 -9.09996,0 -0.26974,27.28481 c -0.14836,15.00665 -0.0421,27.87817 0.23624,28.60338 0.37506,0.97738 2.79951,1.24291 9.3697,1.02618 l 8.86372,-0.29238 0,-28.311 z"
     id="path5272"
     inkscape:connector-curvature="0" />
</svg>
