<svg xmlns="http://www.w3.org/2000/svg" viewBox="0 0 256 256"><g style="color:#000"><path transform="translate(0 -796.36)" d="m 125.73 798.56 c -111.92 -22.351 -154.42 130.95 -105.92 214.2 38.644 66.33 171.02 47.37 220.37 -42.17 49.35 -89.54 -24.617 -154.09 -114.45 -172.03 z" style="fill:#9acd32"/><g transform="matrix(0 -2.93525 2.98272 0 50.302729 200.78)" style="fill:#fff;stroke:#fff"><path d="M 17.740898,19.836375 38.24917,40.211414 c 0.829272,0.920609 3.459617,1.632561 5.21534,0 1.696336,-1.57699 1.304375,-3.798825 -0.355247,-5.410416 L 23.431342,14.310621 C 25.860848,7.7573074 20.943527,2.2525238 14.599817,3.4321203 l -1.362684,1.2089553 4.267293,3.9141633 0.237552,3.4538581 -3.186432,2.82474 -3.807307,-0.406829 -3.9120444,-3.568148 c 0,0 -1.3713215,1.315905 -1.3713215,1.315905 -0.6381503,5.914759 5.7314749,11.201448 12.2771049,7.662658 z" style="fill:#fff;stroke-width:1.06404066"/><path d="m 22.804562,30.046895 c 0.935687,-0.817961 14.90368,-15.407219 14.90368,-15.407219 l 3.448804,-0.252032 5.42003,-7.6721056 -4.510147,-4.1069878 -7.02102,6.1622001 V 12.292335 L 20.758167,27.447521 c -0.677644,0.691944 1.189243,3.352035 2.052005,2.598228 z" style="stroke-opacity:0.50199998;stroke-width:1.13370335"/><path d="m 8.187 43.662 c 1.339 1.502 5.058 2.182 6.707 -0.728 0.719 -1.269 2.129 -4.822 8.421 -10.532 1.057 -0.958 2.176 -3.149 1.227 -4.331 l -2.456 -2.477 c -1 -1.126 -3.798 -0.601 -4.944 0.975 -3.416 4.713 -8.996 8.465 -10.254 8.918 -2.408 0.867 -2.137 4.446 -0.544 6.149 l 1.842 2.026 z"/></g></g></svg>