<?xml version="1.0" encoding="UTF-8" standalone="no"?>
<svg
   xmlns:dc="http://purl.org/dc/elements/1.1/"
   xmlns:cc="http://creativecommons.org/ns#"
   xmlns:rdf="http://www.w3.org/1999/02/22-rdf-syntax-ns#"
   xmlns:svg="http://www.w3.org/2000/svg"
   xmlns="http://www.w3.org/2000/svg"
   xmlns:sodipodi="http://sodipodi.sourceforge.net/DTD/sodipodi-0.dtd"
   xmlns:inkscape="http://www.inkscape.org/namespaces/inkscape"
   viewBox="0 0 256 256"
   id="svg2"
   version="1.1"
   inkscape:version="0.48.4 r9939"
   width="100%"
   height="100%"
   sodipodi:docname="format-node-smooth.svg">
  <metadata
     id="metadata16">
    <rdf:RDF>
      <cc:Work
         rdf:about="">
        <dc:format>image/svg+xml</dc:format>
        <dc:type
           rdf:resource="http://purl.org/dc/dcmitype/StillImage" />
        <dc:title></dc:title>
      </cc:Work>
    </rdf:RDF>
  </metadata>
  <sodipodi:namedview
     pagecolor="#ffffff"
     bordercolor="#666666"
     borderopacity="1"
     objecttolerance="10"
     gridtolerance="10"
     guidetolerance="10"
     inkscape:pageopacity="0"
     inkscape:pageshadow="2"
     inkscape:window-width="698"
     inkscape:window-height="768"
     id="namedview14"
     showgrid="false"
     inkscape:zoom="0.921875"
     inkscape:cx="122.52342"
     inkscape:cy="128"
     inkscape:window-x="580"
     inkscape:window-y="25"
     inkscape:window-maximized="0"
     inkscape:current-layer="svg2" />
  <defs
     id="defs4">
    <clipPath
       id="clipPath6">
      <path
         d="M 0,64 H64 V128 H0 z"
         id="path8" />
    </clipPath>
  </defs>
  <g
     style="color:#000000"
     id="g10"
     transform="matrix(1,0,0,-1,0,255.99239)">
    <path
       d="m -1360.14,1641.33 c 46.11,-98.28 -119.59,-146.07 -181.85,-106.06 -62.25,40.01 -83.52,108.58 -13.01,143.08 70.51,34.501 148.75,61.26 194.86,-37.03 z"
       transform="matrix(1.03665,0,0,-1.35742,1657.71,2320.79)"
       style="fill:#9acd32"
       id="path12"
       inkscape:connector-curvature="0" />
  </g>
  <g
     style="enable-background:new"
     id="g3913"
     transform="matrix(10.830462,0,0,10.491474,11.576372,1.2424169)">
    <g
       transform="translate(-265,38)"
       id="layer12">
      <g
         transform="translate(-113.86,-578.08)"
         id="layer1"
         style="opacity:0.5">
        <g
           transform="matrix(0.026144,0,0,0.028027,381.86,542.5)"
           id="g4240">
          <g
             id="g4186">
            <g
               id="g4188">
              <path
                 d="m 175.2,239.62 c 0.127,-1.965 -0.533,-3.902 -1.833,-5.381 l -58.84,-66.941 c -1.3,-1.479 -3.135,-2.381 -5.102,-2.508 -1.975,-0.126 -3.902,0.533 -5.381,1.833 -27.037,23.766 -49.479,51.794 -66.706,83.305 -0.944,1.729 -1.165,3.762 -0.611,5.651 0.554,1.89 1.836,3.483 3.565,4.427 l 78.205,42.748 c 1.131,0.619 2.352,0.912 3.557,0.912 2.627,0 5.174,-1.398 6.523,-3.866 11.386,-20.828 26.229,-39.359 44.114,-55.08 1.482,-1.298 2.384,-3.133 2.509,-5.1 z"
                 id="path4190"
                 inkscape:connector-curvature="0" />
              <path
                 d="m 201.46,214.83 c 1.334,2.515 3.907,3.948 6.568,3.948 1.174,0 2.365,-0.279 3.473,-0.867 20.962,-11.117 43.512,-18.371 67.025,-21.561 4.064,-0.551 6.913,-4.293 6.362,-8.358 l -11.98,-88.315 c -0.551,-4.064 -4.304,-6.909 -8.358,-6.362 -35.708,4.843 -69.949,15.857 -101.77,32.736 -3.623,1.922 -5.002,6.416 -3.082,10.041 l 41.763,78.739 z"
                 id="path4192"
                 inkscape:connector-curvature="0" />
              <path
                 d="M 105.78,334.34 19.768,311.01 c -1.901,-0.514 -3.929,-0.255 -5.638,0.725 -1.709,0.98 -2.958,2.598 -3.475,4.499 C 3.586,342.304 0,369.314 0,396.524 c 0,4.657 0.111,9.329 0.342,14.284 0.185,3.981 3.468,7.083 7.414,7.083 0.116,0 0.234,-0.002 0.35,-0.008 l 89.031,-4.113 c 1.967,-0.09 3.82,-0.96 5.145,-2.415 1.327,-1.455 2.022,-3.38 1.93,-5.347 -0.155,-3.341 -0.23,-6.444 -0.23,-9.484 0,-18.02 2.365,-35.873 7.029,-53.066 1.071,-3.958 -1.268,-8.037 -5.226,-9.112 z"
                 id="path4194"
                 inkscape:connector-curvature="0" />
              <path
                 d="M 438.73,120.74 C 406.32,105.12 371.69,95.437 335.81,91.959 c -1.972,-0.198 -3.918,0.408 -5.439,1.659 -1.521,1.252 -2.481,3.056 -2.671,5.018 l -8.593,88.712 c -0.396,4.082 2.594,7.713 6.677,8.108 23.652,2.291 46.463,8.669 67.8,18.954 1.015,0.49 2.118,0.738 3.225,0.738 0.826,0 1.654,-0.139 2.45,-0.416 1.859,-0.649 3.385,-2.012 4.24,-3.786 l 38.7,-80.287 c 1.783,-3.694 0.232,-8.134 -3.464,-9.914 z"
                 id="path4196"
                 inkscape:connector-curvature="0" />
              <path
                 d="m 569.64,245.34 c 0.48,-1.911 0.184,-3.932 -0.828,-5.624 -18.432,-30.835 -41.933,-57.983 -69.848,-80.686 -1.529,-1.242 -3.48,-1.824 -5.447,-1.627 -1.959,0.203 -3.758,1.174 -5,2.702 l -56.237,69.144 c -1.242,1.529 -1.828,3.488 -1.625,5.447 0.201,1.959 1.173,3.758 2.702,5.002 18.47,15.019 34.015,32.975 46.205,53.369 1.392,2.326 3.855,3.618 6.383,3.618 1.297,0 2.61,-0.34 3.803,-1.054 l 76.5,-45.72 c 1.689,-1.011 2.909,-2.652 3.391,-4.563 z"
                 id="path4198"
                 inkscape:connector-curvature="0" />
              <path
                 d="m 598.04,304.94 c -1.228,-3.915 -5.397,-6.096 -9.308,-4.867 l -85.048,26.648 c -3.915,1.226 -6.093,5.393 -4.867,9.306 6.104,19.486 9.199,39.839 9.199,60.494 0,3.041 -0.076,6.144 -0.23,9.484 -0.092,1.967 0.602,3.892 1.93,5.347 1.327,1.456 3.178,2.325 5.145,2.415 l 89.031,4.113 c 0.118,0.005 0.234,0.008 0.35,0.008 3.944,0 7.228,-3.103 7.414,-7.083 0.229,-4.955 0.342,-9.627 0.342,-14.284 -0.002,-31.214 -4.696,-62.026 -13.958,-91.581 z"
                 id="path4200"
                 inkscape:connector-curvature="0" />
              <path
                 d="m 305.74,380.76 c -1.281,0 -2.555,0.042 -3.824,0.11 l -120.66,-71.19 c -2.953,-1.745 -6.702,-1.308 -9.176,1.065 -2.476,2.371 -3.07,6.099 -1.456,9.121 l 65.815,123.36 c -0.242,2.376 -0.371,4.775 -0.371,7.195 0,18.608 7.246,36.101 20.403,49.258 13.158,13.158 30.652,20.404 49.26,20.404 18.608,0 36.101,-7.248 49.258,-20.404 13.158,-13.157 20.403,-30.65 20.403,-49.258 0,-18.608 -7.246,-36.101 -20.403,-49.258 C 341.832,388.006 324.337,380.76 305.73,380.76 z"
                 id="path4202"
                 inkscape:connector-curvature="0" />
            </g>
          </g>
        </g>
      </g>
    </g>
  </g>
  <path
     style="fill:#ffffff;fill-opacity:1;fill-rule:evenodd;stroke:#ffffff;stroke-width:5.93789816;stroke-miterlimit:4;stroke-opacity:1;stroke-dasharray:none"
     d="m 121.23245,175.98371 c -5.14908,-3.11685 -9.31088,-9.67985 -9.37911,-14.79049 -0.0342,-2.56303 -3.18714,-9.96454 -9.70376,-22.77966 -5.309183,-10.44068 -9.260189,-19.38055 -8.780012,-19.86638 0.480178,-0.48583 8.627412,3.86577 18.104972,9.67022 11.28113,6.90903 18.91763,10.86887 22.11328,11.46663 17.78028,3.32589 21.90242,26.0819 6.59343,36.39863 -5.05837,3.40884 -13.22433,3.3662 -18.9488,-0.099 l 0,0 z"
     id="path3927"
     inkscape:connector-curvature="0" />
  <path
     style="fill:#ffffff;fill-opacity:1;fill-rule:evenodd;stroke:#ffffff;stroke-width:5.93789816;stroke-miterlimit:4;stroke-opacity:1;stroke-dasharray:none"
     d="m 45.268336,148.44436 c -1.62397,-1.62397 0.554954,-25.12277 2.642741,-28.50088 0.713798,-1.15495 3.157762,-0.81573 12.520601,1.73785 6.398523,1.7451 12.258624,3.66104 13.022444,4.25765 1.114725,0.8707 1.137845,3.04712 0.117165,11.02956 -0.69938,5.46964 -1.515668,10.16306 -1.813973,10.42981 -0.854327,0.76397 -25.786487,1.7485 -26.488978,1.04601 z"
     id="path3929"
     inkscape:connector-curvature="0" />
  <path
     style="fill:#ffffff;fill-opacity:1;fill-rule:evenodd;stroke:#ffffff;stroke-width:5.93789816;stroke-miterlimit:4;stroke-opacity:1;stroke-dasharray:none"
     d="m 67.147145,109.07872 c -6.41356,-3.60517 -11.661017,-7.04629 -11.661017,-7.64693 0,-5.243068 18.225055,-27.783751 20.480109,-25.329723 0.51721,0.562846 4.013298,4.684374 7.769084,9.15895 3.755786,4.474576 7.521704,8.953919 8.368706,9.954095 1.366963,1.614167 1.058917,2.345485 -2.741503,6.508478 -2.354828,2.57948 -5.576988,6.76455 -7.160356,9.30014 -1.583366,2.53559 -2.994759,4.6101 -3.136428,4.61001 -0.141668,-9e-5 -5.505036,-2.94985 -11.918595,-6.55502 z"
     id="path3931"
     inkscape:connector-curvature="0" />
  <path
     style="fill:#ffffff;fill-opacity:1;fill-rule:evenodd;stroke:#ffffff;stroke-width:5.93789816;stroke-miterlimit:4;stroke-opacity:1;stroke-dasharray:none"
     d="m 96.173155,78.770611 c -3.28634,-6.552775 -5.975163,-12.594359 -5.975163,-13.425742 0,-1.705214 6.726564,-4.806439 17.741378,-8.179512 10.18965,-3.120383 12.31894,-3.005073 13.03366,0.705829 1.4951,7.762661 3.07532,23.073955 2.52847,24.499047 -0.33647,0.876828 -3.10218,2.128329 -6.14601,2.781115 -3.04384,0.652786 -7.45122,2.164849 -9.79418,3.36014 -2.34297,1.195292 -4.51938,2.173258 -4.83647,2.173258 -0.31709,0 -3.265345,-5.361362 -6.551685,-11.914135 z"
     id="path3933"
     inkscape:connector-curvature="0" />
  <path
     style="fill:#ffffff;fill-opacity:1;fill-rule:evenodd;stroke:#ffffff;stroke-width:5.93789816;stroke-miterlimit:4;stroke-opacity:1;stroke-dasharray:none"
     d="m 148.77426,86.76579 c -3.87796,-1.381991 -8.08938,-2.529992 -9.3587,-2.551114 -4.13459,-0.0688 -4.5517,-1.946415 -3.3822,-15.224845 0.60428,-6.861017 1.53255,-13.025947 2.06282,-13.699843 2.47804,-3.149221 30.24814,5.378266 30.1679,9.263791 -0.0468,2.266135 -10.49773,24.446373 -11.59268,24.603375 -0.46546,0.06674 -4.01917,-1.009371 -7.89714,-2.391364 z"
     id="path3935"
     inkscape:connector-curvature="0" />
  <path
     style="fill:#ffffff;fill-opacity:1;fill-rule:evenodd;stroke:#ffffff;stroke-width:5.93789816;stroke-miterlimit:4;stroke-opacity:1;stroke-dasharray:none"
     d="m 178.81126,110.26761 c -1.03862,-1.75824 -4.31443,-5.85126 -7.27958,-9.09561 l -5.39118,-5.898809 8.71096,-11.018889 8.71097,-11.018888 3.24652,2.311729 c 3.13603,2.233053 12.87516,13.821318 16.44337,19.565425 0.95688,1.540388 1.41619,3.286708 1.02069,3.880713 -0.69517,1.044089 -22.12249,14.471129 -23.09352,14.471129 -0.26391,0 -1.32962,-1.43856 -2.36823,-3.1968 z"
     id="path3937"
     inkscape:connector-curvature="0" />
  <path
     style="fill:#ffffff;fill-opacity:1;fill-rule:evenodd;stroke:#ffffff;stroke-width:5.93789816;stroke-miterlimit:4;stroke-opacity:1;stroke-dasharray:none"
     d="m 199.75846,148.23982 -10.30395,-0.60592 -0.73603,-4.33898 c -1.735,-10.22796 -2.7495,-18.49355 -2.35518,-19.18887 0.66743,-1.17691 25.16676,-8.99319 25.89757,-8.26238 2.1518,2.1518 5.60701,28.01913 4.22404,31.6231 -0.43377,1.13037 -1.74932,1.71742 -3.55552,1.58661 -1.57684,-0.1142 -7.50377,-0.4803 -13.17093,-0.81356 z"
     id="path3939"
     inkscape:connector-curvature="0" />
</svg>
