<?xml version="1.0" encoding="UTF-8" standalone="no"?>
<svg
   xmlns:dc="http://purl.org/dc/elements/1.1/"
   xmlns:cc="http://creativecommons.org/ns#"
   xmlns:rdf="http://www.w3.org/1999/02/22-rdf-syntax-ns#"
   xmlns:svg="http://www.w3.org/2000/svg"
   xmlns="http://www.w3.org/2000/svg"
   xmlns:sodipodi="http://sodipodi.sourceforge.net/DTD/sodipodi-0.dtd"
   xmlns:inkscape="http://www.inkscape.org/namespaces/inkscape"
   viewBox="0 0 256 256"
   id="svg2"
   version="1.1"
   inkscape:version="0.48.4 r9939"
   width="100%"
   height="100%"
   sodipodi:docname="amarok_cart_view.svg">
  <metadata
     id="metadata10">
    <rdf:RDF>
      <cc:Work
         rdf:about="">
        <dc:format>image/svg+xml</dc:format>
        <dc:type
           rdf:resource="http://purl.org/dc/dcmitype/StillImage" />
        <dc:title></dc:title>
      </cc:Work>
    </rdf:RDF>
  </metadata>
  <defs
     id="defs8" />
  <sodipodi:namedview
     pagecolor="#ffffff"
     bordercolor="#666666"
     borderopacity="1"
     objecttolerance="10"
     gridtolerance="10"
     guidetolerance="10"
     inkscape:pageopacity="0"
     inkscape:pageshadow="2"
     inkscape:window-width="698"
     inkscape:window-height="501"
     id="namedview6"
     showgrid="false"
     inkscape:zoom="0.921875"
     inkscape:cx="134.01101"
     inkscape:cy="128"
     inkscape:window-x="580"
     inkscape:window-y="25"
     inkscape:window-maximized="0"
     inkscape:current-layer="svg2" />
  <path
     d="m 233.98,203.4688 c -48.541,88.14 -200.63,53.931 -226.36,-18.64 -30.66,-86.449996 49.14,-250.629996 184.3,-154.449996 45.527,33.585 90.6,84.948996 42.05,173.089996 z"
     style="color:#000000;fill:#9acd32"
     id="path4"
     inkscape:connector-curvature="0" />
  <g
     style="enable-background:new"
     id="g3032"
     transform="matrix(8.5157385,0,0,8.8256658,54.992736,64.445528)">
    <g
       transform="translate(-265,19.003)"
       id="layer12">
      <path
         transform="translate(265,-19.003)"
         d="m 1,1 v 2 2.0039 2 2 2.0001 1.996 2 h 2 10 2 v -2 -1.996 -2.0001 -2 -2 V 3 1 H 13 3 1 z M 3,3 H 13 V 5.0039 H 3 V 3 z m 0,4.0039 h 10 v 2 H 3 v -2 z M 3,11.004 H 13 V 13 H 3 v -1.996 z"
         id="rect10753"
         inkscape:connector-curvature="0"
         style="opacity:0.5" />
    </g>
  </g>
  <path
     style="fill:#ffffff;fill-opacity:1;fill-rule:evenodd;stroke:#ffffff;stroke-width:5.93789816;stroke-miterlimit:4;stroke-opacity:1;stroke-dasharray:none"
     d="m 63.719486,135.2678 0,-61.288139 59.118644,0 59.11864,0 0,61.288139 0,61.28813 -59.11864,0 -59.118644,0 0,-61.28813 z m 101.966104,34.71186 0,-9.22034 -42.84746,0 -42.847457,0 0,9.22034 0,9.22034 42.847457,0 42.84746,0 0,-9.22034 z m 0,-34.71186 0,-9.22034 -42.84746,0 -42.847457,0 0,9.22034 0,9.22034 42.847457,0 42.84746,0 0,-9.22034 z m 0,-35.796614 0,-9.220339 -42.84746,0 -42.847457,0 0,9.220339 0,9.220344 42.847457,0 42.84746,0 0,-9.220344 z"
     id="path3036"
     inkscape:connector-curvature="0" />
</svg>
