<?xml version="1.0" encoding="UTF-8" standalone="no"?>
<svg
   xmlns:dc="http://purl.org/dc/elements/1.1/"
   xmlns:cc="http://creativecommons.org/ns#"
   xmlns:rdf="http://www.w3.org/1999/02/22-rdf-syntax-ns#"
   xmlns:svg="http://www.w3.org/2000/svg"
   xmlns="http://www.w3.org/2000/svg"
   xmlns:sodipodi="http://sodipodi.sourceforge.net/DTD/sodipodi-0.dtd"
   xmlns:inkscape="http://www.inkscape.org/namespaces/inkscape"
   sodipodi:docname="view-time-schedule-child-insert.svg"
   height="100%"
   width="100%"
   inkscape:version="0.48.4 r9939"
   version="1.1"
   id="svg2"
   viewBox="0 0 256 256">
  <metadata
     id="metadata10">
    <rdf:RDF>
      <cc:Work
         rdf:about="">
        <dc:format>image/svg+xml</dc:format>
        <dc:type
           rdf:resource="http://purl.org/dc/dcmitype/StillImage" />
        <dc:title></dc:title>
      </cc:Work>
    </rdf:RDF>
  </metadata>
  <defs
     id="defs8" />
  <sodipodi:namedview
     pagecolor="#ffffff"
     bordercolor="#666666"
     borderopacity="1"
     objecttolerance="10"
     gridtolerance="10"
     guidetolerance="10"
     inkscape:pageopacity="0"
     inkscape:pageshadow="2"
     inkscape:window-width="698"
     inkscape:window-height="774"
     id="namedview6"
     showgrid="false"
     inkscape:zoom="0.98901497"
     inkscape:cx="129.94642"
     inkscape:cy="127.17624"
     inkscape:window-x="580"
     inkscape:window-y="25"
     inkscape:window-maximized="0"
     inkscape:current-layer="svg2" />
  <path
     d="m 53.07102,234.52898 c -88.14,-48.541 -53.93100039,-200.63 18.64,-226.3599998 86.45,-30.6600002 250.63,49.1399998 154.45,184.2999998 -33.585,45.527 -84.949,90.6 -173.09,42.05 z"
     style="color:#000000;fill:#9acd32"
     id="path4"
     inkscape:connector-curvature="0" />
  <g
     style="enable-background:new"
     id="g3552"
     transform="matrix(9.8666302,0,0,10.605517,49.355326,36.173076)">
    <g
       transform="translate(-385,-61)"
       id="layer12">
      <path
         transform="translate(385,61)"
         d="M 6,1 1,15 H 3.5 L 4.5625,12 H 8.0254 A 3.5,3.5 0 0 1 10.996,8.9395 L 8,1 H 6 z m 1,4 1.75,5 H 5.25 L 7,5 z m 4.5,4 V 9.8574 C 10.119,9.8574 9,11.008 9,12.428 9,13.848 10.119,15 11.5,15 c 1.367,0 2.476,-1.129 2.498,-2.529 A 0.41663,0.42857 0 0 0 14,12.428 0.41663,0.42857 0 0 0 13.584,12 0.41663,0.42857 0 0 0 13.166,12.428 c 0,0.947 -0.746,1.715 -1.666,1.715 -0.92,0 -1.666,-0.768 -1.666,-1.715 0,-0.947 0.746,-1.713 1.666,-1.713 v 0.857 L 13.166,10.285 11.5,9 z"
         style="text-indent:0;text-transform:none;block-progression:tb;opacity:0.5;color:#000000;enable-background:accumulate"
         id="path5940"
         inkscape:connector-curvature="0" />
    </g>
  </g>
  <path
     style="fill:#ffffff;fill-opacity:1;fill-rule:evenodd;stroke:#ffffff;stroke-width:5.53480005;stroke-miterlimit:4;stroke-opacity:1;stroke-dasharray:none"
     d="m 60.180037,194.3941 c 0,-0.41706 10.963184,-33.64788 24.36263,-73.84627 l 24.362633,-73.087988 9.64946,0.288232 9.64946,0.288232 9.05395,25.78323 c 21.41184,60.975224 20.04708,56.674404 18.1692,57.257604 -13.17266,4.09093 -23.74488,15.11337 -26.29858,27.41849 l -0.78774,3.79577 -17.17571,0.2757 -17.175708,0.27571 -5.349685,16.15478 -5.349684,16.15479 -11.555114,0 c -6.355311,0 -11.555112,-0.34123 -11.555112,-0.75828 z m 75.820553,-52.57762 c -0.0211,-1.28231 -16.85967,-51.839592 -17.46842,-52.448339 -0.3143,-0.314305 -4.29161,10.931279 -8.83845,24.990179 -4.54685,14.0589 -8.49621,26.15898 -8.77637,26.88907 -0.40863,1.06485 3.01203,1.32742 17.29316,1.32742 9.79141,0 17.79694,-0.34124 17.79008,-0.75833 l 0,0 z"
     id="path3556"
     inkscape:connector-curvature="0" />
  <path
     style="fill:#ffffff;fill-opacity:1;fill-rule:evenodd;stroke:#ffffff;stroke-width:5.53480005;stroke-miterlimit:4;stroke-opacity:1;stroke-dasharray:none"
     d="m 157.9364,194.04133 c -15.03608,-3.53677 -23.50478,-22.97435 -16.47619,-37.81657 3.91343,-8.26395 12.30602,-14.66105 19.23437,-14.66105 2.21271,0 2.53806,-0.48806 2.81302,-4.21975 l 0.31091,-4.21975 6.57219,5.38793 c 3.61471,2.96337 6.92773,5.69553 7.36228,6.07149 0.43454,0.37596 -2.6367,3.49607 -6.82498,6.93359 l -7.61504,6.25004 0,-4.18964 0,-4.18965 -3.54849,0.57584 c -15.6251,2.53561 -18.60126,27.30078 -4.17725,34.75972 3.77225,1.95071 10.74505,1.91093 14.60148,-0.0833 5.3492,-2.76618 7.7037,-6.85312 9.75282,-16.92898 0.62641,-3.08016 3.22105,-4.45995 5.23839,-2.78571 4.43196,3.6782 -1.47691,19.83834 -9.19556,25.14892 -3.54454,2.4387 -11.43316,5.29357 -13.6825,4.95165 -0.27806,-0.0423 -2.24251,-0.48542 -4.36545,-0.98477 z"
     id="path3560"
     inkscape:connector-curvature="0" />
</svg>
