<?xml version="1.0" encoding="UTF-8" standalone="no"?>
<svg
   xmlns:dc="http://purl.org/dc/elements/1.1/"
   xmlns:cc="http://creativecommons.org/ns#"
   xmlns:rdf="http://www.w3.org/1999/02/22-rdf-syntax-ns#"
   xmlns:svg="http://www.w3.org/2000/svg"
   xmlns="http://www.w3.org/2000/svg"
   xmlns:sodipodi="http://sodipodi.sourceforge.net/DTD/sodipodi-0.dtd"
   xmlns:inkscape="http://www.inkscape.org/namespaces/inkscape"
   viewBox="0 0 256 256"
   id="svg2"
   version="1.1"
   inkscape:version="0.48.4 r9939"
   width="100%"
   height="100%"
   sodipodi:docname="format-precision-less.svg">
  <metadata
     id="metadata16">
    <rdf:RDF>
      <cc:Work
         rdf:about="">
        <dc:format>image/svg+xml</dc:format>
        <dc:type
           rdf:resource="http://purl.org/dc/dcmitype/StillImage" />
        <dc:title></dc:title>
      </cc:Work>
    </rdf:RDF>
  </metadata>
  <sodipodi:namedview
     pagecolor="#ffffff"
     bordercolor="#666666"
     borderopacity="1"
     objecttolerance="10"
     gridtolerance="10"
     guidetolerance="10"
     inkscape:pageopacity="0"
     inkscape:pageshadow="2"
     inkscape:window-width="698"
     inkscape:window-height="768"
     id="namedview14"
     showgrid="false"
     inkscape:zoom="0.921875"
     inkscape:cx="121.98899"
     inkscape:cy="128"
     inkscape:window-x="580"
     inkscape:window-y="25"
     inkscape:window-maximized="0"
     inkscape:current-layer="svg2" />
  <defs
     id="defs4">
    <clipPath
       id="clipPath6">
      <path
         d="M 0,64 H64 V128 H0 z"
         id="path8" />
    </clipPath>
    <style
       type="text/css"
       id="current-color-scheme">.ColorScheme-Text {
        color:#4d4d4d;
      }
      .ColorScheme-Background {
        color:#eff0f1;
      }
      .ColorScheme-Highlight {
        color:#3daee9;
      }
      .ColorScheme-ViewText {
        color:#31363b;
      }
      .ColorScheme-ViewBackground {
        color:#fcfcfc;
      }
      .ColorScheme-ViewHover {
        color:#93cee9;
      }
      .ColorScheme-ViewFocus{
        color:#3daee9;
      }
      .ColorScheme-ButtonText {
        color:#31363b;
      }
      .ColorScheme-ButtonBackground {
        color:#eff0f1;
      }
      .ColorScheme-ButtonHover {
        color:#93cee9;
      }
      .ColorScheme-ButtonFocus{
        color:#3daee9;
      }</style>
  </defs>
  <g
     style="color:#000"
     id="g10">
    <path
       d="m -1360.14 1641.33 c 46.11 -98.28 -119.59 -146.07 -181.85 -106.06 -62.25 40.01 -83.52 108.58 -13.01 143.08 70.51 34.501 148.75 61.26 194.86 -37.03 z"
       transform="matrix(1.03665 0 0 -1.35742 1657.71 2320.79)"
       style="fill:#9acd32"
       id="path12" />
  </g>
  <g
     style="enable-background:new"
     id="g3485"
     transform="matrix(10.261943,0,0,9.9531238,49.441271,43.764403)">
    <g
       transform="translate(-445,59.003)"
       id="layer12">
      <path
         d="m 451.95,-56.961 c -0.23122,0.04133 -0.51686,0.2847 -0.72461,0.64453 l -5,8.6602 c -0.277,0.47978 -0.30627,0.97869 -0.0664,1.1172 l 4.3301,2.5 c 0.23989,0.1385 0.65659,-0.13741 0.93359,-0.61719 l 5,-8.6602 c 0.277,-0.47978 0.30628,-0.97673 0.0664,-1.1152 l -4.3301,-2.5 c -0.06,-0.03462 -0.13191,-0.04307 -0.20899,-0.0293 z m 4.5469,6.957 c -0.10352,0.28441 -0.24339,0.56328 -0.39453,0.83594 -0.77027,1.3501 -1.9755,2.273 -2.0918,3.125 -0.003,0.01273 -0.0111,0.02638 -0.0137,0.03906 l 0.01,0.0039 c -0.002,0.02931 -0.01,0.05866 -0.01,0.08789 0,1.0543 1.1193,1.9082 2.5,1.9082 1.3807,0 2.5,-0.85387 2.5,-1.9082 0,-0.02923 -0.007,-0.05859 -0.01,-0.08789 l 0.01,-0.0039 c -0.002,-0.01264 -0.0105,-0.02633 -0.0137,-0.03906 -0.11628,-0.85206 -1.3215,-1.7769 -2.0918,-3.127 -0.15114,-0.27266 -0.29102,-0.54957 -0.39453,-0.83398 z"
         style="opacity:0.5;color:#bebebe"
         id="path3340"
         inkscape:connector-curvature="0" />
      <g
         transform="matrix(0.5,0,0,0.42856,242.64,-278.34)"
         id="layer1"
         style="fill:currentColor">
        <rect
           height="11"
           x="404.70999"
           y="534.78998"
           width="0"
           class="ColorScheme-Text"
           style="color:#4d4d4d"
           id="rect4035" />
        <rect
           height="11"
           x="422.76001"
           y="532.73999"
           width="0"
           class="ColorScheme-Text"
           style="color:#4d4d4d"
           id="rect4035-5" />
        <rect
           height="11"
           x="404.70999"
           y="534.78998"
           width="0"
           class="ColorScheme-Text"
           style="color:#4d4d4d"
           id="rect4035-8" />
        <rect
           height="11"
           x="404.70999"
           y="534.78998"
           width="0"
           class="ColorScheme-Text"
           style="color:#4d4d4d"
           id="rect4035-59" />
      </g>
    </g>
  </g>
  <path
     style="fill:#ffffff;fill-opacity:1;fill-rule:evenodd;stroke:#ffffff;stroke-width:5.93789816;stroke-miterlimit:4;stroke-opacity:1;stroke-dasharray:none"
     d="M 83.697463,179.74587 C 62.867053,168.01786 60.891157,166.65214 60.606415,163.78562 60.362826,161.33338 66.120805,150.84931 87.051936,115.6339 113.14403,71.735461 117.83355,64.650847 120.79912,64.650847 c 1.84954,0 46.17121,24.82509 47.19219,26.432907 0.42264,0.665548 0.47429,2.434481 0.11481,3.930963 -0.35949,1.496482 -12.34742,22.490363 -26.63986,46.653083 -22.90637,38.72537 -31.1943,51.08541 -34.15965,50.94329 -0.45622,-0.0219 -11.080333,-5.81122 -23.609147,-12.86522 z"
     id="path3494"
     inkscape:connector-curvature="0" />
  <path
     style="fill:#ffffff;fill-opacity:1;fill-rule:evenodd;stroke:#ffffff;stroke-width:5.93789816;stroke-miterlimit:4;stroke-opacity:1;stroke-dasharray:none"
     d="m 157.05834,190.63729 c -10.22136,-3.65039 -15.89449,-11.86582 -13.84174,-20.04465 0.36589,-1.45781 3.72657,-6.48769 7.46818,-11.17753 9.6716,-12.12266 12.13712,-15.56079 14.57288,-20.32172 l 2.14956,-4.20153 3.2983,5.82865 c 1.81406,3.20575 7.22571,10.83377 12.02588,16.95114 10.29414,13.11894 11.20361,15.82231 7.64657,22.72931 -5.16412,10.02762 -20.61379,14.77401 -33.31963,10.23633 l 0,0 z"
     id="path3496"
     inkscape:connector-curvature="0" />
</svg>
