<?xml version="1.0" encoding="UTF-8" standalone="no"?>
<svg
   xmlns:dc="http://purl.org/dc/elements/1.1/"
   xmlns:cc="http://creativecommons.org/ns#"
   xmlns:rdf="http://www.w3.org/1999/02/22-rdf-syntax-ns#"
   xmlns:svg="http://www.w3.org/2000/svg"
   xmlns="http://www.w3.org/2000/svg"
   xmlns:sodipodi="http://sodipodi.sourceforge.net/DTD/sodipodi-0.dtd"
   xmlns:inkscape="http://www.inkscape.org/namespaces/inkscape"
   sodipodi:docname="labplot-axis-horizontal.svg"
   height="100%"
   width="100%"
   inkscape:version="0.48.4 r9939"
   version="1.1"
   id="svg2"
   viewBox="0 0 256 256">
  <metadata
     id="metadata10">
    <rdf:RDF>
      <cc:Work
         rdf:about="">
        <dc:format>image/svg+xml</dc:format>
        <dc:type
           rdf:resource="http://purl.org/dc/dcmitype/StillImage" />
        <dc:title></dc:title>
      </cc:Work>
    </rdf:RDF>
  </metadata>
  <defs
     id="defs8">
    <style
       type="text/css"
       id="current-color-scheme">.ColorScheme-Text {
        color:#4d4d4d;
      }
      .ColorScheme-Background {
        color:#eff0f1;
      }
      .ColorScheme-Highlight {
        color:#3daee9;
      }
      .ColorScheme-ViewText {
        color:#31363b;
      }
      .ColorScheme-ViewBackground {
        color:#fcfcfc;
      }
      .ColorScheme-ViewHover {
        color:#93cee9;
      }
      .ColorScheme-ViewFocus{
        color:#3daee9;
      }
      .ColorScheme-ButtonText {
        color:#31363b;
      }
      .ColorScheme-ButtonBackground {
        color:#eff0f1;
      }
      .ColorScheme-ButtonHover {
        color:#93cee9;
      }
      .ColorScheme-ButtonFocus{
        color:#3daee9;
      }</style>
  </defs>
  <sodipodi:namedview
     pagecolor="#ffffff"
     bordercolor="#666666"
     borderopacity="1"
     objecttolerance="10"
     gridtolerance="10"
     guidetolerance="10"
     inkscape:pageopacity="0"
     inkscape:pageshadow="2"
     inkscape:window-width="698"
     inkscape:window-height="774"
     id="namedview6"
     showgrid="false"
     inkscape:zoom="0.98901497"
     inkscape:cx="129.94642"
     inkscape:cy="127.17624"
     inkscape:window-x="580"
     inkscape:window-y="25"
     inkscape:window-maximized="0"
     inkscape:current-layer="svg2" />
  <path
     d="m 233.98,203.4688 c -48.541,88.14 -200.63,53.931 -226.36,-18.64 -30.66,-86.449996 49.14,-250.629996 184.3,-154.449996 45.527,33.585 90.6,84.948996 42.05,173.089996 z"
     style="color:#000000;fill:#9acd32"
     id="path4"
     inkscape:connector-curvature="0" />
  <g
     transform="matrix(10.244407,0,0,10.966627,-4271.6914,-5790.0638)"
     id="layer1">
    <path
       transform="translate(421.71,531.79)"
       d="m 1,1 v 14 h 1 12 1 V 12 H 14 V 11 H 13 V 8 H 12 V 6 H 11 V 9 H 10 V 7 H 9 V 5 H 8 V 2 H 7 V 4 H 6 V 6 H 5 V 7 H 4 V 8 H 3 V 4 H 2 V 1 H 1 z"
       style="opacity:0.5;color:#4d4d4d"
       id="rect4223"
       inkscape:connector-curvature="0" />
  </g>
  <path
     style="fill:#ffffff;fill-opacity:1;fill-rule:evenodd;stroke:#ffffff;stroke-width:5.53480005;stroke-miterlimit:4;stroke-opacity:1;stroke-dasharray:none"
     d="m 59.16893,129.93598 0,-76.338585 4.549982,0 4.549981,0 0,16.177713 0,16.177713 5.055536,0 5.055535,0 0,22.244359 0,22.24435 5.561089,0 5.561088,0 0,-5.56109 0,-5.56109 5.561089,0 5.56109,0 0,-5.56109 0,-5.56108 5.05553,0 5.05554,0 0,-11.122182 0,-11.122177 5.05553,0 5.05554,0 0,-10.616624 0,-10.616624 4.54998,0 4.54998,0 0,16.177712 0,16.177713 5.05554,0 5.05553,0 0,11.122182 0,11.12217 5.02133,0 5.02133,0 0.28698,10.8694 0.28699,10.8694 5.05553,0 5.05554,0 0.27782,-16.43049 0.27782,-16.43048 5.03049,0 5.03049,0 0,11.12217 0,11.12218 5.05554,0 5.05553,0 0,16.17771 0,16.17772 5.05554,0 5.05553,0 0,5.56108 0,5.56109 5.05554,0 5.05553,0 0,16.17772 0,16.17771 -71.28304,0 -71.28305,0 0,-76.33858 z"
     id="path3720"
     inkscape:connector-curvature="0" />
</svg>
