<?xml version="1.0" encoding="UTF-8" standalone="no"?>
<svg
   xmlns:dc="http://purl.org/dc/elements/1.1/"
   xmlns:cc="http://creativecommons.org/ns#"
   xmlns:rdf="http://www.w3.org/1999/02/22-rdf-syntax-ns#"
   xmlns:svg="http://www.w3.org/2000/svg"
   xmlns="http://www.w3.org/2000/svg"
   xmlns:sodipodi="http://sodipodi.sourceforge.net/DTD/sodipodi-0.dtd"
   xmlns:inkscape="http://www.inkscape.org/namespaces/inkscape"
   viewBox="0 0 256 256"
   id="svg2"
   version="1.1"
   inkscape:version="0.48.4 r9939"
   width="100%"
   height="100%"
   sodipodi:docname="labplot-xy-fit-curve.svg">
  <metadata
     id="metadata16">
    <rdf:RDF>
      <cc:Work
         rdf:about="">
        <dc:format>image/svg+xml</dc:format>
        <dc:type
           rdf:resource="http://purl.org/dc/dcmitype/StillImage" />
        <dc:title></dc:title>
      </cc:Work>
    </rdf:RDF>
  </metadata>
  <sodipodi:namedview
     pagecolor="#ffffff"
     bordercolor="#666666"
     borderopacity="1"
     objecttolerance="10"
     gridtolerance="10"
     guidetolerance="10"
     inkscape:pageopacity="0"
     inkscape:pageshadow="2"
     inkscape:window-width="698"
     inkscape:window-height="768"
     id="namedview14"
     showgrid="false"
     inkscape:zoom="0.921875"
     inkscape:cx="121.98899"
     inkscape:cy="128"
     inkscape:window-x="580"
     inkscape:window-y="25"
     inkscape:window-maximized="0"
     inkscape:current-layer="svg2" />
  <defs
     id="defs4">
    <clipPath
       id="clipPath6">
      <path
         d="M 0,64 H64 V128 H0 z"
         id="path8" />
    </clipPath>
    <filter
       style="color-interpolation-filters:sRGB"
       id="filter7554">
      <feBlend
         mode="darken"
         in2="BackgroundImage"
         id="feBlend7556" />
    </filter>
  </defs>
  <g
     style="color:#000"
     id="g10">
    <path
       d="m -1360.14 1641.33 c 46.11 -98.28 -119.59 -146.07 -181.85 -106.06 -62.25 40.01 -83.52 108.58 -13.01 143.08 70.51 34.501 148.75 61.26 194.86 -37.03 z"
       transform="matrix(1.03665 0 0 -1.35742 1657.71 2320.79)"
       style="fill:#9acd32"
       id="path12" />
  </g>
  <g
     style="enable-background:new"
     id="g3190"
     transform="matrix(7.8474576,0,0,8.1587641,69.016953,61.366322)">
    <g
       transform="translate(-444,-588)"
       id="g6058">
      <g
         transform="translate(121,-41)"
         id="g5431"
         style="opacity:0.5">
        <g
           id="g5436">
          <path
             transform="translate(323,629)"
             d="M 10.029,1 C 9.8819,1.003 9.7293,1.017 9.5703,1.0391 9.0034,1.1179 8.3187,1.3915 7.5547,1.7988 6.0141,0.94568 4.8138,0.89375 3.8066,1.1543 2.7378,1.4308 1.8689,1.8843 0.5156,1.8438 L 0,1.8281 v 0.5196 10.396 3.256 h 11.787 c -0.483,-0.533 -0.787,-1.231 -0.787,-2 0,-1.184 0.708,-2.209 1.715,-2.695 -0.487,-0.137 -0.98,-0.286 -1.526,-0.422 C 10.21,10.6377 9.0982,10.6957 8,11.3667 V 2.6696 C 8.7033,2.2841 9.2454,2.0714 9.6797,2.0075 9.9189,1.9723 10.132,1.9754 10.338,2.0017 c 0.206,0.0265 0.405,0.0771 0.611,0.1386 0.535,0.1598 1.194,0.4126 2.051,0.5606 v 8.4868 c 0.315,-0.114 0.648,-0.188 1,-0.188 0.352,0 0.685,0.074 1,0.188 V 1.8454 L 14.482,1.863 C 12.966,1.9182 12.212,1.4643 11.232,1.1716 10.865,1.0618 10.471,0.99068 10.029,0.9997 z M 5.2188,1.9941 C 5.7177,2.0327 6.2822,2.2135 7,2.6094 V 11.336 C 5.8956,10.694 4.7902,10.646 3.8164,10.889 3.1632,11.051 2.5692,11.238 2,11.389 V 2.6641 C 2.8021,2.5161 3.4741,2.283 4.0547,2.1328 4.2858,2.073 4.5091,2.024 4.7383,2 4.8933,1.9838 5.0524,1.9813 5.2188,1.9941 z M 14,12.0001 a 2,2 0 0 0 -2,2 2,2 0 0 0 2,2 2,2 0 0 0 2,-2 2,2 0 0 0 -2,-2 z"
             style="text-indent:0;text-transform:none;block-progression:tb;color:#000000;enable-background:accumulate"
             id="rect2996"
             inkscape:connector-curvature="0" />
        </g>
      </g>
    </g>
  </g>
  <path
     style="fill:#ffffff;fill-opacity:1;fill-rule:evenodd;stroke:#ffffff;stroke-width:5.93789816;stroke-miterlimit:4;stroke-opacity:1;stroke-dasharray:none"
     d="m 69.053395,134.22958 0,-57.336524 8.40678,-0.617047 c 4.623729,-0.339375 11.335593,-1.694889 14.915254,-3.012252 9.879541,-3.635804 20.908071,-3.488542 29.329721,0.391632 l 6.55007,3.017862 6.46688,-2.961051 c 9.6035,-4.397238 15.34649,-4.499484 27.49189,-0.489455 7.0869,2.33987 12.27508,3.360306 17.08474,3.360306 l 6.90721,0 0,37.197829 0,37.19783 -7.5782,0.0694 -7.57819,0.0694 -0.28621,-34.13441 -0.28622,-34.13442 -8.67796,-2.548283 c -11.37113,-3.339131 -17.98481,-3.328647 -25.22034,0.03998 l -5.69492,2.651364 0,35.846509 c 0,19.71558 0.18202,35.84652 0.40449,35.84652 0.22246,0 2.78517,-1.0611 5.69491,-2.35801 6.55106,-2.91987 16.07321,-3.11051 23.93741,-0.47924 l 5.63002,1.88375 -4.26951,4.39944 c -4.40786,4.54199 -7.54261,12.34189 -7.52231,18.71704 0.006,1.8307 1.20371,5.89125 2.66196,9.02346 l 2.65136,5.69491 -45.50942,0 -45.509415,0 0,-57.33652 z m 24.28983,18.12088 c 9.882795,-2.99205 19.239155,-3.00433 25.953945,-0.0341 l 5.07826,2.24635 0,-36.1444 0,-36.14441 -5.55526,-2.389807 c -6.57981,-2.830562 -14.35685,-2.657061 -26.708273,0.595844 l -7.856753,2.069176 -0.0077,36.067797 c -0.0042,19.83729 0.30582,36.0678 0.688956,36.0678 0.383135,0 4.166186,-1.05043 8.406779,-2.33429 l 4.8e-5,0 z"
     id="path3196"
     inkscape:connector-curvature="0" />
  <path
     style="fill:#ffffff;fill-opacity:1;fill-rule:evenodd;stroke:#ffffff;stroke-width:5.93789816;stroke-miterlimit:4;stroke-opacity:1;stroke-dasharray:none"
     d="m 173.67758,190.09201 c -4.45881,-2.01183 -8.92601,-7.53039 -9.7798,-12.0815 -0.92191,-4.91419 2.94369,-13.03115 7.54098,-15.83448 6.74238,-4.11138 15.7322,-1.53554 20.19677,5.78694 7.21245,11.82937 -5.65181,27.68162 -17.95795,22.12904 z"
     id="path3198"
     inkscape:connector-curvature="0" />
</svg>
