<?xml version="1.0" encoding="UTF-8" standalone="no"?>
<svg
   xmlns:dc="http://purl.org/dc/elements/1.1/"
   xmlns:cc="http://creativecommons.org/ns#"
   xmlns:rdf="http://www.w3.org/1999/02/22-rdf-syntax-ns#"
   xmlns:svg="http://www.w3.org/2000/svg"
   xmlns="http://www.w3.org/2000/svg"
   xmlns:sodipodi="http://sodipodi.sourceforge.net/DTD/sodipodi-0.dtd"
   xmlns:inkscape="http://www.inkscape.org/namespaces/inkscape"
   sodipodi:docname="view-time-schedule-calculus.svg"
   height="100%"
   width="100%"
   inkscape:version="0.48.4 r9939"
   version="1.1"
   id="svg2"
   viewBox="0 0 256 256">
  <metadata
     id="metadata10">
    <rdf:RDF>
      <cc:Work
         rdf:about="">
        <dc:format>image/svg+xml</dc:format>
        <dc:type
           rdf:resource="http://purl.org/dc/dcmitype/StillImage" />
        <dc:title></dc:title>
      </cc:Work>
    </rdf:RDF>
  </metadata>
  <defs
     id="defs8">
    <filter
       style="color-interpolation-filters:sRGB"
       id="filter7554">
      <feBlend
         mode="darken"
         in2="BackgroundImage"
         id="feBlend7556" />
    </filter>
  </defs>
  <sodipodi:namedview
     pagecolor="#ffffff"
     bordercolor="#666666"
     borderopacity="1"
     objecttolerance="10"
     gridtolerance="10"
     guidetolerance="10"
     inkscape:pageopacity="0"
     inkscape:pageshadow="2"
     inkscape:window-width="698"
     inkscape:window-height="774"
     id="namedview6"
     showgrid="false"
     inkscape:zoom="0.98901497"
     inkscape:cx="129.94642"
     inkscape:cy="127.17624"
     inkscape:window-x="580"
     inkscape:window-y="25"
     inkscape:window-maximized="0"
     inkscape:current-layer="svg2" />
  <path
     d="m 22.010839,53.62 c 48.541,-88.14 200.630001,-53.931 226.360001,18.64 30.66,86.45 -49.14,250.63 -184.300001,154.45 -45.527,-33.585 -90.6,-84.949 -42.05,-173.09 z"
     style="color:#000000;fill:#9acd32"
     id="path4"
     inkscape:connector-curvature="0" />
  <g
     style="enable-background:new"
     id="g3471"
     transform="matrix(8.7231875,0,0,8.8192279,59.166693,50.603758)">
    <g
       transform="translate(-564,-508)"
       id="g6058">
      <path
         d="m 567,509 c -2.25,0 -2,2 -2,2 v 12 h 8 v -2 h -6 v -0.84375 -1.6562 -4.5 h 4 v -2 h -4 v -1 h 10 v 4 h -6 v 2 h 2 4 2 v -6 c 0,-2 -2,-2 -2,-2 h -10 z m 2,9 v 2 h 4 v -2 h -4 z m 4.9922,0 v 6 h 5 v -6 h -5 z m 1,2 h 1 v 1 h -1 v -1 z m 2,0 h 1 v 1 h -1 v -1 z m -2,2 h 1 v 1 h -1 v -1 z m 2,0 h 1 v 1 h -1 v -1 z"
         style="text-indent:0;text-transform:none;block-progression:tb;opacity:0.5;color:#000000;enable-background:new"
         id="path4314"
         inkscape:connector-curvature="0" />
    </g>
  </g>
  <path
     style="fill:#ffffff;fill-opacity:1;fill-rule:evenodd;stroke:#ffffff;stroke-width:5.53480005;stroke-miterlimit:4;stroke-opacity:1;stroke-dasharray:none"
     d="m 68.268893,127.37573 c 0,-58.825547 0.04356,-59.350241 5.287615,-63.694895 4.425254,-3.666285 10.86442,-4.087827 57.960362,-3.794396 50.98315,0.317651 50.65594,0.271955 55.28839,7.721322 2.22047,3.570717 2.30045,4.577949 2.60065,32.753339 l 0.30972,29.06932 -34.43458,0 -34.43459,0 0,-8.07178 0,-8.07179 26.03601,-0.26985 26.036,-0.26984 0.27611,-17.947153 0.27611,-17.94715 -44.51204,0 -44.512044,0 0,4.549982 0,4.549982 17.694374,0 17.69437,0 0,8.594409 0,8.59441 -17.69437,0 -17.694374,0 0,31.34432 0,31.34432 26.288784,0 26.28878,0 0,8.08885 0,8.08886 -34.37764,0 -34.377637,0 0,-54.63226 z"
     id="path3475"
     inkscape:connector-curvature="0" />
  <path
     style="fill:#ffffff;fill-opacity:1;fill-rule:evenodd;stroke:#ffffff;stroke-width:5.53480005;stroke-miterlimit:4;stroke-opacity:1;stroke-dasharray:none"
     d="m 103.65764,147.63035 0,-8.08886 16.68327,0 16.68326,0 0,8.08886 0,8.08886 -16.68326,0 -16.68327,0 0,-8.08886 z"
     id="path3477"
     inkscape:connector-curvature="0" />
  <path
     style="fill:#ffffff;fill-opacity:1;fill-rule:evenodd;stroke:#ffffff;stroke-width:5.53480005;stroke-miterlimit:4;stroke-opacity:1;stroke-dasharray:none"
     d="m 147.13524,165.32472 0,-25.78323 21.23325,0 21.23325,0 0,25.78323 0,25.78323 -21.23325,0 -21.23325,0 0,-25.78323 z m 17.18882,13.14439 0,-4.54998 -5.05553,0 -5.05554,0 0,4.54998 0,4.54999 5.05554,0 5.05553,0 0,-4.54999 z m 17.18882,0 0,-4.54998 -4.54998,0 -4.54998,0 0,4.54998 0,4.54999 4.54998,0 4.54998,0 0,-4.54999 z m -17.18882,-17.69437 0,-5.05553 -5.05553,0 -5.05554,0 0,5.05553 0,5.05554 5.05554,0 5.05553,0 0,-5.05554 z m 17.18882,0 0,-5.05553 -4.54998,0 -4.54998,0 0,5.05553 0,5.05554 4.54998,0 4.54998,0 0,-5.05554 z"
     id="path3479"
     inkscape:connector-curvature="0" />
</svg>
