<?xml version="1.0" encoding="UTF-8" standalone="no"?>
<svg
   xmlns:dc="http://purl.org/dc/elements/1.1/"
   xmlns:cc="http://creativecommons.org/ns#"
   xmlns:rdf="http://www.w3.org/1999/02/22-rdf-syntax-ns#"
   xmlns:svg="http://www.w3.org/2000/svg"
   xmlns="http://www.w3.org/2000/svg"
   xmlns:sodipodi="http://sodipodi.sourceforge.net/DTD/sodipodi-0.dtd"
   xmlns:inkscape="http://www.inkscape.org/namespaces/inkscape"
   viewBox="0 0 256 256"
   id="svg2"
   version="1.1"
   inkscape:version="0.48.4 r9939"
   width="100%"
   height="100%"
   sodipodi:docname="reverse.svg">
  <metadata
     id="metadata16">
    <rdf:RDF>
      <cc:Work
         rdf:about="">
        <dc:format>image/svg+xml</dc:format>
        <dc:type
           rdf:resource="http://purl.org/dc/dcmitype/StillImage" />
        <dc:title></dc:title>
      </cc:Work>
    </rdf:RDF>
  </metadata>
  <sodipodi:namedview
     pagecolor="#ffffff"
     bordercolor="#666666"
     borderopacity="1"
     objecttolerance="10"
     gridtolerance="10"
     guidetolerance="10"
     inkscape:pageopacity="0"
     inkscape:pageshadow="2"
     inkscape:window-width="698"
     inkscape:window-height="768"
     id="namedview14"
     showgrid="false"
     inkscape:zoom="0.921875"
     inkscape:cx="122.52342"
     inkscape:cy="128"
     inkscape:window-x="580"
     inkscape:window-y="25"
     inkscape:window-maximized="0"
     inkscape:current-layer="svg2" />
  <defs
     id="defs4">
    <clipPath
       id="clipPath6">
      <path
         d="M 0,64 H64 V128 H0 z"
         id="path8" />
    </clipPath>
    <style
       type="text/css"
       id="current-color-scheme">.ColorScheme-Text {
        color:#4d4d4d;
      }
      .ColorScheme-Background {
        color:#eff0f1;
      }
      .ColorScheme-Highlight {
        color:#3daee9;
      }
      .ColorScheme-ViewText {
        color:#31363b;
      }
      .ColorScheme-ViewBackground {
        color:#fcfcfc;
      }
      .ColorScheme-ViewHover {
        color:#93cee9;
      }
      .ColorScheme-ViewFocus{
        color:#3daee9;
      }
      .ColorScheme-ButtonText {
        color:#31363b;
      }
      .ColorScheme-ButtonBackground {
        color:#eff0f1;
      }
      .ColorScheme-ButtonHover {
        color:#93cee9;
      }
      .ColorScheme-ButtonFocus{
        color:#3daee9;
      }</style>
  </defs>
  <g
     style="color:#000000"
     id="g10"
     transform="matrix(0,1,-1,0,256.00351,-0.01112179)">
    <path
       d="m -1360.14,1641.33 c 46.11,-98.28 -119.59,-146.07 -181.85,-106.06 -62.25,40.01 -83.52,108.58 -13.01,143.08 70.51,34.501 148.75,61.26 194.86,-37.03 z"
       transform="matrix(1.03665,0,0,-1.35742,1657.71,2320.79)"
       style="fill:#9acd32"
       id="path12"
       inkscape:connector-curvature="0" />
  </g>
  <g
     transform="matrix(10.220339,0,0,10.152542,-5614.0485,-5930.4894)"
     id="layer1">
    <rect
       x="537.71997"
       y="591.12"
       width="0"
       height="11"
       class="ColorScheme-Text"
       style="color:#4d4d4d;fill:currentColor"
       id="rect4035" />
    <rect
       x="555.76001"
       y="589.07001"
       width="0"
       height="11"
       class="ColorScheme-Text"
       style="color:#4d4d4d;fill:currentColor"
       id="rect4035-5" />
    <rect
       x="537.71997"
       y="591.12"
       width="0"
       height="11"
       class="ColorScheme-Text"
       style="color:#4d4d4d;fill:currentColor"
       id="rect4035-8" />
    <rect
       x="537.71997"
       y="591.12"
       width="0"
       height="11"
       class="ColorScheme-Text"
       style="color:#4d4d4d;fill:currentColor"
       id="rect4035-59" />
    <rect
       x="516.25"
       y="587.73999"
       width="0"
       height="11"
       class="ColorScheme-Text"
       style="color:#4d4d4d;fill:currentColor"
       id="rect4035-60" />
    <rect
       x="534.29999"
       y="585.69"
       width="0"
       height="11"
       class="ColorScheme-Text"
       style="color:#4d4d4d;fill:currentColor"
       id="rect4035-5-15" />
    <rect
       x="516.25"
       y="587.73999"
       width="0"
       height="11"
       class="ColorScheme-Text"
       style="color:#4d4d4d;fill:currentColor"
       id="rect4035-8-03" />
    <rect
       x="516.25"
       y="587.73999"
       width="0"
       height="11"
       class="ColorScheme-Text"
       style="color:#4d4d4d;fill:currentColor"
       id="rect4035-59-10" />
    <rect
       x="508.95001"
       y="582.90997"
       width="0"
       height="11"
       class="ColorScheme-Text"
       style="color:#4d4d4d;fill:currentColor"
       id="rect4035-6" />
    <rect
       x="526.98999"
       y="580.84998"
       width="0"
       height="11"
       class="ColorScheme-Text"
       style="color:#4d4d4d;fill:currentColor"
       id="rect4035-5-1" />
    <rect
       x="508.95001"
       y="582.90997"
       width="0"
       height="11"
       class="ColorScheme-Text"
       style="color:#4d4d4d;fill:currentColor"
       id="rect4035-8-3" />
    <rect
       x="508.95001"
       y="582.90997"
       width="0"
       height="11"
       class="ColorScheme-Text"
       style="color:#4d4d4d;fill:currentColor"
       id="rect4035-59-4" />
    <rect
       x="514.96002"
       y="587.12"
       width="0"
       height="11"
       class="ColorScheme-Text"
       style="color:#4d4d4d;fill:currentColor"
       id="rect4035-1" />
    <rect
       x="533"
       y="585.07001"
       width="0"
       height="11"
       class="ColorScheme-Text"
       style="color:#4d4d4d;fill:currentColor"
       id="rect4035-5-0" />
    <rect
       x="514.96002"
       y="587.12"
       width="0"
       height="11"
       class="ColorScheme-Text"
       style="color:#4d4d4d;fill:currentColor"
       id="rect4035-8-1" />
    <rect
       x="514.96002"
       y="587.12"
       width="0"
       height="11"
       class="ColorScheme-Text"
       style="color:#4d4d4d;fill:currentColor"
       id="rect4035-59-1" />
    <rect
       x="513.71997"
       y="591.12"
       width="0"
       height="11"
       class="ColorScheme-Text"
       style="color:#4d4d4d;fill:currentColor"
       id="rect4035-0" />
    <rect
       x="531.76001"
       y="589.07001"
       width="0"
       height="11"
       class="ColorScheme-Text"
       style="color:#4d4d4d;fill:currentColor"
       id="rect4035-5-5" />
    <rect
       x="513.71997"
       y="591.12"
       width="0"
       height="11"
       class="ColorScheme-Text"
       style="color:#4d4d4d;fill:currentColor"
       id="rect4035-8-6" />
    <rect
       x="513.71997"
       y="591.12"
       width="0"
       height="11"
       class="ColorScheme-Text"
       style="color:#4d4d4d;fill:currentColor"
       id="rect4035-59-11" />
    <rect
       x="497.73001"
       y="587.48999"
       width="0"
       height="11"
       class="ColorScheme-Text"
       style="color:#4d4d4d;fill:currentColor"
       id="rect4035-9" />
    <rect
       x="515.78003"
       y="585.42999"
       width="0"
       height="11"
       class="ColorScheme-Text"
       style="color:#4d4d4d;fill:currentColor"
       id="rect4035-5-8" />
    <rect
       x="497.73001"
       y="587.48999"
       width="0"
       height="11"
       class="ColorScheme-Text"
       style="color:#4d4d4d;fill:currentColor"
       id="rect4035-8-0" />
    <rect
       x="497.73001"
       y="587.48999"
       width="0"
       height="11"
       class="ColorScheme-Text"
       style="color:#4d4d4d;fill:currentColor"
       id="rect4035-59-1-8" />
    <rect
       class="ColorScheme-Text"
       x="513.25"
       width="0"
       height="11"
       y="590.73999"
       style="color:#4d4d4d"
       id="rect4035-52" />
    <rect
       class="ColorScheme-Text"
       x="531.29999"
       width="0"
       height="11"
       y="588.69"
       style="color:#4d4d4d"
       id="rect4035-5-3" />
    <rect
       class="ColorScheme-Text"
       x="513.25"
       width="0"
       height="11"
       y="590.73999"
       style="color:#4d4d4d"
       id="rect4035-8-7" />
    <rect
       class="ColorScheme-Text"
       x="513.25"
       width="0"
       height="11"
       y="590.73999"
       style="color:#4d4d4d"
       id="rect4035-59-9" />
    <rect
       class="ColorScheme-Text"
       x="505.95001"
       width="0"
       height="11"
       y="585.90997"
       style="color:#4d4d4d"
       id="rect4035-6-9" />
    <rect
       class="ColorScheme-Text"
       x="523.98999"
       width="0"
       height="11"
       y="583.84998"
       style="color:#4d4d4d"
       id="rect4035-5-1-1" />
    <rect
       class="ColorScheme-Text"
       x="505.95001"
       width="0"
       height="11"
       y="585.90997"
       style="color:#4d4d4d"
       id="rect4035-8-3-9" />
    <rect
       class="ColorScheme-Text"
       x="505.95001"
       width="0"
       height="11"
       y="585.90997"
       style="color:#4d4d4d"
       id="rect4035-59-4-2" />
    <rect
       class="ColorScheme-Text"
       x="511.95999"
       width="0"
       height="11"
       y="590.12"
       style="color:#4d4d4d"
       id="rect4035-1-5" />
    <rect
       class="ColorScheme-Text"
       x="530"
       width="0"
       height="11"
       y="588.07001"
       style="color:#4d4d4d"
       id="rect4035-5-0-1" />
    <rect
       class="ColorScheme-Text"
       x="511.95999"
       width="0"
       height="11"
       y="590.12"
       style="color:#4d4d4d"
       id="rect4035-8-1-1" />
    <rect
       class="ColorScheme-Text"
       x="511.95999"
       width="0"
       height="11"
       y="590.12"
       style="color:#4d4d4d"
       id="rect4035-59-1-7" />
    <rect
       class="ColorScheme-Text"
       x="510.72"
       width="0"
       height="11"
       y="594.12"
       style="color:#4d4d4d"
       id="rect4035-0-9" />
    <rect
       class="ColorScheme-Text"
       x="528.76001"
       width="0"
       height="11"
       y="592.07001"
       style="color:#4d4d4d"
       id="rect4035-5-5-6" />
    <rect
       class="ColorScheme-Text"
       x="510.72"
       width="0"
       height="11"
       y="594.12"
       style="color:#4d4d4d"
       id="rect4035-8-6-3" />
    <rect
       class="ColorScheme-Text"
       x="510.72"
       width="0"
       height="11"
       y="594.12"
       style="color:#4d4d4d"
       id="rect4035-59-11-1" />
    <rect
       class="ColorScheme-Text"
       x="494.73001"
       width="0"
       height="11"
       y="590.48999"
       style="color:#4d4d4d"
       id="rect4035-9-0" />
    <rect
       class="ColorScheme-Text"
       x="512.78003"
       width="0"
       height="11"
       y="588.42999"
       style="color:#4d4d4d"
       id="rect4035-5-8-8" />
    <rect
       class="ColorScheme-Text"
       x="494.73001"
       width="0"
       height="11"
       y="590.48999"
       style="color:#4d4d4d"
       id="rect4035-8-0-2" />
    <rect
       class="ColorScheme-Text"
       x="494.73001"
       width="0"
       height="11"
       y="590.48999"
       style="color:#4d4d4d"
       id="rect4035-59-1-8-5" />
    <path
       transform="translate(553.72,589.12)"
       d="m 7.5,0 v 1.8125 h 1 V 0 h -1 z M 2.6875,1.9688 1.9688,2.6875 3.25,4 3.9688,3.25 2.6875,1.9688 z m 10.624,0 -1.281,1.2812 0.719,0.75 1.281,-1.3125 -0.719,-0.7187 z M 7.9995,3 c -2.7614,0 -5,2.2386 -5,5 0,2.761 2.2386,5 5,5 2.761,0 5,-2.239 5,-5 0,-2.7614 -2.239,-5 -5,-5 z m 0,2 a 3,3 0 0 1 3,3 3,3 0 0 1 -3,3 3,3 0 0 1 -3,-3 3,3 0 0 1 3,-3 z m -8,2.5 v 1 H 1.812 v -1 H -5e-4 z m 14.188,0 v 1 h 1.812 v -1 h -1.812 z M 3.2495,12.031 1.9683,13.312 2.687,14.031 3.9683,12.75 3.2495,12.031 z m 9.5,0 -0.719,0.719 1.281,1.281 0.719,-0.719 -1.281,-1.281 z m -5.25,2.157 V 16 h 1 v -1.812 h -1 z"
       style="opacity:0.5;color:#4d4d4d"
       id="path4210"
       inkscape:connector-curvature="0" />
  </g>
  <path
     style="fill:#ffffff;fill-opacity:1;fill-rule:evenodd;stroke:#ffffff;stroke-width:5.93789816;stroke-miterlimit:4;stroke-opacity:1;stroke-dasharray:none"
     d="M 114.34937,180.13115 C 83.782829,171.89922 68.177149,139.03912 81.400574,110.75254 85.267685,102.4803 92.938668,93.976558 100.84017,89.202588 c 28.19956,-17.037764 65.1129,-2.705502 74.50727,28.928772 2.04047,6.87102 2.0867,20.328 0.0924,26.89853 -5.32174,17.53327 -18.72195,30.63016 -35.92384,35.11068 -7.80767,2.03364 -17.59401,2.02998 -25.16663,-0.009 l 0,1e-5 z m 24.32625,-19.96447 c 6.71552,-3.04889 13.8488,-10.15793 16.59272,-16.53635 9.68284,-22.50835 -11.69105,-47.643857 -35.28749,-41.49777 -18.66619,4.86193 -28.810169,24.18643 -21.668473,41.27891 2.296003,5.49511 10.297263,13.50423 16.292393,16.3084 6.95275,3.25209 17.4622,3.44717 24.07085,0.44681 z"
     id="path5023"
     inkscape:connector-curvature="0" />
  <path
     style="fill:#ffffff;fill-opacity:1;fill-rule:evenodd;stroke:#ffffff;stroke-width:5.93789816;stroke-miterlimit:4;stroke-opacity:1;stroke-dasharray:none"
     d="m 69.259374,188.53515 -2.903832,-3.03094 5.939095,-5.86532 5.939095,-5.86533 3.287585,3.14971 3.287584,3.14971 -5.675179,5.74656 c -3.121348,3.16061 -5.96663,5.74656 -6.322847,5.74656 -0.356218,0 -1.954393,-1.36393 -3.551501,-3.03095 z"
     id="path5025"
     inkscape:connector-curvature="0" />
  <path
     style="fill:#ffffff;fill-opacity:1;fill-rule:evenodd;stroke:#ffffff;stroke-width:5.93789816;stroke-miterlimit:4;stroke-opacity:1;stroke-dasharray:none"
     d="m 45.723416,131.90508 0,-4.33898 8.677966,0 8.677966,0 0,4.33898 0,4.33899 -8.677966,0 -8.677966,0 0,-4.33899 z"
     id="path5027"
     inkscape:connector-curvature="0" />
  <path
     style="fill:#ffffff;fill-opacity:1;fill-rule:evenodd;stroke:#ffffff;stroke-width:5.93789816;stroke-miterlimit:4;stroke-opacity:1;stroke-dasharray:none"
     d="m 71.991445,83.870975 c -3.111823,-3.150964 -5.65786,-6.046539 -5.65786,-6.43461 0,-0.388071 1.506839,-1.778548 3.348532,-3.089949 l 3.348531,-2.384365 5.86083,5.788027 5.860829,5.788026 -2.903833,3.030948 C 80.251366,88.236073 78.653191,89.6 78.296974,89.6 c -0.356218,0 -3.193705,-2.578061 -6.305529,-5.729025 z"
     id="path5029"
     inkscape:connector-curvature="0" />
  <path
     style="fill:#ffffff;fill-opacity:1;fill-rule:evenodd;stroke:#ffffff;stroke-width:5.93789816;stroke-miterlimit:4;stroke-opacity:1;stroke-dasharray:none"
     d="m 122.74036,60.311864 0,-8.677966 4.33899,0 4.33898,0 0,8.677966 0,8.677967 -4.33898,0 -4.33899,0 0,-8.677967 z"
     id="path5031"
     inkscape:connector-curvature="0" />
  <path
     style="fill:#ffffff;fill-opacity:1;fill-rule:evenodd;stroke:#ffffff;stroke-width:5.93789816;stroke-miterlimit:4;stroke-opacity:1;stroke-dasharray:none"
     d="m 172.34315,87.115358 -2.81798,-3.694561 5.90388,-5.830543 5.90388,-5.830542 3.25267,3.252671 3.25268,3.252672 -6.33858,6.272432 -6.33857,6.272433 -2.81798,-3.694562 z"
     id="path5033"
     inkscape:connector-curvature="0" />
  <path
     style="fill:#ffffff;fill-opacity:1;fill-rule:evenodd;stroke:#ffffff;stroke-width:5.93789816;stroke-miterlimit:4;stroke-opacity:1;stroke-dasharray:none"
     d="m 191.07935,131.90508 0,-4.33898 8.67796,0 8.67797,0 0,4.33898 0,4.33899 -8.67797,0 -8.67796,0 0,-4.33899 z"
     id="path5035"
     inkscape:connector-curvature="0" />
  <path
     style="fill:#ffffff;fill-opacity:1;fill-rule:evenodd;stroke:#ffffff;stroke-width:5.93789816;stroke-miterlimit:4;stroke-opacity:1;stroke-dasharray:none"
     d="m 174.82399,185.61603 -5.87616,-5.95008 3.15101,-3.28895 3.15102,-3.28895 6.27513,6.20966 6.27514,6.20965 -2.90232,3.02937 c -1.59628,1.66616 -3.19377,3.02937 -3.54999,3.02937 -0.35622,0 -3.29194,-2.67753 -6.52383,-5.95007 z"
     id="path5037"
     inkscape:connector-curvature="0" />
  <path
     style="fill:#ffffff;fill-opacity:1;fill-rule:evenodd;stroke:#ffffff;stroke-width:5.93789816;stroke-miterlimit:4;stroke-opacity:1;stroke-dasharray:none"
     d="m 122.74036,203.49831 0,-8.67797 4.33899,0 4.33898,0 0,8.67797 0,8.67796 -4.33898,0 -4.33899,0 0,-8.67796 z"
     id="path5039"
     inkscape:connector-curvature="0" />
</svg>
