<svg xmlns="http://www.w3.org/2000/svg" viewBox="0 0 256 256"><path d="m 125.73 798.56 c -111.92 -22.351 -154.42 130.95 -105.92 214.2 38.644 66.33 171.02 47.37 220.37 -42.17 49.35 -89.54 -24.617 -154.09 -114.45 -172.03 z" transform="translate(0 -796.36)" style="fill:#9acd32;color:#000"/><g transform="matrix(3.74399 0 0 3.58668 33.691 36.679)" style="fill:#fff;fill-rule:evenodd"><path d="m 23.656 4 c -0.902 0.056 -1.584 0.205 -1.587 0.706 v 26.777 c -1.516 -0.555 -3.255 -0.867 -5.084 -0.867 -6.06 0 -10.944 3.428 -10.944 7.674 0 4.246 4.887 7.706 10.944 7.706 5.785 0 10.53 -3.147 10.944 -7.128 h 0.032 v -18.654 c 0.092 -0.054 0.164 -0.1 0.259 -0.161 4.377 1.014 8.601 2.462 9 13.87 10.426 -9.475 -2.607 -19.742 -13.567 -29.924 z" style="opacity:0.1"/><path d="m 23.656 3 c -0.902 0.056 -1.584 0.205 -1.587 0.706 v 26.777 c -1.516 -0.555 -3.255 -0.867 -5.084 -0.867 -6.06 0 -10.944 3.428 -10.944 7.674 0 4.246 4.887 7.706 10.944 7.706 5.785 0 10.53 -3.147 10.944 -7.128 h 0.032 v -18.654 c 0.092 -0.054 0.164 -0.1 0.259 -0.161 4.377 1.014 8.601 2.462 9 13.87 10.426 -9.475 -2.607 -19.742 -13.567 -29.924 z"/></g></svg>