<svg xmlns="http://www.w3.org/2000/svg" viewBox="0 0 256 256"><defs><clipPath><rect y="56" x="-202" width="84" rx="10" height="88" style="fill:none;stroke:#000;display:block;color:#000"/></clipPath><clipPath><rect y="56" x="-202" width="84" rx="10" height="88" style="fill:none;stroke:#000;display:block;color:#000"/></clipPath><clipPath><rect y="56" x="-202" width="84" rx="10" height="88" style="fill:none;stroke:#000;display:block;color:#000"/></clipPath></defs><g transform="translate(0 -796.36)"><path d="m 252.75 895.07 c -49.981 -239.91 -393.86 17.642 -187.29 139.59 80.25 52.27 213 -16.2 187.29 -139.59 z" style="fill:#fff;color:#000"/><g transform="matrix(4.65185 0 0 3.68163 16.318 842.72)"><path d="M 29,6.5 29.062,6.562 29.219,6.5 29,6.5 Z m 2,2 11,11 0,-11 -11,0 z" style="fill-opacity:0.196"/><g transform="translate(0.32 1.18)" style="fill:#ff4500"><path d="m 28.68 -5.68 l 13 13 h -11 c -0.971 0 -2 -1.029 -2 -2 v -11 z" style="fill-opacity:0.392"/><path d="m 21.879 10.09 c -4.753 0 -10.405 5.924 -10.405 16.296 0 8.154 5.089 14.259 11.206 14.259 5.603 0 8 -3.476 8 -8.142 0 -5.219 -2.968 -7.214 -6.404 -8.08 -4.552 -1.153 -4.052 -7.07 -1.801 -8.217 0.751 -0.44 1.801 -0.907 1.801 -3.056 0 -1.623 -1.075 -3.056 -2.401 -3.056 z m 5.603 2.037 c -0.884 0 -1.6 0.912 -1.6 2.037 0 1.125 0.717 2.037 1.6 2.037 0.884 0 1.6 -0.912 1.6 -2.037 0 -1.125 -0.717 -2.037 -1.6 -2.037 z m 4.802 6.111 c -0.884 0 -1.6 0.912 -1.6 2.037 0 1.125 0.717 2.037 1.6 2.037 0.884 0 1.6 -0.912 1.6 -2.037 0 -1.125 -0.717 -2.037 -1.6 -2.037 z m 1.6 8.148 c -0.884 0 -1.6 0.912 -1.6 2.037 0 1.125 0.717 2.037 1.6 2.037 0.884 0 1.6 -0.912 1.6 -2.037 0 -1.125 -0.717 -2.037 -1.6 -2.037 z" style="color:#000"/></g></g></g></svg>