<svg xmlns="http://www.w3.org/2000/svg" viewBox="0 0 256 256"><g transform="translate(0 -796.36)"><path d="m 3.25 953.66 c 49.981 239.91 393.86 -17.642 187.29 -139.59 -80.25 -52.27 -213 16.2 -187.29 139.59 z" style="fill:#fff;color:#000"/><g transform="matrix(4.23886 0 0 4.043 31.702 827.33)"><path d="M 29,12 29.062,12.062 29.219,12 29,12 z m 2,2 11,11 0,-11 -11,0 z" style="fill-opacity:0.196"/><path d="m 29 1 l 13 13 h -11 c -0.971 0 -2 -1.029 -2 -2 v -11 z" style="fill:#ff4500;fill-opacity:0.392"/></g><g transform="translate(0 796.36)" style="fill:#ff4500;fill-rule:evenodd"><path d="m 123.7 145.47 v -18.46 h 2.685 h 2.685 v 2.853 c 0 2.629 0.053 2.853 0.671 2.853 0.373 0 0.671 -0.224 0.671 -0.503 0 -0.277 0.227 -0.503 0.503 -0.503 0.277 0 0.503 -0.227 0.503 -0.503 0 -0.277 0.162 -0.503 0.36 -0.503 0.465 0 1.319 -0.854 1.319 -1.319 0 -0.198 0.227 -0.36 0.503 -0.36 0.277 0 0.503 -0.227 0.503 -0.503 0 -0.336 0.336 -0.503 1.01 -0.503 0.671 0 1.01 -0.168 1.01 -0.503 0 -0.426 0.802 -0.503 5.202 -0.503 4.401 0 5.202 0.078 5.202 0.503 0 0.336 0.336 0.503 1.01 0.503 0.671 0 1.01 0.168 1.01 0.503 0 0.277 0.227 0.503 0.503 0.503 0.277 0 0.503 0.227 0.503 0.503 0 0.277 0.162 0.503 0.36 0.503 0.465 0 1.319 0.854 1.319 1.319 0 0.198 0.218 0.36 0.484 0.36 0.33 0 0.517 0.455 0.587 1.426 0.097 1.338 0.165 1.426 1.11 1.426 0.849 0 1.024 -0.145 1.113 -0.923 0.058 -0.508 0.247 -0.923 0.42 -0.923 0.172 0 0.313 -0.227 0.313 -0.503 0 -0.277 0.227 -0.503 0.503 -0.503 0.277 0 0.503 -0.227 0.503 -0.503 0 -0.277 0.227 -0.503 0.503 -0.503 0.277 0 0.503 -0.151 0.503 -0.336 0 -0.185 0.227 -0.336 0.503 -0.336 0.277 0 0.503 -0.227 0.503 -0.503 0 -0.277 0.227 -0.503 0.503 -0.503 0.277 0 0.503 -0.227 0.503 -0.503 0 -0.336 0.336 -0.503 1.01 -0.503 0.671 0 1.01 -0.168 1.01 -0.503 0 -0.4 0.485 -0.503 2.349 -0.503 1.865 0 2.349 -0.104 2.349 -0.503 0 -0.277 0.151 -0.503 0.336 -0.503 0.185 0 0.336 0.227 0.336 0.503 0 0.403 0.503 0.503 2.517 0.503 2.01 0 2.517 0.101 2.517 0.503 0 0.313 0.317 0.503 0.839 0.503 0.522 0 0.839 0.19 0.839 0.503 0 0.277 0.227 0.503 0.503 0.503 0.277 0 0.503 0.227 0.503 0.503 0 0.277 0.227 0.503 0.503 0.503 0.277 0 0.503 0.151 0.503 0.336 0 0.185 0.227 0.336 0.503 0.336 0.336 0 0.503 0.336 0.503 1.01 0 0.671 0.168 1.01 0.503 1.01 0.336 0 0.503 0.336 0.503 1.01 0 0.671 0.168 1.01 0.503 1.01 0.412 0 0.503 0.578 0.503 3.189 0 2.611 0.091 3.189 0.503 3.189 0.438 0 0.503 1.492 0.503 11.412 v 11.412 h -2.853 h -2.853 v -14.265 c 0 -12.456 -0.064 -14.265 -0.503 -14.265 -0.336 0 -0.503 -0.336 -0.503 -1.01 0 -0.671 -0.168 -1.01 -0.503 -1.01 -0.277 0 -0.503 -0.151 -0.503 -0.336 0 -0.185 -0.227 -0.336 -0.503 -0.336 -0.277 0 -0.503 -0.227 -0.503 -0.503 0 -0.277 -0.227 -0.503 -0.503 -0.503 -0.277 0 -0.503 -0.227 -0.503 -0.503 0 -0.424 -0.765 -0.503 -4.867 -0.503 -4.102 0 -4.867 0.079 -4.867 0.503 0 0.313 -0.317 0.503 -0.839 0.503 -0.522 0 -0.839 0.19 -0.839 0.503 0 0.277 -0.227 0.503 -0.503 0.503 -0.277 0 -0.503 0.151 -0.503 0.336 0 0.185 -0.227 0.336 -0.503 0.336 -0.336 0 -0.503 0.336 -0.503 1.01 0 0.671 -0.168 1.01 -0.503 1.01 -0.336 0 -0.503 0.336 -0.503 1.01 0 0.671 -0.168 1.01 -0.503 1.01 -0.439 0 -0.503 1.697 -0.503 13.258 v 13.258 h -2.853 h -2.853 v -14.265 c 0 -12.456 -0.064 -14.265 -0.503 -14.265 -0.317 0 -0.503 -0.32 -0.503 -0.863 0 -0.885 -0.678 -1.822 -1.319 -1.822 -0.198 0 -0.36 -0.227 -0.36 -0.503 0 -0.277 -0.227 -0.503 -0.503 -0.503 -0.277 0 -0.503 -0.227 -0.503 -0.503 0 -0.424 -0.765 -0.503 -4.867 -0.503 -4.102 0 -4.867 0.079 -4.867 0.503 0 0.277 -0.227 0.503 -0.503 0.503 -0.277 0 -0.503 0.227 -0.503 0.503 0 0.313 -0.317 0.503 -0.835 0.503 -1.094 0 -2.186 0.959 -2.186 1.921 0 0.456 -0.203 0.765 -0.503 0.765 -0.336 0 -0.503 0.336 -0.503 1.01 0 0.671 -0.168 1.01 -0.503 1.01 -0.439 0 -0.503 1.697 -0.503 13.258 v 13.258 h -2.685 h -2.685 v -18.46 z"/><path d="m 55.23 164.27 c 0 -0.194 -1.063 -0.336 -2.517 -0.336 -2.01 0 -2.517 -0.101 -2.517 -0.503 0 -0.364 -0.373 -0.503 -1.343 -0.503 -0.97 0 -1.343 -0.14 -1.343 -0.503 0 -0.313 -0.317 -0.503 -0.839 -0.503 -0.522 0 -0.839 -0.19 -0.839 -0.503 0 -0.277 -0.227 -0.503 -0.503 -0.503 -0.277 0 -0.503 -0.227 -0.503 -0.503 0 -0.277 -0.227 -0.503 -0.503 -0.503 -0.277 0 -0.503 -0.227 -0.503 -0.503 0 -0.277 -0.227 -0.503 -0.503 -0.503 -0.277 0 -0.503 -0.151 -0.503 -0.336 0 -0.185 -0.227 -0.336 -0.503 -0.336 -0.336 0 -0.503 -0.336 -0.503 -1.01 0 -0.671 -0.168 -1.01 -0.503 -1.01 -0.313 0 -0.503 -0.317 -0.503 -0.839 0 -0.522 -0.19 -0.839 -0.503 -0.839 -0.336 0 -0.503 -0.336 -0.503 -1.01 0 -0.554 -0.151 -1.01 -0.336 -1.01 -0.197 0 -0.336 -1.167 -0.336 -2.829 0 -2.067 -0.136 -2.965 -0.503 -3.332 -0.277 -0.277 -0.503 -0.676 -0.503 -0.887 0 -0.211 0.227 -0.61 0.503 -0.887 0.368 -0.368 0.503 -1.265 0.503 -3.332 0 -1.662 0.138 -2.829 0.336 -2.829 0.185 0 0.336 -0.604 0.336 -1.343 0 -0.97 0.14 -1.343 0.503 -1.343 0.277 0 0.503 -0.227 0.503 -0.503 0 -0.277 0.227 -0.503 0.503 -0.503 0.336 0 0.503 -0.336 0.503 -1.01 0 -0.671 0.168 -1.01 0.503 -1.01 0.277 0 0.503 -0.227 0.503 -0.503 0 -0.277 0.227 -0.503 0.503 -0.503 0.277 0 0.503 -0.227 0.503 -0.503 0 -0.277 0.227 -0.503 0.503 -0.503 0.277 0 0.503 -0.135 0.503 -0.299 0 -0.165 0.378 -0.394 0.839 -0.51 0.462 -0.116 0.839 -0.359 0.839 -0.54 0 -0.181 0.227 -0.329 0.503 -0.329 0.277 0 0.503 -0.227 0.503 -0.503 0 -0.373 0.392 -0.503 1.51 -0.503 1.119 0 1.51 -0.131 1.51 -0.503 0 -0.408 0.541 -0.503 2.853 -0.503 2.312 0 2.853 -0.095 2.853 -0.503 0 -0.277 0.227 -0.503 0.503 -0.503 0.277 0 0.503 0.227 0.503 0.503 0 0.417 0.634 0.503 3.692 0.503 3.058 0 3.692 0.086 3.692 0.503 0 0.373 0.392 0.503 1.51 0.503 h 1.51 v 2.349 c 0 2.282 -0.024 2.349 -0.839 2.349 -0.522 0 -0.839 -0.19 -0.839 -0.503 0 -0.373 -0.392 -0.503 -1.51 -0.503 -1.119 0 -1.51 -0.131 -1.51 -0.503 0 -0.428 -0.858 -0.503 -5.706 -0.503 -4.848 0 -5.706 0.076 -5.706 0.503 0 0.28 -0.298 0.503 -0.671 0.503 -0.373 0 -0.671 0.224 -0.671 0.503 0 0.313 -0.317 0.503 -0.839 0.503 -0.462 0 -0.839 0.151 -0.839 0.336 0 0.185 -0.227 0.336 -0.503 0.336 -0.336 0 -0.503 0.336 -0.503 1.01 0 0.671 -0.168 1.01 -0.503 1.01 -0.277 0 -0.503 0.227 -0.503 0.503 0 0.277 -0.227 0.503 -0.503 0.503 -0.364 0 -0.503 0.373 -0.503 1.343 0 0.992 -0.137 1.343 -0.523 1.343 -0.46 0 -0.511 0.801 -0.42 6.601 0.077 4.907 0.212 6.637 0.523 6.741 0.231 0.077 0.42 0.58 0.42 1.118 0 0.646 0.171 0.979 0.503 0.979 0.313 0 0.503 0.317 0.503 0.839 0 0.522 0.19 0.839 0.503 0.839 0.277 0 0.503 0.227 0.503 0.503 0 0.277 0.227 0.503 0.503 0.503 0.277 0 0.503 0.227 0.503 0.503 0 0.313 0.317 0.503 0.839 0.503 0.522 0 0.839 0.19 0.839 0.503 0 0.336 0.336 0.503 1.01 0.503 0.671 0 1.01 0.168 1.01 0.503 0 0.427 0.82 0.503 5.37 0.503 4.55 0 5.37 -0.077 5.37 -0.503 0 -0.373 0.392 -0.503 1.51 -0.503 1.119 0 1.51 -0.131 1.51 -0.503 0 -0.313 0.317 -0.503 0.839 -0.503 0.815 0 0.839 0.067 0.839 2.349 v 2.349 h -1.51 c -1.119 0 -1.51 0.131 -1.51 0.503 0 0.417 -0.634 0.503 -3.692 0.503 -2.238 0 -3.692 0.132 -3.692 0.336 0 0.185 -0.453 0.336 -1.01 0.336 -0.554 0 -1.01 -0.151 -1.01 -0.336 z"/><path d="m 79.4 137.92 v -26.01 h 2.853 h 2.853 v 10.405 c 0 9.03 0.067 10.405 0.503 10.405 0.277 0 0.503 -0.227 0.503 -0.503 0 -0.277 0.227 -0.503 0.503 -0.503 0.277 0 0.503 -0.227 0.503 -0.503 0 -0.277 0.227 -0.503 0.503 -0.503 0.277 0 0.503 -0.151 0.503 -0.336 0 -0.185 0.227 -0.336 0.503 -0.336 0.277 0 0.503 -0.227 0.503 -0.503 0 -0.277 0.151 -0.503 0.336 -0.503 0.185 0 0.336 -0.227 0.336 -0.503 0 -0.336 0.336 -0.503 1.01 -0.503 0.671 0 1.01 -0.168 1.01 -0.503 0 -0.408 0.541 -0.503 2.853 -0.503 2.312 0 2.853 -0.095 2.853 -0.503 0 -0.277 0.227 -0.503 0.503 -0.503 0.277 0 0.503 0.227 0.503 0.503 0 0.4 0.485 0.503 2.349 0.503 1.865 0 2.349 0.104 2.349 0.503 0 0.336 0.336 0.503 1.01 0.503 0.671 0 1.01 0.168 1.01 0.503 0 0.277 0.227 0.503 0.503 0.503 0.277 0 0.503 0.227 0.503 0.503 0 0.277 0.162 0.503 0.36 0.503 0.641 0 1.319 0.937 1.319 1.822 0 0.543 0.186 0.863 0.503 0.863 0.336 0 0.503 0.336 0.503 1.01 0 0.671 0.168 1.01 0.503 1.01 0.412 0 0.503 0.578 0.503 3.189 0 2.611 0.091 3.189 0.503 3.189 0.438 0 0.503 1.492 0.503 11.412 v 11.412 h -2.853 h -2.853 v -14.265 c 0 -12.456 -0.064 -14.265 -0.503 -14.265 -0.317 0 -0.503 -0.32 -0.503 -0.863 0 -0.885 -0.678 -1.822 -1.319 -1.822 -0.198 0 -0.36 -0.227 -0.36 -0.503 0 -0.336 -0.336 -0.503 -1.01 -0.503 -0.671 0 -1.01 -0.168 -1.01 -0.503 0 -0.424 -0.765 -0.503 -4.867 -0.503 -4.102 0 -4.867 0.079 -4.867 0.503 0 0.277 -0.227 0.503 -0.503 0.503 -0.277 0 -0.503 0.227 -0.503 0.503 0 0.284 -0.3 0.503 -0.687 0.503 -0.755 0 -2.333 1.509 -2.333 2.231 0 0.25 -0.227 0.454 -0.503 0.454 -0.336 0 -0.503 0.336 -0.503 1.01 0 0.554 -0.151 1.01 -0.336 1.01 -0.218 0 -0.336 4.643 -0.336 13.258 v 13.258 h -2.853 h -2.853 v -26.01 z"/></g></g></svg>