<svg xmlns="http://www.w3.org/2000/svg" viewBox="0 0 256 256"><defs><clipPath><rect height="88" rx="10" width="84" x="-202" y="56" style="fill:none;stroke:#646464;display:block;color:#000"/></clipPath><clipPath><rect height="88" rx="10" width="84" x="-202" y="56" style="fill:none;stroke:#545454;display:block;color:#000"/></clipPath><clipPath><circle cx="515.44" cy="510.69" r="435.85" style="fill:none;stroke:#000;stroke-width:11.248"/></clipPath><clipPath><circle cx="515.44" cy="510.69" r="435.85" style="fill:none;stroke:#000;stroke-width:11.248"/></clipPath><clipPath><path d="m -24 13 c 0 1.105 -0.672 2 -1.5 2 -0.828 0 -1.5 -0.895 -1.5 -2 0 -1.105 0.672 -2 1.5 -2 0.828 0 1.5 0.895 1.5 2 z" transform="matrix(15.33333 0 0 11.5 415 -125.5)"/></clipPath><clipPath><rect height="88" rx="10" width="84" x="-202" y="56" style="fill:none;stroke:#000;display:block;color:#000"/></clipPath><clipPath><rect height="88" rx="10" width="84" x="-202" y="56" style="fill:none;stroke:#000;display:block;color:#000"/></clipPath><clipPath><rect height="88" rx="10" width="84" x="-202" y="56" style="fill:none;stroke:#000;display:block;color:#000"/></clipPath><clipPath><rect height="88" rx="10" width="84" x="-202" y="56" style="fill:none;stroke:#424242;display:block;color:#000"/></clipPath></defs><g transform="translate(-0.002 -0.002)"><path transform="translate(0 -796.36)" d="m 252.75 895.07 c -49.981 -239.91 -393.86 17.642 -187.29 139.59 80.25 52.27 213 -16.2 187.29 -139.59 z" style="fill:#fff;color:#000"/><g transform="matrix(1.64744 0 0 1.43321 27.12 29.1)"><path d="m 84,36 28,28 V 36 z" style="fill-opacity:0.196"/><path d="m 76,0 35.969,36 H 81.516 C 78.821,36 76,33.148 76,30.453 z" style="fill:#ff4500;fill-opacity:0.392"/></g><g transform="matrix(2.58058 0 0 2.16698 44.07 88.41)" style="fill:#ffdead"><g style="stroke:#fff;stroke-linejoin:round"><g style="stroke-linecap:round"><g style="stroke-width:8.125"><path d="m 23.288 42.867 c -5.125 2.197 -8.05 12.448 -8.05 12.448"/><path d="m 35.25 41.16 c 11.959 6.59 7.566 13.18 7.566 13.18"/><path d="m 38.18 27 c 1.953 0.732 14.4 -1.953 14.4 -1.953"/><path d="M 19.627,24.562 C 15.966,26.759 7.424,21.633 7.424,21.633"/></g><ellipse rx="13.233" ry="18.704" transform="matrix(0.95908 0 0 0.95908 2.054 1.187)" cy="30.1" cx="28.502" style="stroke-width:8.472"/><path d="M 13.366,30.32 C 28.516,42.177 37.739,42.012 41.362,34.931 44.985,27.85 45.479,57.492 29.834,51.893 14.189,46.294 13.366,30.32 13.366,30.32 z" style="stroke-width:6.875"/></g><g style="stroke-width:7.168"><ellipse rx="6.744" ry="10.307" transform="matrix(0.95908 0 0 0.95908 2.298 1.187)" cy="13.303" cx="23.285"/><ellipse rx="6.744" ry="10.307" transform="matrix(0.95908 0 0 0.95908 12.493 1.187)" cy="13.303" cx="23.285"/></g></g><g transform="matrix(0.95908 0 0 0.95908 0.346 1.187)" style="stroke:#ff4500"><g style="stroke-linecap:round;stroke-linejoin:round"><g transform="translate(1.781)" style="stroke-width:3.258"><path d="m 22.14 43.46 c -5.344 2.29 -8.398 12.979 -8.398 12.979"/><path d="m 34.61 41.677 c 12.47 6.871 7.889 13.742 7.889 13.742"/><path d="m 37.663 26.917 c 2.036 0.763 15.01 -2.036 15.01 -2.036"/><path d="M 18.323,24.373 C 14.506,26.663 5.599,21.319 5.599,21.319"/><ellipse rx="13.233" ry="18.704" cy="30.1" cx="28.502" style="fill-rule:evenodd"/></g><path d="m 45.979,19.909 c 25.45,19.917 40.941,19.64 47.03,7.746 C 99.095,15.76 99.925,65.553 73.645,56.147 47.365,46.742 45.982,19.907 45.982,19.907 z" transform="matrix(0.62072 0 0 0.62072 -14.964 18.01)" style="fill-rule:evenodd;stroke-width:3.15"/></g><g transform="matrix(0.62072 0 0 0.62072 -14.964 18.01)" style="stroke-width:2.1"><path d="m 46.22 26.309 c 25.04 28.558 47.727 19.17 47.727 19.17"/><path d="m 60.694 30.22 c -1.956 6.651 0.782 19.17 0.782 19.17"/><path d="m 73.21 35.31 c -1.956 7.824 0 19.56 0 19.56"/><path d="m 86.51 34.13 c -2.738 9.389 0 20.734 0 20.734"/></g><g style="fill-rule:evenodd"><path d="m 14.453,22.817 4.585,4.803 7.422,-5.02 5.894,2.62 1.965,8.605 6.331,-0.058 1.746,-8.829 5.894,-2.337 7.423,4.803 3.493,-4.803 -8.424,-7.95 C 29.191,34.454 10.532,3.933 29.079,-8.836 v -4.585 l -2.183,1.092 -6.768,-4.302 -4.675,3.839 4.238,7.231 -2.401,5.894 -8.27,1.374 -0.026,6.267 8.514,2.183 2.347,5.731 -5.403,6.931 z" transform="matrix(0.29068 0 0 0.29068 19.735 26.2)" style="fill:#ff4500;stroke-linecap:round;stroke-linejoin:round;stroke-width:0.391"/><g style="stroke-width:1.955"><ellipse rx="6.744" ry="10.307" transform="translate(2.036)" cy="13.303" cx="23.285"/><ellipse rx="6.744" ry="10.307" transform="translate(12.666)" cy="13.303" cx="23.285"/></g><g style="fill:#ff4500"><ellipse rx="5.04" ry="5.218" transform="translate(0.72)" cy="17.713" cx="24.473"/><ellipse rx="5.04" ry="5.218" transform="translate(11.517 -0.18)" cy="17.713" cx="24.473"/></g></g></g></g></g></svg>