<svg xmlns="http://www.w3.org/2000/svg" viewBox="0 0 256 256"><g transform="translate(0 -796.36)"><path d="m 3.25 953.66 c 49.981 239.91 393.86 -17.642 187.29 -139.59 -80.25 -52.27 -213 16.2 -187.29 139.59 z" style="fill:#fff;color:#000"/><g transform="matrix(4.23886 0 0 4.043 26.21 824.08)"><path d="m 31.3 10.927 l 0.062 0.062 l 0.157 -0.062 h -0.219 z m 2 2 l 11 11 v -11 h -11 z" style="fill-opacity:0.196"/><g style="fill:#ff4500"><path d="m 31.559 -0.073 l 13 13 h -11 c -0.971 0 -2 -1.029 -2 -2 v -11" style="fill-opacity:0.392"/><path d="m 35.628 21.08 v 4.577 c -4.869 0.08 -6.07 4.536 -6.07 4.536 h 3.672 v 4.577 h -5.694 c -3.424 9.917 -11.302 9.03 -11.302 9.03 v -4.577 c 0 0 5 0.871 7.55 -7.869 3.189 -10.933 11.841 -10.278 11.841 -10.278 z" style="fill:#ffdead"/><path d="m 26.672 14.376 v 4.577 c -4.869 0.08 -6.07 4.536 -6.07 4.536 h 3.672 v 4.577 h -5.694 c -3.424 9.917 -11.302 9.03 -11.302 9.03 v -4.577 c 0 0 5 0.871 7.55 -7.869 3.189 -10.933 11.841 -10.278 11.841 -10.278 z"/></g></g></g></svg>