<svg xmlns="http://www.w3.org/2000/svg" viewBox="0 0 256 256"><g transform="translate(0 -796.36)"><path d="m -1067.28 1935.73 c 48.956 88.52 202.34 54.16 228.29 -18.719 30.922 -86.82 -49.563 -251.7 -185.88 -155.11 -45.916 33.728 -91.37 85.31 -42.41 173.83 z" transform="translate(1088.39 -936.13)" style="fill:#fff;color:#000"/><g transform="matrix(4.20184 0 0 4.45095 28.578 824.71)"><path d="m 29.774 10.294 l 0.062 0.062 l 0.157 -0.062 h -0.219 z m 2 2 l 11 11 v -11 h -11 z" style="fill-opacity:0.196"/><g style="fill:#ff4500"><path d="m 30.03 -0.706 l 13 13 h -11 c -0.971 0 -2 -1.029 -2 -2 v -11" style="fill-opacity:0.392"/><g transform="matrix(0.18618 0 0 0.18717 -0.605 37.35)"><path d="m 128 -109.9 c -27.561 0 -49.903 6.982 -49.903 15.595 v 12.476 c 0 8.613 22.341 15.595 49.903 15.595 27.56 0 49.903 -6.982 49.903 -15.595 v -12.476 c 0 -8.613 -22.342 -15.595 -49.903 -15.595 z"/><path d="m 127.84,-60 c -22.344,0 -41.18,-4.589 -47.539,-10.916 -1.484,1.477 -2.207,3.049 -2.207,4.678 v 12.476 c 0,8.613 22.341,15.595 49.903,15.595 27.56,0 49.903,-6.982 49.903,-15.595 v -12.476 c 0,-1.63 -0.88,-3.201 -2.365,-4.678 C 169.177,-64.589 150.184,-60 127.84,-60 z"/><path d="m 127.84 -31.93 c -22.344 0 -41.18 -4.59 -47.539 -10.916 -1.484 1.477 -2.207 3.048 -2.207 4.678 v 12.476 c 0 8.613 22.341 15.595 49.903 15.595 27.56 0 49.903 -6.982 49.903 -15.595 v -12.476 c 0 -1.63 -0.88 -3.202 -2.365 -4.678 -6.358 6.327 -25.351 10.916 -47.695 10.916 z"/></g></g></g></g></svg>