<svg xmlns="http://www.w3.org/2000/svg" viewBox="0 0 256 256"><g transform="translate(0 -796.36)"><path d="m 3.781 953.96 c 49.768 237.87 392.18 -17.492 186.49 -138.4 -79.909 -51.825 -212.09 16.06 -186.49 138.4 z" style="fill:#fff;color:#000"/><g transform="matrix(4.13069 0 0 3.87964 35.25 823.9)"><path d="M 29,12 29.062,12.062 29.219,12 29,12 z m 2,2 11,11 0,-11 -11,0 z" style="fill-opacity:0.196"/><path d="M 29,1 42,14 H 31 c -0.971,0 -2,-1.029 -2,-2 V 1 z" style="fill:#ff4500;fill-opacity:0.392"/></g><g style="fill:#ff4500;fill-rule:evenodd"><path d="m 138.88 935.18 v -21.566 h 2.738 h 2.738 v 8.686 c 0 8.487 0.014 8.686 0.608 8.686 0.335 0 0.608 -0.188 0.608 -0.417 0 -0.229 0.346 -0.502 0.768 -0.607 0.821 -0.203 1.969 -1.178 1.969 -1.672 0 -0.165 0.274 -0.3 0.608 -0.3 0.338 0 0.608 -0.2 0.608 -0.449 0 -0.247 0.205 -0.449 0.456 -0.449 0.251 0 0.456 -0.202 0.456 -0.449 0 -0.247 0.205 -0.449 0.456 -0.449 0.251 0 0.456 -0.202 0.456 -0.449 0 -0.25 0.27 -0.449 0.608 -0.449 0.338 0 0.608 -0.2 0.608 -0.449 0 -0.247 0.205 -0.449 0.456 -0.449 0.253 0 0.456 -0.266 0.456 -0.599 0 -0.333 0.203 -0.599 0.456 -0.599 0.251 0 0.456 -0.202 0.456 -0.449 0 -0.247 0.205 -0.449 0.456 -0.449 0.251 0 0.456 -0.202 0.456 -0.449 0 -0.247 0.205 -0.449 0.456 -0.449 0.251 0 0.456 -0.202 0.456 -0.449 0 -0.25 0.27 -0.449 0.608 -0.449 0.338 0 0.608 -0.2 0.608 -0.449 0 -0.247 0.205 -0.449 0.456 -0.449 0.254 0 0.456 -0.266 0.456 -0.599 0 -0.333 0.203 -0.599 0.456 -0.599 0.251 0 0.456 -0.202 0.456 -0.449 0 -0.247 0.205 -0.449 0.456 -0.449 0.251 0 0.456 -0.202 0.456 -0.449 0 -0.247 0.205 -0.449 0.456 -0.449 0.251 0 0.456 -0.202 0.456 -0.449 0 -0.25 0.27 -0.449 0.608 -0.449 0.335 0 0.608 -0.188 0.608 -0.417 0 -0.229 0.342 -0.501 0.76 -0.605 0.418 -0.103 0.76 -0.388 0.76 -0.632 0 -0.366 0.611 -0.444 3.498 -0.444 2.907 0 3.498 0.076 3.498 0.449 0 0.247 -0.205 0.449 -0.456 0.449 -0.251 0 -0.456 0.202 -0.456 0.449 0 0.25 -0.27 0.449 -0.608 0.449 -0.406 0 -0.608 0.2 -0.608 0.599 0 0.333 -0.203 0.599 -0.456 0.599 -0.251 0 -0.456 0.202 -0.456 0.449 0 0.3 -0.304 0.449 -0.913 0.449 -0.608 0 -0.913 0.15 -0.913 0.449 0 0.247 -0.205 0.449 -0.456 0.449 -0.251 0 -0.456 0.202 -0.456 0.449 0 0.25 -0.27 0.449 -0.608 0.449 -0.338 0 -0.608 0.2 -0.608 0.449 0 0.247 -0.205 0.449 -0.456 0.449 -0.253 0 -0.456 0.266 -0.456 0.599 0 0.333 -0.203 0.599 -0.456 0.599 -0.251 0 -0.456 0.202 -0.456 0.449 0 0.247 -0.205 0.449 -0.456 0.449 -0.251 0 -0.456 0.202 -0.456 0.449 0 0.247 -0.205 0.449 -0.456 0.449 -0.251 0 -0.456 0.202 -0.456 0.449 0 0.25 -0.27 0.449 -0.608 0.449 -0.338 0 -0.608 0.2 -0.608 0.449 0 0.247 -0.205 0.449 -0.456 0.449 -0.253 0 -0.456 0.266 -0.456 0.599 0 0.333 -0.203 0.599 -0.456 0.599 -0.251 0 -0.456 0.202 -0.456 0.449 0 0.247 -0.205 0.449 -0.456 0.449 -0.251 0 -0.456 0.202 -0.456 0.449 0 0.247 -0.205 0.449 -0.456 0.449 -0.251 0 -0.456 0.202 -0.456 0.449 0 0.25 -0.27 0.449 -0.608 0.449 -0.338 0 -0.608 0.2 -0.608 0.449 0 0.247 -0.205 0.449 -0.456 0.449 -0.254 0 -0.456 0.266 -0.456 0.599 0 0.333 -0.203 0.599 -0.456 0.599 -0.251 0 -0.456 0.202 -0.456 0.449 0 0.3 -0.304 0.449 -0.913 0.449 -0.608 0 -0.913 0.15 -0.913 0.449 0 0.247 -0.197 0.449 -0.438 0.449 -0.241 0 -0.524 0.136 -0.628 0.302 -0.292 0.466 0.142 1.495 0.631 1.495 0.24 0 0.436 0.27 0.436 0.599 0 0.333 0.203 0.599 0.456 0.599 0.251 0 0.456 0.202 0.456 0.449 0 0.25 0.27 0.449 0.608 0.449 0.335 0 0.608 0.2 0.608 0.444 0 0.244 0.342 0.528 0.76 0.632 0.418 0.103 0.76 0.376 0.76 0.605 0 0.229 0.274 0.417 0.608 0.417 0.473 0 0.608 0.2 0.608 0.899 0 0.799 0.101 0.899 0.913 0.899 0.608 0 0.913 0.15 0.913 0.449 0 0.247 0.205 0.449 0.456 0.449 0.253 0 0.456 0.266 0.456 0.599 0 0.333 0.203 0.599 0.456 0.599 0.251 0 0.456 0.202 0.456 0.449 0 0.25 0.27 0.449 0.608 0.449 0.338 0 0.608 0.2 0.608 0.449 0 0.247 0.205 0.449 0.456 0.449 0.251 0 0.456 0.202 0.456 0.449 0 0.247 0.205 0.449 0.456 0.449 0.251 0 0.456 0.202 0.456 0.449 0 0.247 0.205 0.449 0.456 0.449 0.253 0 0.456 0.266 0.456 0.599 0 0.333 0.203 0.599 0.456 0.599 0.251 0 0.456 0.202 0.456 0.449 0 0.25 0.27 0.449 0.608 0.449 0.338 0 0.608 0.2 0.608 0.449 0 0.247 0.205 0.449 0.456 0.449 0.251 0 0.456 0.202 0.456 0.449 0 0.247 0.205 0.449 0.456 0.449 0.251 0 0.456 0.202 0.456 0.449 0 0.247 0.205 0.449 0.456 0.449 0.253 0 0.456 0.266 0.456 0.599 0 0.333 0.203 0.599 0.456 0.599 0.251 0 0.456 0.202 0.456 0.449 0 0.25 0.27 0.449 0.608 0.449 0.338 0 0.608 0.2 0.608 0.449 0 0.247 0.205 0.449 0.456 0.449 0.251 0 0.456 0.202 0.456 0.449 0 0.247 0.205 0.449 0.456 0.449 0.251 0 0.456 0.202 0.456 0.449 0 0.247 0.205 0.449 0.456 0.449 0.251 0 0.456 0.202 0.456 0.449 0 0.372 -0.575 0.449 -3.346 0.449 -2.771 0 -3.346 -0.077 -3.346 -0.449 0 -0.247 -0.205 -0.449 -0.456 -0.449 -0.251 0 -0.456 -0.202 -0.456 -0.449 0 -0.247 -0.205 -0.449 -0.456 -0.449 -0.253 0 -0.456 -0.266 -0.456 -0.599 0 -0.333 -0.203 -0.599 -0.456 -0.599 -0.251 0 -0.456 -0.202 -0.456 -0.449 0 -0.247 -0.191 -0.449 -0.424 -0.449 -0.233 0 -0.503 -0.202 -0.599 -0.449 -0.096 -0.247 -0.385 -0.449 -0.641 -0.449 -0.256 0 -0.466 -0.202 -0.466 -0.449 0 -0.247 -0.205 -0.449 -0.456 -0.449 -0.251 0 -0.456 -0.202 -0.456 -0.449 0 -0.247 -0.205 -0.449 -0.456 -0.449 -0.251 0 -0.456 -0.151 -0.456 -0.335 0 -0.436 -2.259 -2.661 -2.702 -2.661 -0.187 0 -0.34 -0.202 -0.34 -0.449 0 -0.247 -0.205 -0.449 -0.456 -0.449 -0.251 0 -0.456 -0.202 -0.456 -0.449 0 -0.247 -0.205 -0.449 -0.456 -0.449 -0.251 0 -0.456 -0.206 -0.456 -0.459 0 -0.252 -0.24 -0.548 -0.532 -0.657 -0.676 -0.252 -1.12 -0.69 -1.376 -1.355 -0.111 -0.288 -0.411 -0.524 -0.667 -0.524 -0.256 0 -0.466 -0.202 -0.466 -0.449 0 -0.247 -0.205 -0.449 -0.456 -0.449 -0.251 0 -0.456 -0.202 -0.456 -0.449 0 -0.3 -0.304 -0.449 -0.913 -0.449 -0.71 0 -0.913 -0.133 -0.913 -0.599 0 -0.329 -0.19 -0.599 -0.423 -0.599 -0.233 0 -0.506 -0.326 -0.608 -0.725 -0.126 -0.496 -0.474 -0.787 -1.098 -0.922 -0.502 -0.109 -0.913 -0.389 -0.913 -0.623 0 -0.234 -0.274 -0.425 -0.608 -0.425 -0.596 0 -0.608 0.2 -0.608 10.03 v 10.03 h -2.738 h -2.738 v -21.566 z"/><path d="m 36.37 955.85 c 0 -0.565 0.156 -0.899 0.421 -0.899 0.441 0 0.785 -0.878 0.792 -2.02 0.002 -0.398 0.191 -0.674 0.46 -0.674 0.345 0 0.456 -0.366 0.456 -1.498 0 -1.132 0.112 -1.498 0.456 -1.498 0.304 0 0.456 -0.3 0.456 -0.899 0 -0.599 0.152 -0.899 0.456 -0.899 0.345 0 0.456 -0.366 0.456 -1.498 0 -1.132 0.112 -1.498 0.456 -1.498 0.345 0 0.456 -0.366 0.456 -1.498 0 -1.298 0.081 -1.498 0.608 -1.498 0.468 0 0.608 -0.2 0.608 -0.867 0 -0.494 0.196 -0.941 0.456 -1.039 0.313 -0.118 0.456 -0.6 0.456 -1.53 0 -1.01 0.118 -1.357 0.456 -1.357 0.338 0 0.456 -0.349 0.456 -1.348 0 -0.998 0.118 -1.348 0.456 -1.348 0.319 0 0.456 -0.316 0.456 -1.048 0 -0.732 0.138 -1.048 0.456 -1.048 0.338 0 0.456 -0.349 0.456 -1.348 0 -1.148 0.09 -1.348 0.608 -1.348 0.49 0 0.608 -0.2 0.608 -1.023 0 -0.563 0.146 -1.071 0.324 -1.13 0.178 -0.058 0.401 -0.676 0.496 -1.373 0.108 -0.789 0.329 -1.267 0.589 -1.267 0.297 0 0.416 -0.43 0.416 -1.498 0 -1.132 0.112 -1.498 0.456 -1.498 0.304 0 0.456 -0.3 0.456 -0.899 0 -0.599 0.152 -0.899 0.456 -0.899 0.345 0 0.456 -0.366 0.456 -1.498 0 -1.298 0.081 -1.498 0.608 -1.498 0.527 0 0.608 -0.2 0.608 -1.498 v -1.498 h 3.346 h 3.346 v 1.498 c 0 1.132 0.112 1.498 0.456 1.498 0.338 0 0.456 0.349 0.456 1.348 0 0.998 0.118 1.348 0.456 1.348 0.319 0 0.456 0.316 0.456 1.048 0 0.732 0.138 1.048 0.456 1.048 0.345 0 0.456 0.366 0.456 1.498 0 1.132 0.112 1.498 0.456 1.498 0.304 0 0.456 0.3 0.456 0.899 0 0.699 0.135 0.899 0.608 0.899 0.527 0 0.608 0.2 0.608 1.498 0 1.132 0.112 1.498 0.456 1.498 0.338 0 0.456 0.349 0.456 1.348 0 0.998 0.118 1.348 0.456 1.348 0.319 0 0.456 0.316 0.456 1.048 0 0.732 0.138 1.048 0.456 1.048 0.338 0 0.456 0.349 0.456 1.348 0 0.998 0.118 1.348 0.456 1.348 0.339 0 0.456 0.353 0.456 1.376 0 1.124 0.111 1.405 0.608 1.533 0.431 0.111 0.608 0.409 0.608 1.02 0 0.568 0.156 0.864 0.456 0.864 0.345 0 0.456 0.366 0.456 1.498 0 1.068 0.12 1.498 0.416 1.498 0.259 0 0.481 0.477 0.589 1.267 0.095 0.697 0.318 1.314 0.496 1.373 0.178 0.058 0.324 0.567 0.324 1.13 0 0.71 0.14 1.023 0.456 1.023 0.345 0 0.456 0.366 0.456 1.498 0 1.298 0.081 1.498 0.608 1.498 0.518 0 0.608 0.2 0.608 1.348 0 0.998 0.118 1.348 0.456 1.348 0.304 0 0.456 0.3 0.456 0.899 v 0.899 h -2.433 h -2.433 v -0.899 c 0 -0.599 -0.152 -0.899 -0.456 -0.899 -0.319 0 -0.456 -0.316 -0.456 -1.048 0 -0.732 -0.138 -1.048 -0.456 -1.048 -0.338 0 -0.456 -0.349 -0.456 -1.348 0 -0.998 -0.118 -1.348 -0.456 -1.348 -0.317 0 -0.456 -0.314 -0.456 -1.027 0 -0.565 -0.205 -1.229 -0.456 -1.476 -0.251 -0.247 -0.456 -0.863 -0.456 -1.369 v -0.92 h -10.342 h -10.342 v 1.048 c 0 0.732 -0.138 1.048 -0.456 1.048 -0.338 0 -0.456 0.349 -0.456 1.348 0 1.148 -0.09 1.348 -0.608 1.348 -0.518 0 -0.608 0.2 -0.608 1.348 0 0.998 -0.118 1.348 -0.456 1.348 -0.319 0 -0.456 0.316 -0.456 1.048 0 0.732 -0.138 1.048 -0.456 1.048 -0.304 0 -0.456 0.3 -0.456 0.899 v 0.899 h -2.433 h -2.433 v -0.899 z m 27.376 -15.726 c 0 -0.247 -0.205 -0.449 -0.456 -0.449 -0.319 0 -0.456 -0.316 -0.456 -1.048 0 -0.732 -0.138 -1.048 -0.456 -1.048 -0.345 0 -0.456 -0.366 -0.456 -1.498 0 -1.132 -0.112 -1.498 -0.456 -1.498 -0.304 0 -0.456 -0.3 -0.456 -0.899 0 -0.699 -0.135 -0.899 -0.608 -0.899 -0.527 0 -0.608 -0.2 -0.608 -1.498 0 -1.132 -0.112 -1.498 -0.456 -1.498 -0.338 0 -0.456 -0.349 -0.456 -1.348 0 -0.998 -0.118 -1.348 -0.456 -1.348 -0.319 0 -0.456 -0.316 -0.456 -1.048 0 -0.732 -0.138 -1.048 -0.456 -1.048 -0.338 0 -0.456 -0.349 -0.456 -1.348 0 -1.148 -0.09 -1.348 -0.608 -1.348 -0.338 0 -0.608 -0.2 -0.608 -0.449 0 -0.247 -0.205 -0.449 -0.456 -0.449 -0.251 0 -0.456 0.202 -0.456 0.449 0 0.247 -0.205 0.449 -0.456 0.449 -0.338 0 -0.456 0.349 -0.456 1.348 0 1.148 -0.09 1.348 -0.608 1.348 -0.492 0 -0.608 0.2 -0.608 1.048 0 0.732 -0.138 1.048 -0.456 1.048 -0.338 0 -0.456 0.349 -0.456 1.348 0 0.998 -0.118 1.348 -0.456 1.348 -0.345 0 -0.456 0.366 -0.456 1.498 0 1.132 -0.112 1.498 -0.456 1.498 -0.304 0 -0.456 0.3 -0.456 0.899 0 0.599 -0.152 0.899 -0.456 0.899 -0.345 0 -0.456 0.366 -0.456 1.498 0 1.298 -0.081 1.498 -0.608 1.498 -0.492 0 -0.608 0.2 -0.608 1.048 0 0.577 -0.137 1.048 -0.304 1.048 -0.167 0 -0.304 0.202 -0.304 0.449 0 0.388 1.115 0.449 8.213 0.449 7.098 0 8.213 -0.061 8.213 -0.449 z"/><path d="m 87.17 956.3 c 0 -0.247 -0.205 -0.449 -0.456 -0.449 -0.359 0 -0.456 -0.416 -0.456 -1.947 0 -1.531 -0.097 -1.947 -0.456 -1.947 -0.359 0 -0.456 -0.416 -0.456 -1.947 0 -1.747 -0.062 -1.947 -0.608 -1.947 -0.546 0 -0.608 -0.2 -0.608 -1.947 0 -1.531 -0.097 -1.947 -0.456 -1.947 -0.355 0 -0.456 -0.399 -0.456 -1.797 0 -1.398 -0.101 -1.797 -0.456 -1.797 -0.359 0 -0.456 -0.416 -0.456 -1.947 0 -1.531 -0.097 -1.947 -0.456 -1.947 -0.359 0 -0.456 -0.416 -0.456 -1.947 0 -1.531 -0.097 -1.947 -0.456 -1.947 -0.359 0 -0.456 -0.416 -0.456 -1.947 0 -1.747 -0.062 -1.947 -0.608 -1.947 -0.546 0 -0.608 -0.2 -0.608 -1.947 0 -1.531 -0.097 -1.947 -0.456 -1.947 -0.355 0 -0.456 -0.399 -0.456 -1.797 0 -1.398 -0.101 -1.797 -0.456 -1.797 -0.359 0 -0.456 -0.416 -0.456 -1.947 0 -1.531 -0.097 -1.947 -0.456 -1.947 -0.359 0 -0.456 -0.416 -0.456 -1.947 v -1.947 h 2.281 h 2.281 v 1.498 c 0 1.132 0.112 1.498 0.456 1.498 0.359 0 0.456 0.416 0.456 1.947 0 1.747 0.062 1.947 0.608 1.947 0.546 0 0.608 0.2 0.608 1.947 0 1.531 0.097 1.947 0.456 1.947 0.355 0 0.456 0.399 0.456 1.797 0 1.398 0.101 1.797 0.456 1.797 0.359 0 0.456 0.416 0.456 1.947 0 1.531 0.097 1.947 0.456 1.947 0.359 0 0.456 0.416 0.456 1.947 0 1.531 0.097 1.947 0.456 1.947 0.359 0 0.456 0.416 0.456 1.947 0 1.747 0.062 1.947 0.608 1.947 0.546 0 0.608 0.2 0.608 1.947 0 1.531 0.097 1.947 0.456 1.947 0.359 0 0.456 0.416 0.456 1.947 0 1.531 0.097 1.947 0.456 1.947 0.338 0 0.456 0.349 0.456 1.348 0 1.148 0.09 1.348 0.608 1.348 0.473 0 0.608 -0.2 0.608 -0.899 0 -0.599 0.152 -0.899 0.456 -0.899 0.359 0 0.456 -0.416 0.456 -1.947 0 -1.531 0.097 -1.947 0.456 -1.947 0.359 0 0.456 -0.416 0.456 -1.947 0 -1.531 0.097 -1.947 0.456 -1.947 0.359 0 0.456 -0.416 0.456 -1.947 0 -1.747 0.062 -1.947 0.608 -1.947 0.54 0 0.608 -0.2 0.608 -1.765 0 -1.293 0.122 -1.811 0.456 -1.938 0.336 -0.127 0.456 -0.649 0.456 -1.979 0 -1.406 0.101 -1.807 0.456 -1.807 0.359 0 0.456 -0.416 0.456 -1.947 0 -1.531 0.097 -1.947 0.456 -1.947 0.368 0 0.456 -0.466 0.456 -2.396 0 -1.93 0.089 -2.396 0.456 -2.396 0.359 0 0.456 -0.416 0.456 -1.947 0 -1.747 0.062 -1.947 0.608 -1.947 0.527 0 0.608 -0.2 0.608 -1.498 v -1.498 h 3.346 h 3.346 v 1.498 c 0 1.132 0.112 1.498 0.456 1.498 0.359 0 0.456 0.416 0.456 1.947 0 1.531 0.097 1.947 0.456 1.947 0.359 0 0.456 0.416 0.456 1.947 0 1.531 0.098 1.947 0.456 1.947 0.355 0 0.456 0.399 0.456 1.797 0 1.398 0.101 1.797 0.456 1.797 0.368 0 0.456 0.469 0.456 2.424 0 2.172 0.063 2.441 0.608 2.581 0.521 0.134 0.608 0.409 0.608 1.919 0 1.367 0.102 1.762 0.456 1.762 0.359 0 0.456 0.416 0.456 1.947 0 1.531 0.097 1.947 0.456 1.947 0.359 0 0.456 0.416 0.456 1.947 0 1.531 0.097 1.947 0.456 1.947 0.359 0 0.456 0.416 0.456 1.947 0 1.531 0.097 1.947 0.456 1.947 0.304 0 0.456 0.3 0.456 0.899 0 0.699 0.135 0.899 0.608 0.899 0.518 0 0.608 -0.2 0.608 -1.348 0 -0.998 0.118 -1.348 0.456 -1.348 0.359 0 0.456 -0.416 0.456 -1.947 0 -1.531 0.097 -1.947 0.456 -1.947 0.359 0 0.456 -0.416 0.456 -1.947 0 -1.747 0.062 -1.947 0.608 -1.947 0.546 0 0.608 -0.2 0.608 -1.947 0 -1.531 0.097 -1.947 0.456 -1.947 0.359 0 0.456 -0.416 0.456 -1.947 0 -1.531 0.097 -1.947 0.456 -1.947 0.359 0 0.456 -0.416 0.456 -1.947 0 -1.531 0.097 -1.947 0.456 -1.947 0.355 0 0.456 -0.399 0.456 -1.797 0 -1.398 0.101 -1.797 0.456 -1.797 0.359 0 0.456 -0.416 0.456 -1.947 0 -1.747 0.062 -1.947 0.608 -1.947 0.546 0 0.608 -0.2 0.608 -1.947 0 -1.531 0.097 -1.947 0.456 -1.947 0.345 0 0.456 -0.366 0.456 -1.498 v -1.498 h 2.281 h 2.281 v 1.947 c 0 1.531 -0.097 1.947 -0.456 1.947 -0.359 0 -0.456 0.416 -0.456 1.947 0 1.531 -0.097 1.947 -0.456 1.947 -0.355 0 -0.456 0.399 -0.456 1.797 0 1.398 -0.101 1.797 -0.456 1.797 -0.359 0 -0.456 0.416 -0.456 1.947 0 1.531 -0.097 1.947 -0.456 1.947 -0.359 0 -0.456 0.416 -0.456 1.947 0 1.747 -0.062 1.947 -0.608 1.947 -0.546 0 -0.608 0.2 -0.608 1.947 0 1.531 -0.097 1.947 -0.456 1.947 -0.359 0 -0.456 0.416 -0.456 1.947 0 1.531 -0.097 1.947 -0.456 1.947 -0.355 0 -0.456 0.399 -0.456 1.797 0 1.398 -0.101 1.797 -0.456 1.797 -0.359 0 -0.456 0.416 -0.456 1.947 0 1.531 -0.097 1.947 -0.456 1.947 -0.359 0 -0.456 0.416 -0.456 1.947 0 1.747 -0.062 1.947 -0.608 1.947 -0.546 0 -0.608 0.2 -0.608 1.947 0 1.531 -0.097 1.947 -0.456 1.947 -0.251 0 -0.456 0.202 -0.456 0.449 0 0.372 -0.575 0.449 -3.346 0.449 h -3.346 v -1.947 c 0 -1.531 -0.097 -1.947 -0.456 -1.947 -0.359 0 -0.456 -0.416 -0.456 -1.947 0 -1.461 -0.105 -1.947 -0.422 -1.947 -0.309 0 -0.455 -0.575 -0.545 -2.151 -0.076 -1.317 -0.266 -2.198 -0.491 -2.271 -0.207 -0.068 -0.369 -0.663 -0.371 -1.369 -0.006 -1.683 -0.284 -2.596 -0.792 -2.596 -0.315 0 -0.421 -0.489 -0.421 -1.947 0 -1.531 -0.097 -1.947 -0.456 -1.947 -0.359 0 -0.456 -0.416 -0.456 -1.947 0 -1.531 -0.097 -1.947 -0.456 -1.947 -0.359 0 -0.456 -0.416 -0.456 -1.947 0 -1.531 -0.097 -1.947 -0.456 -1.947 -0.359 0 -0.456 -0.416 -0.456 -1.947 0 -1.531 -0.097 -1.947 -0.456 -1.947 -0.355 0 -0.456 -0.399 -0.456 -1.797 0 -1.598 -0.068 -1.797 -0.608 -1.797 -0.492 0 -0.608 -0.2 -0.608 -1.048 0 -0.732 -0.138 -1.048 -0.456 -1.048 -0.319 0 -0.456 0.316 -0.456 1.048 0 0.732 -0.138 1.048 -0.456 1.048 -0.355 0 -0.456 0.399 -0.456 1.797 0 1.598 -0.068 1.797 -0.608 1.797 -0.545 0 -0.608 0.2 -0.608 1.915 0 1.426 -0.117 1.959 -0.456 2.087 -0.336 0.127 -0.456 0.649 -0.456 1.979 0 1.406 -0.101 1.807 -0.456 1.807 -0.359 0 -0.456 0.416 -0.456 1.947 0 1.531 -0.097 1.947 -0.456 1.947 -0.359 0 -0.456 0.416 -0.456 1.947 0 1.531 -0.097 1.947 -0.456 1.947 -0.368 0 -0.456 0.466 -0.456 2.396 0 2.197 -0.051 2.396 -0.608 2.396 -0.541 0 -0.608 0.2 -0.608 1.797 0 1.398 -0.101 1.797 -0.456 1.797 -0.359 0 -0.456 0.416 -0.456 1.947 0 1.531 -0.097 1.947 -0.456 1.947 -0.359 0 -0.456 0.416 -0.456 1.947 v 1.947 h -3.346 c -2.771 0 -3.346 -0.077 -3.346 -0.449 z"/></g></g></svg>