<?xml version="1.0" encoding="UTF-8" standalone="no"?>
<svg
   xmlns:dc="http://purl.org/dc/elements/1.1/"
   xmlns:cc="http://creativecommons.org/ns#"
   xmlns:rdf="http://www.w3.org/1999/02/22-rdf-syntax-ns#"
   xmlns:svg="http://www.w3.org/2000/svg"
   xmlns="http://www.w3.org/2000/svg"
   xmlns:xlink="http://www.w3.org/1999/xlink"
   xmlns:sodipodi="http://sodipodi.sourceforge.net/DTD/sodipodi-0.dtd"
   xmlns:inkscape="http://www.inkscape.org/namespaces/inkscape"
   viewBox="0 0 256 256"
   id="svg104"
   version="1.1"
   inkscape:version="0.48.4 r9939"
   width="100%"
   height="100%"
   sodipodi:docname="application-x-ngraph.svg">
  <metadata
     id="metadata167">
    <rdf:RDF>
      <cc:Work
         rdf:about="">
        <dc:format>image/svg+xml</dc:format>
        <dc:type
           rdf:resource="http://purl.org/dc/dcmitype/StillImage" />
      </cc:Work>
    </rdf:RDF>
  </metadata>
  <sodipodi:namedview
     pagecolor="#ffffff"
     bordercolor="#666666"
     borderopacity="1"
     objecttolerance="10"
     gridtolerance="10"
     guidetolerance="10"
     inkscape:pageopacity="0"
     inkscape:pageshadow="2"
     inkscape:window-width="644"
     inkscape:window-height="496"
     id="namedview165"
     showgrid="false"
     inkscape:zoom="0.921875"
     inkscape:cx="128"
     inkscape:cy="128"
     inkscape:window-x="0"
     inkscape:window-y="24"
     inkscape:window-maximized="0"
     inkscape:current-layer="g133" />
  <defs
     id="defs106">
    <path
       id="0"
       d="m 121.2 106.25 a 5.509 5.509 0 1 1 -11.02 0 5.509 5.509 0 1 1 11.02 0 z"
       style="fill:#4169e1" />
    <clipPath
       id="clipPath109">
      <rect
         height="88"
         rx="10"
         width="84"
         x="-202"
         y="56"
         style="fill:none;stroke:#000;display:block;color:#000"
         id="rect111" />
    </clipPath>
    <clipPath
       id="clipPath113">
      <rect
         height="88"
         rx="10"
         width="84"
         x="-202"
         y="56"
         style="fill:none;stroke:#000;display:block;color:#000"
         id="rect115" />
    </clipPath>
    <clipPath
       id="clipPath117">
      <rect
         height="88"
         rx="10"
         width="84"
         x="-202"
         y="56"
         style="fill:none;stroke:#000;display:block;color:#000"
         id="rect119" />
    </clipPath>
    <clipPath
       id="clipPath121">
      <rect
         y="56"
         x="-202"
         width="84"
         rx="10"
         height="88"
         style="fill:none;stroke:#000;display:block;color:#000"
         id="rect123" />
    </clipPath>
    <clipPath
       id="clipPath125">
      <rect
         y="56"
         x="-202"
         width="84"
         rx="10"
         height="88"
         style="fill:none;stroke:#000;display:block;color:#000"
         id="rect127" />
    </clipPath>
    <clipPath
       id="clipPath129">
      <rect
         y="56"
         x="-202"
         width="84"
         rx="10"
         height="88"
         style="fill:none;stroke:#000;display:block;color:#000"
         id="rect131" />
    </clipPath>
  </defs>
  <g
     transform="translate(0.705 -0.712)"
     id="g133">
    <g
       transform="translate(0 -796.36)"
       id="g135">
      <path
         d="m 252.75 895.07 c -49.981 -239.91 -393.86 17.642 -187.29 139.59 80.25 52.27 213 -16.2 187.29 -139.59 z"
         style="fill:#ffffff;color:#000"
         id="path137" />
      <g
         transform="matrix(4.65185 0 0 3.68163 28.25 810.18)"
         id="g139">
        <path
           d="M 29,12 29.062,12.062 29.219,12 29,12 z m 2,2 11,11 0,-11 -11,0 z"
           style="fill-opacity:0.196"
           id="path141" />
        <path
           d="M 29,1 42,14 H 31 c -0.971,0 -2,-1.029 -2,-2 V 1"
           style="fill:#ff4500;fill-opacity:0.392"
           id="path143" />
        <g
           style="fill:#ffffff"
           id="g145">
          <rect
             ry="2.783"
             rx="0.328"
             y="21.681"
             x="12.393"
             height="31.33"
             width="0.656"
             id="rect147" />
          <rect
             transform="matrix(0 1 -1 0 0 0)"
             width="0.773"
             height="28.24"
             x="45.746"
             y="-35.667"
             rx="0.386"
             ry="1.743"
             id="rect149" />
        </g>
      </g>
    </g>
    <path
       d="m 63.58 69.25 v 6.715 h -6.877 v 0.703 h 6.877 v 20.501 h -6.877 v 0.703 h 6.877 v 20.501 h -6.877 v 0.703 h 6.877 v 20.501 h -6.877 v 0.703 h 6.877 v 20.501 h -6.877 v 0.703 h 6.877 v 20.501 h -6.877 v 0.703 h 6.877 v 20.501 h -6.877 v 0.703 h 6.877 v 6.715 h 0.72 v -6.715 h 20.995 v 6.715 h 0.72 v -6.715 h 20.995 v 6.715 h 0.72 v -6.715 h 20.995 v 6.715 h 0.72 v -6.715 h 20.995 v 6.715 h 0.72 v -6.715 h 20.995 v 6.715 h 0.72 v -6.715 h 20.995 v 6.715 h 0.72 v -6.715 h 6.877 v -0.703 h -6.877 v -20.501 h 6.877 v -0.703 h -6.877 v -20.501 h 6.877 v -0.703 h -6.877 v -20.501 h 6.877 v -0.703 h -6.877 v -20.501 h 6.877 v -0.703 h -6.877 v -20.501 h 6.877 v -0.703 h -6.877 v -20.501 h 6.877 v -0.703 h -6.877 v -6.715 h -0.72 v 6.715 h -20.995 v -6.715 h -0.72 v 6.715 h -20.995 v -6.715 h -0.72 v 6.715 h -20.995 v -6.715 h -0.72 v 6.715 h -20.995 v -6.715 h -0.72 v 6.715 h -20.995 v -6.715 h -0.72 v 6.715 h -20.995 v -6.715 h -0.72 z m 0.72 7.421 h 20.995 v 20.501 h -20.995 v -20.501 z m 21.716 0 h 20.995 v 20.501 h -20.995 v -20.501 z m 21.716 0 h 20.995 v 20.501 h -20.995 v -20.501 z m 21.716 0 h 20.995 v 20.501 h -20.995 v -20.501 z m 21.716 0 h 20.995 v 20.501 h -20.995 v -20.501 z m 21.716 0 h 20.995 v 20.501 h -20.995 v -20.501 z m -108.58 21.2 h 20.995 v 20.501 h -20.995 v -20.501 z m 21.716 0 h 20.995 v 20.501 h -20.995 v -20.501 z m 21.716 0 h 20.995 v 20.501 h -20.995 v -20.501 z m 21.716 0 h 20.995 v 20.501 h -20.995 v -20.501 z m 21.716 0 h 20.995 v 20.501 h -20.995 v -20.501 z m 21.716 0 h 20.995 v 20.501 h -20.995 v -20.501 z m -108.58 21.2 h 20.995 v 20.501 h -20.995 v -20.501 z m 21.716 0 h 20.995 v 20.501 h -20.995 v -20.501 z m 21.716 0 h 20.995 v 20.501 h -20.995 v -20.501 z m 21.716 0 h 20.995 v 20.501 h -20.995 v -20.501 z m 21.716 0 h 20.995 v 20.501 h -20.995 v -20.501 z m 21.716 0 h 20.995 v 20.501 h -20.995 v -20.501 z m -108.58 21.2 h 20.995 v 20.501 h -20.995 v -20.501 z m 21.716 0 h 20.995 v 20.501 h -20.995 v -20.501 z m 21.716 0 h 20.995 v 20.501 h -20.995 v -20.501 z m 21.716 0 h 20.995 v 20.501 h -20.995 v -20.501 z m 21.716 0 h 20.995 v 20.501 h -20.995 v -20.501 z m 21.716 0 h 20.995 v 20.501 h -20.995 v -20.501 z m -108.58 21.2 h 20.995 v 20.501 h -20.995 v -20.501 z m 21.716 0 h 20.995 v 20.501 h -20.995 v -20.501 z m 21.716 0 h 20.995 v 20.501 h -20.995 v -20.501 z m 21.716 0 h 20.995 v 20.501 h -20.995 v -20.501 z m 21.716 0 h 20.995 v 20.501 h -20.995 v -20.501 z m 21.716 0 h 20.995 v 20.501 h -20.995 v -20.501 z m -108.58 21.2 h 20.995 v 20.501 h -20.995 v -20.501 z m 21.716 0 h 20.995 v 20.501 h -20.995 v -20.501 z m 21.716 0 h 20.995 v 20.501 h -20.995 v -20.501 z m 21.716 0 h 20.995 v 20.501 h -20.995 v -20.501 z m 21.716 0 h 20.995 v 20.501 h -20.995 v -20.501 z m 21.716 0 h 20.995 v 20.501 h -20.995 v -20.501 z"
       style="fill:#ff4500;fill-rule:evenodd"
       id="path151" />
    <rect
       transform="matrix(-0.73428796,0.67883812,0.74549338,0.66651303,0,0)"
       ry="1.7349921"
       rx="1.6110044"
       y="115.737"
       x="28.70714"
       height="159.70927"
       width="3.2210088"
       style="fill:#ff4500"
       id="rect153" />
    <use
       transform="translate(-0.705 0.713)"
       xlink:href="#0"
       id="use155"
       style="fill:#ff4500" />
    <use
       transform="translate(15.322 12.732)"
       xlink:href="#0"
       id="use157"
       style="fill:#ff4500" />
    <use
       transform="translate(59.39 34.769)"
       xlink:href="#0"
       id="use159"
       style="fill:#ff4500" />
    <use
       transform="translate(13.319 57.807)"
       xlink:href="#0"
       id="use161"
       style="fill:#ff4500" />
    <use
       transform="translate(57.39 57.807)"
       xlink:href="#0"
       id="use163"
       style="fill:#ff4500" />
  </g>
</svg>
