<?xml version="1.0" encoding="UTF-8" standalone="no"?>
<svg
   xmlns:dc="http://purl.org/dc/elements/1.1/"
   xmlns:cc="http://creativecommons.org/ns#"
   xmlns:rdf="http://www.w3.org/1999/02/22-rdf-syntax-ns#"
   xmlns:svg="http://www.w3.org/2000/svg"
   xmlns="http://www.w3.org/2000/svg"
   xmlns:xlink="http://www.w3.org/1999/xlink"
   xmlns:sodipodi="http://sodipodi.sourceforge.net/DTD/sodipodi-0.dtd"
   xmlns:inkscape="http://www.inkscape.org/namespaces/inkscape"
   viewBox="0 0 256 256"
   id="svg625"
   version="1.1"
   inkscape:version="0.48.4 r9939"
   width="100%"
   height="100%"
   sodipodi:docname="application-x-gns3.svg">
  <metadata
     id="metadata668">
    <rdf:RDF>
      <cc:Work
         rdf:about="">
        <dc:format>image/svg+xml</dc:format>
        <dc:type
           rdf:resource="http://purl.org/dc/dcmitype/StillImage" />
      </cc:Work>
    </rdf:RDF>
  </metadata>
  <sodipodi:namedview
     pagecolor="#ffffff"
     bordercolor="#666666"
     borderopacity="1"
     objecttolerance="10"
     gridtolerance="10"
     guidetolerance="10"
     inkscape:pageopacity="0"
     inkscape:pageshadow="2"
     inkscape:window-width="644"
     inkscape:window-height="496"
     id="namedview666"
     showgrid="false"
     inkscape:zoom="0.921875"
     inkscape:cx="128"
     inkscape:cy="128"
     inkscape:window-x="0"
     inkscape:window-y="24"
     inkscape:window-maximized="0"
     inkscape:current-layer="g646" />
  <defs
     id="defs627">
    <path
       id="0"
       d="m 108.16 117.56 a 20.55 19.468 0 1 1 -41.1 0 20.55 19.468 0 1 1 41.1 0 z"
       style="fill:#f0f8ff" />
    <clipPath
       id="clipPath630">
      <rect
         y="56"
         x="-202"
         width="84"
         rx="10"
         height="88"
         style="fill:none;stroke:#000;display:block;color:#000"
         id="rect632" />
    </clipPath>
    <clipPath
       id="clipPath634">
      <rect
         y="56"
         x="-202"
         width="84"
         rx="10"
         height="88"
         style="fill:none;stroke:#000;display:block;color:#000"
         id="rect636" />
    </clipPath>
    <clipPath
       id="clipPath638">
      <rect
         y="56"
         x="-202"
         width="84"
         rx="10"
         height="88"
         style="fill:none;stroke:#000;display:block;color:#000"
         id="rect640" />
    </clipPath>
  </defs>
  <g
     transform="translate(0 -796.36)"
     id="g642">
    <path
       d="m 252.75 895.07 c -49.981 -239.91 -393.86 17.642 -187.29 139.59 80.25 52.27 213 -16.2 187.29 -139.59 z"
       style="fill:#ffffff;color:#000"
       id="path644" />
    <g
       transform="matrix(4.65185 0 0 3.68163 28.25 810.18)"
       id="g646">
      <path
         d="M 29,12 29.062,12.062 29.219,12 29,12 z m 2,2 11,11 0,-11 -11,0 z"
         style="fill-opacity:0.196"
         id="path648" />
      <path
         d="M 29,1 42,14 H 31 c -0.971,0 -2,-1.029 -2,-2 V 1"
         style="fill:#ff4500;fill-opacity:0.392"
         id="path650" />
      <use
         transform="matrix(0.21497 0 0 0.27162 -0.028 -5.81)"
         xlink:href="#0"
         id="use652"
         style="stroke:#ff4500;fill:#ff4500" />
      <use
         transform="matrix(0.21497 0 0 0.27162 10.9 9.76)"
         xlink:href="#0"
         id="use654"
         style="fill:#ff4500;stroke:#ff4500" />
      <use
         transform="matrix(0.21497 0 0 0.27162 -5.84 6.529)"
         xlink:href="#0"
         id="use656"
         style="stroke:#ff4500;fill:#ff4500" />
      <g
         style="fill:#f0f8ff;stroke:#ff4500"
         id="g658">
        <rect
           width="0.748"
           height="19.855"
           x="28.25"
           y="7.162"
           transform="matrix(0.80704 0.59049 -0.41663 0.90908 0 0)"
           rx="0.082"
           ry="0.506"
           id="rect660"
           style="stroke:#ff4500" />
        <rect
           ry="0.376"
           rx="0.108"
           transform="matrix(-0.12835 0.99173 -0.97931 -0.20235 0 0)"
           y="-34.51"
           x="34.515"
           height="16.635"
           width="0.877"
           id="rect662"
           style="stroke:#ff4500" />
        <rect
           ry="0.509"
           rx="0.082"
           transform="matrix(-0.62835 0.77793 0.6128 0.79024 0 0)"
           y="32.928"
           x="0.955"
           height="18.853"
           width="0.793"
           id="rect664"
           style="stroke:#ff4500" />
      </g>
    </g>
  </g>
</svg>
