<svg xmlns="http://www.w3.org/2000/svg" viewBox="0 0 256 256"><g transform="translate(0 -796.36)"><path d="m -1374.42 1658.71 c 125.16 -274.08 -273.7 -240.16 -226.07 -62.2 23.02 102.82 167.39 165.22 226.07 62.2 z" transform="translate(1605.44 -659.12)" style="fill:#fff;color:#000"/><g transform="matrix(4.38551 0 0 4.28454 31.23 816.58)"><path d="m 8 1 c -1.029 0 -2 0.971 -2 2 v 42 c 0 0.971 1.029 2 2 2 h 32 c 0.971 0 2 -1.029 2 -2 v -31 l -13 -13" style="fill:#fff"/><path d="M 29,12 29.062,12.062 29.219,12 29,12 Z m 2,2 11,11 0,-11 -11,0 z" style="fill-opacity:0.196"/><path d="m 29 1 l 13 13 h -11 c -0.971 0 -2 -1.029 -2 -2 v -11" style="fill:#ff4500;fill-opacity:0.392"/><path d="m 6 35 v 10 c 0 0.971 1.029 2 2 2 h 32 c 0.971 0 2 -1.029 2 -2 v -10 z" style="fill:#fff;fill-opacity:0.196"/><g style="fill:#ff4500"><path d="m 18 1 v 4 h 4 v -4 h -4 z m 0 4 h -4 v 4 h 4 v -4 z m 0 4 v 4 h 4 v -4 h -4 z m 0 4 h -4 v 4 h 4 v -4 z m 0 4 v 4 h 4 v -4 h -4 z m -4 6 v 8 h 8 v -8 h -4 h -4 z"/><g transform="scale(1.0097 0.99041)"><path d="m 16.749 45.27 h -4.864 v -7.74 h 1.55 v 6.465 h 3.314 v 1.275"/><path d="m 22.813 38.609 c -0.358 0.55 -0.688 1.067 -0.988 1.55 -0.3 0.483 -0.579 0.946 -0.838 1.388 -0.258 0.433 -0.504 0.854 -0.738 1.263 -0.225 0.4 -0.442 0.796 -0.65 1.188 h 3.326 v 1.275 h -5.102 v -0.888 c 0.183 -0.358 0.379 -0.734 0.588 -1.125 0.208 -0.4 0.442 -0.825 0.7 -1.275 0.258 -0.45 0.538 -0.938 0.838 -1.463 0.308 -0.525 0.646 -1.096 1.013 -1.713 h -2.976 v -1.275 h 4.826 v 1.075"/><path d="m 25.402 41.4 c 0 0.375 0.012 0.729 0.038 1.063 0.033 0.325 0.092 0.609 0.175 0.85 0.092 0.242 0.217 0.433 0.375 0.575 0.158 0.142 0.371 0.213 0.638 0.213 0.258 0 0.467 -0.071 0.625 -0.213 0.167 -0.142 0.292 -0.333 0.375 -0.575 0.092 -0.25 0.15 -0.538 0.175 -0.863 0.033 -0.325 0.05 -0.675 0.05 -1.05 0 -0.375 -0.017 -0.725 -0.05 -1.05 -0.025 -0.333 -0.083 -0.621 -0.175 -0.863 -0.083 -0.242 -0.204 -0.433 -0.363 -0.575 -0.158 -0.142 -0.371 -0.213 -0.638 -0.213 -0.267 0 -0.479 0.071 -0.638 0.213 -0.158 0.142 -0.283 0.338 -0.375 0.588 -0.083 0.242 -0.142 0.525 -0.175 0.85 c -0.025 0.325 -0.038 0.675 -0.038 1.05 m -1.563 0 c 0 -1.334 0.246 -2.338 0.738 -3.01 0.492 -0.684 1.175 -1.025 2.051 -1.025 0.909 0 1.601 0.342 2.076 1.025 0.475 0.675 0.713 1.68 0.713 3.01 0 1.334 -0.242 2.342 -0.725 3.03 -0.483 0.675 -1.167 1.013 -2.051 1.013 -0.909 0 -1.605 -0.338 -2.088 -1.013 -0.475 -0.684 -0.713 -1.692 -0.713 -3.03"/><path d="m 32.554 37.446 c 0.984 0 1.746 0.204 2.288 0.613 0.542 0.4 0.813 1.059 0.813 1.976 0 0.925 -0.275 1.596 -0.825 2.01 -0.542 0.408 -1.313 0.613 -2.313 0.613 h -0.55 v 2.613 h -1.538 v -7.64 c 0.15 -0.033 0.317 -0.063 0.5 -0.088 0.192 -0.025 0.383 -0.042 0.575 -0.05 0.192 -0.017 0.379 -0.029 0.563 -0.038 0.183 -0.008 0.346 -0.013 0.488 -0.013 m 0.175 1.338 c -0.092 0 -0.221 0.004 -0.388 0.013 -0.158 0 -0.283 0.008 -0.375 0.025 v 2.501 h 0.625 c 0.492 0 0.863 -0.096 1.113 -0.288 0.25 -0.2 0.375 -0.538 0.375 -1.013 0 -0.45 -0.125 -0.767 -0.375 -0.95 -0.242 -0.192 -0.567 -0.288 -0.975 -0.288"/></g></g></g></g></svg>