<svg xmlns="http://www.w3.org/2000/svg" viewBox="0 0 256 256"><g transform="translate(0 -796.36)"><path d="m 211.17 833.49 c 201.82 266.38 -353.59 304.22 -175.35 32.31 40.634 -61.991 121.89 -102.86 175.35 -32.31 z" style="fill:#fff;color:#000"/><g transform="matrix(4.25274 0 0 4.05943 26.44 838.06)"><path d="M 29,12 29.062,12.062 29.219,12 29,12 Z m 2,2 11,11 0,-11 -11,0 z" style="fill-opacity:0.196"/><g style="fill:#ff4500"><path d="m 29 1 l 13 13 h -11 c -0.971 0 -2 -1.029 -2 -2 v -11" style="fill-opacity:0.392"/><path d="m 24 32.28 l -6.285 -6.285 l 6.285 -6.284 l 2.095 2.095 l -4.19 4.19 l 2.095 2.095 l 6.285 -6.284 l -5.475 -5.475 c -0.447 -0.447 -1.172 -0.447 -1.62 0 l -8.855 8.855 c -0.447 0.447 -0.447 1.172 0 1.62 l 8.855 8.855 c 0.447 0.447 1.173 0.447 1.62 0 l 8.855 -8.856 c 0.447 -0.447 0.447 -1.173 0 -1.62 l -1.286 -1.285 l -8.379 8.38"/></g></g></g></svg>