<svg xmlns="http://www.w3.org/2000/svg" viewBox="0 0 256 256"><g transform="translate(0 -796.36)"><path d="m 3.25 953.66 c 49.981 239.91 393.86 -17.642 187.29 -139.59 -80.25 -52.27 -213 16.2 -187.29 139.59 z" style="fill:#fff;color:#000"/><g transform="matrix(4.29498 0 0 3.9552 24.92 824.39)" style="fill:#ff4500"><path d="M 29,12 29.062,12.062 29.219,12 29,12 Z m 2,2 11,11 0,-11 -11,0 z" style="fill-opacity:0.196"/><path d="m 29 1 l 13 13 h -11 c -0.971 0 -2 -1.029 -2 -2 v -11" style="fill-opacity:0.392"/></g><g transform="matrix(0.59746 0 0 0.55085 30.374 434.7)" style="fill-rule:evenodd"><path d="m 55.955 958.75 c -9.962 -5.673 -10.04 -6.118 -10.04 -56.09 0 -48.877 0.033 -49.08 8.913 -55.721 3.945 -2.949 10.17 -3.356 51.38 -3.356 61.759 0 61.24 -0.276 61.24 32.363 v 18.837 h -12.619 h -12.619 l -0.544 -11.274 c -0.759 -15.718 -2.047 -16.23 -40.942 -16.266 l -31.32 -0.029 l 0.027 29.05 c 0.037 40.649 -1.427 38.651 29.22 39.877 l 24.607 0.985 l 9.841 9.605 c 5.413 5.283 9.841 10.6 9.841 11.815 0 1.554 -12.13 2.359 -40.851 2.711 -33.744 0.413 -41.769 -0.022 -46.13 -2.503 z" style="fill:#ff4500;stroke:#ff4500;stroke-width:10.351"/><g transform="matrix(1.67376 0 0 1.81539 -50.839 656.55)" style="fill:#ffdead;stroke:#ffdead"><path d="m 98.15 147.36 c -4.976 -4.583 -5.994 -5.264 -7.561 -5.05 -2.283 0.306 -3.07 1.747 -3.074 5.622 l -0.002 2.114 h -0.939 h -0.939 v -2.515 c 0 -3.908 1.13 -5.858 3.812 -6.581 2.195 -0.591 4.188 0.033 6.218 1.947 0.608 0.573 2.142 1.958 3.411 3.078 1.268 1.119 2.462 2.176 2.653 2.349 0.191 0.172 0.881 0.771 1.532 1.331 l 1.185 1.018 h -1.352 c -1.282 0 -1.538 -0.171 -4.943 -3.308 z" style="stroke-width:1.714"/><path d="m 96.12 194.63 c -5.04 -2.038 -6.929 -6.215 -6.929 -15.354 v -5.4 l 8.22 -0.626 h 6.967 v 1.772 c 0 7.129 1.655 7.655 24.11 7.655 h 19.284 l -0.017 -17.08 c -0.009 -9.397 -0.375 -17.622 -0.814 -18.278 -1.903 -2.85 -6.087 -3.688 -18.407 -3.688 h -12.872 l -6.183 -5.51 c -3.4 -3.03 -6.183 -5.96 -6.183 -6.508 0 -0.549 1.953 -0.998 4.339 -0.998 3.134 0 4.339 0.452 4.339 1.627 0 1.338 1.928 1.627 10.847 1.627 8.919 0 10.847 -0.289 10.847 -1.627 0 -1.288 1.525 -1.622 7.322 -1.601 9.355 0.033 15.03 1.367 18.11 4.253 2.323 2.182 2.47 3.328 3.111 24.23 0.764 24.9 0.091 30.511 -4.09 34.11 -2.838 2.441 -3.23 2.471 -31.29 2.404 -15.628 -0.038 -29.445 -0.485 -30.705 -0.994 z" style="stroke-width:5.938"/><g style="stroke-width:1.714"><path d="m 92.34 150.44 l -3.782 -0.098 l -0.028 -2.567 c -0.028 -2.579 0.225 -3.51 1.144 -4.216 0.601 -0.462 2.219 -0.526 2.219 -0.088 0 0.172 0.2 0.313 0.446 0.313 0.434 0 1.097 0.567 5.661 4.833 l 2.192 2.049 l -2.035 -0.064 c -1.12 -0.035 -3.737 -0.108 -5.817 -0.162 z"/><path d="m 127.72 154.65 c -0.362 -0.209 -2.576 -2.071 -4.921 -4.138 l -4.264 -3.758 l 4.295 -0.097 c 2.362 -0.053 5.176 -0.007 6.252 0.103 l 1.957 0.2 v 3.248 c 0 3.911 -0.328 4.848 -1.694 4.833 -0.532 -0.006 -1.263 -0.182 -1.625 -0.391 z"/><path d="m 128.02 157.44 c -1.112 -0.298 -3.55 -1.775 -4.686 -2.841 -0.19 -0.178 -1.599 -1.467 -3.131 -2.863 -1.532 -1.397 -3.42 -3.119 -4.195 -3.828 l -1.409 -1.289 l 1.098 -0.008 c 0.889 -0.007 1.474 0.32 3.075 1.716 8.675 7.566 8.818 7.67 10.511 7.67 2.125 0 2.695 -1.299 2.695 -6.146 v -2.936 h 0.939 h 0.939 l 0.044 2.27 c 0.07 3.647 -0.058 4.696 -0.746 6.094 -0.948 1.927 -2.913 2.754 -5.134 2.16 z"/></g></g></g></g></svg>