<svg xmlns="http://www.w3.org/2000/svg" viewBox="0 0 256 256"><defs><clipPath><rect width="46" height="46" x="1" y="1" rx="4" style="fill:#1890d0"/></clipPath><clipPath><rect width="46" height="46" x="1" y="1" rx="4" style="fill:#1890d0"/></clipPath><clipPath><rect width="46" height="46" x="1" y="1" rx="4" style="fill:#1890d0"/></clipPath><clipPath><rect width="46" height="46" x="1" y="1" rx="4" style="fill:#1890d0"/></clipPath><clipPath><rect width="46" height="46" x="1" y="1" rx="4" style="fill:#1890d0"/></clipPath><clipPath><rect width="46" height="46" x="1" y="1" rx="4" style="fill:#1890d0"/></clipPath><clipPath><rect width="46" height="46" x="1" y="1" rx="4" style="fill:#1890d0"/></clipPath><clipPath><rect width="46" height="46" x="1" y="1" rx="4" style="fill:#1890d0"/></clipPath><clipPath><rect width="46" height="46" x="1" y="1" rx="4" style="fill:#1890d0"/></clipPath><clipPath><rect width="46" height="46" x="1" y="1" rx="4" style="fill:#1890d0"/></clipPath><clipPath><rect width="46" height="46" x="1" y="1" rx="4" style="fill:#1890d0"/></clipPath><clipPath><rect width="46" height="46" x="1" y="1" rx="4" style="fill:#1890d0"/></clipPath><clipPath><rect width="46" height="46" x="1" y="1" rx="4" style="fill:#1890d0"/></clipPath><clipPath><rect width="46" height="46" x="1" y="1" rx="4" style="fill:#1890d0"/></clipPath><clipPath><rect width="46" height="46" x="1" y="1" rx="4" style="fill:#1890d0"/></clipPath><clipPath><rect width="46" height="46" x="1" y="1" rx="4" style="fill:#1890d0"/></clipPath><clipPath><rect width="46" height="46" x="1" y="1" rx="4" style="fill:#1890d0"/></clipPath><clipPath><rect width="46" height="46" x="1" y="1" rx="4" style="fill:#1890d0"/></clipPath><clipPath><rect width="46" height="46" x="1" y="1" rx="4" style="fill:#1890d0"/></clipPath><clipPath><rect width="46" height="46" x="1" y="1" rx="4" style="fill:#1890d0"/></clipPath><clipPath><rect width="46" height="46" x="1" y="1" rx="4" style="fill:#1890d0"/></clipPath><clipPath><rect width="46" height="46" x="1" y="1" rx="4" style="fill:#1890d0"/></clipPath><clipPath><rect width="46" height="46" x="1" y="1" rx="4" style="fill:#1890d0"/></clipPath><clipPath><rect width="46" height="46" x="1" y="1" rx="4" style="fill:#1890d0"/></clipPath><clipPath><rect width="46" height="46" x="1" y="1" rx="4" style="fill:#1890d0"/></clipPath><clipPath><rect width="46" height="46" x="1" y="1" rx="4" style="fill:#1890d0"/></clipPath><clipPath><rect width="46" height="46" x="1" y="1" rx="4" style="fill:#1890d0"/></clipPath><clipPath><rect width="46" height="46" x="1" y="1" rx="4" style="fill:#1890d0"/></clipPath><clipPath><rect width="46" height="46" x="1" y="1" rx="4" style="fill:#1890d0"/></clipPath><clipPath><rect width="46" height="46" x="1" y="1" rx="4" style="fill:#1890d0"/></clipPath><clipPath><rect width="46" height="46" x="1" y="1" rx="4" style="fill:#1890d0"/></clipPath><clipPath><rect width="46" height="46" x="1" y="1" rx="4" style="fill:#1890d0"/></clipPath><clipPath><rect width="46" height="46" x="1" y="1" rx="4" style="fill:#1890d0"/></clipPath><clipPath><rect width="46" height="46" x="1" y="1" rx="4" style="fill:#1890d0"/></clipPath><clipPath><rect width="46" height="46" x="1" y="1" rx="4" style="fill:#1890d0"/></clipPath><clipPath><rect width="46" height="46" x="1" y="1" rx="4" style="fill:#1890d0"/></clipPath><clipPath><rect width="46" height="46" x="1" y="1" rx="4" style="fill:#1890d0"/></clipPath><clipPath><rect width="46" height="46" x="1" y="1" rx="4" style="fill:#1890d0"/></clipPath><clipPath><rect width="46" height="46" x="1" y="1" rx="4" style="fill:#1890d0"/></clipPath><clipPath><rect width="46" height="46" x="1" y="1" rx="4" style="fill:#1890d0"/></clipPath><clipPath><rect width="46" height="46" x="1" y="1" rx="4" style="fill:#1890d0"/></clipPath><clipPath><rect width="46" height="46" x="1" y="1" rx="4" style="fill:#1890d0"/></clipPath><clipPath><rect width="46" height="46" x="1" y="1" rx="4" style="fill:#1890d0"/></clipPath><clipPath><rect width="46" height="46" x="1" y="1" rx="4" style="fill:#1890d0"/></clipPath><clipPath><rect width="46" height="46" x="1" y="1" rx="4" style="fill:#1890d0"/></clipPath><clipPath><rect width="46" height="46" x="1" y="1" rx="4" style="fill:#1890d0"/></clipPath><clipPath><rect width="46" height="46" x="1" y="1" rx="4" style="fill:#1890d0"/></clipPath><clipPath><rect width="46" height="46" x="1" y="1" rx="4" style="fill:#1890d0"/></clipPath><clipPath><rect width="46" height="46" x="1" y="1" rx="4" style="fill:#1890d0"/></clipPath><clipPath><rect width="46" height="46" x="1" y="1" rx="4" style="fill:#1890d0"/></clipPath><clipPath><rect width="46" height="46" x="1" y="1" rx="4" style="fill:#1890d0"/></clipPath><clipPath><rect width="46" height="46" x="1" y="1" rx="4" style="fill:#1890d0"/></clipPath><clipPath><rect width="46" height="46" x="1" y="1" rx="4" style="fill:#1890d0"/></clipPath><clipPath><rect width="46" height="46" x="1" y="1" rx="4" style="fill:#1890d0"/></clipPath><clipPath><rect width="46" height="46" x="1" y="1" rx="4" style="fill:#1890d0"/></clipPath><clipPath><rect width="46" height="46" x="1" y="1" rx="4" style="fill:#1890d0"/></clipPath><clipPath><rect width="46" height="46" x="1" y="1" rx="4" style="fill:#1890d0"/></clipPath><clipPath><rect width="46" height="46" x="1" y="1" rx="4" style="fill:#1890d0"/></clipPath><clipPath><path transform="matrix(15.33333 0 0 11.5 415 -125.5)" d="m -24 13 c 0 1.105 -0.672 2 -1.5 2 -0.828 0 -1.5 -0.895 -1.5 -2 0 -1.105 0.672 -2 1.5 -2 0.828 0 1.5 0.895 1.5 2 z"/></clipPath></defs><g transform="translate(0 -796.36)"><path d="m 211.17 833.49 c 201.82 266.38 -353.59 304.22 -175.35 32.31 40.634 -61.991 121.89 -102.86 175.35 -32.31 z" style="fill:#fff;color:#000"/><g transform="matrix(4.06141 0 0 3.90144 24.1 845.07)"><path d="m 31.49 5 l 0.062 0.062 l 0.157 -0.062 h -0.219 z m 2 2 l 11 11 v -11 h -11 z" style="fill-opacity:0.196"/><path d="m 31.49 -5.997 l 13 13 h -11 c -0.971 0 -2 -1.029 -2 -2 v -11 z" style="fill:#ff4500;fill-opacity:0.392"/></g><g transform="matrix(1.47954 0 0 1.22923 20.347 873.68)" style="fill:#ff4500"><path d="m 66.11 110.28 c -0.999 -0.237 -2.164 -0.888 -3.098 -1.731 -1.615 -1.458 -6.459 -8.111 -12.405 -17.04 -8.245 -12.38 -15.974 -23.482 -20.322 -29.19 -4.628 -6.074 -5.679 -7.734 -5.858 -9.249 -0.088 -0.739 -0.053 -0.849 0.412 -1.314 0.279 -0.279 0.668 -0.507 0.864 -0.507 0.615 0 2.685 0.77 5.166 1.92 6.595 3.059 9.464 3.624 11.714 2.305 1.482 -0.869 2.588 -2.843 3.577 -6.384 0.818 -2.928 1.926 -4.544 3.425 -4.993 0.58 -0.174 0.747 -0.155 1.38 0.152 0.898 0.435 2.643 1.85 5.12 4.151 3.267 3.034 4.545 4.04 6.226 4.881 1.076 0.541 1.705 0.668 3.207 0.651 2.785 -0.032 4.967 -1.225 7.147 -3.907 2.134 -2.626 3.407 -4.784 7.701 -13.05 3.837 -7.389 5.373 -10.01 6.682 -11.4 1.24 -1.317 1.822 -1.495 2.54 -0.778 1.869 1.869 1.616 6.108 -1.227 20.562 -3.098 15.752 -9.458 43.14 -12.13 52.21 -2.09 7.109 -3.676 10.334 -5.796 11.793 -1.35 0.929 -2.896 1.257 -4.327 0.917 z m 3.41 -8.947 c 0.509 -0.337 0.712 -0.643 1.076 -1.623 1.111 -2.997 3.156 -11.542 6.551 -27.375 4.088 -19.06 5.497 -26.837 5.02 -27.689 -0.219 -0.391 -0.451 0.027 -4.083 7.352 -3.368 6.792 -4.755 9.297 -6.076 10.969 -1.932 2.445 -3.28 3.222 -5.82 3.352 -3.067 0.157 -4.952 -0.855 -7.569 -4.064 -1.649 -2.02 -3.183 -3.7 -3.383 -3.7 -0.244 0 -0.504 0.675 -1.077 2.8 -1.117 4.141 -2.914 6.66 -4.752 6.662 -1.255 0.001 -4.933 -1.708 -8.874 -4.124 -3.041 -1.864 -4.369 -2.499 -4.369 -2.091 0 0.242 0.541 1.033 2.55 3.724 1.192 1.598 3.991 5.371 6.22 8.384 2.229 3.01 5.796 7.795 7.926 10.625 2.131 2.831 5.269 7.01 6.973 9.297 3.337 4.468 5.062 6.551 5.949 7.182 1.331 0.947 2.621 1.057 3.739 0.317 z"/><path d="m 63.802 96.01 c -1.72 -0.765 -2.913 -4.148 -4.221 -11.968 -1.032 -6.173 -1.4 -9.335 -1.412 -12.12 -0.013 -2.99 0.143 -3.612 0.929 -3.703 0.812 -0.094 1.391 0.986 3.224 6.01 3.216 8.815 5.262 18.832 4.311 21.11 -0.366 0.877 -1.673 1.187 -2.83 0.672 z"/><path d="m 37.21,41.609 -0.271,-0.676 -1.222,0.115 c -1.038,0.097 -1.222,0.076 -1.222,-0.14 0,-0.14 -0.041,-0.362 -0.091,-0.493 -0.071,-0.185 0.14,-0.262 0.941,-0.346 0.568,-0.059 1.07,-0.145 1.115,-0.191 0.046,-0.046 0.014,-0.438 -0.07,-0.871 l -0.152,-0.788 -1.053,-0.084 c -0.905,-0.072 -1.111,-0.152 -1.471,-0.57 -0.349,-0.406 -0.405,-0.606 -0.336,-1.216 0.086,-0.765 0.704,-1.6 1.33,-1.798 0.271,-0.086 0.305,-0.203 0.218,-0.749 -0.057,-0.356 -0.043,-0.647 0.031,-0.647 0.238,0 0.533,0.389 0.533,0.702 0,0.274 0.104,0.293 1.061,0.195 1,-0.103 1.068,-0.087 1.18,0.265 0.139,0.438 -0.118,0.658 -0.775,0.662 -0.793,0.005 -0.963,0.148 -0.855,0.723 0.191,1.01 0.312,1.106 1.372,1.106 0.885,0 1.015,0.047 1.405,0.511 0.313,0.372 0.43,0.7 0.43,1.208 0,0.818 -0.278,1.272 -1.083,1.77 -0.572,0.354 -0.582,0.379 -0.477,1.176 0.136,1.022 -0.156,1.097 -0.54,0.138 z m 0.743,-3.054 c -0.184,-0.404 -0.783,-0.672 -1.01,-0.45 -0.167,0.167 0.141,1.215 0.408,1.386 0.133,0.085 0.315,0.009 0.493,-0.205 0.225,-0.27 0.246,-0.421 0.104,-0.732 z m -2.296,-1.807 c 0,-0.346 -0.35,-1.27 -0.481,-1.27 -0.217,0 -0.515,0.397 -0.515,0.685 0,0.348 0.433,0.809 0.759,0.809 0.13,0 0.237,-0.101 0.237,-0.224 z"/><path d="m 40.496,35.714 c -0.558,-1.95 -1.015,-3.658 -1.015,-3.797 0,-0.138 0.181,-0.297 0.402,-0.352 0.851,-0.214 0.973,-0.073 1.559,1.798 0.307,0.981 0.618,1.783 0.691,1.783 0.073,0 0.448,-0.53 0.832,-1.178 0.515,-0.867 0.847,-1.239 1.259,-1.411 0.308,-0.128 0.637,-0.234 0.732,-0.234 0.095,0 -0.166,0.676 -0.581,1.501 -0.415,0.826 -0.715,1.564 -0.668,1.641 0.047,0.077 0.759,0.538 1.582,1.025 0.823,0.487 1.496,0.941 1.496,1.01 0,0.068 -0.301,0.213 -0.669,0.324 -0.64,0.192 -0.731,0.169 -2.08,-0.515 -0.776,-0.393 -1.453,-0.673 -1.504,-0.621 -0.052,0.052 0.03,0.52 0.182,1.041 0.152,0.521 0.214,1.01 0.14,1.076 -0.075,0.071 -0.407,0.202 -0.739,0.291 l -0.603,0.163 -1.015,-3.545 z"/><path d="m 48.07 37.03 c -0.224 -0.378 -1.462 -4.751 -1.415 -4.997 0.03 -0.157 0.315 -0.371 0.634 -0.475 0.493 -0.161 0.601 -0.149 0.728 0.083 0.082 0.15 0.17 0.298 0.195 0.33 0.026 0.031 0.375 -0.286 0.777 -0.706 0.837 -0.874 1.063 -0.933 1.29 -0.337 0.257 0.675 0.194 0.888 -0.295 1 -1.232 0.291 -1.472 1.201 -0.872 3.302 0.419 1.464 0.416 1.52 -0.068 1.641 -0.22 0.055 -0.511 0.143 -0.647 0.195 -0.136 0.052 -0.284 0.034 -0.328 -0.041 z"/><path d="m 53.09 34.849 c -1.105 -0.604 -1.637 -1.825 -1.421 -3.262 0.21 -1.401 1.431 -2.312 3.115 -2.323 1.119 -0.007 1.674 0.328 2.195 1.326 0.459 0.879 0.465 2.435 0.013 3.19 -0.657 1.097 -2.785 1.68 -3.902 1.069 z m 2.2 -1.194 c 0.53 -0.417 0.679 -1 0.46 -1.813 -0.194 -0.721 -0.898 -1.51 -1.346 -1.51 -0.165 0 -0.501 0.173 -0.746 0.384 -0.372 0.32 -0.443 0.513 -0.43 1.159 0.034 1.686 1.058 2.57 2.062 1.781 z"/><path d="m 59.63 32.681 c -0.587 -0.369 -1.16 -1.437 -1.322 -2.464 -0.355 -2.249 2.859 -4.096 4.661 -2.678 1.046 0.823 1.459 2.86 0.806 3.978 -0.678 1.161 -3.078 1.835 -4.144 1.164 z m 2.487 -1.2 c 0.54 -0.425 0.579 -1.236 0.11 -2.271 -0.399 -0.878 -0.94 -1.166 -1.594 -0.848 -0.749 0.364 -0.934 1.057 -0.57 2.133 0.456 1.347 1.163 1.686 2.053 0.986 z"/><path d="m 66.982 32.746 c -0.234 -0.61 -0.127 -0.754 0.561 -0.754 0.85 0 1.7 -0.353 2.048 -0.849 0.298 -0.426 0.353 -1.253 0.109 -1.64 -0.135 -0.213 -0.193 -0.201 -0.407 0.083 -0.138 0.182 -0.253 0.385 -0.256 0.451 -0.01 0.227 -1.049 0.66 -1.582 0.66 -1.322 0 -2.228 -1.055 -2.364 -2.752 -0.061 -0.76 -0.012 -1.176 0.183 -1.554 0.53 -1.025 1.608 -1.447 2.668 -1.044 0.37 0.141 0.426 0.118 0.426 -0.174 0 -0.227 0.187 -0.415 0.576 -0.577 0.74 -0.309 0.862 -0.303 0.965 0.05 1.09 3.733 1.298 4.591 1.329 5.464 0.041 1.168 -0.223 1.578 -1.5 2.329 -0.924 0.543 -2.593 0.73 -2.755 0.308 z m 1.808 -3.652 c 0.491 -0.491 0.516 -1.081 0.086 -2.028 -0.399 -0.878 -0.863 -1.151 -1.505 -0.885 -0.943 0.391 -1.059 1.829 -0.227 2.817 0.52 0.618 1.091 0.651 1.646 0.095 z"/><path d="m 74.73,28.17 c -0.452,-0.064 -0.949,-0.31 -1.439,-0.711 -0.452,-0.371 -0.926,-0.613 -1.197,-0.613 -0.39,0 -0.432,-0.048 -0.326,-0.374 0.067,-0.205 0.132,-0.598 0.144,-0.872 0.019,-0.426 -0.032,-0.491 -0.352,-0.446 -0.464,0.064 -0.49,-0.274 -0.063,-0.818 0.171,-0.218 0.365,-0.657 0.431,-0.977 0.222,-1.065 1.127,-2.194 2.081,-2.597 0.778,-0.328 2.14,-0.356 2.336,-0.047 0.34,0.537 0.18,0.817 -0.468,0.817 -0.892,0 -1.707,0.474 -2.084,1.211 -0.177,0.347 -0.292,0.661 -0.254,0.698 0.037,0.037 0.531,-0.057 1.098,-0.208 0.745,-0.2 1.08,-0.226 1.211,-0.095 0.253,0.253 -0.058,0.502 -1.172,0.941 -0.577,0.228 -0.933,0.472 -0.97,0.667 -0.102,0.529 0.192,0.62 1.118,0.345 0.483,-0.144 0.916,-0.224 0.961,-0.179 0.233,0.233 -0.193,0.744 -0.782,0.938 -0.364,0.12 -0.661,0.282 -0.661,0.36 0,0.25 1.063,0.8 1.547,0.8 0.561,10e-4 1.039,-0.229 1.638,-0.787 l 0.445,-0.415 0.113,0.603 c 0.133,0.709 -0.023,0.948 -0.887,1.36 -0.812,0.387 -1.622,0.518 -2.468,0.398 z"/><path d="m 92.8,59.39 c 0.03,-0.086 0.84,-2.104 1.799,-4.482 l 1.743,-4.325 5.23,0.041 5.23,0.041 0.194,2.324 c 0.107,1.278 0.2,3.277 0.208,4.441 l 0.014,2.117 h -7.236 c -4.478,0 -7.215,-0.06 -7.18,-0.157 z"/><path d="m 86.46,75.45 c 0,-0.116 0.766,-2.135 1.702,-4.485 l 1.702,-4.274 8.508,-0.002 8.508,-0.002 -0.003,0.54 c -0.005,0.827 -0.448,3.782 -0.932,6.215 l -0.436,2.189 -9.524,0.015 c -7.6,0.012 -9.524,-0.027 -9.524,-0.196 z"/></g></g></svg>