<svg xmlns="http://www.w3.org/2000/svg" viewBox="0 0 256 256"><defs><clipPath><rect y="56" x="-202" width="84" rx="10" height="88" style="fill:none;stroke:#000;display:block;color:#000"/></clipPath><clipPath><rect y="56" x="-202" width="84" rx="10" height="88" style="fill:none;stroke:#000;display:block;color:#000"/></clipPath><clipPath><rect y="56" x="-202" width="84" rx="10" height="88" style="fill:none;stroke:#000;display:block;color:#000"/></clipPath></defs><g transform="translate(0 -796.36)"><path d="m 252.75 895.07 c -49.981 -239.91 -393.86 17.642 -187.29 139.59 80.25 52.27 213 -16.2 187.29 -139.59 z" style="fill:#fff;color:#000"/><g transform="matrix(4.65185 0 0 3.68163 16.318 842.72)"><path d="m 29.457 6.799 l 0.062 0.062 l 0.157 -0.062 h -0.219 z m 2 2 l 11 11 v -11 h -11 z" style="fill-opacity:0.196"/><g style="fill:#ff4500"><path d="M 29,1 42,14 H 31 c -0.971,0 -2,-1.029 -2,-2 V 1" transform="translate(0.686 -4.912)" style="fill-opacity:0.392"/><path d="m 21.05 43.489 l -2.975 -0.913 l 0.916 -4.865 q -2.28 -0.786 -4.356 -1.816 -2.077 -1.03 -3.988 -2.318 l 0.813 -4.228 q 1.929 1.6 3.977 2.777 2.07 1.165 4.28 1.912 l 0.965 -5.02 l -0.587 -0.283 q -4.259 -2.024 -5.834 -4.046 -1.556 -2.02 -1.032 -4.744 0.555 -2.89 3.106 -3.816 2.572 -0.938 6.769 0.196 l 0.735 -3.724 l 2.975 0.913 l -0.704 3.665 q 1.811 0.693 3.595 1.531 1.783 0.838 3.554 1.843 l -0.788 4.101 q -1.705 -1.241 -3.471 -2.176 -1.761 -0.951 -3.601 -1.601 l -0.89 4.633 l 0.568 0.278 q 4.541 2.077 6.121 4.169 1.604 2.082 1.036 5.04 -0.571 2.97 -3.119 3.882 -2.544 0.894 -7.124 -0.271 l -0.94 4.892 z m 0.553 -19.27 l 0.81 -4.213 q -1.314 -0.335 -2.214 -0.013 -0.876 0.313 -1.041 1.168 -0.183 0.952 0.428 1.721 0.614 0.753 2.02 1.337 z m 1.963 6.175 l -0.862 4.487 q 1.601 0.474 2.493 0.183 0.911 -0.285 1.115 -1.349 0.211 -1.097 -0.421 -1.856 -0.629 -0.775 -2.324 -1.466 z"/></g></g></g></svg>