<svg xmlns="http://www.w3.org/2000/svg" viewBox="0 0 256 256"><g transform="translate(0 -796.36)"><path d="m 3.25 953.66 c 49.981 239.91 393.86 -17.642 187.29 -139.59 -80.25 -52.27 -213 16.2 -187.29 139.59 z" style="fill:#fff;color:#000"/><g transform="matrix(4.23886 0 0 4.043 31.702 827.33)"><path d="M 29,12 29.062,12.062 29.219,12 29,12 z m 2,2 11,11 0,-11 -11,0 z" style="fill-opacity:0.196"/><path d="m 29 1 l 13 13 h -11 c -0.971 0 -2 -1.029 -2 -2 v -11 z" style="fill:#ff4500;fill-opacity:0.392"/></g><g style="fill-opacity:0.941"><path d="m 120.55 996.29 v 11.552 h 13.595 v -11.34 c 7.932 -0.848 14.161 -3.391 18.693 -7.631 4.532 -4.31 6.919 -9.962 7.162 -16.96 l -21.971 0.106 c -0.081 2.543 -1.133 4.557 -3.156 6.04 -2.023 1.481 -4.532 2.225 -7.526 2.225 -2.59 0 -4.856 -0.565 -6.798 -1.696 -2.266 -1.201 -3.399 -2.862 -3.399 -4.981 0 -3.108 3.641 -5.829 10.925 -8.163 10.847 -3.462 17.601 -6.01 20.269 -7.631 7.283 -4.239 10.925 -10.28 10.925 -18.12 0 -6.43 -2.387 -11.832 -7.162 -16.216 -4.612 -4.169 -10.601 -6.675 -17.965 -7.524 v -11.34 h -13.595 v 11.34 c -15.78 2.473 -23.751 10.634 -23.911 24.482 h 21.485 c 0 -2.685 0.89 -4.875 2.67 -6.57 1.781 -1.766 4.208 -2.649 7.283 -2.649 2.428 0 4.532 0.6 6.312 1.801 2.023 1.272 3.035 2.969 3.035 5.087 0 2.685 -3.682 5.263 -11.05 7.737 -10.763 3.462 -17.642 6.111 -20.636 7.948 -7.364 4.31 -11.05 10.245 -11.05 17.807 0 6.712 2.428 12.293 7.283 16.745 4.613 4.169 10.804 6.818 18.572 7.949" style="fill:#ffdead"/><path d="m 80.42 976.76 v 11.552 h 13.595 v -11.34 c 7.932 -0.848 14.161 -3.391 18.693 -7.631 4.532 -4.31 6.919 -9.962 7.162 -16.96 l -21.971 0.106 c -0.081 2.543 -1.133 4.557 -3.156 6.04 -2.023 1.481 -4.532 2.225 -7.526 2.225 -2.59 0 -4.856 -0.565 -6.798 -1.696 -2.266 -1.201 -3.399 -2.862 -3.399 -4.981 0 -3.108 3.641 -5.829 10.925 -8.163 10.847 -3.462 17.601 -6.01 20.269 -7.631 7.283 -4.239 10.925 -10.28 10.925 -18.12 0 -6.43 -2.387 -11.832 -7.162 -16.216 -4.612 -4.169 -10.601 -6.675 -17.965 -7.524 v -11.34 h -13.595 v 11.34 c -15.78 2.473 -23.751 10.634 -23.911 24.482 h 21.485 c 0 -2.685 0.89 -4.875 2.67 -6.57 1.781 -1.766 4.208 -2.649 7.283 -2.649 2.428 0 4.532 0.6 6.312 1.801 2.023 1.272 3.035 2.969 3.035 5.087 0 2.685 -3.682 5.263 -11.05 7.737 -10.763 3.462 -17.642 6.111 -20.636 7.948 -7.364 4.31 -11.05 10.245 -11.05 17.807 0 6.712 2.428 12.293 7.283 16.745 4.613 4.169 10.804 6.818 18.572 7.949" style="fill:#ff4500"/></g></g></svg>