<svg xmlns="http://www.w3.org/2000/svg" viewBox="0 0 256 256"><g transform="translate(0 -796.36)"><path d="m -1374.42 1658.71 c 125.16 -274.08 -273.7 -240.16 -226.07 -62.2 23.02 102.82 167.39 165.22 226.07 62.2 z" transform="translate(1605.44 -659.12)" style="fill:#fff;color:#000"/><g transform="matrix(4.60934 0 0 4.0218 22.837 822.88)"><path d="m 8 1 c -1.029 0 -2 0.971 -2 2 v 42 c 0 0.971 1.029 2 2 2 h 32 c 0.971 0 2 -1.029 2 -2 v -31 l -13 -13" style="fill:#fff"/><path d="M 29,12 29.062,12.062 29.219,12 29,12 Z m 2,2 11,11 0,-11 -11,0 z" style="fill-opacity:0.196"/><path d="m 29 1 l 13 13 h -11 c -0.971 0 -2 -1.029 -2 -2 v -11" style="fill:#ff4500;fill-opacity:0.392"/><path d="m 6 35 v 10 c 0 0.971 1.029 2 2 2 h 32 c 0.971 0 2 -1.029 2 -2 v -10 z" style="fill:#fff;fill-opacity:0.196"/><g style="fill:#ff4500"><path d="m 18 1 v 4 h 4 v -4 h -4 z m 0 4 h -4 v 4 h 4 v -4 z m 0 4 v 4 h 4 v -4 h -4 z m 0 4 h -4 v 4 h 4 v -4 z m 0 4 v 4 h 4 v -4 h -4 z m -4 6 v 8 h 8 v -8 h -4 h -4 z"/><g transform="matrix(1.0719 0 0 0.95792 1.122 0.161)"><path d="m 17.263 46.809 h -5.248 v -8.351 h 1.673 v 6.975 h 3.575 v 1.376"/><path d="m 23.942 38.457 v 8.351 h -1.66 v -3.683 h -2.213 v 3.683 h -1.66 v -8.351 h 1.66 v 3.292 h 2.213 v -3.292 h 1.66"/><path d="m 30.553 39.618 c -0.387 0.594 -0.742 1.151 -1.066 1.673 -0.324 0.522 -0.625 1.021 -0.904 1.498 -0.279 0.468 -0.544 0.922 -0.796 1.363 -0.243 0.432 -0.477 0.859 -0.702 1.282 h 3.589 v 1.376 h -5.505 v -0.958 c 0.198 -0.387 0.409 -0.792 0.634 -1.214 0.225 -0.432 0.477 -0.89 0.756 -1.376 0.279 -0.486 0.58 -1.012 0.904 -1.578 0.333 -0.567 0.697 -1.183 1.093 -1.848 h -3.211 v -1.376 h 5.208 v 1.16"/></g></g></g></g></svg>