<svg xmlns="http://www.w3.org/2000/svg" viewBox="0 0 256 256"><defs><clipPath><rect y="56" x="-202" width="84" rx="10" height="88" style="fill:none;stroke:#000;display:block;color:#000"/></clipPath><clipPath><rect y="56" x="-202" width="84" rx="10" height="88" style="fill:none;stroke:#646464;display:block;color:#000"/></clipPath><clipPath><rect y="56" x="-202" width="84" rx="10" height="88" style="fill:none;stroke:#545454;display:block;color:#000"/></clipPath><clipPath><rect y="56" x="-202" width="84" rx="10" height="88" style="fill:none;stroke:#000;display:block;color:#000"/></clipPath><clipPath><rect y="56" x="-202" width="84" rx="10" height="88" style="fill:none;stroke:#000;display:block;color:#000"/></clipPath><clipPath><rect y="56" x="-202" width="84" rx="10" height="88" style="fill:none;stroke:#424242;display:block;color:#000"/></clipPath><clipPath><rect height="88" rx="10" width="84" x="-202" y="56" style="fill:none;stroke:#646464;display:block;color:#000"/></clipPath><clipPath><rect height="88" rx="10" width="84" x="-202" y="56" style="fill:none;stroke:#424242;display:block;color:#000"/></clipPath><clipPath><rect height="88" rx="10" width="84" x="-202" y="56" style="fill:none;stroke:#000;display:block;color:#000"/></clipPath><clipPath><rect height="88" rx="10" width="84" x="-202" y="56" style="fill:none;stroke:#545454;display:block;color:#000"/></clipPath><clipPath><rect height="88" rx="10" width="84" x="-202" y="56" style="fill:none;stroke:#000;display:block;color:#000"/></clipPath><clipPath><rect height="88" rx="10" width="84" x="-202" y="56" style="fill:none;stroke:#000;display:block;color:#000"/></clipPath></defs><g transform="translate(0 -796.36)"><path d="m 211.17 833.49 c 201.82 266.38 -353.59 304.22 -175.35 32.31 40.634 -61.991 121.89 -102.86 175.35 -32.31 z" style="fill:#fff;color:#000"/><g transform="matrix(4.34755 0 0 3.98523 25.681 830.65)"><path d="M 29,12 29.062,12.062 29.219,12 29,12 z m 2,2 11,11 0,-11 -11,0 z" style="fill-opacity:0.196"/><path d="M 29,1 42,14 H 31 c -0.971,0 -2,-1.029 -2,-2 V 1" style="fill:#ff4500;fill-opacity:0.392"/></g><g transform="matrix(5.32342 0 0 5.48576 212.42 -4696.54)" style="fill:#ff4500"><g style="fill-rule:evenodd"><path d="m -18 1023.36 h 4 v 7 h -4 z"/><path transform="matrix(1.49416 0 0 0.94107 -51.86 57.13)" d="m 24,1037.36 -3.681,-6.376 h 7.362 z"/></g><path d="M 23.996,15 C 21.64,15 19.298,15.971 17.633,17.637 15.968,19.303 15,21.647 15,24 c 0,2.356 0.968,4.697 2.633,6.363 1.665,1.666 4.01,2.637 6.363,2.637 2.356,0 4.698,-0.971 6.365,-2.637 C 32.028,28.697 33,26.353 33,24 33,21.644 32.028,19.303 30.361,17.637 28.694,15.971 26.351,15 23.996,15 z m 0,2 c 3.665,0 7,3.335 7,7 0,3.665 -3.338,7 -7,7 C 20.331,31 17,27.665 17,24 c 0,-3.665 3.331,-7 6.996,-7 z" transform="translate(-40 1004.36)"/></g></g></svg>