<svg xmlns="http://www.w3.org/2000/svg" xmlns:xlink="http://www.w3.org/1999/xlink" viewBox="0 0 256 256"><defs><use xlink:href="#1" id="0"/><use id="1" xlink:href="#8"/><use id="2" xlink:href="#8"/><use id="3" xlink:href="#2"/><use xlink:href="#5" id="4"/><use id="5" xlink:href="#8"/><use id="6" xlink:href="#8"/><use id="7" xlink:href="#6"/><path id="8" d="m 245.46 129.52 l -97.89 -96.9 c -5.556 -5.502 -16.222 -11.873 -23.7 -14.16 l -39.518 -12.08 c -7.479 -2.286 -18.1 0.391 -23.599 5.948 l -13.441 13.578 c -5.5 5.559 -14.502 14.653 -20 20.21 l -13.44 13.579 c -5.5 5.558 -8.07 16.206 -5.706 23.658 l 12.483 39.39 c 2.363 7.456 8.843 18.06 14.399 23.556 l 97.89 96.9 c 5.558 5.502 14.605 5.455 20.1 -0.101 l 36.26 -36.63 c 5.504 -5.559 14.503 -14.651 20 -20.21 l 36.26 -36.629 c 5.502 -5.56 5.455 -14.606 -0.101 -20.11 z m -178.09 -50.74 c -7.198 0 -13.03 -5.835 -13.03 -13.03 0 -7.197 5.835 -13.03 13.03 -13.03 7.197 0 13.03 5.835 13.03 13.03 -0.001 7.198 -5.836 13.03 -13.03 13.03 z"/><clipPath><rect width="46" height="46" x="1" y="1" rx="4" style="fill:#1890d0"/></clipPath><clipPath style="clip-path:url(#9)"><use xlink:href="#3"/></clipPath><clipPath><rect width="46" height="46" x="1" y="1" rx="4" style="fill:#1890d0"/></clipPath><clipPath><rect width="46" height="46" x="1" y="1" rx="4" style="fill:#1890d0"/></clipPath><clipPath><rect width="46" height="46" x="1" y="1" rx="4" style="fill:#1890d0"/></clipPath><clipPath><rect width="46" height="46" x="1" y="1" rx="4" style="fill:#1890d0"/></clipPath><clipPath><rect rx="4" y="1" x="1" height="46" width="46" style="fill:#1890d0"/></clipPath><clipPath><rect width="46" height="46" x="1" y="1" rx="4" style="fill:#1890d0"/></clipPath><clipPath><rect y="6" x="6" rx="6" height="84" width="84" style="fill:#ff4500"/></clipPath><clipPath><rect width="46" height="46" x="1" y="1" rx="4" style="fill:#1890d0"/></clipPath><clipPath><path transform="matrix(15.33333 0 0 11.5 415 -125.5)" d="m -24 13 c 0 1.105 -0.672 2 -1.5 2 -0.828 0 -1.5 -0.895 -1.5 -2 0 -1.105 0.672 -2 1.5 -2 0.828 0 1.5 0.895 1.5 2 z"/></clipPath><clipPath><rect width="46" height="46" x="1" y="1" rx="4" style="fill:#1890d0"/></clipPath><clipPath><rect rx="4" y="1" x="1" height="46" width="46" style="fill:#1890d0"/></clipPath><clipPath><rect width="46" height="46" x="1" y="1" rx="4" style="fill:#1890d0"/></clipPath><clipPath><rect rx="4" y="1" x="1" height="46" width="46" style="fill:#1890d0"/></clipPath><clipPath><rect rx="4" y="1" x="1" height="46" width="46" style="fill:#1890d0"/></clipPath><clipPath><rect rx="4" y="1" x="1" height="46" width="46" style="fill:#1890d0"/></clipPath><clipPath><rect rx="4" y="1" x="1" height="46" width="46" style="fill:#1890d0"/></clipPath><clipPath><rect width="46" height="46" x="1" y="1" rx="4" style="fill:#1890d0"/></clipPath><clipPath><rect width="46" height="46" x="1" y="1" rx="4" style="fill:#1890d0"/></clipPath><clipPath><rect width="46" height="46" x="1" y="1" rx="4" style="fill:#1890d0"/></clipPath><clipPath><rect width="46" height="46" x="1" y="1" rx="4" style="fill:#1890d0"/></clipPath><clipPath><rect width="46" height="46" x="1" y="1" rx="4" style="fill:#1890d0"/></clipPath><clipPath><rect y="6" x="6" rx="6" height="84" width="84" style="fill:#f0f"/></clipPath><clipPath><rect width="46" height="46" x="1" y="1" rx="4" style="fill:#1890d0"/></clipPath><clipPath><rect rx="4" y="1" x="1" height="46" width="46" style="fill:#1890d0"/></clipPath><clipPath><path d="M 0,0 H24 V24 H0 z"/></clipPath><clipPath><rect width="84" height="84" rx="6" x="6" y="6" style="fill:#f0f"/></clipPath><clipPath style="clip-path:url(#9)"><use xlink:href="#0"/></clipPath><clipPath id="9"><use xlink:href="#1"/></clipPath><clipPath><rect rx="4" y="1" x="1" height="46" width="46" style="fill:#1890d0"/></clipPath><clipPath><rect width="46" height="46" x="1" y="1" rx="4" style="fill:#1890d0"/></clipPath><clipPath style="clip-path:url(#9)"><use xlink:href="#3"/></clipPath><clipPath><rect rx="4" y="1" x="1" height="46" width="46" style="fill:#1890d0"/></clipPath><clipPath><use xlink:href="#2"/></clipPath><clipPath style="clip-path:url(#9)"><use xlink:href="#0"/></clipPath><clipPath><rect rx="4" y="1" x="1" height="46" width="46" style="fill:#1890d0"/></clipPath><clipPath><rect width="84" height="84" rx="6" x="6" y="6" style="fill:#ff4500"/></clipPath><clipPath><rect rx="4" y="1" x="1" height="46" width="46" style="fill:#1890d0"/></clipPath><clipPath><rect rx="4" y="1" x="1" height="46" width="46" style="fill:#1890d0"/></clipPath><clipPath><rect rx="4" y="1" x="1" height="46" width="46" style="fill:#1890d0"/></clipPath><clipPath><rect rx="4" y="1" x="1" height="46" width="46" style="fill:#1890d0"/></clipPath><clipPath><rect rx="4" y="1" x="1" height="46" width="46" style="fill:#1890d0"/></clipPath><clipPath><rect rx="4" y="1" x="1" height="46" width="46" style="fill:#1890d0"/></clipPath><clipPath><rect rx="4" y="1" x="1" height="46" width="46" style="fill:#1890d0"/></clipPath><clipPath><rect rx="4" y="1" x="1" height="46" width="46" style="fill:#1890d0"/></clipPath><clipPath><rect rx="4" y="1" x="1" height="46" width="46" style="fill:#1890d0"/></clipPath><clipPath><path transform="translate(0 796.36)" d="m 88.12 249.44 c -42.02 -14.14 -73.35 -47.748 -83.985 -90.07 -2.796 -11.124 -3.211 -15.198 -3.208 -31.471 0.002 -10.417 0.209 -15.875 0.732 -19.348 2.808 -18.628 10.519 -37.903 21.385 -53.45 c 3.959 -5.666 8.345 -10.931 9.102 -10.926 0.328 0.002 10.489 18.31 22.579 40.683 12.09 22.373 22.375 41.33 22.854 42.14 0.479 0.802 0.925 2.441 0.99 3.643 0.343 6.316 2.524 14.21 5.642 20.423 2.954 5.887 5.065 8.733 10.435 14.07 6.714 6.67 12.889 10.286 21.732 12.729 3.166 0.874 5.105 1.05 11.575 1.05 8.826 0 12.602 -0.762 19.264 -3.887 2.046 -0.96 3.937 -1.665 4.202 -1.568 0.265 0.097 -11.06 17.665 -25.16 39.04 l -25.639 38.861 l -3.094 0.112 c -2.555 0.093 -4.195 -0.258 -9.409 -2.01 z"/><path d="m 112.36 1051.52 c -10 -1.449 -12.156 -1.82 -12.532 -2.156 -0.249 -0.222 1.738 -3.747 4.55 -8.07 7.166 -11.02 49.772 -74.65 50.26 -75.05 3.575 -2.992 8.635 -8.04 10.575 -10.554 3.362 -4.353 7.558 -12.914 9.07 -18.494 6.193 -22.925 -2.593 -47.15 -21.7 -59.837 l -2.961 -1.966 l 17.02 0.296 c 9.364 0.163 31.17 0.434 48.46 0.603 l 31.435 0.307 l 1.546 4.189 c 2.246 6.086 4.678 15.09 5.935 21.982 1.525 8.36 1.925 28.859 0.739 37.828 -3.081 23.278 -12.813 45.72 -27.802 64.11 -20.476 25.12 -51.46 42.2 -84.15 46.39 -5.312 0.681 -26.646 0.986 -30.446 0.436 z"/><path transform="translate(0 796.36)" d="m 67.99 108.87 c -26.706 -49.3 -34.7 -63.724 -35.756 -64.53 -0.582 -0.443 0.578 -1.795 6.462 -7.529 14.74 -14.365 30.11 -23.775 49.14 -30.08 13.848 -4.588 24.743 -6.299 40.11 -6.299 c 21.31 0 37.805 3.81 56.835 13.13 25.294 12.383 46.19 33.579 58.52 59.35 1.611 3.369 2.93 6.372 2.93 6.675 0 0.56 -10.549 0.495 -71.17 -0.437 l -24.288 -0.374 l -3.931 -1.764 c -6.757 -3.03 -10.646 -3.84 -18.658 -3.868 -5.03 -0.018 -7.979 0.208 -10.316 0.788 -14.508 3.604 -26.28 12.948 -33.29 26.419 -3.585 6.891 -5.247 13.08 -6.332 23.583 l -0.337 3.267 l -9.927 -18.326 z"/></clipPath><clipPath><rect width="46" height="46" x="1" y="1" rx="4" style="fill:#1890d0"/></clipPath><clipPath><rect rx="4" y="1" x="1" height="46" width="46" style="fill:#1890d0"/></clipPath><clipPath><rect width="46" height="46" x="1" y="1" rx="4" style="fill:#1890d0"/></clipPath><clipPath><use xlink:href="#5"/></clipPath><clipPath><rect width="46" height="46" x="1" y="1" rx="4" style="fill:#1890d0"/></clipPath><clipPath><rect width="46" height="46" x="1" y="1" rx="4" style="fill:#1890d0"/></clipPath><clipPath><rect width="46" height="46" x="1" y="1" rx="4" style="fill:#1890d0"/></clipPath><clipPath><rect width="46" height="46" x="1" y="1" rx="4" style="fill:#1890d0"/></clipPath><clipPath><rect y="6" x="6" rx="6" height="84" width="84" style="fill:#f0f"/></clipPath><clipPath><rect width="46" height="46" x="1" y="1" rx="4" style="fill:#1890d0"/></clipPath><clipPath><rect width="46" height="46" x="1" y="1" rx="4" style="fill:#1890d0"/></clipPath><clipPath><rect width="84" height="84" rx="6" x="6" y="6" style="fill:#f0f"/></clipPath><clipPath style="clip-path:url(#9)"><use xlink:href="#4"/></clipPath><clipPath><use xlink:href="#6"/></clipPath><clipPath><rect width="46" height="46" x="1" y="1" rx="4" style="fill:#1890d0"/></clipPath><clipPath><rect rx="4" y="1" x="1" height="46" width="46" style="fill:#1890d0"/></clipPath><clipPath><rect width="46" height="46" x="1" y="1" rx="4" style="fill:#1890d0"/></clipPath><clipPath style="clip-path:url(#9)"><use xlink:href="#4"/></clipPath><clipPath><rect rx="4" y="1" x="1" height="46" width="46" style="fill:#1890d0"/></clipPath><clipPath style="clip-path:url(#9)"><use xlink:href="#7"/></clipPath><clipPath><rect width="84" height="84" rx="6" x="6" y="6" style="fill:#ff4500"/></clipPath><clipPath><rect rx="4" y="1" x="1" height="46" width="46" style="fill:#1890d0"/></clipPath><clipPath style="clip-path:url(#9)"><use xlink:href="#7"/></clipPath><clipPath><rect y="6" x="6" rx="6" height="84" width="84" style="fill:#ff4500"/></clipPath><clipPath><rect width="84" height="84" rx="6" x="6" y="6" style="fill:#ff4500"/></clipPath><clipPath><rect width="46" height="46" x="1" y="1" rx="4" style="fill:#1890d0"/></clipPath><clipPath><path d="m 27.707 56.824 h 82.29 v 139.69 h -82.29"/></clipPath><clipPath><circle r="128" cy="924.36" cx="128" style="fill:#72a854"/></clipPath><clipPath><path d="m 171 132 h 54.625 v 24 h -54.625"/></clipPath><clipPath><rect rx="4" y="1" x="1" height="46" width="46" style="fill:#1890d0"/></clipPath><clipPath><rect rx="4" y="1" x="1" height="46" width="46" style="fill:#1890d0"/></clipPath><clipPath><circle r="128" cy="924.36" cx="128" style="fill:#4285f4"/></clipPath><clipPath><rect rx="4" y="1" x="1" height="46" width="46" style="fill:#1890d0"/></clipPath><clipPath><rect rx="4" y="1" x="1" height="46" width="46" style="fill:#1890d0"/></clipPath><clipPath><rect rx="4" y="1" x="1" height="46" width="46" style="fill:#1890d0"/></clipPath><clipPath><path d="m 74 56.824 h 129 v 139.69 h -129"/></clipPath><clipPath><circle r="128" cy="924.36" cx="128" style="fill:#f16529"/></clipPath><clipPath><path d="m 148 97 h 77.63 v 24 h -77.62"/></clipPath><clipPath><rect rx="4" y="1" x="1" height="46" width="46" style="fill:#1890d0"/></clipPath><clipPath><rect width="46" height="46" x="1" y="1" rx="4" style="fill:#1890d0"/></clipPath><clipPath><rect width="46" height="46" x="1" y="1" rx="4" style="fill:#1890d0"/></clipPath><clipPath><rect rx="4" y="1" x="1" height="46" width="46" style="fill:#1890d0"/></clipPath><clipPath><rect width="46" height="46" x="1" y="1" rx="4" style="fill:#1890d0"/></clipPath><clipPath><circle r="128" cy="128" cx="128" style="fill:#292929;fill-opacity:0.26"/></clipPath><clipPath><circle r="99.31" cy="933.98" cx="132.22" style="fill:#0f9d58"/></clipPath><clipPath><circle r="128" cy="922.85" cx="112.26" style="fill:#0e85cd"/></clipPath><clipPath><circle r="128" cy="924.36" cx="128" style="fill:#4285f4"/></clipPath><clipPath><rect width="32" height="25" x="68" y="20" rx="0.141" ry="0.299" style="fill-opacity:0.118"/></clipPath></defs><g transform="translate(0 -796.36)"><path d="m -25.06 938.49 c 49.981 239.91 393.86 -17.642 187.29 -139.59 -80.25 -52.27 -213 16.2 -187.29 139.59 z" transform="matrix(1 0 0 0.98405 28.722 29.24)" style="fill:#fff;color:#000"/><g transform="matrix(3.78054 0 0 4.45095 24.03 812.58)"><path d="m 32.744302,12 0.062,0.062 0.157,-0.062 -0.219,0 z m 2,2 11,11 0,-11 -11,0 z" style="fill-opacity:0.196"/><path d="m 33.547 1.454 l 13 13 h -11 c -0.971 0 -2 -1.029 -2 -2 v -11 z" style="fill:#ff4500;fill-opacity:0.392"/></g><path d="m 110.87 1012.54 c 0.47 -0.632 0.355 -1.359 -0.898 -5.732 -1.828 -6.375 -2.065 -7.66 -2.075 -11.267 -0.007 -2.985 0.031 -3.251 0.564 -3.831 0.315 -0.342 0.839 -0.623 1.166 -0.623 1.421 0 7.62 -2.422 12.05 -4.708 7.486 -3.863 17.83 -12.71 24.463 -20.937 0.774 -0.959 1.502 -1.743 1.618 -1.743 0.115 0 0.343 0.55 0.506 1.222 0.383 1.582 2.245 6.672 2.93 8.01 3.059 5.97 6.924 10.1 11.361 12.13 2.396 1.096 5.267 1.791 7.399 1.791 2.882 0 3.195 -1.037 1.453 -4.802 -3.01 -6.503 -5.403 -14.665 -6.432 -21.932 -0.433 -3.053 -0.378 -8.482 0.117 -11.728 0.815 -5.336 2.557 -11.19 5.328 -17.913 1.901 -4.61 2.047 -5.275 1.354 -6.206 -0.47 -0.631 -0.682 -0.673 -2.384 -0.474 -7.389 0.866 -14.43 7.414 -19.847 18.471 -0.857 1.748 -1.642 3.179 -1.745 3.179 -0.102 0 -1.244 -1.229 -2.537 -2.731 -5.145 -5.975 -12.204 -12.793 -16.733 -16.15 -2.708 -2.01 -4 -4.715 -4.219 -8.828 -0.22 -4.131 0.957 -8.01 4.365 -14.387 0.993 -1.859 1.941 -3.723 2.105 -4.14 0.691 -1.757 1.402 -1.686 -16.824 -1.686 h -16.857 l -1.456 0.795 c -4.744 2.593 -10 9.685 -12.407 16.73 l -1.038 3.045 l -1.697 0.687 c -4.529 1.835 -10 5.275 -13.701 8.611 -6.751 6.088 -12.747 15.234 -16.31 24.88 -0.906 2.449 -1.016 2.996 -1.013 5.05 0.002 2.722 0.594 4.429 3.126 9.03 6.711 12.19 16.7 20.11 29.717 23.552 1.667 0.441 3.452 0.898 3.966 1.016 0.685 0.157 0.972 0.405 1.072 0.926 0.317 1.663 2.069 5.644 3.684 8.366 2.681 4.521 7.358 10.117 10.07 12.04 0.876 0.622 1.363 0.687 5.224 0.687 2.989 0 4.344 -0.117 4.548 -0.391 z m -38.556 -49.555 c -1.213 -0.553 -3.135 -2.378 -3.926 -3.73 -0.392 -0.669 -0.978 -2.1 -1.3 -3.173 -0.501 -1.666 -0.573 -2.352 -0.484 -4.621 0.134 -3.426 0.913 -5.67 2.751 -7.93 1.876 -2.306 3.511 -3.077 6.169 -2.91 1.772 0.112 2.275 0.284 3.594 1.231 1.775 1.275 2.993 3.01 3.885 5.548 0.526 1.494 0.631 2.256 0.631 4.564 0 2.31 -0.106 3.079 -0.64 4.621 -1.174 3.397 -3.58 6.086 -6.07 6.785 -1.185 0.333 -3.446 0.142 -4.61 -0.388 z m 4.404 -6.682 c 1.163 -0.823 1.764 -2.071 1.884 -3.905 0.138 -2.131 -0.486 -3.615 -1.948 -4.627 -0.813 -0.563 -1.33 -0.717 -1.91 -0.569 -1.959 0.498 -3.187 2.464 -3.157 5.056 0.038 3.327 2.929 5.609 5.132 4.046 z" style="fill:#ff4500"/></g></svg>