<svg xmlns="http://www.w3.org/2000/svg" viewBox="0 0 256 256"><g transform="translate(0 -796.36)"><path d="m 5 896.07 c 49.607 -238.39 390.91 17.53 185.89 138.7 -79.65 51.938 -211.41 -16.1 -185.89 -138.7 z" style="fill:#fff;color:#000"/><g transform="matrix(4.1412 0 0 4.0311 33.651 817.98)" style="fill:#ff4500"><path d="M 29,12 29.062,12.062 29.219,12 29,12 z m 2,2 11,11 0,-11 -11,0 z" style="fill-opacity:0.196"/><path d="M 29,1 42,14 H 31 c -0.971,0 -2,-1.029 -2,-2 V 1" style="fill-opacity:0.392"/></g><g style="fill-rule:evenodd"><g style="fill:#ff4500"><path d="m 50.37 963.86 c -4.786 -1.74 -7.589 -6.266 -6.617 -10.683 0.202 -0.916 0.528 -1.972 0.726 -2.348 0.758 -1.441 2.896 -3.499 4.558 -4.386 1.519 -0.811 2.133 -0.926 4.983 -0.93 4.067 -0.006 6.694 0.837 6.342 2.037 -0.462 1.574 -0.595 6.352 -0.215 7.772 0.214 0.802 1.016 2.265 1.782 3.251 l 1.393 1.793 l -0.738 0.799 c -0.406 0.44 -1.734 1.314 -2.952 1.943 -2.831 1.462 -6.489 1.759 -9.261 0.752 z"/><path d="m 65.65 956.07 c -1.255 -1.59 -1.633 -3.614 -1.122 -6.02 l 0.291 -1.37 l 10.254 -2.187 c 5.64 -1.203 10.423 -2.192 10.631 -2.199 0.207 -0.006 0.638 0.967 0.957 2.164 0.319 1.197 0.997 2.96 1.507 3.917 l 0.926 1.741 l -10.437 2.51 c -5.741 1.381 -10.761 2.592 -11.155 2.692 -0.541 0.137 -0.996 -0.171 -1.851 -1.254 z"/><path d="m 118.51 950.85 c -0.242 -3.763 -0.26 -3.826 -1.354 -4.714 -4.159 -3.377 -12.27 -3.889 -16.948 -1.069 -2.672 1.611 -2.737 1.747 -2.737 5.719 0 1.977 -0.137 3.595 -0.303 3.595 -0.811 0 -3.755 -2.452 -4.734 -3.943 -1.434 -2.184 -1.815 -3.561 -2.045 -7.395 -0.378 -6.303 2.201 -11.259 7.712 -14.818 3.66 -2.363 10.11 -3.235 14.346 -1.938 6.02 1.844 10.471 6.359 11.914 12.09 0.642 2.551 0.46 7.237 -0.404 10.357 -0.555 2.01 -2.192 4.119 -4.06 5.24 l -1.142 0.686 l -0.245 -3.814 z"/><path d="m 100.55 954.53 v -4.684 l 1.613 -1.041 c 2.047 -1.321 3.489 -1.725 6.174 -1.727 2.335 -0.002 4.598 0.849 5.829 2.192 0.62 0.677 0.715 1.301 0.813 5.38 0.061 2.538 0.112 4.614 0.112 4.613 0 0 -0.847 -0.328 -1.882 -0.729 -2.513 -0.972 -7.106 -0.976 -10.35 -0.009 l -2.31 0.688 v -4.684 z"/><path d="m 103.72 983.14 c -5.303 -1.745 -8.713 -7.01 -7.656 -11.815 0.82 -3.728 3.247 -6.403 7.177 -7.91 2.738 -1.05 7.269 -0.852 10.02 0.438 6.599 3.092 8.364 10.53 3.725 15.695 -2.406 2.679 -5.057 3.864 -8.908 3.981 -1.77 0.054 -3.477 -0.098 -4.361 -0.39 z"/><path d="m 136.99 955.17 c -6.02 -1.445 -11.01 -2.682 -11.09 -2.75 -0.078 -0.068 0.295 -0.939 0.828 -1.934 0.533 -0.996 1.236 -2.681 1.562 -3.745 0.448 -1.458 0.749 -1.927 1.225 -1.904 0.347 0.017 5.359 1.022 11.136 2.233 l 10.505 2.202 l 0.359 1.702 c 0.46 2.181 0.453 3.267 -0.025 4.215 -0.675 1.338 -2.117 2.677 -2.845 2.642 -0.388 -0.018 -5.633 -1.215 -11.655 -2.66 z"/><path d="m 158.03 965.64 c -1.976 -0.29 -3.701 -0.966 -5.407 -2.117 l -1.814 -1.225 l 1.218 -0.748 c 1.377 -0.846 2.519 -2.431 3.409 -4.731 0.474 -1.224 0.58 -2.323 0.488 -5.03 l -0.118 -3.459 l 1.198 -0.321 c 4.158 -1.114 9.536 1.586 11.191 5.618 1.232 3 0.046 7.703 -2.426 9.622 -2.183 1.694 -5.497 2.717 -7.739 2.388 z"/><path d="m 104.57 922.24 l -1.283 -0.366 l -0.043 -5.423 c -0.024 -2.982 -0.139 -9.693 -0.257 -14.911 -0.117 -5.219 -0.187 -9.489 -0.156 -9.488 0.032 0 1.032 0.254 2.222 0.565 1.525 0.398 2.848 0.5 4.476 0.346 l 2.311 -0.219 v 14.572 v 14.572 l -1.323 0.403 c -1.572 0.479 -4.166 0.457 -5.948 -0.05 z"/><path d="m 105.32 888.1 c -4.682 -1.285 -7.608 -4.755 -7.643 -9.06 -0.038 -4.679 3.395 -8.371 8.567 -9.212 9.896 -1.61 16.452 8.626 9.853 15.384 -1.579 1.617 -3.15 2.46 -5.552 2.978 -2.232 0.481 -3.219 0.465 -5.225 -0.085 z"/></g><g transform="translate(0 796.36)"><path d="m 120.73 223.09 c 2.428 -3.191 6.704 -9.456 6.704 -9.824 0 -0.254 -1.362 -2.322 -3.03 -4.594 -1.664 -2.272 -3.03 -4.241 -3.03 -4.376 0 -0.135 0.511 -0.239 1.135 -0.232 0.779 0.009 1.645 0.76 2.764 2.396 0.896 1.31 2.168 3.049 2.827 3.864 l 1.197 1.481 l 2.867 -3.877 c 1.878 -2.54 3.208 -3.877 3.856 -3.877 0.544 0 0.989 0.121 0.989 0.27 0 0.148 -1.501 2.315 -3.336 4.814 -2.995 4.08 -3.261 4.632 -2.606 5.404 0.401 0.473 2.031 2.732 3.622 5.02 2.721 3.915 2.821 4.161 1.688 4.161 -0.944 0 -1.839 -0.926 -4.146 -4.287 -1.618 -2.358 -3.01 -4.287 -3.088 -4.287 -0.08 0 -1.547 1.929 -3.26 4.287 -2.478 3.411 -3.373 4.287 -4.378 4.287 -0.931 0 -1.137 -0.166 -0.784 -0.63 z" style="fill:#f5f5f5"/><g style="fill:#ff4500"><path d="m 120.76 223.37 c 0 -0.106 1.082 -1.704 2.403 -3.55 1.322 -1.846 2.828 -4.03 3.347 -4.853 0.909 -1.442 0.928 -1.533 0.521 -2.506 -0.232 -0.555 -0.662 -1.149 -0.956 -1.32 -0.294 -0.171 -0.428 -0.315 -0.299 -0.319 0.129 -0.005 -0.751 -1.432 -1.956 -3.17 -1.205 -1.739 -2.191 -3.238 -2.191 -3.332 0 -0.094 0.311 -0.171 0.69 -0.171 0.874 0 1.976 1.124 4.617 4.707 1.145 1.553 2.212 2.822 2.371 2.82 0.159 -0.002 0.93 -0.916 1.713 -2.031 1.893 -2.696 4.545 -5.497 5.206 -5.497 0.757 0 0.551 0.394 -2.424 4.631 -1.43 2.036 -2.726 4.04 -2.881 4.443 -0.316 0.83 -0.552 0.413 3.547 6.244 1.385 1.97 2.518 3.698 2.518 3.839 0 0.408 -0.97 0.3 -1.663 -0.186 -0.348 -0.244 -1.754 -2 -3.124 -3.912 -1.37 -1.908 -2.622 -3.468 -2.781 -3.468 -0.159 0 -0.209 -0.13 -0.11 -0.29 0.099 -0.159 0.037 -0.29 -0.137 -0.29 -0.174 0 -0.402 0.228 -0.506 0.507 -0.105 0.279 -0.341 0.637 -0.526 0.797 -0.185 0.159 -1.351 1.631 -2.593 3.271 -1.242 1.64 -2.53 3.172 -2.862 3.405 -0.612 0.428 -1.924 0.585 -1.924 0.23 z"/><path d="m 146.84 219.09 v -4.767 l -3.423 -4.723 c -1.883 -2.598 -3.52 -4.886 -3.639 -5.085 -0.16 -0.268 0.121 -0.362 1.08 -0.362 1.231 0 1.352 0.077 2.4 1.521 0.607 0.837 1.995 2.736 3.084 4.221 l 1.981 2.7 l 3.059 -4.221 l 3.059 -4.221 h 1.288 c 0.953 0 1.232 0.094 1.072 0.362 -0.119 0.199 -1.822 2.532 -3.784 5.183 l -3.567 4.821 v 4.668 v 4.668 h -1.304 h -1.304 v -4.766 z"/><path d="m 158.72 223.04 c 0 -0.642 1.435 -2.447 6.97 -8.765 l 6.97 -7.957 l -6.825 -0.078 l -6.825 -0.078 v -1.01 v -1.01 h 8.403 h 8.403 l -0.005 0.942 c -0.004 0.81 -0.952 2.034 -6.789 8.765 l -6.784 7.824 l 7.079 0.077 l 7.079 0.077 v 1.01 v 1.01 h -8.838 h -8.838 v -0.809 z"/></g></g></g></g></svg>