<svg xmlns="http://www.w3.org/2000/svg" viewBox="0 0 256 256"><g transform="translate(0 -796.36)"><path d="m 3.25 953.66 c 49.981 239.91 393.86 -17.642 187.29 -139.59 -80.25 -52.27 -213 16.2 -187.29 139.59 z" style="fill:#fff;color:#000"/><g transform="matrix(4.23886 0 0 4.043 26.21 824.08)"><path d="m 31.3 10.927 l 0.062 0.062 l 0.157 -0.062 h -0.219 z m 2 2 l 11 11 v -11 h -11 z" style="fill-opacity:0.196"/><path d="m 31.559 -0.073 l 13 13 h -11 c -0.971 0 -2 -1.029 -2 -2 v -11" style="fill:#ff4500;fill-opacity:0.392"/></g><path d="m 116.56 884.82 c -16.924 0 -30.547 12.01 -30.547 26.927 v 19.315 h -6.982 v 61.04 h 78.68 v -61.04 h -6.463 v -19.315 c 0 -14.92 -13.624 -26.927 -30.547 -26.927 z m 1.094 11.791 h 2.515 c 10.282 0 18.541 9.01 18.558 20.2 l 0.027 14.255 h -39.631 l -0.027 -14.255 c -0.021 -11.189 8.278 -20.2 18.558 -20.2 z m 1.707 50.19 c 4.83 0.161 8.652 3.656 8.658 7.917 -0.004 2.828 -1.722 5.448 -4.504 6.862 l 2.465 8.77 c -1.808 0.635 -3.738 0.982 -5.745 0.982 h -2.515 c -2.01 0 -3.932 -0.348 -5.738 -0.982 l 2.427 -8.834 c -2.715 -1.429 -4.379 -4.01 -4.383 -6.799 0.001 -4.184 3.69 -7.642 8.424 -7.915 l 0.913 -0.003 z" style="fill:#ff4500;fill-rule:evenodd"/><path d="m 82.44 910.32 h 20.61 v 20.472 h -20.61 z" style="fill:#fff"/></g></svg>