<svg xmlns="http://www.w3.org/2000/svg" viewBox="0 0 256 256"><defs><clipPath><rect height="88" rx="10" width="84" x="-202" y="56" style="fill:none;stroke:#646464;display:block;color:#000"/></clipPath><clipPath><rect height="88" rx="10" width="84" x="-202" y="56" style="fill:none;stroke:#545454;display:block;color:#000"/></clipPath><clipPath><rect height="88" rx="10" width="84" x="-202" y="56" style="fill:none;stroke:#424242;display:block;color:#000"/></clipPath><clipPath><rect height="88" rx="10" width="84" x="-202" y="56" style="fill:none;stroke:#000;display:block;color:#000"/></clipPath><clipPath><rect height="88" rx="10" width="84" x="-202" y="56" style="fill:none;stroke:#000;display:block;color:#000"/></clipPath><clipPath><rect height="88" rx="10" width="84" x="-202" y="56" style="fill:none;stroke:#000;display:block;color:#000"/></clipPath></defs><g transform="translate(0 -796.36)"><path d="m 252.75 895.07 c -49.981 -239.91 -393.86 17.642 -187.29 139.59 80.25 52.27 213 -16.2 187.29 -139.59 z" style="fill:#fff;color:#000"/><g transform="matrix(4.65185 0 0 3.68163 16.318 842.72)"><path d="M 29,6.5 29.062,6.562 29.219,6.5 29,6.5 Z m 2,2 11,11 0,-11 -11,0 z" style="fill-opacity:0.196"/><path d="m 28.68 -5.68 l 13 13 h -11 c -0.971 0 -2 -1.029 -2 -2 v -11 z" transform="translate(0.32 1.18)" style="fill:#ff4500;fill-opacity:0.392"/></g></g><path d="m 113.66 94.31 c -14.795 4.698 -23.475 18.656 -19.463 31.29 l 5.196 16.362 l -6.105 1.939 l 16.42 51.707 l 68.792 -21.846 l -16.42 -51.707 l -5.65 1.794 l -5.196 -16.362 c -4.01 -12.639 -19.15 -19.03 -33.95 -14.329 z m 4.128 9.684 l 2.202 -0.699 c 8.989 -2.854 18.631 2.483 21.658 11.957 l 3.859 12.07 l -34.65 11 l -3.859 -12.07 c -3.03 -9.472 1.804 -19.407 10.792 -22.262 z m 14.993 42.04 c 4.266 -1.204 8.547 0.695 9.699 4.303 0.758 2.401 -0.039 5.093 -2.092 7.06 l 4.514 6.745 c -1.41 1.04 -3 1.87 -4.758 2.427 l -2.202 0.699 c -1.753 0.557 -3.531 0.797 -5.281 0.761 l -0.255 -8.157 c -2.758 -0.457 -4.907 -2.182 -5.661 -4.542 -1.125 -3.545 1.17 -7.499 5.238 -9.04 l 0.797 -0.255 z" style="fill:#ff4500;fill-rule:evenodd"/></svg>