<svg xmlns="http://www.w3.org/2000/svg" xmlns:xlink="http://www.w3.org/1999/xlink" viewBox="0 0 256 256"><g transform="translate(0 -796.36)"><path d="m 193.83 815.03 c 225.34 193.41 -237.98 379.39 -190.37 80.26 10.438 -65.59 129.65 -132.38 190.37 -80.26 z" style="fill:#fff;color:#000"/><g transform="matrix(4.22688 0 0 4.2281 23.309 822.09)"><path d="M 29,12 29.062,12.062 29.219,12 29,12 Z m 2,2 11,11 0,-11 -11,0 z" style="fill-opacity:0.196"/><g style="fill:#ff4500"><path d="m 29 1 l 13 13 h -11 c -0.971 0 -2 -1.029 -2 -2 v -11" style="fill-opacity:0.392"/><g transform="matrix(1.18794 0.71838 -0.70328 1.16229 7.479 -15.381)"><path d="M 18.312,18 C 17.996,18.032 18,18.168 18,18.688 V 24 c 0,-1.105 0.895,-2 2,-2 1.105,0 2,0.895 2,2 0,1.105 -0.895,2 -2,2 -1.105,0 -2,-0.895 -2,-2 v 5.25 C 18,30.003 18,30 18.75,30 H 24 c -1.105,0 -2,-0.895 -2,-2 0,-1.105 0.895,-2 2,-2 1.105,0 2,0.895 2,2 0,1.105 -0.895,2 -2,2 h 5.25 C 30.003,30 30,30 30,29.25 V 18.75 C 30,17.997 30,18 29.25,18 h -10.5 c -0.188,0 -0.332,-0.011 -0.438,0 z"/><path transform="matrix(1.3333 0 0 1.4048 -6 -10.679)" d="m 24 18.992 c 0 0.786 -0.672 1.424 -1.5 1.424 -0.828 0 -1.5 -0.637 -1.5 -1.424 0 -0.786 0.672 -1.424 1.5 -1.424 0.828 0 1.5 0.637 1.5 1.424 z" id="0"/><use transform="translate(8 8)" xlink:href="#0" width="256" height="256"/></g></g></g></g></svg>