<svg xmlns="http://www.w3.org/2000/svg" viewBox="0 0 256 256"><g transform="translate(0 -796.36)"><path d="m 3.25 953.66 c 49.981 239.91 393.86 -17.642 187.29 -139.59 -80.25 -52.27 -213 16.2 -187.29 139.59 z" style="fill:#fff;color:#000"/><g transform="matrix(4.62246 0 0 3.88202 27.09 820.74)"><path d="M 29,12 29.062,12.062 29.219,12 29,12 z m 2,2 11,11 0,-11 -11,0 z" style="fill-opacity:0.196"/><g style="fill:#ff4500"><path d="m 29 1 l 13 13 h -11 c -0.971 0 -2 -1.029 -2 -2 v -11 z" style="fill-opacity:0.392"/><g transform="matrix(0.21633 0 0 0.2576 -6.925 -204.74)" style="fill-rule:evenodd"><path d="m 122.75 853.35 c -2.932 0 -5.787 1.133 -8.03 3.524 l -39.964 42.45 c -2.202 2.343 -3.376 5.432 -3.42 8.49 -0.001 0.047 0 0.162 0 0.213 0 9.1 23.579 0.253 25.709 11.375 1.153 6.02 -12.855 3.262 -12.855 9.317 0 7.104 19.822 2.231 25.502 8.09 2.334 5.856 -7.596 4.916 -5.83 10.358 3.328 3.54 10.82 1.522 12.258 7.236 1.642 6.527 12.407 5.396 18.685 0.615 3.328 -3.54 -5.141 -5.139 -1.813 -8.679 3.328 -3.54 19.76 -2.835 19.879 -10.571 -1.571 -4.86 -7.733 -5.655 -7.827 -11.398 -0.331 -4.864 5.063 -3.436 22.11 -8.277 6.815 -3.292 7.05 -5.03 7.02 -8.06 -0.001 -0.06 0 -0.149 0 -0.213 -0.039 -3.057 -1.425 -6.147 -3.627 -8.49 l -39.757 -42.45 c -2.247 -2.391 -5.102 -3.524 -8.03 -3.524 z m 0.803 8.915 c 3.02 0.027 11.302 10.542 18.685 18.422 2.077 2.863 -0.803 5.794 -0.803 5.794 l -15.471 -8.679 l -6.84 9.507 l -6.01 -9.317 l -3.627 14.496 l -10.628 -6.622 l 2.8 -3.736 l 16.665 -17.594 c 1.279 -1.339 2.269 -2.294 5.234 -2.27 z"/><path d="m 191.44 950.63 c -1.106 -0.035 -2.221 0.053 -3.01 0.273 -1.483 0.427 -8.508 0.678 -7.93 6.02 6.365 2.67 16.07 4.795 17.226 -0.546 0.868 -4.01 -2.971 -5.623 -6.289 -5.746 z"/><path d="m 82.88 968.42 c -0.618 0.07 -1.037 0.317 -1.641 0.546 -4.827 1.837 -8.06 5.7 -3.555 7.387 4.51 1.688 7.53 -0.096 11.484 -2.189 3.954 -2.094 3.841 -2.475 3.555 -3.283 -0.548 0.11 -4.144 -2.13 -7.929 -2.463 -0.631 -0.053 -1.297 -0.07 -1.914 0 z"/></g></g></g></g></svg>