<svg xmlns="http://www.w3.org/2000/svg" viewBox="0 0 256 256"><defs><clipPath><rect y="56" x="-202" width="84" rx="10" height="88" style="fill:none;stroke:#646464;display:block;color:#000"/></clipPath><clipPath><rect y="56" x="-202" width="84" rx="10" height="88" style="fill:none;stroke:#545454;display:block;color:#000"/></clipPath><clipPath><rect y="56" x="-202" width="84" rx="10" height="88" style="fill:none;stroke:#424242;display:block;color:#000"/></clipPath><clipPath><rect y="56" x="-202" width="84" rx="10" height="88" style="fill:none;stroke:#000;display:block;color:#000"/></clipPath><clipPath><rect y="56" x="-202" width="84" rx="10" height="88" style="fill:none;stroke:#000;display:block;color:#000"/></clipPath><clipPath><rect y="56" x="-202" width="84" rx="10" height="88" style="fill:none;stroke:#000;display:block;color:#000"/></clipPath></defs><g transform="translate(0 -796.36)" style="fill:#fff"><path d="m 252.75 895.07 c -49.981 -239.91 -393.86 17.642 -187.29 139.59 80.25 52.27 213 -16.2 187.29 -139.59 z" style="fill:#fff;color:#000"/><g transform="matrix(4.65185 0 0 3.68163 16.318 842.72)" style="fill:#000"><path d="M 29,6.5 29.062,6.562 29.219,6.5 29,6.5 Z m 2,2 11,11 0,-11 -11,0 z" style="fill:#000;fill-opacity:0.196"/><path d="m 28.68 -5.68 l 13 13 h -11 c -0.971 0 -2 -1.029 -2 -2 v -11 z" transform="translate(0.32 1.18)" style="fill:#ff4500;fill-opacity:0.392"/></g></g><switch transform="matrix(0.85217 0 0 0.81835 96.31 -17.267)" style="fill:#ff4500"><g transform="matrix(0.60349 0 0 0.67725 -117.3 23.641)" style="enable-background:new    "><path d="m 358 284.8 h -136 l -34 57.5 h 136" style="opacity:0.9"/><path d="m 358 284.8 l -68 -115.1 h -68 l 68 115.1" style="fill:#ffdead"/><path d="M 256 227.2 222 169.7 154 284.8 188 342.3" style="opacity:0.95"/></g></switch></svg>