<svg xmlns="http://www.w3.org/2000/svg" viewBox="0 0 256 256"><defs><clipPath><rect y="56" x="-202" width="84" rx="10" height="88" style="fill:none;stroke:#000;display:block;color:#000"/></clipPath><clipPath><rect y="56" x="-202" width="84" rx="10" height="88" style="fill:none;stroke:#000;display:block;color:#000"/></clipPath><clipPath><rect y="56" x="-202" width="84" rx="10" height="88" style="fill:none;stroke:#000;display:block;color:#000"/></clipPath><clipPath><rect y="56" x="-202" width="84" rx="10" height="88" style="fill:none;stroke:#424242;display:block;color:#000"/></clipPath><clipPath><rect y="56" x="-202" width="84" rx="10" height="88" style="fill:none;stroke:#646464;display:block;color:#000"/></clipPath><clipPath><rect y="56" x="-202" width="84" rx="10" height="88" style="fill:none;stroke:#545454;display:block;color:#000"/></clipPath><clipPath><path transform="matrix(15.33333 0 0 11.5 415 -125.5)" d="m -24 13 c 0 1.105 -0.672 2 -1.5 2 -0.828 0 -1.5 -0.895 -1.5 -2 0 -1.105 0.672 -2 1.5 -2 0.828 0 1.5 0.895 1.5 2 z"/></clipPath></defs><g style="fill:#fff"><path d="m 252.75 895.07 c -49.981 -239.91 -393.86 17.642 -187.29 139.59 80.25 52.27 213 -16.2 187.29 -139.59 z" transform="translate(0 -796.36)" style="fill:#fff;color:#000"/></g><g transform="matrix(1.64744 0 0 1.43321 27.12 29.1)"><path d="m 84 36 l 28 28 v -28 z" style="fill-opacity:0.196"/><path d="m 76 0 l 35.969 36 h -30.453 c -2.695 0 -5.516 -2.852 -5.516 -5.547 z" style="fill:#ff4500;fill-opacity:0.392"/></g><g style="fill:#ff4500"><path d="m 92,48 v 52 H 36 V 48 z m -4,4 H 60 V 64 H 88 z M 56,52 H 40 V 64 H 56 z M 88,68 H 60 V 80 H 88 z M 56,68 H 40 V 80 H 56 z M 88,84 H 60 V 96 H 88 z M 56,84 H 40 v 12 h 16 z" transform="matrix(-1.5682 0 0 1.63625 216.43 29.12)"/></g></svg>