<svg xmlns="http://www.w3.org/2000/svg" viewBox="0 0 256 256"><defs><clipPath><rect y="56" x="-202" width="84" rx="10" height="88" style="fill:none;stroke:#000;display:block;color:#000"/></clipPath><clipPath><rect y="56" x="-202" width="84" rx="10" height="88" style="fill:none;stroke:#000;display:block;color:#000"/></clipPath><clipPath><rect y="56" x="-202" width="84" rx="10" height="88" style="fill:none;stroke:#000;display:block;color:#000"/></clipPath><clipPath><rect y="56" x="-202" width="84" rx="10" height="88" style="fill:none;stroke:#424242;display:block;color:#000"/></clipPath><clipPath><rect y="56" x="-202" width="84" rx="10" height="88" style="fill:none;stroke:#646464;display:block;color:#000"/></clipPath><clipPath><rect y="56" x="-202" width="84" rx="10" height="88" style="fill:none;stroke:#545454;display:block;color:#000"/></clipPath><clipPath><path transform="matrix(15.33333 0 0 11.5 415 -125.5)" d="m -24 13 c 0 1.105 -0.672 2 -1.5 2 -0.828 0 -1.5 -0.895 -1.5 -2 0 -1.105 0.672 -2 1.5 -2 0.828 0 1.5 0.895 1.5 2 z"/></clipPath></defs><g style="fill:#fff"><path d="m 252.75 895.07 c -49.981 -239.91 -393.86 17.642 -187.29 139.59 80.25 52.27 213 -16.2 187.29 -139.59 z" transform="matrix(0.99153 0 0 1 2.17 -796.36)" style="fill:#fff;color:#000"/></g><g transform="matrix(1.64744 0 0 1.43321 27.12 29.1)"><path d="m 84 36 l 28 28 v -28 z" style="fill-opacity:0.196"/><path d="m 76 0 l 35.969 36 h -30.453 c -2.695 0 -5.516 -2.852 -5.516 -5.547 z" style="fill:#ff4500;fill-opacity:0.392"/></g><g transform="matrix(1.59322 0 0 1.74528 28.746 30.15)" style="fill:#ff4500"><path d="M 32,48 H 52 V 60 H 32 z"/><path d="M 32,68 H 52 V 80 H 32 z"/><path d="m 32,88 h 64 v 4 H 32 z"/><path d="m 80,43.969 v 16.03 H 96 C 96,51.14 88.836,43.969 80,43.969 z"/><path d="M 76.01,48 C 67.174,48 60,55.156 60,64 c 0,8.844 7.172,16 16.01,16 8.836,0 15.992,-7.156 15.992,-16 H 76.01 z"/></g></svg>