<svg xmlns="http://www.w3.org/2000/svg" viewBox="0 0 256 256"><g transform="translate(0 -796.36)"><path d="m 157.3 799.61 c 239.91 49.981 -17.642 393.86 -139.59 187.29 -52.27 -80.25 16.2 -213 139.59 -187.29 z" style="fill:#fff;color:#000"/><g transform="matrix(4.23886 0 0 4.043 36.05 821.89)"><path d="M 29,12 29.062,12.062 29.219,12 29,12 z m 2,2 11,11 0,-11 -11,0 z" style="fill-opacity:0.196"/><path d="m 29 1 l 13 13 h -11 c -0.971 0 -2 -1.029 -2 -2 v -11 z" style="fill:#ff4500;fill-opacity:0.392"/></g><g transform="translate(0 796.36)" style="fill:#ff4500;fill-rule:evenodd"><path d="m 161.99 140.13 v -22.942 h 8.417 c 8.236 0 8.417 0.012 8.417 0.543 0 0.51 0.181 0.543 2.987 0.543 2.806 0 2.987 0.033 2.987 0.543 0 0.453 0.181 0.543 1.086 0.543 0.784 0 1.086 0.113 1.086 0.407 0 0.284 0.287 0.407 0.95 0.407 0.769 0 0.95 0.103 0.95 0.543 0 0.362 0.181 0.543 0.543 0.543 0.362 0 0.543 0.181 0.543 0.543 0 0.302 0.181 0.543 0.407 0.543 0.274 0 0.407 0.274 0.407 0.84 0 0.612 0.148 0.879 0.543 0.982 0.481 0.126 0.543 0.37 0.543 2.147 0 1.824 0.049 2 0.543 2 0.302 0 0.543 0.181 0.543 0.407 0 0.226 -0.241 0.407 -0.543 0.407 -0.495 0 -0.543 0.181 -0.543 2.036 0 1.855 -0.048 2.036 -0.543 2.036 -0.44 0 -0.543 0.181 -0.543 0.95 0 0.664 -0.123 0.95 -0.407 0.95 -0.226 0 -0.407 0.241 -0.407 0.543 0 0.362 -0.181 0.543 -0.543 0.543 -0.302 0 -0.543 0.181 -0.543 0.407 0 0.313 -0.347 0.407 -1.493 0.407 -1.281 0 -1.493 0.072 -1.493 0.511 0 0.283 -0.242 0.575 -0.543 0.653 -0.299 0.078 -0.543 0.337 -0.543 0.575 0 0.343 0.308 0.433 1.493 0.433 1.312 0 1.493 0.066 1.493 0.543 0 0.452 0.181 0.543 1.086 0.543 0.905 0 1.086 0.09 1.086 0.543 0 0.302 0.181 0.543 0.407 0.543 0.224 0 0.407 0.183 0.407 0.407 0 0.226 0.241 0.407 0.543 0.407 0.362 0 0.543 0.181 0.543 0.543 0 0.362 0.181 0.543 0.543 0.543 0.44 0 0.543 0.181 0.543 0.95 0 0.636 0.126 0.95 0.382 0.95 0.297 0 0.403 0.617 0.475 2.783 0.15 4.476 -0.033 7.263 -0.478 7.263 -0.253 0 -0.379 0.318 -0.379 0.95 0 0.769 -0.103 0.95 -0.543 0.95 -0.362 0 -0.543 0.181 -0.543 0.543 0 0.362 -0.181 0.543 -0.543 0.543 -0.302 0 -0.543 0.181 -0.543 0.407 0 0.224 -0.183 0.407 -0.407 0.407 -0.226 0 -0.407 0.241 -0.407 0.543 0 0.442 -0.181 0.543 -0.976 0.543 -0.747 0 -1.01 0.127 -1.118 0.543 -0.107 0.408 -0.37 0.543 -1.061 0.543 -0.636 0 -0.919 0.125 -0.919 0.407 0 0.335 -0.492 0.408 -2.783 0.411 -3.124 0.004 -4 0.16 -4 0.707 0 0.312 -1.452 0.376 -8.552 0.376 h -8.552 v -22.942 z m 22.806 17.512 c 0 -0.362 0.181 -0.543 0.543 -0.543 0.299 0 0.543 -0.17 0.543 -0.377 0 -0.215 0.404 -0.453 0.94 -0.553 0.808 -0.152 0.965 -0.309 1.116 -1.116 0.101 -0.536 0.338 -0.94 0.553 -0.94 0.306 0 0.377 -0.838 0.377 -4.48 0 -3.641 -0.071 -4.48 -0.377 -4.48 -0.216 0 -0.453 -0.406 -0.555 -0.95 -0.107 -0.569 -0.337 -0.95 -0.573 -0.95 -0.217 0 -0.395 -0.244 -0.395 -0.543 0 -0.453 -0.181 -0.543 -1.086 -0.543 -0.744 0 -1.086 -0.118 -1.086 -0.376 0 -0.207 -0.275 -0.449 -0.611 -0.539 -0.336 -0.09 -4.123 -0.165 -8.417 -0.167 l -7.806 -0.004 v 8.552 v 8.552 h 8.417 c 8.236 0 8.417 -0.012 8.417 -0.543 z m -1.086 -21.992 c 0 -0.398 0.181 -0.543 0.679 -0.543 0.422 0 0.679 -0.154 0.679 -0.407 0 -0.224 0.183 -0.407 0.407 -0.407 0.226 0 0.407 -0.241 0.407 -0.543 0 -0.362 0.181 -0.543 0.543 -0.543 0.519 0 0.543 -0.181 0.543 -4.073 0 -3.892 -0.024 -4.073 -0.543 -4.073 -0.362 0 -0.543 -0.181 -0.543 -0.543 0 -0.302 -0.181 -0.543 -0.407 -0.543 -0.224 0 -0.407 -0.183 -0.407 -0.407 0 -0.294 -0.302 -0.407 -1.086 -0.407 -0.905 0 -1.086 -0.091 -1.086 -0.543 0 -0.53 -0.181 -0.543 -7.466 -0.543 h -7.466 v 7.06 v 7.06 h 7.874 c 7.693 0 7.874 -0.012 7.874 -0.543 z"/><path d="m 43.07 161.15 c 0 -1.698 -0.064 -1.943 -0.543 -2.068 -0.444 -0.116 -0.544 -0.372 -0.547 -1.4 -0.005 -1.646 -0.242 -2.48 -0.707 -2.48 -0.274 0 -0.376 -0.403 -0.376 -1.493 0 -1.146 -0.095 -1.493 -0.407 -1.493 -0.326 0 -0.407 -0.407 -0.407 -2.036 0 -1.855 -0.048 -2.036 -0.543 -2.036 -0.492 0 -0.543 -0.181 -0.543 -1.926 0 -1.698 -0.064 -1.943 -0.543 -2.068 -0.481 -0.126 -0.543 -0.37 -0.543 -2.147 0 -1.601 -0.082 -2 -0.407 -2 -0.304 0 -0.408 -0.326 -0.411 -1.29 -0.005 -1.676 -0.24 -2.511 -0.707 -2.511 -0.274 0 -0.376 -0.403 -0.376 -1.493 0 -1.312 -0.066 -1.493 -0.543 -1.493 -0.495 0 -0.543 -0.181 -0.543 -2.036 v -2.036 h 2.444 h 2.444 v 1.493 c 0 1.312 0.066 1.493 0.543 1.493 0.495 0 0.543 0.181 0.543 2.036 0 1.629 0.081 2.036 0.407 2.036 0.324 0 0.407 0.395 0.407 1.926 0 1.698 0.064 1.943 0.543 2.068 0.444 0.116 0.544 0.372 0.547 1.4 0.005 1.646 0.242 2.48 0.707 2.48 0.278 0 0.376 0.423 0.376 1.629 0 1.267 0.09 1.629 0.407 1.629 0.323 0 0.407 0.392 0.407 1.901 0 1.72 0.052 1.901 0.543 1.901 0.477 0 0.543 0.181 0.543 1.493 0 1.312 0.066 1.493 0.543 1.493 0.302 0 0.543 -0.181 0.543 -0.407 0 -0.226 0.241 -0.407 0.543 -0.407 0.476 0 0.543 -0.181 0.543 -1.462 0 -1.233 0.085 -1.484 0.543 -1.604 0.479 -0.125 0.543 -0.37 0.543 -2.068 0 -1.531 0.084 -1.926 0.407 -1.926 0.326 0 0.407 -0.407 0.407 -2.036 0 -1.855 0.048 -2.036 0.543 -2.036 0.491 0 0.543 -0.181 0.543 -1.901 0 -1.72 0.052 -1.901 0.543 -1.901 0.483 0 0.543 -0.181 0.543 -1.629 0 -1.267 0.09 -1.629 0.407 -1.629 0.323 0 0.407 -0.392 0.407 -1.901 0 -1.72 0.052 -1.901 0.543 -1.901 0.453 0 0.543 -0.181 0.543 -1.086 v -1.086 h 2.987 h 2.987 v 1.086 c 0 0.784 0.113 1.086 0.407 1.086 0.304 0 0.408 0.326 0.411 1.29 0.005 1.676 0.24 2.511 0.707 2.511 0.278 0 0.376 0.423 0.376 1.629 0 1.448 0.06 1.629 0.543 1.629 0.491 0 0.543 0.181 0.543 1.901 0 1.508 0.084 1.901 0.407 1.901 0.324 0 0.407 0.395 0.407 1.926 0 1.698 0.064 1.943 0.543 2.068 0.444 0.116 0.544 0.372 0.547 1.4 0.005 1.646 0.243 2.48 0.707 2.48 0.286 0 0.376 0.484 0.376 2.036 v 2.036 h 1.086 h 1.086 v -1.493 c 0 -1.146 0.095 -1.493 0.407 -1.493 0.323 0 0.407 -0.392 0.407 -1.901 0 -1.72 0.052 -1.901 0.543 -1.901 0.495 0 0.543 -0.181 0.543 -2.036 0 -1.855 0.048 -2.036 0.543 -2.036 0.477 0 0.543 -0.181 0.543 -1.493 0 -1.146 0.095 -1.493 0.407 -1.493 0.326 0 0.407 -0.407 0.407 -2.036 0 -1.855 0.048 -2.036 0.543 -2.036 0.495 0 0.543 -0.181 0.543 -2.036 0 -1.855 0.048 -2.036 0.543 -2.036 0.477 0 0.543 -0.181 0.543 -1.493 v -1.493 h 2.444 h 2.444 v 2.036 c 0 1.855 -0.048 2.036 -0.543 2.036 -0.491 0 -0.543 0.181 -0.543 1.901 0 1.72 -0.052 1.901 -0.543 1.901 -0.477 0 -0.543 0.181 -0.543 1.493 0 1.146 -0.095 1.493 -0.407 1.493 -0.326 0 -0.407 0.407 -0.407 2.036 0 1.855 -0.048 2.036 -0.543 2.036 -0.495 0 -0.543 0.181 -0.543 2.036 0 1.855 -0.048 2.036 -0.543 2.036 -0.495 0 -0.543 0.181 -0.543 2.036 0 1.629 -0.081 2.036 -0.407 2.036 -0.313 0 -0.407 0.347 -0.407 1.493 0 1.312 -0.066 1.493 -0.543 1.493 -0.49 0 -0.543 0.181 -0.543 1.869 0 1.641 -0.066 1.886 -0.543 2.01 -0.479 0.125 -0.543 0.37 -0.543 2.068 v 1.926 h -2.821 h -2.821 l -0.178 -0.95 c -0.107 -0.569 -0.337 -0.95 -0.573 -0.95 -0.298 0 -0.395 -0.368 -0.395 -1.493 0 -1.312 -0.066 -1.493 -0.543 -1.493 -0.495 0 -0.543 -0.181 -0.543 -2.036 0 -1.629 -0.081 -2.036 -0.407 -2.036 -0.324 0 -0.407 -0.395 -0.407 -1.926 0 -1.698 -0.064 -1.943 -0.543 -2.068 -0.478 -0.125 -0.543 -0.37 -0.543 -2.036 0 -1.666 -0.065 -1.911 -0.543 -2.036 -0.458 -0.12 -0.543 -0.37 -0.543 -1.604 0 -1.118 -0.096 -1.462 -0.407 -1.462 -0.323 0 -0.407 -0.392 -0.407 -1.901 0 -1.72 -0.052 -1.901 -0.543 -1.901 -0.495 0 -0.543 -0.181 -0.543 -2.036 v -2.036 h -1.086 h -1.086 v 2.036 c 0 1.855 -0.048 2.036 -0.543 2.036 -0.491 0 -0.543 0.181 -0.543 1.901 0 1.508 -0.084 1.901 -0.407 1.901 -0.317 0 -0.407 0.362 -0.407 1.629 0 1.448 -0.06 1.629 -0.543 1.629 -0.49 0 -0.543 0.181 -0.543 1.869 0 1.641 -0.066 1.886 -0.543 2.01 -0.479 0.125 -0.543 0.37 -0.543 2.068 0 1.531 -0.084 1.926 -0.407 1.926 -0.326 0 -0.407 0.407 -0.407 2.036 0 1.855 -0.048 2.036 -0.543 2.036 -0.477 0 -0.543 0.181 -0.543 1.493 0 1.126 -0.097 1.493 -0.395 1.493 -0.236 0 -0.467 0.381 -0.573 0.95 l -0.178 0.95 h -2.821 h -2.821 v -1.926 z"/><path d="m 85.971 162.67 c 0 -0.226 0.241 -0.407 0.543 -0.407 0.44 0 0.543 -0.181 0.543 -0.95 0 -0.664 0.123 -0.95 0.407 -0.95 0.226 0 0.407 -0.241 0.407 -0.543 0 -0.362 0.181 -0.543 0.543 -0.543 0.362 0 0.543 -0.181 0.543 -0.543 0 -0.362 0.181 -0.543 0.543 -0.543 0.44 0 0.543 -0.181 0.543 -0.95 0 -0.664 0.123 -0.95 0.407 -0.95 0.226 0 0.407 -0.241 0.407 -0.543 0 -0.362 0.181 -0.543 0.543 -0.543 0.362 0 0.543 -0.181 0.543 -0.543 0 -0.362 0.181 -0.543 0.543 -0.543 0.44 0 0.543 -0.181 0.543 -0.95 0 -0.664 0.123 -0.95 0.407 -0.95 0.226 0 0.407 -0.241 0.407 -0.543 0 -0.362 0.181 -0.543 0.543 -0.543 0.362 0 0.543 -0.181 0.543 -0.543 0 -0.299 0.178 -0.543 0.395 -0.543 0.236 0 0.467 -0.381 0.573 -0.95 0.129 -0.688 0.32 -0.95 0.691 -0.95 0.282 0 0.513 -0.183 0.513 -0.407 0 -0.224 0.183 -0.407 0.407 -0.407 0.317 0 0.407 -0.362 0.407 -1.629 0 -1.267 -0.091 -1.629 -0.407 -1.629 -0.284 0 -0.407 -0.287 -0.407 -0.95 0 -0.769 -0.103 -0.95 -0.543 -0.95 -0.362 0 -0.543 -0.181 -0.543 -0.543 0 -0.362 -0.181 -0.543 -0.543 -0.543 -0.44 0 -0.543 -0.181 -0.543 -0.95 0 -0.769 -0.103 -0.95 -0.543 -0.95 -0.362 0 -0.543 -0.181 -0.543 -0.543 0 -0.302 -0.181 -0.543 -0.407 -0.543 -0.226 0 -0.407 -0.241 -0.407 -0.543 0 -0.362 -0.181 -0.543 -0.543 -0.543 -0.44 0 -0.543 -0.181 -0.543 -0.95 0 -0.769 -0.103 -0.95 -0.543 -0.95 -0.362 0 -0.543 -0.181 -0.543 -0.543 0 -0.302 -0.181 -0.543 -0.407 -0.543 -0.224 0 -0.407 -0.183 -0.407 -0.407 0 -0.226 -0.241 -0.407 -0.543 -0.407 -0.44 0 -0.543 -0.181 -0.543 -0.95 0 -0.769 -0.103 -0.95 -0.543 -0.95 -0.362 0 -0.543 -0.181 -0.543 -0.543 0 -0.302 -0.181 -0.543 -0.407 -0.543 -0.226 0 -0.407 -0.241 -0.407 -0.543 0 -0.509 0.181 -0.543 2.851 -0.543 2.67 0 2.851 0.035 2.851 0.543 0 0.362 0.181 0.543 0.543 0.543 0.362 0 0.543 0.181 0.543 0.543 0 0.362 0.181 0.543 0.543 0.543 0.44 0 0.543 0.181 0.543 0.95 0 0.664 0.123 0.95 0.407 0.95 0.226 0 0.407 0.241 0.407 0.543 0 0.362 0.181 0.543 0.543 0.543 0.302 0 0.543 0.181 0.543 0.407 0 0.226 0.241 0.407 0.543 0.407 0.453 0 0.543 0.181 0.543 1.086 0 0.784 0.113 1.086 0.407 1.086 0.226 0 0.407 0.241 0.407 0.543 0 0.355 0.181 0.543 0.521 0.543 0.355 0 0.577 0.252 0.694 0.787 0.243 1.106 2.042 1.609 2.042 0.571 0 -0.362 0.181 -0.543 0.543 -0.543 0.302 0 0.543 -0.181 0.543 -0.407 0 -0.224 0.183 -0.407 0.407 -0.407 0.224 0 0.407 -0.23 0.407 -0.511 0 -0.283 0.242 -0.575 0.543 -0.653 0.416 -0.109 0.543 -0.37 0.543 -1.118 0 -0.795 0.101 -0.976 0.543 -0.976 0.302 0 0.543 -0.181 0.543 -0.407 0 -0.224 0.183 -0.407 0.407 -0.407 0.226 0 0.407 -0.241 0.407 -0.543 0 -0.362 0.181 -0.543 0.543 -0.543 0.44 0 0.543 -0.181 0.543 -0.95 0 -0.769 0.103 -0.95 0.543 -0.95 0.362 0 0.543 -0.181 0.543 -0.543 0 -0.302 0.181 -0.543 0.407 -0.543 0.226 0 0.407 -0.241 0.407 -0.543 0 -0.51 0.181 -0.543 2.987 -0.543 2.806 0 2.987 0.033 2.987 0.543 0 0.362 -0.181 0.543 -0.543 0.543 -0.362 0 -0.543 0.181 -0.543 0.543 0 0.302 -0.181 0.543 -0.407 0.543 -0.284 0 -0.407 0.287 -0.407 0.95 0 0.769 -0.103 0.95 -0.543 0.95 -0.302 0 -0.543 0.181 -0.543 0.407 0 0.226 -0.241 0.407 -0.543 0.407 -0.362 0 -0.543 0.181 -0.543 0.543 0 0.302 -0.181 0.543 -0.407 0.543 -0.284 0 -0.407 0.287 -0.407 0.95 0 0.769 -0.103 0.95 -0.543 0.95 -0.362 0 -0.543 0.181 -0.543 0.543 0 0.362 -0.181 0.543 -0.543 0.543 -0.44 0 -0.543 0.181 -0.543 0.95 0 0.664 -0.123 0.95 -0.407 0.95 -0.226 0 -0.407 0.241 -0.407 0.543 0 0.362 -0.181 0.543 -0.543 0.543 -0.362 0 -0.543 0.181 -0.543 0.543 0 0.362 -0.181 0.543 -0.543 0.543 -0.44 0 -0.543 0.181 -0.543 0.95 0 0.769 -0.103 0.95 -0.543 0.95 -0.362 0 -0.543 0.181 -0.543 0.543 0 0.302 -0.181 0.543 -0.407 0.543 -0.226 0 -0.407 0.241 -0.407 0.543 0 0.302 0.181 0.543 0.407 0.543 0.226 0 0.407 0.241 0.407 0.543 0 0.362 0.181 0.543 0.543 0.543 0.44 0 0.543 0.181 0.543 0.95 0 0.769 0.103 0.95 0.543 0.95 0.362 0 0.543 0.181 0.543 0.543 0 0.362 0.181 0.543 0.543 0.543 0.302 0 0.543 0.181 0.543 0.407 0 0.224 0.183 0.407 0.407 0.407 0.286 0 0.407 0.289 0.407 0.976 0 0.747 0.127 1.01 0.543 1.118 0.299 0.078 0.543 0.311 0.543 0.518 0 0.207 0.244 0.376 0.543 0.376 0.362 0 0.543 0.181 0.543 0.543 0 0.302 0.181 0.543 0.407 0.543 0.284 0 0.407 0.287 0.407 0.95 0 0.769 0.103 0.95 0.543 0.95 0.362 0 0.543 0.181 0.543 0.543 0 0.362 0.181 0.543 0.543 0.543 0.362 0 0.543 0.181 0.543 0.543 0 0.302 0.181 0.543 0.407 0.543 0.284 0 0.407 0.287 0.407 0.95 0 0.769 0.103 0.95 0.543 0.95 0.362 0 0.543 0.181 0.543 0.543 0 0.362 0.181 0.543 0.543 0.543 0.302 0 0.543 0.181 0.543 0.407 0 0.337 -0.513 0.407 -2.987 0.407 -2.806 0 -2.987 -0.033 -2.987 -0.543 0 -0.362 -0.181 -0.543 -0.543 -0.543 -0.302 0 -0.543 -0.181 -0.543 -0.407 0 -0.224 -0.183 -0.407 -0.407 -0.407 -0.226 0 -0.407 -0.241 -0.407 -0.543 0 -0.362 -0.181 -0.543 -0.543 -0.543 -0.44 0 -0.543 -0.181 -0.543 -0.95 0 -0.769 -0.103 -0.95 -0.543 -0.95 -0.362 0 -0.543 -0.181 -0.543 -0.543 0 -0.299 -0.17 -0.543 -0.377 -0.543 -0.216 0 -0.453 -0.406 -0.555 -0.95 -0.107 -0.569 -0.337 -0.95 -0.573 -0.95 -0.217 0 -0.395 -0.244 -0.395 -0.543 0 -0.362 -0.181 -0.543 -0.543 -0.543 -0.362 0 -0.543 -0.181 -0.543 -0.543 0 -0.302 -0.181 -0.543 -0.407 -0.543 -0.224 0 -0.407 -0.183 -0.407 -0.407 0 -0.224 -0.231 -0.407 -0.513 -0.407 -0.371 0 -0.562 -0.263 -0.691 -0.95 -0.176 -0.937 -0.968 -1.381 -0.968 -0.543 0 0.226 -0.241 0.407 -0.543 0.407 -0.362 0 -0.543 0.181 -0.543 0.543 0 0.362 -0.181 0.543 -0.543 0.543 -0.44 0 -0.543 0.181 -0.543 0.95 0 0.664 -0.123 0.95 -0.407 0.95 -0.226 0 -0.407 0.241 -0.407 0.543 0 0.362 -0.181 0.543 -0.543 0.543 -0.44 0 -0.543 0.181 -0.543 0.95 0 0.769 -0.103 0.95 -0.543 0.95 -0.362 0 -0.543 0.181 -0.543 0.543 0 0.302 -0.181 0.543 -0.407 0.543 -0.224 0 -0.407 0.183 -0.407 0.407 0 0.226 -0.241 0.407 -0.543 0.407 -0.453 0 -0.543 0.181 -0.543 1.086 0 0.905 -0.091 1.086 -0.543 1.086 -0.302 0 -0.543 0.181 -0.543 0.407 0 0.224 -0.183 0.407 -0.407 0.407 -0.226 0 -0.407 0.241 -0.407 0.543 0 0.51 -0.181 0.543 -2.987 0.543 -2.474 0 -2.987 -0.07 -2.987 -0.407 z"/><path d="m 125.88 140.13 v -22.942 h 13.03 h 13.03 v 2.444 v 2.444 h -10.05 h -10.05 v 7.06 v 7.06 h 8.96 h 8.96 v 2.444 v 2.444 h -8.96 h -8.96 v 10.996 v 10.996 h -2.987 h -2.987 v -22.942 z"/></g></g></svg>