<svg xmlns="http://www.w3.org/2000/svg" viewBox="0 0 256 256"><defs><clipPath><rect y="56" x="-202" width="84" rx="10" height="88" style="fill:none;stroke:#000;display:block;color:#000"/></clipPath><clipPath><rect y="56" x="-202" width="84" rx="10" height="88" style="fill:none;stroke:#000;display:block;color:#000"/></clipPath><clipPath><rect y="56" x="-202" width="84" rx="10" height="88" style="fill:none;stroke:#000;display:block;color:#000"/></clipPath></defs><g transform="translate(0 -796.36)"><path d="m 252.75 895.07 c -49.981 -239.91 -393.86 17.642 -187.29 139.59 80.25 52.27 213 -16.2 187.29 -139.59 z" style="fill:#fff;color:#000"/><g transform="matrix(4.65185 0 0 3.68163 16.318 842.72)"><path d="M 29,6.5 29.062,6.562 29.219,6.5 29,6.5 Z m 2,2 11,11 0,-11 -11,0 z" style="fill-opacity:0.196"/><g transform="translate(0.32 1.18)" style="fill:#ff4500"><path d="m 28.68 -5.68 l 13 13 h -11 c -0.971 0 -2 -1.029 -2 -2 v -11 z" style="fill-opacity:0.392"/><path d="m 19.861 9.742 v 26.395 h 3.809 v -12.848 c 0 -0.811 0.055 -1.383 0.187 -1.718 0.132 -0.346 0.348 -0.54 0.654 -0.54 0.298 0 0.508 0.155 0.631 0.477 0.123 0.322 0.187 0.934 0.187 1.781 v 12.848 h 3.832 v -13.42 c 0 -2.063 -0.213 -3.486 -0.608 -4.262 -0.386 -0.775 -1.045 -1.145 -2.01 -1.145 -0.544 0 -1.045 0.187 -1.519 0.604 -0.464 0.417 -0.917 1.089 -1.356 1.972 v -10.145 h -3.809 z m -5.678 21.533 v 4.865 h 3.131 v -4.865 h -3.131 z"/></g></g></g></svg>