<?xml version="1.0" encoding="UTF-8" standalone="no"?>
<svg
   xmlns:dc="http://purl.org/dc/elements/1.1/"
   xmlns:cc="http://creativecommons.org/ns#"
   xmlns:rdf="http://www.w3.org/1999/02/22-rdf-syntax-ns#"
   xmlns:svg="http://www.w3.org/2000/svg"
   xmlns="http://www.w3.org/2000/svg"
   xmlns:xlink="http://www.w3.org/1999/xlink"
   xmlns:sodipodi="http://sodipodi.sourceforge.net/DTD/sodipodi-0.dtd"
   xmlns:inkscape="http://www.inkscape.org/namespaces/inkscape"
   viewBox="0 0 256 256"
   id="svg2"
   version="1.1"
   inkscape:version="0.48.4 r9939"
   width="100%"
   height="100%"
   sodipodi:docname="gnome-mime-application-x-geneweb.svg">
  <metadata
     id="metadata61">
    <rdf:RDF>
      <cc:Work
         rdf:about="">
        <dc:format>image/svg+xml</dc:format>
        <dc:type
           rdf:resource="http://purl.org/dc/dcmitype/StillImage" />
      </cc:Work>
    </rdf:RDF>
  </metadata>
  <defs
     id="defs59" />
  <sodipodi:namedview
     pagecolor="#ffffff"
     bordercolor="#666666"
     borderopacity="1"
     objecttolerance="10"
     gridtolerance="10"
     guidetolerance="10"
     inkscape:pageopacity="0"
     inkscape:pageshadow="2"
     inkscape:window-width="644"
     inkscape:window-height="496"
     id="namedview57"
     showgrid="false"
     inkscape:zoom="0.921875"
     inkscape:cx="128"
     inkscape:cy="128"
     inkscape:window-x="0"
     inkscape:window-y="24"
     inkscape:window-maximized="0"
     inkscape:current-layer="g4" />
  <g
     transform="translate(0.125 -796.03)"
     id="g4">
    <path
       d="m 157.49 801.61 c 236.4 49.15 -17.384 387.28 -137.54 184.16 -51.51 -78.906 15.963 -209.44 137.54 -184.16 z"
       style="fill:#fff;color:#000"
       id="path6" />
    <g
       transform="matrix(4.23886 0 0 4.043 55.16 815.43)"
       id="g8">
      <path
         d="M 29,12 29.062,12.062 29.219,12 29,12 z m 2,2 11,11 0,-11 -11,0 z"
         style="fill-opacity:0.196"
         id="path10" />
      <path
         d="m 29 1 l 13 13 h -11 c -0.971 0 -2 -1.029 -2 -2 v -11 z"
         style="fill:#ff4500;fill-opacity:0.392"
         id="path12" />
    </g>
    <g
       style="fill:#ffdead"
       id="g14">
      <path
         d="m 33.625 923.28 h 28.75 v 18.75 h -28.75 z"
         id="path16" />
      <path
         d="M 85.5,882.66 H114.25 V901.41 H85.5 z"
         id="path18" />
      <path
         d="M 85.5,962.66 H114.25 V981.41 H85.5 z"
         id="path20" />
      <path
         d="M 135.5,942.66 H164.25 V961.41 H135.5 z"
         id="path22" />
    </g>
    <path
       d="M 135.5,982.66 H164.25 V1001.41 H135.5 z"
       id="0"
       style="fill:#888" />
    <use
       xlink:href="#0"
       id="use25"
       style="fill:#ff4500;stroke:#ff4500" />
    <g
       style="fill:#ff4500"
       id="g27">
      <path
         d="M 135.5,902.66 H164.25 V921.41 H135.5 z"
         id="path29" />
      <path
         d="m 135.5 862.03 h 28.75 v 18.75 h -28.75 z"
         id="path31" />
      <path
         d="m 69.875 892.03 h 4.656 v 80 h -4.656 z"
         id="path33" />
      <path
         d="m 123.31 871.42 h 4.657 v 41.832 h -4.657 z"
         id="path35" />
      <path
         d="m 123.31 951.58 h 4.657 v 41.832 h -4.657 z"
         id="path37" />
      <path
         d="m 59.42 930.66 h 11.45 v 4.581 h -11.45 z"
         id="path39" />
      <path
         d="m 112.09 890 h 11.45 v 4.58 h -11.45 z"
         id="path41" />
      <path
         d="m 112.85 970.36 h 11.45 v 4.58 h -11.45 z"
         id="path43" />
      <path
         d="m 69.892 889.42 h 16.07 v 4.58 h -16.07 z"
         id="path45" />
      <path
         d="m 69.892 970.34 h 16.07 v 4.58 h -16.07 z"
         id="path47" />
      <path
         d="m 123.65 950.11 h 16.07 v 4.58 h -16.07 z"
         id="path49" />
      <path
         d="m 123.65 988.84 h 16.07 v 4.58 h -16.07 z"
         id="path51" />
      <path
         d="m 123.65 909.65 h 16.07 v 4.58 h -16.07 z"
         id="path53" />
      <path
         d="m 123.07 869.76 h 16.07 v 4.58 h -16.07 z"
         id="path55" />
    </g>
  </g>
</svg>
