<svg xmlns="http://www.w3.org/2000/svg" xmlns:xlink="http://www.w3.org/1999/xlink" viewBox="0 0 256 256"><g transform="translate(0 -796.36)"><path d="m 193.83 815.03 c 225.34 193.41 -237.98 379.39 -190.37 80.26 10.438 -65.59 129.65 -132.38 190.37 -80.26 z" style="fill:#fff;color:#000"/><g transform="matrix(3.89016 0 0 4.14026 20.278 827.23)"><path d="m 33.934 9.542 l 0.062 0.062 l 0.157 -0.062 h -0.219 z m 2 2 l 11 11 v -11 h -11 z" style="fill-opacity:0.196"/><g style="fill:#ff4500"><path d="m 34.19 -1.44 l 13 13 h -11 c -0.971 0 -2 -1.029 -2 -2 v -11 z" style="fill-opacity:0.392"/><g transform="matrix(1.27886 0 0 1.131 -6.971 -3.764)"><path d="M 18.312,18 C 17.996,18.032 18,18.168 18,18.688 V 24 c 0,-1.105 0.895,-2 2,-2 1.105,0 2,0.895 2,2 0,1.105 -0.895,2 -2,2 -1.105,0 -2,-0.895 -2,-2 v 5.25 C 18,30.003 18,30 18.75,30 H 24 c -1.105,0 -2,-0.895 -2,-2 0,-1.105 0.895,-2 2,-2 1.105,0 2,0.895 2,2 0,1.105 -0.895,2 -2,2 h 5.25 C 30.003,30 30,30 30,29.25 V 18.75 C 30,17.997 30,18 29.25,18 h -10.5 c -0.188,0 -0.332,-0.011 -0.438,0 z"/><path transform="matrix(1.3333 0 0 1.4048 -6 -10.679)" d="m 24 18.992 c 0 0.786 -0.672 1.424 -1.5 1.424 -0.828 0 -1.5 -0.637 -1.5 -1.424 0 -0.786 0.672 -1.424 1.5 -1.424 0.828 0 1.5 0.637 1.5 1.424 z" id="0"/><use transform="translate(8 8)" xlink:href="#0" width="256" height="256"/></g></g><path d="m 6 35 v 10 c 0 0.971 1.029 2 2 2 h 32 c 0.971 0 2 -1.029 2 -2 v -10 z" style="fill:#fff;fill-opacity:0.196"/><g transform="matrix(1.11036 0 0 0.88456 -3.397 7.957)" style="fill:#ff4500"><path d="m 16.16,37.35 c 0,0.42 0.014,0.817 0.042,1.19 0.037,0.364 0.103,0.681 0.196,0.952 0.103,0.271 0.243,0.485 0.42,0.644 0.177,0.159 0.415,0.238 0.714,0.238 0.289,0 0.523,-0.079 0.7,-0.238 0.187,-0.159 0.327,-0.373 0.42,-0.644 0.103,-0.28 0.168,-0.602 0.196,-0.966 0.037,-0.364 0.056,-0.756 0.056,-1.176 0,-0.42 -0.019,-0.812 -0.056,-1.176 -0.028,-0.373 -0.093,-0.695 -0.196,-0.966 -0.093,-0.271 -0.229,-0.485 -0.406,-0.644 -0.177,-0.159 -0.415,-0.238 -0.714,-0.238 -0.299,0 -0.537,0.079 -0.714,0.238 -0.177,0.159 -0.317,0.378 -0.42,0.658 -0.093,0.271 -0.159,0.588 -0.196,0.952 -0.028,0.364 -0.042,0.756 -0.042,1.176 m -1.75,0 c 0,-1.493 0.275,-2.618 0.826,-3.374 0.551,-0.765 1.316,-1.148 2.296,-1.148 1.017,0 1.792,0.383 2.324,1.148 0.532,0.756 0.798,1.881 0.798,3.374 0,1.493 -0.271,2.623 -0.812,3.388 -0.541,0.756 -1.307,1.134 -2.296,1.134 -1.017,0 -1.797,-0.378 -2.338,-1.134 C 14.676,39.973 14.41,38.843 14.41,37.35"/><path d="m 26.02,41.695 c -0.177,-0.476 -0.397,-1 -0.658,-1.582 -0.252,-0.579 -0.518,-1.157 -0.798,-1.736 -0.271,0.551 -0.541,1.125 -0.812,1.722 -0.271,0.588 -0.504,1.12 -0.7,1.596 H 21.19 c 0.093,-0.252 0.229,-0.555 0.406,-0.91 0.187,-0.355 0.387,-0.737 0.602,-1.148 0.224,-0.411 0.457,-0.831 0.7,-1.26 0.243,-0.439 0.476,-0.859 0.7,-1.26 L 21.33,33.029 h 1.862 l 1.372,2.772 1.442,-2.772 h 1.736 l -2.212,4.046 c 0.252,0.401 0.499,0.821 0.742,1.26 0.243,0.439 0.467,0.868 0.672,1.288 0.215,0.411 0.401,0.798 0.56,1.162 0.159,0.355 0.285,0.658 0.378,0.91 H 26.02"/><path d="m 34.684,33.03 v 1.428 h -2.282 v 7.238 H 30.666 V 34.458 H 28.384 V 33.03 h 6.3"/></g></g></g></svg>