<svg xmlns="http://www.w3.org/2000/svg" viewBox="0 0 256 256"><g transform="translate(1.422 -795.76)"><path d="m 190 815.03 c 220.89 193.41 -233.28 379.39 -186.61 80.26 10.232 -65.59 127.09 -132.38 186.61 -80.26 z" style="fill:#fff;color:#000"/><g transform="matrix(4.22688 0 0 4.2281 22.298 822.09)"><path d="M 29,12 29.062,12.062 29.219,12 29,12 z m 2,2 11,11 0,-11 -11,0 z" style="fill-opacity:0.196"/><path d="m 29 1 l 13 13 h -11 c -0.971 0 -2 -1.029 -2 -2 v -11 z" style="fill:#ff4500;fill-opacity:0.392"/></g><path d="m 98.65 1008.49 c -0.844 -0.482 -1.743 -1.719 -2.143 -2.949 -0.207 -0.634 -0.413 -3.072 -0.589 -6.968 -0.149 -3.296 -0.346 -6.255 -0.437 -6.577 -0.121 -0.426 -0.711 -0.827 -2.181 -1.486 -1.109 -0.496 -2.779 -1.394 -3.711 -1.994 -0.932 -0.601 -1.898 -1.091 -2.146 -1.091 -0.278 0 -1.801 1.586 -3.974 4.137 -1.938 2.277 -3.836 4.347 -4.219 4.599 -0.788 0.518 -2.561 0.602 -3.476 0.165 -0.728 -0.348 -8.429 -10.07 -8.923 -11.269 -0.49 -1.186 -0.437 -3.403 0.112 -4.747 0.25 -0.612 1.879 -3.091 3.62 -5.511 1.874 -2.603 3.165 -4.624 3.165 -4.953 0 -0.306 -0.383 -1.534 -0.852 -2.728 -0.469 -1.194 -1.167 -3.329 -1.553 -4.743 -0.385 -1.414 -0.858 -2.676 -1.051 -2.804 -0.193 -0.128 -2.455 -0.382 -5.03 -0.564 -2.991 -0.212 -5 -0.481 -5.587 -0.748 -1.11 -0.51 -2.389 -2.253 -2.569 -3.505 -0.073 -0.507 -0.103 -4.266 -0.067 -8.354 l 0.067 -7.43 l 0.666 -1.071 c 1.178 -1.891 1.731 -2.082 7.357 -2.525 3.184 -0.252 5.119 -0.517 5.28 -0.724 0.14 -0.181 0.617 -1.583 1.06 -3.116 0.444 -1.532 1.137 -3.631 1.54 -4.662 0.404 -1.031 0.734 -2.101 0.734 -2.378 0 -0.278 -1.332 -2.375 -2.959 -4.663 -1.628 -2.288 -3.185 -4.541 -3.46 -5.01 -0.774 -1.313 -1.036 -2.937 -0.73 -4.529 0.231 -1.201 0.655 -1.853 4.192 -6.449 2.164 -2.811 4.298 -5.351 4.742 -5.645 1.03 -0.68 2.667 -0.69 3.69 -0.021 0.431 0.282 2.32 2.32 4.198 4.529 1.878 2.21 3.542 4.111 3.698 4.224 0.164 0.12 1.176 -0.337 2.407 -1.083 1.168 -0.709 2.916 -1.631 3.884 -2.049 1.313 -0.568 1.822 -0.929 2 -1.425 0.134 -0.366 0.363 -3.362 0.509 -6.658 0.282 -6.339 0.451 -7.341 1.471 -8.706 1.134 -1.517 1.787 -1.642 8.128 -1.552 l 5.776 0.082 l 0.904 0.767 c 1.555 1.319 1.743 2.14 2.109 9.192 0.177 3.414 0.371 6.473 0.43 6.798 0.083 0.458 0.559 0.793 2.107 1.486 1.1 0.492 2.861 1.449 3.913 2.126 1.053 0.678 1.998 1.231 2.101 1.231 0.103 0 1.793 -1.888 3.756 -4.197 1.963 -2.309 3.932 -4.441 4.376 -4.738 1.049 -0.702 2.611 -0.697 3.758 0.015 0.545 0.338 2.395 2.496 4.72 5.511 3.99 5.164 4.304 5.755 4.307 8.094 0.002 1.653 -0.572 2.739 -4 7.558 -1.865 2.621 -3.391 4.875 -3.391 5.01 0 0.136 0.487 1.548 1.082 3.136 0.595 1.589 1.305 3.815 1.577 4.947 0.338 1.405 0.633 2.132 0.93 2.294 0.239 0.131 2.644 0.414 5.344 0.629 5.358 0.429 6.221 0.712 7.119 2.331 0.849 1.531 0.948 2.677 0.874 10.157 l -0.07 7.154 l -0.655 1.194 c -1.17 2.133 -1.466 2.242 -7.41 2.739 -2.904 0.243 -5.332 0.507 -5.394 0.587 -0.062 0.08 -0.423 1.27 -0.801 2.643 -0.378 1.374 -1.123 3.608 -1.654 4.963 -0.531 1.355 -0.936 2.632 -0.899 2.835 0.037 0.205 1.486 2.354 3.22 4.777 1.734 2.423 3.374 4.963 3.643 5.643 0.572 1.445 0.625 2.974 0.153 4.421 -0.416 1.275 -7.479 10.476 -8.627 11.237 -0.96 0.636 -2.708 0.705 -3.713 0.146 -0.385 -0.214 -2.315 -2.283 -4.288 -4.597 -1.974 -2.315 -3.746 -4.208 -3.937 -4.21 -0.192 0 -1.304 0.57 -2.471 1.27 -1.167 0.7 -2.896 1.597 -3.843 1.997 -1.308 0.553 -1.746 0.866 -1.826 1.307 -0.058 0.319 -0.251 3.374 -0.428 6.788 -0.39 7.508 -0.614 8.329 -2.654 9.648 -0.592 0.384 -1.571 0.449 -6.525 0.441 -4.385 -0.014 -5.99 -0.103 -6.481 -0.383 z m 8.591 -33.34 c 5.258 -0.706 9.651 -3.393 13.391 -8.192 2.851 -3.657 4.69 -7.76 5.797 -12.933 0.694 -3.244 0.69 -10.404 -0.008 -13.688 -2.118 -9.962 -7.683 -17.297 -15.374 -20.264 -1.792 -0.691 -2.279 -0.757 -5.763 -0.777 -3.338 -0.019 -4.03 0.058 -5.655 0.625 -8.095 2.831 -14.286 11.167 -15.977 21.512 -1.52 9.294 0.702 18.78 5.997 25.598 2.772 3.571 6.369 6.19 10.266 7.477 1.111 0.367 2.688 0.65 4.934 0.885 0.179 0.019 1.256 -0.091 2.392 -0.243 z m -5.393 -11.685 c -5.546 -1.927 -9.427 -7.976 -9.771 -15.229 -0.24 -5.07 1.033 -9.358 3.842 -12.944 5.116 -6.53 13.285 -6.592 18.336 -0.137 4.16 5.316 5.159 12.877 2.576 19.513 -2.199 5.653 -6.251 8.989 -11.221 9.237 -1.692 0.085 -2.529 -0.014 -3.763 -0.443 z m 6.204 -7.03 c 1.532 -0.734 3.359 -2.911 4.127 -4.916 0.542 -1.416 0.608 -1.886 0.608 -4.373 0 -2.646 -0.038 -2.877 -0.745 -4.549 -1.428 -3.376 -3.547 -5.087 -6.541 -5.279 -2.405 -0.155 -3.844 0.498 -5.58 2.53 -2.201 2.578 -3.077 6.162 -2.37 9.703 0.612 3.061 1.908 5.139 4.088 6.555 2.034 1.321 4.128 1.431 6.412 0.335 z" style="fill:#ff4500"/></g></svg>