<svg xmlns="http://www.w3.org/2000/svg" xmlns:xlink="http://www.w3.org/1999/xlink" viewBox="0 0 256 256"><g transform="translate(1.422 -795.76)"><path d="m 190 815.03 c 220.89 193.41 -233.28 379.39 -186.61 80.26 10.232 -65.59 127.09 -132.38 186.61 -80.26 z" style="fill:#fff;color:#000"/><g transform="matrix(4.22688 0 0 4.2281 29.891 822.09)"><path d="m 26.18 10.461 l 0.062 0.062 l 0.157 -0.062 h -0.219 z m 2 2 l 11 11 v -11 h -11 z" style="fill-opacity:0.196"/><g transform="translate(0.257 0.257)" style="fill:#ff4500"><path d="m 26.18 -0.796 l 13 13 h -11 c -0.971 0 -2 -1.029 -2 -2 v -11 z" style="fill-opacity:0.392"/><g transform="matrix(1.24401 0 0 1.182 -0.597 6.07)" style="fill:#ffdead"><path d="M 18.312,18 C 17.996,18.032 18,18.168 18,18.688 V 24 c 0,-1.105 0.895,-2 2,-2 1.105,0 2,0.895 2,2 0,1.105 -0.895,2 -2,2 -1.105,0 -2,-0.895 -2,-2 v 5.25 C 18,30.003 18,30 18.75,30 H 24 c -1.105,0 -2,-0.895 -2,-2 0,-1.105 0.895,-2 2,-2 1.105,0 2,0.895 2,2 0,1.105 -0.895,2 -2,2 h 5.25 C 30.003,30 30,30 30,29.25 V 18.75 C 30,17.997 30,18 29.25,18 h -10.5 c -0.188,0 -0.332,-0.011 -0.438,0 z"/><path d="m 24 18.992 c 0 0.786 -0.672 1.424 -1.5 1.424 -0.828 0 -1.5 -0.637 -1.5 -1.424 0 -0.786 0.672 -1.424 1.5 -1.424 0.828 0 1.5 0.637 1.5 1.424 z" transform="matrix(1.3333 0 0 1.4048 -6 -10.679)" id="0" style="fill:#ffdead"/><use transform="translate(8 8)" xlink:href="#0" width="256" height="256"/></g></g></g><path d="m 84.26 1004.58 c -0.844 -0.525 -1.743 -1.871 -2.143 -3.209 -0.207 -0.689 -0.413 -3.342 -0.589 -7.581 -0.149 -3.586 -0.346 -6.805 -0.437 -7.154 -0.121 -0.463 -0.711 -0.9 -2.181 -1.616 -1.109 -0.54 -2.779 -1.516 -3.711 -2.169 -0.932 -0.653 -1.898 -1.187 -2.146 -1.187 -0.278 0 -1.801 1.725 -3.974 4.5 -1.938 2.477 -3.836 4.729 -4.219 5 -0.788 0.564 -2.561 0.655 -3.476 0.179 -0.728 -0.378 -8.429 -10.958 -8.923 -12.259 -0.49 -1.29 -0.437 -3.702 0.112 -5.164 0.25 -0.665 1.879 -3.363 3.62 -5.996 1.874 -2.832 3.165 -5.03 3.165 -5.389 0 -0.333 -0.383 -1.669 -0.852 -2.968 -0.469 -1.299 -1.167 -3.621 -1.553 -5.16 -0.385 -1.539 -0.858 -2.911 -1.051 -3.05 -0.193 -0.139 -2.455 -0.416 -5.03 -0.613 -2.991 -0.23 -5 -0.523 -5.587 -0.813 -1.11 -0.555 -2.389 -2.451 -2.569 -3.813 -0.073 -0.552 -0.103 -4.641 -0.067 -9.09 l 0.067 -8.08 l 0.666 -1.165 c 1.178 -2.057 1.731 -2.265 7.357 -2.747 3.184 -0.274 5.119 -0.562 5.28 -0.788 0.14 -0.197 0.617 -1.722 1.06 -3.39 0.444 -1.667 1.137 -3.95 1.54 -5.072 0.404 -1.121 0.734 -2.286 0.734 -2.587 0 -0.302 -1.332 -2.584 -2.959 -5.073 -1.628 -2.49 -3.185 -4.94 -3.46 -5.448 -0.774 -1.428 -1.036 -3.195 -0.73 -4.927 0.231 -1.307 0.655 -2.02 4.192 -7.02 2.164 -3.058 4.298 -5.821 4.742 -6.141 1.03 -0.74 2.667 -0.751 3.69 -0.022 0.431 0.307 2.32 2.524 4.198 4.927 1.878 2.404 3.542 4.472 3.698 4.595 0.164 0.13 1.176 -0.366 2.407 -1.178 1.168 -0.771 2.916 -1.775 3.884 -2.229 1.313 -0.618 1.822 -1.01 2 -1.551 0.134 -0.398 0.363 -3.657 0.509 -7.243 0.282 -6.896 0.451 -7.986 1.471 -9.471 1.134 -1.651 1.787 -1.787 8.128 -1.688 l 5.776 0.09 l 0.904 0.834 c 1.555 1.435 1.743 2.328 2.109 10 0.177 3.714 0.371 7.04 0.43 7.395 0.083 0.498 0.559 0.863 2.107 1.616 1.1 0.535 2.861 1.576 3.913 2.313 1.053 0.737 1.998 1.34 2.101 1.34 0.103 0 1.793 -2.054 3.756 -4.566 1.963 -2.512 3.932 -4.831 4.376 -5.154 1.049 -0.764 2.611 -0.758 3.758 0.016 0.545 0.368 2.395 2.715 4.72 5.996 3.99 5.617 4.304 6.26 4.307 8.805 0.002 1.799 -0.572 2.98 -4 8.222 -1.865 2.851 -3.391 5.303 -3.391 5.452 0 0.148 0.487 1.684 1.082 3.412 0.595 1.729 1.305 4.151 1.577 5.381 0.338 1.528 0.633 2.319 0.93 2.495 0.239 0.142 2.644 0.45 5.344 0.685 5.358 0.466 6.221 0.774 7.119 2.536 0.849 1.666 0.948 2.913 0.874 11.05 l -0.07 7.783 l -0.655 1.299 c -1.17 2.321 -1.466 2.439 -7.41 2.98 -2.904 0.265 -5.332 0.552 -5.394 0.639 -0.062 0.087 -0.423 1.381 -0.801 2.875 -0.378 1.495 -1.123 3.925 -1.654 5.399 -0.531 1.474 -0.936 2.863 -0.899 3.085 0.037 0.223 1.486 2.561 3.22 5.197 1.734 2.636 3.374 5.399 3.643 6.139 0.572 1.571 0.625 3.236 0.153 4.81 -0.416 1.388 -7.479 11.396 -8.627 12.225 -0.96 0.692 -2.708 0.767 -3.713 0.159 -0.385 -0.233 -2.315 -2.484 -4.288 -5 -1.974 -2.518 -3.746 -4.578 -3.937 -4.58 -0.192 0 -1.304 0.62 -2.471 1.382 -1.167 0.761 -2.896 1.737 -3.843 2.173 -1.308 0.601 -1.746 0.942 -1.826 1.422 -0.058 0.347 -0.251 3.671 -0.428 7.385 -0.39 8.168 -0.614 9.06 -2.654 10.496 -0.592 0.417 -1.571 0.489 -6.525 0.48 -4.385 -0.015 -5.99 -0.112 -6.481 -0.417 z m 8.591 -36.27 c 5.258 -0.769 9.651 -3.692 13.391 -8.911 2.851 -3.979 4.69 -8.442 5.797 -14.07 0.694 -3.529 0.69 -11.319 -0.008 -14.891 -2.118 -10.837 -7.683 -18.817 -15.374 -22.05 -1.792 -0.752 -2.279 -0.824 -5.763 -0.845 -3.338 -0.021 -4.03 0.063 -5.655 0.68 -8.095 3.08 -14.286 12.148 -15.977 23.403 -1.52 10.111 0.702 20.43 5.997 27.848 2.772 3.885 6.369 6.734 10.266 8.134 1.111 0.399 2.688 0.707 4.934 0.963 0.179 0.021 1.256 -0.099 2.392 -0.265 z m -5.393 -12.712 c -5.546 -2.096 -9.427 -8.677 -9.771 -16.567 -0.24 -5.516 1.033 -10.181 3.842 -14.08 5.116 -7.104 13.285 -7.171 18.336 -0.149 4.16 5.783 5.159 14.01 2.576 21.23 -2.199 6.15 -6.251 9.779 -11.221 10.05 -1.692 0.093 -2.529 -0.015 -3.763 -0.481 z m 6.204 -7.646 c 1.532 -0.798 3.359 -3.167 4.127 -5.348 0.542 -1.54 0.608 -2.051 0.608 -4.758 0 -2.878 -0.038 -3.13 -0.745 -4.949 -1.428 -3.672 -3.547 -5.534 -6.541 -5.743 -2.405 -0.169 -3.844 0.541 -5.58 2.753 -2.201 2.805 -3.077 6.703 -2.37 10.556 0.612 3.33 1.908 5.591 4.088 7.13 2.034 1.437 4.128 1.557 6.412 0.365 z" style="fill:#ff4500"/></g></svg>