<svg xmlns="http://www.w3.org/2000/svg" viewBox="0 0 256 256"><g transform="translate(1.422 -795.76)"><path d="m 190 815.03 c 220.89 193.41 -233.28 379.39 -186.61 80.26 10.232 -65.59 127.09 -132.38 186.61 -80.26 z" style="fill:#fff;color:#000"/><g transform="matrix(4.22688 0 0 4.2281 22.298 822.09)"><path d="M 29,12 29.062,12.062 29.219,12 29,12 z m 2,2 11,11 0,-11 -11,0 z" style="fill-opacity:0.196"/><path d="m 29 1 l 13 13 h -11 c -0.971 0 -2 -1.029 -2 -2 v -11 z" style="fill:#ff4500;fill-opacity:0.392"/></g><path d="m 135.92 1015.15 c -0.654 -0.288 -1.35 -1.024 -1.66 -1.757 -0.16 -0.378 -0.32 -1.83 -0.456 -4.151 -0.115 -1.964 -0.268 -3.727 -0.339 -3.918 -0.094 -0.254 -0.551 -0.493 -1.69 -0.885 -0.859 -0.296 -2.153 -0.83 -2.875 -1.188 -0.722 -0.358 -1.47 -0.65 -1.663 -0.65 -0.215 0 -1.395 0.945 -3.079 2.465 -1.501 1.357 -2.972 2.59 -3.269 2.74 -0.61 0.309 -1.984 0.359 -2.693 0.098 -0.564 -0.207 -6.53 -6 -6.913 -6.714 -0.38 -0.707 -0.339 -2.027 0.087 -2.828 0.194 -0.364 1.456 -1.842 2.804 -3.284 1.452 -1.551 2.452 -2.754 2.452 -2.951 0 -0.183 -0.297 -0.914 -0.66 -1.625 -0.363 -0.712 -0.904 -1.983 -1.203 -2.826 -0.298 -0.843 -0.665 -1.594 -0.814 -1.67 -0.15 -0.076 -1.902 -0.228 -3.897 -0.336 -2.317 -0.126 -3.874 -0.287 -4.328 -0.445 -0.86 -0.304 -1.851 -1.342 -1.99 -2.088 -0.056 -0.302 -0.08 -2.542 -0.052 -4.977 l 0.052 -4.427 l 0.516 -0.638 c 0.913 -1.127 1.341 -1.241 5.7 -1.504 2.467 -0.15 3.966 -0.308 4.091 -0.432 0.108 -0.108 0.478 -0.943 0.821 -1.856 0.344 -0.913 0.881 -2.163 1.193 -2.777 0.313 -0.614 0.569 -1.252 0.569 -1.417 0 -0.165 -1.032 -1.415 -2.292 -2.778 -1.261 -1.363 -2.467 -2.705 -2.681 -2.984 -0.6 -0.782 -0.803 -1.75 -0.566 -2.698 0.179 -0.716 0.507 -1.104 3.248 -3.842 1.676 -1.675 3.33 -3.188 3.674 -3.363 0.798 -0.405 2.066 -0.411 2.859 -0.012 0.334 0.168 1.797 1.382 3.252 2.698 1.455 1.317 2.744 2.449 2.865 2.516 0.127 0.071 0.911 -0.201 1.865 -0.645 0.905 -0.423 2.259 -0.972 3.01 -1.221 1.017 -0.338 1.412 -0.554 1.549 -0.849 0.104 -0.218 0.281 -2 0.394 -3.966 0.218 -3.776 0.349 -4.373 1.14 -5.186 0.879 -0.904 1.384 -0.979 6.297 -0.924 l 4.475 0.049 l 0.7 0.457 c 1.205 0.786 1.35 1.275 1.634 5.476 0.137 2.034 0.287 3.857 0.333 4.05 0.064 0.273 0.433 0.472 1.632 0.885 0.852 0.293 2.216 0.863 3.03 1.267 0.816 0.404 1.548 0.734 1.628 0.734 0.08 0 1.389 -1.125 2.91 -2.501 1.521 -1.376 3.046 -2.646 3.39 -2.822 0.813 -0.418 2.023 -0.415 2.911 0.009 0.422 0.201 1.855 1.487 3.657 3.284 3.091 3.076 3.334 3.428 3.337 4.822 0.002 0.985 -0.443 1.632 -3.099 4.503 -1.445 1.562 -2.627 2.904 -2.627 2.985 0 0.081 0.377 0.922 0.838 1.869 0.461 0.947 1.011 2.273 1.222 2.947 0.262 0.837 0.49 1.27 0.72 1.367 0.185 0.078 2.048 0.246 4.14 0.375 4.151 0.255 4.82 0.424 5.515 1.389 0.658 0.912 0.734 1.595 0.677 6.05 l -0.054 4.262 l -0.507 0.712 c -0.906 1.271 -1.136 1.336 -5.741 1.632 -2.25 0.145 -4.131 0.302 -4.179 0.35 -0.048 0.048 -0.328 0.757 -0.621 1.575 -0.293 0.819 -0.87 2.149 -1.281 2.957 -0.411 0.807 -0.725 1.568 -0.696 1.689 0.029 0.122 1.151 1.403 2.495 2.846 1.343 1.444 2.614 2.957 2.822 3.362 0.443 0.861 0.484 1.772 0.119 2.634 -0.322 0.76 -5.794 6.241 -6.683 6.695 -0.744 0.379 -2.098 0.42 -2.877 0.087 -0.298 -0.128 -1.793 -1.36 -3.322 -2.739 -1.529 -1.379 -2.902 -2.507 -3.05 -2.508 -0.149 0 -1.01 0.34 -1.914 0.757 -0.904 0.417 -2.244 0.952 -2.977 1.19 -1.013 0.329 -1.353 0.516 -1.415 0.779 -0.045 0.19 -0.194 2.01 -0.332 4.044 -0.302 4.473 -0.476 4.962 -2.056 5.748 -0.459 0.229 -1.217 0.268 -5.055 0.263 -3.397 -0.01 -4.641 -0.062 -5.02 -0.228 z m 6.656 -19.865 c 4.073 -0.421 7.477 -2.02 10.374 -4.88 2.209 -2.179 3.633 -4.623 4.491 -7.705 0.538 -1.932 0.535 -6.199 -0.007 -8.155 -1.641 -5.935 -5.952 -10.305 -11.911 -12.07 -1.388 -0.412 -1.766 -0.451 -4.465 -0.463 -2.586 -0.011 -3.122 0.034 -4.381 0.373 -6.271 1.687 -11.07 6.653 -12.378 12.816 -1.178 5.537 0.544 11.188 4.646 15.251 2.148 2.127 4.934 3.688 7.953 4.454 0.861 0.219 2.082 0.387 3.822 0.527 0.139 0.011 0.973 -0.054 1.853 -0.145 z m -4.178 -6.962 c -4.297 -1.148 -7.303 -4.752 -7.57 -9.07 -0.186 -3.02 0.8 -5.575 2.976 -7.712 3.963 -3.89 10.292 -3.927 14.205 -0.082 3.223 3.167 3.997 7.672 1.996 11.625 -1.704 3.368 -4.843 5.355 -8.693 5.503 -1.311 0.051 -1.959 -0.008 -2.915 -0.264 z m 4.806 -4.188 c 1.187 -0.437 2.602 -1.734 3.197 -2.929 0.42 -0.843 0.471 -1.123 0.471 -2.606 0 -1.576 -0.029 -1.714 -0.577 -2.71 -1.106 -2.01 -2.748 -3.03 -5.067 -3.145 -1.863 -0.092 -2.978 0.296 -4.323 1.507 -1.705 1.536 -2.384 3.671 -1.836 5.781 0.474 1.824 1.478 3.062 3.167 3.905 1.576 0.787 3.198 0.852 4.968 0.2 z" style="fill:#ffdead"/><path d="m 85.63 1008.45 c -0.844 -0.525 -1.743 -1.871 -2.143 -3.209 -0.207 -0.689 -0.413 -3.342 -0.589 -7.581 -0.149 -3.586 -0.346 -6.805 -0.437 -7.155 -0.121 -0.464 -0.711 -0.9 -2.181 -1.616 -1.109 -0.54 -2.779 -1.516 -3.711 -2.17 -0.932 -0.653 -1.898 -1.187 -2.146 -1.187 -0.278 0 -1.801 1.725 -3.974 4.501 -1.938 2.478 -3.836 4.729 -4.219 5 -0.788 0.564 -2.561 0.655 -3.476 0.179 -0.728 -0.378 -8.429 -10.958 -8.923 -12.259 -0.49 -1.29 -0.437 -3.702 0.112 -5.164 0.25 -0.665 1.879 -3.363 3.62 -5.996 1.874 -2.832 3.165 -5.03 3.165 -5.389 0 -0.333 -0.383 -1.669 -0.852 -2.968 -0.469 -1.299 -1.167 -3.621 -1.553 -5.16 -0.385 -1.539 -0.858 -2.911 -1.051 -3.05 -0.193 -0.139 -2.455 -0.416 -5.03 -0.613 -2.991 -0.23 -5 -0.523 -5.587 -0.813 -1.11 -0.555 -2.389 -2.451 -2.569 -3.813 -0.073 -0.552 -0.103 -4.641 -0.067 -9.09 l 0.067 -8.08 l 0.666 -1.165 c 1.178 -2.057 1.731 -2.265 7.357 -2.747 3.184 -0.274 5.119 -0.562 5.28 -0.788 0.14 -0.197 0.617 -1.722 1.06 -3.39 0.444 -1.667 1.137 -3.95 1.54 -5.072 0.404 -1.121 0.734 -2.286 0.734 -2.587 0 -0.302 -1.332 -2.584 -2.959 -5.073 -1.628 -2.489 -3.185 -4.94 -3.46 -5.448 -0.774 -1.428 -1.036 -3.195 -0.73 -4.927 0.231 -1.307 0.655 -2.02 4.192 -7.02 2.164 -3.058 4.298 -5.821 4.742 -6.141 1.03 -0.74 2.667 -0.751 3.69 -0.022 0.431 0.307 2.32 2.524 4.198 4.927 1.878 2.404 3.542 4.472 3.698 4.595 0.164 0.13 1.176 -0.366 2.407 -1.178 1.168 -0.772 2.916 -1.775 3.884 -2.229 1.313 -0.618 1.822 -1.01 2 -1.551 0.134 -0.398 0.363 -3.657 0.509 -7.243 0.282 -6.896 0.451 -7.986 1.471 -9.471 1.134 -1.651 1.787 -1.787 8.128 -1.688 l 5.776 0.09 l 0.904 0.834 c 1.555 1.435 1.743 2.328 2.109 10 0.177 3.714 0.371 7.04 0.43 7.395 0.083 0.498 0.559 0.863 2.107 1.616 1.1 0.535 2.861 1.576 3.913 2.313 1.053 0.737 1.998 1.34 2.101 1.34 0.103 0 1.793 -2.054 3.756 -4.566 1.963 -2.512 3.932 -4.831 4.376 -5.154 1.049 -0.764 2.611 -0.758 3.758 0.016 0.545 0.368 2.395 2.715 4.72 5.996 3.99 5.617 4.304 6.26 4.307 8.805 0.002 1.799 -0.572 2.98 -4 8.222 -1.865 2.851 -3.391 5.303 -3.391 5.451 0 0.148 0.487 1.684 1.082 3.412 0.595 1.728 1.305 4.151 1.577 5.381 0.338 1.528 0.633 2.319 0.93 2.495 0.239 0.142 2.644 0.45 5.344 0.685 5.358 0.466 6.221 0.775 7.119 2.536 0.849 1.666 0.948 2.913 0.874 11.05 l -0.07 7.782 l -0.655 1.299 c -1.17 2.321 -1.466 2.439 -7.41 2.98 -2.904 0.265 -5.332 0.552 -5.394 0.638 -0.062 0.087 -0.423 1.382 -0.801 2.875 -0.378 1.495 -1.123 3.925 -1.654 5.399 -0.531 1.474 -0.936 2.863 -0.899 3.085 0.037 0.223 1.486 2.561 3.22 5.197 1.734 2.636 3.374 5.399 3.643 6.139 0.572 1.571 0.625 3.236 0.153 4.81 -0.416 1.388 -7.479 11.396 -8.627 12.225 -0.96 0.692 -2.708 0.767 -3.713 0.159 -0.385 -0.233 -2.315 -2.484 -4.288 -5 -1.974 -2.518 -3.746 -4.578 -3.937 -4.58 -0.192 0 -1.304 0.621 -2.471 1.382 -1.167 0.761 -2.896 1.737 -3.843 2.173 -1.308 0.601 -1.746 0.942 -1.826 1.422 -0.058 0.347 -0.251 3.671 -0.428 7.385 -0.39 8.168 -0.614 9.06 -2.654 10.496 -0.592 0.417 -1.571 0.489 -6.525 0.48 -4.385 -0.015 -5.99 -0.112 -6.481 -0.417 z m 8.591 -36.27 c 5.258 -0.769 9.651 -3.692 13.391 -8.911 2.851 -3.979 4.69 -8.442 5.797 -14.07 0.694 -3.529 0.69 -11.319 -0.008 -14.891 -2.118 -10.837 -7.683 -18.817 -15.374 -22.05 -1.792 -0.752 -2.279 -0.824 -5.763 -0.845 -3.338 -0.021 -4.03 0.063 -5.655 0.68 -8.095 3.08 -14.286 12.148 -15.977 23.403 -1.52 10.11 0.702 20.43 5.997 27.848 2.772 3.885 6.369 6.734 10.266 8.134 1.111 0.399 2.688 0.707 4.934 0.963 0.179 0.021 1.256 -0.099 2.392 -0.265 z m -5.393 -12.712 c -5.546 -2.096 -9.427 -8.677 -9.771 -16.567 -0.24 -5.516 1.033 -10.181 3.842 -14.08 5.116 -7.104 13.285 -7.171 18.336 -0.15 4.16 5.783 5.159 14.01 2.576 21.23 -2.199 6.15 -6.251 9.779 -11.221 10.05 -1.692 0.093 -2.529 -0.015 -3.763 -0.481 z m 6.204 -7.646 c 1.532 -0.798 3.359 -3.167 4.127 -5.348 0.542 -1.54 0.608 -2.051 0.608 -4.758 0 -2.878 -0.038 -3.129 -0.745 -4.949 -1.428 -3.672 -3.547 -5.534 -6.541 -5.743 -2.405 -0.169 -3.844 0.541 -5.58 2.753 -2.201 2.805 -3.077 6.703 -2.37 10.556 0.612 3.33 1.908 5.591 4.088 7.131 2.034 1.437 4.128 1.556 6.412 0.365 z" style="fill:#ff4500"/></g></svg>