<svg xmlns="http://www.w3.org/2000/svg" viewBox="0 0 256 256"><defs><clipPath><rect y="56" x="-202" width="84" rx="10" height="88" style="fill:none;stroke:#000;display:block;color:#000"/></clipPath><clipPath><rect y="56" x="-202" width="84" rx="10" height="88" style="fill:none;stroke:#000;display:block;color:#000"/></clipPath><clipPath><rect y="56" x="-202" width="84" rx="10" height="88" style="fill:none;stroke:#000;display:block;color:#000"/></clipPath></defs><g transform="translate(0 -796.36)"><path d="m 252.75 895.07 c -49.981 -239.91 -393.86 17.642 -187.29 139.59 80.25 52.27 213 -16.2 187.29 -139.59 z" style="fill:#fff;color:#000"/><g transform="matrix(4.65185 0 0 3.68163 16.318 842.72)"><path d="m 29.466 3.259 l 0.062 0.062 l 0.157 -0.062 h -0.219 z m 2 2 l 11 11 v -11 h -11 z" style="fill-opacity:0.196"/><g transform="translate(0.32 1.18)" style="fill:#ff4500"><path d="m 29.15 -8.921 l 13 13 h -11 c -0.971 0 -2 -1.029 -2 -2 v -11 z" style="fill-opacity:0.392"/><path d="m 16.588 11.509 v 22.86 h 3.335 v -11.127 c 0 -0.702 0.048 -1.198 0.164 -1.488 0.115 -0.3 0.304 -0.468 0.573 -0.468 0.261 0 0.445 0.134 0.552 0.413 0.107 0.279 0.164 0.809 0.164 1.542 v 11.127 h 3.355 v -11.623 c 0 -1.786 -0.187 -3.02 -0.532 -3.691 -0.338 -0.672 -0.915 -0.991 -1.76 -0.991 -0.476 0 -0.915 0.162 -1.329 0.524 -0.407 0.361 -0.803 0.943 -1.187 1.708 v -8.786 h -3.335 z m -4.971 18.649 v 4.214 h 2.741 v -4.214 h -2.741 z"/></g></g><g transform="matrix(4.27018 0 0 4.92397 -25.699 810.62)" style="fill:#ff4500"><path d="m 45.619,21.887 v 1.946 H 43.763 V 25.87 H 41.6 V 23.833 H 39.726 V 21.887 H 41.6 V 19.85 h 2.163 v 2.037 h 1.856"/><path d="m 53.26,21.887 v 1.946 h -1.856 v 2.037 h -2.163 v -2.037 h -1.874 v -1.946 h 1.874 V 19.85 h 2.163 v 2.037 h 1.856"/></g></g></svg>