<svg xmlns="http://www.w3.org/2000/svg" viewBox="0 0 256 256"><g transform="matrix(0.9842 0 0 0.9921 3.444 -789.47)"><path d="m 211.17 833.49 c 201.82 266.38 -353.59 304.22 -175.35 32.31 40.634 -61.991 121.89 -102.86 175.35 -32.31 z" style="fill:#fff;color:#000"/><g transform="matrix(4.2861 0 0 3.9454 19.983 847.46)"><path d="m 31.634 5.607 l 0.062 0.062 l 0.157 -0.062 h -0.219 z m 2 2 l 11 11 v -11 h -11 z" style="fill-opacity:0.196"/><g transform="translate(0.257 -6.651)" style="fill:#ff4500"><path d="m 31.395 1.258 l 13 13 h -11 c -0.971 0 -2 -1.029 -2 -2 v -11 z" style="fill-opacity:0.392"/><path d="m 31.05 23.632 v 16.398 h -20 v -16.398 h 20 z m -2 1.64 h -9 v 3.279 h 9 z m -11 0 h -5 v 3.279 h 5 z m 11 4.919 h -9 v 3.279 h 9 z m -11 0 h -5 v 3.279 h 5 z m 11 4.919 h -9 v 3.279 h 9 z m -11 0 h -5 v 3.279 h 5 z"/><path d="m 18.11 23.548 v 16.398 h 20 v -16.398 h -20 z m 2 1.64 h 9 v 3.279 h -9 z m 11 0 h 5 v 3.279 h -5 z m -11 4.919 h 9 v 3.279 h -9 z m 11 0 h 5 v 3.279 h -5 z m -11 4.919 h 9 v 3.279 h -9 z m 11 0 h 5 v 3.279 h -5 z"/></g></g></g></svg>