<svg xmlns="http://www.w3.org/2000/svg" viewBox="0 0 256 256"><g style="fill:#fff"><path d="m -37.25 961.93 c 49.579 239.14 390.69 -17.585 185.78 -139.14 -79.6 -52.1 -211.29 16.15 -185.78 139.14 z" transform="translate(41.33 -804.35)" style="fill:#fff;color:#000"/></g><g style="fill:#ff4500;fill-rule:evenodd"><path d="m 121.25 168.08 c 0 -0.205 -1.077 -0.359 -2.512 -0.359 -1.994 0 -2.512 -0.111 -2.512 -0.538 0 -0.359 -0.359 -0.538 -1.077 -0.538 -0.718 0 -1.077 -0.179 -1.077 -0.538 0 -0.296 -0.242 -0.538 -0.538 -0.538 -0.296 0 -0.538 -0.158 -0.538 -0.352 0 -0.194 -0.404 -0.453 -0.897 -0.577 -0.493 -0.124 -0.897 -0.45 -0.897 -0.725 0 -0.275 -0.242 -0.499 -0.538 -0.499 -0.335 0 -0.538 -0.339 -0.538 -0.897 0 -0.558 -0.203 -0.897 -0.538 -0.897 -0.296 0 -0.538 -0.242 -0.538 -0.538 0 -0.296 -0.242 -0.538 -0.538 -0.538 -0.335 0 -0.538 -0.339 -0.538 -0.897 0 -0.493 -0.161 -0.897 -0.359 -0.897 -0.197 0 -0.359 -0.727 -0.359 -1.615 0 -1.196 -0.14 -1.615 -0.538 -1.615 -0.441 0 -0.538 -0.618 -0.538 -3.409 0 -2.791 -0.098 -3.409 -0.538 -3.409 -0.329 0 -0.538 -0.335 -0.538 -0.859 0 -0.472 0.242 -0.952 0.538 -1.065 0.426 -0.164 0.538 -0.918 0.538 -3.627 0 -2.801 0.097 -3.42 0.538 -3.42 0.389 0 0.538 -0.399 0.538 -1.435 0 -0.789 0.161 -1.435 0.359 -1.435 0.197 0 0.359 -0.484 0.359 -1.077 0 -0.718 0.179 -1.077 0.538 -1.077 0.296 0 0.538 -0.242 0.538 -0.538 0 -0.296 0.242 -0.538 0.538 -0.538 0.296 0 0.538 -0.242 0.538 -0.538 0 -0.296 0.158 -0.538 0.352 -0.538 0.194 0 0.453 -0.404 0.577 -0.897 0.162 -0.644 0.467 -0.897 1.083 -0.897 0.524 0 0.858 -0.21 0.858 -0.538 0 -0.296 0.242 -0.538 0.538 -0.538 0.296 0 0.538 -0.242 0.538 -0.538 0 -0.355 0.356 -0.538 1.047 -0.538 0.576 0 1.103 -0.169 1.172 -0.376 0.171 -0.514 10.463 -0.514 10.635 0 0.069 0.207 0.596 0.376 1.172 0.376 0.691 0 1.047 0.183 1.047 0.538 0 0.296 0.161 0.538 0.359 0.538 0.197 0 0.359 0.242 0.359 0.538 0 0.296 0.161 0.538 0.359 0.538 0.465 0 1.794 1.329 1.794 1.794 0 0.197 0.242 0.359 0.538 0.359 0.296 0 0.538 0.161 0.538 0.359 0 0.197 0.242 0.359 0.538 0.359 0.467 0 0.538 -1.455 0.538 -10.945 v -10.945 h 3.409 h 3.409 v 27.991 v 27.991 h -3.409 h -3.409 v -3.05 c 0 -2.472 -0.102 -3.05 -0.538 -3.05 -0.296 0 -0.538 0.242 -0.538 0.538 0 0.296 -0.183 0.538 -0.407 0.538 -0.224 0 -0.782 0.404 -1.239 0.897 -0.457 0.493 -1 0.897 -1.207 0.897 -0.207 0 -0.376 0.242 -0.376 0.538 0 0.296 -0.161 0.538 -0.359 0.538 -0.197 0 -0.359 0.242 -0.359 0.538 0 0.359 -0.359 0.538 -1.077 0.538 -0.718 0 -1.077 0.179 -1.077 0.538 0 0.427 -0.518 0.538 -2.512 0.538 -1.435 0 -2.512 0.154 -2.512 0.359 0 0.197 -0.161 0.359 -0.359 0.359 -0.197 0 -0.359 -0.161 -0.359 -0.359 z m 6.818 -5.921 c 0 -0.296 0.242 -0.538 0.538 -0.538 0.296 0 0.538 -0.161 0.538 -0.359 0 -0.197 0.242 -0.359 0.538 -0.359 0.296 0 0.538 -0.242 0.538 -0.538 0 -0.296 0.242 -0.538 0.538 -0.538 0.296 0 0.538 -0.242 0.538 -0.538 0 -0.296 0.161 -0.538 0.359 -0.538 0.197 0 0.359 -0.242 0.359 -0.538 0 -0.296 0.242 -0.538 0.538 -0.538 0.389 0 0.538 -0.399 0.538 -1.435 0 -1.037 0.15 -1.435 0.538 -1.435 0.461 0 0.538 -1.037 0.538 -7.177 0 -6.14 -0.078 -7.177 -0.538 -7.177 -0.389 0 -0.538 -0.399 -0.538 -1.435 0 -1.037 -0.15 -1.435 -0.538 -1.435 -0.296 0 -0.538 -0.242 -0.538 -0.538 0 -0.296 -0.161 -0.538 -0.359 -0.538 -0.197 0 -0.359 -0.242 -0.359 -0.538 0 -0.296 -0.242 -0.538 -0.538 -0.538 -0.296 0 -0.538 -0.161 -0.538 -0.359 0 -0.197 -0.242 -0.359 -0.538 -0.359 -0.296 0 -0.538 -0.242 -0.538 -0.538 0 -0.296 -0.242 -0.538 -0.538 -0.538 -0.296 0 -0.538 -0.242 -0.538 -0.538 0 -0.453 -0.797 -0.538 -5.02 -0.538 -4.227 0 -5.02 0.085 -5.02 0.538 0 0.296 -0.242 0.538 -0.538 0.538 -0.296 0 -0.538 0.242 -0.538 0.538 0 0.296 -0.242 0.538 -0.538 0.538 -0.296 0 -0.538 0.161 -0.538 0.359 0 0.197 -0.242 0.359 -0.538 0.359 -0.296 0 -0.538 0.242 -0.538 0.538 0 0.296 -0.161 0.538 -0.359 0.538 -0.197 0 -0.359 0.242 -0.359 0.538 0 0.296 -0.242 0.538 -0.538 0.538 -0.389 0 -0.538 0.399 -0.538 1.435 0 1.037 -0.15 1.435 -0.538 1.435 -0.461 0 -0.538 1.037 -0.538 7.177 0 6.14 0.078 7.177 0.538 7.177 0.389 0 0.538 0.399 0.538 1.435 0 1.037 0.15 1.435 0.538 1.435 0.296 0 0.538 0.242 0.538 0.538 0 0.296 0.144 0.538 0.32 0.538 0.176 0 0.421 0.401 0.544 0.892 0.138 0.55 0.565 0.977 1.115 1.115 0.49 0.123 0.892 0.368 0.892 0.544 0 0.176 0.242 0.32 0.538 0.32 0.296 0 0.538 0.242 0.538 0.538 0 0.453 0.797 0.538 5.02 0.538 4.227 0 5.02 -0.085 5.02 -0.538 z"/><path d="m 165.03 168.08 c 0 -0.205 -1.077 -0.359 -2.512 -0.359 -1.994 0 -2.512 -0.111 -2.512 -0.538 0 -0.335 -0.339 -0.538 -0.897 -0.538 -0.558 0 -0.897 -0.203 -0.897 -0.538 0 -0.296 -0.242 -0.538 -0.538 -0.538 -0.296 0 -0.538 -0.161 -0.538 -0.359 0 -0.197 -0.242 -0.359 -0.538 -0.359 -0.296 0 -0.538 -0.242 -0.538 -0.538 0 -0.296 -0.242 -0.538 -0.538 -0.538 -0.296 0 -0.538 -0.242 -0.538 -0.538 0 -0.296 -0.161 -0.538 -0.359 -0.538 -0.197 0 -0.359 -0.484 -0.359 -1.077 0 -0.69 -0.183 -1.077 -0.509 -1.077 -0.581 0 -0.836 -3.279 -0.619 -7.985 0.095 -2.078 0.254 -2.781 0.628 -2.781 0.275 0 0.5 -0.242 0.5 -0.538 0 -0.296 0.161 -0.538 0.359 -0.538 0.197 0 0.359 -0.404 0.359 -0.897 0 -0.558 0.203 -0.897 0.538 -0.897 0.296 0 0.538 -0.242 0.538 -0.538 0 -0.337 0.34 -0.538 0.908 -0.538 0.5 0 1 -0.242 1.115 -0.538 0.114 -0.296 0.432 -0.538 0.706 -0.538 0.275 0 0.5 -0.242 0.5 -0.538 0 -0.389 0.399 -0.538 1.435 -0.538 1.037 0 1.435 -0.15 1.435 -0.538 0 -0.446 0.678 -0.538 3.947 -0.538 2.392 0 3.947 -0.141 3.947 -0.359 0 -0.22 1.734 -0.359 4.486 -0.359 h 4.486 v -2.691 c 0 -1.555 -0.152 -2.691 -0.359 -2.691 -0.197 0 -0.359 -0.242 -0.359 -0.538 0 -0.296 -0.242 -0.538 -0.538 -0.538 -0.296 0 -0.538 -0.161 -0.538 -0.359 0 -0.197 -0.242 -0.359 -0.538 -0.359 -0.296 0 -0.538 -0.242 -0.538 -0.538 0 -0.359 -0.359 -0.538 -1.077 -0.538 -0.718 0 -1.077 -0.179 -1.077 -0.538 0 -0.46 -1.017 -0.538 -6.998 -0.538 -5.981 0 -6.998 0.078 -6.998 0.538 0 0.389 -0.399 0.538 -1.435 0.538 -1.037 0 -1.435 0.15 -1.435 0.538 0 0.359 -0.359 0.538 -1.077 0.538 h -1.077 v -2.512 v -2.512 h 1.615 c 1.196 0 1.615 -0.14 1.615 -0.538 0 -0.389 0.399 -0.538 1.435 -0.538 0.789 0 1.435 -0.161 1.435 -0.359 0 -0.215 1.435 -0.359 3.589 -0.359 2.951 0 3.589 -0.096 3.589 -0.538 0 -0.651 0.598 -0.717 0.807 -0.09 0.101 0.302 1.221 0.489 3.439 0.574 1.809 0.069 3.29 0.271 3.29 0.449 0 0.178 0.484 0.323 1.077 0.323 0.718 0 1.077 0.179 1.077 0.538 0 0.359 0.359 0.538 1.077 0.538 0.718 0 1.077 0.179 1.077 0.538 0 0.296 0.161 0.538 0.359 0.538 0.197 0 0.359 0.242 0.359 0.538 0 0.296 0.242 0.538 0.538 0.538 0.296 0 0.538 0.242 0.538 0.538 0 0.296 0.242 0.538 0.538 0.538 0.335 0 0.538 0.339 0.538 0.897 0 0.558 0.203 0.897 0.538 0.897 0.359 0 0.538 0.359 0.538 1.077 0 0.718 0.179 1.077 0.538 1.077 0.441 0 0.538 0.618 0.538 3.409 0 2.034 0.145 3.409 0.359 3.409 0.232 0 0.359 4.246 0.359 12.02 v 12.02 h -3.409 h -3.409 v -3.05 c 0 -2.472 -0.102 -3.05 -0.538 -3.05 -0.296 0 -0.538 0.242 -0.538 0.538 0 0.296 -0.242 0.538 -0.538 0.538 -0.296 0 -0.538 0.161 -0.538 0.359 0 0.197 -0.242 0.359 -0.538 0.359 -0.296 0 -0.538 0.242 -0.538 0.538 0 0.296 -0.161 0.538 -0.359 0.538 -0.197 0 -0.359 0.242 -0.359 0.538 0 0.296 -0.242 0.538 -0.538 0.538 -0.296 0 -0.538 0.242 -0.538 0.538 0 0.359 -0.359 0.538 -1.077 0.538 -0.718 0 -1.077 0.179 -1.077 0.538 0 0.434 -0.558 0.538 -2.871 0.538 -1.675 0 -2.871 0.15 -2.871 0.359 0 0.197 -0.242 0.359 -0.538 0.359 -0.296 0 -0.538 -0.161 -0.538 -0.359 z m 7.177 -5.921 c 0 -0.335 0.339 -0.538 0.897 -0.538 0.493 0 0.897 -0.161 0.897 -0.359 0 -0.197 0.242 -0.359 0.538 -0.359 0.296 0 0.538 -0.242 0.538 -0.538 0 -0.296 0.242 -0.538 0.538 -0.538 0.296 0 0.538 -0.242 0.538 -0.538 0 -0.296 0.242 -0.538 0.538 -0.538 0.296 0 0.538 -0.242 0.538 -0.538 0 -0.296 0.16 -0.538 0.355 -0.538 0.195 0 0.458 -0.646 0.584 -1.435 0.126 -0.789 0.37 -1.435 0.543 -1.435 0.172 0 0.313 -1.857 0.313 -4.127 v -4.127 h -7.536 c -6.459 0 -7.536 0.077 -7.536 0.538 0 0.389 -0.399 0.538 -1.435 0.538 -1.037 0 -1.435 0.15 -1.435 0.538 0 0.296 -0.242 0.538 -0.538 0.538 -0.335 0 -0.538 0.339 -0.538 0.897 0 0.558 -0.203 0.897 -0.538 0.897 -0.447 0 -0.538 0.698 -0.538 4.127 0 3.429 0.091 4.127 0.538 4.127 0.359 0 0.538 0.359 0.538 1.077 0 0.718 0.179 1.077 0.538 1.077 0.296 0 0.538 0.161 0.538 0.359 0 0.197 0.404 0.359 0.897 0.359 0.558 0 0.897 0.203 0.897 0.538 0 0.451 0.758 0.538 4.665 0.538 3.908 0 4.665 -0.087 4.665 -0.538 z"/><path d="m 53.07 166.29 c 0 -1.037 0.15 -1.435 0.538 -1.435 0.359 0 0.538 -0.359 0.538 -1.077 0 -0.718 0.179 -1.077 0.538 -1.077 0.389 0 0.538 -0.399 0.538 -1.435 0 -1.037 0.15 -1.435 0.538 -1.435 0.359 0 0.538 -0.359 0.538 -1.077 0 -0.592 0.161 -1.077 0.359 -1.077 0.197 0 0.359 -0.646 0.359 -1.435 0 -1.037 0.15 -1.435 0.538 -1.435 0.389 0 0.538 -0.399 0.538 -1.435 0 -1.037 0.15 -1.435 0.538 -1.435 0.354 0 0.538 -0.355 0.538 -1.038 0 -0.592 0.231 -1.127 0.538 -1.245 0.338 -0.13 0.538 -0.678 0.538 -1.474 0 -0.887 0.161 -1.267 0.538 -1.267 0.399 0 0.538 -0.419 0.538 -1.615 0 -0.888 0.161 -1.615 0.359 -1.615 0.197 0 0.359 -0.404 0.359 -0.897 0 -0.558 0.203 -0.897 0.538 -0.897 0.399 0 0.538 -0.419 0.538 -1.615 0 -1.196 0.14 -1.615 0.538 -1.615 0.389 0 0.538 -0.399 0.538 -1.435 0 -1.037 0.15 -1.435 0.538 -1.435 0.359 0 0.538 -0.359 0.538 -1.077 0 -0.592 0.161 -1.077 0.359 -1.077 0.197 0 0.359 -0.646 0.359 -1.435 0 -1.037 0.15 -1.435 0.538 -1.435 0.389 0 0.538 -0.399 0.538 -1.435 0 -1.037 0.15 -1.435 0.538 -1.435 0.359 0 0.538 -0.359 0.538 -1.077 0 -0.718 0.179 -1.077 0.538 -1.077 0.389 0 0.538 -0.399 0.538 -1.435 0 -1.037 0.15 -1.435 0.538 -1.435 0.359 0 0.538 -0.359 0.538 -1.077 0 -0.592 0.161 -1.077 0.359 -1.077 0.197 0 0.359 -0.646 0.359 -1.435 0 -1.037 0.15 -1.435 0.538 -1.435 0.399 0 0.538 -0.419 0.538 -1.615 0 -1.196 0.14 -1.615 0.538 -1.615 0.296 0 0.538 -0.161 0.538 -0.359 0 -0.214 1.376 -0.359 3.409 -0.359 2.034 0 3.409 0.145 3.409 0.359 0 0.197 0.242 0.359 0.538 0.359 0.399 0 0.538 0.419 0.538 1.615 0 1.196 0.14 1.615 0.538 1.615 0.389 0 0.538 0.399 0.538 1.435 0 0.789 0.161 1.435 0.359 1.435 0.197 0 0.359 0.484 0.359 1.077 0 0.718 0.179 1.077 0.538 1.077 0.389 0 0.538 0.399 0.538 1.435 0 1.037 0.15 1.435 0.538 1.435 0.359 0 0.538 0.359 0.538 1.077 0 0.718 0.179 1.077 0.538 1.077 0.389 0 0.538 0.399 0.538 1.435 0 0.789 0.161 1.435 0.359 1.435 0.197 0 0.359 0.646 0.359 1.435 0 1.037 0.15 1.435 0.538 1.435 0.359 0 0.538 0.359 0.538 1.077 0 0.718 0.179 1.077 0.538 1.077 0.389 0 0.538 0.399 0.538 1.435 0 1.037 0.15 1.435 0.538 1.435 0.399 0 0.538 0.419 0.538 1.615 0 1.196 0.14 1.615 0.538 1.615 0.335 0 0.538 0.339 0.538 0.897 0 0.493 0.161 0.897 0.359 0.897 0.197 0 0.359 0.727 0.359 1.615 0 1.196 0.14 1.615 0.538 1.615 0.377 0 0.538 0.38 0.538 1.267 0 0.795 0.2 1.344 0.538 1.474 0.307 0.118 0.538 0.653 0.538 1.245 0 0.684 0.184 1.038 0.538 1.038 0.389 0 0.538 0.399 0.538 1.435 0 1.037 0.15 1.435 0.538 1.435 0.389 0 0.538 0.399 0.538 1.435 0 0.789 0.161 1.435 0.359 1.435 0.197 0 0.359 0.484 0.359 1.077 0 0.718 0.179 1.077 0.538 1.077 0.389 0 0.538 0.399 0.538 1.435 0 1.037 0.15 1.435 0.538 1.435 0.389 0 0.538 0.399 0.538 1.435 0 1.037 0.15 1.435 0.538 1.435 0.359 0 0.538 0.359 0.538 1.077 v 1.077 h -3.05 c -3.01 0 -3.05 -0.011 -3.05 -0.897 0 -0.493 -0.161 -0.897 -0.359 -0.897 -0.197 0 -0.359 -0.565 -0.359 -1.256 0 -0.877 -0.162 -1.256 -0.538 -1.256 -0.389 0 -0.538 -0.399 -0.538 -1.435 0 -1.037 -0.15 -1.435 -0.538 -1.435 -0.389 0 -0.538 -0.399 -0.538 -1.435 0 -1.037 -0.15 -1.435 -0.538 -1.435 -0.39 0 -0.538 -0.402 -0.538 -1.461 0 -2.565 0.423 -2.486 -13.457 -2.486 -13.88 0 -13.457 -0.078 -13.457 2.486 0 1.059 -0.148 1.461 -0.538 1.461 -0.389 0 -0.538 0.399 -0.538 1.435 0 1.037 -0.15 1.435 -0.538 1.435 -0.389 0 -0.538 0.399 -0.538 1.435 0 1.037 -0.15 1.435 -0.538 1.435 -0.399 0 -0.538 0.419 -0.538 1.615 0 1.196 -0.14 1.615 -0.538 1.615 -0.296 0 -0.538 0.242 -0.538 0.538 0 0.434 -0.558 0.538 -2.871 0.538 h -2.871 v -1.435 z m 34.09 -19.2 c 0 -0.296 -0.242 -0.538 -0.538 -0.538 -0.389 0 -0.538 -0.399 -0.538 -1.435 0 -1.037 -0.15 -1.435 -0.538 -1.435 -0.389 0 -0.538 -0.399 -0.538 -1.435 0 -0.789 -0.161 -1.435 -0.359 -1.435 -0.197 0 -0.359 -0.484 -0.359 -1.077 0 -0.718 -0.179 -1.077 -0.538 -1.077 -0.399 0 -0.538 -0.419 -0.538 -1.615 0 -1.196 -0.14 -1.615 -0.538 -1.615 -0.389 0 -0.538 -0.399 -0.538 -1.435 0 -1.037 -0.15 -1.435 -0.538 -1.435 -0.335 0 -0.538 -0.339 -0.538 -0.897 0 -0.558 -0.203 -0.897 -0.538 -0.897 -0.399 0 -0.538 -0.419 -0.538 -1.615 0 -0.888 -0.161 -1.615 -0.359 -1.615 -0.197 0 -0.359 -0.646 -0.359 -1.435 0 -1.037 -0.15 -1.435 -0.538 -1.435 -0.383 0 -0.538 -0.39 -0.538 -1.356 0 -0.914 -0.235 -1.557 -0.722 -1.974 -0.888 -0.76 -0.898 -0.76 -1.786 0 -0.487 0.417 -0.722 1.06 -0.722 1.974 0 0.966 -0.155 1.356 -0.538 1.356 -0.389 0 -0.538 0.399 -0.538 1.435 0 1.037 -0.15 1.435 -0.538 1.435 -0.399 0 -0.538 0.419 -0.538 1.615 0 0.888 -0.161 1.615 -0.359 1.615 -0.197 0 -0.359 0.404 -0.359 0.897 0 0.558 -0.203 0.897 -0.538 0.897 -0.389 0 -0.538 0.399 -0.538 1.435 0 1.037 -0.15 1.435 -0.538 1.435 -0.399 0 -0.538 0.419 -0.538 1.615 0 1.196 -0.14 1.615 -0.538 1.615 -0.359 0 -0.538 0.359 -0.538 1.077 0 0.592 -0.161 1.077 -0.359 1.077 -0.197 0 -0.359 0.646 -0.359 1.435 0 1.037 -0.15 1.435 -0.538 1.435 -0.389 0 -0.538 0.399 -0.538 1.435 0 1.037 -0.15 1.435 -0.538 1.435 -0.296 0 -0.538 0.242 -0.538 0.538 0 0.466 1.415 0.538 10.586 0.538 9.171 0 10.586 -0.072 10.586 -0.538 z"/></g><g transform="matrix(4.23886 0 0 4.043 27.873 24.01)"><path d="M 29,12 29.062,12.062 29.219,12 29,12 z m 2,2 11,11 0,-11 -11,0 z" style="fill-opacity:0.196"/><path d="M 29,1 42,14 H 31 c -0.971,0 -2,-1.029 -2,-2 V 1 z" style="fill:#ff4500;fill-opacity:0.392"/></g></svg>