<svg xmlns="http://www.w3.org/2000/svg" viewBox="0 0 256 256"><g transform="translate(0 -796.36)"><path d="m 3.25 953.66 c 49.981 239.91 393.86 -17.642 187.29 -139.59 -80.25 -52.27 -213 16.2 -187.29 139.59 z" style="fill:#fff;color:#000"/><g transform="matrix(4.23886 0 0 4.043 31.702 827.33)"><path d="M 29,12 29.062,12.062 29.219,12 29,12 z m 2,2 11,11 0,-11 -11,0 z" style="fill-opacity:0.196"/><path d="m 29 1 l 13 13 h -11 c -0.971 0 -2 -1.029 -2 -2 v -11 z" style="fill:#ff4500;fill-opacity:0.392"/></g><g transform="translate(0 796.36)" style="fill:#ff4500;fill-rule:evenodd"><path d="m 142.44 169.21 c 0 -0.198 0.242 -0.359 0.539 -0.359 0.296 0 0.539 -0.242 0.539 -0.539 0 -0.296 0.144 -0.539 0.32 -0.539 0.176 0 0.422 -0.404 0.546 -0.898 0.124 -0.494 0.384 -0.898 0.578 -0.898 0.194 0 0.352 -0.242 0.352 -0.539 0 -0.296 0.242 -0.539 0.539 -0.539 0.359 0 0.539 -0.359 0.539 -1.078 0 -0.718 0.18 -1.078 0.539 -1.078 0.296 0 0.539 -0.242 0.539 -0.539 0 -0.296 0.242 -0.539 0.539 -0.539 0.296 0 0.539 -0.162 0.539 -0.359 0 -0.198 0.242 -0.359 0.539 -0.359 0.359 0 0.539 -0.359 0.539 -1.078 0 -0.593 0.162 -1.078 0.359 -1.078 0.198 0 0.359 -0.242 0.359 -0.539 0 -0.296 0.16 -0.539 0.355 -0.539 0.702 0 1.8 -1.254 1.8 -2.055 0 -0.488 0.218 -0.818 0.539 -0.818 0.296 0 0.539 -0.242 0.539 -0.539 0 -0.296 0.162 -0.539 0.359 -0.539 0.198 0 0.359 -0.404 0.359 -0.898 0 -0.559 0.204 -0.898 0.539 -0.898 0.296 0 0.539 -0.242 0.539 -0.539 0 -0.296 0.242 -0.539 0.539 -0.539 0.296 0 0.539 -0.242 0.539 -0.539 0 -0.296 0.242 -0.539 0.539 -0.539 0.359 0 0.539 -0.359 0.539 -1.078 0 -0.718 -0.18 -1.078 -0.539 -1.078 -0.296 0 -0.539 -0.242 -0.539 -0.539 0 -0.296 -0.242 -0.539 -0.539 -0.539 -0.296 0 -0.539 -0.242 -0.539 -0.539 0 -0.296 -0.242 -0.539 -0.539 -0.539 -0.335 0 -0.539 -0.339 -0.539 -0.898 0 -0.494 -0.162 -0.898 -0.359 -0.898 -0.198 0 -0.359 -0.242 -0.359 -0.539 0 -0.296 -0.242 -0.539 -0.539 -0.539 -0.296 0 -0.539 -0.242 -0.539 -0.539 0 -0.296 -0.242 -0.539 -0.539 -0.539 -0.335 0 -0.539 -0.339 -0.539 -0.898 0 -0.559 -0.204 -0.898 -0.539 -0.898 -0.296 0 -0.539 -0.242 -0.539 -0.539 0 -0.296 -0.162 -0.539 -0.359 -0.539 -0.198 0 -0.359 -0.242 -0.359 -0.539 0 -0.296 -0.242 -0.539 -0.539 -0.539 -0.335 0 -0.539 -0.339 -0.539 -0.898 0 -0.559 -0.204 -0.898 -0.539 -0.898 -0.296 0 -0.539 -0.242 -0.539 -0.539 0 -0.296 -0.242 -0.539 -0.539 -0.539 -0.296 0 -0.539 -0.242 -0.539 -0.539 0 -0.296 -0.242 -0.539 -0.539 -0.539 -0.339 0 -0.539 -0.342 -0.539 -0.924 0 -0.947 -0.726 -1.95 -1.411 -1.95 -0.212 0 -0.385 -0.242 -0.385 -0.539 0 -0.441 0.619 -0.539 3.412 -0.539 h 3.412 v 1.078 c 0 0.718 0.18 1.078 0.539 1.078 0.296 0 0.539 0.242 0.539 0.539 0 0.296 0.162 0.539 0.359 0.539 0.198 0 0.359 0.242 0.359 0.539 0 0.296 0.242 0.539 0.539 0.539 0.335 0 0.539 0.339 0.539 0.898 0 0.559 0.204 0.898 0.539 0.898 0.296 0 0.539 0.242 0.539 0.539 0 0.296 0.242 0.539 0.539 0.539 0.296 0 0.539 0.242 0.539 0.539 0 0.296 0.242 0.539 0.539 0.539 0.335 0 0.539 0.339 0.539 0.898 0 0.494 0.162 0.898 0.359 0.898 0.198 0 0.359 0.242 0.359 0.539 0 0.296 0.242 0.539 0.539 0.539 0.296 0 0.539 0.242 0.539 0.539 0 0.296 0.242 0.539 0.539 0.539 0.335 0 0.539 0.339 0.539 0.898 0 0.559 0.204 0.898 0.539 0.898 0.296 0 0.539 0.242 0.539 0.539 0 0.296 0.242 0.539 0.539 0.539 0.296 0 0.539 -0.242 0.539 -0.539 0 -0.296 0.242 -0.539 0.539 -0.539 0.335 0 0.539 -0.339 0.539 -0.898 0 -0.559 0.204 -0.898 0.539 -0.898 0.296 0 0.539 -0.242 0.539 -0.539 0 -0.296 0.162 -0.539 0.359 -0.539 0.198 0 0.359 -0.242 0.359 -0.539 0 -0.296 0.242 -0.539 0.539 -0.539 0.335 0 0.539 -0.339 0.539 -0.898 0 -0.559 0.204 -0.898 0.539 -0.898 0.296 0 0.539 -0.242 0.539 -0.539 0 -0.296 0.242 -0.539 0.539 -0.539 0.296 0 0.539 -0.242 0.539 -0.539 0 -0.296 0.162 -0.539 0.359 -0.539 0.198 0 0.359 -0.404 0.359 -0.898 0 -0.559 0.204 -0.898 0.539 -0.898 0.296 0 0.539 -0.242 0.539 -0.539 0 -0.296 0.242 -0.539 0.539 -0.539 0.296 0 0.539 -0.242 0.539 -0.539 0 -0.296 0.242 -0.539 0.539 -0.539 0.359 0 0.539 -0.359 0.539 -1.078 v -1.078 h 3.412 c 2.794 0 3.412 0.098 3.412 0.539 0 0.296 -0.16 0.539 -0.355 0.539 -0.702 0 -1.8 1.254 -1.8 2.055 0 0.488 -0.218 0.818 -0.539 0.818 -0.296 0 -0.539 0.242 -0.539 0.539 0 0.296 -0.162 0.539 -0.359 0.539 -0.198 0 -0.359 0.242 -0.359 0.539 0 0.296 -0.242 0.539 -0.539 0.539 -0.335 0 -0.539 0.339 -0.539 0.898 0 0.559 -0.204 0.898 -0.539 0.898 -0.296 0 -0.539 0.242 -0.539 0.539 0 0.296 -0.242 0.539 -0.539 0.539 -0.296 0 -0.539 0.242 -0.539 0.539 0 0.296 -0.162 0.539 -0.359 0.539 -0.198 0 -0.359 0.404 -0.359 0.898 0 0.559 -0.204 0.898 -0.539 0.898 -0.296 0 -0.539 0.242 -0.539 0.539 0 0.296 -0.242 0.539 -0.539 0.539 -0.296 0 -0.539 0.242 -0.539 0.539 0 0.296 -0.242 0.539 -0.539 0.539 -0.335 0 -0.539 0.339 -0.539 0.898 0 0.559 -0.204 0.898 -0.539 0.898 -0.296 0 -0.539 0.242 -0.539 0.539 0 0.296 -0.162 0.539 -0.359 0.539 -0.198 0 -0.359 0.242 -0.359 0.539 0 0.296 -0.242 0.539 -0.539 0.539 -0.359 0 -0.539 0.359 -0.539 1.078 0 0.718 0.18 1.078 0.539 1.078 0.339 0 0.539 0.342 0.539 0.924 0 0.947 0.726 1.95 1.411 1.95 0.212 0 0.385 0.242 0.385 0.539 0 0.296 0.242 0.539 0.539 0.539 0.359 0 0.539 0.359 0.539 1.078 0 0.718 0.18 1.078 0.539 1.078 0.296 0 0.539 0.242 0.539 0.539 0 0.296 0.173 0.539 0.385 0.539 0.685 0 1.411 1 1.411 1.95 0 0.582 0.2 0.924 0.539 0.924 0.296 0 0.539 0.242 0.539 0.539 0 0.296 0.242 0.539 0.539 0.539 0.296 0 0.539 0.162 0.539 0.359 0 0.198 0.242 0.359 0.539 0.359 0.359 0 0.539 0.359 0.539 1.078 0 0.593 0.162 1.078 0.359 1.078 0.198 0 0.359 0.242 0.359 0.539 0 0.296 0.242 0.539 0.539 0.539 0.296 0 0.539 0.242 0.539 0.539 0 0.296 0.242 0.539 0.539 0.539 0.335 0 0.539 0.339 0.539 0.898 0 0.559 0.204 0.898 0.539 0.898 0.296 0 0.539 0.242 0.539 0.539 0 0.296 0.242 0.539 0.539 0.539 0.296 0 0.539 0.162 0.539 0.359 0 0.214 -1.377 0.359 -3.412 0.359 -3.4 0 -3.412 -0.003 -3.412 -0.898 0 -0.559 -0.204 -0.898 -0.539 -0.898 -0.296 0 -0.539 -0.242 -0.539 -0.539 0 -0.296 -0.242 -0.539 -0.539 -0.539 -0.296 0 -0.539 -0.242 -0.539 -0.539 0 -0.296 -0.242 -0.539 -0.539 -0.539 -0.335 0 -0.539 -0.339 -0.539 -0.898 0 -0.559 -0.204 -0.898 -0.539 -0.898 -0.296 0 -0.539 -0.242 -0.539 -0.539 0 -0.296 -0.162 -0.539 -0.359 -0.539 -0.198 0 -0.359 -0.242 -0.359 -0.539 0 -0.296 -0.242 -0.539 -0.539 -0.539 -0.359 0 -0.539 -0.359 -0.539 -1.078 0 -0.718 -0.18 -1.078 -0.539 -1.078 -0.296 0 -0.539 -0.162 -0.539 -0.359 0 -0.198 -0.242 -0.359 -0.539 -0.359 -0.296 0 -0.539 -0.242 -0.539 -0.539 0 -0.296 -0.162 -0.539 -0.359 -0.539 -0.198 0 -0.359 -0.409 -0.359 -0.909 0 -0.5 -0.242 -1 -0.539 -1.116 -0.296 -0.114 -0.539 -0.432 -0.539 -0.707 0 -0.275 -0.242 -0.5 -0.539 -0.5 -0.296 0 -0.539 -0.162 -0.539 -0.359 0 -0.198 -0.485 -0.359 -1.078 -0.359 -0.91 0 -1.078 0.14 -1.078 0.898 0 0.559 -0.204 0.898 -0.539 0.898 -0.296 0 -0.539 0.242 -0.539 0.539 0 0.296 -0.242 0.539 -0.539 0.539 -0.296 0 -0.539 0.242 -0.539 0.539 0 0.296 -0.162 0.539 -0.359 0.539 -0.198 0 -0.359 0.404 -0.359 0.898 0 0.559 -0.204 0.898 -0.539 0.898 -0.296 0 -0.539 0.242 -0.539 0.539 0 0.296 -0.242 0.539 -0.539 0.539 -0.359 0 -0.539 0.359 -0.539 1.078 0 0.718 -0.18 1.078 -0.539 1.078 -0.296 0 -0.539 0.242 -0.539 0.539 0 0.296 -0.173 0.539 -0.385 0.539 -0.685 0 -1.411 1 -1.411 1.95 0 0.582 -0.2 0.924 -0.539 0.924 -0.296 0 -0.539 0.242 -0.539 0.539 0 0.296 -0.242 0.539 -0.539 0.539 -0.296 0 -0.539 0.162 -0.539 0.359 0 0.198 -0.242 0.359 -0.539 0.359 -0.296 0 -0.539 0.242 -0.539 0.539 0 0.434 -0.559 0.539 -2.873 0.539 -1.676 0 -2.873 -0.15 -2.873 -0.359 z"/><path d="m 54.44 141.73 v -27.836 h 3.412 h 3.412 v 10.955 c 0 9.498 0.072 10.955 0.539 10.955 0.296 0 0.539 -0.242 0.539 -0.539 0 -0.296 0.242 -0.539 0.539 -0.539 0.296 0 0.539 -0.162 0.539 -0.359 0 -0.198 0.242 -0.359 0.539 -0.359 0.296 0 0.539 -0.242 0.539 -0.539 0 -0.296 0.242 -0.539 0.539 -0.539 0.296 0 0.539 -0.242 0.539 -0.539 0 -0.296 0.162 -0.539 0.359 -0.539 0.198 0 0.359 -0.242 0.359 -0.539 0 -0.359 0.359 -0.539 1.078 -0.539 0.718 0 1.078 -0.18 1.078 -0.539 0 -0.436 0.575 -0.539 3.02 -0.539 2.067 0 3.089 -0.142 3.233 -0.449 0.168 -0.359 0.251 -0.359 0.419 0 0.138 0.296 1.058 0.449 2.694 0.449 1.969 0 2.484 0.112 2.484 0.539 0 0.359 0.359 0.539 1.078 0.539 0.718 0 1.078 0.18 1.078 0.539 0 0.296 0.162 0.539 0.359 0.539 0.198 0 0.359 0.242 0.359 0.539 0 0.296 0.242 0.539 0.539 0.539 0.296 0 0.539 0.242 0.539 0.539 0 0.296 0.242 0.539 0.539 0.539 0.335 0 0.539 0.339 0.539 0.898 0 0.559 0.204 0.898 0.539 0.898 0.359 0 0.539 0.359 0.539 1.078 0 0.593 0.162 1.078 0.359 1.078 0.214 0 0.359 1.377 0.359 3.412 0 2.794 0.098 3.412 0.539 3.412 0.468 0 0.539 1.616 0.539 12.392 v 12.392 h -3.412 h -3.412 v -14.906 c 0 -13.01 -0.069 -14.906 -0.539 -14.906 -0.359 0 -0.539 -0.359 -0.539 -1.078 0 -0.593 -0.162 -1.078 -0.359 -1.078 -0.198 0 -0.359 -0.242 -0.359 -0.539 0 -0.296 -0.242 -0.539 -0.539 -0.539 -0.296 0 -0.539 -0.162 -0.539 -0.359 0 -0.198 -0.242 -0.359 -0.539 -0.359 -0.296 0 -0.539 -0.242 -0.539 -0.539 0 -0.453 -0.798 -0.539 -5.03 -0.539 -4.23 0 -5.03 0.085 -5.03 0.539 0 0.359 -0.359 0.539 -1.078 0.539 -0.593 0 -1.078 0.162 -1.078 0.359 0 0.198 -0.242 0.359 -0.539 0.359 -0.296 0 -0.539 0.242 -0.539 0.539 0 0.296 -0.162 0.539 -0.359 0.539 -0.198 0 -0.359 0.242 -0.359 0.539 0 0.296 -0.242 0.539 -0.539 0.539 -0.339 0 -0.539 0.342 -0.539 0.924 0 0.508 -0.242 1.166 -0.539 1.462 -0.46 0.46 -0.539 2.571 -0.539 14.521 v 13.982 h -3.412 h -3.412 v -27.836 z"/><path d="m 119.36 170.2 c -0.101 -0.303 -1.222 -0.49 -3.442 -0.575 -2.524 -0.096 -3.293 -0.243 -3.293 -0.629 0 -0.357 -0.47 -0.503 -1.616 -0.503 -0.889 0 -1.616 -0.162 -1.616 -0.359 0 -0.198 -0.404 -0.359 -0.898 -0.359 -0.559 0 -0.898 -0.204 -0.898 -0.539 0 -0.296 -0.242 -0.539 -0.539 -0.539 -0.296 0 -0.539 -0.242 -0.539 -0.539 0 -0.296 -0.242 -0.539 -0.539 -0.539 -0.296 0 -0.539 -0.242 -0.539 -0.539 0 -0.296 -0.242 -0.539 -0.539 -0.539 -0.296 0 -0.539 -0.162 -0.539 -0.359 0 -0.198 -0.242 -0.359 -0.539 -0.359 -0.296 0 -0.539 -0.242 -0.539 -0.539 0 -0.296 -0.162 -0.539 -0.359 -0.539 -0.198 0 -0.359 -0.242 -0.359 -0.539 0 -0.296 -0.242 -0.539 -0.539 -0.539 -0.359 0 -0.539 -0.359 -0.539 -1.078 0 -0.718 -0.18 -1.078 -0.539 -1.078 -0.376 0 -0.539 -0.379 -0.539 -1.257 0 -0.878 -0.162 -1.257 -0.539 -1.257 -0.439 0 -0.539 -0.595 -0.539 -3.203 0 -2.211 -0.139 -3.268 -0.449 -3.412 -0.359 -0.168 -0.359 -0.251 0 -0.419 0.313 -0.146 0.449 -1.237 0.449 -3.592 0 -2.767 0.098 -3.382 0.539 -3.382 0.399 0 0.539 -0.419 0.539 -1.616 0 -1.197 0.14 -1.616 0.539 -1.616 0.335 0 0.539 -0.339 0.539 -0.898 0 -0.559 0.204 -0.898 0.539 -0.898 0.296 0 0.539 -0.242 0.539 -0.539 0 -0.296 0.162 -0.539 0.359 -0.539 0.198 0 0.359 -0.242 0.359 -0.539 0 -0.296 0.242 -0.539 0.539 -0.539 0.296 0 0.539 -0.242 0.539 -0.539 0 -0.296 0.242 -0.539 0.539 -0.539 0.296 0 0.539 -0.162 0.539 -0.359 0 -0.198 0.242 -0.359 0.539 -0.359 0.296 0 0.539 -0.242 0.539 -0.539 0 -0.296 0.242 -0.539 0.539 -0.539 0.296 0 0.539 -0.242 0.539 -0.539 0 -0.335 0.339 -0.539 0.898 -0.539 0.559 0 0.898 -0.204 0.898 -0.539 0 -0.359 0.359 -0.539 1.078 -0.539 0.718 0 1.078 -0.18 1.078 -0.539 0 -0.458 0.938 -0.539 6.286 -0.539 5.348 0 6.286 0.08 6.286 0.539 0 0.399 0.419 0.539 1.616 0.539 1.197 0 1.616 0.14 1.616 0.539 0 0.296 0.242 0.539 0.539 0.539 0.296 0 0.539 0.242 0.539 0.539 0 0.335 0.339 0.539 0.898 0.539 0.559 0 0.898 0.204 0.898 0.539 0 0.296 0.242 0.539 0.539 0.539 0.335 0 0.539 0.339 0.539 0.898 0 0.559 0.204 0.898 0.539 0.898 0.296 0 0.539 0.242 0.539 0.539 0 0.296 0.242 0.539 0.539 0.539 0.335 0 0.539 0.339 0.539 0.898 0 0.494 0.162 0.898 0.359 0.898 0.198 0 0.359 0.485 0.359 1.078 0 0.718 0.18 1.078 0.539 1.078 0.441 0 0.539 0.619 0.539 3.412 0 2.794 0.098 3.412 0.539 3.412 0.414 0 0.539 0.459 0.539 1.975 v 1.975 h -15.445 h -15.445 v 2.694 c 0 1.556 0.152 2.694 0.359 2.694 0.198 0 0.359 0.404 0.359 0.898 0 0.559 0.204 0.898 0.539 0.898 0.359 0 0.539 0.359 0.539 1.078 0 0.718 0.18 1.078 0.539 1.078 0.296 0 0.539 0.162 0.539 0.359 0 0.198 0.242 0.359 0.539 0.359 0.296 0 0.539 0.242 0.539 0.539 0 0.335 0.339 0.539 0.898 0.539 0.559 0 0.898 0.204 0.898 0.539 0 0.359 0.359 0.539 1.078 0.539 0.718 0 1.078 0.18 1.078 0.539 0 0.46 1.018 0.539 7 0.539 5.986 0 7 -0.078 7 -0.539 0 -0.399 0.419 -0.539 1.616 -0.539 1.197 0 1.616 -0.14 1.616 -0.539 0 -0.335 0.339 -0.539 0.898 -0.539 0.559 0 0.898 -0.204 0.898 -0.539 0 -0.335 0.339 -0.539 0.898 -0.539 0.872 0 0.898 0.072 0.898 2.514 0 2.442 -0.026 2.514 -0.898 2.514 -0.559 0 -0.898 0.204 -0.898 0.539 0 0.399 -0.419 0.539 -1.616 0.539 -0.889 0 -1.616 0.162 -1.616 0.359 0 0.198 -0.393 0.359 -0.872 0.359 -0.48 0 -1.115 0.242 -1.411 0.539 -0.395 0.395 -1.36 0.539 -3.617 0.539 -2.497 0 -3.079 0.102 -3.079 0.539 0 0.652 -0.599 0.718 -0.808 0.09 z m -6.735 -22.897 c 0 -0.198 0.566 -0.359 1.257 -0.359 0.691 0 1.257 0.162 1.257 0.359 0 0.198 0.727 0.359 1.616 0.359 0.889 0 1.616 -0.162 1.616 -0.359 0 -0.224 2.095 -0.359 5.567 -0.359 h 5.567 v -2.668 c 0 -1.893 -0.157 -2.825 -0.539 -3.207 -0.296 -0.296 -0.539 -0.954 -0.539 -1.462 0 -0.582 -0.2 -0.924 -0.539 -0.924 -0.296 0 -0.539 -0.242 -0.539 -0.539 0 -0.296 -0.162 -0.539 -0.359 -0.539 -0.198 0 -0.359 -0.242 -0.359 -0.539 0 -0.296 -0.242 -0.539 -0.539 -0.539 -0.296 0 -0.539 -0.162 -0.539 -0.359 0 -0.198 -0.485 -0.359 -1.078 -0.359 -0.718 0 -1.078 -0.18 -1.078 -0.539 0 -0.456 -0.858 -0.539 -5.567 -0.539 -4.709 0 -5.567 0.083 -5.567 0.539 0 0.339 -0.342 0.539 -0.924 0.539 -0.947 0 -1.95 0.726 -1.95 1.411 0 0.212 -0.242 0.385 -0.539 0.385 -0.296 0 -0.539 0.242 -0.539 0.539 0 0.296 -0.242 0.539 -0.539 0.539 -0.359 0 -0.539 0.359 -0.539 1.078 0 0.718 -0.18 1.078 -0.539 1.078 -0.335 0 -0.539 0.339 -0.539 0.898 0 0.494 -0.162 0.898 -0.359 0.898 -0.205 0 -0.359 1.078 -0.359 2.514 v 2.514 h 3.592 c 2.155 0 3.592 -0.144 3.592 -0.359 z"/></g></g></svg>