<svg xmlns="http://www.w3.org/2000/svg" viewBox="0 0 256 256"><defs><clipPath><rect height="88" rx="10" width="84" x="-202" y="56" style="fill:none;stroke:#000;display:block;color:#000"/></clipPath><clipPath><rect height="88" rx="10" width="84" x="-202" y="56" style="fill:none;stroke:#000;display:block;color:#000"/></clipPath><clipPath><rect height="88" rx="10" width="84" x="-202" y="56" style="fill:none;stroke:#000;display:block;color:#000"/></clipPath></defs><g transform="translate(0 -796.36)"><path d="m 50.992 1025.5 c 191.11 128.31 313.92 -273.29 64.57 -222.54 -103.06 21.661 -166.97 163.54 -64.57 222.54 z" style="fill:#fff;color:#000"/><g transform="matrix(2.62914 1.29071 -1.29086 2.84826 102.53 820.74)" style="fill:#ffdead"><path d="M 8,1 C 6.971,1 6,1.971 6,3 v 42 c 0,0.971 1.029,2 2,2 h 32 c 0.971,0 2,-1.029 2,-2 V 14 L 29,1"/><path d="M 29,12 29.062,12.062 29.219,12 29,12 z m 2,2 11,11 0,-11 -11,0 z" style="fill-opacity:0.196"/><g style="fill:#ff4500"><path d="M 29,1 42,14 H 31 c -0.971,0 -2,-1.029 -2,-2 V 1" style="fill-opacity:0.392"/><rect x="15.5" y="16" width="8" height="7" ry="0.601" rx="0.579"/><g transform="translate(-0.5 -1)" style="stroke:#ff4500;stroke-linecap:round;stroke-linejoin:round;stroke-dashoffset:0.774"><path d="m 26.5 17.5 h 5"/><path d="m 26.5 20.5 h 5"/><path d="m 26.5 23.5 h 5"/><path d="m 16 26.5 h 16"/><path d="m 16 29.5 h 16"/><path d="m 16 32.5 h 16"/></g></g><path d="m 6,35 v 10 c 0,0.971 1.029,2 2,2 h 32 c 0.971,0 2,-1.029 2,-2 V 35 z" style="fill-opacity:0.196"/></g><path d="m 238.66 439.07 c -3.596 -1.724 -7.421 -6.134 -9.129 -10.526 -0.88 -2.264 -1.758 -10.963 -2.509 -24.866 -0.636 -11.762 -1.473 -22.323 -1.861 -23.471 -0.514 -1.52 -3.03 -2.955 -9.29 -5.304 -4.723 -1.771 -11.832 -4.973 -15.804 -7.117 -3.969 -2.143 -8.08 -3.897 -9.139 -3.897 -1.186 0 -7.67 5.662 -16.926 14.779 -8.252 8.126 -16.338 15.514 -17.968 16.412 -3.353 1.848 -10.904 2.149 -14.806 0.59 -3.101 -1.24 -35.899 -35.943 -38 -40.21 -2.085 -4.232 -1.863 -12.147 0.477 -16.942 1.065 -2.183 8 -11.03 15.417 -19.659 7.981 -9.29 13.479 -16.501 13.479 -17.678 0 -1.093 -1.633 -5.474 -3.629 -9.738 -1.996 -4.262 -4.972 -11.879 -6.613 -16.926 -1.641 -5.05 -3.656 -9.55 -4.476 -10.01 -0.821 -0.457 -10.454 -1.361 -21.408 -2.01 -12.739 -0.754 -21.313 -1.716 -23.794 -2.669 -4.727 -1.817 -10.173 -8.04 -10.946 -12.505 -0.312 -1.814 -0.44 -15.225 -0.284 -29.81 l 0.283 -26.517 l 2.838 -3.821 c 5.02 -6.751 7.374 -7.429 31.33 -9.01 13.56 -0.895 21.808 -1.844 22.488 -2.587 0.595 -0.646 2.626 -5.65 4.515 -11.12 1.889 -5.471 4.842 -12.957 6.561 -16.636 1.719 -3.679 3.126 -7.497 3.126 -8.486 0 -0.989 -5.672 -8.478 -12.601 -16.642 -6.932 -8.162 -13.564 -16.207 -14.735 -17.872 -3.297 -4.683 -4.412 -10.48 -3.107 -16.16 0.985 -4.288 2.789 -6.614 17.856 -23.01 9.215 -10.03 18.307 -19.1 20.19 -20.14 4.387 -2.426 11.361 -2.46 15.716 -0.075 1.834 1 9.88 8.278 17.879 16.16 8 7.886 15.08 14.669 15.75 15.07 0.698 0.426 5.01 -1.2 10.251 -3.867 4.975 -2.531 12.42 -5.823 16.543 -7.315 5.591 -2.023 7.761 -3.316 8.532 -5.085 0.569 -1.305 1.545 -11.995 2.17 -23.757 1.2 -22.618 1.922 -26.19 6.265 -31.07 4.831 -5.414 7.611 -5.861 34.618 -5.535 l 24.599 0.296 l 3.848 2.737 c 6.621 4.708 7.423 7.635 8.981 32.803 0.755 12.183 1.579 23.1 1.83 24.26 0.355 1.632 2.382 2.83 8.974 5.302 4.683 1.756 12.184 5.171 16.668 7.589 4.484 2.418 8.512 4.396 8.951 4.396 0.439 0 7.638 -6.741 15.996 -14.98 8.359 -8.239 16.749 -15.849 18.636 -16.909 4.469 -2.508 11.12 -2.485 16 0.055 2.32 1.206 10.202 8.909 20.1 19.645 16.993 18.428 18.332 20.537 18.345 28.885 0.009 5.903 -2.437 9.775 -17.05 26.973 -7.944 9.351 -14.443 17.398 -14.443 17.883 0 0.485 2.073 5.522 4.607 11.193 2.534 5.672 5.556 13.612 6.715 17.652 1.441 5.01 2.695 7.607 3.961 8.184 1.019 0.465 11.261 1.476 22.761 2.247 22.819 1.53 26.495 2.538 30.32 8.317 3.616 5.463 4.04 9.556 3.724 36.25 l -0.299 25.53 l -2.792 4.262 c -4.985 7.611 -6.244 8 -31.559 9.775 -12.37 0.866 -22.711 1.805 -22.972 2.094 -0.265 0.285 -1.801 4.534 -3.412 9.434 -1.611 4.904 -4.781 12.874 -7.04 17.71 -2.262 4.837 -3.985 9.39 -3.83 10.12 0.156 0.729 6.327 8.402 13.715 17.05 7.388 8.648 14.366 17.71 15.515 20.14 2.435 5.157 2.661 10.616 0.652 15.777 -1.772 4.554 -31.85 37.39 -36.742 40.1 -4.088 2.271 -11.535 2.515 -15.814 0.518 -1.64 -0.765 -9.859 -8.153 -18.265 -16.407 -8.404 -8.259 -15.954 -15.02 -16.774 -15.02 -0.817 -0.003 -5.552 2.036 -10.523 4.534 -4.97 2.494 -12.335 5.702 -16.367 7.127 -5.571 1.971 -7.437 3.091 -7.779 4.666 -0.248 1.14 -1.067 12.04 -1.822 24.22 -1.66 26.796 -2.614 29.702 -11.304 34.425 -2.517 1.37 -6.689 1.606 -27.786 1.573 -18.675 -0.03 -25.513 -0.369 -27.602 -1.371 z m 36.589 -118.97 c 22.394 -2.52 41.11 -12.11 57.04 -29.23 12.141 -13.05 19.974 -27.695 24.691 -46.15 2.957 -11.574 2.94 -37.13 -0.033 -48.845 -9.02 -35.551 -32.72 -61.73 -65.48 -72.32 -7.633 -2.467 -9.706 -2.703 -24.547 -2.772 -14.215 -0.066 -17.18 0.208 -24.08 2.232 -34.476 10.11 -60.841 39.848 -68.05 76.77 -6.473 33.17 2.992 67.02 25.541 91.35 11.807 12.741 27.13 22.09 43.724 26.682 4.733 1.309 11.449 2.318 21.01 3.158 0.764 0.067 5.349 -0.324 10.19 -0.868 z m -22.971 -41.698 c -23.622 -6.879 -40.15 -28.464 -41.614 -54.34 -1.023 -18.09 4.398 -33.401 16.363 -46.2 21.791 -23.305 56.58 -23.525 78.09 -0.49 17.719 18.972 21.975 45.954 10.971 69.63 -9.368 20.17 -26.624 32.08 -47.788 32.967 -7.205 0.303 -10.769 -0.048 -16.03 -1.578 z m 26.425 -25.08 c 6.524 -2.621 14.307 -10.388 17.577 -17.544 2.31 -5.05 2.588 -6.731 2.588 -15.606 0 -9.441 -0.161 -10.266 -3.174 -16.234 -6.082 -12.05 -15.11 -18.16 -27.853 -18.841 -10.242 -0.555 -16.371 1.775 -23.764 9.03 -9.374 9.199 -13.1 21.988 -10.09 34.607 2.606 10.922 8.127 18.339 17.413 23.39 8.664 4.714 17.585 5.105 27.309 1.197 z" transform="matrix(0.10814 0.05152 -0.05207 0.11149 122.8 926.39)" style="fill:#ff4500"/></g></svg>