<svg xmlns="http://www.w3.org/2000/svg" viewBox="0 0 256 256"><g transform="translate(0 -796.36)"><path d="m 3.25 953.66 c 49.981 239.91 393.86 -17.642 187.29 -139.59 -80.25 -52.27 -213 16.2 -187.29 139.59 z" style="fill:#fff;color:#000"/><g transform="matrix(4.23886 0 0 4.043 31.702 827.33)"><path d="M 29,12 29.062,12.062 29.219,12 29,12 z m 2,2 11,11 0,-11 -11,0 z" style="fill-opacity:0.196"/><path d="m 29 1 l 13 13 h -11 c -0.971 0 -2 -1.029 -2 -2 v -11 z" style="fill:#ff4500;fill-opacity:0.392"/></g><g transform="translate(0 796.36)" style="fill:#ff4500;fill-rule:evenodd"><path d="m 135.04 141.92 v -22.965 h 2.884 h 2.884 v 20.494 v 20.494 h 11.534 h 11.534 v 2.472 v 2.472 h -14.418 h -14.418 v -22.965 z"/><path d="m 67.07 144.39 v -20.494 h -8.03 h -8.03 v -2.472 v -2.472 h 18.949 h 18.949 v 2.472 v 2.472 h -8.03 h -8.03 v 20.494 v 20.494 h -2.884 h -2.884 v -20.494 z"/><path d="m 110.95 165.4 v -0.515 h -3.501 h -3.501 v -0.515 c 0 -0.5 -0.041 -0.515 -1.442 -0.515 -1.304 0 -1.442 -0.039 -1.442 -0.412 0 -0.357 -0.137 -0.412 -1.03 -0.412 -0.961 0 -1.03 -0.034 -1.03 -0.515 0 -0.412 -0.103 -0.515 -0.515 -0.515 -0.412 0 -0.515 -0.103 -0.515 -0.515 0 -0.412 -0.103 -0.515 -0.515 -0.515 -0.412 0 -0.515 -0.103 -0.515 -0.515 0 -0.378 -0.11 -0.515 -0.412 -0.515 -0.302 0 -0.412 -0.137 -0.412 -0.515 0 -0.412 -0.103 -0.515 -0.515 -0.515 -0.412 0 -0.515 -0.103 -0.515 -0.515 0 -0.412 -0.103 -0.515 -0.515 -0.515 -0.412 0 -0.515 -0.103 -0.515 -0.515 0 -0.412 -0.103 -0.515 -0.515 -0.515 -0.473 0 -0.515 -0.076 -0.515 -0.927 0 -0.851 -0.042 -0.927 -0.515 -0.927 -0.481 0 -0.515 -0.069 -0.515 -1.03 0 -0.961 -0.034 -1.03 -0.515 -1.03 -0.503 0 -0.515 -0.034 -0.515 -1.545 0 -1.51 -0.011 -1.545 -0.515 -1.545 h -0.515 v -3.501 c 0 -3.364 -0.016 -3.501 -0.412 -3.501 -0.351 0 -0.412 -0.137 -0.412 -0.927 0 -0.79 0.061 -0.927 0.412 -0.927 0.396 0 0.412 -0.137 0.412 -3.501 v -3.501 h 0.515 c 0.5 0 0.515 -0.041 0.515 -1.442 0 -1.401 0.015 -1.442 0.515 -1.442 0.481 0 0.515 -0.069 0.515 -1.03 0 -0.961 0.034 -1.03 0.515 -1.03 0.481 0 0.515 -0.069 0.515 -1.03 0 -0.961 0.034 -1.03 0.515 -1.03 0.412 0 0.515 -0.103 0.515 -0.515 0 -0.412 0.103 -0.515 0.515 -0.515 0.378 0 0.515 -0.11 0.515 -0.412 0 -0.302 0.137 -0.412 0.515 -0.412 0.412 0 0.515 -0.103 0.515 -0.515 0 -0.378 0.11 -0.515 0.412 -0.515 0.302 0 0.412 -0.137 0.412 -0.515 0 -0.412 0.103 -0.515 0.515 -0.515 0.412 0 0.515 -0.103 0.515 -0.515 0 -0.481 0.069 -0.515 1.03 -0.515 0.961 0 1.03 -0.034 1.03 -0.515 0 -0.412 0.103 -0.515 0.515 -0.515 0.412 0 0.515 -0.103 0.515 -0.515 0 -0.5 0.041 -0.515 1.442 -0.515 1.401 0 1.442 -0.015 1.442 -0.515 v -0.515 h 3.501 c 3.364 0 3.501 -0.016 3.501 -0.412 0 -0.302 0.137 -0.412 0.515 -0.412 0.378 0 0.515 0.11 0.515 0.412 0 0.396 0.137 0.412 3.501 0.412 h 3.501 v 0.515 c 0 0.5 0.041 0.515 1.442 0.515 1.401 0 1.442 0.015 1.442 0.515 0 0.481 0.069 0.515 1.03 0.515 0.961 0 1.03 0.034 1.03 0.515 0 0.481 0.069 0.515 1.03 0.515 h 1.03 v 2.472 v 2.472 h -0.515 c -0.412 0 -0.515 -0.103 -0.515 -0.515 0 -0.473 -0.076 -0.515 -0.927 -0.515 -0.851 0 -0.927 -0.042 -0.927 -0.515 0 -0.481 -0.069 -0.515 -1.03 -0.515 -0.961 0 -1.03 -0.034 -1.03 -0.515 0 -0.481 -0.069 -0.515 -1.03 -0.515 -0.868 0 -1.03 -0.06 -1.03 -0.385 0 -0.574 -0.794 -0.64 -7.775 -0.643 l -6.231 -0.002 v 0.515 c 0 0.481 -0.069 0.515 -1.03 0.515 -0.961 0 -1.03 0.034 -1.03 0.515 0 0.481 -0.069 0.515 -1.03 0.515 -0.961 0 -1.03 0.034 -1.03 0.515 0 0.378 -0.11 0.515 -0.412 0.515 -0.302 0 -0.412 0.137 -0.412 0.515 0 0.412 -0.103 0.515 -0.515 0.515 -0.412 0 -0.515 0.103 -0.515 0.515 0 0.412 -0.103 0.515 -0.515 0.515 -0.412 0 -0.515 0.103 -0.515 0.515 0 0.412 -0.103 0.515 -0.515 0.515 -0.473 0 -0.515 0.076 -0.515 0.927 0 0.851 -0.042 0.927 -0.515 0.927 -0.503 0 -0.515 0.034 -0.515 1.545 0 1.51 -0.011 1.545 -0.515 1.545 h -0.515 v 8.03 v 8.03 h 0.515 c 0.5 0 0.515 0.041 0.515 1.442 0 1.401 0.015 1.442 0.515 1.442 0.481 0 0.515 0.069 0.515 1.03 0 0.961 0.034 1.03 0.515 1.03 0.412 0 0.515 0.103 0.515 0.515 0 0.412 0.103 0.515 0.515 0.515 0.412 0 0.515 0.103 0.515 0.515 0 0.412 0.103 0.515 0.515 0.515 0.412 0 0.515 0.103 0.515 0.515 0 0.378 0.11 0.515 0.412 0.515 0.302 0 0.412 0.137 0.412 0.515 0 0.481 0.069 0.515 1.03 0.515 0.893 0 1.03 0.055 1.03 0.412 0 0.357 0.137 0.412 1.03 0.412 0.961 0 1.03 0.034 1.03 0.515 v 0.515 h 6.488 h 6.488 v -0.515 c 0 -0.503 0.034 -0.515 1.545 -0.515 1.407 0 1.545 -0.037 1.545 -0.412 0 -0.357 0.137 -0.412 1.03 -0.412 0.961 0 1.03 -0.034 1.03 -0.515 0 -0.473 0.076 -0.515 0.927 -0.515 0.851 0 0.927 -0.042 0.927 -0.515 0 -0.412 0.103 -0.515 0.515 -0.515 h 0.515 v 2.472 v 2.472 h -1.03 c -0.961 0 -1.03 0.034 -1.03 0.515 0 0.481 -0.069 0.515 -1.03 0.515 -0.893 0 -1.03 0.055 -1.03 0.412 0 0.373 -0.137 0.412 -1.442 0.412 -1.401 0 -1.442 0.015 -1.442 0.515 v 0.515 h -3.501 h -3.501 v 0.515 c 0 0.412 -0.103 0.515 -0.515 0.515 -0.412 0 -0.515 -0.103 -0.515 -0.515 z"/></g></g></svg>