<svg xmlns="http://www.w3.org/2000/svg" viewBox="0 0 256 256"><g transform="translate(0 -796.36)"><path d="m 3.25 953.66 c 49.981 239.91 393.86 -17.642 187.29 -139.59 -80.25 -52.27 -213 16.2 -187.29 139.59 z" style="fill:#fff;color:#000"/><g transform="matrix(4.23886 0 0 4.043 31.702 827.33)"><path d="M 29,12 29.062,12.062 29.219,12 29,12 z m 2,2 11,11 0,-11 -11,0 z" style="fill-opacity:0.196"/><path d="m 29 1 l 13 13 h -11 c -0.971 0 -2 -1.029 -2 -2 v -11 z" style="fill:#ff4500;fill-opacity:0.392"/></g><g transform="translate(0 796.36)" style="fill:#ff4500;fill-rule:evenodd"><path d="m 129.74 160.03 l -2.525 -0.073 v -0.509 c 0 -0.473 -0.072 -0.509 -1.031 -0.509 -0.962 0 -1.031 -0.034 -1.031 -0.515 0 -0.412 -0.103 -0.515 -0.515 -0.515 -0.412 0 -0.515 -0.103 -0.515 -0.515 0 -0.412 -0.103 -0.515 -0.515 -0.515 -0.473 0 -0.515 -0.076 -0.515 -0.928 0 -0.79 -0.061 -0.928 -0.412 -0.928 -0.357 0 -0.412 -0.137 -0.412 -1.031 0 -0.962 -0.034 -1.031 -0.515 -1.031 h -0.515 v -2.989 v -2.989 h -0.515 h -0.515 v -10.926 v -10.926 h 2.989 h 2.989 v 13.503 c 0 13.366 0.004 13.503 0.412 13.503 0.351 0 0.412 0.137 0.412 0.928 0 0.852 0.042 0.928 0.515 0.928 0.412 0 0.515 0.103 0.515 0.515 0 0.412 0.103 0.515 0.515 0.515 0.412 0 0.515 0.103 0.515 0.515 v 0.515 h 4.535 h 4.535 v -0.515 c 0 -0.481 0.069 -0.515 1.031 -0.515 0.962 0 1.031 -0.034 1.031 -0.515 0 -0.412 0.103 -0.515 0.515 -0.515 0.473 0 0.515 -0.076 0.515 -0.928 0 -0.852 0.042 -0.928 0.515 -0.928 0.408 0 0.515 -0.104 0.515 -0.501 0 -0.363 0.128 -0.519 0.464 -0.567 l 0.464 -0.066 l 0.053 -12.936 l 0.053 -12.936 h 2.885 h 2.885 v 17.42 v 17.42 h -2.886 h -2.886 v -2.474 v -2.474 h -0.618 c -0.522 0 -0.618 0.08 -0.618 0.515 0 0.412 -0.103 0.515 -0.515 0.515 -0.378 0 -0.515 0.11 -0.515 0.412 0 0.302 -0.137 0.412 -0.515 0.412 -0.412 0 -0.515 0.103 -0.515 0.515 0 0.378 -0.11 0.515 -0.412 0.515 -0.302 0 -0.412 0.137 -0.412 0.515 0 0.481 -0.069 0.515 -1.031 0.515 -0.962 0 -1.031 0.034 -1.031 0.515 0 0.508 -0.025 0.515 -1.701 0.518 -0.935 0.001 -2.025 0.031 -2.422 0.067 -0.397 0.036 -1.858 0.032 -3.247 -0.009 z"/><path d="m 79.15 160.54 c -0.065 -0.46 -0.095 -0.464 -4.03 -0.52 l -3.968 -0.056 v -0.511 c 0 -0.508 -0.011 -0.511 -1.958 -0.511 h -1.958 v -2.474 v -2.474 h 0.928 c 0.852 0 0.928 0.042 0.928 0.515 0 0.501 0.041 0.515 1.443 0.515 1.402 0 1.443 0.015 1.443 0.515 v 0.515 h 6.597 h 6.597 v -0.515 c 0 -0.481 0.069 -0.515 1.031 -0.515 0.962 0 1.031 -0.034 1.031 -0.515 0 -0.412 0.103 -0.515 0.515 -0.515 h 0.515 v -2.989 v -2.989 h -0.515 c -0.412 0 -0.515 -0.103 -0.515 -0.515 0 -0.412 -0.103 -0.515 -0.515 -0.515 -0.412 0 -0.515 -0.103 -0.515 -0.515 0 -0.504 -0.034 -0.515 -1.546 -0.515 -1.512 0 -1.546 -0.012 -1.546 -0.515 0 -0.514 -0.007 -0.515 -1.958 -0.515 -1.952 0 -1.958 -0.002 -1.958 -0.515 0 -0.514 -0.007 -0.515 -1.958 -0.515 -1.821 0 -1.958 -0.029 -1.958 -0.412 0 -0.362 -0.137 -0.412 -1.134 -0.412 -1.072 0 -1.134 -0.028 -1.134 -0.515 0 -0.473 -0.076 -0.515 -0.928 -0.515 -0.852 0 -0.928 -0.042 -0.928 -0.515 0 -0.412 -0.103 -0.515 -0.515 -0.515 -0.412 0 -0.515 -0.103 -0.515 -0.515 0 -0.412 -0.103 -0.515 -0.515 -0.515 -0.412 0 -0.515 -0.103 -0.515 -0.515 0 -0.378 -0.11 -0.515 -0.412 -0.515 -0.383 0 -0.412 -0.137 -0.412 -1.958 0 -1.952 -0.002 -1.958 -0.515 -1.958 -0.412 0 -0.515 -0.103 -0.515 -0.515 0 -0.412 0.103 -0.515 0.515 -0.515 0.514 0 0.515 -0.007 0.515 -1.958 0 -1.821 0.029 -1.958 0.412 -1.958 0.302 0 0.412 -0.137 0.412 -0.515 0 -0.412 0.103 -0.515 0.515 -0.515 0.412 0 0.515 -0.103 0.515 -0.515 0 -0.412 0.103 -0.515 0.515 -0.515 0.412 0 0.515 -0.103 0.515 -0.515 0 -0.412 0.103 -0.515 0.515 -0.515 0.378 0 0.515 -0.11 0.515 -0.412 0 -0.357 0.137 -0.412 1.031 -0.412 0.954 0 1.031 -0.037 1.031 -0.501 v -0.501 l 3.195 -0.066 c 1.757 -0.036 4.628 -0.036 6.378 0 3.09 0.064 3.185 0.079 3.247 0.515 0.058 0.408 0.202 0.455 1.559 0.51 1.325 0.054 1.495 0.106 1.495 0.464 0 0.347 0.145 0.403 1.031 0.403 h 1.031 v 1.958 v 1.958 h -1.031 c -0.962 0 -1.031 -0.034 -1.031 -0.515 0 -0.473 -0.076 -0.515 -0.928 -0.515 -0.79 0 -0.928 -0.061 -0.928 -0.412 0 -0.403 -0.137 -0.412 -6.082 -0.412 -5.944 0 -6.082 0.009 -6.082 0.412 0 0.357 -0.137 0.412 -1.031 0.412 -0.962 0 -1.031 0.034 -1.031 0.515 0 0.412 -0.103 0.515 -0.515 0.515 h -0.515 v 3.608 v 3.608 h 0.515 c 0.412 0 0.515 0.103 0.515 0.515 0 0.481 0.069 0.515 1.031 0.515 0.893 0 1.031 0.055 1.031 0.412 0 0.376 0.137 0.412 1.546 0.412 1.512 0 1.546 0.012 1.546 0.515 v 0.515 h 2.474 h 2.474 v 0.515 c 0 0.501 0.041 0.515 1.443 0.515 1.402 0 1.443 0.015 1.443 0.515 0 0.481 0.069 0.515 1.031 0.515 0.962 0 1.031 0.034 1.031 0.515 0 0.481 0.069 0.515 1.031 0.515 0.962 0 1.031 0.034 1.031 0.515 0 0.412 0.103 0.515 0.515 0.515 0.473 0 0.515 0.076 0.515 0.928 0 0.774 0.065 0.928 0.391 0.928 0.347 0 0.399 0.194 0.464 1.701 0.04 0.935 0.041 2.744 0.003 4.02 -0.064 2.122 -0.103 2.319 -0.464 2.319 -0.283 0 -0.394 0.145 -0.394 0.515 0 0.412 -0.103 0.515 -0.515 0.515 -0.378 0 -0.515 0.11 -0.515 0.412 0 0.302 -0.137 0.412 -0.515 0.412 -0.406 0 -0.515 0.105 -0.515 0.492 0 0.425 -0.126 0.511 -0.928 0.631 -0.733 0.11 -0.928 0.223 -0.928 0.539 0 0.347 -0.149 0.4 -1.134 0.4 -1.072 0 -1.134 0.028 -1.134 0.515 v 0.515 h -2.989 h -2.989 v 0.515 c 0 0.685 -0.765 0.731 -0.862 0.052 z"/><path d="m 102.27 135.54 v -24.429 h 2.886 h 2.886 v 24.429 v 24.429 h -2.886 h -2.886 v -24.429 z"/></g></g></svg>