<svg xmlns="http://www.w3.org/2000/svg" viewBox="0 0 256 256"><g transform="translate(0 -796.36)"><path d="m 211.17 833.49 c 201.82 266.38 -353.59 304.22 -175.35 32.31 40.634 -61.991 121.89 -102.86 175.35 -32.31 z" style="fill:#fff;color:#000"/><g transform="matrix(4.39844 0 0 4.0113 19.309 842.34)"><path d="m 29.74 9.837 l 0.062 0.062 l 0.157 -0.062 h -0.219 z m 2 2 l 11 11 v -11 h -11 z" style="fill-opacity:0.196"/><g style="fill:#ff4500"><path d="m 29.74 -1.163 l 13 13 h -11 c -0.971 0 -2 -1.029 -2 -2 v -11" style="fill-opacity:0.392"/><path d="m 17,18 -3,3 0,5 10,10 10,-10 0,-5 -3,-3 -14,0 z m 3,1 0,2 0,5 4,9 -5,-9 0,-5 1,-2 z"/></g></g></g></svg>