<svg xmlns="http://www.w3.org/2000/svg" viewBox="0 0 256 256"><g transform="translate(0 -796.36)"><path d="m 211.17 833.49 c 201.82 266.38 -353.59 304.22 -175.35 32.31 40.634 -61.991 121.89 -102.86 175.35 -32.31 z" style="fill:#fff;color:#000"/><g transform="matrix(4.27546 0 0 3.67625 14.267 855.85)"><path d="m 8 1 c -1.029 0 -2 0.971 -2 2 v 42 c 0 0.971 1.029 2 2 2 h 32 c 0.971 0 2 -1.029 2 -2 v -31 l -13 -13" style="fill:#fff"/><path d="M 29,12 29.062,12.062 29.219,12 29,12 Z m 2,2 11,11 0,-11 -11,0 z" style="fill-opacity:0.196"/><path d="m 29 1 l 13 13 h -11 c -0.971 0 -2 -1.029 -2 -2 v -11" style="fill:#ff4500;fill-opacity:0.392"/><path d="m 6 35 v 10 c 0 0.971 1.029 2 2 2 h 32 c 0.971 0 2 -1.029 2 -2 v -10 z" style="fill:#fff;fill-opacity:0.196"/><g style="fill:#ff4500"><path d="m 76.03 -87.999 c 0 30.716 -0.004 34.461 -0.004 61.09 h 100.01 c 0 -30.716 -0.004 -34.461 -0.004 -61.09 h -100 z m 10 8.728 h 45 v 17.455 h -45 z m 55 0 h 25 v 17.455 h -25 z m -55 26.18 h 45 v 17.455 h -45 z m 55 0 h 25 v 17.455 h -25 z" transform="matrix(-0.19998 0 0 0.22916 49.2 38.16)"/><g transform="scale(1.1651 0.8583)"><path d="m 13.733 52.43 v -9.321 h 5.647 v 1.536 h -3.795 v 2.093 h 3.298 v 1.536 h -3.298 v 2.62 h 4.126 v 1.536 h -5.978"/><path d="m 27.465 43.11 v 1.536 h -2.454 v 7.785 h -1.867 v -7.785 h -2.454 v -1.536 h 6.776"/></g></g></g></g></svg>