<svg xmlns="http://www.w3.org/2000/svg" viewBox="0 0 256 256"><defs><clipPath><path d="m -24 13 c 0 1.105 -0.672 2 -1.5 2 -0.828 0 -1.5 -0.895 -1.5 -2 0 -1.105 0.672 -2 1.5 -2 0.828 0 1.5 0.895 1.5 2 z" transform="matrix(15.33333 0 0 11.5 415 -125.5)"/></clipPath><clipPath><rect rx="4" y="1" x="1" height="46" width="46" style="fill:#1890d0"/></clipPath><clipPath><rect rx="4" y="1" x="1" height="46" width="46" style="fill:#1890d0"/></clipPath><clipPath><rect rx="4" y="1" x="1" height="46" width="46" style="fill:#1890d0"/></clipPath><clipPath><rect rx="4" y="1" x="1" height="46" width="46" style="fill:#1890d0"/></clipPath><clipPath><rect rx="4" y="1" x="1" height="46" width="46" style="fill:#1890d0"/></clipPath><clipPath><rect rx="4" y="1" x="1" height="46" width="46" style="fill:#1890d0"/></clipPath><clipPath><rect rx="4" y="1" x="1" height="46" width="46" style="fill:#1890d0"/></clipPath><clipPath><rect rx="4" y="1" x="1" height="46" width="46" style="fill:#1890d0"/></clipPath><clipPath><rect rx="4" y="1" x="1" height="46" width="46" style="fill:#1890d0"/></clipPath><clipPath><rect rx="4" y="1" x="1" height="46" width="46" style="fill:#1890d0"/></clipPath><clipPath><rect rx="4" y="1" x="1" height="46" width="46" style="fill:#1890d0"/></clipPath><clipPath><rect rx="4" y="1" x="1" height="46" width="46" style="fill:#1890d0"/></clipPath><clipPath><rect rx="4" y="1" x="1" height="46" width="46" style="fill:#1890d0"/></clipPath><clipPath><rect rx="4" y="1" x="1" height="46" width="46" style="fill:#1890d0"/></clipPath><clipPath><rect rx="4" y="1" x="1" height="46" width="46" style="fill:#1890d0"/></clipPath><clipPath><rect rx="4" y="1" x="1" height="46" width="46" style="fill:#1890d0"/></clipPath><clipPath><rect rx="4" y="1" x="1" height="46" width="46" style="fill:#1890d0"/></clipPath><clipPath><rect rx="4" y="1" x="1" height="46" width="46" style="fill:#1890d0"/></clipPath><clipPath><rect rx="4" y="1" x="1" height="46" width="46" style="fill:#1890d0"/></clipPath><clipPath><rect rx="4" y="1" x="1" height="46" width="46" style="fill:#1890d0"/></clipPath><clipPath><rect rx="4" y="1" x="1" height="46" width="46" style="fill:#1890d0"/></clipPath><clipPath><rect rx="4" y="1" x="1" height="46" width="46" style="fill:#1890d0"/></clipPath><clipPath><rect rx="4" y="1" x="1" height="46" width="46" style="fill:#1890d0"/></clipPath><clipPath><rect rx="4" y="1" x="1" height="46" width="46" style="fill:#1890d0"/></clipPath><clipPath><rect rx="4" y="1" x="1" height="46" width="46" style="fill:#1890d0"/></clipPath><clipPath><rect rx="4" y="1" x="1" height="46" width="46" style="fill:#1890d0"/></clipPath><clipPath><rect rx="4" y="1" x="1" height="46" width="46" style="fill:#1890d0"/></clipPath><clipPath><rect rx="4" y="1" x="1" height="46" width="46" style="fill:#1890d0"/></clipPath><clipPath><rect rx="4" y="1" x="1" height="46" width="46" style="fill:#1890d0"/></clipPath><clipPath><rect rx="4" y="1" x="1" height="46" width="46" style="fill:#1890d0"/></clipPath><clipPath><rect rx="4" y="1" x="1" height="46" width="46" style="fill:#1890d0"/></clipPath><clipPath><rect rx="4" y="1" x="1" height="46" width="46" style="fill:#1890d0"/></clipPath><clipPath><rect rx="4" y="1" x="1" height="46" width="46" style="fill:#1890d0"/></clipPath><clipPath><rect rx="4" y="1" x="1" height="46" width="46" style="fill:#1890d0"/></clipPath><clipPath><rect rx="4" y="1" x="1" height="46" width="46" style="fill:#1890d0"/></clipPath><clipPath><rect rx="4" y="1" x="1" height="46" width="46" style="fill:#1890d0"/></clipPath><clipPath><rect rx="4" y="1" x="1" height="46" width="46" style="fill:#1890d0"/></clipPath><clipPath><rect rx="4" y="1" x="1" height="46" width="46" style="fill:#1890d0"/></clipPath><clipPath><rect rx="4" y="1" x="1" height="46" width="46" style="fill:#1890d0"/></clipPath><clipPath><rect rx="4" y="1" x="1" height="46" width="46" style="fill:#1890d0"/></clipPath><clipPath><rect rx="4" y="1" x="1" height="46" width="46" style="fill:#1890d0"/></clipPath><clipPath><rect rx="4" y="1" x="1" height="46" width="46" style="fill:#1890d0"/></clipPath><clipPath><rect rx="4" y="1" x="1" height="46" width="46" style="fill:#1890d0"/></clipPath><clipPath><rect rx="4" y="1" x="1" height="46" width="46" style="fill:#1890d0"/></clipPath><clipPath><rect rx="4" y="1" x="1" height="46" width="46" style="fill:#1890d0"/></clipPath><clipPath><rect rx="4" y="1" x="1" height="46" width="46" style="fill:#1890d0"/></clipPath><clipPath><rect rx="4" y="1" x="1" height="46" width="46" style="fill:#1890d0"/></clipPath><clipPath><rect rx="4" y="1" x="1" height="46" width="46" style="fill:#1890d0"/></clipPath><clipPath><rect rx="4" y="1" x="1" height="46" width="46" style="fill:#1890d0"/></clipPath><clipPath><rect rx="4" y="1" x="1" height="46" width="46" style="fill:#1890d0"/></clipPath><clipPath><rect rx="4" y="1" x="1" height="46" width="46" style="fill:#1890d0"/></clipPath><clipPath><rect rx="4" y="1" x="1" height="46" width="46" style="fill:#1890d0"/></clipPath><clipPath><rect rx="4" y="1" x="1" height="46" width="46" style="fill:#1890d0"/></clipPath><clipPath><rect rx="4" y="1" x="1" height="46" width="46" style="fill:#1890d0"/></clipPath><clipPath><rect rx="4" y="1" x="1" height="46" width="46" style="fill:#1890d0"/></clipPath><clipPath><rect rx="4" y="1" x="1" height="46" width="46" style="fill:#1890d0"/></clipPath><clipPath><rect rx="4" y="1" x="1" height="46" width="46" style="fill:#1890d0"/></clipPath><clipPath><rect rx="4" y="1" x="1" height="46" width="46" style="fill:#1890d0"/></clipPath></defs><g style="fill:#fff;color:#000"><path d="M 213.3,834.88 C 359.72,1060.25 -40.2,1147.47 -8.34,915.62 4.651,821.06 157.29,748.67 213.3,834.88 z" transform="matrix(-1 0 0 0.98726 245.66 -782.95)" style="fill:#fff"/></g><g transform="translate(7.02 -1.545)" style="fill:#ff4500;fill-rule:evenodd"><path d="m 171.53,164.6 v -10.462 h -19.429 -19.429 v -3.94 c 0,-3.759 0.025,-3.94 0.543,-3.94 0.362,0 0.543,-0.181 0.543,-0.543 0,-0.302 0.181,-0.543 0.408,-0.543 0.282,0 0.408,-0.283 0.408,-0.919 0,-0.691 0.135,-0.955 0.543,-1.062 0.416,-0.109 0.543,-0.371 0.543,-1.119 0,-0.795 0.101,-0.977 0.543,-0.977 0.362,0 0.543,-0.181 0.543,-0.543 0,-0.302 0.181,-0.543 0.408,-0.543 0.285,0 0.408,-0.287 0.408,-0.951 0,-0.77 0.104,-0.951 0.543,-0.951 0.44,0 0.543,-0.181 0.543,-0.951 0,-0.77 0.104,-0.951 0.543,-0.951 0.44,0 0.543,-0.181 0.543,-0.951 0,-0.664 0.123,-0.951 0.408,-0.951 0.226,0 0.408,-0.242 0.408,-0.543 0,-0.362 0.181,-0.543 0.543,-0.543 0.436,0 0.543,-0.181 0.543,-0.919 0,-0.691 0.135,-0.955 0.543,-1.062 0.416,-0.109 0.543,-0.371 0.543,-1.119 0,-0.687 0.121,-0.977 0.408,-0.977 0.226,0 0.408,-0.242 0.408,-0.543 0,-0.362 0.181,-0.543 0.543,-0.543 0.44,0 0.543,-0.181 0.543,-0.951 0,-0.77 0.104,-0.951 0.543,-0.951 0.44,0 0.543,-0.181 0.543,-0.951 0,-0.664 0.123,-0.951 0.408,-0.951 0.285,0 0.408,-0.287 0.408,-0.951 0,-0.77 0.104,-0.951 0.543,-0.951 0.399,0 0.543,-0.181 0.543,-0.679 0,-0.406 0.155,-0.679 0.386,-0.679 0.212,0 0.467,-0.367 0.565,-0.815 0.099,-0.448 0.353,-0.815 0.565,-0.815 0.269,0 0.386,-0.329 0.386,-1.087 0,-0.906 0.091,-1.087 0.543,-1.087 0.362,0 0.543,-0.181 0.543,-0.543 0,-0.299 0.178,-0.543 0.395,-0.543 0.237,0 0.467,-0.382 0.574,-0.951 0.129,-0.688 0.32,-0.951 0.692,-0.951 0.405,0 0.513,-0.2 0.513,-0.951 0,-0.664 0.123,-0.951 0.408,-0.951 0.294,0 0.408,-0.302 0.408,-1.087 0,-0.906 0.091,-1.087 0.543,-1.087 0.362,0 0.543,-0.181 0.543,-0.543 0,-0.299 0.178,-0.543 0.395,-0.543 0.237,0 0.467,-0.382 0.574,-0.951 0.102,-0.545 0.34,-0.951 0.556,-0.951 0.25,0 0.377,-0.321 0.377,-0.951 0,-0.77 0.104,-0.951 0.543,-0.951 0.362,0 0.543,-0.181 0.543,-0.543 0,-0.299 0.178,-0.543 0.395,-0.543 0.237,0 0.467,-0.382 0.574,-0.951 0.102,-0.545 0.34,-0.951 0.556,-0.951 0.25,0 0.377,-0.321 0.377,-0.951 0,-0.77 0.104,-0.951 0.543,-0.951 0.453,0 0.543,-0.181 0.543,-1.087 0,-0.906 0.091,-1.087 0.543,-1.087 0.362,0 0.543,-0.181 0.543,-0.543 0,-0.302 0.181,-0.543 0.408,-0.543 0.285,0 0.408,-0.287 0.408,-0.951 0,-0.77 0.104,-0.951 0.543,-0.951 0.44,0 0.543,-0.181 0.543,-0.951 0,-0.77 0.104,-0.951 0.543,-0.951 0.362,0 0.543,-0.181 0.543,-0.543 0,-0.302 0.181,-0.543 0.408,-0.543 0.285,0 0.408,-0.287 0.408,-0.951 0,-0.77 0.104,-0.951 0.543,-0.951 0.453,0 0.543,-0.181 0.543,-1.087 0,-0.906 0.091,-1.087 0.543,-1.087 0.44,0 0.543,-0.181 0.543,-0.951 v -0.951 h 6.929 6.929 v 29.484 29.484 h 5.435 5.435 v 4.484 4.484 h -5.435 -5.435 v 10.462 10.462 h -5.03 -5.03 v -10.462 z m 0,-44.02 c 0,-24.411 -0.004,-24.592 -0.543,-24.592 -0.453,0 -0.543,0.181 -0.543,1.087 0,0.785 -0.113,1.087 -0.408,1.087 -0.226,0 -0.408,0.242 -0.408,0.543 0,0.362 -0.181,0.543 -0.543,0.543 -0.44,0 -0.543,0.181 -0.543,0.951 0,0.77 -0.104,0.951 -0.543,0.951 -0.44,0 -0.543,0.181 -0.543,0.951 0,0.664 -0.123,0.951 -0.408,0.951 -0.285,0 -0.408,0.287 -0.408,0.951 0,0.77 -0.104,0.951 -0.543,0.951 -0.351,0 -0.543,0.181 -0.543,0.512 0,0.283 -0.243,0.575 -0.543,0.654 -0.416,0.109 -0.543,0.371 -0.543,1.119 0,0.687 -0.121,0.977 -0.408,0.977 -0.285,0 -0.408,0.287 -0.408,0.951 0,0.77 -0.104,0.951 -0.543,0.951 -0.362,0 -0.543,0.181 -0.543,0.543 0,0.299 -0.178,0.543 -0.395,0.543 -0.237,0 -0.467,0.382 -0.574,0.951 -0.129,0.688 -0.32,0.951 -0.692,0.951 -0.405,0 -0.513,0.2 -0.513,0.951 0,0.664 -0.123,0.951 -0.408,0.951 -0.294,0 -0.408,0.302 -0.408,1.087 0,0.906 -0.091,1.087 -0.543,1.087 -0.299,0 -0.543,0.169 -0.543,0.376 0,0.207 -0.245,0.44 -0.543,0.518 -0.416,0.109 -0.543,0.371 -0.543,1.119 0,0.687 -0.121,0.977 -0.408,0.977 -0.285,0 -0.408,0.287 -0.408,0.951 0,0.77 -0.104,0.951 -0.543,0.951 -0.362,0 -0.543,0.181 -0.543,0.543 0,0.299 -0.178,0.543 -0.395,0.543 -0.237,0 -0.467,0.382 -0.574,0.951 -0.102,0.545 -0.34,0.951 -0.556,0.951 -0.25,0 -0.377,0.321 -0.377,0.951 0,0.77 -0.104,0.951 -0.543,0.951 -0.453,0 -0.543,0.181 -0.543,1.087 0,0.906 -0.091,1.087 -0.543,1.087 -0.302,0 -0.543,0.181 -0.543,0.408 0,0.224 -0.183,0.408 -0.408,0.408 -0.294,0 -0.408,0.302 -0.408,1.087 0,0.906 -0.091,1.087 -0.543,1.087 -0.44,0 -0.543,0.181 -0.543,0.951 0,0.77 -0.104,0.951 -0.543,0.951 -0.362,0 -0.543,0.181 -0.543,0.543 0,0.302 -0.181,0.543 -0.408,0.543 -0.285,0 -0.408,0.287 -0.408,0.951 0,0.77 -0.104,0.951 -0.543,0.951 -0.453,0 -0.543,0.181 -0.543,1.087 0,0.906 -0.091,1.087 -0.543,1.087 -0.44,0 -0.543,0.181 -0.543,0.951 0,0.664 -0.123,0.951 -0.408,0.951 -0.226,0 -0.408,0.242 -0.408,0.543 0,0.362 -0.181,0.543 -0.543,0.543 -0.44,0 -0.543,0.181 -0.543,0.951 0,0.77 -0.104,0.951 -0.543,0.951 -0.362,0 -0.543,0.181 -0.543,0.543 0,0.537 0.181,0.543 14.538,0.543 h 14.538 v -24.592 z" style="opacity:0.99"/><path d="m 51.696,173.7 c 0,-1.178 0.072,-1.359 0.543,-1.359 0.478,0 0.543,-0.181 0.543,-1.495 0,-1.147 0.095,-1.495 0.408,-1.495 0.317,0 0.408,-0.362 0.408,-1.63 0,-1.449 0.06,-1.63 0.543,-1.63 0.478,0 0.543,-0.181 0.543,-1.495 0,-1.313 0.066,-1.495 0.543,-1.495 0.478,0 0.543,-0.181 0.543,-1.495 0,-1.147 0.095,-1.495 0.408,-1.495 0.313,0 0.408,-0.347 0.408,-1.495 0,-1.313 0.066,-1.495 0.543,-1.495 0.478,0 0.543,-0.181 0.543,-1.495 0,-1.313 0.066,-1.495 0.543,-1.495 0.478,0 0.543,-0.181 0.543,-1.495 0,-1.147 0.095,-1.495 0.408,-1.495 0.313,0 0.408,-0.347 0.408,-1.495 0,-1.313 0.066,-1.495 0.543,-1.495 0.478,0 0.543,-0.181 0.543,-1.495 0,-1.313 0.066,-1.495 0.543,-1.495 0.478,0 0.543,-0.181 0.543,-1.495 0,-1.147 0.095,-1.495 0.408,-1.495 0.313,0 0.408,-0.347 0.408,-1.495 0,-1.087 0.102,-1.495 0.374,-1.495 0.373,0 0.713,-1.12 0.713,-2.344 0,-0.366 0.161,-0.645 0.374,-0.645 0.373,0 0.713,-1.12 0.713,-2.344 0,-0.393 0.16,-0.645 0.408,-0.645 0.317,0 0.408,-0.362 0.408,-1.63 0,-1.449 0.06,-1.63 0.543,-1.63 0.478,0 0.543,-0.181 0.543,-1.495 0,-1.091 0.101,-1.495 0.376,-1.495 0.428,0 0.702,-0.815 0.707,-2.106 0.002,-0.602 0.133,-0.883 0.411,-0.883 0.313,0 0.408,-0.347 0.408,-1.495 0,-1.313 0.066,-1.495 0.543,-1.495 0.478,0 0.543,-0.181 0.543,-1.495 0,-1.091 0.101,-1.495 0.376,-1.495 0.428,0 0.702,-0.815 0.707,-2.106 0.002,-0.602 0.133,-0.883 0.411,-0.883 0.323,0 0.408,-0.393 0.408,-1.902 0,-1.721 0.052,-1.902 0.543,-1.902 0.478,0 0.543,-0.181 0.543,-1.495 0,-1.313 0.066,-1.495 0.543,-1.495 0.478,0 0.543,-0.181 0.543,-1.495 0,-1.147 0.095,-1.495 0.408,-1.495 0.313,0 0.408,-0.347 0.408,-1.495 0,-1.313 0.066,-1.495 0.543,-1.495 0.478,0 0.543,-0.181 0.543,-1.495 0,-1.313 0.066,-1.495 0.543,-1.495 0.478,0 0.543,-0.181 0.543,-1.495 0,-1.313 0.066,-1.495 0.543,-1.495 0.478,0 0.543,-0.181 0.543,-1.495 0,-1.147 0.095,-1.495 0.408,-1.495 0.313,0 0.408,-0.347 0.408,-1.495 0,-1.313 0.066,-1.495 0.543,-1.495 0.478,0 0.543,-0.181 0.543,-1.495 0,-1.313 0.066,-1.495 0.543,-1.495 0.362,0 0.543,-0.181 0.543,-0.543 0,-0.525 0.181,-0.543 5.435,-0.543 5.254,0 5.435,0.018 5.435,0.543 0,0.302 0.181,0.543 0.408,0.543 0.309,0 0.408,0.335 0.408,1.384 0,1.156 0.09,1.408 0.543,1.526 0.459,0.12 0.543,0.371 0.543,1.605 0,1.282 0.067,1.463 0.543,1.463 0.478,0 0.543,0.181 0.543,1.495 0,1.147 0.095,1.495 0.408,1.495 0.309,0 0.408,0.335 0.408,1.384 0,1.156 0.09,1.408 0.543,1.526 0.459,0.12 0.543,0.371 0.543,1.605 0,1.282 0.067,1.463 0.543,1.463 0.478,0 0.543,0.181 0.543,1.495 0,1.147 0.095,1.495 0.408,1.495 0.313,0 0.408,0.347 0.408,1.495 0,1.313 0.066,1.495 0.543,1.495 0.478,0 0.543,0.181 0.543,1.495 0,1.313 0.066,1.495 0.543,1.495 0.478,0 0.543,0.181 0.543,1.495 0,1.147 0.095,1.495 0.408,1.495 0.313,0 0.408,0.347 0.408,1.495 0,1.313 0.066,1.495 0.543,1.495 0.478,0 0.543,0.181 0.543,1.495 0,1.313 0.066,1.495 0.543,1.495 0.478,0 0.543,0.181 0.543,1.495 0,1.147 0.095,1.495 0.408,1.495 0.305,0 0.409,0.326 0.411,1.291 0.005,1.678 0.24,2.514 0.707,2.514 0.242,0 0.377,0.314 0.38,0.883 0.005,1.291 0.279,2.106 0.707,2.106 0.278,0 0.376,0.423 0.376,1.63 0,1.268 0.091,1.63 0.408,1.63 0.248,0 0.408,0.253 0.408,0.645 0,1.224 0.341,2.344 0.713,2.344 0.212,0 0.374,0.279 0.374,0.645 0,1.224 0.341,2.344 0.713,2.344 0.272,0 0.374,0.408 0.374,1.495 0,1.147 0.095,1.495 0.408,1.495 0.278,0 0.409,0.281 0.411,0.883 0.005,1.291 0.279,2.106 0.707,2.106 0.274,0 0.376,0.403 0.376,1.495 0,1.313 0.066,1.495 0.543,1.495 0.478,0 0.543,0.181 0.543,1.495 0,1.313 0.066,1.495 0.543,1.495 0.478,0 0.543,0.181 0.543,1.495 0,1.147 0.095,1.495 0.408,1.495 0.313,0 0.408,0.347 0.408,1.495 0,1.313 0.066,1.495 0.543,1.495 0.478,0 0.543,0.181 0.543,1.495 0,1.313 0.066,1.495 0.543,1.495 0.478,0 0.543,0.181 0.543,1.495 0,1.147 0.095,1.495 0.408,1.495 0.313,0 0.408,0.347 0.408,1.495 0,1.313 0.066,1.495 0.543,1.495 0.483,0 0.543,0.181 0.543,1.63 0,1.449 0.06,1.63 0.543,1.63 0.478,0 0.543,0.181 0.543,1.495 0,1.147 0.095,1.495 0.408,1.495 0.308,0 0.408,0.332 0.408,1.359 v 1.359 h -4.484 c -3.804,0 -4.484,-0.062 -4.484,-0.408 0,-0.224 -0.183,-0.408 -0.408,-0.408 -0.314,0 -0.408,-0.35 -0.408,-1.52 0,-1.291 -0.082,-1.541 -0.543,-1.662 -0.459,-0.12 -0.543,-0.371 -0.543,-1.605 0,-1.119 -0.096,-1.463 -0.408,-1.463 -0.309,0 -0.408,-0.335 -0.408,-1.384 0,-1.156 -0.09,-1.408 -0.543,-1.526 -0.452,-0.118 -0.543,-0.371 -0.543,-1.495 0,-1.124 -0.092,-1.376 -0.543,-1.495 -0.459,-0.12 -0.543,-0.371 -0.543,-1.605 0,-1.119 -0.096,-1.463 -0.408,-1.463 -0.309,0 -0.408,-0.335 -0.408,-1.384 0,-1.156 -0.09,-1.408 -0.543,-1.526 -0.452,-0.118 -0.543,-0.371 -0.543,-1.495 0,-1.124 -0.092,-1.376 -0.543,-1.495 -0.459,-0.12 -0.543,-0.371 -0.543,-1.605 0,-1.119 -0.096,-1.463 -0.408,-1.463 -0.309,0 -0.408,-0.335 -0.408,-1.384 0,-1.156 -0.09,-1.408 -0.543,-1.526 -0.459,-0.12 -0.543,-0.371 -0.543,-1.605 v -1.463 H 86.056 70.431 v 1.495 c 0,1.147 -0.095,1.495 -0.408,1.495 -0.313,0 -0.408,0.347 -0.408,1.495 0,1.313 -0.066,1.495 -0.543,1.495 -0.478,0 -0.543,0.181 -0.543,1.495 0,1.313 -0.066,1.495 -0.543,1.495 -0.478,0 -0.543,0.181 -0.543,1.495 0,1.147 -0.095,1.495 -0.408,1.495 -0.313,0 -0.408,0.347 -0.408,1.495 0,1.313 -0.066,1.495 -0.543,1.495 -0.476,0 -0.543,0.181 -0.543,1.463 0,1.234 -0.085,1.485 -0.543,1.605 -0.452,0.118 -0.543,0.371 -0.543,1.495 0,1.124 -0.092,1.376 -0.543,1.495 -0.454,0.119 -0.543,0.371 -0.543,1.526 0,1.049 -0.099,1.384 -0.408,1.384 -0.312,0 -0.408,0.344 -0.408,1.463 0,1.234 -0.085,1.485 -0.543,1.605 -0.452,0.118 -0.543,0.371 -0.543,1.495 0,1.124 -0.092,1.376 -0.543,1.495 -0.299,0.078 -0.543,0.337 -0.543,0.575 0,0.378 -0.551,0.433 -4.348,0.433 h -4.348 v -1.359 z M 97.62,133.62 c 0,-1.313 -0.066,-1.495 -0.543,-1.495 -0.478,0 -0.543,-0.181 -0.543,-1.495 0,-1.147 -0.095,-1.495 -0.408,-1.495 -0.313,0 -0.408,-0.347 -0.408,-1.495 0,-1.313 -0.066,-1.495 -0.543,-1.495 -0.478,0 -0.543,-0.181 -0.543,-1.495 0,-1.313 -0.066,-1.495 -0.543,-1.495 -0.492,0 -0.543,-0.181 -0.543,-1.902 0,-1.51 -0.084,-1.902 -0.408,-1.902 -0.268,0 -0.408,-0.268 -0.408,-0.781 0,-1.35 -0.325,-2.48 -0.713,-2.48 -0.272,0 -0.374,-0.408 -0.374,-1.495 0,-1.313 -0.066,-1.495 -0.543,-1.495 -0.478,0 -0.543,-0.181 -0.543,-1.495 0,-1.147 -0.095,-1.495 -0.408,-1.495 -0.248,0 -0.408,-0.253 -0.408,-0.645 0,-1.224 -0.341,-2.344 -0.713,-2.344 -0.272,0 -0.374,-0.408 -0.374,-1.495 0,-1.313 -0.066,-1.495 -0.543,-1.495 -0.478,0 -0.543,-0.181 -0.543,-1.495 0,-1.147 -0.095,-1.495 -0.408,-1.495 -0.226,0 -0.408,-0.242 -0.408,-0.543 0,-0.399 -0.181,-0.543 -0.679,-0.543 -0.498,0 -0.679,0.145 -0.679,0.543 0,0.302 -0.181,0.543 -0.408,0.543 -0.313,0 -0.408,0.347 -0.408,1.495 0,1.091 -0.101,1.495 -0.376,1.495 -0.428,0 -0.702,0.815 -0.707,2.106 -0.002,0.566 -0.138,0.883 -0.377,0.883 -0.373,0 -0.713,1.12 -0.713,2.344 0,0.393 -0.16,0.645 -0.408,0.645 -0.313,0 -0.408,0.347 -0.408,1.495 0,1.087 -0.102,1.495 -0.374,1.495 -0.373,0 -0.713,1.12 -0.713,2.344 0,0.366 -0.161,0.645 -0.374,0.645 -0.388,0 -0.713,1.13 -0.713,2.48 0,0.513 -0.14,0.781 -0.408,0.781 -0.313,0 -0.408,0.347 -0.408,1.495 0,1.091 -0.101,1.495 -0.376,1.495 -0.428,0 -0.702,0.815 -0.707,2.106 -0.002,0.569 -0.137,0.883 -0.38,0.883 -0.428,0 -0.702,0.815 -0.707,2.106 -0.002,0.602 -0.133,0.883 -0.411,0.883 -0.323,0 -0.408,0.393 -0.408,1.902 0,1.721 -0.052,1.902 -0.543,1.902 -0.478,0 -0.543,0.181 -0.543,1.495 v 1.495 h 11.549 11.549 v -1.495 z" style="opacity:0.99"/></g></svg>