<?xml version="1.0" encoding="UTF-8" standalone="no"?>
<svg
   xmlns:dc="http://purl.org/dc/elements/1.1/"
   xmlns:cc="http://creativecommons.org/ns#"
   xmlns:rdf="http://www.w3.org/1999/02/22-rdf-syntax-ns#"
   xmlns:svg="http://www.w3.org/2000/svg"
   xmlns="http://www.w3.org/2000/svg"
   xmlns:sodipodi="http://sodipodi.sourceforge.net/DTD/sodipodi-0.dtd"
   xmlns:inkscape="http://www.inkscape.org/namespaces/inkscape"
   viewBox="0 0 256 256"
   id="svg2"
   version="1.1"
   inkscape:version="0.48.4 r9939"
   width="100%"
   height="100%"
   sodipodi:docname="about.svg">
  <metadata
     id="metadata14">
    <rdf:RDF>
      <cc:Work
         rdf:about="">
        <dc:format>image/svg+xml</dc:format>
        <dc:type
           rdf:resource="http://purl.org/dc/dcmitype/StillImage" />
        <dc:title></dc:title>
      </cc:Work>
    </rdf:RDF>
  </metadata>
  <sodipodi:namedview
     pagecolor="#ffffff"
     bordercolor="#666666"
     borderopacity="1"
     objecttolerance="10"
     gridtolerance="10"
     guidetolerance="10"
     inkscape:pageopacity="0"
     inkscape:pageshadow="2"
     inkscape:window-width="688"
     inkscape:window-height="496"
     id="namedview12"
     showgrid="false"
     inkscape:zoom="0.921875"
     inkscape:cx="120.13559"
     inkscape:cy="126.37288"
     inkscape:window-x="562"
     inkscape:window-y="229"
     inkscape:window-maximized="0"
     inkscape:current-layer="svg2" />
  <defs
     id="defs4">
    <clipPath
       id="clipPath6">
      <path
         transform="matrix(15.33333 0 0 11.5 415 -125.5)"
         d="m -24 13 c 0 1.105 -0.672 2 -1.5 2 -0.828 0 -1.5 -0.895 -1.5 -2 0 -1.105 0.672 -2 1.5 -2 0.828 0 1.5 0.895 1.5 2 z"
         id="path8" />
    </clipPath>
    <clipPath
       clipPathUnits="userSpaceOnUse"
       id="clipPath230">
      <path
         d="M 0,512 512,512 512,0 0,0 0,512 Z"
         id="path232" />
    </clipPath>
    <radialGradient
       fx="0"
       fy="0"
       cx="0"
       cy="0"
       r="1"
       gradientUnits="userSpaceOnUse"
       gradientTransform="matrix(268.66852,0,0,-268.66852,254,371.33334)"
       spreadMethod="pad"
       id="radialGradient218">
      <stop
         style="stop-opacity:1;stop-color:#009591"
         offset="0"
         id="stop220" />
      <stop
         style="stop-opacity:1;stop-color:#39b54a"
         offset="1"
         id="stop222" />
    </radialGradient>
    <radialGradient
       fx="0"
       fy="0"
       cx="0"
       cy="0"
       r="1"
       gradientUnits="userSpaceOnUse"
       gradientTransform="matrix(-188.28767,188.39421,130.38168,130.30179,255.92499,255.99377)"
       spreadMethod="pad"
       id="radialGradient180">
      <stop
         style="stop-opacity:1;stop-color:#010101"
         offset="0"
         id="stop182" />
      <stop
         style="stop-opacity:1;stop-color:#010101"
         offset="0.8587"
         id="stop184" />
      <stop
         style="stop-opacity:1;stop-color:#010101"
         offset="1"
         id="stop186" />
    </radialGradient>
    <mask
       maskUnits="userSpaceOnUse"
       x="0"
       y="0"
       width="1"
       height="1"
       id="mask168">
      <g
         id="g170">
        <g
           id="g172">
          <g
             id="g174">
            <g
               id="g176">
              <path
                 d="m -32768,32767 65535,0 0,-65535 -65535,0 0,65535 z"
                 style="fill:url(#radialGradient160);stroke:none"
                 id="path178" />
            </g>
          </g>
        </g>
      </g>
    </mask>
    <radialGradient
       fx="0"
       fy="0"
       cx="0"
       cy="0"
       r="1"
       gradientUnits="userSpaceOnUse"
       gradientTransform="matrix(-188.28767,188.39421,130.38168,130.30179,255.92499,255.99377)"
       spreadMethod="pad"
       id="radialGradient160">
      <stop
         style="stop-opacity:1;stop-color:#ffffff"
         offset="0"
         id="stop162" />
      <stop
         style="stop-opacity:0.14129854;stop-color:#ffffff"
         offset="0.8587"
         id="stop164" />
      <stop
         style="stop-opacity:0;stop-color:#ffffff"
         offset="1"
         id="stop166" />
    </radialGradient>
    <clipPath
       clipPathUnits="userSpaceOnUse"
       id="clipPath152">
      <path
         d="m 63.01,63.029 c 59.697,-59.697 326.183,-59.697 385.88,0 59.697,59.697 59.697,326.183 0,385.88 -59.697,59.696 -326.183,59.696 -385.88,0.1 -59.697,-59.597 -59.597,-326.283 0,-385.98"
         id="path154" />
    </clipPath>
    <clipPath
       clipPathUnits="userSpaceOnUse"
       id="clipPath148">
      <path
         d="m 18.275,493.694 475.387,0 0,-475.4377 -475.387,0 0,475.4377 z"
         id="path150" />
    </clipPath>
    <radialGradient
       fx="0"
       fy="0"
       cx="0"
       cy="0"
       r="1"
       gradientUnits="userSpaceOnUse"
       gradientTransform="matrix(188.25467,188.36119,-130.35883,130.27895,256.02499,256.04376)"
       spreadMethod="pad"
       id="radialGradient118">
      <stop
         style="stop-opacity:1;stop-color:#010101"
         offset="0"
         id="stop120" />
      <stop
         style="stop-opacity:1;stop-color:#010101"
         offset="0.8587"
         id="stop122" />
      <stop
         style="stop-opacity:1;stop-color:#010101"
         offset="1"
         id="stop124" />
    </radialGradient>
    <mask
       maskUnits="userSpaceOnUse"
       x="0"
       y="0"
       width="1"
       height="1"
       id="mask106">
      <g
         id="g108">
        <g
           id="g110">
          <g
             id="g112">
            <g
               id="g114">
              <path
                 d="m -32768,32767 65535,0 0,-65535 -65535,0 0,65535 z"
                 style="fill:url(#radialGradient98);stroke:none"
                 id="path116" />
            </g>
          </g>
        </g>
      </g>
    </mask>
    <radialGradient
       fx="0"
       fy="0"
       cx="0"
       cy="0"
       r="1"
       gradientUnits="userSpaceOnUse"
       gradientTransform="matrix(188.25467,188.36119,-130.35883,130.27895,256.02499,256.04376)"
       spreadMethod="pad"
       id="radialGradient98">
      <stop
         style="stop-opacity:1;stop-color:#ffffff"
         offset="0"
         id="stop100" />
      <stop
         style="stop-opacity:0.14129854;stop-color:#ffffff"
         offset="0.8587"
         id="stop102" />
      <stop
         style="stop-opacity:0;stop-color:#ffffff"
         offset="1"
         id="stop104" />
    </radialGradient>
    <clipPath
       clipPathUnits="userSpaceOnUse"
       id="clipPath90">
      <path
         d="M 448.99,63.029 C 389.293,3.332 122.807,3.332 63.11,63.029 3.413,122.726 3.413,389.312 63.01,449.009 c 59.597,59.696 326.283,59.596 385.98,0 59.697,-59.597 59.597,-326.283 0,-385.98"
         id="path92" />
    </clipPath>
    <clipPath
       clipPathUnits="userSpaceOnUse"
       id="clipPath86">
      <path
         d="m 18.325,493.744 475.4,0 0,-475.4877 -475.4,0 0,475.4877 z"
         id="path88" />
    </clipPath>
    <radialGradient
       fx="0"
       fy="0"
       cx="0"
       cy="0"
       r="1"
       gradientUnits="userSpaceOnUse"
       gradientTransform="matrix(237.72188,0,0,237.72188,256.02499,256)"
       spreadMethod="pad"
       id="radialGradient56">
      <stop
         style="stop-opacity:1;stop-color:#010101"
         offset="0"
         id="stop58" />
      <stop
         style="stop-opacity:1;stop-color:#010101"
         offset="0.8587"
         id="stop60" />
      <stop
         style="stop-opacity:1;stop-color:#010101"
         offset="1"
         id="stop62" />
    </radialGradient>
    <mask
       maskUnits="userSpaceOnUse"
       x="0"
       y="0"
       width="1"
       height="1"
       id="mask44">
      <g
         id="g46">
        <g
           id="g48">
          <g
             id="g50">
            <g
               id="g52">
              <path
                 d="m -32768,32767 65535,0 0,-65535 -65535,0 0,65535 z"
                 style="fill:url(#radialGradient36);stroke:none"
                 id="path54" />
            </g>
          </g>
        </g>
      </g>
    </mask>
    <radialGradient
       fx="0"
       fy="0"
       cx="0"
       cy="0"
       r="1"
       gradientUnits="userSpaceOnUse"
       gradientTransform="matrix(237.72188,0,0,237.72188,256.02499,256)"
       spreadMethod="pad"
       id="radialGradient36">
      <stop
         style="stop-opacity:1;stop-color:#ffffff"
         offset="0"
         id="stop38" />
      <stop
         style="stop-opacity:0.14129854;stop-color:#ffffff"
         offset="0.8587"
         id="stop40" />
      <stop
         style="stop-opacity:0;stop-color:#ffffff"
         offset="1"
         id="stop42" />
    </radialGradient>
    <clipPath
       clipPathUnits="userSpaceOnUse"
       id="clipPath28">
      <path
         d="M 448.99,63.029 C 389.293,3.332 122.807,3.332 63.11,63.029 3.413,122.726 3.413,389.312 63.01,449.009 c 59.597,59.696 326.283,59.596 385.98,0 59.697,-59.597 59.597,-326.283 0,-385.98"
         id="path30" />
    </clipPath>
    <clipPath
       clipPathUnits="userSpaceOnUse"
       id="clipPath24">
      <path
         d="m 18.325,493.744 475.4,0 0,-475.4877 -475.4,0 0,475.4877 z"
         id="path26" />
    </clipPath>
    <clipPath
       clipPathUnits="userSpaceOnUse"
       id="clipPath16">
      <path
         d="M 0,512 512,512 512,0 0,0 0,512 Z"
         id="path18" />
    </clipPath>
  </defs>
  <path
     d="M 33.674803,216.41632 C -111.5052,-5.1436759 285.0248,-90.883676 253.4348,137.04632 c -12.881,92.96 -164.229997,164.13 -219.759997,79.37 z"
     style="color:#000000;fill:#ffffff"
     id="path10"
     inkscape:connector-curvature="0" />
  <g
     id="g10"
     transform="matrix(1.2162345,0,0,-1.2338793,-159.09546,445.98652)"
     style="fill:#ff4500">
    <g
       id="g226"
       transform="matrix(0.42178414,0,0,0.44172263,127.6301,146.39025)"
       style="fill:#ff4500">
      <g
         id="g228"
         clip-path="url(#clipPath230)"
         style="fill:#ff4500">
        <g
           id="g234"
           transform="translate(280.5621,309.4401)"
           style="fill:#ff4500">
          <path
             d="m 0,0 c -12.21,0.001 -20.249,8.044 -20.249,20.256 0,13.098 11.311,23.813 24.408,23.813 11.913,0 20.545,-8.033 20.545,-20.245 C 24.704,10.124 13.392,0 0,0 m -51.204,-150.949 c -10.721,0 -18.162,5.056 -18.162,16.371 0,14.291 10.121,38.707 12.209,43.773 l 20.834,52.406 c 2.09,5.351 -0.591,8.032 -2.977,8.032 -11.015,0 -25.304,-25.903 -30.655,-25.903 -2.089,0 -3.873,2.09 -3.873,3.874 0,5.362 13.096,17.861 16.969,21.735 11.905,11.314 27.386,19.948 44.649,19.948 12.801,0 26.498,-7.737 15.777,-36.625 l -21.432,-58.056 c -1.784,-4.465 -5.057,-11.916 -5.057,-16.678 0,-2.079 1.184,-4.168 3.566,-4.168 8.928,0 25.305,25.312 29.475,25.312 1.488,0 3.565,-1.784 3.565,-4.465 0,-8.633 -34.822,-45.556 -64.888,-45.556 m 26.642,249.842 c -84.131,0 -152.333,-68.202 -152.333,-152.333 0,-84.131 68.202,-152.333 152.333,-152.333 84.131,0 152.333,68.202 152.333,152.333 0,84.131 -68.202,152.333 -152.333,152.333"
             style="fill:#ff4500;fill-opacity:1;fill-rule:nonzero;stroke:none"
             id="path236"
             inkscape:connector-curvature="0" />
        </g>
      </g>
    </g>
  </g>
</svg>
