<svg xmlns="http://www.w3.org/2000/svg" viewBox="0 0 256 256"><g transform="translate(0 -796.36)"><rect width="152.68" height="149.64" x="49.04" y="855.2" rx="12.231" ry="5.698" style="fill:#fff;stroke-width:1"/><g><path d="m 122.74 1050.9 c -59.3 -10.443 -113.03 -61.54 -121.74 -115.77 -2.028 -12.62 -0.836 -34.629 2.479 -45.769 c 9.999 -33.607 33.18 -62.22 62.811 -77.53 29.41 -15.189 59.3 -16.52 90.996 -4.05 37.813 14.874 72.67 51.3 87.26 91.17 5.923 16.191 8.341 29.18 8.368 44.952 0.025 15.219 -1.095 22.949 -5.05 34.85 -12.345 37.13 -45.33 65.47 -84.08 72.26 -10.467 1.833 -30.27 1.774 -41.03 -0.122 z m -4.546 -104.39 c 0 -33.685 -0.237 -40.4 -1.483 -42.05 -1.093 -1.445 -1.492 -4.924 -1.515 -13.22 l -0.032 -11.259 l -4.798 -3.077 c -12.287 -7.881 -24.649 -11.63 -38.638 -11.719 l -9.596 -0.061 l -0.288 11.602 c -0.158 6.381 -0.727 12.04 -1.263 12.576 -0.594 0.594 -0.975 17 -0.975 42.03 v 41.06 l 11.364 0.624 c 13.42 0.736 19.801 2.439 30.05 8.02 14.642 7.969 14.397 7.866 15.831 6.676 1.074 -0.891 1.342 -9.106 1.342 -41.2 z m 9.861 0.098 l 0.264 -40.717 l -2.284 0.324 l -2.284 0.324 l -0.281 38.39 c -0.155 21.11 -0.025 39.439 0.289 40.726 0.37 1.519 1.177 2.223 2.302 2.01 1.596 -0.307 1.752 -3.522 1.996 -41.05 z m 64.7 32.915 l -0.311 -4.293 l -28.537 -0.268 l -28.537 -0.268 v 4.562 v 4.561 h 28.847 h 28.847 l -0.311 -4.293 z m 0.194 -12.879 v -4.04 h -28.789 h -28.789 v 4.04 v 4.04 h 28.789 h 28.789 v -4.04 z m -25.25 -13.13 v -4.04 h -16.16 h -16.16 v 4.04 v 4.04 h 16.16 h 16.16 v -4.04 z m 0 -12.12 v -4.04 h -16.16 h -16.16 v 4.04 v 4.04 h 16.16 h 16.16 v -4.04 z m 0 -13.13 v -4.04 h -16.16 h -16.16 v 4.04 v 4.04 h 16.16 h 16.16 v -4.04 z m 25.25 -12.12 v -4.04 h -28.789 h -28.789 v 4.04 v 4.04 h 28.789 h 28.789 v -4.04 z" style="fill:#fff"/><g style="fill:#ff4500"><path d="m 103.46 185.5 c -12.445 -6.572 -18.76 -8.328 -32.926 -9.156 l -10.859 -0.635 l 0.059 -20.806 c 0.059 -20.573 1.387 -60 2.599 -77.12 l 0.626 -8.839 l 3.661 0.008 c 7.537 0.016 20.243 1.962 26.492 4.058 7.822 2.624 21.11 10 21.11 11.719 0 0.72 -2.41 -0.21 -5.748 -2.22 c -11.251 -6.775 -26.03 -10.835 -37.578 -10.324 c -5.897 0.261 -6.713 0.543 -6.98 2.414 -0.283 1.984 0.399 2.19 10.784 3.247 11.681 1.189 19.911 3.486 29.925 8.353 8.07 3.923 9.202 4.916 10.07 8.849 l 0.735 3.345 l -4.188 -3.034 c -9.537 -6.909 -26.919 -12.222 -40.09 -12.254 c -7.171 -0.017 -7.211 -0.002 -7.635 2.883 l -0.426 2.901 l 10.665 1.107 c 13.641 1.416 20.581 3.27 31.97 8.54 l 9.183 4.249 l 1.212 5.556 c 0.855 3.921 1.125 16.847 0.919 43.928 -0.254 33.23 -0.496 38.39 -1.808 38.512 -0.833 0.077 -6.131 -2.298 -11.773 -5.278 z" transform="translate(0 796.36)"/><path d="m 124.24 986.95 c -1.062 -0.42 -1.932 -18.643 -1.932 -40.496 0 -34.644 0.495 -39.733 3.863 -39.733 3.371 0 3.825 4.801 3.559 37.628 -0.293 36.22 -1.328 44.25 -5.49 42.601 z"/><g transform="translate(0 796.36)"><path d="m 135.44 119.95 v -3.536 h 28.28 h 28.28 v 3.536 v 3.536 h -28.28 h -28.28 v -3.536 z"/><path d="m 135.44 132.08 v -3.536 h 15.657 h 15.657 v 3.536 v 3.536 h -15.657 h -15.657 v -3.536 z"/><path d="m 135.44 145.21 v -3.536 h 15.657 h 15.657 v 3.536 v 3.536 h -15.657 h -15.657 v -3.536 z"/><path d="m 135.44 157.33 v -3.536 h 15.657 h 15.657 v 3.536 v 3.536 h -15.657 h -15.657 v -3.536 z"/></g><path d="m 135.62 979 v -4.04 h 28.28 h 28.28 v 4.04 v 4.04 h -28.28 h -28.28 v -4.04 z"/><path d="m 135.62 966.64 v -4.04 h 28.28 h 28.28 v 4.04 v 4.04 h -28.28 h -28.28 v -4.04 z"/></g></g></g></svg>