<svg xmlns="http://www.w3.org/2000/svg" viewBox="0 0 256 256"><path d="m 223.46 38.523 c 146.42 225.37 -253.5 312.59 -221.64 80.74 12.991 -94.56 165.63 -166.95 221.64 -80.74 z" fill="#fff" color="#000"/><g transform="matrix(1.3784 0 0 1.35083 -57.653 -27.786)" fill="#ff4500"><path d="m 131.49 177.41 c -2.802 -1.158 -5.357 -4.877 -5.357 -7.797 0 -4.215 3.877 -6.838 11.11 -7.513 17.985 -1.679 33.634 -13.927 39.554 -30.956 2.463 -7.085 2.489 -21.367 0.052 -28.368 -2.215 -6.364 -6.933 -13.907 -9.585 -15.327 -1.726 -0.924 -2.848 -0.296 -8.02 4.493 -7.432 6.881 -8.05 8.532 -4.68 12.534 3.165 3.761 3.297 7.285 0.351 9.348 -1.741 1.219 -5.101 1.557 -15.5 1.557 -17.97 0 -17.278 0.759 -17.278 -18.929 0 -12.238 0.283 -15.212 1.571 -16.5 2.354 -2.354 4.01 -1.944 8.487 2.1 l 4.064 3.672 10.689 -10.613 c 5.879 -5.837 11.817 -10.886 13.196 -11.219 5.901 -1.427 20.359 12.367 26.988 25.748 13.83 27.917 4.685 61.67 -21.334 78.74 -9.746 6.395 -28.642 11.367 -34.3 9.03 z m -34.37 -11.389 c -20.631 -15.15 -29.613 -43.642 -21.478 -68.14 3.51 -10.571 7.08 -16.24 15.472 -24.593 11.477 -11.419 23.967 -16.871 38.707 -16.895 6.307 -0.001 7.385 0.262 8.75 2.211 2.07 2.955 1.97 7.05 -0.238 9.772 -1.394 1.721 -3.782 2.535 -10.687 3.64 -11.219 1.797 -19.66 5.868 -26.753 12.906 -12.867 12.765 -16.991 31.09 -10.752 47.761 2.266 6.06 7.214 13.463 9.608 14.382 0.999 0.383 3.401 -1.248 6.846 -4.651 7.795 -7.699 8.248 -8.893 5.115 -13.509 -2.792 -4.114 -3.282 -7.424 -1.381 -9.325 0.829 -0.829 5.926 -1.2 16.465 -1.2 14.07 0 15.346 0.152 16.3 1.934 1.504 2.81 1.361 31.34 -0.165 32.866 -1.922 1.922 -5.414 1.395 -8.618 -1.3 -1.634 -1.375 -3.555 -2.5 -4.27 -2.5 -0.714 0 -5.872 4.5 -11.461 10 -11.889 11.699 -13.775 12.283 -21.46 6.641 z"/><path d="m 124.3 211.33 c -3.636 -1.469 -6.929 -6.455 -6.929 -10.489 0 -4.812 4.161 -7.405 14.547 -9.06 21.349 -3.412 36.64 -12.553 47.16 -28.2 7.415 -11.02 9.813 -19.13 9.856 -33.3 0.045 -15.1 -4.03 -27.529 -12.01 -36.617 -4.82 -5.49 -7.02 -5.03 -16.04 3.315 -8.848 8.192 -10.02 10.866 -6.767 15.434 4.235 5.948 4.675 8.509 1.997 11.614 -2.279 2.642 -3.123 2.823 -16.03 3.429 -15.692 0.738 -23.14 -0.09 -25.93 -2.88 -2.674 -2.674 -3.718 -14.11 -2.731 -29.912 1.097 -17.562 2.861 -19.01 13.03 -10.733 l 6.087 4.958 11.04 -10.702 c 20.758 -20.12 21.869 -20.768 29.23 -16.961 4.504 2.329 15.05 12.404 20.84 19.916 24.86 32.23 21.586 78.25 -7.602 106.85 -4.262 4.176 -10.556 9.264 -13.986 11.307 -7.671 4.567 -21.314 9.509 -31.912 11.56 -8.964 1.735 -10.604 1.791 -13.856 0.477 l 0 0 z" transform="matrix(0.72548 0 0 0.74029 41.826 20.57)" fill="#dc143c" stroke="#dc143c" stroke-width="1.085"/></g></svg>