<svg xmlns="http://www.w3.org/2000/svg" viewBox="0 0 256 256"><defs><clipPath id="0"><rect width="46" height="46" x="1" y="0.998" rx="4" style="fill:#1890d0"/></clipPath><clipPath><rect width="46" height="46" x="1" y="0.998" rx="4" style="fill:#1890d0"/></clipPath></defs><g transform="translate(0 -796.36)"><path d="m 211.17 833.49 c 201.82 266.38 -353.59 304.22 -175.35 32.31 40.634 -61.991 121.89 -102.86 175.35 -32.31 z" style="fill:#fff;color:#000"/><g transform="matrix(6.53891 0 0 6.47002 -26.11 778.99)" style="clip-path:url(#0);fill:#ff4500"><g transform="translate(0 -1)"><path d="m 18.07 24.02 c 0 2.207 -1.793 4 -4 4 -2.211 0 -4 -1.793 -4 -4 0 -2.211 1.789 -4 4 -4 2.207 0 4 1.789 4 4"/><path d="m 25 27 c 0 3.313 -2.688 6 -6 6 -3.316 0 -6 -2.688 -6 -6 0 -3.316 2.684 -6 6 -6 3.313 0 6 2.684 6 6" style="fill:#ffdead"/><path d="m 29.62 24.18 c 0 2.207 1.789 4 4 4 2.207 0 4 -1.793 4 -4 0 -2.211 -1.793 -4 -4 -4 -2.211 0 -4 1.789 -4 4"/><path d="m 35 27 c 0 3.313 -2.688 6 -6 6 -3.316 0 -6 -2.688 -6 -6 0 -3.316 2.684 -6 6 -6 3.313 0 6 2.684 6 6" style="fill:#ffdead"/><path d="m 22.845 31.608 c 0 1.904 -1.793 3.451 -4 3.451 -2.211 0 -4 -1.547 -4 -3.451 0 -1.908 1.789 -3.451 4 -3.451 2.207 0 4 1.544 4 3.451"/><path d="m 25.465 31.451 c 0 1.991 1.789 3.608 4 3.608 2.207 0 4 -1.617 4 -3.608 0 -1.994 -1.793 -3.608 -4 -3.608 -2.211 0 -4 1.614 -4 3.608"/><path d="m 30 21 c 0 3.313 -2.688 6 -6 6 -3.313 0 -6 -2.688 -6 -6 0 -3.313 2.688 -6 6 -6 3.313 0 6 2.688 6 6" style="fill:#ffdead"/><path d="m 30.24 18.724 c 0 3.195 -2.724 5.784 -6.086 5.784 -3.362 0 -6.086 -2.589 -6.086 -5.784 0 -3.195 2.724 -5.784 6.086 -5.784 3.362 0 6.086 2.589 6.086 5.784"/><rect width="14.424" height="5.486" x="17.02" y="19.896" rx="2.743" style="fill:#ffdead;fill-rule:evenodd"/></g></g></g></svg>