<svg xmlns="http://www.w3.org/2000/svg" viewBox="0 0 256 256"><defs><clipPath><rect width="46" height="46" x="1" y="1" rx="4" style="fill:#1890d0"/></clipPath><clipPath><rect width="46" height="46" x="1" y="1" rx="4" style="fill:#1890d0"/></clipPath><clipPath><rect width="46" height="46" x="1" y="1" rx="4" style="fill:#1890d0"/></clipPath><clipPath><rect width="46" height="46" x="1" y="1" rx="4" style="fill:#1890d0"/></clipPath><clipPath><rect width="46" height="46" x="1" y="1" rx="4" style="fill:#1890d0"/></clipPath><clipPath><rect width="46" height="46" x="1" y="1" rx="4" style="fill:#1890d0"/></clipPath><clipPath><rect width="46" height="46" x="1" y="1" rx="4" style="fill:#1890d0"/></clipPath><clipPath><rect width="46" height="46" x="1" y="1" rx="4" style="fill:#1890d0"/></clipPath><clipPath><rect width="46" height="46" x="1" y="1" rx="4" style="fill:#1890d0"/></clipPath><clipPath><rect width="46" height="46" x="1" y="1" rx="4" style="fill:#1890d0"/></clipPath><clipPath><rect width="46" height="46" x="1" y="1" rx="4" style="fill:#1890d0"/></clipPath><clipPath><rect width="46" height="46" x="1" y="1" rx="4" style="fill:#1890d0"/></clipPath><clipPath><rect width="46" height="46" x="1" y="1" rx="4" style="fill:#1890d0"/></clipPath><clipPath><rect width="46" height="46" x="1" y="1" rx="4" style="fill:#1890d0"/></clipPath><clipPath><rect width="46" height="46" x="1" y="1" rx="4" style="fill:#1890d0"/></clipPath><clipPath><rect width="46" height="46" x="1" y="1" rx="4" style="fill:#1890d0"/></clipPath><clipPath><rect width="46" height="46" x="1" y="1" rx="4" style="fill:#1890d0"/></clipPath><clipPath><rect width="46" height="46" x="1" y="1" rx="4" style="fill:#1890d0"/></clipPath><clipPath><rect width="46" height="46" x="1" y="1" rx="4" style="fill:#1890d0"/></clipPath><clipPath><rect width="46" height="46" x="1" y="1" rx="4" style="fill:#1890d0"/></clipPath><clipPath><rect width="46" height="46" x="1" y="1" rx="4" style="fill:#1890d0"/></clipPath><clipPath><rect width="46" height="46" x="1" y="1" rx="4" style="fill:#1890d0"/></clipPath><clipPath><rect width="46" height="46" x="1" y="1" rx="4" style="fill:#1890d0"/></clipPath><clipPath><rect width="46" height="46" x="1" y="1" rx="4" style="fill:#1890d0"/></clipPath><clipPath><rect width="46" height="46" x="1" y="1" rx="4" style="fill:#1890d0"/></clipPath><clipPath><rect width="46" height="46" x="1" y="1" rx="4" style="fill:#1890d0"/></clipPath><clipPath><rect width="46" height="46" x="1" y="1" rx="4" style="fill:#1890d0"/></clipPath><clipPath><rect width="46" height="46" x="1" y="1" rx="4" style="fill:#1890d0"/></clipPath><clipPath><rect width="46" height="46" x="1" y="1" rx="4" style="fill:#1890d0"/></clipPath><clipPath><rect width="46" height="46" x="1" y="1" rx="4" style="fill:#1890d0"/></clipPath><clipPath><rect width="46" height="46" x="1" y="1" rx="4" style="fill:#1890d0"/></clipPath><clipPath><rect width="46" height="46" x="1" y="1" rx="4" style="fill:#1890d0"/></clipPath><clipPath><rect width="46" height="46" x="1" y="1" rx="4" style="fill:#1890d0"/></clipPath><clipPath><rect width="46" height="46" x="1" y="1" rx="4" style="fill:#1890d0"/></clipPath><clipPath><rect width="46" height="46" x="1" y="1" rx="4" style="fill:#1890d0"/></clipPath><clipPath><rect width="46" height="46" x="1" y="1" rx="4" style="fill:#1890d0"/></clipPath><clipPath><rect width="46" height="46" x="1" y="1" rx="4" style="fill:#1890d0"/></clipPath><clipPath><rect width="46" height="46" x="1" y="1" rx="4" style="fill:#1890d0"/></clipPath><clipPath><rect width="46" height="46" x="1" y="1" rx="4" style="fill:#1890d0"/></clipPath><clipPath><rect width="46" height="46" x="1" y="1" rx="4" style="fill:#1890d0"/></clipPath><clipPath><rect width="46" height="46" x="1" y="1" rx="4" style="fill:#1890d0"/></clipPath><clipPath><rect width="46" height="46" x="1" y="1" rx="4" style="fill:#1890d0"/></clipPath><clipPath><rect width="46" height="46" x="1" y="1" rx="4" style="fill:#1890d0"/></clipPath><clipPath><rect width="46" height="46" x="1" y="1" rx="4" style="fill:#1890d0"/></clipPath><clipPath><rect width="46" height="46" x="1" y="1" rx="4" style="fill:#1890d0"/></clipPath><clipPath><rect width="46" height="46" x="1" y="1" rx="4" style="fill:#1890d0"/></clipPath><clipPath><rect width="46" height="46" x="1" y="1" rx="4" style="fill:#1890d0"/></clipPath><clipPath><rect width="46" height="46" x="1" y="1" rx="4" style="fill:#1890d0"/></clipPath><clipPath><rect width="46" height="46" x="1" y="1" rx="4" style="fill:#1890d0"/></clipPath><clipPath><rect width="46" height="46" x="1" y="1" rx="4" style="fill:#1890d0"/></clipPath><clipPath><rect width="46" height="46" x="1" y="1" rx="4" style="fill:#1890d0"/></clipPath><clipPath><rect width="46" height="46" x="1" y="1" rx="4" style="fill:#1890d0"/></clipPath><clipPath><rect width="46" height="46" x="1" y="1" rx="4" style="fill:#1890d0"/></clipPath><clipPath><rect width="46" height="46" x="1" y="1" rx="4" style="fill:#1890d0"/></clipPath><clipPath><rect width="46" height="46" x="1" y="1" rx="4" style="fill:#1890d0"/></clipPath><clipPath><rect width="46" height="46" x="1" y="1" rx="4" style="fill:#1890d0"/></clipPath><clipPath><rect width="46" height="46" x="1" y="1" rx="4" style="fill:#1890d0"/></clipPath><clipPath><path transform="matrix(15.33333 0 0 11.5 415 -125.5)" d="m -24 13 c 0 1.105 -0.672 2 -1.5 2 -0.828 0 -1.5 -0.895 -1.5 -2 0 -1.105 0.672 -2 1.5 -2 0.828 0 1.5 0.895 1.5 2 z"/></clipPath><clipPath><rect width="46" height="46" x="1" y="1" rx="4" style="fill:#1890d0"/></clipPath></defs><path d="m -1374.42 1658.71 c 127.95 -192.46 -280.09 -311 -226.07 -62.2 23.02 102.82 167.39 165.22 226.07 62.2 z" transform="matrix(0 1 -1 0 1711.59 1605.45)" style="fill:#fff;color:#000"/><g style="fill:#ff4500;fill-rule:evenodd"><path d="m 169.44 127.57 v -42.954 l 14.591 0.378 c 9.776 0.253 15.04 0.825 15.946 1.734 0.745 0.746 2.111 1.362 3.036 1.369 1.994 0.016 5.744 5.506 7.401 10.834 2.307 7.417 2.58 14.535 0.874 22.72 -2.593 12.436 -8.162 17.15 -21.702 18.357 l -7.671 0.686 l -0.302 14.915 l -0.302 14.915 h -5.935 h -5.935 v -42.954 z m 27.304 -3.316 c 1.652 -1.495 1.984 -3.489 1.984 -11.932 0 -12.896 -1.184 -14.476 -10.847 -14.476 h -6.508 v 14.1 v 14.1 h 6.694 c 4.707 0 7.283 -0.533 8.678 -1.795 z"/><path d="m 113.03 127.8 v -42.968 l 12.746 0.045 c 14.581 0.052 22.07 2.02 25.583 6.73 1.833 2.456 2.17 4.653 2.214 14.467 0.051 11.312 -0.014 11.625 -2.889 13.917 -3.618 2.885 -3.676 4.279 -0.327 7.89 8.318 8.971 6.935 33.12 -2.254 39.38 -3.684 2.509 -5.078 2.73 -19.52 3.104 l -15.552 0.402 v -42.968 z m 27.733 28.545 c 2.996 -3.311 3.597 -16.414 0.976 -21.282 -1.874 -3.48 -2.138 -3.588 -8.812 -3.588 h -6.88 v 13.559 v 13.559 h 6.34 c 5.04 0 6.759 -0.462 8.376 -2.249 z m -0.603 -40.33 c 3.696 -6.06 2.283 -16.575 -2.578 -19.18 -1.354 -0.725 -4.382 -1.161 -6.728 -0.969 l -4.266 0.348 l -0.308 11.661 l -0.308 11.661 h 6.02 c 5.626 0 6.159 -0.23 8.168 -3.525 z"/><path d="m 49.45 168.62 c 3.215 -10.801 7.631 -29.23 8.252 -34.441 0.427 -3.58 2.76 -14.319 5.185 -23.864 2.425 -9.546 4.715 -19.19 5.089 -21.424 l 0.68 -4.068 h 7.958 h 7.958 l 1.101 4.61 c 0.605 2.536 1.693 8.03 2.417 12.203 1.234 7.117 2.563 12.972 10.708 47.19 1.775 7.458 3.477 15.39 3.782 17.627 l 0.554 4.068 h -5.762 c -5.613 0 -5.78 -0.09 -6.456 -3.466 -0.381 -1.906 -1.193 -5.323 -1.805 -7.593 l -1.111 -4.127 h -11.89 c -11.01 0 -11.89 0.155 -11.89 2.087 0 1.148 -0.572 4.565 -1.271 7.593 l -1.271 5.506 h -6.395 c -5.583 0 -6.323 -0.241 -5.83 -1.898 z m 34.479 -33.36 c -0.309 -4.695 -6.233 -30.816 -7.211 -31.794 -0.581 -0.581 -8.161 31.941 -8.161 35.01 0 2.834 0.022 2.841 7.864 2.524 l 7.864 -0.319 l -0.357 -5.424 z"/></g></svg>