<svg xmlns="http://www.w3.org/2000/svg" viewBox="0 0 256 256"><g transform="translate(0 -796.36)"><path d="m 243.81 874.57 c -47.918 -119.62 -240.59 -81.92 -241.73 44.673 -7.29 103.86 119.18 160.18 192.6 110.81 c 50.621 -26.77 80.05 -97.94 49.12 -155.48 z" fill="#fff" color="#000"/><g transform="matrix(-0.97591 0.21632 -0.21817 -0.96764 454.88 1788.6)"><path d="m 198.98 128 a 70.985 70.985 0 1 1 -141.97 0 70.985 70.985 0 1 1 141.97 0 z" transform="matrix(0.53092 0 0 0.53092 60.04 856.4)" fill="#d6b7e3" color="#000"/><g fill="none" stroke-linecap="round" stroke-width="10"><path d="m 128 924.36 72.33 -41.758" stroke="#d6b7e3"/><path d="M 128,924.36 48.54,844.9" stroke="#ff4500"/></g><path d="m 142.36 128 a 14.355 14.355 0 1 1 -28.711 0 14.355 14.355 0 1 1 28.711 0 z" transform="matrix(1.42294 0 0 1.42294 -54.14 742.23)" fill="#ff7f50" color="#000"/></g><path d="m 129.75 884.86 c 23.31 1.021 40.31 23.03 34.877 45.16 -1.905 7.766 -1.191 7.579 -9.403 2.451 l -7.156 -4.47 0.526 -2.618 c 1.249 -6.222 -1.282 -13.665 -6.242 -18.353 -2.979 -2.816 -6.085 -4.431 -10.229 -5.319 -4.179 -0.895 -12.545 0.959 -15.942 3.534 -9.232 6.996 -11.159 19.967 -4.299 28.928 6.709 8.764 19.462 10.597 28.689 4.125 l 1.959 -1.374 7.03 4.405 c 3.865 2.423 6.949 4.632 6.852 4.909 -0.403 1.153 -6.552 6.03 -10.192 8.09 -3.03 1.71 -5.255 2.508 -9.807 3.517 -10.03 2.223 -19 0.718 -27.753 -4.655 l -4.681 -2.873 -17.215 15.718 c -18.03 16.463 -19.1 17.224 -22.15 15.721 -1.979 -0.974 -2.82 -4.23 -1.59 -6.152 0.471 -0.736 8.328 -8.14 17.461 -16.454 9.133 -8.313 16.74 -15.323 16.905 -15.577 0.165 -0.254 -0.578 -1.844 -1.65 -3.534 -1.591 -2.511 -2.238 -4.34 -3.521 -10.02 -1.394 -6.169 -1.508 -7.489 -1.014 -11.74 0.738 -6.341 2.455 -11.183 5.797 -16.343 3.222 -4.975 7.604 -9.24 12.33 -12 4.941 -2.887 14.738 -5.319 20.437 -5.069 z" fill="#ff4500"/></g></svg>