<svg xmlns="http://www.w3.org/2000/svg" viewBox="0 0 256 256"><g transform="translate(0 -796.36)"><path d="m 182.83 797.33 c -368.15 -25.644 -92.2 469.58 64.2 143.49 21.558 -50.25 5.804 -125.18 -64.2 -143.49 z" style="fill:#fff;color:#000"/><g transform="matrix(2.99018 0.89022 -0.93013 2.99312 -604.59 -1012.17)" style="fill:#ff4500"><circle cx="407.82" cy="523.9" r="22.389"/><path d="m 416.22 515.26 c -1.477 -2.192 -4.128 -3.464 -7.872 -3.781 h -0.006 c -0.276 -0.031 -0.541 -0.047 -0.788 -0.047 -1.887 0 -2.557 0.945 -2.557 1.754 v 14.08 c -0.742 -0.224 -1.539 -0.288 -2.325 -0.189 -1.37 0.173 -2.598 0.816 -3.457 1.812 -0.859 0.995 -1.246 2.223 -1.09 3.458 0.289 2.292 2.434 4.02 4.99 4.02 0.24 0 0.483 -0.015 0.724 -0.046 2.649 -0.334 4.572 -2.435 4.572 -4.996 v -13.817 c 0.199 -0.013 0.398 -0.02 0.592 -0.02 2.336 0 4.483 0.977 6.21 2.825 0.712 0.762 1.212 1.52 1.506 2.02 0.072 0.123 0.213 0.189 0.354 0.164 0.14 -0.025 0.251 -0.135 0.276 -0.275 0.283 -1.556 0.514 -4.529 -1.129 -6.965" style="fill:#ffdead;stroke-width:1.317"/></g></g></svg>