<svg xmlns="http://www.w3.org/2000/svg" viewBox="0 0 256 256"><defs><clipPath><path transform="matrix(15.33333 0 0 11.5 415 -125.5)" d="m -24 13 c 0 1.105 -0.672 2 -1.5 2 -0.828 0 -1.5 -0.895 -1.5 -2 0 -1.105 0.672 -2 1.5 -2 0.828 0 1.5 0.895 1.5 2 z"/></clipPath></defs><g transform="translate(-1.089 -0.535)"><g transform="matrix(1.71111 0 0 1.6629 -51.12 -634.24)" fill="#ff4500"><path d="m 84 456.36 v 30 c 0 18 3 18 30 18 h 6 c 27 0 30 0 30 -18 v -30 c 0 -18 -3 -18 -30 -18 h -6 c -27 0 -30 0 -30 18 z m 30 -12 h 6 c 24 0 24 0 24 12 v 21 c 0 12 0 12 -24 12 h -6 c -24 0 -24 0 -24 -12 v -21 c 0 -12 0 -12 24 -12 z"/><path d="m 96,477.91 v -11.636 l 10.5,-10.909 13.13,13.636 5.25,-5.454 13.13,13.636 v 0.727 c 0,5.455 -0.875,5.455 -10.5,5.455 h -21 c -9.625,0 -10.5,0 -10.5,-5.455 z"/><path d="m 78 34.5 a 4.5 4.5 0 1 1 -9 0 4.5 4.5 0 1 1 9 0 z" transform="matrix(1.3333 0 0 1.3333 34 410.36)" color="#000"/><path transform="translate(60 414.36)" d="M 42,12 C 15,12 12,12 12,30 v 30 c 0,9.758 0.891,14.235 6,16.281 V 51 36 30 C 18,19.134 18.181,18.128 36,18.031 V 18 h 6 6 28.531 C 73.886,12.002 66.718,12 48,12 h -6 z"/><path d="m 90,414.36 c -27,0 -30,0 -30,18 v 30 c 0,9.758 0.891,14.235 6,16.281 v -25.281 -15 -6 c 0,-10.866 0.181,-11.872 18,-11.969 v -0.031 h 6 6 28.531 c -2.646,-5.998 -9.813,-6 -28.531,-6 h -6 z"/></g><g transform="translate(1.085 -795.28)"><path d="m 195.84 822.18 c -130.93 -92.05 -263.6 77.948 -156.91 186.39 100.51 102.17 256.68 7.449 207.86 -119.69 -10.185 -26.526 -26.914 -49.802 -50.948 -66.7 z" fill="#fff" color="#000"/><path d="m 85.32 985.7 c -9.779 -4.13 -17.56 -11.873 -17.56 -17.489 0 -2.354 0.609 -4.638 1.354 -5.074 0.745 -0.436 1.358 -1.77 1.363 -2.964 0.004 -1.194 0.891 -3.774 1.969 -5.734 2.12 -3.852 4.349 -13.373 6.229 -26.602 0.652 -4.589 1.764 -11.809 2.47 -16.04 0.706 -4.236 1.379 -15.788 1.494 -25.672 0.115 -9.884 0.624 -18.932 1.13 -20.11 0.506 -1.175 3.315 -4.583 6.241 -7.572 l 5.32 -5.435 24.331 0.759 c 14.199 0.443 24.926 1.324 25.762 2.116 0.788 0.747 2.509 1.358 3.823 1.358 3.197 0 4.25 3.919 5.194 10.03 0.467 3.02 1.675 5.265 2.031 6.659 0.557 2.18 1.026 2.277 2.079 5.613 0.866 2.989 0.732 3.377 1.984 7.224 0.63 1.937 1.44 5.289 2.01 7.702 0.698 2.926 2.01 6.744 3.983 10.911 1.762 3.71 6.141 10.461 8.876 15.404 10.362 18.727 18.03 29.574 26.15 36.992 l 7.167 6.547 -0.396 7.622 c -0.334 6.419 -0.93 7.99 -3.782 9.954 -1.863 1.283 -5.01 2.594 -6.992 2.916 -1.983 0.32 -4.838 1.207 -6.344 1.971 -1.507 0.764 -6.995 1.389 -12.197 1.389 -9.249 0 -12.59 -0.994 -27.1 -8.07 -4.049 -1.974 -7.17 -9.633 -7.958 -19.533 -0.755 -9.481 -2.129 -11.301 -7.682 -10.177 -8.77 1.775 -3.512 4.279 -3.509 14.03 0.002 7.03 -0.32 0.756 0.843 8.938 -1.142 0.898 -0.527 3.457 -0.147 5.01 0.389 1.593 -0.436 4.086 -1.967 5.95 -2.586 3.148 -3.01 3.211 -22.01 3.305 -14.871 0.074 -20.489 -0.375 -24.16 -1.925 z m 41.695 -68.45 c 1.797 -2.136 2.99 -15.12 1.619 -17.605 -0.597 -1.083 -1.382 -2.901 -1.746 -4.04 -0.937 -2.936 -5.634 -3.755 -8.929 -1.568 -5.93 3.937 -1.936 24.816 4.747 24.816 1.628 0 3.566 -0.722 4.308 -1.605 z" fill="#ff4500"/></g></g></svg>