<svg xmlns="http://www.w3.org/2000/svg" viewBox="0 0 256 256"><defs><clipPath><path transform="matrix(15.33333 0 0 11.5 415 -125.5)" d="m -24 13 c 0 1.105 -0.672 2 -1.5 2 -0.828 0 -1.5 -0.895 -1.5 -2 0 -1.105 0.672 -2 1.5 -2 0.828 0 1.5 0.895 1.5 2 z"/></clipPath></defs><g transform="translate(0 -796.36)"><path d="m 52.06 1027.84 c 189.87 125.66 306.81 -275.06 61.36 -222.01 -101.43 22.604 -162.99 164.38 -61.36 222.01 z" style="fill:#fff;color:#000"/><g transform="matrix(4.27456 0 0 4.56004 21.937 814.11)"><path d="M 41 25 A 16 16 0 0 1 25 41 16 16 0 0 1 9 25 16 16 0 0 1 25 9 16 16 0 0 1 41 25 z" style="opacity:0.1"/><path d="M 40 24 A 16 16 0 0 1 24 40 16 16 0 0 1 8 24 16 16 0 0 1 24 8 16 16 0 0 1 40 24 z" style="fill:#ff4500"/><g style="fill:none;stroke-linecap:round;stroke-width:2.5"><path d="M 20.763,15.512 30.691,25 20.763,34.488" style="opacity:0.1;stroke:#000"/><path d="M 19.763,14.512 29.691,24 19.763,33.488" style="stroke:#ffdead"/></g></g></g></svg>