<svg xmlns="http://www.w3.org/2000/svg" viewBox="0 0 256 256"><path d="m -1067.28 1935.73 c 48.956 88.52 202.34 54.16 228.29 -18.719 30.922 -86.82 -49.563 -251.7 -185.88 -155.11 -45.916 33.728 -91.37 85.31 -42.41 173.83 z" transform="matrix(-1 0 0 -1 -832.39 1988.49)" fill="#fff" color="#000"/><g fill="#ff4500" stroke="#ff4500"><path d="m 61.32 170.42 c -2.597 -2.875 -7.654 -15.231 -7.668 -18.736 -0.017 -4.413 0.914 -5.3 8.425 -8.02 3.75 -1.36 8.805 -3.711 11.232 -5.224 5.462 -3.404 12.294 -13.177 12.315 -17.615 0.045 -9.458 5.565 -23.5 11.744 -29.874 l 3.624 -3.738 -1.65 -3.459 c -5.351 -11.221 -1.544 -25.35 8.603 -31.93 3.565 -2.312 5.089 -2.636 12.404 -2.636 6.353 0 9.269 0.474 12.242 1.991 14.357 7.324 16.15 30.334 3.2 41.01 -4.371 3.603 -2.749 3.918 5.41 1.05 6.887 -2.421 8.67 -1.737 13.358 5.121 4.762 6.966 4.704 11.06 -0.215 15.31 -3.67 3.173 -10.735 5.922 -18.235 7.096 l -4 0.626 4.5 3.602 c 12.136 9.715 24 24.943 24 30.806 0 4.168 -1.812 6.06 -10.368 10.849 -7.778 4.35 -9.173 4.155 -14.207 -1.989 -6.532 -7.971 -24.437 -20.233 -27.618 -18.913 -0.719 0.298 -3.1 2.808 -5.291 5.577 -5.057 6.392 -11.01 10.751 -21.649 15.856 -10.39 4.985 -17.543 6.136 -20.16 3.242 z m 56.29 -74.24 c 0 -0.55 -0.927 -1 -2.059 -1 -1.132 0 -1.781 0.45 -1.441 1 0.34 0.55 0.887 -1.66 1.679 -1.66 0.793 0 1.821 2.21 1.821 1.66 z m 3.81 -13.75 c -0.406 -2.108 -2.181 -1.975 -2.633 0.197 -0.189 0.906 1.503 -1.107 2.463 -1.107 1.03 0 0.38 2 0.17 0.91 z m -4.791 -28.431 c 2.37 -2.37 7.944 -0.264 4.581 -0.649 -4.177 -0.478 -7.754 0.534 -4.928 3.359 1.984 1.984 -1.677 -0.685 0.347 -2.71 z" transform="translate(9.999 6.072)"/></g></svg>