<svg xmlns="http://www.w3.org/2000/svg" viewBox="0 0 256 256" xmlns:xlink="http://www.w3.org/1999/xlink"><g transform="translate(13.636 -781.21)" style="fill:#fff;color:#000"><path d="m 203.5 961.32 c -19.386 -171.78 238.76 -167.36 254.81 3.059 9.145 160.39 -265.35 166.71 -254.81 -3.059 z" transform="matrix(0 -0.99211 0.99211 0 -838.5 1237.85)"/><g transform="matrix(0.93909 0 0 0.91759 -31.696 92.6)" style="fill:#ff4500"><path d="m 121.13,853.89 c -3.273,0 -5.908,2.635 -5.908,5.908 v 13.987 c -4.972,1.253 -9.668,3.222 -13.957,5.788 l -9.887,-9.887 c -2.315,-2.315 -6.04,-2.315 -8.35,0 l -9.706,9.706 c -2.315,2.315 -2.315,6.04 0,8.35 l 9.887,9.887 c -2.566,4.288 -4.534,8.985 -5.788,13.957 H 63.434 c -3.273,0 -5.908,2.635 -5.908,5.908 v 13.746 c 0,3.273 2.635,5.908 5.908,5.908 h 13.987 c 1.253,4.972 3.222,9.668 5.788,13.957 l -9.887,9.887 c -2.315,2.315 -2.315,6.04 0,8.35 l 9.706,9.706 c 2.315,2.315 6.04,2.315 8.35,0 l 9.887,-9.887 c 4.288,2.566 8.985,4.534 13.957,5.788 v 13.987 c 0,3.273 2.635,5.908 5.908,5.908 h 13.746 c 3.273,0 5.908,-2.635 5.908,-5.908 v -13.987 c 4.972,-1.253 9.668,-3.222 13.957,-5.788 l 9.887,9.887 c 2.315,2.315 6.04,2.315 8.35,0 l 9.706,-9.706 c 2.315,-2.315 2.315,-6.04 0,-8.35 l -9.887,-9.887 c 2.566,-4.288 4.534,-8.985 5.788,-13.957 h 13.987 c 3.273,0 5.908,-2.635 5.908,-5.908 v -13.746 c 0,-3.273 -2.635,-5.908 -5.908,-5.908 h -13.987 c -1.253,-4.972 -3.222,-9.668 -5.788,-13.957 l 9.887,-9.887 c 2.315,-2.315 2.315,-6.04 0,-8.35 l -9.706,-9.706 c -2.315,-2.315 -6.04,-2.315 -8.35,0 l -9.887,9.887 c -4.288,-2.566 -8.985,-4.534 -13.957,-5.788 v -13.987 c 0,-3.273 -2.635,-5.908 -5.908,-5.908 H 121.13 z m 6.873,46.39 c 13.308,0 24.09,10.777 24.09,24.09 0,13.308 -10.777,24.09 -24.09,24.09 -13.308,0 -24.09,-10.777 -24.09,-24.09 0,-13.308 10.777,-24.09 24.09,-24.09 z"/><path d="m 163.55 128 c 0 19.634 -15.917 35.551 -35.551 35.551 -19.634 0 -35.551 -15.917 -35.551 -35.551 0 -19.634 15.917 -35.551 35.551 -35.551 19.634 0 35.551 15.917 35.551 35.551 z" transform="matrix(0.90907 0 0 0.90907 11.639 808)" id="0" style="fill:#fff;stroke:#ffb6c1;stroke-width:17.6"/></g><g transform="matrix(0.61303 0 0 0.59153 66.859 303.85)"><path d="m 121.13,853.89 c -3.273,0 -5.908,2.635 -5.908,5.908 v 13.987 c -4.972,1.253 -9.668,3.222 -13.957,5.788 l -9.887,-9.887 c -2.315,-2.315 -6.04,-2.315 -8.35,0 l -9.706,9.706 c -2.315,2.315 -2.315,6.04 0,8.35 l 9.887,9.887 c -2.566,4.288 -4.534,8.985 -5.788,13.957 H 63.434 c -3.273,0 -5.908,2.635 -5.908,5.908 v 13.746 c 0,3.273 2.635,5.908 5.908,5.908 h 13.987 c 1.253,4.972 3.222,9.668 5.788,13.957 l -9.887,9.887 c -2.315,2.315 -2.315,6.04 0,8.35 l 9.706,9.706 c 2.315,2.315 6.04,2.315 8.35,0 l 9.887,-9.887 c 4.288,2.566 8.985,4.534 13.957,5.788 v 13.987 c 0,3.273 2.635,5.908 5.908,5.908 h 13.746 c 3.273,0 5.908,-2.635 5.908,-5.908 v -13.987 c 4.972,-1.253 9.668,-3.222 13.957,-5.788 l 9.887,9.887 c 2.315,2.315 6.04,2.315 8.35,0 l 9.706,-9.706 c 2.315,-2.315 2.315,-6.04 0,-8.35 l -9.887,-9.887 c 2.566,-4.288 4.534,-8.985 5.788,-13.957 h 13.987 c 3.273,0 5.908,-2.635 5.908,-5.908 v -13.746 c 0,-3.273 -2.635,-5.908 -5.908,-5.908 h -13.987 c -1.253,-4.972 -3.222,-9.668 -5.788,-13.957 l 9.887,-9.887 c 2.315,-2.315 2.315,-6.04 0,-8.35 l -9.706,-9.706 c -2.315,-2.315 -6.04,-2.315 -8.35,0 l -9.887,9.887 c -4.288,-2.566 -8.985,-4.534 -13.957,-5.788 v -13.987 c 0,-3.273 -2.635,-5.908 -5.908,-5.908 H 121.13 z m 6.873,46.39 c 13.308,0 24.09,10.777 24.09,24.09 0,13.308 -10.777,24.09 -24.09,24.09 -13.308,0 -24.09,-10.777 -24.09,-24.09 0,-13.308 10.777,-24.09 24.09,-24.09 z" style="fill:#ff4500"/><use xlink:href="#0"/></g></g></svg>