<svg xmlns="http://www.w3.org/2000/svg" viewBox="0 0 256 256"><g transform="translate(0 -796.36)"><path d="m 3.25 953.66 c 49.981 239.91 393.86 -17.642 187.29 -139.59 -80.25 -52.27 -213 16.2 -187.29 139.59 z" style="fill:#fff;color:#000"/><g transform="translate(0 796.36)" style="fill:#ff4500;fill-rule:evenodd"><path d="m 151.93 83.34 c 0 -0.317 -0.238 -0.577 -0.529 -0.577 -0.291 0 -0.633 -0.519 -0.76 -1.154 -0.135 -0.677 -0.473 -1.154 -0.818 -1.154 -0.33 0 -0.587 -0.336 -0.587 -0.769 0 -0.701 -0.256 -0.769 -2.885 -0.769 -2.308 0 -2.886 -0.115 -2.886 -0.577 0 -0.317 0.26 -0.577 0.577 -0.577 0.317 0 0.577 -0.26 0.577 -0.577 0 -0.317 0.26 -0.577 0.577 -0.577 0.468 0 0.577 -0.62 0.577 -3.27 0 -2.65 -0.109 -3.27 -0.577 -3.27 -0.317 0 -0.577 -0.26 -0.577 -0.577 0 -0.385 0.385 -0.577 1.154 -0.577 0.753 0 1.154 0.194 1.154 0.56 0 0.667 2.251 1.174 3.652 0.822 0.53 -0.133 0.964 -0.498 0.964 -0.812 0 -0.313 0.346 -0.57 0.769 -0.57 0.427 0 0.769 -0.256 0.769 -0.577 0 -0.317 0.231 -0.577 0.513 -0.577 0.355 0 0.513 0.558 0.513 1.806 0 1.034 0.192 1.87 0.449 1.956 0.247 0.082 0.449 0.655 0.449 1.272 0 0.99 0.136 1.122 1.154 1.122 0.898 0 1.154 0.171 1.154 0.769 0 0.513 0.256 0.769 0.769 0.769 0.598 0 0.769 0.256 0.769 1.154 v 1.154 h -2.501 h -2.501 v 1.182 c 0 0.65 -0.26 1.441 -0.577 1.759 -0.317 0.317 -0.577 1.171 -0.577 1.896 0 0.725 -0.173 1.319 -0.385 1.319 -0.212 0 -0.385 -0.26 -0.385 -0.577 z"/><path d="m 76.81 184.07 c -0.634 -0.166 -0.673 -1.9 -0.673 -29.58 v -29.404 h -1.347 c -1.09 0 -1.347 0.147 -1.347 0.769 0 0.564 -0.256 0.769 -0.962 0.769 -0.598 0 -0.962 0.218 -0.962 0.577 0 0.317 -0.26 0.577 -0.577 0.577 -0.317 0 -0.577 0.26 -0.577 0.577 0 0.321 -0.342 0.577 -0.769 0.577 -0.427 0 -0.769 0.256 -0.769 0.577 0 0.317 -0.26 0.577 -0.577 0.577 -0.321 0 -0.577 0.342 -0.577 0.769 0 0.598 -0.256 0.769 -1.154 0.769 -0.769 0 -1.154 0.192 -1.154 0.577 0 0.317 -0.26 0.577 -0.577 0.577 -0.317 0 -0.577 0.26 -0.577 0.577 0 0.317 -0.26 0.577 -0.577 0.577 -0.317 0 -0.577 0.26 -0.577 0.577 0 0.385 -0.385 0.577 -1.154 0.577 -0.898 0 -1.154 0.171 -1.154 0.769 0 0.427 -0.256 0.769 -0.577 0.769 -0.317 0 -0.577 0.26 -0.577 0.577 0 0.317 -0.26 0.577 -0.577 0.577 -0.317 0 -0.577 0.26 -0.577 0.577 0 0.385 -0.385 0.577 -1.154 0.577 -0.769 0 -1.154 -0.192 -1.154 -0.577 0 -0.317 -0.26 -0.577 -0.577 -0.577 -0.317 0 -0.577 -0.26 -0.577 -0.577 0 -0.317 -0.26 -0.577 -0.577 -0.577 -0.317 0 -0.577 -0.26 -0.577 -0.577 0 -0.331 0.347 -0.577 0.811 -0.577 0.895 0 2.634 -1.455 2.645 -2.212 0.004 -0.264 0.266 -0.481 0.584 -0.481 0.317 0 0.577 -0.26 0.577 -0.577 0 -0.385 0.385 -0.577 1.154 -0.577 0.769 0 1.154 -0.192 1.154 -0.577 0 -0.317 0.26 -0.577 0.577 -0.577 0.317 0 0.577 -0.26 0.577 -0.577 0 -0.317 0.26 -0.577 0.577 -0.577 0.321 0 0.577 -0.342 0.577 -0.769 0 -0.598 0.256 -0.769 1.154 -0.769 0.769 0 1.154 -0.192 1.154 -0.577 0 -0.321 0.342 -0.577 0.769 -0.577 0.427 0 0.769 -0.256 0.769 -0.577 0 -0.317 0.234 -0.577 0.521 -0.577 0.63 0 2.557 -1.726 2.557 -2.29 0 -0.222 0.346 -0.403 0.769 -0.403 0.427 0 0.769 -0.256 0.769 -0.577 0 -0.352 0.358 -0.577 0.917 -0.577 0.593 0 0.988 -0.272 1.118 -0.769 0.111 -0.423 0.477 -0.769 0.814 -0.769 0.337 0 0.613 -0.173 0.613 -0.385 0 -0.212 0.26 -0.385 0.577 -0.385 0.321 0 0.577 -0.342 0.577 -0.769 0 -0.765 0.256 -0.769 44.821 -0.769 44.565 0 44.821 0.004 44.821 0.769 0 0.425 0.256 0.769 0.573 0.769 0.741 0 2.12 1.182 2.12 1.817 0 0.27 0.433 0.492 0.962 0.492 0.598 0 0.962 0.218 0.962 0.577 0 0.321 0.342 0.577 0.769 0.577 0.423 0 0.769 0.181 0.769 0.403 0 0.648 1.971 2.29 2.749 2.29 0.392 0 0.713 0.26 0.713 0.577 0 0.317 0.26 0.577 0.577 0.577 0.317 0 0.577 0.26 0.577 0.577 0 0.385 0.385 0.577 1.154 0.577 0.898 0 1.154 0.171 1.154 0.769 0 0.427 0.256 0.769 0.577 0.769 0.317 0 0.577 0.26 0.577 0.577 0 0.317 0.26 0.577 0.577 0.577 0.317 0 0.577 0.26 0.577 0.577 0 0.385 0.385 0.577 1.154 0.577 0.769 0 1.154 0.192 1.154 0.577 0 0.317 0.26 0.577 0.577 0.577 0.317 0 0.58 0.216 0.584 0.481 0.011 0.757 1.749 2.212 2.645 2.212 0.465 0 0.811 0.247 0.811 0.577 0 0.317 -0.26 0.577 -0.577 0.577 -0.317 0 -0.577 0.26 -0.577 0.577 0 0.317 -0.26 0.577 -0.577 0.577 -0.317 0 -0.577 0.26 -0.577 0.577 0 0.359 -0.363 0.577 -0.962 0.577 -0.598 0 -0.962 -0.218 -0.962 -0.577 0 -0.321 -0.342 -0.577 -0.769 -0.577 -0.427 0 -0.769 -0.256 -0.769 -0.577 0 -0.317 -0.26 -0.577 -0.577 -0.577 -0.321 0 -0.577 -0.342 -0.577 -0.769 0 -0.598 -0.256 -0.769 -1.154 -0.769 -0.769 0 -1.154 -0.192 -1.154 -0.577 0 -0.317 -0.26 -0.577 -0.577 -0.577 -0.317 0 -0.577 -0.26 -0.577 -0.577 0 -0.317 -0.26 -0.577 -0.577 -0.577 -0.317 0 -0.577 -0.26 -0.577 -0.577 0 -0.385 -0.385 -0.577 -1.154 -0.577 -0.898 0 -1.154 -0.171 -1.154 -0.769 0 -0.427 -0.256 -0.769 -0.577 -0.769 -0.317 0 -0.577 -0.26 -0.577 -0.577 0 -0.321 -0.342 -0.577 -0.769 -0.577 -0.427 0 -0.769 -0.256 -0.769 -0.577 0 -0.317 -0.26 -0.577 -0.577 -0.577 -0.317 0 -0.577 -0.26 -0.577 -0.577 0 -0.359 -0.363 -0.577 -0.962 -0.577 -0.705 0 -0.962 -0.205 -0.962 -0.769 0 -0.623 -0.256 -0.769 -1.347 -0.769 h -1.347 v 29.387 v 29.387 l -0.866 0.232 c -0.994 0.266 -87.08 0.244 -88.1 -0.023 z"/><path d="m 91.53 105.66 c 0 -0.449 -0.513 -0.577 -2.308 -0.577 -1.795 0 -2.308 -0.128 -2.308 -0.577 0 -0.321 -0.342 -0.577 -0.769 -0.577 -0.427 0 -0.769 -0.256 -0.769 -0.577 0 -0.427 -0.449 -0.577 -1.731 -0.577 -1.652 0 -1.731 -0.051 -1.731 -1.109 0 -0.786 0.224 -1.168 0.769 -1.311 0.661 -0.173 0.769 -0.525 0.769 -2.504 0 -1.692 0.153 -2.362 0.577 -2.525 0.425 -0.163 0.577 -0.834 0.577 -2.542 0 -2.588 -0.137 -2.49 3.27 -2.329 1.058 0.05 2.01 0.224 2.116 0.386 0.106 0.162 0.755 0.417 1.443 0.566 0.697 0.151 1.25 0.513 1.25 0.818 0 0.411 0.57 0.547 2.308 0.547 h 2.308 v 1.731 c 0 1.282 -0.15 1.731 -0.577 1.731 -0.454 0 -0.577 0.534 -0.577 2.501 0 1.966 -0.123 2.501 -0.577 2.501 -0.454 0 -0.577 0.534 -0.577 2.501 v 2.501 h -1.731 c -1.282 0 -1.731 -0.15 -1.731 -0.577 z"/><path d="m 102.3 81.42 c 0 -1.966 -0.123 -2.501 -0.577 -2.501 -0.454 0 -0.577 -0.534 -0.577 -2.501 0 -1.873 -0.134 -2.501 -0.532 -2.501 -0.583 0 -0.993 -1.142 -1 -2.789 -0.003 -0.682 -0.211 -1.058 -0.582 -1.058 -0.427 0 -0.577 -0.449 -0.577 -1.731 0 -1.282 -0.15 -1.731 -0.577 -1.731 -0.458 0 -0.577 -0.556 -0.577 -2.693 0 -2.137 -0.119 -2.693 -0.577 -2.693 -0.317 0 -0.577 -0.26 -0.577 -0.577 0 -0.454 0.534 -0.577 2.501 -0.577 1.966 0 2.501 -0.123 2.501 -0.577 0 -0.443 0.492 -0.577 2.116 -0.577 1.624 0 2.116 -0.134 2.116 -0.577 0 -0.321 0.342 -0.577 0.769 -0.577 0.427 0 0.769 -0.256 0.769 -0.577 0 -0.439 0.483 -0.578 2.02 -0.582 2.559 -0.007 3.751 -0.325 3.751 -1 0 -0.394 0.599 -0.532 2.308 -0.532 1.795 0 2.308 -0.128 2.308 -0.577 0 -0.317 0.26 -0.577 0.577 -0.577 0.454 0 0.577 0.534 0.577 2.501 0 1.862 0.135 2.501 0.528 2.501 0.343 0 0.617 0.675 0.783 1.924 0.14 1.058 0.422 1.924 0.627 1.924 0.204 0 0.371 0.606 0.371 1.347 0 0.94 0.174 1.347 0.577 1.347 0.453 0 0.577 0.531 0.577 2.473 0 1.685 0.184 2.657 0.577 3.05 0.359 0.359 0.577 1.304 0.577 2.501 0 1.197 0.218 2.142 0.577 2.501 1.247 1.247 0.724 1.786 -1.731 1.786 -1.795 0 -2.308 0.128 -2.308 0.577 0 0.449 -0.513 0.577 -2.308 0.577 -1.738 0 -2.308 0.135 -2.308 0.547 0 0.301 -0.519 0.661 -1.154 0.8 -0.635 0.139 -1.154 0.413 -1.154 0.608 0 0.195 -0.649 0.357 -1.443 0.359 -2.01 0.007 -3.174 0.375 -3.174 1 0 0.399 -0.628 0.532 -2.501 0.532 -1.966 0 -2.501 0.123 -2.501 0.577 0 0.317 -0.173 0.577 -0.385 0.577 -0.217 0 -0.385 -1.09 -0.385 -2.501 z"/><path d="m 124.23 107.2 c 0 -0.317 -0.173 -0.577 -0.385 -0.577 -0.212 0 -0.385 -0.606 -0.385 -1.347 0 -0.922 -0.177 -1.347 -0.56 -1.347 -0.335 0 -0.661 -0.541 -0.812 -1.347 -0.139 -0.741 -0.406 -1.347 -0.595 -1.347 -0.188 0 -0.342 -0.519 -0.342 -1.154 0 -0.769 -0.192 -1.154 -0.577 -1.154 -0.38 0 -0.577 -0.38 -0.577 -1.113 0 -0.634 0.248 -1.208 0.577 -1.334 0.317 -0.122 0.577 -0.487 0.577 -0.811 0 -0.324 0.173 -0.589 0.385 -0.589 0.212 0 0.385 -0.26 0.385 -0.577 0 -0.317 0.246 -0.577 0.547 -0.577 0.301 0 0.661 -0.519 0.8 -1.154 0.139 -0.635 0.499 -1.154 0.8 -1.154 0.301 0 0.547 -0.26 0.547 -0.577 0 -0.317 0.26 -0.577 0.577 -0.577 0.321 0 0.577 -0.342 0.577 -0.769 0 -0.72 0.256 -0.769 3.995 -0.769 3.671 0 4.01 0.062 4.196 0.769 0.136 0.52 0.525 0.769 1.199 0.769 0.63 0 0.998 0.212 0.998 0.577 0 0.317 0.237 0.577 0.528 0.577 0.343 0 0.617 0.675 0.783 1.924 0.14 1.058 0.409 1.924 0.596 1.924 0.188 0 0.455 0.519 0.594 1.154 0.139 0.635 0.413 1.154 0.608 1.154 0.624 0 0.417 3.356 -0.223 3.602 -0.317 0.122 -0.577 0.487 -0.577 0.811 0 0.324 -0.26 0.589 -0.577 0.589 -0.317 0 -0.577 0.26 -0.577 0.577 0 0.317 -0.159 0.577 -0.354 0.577 -0.195 0 -0.468 0.519 -0.608 1.154 -0.139 0.635 -0.499 1.154 -0.8 1.154 -0.301 0 -0.547 0.346 -0.547 0.769 0 0.733 -0.256 0.769 -5.386 0.769 -4.531 0 -5.386 -0.092 -5.386 -0.577 z"/></g></g></svg>