<svg xmlns="http://www.w3.org/2000/svg" viewBox="0 0 256 256"><g transform="translate(0 -796.36)"><path d="m 211.17 833.49 c 201.82 266.38 -353.59 304.22 -175.35 32.31 40.634 -61.991 121.89 -102.86 175.35 -32.31 z" fill="#fff" color="#000"/><g transform="translate(69.66 861.33)" fill="#ff4500"><path d="m 116.69 125.33 -25.291 0 -10.06 -4.487 -46.646 0 -9.493 4.487 -25.2 0 44.656 -19.832 25.19 0 z m -42.909 -7.865 -16.427 -7.334 -15.515 7.334 z" opacity="0.1"/><g><path d="m 116.689,125.332 -25.291,0 -10.056,-28.36 -46.646,0 -9.493,28.36 L 0,125.332 44.656,0 69.843,0 z M 73.78,75.627 57.354,29.275 41.839,75.627 z"/><path d="m 5.882 123.33 42.719 -120.61 l 16.451 0 45.756 120.61 -16.889 0 -12.84 -36.476 -47.19 0 -12.243 36.476 z m 32.16 -49.36 38.34 0 -11.85 -33.614 c -3.516 -10.167 -7.06 -19.765 -7.574 -20.589 c 0 0 -4.665 12.977 -6.493 18.651 z"/></g></g></g></svg>