<svg xmlns="http://www.w3.org/2000/svg" viewBox="0 0 256 256" xmlns:xlink="http://www.w3.org/1999/xlink"><g transform="translate(0 -796.36)"><path d="m 182.83 799.46 c -368.15 -25.429 -92.2 465.65 64.2 142.29 21.558 -49.828 5.804 -124.13 -64.2 -142.29 z" style="fill:#fff;color:#000"/><g transform="matrix(0.55306 0 0 0.54893 -15.654 777.06)"><path d="m 399.08 257.13 c 0 79.43 -64.39 143.83 -143.83 143.83 -79.43 0 -143.83 -64.39 -143.83 -143.83 0 -79.43 64.39 -143.83 143.83 -143.83 79.43 0 143.83 64.39 143.83 143.83 z" id="0" style="fill:#ff4500"/><use xlink:href="#0"/><path d="m 321.68 257.13 c 0 36.685 -29.739 66.42 -66.42 66.42 -36.685 0 -66.42 -29.739 -66.42 -66.42 0 -36.685 29.739 -66.42 66.42 -66.42 36.685 0 66.42 29.739 66.42 66.42 z" style="fill:#fff"/><path d="m 280.21 273.34 q 0 4.674 -1.506 8.621 -1.454 3.895 -4.518 6.751 -3.01 2.856 -7.738 4.466 -4.726 1.61 -11.166 1.61 -6.44 0 -11.166 -1.61 -4.674 -1.61 -7.79 -4.414 -3.064 -2.856 -4.57 -6.752 -1.454 -3.947 -1.454 -8.569 0 -3.999 1.194 -7.115 1.246 -3.116 3.272 -5.349 2.077 -2.285 4.674 -3.635 2.649 -1.402 5.453 -1.87 v -0.207 q -3.064 -0.728 -5.505 -2.337 -2.389 -1.61 -4.051 -3.843 -1.61 -2.285 -2.493 -5.04 -0.831 -2.752 -0.831 -5.817 0 -3.843 1.454 -7.219 1.506 -3.428 4.414 -5.972 2.908 -2.597 7.219 -4.051 4.311 -1.506 9.971 -1.506 5.973 0 10.335 1.506 4.414 1.506 7.271 4.103 2.908 2.545 4.311 5.972 1.402 3.428 1.402 7.271 0 3.01 -0.883 5.765 -0.831 2.753 -2.493 5.04 -1.61 2.233 -4.051 3.843 -2.389 1.558 -5.557 2.181 v 0.207 q 3.168 0.519 5.869 1.922 2.701 1.35 4.674 3.635 1.974 2.233 3.116 5.349 1.143 3.116 1.143 7.06 z m -11.529 -34.485 q 0 -2.753 -0.728 -5.04 -0.675 -2.285 -2.285 -3.895 -1.61 -1.662 -4.207 -2.545 -2.597 -0.935 -6.388 -0.935 -3.687 0 -6.232 0.935 -2.545 0.883 -4.207 2.545 -1.61 1.61 -2.337 3.895 -0.728 2.285 -0.728 5.04 0 2.181 0.571 4.466 0.571 2.285 2.077 4.155 1.506 1.87 4.155 3.064 2.649 1.194 6.803 1.194 4.414 0 7.06 -1.194 2.701 -1.195 4.103 -3.064 1.454 -1.87 1.87 -4.155 0.467 -2.285 0.467 -4.466 z m 1.818 33.602 q 0 -2.649 -0.728 -5.09 -0.728 -2.493 -2.493 -4.363 -1.766 -1.922 -4.778 -3.064 -2.96 -1.195 -7.427 -1.195 -4.103 0 -7.01 1.195 -2.856 1.143 -4.674 3.064 -1.766 1.922 -2.597 4.466 -0.831 2.493 -0.831 5.193 0 3.376 0.831 6.18 0.831 2.753 2.649 4.778 1.818 1.973 4.778 3.064 2.96 1.091 7.167 1.091 4.259 0 7.167 -1.091 2.908 -1.091 4.674 -3.064 1.766 -2.025 2.493 -4.83 0.779 -2.856 0.779 -6.336 z" style="fill:#ff4500"/></g></g></svg>