<svg xmlns="http://www.w3.org/2000/svg" viewBox="0 0 256 256"><defs><clipPath><path transform="matrix(15.33333 0 0 11.5 415 -125.5)" d="m -24 13 c 0 1.105 -0.672 2 -1.5 2 -0.828 0 -1.5 -0.895 -1.5 -2 0 -1.105 0.672 -2 1.5 -2 0.828 0 1.5 0.895 1.5 2 z"/></clipPath></defs><g transform="translate(0 -796.36)"><path d="m 229.63 992.2 c 92.05 -130.93 -77.948 -263.6 -186.39 -156.91 -102.17 100.51 -7.449 256.68 119.69 207.86 c 26.526 -10.185 49.802 -26.914 66.7 -50.948 z" style="fill:#fff;color:#000"/><g transform="matrix(3.30978 0 0 3.1739 50.46 850.1)" style="fill:#ff4500"><path d="M 4,4 H44 V44 H4 z"/><g style="fill:#ffdead"><path d="m 22 17.712 v 22.288 h 4 v -22.288"/><path d="m 26 12.397 c 0 1.102 -0.898 2 -2 2 -1.102 0 -2 -0.898 -2 -2 0 -1.102 0.898 -2 2 -2 1.102 0 2 0.898 2 2"/></g></g></g></svg>