<svg xmlns="http://www.w3.org/2000/svg" xmlns:xlink="http://www.w3.org/1999/xlink" viewBox="0 0 256 256"><defs><path d="m 245.46 129.52 l -97.89 -96.9 c -5.556 -5.502 -16.222 -11.873 -23.7 -14.16 l -39.518 -12.08 c -7.479 -2.286 -18.1 0.391 -23.599 5.948 l -13.441 13.578 c -5.5 5.559 -14.502 14.653 -20 20.21 l -13.44 13.579 c -5.5 5.558 -8.07 16.206 -5.706 23.658 l 12.483 39.39 c 2.363 7.456 8.843 18.06 14.399 23.556 l 97.89 96.9 c 5.558 5.502 14.605 5.455 20.1 -0.101 l 36.26 -36.63 c 5.504 -5.559 14.503 -14.651 20 -20.21 l 36.26 -36.629 c 5.502 -5.56 5.455 -14.606 -0.101 -20.11 z m -178.09 -50.74 c -7.198 0 -13.03 -5.835 -13.03 -13.03 0 -7.197 5.835 -13.03 13.03 -13.03 7.197 0 13.03 5.835 13.03 13.03 -0.001 7.198 -5.836 13.03 -13.03 13.03 z" id="0"/><use id="1" xlink:href="#0"/><clipPath id="2"><use xlink:href="#0"/></clipPath><clipPath style="clip-path:url(#2)"><use xlink:href="#1"/></clipPath><clipPath style="clip-path:url(#2)"><use xlink:href="#1"/></clipPath></defs><g transform="translate(0 -796.36)"><path d="m 212.32 840.15 c 129.89 104.85 -60.27 294.12 -175.21 173.21 -115.19 -104.06 64.59 -306.02 175.21 -173.21 z" style="fill:#fff;color:#000"/><g transform="translate(0 796.36)" style="fill:#ff4500;fill-rule:evenodd"><path d="m 193.55 153.1 c -0.896 -0.884 -2.987 -5.091 -2.984 -6.01 0.005 -1.362 -6.914 -9.335 -10.558 -12.169 -0.573 -0.445 -1.39 -1.149 -1.816 -1.565 -0.426 -0.415 -0.934 -0.819 -1.128 -0.898 -0.194 -0.079 -1.761 -1.19 -3.482 -2.469 -3.511 -2.611 -3.433 -2.407 -2.549 -6.684 0.451 -2.182 0.537 -4.075 0.39 -8.569 -0.188 -5.734 -0.719 -8.565 -2.462 -13.13 -0.499 -1.307 -3.138 -6 -3.962 -7.04 -1.859 -2.358 -7.5 -7.506 -10.179 -9.29 -1.773 -1.181 -3.278 -2.272 -3.344 -2.424 -0.066 -0.153 -0.349 -0.277 -0.629 -0.277 -0.28 0 -0.509 -0.146 -0.509 -0.324 0 -0.178 -0.444 -0.494 -0.988 -0.701 -1.042 -0.398 -3.02 -1.519 -3.322 -1.885 -0.252 -0.304 -5.866 -3.144 -10.236 -5.179 -3.294 -1.534 -5.73 -2.57 -7.543 -3.208 -0.988 -0.348 -2.119 -0.761 -2.514 -0.92 -3.09 -1.238 -6.336 -2.35 -8.261 -2.829 -0.79 -0.197 -2.083 -0.54 -2.873 -0.761 -2.15 -0.604 -4.03 -1.054 -6.824 -1.633 c -11.329 -2.348 -18.17 -2.793 -39.779 -2.593 l -16.792 0.156 l 0.629 -0.747 c 0.346 -0.411 0.73 -0.828 0.853 -0.927 0.36 -0.289 6.095 -5.499 6.922 -6.289 0.416 -0.397 1.619 -1.35 2.673 -2.119 l 1.917 -1.397 l 6.883 0.24 c 11.249 0.392 23.314 1.22 29.87 2.051 3.929 0.498 10.905 1.661 14.906 2.484 2.39 0.492 11.965 2.759 13.469 3.188 0.593 0.169 1.805 0.51 2.694 0.757 0.889 0.247 2.02 0.579 2.514 0.738 0.494 0.159 1.868 0.561 3.053 0.894 1.185 0.333 2.963 0.888 3.951 1.235 0.988 0.347 2.766 0.928 3.951 1.293 1.185 0.364 2.397 0.781 2.694 0.926 0.296 0.145 1.751 0.699 3.233 1.232 1.482 0.533 3.179 1.176 3.771 1.43 0.593 0.254 1.805 0.739 2.694 1.079 0.889 0.34 2.803 1.161 4.252 1.825 1.45 0.664 2.743 1.208 2.873 1.209 0.417 0.002 8.737 4.323 10.07 5.231 0.707 0.481 1.404 0.874 1.549 0.874 0.428 0 6 3.687 8.886 5.879 6.267 4.762 10.972 10.285 13.807 16.21 1.403 2.932 1.535 3.24 2.468 5.747 3.431 9.22 4.163 22.02 1.84 32.15 -0.295 1.284 -0.704 3.062 -0.91 3.951 -0.379 1.636 -1.906 5.835 -2.482 6.824 -0.173 0.296 -0.57 1.046 -0.884 1.666 -0.921 1.819 -2.478 3.34 -3.663 3.577 -0.897 0.179 -1.295 0.03 -2.142 -0.805 z"/><path d="m 144.95 193.17 c -3.416 -0.527 -5.849 -1.136 -8.261 -2.069 -2.356 -0.911 -6.851 -3.185 -7.183 -3.633 -0.099 -0.133 -0.907 -0.738 -1.796 -1.343 -3.01 -2.05 -6.916 -6.765 -8.721 -10.525 -2.027 -4.222 -2.521 -6.349 -2.685 -11.562 -0.144 -4.552 -0.085 -5.138 0.789 -7.902 0.959 -3.03 1.465 -4.35 2.041 -5.32 0.176 -0.296 0.425 -0.781 0.554 -1.078 0.327 -0.752 2.648 -4.01 3.365 -4.721 0.327 -0.325 0.902 -0.971 1.279 -1.437 1.073 -1.326 4.045 -3.657 6.738 -5.285 1.354 -0.818 2.541 -1.488 2.64 -1.488 0.098 0 0.688 -0.228 1.31 -0.507 3.787 -1.697 10.272 -3.085 14.418 -3.085 2.448 0 8.736 1.051 11.138 1.862 2.659 0.898 7.343 3.095 8 3.755 0.269 0.269 0.64 0.489 0.826 0.489 0.667 0 7.873 6.823 7.873 7.455 0 0.171 0.287 0.625 0.639 1.01 1.803 1.966 4.118 8.14 4.739 12.639 1.296 9.393 -3.688 20.07 -12.202 26.14 -1.087 0.774 -2.056 1.508 -2.155 1.629 -0.206 0.254 -5.03 2.541 -6.645 3.15 -2.699 1.018 -9.656 2.22 -12.571 2.171 -1.185 -0.02 -3.044 -0.173 -4.131 -0.34 z"/><path d="m 104.01 141.23 c -1.482 -0.508 -3.421 -1.402 -4.31 -1.988 -2.294 -1.511 -5.209 -4.762 -6.358 -7.089 -0.886 -1.795 -0.983 -2.373 -0.993 -5.939 -0.009 -2.987 0.131 -4.214 0.573 -5.03 0.322 -0.593 0.807 -1.55 1.078 -2.128 0.271 -0.578 1.468 -2.043 2.661 -3.255 4.278 -4.349 11.06 -6.457 16.689 -5.19 4.651 1.046 7.95 2.967 10.792 6.283 2.419 2.823 3.775 7.765 3.142 11.455 -0.916 5.339 -4.29 9.693 -9.264 11.951 -4.776 2.169 -9.479 2.48 -14.01 0.929 z"/><path d="m 75.45 120.15 c -5.665 -2.188 -8 -6.749 -5.901 -11.505 2.219 -5.02 8.164 -7.03 13.623 -4.625 1.844 0.814 3.565 2.561 4.53 4.6 1.135 2.397 1.109 4.439 -0.083 6.576 -1.503 2.695 -2.474 3.467 -6.35 5.05 -1.252 0.51 -4.388 0.461 -5.82 -0.092 z"/><path d="m 46.855 192.21 c -0.68 -0.741 -1.716 -1.993 -2.303 -2.783 -1.395 -1.879 -1.465 -1.97 -2.512 -3.233 -0.491 -0.593 -0.984 -1.36 -1.095 -1.706 -0.111 -0.346 -0.352 -0.629 -0.537 -0.629 -0.184 0 -0.335 -0.242 -0.335 -0.539 0 -0.296 -0.162 -0.539 -0.359 -0.539 -0.198 0 -0.359 -0.172 -0.359 -0.383 0 -0.211 -0.404 -0.913 -0.898 -1.56 -0.494 -0.647 -0.898 -1.294 -0.898 -1.437 0 -0.143 -0.364 -0.774 -0.809 -1.403 -1.104 -1.56 -1.414 -2.115 -3.146 -5.633 -2.56 -5.199 -3.21 -6.693 -5.02 -11.53 l -0.619 -1.653 l 5.068 -0.248 c 2.787 -0.136 14.604 -0.481 26.26 -0.766 42.475 -1.038 50.29 -1.258 50.747 -1.425 0.825 -0.303 0.851 0.743 0.097 3.862 -0.946 3.912 -1.037 11.421 -0.172 14.12 0.638 1.989 1.161 3.308 1.628 4.105 0.174 0.296 0.597 1.145 0.941 1.886 0.344 0.741 0.744 1.347 0.89 1.347 0.146 0 0.534 0.525 0.863 1.167 0.329 0.642 0.705 1.248 0.836 1.347 0.131 0.099 0.715 0.819 1.297 1.6 0.582 0.781 2.374 2.761 3.983 4.4 l 2.924 2.979 h -37.616 h -37.616 l -1.236 -1.347 z"/></g></g></svg>