<svg xmlns="http://www.w3.org/2000/svg" viewBox="0 0 256 256"><g transform="translate(0 -796.36)" style="color:#000"><path d="m 813.15 1010.99 c 83.29 -119.08 -104.26 -268.19 -202.26 -171.28 c -92.42 91.39 27.07 261.92 141.96 217.58 24.03 -9.275 45.09 -24.542 60.3 -46.3 z" transform="matrix(0 1 -1 0 1064.52 218.44)" style="fill:#fff"/><g transform="matrix(1.16514 0 0 1.11353 -23.461 -109.31)" style="fill-rule:evenodd"><rect rx="9.827" y="876.79" x="76.38" height="105.1" width="105.1" style="fill:#ff4500"/><path d="m 129,80.56 v 6.656 h 13.281 V 80.56 H 129 z m 0,6.656 h -13.281 v 6.625 H 129 v -6.625 z m 0,6.625 v 5.531 h -13.281 v 6.625 H 129 v -5.531 h 13.281 V 93.841 H 129 z m 0,12.156 v 6.656 h 13.281 v -6.656 H 129 z m 0,6.656 h -13.281 v 6.625 H 129 v 5.531 h 13.281 v -6.625 H 129 v -5.531 z m 0,12.156 h -13.281 v 6.656 H 129 v -6.656 z m 0,6.656 v 5.531 h -13.281 v 6.625 H 129 v -5.531 h 13.281 v -6.625 H 129 z m 0,12.156 v 6.656 h 13.281 v -6.656 H 129 z m 0,6.656 h -13.281 v 6.625 H 129 v 5.531 h 13.281 v -6.625 H 129 v -5.531 z m 0,12.156 h -13.281 v 6.625 H 129 v -6.625 z m 0,6.625 v 5.531 h -13.281 v 6.656 H 129 v -5.531 h 13.281 v -6.656 H 129 z" transform="translate(0 796.36)" style="fill:#ffe4c4"/></g></g></svg>