<svg xmlns="http://www.w3.org/2000/svg" viewBox="0 0 256 256"><defs><clipPath><path transform="matrix(15.33333 0 0 11.5 415 -125.5)" d="m -24 13 c 0 1.105 -0.672 2 -1.5 2 -0.828 0 -1.5 -0.895 -1.5 -2 0 -1.105 0.672 -2 1.5 -2 0.828 0 1.5 0.895 1.5 2 z"/></clipPath></defs><path d="m 53.11 1028.66 c 188.96 126.21 305.35 -276.27 61.07 -222.99 -100.95 22.706 -162.22 165.11 -61.07 222.99 z" transform="translate(1.798 -798.75)" style="fill:#fff;color:#000"/><g transform="matrix(0.3743 0 0 0.37818 37.1 32.34)" style="fill:#ff4500"><path d="m 471.95 253.05 c 0 120.9 -98.01 218.91 -218.91 218.91 -120.9 0 -218.91 -98.01 -218.91 -218.91 0 -120.9 98.01 -218.91 218.91 -218.91 120.9 0 218.91 98.01 218.91 218.91" style="fill-rule:evenodd"/><path d="M 210.19,38.344 C 109.8,58.262 34.13,146.834 34.13,253.064 c 0,120.9 98.009,218.91 218.91,218.91 37.139,0 72.109,-9.2747 102.75,-25.594 L 210.19,38.34 z" style="fill:#ffa07a;color:#000"/><path d="m 176.73 139.06 l -82.22 233.88 h 53.22 l 16.875 -55.44 h 84.938 l 16.875 55.44 h 53.22 l -82.53 -233.88 h -60.37 z m 79.66 0.469 c 15.446 43.817 30.916 87.63 46.38 131.44 h 22 c 27.615 0 41.44 9.67 41.44 29 0 10.727 -3.24 18.702 -9.719 23.906 -6.479 5.204 -16.53 7.813 -30.12 7.813 h -2.188 c 4.779 13.542 9.564 27.08 14.344 40.625 23.24 -0.926 41.882 -6.804 55.875 -17.688 15.4 -11.896 23.09 -28.477 23.09 -49.719 0 -14.976 -3.29 -26.972 -9.875 -36 -6.479 -9.03 -17.08 -15.176 -31.844 -18.469 v -1.594 c 10.833 -1.805 19.458 -7.172 25.938 -16.09 6.585 -8.922 9.906 -20.336 9.906 -34.25 0 -20.498 -7.493 -35.434 -22.469 -44.781 -14.87 -9.452 -38.844 -14.187 -71.875 -14.188 h -60.875 z m -49.22 35.688 c 0.85 3.824 2.213 9.04 4.125 15.625 2.02 6.585 10.824 34.981 26.438 85.22 h -60.688 c 16.569 -53.636 26.62 -87.25 30.13 -100.84 z m 87 4.781 h 25.969 c 14.13 0 24.427 1.977 30.906 5.906 6.585 3.824 9.875 10.203 9.875 19.13 0 9.559 -3.01 16.389 -9.06 20.531 -5.948 4.142 -15.618 6.219 -29 6.219 h -28.688 v -51.781 z" style="fill:#fff"/></g></svg>