<svg xmlns="http://www.w3.org/2000/svg" viewBox="0 0 256 256"><defs><clipPath><path transform="matrix(15.33333 0 0 11.5 415 -125.5)" d="m -24 13 c 0 1.105 -0.672 2 -1.5 2 -0.828 0 -1.5 -0.895 -1.5 -2 0 -1.105 0.672 -2 1.5 -2 0.828 0 1.5 0.895 1.5 2 z" fill="#1890d0"/></clipPath><clipPath><rect y="6" x="6" rx="6" height="84" width="84" fill="#ff4500ff4500"/></clipPath><filter color-interpolation-filters="sRGB"><feGaussianBlur stdDeviation="1.71"/></filter></defs><g transform="translate(0 -796.36)"><path d="m 60.17 822.74 c 130.93 -92.05 263.6 77.948 156.91 186.39 -100.51 102.17 -256.68 7.449 -207.86 -119.69 10.185 -26.526 26.914 -49.802 50.948 -66.7 z" fill="#fff" color="#fff"/><g transform="matrix(1.45788 0 0 1.45788 59.37 855.8)" fill="#ff4500"><path stroke-width="1" d="m 5.089 6.521 l 84 0 l 0 84 l -84 0 z"/><path stroke-width="0.973" d="M 6.204,7.636 H87.974 V89.406 H6.204 z"/><g color="#fff"><path d="m 72.807 54.07 c 0 16.881 -13.616 30.567 -30.413 30.567 -16.797 0 -30.413 -13.685 -30.413 -30.567 0 -16.881 13.616 -30.567 30.413 -30.567 16.797 0 30.413 13.685 30.413 30.567 z" transform="translate(-1.229 1.229)"/><path transform="matrix(0.94975 0 0 0.94975 0.902 3.946)" d="m 72.807 54.07 c 0 16.881 -13.616 30.567 -30.413 30.567 -16.797 0 -30.413 -13.685 -30.413 -30.567 0 -16.881 13.616 -30.567 30.413 -30.567 16.797 0 30.413 13.685 30.413 30.567 z" fill="#ffdead"/></g><path d="m 35.82 19.1 0 10.846 0 25.03 c -1.263 -0.654 -2.644 -1.065 -4.079 -1.065 -4.977 0 -9.499 4.522 -9.499 9.491 0 4.969 4.522 9.49 9.499 9.491 4.977 0 11.02 -4.219 11.02 -9.188 l 0 -33.454 25.472 -3.246 0.124 24.508 c -1.263 -0.654 -2.503 -1.489 -3.938 -1.489 -4.977 0 -9.499 4.522 -9.499 9.491 0 4.969 4.522 9.49 9.499 9.491 4.977 0 11.852 -4.824 11.919 -9.793 l 0.439 -32.792 0 -10.846 z" fill="#dc143c" fill-rule="evenodd" stroke="#8b0000" stroke-width="0.904"/></g></g></svg>