<svg xmlns="http://www.w3.org/2000/svg" viewBox="0 0 256 256"><g transform="translate(0 -796.36)"><path d="m 229.63 992.2 c 92.05 -130.93 -77.948 -263.6 -186.39 -156.91 -102.17 100.51 -7.449 256.68 119.69 207.86 c 26.526 -10.185 49.802 -26.914 66.7 -50.948 z" style="fill:#fff;color:#000"/><g transform="matrix(18.20015 0 0 18.61302 8.12 795.12)" style="fill:#ff4500"><text line-height="125%" y="7.489" x="-38.4" style="letter-spacing:0;word-spacing:0;font-size:11.289;font-family:Sans"><tspan y="7.489" x="-38.4" style="font-family:URW Bookman L"/></text><path d="m 6.594 4.415 a 2.413 2.413 0 0 0 -2.413 2.413 2.413 2.413 0 0 0 2.413 2.414 2.413 2.413 0 0 0 2.414 -2.414 2.413 2.413 0 0 0 -2.414 -2.413 z m 0 0.282 a 2.131 2.131 0 0 1 2.131 2.131 2.131 2.131 0 0 1 -2.131 2.134 2.131 2.131 0 0 1 -2.131 -2.134 2.131 2.131 0 0 1 2.131 -2.131 z" style="fill-opacity:0.235"/><path d="M 6.614 2.861 A 4.234 4.04 0 0 0 2.38 6.898 4.234 4.04 0 0 0 6.614 10.936 4.234 4.04 0 0 0 10.848 6.898 4.234 4.04 0 0 0 6.614 2.861 z m 0 0.472 A 3.739 3.565 0 0 1 10.353 6.898 3.739 3.565 0 0 1 6.614 10.464 3.739 3.565 0 0 1 2.875 6.898 3.739 3.565 0 0 1 6.614 3.333 z"/></g></g></svg>