<svg xmlns="http://www.w3.org/2000/svg" viewBox="0 0 256 256"><defs><clipPath><path d="M 0,64 H64 V128 H0 z"/></clipPath></defs><g style="fill:#fff;color:#000"><path d="m -1360.14 1641.33 c 46.11 -98.28 -119.59 -146.07 -181.85 -106.06 -62.25 40.01 -83.52 108.58 -13.01 143.08 70.51 34.501 148.75 61.26 194.86 -37.03 z" transform="matrix(1.03665 0 0 -1.35742 1657.71 2320.79)" style="fill:#fff"/></g><path d="m 119.1 205.99 c -7.166 -1.057 -21.45 -8.13 -35.431 -17.545 -17.471 -11.765 -19.882 -14.71 -17 -20.774 1.733 -3.652 1.614 -4.324 -3.01 -17.01 -3.591 -9.858 -3.169 -11.225 0.944 -3.057 1.923 3.818 3.497 7.476 3.497 8.128 0 0.652 0.624 1.703 1.387 2.336 1.261 1.046 4.434 -0.371 12.483 -5.574 1.175 -0.759 -1.292 -5.542 -3.241 -6.283 -1.273 -0.484 -4.636 -3.657 -7.472 -7.05 c -3.952 -4.729 -5.157 -6.954 -5.157 -9.517 c 0 -2.498 -0.521 -3.511 -2.057 -3.998 -3.86 -1.225 -6.349 -12.04 -4.643 -20.17 0.834 -3.976 1.555 -5.308 2.872 -5.308 0.967 0 5.712 2.396 10.544 5.324 10.174 6.166 13.489 7.47 29.747 11.702 11.32 2.947 12.03 3.02 13.254 1.347 0.71 -0.971 0.952 -2.087 0.538 -2.478 c -1.44 -1.36 -33.8 -13.742 -41.754 -15.977 -4.4 -1.236 -8.422 -2.618 -8.937 -3.07 -1.636 -1.436 3.397 -5.621 9.806 -8.156 3.372 -1.334 9.281 -2.994 13.13 -3.69 c 8.02 -1.449 9.5 -2.322 9.5 -5.587 0 -8.07 8.574 -20.646 16.99 -24.91 9.221 -4.673 17.802 -4.324 25.04 1.019 2.634 1.943 4.566 2.476 8.98 2.476 11.133 0 22.02 5.609 28.16 14.511 3.114 4.514 6.83 14.572 6.83 18.483 0 1.433 0.521 3.127 1.158 3.763 0.877 0.877 0.847 1.532 -0.122 2.7 -0.957 1.153 -3.286 1.542 -9.223 1.542 -11.35 0 -16.572 3.236 -7.06 4.377 2.613 0.313 6.937 0.856 9.611 1.206 3.137 0.411 5.691 0.192 7.2 -0.615 1.742 -0.932 3.628 -0.997 7.389 -0.253 4.075 0.806 5.05 0.737 5.05 -0.358 0 -1.77 0.253 -1.729 4.361 0.694 8.01 4.726 8.615 10.08 4.174 36.95 -1.767 10.693 -2.37 17.22 -1.942 21.05 0.561 5.02 0.368 5.847 -2.055 8.726 -1.754 2.085 -6.868 5.152 -14.856 8.912 -6.7 3.153 -18.706 9.04 -26.681 13.09 -24.911 12.641 -31.3 14.626 -42 13.05 z m 0 -19.759 c 0 -0.514 -0.488 -2.202 -1.085 -3.75 -0.597 -1.548 -1.91 -6.415 -2.918 -10.815 -1.01 -4.4 -3.103 -11.53 -4.655 -15.845 l -2.822 -7.845 l -1.275 3.126 c -0.714 1.751 -2.426 3.563 -3.891 4.12 -1.438 0.547 -3.903 1.912 -5.478 3.03 -1.574 1.121 -3.31 1.762 -3.857 1.424 -0.637 -0.394 -0.771 1.018 -0.373 3.923 0.405 2.953 0.196 5.05 -0.599 6.01 -1.018 1.227 -0.335 2.036 4.116 4.874 c 19.468 12.413 22.837 14.15 22.837 11.748 z m 17.728 -35.07 c 8.198 -4.206 12.194 -6.543 24.772 -14.491 2.75 -1.738 6.448 -3.737 8.217 -4.442 1.769 -0.705 3.712 -1.879 4.318 -2.609 0.988 -1.19 3.909 -2.912 12.11 -7.137 1.455 -0.749 3.187 -2.02 3.85 -2.815 0.663 -0.799 2.747 -1.742 4.631 -2.095 2.773 -0.52 3.207 -0.906 2.277 -2.026 -0.632 -0.761 -1.755 -1.384 -2.496 -1.384 -0.741 0 -4 -1.35 -7.251 -3 -5.587 -2.839 -6.541 -2.999 -17.78 -2.978 -12.703 0.023 -24.506 2.067 -34.29 5.939 -12.191 4.822 -15.49 9.824 -15.339 23.255 0.083 7.344 1.235 16.07 2.852 21.586 0.269 0.919 1.112 0.626 2.871 -1 1.369 -1.266 6.437 -4.326 11.262 -6.801 z m -21.483 5.5 c -0.263 -1.375 -0.65 -2.5 -0.861 -2.5 -0.211 0 -0.383 1.125 -0.383 2.5 0 1.375 0.388 2.5 0.861 2.5 0.474 0 0.646 -1.125 0.383 -2.5 z m -0.275 -16.25 c -0.018 -6.494 -0.37 -10.156 -0.888 -9.25 -1.401 2.45 -2.314 11.66 -1.584 15.981 1.261 7.466 2.503 4.085 2.473 -6.731 z m -17.231 6.319 c 2.881 -0.947 5.468 -2.094 5.749 -2.548 0.281 -0.454 -1.169 -1.816 -3.221 -3.03 -3.565 -2.104 -3.777 -2.12 -4.749 -0.378 -0.559 1 -2.239 3.02 -3.732 4.472 -2.536 2.474 -2.723 4.463 -0.337 3.589 0.579 -0.212 3.409 -1.16 6.29 -2.108 z m 61.01 -44.26 c -0.963 -0.252 -2.537 -0.252 -3.5 0 -0.963 0.252 -0.175 0.457 1.75 0.457 1.925 0 2.713 -0.206 1.75 -0.457 z" style="fill:#d50000"/><path d="m 117.22 203.63 c -10.264 -2.227 -38.2 -18.667 -46.575 -27.412 -2.501 -2.611 -2.627 -3.177 -1.978 -8.916 0.381 -3.371 1.092 -6.128 1.579 -6.128 0.487 0 11.527 6.3 24.533 14 13.01 7.7 24.367 14 25.25 14 0.881 0 2.045 -0.983 2.588 -2.185 1.301 -2.879 2.88 -3.279 4.915 -1.244 1.497 1.497 1.827 1.509 3.366 0.121 0.938 -0.847 15.881 -8.347 33.21 -16.668 17.325 -8.321 32.12 -15.739 32.872 -16.484 1.422 -1.405 3.7 -13.852 4.768 -26.06 0.572 -6.534 0.436 -7.234 -1.954 -10.07 -1.412 -1.678 -4.282 -3.587 -6.377 -4.241 -4.712 -1.471 -7.718 -3.692 -6.866 -5.071 0.811 -1.312 9.06 -0.31 12.757 1.549 3.41 1.717 3.8 1.702 3.8 -0.141 0 -2.183 1.651 -1.836 3.443 0.723 2.253 3.217 1.965 12.623 -0.943 30.777 -1.366 8.525 -2.487 18.259 -2.491 21.631 -0.008 5.524 -0.314 6.43 -3.088 9.142 -1.694 1.656 -7.431 4.916 -12.75 7.245 -5.319 2.329 -18.445 8.659 -29.17 14.07 -17.43 8.788 -28.423 13.07 -32.96 12.835 -0.847 -0.044 -4.412 -0.703 -7.922 -1.464 z m -30.19 -36.586 c -0.627 -1.171 -1.946 -6.06 -2.931 -10.87 c -1.878 -9.165 -3.381 -13 -5.095 -13 c -2.082 0 -11.905 -10.29 -11.905 -12.471 c 0 -2.853 3.784 -6.336 7.746 -7.128 2.838 -0.568 3.18 -1.029 3.452 -4.664 0.186 -2.48 0.965 -4.449 2.024 -5.113 2.465 -1.545 3.767 0.146 4.601 5.971 0.669 4.678 0.918 4.986 6.372 7.887 3.121 1.66 5.982 3.334 6.357 3.719 0.664 0.681 -1.01 3.183 -6.936 10.37 l -2.883 3.497 l 2.187 10.975 c 1.203 6.04 1.911 11.421 1.574 11.966 -1.038 1.68 -3.366 1.099 -4.564 -1.139 z m 96.01 -12.978 c -1.702 -3.18 0.389 -4.562 2.357 -1.559 1.511 2.305 1.351 3.666 -0.431 3.666 -0.439 0 -1.306 -0.948 -1.926 -2.107 z m 9.06 -3.393 c 0 -0.825 0.45 -1.5 1 -1.5 0.55 0 1 0.675 1 1.5 0 0.825 -0.45 1.5 -1 1.5 -0.55 0 -1 -0.675 -1 -1.5 z m -75.54 -6.06 c -0.387 -3.61 -0.456 -8.402 -0.155 -10.65 0.634 -4.727 -1.402 -8.799 -4.098 -8.193 -0.95 0.213 -3.475 -1.21 -5.704 -3.214 l -4 -3.597 l 4.5 0.687 c 2.614 0.399 5.233 1.539 6.25 2.719 1.356 1.575 1.75 1.687 1.75 0.499 0 -2.438 5.742 -7.529 12.13 -10.753 7.153 -3.611 20.435 -6.918 27.821 -6.928 7.086 -0.009 5.516 1.202 -4.45 3.433 -11.33 2.536 -22.687 7.092 -25.704 10.311 -1.417 1.512 -3.585 4.761 -4.819 7.219 -2.02 4.03 -2.191 5.487 -1.718 14.75 0.581 11.387 -0.7 14.03 -1.804 3.717 z m -12.99 -37.39 c -8.933 -3.855 -23.607 -9.16 -32.438 -11.729 -1.24 -0.361 -1.253 -0.564 -0.082 -1.287 1.338 -0.827 9.795 1.733 24.554 7.433 3.3 1.274 7.125 2.651 8.5 3.058 2.423 0.719 2.446 0.681 0.75 -1.22 -2.925 -3.279 -2.155 -5.202 2.962 -7.395 2.591 -1.111 5.699 -1.772 6.905 -1.469 1.816 0.456 2.103 0.204 1.666 -1.466 -0.347 -1.326 -0.913 -1.711 -1.655 -1.126 -0.62 0.49 -2.928 1.207 -5.128 1.594 -2.2 0.387 -5.488 1.571 -7.307 2.63 -4.271 2.488 -10.243 2.452 -15.233 -0.094 -7.01 -3.577 -3.939 -8.198 6.394 -9.615 l 4.389 -0.602 l 0.516 -5.687 c 0.98 -10.81 8.07 -21.12 17.702 -25.749 7.303 -3.509 18.289 -2.773 23.372 1.568 1.162 0.992 4.833 1.798 10.03 2.203 9.583 0.745 14.666 2.978 21.65 9.511 7.423 6.943 14.576 23.674 11.05 25.851 -0.883 0.546 -0.881 1.058 0.008 2.13 0.644 0.776 1 1.428 0.799 1.448 -0.205 0.021 -8.472 0.202 -18.372 0.403 -19.884 0.404 -28.624 1.87 -36.412 6.109 -2.668 1.452 -5.818 3.948 -7 5.546 -1.319 1.784 -3 2.869 -4.368 2.811 -1.221 -0.052 -7.185 -2.237 -13.254 -4.856 z m 27.96 -12.03 c 3.259 -0.534 6.184 -1.368 6.5 -1.855 2.374 -3.659 17.523 -6.599 21.908 -4.252 2.335 1.25 2.494 1.109 1.544 -1.367 -0.911 -2.374 -5.73 -4.545 -10.08 -4.541 -3.409 0.003 -5.646 1.014 -11.578 5.232 -1.463 1.04 -1.946 0.998 -2.722 -0.236 -0.77 -1.224 -1.27 -1.271 -2.722 -0.258 -0.978 0.683 -4.703 2.799 -8.278 4.701 -5.82 3.096 -6.186 3.463 -3.5 3.502 1.65 0.024 5.667 -0.393 8.926 -0.927 z m 35.07 -4.02 c -2.752 -1.183 -3.731 -1.183 -3 0 0.34 0.55 1.604 0.968 2.809 0.93 2.112 -0.068 2.119 -0.101 0.191 -0.93 z m -3.136 -6.494 c -0.315 -0.822 -0.976 -1.245 -1.469 -0.941 -1.412 0.873 -1.044 2.435 0.573 2.435 0.892 0 1.244 -0.587 0.895 -1.494 z m -99.11 21 c -3.466 -1.506 -4.44 -4.509 -1.462 -4.509 c 0.983 0 3.346 1.332 5.25 2.959 2.893 2.473 3.133 2.96 1.462 2.961 -1.1 0.001 -3.463 -0.634 -5.25 -1.411 z" style="fill:#9c0000"/><path d="m 117.22 203.63 c -10.264 -2.227 -38.2 -18.667 -46.575 -27.412 -2.501 -2.611 -2.627 -3.177 -1.978 -8.916 0.381 -3.371 1.092 -6.128 1.579 -6.128 0.487 0 11.527 6.3 24.533 14 13.01 7.7 24.367 14 25.25 14 0.881 0 2.045 -0.983 2.588 -2.185 1.301 -2.879 2.88 -3.279 4.915 -1.244 1.497 1.497 1.827 1.509 3.366 0.121 0.938 -0.847 15.881 -8.347 33.21 -16.668 17.325 -8.321 32.12 -15.739 32.872 -16.484 1.422 -1.405 3.7 -13.852 4.768 -26.06 0.572 -6.534 0.436 -7.234 -1.954 -10.07 -1.412 -1.678 -4.282 -3.587 -6.377 -4.241 -4.712 -1.471 -7.718 -3.692 -6.866 -5.071 0.811 -1.312 9.06 -0.31 12.757 1.549 3.41 1.717 3.8 1.702 3.8 -0.141 0 -2.183 1.651 -1.836 3.443 0.723 2.253 3.217 1.965 12.623 -0.943 30.777 -1.366 8.525 -2.487 18.259 -2.491 21.631 -0.008 5.524 -0.314 6.43 -3.088 9.142 -1.694 1.656 -7.431 4.916 -12.75 7.245 -5.319 2.329 -18.445 8.659 -29.17 14.07 -17.43 8.788 -28.423 13.07 -32.96 12.835 -0.847 -0.044 -4.412 -0.703 -7.922 -1.464 z m -30.19 -36.586 c -0.627 -1.171 -1.946 -6.06 -2.931 -10.87 c -1.878 -9.165 -3.381 -13 -5.095 -13 c -2.082 0 -11.905 -10.29 -11.905 -12.471 c 0 -2.853 3.784 -6.336 7.746 -7.128 2.838 -0.568 3.18 -1.029 3.452 -4.664 0.186 -2.48 0.965 -4.449 2.024 -5.113 2.465 -1.545 3.767 0.146 4.601 5.971 0.669 4.678 0.918 4.986 6.372 7.887 3.121 1.66 5.982 3.334 6.357 3.719 0.664 0.681 -1.01 3.183 -6.936 10.37 l -2.883 3.497 l 2.187 10.975 c 1.203 6.04 1.911 11.421 1.574 11.966 -1.038 1.68 -3.366 1.099 -4.564 -1.139 z m 96.01 -12.978 c -1.702 -3.18 0.389 -4.562 2.357 -1.559 1.511 2.305 1.351 3.666 -0.431 3.666 -0.439 0 -1.306 -0.948 -1.926 -2.107 z m 9.06 -3.393 c 0 -0.825 0.45 -1.5 1 -1.5 0.55 0 1 0.675 1 1.5 0 0.825 -0.45 1.5 -1 1.5 -0.55 0 -1 -0.675 -1 -1.5 z m -75.54 -6.06 c -0.387 -3.61 -0.456 -8.402 -0.155 -10.65 0.634 -4.727 -1.402 -8.799 -4.098 -8.193 -0.95 0.213 -3.475 -1.21 -5.704 -3.214 l -4 -3.597 l 4.5 0.687 c 2.614 0.399 5.233 1.539 6.25 2.719 1.356 1.575 1.75 1.687 1.75 0.499 0 -2.438 5.742 -7.529 12.13 -10.753 7.153 -3.611 20.435 -6.918 27.821 -6.928 7.086 -0.009 5.516 1.202 -4.45 3.433 -11.33 2.536 -22.687 7.092 -25.704 10.311 -1.417 1.512 -3.585 4.761 -4.819 7.219 -2.02 4.03 -2.191 5.487 -1.718 14.75 0.581 11.387 -0.7 14.03 -1.804 3.717 z m -12.99 -37.39 c -8.933 -3.855 -23.607 -9.16 -32.438 -11.729 -1.24 -0.361 -1.253 -0.564 -0.082 -1.287 1.338 -0.827 9.795 1.733 24.554 7.433 3.3 1.274 7.125 2.651 8.5 3.058 2.423 0.719 2.446 0.681 0.75 -1.22 -2.931 -3.285 -2.156 -5.201 3 -7.414 4.185 -1.797 5.205 -1.889 8.577 -0.779 2.937 0.967 5.812 1.014 12.362 0.203 4.694 -0.582 8.822 -1.502 9.173 -2.046 1.416 -2.193 7.899 -4.559 13.786 -5.03 5.01 -0.402 6.891 -0.116 9.545 1.448 2.239 1.319 5.423 2.01 9.858 2.127 l 6.551 0.179 l -0.735 -6.245 c -0.404 -3.435 -1.4 -8.04 -2.212 -10.245 c -0.812 -2.2 -1.322 -4.158 -1.133 -4.35 0.849 -0.864 2.4 1.251 5.429 7.404 3.605 7.322 4.952 13.77 3.114 14.906 -0.883 0.546 -0.881 1.058 0.008 2.13 0.644 0.776 1 1.428 0.799 1.448 -0.205 0.021 -8.472 0.202 -18.372 0.403 -19.884 0.404 -28.624 1.87 -36.412 6.109 -2.668 1.452 -5.818 3.948 -7 5.546 -1.319 1.784 -3 2.869 -4.368 2.811 -1.221 -0.052 -7.185 -2.237 -13.254 -4.856 z m -39.22 -1.54 c -3.466 -1.506 -4.44 -4.509 -1.462 -4.509 c 0.983 0 3.346 1.332 5.25 2.959 2.893 2.473 3.133 2.96 1.462 2.961 -1.1 0.001 -3.463 -0.634 -5.25 -1.411 z m 22.5 -9.577 c -6.949 -3.669 -3.412 -8.356 7.261 -9.62 l 4.903 -0.581 l 1.088 -5.616 c 1.84 -9.496 4.103 -14.316 9.04 -19.251 4.815 -4.815 11.862 -7.864 18.17 -7.864 3.797 0 9.786 2.571 9.786 4.201 0 0.717 -2.067 2.399 -4.593 3.739 -2.526 1.34 -5.763 4.04 -7.193 5.998 -1.43 1.959 -3.563 4.687 -4.74 6.06 -1.176 1.375 -2.683 4.412 -3.347 6.75 -1.369 4.817 -3.395 5.839 -2.478 1.25 0.373 -1.865 0.188 -3 -0.49 -3 -1.398 0 -3.43 3.754 -2.685 4.959 0.312 0.505 -0.23 1.382 -1.204 1.949 -1.478 0.86 -1.228 1.036 1.51 1.061 3.596 0.033 5.209 2.236 3.556 4.857 -0.539 0.855 -3.281 2.073 -6.094 2.706 -2.812 0.633 -6.252 1.898 -7.643 2.81 c -3.384 2.217 -10.232 2.028 -14.851 -0.41 z m 32.28 -10.182 c 0.019 -2.338 0.903 -6.05 1.966 -8.25 1.063 -2.2 1.947 -4.501 1.966 -5.113 0.048 -1.582 9.1 -9.851 12.974 -11.856 6.01 -3.11 23.921 -0.053 27.896 4.763 1.966 2.382 0.756 3.437 -4.818 4.204 -2.739 0.377 -6.072 1.544 -7.407 2.594 -1.335 1.05 -3.481 1.91 -4.769 1.912 -1.288 0.002 -3.73 0.85 -5.426 1.884 -1.696 1.034 -4.459 2.182 -6.141 2.552 -1.682 0.369 -5.765 3.122 -9.07 6.116 -3.309 2.994 -6.283 5.445 -6.609 5.445 -0.326 0 -0.577 -1.912 -0.559 -4.25 z" style="fill:#5e0000"/><path d="m 117.22 203.63 c -10.264 -2.227 -38.2 -18.667 -46.575 -27.412 -2.501 -2.611 -2.627 -3.177 -1.978 -8.916 0.381 -3.371 1.092 -6.128 1.579 -6.128 0.487 0 11.527 6.3 24.533 14 13.01 7.7 24.367 14 25.25 14 0.881 0 2.045 -0.983 2.588 -2.185 1.301 -2.879 2.88 -3.279 4.915 -1.244 1.497 1.497 1.827 1.509 3.366 0.121 0.938 -0.847 15.881 -8.347 33.21 -16.668 17.325 -8.321 32.12 -15.739 32.872 -16.484 1.422 -1.405 3.7 -13.852 4.768 -26.06 0.572 -6.534 0.436 -7.234 -1.954 -10.07 -1.412 -1.678 -4.282 -3.587 -6.377 -4.241 -4.712 -1.471 -7.718 -3.692 -6.866 -5.071 0.811 -1.312 9.06 -0.31 12.757 1.549 3.41 1.717 3.8 1.702 3.8 -0.141 0 -2.183 1.651 -1.836 3.443 0.723 2.253 3.217 1.965 12.623 -0.943 30.777 -1.366 8.525 -2.487 18.259 -2.491 21.631 -0.008 5.524 -0.314 6.43 -3.088 9.142 -1.694 1.656 -7.431 4.916 -12.75 7.245 -5.319 2.329 -18.445 8.659 -29.17 14.07 -17.43 8.788 -28.423 13.07 -32.96 12.835 -0.847 -0.044 -4.412 -0.703 -7.922 -1.464 z m -30.19 -36.586 c -0.627 -1.171 -1.946 -6.06 -2.931 -10.87 c -1.878 -9.165 -3.381 -13 -5.095 -13 c -2.082 0 -11.905 -10.29 -11.905 -12.471 c 0 -2.853 3.784 -6.336 7.746 -7.128 2.838 -0.568 3.18 -1.029 3.452 -4.664 0.186 -2.48 0.965 -4.449 2.024 -5.113 2.465 -1.545 3.767 0.146 4.601 5.971 0.669 4.678 0.918 4.986 6.372 7.887 3.121 1.66 5.982 3.334 6.357 3.719 0.664 0.681 -1.01 3.183 -6.936 10.37 l -2.883 3.497 l 2.187 10.975 c 1.203 6.04 1.911 11.421 1.574 11.966 -1.038 1.68 -3.366 1.099 -4.564 -1.139 z m 96.01 -12.978 c -1.702 -3.18 0.389 -4.562 2.357 -1.559 1.511 2.305 1.351 3.666 -0.431 3.666 -0.439 0 -1.306 -0.948 -1.926 -2.107 z m 9.06 -3.393 c 0 -0.825 0.45 -1.5 1 -1.5 0.55 0 1 0.675 1 1.5 0 0.825 -0.45 1.5 -1 1.5 -0.55 0 -1 -0.675 -1 -1.5 z m -75.54 -6.06 c -0.387 -3.61 -0.456 -8.402 -0.155 -10.65 0.634 -4.727 -1.402 -8.799 -4.098 -8.193 -0.95 0.213 -3.475 -1.21 -5.704 -3.214 l -4 -3.597 l 4.5 0.687 c 2.614 0.399 5.233 1.539 6.25 2.719 1.356 1.575 1.75 1.687 1.75 0.499 0 -2.438 5.742 -7.529 12.13 -10.753 7.153 -3.611 20.435 -6.918 27.821 -6.928 7.086 -0.009 5.516 1.202 -4.45 3.433 -11.33 2.536 -22.687 7.092 -25.704 10.311 -1.417 1.512 -3.585 4.761 -4.819 7.219 -2.02 4.03 -2.191 5.487 -1.718 14.75 0.581 11.387 -0.7 14.03 -1.804 3.717 z m -12.99 -37.39 c -8.933 -3.855 -23.607 -9.16 -32.438 -11.729 -1.24 -0.361 -1.253 -0.564 -0.082 -1.287 1.338 -0.827 9.795 1.733 24.554 7.433 3.3 1.274 7.125 2.651 8.5 3.058 2.423 0.719 2.446 0.681 0.75 -1.22 -2.931 -3.285 -2.156 -5.201 3 -7.414 4.185 -1.797 5.205 -1.889 8.577 -0.779 2.937 0.967 5.812 1.014 12.362 0.203 4.694 -0.582 8.822 -1.502 9.173 -2.046 1.416 -2.193 7.899 -4.559 13.786 -5.03 5.01 -0.402 6.891 -0.116 9.545 1.448 4.444 2.619 16.566 3.109 17.487 0.707 0.34 -0.886 -0.745 -5.631 -2.411 -10.544 -1.666 -4.913 -2.543 -8.771 -1.95 -8.573 1.523 0.508 7.54 12.545 8.316 16.636 0.359 1.895 0.172 4.17 -0.423 5.122 -0.767 1.229 -0.751 2.031 0.059 2.841 0.621 0.621 0.926 1.145 0.678 1.166 -0.248 0.021 -8.55 0.202 -18.45 0.403 -19.884 0.404 -28.624 1.87 -36.412 6.109 -2.668 1.452 -5.818 3.948 -7 5.546 -1.319 1.784 -3 2.869 -4.368 2.811 -1.221 -0.052 -7.185 -2.237 -13.254 -4.856 z m -39.22 -1.54 c -3.466 -1.506 -4.44 -4.509 -1.462 -4.509 c 0.983 0 3.346 1.332 5.25 2.959 2.893 2.473 3.133 2.96 1.462 2.961 -1.1 0.001 -3.463 -0.634 -5.25 -1.411 z m 22.5 -9.577 c -4.64 -2.449 -4.931 -5.27 -0.767 -7.423 4.074 -2.107 11.652 -3.057 13.323 -1.67 0.975 0.809 2.961 0.804 7.392 -0.02 6.854 -1.275 9.302 -0.741 9.302 2.027 0 2.552 -1.697 3.752 -6.5 4.597 -2.2 0.387 -5.488 1.571 -7.307 2.63 c -4.233 2.466 -10.615 2.407 -15.443 -0.141 z" style="fill:#a60000"/><path d="m 117.64 201.6 c -9.677 -2.401 -35.509 -17.17 -44.35 -25.361 -3.124 -2.894 -3.272 -3.337 -2.622 -7.818 0.379 -2.613 0.818 -4.899 0.976 -5.081 0.244 -0.282 13.267 7.186 35.458 20.333 3.03 1.792 7.862 4.445 10.75 5.895 2.888 1.45 5.25 3.079 5.25 3.619 0 1.509 2.603 1.167 4.01 -0.527 1.668 -2.01 13.11 -8.395 44.836 -25.01 17.856 -9.353 26.608 -14.473 27.16 -15.889 1.336 -3.419 4 -22.643 3.998 -28.833 -0.003 -5.585 -0.118 -5.827 -4.153 -8.75 -2.283 -1.653 -4.927 -3.01 -5.878 -3.01 -0.95 0 -2.288 -0.675 -2.972 -1.5 -2.077 -2.503 3.985 -1.882 9.32 0.955 2.695 1.433 4.868 2.051 5.218 1.484 0.33 -0.534 1.019 -0.713 1.531 -0.396 1.628 1.01 1.01 11.594 -1.577 27.01 -1.379 8.221 -2.556 17.198 -2.615 19.948 -0.22 10.257 0.5 9.675 -31.52 25.457 -15.871 7.823 -30.908 15.04 -33.415 16.04 -6.686 2.67 -12.638 3.108 -19.406 1.429 z m -29.33 -35.07 c -0.539 -1.022 -1.766 -5.457 -2.726 -9.857 -2.556 -11.713 -4.057 -14.928 -7.8 -16.713 -4.849 -2.312 -9.679 -6.722 -9.679 -8.837 c 0 -3.244 4.064 -6.176 7.75 -5.591 3.237 0.514 3.25 0.499 3.25 -3.73 0 -2.335 0.616 -5.088 1.368 -6.117 1.325 -1.812 1.404 -1.805 2.5 0.243 0.622 1.163 1.139 3.832 1.147 5.93 0.019 4.748 0.469 5.401 5.735 8.324 2.338 1.298 4.25 2.997 4.25 3.775 0 0.779 -1.575 2.991 -3.5 4.916 -4.159 4.159 -4.302 5.976 -1.478 18.75 1.185 5.358 1.614 9.314 1.071 9.857 -0.543 0.543 -1.301 0.162 -1.888 -0.95 z m 27.795 -41.697 c 0 -1.379 1.105 -3.819 2.455 -5.424 2.933 -3.486 14.05 -9.164 19.296 -9.858 3.123 -0.413 2.533 0.033 -3.534 2.673 -7.489 3.259 -12.183 7.05 -14.433 11.668 -1.751 3.59 -3.784 4.096 -3.784 0.941 z m -6.541 -1.727 c -0.363 -0.587 -0.419 -1.307 -0.126 -1.6 0.716 -0.716 2.667 0.546 2.667 1.726 0 1.278 -1.726 1.193 -2.541 -0.126 z m 2.234 -17.905 c -9.01 -3.521 -9.871 -5.795 -3.377 -8.939 5.473 -2.65 6.106 -2.621 8.06 0.363 1.53 2.335 1.768 2.385 4.978 1.044 1.854 -0.775 6.142 -1.855 9.53 -2.4 3.387 -0.546 9.05 -2.413 12.573 -4.149 6.214 -3.059 6.514 -3.108 9.632 -1.552 1.77 0.883 4.184 1.605 5.365 1.605 1.18 0 2.575 0.429 3.099 0.953 0.88 0.88 12.998 3.165 18.202 3.432 1.24 0.064 2.253 0.488 2.251 0.943 -0.002 0.455 -7.991 0.974 -17.754 1.153 -19.81 0.363 -27.843 1.736 -38.03 6.501 -7.483 3.502 -8.129 3.548 -14.533 1.046 z m -48.693 -2.087 c 0 -0.582 0.45 -0.781 1 -0.441 0.55 0.34 1 0.816 1 1.059 0 0.243 -0.45 0.441 -1 0.441 -0.55 0 -1 -0.477 -1 -1.059 z m 27.684 -6.39 c -3.881 -1.384 -7.684 -4.196 -7.684 -5.68 c 0 -1.295 5.409 -3.753 9.81 -4.456 3.778 -0.604 4.12 -0.45 5.681 2.568 1.129 2.183 2.196 3.056 3.335 2.725 9.744 -2.827 11.215 -3.067 12.281 -2 1.783 1.783 0.264 3.01 -4.636 3.745 -2.505 0.376 -6.448 1.543 -8.762 2.593 -4.968 2.255 -5.1 2.262 -10.02 0.506 z m 89 -5.201 c -0.999 -0.999 -0.836 -5.35 0.2 -5.35 1.207 0 2.24 4.277 1.267 5.249 -0.431 0.431 -1.091 0.476 -1.467 0.101 z" style="fill:#d70000"/><path d="m 117.64 201.6 c -9.677 -2.401 -35.509 -17.17 -44.35 -25.361 -3.124 -2.894 -3.272 -3.337 -2.622 -7.818 0.379 -2.613 0.818 -4.899 0.976 -5.081 0.244 -0.282 13.267 7.186 35.458 20.333 3.03 1.792 7.862 4.445 10.75 5.895 2.888 1.45 5.25 3.079 5.25 3.619 0 1.509 2.603 1.167 4.01 -0.527 1.668 -2.01 13.11 -8.395 44.836 -25.01 17.856 -9.353 26.608 -14.473 27.16 -15.889 1.336 -3.419 4 -22.643 3.998 -28.833 -0.003 -5.585 -0.118 -5.827 -4.153 -8.75 -2.283 -1.653 -4.927 -3.01 -5.878 -3.01 -0.95 0 -2.288 -0.675 -2.972 -1.5 -2.077 -2.503 3.985 -1.882 9.32 0.955 2.695 1.433 4.868 2.051 5.218 1.484 0.33 -0.534 1.019 -0.713 1.531 -0.396 1.628 1.01 1.01 11.594 -1.577 27.01 -1.379 8.221 -2.556 17.198 -2.615 19.948 -0.22 10.257 0.5 9.675 -31.52 25.457 -15.871 7.823 -30.908 15.04 -33.415 16.04 -6.686 2.67 -12.638 3.108 -19.406 1.429 z m -29.33 -35.07 c -0.539 -1.022 -1.766 -5.457 -2.726 -9.857 -2.556 -11.713 -4.057 -14.928 -7.8 -16.713 -4.849 -2.312 -9.679 -6.722 -9.679 -8.837 c 0 -3.244 4.064 -6.176 7.75 -5.591 3.237 0.514 3.25 0.499 3.25 -3.73 0 -2.335 0.616 -5.088 1.368 -6.117 1.325 -1.812 1.404 -1.805 2.5 0.243 0.622 1.163 1.139 3.832 1.147 5.93 0.019 4.748 0.469 5.401 5.735 8.324 2.338 1.298 4.25 2.997 4.25 3.775 0 0.779 -1.575 2.991 -3.5 4.916 -4.159 4.159 -4.302 5.976 -1.478 18.75 1.185 5.358 1.614 9.314 1.071 9.857 -0.543 0.543 -1.301 0.162 -1.888 -0.95 z m 27.795 -41.697 c 0 -1.379 1.105 -3.819 2.455 -5.424 2.933 -3.486 14.05 -9.164 19.296 -9.858 3.123 -0.413 2.533 0.033 -3.534 2.673 -7.489 3.259 -12.183 7.05 -14.433 11.668 -1.751 3.59 -3.784 4.096 -3.784 0.941 z m -6.541 -1.727 c -0.363 -0.587 -0.419 -1.307 -0.126 -1.6 0.716 -0.716 2.667 0.546 2.667 1.726 0 1.278 -1.726 1.193 -2.541 -0.126 z m -46.46 -19.992 c 0 -0.582 0.45 -0.781 1 -0.441 0.55 0.34 1 0.816 1 1.059 0 0.243 -0.45 0.441 -1 0.441 -0.55 0 -1 -0.477 -1 -1.059 z m 116.68 -11.591 c -0.999 -0.999 -0.836 -5.35 0.2 -5.35 1.207 0 2.24 4.277 1.267 5.249 -0.431 0.431 -1.091 0.476 -1.467 0.101 z" style="fill:#5d0000"/></svg>