<svg xmlns="http://www.w3.org/2000/svg" viewBox="0 0 256 256"><g transform="translate(0 -796.36)" style="color:#000"><path d="m 2.967 952.88 c 15.875 104.05 156.87 131.89 219.1 57.62 54.798 -55.17 41.16 -160.78 -26.05 -196.99 -77.21 -48.44 -189.69 11.446 -195.83 107.88 c -0.632 10.565 0.26 21.245 2.771 31.493 z" style="fill:#fff"/><g transform="translate(0 796.36)" style="fill:#ff4500;fill-rule:evenodd"><path d="m 154.11 215.71 c -2.762 -4.689 -9.795 -17.312 -15.629 -28.05 -13.968 -25.713 -13.515 -25.12 -20.906 -27.23 -3.394 -0.967 -8.902 -3.239 -12.24 -5.05 l -6.068 -3.292 l -14.542 5.16 c -24.813 8.805 -52.36 17.935 -54.1 17.931 -2.251 -0.005 1.396 -2.146 30.653 -17.989 29.464 -15.956 31.729 -17.512 32.655 -22.447 0.376 -2 2.544 -7.501 4.818 -12.214 l 4.134 -8.569 l -11.184 -33.12 c -6.151 -18.214 -11.184 -33.849 -11.185 -34.744 c -0.001 -0.895 6.873 10.82 15.276 26.03 18.597 33.671 20.47 36.3 27 37.965 2.685 0.682 8.128 2.991 12.1 5.131 l 7.216 3.89 l 16.11 -5.745 c 8.858 -3.16 19.767 -7.312 24.24 -9.227 7.908 -3.384 26.925 -8.704 27.841 -7.788 0.982 0.982 -17.473 11.764 -37.437 21.872 -11.542 5.844 -22.339 11.764 -23.993 13.156 -2.04 1.717 -3.245 4.02 -3.747 7.159 -0.407 2.546 -2.426 7.643 -4.487 11.328 -3.285 5.874 -3.599 7.078 -2.551 9.768 4.793 12.296 21.579 61.936 21.345 63.12 -0.161 0.811 -2.552 -2.362 -5.315 -7.05 z"/><path d="m 184.67 94.04 c -3.901 -4.623 -5.626 -6.079 -9.06 -7.653 -4.376 -2 -8.733 -1.829 -19.366 0.781 -4.475 1.098 -8.409 1.997 -8.741 1.997 -1.248 0 0.554 -1.367 6.494 -4.928 6.912 -4.143 8.935 -5.608 11.11 -8.05 2.839 -3.18 3.229 -4.321 3.229 -9.456 0.001 -4.145 -0.187 -5.249 -1.836 -10.776 -2.18 -7.307 -2.486 -8.875 -1.816 -9.29 0.746 -0.461 2.501 1.743 6.311 7.931 1.887 3.064 4.425 6.582 5.642 7.817 4.939 5.02 10.231 5.771 19.791 2.817 6.892 -2.13 10.167 -2.871 10.842 -2.454 0.693 0.428 -1.372 1.955 -8.804 6.51 -6.402 3.923 -9.795 6.989 -10.558 9.539 -0.717 2.396 -1.071 14.02 -0.502 16.482 0.25 1.082 0.399 2.023 0.33 2.092 -0.068 0.068 -1.448 -1.445 -3.067 -3.362 z"/></g></g></svg>