<svg xmlns="http://www.w3.org/2000/svg" viewBox="0 0 256 256"><g transform="translate(0 -796.36)" color="#000"><path d="m 26.373 992.2 c -92.05 -130.93 77.948 -263.6 186.39 -156.91 102.17 100.51 7.449 256.68 -119.69 207.86 -26.526 -10.185 -49.802 -26.914 -66.7 -50.948 z" fill="#fff"/><g transform="matrix(0 0.86948 -1.09955 0 1150.8 851.44)"><g fill="none" stroke="#ff4500" stroke-linecap="round"><g stroke-width="4.246"><path transform="matrix(1.83966 0.07992 -0.04754 1.0835 379.63 799.63)" d="m -155.51 131.79 a 29.643 19.11 0 0 1 3.108 -26.2 29.643 19.11 0 0 1 40.756 0.576 29.643 19.11 0 0 1 1.325 26.26"/><path d="m -154.75 132.37 a 29.643 19.11 0 0 1 1.77 -26.435 29.643 19.11 0 0 1 41.05 0.053 29.643 19.11 0 0 1 1.607 26.44" transform="matrix(0.98916 -1.55321 0.91468 0.58291 151.35 643.19)"/></g><path transform="matrix(-0.85074 -1.63318 0.96224 -0.50059 -97.06 762.7)" d="m -134.19 138.83 a 29.643 19.11 0 0 1 -27.534 -15.871 29.643 19.11 0 0 1 17.842 -20.848 29.643 19.11 0 0 1 35.514 6.547 29.643 19.11 0 0 1 -1.958 23.776" stroke-width="4.245"/></g><path transform="matrix(1.3125 0 0 1.3125 288.38 758.1)" d="m -114.82 122.43 a 5.714 5.714 0 0 1 -5.714 5.714 5.714 5.714 0 0 1 -5.714 -5.714 5.714 5.714 0 0 1 5.714 -5.714 5.714 5.714 0 0 1 5.714 5.714 z" fill="#ff4500"/></g><g fill="#ff4500" stroke="#ff4500"><rect width="91.12" height="5.424" x="74.847" y="889.65" rx="12.231" ry="2.712"/><rect ry="2.712" rx="12.231" y="869.04" x="74.847" height="5.424" width="91.12"/><rect width="63.07" height="5.58" x="75.854" y="848.35" rx="8.466" ry="2.79" stroke-width="0.844"/></g></g></svg>