<svg xmlns="http://www.w3.org/2000/svg" viewBox="0 0 256 256"><g transform="translate(0 -796.36)"><rect width="152.68" height="149.64" x="49.04" y="855.2" rx="12.231" ry="5.698" style="fill:#ff4500ff4500;stroke-width:1"/><g><g style="fill:#fff"><path d="m 122.74 1050.9 c -59.3 -10.443 -113.03 -61.54 -121.74 -115.77 -2.028 -12.62 -0.836 -34.629 2.479 -45.769 c 9.999 -33.607 33.18 -62.22 62.811 -77.53 29.41 -15.189 59.3 -16.52 90.996 -4.05 37.813 14.874 72.67 51.3 87.26 91.17 5.923 16.191 8.341 29.18 8.368 44.952 0.025 15.219 -1.095 22.949 -5.05 34.85 -12.345 37.13 -45.33 65.47 -84.08 72.26 -10.467 1.833 -30.27 1.774 -41.03 -0.122 z m -20.22 -115.01 c -9.679 -32.26 15.435 -29.786 14.189 -31.434 -1.093 -1.445 -1.492 -4.924 -1.515 -13.22 l -2.831 -9.16 c -7.955 0.48 -26.534 -16.864 -40.637 -16.896 l -9.596 -0.061 l -0.288 11.602 c -0.158 6.381 -0.727 12.04 -1.263 12.576 -0.594 0.594 -0.975 17 -0.975 42.03 v 41.06 l 11.364 0.624 c 13.42 0.736 19.801 2.439 30.05 8.02 14.642 7.969 1.253 -13.873 2.687 -15.06 1.074 -0.891 11.07 10.774 1.847 -19.97 z m 25.533 10.714 l 0.264 -40.717 l -2.284 0.324 l -2.284 0.324 l -0.281 38.39 c -0.155 21.11 -0.025 39.439 0.289 40.726 0.37 1.519 1.177 2.223 2.302 2.01 1.596 -0.307 1.752 -3.522 1.996 -41.05 z m 64.7 32.915 l -0.311 -4.293 l -28.537 -0.268 l -28.537 -0.268 v 4.562 v 4.561 h 28.847 h 28.847 z m 0.194 -12.879 v -4.04 h -28.789 h -28.789 v 4.04 v 4.04 h 28.789 h 28.789 z m -25.25 -13.13 v -4.04 h -16.16 h -16.16 v 4.04 v 4.04 h 16.16 h 16.16 z m 0 -12.12 v -4.04 h -16.16 h -16.16 v 4.04 v 4.04 h 16.16 h 16.16 z m 0 -13.13 v -4.04 h -16.16 h -16.16 v 4.04 v 4.04 h 16.16 h 16.16 z m 25.25 -12.12 v -4.04 h -28.789 h -28.789 v 4.04 v 4.04 h 28.789 h 28.789 z"/><g transform="translate(0 796.36)"><path d="m 112.69 90.13 c -1.339 -2.167 -16.497 -8.9 -24.672 -10.958 -5.107 -1.286 -11.718 -2.147 -16.485 -2.147 c -7.676 0 -7.948 -0.081 -7.636 -2.273 0.307 -2.16 0.749 -2.269 8.909 -2.202 9.794 0.081 18.798 2.176 28.28 6.582 8.924 4.144 14.14 7.89 14.14 10.152 0 2.032 -1.501 2.531 -2.542 0.846 z"/><path d="m 109.18 99.58 c -9.921 -5.993 -26.309 -10.435 -38.503 -10.435 h -7.088 l 0.32 -2.778 l 0.32 -2.778 l 8.586 0.071 c 10.491 0.087 19.16 2.257 29.799 7.458 10.05 4.915 12.918 7.165 12.468 9.796 -0.325 1.902 -0.678 1.822 -5.902 -1.334 z"/></g></g><g style="fill:#ff4500;stroke:#ff4500"><path d="m 103.22 981.86 c -12.662 -6.571 -19.09 -8.328 -33.5 -9.155 l -11.05 -0.635 l 0.06 -20.805 c 0.06 -20.571 1.412 -60 2.644 -77.12 l 0.636 -8.838 l 3.725 0.008 c 7.669 0.016 20.596 1.962 26.954 4.057 7.959 2.623 21.479 10 21.479 11.718 0 0.72 -2.452 -0.21 -5.848 -2.22 -11.447 -6.774 -26.484 -10.834 -38.23 -10.323 -6 0.261 -6.83 0.543 -7.102 2.413 -0.288 1.984 0.406 2.189 10.972 3.247 11.885 1.189 20.258 3.486 30.447 8.352 8.214 3.923 9.363 4.915 10.242 8.848 l 0.748 3.345 l -4.261 -3.034 c -9.703 -6.908 -27.389 -12.221 -40.785 -12.253 -7.296 -0.017 -7.337 -0.002 -7.768 2.883 l -0.433 2.9 l 10.851 1.107 c 13.879 1.416 20.94 3.269 32.528 8.54 l 9.343 4.249 l 1.233 5.555 c 0.87 3.921 1.145 16.846 0.935 43.925 -0.258 33.23 -0.505 38.39 -1.84 38.509 -0.848 0.077 -6.238 -2.298 -11.979 -5.277 z" style="stroke-width:1.01"/><path d="m 124.23 989.01 c -0.916 -0.445 -1.665 -19.76 -1.665 -42.921 0 -36.719 0.427 -42.11 3.331 -42.11 2.906 0 3.297 5.089 3.068 39.881 -0.253 38.39 -1.145 46.896 -4.734 45.15 z" style="stroke-width:1.526"/><path d="m 135.45 916.32 v -3.527 h 29.29 h 29.29 v 3.527 v 3.527 h -29.29 h -29.29 v -3.527 z" style="stroke-width:1.016"/><path d="m 135.45 928.44 v -3.521 h 16.654 h 16.654 v 3.521 v 3.521 h -16.654 h -16.654 v -3.521 z" style="stroke-width:1.029"/><path d="m 135.6 941.57 v -3.375 h 28.641 h 28.641 v 3.375 v 3.375 h -28.641 h -28.641 v -3.375 z" style="stroke-width:1.321"/><path d="m 135.45 953.69 v -3.521 h 16.654 h 16.654 v 3.521 v 3.521 h -16.654 h -16.654 v -3.521 z" style="stroke-width:1.029"/><path d="m 135.63 979 v -4.03 h 29.29 h 29.29 v 4.03 v 4.03 h -29.29 h -29.29 v -4.03 z" style="stroke-width:1.017"/><path d="m 135.62 966.64 v -4.03 h 29.04 h 29.04 v 4.03 v 4.03 h -29.04 h -29.04 v -4.03 z" style="stroke-width:1.012"/></g><g transform="translate(0 796.36)" style="fill:#ffdead"><path d="m 63.53 83.29 c -0.014 1.746 -0.567 3.726 -0.28 5.425 3.01 1.631 6.906 0.694 10.204 1.244 13.572 0.852 26.943 4.847 38.551 11.972 1.24 1.219 3.625 1.04 3.482 -1.058 0.084 -4.268 -4.92 -5.888 -7.89 -7.797 c -11.651 -6.56 -24.876 -10.57 -38.33 -10.08 -1.874 0.202 -3.979 -0.402 -5.735 0.292"/><path d="m 67.918 71.949 c -2.248 -0.302 -5.419 1.11 -4.426 3.837 1.595 2.725 5.614 1.269 8.163 1.797 10.381 0.354 20.644 2.932 30.11 7.267 4.061 1.728 8.136 3.651 11.465 6.587 2.683 1.087 3.358 -3.193 1.458 -4.475 c -5.676 -5.479 -13.349 -8.29 -20.514 -11.279 -8.368 -3.132 -17.395 -3.769 -26.25 -3.733"/></g></g></g></svg>