<svg xmlns="http://www.w3.org/2000/svg" viewBox="0 0 256 256"><g transform="matrix(0 1 -1 0 1711.48 1605.44)" style="fill:#09c"><path d="m -1374.42 1658.71 c 127.95 -192.46 -280.09 -311 -226.07 -62.2 23.02 102.82 167.39 165.22 226.07 62.2 z" style="fill:#fff;color:#000"/><g transform="matrix(0 -14.0922 12.32655 0 -1564.7 1675.94)" style="fill:#ff4500"><text y="6.842" x="3.768" line-height="125%" style="letter-spacing:0;word-spacing:0;font-size:14.387;font-family:URW Chancery L;font-weight:bold;font-style:italic"><tspan y="6.842" x="3.768"/></text><path d="m 6.773 1.614 l -3.951 2.18 l 0.011 0.505 v 0.848 l -0.011 6.957 c 0 0.281 0.263 0.505 0.591 0.505 h 6.71 c 0.327 0 0.59 -0.223 0.591 -0.505 l 0.011 -6.957 v -0.848 l -0.011 -0.505 l -3.94 -2.18 z m 0 0.687 c 0.38 0 0.687 0.308 0.687 0.687 0 0.379 -0.308 0.687 -0.687 0.687 -0.38 0 -0.687 -0.308 -0.687 -0.687 0 -0.379 0.308 -0.687 0.687 -0.687 z"/><rect x="6.414" height="2.453" width="0.719" rx="0.237"/><g style="fill-opacity:0.059"><rect width="0.18" height="2.28" x="6.522" rx="0.06"/><rect x="6.845" height="2.28" width="0.18" rx="0.06"/></g><g transform="matrix(0.35968 0 0 0.35968 -1.859 -362.51)"><rect y="1012.36" x="22" height="1" width="4" rx="0.5"/><rect ry="0.261" y="-25.7" x="1012.61" height="3.4" width="0.5" transform="matrix(0 1 -1 0 0 0)" rx="0.25" style="fill-opacity:0.059"/></g><g style="fill-rule:evenodd"><path d="m 6.247 6.352 v 2.051 c 0.002 0.188 -0.123 0.399 -0.381 0.532 -0.359 0.185 -0.736 0.094 -0.874 -0.119 -0.138 -0.213 -0.037 -0.549 0.322 -0.734 0.241 -0.124 0.491 -0.124 0.671 -0.046 v -1.632 v -1.052 l 2.63 -0.526 v 0.263 v 0.789 v 2.262 c 0.002 0.187 -0.123 0.399 -0.381 0.531 -0.359 0.185 -0.736 0.094 -0.874 -0.119 -0.138 -0.213 -0.037 -0.549 0.322 -0.734 0.241 -0.124 0.491 -0.124 0.671 -0.046 v -1.842 z" style="fill-opacity:0.143"/><path d="m 6.247 6.532 v 2.051 c 0.002 0.188 -0.123 0.399 -0.381 0.532 -0.359 0.185 -0.736 0.094 -0.874 -0.119 -0.138 -0.213 -0.037 -0.549 0.322 -0.734 0.241 -0.124 0.491 -0.124 0.671 -0.046 v -1.632 v -1.052 l 2.63 -0.526 v 0.263 v 0.789 v 2.262 c 0.002 0.187 -0.123 0.399 -0.381 0.531 -0.359 0.185 -0.736 0.094 -0.874 -0.119 -0.138 -0.213 -0.037 -0.549 0.322 -0.734 0.241 -0.124 0.491 -0.124 0.671 -0.046 v -1.842 z" style="fill:#ffdead"/></g></g></g></svg>