<svg xmlns="http://www.w3.org/2000/svg" viewBox="0 0 256 256"><path d="m 213.3 834.88 c 146.42 225.37 -253.5 312.59 -221.64 80.74 12.991 -94.56 165.63 -166.95 221.64 -80.74 z" transform="matrix(-1 0 0 -1 245.66 1052.36)" fill="#fff" color="#000"/><g fill="#ff4500"><path d="m 72.56 185.79 c -1.834 -1.834 0.297 -4.826 11.141 -15.641 8.397 -8.376 12.274 -11.598 13.423 -11.157 4.04 1.552 2.773 3.776 -8.906 15.601 -10.732 10.866 -13.797 13.06 -15.657 11.197 z m 35.08 -22.496 c -1.513 -0.552 -2.75 -1.502 -2.75 -2.111 0 -0.608 -2.324 -3.254 -5.165 -5.879 -4.749 -4.389 -5.2 -5.199 -5.604 -10.07 -0.535 -6.453 0.992 -12.569 3.923 -15.715 l 2.189 -2.35 3.969 4.393 c 2.183 2.416 8.71 9.505 14.503 15.753 11.467 12.367 11.783 13.338 5.117 15.747 -4.137 1.495 -12.398 1.613 -16.183 0.23 z m 23.735 -16.552 c -2.192 -2.624 -8.423 -9.38 -13.848 -15.01 -6.712 -6.971 -9.671 -10.741 -9.264 -11.802 0.92 -2.398 6.968 -4.47 13.05 -4.47 6.679 0 9.722 1.279 11.927 5.01 0.923 1.563 3.232 3.802 5.131 4.975 3.989 2.465 5.02 5.966 4.305 14.601 -0.462 5.571 -3.139 10.644 -5.905 11.19 -0.775 0.153 -3.202 -1.869 -5.394 -4.493 z m 7.181 -26.952 c -1.836 -1.836 0.309 -4.838 11.272 -15.772 10.284 -10.257 12.155 -11.728 13.5 -10.612 0.859 0.713 1.561 2.035 1.561 2.94 0 2.095 -22 24.11 -24.1 24.11 -0.862 0 -1.868 -0.3 -2.234 -0.667 z" transform="matrix(1.43875 0 0 1.42855 -41.975 -74.877)"/></g></svg>