<svg xmlns="http://www.w3.org/2000/svg" viewBox="0 0 256 256"><path d="m 38.434 32.449 c 225.37 -146.42 312.59 253.5 80.74 221.64 -94.56 -12.991 -166.95 -165.63 -80.74 -221.64 z" fill="#fff" color="#000"/><g fill="#ff4500"><path d="m 74.46 180.16 c -0.856 -1.222 -1.557 -2.648 -1.557 -3.167 0 -0.52 5.889 -6.892 13.09 -14.16 l 13.09 -13.216 -1.794 -3.367 c -2.774 -5.206 -2.474 -14.26 0.676 -20.394 3.755 -7.312 5.313 -7.05 13.455 2.229 3.762 4.289 10.469 11.515 14.904 16.06 9.03 9.249 9.157 10.125 2.02 13.718 -5.111 2.572 -14.608 2.643 -19.298 0.143 l -3.367 -1.794 -13.216 13.09 c -7.269 7.197 -13.94 13.09 -14.826 13.09 -0.886 0 -2.311 -1 -3.167 -2.223 z m 59.37 -38.03 c -2.41 -2.887 -9.101 -10.112 -14.867 -16.05 -11.518 -11.868 -11.638 -12.26 -4.958 -16.196 4.642 -2.735 16.236 -2.816 20.317 -0.142 l 2.835 1.857 13.13 -13.11 c 7.224 -7.209 13.846 -13.11 14.716 -13.11 1.868 0 4.892 3.088 4.892 4.996 0 0.736 -5.892 7.289 -13.09 14.562 -13.07 13.197 -13.09 13.229 -11.468 15.706 2.221 3.389 3.02 11.351 1.644 16.44 -1.212 4.494 -5.446 10.295 -7.514 10.295 -0.69 0 -3.227 -2.363 -5.637 -5.25 z" transform="matrix(0 1.43875 -1.42855 0 319.62 -45.27)"/></g></svg>