<svg xmlns="http://www.w3.org/2000/svg" viewBox="0 0 256 256"><g transform="translate(0 -796.36)"><path d="m 229.63 992.2 c 92.05 -130.93 -77.948 -263.6 -186.39 -156.91 -102.17 100.51 -7.449 256.68 119.69 207.86 c 26.526 -10.185 49.802 -26.914 66.7 -50.948 z" style="fill:#fff;color:#000"/><g transform="matrix(0.35697 0 0 0.3244 -378.4 1040.67)"/><g transform="matrix(3.66758 0 0 3.48275 -1376.38 -899.8)" style="fill:#ff4500"><path d="m 416.94 503.66 l -25.37 9.154 v 21.97 l 25.37 9.154 v -40.28 z m -8.37 12.947 v 14.385 l -9.154 -2.615 v -9.154 l 9.154 -2.615 z"/><g style="fill:#ffdead"><path d="m 416.94 503.66 l 8.631 3.923 v 32.431 l -8.631 3.923 z"/><path d="m 399.42 519.22 h 3.923 v 9.154 h -3.923 z"/></g><path d="m 399.42 519.22 h 3.923 l 5.231 -1.308 v -1.307 z"/><path d="m 399.42 528.37 h 3.923 l 5.231 1.308 v 1.307 z"/></g></g></svg>