<svg xmlns="http://www.w3.org/2000/svg" viewBox="0 0 256 256"><g transform="translate(0 -796.36)"><path d="m 211.17 835.34 c 201.82 264.12 -353.59 301.64 -175.35 32.04 40.634 -61.47 121.89 -101.99 175.35 -32.04 z" fill="#fff" color="#000"/><g transform="translate(12.203 13.559)"><g fill="#ff4500"><path d="M 62.64,876.09 H168.95 V979.14 H62.64 z" opacity="0.99"/><path d="m 50.712 922.73 v -64 h 64 h 64 v 64 v 64 h -64 h -64 v -64 z m 48.764 8.75 l 0.264 -31.75 h 14.972 h 14.972 l 0.264 31.75 l 0.264 31.75 h 8.5 h 8.5 l 0.264 -31.708 l 0.264 -31.708 l 7.736 -0.292 l 7.736 -0.292 v -8.5 v -8.5 h -48.5 h -48.5 v 8.5 v 8.5 l 7.75 0.292 l 7.75 0.292 v 31.29 c 0 17.21 0.317 31.608 0.704 31.995 0.387 0.387 4.325 0.575 8.75 0.417 l 8.05 -0.287 l 0.264 -31.75 z"/></g><path d="m 94.59 148.52 0 -31.33 -2.441 -0.654 c -1.342 -0.36 -4.759 -0.661 -7.593 -0.669 l -5.153 -0.015 0 -8.136 0 -8.136 47.729 0 47.729 0 0 8.136 0 8.136 -5.153 0.015 c -10.08 0.029 -10.03 -0.024 -10.03 11.327 0 5.502 -0.321 19.601 -0.714 31.33 l -0.714 21.327 -7.267 0 -7.267 0 -0.697 -6.668 c -0.383 -3.667 -0.697 -17.823 -0.697 -31.458 l 0 -24.79 -15.06 0 c -14.701 0 -15.08 0.058 -15.714 2.441 -0.36 1.342 -0.661 15.498 -0.669 31.458 l -0.015 29.02 -8.136 0 -8.136 0 0 -31.33 z" transform="translate(-12.203 782.8)" fill="#ffdead" stroke="#fff" stroke-width="1.085"/></g></g></svg>