<svg xmlns="http://www.w3.org/2000/svg" viewBox="0 0 256 256"><path d="m -1374.42 1658.71 c 127.95 -192.46 -280.09 -311 -226.07 -62.2 23.02 102.82 167.39 165.22 226.07 62.2 z" transform="matrix(0 0.98637 -0.98183 0 1682.72 1585.9)" fill="#fff" color="#000"/><path d="m 117.94 988.33 c -0.694 -0.279 -1.717 -1.359 -2.273 -2.398 -1.427 -2.667 0.625 -7.07 6.971 -14.936 6.423 -7.966 9.501 -13.12 11.356 -19 4.346 -13.782 4.239 -11.679 1.912 -37.5 -0.446 -4.95 -1.388 -10.05 -2.092 -11.342 -0.705 -1.288 -2.163 -5.03 -3.241 -8.312 -1.176 -3.582 -4.142 -8.814 -7.416 -13.08 -3 -3.911 -5.456 -7.618 -5.456 -8.238 0 -2.089 2.378 -3.527 5.832 -3.527 2.645 0 4.211 0.826 6.829 3.602 1.869 1.981 4.02 5.101 4.789 6.934 1.124 2.689 5.74 6.464 7.905 6.464 0.25 0 0.216 -2.63 -0.075 -5.845 -0.494 -5.443 -0.323 -6.076 2.486 -9.22 2.76 -3.089 3.507 -3.378 8.819 -3.405 5.458 -0.029 5.936 0.166 8.04 3.264 1.849 2.724 2.173 4.344 1.867 9.351 -0.341 5.588 -0.219 6.02 1.57 5.549 3.642 -0.952 2.389 4.187 -2.051 8.411 -5.714 5.435 -10.171 6.452 -15.87 3.618 -4.232 -2.104 -11.06 -9.731 -11.12 -12.416 -0.026 -1.256 -3.831 -4.307 -5.372 -4.307 -1.32 0 0.018 5.598 2.731 11.424 7.494 16.09 10.395 37.33 7.05 51.576 -2.573 10.954 -2.713 12 -1.602 12 0.581 0 1.645 -0.829 2.363 -1.841 1.481 -2.086 5.719 -4.58 6.484 -3.815 1.159 1.159 -1.33 5.415 -9.633 16.465 -4.831 6.43 -9.723 13.548 -10.871 15.818 -2.522 4.987 -5.61 6.449 -9.934 4.707 z m 38.02 -103.58 c 2.79 -2.131 3.104 -6.02 0.73 -9.04 -1.171 -1.489 -2.685 -2.707 -3.364 -2.707 -1.439 0 -4.62 6.715 -4.62 9.753 0 3.137 4.236 4.303 7.254 1.997 z m 19.566 99.94 c -1.982 -2.371 -4.877 -6.758 -6.434 -9.75 -1.557 -2.992 -4.531 -7.877 -6.609 -10.856 -6.118 -8.77 -4.274 -14.14 2.174 -6.334 2.964 3.588 3.123 3.653 3.689 1.5 1.031 -3.916 3.368 -2.454 6.396 4 1.613 3.437 4.964 8.722 7.447 11.743 5.124 6.233 5.815 9.984 2.293 12.45 -3.436 2.407 -5.061 1.907 -8.957 -2.754 z m -9.167 -35.19 c -1.547 -3.762 -1.872 -7.537 -2 -23.25 -0.161 -19.744 -0.301 -18.862 5.138 -32.476 0.817 -2.046 2.324 -4.478 3.348 -5.405 2.624 -2.375 2.332 -4.375 -0.639 -4.375 -3.488 0 -3.158 -1.541 1.969 -9.184 4.984 -7.429 7.385 -8.797 11.133 -6.341 4.583 3 4.176 4.886 -3.684 17.02 -2.493 3.85 -6.518 11.275 -8.945 16.5 l -4.412 9.5 -0.083 13.5 c -0.052 8.494 0.395 14.983 1.205 17.5 1.416 4.4 1.638 7.499 0.709 9.918 -0.964 2.512 -1.764 1.887 -3.74 -2.917 z" transform="matrix(1.344 0 0 1.26227 -76.56 -1040.45)" fill="#ff4500"/></svg>