<svg xmlns="http://www.w3.org/2000/svg" viewBox="0 0 256 256"><defs><clipPath><rect height="88" rx="10" width="84" x="-202" y="56" style="fill:none;stroke:#545454;display:block;color:#000"/></clipPath><clipPath><rect height="88" rx="10" width="84" x="-202" y="56" style="fill:none;stroke:#000;display:block;color:#000"/></clipPath><clipPath><rect height="88" rx="10" width="84" x="-202" y="56" style="fill:none;stroke:#646464;display:block;color:#000"/></clipPath><clipPath><rect height="88" rx="10" width="84" x="-202" y="56" style="fill:none;stroke:#000;display:block;color:#000"/></clipPath><clipPath><rect height="88" rx="10" width="84" x="-202" y="56" style="fill:none;stroke:#000;display:block;color:#000"/></clipPath><clipPath><rect height="88" rx="10" width="84" x="-202" y="56" style="fill:none;stroke:#424242;display:block;color:#000"/></clipPath><clipPath><rect y="56" x="-202" width="84" rx="10" height="88" style="fill:none;stroke:#545454;display:block;color:#000"/></clipPath><clipPath><rect y="56" x="-202" width="84" rx="10" height="88" style="fill:none;stroke:#000;display:block;color:#000"/></clipPath><clipPath><rect y="56" x="-202" width="84" rx="10" height="88" style="fill:none;stroke:#646464;display:block;color:#000"/></clipPath><clipPath><path transform="matrix(15.33333 0 0 11.5 415 -125.5)" d="m -24 13 c 0 1.105 -0.672 2 -1.5 2 -0.828 0 -1.5 -0.895 -1.5 -2 0 -1.105 0.672 -2 1.5 -2 0.828 0 1.5 0.895 1.5 2 z"/></clipPath><clipPath><rect y="56" x="-202" width="84" rx="10" height="88" style="fill:none;stroke:#424242;display:block;color:#000"/></clipPath><clipPath><rect y="56" x="-202" width="84" rx="10" height="88" style="fill:none;stroke:#000;display:block;color:#000"/></clipPath><clipPath><rect y="56" x="-202" width="84" rx="10" height="88" style="fill:none;stroke:#000;display:block;color:#000"/></clipPath></defs><g transform="translate(0.146 -793.7)"><path transform="matrix(8.43886 0 0 8.0272 62.3 871.17)" d="m 7.785 -1.373 c -0.554 0 -1 0.446 -1 1 v 1.1 c -2.287 0.461 -4 2.473 -4 4.9 v 4 c -1.108 0 -2 0.892 -2 2 v 1 h 6 v 1 c 0 0.554 0.446 1 1 1 0.554 0 1 -0.446 1 -1 v -1 h 6 v -1 c 0 -1.108 -0.892 -2 -2 -2 v -4 c 0 -2.427 -1.713 -4.439 -4 -4.9 v -1.1 c 0 -0.554 -0.446 -1 -1 -1 z" style="fill:#ff4500"/><g transform="matrix(-1 0 0 1 256 -1.637)"><path d="m 192.07 814.95 c 223.29 192.53 -235.81 377.66 -188.64 79.895 10.343 -65.29 128.47 -131.78 188.64 -79.895 z" style="fill:#fff;color:#000"/><path d="m 124.69 996.47 c -0.616 -0.727 -0.467 -1.562 1.179 -6.586 2.399 -7.321 2.71 -8.801 2.723 -12.946 0.011 -3.429 -0.041 -3.735 -0.74 -4.402 -0.414 -0.393 -1.102 -0.716 -1.53 -0.716 -1.864 0 -10 -2.783 -15.809 -5.41 -9.823 -4.438 -23.389 -14.606 -32.1 -24.06 -1.017 -1.102 -1.971 -2 -2.122 -2 -0.152 0 -0.45 0.633 -0.663 1.404 -0.503 1.818 -2.945 7.666 -3.844 9.206 -4.01 6.86 -9.08 11.599 -14.906 13.931 -3.144 1.259 -6.912 2.058 -9.71 2.058 -3.78 0 -4.192 -1.192 -1.907 -5.518 3.949 -7.472 7.09 -16.85 8.44 -25.2 0.568 -3.508 0.496 -9.746 -0.154 -13.475 -1.069 -6.131 -3.355 -12.858 -6.991 -20.582 -2.495 -5.297 -2.685 -6.06 -1.776 -7.13 0.615 -0.725 0.895 -0.773 3.128 -0.545 9.692 0.994 18.927 8.519 26.04 21.22 1.125 2.01 2.156 3.652 2.29 3.652 0.134 0 1.633 -1.412 3.329 -3.137 6.751 -6.866 16.02 -14.697 21.961 -18.557 3.553 -2.309 5.249 -5.417 5.536 -10.142 0.288 -4.746 -1.255 -9.197 -5.728 -16.528 -1.303 -2.136 -2.547 -4.277 -2.762 -4.757 -0.907 -2.02 -1.839 -1.938 22.07 -1.938 h 22.12 l 1.91 0.911 c 6.225 2.98 13.13 11.128 16.279 19.223 l 1.362 3.499 l 2.227 0.789 c 5.942 2.108 13.13 6.06 17.978 9.893 8.86 6.994 16.729 17.504 21.401 28.587 1.188 2.815 1.332 3.442 1.329 5.806 -0.005 3.127 -0.78 5.089 -4.102 10.375 -8.807 14.01 -21.917 23.11 -38.992 27.06 -2.187 0.506 -4.529 1.032 -5.204 1.167 -0.9 0.18 -1.276 0.465 -1.406 1.065 -0.416 1.911 -2.715 6.484 -4.834 9.612 -3.514 5.195 -9.657 11.624 -13.206 13.83 -1.15 0.715 -1.789 0.789 -6.855 0.789 -3.922 0 -5.7 -0.134 -5.969 -0.45 z m 50.59 -56.941 c 1.591 -0.635 4.113 -2.732 5.151 -4.286 0.514 -0.769 1.283 -2.413 1.706 -3.642 0.656 -1.914 0.751 -2.702 0.634 -5.309 -0.175 -3.936 -1.197 -6.515 -3.61 -9.115 -2.462 -2.649 -4.606 -3.535 -8.095 -3.344 -2.326 0.128 -2.985 0.326 -4.715 1.414 -2.33 1.465 -3.927 3.464 -5.098 6.374 -0.691 1.716 -0.828 2.592 -0.828 5.244 0 2.654 0.14 3.539 0.84 5.31 1.541 3.903 4.698 6.994 7.966 7.797 1.555 0.382 4.522 0.164 6.05 -0.445 z m -5.779 -7.676 c -1.527 -0.946 -2.315 -2.379 -2.472 -4.487 -0.181 -2.448 0.638 -4.153 2.555 -5.316 1.066 -0.647 1.746 -0.824 2.507 -0.654 2.57 0.573 4.182 2.831 4.143 5.809 -0.049 3.823 -3.843 6.444 -6.734 4.65 z" style="fill:#ff4500"/></g></g></svg>