<svg xmlns="http://www.w3.org/2000/svg" viewBox="0 0 256 256"><g transform="translate(0 -796.36)"><path d="m 44.834 1015.23 c -201.82 -266.38 353.59 -304.22 175.35 -32.31 -40.634 61.991 -121.89 102.86 -175.35 32.31 z" style="fill:#fff;color:#000"/><path d="m 105.3 840.9 a 28.754 16.957 86.996 0 0 -15.36 29.712 28.754 16.957 86.996 0 0 18.5 27.718 28.754 16.957 86.996 0 0 15.36 -29.712 28.754 16.957 86.996 0 0 -18.5 -27.718 z m 51.28 4.893 a 17.06 28.597 22.442 0 0 -21.715 20.02 17.06 28.597 22.442 0 0 4.166 33.434 17.06 28.597 22.442 0 0 26.795 -19.07 17.06 28.597 22.442 0 0 -4.167 -33.434 17.06 28.597 22.442 0 0 -5.081 -0.949 z m -92.2 20.552 a 28.662 17.02 73.06 0 0 -3.373 0.55 28.662 17.02 73.06 0 0 -7.425 32.824 28.662 17.02 73.06 0 0 24.789 21.805 28.662 17.02 73.06 0 0 7.425 -32.824 28.662 17.02 73.06 0 0 -21.412 -22.355 z m 124.79 16.04 a 17.11 28.499 28.839 0 0 -23.823 17.25 17.11 28.499 28.839 0 0 0.367 33.713 17.11 28.499 28.839 0 0 28.762 -15.689 17.11 28.499 28.839 0 0 -0.367 -33.714 17.11 28.499 28.839 0 0 -4.938 -1.56 z m -67.13 18.282 c -6.557 -0.004 -13.384 4.271 -18 13.51 -7.965 9.78 -10.697 13.376 -27.719 21.768 -8.436 6.215 -12.538 14.804 -10.544 26.73 5.438 18.94 22.694 19.555 29.35 19.626 9.276 1.053 17.455 -0.551 27.828 3.158 9.92 0.793 19.334 4.216 29.784 2.255 24.447 -8.02 19.741 -34.694 5.788 -44.41 L 139.7 916.21 C 136.57 906.19 129.48 900.68 122.05 900.67 z" style="fill:#ff4500;fill-rule:evenodd"/></g></svg>