<svg xmlns="http://www.w3.org/2000/svg" viewBox="0 0 256 256"><path d="m 107.06 251.78 c -10.399 -1.849 -28.925 -10.502 -40.02 -18.69 -7.519 -5.55 -21.271 -17.921 -21.271 -19.13 0 -0.374 -2.685 -3.647 -5.966 -7.273 -3.281 -3.626 -5.966 -7.175 -5.966 -7.886 0 -0.711 -1.445 -3.112 -3.212 -5.335 c -4.231 -5.324 -18.31 -34.16 -19.513 -39.974 -0.519 -2.505 -1.974 -7.971 -3.233 -12.148 -5.526 -18.327 -7.219 -45.603 -3.906 -62.918 3.095 -16.17 10.461 -34.07 16.843 -40.921 c 1.195 -1.283 2.173 -2.924 2.173 -3.647 0 -2.722 17.369 -16.411 26.298 -20.726 13.945 -6.739 21.549 -8.786 36.617 -9.857 15.713 -1.117 44.41 0.701 54.78 3.469 12.884 3.441 37.424 13.07 37.424 14.687 0 0.35 2.319 1.847 5.153 3.326 2.834 1.479 5.397 2.946 5.695 3.26 0.298 0.314 2.739 2.252 5.424 4.308 12.628 9.669 23.696 21.02 32.799 33.63 6.993 9.689 19.269 32.576 19.269 35.924 0 1.079 0.947 4.363 2.104 7.299 5.059 12.835 7.188 37.978 4.4 51.965 -1.348 6.763 -5.854 20.542 -8.425 25.761 -4.649 9.441 -20.935 29.805 -23.864 29.84 -0.435 0.005 -2.58 1.705 -4.767 3.778 -2.187 2.073 -6.092 4.908 -8.678 6.299 -2.586 1.392 -8.246 4.817 -12.577 7.612 -4.332 2.795 -8.481 5.083 -9.22 5.085 -0.74 0.002 -2.989 1.01 -4.999 2.232 -16.755 10.215 -48.18 14.512 -73.36 10.03 z" fill="#fff" stroke="#fff" stroke-width="1.085"/><path d="m 126.16 196.26 c -1.936 -7.489 -4.968 -13.37 -10.261 -19.898 -2.038 -2.514 -3.706 -5.08 -3.706 -5.703 0 -0.622 -2.655 -3.739 -5.899 -6.926 -3.245 -3.187 -8.161 -8.01 -10.925 -10.727 c -10.153 -9.963 -10.273 -10.562 -10.891 -54.4 l -0.549 -38.89 10.955 0 10.955 0 0 20.439 c 0 21.955 0.112 22.288 6.496 19.235 6.973 -3.335 29.656 -3.244 33.469 0.134 0.664 0.588 2.271 1.07 3.571 1.07 3.691 0 16.22 11.288 19.536 17.6 5.926 11.281 3.349 25.09 -6.417 34.399 -10.971 10.454 -17.261 16.999 -17.261 17.958 0 0.573 -1.957 3.637 -4.348 6.81 -5.718 7.586 -9.247 14.658 -10.283 20.6 -0.463 2.654 -1.271 4.826 -1.797 4.826 -0.526 0 -1.716 -2.938 -2.644 -6.529 l 0 0 z m 14.186 -55.97 c 5.463 -5.131 6.377 -9.979 2.987 -15.836 -2.999 -5.182 -6.672 -6.825 -15.256 -6.825 -8.584 0 -12.257 1.643 -15.256 6.825 -3.39 5.857 -2.475 10.705 2.987 15.836 4.615 4.335 5.296 4.59 12.269 4.59 6.973 0 7.654 -0.255 12.269 -4.59 z" fill="#ff4500" stroke="#ff4500" stroke-width="1.201"/></svg>