<svg xmlns="http://www.w3.org/2000/svg" xmlns:xlink="http://www.w3.org/1999/xlink" viewBox="0 0 256 256"><defs><path id="0" d="m 245.46 129.52 l -97.89 -96.9 c -5.556 -5.502 -16.222 -11.873 -23.7 -14.16 l -39.518 -12.08 c -7.479 -2.286 -18.1 0.391 -23.599 5.948 l -13.441 13.578 c -5.5 5.559 -14.502 14.653 -20 20.21 l -13.44 13.579 c -5.5 5.558 -8.07 16.206 -5.706 23.658 l 12.483 39.39 c 2.363 7.456 8.843 18.06 14.399 23.556 l 97.89 96.9 c 5.558 5.502 14.605 5.455 20.1 -0.101 l 36.26 -36.63 c 5.504 -5.559 14.503 -14.651 20 -20.21 l 36.26 -36.629 c 5.502 -5.56 5.455 -14.606 -0.101 -20.11 z m -178.09 -50.74 c -7.198 0 -13.03 -5.835 -13.03 -13.03 0 -7.197 5.835 -13.03 13.03 -13.03 7.197 0 13.03 5.835 13.03 13.03 -0.001 7.198 -5.836 13.03 -13.03 13.03 z"/><use id="1" xlink:href="#0"/><clipPath style="clip-path:url(#2)"><use xlink:href="#0"/></clipPath><clipPath style="clip-path:url(#2)"><use xlink:href="#0"/></clipPath><clipPath id="2"><use xlink:href="#1"/></clipPath></defs><path d="m 43.971 45.177312 c -129.89 104.019998 60.27 291.799998 175.21 171.839998 115.19 -103.23 -64.59 -303.599998 -175.21 -171.839998 z" style="fill:#fff;color:#000"/><g transform="matrix(0.64804569 0 0 0.70284688 45.036091 32.709165)"><path d="m 109.95161,238.76548 c -36.588211,-4.1442 -73.982731,-17.5794 -90.327949,-32.45326 -7.269927,-6.6155 -9.125105,-10.8791 -9.139495,-21.00453 -0.01113,-7.83312 3.068898,-30.9359 4.927244,-36.9584 C 23.525804,122.05225 29.019899,109.075 38.629162,93.508103 60.01749,58.859256 88.189564,35.727635 118.05217,28.295194 c 12.00229,-2.987226 17.77073,-3.092475 28.61071,-0.522022 20.99149,4.977646 38.34877,15.555774 56.86568,34.655918 19.92306,20.550577 34.48683,44.82402 43.92849,73.21562 7.92516,23.83137 11.25177,52.59772 7.13139,61.66751 -6.9863,15.37828 -42.96477,32.24815 -84.26521,39.51096 -14.03022,2.46725 -46.51101,3.51224 -60.37162,1.9423 z m 9.14084,-113.08461 c 2.27746,-1.55048 6.51271,-5.64373 9.41168,-9.09611 5.20101,-6.19391 14.94748,-20.368577 14.94748,-21.738707 0,-0.919358 -0.98944,-1.080921 -10.36052,-1.69174 -7.32153,-0.477226 -8.29886,-0.296563 -14.25327,2.634782 -9.54433,4.698665 -15.0016,12.899225 -16.70634,25.104415 -0.59671,4.27217 -0.0583,5.31764 3.75807,7.2976 3.70014,1.91966 7.85677,1.12937 13.2029,-2.51024 z" style="fill:#ffa07a"/><path d="m 116.45161,239.95184 c -24.816344,-2.93187 -43.852644,-7.07954 -59.762034,-13.02109 -24.95327,-9.31909 -40.51458,-20.30985 -43.29718,-30.58027 -2.04469,-7.5468 -0.43811,-23.09106 4.94711,-47.86517 0.8843,-4.06813 3.3741,-11.71796 6.66504,-20.4781 14.66691,-39.041808 43.58491,-73.238168 74.84535,-88.506738 12.740314,-6.22277 21.321334,-8.34902 33.601714,-8.32603 28.19446,0.0528 56.64634,17.55282 82.28106,50.60898 9.29739,11.98906 20.00234,30.402798 24.10438,41.462298 0.77481,2.08895 2.63502,6.94809 4.13382,10.79809 2.75156,7.06804 7.23421,24.04528 8.05318,30.5 2.04551,16.12171 2.59726,27.81129 1.5013,31.80667 -4.52445,16.49412 -42.89118,34.77863 -87.57374,41.73519 -9.6008,1.49474 -42.23127,2.72492 -49.5,1.86617 z m 36.46131,-16.47788 c 15.47162,-1.35713 22.55787,-3.00247 9.03869,-2.09868 -15.3795,1.02816 -49.9046,0.62548 -60.5,-0.70564 -28.407114,-3.56883 -53.437174,-13.61563 -66.523284,-26.70174 -4.75217,-4.75218 -8.97931,-10.81616 -9.7662,-14.00997 -0.25938,-1.05277 -0.29854,0.0744 -0.087,2.50491 0.50213,5.76973 4.46681,12.40354 9.69337,16.21921 15.52935,11.33729 50.72115,22.50906 78.183134,24.81955 13.60676,1.14479 26.69853,1.13574 39.96131,-0.0276 z m 23.80772,-3.58609 c -0.67703,-0.27392 -2.02703,-0.29059 -3,-0.0371 -0.97297,0.25354 -0.41903,0.47766 1.23097,0.49804 1.65,0.0204 2.44606,-0.18706 1.76903,-0.46099 z m 4.98097,-1.00634 c -0.6875,-0.27741 -1.8125,-0.27741 -2.5,0 -0.6875,0.27741 -0.125,0.50439 1.25,0.50439 1.375,0 1.9375,-0.22698 1.25,-0.50439 z m 6.25,-1.33772 c 1.26064,-0.54172 1.44548,-0.85943 0.5,-0.85943 -0.825,0 -2.4,0.38674 -3.5,0.85943 -1.26064,0.54172 -1.44548,0.85943 -0.5,0.85943 0.825,0 2.4,-0.38674 3.5,-0.85943 z m 5.22917,-1.60417 c -0.3323,-0.33229 -1.1948,-0.36781 -1.91667,-0.0789 -0.79773,0.31922 -0.56078,0.55618 0.60417,0.60416 1.05416,0.0434 1.64479,-0.19293 1.3125,-0.52522 z m 6.40602,-1.85669 c 1.85065,-0.80347 2.68981,-1.45817 1.86481,-1.45489 -1.84792,0.007 -7.94273,2.72164 -6.36481,2.83453 0.62435,0.0447 2.64935,-0.57617 4.5,-1.37964 z m 20.86481,-8.62871 c 11.32995,-5.78905 16.3693,-9.75384 19.03249,-14.97412 2.94824,-5.77902 4.19318,-12.78627 3.1008,-17.45305 -0.88849,-3.79574 -0.93712,-3.66347 -1.03284,2.80944 -0.0925,6.25412 -0.40986,7.21153 -4.00282,12.07514 -5.61988,7.60736 -14.54254,14.57706 -27.59763,21.55717 -7.94063,4.24558 1.09518,0.79083 10.5,-4.01458 z M 31.415936,159.04381 c 7.9382,-16.26158 18.79756,-32.41076 28.05124,-41.71558 8.81977,-8.86852 11.50236,-10.26059 16.94727,-8.79443 4.60961,1.24124 8.07433,4.0082 19.03716,15.20324 5.073804,5.18127 9.644994,8.95998 11.340594,9.37455 8.30897,2.0315 18.12528,-6.21741 34.22795,-28.76268 15.49517,-21.694728 20.53932,-26.805088 26.45776,-26.805088 3.09145,0 12.16262,7.35293 22.80622,18.48634 17.3363,18.134078 34.30454,41.267368 45.15386,61.559538 5.65204,10.57137 6.0745,11.10731 5.48171,6.95411 -4.56921,-32.01246 -23.81173,-69.405018 -48.32561,-93.907578 -23.34537,-23.33459 -49.89834,-33.19146 -73.23252,-27.18502 -12.00852,3.09111 -18.57293,5.95428 -27.755004,12.10579 -25.08572,16.80611 -49.12678,50.401678 -59.02772,82.486808 -3.81884,12.37538 -6.83632,25.40514 -7.41067,32 -0.2395,2.75 -0.24975,4.1 -0.0228,3 0.22697,-1.1 3.04871,-7.4 6.27055,-14 z" style="fill:#ff4500"/><path d="M 105.50036,227.13675 C 70.085535,223.34663 42.85503,212.9866 30.039184,198.42703 c -7.744971,-8.79875 -7.650656,-13.23821 0.633238,-29.80677 9.197122,-18.3951 18.120716,-31.26613 29.463557,-42.49703 6.66951,-6.60369 7.542919,-7.15454 10.566118,-6.66395 4.46402,0.72442 10.617594,5.32902 17.669515,13.22178 8.219435,9.19948 12.447198,11.83248 17.995078,11.20716 8.49599,-0.95763 17.20845,-9.42865 33.7019,-32.76796 10.15702,-14.372853 17.62151,-22.000003 21.53083,-22.000003 4.96533,0 5.76053,1.82641 2.4412,5.60692 -3.12156,3.55526 -9.35698,13.942263 -21.54699,35.893083 -15.22736,27.42022 -25.30061,37.5 -37.47573,37.5 -6.305092,0 -10.577073,-1.73857 -14.715411,-5.98875 -3.481854,-3.57594 -9.31586,-14.14856 -11.318184,-20.51125 -3.151412,-10.0141 -9.525824,-19.29146 -11.73626,-17.08102 -0.31956,0.31956 -0.08908,0.58102 0.512174,0.58102 0.666557,0 1.267183,3.21968 1.539019,8.25 0.854792,15.81787 4.95403,28.06178 13.0558,38.99602 10.288135,13.885 24.448422,24.0748 37.247142,26.80321 2.694,0.5743 6.92318,1.50486 9.39818,2.06792 10.32572,2.34907 30.35047,-1.73777 40.63602,-8.29339 13.55871,-8.6418 14.85841,-9.74702 21.0023,-17.85948 7.9556,-10.50468 13.40315,-24.32164 13.68754,-34.7166 l 0.17414,-6.36503 2.83734,3.30868 c 4.75115,5.54038 17.32141,24.89879 20.99629,32.33461 4.36919,8.8407 5.97948,14.77201 5.0989,18.78124 -3.41182,15.53391 -30.48168,30.90922 -64.60789,36.69638 -13.93718,2.36349 -49.48934,3.4936 -63.32464,2.01293 z" style="fill:#8b0000"/></g></svg>