<svg xmlns="http://www.w3.org/2000/svg" xmlns:xlink="http://www.w3.org/1999/xlink" viewBox="0 0 256 256"><defs><path d="m 551.79 301.79 c 0 128.7 -104.33 233.04 -233.04 233.04 -128.7 0 -233.04 -104.33 -233.04 -233.04 c 0 -128.7 104.33 -233.04 233.04 -233.04 c 128.7 0 233.04 104.33 233.04 233.04 z" id="0"/><radialGradient id="1" gradientUnits="userSpaceOnUse" cx="289.5" cy="97.41" r="432.91"><stop style="stop-color:#ff1919"/><stop offset="1" style="stop-color:#ff1919"/></radialGradient><radialGradient id="2" gradientUnits="userSpaceOnUse" gradientTransform="scale(1.30342 0.76722)" cx="245.25" cy="135.33" r="287.97"><stop style="stop-color:#ff1919"/><stop offset="1" style="stop-color:#ff1919;stop-opacity:0"/></radialGradient><radialGradient id="3" gradientUnits="userSpaceOnUse" gradientTransform="scale(1.53397 0.6519)" cx="226.25" cy="791.98" r="149.54"><stop style="stop-color:#ff1919;stop-opacity:0.471"/><stop offset="1" style="stop-color:#ff1919;stop-opacity:0"/></radialGradient></defs><path transform="matrix(0 1 -1 0 1711.48 1605.44)" d="m -1374.42 1658.71 c 127.95 -192.46 -280.09 -311 -226.07 -62.2 23.02 102.82 167.39 165.22 226.07 62.2 z" style="fill:#fff;color:#000"/><g transform="matrix(2.91455 0 0 3.0283 -794.31 -1029.02)" style="fill-rule:evenodd"><g transform="translate(-2.06 -1.668)" style="fill-opacity:0.125"><path transform="matrix(0.0964 0 0 0.10801 279.58 349.79)" d="m 460.71 99.11 c -0.893 -0.893 64.29 44.643 64.29 44.643 0 0 54.47 316.96 53.57 316.96 -0.893 0 -277.68 70.54 -277.68 70.54 -66.964 10.714 -75 -44.643 -76.78 -53.57 -0.893 -2.678 -45.537 -303.57 -45.536 -305.36 1.785 -8.928 283.04 -72.32 282.14 -73.21 z" style="stroke-linejoin:round;stroke-width:16.544"/><use height="256" width="256" xlink:href="#0" transform="matrix(0.05344 0 0 0.05344 317.28 382.61)" style="stroke-width:37"/></g><g transform="translate(-203.02 9.992)"><g transform="matrix(0.89894 0 0 0.89894 231.37 35.08)" style="fill:#f00"><g transform="matrix(0.22662 0 0 0.22662 254.05 324.72)"><g><path transform="matrix(0.47323 0 0 0.53018 94.96 46.5)" d="m 460.71 99.11 c -0.893 -0.893 -268.75 60.714 -269.64 61.61 -34.82 11.608 15.18 58.04 65.18 44.643 9.822 -2.679 268.75 -61.61 268.75 -61.61 0 0 54.47 316.96 53.57 316.96 -0.893 0 -277.68 70.54 -277.68 70.54 -66.964 10.714 -75 -44.643 -76.78 -53.57 -0.893 -2.678 -45.537 -303.57 -45.536 -305.36 1.785 -8.928 283.04 -72.32 282.14 -73.21 z" style="stroke:#0c0c0c;stroke-linejoin:round;stroke-width:16.544"/><path transform="matrix(0.47323 0 0 0.53018 94.51 45.886)" d="m 460.71 100 c 0.892 0.893 59.821 36.607 58.928 36.607 -0.893 0 -259.82 60.714 -266.07 61.61 -47.32 11.607 -72.32 -25.893 -66.964 -30.357 9.822 -1.786 275 -67.857 274.11 -67.857 z"/><path transform="matrix(0.61096 0 0 0.68449 69.817 30.31)" d="m 447.32 136.61 c 0 0.893 11.363 46.993 14.286 66.56 -159.73 4.534 -83.51 89.7 -253.82 99.25 -7.142 -41.07 -23.862 -139.03 -23.862 -137.24 0 1.786 20.536 16.965 37.5 19.643 47.32 -8.04 226.79 -46.43 225.89 -48.21 z"/></g><path d="m 180.68 139.41 c 0 0 21.303 160.07 21.303 160.07 0 0 6.087 29.21 37.738 21.909 -1.826 -4.26 -21.303 -171.64 -21.909 -171.64 -24.954 7.912 -35.91 -10.347 -37.12 -10.347 z" style="fill:#800000"/></g><g transform="matrix(0.28502 0.01189 -0.00648 0.28463 239.79 280.07)" style="fill:#ffdead"><path transform="matrix(0.32113 -0.07244 0.05368 0.318 186.84 258.44)" d="m 258.04 112.5 c 0 19.643 0.893 65.18 0.893 66.07 0 0.892 -56.29 3.878 -68.786 5.664 -27.25 2.386 -23.541 40.949 0 36.607 19.643 -0.893 67.893 -5.665 68.786 -5.665 0.893 0 0.892 123.21 1.785 138.39 -0.892 31.25 40.18 32.14 40.18 1.786 0 -24.11 0 -128.57 0 -138.39 11.607 0 38.1 -4.372 65.44 -6.66 24.434 -7.915 25.531 -42.03 -2.02 -38.986 -18.09 1.193 -61.63 4.575 -62.53 6.36 -0.893 1.786 -0.893 -66.07 -1.786 -66.07 0 -28.572 -41.964 -25.893 -41.964 0.893 z" style="stroke-opacity:0.817;fill-opacity:0.537;stroke:#ff1818;stroke-linecap:round;stroke-linejoin:round;stroke-width:5.875"/><g style="stroke-width:1.25"><path transform="matrix(0.3178 -0.07168 0.05313 0.3147 192.8 280.67)" d="m 296.52 38.738 c -10.466 -5.631 -17.879 -1.974 -25.455 5.876 -0.893 10.714 3.787 85.66 4.68 89.23 0.893 3.572 -9.125 -12.658 -9.125 -12.658 0 0 -4.18 5.728 -8.644 3.941 -4.465 -1.786 -68.69 -4.588 -75.831 -1.909 -7.143 2.679 -11.607 6.25 -12.5 10.714 -0.893 4.465 -4.464 -14.285 7.143 -17.857 11.607 -3.571 78.07 -7.422 77.18 -7.422 -0.892 0 2.098 -70.3 2.991 -76.55 0.893 -6.25 30.33 -25.441 39.565 6.641 z" style="fill-opacity:0.768"/><path transform="matrix(0.3178 -0.07168 0.05313 0.3147 192.78 279.18)" d="m 299.11 109.82 c -1.785 4.464 14.507 8.991 -15.736 16.505 -4.464 1.785 86.955 -5.04 94.99 -2.364 8.04 2.678 2.733 -2.734 4.675 0.145 -3.182 -9.375 -3.918 -17.21 -14.632 -18.996 -10.714 -1.786 -68.4 5.603 -69.3 4.71 z"/><path transform="matrix(0.3178 -0.07168 0.05313 0.3147 192.72 279.28)" d="m 272.94 137.25 c -8.469 18.6 -18.476 12.748 -18.476 13.641 0 0.892 1.786 133.93 3.572 141.96 1.786 8.04 7.39 19.89 20.323 15.948 6.25 1.786 0.522 2.74 0.522 2.74 0 0 -6.957 -7.081 -7.85 -23.15 -0.893 -16.07 1.016 -149.35 1.909 -151.14 z"/><path transform="matrix(0.3178 -0.07168 0.05313 0.3147 191.25 278.59)" d="m 271.43 312.5 c 19.643 -2.679 23.21 -6.25 24.11 -22.322 0.893 -16.07 0.893 -141.07 1.786 -140.18 0.892 0.893 62.5 3.571 71.43 -1.786 8.929 -5.357 14.286 -7.143 13.393 -17.857 -0.893 -10.714 -2.678 -9.822 -1.786 -8.929 0.893 0.893 -3.571 16.07 -12.5 16.965 -8.928 0.892 -64.29 7.142 -72.32 4.464 -8.04 -2.679 -8.929 -7.143 -8.04 -5.357 0.893 1.785 1.786 5.357 1.786 13.393 0 8.03 0.893 133.93 -0.893 139.28 -1.786 5.358 0.893 15.179 -16.964 22.322 z" style="fill-opacity:0.537"/><path transform="matrix(0.3178 -0.07168 0.05313 0.3147 192.33 281.18)" d="m 166.07 128.57 c 0.892 16.07 6.25 18.75 13.392 19.643 7.143 0.893 73.22 0 74.11 0.893 0.892 0.893 8.04 -1.786 9.821 -6.25 1.786 -4.464 -3.571 0 -17.857 -0.893 -14.286 -0.893 -51.786 2.679 -62.5 -0.893 -10.714 -3.571 -19.643 -11.607 -16.964 -12.5 z"/><path transform="matrix(0.3178 -0.07168 0.05313 0.3147 192.77 279.58)" d="m 274.11 24.11 c 22.322 3.571 21.429 17.857 21.429 23.21 0 5.357 0.893 57.14 0 61.61 -0.893 4.465 0.893 8.04 -4.464 11.607 -5.358 3.572 -6.25 4.465 -6.25 3.572 0 -0.893 3.571 -4.465 3.571 -15.179 0 -10.714 2.679 -63.39 0 -70.54 -2.679 -7.143 -12.5 -13.393 -14.286 -14.286 z"/></g></g></g><g transform="matrix(0.24887 0 0 0.24887 432.5 299.15)" style="stroke:#ffdead"><use height="256" width="256" xlink:href="#0" transform="matrix(0.21474 0 0 0.21474 338.73 281.79)" style="fill:url(#1);stroke-width:37"/><g style="stroke-width:1.25"><path transform="matrix(0.21474 0 0 0.21474 337.93 282.48)" d="M 530.36,217.86 C 446.432,-15.18 82.15,33.04 92.86,327.68 366.97,335.72 237.5,232.15 530.36,217.86 z" style="fill:url(#2);fill-opacity:0.555"/><path transform="matrix(0.21474 0 0 0.21474 337.55 281.9)" d="M 524.11,400 C 445.54,541.07 280.36,560.72 175.9,477.68 318.76,316.97 524.11,400.89 524.11,400 z" style="fill:url(#3);fill-opacity:0.616"/><path d="m 403.5 304.63 h 8.05 v 7.861 h -8.05 z" style="fill:#f50000"/></g><g style="fill:#f50000;stroke-width:0.268"><path d="m 440.89 342.68 h 8.05 v 7.861 h -8.05 z"/><path d="m 402.36 379.3 h 8.05 v 7.861 h -8.05 z"/><path d="m 365.35 341.72 h 8.05 v 7.861 h -8.05 z"/></g><g style="fill:#ffdead;stroke-width:1.25"><path transform="matrix(0.21474 0 0 0.21474 334.86 280.29)" d="m 368.75 307.14 c 0 18.245 -14.791 33.04 -33.04 33.04 -18.245 0 -33.04 -14.791 -33.04 -33.04 0 -18.245 14.791 -33.04 33.04 -33.04 18.245 0 33.04 14.791 33.04 33.04 z"/><path transform="matrix(0.21474 0 0 0.21474 338.51 282.39)" d="m 335.71 297.32 c 0 9.369 -7.595 16.964 -16.964 16.964 -9.369 0 -16.964 -7.595 -16.964 -16.964 0 -9.369 7.595 -16.964 16.964 -16.964 9.369 0 16.964 7.595 16.964 16.964 z"/><path d="m 404.08 313.84 h 6.135 v 26.843 h -6.135 z"/><path d="m 511.56 147.1 h 6.519 v 18.598 h -6.519 z" transform="matrix(0.90631 0.42262 -0.42262 0.90631 0 0)"/></g></g></g></g></svg>