<svg xmlns="http://www.w3.org/2000/svg" viewBox="0 0 256 256"><defs><clipPath><rect y="56" x="-202" width="84" rx="10" height="88" style="fill:none;stroke:#242424;display:block;color:#000"/></clipPath><clipPath><rect y="56" x="-202" width="84" rx="10" height="88" style="fill:none;stroke:#242424;display:block;color:#000"/></clipPath><clipPath><rect y="56" x="-202" width="84" rx="10" height="88" style="fill:none;stroke:#242424;display:block;color:#000"/></clipPath></defs><g transform="matrix(0 0.9787 -1 0 1054.05 3.687)"><path d="m 252.75 953.07 c -49.981 235.7 -393.86 -17.332 -187.29 -137.14 80.25 -51.35 213 15.916 187.29 137.14 z" style="fill:#fff;color:#000"/><g transform="matrix(0.59174 0 0 0.76943 36.569 356.48)" style="fill:#ff4500"><path d="m 140.01 859.07 c -63.865 -6.081 -92.94 -30.484 -103.1 -86.54 -7.05 -38.881 -2.921 -84.91 10.06 -112.21 9.156 -19.247 20.791 -31.17 39.538 -40.522 12.61 -6.289 30.665 -10.862 50 -12.664 6.852 -0.638 7.926 -0.913 4.5 -1.151 -2.475 -0.172 1.012 -0.57 7.75 -0.885 11.861 -0.554 41.33 0.254 32.25 0.885 -3.426 0.238 -2.352 0.513 4.5 1.151 19.335 1.801 37.39 6.374 50 12.664 18.747 9.35 30.382 21.274 39.538 40.522 17.681 37.17 18.02 104.41 0.727 144.21 -15.782 36.32 -50.39 53.728 -109.27 54.974 -9.9 0.209 -21.825 0.016 -26.5 -0.429 z m 55.8 -10.466 c 1.485 -0.782 10.01 -8.8 18.95 -17.818 l 16.25 -16.398 v -41.25 c 0 -26.2 -0.373 -41.944 -1.023 -43.16 -1.62 -3.03 -4.604 -4.217 -7.227 -2.883 -1.238 0.629 -7.088 5.925 -13 11.768 l -10.75 10.624 v -25.914 v -25.914 l -16.25 -16.397 c -8.938 -9.02 -17.492 -17.05 -19.01 -17.849 -3.842 -2.02 -5.293 -1.097 -17.991 11.451 l -10.75 10.624 v -25.559 v -25.559 l -2.445 -2.297 c -1.69 -1.588 -3.156 -2.117 -4.75 -1.716 -1.268 0.319 -10.07 8.391 -19.555 17.937 l -17.25 17.356 v 42.37 v 42.37 l 16.25 16.397 c 8.937 9.02 17.492 17.05 19.01 17.849 3.842 2.02 5.293 1.097 17.991 -11.451 l 10.75 -10.624 v 25.912 v 25.912 l 15.75 15.936 c 13.11 13.265 20.289 19.679 22.05 19.701 0.165 0 1.515 -0.636 3 -1.417 z m -3.8 -36.52 c 0 -21.315 -0.34 -31.15 -1.094 -31.617 -0.622 -0.384 -7.094 5.324 -15 13.23 l -13.906 13.906 v -36.29 c 0 -19.959 0.319 -36.29 0.708 -36.29 0.39 0 7.379 6.617 15.532 14.705 l 14.824 14.705 l 14.73 -14.705 c 8.101 -8.09 15.06 -14.705 15.468 -14.705 0.406 0 0.738 17.468 0.738 38.818 v 38.818 l -15.381 15.182 c -8.46 8.35 -15.66 15.181 -16 15.181 -0.34 0 -0.619 -13.923 -0.619 -30.941 z m -79.26 -48.821 l -14.737 -14.762 v -39.952 v -39.952 l 15.354 14.964 l 15.354 14.964 l 0.146 39.75 c 0.08 21.862 -0.197 39.75 -0.616 39.75 -0.419 0 -7.394 -6.643 -15.5 -14.762 z m 63.763 -47.24 c 8.236 -8.25 15.2 -15 15.475 -15 0.275 0 -6.239 6.75 -14.475 15 -8.236 8.25 -15.2 15 -15.475 15 -0.275 0 6.239 -6.75 14.475 -15 z"/><g style="fill-rule:evenodd"><path d="m 170.15 735.32 l -13.983 -10.01 l -0.064 -28.987 c -0.035 -15.943 0.245 -28.987 0.622 -28.987 0.378 0 6.699 4.464 14.05 9.92 l 13.361 9.92 v 29.08 v 29.08 l -13.983 -10.01 z"/><path d="m 141.1 698.49 l -7.444 10.01 l -0.034 28.987 c -0.019 15.943 0.13 28.987 0.331 28.987 0.201 0 3.566 -4.464 7.478 -9.92 l 7.112 -9.92 v -29.08 v -29.08 l -7.444 10.01 z"/></g></g></g></svg>