<svg xmlns="http://www.w3.org/2000/svg" viewBox="0 0 256 256"><g transform="matrix(-1 0 0 -1 256 1052.36)"><path d="m 28.465 998.67 c -128.67 -195.7 257.72 -302.07 227.04 -63.28 -23.12 104.61 -168.1 168.09 -227.04 63.28 z" style="fill:#fff;color:#000"/><path d="m 14.03 12 c -0.055 3.418 -0.051 6.832 0 10.25 0.047 3.289 0.219 5.867 1.656 7.875 1.727 2.422 4.602 4.16 8.313 5.875 3.703 -1.715 6.582 -3.457 8.313 -5.875 1.434 -2.01 1.609 -4.586 1.656 -7.875 0.047 -3.418 0.051 -6.832 0 -10.25 m -9.969 1 c 0.551 0 1 0.449 1 1 0 0.551 -0.449 1 -1 1 -0.555 0 -1 -0.449 -1 -1 0 -0.551 0.445 -1 1 -1 m 0 4 c 0.551 0 1 0.449 1 1 0 0.551 -0.449 1 -1 1 -0.555 0 -1 -0.449 -1 -1 0 -0.551 0.445 -1 1 -1 m -8 4 c 0.551 0 1 0.449 1 1 0 0.551 -0.449 1 -1 1 -0.555 0 -1 -0.449 -1 -1 0 -0.551 0.445 -1 1 -1 m 4 0 c 0.551 0 1 0.449 1 1 0 0.551 -0.449 1 -1 1 -0.555 0 -1 -0.449 -1 -1 0 -0.551 0.445 -1 1 -1 m 4 0 c 0.551 0 1 0.449 1 1 0 0.551 -0.449 1 -1 1 -0.555 0 -1 -0.449 -1 -1 0 -0.551 0.445 -1 1 -1 m 4 0 c 0.551 0 1 0.449 1 1 0 0.551 -0.449 1 -1 1 -0.555 0 -1 -0.449 -1 -1 0 -0.551 0.445 -1 1 -1 m 4 0 c 0.551 0 1 0.449 1 1 0 0.551 -0.449 1 -1 1 -0.555 0 -1 -0.449 -1 -1 0 -0.551 0.445 -1 1 -1 m -8 4 c 0.551 0 1 0.449 1 1 0 0.551 -0.449 1 -1 1 -0.555 0 -1 -0.449 -1 -1 0 -0.551 0.445 -1 1 -1 m 0 4 c 0.551 0 1 0.449 1 1 0 0.551 -0.449 1 -1 1 -0.555 0 -1 -0.449 -1 -1 0 -0.551 0.445 -1 1 -1 m 0 4 c 0.551 0 1 0.449 1 1 0 0.551 -0.449 1 -1 1 -0.555 0 -1 -0.449 -1 -1 0 -0.551 0.445 -1 1 -1" transform="matrix(-5.63106 0 0 -5.44583 266.93 1045.3)" style="fill:#ffa07a"/><path d="m 14.03 12 c -0.055 3.418 -0.051 6.832 0 10.25 0.047 3.289 0.219 5.867 1.656 7.875 1.727 2.422 4.602 4.16 8.313 5.875 3.703 -1.715 6.582 -3.457 8.313 -5.875 1.434 -2.01 1.609 -4.586 1.656 -7.875 0.047 -3.418 0.051 -6.832 0 -10.25 m -9.969 1 c 0.551 0 1 0.449 1 1 0 0.551 -0.449 1 -1 1 -0.555 0 -1 -0.449 -1 -1 0 -0.551 0.445 -1 1 -1 m 0 4 c 0.551 0 1 0.449 1 1 0 0.551 -0.449 1 -1 1 -0.555 0 -1 -0.449 -1 -1 0 -0.551 0.445 -1 1 -1 m -8 4 c 0.551 0 1 0.449 1 1 0 0.551 -0.449 1 -1 1 -0.555 0 -1 -0.449 -1 -1 0 -0.551 0.445 -1 1 -1 m 4 0 c 0.551 0 1 0.449 1 1 0 0.551 -0.449 1 -1 1 -0.555 0 -1 -0.449 -1 -1 0 -0.551 0.445 -1 1 -1 m 4 0 c 0.551 0 1 0.449 1 1 0 0.551 -0.449 1 -1 1 -0.555 0 -1 -0.449 -1 -1 0 -0.551 0.445 -1 1 -1 m 4 0 c 0.551 0 1 0.449 1 1 0 0.551 -0.449 1 -1 1 -0.555 0 -1 -0.449 -1 -1 0 -0.551 0.445 -1 1 -1 m 4 0 c 0.551 0 1 0.449 1 1 0 0.551 -0.449 1 -1 1 -0.555 0 -1 -0.449 -1 -1 0 -0.551 0.445 -1 1 -1 m -8 4 c 0.551 0 1 0.449 1 1 0 0.551 -0.449 1 -1 1 -0.555 0 -1 -0.449 -1 -1 0 -0.551 0.445 -1 1 -1 m 0 4 c 0.551 0 1 0.449 1 1 0 0.551 -0.449 1 -1 1 -0.555 0 -1 -0.449 -1 -1 0 -0.551 0.445 -1 1 -1 m 0 4 c 0.551 0 1 0.449 1 1 0 0.551 -0.449 1 -1 1 -0.555 0 -1 -0.449 -1 -1 0 -0.551 0.445 -1 1 -1" transform="matrix(-5.63106 0 0 -5.44583 271.27 1048.55)" style="fill:#ff4500"/></g></svg>