<svg xmlns="http://www.w3.org/2000/svg" viewBox="0 0 256 256"><g transform="translate(0 -796.36)"><path d="m 211.17 1015.23 c 201.82 -266.38 -353.59 -304.22 -175.35 -32.31 40.634 61.991 121.89 102.86 175.35 32.31 z" style="fill:#fff;color:#000"/><path d="m 147.33 844.16 a 15.97 28.328 2.745 0 1 14.465 29.27 15.97 28.328 2.745 0 1 -17.422 27.31 15.97 28.328 2.745 0 1 -14.465 -29.27 15.97 28.328 2.745 0 1 17.422 -27.31 z m -48.29 4.821 a 28 16.16 69.37 0 1 20.449 19.729 28 16.16 69.37 0 1 -3.923 32.942 28 16.16 69.37 0 1 -25.23 -18.793 28 16.16 69.37 0 1 3.924 -32.942 28 16.16 69.37 0 1 4.784 -0.935 z m 86.82 20.249 a 16.08 28.14 15.533 0 1 3.176 0.542 16.08 28.14 15.533 0 1 6.992 32.34 16.08 28.14 15.533 0 1 -23.344 21.484 16.08 28.14 15.533 0 1 -6.992 -32.34 16.08 28.14 15.533 0 1 20.16 -22.03 z M 68.34 885.03 a 27.807 16.274 63.39 0 1 22.434 16.996 27.807 16.274 63.39 0 1 -0.345 33.22 27.807 16.274 63.39 0 1 -27.09 -15.458 27.807 16.274 63.39 0 1 0.345 -33.22 27.807 16.274 63.39 0 1 4.65 -1.537 z m 63.22 18.01 c 6.175 -0.003 12.604 4.208 16.951 13.311 7.501 9.636 10.07 13.179 26.1 21.448 7.944 6.124 11.807 14.586 9.929 26.337 -5.121 18.662 -21.371 19.267 -27.639 19.337 -8.736 1.038 -16.437 -0.543 -26.21 3.112 -9.342 0.781 -18.207 4.154 -28.05 2.222 C 79.63 980.91 84.06 954.63 97.2 945.06 L 114.94 918.36 c 2.954 -9.876 9.626 -15.302 16.624 -15.308 z" style="fill:#ff4500;fill-rule:evenodd"/></g></svg>