<svg xmlns="http://www.w3.org/2000/svg" viewBox="0 0 256 256"><path d="m 193.89 224.63 c 226.71 -210.75 -241.2 -343.53 -189.6 -63.746 25.452 73.816 116.81 131.42 189.6 63.746 z" style="fill:#fff;color:#000"/><g transform="matrix(0.68803 0 0 0.63599 40.23 57.29)" style="stroke:#ff4500"><path d="m 67.54 237.38 c -0.256 -0.688 -0.579 -13.625 -0.719 -28.75 l -0.254 -27.5 l -26 -0.5 l -26 -0.5 v -80 v -80 h 109.5 h 109.5 v 80 v 80 l -53.02 0.259 l -53.02 0.259 l -28.978 28.991 c -15.938 15.945 -29.333 28.991 -29.766 28.991 -0.433 0 -0.997 -0.563 -1.253 -1.25 z m 57.797 -104.41 c -0.677 -0.274 -2.027 -0.291 -3 -0.037 -0.973 0.254 -0.419 0.478 1.231 0.498 1.65 0.02 2.446 -0.187 1.769 -0.461 z m 47.08 -26.751 c 2.932 -6.729 6.654 -11.381 6.654 -8.315 0 0.873 0.939 1.886 2.087 2.25 2.474 0.785 8.913 -0.26 8.913 -1.447 0 -0.456 1.105 -6.155 2.455 -12.666 1.35 -6.511 2.265 -12.03 2.032 -12.261 -1.049 -1.049 -6.487 2.238 -6.487 3.921 0 1.01 -1.168 2.641 -2.595 3.629 -5.196 3.597 -6.405 5.257 -6.405 8.797 0 2.787 -0.392 3.5 -1.923 3.5 -1.058 0 -3.195 1.049 -4.75 2.33 -1.555 1.282 -4.964 2.915 -7.577 3.63 -3.755 1.027 -4.753 1.743 -4.764 3.42 -0.008 1.166 -0.25 3.02 -0.539 4.12 -0.414 1.575 0.281 2.352 3.264 3.654 6.06 2.646 6.608 2.388 9.635 -4.561 z m -102.85 2.029 c 3.909 -2.239 4.01 -2.431 4.296 -8.406 l 0.296 -6.114 l -4.278 -1.152 l -4.278 -1.152 l 2.731 -1.431 c 2.57 -1.347 2.731 -1.835 2.731 -8.288 0 -5.372 -0.429 -7.369 -1.98 -9.218 -1.634 -1.949 -2.144 -2.111 -2.921 -0.93 -1.531 2.328 -3.386 13.887 -2.743 17.1 0.575 2.877 0.475 2.97 -3.214 2.97 -2.095 0 -4.081 0.273 -4.415 0.607 -0.334 0.334 0.539 3.146 1.939 6.25 1.4 3.104 3.179 7.106 3.954 8.893 1.656 3.824 2.554 3.923 7.881 0.872 z m 50.983 -0.247 c 2.548 -2.548 1.596 -7.585 -1.733 -9.172 -2.277 -1.086 -3.223 -1.081 -5.5 0.03 -2.33 1.136 -2.731 1.926 -2.626 5.168 0.068 2.105 0.743 4.219 1.5 4.698 2.225 1.409 6.605 1.03 8.358 -0.723 z m -61.5 -35.625 c -0.014 -11.232 -0.859 -16.381 -2.304 -14.04 c -0.484 0.783 -4.68 23.784 -4.68 25.653 0 0.351 1.575 0.639 3.5 0.639 h 3.5 l -0.015 -12.25 z m 73.13 -1.178 c -0.36 -6.572 -0.455 -6.824 -1.343 -3.573 -1.159 4.245 -2.175 4.966 -7.02 4.986 -2.623 0.011 -3.75 0.456 -3.75 1.483 0 2.129 4.94 4.505 9 4.328 l 3.5 -0.153 l -0.388 -7.07 z m -14.11 -3.513 c 0 -0.518 -0.45 -1.219 -1 -1.559 -0.55 -0.34 -1 0.084 -1 0.941 0 0.857 0.45 1.559 1 1.559 0.55 0 1 -0.423 1 -0.941 z m 25.05 -4.337 l -2.339 -2.222 l 1.894 2.652 c 1.042 1.459 2.094 2.459 2.338 2.222 0.244 -0.236 -0.608 -1.43 -1.894 -2.652 z" style="fill:#a6daf1"/><path d="m 67.833 208.38 l -0.266 -28.25 l -26 -0.5 l -26 -0.5 v -79 v -79 h 108.5 h 108.5 v 79 v 79 l -52.52 0.259 l -52.52 0.259 l -28.478 28.491 c -15.663 15.67 -29.04 28.491 -29.719 28.491 -0.952 0 -1.303 -6.569 -1.507 -28.25 z m 56.653 -73.36 c 0.87 -0.334 1.582 -1.234 1.582 -2 0 -1.636 -5.675 -1.904 -8 -0.378 -2.863 1.879 2.521 3.873 6.418 2.378 z m 49.832 -22.959 c 0.963 -1.934 1.764 -4.061 1.782 -4.725 0.085 -3.249 2.991 -5.05 8.605 -5.331 3.118 -0.157 6.01 -0.643 6.435 -1.081 1.045 -1.088 5.719 -26.486 5.161 -28.05 -0.246 -0.688 -1.289 -1.25 -2.317 -1.25 -4.048 0 -25.916 9.285 -25.916 11 0 0.519 -2.097 3.041 -4.66 5.604 -4.079 4.079 -5.826 4.995 -14.02 7.345 -11.08 3.179 -12.217 4.01 -10.332 7.528 0.742 1.386 1.736 2.52 2.209 2.52 0.473 0 3.138 -1.8 5.921 -4 5.619 -4.442 6.964 -4.774 9.415 -2.323 1.301 1.301 1.538 2.72 1.06 6.329 -0.605 4.56 -0.552 4.674 2.645 5.753 1.794 0.606 5.062 1.788 7.262 2.627 5.175 1.975 4.732 2.103 6.75 -1.951 z m -107.93 -0.643 c 1.201 -0.665 7.359 -3.03 13.684 -5.25 10.987 -3.861 11.55 -4.197 12.627 -7.529 1.436 -4.444 1.148 -5.085 -3.389 -7.514 -3.187 -1.706 -3.821 -2.619 -4.298 -6.193 -0.426 -3.192 -1.678 -5.387 -5.25 -9.206 -2.58 -2.758 -4.69 -5.46 -4.69 -6 0 -1.643 -16.16 -15.1 -18.13 -15.1 -2.136 0 -2.222 0.304 -4.799 17 -1.906 12.347 -1.906 12.517 -0.001 13.872 2.304 1.639 2.508 3.128 0.429 3.128 -0.825 0 -1.5 0.147 -1.5 0.328 0 0.18 1.847 4.568 4.104 9.75 2.257 5.182 4.496 10.435 4.975 11.672 0.973 2.512 2.975 2.846 6.237 1.041 z m 54.17 -3.417 c 2.548 -2.548 1.596 -7.585 -1.733 -9.172 -2.277 -1.086 -3.223 -1.081 -5.5 0.03 -2.33 1.136 -2.731 1.926 -2.626 5.168 0.068 2.105 0.743 4.219 1.5 4.698 2.225 1.409 6.605 1.03 8.358 -0.723 z m 24.19 -21.97 c 1.056 -2.753 -0.201 -2.314 -3.7 1.292 l -3.475 3.58 l 3.301 -1.691 c 1.816 -0.93 3.559 -2.362 3.874 -3.182 z m -30.675 -7.798 c 0 -0.216 -0.698 -0.661 -1.552 -0.989 -0.89 -0.341 -1.291 -0.174 -0.941 0.393 0.587 0.95 2.493 1.405 2.493 0.596 z m 8.95 -1.133 c 1.449 0.749 5.396 1.375 8.773 1.391 5.895 0.028 6.281 -0.128 9.708 -3.921 2.162 -2.394 3.601 -5.03 3.65 -6.698 l 0.081 -2.747 l 1.374 3 c 0.756 1.65 1.394 2.423 1.419 1.718 0.07 -1.98 -2.608 -7.886 -3.953 -8.716 -0.906 -0.56 -0.896 -0.16 0.043 1.628 1.192 2.269 1.164 2.301 -0.65 0.739 -1.043 -0.897 -2.972 -1.96 -4.287 -2.362 -2.218 -0.678 -2.17 -0.523 0.672 2.132 4.796 4.481 4.835 6.356 0.223 10.859 -3.098 3.03 -4.27 3.638 -5.194 2.714 -1.764 -1.764 -1.845 -9.242 -0.136 -12.547 l 1.489 -2.88 l -2.54 1.858 c -1.397 1.022 -2.985 3.096 -3.53 4.608 -0.72 2 -1.67 2.75 -3.483 2.75 -1.371 0 -2.771 0.45 -3.111 1 -1.171 1.894 -3.26 0.993 -4.47 -1.928 -0.667 -1.61 -2.072 -3.705 -3.121 -4.655 -1.782 -1.613 -1.909 -1.615 -1.909 -0.032 0 0.933 0.957 2.989 2.126 4.571 1.472 1.991 1.984 3.839 1.666 6.01 -0.408 2.777 -0.29 2.963 1.032 1.64 1.279 -1.279 1.868 -1.298 4.126 -0.13 z m -14.95 -1.852 c 0 -0.208 -0.787 -0.995 -1.75 -1.75 -1.586 -1.244 -1.621 -1.209 -0.378 0.378 1.306 1.666 2.128 2.195 2.128 1.372 z m -2.626 -9.946 c 1.746 -2.787 1.742 -2.809 -0.303 -1.715 -1.139 0.61 -2.071 2.068 -2.071 3.24 0 1.172 0.136 1.944 0.303 1.715 0.166 -0.229 1.098 -1.687 2.071 -3.24 z" style="fill:#6dc7ee"/><path d="m 68.834 206.88 l -0.266 -27.75 l -26.26 -0.267 l -26.26 -0.267 l 0.256 -78.23 l 0.256 -78.23 h 107.5 h 107.5 l 0.256 78.25 l 0.256 78.25 h -52.716 h -52.716 l -28.06 28 c -15.435 15.4 -28.383 28 -28.775 28 -0.391 0 -0.831 -12.488 -0.977 -27.75 z m 61.779 -53.04 c -0.715 -0.715 -7.335 1.832 -8.543 3.287 -0.763 0.92 0.567 0.667 3.898 -0.74 2.781 -1.175 4.871 -2.321 4.646 -2.547 z m 9.05 -5.357 c 1.895 -2.134 1.893 -2.139 -0.345 -0.965 -1.238 0.649 -2.25 1.615 -2.25 2.146 0 1.421 0.479 1.203 2.595 -1.181 z m -15.177 -13.461 c 0.87 -0.334 1.582 -1.234 1.582 -2 0 -1.636 -5.675 -1.904 -8 -0.378 -2.863 1.879 2.521 3.873 6.418 2.378 z m 52.582 -24.89 l 3.5 -6.911 l 7.483 -0.362 c 4.115 -0.199 7.662 -0.542 7.882 -0.761 0.22 -0.22 0.573 -2.484 0.785 -5.03 0.212 -2.549 0.849 -5.499 1.414 -6.556 0.566 -1.057 0.762 -2.353 0.436 -2.88 -0.326 -0.527 -0.13 -1.823 0.436 -2.88 1 -1.868 2.165 -9.186 2.228 -14 0.017 -1.309 -0.524 -2.724 -1.202 -3.143 -1.924 -1.189 -28.21 6.436 -46.34 13.444 l -6.877 2.658 l 0.767 -2.289 c 0.422 -1.259 0.969 -4.881 1.216 -8.05 0.38 -4.88 0.053 -6.435 -2.14 -10.176 -3.335 -5.691 -11.626 -12.718 -11.578 -9.814 0.007 0.413 1.568 1.757 3.468 2.988 1.901 1.231 4.207 3.706 5.124 5.5 1.624 3.175 1.619 3.219 -0.218 1.664 -3.443 -2.916 -5.515 -3.071 -9.02 -0.678 -1.834 1.252 -3.768 3.514 -4.298 5.03 -0.703 2.01 -1.637 2.75 -3.456 2.75 -1.371 0 -2.771 0.45 -3.111 1 -1.185 1.917 -3.266 0.979 -4.514 -2.034 -2.443 -5.899 -8.967 -8.652 -14.05 -5.931 -2.133 1.142 -2.554 4.939 -0.891 8.05 1.426 2.665 8.384 6.92 11.315 6.92 1.319 0 2.948 -0.663 3.62 -1.474 1.056 -1.272 1.591 -1.283 3.915 -0.082 1.48 0.765 5.454 1.405 8.83 1.421 5.895 0.028 6.281 -0.128 9.708 -3.921 2.162 -2.393 3.601 -5.03 3.651 -6.698 0.081 -2.719 0.097 -2.712 1.577 0.685 2.592 5.949 0.303 12.96 -6.342 19.422 -2.883 2.804 -3.491 3.914 -2.485 4.539 0.938 0.582 1.161 2.126 0.755 5.217 -0.343 2.605 -0.071 5.53 0.668 7.195 l 1.245 2.805 l 5.332 -4.555 c 9.314 -7.957 14.274 -5.166 10.692 6.02 -0.568 1.773 -0.041 2.256 3.657 3.36 2.376 0.709 5.895 2.119 7.82 3.132 1.925 1.014 3.95 1.732 4.5 1.597 0.55 -0.136 2.575 -3.356 4.5 -7.157 z m -62.49 -33.486 c -0.345 -0.559 -1.295 -1.016 -2.11 -1.016 -2.306 0 -7.4 -4.184 -7.4 -6.077 0 -3.064 3.382 -6.254 5.812 -5.482 1.203 0.382 2.188 1.231 2.188 1.886 0 0.656 0.886 1.746 1.97 2.422 1.413 0.882 1.932 2.235 1.836 4.783 -0.138 3.664 -1.194 5.268 -2.296 3.485 z m 20.18 -2.05 c -1.181 -1.686 -1.234 -2.793 -0.287 -5.998 1.676 -5.676 2.949 -6.618 5.499 -4.069 3.62 3.62 2.501 8.588 -2.582 11.465 -0.65 0.368 -1.833 -0.261 -2.63 -1.398 z m -67.41 37.508 c 3.034 -1.389 9.691 -3.768 14.794 -5.287 8.756 -2.607 9.348 -2.956 10.528 -6.224 0.688 -1.904 1.285 -4.919 1.327 -6.698 0.062 -2.628 0.827 -3.733 4.076 -5.883 2.2 -1.456 4 -2.775 4 -2.932 0 -1.491 -1.403 -3.238 -2.333 -2.904 -0.642 0.23 -4.541 -2.528 -8.664 -6.13 c -6.683 -5.838 -14.753 -11.641 -32.835 -23.613 -6.093 -4.03 -8.07 -3.781 -8.07 1.032 c 0 2.495 -0.225 4.46 -1.591 13.917 -0.298 2.062 -0.574 4.868 -0.613 6.235 -0.039 1.367 -0.491 3.269 -1 4.227 -0.639 1.194 -0.401 2.926 0.759 5.514 0.93 2.075 1.776 4.673 1.881 5.773 0.436 4.578 10.261 25.27 12.1 25.485 0.071 0.008 2.612 -1.121 5.646 -2.51 z m 53.21 -4.1 c 2.548 -2.548 1.596 -7.585 -1.733 -9.172 -2.277 -1.086 -3.223 -1.081 -5.5 0.03 -2.33 1.136 -2.731 1.926 -2.626 5.168 0.068 2.105 0.743 4.219 1.5 4.698 2.225 1.409 6.605 1.03 8.358 -0.723 z m -16.13 -49.28 c 2.094 -2.637 1.761 -2.428 -1.25 0.783 -2.258 2.408 -4.079 4.883 -4.047 5.5 0.032 0.617 0.595 0.264 1.25 -0.783 0.655 -1.047 2.476 -3.522 4.047 -5.5 z m 26.14 -7.096 c -0.34 -0.55 -1.829 -0.968 -3.309 -0.93 -2.403 0.063 -2.477 0.162 -0.691 0.93 2.778 1.194 4.738 1.194 4 0 z m -10.25 -0.662 c -0.688 -0.277 -1.813 -0.277 -2.5 0 -0.688 0.277 -0.125 0.504 1.25 0.504 1.375 0 1.938 -0.227 1.25 -0.504 z" style="fill:#ff4500"/><path d="m 68.834 206.88 l -0.266 -27.75 l -26 -0.5 l -26 -0.5 l 0.017 -13.25 c 0.009 -7.287 0.122 -24.275 0.25 -37.75 l 0.233 -24.5 h 17.981 h 17.981 l 3.039 6.5 c 3.543 7.577 4.02 7.71 13.11 3.639 7.495 -3.356 12.36 -4.711 11.413 -3.179 -0.809 1.309 2.466 1.338 4.475 0.04 1.195 -0.772 0.991 -0.987 -1 -1.055 -2.295 -0.079 -2.336 -0.156 -0.5 -0.945 4.119 -1.77 6.161 -1.144 7.338 2.25 l 1.127 3.25 l -0.477 -4.14 c -0.272 -2.362 0.165 -5.96 1.017 -8.376 0.822 -2.329 1.494 -5.522 1.494 -7.095 0 -2.229 0.883 -3.444 4 -5.507 2.2 -1.456 4 -2.814 4 -3.02 0 -0.204 -0.9 -2.05 -2 -4.102 -3.838 -7.161 -1.409 -17.06 5.724 -23.323 1.802 -1.582 3.276 -3.105 3.276 -3.384 0 -1.344 -5.874 -4.09 -10.895 -5.092 -5.272 -1.053 -5.605 -1.293 -5.605 -4.04 0 -2.72 0.254 -2.913 3.689 -2.812 2.527 0.074 6.05 1.578 11.174 4.774 6.746 4.205 8.01 4.642 12.811 4.429 2.929 -0.13 6.531 0.126 8 0.567 2.236 0.67 3.062 0.34 5 -1.995 6.926 -8.344 10.596 -11.684 12.174 -11.08 2.89 1.109 1.803 3.261 -4.352 8.614 -3.3 2.87 -5.994 5.525 -5.988 5.9 0.007 0.375 1.568 1.689 3.468 2.92 1.901 1.231 4.207 3.706 5.124 5.5 1.624 3.175 1.619 3.219 -0.218 1.664 -3.443 -2.916 -5.515 -3.071 -9.02 -0.678 -1.834 1.252 -3.768 3.514 -4.298 5.03 -0.703 2.01 -1.637 2.75 -3.456 2.75 -1.371 0 -2.771 0.45 -3.111 1 -1.185 1.917 -3.266 0.979 -4.514 -2.034 -2.443 -5.899 -8.967 -8.652 -14.05 -5.931 -2.133 1.142 -2.554 4.939 -0.891 8.05 1.426 2.665 8.384 6.92 11.315 6.92 1.319 0 2.948 -0.663 3.62 -1.474 1.056 -1.272 1.591 -1.283 3.915 -0.082 1.48 0.765 5.454 1.405 8.83 1.421 5.895 0.028 6.281 -0.128 9.708 -3.921 2.162 -2.393 3.601 -5.03 3.651 -6.698 0.081 -2.719 0.097 -2.712 1.577 0.685 2.592 5.949 0.303 12.96 -6.342 19.422 -2.883 2.804 -3.491 3.914 -2.485 4.539 0.938 0.582 1.161 2.126 0.755 5.217 -0.343 2.605 -0.071 5.53 0.668 7.195 l 1.245 2.805 l 5.332 -4.555 c 5.509 -4.706 9 -5.665 11.161 -3.064 1.161 1.399 1.06 3.295 -0.508 9.547 -0.603 2.403 -0.192 2.711 7.689 5.763 9.882 3.827 10.615 3.884 11.743 0.918 0.477 -1.255 1.866 -4.405 3.085 -7 l 2.218 -4.718 h 7.831 c 4.307 0 8.109 -0.45 8.449 -1 0.371 -0.6 7.123 -1 16.897 -1 h 16.279 l 0.665 37.09 c 0.366 20.4 0.412 37.5 0.103 38 -0.326 0.527 -22.503 0.909 -52.76 0.909 h -52.2 l -27.987 28 c -15.393 15.4 -28.32 28 -28.727 28 -0.407 0 -0.86 -12.488 -1.01 -27.75 z m 60.63 -51.701 c 1.041 -0.328 1.634 -0.856 1.317 -1.173 -0.875 -0.875 -7.38 1.52 -8.811 3.244 -1.126 1.357 -0.895 1.359 2.17 0.022 1.887 -0.823 4.282 -1.765 5.324 -2.093 z m 11.01 -7.15 c 0.445 -1.16 0.164 -1.236 -1.423 -0.387 -1.088 0.582 -1.977 1.478 -1.977 1.992 0 1.378 2.755 0.078 3.4 -1.604 z m -15.982 -13.01 c 0.87 -0.334 1.582 -1.234 1.582 -2 0 -1.636 -5.675 -1.904 -8 -0.378 -2.863 1.879 2.521 3.873 6.418 2.378 z m 18.71 -19.643 c 1.087 -2.04 1.044 -2.122 -0.465 -0.878 -0.915 0.755 -1.664 1.767 -1.664 2.25 0 1.527 0.889 0.955 2.129 -1.372 z m -22.646 -7.375 c 2.548 -2.548 1.596 -7.585 -1.733 -9.172 -2.277 -1.086 -3.223 -1.081 -5.5 0.03 -2.33 1.136 -2.731 1.926 -2.626 5.168 0.068 2.105 0.743 4.219 1.5 4.698 2.225 1.409 6.605 1.03 8.358 -0.723 z m 14.189 -33.433 c -3.144 -4.488 2.871 -9.607 6.356 -5.409 1.552 1.87 0.632 3.953 -2.736 6.189 -1.876 1.245 -2.259 1.163 -3.62 -0.78 z m -25.472 -0.142 c -1.886 -1.886 -1.413 -5.615 0.867 -6.836 1.608 -0.861 2.607 -0.752 4.5 0.488 2.467 1.616 2.923 3.107 1.826 5.966 -0.717 1.869 -5.455 2.12 -7.193 0.382 z" style="fill:#bfb42e"/><path d="m 68.834 206.88 l -0.266 -27.75 l -26 -0.5 l -26 -0.5 l 0.017 -13.25 c 0.009 -7.287 0.122 -24.275 0.25 -37.75 l 0.233 -24.5 h 17.981 h 17.981 l 3.039 6.5 c 3.543 7.577 4.02 7.71 13.11 3.639 7.495 -3.356 12.36 -4.711 11.413 -3.179 -0.809 1.309 2.466 1.338 4.475 0.04 1.195 -0.772 0.991 -0.987 -1 -1.055 -2.295 -0.079 -2.336 -0.156 -0.5 -0.945 4.119 -1.77 6.161 -1.144 7.338 2.25 l 1.127 3.25 l -0.455 -4 c -0.951 -8.37 2.052 -11.33 5.061 -4.989 1.01 2.12 2.627 3.752 4.093 4.12 3.131 0.786 3.912 -0.069 2.63 -2.877 -1.508 -3.301 -7.955 -10.762 -8.677 -10.04 -0.34 0.34 -0.619 -0.55 -0.619 -1.98 0 -2.74 5.128 -7.392 6.924 -6.282 0.516 0.319 1.263 0.053 1.661 -0.591 0.482 -0.781 0.287 -0.901 -0.585 -0.362 -0.848 0.524 -1.067 0.418 -0.622 -0.302 0.378 -0.611 1.372 -0.848 2.209 -0.527 1.289 0.495 1.208 0.918 -0.532 2.771 -2.786 2.965 -2.618 4.239 1.446 10.988 1.925 3.197 3.5 7.092 3.5 8.656 0 3.733 2.672 5.097 9.239 4.715 4.187 -0.243 5.284 -0.685 5.727 -2.301 0.888 -3.245 10.402 -17.271 12.03 -17.742 4.854 -1.4 5.538 4.045 0.936 7.447 -2.761 2.041 -6.936 7.557 -6.936 9.163 0 1.742 3.409 0.247 6.354 -2.785 l 3.318 -3.417 l 0.914 2.489 l 0.914 2.489 l 5.332 -4.572 c 5.509 -4.724 8.998 -5.687 11.161 -3.081 1.161 1.399 1.06 3.295 -0.508 9.547 -0.603 2.403 -0.192 2.711 7.689 5.763 9.882 3.827 10.615 3.884 11.743 0.918 0.477 -1.255 1.866 -4.405 3.085 -7 l 2.218 -4.718 h 7.831 c 4.307 0 8.109 -0.45 8.449 -1 0.371 -0.6 7.123 -1 16.897 -1 h 16.279 l 0.665 37.09 c 0.366 20.4 0.412 37.5 0.103 38 -0.326 0.527 -22.503 0.909 -52.76 0.909 h -52.2 l -27.987 28 c -15.393 15.4 -28.32 28 -28.727 28 -0.407 0 -0.86 -12.488 -1.01 -27.75 z m 51.42 -49.35 c 1.507 -0.807 1.871 -0.802 1.365 0.017 -0.418 0.677 0.617 0.548 2.629 -0.327 1.826 -0.794 4.136 -1.699 5.133 -2.01 0.997 -0.311 1.574 -0.953 1.281 -1.427 -0.293 -0.473 0.691 -1.47 2.187 -2.216 2.647 -1.319 3.498 -1.584 5.862 -1.822 0.629 -0.063 1.388 -0.753 1.687 -1.532 0.561 -1.461 -2.662 -1.441 -9.83 0.063 -3.613 0.758 -22.03 0.637 -24.548 -0.162 -1.862 -0.591 -2.279 1.705 -0.43 2.364 2.68 0.955 4.48 2.339 4.02 3.089 -0.284 0.46 0.265 0.775 1.222 0.7 0.962 -0.076 1.616 0.455 1.464 1.187 -0.151 0.728 0.135 1.071 0.637 0.761 0.501 -0.31 1.468 0.107 2.147 0.926 1.475 1.777 2.447 1.85 5.177 0.389 z m 12.74 -14.457 c 5.193 -2.826 10.292 -7.443 8.221 -7.443 -0.66 0 -4.901 0.959 -9.424 2.132 -6.719 1.742 -10.02 2.033 -18.02 1.592 -8.556 -0.471 -9.641 -0.353 -8.573 0.934 1.351 1.628 5.986 4.197 9.863 5.466 4.37 1.431 12.654 0.193 17.933 -2.68 z m -2.137 -8.341 c 4.251 -2.174 9.21 -6.511 9.21 -8.06 0 -1.377 0.344 -1.43 -9.735 1.501 -8.639 2.512 -19.621 3.425 -24.1 2 -2.416 -0.767 -2.89 0.6 -0.808 2.328 5.04 4.18 19.19 5.417 25.435 2.223 z m -4.57 -7.147 c 4.711 -1.308 11.59 -7.546 10.04 -9.1 -0.782 -0.782 -2.02 -0.575 -4.421 0.738 -2.37 1.296 -6.37 1.981 -13.824 2.365 -8.695 0.449 -10.544 0.824 -10.805 2.195 -0.214 1.124 0.744 1.988 2.99 2.694 6.904 2.172 11.136 2.465 16.02 1.107 z m -0.857 -9.918 c 1.733 -1.733 0.161 -2.125 -10.245 -2.557 -7.944 -0.33 -10.117 -0.135 -10.117 0.905 0 0.729 1.463 1.822 3.25 2.43 3.721 1.265 15.61 0.724 17.11 -0.778 z m 17.766 -2.288 c 1.087 -2.04 1.044 -2.122 -0.465 -0.878 -0.915 0.755 -1.664 1.767 -1.664 2.25 0 1.527 0.889 0.955 2.129 -1.372 z m -43.13 -1.75 c 0 -0.55 -0.477 -1 -1.059 -1 -0.582 0 -0.781 0.45 -0.441 1 0.34 0.55 0.816 1 1.059 1 0.243 0 0.441 -0.45 0.441 -1 z m 14.5 -24.569 c -3.81 -1.978 -8.5 -6.424 -8.5 -8.06 0 -2.351 1.952 -2.467 4.895 -0.292 2.429 1.796 3.717 2.055 7.44 1.497 2.476 -0.371 7.914 -0.366 12.08 0.012 9.255 0.839 9.88 2.433 2.331 5.947 -6.135 2.856 -13.751 3.229 -18.25 0.894 z m -14.983 -9.04 c -1.956 -4.122 -1.692 -12.664 0.454 -14.704 0.996 -0.946 1.093 -0.677 0.473 1.309 -1.146 3.671 -0.86 11.355 0.519 13.931 0.659 1.232 0.996 2.443 0.749 2.69 -0.248 0.248 -1.235 -1.204 -2.195 -3.226 z m 35.15 -5.453 c -3.144 -4.488 2.871 -9.607 6.356 -5.409 1.552 1.87 0.632 3.953 -2.736 6.189 -1.876 1.245 -2.259 1.163 -3.62 -0.78 z m -25.472 -0.142 c -1.886 -1.886 -1.413 -5.615 0.867 -6.836 1.608 -0.861 2.607 -0.752 4.5 0.488 2.467 1.616 2.923 3.107 1.826 5.966 -0.717 1.869 -5.455 2.12 -7.193 0.382 z m 11.258 -6.55 c -1.147 -5.436 -3.343 -8.984 -6.834 -11.04 l -3.553 -2.096 l -4.567 4.439 c -2.512 2.441 -4.113 3.59 -3.558 2.553 0.555 -1.037 2.369 -3.03 4.03 -4.429 1.662 -1.399 3.02 -2.787 3.02 -3.085 0 -1.375 -5.819 -4.113 -10.895 -5.126 -5.272 -1.053 -5.605 -1.293 -5.605 -4.04 0 -2.72 0.254 -2.913 3.689 -2.812 2.524 0.074 6.04 1.575 11.136 4.75 4.096 2.553 8.51 4.694 9.811 4.757 1.695 0.083 1.869 0.245 0.614 0.573 -2.347 0.613 -2.277 0.917 1.676 7.322 4.271 6.92 5.457 10.989 3.202 10.989 -0.927 0 -1.831 -1.147 -2.169 -2.75 z m 5.998 1.495 c -0.335 -0.874 -0.016 -2.637 0.71 -3.917 l 1.32 -2.328 l 0.335 2.872 c 0.389 3.333 -1.401 5.886 -2.365 3.374 z m 5.292 -16.331 c -1.065 -1.065 10.891 -14.414 12.911 -14.414 0.772 0 1.685 0.733 2.029 1.63 0.442 1.152 -1.253 3.338 -5.781 7.456 -6.152 5.595 -7.884 6.603 -9.159 5.328 z m -9.998 -2.077 c 0.688 -0.277 1.813 -0.277 2.5 0 0.688 0.277 0.125 0.504 -1.25 0.504 -1.375 0 -1.938 -0.227 -1.25 -0.504 z" style="fill:#ff4500"/><path d="m 85.45 162.24 c -4.115 -4.21 -7.387 -8.427 -7.387 -9.522 0 -3.136 3.01 -15.294 4.643 -18.741 1.495 -3.16 3.709 -4.31 8.343 -4.335 2.187 -0.012 1.677 -0.744 -4.25 -6.093 -6.773 -6.113 -8.175 -9.08 -5.536 -11.72 1.633 -1.633 4.306 -1.507 7.943 0.374 1.674 0.866 3.219 1.398 3.433 1.184 0.214 -0.214 -0.058 -1.935 -0.606 -3.824 -1.193 -4.111 -0.349 -8.934 1.563 -8.934 0.755 0 2.123 1.58 3.04 3.511 1.01 2.12 2.627 3.752 4.093 4.12 3.131 0.786 3.912 -0.069 2.63 -2.877 -1.508 -3.301 -7.955 -10.762 -8.677 -10.04 -0.34 0.34 -0.619 -0.55 -0.619 -1.98 0 -2.74 5.128 -7.392 6.924 -6.282 0.516 0.319 1.263 0.053 1.661 -0.591 0.482 -0.781 0.287 -0.901 -0.585 -0.362 -0.848 0.524 -1.067 0.418 -0.622 -0.302 0.378 -0.611 1.372 -0.848 2.209 -0.527 1.289 0.495 1.208 0.918 -0.532 2.771 -2.786 2.965 -2.618 4.239 1.446 10.988 1.925 3.197 3.5 7.092 3.5 8.656 0 3.733 2.672 5.097 9.239 4.715 4.187 -0.243 5.284 -0.685 5.727 -2.301 0.888 -3.245 10.402 -17.271 12.03 -17.742 4.854 -1.4 5.538 4.045 0.936 7.447 -2.761 2.041 -6.936 7.557 -6.936 9.163 0 1.742 3.409 0.247 6.354 -2.785 l 3.318 -3.417 l 0.914 2.489 l 0.914 2.489 l 5.332 -4.572 c 5.34 -4.579 8.722 -5.619 10.968 -3.372 2.529 2.529 0.57 9.495 -4.908 17.458 -3.507 5.097 -3.573 5.73 -0.523 4.965 1.672 -0.42 3.51 0.239 6.25 2.239 5.298 3.869 13.381 12.702 13.381 14.624 0 2.735 -6.758 15.938 -9.454 18.471 -2.343 2.201 -2.735 2.284 -4.146 0.872 -1.411 -1.411 -1.173 -2.325 2.521 -9.671 2.244 -4.462 4.079 -8.464 4.079 -8.892 0 -1.01 -8.672 -6.26 -9.301 -5.631 -0.263 0.263 0.001 2.039 0.587 3.947 0.793 2.585 0.758 3.775 -0.138 4.672 -1.8 1.8 -4.202 -0.146 -6.931 -5.618 -2.647 -5.308 -4.215 -5.243 -4.221 0.175 -0.004 3.725 -3.388 10.685 -4.778 9.826 -0.413 -0.255 -2.994 -0.021 -5.735 0.522 -5.405 1.069 -24.323 1.291 -27.824 0.326 -1.943 -0.535 -1.892 -0.363 0.501 1.711 9.733 8.435 10.886 9.103 13.669 7.914 l 2.67 -1.14 l -2.361 2.02 c -3.093 2.642 -4.94 2.548 -6.246 -0.319 -0.585 -1.284 -2.47 -3.166 -4.189 -4.181 -3.489 -2.061 -7.18 -5.622 -10.377 -10.01 l -2.13 -2.924 l -1.078 4.01 c -2.354 8.742 -7.083 10.211 -7.161 2.225 l -0.042 -4.281 l -1.916 3.5 c -1.054 1.925 -1.935 3.95 -1.958 4.5 -0.023 0.55 2.895 4.146 6.485 7.991 6.754 7.235 7.636 9.769 3.599 10.343 -1.824 0.259 -4.02 -1.366 -9.74 -7.222 z m 47.54 -19.17 c 5.193 -2.826 10.292 -7.443 8.221 -7.443 -0.66 0 -4.901 0.959 -9.424 2.132 -6.719 1.742 -10.02 2.033 -18.02 1.592 -8.556 -0.471 -9.641 -0.353 -8.573 0.934 1.351 1.628 5.986 4.197 9.863 5.466 4.37 1.431 12.654 0.193 17.933 -2.68 z m -2.137 -8.341 c 4.251 -2.174 9.21 -6.511 9.21 -8.06 0 -1.377 0.344 -1.43 -9.735 1.501 -8.639 2.512 -19.621 3.425 -24.1 2 -2.416 -0.767 -2.89 0.6 -0.808 2.328 5.04 4.18 19.19 5.417 25.435 2.223 z m -4.57 -7.147 c 4.711 -1.308 11.59 -7.546 10.04 -9.1 -0.782 -0.782 -2.02 -0.575 -4.421 0.738 -2.37 1.296 -6.37 1.981 -13.824 2.365 -8.695 0.449 -10.544 0.824 -10.805 2.195 -0.214 1.124 0.744 1.988 2.99 2.694 6.904 2.172 11.136 2.465 16.02 1.107 z m -0.857 -9.918 c 1.733 -1.733 0.161 -2.125 -10.245 -2.557 -7.944 -0.33 -10.117 -0.135 -10.117 0.905 0 0.729 1.463 1.822 3.25 2.43 3.721 1.265 15.61 0.724 17.11 -0.778 z m 18.638 -2.764 c 0 -1.034 -0.461 -1.097 -2 -0.274 -2.024 1.083 -2.601 3.066 -1.277 4.389 0.856 0.856 3.277 -2.186 3.277 -4.116 z m -44 -1.274 c 0 -0.55 -0.477 -1 -1.059 -1 -0.582 0 -0.781 0.45 -0.441 1 0.34 0.55 0.816 1 1.059 1 0.243 0 0.441 -0.45 0.441 -1 z m 32.774 37.996 c 4.165 -2.539 5.433 -2.519 2.365 0.037 -1.298 1.082 -3.098 1.965 -4 1.963 -0.976 -0.002 -0.315 -0.811 1.635 -2 z m -18.274 -62.57 c -3.81 -1.978 -8.5 -6.424 -8.5 -8.06 0 -2.351 1.952 -2.467 4.895 -0.292 2.429 1.796 3.717 2.055 7.44 1.497 2.476 -0.371 7.914 -0.366 12.08 0.012 9.255 0.839 9.88 2.433 2.331 5.947 -6.135 2.856 -13.751 3.229 -18.25 0.894 z m -14.983 -9.04 c -1.956 -4.122 -1.692 -12.664 0.454 -14.704 0.996 -0.946 1.093 -0.677 0.473 1.309 -1.146 3.671 -0.86 11.355 0.519 13.931 0.659 1.232 0.996 2.443 0.749 2.69 -0.248 0.248 -1.235 -1.204 -2.195 -3.226 z m 35.15 -5.453 c -3.144 -4.488 2.871 -9.607 6.356 -5.409 1.552 1.87 0.632 3.953 -2.736 6.189 -1.876 1.245 -2.259 1.163 -3.62 -0.78 z m -25.472 -0.142 c -1.855 -1.855 -1.425 -4.529 1 -6.23 1.878 -1.315 2.506 -1.343 4.25 -0.187 2.497 1.655 3.123 4.217 1.507 6.165 -1.461 1.761 -5.115 1.897 -6.76 0.252 z m 11.258 -6.55 c -1.147 -5.436 -3.343 -8.984 -6.834 -11.04 l -3.553 -2.096 l -4.567 4.439 c -2.512 2.441 -4.113 3.59 -3.558 2.553 0.555 -1.037 2.466 -3.112 4.247 -4.61 l 3.238 -2.724 l -2.312 -1.872 c -2.16 -1.749 -5.685 -2.992 -12.431 -4.384 -2.361 -0.487 -2.763 -1.017 -2.5 -3.295 0.57 -4.942 6.49 -3.615 17.493 3.922 2.299 1.575 5.449 2.915 7 2.979 1.69 0.07 2.119 0.299 1.07 0.573 -2.347 0.613 -2.277 0.917 1.676 7.322 4.271 6.92 5.457 10.989 3.202 10.989 -0.927 0 -1.831 -1.147 -2.169 -2.75 z m 5.998 1.495 c -0.335 -0.874 -0.016 -2.637 0.71 -3.917 l 1.32 -2.328 l 0.335 2.872 c 0.389 3.333 -1.401 5.886 -2.365 3.374 z m 5.292 -16.331 c -1.077 -1.077 11.09 -14.414 13.152 -14.414 0.64 0 1.425 0.684 1.746 1.52 0.386 1.01 -1.571 3.529 -5.781 7.456 -6.101 5.69 -7.833 6.723 -9.117 5.439 z m -9.998 -2.077 c 0.688 -0.277 1.813 -0.277 2.5 0 0.688 0.277 0.125 0.504 -1.25 0.504 -1.375 0 -1.938 -0.227 -1.25 -0.504 z" style="fill:#3e77a8"/><path d="m 87.04 161.6 c -7.858 -8.422 -7.966 -8.84 -5.086 -19.807 2.34 -8.915 3.348 -10.168 8.174 -10.168 2.1 0 4.126 -0.497 4.501 -1.104 0.387 -0.626 -2.406 -4.145 -6.441 -8.116 -3.918 -3.856 -7.124 -7.354 -7.124 -7.773 0 -0.419 0.682 -1.327 1.514 -2.02 1.243 -1.032 2.423 -0.786 6.592 1.378 2.793 1.449 5.442 2.634 5.888 2.634 0.445 0 0.179 -2.097 -0.592 -4.659 -1.61 -5.351 -1.848 -11.341 -0.449 -11.341 0.524 0 1.703 1.58 2.619 3.511 1.58 3.329 5.627 5.623 7.181 4.07 0.898 -0.898 -2.468 -6.964 -5.381 -9.702 -3.739 -3.512 -3.14 -7.105 1.72 -10.321 4.444 -2.941 6.135 -2.978 2.914 -0.064 -2.775 2.511 -2.539 4.238 1.494 10.936 1.925 3.197 3.5 7.092 3.5 8.656 0 3.733 2.672 5.097 9.239 4.715 4.187 -0.243 5.284 -0.685 5.727 -2.301 1.073 -3.918 10.523 -17.43 12.03 -17.206 2.418 0.358 2.534 6.35 0.148 7.627 -1.797 0.962 -6.148 6.94 -6.148 8.447 0 1.547 3.304 0.407 5.412 -1.868 1.274 -1.375 2.603 -2.5 2.952 -2.5 0.349 0 0.635 1.125 0.635 2.5 0 1.375 0.424 2.5 0.942 2.5 0.518 0 3.537 -2.271 6.708 -5.05 4.227 -3.699 6.443 -4.967 8.3 -4.75 4.892 0.572 4.044 5.757 -2.507 15.326 -3.665 5.354 -4.315 6.92 -3.354 8.08 0.688 0.829 2 1.181 3.101 0.832 2.326 -0.738 5.618 1.329 12.56 7.889 6.106 5.771 6.401 7.452 2.622 14.954 -3.883 7.706 -6.445 11.04 -7.596 9.892 -0.638 -0.638 0.448 -3.721 3.123 -8.863 2.256 -4.336 4.102 -8.217 4.102 -8.624 0 -1.421 -12.458 -8.631 -13.358 -7.731 -0.521 0.521 -0.424 2.229 0.233 4.116 2.537 7.279 0.494 8.07 -3.045 1.177 -2.651 -5.163 -6.184 -6.864 -7.254 -3.492 -0.448 1.413 -2.943 2.448 -10.127 4.203 -7.914 1.933 -11.148 2.232 -19.05 1.761 -8.376 -0.5 -9.369 -0.388 -8.276 0.929 4.835 5.826 18.691 7.715 26.492 3.611 2.264 -1.191 5.527 -3.352 7.25 -4.802 l 3.134 -2.637 v 2.943 c 0 7.22 -6.826 9.683 -25.951 9.361 -10.569 -0.178 -12.575 -1 -16.04 -6.611 -2.571 -4.16 -4.408 -3.533 -5.417 1.847 -0.34 1.81 -1.318 4.156 -2.174 5.214 -1.438 1.776 -1.514 1.444 -1 -4.326 0.451 -5.084 0.28 -6.25 -0.916 -6.25 -1.429 0 -7.499 10.682 -7.499 13.196 0 0.689 3.02 4.297 6.712 8.02 5.33 5.371 6.457 7.02 5.475 8 -0.982 0.982 -2.672 -0.302 -8.211 -6.238 z m 44.02 -27.02 c 4.04 -2.025 9 -6.382 9 -7.911 0 -1.377 0.344 -1.43 -9.735 1.501 -8.727 2.538 -19.629 3.422 -24.22 1.965 -3.705 -1.176 -1.998 1.707 2.262 3.819 7.494 3.716 16.05 3.952 22.694 0.625 z m -31 -7.99 c 0 -1.947 -2.504 -3.798 -3.624 -2.678 -0.751 0.751 1.484 4.709 2.659 4.709 0.531 0 0.965 -0.914 0.965 -2.031 z m 26.22 0.987 c 4.711 -1.308 11.59 -7.546 10.04 -9.1 -0.782 -0.782 -2.02 -0.575 -4.421 0.738 -2.37 1.296 -6.37 1.981 -13.824 2.365 -8.695 0.449 -10.544 0.824 -10.805 2.195 -0.214 1.124 0.744 1.988 2.99 2.694 6.904 2.172 11.136 2.465 16.02 1.107 z m 17.78 -4.59 c 0 -1.449 0.522 -4.377 1.16 -6.506 0.638 -2.13 0.866 -4.167 0.506 -4.527 -0.71 -0.71 -7.666 2.709 -7.666 3.767 0 1.656 4.203 9.9 5.05 9.9 0.524 0 0.953 -1.185 0.953 -2.634 z m -18.638 -5.328 c 1.733 -1.733 0.161 -2.125 -10.245 -2.557 -7.944 -0.33 -10.117 -0.135 -10.117 0.905 0 0.729 1.463 1.822 3.25 2.43 3.721 1.265 15.61 0.724 17.11 -0.778 z m -25.362 -4.04 c 0 -0.55 -0.477 -1 -1.059 -1 -0.582 0 -0.781 0.45 -0.441 1 0.34 0.55 0.816 1 1.059 1 0.243 0 0.441 -0.45 0.441 -1 z m 14.5 -24.569 c -3.81 -1.978 -8.5 -6.424 -8.5 -8.06 0 -2.351 1.952 -2.467 4.895 -0.292 2.429 1.796 3.717 2.055 7.44 1.497 2.476 -0.371 7.914 -0.366 12.08 0.012 9.255 0.839 9.88 2.433 2.331 5.947 -6.135 2.856 -13.751 3.229 -18.25 0.894 z m -3.348 -15.317 c -1.713 -1.084 -1.106 -4.507 0.86 -4.851 2.674 -0.468 4.621 1.468 3.417 3.399 -1.334 2.141 -2.541 2.551 -4.277 1.452 z m 23.842 -0.621 c -1.107 -1.333 -1.063 -1.852 0.264 -3.18 2.144 -2.144 4.972 -0.953 4.562 1.922 -0.391 2.739 -3.03 3.426 -4.826 1.257 z m -14.536 -5.243 c -1.129 -5.35 -3.419 -9.179 -6.42 -10.73 -1.671 -0.864 -3.038 -2.241 -3.038 -3.06 0 -2.131 -5.581 -5.231 -11.707 -6.503 -5.811 -1.206 -6.978 -2.144 -4.858 -3.903 1.658 -1.376 6.02 0.598 14.06 6.364 2.748 1.97 5.497 3.582 6.108 3.582 1.381 0 8 10.592 8.93 14.281 0.528 2.105 0.323 2.719 -0.907 2.719 -0.927 0 -1.831 -1.147 -2.169 -2.75 z m 5.542 0.441 c 0 -0.72 0.661 -2.182 1.468 -3.25 1.389 -1.836 1.47 -1.765 1.5 1.309 0.022 2.236 -0.436 3.25 -1.468 3.25 -0.825 0 -1.5 -0.589 -1.5 -1.309 z m 15 -24.621 c 0 -0.55 0.9 -1.482 2 -2.07 1.286 -0.688 2 -0.714 2 -0.07 0 0.55 -0.9 1.482 -2 2.07 -1.286 0.688 -2 0.714 -2 0.07 z" style="fill:#4e4525"/></g><g style="stroke:none;fill-rule:evenodd"><path d="m 82.25 128.16 c -0.546 -0.607 -6.797 -14.196 -6.558 -14.256 0.097 -0.025 0.516 -0.12 0.932 -0.211 1.042 -0.23 0.947 -0.769 -0.363 -2.066 -1.114 -1.103 -1.118 -1.113 -0.937 -2.688 0.259 -2.262 1.715 -11.09 2.23 -13.527 0.46 -2.175 0.988 -3.295 1.553 -3.295 1.485 0 11.375 7.527 12.748 9.703 0.382 0.606 1.727 2.19 2.988 3.521 2.494 2.631 3.144 3.681 3.774 6.094 0.555 2.127 1.049 2.802 2.696 3.687 0.767 0.412 1.765 1.051 2.219 1.419 0.768 0.623 0.814 0.763 0.665 2.02 -0.211 1.778 -0.926 2.946 -2.253 3.679 -0.596 0.329 -4.174 1.649 -7.95 2.932 -3.776 1.283 -7.463 2.59 -8.193 2.903 -1.626 0.698 -2.973 0.731 -3.551 0.089 z m 5.572 -1.77 c 1.236 -0.634 2.433 -1.436 2.661 -1.784 0.401 -0.612 1.118 -7.374 0.814 -7.678 -0.074 -0.074 -0.857 -0.319 -1.74 -0.544 -0.883 -0.226 -2.092 -0.537 -2.686 -0.692 l -1.081 -0.282 l 1.349 -0.731 c 0.742 -0.402 1.504 -1.04 1.695 -1.417 0.433 -0.86 0.471 -6.159 0.055 -7.809 -0.359 -1.426 -1.727 -3.176 -2.483 -3.176 -1.206 0 -2.54 5.193 -2.561 9.967 -0.015 3.395 0.259 3.104 -3.112 3.301 -1.1 0.064 -2.08 0.196 -2.177 0.293 -0.316 0.316 0.697 2.974 2.68 7.03 1.069 2.186 2.075 4.132 2.235 4.325 0.541 0.652 2.062 0.372 4.351 -0.801 z m -6.941 -22.809 c -0.138 -8 -0.356 -9.66 -1.248 -9.488 -0.236 0.045 -0.531 0.453 -0.656 0.907 -0.417 1.516 -2.65 12.887 -2.841 14.468 l -0.189 1.561 l 1.059 0.109 c 0.583 0.06 1.723 0.13 2.534 0.156 l 1.475 0.046 l -0.134 -7.758 z" style="fill:#ff7f50"/><g style="fill:#ffe4e1"><path d="m 82.12 129.39 c -1.618 -1.741 -6.165 -10.762 -7.343 -14.567 -0.383 -1.239 -1.087 -3.28 -1.564 -4.535 -0.865 -2.276 -0.866 -2.284 -0.421 -3.707 0.245 -0.784 0.639 -3.03 0.876 -4.996 0.237 -1.964 0.61 -4.868 0.829 -6.454 0.219 -1.586 0.402 -3.355 0.405 -3.931 0.013 -2.321 1.064 -2.673 3.743 -1.253 5.01 2.656 16.968 10.451 23.614 15.398 2.733 2.034 5.463 3.896 6.07 4.137 0.603 0.241 1.305 0.757 1.56 1.147 l 0.464 0.708 l -1.312 0.811 c -3.308 2.045 -4.189 3.01 -4.201 4.597 l -0.006 0.769 l -0.474 -0.582 c -0.261 -0.32 -1.382 -1.105 -2.491 -1.743 -1.637 -0.943 -2.114 -1.376 -2.534 -2.301 -0.285 -0.627 -0.522 -1.387 -0.526 -1.689 -0.019 -1.205 -1.408 -3.425 -3.695 -5.904 -1.323 -1.435 -2.735 -3.1 -3.138 -3.699 -1.25 -1.862 -8.87 -7.888 -11.731 -9.277 l -1.221 -0.593 l -0.558 0.558 c -0.307 0.307 -0.735 1.317 -0.951 2.243 -0.641 2.746 -2.328 13.11 -2.398 14.733 -0.062 1.41 -0.001 1.567 0.996 2.588 1.116 1.143 1.128 1.686 0.037 1.686 -0.36 0 -0.707 0.093 -0.772 0.206 -0.157 0.274 6.131 13.908 6.743 14.618 0.642 0.746 1.679 0.702 3.952 -0.164 1.038 -0.396 4.682 -1.685 8.099 -2.865 7.41 -2.56 8.148 -2.858 8.956 -3.617 0.766 -0.72 0.818 -0.263 0.078 0.679 -0.672 0.854 -1.775 1.303 -7.01 2.853 -4.471 1.324 -9.57 3.087 -11.912 4.118 -0.812 0.358 -1.501 0.65 -1.531 0.65 -0.03 0 -0.314 -0.278 -0.63 -0.618 z"/><path d="m 82.37 128 c -0.648 -0.78 -6.357 -13.235 -6.357 -13.868 0 -0.157 0.277 -0.325 0.615 -0.373 0.845 -0.121 0.934 -0.963 0.186 -1.76 l -0.622 -0.662 h 2.525 h 2.525 l -0.147 -5.01 c -0.32 -10.927 -0.471 -12.289 -1.358 -12.289 -0.225 0 -0.529 0.223 -0.675 0.497 -0.313 0.584 -3.049 14.321 -3.049 15.307 0 0.371 -0.124 0.674 -0.275 0.674 -0.406 0 -0.338 -1.269 0.283 -5.305 1.314 -8.534 2.224 -12.471 2.948 -12.749 1.24 -0.476 10.07 6.233 13.276 10.09 0.942 1.133 2.375 2.781 3.184 3.662 1.627 1.773 2.536 3.39 3.197 5.688 0.489 1.697 1.045 2.318 3.545 3.95 1.552 1.014 1.724 1.22 1.802 2.164 0.055 0.665 -0.134 1.498 -0.523 2.3 -0.764 1.578 -1.323 1.842 -11.455 5.41 -7.393 2.604 -9.03 2.992 -9.626 2.277 z m 5.66 -1.604 c 0.998 -0.52 2.038 -1.248 2.312 -1.617 0.582 -0.785 1.124 -4.356 0.998 -6.576 l -0.086 -1.51 l -2.572 -0.664 l -2.572 -0.664 l 0.968 -0.497 c 1.914 -0.982 2.117 -1.515 2.11 -5.558 -0.005 -2.913 -0.103 -3.812 -0.513 -4.7 -0.628 -1.361 -1.739 -2.416 -2.408 -2.287 -1.113 0.214 -2.141 3.92 -2.428 8.747 -0.253 4.264 -0.15 4.045 -1.992 4.242 -3.131 0.334 -3.364 0.405 -3.364 1.017 0 0.696 1.751 4.84 3.611 8.547 l 1.371 2.731 l 1.375 -0.132 c 0.821 -0.079 2.107 -0.513 3.189 -1.078 z"/><path d="m 164.45 122.77 c 0.084 -0.086 1.673 -0.333 3.533 -0.549 2.01 -0.234 3.523 -0.543 3.732 -0.763 0.193 -0.204 0.542 -1.05 0.775 -1.881 0.589 -2.097 2.288 -10.617 2.704 -13.554 0.327 -2.313 0.318 -2.452 -0.196 -2.838 -1.149 -0.865 -5.21 0.199 -12.968 3.398 -4.818 1.987 -5.84 2.59 -6.904 4.07 -1.273 1.773 -4.516 4.475 -6.466 5.387 -0.915 0.428 -3.827 1.406 -6.47 2.172 -2.643 0.766 -5.208 1.631 -5.7 1.921 l -0.894 0.527 l 0.205 -1.159 c 0.323 -1.823 0.219 -2.978 -0.292 -3.264 -0.832 -0.466 -0.48 -1.034 1.148 -1.856 2.7 -1.363 4.263 -3.083 3.179 -3.499 -0.316 -0.121 -0.285 -0.295 0.169 -0.932 1.2 -1.685 1.73 -3.374 1.935 -6.162 0.185 -2.517 0.147 -2.883 -0.451 -4.381 -0.851 -2.133 -0.615 -2.341 0.325 -0.287 0.695 1.518 0.722 1.743 0.561 4.642 -0.093 1.676 -0.403 3.881 -0.689 4.9 -0.286 1.02 -0.416 1.854 -0.288 1.854 0.128 0 3.355 -1.056 7.172 -2.347 10.526 -3.561 23.799 -7.24 27.824 -7.713 1.313 -0.154 1.471 -0.113 1.782 0.468 0.546 1.02 0.143 5.726 -0.74 8.65 -0.408 1.349 -0.728 2.824 -0.711 3.277 0.017 0.453 -0.203 1.565 -0.488 2.472 -0.285 0.906 -0.654 2.698 -0.82 3.982 -0.188 1.458 -0.457 2.453 -0.715 2.652 -0.227 0.174 -1.858 0.394 -3.623 0.487 -1.765 0.093 -4.01 0.241 -4.995 0.328 -0.982 0.087 -1.717 0.088 -1.633 0.002 z"/><path d="m 156.89 130.14 c -0.604 -0.218 -2.62 -0.905 -4.48 -1.527 -3.916 -1.31 -3.951 -1.351 -3.552 -4.238 0.324 -2.351 -0.11 -3.669 -1.494 -4.53 -1.312 -0.817 -2.115 -0.562 -5.58 1.768 -1.663 1.118 -3.369 2.191 -3.793 2.384 -0.715 0.326 -0.817 0.293 -1.425 -0.456 -0.791 -0.974 -1.116 -2.209 -0.71 -2.698 0.495 -0.597 2.135 -1.205 7.142 -2.649 2.63 -0.758 5.504 -1.764 6.387 -2.235 1.463 -0.78 5.88 -4.708 6.446 -5.734 0.59 -1.068 5.03 -3.163 11.645 -5.491 3.941 -1.388 5.859 -1.806 6.986 -1.523 0.569 0.143 0.69 0.338 0.69 1.116 0 2.274 -2.917 16.354 -3.511 16.948 -0.155 0.155 -1.932 0.497 -3.949 0.761 -3.493 0.456 -4.986 0.908 -5.648 1.71 -0.164 0.199 -0.566 1.165 -0.893 2.146 -0.613 1.838 -1.788 4.102 -2.315 4.458 -0.409 0.277 -0.676 0.248 -1.946 -0.21 z m 0.185 -1.99 c 0.254 -0.261 1.148 -1.772 1.987 -3.357 2.236 -4.228 4.282 -6.741 4.282 -5.261 0 0.304 0.326 0.808 0.724 1.121 1.35 1.062 6.454 0.597 6.99 -0.636 0.329 -0.757 2.925 -13.436 3.042 -14.856 0.115 -1.398 -0.338 -1.517 -2.192 -0.578 -1.367 0.693 -2.521 1.843 -2.521 2.514 0 0.361 -1.356 1.588 -3.545 3.207 -1.593 1.178 -2.206 2.045 -2.382 3.373 -0.39 2.939 -0.317 2.794 -1.564 3.108 -0.638 0.161 -2.142 0.852 -3.342 1.537 -1.2 0.684 -3.314 1.621 -4.698 2.082 -1.384 0.461 -2.722 0.989 -2.975 1.174 -0.515 0.377 -1.14 3.689 -0.887 4.699 0.164 0.654 0.67 0.957 3.327 1.988 1.799 0.698 2.999 0.662 3.755 -0.114 z"/></g><g style="fill:#ffc0cb"><path d="m 153.26 127.98 c -0.938 -0.349 -2.033 -0.848 -2.432 -1.11 -0.702 -0.46 -0.72 -0.537 -0.537 -2.304 0.104 -1.01 0.355 -2.088 0.558 -2.406 0.242 -0.378 1.38 -0.927 3.295 -1.588 1.609 -0.556 3.873 -1.553 5.03 -2.215 1.158 -0.663 2.506 -1.286 2.996 -1.385 1.116 -0.226 1.18 -0.337 1.452 -2.526 0.257 -2.07 0.846 -2.841 3.798 -4.961 1.275 -0.916 1.881 -1.571 2.25 -2.43 0.389 -0.907 0.838 -1.368 1.962 -2.01 2.01 -1.154 2.424 -1.119 2.238 0.189 -0.167 1.169 -2.78 13.973 -2.993 14.662 -0.181 0.587 -2.1 1.06 -4.301 1.06 -1.898 0 -2.96 -0.492 -2.96 -1.372 0 -2 -2.173 0.238 -4.629 4.773 -2.52 4.652 -2.685 4.757 -5.728 3.626 z"/><path d="m 83.61 126.77 c -0.49 -0.541 -4.04 -7.83 -4.608 -9.457 -0.196 -0.563 -0.268 -1.112 -0.159 -1.22 0.108 -0.108 1.234 -0.266 2.501 -0.35 1.267 -0.084 2.388 -0.237 2.491 -0.339 0.103 -0.103 0.218 -1.647 0.258 -3.433 0.079 -3.583 0.938 -7.882 1.785 -8.928 0.466 -0.575 0.527 -0.584 1.173 -0.161 1.294 0.848 1.716 2.226 1.816 5.936 0.113 4.197 -0.062 4.689 -2.038 5.721 -0.817 0.427 -1.485 0.844 -1.486 0.927 0 0.083 1.242 0.431 2.761 0.774 1.692 0.382 2.821 0.776 2.914 1.019 0.084 0.218 0.026 1.827 -0.128 3.576 -0.329 3.731 -0.443 3.913 -3.395 5.431 -2.144 1.103 -3.217 1.242 -3.885 0.504 z"/><path d="m 77.01 110.86 c -0.78 -0.116 -0.786 -0.132 -0.602 -1.538 0.291 -2.231 2.551 -13.415 2.89 -14.304 0.858 -2.249 1.362 1.342 1.374 9.794 l 0.009 6.248 l -1.442 -0.041 c -0.793 -0.023 -1.796 -0.094 -2.23 -0.159 z"/></g></g></svg>