<svg xmlns="http://www.w3.org/2000/svg" viewBox="0 0 256 256"><defs><clipPath><path d="m24 7.03c-9.363 0-16.97 7.606-16.97 16.97 0 9.363 7.606 16.97 16.97 16.97 9.363 0 16.97-7.606 16.97-16.97 0-9.363-7.606-16.97-16.97-16.97"/></clipPath><clipPath><path d="m24 6.917c-9.426 0-17.08 7.657-17.08 17.08 0 9.426 7.657 17.08 17.08 17.08 9.426 0 17.08-7.657 17.08-17.08 0-9.426-7.657-17.08-17.08-17.08"/></clipPath></defs><g transform="translate(0 -796.36)"><path d="m182.83 797.33c-368.15-25.644-92.2 469.58 64.2 143.49 21.558-50.25 5.804-125.18-64.2-143.49" style="fill:#fff;color:#000"/><g transform="matrix(5.83881 0 0 6.44623 14.189 740.66)" style="fill:#ffa07a"><circle r="2" cy="18" cx="12"/><circle cx="17" cy="18" r="2"/><circle r="2" cy="18" cx="22"/><circle cx="27" cy="18" r="2"/><g transform="translate(0 5)"><circle cx="12" cy="18" r="2"/><circle r="2" cy="18" cx="17"/><circle cx="22" cy="18" r="2"/><circle r="2" cy="18" cx="27"/></g><circle cx="27" cy="18" r="2" transform="translate(5 5)"/><circle r="2" cy="18" cx="27" transform="translate(-20 5)"/><circle cx="27" cy="18" r="2" transform="translate(-20 10)"/><circle r="2" cy="18" cx="27" transform="translate(-15 10)"/><circle cx="27" cy="18" r="2" transform="translate(5 10)"/><circle r="2" cy="18" cx="27" transform="translate(0 10)"/></g><g transform="matrix(5.83881 0 0 6.44623 10.935 737.4)" style="fill:#ff4500"><circle cx="12" cy="18" r="2"/><circle r="2" cy="18" cx="17"/><circle cx="22" cy="18" r="2"/><circle r="2" cy="18" cx="27"/><g transform="translate(0 5)"><circle r="2" cy="18" cx="12"/><circle cx="17" cy="18" r="2"/><circle r="2" cy="18" cx="22"/><circle cx="27" cy="18" r="2"/></g><circle transform="translate(5 5)" r="2" cy="18" cx="27"/><circle transform="translate(-20 5)" cx="27" cy="18" r="2"/><circle transform="translate(-20 10)" r="2" cy="18" cx="27"/><circle transform="translate(-15 10)" cx="27" cy="18" r="2"/><circle transform="translate(5 10)" r="2" cy="18" cx="27"/><circle transform="translate(0 10)" cx="27" cy="18" r="2"/></g></g></svg>