<svg xmlns="http://www.w3.org/2000/svg" viewBox="0 0 256 256"><defs><clipPath><rect width="46" height="46" x="1" y="1" rx="4" style="fill:#1890d0"/></clipPath></defs><g transform="translate(0 -796.36)"><path d="m 44.834 837.2 c -201.82 261.87 353.59 299.06 175.35 31.762 -40.634 -60.94 -121.89 -101.12 -175.35 -31.762 z" style="fill:#fff;color:#000"/><g transform="matrix(1.20192 0 0 1.13913 -27.341 754.47)" style="fill:#ff4500"><path d="m 115.36,203.06 v -20.07 h 17.898 17.898 v 20.07 20.07 H 133.258 115.36 v -20.07 z"/><path d="m 115.36,160.76 v -20.07 h 17.898 17.898 v 20.07 20.07 H 133.258 115.36 v -20.07 z"/><path d="m 153.33,160.76 v -20.07 h 17.898 17.898 v 20.07 20.07 H 171.228 153.33 v -20.07 z"/><path d="m 76.31,160.76 v -20.07 h 18.441 18.441 v 20.07 20.07 H 94.751 76.31 v -20.07 z"/><path d="M 76.31,118.45 V 98.38 h 18.441 18.441 v 20.07 20.07 H 94.751 76.31 v -20.07 z"/></g></g></svg>