<svg xmlns="http://www.w3.org/2000/svg" viewBox="0 0 256 256"><defs><clipPath><rect y="6" x="6" rx="6" height="84" width="84" style="fill:#ff4500"/></clipPath><linearGradient y2="41.619" x2="0" y1="5.854" gradientUnits="userSpaceOnUse" id="0"><stop style="stop-color:#ed5114"/><stop offset="1" style="stop-color:#c21313"/></linearGradient></defs><path d="m 252.46 98.7 c -49.33 -237.88 -388.7 17.492 -184.83 138.4 79.19 51.828 210.21 -16.06 184.83 -138.4 z" style="fill:#fff;color:#000"/><g transform="matrix(3.16416 0 0 3.08687 55.971 58.764)"><path d="M 6.8571428,4 4,4 24,24 44,4 41.142858,4 z" style="fill:#ffc0cb"/><path d="m 4 4 v 2.857 v 34.29 v 2.857 l 20 -20 z" style="fill:url(#0)"/><path d="m 44 4 l -20 20 l 20 20 v -2.857 v -34.29 z" style="fill:#ff4500"/><path d="m 24 24 l -20 20 h 2.857 h 34.29 h 2.857 z" style="fill:#ffa07a"/><g style="fill:#ffdead;stroke:#ff4500;fill-rule:evenodd"><path transform="translate(-0.5 -0.5)" d="m 17 24.5 c 0 3.038 -2.462 5.5 -5.5 5.5 -3.038 0 -5.5 -2.462 -5.5 -5.5 0 -3.038 2.462 -5.5 5.5 -5.5 c 3.038 0 5.5 2.462 5.5 5.5 z" style="opacity:0.87;stroke:#ffdead"/><rect y="7.5" x="17.5" height="9" width="12" rx="3" style="opacity:0.52"/><path transform="translate(-2.14 -1.985)" d="m 31.64 41.528 l -6.508 0.229 l -6.508 0.229 l 3.055 -5.75 l 3.055 -5.75 l 3.452 5.521 z" style="opacity:0.52"/></g><path d="m 35.628 24.449 c 0 0.331 -0.385 0.164 -0.474 0 -0.242 -0.442 0.107 -0.965 0.474 -1.099 0.656 -0.243 1.289 0.374 1.422 1.099 0.195 1.066 -0.537 2.036 -1.422 2.2 -1.179 0.218 -2.224 -0.874 -2.37 -2.2 -0.183 -1.668 0.969 -3.127 2.37 -3.3 1.696 -0.209 3.167 1.375 3.318 3.3 0.177 2.269 -1.4 4.222 -3.318 4.399 -2.214 0.205 -4.112 -1.875 -4.266 -4.399 -0.175 -2.868 1.833 -5.319 4.266 -5.5 2.73 -0.202 5.058 2.377 5.214 5.5 0.173 3.467 -2.264 6.417 -5.214 6.599" style="stroke-opacity:0.851;fill:none;stroke:#ffdead;stroke-width:1.225"/></g></svg>