<svg xmlns="http://www.w3.org/2000/svg" viewBox="0 0 256 256"><defs><clipPath><path transform="matrix(15.33333 0 0 11.5 415 -125.5)" d="m -24 13 c 0 1.105 -0.672 2 -1.5 2 -0.828 0 -1.5 -0.895 -1.5 -2 0 -1.105 0.672 -2 1.5 -2 0.828 0 1.5 0.895 1.5 2 z"/></clipPath><clipPath><rect x="6" y="6" width="84" height="84" rx="6" style="fill:#fff"/></clipPath></defs><path d="m 27.142379 202.14438 c -126.21 -188.960008 276.270001 -305.35 222.990001 -61.07 -22.706 100.95 -165.110001 162.22 -222.990001 61.07 z" style="fill:#fff;color:#000"/><g transform="matrix(0.67072339 0 0 0.59710136 -98.478805 60.85385)" style="fill:#ff4500;stroke:#ff4500;fill-rule:evenodd"><path d="m 291.90954,-39.237942 168.91231,2.579171 -3.67334,240.570151 -168.91231,-2.57917 z" transform="matrix(0.97265204 0 0 0.85582592 -23.292108 41.235346)" style="color:#000;stroke-width:1.20818627"/><path d="m 227.23596,39.338102 0,51.907146 -21.91875,-21.918754 -7.85144,7.960534 26.82591,26.825902 -27.04459,27.04458 7.96054,7.85144 22.02785,-22.02785 0,52.12582 38.93035,-38.93276 -26.38852,-26.39094 26.28039,-26.169842 z m 10.14159,24.862562 13.41296,13.631154 -13.41296,13.41295 z m 0,51.799006 13.41296,13.74002 -13.41296,13.41294 z" transform="matrix(1.2590056 0 0 1.1042235 49.510541 -1.394961)" style="fill:#fff"/></g></svg>