<svg xmlns="http://www.w3.org/2000/svg" xmlns:xlink="http://www.w3.org/1999/xlink" viewBox="0 0 256 256"><defs><path id="0" d="m 14.09 38.05 a 1.667 1.667 0 1 1 -3.334 0 1.667 1.667 0 1 1 3.334 0 z" style="fill:#72006f;stroke:#39003e;stroke-linecap:round;stroke-width:0.833"/><path id="1" d="m 12.198 17.727 a 2.961 1.547 0 1 1 -5.922 0 2.961 1.547 0 1 1 5.922 0 z"/><path id="2" d="m 39.42 33.15 a 5.834 5.834 0 1 1 -11.667 0 5.834 5.834 0 1 1 11.667 0 z"/><path id="3" d="m 31.82 28.378 a 7.248 3.712 0 1 1 -14.496 0 7.248 3.712 0 1 1 14.496 0 z" style="fill-rule:evenodd"/><path id="4" d="m 31.02 8.402 a 6.629 6.629 0 1 1 -13.258 0 6.629 6.629 0 1 1 13.258 0 z"/><path id="5" d="m 39.775 19.01 a 8.662 8.662 0 1 1 -17.324 0 8.662 8.662 0 1 1 17.324 0 z"/><path id="6" d="m 12 21.5 a 0.5 0.5 0 1 1 -1 0 0.5 0.5 0 1 1 1 0 z" style="fill-rule:evenodd"/><path id="7" d="m -219.62 -150.68 c 0 0 0 478.33 0 478.33 142.87 0.9 345.4 -107.17 345.4 -239.2 0 -132.03 -159.44 -239.13 -345.4 -239.13 z"/><path id="8" d="m -1559.25 -150.7 h 1339.63 v 478.36 h -1339.63 z"/><path id="2I" d="m -1559.25 -150.68 c 0 0 0 478.33 0 478.33 -142.87 0.9 -345.4 -107.17 -345.4 -239.2 0 -132.03 159.44 -239.13 345.4 -239.13 z"/><clipPath id="9"><rect y="29" x="28.475" rx="1.132" height="5" width="8.178" style="fill:none;stroke-miterlimit:10;stroke:#f00;fill-rule:evenodd;stroke-width:0.1"/></clipPath><filter id="E" height="1.298" y="-0.149" width="1.137" x="-0.069"><feGaussianBlur stdDeviation="0.28268"/></filter><filter id="D" height="1.109" y="-0.055" width="1.389" x="-0.194"><feGaussianBlur stdDeviation="0.36426"/></filter><filter id="F"><feGaussianBlur stdDeviation="0.51158"/></filter><filter id="A" height="1.324" y="-0.162" width="2.152" x="-0.576"><feGaussianBlur stdDeviation="1.08025"/></filter><filter id="C" height="3.276" y="-1.138" width="1.298" x="-0.149"><feGaussianBlur stdDeviation="2.0115"/></filter><filter id="B" height="2.434" y="-0.717" width="1.188" x="-0.094"><feGaussianBlur stdDeviation="1.26752"/></filter><linearGradient gradientTransform="matrix(1 0 0 0.92157 0 6.278)" gradientUnits="userSpaceOnUse" xlink:href="#1e" id="1d" y2="24.25" x2="0" y1="31.19"/><linearGradient id="1e"><stop style="stop-color:#d30000"/><stop offset="1" style="stop-color:#e00"/></linearGradient><linearGradient gradientUnits="userSpaceOnUse" id="1b" y2="38.21" x2="36.929" y1="9.857" x1="14.286"><stop style="stop-color:#f00"/><stop offset="1" style="stop-color:#f00;stop-opacity:0.514"/></linearGradient><linearGradient gradientTransform="matrix(2.77439 0 0 1.96971 -1892.18 -872.89)" gradientUnits="userSpaceOnUse" xlink:href="#M" id="1X" y2="609.51" x2="0" y1="366.65"/><linearGradient gradientUnits="userSpaceOnUse" id="1a" y2="35.29" x2="31.07" y1="4.429" x1="11.786"><stop style="stop-color:#f40000"/><stop offset="1" style="stop-color:#e20000"/></linearGradient><linearGradient gradientUnits="userSpaceOnUse" id="1i" y2="-11.03" x2="15.438" y1="20.773" x1="27.568"><stop style="stop-color:#720000"/><stop offset="1" style="stop-color:#720000;stop-opacity:0"/></linearGradient><linearGradient gradientUnits="userSpaceOnUse" xlink:href="#H" id="1k" y2="5.481" x2="15.951" y1="18.11" x1="24.03"/><linearGradient gradientUnits="userSpaceOnUse" xlink:href="#1g" id="1f" y2="24.368" x2="0" y1="67.989"/><linearGradient gradientUnits="userSpaceOnUse" id="1j" y2="2.5" x2="17.625" y1="17.471" x1="21.875"><stop style="stop-color:#200000"/><stop offset="1" style="stop-color:#720000"/></linearGradient><linearGradient gradientUnits="userSpaceOnUse" xlink:href="#H" id="1h" y2="69.14" x2="0" y1="25.373"/><linearGradient id="1g"><stop style="stop-color:#500"/><stop offset="1" style="stop-color:#800"/></linearGradient><linearGradient gradientUnits="userSpaceOnUse" id="1V" y2="26" x2="14" y1="21" x1="12"><stop style="stop-color:#2e0000"/><stop offset="1"/></linearGradient><linearGradient gradientUnits="userSpaceOnUse" id="1M" x2="39.42" x1="25.633"><stop style="stop-color:#720000"/><stop offset="0.5" style="stop-color:#e00000"/><stop offset="0.75" style="stop-color:#8f0000"/><stop offset="1" style="stop-color:#c10000"/></linearGradient><linearGradient gradientUnits="userSpaceOnUse" id="2H" y2="67.35" x2="-23.865" y1="20.506" x1="-3.875"><stop style="stop-color:#720000"/><stop offset="1" style="stop-color:#340000"/></linearGradient><linearGradient gradientUnits="userSpaceOnUse" id="1P" x2="35.813" x1="28.313"><stop style="stop-color:#2e0000"/><stop offset="0.5" style="stop-color:#6b0000"/><stop offset="1" style="stop-color:#2e0000"/></linearGradient><linearGradient gradientUnits="userSpaceOnUse" id="1C" y2="41" x2="0" y1="31.13"><stop style="stop-color:#ba0000"/><stop offset="0.721" style="stop-color:#6e0000"/><stop offset="1" style="stop-color:#c90000"/></linearGradient><linearGradient gradientTransform="matrix(0.96667 0 0 1 2.25 0)" gradientUnits="userSpaceOnUse" id="19" y2="34.464" x2="33.638" y1="7.998" x1="12.627"><stop style="stop-color:#680000"/><stop offset="1" style="stop-color:#450000"/></linearGradient><linearGradient gradientTransform="matrix(0.96429 0 0 1 2.304 0)" gradientUnits="userSpaceOnUse" id="1B" y2="46.14" x2="25.571" y1="18.357" x1="26.14"><stop style="stop-color:#f00"/><stop offset="1" style="stop-color:#f00;stop-opacity:0.311"/></linearGradient><linearGradient gradientUnits="userSpaceOnUse" id="1E" y2="35.889" x2="46.97" y1="26.01" x1="15.879"><stop style="stop-color:#ba0000"/><stop offset="1" style="stop-color:#510000"/></linearGradient><linearGradient gradientUnits="userSpaceOnUse" id="1O" y2="39.484" x2="32.671" y1="29.526" x1="32.754"><stop style="stop-color:#f00"/><stop offset="1" style="stop-color:#a50000"/></linearGradient><linearGradient gradientTransform="matrix(0.97491 0 0 0.96528 -0.564 0.434)" gradientUnits="userSpaceOnUse" id="1F" y2="36.73" x2="48.758" y1="26.5" x1="16.867"><stop style="stop-color:#e00"/><stop offset="1" style="stop-color:#510000"/></linearGradient><linearGradient gradientUnits="userSpaceOnUse" xlink:href="#H" id="1l" y2="28.82" x2="34.825" y1="6.192" x1="21.567"/><linearGradient gradientTransform="matrix(0.97804 0 0 0.98263 -39.475 1.517)" gradientUnits="userSpaceOnUse" id="1J" y2="4.689" x2="64.01" y1="17.894" x1="63.877"><stop style="stop-color:#7d0000"/><stop offset="0.137" style="stop-color:#c80000"/><stop offset="0.654" style="stop-color:#f00"/><stop offset="0.817" style="stop-color:#c00000"/><stop offset="1" style="stop-color:#f00"/></linearGradient><linearGradient id="1I"><stop style="stop-color:#f00"/><stop offset="0.321" style="stop-color:#eb0000"/><stop offset="0.5" style="stop-color:#900000"/><stop offset="1" style="stop-color:#fa0000"/></linearGradient><linearGradient gradientUnits="userSpaceOnUse" id="1K" y2="20" x2="21" y1="17.351" x1="20"><stop style="stop-color:#800"/><stop offset="1" style="stop-color:#800;stop-opacity:0"/></linearGradient><linearGradient gradientTransform="matrix(1.08 0 0 1.0039 -1.92 -10.1)" gradientUnits="userSpaceOnUse" id="1o" y2="13.749" x2="0" y1="32.1"><stop style="stop-color:#800"/><stop offset="1" style="stop-color:#d30000"/></linearGradient><linearGradient gradientUnits="userSpaceOnUse" xlink:href="#28" id="27" y2="25.75" x2="20" y1="27.5" x1="28.469"/><linearGradient gradientUnits="userSpaceOnUse" xlink:href="#K" id="1m" y2="14.933" x2="0" y1="18.997"/><linearGradient gradientUnits="userSpaceOnUse" xlink:href="#H" id="26" y2="55.676" x2="44.1" y1="12.489" x1="12.378"/><linearGradient gradientTransform="matrix(2.77439 0 0 1.96971 -1892.18 -872.89)" gradientUnits="userSpaceOnUse" xlink:href="#M" id="20" y2="609.51" x2="0" y1="366.65"/><linearGradient gradientUnits="userSpaceOnUse" id="23" y2="48.999" x2="36.18" y1="36.537" x1="7.605"><stop style="stop-color:#b00"/><stop offset="1" style="stop-color:#9f0000"/></linearGradient><linearGradient id="28"><stop style="stop-color:#a00"/><stop offset="1" style="stop-color:#cd0000"/></linearGradient><linearGradient gradientUnits="userSpaceOnUse" xlink:href="#H" id="2F" y2="29.562" x2="26.29" y1="2.437" x1="21.06"/><linearGradient gradientUnits="userSpaceOnUse" xlink:href="#H" id="29" y2="28.359" x2="0" y1="31.712"/><linearGradient gradientUnits="userSpaceOnUse" xlink:href="#2C" id="2E" y2="-6.461" x2="17.766" y1="11.51" x1="24.395"/><linearGradient id="2C"><stop style="stop-color:#f00"/><stop offset="1" style="stop-color:#830000"/></linearGradient><linearGradient gradientUnits="userSpaceOnUse" xlink:href="#28" id="2A" x2="23.06" x1="26.313"/><linearGradient gradientUnits="userSpaceOnUse" xlink:href="#2C" id="2D" y2="13.1" x2="26.03" y1="3.493" x1="23.599"/><linearGradient gradientTransform="matrix(1 0 0 0.66667 0 7.667)" gradientUnits="userSpaceOnUse" xlink:href="#K" id="1z" y2="20" x2="0" y1="24.438"/><linearGradient gradientTransform="matrix(1.14815 0 0 1 -3.556 3)" gradientUnits="userSpaceOnUse" xlink:href="#H" id="1q" y2="19.552" x2="0" y1="26.563"/><linearGradient gradientUnits="userSpaceOnUse" xlink:href="#H" id="1y" y2="33.469" x2="0" y1="33.11"/><linearGradient gradientTransform="matrix(1.14779 0 0 0.99969 -3.547 3.01)" gradientUnits="userSpaceOnUse" id="1p" y2="28" x2="0" y1="21.09"><stop style="stop-color:#e30000"/><stop offset="0.631" style="stop-color:#f00"/><stop offset="1" style="stop-color:#ba0000"/></linearGradient><linearGradient gradientTransform="matrix(1.08 0 0 1.0039 -1.92 -6.084)" gradientUnits="userSpaceOnUse" id="1n" y2="-23.807" x2="21.36" y1="33.32" x1="17.409"><stop style="stop-color:#f00"/><stop offset="1" style="stop-color:#ba0000"/></linearGradient><linearGradient gradientUnits="userSpaceOnUse" xlink:href="#M" id="18" y2="47.02" x2="0" y1="39"/><linearGradient gradientTransform="matrix(0.66667 0 0 1 15 4)" gradientUnits="userSpaceOnUse" id="1r" y2="29.08" x2="0" y1="30"><stop style="stop-color:#c40000"/><stop offset="1" style="stop-color:#fc0000"/></linearGradient><linearGradient gradientTransform="matrix(1.12903 0 0 1.33333 -3.097 -12.167)" gradientUnits="userSpaceOnUse" xlink:href="#H" id="1x" y2="43.94" x2="0" y1="38.721"/><linearGradient gradientTransform="matrix(0.88533 0 0 1.49947 5.488 -11.734)" gradientUnits="userSpaceOnUse" id="1s" y2="31.17" x2="0" y1="29.744"><stop style="stop-color:#ba0000"/><stop offset="1" style="stop-color:#f00"/></linearGradient><linearGradient gradientTransform="matrix(1.12903 0 0 1.33333 -3.097 -12.167)" gradientUnits="userSpaceOnUse" id="1w" y2="34.705" x2="10.602" y1="43.813" x1="10.824"><stop style="stop-color:#500"/><stop offset="1" style="stop-color:#ba0000"/></linearGradient><linearGradient gradientTransform="matrix(1.12903 0 0 1.33333 -3.097 -12.167)" gradientUnits="userSpaceOnUse" xlink:href="#1g" id="1u" y2="37.33" x2="0" y1="46.602"/><linearGradient gradientUnits="userSpaceOnUse" xlink:href="#1e" id="1t" y2="36.688" x2="0" y1="44.31"/><linearGradient gradientUnits="userSpaceOnUse" xlink:href="#1e" id="1v" y2="40" x2="9.858" y1="60.2" x1="40.32"/><linearGradient gradientTransform="matrix(0.97491 0 0 0.96528 -7.564 0.434)" gradientUnits="userSpaceOnUse" id="1D" y2="30.514" x2="23.755" y1="26.5" x1="16.867"><stop style="stop-color:#e00"/><stop offset="1" style="stop-color:#d10000;stop-opacity:0"/></linearGradient><linearGradient gradientUnits="userSpaceOnUse" xlink:href="#i" id="h" y2="42.06" x2="25.5" y1="40.43" x1="25.563"/><linearGradient gradientUnits="userSpaceOnUse" xlink:href="#H" id="q" y2="38.438" x2="23.989" y1="36.505" x1="23.48"/><linearGradient gradientUnits="userSpaceOnUse" xlink:href="#H" id="g" y2="92.27" x2="47.04" y1="8.375" x1="19.51"/><linearGradient gradientUnits="userSpaceOnUse" id="e" y2="22.438" x2="0" y1="8.313"><stop style="stop-color:#f00"/><stop offset="1" style="stop-color:#d30000;stop-opacity:0"/></linearGradient><linearGradient gradientUnits="userSpaceOnUse" id="f" y2="9.688" x2="0" y1="18.691"><stop style="stop-color:#f00"/><stop offset="1" style="stop-color:#e00"/></linearGradient><linearGradient id="i"><stop style="stop-color:#2e0000"/><stop offset="1" style="stop-color:#800"/></linearGradient><linearGradient gradientUnits="userSpaceOnUse" xlink:href="#H" id="p" y2="35.438" x2="24" y1="33.469" x1="23.531"/><linearGradient gradientUnits="userSpaceOnUse" xlink:href="#K" id="k" y2="27.2" x2="0" y1="11.556"/><linearGradient gradientUnits="userSpaceOnUse" xlink:href="#H" id="o" y2="32.31" x2="24.06" y1="30.5" x1="23.5"/><linearGradient gradientUnits="userSpaceOnUse" id="m" y2="52.811" x2="28.09" y1="25.375" x1="24.375"><stop style="stop-color:#800"/><stop offset="1" style="stop-color:#d30000;stop-opacity:0.498"/></linearGradient><linearGradient gradientUnits="userSpaceOnUse" xlink:href="#c" id="l" y2="22.531" x2="23.75" y1="32.22" x1="27.531"/><linearGradient gradientUnits="userSpaceOnUse" xlink:href="#i" id="n" y2="44.788" x2="29.25" y1="21.11" x1="26.499"/><linearGradient gradientUnits="userSpaceOnUse" xlink:href="#H" id="d" y2="19.938" x2="26.5" y1="7.688" x1="21.813"/><linearGradient id="K"><stop/><stop offset="1" style="stop-opacity:0"/></linearGradient><linearGradient id="c"><stop style="stop-color:#f00"/><stop offset="1" style="stop-color:#800"/></linearGradient><linearGradient gradientUnits="userSpaceOnUse" xlink:href="#K" id="J" y2="26.572" x2="17.945" y1="27.783" x1="16.455"/><linearGradient id="H"><stop style="stop-color:#f00"/><stop offset="1" style="stop-color:#f00;stop-opacity:0"/></linearGradient><linearGradient gradientTransform="matrix(2.81519 0 0 2.68544 -6.967 -7.883)" gradientUnits="userSpaceOnUse" xlink:href="#H" id="G" y2="24.03" x2="19.823" y1="7.852" x1="8.229"/><linearGradient gradientUnits="userSpaceOnUse" id="I" y2="27.22" x2="0" y1="18.853"><stop style="stop-color:#f00"/><stop offset="1" style="stop-color:#c90000"/></linearGradient><linearGradient gradientTransform="matrix(2.77439 0 0 1.96971 -1892.18 -872.89)" gradientUnits="userSpaceOnUse" xlink:href="#M" id="L" y2="609.51" x2="0" y1="366.65"/><linearGradient gradientUnits="userSpaceOnUse" id="Z" y2="5.571" x2="0" y1="2.282"><stop style="stop-color:#800"/><stop offset="1" style="stop-color:#ba0000"/></linearGradient><linearGradient id="M"><stop style="stop-opacity:0"/><stop offset="0.5"/><stop offset="1" style="stop-opacity:0"/></linearGradient><linearGradient gradientTransform="matrix(2.77439 0 0 1.96971 -1892.18 -872.89)" gradientUnits="userSpaceOnUse" xlink:href="#M" id="V" y2="609.51" x2="0" y1="366.65"/><linearGradient gradientTransform="matrix(-0.99901 0.21486 0.21466 0.99997 41.634 -13.05)" gradientUnits="userSpaceOnUse" xlink:href="#K" id="R" y2="35.74" x2="21.408" y1="36.39" x1="22.687"/><linearGradient id="Q"><stop style="stop-color:#f00"/><stop offset="1" style="stop-color:#d60000"/></linearGradient><linearGradient gradientTransform="matrix(1.0048 0.18573 -0.18555 1.0058 -9.182 -11.897)" gradientUnits="userSpaceOnUse" xlink:href="#K" id="S" y2="36.22" x2="22.627" y1="35.818" x1="20.662"/><linearGradient gradientUnits="userSpaceOnUse" xlink:href="#i" id="j" y2="42.06" x2="25.5" y1="40.43" x1="25.563"/><linearGradient gradientUnits="userSpaceOnUse" xlink:href="#H" id="s" y2="26.438" x2="24" y1="24.486" x1="23.493"/><linearGradient gradientUnits="userSpaceOnUse" xlink:href="#H" id="y" y2="32.438" x2="29" y1="30.469" x1="28.5"/><linearGradient gradientUnits="userSpaceOnUse" xlink:href="#H" id="11" y2="38.44" x2="20.01" y1="36.461" x1="19.503"/><linearGradient gradientUnits="userSpaceOnUse" xlink:href="#H" id="t" y2="26.438" x2="28.977" y1="24.508" x1="28.479"/><linearGradient gradientUnits="userSpaceOnUse" xlink:href="#H" id="v" y2="29.438" x2="24" y1="27.486" x1="23.493"/><linearGradient gradientUnits="userSpaceOnUse" xlink:href="#H" id="w" y2="29.438" x2="28.977" y1="27.508" x1="28.479"/><linearGradient gradientUnits="userSpaceOnUse" xlink:href="#H" id="z" y2="35.438" x2="29" y1="33.469" x1="28.531"/><linearGradient gradientUnits="userSpaceOnUse" xlink:href="#H" id="x" y2="32.501" x2="19" y1="30.5" x1="18.5"/><linearGradient gradientUnits="userSpaceOnUse" xlink:href="#H" id="10" y2="35.497" x2="19.06" y1="33.563" x1="18.5"/><linearGradient gradientUnits="userSpaceOnUse" xlink:href="#H" id="u" y2="29.438" x2="18.947" y1="27.541" x1="18.491"/><linearGradient gradientUnits="userSpaceOnUse" xlink:href="#i" id="14" y2="9.06" x2="24.5" y1="7.434" x1="24.563"/><linearGradient gradientUnits="userSpaceOnUse" xlink:href="#i" id="15" y2="9.06" x2="26.5" y1="7.434" x1="26.563"/><linearGradient gradientUnits="userSpaceOnUse" xlink:href="#i" id="13" y2="9.06" x2="24.5" y1="7.434" x1="24.563"/><linearGradient gradientUnits="userSpaceOnUse" xlink:href="#H" id="12" y2="38.438" x2="28.983" y1="36.461" x1="28.496"/><linearGradient gradientUnits="userSpaceOnUse" xlink:href="#H" id="r" y2="26.438" x2="18.947" y1="24.541" x1="18.491"/><radialGradient gradientTransform="matrix(-2.77439 0 0 1.96971 112.76 -872.89)" gradientUnits="userSpaceOnUse" xlink:href="#K" id="22" r="117.14" cy="486.65" cx="605.71"/><radialGradient gradientTransform="matrix(2.77439 0 0 1.96971 -1891.63 -872.89)" gradientUnits="userSpaceOnUse" xlink:href="#K" id="21" r="117.14" cy="486.65" cx="605.71"/><radialGradient gradientTransform="matrix(1 0 0 0.33819 0 11.54)" gradientUnits="userSpaceOnUse" xlink:href="#K" id="2G" r="10.719" cy="17.438" cx="10.844"/><radialGradient gradientTransform="matrix(1.04618 0 0 1.01781 -9.08 -6.268)" gradientUnits="userSpaceOnUse" xlink:href="#Q" id="P" r="17.986" cy="26.814" cx="24.754"/><radialGradient gradientTransform="matrix(1 0 0 0.62428 0 12.289)" gradientUnits="userSpaceOnUse" xlink:href="#K" id="25" r="3.823" cy="32.709" cx="10.364"/><radialGradient gradientUnits="userSpaceOnUse" xlink:href="#2C" id="2B" r="15.814" cy="5.687" cx="23.294"/><radialGradient gradientTransform="matrix(1.28624 0.7817 -0.71078 1.16955 -2.354 3.179)" gradientUnits="userSpaceOnUse" id="24" r="20.936" cy="2.959" cx="15.571"><stop style="stop-color:#e40000"/><stop offset="1" style="stop-color:#f00"/></radialGradient><radialGradient gradientTransform="matrix(2.77439 0 0 1.96971 -1891.63 -872.89)" gradientUnits="userSpaceOnUse" xlink:href="#K" id="N" r="117.14" cy="486.65" cx="605.71"/><radialGradient gradientUnits="userSpaceOnUse" xlink:href="#K" id="17" r="4" cy="43" cx="41"/><radialGradient gradientTransform="matrix(1.98048 0.00068 0 0.99817 -20.09 1.111)" gradientUnits="userSpaceOnUse" id="1A" r="12.5" cy="26" cx="22.26"><stop style="stop-color:#9f0000"/><stop offset="1" style="stop-color:#890000"/></radialGradient><radialGradient gradientTransform="matrix(-2.77439 0 0 1.96971 112.76 -872.89)" gradientUnits="userSpaceOnUse" xlink:href="#K" id="O" r="117.14" cy="486.65" cx="605.71"/><radialGradient gradientTransform="matrix(2.77439 0 0 1.96971 -1891.63 -872.89)" gradientUnits="userSpaceOnUse" xlink:href="#K" id="W" r="117.14" cy="486.65" cx="605.71"/><radialGradient gradientUnits="userSpaceOnUse" xlink:href="#K" id="T" r="8.662" cy="19.01" cx="31.11"/><radialGradient gradientTransform="matrix(2.13274 0 0 1.11412 -10.463 -1.275)" gradientUnits="userSpaceOnUse" xlink:href="#1I" id="1S" fy="16.976" fx="9.196" r="2.961" cy="15.667" cx="9.237"/><radialGradient gradientTransform="matrix(0.95971 0 0 1.42857 -20.699 -34.36)" gradientUnits="userSpaceOnUse" id="1Q" r="3.5" cy="34.23" cx="33.717"><stop style="stop-color:#710000"/><stop offset="1"/></radialGradient><radialGradient gradientTransform="matrix(1.95596 0 0 1.02177 -8.83 0.246)" gradientUnits="userSpaceOnUse" xlink:href="#1I" id="1R" r="2.961" cy="16.462" cx="9.237"/><radialGradient gradientTransform="matrix(1 0 0 0.1944 0 31.23)" gradientUnits="userSpaceOnUse" xlink:href="#K" id="1c" r="25.23" cy="38.763" cx="25.323"/><radialGradient gradientUnits="userSpaceOnUse" id="1T" r="2.563" cy="31" cx="32.31"><stop style="stop-color:#200000;stop-opacity:0"/><stop offset="0.5" style="stop-color:#200000;stop-opacity:0"/><stop offset="1" style="stop-color:#200000"/></radialGradient><radialGradient gradientTransform="matrix(2.77439 0 0 1.96971 -1891.63 -872.89)" gradientUnits="userSpaceOnUse" xlink:href="#K" id="1Y" r="117.14" cy="486.65" cx="605.71"/><radialGradient gradientUnits="userSpaceOnUse" id="1U" r="2.043" cy="28.2" cx="32.546"><stop style="stop-color:#ed0000"/><stop offset="1" style="stop-color:#ed0000;stop-opacity:0"/></radialGradient><radialGradient gradientTransform="matrix(-2.77439 0 0 1.96971 112.76 -872.89)" gradientUnits="userSpaceOnUse" xlink:href="#K" id="1Z" r="117.14" cy="486.65" cx="605.71"/><radialGradient gradientUnits="userSpaceOnUse" xlink:href="#K" id="16" r="4" cy="-43" cx="-7"/><radialGradient gradientUnits="userSpaceOnUse" id="1N" r="5.96" cy="29.526" cx="32.754"><stop style="stop-color:#f00"/><stop offset="1" style="stop-color:#c00"/></radialGradient><radialGradient gradientTransform="matrix(1.95596 0 0 1.02177 -8.83 0.246)" gradientUnits="userSpaceOnUse" xlink:href="#1I" id="1W" r="2.961" cy="16.462" cx="9.237"/><radialGradient gradientTransform="matrix(0.55849 0 0 0.56339 14.871 4.364)" gradientUnits="userSpaceOnUse" xlink:href="#Q" id="U" r="17.986" cy="17.728" cx="29.922"/><radialGradient gradientTransform="matrix(3.27774 0 0 11.64975 -49.926 -314.3)" gradientUnits="userSpaceOnUse" xlink:href="#K" id="1G" r="2.563" cy="29.342" cx="21.23"/><radialGradient gradientUnits="userSpaceOnUse" xlink:href="#K" id="X" r="8.662" cy="19.01" cx="31.11"/><radialGradient gradientUnits="userSpaceOnUse" xlink:href="#H" id="1L" r="5.834" cy="30.702" cx="38.4"/><radialGradient gradientTransform="matrix(0.55849 0 0 0.56339 14.871 4.364)" gradientUnits="userSpaceOnUse" xlink:href="#Q" id="Y" r="17.986" cy="17.728" cx="29.922"/><radialGradient gradientTransform="matrix(1.32813 0 0 7.006 -61.16 -173.01)" gradientUnits="userSpaceOnUse" xlink:href="#c" id="b" r="10.5" cy="29.798" cx="64.5"/><radialGradient gradientTransform="matrix(2.13274 0 0 1.11412 -10.463 -1.275)" gradientUnits="userSpaceOnUse" xlink:href="#1I" id="1H" fy="16.976" fx="9.196" r="2.961" cy="15.667" cx="9.237"/><radialGradient gradientTransform="matrix(1 0 0 0.81347 0 7.1)" gradientUnits="userSpaceOnUse" xlink:href="#K" id="a" r="12.06" cy="38.06" cx="27.938"/></defs><path d="m -1374.42 1658.71 c 127.95 -192.46 -280.09 -311 -226.07 -62.2 23.02 102.82 167.39 165.22 226.07 62.2 z" transform="matrix(0 1 -1 0 1711.48 1605.44)" style="fill:#fff;color:#000"/><g transform="matrix(2.45467 0 0 2.39401 52.988 49.884)"><g transform="matrix(0.99083 0 0 0.99083 5.916 14.217)" style="fill:#ff4500"><g style="stroke:#ff4500;fill-rule:evenodd"><rect y="0.515" x="7.515" rx="16.485" height="44.969" width="32.969" style="stroke-width:1.031"/><rect y="1" x="8" ry="16.13" rx="16" height="44" width="32"/></g><g><rect y="1.516" x="8.516" rx="15.484" height="42.967" width="30.967" style="opacity:0.398;stroke:url(#G);stroke-width:1.033"/><g style="stroke:#ffdead;stroke-width:3"><path d="m 14.639 32.08 l 17.861 -15.785 l -8.92 -8.792 l -0.027 29 l 8.94 -8.724 l -17.994 -13.17" style="filter:url(#F)"/><path d="m 14.639 33.08 l 17.861 -15.785 l -8.92 -8.792 l -0.027 29 l 8.94 -8.724 l -17.994 -13.17"/></g></g></g><g transform="matrix(1.11706 0 0 1.11706 32.12 9.953)"><g transform="matrix(0.58662 0 0 0.58662 1.289 22.994)" style="opacity:0.789"><path d="m 10.183 24.85 h 5.678 l -3.312 -3.076 l -0.71 0.946 l -0.71 -0.71 l -0.946 2.839 z" id="2J" style="fill:url(#I);fill-rule:evenodd"/><path d="m 16.701 32.491 c 1.648 -0.778 2.415 -2.68 2.415 -2.68 -1.284 -5.411 -5.321 -9.158 -5.321 -9.158 0 0 3.298 8.489 2.907 11.838 z" id="2K" style="fill:url(#J);opacity:0.228;fill-rule:evenodd"/><g transform="matrix(0.01443 0 0 0.01697 30 30.06)"><use xlink:href="#8" style="fill:url(#L);opacity:0.402"/><use xlink:href="#7" style="fill:url(#N);opacity:0.402"/><use id="2S" xlink:href="#2I" style="fill:url(#O);opacity:0.402"/></g><path d="m 11.666 33.5 h 10.964 c 3.106 0 6.182 -1.099 7.309 -4.23 1.071 -2.973 0.183 -8.635 -6.761 -13.217 h -12.974 c -6.944 4.23 -7.812 10.01 -6.213 13.394 1.629 3.443 4.386 4.053 7.675 4.053 z" id="2L" style="fill:url(#P);stroke:#800;fill-rule:evenodd;stroke-linecap:round;stroke-linejoin:round"/><path d="m 26.969 31.809 c 1.258 -0.594 1.844 -2.048 1.844 -2.048 -0.98 -4.135 -4.063 -6.999 -4.063 -6.999 0 0 2.518 6.487 2.219 9.05 z" id="2M" style="fill:url(#R);opacity:0.291;fill-rule:evenodd"/><path d="m 6.779 32.519 c -1.275 -0.557 -1.845 -1.901 -1.845 -1.901 c 0.86 -4.162 3.801 -7.207 3.801 -7.207 0 0 -2.329 6.558 -1.956 9.107 z" id="2N" style="fill:url(#S);opacity:0.549;fill-rule:evenodd"/><path d="m 11.614 32.5 l 10.93 -0.022 c 2.749 0 5.472 -0.975 6.469 -3.753 0.948 -2.639 -0.099 -7.663 -6.245 -11.73 l -12 -0.245 c -6.146 3.753 -7.335 8.887 -5.897 12.13 1.438 3.244 3.536 3.597 6.747 3.619 z" id="2O" style="fill:none;opacity:0.643;stroke:#f00;stroke-linecap:round;stroke-linejoin:round"/><g style="fill-rule:evenodd"><use transform="matrix(1.02181 0 0 1.02279 -15.11 -5.362)" xlink:href="#5" style="fill:url(#T)"/><use transform="matrix(0.98129 0 0 0.98129 -13.713 -7.653)" xlink:href="#5" style="fill:url(#U);stroke:#800;stroke-linecap:round;stroke-linejoin:round;stroke-width:1.019"/></g><use transform="matrix(0.86585 0 0 0.86585 -10.121 -5.459)" xlink:href="#5" style="fill:none;opacity:0.526;stroke:#f00;stroke-linecap:round;stroke-linejoin:round;stroke-width:1.155"/></g><g transform="matrix(0.58662 0 0 0.58662 7.618 26.459)"><use xlink:href="#2J"/><use xlink:href="#2K"/><g transform="matrix(0.01443 0 0 0.01697 30 30.06)"><use xlink:href="#8" style="fill:url(#V);opacity:0.402"/><use xlink:href="#7" style="fill:url(#W);opacity:0.402"/><use xlink:href="#2S"/></g><use xlink:href="#2L"/><use xlink:href="#2M"/><use xlink:href="#2N"/><use xlink:href="#2O"/><g style="fill-rule:evenodd"><use transform="matrix(1.02181 0 0 1.02279 -15.11 -5.362)" xlink:href="#5" style="fill:url(#X)"/><use transform="matrix(0.98129 0 0 0.98129 -13.713 -7.653)" xlink:href="#5" style="fill:url(#Y);stroke:#800;stroke-linecap:round;stroke-linejoin:round;stroke-width:1.019"/></g><use transform="matrix(0.86585 0 0 0.86585 -10.121 -5.459)" xlink:href="#5" style="fill:none;opacity:0.526;stroke:#f00;stroke-linecap:round;stroke-linejoin:round;stroke-width:1.155"/></g></g><g transform="matrix(0.33055 0 0 0.33055 -2.492 0.577)"><g style="fill-rule:evenodd"><rect y="0.563" x="30.5" rx="1" height="9" width="2" style="fill:url(#Z);stroke:#500;stroke-linecap:round;stroke-linejoin:round"/><path transform="matrix(1.06736 0 0 0.49682 -5.194 23.21)" d="m 40 38.06 a 12.06 9.813 0 1 1 -24.12 0 12.06 9.813 0 1 1 24.13 0 z" style="fill:url(#a);opacity:0.4"/><path d="m 19.563 5.5 c -2.809 0 -5.063 1.571 -5.063 3.531 v 24.719 c 0 5.959 2.477 10.75 5.563 10.75 h 8.875 c 3.086 0 5.563 -4.791 5.563 -10.75 v -24.719 c 0 -1.961 -2.254 -3.531 -5.063 -3.531 h -9.875 z" style="fill:url(#b);stroke:#500;stroke-linecap:round"/><path d="m 19.563 6 c -1.311 0 -2.497 0.368 -3.313 0.938 -0.816 0.569 -1.25 1.305 -1.25 2.094 v 24.719 c 0 2.91 0.606 5.525 1.563 7.375 0.957 1.85 2.216 2.875 3.5 2.875 h 8.875 c 1.284 0 2.543 -1.025 3.5 -2.875 c 0.957 -1.85 1.563 -4.465 1.563 -7.375 v -24.719 c 0 -0.789 -0.434 -1.525 -1.25 -2.094 -0.816 -0.569 -2 -0.938 -3.313 -0.938 h -9.875 z" style="fill:url(#d);opacity:0.478"/></g><g style="stroke-linecap:round"><rect transform="scale(-1 1)" y="9.5" x="-32.5" rx="3.066" height="13" width="16" style="fill:none;opacity:0.597;stroke:url(#e)"/><rect y="10.5" x="17.5" rx="2.039" height="11" width="14" style="fill:url(#f);stroke:#800;fill-rule:evenodd"/><g style="fill:none"><path d="m 19.563 6.5 c -1.219 0 -2.313 0.343 -3.03 0.844 -0.719 0.501 -1.031 1.088 -1.031 1.688 v 24.719 c 0 2.842 0.59 5.398 1.5 7.156 0.91 1.758 2.034 2.594 3.063 2.594 h 8.875 c 1.028 0 2.153 -0.835 3.063 -2.594 0.91 -1.758 1.5 -4.315 1.5 -7.156 v -24.719 c 0 -0.599 -0.313 -1.186 -1.031 -1.688 -0.719 -0.501 -1.812 -0.844 -3.03 -0.844 h -9.875 z" style="opacity:0.862;stroke:url(#g)"/><path d="m 25.5 41.559 v -1.059" style="stroke:url(#h)"/><path d="m 23.5 41.559 v -1" style="stroke:url(#j)"/></g></g><g style="fill-rule:evenodd"><g style="fill:#340000"><path d="M 25,14 H26 V15 H25 z"/><path d="M 27,13 H28 V15 H27 z"/><path d="M 29,12 H30 V15 H29 z"/><g transform="translate(-50 -1)"><path d="M 69,15 H70 V16 H69 z"/><path d="M 69,13 H70 V14 H69 z"/></g><path d="M 19,19 H22 V20 H19 z"/><path d="M 27,19 H30 V20 H27 z"/></g><path d="M 18,18 H31 V19 H18 z" style="fill:#720000;opacity:0.392"/></g><rect y="11.5" x="18.5" rx="1.01" height="9" width="12" style="fill:none;opacity:0.093;stroke:url(#k);stroke-linecap:round"/><path transform="matrix(1.65517 0 0 1.7963 -87.09 -1.105)" d="m 71.953 1.594 a 0.453 0.422 0 1 1 -0.906 0 0.453 0.422 0 1 1 0.906 0 z" style="fill:#e00;fill-rule:evenodd"/><g style="stroke-linecap:round"><path d="m 16.5 24.632 v 3.056 c 0 3.699 0.4 6.497 1.094 8.469 0.347 0.986 0.756 1.75 1.313 2.344 0.557 0.593 1.303 1 2.094 1 h 7 c 0.785 0 1.536 -0.38 2.094 -0.969 0.558 -0.589 0.965 -1.392 1.313 -2.375 c 0.695 -1.965 1.094 -4.739 1.094 -8.469 v -3.056 c -0.698 -1.628 -2.028 -1.132 -3.531 -1.132 h -8.938 c -1.854 0 -2.557 -0.439 -3.531 1.132 z" style="fill:none;stroke:url(#l)"/><g style="stroke-linejoin:round"><path d="m 18.06 24.5 c -0.312 0 -0.563 0.251 -0.563 0.563 v 0.875 c 0 0.312 0.251 0.563 0.563 0.563 h 2.875 c 0.312 0 0.563 -0.251 0.563 -0.563 v -0.875 c 0 -0.312 -0.251 -0.563 -0.563 -0.563 h -0.906 h -1.969 z m 5 0 c -0.312 0 -0.563 0.251 -0.563 0.563 v 0.875 c 0 0.312 0.251 0.563 0.563 0.563 h 2.875 c 0.312 0 0.563 -0.251 0.563 -0.563 v -0.875 c 0 -0.312 -0.251 -0.563 -0.563 -0.563 h -2.875 z m 5 0 c -0.312 0 -0.563 0.251 -0.563 0.563 v 0.875 c 0 0.312 0.251 0.563 0.563 0.563 h 2.875 c 0.312 0 0.563 -0.251 0.563 -0.563 v -0.875 c 0 -0.312 -0.251 -0.563 -0.563 -0.563 h -1.969 h -0.906 z m -10 3 c -0.29 0 -0.531 0.219 -0.563 0.5 -0.002 0.021 0 0.041 0 0.063 0.003 0.38 0.02 0.735 0.031 1.094 c 0.085 0.202 0.298 0.344 0.531 0.344 h 2.875 c 0.312 0 0.563 -0.251 0.563 -0.563 v -0.875 c 0 -0.312 -0.251 -0.563 -0.563 -0.563 h -2.875 z m 5 0 c -0.312 0 -0.563 0.251 -0.563 0.563 v 0.875 c 0 0.312 0.251 0.563 0.563 0.563 h 2.875 c 0.312 0 0.563 -0.251 0.563 -0.563 v -0.875 c 0 -0.312 -0.251 -0.563 -0.563 -0.563 h -2.875 z m 5 0 c -0.312 0 -0.563 0.251 -0.563 0.563 v 0.875 c 0 0.312 0.251 0.563 0.563 0.563 h 2.875 c 0.234 0 0.446 -0.142 0.531 -0.344 0.012 -0.361 0.028 -0.711 0.031 -1.094 0 -0.022 0 -0.041 0 -0.063 -0.032 -0.281 -0.273 -0.5 -0.563 -0.5 h -2.875 z m -10 3 c -0.18 0 -0.335 0.088 -0.438 0.219 0.044 0.602 0.087 1.187 0.156 1.719 0.082 0.047 0.179 0.063 0.281 0.063 h 2.875 c 0.312 0 0.563 -0.251 0.563 -0.563 v -0.875 c 0 -0.312 -0.251 -0.563 -0.563 -0.563 h -2.875 z m 5 0 c -0.312 0 -0.563 0.251 -0.563 0.563 v 0.875 c 0 0.312 0.251 0.563 0.563 0.563 h 2.875 c 0.312 0 0.563 -0.251 0.563 -0.563 v -0.875 c 0 -0.312 -0.251 -0.563 -0.563 -0.563 h -2.875 z m 5 0 c -0.312 0 -0.563 0.251 -0.563 0.563 v 0.875 c 0 0.312 0.251 0.563 0.563 0.563 h 2.875 c 0.102 0 0.199 -0.016 0.281 -0.063 0.068 -0.526 0.113 -1.122 0.156 -1.719 c -0.103 -0.13 -0.258 -0.219 -0.438 -0.219 h -2.875 z m -10.09 3 c 0.134 0.749 0.283 1.422 0.469 2 h 2.5 c 0.312 0 0.563 -0.251 0.563 -0.563 v -0.875 c 0 -0.312 -0.251 -0.563 -0.563 -0.563 h -2.875 c -0.033 0 -0.063 -0.005 -0.094 0 z m 5.094 0 c -0.312 0 -0.563 0.251 -0.563 0.563 v 0.875 c 0 0.312 0.251 0.563 0.563 0.563 h 2.875 c 0.312 0 0.563 -0.251 0.563 -0.563 v -0.875 c 0 -0.312 -0.251 -0.563 -0.563 -0.563 h -2.875 z m 5 0 c -0.312 0 -0.563 0.251 -0.563 0.563 v 0.875 c 0 0.312 0.251 0.563 0.563 0.563 h 2.5 c 0.184 -0.575 0.335 -1.255 0.469 -2 -0.031 -0.005 -0.061 0 -0.094 0 h -2.875 z m -9.125 3 c -0.047 0 -0.082 0.012 -0.125 0.031 c 0.598 1.311 1.357 1.969 2.188 1.969 h 0.063 c 0.234 0 0.438 -0.251 0.438 -0.563 v -0.875 c 0 -0.312 -0.204 -0.563 -0.438 -0.563 h -2.125 z m 4.125 0 c -0.312 0 -0.563 0.251 -0.563 0.563 v 0.875 c 0 0.312 0.251 0.563 0.563 0.563 h 2.875 c 0.312 0 0.563 -0.251 0.563 -0.563 v -0.875 c 0 -0.312 -0.251 -0.563 -0.563 -0.563 h -2.875 z m 4.875 0 c -0.234 0 -0.438 0.251 -0.438 0.563 v 0.875 c 0 0.312 0.204 0.563 0.438 0.563 h 0.063 c 0.835 0 1.588 -0.65 2.188 -1.969 c -0.043 -0.019 -0.078 -0.031 -0.125 -0.031 h -2.125 z" style="fill:url(#m);stroke:url(#n);fill-rule:evenodd;stroke-width:0.97"/><g style="fill:none;opacity:0.85"><path d="m 26.5 31.06 c 0 -0.312 -0.251 -0.563 -0.563 -0.563 h -2.875 c -0.312 0 -0.563 0.251 -0.563 0.563 v 0.875" style="stroke:url(#o)"/><path d="m 26.5 34.06 c 0 -0.312 -0.251 -0.563 -0.563 -0.563 h -2.875 c -0.312 0 -0.563 0.251 -0.563 0.563 v 0.875" style="stroke:url(#p)"/><path d="m 26.5 37.06 c 0 -0.312 -0.251 -0.563 -0.563 -0.563 h -2.875 c -0.312 0 -0.563 0.251 -0.563 0.563 v 0.875" style="stroke:url(#q)"/><path d="m 21.5 25.06 c 0 -0.312 -0.251 -0.563 -0.563 -0.563 h -0.906 h -1.969 c -0.312 0 -0.563 0.251 -0.563 0.563 v 0.875" style="stroke:url(#r)"/><path d="m 26.5 25.06 c 0 -0.312 -0.251 -0.563 -0.563 -0.563 h -2.875 c -0.312 0 -0.563 0.251 -0.563 0.563 v 0.875" style="stroke:url(#s)"/><path d="m 31.5 25.06 c 0 -0.312 -0.251 -0.563 -0.563 -0.563 h -1.969 h -0.906 c -0.312 0 -0.563 0.251 -0.563 0.563 v 0.875" style="stroke:url(#t)"/><path d="m 21.5 28.06 c 0 -0.312 -0.251 -0.563 -0.563 -0.563 h -0.906 h -1.969 c -0.312 0 -0.563 0.251 -0.563 0.563 v 0.875" style="stroke:url(#u)"/><path d="m 26.5 28.06 c 0 -0.312 -0.251 -0.563 -0.563 -0.563 h -2.875 c -0.312 0 -0.563 0.251 -0.563 0.563 v 0.875" style="stroke:url(#v)"/><path d="m 31.5 28.06 c 0 -0.312 -0.251 -0.563 -0.563 -0.563 h -1.969 h -0.906 c -0.312 0 -0.563 0.251 -0.563 0.563 v 0.875" style="stroke:url(#w)"/><path d="m 21.5 31.06 c 0 -0.312 -0.251 -0.563 -0.563 -0.563 h -2.875 c -0.18 0 -0.335 0.088 -0.438 0.219 0.044 0.602 0.087 1.187 0.156 1.719" style="stroke:url(#x)"/><path d="m 31.375 30.719 c -0.103 -0.13 -0.258 -0.219 -0.438 -0.219 h -2.875 c -0.312 0 -0.563 0.251 -0.563 0.563 v 0.875" style="stroke:url(#y)"/><path d="m 31.03 33.5 c -0.031 -0.005 -0.061 0 -0.094 0 h -2.875 c -0.312 0 -0.563 0.251 -0.563 0.563 v 0.875" style="stroke:url(#z)"/><path d="m 21.5 34.06 c 0 -0.312 -0.251 -0.563 -0.563 -0.563 h -2.875 c -0.033 0 -0.063 -0.005 -0.094 0 0.134 0.749 0.283 1.422 0.469 2" style="stroke:url(#10)"/><path d="m 21.5 37.06 c 0 -0.312 -0.204 -0.563 -0.438 -0.563 h -2.125 c -0.047 0 -0.082 0.012 -0.125 0.031" style="stroke:url(#11)"/><path d="m 30.19 36.531 c -0.043 -0.019 -0.078 -0.031 -0.125 -0.031 h -2.125 c -0.234 0 -0.438 0.251 -0.438 0.563 v 0.875" style="stroke:url(#12)"/></g></g><g style="fill:none"><path d="m 24.5 8.559 v -1.059" style="stroke:url(#13)"/><path d="m 22.5 8.559 v -1" style="stroke:url(#14)"/><path d="m 26.5 8.559 v -1.059" style="stroke:url(#15)"/></g></g></g><g transform="matrix(0.3018 0 0 0.3018 -1.12 28.28)"><g transform="matrix(0.80952 0 0 0.875 4.571 5.875)" style="opacity:0.2"><path transform="scale(-1 -1)" d="m -7 -47 h 4 v 8 h -4 z" id="2P" style="fill:url(#16)"/><path d="M 41,39 H45 V47 H41 z" id="2Q" style="fill:url(#17)"/><path d="M 7,39 H41 V47 H7 z" id="2R" style="fill:url(#18)"/></g><g transform="matrix(0.71429 0 0 0.625 6.857 16.625)" style="opacity:0.3"><use xlink:href="#2P"/><use xlink:href="#2Q"/><use xlink:href="#2R"/></g><g style="stroke-linecap:round"><rect y="34.5" x="11.5" rx="1.429" height="10" width="25" style="fill:#500;stroke:#2e0000"/><rect y="35.5" x="12.5" rx="0.286" height="8" width="23" style="fill:none;opacity:0.1;stroke:#f00"/><path d="m 10.881 2.5 h 26.24 c 0.765 0 1.381 0.653 1.381 1.465 v 35.02 c 0 0.812 -0.616 1.465 -1.381 1.465 0 0 -6.56 2.072 -13.12 2.072 -6.56 0 -13.12 -2.072 -13.12 -2.072 -0.765 0 -1.381 -0.653 -1.381 -1.465 v -35.02 c 0 -0.812 0.616 -1.465 1.381 -1.465 z" style="fill:url(#19);stroke:#2e0000"/></g><use transform="matrix(1.19994 0 0 1.19994 -0.409 -8.158)" xlink:href="#0"/><g style="stroke-linecap:round"><rect y="5.5" x="12.5" rx="1.429" height="28" width="23" style="fill:url(#1A);stroke:#2e0000"/><rect y="6.5" x="13.5" rx="0.5" height="26" width="21" style="fill:none;opacity:0.163;stroke:#000"/></g><g style="fill-rule:evenodd"><path d="m 11 42 c 0 0 6.431 2 12.931 2 c 6.5 0 13.07 -2 13.07 -2 v -1 c 0 0 -6.431 2 -12.931 2 c -6.5 0 -13.07 -2 -13.07 -2 v 1 z" style="opacity:0.2"/><path d="m 14 24.08 c 0 0 0.905 -5.783 10.476 -6 c 9.57 -0.217 9.524 -11.08 9.524 -11.08 h -20 v 17.08 z" style="fill:#f00;opacity:0.1"/></g><path d="m 11.258 3.5 h 25.485 c 0.42 0 0.758 0.35 0.758 0.786 v 35.09 c 0 0 -6.278 2.075 -13.03 2.066 -6.75 -0.009 -13.972 -2.101 -13.972 -2.101 v -35.05 c 0 -0.435 0.338 -0.786 0.758 -0.786 z" style="fill:none;opacity:0.3;stroke:url(#1B);stroke-linecap:round"/><use transform="matrix(1.19994 0 0 1.19994 5.591 -8.158)" xlink:href="#0"/><use transform="matrix(1.19994 0 0 1.19994 12.591 -8.158)" xlink:href="#0"/><use transform="matrix(1.19994 0 0 1.19994 18.591 -8.158)" xlink:href="#0"/></g><g transform="matrix(0.35495 0 0 0.35495 11.711 -0.427)"><g style="fill-rule:evenodd"><rect transform="matrix(1.2623 0 0 0.84153 -2.257 6.876)" y="37.924" x="4.773" ry="2.121" rx="1.681" height="4.243" width="32.35" style="opacity:0.181;filter:url(#C)"/><rect transform="matrix(0.93443 0 0 0.5 4.434 20.376)" y="37.924" x="4.773" ry="2.121" rx="2.27" height="4.243" width="32.35" style="opacity:0.44;filter:url(#B)"/><path d="m 10 12.5 h 26 c 0.831 0 1.5 0.669 1.5 1.5 v 25 c 0 0.831 -0.669 1.5 -1.5 1.5 h -24 c -3.32 -1.503 -3.309 -5.095 -3.5 -8.94 v -17.56 c 0 -0.831 0.669 -1.5 1.5 -1.5 z" style="fill:url(#1C);stroke-miterlimit:10;stroke:#500"/></g><g style="stroke-miterlimit:10"><path d="m 10.867 12.5 h 17.603 c 0.831 0 1.5 0.669 1.5 1.5 v 24.03 c 0 0.831 -0.669 1.5 -1.5 1.5 h -15.603 c -2.668 -1.265 -3.5 -1.675 -3.5 -7.968 v -17.56 c 0 -0.831 0.669 -1.5 1.5 -1.5 z" style="fill:none;stroke:url(#1D)"/><path d="m 17.867 12.5 h 17.603 c 0.831 0 1.5 0.669 1.5 1.5 v 24.03 c 0 0.831 -0.669 1.5 -1.5 1.5 h -15.603 c -2.668 -1.265 -3.5 -1.675 -3.5 -7.968 v -17.56 c 0 -0.831 0.669 -1.5 1.5 -1.5 z" style="fill:url(#1E);stroke:url(#1F);fill-rule:evenodd"/></g><g style="fill:url(#1G)"><rect transform="matrix(1.05556 0 0 0.71021 -1.528 6.069)" y="21.375" x="18.5" ry="3.608" rx="2.25" height="15.994" width="4.5" style="opacity:0.331;filter:url(#D)"/><rect transform="matrix(1.83333 0 0 0.93748 -15.417 1.336)" y="21.375" x="18.5" ry="2.733" rx="1.398" height="15.994" width="4.5" style="opacity:0.404;filter:url(#A)"/></g><g style="fill-rule:evenodd"><g style="stroke-miterlimit:10"><g style="fill:url(#1H);stroke:#800;stroke-width:3.01"><use transform="matrix(0.72369 0 0 0.61186 19.17 -3.793)" xlink:href="#1"/><use transform="matrix(0.72369 0 0 0.61186 24.07 -3.847)" xlink:href="#1"/></g><rect y="6.625" x="4.5" rx="6.375" height="12.875" width="33" style="fill:url(#1J);stroke:url(#1K)"/></g><use transform="matrix(1.1171 0 0 1.04655 -25.16 -21.714)" xlink:href="#2" style="fill:url(#1L)"/><use transform="matrix(1.13247 0 0 1.04655 -26.643 -21.714)" xlink:href="#2" style="fill:url(#1M)"/><use transform="matrix(1.01514 0 0 0.96863 -23.1 -18.923)" xlink:href="#2" style="fill:url(#1N);stroke-miterlimit:10;stroke:url(#1O);stroke-width:0.303"/><path transform="matrix(1.2703 0 0 1.27008 -30.24 -29.19)" d="m 35.813 33.375 a 3.75 3.75 0 1 1 -7.5 0 3.75 3.75 0 1 1 7.5 0 z" style="fill:url(#1P)"/><rect y="11.251" x="6.402" ry="1.236" rx="0.949" height="5.124" width="8.178" style="fill:#f00;opacity:0.471"/><rect y="11" x="6.402" rx="1.132" height="5" width="8.178" style="fill:url(#1Q)"/><use transform="matrix(0.54287 0 -0.14432 0.96975 19.17 -1.659)" xlink:href="#1" style="fill:url(#1R)"/><g style="fill:url(#1S)"><use transform="matrix(0.72369 0 0 0.61186 19.17 -3.793)" xlink:href="#1"/><use transform="matrix(0.72369 0 0 0.61186 24.03 -3.847)" xlink:href="#1"/></g></g><g transform="matrix(1.0086 0 0 1.0038 -21.258 -18.06)" style="clip-path:url(#9)"><path transform="translate(0.375 -0.125)" d="M 35 31 A 2.688 2.688 0 1 1 29.625 31 2.688 2.688 0 1 1 35 31 z" style="fill:url(#1T);fill-rule:evenodd"/><path transform="matrix(0.67647 0 0 0.67647 9.983 13.224)" d="m 35.688 26 a 2.125 2.125 0 1 1 -4.25 0 2.125 2.125 0 1 1 4.25 0 z" style="fill:none;stroke-miterlimit:10;stroke:url(#1U);stroke-width:1.469"/><path transform="matrix(0.66762 0 0 0.66751 10.636 7.577)" d="m 32.19 33.06 a 0.875 0.875 0 1 1 -1.75 0 0.875 0.875 0 1 1 1.75 0 z" style="fill:#f00;fill-rule:evenodd"/></g><g transform="matrix(1 0 -0.00016 1 0 0)"><rect y="22.5" x="19.505" ry="0.285" rx="0.286" height="7" width="5.408" style="fill:#e00000;stroke:#6c0000"/><rect y="18.5" x="22.671" ry="1.281" rx="1.286" height="15" width="21.832" style="fill:#500;stroke:#2e0000"/></g><path d="m 30 29.03 h 0.831 c 0.181 0 0.316 0.043 0.406 0.129 0.09 0.086 0.136 0.209 0.136 0.367 0 0.163 -0.049 0.291 -0.148 0.383 -0.098 0.092 -0.247 0.138 -0.449 0.138 h -0.274 v 0.6 h -0.502 v -1.617 m 0.502 0.69 h 0.122 c 0.096 0 0.164 -0.017 0.203 -0.05 0.039 -0.034 0.058 -0.077 0.058 -0.129 0 -0.051 -0.017 -0.094 -0.051 -0.129 -0.034 -0.035 -0.097 -0.053 -0.191 -0.053 h -0.142 v 0.361 m 1.07 0.12 c 0 -0.264 0.074 -0.47 0.221 -0.617 0.147 -0.147 0.352 -0.221 0.615 -0.221 0.269 0 0.477 0.072 0.622 0.217 0.146 0.144 0.218 0.346 0.218 0.607 0 0.189 -0.032 0.344 -0.096 0.466 -0.063 0.121 -0.155 0.215 -0.276 0.282 -0.12 0.067 -0.27 0.1 -0.449 0.1 -0.182 0 -0.334 -0.029 -0.453 -0.087 -0.119 -0.058 -0.216 -0.15 -0.29 -0.276 -0.074 -0.126 -0.111 -0.283 -0.111 -0.472 m 0.5 0.002 c 0 0.163 0.03 0.281 0.09 0.352 0.061 0.071 0.144 0.107 0.248 0.107 0.107 0 0.19 -0.035 0.249 -0.105 0.059 -0.07 0.088 -0.195 0.088 -0.376 0 -0.152 -0.031 -0.263 -0.093 -0.333 -0.061 -0.071 -0.144 -0.106 -0.249 -0.106 -0.101 0 -0.182 0.036 -0.243 0.107 -0.061 0.071 -0.092 0.189 -0.092 0.354 m 1.451 -0.812 h 0.467 l 0.609 0.895 v -0.895 h 0.471 v 1.617 h -0.471 l -0.606 -0.888 v 0.888 h -0.47 v -1.617 m 1.718 0 h 0.555 l 0.327 0.546 l 0.327 -0.546 h 0.552 l -0.629 0.94 v 0.677 h -0.501 v -0.677 l -0.63 -0.94" style="fill:#f00;fill-rule:evenodd"/><g transform="translate(-1)" style="fill:url(#1V)"><use xlink:href="#6"/><use transform="translate(2)" xlink:href="#6"/><use transform="translate(4)" xlink:href="#6"/><use transform="translate(2 2)" xlink:href="#6"/><use transform="translate(0 2)" xlink:href="#6"/><use transform="translate(4 2)" xlink:href="#6"/><use transform="translate(4 4)" xlink:href="#6"/><use transform="translate(2 4)" xlink:href="#6"/><use transform="translate(0 4)" xlink:href="#6"/><use transform="translate(0.938 3)" xlink:href="#6"/><use transform="translate(2.938 3)" xlink:href="#6"/><use transform="translate(2.938 1)" xlink:href="#6"/><use transform="translate(0.938 1)" xlink:href="#6"/></g><g style="fill-rule:evenodd"><g style="fill:url(#1W)"><use transform="matrix(0.36192 0 -0.09621 0.6465 28.28 3.54)" xlink:href="#1"/><use transform="matrix(0.36192 0 -0.09621 0.6465 32.28 3.54)" xlink:href="#1"/><use transform="matrix(0.36192 0 -0.09621 0.6465 24.445 3.54)" xlink:href="#1"/></g><path d="m 8.875 19.625 c 0 0 7.375 0.125 7.375 0.125 2.469 -1.063 1.875 -4.063 1.875 -4.063 -1.095 2.863 -4.233 4.102 -9.25 3.938 z" style="fill:#000;opacity:0.289;filter:url(#E)"/><path transform="matrix(1.20604 0 0 1.20604 -4.721 -1.399)" d="m 19.881 9.465 h 0.831 c 0.181 0 0.326 0.043 0.435 0.129 0.11 0.086 0.182 0.209 0.218 0.367 0.037 0.163 0.016 0.291 -0.062 0.383 -0.077 0.092 -0.217 0.138 -0.418 0.138 h -0.274 l 0.135 0.6 h -0.502 l -0.363 -1.617 m 0.657 0.69 h 0.122 c 0.096 0 0.16 -0.017 0.192 -0.05 0.031 -0.034 0.041 -0.077 0.03 -0.129 c -0.011 -0.051 -0.038 -0.094 -0.08 -0.129 -0.042 -0.035 -0.109 -0.053 -0.203 -0.053 h -0.142 l 0.081 0.361 m 1.097 0.12 c -0.059 -0.264 -0.032 -0.47 0.082 -0.617 0.114 -0.147 0.302 -0.221 0.565 -0.221 0.269 0 0.493 0.072 0.671 0.217 0.178 0.144 0.296 0.346 0.354 0.607 0.042 0.189 0.045 0.344 0.008 0.466 -0.036 0.121 -0.107 0.215 -0.212 0.282 -0.105 0.067 -0.247 0.1 -0.427 0.1 -0.182 0 -0.34 -0.029 -0.473 -0.087 -0.132 -0.058 -0.25 -0.15 -0.352 -0.276 -0.102 -0.126 -0.175 -0.283 -0.217 -0.472 m 0.5 0.002 c 0.037 0.163 0.093 0.281 0.169 0.352 0.077 0.071 0.168 0.107 0.272 0.107 0.107 0 0.183 -0.035 0.226 -0.105 0.043 -0.07 0.044 -0.195 0.004 -0.376 -0.034 -0.152 -0.09 -0.263 -0.167 -0.333 -0.077 -0.071 -0.168 -0.106 -0.273 -0.106 -0.101 0 -0.174 0.036 -0.219 0.107 -0.045 0.071 -0.049 0.189 -0.012 0.354 m 1.269 -0.812 h 0.467 l 0.81 0.895 l -0.201 -0.895 h 0.471 l 0.363 1.617 h -0.471 l -0.805 -0.888 l 0.199 0.888 h -0.47 l -0.363 -1.617 m 1.718 0 h 0.555 l 0.449 0.546 l 0.204 -0.546 h 0.552 l -0.418 0.94 l 0.152 0.677 h -0.501 l -0.152 -0.677 l -0.841 -0.94" style="fill:#2e0000"/><path d="m 19.558 10.02 h 1 c 0.218 0 0.393 0.052 0.525 0.156 0.132 0.104 0.22 0.251 0.263 0.443 0.044 0.197 0.019 0.351 -0.075 0.462 -0.093 0.111 -0.261 0.166 -0.504 0.166 h -0.33 l 0.162 0.724 h -0.605 l -0.437 -1.951 m 0.792 0.832 h 0.148 c 0.116 0 0.193 -0.02 0.231 -0.06 0.038 -0.041 0.05 -0.093 0.036 -0.156 -0.014 -0.061 -0.046 -0.113 -0.096 -0.156 -0.05 -0.043 -0.132 -0.064 -0.245 -0.064 h -0.172 l 0.098 0.435 m 1.323 0.145 c -0.071 -0.318 -0.038 -0.566 0.099 -0.744 0.138 -0.177 0.365 -0.266 0.681 -0.266 0.325 0 0.594 0.087 0.809 0.262 0.215 0.174 0.357 0.418 0.428 0.732 0.051 0.228 0.054 0.415 0.01 0.561 -0.044 0.145 -0.129 0.259 -0.256 0.341 -0.126 0.081 -0.298 0.121 -0.514 0.121 -0.22 0 -0.41 -0.035 -0.57 -0.105 -0.159 -0.07 -0.301 -0.181 -0.425 -0.333 -0.124 -0.152 -0.211 -0.342 -0.262 -0.569 m 0.603 0.003 c 0.044 0.197 0.112 0.338 0.204 0.424 0.093 0.086 0.202 0.129 0.328 0.129 0.13 0 0.22 -0.042 0.272 -0.126 0.052 -0.084 0.054 -0.236 0.005 -0.454 -0.041 -0.184 -0.108 -0.318 -0.202 -0.402 -0.093 -0.085 -0.202 -0.128 -0.329 -0.128 -0.122 0 -0.209 0.043 -0.264 0.129 -0.054 0.086 -0.059 0.228 -0.015 0.427 m 1.53 -0.979 h 0.563 l 0.976 1.079 l -0.242 -1.079 h 0.568 l 0.437 1.951 h -0.568 l -0.971 -1.071 l 0.24 1.071 h -0.567 l -0.437 -1.951 m 2.072 0 h 0.669 l 0.542 0.659 l 0.246 -0.659 h 0.665 l -0.504 1.134 l 0.183 0.817 h -0.604 l -0.183 -0.817 l -1.014 -1.134" style="fill:#f00"/></g></g><g transform="matrix(0.33657 0 0 0.33657 47.88 22.637)"><g transform="matrix(0.01773 0 0 0.01463 39.77 41.21)"><path d="m -1559.25 -150.7 h 1339.63 v 478.36 h -1339.63 z" style="fill:url(#1X);opacity:0.402"/><use xlink:href="#7" style="fill:url(#1Y);opacity:0.402"/><use xlink:href="#2I" style="fill:url(#1Z);opacity:0.402"/></g><g style="stroke-linecap:round;stroke-linejoin:round"><rect y="2.5" x="9.5" rx="2.121" height="41" width="29" style="fill:url(#1a);stroke:#800"/><path d="m 12.5 5.5 h 23 v 15 h -23 z" style="fill:#980000;stroke:#200000"/><rect y="3.5" x="10.5" rx="1.01" height="39" width="27" style="fill:none;stroke:url(#1b)"/></g><path d="M 14,15 H27 V17 H14 z" style="fill:#480000"/><path d="M 27,15 H34 V17 H27 z" style="fill:#d30000"/><path d="M 14,8 H20 V14 H14 z" style="fill:#200000"/><g style="fill:#2e0000"><path d="M 22,8 H32 V9 H22 z" style="opacity:0.467"/><path d="M 22,10 H32 V11 H22 z" style="opacity:0.467"/><path d="M 22,12 H31.8571 V13 H22 z" style="opacity:0.467"/></g><g transform="matrix(0.35385 0 0 0.35385 -4.497 10.519)" style="fill:#ba0000;fill-rule:evenodd"><path d="m 55.1 72.01 v -28.26 l 25.435 14.13 l -25.435 14.13 z"/><path d="m 83.36 43.858 v 28.15 h 8.478 v -28.15 h -8.478 z"/><path d="m 97.49 43.858 v 28.15 h 8.478 v -28.15 h -8.478 z"/></g></g><g transform="matrix(0.34111 0 0 0.34111 1.882 43.11)"><path transform="matrix(1.06935 0 0 0.56059 -3.064 22.52)" d="m 50.558 38.763 a 25.23 4.906 0 1 1 -50.47 0 25.23 4.906 0 1 1 50.47 0 z" style="fill:url(#1c);opacity:0.3"/><g style="stroke-linecap:square"><path d="m 7 21.5 l -2.25 2.749 c -2.151 2.627 -3.25 5.069 -3.25 8.755 v 10.598 h 45 v -10.598 c 0 -3.686 -1.099 -6.128 -3.25 -8.755 l -2.25 -2.749 h -34 z" style="fill:url(#1d);stroke:url(#1f);stroke-linejoin:round"/><g style="fill:none"><path d="m 7.512 22.563 l -1.912 2.289 c -2.035 2.437 -3.1 4.486 -3.1 7.856 v 9.918 h 43 v -9.918 c 0 -3.37 -1.072 -5.414 -3.1 -7.856 l -1.9 -2.289 h -32.988 z" style="stroke:url(#1h)"/><path d="m 8.362 22.5 h 30.99 l 1.148 5.5 v 1 c 0 1.385 -1.28 2.5 -2.869 2.5 h -27.547 c -1.59 0 -2.869 -1.115 -2.869 -2.5 v -1 l 1.148 -5.5 z" style="stroke:#ba0000;stroke-linejoin:round"/></g><g transform="translate(0 1)" style="opacity:0.8"><path d="m 24.06 3 c -2.706 0 -5.437 2 -5.438 2 -0.569 0 -1.031 3.828 -1.031 4.844 v 12.313 h 12.875 v -12.313 c 0 -1.016 -0.462 -4.844 -1.031 -4.844 c 0 0 -2.669 -2 -5.375 -2 z m -0.031 8 c 0.828 0 1.5 -0.536 1.5 2.5 0 3.036 -0.672 5.5 -1.5 5.5 -0.828 0 -1.5 -2.464 -1.5 -5.5 0 -3.036 0.672 -2.5 1.5 -2.5 z" style="fill:url(#1i);opacity:0.8;stroke:url(#1j);fill-rule:evenodd"/><g style="fill:none;stroke-linejoin:round"><path d="m 23.469 9.969 c 0.292 0.005 0.463 0.031 0.563 0.031 c 0.1 0 0.271 -0.027 0.563 -0.031 0.292 -0.005 0.785 0.07 1.156 0.406 0.372 0.336 0.527 0.764 0.625 1.25 0.098 0.486 0.156 1.079 0.156 1.875 0 1.591 -0.163 3.037 -0.469 4.156 -0.153 0.56 -0.356 1.02 -0.625 1.438 c -0.269 0.417 -0.706 0.906 -1.406 0.906 -0.701 0 -1.137 -0.489 -1.406 -0.906 -0.269 -0.417 -0.472 -0.878 -0.625 -1.438 -0.305 -1.119 -0.469 -2.565 -0.469 -4.156 c 0 -0.796 0.058 -1.389 0.156 -1.875 0.098 -0.486 0.253 -0.914 0.625 -1.25 0.372 -0.336 0.864 -0.411 1.156 -0.406 z" style="opacity:0.7;stroke:url(#1k)"/><path d="m 24.06 4 c -2.216 0 -4.844 1.813 -4.844 1.813 -0.001 0.003 -0.03 -0.003 -0.031 0 -0.018 0.041 -0.009 0.056 -0.031 0.125 -0.095 0.289 -0.193 0.767 -0.281 1.281 -0.177 1.029 -0.281 2.268 -0.281 2.625 v 11.313 h 10.875 v -11.313 c 0 -0.357 -0.104 -1.596 -0.281 -2.625 c -0.089 -0.515 -0.186 -0.993 -0.281 -1.281 -0.023 -0.069 -0.014 -0.084 -0.031 -0.125 -0.006 -0.013 -0.027 -0.022 -0.031 -0.031 0 0 -2.565 -1.781 -4.781 -1.781 z" style="opacity:0.7;stroke:url(#1l)"/></g></g></g><path d="m 17.09 12.75 v 10.406 c 0.001 0.276 0.224 0.499 0.5 0.5 h 12.875 c 0.276 -0.001 0.499 -0.224 0.5 -0.5 v -10.406 h -6.094 c 0.021 0.061 0.045 0.101 0.063 0.188 0.065 0.322 0.094 0.822 0.094 1.563 0 1.481 -0.183 2.817 -0.438 3.75 -0.127 0.467 -0.272 0.823 -0.406 1.031 -0.067 0.104 -0.129 0.159 -0.156 0.188 -0.027 -0.029 -0.089 -0.083 -0.156 -0.188 -0.134 -0.209 -0.279 -0.565 -0.406 -1.031 -0.254 -0.933 -0.438 -2.269 -0.438 -3.75 0 -0.741 0.029 -1.241 0.094 -1.563 0.018 -0.087 0.042 -0.127 0.063 -0.188 h -6.094 z" style="fill:url(#1m);opacity:0.25;fill-rule:evenodd"/><g style="stroke-linecap:square;stroke-linejoin:round"><path d="m 12.12 6.494 h 23.76 c 0.897 0 1.62 0.672 1.62 1.506 v 15.687 l -27 -0.004 v -15.683 c 0 -0.834 0.723 -1.506 1.62 -1.506 z" style="fill:url(#1n);stroke:url(#1o)"/><rect y="7.5" x="11.5" ry="0.531" rx="0.624" height="16.09" width="25" style="fill:none;stroke:#f00"/></g><path d="m 9.258 24 c -0.274 0.046 -0.471 0.257 -0.466 0.5 0 0.001 -0.066 0.287 -0.143 0.594 -0.078 0.307 -0.18 0.685 -0.287 1.062 -0.107 0.378 -0.205 0.744 -0.287 1.062 -0.082 0.319 -0.143 0.531 -0.143 0.781 v 1 c 0 0.762 0.422 1.361 1 1.656 c 0.582 0.294 1.245 0.344 1.865 0.344 h 26.399 c 0.62 0 1.283 -0.049 1.865 -0.344 0.582 -0.294 1 -0.894 1 -1.656 v -1 c 0 -0.246 -0.064 -0.463 -0.143 -0.781 -0.08 -0.318 -0.184 -0.685 -0.287 -1.062 -0.103 -0.378 -0.212 -0.755 -0.287 -1.062 -0.075 -0.307 -0.108 -0.589 -0.108 -0.594 0 -0.276 -0.257 -0.5 -0.574 -0.5 h -29.3 c -0.036 -0.003 -0.072 -0.003 -0.108 0 z" style="fill:url(#1p)"/><path d="m 9.07 24.5 c 0 0.5 -0.574 3.048 -0.574 3.5 v 1 c 0 1.259 1.148 1.5 2.296 1.5 h 26.407 c 1.148 0 2.296 -0.241 2.296 -1.5 v -1 c 0 -0.452 -0.574 -3 -0.574 -3.5 h -29.852 z" style="fill:none;stroke:url(#1q);stroke-linecap:square;stroke-linejoin:round"/><path d="m 8.735 23.5 h 30.637" style="fill:#800;fill-opacity:0.75;stroke:#ba0000;fill-rule:evenodd;stroke-linecap:round"/><g style="stroke-linecap:square"><rect y="32.5" x="41" rx="1" height="2" width="3" style="fill:url(#1r);stroke:url(#1s)"/><path d="m 8.194 36.5 h 31.613 c 0.964 0 1.694 0.847 1.694 1.733 v 6.267 h -35 v -6.267 c 0 -0.987 0.774 -1.733 1.694 -1.733 z" style="fill:url(#1t);stroke:url(#1u)"/><path d="m 8.194 35.5 h 31.613 c 0.964 0 1.694 0.847 1.694 1.733 v 7.267 h -35 v -7.267 c 0 -0.987 0.774 -1.733 1.694 -1.733 z" style="fill:url(#1v);stroke:url(#1w)"/><path transform="matrix(0.99248 0 0 0.96 0.18 1.62)" d="m 8.188 36.38 c -0.457 0 -0.813 0.309 -0.813 0.844 v 6.406 h 33.25 v -6.406 c 0 -0.41 -0.352 -0.844 -0.813 -0.844 h -31.625 z" style="fill:none;stroke:url(#1x);stroke-width:1.024"/></g><rect y="33.11" x="41.734" ry="0.18" rx="0.516" height="0.359" width="1.547" style="fill:url(#1y)"/><path d="M 10,21 H38 V23 H10 z" style="fill:url(#1z);opacity:0.15;fill-rule:evenodd"/></g><g transform="matrix(0.23594 0 0 0.23594 1.194 16.281)"><g transform="matrix(0.02354 0 0 0.02087 45.31 40.28)"><use xlink:href="#8" style="fill:url(#20);opacity:0.402"/><use xlink:href="#7" style="fill:url(#21);opacity:0.402"/><use xlink:href="#2I" style="fill:url(#22);opacity:0.402"/></g><path d="m 9.286 22.02 c -0.625 0 -1.031 0.29 -1.281 0.844 0 0 -4.469 11.1 -4.469 11.1 0 0 -0.25 0.672 -0.25 1.781 0 0 0 5.65 0 5.65 0 1.083 0.658 1.625 1.656 1.625 h 38.562 c 0.985 0 1.594 -0.718 1.594 -1.844 v -5.65 c 0 0 0.106 -0.77 -0.094 -1.313 l -4.719 -11.197 c -0.185 -0.512 -0.637 -0.988 -1.125 -1 h -29.875 z" style="fill:none;stroke:#530000;stroke-linecap:round;stroke-linejoin:round;stroke-width:2"/><path d="m 3.274 35.05 l 0.765 -0.692 l 37.61 0.063 l 3.462 0.317 v 6.439 c 0 1.126 -0.607 1.843 -1.592 1.843 h -38.583 c -0.998 0 -1.662 -0.542 -1.662 -1.625 v -6.345 z" style="fill:url(#23);fill-rule:evenodd"/><path d="m 24.563 19.75 c -2.625 0 -4.71 1.052 -4.875 2.375 h -0.063 c 0 0 -1.281 5.188 -1.281 5.188 -0.219 1.094 2.079 3.03 6.219 3.03 4.171 0 6.563 -1.969 6.156 -3.438 0 0 -1.188 -4.781 -1.188 -4.781 h -0.063 c -0.164 -1.324 -2.28 -2.375 -4.906 -2.375 z" style="fill:none;stroke:#600;stroke-width:2"/><g style="fill-rule:evenodd"><path d="m 3.549 33.97 c -0.714 1.464 -0.001 2.393 1.036 2.393 0 0 39 0 39 0 1.119 -0.024 1.845 -1.012 1.429 -2.143 l -4.714 -11.211 c -0.185 -0.512 -0.655 -0.988 -1.143 -1 h -29.857 c -0.625 0 -1.036 0.304 -1.286 0.857 0 0 -4.464 11.1 -4.464 11.1 z" style="fill:url(#24)"/><path transform="translate(0.155 0.287)" d="m 14.186 32.709 a 3.823 2.386 0 1 1 -7.646 0 3.823 2.386 0 1 1 7.646 0 z" style="fill:url(#25)"/><path d="m 44.796 33.684 c 0.064 1.25 -0.414 2.316 -1.322 2.344 0 0 -38.12 0 -38.12 0 -1.289 0 -1.868 -0.325 -2.084 -0.868 0.092 0.944 0.826 1.649 2.084 1.649 0 0 38.12 0 38.12 0 1.076 -0.033 1.753 -1.424 1.352 -2.995 l -0.03 -0.13 z" style="fill:#f00"/></g><path d="m 9.643 22.471 c -0.602 0 -0.993 0.279 -1.233 0.812 0 0 -4.415 10.591 -4.415 10.591 0 0 -0.241 0.647 -0.241 1.715 0 0 0 5.29 0 5.29 0 1.355 0.444 1.627 1.594 1.627 h 37.687 c 1.323 0 1.534 -0.316 1.534 -1.837 v -5.29 c 0 0 0.102 -0.742 -0.09 -1.264 l -4.593 -10.806 c -0.178 -0.493 -0.551 -0.826 -1.021 -0.838 h -29.22 z" style="fill:none;stroke:url(#26);stroke-linecap:round;stroke-linejoin:round"/><use transform="matrix(1.5813 0 0 1.5813 -14.284 -16.591)" xlink:href="#3" style="fill:#f00;fill-opacity:0.48"/><use transform="matrix(0.85366 0 0 0.85366 3.596 2.933)" xlink:href="#3" style="fill:#c90000"/><path d="m 24.563 1.344 c -3.659 0 -6.625 2.966 -6.625 6.625 0 2.608 1.559 4.793 3.75 5.875 v 8.469 c 0 0 0 0.036 0 0.063 0 0.814 1.286 1.469 2.875 1.469 1.589 0 2.875 -0.655 2.875 -1.469 v -0.063 v -8.438 c 2.21 -1.075 3.75 -3.284 3.75 -5.906 0 -3.659 -2.966 -6.625 -6.625 -6.625 z" style="fill:none;stroke:#600;stroke-width:2"/><path d="m 29.531 22.13 c 0 0 1.188 4.781 1.188 4.781 0.406 1.469 -1.985 3.438 -6.156 3.438 -4.14 0 -6.438 -1.938 -6.219 -3.03 0 0 1.281 -5.188 1.281 -5.188 h 9.906 z" style="fill:url(#27);fill-rule:evenodd"/><use transform="matrix(0.68293 0 0 0.68293 7.791 2.903)" xlink:href="#3" style="fill:#e40000"/><path transform="matrix(0.63363 0 0 0.63363 9.124 4.177)" d="m 24.563 24.656 c -4 0 -7.25 1.67 -7.25 3.719 0 2.049 3.249 3.719 7.25 3.719 4 0 7.25 -1.67 7.25 -3.719 0 -2.049 -3.249 -3.719 -7.25 -3.719 z" style="fill:none;stroke:url(#29);stroke-width:1.078"/><g style="fill-rule:evenodd"><path d="m 24.563 6.281 c -1.589 0 -2.875 0.655 -2.875 1.469 0 0.027 0.06 0.036 0.063 0.063 h -0.063 v 13.875 h 0.063 c -0.003 0.027 -0.063 0.036 -0.063 0.063 0 0.814 1.286 1.469 2.875 1.469 1.589 0 2.875 -0.655 2.875 -1.469 0 -0.027 -0.06 -0.036 -0.063 -0.063 h 0.063 v -13.875 h -0.063 c 0.003 -0.027 0.063 -0.036 0.063 -0.063 0 -0.814 -1.286 -1.469 -2.875 -1.469 z" style="fill:url(#2A)"/><use transform="matrix(0.96758 0 0 0.96758 0.968 -0.169)" xlink:href="#4" style="fill:url(#2B)"/><g transform="matrix(1 0 0 0.84966 0.811 5.224)"><use transform="matrix(0.51033 0 0 0.35475 -2.878 29.417)" xlink:href="#4" style="fill:url(#2D)"/><use transform="matrix(0.43019 0 0 0.29905 -0.923 29.604)" xlink:href="#4" style="fill:url(#2E)"/></g></g><path d="m 24.564 2.072 c -3.285 0 -5.943 2.688 -5.943 5.972 0 2.313 1.66 4.263 3.589 5.248 v 7.122 c -0.867 0.395 -2.153 1.043 -2.168 1.682 0 0 -1.247 5.145 -1.247 5.145 -0.203 1.015 1.929 2.812 5.77 2.812 3.87 0 6.088 -1.827 5.712 -3.189 l -1.218 -4.855 c -0.016 -0.684 -1.226 -1.112 -2.202 -1.508 v -7.209 c 1.929 -0.985 3.68 -2.935 3.68 -5.248 0 -3.285 -2.688 -5.972 -5.972 -5.972 z" style="fill:none;opacity:0.526;stroke:url(#2F)"/></g><g transform="matrix(0.47143 0 0 0.47143 38.39 -0.202)"><g style="fill:url(#2G)"><path transform="matrix(1.72595 0 0 2 5.284 2.875)" d="m 21.563 17.438 a 10.719 3.625 0 1 1 -21.438 0 10.719 3.625 0 1 1 21.438 0 z" style="opacity:0.2"/><path transform="matrix(0.46647 0 0 0.57156 18.942 33.03)" d="m 21.563 17.438 a 10.719 3.625 0 1 1 -21.438 0 10.719 3.625 0 1 1 21.438 0 z" style="opacity:0.25"/></g><g style="stroke-linecap:round;stroke-dashoffset:0.7"><rect transform="matrix(0.70711 -0.70711 0.70711 0.70711 0 0)" y="17.838" x="-14.688" rx="3.079" height="30.791" width="30.791" style="fill:url(#2H);stroke:#340000"/><path transform="matrix(0.70711 -0.70711 0.70711 0.70711 0 0)" d="m -11.594 19.313 c -0.934 0 -1.625 0.678 -1.625 1.594 v 24.656 c 0 0.916 0.691 1.594 1.625 1.594 h 24.625 c 0.934 0 1.594 -0.66 1.594 -1.594 v -24.656 c 0 -0.934 -0.66 -1.594 -1.594 -1.594 h -24.625 z" style="fill:none;stroke:#f00;stroke-width:2"/></g><path d="m 26.09 26.05 h -3.95 v -0.536 c 0 -0.598 0.12 -1.127 0.361 -1.586 0.241 -0.467 0.748 -1.058 1.521 -1.772 l 0.7 -0.635 c 0.416 -0.379 0.718 -0.737 0.908 -1.072 0.197 -0.336 0.295 -0.671 0.295 -1.01 0 -0.511 -0.175 -0.908 -0.525 -1.193 -0.35 -0.292 -0.839 -0.438 -1.466 -0.438 -0.591 0 -1.229 0.124 -1.915 0.372 -0.686 0.241 -1.4 0.602 -2.144 1.083 v -3.435 c 0.883 -0.306 1.689 -0.532 2.418 -0.678 0.729 -0.146 1.433 -0.219 2.112 -0.219 1.78 0 3.136 0.365 4.07 1.094 0.934 0.722 1.4 1.78 1.4 3.173 0 0.715 -0.142 1.357 -0.427 1.926 -0.284 0.562 -0.77 1.167 -1.455 1.816 l -0.7 0.624 c -0.496 0.452 -0.821 0.817 -0.974 1.094 -0.153 0.27 -0.23 0.569 -0.23 0.897 v 0.492 m -4.01 1.994 h 3.95 v 3.895 h -3.95 v -3.895" style="fill:#f00"/></g></g></svg>