<svg xmlns="http://www.w3.org/2000/svg" xmlns:xlink="http://www.w3.org/1999/xlink" viewBox="0 0 256 256"><defs><clipPath><path transform="matrix(15.33333 0 0 11.5 415 -125.5)" d="m -24 13 c 0 1.105 -0.672 2 -1.5 2 -0.828 0 -1.5 -0.895 -1.5 -2 0 -1.105 0.672 -2 1.5 -2 0.828 0 1.5 0.895 1.5 2 z"/></clipPath><clipPath><rect rx="4" y="1" x="1" height="46" width="46" style="fill:#1890d0"/></clipPath><clipPath><rect rx="4" y="1" x="1" height="46" width="46" style="fill:#1890d0"/></clipPath><clipPath><rect rx="4" y="1" x="1" height="46" width="46" style="fill:#1890d0"/></clipPath><clipPath><rect rx="4" y="1" x="1" height="46" width="46" style="fill:#1890d0"/></clipPath><clipPath><rect rx="4" y="1" x="1" height="46" width="46" style="fill:#1890d0"/></clipPath><clipPath><rect rx="4" y="1" x="1" height="46" width="46" style="fill:#1890d0"/></clipPath><clipPath><rect rx="4" y="1" x="1" height="46" width="46" style="fill:#1890d0"/></clipPath><clipPath><rect rx="4" y="1" x="1" height="46" width="46" style="fill:#1890d0"/></clipPath><clipPath><rect rx="4" y="1" x="1" height="46" width="46" style="fill:#1890d0"/></clipPath><clipPath><rect rx="4" y="1" x="1" height="46" width="46" style="fill:#1890d0"/></clipPath><clipPath><rect rx="4" y="1" x="1" height="46" width="46" style="fill:#1890d0"/></clipPath><clipPath><rect rx="4" y="1" x="1" height="46" width="46" style="fill:#1890d0"/></clipPath><clipPath><rect rx="4" y="1" x="1" height="46" width="46" style="fill:#1890d0"/></clipPath><clipPath><rect rx="4" y="1" x="1" height="46" width="46" style="fill:#1890d0"/></clipPath><clipPath><rect rx="4" y="1" x="1" height="46" width="46" style="fill:#1890d0"/></clipPath><clipPath><rect rx="4" y="1" x="1" height="46" width="46" style="fill:#1890d0"/></clipPath><clipPath><rect rx="4" y="1" x="1" height="46" width="46" style="fill:#1890d0"/></clipPath><clipPath><rect rx="4" y="1" x="1" height="46" width="46" style="fill:#1890d0"/></clipPath><clipPath><rect rx="4" y="1" x="1" height="46" width="46" style="fill:#1890d0"/></clipPath><clipPath id="0"><rect rx="4" y="1" x="1" height="46" width="46" style="fill:#1890d0"/></clipPath><clipPath><rect rx="4" y="1" x="1" height="46" width="46" style="fill:#1890d0"/></clipPath><clipPath><rect rx="4" y="1" x="1" height="46" width="46" style="fill:#1890d0"/></clipPath><clipPath><rect rx="4" y="1" x="1" height="46" width="46" style="fill:#1890d0"/></clipPath><clipPath><rect rx="4" y="1" x="1" height="46" width="46" style="fill:#1890d0"/></clipPath><clipPath><rect rx="4" y="1" x="1" height="46" width="46" style="fill:#1890d0"/></clipPath><clipPath><rect rx="4" y="1" x="1" height="46" width="46" style="fill:#1890d0"/></clipPath><clipPath><rect rx="4" y="1" x="1" height="46" width="46" style="fill:#1890d0"/></clipPath><clipPath><rect rx="4" y="1" x="1" height="46" width="46" style="fill:#1890d0"/></clipPath><clipPath><rect rx="4" y="1" x="1" height="46" width="46" style="fill:#1890d0"/></clipPath><clipPath><rect rx="4" y="1" x="1" height="46" width="46" style="fill:#1890d0"/></clipPath><clipPath><rect rx="4" y="1" x="1" height="46" width="46" style="fill:#1890d0"/></clipPath><clipPath><rect rx="4" y="1" x="1" height="46" width="46" style="fill:#1890d0"/></clipPath><clipPath><rect rx="4" y="1" x="1" height="46" width="46" style="fill:#1890d0"/></clipPath><clipPath><rect rx="4" y="1" x="1" height="46" width="46" style="fill:#1890d0"/></clipPath><clipPath><rect rx="4" y="1" x="1" height="46" width="46" style="fill:#1890d0"/></clipPath><clipPath><rect rx="4" y="1" x="1" height="46" width="46" style="fill:#1890d0"/></clipPath><clipPath><rect rx="4" y="1" x="1" height="46" width="46" style="fill:#1890d0"/></clipPath><clipPath><rect rx="4" y="1" x="1" height="46" width="46" style="fill:#1890d0"/></clipPath><clipPath><rect rx="4" y="1" x="1" height="46" width="46" style="fill:#1890d0"/></clipPath><clipPath><rect rx="4" y="1" x="1" height="46" width="46" style="fill:#1890d0"/></clipPath><clipPath><rect rx="4" y="1" x="1" height="46" width="46" style="fill:#1890d0"/></clipPath><clipPath><rect rx="4" y="1" x="1" height="46" width="46" style="fill:#1890d0"/></clipPath><clipPath><rect rx="4" y="1" x="1" height="46" width="46" style="fill:#1890d0"/></clipPath><clipPath><rect rx="4" y="1" x="1" height="46" width="46" style="fill:#1890d0"/></clipPath><clipPath><rect rx="4" y="1" x="1" height="46" width="46" style="fill:#1890d0"/></clipPath><clipPath><rect rx="4" y="1" x="1" height="46" width="46" style="fill:#1890d0"/></clipPath><clipPath><rect rx="4" y="1" x="1" height="46" width="46" style="fill:#1890d0"/></clipPath><clipPath><rect rx="4" y="1" x="1" height="46" width="46" style="fill:#1890d0"/></clipPath><clipPath><rect rx="4" y="1" x="1" height="46" width="46" style="fill:#1890d0"/></clipPath><clipPath><rect rx="4" y="1" x="1" height="46" width="46" style="fill:#1890d0"/></clipPath><clipPath><rect rx="4" y="1" x="1" height="46" width="46" style="fill:#1890d0"/></clipPath><clipPath><rect rx="4" y="1" x="1" height="46" width="46" style="fill:#1890d0"/></clipPath><clipPath><rect rx="4" y="1" x="1" height="46" width="46" style="fill:#1890d0"/></clipPath><clipPath><rect rx="4" y="1" x="1" height="46" width="46" style="fill:#1890d0"/></clipPath><clipPath><rect rx="4" y="1" x="1" height="46" width="46" style="fill:#1890d0"/></clipPath><clipPath><rect rx="4" y="1" x="1" height="46" width="46" style="fill:#1890d0"/></clipPath><clipPath><rect rx="4" y="1" x="1" height="46" width="46" style="fill:#1890d0"/></clipPath><clipPath><rect rx="4" y="1" x="1" height="46" width="46" style="fill:#1890d0"/></clipPath><clipPath><rect rx="4" y="1" x="1" height="46" width="46" style="fill:#1890d0"/></clipPath><clipPath><rect rx="4" y="1" x="1" height="46" width="46" style="fill:#1890d0"/></clipPath><clipPath><rect rx="4" y="1" x="1" height="46" width="46" style="fill:#1890d0"/></clipPath><clipPath><rect rx="4" y="1" x="1" height="46" width="46" style="fill:#1890d0"/></clipPath><clipPath><rect rx="4" y="1" x="1" height="46" width="46" style="fill:#1890d0"/></clipPath><clipPath><rect rx="4" y="1" x="1" height="46" width="46" style="fill:#1890d0"/></clipPath></defs><path d="m 222.65 37.868 c 145.18 221.56 -251.35 307.3 -219.76 79.37 12.881 -92.96 164.23 -164.13 219.76 -79.37 z" transform="translate(0.508 2.624)" style="fill:#fff;color:#000"/><g transform="matrix(0.98293 0 0 0.93973 37.752 48.554)" style="fill:#ff4500"><g transform="matrix(5.1754 0 0 3.66596 -35.09 -20.953)" style="clip-path:url(#0)"><g transform="translate(0 -1)"><g><path d="m 18.05,28 h 16.953 v 8 H 18.05" id="7" style="fill:#ff4500"/><path d="m 17,28 h 2.027 c 1.105,0 2,0.895 2,2 v 4 c 0,1.105 -0.895,2 -2,2 H 17 c -1.105,0 -2,-0.895 -2,-2 v -4 c 0,-1.105 0.895,-2 2,-2" id="8" style="fill:#ff4500"/></g><path d="m 31.465 29 c -1.371 0 -2.469 1.098 -2.469 2.469 v 1.063 c 0 1.371 1.098 2.469 2.469 2.469 h 3.531 v -6" id="1" style="fill:#ff4500"/><path d="m 31.465,29 c -0.809,0 -1.52,0.402 -1.969,1 h 5.5 v -1 m -5.938,2 c -0.027,0.148 -0.063,0.305 -0.063,0.469 V 32 h 6 v -1 m -5.938,2 c 0.074,0.375 0.219,0.703 0.438,1 h 5.5 v -1" id="2" style="fill:#ff4500"/><g transform="translate(1.384)"><path d="m 14.05,20 h 16.949 v 8 H 14.05" id="9" style="fill:#ff4500"/><path d="m 13,20 h 2.031 c 1.102,0 1.996,0.895 1.996,2 v 4 c 0,1.105 -0.895,2 -1.996,2 H 13 c -1.105,0 -2,-0.895 -2,-2 v -4 c 0,-1.105 0.895,-2 2,-2" id="A" style="fill:#ff4500"/></g><path d="m 28.965 21 c -1.371 0 -2.469 1.098 -2.469 2.469 v 1.063 c 0 1.371 1.098 2.469 2.469 2.469 h 3.531 v -6" id="3" style="fill:#ff4500"/><path d="m 28.918,21 c -0.809,0 -1.52,0.402 -1.969,1 h 5.5 v -1 m -5.938,2 c -0.027,0.148 -0.063,0.305 -0.063,0.469 V 24 h 6 v -1 m -5.938,2 c 0.074,0.375 0.219,0.703 0.438,1 h 5.5 v -1" id="4" style="fill:#ffdead"/><g><path d="m 18.05,12 h 16.953 v 8 H 18.05" id="B" style="fill:#ff4500"/><path d="m 17,12 h 2.027 c 1.105,0 2,0.895 2,2 v 4 c 0,1.105 -0.895,2 -2,2 H 17 c -1.105,0 -2,-0.895 -2,-2 v -4 c 0,-1.105 0.895,-2 2,-2" id="C" style="fill:#ff4500"/></g><path d="m 31.465 13 c -1.371 0 -2.469 1.098 -2.469 2.469 v 1.063 c 0 1.371 1.098 2.469 2.469 2.469 h 3.531 v -6" id="5" style="fill:#ff4500"/><path d="m 31.465,13 c -0.809,0 -1.52,0.402 -1.969,1 h 5.5 v -1 m -5.938,2 c -0.027,0.148 -0.063,0.305 -0.063,0.469 V 16 h 6 v -1 m -5.938,2 c 0.074,0.375 0.219,0.703 0.438,1 h 5.5 v -1" id="6" style="fill:#ffdead"/></g></g><g transform="matrix(4.95266 0 0 -3.70794 -26.288 210.62)" style="clip-path:url(#0)"><g transform="translate(0 -1)"><g><use xlink:href="#7"/><use xlink:href="#8"/></g><use xlink:href="#1"/><use xlink:href="#2"/><g transform="translate(1.384)"><use xlink:href="#9"/><use xlink:href="#A"/></g><use xlink:href="#3"/><use xlink:href="#4"/><g><use xlink:href="#B"/><use xlink:href="#C"/></g><use xlink:href="#5"/><use xlink:href="#6"/></g></g></g></svg>