<svg xmlns="http://www.w3.org/2000/svg" viewBox="0 0 256 256"><g transform="translate(0 -796.36)"><g style="color:#000"><path d="m -429.05 1690.33 c 82.81 -118.52 -103.69 -267.18 -201.24 -170.61 -91.91 90.99 26.87 260.92 141.24 216.73 23.862 -9.219 44.801 -24.363 60 -46.12 z" transform="matrix(0 -1 -1 0 1744.15 388.62)" style="fill:#fff"/><g transform="matrix(1.04446 0 0 1.04446 -5.54 -28.632)"><path d="m 66.41 854.72 v 37.513 v 37.513 c 0 0 14.337 -1.297 25.26 1.782 10.921 3.079 25.26 12.924 25.26 12.924 v -37.513 v -37.513 c 0 0 -7.543 -7.929 -25.26 -12.924 -17.716 -4.995 -25.26 -1.782 -25.26 -1.782 z" style="fill:#ff4500"/><path d="m 64.955 859.79 v 37.513 v 37.513 c 0 0 14.886 -1.297 26.23 1.782 11.339 3.079 26.23 12.924 26.23 12.924 v -37.513 v -37.513 c 0 0 -7.832 -7.929 -26.23 -12.924 -18.394 -4.995 -26.23 -1.782 -26.23 -1.782 z" style="fill:#fff"/><path d="m 66.41 865.25 v 37.513 v 37.513 c 0 0 14.337 -1.297 25.26 1.782 10.921 3.079 25.26 12.924 25.26 12.924 v -37.513 v -37.513 c 0 0 -7.543 -7.929 -25.26 -12.924 -17.716 -4.995 -25.26 -1.782 -25.26 -1.782 z" style="fill:#ff4500"/><path d="m 66.32 875.5 v 35.38 v 35.38 c 0 0 14.384 -1.223 25.34 1.681 10.956 2.904 25.34 12.19 25.34 12.19 v -35.38 v -35.38 c 0 0 -7.567 -7.479 -25.34 -12.19 -17.773 -4.711 -25.34 -1.681 -25.34 -1.681 z" style="fill:#00a275;stroke:#fff;stroke-width:5.836"/><g style="fill:#ff4500"><path d="m 68.7 879.39 v 36.615 v 36.615 c 0 0 13.309 -1.266 23.446 1.74 10.137 3.01 23.446 12.615 23.446 12.615 v -36.615 v -36.615 c 0 0 -7 -7.739 -23.446 -12.615 -16.445 -4.875 -23.446 -1.74 -23.446 -1.74 z" style="stroke:#ff4500;stroke-linecap:round;stroke-linejoin:round;stroke-width:4.826"/><g transform="translate(0 -11.834)"><path d="m 136.94 971.81 h 53.794 v 6.867 h -53.794 z"/><path d="m 136.94 959.68 h 53.794 v 6.868 h -53.794 z"/><path d="m 136.94 947.54 h 29.858 v 6.868 h -29.858 z"/><path d="m 136.94 935.41 h 29.858 v 6.867 h -29.858 z"/><path d="m 136.94 923.28 h 30.1 v 6.867 h -30.1 z"/><path d="m 136.94 911.15 h 53.794 v 6.867 h -53.794 z"/></g></g></g></g><path d="m 127.57 906.65 v 77.08" style="fill:#ff4500;stroke:#ff4500;stroke-linecap:round;stroke-width:4"/></g></svg>