<svg xmlns="http://www.w3.org/2000/svg" viewBox="0 0 256 256"><defs><clipPath><path d="m 448.99 63.03 c -59.697 -59.697 -326.18 -59.697 -385.88 0 -59.697 59.697 -59.697 326.28 -0.1 385.98 c 59.6 59.696 326.28 59.6 385.98 0 59.697 -59.6 59.6 -326.28 0 -385.98"/></clipPath><clipPath><path d="m 18.325 493.74 h 475.4 v -475.49 h -475.4 v 475.49 z"/></clipPath><clipPath><path d="m 18.275 493.69 h 475.39 v -475.44 h -475.39 v 475.44 z"/></clipPath><clipPath id="0"><path d="m 0 512 h 512 v -512 h -512 v 512"/></clipPath><clipPath><path d="m 63.01 63.03 c 59.697 -59.697 326.18 -59.697 385.88 0 59.697 59.697 59.697 326.18 0 385.88 -59.697 59.696 -326.18 59.696 -385.88 0.1 -59.697 -59.6 -59.6 -326.28 0 -385.98"/></clipPath></defs><path d="m 226.22 211.58 c 62.27 -95.76 12.03 -183 -58.47 -203.69 -94.83 -27.843 -223.59 45.32 -138.75 196.1 c 33.72 59.925 152.85 75.79 197.21 7.587 z" style="fill:#fff;color:#000"/><g transform="matrix(0.28492 0 0 -0.28271 57.772 203.63)"><path d="m 27.08 286.26 c -5.72 -80.36 11.485 -167.39 51.638 -207.54 c 70.29 -70.29 284.26 -70.29 354.56 0 c 40.15 40.15 57.36 127.19 51.638 207.54 h -457.83 z" style="fill:#ff4500"/><g style="fill:#8b0000"><path d="M 59.254,239.499 256,127.55 165.794,322.205 59.254,239.499 z"/><path d="M 256,127.55 452.746,239.499 346.206,322.205 256,127.55 z"/></g><g style="clip-path:url(#0)"><g style="fill:#fff"><path d="m 0 0 c 0 -91.36 -83.53 -194.66 -83.53 -194.66 0 0 -83.53 103.3 -83.53 194.66 h 167.07 z" transform="translate(339.53 322.21)"/><path d="m 0,0 457.834,0 c -0.89,12.511 -2.334,24.858 -4.337,36.844 l -449.16,0 C 2.334,24.858 0.891,12.511 0,0" transform="translate(27.08 286.26)"/></g><g style="fill:#ff4500"><path d="m 0,0 c -14.993,-25.978 -23.574,-56.121 -23.574,-88.269 0,-32.149 8.581,-62.293 23.574,-88.27 0,0 68.95,20.397 89.415,32.519 18.172,10.763 63.472,55.751 63.472,55.751 0,0 -45.938,44.465 -64.203,55.111 C 68.663,-21.486 0,0 0,0" transform="translate(102.73 394.41)"/><path d="m 0 0 c 0 0 -67.943 -21.881 -87.7 -33.29 -18.465 -10.661 -65.19 -54.982 -65.19 -54.982 0 0 46.45 -44.46 64.891 -55.11 19.781 -11.421 87.996 -33.16 87.996 -33.16 14.993 25.978 23.574 56.12 23.574 88.27 c 0 32.15 -8.58 62.29 -23.573 88.27" transform="translate(409.26 394.41)"/></g></g><path d="m 238.5 329.34 c -3.146 0 -5.695 -2.551 -5.695 -5.695 v -34.999 c 0 -3.146 2.55 -5.696 5.695 -5.696 h 34.999 c 3.146 0 5.695 2.551 5.695 5.696 v 34.999 c 0 3.145 -2.55 5.695 -5.695 5.695 h -34.999 z" style="fill:#ff4500"/></g></svg>