<svg xmlns="http://www.w3.org/2000/svg" viewBox="0 0 256 256"><defs><clipPath><path transform="matrix(15.33333 0 0 11.5 415 -125.5)" d="m -24 13 c 0 1.105 -0.672 2 -1.5 2 -0.828 0 -1.5 -0.895 -1.5 -2 0 -1.105 0.672 -2 1.5 -2 0.828 0 1.5 0.895 1.5 2 z"/></clipPath><clipPath><rect rx="4" y="1" x="1" height="46" width="46" style="fill:#1580b9;stroke-width:1"/></clipPath></defs><g transform="translate(0 -796.36)" style="color:#000"><path d="m 2.201 922.1 c -22.351 -111.92 130.95 -154.42 214.2 -105.92 c 66.33 38.644 47.37 171.02 -42.17 220.37 c -89.54 49.35 -154.09 -24.617 -172.03 -114.45 z" style="fill:#fff"/><path d="m -22.446 -0.259 c -0.748 0 -1.35 0.756 -1.35 1.696 v 17.189 h 1.131 l 3.213 -15.06 a 0.338 0.424 0 0 1 0.311 -0.32 0.338 0.424 0 0 1 0.033 0 0.338 0.424 0 0 1 0.013 0.002 0.338 0.424 0 0 0 0.001 0 0.338 0.424 0 0 1 0.033 -0.002 0.338 0.424 0 0 1 0.026 0.003 v -0.028 h 16.804 v 0.025 a 0.338 0.424 0 0 1 0.013 0.002 0.338 0.424 0 0 0 0.001 0 0.338 0.424 0 0 1 0.033 -0.002 0.338 0.424 0 0 1 0.319 0.32 l 3.215 15.06 h 1.181 v -17.189 c 0 -0.939 -0.602 -1.696 -1.35 -1.696 h -23.629 z m 3.812 4.323 l 3.108 14.561 h 4.02 l -3.108 -14.561 h -4.02 z m 4.736 0 l 3.107 14.561 h 0.261 l 3.107 -14.561 h -6.474 z m 7.194 0 l -3.108 14.561 h 4.02 l 3.107 -14.561 h -4.02 z m -12.392 1.108 l -2.871 13.453 h 5.741 l -2.871 -13.453 z m 16.878 0 l -2.871 13.453 h 5.741 l -2.871 -13.453 z m -21.579 15.15 v 10.787 c 0 0.939 0.602 1.696 1.35 1.696 h 4.388 v -12.483 h -5.739 z m 9.789 0 v 12.483 h 6.751 v -12.483 h -6.751 z m 10.802 0 v 12.483 h 4.388 c 0.748 0 1.35 -0.756 1.35 -1.696 v -10.787 h -5.739 z" transform="matrix(5.68631 0 0 4.51248 187.57 848.62)" style="fill:#ff4500"/></g></svg>