<svg xmlns="http://www.w3.org/2000/svg" viewBox="0 0 256 256"><defs><clipPath><path transform="matrix(15.33333 0 0 11.5 415 -125.5)" d="m -24 13 c 0 1.105 -0.672 2 -1.5 2 -0.828 0 -1.5 -0.895 -1.5 -2 0 -1.105 0.672 -2 1.5 -2 0.828 0 1.5 0.895 1.5 2 z"/></clipPath></defs><g transform="translate(-1.089 -0.535)"><g transform="matrix(1.71111 0 0 1.6629 -51.12 -634.24)" style="fill:#ff4500"><path d="m 84 456.36 v 30 c 0 18 3 18 30 18 h 6 c 27 0 30 0 30 -18 v -30 c 0 -18 -3 -18 -30 -18 h -6 c -27 0 -30 0 -30 18 z m 30 -12 h 6 c 24 0 24 0 24 12 v 21 c 0 12 0 12 -24 12 h -6 c -24 0 -24 0 -24 -12 v -21 c 0 -12 0 -12 24 -12 z"/><path d="m 96,477.91 v -11.636 l 10.5,-10.909 13.13,13.636 5.25,-5.454 13.13,13.636 v 0.727 c 0,5.455 -0.875,5.455 -10.5,5.455 h -21 c -9.625,0 -10.5,0 -10.5,-5.455 z"/><path d="m 78 34.5 a 4.5 4.5 0 1 1 -9 0 4.5 4.5 0 1 1 9 0 z" transform="matrix(1.3333 0 0 1.3333 34 410.36)" style="color:#000"/><path transform="translate(60 414.36)" d="M 42,12 C 15,12 12,12 12,30 v 30 c 0,9.758 0.891,14.235 6,16.281 V 51 36 30 C 18,19.134 18.181,18.128 36,18.031 V 18 h 6 6 28.531 C 73.886,12.002 66.718,12 48,12 h -6 z"/><path d="m 90,414.36 c -27,0 -30,0 -30,18 v 30 c 0,9.758 0.891,14.235 6,16.281 v -25.281 -15 -6 c 0,-10.866 0.181,-11.872 18,-11.969 v -0.031 h 6 6 28.531 c -2.646,-5.998 -9.813,-6 -28.531,-6 h -6 z"/></g><path d="m 219.87 1024.74 c 92.05 -130.93 -77.948 -263.6 -186.39 -156.91 -102.17 100.51 -7.449 256.68 119.69 207.86 26.526 -10.185 49.802 -26.914 66.7 -50.948 z" transform="translate(10.85 -828.38)" style="fill:#fff;color:#000"/><g transform="matrix(1.02412 0 0 1.05766 -1.124 -12.827)" style="fill:#ff4500;stroke:#ffdead"><path d="m 133.81 187.37 c -14.71 -10.718 -12.896 -10.477 -28.03 -3.732 -7.601 3.386 -14.414 5.788 -16.466 5.804 -2.838 0.022 -6.19 -1.86 -17.712 -9.945 l -14.212 -9.972 l -0.038 -11.75 c -0.021 -6.688 0.367 -11.75 0.902 -11.75 0.517 0 1.249 -3.146 1.628 -6.992 0.55 -5.579 1.196 -7.499 3.197 -9.5 1.379 -1.379 2.924 -2.508 3.433 -2.508 0.509 0 4.74 -1.796 9.404 -3.991 4.663 -2.195 9.602 -4.273 10.974 -4.617 2.942 -0.738 5.425 -5.04 5.425 -9.387 0 -2.648 2.267 -18.939 3.57 -25.652 0.304 -1.568 2.915 -3.356 9.673 -6.626 5.091 -2.463 10.269 -4.789 11.507 -5.17 1.237 -0.38 2.25 -1.111 2.25 -1.624 0 -0.513 4.03 -0.933 8.948 -0.933 8.259 0 9.164 0.201 11.75 2.606 1.541 1.433 6.684 5.296 11.429 8.583 4.745 3.287 9.147 7.117 9.782 8.51 0.835 1.833 0.883 4.643 0.171 10.167 -0.541 4.198 -1.118 11.195 -1.282 15.549 l -0.298 7.915 l 5.134 4.085 c 2.824 2.247 8.604 6.522 12.844 9.5 l 7.71 5.416 l -0.548 13.08 c -0.707 16.86 -1.849 25.24 -3.677 26.975 -0.805 0.763 -7.214 3.913 -14.243 6.999 -10.774 4.73 -13.678 5.603 -18.5 5.562 -5.433 -0.046 -6.172 -0.378 -14.72 -6.607 z"/><path d="m 139.96 186.8 c -9.787 -7.05 -17.31 -11.988 -19.57 -12.831 -2.465 -0.921 -3.691 -0.484 -21.388 7.606 -3.275 1.498 -7.211 2.724 -8.747 2.724 -2.696 0 -14.561 -7.497 -24.78 -15.658 -2.199 -1.756 -4.464 -3.192 -5.03 -3.192 -1.641 0 -1.211 -5.794 0.523 -7.04 1.182 -0.849 1.824 -4.01 2.649 -13.04 0.745 -8.157 1.539 -12.347 2.515 -13.28 0.784 -0.75 6.821 -3.698 13.415 -6.55 6.909 -2.989 12.697 -6.114 13.663 -7.376 1.604 -2.098 2.626 -7.841 4.317 -24.277 l 0.721 -7.01 l 4.316 -2.446 c 2.374 -1.345 7.497 -3.688 11.384 -5.206 3.888 -1.518 7.552 -3.52 8.143 -4.45 1.54 -2.423 11.727 -2.455 12.563 -0.04 0.313 0.908 5.103 4.778 10.645 8.6 5.542 3.823 10.482 7.697 10.978 8.609 0.895 1.643 -0.419 26.635 -1.49 28.341 -0.989 1.572 2.456 6.398 6.504 9.112 17.886 11.993 20.875 14.464 20.875 17.26 0 1.365 -0.618 3.714 -1.372 5.219 -0.761 1.517 -1.671 7.361 -2.041 13.1 -0.367 5.702 -1.133 10.939 -1.699 11.637 -0.954 1.175 -7.37 4.32 -17.904 8.778 -2.374 1 -5.537 2.441 -7.03 3.193 -4.161 2.096 -7.426 1.615 -12.15 -1.79 z m 23.02 -7.788 c 10.1 -4.517 9.996 -4.44 10.742 -7.997 1.294 -6.17 2.906 -24.24 2.258 -25.27 -0.361 -0.574 -3.757 -3.269 -7.547 -5.989 -15.714 -11.276 -16.313 -11.497 -22.525 -8.287 -6.403 3.309 -11.177 5.396 -13.793 6.03 -4.732 1.148 -6.211 4.664 -7.47 17.764 -0.633 6.579 -0.885 12.782 -0.561 13.786 0.324 1 2.843 3.369 5.597 5.254 2.754 1.885 7.73 5.295 11.06 7.578 l 6.05 4.148 l 4.495 -1.904 c 2.472 -1.045 7.73 -3.348 11.688 -5.117 z m -60.34 -3.789 c 14.892 -6.502 14.944 -6.571 15.772 -20.666 0.376 -6.41 0.411 -12.625 0.08 -13.812 -0.343 -1.223 -3.324 -3.992 -6.891 -6.398 -3.457 -2.333 -7.839 -5.418 -9.737 -6.855 -1.899 -1.437 -4.385 -2.846 -5.525 -3.124 -1.313 -0.324 -6.443 1.383 -13.986 4.653 -12.888 5.588 -14.271 6.868 -14.296 13.233 -0.008 2.02 -0.52 7.397 -1.138 11.96 -0.912 6.735 -0.886 8.58 0.14 9.795 2.596 3.074 21.436 15.581 23.471 15.581 1.163 0 6.613 -1.964 12.11 -4.365 z m 29.443 -44.22 c 15.728 -7.107 17.795 -8.36 18.623 -11.303 0.432 -1.533 0.89 -8.04 1.018 -14.468 l 0.232 -11.68 l -10.505 -7.559 c -6.634 -4.777 -11.406 -7.559 -12.949 -7.559 -2.282 0 -10.323 3.274 -21.603 8.796 l -4.814 2.356 l -0.667 8.511 c -0.366 4.68 -1.078 10.31 -1.582 12.513 -1.578 6.9 -2.177 6.238 19.5 21.547 1.588 1.122 3.44 2.076 4.114 2.121 0.674 0.044 4.558 -1.425 8.631 -3.265 z" style="fill:#ffdead;stroke-width:0.951"/></g></g></svg>