<svg xmlns="http://www.w3.org/2000/svg" xmlns:xlink="http://www.w3.org/1999/xlink" viewBox="0 0 256 256"><defs><path d="m 86.78 164.88 a 4.881 5.424 0 1 1 -9.763 0 4.881 5.424 0 1 1 9.763 0 z" id="0" style="stroke:#789;fill-rule:evenodd"/><clipPath><path d="m -24 13 c 0 1.105 -0.672 2 -1.5 2 -0.828 0 -1.5 -0.895 -1.5 -2 0 -1.105 0.672 -2 1.5 -2 0.828 0 1.5 0.895 1.5 2 z" transform="matrix(15.33333 0 0 11.5 415 -125.5)"/></clipPath></defs><path d="m 4.369 98.9 c 49.54 -237.88 390.35 17.492 185.62 138.4 -79.53 51.828 -211.1 -16.06 -185.62 -138.4 z" style="fill:#fff;color:#000"/><g transform="matrix(1.09083 0 0 0.9044 -6.39 -674.23)" style="fill:#ff4500;stroke:#ff4500"><rect rx="3.841" y="877.42" x="47.731" height="54.58" width="144.26"/><rect rx="9.92" y="836.35" x="73.32" height="49.26" width="72.44"/><rect ry="4.58" rx="6.821" y="953.38" x="55.45" height="9.161" width="120.76"/><rect ry="7.738" transform="matrix(0.99882 -0.04854 -0.00219 1 0 0)" width="66.69" height="15.477" x="127.28" y="859.98" rx="3.767"/><use xlink:href="#0" transform="matrix(2.11293 0 0 2.4348 -113.97 546.84)" width="1" height="1"/><use xlink:href="#0" transform="matrix(2.02756 0 0 2.4348 5.418 546.03)" width="1" height="1"/><use xlink:href="#0" transform="matrix(2.02756 0 0 2.4348 -22.47 544.91)" width="1" height="1"/><use xlink:href="#0" transform="matrix(2.02756 0 0 2.4348 -49.43 546.03)" width="1" height="1"/><use xlink:href="#0" transform="matrix(2.02756 0 0 2.4348 -79.17 546.84)" width="1" height="1"/><g transform="matrix(0.91673 0 0 1.10571 5.858 745.5)" style="fill:#ffdead;fill-rule:evenodd;stroke-width:1.296"><path d="m 86.49 196.15 c -5.624 -1.455 -9.821 -6.907 -9.821 -12.759 0 -6.623 5.704 -12.906 11.715 -12.906 6.01 0 11.715 6.284 11.715 12.906 0 5.214 -3.476 10.369 -8.281 12.281 -1.052 0.419 -4.397 0.719 -5.328 0.478 z m 4.064 -2.179 c 4.977 -1.554 8.293 -6.999 7.441 -12.218 -0.916 -5.61 -6.212 -10.1 -10.823 -9.171 -2.051 0.412 -3.77 1.398 -5.314 3.049 -1.942 2.076 -2.771 3.833 -3.169 6.722 -0.395 2.865 1.014 6.749 3.241 8.933 1.533 1.503 2.499 2.117 4.205 2.67 1.681 0.545 2.714 0.548 4.419 0.016 z"/><path d="m 54.884 195.79 c -5.138 -1.626 -9.01 -6.904 -9.01 -12.28 0 -5.737 3.972 -11.05 9.456 -12.648 3.763 -1.097 8.06 0.278 11.125 3.559 3.462 3.707 4.61 8.193 3.221 12.59 -2.126 6.73 -8.782 10.68 -14.792 8.778 z m 5.072 -1.747 c 1.891 -0.493 3.475 -1.395 4.883 -2.78 4.534 -4.463 4.502 -11.303 -0.073 -15.789 -2.235 -2.19 -5.277 -3.27 -7.993 -2.837 -5.394 0.861 -9.804 7.02 -8.818 12.319 0.746 4.01 3.587 7.502 7.156 8.797 1.968 0.714 2.983 0.774 4.846 0.289 z"/><path d="m 117.86 195.05 c -5.066 -1.728 -8.75 -6.933 -8.75 -12.367 0 -6.633 5.694 -12.906 11.715 -12.906 6.04 0 11.715 6.252 11.715 12.906 0 5.487 -3.87 10.87 -8.94 12.436 -1.975 0.61 -3.814 0.588 -5.74 -0.069 z m 4.478 -1.607 c 1.875 -0.432 3.552 -1.435 5.02 -3 2.614 -2.794 3.679 -6.106 3.068 -9.541 -0.809 -4.548 -4.138 -8.16 -8.332 -9.04 -3.44 -0.722 -7.788 1.813 -9.778 5.699 -1.595 3.117 -1.549 7.2 0.119 10.47 0.675 1.323 3.366 4.01 4.607 4.594 2.072 0.981 3.579 1.213 5.301 0.816 z"/><path d="m 148 194.29 c -4.069 -1.145 -7.601 -4.617 -8.874 -8.722 -0.627 -2.024 -0.724 -5.324 -0.209 -7.15 1.201 -4.26 4.293 -7.678 8.244 -9.114 2.18 -0.792 5.02 -0.622 7.218 0.432 4.647 2.231 7.53 6.843 7.53 12.05 0 3.128 -1.287 6.338 -3.565 8.894 -2.714 3.045 -7.02 4.548 -10.344 3.612 z m 5.742 -2.604 c 3.156 -1.518 5.543 -4.815 6.103 -8.432 0.81 -5.23 -2.395 -10.512 -7.382 -12.168 -2.69 -0.893 -5.999 0.052 -8.467 2.418 -3.546 3.4 -4.48 8.528 -2.362 12.965 1.832 3.838 4.939 6 8.647 6.03 1.526 0.01 1.972 -0.095 3.462 -0.812 z"/><path d="m 178.84 195.44 c -5.729 -1.465 -9.875 -6.822 -9.875 -12.757 0 -7.977 7.461 -14.527 14.272 -12.529 4.621 1.356 8.167 5.569 8.994 10.688 0.908 5.62 -2.711 11.948 -8.03 14.04 -1.304 0.513 -4.306 0.824 -5.359 0.554 z m 5.47 -2.815 c 3.66 -1.76 6.02 -5.661 6.02 -9.942 0 -4.834 -2.945 -9.05 -7.368 -10.547 -5.622 -1.904 -12.06 3.726 -12.06 10.547 0 4.882 3.313 9.396 7.815 10.645 1.82 0.505 3.522 0.291 5.588 -0.703 z"/></g></g><path d="m 151.41 88.986 a 38.29 16 0 0 1 -76.58 0 38.29 16 0 1 1 76.58 0 z" style="fill:#ff6347;stroke:#ffa07a;fill-rule:evenodd;stroke-width:1.72"/><path d="m 188.78 118.15 l 11.571 -7.792 l 17.45 22.28 l -11.571 7.792 z" style="fill:#fff"/></svg>