<svg xmlns="http://www.w3.org/2000/svg" viewBox="0 0 256 256"><path transform="translate(-577.92 -808.52)" d="m 813.15 1010.99 c 83.29 -119.08 -104.26 -268.19 -202.26 -171.28 c -92.42 91.39 27.07 261.92 141.96 217.58 24.03 -9.275 45.09 -24.542 60.3 -46.3 z" style="fill:#fff;color:#000"/><g transform="matrix(0.52992173 0 0 0.57627119 60.469693 47.103705)"><path d="m 45.412717,256.20858 c 0,-0.48189 -2.392227,-1.07455 -5.31606,-1.31702 -5.022957,-0.41654 -5.655475,-0.79553 -11.472117,-6.87383 -7.419983,-7.75376 -6.330392,-6.66949 -13.961823,-13.8937 -5.6285259,-5.32818 -6.2499998,-6.31221 -6.2499998,-9.8961 0,-6.15278 -0.7080833,-7.14318 -5.1069888,-7.14318 l -3.89301118,0 0,-13 0,-13 2.56574148,0 c 3.2314157,0 6.4342585,-1.67297 6.4342585,-3.36087 0,-2.76396 4.5276598,-5.63913 8.8801928,-5.63913 5.422118,0 7.383502,1.08688 10.017431,5.55106 1.889927,3.20319 2.454588,3.53049 5.09155,2.95132 4.179051,-0.91788 6.791492,0.17279 8.547474,3.56849 0.833092,1.61102 2.005816,2.92913 2.606053,2.92913 0.600237,0 2.834029,-1.79572 4.963981,-3.99049 3.154573,-3.25057 3.945307,-4.86279 4.26454,-8.69489 0.384474,-4.61527 1.36634,-6.02331 6.193219,-8.88135 1.594661,-0.94421 0.718196,-2.11837 -7.631436,-10.22351 -8.67837,-8.42425 -18.019627,-17.78085 -22.672517,-22.70976 -1.038399,-1.1 -2.703378,-2.46376 -3.699953,-3.03059 -1.258855,-0.716 -1.965022,-2.62359 -2.313405,-6.24928 -0.484021,-5.0373 -0.364191,-5.34908 3.447358,-8.96942 2.171846,-2.06289 4.714442,-4.98821 5.650214,-6.50071 2.357734,-3.81083 5.051117,-3.44719 9.715869,1.31179 3.251619,3.31731 4.559109,4.00465 7.133388,3.75 5.607772,-0.55471 5.184584,-1.24016 -9.247074,-14.97767 -2.504213,-2.38377 -5.541713,-5.11722 -6.75,-6.07433 -1.743875,-1.38138 -2.196885,-2.783787 -2.196885,-6.801033 0,-4.854315 -0.145184,-5.121476 -3.558118,-6.547491 -3.2729,-1.367505 -3.533419,-1.782409 -3.25,-5.17598 0.220302,-2.637817 0.946525,-4.00572 2.548068,-4.7995 1.231972,-0.610608 3.271508,-2.645955 4.532301,-4.522993 3.343724,-4.978054 7.267309,-5.179915 11.214268,-0.576951 l 3.013481,3.514336 10.205593,0.319316 c 13.079804,0.409246 14.511657,-0.612072 8.235182,-5.874018 -2.442426,-2.047634 -7.478275,-6.773839 -11.190775,-10.502679 -6.30146,-6.329195 -6.75,-7.074692 -6.75,-11.218867 0,-3.556507 -0.396489,-4.564999 -1.99408,-5.072055 -3.18385,-1.010515 -5.00592,-3.415363 -5.00592,-6.607033 0,-2.323844 0.752171,-3.406089 3.489928,-5.021404 1.91946,-1.13251 4.06009,-3.254833 4.756955,-4.716275 0.921945,-1.933473 2.152938,-2.74271 4.519803,-2.971251 2.735404,-0.264128 3.529575,0.170785 4.993045,2.734344 0.957148,1.676636 2.301191,3.265745 2.986763,3.531354 0.685572,0.265609 10.918329,0.530012 22.73946,0.587562 l 21.492969,0.104637 12.51054,-12.574246 C 126.33749,9.1658683 128.41272,6.5828183 128.41272,4.0824063 l 0,-2.9976605 9.43963,0 9.43964,0 0.31036,3.6757131 c 0.22439,2.6574198 1.01402,4.1118423 2.85031,5.2500001 1.39696,0.865858 4.54696,3.744154 7,6.396213 2.45303,2.652059 6.93506,7.254708 9.96006,10.228108 l 5.5,5.406182 7.81139,0.02189 7.8114,0.02189 5.86733,6.25 c 6.74094,7.18058 6.69182,7.131194 14.00988,14.086689 3.025,2.87513 6.29787,6.450565 7.27305,7.94541 0.97518,1.49485 2.17276,2.717905 2.66128,2.717905 0.48852,0 3.49817,2.548121 6.6881,5.662491 l 5.79987,5.66249 -0.16801,7.880643 c -0.14291,6.702577 0.12451,8.135801 1.78884,9.58751 6.38389,5.568314 6.01809,4.722639 5.80414,13.41812 -0.17347,7.05025 0.0538,8.30803 1.66715,9.22594 1.02741,0.58455 2.90697,2.05486 4.1768,3.26736 2.22471,2.12427 2.30878,2.79043 2.30878,18.29545 l 0,16.09091 -2.75,2.44679 c -1.5125,1.34574 -3.79284,3.46279 -5.06742,4.70455 -16.11703,15.70205 -15.60289,15.0945 -13.71748,16.20966 5.3596,3.17001 6.03654,4.26143 5.95876,9.60727 -0.0713,4.89836 -0.353,5.46952 -4.4002,8.92064 -3.82928,3.26531 -4.24315,4.02091 -3.61708,6.60369 0.38884,1.60407 2.36893,4.33334 4.4002,6.06506 3.6906,3.14633 3.69306,3.15378 3.46468,10.5 -0.32145,10.34037 -0.0622,10.8484 5.54593,10.86674 5.65165,0.0185 5.34197,-0.17989 13.01195,8.33552 5.97403,6.63254 6.17066,7.02515 6.17066,12.32143 0,3.40785 -0.53866,6.00926 -1.42857,6.89917 -1.21971,1.2197 -16.57143,1.42857 -105,1.42857 -58.622374,0 -103.571433,-0.38025 -103.571433,-0.87617 z m 155.282123,-6.63173 c 4.57701,-2.14479 9.80267,-6.13269 11.64242,-8.88477 0.8665,-1.29621 2.39507,-3.50814 3.39681,-4.9154 1.6056,-2.25558 1.73809,-3.80157 1.11846,-13.05168 l -0.70289,-10.49302 -6.36032,-6.32362 c -3.49818,-3.47798 -6.84889,-7.78611 -7.44602,-9.57361 l -1.08568,-3.25 -22.67245,-0.20184 c -32.05395,-0.28535 -28.53375,-0.97164 -36.67245,7.14957 -3.85,3.84173 -8.04182,7.92943 -9.31515,9.08377 -1.86903,1.69437 -2.18594,2.7125 -1.64464,5.28365 0.36877,1.75167 0.97299,3.51225 1.3427,3.9124 0.36971,0.40016 6.01442,1.42786 12.54381,2.28379 13.20551,1.73109 12.8147,1.59025 18.20202,6.55951 9.61948,8.87299 13.37126,13.73542 13.37126,17.32961 0,5.22456 2.65736,6.59954 12.75462,6.59954 5.31633,0 9.46876,-0.54318 11.5275,-1.5079 z m -45.53212,-1.12847 c 2.8875,-0.27915 5.22579,-0.81266 5.19621,-1.18559 -0.0296,-0.37292 -2.61709,-1.87967 -5.75,-3.34832 -4.37015,-2.04865 -7.83909,-2.80196 -14.90117,-3.2359 -5.06273,-0.31109 -9.90023,-0.29882 -10.75,0.0273 -1.80536,0.69278 -2.07644,4.93245 -0.38233,5.97947 3.15922,1.95251 15.89319,2.79693 26.58729,1.76307 z m 77.03186,-1.19057 c 0.30736,-0.93523 -0.38509,-1.23043 -2.34576,-1 -1.53002,0.17982 -2.97811,0.92406 -3.21796,1.65388 -0.30736,0.93523 0.38509,1.23043 2.34576,1 1.53002,-0.17982 2.97811,-0.92406 3.21796,-1.65388 z M 54.912717,219.08475 c 0,-4.9417 -3.416754,-5.40067 -6.300358,-0.84633 -2.568659,4.05692 -2.010507,5.03906 2.64326,4.65116 3.454812,-0.28797 3.657098,-0.49843 3.657098,-3.80483 z M 36.83093,210.47776 c 1.546258,-0.59335 2.286637,-6.35483 0.984021,-7.65744 -1.999543,-1.99955 -5.560337,4.58156 -3.917313,7.24003 0.741056,1.19905 0.854348,1.21518 2.933292,0.41741 z m 58.647528,-29.42819 c 2.905881,-1.55518 2.5417,-5.77426 -0.565741,-6.55418 -6.334526,-1.58986 -10.067684,2.67748 -5.277494,6.03266 2.62167,1.83628 3.277239,1.8948 5.843235,0.52152 z m 91.369162,-2.94007 c 2.41181,-0.91697 2.5651,-1.38809 2.5651,-7.88337 0,-7.62703 -0.45139,-8.09732 -7.80103,-8.12773 -2.82205,-0.0117 -3.51321,-0.52149 -4.76342,-3.51365 -1.44613,-3.46109 -1.53064,-3.5 -7.60114,-3.5 -6.08641,0 -6.18436,-0.0456 -11.48658,-5.34783 l -5.34783,-5.34782 0,-27.43634 0,-27.436334 5.40802,-5.34084 5.40802,-5.34084 6.56426,0 c 5.54014,0 6.65712,-0.29253 7.15937,-1.875 0.78682,-2.479033 -0.24809,-5.549132 -2.11162,-6.264237 -0.8227,-0.315699 -8.53094,-0.283709 -17.12941,0.07109 l -15.63359,0.645088 -5.73859,5.828376 -5.73859,5.828377 -0.72869,9.719338 c -0.40078,5.345636 -0.44552,13.708522 -0.0994,18.584192 0.92516,13.03376 -1.82344,16.25548 -7.85974,9.21261 -2.76187,-3.22242 -3.56479,-3.55033 -10.1153,-4.13112 l -7.1153,-0.63087 -9.708949,9.47517 c -8.468417,8.26452 -9.778864,9.99647 -10.256172,13.55506 -0.746574,5.56584 2.700999,9.23193 8.681608,9.23193 5.060464,0 6.11488,-2.01981 3.148759,-6.03169 -2.591908,-3.50575 -2.717031,-6.15925 -0.384689,-8.15814 2.844002,-2.43739 12.863123,-7.81017 14.564353,-7.81017 0.86399,0 4.59841,2.925 8.29871,6.5 3.70029,3.575 7.08956,6.5 7.53169,6.5 1.7605,0 3.85525,6.2045 3.85525,11.41896 0,4.51086 0.2757,5.41247 1.51021,4.93875 0.83458,-0.32026 3.08233,0.6196 5.02437,2.10086 3.38101,2.57883 4.16247,2.709 20.62501,3.43559 19.84094,0.87571 19.84041,0.87543 19.84041,10.24728 0,4.42997 0.4039,5.99443 1.75,6.77846 2.23312,1.30067 4.45974,1.33105 7.6849,0.10485 z m 21.75962,-18.12769 c 3.64427,-0.83056 6.08044,-2.40931 10.88947,-7.05689 5.13379,-4.96143 6.6157,-5.88138 8.65114,-5.37051 4.20697,1.05588 5.2663,-0.778 3.75619,-6.50257 -0.71895,-2.72539 -1.07112,-5.85792 -0.78262,-6.96117 0.44027,-1.68359 0.0352,-2.00592 -2.52064,-2.00592 -3.35232,0 -6.19087,-2.21347 -6.18299,-4.82143 0.003,-0.92321 -0.21772,-7.94712 -0.49002,-15.60868 C 221.46968,98.765834 221.20529,97.238639 218.39093,91.224489 214.83482,83.625249 204.53115,72.938996 199,71.113552 c -5.386,-1.77754 -8.98799,0.276201 -9.40566,5.362811 -0.3004,3.658391 -0.18743,3.834303 2,3.114251 1.27511,-0.419738 4.44583,-0.973023 7.04605,-1.229522 4.49696,-0.443602 4.8248,-0.303123 6.71807,2.878647 1.09472,1.839754 3.57977,4.601691 5.52233,6.137639 l 3.53193,2.792632 -0.002,26.70737 -0.002,26.70737 -5.82421,5.75 c -5.68402,5.6116 -5.95797,5.75 -11.38179,5.75 -5.10282,0 -5.59589,0.20036 -6.02565,2.44851 -0.25743,1.34669 -0.0339,2.88265 0.49667,3.41325 1.11063,1.11063 10.06525,0.60046 16.93276,-0.9647 z M 56.23077,150.80907 c 0.192307,-1.00883 -0.990894,-3.0175 -2.739784,-4.65121 -1.693048,-1.58154 -3.078269,-3.32184 -3.078269,-3.86733 0,-1.23385 2.42345,-2.20578 5.5,-2.20578 5.279668,0 7.052585,-2.09871 3.416709,-4.04458 -1.535323,-0.82168 -3.442289,-0.81586 -7.25,0.0221 -2.84169,0.62538 -6.179209,1.34484 -7.416709,1.59881 -3.210416,0.65887 -2.785728,2.88766 1.25,6.56009 1.925,1.75171 3.5,3.92262 3.5,4.82425 0,3.90045 6.109477,5.4808 6.818053,1.76364 z m 11.353206,-40.37931 c 2.418366,-2.18859 2.313905,-5.19967 -0.276028,-7.95653 -2.964219,-3.155272 -1.637486,-4.388484 4.721284,-4.388484 l 5.498481,0 -0.307498,-4.25 -0.307498,-4.25 -15.871317,0.171317 c -8.729224,0.09422 -16.262371,0.562371 -16.740327,1.040327 -3.697063,3.697063 12.743061,21.1488 20.032903,21.26559 0.781693,0.0125 2.244193,-0.72197 3.25,-1.63222 z M 91.872248,68.344964 c 1.397258,-1.50688 2.540469,-3.050481 2.540469,-3.430225 0,-0.379743 -3.371258,-2.311953 -7.491685,-4.293798 -7.314626,-3.518194 -10.508315,-6.84551 -10.508315,-10.947991 0,-0.939384 -1.60799,-1.925332 -4.25,-2.605911 -2.3375,-0.602137 -5.690464,-1.547108 -7.451031,-2.099935 -3.762151,-1.181334 -7.310907,0.234181 -7.277506,2.902826 0.01829,1.461381 4.715969,6.642827 15.415604,17.003104 6.534813,6.32755 14.950343,7.86353 19.022464,3.47193 z M 158.2131,36.48039 c 0.28462,-3.88892 -0.0828,-4.500589 -7,-11.65312 -4.01521,-4.15182 -8.07729,-8.481775 -9.02686,-9.622121 -1.32261,-1.588353 -2.2583,-1.877957 -4,-1.238034 -3.33193,1.224196 -3.26756,4.22095 0.18394,8.564098 1.67526,2.108044 3.53678,5.682471 4.13672,7.94317 0.59993,2.2607 1.72755,5.595219 2.50581,7.410043 1.39208,3.246162 1.50817,3.294819 7.15752,3 l 5.74249,-0.29968 0.30038,-4.104356 z" style="fill:#b60000"/><path d="m 46.144745,255.08475 c -1.22777,-1.43393 -2.949938,-2 -6.084657,-2 -4.003925,0 -4.826011,-0.47287 -9.759788,-5.61384 -6.708891,-6.99065 -8.283098,-8.56485 -15.273739,-15.27374 -5.2991028,-5.08553 -5.6138438,-5.65823 -5.6138438,-10.21482 0,-5.39788 -1.5076896,-6.8976 -6.9342585,-6.8976 l -3.06574148,0 0,-11.5 0,-11.5 4.03372528,0 c 3.5671995,0 4.2780427,-0.41409 6.1461677,-3.58032 3.9315428,-6.66347 10.7758188,-6.78861 15.9219268,-0.29112 2.822808,3.56408 3.460572,3.87144 8.033236,3.87144 4.731351,0 5.036377,0.16605 6.429391,3.5 0.813662,1.94737 2.177366,3.5 3.07411,3.5 0.886445,0 3.692905,-2.2876 6.23658,-5.08355 3.747754,-4.11946 4.719688,-5.96411 5.124863,-9.72661 0.396101,-3.67823 1.015955,-4.899 2.982969,-5.8748 3.676697,-1.82395 5.139429,-4.21782 3.943101,-6.45318 -0.548041,-1.02402 -1.572805,-1.86186 -2.277255,-1.86186 -0.704449,0 -2.62869,-1.4625 -4.276091,-3.25 -1.647401,-1.7875 -3.8677,-3.99199 -4.933999,-4.89887 -1.066299,-0.90688 -2.933627,-2.70688 -4.149617,-4 -1.215991,-1.29312 -2.954628,-3.08749 -3.863637,-3.98749 -0.909009,-0.9 -2.766494,-2.77262 -4.127744,-4.16137 -1.36125,-1.38875 -2.997613,-3.04073 -3.636363,-3.67106 -9.618443,-9.49177 -9.661364,-9.55526 -9.661364,-14.2917 0,-3.97855 0.409216,-4.89471 3.015089,-6.75025 1.658299,-1.18082 3.694855,-3.46146 4.52568,-5.0681 2.041104,-3.94706 5.054607,-3.75374 9.023096,0.57884 2.656612,2.90034 3.902408,3.5 7.271315,3.5 6.218335,0 7.052116,-2.52142 2.361839,-7.14239 -2.03336,-2.00331 -4.290192,-4.25331 -5.015181,-5 -2.724402,-2.80594 -9.869194,-9.42187 -11.984953,-11.09783 -1.741168,-1.379223 -2.196885,-2.784562 -2.196885,-6.774747 0,-4.562991 -0.255666,-5.131743 -2.729648,-6.072349 -5.094123,-1.936782 -5.783911,-6.078636 -1.390693,-8.350457 1.583812,-0.819021 3.818635,-3.080577 4.966274,-5.02568 2.738744,-4.641825 5.563397,-4.651983 8.290543,-0.02981 2.558214,4.335849 3.786663,4.647986 16.863524,4.284845 10.103937,-0.280583 10.512331,-0.378573 10.826918,-2.597804 0.244085,-1.721876 -0.895267,-3.368833 -4.496649,-6.5 -2.652962,-2.306582 -7.637575,-7.012378 -11.076918,-10.457329 -5.769309,-5.778715 -6.253351,-6.603176 -6.253351,-10.651224 0,-3.954479 -0.345558,-4.591561 -3.5,-6.452728 -4.436325,-2.617496 -4.579847,-5.505204 -0.399951,-8.04715 1.705027,-1.036889 3.948413,-3.280275 4.985302,-4.985302 2.541946,-4.179896 5.429654,-4.036374 8.04715,0.399951 l 2.065051,3.5 19.151224,0.01101 c 10.533173,0.0061 20.823966,0.287537 22.868424,0.62552 3.438383,0.56842 4.054423,0.267552 8.212703,-4.011006 2.47252,-2.54404 4.96228,-4.625524 5.5328,-4.625524 0.57051,0 1.0373,-0.652099 1.0373,-1.449109 0,-0.79701 1.49481,-2.589255 3.3218,-3.982767 1.82699,-1.393512 3.89419,-3.603195 4.59379,-4.910406 0.6996,-1.307212 2.80479,-3.107686 4.6782,-4.001055 3.0399,-1.4496268 3.40621,-2.0562089 3.40621,-5.6404846 l 0,-4.0161786 8,0 8,0 0,4.4326123 c 0,3.6449016 0.37862,4.5527809 2.13057,5.1088279 2.7618,0.876562 12.45143,10.566193 13.32799,13.327993 0.37192,1.171812 1.06852,2.130567 1.54801,2.130567 0.47948,0 2.92153,1.774038 5.42677,3.942307 l 4.55498,3.942308 6.95604,-0.58317 c 6.66179,-0.5585 7.05332,-0.468453 9.25584,2.12869 1.26489,1.491522 4.65907,5.04241 7.54263,7.890861 2.88355,2.848452 7.91264,7.879004 11.17575,11.179004 3.26312,3.3 6.97884,7.042839 8.25718,8.31742 1.27833,1.274582 2.77424,2.769809 3.32424,3.322728 3.00396,3.019901 5.94309,5.817194 7.61364,7.246216 1.5526,1.328127 1.88636,3.008936 1.88636,9.49959 0,7.770333 0.0539,7.938307 3.67625,11.456683 3.66521,3.56002 3.67561,3.594105 3.46695,11.364047 l -0.2093,7.79332 4.09924,3.51187 4.09923,3.51188 -0.018,15.32283 -0.018,15.32283 -11.54956,11.22225 c -12.48507,12.13125 -12.48116,12.12133 -6.29674,15.95136 2.4018,1.48744 2.75,2.33146 2.75,6.66584 0,4.68204 -0.22626,5.1125 -4,7.60984 -3.64271,2.41063 -4,3.03364 -4,6.97476 0,2.38023 0.5625,4.80033 1.25,5.378 0.6875,0.57767 2.4875,1.97807 4,3.112 2.61011,1.95682 2.75,2.48023 2.75,10.28912 0,9.12548 0.7655,10.6201 5.45,10.64107 4.81418,0.0216 7.20809,0.97898 8.50446,3.40126 0.66125,1.23555 2.54384,3.03894 4.18354,4.00754 1.63971,0.9686 3.39769,2.85632 3.90663,4.19494 0.50895,1.33862 1.60711,2.69547 2.44036,3.01522 2.59779,0.99687 1.94564,7.84585 -1.03044,10.82194 l -2.54553,2.54545 -101.2323,0 c -99.994827,0 -101.253245,-0.0245 -102.944765,-2 z m 161.681385,-5.9831 c 4.72843,-2.17016 5.02309,-2.19027 7.82658,-0.53421 3.72528,2.20058 11.90978,2.84733 23.09374,1.82489 l 8.83373,-0.80758 -6.03487,-4.25 c -6.82654,-4.80753 -9.03684,-5.0978 -17.13259,-2.25 -9.46448,3.32927 -10.6643,2.5756 -6.9455,-4.36288 1.87511,-3.49854 1.99392,-4.86912 1.36062,-15.69627 l -0.69389,-11.86302 -3.86062,-3.46575 c -2.12333,-1.90615 -3.86061,-3.87263 -3.86061,-4.36993 0,-0.4973 -1.10341,-1.49472 -2.45202,-2.21647 -1.34861,-0.72176 -2.72511,-2.55566 -3.05889,-4.07535 -0.37792,-1.72066 -1.43351,-2.96744 -2.79798,-3.30478 -1.20511,-0.29794 -13.62594,-0.63128 -27.60184,-0.74076 l -25.41073,-0.19906 -7.08927,7.11348 c -3.8991,3.91242 -8.0942,8.02106 -9.32245,9.13031 -1.8883,1.70537 -2.14073,2.69123 -1.63461,6.3838 0.35114,2.56188 0.12297,5.25561 -0.55201,6.51682 -1.11794,2.0889 -0.97235,2.15336 5.13462,2.27325 3.45685,0.0679 9.63092,0.27794 13.72015,0.46683 l 7.43497,0.34345 5.31503,5.249 c 2.92327,2.88696 5.31503,5.80233 5.31503,6.4786 0,0.67628 1.2375,1.81978 2.75,2.54112 2.08903,0.99629 2.82973,2.15011 3.0817,4.80055 0.66465,6.99109 3.29944,8.09766 18.1683,7.6304 9.29397,-0.29207 12.44253,-0.79397 16.41341,-2.61644 z m -43.09164,0.62202 c 2.02303,-0.84528 3.67823,-1.94328 3.67823,-2.44001 0,-2.23829 -4.773,-7.72814 -6.99549,-8.04613 -1.33472,-0.19097 -4.26846,-1.61434 -6.51943,-3.16305 -3.98384,-2.74095 -12.54256,-4.99575 -18.91874,-4.98415 -5.09433,0.009 -10.43205,1.93761 -13.97569,5.04897 -3.31037,2.90654 -5.93838,3.49493 -10.34065,2.31516 -1.53058,-0.41018 -2.25,-1.36055 -2.25,-2.97231 0,-2.36311 -0.0118,-2.36083 -4.46677,0.86663 -4.89605,3.54696 -6.072802,6.0644 -5.138333,10.99254 l 0.615023,3.24343 30.31681,0.33789 c 25.55245,0.28479 30.89486,0.0964 33.99504,-1.19897 z M 55.242957,220.75566 c 0.987829,-5.20892 -2.355664,-9.67091 -7.246681,-9.67091 -3.705747,0 -6.310213,-2.31989 -7.457369,-6.64255 -0.554383,-2.089 -1.462017,-2.9408 -3.374995,-3.16738 -3.575855,-0.42354 -5.170081,2.73717 -4.360347,8.64482 0.855176,6.2392 2.773541,8.78577 7.251227,9.62579 2.065683,0.38752 4.678768,1.35811 5.806856,2.15687 2.864729,2.02841 8.933243,1.41605 9.381309,-0.94664 z m 38.66976,-9.47569 c 9.496453,-8.40297 15.623133,-15.43402 14.874313,-17.06993 -0.40918,-0.89391 -0.81767,-5.60045 -0.90775,-10.45898 l -0.1638,-8.83369 -4.10784,-4.16631 c -2.25931,-2.29147 -4.834576,-4.95381 -5.72281,-5.91631 -0.888233,-0.9625 -2.370327,-1.74337 -3.293542,-1.73526 -1.180964,0.0104 -0.960864,0.38093 0.74246,1.25 5.943202,3.03234 2.530143,5.39382 -8.546081,5.913 l -6.87495,0.32226 0.124035,-5.06846 0.124035,-5.06847 -6.484173,-1.11069 c -4.264395,-0.73046 -7.343574,-1.9052 -8.99456,-3.43154 -2.791996,-2.58119 -6.588362,-10.49563 -5.713506,-11.91118 0.809205,-1.30932 3.834517,-1.11931 5.28581,0.33198 0.988854,0.98886 1.433636,0.93796 2.184687,-0.25 1.614106,-2.55307 1.067904,-6.89741 -1.145476,-9.11079 -1.915159,-1.91516 -2.949954,-2.07507 -10.75,-1.66123 -8.460238,0.44886 -14.075502,-0.70301 -15.621488,-3.20447 -1.361238,-2.20253 -3.509364,-0.99287 -3.509364,1.9762 0,3.13899 5.071954,10.70421 9.524574,14.20664 1.326561,1.04347 2.988715,3.07789 3.693677,4.52092 0.704962,1.44303 2.662682,3.10911 4.350489,3.70239 4.680812,1.64536 8.083192,4.80877 10.481587,9.74539 1.979131,4.07365 2.724572,4.65069 8.27435,6.40515 5.505956,1.7406 6.181988,2.25699 6.949671,5.30854 1.751621,6.96273 7.455325,13.70047 12.820936,15.14528 4.632041,1.24728 6.574302,0.51397 8.499539,-3.20903 2.01525,-3.89706 4.79774,-3.40956 5.21648,0.91395 0.25784,2.66219 -0.47055,4.03014 -4.24112,7.96507 -4.081827,4.25976 -4.992672,4.74287 -8.811302,4.67349 -2.342385,-0.0426 -6.171381,-0.42728 -8.508881,-0.85493 -4.500964,-0.82346 -4.866003,-0.53374 -3.214816,2.55153 0.714541,1.33513 2.097495,1.93426 4.464816,1.93426 3.961662,0 6.040889,2.70879 5.064701,6.59823 -0.589697,2.34954 -0.792442,2.39534 -7.835031,1.77001 -3.976319,-0.35307 -8.12967,-1.08293 -9.22967,-1.62191 -1.922788,-0.94213 -1.931439,-0.90827 -0.224099,0.87704 1.822806,1.90605 11.29319,3.51355 15.224099,2.58414 1.1,-0.26008 3.8,-2.06561 6,-4.01229 z m 7.170723,-36.45563 c 0.82855,-4.35346 1.04297,-4.47035 3.56817,-1.94515 2.40522,2.40523 1.54751,4.30994 -2.19824,4.88159 -1.73595,0.26492 -1.90872,-0.10543 -1.36993,-2.93644 z m -35.645867,25.01103 c -0.440216,-4.86464 -0.500248,-4.96722 -0.816635,-1.39546 -0.300971,3.39774 0.192547,6.64365 1.010394,6.64546 0.154762,3.4e-4 0.06757,-2.36216 -0.193759,-5.25 z m 11.975144,-1.31636 c 0,-1.60537 -2.255311,-4.43426 -3.535184,-4.43426 -1.770423,0 -1.919899,2.14492 -0.264816,3.8 1.22577,1.22577 3.8,1.65544 3.8,0.63426 z M 189.15944,176.41645 c 0.6893,-0.94268 1.26017,-3.76545 1.26859,-6.27283 0.0231,-6.87303 0.59045,-7.2838 11.16514,-8.08359 l 9.36695,-0.70845 7.33098,-7.21555 c 6.07619,-5.98051 7.73891,-7.11317 9.71422,-6.61739 1.31078,0.32898 3.28867,0.0327 4.39532,-0.65842 1.66192,-1.03789 2.01208,-2.32726 2.01208,-7.40903 0,-6.65586 -0.57977,-7.36644 -6.01036,-7.36644 -3.14158,0 -5.94294,-2.22334 -6.07489,-4.82143 -0.0469,-0.92321 -0.0174,-3.97434 0.0656,-6.78028 0.083,-2.80594 -0.36202,-10.67681 -0.98889,-17.49081 -1.2723,-13.829631 -0.32578,-12.003527 -12.68261,-24.468308 -7.15437,-7.216876 -11.74854,-9.296161 -16.01825,-7.249741 -3.14112,1.505497 -3.76944,3.444778 -2.79646,8.631158 0.61131,3.258599 0.78711,3.423694 1.75709,1.650136 1.5805,-2.889862 2.77629,-3.438415 7.53247,-3.455416 3.77672,-0.0135 4.51266,0.369342 6.21807,3.234687 1.06389,1.7875 3.52371,4.506684 5.46627,6.042632 l 3.53196,2.792632 -0.002,26.70737 -0.002,26.70737 -5.82421,5.75 c -5.34348,5.2754 -6.1935,5.75 -10.29837,5.75 -2.46079,0 -4.96067,-0.48651 -5.55528,-1.08112 -0.77483,-0.77483 -1.20158,-0.0494 -1.50629,2.5607 -0.23384,2.00301 -0.0405,3.87957 0.42968,4.17015 0.47017,0.29058 0.33201,1.15831 -0.30702,1.92829 -0.63902,0.76998 -1.60641,1.12522 -2.14974,0.78942 -0.54333,-0.3358 -3.29232,-0.89334 -6.10886,-1.23899 -4.96676,-0.60952 -5.17291,-0.76399 -6.84444,-5.12845 -0.94789,-2.475 -1.74792,-3.9375 -1.77783,-3.25 -0.0368,0.84615 -1.88049,1.25 -5.70655,1.25 -5.4983,0 -5.79777,-0.1456 -11,-5.34783 l -5.34709,-5.34782 0,-27.43634 0,-27.436334 5.40802,-5.34084 5.40802,-5.34084 6.56426,0 c 5.54014,0 6.65712,-0.29253 7.15937,-1.875 0.78682,-2.479033 -0.24809,-5.549132 -2.11162,-6.264237 -0.8227,-0.315699 -8.53094,-0.283709 -17.12941,0.07109 l -15.63359,0.645088 -5.73859,5.828376 -5.73859,5.828377 -0.72869,9.719338 c -0.40078,5.345636 -0.44552,13.708522 -0.0994,18.584192 0.92516,13.03376 -1.82344,16.25548 -7.85974,9.21261 -2.76187,-3.22242 -3.56479,-3.55033 -10.1153,-4.13112 l -7.1153,-0.63087 -9.708949,9.47517 c -8.468417,8.26452 -9.778864,9.99647 -10.256172,13.55506 -0.465855,3.47322 -0.156851,4.47027 2.078052,6.70517 5.597719,5.59772 19.104149,1.34087 18.416789,-5.80446 -0.228,-2.3701 0.14221,-3.19818 1.5571,-3.48286 2.7301,-0.54931 4.26283,1.36325 2.64996,3.30664 -1.12732,1.35833 -0.55916,2.27177 4.09238,6.57937 2.97079,2.75113 6.63894,5.47943 8.15144,6.06289 1.5125,0.58346 2.75689,1.57931 2.76531,2.21301 0.0421,3.17037 1.61819,3.79459 5.23095,2.07178 3.44558,-1.64308 3.65355,-1.62714 6.65523,0.51025 1.70418,1.21348 3.09851,2.57384 3.09851,3.02301 0,1.18024 8.63936,1.99516 23.21261,2.18955 6.99193,0.0933 12.49709,0.51828 12.23368,0.94448 -0.2634,0.4262 -0.0216,1.05756 0.5374,1.40302 0.55897,0.34546 1.01631,2.85156 1.01631,5.5691 0,6.58465 2.60636,9.42882 7.85929,8.57639 1.99878,-0.32436 4.19813,-1.36103 4.88743,-2.30371 z M 68.377533,119.15049 c 0.569351,-1.06384 1.035184,-4.57783 1.035184,-7.80887 0,-6.21036 0.813155,-7.85214 5.25,-10.5999 2.333455,-1.445112 2.75,-2.377716 2.75,-6.156974 0,-6.762627 -1.3379,-7.200432 -20,-6.544659 l -15.5,0.544659 -0.305245,4.761114 c -0.290983,4.538658 -0.07639,4.984028 4.592895,9.53205 2.693977,2.62402 6.206337,5.60505 7.805245,6.62453 1.598908,1.01947 4.854501,4.04254 7.234652,6.71794 4.804411,5.40039 5.633137,5.74061 7.137269,2.93011 z M 39.229139,83.834746 c 0.273329,-2.375479 -0.03737,-2.75 -2.281384,-2.75 -2.766445,0 -4.136572,1.990044 -3.146498,4.570137 1.036401,2.700817 5.063054,1.350555 5.427882,-1.820137 z M 87.429046,71.098401 c 0.833981,-0.0075 3.874071,-2.16986 6.755756,-4.805222 4.41881,-4.041095 5.277685,-5.40338 5.483675,-8.697825 0.24275,-3.882406 0.21745,-3.910981 -4.143856,-4.679862 -5.133768,-0.905063 -6.107471,-1.589456 -4.082944,-2.869806 2.413379,-1.526268 5.543409,-1.090949 7.47104,1.03906 2.317723,2.561055 2.724053,2.523803 6.423273,-0.588894 4.90776,-4.129601 4.05055,-4.75481 -5.673273,-4.137822 -7.529986,0.477787 -9.19124,0.284283 -11.914594,-1.387818 -2.801234,-1.719919 -4.753181,-1.911008 -17,-1.664242 l -13.835406,0.278776 -0.315709,4.418053 c -0.284623,3.983028 0.06,4.789481 3.5,8.190243 2.09864,2.074704 4.490709,4.503511 5.315709,5.397347 4.25428,4.60925 15.56725,10.731936 18.5,10.012374 1.1,-0.269889 2.682348,-0.496852 3.516329,-0.504362 z M 126.08036,42.348794 c 1.0078,-2.054773 2.96631,-4.361485 4.35224,-5.126027 2.292,-1.264367 2.86982,-1.152597 6.38955,1.235952 3.39948,2.306949 4.86668,2.626027 12.07513,2.626027 6.79094,0 8.50182,-0.327472 9.9246,-1.89962 2.36807,-2.616691 1.20976,-8.468377 -2.20851,-11.157189 -1.4136,-1.111938 -3.35599,-3.313861 -4.31642,-4.893162 -0.96043,-1.579301 -2.64461,-3.156588 -3.74262,-3.505083 -1.09801,-0.348495 -2.91388,-2.188674 -4.03527,-4.089287 -1.62788,-2.759052 -2.66369,-3.455659 -5.13836,-3.455659 -4.16808,0 -6.64037,1.465784 -8.48331,5.029644 -0.84482,1.633696 -2.17542,2.970356 -2.9569,2.970356 -0.78147,0 -3.02571,2.417812 -4.9872,5.372915 -2.96916,4.473233 -3.53605,6.173622 -3.38546,10.154762 0.18487,4.887638 -0.31102,5.672917 -5.78655,9.163516 -1.5644,0.99729 -0.86459,1.200765 4.29908,1.25 6.14948,0.05863 6.17304,0.04781 8,-3.677145 z M 54.229139,38.334746 c -0.364828,-3.170692 -4.391481,-4.520954 -5.427882,-1.820137 -0.990074,2.580093 0.380053,4.570137 3.146498,4.570137 2.244013,0 2.554713,-0.374521 2.281384,-2.75 z" style="fill:#ff4500"/><path d="m 46.144745,255.08475 c -1.22777,-1.43393 -2.949938,-2 -6.084657,-2 -4.003925,0 -4.826011,-0.47287 -9.759788,-5.61384 -6.708891,-6.99065 -8.283098,-8.56485 -15.273739,-15.27374 -5.2991028,-5.08553 -5.6138438,-5.65823 -5.6138438,-10.21482 0,-5.39788 -1.5076896,-6.8976 -6.9342585,-6.8976 l -3.06574148,0 0,-11.5 0,-11.5 4.03372528,0 c 3.5671995,0 4.2780427,-0.41409 6.1461677,-3.58032 3.9315428,-6.66347 10.7758188,-6.78861 15.9219268,-0.29112 2.822808,3.56408 3.460572,3.87144 8.033236,3.87144 4.731351,0 5.036377,0.16605 6.429391,3.5 0.813662,1.94737 2.177366,3.5 3.07411,3.5 0.886445,0 3.692905,-2.2876 6.23658,-5.08355 3.747754,-4.11946 4.719688,-5.96411 5.124863,-9.72661 0.396101,-3.67823 1.015955,-4.899 2.982969,-5.8748 3.676697,-1.82395 5.139429,-4.21782 3.943101,-6.45318 -0.548041,-1.02402 -1.572805,-1.86186 -2.277255,-1.86186 -0.704449,0 -2.62869,-1.4625 -4.276091,-3.25 -1.647401,-1.7875 -3.8677,-3.99199 -4.933999,-4.89887 -1.066299,-0.90688 -2.933627,-2.70688 -4.149617,-4 -1.215991,-1.29312 -2.954628,-3.08749 -3.863637,-3.98749 -0.909009,-0.9 -2.766494,-2.77262 -4.127744,-4.16137 -1.36125,-1.38875 -2.997613,-3.04073 -3.636363,-3.67106 -9.618443,-9.49177 -9.661364,-9.55526 -9.661364,-14.2917 0,-3.97855 0.409216,-4.89471 3.015089,-6.75025 1.658299,-1.18082 3.694855,-3.46146 4.52568,-5.0681 2.041104,-3.94706 5.054607,-3.75374 9.023096,0.57884 2.656612,2.90034 3.902408,3.5 7.271315,3.5 6.218335,0 7.052116,-2.52142 2.361839,-7.14239 -2.03336,-2.00331 -4.290192,-4.25331 -5.015181,-5 -2.724402,-2.80594 -9.869194,-9.42187 -11.984953,-11.09783 -1.741168,-1.379223 -2.196885,-2.784562 -2.196885,-6.774747 0,-4.562991 -0.255666,-5.131743 -2.729648,-6.072349 -5.094123,-1.936782 -5.783911,-6.078636 -1.390693,-8.350457 1.583812,-0.819021 3.818635,-3.080577 4.966274,-5.02568 2.738744,-4.641825 5.563397,-4.651983 8.290543,-0.02981 2.558214,4.335849 3.786663,4.647986 16.863524,4.284845 10.103937,-0.280583 10.512331,-0.378573 10.826918,-2.597804 0.244085,-1.721876 -0.895267,-3.368833 -4.496649,-6.5 -2.652962,-2.306582 -7.637575,-7.012378 -11.076918,-10.457329 -5.769309,-5.778715 -6.253351,-6.603176 -6.253351,-10.651224 0,-3.954479 -0.345558,-4.591561 -3.5,-6.452728 -4.436325,-2.617496 -4.579847,-5.505204 -0.399951,-8.04715 1.705027,-1.036889 3.948413,-3.280275 4.985302,-4.985302 2.541946,-4.179896 5.429654,-4.036374 8.04715,0.399951 l 2.065051,3.5 19.151224,0.01101 c 10.533173,0.0061 20.823966,0.287537 22.868424,0.62552 3.438383,0.56842 4.054423,0.267552 8.212703,-4.011006 2.47252,-2.54404 4.96228,-4.625524 5.5328,-4.625524 0.57051,0 1.0373,-0.652099 1.0373,-1.449109 0,-0.79701 1.49481,-2.589255 3.3218,-3.982767 1.82699,-1.393512 3.89419,-3.603195 4.59379,-4.910406 0.6996,-1.307212 2.80479,-3.107686 4.6782,-4.001055 3.0399,-1.4496268 3.40621,-2.0562089 3.40621,-5.6404846 l 0,-4.0161786 8,0 8,0 0,4.4326123 c 0,3.6449016 0.37862,4.5527809 2.13057,5.1088279 2.7618,0.876562 12.45143,10.566193 13.32799,13.327993 0.37192,1.171812 1.06852,2.130567 1.54801,2.130567 0.47948,0 2.92153,1.774038 5.42677,3.942307 l 4.55498,3.942308 6.95604,-0.58317 c 6.66179,-0.5585 7.05332,-0.468453 9.25584,2.12869 1.26489,1.491522 4.65907,5.04241 7.54263,7.890861 2.88355,2.848452 7.91264,7.879004 11.17575,11.179004 3.26312,3.3 6.97884,7.042839 8.25718,8.31742 1.27833,1.274582 2.77424,2.769809 3.32424,3.322728 3.00396,3.019901 5.94309,5.817194 7.61364,7.246216 1.5526,1.328127 1.88636,3.008936 1.88636,9.49959 0,7.770333 0.0539,7.938307 3.67625,11.456683 3.66521,3.56002 3.67561,3.594105 3.46695,11.364047 l -0.2093,7.79332 4.09924,3.51187 4.09923,3.51188 -0.018,15.32283 -0.018,15.32283 -11.54956,11.22225 c -12.48507,12.13125 -12.48116,12.12133 -6.29674,15.95136 2.4018,1.48744 2.75,2.33146 2.75,6.66584 0,4.68204 -0.22626,5.1125 -4,7.60984 -3.64271,2.41063 -4,3.03364 -4,6.97476 0,2.38023 0.5625,4.80033 1.25,5.378 0.6875,0.57767 2.4875,1.97807 4,3.112 2.61011,1.95682 2.75,2.48023 2.75,10.28912 0,9.12548 0.7655,10.6201 5.45,10.64107 4.81418,0.0216 7.20809,0.97898 8.50446,3.40126 0.66125,1.23555 2.54384,3.03894 4.18354,4.00754 1.63971,0.9686 3.39769,2.85632 3.90663,4.19494 0.50895,1.33862 1.60711,2.69547 2.44036,3.01522 2.59779,0.99687 1.94564,7.84585 -1.03044,10.82194 l -2.54553,2.54545 -101.2323,0 c -99.994827,0 -101.253245,-0.0245 -102.944765,-2 z m 161.681385,-5.9831 c 4.72843,-2.17016 5.02309,-2.19027 7.82658,-0.53421 3.72528,2.20058 11.90978,2.84733 23.09374,1.82489 l 8.83373,-0.80758 -6.03487,-4.25 c -6.82654,-4.80753 -9.03684,-5.0978 -17.13259,-2.25 -9.46448,3.32927 -10.6643,2.5756 -6.9455,-4.36288 1.87511,-3.49854 1.99392,-4.86912 1.36062,-15.69627 l -0.69389,-11.86302 -3.86062,-3.46575 c -2.12333,-1.90615 -3.86061,-3.87263 -3.86061,-4.36993 0,-0.4973 -1.09069,-1.48791 -2.42376,-2.20135 -1.33307,-0.71344 -2.71416,-2.45419 -3.06909,-3.86834 -0.35493,-1.41414 -1.69087,-3.54015 -2.96875,-4.72445 -2.03407,-1.88511 -3.60425,-2.1748 -12.60804,-2.32605 -11.75783,-0.19752 -14.93036,-0.77223 -14.93036,-2.70469 0,-1.92628 5.26038,-4.41727 9.32822,-4.41727 1.88514,0 5.09837,0.69812 7.14051,1.55138 3.11801,1.30279 4.56718,1.36023 9.04363,0.35844 3.93259,-0.88007 6.45005,-0.90881 9.59879,-0.10958 4.56507,1.15874 5.88885,0.87526 5.88885,-1.26107 0,-0.91305 -2.00024,-1.54516 -6.25,-1.97511 -18.72077,-1.89397 -18.75753,-1.91435 -18.73469,-10.38549 0.008,-3.12321 0.41646,-6.31223 0.90675,-7.08671 0.60436,-0.95465 3.94687,-1.63923 10.37909,-2.12571 5.2182,-0.39467 9.94904,-1.00274 10.51299,-1.35128 0.56394,-0.34853 3.60904,-0.87276 6.7669,-1.16495 6.76498,-0.62596 7.41896,-0.93745 7.41896,-3.53369 0,-1.1866 1.01007,-2.34976 2.54837,-2.93462 1.47171,-0.55954 3.16167,-2.43672 4,-4.44313 1.61062,-3.85477 1.99141,-15.53848 0.50642,-15.53848 -0.51986,0 -1.08236,-2.1375 -1.25,-4.75 -0.24542,-3.82475 -0.74864,-4.94468 -2.58342,-5.74945 -2.60556,-1.14286 -3.71371,-4.64945 -4.73981,-14.99844 -0.38161,-3.84884 -1.54608,-8.668419 -2.5877,-10.710167 -1.04162,-2.041749 -1.89386,-4.257265 -1.89386,-4.923368 0,-0.666104 -0.69423,-1.978218 -1.54274,-2.91581 -0.84851,-0.937592 -1.80939,-3.448025 -2.13529,-5.578741 -0.62884,-4.111337 -2.79872,-7.374028 -4.90415,-7.374028 -0.69972,0 -2.54247,-1.538441 -4.09502,-3.418759 -1.68227,-2.037441 -4.99941,-4.275605 -8.20991,-5.539453 -2.96292,-1.166382 -6.21016,-3.167029 -7.21611,-4.445882 -2.26466,-2.879045 -4.65802,-3.829122 -17.89678,-7.104368 -8.73485,-2.160987 -11.98021,-2.508906 -19.30505,-2.069602 -4.84278,0.290444 -9.22262,0.78615 -9.73298,1.10157 -0.51036,0.315419 -5.18418,0.932606 -10.38626,1.371527 -6.68645,0.564162 -10.2549,1.35587 -12.17644,2.701502 -1.49496,1.046906 -4.42788,2.868758 -6.5176,4.04856 -5.17462,2.921465 -8.01276,5.23371 -17.631673,14.364612 -4.757849,4.516462 -8.25,8.645378 -8.25,9.754317 0,2.848146 -3.639971,12.910606 -5.79672,16.02466 -1.032806,1.49122 -2.226743,3.61132 -2.653193,4.71132 -1.24545,3.21256 -2.587422,14.1492 -3.190416,26.00088 l -0.559707,11.00089 3.600018,5.3496 c 1.98001,2.94229 3.600018,5.60645 3.600018,5.92038 0,2.1646 3.755554,4.22825 7.694826,4.22825 4.816165,0 12.305177,3.2661 12.305177,5.36653 0,0.72923 2.025,3.16879 4.5,5.42124 3.48138,3.16834 4.5,4.79575 4.5,7.18953 0,3.08764 0.99185,4.34633 7.5,9.51771 2.48854,1.9774 2.81199,2.69249 1.89723,4.1944 -0.83074,1.36395 -2.77221,1.93393 -7.8703,2.31059 -6.33628,0.46814 -6.82243,0.3555 -7.62921,-1.76772 -0.47393,-1.24725 -0.7573,-5.62882 -0.62971,-9.73683 l 0.23199,-7.46912 -4.20646,-4.26316 c -2.31355,-2.34474 -4.933196,-5.05067 -5.82143,-6.01317 -0.888233,-0.9625 -2.370327,-1.74337 -3.293542,-1.73526 -1.180964,0.0104 -0.960864,0.38093 0.74246,1.25 5.943202,3.03234 2.530143,5.39382 -8.546081,5.913 l -6.87495,0.32226 0.124035,-5.06846 0.124035,-5.06847 -6.484173,-1.11069 c -4.264395,-0.73046 -7.343574,-1.9052 -8.99456,-3.43154 -2.791996,-2.58119 -6.588362,-10.49563 -5.713506,-11.91118 0.809205,-1.30932 3.834517,-1.11931 5.28581,0.33198 0.988854,0.98886 1.433636,0.93796 2.184687,-0.25 1.614106,-2.55307 1.067904,-6.89741 -1.145476,-9.11079 -1.915159,-1.91516 -2.949954,-2.07507 -10.75,-1.66123 -8.460238,0.44886 -14.075502,-0.70301 -15.621488,-3.20447 -1.361238,-2.20253 -3.509364,-0.99287 -3.509364,1.9762 0,3.13899 5.071954,10.70421 9.524574,14.20664 1.326561,1.04347 2.988715,3.07789 3.693677,4.52092 0.704962,1.44303 2.662682,3.10911 4.350489,3.70239 4.680812,1.64536 8.083192,4.80877 10.481587,9.74539 1.979131,4.07365 2.724572,4.65069 8.27435,6.40515 5.505956,1.7406 6.181988,2.25699 6.949671,5.30854 1.751621,6.96273 7.455325,13.70047 12.820936,15.14528 4.632041,1.24728 6.574302,0.51397 8.499539,-3.20903 2.01525,-3.89706 4.79774,-3.40956 5.21648,0.91395 0.25784,2.66219 -0.47055,4.03014 -4.24112,7.96507 -4.081827,4.25976 -4.992672,4.74287 -8.811302,4.67349 -2.342385,-0.0426 -6.171381,-0.42728 -8.508881,-0.85493 -4.500964,-0.82346 -4.866003,-0.53374 -3.214816,2.55153 0.714541,1.33513 2.097495,1.93426 4.464816,1.93426 3.961662,0 6.040889,2.70879 5.064701,6.59823 -0.589697,2.34954 -0.792442,2.39534 -7.835031,1.77001 -3.976319,-0.35307 -8.12967,-1.05577 -9.22967,-1.56155 -1.638383,-0.75334 -1.57315,-0.54779 0.360784,1.13685 1.676614,1.46048 3.850161,2.08557 7.5,2.15691 l 5.139216,0.10045 -4,0.96985 c -2.2,0.53341 -6.475,0.68973 -9.5,0.34737 -3.025,-0.34237 -6.625,-0.64199 -8,-0.66583 -5.435516,-0.0942 -8.844391,-0.98274 -11.024435,-2.87348 -1.254871,-1.08835 -3.717986,-1.97881 -5.473587,-1.97881 -3.619718,0 -6.238977,-2.35887 -7.375788,-6.64255 -0.560078,-2.11046 -1.457737,-2.93996 -3.433799,-3.17306 -3.558105,-0.41972 -5.185194,3.04369 -4.276541,9.10302 0.892431,5.95116 2.592879,7.99732 7.674336,9.23455 5.458613,1.32906 5.974461,2.97157 1.4067,4.47907 -5.825356,1.92254 -4.161028,3.94919 7.010485,8.53668 5.495946,2.25686 12.242629,5.44373 14.992629,7.08192 7.193841,4.28543 9.797987,5.06394 21.216393,6.34263 7.158797,0.80168 10.801669,0.83085 12.171987,0.0975 1.681866,-0.90011 2.040862,-0.6626 2.56477,1.69683 l 0.609173,2.74343 30.29061,0.33789 c 25.52892,0.28477 30.86883,0.0963 33.96884,-1.19897 2.02303,-0.84528 3.67823,-1.94328 3.67823,-2.44001 0,-2.23829 -4.773,-7.72814 -6.99549,-8.04613 -1.33472,-0.19097 -4.26846,-1.61434 -6.51943,-3.16305 -3.98384,-2.74095 -12.54256,-4.99575 -18.91874,-4.98415 -5.09433,0.009 -10.43205,1.93761 -13.97569,5.04897 -3.31037,2.90654 -5.93838,3.49493 -10.34065,2.31516 -1.55459,-0.41661 -2.25,-1.35784 -2.25,-3.04536 0,-1.6425 -0.40937,-2.22423 -1.25,-1.77626 -1.0765,0.57366 0.65009,-1.31609 8.25,-9.02962 3.30896,-3.35843 9.80028,-8.51847 10.71621,-8.51847 0.5356,0 1.75443,0.86257 2.70851,1.91681 1.38388,1.52918 1.50923,2.3381 0.6198,4 -1.07211,2.00326 -0.87373,2.08792 5.1703,2.20658 3.45685,0.0679 9.63092,0.27794 13.72015,0.46683 l 7.43497,0.34345 5.31503,5.249 c 2.92327,2.88696 5.31503,5.80233 5.31503,6.4786 0,0.67628 1.2375,1.81978 2.75,2.54112 2.08903,0.99629 2.82973,2.15011 3.0817,4.80055 0.66465,6.99109 3.29944,8.09766 18.1683,7.6304 9.29397,-0.29207 12.44253,-0.79397 16.41341,-2.61644 z M 92.360557,212.64027 c 2.852601,-3.03645 3.488172,-3.23873 2.115124,-0.67317 -0.554072,1.03529 -1.796818,2.18528 -2.761657,2.55552 -1.307388,0.50169 -1.142695,0.0222 0.646533,-1.88235 z m 50.052163,-33.48373 c -8.62367,-0.51905 -9.8458,-0.84844 -13.24875,-3.57088 -2.06181,-1.64949 -5.88176,-3.4516 -8.48877,-4.00468 -3.67093,-0.77879 -5.03715,-1.62555 -6.05743,-3.75429 -0.72458,-1.51178 -2.52963,-3.38608 -4.01123,-4.16511 -4.13493,-2.17416 -10.896393,-9.75355 -11.432588,-12.81556 -0.389697,-2.22542 0.159722,-3.22634 2.931448,-5.34044 2.79398,-2.13107 3.35643,-3.16791 3.10918,-5.73158 -0.23062,-2.39123 0.13619,-3.21799 1.55436,-3.50333 2.7301,-0.54931 4.26283,1.36325 2.64996,3.30664 -1.12732,1.35833 -0.55916,2.27177 4.09238,6.57937 2.97079,2.75113 6.59759,5.46501 8.05954,6.03085 1.52754,0.59122 2.92403,2.0883 3.28332,3.51983 0.4881,1.94477 1.067,2.3508 2.63988,1.85159 1.10807,-0.35169 2.55558,-0.19249 3.21669,0.35378 2.54988,2.10695 16.8733,4.17202 28.93735,4.17202 15.64337,0 16.76466,0.60097 16.76466,8.98528 0,8.54798 -0.79142,9.05396 -13.82143,8.83651 -5.87321,-0.098 -14.95357,-0.43552 -20.17857,-0.75 z m -41.32928,-4.3322 c 0.82855,-4.35346 1.04297,-4.47035 3.56817,-1.94515 2.40522,2.40523 1.54751,4.30994 -2.19824,4.88159 -1.73595,0.26492 -1.90872,-0.10543 -1.36993,-2.93644 z m 81.38278,-17.68231 c -2.89305,-3.09703 -8.0535,-5.12551 -8.0535,-3.16569 0,0.68048 -2.18218,1.10841 -5.65217,1.10841 -5.4983,0 -5.79777,-0.1456 -11,-5.34783 l -5.34783,-5.34782 0,-27.43634 0,-27.436334 5.35579,-5.289262 c 5.12051,-5.056898 5.60208,-5.295028 10.96199,-5.420521 3.0834,-0.07219 5.88765,0.150197 6.23165,0.494198 1.76474,1.764737 2.40643,10.644243 2.44146,33.783909 0.0385,25.4735 0.54615,29.69496 3.69538,30.73312 3.92628,1.29431 7.27237,-15.85184 8.04669,-41.23312 0.67922,-22.26396 1.57838,-24.454405 10.05077,-24.484691 3.77672,-0.0135 4.51266,0.369342 6.21807,3.234687 1.06389,1.7875 3.52371,4.506684 5.46627,6.042632 l 3.53193,2.792632 -0.002,26.70737 -0.002,26.70737 -5.82421,5.75 c -5.34348,5.2754 -6.1935,5.75 -10.29837,5.75 -2.46079,0 -4.95042,-0.47626 -5.53252,-1.05836 -0.74449,-0.74449 -1.55914,-0.003 -2.74692,2.5 -2.05411,4.32871 -3.92965,4.48183 -7.54122,0.61564 z M 21.412717,204.94499 c 0,-2.19872 -2.531465,-4.77199 -4.75,-4.82844 -1.594893,-0.0406 -1.631535,4.18666 -0.05,5.7682 1.997942,1.99794 4.8,1.44935 4.8,-0.93976 z m 44.024856,-5.10962 c -0.440216,-4.86464 -0.500248,-4.96722 -0.816635,-1.39546 -0.300971,3.39774 0.192547,6.64365 1.010394,6.64546 0.154762,3.4e-4 0.06757,-2.36216 -0.193759,-5.25 z m 11.975144,-1.31636 c 0,-1.60537 -2.255311,-4.43426 -3.535184,-4.43426 -1.770423,0 -1.919899,2.14492 -0.264816,3.8 1.22577,1.22577 3.8,1.65544 3.8,0.63426 z m -9.17266,-79.18426 c 0.49374,-0.9625 1.171828,-4.9 1.506864,-8.75 0.433924,-4.98636 1.087334,-7.28766 2.27144,-8 4.117465,-2.477 7.194691,-5.675193 7.624653,-7.924395 0.586798,-3.069632 0.01618,-3.943749 -3.730297,-5.714383 -2.354128,-1.112591 -6.337003,-1.304099 -18.5,-0.889532 l -15.5,0.528306 -0.305245,4.761114 c -0.290983,4.538658 -0.07639,4.984028 4.592895,9.53205 2.693977,2.62402 6.206337,5.60505 7.805245,6.62453 1.598908,1.01947 4.854501,4.04254 7.234652,6.71794 4.735694,5.32315 5.656569,5.73286 6.999793,3.11437 z M 39.229139,83.834746 c 0.273329,-2.375479 -0.03737,-2.75 -2.281384,-2.75 -2.766445,0 -4.136572,1.990044 -3.146498,4.570137 1.036401,2.700817 5.063054,1.350555 5.427882,-1.820137 z M 92.841288,72.513317 c 0.864286,-0.864285 1.571429,-2.68587 1.571429,-4.047965 0,-1.397044 1.097887,-3.436379 2.518733,-4.678572 1.774271,-1.551178 2.587087,-3.368894 2.749997,-6.149859 0.23015,-3.928714 0.21003,-3.951569 -4.156826,-4.721429 -5.133768,-0.905063 -6.107471,-1.589456 -4.082944,-2.869806 2.413379,-1.526268 5.543409,-1.090949 7.47104,1.03906 2.317723,2.561055 2.724053,2.523803 6.423273,-0.588894 4.90776,-4.129601 4.05055,-4.75481 -5.673273,-4.137822 -7.529986,0.477787 -9.19124,0.284283 -11.914594,-1.387818 -2.801234,-1.719919 -4.753181,-1.911008 -17,-1.664242 l -13.835406,0.278776 -0.30112,4.660117 c -0.278169,4.304927 -0.03345,4.864284 3.210791,7.338783 1.931551,1.473266 3.787274,3.54626 4.12383,4.606653 0.336556,1.060393 2.2667,2.822369 4.289209,3.915503 2.02251,1.093134 4.864825,2.936146 6.316257,4.095583 1.451432,1.159437 5.501432,2.908682 9,3.88721 8.143768,2.277764 7.467483,2.246844 9.289604,0.424722 z M 126.08036,42.348794 c 1.0078,-2.054773 2.96631,-4.361485 4.35224,-5.126027 2.292,-1.264367 2.86982,-1.152597 6.38955,1.235952 2.12831,1.444315 5.00482,2.626027 6.39222,2.626027 1.38741,0 4.93545,0.760595 7.88453,1.690211 5.00652,1.578165 5.47256,1.579622 7.0302,0.02198 1.12822,-1.128219 1.66824,-3.344937 1.66824,-6.847981 0,-4.503504 -0.38963,-5.518177 -2.98436,-7.771978 -1.6414,-1.425726 -3.74095,-3.7956 -4.66567,-5.266387 -0.92472,-1.470786 -2.56062,-2.953239 -3.63533,-3.29434 -1.07472,-0.341102 -2.87153,-2.175231 -3.99292,-4.075844 -1.62788,-2.759054 -2.66369,-3.455661 -5.13836,-3.455661 -4.16808,0 -6.64037,1.465784 -8.48331,5.029644 -0.84482,1.633696 -2.17542,2.970356 -2.9569,2.970356 -0.78147,0 -3.02571,2.417812 -4.9872,5.372915 -2.96916,4.473233 -3.53605,6.173622 -3.38546,10.154762 0.18487,4.887638 -0.31102,5.672917 -5.78655,9.163516 -1.5644,0.99729 -0.86459,1.200765 4.29908,1.25 6.14948,0.05863 6.17304,0.04781 8,-3.677145 z M 54.229139,38.334746 c -0.364828,-3.170692 -4.391481,-4.520954 -5.427882,-1.820137 -0.990074,2.580093 0.380053,4.570137 3.146498,4.570137 2.244013,0 2.554713,-0.374521 2.281384,-2.75 z" style="fill:#db0000"/><path d="m 46.144745,255.08475 c -1.22777,-1.43393 -2.949938,-2 -6.084657,-2 -4.003925,0 -4.826011,-0.47287 -9.759788,-5.61384 -6.708891,-6.99065 -8.283098,-8.56485 -15.273739,-15.27374 -5.2991028,-5.08553 -5.6138438,-5.65823 -5.6138438,-10.21482 0,-5.39788 -1.5076896,-6.8976 -6.9342585,-6.8976 l -3.06574148,0 0,-11.5 0,-11.5 4.03372528,0 c 3.5671995,0 4.2780427,-0.41409 6.1461677,-3.58032 3.9315428,-6.66347 10.7758188,-6.78861 15.9219268,-0.29112 2.822808,3.56408 3.460572,3.87144 8.033236,3.87144 4.731351,0 5.036377,0.16605 6.429391,3.5 0.813662,1.94737 2.177366,3.5 3.07411,3.5 0.886445,0 3.692905,-2.2876 6.23658,-5.08355 3.747754,-4.11946 4.719688,-5.96411 5.124863,-9.72661 0.396101,-3.67823 1.015955,-4.899 2.982969,-5.8748 3.676697,-1.82395 5.139429,-4.21782 3.943101,-6.45318 -0.548041,-1.02402 -1.572805,-1.86186 -2.277255,-1.86186 -0.704449,0 -2.62869,-1.4625 -4.276091,-3.25 -1.647401,-1.7875 -3.8677,-3.99199 -4.933999,-4.89887 -1.066299,-0.90688 -2.933627,-2.70688 -4.149617,-4 -1.215991,-1.29312 -2.954628,-3.08749 -3.863637,-3.98749 -0.909009,-0.9 -2.766494,-2.77262 -4.127744,-4.16137 -1.36125,-1.38875 -2.997613,-3.04073 -3.636363,-3.67106 -9.618443,-9.49177 -9.661364,-9.55526 -9.661364,-14.2917 0,-3.97855 0.409216,-4.89471 3.015089,-6.75025 1.658299,-1.18082 3.694855,-3.46146 4.52568,-5.0681 2.041104,-3.94706 5.054607,-3.75374 9.023096,0.57884 2.656612,2.90034 3.902408,3.5 7.271315,3.5 6.218335,0 7.052116,-2.52142 2.361839,-7.14239 -2.03336,-2.00331 -4.290192,-4.25331 -5.015181,-5 -2.724402,-2.80594 -9.869194,-9.42187 -11.984953,-11.09783 -1.741168,-1.379223 -2.196885,-2.784562 -2.196885,-6.774747 0,-4.562991 -0.255666,-5.131743 -2.729648,-6.072349 -5.094123,-1.936782 -5.783911,-6.078636 -1.390693,-8.350457 1.583812,-0.819021 3.818635,-3.080577 4.966274,-5.02568 2.738744,-4.641825 5.563397,-4.651983 8.290543,-0.02981 2.558214,4.335849 3.786663,4.647986 16.863524,4.284845 10.103937,-0.280583 10.512331,-0.378573 10.826918,-2.597804 0.244085,-1.721876 -0.895267,-3.368833 -4.496649,-6.5 -2.652962,-2.306582 -7.637575,-7.012378 -11.076918,-10.457329 -5.769309,-5.778715 -6.253351,-6.603176 -6.253351,-10.651224 0,-3.954479 -0.345558,-4.591561 -3.5,-6.452728 -4.436325,-2.617496 -4.579847,-5.505204 -0.399951,-8.04715 1.705027,-1.036889 3.948413,-3.280275 4.985302,-4.985302 2.541946,-4.179896 5.429654,-4.036374 8.04715,0.399951 l 2.065051,3.5 19.151224,0.01101 c 10.533173,0.0061 20.823966,0.287537 22.868424,0.62552 3.438383,0.56842 4.054423,0.267552 8.212703,-4.011006 2.47252,-2.54404 4.96228,-4.625524 5.5328,-4.625524 0.57051,0 1.0373,-0.652099 1.0373,-1.449109 0,-0.79701 1.49481,-2.589255 3.3218,-3.982767 1.82699,-1.393512 3.89419,-3.603195 4.59379,-4.910406 0.6996,-1.307212 2.80479,-3.107686 4.6782,-4.001055 3.0399,-1.4496268 3.40621,-2.0562089 3.40621,-5.6404846 l 0,-4.0161786 8,0 8,0 0,4.4326123 c 0,3.6449016 0.37862,4.5527809 2.13057,5.1088279 2.7618,0.876562 12.45143,10.566193 13.32799,13.327993 0.37192,1.171812 1.06852,2.130567 1.54801,2.130567 0.47948,0 2.92153,1.774038 5.42677,3.942307 l 4.55498,3.942308 6.95604,-0.58317 c 6.66179,-0.5585 7.05332,-0.468453 9.25584,2.12869 1.26489,1.491522 4.65907,5.04241 7.54263,7.890861 2.88355,2.848452 7.91264,7.879004 11.17575,11.179004 3.26312,3.3 6.97884,7.042839 8.25718,8.31742 1.27833,1.274582 2.77424,2.769809 3.32424,3.322728 3.00396,3.019901 5.94309,5.817194 7.61364,7.246216 1.5526,1.328127 1.88636,3.008936 1.88636,9.49959 0,7.770333 0.0539,7.938307 3.67625,11.456683 3.66521,3.56002 3.67561,3.594105 3.46695,11.364047 l -0.2093,7.79332 4.09924,3.51187 4.09923,3.51188 -0.018,15.32283 -0.018,15.32283 -11.54956,11.22225 c -12.48507,12.13125 -12.48116,12.12133 -6.29674,15.95136 2.4018,1.48744 2.75,2.33146 2.75,6.66584 0,4.68204 -0.22626,5.1125 -4,7.60984 -3.64271,2.41063 -4,3.03364 -4,6.97476 0,2.38023 0.5625,4.80033 1.25,5.378 0.6875,0.57767 2.4875,1.97807 4,3.112 2.61011,1.95682 2.75,2.48023 2.75,10.28912 0,9.12548 0.7655,10.6201 5.45,10.64107 4.81418,0.0216 7.20809,0.97898 8.50446,3.40126 0.66125,1.23555 2.54384,3.03894 4.18354,4.00754 1.63971,0.9686 3.39769,2.85632 3.90663,4.19494 0.50895,1.33862 1.60711,2.69547 2.44036,3.01522 2.59779,0.99687 1.94564,7.84585 -1.03044,10.82194 l -2.54553,2.54545 -101.2323,0 c -99.994827,0 -101.253245,-0.0245 -102.944765,-2 z m 161.681385,-5.9831 c 4.72843,-2.17016 5.02309,-2.19027 7.82658,-0.53421 3.72528,2.20058 11.90978,2.84733 23.09374,1.82489 l 8.83373,-0.80758 -6.03487,-4.25 c -6.82654,-4.80753 -9.03684,-5.0978 -17.13259,-2.25 -9.46448,3.32927 -10.6643,2.5756 -6.9455,-4.36288 1.87511,-3.49854 1.99392,-4.86912 1.36062,-15.69627 l -0.69389,-11.86302 -3.86062,-3.46575 c -2.12333,-1.90615 -3.86061,-3.87263 -3.86061,-4.36993 0,-0.4973 -1.09069,-1.48791 -2.42376,-2.20135 -1.33307,-0.71344 -2.71416,-2.45419 -3.06909,-3.86834 -0.35493,-1.41414 -1.69087,-3.54015 -2.96875,-4.72445 -2.03407,-1.88511 -3.60425,-2.1748 -12.60804,-2.32605 -11.75783,-0.19752 -14.93036,-0.77223 -14.93036,-2.70469 0,-1.92628 5.26038,-4.41727 9.32822,-4.41727 1.88514,0 5.09837,0.69812 7.14051,1.55138 3.11801,1.30279 4.56718,1.36023 9.04363,0.35844 3.93259,-0.88007 6.45005,-0.90881 9.59879,-0.10958 4.56507,1.15874 5.88885,0.87526 5.88885,-1.26107 0,-0.91305 -2.00024,-1.54516 -6.25,-1.97511 -18.72077,-1.89397 -18.75753,-1.91435 -18.73469,-10.38549 0.008,-3.12321 0.41646,-6.31223 0.90675,-7.08671 0.60436,-0.95465 3.94687,-1.63923 10.37909,-2.12571 5.2182,-0.39467 9.94904,-1.00274 10.51299,-1.35128 0.56394,-0.34853 3.60904,-0.87276 6.7669,-1.16495 6.76498,-0.62596 7.41896,-0.93745 7.41896,-3.53369 0,-1.1866 1.01007,-2.34976 2.54837,-2.93462 1.47171,-0.55954 3.16167,-2.43672 4,-4.44313 1.61062,-3.85477 1.99141,-15.53848 0.50642,-15.53848 -0.51986,0 -1.08236,-2.1375 -1.25,-4.75 -0.24542,-3.82475 -0.74864,-4.94468 -2.58342,-5.74945 -2.60556,-1.14286 -3.71371,-4.64945 -4.73981,-14.99844 -0.38161,-3.84884 -1.54608,-8.668419 -2.5877,-10.710167 -1.04162,-2.041749 -1.89386,-4.257265 -1.89386,-4.923368 0,-0.666104 -0.69423,-1.978218 -1.54274,-2.91581 -0.84851,-0.937592 -1.80939,-3.448025 -2.13529,-5.578741 -0.62884,-4.111337 -2.79872,-7.374028 -4.90415,-7.374028 -0.69972,0 -2.54247,-1.538441 -4.09502,-3.418759 -1.68227,-2.037441 -4.99941,-4.275605 -8.20991,-5.539453 -2.96292,-1.166382 -6.21016,-3.167029 -7.21611,-4.445882 -2.26466,-2.879045 -4.65802,-3.829122 -17.89678,-7.104368 -8.73485,-2.160987 -11.98021,-2.508906 -19.30505,-2.069602 -4.84278,0.290444 -9.22262,0.78615 -9.73298,1.10157 -0.51036,0.315419 -5.18418,0.932606 -10.38626,1.371527 -6.68645,0.564162 -10.2549,1.35587 -12.17644,2.701502 -1.49496,1.046906 -4.42788,2.868758 -6.5176,4.04856 -5.17462,2.921465 -8.01276,5.23371 -17.631673,14.364612 -4.757849,4.516462 -8.25,8.645378 -8.25,9.754317 0,2.848146 -3.639971,12.910606 -5.79672,16.02466 -1.032806,1.49122 -2.226743,3.61132 -2.653193,4.71132 -1.24545,3.21256 -2.587422,14.1492 -3.190416,26.00088 l -0.559707,11.00089 3.600018,5.3496 c 1.98001,2.94229 3.600018,5.60645 3.600018,5.92038 0,2.1646 3.755554,4.22825 7.694826,4.22825 4.816165,0 12.305177,3.2661 12.305177,5.36653 0,0.72923 2.025,3.16879 4.5,5.42124 3.48138,3.16834 4.5,4.79575 4.5,7.18953 0,3.08764 0.99185,4.34633 7.5,9.51771 2.48854,1.9774 2.81199,2.69249 1.89723,4.1944 -0.83074,1.36395 -2.77221,1.93393 -7.8703,2.31059 -6.33628,0.46814 -6.82243,0.3555 -7.62921,-1.76772 -0.47393,-1.24725 -0.7573,-5.62882 -0.62971,-9.73683 l 0.23199,-7.46912 -4.20646,-4.26316 c -2.31355,-2.34474 -4.933196,-5.05067 -5.82143,-6.01317 -0.888233,-0.9625 -2.370327,-1.74337 -3.293542,-1.73526 -1.180964,0.0104 -0.960864,0.38093 0.74246,1.25 5.943202,3.03234 2.530143,5.39382 -8.546081,5.913 l -6.87495,0.32226 0.124035,-5.06846 0.124035,-5.06847 -6.484173,-1.11069 c -4.264395,-0.73046 -7.343574,-1.9052 -8.99456,-3.43154 -2.791996,-2.58119 -6.588362,-10.49563 -5.713506,-11.91118 0.809205,-1.30932 3.834517,-1.11931 5.28581,0.33198 0.988854,0.98886 1.433636,0.93796 2.184687,-0.25 1.614106,-2.55307 1.067904,-6.89741 -1.145476,-9.11079 -1.915159,-1.91516 -2.949954,-2.07507 -10.75,-1.66123 -8.460238,0.44886 -14.075502,-0.70301 -15.621488,-3.20447 -1.361238,-2.20253 -3.509364,-0.99287 -3.509364,1.9762 0,3.13899 5.071954,10.70421 9.524574,14.20664 1.326561,1.04347 2.988715,3.07789 3.693677,4.52092 0.704962,1.44303 2.662682,3.10911 4.350489,3.70239 4.680812,1.64536 8.083192,4.80877 10.481587,9.74539 1.979131,4.07365 2.724572,4.65069 8.27435,6.40515 5.505956,1.7406 6.181988,2.25699 6.949671,5.30854 1.751621,6.96273 7.455325,13.70047 12.820936,15.14528 4.632041,1.24728 6.574302,0.51397 8.499539,-3.20903 2.01525,-3.89706 4.79774,-3.40956 5.21648,0.91395 0.25784,2.66219 -0.47055,4.03014 -4.24112,7.96507 -4.081827,4.25976 -4.992672,4.74287 -8.811302,4.67349 -2.342385,-0.0426 -6.171381,-0.42728 -8.508881,-0.85493 -4.500964,-0.82346 -4.866003,-0.53374 -3.214816,2.55153 0.714541,1.33513 2.097495,1.93426 4.464816,1.93426 3.961662,0 6.040889,2.70879 5.064701,6.59823 -0.589697,2.34954 -0.792442,2.39534 -7.835031,1.77001 -3.976319,-0.35307 -8.12967,-1.05577 -9.22967,-1.56155 -1.638383,-0.75334 -1.57315,-0.54779 0.360784,1.13685 1.676614,1.46048 3.850161,2.08557 7.5,2.15691 l 5.139216,0.10045 -4,0.96985 c -2.2,0.53341 -6.475,0.68973 -9.5,0.34737 -3.025,-0.34237 -6.625,-0.64199 -8,-0.66583 -5.435516,-0.0942 -8.844391,-0.98274 -11.024435,-2.87348 -1.254871,-1.08835 -3.717986,-1.97881 -5.473587,-1.97881 -3.619718,0 -6.238977,-2.35887 -7.375788,-6.64255 -0.560078,-2.11046 -1.457737,-2.93996 -3.433799,-3.17306 -3.558105,-0.41972 -5.185194,3.04369 -4.276541,9.10302 0.892431,5.95116 2.592879,7.99732 7.674336,9.23455 5.458613,1.32906 5.974461,2.97157 1.4067,4.47907 -5.825356,1.92254 -4.161028,3.94919 7.010485,8.53668 5.495946,2.25686 12.242629,5.44373 14.992629,7.08192 7.193841,4.28543 9.797987,5.06394 21.216393,6.34263 7.158797,0.80168 10.801669,0.83085 12.171987,0.0975 1.681866,-0.90011 2.040862,-0.6626 2.56477,1.69683 l 0.609173,2.74343 30.29061,0.33789 c 25.52892,0.28477 30.86883,0.0963 33.96884,-1.19897 2.02303,-0.84528 3.67823,-1.94328 3.67823,-2.44001 0,-2.23829 -4.773,-7.72814 -6.99549,-8.04613 -1.33472,-0.19097 -4.26846,-1.61434 -6.51943,-3.16305 -3.98384,-2.74095 -12.54256,-4.99575 -18.91874,-4.98415 -5.09433,0.009 -10.43205,1.93761 -13.97569,5.04897 -3.31037,2.90654 -5.93838,3.49493 -10.34065,2.31516 -1.55459,-0.41661 -2.25,-1.35784 -2.25,-3.04536 0,-1.6425 -0.40937,-2.22423 -1.25,-1.77626 -1.0765,0.57366 0.65009,-1.31609 8.25,-9.02962 3.30896,-3.35843 9.80028,-8.51847 10.71621,-8.51847 0.5356,0 1.75443,0.86257 2.70851,1.91681 1.38388,1.52918 1.50923,2.3381 0.6198,4 -1.07211,2.00326 -0.87373,2.08792 5.1703,2.20658 3.45685,0.0679 9.63092,0.27794 13.72015,0.46683 l 7.43497,0.34345 5.31503,5.249 c 2.92327,2.88696 5.31503,5.80233 5.31503,6.4786 0,0.67628 1.2375,1.81978 2.75,2.54112 2.08903,0.99629 2.82973,2.15011 3.0817,4.80055 0.66465,6.99109 3.29944,8.09766 18.1683,7.6304 9.29397,-0.29207 12.44253,-0.79397 16.41341,-2.61644 z M 92.360557,212.64027 c 2.852601,-3.03645 3.488172,-3.23873 2.115124,-0.67317 -0.554072,1.03529 -1.796818,2.18528 -2.761657,2.55552 -1.307388,0.50169 -1.142695,0.0222 0.646533,-1.88235 z m 50.052163,-33.48373 c -8.62367,-0.51905 -9.8458,-0.84844 -13.24875,-3.57088 -2.06181,-1.64949 -5.88176,-3.4516 -8.48877,-4.00468 -3.67093,-0.77879 -5.03715,-1.62555 -6.05743,-3.75429 -0.72458,-1.51178 -2.52963,-3.38608 -4.01123,-4.16511 -4.13493,-2.17416 -10.896393,-9.75355 -11.432588,-12.81556 -0.389697,-2.22542 0.159722,-3.22634 2.931448,-5.34044 2.79398,-2.13107 3.35643,-3.16791 3.10918,-5.73158 -0.23062,-2.39123 0.13619,-3.21799 1.55436,-3.50333 2.7301,-0.54931 4.26283,1.36325 2.64996,3.30664 -1.12732,1.35833 -0.55916,2.27177 4.09238,6.57937 2.97079,2.75113 6.59759,5.46501 8.05954,6.03085 1.52754,0.59122 2.92403,2.0883 3.28332,3.51983 0.4881,1.94477 1.067,2.3508 2.63988,1.85159 1.10807,-0.35169 2.55558,-0.19249 3.21669,0.35378 2.54988,2.10695 16.8733,4.17202 28.93735,4.17202 15.64337,0 16.76466,0.60097 16.76466,8.98528 0,8.54798 -0.79142,9.05396 -13.82143,8.83651 -5.87321,-0.098 -14.95357,-0.43552 -20.17857,-0.75 z m -39.79286,-2.26465 c -1.37055,-1.37055 -1.64722,-5.80714 -0.36213,-5.80714 0.46476,0 1.67218,0.91401 2.68316,2.03113 1.62063,1.79078 1.66348,2.20579 0.36213,3.50714 -1.15286,1.15286 -1.7403,1.21173 -2.68316,0.26887 z m 79.74129,-19.86235 c -1.62522,-1.7398 -4.2736,-3.29076 -6.15121,-3.6023 -1.81347,-0.30091 -6.22222,-1.96356 -9.79722,-3.6948 -6.17906,-2.99227 -6.61857,-3.44394 -8.90143,-9.14769 -2.06775,-5.16628 -2.40179,-7.66743 -2.404,-18 -0.001,-6.69343 0.747,-16.42214 1.69248,-22 1.52031,-8.969172 2.03435,-10.320605 4.98667,-13.110123 3.25927,-3.079533 12.95971,-6.387668 14.43026,-4.921136 0.38281,0.381768 0.92102,13.692413 1.19602,29.579219 0.44601,25.76627 0.68895,29.07379 2.25,30.63285 1.59192,1.58989 1.89214,1.60562 3.32358,0.17419 3.20597,-3.20598 6.42642,-25.89885 6.42642,-45.283776 0,-14.738337 0.55219,-16.200496 5.65435,-14.972388 4.75054,1.143473 9.9496,4.147766 11.63849,6.725335 3.9144,5.974139 6.36087,39.424199 3.56573,48.753549 -1.64329,5.48482 -6.0385,10.33151 -10.79166,11.9002 -2.25254,0.7434 -4.59008,1.94754 -5.19453,2.67585 -0.60445,0.72832 -1.44861,1.10813 -1.87593,0.84404 -0.42731,-0.2641 -1.52244,1.09086 -2.43361,3.01101 -2.03709,4.29284 -3.91131,4.40015 -7.61441,0.43597 z M 21.412717,204.94499 c 0,-2.19872 -2.531465,-4.77199 -4.75,-4.82844 -1.594893,-0.0406 -1.631535,4.18666 -0.05,5.7682 1.997942,1.99794 4.8,1.44935 4.8,-0.93976 z m 44.024856,-5.10962 c -0.440216,-4.86464 -0.500248,-4.96722 -0.816635,-1.39546 -0.300971,3.39774 0.192547,6.64365 1.010394,6.64546 0.154762,3.4e-4 0.06757,-2.36216 -0.193759,-5.25 z m 11.975144,-1.31636 c 0,-1.60537 -2.255311,-4.43426 -3.535184,-4.43426 -1.770423,0 -1.919899,2.14492 -0.264816,3.8 1.22577,1.22577 3.8,1.65544 3.8,0.63426 z m -9.17266,-79.18426 c 0.49374,-0.9625 1.171828,-4.9 1.506864,-8.75 0.433924,-4.98636 1.087334,-7.28766 2.27144,-8 4.117465,-2.477 7.194691,-5.675193 7.624653,-7.924395 0.586798,-3.069632 0.01618,-3.943749 -3.730297,-5.714383 -2.354128,-1.112591 -6.337003,-1.304099 -18.5,-0.889532 l -15.5,0.528306 -0.305245,4.761114 c -0.290983,4.538658 -0.07639,4.984028 4.592895,9.53205 2.693977,2.62402 6.206337,5.60505 7.805245,6.62453 1.598908,1.01947 4.854501,4.04254 7.234652,6.71794 4.735694,5.32315 5.656569,5.73286 6.999793,3.11437 z M 39.229139,83.834746 c 0.273329,-2.375479 -0.03737,-2.75 -2.281384,-2.75 -2.766445,0 -4.136572,1.990044 -3.146498,4.570137 1.036401,2.700817 5.063054,1.350555 5.427882,-1.820137 z M 92.841288,72.513317 c 0.864286,-0.864285 1.571429,-2.68587 1.571429,-4.047965 0,-1.397044 1.097887,-3.436379 2.518733,-4.678572 1.774271,-1.551178 2.587087,-3.368894 2.749997,-6.149859 0.23015,-3.928714 0.21003,-3.951569 -4.156826,-4.721429 -5.133768,-0.905063 -6.107471,-1.589456 -4.082944,-2.869806 2.413379,-1.526268 5.543409,-1.090949 7.47104,1.03906 2.317723,2.561055 2.724053,2.523803 6.423273,-0.588894 4.90776,-4.129601 4.05055,-4.75481 -5.673273,-4.137822 -7.529986,0.477787 -9.19124,0.284283 -11.914594,-1.387818 -2.801234,-1.719919 -4.753181,-1.911008 -17,-1.664242 l -13.835406,0.278776 -0.30112,4.660117 c -0.278169,4.304927 -0.03345,4.864284 3.210791,7.338783 1.931551,1.473266 3.787274,3.54626 4.12383,4.606653 0.336556,1.060393 2.2667,2.822369 4.289209,3.915503 2.02251,1.093134 4.864825,2.936146 6.316257,4.095583 1.451432,1.159437 5.501432,2.908682 9,3.88721 8.143768,2.277764 7.467483,2.246844 9.289604,0.424722 z M 126.08036,42.348794 c 1.0078,-2.054773 2.96631,-4.361485 4.35224,-5.126027 2.292,-1.264367 2.86982,-1.152597 6.38955,1.235952 2.12831,1.444315 5.00482,2.626027 6.39222,2.626027 1.38741,0 4.93545,0.760595 7.88453,1.690211 5.00652,1.578165 5.47256,1.579622 7.0302,0.02198 1.12822,-1.128219 1.66824,-3.344937 1.66824,-6.847981 0,-4.503504 -0.38963,-5.518177 -2.98436,-7.771978 -1.6414,-1.425726 -3.74095,-3.7956 -4.66567,-5.266387 -0.92472,-1.470786 -2.56062,-2.953239 -3.63533,-3.29434 -1.07472,-0.341102 -2.87153,-2.175231 -3.99292,-4.075844 -1.62788,-2.759054 -2.66369,-3.455661 -5.13836,-3.455661 -4.16808,0 -6.64037,1.465784 -8.48331,5.029644 -0.84482,1.633696 -2.17542,2.970356 -2.9569,2.970356 -0.78147,0 -3.02571,2.417812 -4.9872,5.372915 -2.96916,4.473233 -3.53605,6.173622 -3.38546,10.154762 0.18487,4.887638 -0.31102,5.672917 -5.78655,9.163516 -1.5644,0.99729 -0.86459,1.200765 4.29908,1.25 6.14948,0.05863 6.17304,0.04781 8,-3.677145 z M 54.229139,38.334746 c -0.364828,-3.170692 -4.391481,-4.520954 -5.427882,-1.820137 -0.990074,2.580093 0.380053,4.570137 3.146498,4.570137 2.244013,0 2.554713,-0.374521 2.281384,-2.75 z" style="fill:#8b0000"/></g></svg>