<svg xmlns="http://www.w3.org/2000/svg" viewBox="0 0 256 256"><path d="m 260.02 66.64 c -48.541 -88.14 -200.63 -53.931 -226.36 18.64 -30.66 86.45 49.14 250.63 184.3 154.45 45.527 -33.585 90.6 -84.949 42.05 -173.09 z" transform="translate(-26.04 -13.02)" style="fill:#fff;color:#000"/><g transform="matrix(0.71750341 0 0 0.59485064 32.708065 57.022281)" style="fill:#ff4500"><path d="M 117,255.30843 C 92.396983,251.18295 70.40209,234.58442 58.617677,211.25 57.159424,208.3625 55.661012,206 55.287873,206 c -0.373139,0 -1.913695,1.18345 -3.423456,2.6299 -3.552479,3.40349 -5.413924,2.6291 -8.096078,-3.36809 -1.618846,-3.61967 -2.122043,-6.70421 -2.097936,-12.86007 0.0304,-7.76338 0.734055,-10.38668 4.291922,-16.00081 C 47.964515,173.24158 46.57436,169 43.536712,169 c -1.333852,0 -3.687778,-1.08726 -5.230948,-2.41613 -2.707348,-2.33137 -2.795413,-2.70494 -2.510673,-10.64999 0.162301,-4.52863 0.724865,-9.03691 1.250143,-10.0184 0.621789,-1.16182 0.577925,-2.76698 -0.125702,-4.60001 -0.641556,-1.67131 -0.8173,-5.31015 -0.43246,-8.95425 0.63584,-6.02084 3.504552,-11.94806 9.467374,-19.56109 1.163055,-1.48493 2.604721,-4.18493 3.203703,-6 0.598982,-1.81507 2.433373,-5.02338 4.076426,-7.129581 l 2.987369,-3.829452 -2.610972,-2.725267 c -3.314905,-3.460016 -3.319508,-5.895947 -0.01352,-7.152883 2.928548,-1.113432 8.664463,0.123125 11.843674,2.553276 3.498208,2.673989 4.207423,1.749925 5.576795,-7.266223 C 72.610537,70.764013 73.461017,19.038062 72.158634,11.872495 70.530681,2.915679 69.55894,3.2182135 106,1.3365786 132.53348,-0.03347807 141.06322,-0.10323984 160.0996,0.89411706 191.12955,2.519843 192.96838,3.1894269 190.77426,12.063809 189.4408,17.45711 189.31165,71.14126 190.606,82 c 0.99947,8.38484 1.61055,8.751568 8.20116,4.921782 5.48835,-3.189265 6.56817,-2.676801 5.82253,2.763257 -0.35318,2.576771 -1.31435,5.710938 -2.13592,6.964816 C 201.6722,97.903733 201,99.099236 201,99.306529 c 0,0.207293 1.75058,0.901381 3.89018,1.542421 5.02754,1.50629 10.68495,7.76014 12.0717,13.34438 0.58822,2.36867 1.57007,5.95056 2.18188,7.95976 0.63498,2.08527 0.81997,5.60308 0.43104,8.19664 -0.50067,3.33876 -0.24143,5.39425 0.97765,7.7517 1.91848,3.70993 1.41676,9.17012 -1.09794,11.94884 -1.18569,1.31017 -1.63098,3.74115 -1.63098,8.90411 0,6.04471 -0.35858,7.52804 -2.40882,9.96461 -1.32485,1.57449 -3.53514,3.1454 -4.91176,3.49091 -3.12718,0.78488 -3.1211,1.62731 0.0587,8.12651 2.10089,4.29406 2.55848,6.66249 2.54419,13.16836 -0.0317,14.43371 -5.101,21.18704 -11.1058,14.79523 -3.01036,-3.20438 -3.48884,-3.14825 -5.03768,0.59097 -3.9456,9.52552 -14.65917,22.96603 -24.38461,30.59125 C 156.72833,252.1089 134.75788,258.28611 117,255.30843 z m -14.5,-67.25305 c 11.87535,-5.18271 17.62953,-19.90984 12.46754,-31.9092 -9.11044,-21.17779 -39.291727,-19.75053 -46.583489,2.20291 -4.70142,14.15465 4.153168,28.23637 20.115949,31.99101 3.053763,0.71828 9.547242,-0.34142 14,-2.28472 z m -16,-5.51166 c -5.221122,-1.90758 -11.176518,-8.30249 -12.045477,-12.93444 -2.027978,-10.81005 5.219694,-20.50308 15.998957,-21.39698 6.839408,-0.56718 10.46408,0.84717 14.97922,5.84488 12.02627,13.31165 -2.13753,34.62279 -18.9327,28.48654 z m 88.5685,5.84536 c 11.11626,-3.29697 19.07432,-15.5854 17.38568,-26.84607 -2.4096,-16.06835 -19.5554,-25.85695 -34.23207,-19.54321 -18.58822,7.99643 -20.51907,33.38269 -3.32337,43.69467 7.52225,4.51096 12.01974,5.11181 20.16976,2.69461 z m -14.03875,-6.91393 c -4.60522,-2.07528 -6.85327,-4.21239 -9.13616,-8.68531 -7.75994,-15.20426 8.79699,-31.60012 24.05172,-23.81774 15.96452,8.14449 11.35182,31.78703 -6.55101,33.5774 -3.23265,0.32328 -6.07247,-0.0415 -8.36455,-1.07435 z"/><g style="fill:#fff;fill-rule:evenodd"><path d="m 122.31137 215.47871 c -7.09651 -3.96118 -8.78466 -13.31936 -3.54319 -19.64157 5.21896 -6.29505 13.43391 -6.60451 19.22755 -0.72429 10.34261 10.49715 -2.79738 27.5592 -15.68436 20.36586 z m 7.65058 -10.63125 c 0 -1.01234 -0.4578 -1.84062 -1.01732 -1.84062 -0.55952 0 -1.01731 0.82828 -1.01731 1.84062 0 1.01234 0.45779 1.84061 1.01731 1.84061 0.55952 0 1.01732 -0.82827 1.01732 -1.84061 z"/><path d="m 106.35789 234.99573 c -6.652622 -2.56569 -13.668099 -7.24769 -16.484469 -11.00142 -1.065203 -1.41973 -1.698409 -2.58134 -1.407122 -2.58134 0.291288 0 5.599589 1.38047 11.796231 3.0677 14.99927 4.08403 28.80467 4.08058 50.38447 -0.0118 20.55413 -3.89861 21.77935 -3.89656 16.0894 0.0269 -5.77756 3.98389 -20.81086 10.02534 -28.87404 11.60365 -10.11071 1.9791 -24.85103 1.46306 -31.50447 -1.10295 z m 5.29239 -2.53906 c 0 -0.67489 -0.43078 -1.22708 -0.95728 -1.22708 -0.5265 0 -1.24021 0.55219 -1.58601 1.22708 -0.34581 0.67489 0.085 1.22706 0.95727 1.22706 0.87231 0 1.58602 -0.55217 1.58602 -1.22706 z m 26.45018 0 c 0 -0.67489 -0.88856 -1.22708 -1.97458 -1.22708 -1.08603 0 -2.25752 0.55219 -2.60333 1.22708 -0.3566 0.69594 0.49809 1.22706 1.9746 1.22706 1.43182 0 2.60331 -0.55217 2.60331 -1.22706 z"/><path d="m 162.94881 174.75938 c -5.46627 -3.24503 -6.76661 -10.9113 -2.72923 -16.0905 4.02003 -5.15694 10.34781 -5.41045 14.8105 -0.59334 7.96666 8.59933 -2.15475 22.57666 -12.08127 16.68384 z m 5.89305 -8.70919 c 0 -0.82931 -0.35263 -1.50785 -0.78361 -1.50785 -0.43099 0 -0.78361 0.67854 -0.78361 1.50785 0 0.82932 0.35262 1.50784 0.78361 1.50784 0.43098 0 0.78361 -0.67852 0.78361 -1.50784 z"/><path d="m 87.667497 174.75938 c -5.46627 -3.24503 -6.76661 -10.9113 -2.72923 -16.0905 4.02003 -5.15694 10.34781 -5.41045 14.8105 -0.59334 7.966663 8.59933 -2.15475 22.57666 -12.08127 16.68384 z m 5.89305 -8.70919 c 0 -0.82931 -0.35263 -1.50785 -0.78361 -1.50785 -0.43099 0 -0.78361 0.67854 -0.78361 1.50785 0 0.82932 0.35262 1.50784 0.78361 1.50784 0.43098 0 0.78361 -0.67852 0.78361 -1.50784 z"/></g></g></svg>