<svg xmlns="http://www.w3.org/2000/svg" viewBox="0 0 256 256"><defs><clipPath><path transform="matrix(15.33333 0 0 11.5 415 -125.5)" d="m -24 13 c 0 1.105 -0.672 2 -1.5 2 -0.828 0 -1.5 -0.895 -1.5 -2 0 -1.105 0.672 -2 1.5 -2 0.828 0 1.5 0.895 1.5 2 z"/></clipPath></defs><g style="fill:#fff"><path d="m 323.28 890.82 c 200.11 265.25 -350.59 302.94 -173.86 32.17 40.29 -61.728 120.86 -102.43 173.86 -32.17 z" transform="matrix(0.98407 0 0 1 -108.98 -853.3)" style="fill:#fff;color:#000"/></g><g style="fill:#dc143c"><path d="m 89.18 178.22 c -1.477 -1.672 -2.685 -3.585 -2.685 -4.251 0 -1.83 5.659 -6.377 8.619 -6.925 1.783 -0.33 2.61 -1.078 2.61 -2.362 0 -1.283 -0.827 -2.032 -2.61 -2.362 -1.435 -0.266 -3.962 -1.661 -5.615 -3.099 -2.61 -2.272 -3 -3.25 -3 -7.451 0 -3.774 0.536 -5.453 2.441 -7.654 2.76 -3.186 3.169 -6.254 0.943 -7.084 -1.014 -0.377 -4.673 2.547 -11.317 9.04 -5.401 5.279 -10.375 9.598 -11.05 9.598 -0.679 0 -2.42 -1.067 -3.868 -2.371 -1.449 -1.304 -3.05 -2.371 -3.56 -2.371 -0.518 0 -0.926 -3.938 -0.926 -8.946 0 -7.831 0.223 -9.01 1.784 -9.494 0.986 -0.303 5.209 -3.959 9.396 -8.125 4.86 -4.837 8.373 -7.575 9.716 -7.575 1.157 0 2.856 -0.854 3.776 -1.897 0.92 -1.043 2.775 -1.897 4.123 -1.897 1.347 0 2.482 -0.534 2.521 -1.186 0.039 -0.653 0.094 -7.904 0.123 -16.12 l 0.052 -14.93 l -4.03 -3.913 c -4.931 -4.79 -5.486 -9.11 -1.588 -12.405 1.343 -1.134 2.441 -2.625 2.441 -3.313 0 -1.013 6.608 -1.252 34.663 -1.252 28.06 0 34.664 0.239 34.664 1.252 0 0.689 1.098 2.179 2.441 3.313 3.899 3.293 3.346 7.606 -1.588 12.405 l -4.03 3.913 l 0.052 14.93 c 0.028 8.211 0.084 15.464 0.123 16.12 0.039 0.653 1.174 1.186 2.521 1.186 1.347 0 3.203 0.854 4.123 1.897 0.92 1.043 2.569 1.897 3.665 1.897 1.198 0 5.588 3.436 11.01 8.621 l 9.02 8.621 v 8.13 c 0 7.939 -0.073 8.193 -3.105 10.822 -1.708 1.481 -3.645 2.693 -4.306 2.693 -0.66 0 -5.619 -4.319 -11.02 -9.598 -6.644 -6.494 -10.304 -9.418 -11.317 -9.04 -2.225 0.83 -1.816 3.898 0.943 7.084 1.905 2.199 2.441 3.879 2.441 7.654 0 4.201 -0.394 5.178 -3 7.451 -1.652 1.439 -4.179 2.833 -5.614 3.099 -1.783 0.33 -2.61 1.078 -2.61 2.362 0 1.283 0.827 2.032 2.61 2.362 2.986 0.553 8.619 5.102 8.619 6.959 0 0.685 -1.248 2.602 -2.772 4.26 l -2.772 3.02 h -10.567 h -10.567 l -2.862 -3.082 c -2.615 -2.816 -2.812 -3.506 -2.284 -7.993 0.597 -5.072 -0.767 -7.893 -3.817 -7.893 -3.049 0 -4.413 2.821 -3.817 7.893 0.528 4.487 0.331 5.177 -2.284 7.993 l -2.862 3.082 l -10.654 -0.01 l -10.654 -0.01 l -2.685 -3.04 z m 32.955 -19.12 c 3.222 0.027 8.495 0.141 11.717 0.255 9.399 0.331 18.19 -0.446 18.971 -1.677 0.398 -0.627 0.652 -3.689 0.562 -6.806 -0.128 -4.463 -0.612 -6.073 -2.281 -7.583 -3.727 -3.373 -2.107 -11.327 2.306 -11.327 0.746 0 2.982 1.707 4.969 3.794 2.171 2.279 4.497 3.794 5.828 3.794 2.365 0 5.277 2.254 5.293 4.098 0.018 1.888 6.665 7.545 8.197 6.974 0.835 -0.311 1.667 -2.408 2.02 -5.089 0.33 -2.509 0.823 -5.966 1.097 -7.682 0.45 -2.828 -0.121 -3.744 -6.06 -9.721 -4.454 -4.48 -7.294 -6.599 -8.847 -6.599 -1.26 0 -3.043 -0.854 -3.962 -1.897 -0.92 -1.043 -2.581 -1.897 -3.691 -1.897 -1.11 0 -3.817 -1.601 -6.01 -3.557 l -3.997 -3.557 l 0.511 -16.426 c 0.545 -17.537 1.012 -19.14 5.573 -19.14 2.466 0 3.46 -1.599 3.437 -5.531 -0.03 -5.144 0.966 -5 -35.625 -5 -36.591 0 -35.595 -0.14 -35.625 5 -0.023 3.932 0.971 5.531 3.437 5.531 4.561 0 5.03 1.603 5.573 19.14 l 0.511 16.426 l -3.997 3.557 c -2.198 1.957 -4.902 3.557 -6.01 3.557 -1.11 0 -2.771 0.854 -3.691 1.897 -0.92 1.043 -2.703 1.897 -3.962 1.897 -1.555 0 -4.396 2.119 -8.847 6.599 -5.941 5.977 -6.512 6.893 -6.06 9.721 0.273 1.718 0.767 5.175 1.097 7.682 0.352 2.682 1.184 4.78 2.02 5.089 1.531 0.571 8.18 -5.085 8.197 -6.974 0.018 -1.844 2.929 -4.098 5.293 -4.098 1.33 0 3.658 -1.515 5.828 -3.794 1.988 -2.087 4.224 -3.794 4.969 -3.794 4.414 0 6.03 7.954 2.306 11.327 -1.678 1.519 -2.153 3.118 -2.285 7.709 -0.191 6.686 1.213 8.844 5.256 8.088 1.41 -0.264 4.322 -0.168 6.47 0.213 2.148 0.381 6.103 0.481 8.788 0.223 2.685 -0.259 7.519 -0.449 10.741 -0.422 z m -10.208 -13.335 c -2.637 -3.086 1.727 -6.799 4.652 -3.959 1.244 1.208 1.371 1.949 0.552 3.212 -1.426 2.199 -3.686 2.523 -5.204 0.746 z m 15.623 0 c -2.637 -3.086 1.727 -6.799 4.652 -3.959 1.244 1.208 1.371 1.949 0.552 3.212 -1.426 2.199 -3.686 2.523 -5.204 0.746 z m -15.444 -14.915 c -2.959 -2.874 0.886 -6.573 4.28 -4.125 1.471 1.061 1.625 1.678 0.763 3.045 -1.353 2.146 -3.475 2.601 -5.04 1.079 z m 15.623 0 c -2.959 -2.874 0.886 -6.573 4.28 -4.125 1.471 1.061 1.625 1.678 0.763 3.045 -1.353 2.146 -3.475 2.601 -5.04 1.079 z m -13.432 -14.11 c -1.427 -2.241 1.729 -3.752 7.841 -3.752 4.157 0 6.485 0.441 7.288 1.381 2.085 2.44 0.089 3.361 -7.288 3.361 -3.964 0 -7.491 -0.446 -7.841 -0.99 z m -7.06 -11.485 c -0.668 -0.649 -1.214 -2.587 -1.214 -4.309 0 -3.02 0.141 -3.13 3.887 -3.13 3.392 0 3.97 0.321 4.537 2.518 0.357 1.385 0.212 3.199 -0.324 4.03 -1.233 1.916 -5.292 2.438 -6.884 0.89 z m 23.393 -0.041 c -1.279 -1.242 -1.506 -3.551 -0.579 -5.897 0.4 -1.013 1.829 -1.5 4.394 -1.5 3.65 0 3.801 0.125 3.801 3.13 0 3.604 -1.465 5.406 -4.394 5.406 -1.128 0 -2.578 -0.512 -3.222 -1.138 z m -14.954 -19.855 c -0.705 -2.176 -0.48 -11.03 0.302 -11.949 1.31 -1.534 10.741 -1.581 12.309 -0.063 1.597 1.552 1.481 6.916 -0.178 8.253 -0.742 0.598 -2.61 0.996 -4.15 0.884 -1.54 -0.113 -4.01 0.566 -5.486 1.508 -1.477 0.942 -2.736 1.557 -2.797 1.367 z m 9.446 -5.981 c 2.59 -1.868 0.766 -4.798 -2.987 -4.798 -3.417 0 -5.308 2.529 -3.486 4.662 1.597 1.869 3.999 1.92 6.472 0.135 z" transform="matrix(1.07899 0 0 1.19477 -0.288 -3.396)"/></g><g transform="translate(0 7.593)" style="fill:#ff4500"><path d="m 103.16,99.62 c 0,-6.04 -0.296,-13.144 -0.659,-15.788 -0.581,-4.241 -1.057,-4.973 -4.044,-6.221 -3.037,-1.269 -3.386,-1.829 -3.386,-5.445 v -4.03 h 35.894 35.894 v 4.03 c 0,3.616 -0.348,4.176 -3.384,5.445 -3.09,1.291 -3.441,1.886 -4.04,6.839 -0.358,2.983 -0.655,9.892 -0.66,15.353 -0.009,9.708 -0.059,9.921 -2.277,9.606 -1.625,-0.231 -2.416,-1.184 -2.79,-3.356 l -0.521,-3.033 -22.01,-0.273 c -17.09,-0.212 -22.1,0.014 -22.403,1.011 -0.218,0.706 -0.671,2.535 -1.01,4.064 -0.415,1.893 -1.249,2.781 -2.612,2.781 -1.874,0 -2,-0.709 -2,-10.981 z m 24.696,-6.124 c 1.031,-1.139 3.812,-2.221 6.745,-2.625 5.894,-0.811 6.98,-2.282 6.98,-9.453 0,-7.088 -1.453,-8.231 -10.436,-8.212 -3.992,0.008 -7.931,0.441 -8.753,0.961 -1.876,1.186 -2.697,14.456 -1.144,18.488 1.263,3.278 4.078,3.637 6.607,0.842 z"/><path d="m 99.51,177.16 c -1.227,-1.985 -0.607,-10.69 0.938,-13.167 3.655,-5.862 3.094,-15.02 -1.035,-16.9 -3.413,-1.555 -6.03,-0.596 -11.146,4.086 -2.351,2.152 -4.724,3.913 -5.273,3.913 -0.549,0 -2.589,1.397 -4.534,3.104 -2.514,2.207 -4.35,3.01 -6.355,2.781 -2.508,-0.288 -2.852,-0.776 -3.12,-4.422 -0.277,-3.77 0.186,-4.63 5.786,-10.741 3.348,-3.653 7.578,-7.425 9.401,-8.382 1.823,-0.957 6.04,-3.289 9.381,-5.183 9.492,-5.388 10.389,-5.772 12.03,-5.143 0.847,0.325 1.929,2.091 2.404,3.925 l 0.864,3.334 h 22.12 22.12 l 0.864,-3.334 c 0.475,-1.834 1.557,-3.6 2.404,-3.925 1.643,-0.63 2.577,-0.23 12.03,5.157 3.337,1.902 7.446,4.111 9.131,4.91 1.685,0.799 5.916,4.565 9.401,8.368 5.853,6.388 6.314,7.228 6.04,11.01 -0.268,3.645 -0.613,4.134 -3.12,4.422 -2,0.23 -3.841,-0.573 -6.355,-2.781 -1.945,-1.707 -3.985,-3.104 -4.534,-3.104 -0.549,0 -2.922,-1.761 -5.273,-3.913 -2.351,-2.152 -5.246,-4.213 -6.433,-4.581 -3.516,-1.089 -7.186,1.226 -7.89,4.978 -0.693,3.695 0.701,11.256 2.385,12.941 0.6,0.6 1.091,3.958 1.091,7.461 v 6.37 h -31.28 c -22.858,0 -31.482,-0.32 -32.02,-1.187 z m 27.389,-9.554 c 1.111,-1.111 1.542,-2.986 1.336,-5.806 -0.249,-3.399 -0.816,-4.409 -3.085,-5.492 -2.295,-1.095 -3.267,-1.095 -5.561,0 -2.269,1.083 -2.837,2.093 -3.085,5.492 -0.362,4.951 1.604,7.447 5.866,7.447 1.589,0 3.627,-0.738 4.53,-1.641 z m 17.14,0.052 c 2.054,-2.054 2.078,-8.88 0.037,-10.573 -1.911,-1.586 -7.18,-1.535 -9.135,0.087 -1.941,1.611 -1.848,8.496 0.142,10.486 0.874,0.874 2.889,1.589 4.478,1.589 1.589,0 3.604,-0.715 4.478,-1.589 z m -16.864,-18.881 c 1.645,-1.316 1.626,-6.96 -0.031,-9.226 -1.539,-2.104 -7.08,-2.502 -9.286,-0.667 -1.603,1.33 -2.111,7.712 -0.778,9.77 1.536,2.371 7.198,2.44 10.1,0.122 z m 17.189,0 c 1.645,-1.316 1.626,-6.96 -0.031,-9.226 -1.554,-2.125 -7.083,-2.495 -9.336,-0.625 -1.094,0.908 -1.506,2.631 -1.299,5.438 0.236,3.206 0.858,4.386 2.831,5.374 2.544,1.274 5.496,0.912 7.836,-0.96 z"/></g></svg>