<svg xmlns="http://www.w3.org/2000/svg" viewBox="0 0 256 256"><g transform="translate(0 -796.36)" style="color:#000"><path d="m 226.93 1010.87 c -91.29 114.88 -279.65 -32.29 -212.92 -156.06 62.875 -116.61 254.17 -43.08 241.37 83.5 c -2.671 26.409 -11.7 51.48 -28.459 72.56 z" style="fill:#fff;stroke-width:1.303"/><g transform="matrix(5.2597 0 0 5.47222 2.395 792.68)" style="fill:#ff4500;fill-rule:evenodd"><g style="color:#000"><path d="M 13.801,15 C 13.358,15 13,15.358 13,15.801 v 5.398 C 13,21.642 13.358,22 13.801,22 h 2.328 l 4.293,7.107 C 20.174,29.243 20,29.497 20,29.8 v 5.398 c 0,0.443 0.358,0.801 0.801,0.801 h 8.398 C 29.642,35.999 30,35.641 30,35.198 V 29.8 c 0,-0.272 -0.145,-0.5 -0.352,-0.645 l 4.322,-7.156 h 2.229 C 36.642,21.999 37,21.641 37,21.198 V 15.8 c 0,-0.443 -0.358,-0.801 -0.801,-0.801 H 27.801 C 27.358,14.999 27,15.357 27,15.8 v 5.398 c 0,0.443 0.358,0.801 0.801,0.801 h 2.314 l -4.227,7 h -1.676 l -4.229,-7 h 2.215 c 0.443,0 0.801,-0.358 0.801,-0.801 V 15.8 c 0,-0.443 -0.358,-0.801 -0.801,-0.801 H 13.8 z" style="fill-opacity:0.098"/><g><path d="m 17,17.721 c -0.942,0.568 -1.884,1.135 -2.826,1.703 l 7.518,12.449 2.826,-1.703 z"/><path d="m 31.1,17.721 c 0.942,0.568 1.884,1.135 2.826,1.703 L 26.408,31.873 23.582,30.17 z"/></g><path d="m 16.834,18.406 -1.969,1.188 7,11.594 1.969,-1.188 -7,-11.594 z"/></g><rect width="10" height="7" x="12" y="14" rx="0.8"/><path d="m 31.27,18.406 1.969,1.188 -7,11.594 L 24.27,30 l 7,-11.594 z" style="color:#000"/><rect rx="0.8" y="14" x="26" height="7" width="10"/><rect rx="0.8" y="28" x="19" height="7" width="10"/><rect rx="0.2" y="15" x="13" height="5" width="8" style="fill:#ffc0cb"/><rect width="8" height="5" x="27" y="15" rx="0.2" style="fill:#ffa07a"/><rect rx="0.2" y="29" x="20" height="5" width="8" style="fill:#ffdead"/></g></g></svg>