<svg xmlns="http://www.w3.org/2000/svg" viewBox="0 0 256 256"><g transform="translate(0 -796.36)"><path d="m 101.39 800.1 c -131.87 19.829 -135.83 217.21 -7.636 247.04 103.78 30.702 188.63 -80.47 154.63 -163.63 -16.07 -55.684 -81.83 -100.67 -146.99 -83.41 z" style="fill:#fff;color:#000"/><g transform="matrix(0 1 -1 0 1047.1 792.81)"><path d="M 198.98 128 A 70.984 70.984 0 0 1 128 198.98 70.984 70.984 0 0 1 57.02 128 70.984 70.984 0 0 1 128 57.02 70.984 70.984 0 0 1 198.98 128" transform="matrix(0.53092 0 0 0.53092 60.04 856.4)" style="fill:#fff;color:#000"/><g style="fill:none;stroke-linecap:round;stroke-width:10"><path d="m 128,924.36 72.33,-41.758" style="fill:#fff;stroke:#fff"/><path d="M 128,924.36 48.54,844.9" style="stroke:#ff4500"/></g><path d="M 142.36 128 A 14.355 14.355 0 0 1 128 142.36 14.355 14.355 0 0 1 113.64 128 14.355 14.355 0 0 1 128 113.64 14.355 14.355 0 0 1 142.36 128" transform="matrix(1.42294 0 0 1.42294 -54.14 742.23)" style="fill:#ff4500;color:#000"/></g><path d="m 86.47 911.25 c 6.091 -22.524 31.457 -34.27 52.06 -24.1 7.228 3.568 7.2 2.83 0.361 9.716 l -5.961 6 l -2.462 -1.089 c -5.852 -2.588 -13.729 -1.756 -19.426 2.053 -3.422 2.288 -5.689 4.963 -7.467 8.812 -1.793 3.881 -1.793 12.454 0 16.335 4.872 10.549 17.218 15.284 27.535 10.561 10.09 -4.619 14.676 -16.661 10.319 -27.09 l -0.925 -2.214 l 5.869 -5.889 c 3.228 -3.239 6.075 -5.762 6.327 -5.607 1.047 0.647 4.508 7.722 5.736 11.726 1.022 3.332 1.322 5.68 1.322 10.345 0 10.276 -3.439 18.703 -10.637 26.06 l -3.849 3.936 l 11.715 20.259 c 12.27 21.22 12.785 22.433 10.64 25.08 -1.39 1.717 -4.779 1.821 -6.402 0.198 -0.622 -0.622 -6.195 -9.919 -12.385 -20.661 -6.19 -10.742 -11.43 -19.708 -11.644 -19.925 -0.214 -0.217 -1.941 0.158 -3.838 0.833 -2.819 1 -4.76 1.229 -10.632 1.231 -6.376 0.003 -7.7 -0.176 -11.776 -1.594 -6.08 -2.115 -10.471 -4.856 -14.821 -9.253 -4.194 -4.239 -7.436 -9.454 -9.124 -14.674 -1.764 -5.457 -2.02 -15.553 -0.53 -21.06 z" style="fill:#ffa07a"/></g></svg>