<svg xmlns="http://www.w3.org/2000/svg" viewBox="0 0 256 256"><g transform="translate(0 -796.36)" style="color:#000"><path d="m 227.81 844.22 c 87.44 110.84 -44.799 278.58 -174.02 176.43 -122.38 -96.74 -16.907 -267.55 126.43 -214.19 c 19.694 7.333 34.821 21.566 47.595 37.758 z" style="fill:#fff"/><path d="m 77.25 867.32 h 54.86 l 7.272 10.233 h 50.52 c 6.776 0 12.231 5.255 12.231 11.782 v 51.688 c 0 6.528 -5.455 11.782 -12.231 11.782 h -112.65 c -6.776 0 -12.231 -5.255 -12.231 -11.782 v -61.923 c 0 -6.528 5.455 -11.782 12.231 -11.782 z" style="fill:#eeb5ac"/><rect width="137.11" height="84.74" x="65.02" y="882.61" rx="12.231" style="fill:#ff4500"/><path d="m 162.2 961.74 c 1.134 -3.02 8.349 -21.981 16.03 -42.15 7.685 -20.16 13.971 -36.747 13.971 -36.85 0 -0.105 -7.18 -0.19 -15.955 -0.19 h -15.955 l -10.63 27.927 c -5.847 15.36 -13.11 34.411 -16.14 42.33 l -5.509 14.41 h 16.06 h 16.06 l 2.059 -5.483 z" style="fill:#ffdead;fill-rule:evenodd"/></g></svg>