<svg xmlns="http://www.w3.org/2000/svg" viewBox="0 0 256 256"><defs><clipPath><path transform="matrix(15.33333 0 0 11.5 415 -125.5)" d="m -24 13 c 0 1.105 -0.672 2 -1.5 2 -0.828 0 -1.5 -0.895 -1.5 -2 0 -1.105 0.672 -2 1.5 -2 0.828 0 1.5 0.895 1.5 2 z"/></clipPath></defs><g transform="translate(1.348 -794.45)" style="color:#000"><path d="m 244.84 882.37 c 49.681 128.5 -89.55 194.42 -176.23 161.67 -60.5 -22.859 -90.65 -113.97 -47.683 -187.62 54.22 -92.93 185.6 -73.16 223.92 25.949 z" style="fill:#fff"/><path d="m 158.98 885.67 c -2.452 -11.86 -10.91 -23.893 -24.604 -26.286 -16.481 -1.972 -33.696 2.555 -48.23 10.461 -10.43 6.311 -15.592 18.16 -14.361 29.01 0.555 12.04 7.03 24.989 20.11 28.946 2.412 0.767 8.724 1.841 5.068 4.583 -9.519 7.139 -14.168 18.482 -11.926 28.794 1.527 12.219 9.512 24.851 23.276 27.762 17.538 3.241 36.14 -1.872 51.902 -9.908 11.318 -6.374 18.259 -18.899 16.16 -30.643 -1.252 -12.477 -9.06 -25.417 -22.934 -28.724 -3.143 -0.204 -5.189 -2.257 -3.422 -4.294 9.216 -7.344 12.259 -19.587 8.961 -29.698 z m -26.861 47.774 c 10.959 -3.18 21.06 3.28 22.949 13.389 3.821 9.692 -4.435 20.646 -15.297 23.508 -10.199 2.684 -23.306 4.231 -29.2 -1.738 -6.51 -6.594 -8.538 -18.567 -1.576 -26.08 5.424 -5.854 15.437 -6.845 23.12 -9.08 z m -35.422 -32.18 c -2.569 -7.526 1.614 -16.835 10.534 -19.636 8.089 -2.539 18.978 -4.864 24.509 1.781 4.962 5.963 7.366 16.437 0.452 22.269 -7.119 6 -18.501 9.971 -27.552 5.948 -4.352 -1.936 -6.533 -6.211 -7.949 -10.36 z" style="fill:#ff4500"/></g></svg>