<svg xmlns="http://www.w3.org/2000/svg" xmlns:xlink="http://www.w3.org/1999/xlink" viewBox="0 0 256 256"><defs><linearGradient id="0" gradientUnits="userSpaceOnUse" y1="20" x2="0" y2="28"><stop/><stop offset="0.5" style="stop-opacity:0"/><stop offset="1" style="stop-color:#ff4500"/></linearGradient><linearGradient id="1" gradientUnits="userSpaceOnUse" y1="22" x2="0" y2="26"><stop style="stop-color:#8a8a8a"/><stop offset="0.41" style="stop-color:#d5d5d5"/><stop offset="0.727" style="stop-color:#6f6f6f"/><stop offset="1" style="stop-color:#373737"/></linearGradient></defs><g transform="translate(0 -796.36)"><path d="m 52.774 1027.39 c 192.46 127.95 311 -280.09 62.2 -226.07 -102.82 23.02 -165.22 167.39 -62.2 226.07 z" style="fill:#fff;color:#000"/><path d="m 102.67 868.63 h 90.75 v 110.91 h -90.75 z" style="fill:#ff4500"/><path d="m 77.74 869.12 h 24.493 v 109.78 h -24.493 z" style="fill:#d2b48c;fill-rule:evenodd"/><g transform="matrix(1.51721 0 0 1.39345 75.64 857.75)"><g id="2"><path d="m 10 24 c 0 -2.209 1.791 -4 4 -4 2.209 0 4 1.791 4 4 0 2.209 -1.791 4 -4 4 -2.209 0 -4 -1.791 -4 -4 z m 1 0 c 0 1.657 1.343 3 3 3 1.657 0 3 -1.343 3 -3 0 -1.657 -1.343 -3 -3 -3 -1.657 0 -3 1.343 -3 3 z" style="fill:url(#0);opacity:0.3"/><path d="m 6 21 v 7 h 8 c 1.646 0 3 -1.579 3 -3.5 c 0 -1.921 -1.354 -3.5 -3 -3.5 h -8 z" style="opacity:0.3"/><path d="m 17 24 a 3 3 0 1 1 -6 0 3 3 0 1 1 6 0 z" style="opacity:0.6"/><rect width="12" height="4" rx="2" x="4" y="22" style="fill:url(#1)"/><rect width="12" height="4" rx="2" x="4" y="22" style="fill:#7f7f7f;opacity:0.8"/></g><g style="fill:#7f7f7f"><use transform="translate(0 12)" width="96" height="96" xlink:href="#2"/><use transform="translate(0 24)" width="96" height="96" xlink:href="#2"/><use transform="translate(0 36)" width="96" height="96" xlink:href="#2"/><use transform="translate(0 48)" width="96" height="96" xlink:href="#2"/></g></g></g></svg>