<svg xmlns="http://www.w3.org/2000/svg" viewBox="0 0 256 256"><defs><clipPath id="0"><path transform="matrix(15.33333 0 0 11.5 415 -125.5)" d="m -24 13 c 0 1.105 -0.672 2 -1.5 2 -0.828 0 -1.5 -0.895 -1.5 -2 0 -1.105 0.672 -2 1.5 -2 0.828 0 1.5 0.895 1.5 2 z"/></clipPath></defs><g transform="translate(0 -796.36)"><path d="m 229.63 992.2 c 92.05 -130.93 -77.948 -263.6 -186.39 -156.91 -102.17 100.51 -7.449 256.68 119.69 207.86 c 26.526 -10.185 49.802 -26.914 66.7 -50.948 z" style="fill:#fff;color:#000"/><g transform="matrix(1.38461 0 0 1.3181 37.576 837.39)"><path d="M 24,1 C 36.703,1 47,11.297 47,24 47,36.703 36.703,47 24,47 11.297,47 1,36.703 1,24 1,11.297 11.297,1 24,1 z" transform="matrix(2.43913 0 0 2.43913 6.308 4.952)" style="fill:#ff4500;stroke:#ffdead;stroke-width:3.608"/><g transform="matrix(2.46567 0 0 2.46567 6.36 4.529)" style="clip-path:url(#0)"><path d="m 36 13.977 c 0 0 -2 3.01 -5 3.01 -2.797 -0.539 -3.906 -0.082 -4 0 v 12.11 c -0.133 2.551 -2.223 5.109 -5.336 6.285 -3.949 1.492 -8.125 0.195 -9.332 -2.91 -1.211 -3.098 1 -6.855 4.953 -8.348 3.059 -1.152 5.867 -0.867 7.715 0.867 v -12.01 c 4 -2.664 7.719 0.957 11 1" transform="translate(1 1)" style="opacity:0.1"/></g><g transform="matrix(2.46567 0 0 2.46567 6.36 4.529)" style="clip-path:url(#0);fill:#ffdead"><path d="m 36 13.977 c 0 0 -2 3.01 -5 3.01 -2.797 -0.539 -3.906 -0.082 -4 0 v 12.11 c -0.133 2.551 -2.223 5.109 -5.336 6.285 -3.949 1.492 -8.125 0.195 -9.332 -2.91 -1.211 -3.098 1 -6.855 4.953 -8.348 3.059 -1.152 5.867 -0.867 7.715 0.867 v -12.01 c 4 -2.664 7.719 0.957 11 1"/></g></g></g></svg>