<svg xmlns="http://www.w3.org/2000/svg" xmlns:xlink="http://www.w3.org/1999/xlink" viewBox="0 0 256 256"><defs><path id="0" d="m 39.775 19.01 c 0 4.784 -3.878 8.662 -8.662 8.662 -4.784 0 -8.662 -3.878 -8.662 -8.662 0 -4.784 3.878 -8.662 8.662 -8.662 4.784 0 8.662 3.878 8.662 8.662 z"/><clipPath><path transform="matrix(15.33333 0 0 11.5 415 -125.5)" d="m -24 13 c 0 1.105 -0.672 2 -1.5 2 -0.828 0 -1.5 -0.895 -1.5 -2 0 -1.105 0.672 -2 1.5 -2 0.828 0 1.5 0.895 1.5 2 z"/></clipPath><radialGradient r="7.22" cy="17.06" cx="29.345" gradientUnits="userSpaceOnUse" id="1"><stop style="stop-color:#f40000"/><stop offset="1" style="stop-color:#df0000"/></radialGradient></defs><g style="color:#000"><path d="m 229.63 992.2 c 92.05 -130.93 -77.948 -263.6 -186.39 -156.91 -102.17 100.51 -7.449 256.68 119.69 207.86 c 26.526 -10.185 49.802 -26.914 66.7 -50.948 z" transform="matrix(0.99081 0 0 0.99081 2.879 -788.17)" style="fill:#fff"/><g transform="matrix(3.30572 0 0 3.62226 47.48 42.698)"><g style="fill-rule:evenodd"><g style="fill:#ff4500"><path d="m 12.489 23.481 h 5.489 l -3.202 -2.79 l -0.686 0.858 l -0.686 -0.644 l -0.915 2.575 z"/><path d="m 18.79 30.411 c 1.593 -0.705 2.335 -2.431 2.335 -2.431 -1.241 -4.908 -5.145 -8.307 -5.145 -8.307 0 0 3.189 7.699 2.81 10.737 z" style="opacity:0.228"/><path d="m 16.891 41.21 h 13.724 c 3.888 0 7.738 -1.338 9.149 -5.15 1.34 -3.621 0.229 -10.515 -8.463 -16.09 h -16.24 c -8.692 5.15 -9.778 12.194 -7.777 16.309 2.039 4.193 5.489 4.936 9.607 4.936 z" style="stroke:#ff4500;stroke-linecap:round;stroke-linejoin:round;stroke-width:1.253"/><path d="m 17.806 21.893 c 4.117 3.433 5.947 15.88 5.947 15.88 0 0 1.83 -12.446 5.03 -16.09 l -10.979 0.215 z" style="fill:#ffdead"/><path d="m 20.756 23.18 c 0 0 -2.784 2.02 -2.544 4.444 -2.641 -2.186 -2.717 -6.375 -2.717 -6.375 l 5.261 1.931 z"/></g><g transform="matrix(0.88869 0 0 1 2.698 -1.812)"><path d="m 26.498 23.18 c 0 0 2.784 2.02 2.544 4.444 2.641 -2.186 2.717 -6.375 2.717 -6.375 l -5.261 1.931 z" style="fill:#ffdead"/><use transform="matrix(1.29388 0 0 1.21393 -16.811 -9.682)" xlink:href="#0" width="256" height="256" style="fill:url(#1);stroke:#ff4500;stroke-linecap:round;stroke-linejoin:round"/></g></g><use transform="matrix(1.13798 0 0 0.97605 -11.881 -5.608)" xlink:href="#0" width="256" height="256" style="fill:none;opacity:0.196;stroke:#f00;stroke-linecap:round;stroke-linejoin:round;stroke-width:1.14"/></g></g></svg>