<svg xmlns="http://www.w3.org/2000/svg" viewBox="0 0 256 256"><defs><clipPath><path transform="matrix(15.33333 0 0 11.5 415 -125.5)" d="m -24 13 c 0 1.105 -0.672 2 -1.5 2 -0.828 0 -1.5 -0.895 -1.5 -2 0 -1.105 0.672 -2 1.5 -2 0.828 0 1.5 0.895 1.5 2 z"/></clipPath></defs><g style="fill:#fff"><path d="M 219.87,1024.74 C 311.92,893.81 141.922,761.14 33.48,867.83 c -102.17,100.51 -7.449,256.68 119.69,207.86 26.526,-10.185 49.802,-26.914 66.7,-50.948 z" transform="matrix(0.9907 0 0 0.98256 10.701 -812.4)" style="fill:#fff;color:#000"/></g><g transform="matrix(1.16339 0 0 1.22369 -14.158 -30.395)"><path d="m 103.33 189.96 c -10.518 -2.755 -19.387 -8.06 -28.21 -16.871 -20.686 -20.661 -24.646 -52.6 -9.667 -77.975 4.182 -7.085 14.787 -17.69 21.872 -21.872 c 25.374 -14.979 57.31 -11.02 77.975 9.667 12.954 12.97 18.915 27.22 18.915 45.21 0 11.834 -1.35 17.683 -6.612 28.651 -6.237 12.998 -15.627 22.389 -28.626 28.626 -5.094 2.444 -11.647 4.932 -14.561 5.528 -8.241 1.686 -22.685 1.24 -31.08 -0.96 z" style="fill:#f06057"/><path d="m 110.22 191 c -1.925 -0.405 -3.05 -0.816 -2.5 -0.913 0.55 -0.097 -2.15 -1.204 -6 -2.46 -8.658 -2.824 -12.494 -4.803 -19.356 -9.983 -10.522 -7.944 -18.661 -20.448 -22.08 -33.926 -0.983 -3.87 -2.038 -6.403 -2.345 -5.627 c -0.307 0.775 -0.541 -3.765 -0.521 -10.09 c 0.02 -6.325 0.274 -10.6 0.563 -9.5 0.338 1.285 0.995 -0.264 1.838 -4.332 4.52 -21.811 24.761 -42.05 46.572 -46.572 4.068 -0.843 5.617 -1.5 4.332 -1.838 -1.1 -0.289 3.175 -0.543 9.5 -0.563 6.325 -0.02 10.866 0.214 10.09 0.521 -0.775 0.307 1.757 1.362 5.627 2.345 20.444 5.192 37.424 20.967 43.578 40.488 1.295 4.107 2.611 7.212 2.924 6.899 0.313 -0.313 0.891 2.2 1.284 5.584 0.819 7.06 -0.291 21.931 -1.493 19.987 -0.503 -0.814 -1.05 0.257 -1.504 2.942 -1.385 8.199 -8.247 19.951 -16.422 28.13 -8.174 8.174 -19.927 15.04 -28.13 16.422 -2.472 0.418 -3.724 1.021 -3.02 1.456 2.726 1.685 -15.868 2.526 -22.939 1.038 z" style="fill:#f38c1e"/><path d="m 110.22 191 c -1.925 -0.405 -3.05 -0.816 -2.5 -0.913 0.55 -0.097 -2.15 -1.204 -6 -2.46 -8.658 -2.824 -12.494 -4.803 -19.356 -9.983 -10.522 -7.944 -18.661 -20.448 -22.08 -33.926 -0.983 -3.87 -2.038 -6.403 -2.345 -5.627 c -0.307 0.775 -0.541 -3.765 -0.521 -10.09 c 0.02 -6.325 0.274 -10.6 0.563 -9.5 0.338 1.285 0.995 -0.264 1.838 -4.332 4.52 -21.811 24.761 -42.05 46.572 -46.572 4.068 -0.843 5.617 -1.5 4.332 -1.838 -1.1 -0.289 3.175 -0.543 9.5 -0.563 6.325 -0.02 10.866 0.214 10.09 0.521 -0.775 0.307 1.757 1.362 5.627 2.345 20.444 5.192 37.424 20.967 43.578 40.488 1.295 4.107 2.611 7.212 2.924 6.899 0.313 -0.313 0.891 2.2 1.284 5.584 0.819 7.06 -0.291 21.931 -1.493 19.987 -0.503 -0.814 -1.05 0.257 -1.504 2.942 -1.385 8.199 -8.247 19.951 -16.422 28.13 -8.174 8.174 -19.927 15.04 -28.13 16.422 -2.472 0.418 -3.724 1.021 -3.02 1.456 2.726 1.685 -15.868 2.526 -22.939 1.038 z m 21.334 -17.934 c 0.509 -0.509 0.718 -4.669 0.465 -9.245 -0.561 -10.161 -4.203 -18.17 -11.183 -24.608 c -3.699 -3.41 -5.296 -4.213 -8.371 -4.213 c -9.663 0 -13.541 9.765 -9.714 24.458 2.153 8.267 6.181 14.276 9.969 14.873 4.433 0.699 17.765 -0.196 18.834 -1.265 z m 14.938 -6.314 c 1.524 -1.056 3.414 -3.457 4.199 -5.336 0.948 -2.27 2.097 -3.417 3.422 -3.417 4.784 0 6.887 -9.221 2.992 -13.12 -1.688 -1.688 -2.922 -2.01 -6.098 -1.582 -4.884 0.655 -8.124 3.546 -9.638 8.6 -1.224 4.084 -1.546 13.896 -0.543 16.511 0.63 1.642 1.095 1.506 5.667 -1.66 z m -49.27 0.576 c 0 -0.369 -1.089 -3.407 -2.419 -6.75 -1.331 -3.343 -2.731 -7.766 -3.111 -9.828 -0.873 -4.727 -2.181 -4.807 -3.047 -0.187 -1.214 6.47 0.105 11.597 3.763 14.632 3.302 2.74 4.815 3.41 4.815 2.133 z m -19 -25.922 c 0 -0.812 1.18 -5.05 2.623 -9.412 l 2.623 -7.936 l -3.284 -5.117 c -2.89 -4.504 -3.406 -4.899 -4.302 -3.298 -2.59 4.629 -1.326 29.505 1.413 27.812 0.509 -0.315 0.926 -1.237 0.926 -2.048 z m 87.8 -6.368 l -0.296 -2.538 l -2.936 2.89 l -2.936 2.89 l 2.387 1.933 c 2.378 1.925 2.39 1.924 3.232 -0.352 0.465 -1.256 0.712 -3.427 0.549 -4.823 z m -3.796 -13.05 c 0 -0.44 -0.895 -0.565 -1.989 -0.279 -1.094 0.286 -1.754 0.899 -1.468 1.363 0.608 0.984 3.457 0.091 3.457 -1.083 z m -15 -1.487 c -0.685 -0.825 -1.626 -1.5 -2.091 -1.5 -0.465 0 -0.587 0.675 -0.271 1.5 0.317 0.825 1.258 1.5 2.091 1.5 1.234 0 1.284 -0.279 0.271 -1.5 z m -53.668 -12.281 c 6.08 -7.902 12.898 -11.594 21.408 -11.594 h 6.28 l -0.566 -3.063 c -0.357 -1.933 -0.018 -3.8 0.919 -5.063 1.467 -1.975 1.529 -1.976 5.03 -0.106 2.955 1.578 3.807 1.676 5.119 0.588 2.276 -1.889 1.43 -5.274 -1.523 -6.091 -9.178 -2.538 -25.06 0.218 -34 5.898 -8.75 5.562 -13.49 16.762 -9.605 22.692 0.908 1.386 1.839 2.52 2.069 2.52 0.23 0 2.42 -2.602 4.867 -5.781 z m 68.67 -0.079 c 0 -3.02 -9.352 -13.839 -15.882 -18.374 -3.957 -2.748 -4.475 -2.879 -5.333 -1.344 -2.045 3.655 -7.125 8.626 -9.396 9.196 -1.314 0.33 -2.389 0.933 -2.389 1.342 0 0.88 9.705 7.04 11.09 7.04 0.527 0 1.236 -1.389 1.576 -3.086 0.339 -1.697 1.245 -3.327 2.01 -3.621 1.801 -0.691 4.974 2.191 5.731 5.205 0.566 2.254 2.188 2.855 11.84 4.384 0.412 0.065 0.75 -0.268 0.75 -0.742 z" style="fill:#f16f26"/><path d="m 110.22 191 c -1.925 -0.405 -3.05 -0.816 -2.5 -0.913 0.55 -0.097 -2.15 -1.204 -6 -2.46 -8.658 -2.824 -12.494 -4.803 -19.356 -9.983 -10.522 -7.944 -18.661 -20.448 -22.08 -33.926 -0.983 -3.87 -2.038 -6.403 -2.345 -5.627 c -0.307 0.775 -0.541 -3.765 -0.521 -10.09 c 0.02 -6.325 0.274 -10.6 0.563 -9.5 0.338 1.285 0.995 -0.264 1.838 -4.332 4.52 -21.811 24.761 -42.05 46.572 -46.572 4.068 -0.843 5.617 -1.5 4.332 -1.838 -1.1 -0.289 3.175 -0.543 9.5 -0.563 6.325 -0.02 10.866 0.214 10.09 0.521 -0.775 0.307 1.757 1.362 5.627 2.345 20.444 5.192 37.424 20.967 43.578 40.488 1.295 4.107 2.611 7.212 2.924 6.899 0.313 -0.313 0.891 2.2 1.284 5.584 0.819 7.06 -0.291 21.931 -1.493 19.987 -0.503 -0.814 -1.05 0.257 -1.504 2.942 -1.385 8.199 -8.247 19.951 -16.422 28.13 -8.174 8.174 -19.927 15.04 -28.13 16.422 -2.472 0.418 -3.724 1.021 -3.02 1.456 2.726 1.685 -15.868 2.526 -22.939 1.038 z m 18.79 -8.917 c 2.359 -0.456 4.552 -1.092 4.874 -1.413 0.321 -0.321 -0.085 -6.21 -0.902 -13.09 c -1.726 -14.517 -4.486 -21.361 -11.404 -28.28 -3.886 -3.886 -4.774 -4.304 -9.142 -4.304 c -7.923 0 -11.215 4.391 -11.215 14.96 0 5.884 3.229 18.446 5.03 19.557 0.535 0.331 0.973 1.7 0.973 3.042 0 1.946 -0.514 2.441 -2.533 2.441 -2.2 0 -3.113 -1.191 -6.941 -9.06 -2.424 -4.98 -4.917 -11.512 -5.54 -14.513 -1.279 -6.16 -2.424 -6.232 -4.03 -0.253 -1.362 5.058 -0.434 12.69 2.337 19.211 1.793 4.219 2.8 5.22 7.353 7.304 9.768 4.472 21.889 6.18 31.15 4.39 z m 27.503 -13.273 l 5.207 -4.69 l -3.512 0.532 c -2.704 0.41 -3.934 0.065 -5.348 -1.497 c -2.305 -2.547 -1.382 -4.155 2.383 -4.155 c 3.414 0 4.976 -2.292 4.976 -7.299 0 -4.973 -3.265 -8.701 -7.622 -8.701 -7.648 0 -11.324 4.489 -12.844 15.684 -0.721 5.312 0.828 15.762 2.674 18.04 1.32 1.628 7.094 -1.615 14.09 -7.912 z m -77.39 -12.348 c -1.187 -8.227 -0.426 -16.778 2.197 -24.681 2.487 -7.49 2.468 -7.668 -1.53 -14.997 c -1.886 -3.456 -3.743 -8.08 -4.128 -10.284 c -1.233 -7.05 -1.967 -7.099 -4.777 -0.349 -3.475 8.347 -4.612 13.835 -4.642 22.389 -0.028 8.147 1.958 16.64 5.585 23.875 2.647 5.281 7.331 11.978 7.946 11.363 0.194 -0.194 -0.099 -3.487 -0.651 -7.316 z m 92.94 -10.962 c 2.861 -8.568 3.587 -17.01 2.179 -25.359 -0.662 -3.924 -1.553 -7.35 -1.98 -7.614 -0.427 -0.264 -1.566 0.392 -2.531 1.458 -1.461 1.614 -1.64 3 -1.072 8.306 l 0.682 6.367 l -4.561 3.738 c -4.806 3.938 -5.645 6.46 -2.906 8.731 2.463 2.042 4.343 7.254 4.362 12.09 l 0.017 4.282 l 1.904 -3 c 1.047 -1.65 2.805 -5.7 3.907 -9 z m -9.845 -23.714 c 0 -0.55 -0.712 -0.727 -1.582 -0.393 -0.87 0.334 -1.797 0.607 -2.059 0.607 -0.262 0 -0.211 0.43 0.114 0.956 0.718 1.161 3.527 0.229 3.527 -1.17 z m -15 -1.286 c -0.685 -0.825 -1.626 -1.5 -2.091 -1.5 -0.465 0 -0.587 0.675 -0.271 1.5 0.317 0.825 1.258 1.5 2.091 1.5 1.234 0 1.284 -0.279 0.271 -1.5 z m -57 -7.3 c 0 -0.44 2.343 -3.429 5.206 -6.641 6.411 -7.193 11.18 -9.507 19.653 -9.537 6.293 -0.022 6.352 -0.048 5.726 -2.542 -0.348 -1.386 -0.156 -3.411 0.427 -4.5 1.115 -2.084 4.44 -2.677 5.489 -0.979 1.206 1.951 5.504 1.085 6.605 -1.332 1.528 -3.355 -1.146 -9.346 -4.807 -10.769 -4.78 -1.858 -16.07 -0.561 -22.798 2.621 c -15.664 7.404 -25.746 24.986 -18.767 32.73 c 1.656 1.838 3.267 2.306 3.267 0.95 z m 76.851 -4.297 c 3.73 -1.3 3.791 -1.724 1.024 -7.147 -4.123 -8.08 -18.258 -20.87 -25.625 -23.18 -2.14 -0.672 -2.25 -0.445 -2.254 4.611 -0.005 6.718 -2.513 11.02 -8.08 13.86 l -4.162 2.123 l 5.673 3.417 c 3.12 1.879 6.094 3.417 6.609 3.417 0.515 0 1.604 -1.598 2.42 -3.551 1.301 -3.115 1.73 -3.419 3.491 -2.477 1.104 0.591 2.382 2.526 2.84 4.301 0.758 2.935 1.254 3.276 5.481 3.768 2.556 0.298 4.966 0.86 5.356 1.25 1.015 1.015 3.598 0.876 7.226 -0.389 z" style="fill:#ee4a32"/><path d="m 95.05 161.93 c -2.383 -2.749 -6.228 -11.782 -7.08 -16.624 -0.901 -5.141 -0.148 -10.966 2.075 -16.07 1.732 -3.974 1.564 -5.729 -0.822 -8.571 -8.868 -10.563 -3.854 -21.18 13.459 -28.505 14.655 -6.199 26.803 -5.877 32.379 0.858 4.072 4.914 0.722 11.744 -6.637 13.527 -3.964 0.961 -5.653 -0.023 -5.653 -3.293 0 -2.127 0.172 -2.298 1.864 -1.86 4.899 1.27 7.081 1.181 8.08 -0.331 1.455 -2.2 0.31 -5.699 -2.486 -7.605 -3.38 -2.302 -7.912 -2.777 -14.14 -1.485 -16.798 3.483 -29.885 16.793 -23.989 24.398 0.949 1.224 2.264 2.129 2.922 2.01 0.659 -0.117 2.979 -2 5.156 -4.189 2.273 -2.284 5.546 -4.649 7.687 -5.556 7.06 -2.99 19.05 -1.263 27.25 3.923 2.713 1.718 3.23 1.6 4.82 -1.096 0.761 -1.291 1.684 -2.347 2.051 -2.347 0.368 0 1.325 1.128 2.127 2.507 1.297 2.23 1.886 2.556 5.326 2.955 2.127 0.246 4.521 0.744 5.321 1.106 0.954 0.432 2.272 0.427 3.837 -0.014 3.141 -0.886 3.613 -0.357 2.063 2.309 -1.042 1.791 -1.119 2.863 -0.412 5.729 l 0.87 3.525 l -3.839 2.736 c -3.673 2.617 -4.802 4.741 -2.998 5.645 1.429 0.715 4.131 5.548 4.131 7.39 0 3.593 -4.052 7.695 -7.601 7.695 -1.529 0 -2.341 -0.349 -2.341 -1.01 0 -0.62 0.777 -1.01 2.024 -1.01 2.753 0 4.604 -2.364 4.604 -5.88 0 -4.064 -2.688 -6.191 -7.821 -6.191 -5.246 0 -8.302 2.356 -9.984 7.685 -1.569 4.996 -1.564 7.602 0.026 13.07 1.481 5.087 1.166 6.464 -1.242 5.419 -1.998 -0.866 -3.045 -3.965 -3.786 -11.223 -0.674 -6.586 -3.539 -12.03 -8.729 -16.59 -6.02 -5.285 -13.381 -5.392 -17.39 -0.245 -2.596 3.328 -1.95 12.705 1.277 18.524 2.333 4.209 2.354 5.309 0.085 4.604 -1.602 -0.498 -6.858 -9.668 -8.619 -15.04 -1.418 -4.322 -2.752 -5.197 -4.317 -2.831 -2.545 3.849 -1.309 13.388 2.522 19.469 2.342 3.715 0.707 5.676 -2.066 2.477 z m 61.23 -38.2 c 1.479 -1.709 0.348 -3.38 -1.354 -2.01 -0.547 0.443 -1.665 0.805 -2.486 0.805 -1.726 0 -1.918 0.728 -0.497 1.878 1.484 1.201 2.903 0.979 4.337 -0.677 z m -10.618 -0.659 c 0.336 -0.439 0.164 -0.919 -0.38 -1.066 -0.544 -0.147 -1.516 -0.693 -2.159 -1.213 -1.61 -1.303 -2.945 -1.185 -2.945 0.261 0 2.376 4.067 3.873 5.483 2.02 z" style="fill:#5a2c0d"/></g></svg>