<svg xmlns="http://www.w3.org/2000/svg" viewBox="0 0 256 256"><g transform="translate(0 -796.36)"><path d="m 44.834 1015.23 c -201.82 -266.38 353.59 -304.22 175.35 -32.31 -40.634 61.991 -121.89 102.86 -175.35 32.31 z" style="fill:#fff;color:#000"/><path d="m 114.82 205.99 c -0.507 -0.507 -0.824 -1.169 -0.824 -1.719 c 0 -0.492 -0.124 -0.895 -0.276 -0.895 -0.152 0 -0.373 -0.773 -0.491 -1.719 -0.118 -0.945 -0.333 -1.719 -0.477 -1.719 -0.144 0 -0.336 -0.809 -0.427 -1.797 -0.228 -2.497 -1.042 -8.889 -1.442 -11.328 -0.183 -1.117 -0.419 -3.121 -0.525 -4.453 -0.106 -1.332 -0.294 -2.422 -0.418 -2.422 -0.124 0 -0.323 -1.718 -0.441 -3.818 -0.119 -2.1 -0.339 -4.385 -0.49 -5.078 -0.579 -2.664 -0.951 -5.464 -0.951 -7.155 0 -0.968 -0.141 -1.761 -0.313 -1.761 -0.174 0 -0.319 -0.868 -0.326 -1.953 -0.007 -1.074 -0.157 -2.586 -0.332 -3.359 -0.175 -0.773 -0.392 -1.828 -0.481 -2.344 -0.328 -1.884 -2.115 -5.15 -2.819 -5.154 -0.201 -0.001 -0.423 -0.178 -0.495 -0.393 -0.185 -0.556 -4.351 -0.54 -4.537 0.018 -0.075 0.225 -0.438 0.717 -0.807 1.094 -0.872 0.89 -1.401 2.441 -1.652 4.844 -0.111 1.064 -0.323 1.935 -0.47 1.935 -0.147 0 -0.268 0.563 -0.268 1.25 0 0.688 -0.122 1.25 -0.271 1.25 -0.149 0 -0.365 1.09 -0.48 2.422 -0.114 1.332 -0.335 3.898 -0.49 5.703 -0.155 1.805 -0.291 4.793 -0.302 6.641 -0.011 1.848 -0.145 3.359 -0.298 3.359 -0.153 0 -0.36 2.566 -0.46 5.703 -0.463 14.525 -1.726 22.04 -3.87 23.02 -1.311 0.6 -3.83 -0.452 -3.83 -1.6 0 -0.153 -0.281 -0.58 -0.625 -0.949 -0.344 -0.369 -0.625 -0.996 -0.625 -1.393 0 -0.397 -0.121 -0.722 -0.269 -0.722 -0.148 0 -0.353 -0.713 -0.457 -1.585 -0.189 -1.593 -0.678 -3.418 -1.188 -4.426 -0.151 -0.298 -0.274 -0.826 -0.274 -1.172 0 -0.346 -0.124 -0.629 -0.276 -0.629 -0.152 0 -0.374 -0.914 -0.494 -2.031 -0.12 -1.117 -0.347 -2.031 -0.505 -2.031 -0.158 0 -0.288 -0.414 -0.288 -0.919 0 -0.505 -0.141 -1.01 -0.313 -1.112 -0.172 -0.106 -0.313 -0.607 -0.313 -1.112 0 -0.505 -0.124 -0.919 -0.276 -0.919 -0.152 0 -0.374 -0.913 -0.493 -2.028 -0.119 -1.115 -0.347 -2.108 -0.505 -2.206 -0.158 -0.098 -0.288 -0.732 -0.288 -1.41 0 -0.677 -0.12 -1.232 -0.266 -1.232 -0.146 0 -0.352 -1.119 -0.458 -2.487 -0.105 -1.368 -0.321 -2.739 -0.478 -3.047 -0.391 -0.765 -0.985 -3.365 -0.985 -4.314 0 -0.427 -0.121 -0.777 -0.268 -0.777 -0.147 0 -0.353 -0.809 -0.457 -1.797 -0.104 -0.988 -0.474 -2.922 -0.821 -4.297 -0.347 -1.375 -0.634 -2.957 -0.636 -3.516 -0.003 -0.559 -0.118 -1.016 -0.257 -1.016 -0.139 0 -0.409 -1.16 -0.6 -2.578 -0.191 -1.418 -0.501 -3.281 -0.689 -4.141 -0.188 -0.859 -0.501 -3.391 -0.695 -5.625 -0.194 -2.234 -0.459 -4.133 -0.588 -4.219 -0.235 -0.156 -0.476 -1.977 -0.807 -6.093 -0.097 -1.203 -0.325 -2.279 -0.507 -2.392 -0.515 -0.318 -0.517 -20.953 -0.002 -21.12 0.224 -0.075 0.391 -0.653 0.391 -1.354 0 -0.673 0.141 -1.224 0.313 -1.224 0.172 0 0.313 -0.343 0.313 -0.763 0 -0.42 0.134 -0.846 0.298 -0.947 0.164 -0.101 0.393 -1.024 0.509 -2.05 0.116 -1.026 0.334 -1.865 0.483 -1.865 0.15 0 0.272 -0.281 0.272 -0.625 0 -0.344 0.134 -0.625 0.298 -0.625 0.164 0 0.391 -0.492 0.504 -1.094 0.113 -0.602 0.33 -1.094 0.483 -1.094 c 0.153 0 0.278 -0.64 0.278 -1.421 0 -1.109 -0.169 -1.578 -0.77 -2.134 -0.423 -0.392 -1.052 -1.373 -1.398 -2.179 -0.346 -0.806 -0.843 -1.548 -1.105 -1.649 -0.262 -0.101 -0.477 -0.389 -0.477 -0.641 c 0 -0.252 -0.211 -0.669 -0.469 -0.926 -0.258 -0.258 -0.469 -0.74 -0.469 -1.071 0 -0.331 -0.141 -0.603 -0.313 -0.603 -0.172 0 -0.313 -0.352 -0.313 -0.781 0 -0.43 -0.141 -0.781 -0.313 -0.781 -0.172 0 -0.313 -0.41 -0.313 -0.911 0 -0.501 -0.143 -0.959 -0.317 -1.017 -0.174 -0.058 -0.406 -1.054 -0.514 -2.214 -0.108 -1.159 -0.317 -2.108 -0.464 -2.108 -0.358 0 -0.345 -12.415 0.013 -12.637 0.154 -0.095 0.38 -1.158 0.5 -2.362 0.121 -1.204 0.346 -2.189 0.501 -2.189 0.154 0 0.281 -0.352 0.281 -0.781 0 -0.43 0.141 -0.781 0.313 -0.781 0.172 0 0.313 -0.273 0.313 -0.607 0 -0.334 0.13 -0.687 0.288 -0.785 0.159 -0.098 0.381 -0.599 0.494 -1.112 0.113 -0.514 0.335 -0.934 0.493 -0.934 0.158 0 0.288 -0.281 0.288 -0.625 0 -0.344 0.123 -0.625 0.274 -0.625 0.151 0 0.564 -0.668 0.918 -1.484 0.354 -0.816 0.899 -1.721 1.21 -2.01 c 0.744 -0.689 1.348 -1.434 1.348 -1.664 c 0 -0.101 0.316 -0.509 0.703 -0.908 0.387 -0.398 0.91 -1.025 1.163 -1.392 0.253 -0.367 0.576 -0.668 0.717 -0.668 0.142 0 0.596 -0.316 1.01 -0.703 1.202 -1.124 1.676 -1.484 1.95 -1.484 0.141 0 0.459 -0.281 0.707 -0.625 0.248 -0.344 0.63 -0.625 0.85 -0.625 0.22 0 0.4 -0.138 0.4 -0.307 0 -0.169 0.355 -0.396 0.789 -0.504 0.434 -0.109 0.961 -0.438 1.172 -0.732 0.211 -0.294 0.84 -0.734 1.399 -0.978 0.559 -0.244 1.016 -0.551 1.016 -0.68 0 -0.13 0.352 -0.236 0.781 -0.236 0.43 0 0.781 -0.136 0.781 -0.302 0 -0.166 0.706 -0.395 1.57 -0.51 0.863 -0.115 1.645 -0.33 1.737 -0.48 0.092 -0.149 0.511 -0.271 0.93 -0.271 0.42 0 0.763 -0.141 0.763 -0.313 0 -0.172 0.492 -0.313 1.094 -0.313 0.602 0 1.094 -0.141 1.094 -0.313 0 -0.172 0.554 -0.313 1.232 -0.313 0.677 0 1.318 -0.141 1.425 -0.313 0.106 -0.172 1.099 -0.313 2.206 -0.313 1.134 0 2.01 -0.137 2.01 -0.313 0 -0.184 1.094 -0.313 2.656 -0.313 1.563 0 2.656 0.129 2.656 0.313 0 0.176 0.879 0.313 2.01 0.313 1.107 0 2.1 0.141 2.206 0.313 0.106 0.172 0.598 0.313 1.094 0.313 0.495 0 0.988 0.141 1.094 0.313 0.106 0.172 0.528 0.313 0.938 0.313 0.409 0 0.831 0.141 0.938 0.313 0.106 0.172 0.466 0.313 0.8 0.313 0.334 0 0.607 0.122 0.607 0.271 0 0.149 0.595 0.351 1.321 0.449 0.727 0.097 1.371 0.327 1.432 0.51 0.061 0.183 0.31 0.333 0.554 0.333 0.243 0 0.443 0.141 0.443 0.313 0 0.172 0.25 0.313 0.556 0.313 0.306 0 0.759 0.281 1.01 0.625 0.248 0.344 0.57 0.625 0.716 0.625 0.377 0 1.159 0.829 1.159 1.228 0 0.184 0.142 0.335 0.315 0.335 0.173 0 1.193 0.913 2.266 2.028 2.513 2.613 2.53 2.634 3.06 3.831 0.247 0.559 0.556 1.016 0.686 1.016 0.13 0 0.236 0.264 0.236 0.587 0 0.323 0.211 0.762 0.469 0.976 0.258 0.214 0.469 0.583 0.469 0.82 0 0.237 0.141 0.43 0.313 0.43 0.176 0 0.313 0.885 0.313 2.031 0 1.146 -0.136 2.031 -0.313 2.031 -0.172 0 -0.313 0.211 -0.313 0.469 0 0.258 -0.131 0.469 -0.291 0.469 -0.16 0 -0.381 0.281 -0.49 0.625 -0.272 0.856 -2.113 0.856 -2.969 0 -0.344 -0.344 -0.84 -0.625 -1.104 -0.625 -0.263 0 -0.559 -0.211 -0.658 -0.469 -0.099 -0.258 -0.415 -0.469 -0.702 -0.469 -0.287 0 -0.729 -0.298 -0.982 -0.663 -0.681 -0.983 -2.602 -2.774 -2.975 -2.774 -0.177 0 -0.737 -0.431 -1.726 -1.328 -0.331 -0.301 -0.814 -0.547 -1.071 -0.547 -0.258 0 -0.469 -0.127 -0.469 -0.283 0 -0.156 -0.703 -0.38 -1.563 -0.498 -0.859 -0.118 -1.563 -0.342 -1.563 -0.498 0 -0.156 -0.422 -0.283 -0.938 -0.283 -0.516 0 -0.938 -0.126 -0.938 -0.281 0 -0.453 -2.666 -0.723 -7.188 -0.727 -4.417 -0.004 -6.875 0.257 -6.875 0.729 0 0.154 -0.352 0.28 -0.781 0.28 -0.43 0 -0.781 0.125 -0.781 0.277 0 0.152 -0.633 0.372 -1.406 0.488 -0.773 0.116 -1.406 0.343 -1.406 0.504 0 0.161 -0.147 0.293 -0.328 0.293 -0.383 0 -4.229 3.832 -5.141 5.122 -0.344 0.486 -0.801 1.07 -1.016 1.296 -0.215 0.226 -0.391 0.562 -0.391 0.747 0 0.184 -0.116 0.335 -0.258 0.335 -0.142 0 -0.659 0.879 -1.15 1.953 -0.491 1.074 -1.01 2.031 -1.147 2.127 -0.14 0.096 -0.345 1.045 -0.457 2.109 -0.111 1.065 -0.323 1.936 -0.47 1.936 -0.147 0 -0.268 1.969 -0.268 4.375 0 2.406 0.125 4.375 0.277 4.375 0.152 0 0.372 0.634 0.488 1.408 0.244 1.626 0.777 2.767 1.69 3.617 0.679 0.632 1.92 0.818 1.92 0.287 0 -0.172 0.177 -0.313 0.394 -0.313 0.217 0 0.744 -0.316 1.172 -0.703 0.428 -0.387 1.165 -0.903 1.637 -1.147 0.473 -0.244 0.859 -0.56 0.859 -0.703 0 -0.143 0.281 -0.26 0.625 -0.26 0.344 0 0.625 -0.125 0.625 -0.278 0 -0.153 0.492 -0.37 1.094 -0.483 0.602 -0.113 1.094 -0.339 1.094 -0.504 0 -0.164 0.328 -0.298 0.729 -0.298 0.401 0 0.83 -0.101 0.953 -0.223 0.466 -0.466 3.243 -0.999 5.271 -1.013 1.189 -0.008 2.109 -0.15 2.109 -0.326 0 -0.182 1.042 -0.313 2.5 -0.313 1.458 0 2.5 0.13 2.5 0.313 0 0.18 1.023 0.317 2.422 0.324 1.332 0.006 3.195 0.208 4.141 0.448 6.294 1.601 7.355 1.903 7.448 2.115 0.057 0.131 0.444 0.238 0.859 0.238 0.415 0 0.755 0.141 0.755 0.313 0 0.172 0.159 0.313 0.354 0.313 0.195 0 0.693 0.387 1.106 0.859 0.693 0.792 0.743 1.066 0.631 3.516 -0.066 1.461 -0.296 3.219 -0.51 3.906 -0.214 0.688 -0.581 2.375 -0.817 3.75 -0.235 1.375 -0.584 3.203 -0.776 4.063 -0.865 3.881 -0.626 12.927 0.371 14.05 0.145 0.163 0.264 0.764 0.264 1.334 0 0.571 0.352 1.903 0.781 2.96 0.43 1.057 0.781 2.109 0.781 2.338 0 0.228 0.141 0.415 0.313 0.415 0.172 0 0.314 0.246 0.316 0.547 0.002 0.301 0.354 1.159 0.781 1.907 0.428 0.748 0.777 1.557 0.777 1.797 0 0.24 0.141 0.437 0.313 0.437 0.172 0 0.313 0.271 0.313 0.603 0 0.331 0.211 0.814 0.469 1.071 0.258 0.258 0.469 0.551 0.469 0.651 0 0.1 0.668 0.869 1.484 1.708 0.816 0.839 2.02 2.102 2.674 2.808 0.654 0.706 1.322 1.284 1.484 1.284 0.162 0 0.295 0.151 0.295 0.335 0 0.433 -0.795 1.228 -1.228 1.228 -0.495 0 -0.407 1.156 0.104 1.351 0.562 0.216 1.749 -0.09 1.749 -0.45 0 -0.152 0.281 -0.276 0.625 -0.276 0.344 0 0.625 -0.141 0.625 -0.313 0 -0.172 0.211 -0.313 0.469 -0.313 0.258 0 0.469 0.141 0.469 0.313 0 0.172 0.211 0.313 0.469 0.313 0.258 0 0.469 0.141 0.469 0.313 0 0.172 0.281 0.313 0.625 0.313 0.344 0 0.626 0.105 0.627 0.234 0.003 0.274 1.511 1.016 2.065 1.016 0.209 0 0.427 0.134 0.485 0.298 0.057 0.164 0.702 0.393 1.432 0.509 1.2 0.191 1.328 0.149 1.328 -0.432 0 -0.353 -0.206 -0.828 -0.458 -1.056 -1.044 -0.941 -1.407 -1.194 -1.716 -1.194 -0.179 0 -0.326 -0.141 -0.326 -0.313 0 -0.172 -0.21 -0.313 -0.466 -0.313 -0.623 0 -2.502 -1.979 -2.029 -2.137 0.365 -0.122 2.254 -1.731 2.919 -2.487 0.196 -0.223 0.676 -0.747 1.066 -1.164 0.39 -0.417 0.794 -1.184 0.898 -1.704 0.104 -0.52 0.312 -0.945 0.463 -0.945 0.15 0 0.273 -0.281 0.273 -0.625 0 -0.344 0.141 -0.625 0.313 -0.625 0.172 0 0.313 -0.247 0.313 -0.549 0 -0.668 2.53 -2.263 3.588 -2.263 0.413 0 0.837 -0.141 0.943 -0.313 0.106 -0.172 0.818 -0.313 1.581 -0.313 0.763 0 1.388 -0.141 1.388 -0.313 0 -0.172 0.547 -0.313 1.217 -0.313 1.317 0 1.895 -0.669 1.251 -1.446 -0.425 -0.512 -5.753 -0.615 -6.06 -0.117 -0.106 0.172 -0.607 0.313 -1.112 0.313 -0.505 0 -0.919 0.141 -0.919 0.313 0 0.172 -0.352 0.313 -0.781 0.313 -0.43 0 -0.781 0.141 -0.781 0.313 0 0.172 -0.147 0.313 -0.326 0.313 -0.179 0 -0.537 0.176 -0.796 0.391 -1.235 1.025 -1.655 1.639 -1.966 2.873 -0.185 0.735 -0.55 1.514 -0.812 1.731 -0.261 0.217 -0.475 0.567 -0.475 0.777 0 0.502 -1.071 1.728 -1.51 1.728 -0.415 0 -2.097 1.603 -2.29 2.182 -0.142 0.427 -2.642 -1.908 -3.856 -3.6 -0.344 -0.479 -0.801 -1.049 -1.016 -1.267 -0.215 -0.217 -0.391 -0.567 -0.391 -0.777 0 -0.462 -1.593 -3.814 -1.924 -4.047 -0.129 -0.091 -0.329 -0.759 -0.445 -1.484 -0.116 -0.725 -0.334 -1.319 -0.483 -1.319 -0.15 0 -0.273 -0.283 -0.273 -0.629 0 -0.346 -0.132 -0.873 -0.293 -1.172 -0.985 -1.824 -1.444 -15.534 -0.697 -20.855 0.472 -3.366 1.071 -6.094 1.338 -6.094 0.12 0 0.319 -0.738 0.442 -1.641 0.123 -0.902 0.314 -1.711 0.424 -1.797 0.379 -0.295 1.561 -2.969 1.761 -3.984 0.11 -0.559 0.329 -1.016 0.488 -1.016 0.158 0 0.288 -0.224 0.288 -0.498 0 -0.274 0.283 -0.572 0.628 -0.662 0.346 -0.09 0.712 -0.499 0.815 -0.908 0.249 -0.991 0.627 -0.938 1.198 0.165 0.259 0.5 0.579 0.957 0.711 1.016 0.344 0.152 1.335 2.105 1.335 2.632 0 0.244 0.141 0.443 0.313 0.443 0.172 0 0.313 0.211 0.313 0.469 0 0.258 0.125 0.469 0.279 0.469 0.153 0 0.372 0.373 0.487 0.829 0.114 0.456 0.622 1.215 1.128 1.688 0.506 0.472 0.92 1.019 0.92 1.213 0 0.349 0.896 1.903 1.273 2.207 0.106 0.086 0.288 0.543 0.404 1.016 0.116 0.473 0.342 0.859 0.503 0.859 0.161 0 0.644 0.352 1.074 0.781 0.576 0.576 1.114 0.781 2.045 0.781 0.695 0 1.264 -0.141 1.264 -0.313 0 -0.172 0.563 -0.313 1.25 -0.313 0.688 0 1.25 -0.141 1.25 -0.313 0 -0.196 1.927 -0.313 5.156 -0.313 3.229 0 5.156 0.117 5.156 0.313 0 0.172 0.563 0.313 1.25 0.313 0.688 0 1.25 0.141 1.25 0.313 0 0.174 0.833 0.313 1.873 0.313 1.826 0 1.917 -0.041 3.594 -1.616 0.946 -0.889 1.72 -1.751 1.72 -1.916 0 -0.349 1.223 -1.468 1.604 -1.468 0.142 0 0.347 -0.352 0.455 -0.781 0.108 -0.43 0.321 -0.781 0.475 -0.781 0.153 0 0.279 -0.211 0.279 -0.469 0 -0.258 0.223 -0.469 0.495 -0.469 0.272 0 0.94 -0.508 1.484 -1.129 0.544 -0.621 1.446 -1.633 2 -2.249 0.559 -0.616 1.016 -1.212 1.016 -1.324 0 -0.348 1.15 -1.549 1.484 -1.549 0.481 0 1.016 2.529 1.016 4.8 0 1.113 0.143 2.071 0.317 2.129 0.482 0.161 0.529 28.15 0.048 28.314 -0.201 0.067 -0.365 0.596 -0.365 1.175 0 0.579 -0.13 1.376 -0.289 1.771 -0.159 0.395 -0.537 1.597 -0.84 2.671 -0.303 1.074 -0.665 1.953 -0.804 1.953 -0.139 0 -0.253 0.281 -0.253 0.625 0 0.344 -0.141 0.625 -0.313 0.625 -0.172 0 -0.313 0.224 -0.313 0.499 0 0.552 -0.959 2.41 -1.328 2.574 -0.129 0.057 -0.234 0.243 -0.234 0.413 0 0.411 -0.807 1.202 -1.228 1.202 -0.23 0 -0.167 -2.481 -0.167 -8.692 0 -7.539 -0.253 -9.625 -0.684 -10.96 -0.284 -0.879 -0.635 -1.598 -0.781 -1.598 -0.146 0 -0.265 -0.221 -0.265 -0.491 0 -0.27 -0.176 -0.687 -0.391 -0.927 -0.215 -0.24 -0.572 -0.651 -0.794 -0.915 -0.31 -0.368 -1.083 -0.48 -3.334 -0.48 h -2.931 l -1.341 1.288 l -1.341 1.288 l -0.126 2.887 c -0.106 2.419 -0.032 3.034 0.452 3.79 1.359 2.121 2.909 2.934 5.596 2.934 1.112 0 2.023 -0.105 2.024 -0.234 0.001 -0.129 0.353 -0.397 0.781 -0.596 l 2.621 -1.701 l 0.503 2.858 v 7.38 l -3.097 -1.861 c -1.439 -0.865 -1.705 -1.47 -2.048 -1.47 -0.179 0 -0.326 -0.141 -0.326 -0.313 0 -0.172 -0.273 -0.313 -0.607 -0.313 -0.334 0 -0.693 -0.141 -0.8 -0.313 -0.106 -0.172 -0.598 -0.313 -1.094 -0.313 -0.495 0 -0.988 -0.141 -1.094 -0.313 -0.323 -0.522 -5.638 -0.393 -6.087 0.148 -0.54 0.651 0.288 1.415 1.533 1.415 0.528 0 0.96 0.141 0.96 0.313 0 0.172 0.517 0.313 1.15 0.313 1.849 0 4.78 1.075 5.972 2.191 0.394 0.368 0.798 1.081 0.898 1.583 0.1 0.502 0.306 0.914 0.456 0.914 0.15 0 0.278 0.246 0.283 0.547 0.012 0.675 0.716 1.641 1.196 1.641 0.218 0 0.356 0.595 0.356 1.537 0 1.756 -0.223 2.523 -0.737 2.531 -0.196 0.003 -0.688 0.355 -1.093 0.781 -0.405 0.427 -0.932 0.776 -1.172 0.776 -0.24 0 -0.436 0.141 -0.436 0.313 0 0.172 -0.25 0.313 -0.556 0.313 -0.306 0 -0.759 0.281 -1.01 0.625 -0.248 0.344 -0.644 0.625 -0.88 0.625 -0.236 0 -0.803 0.199 -1.259 0.441 -1.572 0.837 -3.792 1.746 -4.264 1.746 -0.26 0 -0.472 0.141 -0.472 0.313 0 0.172 -0.28 0.313 -0.621 0.313 -1.459 0 -2.698 1.854 -3.01 4.504 -0.113 0.96 -0.312 1.746 -0.442 1.746 -0.13 0 -0.31 0.527 -0.4 1.172 -0.09 0.645 -0.31 1.805 -0.488 2.578 -0.178 0.773 -0.33 2.074 -0.338 2.891 -0.007 0.816 -0.154 1.484 -0.326 1.484 -0.172 0 -0.313 0.633 -0.313 1.406 0 0.773 -0.141 1.406 -0.313 1.406 -0.172 0 -0.313 0.484 -0.313 1.075 0 0.591 -0.126 1.153 -0.281 1.249 -0.154 0.095 -0.38 1.158 -0.5 2.362 -0.121 1.204 -0.346 2.189 -0.501 2.189 -0.154 0 -0.281 0.492 -0.281 1.094 0 0.602 -0.141 1.094 -0.313 1.094 -0.172 0 -0.313 0.563 -0.313 1.25 0 0.688 -0.126 1.25 -0.281 1.25 -0.154 0 -0.38 0.984 -0.5 2.188 -0.121 1.203 -0.346 2.188 -0.5 2.188 -0.154 0 -0.281 0.563 -0.281 1.25 0 0.688 -0.141 1.25 -0.313 1.25 -0.172 0 -0.313 0.492 -0.313 1.094 0 0.602 -0.12 1.094 -0.267 1.094 -0.147 0 -0.358 1.081 -0.47 2.402 -0.188 2.221 -0.464 3.47 -1.187 5.365 -0.154 0.405 -0.367 1.565 -0.473 2.578 -0.106 1.013 -0.313 1.842 -0.461 1.842 -0.147 0 -0.268 0.328 -0.268 0.73 0 0.401 -0.271 1.561 -0.601 2.578 -0.331 1.017 -0.698 2.376 -0.816 3.02 -0.118 0.645 -0.324 1.172 -0.457 1.172 -0.133 0 -0.329 0.422 -0.434 0.938 l -0.383 1.875 c -0.105 0.516 -0.304 0.938 -0.441 0.938 -0.137 0 -0.345 0.563 -0.461 1.25 -0.116 0.688 -0.339 1.25 -0.496 1.25 -0.157 0 -0.285 0.211 -0.285 0.469 0 0.258 -0.125 0.469 -0.278 0.469 -0.153 0 -0.374 0.512 -0.491 1.139 -0.117 0.626 -0.438 1.365 -0.711 1.641 -0.982 0.991 -2.401 1.908 -2.952 1.908 -0.76 0 -1.818 -0.95 -1.818 -1.632 0 -0.306 -0.141 -0.556 -0.313 -0.556 -0.172 0 -0.313 -0.41 -0.313 -0.911 0 -0.501 -0.168 -0.967 -0.373 -1.036 -0.283 -0.095 -0.377 -4.598 -0.391 -18.721 l -0.017 -18.596 l -1.328 -1.355 c -0.73 -0.745 -1.328 -1.473 -1.328 -1.618 0 -0.145 -0.211 -0.263 -0.469 -0.263 -0.258 0 -0.469 -0.118 -0.469 -0.263 0 -0.145 -0.584 -0.438 -1.298 -0.652 -1.057 -0.317 -1.449 -0.311 -2.109 0.029 -1.169 0.602 -2.53 2.105 -2.53 2.794 0 0.326 -0.141 0.592 -0.313 0.592 -0.172 0 -0.313 0.283 -0.313 0.629 0 0.346 -0.141 0.909 -0.313 1.25 l -0.625 1.242 c -0.172 0.341 -0.313 0.817 -0.313 1.058 0 0.551 -0.902 3.611 -1.275 4.326 -0.154 0.295 -0.371 1.314 -0.483 2.266 -0.112 0.951 -0.325 1.729 -0.473 1.729 -0.148 0 -0.269 1.046 -0.269 2.325 0 1.279 -0.141 2.412 -0.313 2.518 -0.172 0.106 -0.313 0.669 -0.313 1.25 0 0.581 -0.125 1.134 -0.279 1.229 -0.153 0.095 -0.379 1.58 -0.502 3.3 -0.123 1.72 -0.349 3.127 -0.503 3.127 -0.153 0 -0.279 0.633 -0.279 1.406 0 0.773 -0.141 1.406 -0.313 1.406 -0.172 0 -0.313 0.633 -0.313 1.406 0 0.773 -0.121 1.406 -0.268 1.406 -0.147 0 -0.36 0.879 -0.472 1.953 -0.112 1.074 -0.343 2 -0.513 2.057 -0.17 0.057 -0.309 0.506 -0.309 0.997 0 0.491 -0.125 0.97 -0.277 1.064 -0.152 0.094 -0.37 0.665 -0.483 1.268 -0.113 0.603 -0.34 1.097 -0.504 1.097 -0.164 0 -0.299 0.246 -0.301 0.547 -0.002 0.465 -1.231 1.328 -1.892 1.328 -0.114 0 -0.578 -0.371 -1.031 -0.824 z m 35.426 -92.93 c 0 -0.172 0.279 -0.313 0.619 -0.313 0.4 0 0.689 -0.277 0.815 -0.781 0.108 -0.43 0.321 -0.781 0.475 -0.781 0.153 0 0.279 -0.903 0.279 -2.01 0 -2.438 -0.606 -3.638 -2.29 -4.537 -1.189 -0.635 -3.335 -0.886 -3.335 -0.39 0 0.14 -0.502 0.451 -1.115 0.692 -0.812 0.319 -1.162 0.674 -1.289 1.308 -0.096 0.479 -0.297 0.871 -0.448 0.871 -0.15 0 -0.273 0.773 -0.273 1.719 0 0.945 0.141 1.719 0.313 1.719 0.172 0 0.313 0.231 0.313 0.513 0 0.282 0.387 0.904 0.859 1.382 0.764 0.773 1.093 0.872 2.969 0.894 1.214 0.014 2.109 -0.108 2.109 -0.288 z" transform="translate(0 796.36)" style="fill:#ff4500;fill-rule:evenodd"/></g></svg>