<svg xmlns="http://www.w3.org/2000/svg" viewBox="0 0 256 256"><g transform="translate(0 -796.36)" style="fill:#ffdead;color:#000"><path d="m 3.74 950.97 c 19.829 131.87 217.21 135.83 247.04 7.636 30.702 -103.78 -80.47 -188.63 -163.63 -154.63 -55.684 16.07 -100.67 81.83 -83.41 146.99 z" style="fill:#fff"/><g transform="matrix(0.72882 0 0 0.75423 33.626 225.01)"><path d="M 211.17,833.49 C 412.99,1099.87 -142.42,1137.71 35.82,865.8 76.454,803.809 157.71,762.94 211.17,833.49 z" style="fill:#ffe4b5"/><path transform="translate(0 796.36)" d="m 128 63.56 c -35.583 0 -64.44 28.855 -64.44 64.44 0 35.583 28.855 64.44 64.44 64.44 35.583 0 64.44 -28.855 64.44 -64.44 0 -35.583 -28.855 -64.44 -64.44 -64.44 z m 0 53.594 c 5.996 0 10.844 4.848 10.844 10.844 0 5.996 -4.848 10.844 -10.844 10.844 -5.996 0 -10.844 -4.848 -10.844 -10.844 0 -5.996 4.848 -10.844 10.844 -10.844 z" style="fill:#ff4500"/><path d="m 128 899.92 c -13.495 0 -24.438 10.943 -24.438 24.437 0 13.495 10.943 24.438 24.438 24.438 13.495 0 24.437 -10.943 24.437 -24.438 0 -13.495 -10.943 -24.437 -24.437 -24.437 z m 0 14.325 c 5.592 0 10.112 4.521 10.112 10.112 0 5.592 -4.521 10.112 -10.112 10.112 -5.592 0 -10.112 -4.521 -10.112 -10.112 0 -5.592 4.521 -10.112 10.112 -10.112 z" style="fill:none;stroke:#ffb49b;stroke-width:6"/></g></g></svg>