<svg xmlns="http://www.w3.org/2000/svg" viewBox="0 0 256 256"><g transform="translate(0 -796.36)"><g transform="matrix(0.98326 0 0 1 2 0.857)" style="fill:#fff;color:#000"><path d="m 211.17 833.49 c 201.82 266.38 -353.59 304.22 -175.35 32.31 40.634 -61.991 121.89 -102.86 175.35 -32.31 z" style="fill:#fff"/><path transform="translate(0 796.36)" d="m 128 63.56 c -35.583 0 -64.44 28.855 -64.44 64.44 0 35.583 28.855 64.44 64.44 64.44 35.583 0 64.44 -28.855 64.44 -64.44 0 -35.583 -28.855 -64.44 -64.44 -64.44 z m 0 53.594 c 5.996 0 10.844 4.848 10.844 10.844 0 5.996 -4.848 10.844 -10.844 10.844 -5.996 0 -10.844 -4.848 -10.844 -10.844 0 -5.996 4.848 -10.844 10.844 -10.844 z" style="fill:#ff4500"/><path d="m 128 899.92 c -13.495 0 -24.438 10.943 -24.438 24.437 0 13.495 10.943 24.438 24.438 24.438 13.495 0 24.437 -10.943 24.437 -24.438 0 -13.495 -10.943 -24.437 -24.437 -24.437 z m 0 14.325 c 5.592 0 10.112 4.521 10.112 10.112 0 5.592 -4.521 10.112 -10.112 10.112 -5.592 0 -10.112 -4.521 -10.112 -10.112 0 -5.592 4.521 -10.112 10.112 -10.112 z" style="fill:#fff;stroke:#cdcdcd;stroke-width:6"/></g><path d="m 70.69 934.63 c -12.608 -0.108 -23.903 11.224 -24.276 24.425 -0.897 9.302 1.295 19.282 8.166 25.731 11.157 11.519 24.297 20.628 36.583 30.732 7.109 -5.137 13.645 -11.996 20.563 -17.757 7.94 -7.761 18.09 -14.234 22.501 -25.07 3.379 -9.218 2.273 -20.09 -3.832 -27.806 -8.663 -11.158 -25.17 -12.679 -36.748 -5.776 -3.802 3.149 -7.326 -1.849 -11.266 -2.514 -3.749 -1.354 -7.723 -2.085 -11.694 -1.967 z" style="fill:#ffdead"/></g></svg>