<svg xmlns="http://www.w3.org/2000/svg" viewBox="0 0 256 256"><g transform="matrix(-1 0 0 -1 259.78 1048.9)"><path d="m 231.88 847.99 c 128.6 194.05 -257.59 299.53 -226.92 62.749 23.1 -103.72 168.02 -166.67 226.92 -62.749 z" style="fill:#fff;color:#000"/><path d="m 151.42 844.15 c 19.14 4.446 41.33 22.625 50.31 41.2 7.964 16.477 9.785 38.02 4.842 57.29 -4.522 17.634 -22.56 39.491 -39.18 47.47 -22.426 10.768 -49.766 10.699 -70.44 -0.175 -12.585 -6.62 -28.28 -22.735 -33.895 -34.806 -9.568 -20.564 -10.312 -46.758 -1.895 -66.71 7.734 -18.328 24.788 -34.419 44.46 -41.94 10.255 -3.921 33.821 -5.128 45.801 -2.345 z m 6.099 42.45 c -4.829 1.362 -13.756 7.735 -15.917 11.363 -1.058 1.775 -0.84 2.569 1.093 3.972 9.09 6.599 12.796 15.542 10.318 24.887 -2.596 9.795 -12.184 17.293 -22.19 17.351 -4.513 0.026 -4.606 -0.062 -3.831 -3.653 0.759 -3.51 0.611 -3.682 -3.225 -3.71 -2.211 -0.015 -6.423 -1.134 -9.36 -2.488 -5.83 -2.687 -7.791 -1.964 -7.14 2.634 0.403 2.846 4.02 4.788 12.259 6.587 5.358 1.169 3.533 4.402 -5.03 8.903 -6.259 3.291 -9.02 4.02 -15.235 4.02 -8.267 0 -15.953 -2.261 -22.08 -6.496 -4.654 -3.217 -5.085 -5.774 -0.973 -5.774 12.465 0 22.433 -6.111 22.361 -13.706 -0.066 -7.02 -3.475 -9.711 -16.574 -13.08 -9.137 -2.352 -12.04 -5.327 -8.143 -8.351 3.058 -2.375 15.324 -1.647 20.807 1.235 3.619 1.901 3.831 1.88 4.555 -0.452 1.483 -4.748 -0.39 -7.101 -6.758 -8.488 -12.207 -2.659 -22.429 -1.114 -28.828 4.36 -2.927 2.502 -3.66 4.091 -3.66 7.927 0 3.117 0.822 5.633 2.348 7.184 2.293 2.329 12.945 6.201 17.06 6.201 1.134 0 3.3 1.018 4.813 2.263 6.582 5.414 -2.722 9.255 -14.39 5.947 -3.85 -1.092 -7.266 -1.468 -7.864 -0.866 -1.68 1.689 0.201 7.02 2.712 7.691 1.315 0.35 4.245 4.398 6.908 9.548 9.407 18.18 29.23 33.367 48.2 36.909 10.578 1.977 27.366 0.653 37.01 -2.919 15.267 -5.655 30.639 -19.553 38.04 -34.391 1.653 -3.314 2.668 -6.368 2.256 -6.787 -0.413 -0.419 -2.649 -0.595 -4.972 -0.392 -6.074 0.532 -7.724 -1.429 -7.724 -9.18 0 -3.628 -0.344 -6.597 -0.763 -6.597 -0.42 0 -4.093 3.589 -8.163 7.974 -6.864 7.401 -7.773 7.974 -12.558 7.974 -7.813 0 -7.643 -2.37 0.836 -11.917 4.05 -4.559 7.365 -8.662 7.365 -9.117 0 -0.455 -3.532 -5.22 -7.85 -10.588 -4.317 -5.369 -7.85 -10.386 -7.85 -11.147 0 -0.878 2.626 -1.39 7.135 -1.39 h 7.135 l 6.266 8.1 c 3.446 4.455 6.728 7.628 7.287 7.05 0.561 -0.575 1.187 -4.082 1.391 -7.793 l 0.371 -6.747 l 4.529 -0.381 c 6.107 -0.513 5.818 -2.894 -0.921 -7.604 -9.95 -6.954 -20.558 -9.03 -31.05 -6.067 z m -43.806 15.08 l -6.04 1.59 v 9.733 v 9.733 h 10.248 c 9.07 0 10.298 -0.265 10.685 -2.306 0.534 -2.813 -1.693 -4.397 -6.216 -4.422 -3.102 -0.018 -3.364 -0.364 -3.02 -4.01 0.345 -3.631 0.779 -4.02 4.856 -4.365 2.463 -0.208 5.656 0.263 7.097 1.046 2.063 1.121 2.84 1.071 3.656 -0.235 1.541 -2.469 1.287 -6.888 -0.437 -7.594 -2.957 -1.212 -14.891 -0.739 -20.831 0.825 z m 83.931 20.439 c 0 19.808 2.594 21.27 4.357 2.454 0.782 -8.351 -1.148 -19.04 -3.206 -17.752 -0.633 0.398 -1.151 7.282 -1.151 15.298 z m -63.818 -1.35 c -0.757 4.651 -1.71 9.348 -2.118 10.427 -1.218 3.225 2.689 2.318 5.467 -1.269 2.688 -3.471 3.23 -9.386 1.325 -14.475 -1.925 -5.131 -3.215 -3.658 -4.674 5.318 z" style="fill:#ff4500"/></g></svg>