<svg xmlns="http://www.w3.org/2000/svg" viewBox="0 0 256 256"><path d="m 260.02 66.64 c -48.541 -88.14 -200.63 -53.931 -226.36 18.64 -30.66 86.45 49.14 250.63 184.3 154.45 45.527 -33.585 90.6 -84.949 42.05 -173.09 z" transform="translate(-26.04 -13.02)" style="fill:#fff;color:#000"/><g transform="matrix(1.40452 0 0 1.33763 -73.26 -66.53)"><g style="fill:#dd4814"><path d="m 128.94 132.88 c -2.678 2.676 -4.151 6.236 -4.151 10.02 0 3.786 1.476 7.344 4.151 10.02 2.676 2.678 6.234 4.151 10.02 4.151 3.786 0 7.345 -1.476 10.02 -4.151 2.677 -2.678 4.152 -6.236 4.152 -10.02 0 -3.785 -1.475 -7.343 -4.153 -10.02 -2.677 -2.678 -6.236 -4.152 -10.02 -4.152 -3.782 0 -7.342 1.474 -10.02 4.151 z m -30.06 50.14 c 22.14 22.14 58.03 22.14 80.17 0 22.14 -22.14 22.14 -58.03 0 -80.17 -22.14 -22.14 -58.04 -22.14 -80.17 -0.002 -22.14 22.14 -22.14 58.04 0 80.17 z m -2.399 -33.11 v -14.172 h 15.05 c 0.668 -2.572 1.69 -5.03 3.052 -7.312 l -10.656 -10.658 l 10.02 -10.02 l 10.69 10.69 c 2.272 -1.337 4.718 -2.345 7.273 -2.997 v -15.14 h 14.173 v 15.16 c 2.547 0.657 4.983 1.666 7.248 3 l 10.719 -10.72 l 10.02 10.02 l -10.708 10.708 c 1.347 2.268 2.362 4.708 3.02 7.261 h 15.13 v 14.172 h -15.08 c -0.651 2.572 -1.665 5.03 -3.01 7.32 l 10.648 10.647 l -10.02 10.02 l -10.614 -10.613 c -2.294 1.367 -4.766 2.396 -7.354 3.062 v 14.993 h -14.173 v -14.972 c -2.597 -0.662 -5.077 -1.688 -7.382 -3.057 l -10.585 10.586 l -10.02 -10.02 l 10.597 -10.6 c -1.358 -2.301 -2.382 -4.777 -3.037 -7.369 h -15 v 0.004 z"/><path transform="matrix(-1 0 0 1 19.458 61.858)" d="m -120.69 145.33 c -35.32 -0.486 -63.56 -29.648 -63.08 -65.13 0.479 -35.09 28.892 -63.31 63.824 -63.38 l 0.13 64.26 z"/></g><g style="fill:#fff"><path d="m 138.22 150.89 c 0.829 0.146 1.677 -0.075 2.375 -0.616 0.372 -0.289 0.391 -0.319 4.662 -7.487 4.677 -7.849 7.161 -12.213 7.471 -13.13 0.532 -1.57 0.277 -2.707 -0.843 -3.755 -0.482 -0.452 -2.071 -1.466 -2.227 -1.423 -0.052 0.014 -2.505 4.077 -5.453 9.03 -2.947 4.951 -5.368 8.997 -5.38 8.99 -0.012 -0.007 -0.665 -1.026 -1.453 -2.266 -0.787 -1.24 -1.529 -2.367 -1.648 -2.505 -0.298 -0.346 -1.214 -0.798 -1.719 -0.849 -0.637 -0.064 -1.355 0.133 -1.928 0.529 -0.437 0.302 -0.559 0.434 -0.858 0.93 -0.31 0.513 -0.355 0.648 -0.406 1.196 -0.101 1.084 -0.06 1.165 3.053 6.091 l 2.811 4.448 l 0.58 0.374 c 0.41 0.264 0.692 0.393 0.963 0.441 z" style="stroke:#fff9f9;stroke-width:0.083"/><path d="m 61.32 106.6 c 0 -5.601 -0.191 -7.509 -0.751 -7.515 -0.413 -0.004 -2.102 -0.649 -3.753 -1.432 l -3 -1.424 l -5.254 5.172 l -5.254 5.172 l -4.806 -4.778 l -4.806 -4.778 l 5.086 -5.118 l 5.086 -5.118 l -1.597 -4.054 l -1.597 -4.054 h -7.392 h -7.392 v -6.888 v -6.888 l 7.539 -0.168 l 7.539 -0.168 l 1.462 -3.599 l 1.462 -3.599 l -5.234 -5.258 l -5.234 -5.258 l 4.778 -4.806 l 4.778 -4.806 l 5.264 5.239 l 5.264 5.239 l 1.956 -0.788 c 1.076 -0.434 2.834 -1.079 3.908 -1.435 l 1.952 -0.647 v -7.707 v -7.707 h 3.673 c 3.516 0 3.658 0.058 3.311 1.351 -0.199 0.743 -0.366 7.094 -0.37 14.11 -0.007 11.405 -0.113 12.762 -0.99 12.762 -4.048 0 -9.547 3.751 -11.759 8.02 -1.671 3.226 -1.776 9.353 -0.213 12.397 2.289 4.457 6.286 7.399 11.1 8.168 l 2.457 0.393 v 13.736 v 13.736 h -3.603 h -3.603 v -7.507 z" transform="translate(70.866 70.866)"/></g></g></svg>