<svg xmlns="http://www.w3.org/2000/svg" viewBox="0 0 256 256"><g transform="translate(0 -796.36)"><path d="m 242.77 977.71 c -69.925 141.88 -277.41 62.829 -237.79 -81.07 37.33 -135.58 226.87 -131.72 248.97 -0.272 c 4.611 27.425 1.653 55.3 -11.182 81.34 z" style="fill:#fff;color:#000"/><g transform="matrix(4.3701 0 0 4.74434 23.18 -3971.31)" style="fill:#ff4500"><path d="m 34.26,1015.53 c -4.299,8.853 -7.28,16.952 -9.7,25.667 -3.214,-3.03 -6.643,-5.871 -10.288,-8.756 l 1.086,-1.878 6.842,2.385 c 2.362,-4.997 4.682,-9.887 9.656,-16.772 z"/><path d="m 34.26,1015.53 -0.36,0.096 c -4.101,8.555 -6.991,16.442 -9.341,24.904 -3.136,-2.956 -6.479,-5.731 -10.02,-8.543 l -0.264,0.454 c 3.645,2.885 7.07,5.726 10.288,8.756 2.42,-8.715 5.402,-16.815 9.701,-25.667 z" style="fill-opacity:0.314"/><path d="m 34.26,1015.53 -2.404,0.646 c -4.974,6.885 -7.295,11.775 -9.657,16.772 l -6.841,-2.386 -1.087,1.878 c 0.045,0.035 0.087,0.071 0.132,0.106 l 0.955,-1.65 6.841,2.384 c 2.362,-4.997 4.682,-9.887 9.657,-16.773 l 2.223,-0.596 c 0.062,-0.129 0.118,-0.254 0.181,-0.383 z" style="fill-opacity:0.235"/></g></g></svg>