<svg xmlns="http://www.w3.org/2000/svg" viewBox="0 0 256 256"><g style="fill:#d3d3d3;color:#000"><path d="m 231.54 60.09 c 139.28 254.45 -369.54 266.45 -194.4 4.153 46.25 -67.48 156.91 -100.41 194.4 -4.153 z" style="fill:#fff"/><g transform="matrix(8.72881 0 0 8.11864 -1183.54 -1349.58)" style="fill:#ff4500"><path transform="matrix(0.29307 0 0 0.27586 151.16 179.24)" d="m 16.5 22.688 a 1.75 1.813 0 1 1 -3.5 0 1.75 1.813 0 1 1 3.5 0 z" style="color:#000"/><path d="m 153 191 h 5 c 0 0 0.335 -1 0 -2 -0.18 0.157 -1.566 1 -2.5 1 -0.934 0 -2.139 -0.686 -2.5 -1 -0.312 1.226 0 2 0 2 z"/><path d="m 143,175 v 16 h 8.5 v -2 H 145 v -12 h 12 v 4 h 2 v -6 z"/><path d="m 145 181 v 2.219 c 0 2.319 2.781 4.586 6.563 4.75 -0.625 -0.741 -1.031 -1.672 -1.031 -2.719 0 -1.246 0.619 -2.472 1.469 -3.25 -6 0.765 -7 -1 -7 -1 z"/><path d="m 150 180 c -1.667 -1.437 -3.333 -1.394 -5 0 0 -1.105 1.119 -2 2.5 -2 1.381 0 2.5 0.895 2.5 2 z"/><path d="m 152 180 c 1.667 -1.437 3.333 -1.394 5 0 0 -1.105 -1.119 -2 -2.5 -2 -1.381 0 -2.5 0.895 -2.5 2 z"/><path d="m 155.5 182 c -1.933 0 -3.5 1.567 -3.5 3.5 0 1.933 1.567 3.5 3.5 3.5 1.933 0 3.5 -1.567 3.5 -3.5 0 -1.933 -1.567 -3.5 -3.5 -3.5 z m 0 2 c 0.83 0 1.5 0.672 1.5 1.5 0 0.828 -0.67 1.5 -1.5 1.5 -0.83 0 -1.5 -0.672 -1.5 -1.5 0 -0.828 0.67 -1.5 1.5 -1.5 z"/></g></g></svg>