<svg xmlns="http://www.w3.org/2000/svg" viewBox="0 0 256 256"><defs><clipPath><path transform="matrix(15.33333 0 0 11.5 415 -125.5)" d="m -24 13 c 0 1.105 -0.672 2 -1.5 2 -0.828 0 -1.5 -0.895 -1.5 -2 0 -1.105 0.672 -2 1.5 -2 0.828 0 1.5 0.895 1.5 2 z"/></clipPath><linearGradient y2="44.786" x2="23.996" y1="24.786" x1="43.996" gradientUnits="userSpaceOnUse" id="0"><stop style="stop-color:#e03433"/><stop offset="1" style="stop-color:#e95050"/></linearGradient></defs><g transform="matrix(-1 0 0 -1 256 1052.36)"><path d="m 227.89 855.22 c 126.36 192.36 -253.09 296.92 -222.96 62.2 22.7 -102.82 165.09 -165.22 222.96 -62.2 z" style="fill:#fff;color:#000"/><g transform="matrix(-3.6005 0 0 -3.12473 214.41 1013.59)"><g style="fill:#ff4500;fill-rule:evenodd"><path d="m 28.461 5.609 v 6.905 h 4.603 v -6.905 h -4.603 z"/><path d="m 14.652 5.609 v 6.905 h 4.603 v -6.905 h -4.603 z"/></g><rect y="12.514" x="1.993" height="34.52" width="43.731" rx="1.146" style="fill:#ffdead"/><g style="fill:#ff4500"><path d="m 14.652 5.609 l 4.603 -4.603 h 9.206 l 4.603 4.603 z"/><path d="m 2.815 12.551 c 20.714 1.151 20.714 1.151 42.58 0 h -42.58 z" style="fill-opacity:0.706"/></g><path d="m 24.473 35.485 c -0.262 0 -0.473 0.211 -0.473 0.473 c 0 0.262 0.211 0.473 0.473 0.473 h 17.05 c 0.034 0 0.065 -0.013 0.098 -0.02 l 0.232 -0.625 l -0.857 -0.301 z" style="fill:#649cc1;opacity:0.8"/><g style="fill-rule:evenodd"><path d="m 8 32.781 c -2.504 3.34 -4 7.548 -4 12.06 0 0.726 0.05 1.45 0.125 2.156 h 13.344 l -9.469 -14.219 z" style="fill:#ff4500"/><path d="m 25 35.781 l 4.625 11.219 h 14.25 c 0.079 -0.727 0.125 -1.471 0.125 -2.219 c 0 -3.245 -0.796 -6.295 -2.156 -9 h -16.844 z" style="fill:#ffb6c1"/><path d="m 24 24.781 c -6.565 0 -12.358 3.143 -16 8 l 9.469 14.219 h 12.156 l -4.625 -11.219 h 16.844 c -3.285 -6.53 -10.01 -11 -17.844 -11 z" style="fill:url(#0)"/></g><path d="m 24 35.781 c -4.986 0 -9 4.01 -9 9 0 0.791 0.123 1.551 0.313 2.281 h 17.375 c 0.19 -0.73 0.313 -1.49 0.313 -2.281 c 0 -4.986 -4.01 -9 -9 -9 z" style="fill:#ecf0f1"/><path d="m 24 37.781 c -3.878 0 -7 3.122 -7 7 0 0.777 0.143 1.521 0.375 2.219 h 13.25 c 0.232 -0.697 0.375 -1.441 0.375 -2.219 c 0 -3.878 -3.122 -7 -7 -7 z" style="fill:#ff4500"/></g></g></svg>