<svg xmlns="http://www.w3.org/2000/svg" viewBox="0 0 256 256"><g transform="translate(0 -797.44)"><path d="M 213.3,834.88 C 359.72,1060.25 -40.2,1147.47 -8.34,915.62 4.651,821.06 157.29,748.67 213.3,834.88 z" transform="matrix(0.33622 0.93367 -0.87652 0.35814 900.18 483.37)" style="fill:#fff;color:#000"/><g transform="matrix(3.31971 0 0 3.26049 62.712 -2428.47)" style="fill:#ff4500"><path d="m 6.678,1007.33 20.382,20.382 6.125,-6.125 c -0.515,-0.281 -24.16,-13.179 -25.604,-13.968 -0.294,-0.16 -0.599,-0.243 -0.903,-0.289 z m -1.903,0.705 c -0.3,0.403 -0.491,0.974 -0.491,1.75 v 37.23 c 0,1.171 0.385,2.048 1.096,2.38 l 20.374,-20.377 -20.98,-20.98 z m 30.1,14.474 -6.505,6.506 5.634,5.637 c 4.578,-2.505 8.314,-4.552 8.642,-4.731 1.037,-0.568 2.123,-2.02 0,-3.174 -0.578,-0.316 -4.04,-2.203 -7.771,-4.238 z m -7.811,7.811 -17.956,17.956 c 2.559,-1.401 13.964,-7.642 23.21,-12.703 l -5.254,-5.254 z"/><path d="m 6.677,1007.33 20.383,20.383 6.124,-6.127 c -0.014,-0.01 -0.658,-0.358 -0.707,-0.384 l -5.417,5.417 -18.428,-18.425 c -0.131,-0.072 -0.992,-0.541 -1.051,-0.573 -0.294,-0.16 -0.6,-0.244 -0.904,-0.291 z m 37.04,20.41 c -0.213,0.458 -0.64,0.851 -1.072,1.088 -0.327,0.179 -4.064,2.226 -8.642,4.732 l -5.092,-5.092 -0.544,0.547 5.636,5.639 c 4.578,-2.506 8.314,-4.552 8.642,-4.732 0.753,-0.412 1.514,-1.29 1.072,-2.182 z m -18.503,0.728 -19.831,19.831 c -0.712,-0.332 -1.096,-1.208 -1.096,-2.379 v 1.091 c 0,1.171 0.385,2.05 1.096,2.382 l 20.375,-20.378 -0.544,-0.547 z m 6.399,6.401 c -8.107,4.438 -16.384,8.964 -20.09,10.992 l -2.417,2.417 c 2.559,-1.401 13.964,-7.643 23.21,-12.704 l -0.704,-0.704 z" style="fill-opacity:0.314"/></g></g></svg>