<svg xmlns="http://www.w3.org/2000/svg" viewBox="0 0 256 256"><g transform="translate(0 -796.36)"><path d="m 60.23 1005.73 c -88.14 -67.851 24.775 -207.84 119.74 -158.24 89.47 46.731 33.06 188.91 -64.06 179.39 -20.263 -1.985 -39.496 -8.696 -55.674 -21.15 z" transform="matrix(1.29817 0 0 1.3455 -35.834 -329.92)" style="fill:#fff;color:#000"/><g transform="matrix(1.51587 0 0 1.62045 -65.58 -617.88)" style="fill:#ff4500;fill-rule:evenodd"><path transform="matrix(0.00072 0 0 0.00062 82.18 920.36)" d="m 133156 76894 l -22193 38447 h -88769 l 22191 -38447" style="opacity:0.4"/><path transform="matrix(0.00071 0 0 0.00073 83.28 904.36)" d="M 133156 76894 88772 0 44385 0 88772 76894" style="opacity:0.4"/><path d="m 109.68 909.39 l -31.28 50.45 l 14.648 29.325 l 30.463 -53.37 z" style="opacity:0.4"/></g><g style="fill-rule:evenodd"><path d="m 153.04 932.22 c -1.663 -3.207 -12.245 -23.377 -23.515 -44.823 -11.27 -21.445 -20.49 -39.08 -20.49 -39.19 0 -0.111 10.53 -0.202 23.399 -0.202 h 23.399 l 15.59 29.7 c 8.575 16.335 19.226 36.596 23.669 45.02 l 8.08 15.325 h -23.553 h -23.553 l -3.02 -5.831 z" style="fill:#ffdead"/><g style="fill:#ff4500"><path d="m 83.87 989.72 c 0.012 -0.224 5.253 -8.829 11.646 -19.12 l 11.624 -18.715 l 47.943 -0.139 l 47.943 -0.139 l -11.869 19.243 l -11.869 19.243 l -47.72 0.018 c -26.25 0.01 -47.71 -0.165 -47.698 -0.389 z"/><path d="m 75.03 983.31 c -0.315 -0.578 -5.275 -11.123 -11.02 -23.432 l -10.45 -22.381 l 23.401 -40.39 c 12.87 -22.22 23.527 -40.39 23.68 -40.4 0.154 -0.001 4.874 9.414 10.489 20.922 l 10.209 20.924 l -21.479 40.22 c -11.813 22.12 -22.1 41.43 -22.867 42.903 -1.241 2.394 -1.449 2.567 -1.961 1.627 z"/></g></g></g></svg>