<svg xmlns="http://www.w3.org/2000/svg" viewBox="0 0 256 256"><defs><clipPath><rect x="6" y="6" width="84" height="84" rx="6" style="fill:#ff4500"/></clipPath><clipPath><rect x="6" y="6" width="84" height="84" rx="6" style="fill:#ff4500"/></clipPath><clipPath><rect x="6" y="6" width="84" height="84" rx="6" style="fill:#ff4500"/></clipPath><clipPath><rect x="6" y="6" width="84" height="84" rx="6" style="fill:#ff4500"/></clipPath><clipPath><rect x="6" y="6" width="84" height="84" rx="6" style="fill:#ff4500"/></clipPath><clipPath><rect x="6" y="6" width="84" height="84" rx="6" style="fill:#ff4500"/></clipPath><clipPath><rect x="6" y="6" width="84" height="84" rx="6" style="fill:#ff4500"/></clipPath><clipPath><rect x="6" y="6" width="84" height="84" rx="6" style="fill:#ff4500"/></clipPath><clipPath><rect x="6" y="6" width="84" height="84" rx="6" style="fill:#ff4500"/></clipPath><clipPath><rect x="6" y="6" width="84" height="84" rx="6" style="fill:#ff4500"/></clipPath><clipPath><rect x="6" y="6" width="84" height="84" rx="6" style="fill:#ff4500"/></clipPath><clipPath><rect x="6" y="6" width="84" height="84" rx="6" style="fill:#ff4500"/></clipPath><clipPath><rect x="6" y="6" width="84" height="84" rx="6" style="fill:#ff4500"/></clipPath><clipPath><rect x="6" y="6" width="84" height="84" rx="6" style="fill:#ff4500"/></clipPath><clipPath><rect x="6" y="6" width="84" height="84" rx="6" style="fill:#ff4500"/></clipPath><clipPath><rect x="6" y="6" width="84" height="84" rx="6" style="fill:#ff4500"/></clipPath><clipPath><rect x="6" y="6" width="84" height="84" rx="6" style="fill:#ff4500"/></clipPath><clipPath><rect x="6" y="6" width="84" height="84" rx="6" style="fill:#ff4500"/></clipPath><clipPath><rect x="6" y="6" width="84" height="84" rx="6" style="fill:#ff4500"/></clipPath><clipPath><rect x="6" y="6" width="84" height="84" rx="6" style="fill:#ff4500"/></clipPath></defs><g transform="translate(0 -796.36)"><path d="m 229.63 992.2 c 92.05 -130.93 -77.948 -263.6 -186.39 -156.91 -102.17 100.51 -7.449 256.68 119.69 207.86 c 26.526 -10.185 49.802 -26.914 66.7 -50.948 z" style="fill:#fff;color:#000"/><g transform="matrix(0.19156 -0.18436 -0.19146 -0.18116 255.34 999.69)"><path d="m -356.2 295.66 c -14.397 0 -26 11.603 -26 26 v 460 c 0 14.397 11.603 26 26 26 h 460 c 14.397 0 26 -11.603 26 -26 v -460 c 0 -14.397 -11.6 -26 -26 -26 h -460" style="fill:#ff4500"/><g style="color:#fff;fill-rule:evenodd"><path d="m -126.2 551.66 v 256 h 230 c 14.397 0 26 -11.603 26 -26 v -230 h -256" style="fill:#ffd700"/><path d="m -356.2 295.66 c -14.397 0 -26 11.603 -26 26 v 230 h 256 v -256 h -230" style="fill:#ffdead"/><path d="m -382.2 551.66 v 230 c 0 14.397 11.603 26 26 26 h 230 v -256 h -256" style="fill:#ffa07a"/></g></g><rect ry="3.168" rx="6.17" y="892.58" x="95.65" height="60.87" width="61.957" style="fill:#dc143c"/><path d="m 113.74 145.87 c 0 -0.259 0.146 -0.472 0.324 -0.472 0.441 0 0.619 -1.059 0.619 -3.685 0 -2.054 0.034 -2.211 0.472 -2.211 0.423 0 0.472 -0.157 0.472 -1.533 0 -1.376 0.048 -1.533 0.472 -1.533 0.314 0 0.472 -0.157 0.472 -0.472 0 -0.314 -0.157 -0.472 -0.472 -0.472 -0.346 0 -0.472 -0.157 -0.472 -0.59 v -0.59 h -4.01 h -4.01 v -1.887 v -1.887 h 4.953 h 4.953 v -0.943 c 0 -0.764 0.084 -0.943 0.441 -0.943 0.531 0 0.732 -0.949 0.736 -3.479 0.002 -1.552 0.046 -1.71 0.474 -1.71 0.402 0 0.472 -0.157 0.472 -1.061 0 -0.904 -0.07 -1.061 -0.472 -1.061 -0.262 0 -0.472 -0.157 -0.472 -0.354 0 -0.299 -0.55 -0.354 -3.538 -0.354 -2.987 0 -3.538 0.055 -3.538 0.354 0 0.197 -0.21 0.354 -0.472 0.354 -0.432 0 -0.472 -0.157 -0.472 -1.887 v -1.887 h 4.953 c 4.796 0 4.953 -0.015 4.953 -0.472 0 -0.314 0.157 -0.472 0.472 -0.472 0.437 0 0.472 -0.157 0.472 -2.123 0 -1.918 0.043 -2.123 0.442 -2.123 0.549 0 0.737 -0.822 0.737 -3.213 0 -1.582 0.043 -1.739 0.472 -1.739 0.393 0 0.472 -0.157 0.472 -0.943 v -0.943 h 1.415 h 1.415 v 1.415 c 0 1.258 -0.052 1.415 -0.472 1.415 -0.435 0 -0.472 0.157 -0.472 2 0 1.847 -0.037 2 -0.472 2 -0.423 0 -0.472 0.157 -0.472 1.533 0 1.498 -0.014 1.533 -0.62 1.533 -0.581 0 -0.612 0.054 -0.482 0.855 0.076 0.47 0.205 0.921 0.286 1 0.209 0.21 7.523 0.339 8.753 0.155 l 1.025 -0.154 v -1.856 c 0 -1.745 0.032 -1.86 0.531 -1.931 0.505 -0.072 0.534 -0.19 0.598 -2.467 0.06 -2.15 0.114 -2.404 0.531 -2.513 0.397 -0.104 0.464 -0.328 0.464 -1.558 v -1.437 h 1.563 h 1.563 l -0.147 0.737 c -0.081 0.405 -0.147 1.52 -0.147 2.476 0 1.582 -0.043 1.739 -0.472 1.739 -0.435 0 -0.472 0.157 -0.472 2 0 1.847 -0.037 2 -0.472 2 -0.423 0 -0.472 0.157 -0.472 1.533 v 1.533 h 3.892 h 3.892 v 1.533 v 1.533 h -3.892 c -3.233 0 -3.892 0.058 -3.892 0.34 0 0.232 -0.32 0.363 -1 0.413 l -1 0.073 l -0.067 2.535 c -0.062 2.341 -0.103 2.535 -0.531 2.535 -0.425 0 -0.464 0.169 -0.464 2 v 2 h 4.01 h 4.01 v 1.882 v 1.882 l -5.01 0.064 l -5.01 0.064 l -0.07 1.592 c -0.05 1.137 -0.16 1.592 -0.385 1.592 -0.44 0 -0.599 0.764 -0.603 2.889 -0.003 1.67 -0.044 1.828 -0.475 1.828 -0.435 0 -0.472 0.157 -0.472 2 v 2 h -2 c -1.625 0 -2 -0.067 -2 -0.354 0 -0.22 0.223 -0.354 0.59 -0.354 0.583 0 0.59 -0.024 0.59 -2 0 -1.847 0.037 -2 0.472 -2 0.435 0 0.472 -0.157 0.472 -2 0 -1.847 0.037 -2 0.472 -2 0.427 0 0.472 -0.157 0.472 -1.651 v -1.651 h -4.599 h -4.599 v 0.59 c 0 0.343 -0.136 0.59 -0.324 0.59 -0.441 0 -0.619 1.059 -0.619 3.685 0 2.054 -0.034 2.211 -0.472 2.211 -0.423 0 -0.472 0.157 -0.472 1.533 0 1.376 -0.048 1.533 -0.472 1.533 -0.393 0 -0.472 0.157 -0.472 0.943 v 0.943 h -1.415 c -1.258 0 -1.415 -0.052 -1.415 -0.472 z m 16.834 -16.07 c 0.081 -0.405 0.147 -1.507 0.147 -2.449 0 -1.514 0.055 -1.726 0.472 -1.835 0.421 -0.11 0.471 -0.32 0.468 -1.973 -0.005 -3.151 0.336 -2.911 -4.152 -2.911 -3.277 0 -3.864 0.054 -3.864 0.354 0 0.22 -0.223 0.354 -0.59 0.354 -0.573 0 -0.59 0.047 -0.59 1.651 0 1.494 -0.045 1.651 -0.472 1.651 -0.432 0 -0.472 0.157 -0.472 1.887 0 1.73 -0.039 1.887 -0.472 1.887 -0.402 0 -0.472 0.157 -0.472 1.061 v 1.061 h 4.923 h 4.923 l 0.147 -0.737 z" transform="translate(0 796.36)" style="fill:#ffa07a;opacity:0.99;fill-rule:evenodd"/></g></svg>