<svg xmlns="http://www.w3.org/2000/svg" viewBox="0 0 256 256"><defs><clipPath><rect width="46" height="46" x="1" y="1" rx="4" style="fill:#1890d0;stroke-width:1"/></clipPath><clipPath><rect width="46" height="46" x="1" y="1" rx="4" style="fill:#1890d0;stroke-width:1"/></clipPath><clipPath><rect width="46" height="46" x="1" y="1" rx="4" style="fill:#1890d0;stroke-width:1"/></clipPath><clipPath><rect width="46" height="46" x="1" y="1" rx="4" style="fill:#1890d0;stroke-width:1"/></clipPath><clipPath><rect width="46" height="46" x="1" y="1" rx="4" style="fill:#1890d0;stroke-width:1"/></clipPath><clipPath><rect width="46" height="46" x="1" y="1" rx="4" style="fill:#1890d0;stroke-width:1"/></clipPath><clipPath><rect width="46" height="46" x="1" y="1" rx="4" style="fill:#1890d0;stroke-width:1"/></clipPath><clipPath><rect width="46" height="46" x="1" y="1" rx="4" style="fill:#1890d0;stroke-width:1"/></clipPath><clipPath><rect width="46" height="46" x="1" y="1" rx="4" style="fill:#1890d0;stroke-width:1"/></clipPath><clipPath><rect width="46" height="46" x="1" y="1" rx="4" style="fill:#1890d0;stroke-width:1"/></clipPath><clipPath><rect width="46" height="46" x="1" y="1" rx="4" style="fill:#1890d0;stroke-width:1"/></clipPath><clipPath><rect width="46" height="46" x="1" y="1" rx="4" style="fill:#1890d0;stroke-width:1"/></clipPath><clipPath><rect width="46" height="46" x="1" y="1" rx="4" style="fill:#1890d0;stroke-width:1"/></clipPath><clipPath><rect width="46" height="46" x="1" y="1" rx="4" style="fill:#1890d0;stroke-width:1"/></clipPath><clipPath><rect width="46" height="46" x="1" y="1" rx="4" style="fill:#1890d0;stroke-width:1"/></clipPath><clipPath><rect width="46" height="46" x="1" y="1" rx="4" style="fill:#1890d0;stroke-width:1"/></clipPath><clipPath><rect width="46" height="46" x="1" y="1" rx="4" style="fill:#1890d0;stroke-width:1"/></clipPath><clipPath><rect width="46" height="46" x="1" y="1" rx="4" style="fill:#1890d0;stroke-width:1"/></clipPath><clipPath><rect width="46" height="46" x="1" y="1" rx="4" style="fill:#1890d0;stroke-width:1"/></clipPath><clipPath><rect width="46" height="46" x="1" y="1" rx="4" style="fill:#1890d0;stroke-width:1"/></clipPath><clipPath><rect width="46" height="46" x="1" y="1" rx="4" style="fill:#1890d0;stroke-width:1"/></clipPath><clipPath><rect width="46" height="46" x="1" y="1" rx="4" style="fill:#1890d0;stroke-width:1"/></clipPath><clipPath><rect width="46" height="46" x="1" y="1" rx="4" style="fill:#1890d0;stroke-width:1"/></clipPath><clipPath><rect width="46" height="46" x="1" y="1" rx="4" style="fill:#1890d0;stroke-width:1"/></clipPath><clipPath><rect width="46" height="46" x="1" y="1" rx="4" style="fill:#1890d0;stroke-width:1"/></clipPath><clipPath><rect width="46" height="46" x="1" y="1" rx="4" style="fill:#1890d0;stroke-width:1"/></clipPath><clipPath><rect width="46" height="46" x="1" y="1" rx="4" style="fill:#1890d0;stroke-width:1"/></clipPath><clipPath><rect width="46" height="46" x="1" y="1" rx="4" style="fill:#1890d0;stroke-width:1"/></clipPath><clipPath><rect width="46" height="46" x="1" y="1" rx="4" style="fill:#1890d0;stroke-width:1"/></clipPath><clipPath><rect width="46" height="46" x="1" y="1" rx="4" style="fill:#1890d0;stroke-width:1"/></clipPath><clipPath><rect width="46" height="46" x="1" y="1" rx="4" style="fill:#1890d0;stroke-width:1"/></clipPath><clipPath><rect width="46" height="46" x="1" y="1" rx="4" style="fill:#1890d0;stroke-width:1"/></clipPath><clipPath><rect width="46" height="46" x="1" y="1" rx="4" style="fill:#1890d0;stroke-width:1"/></clipPath><clipPath><rect width="46" height="46" x="1" y="1" rx="4" style="fill:#1890d0;stroke-width:1"/></clipPath><clipPath><rect width="46" height="46" x="1" y="1" rx="4" style="fill:#1890d0;stroke-width:1"/></clipPath><clipPath><rect width="46" height="46" x="1" y="1" rx="4" style="fill:#1890d0;stroke-width:1"/></clipPath><clipPath><rect width="46" height="46" x="1" y="1" rx="4" style="fill:#1890d0;stroke-width:1"/></clipPath><clipPath><rect width="46" height="46" x="1" y="1" rx="4" style="fill:#1890d0;stroke-width:1"/></clipPath><clipPath><rect width="46" height="46" x="1" y="1" rx="4" style="fill:#1890d0;stroke-width:1"/></clipPath><clipPath><rect width="46" height="46" x="1" y="1" rx="4" style="fill:#1890d0;stroke-width:1"/></clipPath><clipPath><rect width="46" height="46" x="1" y="1" rx="4" style="fill:#1890d0;stroke-width:1"/></clipPath><clipPath><rect width="46" height="46" x="1" y="1" rx="4" style="fill:#1890d0;stroke-width:1"/></clipPath><clipPath><rect width="46" height="46" x="1" y="1" rx="4" style="fill:#1890d0;stroke-width:1"/></clipPath><clipPath><rect width="46" height="46" x="1" y="1" rx="4" style="fill:#1890d0;stroke-width:1"/></clipPath><clipPath><rect width="46" height="46" x="1" y="1" rx="4" style="fill:#1890d0;stroke-width:1"/></clipPath><clipPath><rect width="46" height="46" x="1" y="1" rx="4" style="fill:#1890d0;stroke-width:1"/></clipPath><clipPath><path transform="matrix(15.33333 0 0 11.5 415 -125.5)" d="m -24 13 c 0 1.105 -0.672 2 -1.5 2 -0.828 0 -1.5 -0.895 -1.5 -2 0 -1.105 0.672 -2 1.5 -2 0.828 0 1.5 0.895 1.5 2 z"/></clipPath><clipPath><rect width="46" height="46" x="1" y="1" rx="4" style="fill:#1890d0;stroke-width:1"/></clipPath><clipPath><rect width="46" height="46" x="1" y="1" rx="4" style="fill:#1890d0;stroke-width:1"/></clipPath><clipPath><rect width="46" height="46" x="1" y="1" rx="4" style="fill:#1890d0;stroke-width:1"/></clipPath><clipPath><rect width="46" height="46" x="1" y="1" rx="4" style="fill:#1890d0;stroke-width:1"/></clipPath><clipPath><rect width="46" height="46" x="1" y="1" rx="4" style="fill:#1890d0;stroke-width:1"/></clipPath><clipPath><rect width="46" height="46" x="1" y="1" rx="4" style="fill:#1890d0;stroke-width:1"/></clipPath><clipPath><rect width="46" height="46" x="1" y="1" rx="4" style="fill:#1890d0;stroke-width:1"/></clipPath><clipPath><rect width="46" height="46" x="1" y="1" rx="4" style="fill:#1890d0;stroke-width:1"/></clipPath><clipPath><rect width="46" height="46" x="1" y="1" rx="4" style="fill:#1890d0;stroke-width:1"/></clipPath><clipPath><rect width="46" height="46" x="1" y="1" rx="4" style="fill:#1890d0;stroke-width:1"/></clipPath><clipPath><rect width="46" height="46" x="1" y="1" rx="4" style="fill:#1890d0;stroke-width:1"/></clipPath><clipPath><rect width="46" height="46" x="1" y="1" rx="4" style="fill:#1890d0;stroke-width:1"/></clipPath></defs><path d="m -1374.42 1658.71 c 127.95 -192.46 -280.09 -311 -226.07 -62.2 23.02 102.82 167.39 165.22 226.07 62.2 z" transform="translate(1605.54 -1455.49)" style="fill:#fff;color:#000"/><path d="m 246.86 486.92 c 3.116 -2.796 5.898 -7.669 9.128 -6.657 5.352 1.385 3.04 11.624 6.081 16.41 4.165 -2.349 6.868 -7.29 5.745 -9.854 -0.251 -0.717 0.055 -2.504 -3.365 -0.942 -0.888 0.405 -0.851 -1.165 -0.695 -1.377 3.166 -3.479 4.994 -4.93 7.161 -4.841 1.822 0.304 5.03 2.352 4.438 7.262 -1.219 7.306 -11.947 18.779 -15.532 18.356 -4.105 0.906 -6.192 -12.06 -9.279 -18.15 l -2.825 1.093 c -1.164 0.183 -1 -0.56 -0.856 -1.295 z" transform="matrix(4.77063 0 0 5.32922 -1119.57 -2495.83)" style="fill:#ff4500"/></svg>