<svg xmlns="http://www.w3.org/2000/svg" viewBox="0 0 256 256"><g transform="translate(0 -796.36)"><path d="m 218.53 792.32 c 127.95 192.46 -280.09 311 -226.07 62.2 23.02 -102.82 167.39 -165.22 226.07 -62.2 z" transform="matrix(0.99182 0 0 0.99659 14.03 60.01)" style="fill:#fff;color:#000"/><path d="m 144.65 831.23 c -32.515 -0.09 -66.872 19.18 -86.86 48.24 l 34.628 58.21 c -2.252 -8.61 -1.281 -17.985 2.697 -25.984 3.978 -7.999 10.95 -14.574 19.291 -18.211 10.506 -4.581 22.451 -4.459 33.965 -4.308 23.749 0.311 47.5 0.398 71.25 0.244 -2.84 -6.739 -6.607 -13.63 -11.428 -20.676 -15.424 -26.31 -38.958 -37.442 -63.54 -37.51 z" style="fill:#ff4500"/><path d="m 219.55 889.26 l -75.61 0.067 c 7.696 3.521 14.213 9.436 18.354 16.657 4.141 7.22 5.881 15.707 4.914 23.919 -1.308 11.11 -7.304 21.1 -13.14 30.737 -10.476 17.288 -20.85 34.628 -31.15 52.01 59.84 -5.514 125.14 -56.1 96.64 -123.39 z" style="fill:#ffe4c4"/><path d="m 57.835 879.4 c -6.975 10.126 -12.205 21.427 -14.994 33.535 -17.201 76.976 29.647 104.47 80.32 99.69 l 33.14 -54.789 c -7.162 4.475 -15.742 6.763 -24.25 6.463 -8.509 -0.3 -16.917 -3.205 -23.726 -8.173 c -9.199 -6.711 -15.13 -16.716 -20.823 -26.428 -9.847 -16.799 -19.731 -33.554 -29.668 -50.3 z" style="fill:#ffa07a"/><g style="color:#000"><path transform="matrix(0.69489 0 0 0.67518 43.882 835.78)" d="m 192.14 128 a 64.14 64.14 0 1 1 -128.29 0 64.14 64.14 0 1 1 128.29 0 z" style="fill:#fff"/><path d="m 192.14 128 a 64.14 64.14 0 1 1 -128.29 0 64.14 64.14 0 1 1 128.29 0 z" transform="matrix(0.57787 0 0 0.56148 58.861 850.33)" style="fill:#ffdead"/></g></g></svg>