<svg xmlns="http://www.w3.org/2000/svg" viewBox="0 0 256 256"><g transform="translate(0 -796.36)"><path d="m -1374.42 1658.71 c 125.16 -274.08 -273.7 -240.16 -226.07 -62.2 23.02 102.82 167.39 165.22 226.07 62.2 z" transform="matrix(1 0 0 -1 1605.44 2510.29)" style="fill:#fff;color:#000"/><g transform="matrix(3.0625 0 0 2.8125 60.25 -1963.66)" style="fill:#ff4500"><path d="m 4 1008.36 h 40 v 40 h -40 z"/><text y="1040.2" x="-56.39" line-height="125%" style="letter-spacing:0;word-spacing:0;font-size:38.1;font-family:Impact;font-weight:bold"><tspan y="1040.2" x="-56.39"/></text><path d="m 17.01 1008.36 v 30.23 v 0.283 h 0.047 c 0.238 2.394 3.386 4.282 7.301 4.282 3.914 0 7.06 -1.889 7.301 -4.282 h 0.047 v -0.283 v -30.23 h -14.697 z m 11.903 10.859 c 0.456 0 0.824 0.227 0.824 0.512 v 18.854 v 0.04 c 0 0 -0.004 0.013 -0.004 0.013 -0.043 1.731 -2.586 3.288 -5.372 3.289 -2.788 0 -5.334 -1.561 -5.372 -3.294 0 0 -0.004 0 -0.004 -0.013 v -0.04 v -14.13 c 0 -0.283 0.368 -0.512 0.824 -0.512 0.456 0 0.824 0.229 0.824 0.512 v 10.791 c 0 0.487 1.39 0.487 1.39 0 v -4.493 c 0 -0.283 0.368 -0.512 0.824 -0.512 0.456 0 0.824 0.229 0.824 0.512 v 4.493 c 0 0.487 1.386 0.487 1.386 0 v -2.288 c 0 -0.283 0.368 -0.512 0.824 -0.512 0.456 0 0.824 0.227 0.824 0.512 v 2.288 c 0 0.487 1.39 0.487 1.39 0 v -15.513 c 0 -0.283 0.368 -0.512 0.824 -0.512 z m -4.553 17.285 a 3.348 2.08 0 0 0 -3.35 2.082 3.348 2.08 0 0 0 3.35 2.082 3.348 2.08 0 0 0 3.35 -2.082 3.348 2.08 0 0 0 -3.35 -2.082 z" style="fill:#ffdead"/><path d="m 4 1008.36 c 20 1 20 1 40 0 z" style="opacity:0.75"/></g></g></svg>