<svg xmlns="http://www.w3.org/2000/svg" viewBox="0 0 256 256"><defs><linearGradient id="0" gradientUnits="userSpaceOnUse" y1="-44.41" x2="0" y2="-4.363"><stop/><stop offset="1" style="stop-opacity:0.588"/></linearGradient></defs><g transform="translate(0 -796.36)"><path d="m-1374.42 1658.71c127.95-192.46-280.09-311-226.07-62.2 23.02 102.82 167.39 165.22 226.07 62.2" transform="matrix(-1 0 0 1 -1349.34 -659.12)" style="fill:#fff;color:#000"/><g transform="matrix(3.5625 0 0 3.31037 42 846.67)"><rect width="40" height="40" rx="2.857" x="4" y="-44.48" transform="scale(1 -1)" style="fill:url(#0);opacity:0.45"/><rect width="40" height="40" rx="2.857" x="4" y="4" style="fill:#ff4500"/><path d="M 24 13.05 A 10.952 10.952 0 1 0 24 34.952 10.952 10.952 0 0 0 24 13.05 z" style="fill:#ffdead;stroke:#dc143c"/><path d="m 24 32.81 a 8.81 8.81 0 1 1 0 -17.619 8.81 8.81 0 0 1 0 17.619" style="fill:#ff4500"/><path d="m 24 31.502 a 7.502 7.502 0 1 1 0 -15 7.502 7.502 0 0 1 0 15" style="fill:#faf0e6"/><path d="m 24 30.05 a 6.05 6.05 0 1 1 0 -12.1 6.05 6.05 0 0 1 0 12.1" style="fill:#ffe4c4"/><path d="m 24 28.645 a 4.645 4.645 0 1 1 0 -9.29 4.645 4.645 0 0 1 0 9.29" style="fill:#faf0e6"/><path d="m 24 27.892 a 3.892 3.892 0 1 1 0 -7.783 3.892 3.892 0 0 1 0 7.783" style="fill:#ff4500"/><path d="m 25.779 23.887 a 1.632 1.632 0 1 1 0 -3.265 1.632 1.632 0 0 1 0 3.265" style="fill:#ffdead"/></g></g></svg>