<svg xmlns="http://www.w3.org/2000/svg" viewBox="0 0 256 256"><g transform="translate(0 -796.36)" style="color:#000"><path d="m -1373.19 1658.58 c 89.31 -107.93 -94.84 -269.31 -196.45 -174.27 -114.11 104.28 71.02 308.65 184.91 192.52 l 11.536 -18.248 z" transform="translate(1605.44 -659.12)" style="fill:#fff"/><path d="m -1373.19 1658.58 c 89.31 -107.93 -94.84 -269.31 -196.45 -174.27 -114.11 104.28 71.02 308.65 184.91 192.52 l 11.536 -18.248 z" transform="matrix(0.67523 0 0 0.70884 1137.89 -192.23)" style="fill:#ff4500"/><path d="m 54.777 936.61 c 0.784 2.445 1.648 4.887 2.56 7.288 h 171.23 c 0.512 -2.424 0.926 -4.851 1.246 -7.288 h -175.04 z m 9.04 21.917 c 1.253 2.469 2.56 4.877 3.94 7.261 h 153.29 c 1.174 -2.402 2.212 -4.82 3.161 -7.261 h -160.39 z m 13.6 21.917 c 1.878 2.506 3.82 4.919 5.832 7.261 h 125.53 l 3.806 -7.261 h -135.17 z m 20.589 21.917 c 3.147 2.637 6.387 5.058 9.704 7.261 h 81.84 c 2.815 -2.153 5.591 -4.562 8.324 -7.261 h -99.87 z" style="fill:#fff"/></g></svg>