<svg xmlns="http://www.w3.org/2000/svg" xmlns:xlink="http://www.w3.org/1999/xlink" viewBox="0 0 256 256"><defs><path d="m 245.46 129.52 l -97.89 -96.9 c -5.556 -5.502 -16.222 -11.873 -23.7 -14.16 l -39.518 -12.08 c -7.479 -2.286 -18.1 0.391 -23.599 5.948 l -13.441 13.578 c -5.5 5.559 -14.502 14.653 -20 20.21 l -13.44 13.579 c -5.5 5.558 -8.07 16.206 -5.706 23.658 l 12.483 39.39 c 2.363 7.456 8.843 18.06 14.399 23.556 l 97.89 96.9 c 5.558 5.502 14.605 5.455 20.1 -0.101 l 36.26 -36.63 c 5.504 -5.559 14.503 -14.651 20 -20.21 l 36.26 -36.629 c 5.502 -5.56 5.455 -14.606 -0.101 -20.11 z m -178.09 -50.74 c -7.198 0 -13.03 -5.835 -13.03 -13.03 0 -7.197 5.835 -13.03 13.03 -13.03 7.197 0 13.03 5.835 13.03 13.03 -0.001 7.198 -5.836 13.03 -13.03 13.03 z" id="0"/><use id="1" xlink:href="#0"/><clipPath id="2"><use xlink:href="#0"/></clipPath><clipPath style="clip-path:url(#2)"><use xlink:href="#1"/></clipPath><clipPath style="clip-path:url(#2)"><use xlink:href="#1"/></clipPath></defs><g transform="translate(0 -796.36)" style="fill:#2c2c2c;color:#000"><path d="m 101.96 1046.68 c -170.88 -46.12 -109 -288 53.08 -245.29 162.09 42.71 117.79 291.41 -53.08 245.29 z" style="fill:#fff"/><path d="m 127.6 857.81 c -27.24 0 -49.46 21.13 -49.46 47.04 0 15.543 8.04 29.35 20.318 37.924 v 4.342 v 36.6 v 4.632 h 4.87 h 4.696 v 8.995 h 39.21 v -8.995 h 5.098 h 4.87 v -4.632 v -36.6 v -4.632 c 12.05 -8.595 19.937 -22.279 19.937 -37.634 0 -25.91 -22.296 -47.04 -49.54 -47.04 z m 0 10.349 c 21.399 0 38.657 16.342 38.657 36.693 0 13.356 -7.493 24.93 -18.644 31.34 v 5.79 h -39.798 v -5.645 c -11.255 -6.379 -18.796 -18.03 -18.796 -31.482 0 -20.352 17.18 -36.693 38.581 -36.693 z m -19.404 83.18 h 39.27 v 9.533 h -39.27 z m 0 18.497 h 39.27 v 9.419 h -39.27 z" style="fill:#ff4500"/></g></svg>