<svg xmlns="http://www.w3.org/2000/svg" viewBox="0 0 256 256" xmlns:xlink="http://www.w3.org/1999/xlink"><path d="m 158.39 250.86 c 237.88 -49.33 -17.492 -388.7 -138.4 -184.83 -51.828 79.19 16.06 210.21 138.4 184.83 z" style="fill:#fff;color:#000"/><g style="fill:#ffa07a"><path d="m 86.27 176.92 c -11.561 -2.52 -26.754 -8.509 -34.44 -13.575 -8.591 -5.66 -23.27 -24.591 -23.27 -30 0 -4.854 15.19 -38.03 22.789 -40.986 3.154 -1.227 19.4 -9.226 -6.614 15.72 -3.931 3.77 -4.228 7.931 -3.61 8.729 1.197 1.547 8.364 -2.626 18.14 -10.561 4.557 -3.698 3.547 -1.813 -4.265 7.962 -8.377 10.483 -9.652 12.984 -7.05 13.755 10.809 3.211 35.797 -10.2 50.12 -26.91 c 13.376 -15.598 11.805 -23.459 -1.846 -9.241 -13.15 13.696 -17.867 16.04 -8.04 4.01 10.734 -13.153 1.266 -16.667 -9.805 -11.271 -39.29 19.15 -30.629 12.604 -30.628 11.697 17.779 -19.439 16.651 -14.196 20.859 -18.946 c 10.256 -11.582 52.07 -4.497 52.07 4.363 0 6.73 -20.628 30.14 -33.623 38.16 -6.734 4.156 -12.287 8.617 -12.34 9.906 -0.052 1.292 3.113 4.679 7.03 7.525 12.93 9.384 31.788 35.03 29.415 39.991 -1.092 2.282 -13.685 2.117 -24.895 -0.326 z m 12.94 -8.476 c 1.19 -2.488 -17.12 -25.05 -24.13 -29.732 -2.976 -1.988 -7.563 -3.57 -10.185 -3.516 -7.02 0.142 -20.313 5.066 -20.568 7.616 -0.743 7.383 31.791 24.25 52.801 27.373 0.648 0.096 1.591 -0.686 2.094 -1.739 z m 17.193 8.513 c -1.178 -2.464 -0.186 -21.04 1.971 -36.9 0.536 -3.939 1.951 -7.162 3.144 -7.162 2.924 0 4.223 7.192 4.251 23.549 l 0.024 13.634 l 7.739 -1.064 c 5.114 -0.703 9.396 3.648 6.215 6.01 -5.613 4.172 -21.927 4.89 -23.343 1.929 z m 65.945 -0.531 c -4.215 -5.445 -0.363 -23.466 8.424 -39.41 5.071 -9.2 11.604 -8.127 14.32 2.354 2.663 10.272 4.928 10.596 9.357 1.338 2.082 -4.352 5.125 -7.816 6.867 -7.816 2.648 0 3.311 2.535 4.328 16.54 0.875 12.06 0.867 20.477 -0.711 22.931 -3.174 4.941 -6.05 -0.254 -7.02 -8.617 -1.295 -11.177 -4.46 -10.346 -9.498 2.496 -4.24 10.811 -4.713 11.32 -6.909 7.438 -1.366 -2.414 -2.358 -9.551 -2.358 -16.967 0 -20.13 -5.538 -15.357 -7.806 6.732 -1.246 12.13 -5.214 17.86 -8.991 12.984 z m -39.19 -1.136 c 0 -3.331 6.858 -20.807 15.544 -33.837 7.874 -11.807 13.453 -13.849 16.667 -6.09 2.401 5.794 2.092 38.545 -2.934 42.956 -3.726 3.27 -4.264 -9.872 -4.317 -17.255 -0.03 -4.457 1.042 -6.147 -0.177 -6.751 -3.389 -1.681 -5.995 1.02 -10.185 6.196 -0.53 0.655 16.11 -3.084 12.973 7.327 -0.438 1.45 -17.644 -2.438 -18.03 0.27 -1.413 9.938 -9.548 12.675 -9.548 7.182 z m -71.955 -63.18 c 0 -0.606 1.535 -2.162 3.412 -3.461 1.877 -1.297 3.412 -1.863 3.412 -1.257 0 0.606 -1.535 2.162 -3.412 3.461 -1.877 1.297 -3.412 1.863 -3.412 1.257 z" id="0"/></g><g style="fill:#ff4500"><use transform="translate(-5.424 -2.169)" xlink:href="#0"/></g></svg>