<svg xmlns="http://www.w3.org/2000/svg" viewBox="0 0 256 256"><g transform="matrix(-1 0 0 -1 256 1052.36)"><path d="m 228.86 996.34 c 128.12 -192.36 -256.62 -296.92 -226.07 -62.2 23.02 102.82 167.39 165.22 226.07 62.2 z" style="fill:#fff;color:#000"/><g transform="matrix(-0.19691 0 0 -0.22107 223.31 1034.41)"><g style="fill:#ff4500"><path d="m 801.65 201.4 q 0 -3.35 -3.3 -3.35 l -143.9 32.25 c -2.25 0 -3.35 1.1 -3.35 3.35 v 111.6 c 0 2.25 1.1 3.35 3.35 3.35 h 111.65 c 2.15 0 3.25 -1.1 3.25 -3.35 l 32.3 -143.85 z"/><path d="m 769.35 654.65 c 0 -2.3 -1.1 -3.4 -3.25 -3.4 h -111.65 c -2.25 0 -3.35 1.1 -3.35 3.4 v 111.55 c 0 2.25 1.1 3.35 3.35 3.35 l 143.9 32.3 c 2.2 0 3.3 -1.1 3.3 -3.35 l -32.3 -143.85 z"/><g style="fill:#ffdead"><path d="m 380.25 233.65 c 0 -2.25 -1.1 -3.35 -3.35 -3.35 l -143.95 -32.25 c -2.15 0 -3.25 1.1 -3.25 3.35 l 32.25 143.85 c 0 2.25 1.1 3.35 3.3 3.35 h 111.65 c 2.25 0 3.35 -1.1 3.35 -3.35 v -111.6 z"/><path d="m 265.25 651.25 c -2.2 0 -3.3 1.1 -3.3 3.4 l -32.25 143.85 c 0 2.25 1.1 3.35 3.25 3.35 l 143.95 -32.3 c 2.25 0 3.35 -1.1 3.35 -3.35 v -111.55 c 0 -2.3 -1.1 -3.4 -3.35 -3.4 h -111.65 z"/></g><path d="M 727.45,711.75 Q 815.2,624 815.2,499.95 C 815.2,417.2 785.95,346.6 727.45,288.1 690.3,250.9 648.15,225.55 601.1,212 c -48.55,14.25 -91.6,45.55 -129.25,93.8 -53.45,68.6 -80.2,151.4 -80.2,248.35 0,93.9 25.1,174.5 75.25,241.75 15.75,2.4 32,3.6 48.75,3.6 0.05,0 0.05,0 0.1,0 82.7,-0.05 153.25,-29.3 211.7,-87.75 z" style="fill:#ffa07a"/><path d="m 515.75 200.35 c -0.05 0 -0.05 0 -0.1 0 -82.75 0 -153.35 29.25 -211.85 87.75 -58.5 58.5 -87.75 129.1 -87.75 211.85 0 82.7 29.25 153.3 87.75 211.8 46.65 46.65 101.05 74.7 163.1 84.15 -50.15 -67.25 -75.25 -147.85 -75.25 -241.75 0 -96.95 26.75 -179.75 80.2 -248.35 37.65 -48.25 80.7 -79.55 129.25 -93.8 -26.85 -7.75 -55.3 -11.65 -85.35 -11.65 z"/></g><path d="m 746.9,523.2 q 0,-29.15 -13.15,-52.85 l -205.85,66.3 c 2.75,24.65 13.25,46.05 31.4,64.2 21.45,21.45 47.35,32.2 77.7,32.2 30.35,0 56.25,-10.75 77.7,-32.2 21.45,-21.45 32.2,-47.3 32.2,-77.65 z M 298.95,470.35 c -8.75,15.8 -13.15,33.4 -13.15,52.85 0,30.35 10.7,56.2 32.15,77.65 21.45,21.45 47.35,32.2 77.7,32.2 30.35,0 56.25,-10.75 77.7,-32.2 18.65,-18.65 29.25,-40.65 31.7,-66.1 l -206.1,-64.4 z" style="fill-opacity:0.2"/><path d="m 746.9,499.95 q 0,-29.15 -13.15,-52.85 L 527.9,513.45 c 2.75,24.6 13.25,46 31.4,64.15 21.45,21.45 47.35,32.2 77.7,32.2 30.35,0 56.25,-10.75 77.7,-32.2 21.45,-21.45 32.2,-47.3 32.2,-77.65 z m -461.1,0 c 0,30.35 10.7,56.2 32.15,77.65 21.45,21.45 47.35,32.2 77.7,32.2 30.35,0 56.25,-10.75 77.7,-32.2 18.65,-18.65 29.25,-40.65 31.7,-66.1 l -206.1,-64.4 c -8.75,15.8 -13.15,33.4 -13.15,52.85 z" style="fill:#fff"/><g id="0" style="fill:#ff4500;mask:url(#)"><path d="m 602.15,453.45 q -9.3,0 -16.1,11.1 c -0.3,0.45 -0.55,0.9 -0.8,1.35 -4.65,8.35 -7,18.4 -7,30.15 0,11.75 2.35,21.8 7,30.1 2.65,4.75 5.65,8.2 9,10.25 2.45,1.5 5.1,2.25 7.9,2.25 6.6,0 12.2,-4.15 16.85,-12.5 4.7,-8.3 7.05,-18.35 7.05,-30.1 0,-11.75 -2.35,-21.8 -7.05,-30.15 -4.65,-8.3 -10.25,-12.45 -16.85,-12.45 z M 438.85,465.9 C 434.2,457.6 428.6,453.45 422,453.45 c -6.2,0 -11.55,3.7 -16.05,11.1 -0.3,0.45 -0.6,0.9 -0.85,1.35 -4.65,8.35 -6.95,18.4 -6.95,30.15 0,3.25 0.2,6.4 0.55,9.45 0.15,1.1 0.3,2.2 0.45,3.35 1.05,6.4 3.05,12.15 5.95,17.3 2.65,4.75 5.7,8.2 9.05,10.25 2.45,1.5 5.05,2.25 7.85,2.25 6.6,0 12.2,-4.15 16.85,-12.5 4.7,-8.3 7.05,-18.35 7.05,-30.1 0,-11.75 -2.35,-21.8 -7.05,-30.15 z"/></g></g></g></svg>