<svg xmlns="http://www.w3.org/2000/svg" viewBox="0 0 256 256"><g transform="translate(0 -796.36)"><path d="m 182.83 797.33 c -368.15 -25.644 -92.2 469.58 64.2 143.49 21.558 -50.25 5.804 -125.18 -64.2 -143.49 z" style="fill:#fff;color:#000"/><g transform="translate(0 796.36)" style="fill-rule:evenodd"><g style="fill:#ff4500"><path d="m 112.64 119.85 c -1.875 -0.227 -3.651 -0.511 -3.947 -0.631 -0.296 -0.12 -6.11 -0.805 -12.919 -1.522 -6.809 -0.717 -12.704 -1.443 -13.1 -1.614 -0.395 -0.17 -5.239 -0.832 -10.766 -1.471 -5.526 -0.639 -10.201 -1.3 -10.389 -1.47 -0.188 -0.17 -0.785 -0.309 -1.328 -0.309 -3.782 0 -6.67 -1.834 -7.512 -4.769 -0.679 -2.369 -0.046 -11.379 0.8 -11.379 0.168 0 0.306 -0.282 0.306 -0.627 0 -0.766 1.808 -6.3 2.139 -6.55 0.131 -0.099 0.615 -1.12 1.076 -2.27 0.461 -1.15 1.016 -2.28 1.234 -2.512 0.218 -0.232 0.8 -1.267 1.293 -2.3 0.493 -1.033 1 -1.881 1.132 -1.884 0.129 -0.003 0.66 -0.731 1.18 -1.618 0.52 -0.887 1.302 -2 1.739 -2.48 5.158 -5.642 7.472 -7.2 10.696 -7.2 2.421 0 2.892 0.318 8.319 5.623 3.505 3.426 8.123 7.734 11.564 10.789 0.789 0.701 3.726 3.509 6.526 6.241 6.492 6.335 15.665 15.15 19.13 18.38 2.383 2.222 2.64 2.584 2.241 3.161 -0.248 0.358 -0.732 1.216 -1.077 1.907 -0.344 0.691 -0.734 1.306 -0.867 1.366 -0.133 0.061 -0.446 0.908 -0.696 1.884 l -0.455 1.774 l -1.457 -0.053 c -0.802 -0.029 -2.991 -0.239 -4.866 -0.466 z"/><path d="m 94.43 199.44 c -0.641 -0.09 -1.166 -0.28 -1.166 -0.422 0 -0.142 -0.767 -0.476 -1.705 -0.744 -1.516 -0.432 -4.272 -1.698 -4.755 -2.184 -0.404 -0.406 -4.02 -2.511 -4.312 -2.511 -0.174 0 -0.446 -0.202 -0.604 -0.449 -0.158 -0.247 -1.014 -1.01 -1.902 -1.694 -1.881 -1.451 -4.191 -3.499 -4.998 -4.431 -0.311 -0.359 -1.057 -1.166 -1.659 -1.794 -0.602 -0.628 -1.404 -1.667 -1.782 -2.308 -0.378 -0.641 -0.811 -1.166 -0.963 -1.166 -0.151 0 -0.703 -0.848 -1.226 -1.884 -0.523 -1.036 -1.073 -1.965 -1.223 -2.063 -0.461 -0.304 -1.427 -3.999 -1.427 -5.46 0 -1.494 0.838 -3.871 1.365 -3.871 0.179 0 0.72 -0.363 1.202 -0.807 0.792 -0.729 3.498 -2.327 5.594 -3.303 0.443 -0.206 0.806 -0.493 0.807 -0.638 0.001 -0.145 0.792 -0.663 1.757 -1.152 0.965 -0.489 1.974 -1.104 2.243 -1.366 0.269 -0.263 1.619 -1.094 3 -1.849 1.382 -0.754 2.593 -1.488 2.691 -1.63 0.099 -0.142 1.229 -0.808 2.512 -1.48 1.283 -0.672 2.557 -1.436 2.831 -1.698 0.274 -0.263 1.525 -0.963 2.781 -1.556 1.256 -0.593 2.284 -1.188 2.285 -1.322 0.001 -0.134 1.132 -0.8 2.512 -1.48 1.38 -0.68 2.51 -1.344 2.51 -1.476 0 -0.132 1.09 -0.766 2.422 -1.41 1.332 -0.644 2.584 -1.353 2.781 -1.575 0.197 -0.223 1.303 -0.876 2.457 -1.451 1.154 -0.575 2.284 -1.225 2.512 -1.443 0.228 -0.218 1.625 -1.021 3.105 -1.784 1.48 -0.763 2.934 -1.58 3.23 -1.816 0.296 -0.236 1.259 -0.794 2.141 -1.241 l 1.602 -0.812 l 1.089 1.345 c 0.599 0.74 1.695 1.96 2.435 2.712 1.402 1.424 1.677 2.448 0.873 3.254 -0.26 0.261 -0.932 1.685 -1.494 3.166 -0.561 1.48 -1.127 2.772 -1.257 2.871 -0.13 0.099 -0.685 1.31 -1.232 2.691 -0.548 1.382 -1.115 2.593 -1.26 2.691 -0.145 0.099 -0.716 1.431 -1.27 2.961 -0.553 1.53 -1.112 2.781 -1.243 2.781 -0.13 0 -0.546 0.91 -0.924 2.023 -0.378 1.113 -0.867 2.203 -1.086 2.422 -0.219 0.22 -0.857 1.61 -1.418 3.091 -0.561 1.48 -1.129 2.772 -1.262 2.871 -0.133 0.099 -0.707 1.391 -1.276 2.871 -0.569 1.48 -1.155 2.778 -1.302 2.884 -0.148 0.106 -0.691 1.316 -1.208 2.689 -0.517 1.373 -1.052 2.578 -1.191 2.678 -0.138 0.1 -0.717 1.393 -1.285 2.874 -0.569 1.48 -1.157 2.774 -1.307 2.875 -0.15 0.101 -0.632 1.151 -1.071 2.333 -0.439 1.182 -0.91 2.229 -1.047 2.328 -0.137 0.099 -0.541 0.953 -0.898 1.898 -0.396 1.048 -1.083 2.02 -1.761 2.495 -0.612 0.427 -1.205 0.909 -1.319 1.072 -0.256 0.368 -3.339 0.616 -4.907 0.395 z"/><path d="m 60.965 161.41 c -3.06 -1.043 -4.947 -2.786 -6.517 -6.02 -0.442 -0.909 -0.913 -1.653 -1.048 -1.653 -0.135 0 -0.677 -1.413 -1.205 -3.14 -0.528 -1.727 -1.117 -3.429 -1.31 -3.782 -0.841 -1.541 -1.47 -7.989 -1.286 -13.175 0.187 -5.256 0.607 -7.594 1.53 -8.518 0.278 -0.278 0.505 -0.722 0.505 -0.986 0 -0.754 2.048 -2.287 3.392 -2.539 0.67 -0.126 10.314 0.198 21.431 0.719 11.12 0.521 22.595 1.046 25.506 1.167 2.911 0.121 5.293 0.356 5.293 0.523 0 0.167 1.171 0.304 2.602 0.305 1.431 0.001 3.911 0.104 5.511 0.229 l 2.91 0.227 l 0.217 3.301 c 0.119 1.816 0.384 3.74 0.588 4.276 0.348 0.915 0.287 1.01 -0.973 1.535 -0.739 0.308 -1.425 0.685 -1.523 0.839 -0.099 0.154 -1.431 0.804 -2.961 1.445 -1.53 0.641 -2.781 1.286 -2.781 1.432 0 0.147 -1.413 0.872 -3.14 1.611 -1.727 0.74 -3.221 1.461 -3.319 1.604 -0.099 0.142 -1.35 0.798 -2.781 1.458 -1.431 0.659 -2.602 1.33 -2.602 1.489 0 0.16 -0.166 0.29 -0.369 0.29 -0.485 0 -5.859 2.541 -6.09 2.88 -0.099 0.144 -1.386 0.775 -2.861 1.401 -1.475 0.626 -2.767 1.251 -2.871 1.389 -0.26 0.344 -4.885 2.584 -5.337 2.584 -0.2 0 -0.577 0.209 -0.838 0.464 -0.261 0.255 -1.766 1.082 -3.345 1.837 -1.579 0.755 -2.952 1.483 -3.05 1.618 -0.099 0.135 -1.068 0.616 -2.153 1.069 -1.086 0.453 -2.7 1.249 -3.589 1.769 -3.321 1.946 -6.141 2.825 -7.536 2.349 z"/><path d="m 121.41 105.41 c -2.16 -2.276 -4.567 -4.728 -5.349 -5.448 -0.782 -0.72 -1.913 -1.863 -2.512 -2.54 -0.599 -0.677 -2.139 -2.305 -3.422 -3.618 -2.409 -2.466 -7.06 -7.445 -7.75 -8.302 -0.216 -0.267 -1.105 -1.169 -1.974 -2 -0.869 -0.834 -2.307 -2.339 -3.195 -3.343 -0.888 -1 -2.422 -2.693 -3.409 -3.752 -0.987 -1.059 -2.602 -2.849 -3.589 -3.977 -1.747 -1.996 -2.932 -3.343 -5.163 -5.867 -0.598 -0.677 -1.192 -1.703 -1.318 -2.28 -0.352 -1.602 0.159 -4.741 0.901 -5.538 0.363 -0.389 0.905 -1.177 1.204 -1.751 0.547 -1.047 3.52 -4.21 5.534 -5.887 1 -0.835 2.709 -1.868 5.302 -3.211 0.592 -0.306 1.16 -0.668 1.263 -0.804 0.255 -0.336 3.536 -1.727 4.074 -1.727 0.238 0 1.067 -0.323 1.842 -0.719 2.243 -1.144 6.759 -1.656 9.802 -1.112 1.395 0.249 2.586 0.561 2.646 0.693 0.061 0.132 0.675 0.662 1.366 1.177 0.719 0.536 1.469 1.534 1.755 2.333 0.275 0.768 0.607 1.476 0.739 1.575 0.132 0.099 0.7 2.44 1.261 5.203 0.561 2.763 1.141 5.186 1.288 5.383 0.147 0.197 0.694 2.539 1.217 5.203 0.522 2.665 1.1 5.168 1.283 5.562 0.183 0.395 0.682 2.656 1.108 5.02 0.426 2.368 0.895 4.468 1.043 4.665 0.148 0.197 0.715 2.943 1.26 6.101 0.546 3.158 1.1 5.822 1.232 5.921 0.132 0.099 0.702 2.925 1.268 6.28 0.566 3.355 1.172 6.197 1.347 6.316 0.175 0.118 -0.459 0.57 -1.409 1 -0.95 0.434 -2.374 1.268 -3.163 1.854 -0.789 0.586 -1.687 1.213 -1.994 1.394 -0.437 0.258 -1.412 -0.57 -4.486 -3.809 z"/><path d="m 136.46 103.73 c -0.22 -0.252 -0.857 -3.596 -1.415 -7.433 -0.558 -3.836 -1.12 -7.06 -1.248 -7.154 -0.21 -0.162 -1.43 -8.739 -2.02 -14.175 -0.128 -1.184 -0.341 -2.234 -0.473 -2.333 -0.277 -0.206 -1.211 -7.62 -1.854 -14.713 -0.242 -2.665 -0.568 -4.933 -0.725 -5.04 -0.157 -0.108 -0.33 -2.459 -0.383 -5.224 -0.084 -4.39 -0.017 -5.108 0.531 -5.661 0.345 -0.348 0.628 -0.779 0.628 -0.959 0 -0.432 3.602 -2.486 4.366 -2.49 0.329 -0.002 0.652 -0.16 0.718 -0.352 0.163 -0.475 4.533 -1.071 7.912 -1.08 3.33 -0.009 9.971 0.707 9.971 1.074 0 0.144 0.62 0.362 1.379 0.483 2.023 0.323 7.727 2.02 7.944 2.364 0.103 0.162 0.937 0.646 1.853 1.076 1.971 0.924 4.186 3.03 4.5 4.281 0.221 0.88 -1.228 5.787 -1.709 5.787 -0.129 0 -0.676 1.211 -1.216 2.691 -0.54 1.48 -1.127 2.691 -1.304 2.691 -0.177 0 -0.322 0.189 -0.322 0.42 0 0.527 -1.803 5.078 -2.108 5.321 -0.253 0.202 -1 2.099 -1.527 3.858 -0.191 0.641 -0.49 1.166 -0.665 1.166 -0.175 0 -0.422 0.363 -0.55 0.807 -0.376 1.306 -1.765 4.739 -1.997 4.934 -0.117 0.099 -0.679 1.391 -1.248 2.871 -0.569 1.48 -1.134 2.772 -1.256 2.871 -0.122 0.099 -0.678 1.35 -1.235 2.781 -0.557 1.431 -1.13 2.602 -1.273 2.602 -0.143 0 -0.344 0.363 -0.446 0.807 -0.313 1.363 -1.659 4.691 -1.986 4.908 -0.17 0.113 -0.404 0.528 -0.522 0.923 -0.491 1.646 -1.411 3.952 -1.646 4.123 -0.139 0.101 -0.727 1.395 -1.307 2.875 -0.58 1.48 -1.15 2.772 -1.266 2.871 -0.116 0.099 -0.423 0.704 -0.682 1.346 -0.416 1.028 -0.633 1.166 -1.834 1.166 -0.749 0 -1.456 -0.202 -1.571 -0.449 -0.167 -0.359 -0.251 -0.359 -0.419 0 -0.274 0.588 -3.079 0.56 -3.6 -0.037 z"/><path d="m 128.88 133.5 c -0.846 -0.892 -1.881 -3.402 -1.881 -4.56 0 -0.37 -0.161 -0.673 -0.359 -0.673 -0.202 0 -0.359 -1.017 -0.359 -2.333 0 -1.283 0.144 -2.333 0.319 -2.333 0.175 0 0.431 -0.6 0.569 -1.333 0.421 -2.246 1.148 -3.434 3.777 -6.173 1.897 -1.976 3.756 -3 6.574 -3.635 1.904 -0.426 3.037 -0.268 2.185 0.305 -0.204 0.137 -0.744 1.259 -1.2 2.493 -0.456 1.234 -0.933 2.243 -1.06 2.243 -0.127 0 -0.691 1.292 -1.252 2.871 -0.561 1.579 -1.131 2.871 -1.267 2.871 -0.136 0 -0.724 1.291 -1.306 2.869 -0.583 1.578 -1.159 2.87 -1.281 2.871 -0.122 0.001 -0.663 1.213 -1.203 2.693 -0.54 1.48 -1.086 2.689 -1.214 2.685 -0.128 -0.003 -0.598 -0.391 -1.043 -0.861 z"/><path d="m 96.06 220.73 c -0.289 -0.289 -1.805 -1.057 -3.368 -1.706 -1.564 -0.65 -3.067 -1.403 -3.341 -1.675 -0.274 -0.272 -1.566 -0.996 -2.871 -1.611 -1.305 -0.614 -2.534 -1.305 -2.732 -1.534 -0.197 -0.229 -1.166 -0.87 -2.153 -1.424 -0.987 -0.554 -2.061 -1.266 -2.387 -1.582 -0.326 -0.316 -1.413 -1.06 -2.416 -1.652 -1 -0.592 -1.826 -1.19 -1.829 -1.328 -0.004 -0.139 -0.774 -0.767 -1.711 -1.396 -0.938 -0.629 -1.866 -1.323 -2.063 -1.542 -0.197 -0.219 -1.57 -1.442 -3.05 -2.718 -3.982 -3.431 -10.95 -10.76 -11.628 -12.23 -0.178 -0.386 -0.459 -0.703 -0.623 -0.703 -0.164 0 -0.745 -0.686 -1.291 -1.525 -0.545 -0.839 -1.173 -1.687 -1.395 -1.884 -0.641 -0.57 -3.661 -5.155 -3.907 -5.933 -0.123 -0.388 -0.372 -0.706 -0.553 -0.706 -0.181 0 -0.756 -0.848 -1.279 -1.884 -0.523 -1.036 -1.066 -1.965 -1.208 -2.063 -0.142 -0.099 -0.72 -1.229 -1.285 -2.512 -0.565 -1.283 -1.154 -2.423 -1.31 -2.533 -0.156 -0.11 -0.687 -1.231 -1.181 -2.491 -0.494 -1.26 -1.027 -2.381 -1.186 -2.491 -0.299 -0.208 -2.223 -6.04 -2.223 -6.741 0 -0.219 -0.15 -0.451 -0.334 -0.517 -0.184 -0.066 -0.708 -1.573 -1.166 -3.349 -0.458 -1.776 -0.94 -3.312 -1.072 -3.412 -0.308 -0.234 -1.656 -7.371 -1.965 -10.404 -0.131 -1.283 -0.374 -2.423 -0.541 -2.533 -0.899 -0.593 -0.884 -25.21 0.015 -25.804 0.162 -0.106 0.41 -1.243 0.55 -2.525 0.335 -3.059 1.629 -9.769 1.971 -10.227 0.148 -0.198 0.642 -1.813 1.099 -3.589 0.456 -1.776 0.94 -3.31 1.076 -3.409 0.136 -0.099 0.697 -1.552 1.247 -3.23 0.551 -1.678 1.117 -3.131 1.258 -3.23 0.141 -0.099 0.716 -1.391 1.278 -2.871 0.561 -1.48 1.21 -2.881 1.441 -3.113 0.231 -0.232 0.786 -1.322 1.233 -2.422 0.447 -1.1 0.937 -2 1.09 -2 0.153 0 0.61 -0.706 1.016 -1.57 0.406 -0.863 0.948 -1.792 1.206 -2.063 0.257 -0.271 0.696 -0.935 0.974 -1.474 0.278 -0.539 0.803 -1.3 1.166 -1.69 0.363 -0.39 0.66 -0.821 0.66 -0.959 0 -0.138 0.404 -0.78 0.897 -1.426 0.493 -0.647 0.897 -1.348 0.897 -1.559 0 -0.211 0.14 -0.383 0.31 -0.383 0.171 0 0.768 -0.661 1.328 -1.469 1.449 -2.091 6.544 -7.805 9.88 -11.08 1.813 -1.78 6.193 -5.753 6.342 -5.753 0.274 0 3.161 -2.374 3.6 -2.961 0.259 -0.345 0.615 -0.628 0.793 -0.628 0.378 0 2.943 -1.701 3.217 -2.133 0.233 -0.367 3.195 -2.133 4.045 -2.411 0.345 -0.113 0.628 -0.337 0.628 -0.498 0 -0.161 1.171 -0.888 2.602 -1.616 1.431 -0.728 2.682 -1.441 2.781 -1.585 0.099 -0.144 1.229 -0.719 2.512 -1.277 1.283 -0.558 2.575 -1.201 2.871 -1.429 0.636 -0.489 3.462 -1.693 5.948 -2.533 0.972 -0.329 1.848 -0.71 1.947 -0.846 0.167 -0.231 2.992 -1.154 6.818 -2.229 0.888 -0.249 1.696 -0.558 1.794 -0.687 0.099 -0.128 0.583 -0.317 1.077 -0.419 7.167 -1.484 10.228 -2.063 12.02 -2.271 1.184 -0.138 2.315 -0.376 2.512 -0.53 0.531 -0.414 9.762 -1.067 15.08 -1.067 5.576 0 14.658 0.688 14.825 1.123 0.066 0.172 0.55 0.317 1.077 0.322 1.942 0.02 14.473 2.452 14.773 2.868 0.099 0.137 1.996 0.778 4.217 1.424 2.22 0.646 4.04 1.304 4.04 1.462 0 0.158 0.363 0.339 0.807 0.402 0.584 0.083 0.773 0.313 0.682 0.832 -0.069 0.395 -0.245 0.798 -0.39 0.897 -0.146 0.099 -0.721 1.391 -1.278 2.871 -0.557 1.48 -1.189 2.814 -1.404 2.964 -0.434 0.303 -2.075 0.005 -2.361 -0.428 -0.211 -0.32 -9.556 -2.897 -10.5 -2.896 -0.345 0.001 -0.628 -0.134 -0.628 -0.299 0 -0.734 -13.896 -2.57 -19.445 -2.57 -1.933 0 -3.578 -0.16 -3.702 -0.359 -0.289 -0.467 -1.974 -0.467 -1.974 0 0 0.214 -1.38 0.359 -3.423 0.359 -5.474 0 -19.544 1.813 -19.544 2.518 0 0.144 -0.609 0.359 -1.353 0.478 -1.988 0.318 -9.204 2.425 -9.413 2.749 -0.099 0.153 -0.987 0.529 -1.974 0.836 -2.64 0.821 -6.074 2.141 -6.28 2.414 -0.099 0.131 -1.31 0.775 -2.691 1.432 -1.382 0.657 -2.593 1.293 -2.691 1.414 -0.099 0.121 -1.229 0.752 -2.512 1.402 -1.283 0.65 -2.494 1.377 -2.691 1.615 -0.197 0.238 -1.287 0.96 -2.422 1.606 -1.135 0.645 -2.063 1.304 -2.063 1.465 0 0.16 -0.525 0.556 -1.166 0.879 -1.517 0.764 -3.128 1.981 -3.962 2.993 -0.366 0.444 -0.828 0.807 -1.027 0.807 -0.93 0 -13.14 12.481 -14.209 14.53 -0.26 0.495 -0.624 0.901 -0.81 0.901 -0.186 0 -0.571 0.444 -0.855 0.987 -0.284 0.543 -1.015 1.541 -1.624 2.218 -0.609 0.677 -1.108 1.414 -1.108 1.637 0 0.223 -0.308 0.737 -0.685 1.141 -0.377 0.404 -1.017 1.387 -1.424 2.183 -0.406 0.797 -0.952 1.667 -1.213 1.934 -0.261 0.267 -0.849 1.374 -1.307 2.46 -0.458 1.086 -1.035 2.216 -1.281 2.512 -0.6 0.721 -2.344 4.624 -2.344 5.247 0 0.272 -0.132 0.495 -0.292 0.495 -0.161 0 -0.673 1.09 -1.139 2.422 -0.466 1.332 -0.961 2.503 -1.1 2.602 -0.14 0.099 -0.707 2.037 -1.261 4.306 -0.554 2.27 -1.122 4.208 -1.263 4.306 -0.376 0.264 -1.69 8.342 -1.978 12.157 -0.137 1.813 -0.387 3.382 -0.555 3.486 -0.402 0.248 -0.4 14.401 0.002 14.65 0.17 0.105 0.423 1.608 0.563 3.341 0.339 4.202 1.596 11.374 2.02 11.523 0.186 0.066 0.338 0.411 0.338 0.768 0 0.935 1.785 7.672 2.092 7.895 0.142 0.104 0.636 1.359 1.097 2.79 0.461 1.431 0.957 2.602 1.1 2.602 0.144 0 0.452 0.635 0.684 1.411 0.412 1.375 3.856 8.28 4.309 8.637 0.125 0.099 0.703 1.068 1.284 2.153 0.582 1.086 1.341 2.278 1.687 2.65 0.346 0.372 0.887 1.22 1.202 1.884 0.315 0.664 0.692 1.208 0.838 1.208 0.146 0 0.57 0.525 0.943 1.166 0.373 0.641 1.215 1.727 1.872 2.412 0.657 0.685 1.194 1.376 1.194 1.535 0 0.277 0.609 0.985 3.768 4.378 0.789 0.848 1.617 1.764 1.839 2.036 0.222 0.272 1.493 1.464 2.823 2.648 1.331 1.184 2.844 2.565 3.364 3.068 0.52 0.503 1.591 1.386 2.38 1.962 0.789 0.576 1.838 1.416 2.329 1.867 0.491 0.45 1.023 0.819 1.181 0.819 0.344 0 2.177 1.299 3.418 2.422 0.491 0.444 1.032 0.807 1.203 0.807 0.171 0 1.237 0.623 2.37 1.384 1.133 0.761 2.867 1.77 3.854 2.243 0.987 0.472 1.972 1.026 2.19 1.229 0.218 0.204 1.541 0.831 2.941 1.395 1.4 0.564 2.629 1.244 2.732 1.512 0.178 0.465 -1.13 4.42 -1.586 4.797 -0.12 0.099 -0.436 0.745 -0.703 1.435 -0.664 1.716 -0.905 1.926 -1.516 1.315 z"/></g><path d="m 99.81 212.38 c 0 -0.099 -0.162 -0.18 -0.36 -0.18 -0.198 0 -0.36 -0.081 -0.36 -0.18 0 -0.099 -0.202 -0.18 -0.449 -0.18 -0.28 0 -0.449 -0.102 -0.449 -0.27 0 -0.168 -0.17 -0.27 -0.449 -0.27 -0.247 0 -0.449 -0.081 -0.449 -0.18 0 -0.099 -0.162 -0.18 -0.36 -0.18 -0.198 0 -0.36 -0.081 -0.36 -0.18 0 -0.099 -0.202 -0.18 -0.449 -0.18 -0.28 0 -0.449 -0.102 -0.449 -0.27 0 -0.161 -0.165 -0.27 -0.41 -0.27 -0.225 0 -0.526 -0.162 -0.669 -0.36 -0.143 -0.198 -0.444 -0.36 -0.669 -0.36 -0.225 0 -0.41 -0.081 -0.41 -0.18 0 -0.099 -0.162 -0.18 -0.36 -0.18 -0.2 0 -0.36 -0.12 -0.36 -0.27 0 -0.168 -0.17 -0.27 -0.449 -0.27 -0.247 0 -0.449 -0.081 -0.449 -0.18 0 -0.099 -0.184 -0.18 -0.41 -0.18 -0.225 0 -0.526 -0.162 -0.669 -0.36 -0.143 -0.198 -0.444 -0.36 -0.669 -0.36 -0.225 0 -0.41 -0.106 -0.41 -0.236 0 -0.13 -0.283 -0.347 -0.629 -0.483 -0.346 -0.136 -0.629 -0.313 -0.629 -0.393 0 -0.08 -0.168 -0.146 -0.372 -0.146 -0.398 0 -0.886 -0.389 -0.886 -0.706 0 -0.106 -0.184 -0.193 -0.41 -0.193 -0.225 0 -0.526 -0.162 -0.669 -0.36 -0.143 -0.198 -0.409 -0.36 -0.592 -0.36 -0.354 0 -0.846 -0.399 -0.846 -0.687 0 -0.095 -0.199 -0.223 -0.443 -0.284 -0.244 -0.061 -0.645 -0.313 -0.891 -0.559 -0.246 -0.246 -0.613 -0.448 -0.815 -0.448 -0.202 0 -0.368 -0.087 -0.368 -0.193 0 -0.249 -0.457 -0.706 -0.706 -0.706 -0.106 0 -0.193 -0.081 -0.193 -0.18 0 -0.099 -0.162 -0.18 -0.36 -0.18 -0.2 0 -0.36 -0.12 -0.36 -0.27 0 -0.148 -0.089 -0.27 -0.198 -0.27 -0.109 0 -0.424 -0.243 -0.701 -0.539 -0.277 -0.297 -0.674 -0.539 -0.881 -0.539 -0.208 0 -0.377 -0.087 -0.377 -0.193 0 -0.207 -0.442 -0.706 -0.625 -0.706 -0.167 0 -0.993 -0.86 -0.993 -1.034 0 -0.083 -0.283 -0.254 -0.629 -0.379 -0.346 -0.125 -0.629 -0.303 -0.629 -0.396 0 -0.093 -0.087 -0.168 -0.193 -0.168 -0.21 0 -0.706 -0.443 -0.706 -0.629 0 -0.148 -0.478 -0.629 -0.625 -0.629 -0.186 0 -0.993 -0.87 -0.993 -1.07 0 -0.103 -0.103 -0.188 -0.23 -0.188 -0.126 0 -0.347 -0.162 -0.489 -0.36 -0.143 -0.198 -0.328 -0.36 -0.412 -0.36 -0.179 0 -0.667 -0.461 -0.667 -0.629 0 -0.15 -0.479 -0.629 -0.629 -0.629 -0.15 0 -0.629 -0.479 -0.629 -0.629 0 -0.148 -0.478 -0.629 -0.625 -0.629 -0.186 0 -0.993 -0.87 -0.993 -1.07 0 -0.103 -0.087 -0.188 -0.193 -0.188 -0.255 0 -0.706 -0.46 -0.706 -0.719 0 -0.254 -1.72 -1.977 -1.974 -1.977 -0.101 0 -0.184 -0.121 -0.184 -0.27 0 -0.148 -0.081 -0.27 -0.18 -0.27 -0.099 0 -0.18 -0.127 -0.18 -0.282 0 -0.323 -0.42 -0.796 -0.706 -0.796 -0.106 0 -0.193 -0.103 -0.193 -0.23 0 -0.126 -0.162 -0.347 -0.36 -0.489 -0.198 -0.143 -0.36 -0.403 -0.36 -0.579 0 -0.176 -0.121 -0.32 -0.27 -0.32 -0.148 0 -0.27 -0.085 -0.27 -0.188 0 -0.244 -0.826 -1.07 -1.07 -1.07 -0.103 0 -0.188 -0.184 -0.188 -0.41 0 -0.225 -0.162 -0.526 -0.36 -0.669 -0.198 -0.143 -0.36 -0.444 -0.36 -0.669 0 -0.225 -0.087 -0.41 -0.193 -0.41 -0.286 0 -0.706 -0.473 -0.706 -0.796 0 -0.155 -0.081 -0.282 -0.18 -0.282 -0.099 0 -0.18 -0.121 -0.18 -0.27 0 -0.148 -0.121 -0.27 -0.27 -0.27 -0.148 0 -0.27 -0.144 -0.27 -0.32 0 -0.176 -0.162 -0.436 -0.36 -0.579 -0.198 -0.143 -0.36 -0.365 -0.36 -0.495 0 -0.13 -0.121 -0.282 -0.27 -0.339 -0.148 -0.057 -0.27 -0.216 -0.27 -0.354 0 -0.138 -0.081 -0.25 -0.18 -0.25 -0.099 0 -0.18 -0.168 -0.18 -0.372 0 -0.398 -0.389 -0.886 -0.706 -0.886 -0.106 0 -0.193 -0.162 -0.193 -0.36 0 -0.198 -0.081 -0.36 -0.18 -0.36 -0.099 0 -0.18 -0.202 -0.18 -0.449 0 -0.28 -0.102 -0.449 -0.27 -0.449 -0.15 0 -0.27 -0.16 -0.27 -0.36 0 -0.198 -0.081 -0.36 -0.18 -0.36 -0.099 0 -0.18 -0.121 -0.18 -0.27 0 -0.148 -0.081 -0.27 -0.18 -0.27 -0.099 0 -0.18 -0.162 -0.18 -0.36 0 -0.2 -0.12 -0.36 -0.27 -0.36 -0.168 0 -0.27 -0.17 -0.27 -0.449 0 -0.247 -0.081 -0.449 -0.18 -0.449 -0.099 0 -0.18 -0.162 -0.18 -0.36 0 -0.198 -0.081 -0.36 -0.18 -0.36 -0.099 0 -0.18 -0.202 -0.18 -0.449 0 -0.28 -0.102 -0.449 -0.27 -0.449 -0.15 0 -0.27 -0.16 -0.27 -0.36 0 -0.198 -0.081 -0.36 -0.18 -0.36 -0.099 0 -0.18 -0.202 -0.18 -0.449 0 -0.247 -0.081 -0.449 -0.18 -0.449 -0.099 0 -0.18 -0.162 -0.18 -0.36 0 -0.2 -0.12 -0.36 -0.27 -0.36 -0.168 0 -0.27 -0.17 -0.27 -0.449 0 -0.247 -0.081 -0.449 -0.18 -0.449 -0.099 0 -0.18 -0.162 -0.18 -0.36 0 -0.198 -0.081 -0.36 -0.18 -0.36 -0.099 0 -0.18 -0.202 -0.18 -0.449 0 -0.28 -0.102 -0.449 -0.27 -0.449 -0.188 0 -0.27 -0.19 -0.27 -0.629 0 -0.346 -0.081 -0.629 -0.18 -0.629 -0.099 0 -0.18 -0.162 -0.18 -0.36 0 -0.198 -0.081 -0.36 -0.18 -0.36 -0.099 0 -0.18 -0.283 -0.18 -0.629 0 -0.439 -0.081 -0.629 -0.27 -0.629 -0.168 0 -0.27 -0.17 -0.27 -0.449 0 -0.247 -0.081 -0.449 -0.18 -0.449 -0.099 0 -0.18 -0.243 -0.18 -0.539 0 -0.297 -0.081 -0.539 -0.18 -0.539 -0.099 0 -0.18 -0.202 -0.18 -0.449 0 -0.28 -0.102 -0.449 -0.27 -0.449 -0.188 0 -0.27 -0.19 -0.27 -0.629 0 -0.346 -0.081 -0.629 -0.18 -0.629 -0.099 0 -0.18 -0.243 -0.18 -0.539 0 -0.297 -0.081 -0.539 -0.18 -0.539 -0.099 0 -0.18 -0.283 -0.18 -0.629 0 -0.439 -0.081 -0.629 -0.27 -0.629 -0.188 0 -0.27 -0.19 -0.27 -0.629 0 -0.346 -0.081 -0.629 -0.18 -0.629 -0.099 0 -0.18 -0.364 -0.18 -0.809 0 -0.445 -0.081 -0.809 -0.18 -0.809 -0.099 0 -0.18 -0.364 -0.18 -0.809 0 -0.599 -0.07 -0.809 -0.27 -0.809 -0.2 0 -0.27 -0.21 -0.27 -0.809 0 -0.445 -0.081 -0.809 -0.18 -0.809 -0.099 0 -0.18 -0.364 -0.18 -0.809 0 -0.445 -0.081 -0.809 -0.18 -0.809 -0.099 0 -0.18 -0.445 -0.18 -0.989 0 -0.759 -0.063 -0.989 -0.27 -0.989 -0.21 0 -0.27 -0.24 -0.27 -1.079 0 -0.599 -0.08 -1.079 -0.18 -1.079 -0.101 0 -0.18 -0.509 -0.18 -1.169 0 -0.659 -0.078 -1.168 -0.18 -1.168 -0.105 0 -0.18 -0.595 -0.18 -1.425 0 -1.027 -0.075 -1.501 -0.27 -1.695 -0.204 -0.204 -0.27 -0.711 -0.27 -2.08 0 -1.087 -0.072 -1.811 -0.18 -1.811 -0.117 0 -0.18 -2.547 -0.18 -7.281 0 -4.734 0.063 -7.281 0.18 -7.281 0.109 0 0.18 -0.803 0.18 -2.048 0 -1.655 0.052 -2.068 0.27 -2.152 0.208 -0.08 0.27 -0.429 0.27 -1.537 0 -0.788 0.081 -1.483 0.18 -1.544 0.099 -0.061 0.18 -0.632 0.18 -1.269 0 -0.652 0.079 -1.158 0.18 -1.158 0.1 0 0.18 -0.473 0.18 -1.059 0 -0.776 0.072 -1.087 0.27 -1.163 0.185 -0.071 0.27 -0.36 0.27 -0.918 0 -0.448 0.081 -0.815 0.18 -0.815 0.099 0 0.18 -0.404 0.18 -0.899 0 -0.494 0.081 -0.899 0.18 -0.899 0.099 0 0.18 -0.364 0.18 -0.809 0 -0.599 0.07 -0.809 0.27 -0.809 0.2 0 0.27 -0.21 0.27 -0.809 0 -0.445 0.081 -0.809 0.18 -0.809 0.099 0 0.18 -0.243 0.18 -0.539 0 -0.297 0.081 -0.539 0.18 -0.539 0.099 0 0.18 -0.315 0.18 -0.7 0 -0.428 0.096 -0.737 0.247 -0.795 0.136 -0.052 0.301 -0.364 0.366 -0.693 0.28 -1.411 0.334 -1.587 0.486 -1.587 0.088 0 0.159 -0.283 0.159 -0.629 0 -0.439 0.081 -0.629 0.27 -0.629 0.18 0 0.27 -0.18 0.27 -0.539 0 -0.297 0.081 -0.539 0.18 -0.539 0.099 0 0.18 -0.283 0.18 -0.629 0 -0.346 0.081 -0.629 0.18 -0.629 0.099 0 0.18 -0.202 0.18 -0.449 0 -0.28 0.102 -0.449 0.27 -0.449 0.18 0 0.27 -0.18 0.27 -0.539 0 -0.297 0.081 -0.539 0.18 -0.539 0.099 0 0.18 -0.202 0.18 -0.449 0 -0.247 0.081 -0.449 0.18 -0.449 0.099 0 0.18 -0.153 0.18 -0.34 0 -0.187 0.121 -0.387 0.27 -0.444 0.158 -0.06 0.27 -0.33 0.27 -0.648 0 -0.3 0.081 -0.545 0.18 -0.545 0.099 0 0.18 -0.202 0.18 -0.449 0 -0.247 0.081 -0.449 0.18 -0.449 0.099 0 0.18 -0.162 0.18 -0.36 0 -0.2 0.12 -0.36 0.27 -0.36 0.168 0 0.27 -0.17 0.27 -0.449 0 -0.247 0.081 -0.449 0.18 -0.449 0.099 0 0.18 -0.162 0.18 -0.36 0 -0.198 0.081 -0.36 0.18 -0.36 0.099 0 0.18 -0.202 0.18 -0.449 0 -0.28 0.102 -0.449 0.27 -0.449 0.15 0 0.27 -0.16 0.27 -0.36 0 -0.198 0.081 -0.36 0.18 -0.36 0.099 0 0.18 -0.202 0.18 -0.449 0 -0.247 0.081 -0.449 0.18 -0.449 0.099 0 0.18 -0.162 0.18 -0.36 0 -0.2 0.12 -0.36 0.27 -0.36 0.148 0 0.27 -0.121 0.27 -0.27 0 -0.148 0.081 -0.27 0.18 -0.27 0.099 0 0.18 -0.162 0.18 -0.36 0 -0.198 0.081 -0.36 0.18 -0.36 0.099 0 0.18 -0.202 0.18 -0.449 0 -0.28 0.102 -0.449 0.27 -0.449 0.148 0 0.27 -0.143 0.27 -0.317 0 -0.174 0.202 -0.469 0.449 -0.654 0.247 -0.186 0.449 -0.488 0.449 -0.672 0 -0.184 0.081 -0.334 0.18 -0.334 0.099 0 0.18 -0.168 0.18 -0.372 0 -0.398 0.389 -0.886 0.706 -0.886 0.106 0 0.193 -0.162 0.193 -0.36 0 -0.198 0.081 -0.36 0.18 -0.36 0.099 0 0.18 -0.121 0.18 -0.27 0 -0.148 0.081 -0.27 0.18 -0.27 0.099 0 0.18 -0.162 0.18 -0.36 0 -0.198 0.087 -0.36 0.193 -0.36 0.291 0 0.706 -0.475 0.706 -0.809 0 -0.298 0.405 -0.809 0.641 -0.809 0.188 0 0.605 -0.591 0.611 -0.867 0.007 -0.288 0.446 -0.751 0.712 -0.751 0.106 0 0.193 -0.165 0.193 -0.368 0 -0.371 0.739 -1.25 1.051 -1.25 0.093 0 0.215 -0.187 0.273 -0.416 0.109 -0.433 0.692 -1.202 0.912 -1.202 0.195 0 0.64 -0.491 0.64 -0.706 0 -0.106 0.081 -0.193 0.18 -0.193 0.099 0 0.18 -0.162 0.18 -0.36 0 -0.2 0.12 -0.36 0.27 -0.36 0.148 0 0.27 -0.085 0.27 -0.188 0 -0.2 0.807 -1.07 0.993 -1.07 0.183 0 0.625 -0.499 0.625 -0.706 0 -0.106 0.081 -0.193 0.18 -0.193 0.099 0 0.18 -0.162 0.18 -0.36 0 -0.198 0.087 -0.36 0.193 -0.36 0.21 0 0.706 -0.443 0.706 -0.629 0 -0.148 0.478 -0.629 0.625 -0.629 0.186 0 0.993 -0.87 0.993 -1.07 0 -0.103 0.089 -0.188 0.198 -0.188 0.109 0 0.424 -0.243 0.701 -0.539 0.277 -0.297 0.593 -0.539 0.701 -0.539 0.109 0 0.198 -0.087 0.198 -0.193 0 -0.207 0.442 -0.706 0.625 -0.706 0.186 0 0.993 -0.87 0.993 -1.07 0 -0.103 0.085 -0.188 0.188 -0.188 0.103 0 0.383 -0.182 0.621 -0.404 0.691 -0.646 0.964 -0.854 1.122 -0.854 0.081 0 0.264 -0.162 0.407 -0.36 0.143 -0.198 0.328 -0.36 0.412 -0.36 0.179 0 0.667 -0.461 0.667 -0.629 0 -0.187 0.497 -0.629 0.706 -0.629 0.106 0 0.193 -0.081 0.193 -0.18 0 -0.099 0.162 -0.18 0.36 -0.18 0.198 0 0.36 -0.081 0.36 -0.18 0 -0.099 0.121 -0.18 0.27 -0.18 0.148 0 0.27 -0.085 0.27 -0.188 0 -0.294 0.85 -1.07 1.173 -1.07 0.33 0 0.804 -0.417 0.804 -0.706 0 -0.106 0.121 -0.193 0.27 -0.193 0.148 0 0.27 -0.081 0.27 -0.18 0 -0.099 0.162 -0.18 0.36 -0.18 0.198 0 0.36 -0.081 0.36 -0.18 0 -0.099 0.087 -0.18 0.193 -0.18 0.249 0 0.706 -0.457 0.706 -0.706 0 -0.106 0.184 -0.193 0.41 -0.193 0.225 0 0.526 -0.162 0.669 -0.36 0.143 -0.198 0.383 -0.362 0.534 -0.365 0.356 -0.007 0.904 -0.425 0.904 -0.688 0 -0.113 0.184 -0.205 0.41 -0.205 0.225 0 0.526 -0.162 0.669 -0.36 0.143 -0.198 0.444 -0.36 0.669 -0.36 0.225 0 0.41 -0.087 0.41 -0.193 0 -0.304 0.482 -0.706 0.846 -0.706 0.183 0 0.449 -0.162 0.592 -0.36 0.143 -0.198 0.444 -0.36 0.669 -0.36 0.244 0 0.41 -0.109 0.41 -0.27 0 -0.168 0.17 -0.27 0.449 -0.27 0.247 0 0.449 -0.081 0.449 -0.18 0 -0.099 0.162 -0.18 0.36 -0.18 0.198 0 0.36 -0.081 0.36 -0.18 0 -0.099 0.121 -0.18 0.27 -0.18 0.148 0 0.27 -0.081 0.27 -0.18 0 -0.099 0.162 -0.18 0.36 -0.18 0.2 0 0.36 -0.12 0.36 -0.27 0 -0.168 0.17 -0.27 0.449 -0.27 0.247 0 0.449 -0.081 0.449 -0.18 0 -0.099 0.202 -0.18 0.449 -0.18 0.247 0 0.449 -0.081 0.449 -0.18 0 -0.099 0.162 -0.18 0.36 -0.18 0.198 0 0.36 -0.081 0.36 -0.18 0 -0.099 0.202 -0.18 0.449 -0.18 0.28 0 0.449 -0.102 0.449 -0.27 0 -0.168 0.17 -0.27 0.449 -0.27 0.247 0 0.449 -0.081 0.449 -0.18 0 -0.099 0.162 -0.18 0.36 -0.18 0.198 0 0.36 -0.081 0.36 -0.18 0 -0.099 0.202 -0.18 0.449 -0.18 0.247 0 0.449 -0.081 0.449 -0.18 0 -0.099 0.202 -0.18 0.449 -0.18 0.28 0 0.449 -0.102 0.449 -0.27 0 -0.15 0.16 -0.27 0.36 -0.27 0.198 0 0.36 -0.081 0.36 -0.18 0 -0.099 0.283 -0.18 0.629 -0.18 0.346 0 0.629 -0.081 0.629 -0.18 0 -0.099 0.202 -0.18 0.449 -0.18 0.247 0 0.449 -0.081 0.449 -0.18 0 -0.099 0.202 -0.18 0.449 -0.18 0.28 0 0.449 -0.102 0.449 -0.27 0 -0.188 0.19 -0.27 0.629 -0.27 0.346 0 0.629 -0.081 0.629 -0.18 0 -0.099 0.202 -0.18 0.449 -0.18 0.247 0 0.449 -0.081 0.449 -0.18 0 -0.099 0.283 -0.18 0.629 -0.18 0.439 0 0.629 -0.081 0.629 -0.27 0 -0.188 0.19 -0.27 0.629 -0.27 0.346 0 0.629 -0.081 0.629 -0.18 0 -0.099 0.283 -0.18 0.629 -0.18 0.346 0 0.629 -0.081 0.629 -0.18 0 -0.099 0.283 -0.18 0.629 -0.18 0.346 0 0.629 -0.081 0.629 -0.18 0 -0.099 0.283 -0.18 0.629 -0.18 0.439 0 0.629 -0.081 0.629 -0.27 0 -0.2 0.21 -0.27 0.809 -0.27 0.445 0 0.809 -0.081 0.809 -0.18 0 -0.099 0.283 -0.18 0.629 -0.18 0.346 0 0.629 -0.081 0.629 -0.18 0 -0.099 0.364 -0.18 0.809 -0.18 0.445 0 0.809 -0.081 0.809 -0.18 0 -0.099 0.404 -0.18 0.899 -0.18 0.679 0 0.899 -0.066 0.899 -0.27 0 -0.2 0.21 -0.27 0.809 -0.27 0.445 0 0.809 -0.081 0.809 -0.18 0 -0.103 0.539 -0.18 1.258 -0.18 0.719 0 1.258 -0.077 1.258 -0.18 0 -0.1 0.479 -0.18 1.079 -0.18 0.599 0 1.079 -0.08 1.079 -0.18 0 -0.105 0.599 -0.18 1.438 -0.18 1.159 0 1.438 -0.052 1.438 -0.27 0 -0.223 0.33 -0.27 1.888 -0.27 1.139 0 1.888 -0.071 1.888 -0.18 0 -0.114 1.378 -0.18 3.775 -0.18 2.397 0 3.775 -0.066 3.775 -0.18 0 -0.105 0.599 -0.18 1.438 -0.18 0.839 0 1.438 0.075 1.438 0.18 0 0.115 1.468 0.18 4.045 0.18 2.577 0 4.045 0.065 4.045 0.18 0 0.107 0.689 0.18 1.708 0.18 1.398 0 1.708 0.049 1.708 0.27 0 0.218 0.288 0.27 1.517 0.27 0.835 0 1.567 0.081 1.629 0.18 0.061 0.099 0.592 0.18 1.179 0.18 0.592 0 1.068 0.08 1.068 0.18 0 0.1 0.479 0.18 1.079 0.18 0.599 0 1.079 0.08 1.079 0.18 0 0.099 0.355 0.18 0.79 0.18 0.536 0 0.823 0.087 0.893 0.27 0.075 0.195 0.38 0.27 1.098 0.27 0.547 0 0.994 0.081 0.994 0.18 0 0.099 0.364 0.18 0.809 0.18 0.445 0 0.809 0.081 0.809 0.18 0 0.099 0.283 0.18 0.629 0.18 0.346 0 0.629 0.081 0.629 0.18 0 0.099 0.289 0.18 0.642 0.18 0.353 0 0.763 0.121 0.912 0.27 0.148 0.148 0.547 0.27 0.886 0.27 0.339 0 0.616 0.081 0.616 0.18 0 0.099 0.283 0.18 0.629 0.18 0.346 0 0.629 0.081 0.629 0.18 0 0.099 0.283 0.18 0.629 0.18 0.346 0 0.629 0.081 0.629 0.18 0 0.099 0.283 0.18 0.629 0.18 0.439 0 0.629 0.081 0.629 0.27 0 0.188 0.19 0.27 0.629 0.27 0.346 0 0.629 0.081 0.629 0.18 0 0.099 0.162 0.18 0.36 0.18 0.198 0 0.36 0.081 0.36 0.18 0 0.099 0.283 0.18 0.629 0.18 0.599 0 0.629 0.03 0.629 0.629 0 0.346 -0.081 0.629 -0.18 0.629 -0.099 0 -0.18 0.202 -0.18 0.449 0 0.247 -0.081 0.449 -0.18 0.449 -0.099 0 -0.18 0.243 -0.18 0.539 0 0.36 -0.09 0.539 -0.27 0.539 -0.15 0 -0.27 0.16 -0.27 0.36 0 0.198 -0.081 0.36 -0.18 0.36 -0.099 0 -0.18 0.202 -0.18 0.449 0 0.247 -0.081 0.449 -0.18 0.449 -0.099 0 -0.18 0.283 -0.18 0.629 0 0.439 -0.081 0.629 -0.27 0.629 -0.15 0 -0.27 0.16 -0.27 0.36 0 0.198 -0.081 0.36 -0.18 0.36 -0.099 0 -0.18 0.202 -0.18 0.449 0 0.247 -0.081 0.449 -0.18 0.449 -0.099 0 -0.18 0.283 -0.18 0.629 0 0.439 -0.081 0.629 -0.27 0.629 -0.15 0 -0.27 0.16 -0.27 0.36 0 0.198 -0.081 0.36 -0.18 0.36 -0.099 0 -0.18 0.202 -0.18 0.449 0 0.247 -0.081 0.449 -0.18 0.449 -0.099 0 -0.18 0.243 -0.18 0.539 0 0.36 -0.09 0.539 -0.27 0.539 -0.168 0 -0.27 0.17 -0.27 0.449 0 0.247 -0.081 0.449 -0.18 0.449 -0.099 0 -0.18 0.202 -0.18 0.449 0 0.247 -0.081 0.449 -0.18 0.449 -0.099 0 -0.18 0.243 -0.18 0.539 0 0.36 -0.09 0.539 -0.27 0.539 -0.168 0 -0.27 0.17 -0.27 0.449 0 0.247 -0.081 0.449 -0.18 0.449 -0.099 0 -0.18 0.202 -0.18 0.449 0 0.247 -0.081 0.449 -0.18 0.449 -0.099 0 -0.18 0.243 -0.18 0.539 0 0.36 -0.09 0.539 -0.27 0.539 -0.15 0 -0.27 0.16 -0.27 0.36 0 0.198 -0.081 0.36 -0.18 0.36 -0.099 0 -0.18 0.243 -0.18 0.539 0 0.297 -0.081 0.539 -0.18 0.539 -0.099 0 -0.18 0.243 -0.18 0.539 0 0.36 -0.09 0.539 -0.27 0.539 -0.15 0 -0.27 0.16 -0.27 0.36 0 0.198 -0.081 0.36 -0.18 0.36 -0.099 0 -0.18 0.202 -0.18 0.449 0 0.247 -0.081 0.449 -0.18 0.449 -0.099 0 -0.18 0.283 -0.18 0.629 0 0.439 -0.081 0.629 -0.27 0.629 -0.15 0 -0.27 0.16 -0.27 0.36 0 0.198 -0.081 0.36 -0.18 0.36 -0.099 0 -0.18 0.202 -0.18 0.449 0 0.247 -0.081 0.449 -0.18 0.449 -0.099 0 -0.18 0.243 -0.18 0.539 0 0.36 -0.09 0.539 -0.27 0.539 -0.168 0 -0.27 0.17 -0.27 0.449 0 0.247 -0.081 0.449 -0.18 0.449 -0.099 0 -0.18 0.202 -0.18 0.449 0 0.247 -0.081 0.449 -0.18 0.449 -0.099 0 -0.18 0.243 -0.18 0.539 0 0.36 -0.09 0.539 -0.27 0.539 -0.168 0 -0.27 0.17 -0.27 0.449 0 0.247 -0.081 0.449 -0.18 0.449 -0.099 0 -0.18 0.202 -0.18 0.449 0 0.247 -0.081 0.449 -0.18 0.449 -0.099 0 -0.18 0.243 -0.18 0.539 0 0.36 -0.09 0.539 -0.27 0.539 -0.168 0 -0.27 0.17 -0.27 0.449 0 0.247 -0.081 0.449 -0.18 0.449 -0.099 0 -0.18 0.202 -0.18 0.449 0 0.247 -0.081 0.449 -0.18 0.449 -0.099 0 -0.18 0.243 -0.18 0.539 0 0.36 -0.09 0.539 -0.27 0.539 -0.15 0 -0.27 0.16 -0.27 0.36 0 0.198 -0.081 0.36 -0.18 0.36 -0.099 0 -0.18 0.168 -0.18 0.372 0 0.205 -0.121 0.494 -0.27 0.642 -0.148 0.148 -0.27 0.466 -0.27 0.706 0 0.24 -0.081 0.437 -0.18 0.437 -0.099 0 -0.18 0.162 -0.18 0.36 0 0.198 -0.081 0.36 -0.18 0.36 -0.099 0 -0.18 0.168 -0.18 0.372 0 0.205 -0.121 0.494 -0.27 0.642 -0.148 0.148 -0.27 0.466 -0.27 0.706 0 0.24 -0.081 0.437 -0.18 0.437 -0.099 0 -0.18 0.162 -0.18 0.36 0 0.198 -0.081 0.36 -0.18 0.36 -0.099 0 -0.18 0.168 -0.18 0.372 0 0.205 -0.121 0.494 -0.27 0.642 -0.148 0.148 -0.27 0.426 -0.27 0.616 0 0.191 -0.081 0.347 -0.18 0.347 -0.099 0 -0.18 0.202 -0.18 0.449 0 0.247 -0.081 0.449 -0.18 0.449 -0.099 0 -0.18 0.168 -0.18 0.372 0 0.205 -0.121 0.494 -0.27 0.642 -0.148 0.148 -0.27 0.426 -0.27 0.616 0 0.191 -0.081 0.347 -0.18 0.347 -0.099 0 -0.18 0.202 -0.18 0.449 0 0.247 -0.081 0.449 -0.18 0.449 -0.099 0 -0.18 0.168 -0.18 0.372 0 0.205 -0.121 0.494 -0.27 0.642 -0.148 0.148 -0.27 0.426 -0.27 0.616 0 0.191 -0.081 0.347 -0.18 0.347 -0.099 0 -0.18 0.202 -0.18 0.449 0 0.247 -0.081 0.449 -0.18 0.449 -0.099 0 -0.18 0.194 -0.18 0.43 0 0.237 -0.121 0.477 -0.27 0.534 -0.148 0.057 -0.27 0.308 -0.27 0.559 0 0.25 -0.081 0.455 -0.18 0.455 -0.099 0 -0.18 0.162 -0.18 0.36 0 0.198 -0.081 0.36 -0.18 0.36 -0.099 0 -0.18 0.168 -0.18 0.372 0 0.205 -0.121 0.494 -0.27 0.642 -0.148 0.148 -0.27 0.466 -0.27 0.706 0 0.24 -0.081 0.437 -0.18 0.437 -0.099 0 -0.18 0.162 -0.18 0.36 0 0.198 -0.081 0.36 -0.18 0.36 -0.099 0 -0.18 0.168 -0.18 0.372 0 0.205 -0.121 0.494 -0.27 0.642 -0.148 0.148 -0.27 0.426 -0.27 0.616 0 0.191 -0.081 0.347 -0.18 0.347 -0.099 0 -0.18 0.202 -0.18 0.449 0 0.247 -0.081 0.449 -0.18 0.449 -0.099 0 -0.18 0.168 -0.18 0.372 0 0.205 -0.121 0.494 -0.27 0.642 -0.148 0.148 -0.27 0.426 -0.27 0.616 0 0.191 -0.081 0.347 -0.18 0.347 -0.099 0 -0.18 0.202 -0.18 0.449 0 0.247 -0.081 0.449 -0.18 0.449 -0.099 0 -0.18 0.168 -0.18 0.372 0 0.205 -0.121 0.494 -0.27 0.642 -0.148 0.148 -0.27 0.426 -0.27 0.616 0 0.191 -0.081 0.347 -0.18 0.347 -0.099 0 -0.18 0.202 -0.18 0.449 0 0.247 -0.081 0.449 -0.18 0.449 -0.099 0 -0.18 0.194 -0.18 0.43 0 0.237 -0.121 0.477 -0.27 0.534 -0.148 0.057 -0.27 0.308 -0.27 0.559 0 0.25 -0.081 0.455 -0.18 0.455 -0.099 0 -0.18 0.162 -0.18 0.36 0 0.198 -0.081 0.36 -0.18 0.36 -0.099 0 -0.18 0.234 -0.18 0.52 0 0.296 -0.116 0.565 -0.27 0.624 -0.148 0.057 -0.27 0.308 -0.27 0.559 0 0.25 -0.081 0.455 -0.18 0.455 -0.099 0 -0.18 0.162 -0.18 0.36 0 0.198 -0.081 0.36 -0.18 0.36 -0.099 0 -0.18 0.168 -0.18 0.372 0 0.205 -0.121 0.494 -0.27 0.642 -0.148 0.148 -0.27 0.466 -0.27 0.706 0 0.24 -0.081 0.437 -0.18 0.437 -0.099 0 -0.18 0.162 -0.18 0.36 0 0.198 -0.081 0.36 -0.18 0.36 -0.099 0 -0.18 0.168 -0.18 0.372 0 0.205 -0.121 0.494 -0.27 0.642 -0.148 0.148 -0.27 0.426 -0.27 0.616 0 0.191 -0.081 0.347 -0.18 0.347 -0.099 0 -0.18 0.202 -0.18 0.449 0 0.28 -0.102 0.449 -0.27 0.449 -0.148 0 -0.27 0.123 -0.27 0.272 0 0.436 -0.434 1.705 -0.583 1.705 -0.075 0 -0.136 0.202 -0.136 0.449 0 0.28 -0.102 0.449 -0.27 0.449 -0.148 0 -0.27 0.123 -0.27 0.272 0 0.436 -0.434 1.705 -0.583 1.705 -0.075 0 -0.136 0.202 -0.136 0.449 0 0.28 -0.102 0.449 -0.27 0.449 -0.166 0 -0.27 0.169 -0.27 0.439 0 0.241 -0.081 0.489 -0.18 0.55 -0.099 0.061 -0.18 0.309 -0.18 0.55 0 0.241 -0.081 0.439 -0.18 0.439 -0.099 0 -0.18 0.162 -0.18 0.36 0 0.198 -0.112 0.36 -0.249 0.36 -0.137 0 -0.296 0.222 -0.353 0.494 -0.057 0.272 -0.156 0.757 -0.221 1.079 -0.064 0.321 -0.189 0.584 -0.276 0.584 -0.088 0 -0.159 0.162 -0.159 0.36 0 0.198 -0.112 0.36 -0.249 0.36 -0.137 0 -0.296 0.222 -0.353 0.494 -0.057 0.272 -0.156 0.757 -0.221 1.079 -0.064 0.321 -0.189 0.584 -0.276 0.584 -0.088 0 -0.159 0.162 -0.159 0.36 0 0.2 -0.12 0.36 -0.27 0.36 -0.148 0 -0.27 0.123 -0.27 0.272 0 0.436 -0.434 1.705 -0.583 1.705 -0.075 0 -0.136 0.202 -0.136 0.449 0 0.28 -0.102 0.449 -0.27 0.449 -0.168 0 -0.27 0.17 -0.27 0.449 0 0.247 -0.081 0.449 -0.18 0.449 -0.099 0 -0.18 0.243 -0.18 0.539 0 0.297 -0.081 0.539 -0.18 0.539 -0.099 0 -0.18 0.202 -0.18 0.449 0 0.28 -0.102 0.449 -0.27 0.449 -0.15 0 -0.27 0.16 -0.27 0.36 0 0.198 -0.081 0.36 -0.18 0.36 -0.099 0 -0.18 0.283 -0.18 0.629 0 0.346 -0.081 0.629 -0.18 0.629 -0.099 0 -0.18 0.202 -0.18 0.449 0 0.28 -0.102 0.449 -0.27 0.449 -0.15 0 -0.27 0.16 -0.27 0.36 0 0.198 -0.081 0.36 -0.18 0.36 -0.099 0 -0.18 0.283 -0.18 0.629 0 0.346 -0.081 0.629 -0.18 0.629 -0.099 0 -0.18 0.162 -0.18 0.36 0 0.2 -0.12 0.36 -0.27 0.36 -0.168 0 -0.27 0.17 -0.27 0.449 0 0.247 -0.081 0.449 -0.18 0.449 -0.099 0 -0.18 0.283 -0.18 0.629 0 0.346 -0.081 0.629 -0.18 0.629 -0.099 0 -0.18 0.162 -0.18 0.36 0 0.2 -0.12 0.36 -0.27 0.36 -0.168 0 -0.27 0.17 -0.27 0.449 0 0.247 -0.081 0.449 -0.18 0.449 -0.099 0 -0.18 0.243 -0.18 0.539 0 0.297 -0.081 0.539 -0.18 0.539 -0.099 0 -0.18 0.202 -0.18 0.449 0 0.28 -0.102 0.449 -0.27 0.449 -0.168 0 -0.27 0.17 -0.27 0.449 0 0.247 -0.081 0.449 -0.18 0.449 -0.099 0 -0.18 0.243 -0.18 0.539 0 0.297 -0.081 0.539 -0.18 0.539 -0.099 0 -0.18 0.202 -0.18 0.449 0 0.28 -0.102 0.449 -0.27 0.449 -0.168 0 -0.27 0.17 -0.27 0.449 0 0.247 -0.081 0.449 -0.18 0.449 -0.099 0 -0.18 0.243 -0.18 0.539 0 0.36 -0.09 0.539 -0.27 0.539 -0.168 0 -0.27 0.17 -0.27 0.449 0 0.247 -0.081 0.449 -0.18 0.449 -0.099 0 -0.18 0.202 -0.18 0.449 0 0.247 -0.081 0.449 -0.18 0.449 -0.099 0 -0.18 0.243 -0.18 0.539 0 0.36 -0.09 0.539 -0.27 0.539 -0.15 0 -0.27 0.16 -0.27 0.36 0 0.198 -0.081 0.36 -0.18 0.36 -0.099 0 -0.18 0.243 -0.18 0.539 0 0.297 -0.081 0.539 -0.18 0.539 -0.099 0 -0.18 0.243 -0.18 0.539 0 0.36 -0.09 0.539 -0.27 0.539 -0.15 0 -0.27 0.16 -0.27 0.36 0 0.198 -0.081 0.36 -0.18 0.36 -0.099 0 -0.18 0.202 -0.18 0.449 0 0.247 -0.081 0.449 -0.18 0.449 -0.099 0 -0.18 0.283 -0.18 0.629 0 0.439 -0.081 0.629 -0.27 0.629 -0.15 0 -0.27 0.16 -0.27 0.36 0 0.198 -0.081 0.36 -0.18 0.36 -0.099 0 -0.18 0.202 -0.18 0.449 0 0.247 -0.081 0.449 -0.18 0.449 -0.099 0 -0.18 0.243 -0.18 0.539 0 0.36 -0.09 0.539 -0.27 0.539 -0.168 0 -0.27 0.17 -0.27 0.449 0 0.247 -0.081 0.449 -0.18 0.449 -0.099 0 -0.18 0.162 -0.18 0.36 0 0.198 -0.081 0.36 -0.18 0.36 -0.099 0 -0.18 0.283 -0.18 0.629 0 0.439 -0.081 0.629 -0.27 0.629 -0.168 0 -0.27 0.17 -0.27 0.449 0 0.247 -0.081 0.449 -0.18 0.449 -0.099 0 -0.18 0.162 -0.18 0.36 0 0.198 -0.081 0.36 -0.18 0.36 -0.099 0 -0.18 0.283 -0.18 0.629 0 0.439 -0.081 0.629 -0.27 0.629 -0.168 0 -0.27 0.17 -0.27 0.449 0 0.247 -0.081 0.449 -0.18 0.449 -0.099 0 -0.18 0.162 -0.18 0.36 0 0.198 -0.081 0.36 -0.18 0.36 -0.099 0 -0.18 0.283 -0.18 0.629 0 0.439 -0.081 0.629 -0.27 0.629 -0.15 0 -0.27 0.16 -0.27 0.36 0 0.198 -0.081 0.36 -0.18 0.36 -0.099 0 -0.18 0.202 -0.18 0.449 0 0.247 -0.081 0.449 -0.18 0.449 -0.099 0 -0.18 0.283 -0.18 0.629 0 0.439 -0.081 0.629 -0.27 0.629 -0.15 0 -0.27 0.16 -0.27 0.36 0 0.198 -0.081 0.36 -0.18 0.36 -0.099 0 -0.18 0.202 -0.18 0.449 0 0.247 -0.081 0.449 -0.18 0.449 -0.099 0 -0.18 0.283 -0.18 0.629 0 0.439 -0.081 0.629 -0.27 0.629 -0.15 0 -0.27 0.16 -0.27 0.36 0 0.198 -0.081 0.36 -0.18 0.36 -0.099 0 -0.18 0.202 -0.18 0.449 0 0.247 -0.081 0.449 -0.18 0.449 -0.099 0 -0.18 0.243 -0.18 0.539 0 0.36 -0.09 0.539 -0.27 0.539 -0.168 0 -0.27 0.17 -0.27 0.449 0 0.247 -0.081 0.449 -0.18 0.449 -0.099 0 -0.18 0.162 -0.18 0.36 0 0.198 -0.081 0.36 -0.18 0.36 -0.099 0 -0.18 0.283 -0.18 0.629 0 0.439 -0.081 0.629 -0.27 0.629 -0.168 0 -0.27 0.17 -0.27 0.449 0 0.247 -0.081 0.449 -0.18 0.449 -0.099 0 -0.18 0.162 -0.18 0.36 0 0.198 -0.081 0.36 -0.18 0.36 -0.099 0 -0.18 0.283 -0.18 0.629 0 0.439 -0.081 0.629 -0.27 0.629 -0.168 0 -0.27 0.17 -0.27 0.449 0 0.247 -0.081 0.449 -0.18 0.449 -0.099 0 -0.18 0.153 -0.18 0.34 0 0.187 -0.121 0.387 -0.27 0.444 -0.158 0.06 -0.27 0.33 -0.27 0.648 0 0.3 -0.081 0.545 -0.18 0.545 -0.099 0 -0.18 0.162 -0.18 0.36 0 0.198 -0.081 0.36 -0.18 0.36 -0.099 0 -0.18 0.202 -0.18 0.449 0 0.28 -0.102 0.449 -0.27 0.449 -0.188 0 -0.27 0.19 -0.27 0.629 0 0.346 -0.081 0.629 -0.18 0.629 -0.099 0 -0.18 0.162 -0.18 0.36 0 0.198 -0.081 0.36 -0.18 0.36 -0.099 0 -0.18 0.202 -0.18 0.449 0 0.28 -0.102 0.449 -0.27 0.449 -0.18 0 -0.27 0.18 -0.27 0.539 0 0.297 -0.081 0.539 -0.18 0.539 -0.099 0 -0.18 0.202 -0.18 0.449 0 0.247 -0.081 0.449 -0.18 0.449 -0.099 0 -0.18 0.202 -0.18 0.449 0 0.28 -0.102 0.449 -0.27 0.449 -0.18 0 -0.27 0.18 -0.27 0.539 0 0.297 -0.081 0.539 -0.18 0.539 -0.099 0 -0.18 0.202 -0.18 0.449 0 0.247 -0.081 0.449 -0.18 0.449 -0.099 0 -0.18 0.153 -0.18 0.34 0 0.187 -0.121 0.387 -0.27 0.444 -0.158 0.06 -0.27 0.33 -0.27 0.648 0 0.3 -0.081 0.545 -0.18 0.545 -0.099 0 -0.18 0.202 -0.18 0.449 0 0.247 -0.081 0.449 -0.18 0.449 -0.099 0 -0.18 0.153 -0.18 0.34 0 0.187 -0.121 0.387 -0.27 0.444 -0.158 0.06 -0.27 0.33 -0.27 0.648 0 0.3 -0.081 0.545 -0.18 0.545 -0.099 0 -0.18 0.162 -0.18 0.36 0 0.198 -0.081 0.36 -0.18 0.36 -0.099 0 -0.18 0.194 -0.18 0.43 0 0.237 -0.121 0.477 -0.27 0.534 -0.158 0.06 -0.27 0.33 -0.27 0.648 0 0.3 -0.081 0.545 -0.18 0.545 -0.099 0 -0.18 0.162 -0.18 0.36 0 0.198 -0.081 0.36 -0.18 0.36 -0.099 0 -0.18 0.202 -0.18 0.449 0 0.28 -0.102 0.449 -0.27 0.449 -0.188 0 -0.27 0.19 -0.27 0.629 0 0.346 -0.081 0.629 -0.18 0.629 -0.099 0 -0.18 0.162 -0.18 0.36 0 0.198 -0.081 0.36 -0.18 0.36 -0.099 0 -0.18 0.202 -0.18 0.449 0 0.28 -0.102 0.449 -0.27 0.449 -0.18 0 -0.27 0.18 -0.27 0.539 0 0.297 -0.081 0.539 -0.18 0.539 -0.099 0 -0.18 0.202 -0.18 0.449 0 0.247 -0.081 0.449 -0.18 0.449 -0.099 0 -0.18 0.153 -0.18 0.34 0 0.187 -0.121 0.387 -0.27 0.444 -0.158 0.06 -0.27 0.33 -0.27 0.648 0 0.3 -0.081 0.545 -0.18 0.545 -0.099 0 -0.18 0.168 -0.18 0.372 0 0.205 -0.116 0.488 -0.257 0.629 -0.293 0.293 -1 0.348 -1 0.077 z m -1.618 -12.584 c 0 -0.099 0.283 -0.18 0.629 -0.18 0.346 0 0.629 -0.081 0.629 -0.18 0 -0.099 0.202 -0.18 0.449 -0.18 0.247 0 0.449 -0.081 0.449 -0.18 0 -0.099 0.162 -0.18 0.36 -0.18 0.2 0 0.36 -0.12 0.36 -0.27 0 -0.148 0.087 -0.27 0.193 -0.27 0.286 0 0.706 -0.473 0.706 -0.796 0 -0.155 0.081 -0.282 0.18 -0.282 0.099 0 0.18 -0.087 0.18 -0.193 0 -0.106 0.121 -0.314 0.27 -0.462 0.148 -0.148 0.27 -0.426 0.27 -0.616 0 -0.191 0.081 -0.347 0.18 -0.347 0.099 0 0.18 -0.202 0.18 -0.449 0 -0.247 0.081 -0.449 0.18 -0.449 0.099 0 0.18 -0.153 0.18 -0.34 0 -0.187 0.121 -0.387 0.27 -0.444 0.158 -0.06 0.27 -0.33 0.27 -0.648 0 -0.3 0.081 -0.545 0.18 -0.545 0.099 0 0.18 -0.202 0.18 -0.449 0 -0.247 0.081 -0.449 0.18 -0.449 0.099 0 0.18 -0.162 0.18 -0.36 0 -0.2 0.12 -0.36 0.27 -0.36 0.168 0 0.27 -0.17 0.27 -0.449 0 -0.247 0.081 -0.449 0.18 -0.449 0.099 0 0.18 -0.283 0.18 -0.629 0 -0.439 0.081 -0.629 0.27 -0.629 0.15 0 0.27 -0.16 0.27 -0.36 0 -0.198 0.081 -0.36 0.18 -0.36 0.099 0 0.18 -0.202 0.18 -0.449 0 -0.247 0.081 -0.449 0.18 -0.449 0.099 0 0.18 -0.243 0.18 -0.539 0 -0.36 0.09 -0.539 0.27 -0.539 0.168 0 0.27 -0.17 0.27 -0.449 0 -0.247 0.081 -0.449 0.18 -0.449 0.099 0 0.18 -0.162 0.18 -0.36 0 -0.198 0.081 -0.36 0.18 -0.36 0.099 0 0.18 -0.283 0.18 -0.629 0 -0.439 0.081 -0.629 0.27 -0.629 0.168 0 0.27 -0.17 0.27 -0.449 0 -0.247 0.081 -0.449 0.18 -0.449 0.099 0 0.18 -0.162 0.18 -0.36 0 -0.198 0.081 -0.36 0.18 -0.36 0.099 0 0.18 -0.283 0.18 -0.629 0 -0.439 0.081 -0.629 0.27 -0.629 0.168 0 0.27 -0.17 0.27 -0.449 0 -0.247 0.081 -0.449 0.18 -0.449 0.099 0 0.18 -0.162 0.18 -0.36 0 -0.198 0.081 -0.36 0.18 -0.36 0.099 0 0.18 -0.168 0.18 -0.372 0 -0.205 0.121 -0.494 0.27 -0.642 0.148 -0.148 0.27 -0.426 0.27 -0.616 0 -0.191 0.081 -0.347 0.18 -0.347 0.099 0 0.18 -0.202 0.18 -0.449 0 -0.247 0.081 -0.449 0.18 -0.449 0.099 0 0.18 -0.168 0.18 -0.372 0 -0.205 0.121 -0.494 0.27 -0.642 0.148 -0.148 0.27 -0.426 0.27 -0.616 0 -0.191 0.081 -0.347 0.18 -0.347 0.099 0 0.18 -0.202 0.18 -0.449 0 -0.247 0.081 -0.449 0.18 -0.449 0.099 0 0.18 -0.153 0.18 -0.34 0 -0.187 0.121 -0.387 0.27 -0.444 0.158 -0.06 0.27 -0.33 0.27 -0.648 0 -0.3 0.081 -0.545 0.18 -0.545 0.099 0 0.18 -0.202 0.18 -0.449 0 -0.247 0.081 -0.449 0.18 -0.449 0.099 0 0.18 -0.153 0.18 -0.34 0 -0.187 0.121 -0.387 0.27 -0.444 0.158 -0.06 0.27 -0.33 0.27 -0.648 0 -0.3 0.081 -0.545 0.18 -0.545 0.099 0 0.18 -0.162 0.18 -0.36 0 -0.198 0.081 -0.36 0.18 -0.36 0.099 0 0.18 -0.202 0.18 -0.449 0 -0.28 0.102 -0.449 0.27 -0.449 0.168 0 0.27 -0.17 0.27 -0.449 0 -0.247 0.081 -0.449 0.18 -0.449 0.099 0 0.18 -0.243 0.18 -0.539 0 -0.297 0.081 -0.539 0.18 -0.539 0.099 0 0.18 -0.202 0.18 -0.449 0 -0.28 0.102 -0.449 0.27 -0.449 0.168 0 0.27 -0.17 0.27 -0.449 0 -0.247 0.081 -0.449 0.18 -0.449 0.099 0 0.18 -0.243 0.18 -0.539 0 -0.297 0.081 -0.539 0.18 -0.539 0.099 0 0.18 -0.202 0.18 -0.449 0 -0.28 0.102 -0.449 0.27 -0.449 0.15 0 0.27 -0.16 0.27 -0.36 0 -0.198 0.081 -0.36 0.18 -0.36 0.099 0 0.18 -0.283 0.18 -0.629 0 -0.346 0.081 -0.629 0.18 -0.629 0.099 0 0.18 -0.162 0.18 -0.36 0 -0.2 0.12 -0.36 0.27 -0.36 0.168 0 0.27 -0.17 0.27 -0.449 0 -0.247 0.081 -0.449 0.18 -0.449 0.099 0 0.18 -0.283 0.18 -0.629 0 -0.346 0.081 -0.629 0.18 -0.629 0.099 0 0.18 -0.162 0.18 -0.36 0 -0.2 0.12 -0.36 0.27 -0.36 0.168 0 0.27 -0.17 0.27 -0.449 0 -0.247 0.081 -0.449 0.18 -0.449 0.099 0 0.18 -0.194 0.18 -0.43 0 -0.237 0.121 -0.477 0.27 -0.534 0.148 -0.057 0.27 -0.308 0.27 -0.559 0 -0.25 0.081 -0.455 0.18 -0.455 0.099 0 0.18 -0.202 0.18 -0.449 0 -0.247 0.081 -0.449 0.18 -0.449 0.099 0 0.18 -0.194 0.18 -0.43 0 -0.237 0.121 -0.477 0.27 -0.534 0.148 -0.057 0.27 -0.308 0.27 -0.559 0 -0.25 0.081 -0.455 0.18 -0.455 0.099 0 0.18 -0.162 0.18 -0.36 0 -0.198 0.081 -0.36 0.18 -0.36 0.099 0 0.18 -0.202 0.18 -0.449 0 -0.28 0.102 -0.449 0.27 -0.449 0.188 0 0.27 -0.19 0.27 -0.629 0 -0.346 0.081 -0.629 0.18 -0.629 0.099 0 0.18 -0.162 0.18 -0.36 0 -0.198 0.081 -0.36 0.18 -0.36 0.099 0 0.18 -0.202 0.18 -0.449 0 -0.28 0.102 -0.449 0.27 -0.449 0.18 0 0.27 -0.18 0.27 -0.539 0 -0.297 0.081 -0.539 0.18 -0.539 0.099 0 0.18 -0.202 0.18 -0.449 0 -0.247 0.081 -0.449 0.18 -0.449 0.324 0 0.188 -0.813 -0.18 -1.079 -0.198 -0.143 -0.36 -0.363 -0.36 -0.489 0 -0.126 -0.089 -0.23 -0.198 -0.23 -0.109 0 -0.424 -0.243 -0.701 -0.539 -0.277 -0.297 -0.593 -0.539 -0.701 -0.539 -0.109 0 -0.198 -0.085 -0.198 -0.188 0 -0.103 -0.182 -0.383 -0.404 -0.621 -0.646 -0.691 -0.854 -0.964 -0.854 -1.122 0 -0.081 -0.162 -0.264 -0.36 -0.407 -0.198 -0.143 -0.36 -0.403 -0.36 -0.579 0 -0.176 -0.121 -0.32 -0.27 -0.32 -0.148 0 -0.27 -0.087 -0.27 -0.193 0 -0.21 -0.443 -0.706 -0.629 -0.706 -0.187 0 -0.629 0.497 -0.629 0.706 0 0.106 -0.202 0.193 -0.449 0.193 -0.247 0 -0.449 0.081 -0.449 0.18 0 0.099 -0.202 0.18 -0.449 0.18 -0.247 0 -0.449 0.076 -0.449 0.168 0 0.093 -0.283 0.271 -0.629 0.396 -0.346 0.125 -0.629 0.333 -0.629 0.461 0 0.128 -0.162 0.234 -0.36 0.234 -0.198 0 -0.36 0.081 -0.36 0.18 0 0.099 -0.184 0.18 -0.41 0.18 -0.225 0 -0.526 0.162 -0.669 0.36 -0.143 0.198 -0.444 0.36 -0.669 0.36 -0.244 0 -0.41 0.109 -0.41 0.27 0 0.161 -0.165 0.27 -0.41 0.27 -0.225 0 -0.526 0.162 -0.669 0.36 -0.143 0.198 -0.444 0.36 -0.669 0.36 -0.225 0 -0.41 0.081 -0.41 0.18 0 0.099 -0.15 0.18 -0.334 0.18 -0.184 0 -0.486 0.202 -0.672 0.449 -0.186 0.248 -0.52 0.449 -0.744 0.449 -0.224 0 -0.407 0.081 -0.407 0.18 0 0.099 -0.162 0.18 -0.36 0.18 -0.198 0 -0.36 0.081 -0.36 0.18 0 0.099 -0.121 0.18 -0.27 0.18 -0.148 0 -0.27 0.121 -0.27 0.27 0 0.15 -0.16 0.27 -0.36 0.27 -0.198 0 -0.36 0.081 -0.36 0.18 0 0.099 -0.168 0.18 -0.372 0.18 -0.398 0 -0.886 0.389 -0.886 0.706 0 0.106 -0.202 0.193 -0.449 0.193 -0.247 0 -0.449 0.081 -0.449 0.18 0 0.099 -0.202 0.18 -0.449 0.18 -0.247 0 -0.449 0.076 -0.449 0.168 0 0.093 -0.283 0.271 -0.629 0.396 -0.346 0.125 -0.629 0.333 -0.629 0.461 0 0.128 -0.162 0.234 -0.36 0.234 -0.198 0 -0.36 0.081 -0.36 0.18 0 0.099 -0.184 0.18 -0.41 0.18 -0.225 0 -0.526 0.162 -0.669 0.36 -0.143 0.198 -0.444 0.36 -0.669 0.36 -0.244 0 -0.41 0.109 -0.41 0.27 0 0.15 -0.16 0.27 -0.36 0.27 -0.198 0 -0.36 0.081 -0.36 0.18 0 0.099 -0.121 0.18 -0.27 0.18 -0.148 0 -0.27 0.081 -0.27 0.18 0 0.099 -0.165 0.18 -0.367 0.18 -0.343 0 -0.515 0.1 -1.154 0.674 -0.138 0.124 -0.337 0.225 -0.443 0.225 -0.106 0 -0.193 0.081 -0.193 0.18 0 0.099 -0.162 0.18 -0.36 0.18 -0.198 0 -0.36 0.068 -0.36 0.151 0 0.083 -0.324 0.258 -0.719 0.388 -0.395 0.131 -0.719 0.346 -0.719 0.478 0 0.132 -0.162 0.241 -0.36 0.241 -0.198 0 -0.36 0.081 -0.36 0.18 0 0.099 -0.121 0.18 -0.27 0.18 -0.148 0 -0.27 0.081 -0.27 0.18 0 0.099 -0.162 0.18 -0.36 0.18 -0.198 0 -0.36 0.081 -0.36 0.18 0 0.099 -0.202 0.18 -0.449 0.18 -0.247 0 -0.449 0.087 -0.449 0.193 0 0.317 -0.488 0.706 -0.886 0.706 -0.205 0 -0.372 0.081 -0.372 0.18 0 0.099 -0.202 0.18 -0.449 0.18 -0.247 0 -0.449 0.087 -0.449 0.193 0 0.317 -0.488 0.706 -0.886 0.706 -0.205 0 -0.372 0.081 -0.372 0.18 0 0.099 -0.162 0.18 -0.36 0.18 -0.198 0 -0.36 0.081 -0.36 0.18 0 0.099 -0.121 0.18 -0.27 0.18 -0.148 0 -0.27 0.121 -0.27 0.27 0 0.15 -0.16 0.27 -0.36 0.27 -0.198 0 -0.36 0.081 -0.36 0.18 0 0.099 -0.184 0.18 -0.41 0.18 -0.225 0 -0.526 0.162 -0.669 0.36 -0.143 0.198 -0.444 0.36 -0.669 0.36 -0.244 0 -0.41 0.109 -0.41 0.27 0 0.161 -0.165 0.27 -0.41 0.27 -0.225 0 -0.526 0.162 -0.669 0.36 -0.143 0.198 -0.409 0.36 -0.592 0.36 -0.365 0 -0.846 0.402 -0.846 0.706 0 0.106 -0.202 0.193 -0.449 0.193 -0.247 0 -0.449 0.081 -0.449 0.18 0 0.099 -0.162 0.18 -0.36 0.18 -0.198 0 -0.36 0.081 -0.36 0.18 0 0.099 -0.121 0.18 -0.27 0.18 -0.148 0 -0.27 0.081 -0.27 0.18 0 0.099 -0.15 0.18 -0.334 0.18 -0.184 0 -0.486 0.202 -0.672 0.449 -0.186 0.247 -0.503 0.449 -0.705 0.449 -0.202 0 -0.484 0.162 -0.626 0.36 -0.143 0.198 -0.444 0.36 -0.669 0.36 -0.244 0 -0.41 0.109 -0.41 0.27 0 0.15 -0.16 0.27 -0.36 0.27 -0.198 0 -0.36 0.081 -0.36 0.18 0 0.099 -0.121 0.18 -0.27 0.18 -0.148 0 -0.27 0.081 -0.27 0.18 0 0.099 -0.162 0.18 -0.36 0.18 -0.2 0 -0.36 0.12 -0.36 0.27 0 0.148 -0.121 0.27 -0.27 0.27 -0.148 0 -0.27 0.081 -0.27 0.18 0 0.099 -0.162 0.18 -0.36 0.18 -0.198 0 -0.36 0.081 -0.36 0.18 0 0.099 -0.121 0.18 -0.27 0.18 -0.148 0 -0.27 0.081 -0.27 0.18 0 0.099 -0.162 0.18 -0.36 0.18 -0.2 0 -0.36 0.12 -0.36 0.27 0 0.161 -0.165 0.27 -0.41 0.27 -0.225 0 -0.526 0.162 -0.669 0.36 -0.143 0.198 -0.409 0.36 -0.592 0.36 -0.365 0 -0.846 0.402 -0.846 0.706 0 0.106 -0.184 0.193 -0.41 0.193 -0.225 0 -0.526 0.162 -0.669 0.36 -0.143 0.198 -0.363 0.36 -0.489 0.36 -0.126 0 -0.23 0.075 -0.23 0.168 0 0.092 -0.162 0.219 -0.36 0.282 -0.198 0.063 -0.36 0.27 -0.36 0.462 0 0.191 -0.121 0.347 -0.27 0.347 -0.148 0 -0.27 0.121 -0.27 0.27 0 0.148 -0.081 0.27 -0.18 0.27 -0.099 0 -0.18 0.243 -0.18 0.539 0 0.297 -0.081 0.539 -0.18 0.539 -0.109 0 -0.18 0.809 -0.18 2.067 0 1.258 0.07 2.067 0.18 2.067 0.099 0 0.18 0.283 0.18 0.629 0 0.346 0.081 0.629 0.18 0.629 0.099 0 0.18 0.283 0.18 0.629 0 0.439 0.081 0.629 0.27 0.629 0.18 0 0.27 0.18 0.27 0.539 0 0.297 0.081 0.539 0.18 0.539 0.099 0 0.18 0.162 0.18 0.36 0 0.198 0.081 0.36 0.18 0.36 0.099 0 0.18 0.121 0.18 0.27 0 0.148 0.121 0.27 0.27 0.27 0.168 0 0.27 0.17 0.27 0.449 0 0.247 0.081 0.449 0.18 0.449 0.099 0 0.18 0.127 0.18 0.282 0 0.323 0.42 0.796 0.706 0.796 0.106 0 0.193 0.184 0.193 0.41 0 0.225 0.162 0.526 0.36 0.669 0.198 0.143 0.36 0.384 0.36 0.536 0 0.152 0.281 0.519 0.625 0.814 0.344 0.296 0.627 0.641 0.629 0.768 0.002 0.127 0.125 0.277 0.274 0.334 0.148 0.057 0.27 0.198 0.27 0.314 0 0.116 0.162 0.327 0.36 0.47 0.198 0.143 0.36 0.363 0.36 0.489 0 0.126 0.089 0.23 0.198 0.23 0.109 0 0.424 0.243 0.701 0.539 0.277 0.297 0.593 0.539 0.701 0.539 0.109 0 0.198 0.085 0.198 0.188 0 0.2 0.807 1.07 0.993 1.07 0.146 0 0.625 0.482 0.625 0.629 0 0.148 0.478 0.629 0.625 0.629 0.186 0 0.993 0.87 0.993 1.07 0 0.103 0.121 0.188 0.27 0.188 0.148 0 0.27 0.081 0.27 0.18 0 0.099 0.121 0.18 0.27 0.18 0.148 0 0.27 0.081 0.27 0.18 0 0.099 0.162 0.18 0.36 0.18 0.198 0 0.36 0.087 0.36 0.193 0 0.23 0.45 0.706 0.667 0.706 0.084 0 0.27 0.162 0.412 0.36 0.143 0.198 0.444 0.36 0.669 0.36 0.225 0 0.41 0.087 0.41 0.193 0 0.304 0.482 0.706 0.846 0.706 0.183 0 0.449 0.162 0.592 0.36 0.143 0.198 0.328 0.36 0.412 0.36 0.084 0 0.266 0.101 0.403 0.225 0.634 0.568 0.809 0.674 1.115 0.674 0.18 0 0.444 0.162 0.587 0.36 0.143 0.198 0.444 0.36 0.669 0.36 0.244 0 0.41 0.109 0.41 0.27 0 0.15 0.16 0.27 0.36 0.27 0.198 0 0.36 0.081 0.36 0.18 0 0.099 0.202 0.18 0.449 0.18 0.247 0 0.449 0.081 0.449 0.18 0 0.099 0.202 0.18 0.449 0.18 0.247 0 0.449 0.081 0.449 0.18 0 0.099 0.168 0.18 0.372 0.18 0.205 0 0.494 0.121 0.642 0.27 0.148 0.148 0.426 0.27 0.616 0.27 0.191 0 0.347 0.081 0.347 0.18 0 0.099 0.283 0.18 0.629 0.18 0.346 0 0.629 0.081 0.629 0.18 0 0.1 0.479 0.18 1.079 0.18 0.599 0 1.079 0.08 1.079 0.18 0 0.106 0.629 0.18 1.528 0.18 0.899 0 1.528 -0.074 1.528 -0.18 z m -35.415 -37.752 c 0 -0.099 0.404 -0.18 0.899 -0.18 0.494 0 0.899 -0.081 0.899 -0.18 0 -0.099 0.162 -0.18 0.36 -0.18 0.2 0 0.36 -0.12 0.36 -0.27 0 -0.168 0.17 -0.27 0.449 -0.27 0.247 0 0.449 -0.081 0.449 -0.18 0 -0.099 0.202 -0.18 0.449 -0.18 0.247 0 0.449 -0.081 0.449 -0.18 0 -0.099 0.162 -0.18 0.36 -0.18 0.198 0 0.36 -0.081 0.36 -0.18 0 -0.099 0.202 -0.18 0.449 -0.18 0.28 0 0.449 -0.102 0.449 -0.27 0 -0.168 0.17 -0.27 0.449 -0.27 0.247 0 0.449 -0.081 0.449 -0.18 0 -0.099 0.162 -0.18 0.36 -0.18 0.198 0 0.36 -0.061 0.36 -0.135 0 -0.074 0.364 -0.284 0.809 -0.467 0.445 -0.183 0.808 -0.405 0.808 -0.494 0 -0.089 0.121 -0.162 0.27 -0.162 0.148 0 0.27 -0.081 0.27 -0.18 0 -0.099 0.202 -0.18 0.449 -0.18 0.247 0 0.449 -0.081 0.449 -0.18 0 -0.099 0.202 -0.18 0.449 -0.18 0.247 0 0.449 -0.081 0.449 -0.18 0 -0.099 0.162 -0.18 0.36 -0.18 0.2 0 0.36 -0.12 0.36 -0.27 0 -0.168 0.17 -0.27 0.449 -0.27 0.247 0 0.449 -0.081 0.449 -0.18 0 -0.099 0.202 -0.18 0.449 -0.18 0.247 0 0.449 -0.081 0.449 -0.18 0 -0.099 0.162 -0.18 0.36 -0.18 0.198 0 0.36 -0.081 0.36 -0.18 0 -0.099 0.202 -0.18 0.449 -0.18 0.28 0 0.449 -0.102 0.449 -0.27 0 -0.168 0.17 -0.27 0.449 -0.27 0.247 0 0.449 -0.081 0.449 -0.18 0 -0.099 0.162 -0.18 0.36 -0.18 0.198 0 0.36 -0.081 0.36 -0.18 0 -0.099 0.121 -0.18 0.27 -0.18 0.148 0 0.27 -0.081 0.27 -0.18 0 -0.099 0.162 -0.18 0.36 -0.18 0.2 0 0.36 -0.12 0.36 -0.27 0 -0.168 0.17 -0.27 0.449 -0.27 0.247 0 0.449 -0.081 0.449 -0.18 0 -0.099 0.202 -0.18 0.449 -0.18 0.247 0 0.449 -0.081 0.449 -0.18 0 -0.099 0.162 -0.18 0.36 -0.18 0.2 0 0.36 -0.12 0.36 -0.27 0 -0.168 0.17 -0.27 0.449 -0.27 0.247 0 0.449 -0.081 0.449 -0.18 0 -0.099 0.202 -0.18 0.449 -0.18 0.247 0 0.449 -0.081 0.449 -0.18 0 -0.099 0.162 -0.18 0.36 -0.18 0.198 0 0.36 -0.081 0.36 -0.18 0 -0.099 0.202 -0.18 0.449 -0.18 0.28 0 0.449 -0.102 0.449 -0.27 0 -0.168 0.17 -0.27 0.449 -0.27 0.247 0 0.449 -0.081 0.449 -0.18 0 -0.099 0.162 -0.18 0.36 -0.18 0.198 0 0.36 -0.081 0.36 -0.18 0 -0.099 0.121 -0.18 0.27 -0.18 0.148 0 0.27 -0.081 0.27 -0.18 0 -0.099 0.202 -0.18 0.449 -0.18 0.28 0 0.449 -0.102 0.449 -0.27 0 -0.15 0.16 -0.27 0.36 -0.27 0.198 0 0.36 -0.081 0.36 -0.18 0 -0.099 0.202 -0.18 0.449 -0.18 0.247 0 0.449 -0.081 0.449 -0.18 0 -0.099 0.202 -0.18 0.449 -0.18 0.247 0 0.449 -0.081 0.449 -0.18 0 -0.099 0.162 -0.18 0.36 -0.18 0.2 0 0.36 -0.12 0.36 -0.27 0 -0.168 0.17 -0.27 0.449 -0.27 0.247 0 0.449 -0.081 0.449 -0.18 0 -0.099 0.202 -0.18 0.449 -0.18 0.247 0 0.449 -0.081 0.449 -0.18 0 -0.099 0.162 -0.18 0.36 -0.18 0.198 0 0.36 -0.081 0.36 -0.18 0 -0.099 0.118 -0.18 0.261 -0.18 0.144 0 0.464 -0.202 0.711 -0.449 0.247 -0.247 0.615 -0.449 0.817 -0.449 0.202 0 0.368 -0.081 0.368 -0.18 0 -0.099 0.202 -0.18 0.449 -0.18 0.247 0 0.449 -0.081 0.449 -0.18 0 -0.099 0.162 -0.18 0.36 -0.18 0.2 0 0.36 -0.12 0.36 -0.27 0 -0.168 0.17 -0.27 0.449 -0.27 0.247 0 0.449 -0.081 0.449 -0.18 0 -0.099 0.202 -0.18 0.449 -0.18 0.247 0 0.449 -0.081 0.449 -0.18 0 -0.099 0.162 -0.18 0.36 -0.18 0.2 0 0.36 -0.12 0.36 -0.27 0 -0.168 0.17 -0.27 0.449 -0.27 0.247 0 0.449 -0.081 0.449 -0.18 0 -0.099 0.202 -0.18 0.449 -0.18 0.247 0 0.449 -0.081 0.449 -0.18 0 -0.099 0.162 -0.18 0.36 -0.18 0.198 0 0.36 -0.072 0.36 -0.16 0 -0.088 0.202 -0.211 0.449 -0.273 0.247 -0.062 0.449 -0.192 0.449 -0.289 0 -0.097 0.121 -0.176 0.27 -0.176 0.148 0 0.27 -0.081 0.27 -0.18 0 -0.099 0.162 -0.18 0.36 -0.18 0.198 0 0.36 -0.081 0.36 -0.18 0 -0.099 0.202 -0.18 0.449 -0.18 0.247 0 0.449 -0.081 0.449 -0.18 0 -0.099 0.202 -0.18 0.449 -0.18 0.28 0 0.449 -0.102 0.449 -0.27 0 -0.15 0.16 -0.27 0.36 -0.27 0.198 0 0.36 -0.081 0.36 -0.18 0 -0.099 0.202 -0.18 0.449 -0.18 0.247 0 0.449 -0.081 0.449 -0.18 0 -0.099 0.202 -0.18 0.449 -0.18 0.247 0 0.449 -0.081 0.449 -0.18 0 -0.099 0.162 -0.18 0.36 -0.18 0.2 0 0.36 -0.12 0.36 -0.27 0 -0.168 0.17 -0.27 0.449 -0.27 0.247 0 0.449 -0.081 0.449 -0.18 0 -0.099 0.162 -0.18 0.36 -0.18 0.198 0 0.36 -0.068 0.36 -0.151 0 -0.083 0.324 -0.258 0.719 -0.388 0.395 -0.131 0.719 -0.346 0.719 -0.478 0 -0.132 0.162 -0.241 0.36 -0.241 0.198 0 0.36 -0.081 0.36 -0.18 0 -0.099 0.202 -0.18 0.449 -0.18 0.247 0 0.449 -0.081 0.449 -0.18 0 -0.099 0.202 -0.18 0.449 -0.18 0.247 0 0.449 -0.081 0.449 -0.18 0 -0.099 0.162 -0.18 0.36 -0.18 0.2 0 0.36 -0.12 0.36 -0.27 0 -0.168 0.17 -0.27 0.449 -0.27 0.247 0 0.449 -0.081 0.449 -0.18 0 -0.099 0.202 -0.18 0.449 -0.18 0.36 0 0.449 -0.09 0.449 -0.449 0 -0.28 -0.102 -0.449 -0.27 -0.449 -0.2 0 -0.27 -0.21 -0.27 -0.809 0 -0.445 -0.081 -0.809 -0.18 -0.809 -0.099 0 -0.18 -0.445 -0.18 -0.989 0 -0.544 -0.081 -0.989 -0.18 -0.989 -0.112 0 -0.18 -1.019 -0.18 -2.697 v -2.697 h -2.337 c -1.438 0 -2.337 -0.069 -2.337 -0.18 0 -0.114 -1.318 -0.18 -3.595 -0.18 -2.277 0 -3.595 -0.066 -3.595 -0.18 0 -0.114 -1.293 -0.18 -3.518 -0.18 -2.888 0 -3.567 -0.048 -3.788 -0.27 -0.222 -0.222 -0.907 -0.27 -3.852 -0.27 -2.269 0 -3.583 -0.066 -3.583 -0.18 0 -0.114 -1.378 -0.18 -3.775 -0.18 -2.397 0 -3.775 -0.066 -3.775 -0.18 0 -0.114 -1.438 -0.18 -3.955 -0.18 -2.517 0 -3.955 -0.065 -3.955 -0.18 0 -0.114 -1.383 -0.18 -3.788 -0.18 -3.127 0 -3.835 -0.047 -4.058 -0.27 -0.222 -0.222 -0.926 -0.27 -4.02 -0.27 -2.307 0 -3.794 -0.069 -3.863 -0.18 -0.067 -0.109 -1.35 -0.18 -3.246 -0.18 -1.97 0 -3.135 0.067 -3.135 0.18 0 0.099 -0.283 0.18 -0.629 0.18 -0.439 0 -0.629 0.081 -0.629 0.27 0 0.15 -0.16 0.27 -0.36 0.27 -0.198 0 -0.36 0.081 -0.36 0.18 0 0.099 -0.087 0.18 -0.193 0.18 -0.291 0 -0.706 0.475 -0.706 0.809 0 0.334 -0.415 0.809 -0.706 0.809 -0.106 0 -0.193 0.202 -0.193 0.449 0 0.247 -0.081 0.449 -0.18 0.449 -0.099 0 -0.18 0.162 -0.18 0.36 0 0.198 -0.081 0.36 -0.18 0.36 -0.099 0 -0.18 0.283 -0.18 0.629 0 0.439 -0.081 0.629 -0.27 0.629 -0.188 0 -0.27 0.19 -0.27 0.629 0 0.346 -0.081 0.629 -0.18 0.629 -0.101 0 -0.18 0.509 -0.18 1.168 0 0.659 -0.078 1.168 -0.18 1.168 -0.116 0 -0.18 1.828 -0.18 5.123 0 3.296 0.064 5.123 0.18 5.123 0.105 0 0.18 0.599 0.18 1.438 0 0.839 0.075 1.438 0.18 1.438 0.099 0 0.18 0.445 0.18 0.989 0 0.759 0.063 0.989 0.27 0.989 0.2 0 0.27 0.21 0.27 0.809 0 0.445 0.081 0.809 0.18 0.809 0.099 0 0.18 0.364 0.18 0.809 0 0.445 0.081 0.809 0.18 0.809 0.099 0 0.18 0.283 0.18 0.629 0 0.439 0.081 0.629 0.27 0.629 0.188 0 0.27 0.19 0.27 0.629 0 0.346 0.081 0.629 0.18 0.629 0.099 0 0.18 0.283 0.18 0.629 0 0.346 0.081 0.629 0.18 0.629 0.099 0 0.18 0.162 0.18 0.36 0 0.2 0.12 0.36 0.27 0.36 0.188 0 0.27 0.19 0.27 0.629 0 0.346 0.081 0.629 0.18 0.629 0.099 0 0.18 0.202 0.18 0.449 0 0.247 0.081 0.449 0.18 0.449 0.099 0 0.18 0.162 0.18 0.36 0 0.198 0.087 0.36 0.193 0.36 0.291 0 0.706 0.475 0.706 0.809 0 0.162 0.101 0.408 0.225 0.546 0.484 0.54 0.674 0.792 0.674 0.893 0 0.141 0.852 0.988 0.993 0.988 0.146 0 0.625 0.482 0.625 0.629 0 0.169 0.488 0.629 0.667 0.629 0.084 0 0.27 0.162 0.412 0.36 0.143 0.198 0.444 0.36 0.669 0.36 0.244 0 0.41 0.109 0.41 0.27 0 0.15 0.16 0.27 0.36 0.27 0.198 0 0.36 0.081 0.36 0.18 0 0.099 0.404 0.18 0.899 0.18 0.494 0 0.899 0.081 0.899 0.18 0 0.099 0.283 0.18 0.629 0.18 0.346 0 0.629 -0.081 0.629 -0.18 z m 67.41 -26.965 c 0 -0.198 0.081 -0.36 0.18 -0.36 0.099 0 0.18 -0.202 0.18 -0.449 0 -0.28 0.102 -0.449 0.27 -0.449 0.168 0 0.27 -0.17 0.27 -0.449 0 -0.247 0.081 -0.449 0.18 -0.449 0.099 0 0.18 -0.243 0.18 -0.539 0 -0.297 0.081 -0.539 0.18 -0.539 0.099 0 0.18 -0.202 0.18 -0.449 0 -0.28 0.102 -0.449 0.27 -0.449 0.15 0 0.27 -0.16 0.27 -0.36 0 -0.198 0.081 -0.36 0.18 -0.36 0.099 0 0.18 -0.283 0.18 -0.629 0 -0.346 0.081 -0.629 0.18 -0.629 0.099 0 0.18 -0.202 0.18 -0.449 0 -0.28 0.102 -0.449 0.27 -0.449 0.15 0 0.27 -0.16 0.27 -0.36 0 -0.198 0.081 -0.36 0.18 -0.36 0.099 0 0.18 -0.202 0.18 -0.449 0 -0.247 0.081 -0.449 0.18 -0.449 0.099 0 0.18 -0.243 0.18 -0.539 0 -0.36 0.09 -0.539 0.27 -0.539 0.168 0 0.27 -0.17 0.27 -0.449 0 -0.247 0.081 -0.449 0.18 -0.449 0.099 0 0.18 -0.202 0.18 -0.449 0 -0.247 0.081 -0.449 0.18 -0.449 0.099 0 0.18 -0.243 0.18 -0.539 0 -0.36 0.09 -0.539 0.27 -0.539 0.168 0 0.27 -0.17 0.27 -0.449 0 -0.247 0.081 -0.449 0.18 -0.449 0.099 0 0.18 -0.162 0.18 -0.36 0 -0.198 0.081 -0.36 0.18 -0.36 0.099 0 0.18 -0.283 0.18 -0.629 0 -0.439 0.081 -0.629 0.27 -0.629 0.168 0 0.27 -0.17 0.27 -0.449 0 -0.247 0.081 -0.449 0.18 -0.449 0.099 0 0.18 -0.162 0.18 -0.36 0 -0.2 0.12 -0.36 0.27 -0.36 0.148 0 0.27 -0.123 0.27 -0.272 0 -0.436 0.434 -1.705 0.583 -1.705 0.075 0 0.136 -0.202 0.136 -0.449 0 -0.28 0.102 -0.449 0.27 -0.449 0.148 0 0.27 -0.123 0.27 -0.272 0 -0.436 0.434 -1.705 0.583 -1.705 0.075 0 0.136 -0.202 0.136 -0.449 0 -0.28 0.102 -0.449 0.27 -0.449 0.168 0 0.27 -0.17 0.27 -0.449 0 -0.439 -0.03 -0.449 -1.348 -0.449 -0.779 0 -1.348 0.076 -1.348 0.18 0 0.099 -0.364 0.18 -0.809 0.18 -0.599 0 -0.809 0.07 -0.809 0.27 0 0.188 -0.19 0.27 -0.629 0.27 -0.346 0 -0.629 0.081 -0.629 0.18 0 0.099 -0.202 0.18 -0.449 0.18 -0.247 0 -0.449 0.081 -0.449 0.18 0 0.099 -0.165 0.18 -0.367 0.18 -0.343 0 -0.514 0.1 -1.154 0.674 -0.138 0.124 -0.3 0.225 -0.361 0.225 -0.061 0 -0.306 0.182 -0.543 0.404 -0.691 0.646 -0.964 0.854 -1.122 0.854 -0.081 0 -0.264 0.162 -0.407 0.36 -0.143 0.198 -0.363 0.36 -0.489 0.36 -0.126 0 -0.23 0.168 -0.23 0.372 0 0.353 -0.379 0.886 -0.629 0.886 -0.187 0 -0.629 0.497 -0.629 0.706 0 0.106 -0.081 0.193 -0.18 0.193 -0.099 0 -0.18 0.162 -0.18 0.36 0 0.2 -0.12 0.36 -0.27 0.36 -0.15 0 -0.27 0.16 -0.27 0.36 0 0.198 -0.081 0.36 -0.18 0.36 -0.099 0 -0.18 0.202 -0.18 0.449 0 0.247 -0.081 0.449 -0.18 0.449 -0.099 0 -0.18 0.364 -0.18 0.809 0 0.575 -0.073 0.809 -0.252 0.809 -0.306 0 -0.455 1.03 -0.579 4 -0.059 1.422 -0.026 2.112 0.102 2.112 0.111 0 0.19 0.414 0.19 0.994 0 0.718 0.075 1.023 0.27 1.098 0.154 0.059 0.27 0.327 0.27 0.624 0 0.286 0.081 0.52 0.18 0.52 0.099 0 0.18 0.202 0.18 0.449 0 0.247 0.081 0.449 0.18 0.449 0.099 0 0.18 0.162 0.18 0.36 0 0.2 0.12 0.36 0.27 0.36 0.161 0 0.27 0.165 0.27 0.41 0 0.225 0.162 0.526 0.36 0.669 0.198 0.143 0.36 0.365 0.36 0.495 0 0.13 0.121 0.282 0.27 0.339 0.148 0.057 0.27 0.216 0.27 0.354 0 0.147 0.185 0.25 0.449 0.25 0.33 0 0.449 -0.096 0.449 -0.36 z m -10.966 -14.471 c 0 -0.148 0.081 -0.27 0.18 -0.27 0.099 0 0.18 -0.248 0.18 -0.552 0 -0.304 0.121 -0.673 0.27 -0.822 0.148 -0.148 0.27 -0.426 0.27 -0.616 0 -0.191 0.081 -0.347 0.18 -0.347 0.099 0 0.18 -0.202 0.18 -0.449 0 -0.247 0.081 -0.449 0.18 -0.449 0.099 0 0.18 -0.153 0.18 -0.34 0 -0.187 0.121 -0.387 0.27 -0.444 0.148 -0.057 0.27 -0.268 0.27 -0.469 0 -0.201 0.081 -0.365 0.18 -0.365 0.099 0 0.18 -0.162 0.18 -0.36 0 -0.198 0.105 -0.36 0.234 -0.36 0.128 0 0.336 -0.283 0.461 -0.629 0.125 -0.346 0.303 -0.629 0.396 -0.629 0.093 0 0.168 -0.283 0.168 -0.629 0 -0.346 -0.081 -0.629 -0.18 -0.629 -0.099 0 -0.18 -0.087 -0.18 -0.193 0 -0.23 -0.45 -0.706 -0.667 -0.706 -0.084 0 -0.27 -0.162 -0.412 -0.36 -0.143 -0.198 -0.363 -0.36 -0.489 -0.36 -0.126 0 -0.23 -0.085 -0.23 -0.188 0 -0.2 -0.807 -1.07 -0.993 -1.07 -0.146 0 -0.625 -0.482 -0.625 -0.629 0 -0.148 -0.478 -0.629 -0.625 -0.629 -0.186 0 -0.993 -0.87 -0.993 -1.07 0 -0.103 -0.089 -0.188 -0.198 -0.188 -0.109 0 -0.424 -0.243 -0.701 -0.539 -0.277 -0.297 -0.593 -0.539 -0.701 -0.539 -0.109 0 -0.198 -0.085 -0.198 -0.188 0 -0.244 -0.826 -1.07 -1.07 -1.07 -0.103 0 -0.188 -0.085 -0.188 -0.188 0 -0.2 -0.807 -1.07 -0.993 -1.07 -0.146 0 -0.625 -0.482 -0.625 -0.629 0 -0.148 -0.478 -0.629 -0.625 -0.629 -0.186 0 -0.993 -0.87 -0.993 -1.07 0 -0.103 -0.089 -0.188 -0.198 -0.188 -0.109 0 -0.424 -0.243 -0.701 -0.539 -0.277 -0.297 -0.593 -0.539 -0.701 -0.539 -0.109 0 -0.198 -0.085 -0.198 -0.188 0 -0.2 -0.807 -1.07 -0.993 -1.07 -0.146 0 -0.625 -0.482 -0.625 -0.629 0 -0.148 -0.478 -0.629 -0.625 -0.629 -0.186 0 -0.993 -0.87 -0.993 -1.07 0 -0.103 -0.103 -0.188 -0.23 -0.188 -0.126 0 -0.347 -0.162 -0.489 -0.36 -0.143 -0.198 -0.363 -0.36 -0.489 -0.36 -0.126 0 -0.23 -0.085 -0.23 -0.188 0 -0.2 -0.807 -1.07 -0.993 -1.07 -0.183 0 -0.625 -0.499 -0.625 -0.706 0 -0.106 -0.069 -0.193 -0.153 -0.193 -0.084 0 -0.407 -0.243 -0.717 -0.539 -0.31 -0.297 -0.609 -0.539 -0.664 -0.539 -0.055 0 -0.294 -0.182 -0.532 -0.404 -0.652 -0.61 -0.962 -0.854 -1.084 -0.854 -0.146 0 -0.624 -0.482 -0.624 -0.629 0 -0.148 -0.478 -0.629 -0.625 -0.629 -0.186 0 -0.993 -0.87 -0.993 -1.07 0 -0.103 -0.089 -0.188 -0.198 -0.188 -0.109 0 -0.424 -0.243 -0.701 -0.539 -0.277 -0.297 -0.593 -0.539 -0.701 -0.539 -0.109 0 -0.198 -0.085 -0.198 -0.188 0 -0.2 -0.807 -1.07 -0.993 -1.07 -0.146 0 -0.625 -0.482 -0.625 -0.629 0 -0.15 -0.479 -0.629 -0.629 -0.629 -0.15 0 -0.629 -0.479 -0.629 -0.629 0 -0.148 -0.478 -0.629 -0.625 -0.629 -0.186 0 -0.993 -0.87 -0.993 -1.07 0 -0.103 -0.089 -0.188 -0.198 -0.188 -0.109 0 -0.424 -0.243 -0.701 -0.539 -0.277 -0.297 -0.593 -0.539 -0.701 -0.539 -0.109 0 -0.198 -0.085 -0.198 -0.188 0 -0.2 -0.807 -1.07 -0.993 -1.07 -0.183 0 -0.625 -0.499 -0.625 -0.706 0 -0.106 -0.089 -0.193 -0.198 -0.193 -0.109 0 -0.424 -0.243 -0.701 -0.539 -0.277 -0.297 -0.593 -0.539 -0.701 -0.539 -0.109 0 -0.198 -0.085 -0.198 -0.188 0 -0.2 -0.807 -1.07 -0.993 -1.07 -0.146 0 -0.625 -0.482 -0.625 -0.629 0 -0.15 -0.479 -0.629 -0.629 -0.629 -0.15 0 -0.629 -0.479 -0.629 -0.629 0 -0.147 -0.478 -0.629 -0.624 -0.629 -0.061 0 -0.545 -0.445 -1.076 -0.989 -0.531 -0.544 -1.019 -0.989 -1.085 -0.989 -0.066 0 -0.484 -0.364 -0.929 -0.809 -0.445 -0.445 -0.889 -0.809 -0.987 -0.809 -0.237 0 -0.692 -0.464 -0.692 -0.706 0 -0.106 -0.121 -0.193 -0.27 -0.193 -0.148 0 -0.27 -0.081 -0.27 -0.18 0 -0.099 -0.162 -0.18 -0.36 -0.18 -0.198 0 -0.36 -0.081 -0.36 -0.18 0 -0.099 -0.283 -0.18 -0.629 -0.18 -0.346 0 -0.629 -0.081 -0.629 -0.18 0 -0.103 -0.539 -0.18 -1.258 -0.18 -0.719 0 -1.258 0.077 -1.258 0.18 0 0.099 -0.324 0.18 -0.719 0.18 -0.395 0 -0.719 0.081 -0.719 0.18 0 0.099 -0.202 0.18 -0.449 0.18 -0.247 0 -0.449 0.081 -0.449 0.18 0 0.099 -0.162 0.18 -0.36 0.18 -0.2 0 -0.36 0.12 -0.36 0.27 0 0.148 -0.121 0.27 -0.27 0.27 -0.148 0 -0.27 0.081 -0.27 0.18 0 0.099 -0.162 0.18 -0.36 0.18 -0.198 0 -0.36 0.081 -0.36 0.18 0 0.099 -0.087 0.18 -0.193 0.18 -0.249 0 -0.706 0.457 -0.706 0.706 0 0.106 -0.164 0.193 -0.365 0.193 -0.373 0 -2.511 1.982 -2.511 2.328 0 0.104 -0.083 0.189 -0.185 0.189 -0.102 0 -0.239 0.142 -0.305 0.315 -0.132 0.35 -0.5 0.764 -0.679 0.764 -0.226 0 -0.629 0.518 -0.629 0.809 0 0.291 -0.403 0.809 -0.629 0.809 -0.187 0 -0.629 0.497 -0.629 0.706 0 0.106 -0.081 0.193 -0.18 0.193 -0.099 0 -0.18 0.162 -0.18 0.36 0 0.2 -0.12 0.36 -0.27 0.36 -0.161 0 -0.27 0.165 -0.27 0.41 0 0.225 -0.162 0.526 -0.36 0.669 -0.198 0.143 -0.36 0.403 -0.36 0.579 0 0.176 -0.121 0.32 -0.27 0.32 -0.148 0 -0.27 0.121 -0.27 0.27 0 0.148 -0.081 0.27 -0.18 0.27 -0.099 0 -0.18 0.162 -0.18 0.36 0 0.198 -0.081 0.36 -0.18 0.36 -0.099 0 -0.18 0.202 -0.18 0.449 0 0.28 -0.102 0.449 -0.27 0.449 -0.15 0 -0.27 0.16 -0.27 0.36 0 0.198 -0.081 0.36 -0.18 0.36 -0.099 0 -0.18 0.165 -0.18 0.368 0 0.202 -0.202 0.57 -0.449 0.817 -0.247 0.247 -0.449 0.567 -0.449 0.711 0 0.144 -0.081 0.261 -0.18 0.261 -0.099 0 -0.18 0.162 -0.18 0.36 0 0.198 -0.081 0.36 -0.18 0.36 -0.099 0 -0.18 0.283 -0.18 0.629 0 0.439 -0.081 0.629 -0.27 0.629 -0.15 0 -0.27 0.16 -0.27 0.36 0 0.198 -0.081 0.36 -0.18 0.36 -0.099 0 -0.18 0.202 -0.18 0.449 0 0.247 -0.081 0.449 -0.18 0.449 -0.099 0 -0.18 0.283 -0.18 0.629 0 0.439 -0.081 0.629 -0.27 0.629 -0.15 0 -0.27 0.16 -0.27 0.36 0 0.198 -0.081 0.36 -0.18 0.36 -0.099 0 -0.18 0.283 -0.18 0.629 0 0.346 -0.081 0.629 -0.18 0.629 -0.099 0 -0.18 0.283 -0.18 0.629 0 0.439 -0.081 0.629 -0.27 0.629 -0.18 0 -0.27 0.18 -0.27 0.539 0 0.297 -0.081 0.539 -0.18 0.539 -0.099 0 -0.18 0.404 -0.18 0.899 0 0.494 -0.081 0.899 -0.18 0.899 -0.099 0 -0.18 0.329 -0.18 0.732 0 0.411 -0.118 0.85 -0.27 1 -0.173 0.173 -0.27 0.618 -0.27 1.246 0 0.537 -0.081 0.976 -0.18 0.976 -0.114 0 -0.18 1.288 -0.18 3.505 0 2.217 0.066 3.506 0.18 3.506 0.099 0 0.18 0.364 0.18 0.809 0 0.599 0.07 0.809 0.27 0.809 0.168 0 0.27 0.17 0.27 0.449 0 0.247 0.081 0.449 0.18 0.449 0.099 0 0.18 0.127 0.18 0.282 0 0.323 0.42 0.796 0.706 0.796 0.106 0 0.193 0.085 0.193 0.188 0 0.328 0.868 1.07 1.25 1.07 0.202 0 0.368 0.081 0.368 0.18 0 0.099 0.202 0.18 0.449 0.18 0.28 0 0.449 0.102 0.449 0.27 0 0.207 0.23 0.27 0.989 0.27 0.544 0 0.989 0.081 0.989 0.18 0 0.106 0.629 0.18 1.528 0.18 0.899 0 1.528 0.074 1.528 0.18 0 0.105 0.599 0.18 1.438 0.18 1.159 0 1.438 0.052 1.438 0.27 0 0.219 0.29 0.27 1.528 0.27 0.899 0 1.528 0.074 1.528 0.18 0 0.105 0.599 0.18 1.438 0.18 0.839 0 1.438 0.075 1.438 0.18 0 0.105 0.599 0.18 1.438 0.18 0.839 0 1.438 0.075 1.438 0.18 0 0.106 0.629 0.18 1.528 0.18 1.238 0 1.528 0.051 1.528 0.27 0 0.218 0.288 0.27 1.517 0.27 0.835 0 1.567 0.081 1.629 0.18 0.061 0.099 0.794 0.18 1.629 0.18 0.892 0 1.517 0.074 1.517 0.18 0 0.106 0.629 0.18 1.528 0.18 0.899 0 1.528 0.074 1.528 0.18 0 0.106 0.653 0.18 1.599 0.18 1.255 0 1.621 0.058 1.702 0.27 0.081 0.212 0.45 0.27 1.727 0.27 0.963 0 1.624 0.073 1.624 0.18 0 0.106 0.629 0.18 1.528 0.18 0.899 0 1.528 0.074 1.528 0.18 0 0.107 0.659 0.18 1.618 0.18 0.959 0 1.618 0.073 1.618 0.18 0 0.108 0.749 0.18 1.888 0.18 1.558 0 1.888 0.047 1.888 0.27 0 0.221 0.31 0.27 1.708 0.27 1.019 0 1.708 0.073 1.708 0.18 0 0.107 0.659 0.18 1.618 0.18 0.959 0 1.618 0.073 1.618 0.18 0 0.107 0.689 0.18 1.708 0.18 1.019 0 1.708 0.073 1.708 0.18 0 0.107 0.689 0.18 1.708 0.18 1.398 0 1.708 0.049 1.708 0.27 0 0.221 0.31 0.27 1.708 0.27 1.398 0 1.708 -0.049 1.708 -0.27 z m 6.934 -10.594 c 0.141 -0.141 0.257 -0.309 0.257 -0.372 0 -0.222 0.516 -0.629 0.796 -0.629 0.155 0 0.282 -0.081 0.282 -0.18 0 -0.099 0.121 -0.18 0.27 -0.18 0.148 0 0.27 -0.081 0.27 -0.18 0 -0.099 0.121 -0.18 0.27 -0.18 0.148 0 0.27 -0.121 0.27 -0.27 0 -0.15 0.16 -0.27 0.36 -0.27 0.198 0 0.36 -0.081 0.36 -0.18 0 -0.099 0.184 -0.18 0.41 -0.18 0.225 0 0.526 -0.162 0.669 -0.36 0.143 -0.198 0.444 -0.36 0.669 -0.36 0.244 0 0.41 -0.109 0.41 -0.27 0 -0.181 0.181 -0.27 0.552 -0.27 0.304 0 0.668 -0.116 0.809 -0.257 0.293 -0.293 0.347 -1 0.077 -1 -0.101 0 -0.18 -0.509 -0.18 -1.168 0 -0.659 -0.078 -1.169 -0.18 -1.169 -0.099 0 -0.18 -0.407 -0.18 -0.904 0 -0.638 -0.079 -0.935 -0.27 -1.01 -0.197 -0.076 -0.27 -0.387 -0.27 -1.163 0 -0.586 -0.08 -1.059 -0.18 -1.059 -0.099 0 -0.18 -0.445 -0.18 -0.989 0 -0.544 -0.081 -0.989 -0.18 -0.989 -0.099 0 -0.18 -0.447 -0.18 -0.994 0 -0.718 -0.075 -1.023 -0.27 -1.098 -0.194 -0.074 -0.27 -0.377 -0.27 -1.073 0 -0.533 -0.081 -0.969 -0.18 -0.969 -0.099 0 -0.18 -0.445 -0.18 -0.989 0 -0.544 -0.081 -0.989 -0.18 -0.989 -0.1 0 -0.18 -0.479 -0.18 -1.079 0 -0.839 -0.06 -1.079 -0.27 -1.079 -0.207 0 -0.27 -0.23 -0.27 -0.989 0 -0.544 -0.081 -0.989 -0.18 -0.989 -0.099 0 -0.18 -0.445 -0.18 -0.989 0 -0.544 -0.081 -0.989 -0.18 -0.989 -0.099 0 -0.18 -0.447 -0.18 -0.994 0 -0.718 -0.075 -1.023 -0.27 -1.098 -0.189 -0.072 -0.27 -0.367 -0.27 -0.983 0 -0.484 -0.081 -0.88 -0.18 -0.88 -0.099 0 -0.18 -0.404 -0.18 -0.899 0 -0.494 -0.081 -0.899 -0.18 -0.899 -0.099 0 -0.18 -0.445 -0.18 -0.989 0 -0.759 -0.063 -0.989 -0.27 -0.989 -0.21 0 -0.27 -0.24 -0.27 -1.079 0 -0.599 -0.08 -1.079 -0.18 -1.079 -0.099 0 -0.18 -0.445 -0.18 -0.989 0 -0.544 -0.081 -0.989 -0.18 -0.989 -0.099 0 -0.18 -0.445 -0.18 -0.989 0 -0.759 -0.063 -0.989 -0.27 -0.989 -0.207 0 -0.27 -0.23 -0.27 -0.989 0 -0.544 -0.081 -0.989 -0.18 -0.989 -0.099 0 -0.18 -0.364 -0.18 -0.809 0 -0.445 -0.081 -0.809 -0.18 -0.809 -0.099 0 -0.18 -0.447 -0.18 -0.994 0 -0.718 -0.075 -1.023 -0.27 -1.098 -0.183 -0.07 -0.27 -0.357 -0.27 -0.893 0 -0.434 -0.081 -0.79 -0.18 -0.79 -0.099 0 -0.18 -0.364 -0.18 -0.809 0 -0.445 -0.081 -0.809 -0.18 -0.809 -0.099 0 -0.18 -0.364 -0.18 -0.809 0 -0.599 -0.07 -0.809 -0.27 -0.809 -0.207 0 -0.27 -0.23 -0.27 -0.989 0 -0.544 -0.081 -0.989 -0.18 -0.989 -0.099 0 -0.18 -0.364 -0.18 -0.809 0 -0.445 -0.081 -0.809 -0.18 -0.809 -0.099 0 -0.18 -0.364 -0.18 -0.809 0 -0.599 -0.07 -0.809 -0.27 -0.809 -0.2 0 -0.27 -0.21 -0.27 -0.809 0 -0.445 -0.081 -0.809 -0.18 -0.809 -0.099 0 -0.18 -0.447 -0.18 -0.994 0 -0.718 -0.075 -1.023 -0.27 -1.098 -0.183 -0.07 -0.27 -0.357 -0.27 -0.893 0 -0.434 -0.081 -0.79 -0.18 -0.79 -0.099 0 -0.18 -0.243 -0.18 -0.539 0 -0.297 -0.081 -0.539 -0.18 -0.539 -0.099 0 -0.18 -0.202 -0.18 -0.449 0 -0.28 -0.102 -0.449 -0.27 -0.449 -0.15 0 -0.27 -0.16 -0.27 -0.36 0 -0.198 -0.081 -0.36 -0.18 -0.36 -0.099 0 -0.18 -0.084 -0.18 -0.187 0 -0.395 -1.574 -1.97 -1.97 -1.97 -0.103 0 -0.187 -0.081 -0.187 -0.18 0 -0.099 -0.162 -0.18 -0.36 -0.18 -0.198 0 -0.36 -0.081 -0.36 -0.18 0 -0.099 -0.168 -0.18 -0.372 -0.18 -0.205 0 -0.494 -0.121 -0.642 -0.27 -0.179 -0.179 -0.628 -0.27 -1.335 -0.27 -0.591 0 -1.066 -0.08 -1.066 -0.18 0 -0.24 -3.897 -0.24 -4.045 0 -0.061 0.099 -0.632 0.18 -1.269 0.18 -0.909 0 -1.158 0.058 -1.158 0.27 0 0.207 -0.23 0.27 -0.989 0.27 -0.544 0 -0.989 0.081 -0.989 0.18 0 0.099 -0.283 0.18 -0.629 0.18 -0.346 0 -0.629 0.081 -0.629 0.18 0 0.099 -0.202 0.18 -0.449 0.18 -0.247 0 -0.449 0.081 -0.449 0.18 0 0.099 -0.283 0.18 -0.629 0.18 -0.439 0 -0.629 0.081 -0.629 0.27 0 0.168 -0.17 0.27 -0.449 0.27 -0.247 0 -0.449 0.081 -0.449 0.18 0 0.099 -0.162 0.18 -0.36 0.18 -0.198 0 -0.36 0.081 -0.36 0.18 0 0.099 -0.202 0.18 -0.449 0.18 -0.28 0 -0.449 0.102 -0.449 0.27 0 0.185 -0.185 0.27 -0.59 0.27 -0.383 0 -0.68 0.126 -0.849 0.36 -0.143 0.198 -0.444 0.36 -0.669 0.36 -0.225 0 -0.41 0.081 -0.41 0.18 0 0.099 -0.15 0.18 -0.334 0.18 -0.184 0 -0.486 0.202 -0.672 0.449 -0.186 0.248 -0.52 0.449 -0.744 0.449 -0.224 0 -0.407 0.076 -0.407 0.168 0 0.092 -0.283 0.271 -0.629 0.396 -0.346 0.125 -0.629 0.298 -0.629 0.384 0 0.22 -0.475 0.67 -0.706 0.67 -0.106 0 -0.193 0.081 -0.193 0.18 0 0.099 -0.162 0.18 -0.36 0.18 -0.198 0 -0.36 0.081 -0.36 0.18 0 0.099 -0.121 0.18 -0.27 0.18 -0.148 0 -0.27 0.085 -0.27 0.188 0 0.2 -0.807 1.07 -0.993 1.07 -0.146 0 -0.625 0.482 -0.625 0.629 0 0.25 -0.534 0.629 -0.886 0.629 -0.211 0 -0.372 0.117 -0.372 0.27 0 0.148 -0.081 0.27 -0.18 0.27 -0.099 0 -0.18 0.162 -0.18 0.36 0 0.198 -0.085 0.36 -0.188 0.36 -0.197 0 -1.07 0.806 -1.07 0.988 0 0.118 -0.25 0.434 -0.854 1.08 -0.222 0.238 -0.404 0.598 -0.404 0.8 0 0.207 -0.118 0.368 -0.27 0.368 -0.15 0 -0.27 0.16 -0.27 0.36 0 0.198 -0.081 0.36 -0.18 0.36 -0.099 0 -0.18 0.202 -0.18 0.449 0 0.247 -0.081 0.449 -0.18 0.449 -0.099 0 -0.18 0.248 -0.18 0.552 0 0.304 -0.121 0.673 -0.27 0.822 -0.391 0.391 -0.391 3.48 0 3.48 0.188 0 0.27 0.19 0.27 0.629 0 0.346 0.081 0.629 0.18 0.629 0.099 0 0.18 0.168 0.18 0.372 0 0.398 0.389 0.886 0.706 0.886 0.106 0 0.193 0.165 0.193 0.368 0 0.335 0.728 1.25 0.993 1.25 0.146 0 0.625 0.482 0.625 0.629 0 0.064 0.116 0.231 0.257 0.372 0.141 0.141 0.309 0.257 0.372 0.257 0.226 0 0.629 0.518 0.629 0.809 0 0.288 0.402 0.809 0.625 0.809 0.186 0 0.993 0.87 0.993 1.07 0 0.103 0.092 0.188 0.204 0.188 0.225 0 0.875 0.687 0.875 0.925 0 0.221 1.564 1.771 1.787 1.771 0.105 0 0.19 0.085 0.19 0.188 0 0.103 0.182 0.383 0.404 0.621 0.604 0.646 0.854 0.962 0.854 1.08 0 0.182 0.873 0.988 1.07 0.988 0.103 0 0.188 0.085 0.188 0.188 0 0.103 0.199 0.387 0.441 0.629 0.243 0.243 0.526 0.441 0.629 0.441 0.103 0 0.188 0.162 0.188 0.36 0 0.198 0.081 0.36 0.18 0.36 0.099 0 0.18 0.121 0.18 0.27 0 0.148 0.085 0.27 0.188 0.27 0.103 0 0.387 0.199 0.629 0.441 0.243 0.243 0.441 0.526 0.441 0.629 0 0.103 0.089 0.188 0.198 0.188 0.109 0 0.424 0.243 0.701 0.539 0.277 0.297 0.593 0.539 0.701 0.539 0.109 0 0.198 0.121 0.198 0.27 0 0.148 0.081 0.27 0.18 0.27 0.099 0 0.18 0.127 0.18 0.282 0 0.323 0.42 0.796 0.706 0.796 0.106 0 0.193 0.085 0.193 0.188 0 0.103 0.199 0.387 0.441 0.629 0.243 0.243 0.526 0.441 0.629 0.441 0.103 0 0.188 0.085 0.188 0.188 0 0.2 0.807 1.07 0.993 1.07 0.146 0 0.625 0.482 0.625 0.629 0 0.187 0.497 0.629 0.706 0.629 0.106 0 0.193 0.162 0.193 0.36 0 0.198 0.081 0.36 0.18 0.36 0.099 0 0.18 0.087 0.18 0.193 0 0.207 0.442 0.706 0.625 0.706 0.186 0 0.993 0.87 0.993 1.07 0 0.103 0.089 0.188 0.198 0.188 0.109 0 0.424 0.243 0.701 0.539 0.277 0.297 0.593 0.539 0.701 0.539 0.109 0 0.198 0.121 0.198 0.27 0 0.148 0.071 0.27 0.158 0.27 0.087 0 0.258 0.243 0.381 0.539 0.123 0.297 0.335 0.539 0.471 0.539 0.136 0 0.248 0.085 0.248 0.188 0 0.103 0.199 0.387 0.441 0.629 0.243 0.243 0.526 0.441 0.629 0.441 0.103 0 0.188 0.085 0.188 0.188 0 0.2 0.807 1.07 0.993 1.07 0.146 0 0.625 0.482 0.625 0.629 0 0.169 0.488 0.629 0.667 0.629 0.084 0 0.27 0.162 0.412 0.36 0.143 0.198 0.363 0.36 0.489 0.36 0.126 0 0.23 0.162 0.23 0.36 0 0.198 0.081 0.36 0.18 0.36 0.099 0 0.18 0.087 0.18 0.193 0 0.106 0.116 0.308 0.257 0.449 0.141 0.141 0.343 0.257 0.449 0.257 0.106 0 0.193 0.085 0.193 0.188 0 0.2 0.807 1.07 0.993 1.07 0.146 0 0.625 0.482 0.625 0.629 0 0.148 0.478 0.629 0.625 0.629 0.186 0 0.993 0.87 0.993 1.07 0 0.103 0.085 0.188 0.188 0.188 0.247 0 1.07 0.828 1.07 1.076 0 0.106 0.121 0.24 0.27 0.297 0.148 0.057 0.27 0.198 0.27 0.314 0 0.116 0.162 0.327 0.36 0.47 0.198 0.143 0.36 0.363 0.36 0.489 0 0.126 0.089 0.23 0.198 0.23 0.109 0 0.424 0.243 0.701 0.539 0.277 0.297 0.593 0.539 0.701 0.539 0.109 0 0.198 0.085 0.198 0.188 0 0.2 0.807 1.07 0.993 1.07 0.144 0 0.625 0.48 0.625 0.624 0 0.555 1.095 0.823 1.541 0.378 z m 13.56 -5.676 c 0 -0.099 0.324 -0.18 0.719 -0.18 0.395 0 0.719 0.081 0.719 0.18 0 0.105 0.599 0.18 1.438 0.18 1.318 0 1.438 -0.03 1.438 -0.36 0 -0.2 0.12 -0.36 0.27 -0.36 0.168 0 0.27 -0.17 0.27 -0.449 0 -0.247 0.081 -0.449 0.18 -0.449 0.099 0 0.18 -0.283 0.18 -0.629 0 -0.346 0.081 -0.629 0.18 -0.629 0.099 0 0.18 -0.162 0.18 -0.36 0 -0.2 0.12 -0.36 0.27 -0.36 0.168 0 0.27 -0.17 0.27 -0.449 0 -0.247 0.081 -0.449 0.18 -0.449 0.099 0 0.18 -0.243 0.18 -0.539 0 -0.297 0.081 -0.539 0.18 -0.539 0.099 0 0.18 -0.202 0.18 -0.449 0 -0.28 0.102 -0.449 0.27 -0.449 0.15 0 0.27 -0.16 0.27 -0.36 0 -0.198 0.081 -0.36 0.18 -0.36 0.099 0 0.18 -0.283 0.18 -0.629 0 -0.346 0.081 -0.629 0.18 -0.629 0.099 0 0.18 -0.202 0.18 -0.449 0 -0.28 0.102 -0.449 0.27 -0.449 0.15 0 0.27 -0.16 0.27 -0.36 0 -0.198 0.081 -0.36 0.18 -0.36 0.099 0 0.18 -0.283 0.18 -0.629 0 -0.346 0.081 -0.629 0.18 -0.629 0.099 0 0.18 -0.202 0.18 -0.449 0 -0.28 0.102 -0.449 0.27 -0.449 0.15 0 0.27 -0.16 0.27 -0.36 0 -0.198 0.081 -0.36 0.18 -0.36 0.099 0 0.18 -0.283 0.18 -0.629 0 -0.346 0.081 -0.629 0.18 -0.629 0.099 0 0.18 -0.162 0.18 -0.36 0 -0.2 0.12 -0.36 0.27 -0.36 0.168 0 0.27 -0.17 0.27 -0.449 0 -0.247 0.081 -0.449 0.18 -0.449 0.099 0 0.18 -0.283 0.18 -0.629 0 -0.346 0.081 -0.629 0.18 -0.629 0.099 0 0.18 -0.162 0.18 -0.36 0 -0.2 0.12 -0.36 0.27 -0.36 0.168 0 0.27 -0.17 0.27 -0.449 0 -0.247 0.081 -0.449 0.18 -0.449 0.099 0 0.18 -0.283 0.18 -0.629 0 -0.346 0.081 -0.629 0.18 -0.629 0.099 0 0.18 -0.162 0.18 -0.36 0 -0.2 0.12 -0.36 0.27 -0.36 0.168 0 0.27 -0.17 0.27 -0.449 0 -0.247 0.081 -0.449 0.18 -0.449 0.099 0 0.18 -0.243 0.18 -0.539 0 -0.36 0.09 -0.539 0.27 -0.539 0.168 0 0.27 -0.17 0.27 -0.449 0 -0.247 0.081 -0.449 0.18 -0.449 0.099 0 0.18 -0.202 0.18 -0.449 0 -0.247 0.081 -0.449 0.18 -0.449 0.099 0 0.18 -0.243 0.18 -0.539 0 -0.36 0.09 -0.539 0.27 -0.539 0.168 0 0.27 -0.17 0.27 -0.449 0 -0.247 0.081 -0.449 0.18 -0.449 0.099 0 0.18 -0.243 0.18 -0.539 0 -0.297 0.081 -0.539 0.18 -0.539 0.099 0 0.18 -0.202 0.18 -0.449 0 -0.28 0.102 -0.449 0.27 -0.449 0.168 0 0.27 -0.17 0.27 -0.449 0 -0.247 0.081 -0.449 0.18 -0.449 0.099 0 0.18 -0.243 0.18 -0.539 0 -0.297 0.081 -0.539 0.18 -0.539 0.099 0 0.18 -0.202 0.18 -0.449 0 -0.28 0.102 -0.449 0.27 -0.449 0.148 0 0.27 -0.157 0.27 -0.349 0 -0.192 0.081 -0.399 0.18 -0.46 0.099 -0.061 0.18 -0.349 0.18 -0.64 0 -0.291 0.081 -0.529 0.18 -0.529 0.099 0 0.18 -0.202 0.18 -0.449 0 -0.28 0.102 -0.449 0.27 -0.449 0.148 0 0.27 -0.157 0.27 -0.349 0 -0.192 0.081 -0.399 0.18 -0.46 0.099 -0.061 0.18 -0.349 0.18 -0.64 0 -0.291 0.081 -0.529 0.18 -0.529 0.099 0 0.18 -0.162 0.18 -0.36 0 -0.2 0.12 -0.36 0.27 -0.36 0.168 0 0.27 -0.17 0.27 -0.449 0 -0.247 0.081 -0.449 0.18 -0.449 0.099 0 0.18 -0.283 0.18 -0.629 0 -0.346 0.081 -0.629 0.18 -0.629 0.099 0 0.18 -0.162 0.18 -0.36 0 -0.198 0.112 -0.36 0.249 -0.36 0.137 0 0.299 -0.243 0.36 -0.539 l 0.221 -1.079 c 0.061 -0.297 0.182 -0.539 0.27 -0.539 0.088 0 0.159 -0.162 0.159 -0.36 0 -0.2 0.12 -0.36 0.27 -0.36 0.168 0 0.27 -0.17 0.27 -0.449 0 -0.247 0.081 -0.449 0.18 -0.449 0.099 0 0.18 -0.243 0.18 -0.539 0 -0.297 0.081 -0.539 0.18 -0.539 0.099 0 0.18 -0.202 0.18 -0.449 0 -0.28 0.102 -0.449 0.27 -0.449 0.168 0 0.27 -0.17 0.27 -0.449 0 -0.247 0.081 -0.449 0.18 -0.449 0.099 0 0.18 -0.243 0.18 -0.539 0 -0.297 0.081 -0.539 0.18 -0.539 0.099 0 0.18 -0.202 0.18 -0.449 0 -0.28 0.102 -0.449 0.27 -0.449 0.168 0 0.27 -0.17 0.27 -0.449 0 -0.247 0.081 -0.449 0.18 -0.449 0.099 0 0.18 -0.243 0.18 -0.539 0 -0.297 0.081 -0.539 0.18 -0.539 0.099 0 0.18 -0.202 0.18 -0.449 0 -0.28 0.102 -0.449 0.27 -0.449 0.18 0 0.27 -0.18 0.27 -0.539 0 -0.297 0.081 -0.539 0.18 -0.539 0.099 0 0.18 -0.202 0.18 -0.449 0 -0.247 0.081 -0.449 0.18 -0.449 0.099 0 0.18 -0.162 0.18 -0.36 0 -0.2 0.12 -0.36 0.27 -0.36 0.188 0 0.27 -0.19 0.27 -0.629 0 -0.346 0.081 -0.629 0.18 -0.629 0.099 0 0.18 -0.283 0.18 -0.629 0 -0.346 0.081 -0.629 0.18 -0.629 0.1 0 0.18 -0.479 0.18 -1.079 0 -0.599 -0.08 -1.079 -0.18 -1.079 -0.099 0 -0.18 -0.162 -0.18 -0.36 0 -0.198 -0.081 -0.36 -0.18 -0.36 -0.099 0 -0.18 -0.121 -0.18 -0.27 0 -0.148 -0.121 -0.27 -0.27 -0.27 -0.148 0 -0.27 -0.144 -0.27 -0.32 0 -0.176 -0.162 -0.436 -0.36 -0.579 -0.198 -0.143 -0.36 -0.363 -0.36 -0.489 0 -0.126 -0.184 -0.23 -0.41 -0.23 -0.225 0 -0.526 -0.162 -0.669 -0.36 -0.143 -0.198 -0.363 -0.36 -0.489 -0.36 -0.126 0 -0.23 -0.081 -0.23 -0.18 0 -0.099 -0.162 -0.18 -0.36 -0.18 -0.2 0 -0.36 -0.12 -0.36 -0.27 0 -0.168 -0.17 -0.27 -0.449 -0.27 -0.247 0 -0.449 -0.081 -0.449 -0.18 0 -0.099 -0.121 -0.18 -0.27 -0.18 -0.148 0 -0.27 -0.081 -0.27 -0.18 0 -0.099 -0.202 -0.18 -0.449 -0.18 -0.247 0 -0.449 -0.081 -0.449 -0.18 0 -0.099 -0.243 -0.18 -0.539 -0.18 -0.34 0 -0.539 -0.092 -0.539 -0.249 0 -0.137 -0.262 -0.302 -0.584 -0.366 -1.404 -0.281 -1.573 -0.333 -1.573 -0.484 0 -0.088 -0.283 -0.159 -0.629 -0.159 -0.346 0 -0.629 -0.081 -0.629 -0.18 0 -0.099 -0.364 -0.18 -0.809 -0.18 -0.599 0 -0.809 -0.07 -0.809 -0.27 0 -0.2 -0.21 -0.27 -0.809 -0.27 -0.445 0 -0.809 -0.081 -0.809 -0.18 0 -0.099 -0.404 -0.18 -0.899 -0.18 -0.494 0 -0.899 -0.081 -0.899 -0.18 0 -0.103 -0.539 -0.18 -1.258 -0.18 -0.719 0 -1.258 -0.077 -1.258 -0.18 0 -0.107 -0.689 -0.18 -1.708 -0.18 -1.398 0 -1.708 -0.049 -1.708 -0.27 0 -0.403 -7.391 -0.403 -7.794 0 -0.189 0.189 -0.651 0.27 -1.541 0.27 -0.728 0 -1.271 0.077 -1.271 0.18 0 0.099 -0.364 0.18 -0.809 0.18 -0.445 0 -0.809 0.081 -0.809 0.18 0 0.099 -0.283 0.18 -0.629 0.18 -0.346 0 -0.629 0.081 -0.629 0.18 0 0.099 -0.202 0.18 -0.449 0.18 -0.28 0 -0.449 0.102 -0.449 0.27 0 0.15 -0.16 0.27 -0.36 0.27 -0.198 0 -0.36 0.081 -0.36 0.18 0 0.099 -0.184 0.18 -0.41 0.18 -0.225 0 -0.526 0.162 -0.669 0.36 -0.143 0.198 -0.363 0.36 -0.489 0.36 -0.126 0 -0.23 0.087 -0.23 0.193 0 0.21 -0.443 0.706 -0.629 0.706 -0.25 0 -0.629 0.534 -0.629 0.886 0 0.205 -0.081 0.372 -0.18 0.372 -0.099 0 -0.18 0.243 -0.18 0.539 0 0.36 -0.09 0.539 -0.27 0.539 -0.226 0 -0.27 0.38 -0.27 2.337 0 1.957 0.044 2.337 0.27 2.337 0.227 0 0.27 0.409 0.27 2.607 0 1.618 0.068 2.607 0.18 2.607 0.108 0 0.18 0.746 0.18 1.877 0 1.057 0.078 1.925 0.18 1.988 0.099 0.061 0.18 0.866 0.18 1.795 0 1.258 0.068 1.753 0.27 1.954 0.202 0.202 0.27 0.701 0.27 1.99 0 1.027 0.072 1.721 0.18 1.721 0.103 0 0.18 0.535 0.18 1.246 0 0.867 0.082 1.327 0.27 1.515 0.192 0.192 0.27 0.661 0.27 1.631 0 0.788 0.076 1.361 0.18 1.361 0.105 0 0.18 0.599 0.18 1.438 0 0.839 0.075 1.438 0.18 1.438 0.105 0 0.18 0.599 0.18 1.438 0 1.159 0.052 1.438 0.27 1.438 0.217 0 0.27 0.28 0.27 1.438 0 0.839 0.075 1.438 0.18 1.438 0.104 0 0.18 0.569 0.18 1.348 0 0.779 0.076 1.348 0.18 1.348 0.105 0 0.18 0.599 0.18 1.438 0 1.159 0.052 1.438 0.27 1.438 0.214 0 0.27 0.26 0.27 1.258 0 0.719 0.077 1.258 0.18 1.258 0.101 0 0.18 0.509 0.18 1.169 0 0.659 0.078 1.169 0.18 1.169 0.103 0 0.18 0.539 0.18 1.258 0 0.999 0.056 1.258 0.27 1.258 0.212 0 0.27 0.25 0.27 1.169 0 0.659 0.078 1.169 0.18 1.169 0.103 0 0.18 0.539 0.18 1.258 0 0.719 0.077 1.258 0.18 1.258 0.103 0 0.18 0.539 0.18 1.258 0 0.999 0.056 1.258 0.27 1.258 0.212 0 0.27 0.25 0.27 1.169 0 0.659 0.078 1.168 0.18 1.168 0.099 0 0.18 0.445 0.18 0.989 0 0.544 0.081 0.989 0.18 0.989 0.099 0 0.18 0.283 0.18 0.629 v 0.629 h 1.888 c 1.139 0 1.888 -0.071 1.888 -0.18 z" style="fill:#ffdead"/></g></g></svg>