<svg xmlns="http://www.w3.org/2000/svg" viewBox="0 0 256 256"><g transform="translate(0 -796.36)"><path d="m 229.63 992.2 c 92.05 -130.93 -77.948 -263.6 -186.39 -156.91 -102.17 100.51 -7.449 256.68 119.69 207.86 c 26.526 -10.185 49.802 -26.914 66.7 -50.948 z" style="fill:#fff;color:#000"/><g transform="matrix(3.03488 0 0 2.76841 55.07 -1921.89)" style="fill:#ff4500"><path d="m 5.619 1008.36 c -0.898 0 -1.619 0.721 -1.619 1.619 v 36.761 c 0 0.898 0.722 1.619 1.619 1.619 h 36.761 c 0.898 0 1.619 -0.722 1.619 -1.619 v -36.761 c 0 -0.898 -0.722 -1.619 -1.619 -1.619 z"/><g transform="matrix(0 1 -1 0 0 0)" style="fill:#ffdead"><rect width="2.2" height="5" x="1011.16" y="-26.875" rx="0.26"/><rect y="-36.5" x="1011.16" height="5" width="2.2" rx="0.26"/><rect width="2.2" height="5" x="1011.16" y="-16.5" rx="0.26"/></g><path d="m 5 1008.36 c 18.5 1 18.5 1 37 0 z" style="opacity:0.75"/><g style="fill:#ffdead"><g transform="matrix(0 1 -1 0 0.375 -0.5)"><rect width="5" height="0.7" x="1007.86" y="-34.975" rx="0.198"/><rect y="-32.975" x="1007.86" height="0.7" width="5" rx="0.198"/></g><g transform="matrix(0 1 -1 0 0 -0.5)"><rect width="5" height="0.7" x="1007.86" y="-25.725" rx="0.198"/><rect y="-23.725" x="1007.86" height="0.7" width="5" rx="0.198"/></g><g transform="matrix(0 1 -1 0 0.375 -0.5)"><rect y="-12.975" x="1007.86" height="0.7" width="5" rx="0.198"/><rect width="5" height="0.7" x="1007.86" y="-14.975" rx="0.198"/></g><path d="m 12 1019.61 v 17.5 h 24 v -17.5 l -11.999 9.885 h -0.001 h -0.001 z"/></g></g></g></svg>