<svg xmlns="http://www.w3.org/2000/svg" viewBox="0 0 256 256"><g transform="translate(0 -796.36)"><path d="m 2.967 952.88 c 15.875 104.05 156.87 131.89 219.1 57.62 54.798 -55.17 41.16 -160.78 -26.05 -196.99 -77.21 -48.44 -189.69 11.446 -195.83 107.88 c -0.632 10.565 0.26 21.245 2.771 31.493 z" style="fill:#fff;color:#000"/><g transform="translate(0 796.36)" style="fill:#ff4500;fill-rule:evenodd"><path d="m 168.02 128.91 v -32.931 h 5.931 c 5.649 0 5.931 0.029 5.931 0.602 0 0.331 0.194 0.796 0.43 1.032 0.237 0.237 0.529 0.879 0.649 1.427 0.12 0.548 0.348 0.997 0.506 0.997 0.158 0 0.287 0.211 0.287 0.468 0 0.26 0.277 0.468 0.624 0.468 0.505 0 0.624 0.208 0.624 1.093 0 0.763 0.141 1.093 0.468 1.093 0.312 0 0.468 0.312 0.468 0.936 0 0.624 0.156 0.936 0.468 0.936 0.327 0 0.468 0.329 0.468 1.093 0 0.763 0.141 1.093 0.468 1.093 0.312 0 0.468 0.312 0.468 0.936 0 0.624 0.156 0.936 0.468 0.936 0.312 0 0.468 0.312 0.468 0.936 0 0.728 0.139 0.936 0.624 0.936 0.505 0 0.624 0.208 0.624 1.093 0 0.763 0.141 1.093 0.468 1.093 0.312 0 0.468 0.312 0.468 0.936 0 0.624 0.156 0.936 0.468 0.936 0.313 0 0.468 0.313 0.468 0.946 0 0.553 0.195 1.021 0.468 1.126 0.267 0.102 0.468 0.568 0.468 1.083 0 0.595 0.16 0.903 0.468 0.903 0.312 0 0.468 0.312 0.468 0.936 0 0.728 0.139 0.936 0.624 0.936 0.486 0 0.624 0.208 0.624 0.936 0 0.624 0.156 0.936 0.468 0.936 0.327 0 0.468 0.329 0.468 1.093 0 0.763 0.141 1.093 0.468 1.093 0.258 0 0.468 0.211 0.468 0.468 0 0.258 0.211 0.468 0.468 0.468 0.327 0 0.468 0.329 0.468 1.093 0 0.763 0.141 1.093 0.468 1.093 0.312 0 0.468 0.312 0.468 0.936 0 0.728 0.139 0.936 0.624 0.936 0.505 0 0.624 0.208 0.624 1.093 0 0.763 0.141 1.093 0.468 1.093 0.312 0 0.468 0.312 0.468 0.936 0 0.624 0.156 0.936 0.468 0.936 0.327 0 0.468 0.329 0.468 1.093 0 0.763 0.141 1.093 0.468 1.093 0.312 0 0.468 0.312 0.468 0.936 0 0.624 0.156 0.936 0.468 0.936 0.312 0 0.468 0.312 0.468 0.936 0 0.728 0.139 0.936 0.624 0.936 0.505 0 0.624 0.208 0.624 1.093 0 0.763 0.141 1.093 0.468 1.093 0.312 0 0.468 0.312 0.468 0.936 0 0.624 0.156 0.936 0.468 0.936 0.313 0 0.468 0.313 0.468 0.946 0 0.553 0.195 1.021 0.468 1.126 0.258 0.099 0.468 0.365 0.468 0.592 0 0.227 0.194 0.606 0.43 0.843 0.237 0.237 0.529 0.879 0.649 1.427 0.121 0.55 0.417 0.997 0.662 0.997 0.285 0 0.443 0.335 0.443 0.936 0 0.624 0.156 0.936 0.468 0.936 0.413 0 0.468 -3.312 0.468 -27.937 v -27.937 h 4.526 h 4.526 v 32.931 v 32.931 h -5.906 h -5.906 l -0.206 -0.936 c -0.113 -0.515 -0.324 -0.936 -0.468 -0.936 -0.144 0 -0.355 -0.421 -0.468 -0.936 -0.113 -0.515 -0.405 -0.936 -0.649 -0.936 -0.244 0 -0.443 -0.281 -0.443 -0.624 0 -0.347 -0.208 -0.624 -0.468 -0.624 -0.312 0 -0.468 -0.312 -0.468 -0.936 0 -0.624 -0.156 -0.936 -0.468 -0.936 -0.327 0 -0.468 -0.329 -0.468 -1.093 0 -0.763 -0.141 -1.093 -0.468 -1.093 -0.312 0 -0.468 -0.312 -0.468 -0.936 0 -0.624 -0.156 -0.936 -0.468 -0.936 -0.312 0 -0.468 -0.312 -0.468 -0.936 0 -0.728 -0.139 -0.936 -0.624 -0.936 -0.505 0 -0.624 -0.208 -0.624 -1.093 0 -0.763 -0.141 -1.093 -0.468 -1.093 -0.312 0 -0.468 -0.312 -0.468 -0.936 0 -0.624 -0.156 -0.936 -0.468 -0.936 -0.313 0 -0.468 -0.313 -0.468 -0.946 0 -0.553 -0.195 -1.021 -0.468 -1.126 -0.258 -0.099 -0.468 -0.52 -0.468 -0.936 0 -0.416 -0.211 -0.838 -0.468 -0.936 -0.267 -0.102 -0.468 -0.568 -0.468 -1.083 0 -0.695 -0.144 -0.903 -0.624 -0.903 -0.505 0 -0.624 -0.208 -0.624 -1.093 0 -0.763 -0.141 -1.093 -0.468 -1.093 -0.312 0 -0.468 -0.312 -0.468 -0.936 0 -0.601 -0.159 -0.936 -0.443 -0.936 -0.244 0 -0.536 -0.421 -0.649 -0.936 -0.113 -0.515 -0.335 -0.936 -0.493 -0.936 -0.158 0 -0.287 -0.281 -0.287 -0.624 0 -0.347 -0.208 -0.624 -0.468 -0.624 -0.312 0 -0.468 -0.312 -0.468 -0.936 0 -0.728 -0.139 -0.936 -0.624 -0.936 -0.505 0 -0.624 -0.208 -0.624 -1.093 0 -0.763 -0.141 -1.093 -0.468 -1.093 -0.312 0 -0.468 -0.312 -0.468 -0.936 0 -0.624 -0.156 -0.936 -0.468 -0.936 -0.312 0 -0.468 -0.312 -0.468 -0.936 0 -0.624 -0.156 -0.936 -0.468 -0.936 -0.327 0 -0.468 -0.329 -0.468 -1.093 0 -0.763 -0.141 -1.093 -0.468 -1.093 -0.312 0 -0.468 -0.312 -0.468 -0.936 0 -0.728 -0.139 -0.936 -0.624 -0.936 -0.505 0 -0.624 -0.208 -0.624 -1.093 0 -0.763 -0.141 -1.093 -0.468 -1.093 -0.312 0 -0.468 -0.312 -0.468 -0.936 0 -0.624 -0.156 -0.936 -0.468 -0.936 -0.312 0 -0.468 -0.312 -0.468 -0.936 0 -0.624 -0.156 -0.936 -0.468 -0.936 -0.313 0 -0.468 -0.313 -0.468 -0.946 0 -0.535 -0.195 -1.021 -0.449 -1.119 -0.247 -0.095 -0.539 -0.582 -0.649 -1.083 -0.11 -0.501 -0.399 -0.91 -0.643 -0.91 -0.285 0 -0.443 -0.335 -0.443 -0.936 0 -0.624 -0.156 -0.936 -0.468 -0.936 -0.327 0 -0.468 -0.329 -0.468 -1.093 0 -1.252 -0.747 -1.529 -1.052 -0.39 -0.104 0.386 -0.19 12.958 -0.192 27.937 l -0.004 27.23 h -4.37 h -4.37 v -32.931 z" style="opacity:0.99"/><path d="m 62.12 161.94 c -3.241 -0.095 -3.98 -0.202 -3.98 -0.576 0 -0.343 -0.396 -0.459 -1.561 -0.459 -1.179 0 -1.561 -0.114 -1.561 -0.468 0 -0.347 -0.364 -0.468 -1.405 -0.468 -1.04 0 -1.405 -0.121 -1.405 -0.468 0 -0.327 -0.329 -0.468 -1.093 -0.468 -0.884 0 -1.093 -0.119 -1.093 -0.624 0 -0.343 -0.196 -0.624 -0.435 -0.624 -0.239 0 -0.516 -0.211 -0.614 -0.468 -0.099 -0.258 -0.535 -0.468 -0.97 -0.468 -0.494 0 -0.79 -0.175 -0.79 -0.468 0 -0.26 -0.277 -0.468 -0.624 -0.468 -0.347 0 -0.624 -0.208 -0.624 -0.468 0 -0.258 -0.211 -0.468 -0.468 -0.468 -0.258 0 -0.468 -0.211 -0.468 -0.468 0 -0.258 -0.211 -0.468 -0.468 -0.468 -0.26 0 -0.468 -0.277 -0.468 -0.624 0 -0.347 -0.208 -0.624 -0.468 -0.624 -0.258 0 -0.468 -0.211 -0.468 -0.468 0 -0.258 -0.2 -0.468 -0.443 -0.468 -0.244 0 -0.536 -0.421 -0.649 -0.936 -0.113 -0.515 -0.405 -0.936 -0.649 -0.936 -0.244 0 -0.443 -0.211 -0.443 -0.468 0 -0.258 -0.211 -0.468 -0.468 -0.468 -0.327 0 -0.468 -0.329 -0.468 -1.093 0 -0.763 -0.141 -1.093 -0.468 -1.093 -0.312 0 -0.468 -0.312 -0.468 -0.936 0 -0.624 -0.156 -0.936 -0.468 -0.936 -0.325 0 -0.468 -0.327 -0.468 -1.07 0 -0.589 -0.211 -1.281 -0.468 -1.538 -0.28 -0.28 -0.468 -1.043 -0.468 -1.895 0 -1.219 -0.091 -1.427 -0.624 -1.427 -0.611 0 -0.624 -0.208 -0.624 -9.989 0 -9.781 0.013 -9.989 0.624 -9.989 0.54 0 0.624 -0.208 0.624 -1.535 0 -0.844 0.144 -1.583 0.32 -1.641 0.176 -0.059 0.408 -0.667 0.516 -1.353 0.108 -0.685 0.385 -1.358 0.617 -1.496 0.231 -0.137 0.421 -0.664 0.421 -1.171 0 -0.611 0.158 -0.921 0.468 -0.921 0.312 0 0.468 -0.312 0.468 -0.936 0 -0.624 0.156 -0.936 0.468 -0.936 0.26 0 0.468 -0.277 0.468 -0.624 0 -0.351 0.208 -0.624 0.476 -0.624 0.279 0 0.553 -0.387 0.663 -0.936 0.103 -0.515 0.38 -0.936 0.616 -0.936 0.236 0 0.429 -0.211 0.429 -0.468 0 -0.258 0.211 -0.468 0.468 -0.468 0.258 0 0.468 -0.211 0.468 -0.468 0 -0.258 0.211 -0.468 0.468 -0.468 0.258 0 0.468 -0.211 0.468 -0.468 0 -0.258 0.211 -0.468 0.468 -0.468 0.258 0 0.468 -0.211 0.468 -0.468 0 -0.26 0.277 -0.468 0.624 -0.468 0.416 0 0.624 -0.208 0.624 -0.624 0 -0.486 0.208 -0.624 0.936 -0.624 0.624 0 0.936 -0.156 0.936 -0.468 0 -0.258 0.211 -0.468 0.468 -0.468 0.258 0 0.468 -0.211 0.468 -0.468 0 -0.327 0.329 -0.468 1.093 -0.468 0.763 0 1.093 -0.141 1.093 -0.468 0 -0.347 0.364 -0.468 1.405 -0.468 1.04 0 1.405 -0.121 1.405 -0.468 0 -0.354 0.382 -0.468 1.561 -0.468 1.353 0 1.561 -0.083 1.561 -0.624 0 -0.61 0.208 -0.624 8.896 -0.624 8.688 0 8.896 0.015 8.896 0.624 0 0.54 0.208 0.624 1.535 0.624 0.844 0 1.585 0.15 1.645 0.332 0.061 0.183 0.705 0.412 1.431 0.509 0.822 0.11 1.32 0.338 1.32 0.604 0 0.28 0.376 0.427 1.093 0.427 0.763 0 1.093 0.141 1.093 0.468 0 0.312 0.312 0.468 0.936 0.468 0.624 0 0.936 0.156 0.936 0.468 0 0.312 0.312 0.468 0.936 0.468 h 0.936 v 4.058 c 0 2.497 -0.12 4.058 -0.312 4.058 -0.172 0 -0.312 -0.281 -0.312 -0.624 0 -0.416 -0.208 -0.624 -0.624 -0.624 -0.347 0 -0.624 -0.208 -0.624 -0.468 0 -0.312 -0.312 -0.468 -0.936 -0.468 -0.624 0 -0.936 -0.156 -0.936 -0.468 0 -0.258 -0.211 -0.468 -0.468 -0.468 -0.258 0 -0.468 -0.211 -0.468 -0.468 0 -0.327 -0.329 -0.468 -1.093 -0.468 -0.763 0 -1.093 -0.141 -1.093 -0.468 0 -0.312 -0.312 -0.468 -0.936 -0.468 -0.589 0 -0.936 -0.16 -0.936 -0.432 0 -0.523 -0.953 -0.807 -2.731 -0.813 -0.988 -0.003 -1.327 -0.128 -1.327 -0.488 0 -0.426 -0.931 -0.472 -7.856 -0.39 -5.94 0.07 -7.888 0.188 -7.986 0.483 -0.071 0.215 -0.61 0.39 -1.196 0.39 -0.858 0 -1.066 0.122 -1.066 0.624 0 0.486 -0.208 0.624 -0.936 0.624 -0.624 0 -0.936 0.156 -0.936 0.468 0 0.327 -0.329 0.468 -1.093 0.468 -0.763 0 -1.093 0.141 -1.093 0.468 0 0.258 -0.211 0.468 -0.468 0.468 -0.258 0 -0.468 0.211 -0.468 0.468 0 0.258 -0.211 0.468 -0.468 0.468 -0.258 0 -0.468 0.211 -0.468 0.468 0 0.258 -0.211 0.468 -0.468 0.468 -0.26 0 -0.468 0.277 -0.468 0.624 0 0.416 -0.208 0.624 -0.624 0.624 -0.347 0 -0.624 0.208 -0.624 0.468 0 0.258 -0.211 0.468 -0.468 0.468 -0.258 0 -0.468 0.211 -0.468 0.468 0 0.258 -0.134 0.468 -0.298 0.468 -0.164 0 -0.39 0.492 -0.503 1.093 -0.117 0.626 -0.39 1.093 -0.638 1.093 -0.306 0 -0.433 0.414 -0.433 1.405 0 1.04 -0.121 1.405 -0.468 1.405 -0.354 0 -0.468 0.382 -0.468 1.561 0 1.121 -0.122 1.561 -0.432 1.561 -0.721 0 -0.808 1.072 -0.808 9.989 0 8.916 0.087 9.989 0.808 9.989 0.31 0 0.432 0.44 0.432 1.561 0 1.179 0.114 1.561 0.468 1.561 0.347 0 0.468 0.364 0.468 1.405 0 1.04 0.121 1.405 0.468 1.405 0.258 0 0.468 0.271 0.468 0.602 0 0.331 0.211 0.813 0.468 1.07 0.258 0.258 0.468 0.689 0.468 0.959 0 0.27 0.211 0.491 0.468 0.491 0.258 0 0.468 0.211 0.468 0.468 0 0.26 0.277 0.468 0.624 0.468 0.347 0 0.624 0.208 0.624 0.468 0 0.258 0.211 0.468 0.468 0.468 0.26 0 0.468 0.277 0.468 0.624 0 0.347 0.208 0.624 0.468 0.624 0.258 0 0.468 0.211 0.468 0.468 0 0.258 0.211 0.468 0.468 0.468 0.258 0 0.468 0.211 0.468 0.468 0 0.327 0.329 0.468 1.093 0.468 0.763 0 1.093 0.141 1.093 0.468 0 0.312 0.312 0.468 0.936 0.468 0.624 0 0.936 0.156 0.936 0.468 0 0.327 0.329 0.468 1.093 0.468 0.722 0 1.093 0.146 1.093 0.432 0 0.708 1.062 0.808 8.662 0.813 7.05 0.004 7.257 -0.013 7.257 -0.62 0 -0.56 0.208 -0.624 2.029 -0.624 1.595 0 2.029 -0.1 2.029 -0.468 0 -0.312 0.312 -0.468 0.936 -0.468 0.624 0 0.936 -0.156 0.936 -0.468 0 -0.313 0.313 -0.468 0.946 -0.468 0.553 0 1.021 -0.195 1.126 -0.468 0.099 -0.258 0.375 -0.468 0.614 -0.468 0.239 0 0.435 -0.211 0.435 -0.468 0 -0.312 0.312 -0.468 0.936 -0.468 0.728 0 0.936 -0.139 0.936 -0.624 0 -0.416 0.208 -0.624 0.624 -0.624 0.347 0 0.624 -0.208 0.624 -0.468 0 -0.258 0.14 -0.468 0.312 -0.468 0.191 0 0.312 1.509 0.312 3.902 v 3.902 h -0.936 c -0.624 0 -0.936 0.156 -0.936 0.468 0 0.312 -0.312 0.468 -0.936 0.468 -0.728 0 -0.936 0.139 -0.936 0.624 0 0.505 -0.208 0.624 -1.093 0.624 -0.763 0 -1.093 0.141 -1.093 0.468 0 0.347 -0.364 0.468 -1.405 0.468 -1.04 0 -1.405 0.121 -1.405 0.468 0 0.354 -0.382 0.468 -1.561 0.468 -1.179 0 -1.561 0.114 -1.561 0.468 0 0.379 -0.498 0.468 -2.606 0.468 -1.433 0 -3.646 0.048 -4.916 0.108 -1.271 0.059 -4.101 0.055 -6.29 -0.009 z" style="opacity:0.99"/><path d="m 101.22 128.91 v -32.931 h 5.736 h 5.736 l 0.187 0.936 c 0.11 0.549 0.384 0.936 0.663 0.936 0.336 0 0.476 0.322 0.476 1.093 0 0.763 0.141 1.093 0.468 1.093 0.258 0 0.468 0.211 0.468 0.468 0 0.258 0.211 0.468 0.468 0.468 0.327 0 0.468 0.329 0.468 1.093 0 0.763 0.141 1.093 0.468 1.093 0.312 0 0.468 0.312 0.468 0.936 0 0.624 0.156 0.936 0.468 0.936 0.327 0 0.468 0.329 0.468 1.093 0 0.884 0.119 1.093 0.624 1.093 0.486 0 0.624 0.208 0.624 0.936 0 0.624 0.156 0.936 0.468 0.936 0.312 0 0.468 0.312 0.468 0.936 0 0.624 0.156 0.936 0.468 0.936 0.327 0 0.468 0.329 0.468 1.093 0 0.763 0.141 1.093 0.468 1.093 0.312 0 0.468 0.312 0.468 0.936 0 0.624 0.156 0.936 0.468 0.936 0.315 0 0.468 0.315 0.468 0.966 0 0.703 0.17 1.01 0.624 1.129 0.442 0.116 0.624 0.426 0.624 1.063 0 0.592 0.16 0.9 0.468 0.9 0.312 0 0.468 0.312 0.468 0.936 0 0.624 0.156 0.936 0.468 0.936 0.258 0 0.468 0.271 0.468 0.602 0 0.331 0.194 0.796 0.43 1.032 0.237 0.237 0.529 0.879 0.649 1.427 0.12 0.548 0.348 0.997 0.506 0.997 0.158 0 0.287 0.211 0.287 0.468 0 0.26 0.277 0.468 0.624 0.468 0.505 0 0.624 0.208 0.624 1.093 0 0.763 0.141 1.093 0.468 1.093 0.312 0 0.468 0.312 0.468 0.936 0 0.624 0.156 0.936 0.468 0.936 0.327 0 0.468 0.329 0.468 1.093 0 0.763 0.141 1.093 0.468 1.093 0.312 0 0.468 0.312 0.468 0.936 0 0.624 0.156 0.936 0.468 0.936 0.327 0 0.468 0.329 0.468 1.093 0 0.884 0.119 1.093 0.624 1.093 0.486 0 0.624 0.208 0.624 0.936 0 0.624 0.156 0.936 0.468 0.936 0.312 0 0.468 0.312 0.468 0.936 0 0.624 0.156 0.936 0.468 0.936 0.313 0 0.468 0.313 0.468 0.946 0 0.553 0.195 1.021 0.468 1.126 0.267 0.102 0.468 0.568 0.468 1.083 0 0.595 0.16 0.903 0.468 0.903 0.315 0 0.468 0.315 0.468 0.966 0 0.703 0.17 1.01 0.624 1.129 0.404 0.106 0.624 0.426 0.624 0.907 0 0.453 0.183 0.744 0.468 0.744 0.327 0 0.468 0.329 0.468 1.093 0 0.763 0.141 1.093 0.468 1.093 0.258 0 0.47 0.246 0.473 0.546 0.002 0.3 0.143 0.757 0.312 1.014 0.273 0.416 0.342 0.416 0.615 0 0.196 -0.298 0.309 -10.47 0.312 -28.02 l 0.005 -27.547 h 4.37 h 4.37 v 32.931 v 32.931 h -5.931 h -5.931 v -0.936 c 0 -0.601 -0.159 -0.936 -0.443 -0.936 -0.244 0 -0.536 -0.421 -0.649 -0.936 -0.113 -0.515 -0.335 -0.936 -0.493 -0.936 -0.158 0 -0.287 -0.281 -0.287 -0.624 0 -0.347 -0.208 -0.624 -0.468 -0.624 -0.312 0 -0.468 -0.312 -0.468 -0.936 0 -0.728 -0.139 -0.936 -0.624 -0.936 -0.505 0 -0.624 -0.208 -0.624 -1.093 0 -0.763 -0.141 -1.093 -0.468 -1.093 -0.312 0 -0.468 -0.312 -0.468 -0.936 0 -0.624 -0.156 -0.936 -0.468 -0.936 -0.312 0 -0.468 -0.312 -0.468 -0.936 0 -0.624 -0.156 -0.936 -0.468 -0.936 -0.327 0 -0.468 -0.329 -0.468 -1.093 0 -0.763 -0.141 -1.093 -0.468 -1.093 -0.312 0 -0.468 -0.312 -0.468 -0.936 0 -0.728 -0.139 -0.936 -0.624 -0.936 -0.505 0 -0.624 -0.208 -0.624 -1.093 0 -0.763 -0.141 -1.093 -0.468 -1.093 -0.312 0 -0.468 -0.312 -0.468 -0.936 0 -0.624 -0.156 -0.936 -0.468 -0.936 -0.312 0 -0.468 -0.312 -0.468 -0.936 0 -0.624 -0.156 -0.936 -0.468 -0.936 -0.313 0 -0.468 -0.313 -0.468 -0.946 0 -0.535 -0.195 -1.021 -0.449 -1.119 -0.247 -0.095 -0.539 -0.582 -0.649 -1.083 -0.11 -0.501 -0.399 -0.91 -0.643 -0.91 -0.285 0 -0.443 -0.335 -0.443 -0.936 0 -0.624 -0.156 -0.936 -0.468 -0.936 -0.26 0 -0.468 -0.277 -0.468 -0.624 0 -0.347 -0.208 -0.624 -0.468 -0.624 -0.312 0 -0.468 -0.312 -0.468 -0.936 0 -0.624 -0.156 -0.936 -0.468 -0.936 -0.327 0 -0.468 -0.329 -0.468 -1.093 0 -0.763 -0.141 -1.093 -0.468 -1.093 -0.312 0 -0.468 -0.312 -0.468 -0.936 0 -0.728 -0.139 -0.936 -0.624 -0.936 -0.486 0 -0.624 -0.208 -0.624 -0.936 0 -0.624 -0.156 -0.936 -0.468 -0.936 -0.327 0 -0.468 -0.329 -0.468 -1.093 0 -0.763 -0.141 -1.093 -0.468 -1.093 -0.312 0 -0.468 -0.312 -0.468 -0.936 0 -0.624 -0.156 -0.936 -0.468 -0.936 -0.313 0 -0.468 -0.313 -0.468 -0.946 0 -0.553 -0.195 -1.021 -0.468 -1.126 -0.267 -0.102 -0.468 -0.568 -0.468 -1.083 0 -0.695 -0.144 -0.903 -0.624 -0.903 -0.486 0 -0.624 -0.208 -0.624 -0.936 0 -0.624 -0.156 -0.936 -0.468 -0.936 -0.327 0 -0.468 -0.329 -0.468 -1.093 0 -0.736 -0.145 -1.093 -0.443 -1.093 -0.244 0 -0.536 -0.421 -0.649 -0.936 -0.113 -0.515 -0.324 -0.936 -0.468 -0.936 -0.144 0 -0.355 -0.421 -0.468 -0.936 -0.113 -0.515 -0.319 -0.936 -0.458 -0.936 -0.139 0 -0.345 -0.492 -0.458 -1.093 -0.123 -0.654 -0.387 -1.093 -0.659 -1.093 -0.394 0 -0.454 3.699 -0.454 27.937 v 27.937 h -4.37 h -4.37 v -32.931 z" style="opacity:0.99"/></g></g></svg>