<svg xmlns="http://www.w3.org/2000/svg" viewBox="0 0 256 256"><g transform="translate(0 -796.36)" style="color:#fff"><path d="m 44.834 833.49 c -201.82 266.38 353.59 304.22 175.35 32.31 -40.634 -61.991 -121.89 -102.86 -175.35 -32.31 z" style="fill:#fff"/><g transform="matrix(3.47571 0 0 3.24572 40.786 853.53)"><path d="m 6.429 5.5 c -1.069 0 -1.929 0.869 -1.929 1.947 v 16.553 h 18.5 v -18.5 h -16.571 z" style="fill:#e35d4f"/><path d="m 25 5.5 v 18.5 h 18.5 v -16.553 c 0 -1.079 -0.869 -1.947 -1.947 -1.947 h -16.553 z" style="fill:#ffa07a"/><path d="m 4.5 26 v 16.571 c 0 1.069 0.86 1.929 1.929 1.929 h 16.571 v -18.5 h -18.5 z" style="fill:#ffdead"/><path d="m 25.312 26 v 18.5 h 16.553 c 1.079 0 1.947 -0.86 1.947 -1.929 v -16.571 h -18.5 z" style="fill:#ff4500"/></g></g></svg>