<svg xmlns="http://www.w3.org/2000/svg" viewBox="0 0 256 256"><defs><clipPath><rect y="6" x="6" rx="6" height="84" width="84" style="fill:#f0f"/></clipPath></defs><g transform="translate(0 -796.36)" style="color:#000"><path d="m 2.967 952.88 c 15.875 104.05 156.87 131.89 219.1 57.62 54.798 -55.17 41.16 -160.78 -26.05 -196.99 -77.21 -48.44 -189.69 11.446 -195.83 107.88 c -0.632 10.565 0.26 21.245 2.771 31.493 z" style="fill:#fff"/><g transform="matrix(2.58659 0 0 2.33589 4.386 811.44)"><path d="m 40.688 10.469 c -3.121 0.477 -6.359 1.62 -8.875 3.719 a 0.79 0.79 0 0 0 -0.25 0.313 c -0.756 1.964 -0.472 3.966 -0.031 5.844 0.44 1.878 1.053 3.691 1.219 5.344 a 0.79 0.79 0 0 0 0 0.094 c 0.241 1.057 -0.151 1.782 -0.938 2.656 -0.786 0.874 -1.927 1.73 -2.75 2.813 a 0.79 0.79 0 0 0 -0.094 0.125 c -0.259 0.524 -0.356 0.527 -0.688 0.531 c -0.332 0.004 -0.908 -0.19 -1.531 -0.406 a 0.79 0.79 0 0 0 -0.188 -0.031 c -1.195 -0.087 -2.747 -0.933 -4.375 -1.531 -0.814 -0.299 -1.663 -0.547 -2.563 -0.5 -0.899 0.047 -1.838 0.421 -2.625 1.188 a 0.79 0.79 0 0 0 -0.125 0.188 c -0.748 1.395 -2.039 3.412 -2.719 5.5 -0.34 1.044 -0.526 2.129 -0.375 3.188 0.149 1.045 0.688 2.052 1.656 2.813 0.011 0.009 0.02 0.022 0.031 0.031 1.347 1.109 2.97 1.737 4.406 2.406 1.384 0.646 2.543 1.345 3.281 2.375 v 6.094 c -2.78 2.155 -5.899 4.05 -8.531 6.656 a 0.79 0.79 0 0 0 -0.188 0.344 c -0.61 2.026 -0.098 4.129 0.813 6.03 0.911 1.902 2.216 3.624 3.438 4.938 a 0.79 0.79 0 0 0 0.219 0.156 c 0.47 0.244 1.117 0.737 1.875 1.063 0.7 0.3 1.635 0.333 2.469 -0.156 l 0.031 0.063 c 2.884 -1.126 5.594 -2.53 8.406 -3.25 0.384 0.359 0.788 0.746 1.063 1 0.202 0.187 0.342 0.35 0.375 0.438 0.033 0.088 0.028 0.098 -0.063 0.281 a 0.79 0.79 0 0 0 -0.063 0.219 c -0.517 3.079 -1.639 6.254 -1.656 9.656 a 0.79 0.79 0 0 0 0.031 0.188 c 0.584 2.248 2.285 3.553 4.156 4.219 1.871 0.666 3.943 0.805 5.594 0.969 a 0.79 0.79 0 0 0 0.031 0 c 2.117 0.164 3.9 -1.25 4.719 -3.094 0.006 -0.007 -0.006 -0.024 0 -0.031 0.03 -0.068 0.098 -0.118 0.125 -0.188 0.954 -1.252 1.506 -2.779 2.156 -4.063 0.685 -1.352 1.374 -2.301 2.563 -2.563 a 0.79 0.79 0 0 0 0.156 -0.063 c 0.662 -0.273 1.037 -0.247 1.281 -0.125 0.244 0.122 0.507 0.448 0.688 1.125 a 0.79 0.79 0 0 0 0.031 0.094 c 1.232 2.86 3.62 5.271 6.688 6.125 a 0.79 0.79 0 0 0 0.406 0.031 c 1.922 -0.461 3.225 -1.868 4.531 -2.469 a 0.79 0.79 0 0 0 0.031 -0.031 c 1.458 -0.819 2.668 -2.133 3.219 -3.656 a 0.79 0.79 0 0 0 0.031 -0.219 c 0.211 -2.993 -0.78 -5.773 -0.844 -8.344 1.023 -1.333 1.831 -2.925 2.688 -3.875 0.463 -0.514 0.919 -0.805 1.406 -0.906 0.488 -0.101 1.109 -0.037 2 0.469 a 0.79 0.79 0 0 0 0.063 0.031 c 2.142 0.943 4.125 0.451 5.438 -0.781 1.243 -1.167 1.938 -2.901 2.281 -4.625 0.024 -0.041 0.009 -0.084 0.031 -0.125 0.01 -0.054 0.053 -0.102 0.063 -0.156 0.526 -1.027 0.724 -2.043 0.531 -2.938 -0.21 -0.976 -0.775 -1.773 -1.469 -2.438 -1.322 -1.265 -3.113 -2.142 -4.406 -2.906 -0.323 -0.55 -0.396 -1.296 -0.313 -2.25 0.089 -1.013 0.301 -2.169 0.25 -3.313 a 0.79 0.79 0 0 0 0 -0.156 c -0.11 -0.476 -0.031 -0.592 0.281 -0.906 0.312 -0.314 0.866 -0.663 1.406 -1.125 a 0.79 0.79 0 0 0 0.031 0 c 0.808 -0.731 1.984 -1.447 3.03 -2.344 1.047 -0.896 2 -2.084 2.094 -3.688 a 0.79 0.79 0 0 0 0 -0.188 c -0.302 -1.361 -0.511 -3.186 -1.094 -4.844 c -0.568 -1.617 -1.591 -3.146 -3.438 -3.781 -0.046 -0.016 -0.078 -0.048 -0.125 -0.063 v 0.031 c -0.894 -0.448 -1.859 -0.413 -2.75 -0.219 -0.931 0.203 -1.821 0.54 -2.563 0.781 -0.741 0.241 -1.34 0.316 -1.438 0.281 -0.049 -0.017 -0.014 -0.009 -0.063 -0.125 -0.049 -0.116 -0.119 -0.404 -0.094 -0.875 a 0.79 0.79 0 0 0 -0.063 -0.344 c -0.596 -1.366 -1.799 -1.956 -2.344 -2.438 -0.273 -0.241 -0.351 -0.389 -0.375 -0.563 c -0.024 -0.174 0.022 -0.527 0.406 -1.156 a 0.79 0.79 0 0 0 0.094 -0.25 c 0.292 -1.566 0.87 -3.596 0.781 -5.531 -0.044 -0.967 -0.282 -1.949 -0.844 -2.781 -0.528 -0.783 -1.386 -1.374 -2.5 -1.75 c -0.059 -0.037 -0.128 -0.058 -0.188 -0.094 -2.577 -1.54 -5.789 -2.159 -8.719 -1.375 a 0.79 0.79 0 0 0 -0.313 0.156 c -1.462 1.342 -1.904 3.255 -2.719 4.469 a 0.79 0.79 0 0 0 -0.031 0.063 c -0.838 1.554 -1.691 3.104 -2.531 4.656 -0.512 0.021 -1.065 0.068 -1.406 0.094 -0.25 0.019 -0.395 -0.013 -0.438 -0.031 -0.043 -0.018 -0.045 0.037 -0.094 -0.125 a 0.79 0.79 0 0 0 -0.063 -0.156 c -1.633 -2.924 -2.999 -6.162 -5.219 -8.938 a 0.79 0.79 0 0 0 -0.125 -0.094 c -1.027 -0.881 -2.283 -0.894 -3.281 -0.875 a 0.79 0.79 0 0 0 -0.125 0 z" style="fill:#ff4500;opacity:0.05"/><g transform="translate(0 -0.464)"><path d="m 38.892 83.18 c -2.6 -0.381 -4.63 -1.528 -4.949 -2.798 -0.132 -0.526 0.153 -2.802 0.634 -5.06 1.224 -5.747 1.183 -6.167 -0.773 -7.934 -0.906 -0.818 -1.787 -1.488 -1.959 -1.488 -0.172 0 -2.254 0.83 -4.627 1.843 -4.706 2.01 -5.705 2.181 -7.161 1.227 -1.087 -0.712 -3.685 -6.29 -3.464 -7.438 0.079 -0.41 2.086 -2.157 4.461 -3.882 l 4.317 -3.137 v -4.901 v -4.901 l -4.629 -2.38 c -3.56 -1.83 -4.629 -2.569 -4.629 -3.202 0 -0.452 0.569 -2.297 1.264 -4.1 1.089 -2.823 1.4 -3.278 2.242 -3.278 0.538 0 1.126 0.248 1.307 0.55 0.181 0.303 1.07 0.75 1.975 0.994 0.905 0.244 2.745 0.772 4.088 1.174 1.93 0.578 2.479 0.62 2.619 0.2 0.097 -0.292 1.451 -1.974 3.01 -3.739 1.558 -1.765 2.833 -3.552 2.834 -3.972 0.001 -0.419 -0.481 -2.939 -1.072 -5.598 -0.591 -2.66 -0.966 -5.117 -0.834 -5.461 0.373 -0.973 1.997 -1.437 2.74 -0.783 0.534 0.47 0.942 0.407 2.674 -0.409 3.901 -1.84 3.659 -1.921 5.568 1.874 0.937 1.864 2.156 4.105 2.708 4.98 0.989 1.567 1.036 1.588 3.285 1.467 l 2.282 -0.123 l 2.741 -4.937 c 2.554 -4.601 2.832 -4.946 4.078 -5.066 1.268 -0.122 1.581 0.183 1.363 1.33 -0.04 0.208 0.202 0.151 0.536 -0.126 0.491 -0.408 1.012 -0.299 2.717 0.564 1.16 0.588 2.225 1.37 2.366 1.738 0.141 0.368 -0.125 2.629 -0.593 5.02 -0.467 2.395 -0.754 4.511 -0.637 4.704 0.117 0.193 0.838 0.612 1.602 0.931 1.282 0.536 1.39 0.722 1.39 2.402 0 1 0.16 1.921 0.356 2.042 0.196 0.121 1.751 -0.248 3.454 -0.821 2.389 -0.803 3.414 -0.962 4.478 -0.691 1.261 0.32 1.46 0.595 2.307 3.191 0.51 1.563 0.835 3.128 0.723 3.478 -0.113 0.351 -1.661 1.787 -3.441 3.192 l -3.236 2.555 l -0.287 3.908 c -0.189 2.568 -0.133 4.195 0.161 4.745 0.246 0.46 1.639 1.522 3.096 2.36 1.456 0.838 2.742 1.768 2.857 2.068 0.231 0.603 -1.517 5.731 -2.181 6.394 -0.284 0.284 -1.281 0.202 -3.101 -0.255 -4.301 -1.08 -4.28 -1.088 -6.988 2.721 l -2.412 3.394 l 0.676 4.158 c 0.372 2.287 0.576 4.416 0.453 4.731 -0.275 0.708 -4.787 3.66 -5.59 3.658 -1.334 -0.004 -3.148 -1.653 -4.398 -3.998 -0.725 -1.361 -1.553 -2.668 -1.838 -2.904 -0.594 -0.491 -4.707 0.114 -5.558 0.817 -0.282 0.233 -1.464 2.207 -2.627 4.386 -2.078 3.895 -2.967 5.04 -3.831 4.94 -0.24 -0.028 -1.387 -0.191 -2.549 -0.361 z m 22.13 -17.794 c 1 -0.817 2.405 -3.044 2.405 -3.822 0 -0.758 0.028 -0.788 -2.648 2.793 -1.131 1.514 -1.01 2.044 0.242 1.029 z m -18.579 -26.13 c 0.926 -1.98 2.161 -4.29 2.743 -5.133 1.632 -2.362 5.288 -5.151 7.785 -5.938 2.548 -0.803 2.985 -1.539 0.685 -1.154 -3.766 0.631 -5.353 1.447 -8.209 4.221 -2.464 2.393 -3.042 3.253 -4.372 6.502 -1.394 3.406 -1.614 5.102 -0.664 5.102 0.191 0 1.106 -1.62 2.032 -3.6 z m -19.452 -0.151 c 0.767 -0.767 0.116 -3.346 -1.144 -4.53 l -1.15 -1.082 l -0.852 1.981 c -1.407 3.27 -1.145 3.917 1.637 4.04 0.577 0.026 1.256 -0.159 1.509 -0.412 z m 16.392 -26.06 c 0.439 -0.332 1.261 -0.588 1.827 -0.569 0.839 0.028 0.877 0.071 0.206 0.233 -0.453 0.109 -0.999 0.365 -1.214 0.569 -0.215 0.204 -0.667 0.371 -1 0.371 -0.46 0 -0.413 -0.151 0.185 -0.604 z" style="fill:#fe0c0c"/><path d="m 39.15 83.02 c -2.693 -0.595 -4.74 -1.613 -5.093 -2.532 -0.141 -0.366 0.101 -2.086 0.538 -3.821 1.739 -6.912 1.61 -7.873 -1.362 -10.14 l -1.408 -1.074 l -4.997 2.102 l -4.997 2.102 l -1.3 -0.759 c -1.726 -1.01 -4.242 -6.513 -3.472 -7.596 0.27 -0.38 2.389 -2.092 4.709 -3.804 l 4.217 -3.112 l -0.041 -4.01 c -0.061 -5.967 0.082 -5.728 -4.999 -8.333 -2.427 -1.245 -4.487 -2.454 -4.577 -2.687 -0.318 -0.828 2.39 -6.967 3.137 -7.11 0.976 -0.186 0.914 0.544 -0.329 3.845 -0.577 1.532 -0.901 2.927 -0.72 3.1 0.181 0.173 2.889 1.459 6.02 2.859 l 5.69 2.544 l 1 -0.94 c 0.55 -0.517 1.189 -1.639 1.419 -2.492 0.395 -1.466 1.218 -2.555 1.218 -1.611 0 1.04 1.11 0.288 2.057 -1.393 0.566 -1 1.856 -3.166 2.867 -4.803 1.261 -2.041 1.673 -3.03 1.312 -3.152 -0.398 -0.133 -0.357 -0.363 0.165 -0.94 0.668 -0.738 0.542 -2.242 -0.163 -1.961 -0.189 0.075 -1.89 1.85 -3.779 3.943 c -2.476 2.743 -3.704 3.806 -4.4 3.806 c -1.854 0 -1.506 -1.137 1.282 -4.193 1.493 -1.636 2.715 -3.225 2.715 -3.53 0 -0.305 -0.463 -2.605 -1.029 -5.111 -1.207 -5.347 -1.264 -6.438 -0.356 -6.787 0.886 -0.34 1.874 0.306 2.538 1.659 0.712 1.451 1.473 1.379 2.593 -0.244 0.508 -0.735 0.937 -1.368 0.955 -1.407 0.017 -0.038 0.514 -0.19 1.103 -0.338 0.967 -0.243 1.179 -0.064 2.164 1.82 1.034 1.978 1.06 2.166 0.484 3.545 -0.534 1.279 -0.535 1.485 -0.005 1.688 0.332 0.127 0.604 0.582 0.604 1.01 0 0.608 0.294 0.775 1.337 0.762 0.735 -0.009 3.535 -0.001 6.222 0.018 2.687 0.019 4.939 -0.02 5.01 -0.086 0.066 -0.066 0.959 -1.926 1.983 -4.132 1.024 -2.206 2.109 -4.01 2.411 -4.01 0.302 0 1.16 0.558 1.906 1.239 0.746 0.682 1.528 1.134 1.737 1 0.54 -0.334 0.459 1.553 -0.23 5.368 -0.327 1.81 -0.601 3.333 -0.609 3.384 -0.008 0.051 -0.555 0.372 -1.215 0.713 -1.08 0.559 -1.359 0.553 -2.777 -0.057 -2.543 -1.093 -8.379 -0.962 -11.449 0.258 -2.844 1.13 -6.818 4.656 -8.119 7.203 -1.844 3.612 -2.301 5.675 -2.01 9.109 0.149 1.789 0.118 4.147 -0.069 5.239 -0.203 1.187 -0.183 2.18 0.05 2.469 0.215 0.266 0.704 1.871 1.087 3.569 0.868 3.844 1.613 5.972 2.731 7.8 l 0.87 1.423 l 0.581 -1.109 c 0.586 -1.118 2.2 -1.838 3.01 -1.34 0.648 0.4 0.527 -0.708 -0.274 -2.507 -0.586 -1.316 -0.709 -2.879 -0.709 -8.999 0 -7.12 0.044 -7.522 1.153 -10.425 0.634 -1.661 1.092 -3.059 1.018 -3.107 -0.074 -0.049 -0.644 -0.407 -1.267 -0.796 -0.725 -0.453 -1.131 -1.064 -1.131 -1.698 0 -2.141 2.678 -3.092 3.879 -1.377 l 0.634 0.906 l 1.138 -1.064 c 2 -1.873 3.733 -2.516 6.115 -2.27 2.738 0.283 3.465 0.687 5.334 2.968 1.603 1.956 2.443 4.79 1.974 6.66 -0.224 0.891 -0.134 1 0.721 0.879 0.809 -0.115 1.038 -0.474 1.332 -2.092 0.405 -2.224 0.19 -3.096 -0.855 -3.467 -2.117 -0.752 -2.816 -2.713 -1.417 -3.979 0.948 -0.858 1.879 -0.863 3.168 -0.018 0.967 0.633 1.242 0.628 4.103 -0.083 0.535 -0.133 0.19 0.363 -0.987 1.421 l -1.81 1.625 l 0.304 4.462 c 0.167 2.454 0.275 5.617 0.24 7.03 -0.043 1.749 0.142 2.86 0.58 3.486 0.354 0.505 0.652 0.739 0.662 0.519 0.01 -0.22 0.378 0.282 0.818 1.115 0.605 1.146 1.452 1.836 3.479 2.834 1.473 0.725 2.679 1.496 2.679 1.713 0 0.217 -0.388 1.672 -0.863 3.235 -0.964 3.175 -0.957 3.171 -4.486 2.224 -3.568 -0.958 -3.662 -0.918 -6.5 2.712 l -2.592 3.316 l 0.67 4.274 c 0.369 2.351 0.563 4.612 0.432 5.02 -0.292 0.919 -4.272 3.393 -5.458 3.393 -1.294 0 -2.469 -1.152 -4.193 -4.114 l -1.557 -2.674 l -2.379 0.084 c -1.309 0.046 -2.761 0.337 -3.226 0.646 -0.466 0.309 -1.972 2.573 -3.347 5.03 -1.375 2.458 -2.685 4.511 -2.912 4.563 -0.226 0.052 -1.43 -0.13 -2.674 -0.405 z m 20.15 -13.529 c 1.73 -0.863 3.227 -2.01 4.283 -3.28 1.529 -1.839 1.584 -1.996 0.94 -2.707 -0.376 -0.415 -0.689 -1.388 -0.696 -2.162 l -0.013 -1.408 l -1.024 1.234 c -0.563 0.679 -1.652 1.988 -2.42 2.909 -2.677 3.211 -7.373 3.639 -9.988 0.909 l -1.103 -1.152 l -0.433 1.341 c -0.356 1.102 -0.672 1.364 -1.771 1.47 -0.735 0.071 -1.333 0.256 -1.328 0.411 0.011 0.366 3.102 2.605 4.48 3.247 0.586 0.273 2.269 0.5 3.739 0.505 2.2 0.007 3.146 -0.226 5.334 -1.319 z m -35.18 -8.183 c 2.292 -0.6 3.976 -0.791 5.631 -0.641 l 2.362 0.214 l -0.414 -1.089 c -0.228 -0.599 -0.663 -1.367 -0.968 -1.707 -0.305 -0.34 -0.616 -1.118 -0.691 -1.729 l -0.137 -1.111 l -1.646 1.043 c -0.905 0.574 -3.298 1.999 -5.317 3.168 -3.607 2.088 -5.159 3.601 -3.069 2.993 0.539 -0.157 2.452 -0.67 4.25 -1.141 z m 42.43 -3.944 c 0.239 -0.967 0.722 -1.693 1.295 -1.944 0.503 -0.221 1.129 -0.921 1.393 -1.556 0.758 -1.829 0.874 -1.024 0.156 1.088 -0.624 1.837 -0.557 2.721 0.205 2.721 0.196 0 0.839 -1.054 1.429 -2.342 0.942 -2.059 1.01 -2.473 0.544 -3.426 -0.5 -1.027 -0.596 -1.056 -1.829 -0.552 -0.923 0.378 -1.381 0.894 -1.575 1.775 -0.334 1.52 -0.82 1.859 -2.678 1.865 -1.256 0.004 -1.456 0.146 -1.568 1.111 -0.081 0.7 0.184 1.418 0.72 1.954 1.18 1.18 1.47 1.074 1.907 -0.695 z m 5.726 -15.742 c -0.145 -0.235 -0.212 -1.031 -0.148 -1.769 0.067 -0.775 -0.185 -1.77 -0.595 -2.355 l -0.71 -1.014 l 1.551 -0.307 c 3.673 -0.727 3.526 -0.624 3.26 -2.266 -0.175 -1.077 -0.054 -1.713 0.425 -2.242 1.391 -1.537 2.02 -0.674 2.759 3.787 0.228 1.374 0.112 1.544 -2.5 3.703 -3.385 2.797 -3.712 2.996 -4.04 2.463 z m 3.5 -3.492 c 0.31 -0.374 0.343 -0.617 0.084 -0.617 -0.756 0 -1.73 0.488 -1.73 0.867 0 0.589 1.087 0.424 1.646 -0.25 z m -22.01 -15.421 c -0.137 -0.222 0.824 -2.35 2.136 -4.728 2.237 -4.057 3.428 -5.305 4.262 -4.47 0.352 0.352 -2.208 8.095 -3.01 9.09 -0.488 0.608 -3.034 0.691 -3.393 0.111 z" style="fill:#f60000"/><path d="m 38.874 82.8 c -3.231 -0.925 -4.658 -1.854 -4.652 -3.03 0.003 -0.504 0.371 -2.397 0.818 -4.208 1.266 -5.125 1.146 -6.222 -0.909 -8.316 -0.952 -0.97 -1.953 -1.764 -2.225 -1.764 -0.271 0 -2.482 0.833 -4.912 1.851 -4.671 1.957 -5.717 2.154 -6.854 1.29 -0.883 -0.671 -3.211 -5.532 -3.179 -6.638 0.016 -0.561 1.458 -1.863 4.525 -4.09 l 4.501 -3.267 l -0.006 -4.756 c -0.003 -2.616 -0.142 -4.964 -0.309 -5.219 -0.166 -0.255 -2.208 -1.418 -4.537 -2.584 -2.329 -1.167 -4.338 -2.389 -4.463 -2.716 c -0.213 -0.554 1.69 -6.146 2.359 -6.935 0.166 -0.195 0.49 -0.238 0.721 -0.095 0.269 0.166 0.06 1.32 -0.581 3.204 -0.551 1.619 -1 3.157 -1 3.417 0 0.26 2.592 1.649 5.76 3.086 l 5.76 2.614 v 5.292 v 5.292 l -1.749 1.045 c -0.962 0.575 -3.322 1.928 -5.246 3.01 c -2.474 1.389 -3.497 2.192 -3.497 2.745 c 0 0.907 -0.171 0.915 5.687 -0.255 2.449 -0.489 4.872 -0.784 5.384 -0.655 0.513 0.129 1.649 0.91 2.524 1.736 1.857 1.751 2.242 1.341 1.01 -1.075 -0.594 -1.164 -0.79 -2.086 -0.613 -2.889 0.191 -0.868 0.011 -1.515 -0.681 -2.451 -0.787 -1.065 -0.859 -1.402 -0.439 -2.073 0.28 -0.448 0.503 -2.212 0.507 -3.996 0.007 -3.805 0.925 -8.03 2.057 -9.466 0.449 -0.571 0.82 -1.245 0.824 -1.498 0.016 -1.077 5.197 -8.13 8.241 -11.22 l 3.306 -3.356 l 4.406 -0.264 c 2.423 -0.145 4.856 -0.301 5.407 -0.347 0.793 -0.066 1.296 -0.669 2.427 -2.906 1.164 -2.304 1.498 -2.695 1.816 -2.127 0.322 0.575 0.75 0.646 2.462 0.411 l 2.073 -0.285 l -0.246 1.383 c -0.135 0.761 -0.368 2.349 -0.517 3.529 -0.351 2.777 -1.557 3.739 -3.826 3.052 -5.262 -1.593 -6.143 -1.613 -10.65 -0.238 -3.208 0.979 -3.651 1.256 -6.402 4.01 -2.475 2.479 -3.147 3.462 -4.134 6.05 -1.052 2.754 -1.191 3.683 -1.297 8.64 -0.093 4.38 0.036 6.076 0.612 8.02 0.402 1.358 0.949 3.383 1.217 4.5 0.699 2.919 4.293 8.669 6.358 10.173 2.691 1.96 3.812 2.417 6.559 2.674 2.928 0.273 5.854 -0.685 8.622 -2.825 1.101 -0.851 1.602 -1.041 1.736 -0.659 0.435 1.235 1.44 8.651 1.221 9.01 -0.332 0.537 -4.632 3.256 -5.15 3.256 -1.334 0 -2.898 -1.457 -4.293 -3.999 -0.842 -1.534 -1.705 -2.899 -1.917 -3.03 -0.47 -0.296 -4.717 0.336 -5.643 0.84 -0.367 0.199 -1.835 2.507 -3.262 5.129 -1.428 2.621 -2.724 4.753 -2.88 4.737 -0.156 -0.016 -1.429 -0.357 -2.828 -0.757 z m 13.61 -16.648 c -1.905 -0.861 -3.81 -3.402 -4.974 -6.634 c -0.933 -2.59 -1.038 -3.501 -1.045 -9.05 -0.008 -6.132 0.404 -8.423 2.348 -13.06 0.223 -0.532 0.033 -0.816 -0.746 -1.112 -2.02 -0.766 -2.301 -3.178 -0.46 -3.884 0.849 -0.326 2.244 0.42 2.244 1.199 0 0.885 1.135 0.734 1.645 -0.219 0.835 -1.561 3.566 -2.575 6.44 -2.392 2.195 0.14 2.795 0.354 3.868 1.381 2.294 2.195 2.952 3.67 2.935 6.584 -0.016 2.817 0.284 3.15 2.01 2.228 0.657 -0.352 0.794 -0.87 0.787 -2.983 -0.009 -2.476 -0.051 -2.576 -1.337 -3.174 -2.031 -0.944 -1.944 -3.703 0.117 -3.703 1.254 0 4.243 1.506 3.531 1.779 -0.542 0.208 -0.618 1.414 -0.541 8.591 l 0.09 8.349 l -1.138 2.354 c -1.076 2.227 -1.204 2.341 -2.365 2.109 -1.894 -0.379 -2.574 0.436 -2.261 2.711 0.244 1.773 0.139 2.054 -1.79 4.8 -2.807 3.997 -6.265 5.52 -9.356 4.122 z m 9.895 -15.55 c 1.748 -0.065 2.859 -0.292 2.981 -0.611 0.2 -0.521 -1.406 -2.989 -3.522 -5.416 -1.024 -1.174 -1.414 -1.347 -2.783 -1.234 -1.126 0.092 -1.571 0.311 -1.518 0.748 0.117 0.973 1.03 5.908 1.203 6.506 0.086 0.297 0.313 0.444 0.505 0.325 0.192 -0.118 1.602 -0.262 3.135 -0.318 z m -17.196 14.952 c -0.972 -1.074 -0.843 -2 0.389 -2.81 1.271 -0.833 2.224 -0.421 2.806 1.215 0.723 2.027 -1.707 3.24 -3.196 1.595 z m 19.473 -2.545 c -0.611 -0.611 -0.758 -1.125 -0.56 -1.954 0.386 -1.616 0.504 -1.742 1.619 -1.742 0.552 0 1.01 -0.139 1.01 -0.309 0.003 -0.17 0.177 -0.579 0.386 -0.909 0.328 -0.518 0.487 -0.504 1.16 0.105 0.429 0.388 2.338 1.01 4.242 1.38 3.676 0.716 4.657 1.18 3.721 1.758 -0.32 0.198 -1.46 0.104 -2.671 -0.218 -3.685 -0.981 -4.829 -0.778 -6.121 1.089 -1.285 1.858 -1.631 1.957 -2.787 0.801 z m 8.235 -22.21 c 0 -0.226 0.289 -0.411 0.641 -0.411 0.353 0 0.527 0.185 0.387 0.411 -0.14 0.226 -0.428 0.411 -0.641 0.411 -0.213 0 -0.387 -0.185 -0.387 -0.411 z m 3.538 -6.629 c -0.174 -1.089 -0.094 -1.904 0.225 -2.289 0.631 -0.76 0.967 -0.212 1.37 2.232 0.257 1.56 0.201 1.749 -0.518 1.749 -0.626 0 -0.867 -0.378 -1.077 -1.692 z m -45.503 0.009 c 0 -0.247 1.023 -1.589 2.272 -2.983 1.25 -1.394 2.379 -2.945 2.51 -3.448 0.131 -0.502 -0.269 -3.219 -0.888 -6.04 -1.123 -5.108 -1.135 -6.421 -0.062 -6.421 0.914 0 1.739 1.243 2.935 4.423 0.617 1.641 1.205 2.983 1.306 2.983 0.101 0 0.646 -0.303 1.211 -0.673 0.565 -0.37 1.144 -0.556 1.287 -0.413 0.439 0.439 -0.639 2.32 -1.329 2.32 -0.358 0 -0.529 0.196 -0.381 0.436 0.157 0.253 0.782 0.323 1.495 0.166 1.156 -0.254 1.219 -0.202 1.092 0.902 -0.106 0.93 -0.366 1.198 -1.262 1.301 -0.812 0.094 -2.137 1.216 -4.731 4.01 -2.49 2.683 -3.889 3.881 -4.529 3.882 -0.509 0 -0.926 -0.202 -0.926 -0.448 z m 23.21 -11.64 c -0.12 -0.312 0.829 -2.441 2.108 -4.731 1.681 -3.01 2.543 -4.164 3.111 -4.164 0.432 0 0.785 0.1 0.785 0.223 0 0.796 -3.01 8.656 -3.411 8.912 -0.81 0.515 -2.358 0.372 -2.592 -0.239 z m 7.238 -4.394 c 0 -0.24 0.185 -0.321 0.411 -0.181 0.226 0.14 0.411 0.336 0.411 0.436 0 0.1 -0.185 0.181 -0.411 0.181 -0.226 0 -0.411 -0.196 -0.411 -0.436 z" style="fill:#e10000"/><path d="m 39.566 82.88 c -5.382 -1.755 -5.642 -2.091 -4.603 -5.955 1.109 -4.128 1.413 -6.595 0.958 -7.792 -0.211 -0.556 -1.226 -1.701 -2.255 -2.544 l -1.87 -1.533 l -4.724 1.89 c -6.109 2.445 -6.645 2.387 -8.382 -0.896 -1.674 -3.165 -1.806 -4.171 -0.652 -4.954 0.836 -0.568 0.88 -0.551 0.668 0.258 -0.125 0.479 0.046 1.182 0.383 1.573 0.335 0.389 1.145 1.678 1.8 2.866 1.146 2.079 1.808 2.693 1.808 1.679 0 -0.265 -0.242 -0.774 -0.538 -1.131 -0.791 -0.955 -1.534 -2.856 -1.195 -3.058 0.446 -0.266 4.533 -1.021 7.131 -1.318 l 2.312 -0.264 l 4.401 3.8 c 2.421 2.09 4.688 4.237 5.04 4.772 0.462 0.705 1.02 0.973 2.03 0.973 0.766 0 1.389 -0.139 1.384 -0.309 -0.005 -0.17 -1.376 -1.666 -3.047 -3.326 -4.943 -4.909 -7.216 -10.177 -7.225 -16.748 -0.009 -6 1.209 -9.489 5.622 -16.1 3.952 -5.918 7.877 -8.775 13.05 -9.5 2.412 -0.338 1.536 0.5 -1.621 1.551 -1.889 0.629 -3.464 1.561 -5.336 3.159 -3.01 2.572 -3.762 3.669 -5.295 7.758 -0.965 2.574 -1.095 3.543 -1.159 8.64 -0.063 4.974 0.064 6.24 0.948 9.48 2.579 9.451 8.24 15.393 14.668 15.393 2.871 0 6.01 -1.08 8.09 -2.782 1.551 -1.27 1.734 -0.947 2.304 4.065 l 0.439 3.861 l -1.096 0.878 c -0.603 0.483 -1.775 1.26 -2.606 1.727 -2.358 1.325 -3.143 0.748 -6.318 -4.638 l -1.139 -1.932 l -2.359 0.269 c -2.935 0.335 -4.069 1.121 -5.696 3.944 -3.225 5.597 -3.629 6.355 -3.543 6.644 0.114 0.383 -0.077 0.351 -2.377 -0.399 z m -1.835 -4.127 c 0.361 -1.301 0.829 -2.902 1.04 -3.559 0.566 -1.761 0.468 -2.196 -0.262 -1.155 -0.355 0.507 -1 2.212 -1.44 3.789 c -0.923 3.329 -0.918 3.29 -0.395 3.29 c 0.22 0 0.695 -1.065 1.056 -2.366 z m 7.904 -12.89 c -1.066 -0.621 -0.902 -2.199 0.295 -2.84 1.232 -0.659 2.277 -0.017 2.277 1.401 0 1.612 -1.16 2.261 -2.571 1.439 z m 6.798 0.023 c -1.546 -0.622 -3.291 -2.936 -4.491 -5.956 -1.093 -2.751 -1.144 -3.194 -1.147 -9.874 -0.003 -6.658 0.051 -7.128 1.116 -9.781 0.616 -1.533 1.118 -3.01 1.117 -3.291 -0.001 -0.278 -0.57 -0.828 -1.263 -1.222 -0.922 -0.525 -1.225 -0.967 -1.129 -1.646 0.19 -1.336 2.094 -1.496 2.968 -0.249 l 0.652 0.931 l 1.342 -1.273 c 2.297 -2.18 3.769 -2.709 6.62 -2.378 2.065 0.24 2.717 0.514 3.682 1.547 1.896 2.03 2.514 3.57 2.538 6.323 0.012 1.395 0.131 2.646 0.264 2.779 0.133 0.133 0.812 0.043 1.509 -0.2 1.055 -0.368 1.345 -0.767 1.734 -2.388 c 0.556 -2.317 0.046 -4.169 -1.147 -4.169 c -0.423 0 -1.09 -0.355 -1.483 -0.789 -1.468 -1.622 0.951 -3.384 2.73 -1.989 0.498 0.391 0.722 1.648 0.933 5.246 0.536 9.136 0.361 11.753 -0.97 14.504 -0.964 1.992 -2.073 2.822 -1.195 0.894 0.371 -0.813 0.369 -1.241 -0.009 -1.846 -0.27 -0.433 -0.491 -1.128 -0.491 -1.545 0 -0.417 -0.991 -1.854 -2.203 -3.194 -1.212 -1.34 -2.338 -2.863 -2.504 -3.385 -0.345 -1.089 -1.723 -1.725 -3.737 -1.725 -0.991 0 -1.706 -0.329 -2.463 -1.131 l -1.066 -1.131 l -0.802 0.971 c -0.441 0.534 -0.796 1.09 -0.789 1.234 0.007 0.145 0.828 0.757 1.824 1.361 2.281 1.384 3.091 2.945 3.392 6.544 0.223 2.663 0.303 2.849 1.222 2.849 0.541 0 1.393 0.257 1.895 0.571 0.501 0.314 1.652 0.706 2.557 0.872 1.527 0.279 1.579 0.331 0.72 0.726 -0.805 0.37 -0.926 0.737 -0.926 2.823 0 2.23 -0.145 2.596 -2.083 5.251 -1.524 2.089 -2.519 3.03 -3.711 3.506 -1.786 0.714 -3.781 0.803 -5.203 0.231 z m 2.479 -7.355 c 0.181 -0.18 0.122 -0.78 -0.13 -1.332 -0.417 -0.916 -0.683 -1 -3 -0.961 -2.441 0.042 -2.54 0.085 -2.437 1.045 0.171 1.592 0.429 2.026 1.426 2.405 0.894 0.339 3.323 -0.338 4.143 -1.156 z m -4.337 -13.444 c -0.405 -0.405 -1.134 0.217 -1.134 0.967 c 0 0.628 0.054 0.627 0.696 -0.014 0.383 -0.383 0.58 -0.811 0.439 -0.952 z m 14.171 17.846 c -1.014 -1.014 -0.429 -3.209 0.855 -3.209 0.467 0 1.171 -0.291 1.564 -0.647 1.223 -1.107 1.446 0.717 0.33 2.703 -0.938 1.668 -1.851 2.052 -2.749 1.154 z m -45.13 -2.677 c 0.226 -0.233 1.707 -1.502 3.291 -2.82 1.584 -1.318 3.03 -2.592 3.216 -2.831 0.601 -0.779 -0.031 -9.77 -0.736 -10.475 -0.345 -0.345 -2.433 -1.562 -4.64 -2.703 -2.206 -1.141 -3.97 -2.259 -3.919 -2.483 0.358 -1.577 2.151 -5.751 2.523 -5.875 0.251 -0.084 -0.009 1.086 -0.579 2.599 -0.57 1.513 -0.939 3.055 -0.82 3.426 0.122 0.382 2.401 1.643 5.259 2.908 2.774 1.228 5.275 2.408 5.558 2.622 c 0.362 0.274 0.514 1.878 0.514 5.425 v 5.04 l -1.543 1.058 c -0.849 0.582 -2.546 1.45 -3.772 1.929 -1.226 0.479 -2.8 1.261 -3.497 1.738 -0.697 0.477 -1.083 0.677 -0.856 0.444 z m 11.726 -26.363 c 0 -0.177 0.557 -0.651 1.237 -1.053 l 1.237 -0.731 l -0.48 1.053 c -0.433 0.949 -1.994 1.521 -1.994 0.731 z m 4.712 -5.349 c 0.148 -0.673 -0.26 -3.414 -0.986 -6.637 -0.681 -3.02 -1.139 -5.652 -1.018 -5.848 0.403 -0.653 1.38 -0.369 1.957 0.569 0.313 0.509 1.29 3.03 2.169 5.601 l 1.6 4.676 l -1.611 1.393 c -1.958 1.693 -2.441 1.749 -2.111 0.247 z m 24.911 -1.694 c -0.339 -0.19 -1.305 -0.47 -2.146 -0.621 -1.93 -0.346 -2.437 -1.065 -0.751 -1.065 1.145 0 1.242 -0.098 1.01 -1.029 -0.218 -0.87 -0.108 -1.038 0.712 -1.093 1.833 -0.121 3.03 0.127 3.747 0.776 c 1.845 1.666 -0.364 4.27 -2.571 3.03 z m -6.583 -4.651 c 0 -0.678 4.55 -8.257 4.804 -8 0.265 0.265 -1.877 7.314 -2.427 7.985 -0.539 0.658 -2.377 0.672 -2.377 0.018 z" style="fill:#c70000"/><path d="m 38.949 82.16 c -1.751 -0.577 -1.165 -0.8 0.977 -0.372 0.707 0.141 1.286 0.419 1.286 0.617 0 0.45 -0.225 0.426 -2.263 -0.246 z m -4.12 -1.872 c -0.143 -0.231 0.068 -1.389 0.47 -2.571 0.816 -2.406 1.229 -1.779 0.784 1.189 -0.262 1.747 -0.718 2.25 -1.254 1.382 z m 23.346 -1.319 c -0.513 -0.247 -1.681 -1.804 -2.595 -3.459 -0.914 -1.655 -1.79 -3.087 -1.946 -3.182 -0.582 -0.352 -5.267 0.632 -6.516 1.369 -1.506 0.887 -2.203 0.493 -2.203 -1.247 0 -0.835 -0.801 -1.883 -3.321 -4.341 -4.201 -4.097 -5.512 -5.983 -7 -10.07 -1.03 -2.822 -1.195 -3.858 -1.191 -7.481 0.006 -5.722 1.328 -9.753 4.963 -15.13 2.241 -3.315 6.638 -7.796 7.646 -7.792 0.526 0.003 -0.134 0.856 -2.159 2.792 -2.667 2.549 -3.043 3.121 -4.39 6.682 -1.389 3.67 -1.877 6.705 -2.048 12.74 -0.016 0.566 0.517 3.086 1.184 5.601 2.67 10.06 8.644 16.15 15.893 16.195 1.831 0.012 6.247 -1.693 7.546 -2.912 0.876 -0.823 0.929 -0.827 1.306 -0.099 0.216 0.417 0.487 2.354 0.603 4.304 l 0.211 3.546 l -2.219 1.494 c -2.434 1.639 -2.419 1.635 -3.76 0.989 z m -21.5 -6.31 c -0.221 -0.58 -0.401 -1.651 -0.401 -2.38 0 -1.055 -0.446 -1.765 -2.197 -3.495 -1.939 -1.915 -2.338 -2.137 -3.394 -1.889 -1.13 0.265 -1.159 0.241 -0.512 -0.441 0.474 -0.499 1.01 -0.64 1.733 -0.459 1.079 0.271 7.662 5.847 7.662 6.49 0 0.539 -1.803 3.217 -2.17 3.223 -0.175 0.003 -0.499 -0.47 -0.72 -1.05 z m -16.787 -4.825 c -0.621 -0.749 -2.531 -4.918 -2.536 -5.537 -0.009 -1.197 0.813 -0.332 2.208 2.323 0.82 1.561 1.491 3.042 1.491 3.291 0 0.615 -0.623 0.574 -1.163 -0.077 z m 25.952 -2.21 c -0.947 -0.382 -0.572 -1.678 0.547 -1.892 1.133 -0.217 1.678 0.454 1.259 1.547 -0.237 0.618 -0.842 0.733 -1.806 0.345 z m 5.39 -0.859 c -0.578 -0.622 -1.302 -1.617 -1.61 -2.21 l -0.559 -1.079 l 1.781 0.201 c 1.611 0.182 1.944 0.054 3.49 -1.343 1.388 -1.254 1.692 -1.786 1.621 -2.84 -0.048 -0.713 0.023 -1.475 0.157 -1.692 0.15 -0.243 -1.252 -0.396 -3.625 -0.396 h -3.869 l -0.013 2.057 c -0.02 3.199 -0.934 1.474 -1.6 -3.02 -0.707 -4.771 -0.138 -10.656 1.378 -14.262 1.255 -2.984 1.353 -4.32 0.317 -4.32 -0.866 0 -1.728 -0.759 -1.728 -1.522 0 -0.765 0.724 -0.661 2.071 0.298 l 1.169 0.833 l 1.505 -1.627 c 1.96 -2.118 3.951 -2.912 6.363 -2.536 2.615 0.407 3.519 1.01 4.799 3.192 0.911 1.554 1.126 2.436 1.144 4.69 0.013 1.527 0.156 2.909 0.318 3.071 0.44 0.44 2.737 -0.629 3.408 -1.587 0.572 -0.816 0.595 -0.808 1.038 0.358 0.483 1.27 0.155 8.709 -0.425 9.648 -0.487 0.787 -1.231 0.076 -1.231 -1.177 0 -0.807 -0.587 -1.696 -2.089 -3.164 -1.149 -1.123 -2.547 -2.814 -3.106 -3.757 -0.859 -1.45 -1.284 -1.761 -2.745 -2.01 -1 -0.169 -2.108 -0.7 -2.635 -1.267 -0.498 -0.537 -1.294 -0.976 -1.768 -0.976 -0.928 0 -2.88 1.836 -2.88 2.709 0 0.292 0.94 1.043 2.089 1.669 2.559 1.393 3.241 2.631 3.553 6.454 0.247 3.03 0.537 3.55 1.969 3.565 0.453 0.005 1.425 0.572 2.16 1.261 1.193 1.118 1.337 1.496 1.337 3.504 0 1.978 -0.12 2.305 -0.989 2.702 -0.544 0.248 -1.482 1.357 -2.085 2.464 -1.308 2.404 -2.744 3.239 -5.565 3.239 -1.759 0 -2.267 -0.182 -3.148 -1.131 z m -0.374 -18.709 c 0.845 -1.207 0.808 -1.554 -0.168 -1.554 -0.769 0 -1.66 1.089 -1.66 2.03 0 0.773 1.166 0.469 1.828 -0.476 z m 14.08 16.686 c -0.409 -0.409 -0.331 -2.11 0.109 -2.382 0.211 -0.13 0.5 -0.048 0.642 0.183 0.175 0.284 0.517 0.281 1.057 -0.008 1.01 -0.539 1.086 0.242 0.157 1.568 -0.635 0.907 -1.437 1.168 -1.965 0.64 z m -39.771 -6.146 c 0 -0.167 0.311 -0.648 0.692 -1.069 0.573 -0.633 0.674 -1.511 0.585 -5.085 -0.059 -2.376 -0.265 -4.87 -0.458 -5.542 -0.414 -1.444 0.04 -1.57 1.804 -0.499 l 1.183 0.718 l -0.07 4.731 c -0.064 4.284 -0.156 4.814 -0.977 5.614 -0.941 0.917 -2.758 1.662 -2.758 1.131 z m 40.31 -22.603 c -0.336 -0.404 -0.384 -0.778 -0.133 -1.029 0.499 -0.499 2.608 0.428 2.612 1.149 0.005 0.729 -1.849 0.639 -2.48 -0.12 z m -28.952 -7.02 c -0.362 -0.943 -2.302 -9.619 -2.302 -10.294 c 0 -0.807 1.136 -0.693 1.587 0.158 0.942 1.776 3.411 9.637 3.199 10.188 -0.315 0.821 -2.165 0.782 -2.485 -0.052 z m 25.14 -0.013 c -0.537 -0.537 -0.28 -0.969 0.574 -0.969 0.479 0 0.785 0.216 0.694 0.489 -0.2 0.601 -0.887 0.861 -1.269 0.48 z m -6.633 -5.04 c -0.125 -0.203 0.076 -0.485 0.446 -0.627 0.801 -0.307 1.156 -0.054 0.779 0.556 -0.331 0.535 -0.917 0.569 -1.225 0.07 z" style="fill:#b00"/><path d="m 35.07 79.65 c 0.02 -0.479 0.117 -0.577 0.249 -0.249 0.119 0.297 0.104 0.652 -0.032 0.789 -0.137 0.137 -0.234 -0.106 -0.216 -0.54 z m 23.09 -0.727 c -0.988 -0.547 -4.696 -6.623 -4.29 -7.03 0.128 -0.128 0.826 -0.232 1.551 -0.232 1.43 0 4.64 -1.271 6.487 -2.57 0.635 -0.446 1.243 -0.724 1.35 -0.617 0.107 0.107 0.307 1.142 0.444 2.3 0.296 2.501 -0.103 3.138 -2.676 4.279 -1.622 0.719 -1.758 0.891 -1.494 1.887 0.639 2.416 0.3 2.907 -1.372 1.98 z m -12.237 -6.13 c -0.154 -0.509 -2.271 -2.962 -4.705 -5.451 -4.827 -4.937 -5.153 -5.43 -6.79 -10.286 -0.987 -2.928 -1.09 -3.746 -0.931 -7.406 0.233 -5.37 1.82 -9.82 5.066 -14.201 2.498 -3.372 5.876 -6.987 6.528 -6.987 0.228 0 -0.636 1.065 -1.92 2.366 -1.962 1.989 -2.599 3.036 -3.999 6.577 -1.135 2.87 -1.665 4.844 -1.665 6.199 0 1.093 -0.195 3.044 -0.434 4.334 -0.372 2.01 -0.315 2.712 0.395 4.91 0.456 1.41 1.025 3.582 1.265 4.826 0.307 1.592 1.156 3.371 2.864 6 1.999 3.08 2.927 4.081 5.25 5.668 1.552 1.06 3.507 2.039 4.343 2.175 1.859 0.302 1.617 0.965 -0.351 0.965 -0.786 0 -2.094 0.278 -2.906 0.617 -1.835 0.767 -1.68 0.79 -2.01 -0.309 z m -9.224 -1.516 c -0.234 -0.438 -0.426 -1.189 -0.426 -1.67 0 -0.512 -0.767 -1.572 -1.851 -2.559 -1.018 -0.927 -1.851 -1.842 -1.851 -2.033 0 -0.874 1.138 -0.128 3.928 2.577 2.653 2.572 2.958 3.02 2.531 3.703 -0.627 1 -1.788 0.996 -2.33 -0.018 z m -16.824 -3.453 c -0.672 -0.81 -2.594 -5.286 -2.367 -5.512 0.413 -0.413 1 0.37 2.25 2.98 0.71 1.487 1.292 2.788 1.292 2.891 0 0.391 -0.741 0.165 -1.175 -0.358 z m 31.589 -3.126 c -1.638 -1.638 -1.544 -2.34 0.353 -2.644 2.63 -0.421 4.851 -3.277 5.03 -6.47 0.118 -2.093 0.062 -2.211 -0.724 -1.532 -1.197 1.034 -3.998 1.531 -5.904 1.047 -1.335 -0.339 -1.759 -0.311 -2.035 0.135 -0.743 1.202 -1.01 -0.312 -1.01 -5.721 0 -5.531 0.026 -5.69 1.571 -9.692 0.864 -2.238 1.822 -4.32 2.128 -4.626 0.306 -0.306 0.902 -0.996 1.324 -1.532 1.346 -1.711 3.235 -2.421 5.613 -2.109 2.844 0.373 3.694 0.996 5 3.666 0.924 1.888 1.063 2.589 0.839 4.232 -0.191 1.402 -0.101 2.197 0.312 2.758 0.566 0.768 0.63 0.76 2.553 -0.315 1.085 -0.606 2.06 -1.015 2.167 -0.909 0.585 0.585 -0.157 9.692 -0.79 9.692 -0.194 0 -0.352 -0.619 -0.352 -1.376 0 -0.826 -0.31 -1.657 -0.776 -2.078 -0.427 -0.386 -0.885 -1.248 -1.018 -1.915 -0.166 -0.83 -0.488 -1.213 -1.02 -1.213 -1.091 0 -2.806 -1.446 -3.099 -2.613 -0.197 -0.784 -0.593 -1.027 -1.977 -1.212 -1.078 -0.145 -1.977 -0.558 -2.382 -1.094 -0.358 -0.474 -1.327 -0.972 -2.153 -1.106 -1.251 -0.203 -1.68 -0.067 -2.562 0.815 -1.639 1.639 -1.379 2.482 1.219 3.949 1.396 0.788 2.436 1.701 2.686 2.359 0.553 1.454 0.168 1.697 -0.98 0.618 -0.523 -0.491 -1.411 -0.893 -1.973 -0.893 -0.562 0 -1.223 -0.201 -1.469 -0.446 -1.397 -1.397 -3.994 1.182 -3.086 3.064 0.233 0.484 0.544 1.435 0.69 2.114 0.446 2.074 1.332 3.086 2.702 3.086 1.617 0 3.06 -0.974 3.687 -2.489 0.739 -1.784 1.226 -1.482 1.226 0.759 v 1.973 l 1.541 0.104 c 1 0.068 1.935 0.482 2.674 1.19 0.955 0.915 1.133 1.426 1.133 3.244 0 1.796 -0.138 2.202 -0.822 2.419 -0.84 0.267 -3.292 3.479 -3.292 4.313 0 0.663 -2.598 1.653 -4.338 1.653 -1.093 0 -1.803 -0.318 -2.688 -1.203 z m -5.865 0.517 c -0.561 -0.561 -0.246 -1.013 0.619 -0.886 1.131 0.166 1.511 1.16 0.444 1.16 -0.434 0 -0.912 -0.123 -1.063 -0.274 z m 19.269 -3.02 c -0.463 -0.749 0.224 -1.275 0.849 -0.65 0.325 0.325 0.591 0.697 0.591 0.826 0 0.401 -1.172 0.258 -1.44 -0.176 z m -37.783 -7.68 c -0.151 -0.151 -0.278 -1.308 -0.282 -2.571 -0.005 -1.263 -0.193 -3.575 -0.418 -5.136 -0.226 -1.561 -0.332 -2.917 -0.236 -3.01 0.096 -0.096 0.747 0.122 1.447 0.484 l 1.273 0.658 v 4.927 c 0 4.503 -0.065 4.927 -0.754 4.927 -0.415 0 -0.878 -0.123 -1.029 -0.274 z m 20.486 -19.502 c -0.482 -0.781 0.221 -0.973 0.938 -0.257 0.641 0.641 0.643 0.696 0.014 0.696 -0.375 0 -0.803 -0.197 -0.952 -0.439 z m 18.428 -0.68 c -0.58 -0.208 -0.71 -1.35 -0.153 -1.35 0.539 0 1.376 1.132 0.996 1.348 c -0.181 0.103 -0.56 0.104 -0.843 0.002 z m -29.22 -7.213 c -0.358 -0.441 -2.563 -9.643 -2.563 -10.696 0 -0.203 0.306 -0.31 0.679 -0.237 0.986 0.193 4.446 10.11 3.799 10.887 -0.581 0.7 -1.37 0.719 -1.916 0.046 z" style="fill:#9e0000"/><path d="m 56.6 76.7 c -0.609 -1.075 -1.357 -2.364 -1.663 -2.866 -0.843 -1.381 -0.698 -1.636 1.062 -1.872 1.3 -0.174 3.763 -1.159 6.698 -2.678 0.161 -0.084 0.415 0.332 0.563 0.923 0.34 1.354 -0.633 2.522 -2.972 3.569 -1.946 0.871 -2.349 1.562 -1.781 3.057 0.987 2.596 -0.416 2.498 -1.907 -0.133 z m -19.636 -6.137 c -0.151 -0.151 -0.274 -0.739 -0.274 -1.306 v -1.032 l 1.029 0.966 c 0.566 0.531 1.029 1.119 1.029 1.306 0 0.405 -1.392 0.457 -1.783 0.065 z m 8.366 -0.603 c -0.792 -0.481 -3.03 -2.47 -4.979 -4.421 -3.188 -3.196 -3.672 -3.893 -4.892 -7.04 -1.169 -3.02 -1.364 -4.056 -1.434 -7.611 -0.087 -4.442 0.388 -6.907 2.063 -10.692 1.054 -2.384 3.033 -5.322 3.363 -4.993 0.098 0.098 -0.379 1.567 -1.059 3.266 -1.723 4.302 -2.568 12.11 -1.598 14.748 0.361 0.982 0.785 2.619 0.942 3.637 0.513 3.321 3.887 8.848 7.336 12.02 2.339 2.149 2.397 2.394 0.257 1.095 z m 6.761 -5.175 c -0.664 -0.664 -0.661 -0.728 0.058 -1.131 0.419 -0.235 1.804 -1.4 3.077 -2.588 1.273 -1.188 2.622 -2.16 2.998 -2.16 0.459 0 0.683 -0.346 0.683 -1.056 0 -1.38 0.696 -2.647 1.454 -2.647 0.437 0 0.603 0.492 0.603 1.787 0 2.589 -2.775 6.661 -5.268 7.729 -2.213 0.948 -2.713 0.958 -3.606 0.065 z m -2.607 -10.613 c -0.997 -0.311 -1.969 -0.807 -2.16 -1.104 -0.401 -0.62 0.011 -8.312 0.519 -9.682 0.479 -1.292 2.058 -1.557 4.26 -0.716 2.518 0.962 2.357 1.489 -0.357 1.17 -2.174 -0.255 -2.24 -0.232 -2.88 1 -0.36 0.696 -0.655 1.613 -0.655 2.036 0 1.169 1.267 4.732 1.972 5.545 0.852 0.983 3.165 0.918 4.871 -0.136 1.476 -0.912 1.65 -0.818 0.941 0.507 -0.473 0.885 -2.748 2.01 -3.965 1.968 -0.403 -0.015 -1.549 -0.282 -2.545 -0.592 z m -22.88 -8.05 c -0.331 -1.505 -0.135 -1.782 1 -1.42 0.943 0.299 1.128 1.423 0.36 2.19 -0.766 0.766 -1.064 0.598 -1.364 -0.77 z m 40.757 -0.047 c -0.951 -2.849 -0.98 -3.634 -0.149 -4.078 1.248 -0.668 1.679 0.055 1.349 2.259 -0.289 1.929 -0.87 2.809 -1.2 1.819 z m -7.425 -7.329 c -0.14 -0.226 -0.553 -0.411 -0.918 -0.411 -1.532 0 -3.764 -1.503 -4.825 -3.25 -1.01 -1.662 -1.045 -1.864 -0.438 -2.469 0.966 -0.962 5.729 -0.803 6.871 0.229 1.054 0.953 2.396 3.549 2.396 4.635 0 1.274 -2.458 2.281 -3.086 1.265 z m -23.01 -12.297 c -0.243 -0.393 -1.216 -4.967 -1.628 -7.657 -0.166 -1.081 0.312 -0.179 1.394 2.628 0.905 2.35 1.646 4.526 1.646 4.834 0 0.623 -1.057 0.769 -1.412 0.195 z" style="fill:#610000"/></g></g></g></svg>