<svg xmlns="http://www.w3.org/2000/svg" viewBox="0 0 256 256"><g style="fill:#fff"><path d="m 158 800.65 c 235.15 36.688 -19.18 389.53 -137.69 186.02 -50.803 -79.05 3.776 -211.33 137.69 -186.02 z" transform="translate(0 -796.36)" style="fill:#fff;color:#000"/></g><path d="m 112.81 205.76 c -6.163 -0.518 -19.11 -2.9 -24.709 -4.544 -21.538 -6.33 -34.797 -19.8 -41.06 -41.711 -3.328 -11.648 -4.41 -20.888 -4.426 -37.833 -0.016 -16.391 0.878 -24.09 4.203 -36.23 5.134 -18.738 15.01 -31.18 30.777 -38.755 5.915 -2.841 16.314 -6.127 17.05 -5.385 0.209 0.212 0.542 2.207 0.742 4.434 0.343 3.834 0.258 4.16 -1.612 6.159 -2.889 3.088 -4.072 5.906 -4.072 9.696 0 4.398 1.896 8.095 5.336 10.403 3.891 2.611 9.55 2.594 13.478 -0.043 6.391 -4.289 7.07 -13.65 1.421 -19.642 -1.807 -1.918 -2.01 -2.545 -2.01 -6.281 0 -2.283 0.278 -4.892 0.618 -5.8 0.441 -1.175 0.393 -1.726 -0.163 -1.914 -1.777 -0.602 17.784 -1.143 26.07 -0.721 4.923 0.251 8.599 0.575 8.17 0.721 -0.556 0.188 -0.603 0.74 -0.163 1.914 0.34 0.907 0.618 3.517 0.618 5.8 0 3.736 -0.201 4.363 -2.01 6.281 -5.647 5.992 -4.97 15.351 1.421 19.642 3.928 2.637 9.587 2.658 13.478 0.043 3.44 -2.309 5.336 -6.01 5.336 -10.403 0 -3.789 -1.184 -6.608 -4.072 -9.696 -1.869 -1.995 -1.954 -2.324 -1.612 -6.159 0.199 -2.227 0.533 -4.222 0.742 -4.434 0.731 -0.742 11.131 2.545 17.05 5.385 15.764 7.573 25.647 20.01 30.777 38.755 3.325 12.137 4.219 19.842 4.203 36.23 -0.017 16.973 -1.097 26.18 -4.448 37.906 -8.938 31.28 -32.07 45.502 -75.19 46.24 -6.982 0.119 -14.159 0.092 -15.949 -0.058 z m -14.21 -25.673 c 2.291 -1.522 2.889 -3.789 2.679 -10.161 l -0.186 -5.67 l -2.767 -0.203 l -2.767 -0.203 v 5.979 c 0 5.099 -0.191 6.174 -1.302 7.298 -1.75 1.774 -2.407 1.674 -4.601 -0.706 -3.191 -3.465 -7.684 -1.477 -5.02 2.22 2.142 2.971 10.38 3.822 13.961 1.443 z m 20.868 0.851 c 4.01 0.206 4.276 -0.26 3.954 -7.06 -0.147 -3.135 -0.487 -4.386 -1.337 -4.927 -2.048 -1.304 -3.378 0.285 -3.754 4.483 -0.358 4.01 -1.127 4.991 -3.928 5.01 -2.371 0.015 -3.222 -1.163 -3.222 -4.457 0 -3.926 -0.907 -5.436 -3.265 -5.436 -1.519 0 -2.01 0.355 -2.34 1.705 -0.554 2.236 0.146 8.08 1.108 9.26 1.121 1.37 4.515 2.174 7.101 1.684 1.253 -0.238 3.81 -0.354 5.681 -0.258 z m 13.07 -4.116 c 0.235 -4.646 0.875 -5.635 3.656 -5.635 2.857 0 3.629 1.043 3.641 4.918 0.012 4.184 0.604 5.148 2.99 4.872 1.831 -0.212 1.888 -0.331 2.078 -4.409 0.242 -5.19 -0.805 -7.108 -4.233 -7.76 -1.331 -0.253 -3.554 -0.153 -4.94 0.222 -1.759 0.476 -3.078 0.469 -4.368 -0.025 -3.072 -1.176 -3.905 0.13 -3.905 6.114 0 2.8 0.209 5.302 0.465 5.562 0.256 0.259 1.354 0.383 2.441 0.275 1.933 -0.192 1.98 -0.283 2.176 -4.135 z m 30.98 3.519 c 1.92 -0.888 2.687 -2.46 1.437 -2.946 -0.488 -0.19 -2.329 0.134 -4.091 0.718 -3.537 1.173 -6.718 0.559 -6.718 -1.298 0 -0.831 1.073 -1.01 6.146 -1.01 3.38 0 6.326 -0.296 6.549 -0.658 0.22 -0.362 0.018 -1.475 -0.45 -2.476 -1.895 -4.048 -9.594 -5.448 -14.47 -2.633 -4.522 2.611 -4.627 7.01 -0.227 9.726 2.433 1.504 9.11 1.827 11.83 0.572 z m -9.05 -7.172 c -0.734 -1.204 0.372 -1.98 2.805 -1.971 2.769 0.012 4.397 0.835 3.75 1.896 -0.556 0.913 -6.01 0.974 -6.555 0.074 z m -51.26 -50.999 l -0.169 -31.19 h -9.439 h -9.439 l -0.193 4.097 l -0.193 4.097 l 4.75 0.195 l 4.75 0.195 l 0.163 26.07 c 0.09 14.343 0.301 26.448 0.468 26.902 0.204 0.553 1.818 0.825 4.888 0.825 h 4.582 l -0.169 -31.19 z m 63.953 27.301 c 0 -2.938 -0.252 -3.99 -1.029 -4.291 -0.567 -0.221 -6.645 -0.406 -13.508 -0.412 l -12.477 -0.011 l 4.882 -4.737 c 20.928 -20.301 21.539 -21.1 22.02 -28.686 0.384 -6.06 -1.198 -10.179 -5.674 -14.787 -4.537 -4.673 -9.07 -6.564 -15.693 -6.564 -11.352 0 -20.798 8.35 -21.06 18.618 l -0.09 3.453 l 3.255 0.515 c 4.868 0.77 6.05 0.294 6.536 -2.624 1.331 -8.04 4.794 -11.38 11.81 -11.38 4.45 0 7.681 2.135 9.763 6.452 1.588 3.291 1.657 3.794 0.958 6.871 -0.416 1.826 -1.337 4.149 -2.048 5.161 -0.711 1.012 -7.731 7.843 -15.602 15.179 -15.06 14.04 -15.823 15.05 -14.729 19.477 l 0.41 1.655 h 21.14 h 21.14 v -3.891 z" style="fill:#ff4500"/></svg>