<svg xmlns="http://www.w3.org/2000/svg" viewBox="0 0 256 256"><path d="m 100.3 250.86 c -237.88 -49.33 17.492 -388.7 138.4 -184.83 51.828 79.19 -16.06 210.21 -138.4 184.83 z" style="fill:#fff;color:#000"/><g transform="matrix(4.11589 0 0 4.0234 39.644 39.731)"><g transform="translate(-1.318 -2.426)" style="fill:#ffe4e1"><path d="m 1.027,23 45.952,0 0.015,1 L 1,24"/><path d="m 1.367,20 45.28,0 0.157,1 -45.606,0"/><path d="m 1.095,26 45.812,0 -0.104,1 -45.607,0"/><path d="m 2.097,17 43.809,0 0.299,1 -44.4,0"/><path d="m 1.551,29 44.899,0 -0.241,1 -44.41,0 z"/><path d="m 3.29,14 41.42,0 0.458,1 -42.33,0"/><path d="m 5.03,11 37.921,0 0.657,1 -39.23,0 z"/><path d="m 7.488,8 33,0 0.93,1 -34.844,0"/><path d="M 11.04,5 36.965,5 38.31,6 9.683,6"/><path d="M 17.278,2 30.747,2 33.388,3 14.603,3"/><path d="m 2.433,32 43.14,0 -0.398,1 -42.34,0"/><path d="m 3.813,35 40.38,0 -0.573,1 -39.23,0"/><path d="m 5.757,38 36.489,0 -0.82,1 -34.847,0"/><path d="m 8.542,41 30.949,0 -1.179,1 -28.6,0"/><path d="m 12.663,44 22.682,0 -1.956,1 -18.759,0 z"/></g><g transform="translate(-1.581 -3.157)" style="fill:#ff4500;fill-rule:evenodd"><g transform="translate(0 3)"><path d="m 11 12 v 10 h 8 v -3 h -5 v -4 h 5 v -3 h -8 z"/><path d="m 20,12 0,10 3,0 0,-4 1,0 2,4 3,0 -2.5,-5 1.5,0 0,-5 z m 3,2 2,0 0,2 -2,0 z"/><path d="m 29 12 v 3 h 3 v 7 h 3 v -7 h 3 v -3 z"/></g><path d="m 11,27 v 10 h 8 V 27 z"/></g><g transform="translate(-1.581 -2.157)" style="fill:#ffdead"><path d="m 11 14 h 8 v 1 h -8 z"/><path d="m 20 14 h 8 v 1 h -8 z"/><path d="m 29 14 h 9 v 1 h -9 z"/><path d="m 11 17 h 3 v 1 h -3 z"/><path d="m 20 17 h 3 v 1 h -3 z"/><path d="m 25 17 h 3 v 1 h -3 z"/><path d="m 32 17 h 3 v 1 h -3 z"/><path d="m 11 20 h 3 v 1 h -3 z"/><path d="m 20 20 h 3 v 1 h -3 z"/><path d="m 24,20 3,0 0.5,1 -3,0 z"/><path d="m 32 20 h 3 v 1 h -3 z"/><path d="m 11 23 h 8 v 1 h -8 z"/><path d="m 20 23 h 3 v 1 h -3 z"/><path d="m 25.5,23 3,0 0.5,1 -3,0 z"/><path d="m 32 23 h 3 v 1 h -3 z"/><path d="m 11 26 h 8 v 1 h -8 z"/><path d="m 11 29 h 8 v 1 h -8 z"/><path d="m 11 32 h 8 v 1 h -8 z"/><path d="m 11 35 h 8 v 1 h -8 z"/></g></g></svg>