<svg xmlns="http://www.w3.org/2000/svg" viewBox="0 0 256 256"><g transform="translate(0 -796.36)"><path d="m 118.93 1051.73 c 153.46 14.765 194.77 -234.25 37.19 -253.59 -144.89 -23.968 -219.51 201.75 -75.54 246.9 c 12.172 4.946 25.483 4.852 38.35 6.696 z" style="fill:#fff;color:#000"/><g transform="matrix(0.95681 0 0 0.96719 6.378 30.24)"><path d="m 86.66 1025.68 c -2.648 -2.981 -9.822 -12.939 -9.591 -13.315 0.145 -0.236 1.405 -0.674 2.802 -0.975 23.11 -4.968 37.429 -7.868 37.668 -7.627 0.164 0.165 -0.013 0.588 -0.393 0.94 -1.295 1.199 -28.313 21.615 -28.911 21.847 -0.328 0.127 -1.037 -0.265 -1.575 -0.871 z m -29.381 -13.613 c -0.779 -0.947 -22.781 -107.56 -22.297 -108.05 0.245 -0.247 6.701 -1.776 14.347 -3.397 90.5 -19.19 157.83 -33.33 158.73 -33.33 0.997 0 1.2 0.377 1.881 3.503 4.971 22.81 21.703 104.58 21.451 104.84 -0.183 0.186 -2.383 0.784 -4.888 1.328 -4.338 0.942 -155.82 32.955 -164.59 34.783 -3.079 0.642 -4.308 0.729 -4.638 0.329 z m 19.407 -18.46 c 8.95 -2.283 17.783 -4.45 19.629 -4.813 6.551 -1.291 10.427 -2.38 10.661 -2.994 0.737 -1.936 -2.511 -5.678 -4.341 -5 -0.575 0.213 -1.976 0.418 -3.114 0.456 -1.251 0.042 -2.897 0.559 -4.165 1.308 -1.558 0.92 -3 1.299 -5.617 1.474 -3.497 0.235 -3.528 0.226 -4.631 -1.277 -0.856 -1.167 -1.361 -1.45 -2.207 -1.236 -1.356 0.343 -3.61 -1.313 -3.61 -2.653 0 -0.516 -0.25 -1.341 -0.555 -1.834 -0.705 -1.138 -0.203 -2.491 1.046 -2.82 0.855 -0.225 0.931 -0.519 0.662 -2.557 -0.252 -1.917 -0.126 -2.545 0.758 -3.748 1.08 -1.473 1.323 -2.972 0.762 -4.704 -0.33 -1.018 0.355 -1.879 3.561 -4.473 2.925 -2.366 5.544 -3.883 7.72 -4.471 1.16 -0.313 2.532 -0.796 3.047 -1.073 1.752 -0.942 6.725 -1.947 9.612 -1.942 8.436 0.013 10.329 0.141 11.815 0.796 0.886 0.391 2.67 0.997 3.963 1.347 1.454 0.393 2.435 0.953 2.569 1.466 0.119 0.456 0.614 0.957 1.1 1.112 1.674 0.535 1.722 3.651 0.075 4.865 -0.596 0.439 -0.361 0.769 1.388 1.951 1.366 0.923 2.161 1.841 2.263 2.615 0.087 0.656 0.68 1.69 1.319 2.299 1.151 1.097 1.577 3.618 0.794 4.692 -0.62 0.851 -2.46 1.691 -3.702 1.691 -0.663 0 -1.207 0.272 -1.209 0.604 -0.004 0.785 -4.73 2.348 -6.05 2 -0.559 -0.147 -2.129 0.214 -3.487 0.803 -2.335 1.012 -2.52 1.026 -3.374 0.247 -0.856 -0.78 -1.01 -0.758 -2.866 0.425 -1.482 0.943 -1.963 1.558 -1.963 2.514 0 1.609 1.764 4.521 2.739 4.521 0.408 0 3.25 -0.551 6.314 -1.224 3.065 -0.673 6.543 -1.426 7.73 -1.672 1.187 -0.246 6.258 -1.32 11.269 -2.385 14.08 -2.992 32.538 -6.59 43.636 -8.502 34.961 -6.03 43.875 -7.664 43.875 -8.07 0 -0.695 -18.789 -90.5 -19.01 -90.85 -0.125 -0.204 -0.562 -0.371 -0.972 -0.371 -0.675 0 -60.31 12.52 -75.921 15.94 -3.56 0.78 -9.06 1.956 -12.228 2.614 -23.52 4.89 -74.19 15.761 -74.57 16 -0.26 0.162 -0.473 0.632 -0.473 1.043 0 0.665 11.494 56.53 13.902 67.57 0.522 2.392 1.611 7.611 2.42 11.598 1.809 8.912 2.311 10.873 2.788 10.873 0.204 0 7.695 -1.868 16.645 -4.152 z m -9.861 -53.3 c -1.65 -0.455 -4.136 -4.345 -4.782 -7.483 -1.245 -6.04 1.758 -13.671 6.805 -17.293 l 1.477 -1.06 l 1.395 1.573 c 1.855 2.092 1.679 3.669 -0.409 3.669 -2.165 0 -3.289 1.286 -4.945 5.654 -1.68 4.433 -1.992 8.962 -0.706 10.258 1.501 1.513 4.643 0.804 6.824 -1.541 1.06 -1.14 1.141 -1.153 2.038 -0.335 2.073 1.891 0.305 4.836 -3.738 6.224 -1.217 0.418 -2.336 0.738 -2.487 0.712 -0.151 -0.027 -0.814 -0.197 -1.473 -0.379 z m 18.617 -5.082 c -1.821 -0.655 -4.613 -2.693 -6.529 -4.763 -1.649 -1.783 -1.821 -4.071 -0.567 -7.538 0.901 -2.49 1.469 -3.257 3.508 -4.733 2.255 -1.633 2.724 -1.774 6.431 -1.934 l 3.998 -0.173 l 1.685 1.815 c 2.132 2.296 4.03 5.971 3.995 7.718 -0.017 0.74 -0.61 2.976 -1.319 4.969 -1.103 3.102 -1.531 3.746 -2.967 4.469 -1.977 0.995 -5.728 1.072 -8.235 0.17 z m 4.503 -3.552 c 1.513 -1.749 1.985 -3.374 2.091 -7.206 l 0.109 -3.944 l -1.843 -1.492 c -2.056 -1.665 -2.634 -1.81 -3.194 -0.802 -0.211 0.38 -1.317 1.372 -2.458 2.205 -1.141 0.833 -2.382 2.255 -2.757 3.16 -0.71 1.713 -0.91 5.35 -0.371 6.765 0.758 1.991 6.995 2.965 8.424 1.315 z m 12.782 0.528 c -0.422 -0.514 -0.617 -1.77 -0.543 -3.503 0.064 -1.486 -0.008 -4.266 -0.158 -6.177 -0.22 -2.796 -0.505 -3.727 -1.461 -4.765 -2.546 -2.768 -0.047 -4.914 6.283 -5.397 6.156 -0.469 8.432 0.942 9.186 5.694 0.287 1.808 0.179 2.05 -1.675 3.776 -1.09 1.014 -1.982 1.963 -1.982 2.109 0 0.146 1.086 0.968 2.413 1.826 2.528 1.635 3.585 3 3.167 4.1 -0.189 0.495 -1.705 0.051 -6.309 -1.85 -5.901 -2.436 -6.079 -2.477 -6.745 -1.559 -0.444 0.613 -0.58 1.5 -0.388 2.534 0.327 1.758 -0.077 4.01 -0.719 4.01 -0.226 0 -0.708 -0.36 -1.07 -0.801 z m 5.096 -13.433 c 4.079 -0.267 6.463 -1.698 3.956 -2.375 -3.113 -0.841 -8.511 0.278 -8.511 1.765 0 0.968 0.559 1.386 1.413 1.055 0.409 -0.159 1.823 -0.359 3.142 -0.445 z m 21.11 8.459 c -0.542 -1.056 -0.732 -3 -0.732 -7.505 0 -7.344 -0.083 -7.428 -4.942 -4.965 -1.862 0.944 -3.67 1.607 -4.02 1.472 -0.907 -0.351 -0.777 -1.564 0.208 -1.945 0.462 -0.178 2.565 -1.341 4.675 -2.584 5.544 -3.266 13.504 -5.822 15.05 -4.833 1.381 0.88 0.083 1.884 -3.554 2.748 -2.02 0.48 -4 1.114 -4.4 1.409 -0.635 0.468 -0.667 1.58 -0.244 8.721 0.266 4.501 0.384 8.347 0.262 8.546 -0.491 0.802 -1.62 0.282 -2.311 -1.063 z m 20.691 -4.494 c -2.02 -2.722 -2.407 -3.861 -3.03 -8.819 -0.821 -6.542 -0.813 -7.973 0.046 -7.973 0.433 0 0.81 0.686 0.995 1.812 0.164 0.997 1.146 4.53 2.182 7.852 2.547 8.162 2.477 10.734 -0.194 7.128 z m 6.352 -2.258 c -0.98 -0.988 -1.405 -1.896 -1.411 -3.02 -0.005 -0.884 -0.309 -3.456 -0.674 -5.715 -0.367 -2.269 -0.484 -4.33 -0.26 -4.604 0.223 -0.273 1 -0.546 1.733 -0.607 0.731 -0.061 2.479 -0.544 3.884 -1.074 4.87 -1.836 8.572 -0.85 12.01 3.199 2.7 3.179 4.994 7.596 4.805 9.253 -0.083 0.728 -0.41 1.323 -0.725 1.323 -0.869 0 -3.885 -4.532 -4.738 -7.122 -0.883 -2.68 -2.608 -4.234 -4.698 -4.234 -0.819 0 -3.056 0.78 -4.97 1.733 -3.979 1.981 -3.94 1.872 -2.797 7.915 0.918 4.85 0.411 5.543 -2.159 2.953 z m 27.09 -2.208 c -2.154 -0.929 -3.902 -2.84 -4.53 -4.949 -0.474 -1.593 -0.433 -2.396 0.242 -4.735 0.659 -2.285 1.402 -3.432 3.936 -6.077 3.224 -3.365 7.513 -5.93 9.452 -5.651 0.791 0.114 0.983 0.436 0.877 1.466 -0.134 1.29 1.466 6.296 3.937 12.322 0.679 1.656 1.235 3.341 1.235 3.745 0 0.934 -1.098 0.937 -2.882 0.007 -1.331 -0.694 -1.468 -0.664 -2.973 0.658 -3.2 2.809 -7.104 4.159 -9.294 3.214 z m 5.937 -3.118 c 0.978 -0.517 2.4 -1.453 3.158 -2.081 1.355 -1.121 1.365 -1.168 0.603 -2.653 -0.427 -0.831 -1.139 -3.178 -1.583 -5.215 -0.46 -2.108 -1.098 -3.816 -1.48 -3.964 -0.764 -0.295 -5.569 4.228 -6.614 6.225 -1.131 2.162 -1.34 4.88 -0.527 6.841 0.683 1.648 0.894 1.787 2.703 1.787 1.079 0 2.762 -0.423 3.741 -0.94 z m -46.684 -12.26 c -0.784 -2.058 -0.423 -3.416 1.207 -4.539 2.134 -1.471 3.02 -1.26 3.468 0.829 0.327 1.513 0.207 1.826 -1.162 3.02 -1.64 1.428 -3.123 1.72 -3.514 0.693 z m -104.1 58.5 c -2.827 -3.787 -7.812 -10.44 -11.08 -14.783 -5.738 -7.633 -5.908 -7.928 -5.096 -8.832 1.169 -1.302 12.894 -10.09 13.461 -10.09 0.255 0 1.166 3.425 2.024 7.611 0.858 4.186 2.73 13.13 4.161 19.873 1.43 6.744 2.601 12.452 2.601 12.685 0 1.276 -1.443 -0.259 -6.074 -6.463 z m 187.33 -35.14 c 0 -0.456 1.516 -1.467 2.201 -1.467 0.19 0 -0.045 0.435 -0.522 0.966 -0.93 1.035 -1.678 1.259 -1.678 0.5 z m -1.232 -3.937 c -0.356 -0.581 -3.083 -13.208 -3.083 -14.277 0 -1.322 1.243 -0.564 2.714 1.655 0.833 1.258 2.56 3.778 3.836 5.601 l 2.321 3.314 l -2.324 2.122 c -2.449 2.236 -2.929 2.456 -3.463 1.584 z m -0.433 -17.693 c -1.798 -2.053 -3.541 -4.391 -3.872 -5.195 -0.688 -1.669 -2.32 -11.05 -2.06 -11.837 0.153 -0.462 9.995 19.679 9.995 20.454 0 0.885 -1.103 -0.044 -4.062 -3.423 z m -147.51 -18.02 c 7.494 -3.719 13.713 -6.673 13.82 -6.565 0.282 0.284 -9.941 9.399 -11.453 10.212 -1.085 0.583 -8.687 2.116 -14.314 2.886 -1.026 0.14 3.621 -2.401 11.947 -6.532 z m 10.158 1.319 c 0.685 -0.59 4.893 -3.718 9.351 -6.953 4.458 -3.235 21.367 -15.995 37.577 -28.357 17.4 -13.27 29.706 -22.341 30.04 -22.15 0.315 0.181 5.474 6.853 11.466 14.826 5.992 7.973 12.176 15.962 13.744 17.753 1.567 1.791 2.724 3.462 2.57 3.713 -0.154 0.251 -1.517 0.701 -3.03 1 -11.269 2.233 -84.23 17.679 -95.77 20.274 -2.374 0.534 -4.963 0.968 -5.754 0.966 l -1.439 -0.005 l 1.245 -1.072 z m 106.24 -24.808 c -0.727 -1.493 -1.205 -2.833 -1.062 -2.977 0.25 -0.252 7.76 3.054 8.575 3.774 0.453 0.401 -3.643 1.918 -5.178 1.918 -0.755 0 -1.351 -0.694 -2.335 -2.715 z" style="fill:#c80000"/><path d="m 86.66 1025.68 c -2.648 -2.981 -9.822 -12.939 -9.591 -13.315 0.145 -0.236 1.405 -0.674 2.802 -0.975 23.11 -4.968 37.429 -7.868 37.668 -7.627 0.164 0.165 -0.013 0.588 -0.393 0.94 -1.295 1.199 -28.313 21.615 -28.911 21.847 -0.328 0.127 -1.037 -0.265 -1.575 -0.871 z m -29.381 -13.613 c -0.779 -0.947 -22.781 -107.56 -22.297 -108.05 0.245 -0.247 6.701 -1.776 14.347 -3.397 90.5 -19.19 157.83 -33.33 158.73 -33.33 0.997 0 1.2 0.377 1.881 3.503 4.971 22.81 21.703 104.58 21.451 104.84 -0.183 0.186 -2.383 0.784 -4.888 1.328 -4.338 0.942 -155.82 32.955 -164.59 34.783 -3.079 0.642 -4.308 0.729 -4.638 0.329 z m 16.979 -17.18 c 6.593 -1.598 13.93 -3.442 16.303 -4.098 2.374 -0.656 5.718 -1.426 7.432 -1.712 6.03 -1.01 9.59 -2.024 9.59 -2.744 0 -1.993 -3.321 -6.347 -4.352 -5.705 -0.198 0.123 -1.575 0.328 -3.06 0.455 -1.698 0.146 -3.48 0.692 -4.8 1.471 -1.541 0.91 -3.02 1.305 -5.562 1.483 l -3.463 0.243 l -1.405 -1.717 c -1.136 -1.388 -1.631 -1.66 -2.588 -1.418 -1.383 0.35 -3.062 -0.918 -3.062 -2.313 0 -0.494 -0.25 -1.301 -0.555 -1.794 -0.705 -1.138 -0.203 -2.491 1.046 -2.82 0.855 -0.225 0.931 -0.519 0.662 -2.557 -0.252 -1.917 -0.126 -2.545 0.758 -3.748 1.08 -1.473 1.323 -2.972 0.762 -4.704 -0.33 -1.018 0.355 -1.879 3.561 -4.473 2.925 -2.366 5.544 -3.883 7.72 -4.471 1.16 -0.313 2.532 -0.796 3.047 -1.073 1.754 -0.943 6.727 -1.947 9.612 -1.941 7.971 0.018 9.682 0.137 11.708 0.82 1.209 0.407 3.169 1.045 4.355 1.417 1.551 0.487 2.201 0.963 2.311 1.695 0.095 0.631 0.506 1.018 1.079 1.018 0.746 0 0.926 0.343 0.926 1.774 0 0.976 -0.336 2.149 -0.748 2.607 -0.689 0.768 -0.586 0.942 1.319 2.228 1.333 0.9 2.122 1.819 2.224 2.588 0.087 0.656 0.68 1.69 1.319 2.299 1.151 1.098 1.575 3.608 0.794 4.702 -0.489 0.685 -2.843 1.681 -3.971 1.681 -0.515 0 -0.938 0.272 -0.94 0.604 -0.005 0.896 -4.721 2.217 -6.976 1.955 -1.4 -0.163 -2.122 -0.011 -2.576 0.54 -0.742 0.901 -1.93 0.977 -3.565 0.226 -1.01 -0.464 -1.423 -0.353 -2.9 0.782 -2.059 1.583 -2.195 2.974 -0.564 5.799 1.344 2.329 1.356 2.329 10.978 0.174 6.287 -1.408 6.666 -1.441 7.534 -0.65 0.713 0.65 1.381 0.762 3.047 0.51 2.394 -0.362 3.566 0.463 1.4 0.984 -0.736 0.177 -1.581 0.514 -1.877 0.747 -0.296 0.234 -0.924 0.276 -1.394 0.094 -0.747 -0.289 -0.821 -0.12 -0.582 1.321 0.432 2.61 1.23 4.309 2.024 4.309 0.402 0 0.731 -0.191 0.731 -0.425 0 -0.234 0.664 -0.702 1.476 -1.041 0.812 -0.339 1.821 -1.146 2.242 -1.795 l 0.766 -1.179 l 0.8 1.069 c 0.668 0.892 0.965 0.979 1.802 0.528 1.4 -0.755 2.504 -0.674 2.504 0.184 0 0.808 1.694 0.997 2.158 0.242 0.163 -0.266 0.097 -0.483 -0.146 -0.483 -0.243 0 -0.442 -0.878 -0.442 -1.951 0 -2.282 1.04 -3.123 3.254 -2.633 1.601 0.354 1.878 1.471 0.476 1.919 -0.916 0.293 -1.799 2.01 -1.295 2.512 0.14 0.141 1.293 0.031 2.561 -0.245 1.268 -0.276 4.895 -0.97 8.06 -1.542 3.164 -0.572 5.978 -1.227 6.252 -1.457 0.274 -0.229 1.984 -0.656 3.799 -0.948 1.815 -0.292 3.515 -0.665 3.778 -0.829 0.263 -0.164 1.561 -0.385 2.884 -0.492 3.02 -0.244 52.18 -10.64 52.624 -11.129 0.18 -0.197 0.014 -2.098 -0.37 -4.224 -1.132 -6.282 -19.394 -94.66 -19.644 -95.06 -0.126 -0.206 -0.564 -0.374 -0.974 -0.374 -0.675 0 -60.31 12.52 -75.921 15.94 -3.56 0.78 -9.06 1.956 -12.228 2.614 -23.52 4.89 -74.19 15.761 -74.57 16 -0.26 0.162 -0.473 0.632 -0.473 1.043 0 0.662 11.461 56.37 13.901 67.57 0.521 2.392 1.728 8.155 2.683 12.806 0.954 4.651 1.938 8.839 2.185 9.307 0.293 0.554 0.819 0.77 1.509 0.62 0.583 -0.126 6.454 -1.537 13.05 -3.136 z m 57.13 -5.677 c -0.54 -0.544 -0.329 -1.114 0.413 -1.114 0.396 0 0.719 0.205 0.719 0.455 0 0.609 -0.749 1.046 -1.132 0.66 z m 16.956 -3.047 c 0 -0.532 0.196 -0.966 0.435 -0.966 0.239 0 0.322 0.435 0.184 0.966 -0.138 0.532 -0.334 0.966 -0.435 0.966 -0.101 0 -0.184 -0.435 -0.184 -0.966 z m -5.754 -3.866 c 0 -0.266 0.216 -0.483 0.48 -0.483 0.264 0 0.48 0.217 0.48 0.483 0 0.266 -0.216 0.483 -0.48 0.483 -0.264 0 -0.48 -0.217 -0.48 -0.483 z m 24.19 -0.53 c -0.514 -0.839 1.093 -2.215 1.779 -1.524 0.425 0.428 0.412 0.741 -0.055 1.308 -0.723 0.878 -1.275 0.947 -1.724 0.216 z m -12.867 -0.718 c -0.428 -1.124 -0.354 -2.618 0.13 -2.618 0.822 0 1.572 1.418 1.265 2.393 -0.372 1.181 -0.992 1.282 -1.395 0.225 z m 16.538 -0.387 c -0.426 -0.517 -0.376 -0.736 0.22 -0.966 1.114 -0.431 1.172 -0.398 1.172 0.668 0 1.123 -0.606 1.253 -1.392 0.298 z m -103.62 -40.35 c -1.65 -0.455 -4.136 -4.345 -4.782 -7.483 -1.245 -6.04 1.758 -13.671 6.805 -17.293 l 1.477 -1.06 l 1.395 1.573 c 1.855 2.092 1.679 3.669 -0.409 3.669 -2.165 0 -3.289 1.286 -4.945 5.654 -1.68 4.433 -1.992 8.962 -0.706 10.258 1.501 1.513 4.643 0.804 6.824 -1.541 1.06 -1.14 1.141 -1.153 2.038 -0.335 2.073 1.891 0.305 4.836 -3.738 6.224 -1.217 0.418 -2.336 0.738 -2.487 0.712 -0.151 -0.027 -0.814 -0.197 -1.473 -0.379 z m 18.617 -5.082 c -1.821 -0.655 -4.613 -2.693 -6.529 -4.763 -1.649 -1.783 -1.821 -4.071 -0.567 -7.538 0.901 -2.49 1.469 -3.257 3.508 -4.733 2.255 -1.633 2.724 -1.774 6.431 -1.934 l 3.998 -0.173 l 1.685 1.815 c 2.132 2.296 4.03 5.971 3.995 7.718 -0.017 0.74 -0.61 2.976 -1.319 4.969 -1.103 3.102 -1.531 3.746 -2.967 4.469 -1.977 0.995 -5.728 1.072 -8.235 0.17 z m 4.503 -3.552 c 1.513 -1.749 1.985 -3.374 2.091 -7.206 l 0.109 -3.944 l -1.843 -1.492 c -2.056 -1.665 -2.634 -1.81 -3.194 -0.802 -0.211 0.38 -1.317 1.372 -2.458 2.205 -1.141 0.833 -2.382 2.255 -2.757 3.16 -0.71 1.713 -0.91 5.35 -0.371 6.765 0.758 1.991 6.995 2.965 8.424 1.315 z m 12.782 0.528 c -0.422 -0.514 -0.617 -1.77 -0.543 -3.503 0.064 -1.486 -0.008 -4.266 -0.158 -6.177 -0.22 -2.796 -0.505 -3.727 -1.461 -4.765 -2.546 -2.768 -0.047 -4.914 6.283 -5.397 6.156 -0.469 8.432 0.942 9.186 5.694 0.287 1.808 0.179 2.05 -1.675 3.776 -1.09 1.014 -1.982 1.963 -1.982 2.109 0 0.146 1.086 0.968 2.413 1.826 2.528 1.635 3.585 3 3.167 4.1 -0.189 0.495 -1.705 0.051 -6.309 -1.85 -5.901 -2.436 -6.079 -2.477 -6.745 -1.559 -0.444 0.613 -0.58 1.5 -0.388 2.534 0.327 1.758 -0.077 4.01 -0.719 4.01 -0.226 0 -0.708 -0.36 -1.07 -0.801 z m 5.096 -13.433 c 4.079 -0.267 6.463 -1.698 3.956 -2.375 -3.113 -0.841 -8.511 0.278 -8.511 1.765 0 0.968 0.559 1.386 1.413 1.055 0.409 -0.159 1.823 -0.359 3.142 -0.445 z m 21.11 8.459 c -0.542 -1.056 -0.732 -3 -0.732 -7.505 0 -7.344 -0.083 -7.428 -4.942 -4.965 -1.862 0.944 -3.67 1.607 -4.02 1.472 -0.907 -0.351 -0.777 -1.564 0.208 -1.945 0.462 -0.178 2.565 -1.341 4.675 -2.584 5.544 -3.266 13.504 -5.822 15.05 -4.833 1.381 0.88 0.083 1.884 -3.554 2.748 -2.02 0.48 -4 1.114 -4.4 1.409 -0.635 0.468 -0.667 1.58 -0.244 8.721 0.266 4.501 0.384 8.347 0.262 8.546 -0.491 0.802 -1.62 0.282 -2.311 -1.063 z m 20.691 -4.494 c -2.02 -2.722 -2.407 -3.861 -3.03 -8.819 -0.821 -6.542 -0.813 -7.973 0.046 -7.973 0.433 0 0.81 0.686 0.995 1.812 0.164 0.997 1.146 4.53 2.182 7.852 2.547 8.162 2.477 10.734 -0.194 7.128 z m 6.352 -2.258 c -0.98 -0.988 -1.405 -1.896 -1.411 -3.02 -0.005 -0.884 -0.309 -3.456 -0.674 -5.715 -0.367 -2.269 -0.484 -4.33 -0.26 -4.604 0.223 -0.273 1 -0.546 1.733 -0.607 0.731 -0.061 2.479 -0.544 3.884 -1.074 4.87 -1.836 8.572 -0.85 12.01 3.199 2.7 3.179 4.994 7.596 4.805 9.253 -0.083 0.728 -0.41 1.323 -0.725 1.323 -0.869 0 -3.885 -4.532 -4.738 -7.122 -0.883 -2.68 -2.608 -4.234 -4.698 -4.234 -0.819 0 -3.056 0.78 -4.97 1.733 -3.979 1.981 -3.94 1.872 -2.797 7.915 0.918 4.85 0.411 5.543 -2.159 2.953 z m 27.09 -2.208 c -2.154 -0.929 -3.902 -2.84 -4.53 -4.949 -0.474 -1.593 -0.433 -2.396 0.242 -4.735 0.659 -2.285 1.402 -3.432 3.936 -6.077 3.224 -3.365 7.513 -5.93 9.452 -5.651 0.791 0.114 0.983 0.436 0.877 1.466 -0.134 1.29 1.466 6.296 3.937 12.322 0.679 1.656 1.235 3.341 1.235 3.745 0 0.934 -1.098 0.937 -2.882 0.007 -1.331 -0.694 -1.468 -0.664 -2.973 0.658 -3.2 2.809 -7.104 4.159 -9.294 3.214 z m 5.937 -3.118 c 0.978 -0.517 2.4 -1.453 3.158 -2.081 1.355 -1.121 1.365 -1.168 0.603 -2.653 -0.427 -0.831 -1.139 -3.178 -1.583 -5.215 -0.46 -2.108 -1.098 -3.816 -1.48 -3.964 -0.764 -0.295 -5.569 4.228 -6.614 6.225 -1.131 2.162 -1.34 4.88 -0.527 6.841 0.683 1.648 0.894 1.787 2.703 1.787 1.079 0 2.762 -0.423 3.741 -0.94 z m -46.684 -12.26 c -0.784 -2.058 -0.423 -3.416 1.207 -4.539 2.134 -1.471 3.02 -1.26 3.468 0.829 0.327 1.513 0.207 1.826 -1.162 3.02 -1.64 1.428 -3.123 1.72 -3.514 0.693 z m -104.1 58.5 c -2.827 -3.787 -7.812 -10.44 -11.08 -14.783 -5.738 -7.633 -5.908 -7.928 -5.096 -8.832 1.169 -1.302 12.894 -10.09 13.461 -10.09 0.255 0 1.166 3.425 2.024 7.611 0.858 4.186 2.73 13.13 4.161 19.873 1.43 6.744 2.601 12.452 2.601 12.685 0 1.276 -1.443 -0.259 -6.074 -6.463 z m 187.33 -35.14 c 0 -0.456 1.516 -1.467 2.201 -1.467 0.19 0 -0.045 0.435 -0.522 0.966 -0.93 1.035 -1.678 1.259 -1.678 0.5 z m -1.232 -3.937 c -0.356 -0.581 -3.083 -13.208 -3.083 -14.277 0 -1.322 1.243 -0.564 2.714 1.655 0.833 1.258 2.56 3.778 3.836 5.601 l 2.321 3.314 l -2.324 2.122 c -2.449 2.236 -2.929 2.456 -3.463 1.584 z m -0.433 -17.693 c -1.798 -2.053 -3.541 -4.391 -3.872 -5.195 -0.688 -1.669 -2.32 -11.05 -2.06 -11.837 0.153 -0.462 9.995 19.679 9.995 20.454 0 0.885 -1.103 -0.044 -4.062 -3.423 z m -147.51 -18.02 c 7.494 -3.719 13.713 -6.673 13.82 -6.565 0.282 0.284 -9.941 9.399 -11.453 10.212 -1.085 0.583 -8.687 2.116 -14.314 2.886 -1.026 0.14 3.621 -2.401 11.947 -6.532 z m 10.158 1.319 c 0.685 -0.59 4.893 -3.718 9.351 -6.953 4.458 -3.235 21.367 -15.995 37.577 -28.357 17.4 -13.27 29.706 -22.341 30.04 -22.15 0.315 0.181 5.474 6.853 11.466 14.826 5.992 7.973 12.176 15.962 13.744 17.753 1.567 1.791 2.724 3.462 2.57 3.713 -0.154 0.251 -1.517 0.701 -3.03 1 -11.269 2.233 -84.23 17.679 -95.77 20.274 -2.374 0.534 -4.963 0.968 -5.754 0.966 l -1.439 -0.005 l 1.245 -1.072 z m 106.24 -24.808 c -0.727 -1.493 -1.205 -2.833 -1.062 -2.977 0.25 -0.252 7.76 3.054 8.575 3.774 0.453 0.401 -3.643 1.918 -5.178 1.918 -0.755 0 -1.351 -0.694 -2.335 -2.715 z" style="fill:#b90000"/><g style="fill:#ff4500"><path d="m 86.66 1025.68 c -2.648 -2.981 -9.822 -12.939 -9.591 -13.315 0.145 -0.236 1.405 -0.674 2.802 -0.975 23.11 -4.968 37.429 -7.868 37.668 -7.627 0.164 0.165 -0.013 0.588 -0.393 0.94 -1.295 1.199 -28.313 21.615 -28.911 21.847 -0.328 0.127 -1.037 -0.265 -1.575 -0.871 z m -29.381 -13.613 c -0.779 -0.947 -22.781 -107.56 -22.297 -108.05 0.245 -0.247 6.701 -1.776 14.347 -3.397 90.5 -19.19 157.83 -33.33 158.73 -33.33 0.997 0 1.2 0.377 1.881 3.503 4.971 22.81 21.703 104.58 21.451 104.84 -0.183 0.186 -2.383 0.784 -4.888 1.328 -4.338 0.942 -155.82 32.955 -164.59 34.783 -3.079 0.642 -4.308 0.729 -4.638 0.329 z m 7.296 -5.607 c 1.106 -0.264 8.7 -1.886 16.875 -3.604 90.78 -19.07 143.47 -30.368 143.91 -30.849 0.401 -0.436 -2.056 -13.01 -9.696 -49.609 -5.629 -26.964 -10.341 -49.31 -10.473 -49.652 -0.131 -0.345 -0.593 -0.627 -1.027 -0.627 -0.707 0 -59.83 12.406 -75.964 15.94 -3.56 0.78 -9.06 1.956 -12.228 2.614 -23.52 4.89 -74.19 15.761 -74.57 16 -0.26 0.162 -0.473 0.632 -0.473 1.043 0 0.638 10.574 52.04 14.15 68.78 1.635 7.658 4.323 20.667 5.291 25.611 0.442 2.259 0.902 4.271 1.021 4.47 0.284 0.476 0.775 0.458 3.184 -0.118 z m 42.07 -22.683 c -0.972 -1.921 -2.748 -3.562 -3.409 -3.151 -0.198 0.123 -1.575 0.328 -3.06 0.455 -1.698 0.146 -3.48 0.692 -4.8 1.471 -1.541 0.91 -3.02 1.305 -5.562 1.483 l -3.463 0.243 l -1.405 -1.717 c -1.136 -1.388 -1.631 -1.66 -2.588 -1.418 -1.383 0.35 -3.062 -0.918 -3.062 -2.313 0 -0.494 -0.25 -1.301 -0.555 -1.794 -0.705 -1.138 -0.203 -2.491 1.046 -2.82 0.855 -0.225 0.931 -0.519 0.662 -2.557 -0.252 -1.917 -0.126 -2.545 0.758 -3.748 1.08 -1.473 1.323 -2.972 0.762 -4.704 -0.33 -1.018 0.355 -1.879 3.561 -4.473 2.925 -2.366 5.544 -3.883 7.72 -4.471 1.16 -0.313 2.532 -0.796 3.047 -1.073 1.754 -0.943 6.727 -1.947 9.612 -1.941 7.971 0.018 9.682 0.137 11.708 0.82 1.209 0.407 3.169 1.045 4.355 1.417 1.551 0.487 2.201 0.963 2.311 1.695 0.095 0.631 0.506 1.018 1.079 1.018 0.746 0 0.926 0.343 0.926 1.774 0 0.976 -0.336 2.149 -0.748 2.607 -0.689 0.768 -0.586 0.942 1.319 2.228 1.333 0.9 2.122 1.819 2.224 2.588 0.087 0.656 0.68 1.69 1.319 2.299 1.151 1.098 1.575 3.608 0.794 4.702 -0.489 0.685 -2.843 1.681 -3.971 1.681 -0.515 0 -0.938 0.272 -0.94 0.604 -0.005 0.894 -4.727 2.237 -6.851 1.948 -1.296 -0.176 -2.075 -0.014 -2.71 0.565 -0.754 0.687 -1.192 0.73 -2.861 0.277 -1.816 -0.493 -2.103 -0.433 -3.644 0.751 -1.907 1.466 -2.139 2.883 -0.838 5.103 0.731 1.247 0.746 1.48 0.12 1.879 -1.271 0.81 -1.876 0.507 -2.856 -1.431 z m -39.816 -43.47 c -1.65 -0.455 -4.136 -4.345 -4.782 -7.483 -1.245 -6.04 1.758 -13.671 6.805 -17.293 l 1.477 -1.06 l 1.395 1.573 c 1.855 2.092 1.679 3.669 -0.409 3.669 -2.165 0 -3.289 1.286 -4.945 5.654 -1.68 4.433 -1.992 8.962 -0.706 10.258 1.501 1.513 4.643 0.804 6.824 -1.541 1.06 -1.14 1.141 -1.153 2.038 -0.335 2.073 1.891 0.305 4.836 -3.738 6.224 -1.217 0.418 -2.336 0.738 -2.487 0.712 -0.151 -0.027 -0.814 -0.197 -1.473 -0.379 z m 18.617 -5.082 c -1.821 -0.655 -4.613 -2.693 -6.529 -4.763 -1.649 -1.783 -1.821 -4.071 -0.567 -7.538 0.901 -2.49 1.469 -3.257 3.508 -4.733 2.255 -1.633 2.724 -1.774 6.431 -1.934 l 3.998 -0.173 l 1.685 1.815 c 2.132 2.296 4.03 5.971 3.995 7.718 -0.017 0.74 -0.61 2.976 -1.319 4.969 -1.103 3.102 -1.531 3.746 -2.967 4.469 -1.977 0.995 -5.728 1.072 -8.235 0.17 z m 4.503 -3.552 c 1.513 -1.749 1.985 -3.374 2.091 -7.206 l 0.109 -3.944 l -1.843 -1.492 c -2.056 -1.665 -2.634 -1.81 -3.194 -0.802 -0.211 0.38 -1.317 1.372 -2.458 2.205 -1.141 0.833 -2.382 2.255 -2.757 3.16 -0.71 1.713 -0.91 5.35 -0.371 6.765 0.758 1.991 6.995 2.965 8.424 1.315 z m 12.782 0.528 c -0.422 -0.514 -0.617 -1.77 -0.543 -3.503 0.064 -1.486 -0.008 -4.266 -0.158 -6.177 -0.22 -2.796 -0.505 -3.727 -1.461 -4.765 -2.546 -2.768 -0.047 -4.914 6.283 -5.397 6.156 -0.469 8.432 0.942 9.186 5.694 0.287 1.808 0.179 2.05 -1.675 3.776 -1.09 1.014 -1.982 1.963 -1.982 2.109 0 0.146 1.086 0.968 2.413 1.826 2.528 1.635 3.585 3 3.167 4.1 -0.189 0.495 -1.705 0.051 -6.309 -1.85 -5.901 -2.436 -6.079 -2.477 -6.745 -1.559 -0.444 0.613 -0.58 1.5 -0.388 2.534 0.327 1.758 -0.077 4.01 -0.719 4.01 -0.226 0 -0.708 -0.36 -1.07 -0.801 z m 5.096 -13.433 c 4.079 -0.267 6.463 -1.698 3.956 -2.375 -3.113 -0.841 -8.511 0.278 -8.511 1.765 0 0.968 0.559 1.386 1.413 1.055 0.409 -0.159 1.823 -0.359 3.142 -0.445 z m 21.11 8.459 c -0.542 -1.056 -0.732 -3 -0.732 -7.505 0 -7.344 -0.083 -7.428 -4.942 -4.965 -1.862 0.944 -3.67 1.607 -4.02 1.472 -0.907 -0.351 -0.777 -1.564 0.208 -1.945 0.462 -0.178 2.565 -1.341 4.675 -2.584 5.544 -3.266 13.504 -5.822 15.05 -4.833 1.381 0.88 0.083 1.884 -3.554 2.748 -2.02 0.48 -4 1.114 -4.4 1.409 -0.635 0.468 -0.667 1.58 -0.244 8.721 0.266 4.501 0.384 8.347 0.262 8.546 -0.491 0.802 -1.62 0.282 -2.311 -1.063 z m 20.691 -4.494 c -2.02 -2.722 -2.407 -3.861 -3.03 -8.819 -0.821 -6.542 -0.813 -7.973 0.046 -7.973 0.433 0 0.81 0.686 0.995 1.812 0.164 0.997 1.146 4.53 2.182 7.852 2.547 8.162 2.477 10.734 -0.194 7.128 z m 6.352 -2.258 c -0.98 -0.988 -1.405 -1.896 -1.411 -3.02 -0.005 -0.884 -0.309 -3.456 -0.674 -5.715 -0.367 -2.269 -0.484 -4.33 -0.26 -4.604 0.223 -0.273 1 -0.546 1.733 -0.607 0.731 -0.061 2.479 -0.544 3.884 -1.074 4.87 -1.836 8.572 -0.85 12.01 3.199 2.7 3.179 4.994 7.596 4.805 9.253 -0.083 0.728 -0.41 1.323 -0.725 1.323 -0.869 0 -3.885 -4.532 -4.738 -7.122 -0.883 -2.68 -2.608 -4.234 -4.698 -4.234 -0.819 0 -3.056 0.78 -4.97 1.733 -3.979 1.981 -3.94 1.872 -2.797 7.915 0.918 4.85 0.411 5.543 -2.159 2.953 z m 27.09 -2.208 c -2.154 -0.929 -3.902 -2.84 -4.53 -4.949 -0.474 -1.593 -0.433 -2.396 0.242 -4.735 0.659 -2.285 1.402 -3.432 3.936 -6.077 3.224 -3.365 7.513 -5.93 9.452 -5.651 0.791 0.114 0.983 0.436 0.877 1.466 -0.134 1.29 1.466 6.296 3.937 12.322 0.679 1.656 1.235 3.341 1.235 3.745 0 0.934 -1.098 0.937 -2.882 0.007 -1.331 -0.694 -1.468 -0.664 -2.973 0.658 -3.2 2.809 -7.104 4.159 -9.294 3.214 z m 5.937 -3.118 c 0.978 -0.517 2.4 -1.453 3.158 -2.081 1.355 -1.121 1.365 -1.168 0.603 -2.653 -0.427 -0.831 -1.139 -3.178 -1.583 -5.215 -0.46 -2.108 -1.098 -3.816 -1.48 -3.964 -0.764 -0.295 -5.569 4.228 -6.614 6.225 -1.131 2.162 -1.34 4.88 -0.527 6.841 0.683 1.648 0.894 1.787 2.703 1.787 1.079 0 2.762 -0.423 3.741 -0.94 z m -46.684 -12.26 c -0.784 -2.058 -0.423 -3.416 1.207 -4.539 2.134 -1.471 3.02 -1.26 3.468 0.829 0.327 1.513 0.207 1.826 -1.162 3.02 -1.64 1.428 -3.123 1.72 -3.514 0.693 z m -104.1 58.5 c -2.827 -3.787 -7.812 -10.44 -11.08 -14.783 -5.738 -7.633 -5.908 -7.928 -5.096 -8.832 1.169 -1.302 12.894 -10.09 13.461 -10.09 0.255 0 1.166 3.425 2.024 7.611 0.858 4.186 2.73 13.13 4.161 19.873 1.43 6.744 2.601 12.452 2.601 12.685 0 1.276 -1.443 -0.259 -6.074 -6.463 z m 187.33 -35.14 c 0 -0.456 1.516 -1.467 2.201 -1.467 0.19 0 -0.045 0.435 -0.522 0.966 -0.93 1.035 -1.678 1.259 -1.678 0.5 z m -1.232 -3.937 c -0.356 -0.581 -3.083 -13.208 -3.083 -14.277 0 -1.322 1.243 -0.564 2.714 1.655 0.833 1.258 2.56 3.778 3.836 5.601 l 2.321 3.314 l -2.324 2.122 c -2.449 2.236 -2.929 2.456 -3.463 1.584 z m -0.433 -17.693 c -1.798 -2.053 -3.541 -4.391 -3.872 -5.195 -0.688 -1.669 -2.32 -11.05 -2.06 -11.837 0.153 -0.462 9.995 19.679 9.995 20.454 0 0.885 -1.103 -0.044 -4.062 -3.423 z m -147.51 -18.02 c 7.494 -3.719 13.713 -6.673 13.82 -6.565 0.282 0.284 -9.941 9.399 -11.453 10.212 -1.085 0.583 -8.687 2.116 -14.314 2.886 -1.026 0.14 3.621 -2.401 11.947 -6.532 z m 10.158 1.319 c 0.685 -0.59 4.893 -3.718 9.351 -6.953 4.458 -3.235 21.367 -15.995 37.577 -28.357 17.4 -13.27 29.706 -22.341 30.04 -22.15 0.315 0.181 5.474 6.853 11.466 14.826 5.992 7.973 12.176 15.962 13.744 17.753 1.567 1.791 2.724 3.462 2.57 3.713 -0.154 0.251 -1.517 0.701 -3.03 1 -11.269 2.233 -84.23 17.679 -95.77 20.274 -2.374 0.534 -4.963 0.968 -5.754 0.966 l -1.439 -0.005 l 1.245 -1.072 z m 106.24 -24.808 c -0.727 -1.493 -1.205 -2.833 -1.062 -2.977 0.25 -0.252 7.76 3.054 8.575 3.774 0.453 0.401 -3.643 1.918 -5.178 1.918 -0.755 0 -1.351 -0.694 -2.335 -2.715 z"/><path d="m 82.48 1019.53 c -2.809 -3.705 -4.898 -6.867 -4.641 -7.03 0.257 -0.16 2.576 -0.702 5.155 -1.204 6.778 -1.321 22.21 -4.626 27.15 -5.814 2.331 -0.561 4.68 -0.953 5.222 -0.871 0.714 0.108 -2.899 3.105 -13.14 10.901 -7.769 5.913 -14.24 10.752 -14.38 10.752 -0.14 0 -2.553 -3.03 -5.362 -6.737 z m -25.25 -8.117 c 0 -0.196 -4.996 -24.337 -11.1 -53.646 c -6.106 -29.31 -11.01 -53.38 -10.892 -53.5 c 0.115 -0.116 13.04 -2.931 28.724 -6.255 92.01 -19.502 143.13 -30.25 143.9 -30.25 0.513 0 0.991 0.453 1.147 1.087 1.907 7.741 22.06 106.06 21.795 106.35 -0.196 0.222 -2.809 0.927 -5.806 1.568 -46.605 9.955 -165.87 34.996 -166.68 34.996 -0.595 0 -1.083 -0.16 -1.083 -0.356 z m 9.199 -5.229 c 1.929 -0.414 11.168 -2.36 20.531 -4.323 77.91 -16.34 138.74 -29.23 138.96 -29.455 0.116 -0.116 -0.165 -2.343 -0.624 -4.948 -0.906 -5.146 -19.286 -94.23 -19.646 -95.22 -0.121 -0.332 -0.744 -0.604 -1.385 -0.604 -0.911 0 -51.34 10.567 -88.77 18.603 -2.901 0.623 -20.785 4.416 -39.743 8.43 -18.958 4.01 -34.656 7.415 -34.885 7.557 -0.229 0.143 -0.416 0.736 -0.416 1.319 0 0.583 2.382 12.476 5.293 26.428 2.911 13.952 6.03 28.956 6.926 33.34 2.564 12.519 4.907 23.635 5.705 27.06 0.402 1.728 1.21 5.261 1.795 7.852 1.21 5.356 0.84 5.123 6.263 3.958 z m 40.964 -22.08 c -0.373 -0.864 -1.224 -2.143 -1.891 -2.842 -1.108 -1.162 -1.483 -1.258 -4.335 -1.107 -2.343 0.124 -3.757 0.518 -5.667 1.58 -3.301 1.836 -8.863 2.536 -9.337 1.176 -0.509 -1.462 -2.236 -2.529 -4.108 -2.541 -1.561 -0.009 -1.824 -0.18 -2.067 -1.34 -0.153 -0.731 -0.481 -1.706 -0.728 -2.168 -0.682 -1.269 -0.562 -1.612 0.777 -2.227 1.137 -0.522 1.204 -0.726 0.902 -2.754 -0.242 -1.623 -0.14 -2.405 0.392 -3.02 0.395 -0.455 0.998 -1.628 1.341 -2.607 0.505 -1.443 0.508 -1.921 0.013 -2.522 -0.506 -0.614 -0.434 -0.968 0.415 -2.056 0.564 -0.723 1.521 -1.654 2.127 -2.069 5.815 -3.984 7.359 -4.882 8.865 -5.157 0.957 -0.174 2.28 -0.589 2.94 -0.92 0.659 -0.332 2.17 -0.762 3.357 -0.957 1.187 -0.194 2.429 -0.574 2.76 -0.843 0.351 -0.286 1.648 -0.362 3.117 -0.182 1.383 0.169 4.392 0.36 6.687 0.424 2.554 0.071 4.404 0.35 4.771 0.72 0.33 0.332 1.069 0.604 1.643 0.604 1.92 0 4.518 1.393 4.518 2.423 0 0.638 0.322 0.96 0.959 0.96 0.738 0 0.959 0.322 0.959 1.398 0 0.825 -0.309 1.517 -0.753 1.689 -1.282 0.496 -0.608 2.388 1.148 3.221 1.813 0.861 2.464 1.697 2.475 3.18 0.004 0.567 0.547 1.388 1.206 1.823 1.761 1.163 1.565 4.635 -0.263 4.635 -0.484 0 -1.018 0.226 -1.188 0.503 -0.17 0.277 -0.723 0.37 -1.229 0.208 -0.592 -0.189 -1.023 -0.028 -1.205 0.452 -0.493 1.296 -3.074 2.22 -6.199 2.22 -2.068 0 -3.168 0.223 -3.581 0.725 -0.774 0.94 -2.115 0.925 -2.903 -0.031 -1.414 -1.717 -5.197 1.03 -5.232 3.8 -0.009 0.744 0.315 2 0.722 2.793 0.723 1.408 0.608 2.378 -0.281 2.378 -0.245 0 -0.75 -0.707 -1.123 -1.571 z m -0.893 -5.799 c -0.11 -0.332 -0.487 -0.604 -0.839 -0.604 -0.352 0 -0.729 0.272 -0.839 0.604 -0.119 0.359 0.221 0.604 0.839 0.604 0.618 0 0.958 -0.245 0.839 -0.604 z m -39.919 -38.74 c -0.805 -0.349 -1.903 -1.463 -2.494 -2.53 -2.869 -5.181 -2.452 -11.281 1.142 -16.729 1.216 -1.843 2.878 -3.76 3.694 -4.26 1.406 -0.862 1.524 -0.866 2.278 -0.071 0.437 0.461 0.94 1.327 1.117 1.925 0.263 0.887 0.136 1.087 -0.693 1.087 -1.512 0 -3.563 1.217 -4.207 2.496 -2.91 5.774 -3.879 11.776 -2.295 14.212 0.761 1.17 1.048 1.265 3.208 1.056 1.742 -0.169 2.741 -0.586 3.759 -1.569 1.587 -1.532 2.883 -1.358 2.883 0.387 0 2.602 -5.531 5.236 -8.391 3.996 z m 19.18 -4.647 c -3.65 -1.194 -7.906 -5.597 -7.91 -8.182 -0.002 -1.525 1.374 -5.305 2.357 -6.475 1.307 -1.556 4.855 -3.784 5.579 -3.504 0.982 0.38 0.861 2.112 -0.171 2.442 -0.475 0.152 -1.709 1.149 -2.742 2.215 -1.751 1.807 -1.891 2.162 -2.063 5.229 -0.163 2.912 -0.054 3.443 0.949 4.619 0.943 1.105 1.639 1.374 4.142 1.603 2.713 0.248 3.128 0.162 4.232 -0.881 1.858 -1.755 2.685 -4.161 2.328 -6.782 -0.191 -1.408 -0.112 -2.363 0.213 -2.565 0.888 -0.553 0.588 -1.197 -1.706 -3.669 l -2.223 -2.395 h 1.707 c 1.412 0 2.01 0.354 3.464 2.054 2.119 2.476 3.592 5.242 3.592 6.744 0 2.153 -2.368 8.347 -3.452 9.03 -1.317 0.829 -6.381 1.145 -8.296 0.519 z m 17.279 -2.856 c -0.21 -0.342 -0.428 -3.441 -0.484 -6.886 -0.1 -6.098 -0.137 -6.296 -1.376 -7.454 -2.174 -2.031 -1.638 -3.138 2.051 -4.239 4.786 -1.429 10.315 -0.715 11.439 1.477 0.674 1.314 1.123 4.269 0.783 5.161 -0.163 0.429 -1.031 1.237 -1.928 1.796 -0.897 0.559 -1.631 1.322 -1.631 1.696 0 0.374 1.172 1.464 2.603 2.422 2.402 1.607 3.505 2.905 2.947 3.467 -0.263 0.265 -1.363 -0.126 -7.118 -2.533 -2.474 -1.035 -4.582 -1.638 -5.121 -1.465 -1 0.32 -1.703 2.589 -1.248 4.03 0.386 1.225 -0.395 3.375 -0.917 2.524 z m 8.104 -13.495 c 1.301 -0.433 2.44 -1.021 2.53 -1.308 0.449 -1.424 -5 -2.155 -8.584 -1.153 -1.888 0.528 -2.768 1.979 -1.865 3.076 0.654 0.794 4.603 0.488 7.92 -0.615 z m 18.432 8.806 c -0.46 -0.557 -0.73 -2.846 -0.898 -7.611 -0.236 -6.709 -0.257 -6.817 -1.369 -6.975 -0.621 -0.089 -2.406 0.525 -3.966 1.362 -4.607 2.475 -5.02 1.517 -0.498 -1.155 6.545 -3.867 14.894 -6.814 16.04 -5.661 0.593 0.598 -0.671 1.229 -3.971 1.981 -5.01 1.142 -4.936 1.012 -4.581 8.629 0.17 3.631 0.425 7.418 0.569 8.414 0.278 1.935 -0.238 2.33 -1.324 1.015 z m 20.16 -5.244 c -0.673 -1.063 -1.386 -2.211 -1.586 -2.55 -0.415 -0.707 -1.743 -10.37 -1.675 -12.189 0.038 -1.015 0.122 -0.937 0.525 0.483 0.264 0.93 1.335 4.471 2.38 7.868 1.045 3.397 1.828 6.659 1.74 7.248 -0.143 0.953 -0.297 0.857 -1.384 -0.861 z m 6.629 -2.057 c -0.938 -0.987 -1.311 -1.88 -1.311 -3.141 0 -0.969 -0.2 -2.806 -0.444 -4.081 -1.018 -5.314 -1.022 -5.459 -0.143 -5.47 0.455 -0.006 2.338 -0.548 4.184 -1.206 6.113 -2.178 9.34 -1.253 12.973 3.719 1.228 1.68 2.641 3.862 3.141 4.848 0.956 1.886 1.199 3.764 0.487 3.764 -0.561 0 -3.895 -4.905 -3.895 -5.73 0 -1.39 -1.634 -4.01 -2.918 -4.681 -2.125 -1.107 -3.788 -0.848 -8.04 1.252 -3.054 1.509 -3.905 2.143 -3.724 2.779 0.479 1.683 1.363 8.228 1.185 8.768 -0.107 0.325 -0.735 -0.019 -1.496 -0.819 z m 24.912 -3.486 c -2.157 -1.909 -2.872 -4.213 -2.218 -7.152 0.7 -3.149 1.48 -4.403 4.606 -7.408 2.575 -2.474 6.5 -4.783 8.133 -4.783 0.399 0 0.658 0.525 0.658 1.333 0 1.344 1.629 6.283 4.07 12.339 0.728 1.805 1.191 3.416 1.029 3.579 -0.552 0.557 -4.109 -1.404 -4.02 -2.216 0.048 -0.429 -0.382 -2.302 -0.956 -4.163 -0.573 -1.86 -1.276 -4.307 -1.561 -5.436 -0.361 -1.428 -0.772 -2.054 -1.352 -2.054 -0.458 0 -2.274 1.468 -4.03 3.262 -2.424 2.471 -3.34 3.794 -3.776 5.455 -0.65 2.478 -0.284 5.376 0.821 6.489 1.226 1.236 4.355 0.916 7.272 -0.742 3.164 -1.799 3.119 -0.789 -0.053 1.192 -1.363 0.851 -3.15 1.488 -4.559 1.624 -2.079 0.201 -2.496 0.066 -4.062 -1.319 z m -38.825 -14.843 c -0.338 -1.783 0.012 -2.479 1.686 -3.351 1.578 -0.822 2.01 -0.585 2.463 1.354 0.248 1.06 0.049 1.477 -1.091 2.295 -1.875 1.345 -2.763 1.259 -3.058 -0.298 z m -109.71 51.55 c -5.683 -7.573 -10.488 -14.03 -10.677 -14.35 -0.224 -0.377 2.027 -2.382 6.421 -5.72 3.721 -2.827 6.837 -5.066 6.924 -4.977 0.087 0.09 0.945 4.077 1.906 8.861 0.961 4.784 2.716 13.13 3.901 18.553 1.185 5.42 2.087 10.203 2.01 10.628 -0.086 0.45 -4.47 -4.987 -10.48 -12.996 z m 191.64 -31.961 c -0.61 -1.883 -2.267 -11.02 -2.122 -11.704 0.198 -0.939 6.657 7.723 6.615 8.871 -0.027 0.743 -2.137 2.658 -3.518 3.192 -0.435 0.168 -0.855 0.014 -0.975 -0.359 z m -136.94 -33 c 0 -0.118 9.44 -7.367 20.979 -16.11 11.538 -8.742 28.423 -21.582 37.522 -28.533 9.1 -6.951 16.807 -12.64 17.13 -12.643 0.323 -0.003 4.207 4.815 8.631 10.706 4.425 5.891 10.472 13.874 13.438 17.74 3.649 4.755 5.2 7.132 4.795 7.347 -0.329 0.176 -1.462 0.469 -2.517 0.652 -1.055 0.183 -15.296 3.16 -31.648 6.616 -16.351 3.456 -34.808 7.344 -41.02 8.64 -6.207 1.296 -14.773 3.131 -19.03 4.077 -8.234 1.827 -8.281 1.836 -8.281 1.506 z"/><path d="m 84.21 1017.8 c -2.809 -3.705 -4.898 -6.867 -4.641 -7.03 0.257 -0.16 2.576 -0.702 5.155 -1.204 6.778 -1.321 22.21 -4.626 27.15 -5.814 2.331 -0.561 4.68 -0.953 5.222 -0.871 0.714 0.108 -2.899 3.105 -13.14 10.901 -7.769 5.913 -14.24 10.752 -14.38 10.752 -0.14 0 -2.553 -3.03 -5.362 -6.737 z m -25.25 -8.117 c 0 -0.196 -4.996 -24.337 -11.1 -53.646 -6.106 -29.31 -11.01 -53.38 -10.892 -53.5 0.115 -0.116 13.04 -2.931 28.724 -6.255 92.01 -19.502 143.13 -30.25 143.9 -30.25 0.513 0 0.991 0.453 1.147 1.087 1.907 7.741 22.06 106.06 21.795 106.35 -0.196 0.222 -2.809 0.927 -5.806 1.568 -46.605 9.955 -165.87 34.996 -166.68 34.996 -0.595 0 -1.083 -0.16 -1.083 -0.356 z m 9.199 -5.229 c 1.929 -0.414 11.168 -2.36 20.531 -4.323 77.91 -16.34 138.74 -29.23 138.96 -29.455 0.116 -0.116 -0.165 -2.343 -0.624 -4.948 -0.906 -5.146 -19.286 -94.23 -19.646 -95.22 -0.121 -0.332 -0.744 -0.604 -1.385 -0.604 -0.911 0 -51.34 10.567 -88.77 18.603 -2.901 0.623 -20.785 4.416 -39.743 8.43 -18.958 4.01 -34.656 7.415 -34.885 7.557 -0.229 0.143 -0.416 0.736 -0.416 1.319 0 0.583 2.382 12.476 5.293 26.428 2.911 13.952 6.03 28.956 6.926 33.34 2.564 12.519 4.907 23.635 5.705 27.06 0.402 1.728 1.21 5.261 1.795 7.852 1.21 5.356 0.84 5.123 6.263 3.958 z m 40.964 -22.08 c -0.373 -0.864 -1.224 -2.143 -1.891 -2.842 -1.108 -1.162 -1.483 -1.258 -4.335 -1.107 -2.343 0.124 -3.757 0.518 -5.667 1.58 -3.301 1.836 -8.863 2.536 -9.337 1.176 -0.509 -1.462 -2.236 -2.529 -4.108 -2.541 -1.561 -0.009 -1.824 -0.18 -2.067 -1.34 -0.153 -0.731 -0.481 -1.706 -0.728 -2.168 -0.682 -1.269 -0.562 -1.612 0.777 -2.227 1.137 -0.522 1.204 -0.726 0.902 -2.754 -0.242 -1.623 -0.14 -2.405 0.392 -3.02 0.395 -0.455 0.998 -1.628 1.341 -2.607 0.505 -1.443 0.508 -1.921 0.013 -2.522 -0.506 -0.614 -0.434 -0.968 0.415 -2.056 0.564 -0.723 1.521 -1.654 2.127 -2.069 5.815 -3.984 7.359 -4.882 8.865 -5.157 0.957 -0.174 2.28 -0.589 2.94 -0.92 0.659 -0.332 2.17 -0.762 3.357 -0.957 1.187 -0.194 2.429 -0.574 2.76 -0.843 0.351 -0.286 1.648 -0.362 3.117 -0.182 1.383 0.169 4.392 0.36 6.687 0.424 2.554 0.071 4.404 0.35 4.771 0.72 0.33 0.332 1.069 0.604 1.643 0.604 1.92 0 4.518 1.393 4.518 2.423 0 0.638 0.322 0.96 0.959 0.96 0.738 0 0.959 0.322 0.959 1.398 0 0.825 -0.309 1.517 -0.753 1.689 -1.282 0.496 -0.608 2.388 1.148 3.221 1.813 0.861 2.464 1.697 2.475 3.18 0.004 0.567 0.547 1.388 1.206 1.823 1.761 1.163 1.565 4.635 -0.263 4.635 -0.484 0 -1.018 0.226 -1.188 0.503 -0.17 0.277 -0.723 0.37 -1.229 0.208 -0.592 -0.189 -1.023 -0.028 -1.205 0.452 -0.493 1.296 -3.074 2.22 -6.199 2.22 -2.068 0 -3.168 0.223 -3.581 0.725 -0.774 0.94 -2.115 0.925 -2.903 -0.031 -1.414 -1.717 -5.197 1.03 -5.232 3.8 -0.009 0.744 0.315 2 0.722 2.793 0.723 1.408 0.608 2.378 -0.281 2.378 -0.245 0 -0.75 -0.707 -1.123 -1.571 z m -0.893 -5.799 c -0.11 -0.332 -0.487 -0.604 -0.839 -0.604 -0.352 0 -0.729 0.272 -0.839 0.604 -0.119 0.359 0.221 0.604 0.839 0.604 0.618 0 0.958 -0.245 0.839 -0.604 z m -39.919 -38.74 c -0.805 -0.349 -1.903 -1.463 -2.494 -2.53 -2.869 -5.181 -2.452 -11.281 1.142 -16.729 1.216 -1.843 2.878 -3.76 3.694 -4.26 1.406 -0.862 1.524 -0.866 2.278 -0.071 0.437 0.461 0.94 1.327 1.117 1.925 0.263 0.887 0.136 1.087 -0.693 1.087 -1.512 0 -3.563 1.217 -4.207 2.496 -2.91 5.774 -3.879 11.776 -2.295 14.212 0.761 1.17 1.048 1.265 3.208 1.056 1.742 -0.169 2.741 -0.586 3.759 -1.569 1.587 -1.532 2.883 -1.358 2.883 0.387 0 2.602 -5.531 5.236 -8.391 3.996 z m 19.18 -4.647 c -3.65 -1.194 -7.906 -5.597 -7.91 -8.182 -0.002 -1.525 1.374 -5.305 2.357 -6.475 1.307 -1.556 4.855 -3.784 5.579 -3.504 0.982 0.38 0.861 2.112 -0.171 2.442 -0.475 0.152 -1.709 1.149 -2.742 2.215 -1.751 1.807 -1.891 2.162 -2.063 5.229 -0.163 2.912 -0.054 3.443 0.949 4.619 0.943 1.105 1.639 1.374 4.142 1.603 2.713 0.248 3.128 0.162 4.232 -0.881 1.858 -1.755 2.685 -4.161 2.328 -6.782 -0.191 -1.408 -0.112 -2.363 0.213 -2.565 0.888 -0.553 0.588 -1.197 -1.706 -3.669 l -2.223 -2.395 h 1.707 c 1.412 0 2.01 0.354 3.464 2.054 2.119 2.476 3.592 5.242 3.592 6.744 0 2.153 -2.368 8.347 -3.452 9.03 -1.317 0.829 -6.381 1.145 -8.296 0.519 z m 17.279 -2.856 c -0.21 -0.342 -0.428 -3.441 -0.484 -6.886 -0.1 -6.098 -0.137 -6.296 -1.376 -7.454 -2.174 -2.031 -1.638 -3.138 2.051 -4.239 4.786 -1.429 10.315 -0.715 11.439 1.477 0.674 1.314 1.123 4.269 0.783 5.161 -0.163 0.429 -1.031 1.237 -1.928 1.796 -0.897 0.559 -1.631 1.322 -1.631 1.696 0 0.374 1.172 1.464 2.603 2.422 2.402 1.607 3.505 2.905 2.947 3.467 -0.263 0.265 -1.363 -0.126 -7.118 -2.533 -2.474 -1.035 -4.582 -1.638 -5.121 -1.465 -1 0.32 -1.703 2.589 -1.248 4.03 0.386 1.225 -0.395 3.375 -0.917 2.524 z m 8.104 -13.495 c 1.301 -0.433 2.44 -1.021 2.53 -1.308 0.449 -1.424 -5 -2.155 -8.584 -1.153 -1.888 0.528 -2.768 1.979 -1.865 3.076 0.654 0.794 4.603 0.488 7.92 -0.615 z m 18.432 8.806 c -0.46 -0.557 -0.73 -2.846 -0.898 -7.611 -0.236 -6.709 -0.257 -6.817 -1.369 -6.975 -0.621 -0.089 -2.406 0.525 -3.966 1.362 -4.607 2.475 -5.02 1.517 -0.498 -1.155 6.545 -3.867 14.894 -6.814 16.04 -5.661 0.593 0.598 -0.671 1.229 -3.971 1.981 -5.01 1.142 -4.936 1.012 -4.581 8.629 0.17 3.631 0.425 7.418 0.569 8.414 0.278 1.935 -0.238 2.33 -1.324 1.015 z m 20.16 -5.244 c -0.673 -1.063 -1.386 -2.211 -1.586 -2.55 -0.415 -0.707 -1.743 -10.37 -1.675 -12.189 0.038 -1.015 0.122 -0.937 0.525 0.483 0.264 0.93 1.335 4.471 2.38 7.868 1.045 3.397 1.828 6.659 1.74 7.248 -0.143 0.953 -0.297 0.857 -1.384 -0.861 z m 6.629 -2.057 c -0.938 -0.987 -1.311 -1.88 -1.311 -3.141 0 -0.969 -0.2 -2.806 -0.444 -4.081 -1.018 -5.314 -1.022 -5.459 -0.143 -5.47 0.455 -0.006 2.338 -0.548 4.184 -1.206 6.113 -2.178 9.34 -1.253 12.973 3.719 1.228 1.68 2.641 3.862 3.141 4.848 0.956 1.886 1.199 3.764 0.487 3.764 -0.561 0 -3.895 -4.905 -3.895 -5.73 0 -1.39 -1.634 -4.01 -2.918 -4.681 -2.125 -1.107 -3.788 -0.848 -8.04 1.252 -3.054 1.509 -3.905 2.143 -3.724 2.779 0.479 1.683 1.363 8.228 1.185 8.768 -0.107 0.325 -0.735 -0.019 -1.496 -0.819 z m 24.912 -3.486 c -2.157 -1.909 -2.872 -4.213 -2.218 -7.152 0.7 -3.149 1.48 -4.403 4.606 -7.408 2.575 -2.474 6.5 -4.783 8.133 -4.783 0.399 0 0.658 0.525 0.658 1.333 0 1.344 1.629 6.283 4.07 12.339 0.728 1.805 1.191 3.416 1.029 3.579 -0.552 0.557 -4.109 -1.404 -4.02 -2.216 0.048 -0.429 -0.382 -2.302 -0.956 -4.163 -0.573 -1.86 -1.276 -4.307 -1.561 -5.436 -0.361 -1.428 -0.772 -2.054 -1.352 -2.054 -0.458 0 -2.274 1.468 -4.03 3.262 -2.424 2.471 -3.34 3.794 -3.776 5.455 -0.65 2.478 -0.284 5.376 0.821 6.489 1.226 1.236 4.355 0.916 7.272 -0.742 3.164 -1.799 3.119 -0.789 -0.053 1.192 -1.363 0.851 -3.15 1.488 -4.559 1.624 -2.079 0.201 -2.496 0.066 -4.062 -1.319 z m -38.825 -14.843 c -0.338 -1.783 0.012 -2.479 1.686 -3.351 1.578 -0.822 2.01 -0.585 2.463 1.354 0.248 1.06 0.049 1.477 -1.091 2.295 -1.875 1.345 -2.763 1.259 -3.058 -0.298 z m -109.71 51.55 c -5.683 -7.573 -10.488 -14.03 -10.677 -14.35 -0.224 -0.377 2.027 -2.382 6.421 -5.72 3.721 -2.827 6.837 -5.066 6.924 -4.977 0.087 0.09 0.945 4.077 1.906 8.861 0.961 4.784 2.716 13.13 3.901 18.553 1.185 5.42 2.087 10.203 2.01 10.628 -0.086 0.45 -4.47 -4.987 -10.48 -12.996 z m 191.64 -31.961 c -0.61 -1.883 -2.267 -11.02 -2.122 -11.704 0.198 -0.939 6.657 7.723 6.615 8.871 -0.027 0.743 -2.137 2.658 -3.518 3.192 -0.435 0.168 -0.855 0.014 -0.975 -0.359 z m -136.94 -32.981 c 0 -0.13 9.44 -7.389 20.979 -16.13 11.538 -8.742 28.423 -21.582 37.522 -28.533 9.1 -6.951 16.807 -12.64 17.13 -12.643 0.323 -0.003 4.207 4.815 8.631 10.706 4.425 5.891 10.472 13.874 13.438 17.74 3.695 4.815 5.205 7.134 4.795 7.364 -0.329 0.184 -1.617 0.488 -2.862 0.675 l -2.264 0.34 l -1.333 -2.241 c -1.409 -2.37 -18.701 -25.85 -20.402 -27.704 -0.549 -0.598 -1.122 -1.087 -1.274 -1.086 -0.152 0.001 -5.994 4.351 -12.983 9.667 -6.989 5.316 -17.343 13.192 -23.01 17.502 -11.489 8.739 -21.585 17.05 -21.585 17.778 0 0.262 0.863 0.476 1.918 0.476 1.335 0 1.918 0.208 1.918 0.684 0 0.47 -1.617 1.08 -5.155 1.945 -2.835 0.693 -6.665 1.661 -8.511 2.15 -4.108 1.089 -6.953 1.625 -6.953 1.31 z m 26.464 -6.936 c 0.12 -0.63 1.138 -1.06 3.991 -1.687 4.114 -0.904 6.528 -0.931 6.806 -0.076 0.106 0.327 -1.823 0.934 -4.998 1.571 -6.221 1.249 -6 1.241 -5.799 0.192 z"/></g></g></g></svg>