<svg xmlns="http://www.w3.org/2000/svg" viewBox="0 0 256 256" xmlns:xlink="http://www.w3.org/1999/xlink"><defs><clipPath id="0"><path transform="matrix(15.33333 0 0 11.5 415 -125.5)" d="m -24 13 c 0 1.105 -0.672 2 -1.5 2 -0.828 0 -1.5 -0.895 -1.5 -2 0 -1.105 0.672 -2 1.5 -2 0.828 0 1.5 0.895 1.5 2 z"/></clipPath></defs><path d="m 3.74 950.97 c 19.829 131.87 217.21 135.83 247.04 7.636 30.702 -103.78 -80.47 -188.63 -163.63 -154.63 -55.684 16.07 -100.67 81.83 -83.41 146.99 z" transform="translate(0 -796.36)" style="fill:#fff;color:#000"/><g transform="matrix(1.30832 0 0 1.22774 42.32 50.47)" style="fill:#ff4500"><g transform="matrix(3.54918 0 0 3.54918 -21.863 -22.936)" style="clip-path:url(#0)"><g transform="translate(1 1)" style="opacity:0.1"><path d="m 25.438 7.508 c 18.09 21.992 13.09 30.652 -15 25.98 18.859 -0.66 23.859 -9.32 15 -25.98"/><path d="m 24.19 13.281 c -13.352 0.223 -15.766 6.75 -7.313 19.563 0.797 -0.141 1.559 -0.289 2.273 -0.469 -3.227 -11.359 2.902 -17.332 18.406 -17.859 -5.27 -0.875 -9.727 -1.277 -13.375 -1.219 m -6.219 21.17 c 1.32 1.883 2.836 3.895 4.59 6.03 -1.105 -2.082 -2.01 -4.04 -2.684 -5.875 -0.617 -0.035 -1.254 -0.098 -1.906 -0.156" id="1"/></g></g><g transform="matrix(3.54918 0 0 3.54918 -21.863 -22.936)" style="clip-path:url(#0)"><g><path d="m 25.438 7.508 c 18.09 21.992 13.09 30.652 -15 25.98 18.859 -0.66 23.859 -9.32 15 -25.98" style="fill:#ffdead"/><use xlink:href="#1"/></g></g></g></svg>