<svg xmlns="http://www.w3.org/2000/svg" viewBox="0 0 256 256"><g transform="translate(0 -796.36)"><path d="m 219.09 831.47 c 128.98 97.46 -115.83 311.92 -188.38 178.21 -97.07 -145.69 55.23 -278.82 188.38 -178.21 z" style="fill:#fff;color:#000"/><path d="m 120.59 995.07 c -4.69 -2.467 -5.612 -3.793 -3.572 -5.134 2.49 -1.636 1.065 -11.144 -3.272 -21.838 -4.264 -10.512 -4.322 -10.836 -2.362 -13.16 4.576 -5.427 4.339 -5.731 -3.81 -4.893 -22.629 2.326 -26.604 3.079 -34.413 6.527 -10.285 4.541 -18.787 7.245 -18.787 5.976 0 -0.538 1.36 -1.384 3.02 -1.88 l 3.02 -0.9 l -3.205 -0.687 c -3.196 -0.684 -3.187 -0.699 3.297 -5.246 3.576 -2.508 13.673 -12.07 22.437 -21.251 15.767 -16.514 32.09 -30.3 42.527 -35.923 3.126 -1.684 5.946 -4.196 6.71 -5.978 0.725 -1.69 1.317 -7.972 1.317 -13.958 0 -12.691 1.624 -16.06 8.841 -18.362 4.03 -1.284 4.694 -1.135 9.713 2.181 3.344 2.209 7.62 3.853 11.275 4.335 14.57 1.92 26.728 6.138 29.01 10.07 0.412 0.708 -0.688 0.497 -2.444 -0.468 -9.51 -5.227 -28.06 -7.099 -35.11 -3.543 -5.767 2.909 -6.218 4.751 -4.177 17.07 2.768 16.711 0.82 30.05 -5.721 39.17 -1.572 2.19 -5.847 6.321 -9.501 9.181 -3.654 2.859 -7.287 6.517 -8.07 8.13 -0.787 1.612 -2.385 4.221 -3.551 5.797 -1.823 2.464 -2.136 4.931 -2.236 17.635 -0.073 9.308 0.336 15.349 1.107 16.337 0.673 0.861 0.916 2.866 0.541 4.456 -0.766 3.242 1.654 5.319 6.199 5.319 1.435 0 3.57 0.771 4.743 1.714 1.969 1.583 1.709 1.718 -3.362 1.751 -3.432 0.036 -7.249 -0.886 -10.166 -2.421 z m -2.581 -30.541 c -0.059 -2.088 0.254 -6.03 0.695 -8.761 0.901 -5.577 -0.482 -6.617 -2.767 -2.079 -1.722 3.42 -1.746 8.868 -0.054 12.228 1.698 3.371 2.251 3.01 2.126 -1.388 z" style="fill:#ff4500"/></g></svg>