<svg xmlns="http://www.w3.org/2000/svg" viewBox="0 0 256 256"><g transform="translate(0 -796.36)"><path d="m 229.63 992.2 c 92.05 -130.93 -77.948 -263.6 -186.39 -156.91 -102.17 100.51 -7.449 256.68 119.69 207.86 c 26.526 -10.185 49.802 -26.914 66.7 -50.948 z" style="fill:#fff;color:#000"/><g transform="matrix(4.85221 0 0 4.70898 -1855.3 -1542.52)"><path d="m 409.91 508.4 c 16.893 20.534 12.225 28.619 -14 24.26 17.605 -0.616 22.273 -8.702 14 -24.26 z" style="fill:#ff4500"/><path d="m 408.75 513.79 c -12.466 0.21 -14.718 6.3 -6.827 18.264 0.744 -0.13 1.456 -0.267 2.13 -0.438 -1.185 -4.16 -1.023 -7.546 0.485 -10.156 2.336 -4.04 7.902 -6.224 16.695 -6.532 -4.918 -0.818 -9.09 -1.195 -12.487 -1.138 z m -5.806 19.781 c 1.233 1.758 2.65 3.639 4.289 5.631 -1.034 -1.944 -1.88 -3.774 -2.509 -5.485 -0.574 -0.034 -1.172 -0.092 -1.78 -0.146 z" style="fill:#ffdead"/></g></g></svg>