<svg xmlns="http://www.w3.org/2000/svg" viewBox="0 0 256 256"><defs><clipPath><path d="m -24 13 c 0 1.105 -0.672 2 -1.5 2 -0.828 0 -1.5 -0.895 -1.5 -2 0 -1.105 0.672 -2 1.5 -2 0.828 0 1.5 0.895 1.5 2 z" transform="matrix(15.33333 0 0 11.5 415 -125.5)"/></clipPath><linearGradient id="5" gradientUnits="userSpaceOnUse" x1="24" y1="19.997" x2="16" y2="19.906"><stop style="stop-color:#d30000"/><stop offset="1" style="stop-color:#ec0000;stop-opacity:0"/></linearGradient><linearGradient id="6" gradientUnits="userSpaceOnUse" x1="24" y1="19.506" x2="28.02" y2="19.55"><stop style="stop-color:#a10000"/><stop offset="1" style="stop-color:#ec0000;stop-opacity:0"/></linearGradient><linearGradient id="7" gradientUnits="userSpaceOnUse" x1="32.795" y1="21.696" x2="34.795" y2="32.32"><stop style="stop-color:#ff1919"/><stop offset="1" style="stop-color:#bd0000"/></linearGradient><linearGradient id="8" gradientUnits="userSpaceOnUse" x1="23.955" y1="10.01" x2="29.21" y2="30.28"><stop style="stop-color:#920000"/><stop offset="1" style="stop-color:#c90000"/></linearGradient><linearGradient id="4" gradientUnits="userSpaceOnUse" x1="19.941" y1="10.919" x2="24" y2="22.751"><stop style="stop-color:#e50000"/><stop offset="1" style="stop-color:#b40000"/></linearGradient><linearGradient id="1" gradientUnits="userSpaceOnUse" x1="37.536" y1="34.2" x2="9.929" y2="20.09"><stop style="stop-color:#d30000"/><stop offset="1" style="stop-color:#a80000"/></linearGradient><linearGradient id="3" gradientUnits="userSpaceOnUse" x1="15.714" y1="16.829" x2="36.482" y2="20.668"><stop style="stop-color:#ff1919"/><stop offset="1" style="stop-color:#fc0000"/></linearGradient><linearGradient id="2" gradientUnits="userSpaceOnUse" x1="6.723" y1="37.683" x2="37.805" y2="29.1"><stop style="stop-color:#ff1919"/><stop offset="1" style="stop-color:#ff1919;stop-opacity:0"/></linearGradient><radialGradient id="0" gradientUnits="userSpaceOnUse" gradientTransform="matrix(1 0 0 0.3 0 25.725)" cx="24" cy="36.75" r="22.5"><stop style="stop-color:#6e0000"/><stop offset="1" style="stop-color:#6e0000;stop-opacity:0"/></radialGradient></defs><path d="m 216.38 223.2 c -221.56 145.18 -307.3 -251.35 -79.37 -219.76 92.96 12.881 164.13 164.23 79.37 219.76 z" style="fill:#fff;color:#000"/><g transform="matrix(2.65596 0 0 2.80164 -860.91 -1333.49)"><g transform="translate(351 507.37)"><g style="display:block;color:#000"><path d="m 46.5 36.75 c 0 3.728 -10.07 6.75 -22.5 6.75 -12.426 0 -22.5 -3.02 -22.5 -6.75 0 -3.728 10.07 -6.75 22.5 -6.75 c 12.426 0 22.5 3.02 22.5 6.75 z" transform="matrix(1.06667 0 0 0.96296 -1.6 1.111)" style="fill:url(#0);opacity:0.502"/><g style="stroke-linecap:round;stroke-linejoin:round;stroke-dashoffset:17.85"><path d="m 4.5,11.5 39,0 4,27 -18.5,0 -1,-1 c -2,1.5 -6,1.5 -8,0 l -1,1 -18.5,0 4,-27 z" style="fill:#6b0000;stroke:#570000"/><path d="m 5.281 12.406 l -3.719 25.19 h 17.03 l 0.75 -0.75 a 0.918 0.918 0 0 1 1.219 -0.094 c 0.765 0.574 2.091 0.969 3.438 0.969 1.347 0 2.673 -0.395 3.438 -0.969 a 0.918 0.918 0 0 1 1.219 0.094 l 0.75 0.75 h 17.03 l -3.719 -25.19 h -37.438 z" style="fill:none;opacity:0.133;stroke:#ff1919"/></g></g><path d="m 2,36.5 c 5.6666667,0 14,-1.5 17,0 3,-2.5 7,-2.5 10,0 3,-1.5 12,0 17,0 L 45.5,34 C 38.5,31.5 29,28.5 24,33 19,28.5 9.5,31.5 2.5,34 L 2,36.5 z" style="fill:url(#1);stroke:#a10000;fill-rule:evenodd"/><path d="m 14.13 31.938 c -3.537 0.456 -7.358 1.686 -10.719 2.875 l -0.094 0.563 c 2.522 -0.08 5.366 -0.337 8.125 -0.5 2.894 -0.171 5.409 -0.176 7.344 0.531 1.352 -0.996 2.88 -1.512 4.438 -1.656 -2.165 -1.909 -5.398 -2.289 -9.09 -1.813 z m 14.563 0 c -1.528 0.277 -2.832 0.866 -3.906 1.813 1.557 0.144 3.086 0.66 4.438 1.656 1.979 -0.722 4.616 -0.703 7.594 -0.531 2.817 0.163 5.574 0.388 7.875 0.469 l -0.094 -0.531 c -3.361 -1.189 -7.182 -2.419 -10.719 -2.875 -1.863 -0.24 -3.635 -0.282 -5.188 0 z" style="fill:none;opacity:0.302;stroke:url(#2)"/><path d="M 2.5,34 C 9,31.5 20,29 24,33 c 4,-4 15,-1.5 21.5,1 l -3,-23.5 C 37,8 27.5,6 24,9 20,6 12,8 5.5,10.5 L 2.5,34 z" style="fill:url(#3);stroke:url(#4);fill-rule:evenodd"/><g style="display:block;color:#000"><path d="M 24,9.5 C 22,8 19.5,7.5 16,8 l 0,22.5 c 2,-1 6,0 8,2 l 0,-23 z" style="fill:url(#5)"/><path d="m 24 9.5 c 1.221 -0.696 2.328 -1.593 4 -1.5 l 1 22.5 c -1.5 -0.5 -3.5 1 -5 2 v -23 z" style="fill:url(#6)"/></g><path d="m 17 8.5 c -3.313 0.271 -7.169 1.41 -10.656 2.719 l -2.75 21.438 c 3.122 -1.1 6.853 -2.138 10.5 -2.531 3.849 -0.415 7.492 -0.105 9.906 1.781 2.414 -1.887 6.06 -2.196 9.906 -1.781 3.647 0.393 7.378 1.431 10.5 2.531 l -2.75 -21.469 c -2.614 -1.134 -6.07 -2.192 -9.281 -2.594 -3.387 -0.423 -6.424 -0.039 -7.781 1.125 a 0.929 0.929 0 0 1 -1.156 0.031 c -0.841 -0.631 -1.915 -1.039 -3.219 -1.219 -0.976 -0.135 -2.063 -0.126 -3.219 -0.031 z" style="fill:none;opacity:0.651;stroke:#ff1919"/><path d="M 24.455357,8.7321429 C 24.5,20.5 34,20 33.5,30.5 l -1,4 1.5,-0.5 1,1 0.5,-4 C 36,20 24.544643,19.089286 24.5,8.5 l -0.04464,0.2321429 z" style="fill:url(#7);stroke:url(#8);fill-rule:evenodd;stroke-linecap:square"/></g><g style="stroke:#0c0c0c"><path d="m 356 491.7 c -9.449 0 -17.12 4.788 -17.12 10.688 0 5.899 7.676 10.688 17.13 10.688 2.388 0 4.654 -0.323 6.719 -0.875 l 6.594 7.594 l -2.906 -8.969 c 4.065 -1.953 6.688 -4.988 6.688 -8.438 0 -5.899 -7.644 -10.688 -17.09 -10.688 z" style="fill:#ff1919"/><g style="fill:none"><path d="m 344.84 500.57 l 3.914 -3.662 l 3.283 3.788 l 3.788 -3.409 l 3.03 3.157 l 3.283 -2.904 l 2.399 2.652"/><path d="m 346.38 507.63 l 3.914 -3.662 l 3.283 3.788 l 3.788 -3.409 l 3.03 3.157 l 3.283 -2.904 l 2.399 2.652"/></g></g></g></svg>