<svg xmlns="http://www.w3.org/2000/svg" xmlns:xlink="http://www.w3.org/1999/xlink" viewBox="0 0 256 256"><defs><clipPath><path transform="matrix(15.33333 0 0 11.5 415 -125.5)" d="m -24 13 c 0 1.105 -0.672 2 -1.5 2 -0.828 0 -1.5 -0.895 -1.5 -2 0 -1.105 0.672 -2 1.5 -2 0.828 0 1.5 0.895 1.5 2 z"/></clipPath><linearGradient id="8"><stop style="stop-color:#e00"/><stop offset="1" style="stop-color:#a00"/></linearGradient><linearGradient id="A"><stop style="stop-color:#a00"/><stop offset="1" style="stop-color:#e00"/></linearGradient><linearGradient gradientUnits="userSpaceOnUse" y2="297" x2="395.04" y1="308.83" x1="329.71" id="9" xlink:href="#A"/><linearGradient gradientUnits="userSpaceOnUse" y2="374.6" x2="313.23" y1="322.76" x1="278.65" id="B" xlink:href="#A"/><linearGradient gradientUnits="userSpaceOnUse" y2="288.61" x2="156.35" y1="311.71" x1="143.44" id="D"><stop style="stop-color:#c00"/><stop offset="1" style="stop-color:#800"/></linearGradient><linearGradient gradientUnits="userSpaceOnUse" y2="325.94" x2="216.68" y1="321.43" x1="192.23" id="E" xlink:href="#8"/><linearGradient gradientUnits="userSpaceOnUse" y2="318.78" x2="322.83" y1="295.68" x1="313.06" id="C"><stop style="stop-color:#800"/><stop offset="1" style="stop-color:#c00"/></linearGradient><linearGradient gradientUnits="userSpaceOnUse" y2="300.18" x2="155.62" y1="289.47" x1="67.43" id="7" xlink:href="#8"/><linearGradient id="0" gradientUnits="userSpaceOnUse" x1="374.73" y1="59.62" x2="320.17" y2="192.62"><stop style="stop-color:#f00"/><stop offset="1" style="stop-color:#ba0000"/></linearGradient><linearGradient id="1" gradientUnits="userSpaceOnUse" x1="400" y1="200" x2="448" y2="376"><stop style="stop-color:#f70000"/><stop offset="1" style="stop-color:#c50000"/></linearGradient><linearGradient gradientUnits="userSpaceOnUse" y2="320.53" x2="241.29" y1="301.94" x1="240.13" id="F" xlink:href="#8"/><linearGradient id="2" gradientUnits="userSpaceOnUse" x1="312" y1="288" x2="336" y2="472"><stop style="stop-color:#170000"/><stop offset="1" style="stop-color:#170000"/></linearGradient><linearGradient id="3" gradientUnits="userSpaceOnUse" x1="184" y1="344" x2="168" y2="464"><stop style="stop-color:#140000"/><stop offset="1" style="stop-color:#140000"/></linearGradient><linearGradient id="6" gradientUnits="userSpaceOnUse" y1="224" x2="0" y2="288"><stop style="stop-color:#f00"/><stop offset="1" style="stop-color:#b00000"/></linearGradient><linearGradient id="4" gradientUnits="userSpaceOnUse" x1="72" y1="128" x2="120" y2="312"><stop style="stop-color:#d00000"/><stop offset="1" style="stop-color:#760000"/></linearGradient><linearGradient id="5" gradientUnits="userSpaceOnUse" x1="224" y1="32" x2="192" y2="208"><stop style="stop-color:#d70000"/><stop offset="1" style="stop-color:#8d0000"/></linearGradient></defs><g transform="translate(0 -796.36)"><path d="m 229.63 992.2 c 92.05 -130.93 -77.948 -263.6 -186.39 -156.91 -102.17 100.51 -7.449 256.68 119.69 207.86 c 26.526 -10.185 49.802 -26.914 66.7 -50.948 z" style="fill:#fff;color:#000"/><g transform="matrix(0.42918 0 0 0.40092 33.548 818.52)"><g transform="translate(-32.396 7.116)"><path d="m 282.26,23.656 c 0,0 -35.32,164.24 -35.32,164.24 0,0 166.96,-40.605 166.96,-40.605 C 379.73,83.151 331.85,36.541 282.25,23.661 z" style="fill:url(#0)"/><path d="m 424.78 179.82 c 0 0 -128.08 33.877 -128.08 33.877 0 0 142.26 175.9 142.26 175.9 24.07 -61.703 18.13 -139.18 -14.184 -209.78 z" style="fill:url(#1)"/><path d="m 419.82 412.23 c 0 0 -112.15 -130.81 -112.15 -130.81 0 0 -64.802 215.57 -64.802 215.57 70.995 2.739 138.14 -27.541 176.95 -84.76 z" style="fill:url(#2)"/><path d="m 212.04 487.07 c 0 0 51.51 -163.86 51.51 -163.86 0 0 -199.14 39.852 -199.14 39.852 22.85 63.879 77.16 110.63 147.62 124.01 z" style="fill:url(#3)"/><path d="m 62.48 330.73 c 0 0 147.47 -33.423 147.47 -33.423 0 0 -102.16 -174.97 -102.16 -174.97 -36.83 61.4 -56.08 138.29 -45.3 208.39 z" style="fill:url(#4)"/><path d="m 127.74 99.73 c 0 0 76.56 129.98 76.56 129.98 0 0 56.876 -215.76 56.876 -215.76 -46.916 -2.176 -95.29 28.543 -133.44 85.78 z" style="fill:url(#5)"/><circle cx="256" cy="256" r="32" style="fill:url(#6)"/></g><g style="stroke:#300;color:#000;stroke-linecap:round;stroke-linejoin:round;stroke-width:2"><path d="m 32.436 244.29 c 64.69 27.557 132.77 36.99 203.14 46.09 -0.597 8.865 4.789 16.338 -6.837 25.06 -34.753 7.148 -163.06 16.901 -200.87 12.449 -3.918 -27.867 -0.427 -55.733 4.575 -83.6 z" style="fill:url(#7)"/><path d="m 427.05 250.14 c -34.14 20.81 -50 39.36 -181.97 38.592 l 3.099 26.479 c 50.918 14.13 117.6 11.755 183.95 6.479 2.963 -23.85 0.979 -47.7 -5.07 -71.55 z" style="fill:url(#9)"/><path d="m 287.48 313.76 c 47.691 4.477 56.39 70.27 81.09 89.76 -11.244 0.794 -31.388 -8.686 -44.771 -12.716 -0.91 8.599 -3.791 34.55 -4.7 44.631 -17.14 -16.773 -29.326 -94.67 -62.54 -117.7 z" style="fill:url(#B)"/><path d="m 259.25 287.25 c 26.624 -18.544 73.11 -50.2 95.7 -39.921 16.718 13.955 21.574 27.543 21.527 42.486 l -119.33 30.787 c -1.959 -11.444 -3.981 -21.909 2.099 -33.35 z" style="fill:#e00"/><path d="m 257.15 320.6 c 62.6 -30.403 125.01 -39.501 118.91 -29.551 -18.13 29.59 -84.26 31.29 -118.91 29.551 z" style="fill:url(#C)"/><path d="m 224.35 284.39 c -27.18 -17.721 -74.62 -47.945 -96.88 -36.975 -16.284 14.46 -20.721 28.19 -20.22 43.13 l 120.21 27.12 c 1.608 -11.499 3.309 -22.02 -3.118 -33.27 z" style="fill:#e00"/><path d="m 227.47 317.66 c -63.5 -28.474 -126.16 -35.659 -119.76 -25.901 19.02 29.02 85.17 28.695 119.76 25.901 z" style="fill:url(#D)"/><path d="m 227.15 292.16 c -49.41 15.183 -84.72 96.12 -107.72 117.6 11.271 -0.143 30.558 -11.263 43.561 -16.391 1.621 8.494 6.647 34.12 8.391 44.09 15.689 -18.14 21.361 -96.78 52.55 -122.48 10.276 -9.857 4.02 -12.953 3.218 -22.81 z" style="fill:url(#E)"/><path d="m 223.95 282.82 c 7.21 -3.035 9.397 2.309 18.7 2.401 8.442 0.084 12.605 -3.899 20.17 -0.993 -5.842 13.15 -7.267 26.363 -1.972 38.03 -13.13 2.54 -26.511 3.564 -41.13 -2.817 8.929 -11.643 7.097 -24.977 4.225 -36.62 z" style="fill:url(#F)"/></g></g></g></svg>