<svg xmlns="http://www.w3.org/2000/svg" viewBox="0 0 256 256"><defs><clipPath><path d="M 0,64 H64 V128 H0 z"/></clipPath></defs><g style="fill:#fff;color:#000"><path d="m -1360.14 1641.33 c 46.11 -98.28 -119.59 -146.07 -181.85 -106.06 -62.25 40.01 -83.52 108.58 -13.01 143.08 70.51 34.501 148.75 61.26 194.86 -37.03 z" transform="matrix(1.03665 0 0 -1.35742 1657.7099955 2320.7899991)" style="fill:#fff"/></g><g transform="matrix(4.7873238 0 0 4.7993849 14.540511 14.974598)" style="fill:#ff4500"><path d="m 13 13 v 4 h 4 v -4 h -4 z m 5 0 v 4 h 4 v -4 h -4 z m 5 0 v 4 h 4 v -4 h -4 z m 5 0 v 4 h 4 v -4 h -4 z m 5 0 v 4 h 4 v -4 h -4 z m -20 5 v 4 h 4 v -4 h -4 z m 5 0 v 4 h 4 v -4 h -4 z m 5 0 v 4 h 4 v -4 h -4 z m 5 0 v 4 h 4 v -4 h -4 z m 5 0 v 4 h 4 v -4 h -4 z m -20 5 v 4 h 4 v -4 h -4 z m 5 0 v 4 h 4 v -4 h -4 z m 5 0 v 4 h 4 v -4 h -4 z m 5 0 v 4 h 4 v -4 h -4 z m 5 0 v 4 h 4 v -4 h -4 z m -20 5 v 4 h 4 v -4 h -4 z m 5 0 v 4 h 4 v -4 h -4 z m 5 0 v 4 h 4 v -4 h -4 z m 5 0 v 4 h 4 v -4 h -4 z m 5 0 v 4 h 4 v -4 h -4 z m -20 5 v 4 h 4 v -4 h -4 z m 5 0 v 4 h 4 v -4 h -4 z m 5 0 v 4 h 4 v -4 h -4 z m 5 0 v 4 h 4 v -4 h -4 z m 5 0 v 4 h 4 v -4 h -4 z" style="opacity:0.1"/><path d="m 12 12 v 4 h 4 v -4 h -4 z m 5 0 v 4 h 4 v -4 h -4 z m 5 0 v 4 h 4 v -4 h -4 z m 5 0 v 4 h 4 v -4 h -4 z m 5 0 v 4 h 4 v -4 h -4 z m -20 5 v 4 h 4 v -4 h -4 z m 0 5 v 4 h 4 v -4 h -4 z m 5 0 v 4 h 4 v -4 h -4 z m 10 0 v 4 h 4 v -4 h -4 z m 5 0 v 4 h 4 v -4 h -4 z m -20 5 v 4 h 4 v -4 h -4 z m 5 0 v 4 h 4 v -4 h -4 z m 5 0 v 4 h 4 v -4 h -4 z m 5 0 v 4 h 4 v -4 h -4 z m 5 0 v 4 h 4 v -4 h -4 z m -20 5 v 4 h 4 v -4 h -4 z m 10 0 v 4 h 4 v -4 h -4 z m 10 0 v 4 h 4 v -4 h -4 z"/><path d="M 17,32 H21 V36 H17 z" style="fill:#8b0000"/><path d="m 17 17 v 4 h 4 v -4 h -4 z m 5 0 v 4 h 4 v -4 h -4 z m 5 0 v 4 h 4 v -4 h -4 z m 5 0 v 4 h 4 v -4 h -4 z m -10 5 v 4 h 4 v -4 h -4 z m 5 10 v 4 h 4 v -4 h -4 z" style="fill:#ffdead"/></g></svg>