<svg xmlns="http://www.w3.org/2000/svg" viewBox="0 0 256 256"><g transform="translate(0 -796.36)"><path d="M 211.17,833.49 C 412.99,1099.87 -142.42,1137.71 35.82,865.8 76.454,803.809 157.71,762.94 211.17,833.49 z" style="fill:#fff;color:#000"/><g transform="matrix(1.11208 0 0 1.17054 -12.901 -155.05)"><path d="m 56.719,931.62 v -73.24 h 72.7 72.7 v 73.24 73.24 h -72.7 -72.7 v -73.24 z m 88.54,52.1 c 7.568,-3.864 19.364,-13.929 19.364,-16.523 0,-1.159 -0.747,-2.732 -1.661,-3.496 -2.189,-1.83 -6.29,-12.983 -6.29,-17.1 0,-1.788 0.752,-5.065 1.672,-7.282 1.37,-3.304 1.404,-4.255 0.189,-5.271 -3.997,-3.342 -41.2,-2.451 -52.47,1.257 -4.469,1.47 -4.477,1.484 -4.82,8.157 -0.262,5.087 0.389,8.642 2.722,14.877 4.142,11.07 9.426,18.06 17.834,23.591 8.67,5.708 14.87,6.182 23.464,1.794 z m -22.691,-17.268 c -0.609,-1.614 -1.108,-4.252 -1.108,-5.862 0,-2.501 0.254,-2.714 1.743,-1.47 1.316,1.1 2.359,1.147 4.26,0.192 1.384,-0.696 7.689,-2.061 14.01,-3.033 13.594,-2.091 12.927,-2.057 12.927,-0.653 0,1.97 -6.06,4.349 -13.06,5.132 -12.15,1.358 -12.743,1.589 -13.471,5.259 -0.833,4.194 -3.788,4.437 -5.298,0.435 z M 110.8,958.556 c -2.503,-3.849 -2.303,-5.213 0.718,-4.89 1.901,0.203 2.648,-0.401 2.927,-2.369 0.485,-3.417 3.63,-2.903 5.512,0.901 1.198,2.42 1.082,3.11 -0.823,4.898 -1.22,1.145 -2.217,2.576 -2.217,3.181 0,2.231 -4.34,1.01 -6.117,-1.721 z" style="fill:#f3d594"/><path d="m 56.719,931.62 v -73.24 h 72.7 72.7 v 73.24 73.24 h -72.7 -72.7 v -73.24 z m 67.1,58.653 c -6.829,-3.545 -22.802,-19.801 -22.802,-23.21 0,-1.169 -0.503,-2.439 -1.118,-2.822 -0.615,-0.383 -1.591,-2.344 -2.169,-4.359 -0.754,-2.625 -1.08,-2.973 -1.154,-1.228 -0.102,2.431 2.914,10.786 4.285,11.869 0.398,0.315 1.7,2.505 2.893,4.867 4.505,8.922 15.888,17.666 23.333,17.923 2.076,0.072 1.245,-0.703 -3.268,-3.046 z m 19.509,2.384 c -0.781,-0.317 -2.059,-0.317 -2.84,0 -0.781,0.317 -0.142,0.577 1.42,0.577 1.562,0 2.201,-0.26 1.42,-0.577 z m 10.207,-3.82 c 2.586,-1.259 5.658,-2.289 6.827,-2.289 1.169,0 1.81,-0.515 1.423,-1.144 -0.386,-0.629 0.399,-1.144 1.745,-1.144 3.847,0 8.948,-4.349 13.592,-11.588 4.16,-6.485 8.704,-19.884 7.736,-22.811 -0.266,-0.803 -2.84,1.938 -5.721,6.09 -8.446,12.172 -21.956,27.51 -26.937,30.581 -2.538,1.565 -4.614,3.238 -4.614,3.719 0,1.29 0.765,1.108 5.948,-1.415 z m -7.27,-4.725 c 5.706,-3.094 19.496,-14.286 19.496,-15.822 0,-0.574 -1.661,-3.735 -3.692,-7.03 -3.342,-5.416 -3.672,-6.751 -3.489,-14.09 0.111,-4.461 0.367,-9.656 0.568,-11.545 l 0.366,-3.433 -12.495,-1.053 c -13.256,-1.117 -31.791,0.271 -41.483,3.107 l -5.087,1.488 0.084,8.528 c 0.154,15.596 7.666,29.375 20.929,38.39 6.889,4.683 7.801,4.989 13.63,4.574 3.639,-0.259 8.303,-1.559 11.172,-3.115 z m -22.562,-17.08 c -1.602,-3.02 -0.634,-5.849 1.691,-4.951 1.911,0.739 2.398,5.612 0.668,6.689 -0.593,0.369 -1.655,-0.413 -2.359,-1.738 z m -12.509,-9.182 c -1.067,-2.01 -0.899,-2.469 1.096,-2.994 1.296,-0.341 2.357,-1.505 2.357,-2.585 0,-2.782 1.24,-3.684 3.02,-2.196 1.699,1.42 2.087,5.572 0.521,5.572 -0.552,0 -1.271,1.03 -1.597,2.289 -0.774,2.981 -3.792,2.934 -5.395,-0.085 z m 25.602,0.717 c 4.04,-1.985 13.04,-2.441 11.18,-0.566 -0.661,0.666 -4.213,1.442 -7.894,1.725 -6.526,0.502 -6.608,0.473 -3.285,-1.159 z M 103.04,929.798 c 6.122,-2.633 52.55,-2.595 56.55,0.047 5.607,3.701 7.303,1.569 7.239,-9.102 -0.041,-6.816 -2,-12.807 -6.186,-18.888 -2.483,-3.61 -4.407,-4.893 -10.05,-6.704 -15.92,-5.107 -21.942,-4.05 -31.459,5.52 -5.055,5.083 -17.844,22.255 -21.98,29.512 -1.097,1.925 0.803,1.801 5.887,-0.386 z m 51.676,-8.263 c -1.861,-1.191 -5.464,-15.29 -4.532,-17.736 0.406,-1.066 1.8,-1.939 3.098,-1.939 4.096,0 9.28,13.445 7.245,18.788 -0.734,1.928 -3.52,2.352 -5.811,0.886 z m -12.749,-2.448 c -2.481,-2.5 -4.922,-10.382 -4.387,-14.167 0.248,-1.755 1.276,-2.593 3.496,-2.85 2.738,-0.317 3.432,0.275 5.37,4.577 2.756,6.119 2.992,13 0.479,13.974 -2.487,0.961 -2.48,0.963 -4.959,-1.534 z" style="fill:#d2a36d"/><path d="m 56.719,931.62 v -73.24 h 72.7 72.7 v 73.24 73.24 h -72.7 -72.7 v -73.24 z m 95.16,64.03 c 12.398,-4.283 23.651,-14.218 29.749,-26.26 1.94,-3.832 5.716,-18.533 5.716,-22.255 0,-3.618 -2.357,-1.51 -10.165,9.09 -4.403,5.979 -8.514,10.871 -9.136,10.871 -2.313,0 -7.877,-9.533 -9.14,-15.659 -1.11,-5.386 -1.016,-7.101 0.627,-11.435 1.229,-3.242 2.911,-5.473 4.618,-6.127 2.65,-1.015 3.079,-2.038 4.45,-10.612 1.44,-9 -5.926,-24.98 -13.627,-29.557 -2.187,-1.3 -3.977,-3.059 -3.977,-3.908 0,-0.85 -1.183,-2.831 -2.629,-4.403 -2.453,-2.667 -2.906,-2.762 -6.767,-1.425 -2.276,0.788 -5.05,2.248 -6.174,3.244 -1.12,0.996 -3.601,2.145 -5.512,2.554 -5.113,1.093 -14.09,9.581 -22.793,21.565 -4.221,5.809 -10.197,13.628 -13.281,17.376 l -5.607,6.815 0.669,7.489 c 1.341,15.02 8.982,33.33 18.67,44.731 2.043,2.404 6.898,5.999 10.791,7.989 6.73,3.44 7.551,3.588 16.732,2.998 5.324,-0.342 12.853,-1.725 16.785,-3.083 z m 2.828,-76.902 c -1.071,-1.379 -3.711,-10.898 -3.711,-13.381 0,-1.899 2.883,-1.416 4.732,0.793 2.149,2.568 4.39,10.308 3.591,12.405 -0.761,1.998 -3.129,2.092 -4.612,0.183 z M 142.136,917.1 c -2.737,-5.334 -3.84,-10.742 -2.517,-12.347 0.727,-0.882 1.987,-1.347 2.8,-1.033 2.127,0.822 5.439,8.787 4.987,11.993 -0.47,3.338 -3.816,4.219 -5.269,1.387 z" style="fill:#575c8c"/><path d="m 56.719 994.58 c 0 -9.853 0.111 -10.306 2.687 -10.957 1.478 -0.374 3.395 -0.58 4.26 -0.458 3.112 0.437 3.928 -0.111 6.04 -4.055 1.178 -2.203 2.843 -4.01 3.702 -4.01 0.858 0 1.853 -0.768 2.21 -1.706 0.357 -0.938 2.694 -2.323 5.192 -3.077 10.522 -3.176 5.994 -15.622 -5.085 -13.974 -2.093 0.311 -6.106 -0.37 -9.347 -1.588 -5.307 -1.994 -5.668 -2.38 -5.5 -5.885 0.112 -2.343 1.338 -4.969 3.265 -6.996 2.388 -2.511 2.917 -3.92 2.342 -6.231 -0.445 -1.786 -0.086 -4.231 0.892 -6.082 3.228 -6.107 5.43 -11.876 4.782 -12.529 -0.363 -0.366 -1.223 0.964 -1.912 2.954 -0.689 1.99 -1.713 3.619 -2.277 3.619 -0.564 0 -1.025 0.72 -1.025 1.599 0 2.249 -8.095 17.855 -9.262 17.855 -1.709 0 -1.037 -6.592 0.742 -7.28 0.937 -0.362 1.704 -1.454 1.704 -2.427 0 -0.972 0.486 -2.662 1.081 -3.755 0.594 -1.093 1.915 -4.047 2.935 -6.565 1.02 -2.518 2.323 -5.472 2.895 -6.566 1.356 -2.589 4.41 -11.433 4.431 -12.831 0.009 -0.598 -0.593 -0.473 -1.339 0.278 -1.05 1.057 -1.949 0.803 -3.991 -1.129 -1.945 -1.841 -2.969 -2.159 -3.907 -1.213 -1.722 1.735 -0.34 4.949 2.443 5.682 1.246 0.328 2.266 1.281 2.266 2.117 0 2.626 -7.763 18.812 -9.02 18.812 -1.835 0 -1.622 -29.365 0.219 -30.23 1.136 -0.534 1.136 -0.801 0 -1.335 -0.781 -0.367 -1.42 -2.225 -1.42 -4.129 0 -3.06 0.309 -3.384 2.663 -2.788 1.915 0.484 3.384 -0.1 5.23 -2.08 3.3 -3.539 2.086 -6.06 -1.711 -3.557 -5.753 3.798 -6.182 2.968 -6.182 -11.954 v -13.732 h 28.397 c 26.882 0 28.518 0.122 30.668 2.289 1.249 1.259 2.272 3.102 2.272 4.096 0 1.398 0.744 1.643 3.289 1.08 1.809 -0.4 5.898 -0.748 9.09 -0.773 4.078 -0.032 5.798 -0.502 5.798 -1.584 0 -0.847 -0.511 -1.857 -1.136 -2.246 -3.071 -1.912 -0.246 -2.861 8.519 -2.861 7.397 0 9.655 0.365 9.655 1.561 0 0.993 1.963 1.836 5.395 2.318 4.585 0.643 5.679 0.408 7.281 -1.561 1.547 -1.901 3.233 -2.318 9.371 -2.318 7.645 0 10.462 1.854 3.803 2.502 -2.425 0.236 -3.811 1.042 -4.059 2.361 -0.48 2.55 3.8 2.76 5.192 0.255 0.825 -1.485 1.9 -1.557 7.156 -0.481 3.402 0.697 8.101 1.823 10.444 2.503 l 4.26 1.236 v 7.744 c 0 6.898 -0.31 7.99 -2.84 9.995 -3.857 3.056 -3.857 6.432 0 5.456 2.569 -0.65 2.84 -0.382 2.84 2.812 0 1.942 -0.513 4.495 -1.139 5.674 -0.761 1.433 -0.761 2.379 0 2.853 0.734 0.457 1.139 18.994 1.139 52.14 v 51.43 h -72.7 h -72.7 v -10.277 z m 82.34 4.566 c 0.383 -0.624 2.585 -1.064 4.894 -0.979 5.564 0.205 11.362 -1.158 12.427 -2.921 0.472 -0.782 4.142 -3.445 8.155 -5.918 11.69 -7.204 18.831 -17.607 22.1 -32.19 3.946 -17.625 1.83 -18.225 -9.29 -2.635 -4.265 5.979 -8.461 10.871 -9.325 10.871 -0.864 0 -3 -2.762 -4.755 -6.139 -4.259 -8.213 -4.515 -18.372 -0.563 -22.353 1.441 -1.452 3.254 -2.853 4.03 -3.113 0.783 -0.263 1.955 -4.179 2.637 -8.81 1.174 -7.967 1.086 -8.677 -1.968 -16 -4.54 -10.89 -8.01 -16.09 -11.295 -16.923 -1.987 -0.503 -2.839 -1.499 -2.839 -3.321 0 -1.641 -0.84 -2.825 -2.272 -3.202 -1.359 -0.358 -2.272 -1.561 -2.272 -2.994 0 -2.852 -3.056 -3.199 -6.314 -0.716 -1.213 0.924 -3.099 1.697 -4.193 1.717 -1.093 0.02 -3.01 1.066 -4.26 2.325 -1.249 1.259 -3.292 2.289 -4.54 2.289 -3.051 0 -18.697 15.08 -23.567 22.707 -2.146 3.363 -6.667 9.398 -10.05 13.412 -3.38 4.01 -6.145 8.09 -6.145 9.05 0 0.963 -0.511 1.751 -1.136 1.751 -0.625 0 -1.136 2.575 -1.136 5.722 0 3.147 0.383 5.724 0.852 5.727 0.469 0.003 0.952 1.924 1.073 4.27 0.122 2.346 0.764 4.447 1.427 4.67 0.663 0.223 0.903 0.898 0.533 1.502 -0.37 0.603 0.01 1.926 0.845 2.939 0.835 1.013 1.351 2.029 1.148 2.258 -0.784 0.88 1.176 7.243 2.231 7.243 0.612 0 0.797 0.515 0.411 1.144 -0.386 0.629 -0.131 1.144 0.568 1.144 0.698 0 1 0.437 0.674 0.971 -0.328 0.534 0.302 1.95 1.4 3.147 1.098 1.197 3.68 4.651 5.739 7.677 4.085 6 10.733 11.397 16.746 13.587 2.111 0.769 3.838 1.81 3.838 2.313 0 1.33 13.368 1.124 14.192 -0.219 z m 15.422 -82.76 c -0.588 -1.557 -1.427 -4.755 -1.865 -7.106 -0.628 -3.372 -0.464 -4.165 0.778 -3.757 3.353 1.103 6.357 12.211 3.568 13.196 -0.777 0.275 -1.894 -0.775 -2.481 -2.333 z m -13.188 -3.605 c -1.065 -2.809 -1.598 -5.993 -1.186 -7.08 0.69 -1.81 0.937 -1.781 3.063 0.361 3.01 3.03 4.362 11.821 1.817 11.821 -1.037 0 -2.555 -2.098 -3.695 -5.106 z m 43.775 -3.476 c 0 -0.944 -0.767 -1.717 -1.704 -1.717 -0.937 0 -1.704 0.772 -1.704 1.717 0 0.944 0.767 1.717 1.704 1.717 0.937 0 1.704 -0.772 1.704 -1.717 z m 11.359 -6.294 c 0 -0.629 -0.511 -1.144 -1.136 -1.144 -0.625 0 -1.136 0.515 -1.136 1.144 0 0.629 0.511 1.144 1.136 1.144 0.625 0 1.136 -0.515 1.136 -1.144 z m -121.56 -6.075 c 0.01 -0.509 -0.494 -0.608 -1.118 -0.219 -0.625 0.389 -1.128 1.578 -1.118 2.642 0.015 1.668 0.17 1.698 1.118 0.219 0.606 -0.944 1.109 -2.133 1.118 -2.642 z m 12.481 -12.08 c 0.028 -4.629 -0.157 -4.946 -2.525 -4.307 -1.406 0.38 -3.369 0.697 -4.364 0.706 -1.109 0.01 -2.317 1.727 -3.124 4.44 -1.883 6.333 -1.669 8.164 0.956 8.164 1.395 0 2.284 0.773 2.302 2 0.022 1.469 0.922 0.936 3.377 -2 2.568 -3.074 3.354 -5.167 3.377 -9 z m 105.67 7.286 c 0 -0.944 -0.767 -1.717 -1.704 -1.717 -0.937 0 -1.704 0.772 -1.704 1.717 0 0.944 0.767 1.717 1.704 1.717 0.937 0 1.704 -0.772 1.704 -1.717 z m -121.54 -10.871 c 0 -0.629 -0.225 -1.144 -0.501 -1.144 -0.275 0 -0.817 0.515 -1.203 1.144 -0.386 0.629 -0.161 1.144 0.501 1.144 0.662 0 1.203 -0.515 1.203 -1.144 z m 38.12 -15.76 c -0.381 -0.384 -1.575 0.233 -2.653 1.371 -1.874 1.977 -1.844 2.01 0.692 0.697 1.459 -0.754 2.341 -1.685 1.961 -2.068 z m -41.529 107.49 c 0 -1.877 4.481 -5.02 6.205 -4.357 2.564 0.991 2.134 2.49 -1.147 3.996 -3.426 1.573 -5.058 1.689 -5.058 0.361 z m -9.939 -2.08 c -0.781 -0.317 -1.42 -2.337 -1.42 -4.487 0 -4.26 1.319 -4.731 8.945 -3.195 4.632 0.933 4.733 4.331 0.198 6.694 -3.422 1.783 -5.207 2.01 -7.724 0.988 z m 10.336 -8.932 c -1.309 -0.924 -4.49 -2.02 -7.07 -2.435 -3.01 -0.485 -4.687 -1.353 -4.687 -2.426 0 -1.329 0.987 -1.506 4.827 -0.865 2.655 0.443 5.688 1.261 6.741 1.817 1.052 0.556 2.969 1.01 4.26 1.01 2.753 0 3.16 2.874 0.55 3.883 -2.273 0.879 -1.853 0.969 -4.622 -0.985 z" style="fill:#0145ab"/><path d="m 56.719 994.64 c 0 -9.915 0.11 -10.364 2.687 -11.02 1.478 -0.374 3.395 -0.58 4.26 -0.458 3.112 0.437 3.928 -0.111 6.04 -4.055 1.178 -2.203 2.843 -4.01 3.702 -4.01 0.858 0 1.853 -0.768 2.21 -1.706 0.357 -0.938 2.694 -2.323 5.192 -3.077 10.522 -3.176 5.994 -15.622 -5.085 -13.974 -2.093 0.311 -6.106 -0.37 -9.347 -1.588 -5.307 -1.994 -5.668 -2.38 -5.5 -5.885 0.112 -2.343 1.338 -4.969 3.265 -6.996 2.388 -2.511 2.917 -3.92 2.342 -6.231 -0.445 -1.786 -0.086 -4.231 0.892 -6.082 3.228 -6.107 5.43 -11.876 4.782 -12.529 -0.363 -0.366 -1.223 0.964 -1.912 2.954 -0.689 1.99 -1.713 3.619 -2.277 3.619 -0.564 0 -1.025 0.72 -1.025 1.599 0 2.249 -8.095 17.855 -9.262 17.855 -1.709 0 -1.037 -6.592 0.742 -7.28 0.937 -0.362 1.704 -1.454 1.704 -2.427 0 -0.972 0.486 -2.662 1.081 -3.755 0.594 -1.093 1.915 -4.047 2.935 -6.565 1.02 -2.518 2.323 -5.472 2.895 -6.566 1.356 -2.589 4.41 -11.433 4.431 -12.831 0.009 -0.598 -0.593 -0.473 -1.339 0.278 -1.05 1.057 -1.949 0.803 -3.991 -1.129 -1.945 -1.841 -2.969 -2.159 -3.907 -1.213 -1.722 1.735 -0.34 4.949 2.443 5.682 1.246 0.328 2.266 1.281 2.266 2.117 0 2.626 -7.763 18.812 -9.02 18.812 -1.835 0 -1.622 -29.365 0.219 -30.23 1.136 -0.534 1.136 -0.801 0 -1.335 -0.781 -0.367 -1.42 -2.225 -1.42 -4.129 0 -3.06 0.309 -3.384 2.663 -2.788 1.915 0.484 3.384 -0.1 5.23 -2.08 3.3 -3.539 2.086 -6.06 -1.711 -3.557 -5.753 3.798 -6.182 2.968 -6.182 -11.954 v -13.732 h 28.397 c 26.882 0 28.518 0.122 30.668 2.289 1.249 1.259 2.272 3.102 2.272 4.096 0 1.398 0.744 1.643 3.289 1.08 1.809 -0.4 5.898 -0.748 9.09 -0.773 4.078 -0.032 5.798 -0.502 5.798 -1.584 0 -0.847 -0.511 -1.857 -1.136 -2.246 -3.071 -1.912 -0.246 -2.861 8.519 -2.861 7.397 0 9.655 0.365 9.655 1.561 0 0.993 1.963 1.836 5.395 2.318 4.585 0.643 5.679 0.408 7.281 -1.561 1.547 -1.901 3.233 -2.318 9.371 -2.318 7.645 0 10.462 1.854 3.803 2.502 -2.425 0.236 -3.811 1.042 -4.059 2.361 -0.48 2.55 3.8 2.76 5.192 0.255 0.825 -1.485 1.9 -1.557 7.156 -0.481 3.402 0.697 8.101 1.823 10.444 2.503 l 4.26 1.236 v 7.744 c 0 6.898 -0.31 7.99 -2.84 9.995 -3.857 3.056 -3.857 6.432 0 5.456 2.569 -0.65 2.84 -0.382 2.84 2.812 0 1.942 -0.513 4.495 -1.139 5.674 -0.761 1.433 -0.761 2.379 0 2.853 0.734 0.457 1.139 18.994 1.139 52.14 v 51.43 h -20.446 c -12.873 0 -20.446 -0.424 -20.446 -1.144 0 -0.629 -0.767 -1.144 -1.704 -1.144 -0.937 0 -1.704 0.515 -1.704 1.144 0 1.618 -9.936 1.438 -10.475 -0.19 -0.336 -1.016 -1.347 -1.016 -4.24 0 -5.07 1.78 -13.363 1.723 -13.971 -0.096 -0.363 -1.087 -0.863 -1.115 -2.082 -0.116 -1.118 0.916 -12.02 1.367 -35.965 1.489 l -34.36 0.175 v -10.336 z m 82.34 4.507 c 0.383 -0.624 2.585 -1.064 4.894 -0.979 5.564 0.205 11.362 -1.158 12.427 -2.921 0.472 -0.782 4.142 -3.445 8.155 -5.918 11.69 -7.204 18.831 -17.607 22.1 -32.19 3.946 -17.625 1.83 -18.225 -9.29 -2.635 -4.265 5.979 -8.461 10.871 -9.325 10.871 -0.864 0 -3 -2.762 -4.755 -6.139 -4.259 -8.213 -4.515 -18.372 -0.563 -22.353 1.441 -1.452 3.245 -2.85 4.01 -3.106 0.763 -0.256 1.943 -4.059 2.622 -8.451 1.366 -8.837 0.93 -10.857 -4.927 -22.876 -3.203 -6.573 -3.229 -6.747 -0.634 -4.291 1.488 1.408 3.186 2.56 3.775 2.56 1.931 0 12.896 -9.732 16.449 -14.599 4.066 -5.571 3.528 -7.749 -2.851 -11.541 -6.53 -3.882 -15.192 -5.902 -25.3 -5.902 -9.809 0 -15.3 1.689 -16.602 5.107 -0.847 2.223 -4.836 2.3 -5.67 0.109 -0.346 -0.907 -1.843 -2.452 -3.328 -3.432 -2.41 -1.591 -3.299 -1.601 -8.296 -0.094 -3.078 0.928 -9.104 3.76 -13.39 6.293 -4.286 2.533 -9.27 4.605 -11.07 4.605 -3.413 0 -4.111 0.995 -2.112 3.01 0.802 0.808 -0.074 3.26 -2.79 7.803 -6.346 10.617 -6.544 19.2 -0.518 22.445 2.346 1.265 2.346 1.275 0.105 3.745 -3.176 3.5 -4.29 7.627 -2.058 7.627 0.957 0 5.869 -5.278 10.917 -11.73 13.228 -16.907 25.979 -29.546 29.03 -28.774 1.706 0.431 2.93 -0.204 4.223 -2.192 1.429 -2.198 3.19 -2.971 8.193 -3.601 7.445 -0.937 8.24 -0.465 12.216 7.257 2.619 5.086 2.682 5.523 0.724 5.01 -1.307 -0.344 -2.145 -1.579 -2.145 -3.159 0 -1.632 -0.843 -2.816 -2.272 -3.192 -1.359 -0.358 -2.272 -1.561 -2.272 -2.994 0 -2.852 -3.056 -3.199 -6.314 -0.716 -1.213 0.924 -3.099 1.697 -4.193 1.717 -1.093 0.02 -3.01 1.066 -4.26 2.325 -1.249 1.259 -3.292 2.289 -4.54 2.289 -3.051 0 -18.697 15.08 -23.567 22.707 -2.146 3.363 -6.667 9.398 -10.05 13.412 -3.38 4.01 -6.145 8.09 -6.145 9.05 0 0.963 -0.511 1.751 -1.136 1.751 -0.625 0 -1.136 2.575 -1.136 5.722 0 3.147 0.383 5.724 0.852 5.727 0.469 0.003 0.952 1.924 1.073 4.27 0.122 2.346 0.764 4.447 1.427 4.67 0.663 0.223 0.903 0.898 0.533 1.502 -0.37 0.603 0.01 1.926 0.845 2.939 0.835 1.013 1.351 2.029 1.148 2.258 -0.784 0.88 1.176 7.243 2.231 7.243 0.612 0 0.797 0.515 0.411 1.144 -0.386 0.629 -0.131 1.144 0.568 1.144 0.698 0 1 0.437 0.674 0.971 -0.328 0.534 0.302 1.95 1.4 3.147 1.098 1.197 3.68 4.651 5.739 7.677 4.085 6 10.733 11.397 16.746 13.587 2.111 0.769 3.838 1.81 3.838 2.313 0 1.33 13.368 1.124 14.192 -0.219 z m 15.422 -82.76 c -0.588 -1.557 -1.427 -4.755 -1.865 -7.106 -0.628 -3.372 -0.464 -4.165 0.778 -3.757 3.353 1.103 6.357 12.211 3.568 13.196 -0.777 0.275 -1.894 -0.775 -2.481 -2.333 z m -13.188 -3.605 c -1.065 -2.809 -1.598 -5.993 -1.186 -7.08 0.69 -1.81 0.937 -1.781 3.063 0.361 3.01 3.03 4.362 11.821 1.817 11.821 -1.037 0 -2.555 -2.098 -3.695 -5.106 z m 43.775 -3.476 c 0 -0.944 -0.767 -1.717 -1.704 -1.717 -0.937 0 -1.704 0.772 -1.704 1.717 0 0.944 0.767 1.717 1.704 1.717 0.937 0 1.704 -0.772 1.704 -1.717 z m 11.359 -6.294 c 0 -0.629 -0.511 -1.144 -1.136 -1.144 -0.625 0 -1.136 0.515 -1.136 1.144 0 0.629 0.511 1.144 1.136 1.144 0.625 0 1.136 -0.515 1.136 -1.144 z m -121.56 -6.075 c 0.01 -0.509 -0.494 -0.608 -1.118 -0.219 -0.625 0.389 -1.128 1.578 -1.118 2.642 0.015 1.668 0.17 1.698 1.118 0.219 0.606 -0.944 1.109 -2.133 1.118 -2.642 z m 12.481 -12.08 c 0.028 -4.629 -0.157 -4.946 -2.525 -4.307 -1.406 0.38 -3.369 0.697 -4.364 0.706 -1.109 0.01 -2.317 1.727 -3.124 4.44 -1.883 6.333 -1.669 8.164 0.956 8.164 1.395 0 2.284 0.773 2.302 2 0.022 1.469 0.922 0.936 3.377 -2 2.568 -3.074 3.354 -5.167 3.377 -9 z m 105.67 7.286 c 0 -0.944 -0.767 -1.717 -1.704 -1.717 -0.937 0 -1.704 0.772 -1.704 1.717 0 0.944 0.767 1.717 1.704 1.717 0.937 0 1.704 -0.772 1.704 -1.717 z m -121.54 -10.871 c 0 -0.629 -0.225 -1.144 -0.501 -1.144 -0.275 0 -0.817 0.515 -1.203 1.144 -0.386 0.629 -0.161 1.144 0.501 1.144 0.662 0 1.203 -0.515 1.203 -1.144 z m 38.12 -15.76 c -0.381 -0.384 -1.575 0.233 -2.653 1.371 -1.874 1.977 -1.844 2.01 0.692 0.697 1.459 -0.754 2.341 -1.685 1.961 -2.068 z m -41.529 107.49 c 0 -1.877 4.481 -5.02 6.205 -4.357 2.564 0.991 2.134 2.49 -1.147 3.996 -3.426 1.573 -5.058 1.689 -5.058 0.361 z m -9.939 -2.08 c -0.781 -0.317 -1.42 -2.337 -1.42 -4.487 0 -4.26 1.319 -4.731 8.945 -3.195 4.632 0.933 4.733 4.331 0.198 6.694 -3.422 1.783 -5.207 2.01 -7.724 0.988 z m 10.336 -8.932 c -1.309 -0.924 -4.49 -2.02 -7.07 -2.435 -3.01 -0.485 -4.687 -1.353 -4.687 -2.426 0 -1.329 0.987 -1.506 4.827 -0.865 2.655 0.443 5.688 1.261 6.741 1.817 1.052 0.556 2.969 1.01 4.26 1.01 2.753 0 3.16 2.874 0.55 3.883 -2.273 0.879 -1.853 0.969 -4.622 -0.985 z" style="fill:#c01d13"/><path d="m 56.719,994.58 c 0,-9.853 0.111,-10.306 2.687,-10.957 1.478,-0.374 3.395,-0.58 4.26,-0.458 3.112,0.437 3.928,-0.111 6.04,-4.055 1.178,-2.203 2.843,-4.01 3.702,-4.01 0.858,0 1.853,-0.768 2.21,-1.706 0.357,-0.938 2.694,-2.323 5.192,-3.077 10.522,-3.176 5.994,-15.622 -5.085,-13.974 -2.093,0.311 -6.106,-0.37 -9.347,-1.588 -5.307,-1.994 -5.668,-2.38 -5.5,-5.885 0.112,-2.343 1.338,-4.969 3.265,-6.996 2.388,-2.511 2.917,-3.92 2.342,-6.231 -0.445,-1.786 -0.086,-4.231 0.892,-6.082 3.228,-6.107 5.43,-11.876 4.782,-12.529 -0.363,-0.366 -1.223,0.964 -1.912,2.954 -0.689,1.99 -1.713,3.619 -2.277,3.619 -0.564,0 -1.025,0.72 -1.025,1.599 0,2.249 -8.095,17.855 -9.262,17.855 -1.709,0 -1.037,-6.592 0.742,-7.28 0.937,-0.362 1.704,-1.454 1.704,-2.427 0,-0.972 0.486,-2.662 1.081,-3.755 0.594,-1.093 1.915,-4.047 2.935,-6.565 1.02,-2.518 2.323,-5.472 2.895,-6.566 1.356,-2.589 4.41,-11.433 4.431,-12.831 0.009,-0.598 -0.593,-0.473 -1.339,0.278 -1.05,1.057 -1.949,0.803 -3.991,-1.129 -1.945,-1.841 -2.969,-2.159 -3.907,-1.213 -1.722,1.735 -0.34,4.949 2.443,5.682 1.246,0.328 2.266,1.281 2.266,2.117 0,2.626 -7.763,18.812 -9.02,18.812 -1.835,0 -1.622,-29.365 0.219,-30.23 1.136,-0.534 1.136,-0.801 0,-1.335 -0.781,-0.367 -1.42,-2.225 -1.42,-4.129 0,-3.06 0.309,-3.384 2.663,-2.788 1.915,0.484 3.384,-0.1 5.23,-2.08 3.3,-3.539 2.086,-6.06 -1.711,-3.557 -5.753,3.798 -6.182,2.968 -6.182,-11.954 v -13.732 h 28.397 c 26.882,0 28.518,0.122 30.668,2.289 1.249,1.259 2.272,3.102 2.272,4.096 0,1.398 0.744,1.643 3.289,1.08 1.809,-0.4 5.898,-0.748 9.09,-0.773 4.078,-0.032 5.798,-0.502 5.798,-1.584 0,-0.847 -0.511,-1.857 -1.136,-2.246 -3.071,-1.912 -0.246,-2.861 8.519,-2.861 7.397,0 9.655,0.365 9.655,1.561 0,0.993 1.963,1.836 5.395,2.318 4.585,0.643 5.679,0.408 7.281,-1.561 1.547,-1.901 3.233,-2.318 9.371,-2.318 7.645,0 10.462,1.854 3.803,2.502 -2.425,0.236 -3.811,1.042 -4.059,2.361 -0.48,2.55 3.8,2.76 5.192,0.255 0.825,-1.485 1.9,-1.557 7.156,-0.481 3.402,0.697 8.101,1.823 10.444,2.503 l 4.26,1.236 v 7.744 c 0,6.898 -0.31,7.99 -2.84,9.995 -3.857,3.056 -3.857,6.432 0,5.456 2.569,-0.65 2.84,-0.382 2.84,2.812 0,1.942 -0.513,4.495 -1.139,5.674 -0.761,1.433 -0.761,2.379 0,2.853 0.734,0.457 1.139,18.994 1.139,52.14 v 51.43 l -8.235,-0.01 -8.235,-0.01 -5,-5.13 c -2.751,-2.822 -6.954,-6.04 -9.342,-7.144 -2.387,-1.107 -4.354,-2.375 -4.37,-2.817 -0.016,-0.442 2.44,-3.291 5.458,-6.332 7.419,-7.475 11.526,-14.903 14,-25.332 2.587,-10.889 2.707,-15.326 0.401,-14.821 -0.929,0.203 -5.179,5.262 -9.444,11.241 -4.265,5.979 -8.461,10.871 -9.325,10.871 -0.864,0 -3,-2.762 -4.755,-6.139 -4.259,-8.213 -4.515,-18.372 -0.563,-22.353 1.441,-1.452 3.245,-2.85 4.01,-3.106 0.763,-0.256 1.943,-4.059 2.622,-8.451 1.366,-8.837 0.93,-10.857 -4.927,-22.876 -3.203,-6.573 -3.229,-6.747 -0.634,-4.291 1.488,1.409 3.186,2.561 3.775,2.561 1.931,0 12.896,-9.732 16.449,-14.599 4.066,-5.571 3.528,-7.749 -2.851,-11.541 -6.53,-3.882 -15.192,-5.902 -25.3,-5.902 -9.809,0 -15.3,1.689 -16.602,5.107 -0.847,2.223 -4.836,2.3 -5.67,0.109 -0.346,-0.907 -1.843,-2.452 -3.328,-3.432 -2.41,-1.591 -3.299,-1.601 -8.296,-0.094 -3.078,0.928 -9.104,3.76 -13.39,6.293 -4.286,2.533 -9.27,4.605 -11.07,4.605 -3.413,0 -4.111,0.995 -2.112,3.01 0.802,0.808 -0.074,3.26 -2.79,7.803 -6.346,10.617 -6.544,19.2 -0.518,22.445 2.346,1.265 2.346,1.275 0.105,3.745 -3.176,3.5 -4.29,7.627 -2.058,7.627 0.957,0 5.869,-5.278 10.917,-11.73 13.228,-16.907 25.979,-29.546 29.03,-28.774 1.706,0.431 2.93,-0.204 4.223,-2.192 1.429,-2.198 3.19,-2.971 8.193,-3.601 7.445,-0.937 8.24,-0.465 12.216,7.257 2.619,5.086 2.682,5.523 0.724,5.01 -1.307,-0.344 -2.145,-1.579 -2.145,-3.159 0,-1.632 -0.843,-2.816 -2.272,-3.192 -1.359,-0.358 -2.272,-1.561 -2.272,-2.994 0,-2.852 -3.056,-3.199 -6.314,-0.716 -1.213,0.924 -3.099,1.697 -4.193,1.717 -1.093,0.02 -3.01,1.066 -4.26,2.325 -1.249,1.259 -3.292,2.289 -4.54,2.289 -3.051,0 -18.697,15.08 -23.567,22.707 -2.146,3.363 -6.596,9.314 -9.889,13.224 -7.562,8.98 -8.575,10.93 -8.575,16.506 0,6.118 4.954,23.276 9.109,31.548 1.862,3.707 3.386,7.371 3.386,8.14 0,0.787 -3.01,2.043 -6.873,2.869 -11.759,2.514 -18.06,8.187 -21.919,19.728 -0.538,1.611 -2.01,2 -7.52,2 H 56.73 V 994.58 z m 128.35,-85.28 c 0,-0.944 -0.767,-1.717 -1.704,-1.717 -0.937,0 -1.704,0.772 -1.704,1.717 0,0.944 0.767,1.717 1.704,1.717 0.937,0 1.704,-0.772 1.704,-1.717 z m 11.359,-6.294 c 0,-0.629 -0.511,-1.144 -1.136,-1.144 -0.625,0 -1.136,0.515 -1.136,1.144 0,0.629 0.511,1.144 1.136,1.144 0.625,0 1.136,-0.515 1.136,-1.144 z m -121.56,-6.075 c 0.01,-0.509 -0.494,-0.608 -1.118,-0.219 -0.625,0.389 -1.128,1.578 -1.118,2.642 0.015,1.668 0.17,1.698 1.118,0.219 0.606,-0.944 1.109,-2.133 1.118,-2.642 z m 12.481,-12.08 c 0.028,-4.629 -0.157,-4.946 -2.525,-4.307 -1.406,0.38 -3.369,0.697 -4.364,0.706 -1.109,0.01 -2.317,1.727 -3.124,4.44 -1.883,6.333 -1.669,8.164 0.956,8.164 1.395,0 2.284,0.773 2.302,2 0.022,1.469 0.922,0.936 3.377,-2 2.568,-3.074 3.354,-5.167 3.377,-9 z m 105.67,7.286 c 0,-0.944 -0.767,-1.717 -1.704,-1.717 -0.937,0 -1.704,0.772 -1.704,1.717 0,0.944 0.767,1.717 1.704,1.717 0.937,0 1.704,-0.772 1.704,-1.717 z M 71.479,881.266 c 0,-0.629 -0.225,-1.144 -0.501,-1.144 -0.275,0 -0.817,0.515 -1.203,1.144 -0.386,0.629 -0.161,1.144 0.501,1.144 0.662,0 1.203,-0.515 1.203,-1.144 z m 38.12,-15.76 c -0.381,-0.384 -1.575,0.233 -2.653,1.371 -1.874,1.977 -1.844,2.01 0.692,0.697 1.459,-0.754 2.341,-1.685 1.961,-2.068 z m 9.602,138.36 c 0.078,-3.253 2.476,-4.03 11.549,-3.755 9.166,0.28 22.831,-2.162 25.293,-4.519 0.594,-0.568 1.688,-1.033 2.432,-1.033 1.584,0 5.467,9.103 4.332,10.156 -0.424,0.394 -0.999,0.072 -1.278,-0.715 -0.279,-0.787 -1.189,-1.431 -2.02,-1.431 -0.833,0 -1.772,0.644 -2.087,1.431 -0.381,0.951 -0.603,0.835 -0.663,-0.343 -0.223,-4.412 -5.769,-5.339 -5.769,-0.965 0,1.192 -0.767,2.166 -1.704,2.166 -0.937,0 -1.704,-0.571 -1.704,-1.268 0,-0.839 -1.058,-0.964 -3.124,-0.37 -4.378,1.26 -14.337,1.313 -15.207,0.082 -0.399,-0.564 -1.377,-0.619 -2.175,-0.123 -1.819,1.133 -7.897,1.664 -7.874,0.688 z m -51.13,-30.873 c 0,-1.877 4.481,-5.02 6.205,-4.357 2.564,0.991 2.134,2.49 -1.147,3.996 -3.426,1.573 -5.058,1.689 -5.058,0.361 z m -9.939,-2.08 c -0.781,-0.317 -1.42,-2.337 -1.42,-4.487 0,-4.26 1.319,-4.731 8.945,-3.195 4.632,0.933 4.733,4.331 0.198,6.694 -3.422,1.783 -5.207,2.01 -7.724,0.988 z m 10.336,-8.932 c -1.309,-0.924 -4.49,-2.02 -7.07,-2.435 -3.01,-0.485 -4.687,-1.353 -4.687,-2.426 0,-1.329 0.987,-1.506 4.827,-0.865 2.655,0.443 5.688,1.261 6.741,1.817 1.052,0.556 2.969,1.011 4.26,1.011 2.753,0 3.16,2.874 0.55,3.883 -2.273,0.879 -1.853,0.969 -4.622,-0.985 z m 86.01,-45.596 c -0.588,-1.557 -1.427,-4.755 -1.865,-7.106 -0.628,-3.372 -0.464,-4.165 0.778,-3.757 3.353,1.103 6.357,12.211 3.568,13.196 -0.777,0.275 -1.894,-0.775 -2.481,-2.333 z M 141.29,912.78 c -1.065,-2.809 -1.598,-5.993 -1.186,-7.08 0.69,-1.81 0.937,-1.781 3.063,0.361 3.01,3.033 4.362,11.821 1.817,11.821 -1.037,0 -2.555,-2.098 -3.695,-5.106 z" style="fill:#fff"/><path d="m 66.942 1002.93 c 0 -6.736 10.18 -18.745 19.939 -23.522 4.158 -2.035 5.097 -3.02 4.642 -4.858 -0.314 -1.269 -1.105 -4.367 -1.758 -6.884 -0.653 -2.518 -1.216 -6.637 -1.251 -9.155 -0.035 -2.518 -0.814 -5.577 -1.731 -6.799 -1.882 -2.507 -2.251 -14.308 -0.553 -14.308 0.613 0 1.403 8.218 1.756 9.949 1.553 7.617 5.697 19.646 8.668 25.16 1.776 3.295 3.228 6.7 3.228 7.568 0 1 -2.496 2.111 -6.873 3.047 -11.759 2.514 -18.06 8.187 -21.919 19.728 -0.856 2.561 -4.148 2.621 -4.148 0.075 z m 52.25 0.891 c 0 -1.397 3.246 -4.686 4.625 -4.686 1.983 0 1.057 2.024 -1.785 3.9 -1.562 1.031 -2.84 1.384 -2.84 0.785 z m 11.359 -0.374 c 0 -0.483 -11.859 1.041 -10.422 1.041 1.437 0 3.465 -5.336 7.547 -3.626 1.304 -1.215 29.06 -4.732 29.06 -3.768 0 0.375 7.084 4.627 4.747 5.611 -4.578 1.927 -30.93 2.17 -30.93 0.738 z m 19.442 -1.164 c -0.096 -2.291 0.409 -3.142 1.856 -3.129 1.262 0.011 4.638 -0.373 3.82 0.16 -0.709 1.683 -4.665 2.569 -4.977 3.828 -0.435 1.754 -0.598 1.554 -0.699 -0.858 z m 11.855 0.478 c -0.393 -1.248 -1.462 -2.558 -2.375 -2.911 -1.777 -0.687 -14.09 -1.977 -0.464 -4.942 1.11 -0.242 4.866 8.805 4.066 9.607 -0.281 0.284 -0.833 -0.506 -1.227 -1.754 z m 18.792 -3.051 c -2.751 -2.822 -6.954 -6.04 -9.342 -7.144 -2.387 -1.107 -4.354 -2.358 -4.37 -2.78 -0.016 -0.422 2.974 -3.792 6.644 -7.49 9.01 -9.07 12.913 -17.742 15.49 -34.37 0.676 -4.36 0.517 -4.864 -1.529 -4.864 -1.59 0 -4.613 3.312 -9.963 10.915 -4.86 6.907 -8.322 10.79 -9.429 10.576 -2.691 -0.522 -6.618 -8.559 -7.446 -15.239 -0.827 -6.669 1.464 -14.262 4.303 -14.262 2.809 0 4.263 -3 5.083 -10.487 0.437 -3.988 1.305 -11.139 1.93 -10.988 1.958 0.473 1.998 17.582 0.053 21.372 -2.206 4.299 -2.22 5.825 -0.053 5.825 1.085 0 1.704 1.099 1.704 3.03 0 2.918 0.226 2.811 6.261 -2.939 4.415 -4.207 7.01 -5.858 8.803 -5.602 2.372 0.34 2.564 1.01 2.876 10.05 0.465 13.491 -2.627 23.03 -11.786 36.34 l -4.899 7.121 l 6.755 6.806 c 3.715 3.743 6.755 7.362 6.755 8.04 0 2.551 -3 1.055 -7.841 -3.912 z m -13.173 -50.926 c 0 -3.147 -0.383 -5.722 -0.852 -5.722 -0.469 0 -0.852 2.575 -0.852 5.722 0 3.147 0.383 5.722 0.852 5.722 0.469 0 0.852 -2.575 0.852 -5.722 z m -83.24 -9.432 c -0.688 -0.835 -1.245 -3.561 -1.238 -6.06 0.026 -8.877 -0.15 -10.207 -1.989 -15.06 -2.883 -7.606 -0.613 -17.321 6 -25.69 0.675 -0.854 1.585 -3.548 2.02 -5.986 0.792 -4.423 2.267 -7.392 4.066 -4.806 1.146 1.648 -0.041 6.06 -0.695 6.942 -6.652 8.947 -7.648 11.473 -7.718 19.594 -0.046 5.25 0.474 8.828 1.455 10.02 0.88 1.068 1.269 3.188 0.92 5.01 -0.376 1.953 0.045 3.885 1.105 5.075 1.46 1.639 1.496 2.563 0.241 6.294 -1.911 5.682 -2.652 6.512 -4.172 4.668 z m 70.775 -21.751 c -0.874 -2.657 -2.853 -10.579 -2.86 -11.444 -0.003 -0.472 0.531 -0.858 1.187 -0.858 1.547 0 4.486 7.098 4.486 10.835 0 2.982 -1.976 4.01 -2.813 1.467 z m -11.649 -1.144 c -1.159 -1.493 -3.711 -8.497 -3.711 -10.184 0 -2.332 3.502 -0.677 5.082 2.403 2.943 5.733 1.851 11.932 -1.371 7.781 z m 24.864 -8.959 c -2.164 -5.218 -3.301 -5.708 -0.255 -5.708 1.412 0 3.572 0.191 4.352 -1.068 1.68 -2.711 10.831 -13.65 11.749 -9.439 0.205 0.94 -9.259 11.09 -10.702 11.645 -2.216 0.849 -0.163 10.02 0.24 13.493 0.624 5.389 -2.961 -2.127 -5.201 -7.529 z m 15.694 -18.322 c 2.513 -3.204 4.57 -7.02 4.57 -8.487 0 -5.05 -13.615 -13.154 -22.11 -13.154 -4.505 0 -14.336 -2.254 -10.78 -3.191 2.879 -0.758 16.775 0.782 17.642 2.195 0.336 0.548 1.574 0.997 2.751 0.997 1.177 0 4.086 1.117 6.464 2.482 11.242 6.452 12.271 10.988 4.435 19.547 -6.625 7.237 -8.743 6.96 -2.977 -0.389 z m -86.28 -10.184 c -7.521 7.455 -5.641 1.757 -5.347 1.543 8.08 -5.876 34.897 -16.971 33.852 -13.814 -0.794 2.399 -26.734 13.37 -28.506 12.27 z m 28.718 -13.225 c -3.941 -3.492 2.563 0.2 7.382 2.033 3.03 1.153 3.825 1.081 5.04 -0.456 1.66 -2.106 18.217 -3.365 18.434 -1.587 0.184 1.509 -8.136 0.635 -9.104 0.635 -2.442 0 -8.839 3.415 -9.939 5.305 -1.238 2.128 -8.223 -1.366 -11.996 -4.708 z" style="fill:#16152c"/><g style="fill-rule:evenodd"><g style="fill:#fff"><g transform="matrix(0.89922 0 0 0.85431 11.601 812.8)"><path d="m 55.41 56.26 c 0.069 1.269 -0.084 2.517 -0.31 3.763 -0.334 1.109 -0.67 2.22 -1.102 3.295 -0.156 0.479 -0.161 0.994 -0.187 1.493 -0.036 0.991 -0.03 1.983 -0.029 2.974 0.002 1.083 0.004 2.166 0.005 3.249 0.001 1.242 0.001 2.485 0.001 3.727 0 1.268 0 2.535 0 3.803 0 1.31 0 2.619 0 3.929 0 1.351 0 2.702 0 4.054 0 1.297 0 2.593 0 3.89 0 1.615 0 3.23 0 4.845 0 2.254 0 4.507 0 6.761 0 2.52 0 5.04 0 7.561 0 2.408 0 4.815 0 7.223 0 2.523 0 5.05 0 7.57 0 2.481 0 4.962 0 7.443 0 1.915 0 3.83 0 5.745 0 1.687 0 3.375 0 5.062 0 1.51 0 3.02 0 4.53 0 1.876 0 3.753 0 5.629 0 2.235 0 4.47 0 6.706 0 2.029 0 4.058 0 6.086 0 1.794 0 3.589 0 5.383 0 1.879 0 3.757 0 5.636 0 1.586 0 3.173 0 4.759 0 1.402 0 2.805 0 4.207 0 1.516 0 3.03 0 4.549 0 1.8 0 3.599 0 5.399 0 1.543 0 3.086 0 4.629 0 1.269 0 2.538 0 3.807 0 1.229 0 2.459 0 3.688 0 1.276 0 2.552 0 3.828 0 1.115 0 2.23 0 3.346 0 1.08 0 2.16 0 3.241 0 1.08 0 2.161 0 3.241 0.025 0.539 -0.032 1.083 0 1.622 0.002 0.025 0.028 -0.045 0.028 -0.07 0 -0.104 -0.001 -0.21 -0.026 -0.311 -0.041 -0.165 -0.114 -0.321 -0.171 -0.481 -0.495 -0.733 -0.395 -0.501 -0.057 -0.238 0.164 0.127 0.989 0.599 1.12 0.685 0.289 0.221 0.521 0.174 0.873 0.204 -0.088 -0.016 -0.18 -0.015 -0.264 -0.046 -0.023 -0.009 0.044 -0.022 0.067 -0.028 0.114 -0.025 0.23 -0.043 0.345 -0.063 0.17 -0.028 0.339 -0.056 0.509 -0.085 -0.051 0.002 -0.194 0.036 -0.154 0.006 0.079 -0.06 0.187 -0.067 0.28 -0.101 0.62 -0.229 1.266 -0.358 1.911 -0.484 5.637 -1.045 7.116 6.927 1.478 7.972 c -0.238 0.036 -0.475 0.073 -0.702 0.162 -1.416 0.492 -2.888 0.777 -4.393 0.723 -1.602 -0.199 -3.162 -0.592 -4.498 -1.546 -0.378 -0.299 0.096 0.067 -0.84 -0.523 -0.976 -0.615 -1.806 -1.377 -2.52 -2.287 -0.22 -0.417 -0.484 -0.814 -0.661 -1.252 -0.499 -1.237 -0.444 -2.556 -0.436 -3.857 0 -1.08 0 -2.161 0 -3.241 0 -1.08 0 -2.16 0 -3.241 0 -1.115 0 -2.23 0 -3.346 0 -1.276 0 -2.552 0 -3.828 0 -1.229 0 -2.459 0 -3.688 0 -1.269 0 -2.538 0 -3.807 0 -1.543 0 -3.086 0 -4.629 0 -1.8 0 -3.599 0 -5.399 0 -1.516 0 -3.03 0 -4.549 0 -1.402 0 -2.805 0 -4.207 0 -1.586 0 -3.173 0 -4.759 0 -1.879 0 -3.757 0 -5.636 0 -1.794 0 -3.589 0 -5.383 0 -2.029 0 -4.058 0 -6.086 0 -2.235 0 -4.47 0 -6.706 0 -1.876 0 -3.753 0 -5.629 0 -1.51 0 -3.02 0 -4.53 0 -1.687 0 -3.375 0 -5.062 0 -1.915 0 -3.83 0 -5.745 0 -2.481 0 -4.962 0 -7.443 0 -2.523 0 -5.05 0 -7.57 0 -2.408 0 -4.815 0 -7.223 0 -2.52 0 -5.04 0 -7.561 0 -2.254 0 -4.507 0 -6.761 0 -1.615 0 -3.23 0 -4.845 0 -1.297 0 -2.593 0 -3.89 0 -1.351 0 -2.702 0 -4.054 0 -1.31 0 -2.619 0 -3.929 0 -1.267 0 -2.535 0 -3.802 0 -1.24 0 -2.48 -0.001 -3.72 -0.001 -1.082 -0.003 -2.165 -0.005 -3.247 -0.001 -1.146 -0.007 -2.293 0.042 -3.438 0.082 -1.382 0.236 -2.768 0.76 -4.063 0.203 -0.504 0.311 -1.335 0.643 -1.835 0.021 -0.032 0.002 0.078 0.004 0.117 0.141 -0.778 0.257 -1.508 0.18 -2.314 0 -5.733 8.108 -5.733 8.108 0 z"/><path d="m 212.32 51.781 c 0.38 0.769 0.68 1.56 0.886 2.392 0.184 0.834 0.344 1.667 0.435 2.517 0.011 0.692 0.116 1.358 0.294 2.023 0.301 0.976 0.489 1.971 0.609 2.984 0.128 1.356 0.121 2.72 0.127 4.081 0.003 1.551 0 3.102 -0.001 4.653 -0.001 1.737 -0.002 3.474 -0.002 5.211 0 1.506 0 3.01 0 4.519 0 1.375 0 2.75 0 4.125 0 1.347 0 2.693 0 4.04 0.022 1.415 -0.349 2.773 -0.631 4.146 -0.353 1.315 -0.469 2.669 -0.547 4.02 -0.071 1.596 -0.069 3.195 -0.071 4.792 0.045 1.663 -0.035 3.32 -0.141 4.979 -0.109 1.684 -0.136 3.371 -0.154 5.058 -0.013 1.561 -0.012 3.122 -0.012 4.682 0.001 1.393 0.001 2.787 0.002 4.18 0 1.61 0 3.22 0 4.83 0 1.943 0 3.887 0 5.83 0 1.917 0 3.833 0 5.75 0 1.736 0 3.472 0 5.208 0 1.697 0 3.394 0 5.091 0 1.625 0 3.25 0 4.875 0 1.649 0 3.298 0 4.948 0 1.843 0 3.686 0 5.529 0 1.951 0 3.902 0 5.853 0 1.486 0 2.972 0 4.458 0 1.402 0 2.804 0 4.206 0 1.41 0 2.82 0 4.23 0 1.423 0 2.845 0 4.268 0 1.575 0 3.15 0 4.725 0 1.644 0 3.288 0 4.932 0 1.431 0 2.862 0 4.294 0 1.217 0 2.434 0 3.65 0 1.087 0 2.173 0 3.26 0 0.842 0 1.685 0 2.527 0 0.638 0 1.276 0 1.913 0 0.649 0 1.298 0 1.947 0 0.836 0 1.672 0 2.508 0 0.82 0 1.64 0 2.46 0 0.696 0 1.391 0 2.087 0 0.625 0 1.25 0 1.874 0 0.621 0 1.242 0 1.862 0 3.298 -4.663 3.298 -4.663 0 c 0 -0.621 0 -1.242 0 -1.862 0 -0.625 0 -1.25 0 -1.874 0 -0.696 0 -1.391 0 -2.087 0 -0.82 0 -1.64 0 -2.46 0 -0.836 0 -1.672 0 -2.508 0 -0.649 0 -1.298 0 -1.947 0 -0.638 0 -1.276 0 -1.913 0 -0.842 0 -1.685 0 -2.527 0 -1.087 0 -2.173 0 -3.26 0 -1.217 0 -2.434 0 -3.65 0 -1.431 0 -2.862 0 -4.294 0 -1.644 0 -3.288 0 -4.932 0 -1.575 0 -3.15 0 -4.725 0 -1.423 0 -2.845 0 -4.268 0 -1.41 0 -2.82 0 -4.23 0 -1.402 0 -2.804 0 -4.206 0 -1.486 0 -2.972 0 -4.458 0 -1.951 0 -3.902 0 -5.853 0 -1.843 0 -3.686 0 -5.529 0 -1.649 0 -3.298 0 -4.948 0 -1.625 0 -3.25 0 -4.875 0 -1.697 0 -3.394 0 -5.091 0 -1.736 0 -3.472 0 -5.208 0 -1.917 0 -3.833 0 -5.75 0 -1.943 0 -3.887 0 -5.83 0 -1.61 0 -3.219 0 -4.829 0 -1.393 -0.001 -2.787 -0.002 -4.18 0 -1.578 -0.001 -3.156 0.012 -4.734 0.019 -1.769 0.048 -3.538 0.163 -5.304 0.1 -1.562 0.178 -3.122 0.132 -4.689 0.002 -1.687 0.002 -3.375 0.079 -5.06 0.094 -1.578 0.235 -3.159 0.636 -4.694 0.221 -1.062 0.534 -2.106 0.534 -3.201 0 -1.347 0 -2.693 0 -4.04 0 -1.375 0 -2.75 0 -4.125 0 -1.507 0 -3.01 0 -4.52 0 -1.738 0 -3.476 0.002 -5.214 0.001 -1.543 0.004 -3.086 0.001 -4.629 -0.005 -1.188 0.002 -2.379 -0.096 -3.564 -0.089 -0.792 -0.241 -1.563 -0.484 -2.324 -0.237 -0.897 -0.401 -1.805 -0.425 -2.735 -0.065 -0.651 -0.193 -1.286 -0.334 -1.924 -0.104 -0.489 -0.307 -0.934 -0.52 -1.385 -1.475 -2.949 2.696 -5.03 4.171 -2.086 z"/><path d="m 197.62 223.23 c 0.595 -0.093 1.155 -0.296 1.742 -0.436 0.842 -0.168 1.702 -0.198 2.557 -0.216 0.876 -0.066 1.721 0.1 2.55 0.363 0.299 0.158 0.601 0.201 0.929 0.228 0.533 0.091 1.046 0.248 1.585 0.299 0.237 0.006 0.477 0.045 0.714 0.033 0.026 -0.001 -0.089 0.006 -0.076 -0.017 0.005 -0.008 0.334 -0.071 0.335 -0.071 -0.179 0.022 -0.163 0.031 0.028 -0.047 3.058 -1.234 4.803 3.09 1.745 4.325 c -0.479 0.191 -0.191 0.085 -0.869 0.298 -0.784 0.155 -1.57 0.224 -2.367 0.117 -0.504 -0.056 -1.124 -0.131 -1.549 -0.296 -0.714 -0.074 -1.426 -0.194 -2.085 -0.493 0.038 0.004 0.153 0.024 0.115 0.013 -0.356 -0.099 -0.56 -0.112 -0.96 -0.09 -0.535 0.011 -1.072 0.024 -1.602 0.097 -0.558 0.121 -1.092 0.34 -1.661 0.416 -3.199 0.8 -4.33 -3.724 -1.131 -4.524 z"/><path d="m 55.18 51.28 c 1.226 0 2.453 0 3.679 0 2.243 0 4.485 0 6.728 0 2.333 0 4.667 0 7 0 1.601 0 3.203 0 4.804 0 1.642 0 3.284 0 4.927 0 2.293 0 4.586 0 6.88 0 2.804 0 5.609 0 8.413 0 1.727 0 3.454 0 5.181 0 1.386 0 2.773 0 4.159 0 1.204 0 2.408 0 3.611 0 1.075 0 2.15 0 3.225 0 1.03 0 2.059 0 3.089 0 0.97 -0.008 1.94 0.053 2.901 -0.102 1.292 -0.272 2.581 -0.529 3.895 -0.676 1.487 -0.133 2.981 -0.148 4.472 -0.158 1.11 -0.004 2.221 -0.001 3.331 0.001 1.417 0.002 2.833 0.002 4.25 0.002 1.935 0 3.87 0 5.805 0 1.831 0 3.662 0 5.492 0 1.427 0 2.853 0 4.28 0 0.931 0 1.863 0 2.794 0 1.202 0 2.404 0 3.607 0 1.366 0 2.732 0 4.099 0 1.174 0 2.349 0 3.523 0 1.078 -0.021 2.16 0.043 3.236 -0.033 1.066 -0.111 2.133 -0.195 3.204 -0.241 1.089 -0.039 2.18 -0.038 3.269 -0.039 1.344 0 2.689 0.001 4.03 0.001 1.176 0 2.352 0.001 3.528 0.001 1.221 0 2.442 0 3.663 0 1.484 0 2.968 0 4.453 0 1.416 0 2.832 0 4.248 0 1.059 0 2.119 0 3.178 0 0.865 0 1.729 0 2.594 0 0.776 -0.02 1.542 -0.003 2.309 0.12 0.636 0.091 1.236 0.329 1.87 0.43 0.729 0.031 1.428 0.165 2.121 0.39 0.982 0.398 1.76 1.116 2.519 1.833 0.621 0.617 1.169 1.288 1.656 2.01 0.453 0.696 0.786 1.453 1.096 2.22 0.244 0.743 0.471 1.493 0.634 2.259 0.104 0.377 0.203 0.746 0.342 1.108 1.173 3.082 -3.185 4.741 -4.358 1.659 c -0.226 -0.596 -0.398 -1.207 -0.551 -1.826 -0.096 -0.5 -0.268 -0.979 -0.397 -1.47 -0.183 -0.467 -0.374 -0.927 -0.64 -1.355 -0.294 -0.439 -0.613 -0.849 -0.989 -1.224 -0.281 -0.267 -0.654 -0.579 -0.892 -0.831 -0.312 -0.112 -0.911 -0.104 -1.325 -0.181 -0.625 -0.11 -1.23 -0.29 -1.846 -0.426 -0.509 -0.09 -1.028 -0.053 -1.548 -0.057 -0.865 0 -1.729 0 -2.594 0 -1.059 0 -2.119 0 -3.178 0 -1.416 0 -2.832 0 -4.248 0 -1.484 0 -2.968 0 -4.453 0 -1.221 0 -2.442 0 -3.663 0 -1.176 0 -2.353 0 -3.529 -0.001 -1.342 -0.001 -2.684 -0.002 -4.03 -0.001 -1.026 0.001 -2.053 -0.001 -3.078 0.035 -1.042 0.043 -2.079 0.134 -3.117 0.236 -1.173 0.065 -2.346 0.037 -3.52 0.042 -1.174 0 -2.349 0 -3.523 0 -1.366 0 -2.732 0 -4.099 0 -1.202 0 -2.404 0 -3.607 0 -0.931 0 -1.863 0 -2.794 0 -1.427 0 -2.853 0 -4.28 0 -1.831 0 -3.662 0 -5.492 0 -1.935 0 -3.871 0 -5.806 0 -1.419 0 -2.838 0 -4.257 -0.002 -1.097 -0.002 -2.194 -0.006 -3.291 -0.001 -1.333 0.009 -2.668 0.02 -3.997 0.131 -1.263 0.134 -2.493 0.421 -3.739 0.656 -1.185 0.159 -2.37 0.173 -3.564 0.149 -1.03 0 -2.059 0 -3.089 0 -1.075 0 -2.15 0 -3.225 0 -1.204 0 -2.408 0 -3.611 0 -1.386 0 -2.773 0 -4.159 0 -1.727 0 -3.454 0 -5.181 0 -2.804 0 -5.609 0 -8.413 0 -2.293 0 -4.586 0 -6.88 0 -1.642 0 -3.284 0 -4.927 0 -1.601 0 -3.203 0 -4.804 0 -2.333 0 -4.667 0 -7 0 -2.243 0 -4.485 0 -6.728 0 -1.226 0 -2.453 0 -3.679 0 -3.298 0 -3.298 -4.663 0 -4.663 z"/><path d="m 104.96 62.16 c 1.036 -0.219 2.051 -0.527 3.065 -0.834 1.513 -0.519 3.044 -0.983 4.558 -1.497 0.832 -0.264 1.665 -0.522 2.498 -0.781 0.498 -0.167 0.97 -0.372 1.46 -0.557 0.572 -0.184 1.141 -0.401 1.726 -0.584 0.864 -0.269 1.723 -0.554 2.588 -0.821 1.125 -0.318 2.234 -0.682 3.342 -1.053 1.07 -0.354 2.131 -0.7 3.245 -0.882 1.333 -0.157 2.678 -0.143 4.02 -0.148 1.334 0.002 2.665 0.032 3.996 -0.076 1.14 -0.115 2.283 -0.174 3.428 -0.207 0.959 -0.022 1.919 -0.023 2.879 -0.023 1.01 0 2.01 0.001 3.02 0.002 0.144 0 0.288 0 0.432 0 3.298 0.001 3.296 4.665 -0.002 4.663 c -0.144 0 -0.288 0 -0.432 0 -1 0 -2.01 -0.001 -3.01 -0.002 -0.916 0 -1.833 0.001 -2.749 0.021 -1.064 0.03 -2.126 0.086 -3.186 0.194 -1.449 0.114 -2.899 0.101 -4.352 0.091 -1.107 0.004 -2.218 -0.008 -3.321 0.093 -0.857 0.117 -1.651 0.457 -2.478 0.696 -1.147 0.383 -2.293 0.759 -3.457 1.09 -0.879 0.267 -1.749 0.561 -2.627 0.833 -0.495 0.123 -0.953 0.35 -1.443 0.49 -0.572 0.193 -1.119 0.461 -1.698 0.638 -0.793 0.239 -1.581 0.496 -2.373 0.741 -1.564 0.528 -3.141 1.013 -4.704 1.544 -1.444 0.437 -2.902 0.92 -4.415 1.034 -3.298 0 -3.298 -4.663 0 -4.663 z"/><path d="m 113.98 54.603 c 1.085 -0.031 2.167 -0.203 3.237 -0.393 1.234 -0.241 2.482 -0.38 3.737 -0.451 1.145 -0.106 2.273 0.015 3.401 0.206 0.937 0.156 1.891 0.165 2.839 0.184 1.346 -0.038 2.676 0.058 4.01 0.25 1.334 0.171 2.683 0.17 4.03 0.19 1.648 0.016 3.293 0.067 4.935 -0.094 1.348 -0.157 2.702 -0.251 4.058 -0.301 1.232 -0.036 2.466 -0.034 3.698 -0.034 1.408 0.001 2.816 0.002 4.224 0.002 1.276 0.001 2.551 0.001 3.827 0.001 1.473 0 2.945 0 4.418 0 1.239 0 2.477 0 3.716 0 0.917 0 1.834 0 2.752 0 0.875 0 1.751 0 2.626 0 0.919 0 1.839 0 2.758 0 1.073 0.02 2.137 0.015 3.204 -0.105 1.723 -0.269 3.453 -0.209 5.185 -0.1 1.811 0.118 3.626 0.159 5.441 0.188 1.24 0.018 2.479 0.019 3.719 0.019 1.074 -0.001 2.147 -0.001 3.221 -0.002 1.32 0 2.64 0 3.961 0 1.63 -0.005 3.258 0.055 4.881 -0.109 1.16 -0.143 2.324 -0.245 3.492 -0.298 0.484 -0.02 0.968 -0.025 1.452 -0.031 4.659 -0.053 4.734 6.535 0.075 6.588 c -0.411 0.005 -0.822 0.009 -1.233 0.025 -1.051 0.046 -2.097 0.147 -3.14 0.273 -1.839 0.177 -3.68 0.153 -5.527 0.141 -1.319 0 -2.639 0 -3.958 0 -1.075 0 -2.149 0.001 -3.224 0.002 -1.275 0 -2.549 -0.002 -3.824 -0.02 -1.918 -0.031 -3.836 -0.076 -5.75 -0.2 -1.356 -0.086 -2.702 -0.16 -4.051 0.074 -1.306 0.141 -2.61 0.174 -3.923 0.145 -0.919 0 -1.839 0 -2.758 0 -0.875 0 -1.751 0 -2.626 0 -0.917 0 -1.834 0 -2.752 0 -1.239 0 -2.477 0 -3.716 0 -1.473 0 -2.945 0 -4.418 0 -1.277 0 -2.553 0 -3.83 -0.001 -1.406 -0.001 -2.812 -0.002 -4.219 -0.002 -1.155 0 -2.31 -0.002 -3.464 0.03 -1.226 0.043 -2.45 0.133 -3.668 0.275 -1.883 0.177 -3.767 0.155 -5.657 0.123 -1.626 -0.024 -3.258 -0.035 -4.871 -0.257 -1.065 -0.154 -2.121 -0.223 -3.201 -0.184 -1.271 -0.027 -2.548 -0.058 -3.804 -0.276 -0.655 -0.111 -1.263 -0.216 -1.939 -0.123 -0.991 0.052 -1.977 0.168 -2.951 0.361 -1.447 0.255 -2.912 0.466 -4.383 0.494 -4.659 0 -4.659 -6.589 0 -6.589 z"/><path d="m 210.04 66.45 c -0.996 -0.552 -1.937 -1.196 -2.873 -1.843 -0.519 -0.4 -1.219 -0.853 -1.754 -1.09 -0.777 -0.093 -1.56 -0.109 -2.341 -0.128 -0.894 -0.018 -1.821 -0.023 -2.689 0.227 -1.272 0.386 -2.593 0.508 -3.913 0.589 -1.167 0.06 -2.336 0.065 -3.505 0.067 -1.094 0.057 -2.169 -0.067 -3.245 -0.249 -1.01 -0.112 -2.02 -0.18 -3.02 -0.358 -0.883 -0.178 -1.781 -0.219 -2.67 -0.348 -4.596 -0.762 -3.518 -7.262 1.078 -6.5 c 0.855 0.245 1.895 0.073 2.761 0.364 0.978 0.18 1.973 0.182 2.955 0.346 0.715 0.121 1.4 0.222 2.135 0.157 1.04 -0.001 2.08 -0.005 3.119 -0.055 0.96 -0.056 1.912 -0.132 2.833 -0.434 1.421 -0.302 2.865 -0.472 4.321 -0.392 1.581 0.039 3.193 0.065 4.695 0.623 1.057 0.479 2.072 1.06 2.997 1.766 0.679 0.472 1.36 0.934 2.066 1.365 4.167 2.084 1.221 7.977 -2.947 5.893 z"/><path d="m 137.28 64.27 c -1.227 0.046 -2.443 -0.149 -3.659 -0.285 -1.351 -0.1 -2.66 -0.469 -3.935 -0.909 -0.682 -0.289 -1.391 -0.449 -2.124 -0.52 -0.83 -0.059 -1.663 -0.051 -2.495 -0.051 -0.951 0.002 -1.901 0.005 -2.852 0.006 -0.298 0.018 -0.597 -0.017 -0.895 0.001 -0.019 0.001 0.067 0.014 0.051 0.023 -0.052 0.027 -0.23 0.046 -0.172 0.04 0.268 -0.026 0.413 -0.114 0.123 0.026 -0.6 0.317 -1.53 0.742 -2.484 0.987 -0.928 0.148 -1.856 0.276 -2.773 0.488 -0.466 0.167 -0.196 0.073 -0.811 0.278 -4.422 1.466 -6.495 -4.788 -2.073 -6.254 c 0.9 -0.298 0.409 -0.142 1.473 -0.459 0.886 -0.189 1.78 -0.368 2.68 -0.466 0.442 -0.009 0.794 -0.468 1.237 -0.559 1.159 -0.522 2.36 -0.769 3.633 -0.692 0.955 -0.002 1.91 -0.005 2.865 -0.006 1.067 0 2.135 -0.007 3.199 0.089 1.242 0.141 2.464 0.394 3.627 0.863 0.787 0.3 1.617 0.509 2.458 0.568 0.974 0.109 1.944 0.285 2.926 0.244 4.659 0 4.659 6.589 0 6.589 z"/><path d="m 94.99 71.42 c -1.389 0.963 -2.972 1.578 -4.386 2.502 -1.117 0.699 -1.921 1.744 -2.786 2.714 -0.476 0.703 -0.938 1.403 -1.365 2.138 -0.561 0.72 -0.936 1.529 -1.329 2.344 -0.223 0.674 -0.671 1.298 -1.01 1.891 -0.311 0.499 -0.588 0.965 -0.828 1.492 -0.246 0.572 -0.426 1.202 -0.636 1.802 -0.279 0.768 -0.485 1.565 -0.737 2.345 -0.366 1.126 -0.754 2.245 -1.14 3.365 -0.522 1.533 -1.485 2.837 -2.346 4.187 -0.736 1.243 -1.493 2.473 -2.279 3.686 -0.579 0.963 -1.3 1.83 -1.906 2.774 -2.55 3.899 -8.06 0.294 -5.515 -3.606 c 0.615 -0.931 1.301 -1.812 1.894 -2.757 0.781 -1.2 1.522 -2.424 2.257 -3.652 0.584 -0.909 1.256 -1.779 1.666 -2.785 0.38 -1.094 0.765 -2.186 1.114 -3.288 0.305 -0.865 0.497 -1.77 0.836 -2.624 0.192 -0.616 0.498 -1.401 0.749 -2.078 0.306 -0.663 0.653 -1.32 1.024 -1.902 0.476 -0.864 0.564 -0.81 0.927 -1.735 0.468 -0.955 0.91 -1.929 1.561 -2.778 0.652 -1.115 1.36 -2.193 2.149 -3.216 1.27 -1.41 2.502 -2.874 4.149 -3.872 1.482 -0.931 3.078 -1.64 4.54 -2.598 3.995 -2.397 7.385 3.253 3.39 5.65 z"/><path d="m 87.04 80.87 c -0.14 0.849 -0.404 1.67 -0.567 2.514 -0.272 0.9 -0.511 1.808 -0.786 2.707 -0.16 0.771 -0.338 1.539 -0.506 2.309 -0.223 0.967 -0.606 1.88 -0.921 2.816 -0.252 0.753 -0.51 1.503 -0.793 2.247 -0.382 0.883 -0.943 1.668 -1.462 2.458 -0.385 0.625 -0.886 1.165 -1.349 1.731 -0.168 0.174 -0.331 0.353 -0.504 0.522 -0.051 0.049 -1.217 1.115 -0.981 0.98 -0.426 0.6 -0.874 1.149 -1.434 1.636 -0.63 0.548 -0.31 0.171 -0.505 0.407 -0.14 0.113 -0.279 0.227 -0.419 0.34 -3.644 2.903 -7.75 -2.25 -4.106 -5.153 c 0.052 -0.039 0.103 -0.078 0.155 -0.118 0.166 -0.141 0.328 -0.286 0.497 -0.424 0.039 -0.032 0.139 -0.132 0.125 -0.084 -0.118 0.409 -0.311 0.205 0.323 -0.43 0.506 -0.657 1.111 -1.355 1.746 -1.844 0.482 -0.59 0.702 -0.765 1.026 -1.301 0.367 -0.584 0.499 -0.776 0.731 -1.124 0.011 -0.016 0 0.039 -0.001 0.059 0.265 -0.694 0.523 -1.384 0.735 -2.086 0.246 -0.686 0.519 -1.348 0.704 -2.055 0.21 -0.939 0.408 -1.879 0.639 -2.813 0.211 -0.689 0.372 -1.394 0.625 -2.069 0.193 -0.947 0.465 -1.872 0.637 -2.823 1.13 -4.52 7.522 -2.922 6.392 1.598 z"/><path d="m 81.87 79.985 c -1.037 0.993 -1.922 2.104 -2.8 3.234 -0.667 0.84 -1.356 1.698 -1.79 2.687 -0.513 0.983 -0.814 2.05 -1.183 3.091 -0.485 1.501 -0.994 2.993 -1.499 4.487 -0.322 1.159 -0.668 2.311 -1.11 3.431 -0.228 0.6 -0.492 1.195 -0.679 1.81 -0.24 0.684 -0.449 1.382 -0.685 2.068 -0.169 0.305 -0.338 0.61 -0.507 0.914 -2.568 3.887 -8.07 0.256 -5.498 -3.632 c -0.053 0.129 -0.106 0.258 -0.158 0.387 0.162 -0.536 0.448 -1.279 0.614 -1.872 0.269 -0.759 0.542 -1.476 0.841 -2.235 0.159 -0.231 0.024 -0.02 0.218 -0.62 0.255 -0.789 0.502 -1.576 0.726 -2.374 0.521 -1.519 1.03 -3.042 1.528 -4.569 0.448 -1.256 0.828 -2.541 1.448 -3.728 0.687 -1.392 1.533 -2.697 2.532 -3.887 0.895 -1.151 1.774 -2.322 2.858 -3.306 2.91 -3.638 8.06 0.478 5.145 4.116 z"/><path d="m 68.23 82.23 c -0.85 0.326 -1.718 0.685 -2.566 1.048 -1.086 0.47 -2.027 1.214 -2.999 1.878 -0.939 0.594 -1.848 1.229 -2.763 1.857 -0.755 0.568 -1.504 1.138 -2.255 1.712 -0.879 0.753 -1.949 1.18 -2.995 1.637 -0.717 0.29 -1.463 0.451 -2.17 0.767 0.29 -0.052 0.344 -0.253 0.518 -0.145 -0.014 0.332 -0.109 0.633 -0.185 0.962 -1.146 4.516 -7.533 2.894 -6.386 -1.621 c 0.193 -0.465 0.087 -1.031 0.34 -1.482 0.629 -1.672 1.602 -3.08 3.284 -3.839 0.649 -0.249 1.304 -0.495 1.971 -0.684 0.578 -0.25 1.168 -0.426 1.647 -0.849 0.847 -0.628 1.673 -1.281 2.523 -1.905 0.921 -0.619 1.824 -1.264 2.763 -1.857 1.33 -0.901 2.626 -1.881 4.125 -2.494 1.169 -0.496 2.337 -1 3.55 -1.378 4.52 -1.13 6.118 5.262 1.598 6.392 z"/><path d="m 65.52 87.46 c -0.198 1.506 -0.205 3.03 -0.24 4.548 -0.153 2.705 -0.313 5.41 -0.413 8.117 0.016 1.845 -0.191 3.676 -0.355 5.511 -0.098 1.175 -0.137 2.353 -0.155 3.532 -0.012 1.236 -0.007 2.473 -0.006 3.709 0.078 2.529 -0.021 5.03 -0.417 7.535 -0.436 2.425 -1.163 4.768 -1.911 7.109 -0.641 2.181 -1.419 4.317 -2.148 6.469 -0.435 1.441 -1.104 2.807 -1.519 4.253 -1.337 4.463 -7.649 2.572 -6.312 -1.891 c 0.464 -1.517 1.101 -2.973 1.593 -4.482 0.719 -2.114 1.481 -4.213 2.111 -6.356 0.65 -2.03 1.295 -4.057 1.683 -6.159 0.361 -2.146 0.384 -4.301 0.332 -6.474 -0.001 -1.272 -0.006 -2.545 0.007 -3.817 0.021 -1.339 0.067 -2.678 0.18 -4.01 0.154 -1.722 0.355 -3.438 0.333 -5.17 0.1 -2.677 0.251 -5.351 0.411 -8.03 0.047 -2 0.044 -4.02 0.435 -5.994 1.13 -4.52 7.522 -2.922 6.392 1.598 z"/><path d="m 61.47 87.18 c -0.459 0.805 -0.813 1.679 -1.158 2.544 -0.666 1.563 -1.093 3.208 -1.665 4.806 -0.651 1.675 -1.164 3.395 -1.488 5.162 -0.267 1.172 -0.171 2.307 0.05 3.468 0.087 0.37 0.502 2.118 0.667 2.296 0.091 0.132 0.434 1.42 0.583 1.386 -0.068 -0.256 -0.648 -0.576 0.016 -0.245 0.602 0.3 0.538 0.279 1.146 0.642 1.278 0.784 2.293 1.879 3.21 3.048 0.294 0.228 0.399 0.717 0.726 0.891 0.138 0.074 -0.205 -0.24 -0.331 -0.333 -0.082 -0.098 0.022 0.045 0.062 -0.043 0.219 -0.484 -0.402 0.251 0.082 -0.235 0.238 0.019 0.89 -0.78 0.626 -0.553 -0.429 0.501 -0.306 1.121 -0.051 1.658 0.07 0.09 0.168 0.164 0.21 0.27 0.019 0.048 -0.088 -0.056 -0.134 -0.078 -0.028 -0.013 -0.059 -0.018 -0.089 -0.027 -0.135 -0.072 -0.267 -0.148 -0.404 -0.216 -0.981 -0.491 1.042 0.601 -0.88 -0.458 -0.488 -0.187 -0.919 -0.618 -1.431 -0.707 -0.764 -0.303 -1.566 -0.467 -2.343 -0.732 -0.903 -0.174 -1.764 -0.429 -2.624 -0.76 -1.587 -0.794 -2.812 -1.672 -3.928 -3.06 -0.16 -0.282 -0.32 -0.564 -0.48 -0.846 -2.11 -4.154 3.764 -7.138 5.874 -2.984 c -0.029 -0.025 -0.058 -0.049 -0.087 -0.074 -0.025 -0.01 -0.056 -0.049 -0.075 -0.031 -0.09 0.088 0.168 0.191 0.272 0.263 0.332 0.231 0.682 0.436 1.01 0.672 0.664 0.24 1.459 0.35 2.169 0.585 0.741 0.254 1.519 0.394 2.248 0.7 0.933 0.327 1.795 0.782 2.662 1.251 1.064 0.7 2.366 1.037 3.174 2.114 0.212 0.309 0.458 0.597 0.635 0.927 0.836 1.56 0.72 3.376 -0.075 4.917 -0.832 1.268 -1.875 2.356 -3.264 3.03 -1.845 0.875 -3.562 1.254 -5.549 0.558 -1.455 -0.648 -2.329 -1.425 -3.241 -2.699 -0.388 -0.547 -0.852 -1.047 -1.408 -1.424 -1.104 -0.713 -2.424 -1.097 -3.161 -2.292 -0.561 -0.868 -0.981 -1.786 -1.306 -2.766 -0.397 -1.123 -0.761 -2.272 -0.989 -3.442 -0.356 -1.956 -0.455 -3.916 -0.048 -5.879 0.4 -2.111 0.983 -4.177 1.764 -6.181 0.603 -1.669 1.037 -3.395 1.748 -5.02 0.674 -1.68 1.381 -3.402 2.617 -4.756 3.294 -3.294 7.953 1.365 4.659 4.659 z"/><path d="m 60.836 100.33 c -0.136 1.245 -0.286 2.485 -0.367 3.736 -0.062 1.088 -0.069 2.178 -0.075 3.268 -0.002 0.92 0 1.84 0.001 2.76 0.001 0.878 0.001 1.757 0.001 2.635 0.001 4.659 -6.588 4.66 -6.589 0.001 c 0 -0.876 0 -1.752 -0.001 -2.629 -0.001 -0.933 -0.003 -1.867 0 -2.8 0.006 -1.221 0.016 -2.442 0.088 -3.661 0.072 -1.099 0.146 -2.261 0.353 -3.31 0 -4.659 6.589 -4.659 6.589 0 z"/><path d="m 70.66 122.07 c -0.481 1.291 -0.979 2.574 -1.494 3.852 -0.33 0.891 -0.729 1.75 -1.035 2.65 -0.433 1 -0.691 2.063 -1.023 3.1 -0.349 1.063 -0.703 2.123 -1.05 3.187 -0.376 1.048 -0.714 2.107 -1.184 3.117 -0.49 0.967 -1.051 1.899 -1.679 2.783 -0.339 0.579 -0.738 1.123 -1.124 1.676 0.015 -0.012 0.054 -0.05 0.044 -0.035 -0.261 0.433 -0.528 0.802 -0.827 1.212 -0.125 0.171 -0.136 0.174 -0.049 0.099 -0.444 0.726 -0.952 1.41 -1.48 2.078 -0.601 0.607 -1.18 1.217 -1.593 1.73 -0.147 0.451 -0.823 1.398 -1.251 1.964 -0.596 0.783 -1.127 1.601 -1.644 2.436 -0.369 0.885 -0.593 1.84 -0.798 2.778 -0.192 1.07 -0.212 2.16 -0.232 3.244 -0.015 1.38 -0.009 2.759 -0.006 4.139 0.003 1.277 0.004 2.554 0.004 3.831 0 1.22 0 2.439 0 3.659 0 0.966 0 1.932 0 2.899 0 0.441 0 0.883 0 1.324 0 4.659 -6.589 4.659 -6.589 0 c 0 -0.441 0 -0.883 0 -1.324 0 -0.966 0 -1.932 0 -2.898 0 -1.219 0 -2.437 0 -3.656 -0.001 -1.274 -0.002 -2.547 -0.004 -3.821 -0.003 -1.425 -0.009 -2.851 0.007 -4.276 0.029 -1.525 0.081 -3.057 0.389 -4.557 0.374 -1.651 0.786 -3.331 1.628 -4.813 0.632 -1.02 1.293 -2.01 2.02 -2.973 0.528 -0.67 0.867 -1.445 1.38 -2.127 0.478 -0.559 0.946 -1.214 1.535 -1.659 0.388 -0.482 0.608 -0.776 0.88 -1.182 0.497 -0.829 0.759 -1.08 1.243 -1.923 0.372 -0.509 0.767 -1.103 1.184 -1.758 0.379 -0.328 0.753 -1.293 1.044 -1.741 0.424 -0.691 0.515 -1.566 0.851 -2.302 0.359 -1.04 0.686 -2.094 1.034 -3.137 0.36 -1.092 0.62 -2.219 1.082 -3.275 0.355 -0.98 0.761 -1.938 1.134 -2.911 0.465 -1.152 0.918 -2.308 1.354 -3.47 1.473 -4.42 7.724 -2.336 6.251 2.084 z"/></g><path d="m 209.91 880.48 c 0.164 2.067 -0.459 4.073 -1.291 6.05 -0.468 1.434 -1.038 2.844 -1.609 4.261 -0.5 1.448 -1.311 2.854 -2.239 4.198 -0.477 1.239 -1.231 2.417 -2.047 3.571 -0.955 1.766 -2.573 3.304 -4.151 4.831 -0.629 0.803 -1.237 1.627 -1.521 2.522 -0.635 1.431 -1.415 2.836 -1.965 4.284 -0.598 1.097 -1.251 2.154 -1.449 3.318 -0.157 1.197 -0.152 2.4 -0.158 3.601 0.027 1.7 0.05 3.388 -0.192 5.08 -0.286 1.532 -0.976 2.988 -1.627 4.459 -0.028 0.092 -0.056 0.184 -0.085 0.275 -2.769 7.643 -18.71 4.988 -15.94 -2.656 c 0.116 -0.305 0.231 -0.611 0.347 -0.916 0.522 -1.123 0.747 -1.371 1.036 -2.638 0.192 0.325 0.057 0.13 0.054 -0.646 -0.001 -0.747 -0.004 -1.494 -0.008 -2.241 0 -0.253 0 -0.507 0 -0.76 0.01 -1.697 0.017 -3.4 0.314 -5.088 0.35 -1.609 0.837 -3.226 1.867 -4.707 0.58 -1.413 1.269 -2.801 1.93 -4.195 0.878 -2.151 2.148 -4.217 3.961 -6.089 1.071 -1.033 2.202 -2.029 2.786 -3.25 0.758 -1.072 1.308 -2.287 1.98 -3.476 0.451 -0.653 1.018 -1.485 1.293 -2.467 0.601 -1.446 1.144 -2.884 1.647 -4.351 0.424 -0.99 0.832 -1.918 0.651 -2.969 0 -7.871 16.415 -7.871 16.415 0 z"/><g transform="matrix(0.89922 0 0 0.85431 11.601 812.8)"><path d="m 68.33 146.31 c -0.234 0.199 -0.472 0.395 -0.703 0.598 -0.471 0.416 -2.025 1.642 -1.358 1.271 -0.768 0.92 -1.355 1.975 -2.062 2.948 -0.838 1.083 -1.571 2.223 -2.165 3.456 -0.595 1.065 -1.182 2.154 -1.566 3.316 -0.546 1.692 -1.249 3.337 -1.772 5.04 -0.403 1.35 -0.766 2.683 -0.913 4.085 -0.142 1.625 -0.147 3.257 -0.155 4.887 -0.002 1.757 0.003 3.513 0.005 5.27 -0.011 1.167 0.254 2.317 0.393 3.475 0.172 1.484 0.212 2.97 0.087 4.457 -0.208 1.175 -0.419 2.345 -0.679 3.51 -0.251 1.116 -0.306 2.258 -0.346 3.396 -0.04 1.515 -0.037 3.03 -0.036 4.546 -0.032 0.365 -0.064 0.73 -0.096 1.096 -0.692 6.106 -9.327 5.127 -8.635 -0.979 c 0.014 -0.038 0.027 -0.076 0.041 -0.113 -0.001 -1.625 -0.004 -3.25 0.042 -4.874 0.064 -1.668 0.177 -3.338 0.55 -4.97 0.2 -0.889 0.354 -1.781 0.534 -2.676 0.077 0.277 0.035 0.162 0.021 -0.414 -0.012 -0.492 -0.031 -0.985 -0.07 -1.476 -0.012 -0.159 -0.029 -0.319 -0.043 -0.478 -0.174 -1.492 -0.508 -2.974 -0.453 -4.485 -0.003 -1.776 -0.008 -3.552 -0.005 -5.329 0.01 -1.942 0.022 -3.888 0.21 -5.823 0.233 -1.959 0.684 -3.853 1.266 -5.737 0.581 -1.793 1.28 -3.545 1.872 -5.334 0.541 -1.461 1.169 -2.897 1.96 -4.242 0.837 -1.666 1.796 -3.257 2.94 -4.732 0.825 -1.115 1.473 -2.355 2.406 -3.387 0.796 -0.869 1.694 -1.75 2.585 -2.442 4.345 -4.345 10.49 1.8 6.145 6.145 z"/><path d="m 54.747 139.25 c 0.01 -0.017 0.025 -0.07 0.031 -0.051 0.161 0.477 0.208 0.985 0.312 1.477 0.273 1.292 0.592 2.572 0.916 3.851 1.089 3.688 2.054 7.411 3.136 11.1 0.93 3.251 1.972 6.472 2.818 9.746 0.387 1.628 0.68 3.302 1.337 4.85 0.189 0.414 0.53 1.544 0.957 1.623 -0.639 -0.66 -1.56 -0.559 -0.118 -0.614 0.174 -0.007 0.347 -0.014 0.521 -0.021 0.585 -0.023 1.17 -0.042 1.755 -0.055 0.621 -0.013 0.784 0.073 0.54 -0.04 2.01 -0.52 3.96 0.04 5.758 0.936 1.961 1.139 3.475 2.72 4.634 4.651 1.246 2.37 0.972 4.826 0.074 7.233 -0.598 1.299 -1.396 2.495 -2.231 3.652 -0.631 0.935 -1.342 1.808 -2.02 2.707 -0.391 0.722 -1.745 1.823 -2.01 2.516 -1.043 1.605 -2.508 2.818 -4.04 3.933 -0.524 0.351 -1.194 0.966 -1.43 1.464 0.023 -0.019 0.079 -0.085 0.068 -0.057 -0.394 0.958 -0.931 1.84 -1.443 2.736 -0.746 1.376 -1.604 2.623 -2.711 3.731 -2.086 1.126 -2.924 2.049 -5.822 0.22 -0.958 -0.604 -1.355 -1.857 -1.723 -2.928 -0.418 -1.218 0.324 -2.971 0.714 -4.123 0.639 -2.109 1.262 -4.223 2.02 -6.293 0.414 -1.229 0.864 -2.448 1.251 -3.685 0.452 -1.137 0.967 -2.241 1.577 -3.302 1.109 -1.514 2.623 -2.604 4.159 -3.644 0.765 -0.62 1.68 -1.071 2.403 -1.75 0.864 -0.636 1.749 -1.215 2.553 -1.804 -0.952 0.905 0.379 -0.609 -0.057 -0.12 2.806 -5.467 10.537 -1.499 7.731 3.968 c -0.678 1.205 -1.466 2.337 -2.578 3.191 -0.699 0.489 -1.384 1.01 -2.1 1.454 -1.012 0.814 -2.079 1.542 -3.131 2.293 -0.346 0.223 -0.748 0.46 -1.055 0.705 -0.233 0.186 -1.211 1.234 -0.435 0.114 -0.34 0.536 -0.507 1.022 -0.802 1.581 -0.445 1.345 -0.903 2.682 -1.368 4.02 -0.754 2 -1.305 4.073 -1.954 6.11 -0.072 0.202 -0.143 0.405 -0.217 0.607 -0.026 0.07 -0.071 0.279 -0.084 0.206 -0.067 -0.362 0.079 -0.771 -0.081 -1.103 -0.428 -0.89 -0.773 -1.993 -1.638 -2.47 -2.821 -1.558 -3.321 -0.871 -5.11 0.236 -0.924 1.161 1.051 -1.478 0.936 -1.563 0.523 -0.898 1.031 -1.792 1.423 -2.76 1 -1.578 2.237 -3 3.797 -4.063 0.721 -0.522 1.467 -1.013 1.953 -1.779 0.737 -1.03 1.544 -2 2.345 -2.982 0.633 -0.802 1.259 -1.605 1.832 -2.455 0.507 -0.701 1.073 -1.508 1.274 -1.957 -0.001 0.377 -0.013 -0.101 0.08 -0.14 0.063 -0.027 0.057 0.904 0.258 0.536 -0.013 -0.566 -0.868 -0.872 -1.191 -1.248 0.406 -0.07 0.765 -0.193 -0.312 0.018 -1.265 0.147 -2.531 0.163 -3.803 0.208 -2.088 0.072 -4.102 -0.087 -5.82 -1.446 -1.533 -1.408 -2.727 -3.041 -3.406 -5.03 -0.741 -1.914 -1.276 -3.893 -1.681 -5.905 -0.81 -3.182 -1.848 -6.303 -2.74 -9.462 -1.113 -3.797 -2.109 -7.625 -3.223 -11.421 -0.614 -2.44 -1.261 -4.897 -1.523 -7.403 0 -6.145 8.69 -6.145 8.69 0 z"/><path d="m 59.16 194.62 c 1.115 -0.617 2.204 -1.18 2.991 -2.204 1.182 -1.393 2.183 -2.905 3.165 -4.438 0.455 -0.769 0.717 -1.632 1.055 -2.46 0.314 -1.126 1.107 -2.044 1.511 -3.125 0.372 -0.866 0.636 -1.772 0.949 -2.661 0.37 -1.085 1.07 -2 1.595 -3.01 0.323 -0.663 0.416 -1.391 0.484 -2.116 0.237 -1.645 0.673 -3.254 1.167 -4.838 0.533 -1.725 0.97 -3.478 1.556 -5.186 0.097 -0.265 0.195 -0.529 0.292 -0.794 2.122 -5.767 10.278 -2.765 8.155 3 c -0.084 0.228 -0.168 0.456 -0.252 0.683 -0.602 1.615 -0.922 3.326 -1.478 4.958 -0.347 1.01 -0.582 2.054 -0.798 3.095 -0.205 1.826 -0.586 3.627 -1.449 5.268 -0.451 0.843 -1.103 1.814 -1.152 2.031 -0.313 0.999 -0.723 2.025 -1.099 3.03 -0.457 1.013 -1.051 1.952 -1.452 2.985 -0.551 1.299 -0.975 2.662 -1.777 3.84 -1.238 1.909 -2.496 3.799 -3.991 5.524 -0.41 0.437 -0.793 0.9 -1.229 1.311 -1.279 1.208 -2.84 2.02 -4.357 2.876 -5.496 2.748 -9.382 -5.02 -3.886 -7.773 z"/><path d="m 55.649 194.79 c 0.93 -0.958 1.691 -2.085 2.383 -3.223 0.631 -1.209 1.107 -2.473 1.596 -3.743 0.376 -1.159 1.028 -2.241 1.266 -3.441 0.44 -1.413 0.885 -2.825 1.356 -4.228 0.381 -1.345 0.771 -2.658 1.366 -3.927 0.486 -0.792 0.907 -1.598 1.265 -2.455 0.236 -0.897 0.335 -1.826 0.494 -2.741 0.384 -1.448 0.739 -2.904 1.248 -4.314 0.124 -0.402 0.077 -0.215 0.152 -0.561 1.508 -5.957 9.932 -3.824 8.424 2.133 c -0.254 0.962 -0.118 0.501 -0.404 1.384 -0.34 0.935 -0.539 1.91 -0.86 2.856 -0.277 1.58 -0.44 3.195 -1.075 4.686 -0.455 1.039 -0.941 2.062 -1.537 3.03 0.01 -0.053 0.052 -0.208 0.031 -0.158 -0.306 0.707 -0.429 1.477 -0.658 2.211 -0.071 0.226 -0.15 0.449 -0.224 0.674 -0.411 1.161 -0.737 2.352 -1.146 3.515 -0.407 1.537 -0.999 2.999 -1.592 4.472 -0.685 1.769 -1.378 3.53 -2.314 5.187 -1.063 1.696 -2.207 3.372 -3.627 4.793 -4.345 4.345 -10.49 -1.8 -6.145 -6.145 z"/><path d="m 55.24 184.75 c -0.074 0.071 -0.194 0.313 -0.221 0.214 -0.047 -0.168 0.101 -0.335 0.139 -0.505 0.059 -0.263 0.105 -0.528 0.15 -0.794 0.214 -1.279 0.411 -2.563 0.619 -3.843 0.215 -2.051 0.671 -4.05 1.173 -6.05 0.586 -2.031 1.1 -4.072 1.924 -6.02 0.732 -1.515 1.796 -2.843 2.381 -4.427 0.259 -0.624 0.6 -1.218 0.752 -1.88 1.688 -5.908 10.04 -3.521 8.356 2.387 c -0.278 0.923 -0.588 1.834 -1.029 2.695 -0.676 1.655 -1.521 3.214 -2.5 4.711 -0.705 1.474 -0.919 3.127 -1.458 4.662 -0.443 1.755 -0.848 3.509 -1.023 5.318 -0.486 2.981 -0.723 6.101 -2.312 8.745 -3.687 4.916 -10.639 -0.298 -6.952 -5.214 z"/><path d="m 75.35 184.36 c 0.836 -0.705 1.531 -1.494 2.327 -2.261 -0.366 0.183 -0.398 0.62 -0.353 -0.046 -0.016 0.058 -0.004 0.213 -0.049 0.173 -0.155 -0.138 -0.34 -2.435 -0.37 -2.74 -0.114 -1.288 -0.13 -2.582 -0.14 -3.874 -0.005 -1.172 -0.002 -2.343 -0.001 -3.515 0.001 -0.772 0 -0.386 0.001 -1.157 0.005 -6.145 8.695 -6.138 8.69 0.006 c -0.001 0.773 0 0.387 -0.001 1.16 -0.001 1.147 -0.004 2.293 0.001 3.44 0.008 1.032 0.015 2.064 0.099 3.093 0.136 1.429 0.479 2.837 0.417 4.28 -0.229 2.06 -0.801 4.01 -2.331 5.5 -0.722 0.674 -1.427 1.466 -2.145 2.084 -4.345 4.345 -10.49 -1.8 -6.145 -6.145 z"/></g></g><path d="m 87.34 929.87 c 0 -1.688 0.93 3.046 2.924 0.385 1.025 -1.368 -5.84 -2.531 -2.879 -5.966 2.634 -3.057 0.859 -1.565 -0.266 -2.323 -2.741 -1.848 -1.967 -9.767 -1.938 -13.861 0.028 -4 0.276 -6.484 3.725 -13.505 3.369 -6.858 5.389 -7.46 4.426 -9.409 -0.885 -1.792 4.396 -6.694 6.732 -6.732 1.913 -0.03 -1.879 0.787 4.78 -2.982 7.07 -4 18.04 -6.609 21.03 -7.03 2.648 -0.37 5.606 0.75 7.497 3.509 1.546 2.256 1.075 0.546 3.154 0.556 1.429 0.007 1.053 1.361 1.93 -0.154 1.414 -2.441 3.845 -4.532 7.879 -5.501 4.331 -1.04 18.09 0.633 23.297 1.658 10 1.971 17.845 8.352 18.854 12.448 0.507 2.057 -4.255 6.272 -8.743 11.235 -4.273 4.724 -11.356 11.08 -12.35 11.08 -0.356 0 -1.876 -0.996 -3.377 -2.214 -1.501 -1.218 -2.729 -2.036 -2.729 -1.819 0 0.217 -0.849 -0.737 -1.886 -2.121 -1.037 -1.384 -2.115 -2.516 -2.394 -2.516 -0.279 0 -0.508 -0.344 -0.508 -0.764 0 -1.272 -4.298 -6.622 -5.528 -7.753 -0.951 -0.874 -2.783 -3.301 -6.368 -3.263 -6.12 0.066 -8.07 0.921 -10.717 3.799 -1.627 1.771 -4.077 2.668 -5.235 2.668 -4.223 0 -13.01 8.433 -28.356 28.417 -6.86 8.934 -11.652 13.201 -12.503 13.201 -0.248 0 -0.451 -0.472 -0.451 -1.049 z" style="fill:#ff4500"/></g></g><path d="m 123.36 993.95 c -14.777 -8.922 -25.22 -28.3 -24.382 -45.26 0.363 -7.378 0.367 -7.383 5.172 -9.09 6.288 -2.232 39.01 -4.648 47.5 -3.507 9.818 1.32 10.206 1.766 8.313 9.54 -2.06 8.461 -0.185 16.867 6.182 27.713 1.645 2.802 1.388 3.271 -5.614 10.234 -14.176 14.1 -25.676 17.304 -37.17 10.367 z m 4.467 -18.747 c 1.659 -3.632 3.29 -4.281 16.434 -6.54 8.412 -1.445 14.391 -4.658 12.458 -6.693 -0.778 -0.819 -6.083 -0.303 -15.456 1.502 -7.849 1.512 -15.895 2.847 -17.878 2.966 -3.365 0.203 -3.579 0.513 -3.194 4.626 0.739 7.902 4.891 10.152 7.637 4.138 z m -10.247 -9.4 c 2.842 -4.281 2.374 -8.141 -1.275 -10.515 -1.586 -1.032 -2.493 -0.736 -4.091 1.338 -1.129 1.465 -3 3.01 -4.157 3.44 -2.732 1.01 -2.653 2.31 0.388 6.379 3.265 4.37 5.933 4.182 9.135 -0.642 z" style="fill:#ff4500;opacity:0.99"/><g style="fill-opacity:0"><g transform="translate(0 796.36)"><path d="m 193.33 71.29 c -5.679 -1.37 -9.441 -2.53 -8.36 -2.577 1.081 -0.048 1.664 -0.576 1.295 -1.173 -0.429 -0.694 2.887 -1.087 9.175 -1.087 h 9.847 v 3.804 c 0 2.092 -0.367 3.741 -0.815 3.664 -0.448 -0.077 -5.462 -1.261 -11.141 -2.631 z" style="opacity:0.99"/><path d="m 157.94 68.12 c -1.922 -1.454 -1.445 -1.599 5.36 -1.63 6.519 -0.03 7.298 0.173 6.117 1.596 -1.736 2.092 -8.729 2.113 -11.477 0.035 z" style="opacity:0.99"/><path d="m 121.59 71.891 c 0 -0.598 -0.978 -2.065 -2.174 -3.261 -2.174 -2.174 -2.174 -2.174 7.434 -2.174 9.08 0 9.674 0.144 10.791 2.597 1.086 2.383 0.91 2.652 -2.135 3.261 -5.208 1.042 -13.916 0.777 -13.916 -0.423 z" style="opacity:0.99"/><path d="m 201.48 59.861 c -9.44 -2.545 -12.322 -2.598 -14.886 -0.278 -1.367 1.237 -2.369 1.467 -3.121 0.715 -1.422 -1.422 0.719 -3.27 4.42 -3.817 1.495 -0.221 2.595 -1 2.446 -1.735 -0.2 -0.982 2.591 -1.333 10.598 -1.333 h 10.87 v 4.348 c 0 4.988 0.22 4.943 -10.326 2.101 z" style="opacity:0.99"/><path d="m 163.32 57.6 c -2.864 -0.508 -5.345 -1.454 -5.345 -2.037 0 -0.224 -0.356 -0.763 -0.792 -1.198 -0.72 -0.72 0.047 -0.788 8.439 -0.752 5.077 0.022 8.891 0.163 8.475 0.313 -0.416 0.15 -1.577 1.057 -2.581 2.01 -2.054 1.961 -4.131 2.381 -8.197 1.66 z" style="opacity:0.99"/><path d="m 118.9 61.32 c -1.38 -4.238 -2.789 -6.03 -5.504 -6.989 -1.83 -0.648 -0.79 -0.713 11.336 -0.704 8.469 0.006 12.937 0.176 12.218 0.465 -1.463 0.588 -1.423 1.457 0.135 2.934 2.832 2.686 1.429 3.494 -7.115 4.094 -3.85 0.271 -7.847 0.639 -8.881 0.819 -1.564 0.272 -1.932 0.168 -2.188 -0.619 z" style="opacity:0.99"/><path d="m 112.76 53.2 c 5.196 -0.082 13.697 -0.082 18.893 0 5.196 0.082 0.945 0.149 -9.447 0.149 -10.391 0 -14.642 -0.067 -9.447 -0.149 z" style="opacity:0.99"/><path d="m 50.667 192.62 v -7.973 l 1.553 0.775 c 5.061 2.525 15.06 -4.644 11.168 -8.01 -2.077 -1.796 -10.478 -3.147 -11.954 -1.922 -0.671 0.557 -0.767 0.291 -0.767 -2.127 v -2.764 l 2.141 0.654 c 1.178 0.359 3.703 1.135 5.612 1.723 1.909 0.588 4.285 1.624 5.281 2.3 2.106 1.431 3.084 1.519 5.128 0.462 2.584 -1.336 1.825 -4.773 -1.055 -4.773 -0.732 0 -2.671 -0.474 -4.308 -1.054 -4.356 -1.543 -8.228 -2.434 -10.659 -2.455 l -2.141 -0.018 v -7.03 c 0 -6.666 0.06 -7.091 1.16 -8.19 1.567 -1.567 7.549 -13.423 9.106 -18.05 0.691 -2.051 1.61 -3.988 2.044 -4.305 0.434 -0.317 1.482 -2.106 2.33 -3.976 0.848 -1.87 1.633 -3.308 1.745 -3.196 0.385 0.385 -1.221 4.935 -3.797 10.753 -2.27 5.127 -2.571 6.202 -2.506 8.951 0.119 5.056 0.085 5.186 -2.063 7.903 -2.876 3.638 -3.965 6.283 -3.978 9.661 -0.01 2.528 0.153 2.99 1.433 4.068 0.794 0.668 3.345 1.856 5.668 2.639 3.413 1.15 5.245 1.446 9.546 1.539 5.953 0.129 7.465 0.653 9.902 3.428 4.05 4.613 1.821 10.342 -4.954 12.731 -1.693 0.597 -3.476 1.736 -4.741 3.03 -1.116 1.139 -2.551 2.237 -3.19 2.44 -0.66 0.209 -2 1.708 -3.106 3.47 -3.628 5.788 -3.729 5.873 -7 5.873 -1.597 0 -3.961 0.318 -5.252 0.706 l -2.347 0.706 v -7.973 z m 17.276 -5.086 c 4.081 -2.051 4.797 -3.351 2.629 -4.771 -1.666 -1.091 -3.312 -0.63 -5.81 1.627 -2.553 2.307 -2.766 4.211 -0.471 4.211 0.842 0 2.486 -0.48 3.653 -1.066 z" style="opacity:0.99"/><path d="m 50.667 139.88 c 0 -4.406 0.11 -5.067 0.83 -5.01 1.407 0.119 8.098 -13.506 9.849 -20.06 0.697 -2.605 0.392 -3.159 -2.588 -4.709 -2.099 -1.092 -3.301 -3.08 -2.878 -4.763 0.485 -1.933 1.728 -2.106 3.713 -0.515 3.339 2.676 4.04 2.978 5.223 2.241 0.585 -0.365 1.157 -0.57 1.272 -0.455 0.533 0.533 -2.709 9.816 -7.094 20.312 -2.652 6.348 -4.957 12.374 -5.122 13.392 -0.178 1.101 -0.888 2.415 -1.753 3.243 l -1.453 1.392 v -5.076 z" style="opacity:0.99"/><path d="m 50.667,86.85 c 0,-2.419 0.08,-2.632 0.677,-1.815 0.796,1.089 2.723,0.791 4.894,-0.755 2.338,-1.665 3.989,-2.108 4.35,-1.167 0.435,1.133 -1.26,4.086 -3.189,5.558 -1.311,1 -2.086,1.2 -4.171,1.074 L 50.667,89.591 V 86.85 z" style="opacity:0.99"/><path d="m 206.11 89.87 c -0.675 -1.092 0.257 -3.055 2.769 -5.829 l 2.508 -2.769 v 4.288 c 0 3.857 -0.095 4.288 -0.945 4.288 -0.52 0 -1.626 0.136 -2.458 0.303 -0.914 0.183 -1.656 0.072 -1.874 -0.281 z" style="opacity:0.99"/><path d="m 76.865 97.02 c 0 -1.218 -0.798 -1.94 -2.661 -2.408 -1.956 -0.491 -2.343 -1.536 -1.813 -4.894 0.51 -3.233 2.252 -8.252 3.03 -8.733 0.917 -0.567 7.223 -1.732 7.927 -1.465 0.536 0.204 0.644 1.296 0.482 4.915 -0.173 3.898 -0.432 5.062 -1.596 7.172 -1.399 2.536 -2.905 4.452 -4.504 5.73 -0.76 0.607 -0.865 0.569 -0.865 -0.316 z" style="opacity:0.99"/><path d="m 211.33,110.34 c -0.134,-4.388 -0.307,-6.03 -0.73,-6.917 -0.533,-1.123 -0.523,-1.254 0.282,-3.5 l 0.836,-2.333 0.012,9.25 c 0.007,5.088 -0.041,9.25 -0.106,9.25 -0.065,0 -0.198,-2.588 -0.295,-5.75 z" style="opacity:0.99"/><path d="m 136.47 53.17 c 1.595 -0.061 4.295 -0.061 6 -0.001 1.705 0.061 0.4 0.111 -2.9 0.111 -3.3 0 -4.695 -0.049 -3.1 -0.11 z" style="opacity:0.99"/><path d="m 50.22,102.02 -0.033,-6.808 0.417,1.208 c 0.279,0.809 0.679,1.428 1.209,1.874 l 0.793,0.666 -0.627,0.464 c -0.465,0.344 -0.692,0.769 -0.877,1.64 -0.276,1.299 -0.679,4.68 -0.781,6.556 -0.036,0.664 -0.081,-1.856 -0.099,-5.6 z" style="opacity:0.99"/><path d="m 50.18 159.76 c 0.005 -6.314 0.067 -8.227 0.255 -7.895 0.137 0.242 0.381 0.519 0.544 0.616 0.24 0.144 0.244 0.266 0.019 0.659 -0.201 0.352 -0.294 2.378 -0.344 7.51 -0.039 3.99 -0.157 7.117 -0.274 7.236 -0.129 0.13 -0.204 -2.923 -0.2 -8.125 z" style="opacity:0.99"/><path d="m 50.22 138.36 c 0.007 -6.125 0.069 -8.501 0.189 -7.247 0.098 1.027 0.282 2.28 0.409 2.786 0.155 0.62 0.159 1.108 0.011 1.497 -0.304 0.799 -0.292 9.552 0.013 9.552 0.128 0 0.164 0.111 0.08 0.247 -0.084 0.136 -0.278 0.704 -0.433 1.263 -0.239 0.865 -0.279 -0.337 -0.27 -8.097 z" style="opacity:0.99"/><path d="m 50.22 85.33 c 0.011 -4.267 0.057 -5.123 0.204 -3.843 0.104 0.906 0.29 1.937 0.413 2.291 0.155 0.448 0.152 0.688 -0.011 0.789 -0.147 0.091 -0.223 1.078 -0.203 2.65 0.017 1.378 -0.07 2.752 -0.194 3.054 -0.162 0.395 -0.221 -0.993 -0.211 -4.941 z" style="opacity:0.99"/><path d="m 50.21 192.82 c -0.008 -9.223 0.034 -10.72 0.274 -9.882 0.156 0.544 0.363 1.177 0.462 1.409 0.127 0.298 0.104 0.374 -0.078 0.262 -0.194 -0.12 -0.257 1.827 -0.257 8 0 7.165 0.04 8.146 0.329 8.04 0.416 -0.16 0.415 -0.035 -0.007 0.608 -0.185 0.282 -0.421 0.946 -0.525 1.475 -0.116 0.593 -0.192 -3.212 -0.198 -9.908 z" style="opacity:0.99"/><path d="m 50.19 173.62 c -0.01 -2.72 0.057 -3.871 0.214 -3.714 0.302 0.302 0.326 6.39 0.028 7.107 -0.17 0.41 -0.232 -0.451 -0.242 -3.393 z" style="opacity:0.99"/><path d="m 112.3 54.1 c -0.473 -0.144 -3.082 -0.414 -5.203 -0.54 -0.967 -0.057 6.276 -0.106 16.1 -0.109 15.204 -0.004 17.656 0.021 16.499 0.17 -0.747 0.096 -1.615 0.244 -1.927 0.328 -0.406 0.109 -0.645 0.112 -0.838 0.009 -0.499 -0.267 -7.754 -0.437 -15.831 -0.372 -4.353 0.035 -8.02 0.111 -8.159 0.167 -0.134 0.057 -0.213 0.186 -0.173 0.288 0.079 0.205 0.035 0.21 -0.467 0.058 z" style="opacity:0.99"/><path d="m 156.43 53.996 c -0.253 -0.104 -0.983 -0.271 -1.623 -0.371 -1.02 -0.159 0.285 -0.18 10.538 -0.173 6.436 0.005 11.49 0.033 11.229 0.063 -0.556 0.064 -1.985 0.382 -2.356 0.525 -0.176 0.068 -0.229 0.051 -0.165 -0.052 0.06 -0.097 -0.091 -0.187 -0.417 -0.249 -0.683 -0.131 -15.835 -0.147 -16.296 -0.017 -0.199 0.056 -0.382 0.183 -0.406 0.282 -0.036 0.15 -0.123 0.148 -0.503 -0.008 z" style="opacity:0.99"/><path d="m 189.97 54.36 c -0.177 -0.177 -2.103 -0.661 -3.19 -0.802 -0.564 -0.073 0.619 -0.111 3.474 -0.11 3.02 0.001 3.99 0.034 3.208 0.11 -1.592 0.154 -2.531 0.371 -2.917 0.674 -0.387 0.304 -0.396 0.306 -0.575 0.128 z" style="opacity:0.99"/><path d="m 211.9 83.65 c 0 -4.762 0.017 -6.691 0.038 -4.286 0.021 2.405 0.021 6.301 0 8.659 -0.021 2.357 -0.038 0.389 -0.038 -4.373 z" style="opacity:0.99"/><path d="m 211.64 90.68 c -0.048 -0.191 -0.262 -0.447 -0.475 -0.57 -0.332 -0.191 -0.358 -0.244 -0.18 -0.374 0.114 -0.084 0.257 -0.451 0.317 -0.817 0.129 -0.788 0.164 -7.633 0.039 -7.633 -0.048 0 -0.173 0.107 -0.279 0.237 -0.137 0.168 -0.173 0.178 -0.124 0.034 0.46 -1.368 0.663 -2.161 0.753 -2.933 0.065 -0.563 0.114 1.677 0.125 5.74 0.01 3.665 -0.006 6.663 -0.035 6.663 -0.029 0 -0.092 -0.156 -0.14 -0.347 z" style="opacity:0.99"/><path d="m 211.67 124.61 c -0.041 -4.446 -0.031 -8.845 0.023 -9.775 0.058 -1 0.107 2.305 0.121 8.08 0.012 5.376 0.002 9.775 -0.023 9.775 -0.025 0 -0.079 -3.638 -0.121 -8.08 z" style="opacity:0.99"/><path d="m 202.12 224.73 c 0.796 -0.024 2.135 -0.024 2.976 0 0.841 0.024 0.19 0.043 -1.447 0.043 -1.637 0 -2.325 -0.019 -1.53 -0.043 z" style="opacity:0.99"/><path d="m 50.565,166.96 c -0.027,-0.205 -0.016,-1.042 0.026,-1.86 l 0.075,-1.488 0.027,1.86 c 0.025,1.772 -0.02,2.301 -0.127,1.488 z" style="opacity:0.99"/><path d="m 101.9 53.32 c 1.772 -0.021 4.634 -0.021 6.359 0 1.725 0.021 0.275 0.039 -3.222 0.039 -3.497 0 -4.909 -0.018 -3.136 -0.039 z" style="opacity:0.99"/><path d="m 107.6 53.52 c 0.081 -0.033 0.214 -0.033 0.294 0 0.081 0.033 0.015 0.059 -0.147 0.059 -0.162 0 -0.228 -0.027 -0.147 -0.059 z" style="opacity:0.99"/><path d="m 104.21 53.47 c -1.134 -0.035 1.013 -0.065 4.771 -0.068 3.758 -0.003 6.62 0.011 6.361 0.031 -0.949 0.071 -9.131 0.098 -11.132 0.037 z" style="opacity:0.99"/><path d="m 137.61 53.47 c -2.315 -0.062 -2.295 -0.063 1.168 -0.088 1.938 -0.014 3.502 -0.006 3.475 0.017 -0.108 0.095 -2.42 0.13 -4.643 0.071 z" style="opacity:0.99"/><path d="m 193.25 53.47 c -0.292 -0.039 0.318 -0.07 1.355 -0.069 1.873 0.002 1.922 0.047 0.118 0.107 -0.518 0.017 -1.181 0 -1.473 -0.039 z" style="opacity:0.99"/><path d="M 211.95,113.47 211.92,53.3 159.175,53.27 106.43,53.24 v -6.302 -6.302 h 53.63 53.63 l 1.19,1.62 c 4.918,6.694 10.408,14.938 14.688,22.06 15.673,26.07 24.267,50.29 26.06,73.45 0.264,3.401 0.354,9.832 0.184,13.02 -0.401,7.501 -1.484,14.326 -3.34,21.05 l -0.496,1.796 h -19.999 -19.999 l -0.03,-60.17 z" style="opacity:0.99"/><path d="m 124.15 53.42 c 1.093 -0.009 2.882 -0.009 3.975 0 1.093 0.009 0.199 0.016 -1.988 0.016 -2.186 0 -3.081 -0.007 -1.988 -0.016 z" style="opacity:0.99"/><path d="m 134.67 53.42 c 0.267 -0.011 0.705 -0.011 0.972 0 0.267 0.011 0.049 0.02 -0.486 0.02 -0.534 0 -0.753 -0.009 -0.486 -0.02 z" style="opacity:0.99"/><path d="m 58.14 62.47 c 0 2.306 0 4.612 0 6.918 0 2.148 0 4.297 0 6.445 0 2.026 0 4.052 0 6.077 0 2.223 0 4.447 0 6.67 0 2.152 0 4.303 0 6.455 0 2.029 0 4.057 0 6.086 0 2.117 0 4.233 0 6.35 0 2.816 0 5.632 0 8.449 0 2.458 0 4.915 0 7.373 0 2.326 0 4.653 0 6.979 0 2.08 0 4.159 0 6.239 0 2.02 0 4.04 0 6.06 0 2.062 0 4.123 0 6.185 0 2.525 0 5.05 0 7.576 0 2.526 0 5.05 0 7.579 0 2.304 0 4.609 0 6.913 0 2.044 0 4.088 0 6.132 0 2.02 0 4.04 0 6.06 0 2.02 0 4.04 0 6.07 0 2.02 0 4.04 0 6.067 0 2.02 0 4.04 0 6.067 0 2.02 0 4.04 0 6.067 0 2.02 0 4.04 0 6.067 0 2.02 0 4.04 0 6.067 0 1.01 0 2.02 0 3.03 0 10.724 -15.167 10.724 -15.167 0 0 -1.01 0 -2.02 0 -3.03 0 -2.02 0 -4.04 0 -6.067 0 -2.02 0 -4.04 0 -6.067 0 -2.02 0 -4.04 0 -6.067 0 -2.02 0 -4.04 0 -6.067 0 -2.02 0 -4.04 0 -6.067 0 -2.02 0 -4.04 0 -6.07 0 -2.02 0 -4.04 0 -6.06 0 -2.044 0 -4.088 0 -6.132 0 -2.304 0 -4.609 0 -6.913 0 -2.526 0 -5.05 0 -7.579 0 -2.525 0 -5.05 0 -7.576 0 -2.062 0 -4.123 0 -6.185 0 -2.02 0 -4.04 0 -6.06 0 -2.08 0 -4.159 0 -6.239 0 -2.326 0 -4.653 0 -6.979 0 -2.458 0 -4.915 0 -7.373 0 -2.816 0 -5.632 0 -8.449 0 -2.117 0 -4.233 0 -6.35 0 -2.029 0 -4.057 0 -6.086 0 -2.152 0 -4.303 0 -6.455 0 -2.223 0 -4.447 0 -6.67 0 -2.026 0 -4.052 0 -6.077 0 -2.148 0 -4.297 0 -6.445 0 -2.306 0 -4.612 0 -6.918 0 -10.724 15.167 -10.724 15.167 0 z" style="opacity:0.99"/></g><path d="m 61.827 842.83 c 2.261 0.303 4.456 0.948 6.695 1.368 1.688 0.292 3.401 0.344 5.109 0.381 1.36 0.015 3.143 0.092 4.051 -0.127 2.096 -0.497 4.238 -0.688 6.382 -0.803 1.501 -0.103 3.389 0.04 4.523 -0.226 1.765 -0.245 2.803 -0.551 4.339 -0.985 1.211 -0.203 1.38 -0.476 2.716 -0.874 1.205 -0.359 1.699 -0.278 1.156 -0.352 2.182 -0.96 4.523 -1.33 6.871 -1.548 2.149 -0.152 4.305 -0.145 6.458 -0.147 1.99 0.002 3.98 0.007 5.97 0.009 1.98 0.002 3.961 0.002 5.941 0.002 1.218 -0.001 2.662 -0.435 4.202 -0.66 -0.048 -0.008 -0.188 -0.002 -0.144 -0.023 1.52 -0.75 3.516 -0.892 5.163 -1.102 2.19 -0.225 4.394 -0.235 6.593 -0.246 1.999 -0.004 3.998 0.002 5.997 0.005 1.98 0.003 3.961 0.003 5.941 0.003 1.982 0 3.964 0 5.946 0 1.982 0 3.964 0 5.947 0 1.982 0 3.964 0 5.947 0 1.982 0 3.964 0 5.947 0 1.982 0 3.964 0 5.947 0 1.982 0 3.964 0 5.947 0 2.404 -0.068 4.78 0.002 7.158 0.389 2.034 0.298 3.955 1.07 5.982 1.397 1.988 0.13 3.922 0.632 5.884 0.948 2.076 0.3 3.92 1.366 5.917 1.939 10.06 3.095 5.774 17.617 -4.291 14.521 -1.357 -0.429 -2.708 -0.905 -3.995 -1.487 -2.01 -0.336 -3.976 -0.823 -6.01 -0.969 -2 -0.36 -3.937 -0.943 -5.911 -1.384 -1.556 -0.28 -3.141 -0.182 -4.736 -0.187 -1.982 0 -3.964 0 -5.947 0 -1.982 0 -3.964 0 -5.947 0 -1.982 0 -3.964 0 -5.947 0 -1.982 0 -3.964 0 -5.947 0 -1.982 0 -3.964 0 -5.947 0 -1.983 0 -3.965 0 -5.948 0 -1.986 0 -3.973 -0.001 -5.959 -0.003 -1.969 -0.003 -3.937 -0.008 -5.906 -0.005 -1.641 0.008 -3.285 0.007 -4.921 0.141 -1.617 0.17 -3.123 0.729 -4.709 1.084 -2.084 0.28 -4.13 0.936 -6.255 0.805 -1.986 0 -3.972 0 -5.957 -0.002 -1.981 -0.002 -3.961 -0.007 -5.942 -0.009 -1.734 0.001 -3.469 -0.007 -5.201 0.092 -1 0.077 -1.972 0.159 -2.891 0.626 -1.713 0.599 -3.451 1.154 -5.189 1.663 -1.779 0.489 -3.552 0.963 -5.378 1.235 -2.21 0.425 -4.42 0.491 -6.663 0.496 -1.416 0.069 -2.831 0.177 -4.212 0.527 -2.419 0.468 -4.843 0.514 -7.299 0.42 -2.519 -0.058 -5.04 -0.177 -7.527 -0.638 -2.297 -0.446 -4.55 -1.077 -6.868 -1.403 -10.308 -2.103 -7.393 -16.975 2.916 -14.872 z" style="opacity:0.99"/><g transform="translate(0 796.36)"><path d="m 218.88 57.952 c 0.867 2.364 1.32 4.868 1.678 7.354 0.316 2.465 0.36 4.953 0.381 7.434 0.008 2.052 -0.001 4.104 -0.005 6.155 -0.004 2.02 -0.005 4.03 -0.005 6.05 0 2.02 0 4.04 0 6.06 0 2.02 0 4.045 0 6.067 0 2.02 0 4.04 0 6.067 0 2.02 0 4.04 0 6.067 0.469 1.719 0.623 3.577 0.795 5.356 0.187 2.239 0.207 4.487 0.221 6.732 0.006 2.04 0.001 4.08 -0.001 6.12 -0.002 2.02 -0.003 4.04 -0.003 6.06 0 2.02 0 4.04 0 6.07 0 2.02 0 4.04 0 6.067 0 2.02 0 4.04 0 6.067 0 2.02 0 4.04 0 6.067 0 2.02 0 4.04 0 6.067 0 2.02 0 4.04 0 6.067 0 2.02 0 4.04 0 6.067 0 2.02 0 4.04 0 6.067 0 2.02 0 4.04 0 6.067 0 2.02 0 4.04 0 6.067 0 2.02 0 4.04 0 6.067 0 1.01 0 2.02 0 3.03 0 10.724 -15.167 10.724 -15.167 0 0 -1.01 0 -2.02 0 -3.03 0 -2.02 0 -4.04 0 -6.067 0 -2.02 0 -4.04 0 -6.067 0 -2.02 0 -4.04 0 -6.067 0 -2.02 0 -4.04 0 -6.067 0 -2.02 0 -4.04 0 -6.067 0 -2.02 0 -4.04 0 -6.067 0 -2.02 0 -4.04 0 -6.067 0 -2.02 0 -4.04 0 -6.067 0 -2.02 0 -4.04 0 -6.067 0 -2.02 0 -4.04 0 -6.067 0 -2.023 0 -4.045 0 -6.068 0 -2.025 0.001 -4.049 0.003 -6.074 0.002 -2 0.007 -4.01 0.001 -6.01 -0.011 -1.801 -0.019 -3.604 -0.154 -5.401 -0.205 -2.272 -0.717 -4.498 -0.861 -6.777 0 -2.02 0 -4.04 0 -6.067 0 -2.02 0 -4.04 0 -6.067 0 -2.02 0 -4.04 0 -6.067 0 -2.023 0 -4.045 0 -6.068 0.001 -2.025 0.001 -4.05 0.005 -6.075 0.004 -2 0.012 -3.999 0.006 -5.999 -0.015 -1.82 -0.03 -3.645 -0.235 -5.456 -0.294 -2.213 -0.876 -4.351 -1.53 -6.483 -2.103 -10.516 12.769 -13.491 14.872 -2.974 z" style="opacity:0.99"/><path d="m 201.23 220.86 c 1.249 -0.031 2.487 -0.001 3.725 0.169 0.885 0.154 1.779 0.235 2.676 0.276 4.998 0.235 4.665 7.303 -0.332 7.07 -1.118 -0.054 -2.234 -0.151 -3.338 -0.338 -0.906 -0.136 -1.814 -0.105 -2.73 -0.099 -5 0 -5 -7.08 0 -7.08 z" style="opacity:0.99"/><path d="m 207.78 221.76 c 0 -1.076 0 -2.152 0 -3.228 -0.061 -1.176 0.053 -2.329 0.281 -3.481 0.132 -0.665 0.156 -1.345 0.177 -2.02 0.036 -0.285 0.073 -0.571 0.11 -0.856 0.801 -4.939 7.785 -3.805 6.984 1.133 -0.007 -0.015 -0.015 -0.03 -0.022 -0.046 -0.036 1.06 -0.097 2.122 -0.308 3.165 -0.037 0.188 -0.135 0.364 -0.146 0.556 -0.029 0.515 0.024 1.035 0 1.55 0 1.076 0 2.152 0 3.228 0 5 -7.08 5 -7.08 0 z" style="opacity:0.99"/><path d="m 56.32 228.41 c -1.076 0 -2.152 0 -3.228 0 -0.517 0 -1.033 0 -1.55 0 -5 0 -5 -7.08 0 -7.08 0.517 0 1.033 0 1.55 0 1.076 0 2.152 0 3.228 0 5 0 5 7.08 0 7.08 z" style="opacity:0.99"/></g></g></g></svg>