<svg xmlns="http://www.w3.org/2000/svg" viewBox="0 0 256 256"><defs><clipPath><path transform="matrix(15.33333 0 0 11.5 415 -125.5)" d="m -24 13 c 0 1.105 -0.672 2 -1.5 2 -0.828 0 -1.5 -0.895 -1.5 -2 0 -1.105 0.672 -2 1.5 -2 0.828 0 1.5 0.895 1.5 2 z"/></clipPath></defs><g transform="translate(3.523 -797.79)"><path d="m 60.23 1005.73 c -88.14 -67.851 24.775 -207.84 119.74 -158.24 89.47 46.731 33.06 188.91 -64.06 179.39 -20.263 -1.985 -39.496 -8.696 -55.674 -21.15 z" transform="matrix(1.30337 0 0 1.3455 -40.525 -328.49)" style="fill:#fff;color:#000"/><g transform="matrix(1.38223 0 0 1.4078 35.809 835.72)" style="fill:#ff4500"><path d="M 64.804,5.967 C 32.879,5.967 7,31.846 7,63.771 c 0,31.925 25.879,57.804 57.804,57.804 31.925,0 57.804,-25.879 57.804,-57.804 0,-31.925 -25.879,-57.804 -57.804,-57.804 z"/><path d="M 54.751,41.15 V 91.41 L 92.449,66.28 M 67.319,56.23 c 6.107,0.03 10.04,5.459 10.05,10.05 0,7.54 -7.54,10.05 -10.05,10.05 V 71.3 c 8.432,-0.844 5.675,-12.242 -2.513,-10.05 v 15.08 h -5.03 V 60.15 c 0,-1.375 2.513,-3.928 7.54,-3.928" style="opacity:0.1"/><path d="m 64.804 26.07 h 0.01 c 20.812 0 37.688 16.876 37.688 37.698 v 0.01 c 0 20.812 -16.876 37.688 -37.688 37.688 h -0.01 c -20.822 0 -37.698 -16.876 -37.698 -37.688 v -0.01 c 0 -20.822 16.876 -37.698 37.698 -37.698" style="fill:#ffdead;fill-rule:evenodd"/><path d="m 52.24 38.639 v 50.26 l 37.698 -25.13 m -25.13 -10.05 c 6.107 0.03 10.04 5.459 10.05 10.05 0 7.54 -7.54 10.05 -10.05 10.05 v -5.03 c 8.432 -0.844 5.675 -12.242 -2.513 -10.05 v 15.08 h -5.03 v -16.18 c 0 -1.375 2.513 -3.928 7.54 -3.928"/></g></g></svg>