<svg xmlns="http://www.w3.org/2000/svg" viewBox="0 0 256 256"><defs><clipPath><path transform="matrix(15.33333 0 0 11.5 415 -125.5)" d="m -24 13 c 0 1.105 -0.672 2 -1.5 2 -0.828 0 -1.5 -0.895 -1.5 -2 0 -1.105 0.672 -2 1.5 -2 0.828 0 1.5 0.895 1.5 2 z"/></clipPath></defs><g transform="matrix(1.71111 0 0 1.6629 -51.12 -634.24)" style="fill:#fff"><path d="m 84 456.36 v 30 c 0 18 3 18 30 18 h 6 c 27 0 30 0 30 -18 v -30 c 0 -18 -3 -18 -30 -18 h -6 c -27 0 -30 0 -30 18 z m 30 -12 h 6 c 24 0 24 0 24 12 v 21 c 0 12 0 12 -24 12 h -6 c -24 0 -24 0 -24 -12 v -21 c 0 -12 0 -12 24 -12 z"/><path d="m 96 477.91 v -11.636 l 10.5 -10.909 l 13.13 13.636 l 5.25 -5.454 l 13.13 13.636 v 0.727 c 0 5.455 -0.875 5.455 -10.5 5.455 h -21 c -9.625 0 -10.5 0 -10.5 -5.455 z"/><path d="m 78 34.5 a 4.5 4.5 0 1 1 -9 0 4.5 4.5 0 1 1 9 0 z" transform="matrix(1.3333 0 0 1.3333 34 410.36)" style="color:#000"/><path transform="translate(60 414.36)" d="M 42,12 C 15,12 12,12 12,30 v 30 c 0,9.758 0.891,14.235 6,16.281 V 51 36 30 C 18,19.134 18.181,18.128 36,18.031 V 18 h 6 6 28.531 C 73.886,12.002 66.718,12 48,12 h -6 z"/><path d="m 90 414.36 c -27 0 -30 0 -30 18 v 30 c 0 9.758 0.891 14.235 6 16.281 v -25.281 v -15 v -6 c 0 -10.866 0.181 -11.872 18 -11.969 v -0.031 h 6 h 6 h 28.531 c -2.646 -5.998 -9.813 -6 -28.531 -6 h -6 z"/></g><g transform="translate(1.085 -795.28)"><path d="m 44.46 1014.3 c -200.11 -265.25 350.59 -302.94 173.86 -32.17 -40.29 61.728 -120.86 102.43 -173.86 32.17 z" style="fill:#fff;color:#000"/><g transform="matrix(3.62147 0 0 3.73446 34.647 833.66)" style="fill:#ff4500"><path d="m 17.03 37.706 c -3.502 3.502 -11.548 4.973 -11.548 4.973 0 0 1.471 -8.05 4.973 -11.548 3.502 -3.501 7.251 -5.429 9.628 -3.052 2.377 2.377 0.448 6.125 -3.053 9.627 z" style="fill:#ffdead;stroke:#ffdead"/><g><g><path d="m 28.07 30.19 c 0 0 2.469 6.266 0.047 8.747 -3.749 3.834 -10.97 5.809 -10.97 5.809 0 0 -0.337 0.148 -0.71 -0.215 -0.477 -0.465 -0.103 -0.577 -0.103 -0.577 0 0 1.912 -1.149 4.411 -3.31 1.945 -1.682 -2.219 -5.231 -2.219 -5.231 l 9.544 -5.223 z"/><path d="m 17.262 19.669 c 0 0 -6.331 -2.298 -8.745 0.191 -3.732 3.85 -5.511 11.122 -5.511 11.122 0 0 -0.139 0.341 0.235 0.706 0.477 0.463 0.579 0.085 0.579 0.085 0 0 1.098 -1.94 3.19 -4.497 1.629 -1.99 5.29 2.077 5.29 2.077 l 4.962 -9.684 z"/></g><path d="m 40.16,20.375 1.08,-0.532 C 44.729,13.603 45.994,5.831 44.103,3.94 42.109,1.946 34.429,3.303 28.199,6.802 c 0,0 -0.527,1.085 -0.531,1.081 L 40.16,20.375 z"/><path d="m 19.028,37.935 c 4.745,-1.059 10.466,-4.39 15.618,-9.543 2.046,-2.045 3.978,-4.677 5.428,-6.812 L 40.157,20.371 27.673,7.887 26.367,7.871 c -2.262,1.497 -4.547,3.357 -6.716,5.526 -5.152,5.153 -8.483,10.873 -9.543,15.619 l 8.92,8.919 z"/><path d="M 41.24 19.843 28.2 6.802 27.668 7.883 40.16 20.375"/><path d="M 26.37 7.874 40.07 21.575 40.16 20.371 27.673 7.887"/></g><path d="M 7.421,40.622 C 6.738,39.94 14.895,29.96 15.81,29.172 c 2.744,-2.376 5.366,-3.35 5.879,-2.839 0.513,0.512 -0.451,3.134 -2.818,5.883 -0.789,0.916 -10.765,9.088 -11.45,8.406 z"/></g></g></svg>