<svg xmlns="http://www.w3.org/2000/svg" viewBox="0 0 256 256"><g transform="translate(0 -796.36)"><path d="m 195.68 823.45 c -94.48 -84.12 -239.87 48.573 -181.08 159.63 59.43 112.29 256.11 82.36 239.38 -55.55 -4.98 -41.04 -27.475 -76.65 -58.3 -104.09 z" style="fill:#fff;color:#000"/><g transform="matrix(3.41602 0 0 3.43599 49.975 838.54)"><g style="fill:#ff4500;fill-rule:evenodd"><path d="m 28.632 5.364 v 6.947 h 4.632 v -6.947 h -4.632 z"/><path d="m 14.737 5.364 v 6.947 h 4.632 v -6.947 h -4.632 z"/></g><rect width="44" height="34.732" x="2" y="12.311" rx="1.153" style="fill:#ffdead"/><path d="m 14.737 5.364 l 4.632 -4.632 h 9.263 l 4.632 4.632 z" style="fill:#ff4500"/><path d="m 2.827 12.348 c 20.842 1.158 20.842 1.158 42.842 0 h -42.842 z" style="fill:#fff;fill-opacity:0.706"/></g><path d="m 102.94 903.25 c -4.374 0 -7.902 3.539 -7.902 7.936 v 57.782 c 0 4.397 3.528 7.936 7.902 7.936 h 57.47 c 4.374 0 7.894 -3.539 7.894 -7.936 v -57.782 c 0 -4.397 -3.52 -7.936 -7.894 -7.936 h -57.47 z m 26.696 8.192 c 1.156 -0.04 2.803 0 4.961 0 6.03 0 7.378 0.102 7.378 0.386 0 0.187 -1.584 1.405 -3.434 2.813 -6 4.568 -9.08 7.947 -11.448 12.659 -0.795 1.585 -1.636 4.457 -1.654 5.371 -0.01 0.51 0.696 0.055 1.399 -0.895 0.963 -1.297 1.331 -2.356 1.908 -4.732 0.419 -1.723 0.597 -1.867 1.908 -2.941 1.466 -1.201 3.037 -2.09 5.724 -3.197 2.898 -1.194 5.384 -1.661 10.303 -1.918 2.82 -0.148 6.081 -0.49 8.395 -0.896 2.087 -0.363 4 -0.587 4.198 -0.511 0.855 0.332 0.89 2.086 0.89 22.505 0 19.437 -0.022 20.15 -0.509 21.738 -0.85 2.767 -2.641 4.774 -5.47 6.138 l -1.399 0.64 l -16.409 0.125 c -9.01 0.043 -16.44 -0.04 -16.536 -0.125 -0.368 -0.371 -0.092 -0.65 1.399 -1.407 4.277 -2.171 11.728 -7.133 16.03 -10.741 9.719 -8.157 11.962 -16.328 7.25 -26.342 -0.751 -1.595 -4.03 -5.54 -4.325 -5.242 -0.055 0.059 0.407 0.834 0.89 1.79 1.317 2.606 1.785 5.256 1.781 8.567 -0.007 4.994 -1.18 8.204 -4.325 11.381 -2.232 2.254 -4.923 3.553 -8.523 4.347 -2.211 0.488 -3.283 0.634 -9.03 0.639 -5.752 0 -6.725 -0.144 -9.159 -0.639 -3.195 -0.653 -7.115 -1.838 -8.01 -2.43 l -0.636 -0.393 v -14.193 c 0 -13.481 0.032 -14.209 0.509 -15.729 0.746 -2.38 3.079 -5.31 3.689 -4.603 0.107 0.121 0.342 1.401 0.509 2.813 0.863 7.295 4.246 16.458 7.632 20.971 2.386 3.179 6.55 6.412 9.922 7.545 1.305 0.438 1.982 0.472 3.689 0.393 2.535 -0.125 4.386 -0.836 6.106 -2.43 1.299 -1.204 2.912 -4.272 3.562 -6.777 0.79 -3.044 0.486 -9.17 -0.636 -11.764 -0.29 -0.672 -0.37 -0.207 -0.509 3.708 -0.22 6.194 -1.155 9.04 -3.689 11.764 -2.833 3.046 -6.161 3.376 -8.904 0.767 -2.274 -2.163 -3.453 -5.04 -3.816 -9.463 -0.339 -4.134 1.324 -11.141 3.689 -15.984 1.464 -2.999 1.237 -3.621 4.706 -3.708 z m 4.961 12.01 c -0.731 0 -2.197 0.903 -2.29 1.407 -0.843 4.579 -2.49 8.578 -4.07 9.974 -0.944 0.833 -1.265 0.926 -2.035 0.511 -0.386 -0.207 -0.509 -0.207 -0.509 0.117 0 0.662 0.706 2.03 1.272 2.43 1.016 0.715 2.401 0.347 3.689 -1.023 1.821 -1.938 3.26 -5.163 3.816 -9.207 0.526 -3.827 0.511 -4.219 0.127 -4.219 z" style="fill:#ff4500"/></g></svg>