<svg xmlns="http://www.w3.org/2000/svg" viewBox="0 0 256 256"><defs><clipPath id="0"><path transform="matrix(15.33333 0 0 11.5 415 -125.5)" d="m -24 13 c 0 1.105 -0.672 2 -1.5 2 -0.828 0 -1.5 -0.895 -1.5 -2 0 -1.105 0.672 -2 1.5 -2 0.828 0 1.5 0.895 1.5 2 z"/></clipPath><clipPath><rect rx="4" y="1" x="1" height="46" width="46" style="fill:#1580b9"/></clipPath></defs><g transform="translate(0 -796.36)"><path d="m 4.333 921.09 c -21.972 -109.09 128.73 -150.51 210.57 -103.24 65.21 37.666 52.04 170.99 -35.987 219.09 -88.02 48.1 -156.95 -28.29 -174.58 -115.85 z" style="fill:#fff;color:#000"/><g style="fill:#ff4500"><path d="m 117.27 906.14 c -4.481 -3.286 -7.632 -2.759 -12.41 -1.998 l -9.875 1.574 c -2.829 14.446 -13.995 26.23 -28.689 28.574 -12.6 2.01 -24.553 -3.5 -31.742 -13.312 l -4.542 -34.624 c 4.373 -11.653 14.417 -20.67 27.02 -22.682 14.661 -2.338 28.392 5.517 34.86 18.468 l 9.875 -1.574 c 4.751 -0.758 7.924 -1.239 11.388 -5.792 l 4.116 31.374"/><g transform="matrix(3.50609 0.01822 -0.017 3.69119 46.42 882.75)" style="clip-path:url(#0)"><g><path d="m 18.664,10 c 1.332,1.34 1.324,2.406 1.324,4.02 v 3.336 c -4.66,1.563 -7.992,5.77 -7.992,10.734 0,4.258 2.469,7.973 6.117,9.926 h 11.77 C 33.531,36.063 36,32.348 36,28.09 36,23.137 32.656,18.934 28,17.356 V 14.02 C 28,12.415 27.992,11.344 29.324,10 H 18.66"/><path d="M 13.25,23 C 12.449,24.523 12,26.242 12,28.063 c 0,4.254 2.477,7.984 6.125,9.938 h 11.75 C 33.523,36.048 36,32.317 36,28.063 36,26.243 35.551,24.524 34.75,23" style="fill:#ffdead"/><g><path d="M 27,35.5 C 27,35.777 26.777,36 26.5,36 26.223,36 26,35.773 26,35.5 26,35.223 26.223,35 26.5,35 c 0.277,0 0.5,0.223 0.5,0.5"/><path d="M 25.5,33.25 C 25.5,33.664 25.164,34 24.75,34 24.336,34 24,33.664 24,33.25 c 0,-0.414 0.336,-0.75 0.75,-0.75 0.414,0 0.75,0.336 0.75,0.75"/><path d="m 27 30 c 0 0.551 -0.449 1 -1 1 -0.551 0 -1 -0.449 -1 -1 0 -0.555 0.449 -1 1 -1 0.551 0 1 0.449 1 1"/><path d="M 27,22.5 C 27,23.328 26.328,24 25.5,24 24.672,24 24,23.324 24,22.5 24,21.672 24.672,21 25.5,21 c 0.828,0 1.5,0.672 1.5,1.5"/><path d="M 24.5,26.75 C 24.5,27.441 23.941,28 23.25,28 22.559,28 22,27.437 22,26.75 c 0,-0.691 0.559,-1.25 1.25,-1.25 0.691,0 1.25,0.563 1.25,1.25"/></g></g></g><g transform="matrix(0.97307 0 0 0.92213 3.375 70.931)"><rect width="22.78" height="77.02" x="787.11" y="346.43" transform="matrix(0.60097 0.79927 -0.79927 0.60097 0 0)" rx="9.909"/><path d="M 17.356,116.07 14.126,97.324 10.896,78.578 28.745,85.154 46.594,91.73 31.975,103.9 z" transform="matrix(0.87648 -0.48144 0.48144 0.87648 77.934 817.54)"/></g></g></g></svg>