<svg xmlns="http://www.w3.org/2000/svg" viewBox="0 0 256 256"><defs><clipPath><rect width="46" height="46" x="1" y="0.998" rx="4" style="fill:#1890d0;stroke-width:1"/></clipPath><clipPath><rect width="46" height="46" x="1" y="0.998" rx="4" style="fill:#1890d0;stroke-width:1"/></clipPath><clipPath><rect width="46" height="46" x="1" y="0.998" rx="4" style="fill:#1890d0;stroke-width:1"/></clipPath><clipPath><rect width="46" height="46" x="1" y="0.998" rx="4" style="fill:#1890d0;stroke-width:1"/></clipPath><clipPath id="0"><rect width="46" height="46" x="1" y="0.998" rx="4" style="fill:#1890d0;stroke-width:1"/></clipPath><clipPath><rect width="46" height="46" x="1" y="0.998" rx="4" style="fill:#1890d0;stroke-width:1"/></clipPath><clipPath><rect width="46" height="46" x="1" y="0.998" rx="4" style="fill:#1890d0;stroke-width:1"/></clipPath><clipPath><rect width="46" height="46" x="1" y="0.998" rx="4" style="fill:#1890d0;stroke-width:1"/></clipPath><clipPath><rect width="46" height="46" x="1" y="0.998" rx="4" style="fill:#1890d0;stroke-width:1"/></clipPath><clipPath><rect width="46" height="46" x="1" y="0.998" rx="4" style="fill:#1890d0;stroke-width:1"/></clipPath><clipPath><rect width="46" height="46" x="1" y="0.998" rx="4" style="fill:#1890d0;stroke-width:1"/></clipPath><clipPath><rect width="46" height="46" x="1" y="0.998" rx="4" style="fill:#1890d0;stroke-width:1"/></clipPath><clipPath><rect width="46" height="46" x="1" y="0.998" rx="4" style="fill:#1890d0;stroke-width:1"/></clipPath><clipPath><rect width="46" height="46" x="1" y="0.998" rx="4" style="fill:#1890d0;stroke-width:1"/></clipPath></defs><g transform="translate(0 -796.36)"><path d="m -1374.42 1658.71 c 127.95 -192.46 -280.09 -311 -226.07 -62.2 23.02 102.82 167.39 165.22 226.07 62.2 z" transform="matrix(0 1 -1 0 1711.48 2401.81)" style="fill:#fff;color:#000"/><g transform="matrix(5.18314 0 0 5.19725 4.311 800.02)" style="clip-path:url(#0);fill:#ff4500"><path d="m 23.836 11 c -2.977 4.063 -13.09 15.523 -8.785 22.14 3.336 5.125 14.668 5.152 17.961 0 c 4.289 -6.699 -6.641 -18.08 -9.176 -22.14" transform="translate(0 -1)"/></g></g></svg>