<svg xmlns="http://www.w3.org/2000/svg" viewBox="0 0 256 256"><defs><clipPath><rect height="88" rx="10" width="84" x="-202" y="56" style="fill:none;stroke:#000;display:block;color:#000"/></clipPath><clipPath><rect height="88" rx="10" width="84" x="-202" y="56" style="fill:none;stroke:#000;display:block;color:#000"/></clipPath><clipPath><rect height="88" rx="10" width="84" x="-202" y="56" style="fill:none;stroke:#000;display:block;color:#000"/></clipPath></defs><g transform="translate(0 -796.36)"><path d="m 98.95 1050.2 c -237.88 -49.981 17.492 -393.86 138.4 -187.29 51.828 80.25 -16.06 213 -138.4 187.29 z" style="fill:#fff;color:#000"/><g transform="matrix(1.15802 -0.34877 0.3677 1.24104 -339.09 -162.75)" style="fill:#ff4500"><rect transform="matrix(0.85102 0 0 0.92038 586.04 -559.93)" rx="12.04" y="1559.75" x="-620.67" height="83.44" width="135" style="color:#000"/><path d="m 107.24 935.94 c -6.326 -2.198 -9.385 -5.05 -29.733 -27.689 -12.459 -13.863 -20.01 -22.772 -20.01 -23.594 0.008 -2.35 2.561 -6.469 4.939 -7.97 2.307 -1.456 2.524 -1.463 52.41 -1.621 48.626 -0.154 50.17 -0.119 52.46 1.187 2.487 1.414 4.928 5.069 4.92 7.366 -0.003 0.871 -7.137 9.263 -19.879 23.383 -20.709 22.954 -24.618 26.53 -31.601 28.901 -3.547 1.205 -10.1 1.222 -13.517 0.037 z" style="fill:#ffdead"/></g></g></svg>