<svg xmlns="http://www.w3.org/2000/svg" viewBox="0 0 256 256"><g transform="translate(0 -796.36)"><path d="m 3.25 953.66 c 49.981 239.91 393.86 -17.642 187.29 -139.59 -80.25 -52.27 -213 16.2 -187.29 139.59 z" style="fill:#fff;color:#000"/><path d="m 87.05 982.29 c -1.129 -0.715 -1.18 -1.216 -0.239 -2.351 1.863 -2.245 15.735 -7.71 19.57 -7.71 5.01 0 6.605 -0.898 6.605 -3.713 0 -6.158 4.7 -19.841 13.794 -40.15 l 4.64 -10.365 l -2.467 -1.999 c -4.712 -3.817 -18.29 -10.06 -19.806 -9.101 -0.785 0.495 -2.926 5.796 -4.758 11.779 -6.379 20.829 -7.452 17.834 -7.146 -19.949 l 0.243 -30 l 3.621 0.103 c 5.331 0.151 18.602 9.231 31.13 21.3 5.766 5.554 10.923 10.1 11.46 10.1 0.537 0 1.834 -0.957 2.882 -2.126 2.741 -3.059 17.368 -14.332 20.905 -16.11 4.37 -2.199 7.5 -3.03 7.5 -1.989 0 0.499 -5.4 6.359 -12 13.02 -7.423 7.493 -12 12.889 -12 14.15 0 1.118 2.029 5.7 4.509 10.184 8.431 15.242 14.667 30.631 18.483 45.615 0.866 3.399 1.618 4.362 3.794 4.854 7.704 1.742 8.714 2.145 8.714 3.47 0 1.023 -1.475 1.522 -5.125 1.734 l -5.125 0.298 l -0.549 4.096 c -0.302 2.253 -1.146 4.474 -1.875 4.937 -1.804 1.144 -84.95 1.079 -86.76 -0.068 z m 48.653 -3.923 c 2.376 -1.33 -16.02 -2.564 -25.01 -1.678 -15.695 1.547 -8.419 3.619 10.573 3.01 7.03 -0.225 13.526 -0.825 14.434 -1.333 z m 12.717 -8.03 c 0.665 -1.076 -1.378 -1.604 -12.197 -3.156 -4.545 -0.652 -8.514 -1.59 -8.82 -2.086 -0.767 -1.241 3.904 -20.1 8.212 -33.15 5.15 -15.602 3.105 -18.258 -4.091 -5.313 -6.06 10.906 -15.537 37.02 -15.537 42.827 0 1.619 1.357 1.77 15.941 1.77 8.768 0 16.189 -0.402 16.493 -0.893 z m 13.04 -8.357 c -0.863 -4.072 -6.601 -19.13 -9.326 -24.468 -2.885 -5.656 -7 -10.282 -9.144 -10.282 -1.963 0 -4.565 6.02 -9.436 21.812 -2.967 9.621 -3.157 12.02 -1.014 12.846 2.563 0.984 18.576 3.116 24.28 3.233 l 5.329 0.11 l -0.689 -3.25 z m -22.834 -7.386 c -3.591 -3.591 -3.591 -8.467 -0.001 -11.291 3.78 -2.973 7.926 -2.665 11.442 0.851 3.697 3.697 3.697 6.457 0 10.154 -3.765 3.765 -7.859 3.868 -11.441 0.287 z m 5.988 -1.129 c 1.525 -0.997 -0.114 -5.235 -2.024 -5.235 -1.632 0 -3.075 3.422 -2.105 4.991 0.729 1.179 2.535 1.286 4.13 0.244 z" transform="matrix(1.24081 0 0 1.24844 -44.602 -240)" style="fill:#ff4500"/></g></svg>