<svg xmlns="http://www.w3.org/2000/svg" viewBox="0 0 256 256"><defs><clipPath><path d="m 238.5 154.06 v 38.13 h 14.25 c 2.554 0 5.375 -2.576 5.375 -6 v -26.12 c 0 -3.175 -2.206 -6 -5.375 -6 z"/></clipPath><clipPath><path d="m 240.56 113.99 v 38.12 h 14.25 c 2.554 0 5.375 -2.576 5.375 -6 v -26.12 c 0 -3.175 -2.206 -6 -5.375 -6 z"/></clipPath><clipPath><path d="m 242.5 73.992 v 38.13 h 14.25 c 2.554 0 5.375 -2.576 5.375 -6 v -26.12 c 0 -3.175 -2.206 -6 -5.375 -6 z"/></clipPath><clipPath><path d="m 53 255 l 0.125 177.88 c -0.338 3.737 0.418 7.155 2.031 9.75 1.613 2.595 4.223 4.375 7.25 4.375 4.906 0 25.656 0.063 25.656 0.063 v -0.094 h 128.56 c 1.87 0 3.375 -1.505 3.375 -3.375 v -173.16 c 0 -1.87 -1.505 -3.375 -3.375 -3.375 h -126.56 h -2 c 0 0 -20.73 -0.063 -25.656 -0.063 -1.889 0 -3.488 -1.039 -4.688 -2.969 -1.2 -1.929 -1.88 -4.74 -1.594 -7.906 0.034 -0.378 0.094 -0.755 0.156 -1.125 h -3.281 z"/></clipPath><clipPath><path d="m 90 42 c 0 0 -20.438 0.063 -25.344 0.063 -3.03 0 -5.759 1.679 -7.781 4.188 -2.02 2.509 -3.412 5.905 -3.75 9.625 -0.018 0.523 -0.036 1.01 -0.063 1.563 c -0.027 0.555 -0.063 1.179 -0.063 1.563 l 0.031 46 l 0.094 127.88 c -0.338 3.737 0.418 7.155 2.031 9.75 1.613 2.595 4.223 4.375 7.25 4.375 4.906 0 25.656 0.063 25.656 0.063 v -0.094 h 128.56 c 1.87 0 3.375 -1.505 3.375 -3.375 v -173.16 c 0 -1.87 -1.505 -3.375 -3.375 -3.375 h -0.625 v -22.625 c 0 -1.339 -1.099 -2.406 -2.438 -2.406 h -123.56 v -0.031 z"/></clipPath></defs><g transform="translate(0 -796.36)"><path d="m 21.772 850.27 c -96.04 131.35 157.48 294.55 225.18 136.85 56.05 -126.51 -141.6 -271.57 -225.18 -136.85 z" style="fill:#fff;color:#000"/><text x="78.58" y="970.54" text-align="start" line-height="125%" style="letter-spacing:0;word-spacing:0;font-size:121.28;font-family:DejaVu Sans;fill:#ff4500"><tspan x="78.58" y="970.54" style="font-weight:bold">D</tspan></text></g></svg>