<svg xmlns="http://www.w3.org/2000/svg" viewBox="0 0 256 256"><g transform="translate(0 -796.36)"><path d="m 44.834 1015.23 c -201.82 -266.38 353.59 -304.22 175.35 -32.31 -40.634 61.991 -121.89 102.86 -175.35 32.31 z" style="fill:#fff;color:#fff"/><path d="m 74.841 857.05 h 106.32 v 134.63 h -106.32 z" style="fill:#ff4500;stroke:#fff;stroke-width:0.408"/><path d="m 128 838.12 c -47.592 0 -86.34 38.704 -86.34 86.24 0 47.531 38.751 86.24 86.34 86.24 47.592 0 86.34 -38.708 86.34 -86.24 0 -47.535 -38.751 -86.24 -86.34 -86.24 z m 0 32.34 c 5.96 0 10.794 4.824 10.794 10.777 0 5.953 -4.834 10.781 -10.794 10.781 -5.96 0 -10.794 -4.828 -10.794 -10.781 0 -5.953 4.834 -10.777 10.794 -10.777 z m -16.19 32.34 h 26.984 v 64.68 h 10.79 v 10.777 h -43.17 v -10.777 h 10.79 v -53.903 h -5.395 z" style="fill:#ffa07a"/></g></svg>