<svg xmlns="http://www.w3.org/2000/svg" viewBox="0 0 256 256"><path d="m 229.63 54.734 c 126.21 188.96 -276.27 305.35 -222.99 61.07 22.706 -100.95 165.11 -162.22 222.99 -61.07 z" style="fill:#fff;color:#000"/><path d="m 108.08 184.4 c -3.348 -6.752 -18.07 -8.991 -36.26 -5.513 -6.639 1.269 -14.545 2.054 -17.568 1.744 l -5.496 -0.564 l 5.474 -53.34 l 5.474 -53.34 l 2.797 0.287 c 1.539 0.158 8.07 -1.311 14.509 -3.265 12.876 -3.904 20.655 -4.967 29.54 -4.055 6.629 0.68 15.89 4.277 21.539 8.365 3.812 2.76 3.825 2.761 8.461 0.884 16.754 -6.779 31.558 -4.844 52.602 6.889 5.062 2.822 10.504 5.263 12.09 5.426 l 2.885 0.296 l -5.474 53.34 l -5.474 53.34 l -5.496 -0.564 c -3.02 -0.31 -10.604 -2.685 -16.847 -5.275 -16.81 -6.978 -31.498 -7.798 -36.489 -2.041 -2.303 2.658 -2.9 2.728 -13.571 1.633 -10.64 -1.092 -11.236 -1.291 -12.703 -4.243 z m 20.366 -1.469 c 0.334 -0.282 0.549 -2.793 0.477 -5.578 l -0.129 -5.07 l -6.206 -0.637 l -6.206 -0.637 l -0.916 5.533 l -0.916 5.533 l 6.644 0.682 c 3.654 0.375 6.917 0.451 7.251 0.169 z m 2.29 -20.512 l 0.541 -5.275 l -6.912 -1.062 l -6.912 -1.062 l -0.613 5.969 l -0.613 5.969 l 6.983 0.364 l 6.983 0.364 l 0.541 -5.275 z m -56.877 -15.97 c 13.409 -4.537 21.17 -4.983 29.792 -1.716 8.757 3.321 9.952 3.391 10.239 0.591 0.448 -4.37 -5.453 -7.111 -17.959 -8.339 -10.844 -1.066 -11.777 -0.948 -23.678 2.983 -9.77 3.226 -12.525 4.626 -13.01 6.611 -0.926 3.743 3.286 3.705 14.625 -0.131 z m 115.85 13.531 c -0.077 -2.029 -2.534 -4 -11.396 -9.165 -10.938 -6.373 -11.656 -6.62 -22.578 -7.74 -12.496 -1.282 -18.837 0.219 -19.283 4.567 -0.287 2.798 0.892 2.974 10.146 1.501 9.07 -1.444 16.647 0.573 28.484 7.587 10.174 6.03 14.775 7.05 14.629 3.252 z m -57.77 -12.833 l 0.601 -5.861 l -6.77 -0.695 l -6.77 -0.695 l -0.602 5.861 l -0.602 5.861 l 6.77 0.695 l 6.77 0.695 l 0.601 -5.861 z m -55.48 -16.407 c 14.668 -4.421 20.883 -4.665 29.29 -1.156 6.805 2.842 9.461 2.803 9.764 -0.144 0.339 -3.3 -9.06 -7.881 -17.918 -8.738 -6.592 -0.637 -10.05 -0.134 -20.836 3.038 -14.733 4.331 -15.896 4.901 -16.208 7.934 -0.334 3.254 2.579 3.083 15.909 -0.934 z m 115.04 13.836 c 0.244 -2.378 -1.2 -3.534 -11.09 -8.885 -14.343 -7.759 -21.748 -10.07 -29.397 -9.17 -7.21 0.847 -12.709 3.07 -12.93 5.226 -0.304 2.958 1.846 3.407 10.02 2.093 7.02 -1.128 8.882 -1.015 14.804 0.907 3.725 1.209 10.477 4.397 15 7.084 10.01 5.943 13.189 6.586 13.583 2.744 z m -57.944 -12.382 c 0.635 -2.713 0.935 -5.215 0.666 -5.559 -0.269 -0.344 -3.452 -0.929 -7.07 -1.301 l -6.582 -0.676 l -0.521 5.08 c -0.287 2.794 -0.199 5.492 0.196 5.996 0.395 0.504 3.292 1.023 6.438 1.154 l 5.721 0.237 l 1.156 -4.938 z m -59.25 -15.845 c 16.17 -5.681 24.318 -6.075 34.682 -1.674 6.128 2.602 8.758 2.053 7.811 -1.631 -0.915 -3.561 -8.02 -6.628 -17.63 -7.614 -8.22 -0.843 -10.265 -0.538 -22.869 3.401 -12.09 3.779 -13.878 4.678 -14.12 7.07 -0.385 3.747 2.447 3.852 12.13 0.45 z m 118.76 13.03 c 0.236 -2.301 -1.295 -3.582 -10.521 -8.797 -5.938 -3.357 -13.334 -6.949 -16.431 -7.981 -9.169 -3.054 -23.838 -1.446 -25.943 2.843 -1.675 3.415 0.788 4.487 7.317 3.184 11.04 -2.202 19.18 -0.101 33.376 8.606 8.597 5.272 11.825 5.84 12.204 2.145 z m -58.947 -8.04 c 0.672 -0.568 1.245 -3.176 1.273 -5.792 l 0.051 -4.759 l -6.652 -0.683 l -6.652 -0.683 l -0.521 5.08 c -0.287 2.794 -0.219 5.466 0.151 5.938 1.044 1.334 10.98 2.057 12.35 0.898 z m -55.715 -21.319 c 13.492 -4.41 23.849 -4.65 32.711 -0.755 5.86 2.576 7.252 2.438 7.579 -0.747 0.375 -3.657 -7.617 -7.413 -17.921 -8.422 -8.099 -0.793 -10.49 -0.454 -22.554 3.198 -13.424 4.064 -15.03 5.02 -14.158 8.431 0.659 2.564 1.643 2.446 14.349 -1.704 z m 116.05 13.783 c -0.04 -2.529 -1.326 -3.77 -7.591 -7.324 -17.952 -10.184 -27.01 -12.571 -37.653 -9.926 -10.995 2.736 -11.127 8.81 -0.143 6.614 9.781 -1.955 18.834 0.157 31.12 7.259 12.306 7.113 14.33 7.594 14.268 3.374 z m -57.6 -12.417 c 1.167 -5.942 -0.085 -7.282 -7.04 -7.533 l -5.484 -0.198 l -0.916 5.533 l -0.916 5.533 l 6.714 0.689 l 6.714 0.689 l 0.925 -4.713 z m -57.796 -16.516 c 4.217 -1.372 9.672 -2.938 12.12 -3.481 5.502 -1.218 16.233 -0.183 20.32 1.962 1.675 0.88 4.317 1.73 5.868 1.889 2.276 0.234 2.808 -0.225 2.732 -2.352 -0.069 -1.946 -1.521 -3.374 -5.506 -5.417 -8.752 -4.483 -19.532 -4.35 -35.24 0.435 -12.796 3.9 -14.632 5.05 -13.713 8.622 0.57 2.216 2.074 2.029 13.41 -1.66 z m 116.67 13.12 c 0.248 -2.413 -1.222 -3.603 -11.581 -9.37 -11.06 -6.158 -12.552 -6.677 -22.02 -7.659 -7.657 -0.794 -11.249 -0.624 -14.609 0.696 -8.401 3.302 -5.063 8.324 3.867 5.814 8.291 -2.331 18.572 0.614 35.26 10.1 7.4 4.206 8.68 4.264 9.07 0.418 z m -57.782 -7.641 c 0.322 -0.272 0.568 -2.426 0.545 -4.783 -0.036 -3.755 -0.35 -4.219 -2.528 -3.735 -3.169 0.705 -5.255 0.482 -8.324 -0.891 -2.272 -1.016 -2.489 -0.742 -2.948 3.729 l -0.495 4.826 l 6.582 0.676 c 3.62 0.371 6.846 0.452 7.168 0.18 z" style="fill:#ff4500"/></svg>