<svg xmlns="http://www.w3.org/2000/svg" viewBox="0 0 256 256"><path d="m -1374.42 1658.71 c 127.95 -192.46 -280.09 -311 -226.07 -62.2 23.02 102.82 167.39 165.22 226.07 62.2 z" transform="matrix(0 0.98637 -0.98183 0 1682.72 1585.9)" style="fill:#fff;color:#000"/><path d="m 134.4 185.32 c -5.741 -4.883 -20.15 -1.131 -35.497 9.242 -5.6 3.785 -12.554 7.626 -15.455 8.534 l -5.273 1.65 l -16.02 -51.17 l -16.02 -51.17 l 2.684 -0.84 c 1.476 -0.462 6.897 -4.388 12.04 -8.725 10.291 -8.667 17.02 -12.714 25.544 -15.382 6.36 -1.99 16.289 -2.34 23.09 -0.812 4.592 1.032 4.604 1.028 8.123 -2.526 12.72 -12.839 27.09 -16.902 51.05 -14.424 5.765 0.595 11.728 0.692 13.249 0.215 l 2.768 -0.866 l 16.02 51.17 l 16.02 51.17 l -5.273 1.65 c -2.9 0.908 -10.803 1.717 -17.562 1.8 -18.2 0.221 -32.02 5.262 -34.33 12.522 -1.068 3.351 -1.588 3.651 -11.825 6.855 -10.208 3.195 -10.834 3.247 -13.347 1.113 z m 18.13 -9.385 c 0.195 -0.391 -0.597 -2.783 -1.763 -5.314 l -2.119 -4.607 l -5.954 1.864 l -5.954 1.864 l 1.342 5.446 l 1.342 5.446 l 6.374 -1.995 c 3.505 -1.097 6.534 -2.315 6.729 -2.705 z m -5.989 -19.752 l -1.584 -5.061 l -6.77 1.751 l -6.77 1.751 l 1.792 5.726 l 1.792 5.726 l 6.56 -2.421 l 6.56 -2.421 l -1.584 -5.061 z m -58.56 7.767 c 10.531 -9.459 17.489 -12.933 26.698 -13.331 9.357 -0.403 10.482 -0.811 9.642 -3.497 -1.312 -4.192 -7.816 -4.383 -19.792 -0.577 -10.385 3.299 -11.195 3.775 -20.58 12.08 -7.705 6.82 -9.683 9.192 -9.351 11.21 0.626 3.805 4.481 2.108 13.387 -5.89 z m 111.79 -33.28 c -0.871 -1.833 -3.907 -2.677 -14.09 -3.925 -12.565 -1.54 -13.322 -1.483 -23.8 1.796 -11.989 3.752 -17.222 7.634 -15.917 11.805 0.84 2.685 1.993 2.38 9.915 -2.624 7.767 -4.907 15.523 -6.04 29.17 -4.268 11.727 1.525 16.359 0.649 14.726 -2.784 z m -58.15 11 l -1.76 -5.623 l -6.495 2.033 l -6.495 2.033 l 1.76 5.623 l 1.76 5.623 l 6.495 -2.033 l 6.495 -2.033 l -1.76 -5.623 z m -57.45 6.813 c 11.734 -9.849 17.348 -12.527 26.459 -12.619 7.375 -0.074 9.8 -1.158 8.915 -3.985 -0.991 -3.166 -11.43 -3.668 -19.912 -0.959 -6.309 2.02 -9.286 3.842 -17.947 11.01 -11.829 9.792 -12.673 10.775 -11.762 13.685 0.977 3.122 3.586 1.816 14.25 -7.135 z m 111.16 -32.675 c -0.714 -2.281 -2.497 -2.774 -13.698 -3.788 -16.241 -1.47 -23.956 -0.67 -30.631 3.173 -6.291 3.623 -10.467 7.835 -9.819 9.904 0.888 2.838 3.04 2.403 10.04 -2.032 6.01 -3.808 7.761 -4.437 13.961 -5.01 3.9 -0.359 11.362 -0.094 16.582 0.589 11.542 1.511 14.717 0.848 13.564 -2.838 z m -58.13 11.485 c -0.487 -2.744 -1.198 -5.161 -1.581 -5.371 -0.383 -0.21 -3.539 0.508 -7.01 1.595 l -6.315 1.976 l 1.525 4.874 c 0.839 2.681 1.984 5.125 2.546 5.433 0.561 0.307 3.428 -0.358 6.371 -1.479 l 5.35 -2.039 l -0.886 -4.993 z m -60.697 8.819 c 12.613 -11.599 19.948 -15.177 31.21 -15.222 6.658 -0.027 8.858 -1.569 6.534 -4.581 -2.246 -2.911 -9.984 -2.927 -19.2 -0.04 -7.885 2.469 -9.644 3.556 -19.671 12.148 -9.619 8.243 -10.907 9.774 -10.189 12.07 1.125 3.595 3.768 2.574 11.321 -4.371 z m 114.27 -34.887 c -0.691 -2.207 -2.603 -2.78 -13.14 -3.932 -6.781 -0.741 -14.994 -1.124 -18.247 -0.851 -9.63 0.811 -22.475 8.08 -22.716 12.849 -0.192 3.799 2.494 3.812 7.98 0.038 9.271 -6.377 17.584 -7.661 34.06 -5.261 9.979 1.453 13.169 0.7 12.06 -2.844 z m -57.34 15.87 c 0.393 -0.787 -0.109 -3.409 -1.116 -5.825 l -1.831 -4.393 l -6.382 1.997 l -6.382 1.997 l 1.525 4.874 c 0.839 2.681 1.955 5.109 2.481 5.397 1.486 0.813 10.901 -2.443 11.702 -4.047 z m -59.61 2.393 c 10.657 -9.375 20.08 -13.682 29.759 -13.6 6.401 0.055 7.626 -0.621 6.669 -3.677 -1.098 -3.508 -9.924 -3.807 -19.79 -0.667 -7.755 2.467 -9.819 3.722 -19.463 11.838 -10.732 9.03 -11.833 10.547 -9.683 13.333 1.617 2.096 2.475 1.6 12.512 -7.227 z m 112.07 -33.12 c -1.035 -2.308 -2.706 -2.941 -9.865 -3.735 -20.514 -2.275 -29.777 -0.895 -38.515 5.736 -9.02 6.852 -6.748 12.485 2.478 6.134 8.216 -5.655 17.368 -7.287 31.46 -5.609 14.11 1.681 16.16 1.324 14.442 -2.529 z m -57.829 11.318 c -1.272 -5.92 -2.951 -6.657 -9.438 -4.145 l -5.118 1.982 l 1.342 5.446 l 1.342 5.446 l 6.441 -2.02 l 6.441 -2.02 l -1.01 -4.696 z m -59.62 7.628 c 3.334 -2.924 7.729 -6.516 9.766 -7.981 4.575 -3.29 14.844 -6.573 19.445 -6.215 1.886 0.147 4.649 -0.114 6.137 -0.58 2.184 -0.683 2.491 -1.314 1.583 -3.24 -0.831 -1.761 -2.728 -2.5 -7.197 -2.806 -9.811 -0.666 -19.664 3.71 -32.21 14.303 -10.219 8.632 -11.452 10.416 -9.198 13.333 1.398 1.811 2.706 1.046 11.668 -6.816 z m 112.38 -33.977 c -0.725 -2.315 -2.544 -2.828 -14.338 -4.04 -12.595 -1.294 -14.168 -1.183 -23.255 1.65 -7.349 2.292 -10.583 3.865 -13.149 6.404 -6.417 6.348 -1.368 9.646 5.847 3.817 6.699 -5.413 17.308 -6.763 36.39 -4.633 8.46 0.945 9.658 0.494 8.503 -3.197 z m -56.11 15.777 c 0.189 -0.378 -0.436 -2.453 -1.386 -4.61 -1.515 -3.436 -1.986 -3.738 -3.796 -2.434 -2.633 1.898 -4.638 2.516 -8 2.465 -2.489 -0.037 -2.58 0.3 -1.238 4.589 l 1.449 4.63 l 6.315 -1.976 c 3.473 -1.087 6.469 -2.285 6.657 -2.663 z" style="fill:#ff4500"/></svg>