<svg xmlns="http://www.w3.org/2000/svg" viewBox="0 0 256 256"><g transform="translate(0 -796.36)"><path d="m 24.975 999.59 c -127.95 -192.46 280.09 -311 226.07 -62.2 -23.02 102.82 -167.39 165.22 -226.07 62.2 z" style="fill:#fff;color:#fff"/><g transform="matrix(3.35565 0 0 3.44366 48.38 -2616.25)" style="fill:#ff4500"><path transform="scale(1 -1)" d="M 4,-1048.36 H44 V-1008.37 H4 z"/><path d="m 8.58 1011.59 c -0.752 0 -1.357 0.603 -1.357 1.352 v 30.703 c 0 0.75 0.605 1.352 1.357 1.352 h 30.804 c 0.752 0 1.357 -0.603 1.357 -1.352 v -30.703 c 0 -0.75 -0.605 -1.352 -1.357 -1.352 z" style="fill:#ffdead"/><path transform="matrix(0.48575 0 0 0.48412 10.927 1011.54)" d="m 30.25 5.25 c 0 1.864 -1.511 3.375 -3.375 3.375 -1.864 0 -3.375 -1.511 -3.375 -3.375 0 -1.864 1.511 -3.375 3.375 -3.375 1.864 0 3.375 1.511 3.375 3.375 z"/><path d="m 7.223 1018.07 v 0.209 h 33.518 v -0.209 h -33.518 z m 0 5.01 v 0.209 h 33.518 v -0.209 h -33.518 z m 0 5.01 v 0.209 h 33.518 v -0.209 h -33.518 z m 0 5.01 v 0.209 h 33.518 v -0.209 h -33.518 z m 0 5.01 v 0.209 h 33.518 v -0.209 h -33.518 z"/><path d="m 7.223 1018.27 v 0.209 h 33.518 v -0.209 h -33.518 z m 0 5.01 v 0.209 h 33.518 v -0.209 h -33.518 z m 0 5.01 v 0.209 h 33.518 v -0.209 h -33.518 z m 0 5.01 v 0.209 h 33.518 v -0.209 h -33.518 z m 0 5.01 v 0.209 h 33.518 v -0.209 h -33.518 z" style="fill-opacity:0.332"/><path d="m 18.861 1038.72 c -1.646 1.626 -4.241 1.542 -5.866 -0.06 -1.618 -1.608 -1.703 -4.178 -0.062 -5.809 l 13.546 -13.414 c 2.141 -2.114 5.51 -2.01 7.627 0.083 2.11 2.098 2.218 5.434 0.084 7.555 l -11.288 11.179 c -0.249 0.247 -0.653 0.247 -0.902 0 -0.25 -0.247 -0.251 -0.647 -0.001 -0.894 l 11.287 -11.18 c 1.626 -1.612 1.56 -4.125 -0.084 -5.766 -1.655 -1.627 -4.193 -1.691 -5.822 -0.082 l -13.546 13.414 c -1.131 1.124 -1.088 2.87 0.062 4.02 1.164 1.141 2.925 1.181 4.061 0.063 l 11.287 -11.178 c 0.587 -0.581 0.565 -1.518 -0.092 -2.183 -0.669 -0.649 -1.616 -0.671 -2.203 -0.088 l -10.159 10.06 c -0.249 0.248 -0.653 0.247 -0.903 0 -0.249 -0.247 -0.25 -0.648 -0.001 -0.895 l 10.161 -10.06 c 1.123 -1.109 2.902 -1 4.01 0.09 1.104 1.096 1.211 2.859 0.093 3.971 l -11.289 11.178 z" style="opacity:0.6"/></g></g></svg>