<svg xmlns="http://www.w3.org/2000/svg" viewBox="0 0 256 256"><defs><clipPath><path transform="matrix(15.33333 0 0 11.5 415 -125.5)" d="m -24 13 c 0 1.105 -0.672 2 -1.5 2 -0.828 0 -1.5 -0.895 -1.5 -2 0 -1.105 0.672 -2 1.5 -2 0.828 0 1.5 0.895 1.5 2 z"/></clipPath></defs><g transform="translate(0 -796.36)"><path d="m 60.17 822.74 c 130.93 -92.05 263.6 77.948 156.91 186.39 -100.51 102.17 -256.68 7.449 -207.86 -119.69 10.185 -26.526 26.914 -49.802 50.948 -66.7 z" style="fill:#fff;color:#000"/><g transform="matrix(2.55039 0 0 2.74419 -912.95 -516.11)" style="fill:#ff4500"><path transform="translate(384.57 499.8)" d="m 18 37 v 7 v 2 v 2 h 12 v -2 v -2 v -7 z"/><path d="m 384.57 503.8 h 48 v 36 h -48 z"/><path d="m 386.57 505.8 h 44 v 30 h -44 z"/><path d="m 397.57 546.8 h 22 v 1 h -22 z"/><g style="fill:#ffdead;fill-rule:evenodd"><path d="m 386.57 535.8 l 16 -10 l 5 10 z" style="opacity:0.2"/><path d="m 386.57 535.8 v -10 h 16 z" style="opacity:0.2"/><path d="m 402.57 525.8 l 12 10 h -7 z" style="opacity:0.2"/><path d="m 414.57 535.8 l -2 -13 l -10 3 z" style="opacity:0.2"/><path d="m 412.57 522.8 l 9 5 l -7 8 z" style="opacity:0.2"/><path d="m 414.57 535.8 l 7 -8 l 5 8 z" style="opacity:0.2"/><path d="m 426.57 535.8 l 4 -6 v 6 z" style="opacity:0.2"/><path d="m 426.57 535.8 l -5 -8 l 9 2 z" style="opacity:0.2"/><path d="m 430.57 529.8 v -7 l -9 5 z" style="opacity:0.2"/><path d="m 421.57 527.8 l -9 -5 h 18 z" style="opacity:0.2"/><path d="m 412.57 522.8 l -13 -7 l 3 10 z" style="opacity:0.2"/><path d="m 402.57 525.8 h -16 l 13 -10 z" style="opacity:0.2"/><path d="m 386.57 525.8 v -10 h 13 z" style="opacity:0.2"/><path d="m 386.57 515.8 l 17 -7 l -4 7 z" style="opacity:0.2"/><path d="m 399.57 515.8 l 4 -7 l 9 14 z" style="opacity:0.2"/><path d="m 412.57 522.8 l -9 -14 l 17 5 z" style="opacity:0.2"/><path d="m 412.57 522.8 l 8 -9 l 2 9 z" style="opacity:0.2"/><path d="m 422.57 522.8 l -2 -9 l 10 4 z" style="opacity:0.2"/><path d="m 422.57 522.8 l 8 -5 v 5 z" style="opacity:0.2"/><path d="m 430.57 517.8 v -9 l -10 5 z" style="opacity:0.2"/><path d="m 420.57 513.8 l 10 -5 l -12 -3 z" style="opacity:0.2"/><path d="m 403.57 508.8 l 15 -3 l 2 8 z" style="opacity:0.2"/><path d="m 418.57 505.8 h 12 v 3 z" style="opacity:0.2"/><path d="m 418.57 505.8 l -15 3 l -6 -3 z" style="opacity:0.2"/><path d="m 397.57 505.8 l -11 10 l 17 -7 z" style="opacity:0.2"/><path d="m 386.57 515.8 v -10 h 11 z" style="opacity:0.2"/><path transform="translate(384.57 499.8)" d="m 25 38 c 0 0.552 -0.448 1 -1 1 -0.552 0 -1 -0.448 -1 -1 0 -0.552 0.448 -1 1 -1 0.552 0 1 0.448 1 1 z" style="opacity:0.75"/></g></g></g></svg>