<svg xmlns="http://www.w3.org/2000/svg" viewBox="0 0 256 256"><g transform="translate(0 -796.36)"><path d="m 3.652 915.15 c -14.532 149.54 230.55 189.8 249.59 36.24 23.59 -141.2 -198.57 -213.92 -243 -73.62 -4.868 11.862 -4.775 24.833 -6.59 37.37 z" style="fill:#fff;color:#000"/><g transform="matrix(6.28136 0 0 6.17345 -22.811 720.74)" style="fill:#ff4500"><path d="m 34 30.807 c 0 2.213 -4.01 2 -9.536 2 c -5.523 0 -10.464 0.208 -10.464 -2 c 0 -2.213 4.477 -4.01 10 -4.01 5.523 0 10 1.794 10 4.01 z"/><g><path d="m 32.937 36 h 3.125 c 0.519 0 0.937 0.461 0.937 1.034 v 2.932 c 0 0.573 -0.418 1.034 -0.937 1.034 h -3.125 c -0.519 0 -0.937 -0.461 -0.937 -1.034 v -2.932 c 0 -0.573 0.418 -1.034 0.937 -1.034 z"/><path d="m 11.937 36 h 3.125 c 0.519 0 0.937 0.461 0.937 1.034 v 2.932 c 0 0.573 -0.418 1.034 -0.937 1.034 h -3.125 c -0.519 0 -0.937 -0.461 -0.937 -1.034 v -2.932 c 0 -0.573 0.418 -1.034 0.937 -1.034 z"/></g><path d="m 24 29 c 8.31 0 15 1.254 15 2.812 v 4.376 c 0 1.558 -6.69 2.812 -15 2.812 -8.31 0 -15 -1.254 -15 -2.812 v -4.376 c 0 -1.558 6.69 -2.812 15 -2.812 z"/><g style="color:#000;fill-rule:evenodd"><path d="M 10.992 33 A 0.5 0.5 0 0 0 10.5 33.506 v 0.986 a 0.5 0.5 0 0 0 1 0 v -0.986 A 0.5 0.5 0 0 0 10.992 33 z m 1.201 0 a 0.5 0.5 0 0 0 -0.494 0.506 v 0.986 a 0.5 0.5 0 0 0 1 0 v -0.986 A 0.5 0.5 0 0 0 12.193 33 z m 1.199 0 a 0.5 0.5 0 0 0 -0.492 0.506 v 0.986 a 0.5 0.5 0 0 0 1 0 v -0.986 A 0.5 0.5 0 0 0 13.393 33 z m 1.199 0 a 0.5 0.5 0 0 0 -0.492 0.506 v 0.986 a 0.5 0.5 0 0 0 1 0 v -0.986 A 0.5 0.5 0 0 0 14.592 33 z"/><path d="M 33.492 33 A 0.5 0.5 0 0 0 33 33.506 v 0.986 a 0.5 0.5 0 0 0 1 0 v -0.986 A 0.5 0.5 0 0 0 33.492 33 z m 1.201 0 a 0.5 0.5 0 0 0 -0.494 0.506 v 0.986 a 0.5 0.5 0 0 0 1 0 v -0.986 A 0.5 0.5 0 0 0 34.693 33 z m 1.199 0 a 0.5 0.5 0 0 0 -0.492 0.506 v 0.986 a 0.5 0.5 0 0 0 1 0 v -0.986 A 0.5 0.5 0 0 0 35.893 33 z m 1.199 0 a 0.5 0.5 0 0 0 -0.492 0.506 v 0.986 a 0.5 0.5 0 0 0 1 0 v -0.986 A 0.5 0.5 0 0 0 37.09 33 z"/></g><path d="m 18.309 29.15 l 12.13 0.062 c 3.311 0.338 8.16 1.173 8.532 2.292 0 0.428 -0.892 0.772 -2 0.772 h -25.939 c -1.108 0 -2 -0.344 -2 -0.772 0.216 -0.835 3.83 -1.817 9.279 -2.354 z" style="fill:#ffdead"/><path d="M 29.633 29.5 A 5.633 2.166 0 0 1 24 31.666 5.633 2.166 0 0 1 18.367 29.5 5.633 2.166 0 0 1 24 27.333 a 5.633 2.166 0 0 1 5.633 2.166 z"/><g style="stroke-linecap:round;stroke-linejoin:round"><g transform="translate(0.307)" style="stroke:#dc143c;stroke-width:0.3"><path d="m 18.339 36.896 h 3.107 c 0.105 0 0.189 0.096 0.189 0.214 v 2.025 c 0 0.119 -0.084 0.214 -0.189 0.214 h -3.107 c -0.105 0 -0.189 -0.096 -0.189 -0.214 v -2.025 c 0 -0.119 0.084 -0.214 0.189 -0.214 z"/><path d="m 22.14 36.896 h 3.107 c 0.105 0 0.189 0.096 0.189 0.214 v 2.025 c 0 0.119 -0.084 0.214 -0.189 0.214 h -3.107 c -0.105 0 -0.189 -0.096 -0.189 -0.214 v -2.025 c 0 -0.119 0.084 -0.214 0.189 -0.214 z"/><path d="m 25.939 36.896 h 3.107 c 0.105 0 0.189 0.096 0.189 0.214 v 2.025 c 0 0.119 -0.084 0.214 -0.189 0.214 h -3.107 c -0.105 0 -0.189 -0.096 -0.189 -0.214 v -2.025 c 0 -0.119 0.084 -0.214 0.189 -0.214 z"/></g><g style="fill:#ffdead;stroke:#ffa07a"><path d="M 28.895 29.09 A 4.895 2 0 0 1 24 31.09 4.895 2 0 0 1 19.11 29.09 4.895 2 0 0 1 24 27.08 a 4.895 2 0 0 1 4.895 2 z" style="stroke-width:0.42"/><path d="m 22.842 28.28 l 2.433 1.612" style="stroke-width:0.244"/></g></g></g></g></svg>