<svg xmlns="http://www.w3.org/2000/svg" viewBox="0 0 256 256"><defs><clipPath><path d="m 148 97 h 77.63 v 24 h -77.62"/></clipPath><clipPath><path d="m 171 132 h 54.625 v 24 h -54.625"/></clipPath><clipPath><path d="m 27.707 56.824 h 82.29 v 139.69 h -82.29"/></clipPath><clipPath><path d="m 74 56.824 h 129 v 139.69 h -129"/></clipPath></defs><g transform="translate(0 -796.36)"><path d="m 195.83 822.74 c -130.93 -92.05 -263.6 77.948 -156.91 186.39 100.51 102.17 256.68 7.449 207.86 -119.69 c -10.185 -26.526 -26.914 -49.802 -50.948 -66.7 z" style="fill:#fff;color:#000"/><g transform="matrix(0.38497 0 0 0.44328 40.705 853.85)" style="fill:#ff4500;stroke:#ffdead;fill-rule:evenodd"><g><path d="m 85.965 125.09 c 2.914 -12.972 5.827 -102.34 32.05 -100.89 93.23 2.883 189.38 -93.69 259.3 121.07 c 215.6 100.89 14.991 181.97 -155.69 174.76 -168.66 -7.06 -312.66 -128.64 -135.66 -194.94 z" style="fill-opacity:0.992;stroke-linejoin:round;stroke-width:10"/><path d="m 81.59 153.92 c 107.8 67.743 285.53 25.944 292.81 -7.207 10.197 11.531 0 43.24 0 43.24 -46.616 60.54 -272.41 47.565 -297.18 4.324 -2.914 -11.531 2.914 -36.03 4.37 -40.36 z" style="fill:#ffdead;stroke-width:5"/></g><g style="stroke-width:1.25"><path d="m 122.38 45.816 c 27.678 -24.503 148.59 10.09 164.61 28.827 5.827 31.71 -148.59 7.207 -164.61 -28.827 z"/><path d="m 122.38 81.85 c 13.11 30.27 64.1 100.89 150.05 33.15 -71.38 2.883 -101.97 -5.765 -150.05 -33.15 z"/><path d="m 152.98 22.754 c 18.938 8.648 138.39 41.799 151.5 31.71 14.568 -5.765 11.654 -8.648 4.37 -10.09 -11.654 7.207 -32.05 11.531 -155.87 -21.62 z"/></g><path d="m 99.08 169.77 c 17.481 8.648 71.38 20.18 91.78 21.62 14.568 10.09 7.284 25.944 1.457 37.475 -39.33 0 -84.49 -10.09 -96.15 -23.06 -7.284 -12.972 -4.37 -23.06 2.914 -36.03 z" style="fill-opacity:0.317;stroke-width:2.348"/></g></g></svg>