<svg xmlns="http://www.w3.org/2000/svg" viewBox="0 0 256 256"><g transform="translate(0 -796.36)"><path d="m 44.834 1015.23 c -201.82 -266.38 353.59 -304.22 175.35 -32.31 -40.634 61.99 -121.89 102.86 -175.35 32.31 z" style="fill:#fff;color:#000"/><g transform="matrix(3.60929 0 0 3.52365 -1349.41 -931.03)" style="fill:#ff4500"><path d="m 392.58 503.8 c -0.006 0 -0.01 3.568 -0.01 8 v 24 c 0 4.432 0.004 8 0.01 8 h 21.803 h 10.178 c 0.006 0 0.01 -3.568 0.01 -8 v -1.656 v -18.344 l -12 -12 z"/><path d="m 392.57 542.8 h 32 v 1 h -32 z" style="fill-opacity:0.294"/><path d="m 424.56 513.79 c 0.006 -0.009 0.01 -2.226 0.01 -4.99 0 -2.77 -0.004 -5 -0.01 -5 h -9.98 c 0 0 0 0.01 0 0.01 l 9.98 9.98 z"/><path transform="translate(384.57 499.8)" d="m 17 16 v 16 l 12 12 h 0.813 h 10.178 c 0.006 0 0.01 -3.568 0.01 -8 v -1.656 v -9.344 l -9 -9 h -14 z" style="opacity:0.2;fill-rule:evenodd"/><path d="m 400.67 515.49 v 20.31 h 1.193 h 9.546 h 1.193 v -0.013 l 0.01 0.013 l 4.763 -5.067 v -0.01 v -1.785 v -13.448 h -1.193 h -14.318 h -1.193 z m 1.193 1.269 h 14.318 v 12.694 h -4.773 v 1.269 v 3.808 h -9.546 v -17.771 z" style="fill:#ffdead"/></g></g></svg>