<svg xmlns="http://www.w3.org/2000/svg" viewBox="0 0 256 256"><g transform="translate(0 -796.36)" style="color:#000"><path d="m 202.58 811.44 c -381.34 -111.21 -138.25 438.25 32.359 162.63 31.19 -50.643 33.36 -136.61 -32.359 -162.63 z" style="fill:#fff"/><g transform="translate(-4.33 -1.853)" style="stroke:#ff4500"><g style="stroke-width:8"><path d="m 79.28 848.27 c -2.085 0 -4.045 0.514 -5.75 1.438 -1.03 0.558 -1.931 1.272 -2.75 2.094 -0.537 0.539 -1.042 1.117 -1.469 1.75 -0.005 0.007 0.005 0.024 0 0.031 -0.21 0.313 -0.413 0.636 -0.594 0.969 -0.004 0.008 0.004 0.023 0 0.031 -0.363 0.675 -0.676 1.379 -0.906 2.125 -0.003 0.009 0.003 0.022 0 0.031 -0.113 0.368 -0.235 0.742 -0.313 1.125 -0.002 0.01 0.002 0.021 0 0.031 -0.077 0.383 -0.148 0.761 -0.188 1.156 -0.001 0.01 0.001 0.021 0 0.031 -0.039 0.396 -0.063 0.812 -0.063 1.219 0 0.01 0 0.021 0 0.031 v 70.906 v 1.969 v 37.438 c 0 6.671 5.36 12.03 12.03 12.03 h 37.22 h 44.781 c 0.834 0 1.652 -0.09 2.438 -0.25 1.178 -0.239 2.289 -0.665 3.313 -1.219 1.357 -0.738 2.586 -1.723 3.563 -2.906 0.005 -0.01 -0.005 -0.025 0 -0.031 0.484 -0.589 0.915 -1.2 1.281 -1.875 0.004 -0.01 -0.004 -0.023 0 -0.031 0.18 -0.334 0.351 -0.679 0.5 -1.031 0.004 -0.01 -0.004 -0.022 0 -0.031 0.148 -0.352 0.292 -0.694 0.406 -1.063 0.003 -0.01 -0.003 -0.022 0 -0.031 0.114 -0.368 0.203 -0.742 0.281 -1.125 0.002 -0.01 -0.002 -0.021 0 -0.031 0.078 -0.383 0.147 -0.792 0.188 -1.188 0.001 -0.01 -0.001 -0.021 0 -0.031 0.04 -0.396 0.061 -0.782 0.063 -1.188 v -0.031 v -70.906 v -1.969 v -37.438 c 0 -6.672 -5.36 -12.03 -12.03 -12.03 h -37.22 h -44.781 z" style="fill:#fffdee"/><path d="m 91.33 859.01 c -6.672 0 -12.03 5.391 -12.03 12.06 v 110.31 c 0 6.672 5.36 12.03 12.03 12.03 h 82 c 6.672 0 12.03 -5.36 12.03 -12.03 v -70.938 v -1.969 c -0.171 -0.207 -0.244 -0.463 -0.438 -0.656 l -48.813 -48.813 h -1.375 h -43.41 z" style="fill:#ffe4c4"/></g><path d="m 181.65 910.13 c -0.38 -0.821 -0.919 -1.6 -1.622 -2.275 l -45.47 -43.6 v 38.37 c 0 4.152 3.478 7.507 7.808 7.507 h 39.28 z" style="fill:#ff4500;stroke-width:7.896"/></g></g></svg>