<svg xmlns="http://www.w3.org/2000/svg" viewBox="0 0 256 256"><path d="m 260.02 66.64 c -48.541 -88.14 -200.63 -53.931 -226.36 18.64 -30.66 86.45 49.14 250.63 184.3 154.45 45.527 -33.585 90.6 -84.949 42.05 -173.09 z" transform="translate(-26.04 -13.02)" style="fill:#fff;color:#000"/><g transform="matrix(0.61848 0 0 0.55351 38.47 63.03)"><path d="m 135.86 252.19 c -1.265 -0.508 -8.02 -4.253 -15 -8.323 -6.985 -4.07 -14.275 -8.301 -16.2 -9.402 -1.925 -1.101 -9.35 -5.373 -16.5 -9.493 -7.15 -4.12 -17.5 -10.07 -23 -13.23 -5.5 -3.156 -11.995 -6.923 -14.434 -8.37 -2.439 -1.447 -8.289 -4.887 -13 -7.643 l -8.566 -5.01 l -0.257 -64.56 l -0.257 -64.56 l 8.757 -5.063 c 4.816 -2.785 15.282 -8.867 23.257 -13.516 37.4 -21.801 72.833 -42.32 76.06 -44.05 l 3.556 -1.903 l 45.44 25.91 c 24.994 14.251 49.822 28.35 55.17 31.33 l 9.728 5.422 l 0.022 65.821 c 0.017 51.36 -0.253 66.09 -1.228 67.05 -0.688 0.674 -7.1 4.529 -14.25 8.566 -7.15 4.04 -16.375 9.246 -20.5 11.577 -77.7 43.897 -73.25 41.667 -78.8 39.438 z" style="fill:#9b9b9b"/><path d="m 118.16 240.68 c -11.55 -6.834 -25.27 -14.839 -30.5 -17.787 -5.225 -2.949 -12.875 -7.395 -17 -9.88 -4.125 -2.485 -10.819 -6.489 -14.875 -8.898 -4.056 -2.408 -11.256 -6.714 -16 -9.569 -4.744 -2.854 -9.187 -5.217 -9.875 -5.25 -1.738 -0.083 0.106 -25.3 -1.369 -27.302 0 0 -0.427 -18.361 -0.107 -52.22 0.383 -40.569 -0.402 -48.552 1.026 -50.3 0.892 -1.092 14.179 -6.954 18.12 -9.274 3.941 -2.32 4.994 -1.868 9.03 -4.268 4.03 -2.4 13.853 -6.625 21.553 -11.146 c 21.18 -12.438 43.01 -25.286 52.5 -30.896 c 4.675 -2.765 8.831 -5.506 9.235 -6.092 0.508 -0.736 0.739 -0.716 0.75 0.067 0.008 0.623 24.751 15.248 54.983 32.5 l 54.967 31.367 l 0.033 64.724 l 0.033 64.724 l -3.25 1.667 c -6.823 3.5 -101.38 56.763 -103.9 58.53 -1.46 1.021 -3.035 1.827 -3.5 1.791 -0.465 -0.036 -10.296 -5.657 -21.846 -12.491 z" style="fill:#505151"/><path d="m 134.16 249.03 c -5.341 -3.432 -11.39 -6.969 -27.29 -15.959 -2.593 -1.466 -5.164 -3.057 -5.714 -3.534 -1.115 -0.968 -14.937 -8.772 -20.75 -11.716 -2.063 -1.045 -3.75 -2.277 -3.75 -2.738 0 -0.462 -2.588 -2.461 -5.75 -4.443 -3.162 -1.982 -6.586 -4.72 -7.609 -6.085 -1.841 -2.459 -1.833 -2.509 0.859 -5.319 1.502 -1.567 2.401 -3.349 2.01 -3.981 -0.994 -1.608 2.486 -5.154 4.447 -4.531 2.15 0.682 10.331 -7.569 9.542 -9.624 -0.664 -1.731 2.674 -5.121 4.651 -4.725 2.01 0.403 8.06 -5.793 7.665 -7.849 -0.187 -0.969 -1.78 -2.668 -3.54 -3.776 -1.76 -1.107 -3.218 -2.584 -3.239 -3.281 -0.024 -0.774 2.52 0.138 6.534 2.344 3.615 1.986 6.807 3.377 7.094 3.09 0.542 -0.542 -7.04 -5.663 -8.397 -5.671 -0.423 -0.003 -1.895 -1.015 -3.27 -2.25 l -2.5 -2.245 l 0.5 -31.446 l 0.5 -31.446 l 10.5 -6.33 c 5.775 -3.482 12.409 -7.297 14.743 -8.478 2.334 -1.181 4.04 -2.353 3.788 -2.603 -0.772 -0.772 -29.591 16.05 -30.543 17.824 -0.493 0.921 -0.901 15.09 -0.908 31.492 -0.007 16.4 -0.417 30.22 -0.911 30.717 -1.242 1.242 -1.82 -20.409 -1.188 -44.572 0.509 -19.469 0.564 -19.878 2.929 -21.79 1.325 -1.072 3.035 -2.299 3.8 -2.726 2.531 -1.417 2.417 -6.675 -0.198 -9.131 -1.3 -1.221 -2.798 -1.952 -3.329 -1.624 -1.26 0.779 -9.349 -7.31 -8.57 -8.57 0.88 -1.424 -3.587 -5.764 -5.269 -5.119 -0.889 0.341 -3.545 -1.6 -6.915 -5.05 -4.977 -5.097 -5.357 -5.797 -4.201 -7.731 1.083 -1.811 14.924 -11.913 21.272 -15.527 1.1 -0.626 5.825 -3.488 10.5 -6.359 4.675 -2.871 9.782 -5.965 11.349 -6.875 1.567 -0.91 4.717 -2.812 7 -4.227 c 20.388 -12.635 28.819 -17.04 31.12 -16.248 1.312 0.451 26.473 14.545 55.913 31.32 l 53.53 30.5 l -0.003 64 l -0.003 64 l -5.7 2.717 c -3.135 1.494 -13.8 7.292 -23.7 12.883 -9.9 5.591 -31.725 17.805 -48.5 27.14 -16.775 9.337 -30.95 17.523 -31.5 18.19 -0.757 0.919 -2.46 0.276 -7 -2.64 z m 10.468 -61.16 c 0.018 -0.48 -0.643 -0.312 -1.468 0.372 -0.825 0.685 -1.5 1.951 -1.5 2.814 0 1.256 0.293 1.182 1.468 -0.372 0.808 -1.068 1.482 -2.334 1.5 -2.814 z m 78.03 -18.07 c 0 -0.244 -3.037 -2.699 -6.75 -5.456 -8.796 -6.531 -9.387 -7.07 -8.795 -8.03 0.275 -0.444 0.772 -7.178 1.105 -14.963 0.552 -12.895 0.442 -14.308 -1.229 -15.882 -1.622 -1.527 -1.799 -3.147 -1.524 -13.978 0.27 -10.66 0.53 -12.265 2 -12.366 1.525 -0.105 1.519 -0.161 -0.059 -0.573 -3.591 -0.938 -1.775 -4.21 5.242 -9.444 3.846 -2.869 6.826 -5.381 6.624 -5.584 -0.416 -0.416 -17.597 8.435 -19.07 9.821 -0.523 0.493 -1.699 0.897 -2.614 0.897 -1.223 0 -1.834 1.237 -2.304 4.667 -0.757 5.522 0.4 55.767 1.318 57.25 0.348 0.563 6.239 3.948 13.09 7.521 13.357 6.966 12.959 6.778 12.959 6.116 z m -17.188 -40.24 c 0.722 -0.289 1.584 -0.253 1.917 0.079 0.332 0.332 -0.258 0.569 -1.313 0.525 -1.165 -0.048 -1.402 -0.285 -0.604 -0.604 z m -8.166 -12.317 c -1.191 -4.04 -0.34 -19.275 1.104 -19.753 1.403 -0.464 1.534 5.958 0.333 16.253 -0.56 4.799 -0.848 5.5 -1.437 3.5 z m -54.963 -56.19 c -0.319 -0.798 -0.556 -0.561 -0.604 0.604 -0.043 1.054 0.193 1.645 0.525 1.313 0.332 -0.332 0.368 -1.195 0.079 -1.917 z" style="fill:#384d4d"/><path d="m 136.54 250.39 c -1.312 -1.015 -6.885 -4.45 -12.385 -7.633 -11.509 -6.66 -17.938 -10.534 -25 -15.06 -2.75 -1.764 -8.823 -5.217 -13.495 -7.672 -4.673 -2.455 -8.523 -5.099 -8.557 -5.875 -0.034 -0.776 -0.435 -2.232 -0.89 -3.236 -0.675 -1.487 2.158 -4.832 15.299 -18.06 l 16.13 -16.235 l 5.258 2.152 c 2.892 1.184 7.606 3.348 10.475 4.81 12.629 6.434 6.147 1.032 -11.217 -9.346 -4.95 -2.959 -11.53 -7.093 -14.621 -9.188 -3.092 -2.095 -6.02 -3.811 -6.5 -3.813 -0.483 -0.003 -2 -1.015 -3.379 -2.25 l -2.5 -2.245 l 0.5 -31.446 l 0.5 -31.446 l 10.5 -6.33 c 5.775 -3.482 12.412 -7.298 14.75 -8.482 2.338 -1.183 4.25 -2.478 4.25 -2.877 0 -0.399 2.506 -2.389 5.568 -4.421 3.062 -2.033 5.362 -3.902 5.111 -4.153 -0.251 -0.251 -3.545 1.114 -7.318 3.034 -12.255 6.235 -11.887 6.203 -16.44 1.418 -2.192 -2.304 -9.695 -9.96 -16.673 -17.01 l -12.687 -12.823 l 2.912 -2.731 c 1.602 -1.502 4.373 -3.631 6.159 -4.731 1.786 -1.1 9.237 -5.743 16.558 -10.318 7.321 -4.575 13.985 -8.709 14.81 -9.187 0.825 -0.478 5.775 -3.438 11 -6.579 5.225 -3.141 10.672 -6.402 12.1 -7.248 2.535 -1.496 3.092 -1.262 21 8.822 10.118 5.697 33.25 18.91 51.4 29.361 18.15 10.451 34.912 20.09 37.25 21.411 l 4.25 2.409 v 63.914 c 0 54.856 -0.203 63.915 -1.435 63.915 -1.349 0 -10.629 5.04 -49.07 26.671 -18.608 10.47 -19.571 11.01 -42 23.392 -9.35 5.163 -17.15 9.736 -17.333 10.162 -0.524 1.218 -1.706 0.922 -4.282 -1.071 z m 7.535 -49.25 c 0.825 -7.7 0.845 -7.734 6.597 -11.471 7.334 -4.764 39.619 -24.21 43.733 -26.339 2.562 -1.327 2.989 -3.095 0.748 -3.095 -0.826 0 -6.114 2.634 -11.75 5.853 -5.636 3.219 -13.623 7.641 -17.748 9.826 -11.08 5.869 -19.11 10.356 -22.563 12.608 l -3.063 1.997 l 0.362 8.609 c 0.199 4.735 0.624 9.734 0.943 11.11 l 0.581 2.5 l 0.734 -2.563 c 0.404 -1.41 1.045 -5.474 1.427 -9.03 z m 99.46 -20.16 c -2.54 -1.787 -6.67 -4.681 -9.178 -6.431 l -4.56 -3.181 l 0.112 -21.998 c 0.078 -15.199 -0.241 -22.425 -1.032 -23.377 -0.772 -0.931 -1.181 -8.343 -1.258 -22.804 l -0.113 -21.425 l 2.826 -2.33 c 1.555 -1.282 5.238 -3.903 8.186 -5.824 6.526 -4.255 6.111 -5.664 -0.557 -1.891 -4.836 2.736 -11.22 6.183 -30.03 16.213 l -10.231 5.455 l -2.269 -2.446 c -1.248 -1.345 -6.994 -5.296 -12.769 -8.779 -5.775 -3.483 -13.934 -8.717 -18.13 -11.632 -4.197 -2.915 -8.247 -5.306 -9 -5.315 -1.047 -0.012 -1.078 -0.2 -0.132 -0.801 0.868 -0.551 -0.273 -2.26 -3.828 -5.735 -6.282 -6.138 -7.694 -8.772 -8.534 -15.919 -1.016 -8.646 -2.171 -5.284 -2.526 7.357 -0.295 10.479 -0.162 11.483 1.666 12.585 4.952 2.987 26.964 15.784 36.34 21.13 5.696 3.245 11.771 6.709 13.5 7.697 l 3.144 1.796 l 0.28 31.2 c 0.154 17.16 0.522 31.991 0.817 32.954 0.296 0.963 1.258 1.75 2.138 1.75 0.88 0 5.462 2.09 10.183 4.644 4.72 2.554 12.407 6.691 17.08 9.193 4.675 2.502 11.2 6.02 14.5 7.829 7.694 4.206 9.289 4.246 3.376 0.084 z m 3.651 -113.56 c -0.308 -0.308 -1.115 -0.001 -1.793 0.683 -0.98 0.988 -0.865 1.102 0.56 0.56 0.986 -0.376 1.541 -0.935 1.233 -1.243 z" style="fill:#cf0101"/><path d="m 136.54 250.39 c -1.312 -1.015 -6.885 -4.45 -12.385 -7.633 -11.509 -6.66 -17.938 -10.534 -25 -15.06 -2.75 -1.764 -8.823 -5.217 -13.495 -7.672 -4.673 -2.455 -8.523 -5.099 -8.557 -5.875 -0.034 -0.776 -0.435 -2.232 -0.89 -3.236 -0.675 -1.487 2.158 -4.832 15.299 -18.06 l 16.13 -16.235 l 5.258 2.152 c 2.892 1.184 7.606 3.348 10.475 4.81 12.629 6.434 6.147 1.032 -11.217 -9.346 -4.95 -2.959 -11.53 -7.093 -14.621 -9.188 -3.092 -2.095 -6.02 -3.811 -6.5 -3.813 -0.483 -0.003 -2.076 -1.015 -3.539 -2.25 -2.491 -2.103 -2.622 -2.626 -2.058 -8.245 0.5 -4.983 0.709 -5.492 1.237 -3 0.504 2.38 0.785 1.554 1.358 -4 1.245 -12.06 1.76 -14.5 3.064 -14.5 0.696 0 5.433 -4.308 10.527 -9.574 l 9.262 -9.574 l 5.135 2.183 c 2.824 1.201 9.298 4.408 14.385 7.127 5.088 2.719 9.25 4.52 9.25 4 0 -0.517 -4.829 -3.803 -10.731 -7.303 -7.69 -4.56 -13.429 -8.987 -20.25 -15.621 l -9.519 -9.257 l 4.5 -3.963 c 2.475 -2.179 4.04 -3.976 3.476 -3.993 -0.563 -0.016 -4.576 1.995 -8.918 4.469 -4.342 2.474 -8.02 4.37 -8.18 4.212 -0.293 -0.293 11.309 -7.376 19.945 -12.176 2.653 -1.474 5.675 -3.532 6.716 -4.574 1.041 -1.041 3.751 -3.066 6.02 -4.499 6.279 -3.963 4.03 -4.01 -3.7 -0.083 -12.255 6.235 -11.887 6.203 -16.44 1.418 -2.192 -2.304 -9.695 -9.96 -16.673 -17.01 l -12.687 -12.823 l 2.912 -2.731 c 1.602 -1.502 4.373 -3.631 6.159 -4.731 1.786 -1.1 9.237 -5.743 16.558 -10.318 7.321 -4.575 13.985 -8.709 14.81 -9.187 0.825 -0.478 5.775 -3.438 11 -6.579 5.225 -3.141 10.672 -6.402 12.1 -7.248 2.535 -1.496 3.092 -1.262 21 8.822 10.118 5.697 33.25 18.91 51.4 29.361 18.15 10.451 34.912 20.09 37.25 21.411 l 4.25 2.409 v 63.914 c 0 54.856 -0.203 63.915 -1.435 63.915 -1.349 0 -10.629 5.04 -49.07 26.671 -18.608 10.47 -19.571 11.01 -42 23.392 -9.35 5.163 -17.15 9.736 -17.333 10.162 -0.524 1.218 -1.706 0.922 -4.282 -1.071 z m 7.535 -49.25 c 0.825 -7.7 0.845 -7.734 6.597 -11.471 7.334 -4.764 39.619 -24.21 43.733 -26.339 2.562 -1.327 2.989 -3.095 0.748 -3.095 -0.826 0 -6.114 2.634 -11.75 5.853 -5.636 3.219 -13.623 7.641 -17.748 9.826 -11.08 5.869 -19.11 10.356 -22.563 12.608 l -3.063 1.997 l 0.362 8.609 c 0.199 4.735 0.624 9.734 0.943 11.11 l 0.581 2.5 l 0.734 -2.563 c 0.404 -1.41 1.045 -5.474 1.427 -9.03 z m 99.46 -20.16 c -2.54 -1.787 -6.67 -4.681 -9.178 -6.431 l -4.56 -3.181 l 0.112 -21.998 c 0.078 -15.199 -0.241 -22.425 -1.032 -23.377 -0.772 -0.931 -1.181 -8.343 -1.258 -22.804 l -0.113 -21.425 l 2.826 -2.33 c 1.555 -1.282 5.238 -3.903 8.186 -5.824 6.526 -4.255 6.111 -5.664 -0.557 -1.891 -4.836 2.736 -11.22 6.183 -30.03 16.213 l -10.231 5.455 l -2.269 -2.446 c -1.248 -1.345 -6.994 -5.296 -12.769 -8.779 -5.775 -3.483 -13.934 -8.717 -18.13 -11.632 -4.197 -2.915 -8.247 -5.306 -9 -5.315 -1.047 -0.012 -1.078 -0.2 -0.132 -0.801 0.868 -0.551 -0.273 -2.26 -3.828 -5.735 -6.282 -6.138 -7.694 -8.772 -8.534 -15.919 -1.016 -8.646 -2.171 -5.284 -2.526 7.357 -0.295 10.479 -0.162 11.483 1.666 12.585 4.952 2.987 26.964 15.784 36.34 21.13 5.696 3.245 11.771 6.709 13.5 7.697 l 3.144 1.796 l 0.28 31.2 c 0.154 17.16 0.522 31.991 0.817 32.954 0.296 0.963 1.258 1.75 2.138 1.75 0.88 0 5.462 2.09 10.183 4.644 4.72 2.554 12.407 6.691 17.08 9.193 4.675 2.502 11.2 6.02 14.5 7.829 7.694 4.206 9.289 4.246 3.376 0.084 z m -99.88 -39.76 c 0 -1.04 0.471 -4.051 1.047 -6.691 0.928 -4.254 1.752 -5.327 7.25 -9.447 8.092 -6.06 37.768 -24.524 40.17 -24.99 2.252 -0.436 3.3 -2.861 1.236 -2.861 -0.803 0 -2.02 0.675 -2.706 1.5 -0.685 0.825 -1.618 1.5 -2.074 1.5 -0.456 0 -5.688 2.76 -11.628 6.133 -18.745 10.646 -23.638 13.338 -29.799 16.392 -3.3 1.636 -6.149 3.049 -6.332 3.14 -0.182 0.091 -0.013 4.244 0.377 9.23 0.39 4.986 1.102 8.823 1.582 8.526 0.48 -0.297 0.873 -1.391 0.873 -2.431 z m 103.53 -73.8 c -0.308 -0.308 -1.115 -0.001 -1.793 0.683 -0.98 0.988 -0.865 1.102 0.56 0.56 0.986 -0.376 1.541 -0.935 1.233 -1.243 z m -161.53 27.429 c 0 -0.208 0.787 -0.995 1.75 -1.75 1.586 -1.244 1.621 -1.209 0.378 0.378 -1.306 1.666 -2.128 2.195 -2.128 1.372 z" style="fill:#9c0101"/><path d="m 139.33 187.57 c -0.367 -0.367 -0.7 -3.854 -0.741 -7.75 -0.041 -3.896 -0.397 -9.108 -0.792 -11.583 l -0.718 -4.5 l -0.735 6.737 c -0.404 3.706 -0.996 7.418 -1.315 8.25 -0.812 2.115 -5.321 1.895 -11.579 -0.567 -5.6 -2.202 -30.787 -15.716 -30.787 -16.518 0 -0.26 0.9 0.009 2 0.598 1.536 0.822 2 0.76 2 -0.265 0 -0.734 -0.549 -1.884 -1.219 -2.555 -0.959 -0.959 2.382 -4.826 15.664 -18.13 l 16.884 -16.906 l -1.713 -2.614 c -1.633 -2.492 -1.629 -2.572 0.086 -1.71 0.989 0.497 4.33 2.057 7.424 3.467 l 5.625 2.563 l 0.646 18.822 c 1.091 31.804 2.257 38.771 4.07 24.322 l 0.69 -5.5 l 23.09 -22.75 c 12.699 -12.512 23.19 -22.75 23.305 -22.75 0.119 0 0.533 1.013 0.921 2.25 l 0.706 2.25 l 0.811 -2.5 c 0.979 -3.02 1.291 25.02 0.364 32.735 l -0.629 5.235 l -9.113 5.382 c -5.01 2.96 -11.363 6.648 -14.11 8.195 -2.75 1.547 -10.234 5.882 -16.63 9.633 -11.642 6.827 -12.959 7.398 -14.203 6.153 z m 16.333 -74.33 c 1.175 -1.65 1.668 -3 1.095 -3 -0.573 0 -8.474 -7.292 -17.559 -16.205 l -16.517 -16.205 l 2.491 -2.6 c 3.411 -3.56 3.125 -4.282 -1.01 -2.555 -1.925 0.804 -3.5 1.298 -3.5 1.098 0 -0.563 18.16 -10.534 19.18 -10.534 1.179 0 38.629 22.09 45.979 27.13 3.112 2.131 6.348 3.874 7.191 3.874 0.843 0 1.853 0.52 2.246 1.155 0.444 0.718 0.274 0.883 -0.448 0.437 -0.639 -0.395 -2.396 0.149 -3.905 1.209 -4.406 3.094 -34.684 19.2 -36.09 19.2 -0.858 0 -0.575 -0.997 0.851 -3 z m -39 -37.39 c 0 -0.216 0.698 -0.661 1.552 -0.989 0.89 -0.341 1.291 -0.174 0.941 0.393 -0.587 0.95 -2.493 1.405 -2.493 0.596 z" style="fill:#620202"/><g transform="matrix(1.61687 0 0 1.80666 -62.2 -113.87)" style="fill-rule:evenodd"><path d="m 74.04 176.34 c -6.159 -3.305 -12.529 -6.653 -14.156 -7.44 l -2.958 -1.431 l -0.277 -2.042 c -0.152 -1.123 -0.284 -17.01 -0.293 -35.31 -0.012 -25.909 0.083 -33.386 0.431 -33.806 0.246 -0.296 3.497 -1.885 7.225 -3.531 15.15 -6.689 19.914 -8.836 22.619 -10.195 1.56 -0.784 2.909 -1.353 2.998 -1.265 0.089 0.089 -1.06 0.831 -2.553 1.651 -3.729 2.047 -11.31 7.151 -11.727 7.896 -0.232 0.415 -0.175 0.932 0.178 1.615 0.737 1.424 5.106 4.926 6.674 5.348 1.754 0.472 3.219 1.668 3.219 2.627 0 1.155 3.974 4.802 5.556 5.099 1.59 0.298 3.113 2.026 3.113 3.533 0 0.785 -0.321 1.368 -1.128 2.049 -3.362 2.836 -3.478 3.01 -3.786 5.665 -0.393 3.391 -0.403 29.956 -0.012 31.77 0.65 3.02 0.934 -0.257 1.135 -13.1 0.245 -15.68 0.487 -20.681 0.958 -19.838 0.212 0.379 0.215 6.894 0.007 17.314 l -0.332 16.707 l 0.798 0.836 c 0.439 0.46 2.328 1.649 4.198 2.643 3.815 2.027 3.443 2.087 -1.115 0.18 -2.01 -0.839 -3.12 -1.142 -3.212 -0.873 -0.078 0.227 0.19 0.668 0.596 0.981 0.406 0.313 1.323 1.023 2.038 1.577 0.715 0.555 1.3 1.233 1.3 1.507 0 0.924 -3.209 3.765 -4.533 4.01 -1.749 0.328 -3.052 1.442 -3.052 2.608 0 1.394 -3.809 4.953 -5.668 5.297 -1.632 0.301 -3 1.461 -3 2.541 0 0.426 -0.569 1.44 -1.264 2.252 -0.695 0.812 -1.264 1.632 -1.264 1.822 0 0.674 2.035 2.39 5.509 4.646 3.284 2.133 3.929 2.661 3.251 2.66 -0.149 0 -5.31 -2.704 -11.469 -6.01 z" style="fill:#ff4500"/><g style="fill:#ff7f50"><path d="m 182.05 160.54 c -3.775 -1.839 -6.63 -3.424 -6.345 -3.522 0.315 -0.109 -1.36 -1.501 -4.284 -3.56 l -4.801 -3.382 l 0.219 -1.472 c 0.121 -0.81 0.326 -4.501 0.456 -8.202 0.235 -6.705 0.233 -6.735 -0.632 -7.947 -0.83 -1.164 -0.867 -1.46 -0.839 -6.816 0.031 -6.209 0.217 -7.453 1.146 -7.702 0.535 -0.143 0.507 -0.209 -0.181 -0.43 -1.881 -0.604 -0.806 -2.091 4.03 -5.576 2.466 -1.777 3.07 -2.37 2.586 -2.54 -0.43 -0.151 1.703 -1.345 6.675 -3.738 4.02 -1.934 7.37 -3.454 7.446 -3.377 0.076 0.076 -1.839 1.422 -4.257 2.991 l -4.396 2.852 l 0.224 11.413 c 0.166 8.463 0.367 11.961 0.776 13.532 0.438 1.683 0.552 4.462 0.552 13.541 v 11.422 l 4.515 2.824 c 2.483 1.553 4.515 2.881 4.515 2.951 0 0.304 -0.916 -0.099 -7.405 -3.261 z"/><path d="m 89.24 145.33 c -0.172 -1.987 -0.234 -9.388 -0.137 -16.448 0.2 -14.582 0.212 -14.647 3.082 -16.705 1.804 -1.294 2.374 -2.361 2.031 -3.807 -0.329 -1.386 -1.166 -2.227 -3.01 -3.02 -2.359 -1.018 -4.687 -3.076 -5.423 -4.793 -0.675 -1.575 -1.695 -2.449 -3.331 -2.851 -1.309 -0.322 -5.33 -3.437 -6.318 -4.893 -0.436 -0.643 -0.709 -1.386 -0.607 -1.652 0.206 -0.536 3.303 -2.791 7.118 -5.181 2.495 -1.564 3.609 -1.864 1.886 -0.509 -0.507 0.399 -0.922 0.801 -0.922 0.893 0 0.228 18.261 16.858 19.656 17.9 1.427 1.066 2.43 0.895 7.375 -1.256 3.866 -1.682 5.087 -1.891 2.698 -0.463 -0.755 0.452 -1.943 1.241 -2.638 1.754 -0.695 0.513 -2.455 1.451 -3.911 2.084 -2.716 1.181 -14.12 7.303 -15.414 8.275 -0.915 0.687 -1.159 3.885 -1.276 16.767 -0.046 5.066 -0.188 11.08 -0.315 13.365 l -0.231 4.154 l -0.313 -3.612 z"/></g><g style="fill:#fa8072"><path d="m 82.35 179.43 c -3.167 -2.124 -5.238 -3.833 -5.238 -4.322 0 -0.133 0.569 -0.987 1.264 -1.897 0.695 -0.911 1.264 -1.981 1.264 -2.379 0 -0.871 1.15 -1.738 2.955 -2.226 1.822 -0.493 5.265 -3.786 5.574 -5.331 0.266 -1.331 1.162 -2.093 3.064 -2.608 1.302 -0.352 3.59 -2.275 4.312 -3.625 0.412 -0.769 -0.282 -1.671 -2.72 -3.535 l -1.084 -0.829 l 1.084 0.233 c 0.596 0.128 2.146 0.699 3.444 1.268 1.298 0.569 2.761 1.107 3.251 1.196 0.49 0.089 4.304 2.071 8.477 4.404 11.03 6.169 11.307 6.457 2.911 3.047 -2.956 -1.201 -5.578 -2.135 -5.827 -2.077 -0.686 0.16 -16.959 14.944 -18.445 16.758 -1.125 1.373 -1.265 1.751 -1.059 2.85 0.131 0.697 0.19 1.264 0.131 1.26 -0.059 -0.004 -1.57 -0.989 -3.358 -2.188 z"/><path d="m 167.2 152.95 c -6.215 -3.04 -6.925 -3.48 -7.129 -4.418 -0.338 -1.551 -0.751 -30.09 -0.458 -31.657 0.201 -1.074 0.451 -1.393 1.23 -1.573 0.538 -0.124 1.628 -0.596 2.422 -1.048 2.14 -1.217 8.909 -4.211 9.1 -4.02 0.089 0.089 -0.458 0.626 -1.216 1.192 -0.758 0.566 -1.433 1.152 -1.499 1.301 -0.066 0.149 -0.304 0.271 -0.528 0.271 -0.646 0 -3.506 2.976 -3.506 3.649 0 0.335 0.28 0.716 0.622 0.847 0.507 0.194 0.529 0.296 0.123 0.547 -0.346 0.214 -0.6 1.624 -0.827 4.586 -0.428 5.576 -0.179 8.468 0.847 9.856 0.774 1.047 0.787 1.243 0.57 8.583 -0.122 4.131 -0.296 7.856 -0.387 8.278 -0.122 0.568 0.177 1.013 1.16 1.722 0.729 0.526 2.585 1.859 4.124 2.962 2.683 1.922 3.125 2.325 2.529 2.309 -0.149 -0.004 -3.377 -1.527 -7.173 -3.383 z m -0.774 -18.16 c -0.248 -0.1 -0.655 -0.1 -0.903 0 -0.248 0.1 -0.045 0.182 0.452 0.182 0.497 0 0.7 -0.082 0.452 -0.182 z m -4.807 -9.866 c 0.691 -5.531 0.375 -8.816 -0.741 -7.7 -0.495 0.495 -0.921 8.861 -0.53 10.419 0.397 1.582 0.856 0.599 1.271 -2.719 z"/><path d="m 159.49 115.34 c -0.028 -0.577 -3.336 -2.428 -16.459 -9.211 -9.03 -4.669 -16.427 -8.702 -16.429 -8.962 -0.003 -0.26 -0.151 -0.383 -0.328 -0.273 -0.548 0.339 -0.76 -0.807 -0.76 -4.107 0 -3.805 0.364 -7.609 0.728 -7.609 0.145 0 0.37 0.691 0.501 1.535 0.576 3.729 1.27 4.973 4.605 8.252 1.943 1.91 3.126 3.344 3.01 3.647 -0.126 0.329 0.397 0.787 1.533 1.339 1.892 0.919 17.644 9.929 20.466 11.706 2.466 1.553 4.738 3.503 4.081 3.503 -0.3 0 -0.628 0.203 -0.728 0.452 -0.1 0.248 -0.198 0.126 -0.217 -0.271 z"/><path d="m 126.1 179.1 c -0.288 -0.691 -0.92 -10.205 -0.702 -10.566 0.304 -0.504 0.822 -0.275 0.613 0.271 -0.395 1.028 0.587 0.539 1.397 -0.697 0.446 -0.681 1.301 -1.48 1.9 -1.774 27.381 -13.486 32.559 -15.845 29.886 -13.616 -0.452 0.377 -3.541 2.105 -6.863 3.839 -10.621 5.545 -22.265 12.09 -23.285 13.09 -0.838 0.821 -1.102 1.604 -1.727 5.121 -0.859 4.837 -0.92 5.05 -1.219 4.332 z"/></g></g></g></svg>