<svg xmlns="http://www.w3.org/2000/svg" viewBox="0 0 256 256"><defs><clipPath><path transform="matrix(15.33333 0 0 11.5 415 -125.5)" d="m -24 13 c 0 1.105 -0.672 2 -1.5 2 -0.828 0 -1.5 -0.895 -1.5 -2 0 -1.105 0.672 -2 1.5 -2 0.828 0 1.5 0.895 1.5 2 z"/></clipPath><clipPath><circle r="435.85" cy="510.69" cx="515.44" style="fill:none;stroke:#000;stroke-width:11.248"/></clipPath><clipPath><circle r="435.85" cy="510.69" cx="515.44" style="fill:none;stroke:#000;stroke-width:11.248"/></clipPath></defs><g transform="translate(0 -796.36)"><path d="m 129.23 1061.48 c -11.11 -1.138 -25.02 -4.168 -35.1 -7.647 -34.596 -11.937 -58.64 -34.3 -68.864 -64.07 -3.903 -11.361 -5.365 -20.77 -5.325 -34.28 0.059 -20.237 4.829 -40.687 15.195 -65.15 2.903 -6.85 10.131 -21.274 13.418 -26.773 19.627 -32.842 57.839 -54.967 97.6 -56.51 19.859 -0.77 35.75 2.168 51.48 9.518 12.376 5.782 22.18 12.688 31.861 22.44 10.788 10.87 17.371 20.323 25.01 35.914 13.207 26.959 19.776 50.55 20.533 73.74 0.621 19.02 -2.544 35.01 -9.899 50 -10.225 20.849 -26.93 36.862 -50.29 48.21 -16.459 7.994 -32.464 12.478 -51.52 14.431 -7.739 0.793 -27.07 0.89 -34.09 0.171 z m -26.476 -59.56 c 1.508 -1.252 1.722 -4.502 1.725 -26.26 l 0.003 -22 l 2.825 -1.171 c 3.458 -1.433 7.678 -5.423 9.464 -8.948 2.8 -5.525 2.888 -12.31 0.231 -17.751 -1.716 -3.514 -6.159 -7.757 -9.616 -9.184 l -2.904 -1.198 v -22.399 c 0 -24.94 -0.047 -25.34 -3.139 -26.632 -2.119 -0.885 -4.04 -0.512 -5.534 1.074 l -1.176 1.252 l -0.141 23.44 l -0.141 23.44 l -1.359 0.341 c -3.484 0.874 -9 5.442 -10.818 8.955 -3.294 6.372 -3.189 13.787 0.281 19.706 1.784 3.044 5.831 6.55 9.15 7.925 l 2.776 1.151 l 0.007 22.762 c 0.006 17.18 0.162 23.07 0.638 24.02 0.915 1.831 3.592 3.048 5.501 2.501 0.84 -0.241 1.842 -0.699 2.227 -1.019 z m 49.5 0 c 1.424 -1.182 1.722 -4.472 1.725 -19.03 0.002 -11.53 0.142 -14.773 0.638 -14.773 1.307 0 5.757 -2.712 7.975 -4.86 10.301 -9.976 6.4 -27.528 -7.221 -32.49 l -1.389 -0.506 l -0.003 -29.433 c -0.002 -18.892 -0.192 -30.11 -0.53 -31.33 -1 -3.6 -5.379 -4.793 -7.994 -2.179 l -1.322 1.322 l -0.253 30.889 l -0.253 30.889 l -1.266 0.338 c -3.597 0.961 -8.153 4.615 -10.279 8.244 -4.171 7.118 -3.537 16.701 1.503 22.723 1.975 2.359 6.06 5.285 8.314 5.962 l 1.981 0.593 l 0.007 15.451 c 0.008 16.938 0.077 17.379 2.941 18.815 1.736 0.871 3.933 0.62 5.426 -0.619 z m 46.972 0 c 1.576 -1.308 1.722 -4.502 1.725 -37.666 l 0.003 -33.407 l 1.389 -0.342 c 2.16 -0.532 5.228 -2.493 7.51 -4.801 7.429 -7.514 7.313 -19.917 -0.259 -27.587 -2.133 -2.16 -6.48 -4.739 -8.01 -4.751 -0.485 -0.004 -0.632 -2.543 -0.634 -10.99 -0.002 -6.074 -0.239 -11.834 -0.53 -12.884 -1 -3.599 -5.378 -4.793 -7.994 -2.179 l -1.322 1.321 l -0.152 12.09 l -0.152 12.09 l -2.796 1.28 c -7.422 3.398 -11.801 10.06 -11.801 17.964 0 7.802 4.393 14.537 11.685 17.915 l 2.71 1.255 l 0.253 34.568 l 0.253 34.568 l 1.199 1.276 c 0.66 0.702 1.682 1.354 2.273 1.449 1.323 0.214 3.71 -0.384 4.649 -1.163 z" style="fill:#a0522d;fill-opacity:0"/><path d="m 199.05 829.58 c 12.374 8.366 24.83 19.614 33.07 29.863 28.763 35.784 29.964 76.896 3.311 113.32 -14.323 19.575 -36.704 38.33 -65.827 55.15 -34.758 20.08 -76.37 26.872 -107.09 17.477 -6.489 -1.985 -17.78 -7.647 -23.303 -11.687 -18.469 -13.507 -29.344 -33.789 -33.911 -63.24 -4.368 -28.17 -4.82 -54.629 -1.317 -77.08 c 7.205 -46.19 32.23 -77.12 71.19 -88.01 c 27.387 -7.654 58.09 -5.239 91.07 7.16 4.935 1.856 28.29 13.988 32.81 17.04 z" style="fill:#fff"/><path d="m 47.23 984.49 c -0.817 -1.841 -1.506 -4.718 -1.539 -6.39 -0.075 -4.05 2.644 -19.05 3.74 -20.643 1.149 -1.668 5.075 -1.593 9.787 0.182 4.3 1.621 19.846 4.597 20.631 3.947 0.278 -0.234 -1.117 -2.153 -3.104 -4.27 -7.078 -7.54 -7.864 -10.03 -6.298 -20.12 1.843 -11.879 1.806 -12.636 -0.614 -12.636 -3.611 0 -7.784 -4.793 -6.907 -7.932 0.438 -1.57 0.203 -4.256 -0.524 -5.965 -1.036 -2.448 -0.716 -4.03 1.49 -7.385 1.549 -2.35 3.355 -4.27 4.02 -4.27 0.662 0 2.153 -2.032 3.312 -4.517 2.794 -5.989 6.03 -9.04 8.761 -8.268 1.362 0.388 3.782 -0.831 6.224 -3.134 5.396 -5.087 10.289 -7.278 13.1 -5.872 1.368 0.687 3.563 0.663 5.684 -0.061 2.212 -0.752 3.745 -0.757 4.263 -0.005 0.443 0.645 1.768 1.173 2.944 1.173 1.693 0 1.971 -0.906 1.336 -4.419 -0.652 -3.602 -0.059 -5.381 3.211 -9.637 5.577 -7.264 11.502 -8.955 19.328 -5.526 5.919 2.597 11.865 9.268 11.865 13.313 0 1.257 -1.223 3.681 -2.719 5.381 -1.496 1.7 -2.719 4.242 -2.719 5.638 0 1.401 -0.609 2.546 -1.357 2.546 -0.748 0 -1.357 0.547 -1.357 1.215 0 1.616 6.389 1.57 7.511 -0.061 0.545 -0.789 3.211 -0.962 7 -0.453 5.508 0.738 6.074 0.593 5.641 -1.462 -0.304 -1.448 -1.854 -2.429 -4.21 -2.672 -2.046 -0.21 -3.723 -0.897 -3.723 -1.523 0 -0.986 1.95 -1.392 4.941 -1.032 0.475 0.056 1.384 -0.626 2.01 -1.523 0.956 -1.355 1.154 -1.355 1.17 0.005 0.016 1.229 1.378 1.42 5.577 0.785 5.476 -0.827 5.534 -0.803 3.878 1.962 -1.234 2.069 -1.266 2.929 -0.123 3.27 0.855 0.257 1.555 1.238 1.555 2.186 0 1.392 3.131 1.724 16.219 1.724 9.349 0 16.577 0.514 17.06 1.215 0.256 0.369 12.148 0.533 12.148 0.533 l 0.187 1.504 l -11.662 -0.229 c -0.433 -0.009 0.053 0.775 -0.374 0.799 -10.273 0.57 -18.345 1.532 -19.424 2.336 -1.09 0.813 -1.036 6.068 -1.036 6.068 l -2.142 -0.056 c 0 0 -1.223 -6.745 -3.852 -7.082 -2.586 -0.327 -3.056 0.173 -3.056 3.247 0 4.914 -1.25 7.483 -3.638 7.483 -1.282 0 -1.832 0.967 -1.555 2.737 0.321 2.01 -0.652 3.261 -3.643 4.671 -2.244 1.074 -4.755 3.148 -5.583 4.611 -0.828 1.457 -2.911 3.989 -4.626 5.624 -2.976 2.84 -3.131 3.91 -3.382 23.987 -0.144 11.557 -0.716 23.09 -1.266 25.627 -1.287 5.928 0.47 7.815 8.28 8.862 5.497 0.738 8.831 3.158 6.833 4.947 -0.417 0.374 -8.825 0.934 -18.682 1.252 -17.928 0.575 -17.928 0.575 -17.02 -7.119 1.4 -11.875 2.399 -35.07 1.512 -35.07 -0.438 0 -3.777 1.355 -7.426 3.01 -3.649 1.658 -9.14 3.373 -12.207 3.812 -3.066 0.439 -5.85 1.191 -6.181 1.677 -0.593 0.86 1.496 6.376 7.276 19.227 1.592 3.536 2.895 8.651 2.895 11.365 0 4.933 0 4.933 -13.959 4.517 -11.678 -0.346 -14.435 -0.813 -16.876 -2.85 -1.603 -1.341 -7.575 -3.985 -13.275 -5.877 -12.06 -4.01 -14.296 -3.354 -14.296 4.204 0 4.587 -0.134 4.718 -4.787 4.718 -3.959 0 -5.04 -0.579 -6.272 -3.345 z m 89.48 -63.941 c -1.084 -2.91 -4.963 -3.91 -7.244 -1.864 -1.223 1.098 -1.875 2.499 -1.442 3.12 1.063 1.546 9.285 0.35 8.686 -1.261 z m 18.35 -14.346 c 3.382 -3.03 3.82 -3.971 2.27 -4.854 -1.384 -0.785 -2.96 0.014 -5.62 2.845 -6.32 6.727 -3.686 8.306 3.35 2.01 z m 6.133 -8.712 c -0.668 -1.822 -7.821 -2.812 -7.821 -1.084 0 1.154 2.676 2.158 6.566 2.462 0.994 0.079 1.56 -0.542 1.255 -1.378 z m -15.845 -2.186 c 2.415 -1.158 2.463 -1.448 0.529 -3.181 -1.934 -1.733 -2.372 -1.71 -4.755 0.22 -4.247 3.443 -1.213 5.568 4.226 2.962 z" style="fill:#ff4500"/></g></svg>