<svg xmlns="http://www.w3.org/2000/svg" xmlns:xlink="http://www.w3.org/1999/xlink" viewBox="0 0 256 256"><defs><clipPath><rect y="6" x="6" rx="6" height="84" width="84" style="fill:#ff4500"/></clipPath></defs><g transform="translate(0 -796.36)"><path d="m 229.63 992.2 c 92.05 -130.93 -77.948 -263.6 -186.39 -156.91 -102.17 100.51 -7.449 256.68 119.69 207.86 c 26.526 -10.185 49.802 -26.914 66.7 -50.948 z" style="fill:#fff;color:#000"/><g transform="matrix(1.62112 0 0 1.54348 47.19 849.56)" style="fill:#ffdead"><path transform="scale(1 -1)" d="m 6.697 -88.22 h 83.947 v 81.26 h -83.947 z"/><path d="m 19.893 17.06 c -4.572 0 -8.853 1.404 -12.554 3.859 v 5.631 c 3.185 -2.388 6.987 -3.773 11.07 -3.773 c 11.257 0 20.39 10.547 20.39 23.581 0 13.03 -9.136 23.609 -20.39 23.609 -4.084 0 -7.882 -1.405 -11.07 -3.801 v 5.631 c 3.702 2.46 7.98 3.884 12.554 3.884 13.979 0 25.325 -13.14 25.325 -29.326 0 -16.187 -11.345 -29.3 -25.325 -29.3 z" id="0" style="fill:#ff4500;color:#000"/><use transform="matrix(-1 0 0 1 96 0)" xlink:href="#0" style="stroke:#ff4500"/></g></g></svg>