<svg xmlns="http://www.w3.org/2000/svg" viewBox="0 0 256 256"><defs><clipPath><path transform="matrix(15.33333 0 0 11.5 415 -125.5)" d="m -24 13 c 0 1.105 -0.672 2 -1.5 2 -0.828 0 -1.5 -0.895 -1.5 -2 0 -1.105 0.672 -2 1.5 -2 0.828 0 1.5 0.895 1.5 2 z"/></clipPath></defs><g transform="translate(0 -796.36)"><path d="m 229.63 992.2 c 92.05 -130.93 -77.948 -263.6 -186.39 -156.91 -102.17 100.51 -7.449 256.68 119.69 207.86 c 26.526 -10.185 49.802 -26.914 66.7 -50.948 z" style="fill:#fff;color:#000"/><path d="m 117.36 1009.77 c 0 -0.341 -0.999 -0.621 -2.221 -0.621 -1.993 0 -4.102 -0.508 -7.74 -1.863 -4.099 -1.527 -7.423 -2.487 -8.603 -2.484 -0.747 0 -1.358 -0.276 -1.358 -0.617 0 -0.341 -0.407 -0.621 -0.906 -0.621 -0.498 0 -0.906 -0.279 -0.906 -0.621 0 -0.341 -0.543 -0.62 -1.207 -0.62 -0.664 0 -1.207 -0.279 -1.207 -0.621 0 -0.341 -0.543 -0.621 -1.207 -0.621 -0.664 0 -1.207 -0.279 -1.207 -0.62 0 -0.341 -0.407 -0.621 -0.906 -0.621 -0.498 0 -0.906 -0.257 -0.906 -0.571 0 -0.314 -0.815 -0.755 -1.811 -0.98 -0.996 -0.225 -1.811 -0.666 -1.811 -0.98 0 -0.314 -0.525 -0.571 -1.167 -0.571 -0.642 0 -1.325 -0.514 -1.519 -1.142 -0.194 -0.628 -1.095 -1.536 -2 -2.02 -0.908 -0.481 -2.01 -1.224 -2.448 -1.651 -0.439 -0.427 -1.032 -0.776 -1.318 -0.776 -0.286 0 -0.674 -0.498 -0.862 -1.107 -0.188 -0.609 -1.089 -1.562 -2 -2.117 -2.386 -1.452 -4.378 -3.328 -4.378 -4.124 0 -0.378 -1.222 -1.943 -2.717 -3.479 -1.494 -1.536 -2.717 -2.951 -2.717 -3.146 0 -0.339 -0.649 -1.22 -2.264 -3.07 -0.415 -0.476 -0.755 -1.285 -0.755 -1.798 0 -0.513 -0.543 -1.111 -1.207 -1.327 -0.664 -0.217 -1.207 -0.934 -1.207 -1.593 0 -0.66 -0.272 -1.199 -0.604 -1.199 -0.332 0 -0.604 -0.559 -0.604 -1.241 0 -0.683 -0.272 -1.241 -0.604 -1.241 -0.332 0 -0.604 -0.419 -0.604 -0.931 0 -0.512 -0.248 -0.931 -0.551 -0.931 -0.303 0 -0.734 -1.117 -0.959 -2.482 -0.224 -1.365 -0.626 -2.482 -0.892 -2.482 -0.266 0 -0.845 -1.257 -1.286 -2.793 -0.441 -1.536 -1.014 -2.793 -1.274 -2.793 -0.26 0 -0.472 -0.698 -0.472 -1.551 0 -0.853 -0.272 -1.551 -0.604 -1.551 -0.332 0 -0.604 -1.094 -0.604 -2.431 0 -1.393 -0.322 -2.541 -0.755 -2.689 -1.097 -0.376 -1.097 -37.791 0 -38.17 0.415 -0.142 0.755 -1.213 0.755 -2.379 0 -1.166 0.272 -2.12 0.604 -2.12 0.332 0 0.604 -0.698 0.604 -1.551 0 -0.853 0.272 -1.551 0.604 -1.551 0.332 0 0.604 -0.682 0.604 -1.515 0 -0.833 0.272 -1.687 0.604 -1.898 0.332 -0.211 0.604 -0.926 0.604 -1.588 0 -0.663 0.259 -1.205 0.576 -1.205 0.317 0 0.755 -0.977 0.973 -2.172 0.218 -1.195 0.638 -2.172 0.933 -2.172 0.295 0 0.537 -0.559 0.537 -1.241 0 -0.683 0.272 -1.241 0.604 -1.241 0.332 0 0.604 -0.419 0.604 -0.931 0 -0.512 0.272 -0.931 0.604 -0.931 0.332 0 0.604 -0.497 0.604 -1.104 0 -0.607 0.543 -1.507 1.207 -1.999 0.664 -0.492 1.207 -1.362 1.207 -1.932 0 -0.571 0.407 -1.199 0.906 -1.395 0.498 -0.196 0.906 -0.785 0.906 -1.308 0 -0.523 0.272 -0.95 0.604 -0.95 0.332 0 0.604 -0.307 0.604 -0.682 0 -0.788 3.634 -5.01 4.421 -5.01 0.291 0 0.115 -0.308 0.801 -0.969 1.167 -1.125 0.71 -1.216 1.869 -2.24 0.269 -0.238 1.361 -1.273 1.361 -1.578 0 -0.304 0.679 -0.729 1.509 -0.943 2.53 -2.539 2.585 -2.508 5.757 -5.331 0.41 0 1.374 -0.698 2.144 -1.551 0.769 -0.853 1.695 -1.551 2.056 -1.551 0.362 0 1.241 -0.559 1.954 -1.241 0.713 -0.683 1.652 -1.241 2.088 -1.241 0.435 0 0.792 -0.279 0.792 -0.621 0 -0.341 0.407 -0.621 0.906 -0.621 0.498 0 0.906 -0.255 0.906 -0.566 0 -0.311 1.087 -0.755 2.415 -0.985 1.328 -0.231 2.415 -0.674 2.415 -0.985 0 -0.311 0.407 -0.566 0.906 -0.566 0.498 0 0.906 -0.279 0.906 -0.621 0 -0.341 0.815 -0.621 1.811 -0.621 0.996 0 1.811 -0.279 1.811 -0.621 0 -0.341 0.679 -0.621 1.509 -0.621 0.83 0 1.509 -0.279 1.509 -0.621 0 -0.341 0.815 -0.621 1.811 -0.621 0.996 0 1.811 -0.26 1.811 -0.578 0 -0.318 2.173 -0.773 4.83 -1.011 2.656 -0.238 4.83 -0.676 4.83 -0.974 0 -0.698 23.974 -0.711 24.394 -0.013 0.175 0.29 2.432 0.711 5.02 0.936 2.584 0.224 4.789 0.685 4.9 1.024 0.111 0.339 1.129 0.616 2.264 0.616 1.134 0 2.063 0.279 2.063 0.621 0 0.341 0.527 0.621 1.172 0.621 0.644 0 1.34 0.279 1.545 0.621 0.205 0.341 0.9 0.621 1.545 0.621 0.644 0 1.172 0.279 1.172 0.621 0 0.341 0.543 0.621 1.207 0.621 0.664 0 1.207 0.267 1.207 0.592 0 0.326 0.951 0.776 2.113 1 1.162 0.224 2.113 0.656 2.113 0.959 0 0.303 0.543 0.552 1.207 0.552 0.664 0 1.207 0.279 1.207 0.621 0 0.341 0.348 0.621 0.772 0.621 0.425 0 1.164 0.559 1.642 1.241 0.479 0.683 1.237 1.241 1.686 1.241 0.448 0 1.194 0.349 1.657 0.776 1.8 1.66 2.657 2.327 2.987 2.327 0.189 0 1.566 1.257 3.06 2.793 1.494 1.536 2.99 2.793 3.325 2.793 0.802 0 4.794 4.12 4.794 4.948 0 0.355 1.222 1.884 2.717 3.398 1.494 1.514 2.717 3.169 2.717 3.678 0 0.509 0.543 1.102 1.207 1.319 0.664 0.217 1.207 0.914 1.207 1.549 0 0.635 0.407 1.574 0.906 2.086 0.498 0.512 0.906 1.37 0.906 1.906 0 0.536 0.272 0.975 0.604 0.975 0.332 0 0.604 0.419 0.604 0.931 0 0.512 0.272 0.931 0.604 0.931 0.332 0 0.604 0.559 0.604 1.241 0 0.683 0.272 1.241 0.604 1.241 0.332 0 0.604 0.559 0.604 1.241 0 0.683 0.259 1.241 0.576 1.241 0.317 0 0.755 0.977 0.973 2.172 0.218 1.195 0.638 2.172 0.933 2.172 0.295 0 0.536 0.838 0.536 1.862 0 1.024 0.272 1.862 0.604 1.862 0.332 0 0.604 0.698 0.604 1.551 0 0.853 0.272 1.551 0.604 1.551 0.332 0 0.604 0.977 0.604 2.172 0 1.195 0.272 2.172 0.604 2.172 0.332 0 0.604 1.396 0.604 3.103 0 1.707 0.272 3.103 0.604 3.103 0.384 0 0.604 4.861 0.604 13.343 0 8.481 -0.22 13.343 -0.604 13.343 -0.332 0 -0.604 1.257 -0.604 2.793 0 1.536 -0.272 2.793 -0.604 2.793 -0.332 0 -0.604 1.117 -0.604 2.482 0 1.365 -0.272 2.482 -0.604 2.482 -0.332 0 -0.604 0.698 -0.604 1.551 0 0.853 -0.272 1.551 -0.604 1.551 -0.332 0 -0.604 0.838 -0.604 1.862 0 1.024 -0.259 1.862 -0.576 1.862 -0.317 0 -0.755 0.977 -0.973 2.172 -0.218 1.195 -0.638 2.172 -0.933 2.172 -0.295 0 -0.537 0.559 -0.537 1.241 0 0.683 -0.221 1.241 -0.491 1.241 -0.27 0 -0.864 0.977 -1.32 2.172 -0.456 1.195 -1.05 2.172 -1.32 2.172 -0.27 0 -0.491 0.529 -0.491 1.175 0 0.646 -0.407 1.336 -0.906 1.532 -0.498 0.196 -0.906 0.863 -0.906 1.481 0 0.618 -0.543 1.526 -1.207 2.02 -0.664 0.492 -1.207 1.391 -1.207 1.999 0 0.607 -0.259 1.104 -0.576 1.104 -0.527 0 -1.486 1.914 -3.388 4.27 -0.415 0.514 -1.469 1.073 -1.469 1.599 0 0.526 -0.243 0.957 -0.54 0.957 -0.297 0 -1.363 0.768 -2.37 1.707 -3.046 2.84 -5.963 5.362 -7.718 6.671 -0.915 0.683 -2.281 1.87 -3.037 2.638 -0.755 0.768 -1.793 1.396 -2.306 1.396 -0.513 0 -0.933 0.274 -0.933 0.609 0 0.335 -0.679 0.784 -1.509 0.998 -0.83 0.214 -1.509 0.638 -1.509 0.943 0 0.304 -0.543 0.553 -1.207 0.553 -0.664 0 -1.207 0.279 -1.207 0.621 0 0.341 -0.543 0.621 -1.207 0.621 -0.664 0 -1.207 0.279 -1.207 0.62 0 0.341 -0.407 0.621 -0.906 0.621 -0.498 0 -0.906 0.279 -0.906 0.621 0 0.341 -0.543 0.621 -1.207 0.621 -0.664 0 -1.207 0.247 -1.207 0.55 0 0.303 -1.222 0.739 -2.717 0.969 -1.494 0.23 -2.717 0.681 -2.717 1 0 0.32 -0.799 0.582 -1.775 0.582 -0.976 0 -1.943 0.279 -2.149 0.621 -0.205 0.341 -1.172 0.621 -2.149 0.621 -0.976 0 -1.775 0.279 -1.775 0.621 0 0.341 -1.494 0.62 -3.32 0.62 -1.826 0 -3.32 0.279 -3.32 0.621 0 0.393 -4.427 0.62 -12.07 0.62 -7.647 0 -12.07 -0.227 -12.07 -0.62 z m 42.26 -27.306 c 0 -0.341 0.439 -0.621 0.976 -0.621 1.694 0 5.664 -4.749 5.664 -6.775 0 -0.995 0.34 -1.927 0.755 -2.07 0.604 -0.209 0.604 -0.693 0 -2.423 -0.415 -1.189 -0.755 -2.771 -0.755 -3.515 0 -0.744 -0.272 -1.352 -0.604 -1.352 -0.332 0 -0.604 -0.292 -0.604 -0.649 0 -0.842 -2.775 -3.695 -3.595 -3.695 -0.347 0 -0.633 -0.209 -0.636 -0.465 -0.002 -0.256 -0.736 -0.815 -1.63 -1.241 -1.936 -0.924 -7.421 -1.039 -7.421 -0.155 0 0.341 -0.543 0.621 -1.207 0.621 -0.664 0 -1.207 0.279 -1.207 0.621 0 0.341 -0.444 0.621 -0.986 0.621 -1.138 0 -3.24 2.276 -3.24 3.508 0 0.46 -0.272 0.836 -0.604 0.836 -0.332 0 -0.604 0.838 -0.604 1.862 0 1.024 -0.272 1.862 -0.604 1.862 -0.332 0 -0.604 0.838 -0.604 1.862 0 1.024 0.272 1.862 0.604 1.862 0.332 0 0.604 0.85 0.604 1.888 0 1.038 0.34 2.309 0.755 2.823 2.27 2.812 3.65 3.978 4.706 3.978 0.649 0 1.18 0.279 1.18 0.621 0 0.359 1.912 0.621 4.528 0.621 2.616 0 4.528 -0.262 4.528 -0.621 z m -25.748 -7.849 c 4.585 -0.398 4.619 -0.414 4.619 -2.172 0 -0.974 0.272 -1.771 0.604 -1.771 0.332 0 0.604 -1.257 0.604 -2.793 0 -1.536 0.272 -2.793 0.604 -2.793 0.332 0 0.604 -0.439 0.604 -0.977 0 -1.246 5.712 -7.091 6.93 -7.091 0.505 0 0.918 -0.279 0.918 -0.621 0 -0.341 0.951 -0.621 2.113 -0.621 1.162 0 2.113 -0.279 2.113 -0.621 0 -0.341 0.951 -0.621 2.113 -0.621 1.162 0 2.113 0.279 2.113 0.621 0 0.341 0.679 0.621 1.509 0.621 0.83 0 1.509 0.279 1.509 0.621 0 0.341 0.543 0.621 1.207 0.621 0.664 0 1.207 0.279 1.207 0.621 0 0.341 0.782 0.621 1.738 0.621 1.352 0 1.9 -0.403 2.47 -1.817 0.403 -0.999 1.115 -1.968 1.582 -2.153 0.468 -0.184 0.85 -0.903 0.85 -1.596 0 -0.693 0.272 -1.261 0.604 -1.261 0.332 0 0.604 -0.559 0.604 -1.241 0 -0.683 0.272 -1.241 0.604 -1.241 0.332 0 0.604 -0.419 0.604 -0.931 0 -0.512 0.272 -0.931 0.604 -0.931 0.332 0 0.604 -0.559 0.604 -1.241 0 -0.683 0.272 -1.241 0.604 -1.241 0.332 0 0.604 -0.815 0.604 -1.81 0 -0.996 0.265 -1.903 0.59 -2.02 0.324 -0.114 0.772 -2.65 0.995 -5.637 l 0.405 -5.43 h -9.1 c -5 0 -9.525 0.17 -10.05 0.377 -0.525 0.207 -0.955 0.955 -0.955 1.663 0 1.706 -1.323 5.408 -1.932 5.408 -0.265 0 -0.482 0.559 -0.482 1.241 0 0.683 -0.272 1.241 -0.604 1.241 -0.332 0 -0.604 0.548 -0.604 1.217 0 0.669 -0.423 1.577 -0.941 2.02 -0.517 0.44 -2.14 1.987 -3.606 3.438 -1.466 1.451 -2.828 2.638 -3.03 2.638 -0.198 0 -0.768 0.419 -1.266 0.931 -0.498 0.512 -1.429 0.931 -2.07 0.931 -0.64 0 -1.164 0.279 -1.164 0.621 0 0.341 -0.679 0.621 -1.509 0.621 -0.83 0 -1.509 0.279 -1.509 0.621 0 0.341 -1.222 0.621 -2.717 0.621 -1.494 0 -2.717 0.279 -2.717 0.621 0 0.341 -1.206 0.621 -2.681 0.621 -1.475 0 -2.849 -0.279 -3.054 -0.621 -0.205 -0.341 -1.292 -0.621 -2.415 -0.621 -1.123 0 -2.21 -0.279 -2.415 -0.621 -0.648 -1.077 -2.717 -0.709 -2.717 0.484 0 0.607 -0.543 1.507 -1.207 1.999 -0.664 0.492 -1.207 1.252 -1.207 1.688 0 0.437 -0.272 0.794 -0.604 0.794 -0.332 0 -0.604 0.559 -0.604 1.241 0 0.683 -0.272 1.241 -0.604 1.241 -0.332 0 -0.604 0.559 -0.604 1.241 0 0.683 -0.242 1.241 -0.538 1.241 -0.296 0 -0.709 0.698 -0.917 1.551 -0.208 0.853 -0.645 1.552 -0.971 1.552 -0.326 0 -0.592 0.559 -0.592 1.241 0 0.683 -0.272 1.241 -0.604 1.241 -0.332 0 -0.604 0.559 -0.604 1.241 0 0.827 0.402 1.241 1.207 1.241 0.664 0 1.21 0.209 1.212 0.465 0.007 0.751 3.111 2.02 4.945 2.02 0.93 0 1.691 0.266 1.691 0.592 0 0.326 1.834 0.69 4.075 0.809 2.241 0.119 4.645 0.272 5.342 0.339 0.697 0.067 3.346 -0.059 5.886 -0.28 z m -29.792 -9.528 c 0 -0.683 0.272 -1.241 0.604 -1.241 0.332 0 0.604 -0.559 0.604 -1.241 0 -0.683 0.272 -1.241 0.604 -1.241 0.332 0 0.604 -0.316 0.604 -0.703 0 -0.387 0.507 -1.155 1.126 -1.707 0.62 -0.552 1.309 -1.857 1.531 -2.9 0.223 -1.043 0.938 -2.291 1.59 -2.774 0.652 -0.483 1.185 -1.375 1.185 -1.982 0 -0.607 0.272 -1.104 0.604 -1.104 1.404 0 0.405 -2.095 -2.376 -4.984 -1.639 -1.702 -3.151 -3.651 -3.361 -4.331 -0.21 -0.68 -0.635 -1.236 -0.944 -1.236 -0.31 0 -0.563 -0.559 -0.563 -1.241 0 -0.683 -0.272 -1.241 -0.604 -1.241 -0.332 0 -0.604 -0.698 -0.604 -1.551 0 -0.853 -0.272 -1.551 -0.604 -1.551 -0.367 0 -0.604 -2.793 -0.604 -7.137 0 -4.344 0.236 -7.137 0.604 -7.137 0.332 0 0.604 -0.838 0.604 -1.862 0 -1.024 0.272 -1.862 0.604 -1.862 0.332 0 0.61 -0.489 0.617 -1.086 0.007 -0.597 0.545 -1.784 1.194 -2.638 0.649 -0.853 1.187 -1.773 1.194 -2.043 0.023 -0.836 2.29 -3.429 4.165 -4.765 1.302 -0.928 1.779 -3.121 0.678 -3.121 -0.332 0 -0.604 -0.456 -0.604 -1.013 0 -0.557 -0.507 -1.465 -1.126 -2.02 -0.62 -0.552 -1.309 -1.857 -1.531 -2.9 -0.223 -1.043 -0.938 -2.291 -1.59 -2.774 -0.652 -0.483 -1.185 -1.375 -1.185 -1.982 0 -0.607 -0.272 -1.104 -0.604 -1.104 -0.332 0 -0.604 -0.292 -0.604 -0.649 0 -0.357 -0.679 -1.347 -1.509 -2.2 l -1.509 -1.551 l -1.537 1.58 c -0.845 0.869 -1.808 1.58 -2.14 1.58 -0.82 0 -3.567 2.878 -3.567 3.737 0 0.38 -0.951 1.612 -2.113 2.739 -1.162 1.127 -2.113 2.376 -2.113 2.777 0 0.724 -0.541 1.53 -2.566 3.824 -0.581 0.658 -1.056 1.872 -1.056 2.696 0 0.825 -0.249 1.593 -0.553 1.707 -0.875 0.327 -1.524 4.861 -0.696 4.861 1.499 0 6.682 5.311 6.682 6.847 0 0.671 0.272 1.221 0.604 1.221 0.332 0 0.604 0.419 0.604 0.931 0 0.512 0.272 0.931 0.604 0.931 0.345 0 0.604 1.862 0.604 4.344 0 2.482 -0.259 4.344 -0.604 4.344 -0.332 0 -0.604 0.325 -0.604 0.722 0 1.135 -1.991 5.484 -2.511 5.484 -0.257 0 -1.418 0.977 -2.58 2.172 -1.162 1.195 -2.41 2.172 -2.774 2.172 -0.784 0 -0.119 5.776 0.703 6.102 0.287 0.114 0.521 0.602 0.521 1.086 0 0.484 0.272 0.879 0.604 0.879 0.332 0 0.604 0.497 0.604 1.104 0 0.607 0.543 1.507 1.207 1.999 0.664 0.492 1.207 1.124 1.207 1.404 0 0.28 0.277 0.847 0.616 1.259 2.821 3.435 3.609 4.572 3.61 5.207 0 0.404 0.544 0.911 1.208 1.128 0.664 0.217 1.207 0.654 1.207 0.973 0 0.318 0.34 0.587 0.755 0.597 0.415 0.011 1.434 0.84 2.264 1.843 1.766 2.135 3.622 2.453 3.622 0.621 z m -24.15 -26.686 c 0 -0.341 0.951 -0.621 2.113 -0.621 1.162 0 2.113 -0.279 2.113 -0.621 0 -0.341 0.427 -0.621 0.949 -0.621 1.78 0 4.485 -3.826 4.485 -6.344 0 -0.948 0.272 -1.724 0.604 -1.724 0.332 0 0.604 -1.117 0.604 -2.482 0 -1.365 -0.272 -2.482 -0.604 -2.482 -0.332 0 -0.604 -0.678 -0.604 -1.507 0 -0.829 -0.407 -1.926 -0.906 -2.438 -0.498 -0.512 -0.906 -1.37 -0.906 -1.906 0 -0.549 -0.508 -0.975 -1.164 -0.975 -0.64 0 -1.572 -0.419 -2.07 -0.931 -0.498 -0.512 -1.74 -0.931 -2.76 -0.931 -1.02 0 -1.854 -0.279 -1.854 -0.621 0 -0.341 -0.543 -0.621 -1.207 -0.621 -0.664 0 -1.207 0.279 -1.207 0.621 0 0.341 -1.087 0.621 -2.415 0.621 -1.328 0 -2.415 0.249 -2.415 0.553 0 0.304 -0.679 0.729 -1.509 0.943 -0.83 0.214 -1.509 0.75 -1.509 1.191 0 0.441 -0.543 1.402 -1.207 2.134 -1.023 1.129 -1.207 2.19 -1.207 6.944 0 3.327 0.246 5.611 0.604 5.611 0.332 0 0.604 0.292 0.604 0.649 0 0.842 2.775 3.695 3.595 3.695 0.347 0 0.631 0.279 0.631 0.621 0 0.341 0.815 0.621 1.811 0.621 0.996 0 1.811 0.279 1.811 0.621 0 0.341 0.815 0.621 1.811 0.621 0.996 0 1.811 -0.279 1.811 -0.621 z m 95.8 -21.245 c -0.199 -3.152 -0.646 -5.828 -0.995 -5.947 -0.349 -0.119 -0.634 -0.892 -0.634 -1.717 0 -0.825 -0.272 -1.5 -0.604 -1.5 -0.332 0 -0.604 -0.559 -0.604 -1.241 0 -0.683 -0.272 -1.241 -0.604 -1.241 -0.332 0 -0.604 -0.559 -0.604 -1.241 0 -0.683 -0.272 -1.241 -0.604 -1.241 -0.332 0 -0.604 -0.419 -0.604 -0.931 0 -0.512 -0.219 -0.931 -0.488 -0.931 -0.268 0 -0.967 -1.117 -1.553 -2.482 -0.586 -1.365 -1.298 -2.482 -1.582 -2.482 -0.284 0 -0.968 -0.464 -1.52 -1.032 -0.669 -0.688 -1.138 -0.808 -1.407 -0.36 -0.222 0.37 -1.148 0.864 -2.058 1.099 -0.91 0.235 -1.654 0.676 -1.654 0.98 0 0.967 -8.55 0.617 -11.299 -0.462 -1.422 -0.558 -2.586 -1.257 -2.586 -1.551 0 -0.295 -0.483 -0.536 -1.074 -0.536 -0.591 0 -1.474 -0.597 -1.962 -1.327 -1.337 -1.998 -3.585 -4.259 -4.236 -4.259 -0.317 0 -0.576 -0.559 -0.576 -1.241 0 -0.683 -0.272 -1.241 -0.604 -1.241 -0.332 0 -0.604 -0.396 -0.604 -0.879 0 -0.484 -0.34 -0.995 -0.755 -1.137 -0.517 -0.177 -0.819 -2.197 -0.958 -6.413 -0.112 -3.385 -0.451 -6.42 -0.755 -6.744 -0.747 -0.799 -0.703 -7.619 0.052 -8.099 0.346 -0.22 0.604 -3.42 0.604 -7.484 0 -5.848 -0.157 -7.1 -0.892 -7.1 -0.49 0 -1.366 0.768 -1.946 1.707 -0.58 0.939 -1.537 2.158 -2.127 2.71 -0.59 0.552 -1.072 1.192 -1.072 1.422 0 0.23 -0.543 1.018 -1.207 1.751 -0.664 0.733 -1.207 1.698 -1.207 2.146 0 0.448 -0.259 0.814 -0.576 0.814 -0.317 0 -0.755 0.977 -0.973 2.172 -0.218 1.195 -0.638 2.172 -0.933 2.172 -0.295 0 -0.537 0.838 -0.537 1.862 0 1.024 -0.204 1.864 -0.453 1.867 -0.781 0.007 -1.962 3.255 -1.962 5.394 0 1.127 -0.272 2.048 -0.604 2.048 -0.379 0 -0.604 3.93 -0.604 10.55 0 6.62 0.225 10.55 0.604 10.55 0.332 0 0.604 0.838 0.604 1.862 0 1.448 0.268 1.862 1.207 1.862 0.664 0 1.207 -0.279 1.207 -0.621 0 -0.764 8.248 -0.841 8.704 -0.082 0.178 0.296 1.96 0.729 3.96 0.962 2 0.233 3.636 0.688 3.636 1.013 0 0.324 0.483 0.59 1.074 0.59 0.591 0 1.466 0.559 1.944 1.241 0.479 0.683 1.092 1.241 1.362 1.241 0.271 0 1.094 0.564 1.829 1.254 0.735 0.69 2.174 2.02 3.197 2.948 1.023 0.931 2.047 2.461 2.275 3.4 0.228 0.939 0.681 1.707 1.01 1.707 0.326 0 0.592 0.419 0.592 0.931 0 0.512 0.272 0.931 0.604 0.931 0.332 0 0.604 0.838 0.604 1.862 0 1.024 0.272 1.862 0.604 1.862 0.332 0 0.604 0.977 0.604 2.172 v 2.172 h 10.05 h 10.05 l -0.361 -5.73 z m -18.532 -23.36 c 0 -0.299 0.857 -0.719 1.904 -0.935 2.321 -0.477 3.529 -1.438 3.529 -2.806 0 -0.566 0.543 -1.431 1.207 -1.923 1.04 -0.771 1.207 -1.607 1.207 -6.03 0 -3.01 -0.25 -5.138 -0.604 -5.138 -0.332 0 -0.604 -0.409 -0.604 -0.909 0 -1.213 -3.338 -4.676 -4.507 -4.676 -0.509 0 -0.926 -0.279 -0.926 -0.621 0 -0.361 -1.974 -0.621 -4.716 -0.621 -3.881 0 -4.945 0.22 -6.01 1.241 -0.713 0.683 -1.579 1.241 -1.925 1.241 -0.346 0 -0.629 0.357 -0.629 0.794 0 0.437 -0.543 1.196 -1.207 1.688 -0.664 0.492 -1.207 1.391 -1.207 1.999 0 0.607 -0.272 1.104 -0.604 1.104 -0.341 0 -0.604 1.758 -0.604 4.03 0 2.276 0.263 4.03 0.604 4.03 0.332 0 0.604 0.456 0.604 1.013 0 0.557 0.494 1.465 1.098 2.02 0.604 0.552 1.277 1.498 1.495 2.102 0.218 0.604 1.218 1.268 2.222 1.474 1 0.206 1.825 0.62 1.825 0.918 0 0.299 1.766 0.543 3.924 0.543 2.158 0 3.924 -0.244 3.924 -0.543 z" style="fill:#ff4500;opacity:0.99;fill-rule:evenodd"/></g></svg>