<svg xmlns="http://www.w3.org/2000/svg" viewBox="0 0 256 256"><g transform="translate(0 -796.36)"><path d="m -1374.42 1658.71 c 127.95 -192.46 -280.09 -311 -226.07 -62.2 23.02 102.82 167.39 165.22 226.07 62.2 z" transform="matrix(0 1 -1 0 1711.48 2401.81)" style="fill:#fff;color:#000"/><g style="fill:#ff4500;stroke:#ff4500;fill-rule:evenodd"><path d="m 119.91 968.63 c -4.389 -0.487 -5.796 -1.194 -10.427 -5.234 -10.413 -9.09 -17.493 -21.12 -18.566 -31.552 -0.99 -9.63 4.517 -24.537 12.356 -33.445 5.549 -6.306 15.14 -11.145 22.06 -11.135 9.665 0.013 16.557 1.697 21.2 5.18 2.362 1.772 4.722 3.221 5.245 3.221 3.052 0 13.745 13.908 11.326 14.731 -0.741 0.253 -0.176 1.503 1.629 3.604 3.02 3.517 3.856 8.757 1.393 8.757 -0.754 0 -1.372 0.631 -1.372 1.401 0 0.771 -0.518 1.401 -1.152 1.401 -0.633 0 -1.634 0.789 -2.223 1.753 -0.744 1.217 -2.67 1.957 -6.306 2.421 -2.879 0.368 -7.693 1.471 -10.697 2.451 -3 0.981 -6.678 1.783 -8.163 1.783 -2.88 0 -15.96 3.129 -20.16 4.823 -4.754 1.917 -4.093 8.08 1.313 12.224 1.17 0.898 4.596 2.29 7.614 3.094 5.236 1.395 5.794 1.369 12.223 -0.573 l 6.737 -2.034 l 4.482 2.145 c 3.046 1.458 4.183 2.45 3.55 3.098 -1.462 1.494 -1.093 3.379 0.668 3.413 1.329 0.026 1.225 0.35 -0.614 1.914 -1.218 1.036 -3.115 1.763 -4.216 1.615 -1.101 -0.147 -2.618 0.255 -3.372 0.893 -2.405 2.04 -11.843 4.893 -15.715 4.751 -2.059 -0.076 -6.03 -0.391 -8.816 -0.701 z m -1.422 -46.749 c 7.669 -1.139 19.644 -5.161 23.08 -7.75 l 2.844 -2.144 l -2.856 -3.366 c -4.632 -5.46 -9.405 -8.286 -13.992 -8.286 -10.146 0 -19.47 10.489 -17.932 20.17 0.385 2.426 0.881 3.141 1.899 2.742 0.758 -0.297 3.889 -0.913 6.959 -1.369 z" style="stroke-width:5.059"/><g style="stroke-width:5.938"><path d="m 91.96 203.36 c -2.875 -0.302 -4.621 -1.265 -6.06 -3.343 -1.877 -2.716 -23.849 -44.22 -31.594 -59.673 l -3.435 -6.855 l 10.791 -20.806 c 5.935 -11.443 14.42 -27.396 18.856 -35.45 l 8.07 -14.644 l 9.672 -0.28 c 5.32 -0.154 18.932 0.09 30.25 0.542 l 20.578 0.823 l 0.954 4.881 c 1.333 6.821 2.271 7.591 9.277 7.608 9.289 0.023 10.675 0.629 10.117 4.426 -0.971 6.618 -7.705 8.145 -16.428 3.725 -6.709 -3.4 -19.9 -7.081 -25.373 -7.081 -5.595 0 -16.207 2.818 -22.338 5.933 -20.08 10.2 -32.28 38.26 -26.785 61.59 6.34 26.906 27.709 42.821 54.37 40.492 14.377 -1.256 28.15 -9.85 36.557 -22.806 4.899 -7.552 7.07 -14.342 8.194 -25.565 l 0.809 -8.113 l 9.288 -0.31 c 8.184 -0.274 9.525 -0.049 11.28 1.891 1.949 2.153 1.868 2.457 -3.67 13.87 -3.114 6.418 -11.244 22.22 -18.07 35.13 -11.493 21.737 -12.652 23.509 -15.787 24.14 -3.559 0.712 -62.58 0.617 -69.52 -0.112 z" transform="translate(0 796.36)"/><path d="m 184.9 914.08 c -2.308 -0.459 -3.998 -3.159 -8.496 -13.57 l -2.666 -6.171 l 2.609 -1.709 c 1.435 -0.94 3.58 -3.614 4.768 -5.941 1.543 -3.02 3.073 -4.432 5.363 -4.935 3.766 -0.827 5.177 -2.296 5.691 -5.924 0.275 -1.938 1.313 -2.89 3.875 -3.55 1.925 -0.496 4.055 -1.939 4.733 -3.205 1.261 -2.357 0.848 -12.248 -0.571 -13.672 -0.433 -0.434 -5.661 -0.958 -11.618 -1.165 -9.14 -0.317 -11.158 -0.079 -12.929 1.524 -1.154 1.045 -2.098 2.812 -2.098 3.927 0 2.751 -5.067 4.655 -8.376 3.147 -4.441 -2.024 -2.88 -10.935 1.916 -10.935 2.341 0 5.02 -3.052 5.95 -6.78 l 0.744 -2.983 h 12.971 c 14 0 16.561 0.69 17.577 4.741 0.363 1.446 2.321 3.609 4.351 4.807 4.302 2.538 5.507 7.129 4.187 15.943 -0.708 4.728 -1.259 5.62 -4.29 6.955 -2.294 1.01 -4.02 2.875 -5.057 5.477 -0.868 2.17 -2.796 4.5 -4.284 5.178 -1.488 0.678 -3.606 2.769 -4.706 4.647 -1.101 1.878 -3.587 4.081 -5.526 4.896 -8.689 3.651 -0.054 9.185 14.33 9.185 h 9.264 v 5.424 v 5.424 l -12.746 -0.148 c -7.01 -0.081 -13.744 -0.346 -14.965 -0.589 z"/></g></g></g></svg>