<svg xmlns="http://www.w3.org/2000/svg" viewBox="0 0 256 256"><defs><clipPath><path transform="matrix(15.33333 0 0 11.5 415 -125.5)" d="m -24 13 c 0 1.105 -0.672 2 -1.5 2 -0.828 0 -1.5 -0.895 -1.5 -2 0 -1.105 0.672 -2 1.5 -2 0.828 0 1.5 0.895 1.5 2 z"/></clipPath><clipPath><rect y="11.98" x="12.03" height="23.89" width="23.802" rx="4.099" style="fill:#808080"/></clipPath></defs><g transform="translate(0 -796.36)"><path d="m 130.45 1051.19 c -55.41 -6.398 -109.44 -49.803 -126.36 -101.51 -13.515 -41.31 -1.579 -85.54 32.09 -118.92 c 18.735 -18.574 38.23 -29.1 61.4 -33.15 37.997 -6.639 78.25 8.04 110.63 40.36 21.932 21.887 35.812 45.75 43.653 75.05 2.489 9.3 2.731 11.885 2.77 29.586 0.037 16.807 -0.25 20.442 -2.153 27.23 -5.425 19.359 -14.937 35.645 -28.946 49.56 -25.15 24.98 -57.23 35.938 -93.09 31.797 z" style="fill:#fff"/><g transform="matrix(0.29364 0 0 0.30377 48.3 856.3)" style="fill:#9acd32"><text y="231.36" x="729.64" line-height="125%" style="letter-spacing:0;word-spacing:0;font-size:129.23;font-family:&apos;Gentium Book Basic&apos;"><tspan y="231.36" x="729.64"/></text><text transform="scale(4.0128 0.2492)" y="579.26" x="378.91" style="font-size:46.954;font-family:Arial;text-anchor:middle"/><text y="151.36" x="1310.91" line-height="125%" style="letter-spacing:0;word-spacing:0;font-size:129.23;font-family:&apos;Gentium Book Basic&apos;"><tspan y="151.36" x="1310.91"/></text><text transform="scale(4.0128 0.2492)" y="258.22" x="523.76" style="font-size:46.954;font-family:Arial;text-anchor:middle"/><text y="-29.9" x="239.33" line-height="125%" style="letter-spacing:0;word-spacing:0;font-size:129.23;font-family:&apos;Gentium Book Basic&apos;"><tspan y="-29.9" x="239.33"/></text><text transform="scale(4.0128 0.2492)" y="-469.13" x="256.72" style="font-size:46.954;font-family:Arial;text-anchor:middle"/><text y="-246.37" x="1337.38" line-height="125%" style="letter-spacing:0;word-spacing:0;font-size:129.23;font-family:&apos;Gentium Book Basic&apos;"><tspan y="-246.37" x="1337.38"/></text><text transform="scale(4.0128 0.2492)" y="-1337.8" x="530.36" style="font-size:46.954;font-family:Arial;text-anchor:middle"/><text y="-326.37" x="1918.65" line-height="125%" style="letter-spacing:0;word-spacing:0;font-size:129.23;font-family:&apos;Gentium Book Basic&apos;"><tspan y="-326.37" x="1918.65"/></text><text transform="scale(4.0128 0.2492)" y="-1658.83" x="675.21" style="font-size:46.954;font-family:Arial;text-anchor:middle"/><text y="-798.77" x="1529.53" line-height="125%" style="letter-spacing:0;word-spacing:0;font-size:129.23;font-family:&apos;Gentium Book Basic&apos;"><tspan y="-798.77" x="1529.53"/></text><text transform="scale(4.0128 0.2492)" y="-3554.48" x="578.24" style="font-size:46.954;font-family:Arial;text-anchor:middle"/><text y="-878.78" x="2110.79" line-height="125%" style="letter-spacing:0;word-spacing:0;font-size:129.23;font-family:&apos;Gentium Book Basic&apos;"><tspan y="-878.78" x="2110.79"/></text><text transform="scale(4.0128 0.2492)" y="-3875.52" x="723.09" style="font-size:46.954;font-family:Arial;text-anchor:middle"/><text y="535.94" x="277.99" line-height="125%" style="letter-spacing:0;word-spacing:0;font-size:208.33;font-family:&apos;Gentium Book Basic&apos;"><tspan y="535.94" x="277.99"/></text><path d="m 90.58 44.871 l -66.946 113.64 h 134.12 l -67.18 -113.64 m 16.857 0 l 66.946 113.64 l 66.946 -113.64 h -133.88 m 150.73 0 l -66.946 113.64 h 133.88 l -66.946 -113.64 m 16.857 0 l 66.946 113.64 l 66.946 -113.64 h -133.88 m 150.73 0 l -67.18 113.64 h 134.12 l -66.946 -113.64 m -402.12 131.04 l 221.58 298.42 l -79.15 -298.42 h -142.43 m 159.04 0 l 75.5 298.42 l 75.5 -298.42 h -150.98 m 167.59 0 l -79.15 298.42 l 221.58 -298.42 h -142.43" style="fill:#ffdead"/><g transform="matrix(3.40553 0 0 3.29196 -164.49 -197.32)" style="fill:#ff4500;fill-rule:evenodd"><path d="m 87.8 158.49 c -17.426 -24.281 -31.796 -44.35 -31.934 -44.59 c -0.216 -0.38 2.661 -0.431 20.431 -0.362 l 20.682 0.08 l 11.331 44.17 c 6.232 24.293 11.296 44.32 11.252 44.51 -0.044 0.188 -14.337 -19.525 -31.763 -43.807 z"/><path d="m 104.96 107.67 c 0 -0.093 4.308 -7.733 9.574 -16.977 l 9.574 -16.808 l 9.183 16.12 c 5.05 8.865 9.384 16.505 9.631 16.977 l 0.448 0.858 h -19.21 c -10.563 0 -19.21 -0.076 -19.21 -0.169 z"/><path d="m 128.48 202.42 c 0.106 -0.429 5.28 -20.621 11.498 -44.871 l 11.305 -44.09 h 20.725 h 20.725 l -1.063 1.483 c -9.91 13.817 -59.09 82.32 -60.903 84.83 -1.364 1.888 -2.392 3.082 -2.286 2.653 z"/><path d="m 156.81 103.61 c 1.349 -2.413 5.619 -9.942 9.49 -16.73 l 7.04 -12.342 l 6.487 11.373 c 3.568 6.255 7.865 13.783 9.549 16.73 l 3.062 5.357 h -19.04 h -19.04 l 2.452 -4.388 z"/><path d="m 56.57 107.36 c 0 -0.995 17.796 -32 18.367 -32 0.571 0 18.367 31 18.367 32 0 0.349 -8.265 0.634 -18.367 0.634 -10.1 0 -18.367 -0.285 -18.367 -0.634 z"/></g></g></g></svg>