<svg xmlns="http://www.w3.org/2000/svg" viewBox="0 0 256 256"><defs><clipPath><path d="m -24 13 c 0 1.105 -0.672 2 -1.5 2 -0.828 0 -1.5 -0.895 -1.5 -2 0 -1.105 0.672 -2 1.5 -2 0.828 0 1.5 0.895 1.5 2 z" transform="matrix(15.33333 0 0 11.5 415 -125.5)"/></clipPath></defs><g transform="translate(4.568 -795.9)"><path d="m 205.08 825.9 c -153.55 -118.1 -312.95 176.01 -122.85 219.02 119.72 44.07 236.64 -131.5 122.85 -219.02 z" style="fill:#fff;color:#000"/><g transform="translate(5.424 1.085)"><path d="m 42.499 969.95 c -4.071 -1.634 -5.537 -7.128 -5.99 -22.452 -0.446 -15.09 0.409 -20.402 5.428 -33.764 4.923 -13.1 17.12 -28.661 28.734 -36.652 6.697 -4.607 16.99 -9.519 25.649 -12.237 6.543 -2.054 9.465 -2.346 23.473 -2.341 14.01 0.005 16.931 0.299 23.5 2.364 15.593 4.904 26.97 12.1 38.683 24.476 6.453 6.817 9.129 10.642 13.188 18.853 7.284 14.732 9.48 24.814 8.887 40.801 -0.525 14.162 -2.095 19.417 -6.275 21.01 -3.383 1.286 -152.07 1.235 -155.28 -0.054 z m 68.921 -67.7 c 1.259 -2.063 2.924 -4.233 3.699 -4.822 1.204 -0.916 1.171 -1.532 -0.225 -4.232 -1.524 -2.947 -1.514 -3.413 0.139 -6.928 l 1.773 -3.768 l 24.493 -0.5 l 24.493 -0.5 l -3.542 -2.71 c -20.55 -15.723 -65.11 -15.719 -83.89 0.007 l -3.435 2.876 l 17.13 0.673 c 18.16 0.714 20.242 1.049 20.242 3.261 0 1.033 -1.52 1.393 -5.878 1.393 -4.979 0 -6.106 0.343 -7.366 2.241 -1.369 2.062 -1.697 2.129 -4.12 0.832 -1.448 -0.775 -2.746 -1.221 -2.884 -0.991 -0.138 0.23 -0.747 1.318 -1.352 2.418 -0.608 1.104 -2.394 2.152 -3.988 2.339 -1.588 0.187 -4.917 1.818 -7.399 3.624 -2.482 1.807 -6.425 4.251 -8.762 5.431 -2.338 1.18 -4.25 2.362 -4.25 2.626 0 0.264 9.638 0.48 21.418 0.48 h 21.418 l 2.29 -3.75 z" style="fill:#eb0000"/><path d="m 40.956 967.18 c -4.01 -4.431 -4.98 -26.714 -1.717 -39.469 3.734 -14.602 12.833 -30.762 21.965 -39.01 2.252 -2.034 4.468 -3.699 4.925 -3.699 c 1.829 0 2.02 1.419 0.624 4.749 -0.803 1.922 -1.46 3.89 -1.46 4.373 0 0.483 2.588 0.894 5.75 0.914 l 5.75 0.036 l -2.925 2.391 c -1.609 1.315 -4.622 3.156 -6.697 4.092 -5.424 2.446 -9.399 10.978 -7.804 16.752 1.452 5.259 2.746 5.869 8.259 3.894 l 4.748 -1.701 l 2.841 3.25 c 2.736 3.129 3.122 3.25 10.398 3.25 h 7.557 l 0.662 -4.417 c 0.637 -4.251 0.978 -4.614 9.05 -9.637 5.912 -3.681 9.12 -6.432 10.881 -9.333 5.678 -9.353 2.753 -8.613 34.05 -8.613 24.926 0 27.636 -0.159 27.09 -1.593 -2.889 -7.53 -1.09 -8.819 4.771 -3.417 8.766 8.08 17.627 23.401 21.13 36.53 3.367 12.631 2.789 34.34 -1.07 40.23 l -1.475 2.252 h -77.82 c -73.979 0 -77.903 -0.09 -79.47 -1.82 z m 103.59 -58.49 c 2.063 -0.646 3.75 -1.74 3.75 -2.431 0 -1.488 -4.606 -1.703 -5.5 -0.257 -0.34 0.55 -2.14 1 -4 1 -1.86 0 -3.643 0.422 -3.962 0.939 -0.786 1.272 2.595 3.14 4.462 2.466 0.825 -0.298 3.188 -1.071 5.25 -1.717 z m -14.789 -1.311 c 1.488 -0.571 1.482 -0.782 -0.073 -2.5 -2.071 -2.288 -5.681 -2.434 -7.451 -0.3 -1.084 1.306 -1.062 1.732 0.128 2.485 1.675 1.06 5.079 1.205 7.397 0.316 z m 22.539 -6.412 c 0 -0.531 -0.563 -0.958 -1.25 -0.95 -2.113 0.026 -4.044 1.7 -3.317 2.876 0.793 1.284 4.567 -0.308 4.567 -1.926 z" style="fill:#c40000"/><path d="m 41.78 966.62 c -4.059 -6.195 -4.293 -29.05 -0.348 -34.07 1.48 -1.882 1.805 -3.339 1.319 -5.927 -0.516 -2.749 0.145 -5.116 3.323 -11.897 5.912 -12.616 15.01 -25.27 16.851 -23.429 0.34 0.34 -0.098 2.412 -0.975 4.603 -1.423 3.557 -2.885 10.19 -4.375 19.858 -0.641 4.158 -1.764 4.81 -4.825 2.804 -2.404 -1.575 -2.456 -1.55 -2.47 1.164 -0.008 1.525 -0.268 3.721 -0.579 4.879 -0.479 1.785 0.125 2.333 3.966 3.597 l 4.531 1.492 l 3.27 -3.373 c 3.979 -4.105 10.01 -6.239 12.295 -4.347 0.842 0.699 1.532 2.839 1.532 4.756 0 2.605 0.36 3.347 1.425 2.938 0.784 -0.301 3.034 -0.103 5 0.44 3.07 0.848 3.575 1.404 3.575 3.94 0 3.927 1.129 3.726 3.469 -0.618 1.058 -1.964 3.185 -4.47 4.727 -5.568 2.136 -1.521 2.804 -2.811 2.804 -5.414 0 -3.176 0.427 -3.633 6.03 -6.463 l 6.03 -3.046 l 22.2 0.158 l 22.2 0.158 l 3.888 -8.127 c 5.317 -11.11 6.899 -11.09 11.985 0.208 l 3.754 8.335 l 3.704 -0.598 c 3.686 -0.595 3.705 -0.624 4.01 -5.946 0.169 -2.961 -0.362 -7.308 -1.189 -9.737 c -0.822 -2.414 -1.113 -4.389 -0.645 -4.389 c 2.189 0 11.751 14.824 13.546 21 0.4 1.375 1.234 3.131 1.854 3.903 0.991 1.233 2.381 6.213 4.282 15.347 0.572 2.747 2.332 3.865 2.361 1.5 0.01 -0.833 0.338 -0.75 0.985 0.25 1.316 2.037 1.257 20.701 -0.085 26.961 -0.662 3.087 -1.806 5.445 -2.934 6.05 c -1.174 0.628 -29.81 0.99 -78.39 0.99 h -76.54 l -1.559 -2.38 z m 69.18 -24.19 c 0.331 -0.862 0.079 -2.089 -0.559 -2.728 -1.431 -1.431 -4.444 0.189 -4.929 2.652 -0.432 2.194 4.648 2.264 5.487 0.076 z" style="fill:#b80000"/><path d="m 40.1 963.25 c -0.638 -1.533 -1.161 -8.157 -1.183 -14.974 -0.035 -11.141 0.161 -12.493 2.211 -15.267 1.737 -2.349 2.105 -3.815 1.614 -6.43 -0.505 -2.694 0.176 -5.12 3.331 -11.852 5.912 -12.616 15.01 -25.27 16.851 -23.429 0.34 0.34 -0.098 2.412 -0.975 4.603 -1.423 3.557 -2.885 10.19 -4.375 19.858 -0.641 4.158 -1.764 4.81 -4.825 2.804 -2.404 -1.575 -2.456 -1.55 -2.47 1.164 -0.008 1.525 -0.277 3.756 -0.6 4.958 -0.505 1.881 -0.016 2.338 3.514 3.289 3.141 0.846 4.1 1.593 4.1 3.196 0 1.627 0.909 0.95 4.087 -3.041 3.997 -5.02 6.903 -6.656 10.584 -5.958 2.753 0.522 2.779 4.888 0.053 8.905 -3.561 5.248 -2.226 6.821 2.157 2.541 3.177 -3.103 4.04 -3.464 6.636 -2.776 2.551 0.677 3.03 1.334 3.297 4.538 0.376 4.484 1.804 4.35 4.871 -0.455 4.579 -7.175 8.48 -9.131 9.815 -4.923 0.349 1.1 1.171 2 1.827 2 0.656 0 1.754 -0.9 2.441 -2 1.397 -2.237 5.251 -2.63 8.135 -0.828 1.575 0.984 2.518 0.663 5.88 -2 4.717 -3.736 7.699 -4.03 9.317 -0.922 0.644 1.237 1.277 2.379 1.406 2.537 0.129 0.158 1.417 -0.251 2.86 -0.909 2.184 -0.995 2.933 -0.918 4.456 0.461 1.718 1.554 1.977 1.502 4.178 -0.841 2.202 -2.344 1.607 -3.707 -0.639 -1.461 -0.677 0.677 -1.893 0.712 -3.503 0.1 -1.5 -0.57 -3.106 -0.579 -4.102 -0.022 -1.207 0.676 -2.312 0.24 -4.214 -1.662 -3.053 -3.053 -5.34 -2.67 -10.398 1.742 -3.148 2.746 -3.466 2.824 -5.183 1.271 -2.189 -1.981 -7.452 -1.202 -8.859 1.311 -1.456 2.601 -6.06 -2.331 -6.087 -6.513 -0.016 -2.956 0.5 -3.497 5.963 -6.254 l 5.98 -3.02 l 21.52 0.073 c 11.836 0.04 21.52 0.471 21.52 0.957 0 1.396 -6.962 2.967 -13.179 2.973 -6.01 0.006 -9.445 1.938 -8.379 4.716 0.307 0.799 0.558 1.641 0.558 1.871 0 0.23 0.373 0.418 0.829 0.418 0.456 0 0.794 -1.013 0.75 -2.25 -0.074 -2.101 0.544 -2.327 9.311 -3.413 11.16 -1.382 12.5 -2.402 16.863 -12.837 4 -9.575 5.478 -9.372 9.805 1.354 1.854 4.595 3.891 8.982 4.528 9.75 0.705 0.849 2.97 1.368 5.786 1.325 3.505 -0.053 4.142 -0.279 2.628 -0.93 -1.1 -0.473 -3.238 -0.891 -4.75 -0.93 -4 -0.102 -3.58 -2.864 0.5 -3.257 3.179 -0.307 3.257 -0.43 3.556 -5.675 0.17 -2.971 -0.36 -7.318 -1.189 -9.75 c -0.822 -2.414 -1.105 -4.389 -0.629 -4.389 c 3.02 0 14.701 20.257 13.757 23.866 -0.324 1.238 0.051 2.225 0.979 2.581 0.907 0.348 1.302 1.346 0.996 2.517 -0.279 1.067 -0.058 2.09 0.492 2.273 1.126 0.375 3.751 7.339 3.774 10.01 0.008 0.962 0.518 1.75 1.133 1.75 1.553 0 0.702 24.727 -0.955 27.75 l -1.233 2.25 h -77.99 h -77.99 l -1.145 -2.75 z m 84.74 -8.5 c 0.023 -2.337 0.437 -5.111 0.92 -6.164 0.617 -1.346 0.542 -1.706 -0.255 -1.214 -1.845 1.14 -3.265 7.651 -2.131 9.771 0.547 1.022 1.091 1.857 1.209 1.857 0.118 0 0.234 -1.913 0.257 -4.25 z m 57.737 -3.871 c -0.503 -0.503 -0.656 0.722 -0.358 2.872 0.478 3.451 0.548 3.521 0.877 0.877 0.197 -1.58 -0.037 -3.267 -0.519 -3.749 z m -73.8 2.058 c -0.417 -1.313 0.306 -3.961 1.986 -7.283 2.494 -4.93 2.555 -5.384 1.094 -8.187 -1.237 -2.373 -1.549 -2.564 -1.554 -0.955 -0.003 1.122 -0.999 2.45 -2.25 3 -3.087 1.358 -3.591 4.487 -0.722 4.487 1.69 0 2.01 0.394 1.445 1.75 -1.271 3.02 -1.727 6.16 -1.123 7.733 0.882 2.298 1.874 1.815 1.125 -0.546 z m 11.431 -6.253 c 1.149 -2.374 2.068 -5.186 2.042 -6.25 -0.026 -1.064 -0.892 0.229 -1.925 2.873 -1.033 2.644 -2.417 5.457 -3.076 6.25 -0.736 0.887 -0.799 1.443 -0.164 1.443 0.568 0 1.973 -1.942 3.122 -4.316 z m 56.07 1.566 c -0.011 -0.962 -0.661 -4 -1.444 -6.75 l -1.425 -5 l 0.573 5.25 c 0.315 2.888 0.274 5.25 -0.091 5.25 -0.365 0 -1.787 -0.736 -3.16 -1.635 -4.078 -2.672 -3.802 -0.888 0.298 1.928 4.527 3.108 5.275 3.244 5.25 0.958 z m -76.29 -5.592 c 3.688 -0.363 6.31 -2.22 6.31 -4.469 0 -1.208 -0.475 -1.056 -2.079 0.665 -1.395 1.498 -2.726 2.026 -4.048 1.606 -1.083 -0.344 -2.622 -0.084 -3.419 0.578 -0.797 0.662 -4.198 1.324 -7.556 1.472 -4.926 0.217 -6.413 -0.089 -7.694 -1.584 -1.182 -1.38 -1.921 -1.576 -2.896 -0.767 -1.52 1.261 -1.789 3.256 -0.317 2.346 0.546 -0.337 1.783 -0.164 2.75 0.386 1.54 0.875 8.566 0.789 18.948 -0.233 z m 81.31 0.033 c 0 -0.72 -0.676 -2.182 -1.502 -3.25 -1.564 -2.02 -1.565 -1.859 -0.029 3.059 0.577 1.848 1.531 1.967 1.531 0.191 z m -138.61 -1.275 c 0.374 -0.974 0.15 -1.431 -0.581 -1.188 c -1.495 0.498 -2.318 2.771 -1 2.771 c 0.537 0 1.25 -0.713 1.584 -1.584 z m 103.29 -1.604 c -0.319 -0.798 -0.556 -0.561 -0.604 0.604 -0.043 1.054 0.193 1.645 0.525 1.313 0.332 -0.332 0.368 -1.195 0.079 -1.917 z m 6.317 -3.813 c 0 -1.1 -0.408 -2 -0.906 -2 -0.499 0 -0.671 0.9 -0.383 2 0.288 1.1 0.696 2 0.906 2 0.211 0 0.383 -0.9 0.383 -2 z m 22.768 -3 c 0.692 -1.108 0.815 -2 0.276 -2 -0.535 0 -1.455 0.9 -2.044 2 -0.589 1.1 -0.713 2 -0.276 2 0.437 0 1.357 -0.9 2.044 -2 z m -105.71 -5.816 c -1.841 -0.614 -6.476 4.323 -5.517 5.875 0.567 0.918 1.61 0.341 3.785 -2.092 2.01 -2.247 2.581 -3.499 1.732 -3.782 z m 93.11 -4.172 c 1.467 -0.007 2.868 0.55 3.113 1.238 0.246 0.688 0.789 0.932 1.207 0.543 0.418 -0.389 0.472 -1.459 0.119 -2.379 -0.504 -1.312 -1.499 -1.557 -4.624 -1.138 -2.19 0.294 -3.982 0.389 -3.982 0.212 0 -0.177 0.94 -2.497 2.09 -5.155 l 2.09 -4.833 l 2.927 5.75 c 1.61 3.163 3.348 5.75 3.864 5.75 0.516 0 0.274 -1.237 -0.537 -2.75 -0.811 -1.513 -2.361 -4.916 -3.445 -7.564 -1.084 -2.648 -2.396 -4.552 -2.914 -4.231 -0.937 0.579 -5.061 10.689 -5.52 13.531 -0.132 0.817 -2.383 2.253 -5 3.19 -2.62 0.937 -5.01 1.949 -5.308 2.249 -0.299 0.299 -1.137 -0.236 -1.861 -1.19 -1.224 -1.611 -1.319 -1.586 -1.349 0.349 -0.018 1.146 0.213 2.328 0.512 2.627 0.299 0.299 4.01 -0.971 8.25 -2.821 4.239 -1.851 8.906 -3.37 10.373 -3.377 z" style="fill:#720000"/><path d="m 43.45 964.16 c -2.525 -2.525 -3.704 -15.923 -1.802 -20.476 0.96 -2.297 1.045 -3.683 0.299 -4.866 -0.806 -1.278 -0.394 -2.59 1.812 -5.774 2.169 -3.13 2.576 -4.399 1.693 -5.282 c -0.639 -0.639 -1.162 -2.117 -1.162 -3.285 0 -4 11.875 -26.477 13.99 -26.477 c 0.338 0 0.18 2.624 -0.35 5.83 -0.876 5.299 -1.169 5.791 -3.214 5.4 -3.135 -0.599 -5.348 3.144 -6.444 10.898 -0.996 7.04 -0.415 8.398 4.02 9.372 1.574 0.346 3.394 1.27 4.04 2.053 0.982 1.183 1.857 0.577 5.156 -3.567 3.893 -4.89 6.811 -6.51 10.471 -5.816 2.753 0.522 2.779 4.888 0.053 8.905 -3.561 5.248 -2.226 6.821 2.157 2.541 3.177 -3.103 4.04 -3.464 6.636 -2.776 2.551 0.677 3.03 1.334 3.297 4.538 0.376 4.484 1.804 4.35 4.871 -0.455 4.579 -7.175 8.48 -9.131 9.815 -4.923 0.349 1.1 1.171 2 1.827 2 0.656 0 1.754 -0.9 2.441 -2 1.397 -2.237 5.251 -2.63 8.135 -0.828 1.575 0.984 2.518 0.663 5.88 -2 4.717 -3.736 7.699 -4.03 9.317 -0.922 0.644 1.237 1.277 2.379 1.406 2.537 0.129 0.158 1.417 -0.251 2.86 -0.909 2.184 -0.995 2.933 -0.918 4.456 0.461 1.719 1.556 1.979 1.496 4.254 -0.979 l 2.423 -2.636 l -4.311 0.551 c -3.86 0.493 -4.427 0.296 -5.423 -1.889 -0.677 -1.485 -0.751 -2.779 -0.189 -3.306 0.508 -0.476 4.917 -1.318 9.799 -1.871 10.594 -1.2 12.03 -2.316 16.377 -12.709 4 -9.575 5.478 -9.372 9.805 1.354 1.854 4.595 3.891 8.982 4.528 9.75 0.665 0.802 3 1.396 5.498 1.396 h 4.34 l 0.288 -9.25 l 0.288 -9.25 l 4.25 8.366 c 2.338 4.601 4.25 8.941 4.25 9.643 0 0.702 0.621 1.516 1.381 1.807 0.819 0.314 1.415 2.088 1.465 4.357 0.046 2.105 0.55 5.399 1.119 7.32 0.569 1.921 1.035 4.729 1.035 6.238 0 2.25 -0.405 2.702 -2.25 2.507 -1.967 -0.208 -2.288 0.28 -2.551 3.886 -0.398 5.445 -4.072 9.211 -7.474 7.66 -2.178 -0.992 -2.275 -0.873 -1.9 2.335 0.228 1.954 0.958 3.381 1.729 3.381 0.734 0 1.966 0.902 2.739 2.01 1.102 1.573 2.084 1.87 4.557 1.375 2.866 -0.573 3.152 -0.403 3.152 1.878 0 1.756 -0.675 2.689 -2.25 3.111 -3.168 0.849 -16.03 0.749 -17.346 -0.135 -1.709 -1.146 -2.629 -6.258 -1.394 -7.746 0.849 -1.023 0.059 -2.033 -3.512 -4.49 -2.534 -1.744 -5.225 -2.933 -5.979 -2.644 -1.409 0.541 -4.672 7.116 -5.831 11.749 -0.599 2.396 -1.192 2.655 -7.419 3.243 -11.372 1.074 -21.718 0.776 -23.715 -0.684 -2.134 -1.561 -3.272 -11.452 -1.662 -14.458 0.684 -1.279 0.597 -3.01 -0.281 -5.562 -1.459 -4.243 -3.596 -6.945 -3.632 -4.592 -0.012 0.798 -0.84 3.25 -1.839 5.45 -0.999 2.2 -1.846 4.38 -1.88 4.843 -0.128 1.706 -5.529 6.49 -6.783 6.01 -2.686 -1.031 -2.659 -5.461 0.066 -10.847 2.35 -4.644 2.496 -5.498 1.302 -7.618 -0.739 -1.313 -1.39 -2.508 -1.445 -2.655 -0.21 -0.556 -5.171 2.397 -6.854 4.08 -1.081 1.081 -2.502 1.519 -3.698 1.139 -1.068 -0.339 -2.595 -0.075 -3.392 0.586 -0.797 0.662 -4.198 1.324 -7.556 1.472 -4.926 0.217 -6.413 -0.089 -7.694 -1.584 -1.182 -1.38 -1.921 -1.576 -2.896 -0.767 -2.01 1.667 -1.567 3.626 1.232 5.46 4.626 3.03 4.867 4.907 1.115 8.659 -1.966 1.966 -3.645 4.851 -4.04 6.934 -0.851 4.536 -1.702 4.757 -18.37 4.775 -11.543 0.012 -13.487 -0.223 -15.09 -1.826 z m 132.84 -15.584 c 0 -0.783 -0.504 -3.609 -1.121 -6.279 l -1.121 -4.856 l -3.413 3.413 c -1.877 1.877 -3.194 3.632 -2.926 3.899 1.202 1.202 7.155 5.154 7.83 5.198 0.412 0.027 0.75 -0.592 0.75 -1.375 z m 14 -11.71 c 0 -3.198 -2.862 -3.373 -6 -0.367 -1.607 1.54 -3.523 2.513 -4.335 2.202 -1.146 -0.44 -1.302 0.009 -0.735 2.12 0.431 1.605 1.42 2.681 2.469 2.686 0.962 0.004 2.216 0.84 2.785 1.857 0.925 1.653 1.289 1.402 3.425 -2.36 1.315 -2.315 2.391 -5.077 2.391 -6.138 z m -44.32 2.946 c -0.319 -0.798 -0.556 -0.561 -0.604 0.604 -0.043 1.054 0.193 1.645 0.525 1.313 0.332 -0.332 0.368 -1.195 0.079 -1.917 z m 7.733 -3.454 c 0.535 -1.393 1.675 -1.544 7.547 -0.999 4.548 0.423 7.146 0.272 7.586 -0.44 0.368 -0.595 1.698 -0.824 2.956 -0.509 2.617 0.657 3.51 -0.791 4.109 -6.662 0.363 -3.562 0.236 -3.75 -2.526 -3.75 -3.03 0 -4.126 -1.595 -8.49 -12.322 -0.855 -2.102 -1.985 -3.556 -2.511 -3.231 -0.924 0.571 -5.063 10.641 -5.514 13.415 -0.321 1.973 -3.291 3.361 -5.614 2.624 -3.21 -1.019 -7.957 0.429 -7.957 2.426 0 0.965 0.245 1.998 0.544 2.297 0.299 0.299 4.01 -0.971 8.25 -2.821 8.42 -3.676 12.663 -4.249 13.589 -1.834 0.419 1.093 -0.293 1.866 -2.393 2.598 -1.644 0.573 -2.99 1.393 -2.99 1.821 0 0.428 -2.209 1.729 -4.909 2.891 -4.01 1.726 -4.813 2.48 -4.383 4.123 0.637 2.435 1.852 2.601 2.709 0.37 z m -84.36 -9.174 c -1.841 -0.614 -6.476 4.323 -5.517 5.875 0.567 0.918 1.61 0.341 3.785 -2.092 2.01 -2.247 2.581 -3.499 1.732 -3.782 z m -15.387 -9.851 c -0.367 -0.367 -0.667 -1.132 -0.667 -1.7 0 -0.627 0.466 -0.568 1.183 0.15 0.651 0.651 0.951 1.416 0.667 1.7 -0.284 0.284 -0.817 0.217 -1.183 -0.15 z" style="fill:#e80000"/><path d="m 43.45 964.16 c -1.949 -1.949 -3.643 -14.599 -2.527 -18.867 0.517 -1.978 1.033 -2.123 5.717 -1.603 2.94 0.327 6.03 1.374 7.213 2.441 2.938 2.66 6.33 2.322 11.855 -1.182 4.418 -2.802 4.953 -2.922 6.552 -1.475 1.508 1.365 1.902 1.383 2.934 0.139 1.01 -1.211 1.812 -0.83 5.132 2.424 4.259 4.175 4.336 5.833 0.389 8.419 -1.484 0.973 -2.829 3.258 -3.512 5.968 -0.787 3.125 -1.728 4.559 -3.26 4.97 -1.185 0.318 -8.117 0.584 -15.404 0.592 -11.543 0.012 -13.487 -0.223 -15.09 -1.826 z m 82.84 -0.16 c -2.746 -2.746 -2.328 -5.159 1 -5.78 2.23 -0.416 4.982 -4.246 10 -13.916 4.187 -8.07 4.918 -8.901 10.5 -11.971 6.353 -3.494 17.514 -7.652 18.336 -6.831 0.269 0.269 -0.934 0.985 -2.674 1.591 -1.739 0.606 -3.162 1.458 -3.162 1.892 0 0.434 -2.893 2.02 -6.428 3.522 -7.223 3.07 -7.459 3.44 -10.09 15.851 -2.259 10.656 -1.504 11.18 7.815 5.429 10.75 -6.634 10.575 -6.622 19.247 -1.357 5.04 3.06 8.653 4.57 10.935 4.57 2.277 0 3.874 0.665 4.812 2.01 1.102 1.573 2.084 1.87 4.557 1.375 2.866 -0.573 3.152 -0.403 3.152 1.878 0 1.756 -0.675 2.689 -2.25 3.111 -3.168 0.849 -16.03 0.749 -17.346 -0.135 -1.709 -1.146 -2.629 -6.258 -1.394 -7.746 0.849 -1.023 0.059 -2.033 -3.512 -4.49 -2.534 -1.744 -5.225 -2.933 -5.979 -2.644 -1.409 0.541 -4.672 7.116 -5.831 11.749 -0.599 2.396 -1.192 2.655 -7.419 3.243 -3.722 0.352 -10.255 0.642 -14.518 0.646 -6.423 0.006 -8.093 -0.335 -9.75 -1.993 z m -16.01 -8.03 c -1.256 -0.794 -1.264 -0.944 -0.054 -0.957 0.79 -0.008 2.475 -0.992 3.746 -2.186 1.271 -1.194 2.533 -1.949 2.804 -1.677 0.271 0.271 -0.744 1.679 -2.256 3.128 -1.997 1.913 -3.157 2.377 -4.24 1.692 z m 18.04 -4.6 c 0.018 -0.48 0.692 -1.746 1.5 -2.814 1.175 -1.554 1.468 -1.628 1.468 -0.372 0 0.863 -0.675 2.129 -1.5 2.814 -0.825 0.685 -1.486 0.852 -1.468 0.372 z m 54.714 -0.622 c -2.422 -1.85 -3.268 -6.336 -1.336 -7.077 0.975 -0.374 1.977 0.183 2.675 1.487 1.055 1.971 1.247 1.854 3.515 -2.139 4.287 -7.548 1.929 -11.818 -3.601 -6.52 -3.911 3.747 -8.02 2.333 -4.75 -1.634 c 2.048 -2.485 12.39 -10.866 13.408 -10.866 c 0.959 0 3.342 9.838 3.342 13.798 0 1.663 -0.532 2.122 -2.25 1.94 -1.954 -0.207 -2.292 0.289 -2.57 3.762 -0.315 3.941 -3.353 8.5 -5.663 8.5 -0.624 0 -1.871 -0.563 -2.771 -1.25 z m -34.12 -4.5 c 1.156 -4.779 2.284 -7.238 4.319 -9.422 1.753 -1.881 2.674 -2.048 8.162 -1.474 3.993 0.417 6.662 0.252 7.526 -0.465 0.737 -0.612 2.02 -0.851 2.853 -0.531 2.45 0.94 1.739 4.275 -1.489 6.991 -2.298 1.934 -3.763 2.408 -6.25 2.022 -2.476 -0.384 -4.386 0.225 -8.03 2.563 -6.124 3.925 -7.981 4.01 -7.088 0.317 z m -24.12 -1.5 c -0.347 -1.237 -1.154 -3.311 -1.794 -4.607 -1.01 -2.038 -0.847 -2.614 1.174 -4.25 3.165 -2.563 4.442 -2.379 3.88 0.558 -0.258 1.348 -0.198 2.42 0.133 2.382 3.761 -0.432 3.991 1.585 0.618 5.418 -2.93 3.329 -3.21 3.364 -4.01 0.5 z m -67.05 -0.817 c -0.363 -0.587 -0.502 -1.158 -0.309 -1.27 0.193 -0.112 2.858 -1.882 5.923 -3.933 6.187 -4.141 6.927 -4.384 6.927 -2.276 0 1.629 -8.568 8.546 -10.585 8.546 -0.713 0 -1.594 -0.48 -1.956 -1.067 z m 26.354 -1.617 c 0.722 -0.289 1.584 -0.253 1.917 0.079 0.332 0.332 -0.258 0.569 -1.313 0.525 -1.165 -0.048 -1.402 -0.285 -0.604 -0.604 z m -41.06 -2.397 c -2.372 -1.382 -2.211 -2.648 0.912 -7.154 2.022 -2.918 2.383 -4.121 1.5 -5 c -0.639 -0.639 -1.162 -2.117 -1.162 -3.285 0 -4 11.875 -26.477 13.99 -26.477 c 0.338 0 0.18 2.624 -0.35 5.83 -0.876 5.299 -1.169 5.791 -3.214 5.4 -3.135 -0.599 -5.348 3.144 -6.444 10.898 -0.996 7.04 -0.415 8.398 4.02 9.372 4.335 0.952 5.504 2.87 3.985 6.537 -0.692 1.672 -2.068 3.472 -3.056 4 -2.331 1.248 -7.945 1.182 -10.179 -0.118 z m 63.927 -5.04 c 1.167 -1.167 2.644 -1.799 3.282 -1.404 1.363 0.843 -1.562 3.442 -3.931 3.494 -1.083 0.023 -0.912 -0.529 0.649 -2.09 z m -46.677 0.244 c 0 -0.483 0.635 -1.404 1.411 -2.049 1.567 -1.301 3.17 0.177 2.089 1.926 -0.762 1.232 -3.5 1.328 -3.5 0.122 z m 74.05 -4.208 c 0.614 -1.147 1.315 -1.887 1.559 -1.643 0.7 0.7 -0.719 3.729 -1.747 3.729 -0.511 0 -0.426 -0.938 0.188 -2.086 z m 41.52 -3.414 c 0.636 -3.391 0.559 -3.5 -2.455 -3.5 -1.711 0 -3.111 -0.384 -3.111 -0.854 0 -1.016 12.779 -0.708 13.796 0.333 0.734 0.752 -6.473 7.521 -8.01 7.521 -0.483 0 -0.583 -1.575 -0.222 -3.5 z m -43.1 -2.563 c -0.364 -0.589 -0.504 -1.208 -0.311 -1.378 0.193 -0.169 5.889 -0.526 12.66 -0.793 8.171 -0.322 11.975 -0.151 11.314 0.51 -0.548 0.548 -4.962 1.153 -9.809 1.345 -4.847 0.192 -9.799 0.582 -11 0.867 -1.204 0.285 -2.486 0.037 -2.85 -0.552 z m 51.789 -6.643 c -2.14 -0.412 -2.249 -0.883 -2.235 -9.614 0.011 -6.708 0.298 -8.777 1.067 -7.68 1.904 2.716 7.918 15.417 7.918 16.722 0 1.251 -2.242 1.441 -6.75 0.572 z m -130.58 -0.961 c -0.367 -0.367 -0.667 -1.132 -0.667 -1.7 0 -0.627 0.466 -0.568 1.183 0.15 0.651 0.651 0.951 1.416 0.667 1.7 -0.284 0.284 -0.817 0.217 -1.183 -0.15 z" style="fill:#320000"/><path d="m 125.29 958.94 c 0 -0.582 0.462 -0.773 1.028 -0.424 1.749 1.081 6.477 -5.01 10.82 -13.94 3.738 -7.686 4.676 -8.838 9.402 -11.559 4.889 -2.814 11.855 -5.759 17.75 -7.503 4.513 -1.336 0.754 1.02 -6.25 3.918 -3.713 1.536 -6.75 3.161 -6.75 3.612 0 0.451 -0.836 1.085 -1.857 1.409 -1.021 0.324 -2.341 1.592 -2.932 2.817 -0.841 1.743 -1.09 1.854 -1.143 0.509 -0.145 -3.675 -3.25 -0.279 -7.08 7.737 -2.174 4.556 -5.127 9.678 -6.561 11.382 -2.511 2.985 -6.43 4.228 -6.43 2.04 z m 16.315 -1.563 c -0.632 -1.648 2.52 -16.876 3.327 -16.07 0.242 0.242 -0.3 3.69 -1.203 7.663 -2.271 9.987 -1.393 10.525 7.858 4.816 10.75 -6.634 10.575 -6.622 19.247 -1.357 4.14 2.513 8.663 4.57 10.05 4.57 1.428 0 2.255 0.434 1.906 1 -1.182 1.912 -4.061 0.973 -10.729 -3.5 -3.689 -2.475 -7.697 -4.5 -8.905 -4.5 -1.209 0 -5.446 2.025 -9.417 4.5 -7.6 4.737 -11.1 5.567 -12.133 2.878 z m -30.78 -2.329 c 1.119 -0.454 2.637 -1.55 3.372 -2.437 0.736 -0.887 1.811 -1.612 2.39 -1.612 0.579 0 -0.005 1.125 -1.297 2.5 -1.292 1.375 -3.283 2.471 -4.424 2.437 -2.069 -0.063 -2.069 -0.066 -0.041 -0.888 z m 17.497 -3.676 c 0.018 -0.48 0.692 -1.746 1.5 -2.814 1.175 -1.554 1.468 -1.628 1.468 -0.372 0 0.863 -0.675 2.129 -1.5 2.814 -0.825 0.685 -1.486 0.852 -1.468 0.372 z m 52.943 -2.938 c -1.056 -2.778 -1.299 -5.092 -0.444 -4.237 0.755 0.755 2.422 6.802 1.875 6.802 -0.25 0 -0.894 -1.154 -1.43 -2.565 z m -127.09 -0.286 c -1.312 -1.018 -4.352 -2.107 -6.756 -2.421 -2.404 -0.314 -4.845 -1.044 -5.423 -1.623 -1.961 -1.961 9.645 0.021 11.859 2.025 2.938 2.66 6.33 2.322 11.855 -1.182 4.418 -2.802 4.953 -2.922 6.552 -1.475 1.572 1.422 1.867 1.425 3.03 0.027 0.707 -0.852 1.519 -1.316 1.804 -1.031 0.285 0.285 -0.272 1.391 -1.239 2.459 -1.396 1.542 -2.211 1.734 -3.969 0.933 -1.748 -0.797 -3.229 -0.468 -7.05 1.565 -5.758 3.062 -7.492 3.179 -10.657 0.723 z m 94.73 -1.899 c 0.361 -1.513 1.272 -4.1 2.024 -5.75 l 1.368 -3 l -0.553 3 c -0.304 1.65 -0.787 3.788 -1.073 4.75 -0.74 2.492 0.787 2.182 6.375 -1.291 4.136 -2.571 5.306 -2.884 7.566 -2.025 3.633 1.381 3.366 2.048 -0.576 1.437 -2.478 -0.384 -4.386 0.225 -8.03 2.563 -6.123 3.924 -7.978 4.01 -7.097 0.317 z m -21.637 -2.224 c 1.69 -2.373 1.899 -3.383 1.033 -5 -1.333 -2.49 -3.571 -2.616 -4.934 -0.276 -0.936 1.608 -1.022 1.612 -1.05 0.057 -0.028 -1.582 3.455 -4.807 5.192 -4.807 0.428 0 0.777 0.914 0.777 2.031 0 1.117 0.675 2.29 1.5 2.607 2.106 0.808 1.823 2.422 -0.984 5.612 -3.217 3.655 -4.196 3.513 -1.535 -0.224 z m -69.52 -0.093 c -0.363 -0.587 -0.502 -1.158 -0.309 -1.27 0.193 -0.112 2.858 -1.882 5.923 -3.933 6.187 -4.141 6.927 -4.384 6.927 -2.276 0 1.629 -8.568 8.546 -10.585 8.546 -0.713 0 -1.594 -0.48 -1.956 -1.067 z m 26.354 -1.617 c 0.722 -0.289 1.584 -0.253 1.917 0.079 0.332 0.332 -0.258 0.569 -1.313 0.525 -1.165 -0.048 -1.402 -0.285 -0.604 -0.604 z m -40.707 -2.231 c -0.894 -0.566 0.52 -0.83 3.944 -0.735 5.234 0.145 5.383 0.071 7.628 -3.852 1.259 -2.2 2.297 -3.415 2.306 -2.7 0.028 2.173 -2.808 6.919 -4.528 7.579 -2.35 0.902 -7.73 0.733 -9.35 -0.293 z m 135.59 -1.828 c -0.442 -0.683 -0.441 -1.868 0.001 -2.633 1.309 -2.265 13.214 -11.823 14.272 -11.459 0.536 0.184 -2.135 2.809 -5.935 5.834 -3.8 3.02 -7.05 6.4 -7.222 7.5 -0.222 1.414 -0.549 1.636 -1.116 0.758 z m -6.616 -1.841 c 0.048 -1.165 0.285 -1.402 0.604 -0.604 0.289 0.722 0.253 1.584 -0.079 1.917 -0.332 0.332 -0.569 -0.258 -0.525 -1.313 z m -65.4 -1.538 c 1.184 -1.184 2.641 -1.8 3.297 -1.395 0.774 0.479 0.258 1.202 -1.513 2.121 -3.752 1.947 -4.253 1.743 -1.783 -0.726 z m -46.677 0.244 c 0 -0.483 0.635 -1.404 1.411 -2.049 1.567 -1.301 3.17 0.177 2.089 1.926 -0.762 1.232 -3.5 1.328 -3.5 0.122 z m 74.05 -4.208 c 0.614 -1.147 1.315 -1.887 1.559 -1.643 0.7 0.7 -0.719 3.729 -1.747 3.729 -0.511 0 -0.426 -0.938 0.188 -2.086 z m 43.877 -2.503 c 1.692 -1.424 3.077 -2.999 3.077 -3.5 0 -0.501 -2.475 -0.911 -5.5 -0.911 -3.03 0 -5.5 -0.384 -5.5 -0.854 0 -1.016 12.779 -0.708 13.796 0.333 0.744 0.761 -6.482 7.521 -8.04 7.521 -0.501 0 0.474 -1.165 2.167 -2.589 z m -45.46 -3.474 c -0.364 -0.589 -0.504 -1.208 -0.311 -1.378 0.193 -0.169 5.889 -0.526 12.66 -0.793 8.171 -0.322 11.975 -0.151 11.314 0.51 -0.548 0.548 -4.962 1.153 -9.809 1.345 -4.847 0.192 -9.799 0.582 -11 0.867 -1.204 0.285 -2.486 0.037 -2.85 -0.552 z m 51.54 -6.937 c -1.959 -0.627 -2.067 -0.797 -0.5 -0.782 1.1 0.01 3.35 0.362 5 0.782 2.695 0.686 2.746 0.765 0.5 0.782 -1.375 0.01 -3.625 -0.342 -5 -0.782 z" style="fill:#710000"/></g></g></svg>