<svg xmlns="http://www.w3.org/2000/svg" viewBox="0 0 256 256"><path d="m 157.05 800.67 c 237.88 49.54 -17.492 390.35 -138.4 185.62 -51.828 -79.53 16.06 -211.1 138.4 -185.62 z" transform="matrix(1 0 0 -0.99577 1.342 1048.14)" style="fill:#fff;color:#000"/><g transform="matrix(5.20709 0 0 4.90324 3.142 15.464)" style="fill:#ff4500"><path d="m 13 13 v 24 h 24 v -12 h -12 v -12 h -12 z m 18 2 a 4 4 0 0 0 -4 4 4 4 0 0 0 4 4 4 4 0 0 0 4 -4 4 4 0 0 0 -4 -4 z" style="opacity:0.1"/><g><path d="m 18,18 -6,6 12,0 -6,-6 z"/><path d="m 18,18 -6,-6 12,0 -6,6 z"/><path d="m 18,18 6,-6 0,12 -6,-6 z" style="fill:#fa8072"/><path d="m 18,18 -6,-6 0,12 6,-6 z" style="fill:#ffa07a"/><path d="m 30,30 -6,6 12,0 -6,-6 z"/><path d="m 30,30 -6,-6 12,0 -6,6 z"/><path d="m 30,30 6,-6 0,12 -6,-6 z" style="fill:#ffa07a"/><path d="m 30,30 -6,-6 0,12 6,-6 z" style="fill:#ff7f50"/><path d="m 18,30 -6,6 12,0 -6,-6 z"/><path d="m 18,30 -6,-6 12,0 -6,6 z"/><path d="m 18,30 6,-6 0,12 -6,-6 z" style="fill:#ffa07a"/><path d="m 18,30 -6,-6 0,12 6,-6 z" style="fill:#ff7f50"/></g><circle r="4" cy="18" cx="30"/></g></svg>