<svg xmlns="http://www.w3.org/2000/svg" viewBox="0 0 256 256"><defs><clipPath id="0"><path transform="matrix(15.33333 0 0 11.5 415 -125.5)" d="m -24 13 c 0 1.105 -0.672 2 -1.5 2 -0.828 0 -1.5 -0.895 -1.5 -2 0 -1.105 0.672 -2 1.5 -2 0.828 0 1.5 0.895 1.5 2 z"/></clipPath><clipPath><rect y="6" x="6" rx="6" height="84" width="84" style="fill:#ff4500"/></clipPath></defs><g transform="translate(0 -796.36)"><path d="M 229.63,992.2 C 321.68,861.27 151.682,728.6 43.24,835.29 c -102.17,100.51 -7.449,256.68 119.69,207.86 26.526,-10.185 49.802,-26.914 66.7,-50.948 z" style="fill:#fff;color:#000"/><g transform="matrix(4.89986 0 0 4.89829 9.04 805.44)" style="fill:#ff4500"><g transform="matrix(1.0023 0 0 1.0023 -0.092 -0.092)" style="clip-path:url(#0)"><g transform="translate(1 1)" style="opacity:0.1"><path d="m 39 24.03 c 0 8.263 -6.702 14.966 -14.966 14.966 -8.263 0 -14.966 -6.702 -14.966 -14.966 0 -8.263 6.702 -14.966 14.966 -14.966 8.263 0 14.966 6.702 14.966 14.966"/><path d="m 35 24 c 0 6.074 -4.926 11 -11 11 -6.074 0 -11 -4.926 -11 -11 0 -6.074 4.926 -11 11 -11 6.074 0 11 4.926 11 11"/><path d="m 32 24 c 0 4.418 -3.582 8 -8 8 -4.418 0 -8 -3.582 -8 -8 0 -4.418 3.582 -8 8 -8 4.418 0 8 3.582 8 8"/><path d="m 30 24 c 0 3.313 -2.688 6 -6 6 -3.313 0 -6 -2.688 -6 -6 0 -3.313 2.688 -6 6 -6 3.313 0 6 2.688 6 6"/><path d="m 26 21 c 0 1.105 -0.895 2 -2 2 -1.105 0 -2 -0.895 -2 -2 0 -1.105 0.895 -2 2 -2 1.105 0 2 0.895 2 2"/><path d="m 25 26 c 0 0.551 -0.449 1 -1 1 -0.551 0 -1 -0.449 -1 -1 0 -0.551 0.449 -1 1 -1 0.551 0 1 0.449 1 1"/></g></g><g transform="matrix(1.07143 0 0 1.07143 -1.714 -1.714)" style="clip-path:url(#0)"><g><path d="m 38 24 c 0 7.73 -6.27 14 -14 14 -7.73 0 -14 -6.27 -14 -14 0 -7.73 6.27 -14 14 -14 7.73 0 14 6.27 14 14"/><path d="m 35.2 24 c 0 6.184 -5.02 11.2 -11.2 11.2 -6.184 0 -11.2 -5.02 -11.2 -11.2 0 -6.184 5.02 -11.2 11.2 -11.2 6.184 0 11.2 5.02 11.2 11.2" style="fill:#ffdead"/><path d="m 31.467 24 c 0 4.123 -3.343 7.467 -7.467 7.467 -4.123 0 -7.467 -3.343 -7.467 -7.467 0 -4.123 3.343 -7.467 7.467 -7.467 4.123 0 7.467 3.343 7.467 7.467"/><path d="m 29.6 24 c 0 3.092 -2.509 5.6 -5.6 5.6 -3.092 0 -5.6 -2.509 -5.6 -5.6 0 -3.092 2.509 -5.6 5.6 -5.6 3.092 0 5.6 2.509 5.6 5.6" style="fill:#faebd7"/></g></g></g></g></svg>