<svg xmlns="http://www.w3.org/2000/svg" viewBox="0 0 256 256"><g style="fill:#d3d3d3;color:#000"><path d="m -429.05 1690.33 c 145.2 -221.6 -385.23 -232.05 -202.66 -3.617 48.21 58.77 163.57 87.45 202.66 3.617 z" transform="matrix(-0.95926 0 0 -1.14823 -387.11 2000.98)" style="fill:#fff"/><g transform="matrix(8.61321 0 0 8.6789 -1690.3 -1801.27)" style="fill:#ff4500"><path d="m 213.5 221 c -2.474 0 -4.5 2.027 -4.5 4.5 0 2.473 2.026 4.5 4.5 4.5 0.877 0 1.684 -0.277 2.375 -0.719 l 1.313 1.313 c 0.342 0.442 1.079 0.497 1.482 0.111 0.404 -0.386 0.381 -1.125 -0.045 -1.486 l -1.344 -1.344 c 0.444 -0.693 0.719 -1.495 0.719 -2.375 0 -2.473 -2.026 -4.5 -4.5 -4.5 z m 0 1.656 c 1.591 0 2.844 1.254 2.844 2.844 0 0.753 -0.285 1.432 -0.75 1.938 -0.084 0.061 -0.158 0.135 -0.219 0.219 -0.154 0.135 -0.318 0.244 -0.5 0.344 h -0.031 c -0.402 0.214 -0.852 0.344 -1.344 0.344 -1.591 0 -2.875 -1.254 -2.875 -2.844 0 -1.59 1.284 -2.844 2.875 -2.844 z" style="color:#000"/><path d="m 204.47 215 c -0.811 0 -1.469 0.657 -1.469 1.469 v 11.06 c 0 0.811 0.658 1.499 1.469 1.469 l 3.063 0.031 v -2 l -2.78 -0.03 c -0.407 -0.005 -0.75 -0.343 -0.75 -0.75 v -8.5 c 0 -0.407 0.343 -0.75 0.75 -0.75 h 10.5 c 0.407 0 0.754 0.343 0.75 0.75 v 2.25 h 1 v -3.531 c 0 -0.811 -0.657 -1.469 -1.469 -1.469 z"/><g style="fill-opacity:0.298"><path d="m 210.06 218.03 c -1.268 -0.014 -1.157 1.205 -1.063 1.438 -0.207 -0.208 -0.623 -1.424 -1.656 -0.906 -1.037 0.52 -0.021 1.558 0.094 1.719 -0.305 -0.126 -2.248 -1.03 -2.375 0.188 -0.098 0.943 1.715 1.198 1.844 1.219 -0.074 -0.064 -2.218 0.188 -1.844 1.344 0.323 0.997 2.19 0.13 2.375 0 -0.189 0.088 -1.804 0.999 -0.656 1.688 0.401 0.241 0.843 0.127 1.219 -0.094 0.078 -0.521 0.224 -1.037 0.438 -1.5 -0.714 -0.332 -1.188 -0.898 -1.188 -1.531 0 -1.028 1.237 -1.875 2.75 -1.875 0.686 0 1.305 0.18 1.781 0.469 0.008 0.005 0.024 -0.005 0.031 0 0.411 -0.128 0.835 -0.191 1.281 -0.219 0.309 -0.403 0.497 -0.935 -0.094 -1.313 -1.015 -0.648 -1.825 0.598 -2.031 0.938 0.204 -0.342 0.357 -1.549 -0.906 -1.563 z"/><path d="m 214 224.09 v 0.156 c 0.004 0.407 -0.314 0.75 -0.719 0.75 h -1.406 c -0.101 0.211 -0.156 0.44 -0.156 0.688 0 0.538 0.243 1.01 0.656 1.313 h 1.188 c 0.807 0 1.438 -0.657 1.438 -1.469 v -0.656 c -0.215 -0.366 -0.574 -0.65 -1 -0.781 z"/></g></g></g></svg>