<svg xmlns="http://www.w3.org/2000/svg" viewBox="0 0 256 256"><path d="m -1374.42 1658.71 c 125.16 -274.08 -273.7 -240.16 -226.07 -62.2 23.02 102.82 167.39 165.22 226.07 62.2 z" transform="matrix(-1 0 0 1 -1349 -1455.48)" style="fill:#fff;color:#000"/><g style="fill-rule:evenodd"><g style="stroke:#ff4500;stroke-width:5.938"><path d="m 107.39 174.56 c -20.242 -6.926 -33.797 -22.33 -36.966 -42.01 -3.689 -22.908 11.32 -46.66 35.34 -55.926 c 8.249 -3.182 28.09 -2.996 36.678 0.344 12.872 5 24.87 15.1 30.1 25.327 7.434 14.541 7.162 33.14 -0.694 47.578 -3.642 6.692 -14.15 16.786 -21.733 20.879 -12.336 6.657 -29.832 8.215 -42.723 3.804 z m 3.23 -29.23 l 20.272 -13.257 l 14.364 -19.974 c 7.9 -10.986 13.518 -19.65 12.484 -19.253 -1.942 0.745 -24.715 15.43 -35.07 22.611 -4.372 3.033 -8.486 7.735 -16.14 18.449 -5.652 7.908 -11.961 16.696 -14.02 19.53 -2.06 2.834 -3.389 5.153 -2.954 5.153 0.435 0 9.914 -5.966 21.06 -13.257 z" style="fill:#ffa07a"/><path d="m 66.46 187.92 c -2.634 -1.196 -5.527 -3.611 -6.792 -5.671 -2.149 -3.498 -2.197 -4.945 -1.921 -57.47 l 0.284 -53.879 l 2.712 -2.902 c 5.704 -6.103 4.065 -5.95 63.67 -5.946 53.07 0.004 55.24 0.084 58.64 2.16 1.944 1.186 4.505 3.746 5.691 5.691 2.071 3.397 2.156 5.561 2.16 55.46 0.004 51.37 -0.021 51.965 -2.365 56.14 -1.51 2.687 -3.995 5 -6.851 6.385 -4.297 2.08 -6.672 2.169 -57.56 2.146 -49.998 -0.023 -53.35 -0.145 -57.669 -2.106 z m 75.862 -9.779 c 4 -1.238 10.848 -4.64 15.216 -7.562 32.411 -21.678 32.409 -68.47 -0.004 -90.15 -24.323 -16.268 -55.706 -13.218 -75.85 7.373 -20.743 21.2 -20.73 54.42 0.028 75.42 15.848 16.03 38.762 21.673 60.61 14.914 z" style="fill:#fff"/></g><g style="stroke-width:1.204"><path d="m 100.33 147.99 c 0 -0.171 7.502 -10.654 11.412 -15.948 3.926 -5.315 7.724 -9.896 8.206 -9.896 0.095 0 0.941 0.753 1.879 1.673 0.938 0.92 2.291 2.182 3.01 2.804 0.716 0.622 1.827 1.626 2.47 2.231 l 1.169 1.1 l -6.869 4.498 c -10.779 7.06 -20.672 13.462 -20.986 13.582 -0.158 0.06 -0.287 0.041 -0.287 -0.043 z" style="fill:#ffdead;stroke:#ffdead"/><path d="m 126.06 126.72 c -1.616 -1.487 -3.553 -3.247 -4.305 -3.913 -0.752 -0.665 -1.351 -1.266 -1.331 -1.336 0.153 -0.53 3.861 -3.379 8.334 -6.404 5.97 -4.04 18.497 -12.231 18.986 -12.419 0.174 -0.067 0.317 -0.057 0.317 0.022 0 0.079 -0.96 1.5 -2.134 3.157 -2.891 4.083 -16.588 23.2 -16.778 23.42 -0.083 0.096 -1.474 -1.042 -3.089 -2.529 z" style="fill:#8b0000;stroke:#8b0000"/></g></g></svg>