<svg xmlns="http://www.w3.org/2000/svg" xmlns:xlink="http://www.w3.org/1999/xlink" viewBox="0 0 256 256"><defs><path id="0" d="m 25.942 34.1 c 0 1.892 -1.533 3.425 -3.425 3.425 -1.892 0 -3.425 -1.533 -3.425 -3.425 0 -1.892 1.533 -3.425 3.425 -3.425 1.892 0 3.425 1.533 3.425 3.425 z"/></defs><g transform="translate(0 -796.36)"><path d="m 52.774 1027.39 c 192.46 127.95 311 -280.09 62.2 -226.07 -102.82 23.02 -165.22 167.39 -62.2 226.07 z" style="fill:#fff;color:#000"/><g transform="matrix(4.31996 0 0 4.33033 27.01 -3527.18)"><g style="fill:#ff4500;color:#000"><use transform="matrix(3.74691 0 0 3.74691 -60.37 900.59)" xlink:href="#0" width="256" height="256"/><use transform="matrix(3.33329 0 0 3.33329 -51.06 914.69)" xlink:href="#0" width="256" height="256" style="fill-opacity:0.851"/><use transform="matrix(3.63742 0 0 3.63742 -57.904 904.32)" xlink:href="#0" width="256" height="256"/></g><path d="m 24,1017.2 c -0.254,0 -0.501,0.032 -0.751,0.048 l 0.727,11.191 7.751,-8.115 c -2.01,-1.929 -4.724,-3.125 -7.727,-3.125 z" style="fill:#3e3e3e;fill-opacity:0.006"/><path d="m 29.16 1030.92 l -7.07 -7.984 l 9.66 -2.922 z" style="fill:#ffdead"/><g style="fill:#ff4500;stroke:#ff4500;color:#000"><path d="m 24 1015.53 c -7.085 0 -12.833 5.751 -12.833 12.839 0 0.053 -0.001 0.103 0 0.156 0.097 -7 5.809 -12.656 12.833 -12.656 7.02 0 12.736 5.652 12.833 12.656 0.001 -0.053 0 -0.103 0 -0.156 0 -7.088 -5.748 -12.838 -12.833 -12.838 z" style="fill-opacity:0.235"/><path d="m 11.193 1028.02 c -0.003 0.114 -0.026 0.223 -0.026 0.338 0 7.088 5.749 12.839 12.833 12.839 7.085 0 12.833 -5.751 12.833 -12.839 0 -0.115 -0.023 -0.224 -0.026 -0.338 -0.179 6.931 -5.836 12.5 -12.807 12.5 -6.972 0 -12.628 -5.569 -12.807 -12.5 z" style="fill-opacity:0.314"/></g><g style="fill:#ff4500"><rect width="0.44" height="2.641" x="23.78" y="1010.86" rx="0.22" style="fill-opacity:0.498"/><g style="stroke:#ff4500"><rect y="1010.86" x="23.78" height="2.641" width="0.44" rx="0.22"/><g transform="matrix(0 1 -1 0 0 0)"><rect y="-9.347" x="1028.01" height="2.847" width="0.475" rx="0.237"/><rect width="0.475" height="2.847" x="1028.01" y="-41.5" rx="0.237"/></g><g transform="matrix(0.70711 0.70711 -0.70711 0.70711 0 0)"><rect width="0.506" height="3.038" x="743.79" y="725.49" rx="0.253"/><rect y="691.67" x="743.79" height="3.038" width="0.506" rx="0.253"/></g><g transform="matrix(-0.70711 0.70711 -0.70711 -0.70711 0 0)"><rect y="-728.65" x="709.85" height="3.038" width="0.506" rx="0.253"/><rect width="0.506" height="3.038" x="709.85" y="-762.47" rx="0.253"/></g><g transform="matrix(-0.5 0.86603 -0.86603 -0.5 0 0)"><rect width="0.197" height="1.181" x="878.16" y="-519.22" rx="0.098"/><rect y="-551.89" x="878.82" height="1.181" width="0.197" rx="0.098"/></g><g transform="matrix(-0.25882 0.96593 -0.96593 -0.25882 0 0)"><rect y="-273.67" x="986.84" height="1.181" width="0.197" rx="0.098"/><rect width="0.197" height="1.181" x="987.18" y="-306.2" rx="0.098"/></g><g transform="matrix(0.25882 0.96593 -0.96593 0.25882 0 0)"><rect width="0.197" height="1.181" x="999.61" y="258.65" rx="0.098"/><rect y="226.12" x="999.26" height="1.181" width="0.197" rx="0.098"/></g><g transform="matrix(0.5 0.86603 -0.86603 0.5 0 0)"><rect y="509.14" x="902.82" height="1.181" width="0.197" rx="0.098"/><rect width="0.197" height="1.181" x="902.16" y="476.47" rx="0.098"/></g><rect y="861.67" x="535.2" height="1.181" width="0.197" transform="matrix(0.86603 0.5 -0.5 0.86603 0 0)" rx="0.098"/><rect transform="matrix(0.96593 0.25882 -0.25882 0.96593 0 0)" width="0.197" height="1.181" x="289.42" y="970.25" rx="0.098"/><rect y="982.68" x="-243.25" height="1.181" width="0.197" transform="matrix(0.96593 -0.25882 0.25882 0.96593 0 0)" rx="0.098"/><rect transform="matrix(0.86603 -0.5 0.5 0.86603 0 0)" width="0.197" height="1.181" x="-493.83" y="885.67" rx="0.098"/></g></g></g></g></svg>