<svg xmlns="http://www.w3.org/2000/svg" xmlns:xlink="http://www.w3.org/1999/xlink" viewBox="0 0 256 256"><defs><path id="0" d="M 153.54 78.21 A 22.22 22.22 0 0 1 131.32 100.44 22.22 22.22 0 0 1 109.1 78.21 22.22 22.22 0 0 1 131.32 55.99 22.22 22.22 0 0 1 153.54 78.21" style="fill:#ff4500;color:#000"/></defs><g transform="translate(0 -796.36)"><path d="m 125.73 798.56 c -111.92 -22.351 -154.42 130.95 -105.92 214.2 38.644 66.33 171.02 47.37 220.37 -42.17 49.35 -89.54 -24.617 -154.09 -114.45 -172.03 z" style="fill:#fff;color:#000"/><path d="m 147.1 91.35 l -82.57 35.36 l 85.22 42.692" transform="translate(0 796.36)" style="fill:none;stroke:#ff4500;stroke-width:16"/><use transform="translate(15.781 809.49)" xlink:href="#0"/><use transform="translate(18.424 887.54)" xlink:href="#0"/><use transform="translate(-64.62 848.1)" xlink:href="#0" width="256" height="256"/></g></svg>