<svg xmlns="http://www.w3.org/2000/svg" viewBox="0 0 256 256"><defs><clipPath><path d="M 0,64 H64 V128 H0 z"/></clipPath></defs><g transform="translate(-3.382 1.431)" style="color:#000"><path d="m 42.516 222.53 c 225.37 146.42 312.59 -253.5 80.74 -221.64 -94.56 12.991 -166.95 165.63 -80.74 221.64 z" style="fill:#fff"/><path d="m 141.9 209.15 c -3.901 -3.743 8.218 -6.744 13.718 -3.397 2.098 1.278 3.815 2.753 3.815 3.279 0 1.113 -16.382 1.224 -17.533 0.118 z m 8.262 -13.914 c -0.112 -4.755 -0.187 -4.796 -1.772 -0.955 -2.063 5 -5.435 5.244 -5.435 0.391 0 -4.348 3.841 -6.088 10.07 -4.562 5.492 1.345 5.966 5.551 0.912 8.188 -3.246 1.693 -3.68 1.347 -3.777 -3.06 z m -14.531 0.278 c 0 -1.529 0.824 -2.286 1.831 -1.679 1.01 0.607 1.831 1.857 1.831 2.782 0 0.924 -0.824 1.679 -1.831 1.679 -1.01 0 -1.831 -1.253 -1.831 -2.782 z m 5.03 -14.506 c -3.343 -0.851 -4.564 -7.69 -1.371 -7.69 1.01 0 1.831 -0.819 1.831 -1.818 0 -1.051 -1.941 -1.344 -4.601 -0.692 -2.638 0.646 -5.761 0.186 -7.323 -1.076 -2.259 -1.827 -2.722 -1.575 -2.722 1.479 0 5.212 -2.647 6.157 -6.281 2.245 -2.281 -2.457 -2.792 -4.994 -1.917 -9.539 1.078 -5.601 0.738 -6.302 -3.559 -7.355 -4.923 -1.204 -15.704 2.926 -15.704 6.01 0 0.912 -3.03 2.211 -6.726 2.887 -5.659 1.035 -7.261 0.587 -10.09 -2.821 -1.851 -2.229 -3.903 -6.157 -4.559 -8.732 -0.657 -2.575 -2.695 -6.689 -4.529 -9.143 -1.831 -2.453 -3.879 -7.155 -4.546 -10.463 -1.139 -5.644 -0.959 -5.926 2.99 -4.703 3.755 1.162 4.068 0.851 2.951 -2.919 -2.673 -9.02 -3.323 -29.572 -1.245 -39.31 2.739 -12.843 12.09 -23.618 27.412 -31.576 13.425 -6.973 30.09 -12.725 36.871 -12.725 6.6 0 31.835 12.418 41.31 20.332 12.282 10.252 16.12 21.13 16.206 45.982 0.04 11.448 0.692 21.411 1.446 22.16 2.644 2.58 1.333 7.656 -3.394 13.13 -3.592 4.159 -4.473 6.666 -3.572 10.16 0.815 3.16 0.2 5.71 -1.924 7.997 -3.832 4.127 -7.742 4.257 -13.328 0.444 -3.522 -2.405 -4.537 -2.491 -5.8 -0.498 -0.842 1.329 -1.825 2.038 -2.186 1.575 -0.359 -0.462 -2.071 -3.049 -3.802 -5.747 -2.025 -3.153 -4.731 -4.907 -7.576 -4.907 -5.906 0 -7.477 2.921 -2.863 5.326 2.422 1.263 3.713 3.738 3.713 7.121 0 2.851 0.824 5.681 1.831 6.288 3.198 1.927 1.972 6.245 -1.774 6.245 -2.336 0 -3.259 -0.878 -2.622 -2.496 0.54 -1.372 -0.024 -3.103 -1.256 -3.843 -1.3 -0.783 -1.768 -0.607 -1.117 0.421 1.195 1.884 -3.557 9.63 -5.695 9.28 -0.698 -0.114 -2.711 -0.575 -4.473 -1.022 z m -4.729 -28.06 c 6.779 -0.214 7.568 -1.515 6.091 -10.04 -1.197 -6.907 -6.203 -14.204 -9.743 -14.204 -0.835 0 -3.433 3.984 -5.772 8.855 -3.451 7.173 -3.826 9.358 -1.986 11.519 1.249 1.465 1.651 3.64 0.895 4.83 -0.998 1.574 -0.417 1.759 2.131 0.678 1.928 -0.817 5.701 -1.556 8.387 -1.642 z m 27.608 -6.175 c -0.253 -1.104 1.569 -2.01 4.046 -2.01 3.887 0 13.804 -7.747 13.804 -10.777 0 -3.506 -12.834 -12.1 -19.532 -13.08 -7.233 -1.056 -7.839 -0.789 -11.574 5.101 -4.994 7.876 -3.616 12.408 5.15 16.92 3.704 1.907 5.657 3.502 4.339 3.545 -1.318 0.043 -1.86 0.924 -1.205 1.957 1.51 2.382 5.586 1.024 4.974 -1.656 z m -66.53 -3.708 c 2.122 -1.106 5.573 -1.01 9.881 0.278 6.03 1.802 6.955 1.595 10.371 -2.314 2.063 -2.361 4.256 -6.502 4.873 -9.2 0.617 -2.7 2.255 -4.907 3.64 -4.907 1.384 0 2.517 -0.831 2.517 -1.847 0 -1.242 -1.106 -1.27 -3.378 -0.086 -2.455 1.279 -4.524 0.981 -7.563 -1.094 -8.341 -5.694 -23.274 -1.317 -28.389 8.32 -3.64 6.86 -3.51 10.315 0.427 11.317 1.761 0.45 3.464 0.91 3.782 1.022 0.319 0.114 2.045 -0.558 3.839 -1.493 z" style="fill:#ff4500"/></g></svg>