<svg xmlns="http://www.w3.org/2000/svg" xmlns:xlink="http://www.w3.org/1999/xlink" viewBox="0 0 256 256"><g transform="translate(0 -796.36)"><path d="m 229.63 992.2 c 92.05 -130.93 -77.948 -263.6 -186.39 -156.91 -102.17 100.51 -7.449 256.68 119.69 207.86 c 26.526 -10.185 49.802 -26.914 66.7 -50.948 z" style="fill:#fff;color:#000"/><g transform="matrix(1.47996 0 0 1.39992 55.742 859.8)" style="fill:#ff4500"><path d="m 6 5.743 h 83.79 v 84.26 h -83.79 z" style="fill-rule:evenodd"/><g transform="translate(-0.284)" style="fill:#8b0000"><path transform="matrix(-0.69461 0 0 0.69461 57.48 0.068)" d="m 53.55 49.37 c 0 4.462 -3.617 8.08 -8.08 8.08 -4.462 0 -8.08 -3.617 -8.08 -8.08 0 -4.462 3.617 -8.08 8.08 -8.08 4.462 0 8.08 3.617 8.08 8.08 z" id="0" style="fill:#8b0000;fill-rule:evenodd"/><path transform="matrix(-0.3355 0 0 0.3355 43.915 19.45)" d="m 50.784 41.41 c 0 1.466 -1.189 2.655 -2.655 2.655 -1.466 0 -2.655 -1.189 -2.655 -2.655 0 -1.466 1.189 -2.655 2.655 -2.655 1.466 0 2.655 1.189 2.655 2.655 z" id="1" style="fill:#8b0000;fill-rule:evenodd"/></g><path d="m 25.27 63.897 c 0.006 0.005 0.013 0.009 0.019 0.013 0.018 0.013 0.035 0.025 0.053 0.038 0.069 0.048 0.138 0.096 0.208 0.143 0 0.266 0.181 0.535 0.357 0.806 0 0 0.993 0.635 2.02 1.232 0 0 3.456 1.888 7.129 3.461 0 0 5.02 1.56 10.366 2.444 15.87 2.299 6.417 -0.182 12.919 -1.875 l -5.584 -8.296 c -3.87 3.336 -8.739 5.798 -14.02 7.04 -4.574 1.086 -9.494 1.289 -14.421 0.806 -3.775 -0.373 -7.555 -1.143 -11.261 -2.281 -1.115 -0.343 -2.222 -0.717 -3.316 -1.138 -0.299 -0.115 -0.596 -0.233 -0.892 -0.357 -0.078 -0.032 -0.155 -0.065 -0.232 -0.099 -0.02 -0.009 -0.04 -0.017 -0.06 -0.026 -0.007 -0.003 -0.014 -0.006 -0.021 -0.009 z" style="fill:#8b0000;fill-rule:evenodd"/><path d="m 6.01 5.743 c 0 0 22.783 3.521 43.29 21.13 0 0 23.404 -19.05 39.973 -21.13 z" style="fill:#dc143c"/><g transform="translate(44.492)" style="fill:#8b0000"><use xlink:href="#0"/><use xlink:href="#1"/></g></g></g></svg>