<svg xmlns="http://www.w3.org/2000/svg" xmlns:xlink="http://www.w3.org/1999/xlink" viewBox="0 0 256 256"><g transform="translate(0 -796.36)"><path d="m 190.17 1030.49 c -255.36 127.44 -253.67 -349.88 5.832 -207.23 71.24 39.16 90.44 159.18 -5.832 207.23 z" style="fill:#fff;color:#000"/><g transform="translate(-2.169 -5.424)" style="fill:#ff4500"><rect width="112.5" height="20" x="95.46" y="896.78" rx="8.257"/><rect y="931.6" x="96.03" height="20" width="112.5" rx="8.257"/><rect width="112.5" height="20" x="96.8" y="968.24" rx="8.257"/><path d="m 69.942 111.49 a 8.96 9.827 0 1 1 -17.919 0 8.96 9.827 0 1 1 17.919 0 z" transform="translate(7.756 795.78)"/></g><path d="m 75.36 938.13 c 0 5.427 -4.01 9.827 -8.96 9.827 -4.948 0 -8.96 -4.4 -8.96 -9.827 0 -5.427 4.01 -9.827 8.96 -9.827 4.948 0 8.96 4.4 8.96 9.827 z" id="0" style="fill:#ff4500"/><use transform="translate(0.507 34.753)" xlink:href="#0" width="256" height="256"/></g></svg>