<svg xmlns="http://www.w3.org/2000/svg" viewBox="0 0 256 256"><g transform="translate(0 -796.36)"><path d="m 211.17 833.49 c 201.82 266.38 -353.59 304.22 -175.35 32.31 40.634 -61.99 121.89 -102.86 175.35 -32.31 z" style="fill:#fff;color:#000"/><g transform="matrix(4.63664 0 0 4.46422 18.348 825.36)" style="fill:#ff4500;stroke:#4b0000;stroke-linecap:round;stroke-linejoin:round;stroke-width:0.5"><path d="m 24,6.25 c 0.117,0 5.082,10.955 5.177,11.03 0.095,0.072 11.54,1.651 11.576,1.768 0.036,0.117 -8.34,8.467 -8.377,8.584 -0.036,0.117 2.072,12.05 1.977,12.12 -0.095,0.072 -10.237,-5.722 -10.354,-5.722 -0.117,0 -10.259,5.795 -10.354,5.722 -0.095,-0.072 2.01,-12 1.977,-12.12 C 15.586,27.515 7.209,19.165 7.245,19.048 7.281,18.931 18.726,17.352 18.821,17.28 18.916,17.208 23.881,6.25 23.998,6.25 z" style="stroke:#ff4500"/><path d="M 31.75 24.5 A 7.75 7.75 0 0 1 24 32.25 7.75 7.75 0 0 1 16.25 24.5 7.75 7.75 0 0 1 24 16.75 7.75 7.75 0 0 1 31.75 24.5 z" style="fill:#ffdead;stroke:#ffdead"/></g></g></svg>