<svg xmlns="http://www.w3.org/2000/svg" viewBox="0 0 256 256"><g transform="translate(0 -796.36)"><path d="m 124.4 1049.99 c -12.627 -1.365 -26.716 -5.548 -39.29 -11.664 c -42.41 -20.634 -74.826 -63.733 -83.7 -111.27 -2.025 -10.857 -1.855 -33.686 0.327 -43.874 5.306 -24.771 17.1 -44.45 36.94 -61.64 c 13.638 -11.817 31.81 -20.484 49.39 -23.558 39.912 -6.976 85.83 8.941 120.48 41.766 31.837 30.16 48.545 70.36 44.1 106.1 -2.263 18.19 -7.953 33.21 -18.832 49.715 -16.938 25.701 -47.15 46.04 -78.35 52.75 -6.673 1.435 -24.446 2.396 -31.07 1.68 z m 62.23 -78.52 c 1.085 -0.81 2.635 -2.36 3.445 -3.445 1.434 -1.92 1.478 -2.896 1.671 -36.949 0.223 -39.39 0.348 -38.36 -5.079 -41.947 l -2.872 -1.901 h -59.34 h -59.34 l -2.527 1.572 c -1.39 0.865 -3.319 2.954 -4.286 4.643 l -1.759 3.071 l -0.236 30.714 c -0.13 16.893 -0.028 32.386 0.225 34.428 0.533 4.291 2.589 7.703 6.04 10.03 l 2.428 1.636 l 59.825 -0.19 c 59.16 -0.188 59.847 -0.207 61.797 -1.663 z" style="fill:#fff"/><path d="m 61.48 974.69 c -1.344 -0.707 -3.314 -2.672 -4.377 -4.367 l -1.933 -3.082 l -0.219 -33.483 c -0.12 -18.416 -0.026 -34.01 0.209 -34.661 0.305 -0.84 7.06 5.797 23.562 23.13 23.08 24.25 27.701 28.377 34.817 31.07 4.779 1.808 14.08 1.839 18.764 0.064 8.232 -3.122 12.133 -6.535 36.15 -31.627 l 23.554 -24.611 l -0.211 35.385 c -0.197 33.08 -0.3 35.541 -1.586 37.784 -0.757 1.319 -2.398 3.052 -3.647 3.851 -2.171 1.387 -4.954 1.461 -62.45 1.641 -54.964 0.173 -60.39 0.077 -62.63 -1.097 z" style="fill:#ffa07a"/><path d="m 113.02 955.16 c -6.147 -2.304 -11.174 -6.463 -25.899 -21.425 -7.615 -7.738 -18 -18.269 -23.08 -23.402 -8.418 -8.509 -9.233 -9.572 -9.233 -12.03 0 -3.27 3.461 -8.887 6.785 -11.01 2.205 -1.409 4.385 -1.461 61.865 -1.464 l 59.58 -0.003 l 2.974 2.258 c 3.441 2.612 4.279 4.01 4.917 8.188 0.445 2.919 0.318 3.17 -3.423 6.749 -2.137 2.045 -12.389 12.466 -22.783 23.16 -26.11 26.857 -29.895 29.618 -41.34 30.13 -5.097 0.228 -7.373 -0.024 -10.367 -1.146 z" style="fill:#ff4500"/></g></svg>