<svg xmlns="http://www.w3.org/2000/svg" viewBox="0 0 256 256"><defs><clipPath id="0"><path transform="matrix(15.33333 0 0 11.5 415 -125.5)" d="m -24 13 c 0 1.105 -0.672 2 -1.5 2 -0.828 0 -1.5 -0.895 -1.5 -2 0 -1.105 0.672 -2 1.5 -2 0.828 0 1.5 0.895 1.5 2 z" style="fill:#1890d0"/></clipPath><clipPath id="1"><path transform="matrix(15.33333 0 0 11.5 415 -125.5)" d="m -24 13 c 0 1.105 -0.672 2 -1.5 2 -0.828 0 -1.5 -0.895 -1.5 -2 0 -1.105 0.672 -2 1.5 -2 0.828 0 1.5 0.895 1.5 2 z" style="fill:#1890d0"/></clipPath></defs><g transform="translate(0 -796.36)"><path d="m 117.3 1051.73 c 155.28 14.765 197.08 -234.25 37.632 -253.59 -146.61 -23.968 -222.12 201.75 -76.44 246.9 c 12.317 4.946 25.786 4.852 38.807 6.696 z" style="fill:#fff;color:#000"/><g transform="matrix(1.90155 0 0 1.81249 5.631 812.16)"><g transform="matrix(2.60005 0 0 2.60005 2.126 1.341)" style="clip-path:url(#1)"><path d="m 11 11 c 3.191 3.359 1.805 5.512 3.543 9.473 1.625 3.68 5.164 0.926 7.59 3.523 -2.426 2.602 -5.977 -0.164 -7.602 3.512 -1.75 3.961 -0.355 6.125 -3.543 9.488 3.363 -3.191 5.527 -1.797 9.488 -3.543 3.68 -1.629 0.926 -5.168 3.523 -7.59 2.578 2.422 -0.16 5.977 3.512 7.602 3.961 1.754 6.109 0.34 9.473 3.535 -3.191 -3.363 -1.781 -5.516 -3.535 -9.477 -1.625 -3.668 -5.168 -0.941 -7.59 -3.52 2.422 -2.582 5.965 0.148 7.59 -3.523 1.754 -3.961 0.34 -6.113 3.535 -9.477 -3.363 3.195 -5.512 1.785 -9.473 3.539 -3.672 1.621 -0.934 5.176 -3.512 7.598 -2.602 -2.422 0.152 -5.961 -3.523 -7.59 -3.961 -1.75 -6.125 -0.352 -9.488 -3.543" transform="translate(1 1)" style="fill:#fff;opacity:0.1;fill-rule:evenodd"/></g><g transform="matrix(2.60005 0 0 2.60005 2.126 1.341)" style="clip-path:url(#0);fill:#ff4500"><path d="m 11 11 c 3.191 3.359 1.805 5.512 3.543 9.473 1.625 3.68 5.164 0.926 7.59 3.523 -2.426 2.602 -5.977 -0.164 -7.602 3.512 -1.75 3.961 -0.355 6.125 -3.543 9.488 3.363 -3.191 5.527 -1.797 9.488 -3.543 3.68 -1.629 0.926 -5.168 3.523 -7.59 2.578 2.422 -0.16 5.977 3.512 7.602 3.961 1.754 6.109 0.34 9.473 3.535 -3.191 -3.363 -1.781 -5.516 -3.535 -9.477 -1.625 -3.668 -5.168 -0.941 -7.59 -3.52 2.422 -2.582 5.965 0.148 7.59 -3.523 1.754 -3.961 0.34 -6.113 3.535 -9.477 -3.363 3.195 -5.512 1.785 -9.473 3.539 -3.672 1.621 -0.934 5.176 -3.512 7.598 -2.602 -2.422 0.152 -5.961 -3.523 -7.59 -3.961 -1.75 -6.125 -0.352 -9.488 -3.543" style="fill-rule:evenodd"/></g></g></g></svg>