<svg xmlns="http://www.w3.org/2000/svg" viewBox="0 0 256 256"><path d="m 231.02 52.769 c 127.95 192.46 -280.09 311 -226.07 62.2 23.02 -102.82 167.39 -165.22 226.07 -62.2 z" style="fill:#fff;color:#000"/><path d="m 113.15 196.32 c 1.241 -0.303 -1.663 -1.24 -7.05 -2.277 c -10.705 -2.059 -23.09 -6.883 -31.984 -12.456 -7.43 -4.656 -19.54 -15.11 -19.54 -16.865 c 0 -1.978 11.676 -11.929 19.86 -16.924 12.03 -7.348 21.11 -10.558 39.04 -13.794 3.662 -0.661 6.657 -1.65 6.654 -2.198 -0.002 -0.548 -4.898 -1.957 -10.88 -3.131 c -13.12 -2.575 -21.271 -5.358 -30.401 -10.38 -8.02 -4.41 -20.301 -13.794 -22.833 -17.446 -1.754 -2.526 -1.72 -2.59 3.938 -8.03 11.713 -11.269 28.977 -19.945 46.34 -23.288 c 5.301 -1.02 8.108 -1.937 6.86 -2.242 -1.161 -0.283 4.3 -0.514 12.137 -0.514 7.836 0 13.298 0.232 12.137 0.514 -1.241 0.303 1.663 1.24 7.05 2.277 10.705 2.059 23.09 6.883 31.984 12.456 7.43 4.656 19.54 15.11 19.54 16.865 0 1.978 -11.676 11.929 -19.86 16.924 -10.491 6.405 -20.09 10.04 -32.973 12.489 -14.501 2.753 -15.454 3.036 -13.565 4.02 0.82 0.428 5.676 1.515 10.791 2.416 18.249 3.214 32.717 9.67 46.17 20.604 10.706 8.7 10.78 8.986 3.997 15.512 -11.652 11.211 -28.951 19.895 -46.28 23.23 -5.301 1.02 -8.107 1.937 -6.86 2.242 1.161 0.283 -4.3 0.514 -12.137 0.514 -7.836 0 -13.298 -0.232 -12.137 -0.514 z m 0.927 -14 c 0.288 -0.44 -0.914 -2.886 -2.67 -5.435 -1.754 -2.55 -3.451 -6.447 -3.766 -8.662 -0.779 -5.481 1.433 -12.321 5.075 -15.692 6.415 -5.939 3.01 -7.71 -9.106 -4.732 -12.406 3.049 -30.04 12.962 -30.04 16.89 0 2.25 8.545 8.522 16.583 12.175 11.131 5.059 22.485 7.648 23.918 5.46 z m 44.557 -4.628 c 9.537 -4.161 18.373 -10.224 18.373 -12.611 0 -3.663 -13.426 -12.13 -24.802 -15.636 -9.164 -2.826 -11.451 -3.218 -13.11 -2.247 -1.2 0.701 -0.916 1.502 1.488 4.194 4 4.483 5.822 8.881 5.795 14.01 -0.024 4.309 -2.995 11.917 -5.144 13.171 -0.641 0.374 -1.165 1.389 -1.165 2.255 0 2.526 9.131 0.982 18.567 -3.135 z m -20.1 -6.983 c 3.258 -3.076 3.3 -6.629 0.119 -10.119 -5.04 -5.536 -13.359 -2.342 -13.359 5.131 0 2.384 0.775 3.881 2.781 5.37 3.688 2.739 7.294 2.609 10.46 -0.381 z m -24.348 -54.31 c 0.345 -0.527 -0.776 -2.786 -2.49 -5.02 -5.756 -7.502 -5.56 -16.969 0.506 -24.475 1.976 -2.444 3.592 -4.887 3.592 -5.431 0 -2.775 -16.244 0.677 -26.913 5.719 -7.476 3.533 -15.303 9.342 -15.303 11.357 0 6.655 37.22 23.02 40.607 17.848 z m 42.785 -3.898 c 8.03 -3.167 17.326 -9.11 19.411 -12.411 2.471 -3.91 -14.294 -14.272 -29.3 -18.1 -9.36 -2.392 -10.578 -1.32 -5.567 4.885 6.02 7.443 6.474 16.15 1.237 23.619 -1.522 2.172 -2.452 4.434 -2.064 5.03 1.074 1.641 7.489 0.455 16.278 -3.01 z m -18.425 -7.149 c 3.798 -2.976 2.403 -10.758 -2.291 -12.778 -3.664 -1.576 -4.999 -1.423 -8.18 0.94 -6.248 4.641 -1.616 14.903 6.073 13.45 1.695 -0.321 3.675 -1.046 4.399 -1.613 z" style="fill:#ff4500"/></svg>