<svg xmlns="http://www.w3.org/2000/svg" viewBox="0 0 256 256"><defs><clipPath id="2"><rect width="416" height="417" x="51" y="54" rx="60.63" style="fill:none;stroke:#000"/></clipPath><clipPath><rect width="23.802" height="23.89" x="12.03" y="11.98" rx="4.099" style="fill:#fff"/></clipPath><clipPath id="1"><rect width="416" height="417" x="51" y="54" rx="60.63" style="fill:none;stroke:#000"/></clipPath><clipPath id="0"><rect width="416" height="417" x="51" y="54" rx="60.63" style="fill:none;stroke:#000"/></clipPath><clipPath><path transform="matrix(15.33333 0 0 11.5 415 -125.5)" d="m -24 13 c 0 1.105 -0.672 2 -1.5 2 -0.828 0 -1.5 -0.895 -1.5 -2 0 -1.105 0.672 -2 1.5 -2 0.828 0 1.5 0.895 1.5 2 z"/></clipPath><clipPath><rect y="11.98" x="12.03" height="23.89" width="23.802" rx="4.099" style="fill:#fff"/></clipPath></defs><g transform="translate(2.903 -798.87)"><g transform="matrix(0.39738 0 0 0.39609 27.25 827.76)"><rect width="243" height="383.29" x="161" y="92.18" transform="matrix(1.0625 0 0 1.0625 -18.19 -21.438)" rx="60.63" style="clip-path:url(#2);fill:#ff4500"/><path d="m 63.742,474.43 c -7.06,-1.902 -10.993,-4.41 -16.467,-10.499 -8.876,-9.872 -8.114,9.372 -8.114,-204.92 0,-217.78 -1.063,-195.61 9.911,-206.59 10.975,-10.975 -11.189,-9.911 206.59,-9.911 217.78,0 195.62,-1.15 206.41,10 10.8,11.153 10.09,-11.419 10.09,207.5 v 190.5 l -2.781,5.664 c -3.538,7.205 -9.35,13.02 -16.555,16.555 l -5.664,2.781 h -64 -64 l -0.255,-91.25 -0.255,-91.25 h 23.883 c 18.932,0 24.12,-0.282 25.01,-1.362 1,-1.207 7.115,-51.757 7.115,-58.831 v -2.775 l -27.75,-0.266 -27.75,-0.266 -0.272,-19.404 c -0.15,-10.672 0.189,-21.899 0.753,-24.948 1.19,-6.438 4.551,-10.579 9.963,-12.274 1.956,-0.613 13.907,-1.397 26.557,-1.744 l 23,-0.63 v -31 -31 l -39.794,-0.262 c -35.883,-0.236 -40.699,-0.074 -49,1.644 -11.66,2.413 -18.951,5.178 -26.352,9.992 -14.679,9.549 -23.07,22.22 -27.91,42.16 -1.456,5.996 -1.923,13.355 -2.378,37.462 l -0.566,30 -15.5,0.5 -15.5,0.5 v 31 31 l 15.5,0.5 15.5,0.5 v 91 91 l -82,0.187 c -69.17,0.158 -82.85,-0.041 -87.42,-1.273 z" transform="matrix(1.0625 0 0 1.0625 -18.19 -21.438)" style="clip-path:url(#1);fill:#fff"/><path d="m 316.15,383.19 0.125,-91.29 26.25,-0.078 c 18.494,-0.055 21.873,0.579 22.717,-0.438 1.208,-1.455 6.596,-52.974 6.58,-57.867 l -0.012,-3.69 -25.788,-0.404 -27.375,0.086 -0.096,-24.811 c -0.094,-24.346 0.424,-27.738 8.292,-31.28 4.221,-1.903 6.972,-2.229 27.945,-2.607 12.788,-0.231 23.11,0.175 23.22,0.101 0.117,-0.074 0.283,-13.558 0.318,-30.18 l 0.068,-32.1 46.25,53.1 45.25,51.22 2.248,118.87 0.126,118.7 -2.871,7.415 c -2.821,7.287 -9.976,13.25 -17.629,15.893 l -5.625,1.942 -63.62,0.16 -63.75,0.035 z" transform="matrix(1.0625 0 0 1.0625 -18.19 -21.438)" style="clip-path:url(#0);fill:#ffdead"/></g><path d="m 120.63 1050.97 c -37.78 -6.883 -78.39 -34.505 -100.64 -68.46 -14.622 -22.307 -20.07 -39.915 -19.984 -64.61 c 0.054 -15.982 1.52 -25.544 5.696 -37.15 13.861 -38.531 45.944 -68.961 83.74 -79.43 8.79 -2.434 11.728 -2.748 25.712 -2.753 13.904 -0.005 17.04 0.325 26.305 2.762 25.379 6.678 45.912 18.828 65.873 38.979 31.671 31.973 48.13 72.23 46.01 112.5 -2.49 47.21 -39.4 88.82 -87.1 98.2 -9.287 1.826 -35.503 1.806 -45.611 -0.035 z m 80.4 -35.37 c 4.805 -1.339 11.311 -7.103 14.261 -12.635 2.21 -4.144 2.218 -4.377 2.218 -68.05 0 -51.16 -8.172 -64.67 -9.278 -67.811 -1.962 -5.571 0.952 -10.839 -4.974 -13.609 l -5.1 -2.384 h -64.68 h -64.68 l -5.1 2.384 c -5.927 2.77 -10.909 8.04 -12.871 13.609 -1.105 3.137 -1.381 16.486 -1.381 66.789 0 58.12 0.139 63.23 1.836 67.64 2.104 5.473 9.333 12.725 13.637 13.68 1.574 0.349 3.32 0.789 3.88 0.976 2.849 0.954 128.7 0.389 132.23 -0.594 z" style="fill:#fff"/></g></svg>