<svg xmlns="http://www.w3.org/2000/svg" viewBox="0 0 256 256"><path d="m 31.869861 193.82114 c 210.749999 226.71 343.529999 -241.199999 63.746 -189.5999986 -73.816 25.4519996 -131.42 116.8099986 -63.746 189.5999986 z" style="fill:#fff;color:#000"/><g transform="matrix(1.1214136 0 0 1.0286253 37.431704 61.640678)"><path d="m 144,24 -60,120 12,0 48,-96 0,-24 z" id="0" style="fill:#d00"/><path d="m 144,72 -36,72 12,0 24,-48 0,-24 z" id="1" style="fill:#700"/><path d="m 58 70 h -41 v -2 h 41 v -20 h -50 v 9 h 41 v 2 h -41 v 20 h 50 v -9 z" id="2" style="fill:#b00"/><g style="fill:#ff4500"><path d="m 71 68 h 32 v 11 h 9 v -20 h -9 v -11 h -9 v 11 h -14 v -11 h -9 v 11 h -9 v 20 h 9 v -11 z" id="6"/><path d="m 28 24 h 30 v -9 h -30 v -2 h 30 v -9 h -19.5 h -19.5 v 11 h -9 v 9 h 9 v 22 h 9 v -22 z" id="7"/></g><path d="m 110 15 h -39 v -11 h -9 v 42 h 48 v -31 z m -39 9 h 30 v 13 h -30 v -13 z" id="3" style="fill:#b00"/><path d="m 144,96 -24,48 12,0 12,-24 0,-24 z" id="4" style="fill:#400"/><path d="m 144,72 -36,72 -12,0 48,-96 0,24 z" id="5" style="fill:#e00"/></g></svg>