<svg xmlns="http://www.w3.org/2000/svg" viewBox="0 0 256 256"><g transform="translate(0 -796.36)"><path d="m 52.774 1027.39 c 192.46 127.95 311 -280.09 62.2 -226.07 -102.82 23.02 -165.22 167.39 -62.2 226.07 z" style="fill:#fff;color:#000"/><path d="m 10.204 44.21 c 3.061 0.859 5.559 1.289 7.492 1.289 2.82 0 5.169 -0.671 7.05 -2.01 2.121 -1.558 3.182 -3.679 3.182 -6.364 0 -2.01 -0.698 -3.76 -2.095 -5.237 -0.886 -0.994 -2.444 -2.135 -4.673 -3.424 l -2.095 -1.168 c -1.504 -0.832 -2.551 -1.517 -3.142 -2.054 -1.074 -0.994 -1.611 -2.054 -1.611 -3.182 0 -1.289 0.524 -2.296 1.571 -3.02 0.913 -0.671 2.027 -1.01 3.343 -1.01 1.531 0 3.827 0.604 6.888 1.813 v -3.786 c -1.262 -0.376 -2.484 -0.658 -3.666 -0.846 -1.155 -0.188 -2.296 -0.282 -3.424 -0.282 -2.417 0 -4.444 0.685 -6.083 2.054 -1.719 1.396 -2.578 3.29 -2.578 5.68 0 1.853 0.712 3.531 2.135 5.04 0.967 1.02 2.511 2.135 4.632 3.343 l 2.01 1.168 c 1.477 0.859 2.524 1.584 3.142 2.175 0.94 0.94 1.41 2.068 1.41 3.384 0 1.477 -0.551 2.645 -1.652 3.504 -0.994 0.752 -2.242 1.128 -3.746 1.128 -2.202 0 -4.901 -0.752 -8.097 -2.256 v 4.068" transform="matrix(5.26892 0 0 3.16671 30.794 827.15)" style="fill:#ffa07a"/><path d="m 82.39 963.9 c 16.13 2.72 29.29 4.082 39.475 4.082 14.858 0 27.24 -2.125 37.15 -6.365 11.175 -4.934 16.766 -11.65 16.766 -20.15 0 -6.365 -3.678 -11.907 -11.04 -16.584 -4.668 -3.148 -12.877 -6.761 -24.622 -10.843 l -11.04 -3.699 c -7.924 -2.635 -13.441 -4.804 -16.555 -6.504 -5.659 -3.148 -8.488 -6.504 -8.488 -10.08 0 -4.082 2.761 -7.271 8.277 -9.563 4.811 -2.125 10.68 -3.198 17.614 -3.198 8.07 0 20.16 1.913 36.29 5.741 v -11.989 c -6.649 -1.191 -13.09 -2.084 -19.316 -2.679 -6.086 -0.595 -12.1 -0.893 -18.04 -0.893 -12.735 0 -23.415 2.169 -32.05 6.504 -9.06 4.421 -13.583 10.418 -13.583 17.987 0 5.868 3.751 11.182 11.249 15.96 5.095 3.23 13.23 6.761 24.406 10.586 l 10.591 3.699 c 7.782 2.72 13.299 5.02 16.555 6.888 4.953 2.977 7.429 6.549 7.429 10.716 0 4.677 -2.903 8.376 -8.704 11.1 -5.237 2.381 -11.813 3.572 -19.737 3.572 -11.602 0 -25.823 -2.381 -42.662 -7.144 v 12.882" style="fill:#ff4500"/></g></svg>