<svg xmlns="http://www.w3.org/2000/svg" xmlns:xlink="http://www.w3.org/1999/xlink" viewBox="0 0 256 256"><defs><path d="m 245.46 129.52 l -97.89 -96.9 c -5.556 -5.502 -16.222 -11.873 -23.7 -14.16 l -39.518 -12.08 c -7.479 -2.286 -18.1 0.391 -23.599 5.948 l -13.441 13.578 c -5.5 5.559 -14.502 14.653 -20 20.21 l -13.44 13.579 c -5.5 5.558 -8.07 16.206 -5.706 23.658 l 12.483 39.39 c 2.363 7.456 8.843 18.06 14.399 23.556 l 97.89 96.9 c 5.558 5.502 14.605 5.455 20.1 -0.101 l 36.26 -36.63 c 5.504 -5.559 14.503 -14.651 20 -20.21 l 36.26 -36.629 c 5.502 -5.56 5.455 -14.606 -0.101 -20.11 z m -178.09 -50.74 c -7.198 0 -13.03 -5.835 -13.03 -13.03 0 -7.197 5.835 -13.03 13.03 -13.03 7.197 0 13.03 5.835 13.03 13.03 -0.001 7.198 -5.836 13.03 -13.03 13.03 z" id="0"/><clipPath><use xlink:href="#0"/></clipPath></defs><g transform="translate(0 -796.36)"><path d="m 212.32 840.15 c 129.89 104.85 -60.27 294.12 -175.21 173.21 -115.19 -104.06 64.59 -306.02 175.21 -173.21 z" style="fill:#fff;color:#000"/><g transform="translate(0 796.36)" style="fill:#ff4500;stroke:#ff4500;fill-rule:evenodd;stroke-width:1.831"><path d="m 172.77 197.35 c -1.389 -0.417 -1.902 -0.965 -1.902 -2.034 0 -0.669 0.271 -1.132 0.905 -1.548 0.79 -0.518 1.755 -0.593 7.623 -0.593 5.922 0 6.827 0.072 7.642 0.606 0.743 0.487 0.904 0.816 0.821 1.672 -0.081 0.836 -0.356 1.192 -1.274 1.651 -0.988 0.494 -2.082 0.58 -7.02 0.556 -3.219 -0.016 -6.276 -0.155 -6.793 -0.311 z"/><path d="m 59.18 206.41 c -2.79 -0.852 -5.347 -3.02 -6.743 -5.707 l -0.781 -1.505 l -0.086 -67.34 l -0.086 -67.34 l 0.884 -1.969 c 1.018 -2.268 3.106 -4.361 5.416 -5.429 l 1.564 -0.723 h 69.56 h 69.56 l 1.887 0.927 c 2.412 1.185 4.352 3.295 5.261 5.724 l 0.716 1.915 l -0.086 67.12 l -0.086 67.12 l -0.821 1.607 c -1.132 2.217 -3.5 4.334 -5.813 5.2 l -1.919 0.718 l -68.794 -0.029 c -37.837 -0.016 -69.17 -0.144 -69.63 -0.284 z m 138.11 -3.727 c 1.97 -0.454 3.61 -1.744 4.383 -3.445 0.596 -1.312 0.625 -2.807 0.632 -31.725 l 0.007 -30.349 l -18.477 0.005 l -18.477 0.005 l -1.338 3.534 c -1.413 3.734 -1.775 4.274 -2.743 4.088 -0.625 -0.12 -0.779 -0.651 -2.936 -10.08 -0.848 -3.708 -0.94 -3.921 -1.485 -3.428 -0.46 0.417 -1.419 0.525 -4.636 0.525 h -4.055 l -0.181 1.087 c -0.1 0.598 -0.639 4.924 -1.199 9.615 -1.098 9.204 -2.205 17.01 -2.531 17.863 -0.272 0.709 -1.369 0.675 -1.759 -0.055 -0.172 -0.322 -0.937 -5.175 -1.699 -10.785 -0.763 -5.61 -2.112 -15.542 -2.999 -22.07 -0.887 -6.53 -1.697 -11.646 -1.8 -11.37 -0.103 0.276 -0.737 4.414 -1.408 9.197 -1.513 10.774 -1.658 11.553 -2.22 11.909 -0.743 0.471 -19.808 0.373 -20.284 -0.104 -0.415 -0.415 -0.557 -3.821 -0.198 -4.755 0.178 -0.463 1.26 -0.529 8.695 -0.529 4.671 0 8.492 -0.118 8.492 -0.262 0 -0.488 4.332 -30.3 5.226 -35.962 0.956 -6.06 1.403 -7.143 2.483 -6.02 0.664 0.69 1.177 3.979 4.17 26.695 1.018 7.725 1.95 14.497 2.072 15.05 l 0.222 1 l 0.232 -1 c 0.128 -0.552 0.252 -1.53 0.277 -2.174 0.024 -0.644 0.234 -1.547 0.467 -2.01 0.412 -0.815 0.533 -0.84 4.91 -1 l 4.488 -0.167 l 1.404 -5.351 c 0.772 -2.943 1.511 -5.614 1.642 -5.936 0.308 -0.755 1.393 -0.755 1.784 0 0.167 0.322 1.084 4.046 2.039 8.277 0.955 4.23 1.801 7.917 1.879 8.193 0.124 0.439 2.64 0.502 20.04 0.502 h 19.902 l -0.007 -33.27 c -0.007 -31.966 -0.032 -33.33 -0.643 -34.674 -0.4 -0.88 -1.163 -1.748 -2.058 -2.341 l -1.423 -0.942 l -68.58 -0.098 c -46.902 -0.067 -68.963 0.012 -69.789 0.251 -1.694 0.489 -2.951 1.572 -3.675 3.165 -0.586 1.29 -0.62 2.783 -0.627 27.573 -0.006 22.16 0.064 26.15 0.451 25.829 0.326 -0.27 3.444 -0.355 10.785 -0.292 10.222 0.088 10.33 0.096 10.644 0.811 0.317 0.721 0.321 0.72 1.839 -0.31 0.837 -0.568 7.642 -5.521 15.12 -11.01 7.48 -5.485 13.65 -9.973 13.711 -9.972 0.061 0 0.134 16.629 0.161 36.952 0.037 27.748 -0.046 36.895 -0.334 36.725 -0.211 -0.125 -5.2 -3.694 -11.09 -7.933 -5.886 -4.238 -12.572 -9.02 -14.859 -10.625 -4.04 -2.837 -4.168 -2.899 -4.524 -2.182 -0.365 0.732 -0.431 0.737 -10.487 0.825 -6.596 0.058 -10.348 -0.034 -10.775 -0.263 -0.649 -0.347 -0.656 -0.09 -0.656 23.919 0 23.2 0.028 24.325 0.636 25.511 0.913 1.78 2.123 2.782 3.952 3.274 2.073 0.558 134.8 0.667 137.2 0.113 z"/><path d="m 121.18 172.27 c -1.466 -0.448 -2.274 -1.443 -2.01 -2.479 0.401 -1.596 1.583 -1.859 8.357 -1.859 3.4 0 6.56 0.144 7.02 0.319 1.24 0.472 2.02 1.801 1.56 2.66 -0.719 1.343 -1.599 1.522 -7.875 1.599 -3.311 0.041 -6.483 -0.068 -7.05 -0.241 z"/><path d="m 121.18 180.61 c -2.44 -0.708 -2.811 -2.936 -0.64 -3.843 1.348 -0.563 12.606 -0.692 14.01 -0.16 0.462 0.176 1.091 0.702 1.398 1.17 0.513 0.784 0.515 0.916 0.021 1.67 -0.295 0.451 -1.103 0.977 -1.794 1.169 -1.514 0.42 -11.536 0.415 -12.989 -0.007 z"/><path d="m 121.17 189.1 c -0.391 -0.077 -1.059 -0.51 -1.484 -0.963 -1.065 -1.133 -0.606 -2.49 1.032 -3.052 1.747 -0.599 12.4 -0.571 13.855 0.036 2.38 0.994 2.157 3.146 -0.399 3.856 -1.183 0.328 -11.461 0.425 -13 0.122 z"/><path d="m 120.85 197.33 c -2.341 -0.68 -2.232 -3.321 0.164 -3.987 1.915 -0.532 12.203 -0.428 13.555 0.137 2.244 0.938 2.244 2.797 0 3.735 -1.298 0.542 -11.941 0.631 -13.719 0.115 z"/><path d="m 146.88 188.96 c -2.404 -0.694 -2.538 -2.873 -0.236 -3.835 1.601 -0.669 12.408 -0.671 14.01 -0.002 2.111 0.882 1.836 3.239 -0.453 3.874 -1.496 0.416 -11.851 0.387 -13.319 -0.037 z"/><path d="m 146.57 197.21 c -2.174 -0.946 -2.137 -2.797 0.073 -3.721 1.352 -0.565 11.64 -0.669 13.555 -0.137 2.5 0.695 2.548 3.302 0.073 3.989 -1.932 0.536 -12.397 0.436 -13.701 -0.131 z"/><path d="m 172.96 180.66 c -1.597 -0.398 -2.141 -0.98 -2.026 -2.167 0.078 -0.797 0.366 -1.165 1.271 -1.616 1.73 -0.864 12.65 -0.864 14.38 0 0.918 0.459 1.193 0.815 1.274 1.651 0.083 0.856 -0.079 1.186 -0.82 1.672 -0.795 0.522 -1.763 0.614 -6.959 0.668 -3.319 0.034 -6.524 -0.059 -7.12 -0.208 z"/><path d="m 172.67 188.98 c -2.214 -0.669 -2.469 -2.742 -0.46 -3.746 1.73 -0.864 12.65 -0.864 14.38 0 0.918 0.459 1.193 0.815 1.274 1.651 0.083 0.856 -0.079 1.186 -0.82 1.672 -0.797 0.523 -1.773 0.615 -7.126 0.672 -3.411 0.036 -6.673 -0.076 -7.247 -0.249 z"/></g></g></svg>