<svg xmlns="http://www.w3.org/2000/svg" xmlns:xlink="http://www.w3.org/1999/xlink" viewBox="0 0 256 256"><defs><clipPath><path d="m 12 96 c -3.324 0 -6 2.676 -6 6 v 72 c 0 3.324 2.676 6 6 6 h 72 c 3.324 0 6 -2.676 6 -6 v -72 c 0 -3.324 -2.676 -6 -6 -6 h -72 z m 36 11 c 18.225 0 33 12.09 33 27 0 14.912 -14.775 27 -33 27 -2.714 0 -5.351 -0.276 -7.875 -0.781 -3.393 3.541 -9.783 8.233 -19.406 7.188 7.43 -2.1 8.999 -8.241 9.344 -10.75 c -9.06 -4.813 -15.06 -13.158 -15.06 -22.656 0 -14.912 14.775 -27 33 -27 z"/></clipPath><clipPath><rect y="6" x="6" rx="6" height="84" width="84" style="fill:#f00"/></clipPath></defs><g transform="translate(0 -796.36)"><path d="m -1374.42 1658.71 c 125.16 -274.08 -273.7 -240.16 -226.07 -62.2 23.02 102.82 167.39 165.22 226.07 62.2 z" transform="matrix(0 -1 1 0 -1456.49 -551.64)" style="fill:#fff;color:#000"/><g transform="matrix(1.7046 0 0 1.61325 38.653 847.69)" style="fill:#ffa07a"><g transform="matrix(1.12479 0 0 1.09241 -2.75 -4.267)"><g transform="matrix(1.23424 0 0 1 -3.867 -3.392)"><path d="m 16.508 14.818 h 3.166 v 68.52 h -3.166 z" id="0" style="fill:#ffa07a;fill-rule:evenodd"/><path d="m 32.508 14.818 h 3.166 v 68.52 h -3.166 z" id="1" style="fill:#ffa07a;fill-rule:evenodd"/><path d="m 48.51,14.818 h 3.166 v 68.52 H 48.51 z" id="2" style="fill:#ffa07a;fill-rule:evenodd"/><path d="m 64.51,14.818 h 3.166 v 68.52 H 64.51 z" id="3" style="fill:#ffa07a;fill-rule:evenodd"/></g><g transform="matrix(-0.00675 1.23422 -0.99999 -0.00547 97.44 -5.995)"><use xlink:href="#0" width="256" height="256"/><use xlink:href="#1" width="256" height="256"/><use xlink:href="#2" width="256" height="256"/><use xlink:href="#3" width="256" height="256"/></g></g><path d="m 48.23 62.834 c 3.103 0 5.619 2.414 5.619 5.392 0 2.978 -2.516 5.392 -5.619 5.392 -3.103 0 -5.619 -2.414 -5.619 -5.392 0 -2.978 2.516 -5.392 5.619 -5.392 z m 1.124 -43.14 c 9.931 0 17.981 6.164 17.981 15.1 0 3.235 -2.248 8.627 -6.743 10.784 -4.495 2.157 -6.743 5.05 -6.743 8.627 v 4.314 h -11.238 v -3.235 c 0 -7.335 6.743 -11.863 8.99 -14.02 4.495 -4.314 4.495 -4.912 4.495 -6.47 0 -3.574 -3.02 -6.47 -6.743 -6.47 -3.724 0 -6.743 2.896 -6.743 6.47 v 3.235 h -11.238 v -2.157 c 0 -8.934 8.05 -16.18 17.981 -16.18 z" style="fill:#ff4500"/></g></g></svg>