<svg xmlns="http://www.w3.org/2000/svg" viewBox="0 0 256 256"><g style="fill:#d3d3d3;color:#000"><path d="m 231.54 60.09 c 139.28 254.45 -369.54 266.45 -194.4 4.153 46.25 -67.48 156.91 -100.41 194.4 -4.153 z" style="fill:#fff"/><g transform="matrix(8.7018 0 0 9.59441 -1191.68 -2010.38)" style="fill:#ff4500"><path d="m 146.09 221 c -1.277 0 -2.313 2.025 -2.313 4.5 0 2.475 1.035 4.375 2.313 4.375 0.031 0 0.064 -0.029 0.094 -0.031 v 0.031 l 8.812 -0.875 c -1.813 0 -3.063 -1.099 -3.063 -3.5 0 -2.389 1.036 -3.5 3.063 -3.5 l -1.586 -0.996 c -3.23 -0.01 -7.32 -0.004 -7.32 -0.004 z m 0.023 0.992 l 4.977 0.008 c 0.17 0 0.322 0.189 0.188 0.375 -0.842 1.516 -0.898 3.782 -0.357 5.569 0 0.174 -0.143 0.313 -0.313 0.313 l -5.05 0.014 c -0.17 0 -0.25 -0.201 -0.25 -0.375 -0.086 -1.756 -0.921 -4.158 0.585 -5.841 0 0 0.049 -0.063 0.219 -0.063 z" style="color:#000"/><path d="m 150.01 217 c -0.395 0 -0.71 0.17 -0.89 0.463 l -2.282 3.689 l -0.14 0.278 h 0.304 h 1.101 h 0.117 l 0.047 -0.104 l 1.454 -2.171 c 0.036 -0.058 0.159 -0.15 0.281 -0.15 l 7.396 0.003 c 0.079 -0.005 0.079 0.11 0.079 0.11 l -2.873 5.721 l -0.094 0.162 l 0.164 0.093 l 0.07 0.701 l 0.694 0.368 l 0.094 -0.162 l 3.47 -7 c 0.139 -0.232 0.005 -1.39 -0.108 -1.595 -0.126 -0.227 -0.384 -0.412 -0.714 -0.405 h -8.17 z" style="fill-rule:evenodd"/><g style="color:#000"><path transform="matrix(0.49628 0 0 0.49231 138.12 209.77)" d="m 35.562 31.953 a 1.781 3.047 0 1 1 -3.563 0 1.781 3.047 0 1 1 3.563 0 z"/><path d="m 150.08 227.01 c 0 0 -2.919 -0.022 -3.105 -0.022 -0.186 0 -0.268 0.032 -0.372 -0.147 -0.307 -0.43 -0.521 -1.104 -0.578 -1.717 -0.011 -0.119 -0.207 -0.126 -0.302 -0.127 h -2.56 c -0.133 0 -0.157 0.241 -0.157 0.241 -0.052 1.9 0.719 4.756 2.889 4.747 l 7.89 0.01 c -2.679 -0.161 -2.631 -1.348 -2.842 -2.472 -0.181 -0.352 -0.259 -0.521 -0.57 -0.521 z" style="fill-rule:evenodd"/><path d="m 151.91 221 a 0.502 0.502 0 1 0 0.09 1 h 2.5 c 3.107 0 3.587 7 0 7 h -2.938 a 0.5 0.5 0 1 0 0 1 H 154.5 c 4.851 0 4.508 -9 0 -9 H 152 a 0.5 0.5 0 0 0 -0.094 0 z"/></g></g></g></svg>