<svg xmlns="http://www.w3.org/2000/svg" xmlns:xlink="http://www.w3.org/1999/xlink" viewBox="0 0 256 256"><defs><clipPath><circle cy="92" cx="343.99899" r="36" style="fill:none"/></clipPath><clipPath><path d="M -1078.46,254.843 H-677.364 V600.93 H-1078.46 z"/></clipPath><clipPath><rect y="6" x="6" rx="6" height="84" width="84" style="fill:#fff"/></clipPath><clipPath><path d="m 241.39794 87.718739 c 1.02227 3.84022 1.23315 19.768331 -13.22529 27.663441 -10.77577 5.88413 -42.60386 10.71132 -64.4252 -13.62557 -22.63753 -25.247094 -7.64646 -54.641096 9.21098 -69.390002 8.77624 -7.678514 18.96301 -10.784626 22.68164 -8.554623 3.93961 2.362521 4.0518 7.11576 0.90779 9.35012 -7.55185 5.366873 -14.2741 20.626501 -6.81383 31.195433 8.80738 12.47725 23.77923 7.323253 31.52685 6.357942 6.40232 -0.797674 16.43761 3.105729 20.13706 17.003259 z"/></clipPath><clipPath><path d="M 37.4836,80.8638 H580.809 V451.11 H37.4836 z"/></clipPath><clipPath><path d="m 448.5109 -0.00001107 l 156.3427 -0.24345342 c 4.68177 -0.007285 8.45083 -4.91461591 8.45083 -11.0193165 v -56.894421 c 0 -6.1047 -3.76906 -11.019314 -8.45083 -11.019314 h -134.8586 c -4.68176 0 -41.32597 10.325207 -40.05119 15.581491 l 13.28234 54.7667786 c 1.27478 5.2562871 0.603 8.83552567 5.28475 8.82823533 z"/></clipPath><clipPath><path d="M 0.624229,42.6321 H618.867 V490.552 H0.624229 z"/></clipPath><clipPath><path d="M -1079.36,253.939 H-678.268 V600.026 H-1079.36 z"/></clipPath><clipPath><path d="m -24 13 c 0 1.105 -0.672 2 -1.5 2 -0.828 0 -1.5 -0.895 -1.5 -2 0 -1.105 0.672 -2 1.5 -2 0.828 0 1.5 0.895 1.5 2 z" transform="matrix(15.33333 0 0 11.5 415 -125.5)"/></clipPath><clipPath><rect width="84" height="84" rx="6" x="6" y="6" style="fill:#fff"/></clipPath><clipPath><path d="m -7.03082 52.330923 c 0.079764 0.299642 0.096219 1.542467 -1.031927 2.158496 -0.840799 0.459122 -3.324243 0.835768 -5.026892 -1.06316 -1.766334 -1.969954 -0.596629 -4.263473 0.718703 -5.414285 0.684782 -0.599131 1.479623 -0.841483 1.769776 -0.667485 0.307395 0.184337 0.316149 0.555217 0.07083 0.729557 -0.589247 0.418763 -1.113763 1.60942 -0.531662 2.434077 0.687212 0.973568 1.855418 0.571418 2.45994 0.496095 0.499552 -0.06224 1.282574 0.242332 1.57123 1.326705 z"/></clipPath><clipPath><rect y="6" x="6" rx="6" height="84" width="84" style="fill:#fff"/></clipPath><clipPath><rect y="6" x="6" rx="6" height="84" width="84" style="fill:#fff"/></clipPath><clipPath id="2"><rect y="6" x="6" rx="6" height="84" width="84" style="fill:#fff"/></clipPath><filter id="1" height="1.15" width="1.6" y="-0.075" x="-0.30000001" style="color-interpolation-filters:sRGB"><feGaussianBlur stdDeviation="2.32637663"/></filter><filter id="0" height="1.3839999" width="1.3839999" y="-0.192" x="-0.192" style="color-interpolation-filters:sRGB"><feGaussianBlur stdDeviation="5.28"/></filter><linearGradient id="F"><stop style="stop-color:#fd0000"/><stop offset="1" style="stop-color:#b10000"/></linearGradient><linearGradient xlink:href="#6" id="D" gradientUnits="userSpaceOnUse" y1="20.220806" x2="0" y2="138.66119"/><linearGradient xlink:href="#H" id="G" gradientUnits="userSpaceOnUse" y1="87.727521" x2="0" y2="124.9495499"/><linearGradient xlink:href="#F" id="E" gradientUnits="userSpaceOnUse" y1="108.8144936" x2="0" y2="77.7492172"/><linearGradient id="H"><stop style="stop-color:#ff1919"/><stop offset="1" style="stop-color:#b10000"/></linearGradient><linearGradient xlink:href="#B" id="C" gradientUnits="userSpaceOnUse" gradientTransform="matrix(2.0678904 0 0 4.6527532 66.26942 -160.41933)" x1="82" x2="88"/><linearGradient xlink:href="#6" id="K" gradientUnits="userSpaceOnUse" x1="80.7446595" y1="150.8789501" x2="105.5593435" y2="149.764228"/><linearGradient xlink:href="#H" id="I" gradientUnits="userSpaceOnUse" x1="80.7446595" x2="99.3556725"/><linearGradient xlink:href="#F" id="J" gradientUnits="userSpaceOnUse" x1="86.94832635" y1="103.236696" x2="102.4575083" y2="106.3385339"/><linearGradient id="7" gradientUnits="userSpaceOnUse" x1="-242.8192925" x2="-31.8944785"><stop/><stop offset="1" style="stop-opacity:0"/></linearGradient><linearGradient id="6"><stop style="stop-color:#ff1919"/><stop offset="1" style="stop-color:#ff1919;stop-opacity:0"/></linearGradient><linearGradient xlink:href="#6" id="5" gradientUnits="userSpaceOnUse" y1="7.079795" x2="0" y2="186.6548012"/><linearGradient id="B"><stop style="stop-color:#f30000"/><stop offset="0.39128959" style="stop-color:#ff1919"/><stop offset="1" style="stop-color:#d20000"/></linearGradient><linearGradient id="4" gradientUnits="userSpaceOnUse" y1="267.633977" x2="0" y2="7.0416958"><stop style="stop-color:#d20000"/><stop offset="1" style="stop-color:#f70000"/></linearGradient><linearGradient id="3" gradientUnits="userSpaceOnUse" y1="-270.3272701" x2="0" y2="-9.44149913"><stop/><stop offset="1" style="stop-opacity:0.58823532"/></linearGradient><linearGradient xlink:href="#6" id="9" gradientUnits="userSpaceOnUse" y1="34.9963145" x2="0" y2="311.6652143"/><linearGradient xlink:href="#B" id="A" gradientUnits="userSpaceOnUse" gradientTransform="matrix(2.0678904 0 0 4.6527532 66.26942 -272.0854)" x1="82" x2="88"/><linearGradient id="8" gradientUnits="userSpaceOnUse" x1="-236.615621" x2="-38.0981414"><stop style="stop-color:#900"/><stop offset="1" style="stop-color:#e90000"/></linearGradient><radialGradient r="9.3055065" cy="171.4770765" cx="158.2905435" gradientUnits="userSpaceOnUse" id="P" xlink:href="#6"/><radialGradient xlink:href="#6" id="O" gradientUnits="userSpaceOnUse" cx="183.1052315" cy="152.8660635" r="9.3055065"/><radialGradient xlink:href="#6" id="M" gradientUnits="userSpaceOnUse" cx="183.1052315" cy="134.2550505" r="9.3055065"/><radialGradient xlink:href="#6" id="Q" gradientUnits="userSpaceOnUse" cx="183.1052315" cy="171.4770765" r="9.3055065"/><radialGradient xlink:href="#6" id="L" gradientUnits="userSpaceOnUse" cx="158.2905435" cy="134.2550505" r="9.3055065"/><radialGradient xlink:href="#6" id="N" gradientUnits="userSpaceOnUse" cx="158.2905435" cy="152.8660635" r="9.3055065"/></defs><path d="m 27.142376 202.14438 c -126.21 -188.960009 276.270014 -305.35 222.990014 -61.07 -22.706 100.95 -165.110014 162.22 -222.990014 61.07 z" style="fill:#fff;color:#000"/><g transform="matrix(0.48297783 0 0 0.47472777 61.73051 67.400992)"><rect width="260.55417" height="260.55417" rx="18.611013" x="12.504268" y="-270.73584" transform="scale(1 -1)" style="fill:url(#3);opacity:0.45"/><rect width="260.55417" height="260.55417" rx="18.611013" x="12.504268" y="7.0797958" style="fill:url(#4)"/><path d="m 31.115293,7.079795 c -10.310504,0 -18.61102,8.300512 -18.61102,18.611013 v 6.203671 210.924811 6.20367 c 0,1.03826 0.128263,2.01837 0.290797,3.0049 0.151059,0.9169 0.301007,1.85154 0.581594,2.71412 0.0307,0.0942 0.06477,0.19727 0.0969,0.29079 0.306658,0.89262 0.728553,1.6981 1.163188,2.52024 0.448497,0.84838 0.97899,1.66139 1.550914,2.42331 0.571925,0.76192 1.159394,1.46864 1.841712,2.13251 1.364645,1.32776 2.924759,2.52653 4.652752,3.39264 0.864007,0.43305 1.778819,0.76598 2.714113,1.06625 -0.794699,-0.31087 -1.509697,-0.73287 -2.229448,-1.16319 -0.02295,-0.0137 -0.07405,0.014 -0.0969,0 -0.09904,-0.0599 -0.193225,-0.13186 -0.290797,-0.19386 -0.373446,-0.23791 -0.716599,-0.5072 -1.066259,-0.77546 -0.329332,-0.25063 -0.661561,-0.49974 -0.96932,-0.77546 -0.551913,-0.50073 -1.077765,-1.07133 -1.550925,-1.64785 -0.333687,-0.40403 -0.677421,-0.82287 -0.96932,-1.26012 -0.07782,-0.11905 -0.119256,-0.26635 -0.193868,-0.38773 -0.200885,-0.31959 -0.403943,-0.63438 -0.581594,-0.96932 -0.313308,-0.60395 -0.637968,-1.28944 -0.872391,-1.93865 -0.02468,-0.0676 -0.07313,-0.12579 -0.0969,-0.19387 -0.09873,-0.28521 -0.111056,-0.57951 -0.193868,-0.87239 -0.09404,-0.33071 -0.218338,-0.62977 -0.290797,-0.96932 -0.226059,-1.05931 -0.387726,-2.16572 -0.387726,-3.2957 V 245.92113 34.996314 28.792643 c 0,-8.628834 6.880343,-15.509177 15.509182,-15.509177 h 6.203667 210.924811 6.20368 c 8.62883,0 15.50917,6.880343 15.50917,15.509177 v 6.203671 210.924816 6.20367 c 0,1.12998 -0.16166,2.23639 -0.38772,3.2957 -0.13695,0.64174 -0.27414,1.23346 -0.48467,1.84171 -0.0239,0.068 -0.0723,0.12621 -0.0969,0.19387 -0.19461,0.53891 -0.42924,1.13977 -0.67852,1.64785 -0.12898,0.25683 -0.24517,0.52717 -0.38774,0.77545 -0.16935,0.30154 -0.39323,0.58424 -0.58159,0.8724 -0.29191,0.43725 -0.63563,0.85609 -0.96932,1.26012 -0.4441,0.54111 -0.94029,1.07633 -1.45399,1.55092 -0.0347,0.0316 -0.062,0.0656 -0.0969,0.0969 -0.42925,0.38946 -0.88431,0.72719 -1.35705,1.06626 -0.31816,0.2269 -0.63377,0.47571 -0.96933,0.67853 -0.0229,0.014 -0.0739,-0.0137 -0.0969,0 -0.71975,0.43032 -1.43475,0.85231 -2.22945,1.16319 0.9353,-0.30026 1.85011,-0.6332 2.71412,-1.06625 1.728,-0.86611 3.2881,-2.06488 4.65275,-3.39264 0.68232,-0.66388 1.26979,-1.37059 1.84171,-2.13251 0.57194,-0.76192 1.10242,-1.57493 1.55092,-2.42331 0.43463,-0.82214 0.85653,-1.62762 1.16319,-2.52024 0.0322,-0.0955 0.0662,-0.19461 0.0969,-0.29079 0.28059,-0.86258 0.43054,-1.79722 0.5816,-2.71412 0.16253,-0.98653 0.29079,-1.96665 0.29079,-3.0049 V 242.81927 31.894458 25.690787 c 0,-10.310501 -8.30051,-18.611013 -18.61101,-18.611013 H 31.115373 z" style="fill:url(#5);opacity:0.5"/><rect width="204.72115" height="210.9248" rx="9.3055067" x="-242.81931" y="37.31897" transform="matrix(0 -1 1 0 0 0)" style="fill:url(#7);opacity:0.2"/><g transform="matrix(0 -1 1 0 0 0)"><rect width="204.72115" height="204.72115" rx="6.203671" x="-239.71747" y="40.420784"/><path d="M -236.616,43.5226 H -38.0982 V 242.04 H -236.616 z" style="fill:url(#8)"/></g><rect width="18.611013" height="43.425697" rx="6.203671" x="232.7346" y="59.811001"/><path d="M 43.522627,38.098151 V 236.61562 H 242.04011 V 38.098151 H 43.522627 z m 6.203677,6.20367 H 235.83643 V 230.41195 H 49.726304 V 44.301821 z" style="fill:url(#9);opacity:0.5"/><rect width="12.407341" height="37.222027" rx="3.1018355" x="235.83644" y="62.912834" style="fill:url(#A)"/><rect width="18.611013" height="43.425697" rx="6.203671" x="232.7346" y="171.47708"/><rect width="12.407341" height="37.222027" rx="3.1018355" x="235.83644" y="174.57892" style="fill:url(#C)"/><path d="m 235.836 81.5238 h 12.408 v 3.1019 h -12.408 z" style="opacity:0.2"/><path d="m 235.836 193.19 h 12.408 v 3.102 h -12.408 z" style="opacity:0.2"/><g style="fill:#ff1919"><path d="m 238.93827 62.912834 c -1.71842 0 -3.10184 1.383419 -3.10184 3.101835 v 3.101837 c 0 -1.718418 1.38342 -3.101837 3.10184 -3.101837 h 6.20367 c 1.71842 0 3.10183 1.383419 3.10183 3.101837 v -3.101837 c 0 -1.718416 -1.38341 -3.101835 -3.10183 -3.101835 h -6.20367 z"/><path d="m 238.93827 174.57891 c -1.71842 0 -3.10184 1.38341 -3.10184 3.10184 v 3.10183 c 0 -1.71842 1.38342 -3.10183 3.10184 -3.10183 h 6.20367 c 1.71842 0 3.10183 1.38341 3.10183 3.10183 v -3.10183 c 0 -1.71843 -1.38341 -3.10184 -3.10183 -3.10184 h -6.20367 z"/></g><rect transform="matrix(3.1018355 0 0 3.1018355 -6.106738 -11.531218)" width="66" height="66" rx="12" x="15" y="15" style="clip-path:url(#2);fill:url(#D);opacity:0.1;stroke:#ff1919;stroke-linecap:round;stroke-width:0.5;filter:url(#0)"/><rect width="18.611013" height="74.444054" rx="3.1018355" x="93.152" y="118.74587" style="opacity:0.1;stroke-width:3.10183549;filter:url(#1)"/><path d="m 90.05016 128.05138 a 21.71285 21.71285 0 0 0 0 -43.425696 21.71285 21.71285 0 1 0 0 43.425696 z"/><path d="m 90.05016 128.05138 a 18.611013 18.611013 0 0 0 0 -37.222025 18.611013 18.611013 0 1 0 0 37.222025 z" style="opacity:0.4"/><rect width="74.444054" height="31.018356" rx="6.203671" x="133.47586" y="78.422012" style="fill:url(#E)"/><rect width="65.138542" height="21.712849" rx="3.1018355" x="138.12863" y="83.074768" style="fill:#ff1919;stroke:#0c0c0c;stroke-width:3.10183501"/><rect width="18.611013" height="12.407341" rx="1.5509177" x="136.5777" y="-131.15323" transform="scale(1 -1)"/><path d="m 136.5777 129.6023 v 3.10183 c 0 0.85921 0.6917 1.55092 1.55091 1.55092 h 15.50919 c 0.8592 0 1.55091 -0.69171 1.55091 -1.55092 v -3.10183 c 0 0.8592 -0.69171 1.55091 -1.55091 1.55091 h -15.50919 c -0.85921 0 -1.55091 -0.69171 -1.55091 -1.55091 z" style="opacity:0.2"/><text x="145.88841" y="128.6275" text-align="center" line-height="125%" style="font-size:10.68426418;font-family:Liberation Sans;fill:#ff1919;text-anchor:middle"><tspan x="145.88841" y="128.6275">7</tspan></text><g style="fill:#0c0c0c"><rect width="18.611013" height="12.407341" rx="1.5509177" x="161.39238" y="-131.15323" transform="scale(1 -1)"/><path d="m 161.39238,129.6023 v 3.10183 c 0,0.85921 0.69171,1.55092 1.55092,1.55092 h 15.50917 c 0.85922,0 1.55093,-0.69171 1.55093,-1.55092 v -3.10183 c 0,0.8592 -0.69171,1.55091 -1.55093,1.55091 H 162.9433 c -0.85921,0 -1.55092,-0.69171 -1.55092,-1.55091 z" style="opacity:0.2"/></g><text x="170.70311" y="128.6275" text-align="center" line-height="125%" style="font-size:10.68426418;font-family:Liberation Sans;fill:#ff1919;text-anchor:middle"><tspan x="170.70311" y="128.6275">8</tspan></text><g style="fill:#0c0c0c"><rect width="18.611013" height="12.407341" rx="1.5509177" x="186.20706" y="-131.15323" transform="scale(1 -1)"/><path d="m 186.20706 129.6023 v 3.10183 c 0 0.85921 0.69172 1.55092 1.55092 1.55092 h 15.50918 c 0.8592 0 1.55092 -0.69171 1.55092 -1.55092 v -3.10183 c 0 0.8592 -0.69172 1.55091 -1.55092 1.55091 h -15.50918 c -0.8592 0 -1.55092 -0.69171 -1.55092 -1.55091 z" style="opacity:0.2"/></g><text x="195.51778" y="128.6275" text-align="center" line-height="125%" style="font-size:10.68426418;font-family:Liberation Sans;fill:#ff1919;text-anchor:middle"><tspan x="195.51778" y="128.6275">9</tspan></text><g style="fill:#0c0c0c"><rect width="18.611013" height="12.407341" rx="1.5509177" x="136.5777" y="-149.76422" transform="scale(1 -1)"/><path d="m 136.5777 148.21331 v 3.10183 c 0 0.85921 0.6917 1.55092 1.55091 1.55092 h 15.50919 c 0.8592 0 1.55091 -0.69171 1.55091 -1.55092 v -3.10183 c 0 0.8592 -0.69171 1.55091 -1.55091 1.55091 h -15.50919 c -0.85921 0 -1.55091 -0.69171 -1.55091 -1.55091 z" style="opacity:0.2"/></g><text x="145.88841" y="147.23849" text-align="center" line-height="125%" style="font-size:10.68426418;font-family:Liberation Sans;fill:#ff1919;text-anchor:middle"><tspan x="145.88841" y="147.23849">4</tspan></text><g style="fill:#0c0c0c"><rect width="18.611013" height="12.407341" rx="1.5509177" x="161.39238" y="-149.76422" transform="scale(1 -1)"/><path d="m 161.39238,148.21331 v 3.10183 c 0,0.85921 0.69171,1.55092 1.55092,1.55092 h 15.50917 c 0.85922,0 1.55093,-0.69171 1.55093,-1.55092 v -3.10183 c 0,0.8592 -0.69171,1.55091 -1.55093,1.55091 H 162.9433 c -0.85921,0 -1.55092,-0.69171 -1.55092,-1.55091 z" style="opacity:0.2"/></g><text x="170.70311" y="147.23849" text-align="center" line-height="125%" style="font-size:10.68426418;font-family:Liberation Sans;fill:#ff1919;text-anchor:middle"><tspan x="170.70311" y="147.23849">5</tspan></text><g style="fill:#0c0c0c"><rect width="18.611013" height="12.407341" rx="1.5509177" x="186.20706" y="-149.76422" transform="scale(1 -1)"/><path d="m 186.20706 148.21331 v 3.10183 c 0 0.85921 0.69172 1.55092 1.55092 1.55092 h 15.50918 c 0.8592 0 1.55092 -0.69171 1.55092 -1.55092 v -3.10183 c 0 0.8592 -0.69172 1.55091 -1.55092 1.55091 h -15.50918 c -0.8592 0 -1.55092 -0.69171 -1.55092 -1.55091 z" style="opacity:0.2"/></g><text x="195.51778" y="147.23849" text-align="center" line-height="125%" style="font-size:10.68426418;font-family:Liberation Sans;fill:#ff1919;text-anchor:middle"><tspan x="195.51778" y="147.23849">6</tspan></text><g style="fill:#0c0c0c"><rect width="18.611013" height="12.407341" rx="1.5509177" x="136.5777" y="-168.37524" transform="scale(1 -1)"/><path d="m 136.5777 166.82432 v 3.10184 c 0 0.8592 0.6917 1.55091 1.55091 1.55091 h 15.50919 c 0.8592 0 1.55091 -0.69171 1.55091 -1.55091 v -3.10184 c 0 0.85921 -0.69171 1.55092 -1.55091 1.55092 h -15.50919 c -0.85921 0 -1.55091 -0.69171 -1.55091 -1.55092 z" style="opacity:0.2"/></g><text x="145.88841" y="165.84952" text-align="center" line-height="125%" style="font-size:10.68426418;font-family:Liberation Sans;fill:#ff1919;text-anchor:middle"><tspan x="145.88841" y="165.84952">1</tspan></text><g style="fill:#0c0c0c"><rect width="18.611013" height="12.407341" rx="1.5509177" x="161.39238" y="-168.37524" transform="scale(1 -1)"/><path d="m 161.39238,166.82432 v 3.10184 c 0,0.8592 0.69171,1.55091 1.55092,1.55091 h 15.50917 c 0.85922,0 1.55093,-0.69171 1.55093,-1.55091 v -3.10184 c 0,0.85921 -0.69171,1.55092 -1.55093,1.55092 H 162.9433 c -0.85921,0 -1.55092,-0.69171 -1.55092,-1.55092 z" style="opacity:0.2"/></g><text x="170.70311" y="165.84952" text-align="center" line-height="125%" style="font-size:10.68426418;font-family:Liberation Sans;fill:#ff1919;text-anchor:middle"><tspan x="170.70311" y="165.84952">2</tspan></text><g style="fill:#0c0c0c"><rect width="18.611013" height="12.407341" rx="1.5509177" x="186.20706" y="-168.37524" transform="scale(1 -1)"/><path d="m 186.20706 166.82432 v 3.10184 c 0 0.8592 0.69172 1.55091 1.55092 1.55091 h 15.50918 c 0.8592 0 1.55092 -0.69171 1.55092 -1.55091 v -3.10184 c 0 0.85921 -0.69172 1.55092 -1.55092 1.55092 h -15.50918 c -0.8592 0 -1.55092 -0.69171 -1.55092 -1.55092 z" style="opacity:0.2"/></g><text x="195.51778" y="165.84952" text-align="center" line-height="125%" style="font-size:10.68426418;font-family:Liberation Sans;fill:#ff1919;text-anchor:middle"><tspan x="195.51778" y="165.84952">3</tspan></text><g style="fill:#0c0c0c"><rect width="18.611013" height="12.407341" rx="1.5509177" x="136.5777" y="-186.98627" transform="scale(1 -1)"/><path d="m 136.5777 185.43533 v 3.10184 c 0 0.85921 0.6917 1.55091 1.55091 1.55091 h 15.50919 c 0.8592 0 1.55091 -0.6917 1.55091 -1.55091 v -3.10184 c 0 0.85921 -0.69171 1.55093 -1.55091 1.55093 h -15.50919 c -0.85921 0 -1.55091 -0.69172 -1.55091 -1.55093 z" style="opacity:0.2"/></g><text x="145.87798" y="186.25775" text-align="center" line-height="125%" style="font-size:10.68426418;font-family:Liberation Sans;fill:#ff1919;text-anchor:middle"><tspan x="145.87798" y="186.25775">*</tspan></text><g style="fill:#0c0c0c"><rect width="18.611013" height="12.407341" rx="1.5509177" x="161.39238" y="-186.98627" transform="scale(1 -1)"/><path d="m 161.39238,185.43533 v 3.10184 c 0,0.85921 0.69171,1.55091 1.55092,1.55091 h 15.50917 c 0.85922,0 1.55093,-0.6917 1.55093,-1.55091 v -3.10184 c 0,0.85921 -0.69171,1.55093 -1.55093,1.55093 H 162.9433 c -0.85921,0 -1.55092,-0.69172 -1.55092,-1.55093 z" style="opacity:0.2"/></g><text x="170.70311" y="184.46054" text-align="center" line-height="125%" style="font-size:10.68426418;font-family:Liberation Sans;fill:#ff1919;text-anchor:middle"><tspan x="170.70311" y="184.46054">0</tspan></text><g style="fill:#0c0c0c"><rect width="18.611013" height="12.407341" rx="1.5509177" x="186.20706" y="-186.98627" transform="scale(1 -1)"/><path d="m 186.20706 185.43533 v 3.10184 c 0 0.85921 0.69172 1.55091 1.55092 1.55091 h 15.50918 c 0.8592 0 1.55092 -0.6917 1.55092 -1.55091 v -3.10184 c 0 0.85921 -0.69172 1.55093 -1.55092 1.55093 h -15.50918 c -0.8592 0 -1.55092 -0.69172 -1.55092 -1.55093 z" style="opacity:0.2"/></g><text x="195.51778" y="184.46054" text-align="center" line-height="125%" style="font-size:10.68426418;font-family:Liberation Sans;fill:#ff1919;text-anchor:middle"><tspan x="195.51778" y="184.46054">#</tspan></text><path d="m 90.05016 124.94954 a 18.611013 18.611013 0 0 0 0 -37.222022 18.611013 18.611013 0 1 0 0 37.222022 z" style="fill:url(#G)"/><g style="fill:#0c0c0c"><path d="m 93.152,93.931189 c -5.82178,0 -10.68182,3.994045 -12.01962,9.402441 -1.96149,0.28505 -3.48956,1.68993 -3.48956,3.48956 v 79.6784 c 0,2.00482 1.87687,3.58649 4.1681,3.58649 h 3.10183 13.37666 3.10184 c 2.29123,0 4.1681,-1.58167 4.1681,-3.58649 v -79.6784 c 0,-0.0702 0.004,-0.12469 0,-0.19387 0.002,-0.097 0,-0.19327 0,-0.29079 0,-6.852384 -5.55496,-12.407341 -12.40735,-12.407341 z" style="opacity:0.15"/><path d="m 81.81092,103.2367 c -0.23451,0 -0.45488,0.0645 -0.67854,0.0969 -0.23682,0.95742 -0.38772,1.9743 -0.38772,3.0049 0,0.0975 -0.002,0.19381 0,0.2908 -0.004,0.0691 0,0.1237 0,0.19386 v 79.6784 c 0,2.00482 1.87687,3.58649 4.16809,3.58649 h 13.37666 c 2.29123,0 4.1681,-1.58167 4.1681,-3.58649 v -79.6784 c 0,-2.00481 -1.87687,-3.5865 -4.1681,-3.5865 H 81.81092 z" style="opacity:0.4"/></g><rect width="18.611013" height="74.444054" rx="3.1018355" x="80.744644" y="112.54222" style="fill:url(#I)"/><path d="m 102.45751 106.33853 a 12.407345 12.407345 0 0 1 -24.81469 0 12.407345 12.407345 0 1 1 24.81469 0 z" style="fill:url(#J)"/><path d="m 80.93853 114.77164 c -0.0892 0.29007 -0.19387 0.5523 -0.19387 0.87239 v 68.24039 c 0 1.71841 1.38341 3.10184 3.10184 3.10184 h 12.40733 c 1.71843 0 3.10184 -1.38343 3.10184 -3.10184 v -68.24039 c 0 -0.32009 -0.10464 -0.58232 -0.19387 -0.87239 -0.84232 0.91145 -1.82738 1.603 -2.90797 2.22945 v 65.33241 c 0 0.85921 -0.6917 1.55092 -1.55091 1.55092 h -9.30551 c -0.85921 0 -1.55091 -0.69171 -1.55091 -1.55092 v -65.33241 c -1.08059 -0.62645 -2.06565 -1.318 -2.90797 -2.22945 z" style="fill:url(#K)"/><path d="m 90.05016 93.931189 c -6.85238 0 -12.40734 5.554957 -12.40734 12.407341 0 0.52768 0.12994 1.04056 0.19387 1.55092 0.76635 -6.11696 5.88878 -10.856425 12.21347 -10.856425 6.3247 0 11.44713 4.739465 12.21348 10.856425 0.064 -0.51036 0.19387 -1.02323 0.19387 -1.55092 0 -6.852384 -5.55496 -12.407341 -12.40735 -12.407341 z" style="fill:#0c0c0c;opacity:0.2"/><path d="m 155.18871 124.94954 v 9.30551 h -6.20367 v 3.10183 h 6.20367 v 6.20368 h 6.20367 v -6.20368 h 6.20367 v -3.10183 h -6.20367 v -9.30551 h -6.20367 z" style="fill:url(#L);opacity:0.4"/><path d="m 180.0034 124.94954 v 9.30551 h -6.20368 v 3.10183 h 6.20368 v 6.20368 h 6.20366 v -6.20368 h 6.20367 v -3.10183 h -6.20367 v -9.30551 h -6.20366 z" style="fill:url(#M);opacity:0.4"/><path d="m 155.18871 143.56056 v 9.3055 h -6.20367 v 3.10184 h 6.20367 v 6.20367 h 6.20367 v -6.20367 h 6.20367 v -3.10184 h -6.20367 v -9.3055 h -6.20367 z" style="fill:url(#N);opacity:0.4"/><path d="m 180.0034 143.56056 v 9.3055 h -6.20368 v 3.10184 h 6.20368 v 6.20367 h 6.20366 v -6.20367 h 6.20367 v -3.10184 h -6.20367 v -9.3055 h -6.20366 z" style="fill:url(#O);opacity:0.4"/><path d="m 155.18871 162.17157 v 9.3055 h -6.20367 v 3.10184 h 6.20367 v 6.20367 h 6.20367 v -6.20367 h 6.20367 v -3.10184 h -6.20367 v -9.3055 h -6.20367 z" style="fill:url(#P);opacity:0.4"/><path d="m 180.0034 162.17157 v 9.3055 h -6.20368 v 3.10184 h 6.20368 v 6.20367 h 6.20366 v -6.20367 h 6.20367 v -3.10184 h -6.20367 v -9.3055 h -6.20366 z" style="fill:url(#Q);opacity:0.4"/><g style="fill:#0c0c0c"><text y="96.537498" x="144.17235" line-height="125%" style="letter-spacing:0;word-spacing:0;font-size:6.96874142;font-family:Duvall"><tspan y="96.537498" x="144.17235">ENTER CODE</tspan></text><path d="m 234.914 81.1703 h 14.622 v 4.6363 h -14.622 z"/><path d="m 234.914 192.042 h 14.622 v 4.636 h -14.622 z"/></g></g></svg>