<svg xmlns="http://www.w3.org/2000/svg" viewBox="0 0 256 256"><defs><clipPath><path transform="matrix(15.33333 0 0 11.5 415 -125.5)" d="m -24 13 c 0 1.105 -0.672 2 -1.5 2 -0.828 0 -1.5 -0.895 -1.5 -2 0 -1.105 0.672 -2 1.5 -2 0.828 0 1.5 0.895 1.5 2 z"/></clipPath></defs><g transform="matrix(0.9783 0 0 0.99132 3.111 -788.12)" style="color:#000"><g transform="translate(0 12.143)"><path d="m 227.81 832.08 c 87.44 110.84 -44.799 278.58 -174.02 176.43 -122.38 -96.74 -16.907 -267.55 126.43 -214.19 c 19.694 7.333 34.821 21.566 47.595 37.758 z" style="fill:#fff"/><path d="m 75.11 862.07 h 54.86 l 7.272 10.179 h 50.52 c 6.776 0 12.231 5.226 12.231 11.719 v 51.41 c 0 6.493 -5.455 11.719 -12.231 11.719 h -112.65 c -6.776 0 -12.231 -5.226 -12.231 -11.719 v -61.59 c 0 -6.493 5.455 -11.719 12.231 -11.719 z" style="fill:#eeb5ac"/><rect rx="12.231" y="882.61" x="65.02" height="84.74" width="137.11" style="fill:#ff4500"/></g><rect width="137.11" height="84.74" x="64.16" y="889.89" rx="12.231" style="fill:#ff4500;stroke-width:1"/></g><g transform="translate(16.446 -796.14)" style="fill:#ffdead"><g transform="matrix(0.69619 0 0 0.66106 1284.5 -278.54)" style="color:#000"><path d="m -1687.03,1795.31 c -6.671,0 -12.03,5.391 -12.03,12.06 v 110.31 c 0,6.671 5.36,12.03 12.03,12.03 h 82 c 6.672,0 12.03,-5.36 12.03,-12.03 v -70.938 -1.969 c -0.171,-0.207 -0.244,-0.463 -0.438,-0.656 l -48.813,-48.813 h -1.375 -43.41 z"/><path d="m -1593 1844.78 c -0.398 -0.885 -0.961 -1.726 -1.697 -2.454 l -47.553 -47.02 v 41.37 c 0 4.477 3.638 8.094 8.166 8.094 h 41.08 z"/></g><g transform="matrix(0.63581 0 0 0.64594 55.4 354.27)" style="stroke:#fff;stroke-width:6"><path d="m 85.36 975.59 h 85.61"/><path d="m 85.36 962.21 h 85.61"/><path d="m 85.36 948.82 h 85.61"/><path d="m 85.36 935.44 h 85.61"/><path d="m 85.36 922.05 h 85.61"/></g></g></svg>