<svg xmlns="http://www.w3.org/2000/svg" xmlns:xlink="http://www.w3.org/1999/xlink" viewBox="0 0 256 256"><defs><path id="5" d="m 9.2123055 128.38231 v -4.27081 h 4.0189295 h 4.018929 v 4.27081 v 4.27081 h -4.018929 h -4.0189295 v -4.27081 z m 6.6982155 0.0294 v -2.88648 h -2.679286 h -2.679286 v 2.88648 v 2.88648 h 2.679286 h 2.679286 v -2.88648 z" style="fill:#ff4500;fill-opacity:0.91634976;stroke:none;fill-rule:evenodd"/><clipPath><rect width="76" height="76" rx="4" x="10" y="10" style="fill:#fff"/></clipPath><clipPath><path d="M 0,0 0,96 96,96 96,0 0,0 z m 12,6 72,0 c 3.324,0 6,2.676 6,6 l 0,72 c 0,3.324 -2.676,6 -6,6 L 12,90 C 8.676,90 6,87.324 6,84 L 6,12 C 6,8.676 8.676,6 12,6 z"/></clipPath><linearGradient xlink:href="#1" id="3" x1="170.93604" x2="84.507706" gradientUnits="userSpaceOnUse"/><linearGradient xlink:href="#1" id="2" x1="75.864868" y1="149.40506" x2="246.8009" y2="163.80978" gradientUnits="userSpaceOnUse"/><linearGradient id="1"><stop style="stop-color:#fc9700"/><stop offset="1" style="stop-color:#fc9700;stop-opacity:0"/></linearGradient><linearGradient xlink:href="#1" id="0" y1="209.90488" x2="0" y2="231.99213" gradientUnits="userSpaceOnUse"/><linearGradient xlink:href="#1" id="4" gradientUnits="userSpaceOnUse" x1="133.48376" x2="241.03902"/></defs><path d="m 260.02 66.64 c -48.541 -88.14 -200.63 -53.931 -226.36 18.64 -30.66 86.45 49.14 250.63 184.3 154.45 45.527 -33.585 90.6 -84.949 42.05 -173.09 z" transform="translate(-26.04 -13.02)" style="fill:#fff;color:#000"/><g transform="matrix(0.55762169 0 0 0.48288632 54.968265 67.961083)"><g style="fill:#f00;stroke:#f00;stroke-width:4"><path d="m 68.023871,205.67584 v 20.206 H 249.87799 v -20.206 H 68.023871 z"/><path d="m 68.023871,85.67584 v 20.206 H 249.87799 v -20.206 H 68.023871 z"/></g><use transform="matrix(5.4424637 0 0 6.1176615 -50.254295 -567.81201)" xlink:href="#5"/><g style="fill:#f00;stroke:#f00;stroke-width:4"><path d="M 68.023871,24.439764 V 44.645775 H 249.87799 V 24.439764 H 68.023871 z"/><path d="m 68.023871,145.67584 v 20.206 H 249.87799 v -20.206 H 68.023871 z"/></g><g style="stroke:#f00;stroke-width:4"><path d="m 68.023871,205.67584 v 20.206 H 249.87799 v -20.206 H 68.023871 z" style="fill:url(#0)"/><path d="m 68.023871,145.67584 v 20.206 H 249.87799 v -20.206 H 68.023871 z" style="fill:url(#2)"/><path d="m 68.023871,85.67584 v 20.206 H 249.87799 v -20.206 H 68.023871 z" style="fill:url(#3)"/><path d="M 68.023871,24.439764 V 44.645775 H 249.87799 V 24.439764 H 68.023871 z" style="fill:url(#4)"/></g><use transform="matrix(5.4424637 0 0 6.1176615 -50.254295 -631.47252)" xlink:href="#5"/><use transform="matrix(5.4424637 0 0 6.1176615 -50.254296 -691.69192)" xlink:href="#5"/><use transform="matrix(5.4424637 0 0 6.1176615 -48.764339 -751.91132)" xlink:href="#5"/><path d="m 4.1944651 95.428134 v -21.140023 h 18.3067289 h 18.306729 v 21.140023 v 21.140026 h -18.306729 h -18.3067289 v -21.140026 z" style="fill:#ff4500;fill-opacity:0.91634976;stroke:none;fill-rule:evenodd"/></g></svg>