<svg xmlns="http://www.w3.org/2000/svg" viewBox="0 0 256 256"><g transform="translate(0 -796.36)" color="#000"><path d="m 227.81 844.22 c 87.44 110.84 -44.799 278.58 -174.02 176.43 -122.38 -96.74 -16.907 -267.55 126.43 -214.19 c 19.694 7.333 34.821 21.566 47.595 37.758 z" fill="#fff"/><path d="m 77.25 864.07 54.86 0 7.272 10.623 50.52 0 c 6.776 0 12.231 5.455 12.231 12.231 l 0 53.656 c 0 6.776 -5.455 12.231 -12.231 12.231 l -112.65 0 c -6.776 0 -12.231 -5.455 -12.231 -12.231 l 0 -64.28 c 0 -6.776 5.455 -12.231 12.231 -12.231 z" fill="#dc143c"/><rect rx="12.231" y="882.61" x="65.02" height="84.74" width="137.11" fill="#ff4500"/></g></svg>