<svg xmlns="http://www.w3.org/2000/svg" viewBox="0 0 256 256"><g transform="translate(0 -796.36)"><path d="m 24.867 854.38 c 130.88 -190.63 368.03 162.61 128.29 196.92 -99.3 13.508 -201.49 -104.36 -128.29 -196.92 z" style="fill:#fff;color:#fff"/><g style="color:#000"><path d="m 175.27 954.68 c -10.835 30.12 -49.595 42.45 -73.74 33.764 -24.14 -8.685 -46.16 -42.882 -35.33 -73 6.521 -18.13 38.06 -56.23 52.658 -59.56 9.659 -2.199 7.989 32 17.602 35.461 9.968 3.586 30.734 -23.507 36.82 -15.243 8.653 11.751 8.348 60.894 1.987 78.58 z" style="fill:#ffd29b"/><path d="m 120.54 855.93 c -0.507 -0.17 -1.082 -0.186 -1.686 -0.048 -14.6 3.324 -46.12 41.42 -52.644 59.54 -9.244 25.695 7.983 47.27 31.75 48.666 -0.003 0.008 -0.006 0.018 -0.009 0.026 -0.739 2.053 2.735 7.74 8.771 9.911 6.04 2.171 12.336 0.001 13.07 -2.052 0.003 -0.008 0.007 -0.018 0.009 -0.026 19.21 14.06 46.23 8.408 55.48 -17.287 6.361 -17.682 6.669 -66.829 -1.984 -78.58 -6.085 -8.264 -28.783 24.19 -38.752 20.601 -9.01 -3.242 -6.407 -38.21 -14.01 -40.755 z" style="fill:#ff4500"/></g></g></svg>