<svg xmlns="http://www.w3.org/2000/svg" viewBox="0 0 256 256"><g transform="translate(0 -796.36)"><path d="m -1374.42 1658.71 c 127.95 -192.46 -280.09 -311 -226.07 -62.2 23.02 102.82 167.39 165.22 226.07 62.2 z" transform="matrix(-0.18209 -0.96231 0.98328 -0.17821 -1698.04 -217.94)" style="fill:#fff;color:#fff"/><g style="color:#000"><path d="m 184.11 926.71 c 5.828 31.472 -21.427 61.66 -46.656 66.34 -25.23 4.672 -61.49 -13.758 -67.32 -45.23 -3.508 -18.941 4.514 -67.751 15.446 -77.983 7.233 -6.769 23.04 23.61 33.08 21.75 10.417 -1.929 14.69 -35.797 24.11 -31.728 13.397 5.785 37.912 48.38 41.33 66.856 z" style="fill:#ffd29b"/><path d="m 87.06 869.03 c -0.523 0.109 -1.029 0.385 -1.481 0.808 -10.932 10.232 -18.949 59.02 -15.441 77.965 4.972 26.85 30.727 36.797 51.956 26.02 0.001 0.009 0.003 0.018 0.005 0.027 0.397 2.146 6.264 5.305 12.572 4.137 6.307 -1.168 10.654 -6.219 10.257 -8.364 -0.002 -0.009 -0.003 -0.018 -0.005 -0.027 23.681 2.46 44.17 -16.05 39.19 -42.899 -3.422 -18.478 -27.936 -61.08 -41.33 -66.861 -9.422 -4.068 -12.662 35.4 -23.08 37.33 -9.417 1.744 -24.798 -29.767 -32.644 -28.13 z" style="fill:#ff4500"/></g></g></svg>