<svg xmlns="http://www.w3.org/2000/svg" xmlns:xlink="http://www.w3.org/1999/xlink" viewBox="0 0 256 256"><defs><clipPath id="0"><path d="m -24 13 c 0 1.105 -0.672 2 -1.5 2 -0.828 0 -1.5 -0.895 -1.5 -2 0 -1.105 0.672 -2 1.5 -2 0.828 0 1.5 0.895 1.5 2 z" transform="matrix(15.33333 0 0 11.5 415 -125.5)" style="fill:#1890d0"/></clipPath></defs><g transform="translate(0 -796.36)"><path d="m -1374.42 1658.71 c 125.16 -274.08 -273.7 -240.16 -226.07 -62.2 23.02 102.82 167.39 165.22 226.07 62.2 z" transform="matrix(0 -1 -1 0 1712.93 -551.64)" style="fill:#fff;color:#fff"/><g transform="matrix(5.44207 0 0 5.23469 3.763 792.24)" style="clip-path:url(#0);fill:#ffa07a"><g><path d="m 36 14.332 c 0 1.262 -1.02 2.281 -2.281 2.281 -1.258 0 -2.281 -1.02 -2.281 -2.281 0 -1.262 1.023 -2.281 2.281 -2.281 1.262 0 2.281 1.02 2.281 2.281" id="1"/><path d="m 31.22 15.773 c 0 1.262 -1.02 2.281 -2.281 2.281 -1.258 0 -2.281 -1.02 -2.281 -2.281 0 -1.262 1.023 -2.281 2.281 -2.281 1.262 0 2.281 1.02 2.281 2.281" id="2"/><path d="m 27.371 19.14 c 0 1.262 -1.02 2.281 -2.281 2.281 -1.258 0 -2.281 -1.02 -2.281 -2.281 0 -1.262 1.023 -2.281 2.281 -2.281 1.262 0 2.281 1.02 2.281 2.281" id="3"/><path d="m 25.863 24.25 c 0 1.258 -1.023 2.281 -2.281 2.281 -1.262 0 -2.281 -1.023 -2.281 -2.281 0 -1.262 1.02 -2.285 2.281 -2.285 1.258 0 2.281 1.023 2.281 2.285" id="4"/><path d="m 25 29.551 c 0 1.262 -1.023 2.285 -2.281 2.285 -1.262 0 -2.281 -1.023 -2.281 -2.285 0 -1.258 1.02 -2.281 2.281 -2.281 1.258 0 2.281 1.023 2.281 2.281" id="5"/><path d="m 21.758 33.703 c 0 1.262 -1.023 2.281 -2.281 2.281 -1.258 0 -2.281 -1.02 -2.281 -2.281 0 -1.262 1.023 -2.281 2.281 -2.281 1.258 0 2.281 1.02 2.281 2.281" id="6"/><path d="m 16.563 34.668 c 0 1.262 -1.023 2.281 -2.281 2.281 -1.262 0 -2.281 -1.02 -2.281 -2.281 0 -1.262 1.02 -2.281 2.281 -2.281 1.258 0 2.281 1.02 2.281 2.281" id="7"/><path d="m 20.734 24.363 c 0 1.262 -1.02 2.285 -2.277 2.285 -1.262 0 -2.281 -1.023 -2.281 -2.285 0 -1.258 1.02 -2.281 2.281 -2.281 1.258 0 2.277 1.023 2.277 2.281" id="8"/><path d="m 31.28 24.26 c 0 1.262 -1.023 2.281 -2.281 2.281 -1.258 0 -2.281 -1.02 -2.281 -2.281 0 -1.262 1.023 -2.281 2.281 -2.281 1.258 0 2.281 1.02 2.281 2.281" id="9"/></g></g><g transform="matrix(5.44207 0 0 5.23469 1.263 789.74)" style="clip-path:url(#0);fill:#ff4500"><g><use xlink:href="#1"/><use xlink:href="#2"/><use xlink:href="#3"/><use xlink:href="#4"/><use xlink:href="#5"/><use xlink:href="#6"/><use xlink:href="#7"/><use xlink:href="#8"/><use xlink:href="#9"/></g></g></g></svg>