<svg xmlns="http://www.w3.org/2000/svg" viewBox="0 0 256 256"><g transform="translate(0 -796.36)"><path d="m 242.77 977.71 c -69.925 141.88 -277.41 62.829 -237.79 -81.07 37.33 -135.58 226.87 -131.72 248.97 -0.272 c 4.611 27.425 1.653 55.3 -11.182 81.34 z" style="fill:#fff;color:#fff"/><g transform="matrix(3.52124 0 0 3.57707 49.21 -2753.62)" style="fill:#ff4500"><g style="color:#fff"><path d="m 8 1007.03 v 5.818 v 7.273 h -2.909 v 2.909 v 2.909 v 2.909 v 2.909 v 2.909 h 2.909 h 4.364 v 7.273 h -1.455 h -2.909 v 5.818 v 2.909 h 2.909 h 4.364 h 2.909 v -2.909 v -2.909 h 2.909 v 2.909 h 2.909 v 2.909 h 7.273 v -2.909 h 2.909 v -2.909 h 5.818 v -1.455 v -1.455 h 2.909 v -2.909 v -10.182 h -5.818 v -2.909 h -7.273 v -5.818 h 2.909 v -7.273 v -5.818 h -2.909 h -2.909 v 2.909 h -13.09 v -2.909 h -2.909 h -2.909 z" style="fill-opacity:0.235"/><path d="m 5.091 1025.36 v 2.909 v 2.909 v 2.909 h 2.909 h 4.364 v 7.273 h 2.909 v -13.09 v -2.909 h -2.909 h -4.364 h -2.909 z m 21.818 0 v 2.909 h 7.273 v 2.909 h -5.818 v 2.909 v 2.909 v 7.273 h 2.909 v 2.909 h 2.909 v -2.909 h 5.818 v -1.455 v -1.455 h 2.909 v -2.909 v -10.182 h -5.818 v -2.909 h -10.182 z m 4.364 21.818 h -7.273 v 2.909 h 7.273 v -2.909 z m -7.273 0 v -5.818 h -2.909 h -2.909 v 2.909 h 2.909 v 2.909 h 2.909 z m -5.818 -2.909 h -2.909 v 2.909 h -4.364 v -5.818 h -2.909 v 5.818 v 2.909 h 2.909 h 4.364 h 2.909 v -2.909 v -2.909 z m -10.182 -16 h 4.364 v 2.909 h -4.364 v -2.909 z m 29.09 2.909 h 2.909 v 7.273 h -2.909 v 2.909 h -2.909 h -2.909 v -4.364 h 2.909 v -2.909 h 2.909 v -2.909 z"/><path d="m 26.909 1009.36 v 2.909 h -5.818 h -7.273 h -2.909 v 2.909 h 2.909 v 5.818 h -2.909 v 1.455 h -1.455 v 2.909 h 5.818 v 16 h -4.364 v 5.818 h 4.364 v -2.909 h 2.909 v -1.455 v -1.455 h 1.455 h 4.364 v 5.818 h 4.364 h 2.909 v -2.909 h -2.909 v -13.09 h 5.818 v -2.909 h -7.273 v -2.909 v -2.909 v -1.455 v -2.909 h 2.909 v -2.909 v -2.909 v -2.909 h -2.909 z m -5.818 5.818 h 2.909 v 5.818 h -2.909 v -5.818 z m -13.09 13.09 v 2.909 h 4.364 v -2.909 h -4.364 z m 29.09 2.909 v 2.909 h -2.909 v 1.455 v 1.455 h -2.909 v 4.364 h 5.818 v -2.909 h 2.909 v -2.909 v -1.455 v -2.909 h -2.909 z"/><g style="fill:#ffdead"><path d="m 10.909 1009.36 v 2.909 h 16 v -2.909 h -16 z m 0 2.909 h -2.909 v 10.182 h -2.909 v 2.909 h 4.364 v -2.909 h 1.455 v -10.182 z m 18.909 0 v 5.818 h -2.909 v 7.273 h 2.909 v -5.818 h 2.909 v -7.273 h -2.909 z"/><path d="m 8 1006.45 v 5.818 h 2.909 v -2.909 h 2.909 v -2.909 h -2.909 z m 18.909 0 v 2.909 h 2.909 v 2.909 h 2.909 v -5.818 h -2.909 z m -12.77 8.914 v 5.631 l 3.099 -0.187 v -5.444 z m 6.952 -0.187 v 5.818 h 2.909 v -5.818 z m -16 4.364 v 2.909 h 2.909 v -2.909 z"/><path d="m 5.091 1025.36 v 2.909 v 2.909 v 2.909 h 2.909 h 4.364 v 7.273 h 2.909 v -13.09 v -2.909 h -2.909 h -4.364 h -2.909 z m 21.818 0 v 2.909 h 7.273 v 2.909 h -5.818 v 2.909 v 2.909 v 7.273 h 2.909 v 2.909 h 2.909 v -2.909 h 5.818 v -1.455 v -1.455 h 2.909 v -2.909 v -10.182 h -5.818 v -2.909 h -10.182 z m 4.364 21.818 h -7.273 v 2.909 h 7.273 v -2.909 z m -7.273 0 v -5.818 h -2.909 h -2.909 v 2.909 h 2.909 v 2.909 h 2.909 z m -5.818 -2.909 h -2.909 v 2.909 h -4.364 v -5.818 h -2.909 v 5.818 v 2.909 h 2.909 h 4.364 h 2.909 v -2.909 v -2.909 z m -10.182 -16 h 4.364 v 2.909 h -4.364 v -2.909 z m 29.09 2.909 h 2.909 v 7.273 h -2.909 v 2.909 h -2.909 h -2.909 v -4.364 h 2.909 v -2.909 h 2.909 v -2.909 z"/></g><path d="m 29.818 1018.38 v 1.165 h 2.909 v -1.165 h -2.909 z m -24.727 14.546 v 1.165 h 2.909 h 4.364 v -1.165 h -4.364 h -2.909 z m 34.909 7.273 v 1.165 h 2.909 v -1.165 h -2.909 z m -21.818 2.909 v 1.165 h 2.909 v -1.165 h -2.909 z m 16 0 v 1.165 h 5.818 v -1.165 h -5.818 z m -13.09 2.909 v 1.165 h 2.909 v -1.165 h -2.909 z m 10.182 0 v 1.165 h 2.909 v -1.165 h -2.909 z m -23.273 2.909 v 1.165 h 2.909 h 4.364 h 2.909 v -1.165 h -2.909 h -4.364 h -2.909 z m 16 0 v 1.165 h 7.273 v -1.165 h -7.273 z" style="fill-opacity:0.235"/></g><path d="m 10.932 1018.35 v -3.731 h 1.633 h 1.633 v 3.731 v 3.731 h -1.633 h -1.633 v -3.731 z" style="fill-rule:evenodd"/></g></g></svg>