<svg xmlns="http://www.w3.org/2000/svg" viewBox="0 0 256 256"><g transform="translate(0 -796.36)"><path d="m 211.17 835.34 c 201.82 264.12 -353.59 301.64 -175.35 32.04 40.634 -61.47 121.89 -101.99 175.35 -32.04 z" style="fill:#fff;color:#000"/><g style="fill-rule:evenodd"><path d="m 201.28 932.58 a 67.782 66.16 0 0 1 -135.56 0 67.782 66.16 0 1 1 135.56 0 z" style="fill:#ffa07a;stroke:#ffa07a;stroke-width:1.025"/><g transform="translate(0 796.36)" style="stroke-width:3.391"><path d="m 127.49 188.85 c -5.551 -4.02 -6.51 -9.974 -2.898 -17.974 2.403 -5.323 2.639 -7.795 1.239 -13.01 -0.503 -1.874 -0.918 -3.654 -0.922 -3.956 -0.014 -1.018 5.677 0.221 8.787 1.914 8.099 4.408 14.424 16.234 13.1 24.498 -1.33 8.318 -12.68 13.331 -19.309 8.529 z" style="fill:#ffd700;stroke:#fff"/><path d="m 125.21 193.57 c -10.186 -3.301 -17.58 -10.08 -23.06 -21.15 -8.226 -16.601 -8.854 -44.23 -1.402 -61.741 3.463 -8.139 10.74 -17.18 17.792 -22.11 l 1.994 -1.393 l 0.332 1.423 c 0.183 0.782 0.739 4.4 1.237 8.04 2.331 17.04 7.995 24.745 24.18 32.875 3.407 1.712 7.75 4.167 9.649 5.457 6.833 4.639 11.992 11.817 13.608 18.936 0.895 3.941 0.894 11.508 -0.002 15.395 -2.535 11 -11.664 20.58 -23.04 24.17 -6.648 2.1 -14.987 2.137 -21.289 0.095 z m 14.908 -2.486 c 3.836 -1.786 7.301 -5.699 8.343 -9.422 0.601 -2.147 0.622 -3.741 0.092 -6.942 -1.944 -11.734 -11.698 -22.11 -21.547 -22.93 -4.181 -0.347 -4.392 0.1 -3.17 6.729 0.997 5.412 0.882 6.333 -1.657 13.282 -1.884 5.155 -2.032 9.564 -0.436 13.01 3.233 6.982 11.09 9.665 18.375 6.273 z" style="fill:#ff4500;stroke:#ff4500"/><g style="fill:#8b0000;stroke:#8b0000"><path d="m 160.57 130.55 c -1.339 -1.01 -6.105 -3.793 -10.591 -6.192 -8.09 -4.327 -12.5 -7.446 -15.367 -10.868 -4.315 -5.151 -6.403 -12.892 -5.81 -21.541 0.308 -4.492 0.518 -5.149 2.071 -6.485 1.619 -1.393 2.064 -1.464 7.02 -1.13 15.03 1.015 27.97 11.06 30.962 24.04 0.941 4.081 0.803 15.356 -0.229 18.786 -1.685 5.598 -3.885 6.524 -8.05 3.39 z m -3.225 -23.879 c 1.815 -1.815 2.165 -4.589 0.728 -5.781 -0.498 -0.413 -1.999 -0.898 -3.335 -1.077 -4.37 -0.586 -6.531 3.347 -3.768 6.859 1.695 2.155 4.22 2.154 6.376 -0.001 z"/><path d="m 177.01 110 c -1.241 -3.293 -1.418 -5.415 -0.483 -5.774 0.977 -0.375 5.995 1.904 5.995 2.723 0 0.604 -3.92 4.446 -4.536 4.446 -0.248 0 -0.687 -0.627 -0.976 -1.394 z"/></g></g></g></g></svg>