<svg xmlns="http://www.w3.org/2000/svg" xmlns:xlink="http://www.w3.org/1999/xlink" viewBox="0 0 256 256"><defs><path id="0" d="m 113.08 255.03 c -11.11 -1.138 -25.02 -4.168 -35.1 -7.647 -34.596 -11.937 -58.64 -34.3 -68.864 -64.07 -3.903 -11.361 -5.365 -20.77 -5.325 -34.28 0.059 -20.237 4.829 -40.687 15.195 -65.15 2.903 -6.85 10.131 -21.274 13.418 -26.773 19.627 -32.843 57.839 -54.967 97.6 -56.51 c 19.859 -0.77 35.75 2.168 51.48 9.517 12.376 5.782 22.18 12.688 31.861 22.44 10.788 10.87 17.371 20.323 25.01 35.914 13.207 26.959 19.776 50.55 20.533 73.74 0.621 19.02 -2.544 35.01 -9.899 50 -10.225 20.849 -26.93 36.862 -50.29 48.21 -16.459 7.994 -32.464 12.478 -51.52 14.431 -7.739 0.793 -27.07 0.89 -34.09 0.171 z m -26.476 -59.56 c 1.508 -1.252 1.722 -4.502 1.725 -26.26 l 0.003 -22 l 2.825 -1.171 c 3.458 -1.433 7.678 -5.423 9.464 -8.948 2.8 -5.525 2.888 -12.31 0.231 -17.751 -1.716 -3.514 -6.159 -7.757 -9.616 -9.184 l -2.904 -1.198 v -22.399 c 0 -24.94 -0.047 -25.34 -3.139 -26.632 -2.119 -0.885 -4.04 -0.512 -5.534 1.074 l -1.176 1.252 l -0.141 23.44 l -0.141 23.44 l -1.359 0.341 c -3.484 0.874 -9 5.442 -10.818 8.955 -3.294 6.372 -3.189 13.787 0.281 19.706 1.784 3.044 5.831 6.55 9.15 7.925 l 2.776 1.151 l 0.007 22.762 c 0.006 17.18 0.162 23.07 0.638 24.02 0.915 1.831 3.592 3.048 5.501 2.501 0.84 -0.241 1.842 -0.7 2.227 -1.019 z m 49.5 0 c 1.424 -1.182 1.722 -4.472 1.725 -19.03 0.002 -11.53 0.142 -14.773 0.638 -14.773 1.307 0 5.757 -2.712 7.975 -4.86 10.301 -9.976 6.4 -27.528 -7.221 -32.49 l -1.389 -0.506 l -0.003 -29.433 c -0.002 -18.892 -0.192 -30.11 -0.53 -31.33 -1 -3.6 -5.379 -4.793 -7.994 -2.179 l -1.322 1.322 l -0.253 30.889 l -0.253 30.889 l -1.266 0.338 c -3.597 0.961 -8.153 4.615 -10.279 8.244 -4.171 7.118 -3.537 16.701 1.503 22.723 1.975 2.359 6.06 5.285 8.314 5.962 l 1.981 0.593 l 0.007 15.451 c 0.008 16.938 0.077 17.379 2.941 18.815 1.736 0.871 3.933 0.62 5.426 -0.619 z m 46.972 0 c 1.576 -1.308 1.722 -4.502 1.725 -37.666 l 0.003 -33.407 l 1.389 -0.342 c 2.16 -0.532 5.228 -2.493 7.51 -4.801 7.429 -7.513 7.313 -19.917 -0.259 -27.587 -2.133 -2.16 -6.48 -4.739 -8.01 -4.751 -0.485 -0.004 -0.632 -2.543 -0.634 -10.99 -0.002 -6.074 -0.239 -11.834 -0.53 -12.884 -1 -3.599 -5.378 -4.793 -7.994 -2.179 l -1.322 1.321 l -0.152 12.09 l -0.152 12.09 l -2.796 1.28 c -7.422 3.398 -11.801 10.06 -11.801 17.964 0 7.802 4.393 14.537 11.685 17.915 l 2.71 1.255 l 0.253 34.568 l 0.253 34.568 l 1.199 1.276 c 0.66 0.702 1.682 1.354 2.273 1.45 1.323 0.214 3.71 -0.384 4.649 -1.163 z" style="fill-opacity:0"/><clipPath><path d="m -24 13 c 0 1.105 -0.672 2 -1.5 2 -0.828 0 -1.5 -0.895 -1.5 -2 0 -1.105 0.672 -2 1.5 -2 0.828 0 1.5 0.895 1.5 2 z" transform="matrix(15.33333 0 0 11.5 415 -125.5)"/></clipPath></defs><g transform="translate(-0.012 -828.9)"><g transform="translate(0 796.36)"><g style="fill:#fff;fill-opacity:0"><path d="m 104.75 100.63 c -3.668 -2.286 -3.52 -1.533 -3.682 -18.714 -0.146 -15.469 -0.144 -15.504 1.02 -17.247 2.36 -3.532 2.218 -3.512 25.895 -3.512 23.678 0 23.536 -0.019 25.895 3.512 1.165 1.743 1.166 1.776 1.02 17.291 l -0.147 15.545 l -1.902 1.902 l -1.902 1.902 l -22.342 0.133 c -21.08 0.125 -22.427 0.079 -23.857 -0.812 z"/><path d="m 77.32 163.4 c -6.601 -1.776 -11.679 -6.651 -14.175 -13.606 c -1.124 -3.131 -1.428 -36.512 -0.379 -41.527 1.362 -6.51 5.399 -11.629 11.43 -14.493 3.237 -1.537 3.41 -1.561 12.447 -1.725 l 9.164 -0.166 l 0.18 4.206 c 0.212 4.968 1.342 7.03 4.675 8.547 1.931 0.877 3.775 0.94 27.324 0.94 23.549 0 25.394 -0.064 27.324 -0.94 3.331 -1.513 4.463 -3.58 4.675 -8.538 l 0.179 -4.198 l 9.165 0.157 c 9.124 0.156 9.18 0.164 12.587 1.778 6.093 2.886 10.419 8.563 11.485 15.07 0.791 4.833 0.618 35.19 -0.224 39.12 -0.844 3.935 -2.645 7.288 -5.39 10.03 -4.27 4.27 -9.328 6.13 -16.672 6.13 h -4.389 l -0.202 -8.46 c -0.223 -9.365 -0.669 -11.127 -3.587 -14.204 -3.518 -3.708 -2.247 -3.578 -34.951 -3.578 -32.704 0 -31.433 -0.13 -34.951 3.578 -2.886 3.042 -3.34 4.841 -3.584 14.204 l -0.22 8.46 l -4.614 -0.033 c -2.538 -0.018 -5.822 -0.358 -7.298 -0.756 z"/></g><use xlink:href="#0" style="fill:#a0522d"/><g style="fill:#f4a460"><use xlink:href="#0"/><use xlink:href="#0"/><use xlink:href="#0"/><use xlink:href="#0"/><use xlink:href="#0"/><use xlink:href="#0"/></g></g><g style="fill-rule:evenodd"><path d="m 90.16 1082.31 c -31.502 -5.492 -51.63 -15.325 -68.21 -33.32 -7.06 -7.661 -15.03 -22.37 -17.17 -31.665 -4.53 -19.694 -1.438 -45.44 8.372 -69.7 20.685 -51.17 58.788 -93.77 97.3 -108.79 c 15.04 -5.863 38.05 -8.08 51.12 -4.926 8.455 2.042 20.797 7.864 28.965 13.663 18.826 13.366 48.22 57.648 58.668 88.4 4.827 14.198 6.577 28.26 5.859 47.05 -0.474 12.428 -0.962 15.335 -3.841 22.912 -10.326 27.18 -28.323 45.92 -58.58 61.01 -17.687 8.821 -38.11 14.279 -61.6 16.462 -17.279 1.605 -26.875 1.349 -40.884 -1.094 z m 9.652 -76.25 c 6.478 -3.153 13.381 -10.07 16.652 -16.695 2.859 -5.787 3.378 -21.931 0.97 -30.17 -2.39 -8.179 -12.499 -18.658 -20.654 -21.41 -17.28 -5.831 -35.05 1.735 -43.32 18.442 -3.107 6.279 -3.519 8.177 -3.577 16.472 -0.055 7.946 0.373 10.304 2.808 15.471 3.977 8.439 10.123 14.828 17.842 18.547 5.851 2.819 7.421 3.107 14.87 2.729 6.245 -0.317 9.848 -1.163 14.407 -3.382 z m 72.874 -0.488 c 14.622 -7.099 23.386 -24.439 20.474 -40.512 -3.24 -17.884 -15.609 -28.981 -33.386 -29.952 -7.796 -0.426 -9.618 -0.15 -14.888 2.25 -7.091 3.23 -14.01 9.965 -18.03 17.556 -2.539 4.795 -2.893 6.717 -2.897 15.766 -0.004 8.841 0.398 11.16 2.831 16.321 4.731 10.04 11.688 16.552 21.566 20.2 5.942 2.196 18.13 1.379 24.326 -1.632 z" style="fill:#fff;opacity:0.99"/><path d="m 76.49 1009.78 c -16.529 -4.341 -28.05 -19.906 -27.853 -37.622 0.122 -10.904 4.464 -20.568 12.751 -28.383 4.323 -4.077 6.938 -5.571 12.935 -7.393 14.988 -4.553 30.761 1.311 39.29 14.608 4.549 7.088 6.297 10.331 6.319 21.982 0.019 10.06 -1.367 12.238 -3.584 16.701 -3.492 7.03 -10.199 13.868 -16.919 17.248 -5.983 3.01 -17.1 4.394 -22.944 2.859 z" style="fill:#ff4500;opacity:0.99"/><path d="m 149.23 1008.29 c -6.928 -1.773 -15.596 -8.04 -19.981 -14.437 -11.695 -17.07 -9.152 -37.857 6.272 -51.27 18.56 -16.14 48.07 -7.404 56.14 16.624 9.356 27.869 -15.04 56.09 -42.43 49.09 z" style="fill:#d40055;opacity:0.99"/></g></g></svg>