<svg xmlns="http://www.w3.org/2000/svg" viewBox="0 0 256 256"><g transform="translate(0 -796.36)" style="color:#000"><path d="m 20.17 998.21 c -80.938 -111.14 101.28 -269.46 200.9 -170.81 112.89 107.54 -74.19 307.54 -187.59 188.15 l -13.31 -17.342 z" style="fill:#fff"/><path d="m 60.01 925.07 c -2.133 1.586 -2.596 4.575 -1.01 6.708 l 46.4 62.43 c 1.586 2.134 4.6 2.577 6.733 0.992 2.133 -1.586 2.577 -4.6 0.992 -6.733 l -20.13 -27.09 l 23.1 -17.17 l 20.13 27.09 c 1.586 2.134 4.575 2.596 6.708 1.01 2.133 -1.586 2.577 -4.6 0.992 -6.733 l -20.13 -27.09 l 23.1 -17.17 l 20.13 27.09 c 1.586 2.134 4.6 2.577 6.733 0.992 2.134 -1.586 2.552 -4.581 0.967 -6.715 l -20.13 -27.09 l 26.712 -19.853 c 0.267 -0.198 0.508 -0.415 0.722 -0.653 l 0.276 -0.205 c 1.692 -1.258 1.794 -3.978 0.208 -6.112 l -23.357 -31.427 c -1.586 -2.134 -4.22 -2.821 -5.912 -1.563 l -1.605 1.193 c -1.692 1.258 -1.768 3.96 -0.183 6.093 l 20.337 27.364 l -23.13 17.19 l -20.337 -27.364 c -1.586 -2.134 -4.556 -2.571 -6.69 -0.985 -2.133 1.586 -2.596 4.575 -1.01 6.708 l 20.337 27.364 l -23.1 17.17 l -20.337 -27.364 c -1.586 -2.134 -4.581 -2.552 -6.715 -0.967 -2.134 1.586 -2.571 4.556 -0.985 6.69 l 20.337 27.364 l -23.1 17.17 l -20.337 -27.364 c -1.586 -2.134 -4.581 -2.552 -6.715 -0.967 z" style="fill:#ff4500"/></g></svg>