<svg xmlns="http://www.w3.org/2000/svg" viewBox="0 0 256 256" xmlns:xlink="http://www.w3.org/1999/xlink"><defs><clipPath><rect y="6" x="6" rx="6" height="84" width="84" style="fill:#ff4500"/></clipPath></defs><g transform="translate(0 -796.36)"><path d="m -1067.28 1935.73 c 48.956 88.52 202.34 54.16 228.29 -18.719 30.922 -86.82 -49.563 -251.7 -185.88 -155.11 -45.916 33.728 -91.37 85.31 -42.41 173.83 z" transform="translate(1088.39 -936.13)" style="fill:#fff;color:#000"/><g transform="matrix(1.34819 0 0 1.39064 66.31 862.13)" style="fill:#ffdead;enable-background:new"><g transform="matrix(1.07152 0 0 1.06151 -2.625 -1.436)"><path d="m 8.141 8.254 h 77.915 v 78.52 h -77.915 z" id="0"/><path transform="matrix(-1.0009 0 0 -1.33397 96.01 99.97)" d="m 12.06 12.06 v 53.875 h 71.875 v -53.875 h -71.875 z" id="1"/></g><g transform="matrix(0.89822 0 0 0.88983 5.537 6.721)" style="fill:#ff4500"><use xlink:href="#0"/><use xlink:href="#1"/></g><text y="72.877" x="30.764" line-height="125%" style="letter-spacing:0;word-spacing:0;font-size:25.25;font-family:URW Gothic L"><tspan y="72.877" x="30.764" style="font-size:67.33;font-weight:600">F</tspan></text></g></g></svg>