<svg xmlns="http://www.w3.org/2000/svg" viewBox="0 0 256 256"><defs><clipPath id="0"><path transform="matrix(15.33333 0 0 11.5 415 -125.5)" d="m -24 13 c 0 1.105 -0.672 2 -1.5 2 -0.828 0 -1.5 -0.895 -1.5 -2 0 -1.105 0.672 -2 1.5 -2 0.828 0 1.5 0.895 1.5 2 z"/></clipPath></defs><g transform="translate(0 -796.36)"><path d="m 52.774 1027.39 c 192.46 127.95 311 -280.09 62.2 -226.07 -102.82 23.02 -165.22 167.39 -62.2 226.07 z" style="fill:#fff;color:#000"/><g transform="matrix(4.60702 0 0 4.82718 16.666 805.46)" style="clip-path:url(#0);fill:#ff4500"><g><path d="M 16.543,13 C 14.586,13 13,14.586 13,16.543 V 33.457 C 13,35.414 14.586,37 16.543,37 H 33.457 C 35.414,37 37,35.414 37,33.457 V 16.543 C 37,14.586 35.414,13 33.457,13 H 16.543 z M 20,17 32,25 20,33 V 17 z" style="fill-opacity:0.098"/><path d="M 15.543,12 C 13.586,12 12,13.586 12,15.543 V 32.457 C 12,34.414 13.586,36 15.543,36 H 32.457 C 34.414,36 36,34.414 36,32.457 V 15.543 C 36,13.586 34.414,12 32.457,12 H 15.543 z M 19,16 31,24 19,32 V 16 z"/></g></g></g></svg>