<svg xmlns="http://www.w3.org/2000/svg" viewBox="0 0 256 256"><g transform="translate(0 -796.36218)"><path d="M 229.62664,992.19588 C 321.67699,861.26283 151.67875,728.59918 43.239794,835.28142 -58.929521,935.79549 35.79079,1091.9595 162.92826,1043.144 c 26.52578,-10.1848 49.80187,-26.9143 66.69838,-50.94812 z" style="fill:#fff;color:#000"/><g transform="matrix(0.62495086 0 0 0.5477146 44.423846 417.78921)"><path d="m 107.73022,1047.9696 c -3.85,-0.4848 -10.556604,-1.7737 -14.903563,-2.8642 -5.631353,-1.4128 -9.457524,-1.8002 -13.308793,-1.3476 -4.473584,0.5258 -5.869085,0.2926 -8.096437,-1.3531 -1.786888,-1.3203 -4.9384,-2.1685 -9.378739,-2.5244 -4.280305,-0.3431 -7.912431,-1.2931 -10.090433,-2.6391 -3.644459,-2.2524 -6.852789,-8.0837 -7.094763,-12.895 -0.08495,-1.6891 -1.452359,-4.418 -3.226071,-6.4381 -7.613292,-8.6711 -8.976031,-16.6328 -3.574422,-20.88338 2.168989,-1.7068 2.695657,-2.9823 2.792168,-6.76218 0.173415,-6.79188 1.69717,-12.13656 4.717834,-16.54815 1.46477,-2.13925 2.663219,-4.33611 2.663219,-4.88192 0,-1.7132 6.989889,-7.67339 11.336467,-9.66646 2.289943,-1.05003 5.176033,-2.86108 6.413533,-4.02456 2.246338,-2.11198 2.249975,-2.16948 2.234687,-35.32647 -0.0084,-18.26607 -0.345922,-33.72817 -0.75,-34.36023 -0.404078,-0.63205 -1.859687,-1.30705 -3.234687,-1.5 l -2.5,-0.35081 0,-34.5 c 0,-33.5394 0.05569,-34.52455 2,-35.38179 1.1,-0.48499 2.675,-2.26871 3.5,-3.96382 1.053025,-2.16363 2.542941,-3.34462 5,-3.96328 3.869816,-0.97438 17.454397,-0.57005 18.577381,0.55294 0.391588,0.39159 0.89678,3.08437 1.122648,5.98396 0.827021,10.61694 -0.107244,9.87776 12.077441,9.55554 l 10.72253,-0.28355 1.1169,-3.45564 c 0.6143,-1.90059 1.62603,-3.62534 2.24829,-3.83276 0.67008,-0.22336 0.87988,-1.37913 0.51457,-2.83466 -1.18211,-4.7099 1.46698,-6.03174 12.37597,-6.17535 11.18835,-0.14728 13.8317,0.94516 12.98641,5.367 -0.34269,1.79266 0.10689,3.28044 1.37428,4.54783 1.03597,1.03597 1.88358,2.78358 1.88358,3.88358 0,1.1 0.5625,2.02484 1.25,2.05519 0.6875,0.0304 5.47507,0.29317 10.63904,0.58404 10.90409,0.61419 11.06562,0.50314 11.11096,-7.63923 0.0467,-8.38399 0.16238,-8.45783 12.99804,-8.29538 12.04284,0.15241 14.47581,1.03626 13.72104,4.98456 -0.32846,1.71827 0.0172,2.31082 1.34816,2.31082 0.98445,0 2.49705,0.70714 3.36133,1.57143 1.36471,1.3647 1.57143,5.88714 1.57143,34.37755 0,34.99879 0.0703,34.50384 -5,35.2052 l -2.5,0.34582 -0.27229,42 c -0.27113,41.82034 -0.26317,42.00749 1.86078,43.75 1.17319,0.9625 3.1535,1.75 4.40069,1.75 1.43815,0 4.84055,2.46907 9.30155,6.75 6.07382,5.82864 7.12933,7.36424 7.73277,11.25 0.38436,2.475 1.54881,6.38781 2.58767,8.69514 1.03885,2.30732 1.88883,4.82782 1.88883,5.60102 0,1.9343 -4.62936,10.4746 -7.57616,13.9767 -1.78915,2.1263 -2.42384,4.0739 -2.42384,7.4379 0,2.5064 -0.51102,6.2628 -1.13561,8.3475 -0.98415,3.2848 -1.91043,4.1381 -6.94529,6.3976 -5.7003,2.5581 -10.31641,2.9687 -26.9191,2.3945 -1.375,-0.048 -6.81787,0.8439 -12.09527,1.981 -19.11794,4.1193 -40.82875,5.2473 -58.40473,3.0343 z" style="fill:#ff4500"/><path d="m 134.47296,1040.1859 c -1.925,-0.7413 -6.875,-1.3977 -11,-1.4588 -4.125,-0.061 -11.06275,-0.7458 -15.41723,-1.5217 -6.0817,-1.0837 -8.400111,-1.1427 -10.000011,-0.2542 -1.99102,1.1057 -13.49135,2.8016 -20.30961,2.9951 -1.77477,0.05 -4.02477,-0.6071 -5,-1.461 -1.09961,-0.9628 -4.48833,-1.7358 -8.92101,-2.0351 -8.86339,-0.5984 -12.8081,-3.0301 -14.37893,-8.8637 -1.20405,-4.4715 -0.6749,-6.9603 2.41738,-11.3698 2.72636,-3.8877 4.687,-5.4595 6.8594,-5.499 0.9625,-0.018 1.75,-0.7124 1.75,-1.5443 0,-1.1764 -0.9067,-0.9402 -4.07964,1.0628 -3.86233,2.4382 -4.21101,2.4893 -6.54554,0.9597 -3.51811,-2.3052 -4.85088,-5.7056 -3.62008,-9.2362 0.75964,-2.17909 0.65728,-3.35689 -0.41959,-4.82799 -0.81326,-1.111 -1.17221,-2.9521 -0.83668,-4.2914 0.32321,-1.2901 0.0521,-2.9909 -0.60243,-3.7796 -0.90388,-1.0891 -0.91423,-2.0394 -0.0431,-3.9514 0.63086,-1.3846 1.14702,-3.8559 1.14702,-5.4918 0,-2.1557 0.64997,-3.2706 2.36117,-4.0503 1.29864,-0.5917 3.09136,-2.607 3.98382,-4.4785 1.05323,-2.2086 2.33019,-3.4028 3.63884,-3.4028 1.36999,0 2.01617,-0.6611 2.01617,-2.0628 0,-1.3825 0.57721,-1.9897 1.75,-1.8411 3.29962,0.4183 7.25,-1.2611 7.25,-3.082 0,-1.7417 2.64737,-4.7 3.46989,-3.8775 0.49384,0.4938 1.83601,15.4368 1.6494,18.3634 -0.0701,1.1 -0.0132,4.7 0.12659,8 0.61572,14.5375 0.13757,21.54519 -1.5878,23.27049 -1.41447,1.4145 -2.02088,1.4841 -3.71492,0.4261 -2.42793,-1.5163 -4.55312,-0.6365 -2.99566,1.2402 0.57454,0.6922 2.35289,1.2958 3.95191,1.3413 3.70243,0.1053 10.23902,3.4562 11.80458,6.0515 0.66219,1.0978 1.50766,4.2852 1.87883,7.0832 0.73981,5.577 1.11029,5.8144 5.51682,3.5357 3.67651,-1.9012 6.0166,-1.2402 10.76091,3.0396 l 3.639451,3.2831 13.63287,-0.5229 13.63286,-0.5229 1.13125,-3.6127 c 1.41898,-4.5316 3.63694,-7.1728 8.10303,-9.6496 1.925,-1.0675 4.29813,-2.5878 5.27363,-3.3784 1.3597,-1.1019 2.04817,-1.1629 2.95,-0.261 0.647,0.647 2.77387,1.1807 4.72637,1.186 3.34314,0.01 10.00149,4.1441 13.43842,8.3455 0.74675,0.9129 2.51731,1.2062 5.39463,0.8937 3.49591,-0.3797 4.18249,-0.7821 3.73586,-2.1893 -0.3204,-1.0095 0.28759,-2.4795 1.46695,-3.5468 1.10778,-1.0025 2.01414,-2.428 2.01414,-3.1678 0,-0.7397 0.96615,-1.345 2.14701,-1.345 1.18085,0 4.1662,-1.6545 6.63411,-3.6768 3.84709,-3.1524 4.64626,-3.4614 5.60299,-2.1661 0.61983,0.8392 2.83453,1.573 4.98199,1.6508 2.12636,0.077 4.49974,0.6658 5.27417,1.3085 1.7668,1.4664 3.14865,0.2726 1.54306,-1.333 -0.65083,-0.6509 -1.18333,-2.1182 -1.18333,-3.2609 0,-2.922 -2.75878,-6.5225 -4.99769,-6.5225 -1.03635,0 -2.18703,-0.4898 -2.55706,-1.08859 -0.82828,-1.3401 -0.65993,-25.1883 0.1935,-27.4123 0.53924,-1.4053 0.90466,-1.3372 2.90398,0.5411 1.49103,1.4007 2.97166,1.9314 4.25377,1.5244 1.27836,-0.4057 2.17211,-0.089 2.55369,0.9056 0.32287,0.8414 1.33706,1.5298 2.25375,1.5298 0.9167,0 2.64732,1.0125 3.84584,2.25 1.19851,1.2375 2.96015,2.7 3.91474,3.25 2.28617,1.3172 5.33558,14.1999 3.7391,15.7964 -0.60699,0.607 -1.10362,2.25539 -1.10362,3.66309 0,1.4194 -0.83502,3.0809 -1.87467,3.7302 -1.28691,0.8037 -1.72595,1.9487 -1.40032,3.6522 0.3672,1.9208 -0.16942,2.8848 -2.37533,4.2671 -1.56732,0.9821 -3.03895,1.9237 -3.27029,2.0923 -0.23134,0.1686 0.50758,1.3173 1.64204,2.5527 2.89436,3.1517 3.70359,8.0542 2.18077,13.2117 -1.00527,3.4046 -2.05382,4.7211 -4.84264,6.0799 -4.492,2.1887 -18.0252,3.4803 -23.44395,2.2375 -2.81036,-0.6445 -5.70515,-0.5687 -9.12763,0.2392 -3.72886,0.8801 -6.06365,0.8998 -9.11964,0.077 -3.29179,-0.8864 -4.82228,-0.8075 -7.70586,0.3973 -4.48137,1.8725 -17.80394,1.8745 -22.66248,0 z m -20.0338,-26.1154 c -1.29163,-0.3772 -1.39462,-1.4297 -0.65226,-6.6663 1.48104,-10.44709 1.87007,-31.76689 0.73388,-40.21829 -0.94964,-7.0637 -0.88273,-8.1413 0.57164,-9.2077 1.30207,-0.9547 2.37807,-0.9023 5.13597,0.25 4.08056,1.705 25.74458,2.0758 26.74457,0.4577 0.71701,-1.1601 6.17541,-1.3604 6.81171,-0.25 0.23636,0.4125 0.0573,3.675 -0.398,7.25 -1.31321,10.3122 -1.3034,31.9641 0.0173,38.24339 2.01072,9.5597 2.5492,9.25 -16.16832,9.3009 -8.94449,0.024 -17.3877,0.3241 -18.7627,0.6662 -1.375,0.3422 -3.19021,0.4205 -4.0338,0.1741 z M 89.012009,914.48861 c -0.83836,-2.49007 -1.16577,-21.78861 -0.39091,-23.04176 0.4527,-0.73212 2.62704,-1.22198 5.18489,-1.1681 7.498191,0.15795 7.674191,0.36902 7.609331,9.12582 -0.0317,4.27977 -0.3749,9.58139 -0.76267,11.78139 l -0.705041,4 -5.24851,0.30265 c -3.64088,0.20994 -5.38285,-0.0964 -5.68709,-1 z m 39.167651,0.49651 c -0.25965,-0.43954 -0.63738,-5.97416 -0.8394,-12.29916 l -0.3673,-11.5 6.26294,-0.29805 c 4.97707,-0.23686 6.38764,0.0269 6.87026,1.28458 0.33403,0.87044 0.2157,6.40457 -0.26294,12.29805 l -0.87026,10.71542 -5.1606,0.29916 c -2.83833,0.16454 -5.37305,-0.0605 -5.6327,-0.5 z m 34.95134,-0.0492 c -0.253,-0.4125 -0.61214,-5.925 -0.79808,-12.25 l -0.33809,-11.5 6.48906,0 6.48907,0 0.0606,11 c 0.0333,6.05 -0.12734,11.5625 -0.35699,12.25 -0.45514,1.36255 -10.74324,1.8081 -11.54553,0.5 z M 72.101999,887.16164 c -0.34598,-0.90159 -0.62905,-2.50591 -0.62905,-3.56515 0,-1.88302 1.36196,-1.92017 61.166781,-1.66822 39.67213,0.16714 61.27815,0.6091 61.48374,1.25769 1.08014,3.40762 -0.62325,3.54239 -50.22444,3.97376 -26.90934,0.23403 -49.488581,0.39567 -50.176081,0.3592 -7.76771,-0.41197 -18.08285,-0.15598 -19.37095,0.48073 -1.10566,0.54653 -1.82093,0.28013 -2.25,-0.83801 z" style="fill:#fff"/><path d="m 124.06568,190.25878 c -4.62773,-0.65453 -12.66684,-0.79961 -27.959306,-0.50458 -5.415257,0.10448 -14.360834,-1.01611 -17.38957,-2.17835 -1.271687,-0.48799 -3.579911,-4.13214 -3.579911,-5.65185 0,-1.34652 4.079347,-5.64769 6.076624,-6.40706 1.354441,-0.51495 1.696316,-0.98512 1.12891,-1.55252 -0.567405,-0.56741 -1.515325,-0.45115 -3.130132,0.3839 -3.656213,1.8907 -5.04212,0.33653 -6.02119,-6.75223 -1.199939,-8.68791 -0.506276,-10.28531 7.306993,-16.8269 1.02646,-0.8594 2.491981,-1.56254 3.256713,-1.56254 0.764731,0 1.897986,-0.72465 2.518343,-1.61033 0.620357,-0.88569 1.331143,-1.28152 1.579524,-0.87963 0.750769,1.21477 1.525175,19.88143 0.951635,22.93867 -0.472627,2.51932 -0.801566,2.85072 -2.829548,2.85072 -2.892202,0 -3.004356,1.38004 -0.158969,1.95609 4.765622,0.96479 7.427659,2.97136 8.580335,6.46761 l 1.112864,3.37549 3.226275,-0.48381 c 2.68679,-0.40291 3.67104,-0.15567 5.88611,1.47855 2.2181,1.63647 3.51964,1.96237 7.83708,1.96237 9.34735,0 12.30885,-0.70872 13.62897,-3.26154 0.64378,-1.24495 2.7655,-3.27504 4.71491,-4.51133 4.66937,-2.96122 7.23216,-2.49493 15.83993,2.882 2.62271,1.6383 5.43717,0.86875 7.00042,-1.91411 0.69923,-1.24475 2.98745,-3.05856 5.30624,-4.20612 3.88074,-1.92055 4.26696,-1.96747 8.02793,-0.97535 2.17308,0.57325 4.20919,0.88274 4.52468,0.68775 1.02134,-0.63122 -2.28224,-6.35477 -3.91425,-6.78155 -1.45338,-0.38007 -1.58265,-1.02109 -1.58265,-7.84808 l 0,-7.43421 2.13578,0.85815 c 9.00741,3.61915 11.00858,5.33576 11.63113,9.97721 0.4866,3.62793 -1.86656,9.49665 -4.72692,11.78883 -1.48877,1.19304 -1.52165,1.41609 -0.40076,2.71827 1.99557,2.31831 2.28205,4.07133 1.1199,6.85276 -0.85653,2.04996 -1.75301,2.79662 -4.06969,3.38954 -4.08769,1.04621 -41.4153,1.65295 -47.6284,0.77418 z" transform="matrix(1.6001258 0 0 1.8257684 -71.083742 691.18656)" style="fill:#ffdead;fill-rule:evenodd"/></g></g></svg>