<svg xmlns="http://www.w3.org/2000/svg" viewBox="0 0 256 256"><g transform="translate(0 -796.36)"><path d="m -1374.42 1658.71 c 125.16 -274.08 -273.7 -240.16 -226.07 -62.2 23.02 102.82 167.39 165.22 226.07 62.2 z" transform="matrix(0 -1 1 0 -1456.49 -551.64)" style="fill:#fff;color:#fff"/><g transform="matrix(3.65393 0 0 3.5 -1367.33 -913.43)" style="fill:#ff4500"><path d="m 388.6 503.8 h 40.01 v 40 h -40.01 z"/><path d="m 388.6 503.8 v 2 v 38 h 1.667 h 38.34 v -2 v -36 v -2 h -1.667 h -36.674 z m 3.334 4 h 33.34 v 32 h -33.34 z"/><path d="m 421.94 510.8 l -26.672 26 l 5 6 l 0.834 1 h 24.17 h 3.334 v -25 l -3.334 -4 l -3.334 -4 z" style="opacity:0.2;fill-rule:evenodd"/><path d="m 388.6 542.8 h 40.01 v 1 h -40.01 z"/><path d="m 395.27 510.8 h 26.672 v 26 h -26.672 z" style="fill:#faf0e6"/><path d="m 399.43 530.8 h 18.337 l 2.501 -13 l -20.838 6 z" style="fill:#ffe4e1;fill-rule:evenodd"/><path d="m 395.27 530.8 h 26.672 v 6 h -26.672 z" style="fill:#ffdead"/><g style="fill-rule:evenodd"><path d="m 395.27 530.8 v 4 c 2.174 -1.278 5.919 -2.18 5.835 -4 z" style="opacity:0.4"/><path d="m 395.27 530.8 v 5.938 c 10.742 -0.15 8.19 -5.938 8.19 -5.938 h -8.19 z" style="opacity:0.6"/><path d="m 421.94 530.8 v 4 c -1.167 -3.02 -5.896 -2.219 -5.835 -4 z" style="opacity:0.4"/><path d="m 421.94 530.8 v 5.938 c -10.742 -0.15 -8.19 -5.938 -8.19 -5.938 h 8.19 z" style="opacity:0.6"/></g><path d="m 404.25 514.75 a 5 4 0 0 0 -4.374 2.064 5 4 0 0 0 -4.614 3.986 5 4 0 0 0 5 4 5 4 0 0 0 4.374 -2.064 5 4 0 0 0 1.683 -0.35 3.334 2.667 0 0 0 2.297 0.738 3.334 2.667 0 0 0 3.334 -2.666 3.334 2.667 0 0 0 -2.842 -2.633 5 4 0 0 0 -4.859 -3.076 z" style="fill:#ff7f50;opacity:0.6"/><path d="m 414.26 510.75 a 5 4 0 0 0 -4.374 2.064 5 4 0 0 0 -4.614 3.986 5 4 0 0 0 5 4 5 4 0 0 0 4.374 -2.064 5 4 0 0 0 1.683 -0.35 3.334 2.667 0 0 0 2.297 0.738 3.334 2.667 0 0 0 3.334 -2.666 3.334 2.667 0 0 0 -2.842 -2.633 5 4 0 0 0 -4.859 -3.076 z" style="opacity:0.6"/><g style="fill-rule:evenodd"><path d="m 395.27 532.8 c 0.834 0 0.834 0 0.834 0 3.334 -1 4.168 -1 0.834 0 1.667 -2 1.667 -3 0 -1 -0.834 -7 -1.667 -7 -0.834 0 -3.334 -5 -3.334 -6 0 -1 0 -5 0 -5 h -1.667 z"/><path d="m 399.83 521.52 c -0.162 0.068 -0.3 0.157 -0.4 0.277 -0.834 1 1.401 2.052 1.667 3 0.375 1.339 0.96 2.495 0 5 2.133 0.337 -2.336 1.421 -5.835 3 h 0.834 c 0 0 3.334 -1 4.168 -1 0.834 0 1.667 -2 1.667 -3 0 -1 -0.834 -7 -1.667 -7 -0.115 0 -0.266 -0.111 -0.433 -0.277 z"/><path d="m 401.36 529.44 c -0.834 0 -0.834 0 -1.667 1 -0.094 0.113 -0.229 0.226 -0.379 0.338 -0.793 -0.087 -1.587 -0.982 -2.38 -0.982 -0.834 0 -0.834 2 -1.667 3 l 2.501 -1 c 0 0 0.168 -0.075 0.203 -0.09 l 0.889 -0.266 l 2.501 -1 c 0.62 -0.482 0.092 -0.689 0 -1 z"/><path d="m 395.27 532.8 v -7 c 0 0 3.334 0 2.501 1 l -0.834 1 c 0 0 -0.834 1 -0.834 2 v 1 c 0 0 0.524 0.222 0 1 -0.267 0.396 -0.698 1.095 -0.834 1 z" style="fill:#ffa07a"/><path d="m 420.27 510.8 c 0 0 0 1 -0.834 2 -0.834 1 0.834 2 0.834 2 -1.389 0.581 -2.778 0.65 -4.168 2 l 0.834 5 c -0.834 0 -1.667 6 -1.667 7 0 1 0.834 3 1.667 3 0.833 0 4.168 1 4.168 1 h 0.833 v -22 z" style="fill:#ffebcd"/><path d="m 417.37 521.52 c 0.162 0.068 0.3 0.157 0.4 0.277 0.834 1 -1.401 2.052 -1.667 3 -0.375 1.339 -0.96 2.495 0 5 -2.133 0.337 2.336 1.421 5.835 3 h -0.833 c 0 0 -3.334 -1 -4.168 -1 -0.834 0 -1.667 -2 -1.667 -3 0 -1 0.834 -7 1.667 -7 0.115 0 0.266 -0.111 0.433 -0.277 z"/><path d="m 415.85 529.44 c 0.834 0 0.834 0 1.667 1 0.094 0.113 0.229 0.226 0.379 0.338 0.793 -0.087 1.587 -0.982 2.38 -0.982 0.834 0 0.834 2 1.667 3 l -2.5 -1 c 0 0 -0.168 -0.075 -0.203 -0.09 l -0.889 -0.266 l -2.501 -1 c -0.62 -0.482 -0.092 -0.689 0 -1 z"/><path d="m 421.94 532.8 v -7 c 0 0 -3.334 0 -2.5 1 l 0.834 1 c 0 0 0.834 1 0.834 2 v 1 c 0 0 -0.524 0.222 0 1 0.267 0.396 0.698 1.095 0.833 1 z"/></g><path d="m 388.57 543.8 c 20 -1 20 -1 40 0 z" style="opacity:0.5"/><path d="m 388.57 503.8 c 20 1 20 1 40 0 z" style="opacity:0.75"/></g></g></svg>