<svg xmlns="http://www.w3.org/2000/svg" viewBox="0 0 256 256"><defs><clipPath><path transform="matrix(15.33333 0 0 11.5 415 -125.5)" d="m -24 13 c 0 1.105 -0.672 2 -1.5 2 -0.828 0 -1.5 -0.895 -1.5 -2 0 -1.105 0.672 -2 1.5 -2 0.828 0 1.5 0.895 1.5 2 z"/></clipPath></defs><g transform="translate(4.568 -795.9)"><path d="m 205.08 824.89 c -153.55 -118.62 -312.95 176.79 -122.85 220 119.72 44.27 236.64 -132.08 122.85 -220 z" style="fill:#fff;color:#000"/><g transform="matrix(1.47263 0 0 1.96242 -52.946 -889.79)" style="fill:#ff4500"><path d="m 62.19 943.29 c -0.88 -0.88 -0.567 -1.865 1.297 -4.08 2.291 -2.723 2.457 -3.68 2.457 -14.188 0 -9.998 -0.225 -11.472 -2 -13.08 -4.163 -3.768 -2.257 -4.645 14.914 -6.868 13.827 -1.79 14.339 -1.66 16.809 4.25 2.025 4.844 0.393 5.879 -4.361 2.767 -2.124 -1.39 -5.057 -2.818 -6.519 -3.173 -2.645 -0.643 -6.668 0.813 -8.08 2.924 -1.25 1.873 -0.84 6.293 0.703 7.574 1.202 0.998 1.985 0.653 4.314 -1.897 1.565 -1.714 3.154 -2.807 3.532 -2.43 0.377 0.377 0.686 3.509 0.686 6.96 0 6.921 -1.472 9.07 -3.803 5.563 -1.678 -2.527 -5.709 -2.887 -6.59 -0.589 -1.351 3.52 -0.575 7.46 1.893 9.605 4.536 3.944 3.411 5.134 -6 6.34 -2.75 0.353 -5.696 0.83 -6.547 1.06 -0.851 0.23 -2.069 -0.103 -2.707 -0.741 z m 98.75 -1.975 c 0 -1.236 1.888 -3.887 4.5 -6.32 5.709 -5.316 5.856 -6.996 0.552 -6.285 -5.325 0.714 -7.644 -1.211 -7.17 -5.952 0.065 -0.652 1.693 -1.755 3.618 -2.451 3.496 -1.264 3.5 -1.273 3.5 -7.565 0 -4.7 -0.352 -6.299 -1.385 -6.299 -2.125 0 -4.242 3.947 -5.648 10.53 -1.277 5.981 -4.388 12.47 -5.978 12.47 -0.773 0 -2.716 -5.882 -4.459 -13.5 -0.378 -1.65 -1.399 -3.791 -2.271 -4.758 -1.479 -1.641 -1.706 -1.648 -3.422 -0.095 -1.411 1.277 -1.838 3.117 -1.838 7.925 0 5.659 0.265 6.462 2.75 8.345 2.681 2.031 2.701 2.121 0.809 3.583 -2.311 1.786 -9.559 2.035 -9.559 0.329 0 -0.644 0.718 -1.965 1.596 -2.935 2.342 -2.588 2.101 -24.466 -0.299 -27.12 -2.304 -2.545 -0.736 -3.753 6.068 -4.677 6.641 -0.901 8.175 0.176 9.177 6.439 0.747 4.67 2.786 7.849 4.644 7.24 0.722 -0.237 2.463 -3.996 3.869 -8.354 2.864 -8.879 3.877 -9.744 12.694 -10.84 6 -0.746 6.749 0.435 3.28 5.207 -2.779 3.823 -3.192 23.269 -0.556 26.18 2.364 2.612 1.306 6.647 -3.01 11.503 -4.11 4.619 -3.281 7.03 1.455 4.235 3.664 -2.164 4.086 -2.143 4.086 0.208 0 4.617 -0.833 5.082 -9.107 5.082 -7.386 0 -7.893 -0.137 -7.893 -2.129 z m 4 -0.871 c 0 -0.55 -0.45 -1 -1 -1 -0.55 0 -1 0.45 -1 1 0 0.55 0.45 1 1 1 0.55 0 1 -0.45 1 -1 z m -68 -3.465 c 0 -0.806 0.795 -1.89 1.767 -2.41 5.03 -2.692 6.432 -22.917 1.932 -27.871 -2.476 -2.726 -1.961 -3.353 3.542 -4.306 2.343 -0.406 6.951 -1.277 10.24 -1.936 10.857 -2.175 16.519 0.247 16.519 7.07 0 6.397 -6.801 11.922 -14.677 11.922 -5.552 0 -8.987 10.504 -4.262 13.03 3.292 1.762 1.736 3.323 -4.635 4.648 -7.979 1.659 -10.425 1.625 -10.425 -0.145 z m 19.881 -19.644 c 3.221 -1.123 6.119 -5.219 6.119 -8.651 0 -2.696 -2.104 -5.04 -5.2 -5.782 -7.339 -1.768 -11.426 13.33 -4.2 15.511 0.055 0.017 1.532 -0.468 3.28 -1.078 z" style="fill:#ffa07a"/><path d="m 62.21 943.35 c 0 -0.74 0.9 -2.116 2 -3.058 2.27 -1.943 2.241 -1.729 2.01 -15.232 -0.145 -8.628 -0.456 -10.308 -2.262 -12.246 -1.151 -1.235 -1.791 -2.548 -1.421 -2.918 0.369 -0.369 5.959 -1.453 12.421 -2.407 6.462 -0.955 12.478 -2.03 13.37 -2.39 0.929 -0.375 2.316 0.041 3.248 0.973 1.619 1.619 3.239 6.212 2.464 6.987 -0.223 0.223 -2.741 -0.749 -5.595 -2.161 -5.716 -2.829 -8.928 -2.649 -12.265 0.687 -2.215 2.215 -2.664 7.885 -0.775 9.775 1.973 1.973 4.768 1.365 5.982 -1.3 1.858 -4.077 2.818 -2.885 2.818 3.5 0 6.305 -0.698 7.314 -2.768 4 -1.604 -2.568 -5.837 -2.607 -7.197 -0.066 -1.877 3.508 -1.217 7.993 1.556 10.562 1.425 1.321 2.331 2.821 2.01 3.335 -0.318 0.514 -3.171 1.239 -6.341 1.611 -3.17 0.372 -6.551 0.905 -7.513 1.184 -1.051 0.305 -1.75 -0.029 -1.75 -0.837 z m 98 -0.919 c 0 -1.236 1.888 -3.887 4.5 -6.32 4.991 -4.648 5.837 -7.551 2.2 -7.551 -1.265 0 -2.792 0.492 -3.393 1.093 -2.329 2.329 -7.288 -2.993 -5.435 -5.832 1.299 -1.99 5.156 -3.259 9.812 -3.229 3.966 0.026 5.137 0.473 6.638 2.534 2.421 3.324 1.549 6.951 -2.863 11.91 -4.11 4.619 -3.281 7.03 1.455 4.235 3.664 -2.164 4.086 -2.143 4.086 0.208 0 4.617 -0.833 5.082 -9.107 5.082 -7.386 0 -7.893 -0.137 -7.893 -2.129 z m 4 -0.871 c 0 -0.55 -0.45 -1 -1 -1 -0.55 0 -1 0.45 -1 1 0 0.55 0.45 1 1 1 0.55 0 1 -0.45 1 -1 z m -65.64 -4.844 c 4.706 -5.2 5.633 -25.18 1.385 -29.855 l -1.997 -2.199 l 2.877 -0.567 c 1.582 -0.312 4.774 -1 7.094 -1.538 12.913 -2.975 19.516 -2.13 21.378 2.735 2.494 6.519 -2.688 13.451 -11.09 14.841 -5.731 0.947 -8.777 2.465 -9.35 4.658 -0.843 3.224 0.425 7.739 2.482 8.84 1.027 0.55 1.868 1.388 1.868 1.862 0 0.819 -10.617 3.067 -14.487 3.067 -1.708 0 -1.718 -0.116 -0.154 -1.844 z m 18 -18.533 c 6.169 -2.577 7.422 -11.615 1.901 -13.714 -3.817 -1.451 -6.985 -0.344 -8.743 3.056 -2.078 4.02 -1.904 7.65 0.482 10.04 2.378 2.378 2.201 2.361 6.36 0.623 z m 17.64 14.218 c 0 -0.651 0.718 -1.977 1.596 -2.947 2.187 -2.417 2.099 -24.18 -0.112 -27.558 -1.799 -2.746 -1.49 -2.937 6.17 -3.809 6.779 -0.772 6.419 -1.068 7.869 6.473 0.936 4.867 3.14 8 5.628 8 1.952 0 2.057 0.37 1.435 5.05 -0.77 5.803 -3.494 12.145 -5 11.643 -0.564 -0.188 -1.939 -3.791 -3.056 -8.01 -2.308 -8.712 -4.51 -11.781 -6.981 -9.731 -1.124 0.933 -1.55 3.168 -1.55 8.125 0 5.753 0.348 7.163 2.194 8.883 2.687 2.504 1.743 3.561 -3.944 4.417 -2.966 0.446 -4.25 0.282 -4.25 -0.543 z m 34.535 -15.15 c -1.172 -1.789 -1.62 -3.847 -1.296 -5.963 0.272 -1.777 0.292 -3.793 0.044 -4.481 -0.57 -1.584 -4.506 -1.627 -6.07 -0.067 -2.065 2.065 -2.117 0.467 -0.163 -5.081 2.29 -6.502 1.982 -6.171 6.656 -7.152 2.084 -0.437 4.802 -1.108 6.04 -1.49 2.906 -0.897 3.054 1.501 0.25 4.04 -1.692 1.531 -2.01 3.134 -2.07 10.405 -0.039 4.727 -0.416 9.478 -0.838 10.558 -0.72 1.841 -0.878 1.793 -2.557 -0.769 z"/></g></g></svg>