<svg xmlns="http://www.w3.org/2000/svg" viewBox="0 0 256 256"><defs><clipPath><path d="m -24 13 c 0 1.105 -0.672 2 -1.5 2 -0.828 0 -1.5 -0.895 -1.5 -2 0 -1.105 0.672 -2 1.5 -2 0.828 0 1.5 0.895 1.5 2 z" transform="matrix(15.33333 0 0 11.5 415 -125.5)"/></clipPath></defs><g style="fill:#fff"><path transform="matrix(1 0 0 0.98712 10.792 -816.18)" d="M 219.87,1024.74 C 311.92,893.81 141.922,761.14 33.48,867.83 c -102.17,100.51 -7.449,256.68 119.69,207.86 26.526,-10.185 49.802,-26.914 66.7,-50.948 z" style="fill:#fff;color:#000"/></g><g transform="translate(1.085 -2.169)"><path d="m 191.23 197.75 c -1.353 -1.238 -9.788 -11.25 -18.745 -22.25 -8.957 -11 -16.763 -20.326 -17.346 -20.724 -0.595 -0.406 -1.217 0.033 -1.418 1 -0.196 0.948 -1.968 3.749 -3.936 6.224 -1.968 2.475 -3.721 4.688 -3.894 4.918 -0.174 0.23 -1.381 -0.152 -2.683 -0.849 -3.01 -1.609 -6.01 -1.054 -6.442 1.192 -0.226 1.175 0.302 1.739 1.632 1.739 1.619 0 3.18 1.747 3.18 3.559 0 0.217 -1.115 1.126 -2.477 2.02 -3.549 2.325 -9.668 3.547 -11.238 2.244 -0.795 -0.659 -1.761 -0.717 -2.534 -0.152 -2.833 2.071 -8.934 3.547 -10.05 2.432 c -0.605 -0.605 -2.15 -1.101 -3.432 -1.101 c -1.282 0 -2.606 -0.716 -2.942 -1.592 -0.487 -1.269 -1.497 -1.459 -4.976 -0.938 -3.444 0.516 -4.491 0.326 -4.962 -0.901 -0.403 -1.05 -1.345 -1.367 -2.898 -0.978 -1.745 0.438 -2.462 0.073 -2.963 -1.507 c -0.364 -1.147 -1.296 -2.085 -2.071 -2.085 c -0.775 0 -2.147 -1.125 -3.048 -2.5 -0.901 -1.375 -2.276 -2.5 -3.057 -2.5 -0.78 0 -2.348 -1.575 -3.484 -3.5 -1.136 -1.925 -2.696 -3.5 -3.466 -3.5 -0.771 0 -1.401 -0.465 -1.401 -1.033 0 -0.568 -1.575 -2.608 -3.5 -4.533 -1.925 -1.925 -3.5 -4.171 -3.5 -4.991 0 -0.82 -1.125 -1.919 -2.5 -2.442 -1.704 -0.648 -2.5 -1.711 -2.5 -3.34 0 -1.314 -0.9 -3.534 -2 -4.932 -1.143 -1.453 -2 -4.057 -2 -6.076 0 -1.943 -0.486 -3.833 -1.079 -4.2 c -0.685 -0.423 -0.838 -2.416 -0.421 -5.451 c 0.429 -3.119 0.269 -5.03 -0.461 -5.476 -1.704 -1.053 -0.386 -9.227 2.151 -13.331 1.517 -2.454 1.83 -3.687 1.01 -3.961 -1.638 -0.546 -1.502 -3.445 0.272 -5.791 0.808 -1.068 1.483 -2.869 1.5 -4 c 0.037 -2.404 4.92 -7.437 7.214 -7.437 c 0.865 0 2.19 -0.752 2.945 -1.671 c 3.995 -4.864 15.872 -9.566 15.872 -6.284 c 0 0.675 1.328 0.779 3.75 0.292 2.063 -0.414 4.999 -0.677 6.526 -0.584 1.606 0.098 4.767 -1.094 7.5 -2.828 13.823 -8.77 33.36 -9.146 47.738 -0.918 2.818 1.613 7.696 5.628 10.84 8.924 15.765 16.528 17.785 40.29 5.04 59.23 -1.901 2.825 -3.329 5.494 -3.173 5.931 0.156 0.437 7.821 10.01 17.03 21.276 l 16.75 20.481 v 5.919 c 0 4.464 -0.449 6.326 -1.829 7.574 -2.525 2.285 -5.606 2.07 -8.519 -0.595 z m -23.685 -95.02 c -1.477 -10.651 -9.223 -20.305 -18.937 -23.602 l -3.47 -1.178 l 3.22 3.322 c 1.771 1.827 3.22 4.03 3.22 4.904 0 0.87 2.059 3.269 4.576 5.332 3.54 2.901 4.454 4.235 4.04 5.894 -0.386 1.538 0.616 3.494 3.543 6.919 2.245 2.626 4.2 4.64 4.346 4.476 0.146 -0.164 -0.095 -2.894 -0.535 -6.067 z" style="fill:#f30000"/><path d="m 183.35 187.75 c -5.129 -6.188 -13.221 -16.01 -17.981 -21.823 -10.654 -13.01 -11.522 -13.799 -12.464 -11.29 -1.43 3.806 -7.7 11.296 -8.762 10.467 -2.177 -1.698 -6.852 -2.252 -7.702 -0.912 -1.551 2.445 -0.871 4.853 1.64 5.808 3.247 1.235 3.166 2.624 -0.25 4.289 -3.097 1.509 -8.02 1.639 -10.191 0.269 -0.94 -0.595 -1.577 -0.502 -1.833 0.265 -0.216 0.647 -1.142 1.18 -2.059 1.183 -0.917 0.003 -2.981 0.692 -4.587 1.529 -2 1.044 -3.244 1.2 -3.95 0.494 -0.566 -0.566 -2.078 -1.029 -3.361 -1.029 -1.282 0 -2.606 -0.716 -2.942 -1.592 -0.483 -1.259 -1.497 -1.459 -4.845 -0.957 -3.366 0.505 -4.361 0.304 -4.853 -0.977 -0.404 -1.053 -1.284 -1.4 -2.538 -1 -1.244 0.395 -2.39 -0.045 -3.255 -1.247 -0.734 -1.021 -2.133 -2.154 -3.109 -2.518 -0.976 -0.364 -2.151 -1.682 -2.613 -2.929 -0.462 -1.249 -1.681 -2.269 -2.715 -2.272 -1.184 -0.003 -2.529 -1.388 -3.645 -3.755 -0.973 -2.063 -2.386 -3.75 -3.14 -3.75 -0.754 0 -1.93 -1.35 -2.613 -3 -0.683 -1.65 -1.886 -3 -2.673 -3 -0.787 0 -1.901 -1.35 -2.477 -3 -0.575 -1.65 -1.661 -3 -2.413 -3 -1.568 0 -3.437 -3.048 -3.437 -5.606 0 -0.955 -0.726 -2.539 -1.613 -3.519 -0.887 -0.98 -1.712 -3.042 -1.833 -4.582 -0.121 -1.54 -0.74 -3.771 -1.374 -4.956 -0.904 -1.689 -0.827 -2.939 0.356 -5.769 1.35 -3.23 1.348 -3.675 -0.016 -4.198 -2.666 -1.023 -1.096 -9.734 2.722 -15.1 c 2.721 -3.823 11.379 -11.444 19.4 -17.07 1.022 -0.717 -0.392 -0.088 -3.142 1.398 -2.75 1.486 -7.336 4.886 -10.19 7.554 -2.855 2.668 -5.641 4.852 -6.191 4.852 -2 0 -2.047 -1.822 -0.105 -4.29 1.093 -1.389 1.986 -3.382 1.986 -4.429 0 -2.361 3.531 -6.281 5.657 -6.281 c 0.868 0 3.153 -1.382 5.078 -3.072 5.225 -4.588 9.947 -6.608 12.181 -5.213 1.255 0.784 3.099 0.845 5.979 0.198 2.291 -0.515 5.207 -0.674 6.482 -0.354 1.612 0.405 3.718 -0.364 6.919 -2.525 21.06 -14.21 50.669 -7.497 64.737 14.675 9.579 15.1 9.186 35.84 -0.964 50.939 -2.726 4.055 -3.642 6.259 -3.045 7.326 0.47 0.839 7.02 8.951 14.557 18.03 19.319 23.262 19.42 23.414 19.42 29.08 0 5.565 -1.792 7.921 -6.02 7.921 -2.451 0 -4.272 -1.678 -12.206 -11.25 z m -62.801 -21.5 c -0.058 -1.368 -2.937 -4.615 -3.549 -4 -1.036 1.036 0.645 4.752 2.148 4.752 0.788 0 1.418 -0.338 1.401 -0.75 z m -21.56 -9.892 c -1.27 -2.866 -1.82 -3.396 -2.141 -2.059 -0.432 1.799 2.468 7.3 3.372 6.396 0.263 -0.263 -0.29 -2.215 -1.23 -4.337 z m 6.592 3.701 c 0 -1.18 -1.95 -2.442 -2.667 -1.726 -0.716 0.716 0.546 2.667 1.726 2.667 0.518 0 0.941 -0.423 0.941 -0.941 z m 5.362 -0.559 c -0.317 -0.825 -1.033 -1.5 -1.591 -1.5 -0.585 0 -0.488 0.635 0.229 1.5 0.685 0.825 1.401 1.5 1.591 1.5 0.19 0 0.087 -0.675 -0.229 -1.5 z m 9.638 -1.5 c 0 -0.55 -0.477 -1 -1.059 -1 -0.582 0 -0.781 0.45 -0.441 1 0.34 0.55 0.816 1 1.059 1 0.243 0 0.441 -0.45 0.441 -1 z m 14.05 -18.75 c -1.798 -3.09 -4.02 -5.618 -4.505 -5.131 -0.724 0.724 3.279 6.881 4.473 6.881 0.721 0 0.731 -0.548 0.032 -1.75 z m -26.81 -1.765 c -0.264 -1.383 -0.877 -2.76 -1.361 -3.059 -1.025 -0.633 -1.088 0.199 -0.25 3.324 0.826 3.083 2.208 2.856 1.612 -0.265 z m 50.573 -2.889 c 0.36 -4.283 -1.951 -8.596 -4.606 -8.596 c -0.96 0 -3.959 -1.829 -6.665 -4.066 -8.42 -6.958 -9.26 -6.542 -2.265 1.123 3.697 4.05 6.721 7.694 6.721 8.096 0 1.768 4.355 7.895 5.374 7.561 0.619 -0.203 1.268 -2.057 1.441 -4.119 z m -40.13 -1.784 c -0.319 -0.798 -0.556 -0.561 -0.604 0.604 -0.043 1.054 0.193 1.645 0.525 1.313 0.332 -0.332 0.368 -1.195 0.079 -1.917 z m 26.552 -6.05 c -5.414 -5.414 -6.348 -4.481 -1.176 1.176 2.189 2.395 4.286 4.047 4.661 3.672 0.375 -0.375 -1.193 -2.557 -3.485 -4.848 z m -43.808 -0.435 c 0.352 -0.919 0.111 -1.997 -0.536 -2.398 -0.647 -0.4 -0.93 -1.674 -0.627 -2.83 0.784 -2.997 0.045 -2.599 -1.8 0.969 -1.239 2.397 -1.328 3.386 -0.403 4.5 1.558 1.878 2.582 1.804 3.367 -0.242 z m 7.573 -1.448 c 0 -0.55 -0.45 -0.722 -1 -0.382 -0.55 0.34 -1 1.068 -1 1.618 0 0.55 0.45 0.722 1 0.382 0.55 -0.34 1 -1.068 1 -1.618 z m 61.5 -14.904 c 0 -8.716 -0.274 -10.08 -3.241 -16.11 -3.852 -7.824 -11.08 -14.988 -18.603 -18.431 -7.367 -3.373 -11.468 -4.094 -12.215 -2.147 -0.486 1.268 -1.902 1.44 -8.03 0.977 -6.03 -0.456 -7.777 -0.254 -9.24 1.071 -0.993 0.898 -3.228 1.918 -4.967 2.266 -1.739 0.348 -3.735 1.329 -4.434 2.181 -1.115 1.356 -0.879 1.47 1.902 0.92 2.891 -0.572 7.771 -0.044 17.326 1.876 l 3.5 0.703 l -2.325 -2.539 c -2.73 -2.981 -1.576 -4.233 2.481 -2.69 1.553 0.59 4.215 0.813 5.915 0.494 2.421 -0.454 3.996 0.075 7.26 2.44 2.293 1.661 4.165 3.805 4.161 4.764 -0.004 0.959 2.133 3.644 4.75 5.967 3.797 3.371 4.468 4.416 3.323 5.174 -1.17 0.774 -0.765 1.692 2.193 4.966 3.931 4.351 6.742 9.157 6.742 11.527 0 2.467 -1.995 2.92 -4.214 0.957 -1.598 -1.415 -1.291 -0.397 1.313 4.344 l 3.401 6.192 l 1.5 -2.692 c 1.04 -1.866 1.5 -5.613 1.5 -12.214 z m -61.715 3.02 c 0.603 0 1.364 -0.432 1.69 -0.96 1.248 -2.02 -5.315 1.164 -7.603 3.688 l -2.373 2.618 l 3.594 -2.673 c 1.977 -1.47 4.088 -2.673 4.691 -2.673 z m 34.668 -1.049 c -3.706 -3.795 -13.956 -9.782 -14.985 -8.753 -0.256 0.256 1.671 1.859 4.283 3.561 2.612 1.702 6.549 4.465 8.749 6.14 5.646 4.298 6.615 3.827 1.953 -0.948 z m 8.984 -1.081 c -6.517 -6.943 -20.941 -13.976 -28.22 -13.761 l -3.712 0.11 l 4.156 0.822 c 6.766 1.339 14.244 5.01 21.697 10.659 7.835 5.936 10.515 6.892 6.084 2.171 z m -86.01 -6.121 l 2.696 -4.25 l -3.063 3.266 c -2.653 2.828 -3.892 5.234 -2.696 5.234 c 0.202 0 1.58 -1.912 3.063 -4.25 z m 29.985 1.609 c 0.527 -1.372 0.38 -1.434 -0.893 -0.378 -1.735 1.44 -1.916 2.02 -0.63 2.02 0.491 0 1.176 -0.739 1.523 -1.641 z m 19.13 -1.425 c 1.225 -1.982 -0.543 -2.296 -3.801 -0.674 l -3.24 1.613 l 3.191 0.064 c 1.755 0.035 3.488 -0.416 3.85 -1 z m 31.959 -4.503 c -1.65 -1.374 -5.925 -3.92 -9.5 -5.659 -5.478 -2.664 -7.932 -3.227 -15.606 -3.58 -9.549 -0.439 -17.902 1.186 -21.894 4.259 -1.222 0.941 -0.056 0.695 3 -0.632 11.495 -4.993 28.25 -3.115 40.5 4.542 6.609 4.129 7.503 4.402 3.5 1.07 z m -61.798 -3.627 c 3.49 -3.383 4.252 -5.107 1.85 -4.186 c -1.654 0.635 -7.05 7.382 -5.901 7.382 c 0.414 0 2.237 -1.438 4.051 -3.196 z m 20.707 -9.315 c 6.218 -1.886 17.485 -1.893 24.545 -0.014 7.248 1.929 7.542 1.228 0.578 -1.377 c -3.669 -1.373 -7.95 -2.098 -12.387 -2.098 c -6.823 0 -16.541 2.216 -17.66 4.03 -0.755 1.221 -0.933 1.24 4.925 -0.537 z" style="fill:#f80000"/><path d="m 190.42 195.25 c -1.961 -2.063 -10.62 -12.397 -19.243 -22.966 -8.623 -10.569 -16.08 -19.462 -16.564 -19.763 -0.487 -0.301 -2.157 1.263 -3.71 3.475 -1.553 2.213 -3.837 4.292 -5.074 4.622 -1.238 0.329 -2.25 1 -2.25 1.49 0 2.122 -4.106 0.743 -5.03 -1.69 -1.167 -3.069 -3.183 -2.738 -3.994 0.655 l -0.58 2.426 l -1.812 -2.75 c -0.997 -1.512 -2.191 -2.75 -2.653 -2.75 -1.354 0 1.938 8.228 4.097 10.239 1.086 1.011 1.974 2.324 1.974 2.917 0 0.622 0.952 0.834 2.25 0.501 2.178 -0.558 2.171 -0.516 -0.232 1.313 -1.365 1.039 -2.94 1.533 -3.5 1.097 -0.56 -0.436 -2.93 -1.085 -5.268 -1.441 -3.526 -0.538 -4.25 -0.371 -4.25 0.98 0 1.201 -0.591 1.47 -2.25 1.025 -1.237 -0.332 -2.764 -0.609 -3.391 -0.617 -1.278 -0.015 -4.761 -7.945 -3.877 -8.828 0.311 -0.311 1.27 0.442 2.132 1.672 2.166 3.092 4.728 1.17 3.333 -2.501 -1.239 -3.259 -1.211 -3.396 0.554 -2.719 1.743 0.669 1.945 -0.939 0.465 -3.704 -1.32 -2.467 -3.181 -2.458 -5.429 0.026 -1.756 1.94 -1.808 1.934 -5.144 -0.61 -2.938 -2.241 -3.451 -2.361 -3.998 -0.935 -0.899 2.343 -3.087 0.275 -3.95 -3.734 -0.805 -3.74 -3.386 -9.07 -4.063 -8.395 -0.259 0.259 0.057 2.568 0.702 5.131 1.557 6.183 0.596 6.792 -2.258 1.43 l -2.314 -4.347 l -0.324 3.316 c -0.269 2.748 -0.569 3.112 -1.756 2.128 -1.156 -0.96 -1.426 -0.828 -1.4 0.684 0.017 1.03 0.692 2.746 1.5 3.814 0.808 1.068 1.468 3.286 1.468 4.929 0 1.643 0.536 4.471 1.192 6.284 1.567 4.332 0.175 5.569 -2.357 2.094 c -1.101 -1.511 -2.595 -2.748 -3.321 -2.748 c -0.725 0 -1.81 -1.408 -2.409 -3.128 -0.894 -2.566 -1.349 -2.914 -2.528 -1.935 -1.63 1.353 -2.454 0.233 -4.505 -6.132 -0.827 -2.567 -1.635 -3.525 -2.645 -3.138 -0.979 0.376 -1.815 -0.478 -2.56 -2.616 -0.676 -1.939 -1.613 -2.979 -2.41 -2.673 -1.46 0.56 -3.436 -4.122 -3.493 -8.277 l -0.035 -2.601 l -1.322 2.385 c -1.515 2.733 -2.143 2.108 -3.121 -3.108 -0.383 -2.039 -1.211 -3.611 -1.841 -3.492 -0.636 0.119 -1.293 -1.341 -1.477 -3.281 -0.182 -1.923 -0.782 -4.04 -1.333 -4.702 -1.362 -1.641 -0.194 -4.875 2.538 -7.03 1.24 -0.977 3.112 -3.126 4.159 -4.776 1.047 -1.65 3.62 -5.362 5.717 -8.25 5.295 -7.291 3.356 -6.456 -3.058 1.317 c -2.92 3.538 -5.728 6.433 -6.241 6.433 -1.582 0 5.059 -9.897 10.808 -16.11 3 -3.242 5.153 -5.894 4.783 -5.894 c -1.922 0 -5.119 2.78 -11.415 9.925 -6.822 7.742 -9.466 9.42 -6.615 4.198 2.025 -3.71 6.103 -8.07 12.571 -13.443 5.103 -4.239 7.936 -5.771 20.677 -11.183 5.954 -2.529 4.595 -2.967 -2.92 -0.942 -8.619 2.323 -16.327 6.663 -22.489 12.664 -5.839 5.686 -8.831 6.176 -4.862 0.797 1.405 -1.904 2.35 -3.994 2.1 -4.645 -0.25 -0.651 0.443 -1.995 1.54 -2.987 1.575 -1.425 2.163 -1.531 2.799 -0.502 0.593 0.959 1.385 0.488 3.01 -1.79 c 1.211 -1.701 3.062 -3.092 4.113 -3.092 c 1.051 0 5.262 -1.125 9.358 -2.5 7.806 -2.62 12.201 -3.152 12.761 -1.544 0.183 0.526 3.049 -0.774 6.368 -2.887 8.03 -5.113 14.394 -7.226 23.551 -7.817 20.275 -1.309 39.33 11.728 46.04 31.497 4.554 13.417 2.299 29.673 -5.671 40.883 -1.901 2.674 -3.457 5.388 -3.457 6.03 0 0.643 7.65 10.483 17 21.867 l 17 20.699 v 5.851 c 0 4.761 -0.36 6.04 -1.934 6.886 -3.138 1.679 -4.463 1.242 -8.225 -2.715 z m -84.66 -45.47 c -0.718 -0.718 -1.183 -0.777 -1.183 -0.15 0 1.335 1.183 2.517 1.85 1.85 0.284 -0.284 -0.016 -1.049 -0.667 -1.7 z m 25.817 -1.673 c 0 -1.068 -3.919 -5.916 -3.967 -4.908 -0.066 1.397 2.308 5.797 3.127 5.797 0.462 0 0.839 -0.4 0.839 -0.889 z m 11.43 -0.998 c 0.794 -1.285 -6.289 -13.649 -10.692 -18.662 c -3.931 -4.476 -10.794 -8.45 -14.594 -8.45 c -2.496 0 -10.249 3.669 -11.379 5.384 -2.143 3.254 -0.29 3.433 2.783 0.269 3.02 -3.11 4.201 -3.653 7.935 -3.653 5.964 0 8.737 1.22 13.424 5.907 4.048 4.048 6.258 7.582 7.563 12.09 0.553 1.911 -0.387 1.253 -3.992 -2.798 -2.593 -2.914 -4.92 -5.093 -5.17 -4.843 -0.912 0.912 3.05 7.245 7.07 11.301 4.138 4.175 6.03 5.103 7.05 3.452 z m -34.43 -7.998 c 0 -2.447 -2.872 -9.08 -3.079 -7.115 -0.392 3.734 0.835 9 2.098 9 0.54 0 0.981 -0.848 0.981 -1.885 z m 49.546 -0.188 c 0.365 -0.59 0.756 -2.953 0.868 -5.25 0.24 -4.89 -2.587 -9.04 -13.488 -19.783 -6.917 -6.82 -12.915 -10.435 -18.949 -11.422 -3.338 -0.546 -3.278 -0.461 1.524 2.126 5.702 3.072 18.813 12.885 22.421 16.781 4.149 4.481 1.517 4 -4.372 -0.796 -3.093 -2.519 -7.464 -5.519 -9.714 -6.667 -3.87 -1.974 -3.73 -1.75 2.59 4.162 6.733 6.298 12.1 13.358 5.955 7.833 -1.584 -1.424 -4.455 -3.638 -6.38 -4.92 l -3.5 -2.331 l 2.984 3.42 c 6.822 7.819 11 11.92 12.156 11.92 0.673 0 2.185 1.35 3.36 3 2.26 3.174 3.46 3.683 4.546 1.926 z m -38.639 -4.764 c -1.097 -3.147 -2.907 -4.32 -2.907 -1.885 0 1.49 3.01 6.04 3.607 5.449 0.221 -0.221 -0.094 -1.825 -0.7 -3.565 z m -28.22 0.65 c -0.319 -0.798 -0.556 -0.561 -0.604 0.604 -0.043 1.054 0.193 1.645 0.525 1.313 0.332 -0.332 0.368 -1.195 0.079 -1.917 z m 34.32 -0.813 c -1.057 -1.975 -3 -2.752 -3 -1.2 0 1.052 2.172 3.2 3.235 3.2 0.459 0 0.354 -0.9 -0.235 -2 z m -37.02 -5.309 c 0.008 -0.445 -0.435 -0.531 -0.985 -0.191 c -0.55 0.34 -0.993 1.379 -0.985 2.309 0.013 1.457 0.149 1.484 0.985 0.191 0.533 -0.825 0.976 -1.864 0.985 -2.309 z m -12.985 -1.201 c 0 -0.766 2.261 -5.689 5.03 -10.941 c 2.764 -5.252 4.64 -9.549 4.17 -9.549 c -1.839 0 -7.07 8.842 -9.08 15.355 -2.438 7.894 -2.45 7.968 -1.117 7.145 0.55 -0.34 1 -1.245 1 -2.01 z m 26.537 -1.926 c 0.917 -1.933 3.672 -4.771 6.297 -6.488 4.851 -3.173 5.05 -4.103 0.364 -1.678 -1.486 0.769 -3.559 2.344 -4.605 3.5 -2.34 2.586 -3.593 2.682 -3.593 0.277 0 -2.459 3.542 -5.623 9 -8.04 4.299 -1.904 4.366 -1.996 1.5 -2.06 -5.699 -0.127 -12.365 5.91 -14.168 12.831 -0.442 1.696 -0.085 2.802 1.212 3.75 2.375 1.736 2.111 1.875 3.993 -2.092 z m -28.727 -13.787 c 2.693 -3.914 6.676 -8.07 4.964 -5.181 -1.559 2.632 -4.858 10.653 -4.52 10.991 0.456 0.456 8.35 -11.202 11.164 -16.486 3.939 -7.398 4.766 -9.251 4.323 -9.694 c -3.147 -3.147 -21.16 22.469 -23.275 33.09 c -0.345 1.738 0.398 0.676 1.766 -2.524 1.299 -3.038 3.809 -7.628 5.578 -10.199 z m 96.18 8.763 c 2.096 -7.487 0.935 -20.13 -2.492 -27.13 -3.674 -7.51 -10.995 -14.828 -18.08 -18.07 -6.535 -2.992 -13.418 -4.213 -13.418 -2.38 0 0.906 -1.853 1.045 -7.25 0.545 -6.84 -0.634 -7.589 -0.494 -13.25 2.482 -3.3 1.735 -6.363 3.509 -6.806 3.943 -0.443 0.434 2.932 1.036 7.5 1.338 12.63 0.835 14.471 2.234 2.99 2.272 -7.747 0.026 -10.635 0.465 -14.435 2.194 -5.964 2.714 -6.347 4.756 -0.5 2.667 6.082 -2.173 16.334 -2.83 22.891 -1.468 3.102 0.644 9.515 3.116 14.25 5.493 4.735 2.376 8.609 4.136 8.609 3.91 0 -1.45 -13.762 -12.624 -18.75 -15.224 -3.463 -1.805 -2.824 -3.482 1 -2.62 1.787 0.403 4.633 0.675 6.323 0.606 3.814 -0.158 9.818 3.728 10.237 6.625 0.171 1.179 2.333 3.802 4.805 5.827 5.03 4.121 5.202 5.45 0.385 2.959 -5.186 -2.682 -4.452 -1.141 2.264 4.755 6.07 5.326 10.833 11.981 9.521 13.293 -0.755 0.755 -5.521 -2.505 -12.177 -8.329 c -10.01 -8.758 -23.15 -14.219 -34.21 -14.219 c -6.757 0 -17.632 3.399 -21.13 6.604 -3.062 2.805 -2.852 2.781 4.04 -0.476 11.482 -5.425 23.719 -5.063 36.3 1.073 11.34 5.529 22.389 16.01 26.947 25.572 1.919 4.02 2.808 3.576 4.434 -2.234 z m -9.881 -1.866 c -3.837 -6.208 -15.525 -15.732 -23.285 -18.975 -6.123 -2.558 -14.585 -3.92 -19.12 -3.077 -4.144 0.771 -4.101 0.792 2.967 1.471 4.365 0.419 9.429 1.722 12.94 3.329 6.673 3.055 23.7 15.597 26.06 19.19 2.452 3.742 2.854 1.965 0.44 -1.942 z m -75.12 -3.983 c 0.008 -0.445 -0.435 -0.531 -0.985 -0.191 c -0.55 0.34 -0.993 1.379 -0.985 2.309 0.013 1.457 0.149 1.484 0.985 0.191 0.533 -0.825 0.976 -1.864 0.985 -2.309 z m 14.508 -2.236 c 2.623 -2.623 3.586 -4.049 2.276 -3.372 -3.01 1.558 -5.739 3.992 -6.897 6.156 -1.521 2.842 -0.225 2.061 4.621 -2.784 z m -1.439 -7.13 l 3.446 -3.675 l -3.5 2.128 c -1.925 1.171 -3.645 2.824 -3.823 3.675 -0.469 2.244 0.039 1.965 3.877 -2.128 z m 14.1 1.235 c 2.01 -0.338 3.908 -1.277 4.219 -2.087 0.82 -2.136 -2.654 -1.88 -7.412 0.548 -4.105 2.094 -5.26 3.471 -2.21 2.634 0.963 -0.264 3.394 -0.757 5.403 -1.095 z m -20.15 -21.56 c 2.103 -1.645 2.212 -1.959 0.684 -1.978 -2.317 -0.028 -5.684 1.756 -5.684 3.01 0 1.551 2.303 1.075 5 -1.035 z m 22.953 91.44 c -0.7 -0.844 -1.889 -1.298 -2.641 -1.01 -0.812 0.312 -2.166 -0.786 -3.336 -2.704 -1.438 -2.358 -1.97 -2.726 -1.973 -1.363 -0.003 1.374 -0.532 1.728 -2 1.344 -1.1 -0.288 -2 -0.115 -2 0.383 0 2.438 -2.957 0.462 -4.257 -2.844 -3.243 -8.249 -3.042 -14.914 0.263 -8.738 0.908 1.698 1.908 2.333 3.085 1.959 0.957 -0.304 2.043 -0.062 2.414 0.537 0.481 0.779 1.066 0.764 2.051 -0.054 1.109 -0.92 1.819 -0.198 3.641 3.701 2.856 6.115 2.774 6.01 3.634 4.619 0.944 -1.528 2.724 -0.337 3.575 2.392 0.84 2.695 -0.741 3.84 -2.453 1.778 z" style="fill:#da0000"/><path d="m 191.83 196.24 c -0.963 -0.967 -9.583 -11.317 -19.16 -23 c -9.573 -11.683 -17.795 -21.241 -18.27 -21.241 c -0.475 0 -2.672 1.141 -4.881 2.536 -2.21 1.395 -4.47 2.256 -5.02 1.914 -1.529 -0.945 -3.883 1.481 -3.19 3.287 0.405 1.055 0.216 1.347 -0.559 0.868 -0.643 -0.398 -1.17 -1.296 -1.17 -1.996 0 -0.929 -2.288 -1.278 -8.466 -1.29 -5.322 -0.011 -9.03 -0.486 -9.987 -1.28 -0.889 -0.738 -2.575 -0.998 -4.056 -0.626 -1.781 0.447 -2.709 0.183 -3.12 -0.888 c -0.322 -0.839 -1.485 -1.525 -2.584 -1.525 c -1.1 0 -2.884 -1.125 -3.966 -2.5 -1.082 -1.375 -2.598 -2.5 -3.371 -2.5 -0.772 0 -2.141 -1.125 -3.042 -2.5 -2.254 -3.44 -3.728 -3.136 -3.172 0.654 0.418 2.849 0.332 2.976 -0.887 1.309 -0.742 -1.015 -1.349 -3.308 -1.349 -5.095 0 -1.787 -0.478 -3.545 -1.062 -3.906 -0.584 -0.361 -1.473 -1.737 -1.975 -3.059 c -0.502 -1.322 -1.628 -2.403 -2.502 -2.403 c -1.164 0 -1.505 -0.79 -1.275 -2.956 0.454 -4.274 -1.459 -3.89 -3.03 0.609 -1.747 5.01 -0.865 16.464 1.81 23.505 2.639 6.944 0.926 9.09 -1.933 2.424 c -1.119 -2.611 -2.035 -5.216 -2.035 -5.787 c 0 -0.667 -0.496 -0.628 -1.383 0.108 -1.527 1.268 -2.617 -0.392 -2.617 -3.985 0 -2.398 -1.538 -2.5 -2.531 -0.168 -0.642 1.509 -0.849 1.406 -1.507 -0.75 -2 -6.572 0.531 -21.516 3.46 -20.392 2.371 0.91 6.358 -9.157 6.38 -16.11 0.016 -5.3 0.908 -8.677 4.684 -17.75 0.964 -2.317 -2.132 -2.38 -4.657 -0.095 -1.01 0.91 -1.829 1.159 -1.829 0.553 0 -0.606 2.475 -2.744 5.5 -4.752 3.03 -2.01 5.5 -4.244 5.5 -4.969 0 -1.913 11.436 -10.269 19 -13.882 c 6.159 -2.942 7.133 -3.105 18.552 -3.105 c 11.912 0 12.14 0.043 19.645 3.753 25.53 12.618 33.702 45.06 17.15 68.09 -1.918 2.67 -3.266 5.372 -2.996 6.01 0.27 0.633 6.438 8.351 13.706 17.15 22.1 26.763 20.94 25.07 20.94 30.39 0 2.591 -0.54 5.25 -1.2 5.91 -1.748 1.748 -5.533 1.468 -7.55 -0.559 z m -66.25 -48.24 c 0 -0.55 -0.477 -1 -1.059 -1 -0.582 0 -0.781 0.45 -0.441 1 0.34 0.55 0.816 1 1.059 1 0.243 0 0.441 -0.45 0.441 -1 z m 6 0.111 c 0 -1.056 -3.918 -5.922 -3.967 -4.926 -0.081 1.673 2.01 5.815 2.942 5.815 0.564 0 1.025 -0.4 1.025 -0.889 z m 11.43 -0.998 c 0.794 -1.285 -6.289 -13.649 -10.692 -18.662 c -3.931 -4.476 -10.794 -8.45 -14.594 -8.45 c -2.496 0 -10.249 3.669 -11.379 5.384 -2.143 3.254 -0.29 3.433 2.783 0.269 3.02 -3.11 4.201 -3.653 7.935 -3.653 5.964 0 8.737 1.22 13.424 5.907 4.048 4.048 6.258 7.582 7.563 12.09 0.553 1.911 -0.387 1.253 -3.992 -2.798 -2.593 -2.914 -4.92 -5.093 -5.17 -4.843 -0.912 0.912 3.05 7.245 7.07 11.301 4.138 4.175 6.03 5.103 7.05 3.452 z m -60.06 -7.363 c 0.887 -6.188 2.546 -15.26 3.201 -17.5 0.485 -1.66 0.244 -2.25 -0.921 -2.25 -2.197 0 -4.655 8.81 -4.655 16.682 0 6.62 1.575 8.654 2.375 3.069 z m 24.581 -4.883 c -0.69 -2.09 -1.651 -3.556 -2.136 -3.256 -1.09 0.674 0.035 7.38 1.56 9.295 1.745 2.191 2.092 -1.444 0.576 -6.04 z m 50.589 4.059 c 0.365 -0.59 0.756 -2.953 0.868 -5.25 0.24 -4.89 -2.587 -9.04 -13.488 -19.783 -6.917 -6.82 -12.915 -10.435 -18.949 -11.422 -3.338 -0.546 -3.278 -0.461 1.524 2.126 5.702 3.072 18.813 12.885 22.421 16.781 4.149 4.481 1.517 4 -4.372 -0.796 -3.093 -2.519 -7.464 -5.519 -9.714 -6.667 -3.87 -1.974 -3.73 -1.75 2.59 4.162 6.733 6.298 12.1 13.358 5.955 7.833 -1.584 -1.424 -4.455 -3.638 -6.38 -4.92 l -3.5 -2.331 l 2.984 3.42 c 6.822 7.819 11 11.92 12.156 11.92 0.673 0 2.185 1.35 3.36 3 2.26 3.174 3.46 3.683 4.546 1.926 z m -38.639 -4.764 c -1.097 -3.147 -2.907 -4.32 -2.907 -1.885 0 1.49 3.01 6.04 3.607 5.449 0.221 -0.221 -0.094 -1.825 -0.7 -3.565 z m 6.093 -0.162 c -1.057 -1.975 -3 -2.752 -3 -1.2 0 1.052 2.172 3.2 3.235 3.2 0.459 0 0.354 -0.9 -0.235 -2 z m -23.11 -8.75 c 1.068 -2.07 3.746 -4.852 5.977 -6.21 2.223 -1.353 3.879 -2.623 3.678 -2.824 -0.641 -0.641 -5.988 2.505 -7.957 4.681 -2.34 2.586 -3.593 2.682 -3.593 0.277 0 -2.459 3.542 -5.623 9 -8.04 4.299 -1.904 4.366 -1.996 1.5 -2.06 -4.124 -0.092 -8.938 3.074 -11.965 7.87 -2.977 4.716 -3.312 8.707 -0.785 9.367 0.963 0.252 1.853 0.51 1.98 0.573 0.126 0.064 1.1 -1.572 2.165 -3.634 z m 67.04 -4.433 c 1.928 -6.04 1.47 -17.661 -0.952 -24.13 -2.341 -6.258 -8.189 -14.271 -12.824 -17.571 -7.593 -5.407 -20.16 -9.174 -20.16 -6.04 0 0.727 -2.54 0.847 -7.935 0.377 -7.114 -0.621 -8.207 -0.478 -10.562 1.374 -1.445 1.137 -4.174 2.577 -6.06 3.201 -1.891 0.624 -3.438 1.486 -3.438 1.916 0 0.43 3.713 1.027 8.25 1.327 12.584 0.832 14.393 2.23 2.935 2.268 -7.747 0.026 -10.635 0.465 -14.435 2.194 -2.612 1.189 -4.75 2.685 -4.75 3.325 0 0.726 0.658 0.882 1.75 0.416 7.812 -3.337 18.02 -4.267 26.25 -2.392 9.869 2.249 25.994 12.31 29.13 18.18 0.726 1.357 -0.921 0.497 -4.762 -2.487 -17.644 -13.707 -36.581 -16.411 -52.576 -7.508 -6.04 3.365 -5.143 4.778 1.027 1.61 15.403 -7.909 31.31 -5.589 48.18 7.03 6.082 4.549 14.1 13.708 16.585 18.934 1.79 3.773 2.624 3.388 4.348 -2.01 z m -9.968 -14.857 c -2.321 -2.772 -4 -5.256 -3.739 -5.52 0.633 -0.633 8.773 8.217 8.773 9.538 0 1.73 -0.666 1.199 -5.03 -4.02 z m -9.966 -14.245 c -8.09 -3.995 -21 -11.977 -21 -12.982 0 -0.591 1.295 -0.693 3.25 -0.255 1.787 0.4 4.901 0.794 6.92 0.875 3.755 0.151 8.83 3.749 8.83 6.259 0 0.694 1.688 2.862 3.75 4.817 4.378 4.15 4.245 4.248 -1.75 1.286 z m 10.05 26.363 c -3.802 -5.339 -14.428 -14.15 -20.546 -17.04 -7.781 -3.675 -16.395 -5.418 -21.804 -4.412 -4.135 0.769 -4.085 0.794 3.02 1.476 4.826 0.463 9.313 1.684 13.5 3.675 6.637 3.155 22.748 15.321 25.508 19.262 0.953 1.361 1.802 1.849 2.029 1.167 0.215 -0.645 -0.555 -2.501 -1.711 -4.124 z m -58.23 -7.916 l 2.673 -2.339 l -2.5 1.211 c -3.637 1.762 -8 6.094 -7.968 7.904 0.021 1.057 0.856 0.592 2.577 -1.437 1.4 -1.65 3.748 -4.052 5.218 -5.339 z m -3.335 -4.898 c 2.892 -3.472 2.909 -3.549 0.5 -2.299 -4.904 2.545 -7.762 6.139 -4.743 5.964 0.688 -0.04 2.597 -1.689 4.243 -3.665 z m 13.661 1.297 c 2.01 -0.338 3.908 -1.277 4.219 -2.087 0.82 -2.136 -2.654 -1.88 -7.412 0.548 -4.105 2.094 -5.26 3.471 -2.21 2.634 0.963 -0.264 3.394 -0.757 5.403 -1.095 z m -12.503 63.22 c -0.908 -2.045 -1.651 -4.477 -1.651 -5.405 c 0 -1.521 0.172 -1.537 1.75 -0.163 0.963 0.838 2.31 1.322 2.994 1.074 0.684 -0.248 1.697 0.74 2.25 2.196 1.356 3.566 1.302 3.745 -0.913 3.042 -1.337 -0.424 -2.049 -0.066 -2.349 1.183 -0.322 1.339 -0.848 0.852 -2.081 -1.926 z m 9.474 0.593 c -0.66 -1.448 -0.971 -2.863 -0.69 -3.143 0.28 -0.28 0.985 0.74 1.565 2.268 1.372 3.608 0.684 4.296 -0.875 0.875 z m 12.375 1.625 c -0.729 -1.18 0.217 -3 1.559 -3 0.518 0 0.941 0.9 0.941 2 0 2.109 -1.455 2.691 -2.5 1 z m -26.876 -2.539 c -0.965 -2.515 -0.68 -3.164 0.499 -1.136 0.584 1 0.851 2.036 0.593 2.293 -0.257 0.257 -0.749 -0.263 -1.092 -1.157 z m -2.443 -8.309 c -0.726 -2.391 -1.1 -4.567 -0.831 -4.836 0.954 -0.954 2.769 3.825 2.462 6.482 -0.277 2.401 -0.458 2.218 -1.631 -1.647 z m 0.548 -13.757 c -0.401 -0.401 -0.715 -1.667 -0.699 -2.813 0.028 -1.924 0.11 -1.946 1.071 -0.296 1.119 1.922 0.832 4.313 -0.372 3.108 z m -21.496 -10.396 c 0.002 -1.925 0.347 -4.85 0.767 -6.5 0.695 -2.733 0.769 -2.778 0.824 -0.5 0.033 1.375 -0.312 4.3 -0.767 6.5 l -0.827 4 l 0.003 -3.5 z m -3.783 -6.691 c 0.243 -2.855 1.38 -6.905 2.527 -9 1.324 -2.417 1.833 -2.895 1.394 -1.309 -0.381 1.375 -1.518 5.425 -2.527 9 l -1.835 6.5 l 0.441 -5.191 z m -4.376 -2.5 c -0.041 -1.48 -0.524 -2.969 -1.074 -3.309 c -1.809 -1.118 -1.048 -3.606 2.051 -6.704 1.678 -1.678 4.153 -4.673 5.5 -6.655 3.02 -4.449 3.162 -3.457 0.3 2.15 -1.182 2.316 -3.173 7.135 -4.426 10.71 -1.621 4.628 -2.298 5.725 -2.351 3.809 z m 5.765 -23.309 c 1.356 -2.75 8.08 -10.235 8.08 -9 0.002 0.55 -2.038 3.25 -4.532 6 -2.494 2.75 -4.091 4.1 -3.549 3 z m -5.839 -1.304 c 0 -0.442 1.657 -2.355 3.682 -4.25 l 3.682 -3.446 l -3.266 4.25 c -3.269 4.254 -4.098 4.951 -4.098 3.446 z m 1 -8.888 c 0 -0.618 2.164 -3.077 4.808 -5.466 c 2.645 -2.388 5.105 -5.13 5.469 -6.093 0.376 -0.995 1.693 -1.75 3.053 -1.75 c 1.316 0 5.37 -1.35 9.01 -3 3.639 -1.65 7.616 -3 8.838 -3 3.551 0 0.909 1.613 -5.678 3.468 -7.99 2.25 -13.899 5.714 -20.25 11.873 -2.888 2.8 -5.25 4.586 -5.25 3.968 z m 16.483 -7.281 c 0.267 -0.432 1.393 -1.023 2.503 -1.313 1.109 -0.29 1.798 -0.174 1.531 0.259 -0.267 0.432 -1.393 1.023 -2.503 1.313 -1.109 0.29 -1.798 0.174 -1.531 -0.259 z" style="fill:#b90000"/><path d="m 191.83 196.24 c -0.963 -0.967 -9.583 -11.317 -19.16 -23 c -9.573 -11.683 -17.795 -21.241 -18.27 -21.241 c -0.475 0 -2.672 1.141 -4.881 2.536 -2.21 1.395 -4.47 2.256 -5.02 1.914 -1.529 -0.945 -3.883 1.481 -3.19 3.287 0.405 1.055 0.216 1.347 -0.559 0.868 -0.643 -0.398 -1.17 -1.296 -1.17 -1.996 0 -0.929 -2.288 -1.278 -8.466 -1.29 -5.322 -0.011 -9.03 -0.486 -9.987 -1.28 -0.889 -0.738 -2.575 -0.998 -4.056 -0.626 -1.781 0.447 -2.709 0.183 -3.12 -0.888 c -0.322 -0.839 -1.485 -1.525 -2.584 -1.525 c -1.1 0 -2.884 -1.125 -3.966 -2.5 -1.082 -1.375 -2.598 -2.5 -3.371 -2.5 -0.772 0 -2.141 -1.125 -3.042 -2.5 -2.254 -3.44 -3.728 -3.136 -3.172 0.654 0.418 2.849 0.332 2.976 -0.887 1.309 -0.742 -1.015 -1.349 -3.308 -1.349 -5.095 0 -1.787 -0.478 -3.545 -1.062 -3.906 -0.584 -0.361 -1.473 -1.737 -1.975 -3.059 c -0.502 -1.322 -1.628 -2.403 -2.502 -2.403 c -1.164 0 -1.505 -0.79 -1.275 -2.956 0.454 -4.274 -1.459 -3.89 -3.03 0.609 -1.747 5.01 -0.865 16.464 1.81 23.505 2.639 6.944 0.926 9.09 -1.933 2.424 c -1.119 -2.611 -2.035 -5.216 -2.035 -5.787 c 0 -0.667 -0.496 -0.628 -1.383 0.108 -1.527 1.268 -2.617 -0.392 -2.617 -3.985 0 -2.398 -1.538 -2.5 -2.531 -0.168 -0.642 1.509 -0.849 1.406 -1.507 -0.75 -2 -6.572 0.531 -21.516 3.46 -20.392 2.371 0.91 6.358 -9.157 6.38 -16.11 0.016 -5.3 0.908 -8.677 4.684 -17.75 0.964 -2.317 -2.132 -2.38 -4.657 -0.095 -1.01 0.91 -1.829 1.159 -1.829 0.553 0 -0.606 2.475 -2.744 5.5 -4.752 3.03 -2.01 5.5 -4.244 5.5 -4.969 0 -1.913 11.436 -10.269 19 -13.882 c 6.159 -2.942 7.133 -3.105 18.552 -3.105 c 11.912 0 12.14 0.043 19.645 3.753 25.53 12.618 33.702 45.06 17.15 68.09 -1.918 2.67 -3.266 5.372 -2.996 6.01 0.27 0.633 6.438 8.351 13.706 17.15 22.1 26.763 20.94 25.07 20.94 30.39 0 2.591 -0.54 5.25 -1.2 5.91 -1.748 1.748 -5.533 1.468 -7.55 -0.559 z m -60.08 -48.845 c -0.51 -2.941 -3.056 -6.396 -4.713 -6.396 c -1.131 0 -1.329 0.67 -0.811 2.75 0.617 2.479 0.521 2.615 -0.981 1.378 -0.916 -0.755 -1.669 -2.33 -1.672 -3.5 -0.003 -1.17 -0.678 -3.417 -1.5 -4.992 -2.172 -4.164 -1.829 -4.551 1.01 -1.136 2.338 2.816 2.576 2.891 3.88 1.216 1.281 -1.645 1.613 -1.411 4.254 3 1.576 2.631 3.164 5.508 3.53 6.392 1.453 3.513 10.964 2.728 13.33 -1.101 1.093 -1.768 -0.52 -3.232 -2.109 -1.913 -1.754 1.456 -0.949 2.316 -8.753 -9.357 -3.766 -5.632 -5.719 -9.319 -4.63 -8.735 1.037 0.555 2.149 1.435 2.471 1.957 0.322 0.521 1.974 1.937 3.671 3.145 3.01 2.142 3.058 2.146 1.982 0.135 -1.814 -3.39 -9.27 -9.322 -14.906 -11.861 -6.173 -2.78 -6.902 -2.903 -5.221 -0.878 1.062 1.279 0.781 1.5 -1.911 1.5 -4.5 0 -12.693 4.388 -13.446 7.201 -1.288 4.809 -0.675 11.538 1.271 13.938 2.671 3.295 3.706 1.627 2.285 -3.686 -1.792 -6.701 -1.515 -8.111 2.146 -10.903 6.195 -4.725 13.505 -3.049 20.05 4.596 4.349 5.081 4.084 6.09 -0.5 1.904 -3.395 -3.101 -4.894 -3.762 -4.894 -2.16 0 0.49 -2.25 0.73 -5 0.533 -3.791 -0.271 -5 -0.018 -5 1.045 0 2.544 2.09 6.992 4.479 9.532 1.293 1.375 2.502 3.625 2.686 5 0.262 1.956 0.914 2.5 2.996 2.5 1.464 0 3.01 0.347 3.438 0.771 1.311 1.302 2.92 0.129 2.572 -1.875 z m -16.607 -6.472 c -1.251 -2.884 -1.492 -3.059 -1.525 -1.109 -0.045 2.656 2.115 7.22 2.654 5.606 0.197 -0.59 -0.311 -2.614 -1.128 -4.497 z m 37.12 1.192 c 0.334 -1.278 1.11 -1.722 2.412 -1.382 2.419 0.632 4.908 -1.371 4.908 -3.95 0 -1.084 0.84 -2.191 1.867 -2.459 1.825 -0.477 4.433 -4.287 7.753 -11.325 5.883 -12.468 0.142 -33.15 -11.972 -43.14 -5.325 -4.389 -14.247 -8.146 -19.03 -8.01 -16.1 0.449 -19.626 1.065 -25.395 4.436 -3.841 2.245 -5.725 3.982 -5.725 5.28 0 1.253 -1.496 2.734 -4.25 4.204 -2.338 1.248 -4.25 2.984 -4.25 3.857 0 1.123 0.513 1.375 1.75 0.861 12.611 -5.24 26.314 -4.535 39.26 2.02 2.48 1.256 5.63 3.219 7 4.362 1.491 1.244 -0.72 0.482 -5.51 -1.899 -10.02 -4.981 -19.441 -6.612 -28.598 -4.952 -8.961 1.625 -17.902 6.393 -17.902 9.545 0 0.783 2.6 -0.081 6.926 -2.3 12.155 -6.236 25.561 -5.568 39.07 1.948 6.073 3.378 15 10.456 15 11.894 0 0.505 -2.497 -1.115 -5.548 -3.601 -9.977 -8.126 -19.19 -11.713 -29.877 -11.625 -9.871 0.081 -25.639 6.598 -27.1 11.2 -1.129 3.558 0.274 3.313 5.04 -0.88 5.544 -4.88 11.924 -7.223 19.416 -7.128 7.798 0.098 11.402 1.766 4.02 1.859 -4.354 0.055 -7.377 0.95 -14 4.142 -9.589 4.623 -13.947 8.252 -13.947 11.615 0 3.223 1.123 2.87 3.744 -1.176 3.212 -4.959 9.393 -7.891 16.771 -7.957 4.824 -0.043 7.314 0.585 12.573 3.172 3.607 1.774 7.412 4.169 8.455 5.322 l 1.898 2.097 l -5.35 -2.109 c -5.801 -2.287 -8.03 -2.096 -3.433 0.293 8.456 4.391 17.584 14.753 19.917 22.609 1.544 5.199 3.235 6.508 4.106 3.179 z m -4.722 -27.683 c -2.452 -2.512 -7.097 -6.337 -10.322 -8.5 -6.541 -4.387 -6.657 -4.993 -0.346 -1.809 4.893 2.469 14.269 10.182 15.757 12.963 1.741 3.253 -0.425 2.123 -5.088 -2.654 z m -13.299 -2.856 c -2.112 -1.298 -6.387 -3.142 -9.5 -4.097 c -7.311 -2.244 -8.616 -3.48 -3.675 -3.48 c 4.528 0 10.562 2.694 15.516 6.928 4.196 3.585 2.984 3.922 -2.34 0.65 z m 6.34 -25.689 c -4.675 -2.774 -8.864 -5.395 -9.309 -5.825 -0.445 -0.43 1.58 -0.571 4.5 -0.313 5.151 0.454 10.604 2.788 9.378 4.01 -0.332 0.332 0.842 2.096 2.609 3.92 1.768 1.824 2.788 3.3 2.268 3.282 -0.52 -0.019 -4.771 -2.304 -9.446 -5.078 z m -57.62 53.862 c 0.887 -6.188 2.546 -15.26 3.201 -17.5 0.485 -1.66 0.244 -2.25 -0.921 -2.25 -2.197 0 -4.655 8.81 -4.655 16.682 0 6.62 1.575 8.654 2.375 3.069 z m 30.849 -12.52 c 1.488 -1.793 0.145 -2.781 -1.7 -1.25 -1.572 1.305 -2.103 7.099 -0.774 8.449 0.412 0.419 0.899 -0.741 1.082 -2.579 0.182 -1.838 0.809 -3.917 1.393 -4.62 z m -12.224 1.305 c 0 -2.246 5.596 -8.115 9.506 -9.971 1.922 -0.912 3.494 -2.087 3.494 -2.611 0 -1.843 -3.745 -0.922 -8.08 1.987 -5.03 3.38 -6.326 3.182 -2.919 -0.445 2.45 -2.608 7.555 -4.479 12.245 -4.489 3.315 -0.007 3.636 -1.535 0.5 -2.375 -7.221 -1.935 -13.13 0.746 -17.771 8.06 -3.56 5.613 -3.72 7.674 -0.757 9.75 2.775 1.944 3.777 1.968 3.777 0.091 z m -2.349 41.25 c -0.908 -2.045 -1.651 -4.477 -1.651 -5.405 c 0 -1.521 0.172 -1.537 1.75 -0.163 0.963 0.838 2.31 1.322 2.994 1.074 0.684 -0.248 1.697 0.74 2.25 2.196 1.356 3.566 1.302 3.745 -0.913 3.042 -1.337 -0.424 -2.049 -0.066 -2.349 1.183 -0.322 1.339 -0.848 0.852 -2.081 -1.926 z m 9.474 0.593 c -0.66 -1.448 -0.971 -2.863 -0.69 -3.143 0.28 -0.28 0.985 0.74 1.565 2.268 1.372 3.608 0.684 4.296 -0.875 0.875 z m 12.375 1.625 c -0.729 -1.18 0.217 -3 1.559 -3 0.518 0 0.941 0.9 0.941 2 0 2.109 -1.455 2.691 -2.5 1 z m -26.876 -2.539 c -0.965 -2.515 -0.68 -3.164 0.499 -1.136 0.584 1 0.851 2.036 0.593 2.293 -0.257 0.257 -0.749 -0.263 -1.092 -1.157 z m -2.443 -8.309 c -0.726 -2.391 -1.1 -4.567 -0.831 -4.836 0.954 -0.954 2.769 3.825 2.462 6.482 -0.277 2.401 -0.458 2.218 -1.631 -1.647 z m 0.548 -13.757 c -0.401 -0.401 -0.715 -1.667 -0.699 -2.813 0.028 -1.924 0.11 -1.946 1.071 -0.296 1.119 1.922 0.832 4.313 -0.372 3.108 z m -21.496 -10.396 c 0.002 -1.925 0.347 -4.85 0.767 -6.5 0.695 -2.733 0.769 -2.778 0.824 -0.5 0.033 1.375 -0.312 4.3 -0.767 6.5 l -0.827 4 l 0.003 -3.5 z m -3.783 -6.691 c 0.243 -2.855 1.38 -6.905 2.527 -9 1.324 -2.417 1.833 -2.895 1.394 -1.309 -0.381 1.375 -1.518 5.425 -2.527 9 l -1.835 6.5 l 0.441 -5.191 z m -4.376 -2.5 c -0.041 -1.48 -0.524 -2.969 -1.074 -3.309 c -1.809 -1.118 -1.048 -3.606 2.051 -6.704 1.678 -1.678 4.153 -4.673 5.5 -6.655 3.02 -4.449 3.162 -3.457 0.3 2.15 -1.182 2.316 -3.173 7.135 -4.426 10.71 -1.621 4.628 -2.298 5.725 -2.351 3.809 z m 5.765 -23.309 c 1.356 -2.75 8.08 -10.235 8.08 -9 0.002 0.55 -2.038 3.25 -4.532 6 -2.494 2.75 -4.091 4.1 -3.549 3 z m -5.839 -1.304 c 0 -0.442 1.657 -2.355 3.682 -4.25 l 3.682 -3.446 l -3.266 4.25 c -3.269 4.254 -4.098 4.951 -4.098 3.446 z m 1 -8.888 c 0 -0.618 2.164 -3.077 4.808 -5.466 c 2.645 -2.388 5.105 -5.13 5.469 -6.093 0.376 -0.995 1.693 -1.75 3.053 -1.75 c 1.316 0 5.37 -1.35 9.01 -3 3.639 -1.65 7.616 -3 8.838 -3 3.551 0 0.909 1.613 -5.678 3.468 -7.99 2.25 -13.899 5.714 -20.25 11.873 -2.888 2.8 -5.25 4.586 -5.25 3.968 z m 16.483 -7.281 c 0.267 -0.432 1.393 -1.023 2.503 -1.313 1.109 -0.29 1.798 -0.174 1.531 0.259 -0.267 0.432 -1.393 1.023 -2.503 1.313 -1.109 0.29 -1.798 0.174 -1.531 -0.259 z" style="fill:#a60000"/><path d="m 191.83 196.23 c -0.963 -0.975 -9.562 -11.325 -19.11 -23 c -9.548 -11.675 -17.735 -21.23 -18.19 -21.23 c -0.458 0 -2.532 1 -4.608 2.227 -2.076 1.225 -4.759 2.099 -5.962 1.941 -1.203 -0.158 -2.411 0.078 -2.686 0.523 -0.275 0.445 -4.03 0.703 -8.346 0.573 -10.189 -0.306 -10.622 -0.36 -12.08 -1.512 -0.68 -0.536 -2.35 -0.696 -3.71 -0.355 -1.873 0.47 -2.744 0.115 -3.59 -1.466 -0.614 -1.148 -1.709 -1.859 -2.434 -1.581 -0.724 0.278 -2.343 -0.587 -3.598 -1.922 c -1.254 -1.335 -2.826 -2.428 -3.491 -2.428 c -0.666 0 -1.948 -1.125 -2.849 -2.5 -2.121 -3.237 -4.983 -3.412 -4.094 -0.25 0.495 1.761 0.405 1.924 -0.417 0.75 -0.578 -0.825 -1.057 -2.914 -1.066 -4.643 -0.009 -1.86 -0.628 -3.378 -1.515 -3.719 -0.825 -0.317 -1.5 -1.242 -1.5 -2.057 0 -0.815 -0.787 -1.924 -1.75 -2.465 -0.998 -0.561 -1.75 -2.155 -1.75 -3.708 0 -3.707 -2.067 -4.147 -3.321 -0.708 -1.374 3.768 -1.439 0.776 -0.088 -4.088 0.641 -2.307 0.709 -4.137 0.168 -4.5 -1.01 -0.678 -0.862 -9.667 0.201 -12.261 0.372 -0.907 0.211 -1.936 -0.358 -2.288 -0.687 -0.424 -0.542 -1.802 0.432 -4.101 0.806 -1.904 2.165 -5.103 3.02 -7.109 2.01 -4.707 0.659 -6.075 -3.132 -3.182 -2.797 2.134 -2.843 2.138 -1.086 0.105 1.01 -1.168 3.583 -3.334 5.719 -4.814 2.136 -1.48 4.126 -3.456 4.422 -4.39 0.747 -2.354 12.139 -10.545 19.18 -13.795 8.329 -3.842 22.347 -4.436 31.648 -1.341 20.18 6.716 32.888 25.504 31.444 46.49 -0.605 8.787 -3.516 17.11 -8.323 23.805 -2.981 4.149 -3.477 5.465 -2.595 6.878 0.6 0.961 8.533 10.806 17.628 21.877 16.228 19.754 16.537 20.22 16.537 24.873 0 2.608 -0.54 5.282 -1.2 5.942 -1.753 1.753 -5.537 1.466 -7.55 -0.572 z m -59.25 -48.22 c 0 -0.953 -1.125 -3.39 -2.5 -5.416 -2.759 -4.066 -3.039 -4.942 -1.407 -4.398 0.601 0.2 2.32 2.6 3.821 5.333 2.485 4.526 3.078 4.993 6.657 5.242 3.194 0.222 5.426 -0.628 11.929 -4.54 4.4 -2.647 8.444 -5.808 8.987 -7.02 0.543 -1.215 1.443 -2.222 2 -2.238 1.624 -0.046 7.271 -10.124 8.575 -15.304 1.91 -7.584 0.766 -18.3 -2.756 -25.826 -3.638 -7.775 -7.751 -12.635 -14.189 -16.766 -8.477 -5.44 -12.3 -6.25 -24.675 -5.231 -10.121 0.833 -11.411 1.185 -17.192 4.679 -4 2.419 -6.25 4.434 -6.25 5.602 0 1.011 -1.323 2.509 -2.97 3.36 -1.634 0.845 -3.483 2.493 -4.109 3.663 -1.037 1.937 -0.928 2.073 1.22 1.527 13.304 -3.385 16.84 -3.899 21.453 -3.113 4.885 0.831 4.869 0.837 -3.811 1.483 -6.954 0.517 -10.04 1.299 -15.248 3.864 -5.956 2.932 -9.561 6.4 -8.134 7.827 0.31 0.31 3.159 -0.817 6.331 -2.503 7.136 -3.793 16.13 -5.544 22.268 -4.336 l 4.5 0.885 l -5.569 0.11 c -12.882 0.253 -28.932 7.9 -28.932 13.784 0 3.194 1.034 2.928 5.05 -1.296 4.245 -4.462 10.203 -7.327 15.297 -7.356 3.628 -0.021 3.253 0.281 -6.497 5.228 -10.718 5.438 -14.883 9.626 -13.405 13.478 0.532 1.385 1.378 0.846 4.612 -2.937 4.955 -5.797 10.761 -8.219 18.218 -7.601 4.951 0.411 15.427 4.438 14.348 5.517 -0.263 0.263 -4.184 -0.689 -8.713 -2.114 c -4.53 -1.426 -8.921 -2.592 -9.759 -2.592 c -3.696 0 -10.18 4.323 -13.1 8.736 -3.399 5.131 -3.85 8.357 -1.448 10.351 0.882 0.732 2.071 2.475 2.641 3.872 1.018 2.495 1.053 2.469 1.929 -1.442 1.413 -6.309 3.198 -7 2.44 -0.947 -0.725 5.794 0.708 10.996 3.431 12.453 2.882 1.542 3.308 -0.494 1.385 -6.608 -1.308 -4.159 -1.451 -5.794 -0.582 -6.663 0.869 -0.869 1.159 -0.551 1.179 1.298 0.015 1.347 1.045 5.375 2.29 8.95 1.808 5.193 2.727 6.567 4.567 6.832 1.93 0.278 2.197 -0.004 1.644 -1.744 -0.506 -1.595 -0.305 -1.94 0.869 -1.489 0.84 0.322 1.799 1.442 2.131 2.488 1.023 3.223 2.969 4.434 7.307 4.548 3.327 0.087 4.166 -0.24 4.166 -1.623 z m 8.204 -9.761 c -1.19 -2.063 -3.16 -5.28 -4.377 -7.149 l -2.213 -3.399 l 2.59 1.697 c 3.142 2.059 7.796 8.569 7.796 10.906 0 2.757 -1.483 1.954 -3.796 -2.054 z m -26.316 -2.75 c -3.135 -5.125 -0.484 -10.19 4.659 -8.899 2.323 0.583 2.678 0.426 2.149 -0.951 -1.052 -2.741 1.98 -1.931 5.538 1.481 1.796 1.722 2.509 2.592 1.584 1.934 -1.205 -0.857 -2.686 -0.919 -5.226 -0.218 -1.949 0.538 -4.425 0.748 -5.502 0.467 -1.659 -0.434 -2.01 0.075 -2.274 3.337 -0.174 2.117 -0.592 3.399 -0.928 2.849 z m 24.06 -9.06 c -1.895 -1.961 -5.436 -4.886 -7.868 -6.5 c -2.432 -1.614 -3.968 -2.935 -3.413 -2.935 c 1.75 0 11.963 7.784 13.709 10.449 2.271 3.466 1.653 3.208 -2.428 -1.013 z m -30.946 -4.884 c 0 -0.275 1.35 -1.198 3 -2.051 1.65 -0.853 3 -1.326 3 -1.051 0 0.275 -1.35 1.198 -3 2.051 -1.65 0.853 -3 1.326 -3 1.051 z m -2.278 -4.625 c 1.222 -1.273 2.474 -2.063 2.781 -1.756 0.307 0.307 -0.693 1.349 -2.222 2.315 l -2.781 1.756 l 2.222 -2.315 z m 41.584 -3.341 c -1.543 -1.328 -2.548 -2.674 -2.233 -2.99 0.315 -0.316 1.862 0.771 3.437 2.415 3.442 3.593 2.709 3.943 -1.204 0.575 z m -19.998 -5.948 c -6.465 -2.725 -7.91 -4.099 -3.308 -3.146 3.224 0.668 10 4.117 10 5.091 0 0.707 -1.296 0.33 -6.692 -1.944 z m 11.192 -24.11 l -4 -2.464 l 3.5 -0.023 c 2.767 -0.019 3.742 0.499 4.656 2.469 1.44 3.106 0.861 3.108 -4.156 0.018 z m -28.876 87.94 c -0.965 -2.515 -0.68 -3.164 0.499 -1.136 0.584 1 0.851 2.036 0.593 2.293 -0.257 0.257 -0.749 -0.263 -1.092 -1.157 z m 12.376 -0.52 c 0 -1.132 0.45 -1.781 1 -1.441 0.55 0.34 1 1.266 1 2.059 0 0.793 -0.45 1.441 -1 1.441 -0.55 0 -1 -0.927 -1 -2.059 z m -23.02 -2.508 c -1.148 -3.48 -0.576 -6.02 0.841 -3.726 0.391 0.632 1.604 1.069 2.696 0.971 1.477 -0.132 2.066 0.525 2.301 2.566 0.247 2.147 -0.025 2.613 -1.25 2.143 -0.861 -0.33 -1.566 -0.103 -1.566 0.506 0 2.449 -1.917 0.888 -3.02 -2.46 z m -12.178 -10.52 c -0.859 -1.973 -1.881 -4.593 -2.271 -5.822 -0.425 -1.339 -1.26 -2.024 -2.082 -1.708 -0.94 0.361 -1.577 -0.563 -2.02 -2.928 -0.734 -3.915 -1.179 -4.173 -2.97 -1.725 -1.104 1.51 -1.355 1.129 -1.974 -3 -1 -6.697 1.309 -16.03 4.02 -16.217 1.883 -0.13 1.98 0.376 1.651 8.677 -0.214 5.401 0.035 8.815 0.643 8.815 1.435 0 2.187 -2.509 2.346 -7.832 0.088 -2.954 0.429 -1.392 0.929 4.252 0.434 4.906 1.531 10.861 2.437 13.234 2.143 5.611 1.52 9.371 -0.706 4.259 z m 4.784 1.444 c -0.837 -2.182 0.274 -3.196 1.456 -1.328 1.183 1.87 1.208 2.971 0.068 2.971 -0.491 0 -1.177 -0.739 -1.524 -1.643 z m -20.505 -22.94 c 0.048 -1.165 0.285 -1.402 0.604 -0.604 0.289 0.722 0.253 1.584 -0.079 1.917 -0.332 0.332 -0.569 -0.258 -0.525 -1.313 z m -4 -3.985 c -0.097 -2.621 3.081 -13.274 3.559 -11.932 0.196 0.55 -0.507 3.925 -1.563 7.5 -1.056 3.575 -1.954 5.569 -1.996 4.432 z m 5 -2.01 c 0.048 -1.165 0.285 -1.402 0.604 -0.604 0.289 0.722 0.253 1.584 -0.079 1.917 -0.332 0.332 -0.569 -0.258 -0.525 -1.313 z m -9.01 -3.108 c -0.037 -1.205 -0.518 -2.469 -1.068 -2.809 c -1.828 -1.13 -1.037 -3.53 2.25 -6.826 1.788 -1.792 4.063 -4.365 5.056 -5.717 2.039 -2.775 1.866 -2.099 -1.801 7.04 -4.383 10.927 -4.358 10.879 -4.438 8.309 z m 5.829 -22.809 c 1.536 -2.831 7.111 -9.119 7.06 -7.962 c -0.023 0.529 -1.866 2.987 -4.094 5.462 c -2.228 2.475 -3.563 3.6 -2.966 2.5 z m -5.897 -1.313 c 0 -0.447 1.425 -2.135 3.166 -3.75 l 3.166 -2.937 l -2.784 3.75 c -2.824 3.803 -3.547 4.402 -3.547 2.937 z m 6.25 -14.623 c 3.162 -2.966 5.75 -5.881 5.75 -6.478 0 -0.597 1.237 -1.066 2.75 -1.041 l 2.75 0.045 l -2.37 1.705 c -1.304 0.938 -4.722 3.843 -7.597 6.455 -2.875 2.612 -5.633 4.74 -6.13 4.728 -0.497 -0.012 1.684 -2.449 4.847 -5.414 z m 14.75 -9.194 c 0 -0.242 2.062 -1.325 4.583 -2.405 4.782 -2.05 9.561 -2.684 7.867 -1.045 -1.037 1 -12.45 4.166 -12.45 3.45 z" style="fill:#a90000"/><path d="m 188.4 190.8 c -2.992 -3.467 -11.443 -13.656 -18.78 -22.642 -7.337 -8.986 -13.95 -16.572 -14.696 -16.858 -0.745 -0.286 -3.417 0.449 -5.938 1.634 -2.52 1.185 -7.499 2.426 -11.06 2.759 -7.551 0.705 -22.852 -1.394 -24.483 -3.36 c -0.61 -0.735 -1.66 -1.337 -2.332 -1.337 c -0.672 0 -2.037 -0.9 -3.03 -2 -0.995 -1.1 -2.265 -2 -2.82 -2 -1.623 0 -10.812 -10.24 -11.89 -13.25 -0.542 -1.512 -1.391 -2.75 -1.887 -2.75 -0.496 0 -0.902 -0.977 -0.902 -2.171 0 -1.194 -0.735 -2.983 -1.633 -3.975 -1.24 -1.371 -1.697 -4.253 -1.903 -11.998 -0.148 -5.607 0.076 -10.906 0.499 -11.775 1.346 -2.769 3.249 -8.489 3.762 -11.312 0.813 -4.471 12.441 -15.248 21.04 -19.496 6.658 -3.29 8.487 -3.735 16.885 -4.102 14.926 -0.653 24.858 3.035 34.34 12.752 9.491 9.725 13.7 21.299 12.742 35.04 -0.617 8.846 -2.577 14.361 -7.955 22.381 -2.155 3.214 -3.715 6.372 -3.467 7.02 0.248 0.647 8.176 10.582 17.618 22.08 l 17.17 20.901 l -0.296 5.08 c -0.271 4.646 -0.52 5.106 -2.915 5.383 -2.14 0.248 -3.613 -0.849 -8.06 -6 z m -42.02 -42.608 c 11.893 -5.781 16.865 -10.601 22.863 -22.16 2.558 -4.93 2.829 -6.418 2.829 -15.543 0 -9.652 -0.164 -10.423 -3.766 -17.714 -4.294 -8.693 -10.719 -15.16 -19.18 -19.295 -10.616 -5.194 -27.328 -4.219 -37.727 2.2 -3.275 2.02 -6.44 4.607 -7.03 5.745 -0.594 1.139 -2.461 3.244 -4.15 4.678 -1.871 1.589 -3.115 3.632 -3.185 5.228 -0.063 1.441 -0.966 3.561 -2.01 4.71 c -1.938 2.142 -2.389 4.635 -2.882 15.954 c -0.182 4.168 0.202 7.295 1.07 8.715 0.744 1.218 1.353 3.286 1.353 4.595 0 1.309 0.86 3.158 1.91 4.109 1.051 0.951 2.184 2.82 2.519 4.155 0.335 1.335 1.2 2.426 1.922 2.426 0.722 0 2.401 1.681 3.731 3.736 1.33 2.055 3.316 3.909 4.413 4.121 1.097 0.211 3.07 1.23 4.385 2.264 1.314 1.034 3.368 1.879 4.563 1.879 1.196 0 3.048 0.662 4.115 1.471 2.733 2.071 19.14 1.208 24.25 -1.275 z m -44.808 -42.611 c 0 -0.873 6.139 -3.779 6.732 -3.186 0.3 0.3 -0.706 1.022 -2.237 1.604 -1.531 0.582 -3.168 1.296 -3.639 1.587 -0.471 0.291 -0.856 0.289 -0.856 -0.004 z m -39 16.03 c 0 -0.825 0.45 -1.778 1 -2.118 0.55 -0.34 1 0.057 1 0.882 0 0.825 -0.45 1.778 -1 2.118 -0.55 0.34 -1 -0.057 -1 -0.882 z" style="fill:#5b0000"/></g></svg>