<svg xmlns="http://www.w3.org/2000/svg" viewBox="0 0 256 256"><defs><clipPath><path transform="matrix(15.33333 0 0 11.5 415 -125.5)" d="m -24 13 c 0 1.105 -0.672 2 -1.5 2 -0.828 0 -1.5 -0.895 -1.5 -2 0 -1.105 0.672 -2 1.5 -2 0.828 0 1.5 0.895 1.5 2 z"/></clipPath></defs><g transform="translate(-0.004 0.55)"><g transform="matrix(1.71111 0 0 1.6629 -51.12 -634.24)" style="fill:#ff4500"><path d="m 84 456.36 v 30 c 0 18 3 18 30 18 h 6 c 27 0 30 0 30 -18 v -30 c 0 -18 -3 -18 -30 -18 h -6 c -27 0 -30 0 -30 18 z m 30 -12 h 6 c 24 0 24 0 24 12 v 21 c 0 12 0 12 -24 12 h -6 c -24 0 -24 0 -24 -12 v -21 c 0 -12 0 -12 24 -12 z"/><path d="m 96,477.91 v -11.636 l 10.5,-10.909 13.13,13.636 5.25,-5.454 13.13,13.636 v 0.727 c 0,5.455 -0.875,5.455 -10.5,5.455 h -21 c -9.625,0 -10.5,0 -10.5,-5.455 z"/><path transform="matrix(1.3333 0 0 1.3333 34 410.36)" d="m 78 34.5 a 4.5 4.5 0 1 1 -9 0 4.5 4.5 0 1 1 9 0 z" style="color:#000"/><path d="M 42,12 C 15,12 12,12 12,30 v 30 c 0,9.758 0.891,14.235 6,16.281 V 51 36 30 C 18,19.134 18.181,18.128 36,18.031 V 18 h 6 6 28.531 C 73.886,12.002 66.718,12 48,12 h -6 z" transform="translate(60 414.36)"/><path d="m 90,414.36 c -27,0 -30,0 -30,18 v 30 c 0,9.758 0.891,14.235 6,16.281 v -25.281 -15 -6 c 0,-10.866 0.181,-11.872 18,-11.969 v -0.031 h 6 6 28.531 c -2.646,-5.998 -9.813,-6 -28.531,-6 h -6 z"/></g><g transform="translate(1.085 -795.28)"><path d="m 36.434 841.35 c 265.25 -200.11 302.94 350.59 32.17 173.86 -61.728 -40.29 -102.43 -120.86 -32.17 -173.86 z" style="fill:#fff;color:#000"/><path d="m 171.25 974.86 c -8.684 -4.74 -19.17 -7.145 -26.71 -6.127 -4.552 0.616 -5.678 0.138 -10.07 -4.275 -16.785 -16.874 -15.585 -50.8 2.182 -61.66 3.667 -2.241 8.71 -6.385 11.207 -9.202 2.561 -2.892 5.824 -4.893 7.48 -4.586 4.04 0.748 8.09 -4.889 7.672 -10.686 -0.528 -7.417 2.377 -10.767 15.15 -17.447 6.512 -3.408 12.04 -7.46 12.33 -9.04 0.507 -2.738 -0.085 -2.938 -13.293 -4.462 -39.06 -4.507 -54.01 -1.998 -77.05 12.921 -13.493 8.738 -17.77 10.589 -29.684 12.867 -12.326 2.359 -14.01 3.119 -14.658 6.638 -0.729 3.933 -0.639 3.99 8.981 5.311 l 9.717 1.337 l -1.143 11.05 c -0.909 8.778 -0.254 13.07 3.185 20.859 5.858 13.276 9.815 18.14 32.408 39.872 13.386 12.87 19.257 19.597 18.904 21.659 -0.74 4.331 3.791 14.546 8.374 18.882 5.219 4.931 11.533 7.497 15.14 6.152 2.464 -0.917 2.646 -1.974 1.221 -7.092 -3.341 -11.997 -1.282 -13.581 18.31 -14.12 9.161 -0.25 9.305 -3.95 0.345 -8.84 z" style="fill:#ff4500"/></g></g></svg>