<svg xmlns="http://www.w3.org/2000/svg" viewBox="0 0 256 256"><g transform="translate(0 -796.36)"><path d="m 59.778 1025.68 c 95.24 84.46 241.79 -48.767 182.53 -160.27 -59.906 -112.74 -258.16 -82.69 -241.3 55.767 c 5.02 41.2 27.695 76.954 58.764 104.51 z" style="fill:#fff;color:#000"/><g style="fill-rule:evenodd"><path d="m 212.31 120.24 a 61.755 72.47 0 1 1 -123.51 0 61.755 72.47 0 1 1 123.51 0 z" transform="matrix(1.27956 0 0 1.08328 -61.48 785.33)" style="fill:#ffdead;stroke:#ffdead"/><g transform="translate(0 796.36)" style="fill:#ff4500"><path d="m 154.33 112.34 c 0 -0.774 0.141 -1.407 0.313 -1.407 0.172 0 0.313 -0.211 0.313 -0.469 0 -0.258 -0.141 -0.469 -0.313 -0.469 -0.176 0 -0.313 -0.886 -0.313 -2.032 0 -1.146 0.136 -2.032 0.313 -2.032 0.172 0 0.313 -0.211 0.313 -0.469 0 -0.258 0.206 -0.469 0.458 -0.469 0.314 0 0.524 -0.493 0.666 -1.563 0.194 -1.465 0.264 -1.563 1.105 -1.563 0.789 0 0.898 -0.114 0.898 -0.938 0 -0.73 0.139 -0.938 0.625 -0.938 0.347 0 0.625 -0.208 0.625 -0.469 0 -0.445 0.858 -0.629 2.267 -0.485 0.311 0.032 0.547 -0.155 0.547 -0.433 0 -0.438 2.185 -0.489 21.18 -0.493 11.651 -0.002 21.501 -0.089 21.888 -0.193 0.635 -0.17 0.704 -0.078 0.704 0.942 0 0.922 0.115 1.131 0.625 1.131 0.542 0 0.625 0.208 0.625 1.563 0 1.181 0.115 1.563 0.469 1.563 0.392 0 0.469 0.643 0.469 3.908 v 3.909 h -26.421 h -26.421 v 1.407 c 0 1.042 -0.122 1.407 -0.469 1.407 -0.347 0 -0.469 -0.365 -0.469 -1.407 z"/><path d="m 183.64 122.91 c -0.301 -0.079 -0.547 -0.344 -0.547 -0.589 0 -0.245 -0.211 -0.446 -0.469 -0.446 -0.258 0 -0.469 -0.211 -0.469 -0.469 0 -0.313 -0.313 -0.469 -0.938 -0.469 -0.625 0 -0.938 0.156 -0.938 0.469 0 0.261 -0.278 0.469 -0.625 0.469 -0.347 0 -0.625 -0.208 -0.625 -0.469 0 -0.258 -0.211 -0.469 -0.469 -0.469 -0.258 0 -0.469 -0.211 -0.469 -0.469 0 -0.258 -0.211 -0.469 -0.469 -0.469 -0.258 0 -0.469 -0.211 -0.469 -0.469 0 -0.258 -0.2 -0.469 -0.443 -0.469 -0.244 0 -0.674 -0.089 -0.957 -0.197 -0.355 -0.136 -0.567 0.008 -0.687 0.469 -0.144 0.552 -0.409 0.666 -1.545 0.666 -1.01 0 -1.371 0.123 -1.371 0.469 0 0.399 -0.816 0.469 -5.472 0.469 -4.655 0 -5.472 -0.07 -5.472 -0.469 0 -0.261 -0.278 -0.469 -0.625 -0.469 -0.352 0 -0.625 -0.208 -0.625 -0.477 0 -0.28 -0.388 -0.554 -0.938 -0.664 -0.516 -0.103 -0.938 -0.381 -0.938 -0.618 0 -0.236 -0.211 -0.43 -0.469 -0.43 -0.313 0 -0.469 -0.313 -0.469 -0.938 0 -0.625 -0.156 -0.938 -0.469 -0.938 -0.258 0 -0.469 -0.211 -0.469 -0.469 0 -0.258 -0.211 -0.469 -0.469 -0.469 -0.369 0 -0.469 -0.434 -0.469 -2.032 v -2.032 h 26.421 c 23.277 0 26.421 -0.056 26.421 -0.469 0 -0.258 0.211 -0.469 0.469 -0.469 0.402 0 0.469 0.938 0.469 6.566 v 6.566 l -12.429 -0.036 c -6.836 -0.02 -12.675 -0.101 -12.976 -0.179 z"/><path d="m 207.17 132.82 v -0.938 h -10.01 c -8.686 0 -10.01 -0.062 -10.01 -0.469 0 -0.258 -0.211 -0.469 -0.469 -0.469 -0.258 0 -0.469 0.211 -0.469 0.469 0 0.258 -0.211 0.469 -0.469 0.469 -0.258 0 -0.469 -0.211 -0.469 -0.469 0 -0.261 -0.278 -0.469 -0.625 -0.469 -0.561 0 -0.625 -0.208 -0.625 -2.032 0 -1.598 -0.1 -2.032 -0.469 -2.032 -0.313 0 -0.469 -0.313 -0.469 -0.938 0 -0.625 0.156 -0.938 0.469 -0.938 0.258 0 0.469 -0.211 0.469 -0.469 0 -0.258 -0.211 -0.469 -0.469 -0.469 -0.258 0 -0.469 -0.246 -0.469 -0.547 0 -0.514 0.794 -0.542 12.976 -0.462 l 12.976 0.085 v 1.869 c 0 1.453 -0.104 1.869 -0.469 1.869 -0.388 0 -0.469 0.591 -0.469 3.439 0 2.849 -0.081 3.439 -0.469 3.439 -0.313 0 -0.469 -0.313 -0.469 -0.938 z"/><path d="m 188.1 140.32 c 0 -1.181 -0.115 -1.563 -0.469 -1.563 -0.369 0 -0.469 -0.434 -0.469 -2.032 0 -1.511 -0.11 -2.032 -0.428 -2.032 -0.554 0 -0.912 -2.486 -0.441 -3.054 0.237 -0.286 0.441 -0.312 0.668 -0.086 0.212 0.212 3.788 0.326 10.269 0.326 h 9.943 v 0.915 c 0 0.609 0.183 0.963 0.547 1.058 0.521 0.136 0.521 0.145 0 0.179 -0.435 0.029 -0.547 0.326 -0.547 1.443 0 0.99 -0.128 1.407 -0.433 1.407 -0.448 0 -0.806 0.914 -0.814 2.074 -0.003 0.425 -0.259 0.735 -0.708 0.856 -0.387 0.104 -4.186 0.19 -8.442 0.193 l -7.739 0.004 v 0.938 c 0 0.625 -0.156 0.938 -0.469 0.938 -0.354 0 -0.469 -0.382 -0.469 -1.563 z"/><path d="m 188.1 151.89 c 0 -0.625 -0.156 -0.938 -0.469 -0.938 -0.378 0 -0.469 -0.486 -0.469 -2.501 v -2.501 h 0.938 c 0.864 0 0.938 -0.087 0.938 -1.094 0 -0.764 -0.141 -1.094 -0.469 -1.094 -0.313 0 -0.469 -0.313 -0.469 -0.938 0 -0.625 0.156 -0.938 0.469 -0.938 0.312 0 0.469 -0.312 0.469 -0.928 v -0.928 l 8.443 -0.088 c 7.707 -0.08 8.443 -0.043 8.442 0.433 0 0.287 -0.155 0.573 -0.344 0.636 -0.189 0.063 -0.418 0.778 -0.51 1.589 -0.108 0.959 -0.316 1.475 -0.595 1.475 -0.267 0 -0.428 0.352 -0.428 0.938 0 0.625 -0.156 0.938 -0.469 0.938 -0.328 0 -0.469 0.33 -0.469 1.094 0 0.764 -0.141 1.094 -0.469 1.094 -0.347 0 -0.469 0.365 -0.469 1.407 0 1.199 -0.093 1.407 -0.625 1.407 -0.486 0 -0.625 0.208 -0.625 0.938 0 0.625 -0.156 0.938 -0.469 0.938 -0.258 0 -0.469 -0.211 -0.469 -0.469 0 -0.399 -0.816 -0.469 -5.472 -0.469 -4.655 0 -5.472 0.07 -5.472 0.469 0 0.258 -0.211 0.469 -0.469 0.469 -0.313 0 -0.469 -0.313 -0.469 -0.938 z"/><path d="m 194.04 161.9 c 0 -0.834 -0.104 -0.938 -0.938 -0.938 -0.625 0 -0.938 0.156 -0.938 0.469 0 0.261 -0.278 0.469 -0.625 0.469 -0.347 0 -0.625 -0.208 -0.625 -0.469 0 -0.258 -0.141 -0.469 -0.313 -0.469 -0.172 0 -0.313 -0.411 -0.313 -0.912 0 -1.228 -0.289 -1.902 -0.815 -1.902 -0.336 0 -0.436 -0.572 -0.436 -2.501 0 -2.173 -0.072 -2.502 -0.547 -2.503 -0.358 -0.001 -0.225 -0.17 0.384 -0.487 0.724 -0.377 2 -0.485 5.73 -0.485 2.863 0 4.957 0.131 5.191 0.325 0.51 0.424 0.252 2.213 -0.319 2.213 -0.287 0 -0.434 0.37 -0.434 1.094 0 0.764 -0.141 1.094 -0.469 1.094 -0.261 0 -0.469 0.278 -0.469 0.625 0 0.347 -0.208 0.625 -0.469 0.625 -0.292 0 -0.469 0.295 -0.469 0.782 0 0.573 -0.167 0.782 -0.625 0.782 -0.506 0 -0.625 0.208 -0.625 1.094 0 0.764 -0.141 1.094 -0.469 1.094 -0.258 0 -0.469 0.211 -0.469 0.469 0 0.258 -0.211 0.469 -0.469 0.469 -0.313 0 -0.469 -0.313 -0.469 -0.938 z"/><path d="m 161.21 98.46 c 0 -0.19 0.211 -0.346 0.469 -0.346 0.354 0 0.469 -0.382 0.469 -1.563 0 -1.181 0.115 -1.563 0.469 -1.563 0.313 0 0.469 -0.313 0.469 -0.938 0 -0.864 0.087 -0.938 1.094 -0.938 0.886 0 1.094 -0.119 1.094 -0.625 0 -0.581 0.208 -0.625 2.97 -0.625 2.432 0 2.97 -0.085 2.97 -0.469 0 -0.354 0.382 -0.469 1.563 -0.469 1.181 0 1.563 -0.115 1.563 -0.469 0 -0.258 0.13 -0.469 0.29 -0.469 0.159 0 0.354 -0.246 0.433 -0.547 0.136 -0.521 0.145 -0.521 0.179 0 0.032 0.49 0.445 0.547 3.945 0.547 3.266 0 3.909 0.077 3.909 0.469 0 0.258 -0.211 0.469 -0.469 0.469 -0.328 0 -0.469 0.33 -0.469 1.094 0 1 0.078 1.094 0.912 1.094 0.502 0 0.964 0.155 1.026 0.343 0.063 0.189 0.778 0.418 1.589 0.51 0.959 0.108 1.475 0.316 1.475 0.595 0 0.267 0.352 0.428 0.938 0.428 0.625 0 0.938 0.156 0.938 0.469 0 0.354 0.382 0.469 1.563 0.469 1.181 0 1.563 0.115 1.563 0.469 0 0.313 0.313 0.469 0.938 0.469 0.625 0 0.938 -0.156 0.938 -0.469 0 -0.261 0.278 -0.469 0.625 -0.469 0.486 0 0.625 -0.208 0.625 -0.938 0 -0.903 0.052 -0.938 1.407 -0.938 1.042 0 1.407 0.122 1.407 0.469 0 0.258 0.211 0.469 0.469 0.469 0.258 0 0.469 0.211 0.469 0.469 0 0.258 0.211 0.469 0.469 0.469 0.258 0 0.469 -0.211 0.469 -0.469 0 -0.258 0.211 -0.469 0.469 -0.469 0.566 0 0.628 -0.822 0.078 -1.044 -0.221 -0.089 -0.139 -0.168 0.19 -0.182 0.474 -0.02 0.542 -0.183 0.368 -0.885 -0.117 -0.473 -0.344 -0.907 -0.503 -0.964 -0.159 -0.057 -0.29 -0.304 -0.29 -0.547 0 -0.244 -0.281 -0.443 -0.625 -0.443 -0.347 0 -0.625 -0.208 -0.625 -0.469 0 -0.354 0.382 -0.469 1.563 -0.469 1.529 0 1.563 -0.021 1.563 -0.938 0 -0.625 0.156 -0.938 0.469 -0.938 0.347 0 0.469 0.365 0.469 1.407 0 1.042 0.122 1.407 0.469 1.407 0.328 0 0.469 0.33 0.469 1.094 0 0.764 0.141 1.094 0.469 1.094 0.365 0 0.469 0.417 0.469 1.876 0 1.459 0.104 1.876 0.469 1.876 0.258 0 0.469 0.192 0.469 0.427 0 0.354 -3.724 0.476 -21.809 0.713 -11.995 0.157 -22.06 0.402 -22.357 0.544 -0.347 0.164 -0.547 0.132 -0.547 -0.087 z"/><path d="m 166.21 84.35 c 0 -0.344 -0.195 -0.625 -0.433 -0.625 -0.35 0 -0.969 -1.224 -0.728 -1.438 0.036 -0.032 1.649 -0.111 3.583 -0.175 2.691 -0.089 3.518 -0.024 3.518 0.279 0 0.218 -0.281 0.396 -0.625 0.396 -0.347 0 -0.625 0.208 -0.625 0.469 0 0.277 -0.289 0.471 -0.704 0.473 -1.194 0.007 -2.111 0.361 -2.111 0.814 0 0.272 -0.348 0.433 -0.938 0.433 -0.73 0 -0.938 -0.139 -0.938 -0.625 z"/><path d="m 168.09 85.45 c 0 -0.347 0.365 -0.469 1.407 -0.469 1.042 0 1.407 0.122 1.407 0.469 0 0.347 -0.365 0.469 -1.407 0.469 -1.042 0 -1.407 -0.122 -1.407 -0.469 z"/><path d="m 166.21 87.32 c 0 -1.042 0.122 -1.407 0.469 -1.407 0.258 0 0.469 0.211 0.469 0.469 0 0.354 0.382 0.469 1.563 0.469 2.114 0 2.182 0.787 0.088 1.023 -0.811 0.091 -1.526 0.321 -1.589 0.51 -0.063 0.189 -0.314 0.343 -0.557 0.343 -0.317 0 -0.443 -0.402 -0.443 -1.407 z"/><path d="m 194.04 79.82 c 0 -0.764 -0.141 -1.094 -0.469 -1.094 -0.258 0 -0.469 -0.211 -0.469 -0.469 0 -0.258 -0.211 -0.469 -0.469 -0.469 -0.258 0 -0.469 -0.134 -0.469 -0.299 0 -0.164 -0.492 -0.391 -1.094 -0.504 -0.627 -0.118 -1.094 -0.391 -1.094 -0.64 0 -0.239 -0.211 -0.434 -0.469 -0.434 -0.258 0 -0.469 -0.211 -0.469 -0.469 0 -0.313 -0.313 -0.469 -0.938 -0.469 -0.73 0 -0.938 -0.139 -0.938 -0.625 0 -0.389 -0.207 -0.624 -0.547 -0.621 -0.833 0.007 -1.258 0.385 -1.494 1.327 -0.168 0.668 -0.104 0.857 0.288 0.857 0.294 0 0.503 0.259 0.503 0.625 0 0.417 0.208 0.625 0.625 0.625 0.928 0 0.758 0.526 -0.235 0.726 -0.552 0.111 -0.984 0.012 -1.207 -0.276 -0.191 -0.247 -0.508 -0.45 -0.704 -0.45 -0.196 0 -0.356 -0.281 -0.356 -0.625 0 -0.556 -0.208 -0.625 -1.876 -0.625 -1.459 0 -1.876 0.104 -1.876 0.469 0 0.372 -0.452 0.469 -2.189 0.469 h -2.189 v 0.938 c 0 0.834 -0.104 0.938 -0.938 0.938 -0.73 0 -0.938 0.139 -0.938 0.625 0 0.347 -0.208 0.625 -0.469 0.625 -0.313 0 -0.469 -0.313 -0.469 -0.938 0 -0.625 -0.156 -0.938 -0.469 -0.938 -0.328 0 -0.469 -0.33 -0.469 -1.094 0 -0.764 0.141 -1.094 0.469 -1.094 0.258 0 0.469 -0.211 0.469 -0.469 0 -0.261 0.278 -0.469 0.625 -0.469 0.347 0 0.625 -0.208 0.625 -0.469 0 -0.293 0.296 -0.469 0.792 -0.469 0.435 0 0.873 -0.211 0.971 -0.469 0.099 -0.258 0.376 -0.469 0.616 -0.469 0.24 0 0.436 -0.211 0.436 -0.469 0 -0.316 0.316 -0.469 0.967 -0.469 0.704 0 1.012 -0.17 1.131 -0.625 0.132 -0.505 0.427 -0.625 1.534 -0.625 1.314 0 1.371 -0.038 1.371 -0.938 0 -0.834 0.104 -0.938 0.938 -0.938 0.625 0 0.938 -0.156 0.938 -0.469 0 -0.378 0.486 -0.469 2.501 -0.469 2.02 0 2.501 0.091 2.501 0.469 0 0.313 0.313 0.469 0.938 0.469 0.834 0 0.938 0.104 0.938 0.938 0 0.73 0.139 0.938 0.625 0.938 0.417 0 0.625 0.208 0.625 0.625 0 0.347 0.208 0.625 0.469 0.625 0.258 0 0.469 0.211 0.469 0.469 0 0.258 0.211 0.469 0.469 0.469 0.313 0 0.469 0.313 0.469 0.938 0 0.625 0.156 0.938 0.469 0.938 0.258 0 0.469 0.211 0.469 0.469 0 0.258 0.193 0.469 0.43 0.469 0.236 0 0.514 0.422 0.618 0.938 0.11 0.55 0.385 0.938 0.664 0.938 0.268 0 0.477 0.273 0.477 0.625 0 0.347 0.208 0.625 0.469 0.625 0.313 0 0.469 0.313 0.469 0.938 v 0.938 h -2.032 h -2.032 v -1.094 z"/><path d="m 171.6 71.941 c 0.301 -0.079 0.547 -0.344 0.547 -0.589 0 -0.287 0.334 -0.446 0.938 -0.446 0.59 0 0.938 0.16 0.938 0.433 0 0.478 -0.983 0.827 -2.189 0.778 -0.526 -0.022 -0.603 -0.079 -0.235 -0.175 z"/><path d="m 170.92 66.35 c 0.015 -0.364 0.089 -0.438 0.189 -0.189 0.09 0.226 0.079 0.495 -0.025 0.599 -0.104 0.104 -0.178 -0.081 -0.164 -0.41 z"/><path d="m 165.27 69.968 c 0 -0.625 0.156 -0.938 0.469 -0.938 0.258 0 0.469 -0.211 0.469 -0.469 0 -0.313 0.313 -0.469 0.938 -0.469 0.516 0 0.938 0.141 0.938 0.313 0 0.172 -0.211 0.313 -0.469 0.313 -0.328 0 -0.469 0.33 -0.469 1.094 0 1.01 -0.075 1.094 -0.938 1.094 -0.834 0 -0.938 -0.104 -0.938 -0.938 z"/><path d="m 91.17 69.812 c 0 -1.042 -0.052 -1.094 -1.094 -1.094 -0.886 0 -1.094 0.119 -1.094 0.625 0 0.347 -0.208 0.625 -0.469 0.625 -0.258 0 -0.469 -0.211 -0.469 -0.469 0 -0.406 -1.199 -0.469 -8.911 -0.469 -7.713 0 -8.911 -0.063 -8.911 -0.469 0 -0.258 0.211 -0.469 0.469 -0.469 0.258 0 0.469 -0.211 0.469 -0.469 0 -0.258 0.211 -0.469 0.469 -0.469 0.261 0 0.469 -0.278 0.469 -0.625 0 -0.417 0.208 -0.625 0.625 -0.625 0.347 0 0.625 -0.208 0.625 -0.469 0 -0.258 0.211 -0.469 0.469 -0.469 0.258 0 0.469 -0.211 0.469 -0.469 0 -0.258 0.211 -0.469 0.469 -0.469 0.258 0 0.469 -0.211 0.469 -0.469 0 -0.258 0.211 -0.469 0.469 -0.469 0.258 0 0.469 -0.211 0.469 -0.469 0 -0.258 0.211 -0.469 0.469 -0.469 0.261 0 0.469 -0.278 0.469 -0.625 0 -0.417 0.208 -0.625 0.625 -0.625 0.347 0 0.625 -0.208 0.625 -0.469 0 -0.292 0.295 -0.469 0.782 -0.469 0.486 0 0.782 -0.177 0.782 -0.469 0 -0.261 0.278 -0.469 0.625 -0.469 0.347 0 0.625 -0.208 0.625 -0.469 0 -0.258 0.211 -0.469 0.469 -0.469 0.258 0 0.469 -0.211 0.469 -0.469 0 -0.261 0.278 -0.469 0.625 -0.469 0.417 0 0.625 -0.208 0.625 -0.625 0 -0.454 0.208 -0.625 0.759 -0.625 0.46 0 0.815 -0.216 0.902 -0.547 0.136 -0.521 0.145 -0.521 0.179 0 0.033 0.505 0.608 0.547 7.384 0.547 6.323 0 7.348 0.065 7.348 0.469 0 0.258 -0.211 0.469 -0.469 0.469 -0.313 0 -0.469 0.313 -0.469 0.938 0 0.625 -0.156 0.938 -0.469 0.938 -0.261 0 -0.469 0.278 -0.469 0.625 0 0.347 0.208 0.625 0.469 0.625 0.347 0 0.469 0.365 0.469 1.407 0 1.09 -0.114 1.407 -0.508 1.407 -0.405 0 -0.467 0.203 -0.308 1 0.11 0.55 0.326 1.078 0.48 1.174 0.154 0.095 0.328 0.595 0.386 1.11 0.104 0.916 0.149 0.939 2.03 1.029 1.747 0.084 1.942 0.163 2.117 0.86 0.183 0.731 1.119 1.111 1.119 0.455 0 -0.172 0.422 -0.313 0.938 -0.313 0.834 0 0.938 0.104 0.938 0.938 0 0.73 -0.139 0.938 -0.625 0.938 -0.347 0 -0.625 -0.208 -0.625 -0.469 0 -0.402 -0.921 -0.469 -6.41 -0.469 h -6.41 v 0.938 c 0 0.625 -0.156 0.938 -0.469 0.938 -0.328 0 -0.469 -0.33 -0.469 -1.094 z m -0.704 -1.917 c 0.594 -0.159 0.704 -0.402 0.704 -1.559 0 -1.358 -0.01 -1.371 -1.094 -1.371 -0.764 0 -1.094 0.141 -1.094 0.469 0 0.258 -0.141 0.469 -0.313 0.469 -0.172 0 -0.313 0.211 -0.313 0.469 0 0.258 0.141 0.469 0.313 0.469 0.172 0 0.313 0.281 0.313 0.625 0 0.654 0.311 0.743 1.485 0.428 z"/><path d="m 108.99 78.41 c 0 -0.172 -0.633 -0.313 -1.407 -0.313 -1.4 0 -1.407 -0.006 -1.407 -1.094 0 -1.089 -0.007 -1.094 -1.407 -1.094 -1.4 0 -1.407 -0.006 -1.407 -1.094 0 -1.042 -0.052 -1.094 -1.094 -1.094 -0.602 0 -1.094 -0.141 -1.094 -0.313 0 -0.172 -0.18 -0.313 -0.4 -0.313 -0.516 0 -1.477 -1.121 -1.477 -1.723 0 -0.257 -0.28 -0.465 -0.625 -0.465 -0.347 0 -0.625 -0.208 -0.625 -0.469 0 -0.258 -0.211 -0.469 -0.469 -0.469 -0.258 0 -0.469 0.211 -0.469 0.469 0 0.347 -0.365 0.469 -1.407 0.469 -1.042 0 -1.407 0.122 -1.407 0.469 0 0.328 -0.33 0.469 -1.094 0.469 -0.998 0 -1.094 0.08 -1.094 0.902 0 0.671 0.18 0.95 0.704 1.09 1.116 0.299 1.485 0.231 1.485 -0.272 0 -0.258 0.226 -0.469 0.502 -0.469 0.33 0 0.437 0.17 0.313 0.495 -0.104 0.272 -0.19 0.905 -0.19 1.407 0 0.603 -0.159 0.912 -0.469 0.912 -0.258 0 -0.469 -0.211 -0.469 -0.469 0 -0.258 -0.141 -0.469 -0.313 -0.469 -0.172 0 -0.313 0.211 -0.313 0.469 0 0.261 -0.278 0.469 -0.625 0.469 -0.507 0 -0.625 0.208 -0.625 1.1 v 1.1 l -13.914 -0.018 l -13.914 -0.018 v -1.082 c 0 -0.754 0.142 -1.082 0.469 -1.082 0.258 0 0.469 -0.211 0.469 -0.469 0 -0.258 0.211 -0.469 0.469 -0.469 0.313 0 0.469 -0.313 0.469 -0.938 0 -0.625 0.156 -0.938 0.469 -0.938 0.258 0 0.469 -0.211 0.469 -0.469 0 -0.261 0.278 -0.469 0.625 -0.469 0.417 0 0.625 -0.208 0.625 -0.625 0 -0.347 0.208 -0.625 0.469 -0.625 0.313 0 0.469 -0.313 0.469 -0.938 v -0.938 l 4.768 0.039 c 2.623 0.022 6.809 0.127 9.302 0.235 4.311 0.186 4.549 0.23 4.843 0.899 0.17 0.387 0.416 0.704 0.547 0.704 0.131 0 0.239 0.281 0.239 0.625 0 0.506 0.208 0.625 1.094 0.625 0.886 0 1.094 -0.119 1.094 -0.625 0 -0.347 0.208 -0.625 0.469 -0.625 0.317 0 0.469 -0.318 0.469 -0.982 v -0.982 l 6.171 0.228 c 3.394 0.125 6.279 0.294 6.41 0.375 0.352 0.218 0.29 1.361 -0.074 1.361 -0.765 0 -0.234 0.969 0.625 1.141 0.516 0.103 0.938 0.381 0.938 0.618 0 0.269 0.351 0.43 0.938 0.43 0.625 0 0.938 -0.156 0.938 -0.469 0 -0.261 0.278 -0.469 0.625 -0.469 0.506 0 0.625 -0.208 0.625 -1.094 0 -0.764 0.141 -1.094 0.469 -1.094 0.258 0 0.469 -0.2 0.469 -0.444 0 -0.316 0.587 -0.507 2.032 -0.662 1.981 -0.212 2.032 -0.24 2.032 -1.119 0 -0.496 0.13 -0.902 0.288 -0.902 0.158 0 0.381 -0.422 0.494 -0.938 l 0.206 -0.938 h 3.415 c 2.827 0 3.415 0.081 3.415 0.469 0 0.354 0.382 0.469 1.563 0.469 1.181 0 1.563 -0.115 1.563 -0.469 0 -0.313 0.313 -0.469 0.938 -0.469 0.903 0 0.938 0.052 0.938 1.407 v 1.407 h -3.918 c -3.195 0 -3.952 0.087 -4.098 0.469 -0.099 0.258 -0.376 0.469 -0.616 0.469 -0.289 0 -0.436 0.367 -0.436 1.094 0 0.886 0.119 1.094 0.625 1.094 0.676 0 0.714 0.105 0.428 1.173 -0.104 0.387 -0.383 0.704 -0.621 0.704 -0.238 0 -0.433 0.281 -0.433 0.625 0 0.347 -0.208 0.625 -0.469 0.625 -0.258 0 -0.469 0.211 -0.469 0.469 0 0.328 -0.33 0.469 -1.094 0.469 -0.764 0 -1.094 0.141 -1.094 0.469 0 0.365 -0.417 0.469 -1.876 0.469 -1.459 0 -1.876 0.104 -1.876 0.469 0 0.261 -0.278 0.469 -0.625 0.469 -0.486 0 -0.625 0.208 -0.625 0.938 0 0.625 -0.156 0.938 -0.469 0.938 -0.258 0 -0.469 -0.141 -0.469 -0.313 z"/><path d="m 99.92 86.38 c 0 -0.412 -2.467 -0.469 -20.324 -0.469 h -20.324 v -0.938 c 0 -0.625 0.156 -0.938 0.469 -0.938 0.258 0 0.469 -0.211 0.469 -0.469 0 -0.258 0.211 -0.469 0.469 -0.469 0.328 0 0.469 -0.33 0.469 -1.094 0 -0.764 0.141 -1.094 0.469 -1.094 0.313 0 0.469 -0.313 0.469 -0.938 0 -0.73 0.139 -0.938 0.625 -0.938 0.36 0 0.625 -0.208 0.625 -0.491 0 -0.27 0.211 -0.702 0.469 -0.96 0.417 -0.417 0.469 -0.414 0.469 0.022 0 0.438 1.425 0.499 13.05 0.562 7.18 0.039 13.652 0.051 14.383 0.028 0.956 -0.031 1.329 0.081 1.329 0.399 0 0.243 0.211 0.441 0.469 0.441 0.313 0 0.469 0.313 0.469 0.938 0 0.834 -0.104 0.938 -0.938 0.938 -0.73 0 -0.938 0.139 -0.938 0.625 0 0.347 0.208 0.625 0.469 0.625 0.313 0 0.469 0.313 0.469 0.938 0 0.731 0.139 0.938 0.628 0.938 0.346 0 0.869 -0.281 1.164 -0.625 0.294 -0.344 0.715 -0.625 0.935 -0.625 0.235 0 0.4 -0.385 0.4 -0.938 0 -0.625 0.156 -0.938 0.469 -0.938 0.258 0 0.469 -0.211 0.469 -0.469 0 -0.258 0.211 -0.469 0.469 -0.469 0.258 0 0.469 0.211 0.469 0.469 0 0.258 0.211 0.469 0.469 0.469 0.258 0 0.469 0.211 0.469 0.469 0 0.313 -0.313 0.469 -0.938 0.469 -0.864 0 -0.938 0.087 -0.938 1.094 v 1.094 h 2.032 c 1.598 0 2.032 -0.1 2.032 -0.469 0 -0.258 0.211 -0.469 0.469 -0.469 0.347 0 0.469 0.365 0.469 1.407 0 1.042 -0.122 1.407 -0.469 1.407 -0.258 0 -0.469 0.211 -0.469 0.469 0 0.261 -0.278 0.469 -0.625 0.469 -0.347 0 -0.625 -0.208 -0.625 -0.469 z"/><path d="m 74.907 95.92 v -0.938 h -5.785 c -4.933 0 -5.785 0.069 -5.785 0.469 0 0.261 -0.278 0.469 -0.625 0.469 -0.347 0 -0.625 -0.208 -0.625 -0.469 0 -0.258 -0.211 -0.469 -0.469 -0.469 -0.369 0 -0.469 -0.434 -0.469 -2.032 v -2.032 h -1.094 c -0.736 0 -1.094 0.145 -1.094 0.443 0 0.244 -0.155 0.494 -0.343 0.557 -0.189 0.063 -0.418 0.778 -0.51 1.589 l -0.166 1.475 h -1.366 c -1.31 0 -1.366 -0.039 -1.366 -0.938 0 -0.625 0.156 -0.938 0.469 -0.938 0.328 0 0.469 -0.33 0.469 -1.094 0 -0.764 0.141 -1.094 0.469 -1.094 0.308 0 0.469 -0.309 0.469 -0.902 0 -0.639 0.182 -0.949 0.625 -1.065 0.511 -0.134 0.625 -0.427 0.625 -1.6 v -1.436 l 10.397 0.043 c 5.718 0.024 15.04 0.129 20.715 0.235 l 10.318 0.191 l 0.1 0.704 c 0.085 0.598 -0.043 0.704 -0.86 0.704 -0.645 0 -0.96 0.154 -0.96 0.469 0 0.313 -0.313 0.469 -0.938 0.469 -0.73 0 -0.938 0.139 -0.938 0.625 0 0.417 -0.208 0.625 -0.625 0.625 -0.347 0 -0.625 0.208 -0.625 0.469 0 0.258 -0.211 0.469 -0.469 0.469 -0.378 0 -0.469 0.486 -0.469 2.501 0 1.459 -0.13 2.501 -0.313 2.501 -0.172 0 -0.313 -0.704 -0.313 -1.563 0 -1.355 -0.083 -1.563 -0.625 -1.563 -0.347 0 -0.625 -0.208 -0.625 -0.469 0 -0.354 -0.382 -0.469 -1.563 -0.469 -1.181 0 -1.563 -0.115 -1.563 -0.469 0 -0.313 -0.313 -0.469 -0.938 -0.469 -0.625 0 -0.938 0.156 -0.938 0.469 0 0.313 -0.313 0.469 -0.938 0.469 -0.625 0 -0.938 0.156 -0.938 0.469 0 0.328 -0.33 0.469 -1.094 0.469 -0.764 0 -1.094 -0.141 -1.094 -0.469 0 -0.347 -0.365 -0.469 -1.407 -0.469 -1.042 0 -1.407 0.122 -1.407 0.469 0 0.261 -0.278 0.469 -0.625 0.469 -0.347 0 -0.625 0.208 -0.625 0.469 0 0.277 -0.289 0.471 -0.704 0.473 -1.756 0.011 -2.111 0.305 -2.111 1.752 0 1.162 -0.095 1.371 -0.625 1.371 -0.486 0 -0.625 -0.208 -0.625 -0.938 z"/><path d="m 75.04 95.76 l -0.196 -0.782 h -5.688 c -3.944 0 -5.801 0.113 -6.06 0.368 -0.699 0.699 -1.59 -0.573 -1.819 -2.595 -0.208 -1.834 -0.21 -1.838 -1.254 -1.838 -0.842 0 -1.139 0.18 -1.523 0.923 -0.262 0.507 -0.479 1.246 -0.482 1.642 -0.008 1.21 -0.436 1.591 -1.52 1.353 -0.998 -0.219 -1.195 -0.686 -0.699 -1.654 0.153 -0.299 0.646 -1.344 1.095 -2.323 0.449 -0.979 0.957 -1.867 1.129 -1.973 0.171 -0.106 0.312 -0.818 0.312 -1.581 0 -1.026 0.123 -1.389 0.469 -1.389 0.258 0 0.469 -0.206 0.469 -0.458 0 -0.252 0.422 -0.939 0.938 -1.527 0.516 -0.588 0.938 -1.214 0.938 -1.392 0 -0.536 1.576 -3.502 1.861 -3.502 0.146 0 0.573 -0.598 0.95 -1.329 0.377 -0.731 1.01 -1.681 1.404 -2.111 0.395 -0.43 0.803 -1.064 0.907 -1.408 0.104 -0.345 0.823 -1.242 1.599 -1.994 0.996 -0.966 1.41 -1.618 1.41 -2.224 v -0.857 l 2.111 0.109 c 1.161 0.06 5.136 0.168 8.833 0.241 3.697 0.073 6.951 0.224 7.23 0.337 0.279 0.112 0.769 0.689 1.087 1.28 0.453 0.841 0.775 1.076 1.474 1.076 0.935 0 2.064 -1.021 2.074 -1.876 0.005 -0.417 -0.028 -0.417 -0.293 0 -0.234 0.368 -0.343 0.251 -0.503 -0.547 -0.181 -0.897 -0.324 -1.016 -1.227 -1.016 -0.665 0 -1.092 0.182 -1.222 0.521 -0.152 0.397 -0.287 0.435 -0.565 0.156 -0.238 -0.238 -1.839 -0.379 -4.602 -0.404 -2.33 -0.022 -6.25 -0.127 -8.711 -0.235 l -4.474 -0.195 l 3.766 -3.811 c 2.071 -2.096 4.507 -4.306 5.412 -4.911 0.905 -0.605 2.208 -1.646 2.896 -2.313 0.688 -0.667 1.486 -1.342 1.774 -1.499 0.297 -0.162 2.525 -0.2 5.159 -0.088 2.55 0.109 5.861 0.214 7.357 0.235 l 2.721 0.036 l -0.825 1.59 c -0.68 1.311 -0.76 1.695 -0.454 2.185 0.478 0.765 0.474 2.01 -0.008 2.781 -0.308 0.493 -0.258 0.944 0.268 2.419 l 0.647 1.813 l 1.664 0.207 c 1.148 0.143 1.816 0.408 2.155 0.854 0.4 0.528 0.707 0.612 1.664 0.455 1.048 -0.171 1.173 -0.121 1.173 0.475 0 0.693 -0.447 0.895 -0.782 0.354 -0.119 -0.192 -2.211 -0.292 -5.412 -0.26 l -5.219 0.053 l 4.065 0.224 c 2.236 0.123 4.522 0.24 5.081 0.26 0.796 0.028 1.016 0.171 1.016 0.661 0 0.344 -0.146 0.625 -0.324 0.625 -0.219 0 -0.216 0.201 0.011 0.625 0.184 0.344 0.524 0.625 0.754 0.625 0.231 0 0.595 0.211 0.809 0.469 0.832 1 3.439 0.057 3.439 -1.247 0 -1.04 1.632 -2.236 3.365 -2.466 0.901 -0.119 1.638 -0.367 1.638 -0.55 0 -0.183 0.196 -0.776 0.436 -1.318 0.24 -0.542 0.524 -1.251 0.632 -1.575 0.181 -0.545 0.428 -0.573 3.238 -0.369 1.673 0.121 3.176 0.351 3.339 0.511 0.398 0.39 3.211 0.373 3.455 -0.022 0.357 -0.578 1.33 -0.328 1.523 0.391 0.486 1.812 0.513 1.798 -3.566 1.798 -4.419 0 -5.305 0.34 -5.305 2.035 0 0.623 0.184 1.096 0.469 1.205 0.258 0.099 0.469 0.376 0.469 0.615 0 0.719 -2.639 3.336 -3.365 3.336 -0.365 0 -0.744 0.131 -0.843 0.291 -0.099 0.16 -0.916 0.383 -1.816 0.496 -1.776 0.222 -2.836 0.882 -3.185 1.98 -0.145 0.456 -0.403 0.648 -0.744 0.553 -0.287 -0.08 -0.985 -0.239 -1.552 -0.354 -0.805 -0.162 -1.068 -0.398 -1.205 -1.083 -0.147 -0.733 -0.375 -0.907 -1.403 -1.072 -1.038 -0.166 -1.255 -0.335 -1.408 -1.097 -0.138 -0.688 -0.4 -0.944 -1.112 -1.087 -1.124 -0.225 -2.755 -1.334 -2.755 -1.874 0 -0.214 -0.432 -0.708 -0.96 -1.098 -0.914 -0.676 -1.01 -0.686 -2 -0.215 -0.573 0.272 -1.302 0.499 -1.62 0.504 -0.318 0.005 -0.851 0.217 -1.185 0.469 -0.334 0.252 -0.87 0.459 -1.192 0.459 -0.472 0 -0.566 0.197 -0.487 1.016 0.082 0.853 0.239 1.032 0.977 1.117 0.483 0.055 1.081 -0.067 1.329 -0.273 0.367 -0.304 0.45 -0.255 0.45 0.265 0 1.141 -0.337 1.684 -0.803 1.297 -0.711 -0.59 -1.989 0.589 -2 1.844 l -0.01 1.045 l -13.68 -0.154 c -8.153 -0.092 -11.911 -0.055 -9.302 0.09 2.408 0.134 8.682 0.26 13.944 0.281 8.843 0.035 9.606 0.081 10.08 0.61 0.749 0.828 0.639 1.574 -0.264 1.801 -0.928 0.233 -0.956 0.482 -0.235 2.05 0.332 0.721 0.767 1.192 1.107 1.197 0.706 0.01 2.411 -1.23 2.411 -1.753 0 -0.216 0.319 -0.764 0.71 -1.218 l 0.71 -0.825 l 0.576 0.637 c 0.564 0.624 0.56 0.641 -0.241 0.842 -0.68 0.171 -0.817 0.383 -0.817 1.265 v 1.06 h 1.97 c 1.115 0 2.133 -0.163 2.345 -0.375 0.292 -0.292 0.375 -0.129 0.375 0.733 0 1.429 -0.907 2.349 -1.83 1.856 -0.436 -0.233 -6.697 -0.319 -20.272 -0.276 l -19.641 0.062 l 17.823 0.206 c 23.14 0.267 21.731 0.222 21.731 0.692 0 0.217 -0.711 0.733 -1.579 1.145 -2.434 1.156 -4.044 2.775 -4.071 4.095 -0.012 0.598 -0.143 1.369 -0.291 1.713 -0.247 0.575 -0.271 0.562 -0.301 -0.156 -0.04 -0.988 -1.057 -1.733 -2.753 -2.02 -0.727 -0.123 -1.4 -0.352 -1.497 -0.509 -0.314 -0.507 -1.574 -0.304 -3.08 0.496 -1.554 0.826 -2.525 0.986 -2.844 0.469 -0.106 -0.172 -0.763 -0.313 -1.459 -0.313 -0.926 0 -1.574 0.244 -2.415 0.911 -0.632 0.501 -1.564 0.958 -2.069 1.016 -0.806 0.092 -0.951 0.269 -1.18 1.434 -0.293 1.489 -0.738 1.725 -1.034 0.547 z m 16.07 -29.31 l 0.095 -1.485 h -1.101 c -1.428 0 -1.981 0.871 -1.417 2.234 0.325 0.784 0.533 0.912 1.355 0.832 0.921 -0.09 0.976 -0.171 1.067 -1.58 z"/><path d="m 67.09 105.46 c 0 -0.258 -0.211 -0.469 -0.469 -0.469 -0.369 0 -0.469 -0.434 -0.469 -2.032 0 -1.548 -0.106 -2.032 -0.444 -2.032 -0.244 0 -0.537 -0.422 -0.65 -0.938 -0.113 -0.516 -0.336 -0.938 -0.494 -0.938 -0.158 0 -0.288 -0.204 -0.288 -0.453 0 -0.249 -0.222 -0.578 -0.493 -0.729 -0.336 -0.188 -0.46 -0.616 -0.391 -1.344 l 0.102 -1.069 l 3.908 -0.239 c 2.15 -0.131 4.677 -0.202 5.617 -0.156 1.679 0.081 1.712 0.102 1.936 1.177 0.281 1.352 0.028 2.501 -0.551 2.501 -0.346 0 -0.435 0.732 -0.435 3.596 v 3.596 h -3.439 c -2.849 0 -3.439 -0.081 -3.439 -0.469 z"/><path d="m 88.981 55.663 c -1.804 -0.056 -3.415 -0.238 -3.58 -0.403 -0.193 -0.193 -0.11 -0.301 0.231 -0.301 0.292 0 0.532 -0.211 0.532 -0.469 0 -0.328 0.33 -0.469 1.094 -0.469 0.764 0 1.094 -0.141 1.094 -0.469 0 -0.258 0.211 -0.469 0.469 -0.469 0.258 0 0.469 -0.211 0.469 -0.469 0 -0.313 0.313 -0.469 0.938 -0.469 0.73 0 0.938 -0.139 0.938 -0.625 0 -0.506 0.208 -0.625 1.094 -0.625 0.764 0 1.094 -0.141 1.094 -0.469 0 -0.313 0.313 -0.469 0.938 -0.469 0.625 0 0.938 -0.156 0.938 -0.469 0 -0.277 0.289 -0.471 0.704 -0.473 0.387 -0.002 1 -0.084 1.367 -0.182 0.563 -0.151 0.696 -0.009 0.874 0.942 0.204 1.086 0.253 1.12 1.603 1.12 1.184 0 1.393 0.094 1.393 0.625 0 0.486 0.208 0.625 0.938 0.625 0.516 0 0.938 0.141 0.938 0.313 0 0.182 -1.042 0.313 -2.501 0.313 h -2.501 v 1.094 c 0 0.886 0.119 1.094 0.625 1.094 0.347 0 0.625 0.208 0.625 0.469 0 0.489 -1.244 0.518 -10.315 0.235 z m 7.188 -1.173 c 0 -0.313 -0.313 -0.469 -0.938 -0.469 -0.625 0 -0.938 0.156 -0.938 0.469 0 0.313 0.313 0.469 0.938 0.469 0.625 0 0.938 -0.156 0.938 -0.469 z"/><path d="m 115.24 64.03 c 0 -0.625 0.156 -0.938 0.469 -0.938 0.258 0 0.469 -0.211 0.469 -0.469 0 -0.258 0.211 -0.469 0.469 -0.469 0.261 0 0.469 -0.278 0.469 -0.625 0 -0.53 0.208 -0.625 1.371 -0.625 1.108 0 1.402 0.12 1.534 0.625 0.119 0.455 0.427 0.625 1.131 0.625 0.532 0 0.967 0.141 0.967 0.313 0 0.172 -0.211 0.313 -0.469 0.313 -0.261 0 -0.469 0.278 -0.469 0.625 0 0.347 0.208 0.625 0.469 0.625 0.258 0 0.469 0.211 0.469 0.469 0 0.388 -0.591 0.469 -3.439 0.469 h -3.439 v -0.938 z"/><path d="m 102.11 82.48 c 0 -0.347 -0.208 -0.625 -0.469 -0.625 -0.258 0 -0.469 -0.211 -0.469 -0.469 0 -0.258 0.211 -0.469 0.469 -0.469 0.258 0 0.469 -0.211 0.469 -0.469 0 -0.258 0.211 -0.469 0.469 -0.469 0.328 0 0.469 0.33 0.469 1.094 0 0.764 0.141 1.094 0.469 1.094 0.723 0 0.555 0.529 -0.235 0.741 -1.068 0.286 -1.173 0.248 -1.173 -0.428 z"/><path d="m 104.3 79.49 c 0 -0.263 -0.211 -0.56 -0.469 -0.659 -0.795 -0.305 -0.519 -0.738 0.469 -0.738 0.834 0 0.938 -0.104 0.938 -0.938 0 -1.2 0.584 -1.221 0.822 -0.031 0.159 0.793 0.356 0.934 1.556 1.114 1.276 0.191 1.962 0.793 0.905 0.793 -0.258 0 -0.469 0.211 -0.469 0.469 0 0.365 -0.417 0.469 -1.876 0.469 -1.476 0 -1.876 -0.102 -1.876 -0.479 z"/><path d="m 102.11 75.44 c 0 -0.258 0.211 -0.469 0.469 -0.469 0.258 0 0.469 0.211 0.469 0.469 0 0.258 -0.211 0.469 -0.469 0.469 -0.258 0 -0.469 -0.211 -0.469 -0.469 z"/><path d="m 98.36 73.41 c 0 -0.172 0.141 -0.313 0.313 -0.313 0.172 0 0.313 0.141 0.313 0.313 0 0.172 -0.141 0.313 -0.313 0.313 -0.172 0 -0.313 -0.141 -0.313 -0.313 z"/><path d="m 100.23 77.47 c 0 -0.172 0.211 -0.313 0.469 -0.313 0.261 0 0.469 -0.278 0.469 -0.625 0 -0.347 0.208 -0.625 0.469 -0.625 0.313 0 0.469 0.313 0.469 0.938 0 0.834 -0.104 0.938 -0.938 0.938 -0.516 0 -0.938 -0.141 -0.938 -0.313 z"/><path d="m 92.1 132.5 c 0 -0.347 0.208 -0.625 0.469 -0.625 0.258 0 0.469 -0.211 0.469 -0.469 0 -0.258 0.2 -0.469 0.444 -0.469 0.244 0 0.537 -0.422 0.65 -0.938 0.113 -0.516 0.406 -0.938 0.65 -0.938 0.244 0 0.444 -0.211 0.444 -0.469 0 -0.258 0.211 -0.469 0.469 -0.469 0.372 0 0.469 -0.452 0.469 -2.189 0 -1.737 -0.097 -2.189 -0.469 -2.189 -0.313 0 -0.469 -0.313 -0.469 -0.938 0 -0.625 0.156 -0.938 0.469 -0.938 0.258 0 0.469 0.211 0.469 0.469 0 0.258 0.211 0.469 0.469 0.469 0.313 0 0.469 -0.313 0.469 -0.938 0 -0.625 0.156 -0.938 0.469 -0.938 0.258 0 0.469 -0.211 0.469 -0.469 0 -0.354 0.382 -0.469 1.563 -0.469 1.529 0 1.563 0.021 1.563 0.938 0 0.625 0.156 0.938 0.469 0.938 0.258 0 0.469 -0.211 0.469 -0.469 0 -0.261 0.278 -0.469 0.625 -0.469 0.347 0 0.625 -0.208 0.625 -0.469 0 -0.292 0.295 -0.469 0.782 -0.469 0.486 0 0.782 -0.177 0.782 -0.469 0 -0.261 0.278 -0.469 0.625 -0.469 0.347 0 0.625 0.208 0.625 0.469 0 0.354 0.382 0.469 1.563 0.469 1.181 0 1.563 0.115 1.563 0.469 0 0.258 0.141 0.469 0.313 0.469 0.172 0 0.313 -0.211 0.313 -0.469 0 -0.354 0.382 -0.469 1.563 -0.469 1.529 0 1.563 0.021 1.563 0.938 0 0.59 0.16 0.938 0.433 0.938 0.238 0 0.508 0.29 0.601 0.645 0.093 0.355 0.355 0.619 0.584 0.588 0.96 -0.13 1.509 0.047 1.509 0.487 0 0.258 0.211 0.469 0.469 0.469 0.258 0 0.469 0.211 0.469 0.469 0 0.258 0.211 0.469 0.469 0.469 0.258 0 0.469 0.211 0.469 0.469 0 0.354 0.382 0.469 1.563 0.469 1.181 0 1.563 -0.115 1.563 -0.469 0 -0.258 0.211 -0.469 0.469 -0.469 0.258 0 0.469 0.211 0.469 0.469 0 0.258 0.211 0.469 0.469 0.469 0.258 0 0.469 0.211 0.469 0.469 0 0.258 0.195 0.469 0.434 0.469 0.249 0 0.522 0.468 0.64 1.094 0.113 0.602 0.34 1.094 0.504 1.094 0.164 0 0.299 0.422 0.299 0.938 v 0.938 h -15.321 c -13.41 0 -15.321 0.059 -15.321 0.469 0 0.258 -0.211 0.469 -0.469 0.469 -0.261 0 -0.469 0.278 -0.469 0.625 0 0.417 -0.208 0.625 -0.625 0.625 -0.417 0 -0.625 -0.208 -0.625 -0.625 z"/><path d="m 95.78 139.8 c -0.33 -0.089 -0.547 -0.448 -0.547 -0.906 0 -0.439 -0.183 -0.759 -0.434 -0.759 -0.249 0 -0.522 -0.468 -0.64 -1.094 -0.113 -0.602 -0.34 -1.094 -0.504 -1.094 -0.164 0 -0.299 -0.201 -0.299 -0.447 0 -0.246 -0.317 -0.508 -0.704 -0.583 l -0.704 -0.136 l 0.704 -0.043 c 0.872 -0.053 0.926 -0.668 0.078 -0.89 -0.731 -0.191 -0.842 -0.716 -0.152 -0.716 0.26 0 0.858 -0.415 1.329 -0.923 l 0.855 -0.923 l 15.243 -0.216 c 14.01 -0.198 15.243 -0.174 15.243 0.297 0 0.362 0.277 0.513 0.938 0.513 0.73 0 0.938 0.139 0.938 0.625 0 0.486 0.208 0.625 0.938 0.625 0.516 0 0.938 0.141 0.938 0.313 0 0.172 0.492 0.313 1.094 0.313 0.723 0 1.094 0.147 1.094 0.433 0 0.509 0.947 0.808 2.58 0.814 0.832 0.003 1.173 0.141 1.173 0.473 0 0.369 0.434 0.469 2.032 0.469 1.598 0 2.032 0.1 2.032 0.469 0 0.258 0.211 0.469 0.469 0.469 0.261 0 0.469 0.278 0.469 0.625 0 0.506 0.208 0.625 1.094 0.625 0.764 0 1.094 0.141 1.094 0.469 0 0.258 -0.199 0.469 -0.443 0.469 -0.244 0 -0.502 0.176 -0.573 0.391 -0.102 0.307 -4.907 0.401 -22.461 0.437 -12.282 0.025 -22.577 -0.02 -22.878 -0.101 z"/><path d="m 106.17 152.52 c 0 -1.181 -0.115 -1.563 -0.469 -1.563 -0.326 0 -0.469 -0.328 -0.469 -1.072 0 -1.112 -0.656 -2.055 -1.429 -2.055 -0.246 0 -0.447 -0.211 -0.447 -0.469 0 -0.261 -0.278 -0.469 -0.625 -0.469 -0.347 0 -0.625 -0.208 -0.625 -0.469 0 -0.328 -0.33 -0.469 -1.094 -0.469 -0.727 0 -1.094 -0.146 -1.094 -0.436 0 -0.24 -0.211 -0.517 -0.469 -0.616 -0.258 -0.099 -0.469 -0.395 -0.469 -0.659 0 -0.263 -0.141 -0.479 -0.313 -0.479 -0.172 0 -0.313 -0.422 -0.313 -0.938 0 -0.864 -0.087 -0.938 -1.094 -0.938 -1.01 0 -1.094 -0.075 -1.094 -0.938 v -0.938 l 21.18 -0.018 c 11.651 -0.01 21.782 -0.08 22.513 -0.156 1.166 -0.121 1.329 -0.061 1.329 0.487 0 0.416 -0.209 0.625 -0.625 0.625 -0.486 0 -0.625 0.208 -0.625 0.938 0 0.625 -0.156 0.938 -0.469 0.938 -0.369 0 -0.469 0.434 -0.469 2.032 0 1.598 -0.1 2.032 -0.469 2.032 -0.698 0 -0.627 1.789 0.078 1.973 0.521 0.136 0.521 0.145 0 0.179 -0.435 0.029 -0.547 0.326 -0.547 1.443 0 1.042 -0.122 1.407 -0.469 1.407 -0.258 0 -0.469 0.211 -0.469 0.469 0 0.258 -0.211 0.469 -0.469 0.469 -0.258 0 -0.469 0.19 -0.469 0.423 0 0.663 -3.471 0.828 -17.401 0.828 h -12.616 v -1.563 z"/><path d="m 106.72 164.81 c -0.494 -0.129 -0.547 -0.658 -0.547 -5.436 v -5.293 h 13.445 c 8.755 0 13.445 0.109 13.445 0.313 0 0.172 -0.422 0.313 -0.938 0.313 -0.73 0 -0.938 0.139 -0.938 0.625 0 0.417 -0.208 0.625 -0.625 0.625 -0.561 0 -0.625 0.208 -0.625 2.032 0 1.118 -0.13 2.032 -0.288 2.032 -0.158 0 -0.381 0.422 -0.494 0.938 -0.113 0.516 -0.406 0.938 -0.65 0.938 -0.244 0 -0.444 0.211 -0.444 0.469 0 0.258 -0.211 0.469 -0.469 0.469 -0.328 0 -0.469 0.33 -0.469 1.094 0 0.764 -0.141 1.094 -0.469 1.094 -0.258 0 -0.469 -0.211 -0.469 -0.469 0 -0.258 -0.196 -0.469 -0.436 -0.469 -0.24 0 -0.517 0.211 -0.616 0.469 -0.155 0.403 -1.428 0.464 -9.02 0.433 -4.864 -0.02 -9.09 -0.101 -9.39 -0.179 z"/><path d="m 109.3 177.53 c 0 -1.355 -0.083 -1.563 -0.625 -1.563 -0.347 0 -0.625 -0.208 -0.625 -0.469 0 -0.258 -0.211 -0.469 -0.469 -0.469 -0.354 0 -0.469 -0.382 -0.469 -1.563 0 -1.181 0.115 -1.563 0.469 -1.563 0.313 0 0.469 -0.313 0.469 -0.938 0 -0.625 -0.156 -0.938 -0.469 -0.938 -0.378 0 -0.469 -0.486 -0.469 -2.501 v -2.501 h 8.849 c 5.484 0 8.968 -0.119 9.162 -0.313 0.209 -0.209 0.593 -0.183 1.154 0.078 0.905 0.42 1.147 1.173 0.378 1.173 -0.258 0 -0.469 0.211 -0.469 0.469 0 0.261 -0.278 0.469 -0.625 0.469 -0.347 0 -0.625 0.208 -0.625 0.469 0 0.258 -0.141 0.469 -0.313 0.469 -0.172 0 -0.313 -0.211 -0.313 -0.469 0 -0.354 -0.382 -0.469 -1.563 -0.469 -1.181 0 -1.563 0.115 -1.563 0.469 0 0.258 0.211 0.469 0.469 0.469 0.31 0 0.469 0.31 0.469 0.915 0 0.609 0.183 0.963 0.547 1.058 0.521 0.136 0.521 0.145 0 0.179 -0.301 0.02 -0.547 0.247 -0.547 0.505 0 0.258 -0.211 0.469 -0.469 0.469 -0.258 0 -0.469 0.211 -0.469 0.469 0 0.328 -0.33 0.469 -1.094 0.469 -0.764 0 -1.094 0.141 -1.094 0.469 0 0.258 -0.211 0.469 -0.469 0.469 -0.313 0 -0.469 0.313 -0.469 0.938 0 0.834 -0.104 0.938 -0.938 0.938 -0.864 0 -0.938 0.087 -0.938 1.094 v 1.094 h -2.97 h -2.97 v 1.094 c 0 0.764 -0.141 1.094 -0.469 1.094 -0.354 0 -0.469 -0.382 -0.469 -1.563 z"/><path d="m 114.85 188.88 c -0.301 -0.079 -0.547 -0.344 -0.547 -0.589 0 -0.245 -0.281 -0.446 -0.625 -0.446 -0.347 0 -0.625 -0.208 -0.625 -0.469 0 -0.258 -0.211 -0.469 -0.469 -0.469 -0.258 0 -0.469 -0.211 -0.469 -0.469 0 -0.258 -0.211 -0.469 -0.469 -0.469 -0.261 0 -0.469 -0.278 -0.469 -0.625 0 -0.347 -0.208 -0.625 -0.469 -0.625 -0.258 0 -0.469 -0.211 -0.469 -0.469 0 -0.258 -0.211 -0.469 -0.469 -0.469 -0.258 0 -0.469 -0.211 -0.469 -0.469 0 -0.258 0.141 -0.469 0.313 -0.469 0.378 0 0.423 -1.781 0.048 -1.928 -0.145 -0.057 -0.359 -0.491 -0.475 -0.964 -0.177 -0.724 -0.111 -0.86 0.421 -0.86 0.513 0 0.631 -0.205 0.631 -1.094 v -1.094 h 2.97 c 2.432 0 2.97 0.085 2.97 0.469 0 0.258 0.211 0.469 0.469 0.469 0.258 0 0.469 0.211 0.469 0.469 0 0.258 -0.211 0.469 -0.469 0.469 -0.369 0 -0.469 0.434 -0.469 2.032 0 1.598 0.1 2.032 0.469 2.032 0.815 0 0.507 0.861 -0.388 1.085 -0.943 0.237 -1.32 0.661 -1.327 1.494 -0.003 0.34 0.232 0.547 0.621 0.547 0.347 0 0.625 0.208 0.625 0.469 0 0.258 0.211 0.469 0.469 0.469 0.258 0 0.469 0.211 0.469 0.469 0 0.258 -0.211 0.469 -0.469 0.469 -0.261 0 -0.469 0.278 -0.469 0.625 0 0.616 -0.248 0.692 -1.329 0.41 z"/><path d="m 119.93 195.54 c 0 -0.613 -0.706 -0.815 -2.84 -0.815 -1.848 0 -1.851 -0.001 -1.851 -0.938 0 -0.625 -0.156 -0.938 -0.469 -0.938 -0.258 0 -0.469 -0.211 -0.469 -0.469 0 -0.328 -0.33 -0.469 -1.094 -0.469 -1.01 0 -1.094 -0.074 -1.094 -0.938 0 -0.86 0.089 -0.938 1.072 -0.938 0.59 0 1.283 -0.211 1.541 -0.469 0.792 -0.792 1.452 -0.579 1.452 0.469 0 0.625 0.156 0.938 0.469 0.938 0.258 0 0.469 0.211 0.469 0.469 0 0.258 0.211 0.469 0.469 0.469 0.258 0 0.469 0.211 0.469 0.469 0 0.258 0.211 0.469 0.469 0.469 0.261 0 0.469 0.278 0.469 0.625 0 0.417 0.208 0.625 0.625 0.625 0.347 0 0.625 0.208 0.625 0.469 0 0.313 0.313 0.469 0.938 0.469 0.625 0 0.938 0.156 0.938 0.469 0 0.328 -0.33 0.469 -1.094 0.469 -0.727 0 -1.094 -0.146 -1.094 -0.436 z"/><path d="m 93.07 122.32 c 0.015 -0.364 0.089 -0.438 0.189 -0.189 0.09 0.226 0.079 0.495 -0.025 0.599 -0.104 0.104 -0.178 -0.081 -0.164 -0.41 z"/><path d="m 86.16 118.9 c 0 -0.764 -0.141 -1.094 -0.469 -1.094 -0.313 0 -0.469 -0.313 -0.469 -0.938 0 -0.834 -0.104 -0.938 -0.938 -0.938 -0.625 0 -0.938 -0.156 -0.938 -0.469 0 -0.36 -0.4 -0.469 -1.72 -0.469 -1.16 0 -1.724 -0.127 -1.733 -0.391 -0.007 -0.215 -0.429 -0.736 -0.938 -1.158 -0.509 -0.422 -0.925 -0.95 -0.925 -1.173 0 -0.278 -0.491 -0.406 -1.563 -0.406 -1.181 0 -1.563 0.115 -1.563 0.469 0 0.258 -0.211 0.469 -0.469 0.469 -0.258 0 -0.469 -0.211 -0.469 -0.469 0 -0.347 -0.365 -0.469 -1.407 -0.469 -1.042 0 -1.407 -0.122 -1.407 -0.469 0 -0.313 -0.313 -0.469 -0.938 -0.469 -0.625 0 -0.938 -0.156 -0.938 -0.469 0 -0.328 -0.33 -0.469 -1.094 -0.469 -0.886 0 -1.094 -0.119 -1.094 -0.625 0 -0.347 -0.208 -0.625 -0.469 -0.625 -0.347 0 -0.469 -0.365 -0.469 -1.407 0 -1.042 0.122 -1.407 0.469 -1.407 0.258 0 0.469 0.211 0.469 0.469 0 0.313 0.313 0.469 0.938 0.469 0.73 0 0.938 0.139 0.938 0.625 0 0.506 0.208 0.625 1.094 0.625 0.764 0 1.094 0.141 1.094 0.469 0 0.347 0.365 0.469 1.407 0.469 1.042 0 1.407 0.122 1.407 0.469 0 0.328 0.33 0.469 1.094 0.469 0.764 0 1.094 0.141 1.094 0.469 0 0.354 0.382 0.469 1.563 0.469 1.181 0 1.563 0.115 1.563 0.469 0 0.313 0.313 0.469 0.938 0.469 0.625 0 0.938 0.156 0.938 0.469 0 0.258 0.211 0.469 0.469 0.469 0.258 0 0.469 -0.211 0.469 -0.469 0 -0.258 0.211 -0.469 0.469 -0.469 0.328 0 0.469 0.33 0.469 1.094 0 1.01 0.074 1.094 0.938 1.094 0.625 0 0.938 0.156 0.938 0.469 0 0.261 0.278 0.469 0.625 0.469 0.486 0 0.625 0.208 0.625 0.938 0 0.834 0.104 0.938 0.938 0.938 0.917 0 0.938 0.035 0.938 1.563 0 1.529 -0.021 1.563 -0.938 1.563 -0.864 0 -0.938 -0.087 -0.938 -1.094 z"/><path d="m 88.06 114.5 c 0.015 -0.364 0.089 -0.438 0.189 -0.189 0.09 0.226 0.079 0.495 -0.025 0.599 -0.104 0.104 -0.178 -0.081 -0.164 -0.41 z"/><path d="m 82.1 111.4 c 0 -0.258 -0.211 -0.469 -0.469 -0.469 -0.258 0 -0.469 -0.211 -0.469 -0.469 0 -0.258 0.211 -0.469 0.469 -0.469 0.258 0 0.469 -0.211 0.469 -0.469 0 -0.347 0.365 -0.469 1.407 -0.469 1.042 0 1.407 0.122 1.407 0.469 0 0.292 -0.295 0.469 -0.782 0.469 -0.66 0 -0.782 0.146 -0.782 0.938 0 0.73 -0.139 0.938 -0.625 0.938 -0.347 0 -0.625 -0.208 -0.625 -0.469 z"/><path d="m 83.35 107.33 c 0 -0.258 0.141 -0.469 0.313 -0.469 0.172 0 0.313 0.211 0.313 0.469 0 0.258 -0.141 0.469 -0.313 0.469 -0.172 0 -0.313 -0.211 -0.313 -0.469 z"/><path d="m 79.28 110.46 c 0 -0.258 0.141 -0.469 0.313 -0.469 0.172 0 0.313 0.211 0.313 0.469 0 0.258 -0.141 0.469 -0.313 0.469 -0.172 0 -0.313 -0.211 -0.313 -0.469 z"/><path d="m 73.34 108.27 c 0 -0.328 -0.33 -0.469 -1.094 -0.469 -0.764 0 -1.094 -0.141 -1.094 -0.469 0 -0.313 -0.313 -0.469 -0.938 -0.469 -0.625 0 -0.938 -0.156 -0.938 -0.469 0 -0.375 0.469 -0.469 2.345 -0.469 h 2.345 v 1.407 c 0 0.774 -0.141 1.407 -0.313 1.407 -0.172 0 -0.313 -0.211 -0.313 -0.469 z"/><path d="m 62.09 99.36 c 0 -0.347 -0.208 -0.625 -0.469 -0.625 -0.258 0 -0.469 -0.227 -0.469 -0.505 0 -0.372 0.186 -0.456 0.704 -0.317 0.387 0.104 0.809 0.19 0.938 0.193 0.129 0.002 0.235 0.215 0.235 0.473 0 0.258 0.211 0.469 0.469 0.469 0.258 0 0.469 0.211 0.469 0.469 0 0.313 -0.313 0.469 -0.938 0.469 -0.73 0 -0.938 -0.139 -0.938 -0.625 z"/><path d="m 60.21 95.45 c 0 -0.258 0.211 -0.469 0.469 -0.469 0.258 0 0.469 0.211 0.469 0.469 0 0.258 -0.211 0.469 -0.469 0.469 -0.258 0 -0.469 -0.211 -0.469 -0.469 z"/><path d="m 86.16 113.43 c 0 -0.172 0.422 -0.313 0.938 -0.313 0.516 0 0.938 0.141 0.938 0.313 0 0.172 -0.422 0.313 -0.938 0.313 -0.516 0 -0.938 -0.141 -0.938 -0.313 z"/><path d="m 87.1 115.46 c 0 -0.258 -0.211 -0.469 -0.469 -0.469 -0.258 0 -0.469 -0.211 -0.469 -0.469 0 -0.313 0.313 -0.469 0.938 -0.469 0.834 0 0.938 0.104 0.938 0.938 0 0.625 -0.156 0.938 -0.469 0.938 -0.258 0 -0.469 -0.211 -0.469 -0.469 z"/><path d="m 172.15 81.85 c 0 -0.625 0.156 -0.938 0.469 -0.938 0.313 0 0.469 0.313 0.469 0.938 0 0.625 -0.156 0.938 -0.469 0.938 -0.313 0 -0.469 -0.313 -0.469 -0.938 z"/><path d="m 170.92 86.36 c 0.015 -0.364 0.089 -0.438 0.189 -0.189 0.09 0.226 0.079 0.495 -0.025 0.599 -0.104 0.104 -0.178 -0.081 -0.164 -0.41 z"/><path d="m 171.02 85.21 c 0.104 -0.387 0.19 -0.809 0.193 -0.938 0.002 -0.129 0.426 -0.235 0.942 -0.235 0.834 0 0.938 0.104 0.938 0.938 0 0.869 -0.083 0.938 -1.131 0.938 -1.02 0 -1.112 -0.069 -0.942 -0.704 z"/><path d="m 170.38 87.32 c 0 -0.307 0.307 -0.469 0.886 -0.469 0.579 0 0.886 0.162 0.886 0.469 0 0.307 -0.307 0.469 -0.886 0.469 -0.579 0 -0.886 -0.162 -0.886 -0.469 z"/><path d="m 174.34 82.48 c 0 -0.172 -0.281 -0.313 -0.625 -0.313 -0.417 0 -0.625 -0.208 -0.625 -0.625 0 -0.417 0.208 -0.625 0.625 -0.625 0.347 0 0.625 -0.208 0.625 -0.469 0 -0.292 0.295 -0.469 0.782 -0.469 0.486 0 0.782 -0.177 0.782 -0.469 0 -0.261 0.278 -0.469 0.625 -0.469 0.347 0 0.625 -0.208 0.625 -0.469 0 -0.354 0.382 -0.469 1.563 -0.469 1.181 0 1.563 -0.115 1.563 -0.469 0 -0.258 0.211 -0.469 0.469 -0.469 0.258 0 0.469 0.13 0.469 0.29 0 0.159 0.246 0.354 0.547 0.433 0.521 0.136 0.521 0.145 0 0.179 -0.779 0.052 -0.678 0.554 0.156 0.777 1.035 0.277 1.173 0.245 1.173 -0.272 0 -0.258 0.211 -0.469 0.469 -0.469 0.258 0 0.469 0.211 0.469 0.469 0 0.258 0.211 0.469 0.469 0.469 0.313 0 0.469 0.313 0.469 0.938 0 0.625 -0.156 0.938 -0.469 0.938 -0.258 0 -0.469 -0.211 -0.469 -0.469 0 -0.365 -0.417 -0.469 -1.876 -0.469 -1.459 0 -1.876 0.104 -1.876 0.469 0 0.372 -0.452 0.469 -2.189 0.469 -1.781 0 -2.189 0.091 -2.189 0.491 0 0.562 -0.73 1.385 -1.228 1.385 -0.184 0 -0.335 -0.141 -0.335 -0.313 z"/><path d="m 183.09 77.47 c 0 -0.172 0.211 -0.313 0.469 -0.313 0.258 0 0.469 0.141 0.469 0.313 0 0.172 -0.211 0.313 -0.469 0.313 -0.258 0 -0.469 -0.141 -0.469 -0.313 z"/><path d="m 187.16 82.48 c 0 -0.172 0.211 -0.313 0.469 -0.313 0.258 0 0.469 0.141 0.469 0.313 0 0.172 -0.211 0.313 -0.469 0.313 -0.258 0 -0.469 -0.141 -0.469 -0.313 z"/><path d="m 189.97 84.51 c 0 -0.258 0.211 -0.469 0.469 -0.469 0.258 0 0.469 0.211 0.469 0.469 0 0.258 -0.211 0.469 -0.469 0.469 -0.258 0 -0.469 -0.211 -0.469 -0.469 z"/><path d="m 200.29 88.86 c 0 -0.857 -0.122 -1.065 -0.625 -1.065 -0.533 0 -0.625 -0.208 -0.625 -1.407 0 -1.042 -0.122 -1.407 -0.469 -1.407 -0.267 0 -0.469 -0.281 -0.469 -0.65 0 -0.56 -0.13 -0.622 -0.938 -0.444 -0.739 0.162 -0.938 0.099 -0.938 -0.298 0 -0.277 -0.211 -0.585 -0.469 -0.684 -0.258 -0.099 -0.469 -0.376 -0.469 -0.616 0 -0.24 -0.281 -0.436 -0.625 -0.436 -0.347 0 -0.625 -0.208 -0.625 -0.469 0 -0.369 0.434 -0.469 2.032 -0.469 1.598 0 2.032 -0.1 2.032 -0.469 0 -0.258 0.211 -0.469 0.469 -0.469 0.347 0 0.469 0.365 0.469 1.407 0 1.042 0.122 1.407 0.469 1.407 0.261 0 0.469 0.278 0.469 0.625 0 0.347 0.208 0.625 0.469 0.625 0.313 0 0.469 0.313 0.469 0.938 0 0.73 0.139 0.938 0.625 0.938 0.538 0 0.625 0.207 0.621 1.485 -0.006 1.715 -0.196 2.098 -1.168 2.343 -0.627 0.158 -0.704 0.061 -0.704 -0.887 z"/><path d="m 172.4 67.878 c 0.226 -0.09 0.495 -0.079 0.599 0.025 0.104 0.104 -0.081 0.178 -0.41 0.164 -0.364 -0.015 -0.438 -0.089 -0.189 -0.189 z"/><path d="m 171.47 66.94 c 0.226 -0.09 0.495 -0.079 0.599 0.025 0.104 0.104 -0.081 0.178 -0.41 0.164 -0.364 -0.015 -0.438 -0.089 -0.189 -0.189 z"/><path d="m 171.21 71.37 c 0 -0.258 0.207 -0.469 0.459 -0.469 0.28 0 0.389 0.183 0.279 0.469 -0.233 0.607 -0.738 0.607 -0.738 0 z"/></g></g></g></svg>