<svg xmlns="http://www.w3.org/2000/svg" viewBox="0 0 256 256" xmlns:xlink="http://www.w3.org/1999/xlink"><defs><clipPath><path d="m 47 24 c 0 12.708 -10.304 23 -23 23 -12.696 0 -23 -10.292 -23 -23 0 -12.708 10.304 -23 23 -23 12.696 0 23 10.292 23 23 z"/></clipPath></defs><g transform="translate(0 -796.36)" style="color:#000"><path d="m 41.493 1023.3 c -114.88 -91.29 32.29 -279.65 156.06 -212.92 c 116.61 62.875 43.08 254.17 -83.5 241.37 -26.409 -2.671 -51.48 -11.7 -72.56 -28.459 z" style="fill:#fff"/><g transform="matrix(5.07324 0 0 4.61317 9.134 813.51)" style="fill:#ff4500;fill-rule:evenodd"><g transform="matrix(0.97765 0 0 0.98778 -0.856 -4.913)" style="opacity:0.1"><path d="m 14.173 23.2 l 12.274 7.087 l 12.274 -7.087 l -12.274 -7.087 z" id="0"/><path d="m 14.173 23.2 v 3.543 l 12.274 7.087 v -3.543 z"/><path d="m 26.448 33.827 l 12.274 -7.087 v -3.543 l -12.274 7.087 z"/><path d="m 14.173 26.74 v 10.63 l 12.274 7.087 v -10.63 z"/><path d="m 26.448 33.827 l 12.274 -7.087 v 10.63 l -12.274 7.087 z"/></g><g transform="matrix(0.97765 0 0 0.98778 -1.856 -5.913)"><use xlink:href="#0"/><g style="fill:#ffe4c4"><path d="m 14.173 23.2 v 3.543 l 12.274 7.087 v -3.543 z"/><path d="m 26.448 33.827 l 12.274 -7.087 v -3.543 l -12.274 7.087 z"/></g><g style="fill:#ffa07a"><path d="m 14.173 26.74 v 10.63 l 12.274 7.087 v -10.63 z"/><path d="m 26.448 33.827 l 12.274 -7.087 v 10.63 l -12.274 7.087 z"/></g></g></g></g></svg>