<svg xmlns="http://www.w3.org/2000/svg" xmlns:xlink="http://www.w3.org/1999/xlink" viewBox="0 0 256 256"><defs><path d="m -158.93 -30.656 c 0 6.678 -4.898 12.09 -10.941 12.09 -6.04 0 -10.941 -5.414 -10.941 -12.09 0 -6.678 4.898 -12.09 10.941 -12.09 5.984 0 10.858 5.314 10.94 11.928" id="0"/><filter id="2"><feGaussianBlur stdDeviation="0.84997"/></filter><filter id="3"><feGaussianBlur stdDeviation="0.35212"/></filter><filter id="1"><feGaussianBlur stdDeviation="0.6183"/></filter><linearGradient id="9"><stop style="stop-color:#fe6464"/><stop offset="0.538" style="stop-color:#fe6464;stop-opacity:0.607"/><stop offset="1" style="stop-color:#fe6464"/></linearGradient><linearGradient id="C" gradientUnits="userSpaceOnUse" gradientTransform="matrix(0.99588 0 0 1.23187 17.553 -105.86)" x1="194.98" x2="234.84"><stop style="stop-opacity:0.263"/><stop offset="1" style="stop-opacity:0.059"/></linearGradient><linearGradient id="D" gradientUnits="userSpaceOnUse" x1="213.4" x2="250.26"><stop style="stop-color:#fe6464"/><stop offset="1" style="stop-color:#fe6464;stop-opacity:0"/></linearGradient><linearGradient id="E" gradientUnits="userSpaceOnUse" x1="211.9" x2="251.76" xlink:href="#D"/><linearGradient id="7" gradientUnits="userSpaceOnUse" x1="19.893" y1="31.17" x2="19.689" y2="30.828"><stop/><stop offset="1" style="stop-color:#fe2e2e"/></linearGradient><linearGradient id="4" gradientUnits="userSpaceOnUse" x1="43.24" y1="17.376" x2="45.32" y2="22.251"><stop style="stop-color:#fe6464"/><stop offset="0.5" style="stop-color:#fe6464"/><stop offset="1" style="stop-color:#d30000"/></linearGradient><linearGradient id="B" gradientUnits="userSpaceOnUse" gradientTransform="matrix(0.99588 0 0 1.23187 17.553 -46.752)" x1="194.98" x2="234.84"><stop style="stop-opacity:0.28"/><stop offset="1" style="stop-color:#303030;stop-opacity:0"/></linearGradient><linearGradient id="5" gradientUnits="userSpaceOnUse" x1="40.33" y1="19.813" x2="42.02" y2="22.625"><stop style="stop-color:#fe2626"/><stop offset="1" style="stop-color:#fe1111"/></linearGradient><radialGradient xlink:href="#9" id="8" gradientUnits="userSpaceOnUse" gradientTransform="matrix(0.56151 0 0 0.60596 -24.841 -13.428)" cx="76.22" cy="48.15" r="12.01"/><radialGradient id="F" gradientUnits="userSpaceOnUse" gradientTransform="matrix(0.75668 0 0 0.10224 6.617 40.574)" cx="20.525" cy="40.44" r="19.563"><stop/><stop offset="1" style="stop-opacity:0"/></radialGradient><radialGradient id="6" gradientUnits="userSpaceOnUse" gradientTransform="matrix(2.92357 0 0 2.02972 -61.56 -27.884)" cx="29.05" cy="27.641" r="3.241"><stop style="stop-color:#fe4c4c"/><stop offset="1" style="stop-color:#fe4c4c;stop-opacity:0"/></radialGradient><radialGradient xlink:href="#9" id="A" gradientUnits="userSpaceOnUse" gradientTransform="matrix(0.56151 0 0 1.04222 -24.841 -32.435)" cx="59.9" cy="44.37" r="8.274"/></defs><g transform="translate(0 -796.36)"><path d="m 182.83 797.33 c -368.15 -25.644 -92.2 469.58 64.2 143.49 21.558 -50.25 5.804 -125.18 -64.2 -143.49 z" style="fill:#fff;color:#000"/><g transform="matrix(3.7027 0 0 3.38496 36.15 840.1)"><text line-height="125%" text-align="start" x="72.32" y="33.36" style="font-size:48;font-family:Georgia"><tspan y="33.36" x="72.32"/></text><g transform="matrix(1.0337 -0.27698 0.27698 1.0337 -22.09 14.759)"><path d="m 17.341,32.5 5.625,-5.625 20.09,-9.75 c 3.25,-1.25 5.188,3.375 2.313,5 l -20.03,9.375 -8,1 z" style="fill:#ff1717;stroke:#a70000;fill-rule:evenodd"/><path d="m 38.33 20 c 0 0 1.438 0.094 2 1.344 0.579 1.288 0 2.656 0 2.656 l 5.03 -2.469 c 0 0 1.452 -0.881 0.656 -2.844 -0.785 -1.936 -2.688 -1.156 -2.688 -1.156 l -5 2.469 z" style="fill:url(#4)"/><path d="m 38.33 20 c 0 0 1.438 0.094 2 1.344 0.579 1.288 0 2.656 0 2.656 l 2 -1 c 0 0 0.827 -1.319 0.219 -2.688 -0.625 -1.406 -2.219 -1.313 -2.219 -1.313 l -2 1 z" style="fill:url(#5)"/><path d="m 18.768,31.781 4.5,-4.5 c 1.5,0.813 2.281,2.156 1.875,3.719 l -6.375,0.781 z" style="fill:url(#6)"/><path d="m 20.11,30.375 -1.625,1.594 2.344,-0.313 c 0.219,-0.719 -0.188,-1.063 -0.719,-1.281 z" style="fill:url(#7)"/><g style="fill-opacity:0.364"><path d="m 23.268,27.25 1.563,1.25 15.387,-7.319 c -0.444,-0.856 -1.242,-1.085 -1.903,-1.162 l -15.05,7.231 z" style="fill:#fe4b4b"/><path d="m 25.14,31.06 0.188,-0.75 15.231,-7.13 c 0,0 -0.11,0.614 -0.216,0.749 l -15.203,7.13 z"/></g></g><path d="m 64.38 56.855 c -8.09 40.922 14.329 43.666 27.996 41.648 13.573 -2 17.248 -9.108 19.16 -25.2" transform="matrix(0.56151 0 0 0.51374 -24.841 -8.988)" style="stroke-opacity:0.823;fill:none;stroke:#560000;stroke-linecap:round;stroke-width:7;filter:url(#3)"/><g style="fill-opacity:0.801"><path d="m 46.07 105.82 c 0 18.445 -14.437 33.398 -32.25 33.398 -17.809 0 -32.25 -14.953 -32.25 -33.398 0 -18.445 14.437 -33.398 32.25 -33.398 17.638 0 32 14.677 32.24 32.944" transform="matrix(0.19575 0 0 0.19118 35.881 4.062)" style="filter:url(#2)"/><use height="256" width="256" xlink:href="#0" transform="matrix(0.24263 0.13399 -0.14094 0.21363 48.47 33.42)" style="filter:url(#1)"/></g><path d="m 82.52 36.513 c 0 0 5.613 24.339 -16.381 21.02" transform="matrix(0.56151 0 0 0.51374 -24.841 -8.988)" style="stroke-opacity:0.804;fill:none;stroke:#242424;stroke-linecap:round;stroke-width:7;filter:url(#3)"/><use height="256" width="256" xlink:href="#0" transform="matrix(0.24263 0.13399 -0.14094 0.21363 58.4 35.954)" style="fill-opacity:0.801;filter:url(#1)"/><path d="m 61.01 30.11 c 0 0 -18.09 17.224 2.094 26.57" transform="matrix(0.56151 0 0 0.51374 -24.841 -8.988)" style="stroke-opacity:0.804;fill:none;stroke:#242424;stroke-linecap:round;stroke-width:7;filter:url(#3)"/><path d="m 46.07 105.82 c 0 18.445 -14.437 33.398 -32.25 33.398 -17.809 0 -32.25 -14.953 -32.25 -33.398 0 -18.445 14.437 -33.398 32.25 -33.398 17.638 0 32 14.677 32.24 32.944" transform="matrix(0.19575 0 0 0.19118 36.764 4.562)" style="fill:#ff2f2f"/><path d="m -257.97 -87.66 c 0 5.088 -3.609 9.213 -8.06 9.213 -4.452 0 -8.06 -4.125 -8.06 -9.213 0 -5.088 3.609 -9.213 8.06 -9.213 4.41 0 8 4.049 8.06 9.09" transform="matrix(0.28816 0 0 0.24626 115.89 46.15)" style="fill:#560000;fill-opacity:0.824"/><path d="m 22.378 10.271 c 0 0 3.152 12.504 -9.198 10.801" style="fill:none;stroke:url(#8);stroke-linecap:round;stroke-width:3.76"/><use height="256" width="256" xlink:href="#0" transform="matrix(0.24263 0.13399 -0.14094 0.21363 59.29 36.455)" style="fill:#a70000"/><path d="m 10.298 6.98 c 0 0 -10.157 8.849 1.176 13.65" style="fill:none;stroke:url(#A);stroke-linecap:round;stroke-width:3.76"/><use height="256" width="256" xlink:href="#0" transform="matrix(0.24263 0.13399 -0.14094 0.21363 49.35 33.921)" style="fill:#560000;fill-opacity:0.824"/><rect width="11.883" height="31.883" x="-2.438" y="-48.45" ry="7.04" rx="5.105" transform="matrix(-0.27568 0.96125 -0.96125 -0.27568 0 0)" style="fill:#fe4b4b;stroke:#fe4b4b;stroke-width:0.768"/><g transform="matrix(-0.09173 0.31986 -0.31986 -0.09173 73.07 -55.53)"><rect rx="15.341" ry="21.15" y="19.555" x="213.72" height="95.82" width="35.713" style="fill:url(#B);stroke:url(#C);stroke-width:2.307"/><path d="m 229.3 19.986 h 5.05 c 8.534 0 15.405 7.659 15.405 17.17 v 31.31 c -17.17 -5.134 -22.22 -4.629 -35.86 0 v -31.31 c 0 -9.514 6.871 -17.17 15.405 -17.17 z" style="fill:url(#D);stroke:url(#E);stroke-width:2"/></g><path d="m 39.25 44.708 a 14.803 2 0 0 1 -29.605 0 14.803 2 0 1 1 29.605 0 z" style="fill:url(#F);opacity:0.2"/><g line-height="125%" text-align="start" style="letter-spacing:0;word-spacing:0;font-family:Georgia;font-weight:bold"><text x="18.528" y="2.411" transform="matrix(0.94515 0.32383 -0.32308 0.94734 0 0)" style="font-size:4.507;fill:#9c0000"><tspan line-height="125%" text-align="start" x="18.528" y="2.411" style="font-size:4.056;font-family:Casual;font-weight:normal">FreeMedForms</tspan></text><text x="18.494" y="2.444" transform="matrix(0.95707 0.3258 -0.33498 0.93083 0 0)" style="font-size:4.408;fill:#db0000"><tspan line-height="125%" text-align="start" x="18.494" y="2.444" style="font-size:3.967;font-family:Casual;font-weight:normal">FreeMedForms</tspan></text></g></g></g></svg>