<svg xmlns="http://www.w3.org/2000/svg" viewBox="0 0 256 256" xmlns:xlink="http://www.w3.org/1999/xlink"><g transform="matrix(-1 0 0 1 256 -796.36)"><path d="M 229.63,992.2 C 321.68,861.27 151.682,728.6 43.24,835.29 c -102.17,100.51 -7.449,256.68 119.69,207.86 26.526,-10.185 49.802,-26.914 66.7,-50.948 z" style="fill:#fff;color:#000"/><g transform="matrix(1.23494 0 0 1.43924 38.809 833.4)" style="fill:#ff4500"><g transform="matrix(4.62645 0 0 4.62645 -44.649 -36.827)" style="opacity:0.1"><path d="m 11,27 12,6 7,0 7,-6 z" id="0"/><path d="m 11,27 26,0 -1,1 -24,0 z" id="1"/><path d="M 25,27 V 17 c 0,0 -8.299,2.68 -8,6 0.268,2.969 8,4 8,4 z" id="2"/><path d="m 30 13 v 14 c 0 0 -9 -3.199 -9 -7 0 -3.801 9 -7 9 -7 z"/><path d="m 30,13 0,-2 -3,1 z" id="3"/></g><g transform="matrix(4.62645 0 0 4.62645 -49.28 -41.453)"><use xlink:href="#0"/><use xlink:href="#1"/><use xlink:href="#2"/><path d="m 30 13 v 14 c 0 0 -9 -3.199 -9 -7 0 -3.801 9 -7 9 -7 z" style="fill:#ffdead"/><use xlink:href="#3"/></g></g></g></svg>