<svg xmlns="http://www.w3.org/2000/svg" xmlns:xlink="http://www.w3.org/1999/xlink" viewBox="0 0 256 256"><defs><clipPath><path transform="matrix(15.33333 0 0 11.5 415 -125.5)" d="m -24 13 c 0 1.105 -0.672 2 -1.5 2 -0.828 0 -1.5 -0.895 -1.5 -2 0 -1.105 0.672 -2 1.5 -2 0.828 0 1.5 0.895 1.5 2 z"/></clipPath></defs><g style="fill:#f5f5f5"><path d="M 219.87,1024.74 C 311.92,893.81 141.922,761.14 33.48,867.83 c -102.17,100.51 -7.449,256.68 119.69,207.86 26.526,-10.185 49.802,-26.914 66.7,-50.948 z" transform="matrix(0.98635 0 0 0.98712 10.659 -816.18)" style="fill:#fff;color:#000"/></g><g transform="matrix(-4.9764 0 0 5.65302 236.69 12.5)"><path transform="matrix(1.01995 0 0 1.2314 -0.535 -5.275)" d="m 30.05 18.213 c 0 2.685 -2.434 4.861 -5.436 4.861 -3 0 -5.436 -2.177 -5.436 -4.861 0 -2.685 2.434 -4.861 5.436 -4.861 3 0 5.436 2.177 5.436 4.861 z" id="0" style="fill:#fe6464;opacity:0.896;stroke:#303030;fill-rule:evenodd;stroke-width:0.4"/><use transform="matrix(0.43144 0 0 0.51899 21.572 8.877)" xlink:href="#0"/><g style="stroke:#303030"><path d="m 21.92 23.693 c 3.447 4.11 4.817 4.95 4.817 4.95 l 3.757 1.591 l 1.414 -0.088 c 0 0 1.193 -1.812 1.237 -2.21 0.044 -0.398 0.442 -5.613 0.442 -5.613 l -0.133 -1.591 l -2.563 0.354 l -0.707 -1.061 l -0.751 -0.265 l -0.84 1.547 l -4.198 1.724 l -1.945 -0.133 h -0.442 z" style="fill:#ff4500"/><path d="m 14.849 27.406 l 1.458 -1.37 l 1.635 -1.193 l 2.21 -0.884 l 1.768 0.177 l 2.077 2.342 l 2.784 2.475 l 3.801 1.503 l 1.016 0.354 l -0.619 1.945 l -1.768 -0.177 l -14.407 -4.685 z" style="fill:#fe4848"/></g><g style="stroke:#fe0f0f"><path d="m 6.249 19.486 l 0.53 7.44 l 0.865 -0.021 l 1.9 -0.751 l 3.094 -1.989 l 1.989 -2.166 l 0.398 -0.044 l 0.088 0.221 l -5.171 4.552 l -0.265 0.221 l 4.464 0.53 l 1.635 -1.945 l 3.933 -1.945 l 1.856 -0.442 l 0.177 -0.575 l -2.386 -2.917 l -0.398 -3.491 l 0.751 -2.121 l 0.707 -1.061 l 1.149 -1.193 l 1.9 -0.751 l 2.033 -0.044 l 2.077 0.84 l 1.547 1.503 l 0.619 1.149 l 0.398 0.486 l 0.707 -0.707 l -0.265 -0.486 l -2.386 -2.828 l -3.182 -2.121 l -3.757 -1.016 l -1.503 0.221 l -4.861 2.607 l -5.347 4.95 l -1.591 1.989 l -0.216 0.528 l 1.011 -0.396 l 1.193 -0.53 l 0.088 0.265 z" style="fill:#ff4500"/><path d="m 33.55 27.473 l -1.373 4.52 c 0 0 0.257 0.172 0.572 0.315 0.315 0.143 2.289 0.114 2.289 0.114 l 0.286 -0.629 l -1.087 -3.977 l -0.429 -0.515 z" style="fill:#fe0f0f;stroke-width:0.915"/></g><path d="m 27.643 32.3 c -5.59 -2.72 -11.55 -4.228 -18.724 -4.737 -2.095 -0.149 -3.123 -0.291 -2.285 -0.315 c 0.838 -0.029 1.98 -0.281 2.539 -0.57 1.623 -0.839 4.3 -2.915 4.859 -3.768 0.283 -0.431 0.67 -0.784 0.861 -0.784 0.556 0 -2.34 2.796 -4 3.865 -0.836 0.537 -1.472 1.024 -1.415 1.082 0.058 0.058 1.137 0.228 2.398 0.379 l 2.293 0.273 l 0.808 -1.059 c 1.021 -1.338 3.689 -2.876 5.447 -3.14 0.743 -0.112 1.35 -0.347 1.35 -0.525 0 -0.177 -0.49 -0.865 -1.09 -1.528 -1.807 -2 -2.174 -4.179 -1.109 -6.587 0.791 -1.788 1.943 -2.764 3.868 -3.279 1.93 -0.516 4.01 0.239 5.221 1.9 1.294 1.769 1.295 1.77 1.815 1.339 0.421 -0.349 0.425 -0.509 0.029 -1.273 c -0.801 -1.548 -3.792 -3.995 -5.771 -4.721 -3.371 -1.236 -4.078 -1.214 -6.931 0.221 -3.56 1.791 -6.756 4.579 -9.959 8.69 -0.409 0.525 -0.369 0.529 0.746 0.063 2.29 -0.957 1.602 -0.285 -0.923 0.901 -1.967 0.924 -2.357 1.034 -1.688 0.476 0.479 -0.399 1.234 -1.226 1.678 -1.837 2.441 -3.36 7.158 -7.386 10.468 -8.935 c 1.817 -0.85 2.294 -0.947 3.771 -0.762 3.229 0.404 7.171 2.841 8.765 5.421 0.41 0.664 1 1.134 1.589 1.263 1.305 0.287 2.214 1.682 2.214 3.398 0 0.769 -0.179 1.641 -0.397 1.939 -0.613 0.835 -0.172 6.586 0.68 8.875 0.376 1.01 0.772 2.482 0.88 3.27 0.19 1.388 0.172 1.429 -0.563 1.259 -0.418 -0.097 -1.397 -0.212 -2.176 -0.256 -4.496 -0.976 3.638 1.61 -5.248 -0.536 z m 3.439 -0.892 c 0.172 -0.912 0.113 -1.032 -0.512 -1.034 -1.933 -0.008 -6.15 -2.783 -7.899 -5.197 -0.796 -1.099 -1.085 -1.28 -1.91 -1.193 -1.571 0.165 -3.599 1.179 -4.909 2.456 l -1.221 1.19 l 3.332 0.852 c 4.059 1.038 5.627 1.584 9.521 3.315 3.197 1.421 3.258 1.415 3.598 -0.387 z m 4.336 0.748 c 0 -0.491 -1.232 -4.619 -1.521 -5.096 -0.101 -0.166 -0.495 0.69 -0.877 1.904 -0.381 1.214 -0.794 2.444 -0.917 2.734 -0.254 0.601 0.25 0.806 2.124 0.864 0.824 0.029 1.19 -0.099 1.19 -0.406 z m -3.366 -2.508 c 0.754 -0.551 1.451 -3.658 1.457 -6.494 l 0.005 -2.305 l -1.234 0.198 c -1.01 0.161 -1.361 0.071 -1.931 -0.499 l -0.696 -0.696 l -1.072 1.252 c -1.382 1.615 -2.563 2.089 -4.748 1.908 -1.905 -0.158 -2.089 0.044 -1.22 1.344 1.527 2.286 3.491 3.881 6.106 4.957 2.064 0.849 2.561 0.899 3.333 0.335 z m -4.853 -7.604 c 1.963 -1.305 3.03 -4.531 2.21 -6.685 -0.563 -1.48 -2.176 -2.97 -3.669 -3.388 -1.239 -0.347 -1.629 -0.328 -2.852 0.139 -5.535 2.114 -4.247 10.651 1.607 10.651 1.157 0 1.936 -0.207 2.703 -0.717 z m -4.268 -3.355 c -0.794 -0.877 -0.657 -2.126 0.318 -2.893 1.344 -1.057 2.933 -0.196 2.955 1.599 0.02 1.643 -2.172 2.51 -3.273 1.294 z m 1.734 -0.451 c 0.021 -0.218 0.015 -0.575 -0.014 -0.793 -0.028 -0.218 0.106 -0.397 0.298 -0.397 0.192 0 0.27 -0.129 0.172 -0.287 -0.241 -0.391 -1.518 -0.057 -1.98 0.518 -0.206 0.256 -0.298 0.667 -0.204 0.912 0.212 0.552 1.676 0.593 1.727 0.049 z m 8.705 1.778 c 2.02 -2.178 -0.19 -6.609 -2.53 -5.076 -0.608 0.399 -0.766 0.838 -0.895 2.486 -0.134 1.706 -0.061 2.108 0.492 2.716 0.863 0.95 1.981 0.902 2.933 -0.126 z m -2.698 -1.206 c -0.5 -0.602 -0.31 -1.771 0.356 -2.188 1.099 -0.688 2.113 1.306 1.153 2.266 -0.508 0.508 -1.046 0.481 -1.509 -0.078 z" style="fill:#7e0000;opacity:0.896;stroke:#303030;stroke-width:0.4"/><g transform="matrix(-0.20095 0 0 0.1769 47.563 -2.211)" style="fill:#ffdead;stroke:#ffdead;fill-rule:evenodd;stroke-width:5.938"><path d="m 105.72 134.75 c -9.07 -4.291 -9.651 -4.939 -13.156 -14.671 -2.27 -6.304 -2.01 -16.843 0.55 -22.64 4.39 -9.925 16.362 -18.02 24.409 -16.515 8.608 1.615 16.94 9.999 19.839 19.963 2.707 9.303 0.815 19.964 -5.02 28.28 -4.783 6.819 -9.529 9.959 -14.811 9.799 -1.7 -0.051 -7.01 -1.95 -11.811 -4.219 z m 15.644 -13.728 c 5.475 -3.835 6.715 -13.18 2.443 -18.411 -6.718 -8.225 -17.1 -5.252 -18.285 5.236 -0.8 7.096 0.3 10.342 4.337 12.804 4.26 2.598 8.147 2.723 11.505 0.371 z"/><path d="m 75.932 127.27 c -3.309 -0.887 -7.593 -8.766 -7.593 -13.966 0 -6.639 5.684 -16.549 9.493 -16.549 2.399 0 7.863 6.089 7.863 8.763 0 2.318 -0.089 2.341 -2.08 0.539 -3.25 -2.941 -6.842 -1.777 -9.16 2.969 -1.797 3.679 -1.857 4.564 -0.542 8.02 1.988 5.223 4.305 6.587 8.501 5 3.915 -1.478 3.995 -1.219 0.908 2.956 -2.467 3.336 -2.902 3.47 -7.389 2.267 z"/></g></g></svg>