<svg xmlns="http://www.w3.org/2000/svg" viewBox="0 0 256 256"><defs><clipPath><path d="m 66 6 v 55 c 0 1.662 1.338 3 3 3 h 6 c 1.662 0 3 -1.338 3 -3 v -55 h -4 v 2 h -4 v -2 h -4 z"/></clipPath></defs><g transform="translate(0 -796.36)"><path d="m 44.834 833.49 c -201.82 266.38 353.59 304.22 175.35 32.31 -40.634 -61.991 -121.89 -102.86 -175.35 -32.31 z" style="fill:#fff;color:#000"/><g transform="matrix(1.63796 0 0 1.75665 44.13 851.01)" style="fill-rule:evenodd"><path d="m 12.757 27.596 v 26.1 h 31.718 v -26.1 h -31.718 z m 38.767 0 v 26.1 h 31.718 v -26.1 h -31.718 z m -38.767 31.905 v 26.1 h 31.718 v -26.1 h -31.718 z m 38.767 0 v 26.1 h 31.718 v -26.1 h -31.718 z" style="fill:#f00"/><path d="m 7.834 8.666 h 80.37 v 9.865 h -80.37 z" style="fill:#ff4500;opacity:0.8"/><path d="m 51.52 27.596 v 25.16 h 30.778 v -25.16 z" style="fill:#ffdead"/><path d="m 12.653 27.407 v 25.54 h 30.966 v -25.54 z" style="fill:#dc143c"/><g style="fill-opacity:0.992"><path d="m 51.52 59.6 v 25.16 h 30.778 v -25.16 z" style="fill:#ff4500"/><path d="m 12.686 59.48 v 25.16 h 30.778 v -25.16 z" style="fill:#ffa07a"/></g></g></g></svg>