<svg xmlns="http://www.w3.org/2000/svg" viewBox="0 0 256 256"><g transform="translate(0 -796.36)"><path d="m -1374.42 1658.71 c 127.95 -192.46 -280.09 -311 -226.07 -62.2 23.02 102.82 167.39 165.22 226.07 62.2 z" transform="matrix(0 1 1 0 -1455.48 2401.81)" style="fill:#fff;color:#000"/><g transform="matrix(1.72001 0 0 2.03035 -62.34 -931.87)"><path d="m 150.8 942.73 c -25.864 -9.949 -40.956 -13.76 -64.856 -16.375 -19.11 -2.091 -24.9 -3.857 -25.456 -7.764 -0.933 -6.558 23.712 -9.293 42.31 -4.695 16.15 3.991 34.734 12.08 48.5 21.11 8.522 5.588 11 7.808 11 9.852 0 2.027 -1.36 1.775 -11.5 -2.125 z m 4.857 -12.502 c -2.506 -0.936 -5.357 -4.678 -5.357 -7.03 0 -0.903 0.933 -2.828 2.073 -4.277 4.062 -5.164 12.976 -2.189 12.896 4.304 -0.06 4.848 -5.254 8.633 -9.611 7.01 z m -25.434 -10.867 c -2.164 -2.164 -2.923 -3.872 -2.923 -6.577 0 -5.03 4.423 -9.5 9.407 -9.5 5.204 0 9.743 4.316 9.887 9.403 0.089 3.144 -0.48 4.374 -3.108 6.723 -4.413 3.943 -9.289 3.925 -13.263 -0.048 z m -24.304 -8.185 c -6.814 -1.865 -10.03 -8.572 -7.279 -15.16 5.02 -12.01 23.663 -6.22 21.259 6.595 -1.133 6.04 -7.949 10.219 -13.98 8.568 z m -37.721 -6.174 c -4.824 -3.241 -6.784 -9.103 -4.792 -14.336 4.238 -11.134 19.91 -10.945 23.824 0.286 1.245 3.572 1.24 4.6 -0.036 7.952 -2.944 7.734 -12.157 10.692 -18.996 6.098 z" style="fill:#cbcccc"/><g style="fill:#ff4500;stroke:#ff4500"><path d="m 136.76 933.83 c -1.078 -0.815 -3.171 -1.496 -4.651 -1.513 -1.48 -0.018 -2.969 -0.482 -3.309 -1.032 -0.34 -0.55 -1.855 -1 -3.368 -1 -1.512 0 -3.623 -0.661 -4.691 -1.468 -1.068 -0.808 -3.433 -1.482 -5.257 -1.5 -1.824 -0.018 -4.233 -0.523 -5.354 -1.123 -2.086 -1.116 -8.378 -2.02 -29.12 -4.192 -11.218 -1.174 -13.633 -2.05 -13.693 -4.967 -0.019 -0.907 -0.771 -0.866 16.597 -0.922 8.51 -0.028 14.935 0.394 16.184 1.063 1.14 0.61 3.789 1.123 5.888 1.141 2.099 0.018 4.689 0.692 5.757 1.5 1.068 0.808 2.954 1.468 4.191 1.468 1.237 0 2.528 0.45 2.868 1 0.34 0.55 1.661 1 2.937 1 1.275 0 2.879 0.675 3.563 1.5 0.685 0.825 2.035 1.5 3 1.5 0.965 0 2.315 0.675 3 1.5 0.685 0.825 1.81 1.5 2.5 1.5 0.69 0 1.815 0.675 2.5 1.5 0.685 0.825 2.127 1.5 3.206 1.5 1.078 0 1.783 0.534 1.565 1.188 -0.616 1.848 -2.17 1.977 -4.311 0.358 z m 16.995 -6 c -4.366 -4.366 -2.053 -10.545 3.947 -10.545 6.411 0 8.951 7 3.963 10.927 -3.414 2.685 -4.916 2.613 -7.911 -0.382 z m -21.344 -6.941 c -5.619 -3.114 -6.674 -10.195 -2.187 -14.681 4.03 -4.03 9.12 -4.03 13.154 0 7.749 7.749 -1.393 19.988 -10.967 14.681 z m -27.09 -10.721 c -5.831 -2.327 -8.382 -8.183 -6.03 -13.852 3.284 -7.928 14.91 -8.142 18.896 -0.348 2.769 5.414 0.384 11.471 -5.482 13.921 -3.832 1.601 -4.045 1.609 -7.381 0.278 z m -37.785 -7.307 c -3.267 -2.994 -3.735 -3.995 -3.735 -7.981 0 -3.814 0.533 -5.091 3.269 -7.827 2.805 -2.805 3.966 -3.269 8.184 -3.269 4.04 0 5.444 0.507 7.888 2.848 7.729 7.405 2.581 19.652 -8.26 19.652 -2.717 0 -4.535 -0.847 -7.346 -3.423 z"/><path d="m 136.76 933.83 c -1.078 -0.815 -3.171 -1.496 -4.651 -1.513 -1.48 -0.018 -2.969 -0.482 -3.309 -1.032 -0.34 -0.55 -1.855 -1 -3.368 -1 -1.512 0 -3.623 -0.661 -4.691 -1.468 -1.068 -0.808 -3.433 -1.482 -5.257 -1.5 -1.824 -0.018 -4.233 -0.523 -5.354 -1.123 -2.086 -1.116 -8.378 -2.02 -29.12 -4.192 -11.218 -1.174 -13.633 -2.05 -13.693 -4.967 -0.019 -0.907 -0.771 -0.866 16.597 -0.922 8.51 -0.028 14.935 0.394 16.184 1.063 1.14 0.61 3.789 1.123 5.888 1.141 2.099 0.018 4.689 0.692 5.757 1.5 1.068 0.808 2.954 1.468 4.191 1.468 1.237 0 2.528 0.45 2.868 1 0.34 0.55 1.661 1 2.937 1 1.275 0 2.879 0.675 3.563 1.5 0.685 0.825 2.035 1.5 3 1.5 0.965 0 2.315 0.675 3 1.5 0.685 0.825 1.81 1.5 2.5 1.5 0.69 0 1.815 0.675 2.5 1.5 0.685 0.825 2.127 1.5 3.206 1.5 1.078 0 1.783 0.534 1.565 1.188 -0.616 1.848 -2.17 1.977 -4.311 0.358 z m -5.01 -16 c -3.34 -3.34 -3.264 -7.764 0.18 -10.473 5.356 -4.213 12.365 -1.213 12.365 5.292 0 6.795 -7.736 9.99 -12.545 5.181 z m -27.1 -8.49 c -5.335 -2.269 -7.181 -10.72 -3.261 -14.928 3.136 -3.366 6.608 -4.38 10.545 -3.081 4.27 1.409 6.359 4.406 6.359 9.12 0 6.822 -7.307 11.583 -13.643 8.888 z m -37.12 -6.478 c -3.267 -2.994 -3.735 -3.995 -3.735 -7.981 0 -3.814 0.533 -5.091 3.269 -7.827 2.805 -2.805 3.966 -3.269 8.184 -3.269 4.04 0 5.444 0.507 7.888 2.848 7.729 7.405 2.581 19.652 -8.26 19.652 -2.717 0 -4.535 -0.847 -7.346 -3.423 z"/></g><path d="m 136.76 933.83 c -1.078 -0.815 -3.171 -1.496 -4.651 -1.513 -1.48 -0.018 -2.969 -0.482 -3.309 -1.032 -0.34 -0.55 -1.855 -1 -3.368 -1 -1.512 0 -3.623 -0.661 -4.691 -1.468 -1.068 -0.808 -3.433 -1.482 -5.257 -1.5 -1.824 -0.018 -4.233 -0.523 -5.354 -1.123 -2.086 -1.116 -8.378 -2.02 -29.12 -4.192 -11.218 -1.174 -13.633 -2.05 -13.693 -4.967 -0.019 -0.907 -0.771 -0.866 16.597 -0.922 8.51 -0.028 14.935 0.394 16.184 1.063 1.14 0.61 3.789 1.123 5.888 1.141 2.099 0.018 4.689 0.692 5.757 1.5 1.068 0.808 2.954 1.468 4.191 1.468 1.237 0 2.528 0.45 2.868 1 0.34 0.55 1.661 1 2.937 1 1.275 0 2.879 0.675 3.563 1.5 0.685 0.825 2.035 1.5 3 1.5 0.965 0 2.315 0.675 3 1.5 0.685 0.825 1.81 1.5 2.5 1.5 0.69 0 1.815 0.675 2.5 1.5 0.685 0.825 2.127 1.5 3.206 1.5 1.078 0 1.783 0.534 1.565 1.188 -0.616 1.848 -2.17 1.977 -4.311 0.358 z m -5.01 -16 c -3.34 -3.34 -3.264 -7.764 0.18 -10.473 5.356 -4.213 12.365 -1.213 12.365 5.292 0 6.795 -7.736 9.99 -12.545 5.181 z m -27.1 -8.49 c -5.335 -2.269 -7.181 -10.72 -3.261 -14.928 3.136 -3.366 6.608 -4.38 10.545 -3.081 4.27 1.409 6.359 4.406 6.359 9.12 0 6.822 -7.307 11.583 -13.643 8.888 z m -33.889 -6.01 c -2.846 -1.154 -5.902 -7.184 -5.153 -10.169 1.162 -4.628 4.316 -6.881 9.635 -6.881 4.213 0 5.222 0.416 7.461 3.077 3.075 3.655 3.25 6.327 0.688 10.528 -2.375 3.894 -7.844 5.386 -12.631 3.445 z" style="fill:#bfbfbf"/><g style="fill:#ff4500"><path d="m 131.75 917.83 c -3.34 -3.34 -3.264 -7.764 0.18 -10.473 5.356 -4.213 12.365 -1.213 12.365 5.292 0 6.795 -7.736 9.99 -12.545 5.181 z m -27.1 -8.49 c -5.335 -2.269 -7.181 -10.72 -3.261 -14.928 3.136 -3.366 6.608 -4.38 10.545 -3.081 4.27 1.409 6.359 4.406 6.359 9.12 0 6.822 -7.307 11.583 -13.643 8.888 z m -33.889 -6.01 c -2.846 -1.154 -5.902 -7.184 -5.153 -10.169 1.162 -4.628 4.316 -6.881 9.635 -6.881 4.213 0 5.222 0.416 7.461 3.077 3.075 3.655 3.25 6.327 0.688 10.528 -2.375 3.894 -7.844 5.386 -12.631 3.445 z"/><path d="m 104.8 908.13 c -3.228 -1.766 -4.5 -3.988 -4.5 -7.862 0 -7.508 9.212 -11.29 14.45 -5.933 7.136 7.299 -1.057 18.659 -9.95 13.795 z m -34.03 -4.796 c -2.846 -1.154 -5.902 -7.184 -5.153 -10.169 1.162 -4.628 4.316 -6.881 9.635 -6.881 4.213 0 5.222 0.416 7.461 3.077 3.075 3.655 3.25 6.327 0.688 10.528 -2.375 3.894 -7.844 5.386 -12.631 3.445 z"/><path d="m 104.8 908.13 c -3.228 -1.766 -4.5 -3.988 -4.5 -7.862 0 -7.508 9.212 -11.29 14.45 -5.933 7.136 7.299 -1.057 18.659 -9.95 13.795 z"/><g style="fill-rule:evenodd"><path d="m 214.09 192.58 c -2.292 -0.401 -6.522 -2.058 -15.03 -5.891 -22.21 -10 -34.459 -14.979 -48.654 -19.771 -20.332 -6.864 -37.499 -10.673 -64.57 -14.327 -14.966 -2.02 -21.832 -3.187 -28.18 -4.79 -6.982 -1.763 -10.921 -3.521 -13.387 -5.975 -0.909 -0.904 -1.161 -1.244 -1.628 -2.195 -2.716 -5.524 0.893 -10.09 10.509 -13.312 5.113 -1.711 11.625 -2.823 19.896 -3.4 2.727 -0.19 11.606 -0.189 14.561 0.002 11.232 0.725 19.574 2.209 29.417 5.233 24.518 7.532 51.814 21.18 73.986 36.99 8.342 5.948 17.662 13.525 21.442 17.43 3.102 3.204 4.267 5.303 4.269 7.687 0.001 0.911 -0.042 1.165 -0.266 1.563 -0.396 0.704 -1.196 0.961 -2.36 0.757 z m -35.824 -22.64 c 1.16 -0.441 2.4 -2.698 2.085 -3.795 -0.254 -0.885 -1.099 -1.388 -2.592 -1.542 -2.095 -0.217 -3.57 -0.921 -4.924 -2.35 -2.897 -3.059 -3.411 -3.446 -4.969 -3.744 -0.492 -0.094 -1.094 -0.273 -1.34 -0.398 -0.912 -0.465 -1.958 -1.377 -2.868 -2.5 -1.59 -1.964 -3.251 -2.972 -5.271 -3.202 -0.549 -0.062 -1.295 -0.224 -1.657 -0.36 -0.998 -0.374 -2.342 -1.334 -3.102 -2.216 -1.093 -1.27 -1.616 -1.744 -2.5 -2.269 -1.209 -0.718 -2.318 -1.054 -4.106 -1.242 -1.821 -0.192 -1.988 -0.226 -3.072 -0.624 -0.726 -0.267 -0.953 -0.431 -1.835 -1.334 -0.553 -0.566 -1.219 -1.138 -1.48 -1.27 -0.888 -0.45 -2.083 -0.738 -3.532 -0.853 -2.638 -0.208 -4.672 -1.029 -7.082 -2.857 -2.332 -1.769 -5.371 -2.795 -9.09 -3.069 -3.465 -0.256 -4.476 -0.368 -5.926 -0.66 -1.803 -0.363 -3.559 -0.937 -4.853 -1.588 -1.509 -0.759 -3.684 -1.205 -7.755 -1.592 -5.991 -0.569 -10.165 -0.68 -25.16 -0.668 -17.701 0.014 -22.443 0.157 -23.38 0.705 l -0.355 0.208 l 0.003 1.295 c 0.002 1.036 0.058 1.454 0.276 2.094 1.076 3.151 4.595 4.797 13.453 6.289 3.509 0.591 7.329 1.116 16.04 2.205 24.485 3.059 36.3 4.946 41.19 6.58 0.68 0.227 1.828 0.729 2.551 1.114 2.47 1.318 5.152 2 9.06 2.303 4.119 0.321 6.685 1.155 9.114 2.963 2.708 2.02 4.786 2.779 8.395 3.08 2.245 0.187 3.035 0.365 4.242 0.954 0.62 0.303 0.97 0.566 1.264 0.951 0.224 0.293 0.54 0.638 0.704 0.766 0.874 0.687 3.232 1.406 4.633 1.411 2.714 0.01 6.087 1.25 8.405 3.09 2.123 1.685 3.197 2.23 4.402 2.235 0.403 0.002 0.866 -0.048 1.03 -0.11 z" transform="matrix(0.58139 0 0 0.49253 36.24 851.2)"/><path d="m 150.35 940.75 c -0.494 -0.167 -1.021 -0.487 -2.087 -1.266 -1.794 -1.313 -3.539 -1.925 -6.05 -2.124 -1.082 -0.086 -1.549 -0.182 -2.462 -0.51 -0.504 -0.181 -0.662 -0.288 -1.1 -0.747 -0.864 -0.905 -1.85 -1.265 -3.867 -1.411 -0.597 -0.043 -1.404 -0.132 -1.795 -0.198 -0.621 -0.105 -0.947 -0.198 -2.128 -0.61 -0.488 -0.17 -1.377 -0.673 -2.085 -1.18 -1.627 -1.164 -3.718 -1.843 -6.178 -2 -3.03 -0.199 -4.633 -0.548 -6.385 -1.388 -1.446 -0.693 -2.278 -0.978 -4.03 -1.382 -4.315 -0.991 -12.832 -2.199 -27.599 -3.916 -2.043 -0.238 -3.864 -0.451 -4.048 -0.474 -3.378 -0.425 -4.799 -0.61 -5.384 -0.701 -0.39 -0.061 -0.822 -0.127 -0.96 -0.147 -3.668 -0.527 -6.572 -1.285 -8.02 -2.093 -0.712 -0.397 -1.381 -1.046 -1.689 -1.638 -0.329 -0.631 -0.446 -1.211 -0.414 -2.05 0.023 -0.617 0.035 -0.654 0.248 -0.749 0.603 -0.271 3.01 -0.379 8.916 -0.401 2.318 -0.008 5.417 -0.033 6.886 -0.055 2.176 -0.032 12.723 0.091 13.814 0.161 0.161 0.01 0.799 0.044 1.419 0.075 0.62 0.031 1.258 0.068 1.419 0.083 0.161 0.015 0.799 0.068 1.419 0.117 1.394 0.111 3.238 0.357 4.159 0.556 0.382 0.083 1.138 0.343 1.68 0.578 1.884 0.818 3.887 1.231 6.659 1.373 3.286 0.168 5.426 0.797 7.336 2.156 1.534 1.091 3.195 1.707 4.955 1.838 1.621 0.12 2.385 0.386 3.151 1.093 0.241 0.223 0.438 0.433 0.438 0.467 0 0.034 0.197 0.188 0.438 0.342 0.644 0.411 1.54 0.662 2.703 0.757 2.234 0.182 3.516 0.798 4.864 2.338 0.804 0.919 1.948 1.513 3.27 1.698 1.753 0.246 2.576 0.748 4.158 2.534 0.383 0.433 1.154 1.01 1.706 1.272 0.177 0.085 0.552 0.188 0.835 0.229 0.863 0.126 1.418 0.438 2.308 1.298 1.477 1.428 1.903 1.805 2.162 1.913 0.142 0.059 0.258 0.131 0.258 0.159 0 0.15 1.329 0.553 2.16 0.656 0.493 0.061 1.03 0.163 1.194 0.227 0.36 0.141 0.702 0.503 0.777 0.824 0.128 0.546 -0.463 1.717 -1.095 2.169 -0.27 0.193 -0.392 0.224 -0.943 0.239 -0.415 0.011 -0.762 -0.026 -1.01 -0.11 z"/></g></g></g></g></svg>