<svg xmlns="http://www.w3.org/2000/svg" viewBox="0 0 256 256"><g transform="translate(0 -796.36)"><rect width="152.68" height="149.64" x="49.04" y="855.2" rx="12.231" ry="5.698" style="fill:#fff;stroke-width:1"/><g><g style="fill:#fff"><path d="m 122.74 1050.9 c -59.3 -10.443 -113.03 -61.54 -121.74 -115.77 -2.028 -12.62 -0.836 -34.629 2.479 -45.769 c 9.999 -33.607 33.18 -62.22 62.811 -77.53 29.41 -15.189 59.3 -16.52 90.996 -4.05 37.813 14.874 72.67 51.3 87.26 91.17 5.923 16.191 8.341 29.18 8.368 44.952 0.025 15.219 -1.095 22.949 -5.05 34.85 -12.345 37.13 -45.33 65.47 -84.08 72.26 -10.467 1.833 -30.27 1.774 -41.03 -0.122 z m -4.546 -104.39 c 0 -33.685 -0.237 -40.4 -1.483 -42.05 -1.093 -1.445 -1.492 -4.924 -1.515 -13.22 l -0.032 -11.259 l -4.798 -3.077 c -12.287 -7.881 -24.649 -11.63 -38.638 -11.719 l -9.596 -0.061 l -0.288 11.602 c -0.158 6.381 -0.727 12.04 -1.263 12.576 -0.594 0.594 -0.975 17 -0.975 42.03 v 41.06 l 11.364 0.624 c 13.42 0.736 19.801 2.439 30.05 8.02 14.642 7.969 14.397 7.866 15.831 6.676 1.074 -0.891 1.342 -9.106 1.342 -41.2 z m 9.861 0.098 l 0.264 -40.717 l -2.284 0.324 l -2.284 0.324 l -0.281 38.39 c -0.155 21.11 -0.025 39.439 0.289 40.726 0.37 1.519 1.177 2.223 2.302 2.01 1.596 -0.307 1.752 -3.522 1.996 -41.05 z m 64.7 32.915 l -0.311 -4.293 l -28.537 -0.268 l -28.537 -0.268 v 4.562 v 4.561 h 28.847 h 28.847 l -0.311 -4.293 z m 0.194 -12.879 v -4.04 h -28.789 h -28.789 v 4.04 v 4.04 h 28.789 h 28.789 v -4.04 z m -25.25 -13.13 v -4.04 h -16.16 h -16.16 v 4.04 v 4.04 h 16.16 h 16.16 v -4.04 z m 0 -12.12 v -4.04 h -16.16 h -16.16 v 4.04 v 4.04 h 16.16 h 16.16 v -4.04 z m 0 -13.13 v -4.04 h -16.16 h -16.16 v 4.04 v 4.04 h 16.16 h 16.16 v -4.04 z m 25.25 -12.12 v -4.04 h -28.789 h -28.789 v 4.04 v 4.04 h 28.789 h 28.789 v -4.04 z"/><g transform="translate(0 796.36)"><path d="m 112.69 90.13 c -1.339 -2.167 -16.497 -8.9 -24.672 -10.958 -5.107 -1.286 -11.718 -2.147 -16.485 -2.147 c -7.676 0 -7.948 -0.081 -7.636 -2.273 0.307 -2.16 0.749 -2.269 8.909 -2.202 9.794 0.081 18.798 2.176 28.28 6.582 8.924 4.144 14.14 7.89 14.14 10.152 0 2.032 -1.501 2.531 -2.542 0.846 z"/><path d="m 109.18 99.58 c -9.921 -5.993 -26.309 -10.435 -38.503 -10.435 h -7.088 l 0.32 -2.778 l 0.32 -2.778 l 8.586 0.071 c 10.491 0.087 19.16 2.257 29.799 7.458 10.05 4.915 12.918 7.165 12.468 9.796 -0.325 1.902 -0.678 1.822 -5.902 -1.334 z"/></g></g><g style="fill:#ff4500"><path d="m 104.31 982.41 c -13.259 -6.603 -19.988 -8.367 -35.08 -9.199 l -11.57 -0.638 l 0.063 -20.904 c 0.062 -20.67 1.478 -60.29 2.769 -77.49 l 0.667 -8.88 l 3.901 0.008 c 8.03 0.016 21.568 1.971 28.23 4.077 8.334 2.636 22.493 10.05 22.493 11.774 0 0.724 -2.567 -0.211 -6.124 -2.231 -11.987 -6.807 -27.733 -10.886 -40.04 -10.373 -6.284 0.262 -7.152 0.545 -7.437 2.425 -0.302 1.993 0.425 2.2 11.49 3.262 12.445 1.195 21.21 3.503 31.884 8.392 8.602 3.942 9.804 4.939 10.725 8.891 l 0.783 3.361 l -4.462 -3.048 c -10.161 -6.941 -28.681 -12.28 -42.71 -12.312 -7.64 -0.018 -7.683 -0.002 -8.134 2.897 l -0.454 2.914 l 11.363 1.112 c 14.534 1.423 21.928 3.285 34.06 8.58 l 9.784 4.269 l 1.291 5.582 c 0.911 3.939 1.199 16.926 0.979 44.13 -0.27 33.387 -0.529 38.572 -1.927 38.693 -0.888 0.077 -6.533 -2.309 -12.544 -5.302 z"/><path d="m 124.5 986.93 c -1.206 -0.449 -2.193 -19.933 -2.193 -43.3 0 -37.04 0.562 -42.48 4.385 -42.48 3.826 0 4.341 5.133 4.04 40.23 -0.333 38.724 -1.507 47.31 -6.232 45.546 z"/><path d="m 135.44 119.95 v -3.536 h 28.28 h 28.28 v 3.536 v 3.536 h -28.28 h -28.28 v -3.536 z" transform="translate(0 796.36)"/></g><path d="m 135.44 132.08 v -3.536 h 15.657 h 15.657 v 3.536 v 3.536 h -15.657 h -15.657 v -3.536 z" transform="translate(0 796.36)" style="fill:#ff7f50"/><path d="m 135.44 941.57 v -3.536 h 28.802 h 28.802 v 3.536 v 3.536 h -28.802 h -28.802 v -3.536 z" style="fill:#ff4500"/><g style="fill:#ff7f50"><path d="m 135.44 157.33 v -3.536 h 15.657 h 15.657 v 3.536 v 3.536 h -15.657 h -15.657 v -3.536 z" transform="translate(0 796.36)"/><path d="m 135.65 979.78 v -4.04 h 28.28 h 28.28 v 4.04 v 4.04 h -28.28 h -28.28 v -4.04 z"/></g><path d="m 135.62 966.64 v -4.04 h 28.28 h 28.28 v 4.04 v 4.04 h -28.28 h -28.28 v -4.04 z" style="fill:#ff4500"/><g transform="translate(0 796.36)" style="fill:#f90"><path d="m 63.53 83.29 c -0.014 1.746 -0.567 3.726 -0.28 5.425 3.01 1.631 6.906 0.694 10.204 1.244 13.572 0.852 26.943 4.847 38.551 11.972 1.24 1.219 3.625 1.04 3.482 -1.058 0.084 -4.268 -4.92 -5.888 -7.89 -7.797 c -11.651 -6.56 -24.876 -10.57 -38.33 -10.08 -1.874 0.202 -3.979 -0.402 -5.735 0.292"/><path d="m 67.918 71.949 c -2.248 -0.302 -5.419 1.11 -4.426 3.837 1.595 2.725 5.614 1.269 8.163 1.797 10.381 0.354 20.644 2.932 30.11 7.267 4.061 1.728 8.136 3.651 11.465 6.587 2.683 1.087 3.358 -3.193 1.458 -4.475 c -5.676 -5.479 -13.349 -8.29 -20.514 -11.279 -8.368 -3.132 -17.395 -3.769 -26.25 -3.733"/></g></g></g></svg>