<svg xmlns="http://www.w3.org/2000/svg" viewBox="0 0 256 256"><g transform="translate(0 -796.36)"><path d="m 117.3 1051.73 c 155.28 14.765 197.08 -234.25 37.632 -253.59 -146.61 -23.968 -222.12 201.75 -76.44 246.9 c 12.317 4.946 25.786 4.852 38.807 6.696 z" style="fill:#fff;color:#000"/><g transform="matrix(3.17054 0 0 3.58083 -520.06 -1628.14)" style="fill:#ff4500"><path d="m 182.24 693.81 v 26 l 11 11 v -11 h 26 v -26 z"/><g style="fill:#ffa07a;fill-rule:evenodd"><path d="m 204.24 711.81 v 17 h 17 l 5 5 v -5 v -2 v -15 h -22 z"/><g style="fill:#ff4500"><path d="m 206.24 718.31 h 4 v 4 h -4 z"/><path d="m 220.24 718.31 h 4 v 4 h -4 z"/><path d="m 213.24 718.31 h 4 v 4 h -4 z"/></g></g><g transform="translate(180.24 689.81)"><path d="m 13 41 l 1 1 v -11 h 10 v -1 h -11 z"/><g><path d="m 24,39 1,1 17,0 -1,-1 z"/><path d="m 46 44 l 1 1 v -22 l -1 -1 z"/></g><path d="m 39 4 l 1 1 v 17 h -1 z"/></g></g></g></svg>