<svg xmlns="http://www.w3.org/2000/svg" viewBox="0 0 256 256"><defs><clipPath><path d="m 148 97 h 77.63 v 24 h -77.62"/></clipPath><clipPath><path d="m 171 132 h 54.625 v 24 h -54.625"/></clipPath><clipPath><path d="m 27.707 56.824 h 82.29 v 139.69 h -82.29"/></clipPath><clipPath><path d="m 74 56.824 h 129 v 139.69 h -129"/></clipPath></defs><g transform="translate(0 -796.36)"><path d="m 229.63 992.2 c 92.05 -130.93 -77.948 -263.6 -186.39 -156.91 -102.17 100.51 -7.449 256.68 119.69 207.86 26.526 -10.185 49.802 -26.914 66.7 -50.948 z" style="fill:#fff;color:#000"/><g transform="matrix(4.04929 0 0 3.67142 -59.26 844.05)"><path d="m 34.503 41.09 c -6.355 -3.206 -9.122 -13.888 -6.01 -23.2 1.629 -4.871 8.333 -11.283 13.82 -13.217 2.442 -0.861 7.607 -1.822 11.477 -2.136 l 7.04 -0.571 l 1.984 3.293 c 1.713 2.845 1.914 4.444 1.478 11.728 -0.598 9.978 -3.105 16.651 -7.831 20.847 -5.667 5.03 -15.551 6.495 -21.956 3.263 z m 15.275 -3.322 c 3.211 -0.987 7.211 -4.766 9.233 -8.725 0.929 -1.819 0.309 -1.492 -2.576 1.36 -3.845 3.802 -10.777 7.471 -14.11 7.471 -1 0 -2.111 0.474 -2.466 1.053 -0.694 1.133 4.402 0.539 9.923 -1.159 z m -14.295 -1.815 c 0 -0.513 -0.387 -1.173 -0.86 -1.468 -0.472 -0.295 -1.366 -2.57 -1.986 -5.05 -1.936 -7.766 1.569 -15.591 9.174 -20.48 2.682 -1.724 2.736 -1.848 0.532 -1.237 -3.263 0.905 -9.342 6.891 -11.361 11.188 -1.835 3.904 -1.461 14.01 0.61 16.535 1.328 1.617 3.89 1.957 3.89 0.517 z m 15.927 -8.909 c 1.482 -0.75 2.695 -1.754 2.695 -2.23 0 -0.976 -2.459 0.237 -5.391 2.658 -2.147 1.774 -1.429 1.66 2.695 -0.428 z m 1.715 -7.692 v -2.634 l -2.94 2.845 c -1.617 1.565 -2.94 3.442 -2.94 4.17 0 1.06 0.588 1.018 2.94 -0.211 2.149 -1.123 2.94 -2.244 2.94 -4.17 z m -11.12 -1.421 c 1.232 -1.169 4.348 -2.698 6.92 -3.398 4.04 -1.097 4.266 -1.282 1.653 -1.339 -3.283 -0.072 -11.291 3.733 -11.93 5.669 -0.605 1.832 0.872 1.422 3.354 -0.932 z m 1.455 -5.772 c 2.932 -1.343 6.58 -1.99 11.623 -2.065 6.164 -0.089 6.881 -0.259 4.411 -1.054 -4.826 -1.554 -21.07 1.658 -21.07 4.167 0 1.226 0.139 1.198 5.04 -1.047 z m 14.8 -7.651 c -1.219 -0.237 -2.984 -0.228 -3.921 0.02 -0.937 0.247 0.061 0.441 2.217 0.431 2.156 -0.011 2.923 -0.214 1.703 -0.45 z" style="fill:#ffe4c4"/><path d="m 35.431 41.29 c -5.27 -2.333 -7.212 -5.696 -7.767 -13.455 -0.634 -8.86 0.819 -12.854 6.662 -18.319 4.101 -3.836 5.896 -4.735 12.311 -6.162 4.131 -0.919 9.22 -1.527 11.311 -1.352 3.204 0.269 4.076 0.868 5.554 3.819 1.5 2.995 1.635 4.845 0.936 12.829 -0.987 11.267 -4.081 17.285 -10.792 20.992 -5.392 2.978 -13.543 3.715 -18.215 1.647 z m 18.356 -5.167 c 5.413 -3.825 7.942 -9.06 8.05 -16.672 0.082 -5.594 -0.085 -6.102 -1.91 -5.811 -2.822 0.45 -4.5 3.01 -4.5 6.872 0 1.889 -0.51 3.309 -1.188 3.309 -2.182 0 -7.706 4.444 -8.258 6.643 -0.3 1.194 -0.85 2.966 -1.223 3.938 -0.53 1.38 -0.301 1.622 1.048 1.104 0.949 -0.364 1.482 -0.268 1.185 0.213 -0.297 0.481 -2.105 1.169 -4.02 1.527 -6.266 1.176 -5.492 2.952 0.994 2.283 4.117 -0.425 7.03 -1.434 9.816 -3.406 z m -14.06 -3.919 c 2.088 -3.076 4.056 -6.894 4.374 -8.484 0.555 -2.777 7.27 -9.899 9.333 -9.899 0.548 0 0.997 -0.5 0.997 -1.111 0 -1.399 -6.257 -0.324 -10.308 1.771 -4.202 2.173 -4.398 0.94 -0.258 -1.619 2.602 -1.608 4.933 -2.145 8.803 -2.029 8.733 0.263 9.764 0.092 9.764 -1.615 0 -1.379 -1.149 -1.536 -8.25 -1.122 -4.538 0.264 -9.375 0.766 -10.75 1.115 -1.375 0.349 -0.7 -0.259 1.5 -1.351 4.454 -2.211 3.873 -2.547 -1.719 -0.994 -8.381 2.328 -13.781 10.08 -13.781 19.781 0 5.978 2.486 11.192 5.323 11.163 0.648 -0.007 2.886 -2.529 4.973 -5.605 z m 10.63 -8.844 c 2.697 -1.395 4.929 -6.538 2.837 -6.538 -1.178 0 -6.763 5.868 -6.763 7.106 0 1.224 0.641 1.131 3.926 -0.567 z m 10.574 -18.538 c -0.34 -0.55 -2.643 -1 -5.118 -1 -2.745 0 -4.259 0.39 -3.882 1 0.34 0.55 2.643 1 5.118 1 2.745 0 4.259 -0.39 3.882 -1 z" style="fill:#ff4500"/></g></g></svg>