<svg xmlns="http://www.w3.org/2000/svg" viewBox="0 0 256 256"><defs><clipPath><path d="m -24 13 c 0 1.105 -0.672 2 -1.5 2 -0.828 0 -1.5 -0.895 -1.5 -2 0 -1.105 0.672 -2 1.5 -2 0.828 0 1.5 0.895 1.5 2 z" transform="matrix(15.33333 0 0 11.5 415 -125.5)"/></clipPath></defs><g transform="translate(0 -796.36)"><path d="m 99.17 1050.5 c -45.18 -7.956 -73.3 -34 -89.3 -82.72 -9.252 -28.17 -8.858 -51.42 1.292 -76.31 15.273 -37.462 64.31 -77.81 108.24 -89.07 9.905 -2.537 25.11 -3.669 35.909 -2.672 32.08 2.96 64.63 28.641 83.16 65.61 7.467 14.895 13.659 34.471 16.211 51.26 1.767 11.623 1.76 35.788 -0.014 46.698 -4.319 26.555 -17.733 46.35 -42.951 63.37 -29.83 20.14 -76.913 30.11 -112.55 23.834 z" style="fill:#fff"/><path d="m 98.84 199.72 c -0.244 -0.071 -0.444 -0.206 -0.444 -0.302 0 -0.095 -0.35 -0.328 -0.778 -0.517 -0.89 -0.394 -3.531 -3 -3.531 -3.486 0 -0.177 -0.504 -0.856 -1.12 -1.508 -0.929 -0.984 -1.229 -1.159 -1.756 -1.026 -0.53 0.133 -0.678 0.381 -0.892 1.49 -0.141 0.732 -0.33 2.216 -0.42 3.299 l -0.165 1.969 l -1.562 -1.588 c -0.859 -0.874 -1.695 -1.84 -1.857 -2.147 -0.344 -0.649 -0.748 -1.165 -1.542 -1.966 -0.314 -0.316 -0.57 -0.699 -0.57 -0.851 0 -0.151 -0.153 -0.366 -0.34 -0.478 -0.187 -0.111 -0.551 -0.687 -0.809 -1.28 -0.258 -0.592 -0.554 -1.077 -0.657 -1.077 -0.104 0 -0.333 -0.399 -0.509 -0.887 -0.176 -0.488 -0.389 -0.887 -0.471 -0.887 -0.083 0 -0.362 -0.513 -0.621 -1.14 -0.259 -0.627 -0.547 -1.141 -0.64 -1.141 -0.093 0 -0.325 -0.57 -0.515 -1.267 -0.19 -0.697 -0.43 -1.267 -0.535 -1.267 -0.104 0 -0.375 -0.656 -0.602 -1.457 -0.227 -0.802 -0.578 -1.818 -0.78 -2.259 -0.202 -0.441 -0.441 -1.5 -0.53 -2.352 -0.089 -0.853 -0.259 -1.61 -0.379 -1.684 -0.305 -0.188 -0.271 -4.095 0.037 -4.286 0.315 -0.195 0.33 -1.253 0.025 -1.841 -0.125 -0.242 -0.342 -1.339 -0.482 -2.437 -0.139 -1.098 -0.365 -2.068 -0.5 -2.154 -0.136 -0.087 -0.33 -0.54 -0.431 -1.01 -0.101 -0.467 -0.375 -1.04 -0.608 -1.273 -0.233 -0.233 -0.575 -0.934 -0.76 -1.558 -0.185 -0.624 -0.481 -1.305 -0.659 -1.515 -0.178 -0.209 -0.473 -0.979 -0.657 -1.711 -0.183 -0.732 -0.404 -1.331 -0.491 -1.331 -0.087 0 -0.309 -0.599 -0.495 -1.331 -0.186 -0.732 -0.448 -1.402 -0.583 -1.49 -0.233 -0.151 -0.569 -1.389 -0.869 -3.199 -0.075 -0.453 -0.223 -0.824 -0.329 -0.824 -0.106 0 -0.333 -0.713 -0.504 -1.584 -0.171 -0.871 -0.391 -1.641 -0.487 -1.711 -0.155 -0.112 -0.461 -1.433 -1.29 -5.576 -0.126 -0.627 -0.229 -3.25 -0.229 -5.829 -0.001 -4.352 0.131 -6.548 0.706 -11.785 0.122 -1.115 0.31 -3.054 0.416 -4.309 0.106 -1.255 0.281 -2.339 0.387 -2.41 0.107 -0.071 0.321 -1.264 0.476 -2.651 0.155 -1.387 0.375 -2.583 0.489 -2.659 0.114 -0.076 0.285 -0.708 0.379 -1.405 0.346 -2.563 0.601 -3.731 0.849 -3.891 0.238 -0.153 0.393 -0.729 0.745 -2.762 0.078 -0.453 0.244 -0.824 0.367 -0.824 0.124 0 0.415 -0.684 0.647 -1.521 0.233 -0.836 0.518 -1.521 0.635 -1.521 0.117 0 0.212 -0.221 0.212 -0.492 0 -0.271 0.114 -0.562 0.253 -0.649 0.139 -0.086 0.253 -0.378 0.253 -0.649 0 -0.271 0.099 -0.492 0.219 -0.492 0.12 0 0.415 -0.513 0.655 -1.14 0.24 -0.627 0.519 -1.14 0.621 -1.14 0.102 0 0.342 -0.399 0.533 -0.887 0.191 -0.488 0.444 -0.887 0.56 -0.887 0.117 0 0.321 -0.285 0.453 -0.634 0.132 -0.348 0.358 -0.634 0.501 -0.634 0.143 0 0.263 -0.143 0.266 -0.317 0.006 -0.321 0.711 -1.244 2.211 -2.9 0.453 -0.5 0.824 -1.064 0.824 -1.254 0 -0.19 0.163 -0.345 0.363 -0.345 0.2 0 0.435 -0.228 0.524 -0.507 0.088 -0.279 0.248 -0.507 0.355 -0.507 0.192 0 2.1 -1.633 3.775 -3.231 0.475 -0.453 0.937 -0.824 1.028 -0.824 0.091 0 0.564 -0.342 1.052 -0.76 0.488 -0.418 1.03 -0.759 1.204 -0.76 0.174 0 0.317 -0.117 0.317 -0.26 0 -0.143 0.285 -0.368 0.634 -0.501 0.348 -0.132 0.634 -0.336 0.634 -0.453 0 -0.117 0.399 -0.369 0.887 -0.56 0.488 -0.191 0.887 -0.433 0.887 -0.537 0 -0.104 0.227 -0.261 0.505 -0.349 0.278 -0.088 0.654 -0.295 0.837 -0.461 0.546 -0.495 3.407 -1.948 3.836 -1.948 0.219 0 0.398 -0.105 0.398 -0.234 0 -0.129 0.399 -0.366 0.887 -0.527 0.488 -0.161 0.887 -0.38 0.887 -0.486 0 -0.106 0.627 -0.344 1.394 -0.528 0.767 -0.184 1.394 -0.412 1.394 -0.507 0 -0.095 0.627 -0.313 1.394 -0.485 0.767 -0.172 1.394 -0.398 1.394 -0.503 0 -0.105 1.09 -0.346 2.421 -0.535 1.332 -0.189 2.479 -0.437 2.549 -0.551 0.168 -0.272 11.756 -0.27 11.756 0.002 0 0.115 1.625 0.36 3.612 0.544 1.986 0.184 3.672 0.427 3.745 0.538 0.074 0.112 0.929 0.28 1.901 0.374 0.972 0.094 2.109 0.318 2.527 0.498 0.418 0.18 1.16 0.394 1.647 0.475 0.488 0.081 1.315 0.22 1.837 0.308 0.523 0.089 0.95 0.252 0.95 0.363 0 0.111 0.627 0.332 1.394 0.491 0.767 0.159 1.394 0.381 1.394 0.492 0 0.111 0.513 0.346 1.141 0.522 0.627 0.176 1.14 0.405 1.14 0.509 0 0.104 0.371 0.342 0.824 0.528 0.453 0.186 0.938 0.43 1.077 0.541 0.592 0.474 2.192 1.463 2.367 1.463 0.212 0 1.113 0.65 1.844 1.331 0.262 0.244 0.562 0.444 0.667 0.444 0.105 0 0.497 0.264 0.872 0.587 0.375 0.323 0.989 0.807 1.364 1.077 0.375 0.27 0.952 0.718 1.283 0.997 0.331 0.279 1.077 0.906 1.658 1.394 1.802 1.512 5.244 5.068 5.409 5.588 0.086 0.272 0.252 0.495 0.369 0.495 0.31 0 0.768 1.463 0.768 2.452 0 0.679 0.13 0.905 0.634 1.096 0.348 0.132 0.634 0.35 0.634 0.484 0 0.133 0.232 0.316 0.515 0.406 0.284 0.09 0.739 0.403 1.012 0.697 l 0.496 0.533 l 1.104 -0.551 c 0.607 -0.303 1.463 -0.623 1.903 -0.711 0.439 -0.088 0.799 -0.253 0.799 -0.366 0 -0.113 0.519 -0.284 1.153 -0.379 0.634 -0.095 1.292 -0.312 1.461 -0.481 0.169 -0.169 0.791 -0.384 1.381 -0.476 0.59 -0.092 1.558 -0.242 2.15 -0.333 0.592 -0.091 1.144 -0.266 1.225 -0.391 0.082 -0.124 1.279 -0.348 2.661 -0.498 1.382 -0.149 2.592 -0.398 2.689 -0.553 0.259 -0.412 14.946 -0.405 15.443 0.007 0.201 0.166 1.093 0.42 1.984 0.563 0.891 0.143 1.685 0.359 1.765 0.478 0.08 0.12 0.859 0.367 1.73 0.549 0.871 0.182 1.584 0.428 1.584 0.546 0 0.118 0.513 0.344 1.141 0.502 0.627 0.158 1.14 0.388 1.14 0.511 0 0.123 0.143 0.228 0.317 0.233 0.601 0.018 6.509 3.251 7.225 3.953 0.175 0.172 0.546 0.385 0.824 0.473 0.278 0.088 0.505 0.248 0.505 0.356 0 0.108 0.3 0.332 0.666 0.499 0.366 0.167 0.613 0.357 0.548 0.422 -0.167 0.167 -1.721 -0.401 -1.721 -0.629 0 -0.104 -0.456 -0.325 -1.014 -0.492 -0.558 -0.167 -1.014 -0.408 -1.014 -0.536 0 -0.127 -0.395 -0.306 -0.878 -0.397 -0.483 -0.091 -1 -0.313 -1.151 -0.493 -0.15 -0.181 -0.781 -0.479 -1.403 -0.662 -0.622 -0.184 -1.13 -0.414 -1.13 -0.512 0 -0.098 -0.371 -0.257 -0.824 -0.354 -0.453 -0.097 -1.323 -0.4 -1.934 -0.675 -0.61 -0.275 -1.494 -0.562 -1.964 -0.638 -0.47 -0.076 -0.854 -0.225 -0.854 -0.33 0 -0.105 -0.77 -0.335 -1.711 -0.511 -0.941 -0.176 -1.772 -0.413 -1.847 -0.527 -0.075 -0.114 -1.244 -0.344 -2.598 -0.511 -1.354 -0.166 -2.461 -0.398 -2.461 -0.515 0 -0.292 -9.821 -0.272 -9.927 0.02 -0.047 0.128 -0.991 0.358 -2.1 0.511 -1.108 0.153 -2.078 0.38 -2.155 0.504 -0.077 0.124 -0.572 0.307 -1.102 0.406 -0.529 0.099 -1.099 0.313 -1.267 0.476 -0.167 0.162 -0.807 0.444 -1.422 0.625 -0.615 0.181 -1.279 0.491 -1.475 0.688 -0.197 0.197 -0.572 0.358 -0.834 0.358 -0.262 0 -0.567 0.145 -0.679 0.322 -0.111 0.177 -0.516 0.46 -0.9 0.628 -0.792 0.348 -0.94 1.077 -0.219 1.077 0.263 0 0.805 0.17 1.204 0.379 0.399 0.208 0.9 0.379 1.113 0.38 0.213 0.001 0.613 0.16 0.889 0.353 0.276 0.193 0.986 0.497 1.577 0.674 0.591 0.177 1.075 0.4 1.075 0.495 0 0.095 0.45 0.321 1 0.503 0.55 0.182 1.06 0.485 1.133 0.674 0.073 0.189 0.346 0.344 0.608 0.344 0.262 0 0.739 0.228 1.061 0.507 0.321 0.279 0.673 0.507 0.781 0.507 0.108 0 0.347 0.143 0.531 0.317 0.184 0.174 0.674 0.488 1.088 0.697 0.414 0.209 0.942 0.551 1.174 0.76 0.604 0.546 1.561 1.28 1.995 1.531 0.205 0.119 0.311 0.278 0.235 0.354 -0.17 0.17 -1.49 -0.422 -1.493 -0.669 -0.001 -0.098 -0.43 -0.379 -0.952 -0.624 -0.523 -0.245 -1.101 -0.593 -1.285 -0.772 -0.184 -0.18 -0.433 -0.326 -0.552 -0.326 -0.119 0 -0.37 -0.143 -0.557 -0.317 -0.187 -0.174 -1.136 -0.701 -2.109 -1.17 -0.973 -0.47 -2.072 -1.011 -2.442 -1.204 -0.739 -0.385 -1.735 -0.468 -1.735 -0.146 0 0.24 1.198 1.744 1.837 2.306 0.244 0.214 0.444 0.528 0.444 0.696 0 0.168 0.159 0.465 0.354 0.66 0.362 0.362 1.166 3.131 1.166 4.01 0 0.269 0.143 0.731 0.317 1.026 0.253 0.429 0.253 0.56 0 0.651 -0.174 0.063 -0.317 0.376 -0.317 0.696 0 0.692 -0.646 2.317 -1.01 2.542 -0.453 0.28 -0.277 1.144 0.376 1.848 0.348 0.376 0.634 0.774 0.634 0.885 0 0.111 0.342 0.536 0.76 0.944 0.418 0.409 0.76 0.859 0.76 0.999 0 0.141 0.268 0.431 0.595 0.646 0.327 0.214 0.713 0.645 0.858 0.956 0.252 0.543 1 1.468 2.793 3.439 0.453 0.499 0.824 0.987 0.824 1.085 0 0.176 0.694 0.975 3.231 3.715 0.732 0.791 1.331 1.524 1.331 1.631 0 0.17 1.479 1.746 5.126 5.46 0.582 0.592 1.131 1.077 1.221 1.077 0.09 0 0.495 0.285 0.9 0.633 0.405 0.348 0.879 0.633 1.053 0.634 0.174 0 0.318 0.086 0.319 0.19 0.002 0.228 1.23 0.824 1.696 0.824 0.181 0 0.33 0.105 0.33 0.234 0 0.129 0.399 0.366 0.887 0.527 0.488 0.161 0.887 0.38 0.887 0.486 0 0.106 0.627 0.344 1.394 0.528 0.767 0.184 1.394 0.415 1.394 0.514 0 0.099 0.681 0.314 1.513 0.478 0.832 0.164 1.571 0.392 1.642 0.506 0.071 0.115 0.715 0.287 1.432 0.382 0.716 0.095 1.254 0.221 1.194 0.281 -0.06 0.06 -3.694 0.237 -8.08 0.395 -4.382 0.158 -8.08 0.388 -8.209 0.513 -0.318 0.298 -32.403 0.298 -32.72 0 -0.132 -0.125 -1.78 -0.359 -3.662 -0.521 -1.882 -0.162 -3.459 -0.402 -3.506 -0.534 -0.047 -0.132 -0.469 -0.24 -0.938 -0.24 -0.993 0 -3.313 -0.437 -4.046 -0.762 -0.279 -0.124 -1.191 -0.364 -2.028 -0.534 -0.836 -0.17 -1.635 -0.392 -1.774 -0.492 -0.139 -0.101 -0.909 -0.328 -1.711 -0.505 -0.802 -0.177 -1.457 -0.405 -1.457 -0.507 0 -0.102 -0.371 -0.249 -0.824 -0.328 -1.864 -0.322 -2.471 -0.487 -2.471 -0.672 0 -0.107 -0.513 -0.324 -1.141 -0.482 -0.627 -0.158 -1.14 -0.385 -1.14 -0.505 0 -0.12 -0.366 -0.291 -0.813 -0.381 -0.689 -0.138 -4.293 -1.739 -5.523 -2.454 -0.209 -0.121 -0.779 -0.405 -1.267 -0.629 -0.488 -0.225 -1.058 -0.512 -1.267 -0.639 -0.209 -0.127 -0.808 -0.415 -1.331 -0.64 -0.523 -0.225 -0.95 -0.498 -0.95 -0.607 0 -0.109 -0.264 -0.265 -0.587 -0.346 -0.323 -0.081 -0.853 -0.379 -1.179 -0.661 -0.326 -0.283 -0.74 -0.514 -0.921 -0.514 -0.181 0 -0.42 -0.143 -0.531 -0.317 -0.111 -0.174 -0.541 -0.488 -0.955 -0.697 -0.414 -0.209 -0.937 -0.551 -1.162 -0.76 -0.225 -0.209 -0.669 -0.551 -0.987 -0.76 -0.563 -0.371 -2.151 -1.546 -2.69 -1.99 -0.148 -0.122 -0.528 -0.361 -0.844 -0.53 -0.316 -0.169 -0.765 -0.464 -0.998 -0.656 -0.477 -0.393 -2.947 -2.272 -3.967 -3.02 -0.369 -0.27 -0.905 -0.694 -1.192 -0.943 -0.287 -0.248 -0.735 -0.52 -0.998 -0.603 -0.262 -0.083 -0.477 -0.25 -0.477 -0.371 0 -0.121 -0.227 -0.291 -0.505 -0.38 -0.278 -0.088 -0.696 -0.351 -0.93 -0.585 -0.626 -0.626 -5.645 -0.79 -6.232 -0.203 -0.224 0.224 -0.508 0.407 -0.633 0.407 -0.541 0 -1.479 1.523 -1.873 3.041 -0.333 1.285 -0.432 1.466 -0.45 0.824 -0.012 -0.453 -0.131 -0.824 -0.264 -0.824 -0.133 0 -0.311 -0.428 -0.395 -0.95 -0.366 -2.274 -0.26 -2.15 -1.718 -2.01 -1.744 0.164 -2.756 0.435 -3.171 0.85 -0.187 0.187 -0.521 0.339 -0.744 0.339 -0.222 0 -0.585 0.17 -0.806 0.377 -1.088 1.021 -2.182 1.904 -2.359 1.904 -0.108 0 -0.197 0.143 -0.197 0.319 0 0.175 -0.428 0.712 -0.95 1.192 l -0.95 0.874 l 0.073 2.356 c 0.067 2.165 -0.121 2.846 -0.58 2.102 -0.086 -0.139 -0.378 -0.253 -0.649 -0.253 -0.271 0 -0.492 -0.114 -0.492 -0.253 0 -0.139 -0.171 -0.253 -0.38 -0.253 -0.209 0 -0.38 0.087 -0.38 0.193 0 0.106 -0.249 0.306 -0.554 0.444 -0.305 0.138 -0.663 0.592 -0.797 1.01 -0.134 0.418 -0.385 0.844 -0.558 0.947 -0.173 0.103 -0.389 0.587 -0.481 1.077 -0.092 0.49 -0.253 0.891 -0.358 0.891 -0.214 0 -0.671 1.221 -0.926 2.471 -0.092 0.453 -0.252 0.824 -0.355 0.824 -0.103 0 -0.343 0.57 -0.533 1.267 -0.19 0.697 -0.417 1.267 -0.505 1.267 -0.088 0 -0.312 0.599 -0.497 1.331 -0.186 0.732 -0.428 1.39 -0.538 1.462 -0.411 0.269 -0.994 6.307 -0.989 10.249 0.005 4.112 0.57 10.25 0.968 10.512 0.119 0.079 0.291 0.448 0.382 0.822 0.091 0.374 0.319 0.832 0.506 1.019 0.187 0.187 0.476 0.594 0.642 0.905 0.166 0.311 0.461 0.565 0.656 0.565 0.194 0 0.506 0.153 0.692 0.339 0.258 0.258 2.086 0.383 7.685 0.524 6.618 0.167 8.679 0.305 11.527 0.774 3.53 0.582 4.309 0.747 4.309 0.917 0 0.106 0.371 0.272 0.824 0.369 0.453 0.097 1.028 0.391 1.277 0.654 0.249 0.263 0.561 0.477 0.692 0.477 0.224 0 1.501 1.221 2.215 2.117 0.176 0.221 0.452 0.975 0.614 1.676 0.162 0.701 0.389 1.275 0.504 1.275 0.115 0 0.21 1.711 0.21 3.802 0 2.2 -0.1 3.802 -0.238 3.802 -0.131 0 -0.314 0.504 -0.406 1.121 -0.092 0.616 -0.356 1.37 -0.586 1.674 -0.961 1.273 -1.956 2.274 -2.261 2.274 -0.18 0 -0.389 0.163 -0.466 0.362 -0.076 0.199 -0.472 0.479 -0.879 0.62 -0.595 0.208 -0.74 0.406 -0.74 1.017 0 0.417 -0.109 0.826 -0.242 0.908 -0.133 0.082 -0.32 0.838 -0.415 1.679 -0.095 0.841 -0.315 1.671 -0.488 1.844 -0.173 0.173 -0.392 0.667 -0.487 1.098 -0.194 0.885 -1.887 2.74 -2.745 3.01 -0.311 0.097 -0.629 0.274 -0.707 0.394 -0.171 0.265 -2.223 0.491 -2.837 0.313 z m 60.836 -75.27 c 0.099 -0.157 0.559 -0.367 1.022 -0.467 0.462 -0.1 0.902 -0.343 0.978 -0.539 0.075 -0.196 0.255 -0.356 0.399 -0.356 0.356 0 1.958 -1.576 1.961 -1.93 0.002 -0.155 0.221 -0.561 0.489 -0.901 0.267 -0.34 0.565 -1.04 0.662 -1.555 0.097 -0.515 0.277 -0.937 0.401 -0.937 0.124 0 0.225 -0.855 0.225 -1.901 0 -1.045 -0.095 -1.901 -0.21 -1.901 -0.115 0 -0.342 -0.574 -0.504 -1.275 -0.162 -0.701 -0.438 -1.457 -0.614 -1.68 -0.913 -1.156 -3.02 -3.128 -3.337 -3.128 -0.202 0 -0.567 -0.2 -0.811 -0.444 -0.37 -0.37 -0.918 -0.444 -3.322 -0.444 -1.791 0 -2.947 0.104 -3.059 0.275 -0.1 0.151 -0.545 0.4 -0.99 0.552 -1 0.342 -3.306 2.619 -3.522 3.479 -0.088 0.35 -0.248 0.636 -0.355 0.636 -0.348 0 -0.763 2.202 -0.763 4.045 0 1.701 0.44 3.812 0.795 3.812 0.09 0 0.237 0.288 0.325 0.64 0.138 0.549 0.827 1.326 2.701 3.044 0.219 0.201 0.761 0.438 1.204 0.527 0.443 0.088 0.805 0.252 0.805 0.364 0 0.352 0.816 0.46 3.114 0.413 1.324 -0.027 2.3 -0.161 2.408 -0.331 z" transform="translate(0 796.36)" style="fill:#ff4500;fill-rule:evenodd"/></g></svg>