<svg xmlns="http://www.w3.org/2000/svg" viewBox="0 0 256 256"><g transform="translate(0 -796.36)" style="color:#000"><path d="m 52.774 1027.39 c 192.46 127.95 311 -280.09 62.2 -226.07 -102.82 23.02 -165.22 167.39 -62.2 226.07 z" style="fill:#fff"/><g transform="translate(0 -19.388)" style="fill:#ff4500"><path d="m 132.42 882.66 c -6.699 0.923 -12.983 4.561 -17.12 9.911 -4.135 5.35 -6.073 12.348 -5.278 19.06 -0.686 -4.758 -2.87 -9.289 -6.167 -12.788 -3.296 -3.499 -7.689 -5.95 -12.397 -6.918 -7.597 -1.562 -15.907 0.93 -21.392 6.414 -5.484 5.484 -7.976 13.795 -6.414 21.392 2.273 14.162 9.76 27.427 20.709 36.692 13.09 11.07 30.831 16.191 47.904 14.649 17.07 -1.542 33.34 -9.538 45.632 -21.491 7.498 -7.294 13.726 -16.374 15.521 -26.679 0.898 -5.153 0.647 -10.539 -1.021 -15.496 -1.667 -4.957 -4.785 -9.464 -9.02 -12.532 -3.682 -2.667 -8.167 -4.21 -12.71 -4.371 -4.543 -0.161 -9.127 1.059 -12.988 3.459 -2.713 -4.03 -6.575 -7.283 -11.01 -9.268 -4.436 -1.986 -9.433 -2.7 -14.248 -2.037"/><path d="m 135.43 899.64 c -5.616 0.929 -10.892 3.801 -14.722 8.01 -3.83 4.212 -6.188 9.736 -6.581 15.415 -1.152 -4.01 -3.449 -7.693 -6.55 -10.491 -3.101 -2.798 -6.996 -4.706 -11.11 -5.442 -6.505 -1.164 -13.491 0.723 -18.526 5 -5.04 4.28 -8.02 10.871 -7.921 17.479 3.526 11.509 10.459 21.951 19.697 29.667 12.528 10.465 29.22 15.718 45.502 14.608 16.286 -1.11 32.01 -8.508 43.47 -20.14 5.855 -5.948 10.724 -13.201 12.272 -21.402 0.774 -4.101 0.69 -8.387 -0.469 -12.396 -1.159 -4.01 -3.416 -7.727 -6.591 -10.435 -3.35 -2.858 -7.691 -4.532 -12.09 -4.665 -4.402 -0.133 -8.835 1.277 -12.351 3.928 -2.822 -3.492 -6.582 -6.218 -10.779 -7.814 -4.196 -1.596 -8.818 -2.059 -13.247 -1.326" style="fill:#ffdead"/></g></g></svg>