<svg xmlns="http://www.w3.org/2000/svg" viewBox="0 0 256 256"><g transform="translate(0 -796.36)"><path d="m 196.22 1025.68 c -95.24 84.46 -241.79 -48.767 -182.53 -160.27 59.906 -112.74 258.16 -82.69 241.3 55.767 -5.02 41.2 -27.695 76.954 -58.764 104.51 z" style="fill:#fff;color:#000"/><g transform="translate(16.271 -6.508)" style="fill:#ff4500"><path d="m 77.63 1010.32 c -2.916 -1.996 -3.936 -3.32 -3.957 -5.14 -0.011 -0.957 0.931 -0.747 3.353 0.75 1.852 1.145 4.215 2.072 5.25 2.06 5.904 -0.069 17.857 -9.154 23.651 -17.978 2.671 -4.067 2.891 -4.211 2.293 -1.5 -0.891 4.04 -6.695 12.365 -10.976 15.749 -4.809 3.802 -12.458 7.751 -15.01 7.751 -1.171 0 -3.241 -0.761 -4.601 -1.692 z m 0.565 -6.913 c -1.779 -1.779 -1.288 -4.771 1.26 -7.672 1.44 -1.639 1.295 -2 -1.868 -4.712 -2.024 -1.732 -4.044 -2.684 -4.93 -2.322 -9.335 3.816 -13 4.696 -15.67 3.759 -2.223 -0.782 -2.83 -1.614 -2.83 -3.88 0 -2.491 0.906 -3.427 6.632 -6.855 4.491 -2.688 7.524 -5.382 9.395 -8.341 1.519 -2.404 2.929 -4.37 3.133 -4.37 0.204 0 2.838 1.393 5.855 3.095 6.327 3.571 7.275 3.355 1.641 -0.373 -2.114 -1.399 -4.609 -4.156 -5.544 -6.127 -1.627 -3.43 -1.609 -3.889 0.424 -10.717 1.168 -3.923 2.361 -7.751 2.651 -8.506 0.802 -2.089 -4 -1.723 -9.73 0.741 -5.783 2.488 -9.515 1.951 -11.133 -1.6 -2.469 -5.42 4.952 -10.605 18.402 -12.857 l 7.081 -1.186 l 5.351 -17.486 c 2.943 -9.617 6.708 -20.26 8.367 -23.651 4.01 -8.186 10.874 -15.65 17.296 -18.791 6.23 -3.048 17.934 -5.646 25.05 -5.56 2.82 0.034 8.952 -0.211 13.627 -0.544 8.02 -0.571 8.81 -0.443 13.996 2.278 17.05 8.946 22.1 34.528 11.268 57.11 -4.02 8.374 -15.179 19.27 -22.551 22.02 -6.77 2.521 -14.505 2.724 -20.21 0.53 -6.249 -2.402 -8.113 -2.652 -10.445 -1.404 -2.155 1.153 -2.146 1.187 1.305 5.01 4.636 5.131 5.927 7.74 5.222 10.549 -0.591 2.354 -3.797 4.102 -6.583 3.589 -0.825 -0.152 -3.187 -1.906 -5.249 -3.898 -2.294 -2.217 -4.089 -3.252 -4.626 -2.67 -0.483 0.523 -2.114 4.721 -3.626 9.328 -1.944 5.924 -3.298 8.52 -4.624 8.867 -2.01 0.527 -2.603 2.257 -0.767 2.257 2.867 0 -2.738 11.473 -8.351 17.09 -7.704 7.714 -15.75 10.771 -19.22 7.301 z m 10.463 -27.395 c -0.825 -0.533 -1.95 -0.969 -2.5 -0.969 -0.55 0 -0.325 0.436 0.5 0.969 0.825 0.533 1.95 0.969 2.5 0.969 0.55 0 0.325 -0.436 -0.5 -0.969 z m -34 23.294 c -2.391 -0.874 -6 -4.513 -6 -6.05 0 -1.076 0.792 -0.918 3.368 0.674 4.222 2.61 8.164 2.631 14.871 0.082 6.434 -2.446 8 -2.506 7.579 -0.293 -0.602 3.124 -15.254 7.255 -19.818 5.586 z m 67 -27.72 c -1.375 -0.822 -3.513 -2.035 -4.75 -2.695 -1.237 -0.66 -2.25 -1.776 -2.25 -2.481 0 -2.392 2.14 -2.616 4.431 -0.464 3.489 3.277 9.06 3.816 12.58 1.216 3.62 -2.677 4.771 -1.161 1.754 2.311 -2.8 3.223 -8.266 4.205 -11.764 2.113 z m -63.22 -17.13 c -2.808 -1.524 -5.379 -5.171 -4.362 -6.187 0.316 -0.316 1.395 0.167 2.397 1.074 3.099 2.804 7.459 3.086 11.989 0.775 2.495 -1.273 4.333 -1.7 4.706 -1.096 0.934 1.51 -0.257 2.826 -4.533 5.01 -4.59 2.342 -6.52 2.422 -10.197 0.427 z m 79.33 0.506 c -4.628 -0.939 -8.458 -3.575 -7.485 -5.149 0.318 -0.514 1.32 -0.648 2.226 -0.297 7.882 3.046 18.555 2.417 26.814 -1.581 6.117 -2.961 13.828 -10.227 18.938 -17.845 5.099 -7.6 5.805 -6.497 1.278 1.996 -8.319 15.608 -27.05 25.865 -41.772 22.877 z"/><path d="m 78.2 1003.41 c -1.779 -1.779 -1.288 -4.771 1.26 -7.672 1.44 -1.639 1.295 -2 -1.868 -4.712 -2.024 -1.732 -4.044 -2.684 -4.93 -2.322 -9.335 3.816 -13 4.696 -15.67 3.759 -2.223 -0.782 -2.83 -1.614 -2.83 -3.88 0 -2.491 0.906 -3.427 6.632 -6.855 4.491 -2.688 7.524 -5.382 9.395 -8.341 1.519 -2.404 2.929 -4.37 3.133 -4.37 0.204 0 2.838 1.393 5.855 3.095 6.327 3.571 7.275 3.355 1.641 -0.373 -2.114 -1.399 -4.609 -4.156 -5.544 -6.127 -1.627 -3.43 -1.609 -3.889 0.424 -10.717 1.168 -3.923 2.361 -7.751 2.651 -8.506 0.802 -2.089 -4 -1.723 -9.73 0.741 -5.783 2.488 -9.515 1.951 -11.133 -1.6 -2.469 -5.42 4.952 -10.605 18.402 -12.857 l 7.081 -1.186 l 5.351 -17.486 c 2.943 -9.617 6.708 -20.26 8.367 -23.651 4.01 -8.186 10.874 -15.65 17.296 -18.791 6.23 -3.048 17.934 -5.646 25.05 -5.56 2.82 0.034 8.952 -0.211 13.627 -0.544 8.02 -0.571 8.81 -0.443 13.996 2.278 17.05 8.946 22.1 34.528 11.268 57.11 -4.02 8.374 -15.179 19.27 -22.551 22.02 -6.77 2.521 -14.505 2.724 -20.21 0.53 -6.249 -2.402 -8.113 -2.652 -10.445 -1.404 -2.155 1.153 -2.146 1.187 1.305 5.01 4.636 5.131 5.927 7.74 5.222 10.549 -0.591 2.354 -3.797 4.102 -6.583 3.589 -0.825 -0.152 -3.187 -1.906 -5.249 -3.898 -2.294 -2.217 -4.089 -3.252 -4.626 -2.67 -0.483 0.523 -2.114 4.721 -3.626 9.328 -1.944 5.924 -3.298 8.52 -4.624 8.867 -2.01 0.527 -2.603 2.257 -0.767 2.257 2.867 0 -2.738 11.473 -8.351 17.09 -7.704 7.714 -15.75 10.771 -19.22 7.301 z m 10.463 -27.395 c -0.825 -0.533 -1.95 -0.969 -2.5 -0.969 -0.55 0 -0.325 0.436 0.5 0.969 0.825 0.533 1.95 0.969 2.5 0.969 0.55 0 0.325 -0.436 -0.5 -0.969 z m 77.5 -47 c 0.995 -1.1 1.585 -2 1.31 -2 -0.275 0 -1.314 0.9 -2.31 2 -0.995 1.1 -1.585 2 -1.31 2 0.275 0 1.314 -0.9 2.31 -2 z"/><path d="m 79.912 1003.35 c -2.027 -0.818 -1.436 -3.814 1.25 -6.338 1.375 -1.292 2.5 -2.676 2.5 -3.076 0 -0.4 -1.463 -1.661 -3.25 -2.803 -1.787 -1.142 -3.986 -2.614 -4.885 -3.271 -1.309 -0.957 -2.642 -0.763 -6.685 0.977 -5.097 2.193 -10.179 2.867 -10.179 1.35 0 -1.648 17.02 -17.384 18.241 -16.868 12.06 5.085 15.1 6.02 21.01 6.457 7.635 0.568 7.921 1.018 4.681 7.369 -2.651 5.196 -9.6 12.145 -14.796 14.796 -4.07 2.076 -5.565 2.343 -7.885 1.407 z m 6.169 -30.2 c -6.768 -3.225 -10.417 -7.086 -10.422 -11.03 -0.002 -1.438 0.969 -5.896 2.158 -9.907 2.673 -9.02 2.052 -10.04 -4.808 -7.909 -2.666 0.828 -6.273 2.085 -8.02 2.792 -2.596 1.054 -3.456 1.049 -4.75 -0.025 -2.077 -1.724 -2.01 -4.379 0.17 -6.309 1.666 -1.478 12.878 -5.61 20.14 -7.424 3.39 -0.846 3.398 -0.863 8.294 -16.84 5.456 -17.808 10.179 -28.671 14.181 -32.623 3.569 -3.524 22.654 -8.579 23.911 -6.334 0.628 1.121 1.938 0.494 6.167 -2.95 22.15 -18.04 47.41 -6.03 49.3 23.439 1.53 23.862 -15.767 47.829 -35.917 49.765 -3.281 0.315 -6.91 -0.247 -11.669 -1.807 -11.624 -3.811 -15.96 -1.069 -9.761 6.173 4.444 5.192 4.718 7.843 0.809 7.843 -1.534 0 -4.55 -0.898 -6.704 -1.996 -2.691 -1.372 -4.238 -1.673 -4.947 -0.964 -0.568 0.568 -2.388 4.953 -4.046 9.746 l -3.01 8.714 l -7.5 0.27 c -6.533 0.235 -8.284 -0.104 -13.581 -2.628 z m 80.08 -44.14 c 0.995 -1.1 1.585 -2 1.31 -2 -0.275 0 -1.314 0.9 -2.31 2 -0.995 1.1 -1.585 2 -1.31 2 0.275 0 1.314 -0.9 2.31 -2 z"/><path d="m 80.11 1001.93 c -0.369 -0.597 0.729 -2.531 2.441 -4.298 1.712 -1.766 3.112 -3.516 3.112 -3.888 0 -0.372 -1.463 -1.416 -3.25 -2.319 -1.787 -0.903 -4.257 -2.564 -5.489 -3.689 -2.054 -1.878 -2.57 -1.938 -6.255 -0.721 -2.209 0.729 -4.25 1.092 -4.535 0.807 -0.285 -0.285 2.435 -3.112 6.04 -6.281 l 6.563 -5.762 l 7.925 2.619 c 4.359 1.441 9.966 2.619 12.46 2.619 5.47 0 5.644 0.859 1.502 7.39 -3.634 5.73 -8.142 10.07 -13.178 12.683 -4.194 2.177 -6.363 2.426 -7.343 0.84 z m 6.794 -29.382 c -6.356 -2.959 -10.24 -6.913 -10.244 -10.428 -0.002 -1.432 0.956 -5.841 2.129 -9.797 2.683 -9.05 2.178 -10.772 -2.886 -9.83 -2.057 0.383 -5.868 1.608 -8.47 2.724 -4.584 1.966 -7.77 1.911 -7.77 -0.134 0 -1.369 2.745 -2.725 14.444 -7.137 5.531 -2.085 10.357 -4.385 10.726 -5.111 0.369 -0.726 2.764 -8.294 5.322 -16.819 2.558 -8.525 5.632 -17.256 6.83 -19.401 2.093 -3.75 2.547 -3.991 11.678 -6.209 11.787 -2.863 11.791 -2.863 12.18 -0.212 0.264 1.797 0.992 1.163 4.168 -3.633 8.346 -12.602 17.408 -18.722 28.651 -19.353 8.936 -0.501 15.906 3.063 21.23 10.853 11.123 16.29 8.17 40.694 -6.895 56.965 -9.319 10.07 -21.568 14.168 -31.33 10.494 -6.706 -2.524 -9.704 -2.869 -13.01 -1.498 -3.524 1.46 -3.751 3.209 -0.888 6.837 l 2.098 2.658 l -5.206 0.538 c -6.196 0.64 -6.933 1.468 -9.974 11.213 -1.244 3.987 -2.712 7.811 -3.261 8.499 -1.82 2.278 -13.58 1.544 -19.513 -1.218 z m 71.5 -37.09 c 6.331 -3.155 11.689 -8.951 15.04 -16.271 2.083 -4.55 2.556 -7.132 2.589 -14.12 0.034 -7.243 -0.365 -9.394 -2.605 -14.05 -3.262 -6.786 -4.29 -8.06 -9.169 -11.372 -4.174 -2.832 -11.07 -3.538 -16.06 -1.643 -3.661 1.392 -12.02 9.459 -14.896 14.37 -7.308 12.494 -7.381 28.742 -0.173 38.19 5.811 7.619 15.886 9.57 25.27 4.894 z m -16.732 0.023 c -4.603 -2.073 -7.723 -5.076 -10.354 -9.966 -1.752 -3.255 -2.15 -5.677 -2.14 -13 0.011 -7.987 0.365 -9.746 3.138 -15.623 5.716 -12.11 13.907 -18.877 22.859 -18.877 20.362 0 27.29 32.805 10.634 50.33 -6.969 7.333 -17.07 10.316 -24.14 7.131 z m 24.415 -19.563 c 3.593 -8.979 0.401 -13.368 -3.783 -5.202 -1.624 3.169 -2.195 8.411 -1.042 9.564 1.267 1.267 3.312 -0.581 4.825 -4.362 z m -4.422 1.065 c 0 -2.861 2.689 -8.968 3.949 -8.968 1.498 0 1.299 3.161 -0.462 7.378 -1.656 3.964 -3.487 4.798 -3.487 1.59 z m -10.07 -3.086 c 3.911 -6.431 3.391 -14.882 -0.915 -14.882 -4.02 0 -8.03 10.185 -6.06 15.377 1.383 3.639 4.598 3.411 6.972 -0.495 z m -6.03 -0.214 c -1.823 -4 1.814 -13.668 5.142 -13.668 3.423 0 3.274 9.06 -0.222 13.509 -2.439 3.101 -3.563 3.137 -4.92 0.16 z" style="fill:#ffe4c4"/><path d="m 80.11 1001.93 c -0.369 -0.597 0.729 -2.531 2.441 -4.298 1.712 -1.766 3.112 -3.516 3.112 -3.888 0 -0.372 -1.463 -1.416 -3.25 -2.319 -1.787 -0.903 -4.257 -2.564 -5.489 -3.689 -2.054 -1.878 -2.57 -1.938 -6.255 -0.721 -2.209 0.729 -4.25 1.092 -4.535 0.807 -0.285 -0.285 2.435 -3.112 6.04 -6.281 l 6.563 -5.762 l 7.925 2.619 c 4.359 1.441 9.966 2.619 12.46 2.619 5.47 0 5.644 0.859 1.502 7.39 -3.634 5.73 -8.142 10.07 -13.178 12.683 -4.194 2.177 -6.363 2.426 -7.343 0.84 z m 6.794 -29.382 c -6.356 -2.959 -10.24 -6.913 -10.244 -10.428 -0.002 -1.432 0.956 -5.841 2.129 -9.797 2.683 -9.05 2.178 -10.772 -2.886 -9.83 -2.057 0.383 -5.868 1.608 -8.47 2.724 -4.584 1.966 -7.77 1.911 -7.77 -0.134 0 -1.369 2.745 -2.725 14.444 -7.137 5.531 -2.085 10.357 -4.385 10.726 -5.111 0.369 -0.726 2.764 -8.294 5.322 -16.819 2.558 -8.525 5.632 -17.256 6.83 -19.401 2.093 -3.75 2.547 -3.991 11.678 -6.209 11.787 -2.863 11.791 -2.863 12.18 -0.212 0.264 1.797 0.992 1.163 4.168 -3.633 8.346 -12.602 17.408 -18.722 28.651 -19.353 8.936 -0.501 15.906 3.063 21.23 10.853 11.123 16.29 8.17 40.694 -6.895 56.965 -9.319 10.07 -21.568 14.168 -31.33 10.494 -6.706 -2.524 -9.704 -2.869 -13.01 -1.498 -3.524 1.46 -3.751 3.209 -0.888 6.837 l 2.098 2.658 l -5.206 0.538 c -6.196 0.64 -6.933 1.468 -9.974 11.213 -1.244 3.987 -2.712 7.811 -3.261 8.499 -1.82 2.278 -13.58 1.544 -19.513 -1.218 z m 70.58 -36.536 c 2.376 -1.078 4.056 -2.387 3.734 -2.909 -0.322 -0.522 -0.059 -1.274 0.585 -1.672 0.731 -0.452 0.903 -0.29 0.457 0.431 -1.376 2.226 0.841 1.124 4.107 -2.042 3.19 -3.092 4.5 -5.665 2.143 -4.208 -0.721 0.446 -0.883 0.274 -0.431 -0.457 0.398 -0.644 1.152 -0.906 1.677 -0.582 0.524 0.324 2.142 -2.01 3.595 -5.182 2.183 -4.769 2.649 -7.255 2.681 -14.323 0.034 -7.243 -0.365 -9.394 -2.605 -14.05 -3.262 -6.786 -4.29 -8.06 -9.169 -11.372 -4.174 -2.832 -11.07 -3.538 -16.06 -1.643 -3.661 1.392 -12.02 9.459 -14.896 14.37 -9.415 16.1 -6.47 36.932 6.162 43.603 4.831 2.551 12.44 2.567 18.02 0.036 z m -11.582 0.317 c 0.956 -0.25 2.756 -0.259 4 -0.02 1.244 0.239 0.462 0.444 -1.738 0.455 -2.2 0.011 -3.218 -0.185 -2.262 -0.435 z m -10.437 -5.063 c -5.083 -5.433 -6.302 -9.07 -6.289 -18.75 0.011 -7.987 0.365 -9.746 3.138 -15.623 3.672 -7.781 9.204 -14.252 14.491 -16.949 4.451 -2.271 11.834 -2.515 15.658 -0.517 9.294 4.855 14.482 18.01 12.159 30.819 -1.422 7.841 -2.944 10.823 -2.213 4.335 0.715 -6.339 -1.197 -5.866 -5.059 1.251 -1.547 2.852 -3.347 5.178 -4 5.169 -0.895 -0.011 -0.889 -0.205 0.025 -0.785 2.832 -1.8 5.535 -12.311 3.491 -13.575 -2.424 -1.498 -6.561 6.179 -5.985 11.11 0.358 3.064 0.252 3.26 -0.906 1.677 -0.721 -0.986 -1.311 -2.382 -1.311 -3.102 0 -1.772 -0.696 -1.642 -6.5 1.213 -2.75 1.353 -5.727 2.464 -6.617 2.469 -0.889 0.005 -3.927 0.969 -6.75 2.142 -5.934 2.466 -6.429 4.174 -2.544 8.79 3.215 3.82 2.686 4.04 -0.788 0.327 z m 16.12 -17.368 c 3.911 -6.431 3.391 -14.882 -0.915 -14.882 -4.02 0 -8.03 10.185 -6.06 15.377 1.383 3.639 4.598 3.411 6.972 -0.495 z m -6.03 -0.214 c -1.823 -4 1.814 -13.668 5.142 -13.668 3.423 0 3.274 9.06 -0.222 13.509 -2.439 3.101 -3.563 3.137 -4.92 0.16 z m 16.11 3.3 c 0 -2.861 2.689 -8.968 3.949 -8.968 1.498 0 1.299 3.161 -0.462 7.378 -1.656 3.964 -3.487 4.798 -3.487 1.59 z"/><path d="m 84.07 998.1 c 2.1 -2.15 3.539 -4.361 3.197 -4.913 -0.341 -0.552 -2.53 -1.951 -4.865 -3.11 -2.334 -1.158 -5.337 -3.02 -6.673 -4.141 l -2.428 -2.035 l 3.428 -3.382 l 3.428 -3.382 l 7 2.411 c 3.85 1.326 8.912 2.422 11.25 2.436 2.337 0.014 4.25 0.371 4.25 0.794 0 1 -4.692 8.06 -7.392 11.123 -2.939 3.334 -10.598 8.109 -13.01 8.109 -1.701 0 -1.424 -0.597 1.811 -3.91 z m 3.588 -26.15 c -6.141 -2.808 -10 -6.683 -10 -10.04 0 -1.498 0.894 -5.576 1.987 -9.06 3.496 -11.153 2.657 -12.778 -5.681 -11 -2.629 0.561 -4.913 0.888 -5.073 0.727 -0.161 -0.161 4.232 -1.99 9.761 -4.064 5.53 -2.074 10.337 -4.229 10.683 -4.788 0.346 -0.559 -0.117 -1.562 -1.027 -2.228 -1.518 -1.11 -1.361 -2.184 1.878 -12.869 5.248 -17.313 4.272 -16.09 14.839 -18.527 5.02 -1.157 9.423 -2.1 9.776 -2.096 0.354 0.004 0.579 4.02 0.5 8.923 -0.079 4.904 0.225 9.285 0.675 9.735 0.45 0.451 1.598 -0.215 2.552 -1.479 1.959 -2.598 11.723 -25.333 13.799 -32.13 3.665 -12 19.772 -18.655 31.869 -13.16 12.8 5.814 19.527 24.93 14.953 42.49 -3.8 14.587 -13.981 27.408 -25.1 31.604 -6.808 2.57 -14.873 2.382 -20.395 -0.473 -2.215 -1.145 -4.619 -1.546 -7.201 -1.199 -5.137 0.689 -7.07 2.408 -6.564 5.844 0.34 2.319 0.012 2.805 -2.066 3.057 -3.443 0.417 -5.809 4.03 -9.07 13.852 l -2.803 8.447 l -6.9 0.249 c -5.234 0.189 -7.986 -0.248 -11.4 -1.809 z m 72.13 -36.2 c 11.496 -5.951 17.399 -16.815 17.245 -31.735 -0.099 -9.58 -2.056 -15.287 -7.284 -21.242 -6.03 -6.864 -15.39 -8.729 -23.679 -4.716 -5.639 2.73 -12.943 10.716 -16.224 17.74 -2.36 5.05 -2.672 6.943 -2.68 16.218 -0.01 11.763 1.373 15.683 7.654 21.695 6.747 6.458 15.11 7.142 24.969 2.04 z m -13.893 0.578 c 0.956 -0.25 2.756 -0.259 4 -0.02 1.244 0.239 0.462 0.444 -1.738 0.455 -2.2 0.011 -3.218 -0.185 -2.262 -0.435 z m -10.437 -5.063 c -5.083 -5.433 -6.302 -9.07 -6.289 -18.75 0.011 -7.987 0.365 -9.746 3.138 -15.623 3.672 -7.781 9.204 -14.252 14.491 -16.949 4.451 -2.271 11.834 -2.515 15.658 -0.517 9.294 4.855 14.482 18.01 12.159 30.819 -1.422 7.841 -2.944 10.823 -2.213 4.335 0.715 -6.339 -1.197 -5.866 -5.059 1.251 -1.547 2.852 -3.347 5.178 -4 5.169 -0.895 -0.011 -0.889 -0.205 0.025 -0.785 2.832 -1.8 5.535 -12.311 3.491 -13.575 -2.424 -1.498 -6.561 6.179 -5.985 11.11 0.358 3.064 0.252 3.26 -0.906 1.677 -0.721 -0.986 -1.311 -2.382 -1.311 -3.102 0 -1.772 -0.696 -1.642 -6.5 1.213 -2.75 1.353 -5.727 2.464 -6.617 2.469 -0.889 0.005 -3.927 0.969 -6.75 2.142 -5.934 2.466 -6.429 4.174 -2.544 8.79 3.215 3.82 2.686 4.04 -0.788 0.327 z m 16.12 -17.368 c 3.911 -6.431 3.391 -14.882 -0.915 -14.882 -4.02 0 -8.03 10.185 -6.06 15.377 1.383 3.639 4.598 3.411 6.972 -0.495 z m -5.289 -1.193 c -1.127 -4.49 2.925 -13.461 5.098 -11.288 1.22 1.22 0.409 8.729 -1.209 11.199 -1.976 3.02 -3.148 3.043 -3.889 0.088 z m 16.49 3.311 c -0.02 -0.825 0.582 -2.85 1.338 -4.5 0.756 -1.65 1.39 -2.325 1.41 -1.5 0.02 0.825 -0.582 2.85 -1.338 4.5 -0.756 1.65 -1.39 2.325 -1.41 1.5 z m -100.13 29 c 1.958 -1.266 3.282 -1.266 2.5 0 -0.34 0.55 -1.379 0.993 -2.309 0.985 -1.457 -0.013 -1.484 -0.149 -0.191 -0.985 z" style="fill:#ffe4c4"/><path d="m 84.07 998.1 c 2.1 -2.15 3.539 -4.361 3.197 -4.913 -0.341 -0.552 -2.53 -1.951 -4.865 -3.11 -2.334 -1.158 -5.337 -3.02 -6.673 -4.141 l -2.428 -2.035 l 3.428 -3.382 l 3.428 -3.382 l 7 2.411 c 3.85 1.326 8.912 2.422 11.25 2.436 2.337 0.014 4.25 0.371 4.25 0.794 0 1 -4.692 8.06 -7.392 11.123 -2.939 3.334 -10.598 8.109 -13.01 8.109 -1.701 0 -1.424 -0.597 1.811 -3.91 z m 3.588 -26.15 c -6.141 -2.808 -10 -6.683 -10 -10.04 0 -1.498 0.894 -5.576 1.987 -9.06 3.496 -11.153 2.657 -12.778 -5.681 -11 -2.629 0.561 -4.913 0.888 -5.073 0.727 -0.161 -0.161 4.232 -1.99 9.761 -4.064 5.53 -2.074 10.337 -4.229 10.683 -4.788 0.346 -0.559 -0.117 -1.562 -1.027 -2.228 -1.518 -1.11 -1.361 -2.184 1.878 -12.869 5.248 -17.313 4.272 -16.09 14.839 -18.527 5.02 -1.157 9.423 -2.1 9.776 -2.096 0.354 0.004 0.579 4.02 0.5 8.923 -0.079 4.904 0.225 9.285 0.675 9.735 0.45 0.451 1.598 -0.215 2.552 -1.479 1.959 -2.598 11.723 -25.333 13.799 -32.13 3.665 -12 19.772 -18.655 31.869 -13.16 12.8 5.814 19.527 24.93 14.953 42.49 -3.8 14.587 -13.981 27.408 -25.1 31.604 -6.808 2.57 -14.873 2.382 -20.395 -0.473 -2.215 -1.145 -4.619 -1.546 -7.201 -1.199 -5.137 0.689 -7.07 2.408 -6.564 5.844 0.34 2.319 0.012 2.805 -2.066 3.057 -3.443 0.417 -5.809 4.03 -9.07 13.852 l -2.803 8.447 l -6.9 0.249 c -5.234 0.189 -7.986 -0.248 -11.4 -1.809 z m 72.13 -36.2 c 11.496 -5.951 17.399 -16.815 17.245 -31.735 -0.099 -9.58 -2.056 -15.287 -7.284 -21.242 -6.03 -6.864 -15.39 -8.729 -23.679 -4.716 -5.639 2.73 -12.943 10.716 -16.224 17.74 -2.36 5.05 -2.672 6.943 -2.68 16.218 -0.01 11.763 1.373 15.683 7.654 21.695 6.747 6.458 15.11 7.142 24.969 2.04 z m 2.995 -19.735 c -0.02 -0.825 0.582 -2.85 1.338 -4.5 0.756 -1.65 1.39 -2.325 1.41 -1.5 0.02 0.825 -0.582 2.85 -1.338 4.5 -0.756 1.65 -1.39 2.325 -1.41 1.5 z m -16.49 -3.311 c -1.127 -4.49 2.925 -13.461 5.098 -11.288 1.22 1.22 0.409 8.729 -1.209 11.199 -1.976 3.02 -3.148 3.043 -3.889 0.088 z m -83.64 32.31 c 1.958 -1.266 3.282 -1.266 2.5 0 -0.34 0.55 -1.379 0.993 -2.309 0.985 -1.457 -0.013 -1.484 -0.149 -0.191 -0.985 z"/></g></g></svg>