<svg xmlns="http://www.w3.org/2000/svg" viewBox="0 0 256 256"><defs><clipPath><path transform="matrix(15.33333 0 0 11.5 415 -125.5)" d="m -24 13 c 0 1.105 -0.672 2 -1.5 2 -0.828 0 -1.5 -0.895 -1.5 -2 0 -1.105 0.672 -2 1.5 -2 0.828 0 1.5 0.895 1.5 2 z"/></clipPath></defs><path d="M 219.87,1024.74 C 311.92,893.81 141.922,761.14 33.48,867.83 c -102.17,100.51 -7.449,256.68 119.69,207.86 26.526,-10.185 49.802,-26.914 66.7,-50.948 z" transform="matrix(0.9907 0 0 0.98256 10.701 -812.4)" style="fill:#fff;color:#000"/><g transform="matrix(2.63687 0 0 2.72013 66.04 62.21)"><g style="fill:#ffdead;fill-rule:evenodd"><path d="m 28.513 5.572 v 6.906 h 4.604 v -6.906 h -4.604 z"/><path d="m 14.701 5.572 v 6.906 h 4.604 v -6.906 h -4.604 z"/></g><g style="fill:#ff4500"><rect y="12.478" x="2.04" height="34.525" width="43.738" rx="1.146"/><path d="m 14.701 5.572 l 4.604 -4.604 h 9.208 l 4.604 4.604 z"/></g><path d="m 2.863 12.514 c 20.718 1.151 20.718 1.151 42.587 0 h -42.587 z" style="fill:#fff;fill-opacity:0.706"/><path d="m 15.07 29.447 l 3.158 -3.153 c 0 0 1.771 1.77 3.515 3.514 v -9.277 h 4.465 v 9.277 l 3.518 -3.518 l 3.158 3.158 l -8.906 8.898 l -8.908 -8.898 z" style="fill-opacity:0.059"/><path d="m 15.07 29.447 l 3.158 -3.153 c 0 0 1.771 1.77 3.515 3.514 v -9.277 h 4.465 v 9.277 l 3.518 -3.518 l 3.158 3.158 l -8.906 8.898 l -8.908 -8.898 z" style="fill-opacity:0.118"/><path d="m 15.07 29.377 l 3.158 -3.153 c 0 0 1.771 1.77 3.515 3.514 v -9.277 h 4.465 v 9.277 l 3.518 -3.518 l 3.158 3.158 l -8.906 8.898 l -8.908 -8.898 z" style="fill-opacity:0.235"/><path d="m 14.935 29.377 l 3.158 -3.153 c 0 0 1.771 1.77 3.515 3.514 v -9.277 h 4.465 v 9.277 l 3.518 -3.518 l 3.158 3.158 l -8.906 8.898 l -8.908 -8.898 z" style="fill:#ffdead"/></g></svg>