<svg xmlns="http://www.w3.org/2000/svg" xmlns:xlink="http://www.w3.org/1999/xlink" viewBox="0 0 256 256"><defs><use xlink:href="#1" id="0"/><path d="m 245.46 129.52 l -97.89 -96.9 c -5.556 -5.502 -16.222 -11.873 -23.7 -14.16 l -39.518 -12.08 c -7.479 -2.286 -18.1 0.391 -23.599 5.948 l -13.441 13.578 c -5.5 5.559 -14.502 14.653 -20 20.21 l -13.44 13.579 c -5.5 5.558 -8.07 16.206 -5.706 23.658 l 12.483 39.39 c 2.363 7.456 8.843 18.06 14.399 23.556 l 97.89 96.9 c 5.558 5.502 14.605 5.455 20.1 -0.101 l 36.26 -36.63 c 5.504 -5.559 14.503 -14.651 20 -20.21 l 36.26 -36.629 c 5.502 -5.56 5.455 -14.606 -0.101 -20.11 z m -178.09 -50.74 c -7.198 0 -13.03 -5.835 -13.03 -13.03 0 -7.197 5.835 -13.03 13.03 -13.03 7.197 0 13.03 5.835 13.03 13.03 -0.001 7.198 -5.836 13.03 -13.03 13.03 z" id="1"/><clipPath><path d="m 171 132 h 54.625 v 24 h -54.625"/></clipPath><clipPath><path d="m 74 56.824 h 129 v 139.69 h -129"/></clipPath><clipPath style="clip-path:url(#2)"><use xlink:href="#1"/></clipPath><clipPath style="clip-path:url(#2)"><use xlink:href="#1"/></clipPath><clipPath><path d="m 148 97 h 77.63 v 24 h -77.62"/></clipPath><clipPath id="2"><use xlink:href="#0"/></clipPath><clipPath><path d="m 27.707 56.824 h 82.29 v 139.69 h -82.29"/></clipPath><clipPath><circle r="99.31" cy="933.98" cx="132.22" style="fill:#0f9d58"/></clipPath><clipPath><circle r="128" cy="924.36" cx="128" style="fill:#4285f4"/></clipPath><clipPath><circle r="128" cy="924.36" cx="128" style="fill:#f16529"/></clipPath><clipPath><path transform="matrix(15.33333 0 0 11.5 415 -125.5)" d="m -24 13 c 0 1.105 -0.672 2 -1.5 2 -0.828 0 -1.5 -0.895 -1.5 -2 0 -1.105 0.672 -2 1.5 -2 0.828 0 1.5 0.895 1.5 2 z"/></clipPath><clipPath><path transform="translate(0 796.36)" d="m 88.12 249.44 c -42.02 -14.14 -73.35 -47.748 -83.985 -90.07 -2.796 -11.124 -3.211 -15.198 -3.208 -31.471 0.002 -10.417 0.209 -15.875 0.732 -19.348 2.808 -18.628 10.519 -37.903 21.385 -53.45 c 3.959 -5.666 8.345 -10.931 9.102 -10.926 0.328 0.002 10.489 18.31 22.579 40.683 12.09 22.373 22.375 41.33 22.854 42.14 0.479 0.802 0.925 2.441 0.99 3.643 0.343 6.316 2.524 14.21 5.642 20.423 2.954 5.887 5.065 8.733 10.435 14.07 6.714 6.67 12.889 10.286 21.732 12.729 3.166 0.874 5.105 1.05 11.575 1.05 8.826 0 12.602 -0.762 19.264 -3.887 2.046 -0.96 3.937 -1.665 4.202 -1.568 0.265 0.097 -11.06 17.665 -25.16 39.04 l -25.639 38.861 l -3.094 0.112 c -2.555 0.093 -4.195 -0.258 -9.409 -2.01 z"/><path d="m 112.36 1051.52 c -10 -1.449 -12.156 -1.82 -12.532 -2.156 -0.249 -0.222 1.738 -3.747 4.55 -8.07 7.166 -11.02 49.772 -74.65 50.26 -75.05 3.575 -2.992 8.635 -8.04 10.575 -10.554 3.362 -4.353 7.558 -12.914 9.07 -18.494 6.193 -22.925 -2.593 -47.15 -21.7 -59.837 l -2.961 -1.966 l 17.02 0.296 c 9.364 0.163 31.17 0.434 48.46 0.603 l 31.435 0.307 l 1.546 4.189 c 2.246 6.086 4.678 15.09 5.935 21.982 1.525 8.36 1.925 28.859 0.739 37.828 -3.081 23.278 -12.813 45.72 -27.802 64.11 -20.476 25.12 -51.46 42.2 -84.15 46.39 -5.312 0.681 -26.646 0.986 -30.446 0.436 z"/><path transform="translate(0 796.36)" d="m 67.99 108.87 c -26.706 -49.3 -34.7 -63.724 -35.756 -64.53 -0.582 -0.443 0.578 -1.795 6.462 -7.529 14.74 -14.365 30.11 -23.775 49.14 -30.08 13.848 -4.588 24.743 -6.299 40.11 -6.299 c 21.31 0 37.805 3.81 56.835 13.13 25.294 12.383 46.19 33.579 58.52 59.35 1.611 3.369 2.93 6.372 2.93 6.675 0 0.56 -10.549 0.495 -71.17 -0.437 l -24.288 -0.374 l -3.931 -1.764 c -6.757 -3.03 -10.646 -3.84 -18.658 -3.868 -5.03 -0.018 -7.979 0.208 -10.316 0.788 -14.508 3.604 -26.28 12.948 -33.29 26.419 -3.585 6.891 -5.247 13.08 -6.332 23.583 l -0.337 3.267 l -9.927 -18.326 z"/></clipPath><clipPath><circle r="128" cy="128" cx="128" style="fill:#292929;fill-opacity:0.26"/></clipPath><clipPath><circle r="128" cy="924.36" cx="128" style="fill:#4285f4"/></clipPath><clipPath><circle r="128" cy="924.36" cx="128" style="fill:#72a854"/></clipPath><clipPath><circle r="128" cy="922.85" cx="112.26" style="fill:#0e85cd"/></clipPath></defs><g style="fill:#fff"><path d="m 186.9 63.15 c 145.85 224.64 -252.5 311.57 -220.77 80.47 12.94 -94.25 164.98 -166.41 220.77 -80.47 z" transform="matrix(1.0014 0 0 -0.99087 36.707 279.38)" style="fill:#fff;color:#000"/></g><g transform="matrix(-1.09149 0 0 1.08104 267.56 -12.645)"><g style="fill:#ff0"><path d="m 123.66 100.88 a 2.712 11.932 0 0 1 -0.013 1.191 l -2.698 -1.191 z"/><path d="m 62.915 60.2 a 6.508 3.797 0 0 1 -0.001 0.058 L 56.41 60.2 z"/></g><g transform="matrix(-1 0 0 1 258.14 -1.017)" style="fill:#ff4500;fill-rule:evenodd"><path d="m 80.43 165.63 c 0 -0.412 -0.103 -0.515 -0.515 -0.515 -0.412 0 -0.515 -0.103 -0.515 -0.515 0 -0.412 -0.103 -0.515 -0.515 -0.515 -0.481 0 -0.515 -0.069 -0.515 -1.031 0 -0.872 -0.06 -1.031 -0.389 -1.031 -0.302 0 -0.419 -0.204 -0.526 -0.915 -0.11 -0.733 -0.227 -0.927 -0.59 -0.979 -0.287 -0.041 -0.477 -0.234 -0.519 -0.528 -0.042 -0.298 -0.208 -0.464 -0.464 -0.464 -0.287 0 -0.398 -0.144 -0.398 -0.515 0 -0.41 -0.104 -0.515 -0.506 -0.515 -0.485 0 -0.509 -0.061 -0.567 -1.494 -0.056 -1.371 -0.099 -1.5 -0.524 -1.56 -0.401 -0.057 -0.464 -0.189 -0.464 -0.979 0 -0.837 -0.043 -0.913 -0.515 -0.913 -0.412 0 -0.515 -0.103 -0.515 -0.515 0 -0.412 -0.103 -0.515 -0.515 -0.515 -0.504 0 -0.515 -0.034 -0.515 -1.546 0 -1.408 -0.037 -1.546 -0.412 -1.546 -0.379 0 -0.412 -0.138 -0.414 -1.7 -0.003 -2.586 -0.155 -3.246 -0.746 -3.246 -0.383 0 -0.488 -0.111 -0.488 -0.515 0 -0.378 -0.11 -0.515 -0.412 -0.515 -0.379 0 -0.412 -0.138 -0.414 -1.7 -0.003 -2.415 -0.168 -3.246 -0.643 -3.246 -0.37 0 -0.385 -0.335 -0.385 -8.451 v -8.451 h 0.515 c 0.435 0 0.515 -0.096 0.515 -0.618 0 -0.474 0.093 -0.618 0.4 -0.618 0.316 0 0.429 -0.195 0.539 -0.927 0.12 -0.801 0.206 -0.927 0.631 -0.927 0.453 0 0.492 -0.082 0.492 -1.031 0 -0.893 0.055 -1.031 0.412 -1.031 0.302 0 0.412 0.137 0.412 0.515 0 0.501 0.041 0.515 1.443 0.515 1.402 0 1.443 0.015 1.443 0.515 0 0.503 0.035 0.515 1.531 0.515 1.431 0 1.536 0.03 1.597 0.464 0.042 0.298 0.232 0.487 0.53 0.53 0.285 0.04 0.464 0.209 0.464 0.437 0 0.429 0.85 0.625 2.731 0.629 1.126 0.002 1.185 0.028 1.185 0.518 0 0.504 0.034 0.515 1.546 0.515 1.511 0 1.546 0.011 1.546 0.515 0 0.412 0.103 0.515 0.515 0.515 0.378 0 0.515 0.11 0.515 0.412 0 0.357 0.137 0.412 1.031 0.412 0.962 0 1.031 0.034 1.031 0.515 0 0.501 0.041 0.515 1.443 0.515 h 1.443 v 2.061 v 2.061 h 1.031 c 0.962 0 1.031 0.034 1.031 0.515 0 0.412 0.103 0.515 0.515 0.515 0.378 0 0.515 0.11 0.515 0.412 0 0.302 0.137 0.412 0.515 0.412 0.412 0 0.515 0.103 0.515 0.515 0 0.473 0.076 0.515 0.927 0.515 0.852 0 0.927 0.042 0.927 0.515 0 0.412 0.103 0.515 0.515 0.515 0.5 0 0.515 0.042 0.515 1.423 v 1.423 l -1.031 0.142 c -0.827 0.114 -1.031 0.219 -1.031 0.535 0 0.282 -0.146 0.393 -0.515 0.393 -0.412 0 -0.515 0.103 -0.515 0.515 0 0.378 -0.11 0.515 -0.412 0.515 -0.373 0 -0.412 0.137 -0.412 1.443 0 1.402 -0.015 1.443 -0.515 1.443 -0.412 0 -0.515 0.103 -0.515 0.515 0 0.412 -0.103 0.515 -0.515 0.515 -0.504 0 -0.515 0.034 -0.515 1.546 0 1.511 -0.011 1.546 -0.515 1.546 -0.481 0 -0.515 0.069 -0.515 1.031 v 1.031 h -2.473 c -2.286 0 -2.473 0.029 -2.473 0.389 0 0.302 -0.204 0.419 -0.917 0.526 -0.899 0.135 -0.919 0.155 -1.054 1.054 -0.118 0.79 -0.205 0.917 -0.629 0.917 -0.387 0 -0.492 0.11 -0.492 0.515 0 0.378 -0.11 0.515 -0.412 0.515 -0.302 0 -0.412 0.137 -0.412 0.515 0 0.435 -0.096 0.515 -0.618 0.515 h -0.618 v 1.443 c 0 1.305 -0.039 1.443 -0.412 1.443 -0.357 0 -0.412 0.137 -0.412 1.031 0 0.962 -0.034 1.031 -0.515 1.031 -0.412 0 -0.515 0.103 -0.515 0.515 0 0.412 -0.103 0.515 -0.515 0.515 -0.504 0 -0.515 0.034 -0.515 1.546 0 1.511 0.011 1.546 0.515 1.546 0.412 0 0.515 0.103 0.515 0.515 0 0.412 0.103 0.515 0.515 0.515 0.481 0 0.515 0.069 0.515 1.031 0 0.893 0.055 1.031 0.412 1.031 0.327 0 0.413 0.138 0.414 0.67 0.001 0.368 0.06 1.018 0.13 1.443 0.121 0.73 0.097 0.773 -0.414 0.773 -0.441 0 -0.542 -0.096 -0.542 -0.515 z" style="opacity:0.99"/><path d="m 140.41 153.47 c 0 -0.412 -0.103 -0.515 -0.515 -0.515 -0.501 0 -0.515 -0.041 -0.515 -1.443 0 -1.295 -0.041 -1.443 -0.403 -1.443 -0.358 0 -0.41 -0.169 -0.464 -1.494 -0.056 -1.371 -0.099 -1.5 -0.524 -1.56 -0.298 -0.042 -0.464 -0.208 -0.464 -0.464 0 -0.287 -0.144 -0.398 -0.515 -0.398 -0.481 0 -0.515 -0.069 -0.515 -1.031 0 -0.962 -0.034 -1.031 -0.515 -1.031 h -0.515 v -4.431 v -4.431 h -0.515 h -0.515 v -2.989 v -2.989 h -0.515 c -0.435 0 -0.515 -0.096 -0.515 -0.618 0 -0.522 -0.08 -0.618 -0.515 -0.618 h -0.515 v -2.989 v -2.989 h -1.031 c -0.893 0 -1.031 -0.055 -1.031 -0.412 0 -0.302 -0.137 -0.412 -0.515 -0.412 -0.378 0 -0.515 0.11 -0.515 0.412 0 0.383 -0.137 0.412 -1.958 0.412 -1.951 0 -1.958 0.002 -1.958 0.515 v 0.515 h -3.377 h -3.377 l -0.139 -0.927 c -0.108 -0.719 -0.226 -0.927 -0.525 -0.927 -0.268 0 -0.406 -0.174 -0.451 -0.567 -0.046 -0.4 -0.198 -0.586 -0.516 -0.631 -0.281 -0.04 -0.475 -0.234 -0.515 -0.515 -0.045 -0.319 -0.231 -0.47 -0.631 -0.516 -0.4 -0.046 -0.567 -0.182 -0.567 -0.464 0 -0.261 -0.142 -0.399 -0.412 -0.399 -0.302 0 -0.412 -0.137 -0.412 -0.515 0 -0.412 -0.103 -0.515 -0.515 -0.515 -0.412 0 -0.515 -0.103 -0.515 -0.515 0 -0.412 -0.103 -0.515 -0.515 -0.515 -0.412 0 -0.515 -0.103 -0.515 -0.515 0 -0.378 -0.11 -0.515 -0.412 -0.515 -0.302 0 -0.412 -0.137 -0.412 -0.515 0 -0.412 -0.103 -0.515 -0.515 -0.515 h -0.515 v -2.473 c 0 -2.336 0.023 -2.473 0.412 -2.473 0.275 0 0.412 -0.137 0.412 -0.412 0 -0.302 0.137 -0.412 0.515 -0.412 0.407 0 0.515 -0.104 0.515 -0.496 0 -0.439 0.119 -0.512 1.031 -0.638 0.827 -0.114 1.031 -0.219 1.031 -0.535 0 -0.282 0.146 -0.393 0.515 -0.393 0.412 0 0.515 -0.103 0.515 -0.515 0 -0.412 0.103 -0.515 0.515 -0.515 0.412 0 0.515 -0.103 0.515 -0.515 0 -0.473 0.076 -0.515 0.927 -0.515 0.852 0 0.927 -0.042 0.927 -0.515 0 -0.412 0.103 -0.515 0.515 -0.515 0.412 0 0.515 -0.103 0.515 -0.515 0 -0.481 0.069 -0.515 1.031 -0.515 0.881 0 1.031 -0.058 1.031 -0.398 0 -0.256 0.166 -0.421 0.464 -0.464 0.294 -0.042 0.487 -0.231 0.528 -0.519 0.054 -0.382 0.216 -0.463 1.031 -0.515 l 0.966 -0.062 l 0.059 -2.01 c 0.054 -1.84 0.093 -2.01 0.464 -2.01 0.364 0 0.405 -0.146 0.405 -1.443 v -1.443 l 0.773 -0.002 c 0.425 -0.001 1.121 -0.06 1.546 -0.13 l 0.773 -0.128 v -1.931 c 0 -1.922 -0.002 -1.931 -0.515 -1.931 -0.473 0 -0.515 -0.076 -0.515 -0.927 0 -0.852 -0.042 -0.927 -0.515 -0.927 -0.412 0 -0.515 -0.103 -0.515 -0.515 0 -0.412 -0.103 -0.515 -0.515 -0.515 -0.435 0 -0.515 -0.096 -0.515 -0.618 0 -0.522 0.08 -0.618 0.515 -0.618 0.513 0 0.515 -0.007 0.515 -1.958 0 -1.951 -0.002 -1.958 -0.515 -1.958 -0.473 0 -0.515 -0.076 -0.515 -0.927 0 -0.852 0.042 -0.927 0.515 -0.927 0.412 0 0.515 -0.103 0.515 -0.515 0 -0.504 0.034 -0.515 1.546 -0.515 1.511 0 1.546 -0.011 1.546 -0.515 0 -0.481 0.069 -0.515 1.031 -0.515 0.962 0 1.031 -0.034 1.031 -0.515 0 -0.378 0.11 -0.515 0.412 -0.515 0.302 0 0.412 -0.137 0.412 -0.515 0 -0.481 0.069 -0.515 1.031 -0.515 0.893 0 1.031 -0.055 1.031 -0.412 0 -0.391 0.138 -0.412 2.731 -0.414 1.502 -0.001 3.079 -0.06 3.504 -0.13 l 0.773 -0.128 v -1.416 v -1.416 h 2.061 c 2.061 0 2.061 0 2.061 -0.515 v -0.515 h 2.37 h 2.37 v 0.515 c 0 0.504 0.034 0.515 1.546 0.515 1.511 0 1.546 0.011 1.546 0.515 0 0.412 0.103 0.515 0.515 0.515 0.368 0 0.515 0.111 0.515 0.389 0 0.302 0.204 0.419 0.915 0.526 0.733 0.11 0.927 0.227 0.979 0.59 0.054 0.383 0.215 0.463 1.043 0.516 0.811 0.052 0.979 0.132 0.979 0.464 0 0.344 0.147 0.401 1.031 0.401 0.962 0 1.031 0.034 1.031 0.515 0 0.412 0.103 0.515 0.515 0.515 0.412 0 0.515 0.103 0.515 0.515 0 0.473 0.076 0.515 0.927 0.515 0.852 0 0.928 0.042 0.928 0.515 0 0.481 0.069 0.515 1.031 0.515 0.962 0 1.031 0.034 1.031 0.515 0 0.412 0.103 0.515 0.515 0.515 0.412 0 0.515 0.103 0.515 0.515 0 0.412 0.103 0.515 0.515 0.515 0.412 0 0.515 0.103 0.515 0.515 0 0.412 0.103 0.515 0.515 0.515 0.378 0 0.515 0.11 0.515 0.412 0 0.351 0.137 0.412 0.927 0.412 0.852 0 0.928 0.042 0.928 0.515 0 0.412 0.103 0.515 0.515 0.515 0.412 0 0.515 0.103 0.515 0.515 0 0.412 0.103 0.515 0.515 0.515 0.412 0 0.515 0.103 0.515 0.515 0 0.412 0.103 0.515 0.515 0.515 0.412 0 0.515 0.103 0.515 0.515 0 0.412 0.103 0.515 0.515 0.515 0.481 0 0.515 0.069 0.515 1.031 0 0.962 0.034 1.031 0.515 1.031 0.378 0 0.515 0.11 0.515 0.412 0 0.275 0.137 0.412 0.412 0.412 0.302 0 0.412 0.137 0.412 0.515 0 0.406 0.105 0.515 0.492 0.515 0.424 0 0.511 0.126 0.629 0.917 0.134 0.895 0.158 0.92 1.034 1.051 0.874 0.131 0.9 0.157 1.032 1.042 0.107 0.713 0.221 0.907 0.536 0.907 0.342 0 0.4 0.148 0.4 1.031 0 0.962 0.034 1.031 0.515 1.031 0.481 0 0.515 0.069 0.515 1.031 0 0.962 0.034 1.031 0.515 1.031 0.412 0 0.515 0.103 0.515 0.515 0 0.378 0.11 0.515 0.412 0.515 0.357 0 0.412 0.137 0.412 1.031 0 0.962 0.034 1.031 0.515 1.031 0.443 0 0.516 0.093 0.518 0.67 0.005 1.363 0.242 2.216 0.616 2.216 0.374 0 0.611 0.853 0.616 2.216 0.002 0.532 0.087 0.67 0.414 0.67 0.321 0 0.412 0.137 0.412 0.618 0 0.522 0.08 0.618 0.515 0.618 h 0.515 v 2.37 v 2.37 h 0.515 h 0.515 v 3.504 v 3.504 h 0.515 c 0.487 0 0.515 0.062 0.515 1.134 0 1.072 -0.028 1.134 -0.515 1.134 -0.378 0 -0.515 0.11 -0.515 0.412 0 0.351 -0.137 0.412 -0.927 0.412 h -0.928 v -1.031 c 0 -0.956 -0.037 -1.031 -0.504 -1.031 -0.455 0 -0.51 -0.095 -0.567 -0.979 l -0.063 -0.979 h -1.031 c -0.912 0 -1.038 0.053 -1.096 0.464 -0.057 0.401 -0.189 0.464 -0.979 0.464 -0.837 0 -0.913 0.043 -0.913 0.515 0 0.412 -0.103 0.515 -0.515 0.515 -0.412 0 -0.515 0.103 -0.515 0.515 0 0.412 -0.103 0.515 -0.515 0.515 -0.412 0 -0.515 0.103 -0.515 0.515 0 0.412 -0.103 0.515 -0.515 0.515 -0.412 0 -0.515 0.103 -0.515 0.515 0 0.378 -0.11 0.515 -0.412 0.515 -0.376 0 -0.412 -0.137 -0.412 -1.546 0 -1.374 0.043 -1.546 0.386 -1.546 0.495 0 0.644 -0.72 0.644 -3.117 v -1.829 h -2.061 c -2.061 0 -2.061 0 -2.061 0.515 0 0.504 -0.034 0.515 -1.546 0.515 -1.511 0 -1.546 0.011 -1.546 0.515 0 0.412 -0.103 0.515 -0.515 0.515 -0.378 0 -0.515 0.11 -0.515 0.412 0 0.275 -0.137 0.412 -0.412 0.412 -0.302 0 -0.412 0.137 -0.412 0.515 0 0.481 -0.069 0.515 -1.031 0.515 h -1.031 v -0.927 c 0 -0.852 -0.042 -0.927 -0.515 -0.927 -0.481 0 -0.515 -0.069 -0.515 -1.031 0 -0.893 -0.055 -1.031 -0.412 -1.031 -0.302 0 -0.412 -0.137 -0.412 -0.515 0 -0.409 -0.104 -0.515 -0.504 -0.515 -0.455 0 -0.51 -0.095 -0.567 -0.979 -0.054 -0.835 -0.131 -0.989 -0.527 -1.045 -0.298 -0.042 -0.464 -0.208 -0.464 -0.464 0 -0.287 -0.144 -0.398 -0.515 -0.398 -0.481 0 -0.515 -0.069 -0.515 -1.031 0 -0.962 -0.034 -1.031 -0.515 -1.031 -0.412 0 -0.515 -0.103 -0.515 -0.515 0 -0.412 -0.103 -0.515 -0.515 -0.515 -0.412 0 -0.515 -0.103 -0.515 -0.515 0 -0.412 -0.103 -0.515 -0.515 -0.515 -0.412 0 -0.515 -0.103 -0.515 -0.515 0 -0.378 -0.11 -0.515 -0.412 -0.515 -0.302 0 -0.412 -0.137 -0.412 -0.515 0 -0.435 -0.096 -0.515 -0.618 -0.515 -0.481 0 -0.618 -0.092 -0.618 -0.412 0 -0.265 -0.137 -0.412 -0.385 -0.412 -0.451 0 -0.689 1.016 -0.504 2.153 0.085 0.522 0.232 0.727 0.554 0.773 0.273 0.039 0.463 0.238 0.504 0.526 0.042 0.298 0.208 0.464 0.464 0.464 0.34 0 0.398 0.15 0.398 1.031 0 0.962 0.034 1.031 0.515 1.031 0.473 0 0.515 0.076 0.515 0.927 0 0.852 0.042 0.927 0.515 0.927 0.481 0 0.515 0.069 0.515 1.031 0 0.962 0.034 1.031 0.515 1.031 0.412 0 0.515 0.103 0.515 0.515 0 0.412 0.103 0.515 0.515 0.515 0.481 0 0.515 0.069 0.515 1.031 0 0.893 0.055 1.031 0.412 1.031 0.341 0 0.412 0.137 0.412 0.799 0 0.439 0.057 1.084 0.127 1.434 0.112 0.562 0.229 0.65 1.01 0.767 0.859 0.129 0.887 0.158 1.019 1.04 l 0.136 0.907 h 1.43 c 1.293 0 1.43 -0.04 1.43 -0.412 0 -0.357 0.137 -0.412 1.031 -0.412 0.962 0 1.031 -0.034 1.031 -0.515 0 -0.473 0.076 -0.515 0.928 -0.515 0.852 0 0.927 0.042 0.927 0.515 0 0.412 0.103 0.515 0.515 0.515 0.473 0 0.515 0.076 0.515 0.927 0 0.79 -0.061 0.927 -0.412 0.927 -0.302 0 -0.412 -0.137 -0.412 -0.515 0 -0.487 -0.062 -0.515 -1.134 -0.515 -1.072 0 -1.134 0.028 -1.134 0.515 0 0.378 -0.11 0.515 -0.412 0.515 -0.351 0 -0.412 0.137 -0.412 0.927 0 0.852 -0.042 0.927 -0.515 0.927 -0.407 0 -0.515 0.104 -0.515 0.496 0 0.439 -0.119 0.512 -1.031 0.638 l -1.031 0.142 v 0.908 c 0 0.831 -0.044 0.908 -0.515 0.908 -0.412 0 -0.515 0.103 -0.515 0.515 0 0.412 -0.103 0.515 -0.515 0.515 -0.412 0 -0.515 0.103 -0.515 0.515 0 0.412 -0.103 0.515 -0.515 0.515 -0.412 0 -0.515 0.103 -0.515 0.515 0 0.378 -0.11 0.515 -0.412 0.515 -0.351 0 -0.412 0.137 -0.412 0.928 0 0.852 -0.042 0.928 -0.515 0.928 -0.412 0 -0.515 0.103 -0.515 0.515 0 0.412 -0.103 0.515 -0.515 0.515 -0.504 0 -0.515 0.034 -0.515 1.546 0 1.511 -0.012 1.546 -0.515 1.546 -0.412 0 -0.515 0.103 -0.515 0.515 0 0.412 -0.103 0.515 -0.515 0.515 -0.378 0 -0.515 0.11 -0.515 0.412 0 0.357 -0.137 0.412 -1.031 0.412 -0.962 0 -1.031 0.034 -1.031 0.515 0 0.473 -0.076 0.515 -0.928 0.515 -0.852 0 -0.927 0.042 -0.927 0.515 0 0.412 -0.103 0.515 -0.515 0.515 -0.412 0 -0.515 0.103 -0.515 0.515 0 0.412 -0.103 0.515 -0.515 0.515 -0.412 0 -0.515 0.103 -0.515 0.515 0 0.369 -0.111 0.515 -0.393 0.515 -0.315 0 -0.421 0.204 -0.535 1.031 -0.112 0.811 -0.222 1.031 -0.52 1.031 -0.236 0 -0.403 0.175 -0.444 0.464 -0.041 0.289 -0.231 0.487 -0.506 0.527 -0.48 0.069 -0.693 0.722 -0.693 2.127 0 0.661 -0.071 0.799 -0.412 0.799 -0.357 0 -0.412 0.137 -0.412 1.031 0 0.962 -0.034 1.031 -0.515 1.031 -0.366 0 -0.515 0.112 -0.515 0.385 0 0.404 -0.808 0.638 -2.216 0.643 -0.532 0.002 -0.67 0.087 -0.67 0.414 0 0.385 -0.137 0.412 -2.061 0.412 -2.061 0 -2.061 0 -2.061 -0.515 z m 5.977 -50.909 c 0 -0.501 0.041 -0.515 1.443 -0.515 1.305 0 1.443 -0.039 1.443 -0.412 0 -0.385 0.137 -0.412 2.061 -0.412 h 2.061 v -1.031 c 0 -0.962 0.034 -1.031 0.515 -1.031 0.481 0 0.515 -0.069 0.515 -1.031 0 -0.962 -0.034 -1.031 -0.515 -1.031 -0.412 0 -0.515 -0.103 -0.515 -0.515 0 -0.504 0.034 -0.515 1.555 -0.515 h 1.555 l -0.061 -1.494 c -0.056 -1.371 -0.099 -1.5 -0.524 -1.56 -0.338 -0.048 -0.464 -0.204 -0.464 -0.576 0 -0.501 -0.026 -0.509 -1.494 -0.449 l -1.494 0.061 l -0.063 0.979 l -0.063 0.979 h -1.535 h -1.535 v 1.031 v 1.031 h -0.928 c -0.852 0 -0.927 0.042 -0.927 0.515 0 0.412 -0.103 0.515 -0.515 0.515 -0.412 0 -0.515 0.103 -0.515 0.515 0 0.5 -0.042 0.515 -1.423 0.515 h -1.423 l -0.142 -1.031 c -0.114 -0.827 -0.219 -1.031 -0.535 -1.031 -0.282 0 -0.393 0.146 -0.393 0.515 0 0.412 -0.103 0.515 -0.515 0.515 -0.412 0 -0.515 0.103 -0.515 0.515 0 0.412 -0.103 0.515 -0.515 0.515 -0.378 0 -0.515 0.11 -0.515 0.412 0 0.302 -0.137 0.412 -0.515 0.412 -0.473 0 -0.515 -0.076 -0.515 -0.927 0 -0.79 -0.061 -0.927 -0.412 -0.927 -0.302 0 -0.412 -0.137 -0.412 -0.515 0 -0.408 -0.104 -0.515 -0.501 -0.515 -0.363 0 -0.519 -0.128 -0.567 -0.464 -0.06 -0.426 -0.189 -0.469 -1.56 -0.524 -1.325 -0.054 -1.494 -0.106 -1.494 -0.464 0 -0.293 -0.141 -0.403 -0.515 -0.403 -0.378 0 -0.515 0.11 -0.515 0.412 0 0.341 -0.137 0.412 -0.799 0.412 -0.439 0 -1.084 0.057 -1.434 0.127 -0.564 0.113 -0.65 0.228 -0.771 1.031 l -0.135 0.904 h -0.904 c -0.827 0 -0.904 0.044 -0.904 0.515 0 0.412 -0.103 0.515 -0.515 0.515 -0.481 0 -0.515 0.069 -0.515 1.031 v 1.031 h 5.449 h 5.449 l 0.139 0.927 c 0.108 0.722 0.225 0.927 0.528 0.927 0.277 0 0.389 0.148 0.389 0.515 v 0.515 h 3.504 h 3.504 v -0.515 z" style="opacity:0.99"/><path d="m 179.53 155.59 c -0.042 -0.293 -0.231 -0.487 -0.517 -0.528 -0.281 -0.04 -0.475 -0.234 -0.515 -0.515 -0.055 -0.389 -0.213 -0.46 -1.146 -0.513 -0.914 -0.053 -1.082 -0.125 -1.082 -0.464 0 -0.338 -0.146 -0.401 -0.928 -0.401 h -0.927 v -5.565 v -5.565 h -0.515 c -0.473 0 -0.515 -0.076 -0.515 -0.928 0 -0.852 0.042 -0.927 0.515 -0.927 0.378 0 0.515 0.11 0.515 0.412 0 0.302 0.137 0.412 0.515 0.412 0.435 0 0.515 0.096 0.515 0.618 0 0.522 0.08 0.618 0.515 0.618 0.378 0 0.515 0.11 0.515 0.412 0 0.376 0.137 0.412 1.546 0.412 h 1.546 v -0.928 v -0.927 h 0.928 h 0.927 v 0.927 c 0 0.852 0.042 0.928 0.515 0.928 0.412 0 0.515 0.103 0.515 0.515 0 0.504 0.034 0.515 1.546 0.515 1.511 0 1.546 -0.011 1.546 -0.515 0 -0.473 0.076 -0.515 0.928 -0.515 h 0.927 v 1.958 c 0 1.951 -0.002 1.958 -0.515 1.958 -0.435 0 -0.515 0.096 -0.515 0.618 0 0.471 -0.094 0.618 -0.393 0.618 -0.349 0 -0.41 0.221 -0.54 1.958 -0.141 1.884 -0.165 1.958 -0.638 1.958 -0.443 0 -0.491 0.089 -0.491 0.913 0 0.79 -0.063 0.922 -0.464 0.979 -0.332 0.047 -0.482 0.227 -0.529 0.633 -0.046 0.4 -0.182 0.567 -0.464 0.567 -0.261 0 -0.399 0.142 -0.399 0.412 0 0.373 -0.137 0.412 -1.428 0.412 -1.324 0 -1.433 -0.034 -1.494 -0.464 z" style="opacity:0.99"/><path d="m 78.37 100.62 v -1.43 l -0.888 -0.133 c -1.421 -0.213 -2.09 -0.068 -2.166 0.469 -0.042 0.298 -0.208 0.464 -0.464 0.464 -0.334 0 -0.398 -0.149 -0.398 -0.927 0 -0.852 0.042 -0.927 0.515 -0.927 0.481 0 0.515 -0.069 0.515 -1.031 0 -0.962 0.034 -1.031 0.515 -1.031 0.412 0 0.515 -0.103 0.515 -0.515 0 -0.372 0.111 -0.515 0.4 -0.515 0.316 0 0.429 -0.195 0.539 -0.927 0.108 -0.722 0.225 -0.927 0.528 -0.927 0.295 0 0.389 -0.15 0.389 -0.618 0 -0.522 0.08 -0.618 0.515 -0.618 0.378 0 0.515 -0.11 0.515 -0.412 0 -0.302 0.137 -0.412 0.515 -0.412 0.481 0 0.515 -0.069 0.515 -1.031 0 -0.962 0.034 -1.031 0.515 -1.031 0.378 0 0.515 -0.11 0.515 -0.412 0 -0.302 0.137 -0.412 0.515 -0.412 0.479 0 0.515 -0.07 0.515 -1.01 v -1.01 l 0.915 -0.137 c 0.733 -0.11 0.927 -0.227 0.979 -0.59 0.041 -0.287 0.234 -0.477 0.528 -0.519 0.298 -0.042 0.464 -0.208 0.464 -0.464 0 -0.287 0.144 -0.398 0.515 -0.398 0.481 0 0.515 -0.069 0.515 -1.031 v -1.031 h 1.031 c 0.893 0 1.031 -0.055 1.031 -0.412 0 -0.302 0.137 -0.412 0.515 -0.412 0.412 0 0.515 -0.103 0.515 -0.515 0 -0.412 0.103 -0.515 0.515 -0.515 0.409 0 0.515 -0.104 0.515 -0.503 0 -0.438 0.12 -0.521 0.927 -0.642 0.722 -0.108 0.927 -0.225 0.927 -0.528 0 -0.277 0.148 -0.389 0.515 -0.389 0.412 0 0.515 -0.103 0.515 -0.515 0 -0.412 0.103 -0.515 0.515 -0.515 0.412 0 0.515 -0.103 0.515 -0.515 0 -0.473 0.076 -0.515 0.927 -0.515 0.852 0 0.927 -0.042 0.927 -0.515 0 -0.481 0.069 -0.515 1.031 -0.515 0.893 0 1.031 -0.055 1.031 -0.412 0 -0.357 0.137 -0.412 1.031 -0.412 0.962 0 1.031 -0.034 1.031 -0.515 0 -0.473 0.076 -0.515 0.927 -0.515 h 0.927 v 1.443 v 1.443 h 2.989 h 2.989 v -0.515 c 0 -0.435 0.096 -0.515 0.618 -0.515 0.481 0 0.618 -0.092 0.618 -0.412 0 -0.275 0.137 -0.412 0.412 -0.412 0.383 0 0.412 0.137 0.412 1.958 0 1.951 0.002 1.958 0.515 1.958 0.412 0 0.515 0.103 0.515 0.515 v 0.515 h 2.473 c 2.336 0 2.473 0.023 2.473 0.412 0 0.385 0.138 0.412 2.113 0.414 1.162 0.001 2.739 0.061 3.504 0.133 1.287 0.122 1.391 0.168 1.391 0.617 0 0.348 -0.117 0.485 -0.412 0.485 -0.275 0 -0.412 0.137 -0.412 0.412 0 0.402 -0.137 0.412 -5.565 0.412 h -5.565 v 1.031 v 1.031 h -1.031 c -0.962 0 -1.031 -0.034 -1.031 -0.515 0 -0.378 -0.11 -0.515 -0.412 -0.515 -0.302 0 -0.412 -0.137 -0.412 -0.515 0 -0.504 -0.034 -0.515 -1.546 -0.515 h -1.546 v 1.546 c 0 1.39 -0.04 1.546 -0.398 1.546 -0.256 0 -0.421 0.166 -0.464 0.464 -0.042 0.298 -0.232 0.487 -0.53 0.53 -0.298 0.042 -0.464 0.208 -0.464 0.464 0 0.372 -0.168 0.398 -2.576 0.398 h -2.576 v 0.504 c 0 0.455 -0.095 0.51 -0.979 0.567 -0.835 0.054 -0.989 0.131 -1.045 0.527 -0.048 0.336 -0.204 0.464 -0.567 0.464 -0.397 0 -0.501 0.107 -0.501 0.515 0 0.473 -0.076 0.515 -0.927 0.515 -0.852 0 -0.927 0.042 -0.927 0.515 0 0.481 -0.069 0.515 -1.031 0.515 -0.893 0 -1.031 0.055 -1.031 0.412 0 0.341 -0.137 0.412 -0.799 0.412 -1.38 0 -2.087 0.218 -2.087 0.644 0 0.275 -0.149 0.386 -0.515 0.386 -0.41 0 -0.515 0.104 -0.515 0.506 0 0.485 -0.061 0.509 -1.494 0.567 -1.371 0.056 -1.5 0.099 -1.56 0.524 -0.048 0.336 -0.204 0.464 -0.567 0.464 -0.397 0 -0.501 0.107 -0.501 0.515 0 0.412 -0.103 0.515 -0.515 0.515 -0.412 0 -0.515 0.103 -0.515 0.515 0 0.412 -0.103 0.515 -0.515 0.515 -0.473 0 -0.515 0.076 -0.515 0.927 0 0.79 -0.061 0.927 -0.412 0.927 -0.357 0 -0.412 0.137 -0.412 1.031 0 0.962 -0.034 1.031 -0.515 1.031 -0.412 0 -0.515 0.103 -0.515 0.515 0 0.412 -0.103 0.515 -0.515 0.515 -0.5 0 -0.515 -0.042 -0.515 -1.43 z" style="opacity:0.99"/><path d="m 117.4 72.34 c 0.071 -0.354 0.129 -0.772 0.129 -0.927 0 -0.165 0.215 -0.283 0.515 -0.283 0.412 0 0.515 -0.103 0.515 -0.515 0 -0.378 0.11 -0.515 0.412 -0.515 0.302 0 0.412 -0.137 0.412 -0.515 0 -0.412 0.103 -0.515 0.515 -0.515 0.412 0 0.515 -0.103 0.515 -0.515 0 -0.481 0.069 -0.515 1.031 -0.515 0.893 0 1.031 -0.055 1.031 -0.412 0 -0.383 0.137 -0.412 1.958 -0.412 1.821 0 1.958 0.029 1.958 0.412 0 0.302 -0.137 0.412 -0.515 0.412 -0.412 0 -0.515 0.103 -0.515 0.515 0 0.412 -0.103 0.515 -0.515 0.515 -0.412 0 -0.515 0.103 -0.515 0.515 0 0.481 -0.069 0.515 -1.031 0.515 -0.962 0 -1.031 0.034 -1.031 0.515 0 0.473 -0.076 0.515 -0.927 0.515 -0.79 0 -0.927 0.061 -0.927 0.412 0 0.302 -0.137 0.412 -0.515 0.412 -0.412 0 -0.515 0.103 -0.515 0.515 0 0.483 -0.067 0.515 -1.056 0.515 h -1.056 l 0.129 -0.644 z" style="opacity:0.99"/><path d="m 125.36 73.61 c 0 -0.302 0.137 -0.412 0.515 -0.412 0.412 0 0.515 -0.103 0.515 -0.515 0 -0.412 0.103 -0.515 0.515 -0.515 0.473 0 0.515 0.076 0.515 0.927 v 0.927 h -1.031 c -0.893 0 -1.031 -0.055 -1.031 -0.412 z" style="opacity:0.99"/><path d="m 134.43 67.63 c 0 -0.302 0.137 -0.412 0.515 -0.412 0.378 0 0.515 0.11 0.515 0.412 0 0.302 -0.137 0.412 -0.515 0.412 -0.378 0 -0.515 -0.11 -0.515 -0.412 z" style="opacity:0.99"/><path d="m 111.42 72.34 c 0.071 -0.354 0.129 -0.772 0.129 -0.927 0 -0.156 0.186 -0.283 0.412 -0.283 0.302 0 0.412 -0.137 0.412 -0.515 0 -0.412 0.103 -0.515 0.515 -0.515 0.473 0 0.515 0.076 0.515 0.927 0 0.852 -0.042 0.927 -0.515 0.927 -0.412 0 -0.515 0.103 -0.515 0.515 0 0.419 -0.101 0.515 -0.541 0.515 -0.496 0 -0.53 -0.054 -0.412 -0.644 z" style="opacity:0.99"/><path d="m 111.38 73.61 c 0 -0.283 0.047 -0.399 0.104 -0.258 0.057 0.142 0.057 0.374 0 0.515 -0.057 0.142 -0.104 0.026 -0.104 -0.258 z" style="opacity:0.99"/><path d="m 110.52 73.61 c 0 -0.275 0.137 -0.412 0.412 -0.412 0.275 0 0.412 0.137 0.412 0.412 0 0.275 -0.137 0.412 -0.412 0.412 -0.275 0 -0.412 -0.137 -0.412 -0.412 z" style="opacity:0.99"/><path d="m 76.51 107.74 c 0 -0.156 -0.058 -0.573 -0.129 -0.927 -0.118 -0.591 -0.084 -0.644 0.412 -0.644 0.504 0 0.541 0.064 0.541 0.927 0 0.79 -0.061 0.927 -0.412 0.927 -0.227 0 -0.412 -0.128 -0.412 -0.283 z" style="opacity:0.99"/><path d="m 75.48 105.55 c 0 -0.275 0.137 -0.412 0.412 -0.412 0.275 0 0.412 0.137 0.412 0.412 0 0.275 -0.137 0.412 -0.412 0.412 -0.275 0 -0.412 -0.137 -0.412 -0.412 z" style="opacity:0.99"/><path d="m 77.54 102.56 c 0 -0.378 0.11 -0.515 0.412 -0.515 0.302 0 0.412 0.137 0.412 0.515 0 0.378 -0.11 0.515 -0.412 0.515 -0.302 0 -0.412 -0.137 -0.412 -0.515 z" style="opacity:0.99"/><path d="m 77.7 108.1 c 0.142 -0.057 0.374 -0.057 0.515 0 0.142 0.057 0.026 0.104 -0.258 0.104 -0.283 0 -0.399 -0.047 -0.258 -0.104 z" style="opacity:0.99"/><path d="m 69.51 114.52 c 0 -0.412 -0.103 -0.515 -0.515 -0.515 -0.473 0 -0.515 -0.076 -0.515 -0.927 0 -0.852 0.042 -0.927 0.515 -0.927 0.412 0 0.515 -0.103 0.515 -0.515 0 -0.366 0.112 -0.515 0.385 -0.515 0.475 0 0.64 -0.832 0.643 -3.246 0.002 -1.562 0.036 -1.7 0.414 -1.7 0.393 0 0.412 0.137 0.412 2.989 v 2.989 h -0.515 c -0.501 0 -0.515 0.041 -0.515 1.443 0 1.305 -0.039 1.443 -0.412 1.443 -0.302 0 -0.412 -0.137 -0.412 -0.515 z" style="opacity:0.99"/><path d="m 72.39 102.56 c 0 -0.412 0.103 -0.515 0.515 -0.515 0.412 0 0.515 0.103 0.515 0.515 0 0.412 -0.103 0.515 -0.515 0.515 -0.412 0 -0.515 -0.103 -0.515 -0.515 z" style="opacity:0.99"/><path d="m 73.58 101.09 c 0.142 -0.057 0.374 -0.057 0.515 0 0.142 0.057 0.026 0.104 -0.258 0.104 -0.283 0 -0.399 -0.047 -0.258 -0.104 z" style="opacity:0.99"/><path d="m 73.42 99.58 c 0 -0.275 0.137 -0.412 0.412 -0.412 0.275 0 0.412 0.137 0.412 0.412 0 0.275 -0.137 0.412 -0.412 0.412 -0.275 0 -0.412 -0.137 -0.412 -0.412 z" style="opacity:0.99"/><path d="m 71.36 104.11 c 0 -0.962 0.034 -1.031 0.515 -1.031 0.481 0 0.515 0.069 0.515 1.031 0 0.962 -0.034 1.031 -0.515 1.031 -0.481 0 -0.515 -0.069 -0.515 -1.031 z" style="opacity:0.99"/><path d="m 71.36 106.07 c 0 -0.852 0.042 -0.927 0.515 -0.927 0.473 0 0.515 0.076 0.515 0.927 0 0.852 -0.042 0.927 -0.515 0.927 -0.473 0 -0.515 -0.076 -0.515 -0.927 z" style="opacity:0.99"/><path d="m 114.44 187.48 c 0 -0.513 -0.007 -0.515 -1.958 -0.515 -1.821 0 -1.958 -0.029 -1.958 -0.412 0 -0.383 0.137 -0.412 1.958 -0.412 1.951 0 1.958 -0.002 1.958 -0.515 0 -0.504 0.034 -0.515 1.546 -0.515 1.511 0 1.546 0.011 1.546 0.515 0 0.513 0.007 0.515 1.958 0.515 1.951 0 1.958 0.002 1.958 0.515 0 0.412 0.103 0.515 0.515 0.515 0.378 0 0.515 0.11 0.515 0.412 0 0.398 -0.137 0.412 -4.02 0.412 h -4.02 v -0.515 z" style="opacity:0.99"/><path d="m 121.45 188.62 c 0 -0.378 -0.173 -0.41 -2.525 -0.471 l -2.525 -0.065 l 3.04 -0.045 c 2.888 -0.042 3.04 -0.065 3.04 -0.457 0 -0.389 0.137 -0.412 2.473 -0.412 2.286 0 2.473 0.029 2.473 0.389 0 0.303 -0.205 0.42 -0.927 0.528 -0.51 0.076 -1.014 0.085 -1.121 0.019 -0.107 -0.066 -0.571 -0.06 -1.031 0.014 -0.633 0.101 -0.837 0.228 -0.837 0.52 0 0.326 -0.161 0.386 -1.031 0.386 -0.888 0 -1.031 -0.056 -1.031 -0.406 z" style="opacity:0.99"/><path d="m 127.42 189.67 c 0 -0.445 -0.824 -0.639 -2.731 -0.643 -0.652 -0.001 -1.185 -0.092 -1.185 -0.201 0 -0.365 0.786 -0.626 1.893 -0.628 1.462 -0.004 2.023 -0.175 2.023 -0.616 0 -0.274 0.23 -0.399 0.927 -0.504 0.732 -0.11 0.927 -0.223 0.927 -0.539 0 -0.341 0.148 -0.4 1.016 -0.4 0.897 0 1.024 0.054 1.082 0.464 0.042 0.298 0.232 0.487 0.53 0.53 0.336 0.048 0.464 0.204 0.464 0.567 0 0.397 0.107 0.501 0.515 0.501 0.378 0 0.515 0.11 0.515 0.412 0 0.369 -0.137 0.412 -1.314 0.412 -1.886 0 -2.602 0.177 -2.602 0.644 0 0.326 -0.16 0.386 -1.031 0.386 -0.869 0 -1.031 -0.06 -1.031 -0.385 z" style="opacity:0.99"/><path d="m 131.55 185.63 c 0 -0.378 0.11 -0.515 0.412 -0.515 0.302 0 0.412 0.137 0.412 0.515 0 0.378 -0.11 0.515 -0.412 0.515 -0.302 0 -0.412 -0.137 -0.412 -0.515 z" style="opacity:0.99"/><path d="m 133.4 188.62 c 0 -0.227 -0.086 -0.412 -0.191 -0.412 -0.248 0 -0.839 -0.591 -0.839 -0.839 0 -0.105 0.232 -0.191 0.515 -0.191 0.378 0 0.515 0.11 0.515 0.412 0 0.357 0.137 0.412 1.031 0.412 0.893 0 1.031 -0.055 1.031 -0.412 0 -0.302 0.137 -0.412 0.515 -0.412 0.374 0 0.515 0.111 0.515 0.403 0 0.357 0.173 0.411 1.494 0.474 l 1.494 0.071 l -1.494 0.041 c -1.343 0.037 -1.494 0.083 -1.494 0.453 0 0.376 -0.137 0.412 -1.546 0.412 -1.408 0 -1.546 -0.037 -1.546 -0.412 z" style="opacity:0.99"/><path d="m 137.13 187.82 c -1.309 -0.366 -0.024 -0.959 1.531 -0.707 0.525 0.085 0.721 0.222 0.721 0.502 0 0.319 -0.151 0.382 -0.876 0.365 -0.482 -0.011 -1.101 -0.083 -1.376 -0.16 z" style="opacity:0.99"/><path d="m 136.54 188.78 c 0.129 -0.386 0.905 -0.529 2.99 -0.552 1.776 -0.019 1.907 0.008 1.907 0.392 0 0.389 -0.137 0.412 -2.49 0.412 -1.871 0 -2.47 -0.063 -2.407 -0.252 z" style="opacity:0.99"/><path d="m 142.47 188.62 c 0 -0.275 0.137 -0.412 0.412 -0.412 0.275 0 0.412 0.137 0.412 0.412 0 0.275 -0.137 0.412 -0.412 0.412 -0.275 0 -0.412 -0.137 -0.412 -0.412 z" style="opacity:0.99"/><path d="m 141.44 187.59 c 0 -0.275 0.137 -0.412 0.412 -0.412 0.275 0 0.412 0.137 0.412 0.412 0 0.275 -0.137 0.412 -0.412 0.412 -0.275 0 -0.412 -0.137 -0.412 -0.412 z" style="opacity:0.99"/><path d="m 141.44 188.62 c 0 -0.275 0.137 -0.412 0.412 -0.412 0.275 0 0.412 0.137 0.412 0.412 0 0.275 -0.137 0.412 -0.412 0.412 -0.275 0 -0.412 -0.137 -0.412 -0.412 z" style="opacity:0.99"/><path d="m 131.6 190.12 c 0.201 -0.052 0.479 -0.049 0.618 0.008 0.14 0.056 -0.024 0.099 -0.365 0.095 -0.34 -0.004 -0.454 -0.05 -0.254 -0.103 z" style="opacity:0.99"/><path d="m 131.55 189.65 c 0 -0.275 0.137 -0.412 0.412 -0.412 0.275 0 0.412 0.137 0.412 0.412 0 0.275 -0.137 0.412 -0.412 0.412 -0.275 0 -0.412 -0.137 -0.412 -0.412 z" style="opacity:0.99"/><path d="m 132.37 189.65 c 0 -0.302 0.137 -0.412 0.515 -0.412 0.378 0 0.515 0.11 0.515 0.412 0 0.302 -0.137 0.412 -0.515 0.412 -0.378 0 -0.515 -0.11 -0.515 -0.412 z" style="opacity:0.99"/><path d="m 130.31 189.65 c 0 -0.302 0.137 -0.412 0.515 -0.412 0.378 0 0.515 0.11 0.515 0.412 0 0.302 -0.137 0.412 -0.515 0.412 -0.378 0 -0.515 -0.11 -0.515 -0.412 z" style="opacity:0.99"/><path d="m 108.46 185.63 c 0 -0.412 -0.103 -0.515 -0.515 -0.515 -0.412 0 -0.515 -0.103 -0.515 -0.515 0 -0.412 0.103 -0.515 0.515 -0.515 0.378 0 0.515 -0.11 0.515 -0.412 0 -0.275 0.137 -0.412 0.412 -0.412 0.373 0 0.412 0.137 0.412 1.443 0 1.305 -0.039 1.443 -0.412 1.443 -0.302 0 -0.412 -0.137 -0.412 -0.515 z" style="opacity:0.99"/><path d="m 109.29 185.63 c 0 -0.412 0.103 -0.515 0.515 -0.515 0.412 0 0.515 0.103 0.515 0.515 0 0.412 -0.103 0.515 -0.515 0.515 -0.412 0 -0.515 -0.103 -0.515 -0.515 z" style="opacity:0.99"/><path d="m 111.55 185.63 c 0 -0.378 0.11 -0.515 0.412 -0.515 0.302 0 0.412 0.137 0.412 0.515 0 0.378 -0.11 0.515 -0.412 0.515 -0.302 0 -0.412 -0.137 -0.412 -0.515 z" style="opacity:0.99"/><path d="m 112.38 187.59 c 0 -0.302 0.137 -0.412 0.515 -0.412 0.378 0 0.515 0.11 0.515 0.412 0 0.302 -0.137 0.412 -0.515 0.412 -0.378 0 -0.515 -0.11 -0.515 -0.412 z" style="opacity:0.99"/><path d="m 111.39 185.63 c 0.004 -0.34 0.05 -0.454 0.103 -0.254 0.052 0.201 0.049 0.479 -0.008 0.618 -0.056 0.14 -0.099 -0.024 -0.095 -0.365 z" style="opacity:0.99"/><path d="m 110.52 185.63 c 0 -0.378 0.11 -0.515 0.412 -0.515 0.302 0 0.412 0.137 0.412 0.515 0 0.378 -0.11 0.515 -0.412 0.515 -0.302 0 -0.412 -0.137 -0.412 -0.515 z" style="opacity:0.99"/><path d="m 111.55 187.59 c 0 -0.275 0.137 -0.412 0.412 -0.412 0.275 0 0.412 0.137 0.412 0.412 0 0.275 -0.137 0.412 -0.412 0.412 -0.275 0 -0.412 -0.137 -0.412 -0.412 z" style="opacity:0.99"/><path d="m 113.41 185.54 c 0 -0.321 0.131 -0.427 0.53 -0.427 0.677 0 0.616 0.69 -0.069 0.787 -0.351 0.05 -0.462 -0.037 -0.462 -0.361 z" style="opacity:0.99"/><path d="m 113.41 187.57 c 0 -0.324 0.111 -0.411 0.462 -0.361 0.685 0.098 0.745 0.787 0.069 0.787 -0.399 0 -0.53 -0.106 -0.53 -0.427 z" style="opacity:0.99"/><path d="m 116.5 188.62 c 0 -0.378 0.137 -0.412 1.632 -0.412 1.81 0 2.284 0.112 2.284 0.537 0 0.225 -0.422 0.287 -1.958 0.287 -1.821 0 -1.958 -0.029 -1.958 -0.412 z" style="opacity:0.99"/><path d="m 119.38 185.63 c 0 -0.412 0.103 -0.515 0.515 -0.515 0.412 0 0.515 0.103 0.515 0.515 0 0.412 -0.103 0.515 -0.515 0.515 -0.412 0 -0.515 -0.103 -0.515 -0.515 z" style="opacity:0.99"/><path d="m 106.4 186.55 c 0 -0.302 0.137 -0.412 0.515 -0.412 0.378 0 0.515 0.11 0.515 0.412 0 0.302 -0.137 0.412 -0.515 0.412 -0.378 0 -0.515 -0.11 -0.515 -0.412 z" style="opacity:0.99"/><path d="m 82.49 166.67 c 0 -0.378 0.11 -0.515 0.412 -0.515 0.302 0 0.412 0.137 0.412 0.515 0 0.378 -0.11 0.515 -0.412 0.515 -0.302 0 -0.412 -0.137 -0.412 -0.515 z" style="opacity:0.99"/><path d="m 81.46 167.08 c 0 -0.852 0.042 -0.928 0.515 -0.928 0.412 0 0.515 0.103 0.515 0.515 0 0.378 0.11 0.515 0.412 0.515 0.275 0 0.412 0.137 0.412 0.412 0 0.351 -0.137 0.412 -0.927 0.412 h -0.927 v -0.927 z" style="opacity:0.99"/><path d="m 164.38 158.11 c 0 -0.623 0.039 -0.879 0.086 -0.567 0.047 0.312 0.047 0.822 0 1.134 -0.047 0.312 -0.086 0.057 -0.086 -0.567 z" style="opacity:0.99"/><path d="m 165.55 154.2 c 0 -0.893 0.055 -1.031 0.412 -1.031 0.357 0 0.412 0.137 0.412 1.031 0 0.893 -0.055 1.031 -0.412 1.031 -0.357 0 -0.412 -0.137 -0.412 -1.031 z" style="opacity:0.99"/><path d="m 166.38 153.58 c 0 -1.402 0.015 -1.443 0.515 -1.443 0.501 0 0.515 0.041 0.515 1.443 0 1.402 -0.015 1.443 -0.515 1.443 -0.501 0 -0.515 -0.041 -0.515 -1.443 z" style="opacity:0.99"/><path d="m 166.38 155.64 c 0 -0.302 0.137 -0.412 0.515 -0.412 0.378 0 0.515 0.11 0.515 0.412 0 0.302 -0.137 0.412 -0.515 0.412 -0.378 0 -0.515 -0.11 -0.515 -0.412 z" style="opacity:0.99"/><path d="m 152.57 148.73 c 0 -0.378 0.11 -0.515 0.412 -0.515 0.302 0 0.412 0.137 0.412 0.515 0 0.378 -0.11 0.515 -0.412 0.515 -0.302 0 -0.412 -0.137 -0.412 -0.515 z" style="opacity:0.99"/><path d="m 153.39 147.6 c 0 -0.302 0.137 -0.412 0.515 -0.412 0.378 0 0.515 0.11 0.515 0.412 0 0.302 -0.137 0.412 -0.515 0.412 -0.378 0 -0.515 -0.11 -0.515 -0.412 z" style="opacity:0.99"/><path d="m 154.42 146.57 c 0 -0.302 0.137 -0.412 0.515 -0.412 0.378 0 0.515 0.11 0.515 0.412 0 0.302 -0.137 0.412 -0.515 0.412 -0.378 0 -0.515 -0.11 -0.515 -0.412 z" style="opacity:0.99"/><path d="m 154.42 145.64 c 0 -0.473 0.076 -0.515 0.927 -0.515 0.852 0 0.928 0.042 0.928 0.515 0 0.473 -0.076 0.515 -0.928 0.515 -0.852 0 -0.927 -0.042 -0.927 -0.515 z" style="opacity:0.99"/><path d="m 156.28 144.61 c 0 -0.412 0.103 -0.515 0.515 -0.515 0.412 0 0.515 0.103 0.515 0.515 0 0.412 -0.103 0.515 -0.515 0.515 -0.412 0 -0.515 -0.103 -0.515 -0.515 z" style="opacity:0.99"/><path d="m 153.39 146.57 c 0 -0.302 0.137 -0.412 0.515 -0.412 0.378 0 0.515 0.11 0.515 0.412 0 0.302 -0.137 0.412 -0.515 0.412 -0.378 0 -0.515 -0.11 -0.515 -0.412 z" style="opacity:0.99"/><path d="m 153.39 149.66 c 0 -0.302 0.137 -0.412 0.515 -0.412 0.378 0 0.515 0.11 0.515 0.412 0 0.302 -0.137 0.412 -0.515 0.412 -0.378 0 -0.515 -0.11 -0.515 -0.412 z" style="opacity:0.99"/><path d="m 153.39 148.63 c 0 -0.302 0.137 -0.412 0.515 -0.412 0.378 0 0.515 0.11 0.515 0.412 0 0.302 -0.137 0.412 -0.515 0.412 -0.378 0 -0.515 -0.11 -0.515 -0.412 z" style="opacity:0.99"/><path d="m 173.39 135.65 c 0 -0.357 0.137 -0.412 1.031 -0.412 0.893 0 1.031 0.055 1.031 0.412 0 0.357 -0.137 0.412 -1.031 0.412 -0.893 0 -1.031 -0.055 -1.031 -0.412 z" style="opacity:0.99"/><path d="m 179.57 130.6 c 0 -0.378 0.11 -0.515 0.412 -0.515 0.302 0 0.412 0.137 0.412 0.515 0 0.378 -0.11 0.515 -0.412 0.515 -0.302 0 -0.412 -0.137 -0.412 -0.515 z" style="opacity:0.99"/><path d="m 180.39 133.6 c 0 -0.277 -0.173 -0.425 -0.567 -0.484 -0.312 -0.047 -0.08 -0.1 0.515 -0.117 0.934 -0.027 1.082 -0.087 1.082 -0.443 0 -0.35 0.137 -0.412 0.914 -0.412 0.839 0 0.921 -0.047 1 -0.567 l 0.086 -0.567 l 0.031 0.567 c 0.023 0.419 0.138 0.567 0.443 0.567 0.267 0 0.412 0.137 0.412 0.389 0 0.303 -0.205 0.42 -0.928 0.528 -0.732 0.11 -0.927 0.223 -0.927 0.539 0 0.342 -0.148 0.4 -1.031 0.4 -0.881 0 -1.031 -0.058 -1.031 -0.399 z" style="opacity:0.99"/><path d="m 184.35 131.63 c 0.004 -0.34 0.05 -0.454 0.103 -0.254 0.052 0.201 0.049 0.479 -0.008 0.618 -0.056 0.14 -0.099 -0.024 -0.095 -0.365 z" style="opacity:0.99"/><path d="m 183.73 131.89 c -0.136 -0.136 -0.247 -0.6 -0.247 -1.031 0 -0.698 0.056 -0.783 0.515 -0.783 0.501 0 0.515 -0.041 0.515 -1.443 0 -1.305 0.039 -1.443 0.412 -1.443 0.383 0 0.412 0.137 0.412 1.958 0 1.951 -0.002 1.958 -0.515 1.958 -0.412 0 -0.515 0.103 -0.515 0.515 0 0.563 -0.193 0.652 -0.577 0.268 z" style="opacity:0.99"/><path d="m 177.51 131.63 c 0 -0.412 0.103 -0.515 0.515 -0.515 0.412 0 0.515 0.103 0.515 0.515 0 0.412 -0.103 0.515 -0.515 0.515 -0.412 0 -0.515 -0.103 -0.515 -0.515 z" style="opacity:0.99"/><path d="m 178.54 132.04 c 0 -0.852 -0.042 -0.928 -0.515 -0.928 -0.412 0 -0.515 -0.103 -0.515 -0.515 0 -0.412 0.103 -0.515 0.515 -0.515 0.412 0 0.515 -0.103 0.515 -0.515 0 -0.369 0.111 -0.515 0.393 -0.515 0.315 0 0.421 0.204 0.535 1.031 0.114 0.827 0.219 1.031 0.535 1.031 0.328 0 0.393 0.153 0.393 0.928 v 0.928 h -0.927 h -0.928 v -0.928 z" style="opacity:0.99"/><path d="m 189.46 124.62 c 0 -1.511 -0.011 -1.546 -0.515 -1.546 -0.283 0 -0.515 -0.09 -0.515 -0.199 0 -0.289 0.714 -0.626 1.326 -0.626 h 0.529 v 1.958 c 0 1.821 -0.029 1.958 -0.412 1.958 -0.376 0 -0.412 -0.137 -0.412 -1.546 z" style="opacity:0.99"/><path d="m 189.46 127.61 c 0 -0.275 0.137 -0.412 0.412 -0.412 0.275 0 0.412 0.137 0.412 0.412 0 0.275 -0.137 0.412 -0.412 0.412 -0.275 0 -0.412 -0.137 -0.412 -0.412 z" style="opacity:0.99"/></g></g></svg>