<svg xmlns="http://www.w3.org/2000/svg" viewBox="0 0 256 256"><g transform="translate(0 -796.36)"><path d="m 24.975 999.59 c -127.95 -192.46 280.09 -311 226.07 -62.2 -23.02 102.82 -167.39 165.22 -226.07 62.2 z" style="fill:#fff;color:#000"/><g style="fill:#ff4500"><path d="m 107.63 993.79 l -40.667 -0.135 l -2.062 -0.651 c -5.08 -1.603 -9.425 -5.668 -11.37 -10.636 -0.69 -1.762 -0.831 -2.521 -1.036 -5.549 c -0.14 -2.08 -0.205 -24.865 -0.159 -55.999 l 0.078 -52.49 l 0.539 -1.775 c 1.873 -6.164 5.834 -10.354 11.966 -12.655 l 2.045 -0.767 h 61.13 h 61.13 l 2.044 0.767 c 5.779 2.169 9.827 6.211 11.608 11.591 l 0.531 1.603 v 56.664 v 56.664 l -0.788 2.029 c -1.907 4.909 -6.1 8.8 -11.454 10.627 l -2.192 0.748 l -20.333 0.05 c -11.183 0.028 -38.634 -0.011 -61 -0.085 z"/><path d="m 65.45 992.98 c -2.781 -0.898 -4.693 -1.948 -6.785 -3.727 -2.803 -2.383 -4.987 -6.02 -5.918 -9.865 -0.394 -1.624 -0.405 -35.652 -0.027 -83.59 0.213 -27.07 0.23 -27.748 0.743 -29.461 1.093 -3.652 2.861 -6.409 5.567 -8.685 1.964 -1.651 3.824 -2.673 6.361 -3.496 l 2.078 -0.674 h 60.62 h 60.62 l 2.078 0.674 c 5.155 1.671 9.09 5.201 11.201 10.04 l 0.778 1.787 l 0.192 28.76 c 0.106 15.818 0.219 41.596 0.251 57.29 l 0.059 28.526 l -0.824 1.904 c -2.13 4.923 -5.894 8.437 -11.148 10.407 l -2.086 0.782 l -60.749 0.031 l -60.749 0.031 l -2.27 -0.733 z m 124.36 -46.519 c 0.287 -0.322 0.499 -12.464 0.609 -34.816 l 0.056 -11.392 l -0.572 -0.532 c -0.553 -0.515 -0.7 -0.53 -4.519 -0.468 -5.736 0.094 -31.787 0.069 -77.5 -0.075 -28.976 -0.091 -40.43 -0.055 -41.13 0.132 -1.715 0.462 -1.707 0.394 -1.556 12.922 0.342 28.401 0.488 34.08 0.885 34.31 0.234 0.138 23.596 0.223 61.911 0.225 50.641 0.003 61.58 -0.051 61.809 -0.305 z m -121.68 -1.88 c -0.207 -0.232 -0.266 -5.375 -0.219 -18.998 l 0.064 -18.68 l 55.33 -0.161 c 30.433 -0.088 57.43 -0.088 59.996 0 l 4.663 0.161 v 18.939 v 18.939 l -59.777 0.059 c -50.19 0.049 -59.822 0.008 -60.06 -0.259 z m 91.33 -5.91 c 0.489 -0.579 0.52 -0.912 0.52 -5.586 0 -4.545 -0.041 -5.02 -0.48 -5.522 -0.479 -0.551 -0.493 -0.552 -6.172 -0.552 -5.68 0 -5.694 0.001 -6.172 0.552 -0.44 0.506 -0.48 0.979 -0.48 5.67 0 4.806 0.031 5.147 0.502 5.586 0.472 0.44 0.837 0.468 6.132 0.468 h 5.63 l 0.52 -0.616 z m -8.08 0.061 c -5.744 -1.986 -5.553 -9.462 0.283 -11.05 5.542 -1.511 10.01 4.764 6.474 9.09 -1.493 1.824 -4.575 2.721 -6.757 1.966 z m 24.16 0.087 c 0.472 -0.44 0.502 -0.779 0.502 -5.712 v -5.244 l -0.678 -0.497 c -0.652 -0.478 -0.891 -0.494 -6.173 -0.426 -5.429 0.07 -5.5 0.077 -5.974 0.623 -0.438 0.505 -0.479 0.979 -0.479 5.522 0 4.674 0.031 5.01 0.52 5.586 l 0.52 0.616 h 5.63 c 5.295 0 5.66 -0.028 6.132 -0.468 z m -8.284 -0.237 c -2.501 -1.086 -3.872 -2.989 -3.872 -5.374 0 -1.738 0.547 -2.926 1.905 -4.138 3.81 -3.402 10.251 -0.802 10.251 4.138 0 4.01 -4.579 6.983 -8.284 5.374 z m -60.38 -1.038 c -0.6 -0.558 -0.616 -0.667 -0.607 -4.03 0.01 -3.699 0.171 -4.317 1.274 -4.887 l 0.6 -0.31 l -0.628 -0.005 c -1.521 -0.011 -1.757 0.668 -1.757 5.065 0 3.943 0.212 4.744 1.258 4.744 0.43 0 0.416 -0.056 -0.14 -0.574 z m 32.878 0.206 c 0.217 -0.202 0.394 -0.509 0.394 -0.682 0 -0.173 0.069 -0.481 0.152 -0.685 0.084 -0.203 0.036 -0.37 -0.106 -0.37 -0.142 0 -0.332 0.316 -0.423 0.701 -0.091 0.386 -0.407 0.859 -0.703 1.052 -0.429 0.28 -0.454 0.351 -0.124 0.351 0.228 0 0.592 -0.165 0.809 -0.367 z m -1.597 -0.81 c 0.446 -0.222 0.486 -0.52 0.486 -3.616 0 -3.096 -0.04 -3.394 -0.486 -3.616 -0.319 -0.159 -5.563 -0.242 -15.282 -0.242 -13.457 0 -14.828 0.035 -15.14 0.387 -0.254 0.285 -0.345 1.209 -0.345 3.526 0 2.838 0.047 3.171 0.487 3.471 0.408 0.278 2.882 0.332 15.14 0.332 9.621 0 14.821 -0.083 15.14 -0.242 z m -27.785 -1.522 c -1.486 -0.7 -1.78 -2.315 -0.618 -3.398 l 0.734 -0.683 h 3.896 c 3.748 0 3.923 0.021 4.595 0.56 0.981 0.786 0.986 2.212 0.009 3.123 -0.68 0.634 -0.739 0.644 -4.262 0.705 -2.853 0.05 -3.73 -0.012 -4.355 -0.306 z m 17.17 -0.003 c -1.389 -0.702 -1.668 -2.527 -0.534 -3.505 0.646 -0.558 0.77 -0.573 4.607 -0.573 3.838 0 3.961 0.015 4.607 0.573 1.155 0.997 0.85 2.824 -0.586 3.516 -1.028 0.495 -7.11 0.486 -8.094 -0.011 z m -45.38 -4.078 c 0 -0.129 -0.113 -0.234 -0.251 -0.234 -0.138 0 -0.251 0.105 -0.251 0.234 0 0.129 0.113 0.234 0.251 0.234 0.138 0 0.251 -0.105 0.251 -0.234 z m 7.907 0 c 0.085 -0.129 0.036 -0.234 -0.111 -0.234 -0.146 0 -0.266 0.105 -0.266 0.234 0 0.129 0.05 0.234 0.111 0.234 0.061 0 0.181 -0.105 0.266 -0.234 z m 50.21 -1.461 c -0.177 -0.812 -0.939 -1.578 -1.57 -1.578 -0.272 0 -0.193 0.166 0.269 0.565 0.36 0.311 0.727 0.837 0.817 1.169 0.24 0.891 0.682 0.749 0.485 -0.155 z m -58.11 -6.02 c 0 -0.129 -0.106 -0.234 -0.236 -0.234 -0.13 0 -0.306 0.105 -0.391 0.234 -0.085 0.129 0.021 0.234 0.236 0.234 0.215 0 0.391 -0.105 0.391 -0.234 z m 7.907 0 c -0.085 -0.129 -0.268 -0.234 -0.406 -0.234 -0.138 0 -0.181 0.105 -0.096 0.234 0.085 0.129 0.268 0.234 0.406 0.234 0.138 0 0.181 -0.105 0.096 -0.234 z"/><path d="m 107.51 993.55 l -40.541 -0.134 l -2.02 -0.638 c -2.089 -0.66 -4.999 -2.341 -6.722 -3.883 -1.549 -1.387 -3.624 -4.448 -4.463 -6.586 -0.64 -1.631 -0.819 -2.532 -0.995 -5.03 -0.313 -4.419 -0.3 -54.07 0.014 -54.25 0.165 -0.095 0.255 -8.723 0.262 -25.09 0.006 -13.72 0.107 -26.314 0.224 -27.986 0.163 -2.318 0.381 -3.51 0.92 -5.02 1.701 -4.772 6.423 -9.146 11.445 -10.6 l 2.085 -0.604 l 56.764 -0.12 c 31.22 -0.066 56.833 -0.056 56.916 0.021 0.084 0.078 1.764 0.124 3.734 0.103 3.384 -0.037 3.699 -0.001 5.699 0.655 5.205 1.706 9.407 5.693 11.177 10.603 l 0.638 1.771 v 28.06 c 0 18.456 0.086 28.11 0.251 28.21 0.165 0.095 0.251 9.937 0.251 28.767 v 28.622 l -0.755 1.936 c -0.857 2.197 -2.993 5.288 -4.619 6.684 -1.788 1.536 -4.399 3.03 -6.676 3.811 l -2.134 0.736 l -20.459 0.046 c -11.252 0.025 -38.703 -0.014 -61 -0.088 z m 82.23 -46.879 c 0.466 -0.317 0.496 -0.832 0.682 -11.983 0.107 -6.408 0.22 -16.882 0.251 -23.276 0.053 -10.881 0.028 -11.651 -0.392 -12.04 -0.385 -0.359 -1.012 -0.428 -4.488 -0.492 -2.642 -0.049 -4.134 0.012 -4.309 0.175 -0.363 0.338 -33.35 0.352 -33.708 0.014 -0.169 -0.157 -13.87 -0.216 -41.08 -0.175 -38.812 0.058 -40.854 0.081 -41.28 0.478 -0.42 0.391 -0.445 1.153 -0.391 12.04 0.031 6.393 0.144 16.816 0.251 23.16 l 0.194 11.536 l 0.593 0.447 c 0.58 0.437 1.919 0.447 61.894 0.447 52.53 0 61.37 -0.048 61.788 -0.332 z m -81.54 -1.934 l -40.1 -0.074 l 0.064 -18.88 l 0.064 -18.88 l 59.62 -0.035 c 40.29 -0.024 59.721 0.043 59.933 0.204 0.246 0.188 0.313 4.196 0.31 18.624 -0.002 10.807 -0.099 18.525 -0.235 18.725 -0.269 0.396 -11.934 0.442 -79.65 0.317 z m 51.3 -5.886 c 0.44 -0.506 0.479 -0.983 0.479 -5.77 v -5.218 l -0.661 -0.485 c -0.621 -0.455 -0.981 -0.485 -5.887 -0.485 -5.987 0 -6.375 0.084 -6.776 1.472 -0.418 1.445 -0.205 9.802 0.262 10.326 0.658 0.738 1.316 0.812 6.746 0.761 5.297 -0.05 5.362 -0.056 5.836 -0.602 z m -8.119 -0.354 c -3.463 -1.198 -4.964 -4.839 -3.252 -7.89 1.962 -3.498 6.851 -3.963 9.65 -0.918 3.185 3.465 0.733 8.751 -4.2 9.06 -0.69 0.043 -1.679 -0.069 -2.197 -0.248 z m 24.22 0.373 c 0.548 -0.51 0.575 -0.715 0.654 -5.01 0.092 -4.952 -0.008 -5.848 -0.724 -6.515 -0.454 -0.423 -0.875 -0.455 -5.977 -0.455 -5.173 0 -5.527 0.028 -6.15 0.485 l -0.661 0.485 v 5.199 c 0 5.423 0.036 5.622 1.13 6.195 0.338 0.177 2.24 0.244 5.83 0.204 5.167 -0.057 5.345 -0.074 5.899 -0.591 z m -8.466 -0.595 c -3.138 -1.419 -4.435 -4.521 -3.05 -7.292 1.987 -3.974 7.639 -4.412 10.247 -0.795 2.489 3.451 -0.005 8.213 -4.476 8.546 -1.198 0.089 -1.697 0.005 -2.722 -0.458 z m -77.928 0.067 c 0.267 -0.133 0.484 -0.475 0.482 -0.76 -0.004 -0.5 -0.015 -0.498 -0.321 0.067 -0.309 0.57 -0.394 0.586 -3.413 0.65 -2.228 0.047 -3.211 -0.018 -3.507 -0.234 -0.367 -0.267 -0.375 -0.255 -0.067 0.11 0.294 0.349 0.786 0.409 3.343 0.409 1.649 0 3.217 -0.109 3.484 -0.242 z m 18.365 -0.46 c -0.452 -0.257 -0.932 -0.737 -1.067 -1.067 -0.135 -0.33 -0.245 -1.913 -0.245 -3.519 0 -3.085 0.261 -4.04 1.241 -4.526 0.687 -0.342 30.492 -0.331 31.18 0.012 0.895 0.446 1.217 1.637 1.217 4.498 0 3.088 -0.269 4.01 -1.351 4.623 l -0.783 0.445 h 0.702 c 0.411 0 0.957 -0.237 1.318 -0.573 0.603 -0.561 0.616 -0.655 0.616 -4.31 0 -3.867 -0.16 -4.764 -0.896 -5.03 -0.238 -0.085 -7.73 -0.157 -16.65 -0.159 l -16.218 -0.005 l -0.439 0.504 c -0.381 0.437 -0.439 1.045 -0.439 4.553 v 4.049 l 0.661 0.485 c 0.364 0.267 0.957 0.484 1.318 0.484 0.653 -0.001 0.652 -0.003 -0.166 -0.468 z m 30.871 -0.888 c 0.464 -0.432 0.464 -6.91 0 -7.342 -0.259 -0.241 -3.411 -0.317 -15.244 -0.368 -14.686 -0.063 -14.926 -0.057 -15.426 0.409 -0.459 0.427 -0.508 0.773 -0.508 3.585 0 3.144 0.136 3.681 1 3.977 0.207 0.071 7.01 0.109 15.11 0.085 11.708 -0.034 14.803 -0.105 15.06 -0.347 z m -28.478 -1.912 c -0.744 -0.545 -0.987 -1.454 -0.637 -2.388 0.423 -1.131 1.276 -1.358 5.096 -1.358 4.329 0 5.118 0.334 5.134 2.173 0.006 0.637 -0.166 1.049 -0.608 1.461 -0.601 0.56 -0.712 0.574 -4.485 0.574 -3.474 0 -3.933 -0.047 -4.5 -0.462 z m 17.11 -0.221 c -0.92 -0.857 -0.966 -1.845 -0.128 -2.752 l 0.606 -0.656 h 4.06 h 4.06 l 0.606 0.656 c 0.838 0.907 0.792 1.896 -0.128 2.752 l -0.734 0.683 h -3.804 h -3.804 l -0.734 -0.683 z m -45.02 -3.665 c -0.081 -0.197 -0.259 -0.294 -0.395 -0.215 -0.157 0.091 -0.135 0.31 0.06 0.602 0.33 0.493 0.579 0.206 0.335 -0.386 z m 8.166 0.115 c 0.253 -0.149 0.195 -0.204 -0.221 -0.206 -0.421 -0.003 -0.564 0.131 -0.561 0.523 0.003 0.388 0.061 0.442 0.221 0.206 0.12 -0.176 0.372 -0.411 0.561 -0.523 z m -15.409 -0.462 c -0.242 -0.131 -0.448 -0.417 -0.459 -0.636 -0.013 -0.256 -0.066 -0.291 -0.149 -0.097 -0.15 0.348 0.35 0.989 0.765 0.979 0.156 -0.004 0.085 -0.114 -0.156 -0.245 z m 22.647 -0.2 c 0.143 -0.249 0.26 -1.669 0.26 -3.157 0 -3.702 0.076 -3.64 -4.381 -3.64 -2.951 0 -3.409 -0.052 -3.632 -0.409 -0.229 -0.365 -0.257 -0.353 -0.264 0.117 -0.008 0.52 0.029 0.526 3.451 0.526 4.689 0 4.574 -0.085 4.574 3.404 0 2.364 -0.058 2.73 -0.502 3.143 -0.38 0.354 -0.412 0.468 -0.134 0.468 0.202 0 0.485 -0.204 0.628 -0.452 z m -22.633 -6.27 c 0.273 -0.202 1.467 -0.292 3.862 -0.292 3.4 0 3.466 -0.01 3.466 -0.512 0 -0.458 -0.033 -0.472 -0.314 -0.13 -0.258 0.314 -0.928 0.395 -3.775 0.454 -3.573 0.074 -3.963 0.186 -3.92 1.124 0.014 0.312 0.031 0.312 0.151 0 0.074 -0.193 0.313 -0.482 0.53 -0.643 z m 14.593 -7.441 c -0.452 -0.507 -7.04 -0.385 -7.222 0.135 -0.103 0.292 -0.058 0.3 0.266 0.051 0.282 -0.217 1.251 -0.281 3.492 -0.234 2.969 0.063 3.113 0.089 3.354 0.605 0.191 0.411 0.271 0.45 0.335 0.164 0.046 -0.206 -0.055 -0.531 -0.225 -0.721 z"/><path d="m 65.45 992.75 c -6.283 -2.029 -10.338 -6.178 -12.234 -12.519 -0.524 -1.752 -0.532 -2.131 -0.624 -29.09 -0.071 -20.869 -0.023 -27.393 0.205 -27.649 0.243 -0.273 1.351 -0.334 5.979 -0.331 3.124 0.002 5.818 0.085 5.987 0.185 0.233 0.138 0.323 2.911 0.377 11.562 0.065 10.566 0.102 11.411 0.518 11.798 0.428 0.398 3.259 0.417 62.12 0.417 57.1 0 61.706 -0.029 62.18 -0.388 0.505 -0.381 0.517 -0.613 0.585 -11.798 0.053 -8.674 0.143 -11.453 0.377 -11.591 0.169 -0.1 2.863 -0.183 5.987 -0.185 4.51 -0.003 5.739 0.063 5.966 0.317 0.211 0.237 0.268 7.747 0.219 28.701 l -0.067 28.381 l -0.824 1.904 c -2.115 4.888 -5.681 8.217 -10.897 10.173 l -2.086 0.782 l -60.749 0.031 l -60.749 0.031 l -2.27 -0.733 z m 3.085 -48.33 c -0.412 -0.226 -0.439 -1.357 -0.435 -18.525 0.002 -10.06 0.087 -18.399 0.188 -18.539 0.132 -0.182 17.17 -0.248 59.804 -0.234 l 59.62 0.02 l 0.064 18.446 c 0.047 13.514 -0.012 18.532 -0.221 18.766 -0.239 0.269 -4.059 0.301 -23.661 0.2 -29.668 -0.152 -53.36 -0.155 -76.59 -0.009 -12.34 0.078 -18.469 0.037 -18.765 -0.126 z m 91.07 -5.468 l 0.616 -0.574 v -5.173 v -5.173 l -0.734 -0.683 l -0.734 -0.683 h -5.149 c -2.955 0 -5.441 0.104 -5.835 0.243 -1.297 0.459 -1.338 0.647 -1.347 6.214 -0.008 4.883 0.021 5.205 0.512 5.787 l 0.52 0.616 h 5.767 h 5.767 l 0.616 -0.574 z m -8.941 -1 c -4.238 -2 -4.213 -7.521 0.044 -9.496 3.904 -1.812 8.258 0.688 8.258 4.741 0 2.266 -1.01 3.841 -3.082 4.802 -1.76 0.817 -3.42 0.802 -5.22 -0.047 z m 25.04 1.07 c 0.574 -0.503 0.581 -0.569 0.581 -5.845 0 -5 -0.031 -5.366 -0.496 -5.799 -0.746 -0.694 -1.229 -0.741 -6.882 -0.663 l -5.218 0.072 l -0.618 0.67 l -0.618 0.67 l 0.076 5.255 c 0.075 5.201 0.082 5.259 0.669 5.701 0.544 0.41 1.056 0.447 6.26 0.447 5.473 0 5.687 -0.017 6.248 -0.508 z m -8.582 -0.851 c -2.144 -0.948 -3.392 -2.75 -3.383 -4.886 0.022 -5.488 7.543 -7.459 10.643 -2.79 0.628 0.946 0.748 1.373 0.76 2.701 0.012 1.36 -0.091 1.735 -0.745 2.721 -1.151 1.735 -2.461 2.482 -4.553 2.601 -1.326 0.075 -1.946 -0.004 -2.721 -0.347 z m -77.64 0.238 c 0.223 -0.207 0.365 -1.35 0.451 -3.624 l 0.126 -3.321 l 3.514 -0.117 c 1.933 -0.064 3.656 -0.202 3.828 -0.306 0.433 -0.261 0.444 -6.494 0.013 -6.896 -0.203 -0.189 -1.345 -0.281 -3.494 -0.281 -1.756 0 -3.371 -0.064 -3.59 -0.142 -0.334 -0.119 -0.397 -0.629 -0.397 -3.221 0 -4.254 0.132 -4.119 -4.01 -4.119 -2.603 0 -3.308 0.072 -3.626 0.367 -0.318 0.296 -0.394 0.952 -0.394 3.374 0 2.421 -0.077 3.078 -0.394 3.374 -0.318 0.296 -1.023 0.367 -3.622 0.367 -2.599 0 -3.304 0.072 -3.622 0.367 -0.317 0.295 -0.394 0.947 -0.394 3.313 0 3.944 -0.156 3.801 4.172 3.801 3.046 0 3.364 0.04 3.601 0.452 0.143 0.249 0.26 1.768 0.26 3.377 0 3.78 -0.086 3.706 4.193 3.607 2.085 -0.048 3.167 -0.168 3.389 -0.374 z m -6.959 -0.574 c -0.063 -0.161 -0.144 -1.765 -0.18 -3.566 l -0.065 -3.273 l -3.713 -0.117 c -2.928 -0.092 -3.763 -0.191 -3.95 -0.468 -0.363 -0.536 -0.306 -5.212 0.069 -5.68 0.264 -0.329 0.893 -0.401 3.954 -0.454 l 3.64 -0.062 l 0.069 -3.444 c 0.065 -3.208 0.105 -3.462 0.589 -3.703 0.593 -0.295 5.83 -0.217 6.162 0.092 0.115 0.107 0.245 1.764 0.289 3.683 l 0.081 3.488 h 3.572 c 2.443 0 3.667 0.089 3.873 0.281 0.415 0.387 0.415 5.599 0 5.986 -0.206 0.192 -1.434 0.281 -3.891 0.281 h -3.59 v 3.172 c 0 1.745 -0.117 3.375 -0.26 3.624 -0.236 0.41 -0.552 0.452 -3.397 0.452 -2.281 0 -3.168 -0.08 -3.252 -0.292 z m 57.42 0.111 c 0.534 -0.497 0.577 -0.757 0.654 -3.959 0.093 -3.885 -0.03 -4.813 -0.724 -5.459 -0.473 -0.441 -0.979 -0.455 -16.816 -0.455 h -16.328 l -0.616 0.574 c -0.606 0.565 -0.616 0.639 -0.616 4.577 v 4 l 0.739 0.688 l 0.739 0.688 l 16.199 -0.063 l 16.199 -0.063 l 0.572 -0.532 z m -29.364 -2.739 c -1.425 -0.577 -1.695 -2.106 -0.559 -3.165 0.45 -0.42 0.847 -0.462 4.343 -0.462 3.669 0 3.871 0.024 4.364 0.526 0.284 0.289 0.592 0.758 0.684 1.04 0.246 0.756 -0.461 1.846 -1.395 2.149 -1.17 0.38 -6.435 0.317 -7.438 -0.089 z m 17.348 0.126 c -1.37 -0.537 -1.756 -2.221 -0.729 -3.178 0.6 -0.559 0.717 -0.574 4.404 -0.574 3.687 0 3.805 0.015 4.404 0.574 0.845 0.787 0.832 1.961 -0.031 2.717 -0.612 0.537 -0.831 0.57 -4.079 0.619 -1.888 0.029 -3.674 -0.043 -3.97 -0.159 z m 20.07 -36.636 c -0.201 -0.489 0.093 -44.2 0.3 -44.511 0.234 -0.353 32.422 -0.317 32.657 0.037 0.098 0.148 0.234 10.302 0.301 22.563 l 0.122 22.294 h -16.611 c -15.16 0 -16.625 -0.034 -16.769 -0.383 z"/><path d="m 108.01 993.32 l -40.541 -0.135 l -2.058 -0.648 c -2.609 -0.822 -5.358 -2.527 -7.4 -4.591 -2.01 -2.031 -3.079 -3.692 -4.03 -6.258 -1.121 -3.03 -1.218 -5.865 -1.141 -33.512 l 0.068 -24.434 h 5.899 h 5.899 l 0.126 11.419 l 0.126 11.419 l 0.625 0.471 c 0.623 0.47 0.757 0.471 62.47 0.36 57.23 -0.103 61.872 -0.14 62.26 -0.5 0.374 -0.349 0.431 -1.566 0.543 -11.779 l 0.126 -11.39 h 5.899 h 5.899 l 0.064 28.03 l 0.064 28.03 l -0.725 1.96 c -1.029 2.782 -2.107 4.351 -4.552 6.628 -2.462 2.294 -4.125 3.279 -7.211 4.272 l -2.199 0.708 l -19.831 0.043 c -10.907 0.024 -38.08 -0.018 -60.37 -0.092 z m -39.38 -49.2 c -0.206 -0.232 -0.266 -5.27 -0.219 -18.53 l 0.064 -18.212 l 18.513 -0.06 l 18.513 -0.06 v 1.373 c 0 1.035 0.128 1.525 0.52 1.989 l 0.52 0.616 h 16.396 c 18.996 0 17.415 0.212 17.638 -2.369 l 0.132 -1.533 l 5.805 -0.153 c 7.518 -0.198 29.793 -0.198 36.14 0 l 4.937 0.154 l -0.064 18.493 l -0.064 18.493 l -22.844 0.064 c -12.564 0.035 -23.1 0.007 -23.409 -0.063 -0.421 -0.095 -0.565 -0.296 -0.565 -0.789 0 -1.12 -0.491 -2.074 -1.211 -2.352 -0.48 -0.185 -5.358 -0.243 -16.794 -0.197 -18.2 0.072 -16.836 -0.085 -17.08 1.968 -0.074 0.624 -0.259 1.212 -0.411 1.307 -0.153 0.095 -8.369 0.173 -18.258 0.175 -14.857 0.003 -18.03 -0.052 -18.264 -0.314 z m 91.02 -4.922 l 0.704 -0.564 l 0.076 -5.264 l 0.076 -5.264 l -0.745 -0.777 l -0.745 -0.777 l -5.104 -0.075 c -3.246 -0.048 -5.447 0.019 -6.04 0.184 -1.579 0.436 -1.696 0.893 -1.696 6.642 v 5.02 l 0.65 0.719 l 0.65 0.719 h 5.737 c 5.702 0 5.742 -0.003 6.442 -0.564 z m -8.978 -1.248 c -4.238 -2 -4.213 -7.521 0.044 -9.496 3.904 -1.812 8.258 0.688 8.258 4.741 0 2.266 -1.01 3.841 -3.082 4.802 -1.76 0.817 -3.42 0.802 -5.22 -0.047 z m 25.22 1.093 l 0.65 -0.719 v -5.254 c 0 -7.093 0.451 -6.714 -7.84 -6.592 l -4.953 0.073 l -0.695 0.648 l -0.695 0.648 v 5.393 v 5.393 l 0.704 0.564 c 0.7 0.561 0.739 0.564 6.442 0.564 h 5.737 l 0.65 -0.719 z m -8.764 -0.874 c -2.144 -0.948 -3.392 -2.75 -3.383 -4.886 0.022 -5.488 7.543 -7.459 10.643 -2.79 0.628 0.946 0.748 1.373 0.76 2.701 0.012 1.36 -0.091 1.735 -0.745 2.721 -1.151 1.735 -2.461 2.482 -4.553 2.601 -1.326 0.075 -1.946 -0.004 -2.721 -0.347 z m -77.41 0.272 c 0.245 -0.274 0.37 -1.323 0.431 -3.624 l 0.087 -3.238 h 3.365 c 4.506 0 4.369 0.128 4.369 -4.079 0 -4.02 0.165 -3.871 -4.425 -3.871 h -3.309 l -0.087 -3.294 c -0.114 -4.338 -0.022 -4.254 -4.519 -4.147 -2.191 0.052 -3.303 0.172 -3.526 0.379 -0.223 0.207 -0.365 1.35 -0.451 3.624 l -0.126 3.321 l -3.598 0.117 c -4.501 0.146 -4.309 -0.026 -4.309 3.871 0 2.516 0.06 2.917 0.515 3.456 0.504 0.597 0.584 0.611 3.954 0.675 l 3.439 0.065 l 0.07 3.146 c 0.093 4.172 -0.109 3.985 4.331 3.985 2.896 0 3.5 -0.062 3.789 -0.386 z m -6.81 -0.544 c -0.297 -0.175 -0.403 -0.952 -0.502 -3.679 l -0.126 -3.458 l -3.765 -0.117 l -3.765 -0.117 v -2.923 v -2.923 l 3.765 -0.117 l 3.765 -0.117 l 0.126 -3.39 c 0.069 -1.865 0.217 -3.522 0.329 -3.683 0.277 -0.399 5.721 -0.41 6.148 -0.012 0.206 0.192 0.301 1.334 0.301 3.62 0 3.942 -0.464 3.557 4.393 3.642 l 3.263 0.057 v 2.923 v 2.923 l -3.765 0.117 l -3.765 0.117 l -0.067 3.39 c -0.056 2.851 -0.134 3.437 -0.487 3.683 -0.502 0.349 -5.273 0.401 -5.847 0.064 z m 57.17 0.165 c 0.687 -0.64 0.697 -0.691 0.783 -4.053 0.101 -3.976 -0.031 -4.855 -0.845 -5.613 l -0.6 -0.558 h -16.314 h -16.314 l -0.704 0.564 l -0.704 0.564 l -0.08 3.908 c -0.056 2.732 0.014 4.119 0.231 4.608 0.602 1.354 0.366 1.337 17.855 1.28 l 15.998 -0.052 l 0.696 -0.648 z m -29.428 -3.01 c -1.252 -0.638 -1.504 -1.893 -0.549 -2.729 0.544 -0.476 0.825 -0.508 4.375 -0.508 h 3.794 l 0.52 0.616 c 0.286 0.339 0.52 0.755 0.52 0.924 0 0.691 -0.616 1.491 -1.327 1.721 -0.997 0.324 -6.687 0.305 -7.333 -0.024 z m 17.447 0.113 c -1.299 -0.475 -1.698 -2 -0.753 -2.883 0.457 -0.426 0.837 -0.468 4.268 -0.468 3.431 0 3.81 0.042 4.268 0.468 0.676 0.63 0.663 1.896 -0.026 2.477 -0.458 0.386 -0.982 0.452 -3.954 0.494 -1.884 0.027 -3.596 -0.013 -3.803 -0.089 z m 11.854 -9.611 c 0.487 -0.454 0.572 -0.777 0.572 -2.183 0 -2.777 1.604 -2.545 -17.582 -2.545 h -16.396 l -0.52 0.616 c -0.724 0.857 -0.731 3.046 -0.013 3.896 0.279 0.33 0.759 0.647 1.067 0.704 0.308 0.057 7.702 0.091 16.431 0.074 l 15.871 -0.03 l 0.572 -0.533 z m -32.627 -1.61 c -0.173 -0.065 -0.314 -0.477 -0.314 -0.917 0 -0.754 0.048 -0.799 0.862 -0.799 0.641 0 0.902 0.12 1.021 0.468 0.207 0.608 0.628 0.603 0.628 -0.007 0 -0.643 0.482 -0.77 2.046 -0.538 1.121 0.166 1.343 0.284 1.469 0.779 0.229 0.904 0.941 0.879 1.196 -0.043 0.219 -0.793 0.887 -1.095 1.743 -0.789 0.352 0.126 0.349 0.185 -0.025 0.57 -0.372 0.383 -0.376 0.461 -0.034 0.725 0.211 0.163 0.383 0.389 0.383 0.502 0 0.301 -6.327 0.222 -6.723 -0.084 -0.236 -0.183 -0.409 -0.178 -0.618 0.017 -0.295 0.275 -1.065 0.33 -1.634 0.116 z m 4.624 -1.111 c -0.087 -0.21 -0.312 -0.304 -0.535 -0.225 -0.464 0.166 -0.51 0.708 -0.072 0.858 0.444 0.151 0.785 -0.204 0.608 -0.633 z m 5.253 0.961 c -0.276 -0.188 -0.415 -0.526 -0.362 -0.877 0.077 -0.509 0.209 -0.571 1.216 -0.571 1.037 0 1.13 0.048 1.133 0.585 0.002 0.322 -0.097 0.716 -0.219 0.877 -0.289 0.381 -1.2 0.374 -1.768 -0.013 z m 1.608 -0.662 c 0 -0.265 -0.719 -0.545 -0.92 -0.357 -0.08 0.075 -0.079 0.296 0.001 0.493 0.152 0.369 0.919 0.257 0.919 -0.135 z m 1.931 0.805 c -0.068 -0.104 -0.163 -0.557 -0.212 -1.01 -0.079 -0.739 -0.027 -0.818 0.54 -0.818 0.564 0 0.628 0.094 0.628 0.932 0 0.682 -0.112 0.952 -0.416 1.01 -0.229 0.041 -0.472 -0.01 -0.54 -0.114 z m 4.579 -0.462 c -0.356 -0.873 -0.126 -1.246 0.768 -1.246 0.601 0 0.823 0.136 1.022 0.625 0.356 0.873 0.126 1.246 -0.768 1.246 -0.601 0 -0.823 -0.136 -1.022 -0.625 z m 3.447 0.469 c -0.092 -0.086 -0.167 -0.498 -0.167 -0.916 0 -0.786 0.31 -1.033 1.064 -0.851 0.419 0.101 0.431 0.485 0.052 1.63 -0.103 0.312 -0.673 0.394 -0.949 0.136 z m 2.096 -0.37 c 0.007 -0.939 0.399 -1.216 1.804 -1.277 1.557 -0.067 3.047 -0.067 3.117 0.001 0.027 0.026 0.088 0.414 0.135 0.862 l 0.086 0.814 l -1.6 0.068 c -1.297 0.055 -1.662 -0.01 -1.928 -0.347 -0.311 -0.394 -0.337 -0.394 -0.498 -0.006 -0.257 0.617 -1.122 0.526 -1.117 -0.117 z m 6.272 -0.039 c 0 -0.311 -0.063 -0.718 -0.14 -0.905 -0.16 -0.389 0.46 -0.684 1.019 -0.485 0.734 0.262 0.384 1.955 -0.403 1.955 -0.335 0 -0.475 -0.167 -0.475 -0.565 z m 2.36 -5.078 c 1.537 -0.652 1.52 -4.348 -0.023 -4.895 -0.354 -0.125 -7.383 -0.217 -16.635 -0.217 -18.509 0 -17.09 -0.184 -17.273 2.245 -0.122 1.624 0.216 2.596 1 2.89 0.876 0.328 32.15 0.305 32.927 -0.024 z m 8.905 -19.784 c -0.101 -0.573 0.066 -27.68 0.196 -31.796 l 0.156 -4.965 l 15.87 -0.062 l 15.87 -0.062 l 0.157 3.39 c 0.087 1.865 0.234 10.203 0.327 18.53 l 0.17 15.14 h -16.357 c -8.997 0 -16.371 -0.079 -16.388 -0.175 z"/><path d="m 108.01 993.32 l -40.541 -0.135 l -2.058 -0.648 c -2.609 -0.822 -5.358 -2.527 -7.4 -4.591 -2.01 -2.031 -3.079 -3.692 -4.03 -6.258 -1.121 -3.03 -1.218 -5.865 -1.141 -33.512 l 0.068 -24.434 h 5.899 h 5.899 l 0.126 11.419 l 0.126 11.419 l 0.625 0.471 c 0.623 0.47 0.757 0.471 62.47 0.36 57.23 -0.103 61.872 -0.14 62.26 -0.5 0.374 -0.349 0.431 -1.566 0.543 -11.779 l 0.126 -11.39 h 5.899 h 5.899 l 0.064 28.03 l 0.064 28.03 l -0.725 1.96 c -1.029 2.782 -2.107 4.351 -4.552 6.628 -2.462 2.294 -4.125 3.279 -7.211 4.272 l -2.199 0.708 l -19.831 0.043 c -10.907 0.024 -38.08 -0.018 -60.37 -0.092 z m -39.38 -49.2 c -0.206 -0.232 -0.266 -5.27 -0.219 -18.53 l 0.064 -18.212 l 18.513 -0.06 l 18.513 -0.06 v 1.373 c 0 1.035 0.128 1.525 0.52 1.989 l 0.52 0.616 h 16.396 c 18.996 0 17.415 0.212 17.638 -2.369 l 0.132 -1.533 l 5.805 -0.153 c 7.518 -0.198 29.793 -0.198 36.14 0 l 4.937 0.154 l -0.064 18.493 l -0.064 18.493 l -22.844 0.064 c -12.564 0.035 -23.1 0.007 -23.409 -0.063 -0.421 -0.095 -0.565 -0.296 -0.565 -0.789 0 -1.12 -0.491 -2.074 -1.211 -2.352 -0.48 -0.185 -5.358 -0.243 -16.794 -0.197 -18.2 0.072 -16.836 -0.085 -17.08 1.968 -0.074 0.624 -0.259 1.212 -0.411 1.307 -0.153 0.095 -8.369 0.173 -18.258 0.175 -14.857 0.003 -18.03 -0.052 -18.264 -0.314 z m 105.97 -2.36 c -0.135 -0.66 -0.317 -0.735 -0.767 -0.315 -0.332 0.309 -0.408 1.412 -0.117 1.684 0.332 0.309 1.012 -0.744 0.883 -1.369 z m 1.649 0.716 c 0.077 -0.61 -0.303 -1.312 -0.71 -1.312 -0.318 0 -0.471 1.251 -0.209 1.707 0.336 0.586 0.821 0.377 0.919 -0.395 z m -18.03 0.208 c 0 -0.459 0.247 -0.445 0.625 0.036 0.436 0.556 0.882 0.183 0.882 -0.737 0 -0.858 -0.384 -1.256 -0.819 -0.85 -0.197 0.184 -0.365 0.184 -0.602 0 -0.562 -0.435 -1.089 -0.046 -1.089 0.804 0 0.433 0.075 0.857 0.167 0.943 0.306 0.285 0.837 0.161 0.837 -0.195 z m 1.429 -3.487 l 0.704 -0.564 l 0.076 -5.264 l 0.076 -5.264 l -0.745 -0.777 l -0.745 -0.777 l -5.104 -0.075 c -3.246 -0.048 -5.447 0.019 -6.04 0.184 -1.579 0.436 -1.696 0.893 -1.696 6.642 v 5.02 l 0.65 0.719 l 0.65 0.719 h 5.737 c 5.702 0 5.742 -0.003 6.442 -0.564 z m 16.246 -0.155 l 0.65 -0.719 v -5.254 c 0 -7.093 0.451 -6.714 -7.84 -6.592 l -4.953 0.073 l -0.695 0.648 l -0.695 0.648 v 5.393 v 5.393 l 0.704 0.564 c 0.7 0.561 0.739 0.564 6.442 0.564 h 5.737 l 0.65 -0.719 z m -86.17 -0.602 c 0.245 -0.274 0.37 -1.323 0.431 -3.624 l 0.087 -3.238 h 3.365 c 4.506 0 4.369 0.128 4.369 -4.079 0 -4.02 0.165 -3.871 -4.425 -3.871 h -3.309 l -0.087 -3.294 c -0.114 -4.338 -0.022 -4.254 -4.519 -4.147 -2.191 0.052 -3.303 0.172 -3.526 0.379 -0.223 0.207 -0.365 1.35 -0.451 3.624 l -0.126 3.321 l -3.598 0.117 c -4.501 0.146 -4.309 -0.026 -4.309 3.871 0 2.516 0.06 2.917 0.515 3.456 0.504 0.597 0.584 0.611 3.954 0.675 l 3.439 0.065 l 0.07 3.146 c 0.093 4.172 -0.109 3.985 4.331 3.985 2.896 0 3.5 -0.062 3.789 -0.386 z m -6.81 -0.544 c -0.297 -0.175 -0.403 -0.952 -0.502 -3.679 l -0.126 -3.458 l -3.765 -0.117 l -3.765 -0.117 v -2.923 v -2.923 l 3.765 -0.117 l 3.765 -0.117 l 0.126 -3.39 c 0.069 -1.865 0.217 -3.522 0.329 -3.683 0.277 -0.399 5.721 -0.41 6.148 -0.012 0.206 0.192 0.301 1.334 0.301 3.62 0 3.942 -0.464 3.557 4.393 3.642 l 3.263 0.057 v 2.923 v 2.923 l -3.765 0.117 l -3.765 0.117 l -0.067 3.39 c -0.056 2.851 -0.134 3.437 -0.487 3.683 -0.502 0.349 -5.273 0.401 -5.847 0.064 z m 57.17 0.165 c 0.687 -0.64 0.697 -0.691 0.783 -4.053 0.101 -3.976 -0.031 -4.855 -0.845 -5.613 l -0.6 -0.558 h -16.314 h -16.314 l -0.704 0.564 l -0.704 0.564 l -0.08 3.908 c -0.056 2.732 0.014 4.119 0.231 4.608 0.602 1.354 0.366 1.337 17.855 1.28 l 15.998 -0.052 l 0.696 -0.648 z m -29.428 -3.01 c -1.252 -0.638 -1.504 -1.893 -0.549 -2.729 0.544 -0.476 0.825 -0.508 4.375 -0.508 h 3.794 l 0.52 0.616 c 0.286 0.339 0.52 0.755 0.52 0.924 0 0.691 -0.616 1.491 -1.327 1.721 -0.997 0.324 -6.687 0.305 -7.333 -0.024 z m 17.447 0.113 c -1.299 -0.475 -1.698 -2 -0.753 -2.883 0.457 -0.426 0.837 -0.468 4.268 -0.468 3.431 0 3.81 0.042 4.268 0.468 0.676 0.63 0.663 1.896 -0.026 2.477 -0.458 0.386 -0.982 0.452 -3.954 0.494 -1.884 0.027 -3.596 -0.013 -3.803 -0.089 z m 11.854 -9.611 c 0.487 -0.454 0.572 -0.777 0.572 -2.183 0 -2.777 1.604 -2.545 -17.582 -2.545 h -16.396 l -0.52 0.616 c -0.724 0.857 -0.731 3.046 -0.013 3.896 0.279 0.33 0.759 0.647 1.067 0.704 0.308 0.057 7.702 0.091 16.431 0.074 l 15.871 -0.03 l 0.572 -0.533 z m -0.457 -7.099 c 1.537 -0.652 1.52 -4.348 -0.023 -4.895 -0.354 -0.125 -7.383 -0.217 -16.635 -0.217 -18.509 0 -17.09 -0.184 -17.273 2.245 -0.122 1.624 0.216 2.596 1 2.89 0.876 0.328 32.15 0.305 32.927 -0.024 z m 8.905 -19.784 c -0.101 -0.573 0.066 -27.68 0.196 -31.796 l 0.156 -4.965 l 15.87 -0.062 l 15.87 -0.062 l 0.157 3.39 c 0.087 1.865 0.234 10.203 0.327 18.53 l 0.17 15.14 h -16.357 c -8.997 0 -16.371 -0.079 -16.388 -0.175 z" style="fill:#ffa07a"/><path d="m 148.29 993.01 c -0.066 -0.161 -0.09 -10.446 -0.055 -22.856 l 0.065 -22.563 h 16.394 h 16.394 l -0.018 22.668 c -0.014 17.748 -0.085 22.708 -0.328 22.852 -0.171 0.101 -7.516 0.185 -16.322 0.187 -12.581 0.003 -16.04 -0.059 -16.13 -0.289 z m -79.52 -48.964 c -0.093 -0.087 -0.169 -8.347 -0.169 -18.356 v -18.199 h 18.325 h 18.325 v 1.39 c 0 1.132 0.112 1.512 0.606 2.046 l 0.606 0.656 h 16.611 h 16.611 l 0.606 -0.656 c 0.489 -0.53 0.606 -0.916 0.606 -2.01 v -1.353 l 5.083 -0.153 c 6.568 -0.198 31.42 -0.198 37.03 0 l 4.332 0.153 l -0.064 18.259 l -0.064 18.259 h -23.09 h -23.09 l -0.069 -0.701 c -0.122 -1.243 -0.31 -1.756 -0.816 -2.227 -0.484 -0.45 -0.901 -0.462 -17.04 -0.462 -19 0 -17.593 -0.169 -17.841 2.135 l -0.135 1.256 l -18.09 0.06 c -9.951 0.033 -18.17 -0.011 -18.262 -0.097 z m 89.73 -1.449 c 0.024 -0.316 0.05 -0.309 0.147 0.039 0.134 0.482 1.221 0.469 1.18 -0.014 -0.014 -0.161 -0.042 -0.62 -0.063 -1.021 -0.033 -0.64 -0.112 -0.715 -0.649 -0.62 -0.336 0.06 -0.756 0.026 -0.933 -0.076 -0.177 -0.102 -0.467 -0.073 -0.644 0.064 -0.397 0.307 -0.424 1.64 -0.041 1.997 0.367 0.342 0.965 0.121 1 -0.369 z m 16.06 0.162 l 0.291 -0.506 l 0.437 0.539 c 0.243 0.3 0.563 0.467 0.722 0.375 0.32 -0.184 0.378 -1.276 0.091 -1.696 -0.306 -0.449 -0.911 -0.463 -0.923 -0.021 -0.006 0.224 -0.125 0.407 -0.263 0.407 -0.138 0 -0.256 -0.183 -0.263 -0.407 -0.013 -0.441 -0.617 -0.427 -0.923 0.021 -0.103 0.15 -0.189 0.545 -0.191 0.878 -0.006 1.016 0.547 1.237 1.022 0.41 z m -14.774 -3.449 l 0.82 -0.682 l 0.076 -5.02 c 0.116 -7.603 0.311 -7.408 -7.411 -7.407 -4.226 0 -5.096 0.061 -5.841 0.409 -1.416 0.662 -1.502 1.034 -1.506 6.562 -0.005 7.208 -0.431 6.812 7.335 6.819 l 5.707 0.005 l 0.82 -0.682 z m 15.77 0.441 c 1.101 -0.549 1.241 -1.307 1.241 -6.71 0 -4.34 -0.061 -5.185 -0.409 -5.648 -0.779 -1.036 -1.716 -1.196 -6.996 -1.196 -7.658 0 -7.472 -0.188 -7.356 7.408 l 0.076 5.02 l 0.82 0.682 l 0.82 0.682 h 5.661 c 3.402 0 5.853 -0.096 6.144 -0.241 z m -85.9 -1.104 c 0.482 -0.374 0.534 -0.683 0.593 -3.566 l 0.065 -3.157 l 3.475 -0.117 c 4.539 -0.153 4.433 -0.052 4.433 -4.209 0 -4.157 0.106 -4.056 -4.433 -4.209 l -3.475 -0.117 l -0.07 -3.185 c -0.092 -4.203 0.063 -4.064 -4.497 -4.064 -4.455 0 -4.344 -0.108 -4.344 4.235 v 3.131 h -3.361 c -4.589 0 -4.518 -0.057 -4.631 3.74 -0.093 3.152 0.153 4.112 1.144 4.463 0.333 0.118 2.01 0.214 3.726 0.214 h 3.122 v 3.157 c 0 4.221 -0.138 4.092 4.365 4.092 2.833 0 3.444 -0.064 3.889 -0.409 z m -6.69 -1.033 c -0.216 -0.201 -0.309 -1.295 -0.309 -3.627 0 -3.942 0.464 -3.557 -4.393 -3.642 l -3.263 -0.057 l -0.071 -2.747 l -0.071 -2.747 h 3.502 c 1.926 0 3.681 -0.064 3.899 -0.142 0.336 -0.12 0.398 -0.651 0.401 -3.449 0.002 -1.819 0.096 -3.442 0.208 -3.607 0.152 -0.223 0.947 -0.283 3.071 -0.234 l 2.867 0.067 l 0.067 3.39 c 0.056 2.851 0.134 3.437 0.487 3.683 0.289 0.201 1.505 0.292 3.887 0.292 h 3.466 v 2.806 v 2.806 h -3.609 c -2.68 0 -3.68 0.079 -3.884 0.308 -0.163 0.183 -0.303 1.681 -0.345 3.683 l -0.07 3.374 l -2.766 0.066 c -1.938 0.046 -2.859 -0.021 -3.075 -0.222 z m 56.37 1.191 c 1.451 -0.471 1.676 -1.106 1.773 -5 0.097 -3.89 -0.12 -4.985 -1.131 -5.726 -0.646 -0.473 -0.894 -0.48 -16.935 -0.48 h -16.279 l -0.82 0.682 l -0.82 0.682 l -0.079 3.848 c -0.063 3.051 0 4.03 0.304 4.704 0.7 1.561 0.253 1.522 17.623 1.532 10.494 0.006 15.842 -0.073 16.363 -0.242 z m -28.883 -4.191 c -0.807 -0.591 -0.88 -1.359 -0.204 -2.137 0.465 -0.535 0.595 -0.552 4.164 -0.552 3.569 0 3.699 0.017 4.164 0.552 0.607 0.698 0.607 1.237 0.001 1.936 -0.455 0.525 -0.653 0.556 -3.96 0.627 -3.245 0.07 -3.527 0.041 -4.165 -0.426 z m 17.39 0.166 c -0.66 -0.31 -0.895 -1.012 -0.646 -1.933 0.201 -0.747 1.432 -1.036 4.412 -1.036 3.85 0 4.739 0.423 4.477 2.131 -0.138 0.902 -1.054 1.133 -4.477 1.133 -2.025 0 -3.361 -0.105 -3.765 -0.295 z m 12.32 -9.03 c 0.672 -0.626 0.734 -0.822 0.734 -2.325 0 -1.398 -0.09 -1.739 -0.606 -2.298 l -0.606 -0.656 h -16.611 h -16.611 l -0.606 0.656 c -0.516 0.559 -0.606 0.899 -0.606 2.298 0 1.503 0.062 1.7 0.734 2.325 l 0.734 0.683 h 16.356 h 16.356 l 0.734 -0.683 z m -0.407 -6.944 c 0.7 -0.25 1.141 -1.394 1.135 -2.941 -0.007 -1.784 -0.469 -2.461 -1.89 -2.767 -1.302 -0.281 -30.564 -0.279 -31.868 0.003 -1.514 0.327 -1.883 0.907 -1.883 2.965 0 1.534 0.073 1.806 0.616 2.312 l 0.616 0.574 h 16.433 c 9.04 0 16.616 -0.065 16.84 -0.145 z" style="fill:#ffdead"/></g></g></svg>