<svg xmlns="http://www.w3.org/2000/svg" viewBox="0 0 256 256"><g transform="translate(0 -796.36)" style="color:#000"><path d="m 3.25 953.66 c 49.981 239.91 393.86 -17.642 187.29 -139.59 -80.25 -52.27 -213 16.2 -187.29 139.59 z" style="fill:#fff"/><path d="m 72.821 892.13 l 7.272 -3.514 l 109.08 -52.703 l 3.298 6.662 l 49.46 99.93 l -7.272 3.514 l -79.992 38.649 l -5.083 2.456 l -0.026 -0.053 l -0.032 0.081 l -34.806 -10.369 l 0.032 -0.081 l -0.058 0.028 l -2.305 -4.657 l -39.571 -79.947 z m 10.57 3.149 l 9.893 19.987 l 29.09 -14.05 l 7.272 -3.514 l 26.381 53.3 l -7.272 3.514 l -29.09 14.05 l 0.966 1.952 l 28.612 8.524 l 2.131 -1.029 l 79.992 -38.649 l -6.595 -13.324 l -50.904 24.595 l -3.298 -6.662 l -26.381 -53.3 l -3.298 -6.662 l 50.904 -24.595 l -6.595 -13.324 l -101.81 49.19 z m 13.19 26.649 l 12.861 25.983 l 29.09 -14.05 l -12.861 -25.983 l -29.09 14.05 z m 54.879 -34.771 l 26.381 53.3 l 43.632 -21.08 l -26.381 -53.3 l -43.632 21.08 z" transform="matrix(0 0.99152 -0.99163 0 1029.02 768.73)" style="fill:#ff4500"/></g></svg>