<svg xmlns="http://www.w3.org/2000/svg" viewBox="0 0 256 256"><g transform="matrix(-1 0 0 -1 259.78 1048.9)"><path d="m 231 849.1 c 127.49 194.03 -255.37 299.5 -224.96 62.74 22.905 -103.71 166.57 -166.65 224.96 -62.74 z" style="fill:#fff;color:#000"/><path d="m 140.97 851.07 c 0.012 2.166 0.682 6.665 1.49 9.998 1.362 5.623 1.912 6.293 7.643 9.315 3.396 1.791 6.686 3.284 7.311 3.32 0.624 0.035 4.191 -2.384 7.926 -5.376 8.722 -6.988 11.48 -7.03 17.533 -0.29 7.275 8.106 7.258 8.31 -1.882 21.891 l -3.675 5.46 l 2.846 6.634 c 2.819 6.57 2.915 6.652 10.154 8.593 4.02 1.078 8.608 1.959 10.197 1.959 2.891 0 2.891 0.001 2.891 11.31 v 11.31 l -8.8 2.18 c -4.84 1.199 -9.385 2.341 -10.1 2.539 -0.714 0.198 -2.643 3.492 -4.285 7.322 l -2.986 6.962 l 4.58 6.968 c 6.838 10.404 6.967 12.944 0.972 19.07 -2.712 2.773 -5.874 5.369 -7.03 5.768 -1.399 0.487 -4.694 -1.183 -9.925 -5.03 l -7.83 -5.758 l -4.27 1.904 c -2.348 1.047 -5.137 2.195 -6.198 2.551 -2.905 0.974 -5.397 7.122 -6.197 15.283 l -0.715 7.302 h -10.04 c -11.261 0 -10.323 0.887 -11.779 -11.124 -0.759 -6.259 -4.196 -11.901 -7.251 -11.901 -1.084 0 -2.963 -0.8 -4.176 -1.779 -3.388 -2.735 -4.995 -2.287 -13.05 3.64 -8.421 6.197 -9.373 6.168 -16.435 -0.487 -5.502 -5.187 -5.674 -9.206 -0.695 -16.24 6.299 -8.899 6.364 -9.308 2.773 -17.323 -2.756 -6.149 -3.72 -7.255 -6.613 -7.585 -1.863 -0.212 -6.088 -1.211 -9.39 -2.22 l -6 -1.834 l 0.325 -11.1 c 0.294 -10.04 0.542 -11.13 2.596 -11.44 1.249 -0.189 5.466 -1.21 9.371 -2.27 6.758 -1.833 7.21 -2.192 9.368 -7.399 1.247 -3.01 2.268 -6.24 2.268 -7.178 0 -1.958 -2.466 -6.328 -7.203 -12.763 -4.124 -5.604 -3.558 -8.882 2.69 -15.55 3.479 -3.713 5.392 -4.818 8.348 -4.818 2.11 0 4.448 0.788 5.197 1.752 0.749 0.96 3.904 3.492 7.01 5.62 l 5.649 3.868 l 6.1 -3.294 c 6.93 -3.742 6.622 -3.21 8.653 -14.934 l 1.519 -8.764 h 10.538 h 10.538 l 0.022 3.939 z" style="fill:#ffa07a"/><path d="m 143.78 857.46 c 0.011 2.105 0.652 6.479 1.423 9.718 1.302 5.466 1.827 6.117 7.301 9.05 3.244 1.741 6.386 3.193 6.983 3.227 0.597 0.034 4 -2.317 7.572 -5.226 8.331 -6.793 10.966 -6.833 16.748 -0.282 6.95 7.878 6.933 8.08 -1.798 21.279 l -3.51 5.307 l 2.718 6.447 c 2.693 6.386 2.784 6.466 9.698 8.352 3.839 1.047 8.223 1.904 9.74 1.904 2.76 0 2.76 0.001 2.76 10.994 v 10.994 l -8.406 2.118 c -4.623 1.165 -8.965 2.276 -9.647 2.468 -0.682 0.192 -2.525 3.395 -4.093 7.117 l -2.853 6.767 l 4.375 6.773 c 6.532 10.112 6.655 12.582 0.929 18.537 -2.591 2.694 -5.615 5.218 -6.711 5.608 -1.337 0.473 -4.484 -1.151 -9.481 -4.889 l -7.475 -5.6 l -4.078 1.852 c -2.243 1.018 -4.907 2.134 -5.92 2.48 -2.775 0.947 -5.157 6.923 -5.92 14.856 l -0.683 7.097 h -9.587 c -10.757 0 -9.861 0.862 -11.249 -10.813 -0.725 -6.084 -4.01 -11.568 -6.926 -11.568 -1.036 0 -2.831 -0.779 -3.989 -1.729 -3.237 -2.659 -4.772 -2.223 -12.467 3.539 -8.04 6.02 -8.953 5.995 -15.697 -0.473 -5.256 -5.04 -5.42 -8.949 -0.664 -15.786 6.02 -8.65 6.08 -9.05 2.649 -16.837 -2.633 -5.977 -3.554 -7.05 -6.317 -7.372 -1.779 -0.206 -5.815 -1.177 -8.969 -2.158 l -5.734 -1.783 l 0.311 -10.79 c 0.281 -9.759 0.518 -10.819 2.48 -11.12 1.193 -0.184 5.221 -1.176 8.952 -2.207 6.453 -1.782 6.888 -2.131 8.949 -7.191 1.191 -2.926 2.167 -6.07 2.167 -6.977 0 -1.903 -2.355 -6.15 -6.88 -12.406 -3.94 -5.447 -3.398 -8.635 2.569 -15.12 3.323 -3.609 5.151 -4.682 7.975 -4.682 2.02 0 4.249 0.766 4.964 1.702 0.716 0.936 3.729 3.394 6.697 5.463 l 5.396 3.761 l 5.827 -3.202 c 6.62 -3.637 6.325 -3.12 8.266 -14.517 l 1.451 -8.52 h 10.07 h 10.07 l 0.021 3.828 z" style="fill:#f00"/></g></svg>