<svg xmlns="http://www.w3.org/2000/svg" viewBox="0 0 256 256"><defs><clipPath><path transform="matrix(15.33333 0 0 11.5 415 -125.5)" d="m -24 13 c 0 1.105 -0.672 2 -1.5 2 -0.828 0 -1.5 -0.895 -1.5 -2 0 -1.105 0.672 -2 1.5 -2 0.828 0 1.5 0.895 1.5 2 z"/></clipPath></defs><path d="m 3.74 950.97 c 19.829 131.87 217.21 135.83 247.04 7.636 30.702 -103.78 -80.47 -188.63 -163.63 -154.63 -55.684 16.07 -100.67 81.83 -83.41 146.99 z" transform="translate(0 -796.36)" style="fill:#fff;color:#000"/><path d="m 74.72 193.79 c -2.742 -1.395 -4.738 -3.741 -6.354 -7.469 -2.282 -5.262 -2.33 -7.03 -1.494 -55.971 0.913 -53.54 1.197 -56.08 6.68 -60 2.438 -1.742 8.595 -1.958 55.23 -1.943 39.435 0.014 53.21 0.389 55.42 1.512 6.558 3.326 6.837 5.495 7.749 60.07 0.761 45.547 0.654 50.668 -1.159 55.51 -3.77 10.08 -1.482 9.698 -60.21 10.04 -46.724 0.269 -52.26 0.098 -55.858 -1.735 z m 74.61 -29.679 c 9.374 -2.519 10.125 -4.264 10.125 -23.479 0 -11.198 -0.452 -16.919 -1.415 -17.9 -0.936 -0.958 -6.067 -1.443 -15.281 -1.443 -12.612 0 -13.979 0.215 -15.12 2.38 -1.561 2.976 -0.37 8.161 2.198 9.563 1.067 0.582 3.383 0.777 5.147 0.433 1.764 -0.344 4.542 -0.283 6.175 0.134 2.782 0.712 2.969 1.238 2.969 8.405 0 9.259 -1.509 10.98 -9.512 10.859 -13.819 -0.211 -22.96 -10.536 -22.837 -25.8 0.081 -10.176 3.69 -18.12 10.235 -22.539 6.125 -4.135 16.78 -5.02 24.475 -2.038 2.917 1.132 6.895 2.127 8.839 2.213 3.423 0.152 3.536 -0.015 3.536 -5.206 0 -4.683 -0.474 -5.688 -3.742 -7.936 -5.571 -3.83 -19.825 -5.88 -28.367 -4.081 -17.944 3.777 -27.985 14.553 -31.15 33.437 -1.274 7.58 -1.166 9.143 1.192 17.14 4.194 14.23 11.08 21.997 22.799 25.727 6.507 2.071 22.253 2.137 29.744 0.123 z" style="fill:#ff4500"/></svg>