<svg xmlns="http://www.w3.org/2000/svg" viewBox="0 0 256 256"><g transform="translate(0 -796.36)" style="color:#000"><path d="m253.8 926.63c22.351 111.92-130.95 154.42-214.2 105.92-66.33-38.644-47.37-171.02 42.17-220.37 89.54-49.35 154.09 24.617 172.03 114.45" style="fill:#fff"/><g transform="matrix(4.24025 0 0 4.39603 24.11 830.33)" style="fill:#ff4500"><path d="m 14.952 37.33 a 3.81 3.81 0 0 1 -7.619 0 3.81 3.81 0 1 1 7.619 0"/><path d="m 32.1 37.33 a 3.81 3.81 0 0 1 -7.619 0 3.81 3.81 0 1 1 7.619 0"/><g style="fill:#ffdead"><path d="m 23.524 28.762 a 3.81 3.81 0 0 1 -7.619 0 3.81 3.81 0 1 1 7.619 0"/><path d="m 32.1 20.19 a 3.81 3.81 0 0 1 -7.619 0 3.81 3.81 0 1 1 7.619 0"/></g><path d="m 40.667 11.619 a 3.81 3.81 0 0 1 -7.619 0 3.81 3.81 0 1 1 7.619 0"/><path d="m 40.667 37.33 a 3.81 3.81 0 0 1 -7.619 0 3.81 3.81 0 1 1 7.619 0" style="fill:#ffa07a"/><path d="m 23.524 20.19 a 3.81 3.81 0 0 1 -7.619 0 3.81 3.81 0 1 1 7.619 0"/><path d="m 14.952 11.619 a 3.81 3.81 0 0 1 -7.619 0 3.81 3.81 0 1 1 7.619 0"/><path d="m 40.667 28.762 a 3.81 3.81 0 0 1 -7.619 0 3.81 3.81 0 1 1 7.619 0" style="fill:#ffdead"/><path d="m 23.524 11.619 a 3.81 3.81 0 0 1 -7.619 0 3.81 3.81 0 1 1 7.619 0" style="fill:#ffa07a"/></g></g></svg>