<svg xmlns="http://www.w3.org/2000/svg" viewBox="0 0 256 256"><g transform="translate(0 -796.36)"><path d="m 52.774 1027.39 c 192.46 127.95 311 -280.09 62.2 -226.07 -102.82 23.02 -165.22 167.39 -62.2 226.07 z" style="fill:#fff;color:#000"/><g style="fill-rule:evenodd"><path d="m 64.987 991.3 c -0.863 -3.833 3.658 -6.05 6.736 -5.643 6.02 0.801 8.869 7.673 7.484 13.179 -2.107 8.374 -11.44 12.141 -19.09 9.633 -10.398 -3.407 -14.955 -15.697 -11.393 -25.789 4.537 -12.857 19.329 -18.401 31.448 -13.623 14.802 5.836 21.11 23.76 15.303 38.4 -6.891 17.358 -27.24 24.7 -43.804 17.612 -19.217 -8.223 -27.3 -31.835 -19.212 -51.01 9.22 -21.866 35.15 -31.02 56.16 -21.601 23.638 10.592 33.489 39.915 23.12 63.62 -11.538 26.381 -43.07 37.34 -68.52 25.591 -28.06 -12.956 -39.687 -47.998 -27.03 -76.23 9.924 -22.14 32.611 -36.07 56.35 -35.44" transform="matrix(1.36626 0 0 1.2965 43.605 -359.11)" style="fill:#ffa07a"/><path d="m 129.14 921.77 c -1.179 -4.969 4.998 -7.844 9.203 -7.316 8.225 1.038 12.12 9.948 10.225 17.09 -2.879 10.857 -15.63 15.741 -26.08 12.489 -14.206 -4.417 -20.432 -20.351 -15.566 -33.435 6.199 -16.669 26.408 -23.857 42.966 -17.662 20.223 7.566 28.842 30.805 20.908 49.786 -9.415 22.505 -37.22 32.02 -59.848 22.834 -26.26 -10.661 -37.3 -41.27 -26.25 -66.13 12.597 -28.349 48.02 -40.22 76.73 -28.01 32.3 13.733 45.755 51.75 31.588 82.48 -15.764 34.2 -58.845 48.41 -93.62 33.18 c -38.34 -16.797 -54.22 -62.23 -36.93 -98.83 13.559 -28.705 44.555 -46.765 76.989 -45.948" style="fill:#ff4500"/></g></g></svg>