<svg xmlns="http://www.w3.org/2000/svg" viewBox="0 0 256 256"><defs><clipPath id="0"><path transform="matrix(15.33333 0 0 11.5 415 -125.5)" d="m -24 13 c 0 1.105 -0.672 2 -1.5 2 -0.828 0 -1.5 -0.895 -1.5 -2 0 -1.105 0.672 -2 1.5 -2 0.828 0 1.5 0.895 1.5 2 z"/></clipPath></defs><g transform="translate(0 -796.36)"><path d="m -429.05 1690.33 c 82.81 -118.52 -103.69 -267.18 -201.24 -170.61 -91.91 90.99 26.87 260.92 141.24 216.73 23.862 -9.219 44.801 -24.363 60 -46.12 z" transform="matrix(0 -1 -1 0 1743.65 387.96)" style="fill:#fff;color:#000"/><g transform="matrix(5.41561 0 0 5.93669 -2.492 792.85)" style="clip-path:url(#0)"><g><path d="m 11.984 15 h 24.03 c 0.543 0 0.977 0.441 0.977 0.984 v 16.03 c 0 0.543 -0.438 0.977 -0.977 0.977 h -24.03 c -0.547 0 -0.984 -0.438 -0.984 -0.977 v -16.03 c 0 -0.543 0.438 -0.984 0.984 -0.984" style="fill:#ffdead"/><path d="m 37 17 l -13 8.656 l 11 7.344 h 1 c 0.547 0 1 -0.453 1 -1" style="fill:#fa8072"/><path d="m 35 15 v 18 h 1 c 0.547 0 1 -0.453 1 -1 v -16 c 0 -0.543 -0.453 -0.996 -1 -0.996" style="fill:#ff4500"/><g style="fill:#ff493c"><path d="m 12 15 c -0.543 0 -0.996 0.453 -0.996 0.996 v 16 c 0 0.547 0.453 1 0.996 1 h 1 v -18"/><path d="m 12 15 c -0.543 0 -0.996 0.453 -0.996 0.996 v 1 l 13 8.656 v -3.313 l -11 -7.344 h -1"/><path d="m 36 15 c 0.547 0 1 0.453 1 0.996 v 1 l -13 8.656 v -3.313 l 10.996 -7.344 h 1"/></g></g></g></g></svg>