<svg xmlns="http://www.w3.org/2000/svg" viewBox="0 0 256 256"><g transform="translate(0 -796.36)"><g style="color:#000"><path d="m 126.41 1047.32 c -153.67 5.506 -171.12 -209.36 -28.348 -241.85 134.52 -30.608 210.4 134.07 104.36 213.85 c -22.12 16.644 -47.806 26.99 -76.01 28 z" style="fill:#fff"/><g transform="matrix(-0.69215 -0.46135 -0.45185 0.70672 23.21 143.99)" style="fill:#ff4500"><rect width="106.84" height="166.84" x="-664.03" y="624.3" rx="11.911" ry="18.6"/><rect ry="15.578" rx="9.263" y="635.55" x="-651.53" height="139.73" width="83.09"/></g></g><path d="m 113.2 958.6 c 7.197 -1.328 9.352 -2.159 9.907 -3.818 0.39 -1.167 -0.205 -6.072 -1.322 -10.9 -1.768 -7.644 -2.334 -8.806 -4.374 -8.983 -1.289 -0.112 -2.602 0.192 -2.918 0.676 -0.316 0.484 -3.784 1.51 -7.706 2.28 -5.868 1.152 -7.28 1.832 -7.972 3.837 -0.463 1.34 -0.105 3.736 0.795 5.325 0.9 1.589 1.589 4.791 1.531 7.117 -0.058 2.325 0.563 4.663 1.379 5.196 0.816 0.533 5.623 0.205 10.682 -0.729 z m -7.918 -9.237 c -0.796 -3.03 1.388 -6.531 4.603 -7.376 3.14 -0.825 4.591 0.179 5.328 3.687 1.531 7.287 -8.05 10.846 -9.931 3.689 z" style="fill:#ffdead"/><rect transform="matrix(-0.83112 -0.55609 -0.55031 0.83496 0 0)" width="62.25" height="63.01" x="-644.08" y="638.68" rx="6.94" ry="7.02" style="fill:#ffa07a;color:#000"/></g></svg>