<svg xmlns="http://www.w3.org/2000/svg" viewBox="0 0 256 256"><defs><filter id="0"><feGaussianBlur stdDeviation="0.90293"/></filter><linearGradient y2="-421.08" x2="-502.56" y1="-451.91" x1="-517.1" gradientTransform="matrix(1.01493 0 0 1 9.659 0)" gradientUnits="userSpaceOnUse" id="3"><stop style="stop-color:#fe7f7f"/><stop offset="1" style="stop-color:#d20000"/></linearGradient><linearGradient y2="-403.45" x2="-513.86" y1="-416.79" x1="-527.4" gradientUnits="userSpaceOnUse" id="4"><stop style="stop-color:#fe2222"/><stop offset="1" style="stop-color:#eb0000"/></linearGradient><linearGradient y2="-432.43" x2="-484.77" y1="-471.94" x1="-525.56" gradientUnits="userSpaceOnUse" id="1"><stop style="stop-color:#fe0808"/><stop offset="1" style="stop-color:#eb0000"/></linearGradient><radialGradient r="15.664" cy="-446.86" cx="-511.63" gradientTransform="matrix(1.31552 0 0 1.47292 161.43 207.48)" gradientUnits="userSpaceOnUse" id="2"><stop style="stop-color:#ff3030"/><stop offset="1" style="stop-color:#fe5151"/></radialGradient></defs><path d="m 52.77 231.02 c 192.46 127.95 311 -280.09 62.2 -226.07 -102.82 23.02 -165.22 167.39 -62.2 226.07 z" style="fill:#fff;color:#000"/><g transform="matrix(1.17532 1.71205 -1.81411 0.74415 803.49 1328.38)"><g style="stroke-width:1.627"><rect transform="matrix(0.82762 -0.56128 0.58826 0.80867 0.996 1.369)" y="-469.16" x="-529.35" height="72.806" width="45.33" rx="3.539" style="fill:#ec0000;opacity:0.577;stroke:#ec0000;filter:url(#0)"/><g transform="matrix(0.82762 -0.56128 0.58826 0.80867 0 0)"><rect width="45.33" height="72.806" x="-529.35" y="-468.84" rx="3.539" style="fill:#920000;stroke:#800000"/><rect y="-467.14" x="-527.79" height="69.42" width="42.21" rx="3.374" style="fill:none;stroke:url(#1)"/></g><rect transform="matrix(0.82762 -0.56128 0.58826 0.80867 0 0)" y="-462.19" x="-521.51" height="45.715" width="29.702" rx="2.222" style="fill:url(#2);stroke:#ec0000"/><rect width="26.575" height="42.33" x="-519.95" y="-460.5" transform="matrix(0.82762 -0.56128 0.58826 0.80867 0 0)" rx="0.561" style="fill:none;stroke:url(#3)"/><rect width="29.702" height="11.594" x="-521.51" y="-412.64" transform="matrix(0.82762 -0.56128 0.58826 0.80867 0 0)" rx="0.564" style="fill:#920000;stroke:url(#4)"/></g><rect width="10.943" height="4.868" x="-519.7" y="-409.27" transform="matrix(0.82762 -0.56128 0.58826 0.80867 0 0)" rx="0.237" style="fill:#e00"/><path d="m -661.82,-48.985 6.35,8.729" style="fill:#920000;stroke:#b90000;fill-rule:evenodd;stroke-width:1.626"/><g transform="matrix(0.82762 -0.56128 0.58826 0.80867 0 0)"><rect y="-409.27" x="-504.66" height="4.868" width="10.943" rx="0.237" style="fill:#fe5454"/><rect y="-406.79" x="-519.7" height="2.386" width="10.943" rx="0.116" style="fill:#b20000"/><rect width="10.943" height="2.54" x="-504.66" y="-406.95" rx="0.123" style="fill:#fe0909"/></g><g style="fill:none;stroke:#b90000;stroke-width:1.626"><path d="m -686.87,-85.83 7.278,-4.936"/><path d="m -683.06,-83.982 5.63,-3.818"/><path d="m -679.06,-82.26 3.789,-2.569"/><path d="m -674.97,-80.61 1.848,-1.253"/></g></g></svg>