<svg xmlns="http://www.w3.org/2000/svg" viewBox="0 0 256 256"><defs><clipPath><path transform="matrix(15.33333 0 0 11.5 415 -125.5)" d="m -24 13 c 0 1.105 -0.672 2 -1.5 2 -0.828 0 -1.5 -0.895 -1.5 -2 0 -1.105 0.672 -2 1.5 -2 0.828 0 1.5 0.895 1.5 2 z"/></clipPath><linearGradient id="0" x1="29.999" y1="4.348" x2="31.31" y2="59.989" gradientUnits="userSpaceOnUse"><stop style="stop-color:#00c3ff"/><stop offset="1" style="stop-color:#00c3ff;stop-opacity:0"/></linearGradient><linearGradient gradientTransform="matrix(0.64935 0 0 0.75001 8.416 5)" gradientUnits="userSpaceOnUse" id="1" y2="19.813" x2="15.25" y1="8.438" x1="12.938"><stop style="stop-color:#ff4500;stop-opacity:0.275"/><stop offset="1" style="stop-color:#ff4500;stop-opacity:0"/></linearGradient></defs><g transform="translate(0 -796.36)"><path d="m -1067.28 1935.73 c 48.956 88.52 202.34 54.16 228.29 -18.719 30.922 -86.82 -49.563 -251.7 -185.88 -155.11 -45.916 33.728 -91.37 85.31 -42.41 173.83 z" transform="matrix(0.97729 0 0 1 1069.48 -936.13)" style="fill:#fff;color:#000"/><g transform="matrix(2.83687 0 0 3.95277 62.15 841.68)" style="stroke:#ff4500"><rect width="37" height="41" rx="1" x="5.5" y="2.5" style="fill:none;opacity:0.4;stroke-linecap:round;stroke-linejoin:round"/><path d="m 24 29 c -3.302 0 -6 2.698 -6 6 0 3.302 2.698 6 6 6 3.302 0 6 -2.698 6 -6 0 -3.302 -2.698 -6 -6 -6 z m 0 2 c 2.221 0 4 1.779 4 4 0 2.221 -1.779 4 -4 4 -2.221 0 -4 -1.779 -4 -4 0 -2.221 1.779 -4 4 -4 z m 0 0 c -2.197 0 -4 1.803 -4 4 0 2.197 1.803 4 4 4 2.197 0 4 -1.803 4 -4 0 -2.197 -1.803 -4 -4 -4 z m 0 2 c 1.116 0 2 0.884 2 2 0 1.116 -0.884 2 -2 2 -1.116 0 -2 -0.884 -2 -2 0 -1.116 0.884 -2 2 -2 z" style="opacity:0.15;color:#000"/><g style="fill:#ffdead;fill-rule:evenodd"><rect y="6" x="8" rx="0.6" height="21" width="32" style="opacity:0.15"/><path d="m 9.647 6.593 h 28.706 v 18.814 h -28.706 z" style="stroke-miterlimit:3.429;stroke-linecap:round;stroke-linejoin:round;stroke-width:1.239"/></g><g transform="matrix(0.27831 0 0 0.27481 15 6.963)" style="fill:url(#0)"><path d="m 40.09 11.522 h 5.948 v 2.266 h -5.948 z"/><path d="m 40.09 15.03 h 5.948 v 2.267 h -5.948 z"/><path d="m 40.09 18.542 h 5.948 v 2.267 h -5.948 z"/><path d="m 40.09 22.05 h 5.948 v 2.267 h -5.948 z"/><path d="m 40.09 25.562 h 5.948 v 2.267 h -5.948 z"/><path d="m 40.09 29.07 h 5.948 v 2.267 h -5.948 z"/><path d="m 47.37 15.03 h 5.947 v 2.267 h -5.947 z"/><path d="m 47.37 18.542 h 5.947 v 2.267 h -5.947 z"/><path d="m 47.37 22.05 h 5.947 v 2.267 h -5.947 z"/><path d="m 47.37 25.562 h 5.947 v 2.267 h -5.947 z"/><path d="m 47.37 29.07 h 5.947 v 2.267 h -5.947 z"/><path d="m 54.597 22.05 h 5.948 v 2.267 h -5.948 z"/><path d="M 54.597,25.562 H60.545 V27.829 H54.597 z"/><path d="M 54.597,29.07 H60.545 V31.337 H54.597 z"/><path d="M 32.832,18.542 H38.78 V20.809 H32.832 z"/><path d="M 32.832,22.051 H38.78 V24.318 H32.832 z"/><path d="M 32.832,25.562 H38.78 V27.829 H32.832 z"/><path d="M 32.832,29.07 H38.78 V31.337 H32.832 z"/><path d="M 25.573,4.502 H31.521 V6.769 H25.573 z"/><path d="m 25.573 8.01 h 5.948 v 2.267 h -5.948 z"/><path d="M 25.573,11.522 H31.521 V13.788 H25.573 z"/><path d="m 25.573 15.03 h 5.948 v 2.267 h -5.948 z"/><path d="M 25.573,18.542 H31.521 V20.809 H25.573 z"/><path d="m 25.573 22.05 h 5.948 v 2.267 h -5.948 z"/><path d="M 25.573,25.562 H31.521 V27.829 H25.573 z"/><path d="M 25.573,29.07 H31.521 V31.337 H25.573 z"/><path d="m 18.316 15.03 h 5.948 v 2.267 h -5.948 z"/><path d="M 18.316,18.542 H24.264 V20.809 H18.316 z"/><path d="m 18.316 22.05 h 5.948 v 2.267 h -5.948 z"/><path d="M 18.316,25.562 H24.264 V27.829 H18.316 z"/><path d="M 18.316,29.07 H24.264 V31.337 H18.316 z"/><path d="m 11.1 22.05 h 5.948 v 2.267 h -5.948 z"/><path d="m 11.1 25.562 h 5.948 v 2.267 h -5.948 z"/><path d="m 11.1 29.07 h 5.948 v 2.267 h -5.948 z"/><path d="M 3.888,25.562 H9.836 V27.829 H3.888 z"/><path d="M 3.888,29.07 H9.836 V31.337 H3.888 z"/><path d="m 40.09 50.888 h 5.948 v 2.267 h -5.948 z"/><path d="m 40.09 47.38 h 5.948 v 2.266 h -5.948 z"/><path d="m 40.09 43.869 h 5.948 v 2.268 h -5.948 z"/><path d="m 40.09 40.36 h 5.948 v 2.267 h -5.948 z"/><path d="m 40.09 36.85 h 5.948 v 2.267 h -5.948 z"/><path d="m 47.37 47.38 h 5.947 v 2.266 h -5.947 z"/><path d="m 47.37 43.869 h 5.947 v 2.268 h -5.947 z"/><path d="m 47.37 40.36 h 5.947 v 2.267 h -5.947 z"/><path d="m 47.37 36.85 h 5.947 v 2.267 h -5.947 z"/><path d="M 54.597,40.36 H60.545 V42.627 H54.597 z"/><path d="M 54.597,36.85 H60.545 V39.117 H54.597 z"/><path d="M 32.832,43.869 H38.78 V46.137 H32.832 z"/><path d="M 32.832,40.36 H38.78 V42.627 H32.832 z"/><path d="M 32.832,36.85 H38.78 V39.117 H32.832 z"/><path d="M 25.573,57.908 H31.521 V60.176 H25.573 z"/><path d="m 25.573 54.4 h 5.948 v 2.267 h -5.948 z"/><path d="M 25.573,50.888 H31.521 V53.155 H25.573 z"/><path d="m 25.573 47.38 h 5.948 v 2.266 h -5.948 z"/><path d="M 25.573,43.869 H31.521 V46.137 H25.573 z"/><path d="M 25.573,40.36 H31.521 V42.627 H25.573 z"/><path d="M 25.573,36.85 H31.521 V39.117 H25.573 z"/><path d="m 18.316 47.38 h 5.948 v 2.266 h -5.948 z"/><path d="M 18.316,43.869 H24.264 V46.137 H18.316 z"/><path d="M 18.316,40.36 H24.264 V42.627 H18.316 z"/><path d="M 18.316,36.85 H24.264 V39.117 H18.316 z"/><path d="m 11.1 40.36 h 5.948 v 2.267 h -5.948 z"/><path d="m 11.1 36.85 h 5.948 v 2.267 h -5.948 z"/><path d="M 3.888,36.85 H9.836 V39.117 H3.888 z"/><path d="m 24.26 33.444 h 1.313 v 2.162 h 5.949 v -2.162 h 1.31 v 2.162 h 5.948 v -2.162 h 1.31 v 2.162 h 5.95 v -2.162 h 1.33 v 2.162 h 5.94 v -2.162 h 1.287 v 2.162 h 5.953 v -2.162 h 4.13 v -2.084 h -64.68 v 2.084 h 3.888 v 2.162 h 5.947 v -2.162 h 1.265 v 2.162 h 5.95 v -2.162 h 1.266 v 2.162 h 5.944"/></g><path d="m 10.364 7.25 h 27.27 v 6 l -27.27 5.25 v -11.25 z" style="fill:url(#1)"/><path d="m 24 30 a 5 5 0 0 0 -5 5 5 5 0 0 0 5 5 5 5 0 0 0 5 -5 5 5 0 0 0 -5 -5 z m 0 2 a 3 3 0 0 1 3 3 3 3 0 0 1 -3 3 3 3 0 0 1 -3 -3 3 3 0 0 1 3 -3 z" style="fill:#272727"/></g><g transform="translate(0 796.36)" style="fill-rule:evenodd"><g style="stroke:#ff4500;stroke-width:5.938"><path d="m 80.27 136.35 v -78.64 h 49.898 h 49.898 v 78.64 v 78.64 h -49.898 h -49.898 v -78.64 z m 55.679 71.74 c 10.1 -4.22 15.665 -19.22 12.11 -32.648 -2.175 -8.218 -6.04 -13.281 -12.241 -16.02 -4.172 -1.846 -5.497 -1.982 -9.02 -0.927 -9.293 2.784 -15.204 12.213 -15.275 24.365 -0.049 8.52 1.82 14.701 5.966 19.732 5.337 6.474 11.635 8.352 18.457 5.501 z m 40.825 -55.941 c 1.452 -2.713 1.51 -81.3 0.062 -83.6 -0.881 -1.395 -7.378 -1.671 -45.508 -1.933 -43.477 -0.299 -44.53 -0.256 -46.684 1.898 -2.136 2.136 -2.204 3.44 -2.204 42.26 0 34.97 0.217 40.27 1.705 41.763 1.495 1.495 7.233 1.705 46.606 1.705 43.28 0 44.942 -0.076 46.02 -2.098 z" style="fill:#ffa07a"/><g style="fill:#ff4500"><path d="m 83.53 183.95 v -27.788 l 2.441 0.654 c 1.342 0.36 9.492 0.661 18.11 0.669 l 15.67 0.015 l -3.346 3.525 c -6.283 6.62 -7.385 9.981 -7.385 22.508 0 13.154 1.602 17.395 9.145 24.21 l 4.421 3.994 h -19.529 h -19.529 v -27.788 z"/><path d="m 140.51 209.6 c 14.195 -9.1 15.965 -37.501 3.044 -48.846 l -3.697 -3.246 l 16.04 -0.015 c 8.821 -0.008 17.14 -0.309 18.478 -0.669 l 2.441 -0.654 v 27.788 v 27.788 l -19.797 -0.018 l -19.797 -0.018 l 3.29 -2.109 z"/></g></g><path d="m 126.9 200.6 c -5.751 -2.627 -9.878 -12.252 -8.623 -20.11 0.805 -5.04 2.58 -8.628 5.818 -11.771 6.593 -6.398 15.489 -0.969 17.916 10.934 1.29 6.326 -0.614 13.502 -4.781 18.02 -3.37 3.656 -6.676 4.591 -10.33 2.923 z m 5.551 -3.592 c 2.271 -0.631 5.05 -3.199 6.337 -5.865 3.039 -6.275 1.904 -14.11 -2.682 -18.518 -3.836 -3.69 -8.633 -3.472 -12.274 0.557 -2.856 3.161 -3.559 5.249 -3.559 10.572 0 4.265 0.105 4.847 1.309 7.226 2.524 4.987 6.56 7.225 10.869 6.03 z" style="fill:#ffdead;stroke:#ffdead;stroke-width:2.418"/></g></g></svg>