<svg xmlns="http://www.w3.org/2000/svg" viewBox="0 0 256 256"><g transform="translate(0 -796.36)"><path d="m 117.3 1051.73 c 155.28 14.765 197.08 -234.25 37.632 -253.59 -146.61 -23.968 -222.12 201.75 -76.44 246.9 c 12.317 4.946 25.786 4.852 38.807 6.696 z" style="fill:#fff;color:#000"/><g transform="matrix(3.55814 0 0 3.84884 42.512 835.57)" style="fill:#ffdead"><path d="M 4,4 H44 V44 H4 z"/><path d="m 4 4 c 20 1 20 1 40 0 z" style="opacity:0.75"/><g style="fill:#ff4500"><path d="M 7,25 H23 V41 H7 z"/><path d="M 25,7 H41 V23 H25 z"/></g><g style="fill:#ff7f50"><path d="M 29,29 H37 V37 H29 z"/><path d="M 11,11 H19 V19 H11 z"/></g></g></g></svg>