<svg xmlns="http://www.w3.org/2000/svg" viewBox="0 0 256 256"><g transform="translate(0 -796.36)"><path d="m 44.834 1015.23 c -201.82 -266.38 353.59 -304.22 175.35 -32.31 -40.634 61.991 -121.89 102.86 -175.35 32.31 z" style="fill:#fff;color:#fff"/><g transform="matrix(3.50116 0 0 3.0279 41.35 -2198.95)"><path transform="matrix(1.25705 0 0 1.25705 7.458 1004.34)" d="m 28.27 27.84 l -15.11 8.726 l -15.11 -8.726 v -17.452 l 15.11 -8.726 l 15.11 8.726 z" style="fill:#fa8072"/><path d="m 24 1006.42 v 43.876 l 18.997 -10.97 v -21.935 l -18.997 -10.971 z" style="fill:#ff4500"/><path d="m 24 1006.42 l -19 10.971 l 19 10.968 l 18.997 -10.965 l -18.997 -10.973 z" style="fill:#ffa07a"/><path d="m 24 1006.42 l 18.997 10.971 h 0.003 l -19 -10.971 z" style="fill:#ff4500ff4500;fill-opacity:0.235"/><g transform="matrix(1.42451 0 0 1.42451 -10.188 -436.55)" style="fill:#ff7f50"><ellipse ry="1.476" rx="2.135" cy="1020.07" cx="17.865"/><ellipse cx="29.865" cy="1020.07" rx="2.135" ry="1.476"/></g></g></g></svg>