<svg xmlns="http://www.w3.org/2000/svg" xmlns:xlink="http://www.w3.org/1999/xlink" viewBox="0 0 256 256"><defs><clipPath><rect y="6" x="6" rx="6" height="84" width="84" style="fill:#ff4500"/></clipPath><linearGradient y2="26.857" x2="-9.714" y1="32.571" x1="-15.429" gradientUnits="userSpaceOnUse" id="3" xlink:href="#0"/><linearGradient y2="32.571" x2="-15.429" y1="38.29" x1="-21.14" gradientUnits="userSpaceOnUse" id="4" xlink:href="#0"/><linearGradient y2="32.571" x2="-9.714" y1="38.29" x1="-15.429" gradientUnits="userSpaceOnUse" id="2" xlink:href="#0"/><linearGradient id="0"><stop style="stop-color:#ff355f"/><stop offset="1" style="stop-color:#f10022"/></linearGradient><linearGradient y2="21.14" x2="-9.714" y1="26.857" x1="-15.429" gradientUnits="userSpaceOnUse" id="1" xlink:href="#0"/></defs><g transform="translate(0 -796.36)" style="color:#000"><path d="m26.683 856.14c-84.46 95.24 48.767 241.79 160.27 182.53 112.74-59.906 82.69-258.16-55.767-241.3-41.2 5.02-76.954 27.695-104.51 58.764" style="fill:#fff"/><g transform="matrix(0 -5.22011 5.38757 0 6.68 797.13)"><rect y="9.714" x="-38.29" rx="0.952" height="5.714" width="5.714" style="fill:#ffdead"/><rect y="26.857" x="-38.29" rx="0.952" height="5.714" width="5.714" style="fill:#dc143c"/><rect y="21.14" x="-15.429" rx="0.952" height="5.714" width="5.714" style="fill:url(#1)"/><rect y="26.857" x="-15.429" rx="0.952" height="5.714" width="5.714" style="fill:url(#3)"/><rect y="32.571" x="-15.429" rx="0.952" height="5.714" width="5.714" style="fill:url(#2)"/><rect y="32.571" x="-21.14" rx="0.952" height="5.714" width="5.714" style="fill:url(#4)"/><g style="fill:#dc143c"><rect y="26.857" x="-32.571" rx="0.952" height="5.714" width="5.714"/><rect y="21.14" x="-32.571" rx="0.952" height="5.714" width="5.714"/><rect y="21.14" x="-26.857" rx="0.952" height="5.714" width="5.714"/></g><g style="fill:#ffdead"><rect y="15.429" x="-38.29" rx="0.952" height="5.714" width="5.714"/><rect y="21.14" x="-38.29" rx="0.952" height="5.714" width="5.714"/><rect y="15.429" x="-32.571" rx="0.952" height="5.714" width="5.714"/></g></g></g></svg>