<svg xmlns="http://www.w3.org/2000/svg" viewBox="0 0 256 256"><defs><filter style="color-interpolation-filters:sRGB"><feBlend mode="darken" in2="BackgroundImage"/></filter></defs><g style="fill:#d3d3d3;color:#000"><path d="m -429.05 1690.33 c 145.2 -221.6 -385.23 -232.05 -202.66 -3.617 48.21 58.77 163.57 87.45 202.66 3.617 z" transform="matrix(-0.95926 0 0 -1.14823 -387.11 2000.98)" style="fill:#fff"/><path d="m 570 569 l -1 1 v 1 h -4 v 4.76 v 4.74 c 0 1.5 1.5 1.5 1.5 1.5 h 4.738 h 1.523 h 4.738 c 0 0 1.5 0 1.5 -1.5 v -4.74 v -4.76 h -4 v -1 l -1 -1 h -4 z m 0 1 h 4 v 1 h -4 v -1 z" transform="matrix(10.0847 0 0 9 -5643.73 -5045.93)" style="fill:#ff4500;enable-background:new"/></g></svg>