<svg xmlns="http://www.w3.org/2000/svg" viewBox="0 0 256 256"><g transform="translate(0 -796.36)"><path d="m 52.774 1027.39 c 192.46 127.95 311 -280.09 62.2 -226.07 -102.82 23.02 -165.22 167.39 -62.2 226.07 z" style="fill:#fff;color:#000"/><g transform="matrix(12.44399 0 0 11.90455 46.64 -2529.93)"><path d="m 1.129 284.58 h 11.289 v 11.289 h -11.289 z" style="fill:#ff4500"/><path d="m 6.773 284.57 v 11.289" style="fill:#ff4500ff4500;opacity:0.15;stroke:#ff4500ff4500;stroke-width:0.282"/><g style="fill:#ffdead;fill-rule:evenodd"><path d="m 2.54 295.31 h 8.467 v 0.564 h -8.467 z" style="opacity:0.5"/><path d="m 3.104 294.46 h 1.411 v 1.411 h -1.411 z"/><path d="m 9.03 294.46 h 1.411 v 1.411 h -1.411 z"/><path d="m 5.063 294.46 h 1.411 v 1.411 h -1.411 z"/><path d="m 7.04 294.46 h 1.411 v 1.411 h -1.411 z"/></g><g style="fill:#ff4500ff4500"><path transform="matrix(0.28222 0 0 0.28222 0 283.45)" d="m 4 23.958 h 40" style="opacity:0.15;stroke:#ff4500ff4500"/><path d="M 1.129,284.58 H6.76 V290.213 H1.129 z" style="opacity:0.15;stroke-width:0.282"/></g><path d="m 1.129 295.87 h 11.289 c -5.644 -0.282 -5.644 -0.282 -11.289 0 z" style="fill:#ffdead;opacity:0.35"/><path d="m 1.129 284.58 h 11.289 c -5.644 0.282 -5.644 0.282 -11.289 0 z" style="fill:#ff4500ff4500;opacity:0.5"/></g></g></svg>