<svg xmlns="http://www.w3.org/2000/svg" viewBox="0 0 256 256"><g transform="translate(0 -796.36)" style="fill:#f60"><path d="m 27.661 856.46 c -84.1 94.03 48.56 238.72 159.59 180.21 112.26 -59.14 82.34 -254.88 -55.53 -238.23 -41.03 4.956 -76.63 27.343 -104.07 58.02 z" style="fill:#fff;color:#000"/><g transform="matrix(0.68235 0 0 0.6523 42.33 321.38)"><path d="m 117.3 1051.73 c 155.28 14.765 197.08 -234.25 37.632 -253.59 -146.61 -23.968 -222.12 201.75 -76.44 246.9 12.317 4.946 25.786 4.852 38.807 6.696 z" style="fill:#ffe4c4;color:#000"/><g transform="matrix(1.20858 0 0 1.22844 48.761 842.92)" style="stroke:#ff2608"><path d="M 27.756,21.233 4.053,34.757 4.192,7.467 z" transform="matrix(1.91314 0 0 1.91553 38.729 24.14)" style="fill:#ff2608;stroke-width:1.241"/><path d="m 141.97 1.695 c 0 33.586 -30.885 60.814 -68.983 60.814 -38.1 0 -68.983 -27.23 -68.983 -60.814 0 -33.586 30.885 -60.814 68.983 -60.814 38.1 0 68.983 27.23 68.983 60.814 z" transform="matrix(0.79782 0 0 0.905 5.817 62.47)" style="stroke-miterlimit:7;fill-opacity:0;stroke-linecap:round;stroke-width:8.238"/></g></g></g></svg>