<svg xmlns="http://www.w3.org/2000/svg" xmlns:xlink="http://www.w3.org/1999/xlink" viewBox="0 0 256 256"><defs><path id="0" d="m 16 26.5 c 0 3.038 -2.91 5.5 -6.5 5.5 -3.59 0 -6.5 -2.462 -6.5 -5.5 0 -3.038 2.91 -5.5 6.5 -5.5 c 3.59 0 6.5 2.462 6.5 5.5 z"/><path id="1" d="m 19.929 9.5 c 0 1.105 -1.535 2 -3.429 2 -1.894 0 -3.429 -0.895 -3.429 -2 0 -1.105 1.535 -2 3.429 -2 1.894 0 3.429 0.895 3.429 2 z"/></defs><g transform="translate(0 -796.36)"><path d="m 117.3 1051.73 c 155.28 14.765 197.08 -234.25 37.632 -253.59 -146.61 -23.968 -222.12 201.75 -76.44 246.9 c 12.317 4.946 25.786 4.852 38.807 6.696 z" style="fill:#fff;color:#000"/><g transform="matrix(3.21935 0 0 3.41494 51.26 846.1)" style="fill:#ff4500;stroke:#ffdead"><g transform="matrix(1.14286 0 0 1 -15.286 -3.5)"><path transform="matrix(0 -0.53846 0.95454 0 23.955 23.12)" d="m 16 26.5 c 0 3.038 -2.91 5.5 -6.5 5.5 -3.59 0 -6.5 -2.462 -6.5 -5.5 h 6.5 z" id="2" style="opacity:0.35"/><use transform="matrix(-1.16668 0 0 -1 106.71 36.01)" xlink:href="#2"/></g><use transform="matrix(0.84615 0 0 1 0.462 -13)" xlink:href="#0" style="opacity:0.36"/><use transform="matrix(0.84615 0 0 1 33.462 13)" xlink:href="#0" style="opacity:0.36"/><use transform="matrix(0.84615 0 0 1 22.462 13)" xlink:href="#0" style="opacity:0.36"/><use transform="matrix(0.84615 0 0 1 11.462 13)" xlink:href="#0" style="opacity:0.36"/><use transform="matrix(0.84615 0 0 1 0.462 13)" xlink:href="#0" style="opacity:0.36"/><use transform="matrix(0.84615 0 0 1 0.462 0)" xlink:href="#0" style="opacity:0.36"/><use transform="matrix(0.84615 0 0 1 11.462 0)" xlink:href="#0" style="opacity:0.36"/><use transform="matrix(0.84615 0 0 1 22.462 0)" xlink:href="#0" style="opacity:0.36"/><use transform="matrix(0.84615 0 0 1 33.462 0)" xlink:href="#0" style="opacity:0.36"/><g transform="matrix(1 0 0 1.01895 5 -24.578)" style="stroke-linecap:square;stroke-width:0.991"><rect ry="0.11" width="2.046" height="10.581" x="48.15" y="-15.09" transform="matrix(0.48881 0.87239 -0.85942 0.51128 0 0)" rx="0.107" style="stroke-width:0.991"/><path d="m 15.602 26.595 c 0 3.036 -1.74 5.418 -6.102 5.405 -3.866 -0.011 -6.386 -2.291 -5.893 -5.492 l 11.995 0.086 z" transform="matrix(-0.42308 -0.73279 0.86603 -0.5 17.07 56.21)" style="stroke-linejoin:round;stroke-width:1.077"/></g><g style="stroke-linecap:square"><path transform="matrix(0.49231 0 0 0.5 3.992 5)" d="m 31.5 13 c 0 1.105 -0.909 2 -2.031 2 -1.122 0 -2.031 -0.895 -2.031 -2 0 -1.105 0.909 -2 2.031 -2 1.122 0 2.031 0.895 2.031 2 z" style="stroke-width:2.02"/><use transform="matrix(0.76923 0 0 0.90909 0.192 0.409)" xlink:href="#0" style="stroke-width:1.196"/><use transform="matrix(0.61538 0 0 0.72727 1.654 5.227)" xlink:href="#0" style="opacity:0.604;stroke-width:1.495"/><g transform="translate(11)"><use transform="matrix(0.76923 0 0 0.90909 0.192 0.409)" xlink:href="#0" style="stroke-width:1.196"/><use transform="matrix(0.61538 0 0 0.72727 1.654 5.227)" xlink:href="#0" style="opacity:0.624;stroke-width:1.495"/></g><g transform="translate(22 13)"><use transform="matrix(0.76923 0 0 0.90909 0.192 0.409)" xlink:href="#0" style="stroke-width:1.196"/><use transform="matrix(0.61538 0 0 0.72727 1.654 5.227)" xlink:href="#0" style="opacity:0.64;stroke-width:1.495"/></g><g transform="translate(33)"><use transform="matrix(0.76923 0 0 0.90909 0.192 0.409)" xlink:href="#0" style="stroke-width:1.196"/><use transform="matrix(0.61538 0 0 0.72727 1.654 5.227)" xlink:href="#0" style="opacity:0.892;stroke-width:1.495"/></g><g transform="translate(0 13)"><use transform="matrix(0.76923 0 0 0.90909 0.192 0.409)" xlink:href="#0" style="stroke-width:1.196"/><use transform="matrix(0.61538 0 0 0.72727 1.654 5.227)" xlink:href="#0" style="opacity:0.616;stroke-width:1.495"/></g><g transform="translate(22)"><use transform="matrix(0.76923 0 0 0.90909 0.192 0.409)" xlink:href="#0" style="stroke-width:1.196"/><use transform="matrix(0.61538 0 0 0.72727 1.654 5.227)" xlink:href="#0" style="opacity:0.608;stroke-width:1.495"/></g><g transform="translate(33 13)"><use transform="matrix(0.76923 0 0 0.90909 0.192 0.409)" xlink:href="#0" style="stroke-width:1.196"/><use transform="matrix(0.61538 0 0 0.72727 1.654 5.227)" xlink:href="#0" style="opacity:0.624;stroke-width:1.495"/></g><path d="m 3.853 27.757 l 11.564 0.078 c -0.423 3.258 -3.757 4.616 -7.303 4.04 -2.753 -0.448 -4.197 -2.031 -4.261 -4.116 z" transform="matrix(-0.34614 -0.61719 0.70853 -0.42112 25.512 29.16)" style="opacity:0.628;stroke-width:1.31"/><g transform="translate(11 13)"><use transform="matrix(0.76923 0 0 0.90909 0.192 0.409)" xlink:href="#0" style="stroke-width:1.196"/><use transform="matrix(0.61538 0 0 0.72727 1.654 5.227)" xlink:href="#0" style="opacity:0.6;stroke-width:1.495"/></g><g transform="translate(0 -13)"><use transform="matrix(0.76923 0 0 0.90909 0.192 0.409)" xlink:href="#0" style="stroke-width:1.196"/><use transform="matrix(0.61538 0 0 0.72727 1.654 5.227)" xlink:href="#0" style="opacity:0.648;stroke-width:1.495"/></g></g><use transform="matrix(0.875 0 0 1.25 -6.937 -1.375)" xlink:href="#1" style="opacity:0.75"/><use transform="matrix(0.875 0 0 1.25 -6.875 11.625)" xlink:href="#1" style="opacity:0.75"/><use transform="matrix(0.875 0 0 1.25 4.063 11.625)" xlink:href="#1" style="opacity:0.75;stroke:#ff4500"/><use transform="matrix(0.875 0 0 1.25 15.06 11.625)" xlink:href="#1" style="opacity:0.75"/><use transform="matrix(0.875 0 0 1.25 26.06 11.625)" xlink:href="#1" style="opacity:0.929"/><use transform="matrix(0.875 0 0 1.25 26.06 24.625)" xlink:href="#1" style="opacity:0.75"/><use transform="matrix(0.875 0 0 1.25 15.06 24.625)" xlink:href="#1" style="opacity:0.75;stroke:#ff4500"/><use transform="matrix(0.875 0 0 1.25 4.063 24.625)" xlink:href="#1" style="opacity:0.75"/><use transform="matrix(0.875 0 0 1.25 -6.937 24.625)" xlink:href="#1" style="opacity:0.75"/><path d="m 44.15 8.299 c 0.835 1.37 -0.42 3.752 -2.155 4.701 l -2.75 -5.338 c 1.735 -0.949 4.07 -0.732 4.905 0.637 z" style="opacity:0.75"/><path transform="matrix(0.49231 0 0 0.5 14.992 5)" d="m 31.5 13 c 0 1.105 -0.909 2 -2.031 2 -1.122 0 -2.031 -0.895 -2.031 -2 0 -1.105 0.909 -2 2.031 -2 1.122 0 2.031 0.895 2.031 2 z" style="stroke-linecap:square;stroke-width:2.02"/></g></g></svg>