<svg xmlns="http://www.w3.org/2000/svg" viewBox="0 0 256 256"><g transform="translate(0 -796.36)" style="fill:#d3d3d3;color:#000"><path d="m 8.279 889.18 c -47.8 133.41 123.97 198.28 188.51 143.97 64.53 -54.31 86.58 -147.39 13.487 -194.22 -73.09 -46.832 -154.2 -83.16 -202 50.27 z" style="fill:#fff"/><g transform="matrix(7.98364 0 0 8.59293 -1063.58 -3702.97)" style="fill:#ff4500"><path d="m 145.47 530 c -0.49 0 -0.796 0.229 -1.031 0.47 -0.235 0.241 -0.438 0.56 -0.438 1.033 v 0.497 h -2 v 14 h 7 v -2 l -4.951 0.049 l -0.05 -10.05 h 2 c 0 -0.665 0 -2 0 -2 h 3 v 2 h 2 v 1 h 2 v -3 h -2 v -0.372 v -0.031 c -0.024 -0.431 -0.17 -0.754 -0.406 -1.033 -0.224 -0.265 -0.627 -0.53 -1.156 -0.532 v -0.031 h -0.063 h -3.906 z" style="color:#bebebe"/><path d="m 148 540 h 2 c 0.276 -1.104 1.065 -3.724 3 -4 h 3 v 2 h 2 v 2 h -2 v 2 h 2 v 2 h -2 v 2 h -3 c -1.935 -0.276 -2.724 -2.897 -3 -4 h -2 z" style="fill-rule:evenodd"/></g></g></svg>