<svg xmlns="http://www.w3.org/2000/svg" xmlns:xlink="http://www.w3.org/1999/xlink" viewBox="0 0 256 256"><defs><path d="m 170.61 507.27 c -1.477 0 -2.674 -1.128 -2.674 -2.519 0 -0.084 0.004 -0.167 0.013 -0.25" id="0" style="fill:none;stroke:#5c3a01;stroke-linecap:round"/><path d="m 170.61 507.27 c -1.477 0 -2.674 -1.128 -2.674 -2.519 0 -1.391 1.197 -2.519 2.674 -2.519" id="1" style="fill:none;stroke-linecap:round"/><clipPath><path transform="matrix(15.33333 0 0 11.5 415 -125.5)" d="m -24 13 c 0 1.105 -0.672 2 -1.5 2 -0.828 0 -1.5 -0.895 -1.5 -2 0 -1.105 0.672 -2 1.5 -2 0.828 0 1.5 0.895 1.5 2 z"/></clipPath><filter height="1.254" y="-0.127" width="1.138" x="-0.069" id="2" style="color-interpolation-filters:sRGB"><feGaussianBlur stdDeviation="1.1205"/></filter><linearGradient gradientUnits="userSpaceOnUse" y2="48" x2="0" y1="0" id="6" xlink:href="#3"/><linearGradient gradientTransform="matrix(0.95865 0 0 1 6.807 -0.394)" gradientUnits="userSpaceOnUse" y2="484.58" x2="199.08" y1="491.69" x1="197.72" id="5" xlink:href="#3"/><linearGradient gradientUnits="userSpaceOnUse" y2="481.71" x2="196.78" y1="487.27" x1="199.03" id="4"><stop style="stop-color:#8f5902"/><stop offset="1" style="stop-color:#d28302"/></linearGradient><linearGradient id="3"><stop style="stop-color:#ff4500"/><stop offset="1" style="stop-color:#ff4500;stop-opacity:0"/></linearGradient><linearGradient gradientUnits="userSpaceOnUse" x2="208.82" x1="180.01" id="7"><stop style="stop-color:#f5dfbc"/><stop offset="1" style="stop-color:#f5dfbc;stop-opacity:0"/></linearGradient></defs><path d="m 46.627 38.6 c -200.11 265.25 350.59 302.94 173.86 32.17 -40.29 -61.728 -120.86 -102.43 -173.86 -32.17 z" style="fill:#fff;color:#000"/><g transform="matrix(3.21851 0 0 3.23883 -474.73 -1449.08)" style="fill:#ff4500"><path transform="matrix(0.95127 0 0 1 8.971 1.5)" d="m 169.7,485.62 h 34.891 l 2,21.21 H 167.7 l 2,-21.21 z" style="filter:url(#2)"/><path d="m 168.63,468.99 33.375,0.375 3,32 c 0,0 -36.544,5.872 -39.04,4.309 -0.75,-2.438 2.669,-36.684 2.669,-36.684 z"/><path d="m 168.96,469.34 1.025,0.002 -1.958,33.435 -0.381,3.726 -2.149,-2.594 c 0,0 3.464,-34.569 3.464,-34.569 z"/><path d="m 169.73 501.96 c -1.875 0.282 -2.234 1.265 -2.234 2.445 0 1.18 0.359 2.143 2.234 2.425 l 35.829 0.119 v -0.02 c -2.402 0 -3.321 -1.125 -3.321 -2.524 0 -1.399 0.919 -2.544 3.321 -2.544 h -34.741 l -1.088 0.1 z"/><use xlink:href="#1" transform="matrix(0.93401 0 0 0.99123 45.655 4.04)" width="1" height="1" style="stroke:#3465a4;stroke-width:1.039"/><rect transform="scale(-1 -1)" width="7.313" height="1" x="-203" y="-505.36" rx="0.5"/><g style="stroke:#ff4500;stroke-linecap:round"><path d="m 168.44,468.86 -2.956,34.62"/><path d="m 168.44 468.86 h 34"/><path d="m 169.72,501.86 35.708,0.044"/></g><path d="m 169,501.36218 -2,1 2,-1 z"/><use xlink:href="#1" transform="matrix(0.93401 0 0 0.99123 10.655 4.04)" width="1" height="1" style="stroke:#d48e20;stroke-width:1.039"/><use xlink:href="#0" transform="matrix(1.30801 0 0 1.3882 -54.16 -197.33)" width="1" height="1" style="stroke-width:0.742"/><g style="fill:#dc143c;stroke:#dc143c;stroke-linecap:round"><path d="m 168.96 506.89 h 36"/><path d="m 202.48,468.85 2.957,33.07"/></g><path d="m 202.64,479.91 c 0.909,-0.023 1.988,0.78 2.072,1.763 0,0 0.82,7.186 0.82,7.186 0,1.393 -1.99,1.418 -1.99,-0.193 0,0 -0.025,-0.296 -0.025,-0.296 -0.022,-0.715 -0.967,-1.482 -1.986,-1.482 h -7.865 c -1.768,0 -3.191,-1.407 -3.191,-3.156 0,-2.178 1.248,-3.822 2.942,-3.822 h 8.223 1 z" style="stroke:url(#4)"/><path d="m 191.55 484.34 c 0 0 0.539 1.563 1.738 1.5 l 8.116 0.031 c 0 0 3.116 -0.004 3.116 2.969" style="stroke:url(#5);stroke-linecap:round"/><g transform="scale(-1 -1)"><rect rx="0.5" y="-504.36" x="-191" height="1" width="13.813"/><rect width="6.125" height="1" x="-174.31" y="-505.36" rx="0.5"/></g><g style="stroke-linecap:round"><path d="m 169.72,500.86 34.708,0.044" style="stroke:url(#7)"/><path d="m 168.02 504.14 c 0.298 -1.121 1.367 -1.908 2.594 -1.908" transform="matrix(1.30805 0 0 1.3882 -53.16 -196.33)" style="stroke:#f5dfbc;stroke-width:0.742"/></g><path d="m 168.63,468.99 14.375,0.375 -10,32 c 0,0 -4.544,5.872 -7.04,4.309 -0.75,-2.438 2.669,-36.684 2.669,-36.684 z" style="opacity:0.671"/><rect transform="scale(-1 1)" width="4.01" height="2.983" x="-197.03" y="481.4" rx="1.507" ry="1.492"/><g style="fill:#ffdead"><rect ry="1.492" rx="1.507" y="480.4" x="193.02" height="2.983" width="4.01"/><g transform="matrix(0.57716 0 0 0.5286 211.91 490.07)"><path transform="matrix(1.72549 0 0 1.72549 18.863 -17.412)" d="m -37.03 11.25 c -0.906 0 -1.719 0.813 -1.719 1.719 v 22.06 c 0 0.906 0.813 1.719 1.719 1.719 h 7.06 c 0.906 0 1.719 -0.813 1.719 -1.719 v -22.06 c 0 -0.906 -0.813 -1.719 -1.719 -1.719 h -7.06 z m 15 0 c -0.906 0 -1.719 0.813 -1.719 1.719 v 22.06 c 0 0.906 0.813 1.719 1.719 1.719 h 7.06 c 0.906 0 1.719 -0.813 1.719 -1.719 v -22.06 c 0 -0.906 -0.813 -1.719 -1.719 -1.719 h -7.06 z" style="opacity:0.3;fill-rule:evenodd"/><g style="stroke-linecap:round;stroke-dashoffset:0.7"><g style="fill:#dc143c;stroke:#dc143c;fill-rule:evenodd;stroke-linejoin:round"><rect rx="0.477" y="3.5" x="-46.5" height="41" width="15"/><rect width="15" height="41" x="-20.5" y="3.5" rx="0.477"/></g><g style="stroke:url(#6)"><path d="m -45.5 4.5 h 13 v 39 h -13 z"/><path d="m -19.5 4.5 h 13 v 39 h -13 z"/></g></g></g></g></g></svg>