<svg xmlns="http://www.w3.org/2000/svg" viewBox="0 0 256 256" xmlns:xlink="http://www.w3.org/1999/xlink"><defs><path id="0" d="m 127.97 916.2 c -6.618 -0.072 -12.565 5.892 -11.754 12.447 0.229 6.827 7.486 12.464 14.325 10.497 7.446 -1.101 11.579 -10.08 8.08 -16.424 -1.937 -3.897 -6.186 -6.628 -10.654 -6.52 z m -0.106 6.232 c 4.275 -0.181 7.387 5.104 4.624 8.46 -2.507 4.148 -10.01 2.297 -10.07 -2.649 -0.128 -2.8 2.434 -5.965 5.449 -5.811 z"/></defs><g transform="translate(0 -796.36)"><g style="color:#000"><path d="m 209.66 836.31 c 198.16 261.53 -347.18 298.69 -172.17 31.719 39.897 -60.862 119.68 -100.99 172.17 -31.719 z" style="fill:#fff"/><path d="m 184.36 865.54 c 140.02 180.03 -245.31 205.61 -121.65 21.834 28.19 -41.896 84.57 -69.52 121.65 -21.834 z" style="fill:#ffe4b5"/><path d="m 128 883.83 c -25.599 0 -46.36 20.232 -46.36 45.18 0 24.95 20.758 45.18 46.36 45.18 25.599 0 46.36 -20.232 46.36 -45.18 0 -24.95 -20.758 -45.18 -46.36 -45.18 z m 0 37.578 c 4.314 0 7.801 3.399 7.801 7.603 0 4.204 -3.487 7.603 -7.801 7.603 -4.314 0 -7.801 -3.399 -7.801 -7.603 0 -4.204 3.487 -7.603 7.801 -7.603 z" style="fill:#f00"/><path d="m 128 907.19 c -11.656 0 -21.11 9.253 -21.11 20.663 0 11.41 9.452 20.663 21.11 20.663 11.656 0 21.11 -9.253 21.11 -20.663 0 -11.41 -9.452 -20.663 -21.11 -20.663 z m 0 12.11 c 4.83 0 8.735 3.822 8.735 8.55 0 4.728 -3.905 8.55 -8.735 8.55 -4.83 0 -8.735 -3.822 -8.735 -8.55 0 -4.728 3.905 -8.55 8.735 -8.55 z" style="fill:none;stroke:#f00;stroke-width:0.855"/></g><g style="fill-opacity:0"><path d="m 127.17 904.2 c -13.04 -0.085 -24.501 12.04 -23.313 24.778 -0.001 13.05 13.463 24.373 26.655 22.389 12.665 -0.81 22.887 -12.907 21.727 -25.21 c -0.721 -12.312 -12.391 -22.806 -25.07 -21.957 z m 0.969 6.215 c 9.76 -0.056 18.774 8.969 17.516 18.662 -0.273 9.03 -9.09 16.768 -18.252 16.02 -10.166 0.325 -18.715 -9.899 -17.04 -19.606 1.122 -8.378 9.09 -15.269 17.773 -15.07 z" style="fill:#320000"/><g style="fill:#3c0000"><use xlink:href="#0"/><use xlink:href="#0"/></g><use xlink:href="#0" style="fill:#fff"/></g><path d="m 127.17 904.2 c -13.04 -0.085 -24.501 12.04 -23.313 24.778 -0.001 13.05 13.463 24.373 26.655 22.389 12.665 -0.81 22.887 -12.907 21.727 -25.21 c -0.721 -12.312 -12.391 -22.806 -25.07 -21.957 z m 0.969 6.215 c 9.76 -0.056 18.774 8.969 17.516 18.662 -0.273 9.03 -9.09 16.768 -18.252 16.02 -10.166 0.325 -18.715 -9.899 -17.04 -19.606 1.122 -8.378 9.09 -15.269 17.773 -15.07 z" style="fill:#fff"/><path d="m 126.93 903.77 c -11.228 -0.034 -21.18 8.973 -23.278 19.534 -0.633 6.69 0.056 14.03 4.825 19.272 6.169 7.86 17.414 11.796 27.09 8.256 11.82 -3.652 19.886 -16.751 16.554 -28.641 -2.681 -10.512 -13.02 -18.941 -24.285 -18.434 -0.302 0.005 -0.604 0.009 -0.906 0.013 z m 1.209 7.524 c 7.106 -0.732 13.312 4.688 15.926 10.605 1.988 4.612 1 10.174 -1.323 14.517 -5.064 9.06 -19.403 11.09 -26.59 3.38 -5.636 -5.05 -7.05 -13.805 -2.998 -20.2 2.99 -4.997 8.8 -8.921 14.985 -8.298 z" style="fill:#ffdead"/><use xlink:href="#0" style="fill:#900000"/><path d="m 127.71 921.85 c -4.552 0.228 -7.753 6.148 -4.53 9.683 2.818 3.749 10.1 2.42 10.693 -2.452 0.798 -3.695 -2.252 -7.462 -6.163 -7.231 z" style="fill:#fff"/></g></svg>