<svg xmlns="http://www.w3.org/2000/svg" viewBox="0 0 256 256" xmlns:xlink="http://www.w3.org/1999/xlink"><defs><path id="0" d="m 186.79 81.36 c 0 6.904 -5.596 12.5 -12.5 12.5 -6.904 0 -12.5 -5.596 -12.5 -12.5 0 -6.904 5.596 -12.5 12.5 -12.5 6.904 0 12.5 5.596 12.5 12.5 z" style="fill:#ff4500;color:#000"/></defs><g transform="translate(0 -796.36)"><g style="color:#000"><path d="m 202.5 996.5 c -70.04 85.38 -214.56 -23.999 -163.36 -115.99 48.24 -86.67 195.01 -32.02 185.19 62.06 c -2.049 19.628 -8.977 38.26 -21.835 53.931 z" transform="matrix(1.30337 0 0 1.3455 -37 -329.92)" style="fill:#fff"/><path transform="matrix(0.69868 0 0 0.69868 60.44 845.49)" d="m 108.8 86.86 c 0 16.663 -13.508 30.17 -30.17 30.17 -16.663 0 -30.17 -13.508 -30.17 -30.17 0 -16.663 13.508 -30.17 30.17 -30.17 c 16.663 0 30.17 13.508 30.17 30.17 z" style="fill:#ffdead"/><rect width="96.97" height="96.97" x="79.51" y="875.87" rx="5.286" style="fill:none;stroke:#ff4500;stroke-width:8"/></g><g style="fill:#ffdead"><path d="m 167.69 935.52 c -3.599 -0.06 -7 1.385 -9.969 4.813 l -21.19 24.5 h 21.09 c 2.093 -4.858 6.01 -8.792 10.875 -10.875 v -18.375 c -0.271 -0.021 -0.543 -0.058 -0.813 -0.063 z"/><path d="m 100.41 941.52 c -4.181 0.045 -8.568 1.128 -12.906 3 v 9.469 c 4.845 2.087 8.756 5.999 10.844 10.844 h 38.19 c -4.866 -17.08 -25.813 -23.422 -36.12 -23.313 z"/></g><use transform="translate(2.202 794.52)" xlink:href="#0"/><use transform="translate(-94.77 794.52)" xlink:href="#0"/><use transform="translate(2.202 891.49)" xlink:href="#0"/><use transform="translate(-94.77 891.49)" xlink:href="#0"/></g></svg>