<svg xmlns="http://www.w3.org/2000/svg" xmlns:xlink="http://www.w3.org/1999/xlink" viewBox="0 0 256 256"><defs><path id="0" d="m 245.46 129.52 l -97.89 -96.9 c -5.556 -5.502 -16.222 -11.873 -23.7 -14.16 l -39.518 -12.08 c -7.479 -2.286 -18.1 0.391 -23.599 5.948 l -13.441 13.578 c -5.5 5.559 -14.502 14.653 -20 20.21 l -13.44 13.579 c -5.5 5.558 -8.07 16.206 -5.706 23.658 l 12.483 39.39 c 2.363 7.456 8.843 18.06 14.399 23.556 l 97.89 96.9 c 5.558 5.502 14.605 5.455 20.1 -0.101 l 36.26 -36.63 c 5.504 -5.559 14.503 -14.651 20 -20.21 l 36.26 -36.629 c 5.502 -5.56 5.455 -14.606 -0.101 -20.11 z m -178.09 -50.74 c -7.198 0 -13.03 -5.835 -13.03 -13.03 0 -7.197 5.835 -13.03 13.03 -13.03 7.197 0 13.03 5.835 13.03 13.03 -0.001 7.198 -5.836 13.03 -13.03 13.03 z"/><use id="1" xlink:href="#0"/><clipPath id="2"><use xlink:href="#0"/></clipPath><clipPath style="clip-path:url(#2)"><use xlink:href="#1"/></clipPath><clipPath style="clip-path:url(#2)"><use xlink:href="#1"/></clipPath></defs><g transform="translate(0 -796.36)" style="fill:#2c2c2c;color:#000"><path d="m 211.94 1003.24 c -103.59 136.25 -294.03 -46.613 -173.03 -165.93 103.41 -120.34 306.63 51.831 173.03 165.93 z" style="fill:#fff"/><path d="m 108.45 839.86 c -0.268 0.362 -0.531 0.73 -0.794 1.098 -0.342 0.479 -0.67 0.975 -0.994 1.476 -0.422 0.658 -0.834 1.327 -1.245 1.997 -0.499 0.821 -0.989 1.651 -1.472 2.488 -0.557 0.962 -1.09 1.949 -1.619 2.939 -0.576 1.064 -1.117 2.161 -1.639 3.275 -0.541 1.156 -1.03 2.356 -1.488 3.578 -0.421 1.122 -0.757 2.296 -1.049 3.491 -0.244 1 -0.405 2.035 -0.48 3.085 -0.053 0.866 0.009 1.727 0.156 2.571 0.136 0.744 0.414 1.395 0.768 1.982 0.39 0.617 0.889 1.062 1.408 1.452 0.632 0.462 1.317 0.755 2 1.03 0.806 0.297 1.625 0.53 2.446 0.731 0.906 0.204 1.815 0.379 2.717 0.613 0.868 0.208 1.715 0.534 2.543 0.941 0.724 0.355 1.411 0.825 2.065 1.376 0.567 0.466 1.046 1.073 1.461 1.769 0.385 0.681 0.602 1.472 0.752 2.296 0.146 0.93 0.12 1.878 0.06 2.818 -0.088 1.107 -0.295 2.186 -0.506 3.259 -0.254 1.253 -0.562 2.483 -0.877 3.708 -0.342 1.331 -0.707 2.649 -1.04 3.985 -0.326 1.292 -0.59 2.611 -0.791 3.95 -0.177 1.207 -0.24 2.431 -0.219 3.659 0.024 1.094 0.231 2.134 0.55 3.131 0.334 1.01 0.869 1.79 1.492 2.473 0.845 0.85 1.844 1.305 2.842 1.696 1.424 0.496 2.887 0.723 4.347 0.917 1.916 0.226 3.841 0.268 5.763 0.305 0.794 -0.015 4.571 0.075 0.364 0.014 -0.376 -0.005 0.753 -0.004 1.129 -0.007 0.864 -0.007 1.411 -0.014 2.275 -0.023 3.247 -0.042 6.494 -0.082 9.74 -0.001 2.139 0.063 4.275 0.23 6.408 0.466 1.916 0.211 3.819 0.573 5.713 1.013 1.66 0.388 3.294 0.934 4.903 1.604 1.378 0.571 2.697 1.351 3.975 2.249 1.108 0.775 2.107 1.781 3.05 2.88 0.848 0.985 1.541 2.165 2.17 3.409 0.609 1.226 1.066 2.567 1.487 3.926 0.416 1.362 0.721 2.785 1.017 4.207 0.292 1.42 0.611 2.829 0.968 4.222 0.248 0.911 0.121 0.458 0.383 1.359 0 0 -3 0.153 -3 0.153 c -0.262 -0.912 -0.134 -0.455 -0.383 -1.376 -0.355 -1.401 -0.675 -2.818 -0.968 -4.245 -0.293 -1.405 -0.6 -2.807 -1.016 -4.155 -0.418 -1.333 -0.874 -2.646 -1.483 -3.841 -0.629 -1.209 -1.321 -2.353 -2.162 -3.304 -0.941 -1.068 -1.939 -2.04 -3.039 -2.788 -1.276 -0.87 -2.592 -1.623 -3.962 -2.178 -1.607 -0.648 -3.238 -1.178 -4.892 -1.555 -1.891 -0.428 -3.791 -0.778 -5.703 -0.979 -2.13 -0.225 -4.264 -0.387 -6.4 -0.441 -2.101 -0.045 -0.875 -0.008 0.689 -0.034 0.378 -0.007 -0.757 -0.003 -1.135 -0.001 -0.863 0.003 -1.418 0.014 -2.281 0.024 -0.381 0.005 -0.761 0.01 -1.142 0.015 -3.214 0.038 -6.428 0.064 -9.642 0.015 -1.928 -0.041 -3.858 -0.09 -5.779 -0.336 -1.468 -0.207 -2.941 -0.449 -4.366 -0.991 -1.016 -0.43 -2.027 -0.936 -2.865 -1.859 -0.632 -0.749 -1.168 -1.607 -1.503 -2.667 -0.319 -1.05 -0.527 -2.144 -0.551 -3.286 -0.02 -1.258 0.042 -2.514 0.222 -3.751 0.201 -1.356 0.465 -2.691 0.794 -4 0.331 -1.337 0.696 -2.657 1.039 -3.989 0.313 -1.216 0.62 -2.436 0.873 -3.679 0.207 -1.049 0.411 -2.106 0.501 -3.188 0.057 -0.893 0.086 -1.796 -0.062 -2.679 -0.149 -0.767 -0.367 -1.497 -0.746 -2.112 -0.418 -0.65 -0.898 -1.203 -1.45 -1.634 -0.654 -0.516 -1.338 -0.96 -2.055 -1.292 -0.828 -0.38 -1.673 -0.678 -2.535 -0.88 -0.904 -0.221 -1.814 -0.392 -2.719 -0.613 -0.824 -0.217 -1.648 -0.452 -2.453 -0.775 -0.693 -0.296 -1.383 -0.621 -2.01 -1.124 -0.53 -0.439 -1.035 -0.934 -1.42 -1.608 -0.355 -0.652 -0.637 -1.362 -0.773 -2.161 -0.145 -0.888 -0.209 -1.792 -0.154 -2.702 0.075 -1.081 0.236 -2.144 0.485 -3.177 0.294 -1.215 0.631 -2.409 1.054 -3.552 0.457 -1.235 0.947 -2.447 1.489 -3.617 0.521 -1.124 1.061 -2.231 1.639 -3.301 0.53 -0.993 1.06 -1.988 1.617 -2.954 0.482 -0.843 0.972 -1.677 1.47 -2.502 0.41 -0.673 0.821 -1.346 1.241 -2.01 0.322 -0.509 0.651 -1.01 0.992 -1.498 0.261 -0.373 0.527 -0.74 0.793 -1.106 0 0 3.01 0.323 3.01 0.323 z" style="fill:#ff4500"/><path d="m 92.57 873.58 c -1.01 14.375 -25.21 21.355 -29.25 34.14 22.977 16.1 -41.33 12.976 -5.92 6.22 22.737 -12.676 46.49 -57.975 75.13 -31.844 -7.237 24.608 -38.923 41.979 -53.987 59.727 -14.12 0.056 -38.785 -6.489 -10.732 -12.972 32.653 -5.744 54.06 -36.714 84.88 -38.12 32.788 3.415 -12.196 26.25 -17.734 40.818 -12.604 19.16 -61.686 13.382 -26.615 -6.747 16.765 -23.906 92.62 -29.714 50.38 9.205 -5.05 14.307 -48.01 25.24 -37.11 6.531 29.386 -10.886 46.945 -0.224 28.943 20.545 -12.16 11.919 -47.911 -5.303 -16.655 -6.907 -14.698 32.06 54.16 -15.494 29.717 15.473 -11.835 9.457 -59.31 -0.425 -23.695 5.363 -18.459 12.461 -15.806 -13.492 -18.316 -11.483 10.79 -17.03 58.935 -2.282 19.773 4.183 -34.952 8.785 -24.04 -38.22 5.917 -25.659 -7.725 16.774 -57.912 7.264 -22.955 -5.27 10.53 -14.756 -7.545 -19.597 15.941 -21.948 16.663 -10.282 44.1 -3.061 13.655 9.403 -18.13 9.978 -40.07 33.17 -63 11.449 18.237 -14.836 47.568 -59.964 76.78 -38.916 -22.474 16.922 -54.06 26.11 -78.59 43.24 -24.12 13.621 -48.52 1.103 -22.543 -16.611 -0.685 -12.653 30.696 -33.789 42.38 -45.27 28.399 3.059 -7.95 32.467 -18.18 38.05 -17.24 -0.311 -18.594 3.144 -14.683 3.384 -13.621 20.03 -59.979 -5.408 -32.809 -30.18 7.612 -19.751 32.08 -19.883 49.3 -15.8 z" style="fill:#ffdead"/><path d="m 201.94 916.41 c -13.392 -8.759 -55.48 -44.717 -20.482 -15.794 32.525 19.323 9.359 70.17 -20.566 33.783 -18.668 -5.392 -30.13 -62.893 -9.87 -28.06 7.973 20.39 54.674 69.818 12.175 71.949 -28.631 -4.03 -40.18 -70.27 -3.955 -39.509 33.612 27.22 -13.621 81.44 -30.13 31.85 -9.129 -31.664 27.06 -3.982 4.02 6.156 -22.444 6.652 -26.855 -37.692 -20.984 -8.403 -7.237 39.632 -27.967 -38.23 6.54 -15.08 11.201 23.08 -28.594 14.746 -8.01 -3.721 17.375 -19.934 31.867 23 13.366 3.713 17.242 -39.829 62.62 35.762 23.918 23.03 -28.97 -18.631 -9.799 -76.67 20.17 -36.27 16.691 9.764 16.255 56.688 -3.454 25.511 -10.903 -19.543 -52.788 -75.2 -15.14 -79.01 27.759 -3.739 58.878 70.38 19.07 40.701 -35.691 -18.333 -13.625 -91.24 24.21 -57.47 10.581 12.288 16.04 31.3 9.118 46.632 z" style="fill:#ff4500"/></g></svg>