<svg xmlns="http://www.w3.org/2000/svg" viewBox="0 0 256 256"><defs><clipPath><path d="m27.643 3.295l13.09 13.09h-11.07c-.978 0-2.01-1.035-2.01-2.01v-11.07"/></clipPath><clipPath><path d="m47.41 6.348v-1.75c0-2.054-1.664-3.719-3.719-3.719h-39.37c-2.054 0-3.719 1.664-3.719 3.719v1.75" transform="matrix(0.99561 0 0 0.99561 0.105 0.016)"/></clipPath></defs><g transform="translate(1774.03 -1727.32)"><path d="m-1583.78 1962.12c-329.42 135.66-174.65-434.9 40.478-157.85 37.47 49.706 40.36 133.17-40.478 157.85" style="fill:#fff;color:#000"/><g transform="translate(-4.339)"><path d="m -1633.5 1932.64 c -5.238 -3.365 -9.688 -3.876 -13.715 -1.574 -3.374 1.929 -10.06 1.86 -15.1 -0.155 -3.581 -1.433 -6.934 -1.571 -24.97 -1.03 -22.673 0.68 -25.16 0.289 -29.826 -4.694 l -2.392 -2.553 l 0.496 -57.6 c 0.48 -55.668 0.563 -57.69 2.5 -60.28 l 2 -2.684 l 65.961 -0.257 l 65.961 -0.257 l 2.167 2.307 c 2.146 2.284 2.177 2.872 3.148 59.53 0.553 32.24 0.604 58.21 0.118 59.49 -1.203 3.165 -2.919 4.385 -10.151 7.219 -7.04 2.76 -13.173 3.111 -16.92 0.969 -3.794 -2.169 -7.093 -1.785 -10.194 1.186 -2.225 2.131 -3.991 2.766 -8.555 3.074 -5.073 0.342 -6.315 0.025 -10.536 -2.686 z" style="fill:#fe0707"/><path d="m -1626.72 1933.72 c -1.1 -0.358 -3.182 -1.453 -4.627 -2.435 -5.02 -3.408 -8.627 -3.819 -14.72 -1.678 -6.02 2.116 -10.836 1.879 -15 -0.738 -1.976 -1.241 -5.787 -1.366 -24 -0.785 -20.2 0.644 -21.954 0.558 -26.16 -1.275 -7.617 -3.316 -7.373 -2.19 -6.6 -30.477 0.379 -13.843 0.896 -25.378 1.151 -25.632 0.469 -0.469 0.829 4.985 0.53 8.03 -0.09 0.914 0.33 1.966 0.933 2.339 0.775 0.479 0.786 1.052 0.035 1.956 -0.769 0.927 -0.632 1.634 0.499 2.573 1.154 0.958 1.249 1.486 0.367 2.032 -2.514 1.554 -0.051 3.939 4.067 3.939 4.844 0 5.309 -1.468 0.781 -2.468 -3.539 -0.782 -3.255 -0.999 2.75 -2.103 l 4 -0.736 l -4 -1.233 c -3.351 -1.033 -3.676 -1.348 -2 -1.942 5.059 -1.795 5.079 -1.81 3 -2.27 -3.907 -0.864 -3.631 -2.051 0.654 -2.817 l 4.346 -0.777 l -4 -1.213 c -4.071 -1.235 -3.844 -1.578 2 -3.01 2.978 -0.729 2.967 -0.742 -1.5 -1.759 l -4.5 -1.024 l 4.818 -1.09 c 4.568 -1.033 5.471 -2.56 1.515 -2.56 -3.892 0 -1.603 -2.01 2.417 -2.118 3.989 -0.111 4.065 -0.165 1.25 -0.882 -1.65 -0.42 -5.313 -0.817 -8.139 -0.882 -3.446 -0.079 -5.917 -0.751 -7.5 -2.039 l -2.361 -1.921 l 0.181 -25.15 c 0.152 -21.1 0.437 -25.54 1.773 -27.579 l 1.592 -2.43 h 64.822 c 62.935 0 64.873 0.057 66.58 1.945 1.546 1.709 1.825 4.954 2.3 26.776 l 0.54 24.832 l -2.395 2.667 c -1.468 1.635 -4.136 3.035 -6.895 3.617 l -4.5 0.95 l 4.285 0.107 c 2.357 0.059 5.339 -0.583 6.627 -1.427 2.245 -1.471 2.364 -1.419 2.877 1.25 0.295 1.531 0.592 15.45 0.662 30.931 l 0.126 28.15 l -2.622 2.062 c -7.355 5.785 -17.969 7.176 -23.275 3.05 -2.611 -2.031 -6.06 -1.285 -9.68 2.094 -3.67 3.426 -8.531 4.604 -13 3.15 z m -83.77 -20.755 c -0.332 -0.332 -1.195 -0.368 -1.917 -0.079 -0.798 0.319 -0.561 0.556 0.604 0.604 1.054 0.043 1.645 -0.193 1.313 -0.525 z m 60.726 -0.324 c 0.315 -0.51 -0.313 -1.209 -1.397 -1.553 -2.558 -0.812 -9.206 0.434 -8.49 1.591 0.73 1.181 9.154 1.149 9.888 -0.038 z m 5.522 -6.01 c -0.012 -0.857 -0.862 -2.652 -1.889 -3.987 -1.51 -1.965 -2.985 -2.508 -7.728 -2.848 -4.897 -0.351 -6.314 -0.062 -8.611 1.751 -1.812 1.43 -2.75 3.112 -2.75 4.931 0 3.361 0.898 4.423 2.569 3.037 0.84 -0.697 1.459 -0.707 1.878 -0.029 0.388 0.628 1.993 0.243 4.239 -1.018 2.879 -1.617 3.778 -1.763 4.425 -0.718 0.632 1.023 1.121 0.887 2.219 -0.613 1.389 -1.9 1.421 -1.9 2.404 0 0.548 1.062 0.804 2.605 0.569 3.43 -0.273 0.959 0.136 0.8 1.135 -0.441 0.86 -1.068 1.553 -2.643 1.541 -3.5 z m -65.48 1.941 c -0.34 -0.55 -1.604 -0.993 -2.809 -0.985 -1.781 0.013 -1.91 0.197 -0.691 0.985 1.97 1.273 4.287 1.273 3.5 0 z m 0.448 -3.947 c 1.133 -0.717 0.851 -1.066 -1.296 -1.605 -3.151 -0.791 -4.803 0.211 -2.622 1.591 1.822 1.152 2.118 1.153 3.919 0.014 z m 116.9 -0.937 c 0.991 -0.628 0.645 -1.028 -1.31 -1.519 -3.24 -0.813 -9.728 0.28 -8.967 1.512 0.699 1.132 8.494 1.137 10.277 0.01 z m -12.516 -2.78 c 0.364 -0.364 2.086 -0.819 3.825 -1.01 1.739 -0.19 3.8 -0.876 4.58 -1.523 1.096 -0.91 1.601 -0.88 2.225 0.129 0.629 1.018 1.024 0.918 1.792 -0.455 1.2 -2.145 3.248 -1.111 3.248 1.638 0 1.1 0.45 1.722 1 1.382 1.485 -0.918 1.21 -5.755 -0.463 -8.144 -3.03 -4.319 -14.377 -3.791 -17.826 0.829 -2.652 3.552 -1.2 9.97 1.618 7.152 z m 1.483 -4.02 c 0.722 -0.289 1.584 -0.253 1.917 0.079 0.332 0.332 -0.258 0.569 -1.313 0.525 -1.165 -0.048 -1.402 -0.285 -0.604 -0.604 z m -106.25 2.151 c -1.068 -0.807 -2.81 -1.468 -3.872 -1.468 -1.603 0 -1.72 0.255 -0.686 1.5 0.685 0.825 2.427 1.486 3.872 1.468 2.526 -0.031 2.553 -0.088 0.687 -1.5 z m 2.227 -3.314 c 0.868 -0.551 -0.058 -1.218 -2.847 -2.054 -4.584 -1.373 -5.869 -0.926 -3.958 1.376 1.369 1.65 4.744 1.986 6.806 0.678 z m 87.65 -12.05 c 0.304 -0.491 -0.526 -1.164 -1.843 -1.495 -2.998 -0.753 -8.745 0.33 -8.02 1.51 0.712 1.152 9.145 1.139 9.859 -0.015 z m 5.535 -6.107 c 0 -3.276 -0.814 -4.385 -4.67 -6.361 -7.35 -3.765 -16.3 0.208 -16.3 7.236 0 1.104 0.365 2.232 0.81 2.508 1.029 0.636 9.285 -1.36 10.928 -2.642 0.862 -0.673 1.445 -0.428 1.918 0.807 0.608 1.583 0.769 1.533 1.511 -0.471 1.101 -2.977 3.248 -2.143 3.666 1.425 0.25 2.138 0.558 2.492 1.235 1.423 0.496 -0.783 0.901 -2.549 0.901 -3.924 z m 31.03 -10.607 c 0 -0.216 -0.675 -0.393 -1.5 -0.393 -0.825 0 -1.5 0.436 -1.5 0.969 0 0.533 0.675 0.71 1.5 0.393 0.825 -0.317 1.5 -0.752 1.5 -0.969 z m -90.09 -13.12 c 4.105 -3.05 4.909 -4.137 4.442 -6 -0.7 -2.788 2.028 -3.201 3.521 -0.533 1.598 2.856 2.35 0.733 1.203 -3.398 -1.644 -5.919 -1.278 -10.38 1.299 -15.844 4.137 -8.773 10.257 -12.256 18.373 -10.459 9.312 2.062 15.784 16.39 12.134 26.861 -1.284 3.682 -0.329 5.427 1.558 2.847 1.871 -2.559 3.895 -2.227 3.204 0.526 -0.467 1.863 0.337 2.95 4.442 6 l 5.01 3.725 h 12.06 c 11.1 0 11.998 -0.139 11.321 -1.75 -2.325 -5.531 -0.783 -10.424 3.84 -12.181 1.928 -0.733 2.167 -1.438 1.847 -5.455 -0.289 -3.632 -0.748 -4.614 -2.159 -4.614 -0.986 0 -2.051 0.675 -2.368 1.5 -0.317 0.825 -1.04 1.5 -1.607 1.5 -0.567 0 -1.031 -0.675 -1.031 -1.5 0 -0.825 0.675 -1.5 1.5 -1.5 0.825 0 1.5 -0.653 1.5 -1.45 0 -0.798 0.787 -1.909 1.75 -2.47 1.551 -0.903 1.485 -1.023 -0.577 -1.05 -1.28 -0.017 -3.642 -1.346 -5.25 -2.954 -2.437 -2.437 -2.918 -3.725 -2.891 -7.75 0.018 -2.655 0.693 -5.7 1.5 -6.768 0.807 -1.068 1.468 -2.305 1.468 -2.75 0 -0.445 -22.987 -0.809 -51.08 -0.809 -28.1 0 -50.91 0.338 -50.697 0.75 3.109 6.04 3.598 8.126 2.769 11.815 -0.985 4.385 -4.937 8.418 -8.294 8.465 -1.971 0.027 -2.02 0.134 -0.444 1.05 0.963 0.561 1.75 1.672 1.75 2.47 0 0.798 0.675 1.45 1.5 1.45 0.825 0 1.5 0.675 1.5 1.5 0 0.825 -0.464 1.5 -1.031 1.5 -0.567 0 -1.29 -0.675 -1.607 -1.5 -0.317 -0.825 -1.427 -1.5 -2.469 -1.5 -1.605 0 -1.893 0.761 -1.893 5 0 3.665 0.381 5 1.427 5 0.785 0 2.396 1.231 3.579 2.735 2.104 2.675 2.259 5.467 0.528 9.515 -0.689 1.611 0.207 1.75 11.308 1.75 h 12.06 l 5.01 -3.725 z m -15.989 -13.198 c -7.133 -7.133 0.334 -17.777 10.501 -14.97 7.226 1.995 9.239 10.124 3.727 15.05 -4.475 3.998 -10.182 3.966 -14.228 -0.08 z m 12.04 -3.529 c 1.418 -1.709 1.047 -4.713 -0.651 -5.279 -0.999 -0.333 -4.309 4.415 -4.309 6.181 0 1.169 3.817 0.475 4.96 -0.902 z m -7.96 -3.107 c 0 -2.118 -0.405 -3.309 -1 -2.941 -1.658 1.025 -1.096 6.5 0.667 6.5 0.183 0 0.333 -1.602 0.333 -3.559 z m 64.56 7.428 c -3.916 -3.08 -4.85 -6.24 -3.09 -10.453 0.994 -2.379 2.585 -3.959 5 -4.969 4.343 -1.815 8.091 -1.061 11.778 2.369 8.573 7.976 -4.408 20.353 -13.69 13.05 z m -76.56 -11.869 c 0 -0.55 0.675 -1 1.5 -1 0.825 0 1.5 0.45 1.5 1 0 0.55 -0.675 1 -1.5 1 -0.825 0 -1.5 -0.45 -1.5 -1 z m 95.5 0 c 0.34 -0.55 1.042 -1 1.559 -1 0.518 0 0.941 0.45 0.941 1 0 0.55 -0.702 1 -1.559 1 -0.858 0 -1.281 -0.45 -0.941 -1 z m -79.18 -16.618 c -0.817 -2.128 1.169 -3.813 3.367 -2.856 0.999 0.435 2.042 0.758 2.317 0.717 0.275 -0.041 3.2 -0.295 6.5 -0.564 5.961 -0.486 8.5 0.356 8.5 2.822 0 2.01 -19.909 1.899 -20.684 -0.119 z m 23.758 0.207 c -1.387 -1.671 -0.787 -2.108 4.098 -2.988 3.885 -0.7 5.228 0.193 4.224 2.809 -0.772 2.01 -6.696 2.139 -8.322 0.179 z m 11.926 -0.53 c 0 -2.409 1.813 -3.646 3.245 -2.214 0.761 0.761 0.7 1.517 -0.209 2.613 -1.748 2.106 -3.035 1.937 -3.035 -0.399 z m 5.388 0.759 c -0.337 -0.546 -0.167 -1.438 0.378 -1.983 1.097 -1.097 17.15 -1.963 18.733 -1.01 0.549 0.33 1.899 0.618 3 0.638 1.101 0.021 2 0.712 2 1.537 0 1.239 -2.041 1.527 -11.75 1.655 -6.869 0.091 -12 -0.257 -12.363 -0.837 z m -14.388 30.741 c 0 -0.243 -0.45 -0.719 -1 -1.059 -0.55 -0.34 -1 -0.141 -1 0.441 0 0.582 0.45 1.059 1 1.059 0.55 0 1 -0.198 1 -0.441 z m 13.809 -3.33 c 0.258 -2.602 -0.188 -3.374 -2.7 -4.673 -1.655 -0.856 -3.652 -1.556 -4.437 -1.556 -2.514 0 -3.948 -2.615 -2.706 -4.936 1.371 -2.562 -0.01 -2.738 -3.501 -0.449 -3.529 2.312 -3.38 6.873 0.285 8.719 1.513 0.762 3.989 1.682 5.504 2.046 1.515 0.363 3.311 1.553 3.992 2.643 1.691 2.708 3.191 1.954 3.563 -1.793 z m -0.359 -11.1 c -1.505 -1.379 -6.45 -2.284 -6.45 -1.18 0 1.562 5.362 4.04 6.45 2.976 0.6 -0.584 0.6 -1.246 0 -1.796 z m -61.95 -12.13 c 0 -2.578 -0.506 -4.502 -1.25 -4.75 -0.892 -0.297 -1.25 1.061 -1.25 4.75 0 3.689 0.358 5.05 1.25 4.75 0.744 -0.248 1.25 -2.172 1.25 -4.75 z m 111.5 0 c 0 -3.778 -0.367 -5 -1.5 -5 -1.103 0 -1.5 1.148 -1.5 4.333 0 2.383 0.3 4.633 0.667 5 1.626 1.626 2.333 0.313 2.333 -4.333 z" style="fill:#ed0000"/><path d="m -1632.72 1930.52 c -4.474 -3.226 -9.457 -3.762 -13.5 -1.451 -3.477 1.988 -11.986 1.899 -14.92 -0.156 -2.026 -1.419 -5.03 -1.625 -20.973 -1.437 -14.565 0.172 -19.368 -0.102 -22.11 -1.26 l -3.5 -1.479 l 2.75 -0.692 c 3.184 -0.801 3.692 -2.475 0.75 -2.475 -3.303 0 -2.259 -1.578 1.75 -2.647 l 3.75 -0.999 l -3.5 -1.049 c -3.568 -1.07 -3.53 -1.133 1.75 -2.886 1.418 -0.471 1.182 -0.817 -1.25 -1.828 l -3 -1.247 l 4.48 -0.72 c 3.33 -0.535 4.1 -0.961 3 -1.656 -0.814 -0.515 -2.519 -0.943 -3.789 -0.951 -1.282 -0.01 -2.034 -0.46 -1.691 -1.015 0.34 -0.55 1.69 -1 3 -1 3.967 0 3.811 -1.849 -0.222 -2.638 l -3.778 -0.739 l 4.25 -0.871 c 4.625 -0.947 5.773 -2.753 1.75 -2.753 -1.375 0 -2.5 -0.45 -2.5 -1 0 -0.55 1.013 -1.01 2.25 -1.014 1.237 -0.01 3.375 -0.319 4.75 -0.692 2.262 -0.614 2.072 -0.791 -2 -1.861 l -4.5 -1.182 l 4.25 -0.754 c 4.226 -0.749 5.918 -2.498 2.417 -2.498 -4.592 0 -2.736 -1.605 2.993 -2.588 l 6.34 -1.088 l -6.334 -0.801 c -6.642 -0.84 -6.749 -2.466 -0.166 -2.523 4.929 -0.043 7.698 -1.94 3 -2.055 -1.925 -0.047 -4.381 -0.43 -5.458 -0.851 -1.987 -0.777 4.429 -1.912 12.458 -2.203 l 3.5 -0.127 l -3 -0.763 c -1.65 -0.42 -5.03 -0.83 -7.5 -0.912 -3.673 -0.121 -4.167 -0.342 -2.687 -1.203 1.744 -1.014 52.49 -1.414 53.48 -0.422 0.24 0.24 0.739 1.921 1.111 3.736 0.392 1.918 1.286 3.301 2.134 3.301 0.802 0 2.063 0.811 2.801 1.801 1.026 1.377 2.438 1.73 5.995 1.5 4.279 -0.277 4.693 -0.537 5.158 -3.244 0.594 -3.458 2.248 -3.653 3.112 -0.366 0.574 2.184 0.645 2.147 1.31 -0.691 1.293 -5.516 1.917 -5.982 8.441 -6.298 3.382 -0.164 6.935 0.16 7.896 0.72 1.322 0.77 0.242 1.025 -4.444 1.048 -3.405 0.017 -6.431 0.419 -6.725 0.894 -0.531 0.858 6.724 2.047 13.416 2.198 5.607 0.127 0.616 1.763 -6 1.968 -4.318 0.133 -4.963 0.342 -3 0.971 1.375 0.44 4.75 0.877 7.5 0.971 9.509 0.323 9.509 1.696 0 2.557 -8.126 0.736 -8.612 0.89 -5 1.586 2.2 0.424 6.389 0.797 9.309 0.829 3.506 0.038 5.084 0.421 4.647 1.128 -0.408 0.659 -2.169 0.816 -4.588 0.407 -2.159 -0.365 -6.151 -0.13 -8.87 0.523 -4.473 1.073 -5 1.502 -5.566 4.506 -0.792 4.222 0.291 7.814 2.142 7.103 0.768 -0.295 1.866 0.347 2.445 1.428 0.767 1.433 2.099 1.963 4.934 1.963 5.523 0 6.825 -0.709 6.304 -3.433 -0.571 -2.986 1.675 -4.542 2.423 -1.679 0.652 2.492 2.319 1.811 2.319 -0.947 0 -1.068 0.563 -1.944 1.25 -1.947 0.688 0 2.431 -0.622 3.874 -1.375 l 2.624 -1.369 l 0.51 13.625 c 0.595 15.906 0.322 16.661 -7.401 20.509 -6.692 3.335 -14.64 3.617 -17.356 0.616 -2.553 -2.821 -4.581 -2.507 -9.609 1.49 -3.858 3.067 -5.058 3.482 -9.891 3.418 -4.401 -0.058 -6.299 -0.649 -9.5 -2.957 z m -16.954 -20.16 c 0.025 -1.492 0.387 -3.054 0.804 -3.471 1.064 -1.064 2.567 1.67 1.976 3.593 -0.341 1.108 0.01 0.983 1.155 -0.409 1.102 -1.34 1.451 -2.985 1.059 -4.987 -0.972 -4.967 -2.831 -6.01 -10.663 -6.01 -5.881 0.01 -7.288 0.336 -8.506 2 -1.662 2.271 -1.459 9.103 0.261 8.784 0.622 -0.116 1.948 0.693 2.947 1.797 1.411 1.559 2.833 1.941 6.369 1.71 4.198 -0.274 4.556 -0.508 4.599 -3.01 z m 68.954 -12.787 c 0.34 -0.55 0.168 -1 -0.382 -1 -0.55 0 -1.278 0.45 -1.618 1 -0.34 0.55 -0.168 1 0.382 1 0.55 0 1.278 -0.45 1.618 -1 z m -105.5 -26.936 c -2.894 -0.57 -2.028 -0.818 5 -1.436 11.905 -1.046 49.5 -0.384 49.5 0.872 0 1.156 -48.921 1.662 -54.5 0.564 z m 69.17 0.127 c -2.15 -1.471 0.34 -1.757 9.834 -1.127 4.675 0.31 7.329 0.648 5.897 0.75 -1.432 0.102 -5.257 0.435 -8.5 0.738 -3.243 0.303 -6.497 0.141 -7.231 -0.361 z m -45.855 -4.939 c 8.146 -0.168 21.2 -0.168 29 0.001 7.804 0.169 1.139 0.306 -14.811 0.306 -15.95 -0.001 -22.335 -0.139 -14.189 -0.307 z m -47.05 -3.963 c -5.991 -0.765 -6.263 -2.027 -6.263 -29.06 v -24.323 l 2.455 -2.455 l 2.455 -2.455 l 63.3 0.015 c 34.813 0.01 63.791 0.346 64.4 0.75 2.99 1.996 3.4 5.557 3.4 29.514 0 23.545 -0.075 24.478 -2.104 26.316 -2.02 1.827 -4.601 1.909 -63.25 2.01 -33.63 0.056 -62.6 -0.085 -64.38 -0.312 z m 35.8 -6.351 c 1.037 -1.037 3.135 -2.16 4.662 -2.495 1.526 -0.335 3.37 -0.795 4.098 -1.022 0.727 -0.227 2.228 0.072 3.336 0.665 2.981 1.595 3.03 0.83 0.308 -4.553 -5.429 -10.724 -1.87 -24.13 7.735 -29.13 6.109 -3.179 13.07 -0.848 18.422 6.167 2.411 3.161 2.912 4.877 3.223 11.05 0.324 6.407 0.049 7.877 -2.238 11.969 -1.434 2.566 -2.607 4.822 -2.607 5.01 0 0.192 1.153 -0.089 2.562 -0.625 3.367 -1.28 11.194 0.66 12.757 3.162 1.043 1.669 2.587 1.862 14.957 1.862 13.589 0 13.778 -0.031 12.7 -2.046 -1.989 -3.716 -0.799 -8.226 2.754 -10.441 l 3.23 -2.01 l -0.23 -8.172 l -0.23 -8.172 l -2.587 0.515 c -1.83 0.364 -3.439 -0.218 -5.5 -1.991 -2.496 -2.147 -2.913 -3.223 -2.913 -7.512 0 -3.846 0.533 -5.573 2.298 -7.452 l 2.298 -2.446 l -2.798 -0.524 c -4.345 -0.813 -101.04 -0.34 -101.88 0.498 -0.409 0.409 0.116 1.694 1.167 2.855 2.942 3.251 2.626 10.976 -0.59 14.408 -1.942 2.072 -3.169 2.56 -5.5 2.186 l -3 -0.482 l -0.19 8.391 c -0.185 8.155 -0.121 8.409 2.276 9.01 1.357 0.341 2.905 1.438 3.44 2.438 1.236 2.31 1.23 7 -0.012 8.951 -1.387 2.179 1.155 2.555 14.607 2.162 9.703 -0.284 11.857 -0.641 13.441 -2.225 z m -11.563 -12.883 c -6.313 -2.584 -7.644 -9.75 -2.641 -14.22 4.367 -3.902 9.261 -3.869 13.218 0.088 4.807 4.807 3.176 11.747 -3.292 14 -3.553 1.239 -4.532 1.256 -7.285 0.129 z m 7.566 -4.09 c 1.239 -0.663 1.934 -2.092 1.934 -3.977 0 -6.449 -9.305 -7.706 -11.48 -1.552 -0.835 2.362 -0.633 3.054 1.361 4.668 2.619 2.12 5.303 2.403 8.185 0.86 z m -5.483 -3.831 c -0.431 -0.697 -0.513 -1.537 -0.183 -1.867 0.895 -0.895 1.871 0.421 1.387 1.871 -0.339 1.016 -0.574 1.015 -1.204 0 z m 64.8 7.295 c -5.34 -2.656 -6.825 -8.327 -3.34 -12.757 3.978 -5.057 12.89 -4.44 16.18 1.121 4.391 7.434 -4.705 15.681 -12.836 11.637 z m 8.417 -4.629 c 1.88 -1.88 1.414 -5.615 -0.852 -6.828 -2.831 -1.515 -5.96 -0.864 -7.571 1.574 -1.15 1.741 -1.121 2.375 0.192 4.25 1.702 2.43 6.249 2.985 8.23 1 z m -6.437 -2.297 c -0.923 -2.405 1.253 -4.235 3.415 -2.871 2.429 1.532 2.14 3.809 -0.532 4.189 -1.384 0.197 -2.497 -0.312 -2.883 -1.317 z m -63.36 -23 c 0 -0.825 0.675 -1.5 1.5 -1.5 0.825 0 1.5 0.675 1.5 1.5 0 0.825 -0.675 1.5 -1.5 1.5 -0.825 0 -1.5 -0.675 -1.5 -1.5 z m 6 0.5 c 0 -0.55 0.423 -1 0.941 -1 0.517 0 1.219 0.45 1.559 1 0.34 0.55 -0.083 1 -0.941 1 -0.857 0 -1.559 -0.45 -1.559 -1 z m 5.667 0.333 c -1.44 -1.44 -0.51 -2.041 3 -1.939 4.794 0.139 5.819 2.606 1.083 2.606 -1.879 0 -3.717 -0.3 -4.083 -0.667 z m 15.06 0.062 c -1.089 -1.089 0.227 -2.395 2.414 -2.395 1.175 0 1.85 0.525 1.608 1.25 -0.476 1.428 -3.02 2.151 -4.02 1.145 z m 9.272 -0.836 c 0 -0.857 0.45 -1.559 1 -1.559 0.55 0 1 0.423 1 0.941 0 0.517 -0.45 1.219 -1 1.559 -0.55 0.34 -1 -0.083 -1 -0.941 z m 5.5 0.441 c -0.34 -0.55 0.272 -1 1.359 -1 1.088 0 2.689 -0.273 3.559 -0.607 1.038 -0.398 1.582 -0.054 1.582 1 0 1.815 -5.439 2.323 -6.5 0.607 z m 10.75 0.261 c -0.688 -0.236 -1.25 -0.819 -1.25 -1.297 0 -1.23 7.346 -0.426 7.772 0.851 0.341 1.022 -3.976 1.318 -6.522 0.446 z m 9.75 -0.261 c 0 -0.55 0.45 -1 1 -1 0.55 0 1 0.45 1 1 0 0.55 -0.45 1 -1 1 -0.55 0 -1 -0.45 -1 -1 z m -31.23 33.798 c -0.476 -1.427 -6.784 -5.114 -7.51 -4.388 -1.076 1.076 0.782 3.59 2.653 3.59 1.085 0 2.251 0.45 2.59 1 0.874 1.414 2.749 1.247 2.266 -0.202 z m 6.261 -0.49 c 3.056 -2.092 3.938 -3.321 3.957 -5.519 0.021 -2.323 -3.87 -5.802 -7.255 -6.487 -3.268 -0.661 -4.383 -2.048 -2.866 -3.566 0.786 -0.786 1.605 -0.622 2.942 0.587 2.569 2.325 6.195 2.199 6.195 -0.215 0 -3.338 -8.749 -4.796 -13.291 -2.215 -4.34 2.467 -4.651 5.876 -0.844 9.277 1.742 1.556 4 2.83 5.03 2.83 2.659 0 4.767 2.74 3.264 4.242 -2.834 2.834 -0.812 3.585 2.87 1.066 z m -59.23 -28.558 c -0.223 -3.866 -0.698 -5.25 -1.802 -5.25 -1.109 0 -1.503 1.172 -1.511 4.5 -0.014 5.412 0.194 6 2.123 6 1.173 0 1.428 -1.126 1.191 -5.25 z m 112.18 1 c -0.01 -2.338 -0.408 -4.87 -0.888 -5.628 -1.583 -2.499 -3.097 -0.086 -3.097 4.937 0 4.274 0.27 4.941 2 4.941 1.689 0 1.998 -0.662 1.985 -4.25 z" style="fill:#e40000"/><path d="m -1633.71 1929.97 c -5.812 -3.964 -6.778 -4.08 -11.773 -1.403 -2.267 1.215 -5.642 2 -8.6 2 -3.355 0 -5.659 -0.622 -7.411 -2 -2.228 -1.753 -4.069 -2 -14.885 -2.01 -6.788 -0.01 -13.467 -0.322 -14.842 -0.7 -2.349 -0.645 -2.258 -0.758 1.5 -1.87 l 4 -1.184 l -3 -1.267 l -3 -1.267 l 4.442 -0.83 c 6.729 -1.258 6.933 -1.514 2.058 -2.582 -4.449 -0.975 -4.466 -0.994 -1.5 -1.708 1.65 -0.397 3.9 -1.11 5 -1.583 1.786 -0.769 1.712 -0.868 -0.691 -0.929 -5.61 -0.141 -3.542 -1.933 2.932 -2.541 10.993 -1.031 11.11 -1.108 2.906 -1.963 -9.568 -0.997 -8.341 -2.527 2.044 -2.549 4.643 -0.01 7.475 -0.458 7.994 -1.265 0.523 -0.814 0.979 -0.103 1.309 2.039 0.279 1.809 0.808 3.159 1.176 3 0.368 -0.159 1.777 0.752 3.132 2.024 1.95 1.832 3.371 2.248 6.831 2 3.994 -0.286 4.372 -0.546 4.414 -3.03 0.025 -1.492 0.387 -3.054 0.804 -3.471 1.064 -1.064 2.567 1.67 1.976 3.593 -0.341 1.108 0.01 0.983 1.155 -0.409 1.081 -1.315 1.458 -3.03 1.1 -5 l -0.543 -3 l 1.818 2.16 c 1.283 1.524 2.234 1.886 3.231 1.231 1.173 -0.771 1.084 -1.18 -0.528 -2.41 -1.574 -1.201 -1.642 -1.481 -0.357 -1.481 0.871 0 1.843 -0.675 2.16 -1.5 0.317 -0.825 0.05 -1.5 -0.593 -1.5 -0.874 0 -0.866 -0.303 0.031 -1.2 0.742 -0.742 1.2 -4.392 1.2 -9.566 0 -4.668 0.534 -9.331 1.208 -10.55 1.182 -2.136 1.221 -2.118 1.76 0.816 0.321 1.745 1.175 3 2.041 3 0.82 0 2.094 0.811 2.833 1.801 1.026 1.377 2.438 1.73 5.995 1.5 4.279 -0.277 4.693 -0.537 5.158 -3.244 0.593 -3.458 2.272 -3.659 3.051 -0.366 0.488 2.066 0.62 2.116 1.25 0.477 0.387 -1.01 0.704 -2.695 0.704 -3.75 0 -2.66 1.85 -2.412 2.473 0.332 1.73 7.617 2.164 10.608 1.958 13.5 -0.127 1.787 0.174 3.25 0.669 3.25 0.495 0 0.907 1.013 0.916 2.25 0.02 2.933 1.479 5.181 2.823 4.35 0.584 -0.361 1.55 0.256 2.147 1.372 0.804 1.503 2.091 2.028 4.968 2.028 5.523 0 6.825 -0.709 6.304 -3.433 -0.571 -2.986 1.675 -4.542 2.423 -1.679 0.661 2.53 2.319 1.793 2.319 -1.031 0 -3.233 2.374 -1.566 3.158 2.217 0.39 1.884 0.771 6.8 0.846 10.925 0.261 14.339 0.442 13.654 -4.343 16.458 -5.595 3.279 -13.447 3.542 -16.16 0.542 -2.634 -2.91 -5.755 -2.465 -10.5 1.5 -3.656 3.055 -4.845 3.488 -9.345 3.403 -4.125 -0.078 -6.152 -0.777 -10.144 -3.5 z m -45.01 -27.403 c -2.221 -0.565 -1.053 -0.79 4.5 -0.866 5.175 -0.071 7.04 0.197 6 0.866 -1.719 1.111 -6.135 1.111 -10.5 0 z m -34.639 -42.919 l -2.361 -1.919 l 0.309 -24.757 c 0.17 -13.616 0.738 -25.558 1.262 -26.537 0.524 -0.979 2.41 -2.036 4.191 -2.348 1.781 -0.312 30.784 -0.444 64.45 -0.293 54.685 0.245 61.39 0.446 62.823 1.883 1.385 1.385 1.633 5.186 1.785 27.322 0.168 24.407 0.078 25.786 -1.764 27.14 -1.634 1.202 -11.953 1.428 -65.14 1.428 -60.828 0 -63.29 -0.072 -65.56 -1.919 z m 39.16 -3.331 c 1.841 -1.97 2.965 -2.221 9.04 -2.02 7.315 0.247 8.36 -0.504 5.342 -3.839 -4.796 -5.299 -5.561 -15.182 -1.766 -22.798 3.203 -6.427 7.143 -9.09 13.463 -9.09 8.748 -0.01 14.923 7.06 15.69 17.944 0.332 4.72 -0.073 6.43 -2.7 11.404 -1.7 3.218 -3.091 5.938 -3.091 6.04 0 0.105 3.131 0.188 6.958 0.185 5.811 -0.01 7.346 0.358 9.314 2.207 2.195 2.062 3.292 2.214 16.04 2.214 7.527 0 13.686 -0.156 13.686 -0.346 0 -0.19 -0.711 -1.771 -1.579 -3.512 -2.168 -4.347 -0.816 -8.332 3.243 -9.555 l 3.03 -0.914 l -0.407 -8.09 c -0.374 -7.443 -0.203 -8.36 2.153 -11.53 3.814 -5.133 3.517 -10.297 -0.841 -14.656 l -3.4 -3.4 l -57.85 0.01 c -52.29 0.01 -57.57 0.152 -54.945 1.521 4.098 2.137 5.526 4.393 5.563 8.788 0.053 6.3 -2.389 9.641 -7.06 9.669 -6.322 0.037 -9.01 -11.05 -3.981 -16.404 1.333 -1.419 1.936 -2.581 1.339 -2.581 -0.597 0 -2.25 1.384 -3.674 3.077 -3.45 4.101 -3.436 9.09 0.04 14.11 2.432 3.51 2.594 4.393 2.165 11.804 -0.452 7.805 -0.405 8.01 1.814 8.01 2.379 0 5.396 3.345 5.385 5.973 0 0.84 -0.678 2.816 -1.5 4.392 -0.822 1.575 -1.494 3.038 -1.494 3.25 0 0.212 6.283 0.386 13.961 0.386 13.189 0 14.08 -0.124 16.06 -2.25 z m -14.1 -16.673 c -3.572 -3.572 -3.724 -6.921 -0.471 -10.431 4.845 -5.228 15.548 -2.237 15.548 4.345 0 4.208 -0.922 5.918 -4.072 7.546 -4.361 2.255 -7.738 1.807 -11.01 -1.46 z m 11.138 -1.138 c 2.719 -2.719 2.183 -6.689 -1.247 -9.238 -2.388 -1.774 -3.036 -1.852 -5.834 -0.693 -3.649 1.512 -5.475 5.198 -3.967 8.01 2.272 4.244 7.767 5.198 11.05 1.917 z m 56.39 1.606 c -3.219 -3.219 -3.313 -8.401 -0.205 -11.282 5.56 -5.151 15.798 -1.607 15.718 5.441 -0.084 7.353 -10.195 11.16 -15.514 5.841 z m 10.545 -2.545 c 2.387 -2.387 2.537 -4.32 0.494 -6.363 -3.738 -3.738 -10.494 -2.091 -10.494 2.557 0 5.203 6.231 7.574 10 3.806 z m -6 -3.573 c 0 -0.931 0.68 -1.441 1.667 -1.25 2.509 0.486 2.853 2.823 0.416 2.823 -1.228 0 -2.083 -0.646 -2.083 -1.573 z m 19.07 -10.06 c -2.964 -3.768 -2.745 -9.413 0.516 -13.288 3.158 -3.753 5.309 -3.879 8.487 -0.496 3.137 3.34 3.419 11.11 0.519 14.314 -2.681 2.963 -6.963 2.724 -9.522 -0.53 z m 6.727 -6.115 c -0.26 -4.983 -0.567 -5.75 -2.3 -5.75 -1.666 0 -2.043 0.752 -2.256 4.5 -0.325 5.708 0.187 7 2.774 7 1.902 0 2.055 -0.496 1.781 -5.75 z m -73.3 -5.25 c -0.34 -0.55 -0.141 -1 0.441 -1 0.582 0 1.059 0.45 1.059 1 0 0.55 -0.198 1 -0.441 1 -0.243 0 -0.719 -0.45 -1.059 -1 z m -41.5 38 c 0 -1.65 -0.45 -3 -1 -3 -0.55 0 -1 1.35 -1 3 0 1.65 0.45 3 1 3 0.55 0 1 -1.35 1 -3 z m 116 0 c 0 -1.65 -0.45 -3 -1 -3 -1.112 0 -1.38 4.286 -0.333 5.333 1.13 1.13 1.333 0.774 1.333 -2.333 z m -53.06 -4.795 c 3.705 -2.739 4.046 -6.532 0.89 -9.891 -1.785 -1.9 -1.885 -2.314 -0.559 -2.314 0.888 0 1.896 -0.454 2.239 -1.01 1.121 -1.813 -0.577 -4.991 -2.667 -4.991 -1.193 0 -2.244 -0.832 -2.555 -2.023 -0.501 -1.917 -0.602 -1.93 -1.906 -0.25 -1.312 1.689 -1.448 1.681 -2.877 -0.168 -0.825 -1.068 -1.5 -1.409 -1.5 -0.758 0 0.651 -1.35 2.386 -3 3.856 -4.03 3.589 -3.963 7.153 0.198 10.861 2.065 1.84 2.743 3 1.912 3.278 -0.707 0.236 -1.786 -0.072 -2.398 -0.684 -1.784 -1.784 -2.713 -1.299 -2.713 1.419 0 1.538 0.687 2.744 1.75 3.072 0.963 0.297 2.425 0.898 3.25 1.334 2.566 1.358 6.741 0.63 9.936 -1.732 z m -7.477 -2.272 c -0.363 -0.587 -0.409 -1.317 -0.102 -1.624 0.823 -0.823 3.643 0.461 3.643 1.659 0 1.357 -2.697 1.331 -3.541 -0.035 z m 0.541 -11.934 c 0 -0.55 0.45 -1 1 -1 0.55 0 1 0.45 1 1 0 0.55 -0.45 1 -1 1 -0.55 0 -1 -0.45 -1 -1 z m -52.18 -11.897 c 0.489 -5.112 -0.56 -8.103 -2.843 -8.103 -1.727 0 -1.981 0.684 -1.981 5.333 0 5.737 0.533 6.9 2.951 6.443 0.951 -0.18 1.674 -1.597 1.872 -3.673 z" style="fill:#ff0101"/><path d="m -1614.57 1927.79 c -0.259 -0.947 -0.457 -9.994 -0.439 -20.1 0.031 -17.685 0.123 -18.515 2.413 -21.89 l 2.381 -3.508 l 0.142 2.889 c 0.078 1.589 0.195 4.01 0.26 5.39 0.065 1.375 -0.473 3.533 -1.195 4.796 -1.42 2.483 -1.363 27.329 0.069 30.21 0.488 0.98 0.069 1.926 -1.205 2.722 -1.637 1.022 -2.03 0.941 -2.425 -0.502 z m 26.534 -9.464 c 0.111 -8.541 0.442 -10.558 1.977 -12.05 1.014 -0.984 1.927 -2.334 2.03 -3 0.376 -2.443 1.302 15.892 0.96 18.992 -0.222 2 -1.242 3.785 -2.727 4.758 l -2.373 1.555 l 0.134 -10.258 z m -57.27 7.358 c -0.299 -6.95 -0.106 -8.242 1.494 -10.01 0.972 -1.074 2.01 -3.787 2.313 -6.03 0.312 -2.326 1.089 -4.078 1.808 -4.078 0.926 0 1.298 2.789 1.4 10.5 0.105 7.936 -0.175 10.503 -1.143 10.514 -0.705 0.01 -2.294 0.285 -3.531 0.617 -1.8 0.482 -2.268 0.179 -2.341 -1.514 z m -46.41 0.099 c -1.584 -0.438 -1.168 -0.805 2 -1.768 l 4 -1.215 l -3 -1.267 l -3 -1.267 l 4.442 -0.83 c 6.729 -1.258 6.933 -1.514 2.058 -2.582 -4.449 -0.975 -4.466 -0.994 -1.5 -1.708 1.65 -0.397 3.9 -1.11 5 -1.583 1.786 -0.769 1.712 -0.868 -0.691 -0.929 -1.48 -0.037 -2.947 -0.481 -3.259 -0.987 -0.617 -0.998 10.556 -2.488 14.451 -1.926 2.234 0.322 2.378 0.717 2.135 5.867 -0.143 3.037 0.207 6.75 0.777 8.25 l 1.037 2.728 l -11.225 -0.116 c -6.174 -0.064 -12.13 -0.365 -13.225 -0.669 z m 11.5 -18.09 c -6.212 -0.859 -2.84 -2.122 5.665 -2.122 4.754 0 6.391 0.336 6.091 1.25 -0.469 1.428 -5.198 1.779 -11.756 0.872 z m 1.5 -5.122 c -2.221 -0.565 -1.053 -0.79 4.5 -0.866 5.175 -0.071 7.04 0.197 6 0.866 -1.719 1.111 -6.135 1.111 -10.5 0 z m 37.5 0 c -1.207 -0.78 -1.049 -0.972 0.809 -0.985 1.288 -0.01 2.036 0.427 1.691 0.985 -0.743 1.203 -0.639 1.203 -2.5 0 z m -72.14 -42.919 l -2.361 -1.919 l 0.309 -24.757 c 0.17 -13.616 0.738 -25.558 1.262 -26.537 0.524 -0.979 2.41 -2.036 4.191 -2.348 1.781 -0.312 30.784 -0.444 64.45 -0.293 54.685 0.245 61.39 0.446 62.823 1.883 1.385 1.385 1.633 5.186 1.785 27.322 0.168 24.407 0.078 25.786 -1.764 27.14 -1.634 1.202 -11.953 1.428 -65.14 1.428 -60.828 0 -63.29 -0.072 -65.56 -1.919 z m 39.16 -3.331 c 1.841 -1.97 2.965 -2.221 9.04 -2.02 7.315 0.247 8.36 -0.504 5.342 -3.839 -4.796 -5.299 -5.561 -15.182 -1.766 -22.798 3.203 -6.427 7.143 -9.09 13.463 -9.09 8.748 -0.01 14.923 7.06 15.69 17.944 0.332 4.72 -0.073 6.43 -2.7 11.404 -1.7 3.218 -3.091 5.938 -3.091 6.04 0 0.105 3.131 0.188 6.958 0.185 5.811 -0.01 7.346 0.358 9.314 2.207 2.195 2.062 3.292 2.214 16.04 2.214 7.527 0 13.686 -0.156 13.686 -0.346 0 -0.19 -0.711 -1.771 -1.579 -3.512 -2.168 -4.347 -0.816 -8.332 3.243 -9.555 l 3.03 -0.914 l -0.407 -8.09 c -0.374 -7.443 -0.203 -8.36 2.153 -11.53 3.814 -5.133 3.517 -10.297 -0.841 -14.656 l -3.4 -3.4 l -57.85 0.01 c -52.29 0.01 -57.57 0.152 -54.945 1.521 4.098 2.137 5.526 4.393 5.563 8.788 0.053 6.3 -2.389 9.641 -7.06 9.669 -6.322 0.037 -9.01 -11.05 -3.981 -16.404 1.333 -1.419 1.936 -2.581 1.339 -2.581 -0.597 0 -2.25 1.384 -3.674 3.077 -3.45 4.101 -3.436 9.09 0.04 14.11 2.432 3.51 2.594 4.393 2.165 11.804 -0.452 7.805 -0.405 8.01 1.814 8.01 2.379 0 5.396 3.345 5.385 5.973 0 0.84 -0.678 2.816 -1.5 4.392 -0.822 1.575 -1.494 3.038 -1.494 3.25 0 0.212 6.283 0.386 13.961 0.386 13.189 0 14.08 -0.124 16.06 -2.25 z m -14.1 -16.673 c -3.572 -3.572 -3.724 -6.921 -0.471 -10.431 4.845 -5.228 15.548 -2.237 15.548 4.345 0 4.208 -0.922 5.918 -4.072 7.546 -4.361 2.255 -7.738 1.807 -11.01 -1.46 z m 11.138 -1.138 c 2.719 -2.719 2.183 -6.689 -1.247 -9.238 -2.388 -1.774 -3.036 -1.852 -5.834 -0.693 -3.649 1.512 -5.475 5.198 -3.967 8.01 2.272 4.244 7.767 5.198 11.05 1.917 z m 56.39 1.606 c -3.219 -3.219 -3.313 -8.401 -0.205 -11.282 5.56 -5.151 15.798 -1.607 15.718 5.441 -0.084 7.353 -10.195 11.16 -15.514 5.841 z m 10.545 -2.545 c 2.387 -2.387 2.537 -4.32 0.494 -6.363 -3.738 -3.738 -10.494 -2.091 -10.494 2.557 0 5.203 6.231 7.574 10 3.806 z m -6 -3.573 c 0 -0.931 0.68 -1.441 1.667 -1.25 2.509 0.486 2.853 2.823 0.416 2.823 -1.228 0 -2.083 -0.646 -2.083 -1.573 z m 19.07 -10.06 c -2.964 -3.768 -2.745 -9.413 0.516 -13.288 3.158 -3.753 5.309 -3.879 8.487 -0.496 3.137 3.34 3.419 11.11 0.519 14.314 -2.681 2.963 -6.963 2.724 -9.522 -0.53 z m 6.727 -6.115 c -0.26 -4.983 -0.567 -5.75 -2.3 -5.75 -1.666 0 -2.043 0.752 -2.256 4.5 -0.325 5.708 0.187 7 2.774 7 1.902 0 2.055 -0.496 1.781 -5.75 z m -73.3 -5.25 c -0.34 -0.55 -0.141 -1 0.441 -1 0.582 0 1.059 0.45 1.059 1 0 0.55 -0.198 1 -0.441 1 -0.243 0 -0.719 -0.45 -1.059 -1 z m -41.5 38 c 0 -1.65 -0.45 -3 -1 -3 -0.55 0 -1 1.35 -1 3 0 1.65 0.45 3 1 3 0.55 0 1 -1.35 1 -3 z m 116 0 c 0 -1.65 -0.45 -3 -1 -3 -1.112 0 -1.38 4.286 -0.333 5.333 1.13 1.13 1.333 0.774 1.333 -2.333 z m -53.06 -4.795 c 3.705 -2.739 4.046 -6.532 0.89 -9.891 -1.785 -1.9 -1.885 -2.314 -0.559 -2.314 0.888 0 1.896 -0.454 2.239 -1.01 1.121 -1.813 -0.577 -4.991 -2.667 -4.991 -1.193 0 -2.244 -0.832 -2.555 -2.023 -0.501 -1.917 -0.602 -1.93 -1.906 -0.25 -1.312 1.689 -1.448 1.681 -2.877 -0.168 -0.825 -1.068 -1.5 -1.409 -1.5 -0.758 0 0.651 -1.35 2.386 -3 3.856 -4.03 3.589 -3.963 7.153 0.198 10.861 2.065 1.84 2.743 3 1.912 3.278 -0.707 0.236 -1.786 -0.072 -2.398 -0.684 -1.784 -1.784 -2.713 -1.299 -2.713 1.419 0 1.538 0.687 2.744 1.75 3.072 0.963 0.297 2.425 0.898 3.25 1.334 2.566 1.358 6.741 0.63 9.936 -1.732 z m -7.477 -2.272 c -0.363 -0.587 -0.409 -1.317 -0.102 -1.624 0.823 -0.823 3.643 0.461 3.643 1.659 0 1.357 -2.697 1.331 -3.541 -0.035 z m 0.541 -11.934 c 0 -0.55 0.45 -1 1 -1 0.55 0 1 0.45 1 1 0 0.55 -0.45 1 -1 1 -0.55 0 -1 -0.45 -1 -1 z m -52.18 -11.897 c 0.489 -5.112 -0.56 -8.103 -2.843 -8.103 -1.727 0 -1.981 0.684 -1.981 5.333 0 5.737 0.533 6.9 2.951 6.443 0.951 -0.18 1.674 -1.597 1.872 -3.673 z" style="fill:#c00"/><path d="m -1614.96 1908.13 c -0.014 -15.524 0.269 -19.753 1.383 -20.677 1.194 -0.991 1.36 1.831 1.129 19.15 -0.184 13.79 -0.628 20.426 -1.383 20.677 -0.79 0.263 -1.117 -5.278 -1.129 -19.15 z m -30.336 17.274 c -0.412 -7.143 -0.273 -8.112 1.383 -9.61 1.725 -1.561 1.792 -1.369 1.5 4.242 -0.186 3.578 -0.795 6.04 -1.556 6.289 -0.688 0.227 -1.285 -0.188 -1.327 -0.921 z m 57.37 -8.411 c 0.146 -6.76 0.594 -9.885 1.46 -10.173 1.941 -0.646 1.741 17.1 -0.21 18.718 -1.265 1.05 -1.432 -0.089 -1.25 -8.545 z m -125.73 -58.645 c -1.643 -2.346 -2.069 -4.827 -0.807 -4.705 0.412 0.04 2.032 1.615 3.599 3.5 2.649 3.188 2.706 3.428 0.807 3.428 -1.123 0 -2.742 -1 -3.599 -2.223 z m 24.943 1.079 c 8.25 -0.423 17.7 -0.716 21 -0.651 3.3 0.065 7.01 0.064 8.25 0 2.928 -0.157 2.555 -0.153 18.25 -0.189 17.484 -0.039 16.02 -0.075 34 0.829 10.897 0.548 -1.129 0.78 -40.5 0.781 -38.467 0.001 -51.3 -0.239 -41 -0.768 z m 103.06 -2.107 c 1.611 -1.787 3.27 -3.678 3.687 -4.2 0.417 -0.523 0.758 0.233 0.758 1.679 0 3.171 -2.37 5.771 -5.258 5.771 -1.987 0 -1.938 -0.197 0.814 -3.25 z m -124.12 -3.201 c -0.945 -1.443 -1.339 -3.294 -0.956 -4.5 1.037 -3.269 2.515 -2.373 2.515 1.524 0 2.863 0.348 3.507 1.75 3.24 1.194 -0.227 1.929 -1.601 2.314 -4.323 0.554 -3.921 0.578 -3.942 1.377 -1.167 1.803 6.261 -3.654 10.333 -7 5.225 z m 116.6 0.517 c -1.315 -2.457 -1.332 -5.764 -0.035 -6.566 0.55 -0.34 1 0.272 1 1.359 0 6.287 3.737 7.078 4.209 0.891 l 0.324 -4.25 l 1.375 2.709 c 1.199 2.362 1.162 3.035 -0.29 5.25 -1.977 3.02 -5.138 3.309 -6.584 0.607 z m -65.06 -3.101 c -3.877 -4.895 -4.977 -8.07 -4.95 -14.28 0.045 -10.58 6.309 -18.18 14.978 -18.18 8.694 0 15 7.523 15 17.895 0 6.569 -1.064 9.635 -5.12 14.757 l -3.061 3.864 l -6.967 -0.187 c -6.744 -0.181 -7.06 -0.305 -9.88 -3.864 z m 11.135 -1.715 c 1.166 2.057 2.893 2.318 2.893 0.437 0 -0.722 1.35 -2.606 3 -4.187 2.934 -2.811 4.097 -7.704 2.121 -8.925 -0.484 -0.299 -0.66 -2.481 -0.394 -4.85 0.438 -3.89 0.233 -4.422 -2.121 -5.494 -1.434 -0.653 -2.607 -1.872 -2.607 -2.709 0 -2.137 -2.993 -1.911 -3.03 0.229 -0.03 1.667 -0.095 1.667 -1.36 0 -1.726 -2.273 -3.608 -2.241 -3.608 0.062 0 0.997 -1.295 2.769 -2.877 3.939 -2.751 2.034 -2.879 2.481 -2.912 10.231 -0.035 8.102 -0.035 8.103 2.789 8.668 1.742 0.348 3.056 1.386 3.429 2.707 0.602 2.132 0.612 2.133 2.146 0.143 1.444 -1.874 1.604 -1.89 2.533 -0.25 z m 62.53 -4.054 c -3.612 -5.212 -3.809 -15.85 -0.386 -20.878 1.237 -1.818 2.588 -3.308 3 -3.312 0.412 0 0.75 6.293 0.75 13.993 0 7.7 -0.164 14 -0.364 14 -0.2 0 -1.55 -1.712 -3 -3.804 z m -130.64 -10.03 c 0 -7.06 0.294 -13.13 0.653 -13.487 0.359 -0.359 1.709 0.778 3 2.528 1.984 2.689 2.342 4.349 2.315 10.737 -0.027 6.544 -0.356 7.924 -2.452 10.306 -1.331 1.513 -2.667 2.75 -2.968 2.75 -0.301 0 -0.548 -5.775 -0.548 -12.833 z m 96.3 4.636 c -4.456 -2.153 -4.719 -9.439 -0.425 -11.738 3.22 -1.724 3.595 -1.225 0.757 1.01 -3.167 2.491 -3.426 6.137 -0.635 8.927 2.878 2.878 7.392 2.589 9.927 -0.635 2.685 -3.414 2.613 -4.916 -0.382 -7.911 -1.35 -1.35 -2.025 -2.455 -1.5 -2.455 2 0 4.955 4.125 4.955 6.927 0 5.436 -6.951 8.652 -12.697 5.876 z m -88.3 -16.03 c -2.527 -2.712 -3.427 -5.934 -2.59 -9.27 1.099 -4.379 2.589 -2.691 2.589 2.933 0 4.417 0.348 5.543 1.859 6.02 3.038 0.964 5.38 -0.442 4.735 -2.843 -0.312 -1.162 -0.573 -4.02 -0.581 -6.362 -0.013 -3.933 -0.219 -4.26 -2.764 -4.386 -2.478 -0.123 -2.519 -0.18 -0.418 -0.58 5.74 -1.093 8.517 8.459 4.095 14.08 -2.532 3.219 -4.214 3.317 -6.927 0.405 z m 111.07 -0.405 c -2.149 -2.733 -2.77 -8.716 -1.166 -11.248 1.221 -1.928 2.453 3.968 1.621 7.756 -0.701 3.193 1.216 4.66 4.659 3.568 1.647 -0.523 1.865 -1.438 1.609 -6.766 -0.285 -5.949 -0.399 -6.184 -3.296 -6.8 -2.428 -0.516 -2.558 -0.66 -0.684 -0.756 3.711 -0.19 6.05 1.654 6.736 5.307 0.767 4.09 0.101 6.497 -2.602 9.399 -2.663 2.859 -4.356 2.746 -6.877 -0.459 z m -118.49 -11.238 c -1.174 -1.9 1.172 -6.665 3.724 -7.563 4.165 -1.466 4.293 0.035 0.374 4.373 -1.982 2.194 -3.826 3.63 -4.098 3.191 z m 128.04 -3.802 c -3.759 -4.191 -3.804 -4.325 -1.441 -4.325 3.226 0 5.566 1.896 6.347 5.141 1 4.158 -0.698 3.876 -4.906 -0.815 z m -109.81 -4.01 c 0.722 -0.289 1.584 -0.253 1.917 0.079 0.332 0.332 -0.258 0.569 -1.313 0.525 -1.165 -0.048 -1.402 -0.285 -0.604 -0.604 z m 5 0 c 0.722 -0.289 1.584 -0.253 1.917 0.079 0.332 0.332 -0.258 0.569 -1.313 0.525 -1.165 -0.048 -1.402 -0.285 -0.604 -0.604 z m 5 0 c 0.722 -0.289 1.584 -0.253 1.917 0.079 0.332 0.332 -0.258 0.569 -1.313 0.525 -1.165 -0.048 -1.402 -0.285 -0.604 -0.604 z m 4.938 0.021 c 0.688 -0.277 1.813 -0.277 2.5 0 0.688 0.277 0.125 0.504 -1.25 0.504 -1.375 0 -1.938 -0.227 -1.25 -0.504 z m 5 0 c 0.688 -0.277 1.813 -0.277 2.5 0 0.688 0.277 0.125 0.504 -1.25 0.504 -1.375 0 -1.938 -0.227 -1.25 -0.504 z m 5 0 c 0.688 -0.277 1.813 -0.277 2.5 0 0.688 0.277 0.125 0.504 -1.25 0.504 -1.375 0 -1.938 -0.227 -1.25 -0.504 z m 6.06 -0.021 c 0.722 -0.289 1.584 -0.253 1.917 0.079 0.332 0.332 -0.258 0.569 -1.313 0.525 -1.165 -0.048 -1.402 -0.285 -0.604 -0.604 z m 5 0 c 0.722 -0.289 1.584 -0.253 1.917 0.079 0.332 0.332 -0.258 0.569 -1.313 0.525 -1.165 -0.048 -1.402 -0.285 -0.604 -0.604 z m 5 0 c 0.722 -0.289 1.584 -0.253 1.917 0.079 0.332 0.332 -0.258 0.569 -1.313 0.525 -1.165 -0.048 -1.402 -0.285 -0.604 -0.604 z m 5 0 c 0.722 -0.289 1.584 -0.253 1.917 0.079 0.332 0.332 -0.258 0.569 -1.313 0.525 -1.165 -0.048 -1.402 -0.285 -0.604 -0.604 z m 5 0 c 0.722 -0.289 1.584 -0.253 1.917 0.079 0.332 0.332 -0.258 0.569 -1.313 0.525 -1.165 -0.048 -1.402 -0.285 -0.604 -0.604 z m 5 0 c 0.722 -0.289 1.584 -0.253 1.917 0.079 0.332 0.332 -0.258 0.569 -1.313 0.525 -1.165 -0.048 -1.402 -0.285 -0.604 -0.604 z m 5 0 c 0.722 -0.289 1.584 -0.253 1.917 0.079 0.332 0.332 -0.258 0.569 -1.313 0.525 -1.165 -0.048 -1.402 -0.285 -0.604 -0.604 z m 5 0 c 0.722 -0.289 1.584 -0.253 1.917 0.079 0.332 0.332 -0.258 0.569 -1.313 0.525 -1.165 -0.048 -1.402 -0.285 -0.604 -0.604 z m 5 0 c 0.722 -0.289 1.584 -0.253 1.917 0.079 0.332 0.332 -0.258 0.569 -1.313 0.525 -1.165 -0.048 -1.402 -0.285 -0.604 -0.604 z m 5 0 c 0.722 -0.289 1.584 -0.253 1.917 0.079 0.332 0.332 -0.258 0.569 -1.313 0.525 -1.165 -0.048 -1.402 -0.285 -0.604 -0.604 z m 5 0 c 0.722 -0.289 1.584 -0.253 1.917 0.079 0.332 0.332 -0.258 0.569 -1.313 0.525 -1.165 -0.048 -1.402 -0.285 -0.604 -0.604 z m 5 0 c 0.722 -0.289 1.584 -0.253 1.917 0.079 0.332 0.332 -0.258 0.569 -1.313 0.525 -1.165 -0.048 -1.402 -0.285 -0.604 -0.604 z m 5 0 c 0.722 -0.289 1.584 -0.253 1.917 0.079 0.332 0.332 -0.258 0.569 -1.313 0.525 -1.165 -0.048 -1.402 -0.285 -0.604 -0.604 z" style="fill:#a80000"/><path d="m -1712.55 1858.9 c -0.367 -0.367 -0.667 -1.132 -0.667 -1.7 0 -0.627 0.466 -0.568 1.183 0.15 0.651 0.651 0.951 1.416 0.667 1.7 -0.284 0.284 -0.817 0.217 -1.183 -0.15 z m 127.33 -0.215 c 0 -0.55 0.45 -1.278 1 -1.618 0.55 -0.34 1 -0.168 1 0.382 0 0.55 -0.45 1.278 -1 1.618 -0.55 0.34 -1 0.168 -1 -0.382 z m -72.19 -7.868 c -1.411 -1.513 -3.01 -3.65 -3.555 -4.75 -4.684 -9.457 -0.054 -22.982 8.773 -25.626 15.04 -4.506 25.02 16.891 13.828 29.639 -1.684 1.918 -3.465 3.487 -3.958 3.487 -2.055 0 -0.671 -4.408 2.236 -7.124 2.891 -2.7 3.084 -3.282 2.5 -7.541 -0.348 -2.538 -0.632 -6.137 -0.632 -7.996 0 -2.605 -0.555 -3.635 -2.415 -4.482 -1.328 -0.605 -2.622 -1.892 -2.875 -2.859 -0.646 -2.469 -8.547 -2.625 -9.434 -0.186 -0.337 0.928 -1.83 3.101 -3.318 4.828 -2.409 2.798 -2.714 3.98 -2.794 10.851 -0.089 7.66 -0.07 7.719 2.873 8.83 2.091 0.789 2.963 1.79 2.963 3.399 0 2.998 -1.069 2.878 -4.191 -0.469 z m -56.809 -16.26 c 0 -7.676 0.305 -10.06 1.25 -9.749 2.519 0.821 3.537 5.141 2.888 12.249 -0.507 5.554 -0.998 7.06 -2.388 7.323 -1.574 0.3 -1.75 -0.689 -1.75 -9.823 z m 128.67 9.343 c -1.2 -1.199 -0.739 -16.861 0.533 -18.13 2.376 -2.376 2.8 -1.045 2.8 8.8 0 7.667 -0.311 10 -1.333 10 -0.733 0 -1.633 -0.3 -2 -0.667 z m -127.48 -36.07 c 0.184 -0.956 1.154 -1.896 2.156 -2.089 1.56 -0.3 1.661 -0.051 0.703 1.738 -1.354 2.529 -3.326 2.771 -2.86 0.351 z m 127.88 0.324 c -0.746 -0.899 -1.059 -1.93 -0.697 -2.293 0.934 -0.934 2.932 1.29 2.452 2.73 -0.276 0.827 -0.818 0.693 -1.755 -0.437 z" style="fill:#930000"/></g></g></svg>