<svg xmlns="http://www.w3.org/2000/svg" viewBox="0 0 256 256"><defs><clipPath id="0"><rect width="46" height="46" x="1" y="0.998" rx="4" style="fill:#1890d0;stroke-width:1"/></clipPath><clipPath><rect width="46" height="46" x="1" y="0.998" rx="4" style="fill:#1890d0;stroke-width:1"/></clipPath></defs><g transform="translate(0 -796.36)"><path d="m -1374.42 1658.71 c 127.95 -192.46 -280.09 -311 -226.07 -62.2 23.02 102.82 167.39 165.22 226.07 62.2 z" transform="matrix(0 1 -1 0 1711.48 2401.81)" style="fill:#fff;color:#000"/><g transform="matrix(5.66228 0 0 5.25884 -10.127 805.21)" style="clip-path:url(#0);fill:#ff4500"><path d="m 34 14 c 0 7.04 0 13.895 0 20 -7.02 0 -13.926 0 -19.996 0 0 -7.04 0 -13.898 0 -20 6.941 0 14.05 0 19.996 0 m -2 2 h -9 v 4 h 9 m -11 -4 h -4.996 v 4 h 4.996 m 11 1.996 h -9 v 4 h 9 m -11 -4 h -4.996 v 4 h 4.996 m 11 2 h -9 v 4 h 9 m -11 -4 h -4.996 v 4 h 4.996" transform="translate(0 -1)"/></g></g></svg>