<svg xmlns="http://www.w3.org/2000/svg" xmlns:xlink="http://www.w3.org/1999/xlink" viewBox="0 0 256 256"><path d="m 231.02 52.769 c 127.95 192.46 -280.09 311 -226.07 62.2 23.02 -102.82 167.39 -165.22 226.07 -62.2 z" style="fill:#fff;color:#000"/><g transform="matrix(2.74011 0 0 2.67232 58.44 -1223.79)"><rect width="48" height="48" y="482.66" rx="1.28" style="fill:#ff4500;color:#000"/><path d="m 9.717 487.12 l -3.342 3.342 v 28.565 l 3.342 3.343 h 28.565 l 3.342 -3.343 v -28.565 l -3.342 -3.342 h -28.565 z" id="0" style="color:#000"/><use xlink:href="#0" transform="matrix(1.13475 0 0 1.13475 -2.413 -66.1)" width="600" height="600"/><use xlink:href="#0" transform="matrix(1.13475 0 0 1.13475 -2.896 -66.1)" width="600" height="600" style="fill:#800"/><use height="600" width="600" xlink:href="#0" transform="matrix(1.12567 0 0 1.12567 -2.401 -61.51)" style="fill:#5e0000"/><g style="fill:#fe4b4b"><path d="m 38.08 491.48 c -0.4 0 -0.725 0.325 -0.725 0.725 0 0.256 0.134 0.479 0.335 0.607 v 7.242 h -5.59 v 0.737 h 5.96 h 0.367 v -0.367 v -7.586 c 0.223 -0.123 0.379 -0.361 0.379 -0.634 0 -0.4 -0.325 -0.725 -0.725 -0.725 z m -11.265 6.092 c -0.26 0 -0.467 0.212 -0.467 0.472 v 3.791 c -0.002 0.016 0 0.031 0 0.047 v 0.963 c 0 0.016 -0.002 0.031 0 0.047 v 0.971 h 2.342 c 0.125 -0.157 0.313 -0.258 0.528 -0.258 0.375 0 0.681 0.303 0.681 0.678 0 0.375 -0.305 0.681 -0.681 0.681 -0.235 0 -0.438 -0.119 -0.56 -0.299 h -2.309 v 2.02 c 0 0.26 0.209 0.47 0.47 0.47 h 4.801 c 0.26 0 0.47 -0.209 0.47 -0.47 v -3.838 v -0.962 v -1.059 h -2.309 c -0.122 0.18 -0.329 0.299 -0.563 0.299 -0.375 0 -0.678 -0.303 -0.678 -0.678 0 -0.375 0.303 -0.681 0.678 -0.681 0.215 0 0.403 0.102 0.528 0.258 h 2.345 v -1.978 c 0 -0.26 -0.212 -0.472 -0.472 -0.472 h -4.801 z m -7.101 5.232 c -0.26 0 -0.47 0.209 -0.47 0.47 v 4.801 c 0 0.26 0.209 0.47 0.47 0.47 h 4.804 c 0.26 0 0.47 -0.209 0.47 -0.47 v -4.801 c 0 -0.26 -0.209 -0.47 -0.47 -0.47 h -4.804 z m 2.4 2.192 c 0.375 0 0.681 0.305 0.681 0.681 0 0.375 -0.305 0.678 -0.681 0.678 -0.375 0 -0.678 -0.303 -0.678 -0.678 0 -0.375 0.303 -0.681 0.678 -0.681 z m 3.433 3.548 c -0.26 0 -0.47 0.209 -0.47 0.47 v 4.804 c 0 0.26 0.209 0.47 0.47 0.47 h 4.804 c 0.26 0 0.47 -0.209 0.47 -0.47 v -4.804 c 0 -0.26 -0.209 -0.47 -0.47 -0.47 h -4.804 z m -7.03 1.438 c -0.26 0 -0.47 0.209 -0.47 0.47 v 4.801 c 0 0.26 0.209 0.472 0.47 0.472 h 4.804 c 0.26 0 0.47 -0.212 0.47 -0.472 v -4.801 c 0 -0.26 -0.209 -0.47 -0.47 -0.47 h -4.804 z m 9.428 0.754 c 0.375 0 0.681 0.305 0.681 0.681 0 0.375 -0.305 0.678 -0.681 0.678 -0.375 0 -0.678 -0.303 -0.678 -0.678 0 -0.375 0.303 -0.681 0.678 -0.681 z m -16.459 0.452 c -0.26 0 -0.47 0.212 -0.47 0.472 v 4.801 c 0 0.26 0.209 0.47 0.47 0.47 h 4.801 c 0.26 0 0.472 -0.209 0.472 -0.47 v -4.801 c 0 -0.26 -0.212 -0.472 -0.472 -0.472 h -4.801 z m 9.431 0.986 c 0.375 0 0.681 0.305 0.681 0.681 0 0.375 -0.305 0.678 -0.681 0.678 -0.375 0 -0.678 -0.303 -0.678 -0.678 0 -0.375 0.303 -0.681 0.678 -0.681 z m -7.03 1.206 c 0.375 0 0.681 0.305 0.681 0.681 0 0.375 -0.305 0.678 -0.681 0.678 -0.375 0 -0.678 -0.303 -0.678 -0.678 0 -0.375 0.303 -0.681 0.678 -0.681 z m 3.386 3.551 c -0.238 0.024 -0.423 0.225 -0.423 0.47 v 4.801 c 0 0.26 0.209 0.47 0.47 0.47 h 4.801 c 0.26 0 0.472 -0.209 0.472 -0.47 v -4.801 c 0 -0.26 -0.212 -0.47 -0.472 -0.47 h -4.801 c -0.016 0 -0.031 -0.002 -0.047 0 z m 2.447 2.189 c 0.375 0 0.681 0.305 0.681 0.681 0 0.375 -0.305 0.678 -0.681 0.678 -0.375 0 -0.678 -0.303 -0.678 -0.678 0 -0.375 0.303 -0.681 0.678 -0.681 z" style="color:#000"/><text line-height="125%" text-align="start" x="7.755" y="493" style="font-size:1.632;font-family:Bitstream Vera Sans"><tspan x="7.755" y="493">AN OPEN SOURCE INTEL 8085</tspan><tspan x="7.755" y="495.04">MICROPROCESSOR SIMULATOR</tspan></text></g></g></svg>