<svg xmlns="http://www.w3.org/2000/svg" viewBox="0 0 256 256"><defs><clipPath><path transform="matrix(15.33333 0 0 11.5 415 -125.5)" d="m -24 13 c 0 1.105 -0.672 2 -1.5 2 -0.828 0 -1.5 -0.895 -1.5 -2 0 -1.105 0.672 -2 1.5 -2 0.828 0 1.5 0.895 1.5 2 z"/></clipPath></defs><g transform="translate(1.061 1.811)"><path d="m 45.547 217.93 c -200.11 -265.25 350.59 -302.94 173.86 -32.17 -40.29 61.728 -120.86 102.43 -173.86 32.17 z" style="fill:#fff;color:#000"/><path d="m 107.73 182.39 c -3.191 -8.811 -3.463 -8.836 -22.17 -2.06 -16.01 5.798 -16.45 5.892 -17.943 3.811 -0.841 -1.173 -7.314 -18.585 -14.386 -38.693 l -12.855 -36.555 l 58.796 -21.606 l 58.796 -21.606 l -2.461 -6.794 c -3.195 -8.821 -1.852 -10.734 10.737 -15.294 10.289 -3.727 14.1 -3.799 15.369 -0.296 1.281 3.536 -0.517 5.473 -7.974 8.596 l -6.558 2.745 l 4.348 13.07 l 4.348 13.07 l 3.457 -0.103 c 3.126 -0.093 3.661 0.459 5.579 5.754 1.892 5.223 1.838 6.107 -0.494 8.165 -3.374 2.977 -2.307 5.827 2.229 5.954 3.247 0.091 3.703 0.595 5.184 5.735 1.44 4.998 1.304 5.827 -1.206 7.353 -2.719 1.653 -2.712 2.117 0.178 11.93 l 3.01 10.209 l -3.186 -6.01 c -2.423 -4.573 -24.939 -64.22 -28.462 -75.4 -0.495 -1.569 0.598 -2.307 6.661 -4.503 3.989 -1.445 7.419 -3.225 7.623 -3.956 0.235 -0.841 -2.973 -0.118 -8.728 1.967 l -9.1 3.295 l 4.638 15.343 c 2.551 8.439 10.49 30.963 17.641 50.06 12.698 33.901 13.06 34.691 15.444 33.829 1.627 -0.589 2.697 -0.179 3.206 1.229 0.749 2.069 -0.153 2.451 -44.601 18.857 l -45.37 16.744 l -1.751 -4.835 z m 8.615 -4.127 c 0.066 -0.942 -1.368 -5.04 -3.186 -9.11 -2.808 -6.286 -3.117 -8.124 -2.046 -12.225 2.129 -8.157 2.024 -8.09 26.22 -16.852 23.38 -8.468 24.488 -9.138 24.569 -14.871 0.041 -2.823 -6.568 -7.651 -12.388 -9.05 -7.998 -1.922 -9.275 -0.924 -7.35 5.745 l 1.639 5.678 l -26.644 10.306 c -14.654 5.669 -26.747 10.452 -26.869 10.628 -0.126 0.177 0.374 1.986 1.11 4.02 1.434 3.959 0.471 5.102 -2.897 3.438 -2.627 -1.297 -19.09 4.381 -20.622 7.111 -0.584 1.045 0.081 4.797 1.589 8.962 3.104 8.571 1.964 8.511 23.23 1.232 l 14.742 -5.05 l 2.254 5.156 c 1.24 2.836 2.71 5.664 3.268 6.282 1.354 1.504 3.241 0.722 3.391 -1.403 z m 8.06 -7.03 c -0.782 -2.16 -1.01 -5.137 -0.505 -6.615 0.505 -1.479 0.604 -4.457 0.221 -6.618 -0.384 -2.161 -0.688 -5.141 -0.677 -6.623 0.017 -2.393 -0.396 -2.544 -3.696 -1.349 -6.898 2.498 -8.913 12.775 -3.296 16.822 1.969 1.418 3.193 3.35 3.315 5.233 0.203 3.11 3.628 5.783 5.187 4.048 0.48 -0.534 0.232 -2.738 -0.55 -4.898 z m 9.765 -3.537 c -0.782 -2.16 -1.01 -5.137 -0.505 -6.615 0.505 -1.479 0.604 -4.457 0.221 -6.618 -0.384 -2.161 -0.688 -5.141 -0.677 -6.623 0.03 -4.109 -4.639 -1.847 -6.395 3.099 -1.161 3.265 -0.836 5.577 1.811 12.883 1.773 4.896 3.685 9.08 4.249 9.294 2.098 0.803 2.676 -1.611 1.297 -5.419 z m 38.37 -53.1 c -11.333 -31.978 -14.329 -39.444 -16.02 -39.921 -1.41 -0.398 -9.03 2.035 -23.656 7.554 -19.05 7.188 -21.657 8.417 -22.256 10.489 -0.517 1.786 0.021 2.876 2.244 4.563 2.889 2.189 3.091 2.16 16.953 -2.526 13.643 -4.611 14.08 -4.843 15.929 -8.457 2.171 -4.247 5.379 -5.817 9.03 -4.421 3.519 1.348 4.451 4.825 2.368 8.835 l -1.769 3.405 l 3.539 1.483 c 4.229 1.771 5.435 4.446 3.639 8.07 -1.808 3.645 -4.688 4.438 -9.223 2.538 -2.935 -1.23 -5.05 -1.158 -9.106 0.312 -2.904 1.052 -5.12 2.356 -4.923 2.898 0.196 0.542 3.386 1.821 7.09 2.844 5.984 1.653 7.242 1.589 11.3 -0.549 7.537 -3.972 12.944 -0.375 9.48 6.302 -0.928 1.787 -2.033 5.168 -2.456 7.515 -0.423 2.347 -2.621 6.466 -4.882 9.154 -5.762 6.837 -6.256 10.884 -2.471 19.979 2.88 6.92 3.325 7.423 5.811 6.552 1.481 -0.517 3.24 -0.73 3.909 -0.474 0.669 0.256 5.311 -1.173 10.315 -3.175 l 9.1 -3.64 l -13.94 -39.33 z m -28.817 48.992 c -0.968 -2.672 -1.142 -5.401 -0.411 -6.468 0.695 -1.014 0.893 -3.705 0.439 -5.98 -0.453 -2.274 -0.811 -5.35 -0.794 -6.834 0.045 -3.943 -4.517 -1.967 -6.481 2.807 -1.28 3.11 -0.982 5.189 1.869 13.06 2.759 7.618 3.732 9.239 5.222 8.699 1.348 -0.488 1.39 -1.881 0.157 -5.286 z m 9.765 -3.537 c -1.022 -2.821 -1.146 -5.394 -0.32 -6.601 0.771 -1.126 0.726 -3.715 -0.106 -6.01 -0.803 -2.218 -1.017 -4.525 -0.476 -5.127 1.903 -2.116 -0.075 -4.335 -2.673 -2.997 -4.311 2.219 -5.145 7.419 -2.667 16.662 2.41 8.991 3.316 10.363 6.157 9.334 1.263 -0.458 1.287 -1.939 0.084 -5.26 z m -66.49 -9.912 c 0.005 -1.207 -1.562 -3.932 -3.481 -6.06 -1.92 -2.125 -3.972 -5.195 -4.562 -6.822 -1.544 -4.264 -7.896 -5.739 -11.738 -2.722 -5.188 4.071 -5.338 5.134 -2.022 14.288 1.727 4.769 3.622 8.855 4.21 9.08 0.588 0.225 4.785 -0.937 9.325 -2.581 6.936 -2.512 8.26 -3.343 8.268 -5.184 z m 101.39 -42.4 c -0.926 -2.558 -1.814 -3.462 -2.738 -2.792 -2.569 1.865 -0.05 8.08 2.849 7.03 0.692 -0.251 0.642 -2.159 -0.112 -4.24 z m -49.76 18.678 c 3.363 -3.334 0.276 -9.08 -6.212 -11.566 -2.998 -1.148 -6.592 -1.674 -7.986 -1.169 -3.844 1.392 -5.063 6.976 -2.482 11.375 3.491 5.953 11.398 6.597 16.68 1.36 z m -32.56 4.199 c -3.076 -5.873 -5.962 -6.513 -4.794 -1.064 0.594 2.776 6.622 8.836 7.402 7.441 0.208 -0.372 -0.965 -3.242 -2.608 -6.377 z m 58.58 -15.968 c -0.51 -1.408 -1.579 -1.817 -3.206 -1.228 -1.627 0.589 -2.186 1.588 -1.676 2.996 0.51 1.408 1.579 1.817 3.206 1.228 1.627 -0.589 2.186 -1.588 1.676 -2.996 z m -79.47 18.494 c -0.649 -0.675 -1.709 -1.036 -2.356 -0.802 -2.351 0.851 -1.112 5.112 2.412 8.297 l 3.608 3.261 l -1.242 -4.763 c -0.682 -2.616 -1.773 -5.316 -2.421 -5.992 z m 9.04 3.133 c -2.899 -5.579 -3.856 -6.667 -5.379 -6.116 -1.634 0.592 0.879 7.521 3.472 9.573 3.361 2.659 4.248 1.05 1.906 -3.457 z m 6.103 -2.211 c -2.992 -5.758 -4.047 -6.886 -5.219 -5.581 -1.33 1.479 0.289 5.657 3.232 8.338 3.594 3.272 4.481 2.044 1.987 -2.754 z m 10.486 -10.207 c -0.649 -0.675 -1.746 -1.023 -2.438 -0.772 -1.764 0.639 0.983 7.626 3.831 9.742 2.189 1.626 2.267 1.407 1.074 -2.993 -0.706 -2.607 -1.818 -5.3 -2.466 -5.975 z m 9.04 3.133 c -2.899 -5.579 -3.856 -6.667 -5.379 -6.116 -1.634 0.592 0.879 7.521 3.473 9.573 3.361 2.659 4.248 1.05 1.906 -3.457 z m 39.48 -26.344 c -0.164 -1.283 -1.067 -1.605 -2.774 -0.987 -1.392 0.504 -2.301 1.55 -2.02 2.325 1.171 3.234 5.234 2.101 4.794 -1.337 z m -42.64 8.117 c -2.184 -7.751 -3.387 -7.776 -23.328 -0.533 -22.53 8.182 -22.1 7.836 -19.318 15.51 l 2.259 6.238 l 20.952 -7.916 l 20.952 -7.916 l -1.517 -5.384 z m 64.65 -20.469 c -1.201 -3.316 -3.573 -3.577 -3.795 -0.417 -0.16 2.285 1.997 4.652 3.683 4.04 0.692 -0.251 0.743 -1.882 0.112 -3.624 z m -110.5 40.15 c 0.535 -1.911 -3.541 -1.265 -6.456 1.023 -1.473 1.155 -2.589 2.351 -2.478 2.656 0.348 0.96 8.585 -2.431 8.937 -3.68 z m 79.992 -30.591 c 0.492 -1.701 0.128 -2.705 -1.341 -3.695 -1.724 -1.163 -3.991 -0.645 -15.616 3.566 -8.227 2.98 -13.467 5.35 -13.254 5.995 0.19 0.588 1.79 0.716 3.555 0.285 4.234 -1.035 4.714 0.642 0.732 2.563 -1.728 0.833 -3.153 2.209 -3.167 3.053 -0.018 1.207 3.054 0.353 14.196 -3.947 11.99 -4.627 14.326 -5.854 14.895 -7.823 z m -82.66 24.862 c -0.744 -2.053 -5.639 -0.304 -8.02 2.866 -1.682 2.241 -1.446 2.28 3.392 0.563 3.824 -1.357 5.05 -2.264 4.626 -3.429 z m -10.493 -0.38 c 0.205 -0.731 2.451 -2.082 4.994 -3 5.684 -2.059 8.01 -6.04 5.9 -10.09 -1.439 -2.77 -1.717 -2.78 -9.501 -0.312 -6.486 2.056 -8.192 3 -8.908 4.948 -0.932 2.52 1.123 9.804 2.965 10.508 1.591 0.609 4.128 -0.532 4.552 -2.047 z m 96.85 -35.677 c -0.319 -0.88 -1.659 -1.191 -3.01 -0.7 -1.356 0.491 -2.186 1.588 -1.867 2.468 0.319 0.88 1.658 1.191 3.01 0.7 1.356 -0.491 2.186 -1.588 1.867 -2.468 z m -79.39 20.988 c -0.631 -1.742 -1.697 -2.969 -2.368 -2.726 -0.671 0.243 -0.705 1.868 -0.074 3.61 0.631 1.742 1.697 2.969 2.368 2.726 0.671 -0.243 0.705 -1.868 0.074 -3.61 z m 5.102 -3.938 c -1.124 -1.584 -1.192 -1.559 -1.44 0.522 -0.143 1.202 0.459 2.865 1.339 3.696 1.523 1.439 1.591 1.415 1.44 -0.522 -0.088 -1.118 -0.69 -2.781 -1.339 -3.696 z m 8.325 -0.925 c -0.942 -2.601 -3.617 -2.951 -3.789 -0.495 -0.177 2.517 2.252 4.993 3.518 3.585 0.545 -0.606 0.667 -1.997 0.271 -3.09 z m 6.103 -2.211 c -0.631 -1.742 -1.697 -2.969 -2.368 -2.726 -0.671 0.243 -0.705 1.868 -0.074 3.61 0.631 1.742 1.697 2.969 2.368 2.726 0.671 -0.243 0.705 -1.868 0.074 -3.61 z m 6.103 -2.211 c -0.631 -1.742 -1.697 -2.969 -2.368 -2.726 -1.357 0.492 -0.045 5.137 1.633 5.779 1.811 0.694 1.923 0.228 0.735 -3.053 z m 5.102 -3.938 c -1.124 -1.584 -1.192 -1.559 -1.44 0.522 -0.143 1.202 0.459 2.865 1.339 3.696 1.523 1.439 1.591 1.415 1.44 -0.522 -0.088 -1.118 -0.69 -2.781 -1.339 -3.696 z" style="fill:#ff4500"/></g></svg>