<svg xmlns="http://www.w3.org/2000/svg" viewBox="0 0 256 256"><defs><clipPath><path transform="matrix(15.33333 0 0 11.5 415 -125.5)" d="m -24 13 c 0 1.105 -0.672 2 -1.5 2 -0.828 0 -1.5 -0.895 -1.5 -2 0 -1.105 0.672 -2 1.5 -2 0.828 0 1.5 0.895 1.5 2 z"/></clipPath></defs><path d="m 51.877 225.89 c 189.78 124.58 306.67 -272.71 61.33 -220.12 -101.39 22.413 -162.92 162.98 -61.33 220.12 z" style="fill:#fff;color:#000"/><path d="m 186.32 145.61 c -0.255 -0.379 -2.205 -1.09 -4.332 -1.581 -2.27 -0.524 -3.868 -1.344 -3.868 -1.985 0 -0.601 2.471 -4.479 5.491 -8.617 l 5.491 -7.524 l -1.273 -4.905 c -0.939 -3.616 -1.2 -8.41 -0.995 -18.243 0.239 -11.446 0.096 -13.338 -1.01 -13.338 -0.881 0 -1.524 1.291 -2.047 4.119 -0.885 4.778 -0.541 4.696 -10.798 2.571 -4.289 -0.889 -7.597 -1.22 -8.05 -0.806 -0.453 0.414 -1.428 -0.065 -2.375 -1.167 -0.883 -1.029 -3.698 -2.587 -6.255 -3.465 -6.06 -2.077 -24.366 -4.975 -30.579 -4.842 -5.849 0.125 -6.274 -0.214 -12.68 -10.128 -8.412 -13.02 -16.213 -18.11 -28.605 -18.655 -9.9 -0.435 -13.208 0.766 -15.837 5.747 -1.184 2.244 -2.223 5.937 -2.473 8.787 -0.428 4.88 -0.456 4.927 -3.952 6.343 -8.225 3.333 -14.613 14.361 -20.749 35.818 l -2.468 8.63 l -0.232 -15.483 l -0.232 -15.483 l 2.295 -3.345 c 8.255 -12.03 23.826 -26.848 36.403 -34.63 l 7.403 -4.583 l 17.913 0.122 c 9.852 0.068 24.825 0.417 33.27 0.776 13.892 0.592 16.13 0.891 23.413 3.127 13.945 4.283 22.639 8.93 30.918 16.526 5.7 5.23 8.08 8.139 10.933 13.355 5.685 10.398 6.155 16.71 1.571 21.09 -1.229 1.176 -2.234 2.824 -2.234 3.663 0.002 2.332 4.886 18.509 6.888 22.817 0.976 2.099 3.315 5.262 5.198 7.03 2.845 2.67 3.328 3.567 2.852 5.303 -0.79 2.884 -1.724 3.197 -4.456 1.492 -3.881 -2.422 -14.645 -6.615 -16.258 -6.334 -0.828 0.144 -2.59 2.113 -3.914 4.374 -2.342 3.997 -3.421 4.84 -4.376 3.423 z" style="fill:#ffe4c4"/><path d="m 171.39 129.11 c -4.716 -4.616 -7.939 -16.04 -7.469 -26.475 0.248 -5.498 0.328 -5.708 1.325 -3.509 1.88 4.142 2.391 4.624 8.601 8.108 l 6.113 3.429 v 7.242 c 0 7.573 -0.621 10.139 -2.976 12.288 -1.969 1.799 -2.813 1.635 -5.595 -1.086 z" style="fill:#faebd7"/><path d="m 37.617 185.42 c -2.039 -10.632 -0.234 -2.431 0.229 -17.284 0.475 -15.248 0.831 -19.408 3.039 -35.483 4.435 -32.3 14.733 -53.42 26.04 -53.42 2.146 0 2.208 -0.125 1.671 -3.397 -0.682 -4.158 1.609 -12.282 4.03 -14.284 1.156 -0.956 3.486 -1.474 7.597 -1.686 14.788 -0.763 23.381 4.883 33.663 22.12 l 3.868 6.486 l 5.298 0.422 c 2.914 0.232 8.754 0.628 12.977 0.881 9.16 0.548 17.13 2.114 21.774 4.282 l 3.395 1.583 v 7.639 c 0 9.448 1.171 15.46 4.202 21.566 2.137 4.308 6.66 8.97 8.703 8.97 0.456 0 1.908 -0.51 3.227 -1.133 3.681 -1.74 4.771 -5.124 4.771 -14.818 v -8.543 l -6.399 -3.613 c -3.703 -2.091 -6.881 -4.512 -7.543 -5.747 -0.629 -1.174 -1.012 -2.256 -0.849 -2.404 0.162 -0.148 3.361 0.414 7.117 1.25 3.752 0.836 7.74 1.373 8.863 1.195 l 2.04 -0.324 l -0.556 7.126 c -0.335 4.296 -0.154 9.537 0.457 13.195 l 1.013 6.068 l -3.563 4.459 c -4.873 6.098 -7.484 10.845 -8.155 14.833 l -0.565 3.356 l 5.682 2.355 c 7.368 3.054 8.738 2.69 11.331 -3.01 1.126 -2.475 2.564 -5.273 3.196 -6.22 l 1.148 -1.721 l 6.19 2.378 c 3.404 1.308 6.934 3.035 7.843 3.839 1.634 1.444 1.634 1.479 0.002 3.127 -3.234 3.266 -8.844 4.725 -23.773 6.183 -4.188 0.409 -7.945 1.045 -8.349 1.415 -0.813 0.743 2.126 7.594 4.123 9.611 1.125 1.136 1.033 1.518 -0.84 3.509 -1.983 2.105 -2.491 2.234 -8.789 2.234 -5.924 0 -7.415 -0.321 -13.08 -2.807 -3.519 -1.544 -8.511 -4.422 -11.09 -6.396 -3.605 -2.757 -4.917 -3.372 -5.662 -2.651 -2.118 2.048 -24.579 31.612 -27.04 35.59 -3.354 5.422 -6.225 13.334 -6.748 18.586 -0.224 2.261 -1.626 8.76 -1.812 10.344 -20.869 -5.351 -17.01 -4.831 -25.819 -8.632 -28.361 -12.602 -40.27 -25.514 -42.851 -31.04 z" style="fill:#ff4500"/></svg>