<svg xmlns="http://www.w3.org/2000/svg" viewBox="0 0 256 256"><g transform="translate(0 -796.36)"><path d="m 3.74 950.97 c 19.829 131.87 217.21 135.83 247.04 7.636 30.702 -103.78 -80.47 -188.63 -163.63 -154.63 -55.684 16.07 -100.67 81.83 -83.41 146.99 z" style="fill:#fff;color:#000"/><g transform="matrix(3.52235 0 0 3.04021 -1310.97 -664.81)"><path d="m 390.57 503.8 h 36 v 40 h -36 z" style="fill:#ff4500"/><path d="m 390.57 535.8 h 36 v 8 h -36 z" style="fill:#ffe4e1"/><path d="m 390.57 542.8 h 36 v 1 h -36 z" style="fill:#ff4500"/><path d="m 390.57 503.8 h 36 v 6 h -36 z" style="fill:#ffe4e1"/><g style="fill:#ff4500"><path d="m 390.57 503.8 h 6 v 6 h -6 z"/><path d="m 390.57 509.8 h 36 v 1 h -36 z"/><path d="m 406.57 541.8 l 4 -2.5 l -4 -2.5 z" style="fill-rule:evenodd"/><path d="m 390.57 534.8 h 36 v 1 h -36 z"/><path d="m 412.57 528.8 h 14 v 6 h -14 z"/></g><g><path d="m 390.57 528.8 h 14 v 6 h -14 z" style="fill:#e67e22"/><path d="m 404.57 528.8 h 8 v 6 h -8 z" style="fill:#c0392b"/><path d="m 419.57 522.8 h 7 v 6 h -7 z" style="fill:#dc143c"/><path d="m 405.57 522.8 h 14 v 6 h -14 z" style="fill:#ffdead"/><path d="m 399.57 522.8 h 6 v 6 h -6 z" style="fill:#e74c3c"/><path d="m 390.57 522.8 h 9 v 6 h -9 z" style="fill:#ff4500"/><path d="m 412.57 516.8 h 14 v 6 h -14 z" style="fill:#f39c12"/><path d="m 390.57 510.8 h 6 v 6 h -6 z" style="fill:#e74c3c"/><path d="m 396.57 510.8 h 12 v 6 h -12 z" style="fill:#ffdead"/><path d="m 408.57 510.8 h 6 v 6 h -6 z" style="fill:#dc143c"/><path d="m 414.57 510.8 h 12 v 6 h -12 z" style="fill:#ff4500"/></g><path d="m 406.57 541.8 l 3.464 2 h 7.736 l -7.2 -4.5 z" style="fill:#ff4500;opacity:0.2;fill-rule:evenodd"/></g></g></svg>