<svg xmlns="http://www.w3.org/2000/svg" viewBox="0 0 256 256"><defs><linearGradient id="0" x1="5.669" y1="-4.691" x2="5.538" y2="-11.864" gradientUnits="userSpaceOnUse"><stop style="stop-color:#ffbc00"/><stop offset="1" style="stop-color:#ffec00"/></linearGradient></defs><g transform="translate(0 -796.36)"><path d="m 74.42 803.65 c 358.18 -69.03 90.96 470.27 -65.45 139.31 -14.568 -62.823 -5.723 -115.39 65.45 -139.31 z" style="fill:#fff;color:#000"/><g transform="matrix(2.88235 0 0 2.98621 57.06 844.97)"><ellipse transform="translate(-2.644 3.051)" cx="26.644" cy="20.949" rx="24" ry="24" style="fill:#ff4500"/><g transform="matrix(1.71427 0 0 1.71427 5.789 33.512)" style="enable-background:new;stroke-width:1.317"><path d="m 21.05,-5.187 c 0.042,-0.039 0.066,-0.094 0.066,-0.156 0,-0.12 -0.099,-0.219 -0.219,-0.219 H 10.601 v 5.477 h 5.477 l 4.973,-5.102" style="fill:#ffa07a"/><path d="m 10.226,4.888 c 0.039,0.042 0.094,0.066 0.156,0.066 0.12,0 0.219,-0.099 0.219,-0.219 v -5.836 -4.46 H 5.124 v 5.477 l 4.03,3.927 z" style="fill:#c71585"/><path d="m 0.151,-5.936 c -0.042,0.039 -0.066,0.094 -0.066,0.156 0,0.12 0.099,0.219 0.219,0.219 H 10.6 v -5.477 H 5.123 L 0.15,-5.936" style="fill:url(#0)"/><path d="m 10.976 -16.01 c -0.039 -0.042 -0.094 -0.066 -0.156 -0.066 -0.12 0 -0.219 0.099 -0.219 0.219 v 10.296 h 5.477 v -5.477 l -5.102 -4.973" style="fill:#ffdead"/></g></g></g></svg>