<svg xmlns="http://www.w3.org/2000/svg" viewBox="0 0 256 256"><defs><clipPath><rect y="18" x="6" rx="6" height="72" width="84" style="fill:#f0f"/></clipPath><clipPath><rect y="18" x="6" rx="6" height="72" width="84" style="fill:#f0f"/></clipPath><clipPath><rect width="84" height="84" rx="6" x="6" y="6" style="fill:#ff4500"/></clipPath><clipPath><rect y="18" x="6" rx="6" height="72" width="84" style="fill:#f0f"/></clipPath><clipPath><rect width="84" height="84" rx="6" x="6" y="6" style="fill:#ff4500"/></clipPath><clipPath><rect width="112.64" height="112.64" rx="8.05" x="27.682" y="7.682" style="fill:#ff4500"/></clipPath><clipPath><rect y="18" x="6" rx="6" height="72" width="84" style="fill:#f0f"/></clipPath></defs><g transform="translate(0 -796.36)" style="color:#000"><path d="m 2.967 952.88 c 15.875 104.05 156.87 131.89 219.1 57.62 54.798 -55.17 41.16 -160.78 -26.05 -196.99 -77.21 -48.44 -189.69 11.446 -195.83 107.88 c -0.632 10.565 0.26 21.245 2.771 31.493 z" style="fill:#fff"/><g transform="matrix(1.20188 0 0 1.21695 54.01 850.52)" style="fill:#ff4500;stroke:#ff4500"><rect transform="scale(1 -1)" width="114.22" height="115.54" x="7.04" y="-122.25" rx="29.3" style="stroke-width:0.974"/><g transform="matrix(2 0 0 2 199.85 74.42)" style="fill:#ffdead;fill-rule:evenodd"><path d="m -83.32 -20.01 v 7 h 30.8 v -7 h -30.8 z m 0 11.9 v 7 h 30.8 v -7 h -30.8 z m 0 11.9 v 7 h 30.8 v -7 h -30.8 z" style="fill-opacity:0.059"/><path d="m -83.32 -20.412 v 7 h 30.8 v -7 h -30.8 z m 0 11.9 v 7 h 30.8 v -7 h -30.8 z m 0 11.9 v 7 h 30.8 v -7 h -30.8 z" style="fill-opacity:0.118"/><path d="m -83.32 -20.812 v 7 h 30.8 v -7 h -30.8 z m 0 11.9 v 7 h 30.8 v -7 h -30.8 z m 0 11.9 v 7 h 30.8 v -7 h -30.8 z" style="fill-opacity:0.235"/><path d="m -83.32 -21.21 v 7 h 30.8 v -7 h -30.8 z m 0 11.9 v 7 h 30.8 v -7 h -30.8 z m 0 11.9 v 7 h 30.8 v -7 h -30.8 z"/><path d="m -83.32 -15.01 v 0.799 h 30.8 v -0.799 h -30.8 z m 0 11.9 v 0.799 h 30.8 v -0.799 h -30.8 z m 0 11.898 v 0.801 h 30.8 v -0.801 h -30.8 z" style="fill-opacity:0.314"/><path d="m -83.32 -21.21 v 0.4 h 30.8 v -0.4 h -30.8 z m 0 11.9 v 0.4 h 30.8 v -0.4 h -30.8 z m 0 11.9 v 0.4 h 30.8 v -0.4 h -30.8 z" style="fill-opacity:0.235"/></g></g></g></svg>