<svg xmlns="http://www.w3.org/2000/svg" viewBox="0 0 256 256"><g transform="translate(0 -796.36)"><path d="m 117.3 1051.73 c 155.28 14.765 197.08 -234.25 37.632 -253.59 -146.61 -23.968 -222.12 201.75 -76.44 246.9 c 12.317 4.946 25.786 4.852 38.807 6.696 z" style="fill:#fff;color:#000"/><g transform="matrix(17.32966 0 0 17.0882 11.11 814.11)" style="fill:#ff4500;enable-background:new"><path d="m 3.151 3.434 v 7.244 h 7.244 v -7.244 h -7.244 z m 0.805 0.805 h 5.634 v 4.829 h -0.875 l -1.162 -2.01 l -0.41 0.711 l -1.215 -2.105 l -1.967 3.406 h -0.005 v -4.829 z m 4.427 0.402 c -0.445 0 -0.805 0.36 -0.805 0.805 0 0.445 0.36 0.805 0.805 0.805 0.445 0 0.805 -0.36 0.805 -0.805 0 -0.445 -0.36 -0.805 -0.805 -0.805 z" style="fill-opacity:0.118"/><path d="m 3.151 3.151 v 7.244 h 7.244 v -7.244 h -7.244 z m 0.805 0.805 h 5.634 v 4.829 h -0.875 l -1.162 -2.01 l -0.41 0.711 l -1.215 -2.105 l -1.967 3.406 h -0.005 v -4.829 z m 4.427 0.402 c -0.445 0 -0.805 0.36 -0.805 0.805 0 0.445 0.36 0.805 0.805 0.805 0.445 0 0.805 -0.36 0.805 -0.805 0 -0.445 -0.36 -0.805 -0.805 -0.805 z"/></g></g></svg>