<svg xmlns="http://www.w3.org/2000/svg" viewBox="0 0 256 256"><g transform="translate(0 -796.36)"><path d="m47.11 1015.23c-198.41-266.38 347.6-304.22 172.38-32.31-39.947 61.991-119.83 102.86-172.38 32.31" style="fill:#fff;color:#000"/><g style="fill:#ff4500"><path d="m 81.41 986.84 c 0 -0.505 -0.181 -0.543 -2.579 -0.543 -2.02 0 -2.579 -0.082 -2.579 -0.376 0 -0.467 -0.835 -0.702 -2.511 -0.707 -0.964 -0.003 -1.29 -0.107 -1.29 -0.411 0 -0.294 -0.302 -0.407 -1.086 -0.407 -0.905 0 -1.086 -0.091 -1.086 -0.543 0 -0.471 -0.181 -0.543 -1.358 -0.543 -1.177 0 -1.358 -0.072 -1.358 -0.543 0 -0.398 -0.181 -0.543 -0.679 -0.543 -0.413 0 -0.679 -0.155 -0.679 -0.395 0 -0.236 -0.381 -0.467 -0.95 -0.573 -0.544 -0.102 -0.95 -0.339 -0.95 -0.555 0 -0.25 -0.32 -0.377 -0.95 -0.377 -0.769 0 -0.95 -0.103 -0.95 -0.543 0 -0.362 -0.181 -0.543 -0.543 -0.543 -0.362 0 -0.543 -0.181 -0.543 -0.543 0 -0.302 -0.181 -0.543 -0.407 -0.543 -0.224 0 -0.407 -0.183 -0.407 -0.407 0 -0.226 -0.241 -0.407 -0.543 -0.407 -0.362 0 -0.543 -0.181 -0.543 -0.543 0 -0.362 -0.181 -0.543 -0.543 -0.543 -0.44 0 -0.543 -0.181 -0.543 -0.95 0 -0.63 -0.127 -0.95 -0.377 -0.95 -0.216 0 -0.453 -0.406 -0.555 -0.95 -0.107 -0.569 -0.337 -0.95 -0.573 -0.95 -0.31 0 -0.395 -0.435 -0.395 -2.036 0 -1.855 -0.048 -2.036 -0.543 -2.036 -0.495 0 -0.543 -0.181 -0.543 -2.036 0 -1.855 0.048 -2.036 0.543 -2.036 0.503 0 0.543 -0.181 0.543 -2.444 0 -2.263 0.04 -2.444 0.543 -2.444 0.44 0 0.543 -0.181 0.543 -0.95 0 -0.664 0.123 -0.95 0.407 -0.95 0.294 0 0.407 -0.302 0.407 -1.086 0 -0.905 0.09 -1.086 0.543 -1.086 0.299 0 0.543 -0.169 0.543 -0.376 0 -0.207 0.244 -0.439 0.543 -0.518 0.416 -0.109 0.543 -0.37 0.543 -1.118 0 -0.686 0.121 -0.976 0.407 -0.976 0.226 0 0.407 -0.241 0.407 -0.543 0 -0.362 0.181 -0.543 0.543 -0.543 0.302 0 0.543 -0.181 0.543 -0.407 0 -0.226 0.241 -0.407 0.543 -0.407 0.362 0 0.543 -0.181 0.543 -0.543 0 -0.302 0.181 -0.543 0.407 -0.543 0.226 0 0.407 -0.241 0.407 -0.543 0 -0.453 0.181 -0.543 1.086 -0.543 0.784 0 1.086 -0.113 1.086 -0.407 0 -0.224 0.195 -0.407 0.433 -0.407 0.238 0 0.497 -0.244 0.575 -0.543 0.078 -0.299 0.311 -0.543 0.518 -0.543 0.207 0 0.376 -0.244 0.376 -0.543 0 -0.453 0.181 -0.543 1.086 -0.543 0.757 0 1.086 -0.117 1.086 -0.386 0 -0.212 0.367 -0.466 0.815 -0.565 0.448 -0.098 0.815 -0.352 0.815 -0.565 0 -0.23 0.273 -0.386 0.679 -0.386 0.498 0 0.679 -0.145 0.679 -0.543 0 -0.44 0.181 -0.543 0.95 -0.543 0.664 0 0.95 -0.123 0.95 -0.407 0 -0.313 0.347 -0.407 1.493 -0.407 1.312 0 1.493 -0.066 1.493 -0.543 0 -0.44 0.181 -0.543 0.95 -0.543 0.928 0 0.95 -0.026 0.95 -1.086 0 -1.06 -0.023 -1.086 -0.95 -1.086 -0.769 0 -0.95 -0.103 -0.95 -0.543 0 -0.44 -0.181 -0.543 -0.95 -0.543 -0.664 0 -0.95 -0.123 -0.95 -0.407 0 -0.226 -0.241 -0.407 -0.543 -0.407 -0.362 0 -0.543 -0.181 -0.543 -0.543 0 -0.362 -0.181 -0.543 -0.543 -0.543 -0.299 0 -0.543 -0.178 -0.543 -0.395 0 -0.236 -0.38 -0.466 -0.943 -0.572 -0.807 -0.151 -0.968 -0.31 -1.116 -1.098 -0.098 -0.522 -0.336 -0.921 -0.55 -0.921 -0.207 0 -0.377 -0.244 -0.377 -0.543 0 -0.302 -0.181 -0.543 -0.407 -0.543 -0.343 0 -0.407 -0.618 -0.407 -3.937 0 -3.318 0.064 -3.937 0.407 -3.937 0.226 0 0.407 -0.241 0.407 -0.543 0 -0.299 0.178 -0.543 0.395 -0.543 0.236 0 0.467 -0.381 0.573 -0.95 0.129 -0.688 0.32 -0.95 0.691 -0.95 0.282 0 0.513 -0.183 0.513 -0.407 0 -0.224 0.183 -0.407 0.407 -0.407 0.226 0 0.407 -0.241 0.407 -0.543 0 -0.442 0.181 -0.543 0.976 -0.543 0.747 0 1.01 -0.127 1.118 -0.543 0.078 -0.299 0.311 -0.543 0.518 -0.543 0.207 0 0.376 -0.183 0.376 -0.407 0 -0.294 0.302 -0.407 1.086 -0.407 0.905 0 1.086 -0.091 1.086 -0.543 0 -0.44 0.181 -0.543 0.95 -0.543 0.769 0 0.95 -0.103 0.95 -0.543 0 -0.362 0.181 -0.543 0.543 -0.543 0.453 0 0.543 -0.181 0.543 -1.086 0 -1.086 0 -1.086 -1.086 -1.086 -0.784 0 -1.086 -0.113 -1.086 -0.407 0 -0.284 -0.287 -0.407 -0.95 -0.407 -0.769 0 -0.95 -0.103 -0.95 -0.543 0 -0.44 -0.181 -0.543 -0.95 -0.543 -0.769 0 -0.95 -0.103 -0.95 -0.543 0 -0.362 -0.181 -0.543 -0.543 -0.543 -0.302 0 -0.543 -0.181 -0.543 -0.407 0 -0.226 -0.241 -0.407 -0.543 -0.407 -0.362 0 -0.543 -0.181 -0.543 -0.543 0 -0.362 -0.181 -0.543 -0.543 -0.543 -0.302 0 -0.543 -0.181 -0.543 -0.407 0 -0.224 -0.195 -0.407 -0.433 -0.407 -0.238 0 -0.497 -0.244 -0.575 -0.543 -0.078 -0.299 -0.311 -0.543 -0.518 -0.543 -0.207 0 -0.376 -0.244 -0.376 -0.543 0 -0.302 -0.181 -0.543 -0.407 -0.543 -0.226 0 -0.407 -0.241 -0.407 -0.543 0 -0.362 -0.181 -0.543 -0.543 -0.543 -0.44 0 -0.543 -0.181 -0.543 -0.95 0 -0.769 -0.103 -0.95 -0.543 -0.95 -0.453 0 -0.543 -0.181 -0.543 -1.086 0 -0.784 -0.113 -1.086 -0.407 -1.086 -0.309 0 -0.407 -0.335 -0.407 -1.383 0 -1.136 -0.093 -1.407 -0.522 -1.52 -0.477 -0.125 -0.53 -0.453 -0.611 -3.776 -0.049 -2 -0.048 -5.288 0 -7.304 0.083 -3.404 0.126 -3.665 0.611 -3.665 0.452 0 0.522 -0.201 0.522 -1.493 0 -1.146 0.095 -1.493 0.407 -1.493 0.294 0 0.407 -0.302 0.407 -1.086 0 -0.769 0.115 -1.086 0.395 -1.086 0.236 0 0.467 -0.381 0.573 -0.95 0.129 -0.688 0.32 -0.95 0.691 -0.95 0.417 0 0.513 -0.202 0.513 -1.086 0 -0.784 0.113 -1.086 0.407 -1.086 0.224 0 0.407 -0.169 0.407 -0.376 0 -0.207 0.244 -0.439 0.543 -0.518 0.416 -0.109 0.543 -0.37 0.543 -1.118 0 -0.934 0.04 -0.976 0.95 -0.976 0.905 0 0.95 -0.045 0.95 -0.95 0 -0.769 0.103 -0.95 0.543 -0.95 0.362 0 0.543 -0.181 0.543 -0.543 0 -0.362 0.181 -0.543 0.543 -0.543 0.302 0 0.543 -0.181 0.543 -0.407 0 -0.284 0.287 -0.407 0.95 -0.407 0.769 0 0.95 -0.103 0.95 -0.543 0 -0.362 0.181 -0.543 0.543 -0.543 0.362 0 0.543 -0.181 0.543 -0.543 0 -0.44 0.181 -0.543 0.95 -0.543 0.63 0 0.95 -0.127 0.95 -0.377 0 -0.216 0.406 -0.453 0.95 -0.555 0.569 -0.107 0.95 -0.337 0.95 -0.573 0 -0.28 0.317 -0.395 1.086 -0.395 0.905 0 1.086 -0.091 1.086 -0.543 0 -0.44 0.181 -0.543 0.95 -0.543 0.664 0 0.95 -0.123 0.95 -0.407 0 -0.304 0.326 -0.408 1.29 -0.411 1.676 -0.005 2.511 -0.24 2.511 -0.707 0 -0.309 1.149 -0.376 6.516 -0.376 5.348 0 6.516 0.067 6.516 0.373 0 0.427 1.156 0.713 2.885 0.713 0.875 0 1.188 0.107 1.188 0.407 0 0.284 0.287 0.407 0.95 0.407 0.769 0 0.95 0.103 0.95 0.543 0 0.452 0.181 0.543 1.086 0.543 0.905 0 1.086 0.091 1.086 0.543 0 0.44 0.181 0.543 0.95 0.543 0.664 0 0.95 0.123 0.95 0.407 0 0.294 0.302 0.407 1.086 0.407 0.905 0 1.086 0.091 1.086 0.543 0 0.521 0.181 0.543 4.48 0.543 4.299 0 4.48 -0.022 4.48 -0.543 0 -0.453 0.181 -0.543 1.086 -0.543 0.757 0 1.086 -0.117 1.086 -0.386 0 -0.212 0.367 -0.466 0.815 -0.565 0.468 -0.103 0.815 -0.354 0.815 -0.59 0 -0.226 0.237 -0.473 0.528 -0.549 0.307 -0.08 0.6 -0.467 0.7 -0.925 0.095 -0.433 0.346 -0.787 0.559 -0.787 0.23 0 0.386 -0.273 0.386 -0.679 0 -0.397 0.156 -0.679 0.376 -0.679 0.504 0 0.702 -0.856 0.707 -3.054 l 0.004 -1.833 h 0.95 c 0.769 0 0.95 0.103 0.95 0.543 0 0.362 0.181 0.543 0.543 0.543 0.302 0 0.543 0.181 0.543 0.407 0 0.224 0.183 0.407 0.407 0.407 0.232 0 0.407 0.244 0.407 0.568 0 0.34 0.218 0.625 0.543 0.71 0.299 0.078 0.543 0.311 0.543 0.518 0 0.207 0.244 0.376 0.543 0.376 0.515 0 0.543 0.181 0.543 3.53 0 3.349 -0.028 3.53 -0.543 3.53 -0.299 0 -0.543 0.169 -0.543 0.376 0 0.207 -0.244 0.439 -0.543 0.518 -0.299 0.078 -0.543 0.337 -0.543 0.575 0 0.238 -0.183 0.433 -0.407 0.433 -0.226 0 -0.407 0.241 -0.407 0.543 0 0.44 -0.181 0.543 -0.95 0.543 -0.664 0 -0.95 0.123 -0.95 0.407 0 0.349 -0.799 0.407 -5.566 0.407 -4.766 0 -5.566 -0.058 -5.566 -0.407 0 -0.294 -0.302 -0.407 -1.086 -0.407 h -1.086 v 1.493 c 0 1.312 0.066 1.493 0.543 1.493 0.44 0 0.543 0.181 0.543 0.95 0 0.769 0.103 0.95 0.543 0.95 0.44 0 0.543 0.181 0.543 0.95 0 0.664 0.123 0.95 0.407 0.95 0.313 0 0.407 0.35 0.407 1.519 0 1.29 0.082 1.54 0.543 1.661 0.523 0.137 0.543 0.37 0.543 6.459 0 6.089 -0.02 6.322 -0.543 6.459 -0.461 0.121 -0.543 0.37 -0.543 1.661 0 1.169 -0.094 1.519 -0.407 1.519 -0.308 0 -0.407 0.332 -0.407 1.358 0 1.177 -0.072 1.358 -0.543 1.358 -0.453 0 -0.543 0.181 -0.543 1.086 0 0.905 -0.091 1.086 -0.543 1.086 -0.44 0 -0.543 0.181 -0.543 0.95 0 0.664 -0.123 0.95 -0.407 0.95 -0.226 0 -0.407 0.241 -0.407 0.543 0 0.362 -0.181 0.543 -0.543 0.543 -0.299 0 -0.543 0.169 -0.543 0.376 0 0.207 -0.244 0.439 -0.543 0.518 -0.416 0.109 -0.543 0.37 -0.543 1.118 0 0.686 -0.121 0.976 -0.407 0.976 -0.226 0 -0.407 0.241 -0.407 0.543 0 0.362 -0.181 0.543 -0.543 0.543 -0.302 0 -0.543 0.181 -0.543 0.407 0 0.226 -0.241 0.407 -0.543 0.407 -0.362 0 -0.543 0.181 -0.543 0.543 0 0.44 -0.181 0.543 -0.95 0.543 -0.769 0 -0.95 0.103 -0.95 0.543 0 0.362 -0.181 0.543 -0.543 0.543 -0.302 0 -0.543 0.181 -0.543 0.407 0 0.226 -0.241 0.407 -0.543 0.407 -0.362 0 -0.543 0.181 -0.543 0.543 0 0.44 -0.181 0.543 -0.95 0.543 -0.769 0 -0.95 0.103 -0.95 0.543 0 0.44 -0.181 0.543 -0.95 0.543 -0.664 0 -0.95 0.123 -0.95 0.407 0 0.294 -0.302 0.407 -1.086 0.407 -0.905 0 -1.086 0.091 -1.086 0.543 0 0.471 -0.181 0.543 -1.358 0.543 -1.177 0 -1.358 0.072 -1.358 0.543 0 0.51 -0.181 0.543 -2.987 0.543 -2.474 0 -2.987 0.07 -2.987 0.407 0 0.328 -0.422 0.407 -2.172 0.407 -1.75 0 -2.172 -0.079 -2.172 -0.407 0 -0.323 -0.392 -0.407 -1.901 -0.407 -1.508 0 -1.901 0.084 -1.901 0.407 0 0.278 -0.281 0.408 -0.882 0.411 -1.29 0.005 -2.104 0.279 -2.104 0.707 0 0.207 -0.244 0.376 -0.543 0.376 -0.362 0 -0.543 0.181 -0.543 0.543 0 0.362 -0.181 0.543 -0.543 0.543 -0.299 0 -0.543 0.178 -0.543 0.395 0 0.236 -0.381 0.467 -0.95 0.573 -0.864 0.162 -0.95 0.262 -0.95 1.098 0 0.739 -0.107 0.92 -0.543 0.92 -0.505 0 -0.543 0.181 -0.543 2.579 0 2.398 0.038 2.579 0.543 2.579 0.302 0 0.543 0.181 0.543 0.407 0 0.226 0.241 0.407 0.543 0.407 0.362 0 0.543 0.181 0.543 0.543 0 0.302 0.181 0.543 0.407 0.543 0.226 0 0.407 0.241 0.407 0.543 0 0.362 0.181 0.543 0.543 0.543 0.302 0 0.543 0.181 0.543 0.407 0 0.294 0.302 0.407 1.086 0.407 0.905 0 1.086 0.091 1.086 0.543 0 0.469 0.181 0.543 1.326 0.543 1.098 0 1.35 0.093 1.468 0.543 0.121 0.461 0.37 0.543 1.661 0.543 1.169 0 1.519 0.094 1.519 0.407 0 0.323 0.392 0.407 1.901 0.407 1.72 0 1.901 0.052 1.901 0.543 0 0.505 0.181 0.543 2.579 0.543 2.398 0 2.579 0.038 2.579 0.543 0 0.502 0.181 0.543 2.412 0.543 2.184 0 2.425 0.051 2.554 0.543 0.128 0.49 0.37 0.543 2.475 0.543 1.893 0 2.333 0.077 2.333 0.407 0 0.313 0.347 0.407 1.493 0.407 1.312 0 1.493 0.066 1.493 0.543 0 0.483 0.181 0.543 1.629 0.543 1.206 0 1.629 0.097 1.629 0.376 0 0.428 0.814 0.701 2.104 0.707 0.602 0.002 0.882 0.133 0.882 0.411 0 0.313 0.347 0.407 1.493 0.407 1.312 0 1.493 0.066 1.493 0.543 0 0.362 0.181 0.543 0.543 0.543 0.299 0 0.543 0.178 0.543 0.395 0 0.236 0.381 0.467 0.95 0.573 0.544 0.102 0.95 0.339 0.95 0.555 0 0.25 0.32 0.377 0.95 0.377 0.769 0 0.95 0.103 0.95 0.543 0 0.362 0.181 0.543 0.543 0.543 0.362 0 0.543 0.181 0.543 0.543 0 0.299 0.178 0.543 0.395 0.543 0.236 0 0.467 0.381 0.573 0.95 0.102 0.544 0.339 0.95 0.555 0.95 0.207 0 0.377 0.244 0.377 0.543 0 0.362 0.181 0.543 0.543 0.543 0.44 0 0.543 0.181 0.543 0.95 0 0.664 0.123 0.95 0.407 0.95 0.35 0 0.407 0.845 0.407 5.973 0 5.128 -0.058 5.973 -0.407 5.973 -0.313 0 -0.407 0.347 -0.407 1.493 0 1.312 -0.066 1.493 -0.543 1.493 -0.362 0 -0.543 0.181 -0.543 0.543 0 0.299 -0.178 0.543 -0.395 0.543 -0.236 0 -0.467 0.381 -0.573 0.95 -0.102 0.544 -0.339 0.95 -0.555 0.95 -0.25 0 -0.377 0.32 -0.377 0.95 0 0.769 -0.103 0.95 -0.543 0.95 -0.362 0 -0.543 0.181 -0.543 0.543 0 0.302 -0.181 0.543 -0.407 0.543 -0.226 0 -0.407 0.241 -0.407 0.543 0 0.362 -0.181 0.543 -0.543 0.543 -0.44 0 -0.543 0.181 -0.543 0.95 0 0.769 -0.103 0.95 -0.543 0.95 -0.362 0 -0.543 0.181 -0.543 0.543 0 0.362 -0.181 0.543 -0.543 0.543 -0.299 0 -0.543 0.178 -0.543 0.395 0 0.236 -0.381 0.467 -0.95 0.573 -0.544 0.102 -0.95 0.339 -0.95 0.555 0 0.207 -0.244 0.377 -0.543 0.377 -0.362 0 -0.543 0.181 -0.543 0.543 0 0.302 -0.181 0.543 -0.407 0.543 -0.224 0 -0.407 0.17 -0.407 0.377 0 0.216 -0.406 0.453 -0.95 0.555 -0.569 0.107 -0.95 0.337 -0.95 0.573 0 0.217 -0.244 0.395 -0.543 0.395 -0.362 0 -0.543 0.181 -0.543 0.543 0 0.453 -0.181 0.543 -1.086 0.543 -0.784 0 -1.086 0.113 -1.086 0.407 0 0.284 -0.287 0.407 -0.95 0.407 -0.769 0 -0.95 0.103 -0.95 0.543 0 0.442 -0.181 0.543 -0.976 0.543 -0.747 0 -1.01 0.127 -1.118 0.543 -0.107 0.408 -0.37 0.543 -1.061 0.543 -0.738 0 -0.919 0.107 -0.919 0.543 0 0.491 -0.181 0.543 -1.901 0.543 -1.508 0 -1.901 0.084 -1.901 0.407 0 0.278 -0.281 0.408 -0.882 0.411 -1.29 0.005 -2.104 0.279 -2.104 0.707 0 0.293 -0.564 0.376 -2.579 0.376 -2.398 0 -2.579 0.038 -2.579 0.543 0 0.53 -0.181 0.543 -7.466 0.543 -7.285 0 -7.466 -0.013 -7.466 -0.543 z m 16.02 -3.937 c 0 -0.326 0.407 -0.407 2.036 -0.407 1.855 0 2.036 -0.048 2.036 -0.543 0 -0.466 0.182 -0.544 1.29 -0.547 1.676 -0.005 2.511 -0.24 2.511 -0.707 0 -0.257 0.342 -0.376 1.086 -0.376 0.784 0 1.086 -0.113 1.086 -0.407 0 -0.284 0.287 -0.407 0.95 -0.407 0.769 0 0.95 -0.103 0.95 -0.543 0 -0.362 0.181 -0.543 0.543 -0.543 0.362 0 0.543 -0.181 0.543 -0.543 0 -0.44 0.181 -0.543 0.95 -0.543 0.664 0 0.95 -0.123 0.95 -0.407 0 -0.226 0.241 -0.407 0.543 -0.407 0.362 0 0.543 -0.181 0.543 -0.543 0 -0.362 0.181 -0.543 0.543 -0.543 0.362 0 0.543 -0.181 0.543 -0.543 0 -0.302 0.181 -0.543 0.407 -0.543 0.226 0 0.407 -0.241 0.407 -0.543 0 -0.362 0.181 -0.543 0.543 -0.543 0.302 0 0.543 -0.181 0.543 -0.407 0 -0.226 0.241 -0.407 0.543 -0.407 0.362 0 0.543 -0.181 0.543 -0.543 0 -0.302 0.181 -0.543 0.407 -0.543 0.284 0 0.407 -0.287 0.407 -0.95 0 -0.769 0.103 -0.95 0.543 -0.95 0.453 0 0.543 -0.181 0.543 -1.086 0 -0.905 0.091 -1.086 0.543 -1.086 0.44 0 0.543 -0.181 0.543 -0.95 0 -0.664 0.123 -0.95 0.407 -0.95 0.348 0 0.407 -0.784 0.407 -5.43 0 -4.646 -0.059 -5.43 -0.407 -5.43 -0.253 0 -0.407 -0.256 -0.407 -0.679 0 -0.498 -0.145 -0.679 -0.543 -0.679 -0.302 0 -0.543 -0.181 -0.543 -0.407 0 -0.226 -0.241 -0.407 -0.543 -0.407 -0.438 0 -0.543 -0.181 -0.543 -0.938 0 -0.857 -0.082 -0.953 -0.95 -1.116 -0.544 -0.102 -0.95 -0.339 -0.95 -0.555 0 -0.25 -0.32 -0.377 -0.95 -0.377 -0.769 0 -0.95 -0.103 -0.95 -0.543 0 -0.453 -0.181 -0.543 -1.086 -0.543 -0.905 0 -1.086 -0.091 -1.086 -0.543 0 -0.44 -0.181 -0.543 -0.95 -0.543 -0.664 0 -0.95 -0.123 -0.95 -0.407 0 -0.326 -0.407 -0.407 -2.036 -0.407 -1.855 0 -2.036 -0.048 -2.036 -0.543 0 -0.477 -0.181 -0.543 -1.493 -0.543 -1.086 0 -1.493 -0.102 -1.493 -0.373 0 -0.455 -1.177 -0.713 -3.26 -0.713 -1.335 0 -1.584 -0.079 -1.705 -0.543 -0.125 -0.479 -0.37 -0.543 -2.068 -0.543 -1.531 0 -1.926 -0.083 -1.926 -0.407 0 -0.332 -0.453 -0.407 -2.444 -0.407 -2.263 0 -2.444 -0.04 -2.444 -0.543 0 -0.512 -0.181 -0.543 -3.122 -0.543 -2.941 0 -3.122 0.032 -3.122 0.543 0 0.477 -0.181 0.543 -1.493 0.543 -1.146 0 -1.493 0.095 -1.493 0.407 0 0.226 -0.241 0.407 -0.543 0.407 -0.362 0 -0.543 0.181 -0.543 0.543 0 0.44 -0.181 0.543 -0.95 0.543 -0.769 0 -0.95 0.103 -0.95 0.543 0 0.44 -0.181 0.543 -0.95 0.543 -0.769 0 -0.95 0.103 -0.95 0.543 0 0.362 -0.181 0.543 -0.543 0.543 -0.302 0 -0.543 0.181 -0.543 0.407 0 0.226 -0.241 0.407 -0.543 0.407 -0.362 0 -0.543 0.181 -0.543 0.543 0 0.362 -0.181 0.543 -0.543 0.543 -0.362 0 -0.543 0.181 -0.543 0.543 0 0.302 -0.181 0.543 -0.407 0.543 -0.224 0 -0.407 0.183 -0.407 0.407 0 0.226 -0.241 0.407 -0.543 0.407 -0.453 0 -0.543 0.181 -0.543 1.086 0 0.905 -0.091 1.086 -0.543 1.086 -0.302 0 -0.543 0.181 -0.543 0.407 0 0.224 -0.183 0.407 -0.407 0.407 -0.294 0 -0.407 0.302 -0.407 1.086 0 0.744 -0.118 1.086 -0.376 1.086 -0.504 0 -0.702 0.856 -0.707 3.054 -0.003 1.65 -0.058 1.833 -0.547 1.833 -0.502 0 -0.543 0.18 -0.539 2.376 0.004 2.726 0.175 3.597 0.707 3.597 0.272 0 0.377 0.395 0.379 1.425 0.005 1.806 0.229 2.647 0.707 2.647 0.257 0 0.376 0.342 0.376 1.086 0 0.784 0.113 1.086 0.407 1.086 0.224 0 0.407 0.183 0.407 0.407 0 0.224 0.231 0.407 0.513 0.407 0.371 0 0.562 0.263 0.691 0.95 0.107 0.569 0.337 0.95 0.573 0.95 0.24 0 0.395 0.266 0.395 0.679 0 0.498 0.145 0.679 0.543 0.679 0.302 0 0.543 0.181 0.543 0.407 0 0.284 0.287 0.407 0.95 0.407 0.769 0 0.95 0.103 0.95 0.543 0 0.362 0.181 0.543 0.543 0.543 0.362 0 0.543 0.181 0.543 0.543 0 0.44 0.181 0.543 0.95 0.543 0.664 0 0.95 0.123 0.95 0.407 0 0.282 0.283 0.407 0.919 0.407 0.69 0 0.954 0.135 1.061 0.543 0.118 0.451 0.37 0.543 1.493 0.543 1.123 0 1.375 0.092 1.493 0.543 0.125 0.479 0.37 0.543 2.068 0.543 1.531 0 1.926 0.083 1.926 0.407 0 0.349 0.799 0.407 5.566 0.407 4.766 0 5.566 -0.058 5.566 -0.407 z m 4.887 -73.03 c 0 -0.226 0.241 -0.407 0.543 -0.407 0.362 0 0.543 -0.181 0.543 -0.543 0 -0.453 0.181 -0.543 1.086 -0.543 0.905 0 1.086 -0.091 1.086 -0.543 0 -0.302 0.181 -0.543 0.407 -0.543 0.224 0 0.407 -0.183 0.407 -0.407 0 -0.226 0.241 -0.407 0.543 -0.407 0.362 0 0.543 -0.181 0.543 -0.543 0 -0.362 0.181 -0.543 0.543 -0.543 0.362 0 0.543 -0.181 0.543 -0.543 0 -0.302 0.181 -0.543 0.407 -0.543 0.284 0 0.407 -0.287 0.407 -0.95 0 -0.769 0.103 -0.95 0.543 -0.95 0.44 0 0.543 -0.181 0.543 -0.95 0 -0.769 0.103 -0.95 0.543 -0.95 0.453 0 0.543 -0.181 0.543 -1.086 0 -0.784 0.113 -1.086 0.407 -1.086 0.323 0 0.407 -0.392 0.407 -1.901 0 -1.432 0.092 -1.901 0.373 -1.901 0.575 0 0.713 -1.281 0.713 -6.652 0 -5.371 -0.137 -6.652 -0.713 -6.652 -0.284 0 -0.373 -0.49 -0.373 -2.036 0 -1.629 -0.082 -2.036 -0.407 -2.036 -0.284 0 -0.407 -0.287 -0.407 -0.95 0 -0.769 -0.103 -0.95 -0.543 -0.95 -0.44 0 -0.543 -0.181 -0.543 -0.95 0 -0.769 -0.103 -0.95 -0.543 -0.95 -0.453 0 -0.543 -0.181 -0.543 -1.086 0 -0.784 -0.113 -1.086 -0.407 -1.086 -0.284 0 -0.407 -0.287 -0.407 -0.95 0 -0.769 -0.103 -0.95 -0.543 -0.95 -0.362 0 -0.543 -0.181 -0.543 -0.543 0 -0.362 -0.181 -0.543 -0.543 -0.543 -0.302 0 -0.543 -0.181 -0.543 -0.407 0 -0.224 -0.183 -0.407 -0.407 -0.407 -0.226 0 -0.407 -0.241 -0.407 -0.543 0 -0.362 -0.181 -0.543 -0.543 -0.543 -0.362 0 -0.543 -0.181 -0.543 -0.543 0 -0.452 -0.181 -0.543 -1.086 -0.543 -0.784 0 -1.086 -0.113 -1.086 -0.407 0 -0.284 -0.287 -0.407 -0.95 -0.407 -0.769 0 -0.95 -0.103 -0.95 -0.543 0 -0.453 -0.181 -0.543 -1.086 -0.543 -0.744 0 -1.086 -0.118 -1.086 -0.376 0 -0.564 -0.891 -0.703 -4.548 -0.707 -3.146 -0.004 -3.326 0.026 -3.326 0.539 0 0.477 -0.181 0.543 -1.493 0.543 -1.312 0 -1.493 0.066 -1.493 0.543 0 0.44 -0.181 0.543 -0.95 0.543 -0.664 0 -0.95 0.123 -0.95 0.407 0 0.226 -0.241 0.407 -0.543 0.407 -0.362 0 -0.543 0.181 -0.543 0.543 0 0.362 -0.181 0.543 -0.543 0.543 -0.362 0 -0.543 0.181 -0.543 0.543 0 0.362 -0.181 0.543 -0.543 0.543 -0.302 0 -0.543 0.181 -0.543 0.407 0 0.224 -0.183 0.407 -0.407 0.407 -0.226 0 -0.407 0.241 -0.407 0.543 0 0.362 -0.181 0.543 -0.543 0.543 -0.44 0 -0.543 0.181 -0.543 0.95 0 0.769 -0.103 0.95 -0.543 0.95 -0.453 0 -0.543 0.181 -0.543 1.086 0 0.784 -0.113 1.086 -0.407 1.086 -0.323 0 -0.407 0.392 -0.407 1.901 0 1.72 -0.052 1.901 -0.543 1.901 -0.505 0 -0.543 0.181 -0.543 2.579 0 2.398 -0.038 2.579 -0.543 2.579 -0.503 0 -0.543 0.181 -0.543 2.469 0 2.241 0.05 2.482 0.543 2.611 0.499 0.13 0.543 0.37 0.543 2.961 0 2.638 0.035 2.819 0.543 2.819 0.483 0 0.543 0.181 0.543 1.629 0 1.267 0.091 1.629 0.407 1.629 0.309 0 0.407 0.335 0.407 1.383 0 1.155 0.09 1.406 0.543 1.525 0.408 0.107 0.543 0.37 0.543 1.061 0 0.738 0.107 0.919 0.543 0.919 0.362 0 0.543 0.181 0.543 0.543 0 0.302 0.181 0.543 0.407 0.543 0.226 0 0.407 0.241 0.407 0.543 0 0.362 0.181 0.543 0.543 0.543 0.44 0 0.543 0.181 0.543 0.95 0 0.769 0.103 0.95 0.543 0.95 0.362 0 0.543 0.181 0.543 0.543 0 0.362 0.181 0.543 0.543 0.543 0.302 0 0.543 0.181 0.543 0.407 0 0.284 0.287 0.407 0.95 0.407 0.769 0 0.95 0.103 0.95 0.543 0 0.44 0.181 0.543 0.95 0.543 0.769 0 0.95 0.103 0.95 0.543 0 0.44 0.181 0.543 0.95 0.543 0.664 0 0.95 0.123 0.95 0.407 0 0.349 0.799 0.407 5.566 0.407 4.766 0 5.566 -0.058 5.566 -0.407 z" style="opacity:0.99;fill-rule:evenodd"/><path d="m 41.525 50.595 v 15.679 h -18.888 v -15.392 c -11.02 -1.151 -19.675 -4.603 -25.971 -10.357 -6.296 -5.85 -9.613 -13.522 -9.95 -23.02 l 30.525 0.144 c 0.112 3.452 1.574 6.185 4.385 8.199 2.811 2.01 6.296 3.02 10.456 3.02 3.598 0 6.746 -0.767 9.444 -2.302 3.148 -1.63 4.722 -3.884 4.722 -6.761 c 0 -4.219 -5.059 -7.912 -15.178 -11.08 -15.07 -4.699 -24.454 -8.151 -28.16 -10.357 -10.119 -5.754 -15.178 -13.953 -15.178 -24.598 c 0 -8.727 3.317 -16.06 9.95 -22.01 6.408 -5.658 14.728 -9.06 24.959 -10.213 v -15.392 h 18.888 v 15.392 c 21.924 3.357 32.998 14.433 33.22 33.23 h -29.85 c 0 -3.644 -1.237 -6.617 -3.71 -8.918 -2.474 -2.397 -5.846 -3.596 -10.119 -3.596 -3.373 0 -6.296 0.815 -8.77 2.445 -2.811 1.726 -4.216 4.03 -4.216 6.905 0 3.644 5.116 7.144 15.347 10.501 14.953 4.699 24.51 8.295 28.67 10.788 10.231 5.85 15.347 13.905 15.347 24.17 0 9.11 -3.373 16.686 -10.119 22.728 -6.409 5.658 -15.01 9.254 -25.803 10.789" transform="matrix(0.52604 0 0 0.75606 148.81 921.79)" style="fill-opacity:0.941"/></g></g></svg>