<svg xmlns="http://www.w3.org/2000/svg" viewBox="0 0 256 256"><g transform="translate(0 -796.36)"><path d="m -1374.42 1658.71 c 127.95 -192.46 -280.09 -311 -226.07 -62.2 23.02 102.82 167.39 165.22 226.07 62.2 z" transform="matrix(0 1 -1 0 1711.48 2401.81)" style="fill:#fff;color:#000"/><path d="m 140.25 837.79 c -23.386 -3.606 -44.848 10.584 -48.12 31.816 l -4.238 27.485 l -9.649 -1.488 l -13.394 86.87 l 108.73 16.765 l 13.394 -86.87 l -8.931 -1.377 l 4.238 -27.485 c 3.274 -21.232 -12.918 -41.23 -36.3 -44.833 z m -1.076 17.01 l 3.479 0.536 c 14.208 2.191 23.642 16.768 21.22 32.695 l -3.092 20.296 l -54.774 -8.445 l 3.092 -20.296 c 2.426 -15.927 15.871 -26.977 30.08 -24.786 z m -8.652 71.78 c 6.638 1.258 11.154 7.05 10.227 13.11 -0.627 4.03 -3.574 7.385 -7.73 8.804 l 1.482 13.01 c -2.638 0.519 -5.382 0.602 -8.154 0.175 l -3.479 -0.536 c -2.772 -0.427 -5.358 -1.333 -7.714 -2.621 l 5.291 -12.05 c -3.438 -2.613 -5.171 -6.641 -4.566 -10.609 0.92 -5.955 6.777 -10.1 13.381 -9.467 l 1.262 0.191 z" style="fill:#ff4500;fill-rule:evenodd"/></g></svg>