<svg xmlns="http://www.w3.org/2000/svg" viewBox="0 0 256 256"><defs><clipPath><path transform="matrix(15.33333 0 0 11.5 415 -125.5)" d="m -24 13 c 0 1.105 -0.672 2 -1.5 2 -0.828 0 -1.5 -0.895 -1.5 -2 0 -1.105 0.672 -2 1.5 -2 0.828 0 1.5 0.895 1.5 2 z"/></clipPath></defs><g transform="translate(0 -796.36)"><path d="m 60.17 822.74 c 130.93 -92.05 263.6 77.948 156.91 186.39 -100.51 102.17 -256.68 7.449 -207.86 -119.69 10.185 -26.526 26.914 -49.802 50.948 -66.7 z" style="fill:#fff;color:#000"/><g transform="matrix(2.97674 0 0 3.03488 57.628 -2198.83)" style="fill:#ff4500"><g transform="scale(1 -1)"><path d="m 4 -1048.36 h 40 v 40 h -40 z"/><rect width="35" height="35" x="6.5" y="-1045.86" rx="1.418" style="fill-opacity:0.235"/><rect width="33.33" height="33.33" x="7.333" y="-1045.03" rx="1.35"/></g><g style="fill:#ffe4c4"><text y="1015.53" x="8.472" xml:space="preserve" line-height="125%" style="letter-spacing:0;word-spacing:0;font-size:1.389;font-family:Sans"><tspan y="1015.53" x="8.472">void setup()</tspan><tspan y="1017.27" x="8.472">{</tspan><tspan y="1019" x="8.472">  pinMode(ledPin, OUTPUT);</tspan><tspan y="1020.74" x="8.472">// sets the digital pin</tspan><tspan y="1022.48" x="8.472">as output</tspan><tspan y="1024.21" x="8.472">}</tspan><tspan y="1025.95" x="8.472">void loop()</tspan><tspan y="1027.69" x="8.472">{</tspan><tspan y="1029.42" x="8.472">digitalWrite(ledPin, HIGH);</tspan><tspan y="1031.16" x="8.472">digitalWrite(ledPin, LOW);</tspan><tspan y="1032.89" x="8.472">}</tspan></text><path d="m 8.673 1011.7 c -0.748 0 -1.339 0.591 -1.339 1.339 v 0.992 c 0 -0.748 0.591 -1.339 1.339 -1.339 h 30.655 c 0.748 0 1.339 0.591 1.339 1.339 v -0.992 c 0 -0.748 -0.591 -1.339 -1.339 -1.339 h -30.655 z"/><path d="m 8.673 1045.03 c -0.748 0 -1.339 -0.591 -1.339 -1.339 v -0.992 c 0 0.748 0.591 1.339 1.339 1.339 h 30.655 c 0.748 0 1.339 -0.591 1.339 -1.339 v 0.992 c 0 0.748 -0.591 1.339 -1.339 1.339 h -30.655 z"/><path d="m 40.667 1043.69 c 0 0.748 -0.591 1.339 -1.339 1.339 h -0.992 c 0.748 0 1.339 -0.591 1.339 -1.339 v -30.655 c 0 -0.748 -0.591 -1.339 -1.339 -1.339 h 0.992 c 0.748 0 1.339 0.591 1.339 1.339 v 30.655 z"/><path d="m 7.333 1043.69 c 0 0.748 0.591 1.339 1.339 1.339 h 0.992 c -0.748 0 -1.339 -0.591 -1.339 -1.339 v -30.655 c 0 -0.748 0.591 -1.339 1.339 -1.339 h -0.992 c -0.748 0 -1.339 0.591 -1.339 1.339 v 30.655 z"/></g></g></g></svg>