<svg xmlns="http://www.w3.org/2000/svg" xmlns:xlink="http://www.w3.org/1999/xlink" viewBox="0 0 256 256"><defs><path id="0" d="m 245.46 129.52 l -97.89 -96.9 c -5.556 -5.502 -16.222 -11.873 -23.7 -14.16 l -39.518 -12.08 c -7.479 -2.286 -18.1 0.391 -23.599 5.948 l -13.441 13.578 c -5.5 5.559 -14.502 14.653 -20 20.21 l -13.44 13.579 c -5.5 5.558 -8.07 16.206 -5.706 23.658 l 12.483 39.39 c 2.363 7.456 8.843 18.06 14.399 23.556 l 97.89 96.9 c 5.558 5.502 14.605 5.455 20.1 -0.101 l 36.26 -36.63 c 5.504 -5.559 14.503 -14.651 20 -20.21 l 36.26 -36.629 c 5.502 -5.56 5.455 -14.606 -0.101 -20.11 z m -178.09 -50.74 c -7.198 0 -13.03 -5.835 -13.03 -13.03 0 -7.197 5.835 -13.03 13.03 -13.03 7.197 0 13.03 5.835 13.03 13.03 -0.001 7.198 -5.836 13.03 -13.03 13.03 z"/><use id="1" xlink:href="#0"/><path id="8" d="m 69.01266 147.73235 c -1.586501 -0.32079 -4.610837 -1.95633 -5.865893 -3.17224 -1.243461 -1.20468 -1.772344 -2.35616 -1.772344 -3.85876 0 -1.2225 -0.147146 -1.19526 2.158674 -0.39958 0.800621 0.27627 0.952597 0.4629 1.01459 1.24597 0.100727 1.27234 0.824509 2.14176 2.522063 3.02955 1.878632 0.98249 3.592698 0.94324 4.368652 -0.10003 0.841903 -1.13194 0.421242 -1.92449 -2.321121 -4.37313 -3.229194 -2.88333 -3.686451 -3.51086 -3.685182 -5.05751 0.0012 -1.47506 0.714573 -2.76821 1.957238 -3.548 1.990427 -1.24901 6.75609 0.14036 9.242057 2.69442 0.915731 0.94081 1.075414 1.28987 1.182878 2.58574 0.07038 0.84867 0.01336 1.49811 -0.131523 1.49811 -0.140666 0 -0.825086 -0.19399 -1.520933 -0.43109 -0.981365 -0.33439 -1.265403 -0.56189 -1.266187 -1.01417 -0.0029 -1.6759 -2.485923 -3.54177 -4.48772 -3.37231 -0.721529 0.0611 -1.157694 0.29467 -1.559646 0.83528 -0.550266 0.74008 -0.550981 0.76352 -0.05154 1.69093 0.278553 0.51724 0.943513 1.26914 1.477689 1.6709 2.198032 1.65313 4.356505 3.96075 4.61997 4.93919 0.427727 1.58845 -0.450262 3.68377 -1.957374 4.67127 -0.837591 0.54881 -2.523317 0.74875 -3.924349 0.46546 z" style="fill:#fff;fill-rule:evenodd"/><clipPath id="2"><use xlink:href="#1"/></clipPath><clipPath><path d="M 14.03023,17.050123 L 13.89464,40.13169 L 54.66398,80.960819 L 77.76542,57.847236 L 36.96531,17.026322 L 14.03023,17.050123 z"/></clipPath><clipPath style="clip-path:url(#2)"><use xlink:href="#0"/></clipPath><clipPath style="clip-path:url(#2)"><use xlink:href="#0"/></clipPath><linearGradient y2="295.03641" x2="595.55969" y1="319.73001" x1="483.87009" gradientTransform="matrix(0.1222343 0 0 0.03779256 -8.9323626 12.764311)" gradientUnits="userSpaceOnUse" id="6"><stop/><stop offset="1"/></linearGradient><linearGradient y2="266.35721" x2="459.92059" y1="447.8848" x1="313.37689" gradientTransform="matrix(0.1222343 0 0 0.03779256 -8.9323626 12.764311)" gradientUnits="userSpaceOnUse" id="5"><stop style="stop-color:#3c0000"/><stop offset="1" style="stop-color:#cd0000"/></linearGradient><linearGradient y2="480.93359" x2="1035.653" y1="823.79071" x1="1204.3469" gradientTransform="matrix(0.5804303 0 0 0.5042151 -611.23881 240.44324)" gradientUnits="userSpaceOnUse" id="7"><stop style="stop-color:#c80000"/><stop offset="1" style="stop-color:#780000"/></linearGradient><radialGradient r="182.03979" cy="371.81049" cx="317.72061" gradientTransform="matrix(0.1624005 0 0 0.07954578 -28.627079 4.5085428)" gradientUnits="userSpaceOnUse" id="3" xlink:href="#4"/><radialGradient gradientUnits="userSpaceOnUse" gradientTransform="matrix(1.3286 0 0 2.1048 -161.1227 -218.4496)" r="182.03979" cy="371.81049" cx="317.72061" id="4"><stop style="stop-color:#f20000"/><stop offset="1" style="stop-color:#f00"/></radialGradient></defs><path d="m 128.7087 2.1274812 c 169.75 -19.2330002 167.39 256.0599988 -3.02 252.7999988 -158.490003 9.07 -172.790003 -267.799999 3.02 -252.7999988 z" style="fill:#fff;color:#000"/><g transform="matrix(2.7875804 1.407958 -1.4156088 2.6804014 92.768929 41.864945)"><g transform="matrix(-0.1151989 -0.00677931 -0.0219239 0.03547501 68.097508 22.66522)" style="stroke:#000"><path d="m 358.796 185.459 c 13.201 -13.289 8.415 -38.86 1.417 -57.634 -8.913 -23.911 -27.603 -43.238 -31.188 -69.391 -2.92 -21.284 5.656 -42.199 19.478 -57.949 9.176 -10.456 26.395 -34.682 15.559 -37.891 -2.257 -0.667 -15.54 24.749 -24.829 34.847 -15.475 16.825 -20.572 45.101 -18.831 63.605 1.879 19.986 18.387 40.045 27.369 57.295 5.876 11.28 9.156 23.702 10.174 36.234 0.551 6.805 -2.072 13.481 -5.194 19.533 -2.119 4.112 2.318 15.103 6.045 11.351 z" style="fill:#980000;stroke-width:0.85350001"/><g style="fill:none;stroke-width:0.77109998"><path d="m 352.636 174.199 c 0.575 2.232 6.792 7.978 8.502 8.845"/><path d="m 355.791 167.806 c 0.577 2.233 6.954 8.166 8.664 9.033"/><path d="m 357.369 162.244 c 0.576 2.231 6.953 8.166 8.664 9.032"/><path d="m 358.011 154.355 c 0.576 2.232 7.194 7.978 8.903 8.846"/><path d="m 357.006 147.133 c 1.107 2.022 7.837 6.074 9.709 6.494"/><path d="m 355.828 140.657 c 1.728 1.526 7.392 4.285 9.295 4.045"/><path d="m 354.435 135.015 c 1.728 1.526 7.527 4.552 9.43 4.312"/><path d="m 352.434 129.023 c 1.728 1.526 7.352 3.723 9.616 3.483"/><path d="m 349.84 122.365 c 1.726 1.525 7.5 3.643 9.402 3.403"/><path d="m 346.245 115.56 c 1.728 1.526 8.117 3.858 10.02 3.617"/><path d="m 342.59 109.154 c 1.726 1.526 8.542 3.938 10.446 3.697"/><path d="m 338.763 103.082 c 1.728 1.526 8.704 2.868 10.607 2.628"/><path d="m 335.077 96.984 c 1.728 1.526 8.489 2.414 10.392 2.173"/><path d="m 331.28 90.218 c 1.727 1.525 8.703 2.466 10.605 2.227"/><path d="m 327.955 84.031 c 1.726 1.526 8.702 2.413 10.603 2.173"/><path d="m 324.431 76.714 c 1.727 1.526 8.569 2.734 10.472 2.494"/><path d="m 321.916 69.466 c 1.727 1.525 8.49 2.76 10.391 2.519"/><path d="m 320.529 62.538 c 1.728 1.526 7.9 2.841 9.803 2.601"/><path d="m 320.146 56.057 c 1.726 1.526 6.829 2.546 8.732 2.306"/><path d="m 320.327 46.43 c 0.329 2.282 6.26 6.47 8.266 6.744"/><path d="m 321.404 37.243 c 0.328 2.281 5.322 7.032 7.115 7.493"/><path d="m 323.429 28.717 c 0.327 2.282 4.682 7.219 6.288 8.269"/><path d="m 325.721 20.532 c 0.329 2.282 4.654 7.433 6.261 8.482"/><path d="m 328.939 12.895 c 0.329 2.282 4.548 7.246 6.155 8.295"/><path d="m 333.012 5.981 c 0.327 2.282 3.905 7.406 5.512 8.455"/><path d="m 336.933 0.102 c 0.329 2.282 4.254 6.604 5.859 7.653"/><path d="m 341.527 -5.649 c 0.328 2.282 3.852 6.791 5.458 7.84"/><path d="m 346.269 -11.87 c 0.329 2.282 4.173 7.059 5.78 8.108"/><path d="m 350.796 -18.489 c 0.328 2.282 4.254 7.219 5.857 8.268"/><path d="m 354.745 -24.984 c 0.328 2.282 4.68 7.46 6.288 8.509"/><path d="m 359.766 -32.688 c 0.327 2.282 3.637 8.075 5.243 9.124"/></g></g><g transform="matrix(0.09658544 0 0 0.1136329 -1.7989873 -45.561883)"><g><g transform="matrix(0.9938919 -0.1103578 0.4596174 0.888117 0 0)" style="stroke-linecap:round;stroke-linejoin:round;stroke-dashoffset:5.4"><path d="M -136.446,449.478 H203.851 V669.102 H-136.446 z" style="stroke-opacity:0.35159816;fill:#ff4500;stroke:#ff4500;stroke-width:16.43206978"/><path d="M -153.528,431.075 H189.755 V655.811 H-153.528 z" style="fill:url(#7);stroke:#ff3232;stroke-width:16.93598747"/><path d="M -159.341,427.058 H198.684 V664.572 H-159.341 z" style="fill:none;stroke:#0c0c0c;stroke-width:2.27186441"/></g><g transform="matrix(2.9320391 -1.309083 1.548507 2.5918203 -318.20442 413.89261)"><use xlink:href="#8"/><use xlink:href="#8"/></g></g><g style="fill-rule:evenodd"><g transform="translate(-20.203051 -8.08122)"><g style="stroke-width:1.25"><path d="m 348.17116 490.71727 c 0 0 12.6707 -3.68424 12.15554 -5.90437 -1.03778 -8.74108 -20.3065 -27.60366 -26.2357 -30.48783 -23.35021 -3.48018 39.38938 30.79855 14.08016 36.3922 z" style="fill-opacity:0.24999994"/><path d="m 336.75136 524.37407 c 0 0 13.55737 -0.74625 14.06508 -2.82692 0.50771 -2.08067 -1.26818 -19.59611 -9.67409 -27.26602 -18.49098 -7.56225 19.45947 27.19164 -4.39099 30.09294 z" style="fill-opacity:0.23999999"/></g><g style="fill:#f00"><g style="stroke:#000;stroke-linejoin:round;stroke-width:3.43960142"><path d="m 305.83185 505.42793 c -0.86326 -2.20252 -12.42723 -13.61991 -5.92103 -30.49101 13.2241 -18.8546 80.83334 -26.56078 101.41118 -10.99195 20.57784 15.56884 25.72564 28.15009 24.23489 30.614 -6.12406 4.48009 -11.19198 6.19094 -18.6139 8.16318 0 0 -11.31878 -17.85338 -17.36539 -23.95409 -0.22967 -0.20509 8.43249 9.38432 17.36847 23.96004 5.71079 14.75704 10.8159 28.34374 10.8159 28.34374 -23.15188 4.54808 -44.99003 7.3591 -69.43185 7.27688 -3.21925 -1.41053 -18.94041 -20.67926 -24.08597 -29.25735 -5.83775 -9.9156 -9.4888 -24.45276 -9.4888 -24.45276 -0.52509 0.58869 6.35977 19.73315 9.68092 24.28954 -5.90398 1.16077 -16.69097 -2.4751 -18.60442 -3.50022 z"/><path d="m 362.26847 438.73034 c 5.6547 10.92656 -3.62915 21.33491 -20.72289 23.23293 -17.09373 1.89802 -35.55624 -5.42949 -41.21094 -16.35604 -5.6547 -10.92656 3.62917 -21.33492 20.72289 -23.23294 17.09374 -1.89802 35.55624 5.42949 41.21094 16.35605 z"/></g><g style="fill-opacity:0.24999994;stroke-width:1.25"><path d="m 321.37842 423.91812 c -15.34308 -2.09193 -37.44985 20.09964 -3.60834 34.05463 14.04526 -4.08991 -25.35395 -20.21121 3.60834 -34.05463 z"/><path d="m 324.74197 462.25936 c -1.62223 -0.0729 -20.21468 5.02797 -23.32039 13.72305 -4.50755 3.53695 -3.14281 17.80855 4.95106 28.54956 3.98747 1.58154 11.29123 4.06005 12.41812 3.17581 1.0847 -15.04965 -34.63908 -26.5183 5.95121 -45.44842 z"/><path d="m 317.04706 488.41751 c 1.5604 15.26202 20.75238 40.7121 31.80339 48.59438 7.45979 0.94296 17.12134 0.62929 18.97142 -0.0822 -4.51755 -12.40329 -30.32211 -7.7668 -50.77481 -48.51217 z"/></g></g><g style="stroke-width:1.25"><g style="fill-opacity:0.24999994"><path d="m 342.37101 460.80798 c 22.62448 -8.33199 4.7625 -29.37507 19.24619 -24.65735 1.45383 4.64628 6.15468 21.07783 -19.24619 24.65735 z"/><path d="m 413.10537 499.5128 c 0 0 12.6707 -3.68424 12.15554 -5.90438 -1.03778 -8.74108 -20.3065 -27.60366 -26.2357 -30.48783 -23.35021 -3.48018 39.38938 30.79856 14.08016 36.39221 z"/></g><path d="m 401.68557 533.16959 c 0 0 13.55737 -0.74624 14.06508 -2.82692 0.50771 -2.08067 -1.26818 -19.5961 -9.67409 -27.26601 -18.49098 -7.56226 19.45947 27.19164 -4.39099 30.09293 z" style="fill-opacity:0.23999999"/></g></g><g transform="translate(-4.04061 -22.223356)" style="fill:#fff"><g style="fill-opacity:0.24999994;stroke-width:1.25"><path d="m 194.82005 451.93388 c -1.62223 -0.0729 -20.21468 5.02797 -23.32039 13.72305 -4.50755 3.53695 -3.14281 17.80855 4.95106 28.54956 3.98747 1.58154 11.29123 4.06005 12.41812 3.17581 1.0847 -15.04965 -34.63908 -26.5183 5.95121 -45.44842 z"/><path d="m 187.12514 478.09203 c 1.5604 15.26202 20.75238 40.7121 31.80339 48.59438 7.45979 0.94296 17.12134 0.62929 18.97142 -0.0822 -4.51755 -12.40329 -30.32211 -7.7668 -50.77481 -48.51217 z"/></g><g style="stroke:#000;stroke-linejoin:round;stroke-width:3.43960142"><path d="m 146.87693 536.20458 c -0.86326 -2.20252 -12.42723 -13.61992 -5.92103 -30.49101 13.2241 -18.85461 80.83334 -26.56079 101.41118 -10.99195 20.57784 15.56884 25.72563 28.15009 24.23488 30.61399 -6.12406 4.48009 -11.19197 6.19095 -18.61389 8.16319 0 0 -11.31879 -17.85339 -17.3654 -23.9541 -0.22967 -0.20508 8.43249 9.38433 17.36847 23.96005 5.7108 14.75703 10.81591 28.34373 10.81591 28.34373 -23.15188 4.54808 -44.99003 7.35911 -69.43185 7.27689 -3.21925 -1.41053 -18.94041 -20.67926 -24.08597 -29.25735 -5.83775 -9.91561 -9.4888 -24.45277 -9.4888 -24.45277 -0.52509 0.5887 6.35977 19.73316 9.68092 24.28955 -5.90398 1.16077 -16.69097 -2.4751 -18.60442 -3.50022 z"/><path d="m 203.31355 469.50699 c 5.6547 10.92655 -3.62916 21.33491 -20.72289 23.23293 -17.09373 1.89802 -35.55624 -5.42949 -41.21094 -16.35605 -5.6547 -10.92655 3.62916 -21.33491 20.72289 -23.23293 17.09374 -1.89802 35.55624 5.42949 41.21094 16.35605 z"/></g><g style="stroke-width:1.25"><g style="fill-opacity:0.24999994"><path d="m 162.42349 454.69476 c -15.34308 -2.09192 -37.44984 20.09964 -3.60834 34.05463 14.04527 -4.0899 -25.35394 -20.2112 3.60834 -34.05463 z"/><path d="m 165.78705 493.03601 c -1.62223 -0.0729 -20.21468 5.02797 -23.32039 13.72305 -4.50755 3.53695 -3.14282 17.80854 4.95105 28.54955 3.98747 1.58155 11.29123 4.06005 12.41812 3.17582 1.0847 -15.04965 -34.63907 -26.51831 5.95122 -45.44842 z"/><path d="m 158.09214 519.19416 c 1.56039 15.26202 20.75238 40.7121 31.80339 48.59438 7.45978 0.94296 17.12133 0.62929 18.97141 -0.0822 -4.51754 -12.4033 -30.3221 -7.7668 -50.7748 -48.51217 z"/><path d="m 183.41609 491.58462 c 22.62447 -8.33199 4.7625 -29.37507 19.24618 -24.65734 1.45384 4.64628 6.15469 21.07782 -19.24618 24.65734 z"/><path d="m 254.15045 530.28944 c 0 0 12.6707 -3.68424 12.15554 -5.90437 -1.03778 -8.74108 -20.3065 -27.60366 -26.23571 -30.48783 -23.35021 -3.48018 39.38939 30.79856 14.08017 36.3922 z"/></g><path d="m 242.73064 563.94624 c 0 0 13.55738 -0.74625 14.06508 -2.82692 0.50771 -2.08067 -1.26817 -19.5961 -9.67408 -27.26601 -18.49098 -7.56226 19.45947 27.19163 -4.391 30.09293 z" style="fill-opacity:0.23999999"/></g></g></g></g><path d="M 16.70261,24.250037 4.1990199,28.10348 4.2293347,43.061323 41.742669,43.0569 41.724089,28.099096 29.210842,24.248563 16.70261,24.250037 z m 6.256316,1.735132 c 1.080307,-1.13e-4 1.954894,0.272749 1.955259,0.607818 3.67e-4,0.335031 -0.873485,0.606269 -1.953791,0.606382 -1.080063,1.51e-4 -1.960639,-0.270898 -1.961004,-0.605929 -3.67e-4,-0.335031 0.879352,-0.608119 1.959536,-0.608271 z" style="fill:url(#3);stroke:url(#5);stroke-width:0.21233647"/><path d="m 22.971884,25.458605 c -1.944748,2.27e-4 -3.523647,0.490322 -3.522915,1.093491 8.56e-4,0.603168 1.580978,1.091372 3.525726,1.091146 1.944747,-2.27e-4 3.518758,-0.488846 3.517901,-1.092015 -7.32e-4,-0.603132 -1.576088,-1.092886 -3.520712,-1.092622 z m 6.1e-4,0.569194 c 0.930203,-1.14e-4 1.684634,0.235221 1.685,0.523654 3.67e-4,0.288508 -0.753453,0.522444 -1.683532,0.522596 -0.930081,1.13e-4 -1.689278,-0.23371 -1.689768,-0.522143 -4.89e-4,-0.288508 0.758342,-0.524031 1.6883,-0.524107 z" style="fill:#f00;stroke:url(#6);stroke-linecap:square;stroke-width:0.13399741"/><g transform="matrix(0.1156696 -0.00594793 0.01931348 0.03562248 6.0535132 22.503981)" style="stroke:#000"><path d="m 124.576,143.133 c 13.199,-13.289 8.415,-38.862 1.416,-57.634 C 117.078,61.588 98.389,42.26 94.804,16.108 c -2.919,-21.284 5.656,-42.199 19.477,-57.95 9.175,-10.456 26.397,-34.681 15.56,-37.89 -2.258,-0.668 -15.54,24.748 -24.829,34.847 -15.475,16.824 -20.573,45.1 -18.831,63.603 1.88,19.985 18.386,40.045 27.37,57.295 5.875,11.28 9.156,23.702 10.173,36.234 0.552,6.805 -2.071,13.481 -5.193,19.533 -2.121,4.112 2.317,15.104 6.045,11.353 z" style="fill:#980000;stroke-width:0.85350001"/><g style="fill:none;stroke-width:0.77109998"><path d="m 118.415 131.872 c 0.576 2.23 6.794 7.979 8.501 8.845"/><path d="m 121.57 125.48 c 0.577 2.232 6.952 8.166 8.664 9.033"/><path d="m 123.149 119.917 c 0.576 2.231 6.951 8.165 8.664 9.033"/><path d="m 123.789 112.027 c 0.578 2.233 7.193 7.978 8.906 8.846"/><path d="m 122.787 104.805 c 1.107 2.022 7.836 6.074 9.708 6.495"/><path d="m 121.607 98.331 c 1.728 1.526 7.393 4.285 9.296 4.045"/><path d="m 120.216 92.687 c 1.728 1.526 7.527 4.552 9.429 4.312"/><path d="m 118.213 86.697 c 1.728 1.526 7.352 3.724 9.615 3.484"/><path d="m 115.618 80.036 c 1.729 1.526 7.5 3.643 9.403 3.403"/><path d="m 112.024 73.233 c 1.729 1.526 8.115 3.857 10.018 3.617"/><path d="m 108.368 66.827 c 1.727 1.526 8.542 3.937 10.445 3.697"/><path d="m 104.543 60.755 c 1.727 1.525 8.703 2.867 10.607 2.627"/><path d="m 100.857 54.657 c 1.728 1.526 8.489 2.414 10.391 2.173"/><path d="m 97.06 47.892 c 1.727 1.526 8.703 2.466 10.604 2.227"/><path d="m 93.733 41.704 c 1.728 1.526 8.702 2.412 10.605 2.172"/><path d="m 90.209 34.386 c 1.728 1.526 8.569 2.734 10.472 2.494"/><path d="m 87.694 27.138 c 1.729 1.526 8.489 2.761 10.392 2.521"/><path d="m 86.308 20.212 c 1.727 1.525 7.9 2.841 9.803 2.6"/><path d="m 85.924 13.729 c 1.728 1.526 6.831 2.546 8.734 2.306"/><path d="m 86.108 4.103 c 0.328 2.281 6.259 6.47 8.266 6.744"/><path d="m 87.185 -5.084 c 0.329 2.281 5.323 7.032 7.116 7.493"/><path d="m 89.208 -13.609 c 0.329 2.282 4.681 7.219 6.286 8.268"/><path d="m 91.5 -21.796 c 0.329 2.281 4.655 7.433 6.26 8.482"/><path d="m 94.719 -29.432 c 0.328 2.282 4.548 7.246 6.153 8.295"/><path d="m 98.791 -36.347 c 0.329 2.282 3.907 7.406 5.512 8.456"/><path d="m 102.713 -42.226 c 0.329 2.281 4.253 6.604 5.858 7.653"/><path d="m 107.306 -47.978 c 0.329 2.281 3.852 6.791 5.458 7.84"/><path d="m 112.049 -54.197 c 0.328 2.281 4.173 7.059 5.779 8.106"/><path d="m 116.575 -60.818 c 0.328 2.282 4.254 7.22 5.859 8.268"/><path d="m 120.524 -67.311 c 0.328 2.281 4.681 7.46 6.286 8.509"/><path d="m 125.545 -75.016 c 0.328 2.282 3.638 8.075 5.244 9.124"/></g></g><g transform="matrix(0.28319228 -0.1487549 0.14956323 0.29451606 -32.532901 1.4699341)"><use xlink:href="#8"/><g style="fill:#fff;fill-rule:evenodd"><path d="M 87.742746,157.30375 C 84.18895,156.461 81.6506,154.04287 81.66189,151.51088 c 0.0069,-1.54976 0.258823,-1.70594 1.77755,-1.10204 0.976552,0.38831 1.313262,0.6603 1.271199,1.02685 -0.129433,1.12793 0.50238,2.26568 1.556928,2.80367 1.384127,0.70613 1.943371,0.67466 2.941873,-0.16552 1.195497,-1.00595 1.178901,-2.47572 -0.03953,-3.50096 -0.479389,-0.40338 -1.14266,-0.85691 -1.473935,-1.00785 l -0.602318,-0.27444 0.534531,-1.04777 c 0.531932,-1.04267 0.538378,-1.04577 1.325282,-0.63885 1.225657,0.63381 2.774023,0.52904 3.493076,-0.23635 0.852452,-0.9074 0.707484,-2.47872 -0.29762,-3.22595 -0.875388,-0.6508 -2.506668,-0.6679 -3.207541,-0.0336 -0.445814,0.40345 -0.572419,0.38261 -1.704079,-0.28059 -0.672367,-0.39403 -1.166471,-0.86094 -1.098009,-1.03756 0.06846,-0.17663 0.570486,-0.62539 1.115608,-0.99725 1.920937,-1.31039 5.290087,-0.71805 7.475929,1.31437 1.626601,1.51242 1.941814,3.15455 0.945728,4.92684 -0.747411,1.32984 -2.062046,1.9794 -3.644991,1.80098 -0.648292,-0.0731 -1.178713,-0.074 -1.178713,-0.002 0,0.0719 0.306682,0.37192 0.681515,0.66677 1.534059,1.20669 1.854232,2.92562 0.868941,4.66514 -0.896184,1.58219 -2.978622,2.53801 -4.660566,2.13916 z"/><path d="m 97.749187,162.43687 c -2.528655,-1.2732 -4.633195,-2.34699 -4.676756,-2.38619 -0.04356,-0.0392 0.127327,-0.50438 0.379753,-1.03372 l 0.458955,-0.96244 1.879129,0.94631 c 1.033521,0.52048 1.907938,0.90808 1.943148,0.86135 0.325993,-0.43268 5.018994,-9.54733 5.018994,-9.74779 0,-0.16653 -0.80239,-0.19367 -2.16356,-0.0732 -1.213142,0.10739 -2.163552,0.0868 -2.163552,-0.0469 0,-0.19102 0.535761,-1.10588 0.984138,-1.6805 0.04494,-0.0576 1.140554,-0.20123 2.434684,-0.31918 2.18981,-0.19959 2.44365,-0.16851 3.66075,0.44824 l 1.30778,0.6627 -0.71265,1.41437 c -0.39195,0.77791 -1.79231,3.44162 -3.11189,5.91937 -1.31959,2.47775 -2.39926,4.63617 -2.39926,4.79649 0,0.16033 0.72503,0.6575 1.61118,1.10482 l 1.61118,0.81333 -0.46179,0.81152 c -0.25398,0.44634 -0.58349,0.80586 -0.73223,0.79892 -0.14875,-0.007 -2.33935,-1.05432 -4.868003,-2.32753 z"/><path d="m 112.34185 159.40402 c -1.93017 -0.87675 -2.61288 -2.59932 -1.77813 -4.48643 1.55415 -3.5134 6.78814 -2.24536 6.79167 1.64543 0.001 1.32973 -0.7641 2.43337 -2.06404 2.97652 -1.16232 0.48565 -1.62924 0.46419 -2.9495 -0.13552 z m 2.79082 -1.53526 c 0.76123 -0.53318 0.8378 -2.26217 0.12779 -2.88564 -1.13541 -0.99702 -2.70789 -0.75298 -3.28312 0.50953 -0.42224 0.9267 -0.37917 1.27165 0.26025 2.08453 0.6529 0.83003 1.94111 0.95978 2.89508 0.29158 z"/><path d="m 126.02277,176.65499 c -2.72508,-0.53418 -5.13943,-2.81876 -5.35552,-5.06766 -0.0728,-0.75768 -0.009,-1.40125 0.14947,-1.49896 0.15237,-0.0942 0.80587,0.0555 1.45221,0.33252 1.02056,0.43746 1.21705,0.65996 1.49349,1.69114 0.70184,2.61806 4.1021,2.94052 5.35986,0.5083 0.46891,-0.90679 0.52503,-2.24064 0.12566,-2.98688 -0.402,-0.75115 -1.78813,-1.38704 -2.82816,-1.29743 -0.52263,0.045 -1.46413,-0.18814 -2.2545,-0.55833 l -1.35711,-0.63564 2.1666,-3.5472 c 1.19164,-1.95096 2.26158,-3.6471 2.37765,-3.76921 0.16266,-0.17111 8.1122,3.54567 8.6455,4.04218 0.0639,0.0594 -0.0871,0.53411 -0.33539,1.05482 l -0.45148,0.94676 -2.97304,-1.49104 c -1.63518,-0.82007 -3.08796,-1.49104 -3.22842,-1.49104 -0.23897,0 -2.18764,2.98255 -2.18764,3.34832 0,0.0921 0.43991,0.16746 0.97757,0.16746 2.40806,0 4.97221,2.46041 4.97221,4.77104 0,1.38166 -1.15851,3.70998 -2.25912,4.54029 -0.7188,0.54227 -2.69708,1.29901 -3.14977,1.20486 -0.0744,-0.0155 -0.6774,-0.13441 -1.34007,-0.2643 z"/><path d="m 134.85827 181.11976 l -1.29402 -0.67348 l 0.48269 -0.82086 c 1.31305 -2.23301 5.46614 -5.53928 9.33973 -7.43537 0.85528 -0.41865 1.55506 -0.85811 1.55506 -0.97657 0 -0.11846 -1.62686 -1.02617 -3.61524 -2.01714 l -3.61524 -1.80176 l 0.55399 -0.96902 c 0.30469 -0.53296 0.58626 -1.01313 0.6257 -1.06705 0.059 -0.0806 9.49021 4.71662 9.79669 4.98316 0.0522 0.0454 -0.16851 0.55122 -0.49046 1.12406 -0.37501 0.66723 -1.03943 1.28106 -1.84886 1.70806 -3.86396 2.03835 -7.52435 5.00701 -9.02029 7.31564 -0.47364 0.73095 -0.93194 1.32333 -1.01845 1.3164 -0.0865 -0.007 -0.73959 -0.31566 -1.4513 -0.68607 z"/><path d="m 149.64889,177.0067 -0.83694,-0.46194 1.16553,-2.50269 1.16553,-2.5027 1.23511,0.60006 c 0.67931,0.33004 1.2008,0.72943 1.15886,0.88754 -0.1836,0.69214 -2.53629,4.45694 -2.7807,4.44969 -0.14875,-0.004 -0.64707,-0.21589 -1.10739,-0.46996 z"/><path d="m 138.92434,206.95391 c -2.64021,-1.33161 -4.80039,-2.48734 -4.80039,-2.56829 0,-0.081 0.18575,-0.50637 0.41277,-0.94538 l 0.41277,-0.79821 1.60785,0.81164 c 0.88432,0.4464 1.76345,0.8098 1.95362,0.80756 0.2873,-0.003 5.03331,-8.64176 5.29665,-9.64062 0.0556,-0.21091 -0.25593,-0.28037 -0.94656,-0.21105 -0.56619,0.0568 -1.60204,0.1523 -2.3019,0.21216 l -1.27246,0.10885 0.52107,-1.02137 0.52107,-1.02137 2.53132,-0.18978 c 2.26978,-0.17018 2.6478,-0.13036 3.65867,0.38534 0.62004,0.31633 1.12735,0.71302 1.12735,0.88155 0,0.16852 -1.29388,2.75217 -2.87528,5.74144 -1.58141,2.98927 -2.98359,5.64493 -3.11596,5.90147 -0.19961,0.38683 0.0372,0.60671 1.38783,1.2885 0.89569,0.45214 1.62852,0.88722 1.62852,0.96683 0,0.18086 -0.80313,1.7458 -0.88589,1.72621 -0.0334,-0.008 -2.22084,-1.10386 -4.86105,-2.43548 z"/><path d="m 151.81245,201.88758 -0.83694,-0.46194 1.16553,-2.5027 1.16552,-2.50269 1.23511,0.60006 c 0.67932,0.33004 1.2008,0.72943 1.15886,0.88754 -0.18359,0.69214 -2.53629,4.45694 -2.7807,4.44969 -0.14874,-0.004 -0.64706,-0.21589 -1.10738,-0.46996 z"/><path d="m 128.18633,201.53587 c -2.72508,-0.53418 -5.13944,-2.81876 -5.35553,-5.06766 -0.0728,-0.75768 -0.009,-1.40125 0.14947,-1.49896 0.15237,-0.0942 0.83569,0.0682 1.51848,0.36092 0.88033,0.37735 1.24143,0.68856 1.24143,1.06991 0,2.08697 2.81157,3.51458 4.53892,2.3047 1.22046,-0.85484 1.78986,-2.96195 1.13239,-4.19045 -0.402,-0.75115 -1.78812,-1.38704 -2.82815,-1.29743 -0.52263,0.045 -1.46414,-0.18814 -2.25451,-0.55833 l -1.35711,-0.63564 2.16661,-3.5472 c 1.19163,-1.95096 2.26158,-3.6471 2.37765,-3.76921 0.16266,-0.17111 8.11219,3.54567 8.6455,4.04218 0.0638,0.0594 -0.0871,0.53411 -0.3354,1.05482 l -0.45147,0.94676 -2.97305,-1.49104 c -1.63517,-0.82007 -3.08796,-1.49104 -3.22841,-1.49104 -0.23898,0 -2.18764,2.98255 -2.18764,3.34832 0,0.0921 0.4399,0.16746 0.97757,0.16746 2.40806,0 4.9722,2.46041 4.9722,4.77104 0,1.38166 -1.15851,3.70998 -2.25912,4.54029 -0.7188,0.54227 -2.69708,1.299 -3.14976,1.20486 -0.0744,-0.0155 -0.67741,-0.13441 -1.34007,-0.2643 z"/><path d="m 114.5054 184.2849 c -1.93017 -0.87675 -2.61288 -2.59932 -1.77812 -4.48643 1.55414 -3.5134 6.78813 -2.24536 6.79167 1.64543 0.001 1.32973 -0.76411 2.43337 -2.06405 2.97652 -1.16231 0.48565 -1.62924 0.46419 -2.9495 -0.13552 z m 2.79083 -1.53526 c 0.76123 -0.53318 0.83779 -2.26217 0.12778 -2.88564 -1.49256 -1.31065 -3.55545 -0.40019 -3.57969 1.5799 -0.002 0.16587 0.24854 0.62224 0.55682 1.01416 0.6529 0.83003 1.94111 0.95978 2.89509 0.29158 z"/><path d="m 101.43988 188.01835 c -2.145012 -0.42174 -4.54063 -2.20938 -5.160932 -3.85114 -0.35218 -0.93213 -0.376503 -2.53239 -0.04164 -2.73935 0.135307 -0.0836 0.804657 0.0874 1.487444 0.38009 0.880331 0.37736 1.241431 0.68857 1.241431 1.06992 0 2.08696 2.811577 3.51458 4.538927 2.30469 1.22046 -0.85484 1.78986 -2.96195 1.13239 -4.19045 -0.40824 -0.76279 -1.7542 -1.36628 -2.90622 -1.30304 -0.62705 0.0344 -1.48435 -0.19128 -2.271369 -0.59796 l -1.26416 -0.65324 l 2.210719 -3.56191 c 1.21589 -1.95906 2.28898 -3.63971 2.38464 -3.73478 0.13816 -0.13731 8.15105 3.6707 8.59638 4.0853 0.0638 0.0594 -0.0871 0.53411 -0.3354 1.05483 l -0.45147 0.94675 l -2.97305 -1.49104 c -1.63517 -0.82007 -3.08796 -1.49104 -3.22841 -1.49104 -0.23898 0 -2.18764 2.98255 -2.18764 3.34832 0 0.0921 0.4399 0.16746 0.97757 0.16746 2.40806 0 4.9722 2.46041 4.9722 4.77105 0 1.38165 -1.15851 3.70997 -2.25912 4.54028 -0.7188 0.54227 -2.69708 1.29901 -3.14976 1.20486 -0.0744 -0.0155 -0.66501 -0.13229 -1.31253 -0.2596 z"/><path d="m 87.93269 181.30099 c -2.57293 -1.31619 -4.728598 -2.44363 -4.790374 -2.5054 -0.06178 -0.0618 0.124666 -0.50202 0.414316 -0.97831 l 0.526637 -0.86598 l 1.759477 0.86763 c 1.099382 0.54213 1.848669 0.77026 1.997216 0.60807 0.336366 -0.36726 5.233464 -9.62931 5.128095 -9.69895 -0.04778 -0.0316 -1.090978 0.0105 -2.318223 0.0934 -1.227245 0.083 -2.23127 0.12737 -2.231166 0.0987 0.000104 -0.0287 0.249452 -0.47463 0.554107 -0.99098 0.545117 -0.9239 0.59065 -0.94188 2.865481 -1.13137 2.080087 -0.17327 2.444387 -0.13034 3.63797 0.4287 0.729523 0.34169 1.326406 0.69892 1.326406 0.79384 0 0.0949 -1.39955 2.81202 -3.11011 6.03798 -1.710561 3.22596 -3.11011 5.92484 -3.11011 5.99751 0 0.0727 0.7302 0.50073 1.622666 0.95124 0.892466 0.45052 1.622666 0.88987 1.622666 0.97633 0 0.25938 -0.916563 1.7288 -1.072476 1.71939 -0.07949 -0.005 -2.249648 -1.08562 -4.822578 -2.40182 z"/><path d="m 75.843195,175.14776 c -2.528655,-1.27321 -4.64979,-2.36359 -4.713635,-2.42308 -0.06385,-0.0595 0.08728,-0.53461 0.335835,-1.05583 l 0.451915,-0.94768 1.876269,0.94487 1.876268,0.94488 2.588284,-4.8754 c 1.423557,-2.68147 2.588284,-4.9482 2.588284,-5.03719 0,-0.089 -1.034683,-0.0888 -2.299296,4.7e-4 l -2.299297,0.16226 0.593872,-1.03187 0.593873,-1.03188 2.394526,-0.16997 c 2.195065,-0.15581 2.504174,-0.1144 3.710854,0.49707 l 1.316328,0.66703 -1.758185,3.32 c -0.967002,1.82599 -2.421601,4.56346 -3.232442,6.08327 l -1.474256,2.76328 1.757827,0.88772 1.757826,0.88772 -0.557373,0.87894 c -0.306555,0.48342 -0.636696,0.8725 -0.733648,0.86463 -0.09695,-0.008 -2.245174,-1.05604 -4.773829,-2.32924 z"/></g></g><path d="m 7.9716852,41.56084 c -1.1620899,0.0015 -2.1113018,-0.03093 -2.1093596,-0.07214 0.00194,-0.0412 0.00394,-1.210211 0.00444,-2.597806 4.997e-4,-1.387596 0.006,-2.54147 0.012226,-2.564166 0.00622,-0.02271 0.9310924,-0.03697 2.0552608,-0.03172 l 2.0439452,0.0095 0.00531,0.386777 0.00531,0.386778 -1.5404537,0.0055 -1.5404552,0.0055 -0.010724,0.66177 c -0.0059,0.363971 0.00259,0.687988 0.018863,0.720035 0.016275,0.03205 0.6604241,0.0549 1.4314407,0.05078 l 1.4018485,-0.0075 0.013782,0.346917 c 0.00758,0.190803 -0.014759,0.361908 -0.049642,0.380232 -0.034883,0.01832 -0.6776467,0.0354 -1.4283648,0.03795 -0.7507181,0.0025 -1.3692495,0.02098 -1.3745159,0.04095 -0.024002,0.09104 -0.026195,1.380876 -0.00243,1.42768 0.014702,0.02895 0.7345597,0.04946 1.5996752,0.04557 0.8651143,-0.0039 1.5915756,-0.0017 1.6143566,0.0049 0.03683,0.01069 0.01477,0.750891 -0.02257,0.757115 -0.0083,0.0014 -0.9658689,0.0038 -2.12796,0.0053 l 0,0 z" style="fill:#fff;fill-rule:evenodd"/></g></svg>