<svg xmlns="http://www.w3.org/2000/svg" viewBox="0 0 256 256"><g transform="translate(0 -796.36)"><path d="m 54.15 1026.57 c 188.96 126.21 305.35 -276.27 61.07 -222.99 -100.95 22.706 -162.22 165.11 -61.07 222.99" style="fill:#fff;color:#000"/><g transform="matrix(-18.32155 -0.30435 0.17792 21.52094 262.7 779.84)" style="fill:#ff4500"><rect x="4.233" y="3.387" width="5.644" height="7.338" ry="0.552" rx="0.579" style="fill-opacity:0.098"/><g transform="matrix(0.28222 0 0 0.28222 0.61 0.033)"><g><rect rx="2.052" ry="1.955" height="26" width="20" y="11" x="14"/><g><rect rx="2.073" ry="1.995" height="20" width="18" y="12" x="15"/><circle transform="matrix(0.03081 0 0 0.03081 36.5 8)" cx="-194.72" cy="860.01" r="48.681" style="opacity:0.636"/></g><circle transform="matrix(0.02054 0 0 0.02054 34.5 16.834)" cx="-194.72" cy="860.01" r="48.681" style="fill:#ffdead;opacity:0.636"/><g style="fill:#ffa07a"><rect x="16" y="13" width="16" height="18" ry="1.907" rx="1.968"/><path d="m 32,22 -16,4 0,2 16,-4 z" style="fill:#ffe4c4"/></g></g><g style="fill:#ffdead;fill-rule:evenodd"><path d="m 24.508 25.5 c -0.221 -1.124 -0.614 -2.06 -1.089 -2.926 -0.352 -0.642 -0.76 -1.236 -1.137 -1.859 -0.125 -0.209 -0.235 -0.427 -0.354 -0.644 -0.242 -0.431 -0.439 -0.932 -0.427 -1.581 0.011 -0.636 0.191 -1.144 0.448 -1.561 0.421 -0.684 1.129 -1.246 2.08 -1.393 0.775 -0.121 1.505 0.083 2.02 0.395 0.421 0.252 0.749 0.592 0.996 0.993 0.26 0.417 0.439 0.91 0.454 1.554 0.008 0.33 -0.046 0.636 -0.119 0.888 -0.075 0.256 -0.195 0.471 -0.302 0.699 -0.208 0.447 -0.469 0.856 -0.733 1.265 -0.781 1.22 -1.516 2.466 -1.837 4.17" style="fill-opacity:0.098"/><path d="m 24.01 25 c -0.221 -1.124 -0.614 -2.06 -1.089 -2.926 -0.352 -0.642 -0.76 -1.236 -1.137 -1.859 -0.125 -0.209 -0.235 -0.427 -0.354 -0.644 -0.242 -0.431 -0.439 -0.932 -0.427 -1.581 0.011 -0.636 0.191 -1.144 0.448 -1.561 0.421 -0.684 1.129 -1.246 2.08 -1.393 0.775 -0.121 1.505 0.083 2.02 0.395 0.421 0.252 0.749 0.592 0.996 0.993 0.26 0.417 0.439 0.91 0.454 1.554 0.008 0.33 -0.046 0.636 -0.119 0.888 -0.075 0.256 -0.195 0.471 -0.302 0.699 -0.208 0.447 -0.469 0.856 -0.733 1.265 -0.781 1.22 -1.516 2.466 -1.837 4.17"/><path d="m 25.4 18.1 c 0 0.773 -0.626 1.4 -1.399 1.4 -0.774 0 -1.401 -0.627 -1.401 -1.4 0 -0.773 0.628 -1.4 1.401 -1.4 0.774 0 1.399 0.627 1.399 1.4"/></g></g></g></g></svg>