<svg xmlns="http://www.w3.org/2000/svg" viewBox="0 0 256 256"><defs><clipPath><path d="m 47 24 c 0 12.708 -10.304 23 -23 23 -12.696 0 -23 -10.292 -23 -23 0 -12.708 10.304 -23 23 -23 12.696 0 23 10.292 23 23 z"/></clipPath></defs><g transform="translate(0 -796.36)" style="color:#000"><path d="m 226.93 1010.87 c -91.29 114.88 -279.65 -32.29 -212.92 -156.06 62.875 -116.61 254.17 -43.08 241.37 83.5 c -2.671 26.409 -11.7 51.48 -28.459 72.56 z" style="fill:#fff;stroke-width:1.303"/><g transform="matrix(4.47314 0 0 4.59212 19.496 812.4)" style="fill:#ff4500"><path d="m 13,13 0,8 4,4 -4,4 0,8 8,0 4,-4 4,4 8,0 0,-8 -4,-4 4,-4 0,-8 -8,0 -4,4 -4,-4 -8,0 z" style="opacity:0.1"/><path d="m 12,12 0,8 4,4 -4,4 0,8 8,0 4,-4 4,4 8,0 0,-8 -4,-4 4,-4 0,-8 -8,0 -4,4 -4,-4 -8,0 z"/><path d="m 13,13 0,7 4,4 -4,4 0,7 7,0 4,-4 4,4 7,0 0,-7 -4,-4 4,-4 0,-7 -7,0 -4,4 -4,-4 -7,0 z" style="fill:#ffdead"/><path d="m 14,14 0,6 4,4 -4,4 0,6 6,0 4,-4 4,4 6,0 0,-6 -4,-4 4,-4 0,-6 -6,0 -4,4 -4,-4 z"/></g></g></svg>