<svg xmlns="http://www.w3.org/2000/svg" xmlns:xlink="http://www.w3.org/1999/xlink" viewBox="0 0 256 256"><defs><clipPath><path transform="matrix(15.33333 0 0 11.5 415 -125.5)" d="m -24 13 c 0 1.105 -0.672 2 -1.5 2 -0.828 0 -1.5 -0.895 -1.5 -2 0 -1.105 0.672 -2 1.5 -2 0.828 0 1.5 0.895 1.5 2 z" style="fill:#1890d0"/></clipPath><clipPath id="0"><path transform="matrix(15.33333 0 0 11.5 415 -125.5)" d="m -24 13 c 0 1.105 -0.672 2 -1.5 2 -0.828 0 -1.5 -0.895 -1.5 -2 0 -1.105 0.672 -2 1.5 -2 0.828 0 1.5 0.895 1.5 2 z" style="fill:#1890d0"/></clipPath><clipPath id="1"><path transform="matrix(15.33333 0 0 11.5 415 -125.5)" d="m -24 13 c 0 1.105 -0.672 2 -1.5 2 -0.828 0 -1.5 -0.895 -1.5 -2 0 -1.105 0.672 -2 1.5 -2 0.828 0 1.5 0.895 1.5 2 z" style="fill:#1890d0"/></clipPath></defs><g transform="translate(0 -796.36)"><path d="m 60.17 822.74 c 130.93 -92.05 263.6 77.948 156.91 186.39 -100.51 102.17 -256.68 7.449 -207.86 -119.69 10.185 -26.526 26.914 -49.802 50.948 -66.7 z" style="fill:#fff;color:#fff"/><g transform="matrix(5.37235 0 0 5.38957 -2.98 791.5)" style="fill:#ff4500"><g style="clip-path:url(#1)"><g transform="translate(1 1)" style="opacity:0.1"><path d="m 17.98 15.438 l 5.988 -3.438 l 6 3.418 l 0.012 6.852 l -5.992 3.438 l -6 -3.414" id="2"/><path d="m 12 25.73 l 5.992 -3.438 l 6 3.414 l 0.016 6.855 l -5.992 3.438 l -6 -3.418"/><path d="m 23.992 25.707 l 5.992 -3.438 l 6 3.418 l 0.012 6.855 l -5.992 3.438 l -6 -3.418"/></g></g><g style="clip-path:url(#0)"><g><use xlink:href="#2"/><path d="m 12 25.73 l 5.992 -3.438 l 6 3.414 l 0.016 6.855 l -5.992 3.438 l -6 -3.418" style="fill:#dc143c"/><path d="m 23.992 25.707 l 5.992 -3.438 l 6 3.418 l 0.012 6.855 l -5.992 3.438 l -6 -3.418" style="fill:#8b0000"/></g></g></g></g></svg>