<svg xmlns="http://www.w3.org/2000/svg" xmlns:xlink="http://www.w3.org/1999/xlink" viewBox="0 0 256 256"><defs><path d="m 52.27 27.831 c -2.327 -0.196 -4.722 -0.056 -7.171 0.401 -5.869 1.094 -10.302 3.718 -13.05 7.881 l -0.002 0.029 c -2.739 4.148 -3.467 9.353 -2.327 15.467 1.137 6.098 3.708 10.705 7.758 13.603 4.063 2.876 9.138 3.745 15.01 2.651 2.681 -0.5 5.169 -1.348 7.421 -2.502 2.247 -1.171 4.233 -2.641 5.954 -4.418 l 0.345 -0.359 l -0.087 -0.476 l -2.927 -15.622 l -0.177 -0.923 l -0.923 0.177 l -12.912 2.392 l -0.952 0.175 l 0.177 0.923 l 0.774 4.048 l 0.175 0.952 l 0.923 -0.177 l 7.111 -1.316 l 1.541 8.213 c -0.808 0.635 -1.689 1.193 -2.75 1.65 -1.234 0.515 -2.686 0.939 -4.372 1.254 -4.277 0.797 -7.525 0.219 -9.981 -1.658 -2.442 -1.881 -4.163 -5.139 -5.05 -9.904 -0.889 -4.768 -0.452 -8.411 1.137 -11.04 0.005 -0.008 -0.003 -0.022 0.002 -0.029 1.617 -2.625 4.439 -4.361 8.705 -5.156 2.151 -0.401 4.245 -0.391 6.323 -0.013 2.079 0.378 4.127 1.113 6.15 2.269 l 1.788 1.024 l -0.372 -2.023 l -0.964 -5.236 l -0.115 -0.507 l -0.487 -0.207 c -2.106 -0.837 -4.325 -1.346 -6.667 -1.538 z" id="0" style="opacity:0.2;stroke:#000;color:#000"/><clipPath><rect x="6" y="6" width="84" height="84" rx="6" style="fill:#f00"/></clipPath><linearGradient id="1" gradientUnits="userSpaceOnUse" y1="90.87" x2="0" y2="6.761"><stop/><stop offset="1" style="stop-opacity:0.588"/></linearGradient><radialGradient id="2" gradientUnits="userSpaceOnUse" gradientTransform="matrix(1.1573 0 0 0.99591 -7.551 0.197)" cx="48" cy="90.17" r="42"><stop style="stop-color:#f00"/><stop offset="1" style="stop-color:#f00;stop-opacity:0"/></radialGradient><radialGradient r="20.16" gradientTransform="matrix(1.94626 0.1185 -0.08724 1.33753 -32.485 -23.05)" cx="40.453" cy="49.669" gradientUnits="userSpaceOnUse" id="3"><stop style="stop-color:#f60000"/><stop offset="1" style="stop-color:#f80000"/></radialGradient></defs><path d="m 24.967 203.22 c -127.95 -192.46 280.09 -311 226.07 -62.2 -23.02 102.82 -167.39 165.22 -226.07 62.2 z" style="fill:#fff;color:#000"/><g transform="matrix(1.57774 0 0 1.54833 53.895 54.613)"><g style="fill:#ffa07a"><path d="M 12,4 C 6.4913,4 2,8.4913 2,14 v 71 c 0,5.5087 4.4913,10 10,10 h 72 c 5.5087,0 10,-4.4913 10,-10 V 14 C 94,8.4913 89.509,4 84,4 H 12 z" style="opacity:0.08"/><path d="m 12,5.03 c -4.946,0 -8.969,4.02 -8.969,8.969 v 71 c 0,4.946 4.02,8.969 8.969,8.969 h 72 c 4.946,0 8.969,-4.02 8.969,-8.969 v -71 C 92.969,9.053 88.949,5.03 84,5.03 H 12 z m -0.031,7.938 h 2.063 v 0.063 h -2.063 v -0.063 z m 70,0 h 2.063 v 0.063 h -2.063 v -0.063 z m -70,8 h 2.063 v 0.063 h -2.063 v -0.063 z m 70,0 h 2.063 v 0.063 h -2.063 v -0.063 z m -70,8 h 2.063 v 0.063 h -2.063 v -0.063 z m 70,0 h 2.063 v 0.063 h -2.063 v -0.063 z m -70,8 h 2.063 v 0.063 h -2.063 v -0.063 z m 70,0 h 2.063 v 0.063 h -2.063 v -0.063 z m -70,8 h 2.063 v 0.063 h -2.063 v -0.063 z m 70,0 h 2.063 v 0.063 h -2.063 v -0.063 z m -70,8 h 2.063 v 0.063 h -2.063 v -0.063 z m 70,0 h 2.063 v 0.063 h -2.063 v -0.063 z m -70,8 h 2.063 v 0.063 h -2.063 v -0.063 z m 70,0 h 2.063 v 0.063 h -2.063 v -0.063 z m -70,8 h 2.063 v 0.063 h -2.063 v -0.063 z m 70,0 h 2.063 v 0.063 h -2.063 v -0.063 z m -70,8 h 2.063 v 0.063 h -2.063 v -0.063 z m 70,0 h 2.063 v 0.063 h -2.063 v -0.063 z m -70,8 h 2.063 v 0.063 h -2.063 v -0.063 z m 70,0 h 2.063 v 0.063 h -2.063 v -0.063 z" style="opacity:0.1"/><path d="M 12,6 C 7.58,6 4,9.58 4,14 v 71 c 0,4.42 3.58,8 8,8 h 72 c 4.42,0 8,-3.58 8,-8 V 14 C 92,9.58 88.42,6 84,6 H 12 z m -1,6 h 4 v 2 h -4 v -2 z m 70,0 h 4 v 2 h -4 v -2 z m -70,8 h 4 v 2 h -4 v -2 z m 70,0 h 4 v 2 h -4 v -2 z m -70,8 h 4 v 2 h -4 v -2 z m 70,0 h 4 v 2 h -4 v -2 z m -70,8 h 4 v 2 h -4 v -2 z m 70,0 h 4 v 2 h -4 v -2 z m -70,8 h 4 v 2 h -4 v -2 z m 70,0 h 4 v 2 h -4 v -2 z m -70,8 h 4 v 2 h -4 v -2 z m 70,0 h 4 v 2 h -4 v -2 z m -70,8 h 4 v 2 h -4 v -2 z m 70,0 h 4 v 2 h -4 v -2 z m -70,8 h 4 v 2 h -4 v -2 z m 70,0 h 4 v 2 h -4 v -2 z m -70,8 h 4 v 2 h -4 v -2 z m 70,0 h 4 v 2 h -4 v -2 z m -70,8 h 4 v 2 h -4 v -2 z m 70,0 h 4 v 2 h -4 v -2 z" style="opacity:0.2"/><path d="M 12,7 C 8.122,7 5,10.122 5,14 v 71 c 0,3.878 3.122,7 7,7 h 72 c 3.878,0 7,-3.122 7,-7 V 14 C 91,10.122 87.878,7 84,7 H 12 z m -2,4 h 6 v 4 h -6 v -4 z m 70,0 h 6 v 4 h -6 v -4 z m -70,8 h 6 v 4 h -6 v -4 z m 70,0 h 6 v 4 h -6 v -4 z m -70,8 h 6 v 4 h -6 v -4 z m 70,0 h 6 v 4 h -6 v -4 z m -70,8 h 6 v 4 h -6 v -4 z m 70,0 h 6 v 4 h -6 v -4 z m -70,8 h 6 v 4 h -6 v -4 z m 70,0 h 6 v 4 h -6 v -4 z m -70,8 h 6 v 4 h -6 v -4 z m 70,0 h 6 v 4 h -6 v -4 z m -70,8 h 6 v 4 h -6 v -4 z m 70,0 h 6 v 4 h -6 v -4 z m -70,8 h 6 v 4 h -6 v -4 z m 70,0 h 6 v 4 h -6 v -4 z m -70,8 h 6 v 4 h -6 v -4 z m 70,0 h 6 v 4 h -6 v -4 z m -70,8 h 6 v 4 h -6 v -4 z m 70,0 h 6 v 4 h -6 v -4 z" style="opacity:0.3"/></g><path d="M 12,7 C 8.676,7 6,9.676 6,13 v 72 c 0,3.324 2.676,6 6,6 h 72 c 3.324,0 6,-2.676 6,-6 V 13 C 90,9.676 87.324,7 84,7 H 12 z m -2,4 h 6 v 4 h -6 v -4 z m 70,0 h 6 v 4 h -6 v -4 z m -70,8 h 6 v 4 h -6 v -4 z m 70,0 h 6 v 4 h -6 v -4 z m -70,8 h 6 v 4 h -6 v -4 z m 70,0 h 6 v 4 h -6 v -4 z m -70,8 h 6 v 4 h -6 v -4 z m 70,0 h 6 v 4 h -6 v -4 z m -70,8 h 6 v 4 h -6 v -4 z m 70,0 h 6 v 4 h -6 v -4 z m -70,8 h 6 v 4 h -6 v -4 z m 70,0 h 6 v 4 h -6 v -4 z m -70,8 h 6 v 4 h -6 v -4 z m 70,0 h 6 v 4 h -6 v -4 z m -70,8 h 6 v 4 h -6 v -4 z m 70,0 h 6 v 4 h -6 v -4 z m -70,8 h 6 v 4 h -6 v -4 z m 70,0 h 6 v 4 h -6 v -4 z m -70,8 h 6 v 4 h -6 v -4 z m 70,0 h 6 v 4 h -6 v -4 z" style="fill:url(#1);opacity:0.45"/><path d="M 12,6 C 8.676,6 6,8.676 6,12 v 72 c 0,3.324 2.676,6 6,6 h 72 c 3.324,0 6,-2.676 6,-6 V 12 C 90,8.676 87.324,6 84,6 H 12 z m -2,4 h 6 v 4 h -6 v -4 z m 70,0 h 6 v 4 h -6 v -4 z m -70,8 h 6 v 4 h -6 v -4 z m 70,0 h 6 v 4 h -6 v -4 z m -70,8 h 6 v 4 h -6 v -4 z m 70,0 h 6 v 4 h -6 v -4 z m -70,8 h 6 v 4 h -6 v -4 z m 70,0 h 6 v 4 h -6 v -4 z m -70,8 h 6 v 4 h -6 v -4 z m 70,0 h 6 v 4 h -6 v -4 z m -70,8 h 6 v 4 h -6 v -4 z m 70,0 h 6 v 4 h -6 v -4 z m -70,8 h 6 v 4 h -6 v -4 z m 70,0 h 6 v 4 h -6 v -4 z m -70,8 h 6 v 4 h -6 v -4 z m 70,0 h 6 v 4 h -6 v -4 z m -70,8 h 6 v 4 h -6 v -4 z m 70,0 h 6 v 4 h -6 v -4 z m -70,8 h 6 v 4 h -6 v -4 z m 70,0 h 6 v 4 h -6 v -4 z" style="fill:#ff4500"/><g style="fill:#ffa07a"><rect x="20" y="24" width="56" height="48" ry="2.1" rx="2"/><path id="4" d="m 22,18 c -1.108,0 -2,-0.93 -2,-2.094 V 6 h 56 v 9.906 C 76,17.07 75.108,18 74,18 H 22 z"/><path d="M 12,6 C 8.676,6 6,8.676 6,12 l 0,2 0,68 0,2 c 0,0.335 0.041,0.651 0.094,0.969 0.049,0.296 0.097,0.597 0.188,0.875 0.01,0.03 0.021,0.064 0.031,0.094 0.099,0.288 0.235,0.547 0.375,0.813 0.145,0.274 0.316,0.536 0.5,0.781 0.184,0.246 0.374,0.473 0.594,0.688 0.44,0.428 0.943,0.815 1.5,1.094 0.279,0.14 0.573,0.247 0.875,0.344 -0.256,-0.1 -0.487,-0.236 -0.719,-0.375 -0.007,-0.004 -0.024,0.004 -0.031,0 C 9.375,89.264 9.345,89.24 9.313,89.22 9.193,89.143 9.082,89.056 8.969,88.97 8.863,88.889 8.756,88.809 8.656,88.72 8.478,88.558 8.309,88.374 8.156,88.189 8.049,88.058 7.938,87.923 7.844,87.782 7.819,87.744 7.806,87.696 7.781,87.657 7.716,87.554 7.651,87.453 7.594,87.345 7.493,87.15 7.388,86.929 7.313,86.72 7.305,86.698 7.289,86.679 7.282,86.657 7.25,86.565 7.246,86.47 7.22,86.376 7.19,86.269 7.15,86.173 7.126,86.063 7.053,85.722 7.001,85.365 7.001,85.001 l 0,-2 0,-68 0,-2 c 0,-2.782 2.218,-5 5,-5 l 2,0 43.968569,0 24.031431,0 2,0 c 2.782,0 5,2.218 5,5 l 0,2 0,68 0,2 c 0,0.364 -0.052,0.721 -0.125,1.063 -0.044,0.207 -0.088,0.398 -0.156,0.594 -0.008,0.022 -0.023,0.041 -0.031,0.063 -0.063,0.174 -0.138,0.367 -0.219,0.531 -0.042,0.083 -0.079,0.17 -0.125,0.25 -0.055,0.097 -0.127,0.188 -0.188,0.281 -0.094,0.141 -0.205,0.276 -0.313,0.406 -0.143,0.174 -0.303,0.347 -0.469,0.5 -0.011,0.01 -0.02,0.021 -0.031,0.031 -0.138,0.126 -0.285,0.234 -0.438,0.344 -0.103,0.073 -0.204,0.153 -0.313,0.219 -0.007,0.004 -0.024,-0.004 -0.031,0 -0.232,0.139 -0.463,0.275 -0.719,0.375 0.302,-0.097 0.596,-0.204 0.875,-0.344 0.557,-0.279 1.06,-0.666 1.5,-1.094 0.22,-0.214 0.409,-0.442 0.594,-0.688 0.185,-0.246 0.355,-0.508 0.5,-0.781 0.14,-0.265 0.276,-0.525 0.375,-0.813 0.01,-0.031 0.021,-0.063 0.031,-0.094 0.09,-0.278 0.139,-0.579 0.188,-0.875 C 89.959,84.651 90,84.335 90,84 l 0,-2 0,-68 0,-2 C 90,8.676 87.324,6 84,6 z" style="opacity:0.25"/></g><path d="M 12,90 C 8.676,90 6,87.324 6,84 V 82 14 12 C 6,11.665 6.041,11.349 6.094,11.031 6.143,10.735 6.191,10.434 6.282,10.156 6.292,10.126 6.303,10.093 6.313,10.062 6.412,9.775 6.548,9.515 6.688,9.25 6.833,8.976 7.004,8.714 7.188,8.469 7.372,8.223 7.562,7.996 7.782,7.781 8.222,7.353 8.725,6.967 9.282,6.687 9.561,6.547 9.855,6.44 10.157,6.343 9.901,6.443 9.671,6.579 9.438,6.718 9.431,6.722 9.414,6.713 9.407,6.718 9.375,6.737 9.345,6.761 9.313,6.781 9.193,6.858 9.082,6.945 8.969,7.031 8.863,7.112 8.756,7.192 8.656,7.281 8.478,7.442 8.309,7.626 8.156,7.812 8.049,7.942 7.938,8.077 7.844,8.218 7.819,8.256 7.806,8.304 7.781,8.343 7.716,8.446 7.651,8.547 7.594,8.655 7.493,8.85 7.388,9.071 7.313,9.28 7.305,9.302 7.289,9.321 7.282,9.343 7.25,9.435 7.246,9.53 7.22,9.624 7.19,9.731 7.15,9.827 7.126,9.937 7.053,10.278 7.001,10.635 7.001,11 v 2 68 2 c 0,2.782 2.218,5 5,5 h 2 68 2 c 2.782,0 5,-2.218 5,-5 V 81 13 11 c 0,-0.364 -0.052,-0.721 -0.125,-1.063 C 88.832,9.73 88.788,9.539 88.72,9.343 88.712,9.321 88.696,9.302 88.689,9.28 88.626,9.106 88.55,8.913 88.47,8.749 88.428,8.666 88.391,8.579 88.345,8.499 88.29,8.402 88.218,8.311 88.157,8.218 88.063,8.077 87.952,7.942 87.845,7.812 87.702,7.637 87.542,7.465 87.376,7.312 87.365,7.302 87.356,7.291 87.345,7.281 87.206,7.156 87.06,7.047 86.907,6.937 86.805,6.864 86.703,6.784 86.595,6.718 c -0.007,-0.005 -0.024,0.004 -0.031,0 -0.232,-0.139 -0.463,-0.275 -0.719,-0.375 0.302,0.097 0.596,0.204 0.875,0.344 0.557,0.279 1.06,0.666 1.5,1.094 0.22,0.214 0.409,0.442 0.594,0.688 0.185,0.246 0.355,0.508 0.5,0.781 0.14,0.265 0.276,0.525 0.375,0.813 0.01,0.031 0.021,0.063 0.031,0.094 0.09,0.278 0.139,0.579 0.188,0.875 0.053,0.318 0.094,0.634 0.094,0.969 v 2 68 2 c 0,3.324 -2.676,6 -6,6 h -72 z" style="fill:url(#2);opacity:0.15"/><g transform="matrix(1 0 0 0.92488 0 3.857)" style="fill:#dc143c"><use xlink:href="#0" width="1" height="1" style="stroke-width:6"/><use xlink:href="#0" width="1" height="1" style="stroke-width:4"/><use xlink:href="#0" width="1" height="1" style="stroke-width:2"/></g><path d="m 51.841 27.827 c -2.284 -0.186 -4.634 -0.053 -7.04 0.38 -5.76 1.037 -10.111 3.525 -12.808 7.473 l -0.002 0.028 c -2.688 3.933 -3.403 8.869 -2.284 14.666 1.116 5.782 3.639 10.15 7.614 12.898 3.988 2.727 8.968 3.551 14.731 2.514 2.631 -0.474 5.073 -1.278 7.283 -2.372 2.205 -1.11 4.154 -2.504 5.843 -4.189 l 0.339 -0.34 l -0.085 -0.451 l -2.873 -14.813 l -0.174 -0.875 l -0.906 0.168 l -12.672 2.268 l -0.934 0.166 l 0.174 0.875 l 0.76 3.838 l 0.172 0.903 l 0.906 -0.168 l 6.979 -1.248 l 1.512 7.788 c -0.793 0.602 -1.658 1.131 -2.699 1.565 -1.211 0.488 -2.636 0.89 -4.291 1.189 -4.198 0.756 -7.385 0.208 -9.796 -1.572 -2.397 -1.784 -4.086 -4.873 -4.956 -9.391 -0.872 -4.521 -0.444 -7.975 1.116 -10.468 0.005 -0.008 -0.003 -0.021 0.002 -0.028 1.587 -2.489 4.357 -4.135 8.543 -4.889 2.111 -0.38 4.166 -0.371 6.206 -0.012 2.04 0.358 4.05 1.055 6.04 2.151 l 1.755 0.971 l -0.365 -1.918 l -0.946 -4.965 l -0.113 -0.481 l -0.478 -0.196 c -2.066 -0.794 -4.244 -1.275 -6.542 -1.457 z" style="fill:url(#3);color:#000"/></g></svg>