<svg xmlns="http://www.w3.org/2000/svg" viewBox="0 0 256 256"><g transform="translate(0 -796.36)"><path d="m 21.87 986.53 c -127.45 -255.36 349.88 -253.67 207.23 5.832 -39.16 71.24 -159.18 90.44 -207.23 -5.832 z" style="fill:#fff;color:#000"/><g transform="translate(0 796.36)" style="fill-rule:evenodd"><path d="m 126.05 184.57 c 0 -0.41 -0.559 -0.503 -3.02 -0.503 -2.461 0 -3.02 -0.093 -3.02 -0.503 0 -0.392 -0.447 -0.503 -2.01 -0.503 -1.566 0 -2.01 -0.112 -2.01 -0.503 0 -0.373 -0.392 -0.503 -1.51 -0.503 -1.119 0 -1.51 -0.131 -1.51 -0.503 0 -0.336 -0.336 -0.503 -1.01 -0.503 -0.671 0 -1.01 -0.168 -1.01 -0.503 0 -0.364 -0.373 -0.503 -1.342 -0.503 -0.97 0 -1.342 -0.14 -1.342 -0.503 0 -0.336 -0.336 -0.503 -1.01 -0.503 -0.671 0 -1.01 -0.168 -1.01 -0.503 0 -0.277 -0.227 -0.503 -0.503 -0.503 -0.277 0 -0.503 -0.227 -0.503 -0.503 0 -0.28 -0.298 -0.503 -0.671 -0.503 -0.373 0 -0.671 -0.224 -0.671 -0.503 0 -0.313 -0.317 -0.503 -0.839 -0.503 -0.522 0 -0.839 -0.19 -0.839 -0.503 0 -0.336 -0.336 -0.503 -1.01 -0.503 -0.671 0 -1.01 -0.168 -1.01 -0.503 0 -0.277 -0.227 -0.503 -0.503 -0.503 -0.277 0 -0.503 -0.227 -0.503 -0.503 0 -0.277 -0.227 -0.503 -0.503 -0.503 -0.277 0 -0.503 -0.227 -0.503 -0.503 0 -0.277 -0.227 -0.503 -0.503 -0.503 -0.277 0 -0.503 -0.227 -0.503 -0.503 0 -0.277 -0.227 -0.503 -0.503 -0.503 -0.277 0 -0.503 -0.227 -0.503 -0.503 0 -0.277 -0.227 -0.503 -0.503 -0.503 -0.277 0 -0.503 -0.227 -0.503 -0.503 0 -0.277 -0.227 -0.503 -0.503 -0.503 -0.277 0 -0.503 -0.227 -0.503 -0.503 0 -0.277 -0.146 -0.503 -0.324 -0.503 -0.407 0 -2.696 -2.267 -2.696 -2.67 0 -0.164 -0.453 -0.752 -1.01 -1.305 -0.554 -0.554 -1.01 -1.174 -1.01 -1.379 0 -0.205 -0.227 -0.459 -0.503 -0.565 -0.277 -0.106 -0.503 -0.392 -0.503 -0.635 0 -0.243 -0.453 -0.895 -1.01 -1.449 -0.554 -0.554 -1.01 -1.245 -1.01 -1.536 0 -0.291 -0.227 -0.529 -0.503 -0.529 -0.313 0 -0.503 -0.317 -0.503 -0.839 0 -0.522 -0.19 -0.839 -0.503 -0.839 -0.352 0 -0.503 -0.354 -0.503 -1.175 0 -0.82 -0.152 -1.175 -0.503 -1.175 -0.336 0 -0.503 -0.336 -0.503 -1.01 0 -0.671 -0.168 -1.01 -0.503 -1.01 -0.364 0 -0.503 -0.373 -0.503 -1.343 0 -0.97 -0.14 -1.342 -0.503 -1.342 -0.352 0 -0.503 -0.354 -0.503 -1.175 0 -0.82 -0.152 -1.175 -0.503 -1.175 -0.373 0 -0.503 -0.392 -0.503 -1.51 0 -1.119 -0.131 -1.51 -0.503 -1.51 -0.364 0 -0.503 -0.373 -0.503 -1.343 0 -0.97 -0.14 -1.342 -0.503 -1.342 -0.403 0 -0.503 -0.503 -0.503 -2.517 0 -2.01 -0.101 -2.517 -0.503 -2.517 -0.423 0 -0.503 -0.727 -0.503 -4.531 0 -3.804 -0.081 -4.531 -0.503 -4.531 -0.42 0 -0.503 -0.671 -0.503 -4.03 0 -3.356 0.084 -4.03 0.503 -4.03 0.422 0 0.503 -0.709 0.503 -4.363 0 -3.655 0.082 -4.363 0.503 -4.363 0.392 0 0.503 -0.448 0.503 -2.01 0 -1.566 0.112 -2.01 0.503 -2.01 0.373 0 0.503 -0.392 0.503 -1.51 0 -1.119 0.131 -1.51 0.503 -1.51 0.373 0 0.503 -0.392 0.503 -1.51 0 -1.119 0.131 -1.51 0.503 -1.51 0.336 0 0.503 -0.336 0.503 -1.01 0 -0.671 0.168 -1.01 0.503 -1.01 0.336 0 0.503 -0.336 0.503 -1.01 0 -0.671 0.168 -1.01 0.503 -1.01 0.336 0 0.503 -0.336 0.503 -1.01 0 -0.671 0.168 -1.01 0.503 -1.01 0.336 0 0.503 -0.336 0.503 -1.01 0 -0.671 0.168 -1.01 0.503 -1.01 0.336 0 0.503 -0.336 0.503 -1.01 0 -0.554 0.139 -1.01 0.309 -1.01 0.17 0 0.408 -0.453 0.53 -1.01 0.122 -0.554 0.436 -1.01 0.698 -1.01 0.262 0 0.477 -0.227 0.477 -0.503 0 -0.277 0.227 -0.503 0.503 -0.503 0.277 0 0.503 -0.227 0.503 -0.503 0 -0.277 0.139 -0.503 0.309 -0.503 0.17 0 0.408 -0.453 0.53 -1.01 0.122 -0.554 0.436 -1.01 0.698 -1.01 0.262 0 0.477 -0.227 0.477 -0.503 0 -0.277 0.227 -0.503 0.503 -0.503 0.277 0 0.503 -0.227 0.503 -0.503 0 -0.277 0.151 -0.503 0.336 -0.503 0.185 0 0.336 -0.227 0.336 -0.503 0 -0.28 0.298 -0.503 0.671 -0.503 0.373 0 0.671 -0.224 0.671 -0.503 0 -0.277 0.227 -0.503 0.503 -0.503 0.277 0 0.503 -0.227 0.503 -0.503 0 -0.277 0.227 -0.503 0.503 -0.503 0.277 0 0.503 -0.227 0.503 -0.503 0 -0.277 0.227 -0.503 0.503 -0.503 0.277 0 0.503 -0.227 0.503 -0.503 0 -0.277 0.227 -0.503 0.503 -0.503 0.277 0 0.503 -0.227 0.503 -0.503 0 -0.277 0.227 -0.503 0.503 -0.503 0.277 0 0.503 -0.227 0.503 -0.503 0 -0.277 0.227 -0.503 0.503 -0.503 0.277 0 0.503 -0.227 0.503 -0.503 0 -0.277 0.227 -0.503 0.503 -0.503 0.277 0 0.503 -0.227 0.503 -0.503 0 -0.313 0.317 -0.503 0.839 -0.503 0.461 0 0.839 -0.151 0.839 -0.336 0 -0.185 0.302 -0.336 0.671 -0.336 0.373 0 0.671 -0.224 0.671 -0.503 0 -0.336 0.336 -0.503 1.01 -0.503 0.671 0 1.01 -0.168 1.01 -0.503 0 -0.277 0.227 -0.503 0.503 -0.503 0.277 0 0.503 -0.227 0.503 -0.503 0 -0.336 0.336 -0.503 1.01 -0.503 0.671 0 1.01 -0.168 1.01 -0.503 0 -0.313 0.317 -0.503 0.839 -0.503 0.522 0 0.839 -0.19 0.839 -0.503 0 -0.373 0.392 -0.503 1.51 -0.503 1.119 0 1.51 -0.131 1.51 -0.503 0 -0.336 0.336 -0.503 1.01 -0.503 0.671 0 1.01 -0.168 1.01 -0.503 0 -0.392 0.448 -0.503 2.01 -0.503 1.566 0 2.01 -0.112 2.01 -0.503 0 -0.403 0.503 -0.503 2.517 -0.503 2.01 0 2.517 -0.101 2.517 -0.503 0 -0.753 14.566 -0.753 15.319 0 0.298 0.298 1.119 0.503 2.01 0.503 0.895 0 1.715 0.205 2.01 0.503 0.298 0.298 1.119 0.503 2.01 0.503 0.895 0 1.715 0.205 2.01 0.503 0.277 0.277 0.946 0.503 1.486 0.503 0.65 0 0.983 0.171 0.983 0.503 0 0.352 0.354 0.503 1.175 0.503 0.646 0 1.175 0.148 1.175 0.329 0 0.181 0.414 0.433 0.92 0.56 0.506 0.127 1.121 0.432 1.366 0.678 0.246 0.246 0.738 0.447 1.094 0.447 0.356 0 0.647 0.148 0.647 0.329 0 0.181 0.378 0.424 0.839 0.54 0.461 0.116 0.839 0.421 0.839 0.678 0 0.257 0.227 0.467 0.503 0.467 0.277 0 0.503 0.139 0.503 0.309 0 0.17 0.453 0.408 1.01 0.53 0.554 0.122 1.01 0.36 1.01 0.53 0 0.17 0.227 0.309 0.503 0.309 0.277 0 0.503 0.227 0.503 0.503 0 0.336 0.336 0.503 1.01 0.503 0.671 0 1.01 0.168 1.01 0.503 0 0.277 0.227 0.503 0.503 0.503 0.277 0 0.503 0.227 0.503 0.503 0 0.277 0.227 0.503 0.503 0.503 0.277 0 0.503 0.227 0.503 0.503 0 0.277 0.227 0.503 0.503 0.503 0.277 0 0.503 0.227 0.503 0.503 0 0.277 0.227 0.503 0.503 0.503 0.277 0 0.503 0.227 0.503 0.503 0 0.277 0.227 0.503 0.503 0.503 0.277 0 0.503 0.227 0.503 0.503 0 0.277 0.227 0.503 0.503 0.503 0.277 0 0.503 0.227 0.503 0.503 0 0.277 0.227 0.503 0.503 0.503 0.277 0 0.503 0.227 0.503 0.503 0 0.277 0.227 0.503 0.503 0.503 0.336 0 0.503 0.336 0.503 1.01 0 0.671 0.168 1.01 0.503 1.01 0.277 0 0.503 0.227 0.503 0.503 0 0.277 0.227 0.503 0.503 0.503 0.336 0 0.503 0.336 0.503 1.01 0 0.671 0.168 1.01 0.503 1.01 0.277 0 0.503 0.227 0.503 0.503 0 0.277 0.227 0.503 0.503 0.503 0.336 0 0.503 0.336 0.503 1.01 0 0.671 0.168 1.01 0.503 1.01 0.277 0 0.503 0.227 0.503 0.503 0 0.277 0.227 0.503 0.503 0.503 0.336 0 0.503 0.336 0.503 1.01 0 0.671 0.168 1.01 0.503 1.01 0.336 0 0.503 0.336 0.503 1.01 0 0.671 0.168 1.01 0.503 1.01 0.336 0 0.503 0.336 0.503 1.01 0 0.554 0.151 1.01 0.336 1.01 0.185 0 0.336 0.382 0.336 0.85 0 0.467 0.227 0.937 0.503 1.043 0.287 0.11 0.503 0.611 0.503 1.164 v 0.971 l -13.01 -0.005 c -7.153 -0.003 -13.345 -0.096 -13.761 -0.207 -0.415 -0.111 -0.755 -0.411 -0.755 -0.667 0 -0.255 -0.227 -0.464 -0.503 -0.464 -0.277 0 -0.503 -0.227 -0.503 -0.503 0 -0.277 -0.227 -0.503 -0.503 -0.503 -0.277 0 -0.503 -0.227 -0.503 -0.503 0 -0.277 -0.158 -0.503 -0.352 -0.503 -0.193 0 -0.702 -0.378 -1.129 -0.839 -0.428 -0.461 -1.025 -0.839 -1.326 -0.839 -0.302 0 -0.549 -0.227 -0.549 -0.503 0 -0.313 -0.317 -0.503 -0.839 -0.503 -0.522 0 -0.839 -0.19 -0.839 -0.503 0 -0.336 -0.336 -0.503 -1.01 -0.503 -0.671 0 -1.01 -0.168 -1.01 -0.503 0 -0.336 -0.336 -0.503 -1.01 -0.503 -0.671 0 -1.01 -0.168 -1.01 -0.503 0 -0.336 -0.336 -0.503 -1.01 -0.503 -0.671 0 -1.01 -0.168 -1.01 -0.503 0 -0.392 -0.447 -0.503 -2.01 -0.503 -1.566 0 -2.01 -0.112 -2.01 -0.503 0 -0.429 -0.895 -0.503 -6.04 -0.503 -5.146 0 -6.04 0.075 -6.04 0.503 0 0.373 -0.392 0.503 -1.51 0.503 -1.119 0 -1.51 0.131 -1.51 0.503 0 0.373 -0.392 0.503 -1.51 0.503 -1.119 0 -1.51 0.131 -1.51 0.503 0 0.336 -0.336 0.503 -1.01 0.503 -0.671 0 -1.01 0.168 -1.01 0.503 0 0.336 -0.336 0.503 -1.01 0.503 -0.671 0 -1.01 0.168 -1.01 0.503 0 0.277 -0.227 0.503 -0.503 0.503 -0.277 0 -0.503 0.227 -0.503 0.503 0 0.277 -0.227 0.503 -0.503 0.503 -0.277 0 -0.503 0.151 -0.503 0.336 0 0.185 -0.227 0.336 -0.503 0.336 -0.277 0 -0.503 0.215 -0.503 0.477 0 0.262 -0.453 0.576 -1.01 0.698 -0.554 0.122 -1.01 0.372 -1.01 0.556 0 0.184 -0.453 0.788 -1.01 1.342 -0.554 0.554 -1.01 1.222 -1.01 1.484 0 0.263 -0.227 0.478 -0.503 0.478 -0.277 0 -0.503 0.227 -0.503 0.503 0 0.277 -0.227 0.503 -0.503 0.503 -0.331 0 -0.503 0.332 -0.503 0.971 0 0.553 -0.216 1.054 -0.503 1.164 -0.277 0.106 -0.503 0.36 -0.503 0.563 0 0.204 -0.227 0.597 -0.503 0.874 -0.277 0.277 -0.503 0.946 -0.503 1.486 0 0.65 -0.171 0.983 -0.503 0.983 -0.331 0 -0.503 0.332 -0.503 0.971 0 0.553 -0.216 1.054 -0.503 1.164 -0.329 0.126 -0.503 0.649 -0.503 1.51 0 0.861 -0.174 1.384 -0.503 1.51 -0.343 0.132 -0.503 0.669 -0.503 1.686 0 0.896 -0.168 1.549 -0.42 1.633 -0.559 0.186 -0.601 11.235 -0.044 11.593 0.204 0.131 0.446 1.047 0.539 2.036 0.093 0.989 0.317 1.895 0.498 2.01 0.181 0.119 0.425 0.819 0.541 1.556 0.116 0.737 0.366 1.391 0.555 1.454 0.189 0.063 0.344 0.555 0.344 1.093 0 0.646 0.171 0.979 0.503 0.979 0.336 0 0.503 0.336 0.503 1.01 0 0.671 0.168 1.01 0.503 1.01 0.336 0 0.503 0.336 0.503 1.01 0 0.671 0.168 1.01 0.503 1.01 0.315 0 0.503 0.318 0.503 0.85 0 0.467 0.227 0.937 0.503 1.043 0.277 0.106 0.503 0.404 0.503 0.661 0 0.257 0.227 0.468 0.503 0.468 0.277 0 0.503 0.215 0.503 0.478 0 0.263 0.453 0.931 1.01 1.484 0.554 0.554 1.01 1.17 1.01 1.368 0 0.199 0.227 0.361 0.503 0.361 0.277 0 0.503 0.227 0.503 0.503 0 0.277 0.227 0.503 0.503 0.503 0.277 0 0.503 0.227 0.503 0.503 0 0.277 0.227 0.503 0.503 0.503 0.28 0 0.503 0.298 0.503 0.671 0 0.522 0.224 0.671 1.01 0.671 0.671 0 1.01 0.168 1.01 0.503 0 0.277 0.227 0.503 0.503 0.503 0.277 0 0.503 0.227 0.503 0.503 0 0.336 0.336 0.503 1.01 0.503 0.671 0 1.01 0.168 1.01 0.503 0 0.332 0.333 0.503 0.979 0.503 0.538 0 1.032 0.161 1.098 0.357 0.066 0.197 0.758 0.443 1.538 0.548 0.884 0.119 1.419 0.363 1.419 0.65 0 0.337 0.529 0.459 1.986 0.459 1.291 0 2.035 0.147 2.125 0.42 0.098 0.294 1.293 0.453 4 0.531 3.181 0.092 3.958 0.018 4.396 -0.42 0.366 -0.366 1.156 -0.531 2.545 -0.531 1.342 0 2.182 -0.168 2.517 -0.503 0.277 -0.277 0.967 -0.503 1.534 -0.503 0.693 0 1.031 -0.165 1.031 -0.503 0 -0.336 0.336 -0.503 1.01 -0.503 0.671 0 1.01 -0.168 1.01 -0.503 0 -0.315 0.318 -0.503 0.85 -0.503 0.467 0 0.931 -0.213 1.031 -0.473 0.1 -0.26 0.548 -0.565 0.996 -0.678 0.448 -0.112 0.815 -0.353 0.815 -0.534 0 -0.181 0.167 -0.329 0.37 -0.329 0.404 0 5 -4.478 5 -4.871 0 -0.133 0.604 -0.828 1.342 -1.545 0.738 -0.717 1.343 -1.605 1.343 -1.974 0 -0.373 0.224 -0.672 0.503 -0.672 0.392 0 0.503 -0.447 0.503 -2.01 v -2.01 h -15.942 h -15.942 v -10.404 v -10.404 h 29.836 h 29.836 l 0.238 2.691 c 0.286 3.233 -0.128 13.844 -0.552 14.11 -0.165 0.105 -0.396 1.464 -0.513 3.02 -0.117 1.556 -0.357 2.924 -0.534 3.04 -0.177 0.116 -0.402 0.946 -0.5 1.846 -0.098 0.9 -0.384 1.756 -0.635 1.904 -0.262 0.154 -0.456 0.832 -0.456 1.594 0 0.955 -0.141 1.326 -0.503 1.326 -0.331 0 -0.503 0.332 -0.503 0.971 0 0.553 -0.216 1.054 -0.503 1.164 -0.277 0.106 -0.503 0.576 -0.503 1.043 0 0.467 -0.151 0.85 -0.336 0.85 -0.185 0 -0.336 0.68 -0.336 1.51 0 1.119 -0.131 1.51 -0.503 1.51 -0.28 0 -0.503 0.298 -0.503 0.671 0 0.373 -0.224 0.671 -0.503 0.671 -0.313 0 -0.503 0.317 -0.503 0.839 0 0.522 -0.19 0.839 -0.503 0.839 -0.28 0 -0.503 0.298 -0.503 0.671 0 0.373 -0.224 0.671 -0.503 0.671 -0.313 0 -0.503 0.317 -0.503 0.839 0 0.522 -0.19 0.839 -0.503 0.839 -0.277 0 -0.503 0.227 -0.503 0.503 0 0.277 -0.227 0.503 -0.503 0.503 -0.28 0 -0.503 0.298 -0.503 0.671 0 0.373 -0.224 0.671 -0.503 0.671 -0.277 0 -0.503 0.227 -0.503 0.503 0 0.277 -0.227 0.503 -0.503 0.503 -0.336 0 -0.503 0.336 -0.503 1.01 0 0.671 -0.168 1.01 -0.503 1.01 -0.277 0 -0.503 0.227 -0.503 0.503 0 0.277 -0.227 0.503 -0.503 0.503 -0.277 0 -0.503 0.151 -0.503 0.336 0 0.185 -0.227 0.336 -0.503 0.336 -0.277 0 -0.503 0.227 -0.503 0.503 0 0.277 -0.227 0.503 -0.503 0.503 -0.277 0 -0.503 0.227 -0.503 0.503 0 0.277 -0.227 0.503 -0.503 0.503 -0.277 0 -0.503 0.227 -0.503 0.503 0 0.277 -0.227 0.503 -0.503 0.503 -0.277 0 -0.503 0.227 -0.503 0.503 0 0.277 -0.227 0.503 -0.503 0.503 -0.277 0 -0.503 0.227 -0.503 0.503 0 0.336 -0.336 0.503 -1.01 0.503 -0.671 0 -1.01 0.168 -1.01 0.503 0 0.277 -0.227 0.503 -0.503 0.503 -0.277 0 -0.503 0.227 -0.503 0.503 0 0.277 -0.227 0.503 -0.503 0.503 -0.277 0 -0.503 0.227 -0.503 0.503 0 0.336 -0.336 0.503 -1.01 0.503 -0.671 0 -1.01 0.168 -1.01 0.503 0 0.277 -0.227 0.503 -0.503 0.503 -0.277 0 -0.503 0.227 -0.503 0.503 0 0.336 -0.336 0.503 -1.01 0.503 -0.671 0 -1.01 0.168 -1.01 0.503 0 0.336 -0.336 0.503 -1.01 0.503 -0.671 0 -1.01 0.168 -1.01 0.503 0 0.336 -0.336 0.503 -1.01 0.503 -0.671 0 -1.01 0.168 -1.01 0.503 0 0.364 -0.373 0.503 -1.342 0.503 -0.97 0 -1.342 0.14 -1.342 0.503 0 0.373 -0.392 0.503 -1.51 0.503 -1.119 0 -1.51 0.131 -1.51 0.503 0 0.38 -0.41 0.503 -1.678 0.503 -1.268 0 -1.678 0.123 -1.678 0.503 0 0.414 -0.597 0.503 -3.356 0.503 -2.76 0 -3.356 0.089 -3.356 0.503 0 0.425 -0.783 0.503 -5.03 0.503 -4.251 0 -5.03 -0.078 -5.03 -0.503 z" style="fill:#ff4500"/><g style="fill:#ffdead"><path d="m 149.21 115.6 c 0 -0.185 0.227 -0.336 0.503 -0.336 0.277 0 0.503 -0.227 0.503 -0.503 0 -0.315 0.318 -0.503 0.85 -0.503 0.467 0 0.931 -0.213 1.031 -0.473 0.1 -0.26 0.548 -0.565 0.996 -0.678 0.448 -0.112 0.815 -0.353 0.815 -0.534 0 -0.181 0.231 -0.329 0.514 -0.329 0.283 0 0.596 -0.213 0.696 -0.473 0.1 -0.26 0.548 -0.565 0.996 -0.678 0.448 -0.112 0.815 -0.353 0.815 -0.534 0 -0.181 0.227 -0.329 0.503 -0.329 0.277 0 0.503 -0.215 0.503 -0.477 0 -0.262 0.453 -0.576 1.01 -0.698 0.554 -0.122 1.01 -0.36 1.01 -0.53 0 -0.17 0.227 -0.309 0.503 -0.309 0.277 0 0.503 -0.215 0.503 -0.477 0 -0.262 0.453 -0.576 1.01 -0.698 0.554 -0.122 1.01 -0.36 1.01 -0.53 0 -0.17 0.227 -0.309 0.503 -0.309 0.277 0 0.503 -0.227 0.503 -0.503 0 -0.336 0.336 -0.503 1.01 -0.503 0.646 0 1.01 -0.171 1.01 -0.477 0 -0.262 0.453 -0.576 1.01 -0.698 0.554 -0.122 1.01 -0.36 1.01 -0.53 0 -0.181 3.766 -0.309 9.06 -0.309 h 9.06 v -1.175 c 0 -0.82 -0.152 -1.175 -0.503 -1.175 -0.364 0 -0.503 -0.374 -0.503 -1.353 0 -0.893 -0.171 -1.419 -0.503 -1.546 -0.277 -0.106 -0.503 -0.555 -0.503 -0.996 0 -0.49 -0.196 -0.803 -0.503 -0.803 -0.373 0 -0.503 -0.392 -0.503 -1.51 0 -1.387 0.068 -1.51 0.839 -1.51 0.522 0 0.839 -0.19 0.839 -0.503 0 -0.28 0.298 -0.503 0.671 -0.503 0.373 0 0.671 -0.224 0.671 -0.503 0 -0.313 0.317 -0.503 0.839 -0.503 0.522 0 0.839 -0.19 0.839 -0.503 0 -0.28 0.298 -0.503 0.671 -0.503 0.373 0 0.671 -0.224 0.671 -0.503 0 -0.313 0.317 -0.503 0.839 -0.503 0.522 0 0.839 -0.19 0.839 -0.503 0 -0.28 0.298 -0.503 0.671 -0.503 0.373 0 0.671 -0.224 0.671 -0.503 0 -0.336 0.336 -0.503 1.01 -0.503 0.671 0 1.01 -0.168 1.01 -0.503 0 -0.277 0.227 -0.503 0.503 -0.503 0.277 0 0.503 -0.227 0.503 -0.503 0 -0.336 0.336 -0.503 1.01 -0.503 0.671 0 1.01 -0.168 1.01 -0.503 0 -0.313 0.317 -0.503 0.839 -0.503 0.522 0 0.839 -0.19 0.839 -0.503 0 -0.28 0.298 -0.503 0.671 -0.503 0.373 0 0.671 -0.224 0.671 -0.503 0 -0.313 0.317 -0.503 0.839 -0.503 0.522 0 0.839 -0.19 0.839 -0.503 0 -0.336 0.336 -0.503 1.01 -0.503 0.895 0 1.01 0.112 1.01 1.01 0 0.671 0.168 1.01 0.503 1.01 0.336 0 0.503 0.336 0.503 1.01 0 0.671 0.168 1.01 0.503 1.01 0.373 0 0.503 0.392 0.503 1.51 0 1.119 0.131 1.51 0.503 1.51 0.336 0 0.503 0.336 0.503 1.01 0 0.671 0.168 1.01 0.503 1.01 0.373 0 0.503 0.392 0.503 1.51 0 1.119 0.131 1.51 0.503 1.51 0.373 0 0.503 0.392 0.503 1.51 0 1.119 0.131 1.51 0.503 1.51 0.392 0 0.503 0.447 0.503 2.01 0 1.566 0.112 2.01 0.503 2.01 0.361 0 0.503 0.368 0.503 1.301 v 1.301 l -1.877 0.156 c -1.032 0.086 -1.976 0.308 -2.098 0.493 -0.121 0.186 -0.824 0.433 -1.561 0.549 -0.737 0.116 -1.391 0.366 -1.454 0.555 -0.063 0.189 -0.711 0.344 -1.44 0.344 -0.868 0 -1.392 0.174 -1.518 0.503 -0.13 0.34 -0.664 0.503 -1.644 0.503 -0.798 0 -1.652 0.202 -1.899 0.449 -0.247 0.247 -1.123 0.539 -1.947 0.65 -0.824 0.111 -1.552 0.362 -1.617 0.558 -0.065 0.197 -0.775 0.357 -1.577 0.357 -0.802 0 -1.66 0.202 -1.907 0.449 -0.247 0.247 -1.123 0.539 -1.947 0.65 -0.824 0.111 -1.552 0.362 -1.617 0.558 -0.065 0.197 -0.715 0.357 -1.444 0.357 -0.868 0 -1.392 0.174 -1.518 0.503 -0.13 0.34 -0.664 0.503 -1.644 0.503 -0.798 0 -1.651 0.201 -1.897 0.446 -0.245 0.246 -1.037 0.542 -1.759 0.659 -0.722 0.117 -1.4 0.348 -1.507 0.514 -0.107 0.165 -1 0.377 -1.993 0.469 -0.989 0.093 -1.895 0.317 -2.01 0.498 -0.119 0.181 -0.819 0.425 -1.556 0.541 -0.737 0.116 -1.391 0.366 -1.454 0.555 -0.063 0.189 -0.782 0.344 -1.597 0.344 -1.094 0 -1.482 0.132 -1.482 0.503 0 0.435 -1.212 0.503 -8.894 0.503 -5.706 0 -8.894 -0.12 -8.894 -0.336 z"/><path d="m 201.23 168.46 c 0 -0.28 -0.298 -0.503 -0.671 -0.503 -0.369 0 -0.671 -0.148 -0.671 -0.329 0 -0.181 -0.367 -0.421 -0.815 -0.534 -0.448 -0.112 -0.896 -0.417 -0.996 -0.678 -0.1 -0.26 -0.564 -0.473 -1.031 -0.473 -0.531 0 -0.85 -0.189 -0.85 -0.503 0 -0.28 -0.298 -0.503 -0.671 -0.503 -0.369 0 -0.671 -0.148 -0.671 -0.329 0 -0.181 -0.367 -0.421 -0.815 -0.534 -0.448 -0.112 -0.896 -0.417 -0.996 -0.678 -0.1 -0.26 -0.564 -0.473 -1.031 -0.473 -0.531 0 -0.85 -0.189 -0.85 -0.503 0 -0.28 -0.298 -0.503 -0.671 -0.503 -0.369 0 -0.671 -0.148 -0.671 -0.329 0 -0.181 -0.367 -0.421 -0.815 -0.534 -0.448 -0.112 -0.896 -0.417 -0.996 -0.678 -0.1 -0.26 -0.564 -0.473 -1.031 -0.473 -0.531 0 -0.85 -0.189 -0.85 -0.503 0 -0.28 -0.298 -0.503 -0.671 -0.503 -0.369 0 -0.671 -0.148 -0.671 -0.329 0 -0.181 -0.378 -0.424 -0.839 -0.54 -0.461 -0.116 -0.839 -0.421 -0.839 -0.678 0 -0.257 -0.312 -0.467 -0.694 -0.467 -0.565 0 -0.65 -0.14 -0.459 -0.755 0.129 -0.415 0.441 -0.876 0.694 -1.024 0.253 -0.148 0.459 -0.622 0.459 -1.055 0 -0.433 0.227 -0.873 0.503 -0.98 0.277 -0.106 0.503 -0.559 0.503 -1.01 0 -0.448 0.227 -0.901 0.503 -1.01 0.277 -0.106 0.503 -0.586 0.503 -1.067 0 -0.48 0.227 -1.1 0.503 -1.377 0.277 -0.277 0.503 -0.93 0.503 -1.45 0 -0.532 0.221 -1.032 0.503 -1.14 0.381 -0.146 0.503 -0.765 0.503 -2.553 0 -1.35 0.144 -2.36 0.336 -2.36 0.185 0 0.336 0.227 0.336 0.503 0 0.392 0.447 0.503 2.01 0.503 1.566 0 2.01 0.112 2.01 0.503 0 0.374 0.394 0.503 1.534 0.503 0.916 0 1.737 0.203 2.038 0.503 0.298 0.298 1.119 0.503 2.01 0.503 0.895 0 1.715 0.205 2.01 0.503 0.293 0.293 1.113 0.503 1.962 0.503 0.802 0 1.515 0.17 1.584 0.378 0.069 0.208 0.95 0.456 1.958 0.55 1.01 0.095 1.923 0.313 2.035 0.486 0.112 0.173 0.829 0.398 1.594 0.501 1.359 0.182 1.391 0.216 1.391 1.485 0 0.93 -0.143 1.298 -0.503 1.298 -0.38 0 -0.503 0.41 -0.503 1.678 0 1.268 -0.123 1.678 -0.503 1.678 -0.364 0 -0.503 0.373 -0.503 1.342 0 0.97 -0.14 1.343 -0.503 1.343 -0.352 0 -0.503 0.354 -0.503 1.175 0 0.82 -0.152 1.175 -0.503 1.175 -0.364 0 -0.503 0.373 -0.503 1.342 0 0.97 -0.14 1.343 -0.503 1.343 -0.331 0 -0.503 0.332 -0.503 0.971 0 0.553 -0.216 1.054 -0.503 1.164 -0.277 0.106 -0.503 0.559 -0.503 1.01 0 0.448 -0.227 0.901 -0.503 1.01 -0.277 0.106 -0.503 0.559 -0.503 1.01 0 0.448 -0.227 0.901 -0.503 1.01 -0.277 0.106 -0.503 0.576 -0.503 1.043 0 0.467 -0.151 0.85 -0.336 0.85 -0.185 0 -0.336 -0.227 -0.336 -0.503 z"/><path d="m 152.82 207.98 c -0.477 -0.11 -0.587 -0.504 -0.587 -2.101 0 -1.208 -0.176 -2.141 -0.456 -2.421 -0.251 -0.251 -0.53 -1.349 -0.621 -2.44 -0.09 -1.091 -0.338 -2.042 -0.551 -2.113 -0.227 -0.076 -0.386 -0.87 -0.386 -1.93 0 -1.174 -0.161 -1.895 -0.461 -2.07 -0.285 -0.166 -0.518 -1.079 -0.611 -2.393 -0.082 -1.168 -0.307 -2.226 -0.499 -2.349 -0.192 -0.124 -0.427 -1.049 -0.521 -2.057 -0.095 -1.01 -0.342 -1.888 -0.55 -1.958 -0.208 -0.069 -0.378 -0.567 -0.378 -1.105 0 -0.936 0.065 -0.979 1.51 -0.979 1.119 0 1.51 -0.131 1.51 -0.503 0 -0.373 0.392 -0.503 1.51 -0.503 1.119 0 1.51 -0.131 1.51 -0.503 0 -0.336 0.336 -0.503 1.01 -0.503 0.671 0 1.01 -0.168 1.01 -0.503 0 -0.313 0.317 -0.503 0.839 -0.503 0.522 0 0.839 -0.19 0.839 -0.503 0 -0.336 0.336 -0.503 1.01 -0.503 0.671 0 1.01 -0.168 1.01 -0.503 0 -0.277 0.227 -0.503 0.503 -0.503 0.277 0 0.503 0.227 0.503 0.503 0 0.277 0.227 0.503 0.503 0.503 0.336 0 0.503 0.336 0.503 1.01 0 0.671 0.168 1.01 0.503 1.01 0.336 0 0.503 0.336 0.503 1.01 0 0.671 0.168 1.01 0.503 1.01 0.336 0 0.503 0.336 0.503 1.01 0 0.671 0.168 1.01 0.503 1.01 0.336 0 0.503 0.336 0.503 1.01 0 0.671 0.168 1.01 0.503 1.01 0.277 0 0.503 0.227 0.503 0.503 0 0.277 0.227 0.503 0.503 0.503 0.336 0 0.503 0.336 0.503 1.01 0 0.671 0.168 1.01 0.503 1.01 0.313 0 0.503 0.317 0.503 0.839 0 0.522 0.19 0.839 0.503 0.839 0.336 0 0.503 0.336 0.503 1.01 0 0.671 0.168 1.01 0.503 1.01 0.28 0 0.503 0.298 0.503 0.671 0 0.373 0.224 0.671 0.503 0.671 0.336 0 0.503 0.336 0.503 1.01 0 0.671 0.168 1.01 0.503 1.01 0.362 0 0.503 0.37 0.503 1.316 0 1.189 -0.097 1.337 -1.01 1.537 -0.554 0.122 -1.01 0.348 -1.01 0.503 0 0.155 -0.453 0.382 -1.01 0.503 -0.554 0.122 -1.01 0.348 -1.01 0.503 0 0.155 -0.453 0.382 -1.01 0.503 -0.554 0.122 -1.01 0.348 -1.01 0.503 0 0.155 -0.453 0.382 -1.01 0.503 -0.554 0.122 -1.01 0.348 -1.01 0.503 0 0.155 -0.453 0.382 -1.01 0.503 -0.554 0.122 -1.01 0.36 -1.01 0.53 0 0.17 -0.453 0.309 -1.01 0.309 -0.671 0 -1.01 0.168 -1.01 0.503 0 0.363 -0.371 0.503 -1.326 0.503 -0.756 0 -1.441 0.195 -1.594 0.453 -0.285 0.48 -2.222 0.867 -3.205 0.641 z"/><path d="m 107.14 208.4 c -0.128 -0.332 -0.653 -0.503 -1.546 -0.503 -0.979 0 -1.353 -0.139 -1.353 -0.503 0 -0.338 -0.338 -0.503 -1.031 -0.503 -0.567 0 -1.257 -0.227 -1.534 -0.503 -0.277 -0.277 -0.93 -0.503 -1.45 -0.503 -0.532 0 -1.032 -0.221 -1.14 -0.503 -0.106 -0.277 -0.559 -0.503 -1.01 -0.503 -0.448 0 -0.901 -0.227 -1.01 -0.503 -0.106 -0.277 -0.559 -0.503 -1.01 -0.503 -0.448 0 -0.901 -0.227 -1.01 -0.503 -0.106 -0.277 -0.559 -0.503 -1.01 -0.503 -0.448 0 -0.901 -0.227 -1.01 -0.503 -0.106 -0.277 -0.576 -0.503 -1.043 -0.503 -0.531 0 -0.85 -0.189 -0.85 -0.503 0 -0.277 -0.227 -0.503 -0.503 -0.503 -0.277 0 -0.503 -0.151 -0.503 -0.336 0 -0.185 0.227 -0.336 0.503 -0.336 0.28 0 0.503 -0.298 0.503 -0.671 0 -0.369 0.148 -0.671 0.329 -0.671 0.181 0 0.421 -0.367 0.534 -0.815 0.112 -0.448 0.417 -0.896 0.678 -0.996 0.26 -0.1 0.473 -0.548 0.473 -0.995 0 -0.448 0.227 -0.901 0.503 -1.01 0.277 -0.106 0.503 -0.559 0.503 -1.01 0 -0.448 0.227 -0.901 0.503 -1.01 0.277 -0.106 0.503 -0.424 0.503 -0.707 0 -0.283 0.148 -0.514 0.329 -0.514 0.181 0 0.424 -0.378 0.54 -0.839 0.116 -0.461 0.333 -0.839 0.483 -0.839 0.15 0 0.372 -0.453 0.494 -1.01 0.122 -0.554 0.436 -1.01 0.698 -1.01 0.306 0 0.477 -0.361 0.477 -1.01 0 -0.671 0.168 -1.01 0.503 -1.01 0.336 0 0.503 -0.336 0.503 -1.01 0 -0.671 0.168 -1.01 0.503 -1.01 0.277 0 0.503 -0.227 0.503 -0.503 0 -0.277 0.139 -0.503 0.309 -0.503 0.17 0 0.408 -0.453 0.53 -1.01 0.122 -0.554 0.436 -1.01 0.698 -1.01 0.306 0 0.477 -0.361 0.477 -1.01 0 -0.671 0.168 -1.01 0.503 -1.01 0.277 0 0.503 0.227 0.503 0.503 0 0.313 0.317 0.503 0.839 0.503 0.522 0 0.839 0.19 0.839 0.503 0 0.336 0.336 0.503 1.01 0.503 0.671 0 1.01 0.168 1.01 0.503 0 0.352 0.354 0.503 1.175 0.503 0.82 0 1.175 0.152 1.175 0.503 0 0.364 0.373 0.503 1.342 0.503 0.97 0 1.342 0.14 1.342 0.503 0 0.373 0.392 0.503 1.51 0.503 1.119 0 1.51 0.131 1.51 0.503 0 0.336 0.336 0.503 1.01 0.503 0.671 0 1.01 0.168 1.01 0.503 0 0.277 -0.227 0.503 -0.503 0.503 -0.392 0 -0.503 0.447 -0.503 2.01 0 1.566 -0.112 2.01 -0.503 2.01 -0.392 0 -0.503 0.447 -0.503 2.01 0 1.566 -0.112 2.01 -0.503 2.01 -0.386 0 -0.503 0.429 -0.503 1.846 0 1.417 -0.117 1.846 -0.503 1.846 -0.392 0 -0.503 0.447 -0.503 2.01 0 1.566 -0.112 2.01 -0.503 2.01 -0.392 0 -0.503 0.447 -0.503 2.01 0 1.566 -0.112 2.01 -0.503 2.01 -0.373 0 -0.503 0.392 -0.503 1.51 v 1.51 h -1.81 c -1.299 0 -1.865 -0.142 -2 -0.503 z"/><path d="m 59.26 168.96 c 0 -0.636 -0.172 -1.01 -0.467 -1.01 -0.257 0 -0.562 -0.378 -0.678 -0.839 -0.116 -0.461 -0.359 -0.839 -0.54 -0.839 -0.181 0 -0.329 -0.291 -0.329 -0.647 0 -0.356 -0.227 -0.874 -0.503 -1.151 -0.277 -0.277 -0.503 -0.897 -0.503 -1.377 0 -0.48 -0.227 -0.96 -0.503 -1.067 -0.277 -0.106 -0.503 -0.559 -0.503 -1.01 0 -0.448 -0.227 -0.901 -0.503 -1.01 -0.283 -0.109 -0.503 -0.608 -0.503 -1.14 0 -0.521 -0.227 -1.174 -0.503 -1.45 -0.277 -0.277 -0.503 -0.897 -0.503 -1.377 0 -0.48 -0.227 -0.96 -0.503 -1.067 -0.327 -0.125 -0.503 -0.646 -0.503 -1.483 0 -0.735 -0.197 -1.405 -0.458 -1.558 -0.63 -0.369 -0.945 -3.792 -0.349 -3.792 0.241 0 0.558 -0.206 0.706 -0.458 0.151 -0.258 1.068 -0.532 2.1 -0.629 1.01 -0.094 1.888 -0.341 1.958 -0.549 0.069 -0.208 0.782 -0.378 1.584 -0.378 0.849 0 1.669 -0.21 1.962 -0.503 0.283 -0.283 1.103 -0.503 1.87 -0.503 0.936 0 1.366 -0.145 1.366 -0.462 0 -0.32 0.59 -0.511 1.913 -0.621 1.052 -0.087 1.971 -0.332 2.042 -0.545 0.078 -0.233 0.915 -0.386 2.115 -0.386 1.541 0 1.986 -0.113 1.986 -0.503 0 -0.392 0.447 -0.503 2.01 -0.503 1.566 0 2.01 -0.112 2.01 -0.503 0 -0.277 0.227 -0.503 0.503 -0.503 0.4 0 0.503 0.485 0.503 2.349 0 1.865 0.104 2.349 0.503 2.349 0.352 0 0.503 0.354 0.503 1.175 0 0.82 0.152 1.175 0.503 1.175 0.364 0 0.503 0.373 0.503 1.342 0 0.97 0.14 1.343 0.503 1.343 0.336 0 0.503 0.336 0.503 1.01 0 0.671 0.168 1.01 0.503 1.01 0.28 0 0.503 0.298 0.503 0.671 0 0.373 0.224 0.671 0.503 0.671 0.362 0 0.503 0.37 0.503 1.316 0 1.189 -0.097 1.337 -1.01 1.537 -0.554 0.122 -1.01 0.36 -1.01 0.53 0 0.17 -0.227 0.309 -0.503 0.309 -0.277 0 -0.503 0.227 -0.503 0.503 0 0.336 -0.336 0.503 -1.01 0.503 -0.646 0 -1.01 0.171 -1.01 0.477 0 0.262 -0.453 0.576 -1.01 0.698 -0.554 0.122 -1.01 0.36 -1.01 0.53 0 0.17 -0.227 0.309 -0.503 0.309 -0.277 0 -0.503 0.227 -0.503 0.503 0 0.336 -0.336 0.503 -1.01 0.503 -0.646 0 -1.01 0.171 -1.01 0.477 0 0.262 -0.453 0.576 -1.01 0.698 -0.554 0.122 -1.01 0.36 -1.01 0.53 0 0.17 -0.227 0.309 -0.503 0.309 -0.277 0 -0.503 0.215 -0.503 0.477 0 0.262 -0.453 0.576 -1.01 0.698 -0.554 0.122 -1.01 0.36 -1.01 0.53 0 0.17 -0.227 0.309 -0.503 0.309 -0.277 0 -0.503 0.227 -0.503 0.503 0 0.336 -0.336 0.503 -1.01 0.503 -0.671 0 -1.01 0.168 -1.01 0.503 0 0.313 -0.317 0.503 -0.839 0.503 -0.522 0 -0.839 0.19 -0.839 0.503 0 0.28 -0.298 0.503 -0.671 0.503 -0.373 0 -0.671 0.224 -0.671 0.503 0 0.277 -0.151 0.503 -0.336 0.503 -0.185 0 -0.336 -0.453 -0.336 -1.01 z"/><path d="m 72.02 108.38 c 0 -0.372 -0.388 -0.503 -1.482 -0.503 -0.82 0 -1.54 -0.173 -1.611 -0.386 -0.071 -0.213 -0.99 -0.458 -2.042 -0.545 -1.323 -0.11 -1.913 -0.301 -1.913 -0.621 0 -0.316 -0.43 -0.462 -1.366 -0.462 -0.767 0 -1.587 -0.221 -1.87 -0.503 -0.277 -0.277 -0.957 -0.503 -1.51 -0.503 -0.554 0 -1.233 -0.227 -1.51 -0.503 -0.292 -0.292 -1.112 -0.503 -1.954 -0.503 -0.98 0 -1.513 -0.163 -1.644 -0.503 -0.128 -0.334 -0.656 -0.503 -1.57 -0.503 -0.777 0 -1.597 -0.22 -1.88 -0.503 -0.277 -0.277 -0.769 -0.503 -1.094 -0.503 -0.514 0 -0.57 -0.25 -0.432 -1.917 0.087 -1.055 0.364 -2.123 0.615 -2.373 0.251 -0.251 0.456 -0.886 0.456 -1.411 0 -0.525 0.155 -1.01 0.344 -1.069 0.189 -0.063 0.439 -0.717 0.555 -1.454 0.116 -0.737 0.345 -1.428 0.507 -1.535 0.163 -0.107 0.389 -0.787 0.503 -1.51 0.114 -0.723 0.347 -1.407 0.517 -1.519 0.17 -0.112 0.393 -0.829 0.496 -1.594 0.116 -0.862 0.361 -1.391 0.646 -1.391 0.287 0 0.459 -0.379 0.459 -1.01 0 -0.671 0.168 -1.01 0.503 -1.01 0.336 0 0.503 -0.336 0.503 -1.01 0 -0.671 0.168 -1.01 0.503 -1.01 0.336 0 0.503 -0.336 0.503 -1.01 0 -0.895 0.112 -1.01 1.01 -1.01 0.671 0 1.01 0.168 1.01 0.503 0 0.313 0.317 0.503 0.839 0.503 0.522 0 0.839 0.19 0.839 0.503 0 0.277 0.227 0.503 0.503 0.503 0.277 0 0.503 0.227 0.503 0.503 0 0.336 0.336 0.503 1.01 0.503 0.671 0 1.01 0.168 1.01 0.503 0 0.336 0.336 0.503 1.01 0.503 0.671 0 1.01 0.168 1.01 0.503 0 0.277 0.227 0.503 0.503 0.503 0.277 0 0.503 0.227 0.503 0.503 0 0.336 0.336 0.503 1.01 0.503 0.671 0 1.01 0.168 1.01 0.503 0 0.277 0.227 0.503 0.503 0.503 0.277 0 0.503 0.227 0.503 0.503 0 0.336 0.336 0.503 1.01 0.503 0.671 0 1.01 0.168 1.01 0.503 0 0.277 0.227 0.503 0.503 0.503 0.277 0 0.503 0.227 0.503 0.503 0 0.336 0.336 0.503 1.01 0.503 0.671 0 1.01 0.168 1.01 0.503 0 0.277 0.227 0.503 0.503 0.503 0.277 0 0.503 0.227 0.503 0.503 0 0.336 0.336 0.503 1.01 0.503 0.671 0 1.01 0.168 1.01 0.503 0 0.277 0.227 0.503 0.503 0.503 0.277 0 0.503 0.227 0.503 0.503 0 0.277 0.227 0.503 0.503 0.503 0.277 0 0.503 0.227 0.503 0.503 0 0.277 -0.227 0.503 -0.503 0.503 -0.313 0 -0.503 0.317 -0.503 0.839 0 0.522 -0.19 0.839 -0.503 0.839 -0.336 0 -0.503 0.336 -0.503 1.01 0 0.671 -0.168 1.01 -0.503 1.01 -0.373 0 -0.503 0.392 -0.503 1.51 0 1.119 -0.131 1.51 -0.503 1.51 -0.392 0 -0.503 0.448 -0.503 2.01 0 1.566 -0.112 2.01 -0.503 2.01 -0.373 0 -0.503 0.392 -0.503 1.51 v 1.51 h -1.51 c -1.119 0 -1.51 -0.131 -1.51 -0.503 z"/><path d="m 100.21 69.1 c 0 -0.467 -0.227 -0.937 -0.503 -1.043 -0.277 -0.106 -0.503 -0.559 -0.503 -1.01 0 -0.448 -0.227 -0.901 -0.503 -1.01 -0.277 -0.106 -0.503 -0.559 -0.503 -1.01 0 -0.448 -0.227 -0.901 -0.503 -1.01 -0.277 -0.106 -0.503 -0.559 -0.503 -1.01 0 -0.448 -0.227 -0.901 -0.503 -1.01 -0.277 -0.106 -0.503 -0.393 -0.503 -0.637 0 -0.244 -0.201 -0.645 -0.447 -0.89 -0.246 -0.246 -0.551 -0.861 -0.678 -1.366 -0.127 -0.506 -0.379 -0.92 -0.56 -0.92 -0.181 0 -0.329 -0.302 -0.329 -0.671 0 -0.373 -0.224 -0.671 -0.503 -0.671 -0.336 0 -0.503 -0.336 -0.503 -1.01 0 -0.671 -0.168 -1.01 -0.503 -1.01 -0.315 0 -0.503 -0.318 -0.503 -0.85 0 -0.467 -0.227 -0.937 -0.503 -1.043 -0.277 -0.106 -0.503 -0.559 -0.503 -1.01 0 -0.448 -0.227 -0.901 -0.503 -1.01 -0.277 -0.106 -0.503 -0.555 -0.503 -0.996 0 -0.49 -0.196 -0.803 -0.503 -0.803 -0.336 0 -0.503 -0.336 -0.503 -1.01 0 -0.671 -0.168 -1.01 -0.503 -1.01 -0.277 0 -0.503 -0.227 -0.503 -0.503 0 -0.313 0.317 -0.503 0.839 -0.503 0.522 0 0.839 -0.19 0.839 -0.503 0 -0.336 0.336 -0.503 1.01 -0.503 0.671 0 1.01 -0.168 1.01 -0.503 0 -0.28 0.298 -0.503 0.671 -0.503 0.373 0 0.671 -0.224 0.671 -0.503 0 -0.336 0.336 -0.503 1.01 -0.503 0.671 0 1.01 -0.168 1.01 -0.503 0 -0.336 0.336 -0.503 1.01 -0.503 0.671 0 1.01 -0.168 1.01 -0.503 0 -0.364 0.373 -0.503 1.342 -0.503 0.97 0 1.342 -0.14 1.342 -0.503 0 -0.352 0.354 -0.503 1.175 -0.503 0.82 0 1.175 -0.152 1.175 -0.503 0 -0.373 0.392 -0.503 1.51 -0.503 1.119 0 1.51 -0.131 1.51 -0.503 0 -0.373 0.392 -0.503 1.51 -0.503 1.119 0 1.51 -0.131 1.51 -0.503 0 -0.313 0.317 -0.503 0.839 -0.503 0.709 0 0.839 0.157 0.839 1.01 0 0.671 0.168 1.01 0.503 1.01 0.392 0 0.503 0.447 0.503 2.01 0 1.566 0.112 2.01 0.503 2.01 0.392 0 0.503 0.447 0.503 2.01 0 1.566 0.112 2.01 0.503 2.01 0.386 0 0.503 0.429 0.503 1.846 0 1.417 0.117 1.846 0.503 1.846 0.392 0 0.503 0.447 0.503 2.01 0 1.566 0.112 2.01 0.503 2.01 0.38 0 0.503 0.41 0.503 1.678 0 1.268 0.123 1.678 0.503 1.678 0.392 0 0.503 0.447 0.503 2.01 0 1.566 0.112 2.01 0.503 2.01 1.115 0 0.41 0.595 -0.916 0.773 -0.781 0.105 -1.473 0.351 -1.538 0.548 -0.066 0.197 -0.56 0.357 -1.098 0.357 -0.646 0 -0.979 0.171 -0.979 0.503 0 0.364 -0.374 0.503 -1.353 0.503 -0.893 0 -1.419 0.171 -1.546 0.503 -0.11 0.287 -0.611 0.503 -1.164 0.503 -0.639 0 -0.971 0.172 -0.971 0.503 0 0.315 -0.318 0.503 -0.85 0.503 -0.467 0 -0.931 0.213 -1.031 0.473 -0.1 0.26 -0.548 0.565 -0.996 0.678 -0.448 0.112 -0.815 0.353 -0.815 0.534 0 0.181 -0.302 0.329 -0.671 0.329 -0.373 0 -0.671 0.224 -0.671 0.503 0 0.313 -0.317 0.503 -0.839 0.503 -0.674 0 -0.839 -0.167 -0.839 -0.85 z"/><path d="m 160.96 69.45 c 0 -0.336 -0.336 -0.503 -1.01 -0.503 -0.671 0 -1.01 -0.168 -1.01 -0.503 0 -0.277 -0.227 -0.503 -0.503 -0.503 -0.277 0 -0.503 -0.227 -0.503 -0.503 0 -0.307 -0.313 -0.503 -0.803 -0.503 -0.442 0 -0.89 -0.227 -0.996 -0.503 -0.106 -0.277 -0.586 -0.503 -1.067 -0.503 -0.48 0 -1.1 -0.227 -1.377 -0.503 -0.277 -0.277 -0.93 -0.503 -1.45 -0.503 -0.532 0 -1.032 -0.221 -1.14 -0.503 -0.128 -0.332 -0.653 -0.503 -1.546 -0.503 -0.833 0 -1.371 -0.161 -1.401 -0.42 -0.155 -1.354 0.178 -5.152 0.467 -5.334 0.189 -0.119 0.419 -1.025 0.512 -2.01 0.093 -0.989 0.323 -1.897 0.511 -2.02 0.188 -0.121 0.415 -1.098 0.504 -2.169 0.089 -1.072 0.367 -2.153 0.618 -2.404 0.282 -0.282 0.456 -1.217 0.456 -2.446 0 -1.545 0.113 -1.99 0.503 -1.99 0.391 0 0.503 -0.444 0.503 -1.986 0 -1.106 0.158 -2.039 0.357 -2.105 0.196 -0.066 0.443 -0.758 0.548 -1.538 0.174 -1.294 0.275 -1.419 1.153 -1.419 0.632 0 0.963 0.173 0.963 0.503 0 0.364 0.373 0.503 1.342 0.503 0.97 0 1.343 0.14 1.343 0.503 0 0.373 0.392 0.503 1.51 0.503 1.119 0 1.51 0.131 1.51 0.503 0 0.336 0.336 0.503 1.01 0.503 0.671 0 1.01 0.168 1.01 0.503 0 0.336 0.336 0.503 1.01 0.503 0.671 0 1.01 0.168 1.01 0.503 0 0.336 0.336 0.503 1.01 0.503 0.671 0 1.01 0.168 1.01 0.503 0 0.336 0.336 0.503 1.01 0.503 0.671 0 1.01 0.168 1.01 0.503 0 0.336 0.336 0.503 1.01 0.503 0.671 0 1.01 0.168 1.01 0.503 0 0.277 0.227 0.503 0.503 0.503 0.277 0 0.503 0.227 0.503 0.503 0 0.336 0.336 0.503 1.01 0.503 0.671 0 1.01 0.168 1.01 0.503 0 0.277 -0.227 0.503 -0.503 0.503 -0.277 0 -0.503 0.227 -0.503 0.503 0 0.277 -0.227 0.503 -0.503 0.503 -0.336 0 -0.503 0.336 -0.503 1.01 0 0.671 -0.168 1.01 -0.503 1.01 -0.336 0 -0.503 0.336 -0.503 1.01 0 0.671 -0.168 1.01 -0.503 1.01 -0.313 0 -0.503 0.317 -0.503 0.839 0 0.522 -0.19 0.839 -0.503 0.839 -0.336 0 -0.503 0.336 -0.503 1.01 0 0.671 -0.168 1.01 -0.503 1.01 -0.336 0 -0.503 0.336 -0.503 1.01 0 0.671 -0.168 1.01 -0.503 1.01 -0.336 0 -0.503 0.336 -0.503 1.01 0 0.671 -0.168 1.01 -0.503 1.01 -0.336 0 -0.503 0.336 -0.503 1.01 0 0.671 -0.168 1.01 -0.503 1.01 -0.336 0 -0.503 0.336 -0.503 1.01 0 0.671 -0.168 1.01 -0.503 1.01 -0.28 0 -0.503 0.298 -0.503 0.671 0 0.373 -0.224 0.671 -0.503 0.671 -0.336 0 -0.503 0.336 -0.503 1.01 0 0.671 -0.168 1.01 -0.503 1.01 -0.313 0 -0.503 0.317 -0.503 0.839 0 0.522 -0.19 0.839 -0.503 0.839 -0.277 0 -0.503 -0.227 -0.503 -0.503 z"/><path d="m 135.12 115.13 c 0 -0.442 0.227 -0.89 0.503 -0.996 0.362 -0.139 0.503 -0.706 0.503 -2.02 0 -1.081 0.158 -1.881 0.386 -1.957 0.213 -0.071 0.459 -1.027 0.548 -2.126 0.089 -1.098 0.32 -2.098 0.513 -2.222 0.193 -0.124 0.418 -1.181 0.501 -2.349 0.092 -1.314 0.325 -2.227 0.611 -2.393 0.301 -0.175 0.461 -0.895 0.461 -2.07 0 -0.991 0.161 -1.855 0.357 -1.92 0.196 -0.066 0.443 -0.758 0.548 -1.538 0.187 -1.391 0.216 -1.419 1.489 -1.419 0.93 0 1.298 0.143 1.298 0.503 0 0.277 0.227 0.503 0.503 0.503 0.277 0 0.503 0.227 0.503 0.503 0 0.28 0.298 0.503 0.671 0.503 0.369 0 0.671 0.148 0.671 0.329 0 0.181 0.378 0.424 0.839 0.54 0.793 0.199 1.214 1.145 0.51 1.145 -0.181 0 -0.433 0.414 -0.56 0.92 -0.127 0.506 -0.432 1.121 -0.678 1.366 -0.246 0.246 -0.447 0.738 -0.447 1.094 0 0.356 -0.148 0.647 -0.329 0.647 -0.181 0 -0.421 0.367 -0.534 0.815 -0.112 0.448 -0.417 0.896 -0.678 0.996 -0.26 0.1 -0.473 0.548 -0.473 0.995 0 0.448 -0.227 0.901 -0.503 1.01 -0.277 0.106 -0.503 0.576 -0.503 1.043 0 0.531 -0.189 0.85 -0.503 0.85 -0.336 0 -0.503 0.336 -0.503 1.01 0 0.671 -0.168 1.01 -0.503 1.01 -0.28 0 -0.503 0.298 -0.503 0.671 0 0.369 -0.148 0.671 -0.329 0.671 -0.181 0 -0.433 0.414 -0.56 0.92 -0.127 0.506 -0.432 1.121 -0.678 1.366 -0.246 0.246 -0.447 0.673 -0.447 0.95 0 0.77 -0.862 1.462 -1.822 1.462 -0.687 0 -0.863 -0.164 -0.863 -0.803 z"/><path d="m 125.05 115.43 c 0 -0.277 -0.227 -0.503 -0.503 -0.503 -0.336 0 -0.503 -0.336 -0.503 -1.01 0 -0.671 -0.168 -1.01 -0.503 -1.01 -0.336 0 -0.503 -0.336 -0.503 -1.01 0 -0.671 -0.168 -1.01 -0.503 -1.01 -0.313 0 -0.503 -0.317 -0.503 -0.839 0 -0.522 -0.19 -0.839 -0.503 -0.839 -0.336 0 -0.503 -0.336 -0.503 -1.01 0 -0.671 -0.168 -1.01 -0.503 -1.01 -0.336 0 -0.503 -0.336 -0.503 -1.01 0 -0.671 -0.168 -1.01 -0.503 -1.01 -0.336 0 -0.503 -0.336 -0.503 -1.01 0 -0.671 -0.168 -1.01 -0.503 -1.01 -0.28 0 -0.503 -0.298 -0.503 -0.671 0 -0.373 -0.224 -0.671 -0.503 -0.671 -0.336 0 -0.503 -0.336 -0.503 -1.01 0 -0.671 -0.168 -1.01 -0.503 -1.01 -0.336 0 -0.503 -0.336 -0.503 -1.01 0 -0.671 -0.168 -1.01 -0.503 -1.01 -0.277 0 -0.503 -0.151 -0.503 -0.336 0 -0.185 0.453 -0.336 1.01 -0.336 0.671 0 1.01 -0.168 1.01 -0.503 0 -0.277 0.227 -0.503 0.503 -0.503 0.277 0 0.503 -0.227 0.503 -0.503 0 -0.336 0.336 -0.503 1.01 -0.503 0.671 0 1.01 -0.168 1.01 -0.503 0 -0.373 0.392 -0.503 1.51 -0.503 1.119 0 1.51 -0.131 1.51 -0.503 0 -0.336 0.336 -0.503 1.01 -0.503 1.01 0 1.01 0 1.01 2.01 0 1.566 0.112 2.01 0.503 2.01 0.392 0 0.503 0.447 0.503 2.01 0 1.566 0.112 2.01 0.503 2.01 0.386 0 0.503 0.429 0.503 1.846 0 1.417 0.117 1.846 0.503 1.846 0.392 0 0.503 0.448 0.503 2.01 0 1.566 0.112 2.01 0.503 2.01 0.392 0 0.503 0.448 0.503 2.01 0 1.566 0.112 2.01 0.503 2.01 0.373 0 0.503 0.392 0.503 1.51 v 1.51 h -2.517 c -2.01 0 -2.517 -0.101 -2.517 -0.503 z"/><path d="m 123.03 123.49 c 0 -0.373 -0.392 -0.503 -1.51 -0.503 -1.119 0 -1.51 -0.131 -1.51 -0.503 0 -0.392 -0.447 -0.503 -2.01 -0.503 -1.566 0 -2.01 -0.112 -2.01 -0.503 0 -0.372 -0.388 -0.503 -1.482 -0.503 -0.815 0 -1.534 -0.155 -1.597 -0.344 -0.063 -0.189 -0.716 -0.441 -1.451 -0.561 -0.735 -0.119 -1.538 -0.418 -1.783 -0.663 -0.246 -0.246 -1.099 -0.446 -1.897 -0.446 -0.98 0 -1.513 -0.163 -1.644 -0.503 -0.106 -0.277 -0.576 -0.503 -1.043 -0.503 -0.672 0 -0.85 -0.168 -0.85 -0.803 0 -0.442 0.227 -0.89 0.503 -0.996 0.329 -0.126 0.503 -0.649 0.503 -1.51 0 -0.861 0.174 -1.384 0.503 -1.51 0.277 -0.106 0.503 -0.576 0.503 -1.043 0 -0.531 0.189 -0.85 0.503 -0.85 0.277 0 0.503 0.148 0.503 0.329 0 0.181 0.367 0.421 0.815 0.534 0.448 0.112 0.896 0.417 0.996 0.678 0.1 0.26 0.564 0.473 1.031 0.473 0.531 0 0.85 0.189 0.85 0.503 0 0.277 0.227 0.503 0.503 0.503 0.277 0 0.503 0.227 0.503 0.503 0 0.336 0.336 0.503 1.01 0.503 0.671 0 1.01 0.168 1.01 0.503 0 0.277 0.227 0.503 0.503 0.503 0.277 0 0.503 0.139 0.503 0.309 0 0.17 0.453 0.408 1.01 0.53 0.554 0.122 1.01 0.436 1.01 0.698 0 0.262 0.227 0.477 0.503 0.477 0.277 0 0.503 0.139 0.503 0.309 0 0.17 0.453 0.408 1.01 0.53 0.554 0.122 1.01 0.436 1.01 0.698 0 0.262 0.227 0.477 0.503 0.477 0.277 0 0.503 0.151 0.503 0.336 0 0.185 0.453 0.336 1.01 0.336 0.671 0 1.01 0.168 1.01 0.503 0 0.277 0.227 0.503 0.503 0.503 0.336 0 0.503 0.336 0.503 1.01 0 0.671 -0.168 1.01 -0.503 1.01 -0.277 0 -0.503 -0.227 -0.503 -0.503 z"/><path d="m 107.93 139.6 c 0 -0.277 -0.151 -0.503 -0.336 -0.503 -0.185 0 -0.336 -0.453 -0.336 -1.01 0 -0.671 -0.168 -1.01 -0.503 -1.01 -0.373 0 -0.503 -0.392 -0.503 -1.51 0 -1.119 -0.131 -1.51 -0.503 -1.51 -0.277 0 -0.503 -0.227 -0.503 -0.503 0 -0.392 0.448 -0.503 2.01 -0.503 1.566 0 2.01 -0.112 2.01 -0.503 0 -0.386 0.429 -0.503 1.846 -0.503 1.417 0 1.846 -0.117 1.846 -0.503 0 -0.392 0.448 -0.503 2.01 -0.503 1.566 0 2.01 -0.112 2.01 -0.503 0 -0.392 0.448 -0.503 2.01 -0.503 1.566 0 2.01 -0.112 2.01 -0.503 0 -0.373 0.392 -0.503 1.51 -0.503 1.454 0 1.51 0.037 1.51 1.01 0 0.895 -0.112 1.01 -1.01 1.01 -0.671 0 -1.01 0.168 -1.01 0.503 0 0.277 -0.227 0.503 -0.503 0.503 -0.277 0 -0.503 0.227 -0.503 0.503 0 0.336 -0.336 0.503 -1.01 0.503 -0.671 0 -1.01 0.168 -1.01 0.503 0 0.336 -0.336 0.503 -1.01 0.503 -0.671 0 -1.01 0.168 -1.01 0.503 0 0.277 -0.227 0.503 -0.503 0.503 -0.277 0 -0.503 0.227 -0.503 0.503 0 0.336 -0.336 0.503 -1.01 0.503 -0.671 0 -1.01 0.168 -1.01 0.503 0 0.336 -0.336 0.503 -1.01 0.503 -0.671 0 -1.01 0.168 -1.01 0.503 0 0.277 -0.227 0.503 -0.503 0.503 -0.277 0 -0.503 0.227 -0.503 0.503 0 0.336 -0.336 0.503 -1.01 0.503 -0.671 0 -1.01 0.168 -1.01 0.503 0 0.277 -0.227 0.503 -0.503 0.503 -0.277 0 -0.503 -0.227 -0.503 -0.503 z"/><path d="m 123.98 154.51 c -0.066 -0.196 -0.758 -0.443 -1.538 -0.548 -0.884 -0.119 -1.419 -0.363 -1.419 -0.65 0 -0.253 -0.227 -0.459 -0.503 -0.459 -0.277 0 -0.503 -0.139 -0.503 -0.309 0 -0.17 -0.453 -0.408 -1.01 -0.53 -1.021 -0.224 -1.428 -1.175 -0.503 -1.175 0.313 0 0.503 -0.317 0.503 -0.839 0 -0.522 0.19 -0.839 0.503 -0.839 0.336 0 0.503 -0.336 0.503 -1.01 0 -0.671 0.168 -1.01 0.503 -1.01 0.28 0 0.503 -0.298 0.503 -0.671 0 -0.373 0.224 -0.671 0.503 -0.671 0.336 0 0.503 -0.336 0.503 -1.01 0 -0.671 0.168 -1.01 0.503 -1.01 0.313 0 0.503 -0.317 0.503 -0.839 0 -0.522 0.19 -0.839 0.503 -0.839 0.277 0 0.503 -0.227 0.503 -0.503 0 -0.392 0.448 -0.503 2.01 -0.503 h 2.01 v 1.342 c 0 0.97 -0.14 1.343 -0.503 1.343 -0.392 0 -0.503 0.447 -0.503 2.01 0 1.566 -0.112 2.01 -0.503 2.01 -0.38 0 -0.503 0.41 -0.503 1.678 0 1.268 -0.123 1.678 -0.503 1.678 -0.386 0 -0.503 0.429 -0.503 1.846 0 1.369 -0.123 1.846 -0.475 1.846 -0.262 0 -0.529 -0.161 -0.595 -0.357 z"/><path d="m 140.02 152.52 c -0.118 -0.738 -0.345 -1.342 -0.505 -1.342 -0.16 0 -0.361 -0.861 -0.449 -1.913 -0.087 -1.052 -0.332 -1.971 -0.545 -2.042 -0.221 -0.073 -0.386 -0.827 -0.386 -1.755 0 -0.998 -0.194 -1.821 -0.503 -2.13 -0.665 -0.665 -0.665 -2.23 0 -2.23 0.277 0 0.503 0.227 0.503 0.503 0 0.277 0.151 0.503 0.336 0.503 0.185 0 0.336 0.227 0.336 0.503 0 0.277 0.227 0.503 0.503 0.503 0.315 0 0.503 0.318 0.503 0.85 0 0.467 0.227 0.937 0.503 1.043 0.277 0.106 0.503 0.559 0.503 1.01 0 0.448 0.213 0.895 0.473 0.995 0.26 0.1 0.565 0.548 0.678 0.996 0.112 0.448 0.353 0.815 0.534 0.815 0.181 0 0.329 0.231 0.329 0.514 0 0.283 0.227 0.601 0.503 0.707 0.328 0.126 0.503 0.648 0.503 1.5 0 1.174 -0.086 1.307 -0.85 1.307 -0.467 0 -0.937 0.227 -1.043 0.503 -0.106 0.277 -0.535 0.503 -0.953 0.503 -0.627 0 -0.798 -0.235 -0.975 -1.343 z"/></g></g></g></svg>