<svg xmlns="http://www.w3.org/2000/svg" xmlns:xlink="http://www.w3.org/1999/xlink" viewBox="0 0 256 256"><defs><path id="0" d="m 154.76 95.45 a 23.446 26.18 0 1 1 -46.892 0 23.446 26.18 0 1 1 46.892 0 z" style="fill:#ffd700;stroke:#ffd700;fill-rule:evenodd"/><clipPath><path transform="matrix(15.33333 0 0 11.5 415 -125.5)" d="m -24 13 c 0 1.105 -0.672 2 -1.5 2 -0.828 0 -1.5 -0.895 -1.5 -2 0 -1.105 0.672 -2 1.5 -2 0.828 0 1.5 0.895 1.5 2 z"/></clipPath></defs><g transform="translate(-1.089 -0.535)"><path d="M 219.87,1024.74 C 311.92,893.81 141.922,761.14 33.48,867.83 c -102.17,100.51 -7.449,256.68 119.69,207.86 26.526,-10.185 49.802,-26.914 66.7,-50.948 z" transform="matrix(0.99069 0 0 0.9941 10.76 -823.49)" style="fill:#fff;color:#000"/><path d="m 131.08 167 c -0.749 -0.907 -0.473 -6.764 0.574 -12.188 2.392 -12.395 9.108 -23.998 19.271 -33.3 4.936 -4.517 4.968 -4.569 4.865 -8.07 -0.057 -1.936 -0.746 -5.308 -1.532 -7.493 -1.969 -5.477 -2.436 -13.952 -1.079 -19.602 1.951 -8.129 8.189 -16.72 12.982 -17.881 1.028 -0.249 1.87 -0.766 1.87 -1.148 0 -0.382 1.716 -0.695 3.814 -0.695 7.275 0 14.817 6.326 18.239 15.296 1.668 4.373 1.893 5.865 1.893 12.54 0 6.823 -0.196 8.05 -1.968 12.372 -2.976 7.252 -2.518 9.09 3.665 14.718 2.739 2.491 6.635 6.743 8.658 9.449 6.486 8.679 11.881 23.645 11.493 31.878 l -0.201 4.247 l -41.05 0.205 c -22.579 0.113 -41.25 -0.036 -41.493 -0.331 z" style="fill:#fa8072"/><path d="m 39.22 173.56 c -0.713 -0.915 -0.451 -6.828 0.546 -12.304 2.278 -12.513 8.675 -24.23 18.359 -33.617 4.702 -4.56 4.732 -4.613 4.634 -8.144 -0.054 -1.955 -0.711 -5.359 -1.459 -7.564 -1.876 -5.529 -2.32 -14.08 -1.028 -19.789 1.858 -8.206 7.8 -16.879 12.366 -18.05 0.98 -0.251 1.781 -0.773 1.781 -1.159 0 -0.386 1.635 -0.702 3.632 -0.702 6.929 0 14.12 6.387 17.373 15.441 1.589 4.415 1.803 5.921 1.803 12.66 0 6.888 -0.187 8.13 -1.875 12.49 -2.835 7.321 -2.398 9.179 3.494 14.858 2.609 2.514 6.318 6.807 8.247 9.539 6.177 8.762 11.318 23.87 10.947 32.18 l -0.191 4.288 l -39.11 0.206 c -21.508 0.114 -39.29 -0.037 -39.526 -0.334 z" style="fill:#ffa07a"/><path d="m 78.21 186.95 c -0.865 -1.019 -0.546 -7.601 0.663 -13.696 2.762 -13.929 10.515 -26.967 22.255 -37.421 5.699 -5.076 5.736 -5.135 5.617 -9.07 -0.066 -2.176 -0.862 -5.965 -1.768 -8.42 -2.274 -6.155 -2.813 -15.678 -1.246 -22.03 2.253 -9.134 9.454 -18.789 14.988 -20.09 1.187 -0.28 2.159 -0.86 2.159 -1.29 0 -0.43 1.981 -0.781 4.403 -0.781 8.399 0 17.11 7.109 21.06 17.188 1.926 4.914 2.185 6.591 2.185 14.09 0 7.668 -0.226 9.05 -2.273 13.903 -3.437 8.15 -2.907 10.218 4.235 16.539 3.162 2.799 7.66 7.577 9.995 10.619 7.488 9.753 13.717 26.571 13.269 35.823 l -0.231 4.773 l -47.4 0.23 c -26.07 0.126 -47.624 -0.041 -47.908 -0.372 z" style="fill:#ff4500"/><use transform="matrix(1.05367 0 0 1.14589 -12.876 -8.08)" xlink:href="#0" width="256" height="256"/><use transform="matrix(0.91926 0 0 0.98432 51.816 -3.408)" xlink:href="#0" width="256" height="256"/><use transform="matrix(0.87879 0 0 1.0029 -38.841 0.518)" xlink:href="#0" width="256" height="256"/></g></svg>