<svg xmlns="http://www.w3.org/2000/svg" viewBox="0 0 256 256"><path transform="matrix(-1 0 0 -1 245.66 1052.36)" d="m 213.3 834.88 c 146.42 225.37 -253.5 312.59 -221.64 80.74 12.991 -94.56 165.63 -166.95 221.64 -80.74 z" style="fill:#fff;color:#000"/><g transform="matrix(0.18209 -0.54997 -0.54521 -0.18052 609.33 361.24)" style="fill:#ff4500"><path d="m 3.74 950.97 c 19.829 131.87 217.21 135.83 247.04 7.636 30.702 -103.78 -80.47 -188.63 -163.63 -154.63 -55.684 16.07 -100.67 81.83 -83.41 146.99 z" style="color:#000"/><g style="fill:#8b0000;stroke:#8b0000"><path d="m 198.98 128 c 0 39.2 -31.781 70.984 -70.984 70.984 -39.2 0 -70.984 -31.781 -70.984 -70.984 0 -39.2 31.781 -70.984 70.984 -70.984 39.2 0 70.984 31.781 70.984 70.984 z" transform="matrix(0.53092 0 0 0.53092 60.04 856.4)" style="color:#000"/><g style="stroke-linecap:round;stroke-width:10"><path d="m 128,924.36 72.33,-41.758"/><path d="M 128,924.36 48.54,844.9"/></g><path d="m 142.36 128 c 0 7.928 -6.427 14.355 -14.355 14.355 -7.928 0 -14.355 -6.427 -14.355 -14.355 0 -7.928 6.427 -14.355 14.355 -14.355 7.928 0 14.355 6.427 14.355 14.355 z" transform="matrix(1.42294 0 0 1.42294 -54.14 742.23)" style="color:#000"/></g></g></svg>