<svg xmlns="http://www.w3.org/2000/svg" viewBox="0 0 256 256"><path d="m 252.46 98.7 c -49.33 -237.88 -388.7 17.492 -184.83 138.4 79.19 51.828 210.21 -16.06 184.83 -138.4 z" style="fill:#fff;color:#000"/><g transform="translate(-1.085 3.254)"><path d="m 102.41 207 c -0.919 -1.717 -0.746 -2.494 0.965 -4.314 1.147 -1.221 2.086 -3.372 2.086 -4.781 0 -2.02 -0.607 -2.682 -2.874 -3.135 -3.876 -0.775 -4.708 -3.397 -2.17 -6.83 2.661 -3.599 2.59 -6.131 -0.206 -7.358 -2.824 -1.239 -3.443 -5.064 -1.216 -7.524 1.209 -1.336 1.791 -4.106 2.03 -9.668 0.185 -4.287 0.358 -8.182 0.386 -8.655 0.053 -0.906 5.482 -0.417 8.07 0.727 1.079 0.476 1.848 -0.188 2.637 -2.279 0.858 -2.273 2.059 -3.197 5.227 -4.02 2.262 -0.588 5.97 -1.552 8.24 -2.142 4.757 -1.237 4.237 -2.132 -2.254 -3.875 -7.906 -2.124 -11.685 -1.806 -14.176 1.192 -9.772 11.759 -21.04 14.08 -39.831 8.205 -6.075 -1.899 -6.391 -1.865 -9.08 0.973 -5.252 5.554 -13.359 2.113 -8.768 -3.723 1.088 -1.383 1.978 -3.625 1.978 -4.982 0 -1.941 -0.639 -2.595 -3 -3.067 -3.622 -0.724 -4.01 -3.556 -1 -7.377 2.69 -3.42 2.52 -4.915 -0.738 -6.476 -3.538 -1.696 -4 -4.382 -1.258 -7.302 1.739 -1.851 2.243 -3.751 2.466 -9.304 0.357 -8.888 0.794 -9.564 5.675 -8.784 3.464 0.554 3.994 0.359 4.802 -1.767 0.967 -2.544 4.146 -3.54 23.05 -7.225 10.169 -1.982 12.978 -2.069 13.989 -0.433 1.187 1.92 1.981 -0.18 2.462 -6.508 0.238 -3.128 1.096 -6.427 1.906 -7.33 0.811 -0.904 1.775 -3.443 2.143 -5.643 1.248 -7.463 2.588 -9.993 7.299 -13.778 6.611 -5.312 16.494 -9.824 24.702 -11.278 3.85 -0.682 7.334 -1.037 7.742 -0.788 0.408 0.249 5.466 0.46 11.24 0.469 8.741 0.014 10.671 0.297 11.532 1.696 0.938 1.524 1.183 1.471 2.632 -0.571 2.38 -3.351 7.095 -3.072 8.434 0.5 1.675 4.466 6.165 10.393 8.566 11.306 3.704 1.408 4.634 4.317 2.321 7.257 l -1.988 2.527 l 2.644 2.08 c 1.454 1.144 3.034 2.08 3.51 2.08 1.322 0 1.03 5.778 -0.315 6.227 -1.881 0.627 -0.141 3.684 3.165 5.56 1.661 0.942 3.284 2.533 3.607 3.535 0.708 2.195 -2.168 5.678 -4.689 5.678 -2.564 0 -3.275 1.702 -3.02 7.232 0.122 2.679 -0.745 8.734 -1.928 13.455 -1.582 6.317 -1.886 9.164 -1.15 10.78 0.55 1.208 4.982 7.258 9.849 13.446 19.396 24.66 18.836 23.59 15.954 30.489 -2.899 6.939 -9.348 8.372 -18.822 4.182 -4.395 -1.944 -7.977 -5.076 -18.297 -16 -11.815 -12.506 -16.767 -16.403 -15.04 -11.833 1.443 3.815 5.12 8.135 8.01 9.408 3.776 1.665 4.317 4.069 1.539 6.847 -2.448 2.448 -1.658 4.083 3.183 6.586 3.206 1.658 3.878 5.718 1.195 7.22 -2.247 1.258 -0.684 3.79 3.685 5.97 4.379 2.185 5.03 5.459 1.542 7.745 -2.124 1.392 -3.091 1.466 -6.114 0.468 -5.304 -1.75 -8 -0.595 -15.16 6.497 -10.334 10.232 -15.13 10.901 -42.18 5.874 -2.784 -0.518 -3.767 -0.177 -5.79 2.01 -3.06 3.3 -7.783 3.569 -9.407 0.534 z m 12.828 -7.462 c 3.694 -2.587 2.397 -8.443 -1.871 -8.443 -2.032 0 -2.907 1.981 -2.907 6.582 0 3.802 1.29 4.304 4.777 1.862 z m 57.01 -13.541 c 0.167 -0.878 -1.047 -3.042 -2.697 -4.809 -2.538 -2.717 -3.313 -3.044 -5.03 -2.124 -2.226 1.191 -3.615 5.13 -2.674 7.583 0.847 2.207 9.969 1.637 10.403 -0.65 z m -57.785 -5.368 c 0 -1.483 -0.839 -2.914 -2.107 -3.593 -2.304 -1.233 -3.322 -0.59 -4.324 2.732 -0.522 1.731 -0.188 2.264 1.638 2.614 4.409 0.844 4.793 0.704 4.793 -1.753 z m 48.51 -8.788 c 2.914 -2.507 2.632 -5.251 -0.648 -6.292 -3.615 -1.147 -5.918 2.623 -4.253 6.963 0.817 2.13 1.801 1.995 4.901 -0.671 z m -51.51 -6.212 c 0 -1.424 -0.827 -2.907 -1.958 -3.513 -1.59 -0.851 -2.169 -0.654 -3.077 1.043 -1.547 2.89 -0.509 4.935 2.504 4.935 2.024 0 2.531 -0.494 2.531 -2.465 z m 48.43 -9.857 c 1.565 -2.481 -2.654 -6.568 -4.876 -4.724 -1.606 1.333 -2.02 4.668 -0.932 7.504 0.541 1.409 0.895 1.441 2.695 0.246 1.14 -0.757 2.541 -2.119 3.114 -3.03 z m -95.97 -9.638 c 2.101 -2.322 1.447 -6.477 -1.179 -7.484 -2.315 -0.889 -4.285 1.932 -4.285 6.135 0 3.902 2.577 4.539 5.464 1.349 z m 88.973 -15.938 c 0.305 -0.494 -3.381 -1.087 -8.191 -1.319 -9.07 -0.437 -12.549 0.123 -8.236 1.324 3.708 1.032 15.788 1.028 16.427 -0.005 z m -90.44 -1.98 c 0 -2.399 -2.525 -4.519 -4.487 -3.766 -0.832 0.319 -1.513 1.72 -1.513 3.112 0 2.146 0.457 2.531 3 2.531 2.268 0 3 -0.458 3 -1.878 z m 95.96 -10.265 c 4.666 -1.576 7.696 -3.463 11.444 -7.127 5.206 -5.089 5.123 -7.657 -0.123 -3.778 -3.649 2.697 -13.694 4.363 -18.318 3.037 -1.896 -0.544 -4.741 -0.989 -6.32 -0.989 -1.58 0 -5.05 -0.775 -7.72 -1.722 l -4.848 -1.722 l -2.841 2.722 c -1.563 1.497 -3.829 2.722 -5.04 2.722 -1.207 0 -2.195 0.395 -2.195 0.878 0 1.601 2.818 3.252 9.696 5.679 8.785 3.1 17.669 3.202 26.26 0.3 z m -98.96 -4.235 c 0 -2.664 -2.358 -5.137 -3.956 -4.15 -1.731 1.07 -1.215 5.336 0.706 5.838 3.094 0.808 3.25 0.727 3.25 -1.688 z m 61.989 -9.345 c 1.106 -0.947 2.01 -2.773 2.01 -4.058 0 -2.129 -0.376 -2.308 -4.25 -2.028 -3.452 0.25 -4.307 0.706 -4.553 2.433 -0.298 2.089 2.064 5.375 3.863 5.375 0.504 0 1.822 -0.775 2.929 -1.722 z m 12.344 -3.342 c 2.804 -4 -1.112 -9.325 -3.977 -5.407 -0.745 1.019 -1.355 3.118 -1.355 4.662 0 3.454 3.129 3.891 5.333 0.744 z m -19.503 -23.4 c 2.109 -1.906 4.652 -5.276 5.65 -7.49 1.559 -3.458 1.98 -3.8 2.984 -2.426 1.239 1.694 4.635 1.591 5.217 -0.159 0.19 -0.572 -0.307 -1.922 -1.106 -3 -1.241 -1.674 -1.753 -1.776 -3.513 -0.701 -2.371 1.448 -2.801 0.101 -0.561 -1.758 2.409 -1.999 1.731 -3.038 -1.25 -1.914 -3.921 1.478 -8.892 6.566 -12.408 12.699 -4.797 8.369 -1.984 11.05 4.987 4.75 z m 63.17 -18.424 c 0 -1.895 -3.704 -5.412 -4.913 -4.664 -0.915 0.565 -0.651 1.389 1.012 3.159 2.312 2.461 3.901 3.074 3.901 1.505 z" style="fill:#ff0202"/><path d="m 104.71 207.43 c -1.93 -0.779 -1.482 -3.061 0.932 -4.753 2.344 -1.642 4.818 -0.613 4.818 2 0 1.117 -3.117 3.601 -4.184 3.334 -0.174 -0.043 -0.878 -0.306 -1.566 -0.583 z m 24.654 -3.235 c -6.864 -0.74 -8.904 -2.291 -8.904 -6.771 0 -4.181 -3.74 -8.332 -7.507 -8.332 -2 0 -2.844 0.706 -3.67 3.076 -0.765 2.195 -1.38 2.768 -2.148 2 -0.592 -0.592 -2.084 -1.076 -3.317 -1.076 -1.233 0 -2.537 -0.478 -2.898 -1.063 -0.875 -1.416 2.396 -4.937 4.587 -4.937 0.956 0 2.01 -0.703 2.338 -1.562 0.478 -1.245 1.515 -1.425 5.107 -0.886 4.107 0.616 4.507 0.492 4.507 -1.391 0 -3.336 -2.037 -6.856 -4.657 -8.05 -3.69 -1.681 -4.317 -1.416 -5.962 2.521 -1.129 2.703 -1.807 3.342 -2.649 2.5 -0.622 -0.622 -1.915 -1.132 -2.873 -1.132 -2.8 0 -3.233 -1.973 -0.964 -4.388 1.158 -1.232 2.105 -3.02 2.105 -3.971 0 -1.462 0.582 -1.619 3.75 -1.01 6.539 1.261 7.724 1.05 8.08 -1.441 0.694 -4.899 -5.86 -10.07 -9.225 -7.277 -1.09 0.905 -1.508 0.596 -2.036 -1.506 -0.888 -3.537 -0.194 -3.99 4.28 -2.795 4.83 1.289 6.154 0.811 6.154 -2.222 0 -2.836 1.69 -3.652 12.334 -5.959 3.941 -0.854 9.931 -2.493 13.31 -3.641 6.68 -2.269 9.356 -1.95 9.356 1.118 0 1.085 0.414 2.228 0.919 2.541 1.434 0.886 4.221 -2.475 3.884 -4.683 -0.282 -1.845 -1.276 -2.01 -14.156 -2.405 -16.03 -0.487 -19.19 -1.458 -24.625 -7.588 -3.251 -3.663 -3.976 -4.057 -5.358 -2.91 -1.22 1.013 -1.455 2.377 -0.991 5.759 0.596 4.35 0.508 4.523 -4.782 9.416 -6.227 5.758 -11.09 7.476 -18.382 6.494 c -2.754 -0.371 -7.03 -0.916 -9.507 -1.211 c -5.819 -0.695 -6.644 -1.46 -7.463 -6.927 -0.78 -5.203 -3.665 -8.66 -6.848 -8.207 -1.204 0.171 -2.635 1.33 -3.182 2.575 -0.561 1.279 -1.576 2.04 -2.332 1.75 -0.736 -0.283 -2.427 -0.514 -3.757 -0.514 -1.669 0 -2.418 -0.562 -2.418 -1.814 0 -2.519 7.243 -6.186 12.22 -6.186 4.01 0 4.03 -0.017 3.402 -3.25 -1.192 -6.169 -7.801 -9.04 -9.645 -4.19 -0.824 2.166 -1.45 2.485 -4.07 2.072 -3.987 -0.628 -4.625 -1.337 -3.086 -3.431 0.688 -0.936 1.759 -2.875 2.38 -4.309 1.031 -2.38 1.441 -2.535 4.714 -1.774 5.901 1.372 7.085 1.124 7.085 -1.484 0 -1.301 -0.95 -3.573 -2.111 -5.05 -1.628 -2.07 -2.829 -2.616 -5.25 -2.385 -2.641 0.252 -3.192 -0.074 -3.472 -2.056 -0.323 -2.279 -0.172 -2.333 4.67 -1.667 4.709 0.648 5.02 0.552 5.333 -1.635 0.469 -3.298 3.954 -4.635 19.608 -7.519 l 13.679 -2.52 l 1.418 2.135 l 1.418 2.135 l 2.313 -2.173 l 2.313 -2.173 l 0.94 2.386 c 0.517 1.312 1.435 4.238 2.04 6.501 1.108 4.145 4.515 9.385 6.102 9.385 0.471 0 3.475 1.543 6.677 3.43 8.313 4.897 16.179 6.934 26.822 6.942 6.996 0.006 10.177 -0.48 14.287 -2.182 6.448 -2.671 7.213 -2.704 7.213 -0.312 0 4.094 6.091 5.603 6.844 1.695 0.216 -1.123 -0.562 -2.605 -1.895 -3.611 l -2.261 -1.706 l 6.143 -7.297 c 4.098 -4.869 6.342 -8.489 6.74 -10.878 0.329 -1.969 1.086 -5.156 1.682 -7.081 l 1.084 -3.5 l 1.357 3.306 c 1.199 2.92 1.118 4.109 -0.69 10.182 -1.25 4.198 -3.384 8.475 -5.479 10.983 -3.82 4.572 -3.753 5.745 0.508 8.895 1.614 1.193 3.686 3.624 4.604 5.402 1.445 2.799 13.08 18.199 24.737 32.732 2.077 2.59 3.612 5.618 3.618 7.134 0.013 3.624 -6.909 9.866 -10.941 9.866 -3.997 0 -12 -6.8 -24.381 -20.707 -9.885 -11.11 -12.713 -13.293 -17.191 -13.293 -2.188 0 -2.372 0.322 -1.866 3.25 0.309 1.787 0.737 3.823 0.952 4.523 0.289 0.941 -0.085 1.018 -1.432 0.298 -4.196 -2.245 -8.838 5.874 -6.188 10.824 1.414 2.642 3.23 2.676 5.556 0.105 0.995 -1.1 2.429 -2 3.186 -2 0.757 0 1.618 -0.629 1.912 -1.397 0.421 -1.098 1.379 -0.845 4.469 1.178 4.471 2.928 4.744 3.696 1.933 5.452 -1.1 0.687 -2 1.894 -2 2.683 0 1.01 -0.723 0.755 -2.445 -0.863 -3.384 -3.179 -7.02 -2.194 -8.508 2.304 -1.118 3.387 -0.255 7.781 1.775 9.04 0.521 0.322 3.215 -1.221 5.987 -3.428 3.171 -2.524 5.29 -3.61 5.712 -2.926 0.37 0.598 1.753 1.498 3.075 2 2.888 1.098 2.994 2.674 0.388 5.801 l -1.948 2.337 l -2.626 -2.065 c -3.327 -2.617 -5.957 -1.443 -8.06 3.601 -1.179 2.821 -1.245 4.123 -0.325 6.346 1.633 3.943 0.644 6.068 -5.066 10.883 -7.186 6.06 -10.905 6.796 -26.05 5.164 z m 29.52 -70.24 c 4.521 -1.572 5.331 -2.966 3.05 -5.248 -1.327 -1.327 -4.01 -1.616 -14.968 -1.616 -7.344 0 -15.635 -0.527 -18.424 -1.171 -12.293 -2.838 -5.296 4.971 7.92 8.838 5.324 1.558 16.816 1.146 22.423 -0.803 z m 16.289 56.52 c -0.392 -0.392 -0.713 -1.989 -0.713 -3.549 0 -2.805 0.036 -2.822 3.25 -1.51 4.062 1.657 4.501 5.03 0.713 5.476 -1.396 0.163 -2.858 -0.025 -3.25 -0.417 z m -122.79 -36.974 c -1.129 -1.361 -0.967 -1.863 1.11 -3.43 1.756 -1.324 2.786 -1.542 3.701 -0.783 1.841 1.528 1.554 3.583 -0.667 4.772 -2.497 1.336 -2.58 1.325 -4.144 -0.559 z m 62.27 -43.22 c -4.04 -4.04 -8.428 -11.546 -8.929 -15.276 -0.54 -4.03 1.252 -5.686 2.343 -2.165 1.887 6.088 6.137 13.582 8.134 14.341 2.309 0.878 3.03 3.315 1.297 4.387 -0.53 0.328 -1.811 -0.252 -2.846 -1.287 z m 7.209 -2.352 c -0.407 -0.659 0.272 -1.964 1.57 -3.02 1.754 -1.42 2.609 -1.587 3.659 -0.716 1.834 1.522 1.735 3.539 -0.211 4.286 -2.418 0.928 -4.225 0.728 -5.02 -0.555 z m 28.6 -0.779 c -1.375 -0.473 -4.155 -0.905 -6.179 -0.959 -4.758 -0.129 -6.821 -2.277 -6.821 -7.099 0 -2.975 -0.602 -4.33 -2.635 -5.929 -3.529 -2.776 -5.03 -2.612 -6.766 0.735 -1.268 2.452 -1.913 2.754 -5.089 2.383 -2.89 -0.337 -4.163 -1.219 -6.196 -4.292 -2.38 -3.596 -2.478 -4.193 -1.396 -8.488 1.694 -6.727 5.588 -11.154 10.54 -11.981 4.776 -0.798 5.697 -1.891 4.422 -5.247 -0.813 -2.139 -0.489 -2.88 2.338 -5.346 1.805 -1.574 4.632 -3.644 6.282 -4.6 l 3 -1.738 l -4.152 -0.303 c -2.284 -0.166 -6.946 0.421 -10.361 1.306 -3.415 0.885 -6.386 1.431 -6.603 1.214 -0.9 -0.9 9.523 -5.595 14.616 -6.584 3.03 -0.588 10.588 -0.905 16.806 -0.705 9.08 0.291 11.693 0.713 13.267 2.138 1.892 1.712 2.066 1.675 4.908 -1.048 2.465 -2.362 3.198 -2.615 4.483 -1.548 2.343 1.944 1.836 3.861 -1.113 4.214 -4.216 0.504 -5.255 3.225 -2.393 6.271 2.425 2.581 5.438 3.214 7.895 1.657 1.409 -0.893 7.02 1.319 8.392 3.309 0.411 0.596 -0.214 1.874 -1.397 2.858 -1.809 1.503 -1.97 2.155 -1.038 4.202 0.607 1.332 2.473 3.131 4.147 3.996 3.41 1.763 3.731 2.706 1.543 4.522 -0.825 0.685 -1.5 1.767 -1.5 2.405 0 0.638 -1.231 1.107 -2.735 1.041 -2.47 -0.108 -2.884 -0.691 -4.278 -6.03 -2.804 -10.74 -6.02 -13.871 -8.02 -7.806 -1.616 4.897 -0.616 8.01 2.792 8.694 l 2.783 0.557 l -0.108 8.584 c -0.095 7.537 -0.393 8.888 -2.444 11.07 -1.285 1.368 -2.747 2.487 -3.248 2.487 -0.502 0 -2.845 1.388 -5.207 3.084 -3.361 2.413 -5.571 3.166 -10.163 3.459 -3.228 0.206 -6.994 -0.011 -8.369 -0.484 z m 40.494 -14.07 c -0.904 -1.463 0.426 -4.991 1.882 -4.991 2.335 0 4.969 2.657 4.318 4.355 -0.69 1.798 -5.195 2.26 -6.199 0.636 z" style="fill:#d50000"/><path d="m 105.96 205.09 c 0.34 -0.55 0.816 -1 1.059 -1 0.243 0 0.441 0.45 0.441 1 0 0.55 -0.477 1 -1.059 1 -0.582 0 -0.781 -0.45 -0.441 -1 z m 31 -3 c -1.1 -0.473 -4.273 -0.891 -7.05 -0.93 -5.526 -0.077 -7.45 -1.289 -7.45 -4.694 0 -1.223 -1.23 -3.685 -2.734 -5.472 -1.813 -2.154 -2.318 -3.387 -1.5 -3.66 2.069 -0.69 1.384 -6.744 -1.194 -10.543 -1.965 -2.896 -2.177 -3.785 -1.112 -4.669 1.43 -1.187 0.619 -7.03 -1.297 -9.335 -1.491 -1.796 -0.214 -9.6 1.742 -10.647 0.898 -0.48 5.449 -1.397 10.113 -2.037 7.598 -1.042 12.974 -2.374 18.244 -4.52 1.367 -0.557 2.01 -0.019 2.848 2.394 0.597 1.712 1.491 3.112 1.987 3.112 0.496 0 0.902 1.519 0.902 3.375 0 5.622 1.211 9.867 2.944 10.321 1.205 0.315 1.539 1.294 1.26 3.687 -0.385 3.3 2.024 10.617 3.495 10.618 0.441 0 0.862 2.915 0.936 6.477 l 0.135 6.477 l -5.43 4.639 c -6.448 5.509 -12.261 7.376 -16.841 5.408 z m 0.5 -5.059 c 0 -0.518 -0.675 -0.941 -1.5 -0.941 -1.546 0 -1.987 1.18 -0.861 2.306 0.799 0.799 2.361 -0.104 2.361 -1.365 z m 14.457 -1.872 c 0.74 -1.197 -1.142 -2.382 -2.474 -1.559 -1.118 0.691 -0.384 2.49 1.016 2.49 0.485 0 1.141 -0.419 1.457 -0.931 z m 25.355 -6.752 c 0.722 -0.289 1.584 -0.253 1.917 0.079 0.332 0.332 -0.258 0.569 -1.313 0.525 -1.165 -0.048 -1.402 -0.285 -0.604 -0.604 z m -7.313 -13.317 c 0.34 -0.55 1.293 -1 2.118 -1 0.825 0 1.222 0.45 0.882 1 -0.34 0.55 -1.293 1 -2.118 1 -0.825 0 -1.222 -0.45 -0.882 -1 z m 26.595 -4.788 c -9 -9.482 -28.835 -34.398 -30.16 -37.89 -1.651 -4.342 3.078 -9.643 6.275 -7.03 0.816 0.666 8.352 10.1 16.746 20.961 8.394 10.863 15.664 19.75 16.15 19.75 2.34 0 -0.258 -3.944 -14.614 -22.19 -8.521 -10.828 -15.493 -20.315 -15.493 -21.08 0 -4.131 4.33 -2.565 8.114 2.935 1.669 2.426 8.852 11.793 15.961 20.816 7.109 9.02 12.926 17.278 12.926 18.345 0 2.518 -7.37 9.174 -10.158 9.174 -1.191 0 -3.757 -1.691 -5.747 -3.788 z m -30.28 -8.896 c 0.722 -0.289 1.584 -0.253 1.917 0.079 0.332 0.332 -0.258 0.569 -1.313 0.525 -1.165 -0.048 -1.402 -0.285 -0.604 -0.604 z m -81.31 -11.342 c -1.1 -0.459 -4.307 -0.866 -7.128 -0.905 -5.607 -0.077 -6.796 -0.954 -7.826 -5.773 -0.377 -1.762 -1.649 -4.43 -2.829 -5.929 -1.468 -1.867 -1.762 -2.853 -0.931 -3.13 1.847 -0.616 1.436 -6.38 -0.684 -9.595 -1.328 -2.01 -1.736 -3.958 -1.384 -6.587 0.323 -2.411 -0.099 -4.888 -1.195 -7.01 -1.219 -2.356 -1.39 -3.583 -0.61 -4.363 0.597 -0.597 1.085 -2.296 1.085 -3.777 0 -3.138 0.48 -3.312 13.5 -4.908 10.603 -1.3 13.563 -1.931 15.241 -3.253 1.563 -1.23 7.606 4.906 6.828 6.933 -0.815 2.124 0.576 10.32 1.752 10.32 0.577 0 2.079 -0.967 3.338 -2.15 2.01 -1.889 2.364 -1.953 2.91 -0.529 0.357 0.929 -0.272 2.757 -1.474 4.285 -2.196 2.792 -2.735 7.843 -1.109 10.395 0.791 1.24 1.264 1.279 2.735 0.221 0.978 -0.703 2.984 -2.043 4.458 -2.978 2.194 -1.391 2.576 -2.218 2.107 -4.561 l -0.572 -2.861 l 5.239 2.655 c 11.913 6.04 27.2 7.988 38.26 4.884 3.214 -0.902 6.167 -1.315 6.564 -0.918 1.01 1.01 -2.504 3.387 -6.729 4.561 -5.095 1.415 -21.681 1.202 -27.546 -0.354 -5.491 -1.457 -7.364 -1.222 -9.254 1.162 -0.973 1.227 -1.522 1.313 -2.45 0.385 -1.986 -1.986 -4.786 -1.36 -7.916 1.769 -2.465 2.465 -2.924 3.668 -2.72 7.129 0.23 3.898 -0.102 4.474 -5.207 9.03 -2.999 2.676 -6.466 5.093 -7.703 5.371 -5.261 1.183 -6.858 1.27 -8.75 0.481 z m 0.5 -5.475 c 0 -0.825 -0.423 -1.5 -0.941 -1.5 -1.261 0 -2.164 1.562 -1.365 2.361 1.126 1.126 2.306 0.686 2.306 -0.861 z m 14 -3 c 0 -0.825 -0.423 -1.5 -0.941 -1.5 -1.261 0 -2.164 1.562 -1.365 2.361 1.126 1.126 2.306 0.686 2.306 -0.861 z m 23.25 -3.75 c -1.298 -1.627 -2.147 -7.75 -1.075 -7.75 0.455 0 0.83 0.338 0.833 0.75 0.003 0.412 1.353 1.517 3 2.453 3.264 1.857 3.909 4.231 1.412 5.19 -2.288 0.878 -3.051 0.76 -4.17 -0.643 z m 31.486 -32.35 c -0.386 -0.386 -3.493 -0.971 -6.905 -1.301 l -6.204 -0.599 l -1.229 -4.829 c -0.676 -2.656 -1.891 -5.581 -2.699 -6.5 -0.922 -1.048 -1.287 -2.861 -0.979 -4.862 0.384 -2.49 -0.07 -3.753 -2.068 -5.75 -3.715 -3.715 -6.895 -3.366 -8.97 0.984 -1.687 3.539 -1.693 3.541 -4.154 1.75 -3.386 -2.464 -3.136 -4.551 0.978 -8.164 2.762 -2.425 4.114 -2.956 6.379 -2.503 3.608 0.722 4.616 -0.722 4.616 -6.611 v -4.484 l 7.845 -3.94 l 7.845 -3.94 l -2.345 -1.906 l -2.345 -1.906 l 6.918 0.558 c 5.142 0.415 7.965 1.238 11 3.208 6.52 4.232 8.582 6.517 8.582 9.509 0 1.522 0.486 3.067 1.081 3.435 0.604 0.373 0.805 1.768 0.456 3.16 -0.837 3.335 1.149 9.06 3.39 9.767 1.53 0.486 1.778 1.615 1.637 7.455 -0.181 7.516 -1.138 9.372 -5.984 11.598 -1.694 0.778 -4.205 2.293 -5.58 3.367 -2.626 2.051 -10.07 3.704 -11.266 2.503 z m 1.266 -6.459 c 0 -0.518 -0.675 -0.941 -1.5 -0.941 -1.546 0 -1.987 1.18 -0.861 2.306 0.799 0.799 2.361 -0.104 2.361 -1.365 z m 13.15 -2.441 c 0 -0.522 -0.484 -1.111 -1.075 -1.308 -0.591 -0.197 -1.075 0.392 -1.075 1.308 0 0.917 0.484 1.505 1.075 1.308 0.591 -0.197 1.075 -0.786 1.075 -1.308 z m -48.15 -3.5 c 0 -0.55 0.702 -1 1.559 -1 0.857 0 1.281 0.45 0.941 1 -0.34 0.55 -1.041 1 -1.559 1 -0.518 0 -0.941 -0.45 -0.941 -1 z m 65 -14.406 c 0 -0.911 0.7 -1.223 1.989 -0.886 1.094 0.286 1.742 0.919 1.441 1.406 -0.873 1.413 -3.43 1.025 -3.43 -0.52 z m -2.188 -13.277 c 0.722 -0.289 1.584 -0.253 1.917 0.079 0.332 0.332 -0.258 0.569 -1.313 0.525 -1.165 -0.048 -1.402 -0.285 -0.604 -0.604 z m -21.813 -14.317 c 0 -0.55 0.45 -1 1 -1 0.55 0 1 0.45 1 1 0 0.55 -0.45 1 -1 1 -0.55 0 -1 -0.45 -1 -1 z" style="fill:#cb0000"/><path d="m 105.96 205.09 c 0.34 -0.55 0.816 -1 1.059 -1 0.243 0 0.441 0.45 0.441 1 0 0.55 -0.477 1 -1.059 1 -0.582 0 -0.781 -0.45 -0.441 -1 z m 32.43 -2.162 c -0.039 -0.186 -0.149 -2.343 -0.245 -4.794 -0.155 -3.967 0.099 -4.532 2.32 -5.15 1.372 -0.382 3.732 -0.739 5.245 -0.794 2.369 -0.086 2.75 0.288 2.75 2.7 0 1.54 0.498 3.298 1.107 3.907 0.81 0.81 0.608 1.37 -0.75 2.084 -1.909 1 -10.302 2.651 -10.428 2.047 z m -14.73 -3.038 c -0.66 -0.66 -1.2 -2.2 -1.2 -3.423 0 -1.223 -1.23 -3.685 -2.734 -5.472 -1.813 -2.154 -2.318 -3.387 -1.5 -3.66 2.069 -0.69 1.384 -6.744 -1.194 -10.543 -1.965 -2.896 -2.177 -3.785 -1.112 -4.669 1.5 -1.245 0.734 -6.147 -1.525 -9.765 -1.035 -1.658 -1.098 -2.505 -0.247 -3.356 1.441 -1.441 3.312 -0.336 3.312 1.956 0 0.962 0.661 2.623 1.468 3.691 1.81 2.394 1.829 1.48 0.114 -5.69 -0.741 -3.097 -1.045 -6.12 -0.676 -6.717 0.369 -0.597 4.929 -1.77 10.132 -2.607 5.204 -0.837 10.699 -1.804 12.211 -2.149 2.335 -0.533 2.75 -0.306 2.75 1.5 0 2.948 4.221 11.04 5.775 11.08 0.701 0.015 1.702 1.152 2.225 2.527 0.523 1.375 1.595 2.5 2.382 2.5 0.939 0 1.251 0.688 0.908 2 -0.6 2.296 -1.389 2.5 -3.09 0.8 -0.718 -0.718 -1.2 -0.785 -1.2 -0.167 0 0.568 0.261 1.294 0.579 1.613 0.319 0.319 0.693 3.01 0.832 5.99 0.139 2.976 0.58 5.94 0.98 6.587 1.127 1.824 2.609 1.389 2.609 -0.764 0 -2.388 1.153 -3.201 2.957 -2.085 1.133 0.7 1.143 1.37 0.058 3.99 -0.979 2.363 -1.019 3.433 -0.16 4.292 1.821 1.821 1.341 4.211 -1.352 6.741 -1.373 1.29 -2.625 2.156 -2.783 1.924 -0.158 -0.231 -0.925 -1.251 -1.705 -2.265 -1.262 -1.642 -1.161 -2.038 0.927 -3.613 2.741 -2.068 2 -4.04 -1.513 -4.04 -2.198 0 -18.262 3.26 -22.68 4.603 -0.963 0.293 -1.75 1.402 -1.75 2.464 0 1.481 0.702 1.933 3 1.933 2.667 0 3 0.333 3 3 0 2.868 -0.189 3 -4.3 3 -2.365 0 -4.84 -0.54 -5.5 -1.2 z m 2.272 -15.05 c -0.795 -4.799 -2.108 -7.75 -3.448 -7.75 -1.788 0 -2.129 2.076 -0.945 5.756 0.662 2.059 1.351 4.307 1.531 4.994 0.18 0.688 1.056 1.25 1.947 1.25 1.349 0 1.502 -0.71 0.915 -4.25 z m 51.34 3.567 c 0.722 -0.289 1.584 -0.253 1.917 0.079 0.332 0.332 -0.258 0.569 -1.313 0.525 -1.165 -0.048 -1.402 -0.285 -0.604 -0.604 z m -7.313 -13.317 c 0.34 -0.55 1.293 -1 2.118 -1 0.825 0 1.222 0.45 0.882 1 -0.34 0.55 -1.293 1 -2.118 1 -0.825 0 -1.222 -0.45 -0.882 -1 z m 26.595 -4.788 c -9 -9.482 -28.835 -34.398 -30.16 -37.89 -1.651 -4.342 3.078 -9.643 6.275 -7.03 0.816 0.666 8.352 10.1 16.746 20.961 8.394 10.863 15.664 19.75 16.15 19.75 2.34 0 -0.258 -3.944 -14.614 -22.19 -8.521 -10.828 -15.493 -20.315 -15.493 -21.08 0 -4.131 4.33 -2.565 8.114 2.935 1.669 2.426 8.852 11.793 15.961 20.816 7.109 9.02 12.926 17.278 12.926 18.345 0 2.518 -7.37 9.174 -10.158 9.174 -1.191 0 -3.757 -1.691 -5.747 -3.788 z m -30.28 -8.896 c 0.722 -0.289 1.584 -0.253 1.917 0.079 0.332 0.332 -0.258 0.569 -1.313 0.525 -1.165 -0.048 -1.402 -0.285 -0.604 -0.604 z m -81.16 -11.239 c -1.701 -0.619 -1.717 -0.78 -0.206 -2.034 1.134 -0.941 1.454 -2.214 1.037 -4.116 -0.659 -3 -0.31 -3.23 6.919 -4.514 3.607 -0.641 3.862 -0.536 3.361 1.382 -0.298 1.141 0.095 2.986 0.875 4.099 1.276 1.821 1.189 2.166 -0.861 3.445 -2.785 1.737 -8.621 2.65 -11.125 1.739 z m -13.415 -2.328 c -0.554 -0.688 -1.315 -2.691 -1.692 -4.453 -0.377 -1.762 -1.649 -4.43 -2.829 -5.929 -1.468 -1.867 -1.762 -2.853 -0.931 -3.13 1.847 -0.616 1.436 -6.38 -0.684 -9.595 -1.328 -2.01 -1.736 -3.958 -1.384 -6.587 0.324 -2.414 -0.099 -4.889 -1.2 -7.02 -1.529 -2.958 -1.546 -3.441 -0.162 -4.825 1.611 -1.611 2.122 -0.963 4.084 5.179 1.281 4.01 1.676 0.491 0.552 -4.921 -0.649 -3.127 -0.801 -6.06 -0.337 -6.521 0.464 -0.459 4.668 -1.312 9.343 -1.896 4.675 -0.583 9.904 -1.324 11.62 -1.645 2.762 -0.517 3.197 -0.277 3.794 2.103 0.869 3.464 4.583 8.487 6.274 8.487 0.733 0 1.312 1.104 1.312 2.5 0 3.068 1.636 3.191 4.659 0.35 2.01 -1.889 2.364 -1.953 2.91 -0.529 0.357 0.929 -0.272 2.757 -1.474 4.285 -2.196 2.792 -2.735 7.843 -1.109 10.395 0.791 1.24 1.264 1.279 2.735 0.221 0.978 -0.703 2.984 -2.043 4.458 -2.978 2.194 -1.391 2.576 -2.218 2.107 -4.561 l -0.572 -2.861 l 5.239 2.655 c 11.913 6.04 27.2 7.988 38.26 4.884 3.214 -0.902 6.167 -1.315 6.564 -0.918 1.01 1.01 -2.504 3.387 -6.729 4.561 -5.095 1.415 -21.681 1.202 -27.546 -0.354 -5.464 -1.45 -7.364 -1.22 -9.219 1.114 -0.992 1.248 -1.501 1.299 -2.737 0.273 -2.304 -1.913 -6.13 -0.446 -9.144 3.505 -2.293 3.01 -2.526 3.886 -1.582 5.959 0.947 2.079 0.726 2.887 -1.526 5.563 l -2.634 3.131 l -1.439 -2.746 c -1.278 -2.439 -1.259 -2.847 0.171 -3.647 1.769 -0.99 2.144 -3.353 0.676 -4.261 -0.911 -0.563 -23.39 3.923 -25.17 5.02 -0.493 0.305 -0.896 1.202 -0.896 1.995 0 1.378 1.126 1.848 3.675 1.533 1.395 -0.172 1.832 0.5 2.706 4.158 0.649 2.715 0.595 2.75 -4.239 2.75 -2.714 0 -5.346 -0.557 -5.904 -1.25 z m 2.234 -16 c -0.875 -5.284 -2.25 -8 -3.618 -7.16 -0.652 0.403 -0.785 2.388 -0.352 5.278 0.825 5.51 1.144 6.132 3.145 6.132 1.242 0 1.397 -0.796 0.825 -4.25 z m 29.528 -3.101 c 0 -2.458 -2.178 -7.649 -3.209 -7.649 -0.949 0 -0.283 6.395 0.859 8.242 0.774 1.252 2.35 0.854 2.35 -0.593 z m 19.248 9.101 c -1.298 -1.627 -2.147 -7.75 -1.075 -7.75 0.455 0 0.83 0.338 0.833 0.75 0.003 0.412 1.353 1.517 3 2.453 3.264 1.857 3.909 4.231 1.412 5.19 -2.288 0.878 -3.051 0.76 -4.17 -0.643 z m 31.486 -32.35 c -0.386 -0.386 -3.493 -0.971 -6.905 -1.301 l -6.204 -0.599 l -1.229 -4.829 c -0.676 -2.656 -1.891 -5.581 -2.699 -6.5 -0.922 -1.048 -1.287 -2.861 -0.979 -4.862 0.384 -2.49 -0.07 -3.753 -2.068 -5.75 -3.715 -3.715 -6.895 -3.366 -8.97 0.984 -1.687 3.539 -1.693 3.541 -4.154 1.75 -3.394 -2.47 -3.135 -4.552 1.017 -8.198 2.691 -2.363 4.138 -2.963 6.01 -2.492 3.994 1 5.634 -1.149 4.851 -6.366 -0.638 -4.257 -0.57 -4.423 1.532 -3.756 1.73 0.549 2.321 0.236 2.766 -1.467 0.369 -1.411 2.498 -3.049 6.108 -4.701 l 5.542 -2.535 l -2.429 -1.969 l -2.429 -1.969 l 6.918 0.558 c 5.142 0.415 7.965 1.238 11 3.208 6.52 4.232 8.582 6.517 8.582 9.509 0 1.522 0.476 3.061 1.059 3.421 0.615 0.38 0.785 1.899 0.406 3.625 -0.787 3.582 1.085 8.561 3.508 9.33 2.571 0.816 2.24 13.512 -0.429 16.461 -2.51 2.773 -3.738 2.572 -5.736 -0.941 -1.587 -2.789 -1.588 -3.035 -0.008 -3.919 4.903 -2.744 -5.689 -3.03 -17.05 -0.46 -5.459 1.235 -6.75 1.894 -6.75 3.447 0 1.466 0.708 1.92 3 1.92 2.543 0 3 0.385 3 2.531 0 2.868 2.757 4.48 4.059 2.373 0.472 -0.763 0.615 -2.355 0.318 -3.537 -0.648 -2.582 0.058 -3.094 5.468 -3.959 3.967 -0.634 4.155 -0.548 4.155 1.904 0 1.413 0.45 2.847 1 3.187 1.604 0.991 1.166 2.348 -1.25 3.881 -2.649 1.68 -10.01 3.03 -11.02 2.02 z m -10.366 -15.186 c 0.267 -0.432 -0.345 -2.57 -1.36 -4.75 l -1.846 -3.964 l -0.081 4.083 c -0.044 2.246 0.219 4.383 0.586 4.75 0.895 0.895 2.107 0.842 2.701 -0.119 z m -46.37 10.845 c 0 -1.132 0.45 -2.059 1 -2.059 0.55 0 1 0.648 1 1.441 0 0.793 -0.45 1.719 -1 2.059 -0.55 0.34 -1 -0.309 -1 -1.441 z m 23 -8.06 c 0 -0.55 0.702 -1 1.559 -1 0.857 0 1.281 0.45 0.941 1 -0.34 0.55 -1.041 1 -1.559 1 -0.518 0 -0.941 -0.45 -0.941 -1 z m 65 -14.406 c 0 -0.911 0.7 -1.223 1.989 -0.886 1.094 0.286 1.742 0.919 1.441 1.406 -0.873 1.413 -3.43 1.025 -3.43 -0.52 z m -2.188 -13.277 c 0.722 -0.289 1.584 -0.253 1.917 0.079 0.332 0.332 -0.258 0.569 -1.313 0.525 -1.165 -0.048 -1.402 -0.285 -0.604 -0.604 z" style="fill:#a20000"/><path d="m 108.13 208.35 c 0.34 -0.55 0.816 -1 1.059 -1 0.243 0 0.441 0.45 0.441 1 0 0.55 -0.477 1 -1.059 1 -0.582 0 -0.781 -0.45 -0.441 -1 z m 33.5 -4.839 c 0 -1.649 -0.261 -3.678 -0.58 -4.51 -0.422 -1.1 0.463 -1.802 3.25 -2.576 5.226 -1.451 5.33 -1.422 5.33 1.491 0 1.411 0.45 3.406 0.999 4.433 1.075 2.01 0.774 2.193 -5.749 3.506 -3.089 0.622 -3.25 0.506 -3.25 -2.344 z m -15.62 -0.613 c -0.932 -2.429 0.543 -3.548 4.679 -3.548 3.537 0 3.941 0.256 3.941 2.5 0 2.253 -0.398 2.5 -4.03 2.5 -2.602 0 -4.229 -0.515 -4.589 -1.452 z m 30 -6 c -0.704 -1.834 0.32 -3.548 2.12 -3.548 2.058 0 2.838 1.888 1.464 3.544 -1.538 1.854 -2.873 1.855 -3.584 0.004 z m -34.84 -3.492 c -1.662 -1.847 -1.739 -2.315 -0.508 -3.075 1.91 -1.18 3.221 0.233 2.803 3.02 l -0.335 2.232 l -1.96 -2.178 z m 7.879 -3.806 c -0.341 -1.512 -1.011 -4.325 -1.49 -6.25 -0.479 -1.925 -1.793 -8 -2.92 -13.5 -1.127 -5.5 -2.255 -10.675 -2.506 -11.5 -1.105 -3.629 1.371 -4.529 19.881 -7.226 2.08 -0.303 4.03 4.513 9.745 24.11 2.502 8.576 2.799 10.596 1.701 11.593 -1.181 1.073 -19.421 5.542 -22.56 5.528 -0.677 -0.003 -1.51 -1.243 -1.85 -2.756 z m 50.39 2.067 c 0.722 -0.289 1.584 -0.253 1.917 0.079 0.332 0.332 -0.258 0.569 -1.313 0.525 -1.165 -0.048 -1.402 -0.285 -0.604 -0.604 z m -19.23 -7.183 c -0.431 -0.697 -0.513 -1.537 -0.183 -1.867 0.895 -0.895 1.871 0.421 1.387 1.871 -0.339 1.016 -0.574 1.015 -1.204 -0.004 z m -41.755 -5.782 c -1.561 -1.734 -1.543 -2 0.278 -4.244 2.504 -3.079 3.345 -2.17 2.254 2.439 -0.828 3.502 -0.935 3.578 -2.532 1.804 z m 53.672 -0.352 c 0.34 -0.55 1.293 -1 2.118 -1 0.825 0 1.222 0.45 0.882 1 -0.34 0.55 -1.293 1 -2.118 1 -0.825 0 -1.222 -0.45 -0.882 -1 z m 26.595 -4.788 c -9 -9.482 -28.835 -34.398 -30.16 -37.89 -1.651 -4.342 3.078 -9.643 6.275 -7.03 0.816 0.666 8.352 10.1 16.746 20.961 8.394 10.863 15.664 19.75 16.15 19.75 2.34 0 -0.258 -3.944 -14.614 -22.19 -8.521 -10.828 -15.493 -20.315 -15.493 -21.08 0 -4.131 4.33 -2.565 8.114 2.935 1.669 2.426 8.852 11.793 15.961 20.816 7.109 9.02 12.926 17.278 12.926 18.345 0 2.518 -7.37 9.174 -10.158 9.174 -1.191 0 -3.757 -1.691 -5.747 -3.788 z m -30.28 -8.896 c 0.722 -0.289 1.584 -0.253 1.917 0.079 0.332 0.332 -0.258 0.569 -1.313 0.525 -1.165 -0.048 -1.402 -0.285 -0.604 -0.604 z m -80.31 -11.314 c -0.294 -0.476 -0.037 -1.173 0.571 -1.549 0.662 -0.409 0.86 -1.994 0.494 -3.947 -0.526 -2.805 -0.293 -3.348 1.66 -3.872 4.544 -1.218 6.772 -0.747 6.772 1.43 0 1.136 0.456 2.917 1.013 3.958 0.787 1.471 0.62 2.093 -0.75 2.795 -2.685 1.375 -9.157 2.16 -9.761 1.184 z m -14.302 -2.203 c -2.861 -2.861 -0.687 -4.8 5.382 -4.8 3.131 0 3.418 0.252 3.418 3 0 2.807 -0.244 3 -3.8 3 -2.09 0 -4.34 -0.54 -5 -1.2 z m 30.28 -6.872 c -0.434 -1.369 -0.205 -2.478 0.618 -2.987 2.764 -1.708 4.086 1.834 1.489 3.989 -1.134 0.941 -1.553 0.742 -2.107 -1 z m -35.03 -3.989 c -1.596 -1.764 -1.654 -2.194 -0.405 -2.981 1.564 -0.985 3.96 1.274 3.96 3.734 0 1.905 -1.423 1.604 -3.555 -0.752 z m 55.803 0.811 c -1.298 -1.627 -2.147 -7.75 -1.075 -7.75 0.455 0 0.83 0.338 0.833 0.75 0.003 0.412 1.353 1.517 3 2.453 3.264 1.857 3.909 4.231 1.412 5.19 -2.288 0.878 -3.051 0.76 -4.17 -0.643 z m -49.02 -10.5 c -4.184 -17.993 -5.551 -26.324 -4.494 -27.381 0.564 -0.564 4.343 -1.436 8.397 -1.937 4.054 -0.501 8.545 -1.163 9.979 -1.47 2.498 -0.535 2.739 -0.182 5.725 8.367 4.523 12.953 7.577 25.16 6.549 26.18 -0.994 0.984 -18.619 4.99 -21.955 4.99 -1.902 0 -2.415 -1.068 -4.202 -8.75 z m 31.31 1.81 c -0.747 -1.208 4.994 -7.776 7.488 -8.568 1.517 -0.481 1.779 -1.218 1.296 -3.637 l -0.607 -3.033 l 5.239 2.655 c 11.913 6.04 27.2 7.988 38.26 4.884 3.214 -0.902 6.167 -1.315 6.564 -0.918 1.01 1.01 -2.504 3.387 -6.729 4.561 -5.095 1.415 -21.681 1.202 -27.546 -0.354 -5.491 -1.457 -7.364 -1.222 -9.254 1.162 -0.973 1.227 -1.522 1.313 -2.45 0.385 -1.857 -1.857 -4.369 -1.426 -7.614 1.304 -3.284 2.763 -3.796 2.935 -4.645 1.56 z m -40.42 -5.832 c -1.242 -2.321 0.038 -7.228 1.885 -7.228 1.837 0 2.108 2.498 0.648 5.969 -1.351 3.212 -1.459 3.266 -2.533 1.259 z m 36.495 -8.784 c -0.371 -0.967 0.438 -2.447 2.137 -3.908 4.214 -3.625 5.967 -1.178 2.303 3.215 -2.2 2.638 -3.609 2.858 -4.44 0.694 z m -38.95 -5.11 c -0.367 -0.367 -0.667 -1.132 -0.667 -1.7 0 -0.627 0.466 -0.568 1.183 0.15 0.651 0.651 0.951 1.416 0.667 1.7 -0.284 0.284 -0.817 0.217 -1.183 -0.15 z m 92.33 -4.186 c 0 -0.566 0.45 -1.307 1 -1.647 0.55 -0.34 1 -2.136 1 -3.992 0 -2.518 0.507 -3.518 2 -3.941 1.1 -0.312 2.847 -0.806 3.882 -1.097 1.455 -0.41 1.99 0.101 2.359 2.25 0.262 1.529 0.8 3.533 1.195 4.453 0.878 2.044 -1.245 3.314 -7.186 4.298 -2.702 0.448 -4.25 0.329 -4.25 -0.325 z m -13.333 -1.814 c -0.367 -0.367 -0.667 -1.717 -0.667 -3 0 -2.126 0.434 -2.333 4.887 -2.333 4.665 0 4.906 0.136 5.327 3 0.435 2.967 0.389 3 -4.22 3 -2.563 0 -4.96 -0.3 -5.327 -0.667 z m 29.763 -7.469 c -1.164 -2.251 -1.34 -3.395 -0.562 -3.654 2.01 -0.67 1.203 -3.155 -1.221 -3.763 -1.294 -0.325 -6.723 0.154 -12.06 1.064 -5.341 0.91 -10.272 1.439 -10.958 1.176 -0.686 -0.263 -1.795 -2.307 -2.464 -4.541 -1.196 -3.992 -3.23 -6.396 -3.869 -4.573 -1.287 3.667 -2.167 3.773 -5.118 0.614 -4.079 -4.367 -7.299 -4.246 -9.494 0.357 -1.687 3.539 -1.693 3.541 -4.154 1.75 -3.386 -2.464 -3.136 -4.551 0.978 -8.164 2.76 -2.423 4.115 -2.956 6.373 -2.504 2.159 0.432 3.215 0.079 4.27 -1.427 0.771 -1.1 2.515 -2.158 3.877 -2.35 2.256 -0.318 2.475 -0.791 2.475 -5.333 0 -4.97 0.014 -4.991 4.887 -7.393 l 4.887 -2.408 l -2.387 -1.937 l -2.387 -1.937 l 6.918 0.558 c 5.142 0.415 7.965 1.238 11 3.208 6.52 4.232 8.582 6.517 8.582 9.509 0 1.522 0.45 3.045 1 3.385 1.167 0.721 1.345 2.504 0.25 2.492 -0.412 -0.004 -1.792 -1.832 -3.065 -4.062 -4.23 -7.406 -6.125 -2.714 -2.249 5.569 1.029 2.2 2.455 5.687 3.168 7.749 0.864 2.498 1.63 3.416 2.296 2.75 0.55 -0.55 2.034 -0.999 3.299 -0.999 2.745 0 3.069 2.493 0.668 5.146 -1.51 1.668 -1.507 1.993 0.03 4.339 1.753 2.676 1.211 4.935 -1.781 7.418 -1.246 1.034 -1.772 0.698 -3.187 -2.038 z m -33.763 -3.516 c -1.473 -1.965 -1.592 -2.734 -0.607 -3.921 1.486 -1.79 1.753 -1.566 2.897 2.423 1.137 3.964 0.078 4.657 -2.29 1.498 z m -16.667 0.651 c 0 -0.55 0.702 -1 1.559 -1 0.857 0 1.281 0.45 0.941 1 -0.34 0.55 -1.041 1 -1.559 1 -0.518 0 -0.941 -0.45 -0.941 -1 z m 65 -14.406 c 0 -0.911 0.7 -1.223 1.989 -0.886 1.094 0.286 1.742 0.919 1.441 1.406 -0.873 1.413 -3.43 1.025 -3.43 -0.52 z m -2.188 -13.277 c 0.722 -0.289 1.584 -0.253 1.917 0.079 0.332 0.332 -0.258 0.569 -1.313 0.525 -1.165 -0.048 -1.402 -0.285 -0.604 -0.604 z" style="fill:#910000"/><path d="m 139.46 198.68 c 0 -0.78 -0.261 -2.099 -0.58 -2.931 -0.422 -1.1 0.463 -1.802 3.25 -2.576 5.323 -1.478 5.33 -1.475 5.33 2.309 0 2.663 -0.479 3.512 -2.25 3.986 -3.709 0.994 -5.75 0.714 -5.75 -0.788 z m -14.333 -0.248 c -1.546 -1.546 -0.42 -2.333 3.333 -2.333 2.2 0 4 0.402 4 0.893 0 1.732 -5.886 2.888 -7.333 1.44 z m 28.583 -6.583 c 0.229 -0.688 1.265 -1.414 2.302 -1.615 1.631 -0.316 1.705 -0.148 0.545 1.25 -1.586 1.911 -3.44 2.149 -2.846 0.365 z m -26.831 -5.5 c -0.341 -1.512 -1.011 -4.325 -1.49 -6.25 -0.479 -1.925 -1.793 -8 -2.92 -13.5 -1.127 -5.5 -2.316 -10.9 -2.641 -12 -1.337 -4.519 1.483 0.297 3.111 5.311 0.948 2.921 2.738 6.491 3.978 7.932 1.961 2.28 3.02 2.619 8.149 2.609 3.242 -0.006 7.695 -0.357 9.895 -0.778 l 4 -0.767 l 1.773 6.788 c 1.43 5.475 1.526 7.01 0.5 7.939 -1.141 1.032 -19.457 5.485 -22.504 5.471 -0.677 -0.003 -1.51 -1.243 -1.85 -2.756 z m 73.932 -13.947 c -2.114 -0.74 -29.339 -34.674 -32.384 -40.36 -0.979 -1.83 -0.831 -2.519 0.922 -4.271 1.305 -1.305 2.422 -1.729 2.977 -1.128 0.488 0.529 7.493 9.511 15.567 19.961 8.07 10.45 15.532 19.603 16.574 20.339 2.194 1.551 4.02 0.788 3.94 -1.648 -0.029 -0.93 -7.182 -10.691 -15.895 -21.691 -14.289 -18.04 -17.561 -23.04 -13.587 -20.762 0.732 0.419 6.175 7.06 12.1 14.762 5.921 7.7 12.942 16.693 15.602 19.986 2.66 3.292 4.837 6.466 4.837 7.05 0 1.303 -5.922 6.98 -8 7.669 -0.825 0.274 -2.02 0.316 -2.649 0.095 z m -113.73 -27.463 c -0.348 -1.738 -0.441 -3.351 -0.208 -3.584 0.233 -0.233 2.262 -0.671 4.507 -0.972 4 -0.537 4.083 -0.486 4.083 2.486 0 2.504 -0.55 3.226 -3.149 4.132 -4.393 1.531 -4.524 1.48 -5.233 -2.062 z m -14.618 -0.34 c 0 -1.083 1.111 -1.5 4 -1.5 2.889 0 4 0.417 4 1.5 0 1.083 -1.111 1.5 -4 1.5 -2.889 0 -4 -0.417 -4 -1.5 z m 29 -5.31 c 0 -0.537 0.713 -1.25 1.584 -1.584 0.974 -0.374 1.431 -0.15 1.188 0.581 -0.498 1.495 -2.771 2.318 -2.771 1 z m -27.869 -12.44 c -3.577 -15.641 -5.332 -24.882 -4.822 -25.392 0.268 -0.268 1.269 1.904 2.225 4.827 3.09 9.453 3.915 10.483 9.464 11.814 4.262 1.022 5.829 0.96 9.967 -0.393 2.701 -0.883 5.328 -1.606 5.838 -1.606 1.283 0 4.58 14.02 3.54 15.05 -0.966 0.956 -18.654 4.951 -21.922 4.951 -1.922 0 -2.418 -1.069 -4.289 -9.25 z m 46.31 -6.302 c -1.865 -1.491 -1.843 -1.525 0.559 -0.879 1.375 0.37 3.175 1.055 4 1.521 1.198 0.678 1.085 0.855 -0.559 0.879 -1.132 0.017 -2.932 -0.668 -4 -1.521 z m 37.21 -18.13 c -0.357 -0.357 -0.648 -1.893 -0.648 -3.414 0 -1.91 0.619 -2.941 2 -3.333 1.1 -0.312 2.847 -0.806 3.882 -1.097 1.491 -0.42 1.975 0.103 2.33 2.519 0.246 1.677 -0.038 3.428 -0.632 3.892 -1.582 1.235 -6.179 2.186 -6.931 1.434 z m -15.01 -2.815 c -0.459 -1.195 0.332 -1.5 3.893 -1.5 3.305 0 4.469 0.39 4.469 1.5 0 1.076 -1.099 1.5 -3.893 1.5 -2.538 0 -4.093 -0.522 -4.469 -1.5 z m 27.927 -5.19 c -0.374 -0.974 -0.204 -1.93 0.377 -2.124 1.947 -0.649 1.084 -3.141 -1.296 -3.738 -1.294 -0.325 -6.723 0.154 -12.06 1.064 -5.341 0.91 -10.272 1.439 -10.958 1.176 -0.686 -0.263 -1.795 -2.307 -2.464 -4.541 -1.346 -4.494 -2.964 -6.084 -4.183 -4.113 -0.592 0.958 -1.455 0.541 -3.357 -1.622 -2.837 -3.227 -3.093 -4 -1.623 -4.912 0.55 -0.34 1 -1.664 1 -2.942 0 -1.528 0.727 -2.515 2.123 -2.879 1.836 -0.48 2.033 -1.036 1.455 -4.117 -0.77 -4.104 0.482 -4.687 2.394 -1.115 1.754 3.277 2.946 3.638 14.12 4.278 9.522 0.545 9.609 0.573 11.178 3.662 0.87 1.712 2.149 4.785 2.842 6.829 0.906 2.67 1.592 3.441 2.439 2.738 1.899 -1.576 3.134 1.039 3.035 6.424 -0.071 3.804 -0.559 5.189 -2.218 6.291 -1.887 1.253 -2.204 1.213 -2.807 -0.359 z" style="fill:#840000"/><path d="m 140.65 197.34 c 0.249 -2.16 0.906 -2.818 3.066 -3.066 2.34 -0.269 2.75 0.05 2.75 2.143 0 2.392 -1.621 3.673 -4.648 3.673 -1.03 0 -1.388 -0.843 -1.168 -2.75 z m -12.695 -11.5 c -0.42 -1.172 -3.489 -18.372 -3.489 -19.555 0 -0.299 1.161 0.548 2.581 1.881 2.235 2.099 3.475 2.408 9.25 2.304 3.668 -0.066 7.531 -0.291 8.584 -0.5 1.532 -0.304 2.38 0.809 4.246 5.574 1.339 3.419 1.958 6.328 1.454 6.832 -1.01 1.01 -16.467 4.65 -19.895 4.688 -1.255 0.014 -2.483 -0.537 -2.73 -1.224 z m 71.13 -15.08 c -4.873 -4.584 -28.03 -33.829 -30.623 -38.683 -1.014 -1.894 -0.869 -2.546 0.966 -4.356 1.928 -1.902 2.285 -1.961 3.35 -0.558 15.03 19.782 31.14 39.887 32.33 40.34 1.962 0.753 3.364 -0.101 3.364 -2.05 0 -1.175 -23.08 -31.615 -30.714 -40.515 -0.97 -1.13 -1.076 -1.861 -0.337 -2.318 1.268 -0.784 1.05 -1.034 18.549 21.294 17.815 22.732 16.627 20.418 12.613 24.56 -4.314 4.451 -6.606 5 -9.497 2.282 z m -110.55 -24.935 c -1.027 -2.675 -0.348 -3.582 2.956 -3.953 2.023 -0.228 2.479 0.159 2.479 2.107 0 1.572 -0.78 2.674 -2.289 3.232 -1.867 0.691 -2.447 0.435 -3.146 -1.385 z m -12.52 -12.982 c -1.161 -5.306 -2.546 -14.303 -2.546 -16.544 v -2.427 l 1.75 2.158 c 2.391 2.948 11.719 3.974 16.13 1.773 1.706 -0.851 3.293 -1.238 3.527 -0.859 1.492 2.414 4.382 11.535 3.984 12.572 -0.368 0.959 -18.353 5.577 -21.721 5.577 -0.348 0 -0.854 -1.012 -1.125 -2.25 z m 43.895 -12.302 c -1.865 -1.491 -1.844 -1.526 0.559 -0.888 3.085 0.82 5 2.439 2.891 2.439 -0.83 0 -2.382 -0.698 -3.45 -1.552 z m 38.27 -19.07 c -1.625 -1.625 -0.616 -4.365 1.834 -4.98 3.02 -0.757 3.326 -0.533 3.682 2.663 0.218 1.954 -0.232 2.497 -2.266 2.734 -1.396 0.163 -2.858 -0.025 -3.25 -0.417 z m -12.163 -12.523 c -0.258 -0.746 -1.387 -3.831 -2.509 -6.856 c -1.122 -3.03 -2.04 -7.878 -2.04 -10.785 0 -4.711 0.19 -5.187 1.75 -4.382 2.504 1.293 7.873 2.145 14.478 2.297 l 5.721 0.132 l 2.123 4.386 c 1.168 2.412 2.361 6.156 2.651 8.319 0.591 4.408 1.507 3.892 -10.722 6.04 -3.575 0.627 -7.508 1.38 -8.741 1.674 -1.384 0.33 -2.42 0.015 -2.71 -0.822 z m -11.576 -10.876 c -1.244 -0.772 -1.124 -1.265 0.776 -3.169 2.142 -2.147 2.249 -2.161 2.235 -0.283 -0.024 3.037 -1.308 4.509 -3.01 3.452 z" style="fill:#610000"/></g></svg>