<svg xmlns="http://www.w3.org/2000/svg" viewBox="0 0 256 256"><g transform="translate(0 -796.36)"><path d="m 52.774 1027.39 c 192.46 127.95 311 -280.09 62.2 -226.07 -102.82 23.02 -165.22 167.39 -62.2 226.07 z" style="fill:#fff;color:#000"/><g style="fill-rule:evenodd"><path d="m 72.71 925.45 v -49.38 h 55.989 h 55.989 v 49.38 v 49.38 h -55.989 h -55.989 v -49.38 z m 62.39 -13.636 v -3.099 h -11.57 h -11.57 v 3.099 v 3.099 h 11.57 h 11.57 v -3.099 z m -47.02 -1.823 c 0.522 -0.207 2.065 -0.782 3.428 -1.277 2.275 -0.826 4.497 -1.662 6.611 -2.486 0.455 -0.177 1.477 -0.549 2.273 -0.825 0.795 -0.277 2 -0.739 2.686 -1.027 0.682 -0.288 1.937 -0.769 2.789 -1.068 l 1.549 -0.544 v -3.793 v -3.793 l -1.756 -0.616 c -0.966 -0.339 -3.244 -1.184 -5.062 -1.878 -1.818 -0.694 -4.607 -1.753 -6.198 -2.352 -1.591 -0.6 -3.636 -1.372 -4.545 -1.717 -3.658 -1.388 -3.512 -1.478 -3.512 2.196 v 3.265 l 1.963 0.757 c 1.079 0.417 3.45 1.296 5.268 1.955 1.818 0.659 3.83 1.409 4.47 1.666 l 1.165 0.468 l -1.785 0.723 c -0.981 0.398 -2.9 1.135 -4.264 1.638 -1.364 0.503 -3.455 1.3 -4.649 1.77 l -2.169 0.856 v 3.23 c 0 3.316 0.111 3.498 1.737 2.853 z" style="fill:#ff4500"/><path d="m 65.28 129.3 v -57.848 h 63.63 h 63.63 v 57.848 v 57.848 h -63.63 h -63.63 v -57.848 z m 119.83 -0.207 v -49.791 h -56.2 h -56.2 v 49.791 v 49.791 h 56.2 h 56.2 v -49.791 z" transform="translate(0 796.36)" style="fill:#ffe4c4"/></g></g></svg>