<svg xmlns="http://www.w3.org/2000/svg" viewBox="0 0 256 256"><path d="m 24.967 203.22 c -127.95 -192.46 280.09 -311 226.07 -62.2 -23.02 102.82 -167.39 165.22 -226.07 62.2 z" style="fill:#fff;color:#000"/><g transform="matrix(1.19751 0 0 1.20933 37.14 42.741)" style="fill:#ff4500"><path d="m 76.32 27.405 c -9.167 0.043 -17.921 0.824 -25.624 2.187 -22.692 4.01 -26.812 12.4 -26.812 27.874 v 20.437 h 53.623 v 6.812 l -3.34 33.912 l 50.741 -12.823 c 4.936 0.106 11.422 -6.329 6.16 -48.34 0 -14.532 -12.26 -25.449 -26.812 -27.874 c -9.212 -1.533 -18.77 -2.23 -27.937 -2.187 z m -28.999 16.437 c 5.539 0 10.06 4.597 10.06 10.25 0 5.632 -4.523 10.187 -10.06 10.187 -5.559 0 -10.06 -4.555 -10.06 -10.187 0 -5.653 4.503 -10.25 10.06 -10.25 z"/><path d="m 77.31 8.169 c -42.511 0 -77.41 20.07 -77.41 53.21 0 8.286 2.148 16.196 6.03 23.398 3.886 7.202 9.51 13.698 16.462 19.16 6.952 5.46 15.233 9.884 24.433 12.944 9.2 3.059 42.526 31.2 53.15 31.2 5.314 0 -21.12 -14.06 -18.223 -20.929 2.445 -5.798 20.364 -8.741 24.966 -10.27 9.203 -3.059 17.488 -7.484 24.444 -12.944 6.957 -5.46 12.585 -11.956 16.473 -19.16 3.889 -7.202 6.04 -15.11 6.04 -23.398 0 -33.15 -33.857 -53.21 -76.37 -53.21 z m 0.54 6.631 c 36.779 0 65.62 17.438 65.62 46.581 0 7.286 -1.87 14.212 -5.25 20.504 -3.38 6.292 -8.269 11.949 -14.308 16.696 -6.04 4.746 -13.227 8.582 -21.2 11.231 -7.977 2.649 -16.743 4.112 -25.938 4.112 -36.779 0 -66.67 -23.4 -66.67 -52.54 0 -29.14 30.967 -46.581 67.746 -46.581 z" style="color:#000"/></g></svg>