<svg xmlns="http://www.w3.org/2000/svg" viewBox="0 0 256 256"><path d="m -1374.42 1658.71 c 127.95 -192.46 -280.09 -311 -226.07 -62.2 23.02 102.82 167.39 165.22 226.07 62.2 z" transform="matrix(0 1 -1 0 1711.48 1605.44)" style="fill:#fff;color:#000"/><g transform="matrix(0.88234 0 0 1.14563 20.627 6.764)" style="fill:#ff4500;stroke:#ff4500;stroke-width:5"><path d="M 160.91,164.86 C 150.978,159.99 135.71,143.85 118,119.49 92.606,84.563 83.576,74.941 69.63,67.95 c -7.274,-3.648 -7.606,-3.944 -4.41,-3.944 11.57,0 29.456,16.442 52.776,48.51 25.394,34.927 34.424,44.549 48.37,51.54 7.274,3.648 7.606,3.944 4.41,3.944 -1.901,0 -6.34,-1.414 -9.866,-3.143 z m 27.22,-1.024 c 6.824,-3.398 10.117,-5.936 17.866,-13.767 5.225,-5.28 13.55,-15.11 18.5,-21.833 7.996,-10.868 11.5,-14.3 11.5,-11.264 0,3.904 -13.783,21.961 -26.425,34.617 -10.842,10.855 -19.765,16.413 -26.35,16.413 -3.156,0 -2.729,-0.362 4.91,-4.167 z M 0,115.033 C 0,111.129 13.783,93.072 26.425,80.416 37.267,69.561 46.19,64.003 52.775,64.003 c 3.156,0 2.729,0.362 -4.91,4.167 -6.824,3.398 -10.117,5.936 -17.866,13.767 -5.225,5.28 -13.55,15.11 -18.5,21.833 -7.996,10.868 -11.5,14.3 -11.5,11.264 z"/><path d="M 144.58,150.55 C 140.483,146.453 131.182,135.09 123.912,125.3 101.083,94.558 97.305,89.709 89.802,81.53 c -5.916,-6.451 -6.475,-7.308 -2.939,-4.5 5.89,4.677 16.12,17.02 31.08,37.469 15.217,20.816 21.454,28.715 29.26,37.06 3.313,3.542 5.754,6.439 5.425,6.439 -0.329,0 -3.951,-3.352 -8.05,-7.449 z m 63.65,-0.573 c 7.282,-7.985 24.431,-29.999 25.496,-32.727 0.555,-1.422 2.274,-1.703 2.274,-0.371 0,1.107 -15.554,21.616 -22.11,29.15 -2.705,3.111 -6.825,7.178 -9.154,9.04 -3.16,2.524 -2.272,1.23 3.496,-5.094 z M 0,115.121 c 0,-1.107 15.554,-21.616 22.11,-29.15 2.705,-3.11 6.825,-7.178 9.154,-9.04 3.16,-2.524 2.272,-1.23 -3.496,5.094 -7.282,7.985 -24.431,29.999 -25.496,32.727 -0.555,1.422 -2.274,1.703 -2.274,0.371 z"/></g></svg>