<svg xmlns="http://www.w3.org/2000/svg" viewBox="0 0 256 256"><defs><clipPath><path transform="matrix(15.33333 0 0 11.5 415 -125.5)" d="m -24 13 c 0 1.105 -0.672 2 -1.5 2 -0.828 0 -1.5 -0.895 -1.5 -2 0 -1.105 0.672 -2 1.5 -2 0.828 0 1.5 0.895 1.5 2 z"/></clipPath><linearGradient y2="442.65" x2="395.59" y1="407.73" x1="277.06" gradientTransform="matrix(1 0 0.13906 1.32944 -61.26 -196.47)" gradientUnits="userSpaceOnUse" id="0"><stop style="stop-color:#2e0000"/><stop offset="1" style="stop-color:#2e0000;stop-opacity:0"/></linearGradient></defs><g style="fill:#fff"><path d="m 229.63 992.2 c 92.05 -130.93 -77.948 -263.6 -186.39 -156.91 -102.17 100.51 -7.449 256.68 119.69 207.86 c 26.526 -10.185 49.802 -26.914 66.7 -50.948 z" transform="matrix(0.99081 0 0 0.99081 2.879 -788.17)" style="fill:#fff;color:#000"/></g><g transform="matrix(0.35403 0 0 0.34933 -6.592 -12.825)"><path d="m 376.88 254.56 c 61.01 -24.544 117.32 -34.01 177.25 -5.495 3.705 0 7.625 16.319 7.081 21.232 l -24.648 251.88 c -0.544 4.913 -2.37 18.485 -6.074 18.485 -103.11 -26.702 -149.42 0.108 -185.79 -0.177 -56.1 -0.44 -93.49 -20.435 -147.49 -0.51 -3.705 0 -2.077 -13.572 -4.831 -19.859 l 32.872 -258.06 c -10.462 -26.542 71.48 -45.23 151.62 -7.495 z" style="fill:#f00"/><g style="fill:none;stroke:#500;stroke-width:3"><path d="m 333.88 531.28 c -45.826 -12.93 -98.65 -18.46 -138.9 -1.784"/><path d="m 347.79 516.56 c 51.2 -18.518 114.87 -14.202 176.44 -2.959"/><path d="m 527.38 526.89 c -58.11 -6.259 -127.25 -13.213 -179.04 1.419"/><path d="m 330.97 515.55 c -45.965 -21.653 -113.14 -23.735 -141.4 -2.544"/></g><path d="m 340.57 525.82 l 45.17 -279.1 c 31.23 -12.13 47.794 -18.349 73.42 -19.762 l -30.779 264.65 c -33.08 0.994 -65.52 17.582 -87.81 34.22 z" style="fill:url(#0);fill-rule:evenodd"/><flowRoot style="font-size:12;font-family:Bitstream Vera Sans"><flowRegion><path d="m 209.65 173.44 h 105.83 v 13.1 h -105.83 z"/></flowRegion><flowPara/></flowRoot><path d="m 503.18 364.8 c 0 31.1 -24.57 56.3 -54.883 56.3 -30.31 0 -54.883 -25.21 -54.883 -56.3 0 -31.1 24.57 -56.3 54.883 -56.3 30.31 0 54.883 25.21 54.883 56.3 z" style="fill:#8b0000;opacity:0.642;stroke:#8b0000;stroke-width:3"/><text transform="matrix(0.85618 0 -0.12568 1.16798 0 0)" y="376.6" x="301.79" style="font-size:162.25;font-family:Bitstream Vera Sans"><tspan y="376.6" x="301.79">日</tspan></text></g></svg>