<svg xmlns="http://www.w3.org/2000/svg" xmlns:xlink="http://www.w3.org/1999/xlink" viewBox="0 0 256 256"><defs><path id="0" d="m 46.926 3.888 l -6.972 9.132 h 7.093 v 3.77 h -12.572 v -0.587 l 8.924 -12.232 h -8.384 l 0.063 -3 h 11.91 l -0.063 2.918 z" style="fill:#3400a4;stroke:#200087;stroke-width:3.522"/><path id="1" d="m 35.469 1.344 l -0.063 2.25 h 8 c 0.136 0.008 0.258 0.09 0.316 0.214 0.059 0.124 0.045 0.269 -0.035 0.38 l -8.844 11.344 v 0.125 h 11.844 v -2.25 h -6.719 c -0.142 0.003 -0.274 -0.075 -0.34 -0.2 -0.066 -0.126 -0.056 -0.278 0.027 -0.393 l 6.906 -9.06 l 0.063 -2.406 h -11.156 z"/><path id="2" d="m 17.854 13.97 c 0 0.976 -0.791 1.768 -1.768 1.768 -0.976 0 -1.768 -0.791 -1.768 -1.768 0 -0.976 0.791 -1.768 1.768 -1.768 0.976 0 1.768 0.791 1.768 1.768 z"/><path id="3" d="m 16.971 11.584 l -3.04 0.267 l -0.319 3.092 l -0.267 -3.04 l -3.092 -0.319 l 3.04 -0.267 l 0.319 -3.092 l 0.267 3.04 z"/><path id="4" d="m 46.926 3.888 l -6.972 9.132 h 7.093 v 3 h -12.572 v -0.587 l 8.924 -11.462 h -8.384 l 0.063 -3 h 11.91"/><linearGradient xlink:href="#T" id="Z" gradientUnits="userSpaceOnUse" x1="29" x2="32"/><linearGradient xlink:href="#j" id="p" gradientUnits="userSpaceOnUse" x1="25.12" x2="22.713"/><linearGradient gradientUnits="userSpaceOnUse" xlink:href="#T" id="a" x2="12.328" x1="16"/><linearGradient xlink:href="#T" id="c" gradientUnits="userSpaceOnUse" x1="16" x2="12.328"/><linearGradient xlink:href="#T" id="b" gradientUnits="userSpaceOnUse" x1="16" x2="12.328"/><linearGradient xlink:href="#T" id="Y" gradientUnits="userSpaceOnUse" x1="29" x2="32"/><linearGradient id="T"><stop style="stop-color:#a60000"/><stop offset="0.621" style="stop-color:#ff3232"/><stop offset="1" style="stop-color:#710000"/></linearGradient><linearGradient xlink:href="#T" id="X" gradientUnits="userSpaceOnUse" x1="29" x2="32"/><linearGradient gradientUnits="userSpaceOnUse" xlink:href="#T" id="U" x2="10.328" x1="14"/><linearGradient gradientUnits="userSpaceOnUse" xlink:href="#T" id="W" x2="32" x1="29"/><linearGradient gradientUnits="userSpaceOnUse" xlink:href="#T" id="V" x2="10.328" x1="14"/><linearGradient xlink:href="#T" id="d" gradientUnits="userSpaceOnUse" x1="16" x2="12.328"/><linearGradient xlink:href="#j" id="l" gradientUnits="userSpaceOnUse" x1="25.12" x2="22.713"/><linearGradient xlink:href="#T" id="e" gradientUnits="userSpaceOnUse" x1="16" x2="12.328"/><linearGradient xlink:href="#j" id="m" gradientUnits="userSpaceOnUse" x1="25.12" x2="22.713"/><linearGradient xlink:href="#j" id="o" gradientUnits="userSpaceOnUse" x1="25.12" x2="22.713"/><linearGradient xlink:href="#j" id="n" gradientUnits="userSpaceOnUse" x1="25.12" x2="22.713"/><linearGradient xlink:href="#j" id="k" gradientUnits="userSpaceOnUse" x1="25.12" x2="22.713"/><linearGradient xlink:href="#T" id="f" gradientUnits="userSpaceOnUse" x1="16" x2="12.328"/><linearGradient gradientUnits="userSpaceOnUse" id="j" x2="22.713" x1="25.12"><stop style="stop-color:#a60000"/><stop offset="0.621" style="stop-color:#e20000"/><stop offset="1" style="stop-color:#710000"/></linearGradient><linearGradient xlink:href="#T" id="g" gradientUnits="userSpaceOnUse" x1="16" x2="12.328"/><linearGradient xlink:href="#j" id="i" gradientUnits="userSpaceOnUse" x1="25.12" x2="22.713"/><linearGradient xlink:href="#T" id="h" gradientUnits="userSpaceOnUse" x1="16" x2="12.328"/><linearGradient gradientUnits="userSpaceOnUse" xlink:href="#T" id="S" x2="10.328" x1="14"/><linearGradient gradientUnits="userSpaceOnUse" id="G" y2="47.794" x2="45" y1="20.747" x1="26.05"><stop style="stop-color:#a00"/><stop offset="1" style="stop-color:#820000"/></linearGradient><linearGradient id="C"><stop style="stop-color:#fe4b4b"/><stop offset="1" style="stop-color:#fe4b4b;stop-opacity:0"/></linearGradient><linearGradient gradientTransform="matrix(1.98438 0 0 1 -5.906 0)" gradientUnits="userSpaceOnUse" xlink:href="#J" id="I" y2="39.27" x2="6.238" y1="42.891" x1="6.221"/><linearGradient y2="26.729" x2="17.199" y1="1.654" x1="11.492" gradientTransform="matrix(-1.58963 0 0 1.13644 42.685 7.824)" gradientUnits="userSpaceOnUse" id="9"><stop style="stop-color:#fe4b4b"/><stop offset="1" style="stop-color:#fe4848;stop-opacity:0"/></linearGradient><linearGradient y2="37.75" x2="47.38" y1="1.125" x1="40.547" gradientUnits="userSpaceOnUse" id="8" xlink:href="#6"/><linearGradient y2="37.75" x2="47.38" y1="1.125" x1="40.547" gradientUnits="userSpaceOnUse" id="5" xlink:href="#6"/><linearGradient y2="37.75" x2="47.38" y1="1.125" x1="40.547" gradientUnits="userSpaceOnUse" id="7" xlink:href="#6"/><linearGradient id="6"><stop style="stop-color:#ff1919"/><stop offset="1" style="stop-color:#ff1919;stop-opacity:0"/></linearGradient><linearGradient gradientTransform="matrix(0.93474 0 0 1.14936 6.519 -5.86)" gradientUnits="userSpaceOnUse" id="R" y2="31.347" x2="18.968" y1="20.17" x1="16.965"><stop style="stop-color:#ff3232"/><stop offset="1" style="stop-color:#ff3232;stop-opacity:0"/></linearGradient><linearGradient gradientTransform="matrix(1.98438 0 0 1 6.094 -0.014)" gradientUnits="userSpaceOnUse" xlink:href="#J" id="N" y2="39.27" x2="6.238" y1="42.891" x1="6.221"/><linearGradient gradientTransform="matrix(1.98438 0 0 1 0.094 0)" gradientUnits="userSpaceOnUse" xlink:href="#J" id="L" y2="39.27" x2="6.238" y1="42.891" x1="6.221"/><linearGradient gradientTransform="matrix(1.98438 0 0 1 3.094 -0.014)" gradientUnits="userSpaceOnUse" xlink:href="#J" id="M" y2="39.27" x2="6.238" y1="42.891" x1="6.221"/><linearGradient gradientTransform="matrix(1.98438 0 0 1 9.109 -0.014)" gradientUnits="userSpaceOnUse" xlink:href="#J" id="O" y2="39.27" x2="6.238" y1="42.891" x1="6.221"/><linearGradient gradientTransform="matrix(1.98438 0 0 1 12.11 -0.014)" gradientUnits="userSpaceOnUse" xlink:href="#J" id="P" y2="39.27" x2="6.238" y1="42.891" x1="6.221"/><linearGradient id="J"><stop style="stop-color:#ff1e1e"/><stop offset="1" style="stop-color:#ff1e1e;stop-opacity:0"/></linearGradient><linearGradient gradientTransform="matrix(1.98438 0 0 1 15.11 -0.014)" gradientUnits="userSpaceOnUse" xlink:href="#J" id="Q" y2="39.27" x2="6.238" y1="42.891" x1="6.221"/><linearGradient gradientTransform="matrix(1.98438 0 0 1 -2.891 0)" gradientUnits="userSpaceOnUse" xlink:href="#J" id="K" y2="39.27" x2="6.238" y1="42.891" x1="6.221"/><radialGradient r="1.768" cy="13.97" cx="16.09" gradientUnits="userSpaceOnUse" id="A"><stop style="stop-color:#fe4a4a"/><stop offset="1" style="stop-color:#fe4a4a;stop-opacity:0"/></radialGradient><radialGradient r="3.624" cy="11.584" cx="13.612" gradientUnits="userSpaceOnUse" id="F" xlink:href="#C"/><radialGradient gradientTransform="matrix(1 0 0 0.22059 0 34.879)" gradientUnits="userSpaceOnUse" id="H" r="17" cy="44.75" cx="21.5"><stop/><stop offset="1" style="stop-opacity:0"/></radialGradient><radialGradient r="3.624" cy="11.584" cx="13.612" gradientUnits="userSpaceOnUse" id="E" xlink:href="#C"/><radialGradient r="3.624" cy="11.584" cx="13.612" gradientUnits="userSpaceOnUse" id="B" xlink:href="#C"/><radialGradient r="3.624" cy="11.584" cx="13.612" gradientUnits="userSpaceOnUse" id="D" xlink:href="#C"/></defs><path d="m -1374.42 1658.71 c 127.95 -192.46 -280.09 -311 -226.07 -62.2 23.02 102.82 167.39 165.22 226.07 62.2 z" transform="matrix(0 1 -1 0 1711.48 1605.44)" style="fill:#fff;color:#000"/><g transform="matrix(3.79129 0 0 3.75957 37.13 33.03)"><g transform="translate(-0.68)" style="display:block"><path d="m 7.501,11.63 0.004,26.72 c 0,0.079 0.089,0.15 0.187,0.15 l 2.812,0.016 -0.004,4.853 c 0,0.071 0.022,0.126 0.124,0.127 L 37.38,43.488 c 0.092,-0.004 0.124,-0.064 0.124,-0.127 l 0.004,-4.869 2.882,0.008 c 0.094,0 0.116,-0.13 0.113,-0.213 V 11.63 c 0.004,-0.082 -0.046,-0.122 -0.128,-0.127 H 7.626 C 7.548,11.507 7.494,11.556 7.502,11.63 z" style="fill:url(#G);stroke:#6c0000"/><path d="m 38.5 44.75 c 0 2.071 -7.611 3.75 -17 3.75 -9.389 0 -17 -1.679 -17 -3.75 0 -2.071 7.611 -3.75 17 -3.75 9.389 0 17 1.679 17 3.75 z" transform="matrix(1.28015 0 0 1 -3.162 -1.75)" style="fill:url(#H);opacity:0.619"/><g style="fill:none;stroke:#ca0000"><path d="m 31,21.472 0.064,0.531 2.424,1.892 v 4.604 h -17.06 v 3.933"/><path d="m 13.442,40.961 0.055,-5.781 1.901,-2.666 h 22.07 v -5.372 l -5.58,-5.529 4.11,-0.144 v -4.47 h -4"/><path d="m 19.5,40.961 0.055,-5.781 1.901,-2.666"/><path d="m 16.5,40.961 0.055,-5.781 1.901,-2.666"/><g transform="translate(6 -2)"><path d="m 16.5,42.961 0.055,-5.781 1.901,-2.666"/><path d="m 19.5,42.961 0.055,-5.781 1.901,-2.666"/><path d="m 22.5,42.961 0.055,-5.781 1.901,-2.666"/><path d="M 25.544,42.961 25.599,37.18 27.5,34.514"/><path d="m 28.5,42.961 0.055,-5.781 1.901,-2.666"/></g></g><g transform="translate(6 -2)"><path d="m 6.992,39.594 c 0.8,0 0.992,0.629 0.992,0.906 v 4.42 c 0,0 -1.984,0 -1.984,0 V 40.5 c 0,-0.277 0.208,-0.906 0.992,-0.906 z" style="fill:url(#I)"/><path d="m 10.01,39.594 c 0.8,0 0.992,0.629 0.992,0.906 v 4.42 c 0,0 -1.984,0 -1.984,0 V 40.5 c 0,-0.277 0.208,-0.906 0.992,-0.906 z" style="fill:url(#K)"/><path d="m 12.992,39.594 c 0.8,0 0.992,0.629 0.992,0.906 v 4.42 c 0,0 -1.984,0 -1.984,0 V 40.5 c 0,-0.277 0.208,-0.906 0.992,-0.906 z" style="fill:url(#L)"/><path d="m 15.992 39.58 c 0.8 0 0.992 0.629 0.992 0.906 v 4.42 c 0 0 -1.984 0 -1.984 0 v -4.42 c 0 -0.277 0.208 -0.906 0.992 -0.906 z" style="fill:url(#M)"/><path d="m 18.992 39.58 c 0.8 0 0.992 0.629 0.992 0.906 v 4.42 c 0 0 -1.984 0 -1.984 0 v -4.42 c 0 -0.277 0.208 -0.906 0.992 -0.906 z" style="fill:url(#N)"/><path d="m 22.01 39.58 c 0.8 0 0.992 0.629 0.992 0.906 v 4.42 c 0 0 -1.984 0 -1.984 0 v -4.42 c 0 -0.277 0.208 -0.906 0.992 -0.906 z" style="fill:url(#O)"/><path d="m 25.01 39.58 c 0.8 0 0.992 0.629 0.992 0.906 v 4.42 c 0 0 -1.984 0 -1.984 0 v -4.42 c 0 -0.277 0.208 -0.906 0.992 -0.906 z" style="fill:url(#P)"/><path d="m 28.01 39.58 c 0.8 0 0.992 0.629 0.992 0.906 v 4.42 c 0 0 -1.984 0 -1.984 0 v -4.42 c 0 -0.277 0.208 -0.906 0.992 -0.906 z" style="fill:url(#Q)"/></g><path d="m 11.406,17.313 -1.875,1.25 v 1.875 10.06 l 7,0.063" style="fill:none;stroke:#ca0000"/><rect width="16.06" height="7.93" rx="0.942" x="13.472" y="15.504" style="fill:#870000;stroke:#600000"/><path d="m 14.417 16.511 h 14.12 v 5.882 h -14.12 z" style="fill:none;opacity:0.17;stroke:url(#R)"/><path d="m 11 17 h 3 v 1 h -3 z" style="fill:url(#S)"/><path d="m 11.641,19.5 -2.125,1.063 v 2.438" style="fill:none;stroke:#ca0000"/><path d="m 11 19 h 3 v 1 h -3 z" style="fill:url(#U)"/><path d="M 11.5,21.5625 9.5,23" style="fill:none;stroke:#ca0000"/><path d="m 11 21 h 3 v 1 h -3 z" style="fill:url(#V)"/><g style="fill:url(#W)"><path d="m 29 17 h 3 v 1 h -3 z" style="fill:url(#X)"/><path d="m 29 19 h 3 v 1 h -3 z" style="fill:url(#Y)"/><path d="m 29 21 h 3 v 1 h -3 z" style="fill:url(#Z)"/></g><g style="fill:url(#a)"><path transform="matrix(0 1 -1 0 0 0)" d="m 13 -16 h 3 v 1 h -3 z" style="fill:url(#b)"/><path transform="matrix(0 1 -1 0 0 0)" d="m 13 -18 h 3 v 1 h -3 z" style="fill:url(#c)"/><path transform="matrix(0 1 -1 0 0 0)" d="m 13 -20 h 3 v 1 h -3 z" style="fill:url(#d)"/><path transform="matrix(0 1 -1 0 0 0)" d="m 13 -22 h 3 v 1 h -3 z" style="fill:url(#e)"/><path transform="matrix(0 1 -1 0 0 0)" d="m 13 -24 h 3 v 1 h -3 z" style="fill:url(#f)"/><path transform="matrix(0 1 -1 0 0 0)" d="m 13 -26 h 3 v 1 h -3 z" style="fill:url(#g)"/><path transform="matrix(0 1 -1 0 0 0)" d="m 13 -28 h 3 v 1 h -3 z" style="fill:url(#h)"/></g><g transform="translate(6 -2)" style="fill:none;stroke:#ca0000"><path d="m 9.458,27.582 1.061,2.917 h 1.945 l -1.061,-2.961"/><path d="m 13.458,27.582 1.061,2.917 h 1.945 l -1.061,-2.961"/><path d="m 17.458,27.582 1.061,2.917 h 1.945 l -1.061,-2.961"/><path d="m 21.458,27.582 1.061,2.917"/></g><g style="fill:url(#i)"><path transform="matrix(0 1 -1 0 0 0)" d="m 23 -16 h 3 v 1 h -3 z" style="fill:url(#k)"/><path transform="matrix(0 1 -1 0 0 0)" d="m 23 -18 h 3 v 1 h -3 z" style="fill:url(#l)"/><path transform="matrix(0 1 -1 0 0 0)" d="m 23 -20 h 3 v 1 h -3 z" style="fill:url(#m)"/><path transform="matrix(0 1 -1 0 0 0)" d="m 23 -22 h 3 v 1 h -3 z" style="fill:url(#n)"/><path transform="matrix(0 1 -1 0 0 0)" d="m 23 -24 h 3 v 1 h -3 z" style="fill:url(#o)"/><path transform="matrix(0 1 -1 0 0 0)" d="m 23 -26 h 3 v 1 h -3 z" style="fill:url(#p)"/></g><path d="m 8.501,37.502 h 2.998 l 0.011,4.983 25,-0.002 -0.003,-4.987 2.99,0.003 c 0.004,0 0.004,-24.994 0.004,-24.994 L 8.504,12.503 c 0.004,8.339 -0.004,25 -0.004,25 z" style="fill:none;opacity:0.239;stroke:#ff3232"/><path transform="matrix(0 1 -1 0 0 0)" d="m 23 -28 h 3 v 1 h -3 z" style="fill:url(#j)"/></g><g><path d="m 7.692 20.341 c -2.142 9.741 4.22 15.397 14.687 9.733 -0.805 2.981 -2.908 5.556 -6.097 6.572 -4.989 1.588 -10.34 -1.125 -11.947 -6.06 -1.267 -3.89 0.243 -7.904 3.357 -10.248 z" style="fill:#fe4848;stroke:#fe3939;stroke-width:1.276"/><g transform="matrix(0.90129 0 0 1.10288 5.834 -6.165)"><path d="m 37.4,15.534 1.03,22.667 C 24.26,35.156 18.644,24.893 1.02,21.526 l 0.207,-5.908 36.17,-0.084 z" style="fill:url(#9);opacity:0.531;fill-rule:evenodd"/><g transform="matrix(-1.28301 0 0 1.26841 49.54 6.06)"><use transform="translate(-2.475 -2.386)" xlink:href="#2" width="256" height="256" style="fill:url(#A)"/><path d="m 16.971,11.584 -3.04,0.267 -0.319,3.092 -0.267,-3.04 -3.092,-0.319 3.04,-0.267 0.319,-3.092 0.267,3.04 z" style="fill:url(#B)"/></g><g transform="matrix(-0.81033 0 0 0.8011 32.9 10.802)"><use transform="translate(-2.475 -2.386)" xlink:href="#2" width="256" height="256" style="fill:url(#A)"/><use xlink:href="#3" width="256" height="256" style="fill:url(#D)"/></g><g transform="matrix(-0.81033 0 0 0.8011 37.21 18.537)"><use transform="translate(-2.475 -2.386)" xlink:href="#2" width="256" height="256" style="fill:url(#A)"/><use xlink:href="#3" width="256" height="256" style="fill:url(#E)"/></g><g transform="matrix(-0.81033 0 0 0.8011 43.786 20.668)"><use transform="translate(-2.475 -2.386)" xlink:href="#2" width="256" height="256" style="fill:url(#A)"/><use xlink:href="#3" width="256" height="256" style="fill:url(#F)"/></g></g></g><g style="fill:#dc143c"><g transform="matrix(0.56785 0 0 0.56785 3.981 4.651)"><use xlink:href="#0" width="256" height="256"/><g><use xlink:href="#4" width="256" height="256"/><use xlink:href="#1" width="256" height="256" style="opacity:0.213;stroke:url(#5);stroke-width:1.761"/></g></g><g transform="matrix(0.27202 0 0 0.30663 24.04 3.496)"><use xlink:href="#0" width="256" height="256"/><g><use xlink:href="#4" width="256" height="256"/><use xlink:href="#1" width="256" height="256" style="opacity:0.213;stroke:url(#7);stroke-width:1.761"/></g></g><g transform="matrix(0.15883 0 0 0.2 33.995 2.451)"><use xlink:href="#0" width="256" height="256"/><g><use xlink:href="#4" width="256" height="256"/><use xlink:href="#1" width="256" height="256" style="opacity:0.213;stroke:url(#8);stroke-width:1.761"/></g></g></g></g></svg>