<svg xmlns="http://www.w3.org/2000/svg" viewBox="0 0 256 256"><defs><clipPath><path d="m -24 13 c 0 1.105 -0.672 2 -1.5 2 -0.828 0 -1.5 -0.895 -1.5 -2 0 -1.105 0.672 -2 1.5 -2 0.828 0 1.5 0.895 1.5 2 z" transform="matrix(15.33333 0 0 11.5 415 -125.5)"/></clipPath></defs><g transform="matrix(-1 0 0 -1 256 1052.36)"><path d="m 24.975 999.59 c -127.95 -192.46 280.09 -311 226.07 -62.2 -23.02 102.82 -167.39 165.22 -226.07 62.2 z" style="fill:#fff;color:#000"/><path d="m 144.27 850.53 c 5.745 0.942 16.797 4.783 18.929 6.578 0.567 0.477 1.757 0.868 2.645 0.868 2.778 0 21.243 14.836 27.917 22.43 7.211 8.205 13.179 16.992 14.163 20.853 0.365 1.432 0.104 3.5 -0.58 4.595 -0.684 1.095 -1.243 2.945 -1.243 4.11 0 1.81 -3 8.02 -11.873 24.545 -4.02 7.485 -14.618 20.831 -22.21 27.963 -5.192 4.877 -17.306 13.12 -21.854 14.869 -10.332 3.976 -29.324 5.309 -45.679 3.206 -8.98 -1.155 -21.854 -4.108 -23.672 -5.43 -0.597 -0.434 -3.037 -1.404 -5.424 -2.156 -2.386 -0.752 -4.827 -1.747 -5.424 -2.212 -0.597 -0.464 -4.355 -2.151 -8.351 -3.748 -9.903 -3.958 -10.356 -4.668 -7.446 -11.668 5.366 -12.905 10.318 -22.741 14.61 -29.02 1.836 -2.685 4.075 -6.183 4.975 -7.773 2.709 -4.787 16.592 -18.981 22.622 -23.13 13.12 -9.02 20.31 -11.546 37.09 -13 10.81 -0.939 41.09 3.058 44.976 5.938 0.597 0.442 3.037 1.419 5.424 2.171 2.386 0.752 4.896 1.807 5.576 2.345 1.423 1.125 14.736 6.452 15.13 6.06 1.195 -1.204 -21.12 -19.511 -26.08 -21.397 -1.231 -0.468 -4.7 -2.302 -7.709 -4.077 -3.01 -1.774 -7.398 -3.847 -9.754 -4.607 -2.356 -0.76 -4.84 -1.821 -5.519 -2.358 -2.971 -2.348 -21.501 -4.365 -32.391 -3.525 -5.966 0.46 -13.429 0.83 -16.583 0.823 -3.594 -0.009 -5.214 0.339 -4.339 0.93 0.834 0.563 -0.226 0.663 -2.629 0.248 -3.331 -0.575 -5.65 0.08 -13.431 3.794 -5.172 2.469 -9.666 4.229 -9.985 3.91 -0.319 -0.319 -0.377 -0.741 -0.128 -0.936 0.249 -0.196 3.869 -3.067 8.05 -6.381 7.02 -5.572 9.689 -7.05 21.695 -12.04 8.884 -3.69 25.583 -4.893 38.508 -2.774 z m 48.814 47.4 c 0 0.498 2.422 2.084 5.382 3.525 5.882 2.864 6.297 3.662 3.777 7.26 -0.929 1.326 -1.185 2.411 -0.57 2.411 1.128 0 4.428 -5.53 4.428 -7.422 0 -0.865 -7.728 -4.73 -9.944 -4.974 -0.398 -0.044 -1.089 -0.445 -1.537 -0.893 -1.058 -1.058 -1.537 -1.03 -1.537 0.092 z m -133.39 51.705 c 0 0.597 0.473 0.353 1.052 -0.542 0.578 -0.895 1.052 -2.115 1.052 -2.712 0 -0.597 -0.473 -0.353 -1.052 0.542 -0.578 0.895 -1.052 2.115 -1.052 2.712 z m -3.382 5.153 c -0.765 1.939 -1.537 3.769 -1.716 4.068 -0.722 1.208 1.473 3.128 4.423 3.869 2.258 0.567 2.916 0.434 2.355 -0.474 -0.429 -0.693 -1.237 -0.978 -1.797 -0.632 -1.643 1.015 -2.543 -2.868 -1.173 -5.061 0.691 -1.106 1.256 -2.75 1.256 -3.653 0 -2.851 -1.902 -1.781 -3.349 1.884 z" style="fill:#ff4500;stroke:#ff4500;fill-rule:evenodd;stroke-width:5.938"/></g></svg>