<svg xmlns="http://www.w3.org/2000/svg" viewBox="0 0 256 256"><g transform="translate(0 -796.36)"><path d="m 3.74 950.97 c 19.829 131.87 217.21 135.83 247.04 7.636 30.702 -103.78 -80.47 -188.63 -163.63 -154.63 -55.684 16.07 -100.67 81.83 -83.41 146.99 z" style="fill:#fff;color:#000"/><g transform="matrix(3.28296 0 0 2.90729 48.22 -2056.92)" style="fill:#ff4500"><path d="m 5.684 1008.47 c -0.884 0 -1.572 0.688 -1.572 1.572 v 28.744 c 0 0.884 0.723 1.818 1.572 1.572 h 8.551 v 7.888 l 9.389 -7.888 h 18.691 c 0.884 0 1.572 -0.688 1.572 -1.572 v -28.744 c 0 -0.884 -0.688 -1.572 -1.572 -1.572 z"/><path d="m 11.767 1016.55 c -1.711 0 -3.086 3.549 -3.086 7.826 0 4.279 1.375 7.716 3.086 7.716 1.711 0 3.086 -3.439 3.086 -7.716 0 -4.279 -1.375 -7.826 -3.086 -7.826 z m 12.233 0 c -1.711 0 -3.129 3.549 -3.129 7.826 0 4.279 1.419 7.716 3.129 7.716 1.711 0 3.086 -3.439 3.086 -7.716 0 -4.279 -1.375 -7.826 -3.086 -7.826 z m 12.233 0 c -1.711 0 -3.129 3.549 -3.129 7.826 0 4.279 1.419 7.716 3.129 7.716 1.711 0 3.086 -3.439 3.086 -7.716 0 -4.279 -1.375 -7.826 -3.086 -7.826 z" style="fill:#ffdead;color:#000"/><path d="m 4.113 1037.8 v 0.995 c 0 0.884 0.722 1.817 1.571 1.571 h 8.553 v -0.995 h -8.553 c -0.849 0.247 -1.571 -0.687 -1.571 -1.571 z m 39.775 0 c 0 0.884 -0.687 1.571 -1.571 1.571 h -18.693 l -9.388 7.887 v 0.995 l 9.388 -7.887 h 18.693 c 0.884 0 1.571 -0.687 1.571 -1.571 v -0.995 z" style="fill-opacity:0.314"/></g></g></svg>