<svg xmlns="http://www.w3.org/2000/svg" viewBox="0 0 256 256"><g transform="translate(-0.001 -795.27)"><path d="m 3.74 950.31 c 19.829 131.31 217.21 135.25 247.04 7.604 30.702 -103.34 -80.47 -187.83 -163.63 -153.97 -55.684 16 -100.67 81.48 -83.41 146.37 z" style="fill:#fff;color:#000"/><g transform="matrix(3.28296 0 0 2.90729 48.22 -2056.92)" style="fill:#ff4500"><path d="m 5.684 1008.47 c -0.884 0 -1.572 0.688 -1.572 1.572 v 28.744 c 0 0.884 0.723 1.818 1.572 1.572 h 8.551 v 7.888 l 9.389 -7.888 h 18.691 c 0.884 0 1.572 -0.688 1.572 -1.572 v -28.744 c 0 -0.884 -0.688 -1.572 -1.572 -1.572 z"/><path d="m 11.767 1020.28 c -1.711 0 -3.086 2.02 -3.086 4.444 0 2.43 1.375 4.382 3.086 4.382 1.711 0 3.086 -1.953 3.086 -4.382 0 -2.43 -1.375 -4.444 -3.086 -4.444 z m 12.233 0 c -1.711 0 -3.129 2.02 -3.129 4.444 0 2.43 1.419 4.382 3.129 4.382 1.711 0 3.086 -1.953 3.086 -4.382 0 -2.43 -1.375 -4.444 -3.086 -4.444 z m 12.233 0 c -1.711 0 -3.129 2.02 -3.129 4.444 0 2.43 1.419 4.382 3.129 4.382 1.711 0 3.086 -1.953 3.086 -4.382 0 -2.43 -1.375 -4.444 -3.086 -4.444 z" style="fill:#ffdead;color:#000"/><path d="m 4.113,1037.8 v 0.995 c 0,0.884 0.722,1.817 1.571,1.571 h 8.553 v -0.995 H 5.684 c -0.849,0.247 -1.571,-0.687 -1.571,-1.571 z m 39.775,0 c 0,0.884 -0.687,1.571 -1.571,1.571 H 23.624 l -9.388,7.887 v 0.995 l 9.388,-7.887 h 18.693 c 0.884,0 1.571,-0.687 1.571,-1.571 v -0.995 z" style="fill-opacity:0.314"/></g></g></svg>