<svg xmlns="http://www.w3.org/2000/svg" viewBox="0 0 256 256"><g transform="translate(0 -796.36)"><path d="m 59.778 823.05 c 95.24 -84.46 241.79 48.767 182.53 160.27 -59.906 112.74 -258.16 82.69 -241.3 -55.767 5.02 -41.2 27.695 -76.954 58.764 -104.51 z" style="fill:#fff;color:#000"/><g transform="matrix(0.63749 0 0 0.65238 57.832 856.36)" style="fill:#ff4500;fill-rule:evenodd"><path d="m 114.57 112.23 c -17.247 -21.36 -31.357 -39.23 -31.357 -39.707 c 0 -0.479 13.502 -16.948 30 -36.598 l 30 -35.728 h 32.818 c 31.09 0 32.751 0.085 31.548 1.616 -0.699 0.889 -14.326 17.16 -30.28 36.16 -26.24 31.25 -28.884 34.692 -27.665 36.1 1.307 1.512 59.32 73.51 61.11 75.837 0.707 0.921 -5.826 1.157 -31.965 1.157 h -32.853 l -31.357 -38.836 z"/><path d="m 9.452 147.6 c 1.517 -1.909 15.712 -19.507 31.544 -39.11 15.832 -19.599 28.683 -35.923 28.558 -36.27 -0.125 -0.352 -13.257 -16.13 -29.18 -35.06 -15.925 -18.934 -28.758 -34.622 -28.519 -34.861 c 0.339 -0.339 90.22 30.855 90.98 31.576 0.101 0.095 -7.094 8.819 -15.988 19.386 l -16.17 19.213 l 15.447 19.17 c 8.496 10.544 15.831 19.674 16.301 20.289 0.592 0.776 -3.861 6.942 -14.539 20.13 l -15.393 19.01 h -32.897 h -32.897 l 2.758 -3.471 z"/><path d="m 5.924 188.09 v -29.619 h 103.2 h 103.2 v 29.619 v 29.619 h -103.2 h -103.2 v -29.619 z m 94.04 18.07 c 4.559 -1.354 9.203 -5.228 11.403 -9.513 1.063 -2.071 1.03 -2.083 -5.991 -2.083 -5.658 0 -7.527 0.367 -9.413 1.851 -3.221 2.534 -7.227 2.366 -10.01 -0.421 -1.872 -1.872 -2.272 -3.185 -2.272 -7.466 0 -7.951 1.849 -10.597 7.405 -10.597 3.805 0 4.87 0.59 6.436 3.56 1.304 2.474 1.55 2.2 -5.741 6.384 -2.418 1.387 -4.396 2.835 -4.397 3.217 -0.001 0.382 5.622 0.694 12.494 0.694 h 12.495 v -4.482 c 0 -6.368 -3.177 -11.94 -8.792 -15.418 -4.128 -2.557 -5.155 -2.777 -12.959 -2.777 -7.804 0 -8.831 0.22 -12.959 2.777 -5.873 3.637 -8.792 8.998 -8.792 16.15 0 5.984 2.75 12.334 6.533 15.08 5.954 4.33 16.02 5.576 24.563 3.04 z m 41.41 -0.825 c 4.051 -2.051 4.322 -2.08 4.322 -0.463 0 1.54 0.797 1.725 7.405 1.725 h 7.405 v -18.512 v -18.512 h -7.405 h -7.405 v 11.168 c 0 13.761 -1.119 16.554 -6.644 16.585 -4.785 0.027 -5.388 -1.688 -5.388 -15.324 v -12.429 h -7.466 h -7.466 l 0.292 15.716 c 0.289 15.552 0.318 15.742 2.72 18.14 4.389 4.384 13.07 5.226 19.629 1.903 z m -105.82 -10.182 c 0 -10.177 0.213 -11.715 1.918 -13.884 1.228 -1.561 2.81 -2.434 4.397 -2.425 4.971 0.028 5.231 0.719 5.556 14.76 l 0.301 12.994 h 7.335 h 7.335 l -0.001 -14.12 c -0.002 -19.981 -1.919 -23.08 -14.349 -23.2 -4.284 -0.04 -6.598 0.452 -9.116 1.937 -3.298 1.946 -3.375 1.95 -3.375 0.171 0 -1.658 -0.659 -1.82 -7.405 -1.82 h -7.405 v 18.512 v 18.512 h 7.405 h 7.405 v -11.445 z m 148.15 4.734 c 0.078 -9.462 1.241 -15.585 3.238 -17.05 0.929 -0.679 3.692 -1.235 6.14 -1.235 h 4.451 v -6.578 c 0 -5.618 -0.214 -6.496 -1.464 -6.02 -0.805 0.309 -2.413 0.562 -3.573 0.562 -1.16 0 -3.625 1.029 -5.478 2.286 l -3.369 2.286 v -2.286 c 0 -2.241 -0.148 -2.286 -7.405 -2.286 h -7.405 v 18.512 v 18.512 h 7.405 h 7.405 l 0.055 -6.71 z"/></g></g></svg>