<svg xmlns="http://www.w3.org/2000/svg" viewBox="0 0 256 256"><g transform="translate(0 -796.36)" style="fill:#d3d3d3;color:#000"><path d="m -1360.14 1641.33 c 46.11 -98.28 -119.59 -146.07 -181.85 -106.06 -62.25 40.01 -83.52 108.58 -13.01 143.08 70.51 34.501 148.75 61.26 194.86 -37.03 z" transform="matrix(-1.03665 0 0 1.35742 -1401.71 -1268.43)" style="fill:#fff"/><g transform="matrix(9.13493 0 0 9.46102 -1061.09 -5484.94)" style="fill:#ff4500"><path d="m 125.5 670 c -1.385 0 -2.5 1.115 -2.5 2.5 v 1.438 c 0.713 -0.505 1.571 -0.945 2.5 -0.945 h 7.06 c 1.267 0 2.417 0.693 3.219 1.57 l 3.22 -2.56 h -4 c -0.232 -1.141 -1.226 -2 -2.438 -2 z"/><path d="m 125.5 675 c -1.385 0 -2.5 1.115 -2.5 2.5 v 5 c 0 1.385 1.115 2.5 2.5 2.5 h 7.06 c 1.385 0 2.48 -1.115 2.5 -2.5 v -2.375 l 3.938 -3.125 h -4 c -0.232 -1.141 -1.226 -2 -2.438 -2 h -7.06 z m 3.938 1 c 1.314 -0.074 2.489 0.936 2.563 2.25 0 1.121 -0.308 1.544 -1.281 2.281 -0.153 0.115 -0.242 0.2 -0.281 0.25 -0.04 0.05 -0.031 0.033 -0.031 0.031 0.006 0.423 -0.39 0.781 -0.813 0.781 -0.423 0 -0.787 -0.359 -0.781 -0.781 0 -0.402 0.179 -0.755 0.375 -1 0.196 -0.245 0.381 -0.426 0.563 -0.563 0.163 -0.128 0.381 -0.314 0.563 -0.531 0.075 -0.09 0.097 -0.24 0.094 -0.344 v -0.031 c -0.025 -0.451 -0.393 -0.775 -0.844 -0.75 -0.451 0.025 -0.775 0.362 -0.75 0.813 h -1.625 c -0.074 -1.314 0.936 -2.333 2.25 -2.406 z m 0.156 6.406 c 0.442 0 0.813 0.371 0.813 0.813 0 0.442 -0.371 0.781 -0.813 0.781 -0.442 0 -0.781 -0.339 -0.781 -0.781 0 -0.442 0.339 -0.813 0.781 -0.813 z"/></g></g></svg>