<svg xmlns="http://www.w3.org/2000/svg" viewBox="0 0 256 256"><g transform="translate(0 -796.36)"><path d="m -1374.42 1658.71 c 125.16 -274.08 -273.7 -240.16 -226.07 -62.2 23.02 102.82 167.39 165.22 226.07 62.2 z" transform="matrix(0 1 -1 0 1712.93 2402.81)" style="fill:#fff;color:#000"/><g transform="matrix(5.423 0 0 4.81759 3.276 804.44)" style="fill:#ff4500"><g style="font-family:Bitstream Vera Sans"><g style="font-size:12.666"><text y="10.722" x="930.44" style="opacity:0.8"><tspan y="10.722" x="930.44"/></text><text y="-30.02" x="954.4" style="opacity:0.8"><tspan y="-30.02" x="954.4"/></text><text y="-60.1" x="-516.16" style="opacity:0.8"><tspan y="-60.1" x="-516.16"/></text><text y="685.46" x="-2339.84" style="opacity:0.8"><tspan y="685.46" x="-2339.84"/></text><text y="-445.42" x="-401.67" style="opacity:0.8"><tspan y="-445.42" x="-401.67"/></text><text y="-858.89" x="405.94" style="opacity:0.8"><tspan y="-858.89" x="405.94"/></text><text y="-899.63" x="429.9" style="opacity:0.8"><tspan y="-899.63" x="429.9"/></text><text y="-906.84" x="-1061.57" style="opacity:0.8"><tspan y="-906.84" x="-1061.57"/></text><text y="-1180.07" x="398.98" style="opacity:0.8"><tspan y="-1180.07" x="398.98"/></text><text y="-553.38" x="1885.1" style="opacity:0.8"><tspan y="-553.38" x="1885.1"/></text><text y="-594.12" x="1909.06" style="opacity:0.8"><tspan y="-594.12" x="1909.06"/></text><text y="-601.33" x="417.6" style="opacity:0.8"><tspan y="-601.33" x="417.6"/></text><text y="-874.57" x="1878.14" style="opacity:0.8"><tspan y="-874.57" x="1878.14"/></text><text y="-649.43" x="-520.22" style="opacity:0.8"><tspan y="-649.43" x="-520.22"/></text><text y="96.13" x="-2343.9" style="opacity:0.8"><tspan y="96.13" x="-2343.9"/></text><text y="189" x="-629.15" style="opacity:0.8"><tspan y="189" x="-629.15"/></text><text y="9.817" x="479.88" style="opacity:0.8"><tspan y="9.817" x="479.88"/></text><text y="-30.924" x="503.84" style="opacity:0.8"><tspan y="-30.924" x="503.84"/></text><text y="-38.13" x="-987.63" style="opacity:0.8"><tspan y="-38.13" x="-987.63"/></text><text y="-311.37" x="472.92" style="opacity:0.8"><tspan y="-311.37" x="472.92"/></text><text y="-40.848" x="-554.82" style="opacity:0.8"><tspan y="-40.848" x="-554.82"/></text><text y="704.71" x="-2378.51" style="opacity:0.8"><tspan y="704.71" x="-2378.51"/></text><text y="-902.38" x="-403.73" style="opacity:0.8"><tspan y="-902.38" x="-403.73"/></text><text y="-1315.85" x="403.88" style="opacity:0.8"><tspan y="-1315.85" x="403.88"/></text><text y="-1356.59" x="427.84" style="opacity:0.8"><tspan y="-1356.59" x="427.84"/></text><text y="-1363.8" x="-1063.63" style="opacity:0.8"><tspan y="-1363.8" x="-1063.63"/></text><text y="-1637.03" x="396.92" style="opacity:0.8"><tspan y="-1637.03" x="396.92"/></text><text y="-1010.34" x="1883.04" style="opacity:0.8"><tspan y="-1010.34" x="1883.04"/></text><text y="-1051.09" x="1907" style="opacity:0.8"><tspan y="-1051.09" x="1907"/></text><text y="-1058.3" x="415.54" style="opacity:0.8"><tspan y="-1058.3" x="415.54"/></text><text y="-1331.53" x="1876.08" style="opacity:0.8"><tspan y="-1331.53" x="1876.08"/></text><text y="-1106.39" x="-522.28" style="opacity:0.8"><tspan y="-1106.39" x="-522.28"/></text><text y="-360.83" x="-2345.96" style="opacity:0.8"><tspan y="-360.83" x="-2345.96"/></text><text y="-267.96" x="-631.21" style="opacity:0.8"><tspan y="-267.96" x="-631.21"/></text><text y="-27.05" x="208.81" style="opacity:0.8"><tspan y="-27.05" x="208.81"/></text><text y="-67.788" x="232.77" style="opacity:0.8"><tspan y="-67.788" x="232.77"/></text><text y="-261.82" x="-1037.05" style="opacity:0.8"><tspan y="-261.82" x="-1037.05"/></text><text y="-675.29" x="-229.45" style="opacity:0.8"><tspan y="-675.29" x="-229.45"/></text><text y="-716.03" x="-205.49" style="opacity:0.8"><tspan y="-716.03" x="-205.49"/></text><text y="-723.24" x="-1696.95" style="opacity:0.8"><tspan y="-723.24" x="-1696.95"/></text><text y="-996.47" x="-236.41" style="opacity:0.8"><tspan y="-996.47" x="-236.41"/></text><text y="-369.78" x="1249.72" style="opacity:0.8"><tspan y="-369.78" x="1249.72"/></text><text y="-410.52" x="1273.68" style="opacity:0.8"><tspan y="-410.52" x="1273.68"/></text><text y="-417.73" x="-217.79" style="opacity:0.8"><tspan y="-417.73" x="-217.79"/></text><text y="-690.97" x="1242.76" style="opacity:0.8"><tspan y="-690.97" x="1242.76"/></text><text y="-465.82" x="-1155.6" style="opacity:0.8"><tspan y="-465.82" x="-1155.6"/></text><text y="279.73" x="-2979.29" style="opacity:0.8"><tspan y="279.73" x="-2979.29"/></text></g><text y="1159.42" x="-664.27" transform="matrix(0.90475 0 0 0.90475 -663.53 -676.38)" style="font-size:14;opacity:0.8"><tspan y="1159.42" x="-664.27"/></text><g style="font-size:12.666"><text y="17.96" x="930.44" style="opacity:0.8"><tspan y="17.96" x="930.44"/></text><text y="-22.781" x="954.4" style="opacity:0.8"><tspan y="-22.781" x="954.4"/></text><text y="-52.86" x="-516.16" style="opacity:0.8"><tspan y="-52.86" x="-516.16"/></text><text y="692.69" x="-2339.84" style="opacity:0.8"><tspan y="692.69" x="-2339.84"/></text><text y="-438.18" x="-401.67" style="opacity:0.8"><tspan y="-438.18" x="-401.67"/></text><text y="-851.65" x="405.94" style="opacity:0.8"><tspan y="-851.65" x="405.94"/></text><text y="-892.39" x="429.9" style="opacity:0.8"><tspan y="-892.39" x="429.9"/></text><text y="-899.6" x="-1061.57" style="opacity:0.8"><tspan y="-899.6" x="-1061.57"/></text><text y="-1172.84" x="398.98" style="opacity:0.8"><tspan y="-1172.84" x="398.98"/></text><text y="-546.15" x="1885.1" style="opacity:0.8"><tspan y="-546.15" x="1885.1"/></text><text y="-586.89" x="1909.06" style="opacity:0.8"><tspan y="-586.89" x="1909.06"/></text><text y="-594.1" x="417.6" style="opacity:0.8"><tspan y="-594.1" x="417.6"/></text><text y="-867.33" x="1878.14" style="opacity:0.8"><tspan y="-867.33" x="1878.14"/></text><text y="-642.19" x="-520.22" style="opacity:0.8"><tspan y="-642.19" x="-520.22"/></text><text y="103.37" x="-2343.9" style="opacity:0.8"><tspan y="103.37" x="-2343.9"/></text><text y="196.24" x="-629.15" style="opacity:0.8"><tspan y="196.24" x="-629.15"/></text><text y="17.06" x="479.88" style="opacity:0.8"><tspan y="17.06" x="479.88"/></text><text y="-23.686" x="503.84" style="opacity:0.8"><tspan y="-23.686" x="503.84"/></text><text y="-30.896" x="-987.63" style="opacity:0.8"><tspan y="-30.896" x="-987.63"/></text><text y="-304.13" x="472.92" style="opacity:0.8"><tspan y="-304.13" x="472.92"/></text><text y="-33.61" x="-554.82" style="opacity:0.8"><tspan y="-33.61" x="-554.82"/></text><text y="711.94" x="-2378.51" style="opacity:0.8"><tspan y="711.94" x="-2378.51"/></text><text y="-895.14" x="-403.73" style="opacity:0.8"><tspan y="-895.14" x="-403.73"/></text><text y="-1308.61" x="403.88" style="opacity:0.8"><tspan y="-1308.61" x="403.88"/></text><text y="-1349.35" x="427.84" style="opacity:0.8"><tspan y="-1349.35" x="427.84"/></text><text y="-1356.56" x="-1063.63" style="opacity:0.8"><tspan y="-1356.56" x="-1063.63"/></text><text y="-1629.8" x="396.92" style="opacity:0.8"><tspan y="-1629.8" x="396.92"/></text><text y="-1003.11" x="1883.04" style="opacity:0.8"><tspan y="-1003.11" x="1883.04"/></text><text y="-1043.85" x="1907" style="opacity:0.8"><tspan y="-1043.85" x="1907"/></text><text y="-1051.06" x="415.54" style="opacity:0.8"><tspan y="-1051.06" x="415.54"/></text><text y="-1324.29" x="1876.08" style="opacity:0.8"><tspan y="-1324.29" x="1876.08"/></text><text y="-1099.15" x="-522.28" style="opacity:0.8"><tspan y="-1099.15" x="-522.28"/></text><text y="-353.59" x="-2345.96" style="opacity:0.8"><tspan y="-353.59" x="-2345.96"/></text><text y="-260.72" x="-631.21" style="opacity:0.8"><tspan y="-260.72" x="-631.21"/></text><text y="-19.809" x="208.81" style="opacity:0.8"><tspan y="-19.809" x="208.81"/></text><text y="-60.55" x="232.77" style="opacity:0.8"><tspan y="-60.55" x="232.77"/></text><text y="-254.58" x="-1037.05" style="opacity:0.8"><tspan y="-254.58" x="-1037.05"/></text><text y="-668.05" x="-229.45" style="opacity:0.8"><tspan y="-668.05" x="-229.45"/></text><text y="-708.79" x="-205.49" style="opacity:0.8"><tspan y="-708.79" x="-205.49"/></text><text y="-716" x="-1696.95" style="opacity:0.8"><tspan y="-716" x="-1696.95"/></text><text y="-989.23" x="-236.41" style="opacity:0.8"><tspan y="-989.23" x="-236.41"/></text><text y="-362.54" x="1249.72" style="opacity:0.8"><tspan y="-362.54" x="1249.72"/></text><text y="-403.29" x="1273.68" style="opacity:0.8"><tspan y="-403.29" x="1273.68"/></text><text y="-410.5" x="-217.79" style="opacity:0.8"><tspan y="-410.5" x="-217.79"/></text><text y="-683.73" x="1242.76" style="opacity:0.8"><tspan y="-683.73" x="1242.76"/></text><text y="-458.59" x="-1155.6" style="opacity:0.8"><tspan y="-458.59" x="-1155.6"/></text><text y="286.97" x="-2979.29" style="opacity:0.8"><tspan y="286.97" x="-2979.29"/></text></g><text y="1159.42" x="-664.27" transform="matrix(0.90475 0 0 0.90475 -663.53 -669.14)" style="font-size:14;opacity:0.8"><tspan y="1159.42" x="-664.27"/></text></g><g style="font-size:12.666"><text y="-361.32" x="489.12" style="font-family:Droid Sans"><tspan y="-361.32" x="489.12"/><tspan y="-345.48" x="489.12"/></text><g style="font-family:Bitstream Vera Sans"><text y="-843.36" x="954.3" style="opacity:0.8"><tspan y="-843.36" x="954.3"/></text><text y="-97.81" x="-869.38" style="opacity:0.8"><tspan y="-97.81" x="-869.38"/></text><text y="-1128.36" x="1681.38" style="opacity:0.8"><tspan y="-1128.36" x="1681.38"/></text><text y="-1169.1" x="1705.34" style="opacity:0.8"><tspan y="-1169.1" x="1705.34"/></text><text y="-1176.31" x="213.88" style="opacity:0.8"><tspan y="-1176.31" x="213.88"/></text><text y="-1449.54" x="1674.42" style="opacity:0.8"><tspan y="-1449.54" x="1674.42"/></text></g></g><path d="m 21.5,9 -2.5,5 2.5,5 5,0 2.5,-5 -2.5,-5 -5,0 z m -9,5 -2.5,5 2.5,5 5,0 2.5,-5 -2.5,-5 -5,0 z m 18,0 -2.5,5 2.5,5 5,0 2.5,-5 -2.5,-5 -5,0 z m -18,12 -2.5,5 2.5,5 5,0 2.5,-5 -2.5,-5 -5,0 z m 18,0 -2.5,5 2.5,5 5,0 2.5,-5 -2.5,-5 -5,0 z m -9,5 -2.5,5 2.5,5 5,0 2.5,-5 -2.5,-5 -5,0 z"/><path d="m 21.5,20 -2.5,5 2.5,5 5,0 2.5,-5 -2.5,-5 -5,0 z"/><path d="m 22.6 22.791 c 0.363 -0.125 0.55 -0.169 0.682 -0.169 0.132 0 0.264 0.062 0.308 0.151 0.054 0.125 0.054 0.125 0.066 0.686 v 3.049 c 0 0.856 -0.143 0.999 -1.055 1.034 v 0.231 h 3 v -0.231 c -0.923 -0.053 -1.044 -0.169 -1.044 -1.034 v -4.734 h -0.198 c -0.406 0.205 -0.835 0.393 -1.759 0.758 v 0.259 z" style="fill:#ffdead"/><path d="m 21.5,9 -2.5,5 2.5,5 5,0 2.5,-5 -2.5,-5 -5,0 z m 0.617188,1 3.765624,0 2,4 -2,4 -3.765624,0 -2,-4 2,-4 z M 12.5,14 10,19 l 2.5,5 5,0 2.5,-5 -2.5,-5 -5,0 z m 18,0 -2.5,5 2.5,5 5,0 2.5,-5 -2.5,-5 -5,0 z m -17.382812,1 3.765624,0 2,4 -2,4 -3.765624,0 -2,-4 2,-4 z m 18,0 3.765624,0 2,4 -2,4 -3.765624,0 -2,-4 2,-4 z M 12.5,26 10,31 l 2.5,5 5,0 2.5,-5 -2.5,-5 -5,0 z m 18,0 -2.5,5 2.5,5 5,0 2.5,-5 -2.5,-5 -5,0 z m -17.382812,1 3.765624,0 2,4 -2,4 -3.765624,0 -2,-4 2,-4 z m 18,0 3.765624,0 2,4 -2,4 -3.765624,0 -2,-4 2,-4 z M 21.5,31 19,36 l 2.5,5 5,0 2.5,-5 -2.5,-5 -5,0 z m 0.617188,1 3.765624,0 2,4 -2,4 -3.765624,0 -2,-4 2,-4 z" style="opacity:0.15"/></g></g></svg>