<svg xmlns="http://www.w3.org/2000/svg" viewBox="0 0 256 256"><g transform="translate(0 -796.36)"><path d="m 3.74 950.97 c 19.829 131.87 217.21 135.83 247.04 7.636 30.702 -103.78 -80.47 -188.63 -163.63 -154.63 -55.684 16.07 -100.67 81.83 -83.41 146.99 z" style="fill:#fff;color:#000"/><rect width="118.51" height="72.53" x="66.61" y="922.42" rx="6.435" ry="6.423" style="fill:#ffdead;stroke:#ffdead;fill-rule:evenodd;stroke-width:5.355"/><g transform="translate(-1.149 4.598)"><path d="m 62.46 992.11 c -1.101 -0.683 -2.571 -2.136 -3.268 -3.228 -1.25 -1.961 -1.266 -2.711 -1.266 -60.36 0 -57.799 0.013 -58.39 1.276 -60.37 0.702 -1.101 2.205 -2.558 3.341 -3.238 2.046 -1.226 2.637 -1.237 64.781 -1.237 62.14 0 62.735 0.011 64.781 1.237 1.136 0.68 2.639 2.138 3.341 3.238 1.264 1.982 1.276 2.576 1.276 60.37 0 57.799 -0.013 58.39 -1.276 60.37 -2.239 3.512 -4.627 4.475 -11.09 4.475 -6.119 0 -6.536 -0.268 -4.439 -2.852 1.212 -1.493 1.245 -2.447 1.245 -35.838 v -34.3 h -8.714 h -8.714 v 22.247 c 0 23.744 0.063 23.268 -3.112 23.694 l -1.556 0.209 v 11.55 c 0 10.154 0.132 11.691 1.089 12.716 2.039 2.182 1.398 2.578 -4.165 2.578 -2.89 0 -5.407 -0.24 -5.593 -0.532 -0.187 -0.293 0.217 -1.218 0.897 -2.056 1.135 -1.399 1.236 -2.463 1.236 -13.04 v -11.517 l -1.4 -0.009 c -2.978 -0.02 -2.931 0.33 -3.104 -23.25 l -0.163 -22.289 l -6.38 -0.172 l -6.38 -0.172 v 22.579 c 0 24.352 0.141 23.311 -3.163 23.311 -1.136 0 -1.194 0.568 -1.194 11.648 0 9.308 0.184 11.883 0.914 12.819 1.819 2.33 1.254 2.679 -4.337 2.679 -5.591 0 -6.156 -0.349 -4.337 -2.679 0.73 -0.936 0.914 -3.511 0.914 -12.819 0 -11.08 -0.058 -11.648 -1.194 -11.648 -3.304 0 -3.163 1.041 -3.163 -23.311 v -22.579 l -6.38 0.172 l -6.38 0.172 l -0.163 22.289 c -0.173 23.577 -0.126 23.23 -3.104 23.25 l -1.4 0.009 v 11.517 c 0 10.578 0.101 11.642 1.236 13.04 0.68 0.838 1.084 1.763 0.897 2.056 -0.187 0.293 -2.704 0.532 -5.593 0.532 -5.563 0 -6.204 -0.397 -4.165 -2.578 0.958 -1.024 1.089 -2.561 1.089 -12.716 v -11.55 l -1.556 -0.209 c -3.175 -0.426 -3.112 0.05 -3.112 -23.694 v -22.247 h -6.224 h -6.224 v 34.595 c 0 33.608 0.035 34.634 1.232 35.971 0.678 0.757 1.081 1.613 0.897 1.902 -0.184 0.289 -3.89 0.521 -8.234 0.515 -6.902 -0.009 -8.152 -0.167 -9.9 -1.253 z" style="fill:#d00000"/><path d="m 63.837 992.19 c -0.685 -0.276 -2.085 -1.363 -3.112 -2.414 l -1.867 -1.912 v -59.37 v -59.37 l 2.344 -2.272 l 2.344 -2.272 h 63.776 h 63.776 l 2.344 2.272 l 2.344 2.272 v 59.4 v 59.4 l -2.344 2.272 c -2.315 2.244 -2.413 2.275 -7.936 2.483 -3.076 0.116 -5.592 0.035 -5.592 -0.181 0 -0.215 0.422 -1.183 0.939 -2.151 0.81 -1.519 0.917 -6.451 0.778 -36.01 l -0.161 -34.25 l -9.181 -0.167 l -9.181 -0.167 v 22.22 c 0 23.438 -0.027 23.664 -2.859 23.664 -0.751 0 -1.535 0.429 -1.743 0.954 -0.208 0.525 -0.376 5.615 -0.374 11.311 0.003 8.01 0.215 10.749 0.934 12.08 0.511 0.95 0.93 1.968 0.93 2.262 0 0.294 -1.961 0.534 -4.357 0.534 -2.396 0 -4.348 -0.204 -4.337 -0.452 0.011 -0.249 0.431 -0.979 0.934 -1.623 0.732 -0.938 0.914 -3.543 0.914 -13.08 v -11.912 l -2.023 -0.189 l -2.023 -0.189 l -0.33 -22.622 c -0.182 -12.442 -0.392 -22.699 -0.467 -22.793 -0.075 -0.094 -3.148 -0.094 -6.828 0 l -6.691 0.171 l -0.163 22.289 c -0.173 23.577 -0.126 23.23 -3.104 23.25 l -1.4 0.009 v 12.293 c 0 10.191 0.16 12.421 0.934 13.04 1.755 1.411 0.932 1.81 -3.734 1.81 -4.667 0 -5.489 -0.398 -3.734 -1.81 0.774 -0.623 0.934 -2.853 0.934 -13.04 v -12.293 l -1.4 -0.009 c -2.978 -0.02 -2.931 0.33 -3.104 -23.25 l -0.163 -22.289 l -6.691 -0.171 c -3.68 -0.094 -6.752 -0.094 -6.828 0 -0.075 0.094 -0.285 10.351 -0.467 22.793 l -0.33 22.622 l -2.023 0.189 l -2.023 0.189 v 11.912 c 0 9.539 0.182 12.145 0.914 13.08 0.503 0.644 0.923 1.375 0.934 1.623 0.011 0.249 -1.941 0.452 -4.337 0.452 -2.396 0 -4.357 -0.24 -4.357 -0.534 0 -0.294 0.418 -1.312 0.93 -2.262 0.719 -1.336 0.931 -4.077 0.934 -12.08 0.002 -5.696 -0.166 -10.786 -0.374 -11.311 -0.208 -0.525 -0.992 -0.954 -1.743 -0.954 -2.831 0 -2.859 -0.226 -2.859 -23.648 v -22.2 h -6.847 h -6.847 v 34.873 c 0 29.729 0.135 35.05 0.914 36.04 0.503 0.644 0.923 1.375 0.934 1.623 0.027 0.616 -14.294 0.502 -15.852 -0.126 z m 36.06 -84.74 c 6.394 -3.03 9.926 -8.63 9.926 -15.73 0 -5.176 -1.515 -8.777 -5.195 -12.343 -3.612 -3.501 -7.409 -4.992 -12.783 -5.02 -12.515 -0.068 -20.994 10.994 -17.459 22.779 1.372 4.574 6.547 9.804 11.235 11.353 4.335 1.433 9.925 1.027 14.276 -1.037 z m -11.948 -8.755 c -5.108 -3.104 -5.858 -8.27 -1.824 -12.561 4.607 -4.901 13.708 -1.168 13.708 5.623 0 6.03 -6.822 10.01 -11.883 6.939 z" style="fill:#a00000"/><path d="m 63.09 990.99 c -4.15 -2.452 -3.92 1.202 -3.92 -62.46 0 -63.66 -0.229 -60.01 3.92 -62.46 1.941 -1.147 3.599 -1.178 64.11 -1.18 68.58 -0.002 64.52 -0.232 67.06 3.797 1.183 1.88 1.215 3.467 1.215 59.844 0 56.38 -0.032 57.964 -1.215 59.844 -1.732 2.753 -4.227 3.8 -9.06 3.8 -4.01 0 -4.105 -0.037 -3.61 -1.357 0.28 -0.747 0.509 -17.1 0.509 -36.35 v -34.989 h -9.647 h -9.647 l -0.311 22.622 l -0.311 22.622 l -1.865 0.205 c -1.026 0.113 -2.072 0.52 -2.325 0.905 -0.253 0.385 -0.464 5.527 -0.469 11.427 -0.007 8.02 0.218 11.255 0.892 12.819 l 0.902 2.092 h -3.458 c -3.082 0 -3.4 -0.115 -2.925 -1.056 0.293 -0.581 0.533 -6.618 0.533 -13.416 v -12.36 l -1.867 -0.314 l -1.867 -0.314 l -0.33 -22.616 c -0.182 -12.439 -0.392 -22.693 -0.467 -22.786 -0.075 -0.093 -3.428 -0.093 -7.45 0 l -7.313 0.17 l -0.311 22.622 l -0.311 22.622 l -2.023 0.189 l -2.023 0.189 v 12.594 c 0 7.746 0.24 12.738 0.622 12.967 1.5 0.898 0.368 1.508 -2.801 1.508 -3.168 0 -4.301 -0.61 -2.801 -1.508 0.383 -0.229 0.622 -5.222 0.622 -12.967 v -12.594 l -2.023 -0.189 l -2.023 -0.189 l -0.311 -22.622 l -0.311 -22.622 l -7.313 -0.17 c -4.02 -0.093 -7.375 -0.093 -7.45 0 -0.075 0.093 -0.285 10.347 -0.467 22.786 l -0.33 22.616 l -1.867 0.314 l -1.867 0.314 v 12.36 c 0 6.798 0.24 12.835 0.533 13.416 0.475 0.941 0.157 1.056 -2.925 1.056 h -3.458 l 0.902 -2.092 c 0.674 -1.564 0.899 -4.799 0.892 -12.819 -0.005 -5.9 -0.216 -11.04 -0.469 -11.427 -0.253 -0.385 -1.299 -0.792 -2.325 -0.905 l -1.865 -0.205 l -0.311 -22.622 l -0.311 -22.622 l -7.313 -0.17 l -7.313 -0.17 v 35.576 c 0 23.07 0.219 35.707 0.622 35.948 1.782 1.068 0.008 1.508 -6.069 1.506 -5.538 -0.002 -7.03 -0.205 -8.684 -1.18 z m 36.853 -82.58 c 6.501 -2.981 10.277 -8.425 10.735 -15.477 0.36 -5.538 -1.322 -10.04 -5.196 -13.899 -4.084 -4.073 -7.491 -5.392 -13.947 -5.399 -4.707 -0.005 -5.658 0.191 -8.624 1.784 -6.604 3.545 -10.05 9.136 -10.05 16.308 0 5.567 1.502 9.09 5.559 13.02 4.125 4 7.303 5.264 13.425 5.33 3.56 0.038 5.04 -0.267 8.097 -1.668 z m -13.14 -11.797 c -1.762 -1.708 -2.116 -2.493 -2.116 -4.692 0 -3.02 1.151 -4.932 3.741 -6.231 6.354 -3.185 12.93 3.189 9.644 9.347 -1.339 2.511 -3.317 3.626 -6.428 3.626 -2.269 0 -3.079 -0.343 -4.841 -2.051 z" style="fill:#610000"/><path d="m 63.09 990.99 c -4.15 -2.452 -3.92 1.202 -3.92 -62.46 0 -63.66 -0.229 -60.01 3.92 -62.46 1.941 -1.147 3.599 -1.178 64.11 -1.18 68.58 -0.002 64.52 -0.232 67.06 3.797 1.183 1.88 1.215 3.467 1.215 59.844 0 56.38 -0.032 57.964 -1.215 59.844 -1.732 2.753 -4.227 3.8 -9.06 3.8 -4.01 0 -4.105 -0.037 -3.61 -1.357 0.28 -0.747 0.509 -17.1 0.509 -36.35 v -34.989 h -9.647 h -9.647 l -0.311 22.622 l -0.311 22.622 l -1.865 0.205 c -1.026 0.113 -2.072 0.52 -2.325 0.905 -0.253 0.385 -0.464 5.527 -0.469 11.427 -0.007 8.02 0.218 11.255 0.892 12.819 l 0.902 2.092 h -3.458 c -3.082 0 -3.4 -0.115 -2.925 -1.056 0.293 -0.581 0.533 -6.618 0.533 -13.416 v -12.36 l -1.867 -0.314 l -1.867 -0.314 l -0.33 -22.616 c -0.182 -12.439 -0.392 -22.693 -0.467 -22.786 -0.075 -0.093 -3.428 -0.093 -7.45 0 l -7.313 0.17 l -0.311 22.622 l -0.311 22.622 l -2.023 0.189 l -2.023 0.189 v 12.594 c 0 7.746 0.24 12.738 0.622 12.967 1.5 0.898 0.368 1.508 -2.801 1.508 -3.168 0 -4.301 -0.61 -2.801 -1.508 0.383 -0.229 0.622 -5.222 0.622 -12.967 v -12.594 l -2.023 -0.189 l -2.023 -0.189 l -0.311 -22.622 l -0.311 -22.622 l -7.313 -0.17 c -4.02 -0.093 -7.375 -0.093 -7.45 0 -0.075 0.093 -0.285 10.347 -0.467 22.786 l -0.33 22.616 l -1.867 0.314 l -1.867 0.314 v 12.36 c 0 6.798 0.24 12.835 0.533 13.416 0.475 0.941 0.157 1.056 -2.925 1.056 h -3.458 l 0.902 -2.092 c 0.674 -1.564 0.899 -4.799 0.892 -12.819 -0.005 -5.9 -0.216 -11.04 -0.469 -11.427 -0.253 -0.385 -1.299 -0.792 -2.325 -0.905 l -1.865 -0.205 l -0.311 -22.622 l -0.311 -22.622 l -7.313 -0.17 l -7.313 -0.17 v 35.576 c 0 23.07 0.219 35.707 0.622 35.948 1.782 1.068 0.008 1.508 -6.069 1.506 -5.538 -0.002 -7.03 -0.205 -8.684 -1.18 z m 36.853 -82.58 c 6.501 -2.981 10.277 -8.425 10.735 -15.477 0.36 -5.538 -1.322 -10.04 -5.196 -13.899 -4.084 -4.073 -7.491 -5.392 -13.947 -5.399 -4.707 -0.005 -5.658 0.191 -8.624 1.784 -6.604 3.545 -10.05 9.136 -10.05 16.308 0 5.567 1.502 9.09 5.559 13.02 4.125 4 7.303 5.264 13.425 5.33 3.56 0.038 5.04 -0.267 8.097 -1.668 z m -13.14 -11.797 c -1.762 -1.708 -2.116 -2.493 -2.116 -4.692 0 -3.02 1.151 -4.932 3.741 -6.231 6.354 -3.185 12.93 3.189 9.644 9.347 -1.339 2.511 -3.317 3.626 -6.428 3.626 -2.269 0 -3.079 -0.343 -4.841 -2.051 z m 90 2.051 v -6.636 h -4.357 h -4.357 v 6.636 v 6.636 h 4.357 h 4.357 v -6.636 z" style="fill:#930000"/><path d="m 63.09 990.99 c -4.15 -2.452 -3.92 1.202 -3.92 -62.46 0 -63.66 -0.229 -60.01 3.92 -62.46 1.941 -1.147 3.599 -1.178 64.11 -1.18 68.58 -0.002 64.52 -0.232 67.06 3.797 1.183 1.88 1.215 3.467 1.215 59.844 0 56.38 -0.032 57.964 -1.215 59.844 -1.732 2.753 -4.227 3.8 -9.06 3.8 -4.01 0 -4.105 -0.037 -3.61 -1.357 0.28 -0.747 0.509 -17.1 0.509 -36.35 v -34.989 h -9.647 h -9.647 l -0.311 22.622 l -0.311 22.622 l -1.865 0.205 c -1.026 0.113 -2.072 0.52 -2.325 0.905 -0.253 0.385 -0.464 5.527 -0.469 11.427 -0.007 8.02 0.218 11.255 0.892 12.819 l 0.902 2.092 h -3.458 c -3.082 0 -3.4 -0.115 -2.925 -1.056 0.293 -0.581 0.533 -6.618 0.533 -13.416 v -12.36 l -1.867 -0.314 l -1.867 -0.314 l -0.33 -22.616 c -0.182 -12.439 -0.392 -22.693 -0.467 -22.786 -0.075 -0.093 -3.428 -0.093 -7.45 0 l -7.313 0.17 l -0.311 22.622 l -0.311 22.622 l -2.023 0.189 l -2.023 0.189 v 12.594 c 0 7.746 0.24 12.738 0.622 12.967 1.5 0.898 0.368 1.508 -2.801 1.508 -3.168 0 -4.301 -0.61 -2.801 -1.508 0.383 -0.229 0.622 -5.222 0.622 -12.967 v -12.594 l -2.023 -0.189 l -2.023 -0.189 l -0.311 -22.622 l -0.311 -22.622 l -7.313 -0.17 c -4.02 -0.093 -7.375 -0.093 -7.45 0 -0.075 0.093 -0.285 10.347 -0.467 22.786 l -0.33 22.616 l -1.867 0.314 l -1.867 0.314 v 12.36 c 0 6.798 0.24 12.835 0.533 13.416 0.475 0.941 0.157 1.056 -2.925 1.056 h -3.458 l 0.902 -2.092 c 0.674 -1.564 0.899 -4.799 0.892 -12.819 -0.005 -5.9 -0.216 -11.04 -0.469 -11.427 -0.253 -0.385 -1.299 -0.792 -2.325 -0.905 l -1.865 -0.205 l -0.311 -22.622 l -0.311 -22.622 l -7.313 -0.17 l -7.313 -0.17 v 35.576 c 0 23.07 0.219 35.707 0.622 35.948 1.782 1.068 0.008 1.508 -6.069 1.506 -5.538 -0.002 -7.03 -0.205 -8.684 -1.18 z m 36.853 -82.58 c 6.501 -2.981 10.277 -8.425 10.735 -15.477 0.36 -5.538 -1.322 -10.04 -5.196 -13.899 -4.084 -4.073 -7.491 -5.392 -13.947 -5.399 -4.707 -0.005 -5.658 0.191 -8.624 1.784 -6.604 3.545 -10.05 9.136 -10.05 16.308 0 5.567 1.502 9.09 5.559 13.02 4.125 4 7.303 5.264 13.425 5.33 3.56 0.038 5.04 -0.267 8.097 -1.668 z m -13.14 -11.797 c -1.762 -1.708 -2.116 -2.493 -2.116 -4.692 0 -3.02 1.151 -4.932 3.741 -6.231 6.354 -3.185 12.93 3.189 9.644 9.347 -1.339 2.511 -3.317 3.626 -6.428 3.626 -2.269 0 -3.079 -0.343 -4.841 -2.051 z m 71.02 2.051 v -6.334 h -4.357 h -4.357 l -0.18 5.686 c -0.099 3.127 -0.033 6.06 0.147 6.513 0.243 0.614 1.414 0.781 4.537 0.649 l 4.21 -0.179 v -6.334 z m 18.984 0 v -6.636 h -4.357 h -4.357 v 6.636 v 6.636 h 4.357 h 4.357 v -6.636 z" style="fill:#b30000"/><path d="m 63.09 990.99 c -4.15 -2.452 -3.92 1.202 -3.92 -62.46 0 -63.66 -0.229 -60.01 3.92 -62.46 1.941 -1.147 3.599 -1.178 64.11 -1.18 68.58 -0.002 64.52 -0.232 67.06 3.797 1.183 1.88 1.215 3.467 1.215 59.844 0 56.38 -0.032 57.964 -1.215 59.844 -1.732 2.753 -4.227 3.8 -9.06 3.8 -4.01 0 -4.105 -0.037 -3.61 -1.357 0.28 -0.747 0.509 -17.1 0.509 -36.35 v -34.989 h -9.647 h -9.647 l -0.311 22.622 l -0.311 22.622 l -1.865 0.205 c -1.026 0.113 -2.072 0.52 -2.325 0.905 -0.253 0.385 -0.464 5.527 -0.469 11.427 -0.007 8.02 0.218 11.255 0.892 12.819 l 0.902 2.092 h -3.458 c -3.082 0 -3.4 -0.115 -2.925 -1.056 0.293 -0.581 0.533 -6.618 0.533 -13.416 v -12.36 l -1.867 -0.314 l -1.867 -0.314 l -0.33 -22.616 c -0.182 -12.439 -0.392 -22.693 -0.467 -22.786 -0.075 -0.093 -3.428 -0.093 -7.45 0 l -7.313 0.17 l -0.311 22.622 l -0.311 22.622 l -2.023 0.189 l -2.023 0.189 v 12.594 c 0 7.746 0.24 12.738 0.622 12.967 1.5 0.898 0.368 1.508 -2.801 1.508 -3.168 0 -4.301 -0.61 -2.801 -1.508 0.383 -0.229 0.622 -5.222 0.622 -12.967 v -12.594 l -2.023 -0.189 l -2.023 -0.189 l -0.311 -22.622 l -0.311 -22.622 l -7.313 -0.17 c -4.02 -0.093 -7.375 -0.093 -7.45 0 -0.075 0.093 -0.285 10.347 -0.467 22.786 l -0.33 22.616 l -1.867 0.314 l -1.867 0.314 v 12.36 c 0 6.798 0.24 12.835 0.533 13.416 0.475 0.941 0.157 1.056 -2.925 1.056 h -3.458 l 0.902 -2.092 c 0.674 -1.564 0.899 -4.799 0.892 -12.819 -0.005 -5.9 -0.216 -11.04 -0.469 -11.427 -0.253 -0.385 -1.299 -0.792 -2.325 -0.905 l -1.865 -0.205 l -0.311 -22.622 l -0.311 -22.622 l -7.313 -0.17 l -7.313 -0.17 v 35.576 c 0 23.07 0.219 35.707 0.622 35.948 1.782 1.068 0.008 1.508 -6.069 1.506 -5.538 -0.002 -7.03 -0.205 -8.684 -1.18 z m 36.853 -82.58 c 6.501 -2.981 10.277 -8.425 10.735 -15.477 0.36 -5.538 -1.322 -10.04 -5.196 -13.899 -4.084 -4.073 -7.491 -5.392 -13.947 -5.399 -4.707 -0.005 -5.658 0.191 -8.624 1.784 -6.604 3.545 -10.05 9.136 -10.05 16.308 0 5.567 1.502 9.09 5.559 13.02 4.125 4 7.303 5.264 13.425 5.33 3.56 0.038 5.04 -0.267 8.097 -1.668 z m -13.14 -11.797 c -1.762 -1.708 -2.116 -2.493 -2.116 -4.692 0 -3.02 1.151 -4.932 3.741 -6.231 6.354 -3.185 12.93 3.189 9.644 9.347 -1.339 2.511 -3.317 3.626 -6.428 3.626 -2.269 0 -3.079 -0.343 -4.841 -2.051 z m 52.34 2.051 v -6.334 h -4.668 h -4.668 l -0.18 5.686 c -0.099 3.127 -0.033 6.06 0.147 6.512 0.245 0.618 1.465 0.781 4.848 0.649 l 4.521 -0.177 v -6.334 z m 18.672 0 v -6.334 h -4.357 h -4.357 l -0.18 5.686 c -0.099 3.127 -0.033 6.06 0.147 6.513 0.243 0.614 1.414 0.781 4.537 0.649 l 4.21 -0.179 v -6.334 z m 18.984 0 v -6.636 h -4.357 h -4.357 v 6.636 v 6.636 h 4.357 h 4.357 v -6.636 z" style="fill:#590000"/><path d="m 62.21 989.22 l -2.416 -2.342 v -58.36 v -58.36 l 2.416 -2.342 l 2.416 -2.342 h 62.699 h 62.699 l 2.416 2.342 l 2.416 2.342 v 58.36 v 58.36 l -2.416 2.342 c -2.323 2.251 -2.577 2.342 -6.557 2.342 -3.901 0 -4.103 -0.068 -3.496 -1.167 0.423 -0.766 0.644 -13.208 0.644 -36.21 v -35.04 l -1.597 -0.588 c -2.073 -0.764 -15.896 -0.764 -17.969 0 l -1.597 0.588 v 22.268 v 22.268 l -2.118 0.385 c -1.165 0.212 -2.285 0.807 -2.49 1.323 -0.62 1.565 -0.415 22.97 0.236 24.628 0.574 1.463 0.497 1.547 -1.4 1.548 h -2.01 v -13.399 v -13.399 l -2.023 -0.563 l -2.023 -0.563 l -0.01 -21.781 c -0.006 -12.65 -0.257 -22.16 -0.599 -22.686 -0.733 -1.125 -11.87 -1.637 -14.485 -0.666 l -1.712 0.636 v 22.268 v 22.268 l -2.11 0.384 c -1.469 0.267 -2.223 0.792 -2.481 1.726 -0.599 2.165 -0.442 21.678 0.191 23.818 0.571 1.93 0.55 1.957 -1.513 1.957 -2.063 0 -2.084 -0.027 -1.513 -1.957 0.633 -2.14 0.789 -21.653 0.191 -23.818 -0.258 -0.935 -1.012 -1.459 -2.481 -1.726 l -2.11 -0.384 v -22.268 v -22.268 l -1.712 -0.636 c -2.615 -0.971 -13.752 -0.46 -14.485 0.666 -0.342 0.526 -0.593 10.04 -0.599 22.686 l -0.01 21.781 l -2.023 0.563 l -2.023 0.563 v 13.399 v 13.399 h -2.01 c -1.898 0 -1.974 -0.085 -1.4 -1.548 0.65 -1.658 0.855 -23.06 0.236 -24.628 -0.204 -0.516 -1.325 -1.111 -2.49 -1.323 l -2.118 -0.385 v -22.268 v -22.268 l -1.712 -0.636 c -1.937 -0.72 -13.472 -0.507 -14.265 0.263 -0.634 0.616 -0.697 68.09 -0.066 70.832 l 0.451 1.961 h -6.282 h -6.282 l -2.416 -2.342 z m 37.752 -79.935 c 8.392 -3.724 12.818 -11.747 11.38 -20.633 -1.563 -9.659 -9.453 -15.932 -20.04 -15.932 -3.828 0 -5.149 0.292 -8.367 1.851 -4.187 2.028 -7.371 5.21 -9.532 9.529 -1.931 3.858 -1.987 11.235 -0.115 15.237 2.588 5.533 8.372 10.239 13.984 11.375 3.85 0.78 9.03 0.197 12.691 -1.428 z m -12.533 -13.279 c -2.678 -2.595 -2.868 -5.436 -0.543 -8.114 3.093 -3.563 8.795 -2.78 10.622 1.458 1.229 2.851 0.658 5.253 -1.707 7.182 -2.763 2.253 -5.694 2.069 -8.371 -0.527 z m 70.34 10.13 c 0.821 -0.305 0.985 -1.549 0.985 -7.476 0 -8.07 0.157 -7.842 -5.29 -7.842 -5.448 0 -5.29 -0.234 -5.29 7.857 0 5.135 0.217 7.209 0.778 7.428 1.125 0.44 7.659 0.465 8.818 0.033 z m 19.532 -0.358 c 0.487 -0.472 0.747 -2.949 0.747 -7.118 0 -4.169 -0.26 -6.646 -0.747 -7.118 -0.984 -0.953 -8.726 -0.953 -9.71 0 -0.487 0.472 -0.747 2.949 -0.747 7.118 0 4.169 0.26 6.646 0.747 7.118 0.43 0.417 2.49 0.724 4.855 0.724 2.365 0 4.425 -0.307 4.855 -0.724 z m -37.598 -0.834 c 0.208 -0.525 0.378 -3.353 0.378 -6.285 0 -2.932 -0.17 -5.76 -0.378 -6.285 -0.552 -1.395 -9.895 -1.395 -10.448 0 -0.491 1.24 -0.491 11.329 0 12.57 0.552 1.395 9.895 1.395 10.448 0 z m 9.336 -18.1 c 0.609 -1.538 0.436 -3.574 -0.369 -4.354 -0.508 -0.493 -3.476 -0.724 -9.292 -0.724 -9.202 0 -10.501 0.401 -10.501 3.24 0 2.534 0.984 2.792 10.639 2.792 7.765 0 9.202 -0.144 9.523 -0.954 z m 28.26 0.23 c 1.047 -1.015 0.93 -3.236 -0.231 -4.361 -1.451 -1.406 -22.11 -1.406 -23.563 0 -1.161 1.125 -1.279 3.346 -0.231 4.361 1.052 1.019 22.973 1.019 24.03 0 z" style="fill:#ff4500"/></g></g></svg>