<svg xmlns="http://www.w3.org/2000/svg" viewBox="0 0 256 256"><g transform="translate(0 -796.36)"><path d="m -1067.28 1935.73 c 48.956 88.52 202.34 54.16 228.29 -18.719 30.922 -86.82 -49.563 -251.7 -185.88 -155.11 -45.916 33.728 -91.37 85.31 -42.41 173.83 z" transform="translate(1088.39 -936.13)" style="fill:#fff;color:#000"/><g transform="matrix(9.91969 0 0 9.72352 445.72 -2997.07)" style="fill:#ffa07a"><path d="m -37.555 398.97 h 11.853 v 8.184 h -11.853 z" style="fill:#ff4500"/><path d="m -28.806 410.26 l 3.104 -3.104 h -3.104 z"/><g transform="matrix(1.248 0 0 1.36173 8 -145.46)" style="fill:#ffe4e1"><path d="m -33.939 402.87 c 0 0.265 -0.059 0.47 -0.176 0.617 -0.118 0.118 -0.294 0.176 -0.529 0.176 -0.235 0 -0.412 -0.059 -0.529 -0.176 -0.118 -0.147 -0.176 -0.353 -0.176 -0.617 0 -0.265 0.059 -0.456 0.176 -0.573 0.118 -0.118 0.294 -0.176 0.529 -0.176 0.235 0 0.412 0.059 0.529 0.176 0.118 0.118 0.176 0.309 0.176 0.573"/><path d="m -30.896 402.87 c 0 0.265 -0.059 0.47 -0.176 0.617 -0.118 0.118 -0.294 0.176 -0.529 0.176 -0.235 0 -0.412 -0.059 -0.529 -0.176 -0.118 -0.147 -0.176 -0.353 -0.176 -0.617 0 -0.265 0.059 -0.456 0.176 -0.573 0.118 -0.118 0.294 -0.176 0.529 -0.176 0.235 0 0.412 0.059 0.529 0.176 0.118 0.118 0.176 0.309 0.176 0.573"/><path d="m -27.853 402.87 c 0 0.265 -0.059 0.47 -0.176 0.617 -0.118 0.118 -0.294 0.176 -0.529 0.176 -0.235 0 -0.412 -0.059 -0.529 -0.176 -0.118 -0.147 -0.176 -0.353 -0.176 -0.617 0 -0.265 0.059 -0.456 0.176 -0.573 0.118 -0.118 0.294 -0.176 0.529 -0.176 0.235 0 0.412 0.059 0.529 0.176 0.118 0.118 0.176 0.309 0.176 0.573"/></g></g></g></svg>