<svg xmlns="http://www.w3.org/2000/svg" viewBox="0 0 256 256" xmlns:xlink="http://www.w3.org/1999/xlink"><defs><path id="0" d="m 23 9 v 9 h 9 v -9 h -9 z" style="fill-rule:evenodd"/></defs><g transform="translate(0 -796.36)"><path d="m 3.74 950.97 c 19.829 131.87 217.21 135.83 247.04 7.636 30.702 -103.78 -80.47 -188.63 -163.63 -154.63 -55.684 16.07 -100.67 81.83 -83.41 146.99 z" style="fill:#fff;color:#000"/><g transform="matrix(3.64368 0 0 3.38506 40.14 844.11)" style="fill:#ff4500"><path d="M 4,4 H44 V44 H4 z"/><path d="m 4 4 c 20 1 20 1 40 0 z" style="opacity:0.75"/><use transform="translate(-3)" xlink:href="#0" style="fill:#ffa07a"/><use transform="translate(-3 10)" xlink:href="#0" style="fill:#dc143c"/><use transform="translate(7 20)" xlink:href="#0" style="fill:#ffa07a"/><g style="fill:#ffdead"><path d="M 9,18 H39 V19 H9 z"/><path d="M 9,28 H39 V29 H9 z"/><path d="M 19,9 H20 V38 H19 z"/><path d="M 29,9 H30 V38 H29 z"/></g></g></g></svg>