<svg xmlns="http://www.w3.org/2000/svg" viewBox="0 0 256 256"><g transform="translate(0 -796.36)"><path d="m 53.42 811.44 c 381.34 -111.21 138.25 438.25 -32.359 162.63 c -31.19 -50.643 -33.36 -136.61 32.359 -162.63 z" style="fill:#fff;color:#fff"/><g transform="matrix(0.50522 0 0 0.4753 -1.336 802.69)"><path d="m 481 255.99 c 0 124.26 -100.74 224.99 -225 224.99 -124.27 0 -225 -100.74 -225 -224.99 0 -124.26 100.74 -224.99 225 -224.99 124.27 0 225 100.74 225 224.99" style="fill:#fff;fill-rule:evenodd"/><path d="m 258.65 74.27 c -24.71 0.58 -49.34 1.322 -50.818 31.574 -26.6 74.09 -52.709 148.33 -79.43 222.36 4.904 3.104 7.176 7.785 12.08 10.889 3.03 3.84 6.219 7.491 10.6 10.6 2.492 4.313 7.764 7.12 10.247 11.435 4.942 3.127 7.151 7.766 12.08 10.889 2.532 4.334 7.751 7.122 10.279 11.466 4.904 3.104 7.176 7.785 12.08 10.889 2.529 4.34 7.742 7.112 10.279 11.466 4.932 3.114 7.142 7.756 12.08 10.889 3.126 6.955 -9.649 23.07 -0.771 26.306 3.573 2.278 6.275 5.056 8.254 8.253 5.04 3.02 7.06 7.763 12.11 10.792 2.42 4.446 7.816 7.114 10.247 11.563 3.341 2.01 5.401 4.811 7.902 7.355 0.043 0 0.085 0 0.128 0 113.94 0 208.09 -84.71 222.95 -194.58 -25.07 -25.13 -49.999 -50.4 -74.72 -75.899 -10.853 -9.394 -19.08 -25.01 -35.27 -24.925 -3.144 -4.07 -7.956 -6.732 -10.34 -11.368 -5.299 -2.51 -6.921 -7.899 -12.238 -10.407 -2.116 -4.942 -7.962 -6.988 -10.09 -11.917 -5.305 -2.54 -6.956 -7.891 -12.238 -10.439 -2.171 -4.904 -7.967 -6.999 -10.118 -11.917 -5.295 -2.536 -6.958 -7.883 -12.238 -10.439 -2.165 -4.905 -7.962 -6.987 -10.118 -11.917 -5.305 -2.509 -6.921 -7.906 -12.238 -10.407 -2.124 -4.943 -7.961 -6.993 -10.09 -11.917 -4.285 -2.748 -8.07 -6.507 -10.6 -10.6" style="fill:#ffdead;fill-opacity:0.235"/><text x="705.74" y="231.21" transform="scale(1 0.99998)" line-height="125%" style="letter-spacing:0;word-spacing:0;font-size:123.07;font-family:Gentium Book Basic"><tspan x="705.74" y="231.21"/></text><text x="363.56" y="595.28" transform="scale(4.0129 0.2492)" style="font-size:44.716;font-family:Arial;text-anchor:middle"/><text x="1259.31" y="155.02" transform="scale(1 0.99998)" line-height="125%" style="letter-spacing:0;word-spacing:0;font-size:123.07;font-family:Gentium Book Basic"><tspan x="1259.31" y="155.02"/></text><text x="501.51" y="289.55" transform="scale(4.0129 0.2492)" style="font-size:44.716;font-family:Arial;text-anchor:middle"/><text x="238.8" y="-17.6" transform="scale(1 0.99998)" line-height="125%" style="letter-spacing:0;word-spacing:0;font-size:123.07;font-family:Gentium Book Basic"><tspan x="238.8" y="-17.6"/></text><text x="247.19" y="-403.14" transform="scale(4.0129 0.2492)" style="font-size:44.716;font-family:Arial;text-anchor:middle"/><text x="1284.52" y="-223.75" transform="scale(1 0.99998)" line-height="125%" style="letter-spacing:0;word-spacing:0;font-size:123.07;font-family:Gentium Book Basic"><tspan x="1284.52" y="-223.75"/></text><text x="507.79" y="-1230.4" transform="scale(4.0129 0.2492)" style="font-size:44.716;font-family:Arial;text-anchor:middle"/><text x="1838.08" y="-299.95" transform="scale(1 0.99998)" line-height="125%" style="letter-spacing:0;word-spacing:0;font-size:123.07;font-family:Gentium Book Basic"><tspan x="1838.08" y="-299.95"/></text><text x="645.74" y="-1536.14" transform="scale(4.0129 0.2492)" style="font-size:44.716;font-family:Arial;text-anchor:middle"/><text x="1467.51" y="-749.83" transform="scale(1 0.99998)" line-height="125%" style="letter-spacing:0;word-spacing:0;font-size:123.07;font-family:Gentium Book Basic"><tspan x="1467.51" y="-749.83"/></text><text x="553.39" y="-3341.44" transform="scale(4.0129 0.2492)" style="font-size:44.716;font-family:Arial;text-anchor:middle"/><text x="2021.06" y="-826.02" transform="scale(1 0.99998)" line-height="125%" style="letter-spacing:0;word-spacing:0;font-size:123.07;font-family:Gentium Book Basic"><tspan x="2021.06" y="-826.02"/></text><text x="691.33" y="-3647.17" transform="scale(4.0129 0.2492)" style="font-size:44.716;font-family:Arial;text-anchor:middle"/><text x="275.61" y="521.27" transform="scale(1 0.99998)" line-height="125%" style="letter-spacing:0;word-spacing:0;font-size:198.4;font-family:Gentium Book Basic"><tspan x="275.61" y="521.27"/></text><path d="m 217.66 78.55 c -30.03 83.16 -59.24 166.49 -89.26 249.67 1.916 0.582 3.813 0.365 5.782 0.385 10.943 -0.052 21.917 0.043 32.86 0 1.49 -0.01 1.302 -2.133 1.927 -3.083 13.186 -37.18 26.601 -74.17 39.83 -111.32 0.794 -2.304 1.639 -4.751 2.698 -6.938 6.858 0.116 13.636 -0.106 20.494 0 -14.382 40.28 -28.705 80.76 -43.29 120.97 1.524 0.613 3.03 0.353 4.625 0.385 11.494 -0.107 22.908 0.158 34.402 0 12.985 -36.598 26.426 -73.17 39.45 -109.75 2.782 -7.483 2.881 -16.289 -1.542 -23.19 -3.863 -6.108 -11.185 -9.383 -18.18 -9.668 -9.567 -0.285 -19.01 0.169 -28.588 0 13.164 -37.31 26.735 -74.36 39.798 -111.71 -40.934 4.277 -32.974 3.368 -40.986 4.272 m 85.45 106.67 c -0.296 0.613 -0.477 2.096 -0.771 2.698 -29.781 83.53 -59.781 166.95 -89.68 250.44 37.745 5.475 10.527 1.715 37.871 5.428 13.05 -36.662 26.28 -73.15 39.45 -109.78 14.328 -0.264 28.553 -0.121 42.882 -0.385 9.145 -0.318 18.258 -5.802 21.265 -14.678 12.12 -34.07 24.21 -67.824 35.943 -102.04 1.926 -5.17 3.076 -10.81 1.542 -16.22 -2.076 -6.859 -8.315 -12.09 -15.06 -13.908 -5.863 -1.818 -11.73 -1.05 -17.763 -1.156 -18.394 -0.053 -37.28 -0.206 -55.669 -0.385 m 33.695 21.521 c 0.869 -0.009 1.776 0.221 2.634 0.097 5.313 0.096 10.522 -0.116 15.835 0 -12.376 35.26 -24.926 70.59 -37.1 105.93 -6.878 0.486 -13.989 0.042 -20.879 0 12.562 -35.04 24.926 -70.09 37.485 -105.13 0.285 -0.323 0.812 -0.692 1.188 -0.803 0.282 -0.083 0.546 -0.094 0.836 -0.097" style="fill:#ff4500"/></g></g></svg>