<svg xmlns="http://www.w3.org/2000/svg" viewBox="0 0 256 256"><path d="m 229.63 992.2 c 92.05 -130.93 -77.948 -263.6 -186.39 -156.91 -102.17 100.51 -7.449 256.68 119.69 207.86 c 26.526 -10.185 49.802 -26.914 66.7 -50.948 z" transform="translate(0 -796.36)" style="fill:#fff;color:#000"/><g transform="matrix(4.769625 0 0 4.8803592 10.070814 10.607023)" style="fill:#ff4500"><path d="m 30 12 a 8 8 0 0 0 -8 8 8 8 0 0 0 8 8 8 8 0 0 0 8 -8 8 8 0 0 0 -8 -8 z m -8.988 8.295 A 7 7 0 0 0 16 27 a 7 7 0 0 0 7 7 7 7 0 0 0 6.709 -5.01 9 9 0 0 1 -8.697 -8.691 z m -5.893 8.08 A 5 5 0 0 0 12 33 a 5 5 0 0 0 5 5 5 5 0 0 0 4.633 -3.127 8 8 0 0 1 -6.514 -6.502 z" style="opacity:0.1"/><path d="M 14.12 27.371 A 5 5 0 0 0 11 32 a 5 5 0 0 0 5 5 5 5 0 0 0 4.633 -3.127 8 8 0 0 1 -6.513 -6.502 z"/><path d="M 20.01 19.295 A 7 7 0 0 0 15 26 a 7 7 0 0 0 7 7 7 7 0 0 0 6.709 -5.014 9 9 0 0 1 -8.699 -8.691 z"/><circle r="8" cy="19" cx="29"/></g></svg>