<svg xmlns="http://www.w3.org/2000/svg" viewBox="0 0 256 256"><g transform="translate(0 -796.36)"><path d="m 2.967 952.88 c 15.875 104.05 156.87 131.89 219.1 57.62 54.798 -55.17 41.16 -160.78 -26.05 -196.99 -77.21 -48.44 -189.69 11.446 -195.83 107.88 c -0.632 10.565 0.26 21.245 2.771 31.493 z" style="fill:#fff;color:#000"/><path d="m 94.05 124.6 v -62.35 h 7.413 h 7.413 v 24.419 c 0 24.22 0.005 24.419 0.581 24.419 0.323 0 0.581 -0.194 0.581 -0.436 0 -0.242 0.258 -0.436 0.581 -0.436 0.388 0 0.581 -0.194 0.581 -0.581 0 -0.323 0.194 -0.581 0.436 -0.581 0.305 0 0.436 -0.307 0.436 -1.017 0 -0.711 0.132 -1.017 0.436 -1.017 0.24 0 0.436 -0.196 0.436 -0.436 0 -0.242 0.258 -0.436 0.581 -0.436 0.388 0 0.581 -0.194 0.581 -0.581 0 -0.323 0.194 -0.581 0.436 -0.581 0.24 0 0.436 -0.196 0.436 -0.436 0 -0.242 0.258 -0.436 0.581 -0.436 0.323 0 0.581 -0.194 0.581 -0.436 0 -0.24 0.196 -0.436 0.436 -0.436 0.242 0 0.436 -0.258 0.436 -0.581 0 -0.471 0.194 -0.581 1.017 -0.581 0.711 0 1.017 -0.132 1.017 -0.436 0 -0.242 0.258 -0.436 0.581 -0.436 0.388 0 0.581 -0.194 0.581 -0.581 0 -0.452 0.194 -0.581 0.872 -0.581 0.581 0 0.872 -0.145 0.872 -0.436 0 -0.305 0.307 -0.436 1.017 -0.436 0.824 0 1.017 -0.111 1.017 -0.581 0 -0.471 0.194 -0.581 1.017 -0.581 0.711 0 1.017 -0.132 1.017 -0.436 0 -0.343 0.402 -0.436 1.875 -0.436 1.314 0 1.945 -0.123 2.108 -0.411 0.243 -0.43 3.382 -0.55 12.805 -0.488 3.476 0.023 4.142 0.097 4.142 0.463 0 0.346 0.42 0.436 2.035 0.436 1.615 0 2.035 0.09 2.035 0.436 0 0.305 0.307 0.436 1.017 0.436 0.824 0 1.017 0.111 1.017 0.581 0 0.452 0.194 0.581 0.872 0.581 0.581 0 0.872 0.145 0.872 0.436 0 0.305 0.307 0.436 1.017 0.436 0.824 0 1.017 0.111 1.017 0.581 0 0.388 0.194 0.581 0.581 0.581 0.323 0 0.581 0.194 0.581 0.436 0 0.24 0.196 0.436 0.436 0.436 0.242 0 0.436 0.258 0.436 0.581 0 0.388 0.194 0.581 0.581 0.581 0.323 0 0.581 0.194 0.581 0.436 0 0.24 0.196 0.436 0.436 0.436 0.24 0 0.436 0.196 0.436 0.436 0 0.24 0.196 0.436 0.436 0.436 0.242 0 0.436 0.258 0.436 0.581 0 0.388 0.194 0.581 0.581 0.581 0.471 0 0.581 0.194 0.581 1.017 0 0.711 0.132 1.017 0.436 1.017 0.24 0 0.436 0.196 0.436 0.436 0 0.242 0.258 0.436 0.581 0.436 0.471 0 0.581 0.194 0.581 1.017 0 0.711 0.132 1.017 0.436 1.017 0.329 0 0.436 0.355 0.436 1.453 0 1.26 0.077 1.453 0.581 1.453 0.511 0 0.581 0.194 0.581 1.599 0 1.227 0.101 1.599 0.436 1.599 0.343 0 0.436 0.404 0.436 1.89 0 1.696 0.06 1.89 0.581 1.89 0.562 0 0.581 0.194 0.581 5.959 0 5.103 0.063 5.959 0.436 5.959 0.384 0 0.436 3.198 0.436 27.03 v 27.03 h -7.413 h -7.413 v -31.977 c 0 -31.783 -0.004 -31.977 -0.581 -31.977 -0.522 0 -0.581 -0.194 -0.581 -1.89 0 -1.486 -0.093 -1.89 -0.436 -1.89 -0.315 0 -0.436 -0.323 -0.436 -1.163 0 -0.84 -0.121 -1.163 -0.436 -1.163 -0.294 0 -0.436 -0.294 -0.436 -0.899 0 -0.655 -0.158 -0.941 -0.581 -1.051 -0.32 -0.084 -0.581 -0.333 -0.581 -0.554 0 -0.221 -0.196 -0.402 -0.436 -0.402 -0.242 0 -0.436 -0.258 -0.436 -0.581 0 -0.388 -0.194 -0.581 -0.581 -0.581 -0.323 0 -0.581 -0.194 -0.581 -0.436 0 -0.24 -0.196 -0.436 -0.436 -0.436 -0.24 0 -0.436 -0.196 -0.436 -0.436 0 -0.242 -0.258 -0.436 -0.581 -0.436 -0.388 0 -0.581 -0.194 -0.581 -0.581 0 -0.452 -0.194 -0.581 -0.872 -0.581 -0.581 0 -0.872 -0.145 -0.872 -0.436 0 -0.335 -0.371 -0.436 -1.599 -0.436 -1.405 0 -1.599 -0.07 -1.599 -0.581 0 -0.566 -0.194 -0.581 -7.558 -0.581 -7.364 0 -7.558 0.015 -7.558 0.581 0 0.504 -0.194 0.581 -1.453 0.581 -1.098 0 -1.453 0.107 -1.453 0.436 0 0.281 -0.284 0.437 -0.799 0.44 -1.245 0.006 -2.108 0.316 -2.108 0.757 0 0.221 -0.262 0.402 -0.581 0.402 -0.32 0 -0.581 0.186 -0.581 0.413 0 0.227 -0.392 0.499 -0.872 0.605 -0.48 0.105 -0.872 0.312 -0.872 0.459 0 0.147 -0.262 0.268 -0.581 0.268 -0.388 0 -0.581 0.194 -0.581 0.581 0 0.388 -0.194 0.581 -0.581 0.581 -0.323 0 -0.581 0.194 -0.581 0.436 0 0.24 -0.196 0.436 -0.436 0.436 -0.242 0 -0.436 0.258 -0.436 0.581 0 0.388 -0.194 0.581 -0.581 0.581 -0.471 0 -0.581 0.194 -0.581 1.017 0 0.711 -0.132 1.017 -0.436 1.017 -0.24 0 -0.436 0.196 -0.436 0.436 0 0.24 -0.196 0.436 -0.436 0.436 -0.305 0 -0.436 0.307 -0.436 1.017 0 0.824 -0.111 1.017 -0.581 1.017 -0.504 0 -0.581 0.194 -0.581 1.453 0 1.098 -0.107 1.453 -0.436 1.453 -0.335 0 -0.436 0.371 -0.436 1.599 0 1.405 -0.07 1.599 -0.581 1.599 -0.578 0 -0.581 0.194 -0.581 29.942 v 29.942 h -7.413 h -7.413 v -62.35 z" transform="translate(0 796.36)" style="fill:#ff4500;opacity:0.99;fill-rule:evenodd"/></g></svg>