<svg xmlns="http://www.w3.org/2000/svg" viewBox="0 0 256 256" xmlns:xlink="http://www.w3.org/1999/xlink"><defs><clipPath id="7"><path d="m 18.275 493.69 h 475.39 v -475.44 h -475.39 v 475.44 z"/></clipPath><clipPath id="2"><path d="m 448.99 63.03 c -59.697 -59.697 -326.18 -59.697 -385.88 0 -59.697 59.697 -59.697 326.28 -0.1 385.98 c 59.6 59.696 326.28 59.6 385.98 0 59.697 -59.6 59.6 -326.28 0 -385.98"/></clipPath><clipPath id="8"><path d="m 63.01 63.03 c 59.697 -59.697 326.18 -59.697 385.88 0 59.697 59.697 59.697 326.18 0 385.88 -59.697 59.696 -326.18 59.696 -385.88 0.1 -59.697 -59.6 -59.6 -326.28 0 -385.98"/></clipPath><clipPath id="1"><path d="m 18.325 493.74 h 475.4 v -475.49 h -475.4 v 475.49 z"/></clipPath><clipPath id="0"><path d="m 0 512 h 512 v -512 h -512 v 512"/></clipPath><mask id="6" height="1" width="1" y="0" x="0" maskUnits="userSpaceOnUse"><path d="m -32768 32767 h 65535 v -65535 h -65535 v 65535 z" style="fill:url(#5)"/></mask><mask id="A" height="1" width="1" y="0" x="0" maskUnits="userSpaceOnUse"><path d="m -32768 32767 h 65535 v -65535 h -65535 v 65535 z" style="fill:url(#9)"/></mask><mask id="4" height="1" width="1" y="0" x="0" maskUnits="userSpaceOnUse"><path d="m -32768 32767 h 65535 v -65535 h -65535 v 65535 z" style="fill:url(#3)"/></mask><radialGradient id="5" gradientTransform="matrix(188.2547 188.3612 -130.3588 130.279 256.02 256.04)" gradientUnits="userSpaceOnUse" r="1" cy="0" cx="0" xlink:href="#3"/><radialGradient id="9" gradientTransform="matrix(-188.2877 188.3942 130.3817 130.3018 255.92 255.99)" gradientUnits="userSpaceOnUse" r="1" cy="0" cx="0" xlink:href="#3"/><radialGradient id="3" gradientUnits="userSpaceOnUse" r="237.72" cy="256" cx="256.02"><stop style="stop-color:#fff"/><stop offset="0.859" style="stop-color:#fff;stop-opacity:0.141"/><stop offset="1" style="stop-color:#fff;stop-opacity:0"/></radialGradient></defs><g transform="matrix(1 0 0 0.99573 0.097 -0.057)"><path d="m 226.22 46.721 c 62.27 95.76 12.03 183 -58.47 203.69 -94.83 27.843 -223.59 -45.32 -138.75 -196.1 c 33.72 -59.925 152.85 -75.79 197.21 -7.587 z" style="fill:#fff;color:#000"/><g transform="matrix(0.39215 0 0 -0.3215 27.609 211.93)" style="fill:#ff4500"><g style="clip-path:url(#0)"><g style="clip-path:url(#1);opacity:0.4"><g style="clip-path:url(#2)"><g style="mask:url(#4)"><path d="m 448.99 63.03 c -59.697 -59.697 -326.18 -59.697 -385.88 0 -59.697 59.697 -59.697 326.28 -0.1 385.98 c 59.6 59.696 326.28 59.6 385.98 0 59.697 -59.6 59.6 -326.28 0 -385.98" id="B"/></g></g></g><g style="clip-path:url(#1);opacity:0.4"><g style="clip-path:url(#2)"><g style="mask:url(#6)"><use xlink:href="#B"/></g></g></g><g style="clip-path:url(#7);opacity:0.4"><g style="clip-path:url(#8)"><g style="mask:url(#A)"><path d="m 63.01 63.03 c 59.697 -59.697 326.18 -59.697 385.88 0 59.697 59.697 59.697 326.18 0 385.88 -59.697 59.696 -326.18 59.696 -385.88 0.1 -59.697 -59.6 -59.6 -326.28 0 -385.98"/></g></g></g></g><path d="m 78.72 433.28 c -70.29 -70.29 -70.29 -284.26 0 -354.56 c 70.29 -70.29 284.26 -70.29 354.56 0 c 70.3 70.29 70.29 284.26 0 354.56 c -35.15 35.15 -106.21 52.721 -177.28 52.721 c -71.07 0 -142.13 -17.574 -177.28 -52.721"/><g transform="matrix(1.48431 0 0 1.9927 -137.81 -262.6)" style="clip-path:url(#0);fill:#ffdead"><path d="M 0,0 9.671,46.98 86.74,49.203 21.1,51.096 15.805,77.298 10.572,51.4 l -21.279,0.613 -16.623,80.759 -16.428,-79.806 -18.002,0.519 -18.992,-0.548 -16.238,63.098 -16.481,-64.041 -21.416,-0.617 -5.238,25.921 -5.3,-26.226 -64.835,-1.869 76.265,-2.199 9.675,-47.004 9.561,46.449 36.556,-1.054 16.443,-79.881 16.443,79.881 35.76,1.032 L 0,0 z" transform="translate(317.76 206.86)"/></g></g></g></svg>