<svg xmlns="http://www.w3.org/2000/svg" viewBox="0 0 256 256"><path d="m 233.2 847.09 c 128.08 194.93 -256.55 300.88 -226 63.03 23.01 -104.19 167.34 -167.42 226 -63.03 z" transform="matrix(-1 0 0 -1 259.78 1048.9)" style="fill:#fff;color:#000"/><path d="m 133.04 210.52 c -3.13 -6.489 -0.068 -15.381 6.393 -18.568 6.577 -3.243 14.785 -0.286 18.07 6.509 5.424 11.244 -4.7 22.76 -16.452 18.714 -4.232 -1.457 -6.349 -3.215 -8 -6.65 z m -33.2 -23.59 c -7.229 -3.929 -11.75 -7.855 -11.1 -9.639 0.202 -0.555 3.807 -4.057 8.01 -7.784 l 7.643 -6.777 l 12.491 4.19 c 9.371 3.143 14.1 3.976 18.925 3.333 9.186 -1.224 18.662 -6.34 25.517 -13.777 l 5.929 -6.43 l 10.754 3.703 l 10.754 3.703 l -3.056 6.066 c -3.391 6.73 -15.271 19.08 -20.15 20.941 -1.988 0.76 -6.336 0.103 -11.821 -1.786 -7.259 -2.499 -9.709 -2.643 -14.972 -0.874 -3.462 1.162 -8.577 4.482 -11.364 7.367 -4.377 4.536 -5.842 5.123 -10.735 4.301 -6.596 -1.108 -7.463 -1.444 -16.829 -6.535 z m -27.27 -30.823 c -1.907 -4.696 -3.948 -12.523 -4.536 -17.393 l -1.066 -8.86 l 5.179 -3.133 c 2.848 -1.723 6.135 -4.711 7.304 -6.642 1.169 -1.93 2.617 -4.191 3.218 -5.03 1.828 -2.536 1.744 -11.173 -0.176 -18.1 l -1.817 -6.556 l 6.231 -6.088 c 6.91 -6.75 20.947 -15.02 23.819 -14.03 1.016 0.35 2.687 5.3 3.711 11 l 1.862 10.364 l -6.758 4.539 c -16.335 10.972 -22.67 30.09 -16.17 48.814 l 2.305 6.642 l -7.957 7.137 c -4.376 3.925 -8.794 6.849 -9.818 6.497 -1.024 -0.353 -3.422 -4.483 -5.332 -9.18 z m -22.03 -39.891 c -1.425 -1.246 -3.103 -4.078 -3.729 -6.296 c -4.373 -15.48 18.674 -25.298 25.613 -10.911 7.098 14.716 -9.658 27.891 -21.884 17.207 z m 120.46 11.714 c -1.1 -11.662 -4.01 -18.324 -11.449 -26.2 -4.823 -5.113 -7.685 -6.784 -17.584 -10.269 l -11.823 -4.163 l -1.928 -9.39 c -1.06 -5.165 -1.777 -9.909 -1.592 -10.545 1.045 -3.587 22.558 -0.704 31.585 4.226 4.139 2.264 5.478 3.969 5.709 7.264 0.964 13.821 8.51 23.332 20.21 25.48 5.407 0.992 6.821 1.813 7.75 4.498 2.455 7.115 3.863 22.877 2.602 29.2 l -1.326 6.662 l -10.633 -3.661 l -10.633 -3.661 l -0.89 -9.429 z m 5.306 -38.963 c -8.138 -11.305 3.742 -26.54 17.1 -21.939 4.239 1.459 9.515 10.69 8.468 14.815 -1.712 6.743 -3.562 9.445 -7.957 11.611 -5.406 2.666 -14.06 0.459 -17.619 -4.488 z" style="fill:#ff4500"/></svg>