<svg xmlns="http://www.w3.org/2000/svg" viewBox="0 0 256 256"><g transform="translate(0 -796.36)"><path d="m 59.778 1025.68 c 95.24 84.46 241.79 -48.767 182.53 -160.27 -59.906 -112.74 -258.16 -82.69 -241.3 55.767 c 5.02 41.2 27.695 76.954 58.764 104.51 z" style="fill:#fff;color:#000"/><g transform="matrix(0.30197 0 0 0.27144 51.982 850.86)" style="fill:#ff4500"><rect y="45.559" x="43.39" height="425.22" width="425.22" rx="46.89" style="stroke:#ffdead;fill-rule:evenodd;stroke-width:28.5"/><path d="m 135.59 309.83 v -98.77 l 16 0.3 l 16 0.3 v 98.17 v 98.17 l -16 0.3 l -16 0.3 v -98.77 z m 69.42 -35.2 v -132.94 h 46.14 c 61.33 0 73.26 1.453 93.42 11.38 16.861 8.299 28.2 22.24 32.32 39.715 2.473 10.489 2.184 27.71 -0.603 35.99 -4.502 13.374 -16.259 25.846 -30.889 32.768 -7.879 3.727 -7.517 5.635 1.694 8.932 20.891 7.479 35.865 24.578 40.75 46.533 2.543 11.428 1.709 32.685 -1.676 42.716 -7.408 21.955 -23.09 35.949 -49.42 44.11 l -9.709 3.01 l -61.02 0.361 l -61.02 0.361 v -132.94 z m 117.01 106.48 c 15.665 -4.667 26.84 -14.172 31.688 -26.948 2.322 -6.121 2.616 -8.599 2.554 -21.56 -0.058 -12.278 -0.453 -15.682 -2.445 -21.06 -5.07 -13.699 -12.75 -21.964 -24.981 -26.884 -6.01 -2.417 -6.971 -2.466 -48.44 -2.479 l -42.31 -0.013 l -0.282 49.23 c -0.212 36.974 0.041 49.621 1.016 50.795 1.969 2.373 74.78 1.429 83.19 -1.078 z m -11.672 -125.55 c 14.2 -2.693 26.13 -11.411 31.965 -23.367 2.957 -6.05 3.146 -7.255 3.158 -20 0.012 -12.398 -0.232 -14.08 -2.846 -19.656 -5.435 -11.592 -15.08 -19.15 -29.772 -23.321 -8.396 -2.386 -71.1 -3.637 -73.71 -1.471 -1.354 1.124 -1.595 7.747 -1.595 43.822 0 31.607 0.334 42.831 1.302 43.799 1.66 1.66 62.89 1.826 71.49 0.194 z m -174.76 -116.62 v -16.843 l 16 0.3 l 16 0.3 l 0.299 16.542 l 0.299 16.542 h -16.299 h -16.299 v -16.843 z" style="fill:#ffdead"/></g></g></svg>