<svg xmlns="http://www.w3.org/2000/svg" viewBox="0 0 256 256"><defs><clipPath><path transform="matrix(15.33333 0 0 11.5 415 -125.5)" d="m -24 13 c 0 1.105 -0.672 2 -1.5 2 -0.828 0 -1.5 -0.895 -1.5 -2 0 -1.105 0.672 -2 1.5 -2 0.828 0 1.5 0.895 1.5 2 z" style="fill:#1890d0"/></clipPath><clipPath><path transform="matrix(15.33333 0 0 11.5 415 -125.5)" d="m -24 13 c 0 1.105 -0.672 2 -1.5 2 -0.828 0 -1.5 -0.895 -1.5 -2 0 -1.105 0.672 -2 1.5 -2 0.828 0 1.5 0.895 1.5 2 z" style="fill:#1890d0"/></clipPath><clipPath><path transform="matrix(15.33333 0 0 11.5 415 -125.5)" d="m -24 13 c 0 1.105 -0.672 2 -1.5 2 -0.828 0 -1.5 -0.895 -1.5 -2 0 -1.105 0.672 -2 1.5 -2 0.828 0 1.5 0.895 1.5 2 z"/></clipPath><linearGradient x2="114.72" x1="64.844" gradientUnits="userSpaceOnUse" id="0"><stop style="stop-color:#d4e3eb;stop-opacity:0.498"/><stop offset="1" style="stop-color:#d4e3eb;stop-opacity:0"/></linearGradient></defs><g style="fill:#fff"><path d="m 38.512 955.77 c 69.51 139.75 275.74 61.886 236.36 -79.85 -37.11 -133.54 -225.51 -129.74 -247.48 -0.268 -4.583 27.01 -1.643 54.47 11.11 80.12 z" transform="matrix(-1 0 0 1 281.37 -775.61)" style="fill:#fff;color:#000"/></g><g transform="matrix(0.62769 0 0 0.60716 31.733 41.18)" style="fill:#ff4500"><path d="m 255.28 178.65 c 0 55.1 -47.689 99.77 -106.52 99.77 -58.827 0 -106.52 -44.67 -106.52 -99.77 0 -55.1 47.689 -99.77 106.52 -99.77 58.827 0 106.52 44.67 106.52 99.77 z" transform="matrix(1.08865 0 0 1.12618 -15.436 -31.53)" style="fill:#ffa07a;stroke:#000"/><path d="m 34.958 141.1 l 6.674 -9.216 c 5.949 0.649 9.922 3.932 13.347 7.945 l 2.542 3.496 l 2.86 -0.636 l 4.131 3.496 l -0.318 -2.542 l 2.225 3.178 l 2.225 1.589 l 1.589 -0.636 l 6.356 3.496 l 4.131 -5.403 l -0.953 -0.953 l 4.131 -0.318 l 1.589 -6.04 l -3.814 3.178 l -4.449 -0.318 l -0.318 -2.225 h -1.271 l -1.907 -4.449 l -1.589 0.636 l -0.636 2.86 l -1.589 -0.318 l 0.636 -5.72 l -3.814 -1.271 l -1.271 -1.589 l 2.225 -1.271 v -1.271 l -2.225 -1.271 l 2.225 -3.496 l 0.318 -5.403 l -3.178 0.318 l 2.542 -4.449 l 0.318 -6.356 l -1.589 -0.636 l 0.318 -1.271 l 1.271 -0.953 v -6.992 c 2.225 -5.936 4.449 -5.843 6.674 -7.945 v -6.674 c -15.788 10.985 -31.03 26.93 -39.41 59.43 z"/><path d="m 102.33 139.19 l 2.86 4.449 l 0.318 5.085 l 7.945 -0.318 c 11.298 8.756 6.656 10.539 5.085 13.665 l 11.123 0.953 l 0.318 -2.225 h 4.767 l -0.636 -2.86 l 1.271 -1.589 v -3.814 l 1.907 -1.271 l -0.318 -1.271 l -4.131 -0.318 l -0.953 -4.767 l 4.449 -3.814 l 1.271 -6.356 l 0.318 -3.178 l 45.13 6.356 l 2.86 2.86 l -0.953 5.72 l 3.496 2.542 v 5.403 c 0 0 -5.72 0.636 -6.992 0 -1.271 -0.636 -3.178 0.953 -3.178 0.953 l 9.216 1.271 c 2.551 5.128 4.319 6.34 6.04 7.309 v 16.843 l -17.797 24.15 l -6.674 0.953 l -4.767 2.225 l -8.581 -0.953 c -4.701 -1.949 -3.84 -4.517 -0.953 -7.309 2.981 -2.101 0.278 -5.01 -2.542 -7.945 2.205 -1.525 1.491 -4.02 1.271 -6.356 l -11.441 -8.263 l -2.542 7.309 h -2.86 v 3.814 l 1.589 0.318 v 5.085 l -3.814 -3.178 l -2.542 -0.318 v 2.542 l -1.907 0.636 l -8.898 -5.085 l -0.636 -4.767 h -1.589 l -1.907 -3.178 l 2.225 -2.542 l -2.86 -3.814 l -2.542 2.86 l -2.542 0.318 l -0.953 -3.178 l 0.636 -2.225 h 2.225 l 0.953 -2.542 l -1.907 -4.131 l 2.86 -1.271 l -0.318 -7.945 l -5.085 -3.178 l -3.814 -0.953 l 7.627 4.767 l -0.953 3.814 l -1.907 -0.318 c -1.269 -2.119 -0.235 -4.237 -6.992 -6.356 l 0.636 -3.496 l -2.86 -2.542 l 0.953 -8.581 z" style="fill:#ffdead"/><path d="m 39.41 122.35 c -1.418 -60.59 34.724 -98.61 94.07 -108.69 43.42 -1.824 65.7 18.255 88.03 27.966 l 6.356 -13.03 c 0.176 0.823 2.679 0.376 3.607 1.199 l 5.609 7.381 l 6.674 0.636 l 13.03 9.216 l 38.771 -2.542 c 0.026 3.76 0.432 8.279 -0.318 10.487 -4.86 4.075 -11.469 9.316 -12.365 12.1 -0.813 2.527 -1.886 4.138 -3.843 5.061 -0.148 5.381 1.137 8.619 -2.225 12.394 l -3.178 21.928 c -5.02 3.118 -9.957 7.787 -13.347 13.347 l -0.953 4.767 c 0.905 1.64 -2.06 1.414 -4.696 4.611 -2.149 2.607 -4.48 2.874 -8.969 1.744 l -7.945 -0.636 l -1.271 -2.86 l -10.169 -0.953 l -2.225 -0.318 l -6.992 -6.674 c -10.08 -1.858 -8.322 -11.347 -12.394 -18.75 l -8.263 -10.169 c -6.449 2.308 -10.233 7.534 -17.479 18.432 -0.886 10.585 -3.714 12.8 -1.589 32.415 0.576 2.829 0.931 5.77 1.644 8.63 1.447 5.803 3.353 11.785 3.758 16.16 3.358 5.091 7.657 9.994 6.992 15.89 4.676 5.758 4.062 10.635 3.814 15.572 4.733 4.107 5.658 7.863 5.403 11.123 -1.35 3.225 -0.7 7.949 -5.085 8.898 l -7.627 -0.953 l -1.589 -2.225 l -6.04 -0.953 l -3.178 -5.72 c 0.103 -5.932 -4.802 -11.864 -11.441 -17.797 -1.07 -2.333 -5.62 -5.582 -3.656 -7.04 2.064 -1.528 0.326 -7.775 -3.387 -10.625 -2.742 -2.104 -3.729 -6.067 -7.257 -9.353 1.487 2.094 -5.651 -13.976 -5.085 -16.525 0.925 -4.165 -3.55 -17.263 -5.72 -17.479 v -26.06 c -3.884 -18.61 -9.617 -44.28 -46.849 -30.421 -7.542 2.809 -26.742 9.958 -52.621 49.806 z" style="stroke:#000"/><path d="m 146.14 151.67 c 18.219 -20.339 32.383 -47.7 49.623 -62.77 4.294 7.293 6.791 7.471 9.819 12.81 3.831 6.755 0.997 14.01 6.39 15.169 4.915 1.699 7.288 6.128 12.202 8.64 l 13.222 1.326 c 0.461 -0.56 -0.79 1.869 0.44 2.389 3.136 1.326 12.06 2.605 13.236 1.63 l 14.609 -27.461 l -20.02 -50.28 l -39.725 -18.17 l -134.75 24.468 l -27.967 27.03 l -4.767 38.35 c 7.731 -13.167 19.1 -31.617 31.78 -39.01 56.878 -41.732 67.906 5.34 67.06 9.447 l 6.674 41.15 l 2.18 15.292 z" style="fill:#ffdead"/><path d="m 191.31 258.05 l 2.86 -3.814 v -4.767 c 0 0 9.216 -9.534 10.169 -8.581 0.953 0.953 9.216 -0.318 9.216 -0.318 l 0.318 -2.86 l 4.767 -0.318 l 5.72 -5.72 h 1.907 l -0.636 -2.86 l 2.542 -2.225 l -0.318 -3.496 l 3.178 -5.085 l 0.636 -4.767 l 3.178 -3.178 l 3.178 2.225 l 6.674 -0.953 l 0.953 8.898 l -2.86 5.72 l -0.953 6.992 l -1.907 0.636 l -0.318 4.449 l -5.72 3.496 l 0.953 1.907 c -7.568 11.817 -23.282 15.489 -43.538 14.619 z"/><path d="m 209.75 257.1 c 22.679 -23.452 18.75 -29.24 18.75 -29.24 l -2.86 0.636 l 0.318 3.178 l -1.907 0.953 l -5.72 4.449 l -4.449 1.271 l -1.271 2.86 l -9.852 0.318 l -8.898 7.627 l -0.318 5.403 l -2.542 3.496 c 8.05 1.482 13.11 -0.022 18.75 -0.953 z"/><path d="m 90.8 156.99 c 25.517 54.613 39.888 82.74 103.26 101.38 33.42 1.818 51.34 -24.897 61.45 -47.35 2.814 11.804 1.967 24.315 0 36.23 -11.52 18.391 -23.858 33.374 -48.78 34.958 -28.414 4.03 -60.63 0.704 -101.99 -29.24 c -48 -46.845 -37.757 -71.801 -39.911 -94.07 6.789 -18.451 15.815 -15.579 25.974 -1.907 z" style="stroke:#000;stroke-width:0.998"/><path d="m 68.59 194.66 c 16.236 -0.897 34.888 6.196 46.13 10.156 -7.22 -9.739 -14.359 -25.437 -22.504 -42.703 -3.141 -7.45 -8.02 -16.451 -18.423 -15.649 -6.37 4.55 -10.507 15.806 -8.396 29.05 1.01 6.166 0.826 14.519 3.189 19.14 z" style="stroke:url(#0)"/><g style="fill:#ffdead"><path d="m 65.47 175.11 c 8.07 2.101 13.451 -6.577 19.07 -14.301 l 0.636 12.394 l -19.386 11.123 l -0.318 -9.216 z"/><path d="m 71.5 207.84 l 24.47 -13.347 l -2.86 -7.309 c -6.89 5.281 -11.12 12.635 -25.11 12.394 l 3.496 8.263 z"/><path d="m 76.59 217.06 c 9.244 -2.802 17.948 -6.697 25.424 -13.03 l 3.178 5.403 c -9.218 4.553 -16.837 10.705 -23.517 17.797 l -5.085 -10.17 z"/><path d="m 89.3 236.12 c 8.405 -5.49 19.08 -9.848 24.47 -16.843 l 5.403 5.085 c -4.239 9.49 -12.959 15.396 -21.292 21.61 l -8.581 -9.852 z"/><path d="m 105.51 252.97 c 31.2 -15.813 25.911 -19.289 25.742 -19.386 l -0.318 0.953 c 1.642 4.82 -0.628 13.915 -13.347 26.06 -4.528 -2.04 -9.189 -3.947 -12.08 -7.627 z"/><path d="m 129.66 267.27 c 11.679 -18.15 13.888 -22.421 13.983 -22.564 0.433 4.478 -0.469 9.741 2.225 12.712 l 2.542 0.636 c -1.33 5.508 -3.994 11.02 -3.814 16.525 -10.05 -2.436 -11.154 -4.873 -14.936 -7.309 z"/><path d="m 155.72 278.07 c 7.815 -3.455 4.449 -24.15 4.449 -24.15 l 12.394 14.301 c -1.25 6.837 -1.146 12.514 3.496 14.301 -6.676 -0.864 -12.898 1 -20.339 -4.449 z"/></g><path d="m 187.5 262.82 c 20.936 6.25 13.914 12.5 20.339 18.75 -5.525 1.157 -10.887 2.396 -19.703 1.907 6.504 -4.819 3.748 -12.488 -0.636 -20.657 z" style="fill:#faebd7"/><path d="m 225.32 261.55 c 3.602 5.479 7.203 7.956 10.805 9.216 -4.75 4.606 -10.311 6.779 -15.89 8.898 1.75 -3.561 0.299 -9.521 -1.271 -15.572 -1.179 -2.248 4.692 -2.042 6.356 -2.542 z" style="fill:#ffdead"/><path d="m 212.58 79.33 c -1.3 -7.633 -1.01 -16.549 7.334 -33.29 1.185 -2.379 1.631 -2.154 1.654 -4.914 l 6.741 -12.584 l 4.045 1.348 c 1.214 3.382 2.681 5.755 4.494 6.741 2.742 0.944 5.319 1.724 6.292 0.899 l 13.483 9.438 l 38.651 -2.247 l 0.449 10.786 l -10.786 8.539 l -4.157 6.854 l -1.91 1.011 l -0.225 7.977 l -1.011 3.483 l -1.011 0.899 l -3.258 21.685 c -5.658 5.301 -13.477 7.846 -14.157 19.213 l -3.595 2.472 l -2.809 3.034 l -3.708 0.674 c -1.287 -8.394 -3.603 -7.131 -2.744 -11.05 0.72 -3.288 5.595 -8.692 6.694 -10.629 l 5.09 -0.225 l 2.87 -2.031 l -11.91 -2.472 l -2.697 5.168 l -13.932 -16.292 l 0.449 16.07 l -7.865 -1.236 c -3.169 -4.533 -12.371 -7.873 -14.382 -13.483 -1.906 -3.611 -0.489 -7.887 3.595 -12.696 l 6.741 4.719 l 7.191 0.337 l 8.09 -3.82 l -0.225 -7.865 l -5.506 -18.427 l -3.708 -8.989 c -4.426 10.441 -2.386 23.654 -14.269 30.898 z"/><path d="m 39.55 102.7 l 13.03 -25.618 l 16.18 -9.888 l 53.932 -1.348 c 9.667 1.321 11.45 7.148 12.898 13.167 8.739 0.759 9.411 4.543 8.675 8.856 l -6.292 8.989 l 1.798 32.359 l 4.944 8.09 l 1.348 -21.12 c -0.335 -13.59 3.156 -15.7 6.292 -18.876 32.977 -0.102 33.07 -25.784 34.606 -50.34 1.117 -1.348 1.966 -2.697 5.393 -4.045 l 22.921 -4.045 c -102.01 -42.18 -161.72 -6.939 -175.73 63.819 z"/><g style="fill:#ffdead"><path d="m 61.97 50.21 l 6.992 1.589 l 3.496 -2.542 l 3.178 7.309 l 3.496 1.271 l -0.318 -2.86 c -2.225 -4.449 -4.449 -8.898 -6.674 -13.347 5.702 2.576 10.468 7.952 13.665 9.852 -0.99 -4.309 -0.693 -7.974 0 -11.441 l 1.907 -1.907 l 3.178 9.216 c 4.802 5.238 6.229 9.562 8.581 13.983 2.828 0.18 4.217 -0.126 5.403 -1.589 -2.119 0.655 -3.529 -1.06 -4.767 -5.403 l -0.318 -7.309 l -2.86 -1.271 l -0.636 -11.123 l 3.178 0.636 l 6.992 20.657 c 6.804 4.898 10.153 6.339 13.665 7.945 0 0 2.542 0.953 3.814 0.953 1.271 0 0 -2.225 0 -2.225 -6.086 -1.61 -10.876 -8.402 -16.208 -13.03 -3.612 -8.804 -1.151 -9.927 -1.589 -14.936 l 4.131 7.309 c 3.39 4.828 6.78 9.134 10.17 11.441 l -0.318 -4.449 c -8.901 -12.385 -4.374 -12.833 -6.356 -19.07 l 3.178 0.636 l 0.636 9.216 c 5.334 5.351 14.557 8.479 14.619 16.843 1.856 -1.503 7.02 4.05 8.898 14.301 l -0.318 -11.123 c -5.72 -4.957 -11.441 -14.11 -17.16 -23.2 c -2.498 -4.57 -1.773 -8.335 -0.953 -12.08 2.712 1.229 6.601 1.673 6.992 4.449 l 11.441 23.517 c 7.863 5.633 8.787 11.96 8.263 18.432 5.337 4.581 5.289 11.317 6.674 17.479 l -0.953 -13.03 l -12.08 -43.22 l 5.403 0.318 l 1.907 5.403 l 5.085 3.178 l 3.178 12.712 l 1.907 23.517 l 0.953 0.953 l -0.318 13.347 l 2.86 -13.665 l -1.589 -2.86 l -0.636 -24.15 c -2.708 -3.178 -2.21 -6.356 -2.542 -9.534 l 1.907 -7.309 l 2.542 0.318 l 0.636 11.441 l 1.907 6.356 v -11.441 l 7.309 -4.767 l -1.907 20.02 c 1.365 -4.428 3.123 -12.417 4.449 -19.386 l 5.72 1.907 c -0.131 15.746 -2.488 27.518 -4.131 40.996 5.293 -6.699 4.258 -22.847 6.356 -34.32 l 9.852 -10.805 l 2.225 1.907 l -6.674 17.797 l -4.449 18.432 l 0.953 0.318 l 8.581 -20.657 v -3.814 l 3.178 -9.216 l 6.992 4.449 l 11.123 -4.131 c -31.462 -21.454 -95.45 -50.41 -153.81 10.805 z"/><path d="m 225.62 67.868 l 1.798 -13.932 l 5.168 -12.809 l 0.225 -3.371 l 6.067 2.022 l 17.753 10.112 l 25.17 0.225 c -7.213 2.829 -16.12 6.142 -21.797 7.865 l -7.191 -0.225 c -5.686 -4.847 -11.309 -9.508 -16.404 -12.584 -6.17 6.462 -8.757 14.46 -10.786 22.696 z"/><path d="m 237.3 97.98 c 9.328 9.381 8.815 10.761 8.764 10.786 -0.235 -1.845 -0.168 -3.324 0.225 -6.292 -3.496 -3.496 -6.02 -3.123 -8.989 -4.494 z"/><path d="m 248.31 126.52 l 2.697 -2.022 l 4.944 0.674 c -1.198 1.928 -2.397 3.236 -3.595 3.371 -0.75 0.074 -1.429 -0.04 -4.494 -1.124 l 0.449 -0.899 z"/></g><g transform="translate(3.595 1.798)"><path d="m 236.28 117.9 c -8.104 -0.159 -7.945 0 -7.945 0 -1.263 -0.22 -3.722 0.756 -6.674 2.225 -2 2.771 -4.602 4.355 -6.992 6.356 l 6.674 -7.309 c 1.776 -1.137 3.59 -2.236 6.197 -2.542 3.583 -0.106 6.109 -0.212 8.898 -0.318 l -0.159 1.589 z"/><path d="m 230.56 115.52 c -3.236 0.015 -6.235 -0.681 -9.852 0.477 -5.949 1.739 -8.205 3.627 -11.123 4.608 l 8.898 -5.72 c 4.64 -1.262 8.606 -0.501 12.871 -0.636 l -0.794 1.271 z"/><path d="m 237.11 120.64 c -0.994 -0.443 -11.584 1.134 -11.267 2.644 -5.11 1.19 -8.08 5.775 -11.961 8.924 l 5.72 -7.106 c 3.96 -3.503 6.791 -3.778 9.881 -4.792 3.678 -0.459 6.406 -0.465 9.187 -0.496 l -1.56 0.826 z"/></g></g></svg>