<svg xmlns="http://www.w3.org/2000/svg" viewBox="0 0 256 256"><g transform="translate(0 -796.36)"><path d="m 3.74 950.97 c 19.829 131.87 217.21 135.83 247.04 7.636 30.702 -103.78 -80.47 -188.63 -163.63 -154.63 -55.684 16.07 -100.67 81.83 -83.41 146.99 z" style="fill:#fff;stroke:#fff;color:#000;stroke-width:4"/><g transform="matrix(0.52645 0 0 0.51798 -5.653 790.31)"><path d="m 225.96 502.59 c -30.07 -5.169 -42.921 -8.529 -62.733 -16.393 -44.18 -17.538 -84.91 -50.16 -111.61 -89.37 -6.818 -10.02 -14.66 -23.762 -14.66 -25.694 0 -1 -1.514 -4.847 -3.365 -8.542 -8.918 -17.803 -16.05 -40.621 -20.317 -65.02 -2.46 -14.06 -2.726 -17.892 -2.678 -38.585 0.047 -20.32 0.361 -24.704 2.717 -37.951 c 11.741 -66.01 46.726 -122.02 99.58 -159.41 c 9.222 -6.525 27.14 -17.508 37.07 -22.726 11.687 -6.141 40.23 -16.14 46.06 -16.14 1.546 0 6.104 -0.706 10.127 -1.568 19.493 -4.179 53.31 -5.7 74.6 -3.357 54.25 5.969 107.2 31.591 146.25 70.77 36.12 36.25 58.927 81.26 68.15 134.53 3.234 18.669 3.234 54.05 0 72.72 -6.521 37.648 -17.935 67.07 -37.623 96.99 -28.17 42.806 -67.47 74.39 -116.62 93.72 -6.355 2.499 -13.78 5.097 -16.5 5.772 -2.72 0.675 -6.52 2.026 -8.445 3 -1.925 0.976 -9.575 2.994 -17 4.484 -12.522 2.513 -15.564 2.728 -42 2.963 -15.675 0.139 -29.625 0.06 -31 -0.177 z" style="fill:#fff"/><g style="fill:#ffdead"><path d="m 285.11 442.32 c -3.744 -1.63 -8.181 -7.05 -15.86 -19.377 -16.09 -25.823 -35.518 -43.29 -56.01 -50.35 -11.359 -3.915 -19.372 -4.779 -44.656 -4.816 -24.09 -0.034 -29.921 -0.772 -37.794 -4.779 -4.487 -2.283 -5.962 -3.755 -8.664 -8.646 -1.791 -3.242 -3.782 -8.68 -4.424 -12.08 -1.581 -8.38 0.382 -19.5 7.683 -43.522 8.434 -27.749 8.494 -37.712 0.334 -55.835 -5.962 -13.241 -5.156 -20.299 2.481 -21.732 3.571 -0.67 13.06 1.085 15.248 2.82 0.902 0.715 1.25 5.238 1.25 16.247 0 11.287 0.338 15.535 1.298 16.333 3.729 3.095 38.16 3.965 47.631 1.204 4.543 -1.325 5.04 -2.332 5.06 -10.314 l 0.015 -6.778 l 6.25 0.629 c 11.949 1.202 25.12 -2.723 33.428 -9.965 5.924 -5.162 11.955 -14.663 14.293 -22.512 2.387 -8.02 6.825 -12.878 10.475 -11.478 7.961 3.055 5.993 27.24 -4.928 60.56 -7.722 23.559 -8.08 40.621 -1.315 61.819 3.244 10.157 7.116 17.13 20.283 36.5 14.35 21.11 25.06 38.676 30.756 50.4 4.937 10.175 6.201 20.253 3.305 26.355 -3.865 8.145 -17.59 13.04 -26.13 9.318 z"/><path d="m 205.69 419.5 c 6.437 -3.054 8.613 -9.4 5.458 -15.916 -3.566 -7.366 -4.266 -7.498 -39.95 -7.498 -33.772 0 -34.643 0.126 -38.961 5.615 -2.549 3.241 -2.788 9.941 -0.472 13.248 0.889 1.269 3.03 3.168 4.75 4.219 2.908 1.773 5.386 1.911 34.482 1.914 26.556 0.003 31.86 -0.239 34.691 -1.582 z"/></g><path d="m 134.66 355.33 c -3.39 -1.37 -6.388 -5.948 -6.388 -9.755 0 -2.607 0.842 -4.307 3.4 -6.865 l 3.4 -3.4 h 33.523 h 33.523 l 3.043 2.56 c 3.833 3.226 4.884 8.04 2.682 12.301 -3.09 5.976 -4.185 6.145 -39.27 6.075 -17.49 -0.035 -32.75 -0.447 -33.912 -0.917 z" style="fill:#e91b00"/><g transform="matrix(1.89953 0 0 1.93056 10.739 11.691)" style="fill:#ff4500;fill-rule:evenodd"><path d="m 103.89 252.2 c -12.465 -2.673 -18.345 -4.489 -27.817 -8.59 -19.234 -8.329 -38.25 -23.274 -51.06 -40.13 c -3.986 -5.244 -9.264 -13.497 -10.454 -16.347 -0.739 -1.768 -0.69 -2.067 0.67 -4.122 2.574 -3.89 10.539 -21.687 11.572 -25.858 1.336 -5.396 1.248 -13.476 -0.213 -19.588 -0.629 -2.631 -2.85 -10.29 -4.935 -17.02 -4.638 -14.972 -5.815 -21.21 -5.348 -28.331 0.949 -14.461 8.73 -28.2 17.4 -30.72 2.755 -0.801 3.822 -0.859 5.955 -0.322 4.916 1.238 9.275 4.919 10.608 8.957 0.362 1.097 0.99 6.02 1.396 10.945 0.647 7.856 0.924 9.267 2.26 11.548 2.596 4.429 7.34 7.365 12.685 7.849 l 3.383 0.307 v -42.29 v -42.29 l 3.912 -1.911 c 7.121 -3.479 15.776 -6.49 24.05 -8.365 l 1.594 -0.361 v 51.811 v 51.811 l 1.304 0.349 c 2.482 0.665 8.594 0.362 10.74 -0.533 3.41 -1.422 5.609 -4.02 7.981 -9.432 4.114 -9.385 6.331 -11.717 11.551 -12.15 6.288 -0.521 11.02 2.814 13.739 9.684 1.1 2.779 1.278 4.333 1.268 11.06 l -0.011 7.824 l -3.061 8.974 c -3.775 11.07 -4.659 15.13 -4.672 21.49 -0.021 10.536 2.363 16.635 11.312 28.938 15.243 20.955 19.589 29.16 21.16 39.933 1.414 9.696 -0.091 18.242 -5.02 28.532 l -2.678 5.587 l -4.132 1.213 c -9.162 2.69 -12.245 3.037 -29.341 3.298 l -16.516 0.253 l -9.272 -1.988 z m 48.49 -29.04 c 1.441 -0.491 3.509 -1.81 4.595 -2.93 1.903 -1.964 1.974 -2.199 1.96 -6.506 -0.014 -4.187 -0.201 -4.849 -2.988 -10.543 -1.636 -3.342 -7.199 -12.465 -12.363 -20.274 -14.244 -21.54 -15.906 -25.548 -15.862 -38.25 0.024 -6.994 0.13 -7.604 3.069 -17.675 1.674 -5.737 3.414 -12.345 3.866 -14.684 1.014 -5.248 1.052 -12.643 0.075 -14.582 -1.261 -2.501 -4.666 -2.119 -6.05 0.68 -0.367 0.742 -1.572 3.356 -2.678 5.81 -2.603 5.777 -6.329 9.779 -11.334 12.174 -3.365 1.61 -4.556 1.858 -10.02 2.087 l -6.205 0.26 l -0.17 3.838 c -0.169 3.817 -0.181 3.842 -2.198 4.53 -3.548 1.21 -23.336 0.795 -24.647 -0.516 -0.144 -0.144 -0.459 -4.01 -0.701 -8.597 l -0.44 -8.336 l -2.608 -0.782 c -3.301 -0.989 -7.498 -0.602 -8.513 0.785 -1.272 1.739 -0.862 5.073 1.318 10.717 3.943 10.21 3.869 12.682 -0.891 29.706 -3.308 11.83 -4 16.09 -3.39 20.847 0.494 3.842 2.893 8.68 5.072 10.224 3.644 2.583 6.645 3.059 22.341 3.545 16.89 0.523 20.841 1.204 27.896 4.805 8.762 4.472 15.962 11.507 24.355 23.796 5.255 7.694 6.331 8.938 8.599 9.946 2.317 1.03 4.745 1.01 7.919 -0.075 z m -48.945 -12.11 c 1.022 -0.619 2.163 -1.859 2.535 -2.756 1.265 -3.055 -0.503 -7.54 -3.41 -8.647 -0.938 -0.357 -8.215 -0.596 -18.201 -0.596 -18.591 -0.001 -19.17 0.103 -20.946 3.732 -2 4.101 0.098 8.206 4.683 9.152 1.202 0.248 9.227 0.403 17.833 0.345 14.354 -0.096 15.801 -0.198 17.506 -1.23 z" style="opacity:0.99"/><path d="m 67.55 177.88 c -4.786 -0.431 -6.62 -4.65 -3.588 -8.253 l 1.5 -1.783 l 17.479 0.018 c 18.63 0.02 18.361 -0.02 20.328 3 0.868 1.334 0.92 1.882 0.345 3.626 -0.373 1.13 -1.244 2.37 -1.936 2.756 -1.253 0.698 -27.917 1.193 -34.13 0.634 z" style="opacity:0.99"/></g></g></g></svg>