<svg xmlns="http://www.w3.org/2000/svg" xmlns:xlink="http://www.w3.org/1999/xlink" viewBox="0 0 256 256"><defs><clipPath id="0"><path transform="matrix(15.33333 0 0 11.5 415 -125.5)" d="m -24 13 c 0 1.105 -0.672 2 -1.5 2 -0.828 0 -1.5 -0.895 -1.5 -2 0 -1.105 0.672 -2 1.5 -2 0.828 0 1.5 0.895 1.5 2 z" style="fill:#1890d0"/></clipPath><clipPath id="1"><path transform="matrix(15.33333 0 0 11.5 415 -125.5)" d="m -24 13 c 0 1.105 -0.672 2 -1.5 2 -0.828 0 -1.5 -0.895 -1.5 -2 0 -1.105 0.672 -2 1.5 -2 0.828 0 1.5 0.895 1.5 2 z" style="fill:#1890d0"/></clipPath></defs><g transform="translate(0 -796.36)"><path d="m 13.228 977.71 c 69.925 141.88 277.41 62.829 237.79 -81.07 -37.33 -135.58 -226.87 -131.72 -248.97 -0.272 -4.611 27.425 -1.653 55.3 11.182 81.34 z" style="fill:#fff;color:#000"/><g transform="matrix(4.0249 0 0 3.77585 32.21 829.62)" style="fill:#ff4500"><g transform="matrix(1.67562 0 0 1.67562 -16.552 -16.553)" style="clip-path:url(#1)"><g transform="translate(1 1)" style="opacity:0.1"><path d="m 21.863 14.984 c 0 0.828 -0.672 1.5 -1.5 1.5 -0.828 0 -1.5 -0.672 -1.5 -1.5 0 -0.828 0.672 -1.5 1.5 -1.5 0.828 0 1.5 0.672 1.5 1.5" id="2"/><path d="m 23.855 12 c -0.988 0.004 -1.934 0.09 -2.766 0.234 -2.449 0.43 -2.895 1.324 -2.895 2.977 v 2.184 h 5.789 v 0.727 h -7.961 c -1.684 0 -3.156 1 -3.617 2.902 -0.531 2.18 -0.559 3.543 0 5.816 0.41 1.695 1.391 2.902 3.074 2.902 h 1.703 v -2.898 c 0 -1.887 1.656 -3.543 3.621 -3.543 h 6.06 c 1.609 0 3.133 -1.313 3.133 -2.91 v -5.168 c 0 -1.551 -1.559 -2.719 -3.133 -2.977 -0.992 -0.164 -2.023 -0.238 -3.01 -0.234 m -3.129 1.742 c 0.598 0 1.086 0.492 1.086 1.098 0 0.602 -0.488 1.086 -1.086 1.086 -0.602 0 -1.09 -0.484 -1.09 -1.086 0 -0.605 0.484 -1.098 1.09 -1.098" id="3"/><path d="m 28.867 32.984 c 0 0.828 -0.672 1.5 -1.5 1.5 -0.832 0 -1.504 -0.672 -1.504 -1.5 0 -0.828 0.672 -1.5 1.504 -1.5 0.828 0 1.5 0.672 1.5 1.5" id="4"/><path d="m 30.82 18.12 v 2.543 c 0 1.969 -1.691 3.395 -3.617 3.395 h -6.352 c -1.582 0 -2.895 1.578 -2.895 3.145 v 5.453 c 0 1.551 1.363 2.461 2.895 2.906 1.832 0.531 3.828 0.633 6.02 0 1.457 -0.418 2.895 -1.258 2.895 -2.906 v -2.184 h -5.781 v -0.727 h 8.68 c 1.68 0 2.309 -1.164 2.895 -2.902 0.605 -1.793 0.574 -3.52 0 -5.816 -0.418 -1.66 -1.211 -2.902 -2.895 -2.902 m -5.426 13.805 c 0.598 0 1.086 0.484 1.086 1.086 0 0.602 -0.484 1.098 -1.086 1.098 -0.602 0 -1.09 -0.496 -1.09 -1.098 0 -0.602 0.488 -1.086 1.09 -1.086" id="5"/><path d="m 33.434 26 c 0 0 0.563 -0.324 0.563 -1.996 0 -1.613 -0.633 -2 -0.633 -2 h -15.07 l -4.297 2 l 4.297 1.996"/><path d="m 18 22.16 l -4 1.844 l 4 1.844"/><path d="m 16 23.06 l -2 0.938 l 2 0.941"/><path d="m 31 22 v 4 h 2.438 c 0 0 0.563 -0.324 0.563 -2 0 -1.613 -0.625 -2 -0.625 -2" id="6"/></g></g><g transform="matrix(1.67562 0 0 1.67562 -16.552 -16.553)" style="clip-path:url(#0)"><g><use xlink:href="#2"/><use xlink:href="#3"/><use xlink:href="#4"/><use xlink:href="#5"/><path d="m 33.434 26 c 0 0 0.563 -0.324 0.563 -1.996 0 -1.613 -0.633 -2 -0.633 -2 h -15.07 l -4.297 2 l 4.297 1.996" style="fill:#ffdead"/><path d="m 18 22.16 l -4 1.844 l 4 1.844" style="fill:#ffe4e1"/><path d="m 16 23.06 l -2 0.938 l 2 0.941" style="fill:#ffdead"/><use xlink:href="#6"/></g></g></g></g></svg>