<svg xmlns="http://www.w3.org/2000/svg" viewBox="0 0 256 256"><defs><clipPath><path transform="matrix(15.33333 0 0 11.5 415 -125.5)" d="m -24 13 c 0 1.105 -0.672 2 -1.5 2 -0.828 0 -1.5 -0.895 -1.5 -2 0 -1.105 0.672 -2 1.5 -2 0.828 0 1.5 0.895 1.5 2 z"/></clipPath></defs><path d="m 222.65 37.868 c 145.18 221.56 -251.35 307.3 -219.76 79.37 12.881 -92.96 164.23 -164.13 219.76 -79.37 z" transform="translate(0.508 2.624)" style="fill:#fff;color:#000"/><path d="m 124.71 185.59 c -22.872 -4.42 -42.25 -21.667 -49.28 -43.874 -1.79 -5.648 -2.212 -9.317 -2.187 -19 0.027 -10.419 0.38 -12.966 2.679 -19.335 3.611 -10 8.148 -17.226 15.396 -24.52 7.171 -7.218 14.422 -11.774 24.56 -15.435 6.368 -2.3 8.915 -2.653 19.335 -2.679 9.683 -0.025 13.352 0.398 19 2.187 19.725 6.25 35.532 22.06 41.782 41.782 2.973 9.382 3.145 28.2 0.333 36.5 -7.01 20.708 -20.947 34.913 -41.34 42.14 -5.713 2.023 -24.282 3.396 -30.28 2.238 z" style="fill:#ff4500"/><path d="m 127.03 150.02 c -11.369 -2.124 -21 -10.41 -24.495 -21.08 -0.89 -2.714 -1.099 -4.476 -1.087 -9.129 0.013 -5.01 0.189 -6.23 1.332 -9.29 1.795 -4.805 4.05 -8.276 7.653 -11.781 3.564 -3.468 7.168 -5.657 12.208 -7.416 3.165 -1.105 4.431 -1.275 9.611 -1.287 4.813 -0.012 6.637 0.191 9.444 1.051 9.804 3 17.661 10.599 20.768 20.07 1.478 4.508 1.563 13.549 0.166 17.536 -3.484 9.949 -10.412 16.774 -20.548 20.246 -2.84 0.972 -12.07 1.632 -15.05 1.075 z" style="fill:#ffdead"/></svg>