<svg xmlns="http://www.w3.org/2000/svg" viewBox="0 0 256 256"><g transform="translate(0 -796.36)"><path d="m 252.4 930.79 c -154.26 347.01 -431.5 -162.11 -87.84 -133.24 c 51.745 6.753 106.08 60.23 87.84 133.24 z" style="fill:#fff;color:#fff"/><g transform="matrix(1.26322 0 0 1.37071 35.745 824.1)"><path d="m 122.04 11.246 h -104.49 c -1.922 0 -3.478 1.638 -3.478 3.66 v 107.38 c 0 2.025 1.556 3.663 3.478 3.663 h 104.49 c 1.922 0 3.478 -1.639 3.478 -3.663 v -107.38 c 0 -2.022 -1.557 -3.661 -3.478 -3.661 z" style="fill:#ffdead"/><path d="m 91.19 79.54 l -5.05 -3.584 c -1.538 -1.166 -3.641 -2.704 -3.641 -5.521 0 -2.828 2.103 -4.627 3.929 -6.292 5.883 -4.232 11.76 -8.736 11.76 -18.227 0 -9.76 -6.719 -14.894 -9.94 -17.33 h 8.683 l 9.114 -5.234 h -27.612 c -7.577 0 -18.495 1.638 -26.489 7.67 -6.02 4.751 -8.964 11.301 -8.964 17.198 0 10.01 8.409 20.16 23.26 20.16 1.402 0 2.936 -0.126 4.48 -0.257 -0.694 1.542 -1.395 2.826 -1.395 5.01 0 3.976 2.235 6.413 4.205 8.723 -6.31 0.396 -18.09 1.035 -26.773 5.913 -8.27 4.495 -10.787 11.04 -10.787 15.654 0 9.504 9.802 18.356 30.13 18.356 24.1 0 36.861 -12.189 36.861 -24.25 0.001 -8.865 -5.603 -13.229 -11.77 -17.977 z m -18.357 -14.76 c -12.06 0 -17.519 -14.245 -17.519 -22.841 0 -3.346 0.694 -6.802 3.078 -9.5 2.248 -2.57 6.163 -4.237 9.818 -4.237 11.623 0 17.652 14.373 17.652 23.617 0 2.313 -0.279 6.411 -3.502 9.374 -2.254 2.056 -6.03 3.587 -9.528 3.587 z m 0.138 51.613 c -14.993 0 -24.662 -6.555 -24.662 -15.669 0 -9.112 8.965 -12.194 12.05 -13.215 5.883 -1.809 13.453 -2.061 14.716 -2.061 1.401 0 2.102 0 3.218 0.129 10.659 6.933 15.285 10.388 15.285 16.951 0 7.948 -7.149 13.866 -20.606 13.866 z" transform="translate(-2.467 -1.586)" style="fill:#ff4500"/></g></g></svg>