<svg xmlns="http://www.w3.org/2000/svg" viewBox="0 0 256 256"><defs><clipPath><path transform="matrix(15.33333 0 0 11.5 415 -125.5)" d="m -24 13 c 0 1.105 -0.672 2 -1.5 2 -0.828 0 -1.5 -0.895 -1.5 -2 0 -1.105 0.672 -2 1.5 -2 0.828 0 1.5 0.895 1.5 2 z"/></clipPath><linearGradient y2="19.409" x2="74.975" y1="47.47" x1="75.51" gradientTransform="matrix(1.10575 0 0 3.29296 94.05 780.39)" gradientUnits="userSpaceOnUse" id="0"><stop style="stop-color:#f00"/><stop offset="0.5" style="stop-color:#f00"/><stop offset="1" style="stop-color:#360000"/></linearGradient></defs><g transform="translate(-17.454 -757.31)" style="color:#000"><path d="m 21.505 914.42 c 49.981 236.68 393.86 -17.405 187.29 -137.71 -80.25 -51.569 -213 15.982 -187.29 137.71 z" style="fill:#fff"/><g transform="matrix(0.9485 -0.21057 0.1711 0.93284 -147.1 53.18)"><g style="fill:#f00"><path d="m 82.56,91.56 c -11.426,0 -20.625,9.199 -20.625,20.625 v 31.625 c 0,11.426 9.199,20.625 20.625,20.625 h 7.219 v -14.5 c 0,-6.609 5.329,-11.938 11.938,-11.938 h 52.56 c 6.609,0 11.938,5.329 11.938,11.938 v 14.5 h 7.219 c 11.426,0 20.625,-9.199 20.625,-20.625 v -31.625 c 0,-11.426 -9.199,-20.625 -20.625,-20.625 h -13.375 v 5.25 c 0,4.731 -3.8,8.531 -8.531,8.531 h -47.06 c -4.731,0 -8.531,-3.8 -8.531,-8.531 V 91.56 H 82.562 z" transform="translate(0 796.36)"/><rect ry="11.209" rx="10.02" y="939.72" x="95.93" height="47.857" width="64.15"/></g><rect width="54.668" height="40.786" x="100.67" y="857.39" rx="8.539" ry="9.553" style="fill:#dc143c"/></g><path d="m 202.9 813.68 c -3.864 0 -6.957 3.332 -6.957 7.422 v 106.91 c 0 4.09 3.092 7.422 6.957 7.422 h 8.866 c 3.864 0 7.01 -3.332 7.01 -7.422 v -106.91 c 0 -4.09 -3.149 -7.422 -7.01 -7.422 h -8.866 z" style="fill:url(#0);opacity:0.995;stroke:#fff;display:block;stroke-linecap:square;stroke-linejoin:round;stroke-width:5.725"/></g></svg>