<svg xmlns="http://www.w3.org/2000/svg" viewBox="0 0 256 256"><defs><clipPath><path transform="matrix(15.33333 0 0 11.5 415 -125.5)" d="m -24 13 c 0 1.105 -0.672 2 -1.5 2 -0.828 0 -1.5 -0.895 -1.5 -2 0 -1.105 0.672 -2 1.5 -2 0.828 0 1.5 0.895 1.5 2 z"/></clipPath></defs><g transform="translate(0 -796.36)"><path d="m 193.83 815.03 c 225.34 193.41 -237.98 379.39 -190.37 80.26 10.438 -65.59 129.65 -132.38 190.37 -80.26 z" style="fill:#fff;color:#000"/><g transform="matrix(3.55814 0 0 3.52907 -1328.17 -929.3)" style="fill:#ff4500;fill-rule:evenodd"><path d="m 408.57 543.8 l -20 -14 l 20 -26 l 20 26 z" style="fill:#ffa07a"/><path d="m 402.57143,532.798 -8,-7 14,-19 9,12 -17,5 z"/><path d="m 426.57143,529.798 -16,11 -8,-8 -2,-9 17,-5 z" style="opacity:0.3"/><path d="m 394.57143,525.798 14,-17 9,10 -9,-12 z" style="fill-opacity:0.235"/><path transform="translate(384.57 499.8)" d="M 4.5,29.349609 4,30 24,44 44,30 43.5,29.349609 24,43 4.5,29.349609 z"/><path d="m 426.57143,529.798 -16,11 -8,-8 -2,-9 17,-5 z" style="opacity:0.2"/><path d="m 402.57143,532.798 -1,-8 16,-6 -17,5 z"/><path d="m 402.57143,532.798 -3,-9 15,-5 -6,-10 9,10 -17,5 z" style="fill:#ffdead;fill-opacity:0.998"/></g></g></svg>