<svg xmlns="http://www.w3.org/2000/svg" viewBox="0 0 256 256"><g transform="translate(-1.231 -797.43)"><path d="m 194.39 816.1 c 223.31 192.54 -235.84 377.68 -188.66 79.899 10.344 -65.29 128.48 -131.78 188.66 -79.899 z" style="fill:#fff;color:#000"/><g transform="matrix(7.54776 0 0 7.58796 -241.25 -1837.67)" style="fill:#ff7f50"><path d="m 48.25 357.74 c -4.919 0 -8.907 3.646 -8.907 6.962 0 6.505 6.588 7.683 12.899 7.683 l -1.166 -2.858 c 3.151 -0.364 6.437 -3.215 6.402 -5.779 -0.045 -3.316 -4.309 -6.01 -9.229 -6.01 z"/><path d="m 48.25 357.74 c -4.919 0 -8.907 3.646 -8.907 6.962 2.468 5.107 7.912 4.528 11.733 4.825 3.151 -0.364 6.437 -3.215 6.402 -5.779 -0.045 -3.316 -4.309 -6.01 -9.229 -6.01 z" style="fill:#ff4500"/></g></g></svg>