<svg xmlns="http://www.w3.org/2000/svg" xmlns:xlink="http://www.w3.org/1999/xlink" viewBox="0 0 256 256"><defs><path d="m 245.46 129.52 l -97.89 -96.9 c -5.556 -5.502 -16.222 -11.873 -23.7 -14.16 l -39.518 -12.08 c -7.479 -2.286 -18.1 0.391 -23.599 5.948 l -13.441 13.578 c -5.5 5.559 -14.502 14.653 -20 20.21 l -13.44 13.579 c -5.5 5.558 -8.07 16.206 -5.706 23.658 l 12.483 39.39 c 2.363 7.456 8.843 18.06 14.399 23.556 l 97.89 96.9 c 5.558 5.502 14.605 5.455 20.1 -0.101 l 36.26 -36.63 c 5.504 -5.559 14.503 -14.651 20 -20.21 l 36.26 -36.629 c 5.502 -5.56 5.455 -14.606 -0.101 -20.11 z m -178.09 -50.74 c -7.198 0 -13.03 -5.835 -13.03 -13.03 0 -7.197 5.835 -13.03 13.03 -13.03 7.197 0 13.03 5.835 13.03 13.03 -0.001 7.198 -5.836 13.03 -13.03 13.03 z" id="3"/><use id="4" xlink:href="#3"/><clipPath id="1"><path transform="matrix(15.33333 0 0 11.5 415 -125.5)" d="m -24 13 c 0 1.105 -0.672 2 -1.5 2 -0.828 0 -1.5 -0.895 -1.5 -2 0 -1.105 0.672 -2 1.5 -2 0.828 0 1.5 0.895 1.5 2 z" style="fill:#1890d0"/></clipPath><clipPath id="2"><path transform="matrix(15.33333 0 0 11.5 415 -125.5)" d="m -24 13 c 0 1.105 -0.672 2 -1.5 2 -0.828 0 -1.5 -0.895 -1.5 -2 0 -1.105 0.672 -2 1.5 -2 0.828 0 1.5 0.895 1.5 2 z" style="fill:#1890d0"/></clipPath><clipPath style="clip-path:url(#0)"><use xlink:href="#4"/></clipPath><clipPath id="0"><use xlink:href="#3"/></clipPath><clipPath style="clip-path:url(#0)"><use xlink:href="#4"/></clipPath></defs><g transform="translate(0 -796.36)"><path d="m 212.32 840.15 c 129.89 104.85 -60.27 294.12 -175.21 173.21 -115.19 -104.06 64.59 -306.02 175.21 -173.21 z" style="fill:#fff;color:#000"/><g transform="matrix(4.98249 0 0 4.98578 17.196 805.13)" style="fill:#ff4500"><g style="clip-path:url(#2)"><g transform="translate(1 1)" style="opacity:0.1"><path d="m 23.773 27 h 0.457 c 0.977 0 1.77 0.793 1.77 1.773 v 8.457 c 0 0.977 -0.793 1.77 -1.77 1.77 h -0.457 c -0.98 0 -1.773 -0.793 -1.773 -1.77 v -8.457 c 0 -0.98 0.793 -1.773 1.773 -1.773" id="5"/><path d="m 26 23 c 0 1.105 -0.895 2 -2 2 -1.105 0 -2 -0.895 -2 -2 0 -1.105 0.895 -2 2 -2 1.105 0 2 0.895 2 2" id="6"/><path d="m 19 26 c 0 -3 4 -7 7 -7 v -2 c -4 0 -9 5 -9 9" id="7"/><path d="m 15 26 h -2 c 0 -5.996 7 -13 13 -13 0 0.668 0 -3.629 0 2 -5 0 -10.996 5.996 -10.996 10.996" id="8"/><path d="m 11 26 h -2 c 0 -8 9 -17 17 -17 v 2 c -7 0 -14.996 8 -14.996 14.996" id="9"/></g></g><g style="clip-path:url(#1)"><g><use xlink:href="#5"/><use xlink:href="#6"/><use xlink:href="#7"/><use xlink:href="#8"/><use xlink:href="#9"/></g></g></g></g></svg>