<svg xmlns="http://www.w3.org/2000/svg" viewBox="0 0 256 256"><defs><clipPath><path d="m 171 132 h 54.625 v 24 h -54.625"/></clipPath><clipPath><path d="m 148 97 h 77.63 v 24 h -77.62"/></clipPath><clipPath><path d="m 74 56.824 h 129 v 139.69 h -129"/></clipPath><clipPath><path d="m 27.707 56.824 h 82.29 v 139.69 h -82.29"/></clipPath></defs><g transform="translate(0 -796.36)" style="color:#000"><path d="m 60.17 822.74 c 130.93 -92.05 263.6 77.948 156.91 186.39 -100.51 102.17 -256.68 7.449 -207.86 -119.69 10.185 -26.526 26.914 -49.802 50.948 -66.7 z" style="fill:#fff"/><g transform="matrix(3.96384 0 0 4.14784 32.606 829.56)" style="fill:#ff4500;stroke:#ffdead;display:block"><path transform="matrix(1.37281 0 0 1.09241 -10.337 0.236)" d="m 41.01 27.645 c 0 2.204 -5.156 3.99 -11.516 3.99 -6.36 0 -11.516 -1.786 -11.516 -3.99 0 -2.204 5.156 -3.99 11.516 -3.99 6.36 0 11.516 1.786 11.516 3.99 z" style="opacity:0.12"/><path d="m 18.402 6.571 c -1.071 0 -1.921 0.863 -1.921 1.914 v 15.06 c 0 1.05 0.849 1.883 1.921 1.883 h 14.14 c 0.856 1.104 2.523 2.893 6.518 4.383 -1.779 -2.049 -1.775 -3.44 -1.574 -4.383 h 2.897 c 1.071 0 1.952 -0.833 1.952 -1.883 v -15.06 c 0 -1.05 -0.881 -1.914 -1.952 -1.914 h -21.977 z"/><path d="m 18.813 7.576 c -0.918 0 -1.293 0.437 -1.293 1.337 v 13.868 c 0 0.9 0.728 1.614 1.646 1.614 h 13.884 c 0.734 0.946 1.303 1.975 3.515 3.1 -0.413 -0.897 -0.065 -2.151 0.217 -3.1 h 3.493 c 0.918 0 1.016 -0.36 1.016 -1.26 v -14.222 c 0 -0.9 -0.25 -1.286 -1.168 -1.286 l -21.31 -0.051 z"/><path d="m 29.776 15.464 c 1.039 0 1.863 0.871 1.863 1.93 v 15.187 c 0 1.059 -0.824 1.898 -1.863 1.898 h -13.712 c -0.831 1.113 -2.447 2.917 -6.321 4.419 1.725 -2.066 1.721 -3.469 1.527 -4.419 h -2.81 c -1.039 0 -1.893 -0.839 -1.893 -1.898 v -15.187 c 0 -1.059 0.854 -1.93 1.893 -1.93 h 21.316 z"/><path d="m 29.389 16.453 c 0.942 0 1.235 0.461 1.235 1.422 v 14.204 c 0 0.96 -0.242 1.368 -1.185 1.368 h -13.901 c -0.753 1.01 -2.068 2.596 -3.511 3.251 0.403 -1.167 0.248 -2.136 0.173 -3.251 h -3.407 c -0.942 0 -1.212 -0.408 -1.212 -1.368 v -14.08 c 0 -0.96 0.27 -1.548 1.212 -1.548 h 20.596 z"/></g></g></svg>