<svg xmlns="http://www.w3.org/2000/svg" xmlns:xlink="http://www.w3.org/1999/xlink" viewBox="0 0 256 256"><defs><path id="0" d="m 153.54 78.21 c 0 12.274 -9.95 22.22 -22.22 22.22 -12.274 0 -22.22 -9.95 -22.22 -22.22 0 -12.274 9.95 -22.22 22.22 -22.22 12.274 0 22.22 9.95 22.22 22.22 z" style="fill:#ff4500;color:#000"/><use id="1" xlink:href="#0"/></defs><g transform="matrix(0.98729 0 0 0.99573 0.94554246 -0.78654243)" style="fill:#fff"><use xlink:href="#1" transform="translate(15.781 13.13)" width="1" height="1"/><use xlink:href="#1" transform="translate(18.424 91.18)" width="1" height="1"/><use xlink:href="#1" transform="translate(-66.794 48.49)" width="1" height="1"/><path d="m 20.935 850.74 c -127.95 190.94 280.09 308.54 226.07 61.711 -23.02 -102.01 -167.39 -163.91 -226.07 -61.711 z" transform="translate(4.323 -795.63)" style="color:#000"/></g><g style="fill:#ff4500;fill-rule:evenodd"><path d="m 111.28917 200.9439 c -3.25078 -0.7157 -4.24683 -3.10379 -4.21528 -10.10635 0.0419 -9.30111 1.08363 -10.47071 9.17442 -10.3006 10.70982 2.73834 21.75683 0.35075 31.83331 -0.18263 15.15397 -0.6076 16.15471 -0.53985 18.16038 1.2294 1.84347 1.62617 2.12264 2.79605 2.12264 8.89521 0 5.87108 -0.33096 7.37801 -2.0181 9.18895 -2.00858 2.15595 -2.08984 2.16236 -17.21698 1.35713 -17.04462 -0.90729 -25.46465 -0.95734 -31.70832 -0.18849 -2.3349 0.28753 -5.09434 0.33585 -6.13207 0.10738 z"/><path d="m 107.98728 174.33615 c 0 -0.48391 -0.80295 -1.13467 -1.78433 -1.44615 -1.23649 -0.39245 -1.97083 -1.80994 -2.39174 -4.61677 -1.00557 -6.70566 -0.44978 -7.2082 7.97197 -7.2082 4.86131 2.25246 -4.46864 0.70816 0.55987 0.30314 2.2965 -1.50977 6.03629 -0.4857 9.37349 -0.27894 4.01405 0.2487 10.20983 -0.0899 13.34473 0.12398 2.71535 0.18526 2.60979 1.02342 3.20583 0.10546 0.50366 -0.80855 30.9535 -0.23675 40.61053 -0.33365 12.09435 -0.12135 13.98167 0.0697 15.76407 1.59585 1.11366 0.95354 2.02483 2.02925 2.02483 2.39046 0 0.36122 -1.66483 2.38951 -3.69963 4.50732 l -3.69962 3.85057 h -14.2249 c -8.85434 0 -14.22491 0.35617 -14.22491 0.94339 0 1.24156 -11.60015 1.23001 -12.84296 -0.0128 -0.79597 -0.79597 -12.02493 0.9227 -21.5082 0.99692 -7.22621 0.0566 -13.35874 -1.72237 -13.55998 -1.11865 -0.42832 1.28496 -4.91905 1.46579 -4.91905 0.19808 z"/><path d="m 96.666524 155.76225 c -1.62194 -0.50943 -4.731676 -6.2493 -4.686978 -8.65109 0.04924 -2.64559 2.369763 -4.91406 5.02683 -4.91406 1.369685 0 2.490337 0.36932 2.490337 0.82071 0 1.00228 6.891607 0.32818 13.297427 0.41359 14.60057 0.19466 56.08486 0.46476 56.35666 -0.32296 0.39604 -1.14775 23.74214 -1.22442 23.74214 -0.078 0 0.45835 0.78467 1.03856 1.74372 1.28936 3.81295 0.99711 3.03321 10.3398 -0.96897 11.61004 -9.78516 -2.26838 -21.1755 -1.33871 -32.4606 -1.20652 -13.37233 0.15665 -26.75119 -0.18926 -39.32495 0.45127 -9.25834 0.47164 -17.87317 2.09425 -25.215616 0.58763 z"/><path d="m 180.15709 138.30025 c -6.74528 -0.33277 -21.81604 -0.69597 -33.49056 -0.80712 -11.67453 -0.11115 -25.4717 -0.49922 -30.66038 -0.86239 -6.68739 -0.46806 -11.90787 -0.25318 -17.931354 0.73805 -7.828391 1.28826 -8.689533 1.27245 -10.937933 -0.20076 -1.3497 -0.88435 -3.011804 -3.33004 -3.718627 -5.47173 -1.178017 -3.56943 -1.134128 -3.98134 0.560574 -5.26111 1.462295 -1.10426 3.190411 -1.23039 8.442431 -0.61618 3.632076 0.42476 11.485849 0.73852 17.452829 0.69726 29.68619 -0.20528 73.07784 -1.04509 80.32337 -1.55459 10.2473 -0.72058 11.75477 0.22131 11.2947 7.05716 -0.14014 2.08238 -3.45085 5.15388 -6.60252 6.12548 -1.3576 0.41852 -7.98724 0.48869 -14.73253 0.15593 z"/><path d="m 83.740009,120.22726 c -0.623734,-0.62885 -1.791187,-1.69076 -2.59434,-2.35981 -1.991155,-1.65867 -1.975761,-9.92575 0.0222,-11.92372 1.824249,-1.82425 4.949818,-1.84901 16.399078,-0.12991 6.440703,0.96707 11.159613,1.11423 16.981133,0.52959 4.43401,-0.4453 21.50944,-1.06712 37.9454,-1.38182 l 29.88356,-0.57218 2.88021,2.81551 c 1.86537,1.82344 3.0957,4.16298 3.49174,6.63969 1.07496,4.0089 4.39844,7.01979 -2.12294,7.22382 -1.42689,0.008 -3.16707,-1.08831 -3.16707,-0.56944 0,0.54507 -2.98743,0.94339 -7.07547,0.94339 -3.89151,0 -7.07547,-0.39136 -7.07547,-0.8697 0,-0.49546 -11.94451,0.28964 -24.97737,0.0553 -12.58255,-0.22626 -27.73808,0.31125 -33.44563,0.0278 -10.44856,-0.5189 -19.878896,-1.63028 -19.878896,-0.0599 0,1.25766 -5.95262,0.95571 -7.266138,-0.36857 z"/><path d="m 83.197127 99.167954 c -0.37485 -0.374851 -0.681546 -1.42447 -0.681546 -2.332489 0 -0.908019 -0.530661 -1.866265 -1.179246 -2.129437 -0.763971 -0.309991 -0.847026 -0.752949 -0.235849 -1.257861 0.518868 -0.428653 1.679453 -2.37135 2.579077 -4.317105 0.899624 -1.945755 2.233922 -3.537736 2.965105 -3.537736 0.731183 0 1.577786 -0.64722 1.881339 -1.438267 0.401369 -1.045951 1.265225 -1.26366 3.166971 -0.79814 1.43828 0.352071 2.82732 0.95042 3.086754 1.329666 0.554634 0.810774 8.097548 0.81046 12.825728 0.763068 13.07808 -0.131086 33.40069 -0.162477 33.40069 -0.803224 0 -0.427657 6.89858 -0.964078 15.33019 -1.192046 8.4316 -0.227969 16.23491 -0.725339 17.34068 -1.105267 1.57037 -0.539561 2.78732 0.08605 5.55913 2.857856 4.29066 4.290658 5.54835 10.246818 2.75379 13.041372 -1.53917 1.539174 -3.33716 1.629378 -22.03739 1.105606 -17.43717 0.06692 -46.38552 -1.839295 -59.10267 -1.294408 -1.522827 0 -1.460677 -0.586171 -2.661907 -0.135929 -3.144723 1.178699 -14.185572 2.049615 -14.990846 1.244341 z"/><path d="m 168.14179 79.395631 c -0.18266 -0.182659 -11.33498 -0.724877 -24.78293 -1.204929 -16.41531 -0.58598 -29.33871 0.690893 -29.57389 -0.01468 -5.80658 -1.085995 -14.870558 0.66854 -18.025269 -0.975883 -1.150505 -0.773461 -0.96048 -1.314179 1.148842 -3.269033 1.39005 -1.288254 3.390097 -2.616103 4.444557 -2.950774 1.05446 -0.334673 1.9172 -1.004416 1.9172 -1.488318 0 -0.483903 1.03626 -0.879823 2.30281 -0.879823 1.26655 0 2.55003 -0.4 2.85218 -0.888889 0.30215 -0.488889 2.55598 -1.147435 5.00851 -1.463436 2.45253 -0.316001 5.19631 -0.977321 6.09728 -1.469601 0.90098 -0.49228 2.52255 -1.276875 6.40349 -1.276875 4.68379 0 -3.84422 0.989918 -1.61955 -0.07095 2.78934 -1.330146 18.18857 -2.556107 20.76247 -1.62537 1.70097 0.615078 5.08926 1.391987 7.52953 1.726464 2.44028 0.334476 4.43686 0.91685 4.43686 1.294164 0 0.377313 2.36074 1.428566 5.24608 2.336116 4.59045 1.443874 11.77196 6.893709 11.72061 8.894419 -0.0462 1.80041 -4.73652 4.459657 -5.86878 3.327401 z"/><rect width="7.5396605" height="137.5988" x="60.317284" y="53.371624" rx="3.76983025" ry="1.8849151"/></g></svg>