<svg xmlns="http://www.w3.org/2000/svg" viewBox="0 0 256 256"><path d="m 157.05 800.67 c 237.88 49.54 -17.492 390.35 -138.4 185.62 -51.828 -79.53 16.06 -211.1 138.4 -185.62 z" transform="matrix(1 0 0 -0.99577 1.342 1048.14)" style="fill:#fff;color:#000"/><g transform="matrix(3.22425 -1.59166 1.642 3.42332 13.158 80.66)"><rect rx="0.837" ry="0.908" height="42" width="25" y="3.5" x="11.5" style="fill:#ffdead"/><g style="fill:#ff4500;fill-rule:evenodd"><path d="M 12,6.1017 H 36 V 42 H 12 z"/><rect rx="0.185" ry="0.088" height="0.317" width="4" y="4.683" x="22"/></g><path d="m 24.99 43.579 c 0 0.547 -0.443 0.99 -0.99 0.99 -0.547 0 -0.99 -0.443 -0.99 -0.99 0 -0.547 0.443 -0.99 0.99 -0.99 0.547 0 0.99 0.443 0.99 0.99 z" style="fill:#ffdead"/><path d="M 12,6 H 36 V 16.133333 L 12,25 V 6 z" style="fill:#ff7f50"/></g><g transform="translate(-9.313 -817.81)" style="fill:#dc143c;color:#000"><path d="m 94.31,920.92 c -2.176,0 -3.927,1.711 -3.927,3.835 v 9.08 c -3.305,0.813 -6.427,2.092 -9.278,3.757 l -6.573,-6.418 c -1.539,-1.503 -4.02,-1.503 -5.551,0 l -6.452,6.301 c -1.539,1.503 -1.539,3.921 0,5.421 l 6.573,6.418 c -1.706,2.784 -3.01,5.833 -3.848,9.06 h -9.298 c -2.176,0 -3.927,1.711 -3.927,3.835 v 8.924 c 0,2.125 1.752,3.835 3.927,3.835 h 9.298 c 0.833,3.228 2.142,6.276 3.848,9.06 l -6.573,6.418 c -1.539,1.503 -1.539,3.921 0,5.421 l 6.452,6.301 c 1.539,1.503 4.02,1.503 5.551,0 l 6.573,-6.418 c 2.851,1.666 5.973,2.943 9.278,3.757 v 9.08 c 0,2.125 1.752,3.835 3.927,3.835 h 9.138 c 2.176,0 3.927,-1.711 3.927,-3.835 v -9.08 c 3.305,-0.813 6.427,-2.092 9.278,-3.757 l 6.573,6.418 c 1.539,1.503 4.02,1.503 5.551,0 l 6.452,-6.301 c 1.539,-1.503 1.539,-3.921 0,-5.421 l -6.573,-6.418 c 1.706,-2.784 3.01,-5.833 3.848,-9.06 h 9.298 c 2.176,0 3.927,-1.711 3.927,-3.835 v -8.924 c 0,-2.125 -1.752,-3.835 -3.927,-3.835 h -9.298 c -0.833,-3.228 -2.142,-6.276 -3.848,-9.06 l 6.573,-6.418 c 1.539,-1.503 1.539,-3.921 0,-5.421 l -6.452,-6.301 c -1.539,-1.503 -4.02,-1.503 -5.551,0 l -6.573,6.418 c -2.851,-1.666 -5.973,-2.943 -9.278,-3.757 v -9.08 c 0,-2.125 -1.752,-3.835 -3.927,-3.835 H 94.31 z m 4.569,30.12 c 8.847,0 16.01,6.996 16.01,15.639 0,8.639 -7.164,15.639 -16.01,15.639 -8.847,0 -16.01,-6.996 -16.01,-15.639 0,-8.639 7.164,-15.639 16.01,-15.639 z"/><path d="m 118.32 966.12 c 0 11.04 -8.948 19.986 -19.986 19.986 -11.04 0 -19.986 -8.948 -19.986 -19.986 0 -11.04 8.948 -19.986 19.986 -19.986 11.04 0 19.986 8.948 19.986 19.986 z" style="fill:#ff4500;stroke:#fff;stroke-width:9.894"/></g></svg>