<svg xmlns="http://www.w3.org/2000/svg" viewBox="0 0 256 256"><path d="m 3.74 950.97 c 19.829 131.87 217.21 135.83 247.04 7.636 30.702 -103.78 -80.47 -188.63 -163.63 -154.63 -55.684 16.07 -100.67 81.83 -83.41 146.99 z" transform="translate(0 -796.36)" style="fill:#fff;color:#000"/><g transform="matrix(0.66310162 0 0 0.64361703 42.032445 43.055175)" style="stroke:#ff4500;fill-rule:evenodd"><g style="fill:#ff4500"><path d="m 86.025015 201.28559 c 0 -9.77306 0.278205 -10.80179 2.921183 -10.80179 2.345586 0 2.921184 -1.02874 2.921184 -5.22092 0 -3.92315 0.726124 -5.42153 2.921192 -6.02797 2.237554 -0.6182 2.921186 -2.10483 2.921186 -6.35243 0 -3.42076 0.702638 -5.54538 1.833929 -5.54538 1.008661 0 3.700881 -2.36563 5.982741 -5.25696 2.6224 -3.32287 5.97796 -5.61953 9.12053 -6.24239 2.94928 -0.58454 4.97169 -1.89851 4.97169 -3.23013 0 -1.76718 2.35965 -2.24475 11.09118 -2.24475 9.86283 0 11.1758 -0.34179 11.8551 -3.08622 0.42016 -1.69743 1.60284 -3.08622 2.62819 -3.08622 2.57944 0 3.63739 -3.59058 3.63739 -12.3449 0 -8.90818 -1.06005 -12.3449 -3.80775 -12.3449 -1.58839 0 -2.03461 -3.04593 -2.03461 -13.88801 0 -11.025821 0.43123 -13.888011 2.09246 -13.888011 1.15085 0 2.52477 -1.439029 3.05314 -3.197824 0.60683 -2.019994 1.76303 -2.872538 3.13908 -2.314674 1.19811 0.485735 3.11052 0.883152 4.2498 0.883152 1.13929 0 2.07145 0.960619 2.07145 2.134697 0 1.174078 1.31453 2.497872 2.92118 2.941769 2.65103 0.73242 2.92119 2.10482 2.92119 14.839531 0 13.93923 0.0242 14.03248 3.65148 14.03248 2.67774 0 3.65148 -0.823 3.65148 -3.08622 0 -2.05749 0.97373 -3.08623 2.92119 -3.08623 1.69915 0 2.92118 -1.02875 2.92118 -2.45914 0 -1.35252 1.31453 -2.82231 2.92119 -3.2662 2.16915 -0.59928 2.92117 -2.10482 2.92117 -5.84801 0 -3.743171 0.75206 -5.248711 2.9212 -5.847991 2.21463 -0.61186 2.92119 -2.10484 2.92119 -6.172455 0 -4.067628 0.70657 -5.560602 2.92119 -6.172449 1.60665 -0.443892 2.92118 -1.793414 2.92118 -2.998952 0 -1.55766 1.26785 -1.995281 4.38179 -1.512431 2.40998 0.373695 4.38177 1.595429 4.38177 2.714984 0 1.119546 1.31454 2.476328 2.9212 3.015065 2.52233 0.845797 2.92117 2.33478 2.92117 10.905778 0 8.897501 -0.30276 9.926241 -2.92117 9.926241 -2.26206 0 -2.9212 1.02873 -2.9212 4.5592 0 4.56997 -4.66588 11.01574 -9.34801 12.91393 -1.5315 0.62089 -2.33673 2.82519 -2.33673 6.39667 0 2.99713 -0.57499 5.44934 -1.27773 5.44934 -0.70276 0 -4.31772 3.07728 -8.03326 6.83841 -6.52908 6.60918 -8.91133 13.22204 -4.76318 13.22204 1.97023 0 3.85002 9.14635 3.85002 18.73272 0 2.80251 0.76391 4.41397 2.09246 4.41397 1.15085 0 2.50968 1.3888 3.01961 3.08623 0.72009 2.39699 2.20992 3.08622 6.67109 3.08622 5.29724 0 5.7424 0.33003 5.724 4.24356 -0.031 6.60761 -1.58747 11.18757 -3.80188 11.18757 -1.11129 0 -2.02055 1.01014 -2.02055 2.24475 0 2.63228 -8.48795 4.71785 -13.01834 3.19872 -1.6765 -0.56215 -3.04818 -2.01692 -3.04818 -3.23279 0 -1.21588 -0.70782 -2.21068 -1.57294 -2.21068 -3.09517 0 -10.11181 -9.01921 -10.11181 -12.99776 0 -2.75946 -0.78227 -3.97562 -2.55603 -3.97367 -2.20559 0.003 -2.48819 -1.26696 -2.06116 -9.25867 l 0.49487 -9.26149 h -11.63162 h -11.63159 l -6.75555 6.83841 c -3.71553 3.76113 -6.75552 7.92754 -6.75552 9.25869 0 1.33112 -0.91558 2.42025 -2.03462 2.42025 -2.23326 0 -3.80775 3.24252 -3.80775 7.84176 0 1.62802 -0.92814 2.96003 -2.06251 2.96003 -1.26802 0 -2.44272 2.37766 -3.04957 6.17245 -0.60684 3.79479 -1.78155 6.17244 -3.04957 6.17244 -1.13438 0 -2.0625 1.04162 -2.0625 2.31467 0 1.85174 -2.19089 2.31467 -10.954452 2.31467 h -10.954443 v -10.80178 z" style="stroke-width:8.21803856"/><path d="m 31.501023,135.57383 0,-101.123399 100.605797,0 100.6058,0 0,101.123399 0,101.12342 -100.6058,0 -100.605797,0 z m 195.908427,0.42136 0.42236,-96.488589 c -55.26858,0.913903 -110.31732,0.394088 -165.440107,0 -16.69664,0 -19.43961,0.37898 -19.43961,2.68587 0,1.47723 -1.36376,3.0533 -3.03059,3.50238 -2.78866,0.75133 -3.1034,3.59771 -3.94271,35.65675 -0.50166,19.162139 -0.49624,60.793279 0.0121,92.513639 l 0.92417,57.67338 18.96823,0.5397 c 10.43253,0.29685 53.198757,0.50951 95.036037,0.47258 l 76.0678,-0.0671 0.42236,-96.48859 0,-5e-5 z" style="stroke-width:9.0892687"/></g><path d="m 119.32203 103.05085 a 17.355932 18.440678 0 1 1 -34.71186 0 17.355932 18.440678 0 1 1 34.71186 0 z" transform="matrix(1.9088089 0 0 1.8997132 -113.88365 -110.3483)" style="fill:#f00"/></g></svg>