<svg xmlns="http://www.w3.org/2000/svg" viewBox="0 0 256 256"><defs><clipPath><path transform="matrix(15.33333 0 0 11.5 415 -125.5)" d="m -24 13 c 0 1.105 -0.672 2 -1.5 2 -0.828 0 -1.5 -0.895 -1.5 -2 0 -1.105 0.672 -2 1.5 -2 0.828 0 1.5 0.895 1.5 2 z"/></clipPath></defs><path d="M 223.99638,52.419437 C 278.09444,133.08479 255.27982,210.55512 191.51903,239.8736 110.89771,276.9449 -21.318139,243.3102 7.5586207,111.45378 29.597431,13.868761 167.8171,-45.358919 223.99638,52.419437 z" style="fill:#fff;color:#000"/><g transform="matrix(0.56471089 0 0 0.58224244 70.079272 47.293147)" style="fill:#ff4500;stroke:#c0c0c0"><g style="fill-rule:evenodd"><rect width="174.80798" height="234.65482" rx="11.585404" ry="9.9917994" x="19.081161" y="25.81039" style="stroke-miterlimit:3.42857146;stroke-linecap:round;stroke-linejoin:round;stroke-width:6.28502035"/><g transform="matrix(1.6881013 0 0 1.6910356 -69.855516 -127.7459)" style="fill:#fff;stroke:#fff"><path d="m 107.08391,210.23944 c 9.94151,0 18.00388,-8.06231 18.00388,-18.00389 0,-9.9415 -8.06237,-18.00388 -18.00388,-18.00388 -9.941571,0 -18.003939,8.06238 -18.003939,18.00388 0,9.94158 8.062368,18.00389 18.003939,18.00389 z m -3.68295,-14.17176 -4.266294,7.40926 c 0,0 -1.089855,1.59516 -2.947918,0.26451 -1.997117,-1.43024 -4.598118,-5.60922 -4.556319,-8.12369 0.02383,-1.46228 0.869236,-1.86291 2.07419,-1.87064 2.277919,-0.0147 8.217591,-0.0144 8.217591,-0.0144 1.18411,-0.002 2.0367,1.16393 1.47875,2.33499 z m 8.81633,-5.0902 8.54977,0.01 c 0,0 1.92651,-0.146 1.70296,-2.42057 -0.23996,-2.44481 -2.55866,-6.78681 -4.75693,-8.00799 -1.27844,-0.71024 -2.0482,-0.17858 -2.65724,0.86121 -1.15171,1.96526 -4.12143,7.10924 -4.12143,7.10924 -0.59388,1.02481 -0.0104,2.34618 1.28287,2.44823 z m -10.24717,-0.0617 -8.549896,0.01 c 0,0 -1.926393,-0.14624 -1.703021,-2.42069 0.240141,-2.4447 2.558603,-6.78668 4.757174,-8.00781 1.278254,-0.71049 2.04802,-0.1787 2.657115,0.86103 1.151778,1.96538 4.121368,7.10947 4.121368,7.10947 0.59371,1.0244 0.0102,2.34583 -1.28274,2.44812 z m 8.81626,5.09008 4.26636,7.40926 c 0,0 1.08979,1.59534 2.94786,0.26457 1.99717,-1.4303 4.59806,-5.60928 4.55655,-8.12375 -0.0241,-1.4621 -0.86941,-1.86304 -2.07442,-1.87064 -2.2778,-0.0147 -8.21748,-0.0146 -8.21748,-0.0146 -1.18435,-0.002 -2.03694,1.16417 -1.47887,2.33511 z m -5.11409,1.39143 -4.2836,7.3995 c 0,0 -0.83654,1.74135 1.24496,2.68514 2.23732,1.01452 7.15684,1.17747 9.31355,-0.11576 1.2543,-0.75204 1.17885,-1.68445 0.58293,-2.73185 -1.12621,-1.98005 -4.09616,-7.12384 -4.09616,-7.12384 -0.59053,-1.0265 -2.02665,-1.18196 -2.76168,-0.11319 z m 0,-10.18009 -4.2836,-7.39956 c 0,0 -0.83636,-1.74134 1.24496,-2.68513 2.23726,-1.0144 7.15678,-1.17759 9.31349,0.11593 1.25442,0.7518 1.17879,1.68421 0.58293,2.73167 -1.12627,1.98011 -4.09616,7.12391 -4.09616,7.12391 -0.59035,1.02637 -2.02652,1.18171 -2.76162,0.11318 z m 0.61586,2.83234 c -1.20704,0.43926 -1.82967,1.77464 -1.3903,2.98181 0.4392,1.20705 1.77465,1.82968 2.98176,1.3903 1.20705,-0.4392 1.82968,-1.77464 1.3903,-2.98175 -0.4392,-1.20705 -1.77459,-1.82968 -2.98176,-1.39036 z"/><path d="m 107.08391,212.32345 c 0.47232,0 0.9408,-0.0164 1.40497,-0.0485 l 1.25777,2.99475 1.25382,-0.23074 1.8e-4,5.1e-4 1.46581,-0.26936 0.10893,-3.20752 c 1.49534,-0.42429 2.91995,-1.01745 4.25138,-1.7577 l 2.40434,2.18145 1.03883,-0.73899 5.2e-4,5.2e-4 1.21453,-0.86385 -1.25915,-2.95858 c 1.16843,-1.01194 2.21912,-2.15647 3.12836,-3.41017 l 3.09056,0.95769 0.62922,-1.10872 5.1e-4,3.4e-4 0.73582,-1.29616 -2.38248,-2.1409 c 0.85109,-1.9025 1.41611,-3.961 1.6375,-6.12118 l 3.13835,-0.66413 0.0108,-1.49025 -5.1e-4,0 0.009,-1.27478 -3.15806,-0.71671 c -0.15995,-1.55791 -0.49854,-3.06277 -0.9941,-4.49445 l 2.5619,-1.92681 -0.61975,-1.35527 -5.2e-4,0 -0.53034,-1.15933 -3.1665,0.68551 c -0.79708,-1.32705 -1.74297,-2.55465 -2.81479,-3.65929 l 1.51342,-2.84012 -1.13441,-0.96625 -5.2e-4,8.6e-4 -0.97062,-0.82653 -2.58867,1.96597 c -1.26448,-0.85529 -2.63124,-1.57067 -4.07867,-2.12306 l 0.17061,-3.19914 -1.43659,-0.39625 -1.7e-4,8.6e-4 -1.22903,-0.33895 -1.51018,2.86618 c -1.02698,-0.16229 -2.07958,-0.24751 -3.15213,-0.24751 -0.48813,0 -0.97194,0.0177 -1.45138,0.0519 l -1.19568,-2.96737 -1.46946,0.24793 1.7e-4,10e-4 -1.25718,0.21211 -0.1569,3.22621 c -1.49695,0.428 -2.922463,1.02524 -4.254373,1.76991 l -2.336488,-2.18282 -1.227051,0.84576 5.16e-4,8.6e-4 -1.04967,0.7236 1.223757,2.99667 c -1.152435,1.00223 -2.189708,2.13341 -3.088887,3.37143 l -3.05595,-0.99596 -0.754617,1.28508 6.88e-4,8.6e-4 -0.645504,1.09932 2.377568,2.20036 c -0.853187,1.90394 -1.419343,3.96436 -1.641337,6.12693 l -3.157995,0.71665 0.0094,1.2749 -8.95e-4,0 0.01089,1.49025 3.138232,0.66401 c 0.159654,1.55816 0.497828,3.06368 0.99332,4.4956 l -2.556088,1.98154 0.547293,1.15142 -8.95e-4,3.4e-4 0.639635,1.34605 3.1244,-0.72444 c 0.791325,1.31784 1.72913,2.53747 2.791497,3.63624 l -1.480067,2.87774 0.98272,0.81228 -5.17e-4,5.2e-4 1.148542,0.9496 2.519678,-1.97233 c 1.265257,0.85948 2.632979,1.57876 4.082086,2.13462 l -0.12528,3.23501 1.233882,0.3208 -1.7e-4,0.001 1.44233,0.37524 1.45258,-2.85773 c 1.03818,0.16558 2.10234,0.25272 3.1871,0.25272 l 0,0 z m 0,-2.42039 c 9.75587,0 17.66739,-7.91158 17.66739,-17.66745 0,-9.75587 -7.91152,-17.66738 -17.66739,-17.66738 -9.755866,0 -17.667444,7.91151 -17.667444,17.66738 0,9.75587 7.911578,17.66745 17.667444,17.66745 z"/></g></g><rect rx="3.2726581" width="128.50946" height="96.100922" x="42.801537" y="43.225307" style="fill:#fff;stroke-width:6"/><path d="M 46.3898,45.7692 H 167.485 V 57.2005 H 46.3898 z"/><rect rx="0.552055" width="2.0651498" height="3.7788055" x="161.90326" y="49.756008"/><path d="M 46.2933,57.2881 H 167.388 V 70.0648 H 46.2933 z"/><path d="m 46.279,57.3177 h 121.095 v 0.4465 H 46.279 z" style="fill:#fff"/><path d="M 46.3227,69.5451 H 167.418 v 0.4465 H 46.3227 z"/><g line-height="125%" text-align="start" style="font-family:LucidaMAC"><text x="89.921928" y="58.443871" transform="scale(1.0762723 0.9291329)" style="font-size:9.1047039"><tspan x="89.921928" y="58.443871">iPod</tspan></text><g transform="scale(1.0020406 0.99796356)" style="font-size:9.27792835"><text x="49.975201" y="66.749039"><tspan x="49.975201" y="66.749039">Music</tspan></text><g><text y="82.915741" x="49.840092"><tspan y="82.915741" x="49.840092">Photos</tspan></text><text x="49.77515" y="96.498138"><tspan x="49.77515" y="96.498138">Extras</tspan></text><text y="109.49741" x="50.21207"><tspan y="109.49741" x="50.21207">Settings</tspan></text><text x="50.21207" y="123.50164"><tspan x="50.21207" y="123.50164">Shufle Songs</tspan></text></g></g></g><g><rect rx="0.00773487" width="1.3173823" height="1.4273237" x="161.12224" y="74.418159"/><rect rx="0.00773487" y="75.789337" x="162.40349" height="1.4273237" width="1.3173823"/><rect rx="0.00773487" width="1.3173823" height="1.4273237" x="163.68472" y="77.205154"/><rect rx="0.00773487" y="78.606613" x="162.34959" height="1.4273237" width="1.3173823"/><rect rx="0.00773487" width="1.3173823" height="1.4273237" x="161.04366" y="79.982559"/><rect rx="0.00773487" y="88.08606" x="161.12224" height="1.4273237" width="1.3173823"/><rect rx="0.00773487" width="1.3173823" height="1.4273237" x="162.40349" y="89.457237"/><rect rx="0.00773487" y="90.873055" x="163.68472" height="1.4273237" width="1.3173823"/><rect rx="0.00773487" width="1.3173823" height="1.4273237" x="162.34959" y="92.274513"/><rect rx="0.00773487" y="93.650459" x="161.04366" height="1.4273237" width="1.3173823"/><rect rx="0.00773487" width="1.3173823" height="1.4273237" x="161.12224" y="102.06043"/><rect rx="0.00773487" y="103.43161" x="162.40349" height="1.4273237" width="1.3173823"/><rect rx="0.00773487" width="1.3173823" height="1.4273237" x="163.68472" y="104.84743"/><rect rx="0.00773487" y="106.24889" x="162.34959" height="1.4273237" width="1.3173823"/><rect rx="0.00773487" width="1.3173823" height="1.4273237" x="161.04366" y="107.62483"/></g><path d="m 145.80797 51.583734 v -2.821072 h 5.8173 h 5.81731 v 2.821072 v 2.821073 h -5.81731 h -5.8173 v -2.821073 z" style="fill:#fff;stroke:none;fill-rule:evenodd"/></g></svg>