<svg xmlns="http://www.w3.org/2000/svg" viewBox="0 0 256 256"><defs><clipPath id="0"><rect x="9.865" y="1.985" width="87.7" height="87.7" rx="6" transform="matrix(0.99692 0.07844 -0.07844 0.99692 0 0)" style="fill:url(#1)"/></clipPath><linearGradient y1="0.908" x2="0" gradientUnits="userSpaceOnUse" y2="90.72" id="1"><stop style="stop-color:#d90000"/><stop offset="1" style="stop-color:#a60000"/></linearGradient></defs><path d="m 24.967 203.22 c -127.95 -192.46 280.09 -311 226.07 -62.2 -23.02 102.82 -167.39 165.22 -226.07 62.2 z" style="fill:#fff;color:#000"/><g transform="matrix(1.69518 0 0 1.72457 46.09 47.4)" style="fill:#ff4500"><g transform="translate(135.66 -99.18)"><g transform="matrix(0.9549 -0.07514 0.07514 0.9549 -139.11 103.28)" style="clip-path:url(#0);fill:#ff6347;color:#000"><path d="M -17.445,102.72 18.351,59.907 c -3.31,11.38 22.255,15.338 22.091,19.211 L 2.331,118.93 c -12.739,6.39 -23.655,-12.14 -19.776,-16.21 z"/><g style="fill:#ff4500;stroke:#ffdead;stroke-linecap:round;stroke-linejoin:round"><path transform="matrix(0.48633 0.36046 -0.30897 0.54707 15.292 -295.39)" d="m 342.27 456.27 c 0 7.888 -10.326 14.283 -23.06 14.283 -12.737 0 -23.06 -6.395 -23.06 -14.283 0 -7.888 10.326 -14.283 23.06 -14.283 12.737 0 23.06 6.395 23.06 14.283 z" style="stroke-width:2.327"/><path d="m 28.19,56.57 -3.584,3.905 -0.299,0.151 c -0.644,0.362 -1.117,0.986 -1.493,1.652 -1.726,3.057 0.438,8.12 4.826,11.372 3.02,2.236 6.225,2.951 8.545,2.223 1.054,-0.331 2,-0.999 2.541,-1.955 0.113,-0.199 0.218,-0.385 0.298,-0.6 L 43.656,68.961 28.191,56.57 z" style="stroke-width:0.288"/><path transform="matrix(0.34449 0.25534 -0.21886 0.38752 26.03 -195.81)" d="m 342.27 456.27 c 0 7.888 -10.326 14.283 -23.06 14.283 -12.737 0 -23.06 -6.395 -23.06 -14.283 0 -7.888 10.326 -14.283 23.06 -14.283 12.737 0 23.06 6.395 23.06 14.283 z" style="stroke-width:0.661"/></g></g><g transform="matrix(6.4554 -0.29836 0.29836 6.4554 -1180 -96.22)"><path d="m 164.36,46.522 5.334,-6.379 0.769,-0.301 0.309,-1.01 c 0.113,-0.138 0.629,-0.223 0.966,-0.239 0.68,0.203 0.719,0.218 0.914,0.894 0.032,0.316 0.042,0.785 -0.071,0.923 l -0.888,0.424 -0.138,0.886 -5.479,6.133 c -0.54,0.681 -2.064,-0.176 -1.716,-1.332 z" style="stroke:#c1bec1;color:#000;stroke-linecap:round;stroke-linejoin:round;stroke-width:0.044"/><path d="m 169.73,40.22 0.757,-0.353 c 0.1,0.619 0.39,1.038 1.166,1.063 l -0.141,0.846 C 170.034,41.63 169.96,40.93 169.73,40.219 z"/><path d="m 170.47,39.862 0.327,-1.036 c 0.313,0.847 0.848,1.442 1.793,1.568 l -0.951,0.512 c -0.906,0.051 -1.091,-0.456 -1.169,-1.045 z"/><path d="m 170.8 38.806 c 0.29 1.014 0.96 1.48 1.857 1.577 0.43 -1.736 -0.847 -2.139 -1.857 -1.577 z" style="stroke:#d3d2d4;stroke-width:0.044"/><path d="m 168.43,41.68 0.551,-0.674 c 0.364,0.752 0.999,1.293 1.844,1.533 l -0.625,0.706 c -0.759,-0.282 -1.445,-0.725 -1.77,-1.565 z" style="fill:#ffdead"/><path d="m 167.01,43.32 0.316,-0.343 c 0.34,0.759 0.927,1.308 1.718,1.55 l -0.367,0.396 c -0.711,-0.284 -1.364,-0.754 -1.668,-1.602 z" style="fill:#ffe4b5"/></g></g><g transform="matrix(0.96488 0 0 1.0364 0.508 -78.911)"><path d="m 66.98 150.29 v -15.452 h -4.706 v 15.663 c 0 2.95 -0.808 4.741 -4.109 4.741 -0.983 0 -1.896 -0.105 -2.845 -0.386 l -0.492 3.652 c 0.948 0.316 2.177 0.492 3.371 0.492 5.303 0 8.78 -2.458 8.78 -8.709"/><path d="m 82.67 145.9 v -0.07 c 2.283 -0.808 4.074 -2.669 4.074 -5.197 0 -3.477 -3.055 -5.97 -8.639 -5.97 -1.756 0 -4.495 0.211 -7.02 0.527 v 23.14 c 2.037 0.281 4.495 0.492 6.462 0.492 5.724 0 9.833 -2.529 9.833 -7.515 0 -2.774 -1.686 -4.495 -4.706 -5.408 m -6.883 -1.264 v -6.04 c 0.878 -0.14 1.791 -0.176 2.388 -0.176 2.388 0 3.442 1.229 3.442 3.126 0 2.037 -1.194 3.09 -3.512 3.09 h -2.318 m 2.423 3.617 c 2.845 0 4.109 1.159 4.109 3.547 0 2.177 -1.475 3.266 -3.933 3.266 -0.737 0 -1.651 -0.035 -2.599 -0.14 v -6.673 h 2.423"/></g></g></svg>