<svg xmlns="http://www.w3.org/2000/svg" xmlns:xlink="http://www.w3.org/1999/xlink" viewBox="0 0 256 256"><defs><rect height="85" rx="7" y="-92" x="5" width="86" id="0"/><path d="m 12 -94.03 c -4.972 0 -9.03 4.06 -9.03 9.03 v 71 c 0 4.972 4.06 9.03 9.03 9.03 h 72 c 4.972 0 9.03 -4.06 9.03 -9.03 v -71 c 0 -4.972 -4.06 -9.03 -9.03 -9.03 h -72 z" id="1"/><clipPath><rect x="6" y="6" width="84" height="84" rx="6" style="fill:#ff4500"/></clipPath><clipPath><rect x="6" y="6" width="84" height="84" rx="6" style="fill:#ff4500"/></clipPath><linearGradient y1="20.221" x2="0" gradientUnits="userSpaceOnUse" y2="138.66" id="6"><stop style="stop-color:#ff4500"/><stop offset="1" style="stop-color:#ff4500;stop-opacity:0"/></linearGradient><linearGradient xlink:href="#4" id="5" gradientUnits="userSpaceOnUse" gradientTransform="matrix(1.0238 0 0 1.0119 -1.143 -98.07)" y1="6.132" x2="0" y2="90.24"/><linearGradient y1="92.54" gradientTransform="scale(1.0059 0.99417)" x2="0" gradientUnits="userSpaceOnUse" y2="7.02" id="4"><stop/><stop offset="1" style="stop-opacity:0.588"/></linearGradient><linearGradient xlink:href="#4" id="3" gradientUnits="userSpaceOnUse" gradientTransform="matrix(1.0238 0 0 -0.99104 -1.143 98.01)" y1="6.132" x2="0" y2="90.24"/><linearGradient xlink:href="#6" id="2" gradientUnits="userSpaceOnUse" gradientTransform="matrix(1.0528 0 0 1.0466 -2.655 -2.939)" y1="6" x2="0" y2="63.893"/><radialGradient xlink:href="#6" id="7" gradientUnits="userSpaceOnUse" gradientTransform="matrix(1.0255 0 0 0.82377 -2.524 14.177)" cx="61.31" cy="60.43" r="14.368"/><radialGradient xlink:href="#6" id="8" gradientUnits="userSpaceOnUse" gradientTransform="matrix(-1.0246 0.04304 -0.03402 -0.82306 101.23 82.25)" cx="60.62" cy="59.17" r="14.368"/></defs><path d="m 24.967 203.22 c -127.95 -192.46 280.09 -311 226.07 -62.2 -23.02 102.82 -167.39 165.22 -226.07 62.2 z" style="fill:#fff;color:#000"/><g transform="matrix(1.5572 0 0 1.5501 51.26 53.871)"><g transform="matrix(1.0428 0 0 1.0542 -1.819 -4.188)"><path d="M 12,95.03 C 6.489,95.03 1.97,90.603 1.97,85.206 V 15.666 C 1.97,10.268 6.49,5.841 12,5.841 h 72 c 5.511,0 10.03,4.427 10.03,9.824 v 69.54 c 0,5.397 -4.52,9.824 -10.03,9.824 H 12 z" style="fill:url(#3);opacity:0.08"/><use xlink:href="#1" transform="scale(1 -1)" width="1" height="1" style="fill:url(#5);opacity:0.1"/><path d="m 12 93 c -4.409 0 -8 -3.565 -8 -7.942 v -70.49 c 0 -4.377 3.591 -7.942 8 -7.942 h 72 c 4.409 0 8 3.565 8 7.943 v 70.49 c 0 4.378 -3.591 7.943 -8 7.943 h -72 z" style="fill:#dc143c"/></g><g transform="matrix(0 -0.842 -0.98204 0 130 121.84)" style="fill:none;stroke:#000"><path d="m 69.64 38.865 c 0 0 -0.247 15.65 -0.118 23.593 0.097 5.972 -2.708 8.115 -5.07 8.321 -4.843 0.422 -28.13 0.222 -28.13 0.222" style="opacity:0.529;stroke-width:2.117"/><path d="m 67.848 38.884 c 0 0 -0.083 15.731 -0.023 23.365 0.04 5.106 -1.3 6.603 -3.546 6.802 -4.605 0.406 -27.938 0.213 -27.938 0.213" style="opacity:0.377;stroke-width:1.322"/><path d="m 66.65 38.909 c 0 0 -0.176 14.979 -0.118 22.316 0.039 4.907 -0.403 6.511 -2.591 6.615 -4.94 0.235 -27.62 0.127 -27.62 0.127" style="opacity:0.186;stroke-width:1.278"/></g><path d="m 36.811 3.301 c 0 0 -0.199 16.11 -0.069 24.05 0.097 5.972 -2.708 8.115 -5.07 8.321 -4.843 0.422 -28.13 0.222 -28.13 0.222" style="fill:none;opacity:0.529;stroke:#000;stroke-width:2.117"/><path d="m 37.09,3.447 v 28.06 c 0,2.633 -1.913,4.76 -4.259,4.76 H 3.571 v 49.19 c 0,3.495 2.827,6.302 6.319,6.302 H 59.94 V 66.961 c 0,-1.999 1.441,-3.581 3.205,-3.581 h 28.12 c 0.189,0 0.37,0.01 0.549,0.045 V 9.749 c 0,-3.495 -2.782,-6.302 -6.273,-6.302 h -48.45 z" style="fill:#ff4500"/><g transform="matrix(0.37087 0 0 0.36382 6.447 53.711)"><path id="9" transform="scale(1 -1)" d="m 12 -95.03 c -5.511 0 -10.03 4.52 -10.03 10.03 v 71 c 0 5.511 4.52 10.03 10.03 10.03 h 72 c 5.511 0 10.03 -4.52 10.03 -10.03 v -71 c 0 -5.511 -4.52 -10.03 -10.03 -10.03 h -72 z" style="fill:url(#5);opacity:0.08"/><use xlink:href="#1" transform="scale(1 -1)" width="1" height="1" style="fill:url(#5);opacity:0.1"/><path id="A" transform="scale(1 -1)" d="m 12 -93 c -4.409 0 -8 3.591 -8 8 v 71 c 0 4.409 3.591 8 8 8 h 72 c 4.409 0 8 -3.591 8 -8 v -71 c 0 -4.409 -3.591 -8 -8 -8 h -72 z" style="fill:url(#5);opacity:0.2"/><use xlink:href="#0" transform="scale(1 -1)" width="1" height="1" style="fill:url(#5);opacity:0.3"/><rect id="B" transform="scale(1 -1)" rx="6" height="84" width="84" y="-91" x="6" style="fill:#ff7f50;opacity:0.45"/></g><rect x="8.834" y="56.52" width="30.845" height="29.97" ry="1.922" rx="2.034" style="fill:#ffdead"/><path d="m 9.979,3.341 c -3.5,0 -6.317,2.801 -6.317,6.28 v 2.093 71.17 2.093 c 0,0.35 0.043,0.681 0.099,1.014 0.051,0.309 0.102,0.625 0.197,0.916 0.01,0.032 0.022,0.067 0.033,0.098 0.104,0.301 0.247,0.573 0.395,0.85 0.152,0.286 0.332,0.561 0.526,0.818 0.194,0.257 0.394,0.496 0.625,0.72 0.463,0.448 0.993,0.852 1.579,1.145 0.293,0.146 0.604,0.258 0.921,0.36 C 7.767,90.793 7.525,90.651 7.28,90.506 7.273,90.502 7.255,90.51 7.247,90.506 7.213,90.486 7.181,90.462 7.148,90.441 7.021,90.361 6.905,90.27 6.786,90.179 6.674,90.095 6.562,90.011 6.457,89.918 6.27,89.749 6.091,89.556 5.931,89.362 5.818,89.225 5.701,89.084 5.602,88.936 5.575,88.896 5.562,88.846 5.536,88.806 5.468,88.698 5.399,88.592 5.339,88.479 5.233,88.275 5.123,88.043 5.043,87.824 5.034,87.801 5.018,87.782 5.01,87.759 4.977,87.663 4.972,87.563 4.944,87.465 4.912,87.353 4.87,87.252 4.845,87.138 4.768,86.781 4.713,86.407 4.713,86.026 V 83.933 12.763 10.67 c 0,-2.912 2.335,-5.233 5.264,-5.233 h 2.106 71.59 2.106 c 2.929,0 5.264,2.321 5.264,5.233 v 2.093 71.17 2.093 c 0,0.381 -0.055,0.755 -0.132,1.112 -0.046,0.217 -0.093,0.416 -0.165,0.621 -0.009,0.023 -0.025,0.043 -0.033,0.065 -0.066,0.182 -0.146,0.385 -0.23,0.556 -0.044,0.087 -0.083,0.178 -0.132,0.262 -0.057,0.102 -0.134,0.197 -0.197,0.294 -0.099,0.148 -0.216,0.289 -0.329,0.425 -0.151,0.183 -0.319,0.363 -0.494,0.523 -0.012,0.01 -0.021,0.022 -0.033,0.033 -0.146,0.131 -0.3,0.245 -0.461,0.36 -0.108,0.077 -0.215,0.161 -0.329,0.229 -0.007,0.004 -0.025,-0.004 -0.033,0 -0.244,0.145 -0.487,0.288 -0.757,0.392 0.317,-0.101 0.628,-0.214 0.921,-0.36 0.587,-0.292 1.116,-0.697 1.579,-1.145 0.232,-0.224 0.431,-0.462 0.625,-0.72 0.194,-0.257 0.374,-0.531 0.526,-0.818 0.148,-0.277 0.291,-0.549 0.395,-0.85 0.01,-0.032 0.022,-0.066 0.033,-0.098 0.095,-0.291 0.146,-0.606 0.197,-0.916 0.055,-0.333 0.099,-0.664 0.099,-1.014 V 82.884 11.714 9.621 c 0,-3.479 -2.817,-6.28 -6.317,-6.28 h -75.8 z" style="fill:url(#2);opacity:0.53"/><g style="fill:none;stroke-width:1.648"><path d="M 58.61,85.34 59.219,66.2 c 0,0 1.128,-3.504 3.124,-3.504 1.996,0 24.492,-0.33 24.492,-0.33" style="opacity:0.606;stroke:url(#7)"/><path d="m 37.22,13.712 c 0,0 0.638,11.403 0.692,17.11 0.036,3.818 -2.545,6.06 -4.536,6.204 C 29.294,37.329 9.595,36.737 9.595,36.737" style="opacity:0.621;stroke:url(#8)"/></g><g transform="matrix(0.38208 0 0 0.3718 53.33 6.04)"><use xlink:href="#9" width="1" height="1"/><use xlink:href="#1" transform="scale(1 -1)" width="1" height="1" style="fill:url(#5);opacity:0.1"/><use xlink:href="#A" width="1" height="1"/><use xlink:href="#0" transform="scale(1 -1)" width="1" height="1" style="fill:url(#5);opacity:0.3"/><use xlink:href="#B" width="1" height="1"/></g><rect x="55.696" y="8.738" width="31.901" height="30.924" ry="2.517" rx="2.083" style="fill:#ffdead"/></g></svg>