<svg xmlns="http://www.w3.org/2000/svg" xmlns:xlink="http://www.w3.org/1999/xlink" viewBox="0 0 256 256"><defs><rect height="85" rx="7" y="-92" x="5" width="86" id="0"/><path d="m 12 -94.03 c -4.972 0 -9.03 4.06 -9.03 9.03 v 71 c 0 4.972 4.06 9.03 9.03 9.03 h 72 c 4.972 0 9.03 -4.06 9.03 -9.03 v -71 c 0 -4.972 -4.06 -9.03 -9.03 -9.03 h -72 z" id="1"/><path d="m 31.482 67.67 l 0.725 1.084 h -0.389 l -0.523 -0.805 l -0.531 0.805 h -0.381 l 0.74 -1.068 l -0.701 -1.027 h 0.381 l 0.504 0.76 l 0.504 -0.76 h 0.377 l -0.705 1.012" id="2" style="fill:#373737"/><clipPath><rect x="6" y="6" width="84" height="84" rx="6" style="fill:#ff4500"/></clipPath><clipPath><rect x="6" y="6" width="84" height="84" rx="6" style="fill:#ff4500"/></clipPath></defs><path d="m 24.967 203.22 c -127.95 -192.46 280.09 -311 226.07 -62.2 -23.02 102.82 -167.39 165.22 -226.07 62.2 z" style="fill:#fff;color:#000"/><g transform="matrix(1.6024 0 0 1.57541 53.21 50.41)" style="fill:#ff4500"><g><path d="m 37.17 3.054 v 27.886 c 0 2.616 -1.899 4.73 -4.229 4.73 h -29.05 v 48.874 c 0 3.472 2.807 6.261 6.274 6.261 h 49.693 v -24.638 c 0 -1.982 1.431 -3.559 3.182 -3.559 h 27.919 c 0.188 0 0.367 0.01 0.545 0.045 v -53.33 c 0 -3.472 -2.762 -6.261 -6.228 -6.261 h -48.1 z"/><g transform="matrix(0.37087 0 0 0.36382 6.447 53.711)"><path id="3" transform="scale(1 -1)" d="m 12,-95.03 c -5.511,0 -10.03,4.52 -10.03,10.03 v 71 c 0,5.511 4.52,10.03 10.03,10.03 h 72 c 5.511,0 10.03,-4.52 10.03,-10.03 v -71 c 0,-5.511 -4.52,-10.03 -10.03,-10.03 H 12 z" style="fill:#ff4500;opacity:0.08"/><use xlink:href="#1" transform="scale(1 -1)" width="1" height="1" style="opacity:0.1"/><path id="4" transform="scale(1 -1)" d="m 12,-93 c -4.409,0 -8,3.591 -8,8 v 71 c 0,4.409 3.591,8 8,8 h 72 c 4.409,0 8,-3.591 8,-8 v -71 c 0,-4.409 -3.591,-8 -8,-8 H 12 z" style="fill:#ff4500;opacity:0.2"/><use xlink:href="#0" transform="scale(1 -1)" width="1" height="1" style="opacity:0.3"/><rect id="5" transform="scale(1 -1)" rx="6" height="84" width="84" y="-91" x="6" style="fill:#ff4500;opacity:0.45"/></g><rect x="8.834" y="56.52" width="30.845" height="29.97" ry="1.922" rx="2.034"/><path d="m 9.979,3.341 c -3.5,0 -6.317,2.801 -6.317,6.28 v 2.093 71.17 2.093 c 0,0.35 0.043,0.681 0.099,1.014 0.051,0.309 0.102,0.625 0.197,0.916 0.01,0.032 0.022,0.067 0.033,0.098 0.104,0.301 0.247,0.573 0.395,0.85 0.152,0.286 0.332,0.561 0.526,0.818 0.194,0.257 0.394,0.496 0.625,0.72 0.463,0.448 0.993,0.852 1.579,1.145 0.293,0.146 0.604,0.258 0.921,0.36 C 7.767,90.793 7.525,90.651 7.28,90.506 7.273,90.502 7.255,90.51 7.247,90.506 7.213,90.486 7.181,90.462 7.148,90.441 7.021,90.361 6.905,90.27 6.786,90.179 6.674,90.095 6.562,90.011 6.457,89.918 6.27,89.749 6.091,89.556 5.931,89.362 5.818,89.225 5.701,89.084 5.602,88.936 5.575,88.896 5.562,88.846 5.536,88.806 5.468,88.698 5.399,88.592 5.339,88.479 5.233,88.275 5.123,88.043 5.043,87.824 5.034,87.801 5.018,87.782 5.01,87.759 4.977,87.663 4.972,87.563 4.944,87.465 4.912,87.353 4.87,87.252 4.845,87.138 4.768,86.781 4.713,86.407 4.713,86.026 V 83.933 12.763 10.67 c 0,-2.912 2.335,-5.233 5.264,-5.233 h 2.106 71.59 2.106 c 2.929,0 5.264,2.321 5.264,5.233 v 2.093 71.17 2.093 c 0,0.381 -0.055,0.755 -0.132,1.112 -0.046,0.217 -0.093,0.416 -0.165,0.621 -0.009,0.023 -0.025,0.043 -0.033,0.065 -0.066,0.182 -0.146,0.385 -0.23,0.556 -0.044,0.087 -0.083,0.178 -0.132,0.262 -0.057,0.102 -0.134,0.197 -0.197,0.294 -0.099,0.148 -0.216,0.289 -0.329,0.425 -0.151,0.183 -0.319,0.363 -0.494,0.523 -0.012,0.01 -0.021,0.022 -0.033,0.033 -0.146,0.131 -0.3,0.245 -0.461,0.36 -0.108,0.077 -0.215,0.161 -0.329,0.229 -0.007,0.004 -0.025,-0.004 -0.033,0 -0.244,0.145 -0.487,0.288 -0.757,0.392 0.317,-0.101 0.628,-0.214 0.921,-0.36 0.587,-0.292 1.116,-0.697 1.579,-1.145 0.232,-0.224 0.431,-0.462 0.625,-0.72 0.194,-0.257 0.374,-0.531 0.526,-0.818 0.148,-0.277 0.291,-0.549 0.395,-0.85 0.01,-0.032 0.022,-0.066 0.033,-0.098 0.095,-0.291 0.146,-0.606 0.197,-0.916 0.055,-0.333 0.099,-0.664 0.099,-1.014 V 82.884 11.714 9.621 c 0,-3.479 -2.817,-6.28 -6.317,-6.28 h -75.8 z" style="opacity:0.53"/><path d="m 10.41 91.69 c -3.409 0 -6.153 -2.829 -6.153 -6.344 v -2.115 v -71.892 v -2.114 c 0 -0.354 0.042 -0.688 0.096 -1.024 0.05 -0.313 0.099 -0.631 0.192 -0.925 0.01 -0.032 0.021 -0.067 0.032 -0.099 0.101 -0.305 0.24 -0.58 0.384 -0.86 0.148 -0.289 0.324 -0.566 0.513 -0.826 0.189 -0.26 0.383 -0.501 0.609 -0.727 0.451 -0.452 0.967 -0.861 1.538 -1.156 0.286 -0.148 0.588 -0.261 0.897 -0.364 -0.263 0.106 -0.499 0.25 -0.737 0.397 -0.007 0.004 -0.024 -0.004 -0.032 0 -0.033 0.02 -0.064 0.045 -0.096 0.066 -0.123 0.081 -0.237 0.173 -0.353 0.264 -0.109 0.086 -0.219 0.17 -0.321 0.264 -0.183 0.171 -0.356 0.365 -0.513 0.562 -0.11 0.138 -0.224 0.281 -0.32 0.43 -0.026 0.041 -0.04 0.091 -0.064 0.132 -0.067 0.109 -0.133 0.216 -0.192 0.33 -0.104 0.206 -0.211 0.439 -0.288 0.661 -0.009 0.023 -0.024 0.043 -0.032 0.066 -0.033 0.097 -0.037 0.197 -0.064 0.297 -0.031 0.113 -0.072 0.215 -0.096 0.33 -0.075 0.361 -0.128 0.738 -0.128 1.123 v 2.114 v 71.892 v 2.115 c 0 2.941 2.275 5.286 5.128 5.286 h 2.051 h 69.73 h 2.051 c 2.853 0 5.128 -2.345 5.128 -5.286 v -2.115 v -71.892 v -2.114 c 0 -0.385 -0.053 -0.762 -0.128 -1.123 -0.046 -0.219 -0.091 -0.42 -0.161 -0.628 -0.007 -0.023 -0.023 -0.043 -0.032 -0.066 -0.064 -0.184 -0.142 -0.388 -0.224 -0.562 -0.043 -0.088 -0.081 -0.18 -0.128 -0.264 -0.056 -0.103 -0.13 -0.199 -0.192 -0.297 -0.097 -0.149 -0.211 -0.292 -0.321 -0.43 -0.147 -0.184 -0.311 -0.367 -0.481 -0.529 -0.012 -0.01 -0.021 -0.022 -0.032 -0.033 -0.142 -0.133 -0.292 -0.248 -0.448 -0.363 -0.105 -0.077 -0.21 -0.162 -0.321 -0.231 -0.007 -0.004 -0.024 0.004 -0.032 0 -0.238 -0.147 -0.474 -0.29 -0.737 -0.396 0.309 0.102 0.612 0.216 0.897 0.363 0.571 0.295 1.087 0.704 1.538 1.156 0.226 0.226 0.42 0.467 0.609 0.727 0.189 0.26 0.364 0.537 0.513 0.826 0.144 0.28 0.283 0.555 0.385 0.859 0.01 0.033 0.022 0.066 0.032 0.099 0.093 0.294 0.142 0.613 0.192 0.925 0.054 0.336 0.096 0.67 0.096 1.024 v 2.114 v 71.892 v 2.115 c 0 3.514 -2.744 6.344 -6.153 6.344 h -73.838 z" style="opacity:0.2"/><g transform="matrix(0.38208 0 0 0.3718 53.33 6.04)"><use xlink:href="#3" width="1" height="1"/><use xlink:href="#1" transform="scale(1 -1)" width="1" height="1" style="opacity:0.1"/><use xlink:href="#4" width="1" height="1"/><use xlink:href="#0" transform="scale(1 -1)" width="1" height="1" style="opacity:0.3"/><use xlink:href="#5" width="1" height="1"/></g><rect x="55.696" y="8.738" width="31.901" height="30.924" ry="2.517" rx="2.083"/></g><use xlink:href="#2" transform="matrix(15.692 0 0 12.007 -466.81 -741.21)" width="1" height="1"/><use xlink:href="#2" transform="matrix(15.692 0 0 12.007 -419.36 -788.89)" width="1" height="1"/><use xlink:href="#2" transform="matrix(11.718 0 0 9.0716 -291.31 -537.14)" width="1" height="1"/><use xlink:href="#2" transform="matrix(11.718 0 0 9.0716 -346.17 -594.17)" width="1" height="1"/></g><g style="fill-rule:evenodd"><g style="fill:#ffdead"><path d="m 60.5 84.27 v -22.827 l 1.12 -1.297 c 0.616 -0.714 1.898 -1.666 2.849 -2.116 l 1.729 -0.819 l 23.398 -0.003 l 23.398 -0.003 v 22.06 v 22.06 l -0.875 1.786 c -0.547 1.116 -1.41 2.163 -2.301 2.791 l -1.427 1.01 l -23.946 0.095 l -23.946 0.095 v -22.827 z m 18.995 8.222 c 2.184 -2.597 4.453 -5.295 5.04 -5.996 l 1.07 -1.275 l 5.067 6.01 l 5.067 6.01 h 4.01 c 3.73 0 3.974 -0.041 3.533 -0.599 -0.261 -0.329 -3.388 -3.974 -6.949 -8.1 -3.561 -4.126 -6.475 -7.647 -6.475 -7.826 0 -0.258 5.614 -6.646 12.721 -14.476 l 0.877 -0.966 h -3.969 h -3.969 l -4.776 5.62 c -2.627 3.091 -4.809 5.62 -4.85 5.62 -0.041 0 -2.235 -2.528 -4.875 -5.617 l -4.801 -5.617 l -3.906 -0.003 c -2.696 -0.002 -3.835 0.114 -3.676 0.374 0.126 0.207 3.168 3.706 6.759 7.775 5.629 6.377 6.469 7.476 6.094 7.964 -0.24 0.311 -3.427 3.911 -7.084 8 -3.656 4.089 -6.648 7.528 -6.648 7.642 0 0.114 1.748 0.2 3.885 0.19 l 3.885 -0.017 l 3.972 -4.721 z"/><path d="m 149.33 173.74 c 0 -19.692 0.023 -20.406 0.711 -21.806 0.391 -0.796 1.145 -1.767 1.676 -2.158 0.939 -0.692 1.601 -0.714 24.16 -0.808 l 23.2 -0.096 l -0.003 19.13 l -0.003 19.13 l -0.834 1.779 c -0.98 2.091 -2.32 3.451 -4.275 4.34 -1.302 0.592 -3.085 0.649 -23.02 0.743 l -21.611 0.102 v -20.359 z m 21.05 9.347 l 5.186 -6 l 5.101 6 l 5.101 6 h 4.01 c 2.206 0 4.01 -0.077 4.01 -0.17 0 -0.094 -2.963 -3.576 -6.584 -7.739 -3.621 -4.163 -6.807 -7.832 -7.079 -8.155 -0.442 -0.524 0.247 -1.403 6.408 -8.178 3.797 -4.175 6.903 -7.713 6.903 -7.863 0 -0.15 -1.714 -0.272 -3.808 -0.272 h -3.808 l -4.91 5.693 c -2.7 3.131 -5 5.693 -5.11 5.693 -0.11 0 -2.4 -2.562 -5.089 -5.693 l -4.888 -5.693 h -3.835 c -2.109 0 -3.835 0.134 -3.835 0.297 0 0.163 3.02 3.683 6.704 7.821 3.687 4.138 6.704 7.69 6.704 7.891 0 0.326 -8.779 10.232 -13.01 14.678 l -1.608 1.69 h 4.125 h 4.125 l 5.186 -6 z"/><path d="m 146.55 106.99 c 2.264 -2.436 16.284 -17.77 16.852 -18.431 0.611 -0.711 0.583 -0.747 -7.476 -9.638 -4.449 -4.908 -8.374 -9.254 -8.722 -9.658 l -0.633 -0.734 h 4.492 h 4.492 l 5.611 6.36 c 3.086 3.498 5.984 6.795 6.441 7.328 l 0.831 0.968 l 6.441 -7.328 l 6.441 -7.328 h 4.477 h 4.477 l -2.663 2.907 c -1.465 1.599 -5.435 5.897 -8.823 9.55 -6.03 6.502 -6.147 6.657 -5.567 7.31 6.251 7.04 16.595 18.756 16.94 19.19 0.429 0.544 0.182 0.578 -4.153 0.567 l -4.609 -0.012 l -5.981 -6.984 c -3.289 -3.841 -6.299 -7.284 -6.687 -7.65 l -0.707 -0.666 l -6.711 7.662 l -6.711 7.662 h -4.527 h -4.527 l 1 -1.08 z"/><path d="m 70.793 181.75 c 3.957 -4.154 17.07 -18.514 17.07 -18.692 0 -0.115 -3.613 -4.198 -8.03 -9.07 -4.416 -4.876 -8.33 -9.202 -8.697 -9.614 l -0.667 -0.748 h 4.51 h 4.51 l 5.931 6.716 c 3.262 3.694 6.162 6.999 6.444 7.345 0.485 0.594 0.863 0.231 6.978 -6.716 l 6.465 -7.344 h 4.437 h 4.437 l -1.091 1.246 c -0.6 0.685 -4.465 4.887 -8.59 9.338 -4.125 4.45 -7.539 8.263 -7.588 8.473 -0.048 0.21 3.877 4.838 8.722 10.285 4.846 5.447 8.81 9.97 8.81 10.05 0 0.081 -2.056 0.137 -4.569 0.125 l -4.569 -0.022 l -6.479 -7.595 c -3.564 -4.177 -6.565 -7.606 -6.671 -7.62 -0.105 -0.014 -3.171 3.405 -6.812 7.596 l -6.62 7.621 l -4.638 0.021 l -4.638 0.021 l 1.345 -1.412 z"/></g><g style="fill:#ff4500"><path d="m 70.12 96.06 c 0.348 -0.391 3.361 -3.718 6.695 -7.393 3.334 -3.676 6.06 -6.832 6.06 -7.02 -0.003 -0.183 -1.284 -1.753 -2.847 -3.489 -1.563 -1.736 -4.411 -4.913 -6.33 -7.06 l -3.489 -3.904 h 3.312 h 3.312 l 4.604 5.321 c 2.532 2.926 4.777 5.281 4.99 5.233 0.212 -0.048 2.432 -2.443 4.932 -5.321 l 4.546 -5.233 h 3.125 c 1.719 0 3.125 0.081 3.125 0.179 0 0.099 -2.842 3.273 -6.315 7.05 -3.473 3.781 -6.277 6.986 -6.23 7.122 0.047 0.136 3.043 3.615 6.659 7.732 l 6.574 7.485 l -3.417 -0.008 l -3.417 -0.008 l -4.957 -5.841 c -4.785 -5.638 -4.975 -5.818 -5.482 -5.167 -0.289 0.37 -2.544 3 -5.01 5.848 l -4.486 5.174 l -3.291 0.001 l -3.291 0.001 l 0.633 -0.71 z"/><path d="m 158.01 185.93 c 0.251 -0.305 3.259 -3.632 6.684 -7.393 3.425 -3.761 6.229 -6.916 6.23 -7.01 0.001 -0.096 -2.915 -3.422 -6.481 -7.393 l -6.484 -7.219 h 3.31 h 3.31 l 4.708 5.399 c 2.589 2.97 4.829 5.399 4.977 5.399 0.148 0 2.384 -2.43 4.968 -5.399 l 4.699 -5.399 h 3.133 c 1.723 0 3.133 0.069 3.133 0.153 0 0.084 -2.843 3.262 -6.319 7.06 -3.475 3.799 -6.279 7.083 -6.23 7.297 0.049 0.214 2.494 3.13 5.434 6.479 2.94 3.35 5.834 6.651 6.431 7.336 l 1.086 1.246 l -3.44 -0.026 l -3.44 -0.026 l -4.756 -5.623 c -2.616 -3.092 -4.859 -5.614 -4.984 -5.604 -0.125 0.01 -2.396 2.55 -5.05 5.644 l -4.818 5.626 l -3.28 0.005 c -3.03 0.004 -3.245 -0.038 -2.824 -0.551 z"/></g><g style="fill:#ffdead"><path d="m 158.2 187.9 l 1.037 -1.05 l 2.488 -0.006 l 2.488 -0.006 l 4.859 -5.626 c 2.673 -3.094 4.921 -5.626 4.995 -5.626 0.075 0 0.408 0.344 0.742 0.765 l 0.606 0.765 l -3.01 3.483 c -1.656 1.916 -3.952 4.578 -5.104 5.917 l -2.094 2.434 h -4.02 h -4.02 l 1.037 -1.05 z"/><path d="m 184.86 187.9 l -0.903 -1.046 l 3.666 -0.052 l 3.666 -0.052 l -6.45 -7.35 c -3.548 -4.04 -6.576 -7.494 -6.73 -7.67 -0.176 -0.201 -0.22 -0.425 -0.12 -0.6 0.088 -0.154 3.036 -3.425 6.55 -7.268 l 6.389 -6.989 h 1.104 c 0.607 0 1.104 0.071 1.104 0.157 0 0.231 -2.087 2.658 -6.522 7.584 -4.82 5.354 -6.439 7.289 -6.585 7.871 -0.074 0.294 0.015 0.588 0.26 0.864 3.266 3.682 13.23 15.352 13.23 15.495 0 0.056 -1.745 0.102 -3.877 0.102 h -3.877 l -0.903 -1.046 z"/><path d="m 169.94 162.56 c -5.318 -6.103 -4.99 -5.688 -4.504 -5.688 0.259 0 1.152 0.891 2.725 2.72 1.287 1.496 3.272 3.773 4.412 5.061 1.811 2.046 2.232 2.719 1.699 2.719 -0.076 0 -2.026 -2.165 -4.332 -4.812 z"/><path d="m 67.977 96.98 c 0 -0.182 1.669 -2.115 8.03 -9.3 3.043 -3.437 5.552 -6.361 5.575 -6.497 0.023 -0.136 -0.118 -0.5 -0.313 -0.81 -0.195 -0.309 -0.331 -0.587 -0.301 -0.617 0.03 -0.03 0.453 0.389 0.94 0.931 l 0.886 0.986 l -6.934 7.617 l -6.934 7.617 l 3.339 0.071 l 3.339 0.071 l -3.812 0.03 c -2.369 0.019 -3.812 -0.019 -3.812 -0.099 z"/><path d="m 85.17 76.36 c -0.662 -0.746 -2.783 -3.181 -4.712 -5.41 l -3.509 -4.053 l -3.597 -0.009 l -3.597 -0.009 l -0.551 -0.658 l -0.551 -0.658 l 0.42 -0.084 c 0.231 -0.046 1.929 -0.084 3.773 -0.084 h 3.353 l 2.867 3.34 c 2.614 3.045 6.259 7.261 6.658 7.702 0.162 0.179 1.916 -1.781 7.926 -8.856 l 1.856 -2.185 h 3.856 h 3.856 l -0.634 0.742 l -0.634 0.742 h -3.072 h -3.072 l -4.435 5.092 c -2.439 2.801 -4.561 5.239 -4.716 5.418 l -0.281 0.326 l -1.204 -1.357 z"/><path d="m 90.9 91.47 c -2.659 -3.155 -4.848 -5.771 -4.864 -5.814 -0.059 -0.153 0.158 -0.074 0.33 0.119 0.095 0.108 2.283 2.667 4.861 5.687 l 4.688 5.491 l 3.685 0.014 c 2.027 0.008 3.685 0.001 3.685 -0.015 0 -0.016 -3.046 -3.495 -6.77 -7.73 -3.723 -4.236 -6.77 -7.733 -6.77 -7.772 0 -0.039 0.069 -0.137 0.152 -0.217 l 0.152 -0.146 l 0.601 0.752 c 1.124 1.407 3.061 3.699 7.906 9.351 2.661 3.104 4.837 5.687 4.837 5.739 0 0.227 -0.179 0.238 -4.01 0.258 l -3.652 0.019 l -4.835 -5.737 z"/></g></g></svg>