<svg xmlns="http://www.w3.org/2000/svg" viewBox="0 0 256 256"><g transform="translate(0 -796.36)"><path d="m 77.5 1048.81 c 357.96 25.07 87.57 -460.07 -64.51 -141.24 -20.961 49.13 -8.721 126.13 64.51 141.24 z" style="fill:#fff;color:#000"/><g transform="matrix(1.4434 0 0 1.43359 39.26 840.62)" style="fill:#f8f8ff;stroke:#ff4500"><g transform="matrix(2.70379 0 0 2.70379 -2.315 -3.353)"><path d="m 19.821,32.735 c 0,0 -1.23,0.748 0.855,0.962 2.512,0.321 3.849,0.267 6.628,-0.267 0,0 0.748,0.481 1.764,0.855 -6.254,2.673 -14.166,-0.16 -9.248,-1.55 z M 19.019,29.26 c 0,0 -1.336,1.016 0.748,1.229 2.726,0.267 4.865,0.321 8.553,-0.428 0,0 0.481,0.535 1.283,0.802 -7.537,2.245 -15.983,0.214 -10.584,-1.604 z m 14.754,6.094 c 0,0 0.909,0.748 -1.016,1.336 -3.581,1.069 -15.02,1.39 -18.228,0 -1.123,-0.481 1.016,-1.176 1.711,-1.283 0.695,-0.16 1.069,-0.16 1.069,-0.16 -1.229,-0.855 -8.179,1.764 -3.528,2.512 12.776,2.085 23.307,-0.909 19.992,-2.406 z M 20.409,25.625 c 0,0 -5.827,1.39 -2.085,1.871 1.604,0.214 4.758,0.16 7.698,-0.053 2.406,-0.214 4.811,-0.641 4.811,-0.641 0,0 -0.855,0.374 -1.443,0.748 -5.934,1.55 -17.32,0.855 -14.06,-0.748 2.78,-1.336 5.078,-1.176 5.078,-1.176 z m 10.424,5.827 c 5.987,-3.1 3.207,-6.094 1.283,-5.72 -0.481,0.107 -0.695,0.214 -0.695,0.214 0,0 0.16,-0.321 0.535,-0.428 3.795,-1.336 6.789,4.01 -1.229,6.094 0,0 0.053,-0.053 0.107,-0.16 z m -9.836,8.446 c 5.773,0.374 14.593,-0.214 14.807,-2.94 0,0 -0.428,1.069 -4.758,1.871 -4.918,0.909 -11.01,0.802 -14.593,0.214 0,0 0.748,0.641 4.544,0.855 z"/><path d="m 27.429 7.512 c 0 0 3.314 3.368 -3.154 8.446 -5.185 4.116 -1.176 6.468 0 9.141 -3.047 -2.726 -5.239 -5.132 -3.742 -7.377 2.192 -3.314 8.232 -4.918 6.896 -10.21 z m -1.711 15.342 c 1.55 1.764 -0.428 3.368 -0.428 3.368 0 0 3.956 -2.031 2.138 -4.544 -1.657 -2.406 -2.94 -3.582 4.01 -7.591 0 0 -10.958 2.726 -5.72 8.767 z"/></g><path d="M 48.2,46.881 C 48.2,59.518 37.728,69.762 24.81,69.762 11.892,69.762 1.42,59.518 1.42,46.881 1.42,34.244 11.892,24 24.81,24 37.728,24 48.2,34.244 48.2,46.881 z" transform="matrix(2.37757 0 0 2.4304 5.241 -49.14)" style="fill-opacity:0;fill-rule:evenodd;stroke-width:2.912"/></g></g></svg>