<svg xmlns="http://www.w3.org/2000/svg" viewBox="0 0 256 256"><defs><clipPath><path transform="matrix(15.33333 0 0 11.5 415 -125.5)" d="m -24 13 c 0 1.105 -0.672 2 -1.5 2 -0.828 0 -1.5 -0.895 -1.5 -2 0 -1.105 0.672 -2 1.5 -2 0.828 0 1.5 0.895 1.5 2 z"/></clipPath></defs><g transform="translate(0 -796.36)"><path d="m -1583.78 1962.12 c -329.42 135.66 -174.65 -434.9 40.478 -157.85 37.47 49.706 40.36 133.17 -40.478 157.85 z" transform="translate(1774.03 -930.96)" style="fill:#fff;color:#000"/><g transform="matrix(3.99306 0 0 3.76221 25.61 839.77)" style="fill:#ff4500"><path d="M 24,1 C 23.613,1 23.226,1.012 22.844,1.031 23.16,1.429 23.469,1.826 23.75,2.25 19.144,3.859 15.226,6.928 12.594,10.938 11.897,10.349 10.984,10 10,10 c -2.209,0 -4,1.791 -4,4 0,0.779 0.24,1.51 0.625,2.125 -1.825,0.651 -3.51,1.58 -5.03,2.719 -0.227,0.989 -0.405,1.999 -0.5,3.03 1.994,-1.964 4.478,-3.431 7.25,-4.219 0.383,0.173 0.814,0.237 1.25,0.281 -0.383,1.626 -0.594,3.32 -0.594,5.063 0,1.687 0.203,3.328 0.563,4.906 -0.882,0.498 -1.659,1.183 -2.25,2 -2.095,-0.183 -4.078,-0.721 -5.906,-1.563 0.156,0.814 0.355,1.625 0.594,2.406 1.383,0.515 2.836,0.902 4.344,1.094 -0.218,0.677 -0.344,1.406 -0.344,2.156 0,3.866 3.134,7 7,7 1.424,0 2.738,-0.426 3.844,-1.156 2.691,2.263 5.939,3.889 9.5,4.656 -0.718,0.911 -1.521,1.752 -2.406,2.5 0.021,0 0.042,0 0.063,0 1.04,0 2.059,-0.054 3.063,-0.188 0.558,-0.613 1.056,-1.286 1.531,-1.969 0.791,0.086 1.592,0.156 2.406,0.156 0.934,0 1.847,-0.074 2.75,-0.188 2.01,-0.941 3.861,-2.141 5.5,-3.594 -2.517,1.148 -5.302,1.781 -8.25,1.781 -0.41,0 -0.815,-0.007 -1.219,-0.031 1.135,-2.12 1.867,-4.495 2.125,-7 3.641,-0.249 6.858,-1.99 9.06,-4.625 1.268,0.413 2.625,0.656 4.03,0.656 0.188,0 0.376,-0.022 0.563,-0.031 0.249,-0.674 0.47,-1.361 0.656,-2.063 -0.401,0.044 -0.806,0.094 -1.219,0.094 -0.971,0 -1.915,-0.139 -2.813,-0.375 1.01,-1.698 1.639,-3.636 1.781,-5.719 0.335,0.071 0.676,0.094 1.031,0.094 0.716,0 1.384,-0.167 2,-0.438 -0.007,-0.367 -0.039,-0.731 -0.063,-1.094 -0.575,0.32 -1.232,0.531 -1.938,0.531 -0.346,0 -0.68,-0.074 -1,-0.156 -0.028,-2.417 -0.73,-4.666 -1.906,-6.594 0.729,-0.772 1.761,-1.25 2.906,-1.25 0.054,0 0.103,0.029 0.156,0.031 -0.141,-0.331 -0.282,-0.677 -0.438,-1 -1.237,0.069 -2.351,0.567 -3.188,1.375 -1.182,-1.639 -2.728,-2.996 -4.531,-3.938 1.147,-1.217 2.561,-2.185 4.156,-2.781 -0.476,-0.533 -0.977,-1.045 -1.5,-1.531 -1.8,0.807 -3.373,2 -4.625,3.5 -1.268,-0.413 -2.625,-0.656 -4.03,-0.656 -0.799,0 -1.584,0.081 -2.344,0.219 -0.229,-2.402 -0.9,-4.675 -1.906,-6.75 1.371,-0.297 2.79,-0.469 4.25,-0.469 0.947,0 1.87,0.06 2.781,0.188 C 31.837,2.269 29.748,1.586 27.559,1.245 26.935,1.341 26.32,1.471 25.715,1.62 25.591,1.421 25.471,1.221 25.34,1.026 24.896,1 24.447,0.995 23.996,0.995 z m 0.781,3 c 1.047,2.048 1.721,4.339 1.906,6.75 -2.873,1.01 -5.264,2.994 -6.813,5.563 C 17.992,15.582 15.96,15.125 13.844,15.032 13.932,14.703 14,14.357 14,14.001 14,13.588 13.929,13.188 13.812,12.813 16.262,8.691 20.145,5.519 24.781,4 z M 10,11 c 0.797,0 1.525,0.306 2.063,0.813 -0.633,1.069 -1.178,2.199 -1.625,3.375 C 9.468,15.319 8.512,15.51 7.594,15.782 7.224,15.283 7,14.67 7,14.001 c 0,-1.657 1.343,-3 3,-3 z m 21,1 c 0.971,0 1.915,0.139 2.813,0.375 -1.01,1.698 -1.639,3.636 -1.781,5.719 C 31.697,18.023 31.356,18 31.001,18 c -1.514,0 -2.864,0.687 -3.781,1.75 0.963,-2.319 1.519,-4.866 1.531,-7.531 0.725,-0.15 1.48,-0.219 2.25,-0.219 z m -4.281,0.875 c -0.097,2.324 -0.63,4.551 -1.531,6.563 -1.063,-0.89 -2.227,-1.67 -3.469,-2.313 1.193,-1.881 2.927,-3.373 5,-4.25 z m 9,0.188 c 1.916,0.911 3.514,2.365 4.625,4.156 C 40.13,17.775 40,18.369 40,19 c 0,1.624 0.8,3.055 2,3.969 0,0.011 0,0.021 0,0.031 0,2.183 -0.622,4.227 -1.719,5.938 C 38.365,28.027 36.767,26.573 35.656,24.782 35.87,24.226 36,23.632 36,23.001 c 0,-1.631 -0.792,-3.087 -2,-4 0,-2.183 0.622,-4.227 1.719,-5.938 z m -22.75,1.344 c -0.029,0.206 -0.088,0.403 -0.156,0.594 -0.053,0.001 -0.103,0.03 -0.156,0.031 0.093,-0.214 0.212,-0.415 0.313,-0.625 z M 13,17.001 c 2.101,0 4.111,0.397 5.969,1.094 C 18.352,19.608 18,21.266 18,23.001 c 0,1.416 0.238,2.786 0.656,4.063 -0.592,0.388 -1.206,0.746 -1.844,1.063 -1.098,-0.716 -2.404,-1.125 -3.813,-1.125 -0.538,0 -1.059,0.073 -1.563,0.188 -0.288,-1.351 -0.438,-2.751 -0.438,-4.188 0,-1.891 0.291,-3.704 0.781,-5.438 0.3,-0.15 0.592,-0.314 0.844,-0.531 0.125,-0.003 0.249,-0.031 0.375,-0.031 z m 28.06,1.563 c 0.405,0.919 0.672,1.908 0.813,2.938 -0.545,-0.684 -0.875,-1.558 -0.875,-2.5 0,-0.149 0.047,-0.293 0.063,-0.438 z m -20.25,0.344 c 1.235,0.641 2.372,1.432 3.406,2.344 -1.027,1.725 -2.317,3.245 -3.844,4.531 -0.232,-0.889 -0.375,-1.82 -0.375,-2.781 0,-1.449 0.304,-2.827 0.813,-4.094 z m 10.188,0.094 c 0.346,0 0.68,0.074 1,0.156 0.028,2.417 0.73,4.666 1.906,6.594 -0.729,0.772 -1.761,1.25 -2.906,1.25 -0.127,0 -0.251,-0.02 -0.375,-0.031 -0.805,-2.02 -1.935,-3.86 -3.344,-5.469 0.592,-1.469 2.038,-2.5 3.719,-2.5 z m 3.125,1.5 c 0.545,0.684 0.875,1.558 0.875,2.5 0,0.149 -0.047,0.293 -0.063,0.438 -0.405,-0.919 -0.672,-1.908 -0.813,-2.938 z m -8.438,2.188 c 0.108,0.121 0.208,0.251 0.313,0.375 0.024,1.876 1.109,3.477 2.656,4.313 0.853,2.02 1.335,4.238 1.344,6.563 -3.931,-0.355 -7.265,-2.761 -8.906,-6.156 1.818,-1.42 3.362,-3.134 4.594,-5.094 z m 8.781,3.906 c 1.182,1.639 2.728,2.996 4.531,3.938 -1.791,1.902 -4.246,3.158 -7,3.406 -0.007,-2.073 -0.348,-4.071 -0.969,-5.938 1.337,-0.008 2.545,-0.544 3.438,-1.406 z m -15.03,2.344 c 1.997,3.876 5.877,6.612 10.438,7 -0.279,2.468 -1.093,4.749 -2.313,6.781 -3.455,-0.6 -6.615,-2.089 -9.219,-4.219 1.032,-1.219 1.656,-2.777 1.656,-4.5 0,-1.691 -0.595,-3.227 -1.594,-4.438 0.35,-0.192 0.694,-0.413 1.031,-0.625 z m -6.438,0.063 c 0.425,0 0.825,0.057 1.219,0.156 -0.671,0.21 -1.36,0.401 -2.063,0.531 -0.07,-0.196 -0.124,-0.395 -0.188,-0.594 0.335,-0.071 0.676,-0.094 1.031,-0.094 z m 3.531,1.469 c 0.905,0.905 1.469,2.151 1.469,3.531 0,1.208 -0.443,2.292 -1.156,3.156 -1.608,-1.608 -2.919,-3.516 -3.906,-5.594 1.237,-0.258 2.453,-0.618 3.594,-1.094 z m -5.656,1.438 c 1.076,2.425 2.574,4.631 4.406,6.5 -0.69,0.36 -1.449,0.594 -2.281,0.594 -2.761,0 -5,-2.239 -5,-5 0,-0.716 0.167,-1.384 0.438,-2 0.145,0.003 0.292,0 0.438,0 0.675,0 1.342,-0.028 2,-0.094 z" style="opacity:0.1"/><g><path d="m 12 26 c -3.866 0 -7 3.134 -7 7 0 3.866 3.134 7 7 7 3.866 0 7 -3.134 7 -7 0 -3.866 -3.134 -7 -7 -7 z m 0 2 c 2.761 0 5 2.239 5 5 0 2.761 -2.239 5 -5 5 -2.761 0 -5 -2.239 -5 -5 0 -2.761 2.239 -5 5 -5 z"/><path d="M 12,14 C 8.405,14 5.054,15.016 2.187,16.75 1.868,17.711 1.597,18.706 1.406,19.719 4.313,17.396 7.989,16 12,16 c 9.389,0 17,7.611 17,17 0,5.74 -2.862,10.797 -7.219,13.875 C 22.514,46.945 23.248,47 24,47 24.282,47 24.564,46.979 24.844,46.969 28.62,43.496 31,38.535 31,33 31,22.507 22.493,14 12,14 z"/><path d="m 24,1 c -0.461,0 -0.921,0.005 -1.375,0.031 1.966,2.871 3.125,6.351 3.125,10.09 0,9.874 -8,17.875 -17.875,17.875 -2.33,0 -4.553,-0.471 -6.594,-1.281 0.128,0.785 0.326,1.557 0.531,2.313 1.914,0.613 3.945,0.969 6.06,0.969 10.979,0 19.875,-8.896 19.875,-19.875 0,-3.689 -1.031,-7.133 -2.781,-10.09 C 24.645,1.019 24.321,1.001 23.997,1.001 z"/><path d="m 9 9 c -2.209 0 -4 1.791 -4 4 0 2.209 1.791 4 4 4 2.209 0 4 -1.791 4 -4 0 -2.209 -1.791 -4 -4 -4 z m 0 1 c 1.657 0 3 1.343 3 3 0 1.657 -1.343 3 -3 3 -1.657 0 -3 -1.343 -3 -3 0 -1.657 1.343 -3 3 -3 z"/><path d="M 23.438,1 C 14.497,3.794 8,12.138 8,22 c 0,12.15 9.85,22 22,22 2.578,0 5.04,-0.466 7.344,-1.281 2.01,-1.438 3.792,-3.189 5.25,-5.188 C 39.155,40.325 34.777,42 30,42 18.95,42 10,33.046 10,22 10,10.95 18.954,2 30,2 30.272,2 30.543,2.02 30.813,2.031 28.661,1.365 26.372,1 24,1 23.823,1 23.645,0.996 23.469,1 23.46,1.003 23.447,0.997 23.438,1 z"/><path d="m 30,9 c -7.18,0 -13,5.82 -13,13 0,7.18 5.82,13 13,13 7.18,0 13,-5.82 13,-13 C 43,14.82 37.18,9 30,9 z m 0,2 c 6.075,0 11,4.925 11,11 0,6.075 -4.925,11 -11,11 -6.075,0 -11,-4.925 -11,-11 0,-6.075 4.925,-11 11,-11 z"/><path d="m 30 17 c -2.761 0 -5 2.239 -5 5 0 2.761 2.239 5 5 5 2.761 0 5 -2.239 5 -5 0 -2.761 -2.239 -5 -5 -5 z m 0 1 c 2.209 0 4 1.791 4 4 0 2.209 -1.791 4 -4 4 -2.209 0 -4 -1.791 -4 -4 0 -2.209 1.791 -4 4 -4 z"/><path d="M 38.563,6.219 C 34.106,8.28 31,12.767 31,18 c 0,7.18 5.82,13 13,13 0.668,0 1.328,-0.059 1.969,-0.156 0.217,-0.699 0.38,-1.43 0.531,-2.156 -0.805,0.187 -1.638,0.313 -2.5,0.313 -6.075,0 -11,-4.925 -11,-11 0,-4.736 2.99,-8.763 7.188,-10.313 -0.517,-0.513 -1.061,-1.01 -1.625,-1.469 z"/><path d="m 44 13 c -2.761 0 -5 2.239 -5 5 0 2.761 2.239 5 5 5 1.091 0 2.084 -0.345 2.906 -0.938 -0.033 -0.399 -0.071 -0.794 -0.125 -1.188 -0.72 0.695 -1.702 1.125 -2.781 1.125 -2.209 0 -4 -1.791 -4 -4 0 -2.209 1.791 -4 4 -4 0.255 0 0.508 0.048 0.75 0.094 -0.174 -0.365 -0.339 -0.74 -0.531 -1.094 -0.074 -0.003 -0.144 0 -0.219 0 z"/></g></g></g></svg>