<svg xmlns="http://www.w3.org/2000/svg" viewBox="0 0 256 256"><defs><clipPath><path transform="matrix(15.33333 0 0 11.5 415 -125.5)" d="m -24 13 c 0 1.105 -0.672 2 -1.5 2 -0.828 0 -1.5 -0.895 -1.5 -2 0 -1.105 0.672 -2 1.5 -2 0.828 0 1.5 0.895 1.5 2 z"/></clipPath></defs><path d="m 222.65 37.868 c 145.18 221.56 -251.35 307.3 -219.76 79.37 12.881 -92.96 164.23 -164.13 219.76 -79.37 z" transform="translate(0.508 2.624)" style="fill:#fff;color:#000"/><path d="m 80.811888,235.7702 c 0.20031,-1.4934 0.0949,-2.71986 -0.2343,-2.72544 -13.454388,-0.22781 -15.681287,-0.42757 -17.908627,-1.60647 -8.633199,-4.56939 -9.749982,-9.13899 -9.339262,-38.21373 0.235967,-16.70381 0.489236,-20.87114 1.447632,-23.81936 2.932157,-9.01992 11.464698,-13.0522 23.370027,-11.04411 5.93744,1.00149 9.72109,3.51148 11.8268,7.84568 0.81187,1.67105 1.72829,3.03828 2.03649,3.03828 0.85446,0 1.57986,-2.43075 2.84107,-9.52024 0.63261,-3.55603 1.82574,-7.66981 2.65139,-9.14175 1.76801,-3.15189 7.884522,-8.28086 13.938132,-11.68773 6.89167,-3.87856 24.65076,-9.66281 34.96388,-11.38798 2.50979,-0.41983 2.60003,-0.52557 2.21882,-2.59982 -1.71401,-9.32612 -1.39479,-10.36447 3.42007,-11.12479 1.43339,-0.22634 2.83061,-0.74612 3.1049,-1.15509 0.64773,-0.96575 0.58923,-9.33166 -0.0943,-13.485912 -0.43491,-2.64315 -1.05666,-3.68707 -3.38082,-5.67647 -3.37444,-2.88841 -5.93241,-7.63178 -7.63873,-14.16492 -1.6449,-6.29804 -1.60623,-9.05216 0.15341,-10.92523 1.4128,-1.50384 1.41341,-1.52775 0.17768,-6.83203 -0.89153,-3.82692 -1.22189,-7.80308 -1.17547,-14.14768 0.0554,-7.57274 0.31668,-9.59522 1.84143,-14.25538 4.29515,-13.127489 12.36954,-21.556654 24.82844,-25.9193798 11.54758,-4.043608 25.80728,-0.179034 34.14066,9.2525958 5.85294,6.624285 8.97354,14.373484 11.38835,28.279914 1.07223,6.17481 1.37343,10.91558 1.37343,21.61781 0,21.32856 -2.02555,31.99842 -7.88443,41.532492 -3.41883,5.5634 -3.70232,7.03536 -1.35497,7.03536 0.89202,0 2.29242,0.54296 3.11196,1.20659 l 1.4901,1.2066 -1.75883,5.0341 c -1.00441,2.87485 -1.50415,5.28876 -1.1651,5.62782 0.32653,0.32653 3.79386,1.89788 7.70516,3.4919 11.26027,4.58902 21.45404,10.75244 28.81301,17.42111 2.55479,2.31517 5.07834,4.8278 5.60789,5.58364 3.68132,5.25459 4.43969,28.03723 2.6202,78.71306 l -0.18887,5.25995 -86.6557,6.7e-4 -86.655702,6.9e-4 0.36421,-2.71531 z m 157.043192,-2.81003 c 4.36608,-1.30809 8.33401,-5.28471 10.21246,-10.2348 1.59349,-4.19915 1.61857,-4.63369 1.61857,-28.02426 0,-23.54049 -0.0141,-23.79171 -1.60852,-27.31716 -0.88467,-1.957 -2.78124,-4.61767 -4.2146,-5.91262 -6.95931,-6.28732 -22.67275,-6.02981 -28.967,0.47468 -5.31108,5.48849 -6.6203,13.97993 -6.09693,39.54338 0.39773,19.42644 0.91158,22.06492 5.2591,27.00396 2.6139,2.96955 5.61551,4.48856 10.85073,5.49116 2.54072,0.48657 9.82761,-0.0901 12.94619,-1.02434 z m -12.11581,-5.79151 c -0.47666,-0.19166 -1.54583,-1.61853 -2.37589,-3.17086 -1.48062,-2.76892 -1.50922,-3.29188 -1.50922,-27.59961 0,-22.24311 0.12511,-25.10139 1.22308,-27.94661 1.3722,-3.55588 3.52681,-5.31598 6.50748,-5.31598 2.6936,0 5.97624,2.87127 6.84061,5.98339 0.97317,3.50387 0.92777,48.18453 -0.0529,52.07923 -1.07261,4.25971 -3.45863,6.43992 -6.97399,6.37246 -1.53585,-0.0294 -3.18247,-0.21039 -3.65914,-0.40203 z m -119.10714,-16.6848 c 0.0984,-12.60074 0.44592,-22.91045 0.77248,-22.91045 0.32656,0 6.16614,9.39328 12.97686,20.87397 6.8107,11.48068 13.12266,21.86674 14.02656,23.08016 1.94156,2.60636 5.14263,3.06 6.3023,0.89316 0.96774,-1.80825 0.96774,-72.27327 0,-74.08152 -0.94797,-1.77129 -4.43489,-1.77129 -5.38286,0 -0.44461,0.83074 -0.70271,9.73219 -0.70271,24.23417 0,16.18113 -0.21211,22.70902 -0.72133,22.1998 -0.39674,-0.39673 -6.7353,-11.22575 -14.0857,-24.06447 -13.23145,-23.11099 -13.38767,-23.34534 -15.71028,-23.56625 -1.64777,-0.15674 -2.60738,0.13448 -3.22443,0.97827 -1.148652,1.57087 -1.296182,72.20651 -0.15528,74.33832 0.55939,1.04523 1.28986,1.30424 3.22444,1.14333 l 2.50121,-0.20804 0.17874,-22.91045 z m 73.07992,22.54407 c 9.90292,-1.43134 17.49328,-6.99532 20.82288,-15.26382 1.62895,-4.04521 1.63373,-4.13552 1.82964,-34.54929 0.17071,-26.50051 0.0535,-30.94499 -0.89493,-33.94142 -2.38129,-7.52324 -8.06114,-12.86666 -16.18566,-15.22696 -9.21332,-2.67664 -33.88998,-3.87499 -36.01593,-1.74903 -0.95,0.95001 -1.06674,6.41473 -1.06674,49.93849 0,32.39039 0.23699,49.31456 0.70271,50.1848 0.65674,1.22712 1.53389,1.31213 13.40685,1.29957 6.9873,-0.008 14.81783,-0.31893 17.40118,-0.69234 z m -15.89769,-50.21546 0,-44.99682 6.23812,0.44282 c 7.24877,0.51452 11.09099,2.0623 14.05953,5.66363 3.43648,4.16906 3.54401,5.45065 3.32475,39.62775 l -0.20282,31.61492 -2.0469,4.00094 c -3.05239,5.96641 -6.45982,7.86352 -14.91834,8.30595 l -6.45434,0.33761 0,-44.9968 z m -77.237162,46.87385 c 1.7809,-1.56761 3.73221,-4.1872 4.67729,-6.27915 1.58875,-3.51672 1.62603,-4.04805 1.84091,-26.23344 0.17963,-18.54641 0.0569,-22.59103 -0.67845,-22.35117 -1.02424,0.33406 -1.58427,2.94229 -7.30773,34.03436 -2.25795,12.26595 -3.93606,22.57565 -3.72914,22.91044 0.7214,1.16726 2.16235,0.59028 5.19712,-2.08104 z m -10.30462,-1.73662 c 1.09787,-0.56774 2.68642,-2.32419 3.53014,-3.90326 1.51553,-2.83642 1.53402,-3.182 1.53402,-28.6665 0,-23.90664 -0.0937,-25.98406 -1.27948,-28.37098 -1.49004,-2.99932 -4.08297,-4.55219 -7.60113,-4.55219 -1.98089,0 -2.96785,0.49696 -4.759257,2.39641 -1.243054,1.31803 -2.57568,3.53269 -2.961388,4.92151 -0.419589,1.51081 -0.699862,11.79599 -0.697728,25.60525 0.0036,24.24726 0.385602,27.93733 3.217078,31.08722 2.329605,2.59163 5.777025,3.15838 9.017745,1.48254 z m -62.91314,5.12452 c -4.3881144,-0.66858 -9.9241994,-3.64391 -12.1084184,-6.50756 -2.392274,-3.13644 -5.646081,-10.40325 -5.923587,-13.22931 -0.232172,-2.36438 -0.189927,-2.40929 2.361053,-2.51102 1.51949601,-0.0605 2.69169601,0.23421 2.82454201,0.71036 2.12254599,7.60758 2.98046299,9.87058 4.57813199,12.0761 6.1319674,8.46495 20.5094564,6.74856 24.7541034,-2.95514 1.168,-2.6702 1.282521,-5.91778 1.59761,-45.30315 l 0.339413,-42.42675 6.448871,0 6.448859,0 0,40.72969 c 0,36.6386 -0.117519,41.10898 -1.169968,44.50589 -2.143082,6.91699 -6.193481,11.18601 -12.76866,13.4578 -4.396321,1.51899 -12.502002,2.1966 -17.38195,1.45309 z M 266.99624,231.9755 c -4.03514,-1.74296 -7.29018,-5.50981 -8.87407,-10.26941 -1.74145,-5.23305 -1.43311,-6.46491 1.5455,-6.17436 1.93243,0.18848 2.24663,0.51499 2.72443,2.83119 0.76523,3.70951 2.46502,6.29038 5.55097,8.42824 2.31735,1.60541 3.31127,1.84565 7.48136,1.80836 9.13405,-0.0818 13.92231,-5.2195 11.06132,-11.8688 -0.55463,-1.28897 -5.97342,-8.14757 -12.04175,-15.24133 -13.06088,-15.26783 -13.81497,-16.35445 -15.24816,-21.97173 -1.39432,-5.46499 -0.60694,-9.79803 2.68405,-14.7704 3.31001,-5.00109 7.039,-6.70722 14.61993,-6.689 9.10174,0.0217 12.35681,2.39398 15.83638,11.54061 0.99723,2.62141 1.81316,4.9291 1.81316,5.1282 0,0.1991 -1.16329,0.43066 -2.58509,0.51454 -2.57587,0.152 -2.58935,0.13902 -3.7738,-3.61844 -2.977,-9.44414 -12.70663,-12.567 -19.78652,-6.35077 -2.76004,2.42334 -3.45955,5.07913 -2.14536,8.14503 0.5367,1.25206 5.36521,7.47212 10.73004,13.8223 17.5275,20.74686 17.44202,20.61944 18.04619,26.90121 0.31292,3.25339 0.0871,4.40092 -1.5067,7.65865 -2.24392,4.58641 -6.71493,8.72027 -11.01684,10.18609 -3.96561,1.35121 -11.97574,1.34583 -15.11504,-0.011 z" transform="matrix(0.61297481 0 0 0.55657526 35.1315 60.310547)" style="fill:#ff4500;stroke:#ff4500;stroke-width:1.35765624"/></svg>