<svg xmlns="http://www.w3.org/2000/svg" viewBox="0 0 256 256"><defs><clipPath><path transform="matrix(15.33333 0 0 11.5 415 -125.5)" d="m -24 13 c 0 1.105 -0.672 2 -1.5 2 -0.828 0 -1.5 -0.895 -1.5 -2 0 -1.105 0.672 -2 1.5 -2 0.828 0 1.5 0.895 1.5 2 z"/></clipPath></defs><g transform="translate(0.50707328 0.17565829)"><path transform="translate(0.508 2.624)" d="m 222.65 37.868 c 145.18 221.56 -251.35 307.3 -219.76 79.37 12.881 -92.96 164.23 -164.13 219.76 -79.37 z" style="fill:#fff;color:#000"/><g transform="matrix(0.60567708 0 0 0.55423264 31.799093 65.810262)"><path d="m 85.076421,231.49786 0,-2.03648 -6.0315,0 c -11.268091,0 -17.426256,-3.63676 -20.129323,-11.88758 -1.214049,-3.70571 -1.331712,-6.04427 -1.331712,-26.46621 0,-24.75341 0.320449,-27.16669 4.345172,-32.72265 3.928051,-5.42251 12.611804,-7.96151 21.565797,-6.30551 5.968992,1.10394 7.604017,1.97193 11.015651,5.84774 1.540699,1.75033 2.920013,3.05883 3.065141,2.90778 0.145136,-0.15106 0.764445,-2.95937 1.376266,-6.24075 0.611809,-3.28134 1.401427,-6.72635 1.754707,-7.65553 1.56217,-4.10887 10.09931,-11.41809 18.00756,-15.41752 6.42353,-3.24858 25.86381,-9.36149 32.20856,-10.12784 1.83988,-0.22225 1.82703,-0.12401 0.9377,-7.17313 -0.56295,-4.46214 0.59828,-6.00897 5.00738,-6.67016 l 3.07342,-0.46088 -0.39668,-7.519325 -0.39668,-7.51931 -2.78703,-2.315071 c -3.2966,-2.738348 -6.50454,-8.724191 -8.24582,-15.386249 -1.62316,-6.210165 -1.59762,-9.237384 0.096,-11.39058 1.32432,-1.683599 1.33049,-1.856786 0.22627,-6.370698 -1.58707,-6.487863 -1.5942,-20.148226 -0.0141,-26.023144 4.31321,-16.031704 15.05189,-27.1366199 28.63384,-29.61037295 9.14876,-1.666312 18.45725,-0.577594 24.86096,2.90774805 4.46612,2.430769 11.51339,9.8956709 14.00343,14.8332889 5.27213,10.454388 7.63534,23.677943 7.63534,42.724376 0,21.288867 -1.99495,31.813669 -7.89163,41.633947 -1.63329,2.72006 -2.96961,5.0632 -2.96961,5.20697 0,0.14377 0.92677,0.46496 2.05948,0.71375 1.13272,0.24878 2.52087,1.15648 3.08478,2.01714 0.93569,1.42803 0.87832,1.98545 -0.65631,6.37794 -0.92489,2.64724 -1.47299,4.93689 -1.21799,5.08812 0.25497,0.15122 3.21284,1.40113 6.57305,2.77754 11.96423,4.9008 23.76408,12.16807 30.7678,18.94918 5.88826,5.70113 5.77947,5.44015 7.95482,19.08114 0.23726,1.48787 0.42688,12.39271 0.42138,24.233 l -0.009,21.52776 3.17102,0.20484 3.171,0.20483 0.98532,3.69789 c 1.97609,7.41629 7.82751,10.73735 15.6232,8.86721 5.45326,-1.30822 7.91646,-5.17131 6.19103,-9.70952 -0.34402,-0.90486 -6.00072,-7.97632 -12.57041,-15.71435 -6.56972,-7.73805 -12.37305,-14.89709 -12.89632,-15.90896 -0.52326,-1.01187 -1.45185,-3.77118 -2.06356,-6.13185 -0.90266,-3.48344 -0.97204,-4.94568 -0.36826,-7.76104 1.51158,-7.04818 6.2184,-12.51215 12.34583,-14.3318 12.79786,-3.80055 23.58528,3.18744 23.89625,15.47981 l 0.0885,3.49823 -2.89124,0.20905 c -1.94379,0.14058 -2.9759,-0.082 -3.14962,-0.67883 -2.39594,-8.23294 -4.58395,-11.03156 -9.48158,-12.12762 -3.20628,-0.71752 -3.93285,-0.6552 -6.71622,0.57601 -3.62555,1.60376 -5.57576,4.59818 -4.92484,7.56179 0.23352,1.06324 6.11772,8.71349 13.44991,17.48674 11.78082,14.09619 13.11639,15.95221 13.8833,19.29354 1.95464,8.51617 0.64666,15.04552 -3.94285,19.68212 -9.63375,9.73267 -28.06015,7.44465 -32.27289,-4.00735 -1.91916,-5.21708 -2.30756,-4.83536 -2.31155,2.27177 -0.003,3.71489 -0.32191,7.89986 -0.71073,9.29995 l -0.70696,2.54561 -87.1975,0 -87.197493,0 0,-2.0365 z m -2.727094,-10.74503 c 1.056148,-1.05614 2.252846,-3.11809 2.659308,-4.5821 0.469135,-1.68969 0.734976,-11.33876 0.72792,-26.42079 -0.01063,-21.8481 -0.114439,-23.98661 -1.296159,-26.58923 -1.465944,-3.22868 -3.039884,-4.29745 -6.32872,-4.29745 -2.66519,0 -4.646648,1.77436 -6.240002,5.5878 -0.879736,2.10547 -1.048973,6.30031 -1.040339,25.78619 0.01063,22.88285 0.294869,26.46034 2.370333,29.78073 1.953517,3.12534 6.399978,3.48253 9.147659,0.73485 z m -63.508443,8.71261 c -6.577209,-0.96519 -12.7267614,-5.23965 -15.4970184,-10.77173 -2.215871,-4.42502 -3.62996503,-12.24646 -2.36316903,-13.07086 2.53060303,-1.64688 5.82172403,-1.52458 6.29265003,0.23386 0.127277,0.47516 0.596617,2.39129 1.043032,4.25807 2.1163634,8.85022 6.0765874,12.55832 13.4121914,12.55832 5.9233,0 9.501717,-2.05475 11.915239,-6.84179 l 1.855411,-3.68004 0.01188,-42.12128 c 0.0083,-31.84301 0.210151,-42.32006 0.825969,-42.93587 1.109524,-1.10953 13.553157,-1.10953 14.662682,0 1.036497,1.0365 1.136824,74.49601 0.111467,81.58974 -1.751561,12.11738 -8.989817,19.1893 -21.274838,20.78595 -5.434228,0.70627 -6.154334,0.70599 -10.994944,-0.003 z" style="fill:#8b0000"/><path d="m 81.715129,235.91739 c -0.23075,-0.23075 -0.24347,-1.2999 -0.0283,-2.3759 l 0.39129,-1.95634 -6.70343,0.003 c -11.052,0.006 -16.71834,-3.15901 -19.60631,-10.94966 -1.25429,-3.38358 -1.35238,-5.3493 -1.35085,-27.06811 10e-4,-22.90956 0.0359,-23.50445 1.57408,-27.31732 1.77847,-4.40851 4.4143,-7.35269 8.51542,-9.51162 2.30686,-1.2144 3.95483,-1.4789 9.25545,-1.48553 10.0413,-0.0125 14.25358,1.85 18.15274,8.02667 1.60357,2.54022 1.7749,2.63917 2.26684,1.30934 0.29269,-0.7912 1.05048,-4.2935 1.68398,-7.78283 1.41549,-7.79663 1.95222,-8.88231 6.511381,-13.17103 9.01504,-8.48028 24.73907,-15.00281 45.95754,-19.06377 1.28694,-0.24631 1.51108,-0.59762 1.15,-1.8025 -0.24667,-0.82312 -0.62056,-3.33818 -0.83083,-5.58901 -0.44704,-4.78509 0.094,-5.52261 4.62854,-6.31054 l 2.95742,-0.51387 -0.0954,-7.63935 -0.0954,-7.639358 -3.40324,-3.262994 c -4.09291,-3.92422 -5.87428,-7.238291 -7.62512,-14.185697 -1.69557,-6.728159 -1.6906,-9.692797 0.0199,-11.8674 1.32136,-1.679839 1.32735,-1.847606 0.21462,-6.031298 -0.81464,-3.062925 -1.14402,-7.042407 -1.14278,-13.806858 0.001,-8.53006 0.192,-10.07976 1.85905,-15.12815 3.91923,-11.86874 9.95789,-19.15838 20.11129,-24.2775904 18.56656,-9.361 40.99998,0.33496 47.88938,20.6983004 3.71205,10.97183 4.5769,17.05049 4.88311,34.320493 0.42343,23.881305 -1.4631,34.579696 -7.89302,44.760732 -1.53566,2.43156 -2.79212,4.73397 -2.79212,5.11648 0,0.38251 0.76368,0.69547 1.69707,0.69547 0.93339,0 2.31267,0.6156 3.06506,1.36799 1.51597,1.51598 1.40191,2.68902 -0.81776,8.4098 -0.71038,1.8309 -1.04845,3.55047 -0.75123,3.82125 0.29721,0.27079 1.7623,0.87424 3.25571,1.34099 10.38135,3.24459 29.03824,14.4806 35.75282,21.53191 6.02172,6.32368 6.75509,10.88176 6.76968,42.0748 l 0.011,22.54343 1.81364,-0.36083 c 4.30764,-0.85702 4.35533,-0.82756 5.91748,3.65587 1.75393,5.03383 3.09791,6.70075 6.75739,8.38121 4.86101,2.23217 10.69958,1.23472 14.39326,-2.45895 4.38525,-4.38527 3.36807,-6.45476 -11.95718,-24.32739 -12.79854,-14.92592 -14.48135,-17.84808 -14.52653,-25.22497 -0.0278,-4.55764 1.54469,-8.80182 4.60141,-12.41838 5.44743,-6.44516 18.48227,-7.48622 25.12949,-2.00703 2.86732,2.3635 5.59773,7.82102 6.2335,12.45951 0.40624,2.96386 0.39455,2.98482 -1.71973,3.08596 -1.17082,0.056 -2.46816,0.1323 -2.88295,0.16971 -0.41482,0.0374 -1.45688,-1.87269 -2.31569,-4.2445 -0.85882,-2.37182 -2.39367,-5.18101 -3.41079,-6.24265 -4.22706,-4.41211 -13.04342,-3.6592 -16.46197,1.4058 -2.89681,4.29196 -3.07422,3.98991 14.92642,25.41137 12.12649,14.43098 13.16222,16.41643 12.60759,24.16813 -0.77476,10.82829 -9.15556,17.3916 -21.49152,16.83079 -4.43834,-0.20177 -5.79261,-0.56365 -8.59637,-2.29712 -3.83391,-2.37035 -6.14573,-5.46227 -7.19257,-9.61957 -0.40405,-1.60469 -0.97117,-2.9176 -1.26027,-2.9176 -0.998,0 -1.34971,2.16948 -1.35717,8.37116 -0.003,3.42299 -0.19682,7.36915 -0.42823,8.76925 l -0.42076,2.54559 -86.68805,0 c -47.67842,0 -86.876821,-0.1888 -87.107581,-0.41957 z m 25.174161,-5.82565 c 0.60143,-0.60145 0.81459,-6.81845 0.81459,-23.759 0,-18.10994 0.18186,-22.94438 0.86314,-22.94438 0.47472,0 7.11874,10.44557 14.7645,23.21237 7.64576,12.76681 14.39442,23.50696 14.99706,23.86701 0.60261,0.36008 1.59803,0.4619 2.21199,0.22628 1.02006,-0.39143 1.10119,-3.63488 0.94079,-37.61329 l -0.1755,-37.18489 -1.69706,0 -1.69706,0 -0.17825,24.65564 c -0.16143,22.33144 -0.28214,24.63511 -1.28062,24.43781 -0.63995,-0.12651 -6.87877,-10.31981 -14.87247,-24.29954 -8.28271,-14.48515 -14.31737,-24.32592 -15.14347,-24.69452 -0.75538,-0.33707 -1.84849,-0.43053 -2.42913,-0.2077 -0.93717,0.35961 -1.05572,4.54948 -1.05572,37.3094 0,20.29736 0.20365,37.10794 0.45255,37.35685 0.72046,0.72045 2.59712,0.52548 3.48466,-0.36204 z m 71.94858,0.0981 c 11.58574,-1.25937 18.55508,-5.89588 22.36259,-14.87717 l 1.87876,-4.43174 0,-30.88666 0,-30.88668 -1.96308,-4.25068 c -2.27015,-4.9156 -5.84579,-8.4411 -10.91491,-10.7618 -5.43794,-2.48956 -9.03741,-2.99167 -24.62725,-3.43525 l -14.42512,-0.41045 0,49.87592 c 0,27.43178 0.20366,50.07959 0.45257,50.3285 0.71387,0.71385 19.95636,0.52736 27.23644,-0.26399 z m -14.4793,-4.88379 c -0.17835,-0.4667 -0.24513,-20.857 -0.14841,-45.31178 l 0.17585,-44.46322 7.1277,0 c 6.59424,0 7.37116,0.14308 10.38075,1.91214 4.14703,2.43766 6.9888,6.36698 7.94866,10.99063 0.5085,2.4494 0.68733,13.47521 0.54694,33.72205 -0.20622,29.74286 -0.22622,30.12108 -1.7707,33.47687 -1.94702,4.2304 -5.08623,7.59243 -8.6203,9.23216 -3.31177,1.5366 -15.09487,1.86894 -15.64049,0.44115 z m 76.3956,3.95889 c 4.28275,-2.20972 6.73341,-5.1458 8.16572,-9.78307 1.21808,-3.94366 1.33789,-6.36096 1.33789,-26.99351 0,-20.89737 -0.104,-22.93578 -1.33625,-26.17868 -2.74767,-7.23124 -8.22988,-10.3947 -18.01035,-10.39271 -6.32902,0.001 -9.72345,1.01646 -12.99063,3.88507 -5.57791,4.89747 -6.30761,8.84333 -6.30761,34.1082 0,21.54642 0.49799,26.21042 3.20401,30.00686 3.82343,5.36415 8.05625,7.03792 17.11246,6.76678 4.58391,-0.13715 7.13596,-0.54758 8.82476,-1.41893 z m -13.56535,-3.62055 c -1.76656,-0.88667 -2.70881,-2.04543 -3.72507,-4.58103 -1.26739,-3.16213 -1.36095,-4.97174 -1.36885,-26.47429 -0.009,-25.66923 0.36128,-28.77612 3.84987,-32.26471 1.64128,-1.64128 2.58696,-2.01611 5.0865,-2.01611 4.17298,0 7.17996,2.91474 8.27511,8.02133 1.03267,4.81514 1.02806,42.9827 -0.006,48.94463 -0.6468,3.72945 -1.19463,4.88877 -3.31428,7.01359 -2.89192,2.89898 -5.05875,3.2331 -8.79738,1.35659 z m -139.494001,1.08357 c 3.16931,-2.78268 4.85252,-6.17305 5.72051,-11.52237 0.85899,-5.29386 0.94809,-35.6641 0.10614,-36.18445 -0.33321,-0.20592 -1.10539,2.29619 -1.71596,5.56027 -3.43344,18.35489 -7.86065,42.87004 -7.86065,43.52743 0,1.29531 1.20898,0.85011 3.74994,-1.38088 z m -9.2438,-2.32141 c 3.77284,-3.17464 4.13667,-5.94514 4.13243,-31.46806 -0.002,-14.3347 -0.27792,-23.77459 -0.74282,-25.44906 -1.06129,-3.82249 -3.96782,-6.50236 -7.05233,-6.50236 -3.40188,0 -4.83918,0.92553 -6.62394,4.26537 -1.50667,2.81948 -1.52958,3.23344 -1.52958,27.63956 0,22.42448 0.11847,25.08432 1.24779,28.01133 2.01671,5.22707 6.68194,6.77351 10.56845,3.50322 z m -63.74659,7.17912 c -4.8510132,-0.8237 -7.8977362,-2.4025 -11.3930822,-5.90392 -3.37767005,-3.3835 -5.738961,-8.47334 -6.611383,-14.25102 -0.426658,-2.82559 -0.413705,-2.84731 1.962771,-3.29314 1.31574495,-0.24685 2.75207,-0.32885 3.191828,-0.18228 0.439759,0.14653 1.340568,2.39684 2.001781,5.00058 1.595618,6.28311 3.578345,9.46518 7.2318262,11.60625 2.676825,1.56872 3.544849,1.7314 7.665289,1.43659 6.00073,-0.42937 8.95947,-2.21014 11.41851,-6.87245 l 1.84258,-3.49354 0.33941,-42.76617 0.33941,-42.76616 7.1277,0 7.12769,0 0.18793,37.67495 c 0.10875,21.80558 -0.0936,40.01949 -0.48032,43.24102 -1.44854,12.06541 -8.04831,18.79581 -20.14571,20.54447 -5.28286,0.76365 -7.42843,0.76815 -11.80623,0.0249 z" style="fill:#ff4500"/></g></g></svg>