<svg xmlns="http://www.w3.org/2000/svg" viewBox="0 0 256 256"><path d="m 134.42924 252.40206 c 347.01 -154.260006 -162.109996 -431.5 -133.2399957 -87.84 6.753 51.745 60.2299997 106.08 133.2399957 87.84 z" style="fill:#fff;color:#000"/><g transform="matrix(0.71024616 0 0 0.70191824 40.691148 44.501538)"><path d="m 39.661015,228.42939 c 0,-2.45639 7.196538,-21.24779 12.705083,-33.17515 8.532793,-18.47561 19.937404,-38.80309 26.449805,-47.1439 1.564812,-2.00415 2.845113,-3.98847 2.845113,-4.40959 0,-0.42113 -2.3625,-3.29936 -5.25,-6.39608 -2.8875,-3.09672 -9.965653,-12.3624 -15.729227,-20.59041 C 42.974902,91.436118 28.607192,75.283266 11.972695,61.953214 6.9110935,57.897101 5.6610155,56.336718 5.6610155,54.074795 c 0,-2.457162 0.809623,-3.242123 3.087266,-2.993223 11.8405125,1.293929 26.9238025,3.577765 31.9127335,4.832066 16.496012,4.147375 24.593025,6.770834 33.65113,10.903077 1.73312,0.790638 3.383007,1.437523 3.666412,1.437523 2.401666,0 29.853863,17.229682 39.682463,24.905699 3.575,2.792033 7.27713,5.080446 8.22695,5.085362 2.08319,0.01078 3.74807,-2.538401 6.85174,-10.491061 3.23801,-8.29688 9.10977,-16.54297 14.47005,-20.321246 2.48035,-1.748315 4.96241,-3.178754 5.51568,-3.178754 0.55327,0 2.04996,-0.684061 3.32597,-1.520136 1.29399,-0.847857 5.81149,-1.786377 10.21481,-2.122151 6.95055,-0.530012 8.84358,-0.273639 15.82741,2.143505 8.96017,3.101164 13.08574,3.040408 27.77463,-0.409031 10.53489,-2.473944 24.40717,-4.409924 28.29276,-3.948469 2.13457,0.253502 3.08604,0.958482 3.29826,2.443787 0.44919,3.143903 -1.84412,4.392203 -9.94533,5.413458 -8.58422,1.082145 -14.40439,2.471929 -21.37226,5.103428 -2.76063,1.042585 -5.58809,1.895609 -6.28324,1.895609 -0.69515,0 -3.51433,1.140368 -6.26483,2.534152 -5.60856,2.842074 -11.64908,8.472369 -15.30789,14.26829 -2.9183,4.622884 -6.62471,16.14127 -6.62471,20.58755 0,5.34956 -5.87151,20.56286 -10.43567,27.03921 -1.13538,1.61105 -4.53933,5.5898 -7.56433,8.84166 -3.025,3.25186 -6.02394,6.8952 -6.66431,8.09631 -1.15426,2.16498 -9.60119,9.78716 -16.33569,14.74069 -4.18148,3.07566 -19.76405,12.01405 -29.44861,16.89214 -8.199664,4.13015 -17.21232,12.2227 -25.141102,22.57443 -3.144559,4.1055 -6.660786,7.65358 -7.813836,7.88462 -1.153051,0.23105 -4.432787,0.68431 -7.288302,1.00725 -6.66509,0.75377 -11.786503,2.91458 -14.586867,6.15443 -3.467513,4.0117 -10.721288,7.09312 -10.721288,4.55442 z" style="fill:#ff4500"/><path d="m 83.312435,193.49924 c -1.379717,-2.23243 9.537933,-9.74035 13.151871,-9.04437 1.15392,0.22223 -0.10327,1.74844 -4.167085,5.0588 -5.584314,4.54895 -7.97985,5.61159 -8.984786,3.98557 z M 84.800927,87.754238 c -2.922963,-1.925 -5.484573,-3.5 -5.692466,-3.5 -0.207894,0 -2.434419,-1.304149 -4.947832,-2.898109 C 71.647216,79.762169 67.244088,77.524852 64.3759,76.384312 46.220361,69.16473 43.718468,68.300391 32.481249,65.365548 22.018274,62.632915 16.661016,60.207551 16.661016,58.203335 c 0,-1.445421 12.241888,-0.05928 19.380272,2.194413 3.234149,1.02107 6.609149,1.858574 7.5,1.861121 4.381338,0.01252 22.659658,9.19268 33.058065,16.603174 14.090783,10.041891 20.502033,16.993009 8.201574,8.892195 z m 86.476133,-12.75 c 0.78348,-5.205382 1.30552,-5.844779 4.16215,-5.097755 5.04996,1.320595 3.48262,9.347755 -1.82519,9.347755 -2.9356,0 -2.96782,-0.05859 -2.33696,-4.25 z" style="fill:#fff"/></g></svg>