<svg xmlns="http://www.w3.org/2000/svg" viewBox="0 0 256 256" xmlns:xlink="http://www.w3.org/1999/xlink"><defs><clipPath id="0"><path transform="matrix(15.33333 0 0 11.5 415 -125.5)" d="m -24 13 c 0 1.105 -0.672 2 -1.5 2 -0.828 0 -1.5 -0.895 -1.5 -2 0 -1.105 0.672 -2 1.5 -2 0.828 0 1.5 0.895 1.5 2 z"/></clipPath></defs><g transform="translate(0 -796.36)"><path d="m -1067.28 1935.73 c 48.956 88.52 202.34 54.16 228.29 -18.719 30.922 -86.82 -49.563 -251.7 -185.88 -155.11 -45.916 33.728 -91.37 85.31 -42.41 173.83 z" transform="translate(1088.39 -936.13)" style="fill:#fff;color:#000"/><g transform="matrix(4.69556 0 0 5.0055 15.541 803.22)" style="fill:#ff4500"><g style="clip-path:url(#0)"><g transform="translate(1 1)" style="opacity:0.1"><path d="m 14 33 h 12 v -2 h -12" id="1"/><path d="m 14 29 h 19.996 v -1.996 h -19.996" id="2"/><path d="m 14 25 h 19.996 v -1.996 h -19.996" id="3"/><path d="m 14 21 h 19.996 v -1.996 h -19.996" id="4"/><path d="m 14 17 h 19.996 v -2 h -19.996" id="5"/></g></g><g style="clip-path:url(#0)"><g><use xlink:href="#1"/><use xlink:href="#2"/><use xlink:href="#3"/><use xlink:href="#4"/><use xlink:href="#5"/></g></g></g></g></svg>