<svg xmlns="http://www.w3.org/2000/svg" viewBox="0 0 256 256"><path d="M 229.62664,992.19588 C 321.67699,861.26283 151.67875,728.59918 43.239794,835.28142 -58.929521,935.79549 35.79079,1091.9595 162.92826,1043.144 c 26.52578,-10.1848 49.80187,-26.9143 66.69838,-50.94812 z" transform="translate(0 -796.36218)" style="fill:#fff;color:#000"/><path d="m 95.666964,195.20414 c -9.17658,-2.43204 -14.08089,-4.97016 -20.33299,-10.52292 -6.41419,-5.6967 -9.2163,-7.08149 -16.01398,-7.91404 -12.0294,-1.4733 -18.86858,-5.52443 -25.138236,-14.89041 -2.285605,-3.41437 -7.638856,-9.81356 -11.896113,-14.22041 -5.42964,-5.62044 -8.070953,-9.2029 -8.84748,-12 -1.461539,-5.26457 -1.418305,-15.75374 0.08563,-20.77341 1.374854,-4.58885 8.61605,-12.73767 13.771838,-15.49801 2.842575,-1.52188 3.887115,-3.03155 5.734773,-8.28847 2.838205,-8.07519 8.540688,-13.69589 16.412698,-16.17733 5.1632,-1.62755 5.58341,-2.0176 8.11469,-7.53226 5.23966,-11.41512 13.12905,-16.93676 26.23988,-18.36482 6.64668,-0.72397 8.27718,-1.25787 9.50856,-3.11353 4.12649,-6.21855 12.458256,-13.6709 18.302166,-16.37038 5.53814,-2.55824 7.2958,-2.8679 16.21161,-2.85607 8.72088,0.0116 10.73139,0.35438 15.71807,2.68006 7.10304,3.31272 15.23956,10.80288 18.3037,16.84969 3.02351,5.96659 4.77621,7.34739 8.4051,6.62161 4.33871,-0.86774 13.30971,0.88063 20.05825,3.90919 10.10782,4.53612 19.86686,16.94852 21.56338,27.42619 1.38791,8.57171 0.78525,8 8.43302,8 13.58077,0 24.22085,6.57182 30.15457,18.6249 2.94999,5.99228 3.21585,7.34286 3.28675,16.69736 0.0652,8.60238 -0.27835,10.95166 -2.21957,15.17774 -5.14306,11.19658 -12.91474,18.62654 -25.93369,24.79337 -6.47863,3.06881 -7.34123,3.21374 -20.06941,3.372 l -13.29983,0.16537 -7.04228,4.25501 c -10.50619,6.34794 -24.75103,9.24154 -26.25109,5.33246 -1.4778,-3.85107 -0.83417,-4.17568 9.14301,-4.61123 11.29419,-0.49305 16.41049,-2.55411 22.43922,-9.03945 l 3.68923,-3.96864 5.19918,1.72689 c 10.36377,3.4423 21.47413,0.30451 28.91031,-8.16483 4.49359,-5.1179 6.01206,-9.25465 6.01206,-16.37849 0,-11.76398 -8.01744,-21.4138 -20.23477,-24.35464 -1.93123,-0.46486 -2.89952,-1.46183 -3.29547,-3.39305 -1.54169,-7.51958 -2.79178,-10.31904 -6.47792,-14.50672 -4.54082,-5.15864 -10.32001,-8.27967 -17.14388,-9.25848 -4.62538,-0.66346 -4.66473,-0.70205 -6.86188,-6.72792 -2.72875,-7.48388 -9.12982,-14.19712 -17.3906,-18.23874 -10.63454,-5.203 -28.35657,-4.41168 -36.0092,1.60789 -3.04597,2.39596 -2.66981,3.13943 2.41374,4.77073 1.925,0.61773 4.82717,2.18623 6.44927,3.48556 l 2.94927,2.36243 -1.82454,6.38524 c -2.79185,9.77051 -11.75177,27.33212 -19.29173,37.81212 -3.73025,5.18479 -11.39478,14.24595 -17.03228,20.13591 -5.637496,5.88996 -10.249996,11.26143 -10.249996,11.93662 0,0.85051 0.9983,1.02961 3.25,0.58309 1.7875,-0.35448 8.213546,-0.90839 14.280106,-1.23092 8.6693,-0.46091 11.26645,-0.29375 12.13437,0.781 1.4198,1.75814 -0.65196,19.25588 -2.49814,21.09892 -1.8306,1.82749 -15.38164,1.44727 -22.666336,-0.63598 -3.3,-0.94373 -9.53636,-3.74818 -13.85858,-6.23213 -5.14227,-2.95522 -10.32701,-5.02808 -15,-5.997 -4.08446,-0.84689 -10.15219,-3.1287 -14.17494,-5.3306 -6.63216,-3.63018 -9.93984,-4.54024 -15.21648,-4.18659 -1.832135,0.12279 -2.250002,0.74387 -2.250002,3.3442 0,2.54692 1.081341,4.24077 5.341402,8.36696 6.85515,6.63974 13.11313,8.8905 22.79328,8.19789 l 6.86716,-0.49134 2.06999,3.34932 c 6.17088,9.98468 22.04296,17.20615 40.928166,18.62146 2.7459,0.20579 3.5,0.69321 3.5,2.2623 0,1.77278 -0.73851,2.0245 -6.5,2.21554 -3.87414,0.12846 -9.389666,-0.55029 -13.653036,-1.6802 z m 25.461626,0.89044 c -0.19694,-0.59083 0.72251,-11.40887 2.04323,-24.0401 1.32072,-12.63122 2.15074,-23.21644 1.8445,-23.52268 -0.30624,-0.30624 -5.98735,-0.6257 -12.62468,-0.7099 -7.54425,-0.0957 -12.0686,-0.54074 -12.06977,-1.18725 -0.001,-0.56879 2.51203,-3.49379 5.58458,-6.5 15.12349,-14.79696 26.49182,-30.91284 30.50813,-43.24868 1.2146,-3.73056 2.67949,-6.6258 3.25531,-6.43386 0.57582,0.19194 2.24061,3.24422 3.69953,6.78284 5.198,12.60772 20.43332,35.24807 29.86913,44.38681 2.24479,2.17412 4.08144,4.31162 4.08144,4.75 0,0.43838 -5.5125,0.80394 -12.25,0.81236 -6.7375,0.008 -12.80125,0.36553 -13.475,0.79357 -0.94898,0.6029 -0.54264,5.92621 1.8033,23.62458 1.66557,12.56548 2.79345,23.45837 2.50639,24.20644 -0.66891,1.74315 -34.19845,2.01878 -34.77609,0.28587 z M 150.32,189.13557 c 0,-2.35608 -4.43586,-11.50007 -6.06823,-12.50893 -1.94389,-1.20139 -13.54625,4.40065 -14.79629,7.14416 -1.27078,2.78909 -1.47526,5.7249 -0.46881,6.73134 0.36666,0.36667 5.31666,0.66667 11,0.66667 9.72298,0 10.33333,-0.1201 10.33333,-2.03324 z m 5.18522,-35.71676 c 0.3551,-1.87245 4.74662,-2.87897 7.64924,-1.75315 1.50248,0.58275 1.4755,0.78584 -0.2756,2.07457 -2.87348,2.11474 -7.79496,1.90021 -7.37364,-0.32142 z m 14.12654,-23.0193 c -6.61457,-8.86736 -15.61813,-22.70146 -17.92356,-27.53979 -1.57276,-3.30075 -1.61969,-3.93609 -0.35159,-4.76062 1.70107,-1.10606 8.03649,-0.29356 12.71299,1.63041 8.59446,3.53586 14.79817,12.23955 15.85162,22.23955 0.6116,5.80565 -1.52133,14.56557 -3.64545,14.97181 -0.93374,0.17857 -3.56034,-2.40744 -6.64401,-6.54136 z M 143.36174,87.10845 c -3.15256,-6.83957 -3.43436,-8.91836 -1.00549,-7.41723 1.49647,0.92487 5.94113,10.42605 5.95398,12.7276 0.0196,3.50929 -1.76691,1.59214 -4.94849,-5.31037 z" transform="matrix(0.76743004 0 0 0.69602003 23.714271 47.088068)" style="fill:#ff4500"/></svg>