<svg xmlns="http://www.w3.org/2000/svg" viewBox="0 0 256 256"><g transform="translate(0 -796.36)"><path d="m 211.17 833.49 c 201.82 266.38 -353.59 304.22 -175.35 32.31 40.634 -61.991 121.89 -102.86 175.35 -32.31 z" style="fill:#fff;color:#000"/><g transform="matrix(6.28578 0 0 6.69727 -14.04 769.11)" style="fill:#ff4500"><path d="M 22.977,13 C 17.21,13.006 12.423,17.451 12,23.193 12.415,19.108 15.858,16 19.971,16 c 4.343,0 7.887,3.452 8.02,7.756 -0.253,-0.028 -0.507,-0.045 -0.768,-0.045 -3.758,0 -6.807,2.973 -6.807,6.645 0,3.672 3.049,6.646 6.807,6.646 3.762,0 6.809,-2.974 6.809,-6.646 0,-0.126 -0.012,-0.249 -0.02,-0.373 l 3.99,-3.982 -4,0 0,-2 c 0,-6.075 -4.939,-11 -11.02,-11 m -3.164,4.09 c -3.758,0 -6.813,2.988 -6.813,6.656 0,3.527 2.816,6.379 6.375,6.594 0,-3.988 3.191,-7.242 7.156,-7.594 -0.492,-3.199 -3.309,-5.656 -6.719,-5.656 z m 0,4.563 c 1.172,0 2.125,0.949 2.125,2.094 0,1.145 -0.953,2.064 -2.125,2.064 -1.172,0 -2.125,-0.919 -2.125,-2.064 0,-1.145 0.953,-2.094 2.125,-2.094 z m 0,0.439 c -0.941,0 -1.719,0.736 -1.719,1.654 0,0.922 0.777,1.656 1.719,1.656 0.941,0 1.688,-0.734 1.688,-1.656 0,-0.918 -0.745,-1.654 -1.688,-1.654 z m 0,0.625 c 0.586,0 1.063,0.455 1.063,1.029 0,0.574 -0.473,1.031 -1.063,1.031 -0.586,0 -1.064,-0.457 -1.064,-1.031 0,-0.574 0.478,-1.029 1.064,-1.029 z m 6.605,5.719 0.332,0.332 c -0.709,0.199 -1.229,0.827 -1.229,1.588 0,0.922 0.758,1.664 1.699,1.664 0.766,0 1.401,-0.492 1.617,-1.168 l 0.332,0.332 c -0.329,0.733 -1.076,1.25 -1.949,1.25 -1.172,0 -2.125,-0.934 -2.125,-2.078 0,-0.868 0.547,-1.611 1.322,-1.92 z m 0.803,0.881 c 0.035,0 0.064,0.016 0.098,0.02 l 0.953,0.951 c 0.002,0.024 0.014,0.044 0.014,0.068 0,0.574 -0.475,1.039 -1.064,1.039 -0.586,0 -1.064,-0.465 -1.064,-1.039 0,-0.574 0.478,-1.039 1.064,-1.039 z" style="opacity:0.1"/><path d="m 18.813 16.09 c -3.758 0 -6.813 2.988 -6.813 6.656 0 3.527 2.816 6.379 6.375 6.594 0 -3.988 3.191 -7.242 7.156 -7.594 -0.492 -3.199 -3.309 -5.656 -6.719 -5.656 m 0 4.563 c 1.172 0 2.125 0.949 2.125 2.094 0 1.145 -0.953 2.063 -2.125 2.063 -1.172 0 -2.125 -0.918 -2.125 -2.063 0 -1.145 0.953 -2.094 2.125 -2.094 m 0 0.438 c -0.941 0 -1.719 0.738 -1.719 1.656 0 0.922 0.777 1.656 1.719 1.656 0.941 0 1.688 -0.734 1.688 -1.656 0 -0.918 -0.746 -1.656 -1.688 -1.656 m 0 0.625 c 0.586 0 1.063 0.457 1.063 1.031 0 0.574 -0.473 1.031 -1.063 1.031 -0.586 0 -1.063 -0.457 -1.063 -1.031 0 -0.574 0.477 -1.031 1.063 -1.031"/><path d="m 26.22 22.711 c -3.758 0 -6.805 2.973 -6.805 6.645 0 3.672 3.047 6.645 6.805 6.645 3.762 0 6.809 -2.973 6.809 -6.645 0 -3.672 -3.047 -6.645 -6.809 -6.645 m 0 4.57 c 1.176 0 2.129 0.93 2.129 2.074 0 1.145 -0.953 2.078 -2.129 2.078 -1.172 0 -2.125 -0.934 -2.125 -2.078 0 -1.145 0.953 -2.074 2.125 -2.074 m 0 0.414 c -0.941 0 -1.699 0.738 -1.699 1.66 0 0.922 0.758 1.664 1.699 1.664 0.945 0 1.703 -0.742 1.703 -1.664 0 -0.922 -0.758 -1.66 -1.703 -1.66 m 0 0.621 c 0.59 0 1.066 0.465 1.066 1.039 0 0.574 -0.477 1.039 -1.066 1.039 -0.586 0 -1.063 -0.465 -1.063 -1.039 0 -0.574 0.477 -1.039 1.063 -1.039" style="fill:#ffdead"/><path d="m 27.92,22.928 0.25,7.258 2.818,2.814 1.758,-1.754 c 0.182,-0.6 0.283,-1.233 0.283,-1.891 0,-3.098 -5.109,-6.428 -5.109,-6.428 z" style="fill-opacity:0.098"/><path d="M 21.976,12 C 16.209,12.006 11.423,16.451 11,22.193 11.415,18.108 14.859,15 18.972,15 c 4.425,0 8.03,3.582 8.03,8 l 0,2 -4.02,0 7.01,7 7.01,-7 -4,0 0,-2 c 0,-6.075 -4.939,-11 -11.02,-11" style="fill-rule:evenodd"/></g></g></svg>