<svg xmlns="http://www.w3.org/2000/svg" viewBox="0 0 256 256"><path d="m 226.22 211.58 c 62.27 -95.76 12.03 -183 -58.47 -203.69 -94.83 -27.843 -223.59 45.32 -138.75 196.1 c 33.72 59.925 152.85 75.79 197.21 7.587 z" style="fill:#fff;color:#000"/><g transform="matrix(1.0730096 0 0 1.282218 -10.546469 -25.85419)" style="fill:#ff4500;stroke:#ff4500"><path d="m 141.2,168.37627 c -0.66,-0.66 -1.14676,-2.3475 -1.08169,-3.75 0.11023,-2.37561 0.16205,-2.34567 0.75771,0.43779 0.75771,3.54069 3.87306,4.57584 5.80788,1.92982 0.72386,-0.98993 1.3161,-1.35386 1.3161,-0.80874 0,1.51644 -2.21129,3.39113 -4,3.39113 -0.88,0 -2.14,-0.54 -2.8,-1.2 z m -61.825714,-3.26701 c -0.30962,-0.80686 -0.331023,-2.04436 -0.04756,-2.75 0.28346,-0.70564 0.550909,-0.30799 0.59433,0.88368 0.04342,1.19166 0.641447,2.39364 1.328947,2.67105 0.979059,0.39506 0.972257,0.5215 -0.03139,0.58333 -0.704761,0.0434 -1.53471,-0.5812 -1.844329,-1.38806 z M 84.75,165.57804 c 0.910715,-1.02129 1.25,-6.77605 1.25,-21.20177 0,-10.89 0.3375,-19.80047 0.75,-19.80104 0.4125,-5.6e-4 0.619684,8.95912 0.460409,19.91042 -0.253129,17.40442 -0.504947,20.07404 -2,21.2028 -1.449694,1.09452 -1.519873,1.07769 -0.460409,-0.11041 z m 54.40789,-8.00177 c 0,-1.375 0.22698,-1.9375 0.50439,-1.25 0.27741,0.6875 0.27741,1.8125 0,2.5 -0.27741,0.6875 -0.50439,0.125 -0.50439,-1.25 z m -35.44383,-1.61928 c -1.47064,-1.47064 -0.64353,-2.35362 1.15347,-1.23138 1.02715,0.64147 2.58968,0.88919 3.47229,0.5505 1.35059,-0.51827 1.64874,-2.87943 1.88247,-14.90782 l 0.27771,-14.29202 4.25742,-0.0981 4.25743,-0.0981 -3.98102,0.40429 -3.98101,0.4043 -0.27641,14.69379 -0.27641,14.6938 -3.03594,0.29739 c -1.66977,0.16357 -3.35727,-0.0239 -3.75,-0.41667 z M 168.75,155.5451 c 2.22401,-0.89394 2.25264,-1.1502 2.47857,-22.18661 l 0.22857,-21.28222 0.29209,20.87264 c 0.29974,21.41883 -0.0513,23.70302 -3.62167,23.56397 -1.1014,-0.0429 -0.90018,-0.35576 0.62244,-0.96778 z m -4.08333,-0.6355 C 164.3,154.54293 164,146.80161 164,137.70665 l 0,-16.53628 -3.79216,3.70295 c -2.08569,2.03662 -4.05775,3.70295 -4.38236,3.70295 -0.3246,0 1.20981,-1.8 3.40981,-4 2.2,-2.2 4.377,-4 4.83777,-4 0.46077,0 0.97033,7.87555 1.13235,17.50123 0.16203,9.62568 0.25709,17.50068 0.21126,17.5 -0.0458,-6.8e-4 -0.38334,-0.30123 -0.75,-0.6679 z M 79.397394,139.57627 c 0,-7.975 0.155301,-11.2375 0.345113,-7.25 0.189811,3.9875 0.189811,10.5125 0,14.5 -0.189812,3.9875 -0.345113,0.725 -0.345113,-7.25 z m 60.598056,0.79634 c -0.2725,-6.98702 -0.14302,-12.34959 0.28773,-11.91683 0.43075,0.43277 0.6537,6.14941 0.49545,12.70367 l -0.28773,11.91682 -0.49545,-12.70366 z m 7.36505,-1.79634 c 0,-5.225 0.16854,-7.3625 0.37454,-4.75 0.206,2.6125 0.206,6.8875 0,9.5 -0.206,2.6125 -0.37454,0.475 -0.37454,-4.75 z m -43.99527,-1.5 c 0.003,-5.5 0.17053,-7.62242 0.37317,-4.71648 0.20265,2.90594 0.20052,7.40594 -0.005,10 -0.20527,2.59406 -0.37107,0.21648 -0.36847,-5.28352 z m 46.44727,-9.18312 c 0.72187,-0.28887 1.58437,-0.25334 1.91667,0.0789 0.33229,0.33229 -0.25834,0.56864 -1.3125,0.52522 -1.16495,-0.048 -1.4019,-0.28494 -0.60417,-0.60416 z M 125.25,126.8478 c 2.0625,-0.21575 5.4375,-0.21575 7.5,0 2.0625,0.21574 0.375,0.39226 -3.75,0.39226 -4.125,0 -5.8125,-0.17652 -3.75,-0.39226 z m -29.75,-1.27153 -7,-0.64683 6.690983,-0.17659 c 3.680041,-0.0971 6.969097,0.27342 7.309017,0.82342 0.33992,0.55 0.47898,0.92053 0.30902,0.82341 -0.16996,-0.0971 -3.45902,-0.46766 -7.30902,-0.82341 z m -21.25,-1.68933 c 0.9625,-0.25153 2.5375,-0.25153 3.5,0 0.9625,0.25153 0.175,0.45732 -1.75,0.45732 -1.925,0 -2.7125,-0.20579 -1.75,-0.45732 z m -7.4375,-0.99379 c 0.721875,-0.28887 1.584375,-0.25334 1.916667,0.0789 0.332291,0.3323 -0.258334,0.56864 -1.3125,0.52522 -1.164943,-0.048 -1.4019,-0.28494 -0.604167,-0.60417 z m 60.95541,-2.04161 c 1.79735,-0.22257 4.49735,-0.21797 6,0.0102 1.50265,0.22817 0.0321,0.41027 -3.26791,0.40465 -3.3,-0.006 -4.52944,-0.1923 -2.73209,-0.41486 z M 111.25,119.8478 c 2.0625,-0.21575 5.4375,-0.21575 7.5,0 2.0625,0.21574 0.375,0.39226 -3.75,0.39226 -4.125,0 -5.8125,-0.17652 -3.75,-0.39226 z m -16.522304,-0.99326 c 1.775232,-0.22092 4.925232,-0.22455 7.000004,-0.008 2.07476,0.2165 0.6223,0.39725 -3.2277,0.40169 -3.85,0.004 -5.547537,-0.17268 -3.772304,-0.39359 z M 78.25,117.8478 c 2.0625,-0.21575 5.4375,-0.21575 7.5,0 2.0625,0.21574 0.375,0.39226 -3.75,0.39226 -4.125,0 -5.8125,-0.17652 -3.75,-0.39226 z m -8.4375,-0.95465 c 0.721875,-0.28887 1.584375,-0.25334 1.916667,0.0789 0.332291,0.3323 -0.258334,0.56864 -1.3125,0.52522 -1.164943,-0.048 -1.4019,-0.28494 -0.604167,-0.60417 z M 100.5,112.40931 c -7.480487,-1.41122 -7.972144,-2.30745 -5.146211,-9.38086 3.14521,-7.872564 3.959846,-11.452183 2.606246,-11.452183 -0.592938,0 -0.850009,-0.36901 -0.571268,-0.820021 0.796722,-1.289123 64.983643,-0.103684 77.424903,1.429925 3.75969,0.46345 4.14832,0.730964 3.02618,2.083069 -1.08767,1.310562 -3.00519,1.445556 -12.35494,0.869793 -13.02276,-0.80195 -12.9969,-0.817092 -16.41197,9.611547 -1.20209,3.67088 -2.81971,7.20056 -3.5947,7.84374 -1.55915,1.29399 -8.59332,0.50578 -11.97824,-1.3422 -1.1,-0.60054 -4.25,-1.13935 -7,-1.19735 -2.75,-0.058 -7.07813,-0.45659 -9.61806,-0.88574 -4.41107,-0.7453 -4.64724,-0.66402 -5.26905,1.81348 -0.72691,2.89623 -2.2722,3.09464 -11.11289,1.4268 z m 9.05064,-2.6025 c -0.37088,-1.68858 -0.0611,-3.51782 0.79382,-4.68694 1.37324,-1.87802 1.41557,-1.87505 2.05648,0.14429 0.5082,1.60119 1.82105,2.21394 5.87672,2.74286 2.87229,0.37459 6.23819,0.93053 7.47979,1.23544 1.90818,0.46859 2.55497,-0.12025 4.18043,-3.80592 1.05764,-2.39815 2.06679,-6.13541 2.24255,-8.305022 0.27146,-3.350924 -0.0568,-4.147131 -2.18043,-5.289172 -2.66439,-1.432826 -10.23477,-1.061779 -10.76456,0.527602 -0.16916,0.507484 -0.90617,1.741338 -1.6378,2.741898 -1.26103,1.724558 -1.51412,1.731935 -4.86506,0.14181 -7.46153,-3.540724 -10.81997,-2.101085 -14.36957,6.159694 -1.574656,3.6646 -2.86301,7.11292 -2.86301,7.66292 0,0.55 2.7,1.51345 6,2.141 8.91295,1.69495 8.73938,1.72536 8.05064,-1.41046 z m 38.17522,-5.1131 c 2.62273,-8.374368 2.21356,-9.66298 -3.40287,-10.716628 -6.29688,-1.181301 -10.32762,2.463896 -11.75845,10.633738 -0.80184,4.57836 0.20291,5.83489 5.50798,6.88825 6.89302,1.36865 7.15011,1.18741 9.65334,-6.80536 z m 25.34267,5.27299 c 1.89946,-2.79923 14.54451,-16.289884 13.35612,-14.249268 -0.50856,0.873252 -4.04381,4.911228 -7.85612,8.973278 -3.81231,4.06206 -6.28731,6.43625 -5.5,5.27599 z M 68.1054,108.4949 c 8.369092,-7.78661 26.272698,-23.497642 27.12397,-23.802212 0.589657,-0.210968 -0.908228,1.35863 -3.328633,3.487996 C 89.480332,90.31005 83.45,95.66981 78.5,100.09126 70.798831,106.97012 62.752293,113.47544 68.1054,108.4949 z M 187,91.698712 c 0,-3.20305 -2.28038,-4.030666 -12.05412,-4.374785 L 165.5,86.991351 l 9.67857,-0.207542 c 7.66576,-0.16438 10.00538,0.119262 11.25,1.363887 1.44549,1.445484 2.23162,5.428571 1.07143,5.428571 -0.275,0 -0.5,-0.8449 -0.5,-1.877555 z m -46.75,-5.863995 c 3.7125,-0.192407 9.7875,-0.192407 13.5,0 3.7125,0.192406 0.675,0.349829 -6.75,0.349829 -7.425,0 -10.4625,-0.157423 -6.75,-0.349829 z m -33.04375,-0.999003 c 3.68844,-0.191858 9.98844,-0.193134 14,-0.0028 4.01156,0.190298 0.99375,0.347272 -6.70625,0.348833 -7.7,0.0016 -10.98219,-0.154138 -7.29375,-0.345996 z"/><path d="m 105.5,121.53074 c -14.85,-0.98045 -29.314355,-1.8213 -32.143011,-1.86856 -7.865019,-0.13139 -7.702492,-1.98255 0.870011,-9.90929 3.9713,-3.67214 10.691353,-9.939123 14.933452,-13.926623 l 7.712907,-7.25 7.313321,0.118315 c 4.02233,0.06507 8.66332,0.49932 10.31332,0.964993 1.91362,0.540074 -0.50592,0.672727 -6.68149,0.366317 -6.00054,-0.297726 -9.92007,-0.09431 -10.309012,0.535007 -0.345143,0.558452 -0.142401,1.015368 0.450537,1.015368 1.506108,0 0.409679,4.197311 -3.178416,12.167493 -1.6509,3.66712 -2.748103,7.07772 -2.438229,7.57911 0.798595,1.29215 10.23827,3.38825 16.15026,3.5862 4.30243,0.14405 5.13122,-0.14436 5.98746,-2.08357 0.84085,-1.90434 1.53444,-2.16349 4.50635,-1.68372 4.96051,0.8008 10.86126,2.11251 23.51254,5.22674 9.66904,2.38012 11.03866,2.97999 11.31955,4.95775 0.31545,2.22114 0.18077,2.24831 -10.5,2.11855 C 137.3688,123.37253 120.35,122.5112 105.5,121.53074 z m 28.26791,-0.669 c -1.50265,-0.22817 -4.20265,-0.23277 -6,-0.0102 -1.79735,0.22256 -0.56791,0.40925 2.73209,0.41486 3.3,0.006 4.77056,-0.17648 3.26791,-0.40466 z M 118.75,119.8478 c -2.0625,-0.21575 -5.4375,-0.21575 -7.5,0 -2.0625,0.21574 -0.375,0.39226 3.75,0.39226 4.125,0 5.8125,-0.17652 3.75,-0.39226 z m -17.0223,-1.00133 c -2.074772,-0.21648 -5.224772,-0.21285 -7.000004,0.008 -1.775233,0.22088 -0.0777,0.39799 3.772304,0.39356 3.85,-0.004 5.30246,-0.18519 3.2277,-0.40166 z M 85.75,117.8478 c -2.0625,-0.21575 -5.4375,-0.21575 -7.5,0 -2.0625,0.21574 -0.375,0.39226 3.75,0.39226 4.125,0 5.8125,-0.17652 3.75,-0.39226 z m -14.020833,-0.8757 c -0.332292,-0.33229 -1.194792,-0.36782 -1.916667,-0.0789 -0.797733,0.31923 -0.560776,0.55619 0.604167,0.60417 1.054166,0.0434 1.644791,-0.19293 1.3125,-0.52522 z m 79.872693,-11.99098 c -0.64626,-1.68412 0.93376,-8.131473 2.38137,-9.717278 0.40789,-0.446834 5.82181,-0.490967 12.03092,-0.09807 l 11.2893,0.714353 -3.40172,2.846812 c -1.87095,1.565743 -4.52673,3.098643 -5.90173,3.406433 -2.5981,0.58157 -12.66317,3.43868 -14.62096,4.15036 -0.61652,0.22412 -1.41626,-0.36206 -1.77718,-1.30261 z m 1.67831,-14.141125 c 2.6291,-0.206676 6.6791,-0.204183 9,0.0055 2.32091,0.209724 0.16983,0.378823 -4.78017,0.375776 -4.95,-0.003 -6.84892,-0.17464 -4.21983,-0.381317 z M 135.75,89.870534 c 1.2375,-0.238353 3.2625,-0.238353 4.5,0 1.2375,0.238353 0.225,0.433369 -2.25,0.433369 -2.475,0 -3.4875,-0.195016 -2.25,-0.433369 z"/><path d="m 165.38869,136.71748 c 0.002,-7.95452 0.46817,-22.21501 0.65844,-18.07085 0.19027,4.14416 -0.12067,21.79533 -0.31266,25.60569 -0.19166,3.81034 -0.34734,0.41967 -0.34578,-7.53484 z m -24.04157,2.58263 c 0,-4.82952 0.79157,-13.28369 1.00207,-10.86893 0.2105,2.41477 0.2105,35.1305 0,37.54526 -0.2105,2.41477 -1.00207,-21.8468 -1.00207,-26.67633 z m 2.51575,-11.0596 c 1.23732,-0.24623 9.45527,-1.54192 10.69258,-1.29569 1.23732,0.24623 -0.0847,1.74338 -2.55932,1.74338 -2.47463,0 -9.37057,-0.20146 -8.13326,-0.44769 z m -25.33215,-2.08785 c 1.78723,-0.22915 23.91089,1.06654 25.69812,1.29569 1.78723,0.22916 -8.65527,0.15751 -12.22974,0.15751 -3.57446,0 -15.25562,-1.22404 -13.46838,-1.4532 z m -5.77875,0.003 c 1.78723,-0.22915 4.7118,-0.22915 6.49903,0 1.78724,0.22917 0.32495,0.41666 -3.24951,0.41666 -3.57447,0 -5.03675,-0.18749 -3.24952,-0.41666 z m -35.244753,-1.31879 c -1.630165,-0.72377 -1.687262,-0.90126 -0.308971,-0.96045 0.929903,-0.04 1.968805,0.39227 2.308674,0.96045 0.710558,1.18789 0.675812,1.18789 -1.999703,0 z m 17.761106,0.29175 c 1.519836,-0.23746 3.769501,-0.23111 4.999257,0.014 1.22976,0.24521 -0.0138,0.43948 -2.76334,0.43173 -2.74959,-0.008 -14.284291,-1.24493 -12.764454,-1.48238 z m 50.043317,-0.0151 c 8.4371,-0.34083 8.79979,-0.45352 8.49874,-2.64073 -0.27143,-1.972 -3.37355,1.31253 -7.2872,-5.28804 -7.41596,-12.50737 -10.79267,-5.28892 -10.54126,-5.54868 0.25141,-0.25976 -2.83332,1.38939 -0.0424,2.08117 6.20187,1.5372 9.76115,4.80055 11.33852,-1.67179 1.04495,-4.28767 1.99055,-13.497435 2.71936,-11.23839 0.20565,0.63742 5.01873,5.70084 8.99997,4.46442 3.57319,-1.10971 7.62829,-2.25654 9.01131,-2.54851 1.38303,-0.29196 4.98249,-2.852676 7.99881,-5.690476 l 5.48423,-5.159595 -5.99911,-0.172938 c -3.29951,-0.09511 -12.0732,-0.531901 -19.4971,-0.970635 -12.11473,-0.715949 -11.50493,-0.755822 5.95048,-0.389079 10.69664,0.22474 19.82969,0.802517 20.29566,1.283949 0.46596,0.481433 -5.25087,6.816145 -12.70406,14.077144 -9.52616,9.28048 -13.79083,14.15975 -14.35778,16.42691 l -0.80651,3.22512 -8.93744,0.0581 -8.93745,0.0581 8.81321,-0.35601 z m 15.40114,-2.36483 c 1.76961,-1.91825 3.38687,-3.27914 3.5939,-3.02418 0.20703,0.25495 -1.24083,1.82444 -3.21748,3.48774 l -3.59389,3.02418 z m -38.98445,1.34252 c 1.77497,-0.22821 4.9245,-0.23196 6.99896,-0.008 2.07445,0.22367 0.62221,0.4104 -3.22722,0.41498 -3.84942,0.004 -5.54671,-0.17839 -3.77174,-0.4066 z m -54.469587,-0.99953 c 0.962357,-0.25985 2.537122,-0.25985 3.499479,0 0.962357,0.25984 0.174974,0.47243 -1.74974,0.47243 -1.924713,0 -2.712096,-0.21259 -1.749739,-0.47243 z m 37.472117,-0.0335 c 1.77497,-0.22821 4.9245,-0.23196 6.99896,-0.008 2.07445,0.22367 0.62221,0.41039 -3.22722,0.41498 -3.84942,0.004 -5.54671,-0.17839 -3.77174,-0.4066 z m -16.997469,-1.03306 c 1.774968,-0.22821 4.924499,-0.23196 6.998958,-0.008 2.074458,0.22367 0.0029,2.74263 -3.846542,2.74722 -3.849427,0.004 -4.927385,-2.51063 -3.152416,-2.73884 z m -15.997619,-1.03305 c 1.774968,-0.22821 4.924499,-0.23196 6.998958,-0.008 2.074459,0.22363 0.622212,0.41035 -3.227215,0.41494 -3.849427,0.004 -5.546711,-0.17839 -3.771743,-0.4066 z m -4.579287,-4.25285 c 0.193721,-0.54099 6.999561,-7.30808 15.124089,-15.03798 C 96.599043,88.078785 97.18213,87.651645 101.27775,87.785438 l 4.2253,0.13803 -4.60141,0.667292 c -4.145753,0.601215 -5.823606,1.840652 -16.944355,12.51688 -6.788631,6.51728 -13.425227,12.92198 -14.747992,14.23266 -1.322766,1.31069 -2.246529,1.94044 -2.052808,1.39945 z m 42.739955,-4.96362 c 0.95,-1.49805 3.76076,-3.47542 3.97526,-2.81054 0.43821,1.35828 -0.63343,7.60734 -2.0151,7.60734 -0.49525,0 -2.91016,-3.29877 -1.96016,-4.7968 z m -9.08019,3.05804 c 0.72176,-0.29842 1.58413,-0.26171 1.91638,0.0815 0.33224,0.34328 -0.2583,0.58744 -1.3123,0.54258 -1.16478,-0.0496 -7.594947,-1.33091 -6.797337,-1.66068 z m 27.00435,-1.78893 c 0.6874,-0.28659 2.74122,0.49082 3.42862,0.77741 0.68739,0.28658 2.91195,-1.81119 1.53715,-1.81119 -1.37479,0 -5.65317,1.32036 -4.96577,1.03378 z m -58.812118,-3.18718 c 1.865507,-1.98863 3.616796,-3.61569 3.891755,-3.61569 0.274959,0 -1.026397,1.62706 -2.891903,3.61569 -1.865507,1.98863 -3.616796,3.61569 -3.891755,3.61569 -0.274959,0 1.026397,-1.62706 2.891903,-3.61569 z m 45.469808,-0.19616 c 0.72176,-0.29842 31.0021,3.10707 31.33435,3.45029 0.33224,0.34328 -29.67627,-2.52222 -30.73027,-2.56707 -1.16478,-0.0496 3.55292,-1.33092 4.35053,-1.66069 z m 59.51456,-1.86994 c 1.86551,-1.98863 3.61679,-3.61569 3.89175,-3.61569 0.27496,0 -1.02639,1.62706 -2.8919,3.61569 -1.8655,1.98862 -3.61679,3.61568 -3.89175,3.61568 -0.27496,0 1.0264,-1.62706 2.8919,-3.61568 z m -94.985856,-7.23138 c 1.865505,-1.988635 3.616796,-3.615695 3.891755,-3.615695 0.274959,0 -1.026399,1.62706 -2.891904,3.615695 -1.865505,1.98863 -3.616795,3.61569 -3.891755,3.61569 -0.274959,0 1.026399,-1.62706 2.891904,-3.61569 z M 182.99151,97.461422 c 1.29156,-1.420449 2.57325,-2.582635 2.84821,-2.582635 0.27496,0 -0.5568,1.162186 -1.84836,2.582635 -1.29155,1.420449 -2.57324,2.582638 -2.8482,2.582638 -0.27496,0 0.5568,-1.162189 1.84835,-2.582638 z m -94.985856,-5.16527 c 1.865506,-1.988629 3.616796,-3.615689 3.891755,-3.615689 0.274959,0 -1.026398,1.62706 -2.891904,3.615689 -1.865505,1.988629 -3.616795,3.615689 -3.891754,3.615689 -0.274959,0 1.026398,-1.62706 2.891903,-3.615689 z m 30.201756,-3.347666 c 3.68789,-0.1982 9.98695,-0.199518 13.99791,-0.0029 4.01097,0.196588 0.99361,0.358751 -6.70525,0.360363 -7.69885,0.0017 -10.98055,-0.159232 -7.29266,-0.357432 z m 48.57571,-1.033944 c 3.45853,-0.202303 8.85773,-0.200632 11.99821,0.0037 3.14047,0.204346 0.31076,0.369867 -6.28825,0.367824 -6.59902,-0.0021 -9.16851,-0.169235 -5.70996,-0.371538 z M 94.737985,86.486165 c 0.678233,-0.706008 1.48502,-1.023417 1.792861,-0.705353 0.307842,0.318064 -0.247075,0.895708 -1.233149,1.283652 -1.424986,0.560623 -1.539833,0.441962 -0.559712,-0.578299 z m 43.887645,4.281271 c 3.73482,-0.199305 26.61541,-4.60317 30.02953,-4.402044 3.41411,0.201091 -41.13647,-0.413254 -48.28541,-0.415061 -7.14894,-0.0018 14.52106,5.016403 18.25588,4.817105 z m -42.494495,-5.69391 c 3.16203,-0.20501 15.458505,0.572404 18.620535,0.777414 3.16203,0.20501 0.57492,0.372746 -5.74914,0.372746 -6.32406,0 -16.033415,-0.94515 -12.871395,-1.15016 z" style="stroke-width:1.01631701"/><path d="m 140.46826,166.5323 c -0.34501,-0.89906 -1.10698,-8.32564 -0.74119,-13.63511 l 0.5054,-7.33597 2.7219,8.93451 c 2.6244,8.61448 -1.34839,12.09474 0.11524,12.37404 1.58299,0.30207 6.01152,-3.97858 2.03337,-21.82158 l -4.64986,-20.85576 4.92121,23.36879 c 4.06729,19.31388 -0.0746,20.00588 -2.1561,20.30287 -1.25202,0.17864 -2.38002,-0.36763 -2.75,-1.33179 z m -60.526856,-1.85007 c -0.795976,-0.95909 -1.054659,-7.27741 -0.849541,-20.75 l 0.294921,-19.37101 0.227096,19.69098 c 0.212847,18.45552 0.824257,22.53914 3.043627,20.32851 0.375908,-0.37442 0.926779,-9.75699 1.224159,-20.85013 l 0.54069,-20.16936 0.20931,19.31574 c 0.197475,18.22353 -0.380977,23.18426 -2.703429,23.18426 -0.463304,0 -1.357379,-0.62055 -1.986833,-1.37899 z m 23.337776,-10.92146 c -0.27447,-0.71525 -0.35861,-7.35275 -0.18699,-14.75 l 0.31205,-13.44955 0.21837,14.32332 c 0.19875,13.03668 0.37557,14.29324 1.96837,13.9884 1.53549,-0.29387 1.81658,-2.04961 2.29317,-14.32332 l 0.54317,-13.9884 0.20683,13.16821 c 0.11376,7.24252 -0.0663,13.88002 -0.40016,14.75 -0.73122,1.90554 -4.25477,2.10561 -4.95481,0.28134 z m 61.18908,-0.22847 c -0.34501,-0.89906 -0.58242,-2.38535 -0.5276,-3.30287 0.0562,-0.94043 0.40306,-0.57755 0.79508,0.83179 0.38248,1.375 1.35012,2.5 2.15032,2.5 1.20986,0 1.54605,-3.53713 1.99594,-21 l 0.54102,-21 -0.041,21.5 c -0.0403,21.13761 -0.0768,21.5051 -2.16374,21.80287 -1.25203,0.17864 -2.38002,-0.36763 -2.75,-1.33179 z m -0.54833,-33.05442 c 0.048,-1.16494 0.28494,-1.4019 0.60416,-0.60416 0.28887,0.72187 0.25335,1.58437 -0.0789,1.91666 -0.3323,0.3323 -0.56864,-0.25833 -0.52522,-1.3125 z"/><path d="m 139.36796,126.53051 c -1.17262,-0.44139 -8.48123,-0.94916 -16.24135,-1.12838 -7.76013,-0.17923 -14.11321,-0.66336 -14.11796,-1.07586 -0.005,-0.4125 -0.90865,-0.75 -2.00865,-0.75 -1.1,0 -2,0.46583 -2,1.03518 0,0.66592 -0.62425,0.71055 -1.75,0.1251 -2.50176,-1.30104 -22.25,-2.08713 -22.25,-0.88567 0,0.60529 -0.470206,0.58995 -1.25,-0.0408 -0.6875,-0.55609 -0.813745,1.29766 -4.093709,0.35246 L 66,121.37986 65.690337,113.65042 c -0.173479,-4.33018 0.397233,-1.07087 13.932185,-13.28302 7.492388,-6.760109 14.435969,-12.741133 15.430182,-13.291133 1.750049,-0.96813 19.686066,-2.171578 69.089316,-0.295382 19.45655,0.738905 21.35872,2.300613 21.69036,4.643246 0.32879,2.322549 -3.41488,7.528199 -4.79883,6.672871 -0.65942,-0.407543 -15.62562,14.504658 -21.55704,21.479268 l -2.97651,3.5 3.05472,-2.75 c 1.68009,-1.5125 3.93009,-2.72148 5,-2.68662 1.81366,0.0591 1.80272,0.121 -0.16176,0.9149 -1.15888,0.46833 -3.40888,2.40663 -5,4.30734 -2.46599,2.94578 -3.66781,3.52704 -8.14296,3.93831 -2.8875,0.26537 -5.25,0.0985 -5.25,-0.37073 0,-1.12752 -3.7378,-1.10494 -4.16667,0.0252 -0.18333,0.48311 -1.29275,0.51724 -2.46537,0.0759 z m 15.81622,-5.57616 c 0.56703,-2.19462 4.83234,-6.91778 14.35991,-15.90132 7.4543,-7.02867 10.7104,-12.108422 10.26359,-12.555234 -0.44682,-0.446813 -12.44825,-0.751955 -28.94072,-1.311542 -16.49246,-0.559587 -29.70805,-0.02185 -36.35125,-0.997155 L 97.002883,87.617996 82.251442,101.20601 c -9.810763,9.03701 -14.857421,14.38887 -15.067864,15.97914 -0.174033,1.31511 -0.174033,2.44803 0,2.51759 1.464422,0.58533 71.347972,4.61022 78.255202,4.50704 l 8.93877,-0.13351 z M 170,110.44217 c 0,-1.3183 10.17259,-12.026642 10.81483,-11.384403 0.27705,0.277042 -2.04296,3.173633 -5.15556,6.436873 -3.1126,3.26323 -5.65927,5.48962 -5.65927,4.94753 z"/><path d="m 143.45412,167.80868 c -0.37028,-0.38245 -0.67323,-10.00478 -0.67323,-21.38292 0,-19.99217 0.0679,-20.68755 2.01966,-20.68755 1.95398,0 2.01966,0.69538 2.01966,21.38293 0,17.12373 -0.26819,21.38292 -1.34644,21.38292 -0.74055,0 -1.64939,-0.31292 -2.01965,-0.69538 z m -61.599521,-2.08614 c -0.37027,-0.38245 -2.221533,-10.23947 -2.221533,-21.90446 0,-20.5137 1.614524,-21.20908 3.567971,-21.20908 1.950317,0 3.56797,-3.9691 3.56797,15.59007 0,22.30697 -2.063267,30.46847 -4.914408,27.52347 z m 22.014341,-26.34795 c 0,-15.09627 1.62981,-15.72252 3.59496,-15.72252 1.97571,0 2.03697,0.53285 1.7672,15.37218 -0.24863,13.67679 -0.47435,15.41083 -2.04665,15.72253 -1.61988,0.32114 -3.31551,-0.96027 -3.31551,-15.37219 z m 63.53242,15.67332 c -0.38183,-0.3944 -2.24257,-9.63046 -2.24257,-19.57438 0,-16.30124 1.68956,-18.07987 0.14604,-18.07987 -0.94158,0 -3.0781,1.2908 -4.74783,2.86844 -5.82762,5.50618 7.37807,-9.70862 14.71164,-16.94988 5.97376,-5.898571 6.32796,-6.142649 1.84345,-1.27027 l -5.5511,6.03122 -0.50491,23.08936 c -0.47537,21.73818 -1.3308,26.28581 -3.65472,23.88538 z M 64.687522,121.91362 c -1.057136,-1.09194 -0.786614,-8.49674 0.336609,-9.21378 0.622389,-0.39732 1.009828,1.37993 1.009828,4.63225 0,5.34883 -0.140558,5.8271 -1.346437,4.58153 z" style="stroke-width:1.02631426"/><g transform="matrix(1.0088215 0 0 0.89687128 -3.8475916 7.7594109)" style="fill:#fff;fill-rule:evenodd;stroke-width:1.38932765"><path d="m 98.585344,117.63691 c -3.86245,-0.82467 0.732948,-0.30714 -0.135349,-0.80541 l -1.764918,-0.47967 3.133728,-7.25544 c 2.910905,-6.73954 2.074205,-7.86009 4.124785,-9.665082 0.65344,-0.575179 0.0988,-2.798132 0.97531,-3.08713 2.21102,-0.728986 6.81911,-0.459422 10.36692,1.25311 1.44241,0.696253 2.94557,1.265918 3.34035,1.265918 0.89268,0 1.74208,-0.959924 2.92116,-3.301281 0.60579,-1.202924 0.30988,-3.029725 0.81467,-3.23642 1.2588,-0.51544 5.16559,0.46258 7.11114,0.707678 3.01476,0.379796 10.19939,0.693382 6.11944,3.914688 -2.47842,1.956824 -2.49882,11.864929 -4.68785,15.199849 -0.61553,0.93774 -0.6853,0.97084 -1.82658,0.86639 -1.87065,-0.1712 -9.94652,-1.68745 -11.2389,-2.11011 -1.44275,-0.47184 -2.13416,0.55049 -2.66529,-1.0083 -0.22549,-0.66179 -0.69698,0.0968 -0.81503,0.0954 -0.14845,-0.002 0.0425,-0.5851 -0.49194,0.28701 -0.88583,1.4455 -2.96022,7.53324 -2.64776,9.70627 0.13197,0.91775 -0.5351,-0.44504 -0.61582,-0.23478 -0.22195,0.57841 -1.06918,-0.41556 -4.95813,-1.24589 l -0.92087,0.28894 z"/><path d="m 144.00815 116.18914 c -0.34899 -0.0497 -1.49111 -0.27169 -2.53805 -0.49323 -5.95617 -1.26035 -7.01157 -2.76603 -5.9528 -8.49256 1.07905 -5.83625 2.33879 -10.562743 5.56599 -11.634649 2.41764 -0.80301 8.88817 0.616338 10.51722 2.071894 1.44522 1.291304 0.31016 4.026675 -1.78651 11.452395 -1.73291 6.13742 -2.86073 7.51589 -5.80585 7.09615 z"/></g></g></svg>