<svg xmlns="http://www.w3.org/2000/svg" viewBox="0 0 256 256"><g transform="translate(1.029 -795.31)" style="fill:#f60;color:#000"><path d="m 226.74 990.49 c 90.44 -129.79 -76.59 -261.3 -183.14 -155.55 -100.39 99.64 -7.319 254.44 117.6 206.05 c 26.06 -10.1 48.933 -26.679 65.53 -50.5 z" style="fill:#fff"/><g transform="matrix(0.33288 0 0 0.32023 39.584 842.26)" style="fill:#ffdead;stroke-width:1.045"><path d="m 59.11 480.81 c -1.68 -1.68 -1.418 -447.4 0.263 -448.7 0.833 -0.641 72.874 -0.783 198.8 -0.389 l 197.49 0.617 l 0.264 223.95 c 0.21 178.64 -0.001 224.04 -1.045 224.38 -3.083 1 -394.77 1.136 -395.77 0.136 z"/><g style="fill:#ff4500"><path d="m 285.97 131.88 c -5.412 0 -10.823 0.167 -13.961 0.5 -6.802 0.721 -16.874 2.77 -23.539 4.791 -49.15 14.902 -85.2 58.42 -90.6 109.37 -0.665 6.278 -0.665 21.65 0 27.928 0.721 6.803 2.771 16.879 4.791 23.545 8.671 28.611 27.1 53.26 52.43 70.1 16.307 10.844 35.25 17.852 54.803 20.273 6.496 0.805 23.453 0.944 30.04 0.246 6.802 -0.721 16.874 -2.77 23.539 -4.791 45.23 -13.713 79.69 -51.729 88.8 -97.97 1.791 -9.09 2.318 -14.852 2.318 -25.359 0 -13.98 -1.598 -25.26 -5.309 -37.51 -5.974 -19.714 -16.274 -37.12 -30.838 -52.12 -21.17 -21.809 -48.774 -35.34 -78.51 -38.492 -3.138 -0.333 -8.549 -0.5 -13.961 -0.5 z m 0 10.773 c 6.28 0 12.56 0.313 16.58 0.939 39.36 6.137 71.72 29.622 89.13 64.68 5.488 11.05 9.174 22.801 11.176 35.645 1.248 8.01 1.252 25.11 0.008 33.17 -3.078 19.93 -10.654 38.27 -22.18 53.691 -4.517 6.05 -12.557 14.998 -13.836 15.404 -0.639 0.203 -2.388 -0.556 -5.248 -2.277 -4.16 -2.504 -10.477 -5.357 -27.12 -12.246 -12.73 -5.269 -18.554 -9.302 -21.652 -14.994 -1.424 -2.615 -1.441 -2.754 -1.654 -12.859 l -0.215 -10.213 l 1.777 -1.846 c 3.546 -3.681 7.594 -12.228 9.154 -19.326 0.816 -3.712 0.96 -3.962 2.787 -4.895 4.219 -2.153 6.756 -8.03 6.756 -15.646 0 -4.711 -0.051 -4.93 -1.705 -7.279 -1.618 -2.297 -1.675 -2.525 -1.125 -4.439 3.959 -13.79 5.246 -28.595 3.363 -38.701 -1.751 -9.4 -6.759 -16.585 -13.977 -20.06 -2 -0.962 -4.655 -1.912 -5.898 -2.109 -1.76 -0.28 -2.705 -0.828 -4.27 -2.48 -4.711 -4.976 -10.941 -6.921 -22.11 -6.9 -21.77 0.041 -36.24 8.07 -42.29 23.471 -4.396 11.188 -4.432 26.14 -0.109 46.02 0.597 2.743 0.59 2.783 -1.107 5.193 -1.66 2.357 -1.711 2.573 -1.711 7.287 0 7.629 2.537 13.493 6.773 15.654 1.761 0.899 1.999 1.263 2.537 3.891 1.399 6.837 4.442 13.59 8.586 19.05 l 2.615 3.447 l -0.057 10.15 c -0.063 11.17 -0.131 11.481 -3.467 15.6 -3.765 4.649 -9.77 7.972 -27.328 15.12 -9.518 3.877 -19.212 8.481 -22.316 10.602 -0.829 0.566 -1.845 1.031 -2.26 1.033 -0.414 0.002 -2.411 -1.749 -4.436 -3.891 -17.496 -18.514 -28.13 -40.23 -32.07 -65.45 -1.253 -8.04 -1.253 -25.12 0 -33.17 6.136 -39.36 29.615 -71.73 64.67 -89.15 11.05 -5.489 22.797 -9.175 35.639 -11.178 4.02 -0.627 10.298 -0.939 16.578 -0.939 z"/><path d="m 56 31.5 v 224.82 v 224.82 h 32.14 h 32.14 v -224.82 v -224.82 h -32.14 z"/></g></g></g></svg>