<svg xmlns="http://www.w3.org/2000/svg" viewBox="0 0 256 256"><g transform="translate(0 -796.36)"><path d="m 196.22 1025.68 c -95.24 84.46 -241.79 -48.767 -182.53 -160.27 59.906 -112.74 258.16 -82.69 241.3 55.767 -5.02 41.2 -27.695 76.954 -58.764 104.51 z" style="fill:#fff;color:#000"/><g transform="matrix(1.24248 0 0 1.33614 45.33 840.21)" style="fill:#ff4500;stroke:#ffdead;stroke-linecap:round"><text transform="scale(1.0053 0.99472)" y="108.1" x="37.85" line-height="100%" style="font-size:101.61;font-family:Bitstream Vera Sans;stroke-miterlimit:10.4;font-weight:bold;stroke-width:4.804"><tspan y="108.1" x="37.85">A</tspan></text><g style="stroke-miterlimit:4;stroke-linejoin:round"><path d="m 50.38 12.915 h 76.4 v 5.912 l -73.01 -0.229 l -27.19 95.08 h -3.02 l -14.6 -52.28 l -5.721 2.664 l -1.144 -4.736 l 12.952 -5.802 l 11.717 41.975 l 23.616 -82.59" style="stroke-width:1.922"/><text transform="matrix(0.96949 -0.31474 0.24984 0.95036 0 0)" y="47.49" x="-4.834" line-height="100%" style="font-size:41.537;font-family:Bitstream Vera Sans;font-weight:bold;stroke-width:3.267"><tspan y="47.49" x="-4.834">K</tspan></text></g></g></g></svg>