<svg xmlns="http://www.w3.org/2000/svg" viewBox="0 0 256 256"><g transform="translate(0 -796.36)" style="fill:#f60"><path d="m 26.683 856.14 c -84.46 95.24 48.767 241.79 160.27 182.53 112.74 -59.906 82.69 -258.16 -55.767 -241.3 -41.2 5.02 -76.954 27.695 -104.51 58.764 z" transform="matrix(0.99576 0 0 0.98729 1.085 11.206)" style="fill:#fff;fill-opacity:0.701;color:#000"/><path d="m 131.93 999.33 c -14.633 -0.049 12.805 -0.194 -13.928 -0.425 l -2.984 -9.156 l -5.51 -2.801 c -7.06 -3.589 -9.233 -3.578 -13.692 0.062 -2 1.633 -4.194 2.969 -4.871 2.969 -1.892 0 -16.779 -14.261 -17.641 -16.9 -0.517 -1.581 0.259 -3.36 2.419 -5.55 3.933 -3.983 3.945 -5.272 0.135 -13.633 -2.749 -6.03 -3.414 -6.681 -6.812 -6.681 -7.773 0 -8.506 -1.213 -8.506 -14.06 0 -7.437 0.527 -12.11 1.469 -13.02 0.808 -0.784 3.57 -1.425 6.138 -1.425 4.494 0 4.782 -0.25 7.714 -6.681 3.783 -8.298 3.782 -9.35 -0.016 -13.728 -1.684 -1.941 -3.061 -4.075 -3.061 -4.741 0 -1.782 16.05 -17.607 17.861 -17.607 0.848 0 3.179 1.336 5.18 2.969 2 1.633 4.109 2.967 4.686 2.964 0.576 -0.004 4.354 -1.31 8.395 -2.903 6.999 -2.757 7.38 -3.124 8.04 -7.693 0.38 -2.637 1.114 -5.206 1.631 -5.709 0.517 -0.502 5.801 -1.098 11.741 -1.324 9.655 -0.368 11.07 -0.146 13.369 2.079 1.436 1.393 2.567 4.02 2.567 5.966 0 3.068 0.807 3.835 6.883 6.533 8.556 3.8 10.327 3.811 13.933 0.087 1.582 -1.633 3.653 -2.969 4.605 -2.969 0.951 0 5.263 3.292 9.582 7.315 8.575 7.988 9.907 11.894 5.404 15.847 -3.183 2.794 -3.089 4.835 0.597 12.92 2.828 6.203 3.34 6.681 7.156 6.681 6.64 0 8.164 2.717 8.164 14.559 0 11.671 -1.302 13.948 -7.974 13.948 -4.61 0 -4.985 0.397 -8.726 9.254 l -2.655 6.281 l 2.943 3.393 c 4.745 5.47 3.901 8.317 -4.91 16.522 -4.319 4.02 -8.631 7.315 -9.582 7.315 -0.951 0 -3.02 -1.336 -4.605 -2.969 -1.582 -1.633 -3.725 -2.969 -4.764 -2.969 -2.688 0 -12.378 3.717 -12.378 4.748 0 0.474 -3.83 5.605 -3.584 10.528 -27.783 0.21 -9.671 -0.067 -14.401 0.013 z m 7.903 -54.751 c 4.771 -3.841 6.469 -12.185 3.527 -17.329 -2.161 -3.779 -8.06 -7.335 -12.179 -7.344 -8.169 -0.018 -15.565 8.116 -13.749 15.13 1.017 3.932 5.593 9.839 8.606 11.11 2.977 1.254 11.493 0.29 13.795 -1.563 z" style="fill:#ff4500"/></g></svg>