<svg xmlns="http://www.w3.org/2000/svg" viewBox="0 0 256 256"><defs><clipPath><path d="m -24 13 c 0 1.105 -0.672 2 -1.5 2 -0.828 0 -1.5 -0.895 -1.5 -2 0 -1.105 0.672 -2 1.5 -2 0.828 0 1.5 0.895 1.5 2 z" transform="matrix(15.33333 0 0 11.5 415 -125.5)"/></clipPath></defs><path transform="translate(0.508 2.624)" d="m 222.65 37.868 c 145.18 221.56 -251.35 307.3 -219.76 79.37 12.881 -92.96 164.23 -164.13 219.76 -79.37 z" style="fill:#fff;color:#000"/><g transform="matrix(2.40268 0 0 2.46896 55.916 60.44)" style="fill:#ffdead;stroke:#ff4500"><g transform="matrix(1.10164 0 0 1.05807 -7.099 -0.643)"><g style="stroke-linecap:round;stroke-linejoin:round"><g><path d="m 3.059,57.48 h 54.34 V 35.707 H 3.059" transform="matrix(0.92666 0 0 0.92666 1.851 1.481)" style="stroke-width:3.372"/><path d="m 17.635 39.486 v 12.956" transform="matrix(0.92666 0 0 0.92666 2.02 2.148)" style="stroke-dasharray:2.0234 2.0234;stroke-width:2.023"/><path d="m 8.637 48.663 v -34.73" transform="matrix(0.92666 0 0 0.92666 3.685 0.814)" style="stroke-width:5.396"/></g><g style="fill-rule:evenodd"><path d="M 36.529,2.852 C 34.01,3.032 15.612,3.159 8.229,3.159 2.5,3.651 -1.708,10.858 -2.344,13.785 l 28.791,0.689 10.08,-11.622 z" transform="matrix(0.78322 0 0 0.78322 6.617 2.393)" style="stroke-width:2.394"/><path d="m 4.785,13.165 h 22.268 v 10.57 H 4.785 z" style="stroke-width:1.875"/></g></g><g style="fill-rule:evenodd"><path d="m -17.906,9.06 c -4.917,0 -8.906,3.989 -8.906,8.906 v 15.313 c 0,0.397 0.298,0.719 0.688,0.719 h 16.438 c 0.389,0 0.688,-0.322 0.688,-0.719 V 17.966 c 0,-4.917 -3.989,-8.906 -8.906,-8.906 z" transform="matrix(0.58359 -0.40767 0 0.58359 42.716 -6.826)" style="stroke-width:3.213"/><path d="m -17.906,9.06 c -4.917,1.231 -8.906,3.989 -8.906,8.906 v 15.313 c 0,0.397 0.298,0.719 0.688,0.719 h 16.438 c 0.389,0 0.688,-0.322 0.688,-0.719 V 17.966 c 0.246,-7.208 -1.527,-10.88 -8.906,-8.906 z" transform="matrix(0.34005 -0.23754 0 0.34005 38.36 1.673)" style="stroke-width:3.676"/></g></g><g transform="translate(6.321 -4.833)"><path transform="matrix(0.84754 -0.38727 0.38727 0.84754 30.37 24.19)" d="m 8.108,-10.237 h 19.03 c 1.108,0 2,0.892 2,2 v 9.742 c 0,1.108 -0.892,2 -2,2 H 8.108 c -1.108,0 -2,-0.892 -2,-2 v -9.742 c 0,-1.108 0.892,-2 2,-2 z" style="fill-rule:evenodd;stroke-width:2.01"/><path d="M 33.28,12.517 45.554,12.394 52.552,3.759" transform="matrix(0.92666 0 0 0.92666 2.02 1.648)" style="stroke-linecap:round;stroke-linejoin:round;stroke-width:2.023"/></g><g transform="translate(14.447 0.879)"><path transform="matrix(1.03663 0.19794 -0.19794 1.03663 24.07 22.19)" d="m 8.108,-10.237 h 19.03 c 1.108,0 2,0.892 2,2 v 9.742 c 0,1.108 -0.892,2 -2,2 H 8.108 c -1.108,0 -2,-0.892 -2,-2 v -9.742 c 0,-1.108 0.892,-2 2,-2 z" style="fill-rule:evenodd;stroke-width:1.777"/><path d="m 32.974,14.2 9.992,8.646 12.323,-4.515" style="stroke-linecap:round;stroke-linejoin:round;stroke-width:1.875"/></g></g></svg>