<svg xmlns="http://www.w3.org/2000/svg" viewBox="0 0 256 256"><g style="fill:#fff"><path d="m 231.03 849.14 c 127.95 192.46 -280.09 311 -226.07 62.2 23.02 -102.82 167.39 -165.22 226.07 -62.2" transform="translate(0 -796.36)" style="fill:#fff;color:#000"/></g><g transform="matrix(2.79694 0 0 2.65461 44.634 53.774)"><g style="stroke:#ffdead;stroke-linejoin:round;stroke-width:8.125"><g style="fill:none;stroke-linecap:round"><path d="m 5.125 55.31 h 46.13 c 0.233 0 0.438 -0.205 0.438 -0.438 v -8.719 c 0 -0.233 -0.205 -0.437 -0.438 -0.438 h -46.12"/><path d="m 43.956 24.15 l -11.07 19.17 l -28.2 -38.628"/></g><path d="m 55.31 17.194 c 0 6.471 -5.252 11.723 -11.723 11.723 -6.471 0 -11.723 -5.252 -11.723 -11.723 0 -6.471 5.252 -11.723 11.723 -11.723 6.471 0 11.723 5.252 11.723 11.723 z" style="fill:#ffdead"/></g><g transform="matrix(0.95971 0 0 0.95971 1.073 1.258)" style="stroke:#ff4500"><path d="m 5.487 40.15 h 45.27 c 1.207 0 2.179 0.972 2.179 2.179 v 5.567 c 0 1.207 -0.972 2.179 -2.179 2.179 h -45.27 c -1.207 0 -2.179 -0.972 -2.179 -2.179 v -5.567 c 0 -1.207 0.972 -2.179 2.179 -2.179 z" transform="translate(0.785 6.102)" style="fill:#fff;fill-rule:evenodd"/><g style="stroke-width:3.256"><g style="stroke-linecap:round;stroke-linejoin:round"><g transform="translate(0.658 0.249)"><path d="m 3.817 46.09 h 44.662 v 9.978 h -44.662" style="fill:none"/><path d="m 42.537 46.09 h 9.101 c 0.243 0 0.438 0.195 0.438 0.438 v 9.101 c 0 0.243 -0.195 0.438 -0.438 0.438 h -9.101 c -0.243 0 -0.438 -0.195 -0.438 -0.438 v -9.101 c 0 -0.243 0.195 -0.438 0.438 -0.438 z" style="fill:#fff;fill-rule:evenodd"/></g><path transform="translate(2.566 0.249)" d="m 42.12 23.609 l -11.532 19.975 l -29.385 -40.25" style="stroke-dasharray:3.2562 3.2562;fill:none"/></g><path transform="translate(18.98 -4.459)" d="m 37.536 21.06 c 0 6.743 -5.472 12.215 -12.215 12.215 -6.743 0 -12.215 -5.472 -12.215 -12.215 0 -6.743 5.472 -12.215 12.215 -12.215 6.743 0 12.215 5.472 12.215 12.215 z" style="fill:#ff4500;fill-rule:evenodd"/></g><g style="fill:#fff"><path transform="matrix(0.58822 0 0 0.58822 21.16 14.309)" d="m 36.578 7.05 v -13.992 c 0 -0.516 0.168 -0.945 0.504 -1.289 0.336 -0.344 0.77 -0.516 1.301 -0.516 0.531 0 0.961 0.16 1.289 0.48 0.336 0.32 0.504 0.762 0.504 1.324 v 5.227 l 5.906 -6.352 c 0.414 -0.453 0.879 -0.68 1.395 -0.68 0.477 0 0.891 0.164 1.242 0.492 0.359 0.32 0.539 0.742 0.539 1.266 0 0.297 -0.094 0.59 -0.281 0.879 -0.188 0.281 -0.488 0.629 -0.902 1.043 l -4.535 4.512 l 5.543 5.848 c 0.32 0.305 0.566 0.602 0.738 0.891 0.18 0.281 0.27 0.594 0.27 0.938 0 0.547 -0.18 0.965 -0.539 1.254 -0.359 0.281 -0.805 0.422 -1.336 0.422 -0.313 0 -0.598 -0.086 -0.855 -0.258 -0.25 -0.172 -0.57 -0.461 -0.961 -0.867 l -6.223 -6.797 v 6.176 c 0 0.492 -0.168 0.906 -0.504 1.242 -0.336 0.336 -0.766 0.504 -1.289 0.504 -0.523 0 -0.957 -0.16 -1.301 -0.48 -0.336 -0.32 -0.504 -0.742 -0.504 -1.266 z"/><path transform="matrix(0.29577 0 0 0.29577 21.16 14.309)" d="m 55.21 27.585 l 4.585 4.803 l 7.422 -5.02 l 5.894 2.62 l 1.965 8.604 l 6.331 -0.058 l 1.746 -8.829 l 5.894 -2.337 l 7.423 4.803 l 3.493 -4.803 l -8.424 -7.95 c -21.591 19.803 -40.25 -10.718 -21.703 -23.487 v -4.585 l -2.183 1.092 l -6.768 -4.302 l -4.675 3.839 l 4.238 7.231 l -2.401 5.894 l -8.27 1.374 l -0.026 6.267 l 8.514 2.183 l 2.347 5.731 l -5.403 6.931 z" style="fill-rule:evenodd;stroke-linecap:round;stroke-linejoin:round;stroke-width:0.391"/></g></g></g></svg>