<svg xmlns="http://www.w3.org/2000/svg" xmlns:xlink="http://www.w3.org/1999/xlink" viewBox="0 0 256 256"><g transform="translate(0 -796.36)"><path d="m 26.373 992.2 c -92.05 -130.93 77.948 -263.6 186.39 -156.91 102.17 100.51 7.449 256.68 -119.69 207.86 -26.526 -10.185 -49.802 -26.914 -66.7 -50.948 z" style="fill:#fff;color:#fff"/><path d="m 174.32 120.27 c 0 -0.333 -0.333 -0.499 -0.998 -0.499 -0.665 0 -0.998 -0.166 -0.998 -0.499 0 -0.275 -0.225 -0.499 -0.499 -0.499 -0.275 0 -0.499 -0.225 -0.499 -0.499 0 -0.275 -0.225 -0.499 -0.499 -0.499 -0.275 0 -0.499 -0.225 -0.499 -0.499 0 -0.333 -0.333 -0.499 -0.998 -0.499 -0.665 0 -0.998 -0.166 -0.998 -0.499 0 -0.275 -0.225 -0.499 -0.499 -0.499 -0.275 0 -0.499 -0.225 -0.499 -0.499 0 -0.333 -0.333 -0.499 -0.998 -0.499 -0.665 0 -0.998 -0.166 -0.998 -0.499 0 -0.333 -0.333 -0.499 -0.998 -0.499 -0.665 0 -0.998 -0.166 -0.998 -0.499 0 -0.275 -0.225 -0.499 -0.499 -0.499 -0.275 0 -0.499 -0.225 -0.499 -0.499 0 -0.333 -0.333 -0.499 -0.998 -0.499 -0.665 0 -0.998 -0.166 -0.998 -0.499 0 -0.275 -0.225 -0.499 -0.499 -0.499 -0.275 0 -0.499 -0.225 -0.499 -0.499 0 -0.333 -0.333 -0.499 -0.998 -0.499 -0.665 0 -0.998 -0.166 -0.998 -0.499 0 -0.333 -0.333 -0.499 -0.998 -0.499 -0.665 0 -0.998 -0.166 -0.998 -0.499 0 -0.333 -0.333 -0.499 -0.998 -0.499 -0.665 0 -0.998 -0.166 -0.998 -0.499 0 -0.275 -0.225 -0.499 -0.499 -0.499 -0.275 0 -0.499 0.225 -0.499 0.499 0 0.275 -0.225 0.499 -0.499 0.499 -0.275 0 -0.499 0.225 -0.499 0.499 0 0.333 -0.333 0.499 -0.998 0.499 -0.665 0 -0.998 0.166 -0.998 0.499 0 0.333 -0.333 0.499 -0.998 0.499 -0.665 0 -0.998 0.166 -0.998 0.499 0 0.275 -0.225 0.499 -0.499 0.499 -0.275 0 -0.499 0.225 -0.499 0.499 0 0.333 -0.333 0.499 -0.998 0.499 -0.665 0 -0.998 0.166 -0.998 0.499 0 0.275 -0.225 0.499 -0.499 0.499 -0.275 0 -0.499 0.225 -0.499 0.499 0 0.275 -0.225 0.499 -0.499 0.499 -0.275 0 -0.499 0.225 -0.499 0.499 0 0.333 -0.333 0.499 -0.998 0.499 -0.665 0 -0.998 0.166 -0.998 0.499 0 0.333 -0.333 0.499 -0.998 0.499 h -0.998 v -31.943 v -31.943 h 0.998 c 0.665 0 0.998 0.166 0.998 0.499 0 0.333 0.333 0.499 0.998 0.499 0.665 0 0.998 0.166 0.998 0.499 0 0.275 0.225 0.499 0.499 0.499 0.275 0 0.499 0.225 0.499 0.499 0 0.333 0.333 0.499 0.998 0.499 0.834 0 0.998 0.132 0.998 0.805 0 0.624 0.224 0.855 0.998 1.025 0.549 0.121 0.998 0.345 0.998 0.499 0 0.154 0.449 0.379 0.998 0.499 0.549 0.121 0.998 0.432 0.998 0.692 0 0.303 0.358 0.473 0.998 0.473 0.665 0 0.998 0.166 0.998 0.499 0 0.275 0.225 0.499 0.499 0.499 0.275 0 0.499 0.15 0.499 0.333 0 0.183 0.225 0.333 0.499 0.333 0.275 0 0.499 0.213 0.499 0.473 0 0.26 0.449 0.571 0.998 0.692 0.549 0.121 0.998 0.432 0.998 0.692 0 0.303 0.358 0.473 0.998 0.473 0.665 0 0.998 0.166 0.998 0.499 0 0.275 0.225 0.499 0.499 0.499 0.275 0 0.499 0.225 0.499 0.499 0 0.333 0.333 0.499 0.998 0.499 0.549 0 0.998 0.138 0.998 0.306 0 0.168 0.449 0.405 0.998 0.526 0.549 0.121 0.998 0.432 0.998 0.692 0 0.26 0.225 0.473 0.499 0.473 0.275 0 0.499 0.225 0.499 0.499 0 0.275 0.225 0.499 0.499 0.499 0.275 0 0.499 0.138 0.499 0.306 0 0.168 0.449 0.405 0.998 0.526 0.549 0.121 0.998 0.432 0.998 0.692 0 0.26 0.212 0.473 0.471 0.473 0.259 0 0.525 0.159 0.589 0.354 0.065 0.195 0.751 0.439 1.525 0.543 0.877 0.118 1.407 0.36 1.407 0.644 0 0.25 0.225 0.455 0.499 0.455 0.275 0 0.499 0.225 0.499 0.499 0 0.275 0.225 0.499 0.499 0.499 0.275 0 0.499 0.138 0.499 0.306 0 0.168 0.449 0.405 0.998 0.526 0.549 0.121 0.998 0.432 0.998 0.692 0 0.26 0.225 0.473 0.499 0.473 0.275 0 0.499 0.225 0.499 0.499 0 0.333 0.333 0.499 0.998 0.499 0.665 0 0.998 0.166 0.998 0.499 0 0.333 0.333 0.499 0.998 0.499 h 0.998 v 20.464 c 0 17.968 -0.061 20.464 -0.499 20.464 -0.275 0 -0.499 0.225 -0.499 0.499 0 0.275 -0.225 0.499 -0.499 0.499 -0.275 0 -0.499 0.225 -0.499 0.499 0 0.333 -0.333 0.499 -0.998 0.499 -0.665 0 -0.998 0.166 -0.998 0.499 0 0.275 -0.225 0.499 -0.499 0.499 -0.275 0 -0.499 -0.225 -0.499 -0.499 z" transform="translate(0 796.36)" id="0" style="fill:#ffdead;fill-rule:evenodd"/><use xlink:href="#0"/><g transform="translate(0 796.36)" style="fill-rule:evenodd"><g style="fill:#ff4500"><path d="m 154.35 152.22 c 0 -37.489 0.058 -42.42 0.499 -42.42 0.275 0 0.499 0.225 0.499 0.499 0 0.333 0.333 0.499 0.998 0.499 0.665 0 0.998 0.166 0.998 0.499 0 0.275 0.225 0.499 0.499 0.499 0.275 0 0.499 0.225 0.499 0.499 0 0.37 0.388 0.499 1.497 0.499 1.109 0 1.497 0.129 1.497 0.499 0 0.333 0.333 0.499 0.998 0.499 0.887 0 0.998 0.111 0.998 0.998 0 0.665 0.166 0.998 0.499 0.998 0.275 0 0.499 0.225 0.499 0.499 0 0.333 0.333 0.499 0.998 0.499 0.665 0 0.998 0.166 0.998 0.499 0 0.333 0.333 0.499 0.998 0.499 0.665 0 0.998 0.166 0.998 0.499 0 0.333 0.333 0.499 0.998 0.499 0.665 0 0.998 0.166 0.998 0.499 0 0.333 0.333 0.499 0.998 0.499 0.665 0 0.998 0.166 0.998 0.499 0 0.275 0.225 0.499 0.499 0.499 0.275 0 0.499 0.225 0.499 0.499 0 0.275 0.225 0.499 0.499 0.499 0.275 0 0.499 0.225 0.499 0.499 0 0.275 0.225 0.499 0.499 0.499 0.275 0 0.499 0.225 0.499 0.499 0 0.37 0.388 0.499 1.497 0.499 1.442 0 1.497 0.037 1.497 0.998 0 0.961 0.055 0.998 1.497 0.998 1.109 0 1.497 0.129 1.497 0.499 0 0.275 0.225 0.499 0.499 0.499 0.275 0 0.499 0.225 0.499 0.499 0 0.275 0.225 0.499 0.499 0.499 0.275 0 0.499 0.225 0.499 0.499 0 0.333 0.333 0.499 0.998 0.499 0.665 0 0.998 0.166 0.998 0.499 0 0.275 0.225 0.499 0.499 0.499 0.275 0 0.499 0.225 0.499 0.499 0 0.275 0.225 0.499 0.499 0.499 0.275 0 0.499 0.225 0.499 0.499 0 0.37 0.388 0.499 1.497 0.499 1.109 0 1.497 0.129 1.497 0.499 0 0.333 0.333 0.499 0.998 0.499 0.887 0 0.998 0.111 0.998 0.998 0 0.887 0.111 0.998 0.998 0.998 0.665 0 0.998 0.166 0.998 0.499 0 0.275 0.225 0.499 0.499 0.499 0.275 0 0.499 0.225 0.499 0.499 0 0.275 -0.225 0.499 -0.499 0.499 -0.438 0 -0.499 2.329 -0.499 18.966 0 16.637 0.061 18.966 0.499 18.966 0.333 0 0.499 0.333 0.499 0.998 0 0.961 -0.055 0.998 -1.497 0.998 -1.109 0 -1.497 0.129 -1.497 0.499 0 0.37 -0.388 0.499 -1.497 0.499 -1.109 0 -1.497 0.129 -1.497 0.499 0 0.333 -0.333 0.499 -0.998 0.499 -0.665 0 -0.998 0.166 -0.998 0.499 0 0.333 -0.333 0.499 -0.998 0.499 -0.665 0 -0.998 0.166 -0.998 0.499 0 0.333 -0.333 0.499 -0.998 0.499 -0.665 0 -0.998 0.166 -0.998 0.499 0 0.275 -0.225 0.499 -0.499 0.499 -0.275 0 -0.499 0.225 -0.499 0.499 0 0.37 -0.388 0.499 -1.497 0.499 -1.109 0 -1.497 0.129 -1.497 0.499 0 0.37 -0.388 0.499 -1.497 0.499 -1.109 0 -1.497 0.129 -1.497 0.499 0 0.333 -0.333 0.499 -0.998 0.499 -0.665 0 -0.998 0.166 -0.998 0.499 0 0.333 -0.333 0.499 -0.998 0.499 -0.665 0 -0.998 0.166 -0.998 0.499 0 0.275 -0.225 0.499 -0.499 0.499 -0.275 0 -0.499 0.225 -0.499 0.499 0 0.333 -0.333 0.499 -0.998 0.499 -0.665 0 -0.998 0.166 -0.998 0.499 0 0.333 -0.333 0.499 -0.998 0.499 -0.665 0 -0.998 0.166 -0.998 0.499 0 0.333 -0.333 0.499 -0.998 0.499 -0.665 0 -0.998 0.166 -0.998 0.499 0 0.37 -0.388 0.499 -1.497 0.499 -1.109 0 -1.497 0.129 -1.497 0.499 0 0.333 -0.333 0.499 -0.998 0.499 -0.665 0 -0.998 0.166 -0.998 0.499 0 0.333 -0.333 0.499 -0.998 0.499 -0.665 0 -0.998 0.166 -0.998 0.499 0 0.275 -0.225 0.499 -0.499 0.499 -0.275 0 -0.499 0.225 -0.499 0.499 0 0.37 -0.388 0.499 -1.497 0.499 h -1.497 v -42.42 z"/><path d="m 93.46 152.72 c 0 -37.933 0.058 -42.924 0.499 -42.924 0.275 0 0.499 0.225 0.499 0.499 0 0.275 0.225 0.499 0.499 0.499 0.275 0 0.499 0.225 0.499 0.499 0 0.691 0.583 0.628 0.769 -0.083 0.145 -0.555 0.154 -0.555 0.191 0 0.021 0.32 0.263 0.582 0.538 0.582 0.275 0 0.499 0.225 0.499 0.499 0 0.36 0.37 0.499 1.331 0.499 0.961 0 1.331 0.139 1.331 0.499 0 0.333 0.333 0.499 0.998 0.499 0.665 0 0.998 0.166 0.998 0.499 0 0.275 0.225 0.499 0.499 0.499 0.275 0 0.499 0.225 0.499 0.499 0 0.275 0.225 0.499 0.499 0.499 0.275 0 0.499 0.225 0.499 0.499 0 0.277 0.296 0.499 0.665 0.499 0.37 0 0.665 0.222 0.665 0.499 0 0.691 0.583 0.628 0.769 -0.083 0.145 -0.555 0.154 -0.555 0.191 0 0.026 0.389 0.315 0.582 0.87 0.582 0.518 0 0.832 0.189 0.832 0.499 0 0.277 0.296 0.499 0.665 0.499 0.37 0 0.665 0.222 0.665 0.499 0 0.311 0.314 0.499 0.832 0.499 0.518 0 0.832 0.189 0.832 0.499 0 0.333 0.333 0.499 0.998 0.499 0.665 0 0.998 0.166 0.998 0.499 0 0.277 0.296 0.499 0.665 0.499 0.37 0 0.665 0.222 0.665 0.499 0 0.275 0.15 0.499 0.333 0.499 0.183 0 0.333 0.225 0.333 0.499 0 0.277 0.296 0.499 0.665 0.499 0.37 0 0.665 0.222 0.665 0.499 0 0.691 0.583 0.628 0.769 -0.083 0.145 -0.555 0.154 -0.555 0.191 0 0.026 0.389 0.315 0.582 0.87 0.582 0.518 0 0.832 0.189 0.832 0.499 0 0.333 0.333 0.499 0.998 0.499 0.665 0 0.998 0.166 0.998 0.499 0 0.275 0.225 0.499 0.499 0.499 0.275 0 0.499 0.225 0.499 0.499 0 0.333 -0.333 0.499 -0.998 0.499 -0.665 0 -0.998 0.166 -0.998 0.499 0 0.311 -0.314 0.499 -0.832 0.499 -0.518 0 -0.832 0.189 -0.832 0.499 0 0.277 -0.296 0.499 -0.665 0.499 -0.37 0 -0.665 0.222 -0.665 0.499 0 0.333 -0.333 0.499 -0.998 0.499 h -0.998 l 0.005 20.713 c 0.002 11.392 0.095 21.05 0.205 21.462 0.164 0.613 0.434 0.749 1.493 0.749 0.927 0 1.292 0.141 1.292 0.499 0 0.277 0.296 0.499 0.665 0.499 0.37 0 0.665 0.222 0.665 0.499 0 0.311 0.314 0.499 0.832 0.499 0.518 0 0.832 0.189 0.832 0.499 0 0.33 0.33 0.499 0.972 0.499 0.809 0 1.01 0.167 1.191 0.998 0.183 0.831 0.382 0.998 1.191 0.998 0.642 0 0.972 0.169 0.972 0.499 0 0.275 0.225 0.499 0.499 0.499 0.275 0 0.499 0.225 0.499 0.499 0 0.333 -0.333 0.499 -0.998 0.499 -0.665 0 -0.998 0.166 -0.998 0.499 0 0.277 -0.296 0.499 -0.665 0.499 -0.37 0 -0.665 0.222 -0.665 0.499 0 0.37 -0.388 0.499 -1.497 0.499 -1.109 0 -1.497 0.129 -1.497 0.499 0 0.36 -0.37 0.499 -1.331 0.499 -0.961 0 -1.331 0.139 -1.331 0.499 0 0.349 -0.351 0.499 -1.165 0.499 -0.813 0 -1.165 0.151 -1.165 0.499 0 0.333 -0.333 0.499 -0.998 0.499 -0.665 0 -0.998 0.166 -0.998 0.499 0 0.333 -0.333 0.499 -0.998 0.499 -0.665 0 -0.998 0.166 -0.998 0.499 0 0.275 -0.225 0.499 -0.499 0.499 -0.275 0 -0.499 0.225 -0.499 0.499 0 0.37 -0.388 0.499 -1.497 0.499 -1.109 0 -1.497 0.129 -1.497 0.499 0 0.333 -0.333 0.499 -0.998 0.499 -0.665 0 -0.998 0.166 -0.998 0.499 0 0.37 -0.388 0.499 -1.497 0.499 -1.109 0 -1.497 0.129 -1.497 0.499 0 0.333 -0.333 0.499 -0.998 0.499 -0.665 0 -0.998 0.166 -0.998 0.499 0 0.333 -0.333 0.499 -0.998 0.499 -0.665 0 -0.998 0.166 -0.998 0.499 0 0.275 -0.225 0.499 -0.499 0.499 -0.275 0 -0.499 0.225 -0.499 0.499 0 0.37 -0.388 0.499 -1.497 0.499 -1.109 0 -1.497 0.129 -1.497 0.499 0 0.275 -0.15 0.499 -0.333 0.499 -0.22 0 -0.333 -14.53 -0.333 -42.924 z"/></g><g style="fill:#dc143c"><path d="m 90.13 194.14 c 0 -0.359 -0.367 -0.499 -1.305 -0.499 -1.179 0 -1.326 -0.096 -1.524 -0.998 -0.121 -0.549 -0.357 -0.998 -0.526 -0.998 -0.168 0 -0.306 -0.225 -0.306 -0.499 0 -0.37 -0.388 -0.499 -1.497 -0.499 -1.109 0 -1.497 -0.129 -1.497 -0.499 0 -0.275 -0.225 -0.499 -0.499 -0.499 -0.275 0 -0.499 -0.225 -0.499 -0.499 0 -0.333 -0.333 -0.499 -0.998 -0.499 -0.665 0 -0.998 -0.166 -0.998 -0.499 0 -0.275 -0.225 -0.499 -0.499 -0.499 -0.275 0 -0.499 -0.225 -0.499 -0.499 0 -0.275 -0.225 -0.499 -0.499 -0.499 -0.275 0 -0.499 -0.225 -0.499 -0.499 0 -0.696 -0.916 -0.627 -1.102 0.083 -0.145 0.555 -0.154 0.555 -0.191 0 -0.021 -0.32 -0.188 -0.582 -0.371 -0.582 -0.183 0 -0.333 -0.225 -0.333 -0.499 0 -0.277 -0.296 -0.499 -0.665 -0.499 -0.37 0 -0.665 -0.222 -0.665 -0.499 0 -0.36 -0.37 -0.499 -1.331 -0.499 -0.961 0 -1.331 -0.139 -1.331 -0.499 0 -0.333 -0.333 -0.499 -0.998 -0.499 -0.665 0 -0.998 -0.166 -0.998 -0.499 0 -0.275 -0.225 -0.499 -0.499 -0.499 -0.275 0 -0.499 -0.225 -0.499 -0.499 0 -0.275 -0.225 -0.499 -0.499 -0.499 -0.275 0 -0.499 -0.225 -0.499 -0.499 0 -0.275 -0.225 -0.499 -0.499 -0.499 -0.275 0 -0.499 -0.225 -0.499 -0.499 0 -0.333 -0.333 -0.499 -0.998 -0.499 -0.665 0 -0.998 -0.166 -0.998 -0.499 0 -0.333 -0.333 -0.499 -0.998 -0.499 -0.665 0 -0.998 -0.166 -0.998 -0.499 0 -0.333 -0.333 -0.499 -0.998 -0.499 -0.665 0 -0.998 -0.166 -0.998 -0.499 0 -0.275 -0.225 -0.499 -0.499 -0.499 -0.275 0 -0.499 -0.225 -0.499 -0.499 0 -0.277 -0.296 -0.499 -0.665 -0.499 -0.37 0 -0.665 -0.222 -0.665 -0.499 0 -0.275 -0.15 -0.499 -0.333 -0.499 -0.218 0 -0.333 -7.376 -0.333 -21.462 0 -18.855 0.061 -21.462 0.499 -21.462 0.333 0 0.499 -0.333 0.499 -0.998 0 -0.665 0.166 -0.998 0.499 -0.998 0.275 0 0.499 0.225 0.499 0.499 0 0.275 0.15 0.499 0.333 0.499 0.183 0 0.333 -0.225 0.333 -0.499 0 -0.277 0.296 -0.499 0.665 -0.499 0.518 0 0.665 -0.222 0.665 -0.998 0 -0.887 0.111 -0.998 0.998 -0.998 0.665 0 0.998 -0.166 0.998 -0.499 0 -0.333 0.333 -0.499 0.998 -0.499 0.665 0 0.998 -0.166 0.998 -0.499 0 -0.36 0.37 -0.499 1.331 -0.499 0.961 0 1.331 -0.139 1.331 -0.499 0 -0.275 0.225 -0.499 0.499 -0.499 0.275 0 0.499 -0.225 0.499 -0.499 0 -0.333 0.333 -0.499 0.998 -0.499 0.665 0 0.998 -0.166 0.998 -0.499 0 -0.277 0.296 -0.499 0.665 -0.499 0.37 0 0.665 -0.222 0.665 -0.499 0 -0.275 0.15 -0.499 0.333 -0.499 0.183 0 0.333 -0.225 0.333 -0.499 0 -0.349 0.351 -0.499 1.165 -0.499 0.813 0 1.165 -0.151 1.165 -0.499 0 -0.333 0.333 -0.499 0.998 -0.499 0.665 0 0.998 -0.166 0.998 -0.499 0 -0.275 0.139 -0.499 0.308 -0.499 0.17 0 0.377 -0.262 0.461 -0.582 0.145 -0.555 0.154 -0.555 0.191 0 0.047 0.708 1.037 0.787 1.037 0.083 0 -0.275 0.15 -0.499 0.333 -0.499 0.183 0 0.333 -0.225 0.333 -0.499 0 -0.275 0.225 -0.499 0.499 -0.499 0.275 0 0.499 -0.225 0.499 -0.499 0 -0.277 0.296 -0.499 0.665 -0.499 0.37 0 0.665 -0.222 0.665 -0.499 0 -0.333 0.333 -0.499 0.998 -0.499 0.665 0 0.998 -0.166 0.998 -0.499 0 -0.36 0.37 -0.499 1.331 -0.499 0.961 0 1.331 -0.139 1.331 -0.499 0 -0.277 0.296 -0.499 0.665 -0.499 0.37 0 0.665 -0.222 0.665 -0.499 0 -0.275 0.139 -0.499 0.308 -0.499 0.17 0 0.377 -0.262 0.461 -0.582 0.145 -0.555 0.154 -0.555 0.191 0 0.047 0.708 0.704 0.786 0.704 0.083 0 -0.275 0.225 -0.499 0.499 -0.499 0.441 0 0.499 4.936 0.499 42.42 v 42.42 h -0.998 c -0.665 0 -0.998 -0.166 -0.998 -0.499 z"/><path d="m 151.36 194.14 c 0 -0.275 -0.225 -0.499 -0.499 -0.499 -0.275 0 -0.499 -0.225 -0.499 -0.499 0 -0.37 -0.388 -0.499 -1.497 -0.499 -1.109 0 -1.497 -0.129 -1.497 -0.499 0 -0.275 -0.225 -0.499 -0.499 -0.499 -0.333 0 -0.499 -0.333 -0.499 -0.998 0 -0.961 -0.055 -0.998 -1.497 -0.998 -1.109 0 -1.497 -0.129 -1.497 -0.499 0 -0.333 -0.333 -0.499 -0.998 -0.499 -0.887 0 -0.998 -0.111 -0.998 -0.998 0 -0.961 -0.055 -0.998 -1.497 -0.998 -1.442 0 -1.497 -0.037 -1.497 -0.998 0 -0.887 -0.111 -0.998 -0.998 -0.998 -0.665 0 -0.998 -0.166 -0.998 -0.499 0 -0.333 -0.333 -0.499 -0.998 -0.499 -0.665 0 -0.998 -0.166 -0.998 -0.499 0 -0.333 -0.333 -0.499 -0.998 -0.499 -0.665 0 -0.998 -0.166 -0.998 -0.499 0 -0.333 -0.333 -0.499 -0.998 -0.499 -0.887 0 -0.998 -0.111 -0.998 -0.998 0 -0.665 -0.166 -0.998 -0.499 -0.998 -0.275 0 -0.499 -0.225 -0.499 -0.499 0 -0.37 -0.388 -0.499 -1.497 -0.499 -1.109 0 -1.497 -0.129 -1.497 -0.499 0 -0.275 -0.225 -0.499 -0.499 -0.499 -0.275 0 -0.499 -0.225 -0.499 -0.499 0 -0.333 -0.333 -0.499 -0.998 -0.499 -0.665 0 -0.998 -0.166 -0.998 -0.499 0 -0.33 -0.33 -0.499 -0.972 -0.499 -0.809 0 -1.01 -0.167 -1.191 -0.998 -0.198 -0.902 -0.345 -0.998 -1.524 -0.998 -0.938 0 -1.305 -0.14 -1.305 -0.499 0 -0.275 -0.207 -0.499 -0.46 -0.499 -0.253 0 -0.551 -0.337 -0.661 -0.749 -0.11 -0.412 -0.203 -9.62 -0.205 -20.464 -0.004 -17.305 0.056 -19.715 0.495 -19.715 0.275 0 0.499 -0.225 0.499 -0.499 0 -0.277 0.296 -0.499 0.665 -0.499 0.37 0 0.665 -0.222 0.665 -0.499 0 -0.307 0.312 -0.499 0.807 -0.499 0.489 0 0.867 -0.23 0.96 -0.582 0.145 -0.555 0.154 -0.555 0.191 0 0.062 0.94 0.632 0.668 0.87 -0.416 0.183 -0.831 0.382 -0.998 1.191 -0.998 0.642 0 0.972 -0.169 0.972 -0.499 0 -0.275 0.225 -0.499 0.499 -0.499 0.275 0 0.499 -0.225 0.499 -0.499 0 -0.333 0.333 -0.499 0.998 -0.499 0.665 0 0.998 -0.166 0.998 -0.499 0 -0.275 0.225 -0.499 0.499 -0.499 0.275 0 0.499 -0.225 0.499 -0.499 0 -0.37 0.388 -0.499 1.497 -0.499 1.109 0 1.497 -0.129 1.497 -0.499 0 -0.275 0.225 -0.499 0.499 -0.499 0.275 0 0.499 -0.225 0.499 -0.499 0 -0.333 0.333 -0.499 0.998 -0.499 0.887 0 0.998 -0.111 0.998 -0.998 0 -0.887 0.111 -0.998 0.998 -0.998 0.665 0 0.998 -0.166 0.998 -0.499 0 -0.37 0.388 -0.499 1.497 -0.499 1.109 0 1.497 -0.129 1.497 -0.499 0 -0.275 0.225 -0.499 0.499 -0.499 0.275 0 0.499 -0.225 0.499 -0.499 0 -0.333 0.333 -0.499 0.998 -0.499 0.665 0 0.998 -0.166 0.998 -0.499 0 -0.275 0.225 -0.499 0.499 -0.499 0.333 0 0.499 -0.333 0.499 -0.998 0 -0.961 0.055 -0.998 1.497 -0.998 1.109 0 1.497 -0.129 1.497 -0.499 0 -0.333 0.333 -0.499 0.998 -0.499 0.665 0 0.998 -0.166 0.998 -0.499 0 -0.333 0.333 -0.499 0.998 -0.499 0.665 0 0.998 -0.166 0.998 -0.499 0 -0.275 0.225 -0.499 0.499 -0.499 0.275 0 0.499 -0.225 0.499 -0.499 0 -0.275 0.225 -0.499 0.499 -0.499 0.44 0 0.499 3.438 0.499 28.949 0.909 5.975 0.154 0.931 0 29.947 v 12.977 c 0 11.313 -0.064 12.977 -0.499 12.977 -0.275 0 -0.499 -0.225 -0.499 -0.499 z"/></g><path d="m 121.41 124.77 c 0 -0.961 -0.055 -0.998 -1.497 -0.998 -1.109 0 -1.497 -0.129 -1.497 -0.499 0 -0.275 -0.225 -0.499 -0.499 -0.499 -0.275 0 -0.499 -0.225 -0.499 -0.499 0 -0.333 -0.333 -0.499 -0.998 -0.499 -0.665 0 -0.998 -0.166 -0.998 -0.499 0 -0.277 -0.296 -0.499 -0.665 -0.499 -0.37 0 -0.665 -0.222 -0.665 -0.499 0 -0.275 -0.225 -0.499 -0.499 -0.499 -0.275 0 -0.499 -0.225 -0.499 -0.499 0 -0.691 -0.583 -0.628 -0.769 0.083 -0.145 0.555 -0.154 0.555 -0.191 0 -0.021 -0.32 -0.263 -0.582 -0.538 -0.582 -0.275 0 -0.499 -0.225 -0.499 -0.499 0 -0.275 -0.225 -0.499 -0.499 -0.499 -0.275 0 -0.499 -0.225 -0.499 -0.499 0 -0.36 -0.37 -0.499 -1.331 -0.499 -0.961 0 -1.331 -0.139 -1.331 -0.499 0 -0.277 -0.296 -0.499 -0.665 -0.499 -0.37 0 -0.665 -0.222 -0.665 -0.499 0 -0.311 -0.314 -0.499 -0.832 -0.499 -0.518 0 -0.832 -0.189 -0.832 -0.499 0 -0.275 -0.225 -0.499 -0.499 -0.499 -0.275 0 -0.499 -0.225 -0.499 -0.499 0 -0.277 -0.296 -0.499 -0.665 -0.499 -0.37 0 -0.665 -0.222 -0.665 -0.499 0 -0.275 -0.15 -0.499 -0.333 -0.499 -0.183 0 -0.333 0.225 -0.333 0.499 0 0.275 -0.225 0.499 -0.499 0.499 -0.438 0 -0.499 -2.326 -0.499 -18.94 v -18.94 l 0.998 -0.219 c 0.549 -0.121 0.998 -0.357 0.998 -0.526 0 -0.168 0.15 -0.306 0.333 -0.306 0.183 0 0.333 0.449 0.333 0.998 0 0.776 0.148 0.998 0.665 0.998 0.539 0 0.665 -0.222 0.665 -1.165 0 -0.813 -0.151 -1.165 -0.499 -1.165 -0.275 0 -0.499 -0.16 -0.499 -0.357 0 -0.53 0.876 -1.307 1.474 -1.307 0.288 0 0.523 -0.225 0.523 -0.499 0 -0.333 0.333 -0.499 0.998 -0.499 0.665 0 0.998 -0.166 0.998 -0.499 0 -0.311 0.314 -0.499 0.832 -0.499 0.518 0 0.832 -0.189 0.832 -0.499 0 -0.275 0.288 -0.499 0.64 -0.499 0.352 0 1.069 -0.429 1.593 -0.953 0.524 -0.524 1.308 -1.066 1.741 -1.204 0.433 -0.138 1.118 -0.607 1.523 -1.043 0.404 -0.436 0.98 -0.793 1.279 -0.793 0.299 0 0.544 -0.205 0.544 -0.457 0 -0.275 0.528 -0.541 1.331 -0.669 0.732 -0.117 1.331 -0.361 1.331 -0.542 0 -0.181 0.191 -0.329 0.425 -0.329 0.512 0 1.569 -1.174 1.576 -1.751 0.003 -0.271 0.118 -0.241 0.333 0.087 0.22 0.336 0.409 0.382 0.577 0.142 0.137 -0.196 0.512 -0.454 0.832 -0.572 0.333 -0.123 0.582 -0.557 0.582 -1.013 0 -0.685 0.197 -0.825 1.379 -0.983 0.758 -0.102 1.471 -0.334 1.584 -0.517 0.113 -0.182 0.615 -0.435 1.117 -0.56 0.657 -0.165 0.912 -0.439 0.912 -0.981 0 -0.632 0.224 -0.782 1.407 -0.941 0.774 -0.104 1.46 -0.348 1.525 -0.543 0.065 -0.195 0.33 -0.354 0.589 -0.354 0.259 0 0.471 -0.299 0.471 -0.665 0 -0.37 0.222 -0.665 0.499 -0.665 0.275 0 0.499 -0.134 0.499 -0.297 0 -0.163 0.41 -0.4 0.912 -0.525 0.501 -0.126 0.99 -0.355 1.085 -0.509 0.095 -0.154 0.583 -0.383 1.085 -0.509 l 0.912 -0.229 v 15.01 c 0 13.12 -0.063 15.01 -0.499 15.01 -0.277 0 -0.499 0.296 -0.499 0.665 0 0.37 0.222 0.665 0.499 0.665 0.437 0 0.499 2.163 0.499 17.469 v 17.469 h -1.497 c -1.109 0 -1.497 0.129 -1.497 0.499 0 0.275 -0.225 0.499 -0.499 0.499 -0.275 0 -0.499 0.225 -0.499 0.499 0 0.275 -0.225 0.499 -0.499 0.499 -0.275 0 -0.499 0.225 -0.499 0.499 0 0.275 -0.225 0.499 -0.499 0.499 -0.275 0 -0.499 0.225 -0.499 0.499 0 0.333 -0.333 0.499 -0.998 0.499 -0.665 0 -0.998 0.166 -0.998 0.499 0 0.37 -0.388 0.499 -1.497 0.499 -1.109 0 -1.497 0.129 -1.497 0.499 0 0.275 -0.225 0.499 -0.499 0.499 -0.275 0 -0.499 0.225 -0.499 0.499 0 0.275 -0.225 0.499 -0.499 0.499 -0.275 0 -0.499 0.225 -0.499 0.499 0 0.37 -0.388 0.499 -1.497 0.499 -1.442 0 -1.497 -0.037 -1.497 -0.998 z" style="fill:#ff4500"/></g></g></svg>