<svg xmlns="http://www.w3.org/2000/svg" xmlns:xlink="http://www.w3.org/1999/xlink" viewBox="0 0 256 256"><defs><path id="0" d="m 245.46 129.52 l -97.89 -96.9 c -5.556 -5.502 -16.222 -11.873 -23.7 -14.16 l -39.518 -12.08 c -7.479 -2.286 -18.1 0.391 -23.599 5.948 l -13.441 13.578 c -5.5 5.559 -14.502 14.653 -20 20.21 l -13.44 13.579 c -5.5 5.558 -8.07 16.206 -5.706 23.658 l 12.483 39.39 c 2.363 7.456 8.843 18.06 14.399 23.556 l 97.89 96.9 c 5.558 5.502 14.605 5.455 20.1 -0.101 l 36.26 -36.63 c 5.504 -5.559 14.503 -14.651 20 -20.21 l 36.26 -36.629 c 5.502 -5.56 5.455 -14.606 -0.101 -20.11 z m -178.09 -50.74 c -7.198 0 -13.03 -5.835 -13.03 -13.03 0 -7.197 5.835 -13.03 13.03 -13.03 7.197 0 13.03 5.835 13.03 13.03 -0.001 7.198 -5.836 13.03 -13.03 13.03 z"/><use id="1" xlink:href="#0"/><clipPath style="clip-path:url(#2)"><use xlink:href="#0"/></clipPath><clipPath style="clip-path:url(#2)"><use xlink:href="#0"/></clipPath><clipPath id="2"><use xlink:href="#1"/></clipPath></defs><path d="m 212.60265 212.28 c 129.89 -104.02 -60.27 -291.8 -175.210003 -171.84 -115.19 103.23 64.590003 303.6 175.210003 171.84 z" style="fill:#fff;color:#000"/><g transform="matrix(0.59692039 0 0 0.52361726 56.00756 61.9063)" style="fill:#ff4500"><path d="m 35.606403,259.50745 c -1.751374,-1.06789 -4.783285,-4.4412 -6.737579,-7.49626 -1.954294,-3.05505 -3.9686,-5.55464 -4.476235,-5.55464 -1.803106,0 -6.101869,-10.33523 -6.101869,-14.67031 0,-2.38984 -1.299109,-7.54795 -2.943709,-11.68799 -4.957929,-12.48086 -9.0240042,-25.91153 -11.1235158,-36.74214 -1.956495,-10.09283 -1.959657,-10.38746 -0.138057,-12.86448 1.025364,-1.39429 4.5285186,-3.88508 7.7847898,-5.53508 l 5.920492,-3 0.5,-67.664723 0.5,-67.664717 3,-4.25851 c 1.65,-2.34218 4.983278,-5.30555 7.407284,-6.58528 l 4.407283,-2.32677 91.026993,0 c 90.26074,0 91.0633,0.0176 95.34004,2.08791 2.37218,1.14835 5.89939,3.9412 7.83826,6.20632 6.74206,7.876586 6.48074,3.2295 6.47456,115.13727 -0.004,70.28064 -0.3399,102.2727 -1.10307,105.02158 -1.40344,5.05501 -6.38326,10.03483 -11.43827,11.43827 -2.70105,0.74989 -26.87731,1.09926 -76.33267,1.10307 l -72.3796,0.006 -11.620405,2.52574 c -6.391223,1.38916 -13.507174,2.96416 -15.813225,3.5 -5.68563,1.32113 -6.328978,1.25837 -9.991497,-0.97484 z M 215.68751,240.06412 c 2.25896,-0.94385 3.69831,-2.44162 4.46789,-4.64922 0.8184,-2.34767 1.13532,-31.7399 1.13532,-105.29312 l 0,-102.036329 -2.17431,-2.314451 -2.17432,-2.31445 -92.01123,0 -92.011238,0 -2.314451,2.17431 -2.314451,2.174317 0,64.325686 c 0,45.694917 0.315193,64.325687 1.088255,64.325687 0.598541,0 3.977199,-1.33716 7.508129,-2.97147 18.501071,-8.56331 42.456604,-16.00414 51.580814,-16.02152 5.31666,-0.0101 8.19034,4.04342 16.117962,22.73563 12.88922,30.39097 18.72599,48.3877 20.19156,62.25736 0.63321,5.99248 0.50438,6.66582 -1.64994,8.62369 -1.28523,1.16804 -5.14928,3.36699 -8.58678,4.88657 -6.22268,2.75079 -7.37922,3.86742 -5,4.82746 0.6875,0.27741 24.10195,0.53991 52.03212,0.58333 41.27004,0.0642 51.40634,-0.18187 54.11467,-1.31348 z M 127.52735,123.42044 c -1.24486,-0.50013 -4.86229,-0.80911 -8.03874,-0.68661 -4.13676,0.15953 -6.54462,-0.28034 -8.48663,-1.55033 l -2.71126,-1.77306 0.12722,-26.726944 c 0.07,-14.699821 0.40747,-31.676947 0.75,-37.726947 l 0.62278,-11 4.08647,-0.299507 c 5.79718,-0.42489 6.81188,1.244566 7.41353,12.19727 0.56336,10.255705 0.31709,10.049083 9.03879,7.583501 8.21087,-2.321171 15.36347,0.59073 21.62901,8.805406 4.3358,5.684616 5.46934,9.778948 6.05825,21.882268 0.45156,9.280483 0.27889,10.640523 -1.97633,15.566583 -3.0415,6.64349 -8.45919,12.06125 -13.60188,13.60204 -4.53998,1.36021 -11.68927,1.42078 -14.91121,0.12633 z m 9.03771,-14.11071 c 6.60958,-3.53734 9.23116,-13.734846 6.63865,-25.823272 -0.8835,-4.119648 -1.66274,-5.366261 -4.16236,-6.658863 -2.59568,-1.342276 -3.71293,-1.399643 -7.16299,-0.367794 -2.2482,0.672395 -5.32514,2.102376 -6.83764,3.177736 l -2.75,1.9552 0,13.231906 c 0,8.958147 0.38759,13.619497 1.2,14.431907 1.52625,1.52625 10.25553,1.56176 13.07434,0.0532 z m 46.40946,13.69801 c -5.88044,-2.09723 -10.62241,-6.60873 -13.71793,-13.05119 -2.51332,-5.23077 -2.62188,-16.197471 -0.2265,-22.88007 2.12595,-5.930956 8.74462,-12.134623 14.64004,-13.722095 11.48705,-3.093142 22.95849,3.895619 23.07047,14.055262 0.0467,4.239769 -0.13707,4.568414 -2.72106,4.865369 -3.95356,0.454345 -9.6859,-3.353844 -10.39647,-6.906733 -1.24109,-6.205437 -6.39867,-6.313641 -11.03738,-0.23156 -2.38492,3.126998 -2.78265,4.556297 -2.71097,9.742235 0.10264,7.426732 3.19416,14.159322 7.20688,15.694892 4.54109,1.73775 9.64944,-0.44348 13.23144,-5.64974 1.69057,-2.45716 3.38964,-4.46067 3.77572,-4.45225 1.36613,0.0298 2.75733,1.51806 3.94361,4.21874 1.55021,3.5292 -1.01758,9.84075 -5.88071,14.45462 -5.66947,5.37886 -11.58479,6.57029 -19.17714,3.86252 z m -137.4338,-1.54023 c -1.7875,-1.08986 -3.25,-2.43752 -3.25,-2.99481 0,-0.55728 2.205968,-6.5264 4.902151,-13.2647 12.856464,-32.130869 17.969804,-44.047141 19.559401,-45.581775 1.620937,-1.564891 1.863024,-1.494716 3.857482,1.118188 1.944549,2.547519 13.234724,30.484507 21.008824,51.985327 2.74136,7.58179 2.96844,8.90377 1.67214,9.73469 -4.48328,2.87377 -11.83746,-0.77627 -14.11962,-7.00788 l -1.648,-4.5 -8.716479,0 -8.716476,0 -1.893234,5 c -2.938277,7.75994 -6.45562,9.29152 -12.656189,5.51096 z M 73.213216,97.706549 c -0.130312,-2.942391 -3.539257,-11.76126 -4.473555,-11.572992 -1.204697,0.242754 -4.601287,10.483602 -3.998288,12.054994 0.281604,0.73385 2.184822,1.268 4.517962,1.268 3.202273,0 4.015445,-0.35991 3.953881,-1.750002 z m 7.293572,138.285691 c 1.80616,-0.80537 6.43393,-2.66284 10.28393,-4.12771 3.85,-1.46487 9.250002,-3.65831 12.000002,-4.87431 2.75,-1.216 6.50678,-2.84604 8.34839,-3.62229 l 3.3484,-1.41138 -0.64821,-6.46441 c -0.35652,-3.55542 -1.26915,-8.50542 -2.02807,-11 -0.75892,-2.49457 -1.97949,-6.56059 -2.71237,-9.03559 -1.30913,-4.42098 -1.40255,-4.49613 -5.32033,-4.27954 -2.1933,0.12126 -5.787812,0.67131 -7.987812,1.22234 -2.2,0.55102 -9.9625,2.4052 -17.25,4.12039 -7.287498,1.71518 -13.249998,3.50568 -13.249998,3.97887 0,0.90963 0.906313,4.41504 5.935702,22.95794 3.845896,14.17949 3.781806,14 4.998986,14 0.5486,0 2.47522,-0.65894 4.28138,-1.46431 z M 52.79072,200.21645 c 5.560201,-1.60585 7.953535,-2.76024 7.847644,-3.7852 -0.0838,-0.81108 -1.581756,-7.5497 -3.328799,-14.9747 -1.747044,-7.425 -3.43125,-16.5375 -3.742681,-20.25 -0.331058,-3.94647 -1.028028,-6.75 -1.678078,-6.75 -2.708759,0 -39.419367,15.4741 -41.477359,17.48336 -1.1447922,1.11768 -1.1733152,2.50858 -0.167777,8.18163 1.637687,9.23951 5.87587,24.34561 7.56666,26.96975 l 1.375459,2.13475 12.802466,-3.34955 c 7.041356,-1.84226 16.402465,-4.38928 20.802465,-5.66004 z"/><g style="fill-rule:evenodd"><path d="m 83.924384 125.40269 c -1.279794 -0.74407 -1.584861 -1.66072 -1.141111 -3.42876 0.950518 -3.78717 13.083644 -28.831073 13.96791 -28.831073 1.003966 0 4.035857 6.012611 10.281577 20.389593 3.58524 8.25287 4.61312 11.53611 3.77394 12.05474 -2.11974 1.31008 -7.51649 -1.9185 -7.51649 -4.4967 0 -0.94165 -1.63979 -1.28097 -6.190472 -1.28097 -4.472134 0 -6.190476 0.3467 -6.190476 1.24899 0 1.35269 -3.456011 5.43597 -4.56091 5.38872 -0.372452 -0.0159 -1.463238 -0.48597 -2.423968 -1.04454 z m 15.891177 -12.03117 c 0.246009 -0.39805 -0.186055 -2.21948 -0.960136 -4.04762 -1.344829 -3.17608 -1.468103 -3.24169 -2.772029 -1.4752 -0.750535 1.01678 -1.364611 2.83821 -1.364611 4.04761 0 1.69643 0.531257 2.19893 2.324746 2.19893 1.278611 0 2.526024 -0.32568 2.77203 -0.72372 z" transform="matrix(1.6752653 0 0 1.9097919 -93.82752 -118.22815)"/><path d="m 178.68798 120.08439 c -9.19009 -5.835 -13.27784 -15.75299 -12.27874 -29.791572 1.547 -21.737256 23.19679 -33.189511 35.52651 -18.792733 3.94272 4.603732 5.62126 13.516597 2.80488 14.893613 -2.92294 1.429115 -8.48199 -2.375875 -11.31031 -7.741572 -3.63237 -6.89104 -6.73463 -6.960005 -11.48862 -0.255438 -3.0467 4.29677 -3.43893 5.587823 -3.43893 11.319712 0 9.145543 3.2123 16.63817 8.00449 18.67028 3.11844 1.32238 4.10138 1.22441 7.53786 -0.75119 2.1735 -1.24953 5.20864 -3.97842 6.74478 -6.0642 3.45906 -4.696756 4.74397 -4.762056 6.18982 -0.31464 0.9037 2.77977 0.85985 4.30328 -0.21846 7.59148 -1.48082 4.51567 -7.16829 11.46854 -10.83376 13.24416 -4.50858 2.18406 -12.01402 1.30991 -17.23952 -2.0079 z"/></g></g></svg>