<svg xmlns="http://www.w3.org/2000/svg" viewBox="0 0 256 256"><g transform="translate(0 -796.36)"><path d="m 240.92 998.94 c 111.21 -381.34 -438.25 -138.25 -162.63 32.359 c 50.643 31.19 136.61 33.36 162.63 -32.359 z" style="fill:#fff;color:#fff"/><g transform="matrix(10.20887 0 0 8.40509 34402.79 -16798.94)" style="fill:#ff4500"><path d="m -3363.42 2101.72 v 10 h 1 v -7 h 1 h 8 h 2 v -3 z m 2 4 v 10 h 12 v -10 z m 2 8 c -6.51 5.657 -3.255 2.829 0 0 z" style="fill-opacity:0.675;color:#fff"/><g transform="matrix(0.09795 0 0 0.11898 -3369.89 2093.41)" style="fill-rule:evenodd"><path d="m 67 111.85 v -41.488 h 60.5 h 60.5 v 12.1 v 12.1 h -55.894 h -55.894 v 29.387 v 29.387 h -4.61 h -4.61 v -41.488 z"/><path d="m 86.59 145.27 v -41.488 h 61.08 h 61.08 v 41.488 v 41.488 h -61.08 h -61.08 v -41.488 z" style="fill:#dc143c"/></g></g></g></svg>