<svg xmlns="http://www.w3.org/2000/svg" viewBox="0 0 256 256"><defs><linearGradient x2="389.58511" x1="-0.00167674" gradientTransform="scale(0.9303808 1.0748287)" gradientUnits="userSpaceOnUse" id="0"><stop style="stop-color:#fa0000"/><stop offset="1" style="stop-color:#f00"/></linearGradient></defs><path d="m 22.01084 203.4688 c 48.541 88.14 200.63 53.931 226.36 -18.64 30.66 -86.449996 -49.14 -250.629996 -184.3 -154.449996 -45.527 33.585 -90.6 84.948996 -42.05 173.089996 z" style="fill:#fff;color:#000"/><g transform="matrix(0.29780912 0 0 0.3199695 74.531363 62.152836)" style="stroke:#fff;fill-rule:evenodd"><path transform="translate(0 6.8125)" d="m 8.90794,409.833 306.58006,-188.44 0,-60.14 -44.68,-9.42 82.75,-68.7581 0,-74.17096 -284.5401,170.39006 -2.004,66.97 38.0741,1.19 -96.18506,94.22 0,68.16 0.005,-10e-4 z" style="fill:url(#0);stroke-width:17.80900002"/><g transform="translate(0 6.8125)" style="fill:#ffa07a"><path d="m 16.9229,397.803 0.598,-50.72 289.9501,-181.82 0,52.12 -290.5501,180.42 0.002,0 z"/><path d="m 75.0339,239.433 50.0991,0 60.11,-54.12 -108.2101,0 -1.999,54.12 z"/><path d="m 211.293,149.223 134.25,-124.2801 0,52.119 -94.17,80.1811 -40.08,-8.02 z"/></g></g></svg>