<svg xmlns="http://www.w3.org/2000/svg" viewBox="0 0 256 256"><path d="m 213.3 834.88 c 146.42 225.37 -253.5 312.59 -221.64 80.74 12.991 -94.56 165.63 -166.95 221.64 -80.74 z" transform="matrix(-1 0 0 -1 245.66 1052.36)" style="fill:#fff;color:#000"/><g transform="translate(-16.271 20.61)"><g style="fill:#ff4500"><path d="m 98.94 163.86 c -13.343 -7.984 -13.236 -23.09 0.204 -28.83 6.267 -2.678 13.348 0.859 18.466 9.225 4.598 7.515 4.03 10.11 -3.791 17.4 -6.797 6.336 -7.741 6.476 -14.879 2.205 z m 44.543 2.186 c -1.221 -0.457 -4.384 -2.942 -7.03 -5.523 -3.948 -3.852 -4.809 -5.847 -4.809 -11.137 0 -6.077 -0.647 -7.06 -11.376 -17.26 -9.344 -8.884 -12.256 -10.816 -16.3 -10.816 -3.537 0 -6.471 -1.463 -10.418 -5.195 -4.608 -4.357 -5.494 -6.194 -5.494 -11.388 0 -10.944 10.999 -19.268 20.524 -15.532 3.827 1.501 4.738 0.955 14.302 -8.571 l 10.214 -10.175 l -0.904 -7.932 c -0.824 -7.238 -0.532 -8.358 3.344 -12.795 2.738 -3.135 6.165 -5.177 9.646 -5.748 4.816 -0.79 6.112 -0.207 12 5.397 8.682 8.257 14.421 8.538 21.08 1.033 2.563 -2.887 6.452 -5.713 8.643 -6.28 8.656 -2.242 18.706 6.739 18.719 16.726 0.004 3.219 -1.616 5.978 -5.914 10.07 -8.097 7.713 -8.097 13.253 0 22.317 4.057 4.541 5.919 8.01 5.919 11.03 0 8.558 -11.11 18.11 -18.979 16.331 -3.426 -0.776 -5.337 0.529 -14.07 9.611 l -10.11 10.51 l 1.031 7.093 c 0.99 6.812 0.797 7.334 -4.883 13.195 -5.691 5.872 -9.505 7.139 -15.14 5.03 z m 5.921 -32.04 l 6.93 0.847 l 9.914 -10.308 c 9.67 -10.05 9.89 -10.459 8.959 -16.465 -1.123 -7.248 1.677 -13.998 7.416 -17.878 6.191 -4.185 5.191 -11.1 -2.859 -19.768 -8.678 -9.345 -12.08 -9.356 -20.705 -0.068 -6.454 6.95 -6.699 7.06 -13.697 6.101 l -7.126 -0.975 l -9.66 10.313 l -9.66 10.313 l 0.179 11.08 c 0.161 9.984 0.608 11.571 4.514 16.01 10.04 11.415 12.692 13.355 15.872 11.598 1.659 -0.916 6.081 -1.275 9.922 -0.805 z m -9.739 -17.03 c -6.318 -4.065 -8.964 -11 -6.521 -17.09 4.565 -11.37 14.947 -13.821 23.06 -5.445 6.393 6.596 6.7 12.721 0.962 19.218 -5.271 5.969 -11.536 7.155 -17.506 3.314 z"/><path d="m 96.06 162.1 c -4.056 -3.298 -7.331 -9.305 -7.331 -13.445 0 -5.138 4.54 -11.121 10.309 -13.587 5.505 -2.353 11.927 -0.104 16.379 5.735 6.972 9.145 0.034 23.303 -11.373 23.21 -3.133 -0.027 -6.725 -0.886 -7.983 -1.909 z m 42.1 -3.234 c -4.234 -4.369 -5.03 -6.282 -5.03 -12.08 0 -6.641 -0.406 -7.267 -11.469 -17.677 -10.322 -9.714 -12.08 -10.796 -17.627 -10.827 -5.04 -0.028 -6.855 -0.889 -9.989 -4.732 -5.295 -6.493 -5.11 -13.316 0.51 -18.872 3.994 -3.949 4.97 -4.214 12.209 -3.317 l 7.867 0.974 l 10.826 -11.01 c 8.631 -8.774 10.629 -11.643 9.851 -14.15 -2.496 -8.03 -2.332 -10.925 0.858 -15.11 6.665 -8.742 14.902 -8.237 22.589 1.385 6.02 7.541 12.471 7.32 20.08 -0.69 6.975 -7.342 10.618 -8.631 16.11 -5.701 6.129 3.27 8.327 6.613 8.327 12.662 0 4.298 -1.199 6.469 -6.215 11.248 -8.153 7.768 -8.606 14.402 -1.406 20.602 9.787 8.428 10.694 14.03 3.478 21.476 -4.346 4.485 -6.01 5.191 -12.248 5.191 -6.955 0 -7.582 0.379 -17.288 10.472 l -10.07 10.472 l 1.027 7.07 c 0.968 6.663 0.729 7.377 -4.169 12.431 -6.776 6.991 -11.565 7.04 -18.22 0.171 z m 3.195 -22.438 c 1.026 -1.713 8.213 -1.24 12.879 0.847 2 0.896 5.251 -1.5 14.02 -10.348 l 11.416 -11.515 l -1.95 -5.563 c -2.487 -7.097 -0.433 -12.791 6.615 -18.338 7.738 -6.09 7.02 -11.526 -2.958 -22.504 -10.413 -11.452 -14.222 -11.725 -23.798 -1.704 -6.474 6.775 -7.03 7.04 -13.243 6.157 -6.467 -0.915 -6.512 -0.887 -16.969 10.1 -10.265 10.788 -10.486 11.187 -10.503 18.946 -0.01 4.359 -0.684 8.351 -1.498 8.87 -3.079 1.964 -1.183 5.611 8.318 16 9.577 10.475 15.11 13.308 17.666 9.04 z m -1.685 -19.464 c -6.318 -4.065 -8.964 -11 -6.521 -17.09 4.565 -11.37 14.947 -13.821 23.06 -5.445 6.393 6.596 6.7 12.721 0.962 19.218 -5.271 5.969 -11.536 7.155 -17.506 3.314 z" style="stroke:#ff4500"/><path d="m 96.06 162.1 c -4.056 -3.298 -7.331 -9.305 -7.331 -13.445 0 -5.138 4.54 -11.121 10.309 -13.587 5.505 -2.353 11.927 -0.104 16.379 5.735 6.972 9.145 0.034 23.303 -11.373 23.21 -3.133 -0.027 -6.725 -0.886 -7.983 -1.909 z m 45.777 -0.333 c -4.69 -2.63 -7.615 -9.356 -6.97 -16.03 0.398 -4.122 1.415 -5.327 6.135 -7.26 4.59 -1.88 6.735 -1.985 11.363 -0.554 10.885 3.365 10.913 18.02 0.045 23.82 -5.219 2.785 -5.653 2.786 -10.573 0.026 z m -27.745 -40.514 c -2.089 -1.796 -5.695 -3 -8.97 -3 -12.594 0 -18.374 -16.965 -8.138 -23.885 3.039 -2.054 5.103 -2.28 10.66 -1.164 6.073 1.219 7.06 1.977 8.271 6.384 0.953 3.453 0.8 6.813 -0.494 10.858 -1.629 5.093 -1.54 6.383 0.685 9.887 3.033 4.776 2.663 4.946 -2.02 0.925 z m 25.573 -4.29 c -6.318 -4.065 -8.964 -11 -6.521 -17.09 4.565 -11.37 14.947 -13.821 23.06 -5.445 6.393 6.596 6.7 12.721 0.962 19.218 -5.271 5.969 -11.536 7.155 -17.506 3.314 z m 44.45 0.251 c -4.01 -0.823 -7.6 -12.494 -5.241 -17.04 1.759 -3.39 9.288 -9.406 11.773 -9.406 0.863 0 3.924 2.132 6.801 4.739 7.715 6.989 6.808 15.666 -2.139 20.439 -4.317 2.303 -5.501 2.437 -11.194 1.27 z m 1.155 -44.887 c -2.636 -2.542 -5.786 -6.604 -7 -9.03 -2.128 -4.246 -2.028 -4.601 2.766 -9.846 6.151 -6.729 12.547 -7.33 18.01 -1.693 5.57 5.747 4.787 11.242 -2.675 18.799 l -6.308 6.387 l -4.793 -4.621 z m -44.16 0.595 c -2.102 -0.427 -3.669 -2.531 -4.809 -6.458 -2.302 -7.928 -2.23 -8.394 2.14 -13.752 5.343 -6.552 11.717 -6.433 18.08 0.337 6 6.391 5.948 9.282 -0.302 15.73 -4.874 5.03 -7.369 5.713 -15.1 4.142 z"/></g><path d="m 99.83 160.76 c -4.474 -2.539 -8.07 -7.73 -8.106 -11.705 -0.036 -3.888 7.353 -12.479 10.733 -12.479 3.359 0 12.1 6.708 12.662 9.717 0.974 5.221 -1.333 10.241 -6.08 13.227 -5.513 3.468 -5.326 3.443 -9.209 1.24 z m 38.498 -4.586 c -2.617 -3.209 -3.662 -5.901 -3.111 -8.02 0.456 -1.752 0.838 -3.939 0.849 -4.861 0.011 -0.922 2.597 -2.876 5.747 -4.341 5.242 -2.439 6.103 -2.463 10.18 -0.288 7.367 3.931 8.589 12.472 2.659 18.591 -5.22 5.386 -11.381 4.977 -16.323 -1.084 z m -42.31 -43.911 c -5.092 -5.254 -5.434 -8.94 -1.327 -14.327 3.966 -5.202 7.728 -6.253 14 -3.912 6.394 2.386 8 8.42 4.525 16.976 -2.071 5.096 -2.907 5.726 -7.601 5.726 -3.855 0 -6.437 -1.2 -9.599 -4.463 z m 45.619 2.814 c -3.68 -2.212 -7.346 -10.185 -6.278 -13.656 1.243 -4.04 7.832 -9.125 11.825 -9.125 4.559 0 11.11 7.138 11.05 12.04 -0.054 4.622 -2.31 8.098 -6.885 10.612 -3.914 2.151 -6.297 2.182 -9.716 0.127 z m 40.995 -2.391 c -4.852 -5.402 -4.741 -11.838 0.287 -16.646 5.05 -4.83 9.512 -4.743 14.381 0.281 5.372 5.543 5.139 11.424 -0.652 16.452 -5.781 5.02 -9.45 4.996 -14.02 -0.087 z m 0.91 -44.718 c -3.31 -3.415 -6.02 -7.187 -6.02 -8.383 0 -3.596 8.793 -11.569 12.76 -11.569 5 0 10.918 6.437 10.918 11.879 0 4.088 -1.988 6.77 -9.15 12.343 -2.139 1.665 -3.341 1.061 -8.509 -4.271 z m -41.19 3.398 c -4.392 -0.871 -8.172 -9.775 -6.303 -14.847 1.64 -4.45 7.02 -8.502 11.291 -8.502 3.537 0 12.425 8.508 12.425 11.894 0 2.86 -9.521 12.592 -12.06 12.328 -1.099 -0.114 -3.507 -0.507 -5.352 -0.873 z" style="fill:#ffdead"/><path d="m 99.83 160.76 c -4.474 -2.539 -8.07 -7.73 -8.106 -11.705 -0.036 -3.888 7.353 -12.479 10.733 -12.479 3.359 0 12.1 6.708 12.662 9.717 0.974 5.221 -1.333 10.241 -6.08 13.227 -5.513 3.468 -5.326 3.443 -9.209 1.24 z m 41.806 -45.683 c -3.68 -2.212 -7.346 -10.185 -6.278 -13.656 1.243 -4.04 7.832 -9.125 11.825 -9.125 4.559 0 11.11 7.139 11.05 12.04 -0.054 4.622 -2.31 8.098 -6.885 10.612 -3.914 2.151 -6.297 2.182 -9.716 0.127 z" style="fill:#e9614c"/><path d="m 95.85 155.28 c -4.01 -4.822 -4.302 -6.346 -2.05 -10.84 3.539 -7.06 9.978 -8.412 15.375 -3.224 3.598 3.458 4.402 7.94 1.197 6.671 -2.288 -0.906 -8.73 6.614 -7.47 8.718 1.522 2.542 -4.827 1.349 -7.05 -1.325 z m 45.1 -43.16 c -6.886 -2.859 -6.04 -13.735 1.369 -17.69 4.237 -2.261 4.786 -2.225 8.404 0.552 3.799 2.915 6.716 11.06 3.146 8.781 -2.28 -1.454 -8.897 5.077 -7.889 7.787 0.895 2.406 -0.286 2.54 -5.03 0.57 z" style="fill:#f2603a"/></g></svg>