<svg xmlns="http://www.w3.org/2000/svg" viewBox="0 0 256 256"><g transform="translate(0 -796.36)"><path d="m -1374.42 1658.71 c 127.95 -192.46 -280.09 -311 -226.07 -62.2 23.02 102.82 167.39 165.22 226.07 62.2 z" transform="matrix(-1 0 0 -1 -1349.44 2507.85)" style="fill:#fff;color:#000"/><flowRoot line-height="125%" style="letter-spacing:0;word-spacing:0;font-size:40;font-family:Sans"><flowRegion><path d="m 97.47 125.7 h 17.677 v 50 h -17.677 z"/></flowRegion><flowPara/></flowRoot><path d="m 124.78 208.47 c 0 -0.245 -1.522 -0.412 -3.741 -0.412 -2.775 0 -3.9 -0.16 -4.359 -0.619 -0.382 -0.382 -1.394 -0.619 -2.651 -0.619 -1.118 0 -2.032 -0.186 -2.032 -0.412 0 -0.227 -0.649 -0.412 -1.443 -0.412 -1.01 0 -1.443 -0.187 -1.443 -0.619 0 -0.432 -0.435 -0.619 -1.443 -0.619 -0.794 0 -1.443 -0.186 -1.443 -0.412 0 -0.227 -0.557 -0.412 -1.237 -0.412 -0.68 0 -1.237 -0.186 -1.237 -0.412 0 -0.227 -0.557 -0.412 -1.237 -0.412 -0.825 0 -1.237 -0.206 -1.237 -0.619 0 -0.34 -0.278 -0.619 -0.619 -0.619 -0.34 0 -0.619 -0.186 -0.619 -0.412 0 -0.227 -0.464 -0.412 -1.031 -0.412 -0.641 0 -1.031 -0.234 -1.031 -0.619 0 -0.344 -0.367 -0.619 -0.825 -0.619 -0.454 0 -0.825 -0.186 -0.825 -0.412 0 -0.227 -0.278 -0.412 -0.619 -0.412 -0.34 0 -0.619 -0.173 -0.619 -0.385 0 -0.212 -0.418 -0.516 -0.928 -0.678 -0.51 -0.161 -1.228 -0.638 -1.595 -1.059 -0.367 -0.421 -0.798 -0.766 -0.957 -0.766 -0.16 0 -0.549 -0.232 -0.865 -0.515 -1.364 -1.224 -1.831 -1.546 -2.235 -1.546 -0.236 0 -0.43 -0.199 -0.43 -0.442 0 -0.571 -1.049 -1.62 -1.62 -1.62 -0.243 0 -0.442 -0.199 -0.442 -0.442 0 -0.481 -1.015 -1.62 -1.443 -1.62 -0.428 0 -1.443 -1.139 -1.443 -1.62 0 -0.243 -0.186 -0.442 -0.412 -0.442 -0.227 0 -0.412 -0.345 -0.412 -0.767 0 -0.422 -0.464 -1.115 -1.031 -1.541 -0.567 -0.426 -1.031 -1.01 -1.031 -1.295 0 -0.286 -0.278 -0.521 -0.619 -0.521 -0.344 0 -0.619 -0.367 -0.619 -0.825 0 -0.454 -0.165 -0.825 -0.368 -0.825 -0.202 0 -0.484 -0.464 -0.626 -1.031 -0.142 -0.567 -0.441 -1.031 -0.663 -1.031 -0.222 0 -0.404 -0.278 -0.404 -0.619 0 -0.34 -0.186 -0.619 -0.412 -0.619 -0.227 0 -0.412 -0.464 -0.412 -1.031 0 -0.567 -0.186 -1.031 -0.412 -1.031 -0.227 0 -0.412 -0.371 -0.412 -0.825 0 -0.458 -0.275 -0.825 -0.619 -0.825 -0.385 0 -0.619 -0.389 -0.619 -1.031 0 -0.567 -0.186 -1.031 -0.412 -1.031 -0.227 0 -0.412 -0.649 -0.412 -1.443 0 -1.01 -0.187 -1.443 -0.619 -1.443 -0.432 0 -0.619 -0.435 -0.619 -1.443 0 -0.794 -0.186 -1.443 -0.412 -1.443 -0.227 0 -0.412 -0.543 -0.412 -1.208 0 -0.664 -0.278 -1.486 -0.619 -1.826 -0.34 -0.34 -0.619 -1.188 -0.619 -1.885 v -1.266 h -8.453 h -8.453 v -8.865 v -8.865 h 6.598 c 5.417 0 6.598 -0.105 6.598 -0.584 0 -0.321 0.232 -0.692 0.515 -0.825 0.412 -0.192 0.412 -0.289 0 -0.481 -0.369 -0.172 -0.515 -1.595 -0.515 -4.997 v -4.757 l -6.598 0.168 l -6.598 0.168 v -8.984 v -8.984 h 7.628 h 7.628 v -1.443 c 0 -0.794 0.186 -1.443 0.412 -1.443 0.227 0 0.412 -0.928 0.412 -2.062 0 -1.134 0.186 -2.062 0.412 -2.062 0.227 0 0.412 -0.835 0.412 -1.856 0 -1.374 0.16 -1.856 0.619 -1.856 0.412 0 0.619 -0.412 0.619 -1.237 0 -0.68 0.186 -1.237 0.412 -1.237 0.227 0 0.412 -0.649 0.412 -1.443 0 -1.01 0.187 -1.443 0.619 -1.443 0.385 0 0.619 -0.389 0.619 -1.031 0 -0.567 0.186 -1.031 0.412 -1.031 0.227 0 0.412 -0.649 0.412 -1.443 0 -1.01 0.187 -1.443 0.619 -1.443 0.385 0 0.619 -0.389 0.619 -1.031 0 -0.567 0.186 -1.031 0.412 -1.031 0.227 0 0.412 -0.278 0.412 -0.619 0 -0.34 0.186 -0.619 0.412 -0.619 0.227 0 0.412 -0.371 0.412 -0.825 0 -0.458 0.275 -0.825 0.619 -0.825 0.385 0 0.619 -0.389 0.619 -1.031 0 -0.567 0.186 -1.031 0.412 -1.031 0.227 0 0.412 -0.193 0.412 -0.43 0 -0.485 0.521 -1.168 2.165 -2.838 0.624 -0.633 1.134 -1.456 1.134 -1.829 0 -0.372 0.186 -0.677 0.412 -0.677 0.227 0 0.412 -0.199 0.412 -0.442 0 -0.571 1.049 -1.62 1.62 -1.62 0.243 0 0.442 -0.199 0.442 -0.442 0 -0.481 1.015 -1.62 1.443 -1.62 0.428 0 1.443 -1.139 1.443 -1.62 0 -0.243 0.278 -0.442 0.619 -0.442 0.34 0 0.619 -0.139 0.619 -0.309 0.001 -0.527 1.925 -2.577 2.418 -2.577 0.257 0 0.467 -0.199 0.467 -0.442 0 -0.728 1.119 -1.62 2.032 -1.62 0.47 0 0.854 -0.186 0.854 -0.412 0 -0.227 0.278 -0.412 0.619 -0.412 0.34 0 0.619 -0.278 0.619 -0.619 0 -0.344 0.367 -0.619 0.825 -0.619 0.454 0 0.825 -0.186 0.825 -0.412 0 -0.227 0.278 -0.412 0.619 -0.412 0.34 0 0.619 -0.278 0.619 -0.619 0 -0.385 0.389 -0.619 1.031 -0.619 0.567 0 1.031 -0.186 1.031 -0.412 0 -0.227 0.464 -0.412 1.031 -0.412 0.567 0 1.031 -0.186 1.031 -0.412 0 -0.227 0.371 -0.412 0.825 -0.412 0.458 0 0.825 -0.275 0.825 -0.619 0 -0.385 0.389 -0.619 1.031 -0.619 0.567 0 1.031 -0.186 1.031 -0.412 0 -0.227 0.742 -0.412 1.649 -0.412 1.191 0 1.649 -0.172 1.649 -0.619 0 -0.432 0.435 -0.619 1.443 -0.619 0.794 0 1.443 -0.186 1.443 -0.412 0 -0.227 0.835 -0.412 1.856 -0.412 1.374 0 1.856 -0.16 1.856 -0.619 0 -0.495 0.619 -0.619 3.093 -0.619 1.787 0 3.093 -0.174 3.093 -0.412 0 -0.262 3.299 -0.412 9.07 -0.412 5.773 0 9.07 0.15 9.07 0.412 0 0.246 1.581 0.412 3.917 0.412 3.207 0 3.917 0.112 3.917 0.619 0 0.467 0.504 0.619 2.062 0.619 1.134 0 2.062 0.186 2.062 0.412 0 0.227 0.835 0.412 1.856 0.412 1.374 0 1.856 0.16 1.856 0.619 0 0.447 0.458 0.619 1.649 0.619 0.907 0 1.649 0.186 1.649 0.412 0 0.227 0.649 0.412 1.443 0.412 1.01 0 1.443 0.187 1.443 0.619 0 0.34 0.186 0.619 0.412 0.619 0.227 0 0.412 0.557 0.412 1.237 0 0.68 -0.186 1.237 -0.412 1.237 -0.229 0 -0.412 1.1 -0.412 2.474 0 1.924 -0.137 2.474 -0.619 2.474 -0.467 0 -0.619 0.504 -0.619 2.062 0 1.134 -0.186 2.062 -0.412 2.062 -0.227 0 -0.412 0.848 -0.412 1.885 0 1.126 -0.249 2.134 -0.619 2.504 -0.382 0.382 -0.619 1.394 -0.619 2.651 0 1.757 -0.112 2.032 -0.825 2.032 -0.454 0 -0.825 -0.186 -0.825 -0.412 0 -0.227 -0.649 -0.412 -1.443 -0.412 -1.01 0 -1.443 -0.187 -1.443 -0.619 0 -0.447 -0.458 -0.619 -1.649 -0.619 -0.907 0 -1.649 -0.186 -1.649 -0.412 0 -0.227 -0.815 -0.412 -1.811 -0.412 -1.23 0 -1.888 -0.199 -2.049 -0.619 -0.18 -0.469 -0.94 -0.619 -3.137 -0.619 -1.658 0 -2.899 -0.177 -2.899 -0.412 0 -0.261 -2.955 -0.412 -8.04 -0.412 -5.086 0 -8.04 0.152 -8.04 0.412 0 0.229 -1.1 0.412 -2.474 0.412 -1.924 0 -2.474 0.137 -2.474 0.619 0 0.447 -0.458 0.619 -1.649 0.619 -0.907 0 -1.649 0.186 -1.649 0.412 0 0.227 -0.649 0.412 -1.443 0.412 -1.01 0 -1.443 0.187 -1.443 0.619 0 0.385 -0.389 0.619 -1.031 0.619 -0.567 0 -1.031 0.186 -1.031 0.412 0 0.227 -0.384 0.412 -0.854 0.412 -0.47 0 -1.113 0.232 -1.429 0.515 -1.249 1.12 -1.816 1.546 -2.059 1.546 -0.419 0 -1.431 1.146 -1.431 1.62 0 0.243 -0.278 0.442 -0.619 0.442 -0.34 0 -0.619 0.173 -0.619 0.385 0 0.212 -0.377 0.504 -0.838 0.651 -1.313 0.417 -2.873 2.064 -2.873 3.03 0 0.484 -0.199 0.88 -0.442 0.88 -0.481 0 -1.62 1.015 -1.62 1.443 0 0.146 -0.232 0.524 -0.515 0.84 -1.316 1.468 -1.546 1.862 -1.546 2.648 0 0.474 -0.271 0.842 -0.619 0.842 -0.385 0 -0.619 0.389 -0.619 1.031 0 0.567 -0.186 1.031 -0.412 1.031 -0.227 0 -0.412 0.464 -0.412 1.031 0 0.567 -0.186 1.031 -0.412 1.031 -0.227 0 -0.412 0.384 -0.412 0.854 0 0.47 -0.278 1.132 -0.619 1.473 -0.34 0.34 -0.619 1.347 -0.619 2.238 0 0.891 -0.186 1.62 -0.412 1.62 -0.227 0 -0.412 0.634 -0.412 1.409 0 0.775 -0.232 1.517 -0.515 1.649 -0.412 0.192 -0.412 0.289 0 0.481 0.283 0.132 0.515 0.503 0.515 0.825 0 0.321 0.186 0.584 0.412 0.584 0.227 0 0.412 -0.186 0.412 -0.412 0 -0.271 8.934 -0.412 25.978 -0.412 h 25.978 v 1.856 c 0 1.021 -0.186 1.856 -0.412 1.856 -0.259 0 -0.412 2.612 -0.412 7.01 v 7.01 h -11.34 c -7.285 0 -11.34 0.147 -11.34 0.412 0 0.268 -5.498 0.412 -15.669 0.412 -13.653 0 -15.669 0.08 -15.669 0.619 0 0.34 -0.186 0.619 -0.412 0.619 -0.227 0 -0.412 0.464 -0.412 1.031 0 0.567 0.186 1.031 0.412 1.031 0.243 0 0.412 1.443 0.412 3.505 v 3.505 h 18.556 h 18.556 v 8.865 v 8.865 h -15.205 c -8.363 0 -15.785 0.116 -16.494 0.258 -1.138 0.228 -1.289 0.421 -1.289 1.649 0 0.765 0.186 1.392 0.412 1.392 0.227 0 0.412 0.464 0.412 1.031 0 0.567 0.186 1.031 0.412 1.031 0.227 0 0.412 0.464 0.412 1.031 0 0.641 0.234 1.031 0.619 1.031 0.351 0 0.619 0.37 0.619 0.854 0 0.913 0.892 2.032 1.62 2.032 0.243 0 0.442 0.384 0.442 0.854 0 0.913 0.892 2.032 1.62 2.032 0.243 0 0.442 0.237 0.442 0.527 0 0.29 0.371 0.795 0.825 1.122 0.454 0.327 0.825 0.832 0.825 1.122 0 0.29 0.237 0.527 0.527 0.527 0.29 0 0.795 0.371 1.122 0.825 0.327 0.454 0.832 0.825 1.122 0.825 0.29 0 0.527 0.278 0.527 0.619 0 0.34 0.278 0.619 0.619 0.619 0.34 0 0.619 0.186 0.619 0.412 0 0.227 0.371 0.412 0.825 0.412 0.458 0 0.825 0.275 0.825 0.619 0 0.34 0.278 0.619 0.619 0.619 0.34 0 0.619 0.186 0.619 0.412 0 0.227 0.464 0.412 1.031 0.412 0.567 0 1.031 0.16 1.031 0.356 0 0.416 3.205 1.705 4.24 1.705 0.389 0 0.708 0.186 0.708 0.412 0 0.229 1.1 0.412 2.474 0.412 1.924 0 2.474 0.137 2.474 0.619 0 0.512 0.779 0.619 4.536 0.619 2.749 0 4.536 0.162 4.536 0.412 0 0.227 1.021 0.412 2.268 0.412 1.247 0 2.268 -0.186 2.268 -0.412 0 -0.251 1.846 -0.412 4.713 -0.412 3.639 0 4.853 -0.141 5.331 -0.619 0.402 -0.402 1.424 -0.619 2.916 -0.619 1.264 0 2.297 -0.186 2.297 -0.412 0 -0.227 0.742 -0.412 1.649 -0.412 0.907 0 1.649 -0.186 1.649 -0.412 0 -0.227 0.649 -0.412 1.443 -0.412 1.01 0 1.443 -0.187 1.443 -0.619 0 -0.432 0.435 -0.619 1.443 -0.619 0.794 0 1.443 -0.186 1.443 -0.412 0 -0.227 0.451 -0.412 1 -0.412 0.551 0 1.28 -0.278 1.62 -0.619 0.928 -0.928 1.09 -0.775 1.09 1.031 0 1.191 0.172 1.649 0.619 1.649 0.491 0 0.619 0.596 0.619 2.886 0 1.649 0.177 2.886 0.412 2.886 0.236 0 0.412 1.241 0.412 2.899 0 2.197 0.15 2.957 0.619 3.137 0.467 0.179 0.619 0.934 0.619 3.08 0 2.252 -0.129 2.842 -0.619 2.842 -0.34 0 -0.619 0.186 -0.619 0.412 0 0.227 -0.464 0.412 -1.031 0.412 -0.641 0 -1.031 0.234 -1.031 0.619 0 0.412 -0.412 0.619 -1.237 0.619 -0.68 0 -1.237 0.186 -1.237 0.412 0 0.227 -0.742 0.412 -1.649 0.412 -0.907 0 -1.649 0.186 -1.649 0.412 0 0.227 -0.915 0.412 -2.032 0.412 -1.257 0 -2.268 0.236 -2.651 0.619 -0.369 0.369 -1.378 0.619 -2.504 0.619 -1.037 0 -1.885 0.186 -1.885 0.412 0 0.238 -1.306 0.412 -3.093 0.412 -2.474 0 -3.093 0.124 -3.093 0.619 0 0.511 -0.756 0.619 -4.33 0.619 -2.612 0 -4.33 0.164 -4.33 0.412 0 0.253 -1.993 0.412 -5.154 0.412 -3.161 0 -5.154 -0.159 -5.154 -0.412 z" transform="translate(0 796.36)" style="fill:#ff4500;fill-rule:evenodd"/></g></svg>