<svg xmlns="http://www.w3.org/2000/svg" viewBox="0 0 256 256"><g transform="translate(0 -796.36)"><path d="m 52.774 1027.39 c 192.46 127.95 311 -280.09 62.2 -226.07 -102.82 23.02 -165.22 167.39 -62.2 226.07 z" style="fill:#fff;color:#000"/><g transform="matrix(3.1875 0 0 3.32955 54.75 -2493.21)" style="fill:#ff4500"><rect y="1008.36" x="4" height="40" width="40" rx="1.945" style="stroke-width:1"/><g transform="translate(0 1004.36)" style="fill:#ffdead"><path d="M 4,16 H44 V18 H4 z" style="opacity:0.75"/><path d="M 4,30 H44 V32 H4 z" style="opacity:0.75"/></g><path d="m 6 1048.36 c 18 -1 18 -1 36 0 z" style="opacity:0.5"/><path d="m 6 1008.36 c 18 1 18 1 36 0 z" style="opacity:0.9"/><g style="fill:#ffdead"><path transform="translate(0 1004.36)" d="m 5,6 0,9 6,0 -5,-1 z"/><path d="m 5 1024.36 v 9 h 6 l -5 -1 z"/><path d="m 5 1038.36 v 8 c 0 1 1 1 1 1 h 5 l -5 -1 z"/></g></g></g></svg>