<svg xmlns="http://www.w3.org/2000/svg" viewBox="0 0 256 256"><g transform="translate(0 -796.36)" style="color:#000"><path d="m 26.683 856.15 c -84.46 95.24 48.767 241.79 160.27 182.53 112.74 -59.906 82.69 -258.16 -55.767 -241.3 -41.2 5.02 -76.954 27.695 -104.51 58.764 z" style="fill:#fff"/><rect rx="18.481" y="880.81" x="-134.52" height="104.29" width="155.77" transform="matrix(0.98056 -0.1962 0.1962 0.98056 0 0)" style="fill:#ff4500"/><g transform="matrix(0.98015 -0.19827 0.19827 0.98015 -180.66 42.467)" style="fill:#ffa07a"><rect width="21.07" height="21.07" x="62.5" y="890.58" rx="10.535"/><rect rx="10.535" y="890.58" x="89.29" height="21.07" width="21.07"/><rect width="21.07" height="21.07" x="116.07" y="890.58" rx="10.535"/><rect rx="10.535" y="890.58" x="142.86" height="21.07" width="21.07"/><rect width="21.07" height="21.07" x="169.64" y="890.58" rx="10.535"/><rect rx="10.535" y="916.65" x="62.5" height="21.07" width="21.07"/><rect width="21.07" height="21.07" x="89.29" y="916.65" rx="10.535"/><rect rx="10.535" y="916.65" x="116.07" height="21.07" width="21.07"/><rect width="21.07" height="21.07" x="142.86" y="916.65" rx="10.535"/><rect rx="10.535" y="916.65" x="169.64" height="21.07" width="21.07"/><rect width="21.07" height="21.07" x="62.5" y="947" rx="10.535"/><rect ry="10.09" rx="10.536" y="947.25" x="89.54" height="20.824" width="74.39"/><rect width="21.07" height="21.07" x="169.64" y="947" rx="10.535"/></g></g></svg>