<svg xmlns="http://www.w3.org/2000/svg" xmlns:xlink="http://www.w3.org/1999/xlink" viewBox="0 0 256 256"><defs><clipPath id="0"><path d="m -24 13 c 0 1.105 -0.672 2 -1.5 2 -0.828 0 -1.5 -0.895 -1.5 -2 0 -1.105 0.672 -2 1.5 -2 0.828 0 1.5 0.895 1.5 2 z" transform="matrix(15.33333 0 0 11.5 415 -125.5)"/></clipPath></defs><g transform="matrix(-1 0 0 -1 256 1052.36)"><path d="m 231.03 849.97 c 127.95 187.57 -280.09 303.09 -226.07 60.62 23.02 -100.21 167.39 -161.02 226.07 -60.62 z" style="fill:#fff;color:#000"/><g transform="matrix(-5.81767 0 0 6.36487 292.5 758.2)" style="clip-path:url(#0);fill:#ff4500"><path d="m 12.522,23.274 c 0.44,3.349 3.8,5.713 7.504,5.273 1.157,-0.138 2.213,-0.537 3.101,-1.114 0.004,-0.004 0.013,0.002 0.017,-0.002 l 13.909,9.777 2.684,-0.319 -0.319,-2.43 -1,-0.701 -1.789,0.213 -0.213,-1.619 -0.998,-0.705 -0.213,-1.619 -1,-0.698 -1.789,0.213 -0.998,-0.705 -0.213,-1.619 -1.789,0.213 -3.907,-2.745 c 0,-0.004 -0.006,-0.015 -0.003,-0.019 0.404,-0.921 0.563,-1.944 0.426,-2.988 -0.44,-3.345 -3.797,-5.718 -7.5,-5.277 l -0.028,0.003 c -3.697,0.455 -6.322,3.524 -5.883,6.869 m 3.422,-1.635 c -0.117,-0.892 0.591,-1.711 1.576,-1.832 0.99,-0.118 1.884,0.514 2,1.406 0.117,0.892 -0.586,1.714 -1.576,1.832 -0.986,0.117 -1.884,-0.514 -2,-1.406" id="1" style="fill:#ff4500"/></g><g transform="matrix(0.82353 0.09512 0.08793 -0.87118 -73.19 1811.41)" style="fill:#ff4500"><g transform="matrix(-6.24077 0 0 -6.60375 280.4 1227.59)" style="clip-path:url(#0)"><use xlink:href="#1" width="256" height="256"/></g><path d="m 175.09 1077.61 c 3.669 2.237 4.996 4.572 4.996 8.79 0 4.239 -2.953 7.862 -7.523 9.232 -6.67 1.998 -13.16 -2.653 -13.16 -9.431 0 -4.274 2.137 -7.414 6.204 -9.113 4.181 -1.747 5.919 -1.651 9.484 0.523 z" style="fill:#fff"/></g></g></svg>