<svg xmlns="http://www.w3.org/2000/svg" viewBox="0 0 256 256"><g transform="translate(0 -796.36)"><path d="m 60.32 823.45 c 94.48 -84.12 239.87 48.573 181.08 159.63 -59.43 112.29 -256.11 82.36 -239.38 -55.55 4.98 -41.04 27.475 -76.65 58.3 -104.09 z" style="fill:#fff;color:#000"/><rect width="46.33" height="36.27" x="2" y="12.311" rx="1.204" transform="matrix(3.64605 -1.20311 1.20526 3.65257 0.968 846.44)" style="fill:#ffdead"/><g transform="matrix(1.96833 0 0 2.0213 73.43 863.22)" style="fill:#ff4500"><g style="color:#000"><path d="m 48 16 l -4.625 17.15 c -1.75 0.543 -3.372 1.388 -4.813 2.472 l -7.531 -4.174 l 4.063 7.738 c -1.056 1.48 -1.877 3.147 -2.406 4.945 l -16.688 4.752 l 16.688 4.752 c 0.529 1.798 1.35 3.465 2.406 4.945 l -4.063 7.738 l 7.531 -4.174 c 1.44 1.085 3.062 1.929 4.813 2.472 l 4.625 17.15 l 4.625 -17.15 c 1.75 -0.543 3.372 -1.388 4.813 -2.472 l 7.531 4.174 l -4.063 -7.738 c 1.056 -1.48 1.877 -3.147 2.406 -4.945 l 16.688 -4.752 l -16.688 -4.752 c -0.529 -1.798 -1.35 -3.465 -2.406 -4.945 l 4.063 -7.738 l -7.531 4.174 c -1.44 -1.085 -3.062 -1.929 -4.813 -2.472 l -4.625 -17.15 z m 0 20.55 c 6.627 0 12 5.52 12 12.33 0 6.81 -5.373 12.33 -12 12.33 -6.627 0 -12 -5.52 -12 -12.33 0 -6.81 5.373 -12.33 12 -12.33 z" style="opacity:0.3"/><path d="m 48 16 l -4.625 16.688 c -1.75 0.529 -3.372 1.35 -4.813 2.406 l -7.531 -4.063 l 4.063 7.531 c -1.056 1.44 -1.877 3.062 -2.406 4.813 l -16.688 4.625 l 16.688 4.625 c 0.529 1.75 1.35 3.372 2.406 4.813 l -4.063 7.531 l 7.531 -4.063 c 1.44 1.056 3.062 1.877 4.813 2.406 l 4.625 16.688 l 4.625 -16.688 c 1.75 -0.529 3.372 -1.35 4.813 -2.406 l 7.531 4.063 l -4.063 -7.531 c 1.056 -1.44 1.877 -3.062 2.406 -4.813 l 16.688 -4.625 l -16.688 -4.625 c -0.529 -1.75 -1.35 -3.372 -2.406 -4.813 l 4.063 -7.531 l -7.531 4.063 c -1.44 -1.056 -3.062 -1.877 -4.813 -2.406 l -4.625 -16.688 z m 0 20 c 6.627 0 12 5.373 12 12 0 6.627 -5.373 12 -12 12 -6.627 0 -12 -5.373 -12 -12 0 -6.627 5.373 -12 12 -12 z"/></g><g style="fill-rule:evenodd"><path d="M 74.15625,22.875 44.5,45.53125 21.84375,75.1875 51.5,52.53125 74.15625,22.875 z" style="opacity:0.3"/><g transform="matrix(0.70711 0.70711 -0.70711 0.70711 48.02 -19.873)"><g transform="matrix(0.98984 0 0 0.77049 -15.35 -1.283)"><path d="m 69,64 -10,0 5,-48 5,48 z"/><path d="m 69 64 h -10 l 5 48 l 5 -48 z"/></g><path d="m 65.5 63.921 a 1.74 1.74 0 1 1 -3.481 0 1.74 1.74 0 1 1 3.481 0 z" transform="matrix(0.88541 0 0 0.88541 -8.457 -8.567)"/></g></g></g><path d="m 85.74 872.3 c 4.401 2.516 3.24 9.422 8.156 7.795 3.276 1.986 -4.528 2.342 1.338 2.811 3.591 0.954 -2.208 3.995 2.032 4.527 -3.696 3.134 3.65 9.09 7.414 9.968 6.338 1.894 -0.085 -8.248 5.545 -10.671 2.231 -3.923 7.184 -7.56 10.19 -11.748 -3.931 0.971 -6.796 -0.254 -3.531 -2.615 8.481 3.433 0.845 -3.171 -3.283 -3.289 3.301 -2.068 7.01 -2.502 5.751 -4.744 3.084 -3.457 -4.598 -1.815 -7.096 -0.461 -8.839 2.809 -17.677 5.618 -26.516 8.428 z m -54.38 19.84 c -4.501 2.663 -1.854 12.165 1.37 5.397 0.517 -2.523 5.233 -6.864 -1.37 -5.397 z m 22.796 -6.886 c -1.67 4.443 2.441 6.273 3.393 1.199 1.074 -2.334 -1.861 -1.613 -3.393 -1.199 z m 7.25 -1.425 c -4.765 3.749 0.816 7.185 1.284 8.195 6.206 -0.216 8.536 -3.862 12.13 -0.037 6.226 0.806 2.094 6.958 0.422 8.75 2.845 -3.75 12.947 3.621 9.486 -0.869 -2.618 -0.602 6.583 0.212 1.024 -2.682 -5.485 -3.824 -0.412 -2.362 1.598 -1.701 4.278 -5.803 -7.729 -2.524 -6.091 -7.618 -3.133 -0.876 -8.169 -4.943 -12.441 -2.478 -2.051 4.194 -2.652 -6.874 -5.535 -0.324 0.676 2.935 1.978 6.517 -0.911 1.979 -1.156 -0.588 0.598 -3.366 -0.963 -3.216 z m -11.02 3.543 c -3.32 2.134 -1.863 6.04 2.738 5.05 1.081 -1.897 -1.016 -5.302 -2.738 -5.05 z m -13.768 5.774 c -4.429 2.404 -1.526 4.87 0.194 5.278 -5.462 3.039 9.393 -1.32 2.291 1.763 -5.48 3.915 7.248 2.431 8.471 -0.535 8.02 -0.904 -1.282 -4.973 -3.043 -8.221 -4.08 -1.761 1.909 6.442 -2.923 1.255 -0.432 2.134 -4.131 1.607 -4.99 0.46 z m 150 -47.24 c -5.692 4.02 6.975 8.32 2.237 2.248 -0.518 -0.75 -0.391 -3.209 -2.237 -2.248 z m -131.19 45.05 c -3.448 4.905 7.79 4.483 1.522 9.312 -2.084 -2.875 -2.38 2.526 -7.259 1.22 -6.224 4.564 -10.924 2.125 -17.538 1.531 -3.617 0.761 -1.331 3.391 -0.656 6.319 2.507 7.889 5.01 15.778 7.522 23.667 4.367 1.834 1.751 0.865 0.154 0.484 3.539 4.6 3.237 13.06 11.633 13.726 1.867 1.496 9.74 7.894 9.216 5.398 -3.375 -1.409 -8.251 -7.298 -1.838 -2.706 5.849 4.443 12.465 6.428 20.84 5.267 4.722 -0.185 9.598 2.789 13.13 0.672 3.623 3.92 -3.528 11.06 4.523 13.236 4.873 3.24 11.639 4.231 10.407 11.346 -0.323 6.669 2.692 12.866 2.54 19.03 0.48 3.572 9.628 10.116 6.887 3.419 0.356 -5.373 -1.364 -10.614 1.976 -15.401 6.05 -1.881 -0.516 -5.624 5.7 -6.838 2.425 -5.04 2.01 -10.01 7.698 -13.516 -0.76 -4.946 6.476 -15.191 -3.952 -13.897 -3.01 -0.217 -10.03 1.589 -9.667 0.895 -0.419 -5.01 -10.817 -3.175 -15.669 -3.739 -6.59 -1.43 -12.255 9.751 -16.551 3.034 -1.906 -1.937 -6.2 -0.613 -5.365 -4.803 -2.64 3.983 -9.854 5.321 -9.79 -0.772 1.283 -5.521 11.807 -9.108 15.388 -4.096 -4.465 -5.365 1.362 -12.497 4.05 -18.18 0.165 -2.359 4.53 -5.729 3.716 -2.404 2.868 -1 5.911 -6.627 1.389 -3.041 -1.298 -3.833 -5.383 -1.327 -6.646 -0.323 1.576 -4.269 15.852 -6.746 8.345 -10.519 -4.902 -0.045 -7.233 -8.658 -10.219 -2.498 -0.549 -3.036 -11.881 -5.72 -10.119 -0.896 2.553 4.01 3.205 9.349 1.645 13 -2.554 -6.248 -15.615 -0.537 -16.05 -7.922 1.482 -4.056 2.991 -9.495 3.4 -9.178 4.067 -2.827 6.406 -8.03 0.331 -9.04 0.459 2.412 -1.67 8.365 -2.998 2.405 -2.35 4.32 -4.251 -4.335 -7.695 -4.2 z m 108.66 -32.06 c -7.423 4.086 -8.617 11.209 -10.924 17.526 -5.107 3.944 -2.01 12.927 3.525 7.985 2.503 1.893 0.791 6.674 4.807 1.883 2.677 -5.636 -2.906 -11.602 3.128 -16.538 1.18 1.971 -3.164 12.11 4.45 8.253 7.329 -2.086 -5.091 2.263 -0.368 4.894 -4.228 -0.596 -0.233 5.371 -5.507 5.363 -3.568 3.145 -7.137 1.335 -7.118 -1.896 -2.773 2.578 2.898 5.561 -2.684 7.623 -0.11 4.05 -10.719 6.817 -3.605 8.645 4.391 4.689 -9.706 3.466 -4.064 8.975 5.108 5.597 8.671 -5.149 10.707 -7.653 3.971 -4.692 14 1.398 9.636 3.13 4.833 -2.135 2.58 -5.661 -1.905 -5.878 -3.611 -3.859 7.566 0.051 7.79 2.489 4.717 3.813 0.302 -5.536 4.916 -2.242 1.071 4.681 13.374 -3.07 8.819 4.778 -5.22 2.647 -11.289 2.323 -15.612 5.14 -4.421 1.372 -5.412 -2.515 -7.322 -2.959 -5.494 2.152 -12.441 4.315 -15.03 9.177 -2.628 5.802 -6.482 13.97 -0.224 18.323 7.144 7.127 15.559 -4.458 23.477 -1.424 2.545 1.505 -0.165 5.117 4.756 6.06 3.121 4.348 1.212 10.02 6.565 13.427 3.392 3.722 6.711 9.852 12.91 3.495 6.678 -6.36 2.319 -12.786 7.59 -18.788 -7.727 -6.441 2.617 -13.63 3.394 -21.1 -6.02 2.728 -13.191 -0.547 -16.316 -5.145 -3.411 -1.632 -3.89 -5.484 0.517 -1.783 5.04 1.881 8.108 11.239 14.03 4.04 3.044 -2.239 10.958 -9.603 2.899 -9.249 -3.892 4.325 -12.725 -5.182 -3.638 -0.927 5.664 0.13 9.573 0.039 7.725 -5.776 -4.979 -15.665 -10.03 -31.542 -15.04 -47.31 -1.173 1.821 -4.487 5.55 -7.06 4.591 -3.422 1.528 -6.331 8.607 -6.933 2.849 -3.138 0.815 0.988 5.02 -3.206 6.508 0.392 2.711 -4.13 1.838 -1.905 3.824 -3.518 -0.763 -7.75 -5.355 -0.812 -3.833 8.03 -4.881 -7.928 -5.057 -9.409 -5.855 1.759 -0.959 -2.657 -1.296 -2.961 -0.617 z m -71.39 24.25 c -2.276 2.875 6.246 0.571 0 0 z m -38.37 13.353 c -2.369 3.774 5.963 0.882 0 0 z m 19.656 -3.251 c -1.42 4.03 4.01 0.049 0 0 z m 54.949 -13.23 c -2.022 3.59 -6.889 1.414 -6.22 3.735 0.742 0.53 4.405 4.829 7.81 -0.285 2.186 -1.616 0.55 -3.419 -1.59 -3.45 z m -60.663 21.04 c -4.225 5.584 10.592 1.265 1.295 0.075 l -1.295 -0.075 z m 75.28 -12.181 c -3.265 3.318 3.938 5.87 2.627 8.562 -1.357 4.248 9.06 -3.148 1.986 -3.946 -1.197 -2.236 -5.305 -4.123 -4.614 -4.616 z m -1.32 5.01 c -5.069 2.988 1.209 8.104 1.212 1.405 -0.003 -0.387 -0.264 -1.72 -1.212 -1.405 z m -42.28 18.593 c -4.193 4.423 0.993 5.859 4.318 3.412 -1.303 -1.45 -3.78 -1.838 -4.318 -3.412 z m 97.56 -25.815 c 2.867 0.23 -3.758 4.285 1.373 4.663 3.45 1.679 4.171 7.408 -1.351 4.946 -0.559 -4.53 -8.21 -5.615 -0.022 -9.609 z m -13.04 4.184 c 0.529 2.857 9.554 4.69 0.846 5.923 -4.239 1.804 -10.952 3.362 -6.846 -2.796 1.471 -1.398 7.235 0.912 3.74 -1.849 0.829 -0.311 1.532 -0.818 2.26 -1.278 z m -23.357 13.976 c -2.66 2.676 3.138 2.236 0 0 z m -75.13 40.937 c -0.076 1.622 11.01 -0.283 2.944 -0.279 l -1.191 0.036 l -1.753 0.243 z m 8.909 -0.555 c -2.38 3.671 6.888 -1.319 0 0 z m 115.44 -9.964 c -6.953 2.371 -1.378 16.688 0.753 6.491 -0.134 -2.023 0.934 -5.089 -0.753 -6.491 z" style="fill:#ff4500;opacity:0.5"/></g></svg>