<svg xmlns="http://www.w3.org/2000/svg" viewBox="0 0 256 256" xmlns:xlink="http://www.w3.org/1999/xlink"><g transform="matrix(0.87102 0.46369 -0.45586 0.886 440.04 -750.33)" style="fill:#fff"><path d="m 109.48 802.15 c 132.54 -26.767 203.86 154.62 91.82 226.1 -88.46 63.937 -207.42 -9.953 -203.46 -98.58 -3.729 -57.05 43.59 -121.2 111.64 -127.52 z" style="fill:#fff;color:#000"/><g transform="matrix(0.34791 -0.18208 0.17601 0.33631 -6.337 885.94)"><path transform="matrix(0.88384 0 0 0.99432 521.19 -14.888)" d="m -84.61 273.36 c 0 105.44 -96.16 190.92 -214.78 190.92 -118.62 0 -214.78 -85.48 -214.78 -190.92 0 -105.44 96.16 -190.92 214.78 -190.92 118.62 0 214.78 85.48 214.78 190.92 z" style="fill:#ff4500;stroke:#ffdead;stroke-width:18.13"/><path transform="matrix(0 6.33514 -7.19877 0 370.44 223.78)" d="M 16 10 2 10 2 22 16 22 16 30 30 16 16 2" id="0" style="fill:#ffdead"/><use transform="matrix(-1 0 0 -1 510.51 513.41)" xlink:href="#0"/></g></g></svg>