<svg xmlns="http://www.w3.org/2000/svg" viewBox="0 0 256 256"><g transform="translate(0 -796.36)"><path d="m 231.03 849.14 c 127.95 192.46 -280.09 311 -226.07 62.2 23.02 -102.82 167.39 -165.22 226.07 -62.2" style="fill:#fff;color:#000"/><path d="m 113.67 999.96 c -15.717 -1.154 -19.545 -2.816 -9.864 -4.284 10.03 -1.52 77.14 -1.226 80.14 0.352 2.413 1.27 2.385 1.389 -0.659 2.86 -3.902 1.884 -49.08 2.58 -69.61 1.072 z m 59.13 -12.04 c -1.117 -0.786 -3.709 -3.41 -5.76 -5.831 -3.39 -4 -4.297 -4.401 -9.986 -4.401 -7.762 0 -12.618 -3.088 -14.466 -9.197 -1.154 -3.815 -2.3 -4.768 -8.931 -7.421 -4.184 -1.674 -9.09 -3.36 -10.903 -3.746 -2.663 -0.567 -5.653 -3.528 -10.03 -9.939 -0.141 -0.206 -1.488 0.31 -2.993 1.147 -2.08 1.157 -3.652 1.214 -6.55 0.241 -4.273 -1.436 -10.04 0.091 -13.216 3.502 -0.995 1.067 -2.831 1.94 -4.08 1.94 -2.654 0 -6.624 -3.554 -6.66 -5.961 -0.014 -0.918 -2.582 -5.893 -5.707 -11.06 l -5.682 -9.389 l -10.139 0.333 c -8.29 0.272 -10.286 -0.01 -10.945 -1.537 -1.771 -4.108 11.333 -12.678 21.626 -14.14 4.594 -0.654 5.522 -0.365 8.06 2.507 1.578 1.785 3.243 4.576 3.701 6.201 0.458 1.625 2.32 4.094 4.138 5.486 l 3.305 2.531 l 5.074 -2.957 c 3.476 -2.026 4.856 -3.571 4.38 -4.905 -0.382 -1.071 0.414 -3.219 1.769 -4.773 1.355 -1.554 2.788 -5.05 3.185 -7.758 0.397 -2.713 1.969 -6.492 3.493 -8.397 1.524 -1.905 2.771 -4.506 2.771 -5.78 0 -4.303 3.268 -5.461 11.04 -3.912 4.957 0.988 8.04 1.039 10.587 0.178 1.976 -0.669 5.966 -1.216 8.868 -1.216 4.977 0 5.252 -0.182 4.858 -3.228 -0.302 -2.339 -1.255 -3.333 -3.461 -3.612 -2.441 -0.308 -2.964 -1.01 -2.637 -3.521 0.36 -2.775 1.045 -3.178 5.933 -3.494 5.146 -0.333 5.553 -0.614 5.933 -4.094 0.366 -3.356 0.938 -3.813 5.609 -4.483 2.861 -0.41 6.845 -0.326 8.855 0.187 2.746 0.701 4.454 0.373 6.873 -1.321 4.394 -3.077 5.62 -2.886 12.175 1.895 7.441 5.428 8.724 10.443 4.447 17.384 -4.03 6.54 -6.533 8.982 -9.204 8.982 -1.226 0 -3.272 1.027 -4.547 2.281 -1.275 1.255 -3.823 2.443 -5.661 2.641 -5.12 0.551 -8.332 6.716 -6.622 12.712 1.823 6.392 4.971 6.098 12.876 -1.202 7.17 -6.622 10.45 -7.254 14.407 -2.776 4.964 5.617 2.741 12.165 -4.13 12.165 -3.293 0 -5.92 1.536 -12.93 7.56 -12.26 10.536 -17.941 11.501 -21.616 3.671 l -1.938 -4.129 l -5.03 1.84 c -7.338 2.686 -7.618 3.288 -3.842 8.235 1.887 2.472 3.431 5.133 3.431 5.913 0 0.78 2.952 3.634 6.56 6.343 3.608 2.708 6.918 5.927 7.355 7.153 0.437 1.226 5.102 5.115 10.367 8.643 10.236 6.858 15.944 8.105 21.13 4.616 3.36 -2.263 8.524 -2.201 9.522 0.113 1.671 3.878 -14.741 19.348 -20.424 19.252 -1.213 -0.021 -3.119 -0.681 -4.236 -1.467 z m -49.12 -73.904 c 4.645 -4.54 5.934 -7.58 3.559 -8.392 -1.134 -0.387 -3.1 -0.704 -4.37 -0.704 -2.745 0 -11.157 8.899 -9.994 10.573 1.48 2.131 8.03 1.236 10.805 -1.477 z m 46.09 -28.17 c -0.366 -0.807 -0.665 -0.147 -0.665 1.467 0 1.614 0.299 2.274 0.665 1.467 0.366 -0.807 0.366 -2.127 0 -2.934 z" transform="translate(-8.185 -5.88)" style="fill:#ff4500"/></g></svg>