<svg xmlns="http://www.w3.org/2000/svg" viewBox="0 0 256 256"><g transform="translate(0 -796.36)"><path d="m -1374.42 1658.71 c 127.95 -192.46 -280.09 -311 -226.07 -62.2 23.02 102.82 167.39 165.22 226.07 62.2 z" transform="matrix(0 1 -1 0 1711.48 2401.81)" style="fill:#fff;color:#000"/><path d="m 126.43 855.45 c -23.662 0 -42.712 14.807 -42.712 33.2 v 23.809 h -9.763 v 75.25 h 110.02 v -75.25 h -9.04 v -23.809 c 0 -18.392 -19.05 -33.2 -42.712 -33.2 z m 1.529 14.535 h 3.52 c 14.376 0 25.922 11.1 25.95 24.897 l 0.037 17.576 h -55.42 l -0.037 -17.576 c -0.029 -13.793 11.575 -24.897 25.95 -24.897 z m 2.387 61.864 c 6.752 0.199 12.1 4.508 12.11 9.76 -0.006 3.491 -2.407 6.715 -6.298 8.458 l 3.446 10.812 c -2.529 0.783 -5.227 1.212 -8.03 1.212 h -3.52 c -2.805 0 -5.498 -0.429 -8.02 -1.212 l 3.393 -10.889 c -3.796 -1.762 -6.123 -4.944 -6.129 -8.381 0.002 -5.158 5.159 -9.429 11.782 -9.756 l 1.277 -0.003 z" style="fill:#ff4500;fill-rule:evenodd"/></g></svg>