<svg xmlns="http://www.w3.org/2000/svg" viewBox="0 0 256 256"><g transform="translate(0 -796.36)"><path d="m 59.778 823.05 c 95.24 -84.46 241.79 48.767 182.53 160.27 -59.906 112.74 -258.16 82.69 -241.3 -55.767 5.02 -41.2 27.695 -76.954 58.764 -104.51" style="fill:#fff;color:#000"/><rect width="135.64" height="163.36" x="-98.93" y="858.85" rx="8.08" transform="matrix(0.98758 -0.15714 0.17221 0.98506 0 0)" style="fill:#ffdead;fill-rule:evenodd"/><g transform="matrix(1.68256 0.04327 -0.06732 1.65505 46.3 831.11)" style="fill:#ff4500"><g><path d="m 24.895,23.79 c -0.159,1.603 -0.047,3.213 0.067,4.816 0.371,4.48 0.93,8.947 1.424,13.418 0.537,5.367 1.581,10.684 2.613,16 0.989,5.277 2.263,10.515 3.73,15.72 0.976,3.3 2.01,6.582 2.781,9.917 l -5,2.108 c -0.635,-3.367 -1.62,-6.675 -2.511,-10 C 26.54,70.556 25.279,65.311 24.225,60.036 23.16,54.709 22.309,49.361 21.643,43.996 21.055,39.562 20.437,35.131 19.931,30.69 19.717,29.132 19.538,27.573 19.43,26.008 l 5.469,-2.213 z"/><path d="m 21.08 91.34 c 0.108 -0.514 0.521 -0.964 0.824 -1.4 3.666 -4.01 9.166 -5.334 14.274 -6.303 3.181 -0.402 6.383 -0.489 9.583 -0.543 l -2.814 2.049 c -3.169 0.004 -6.342 0.043 -9.481 0.549 -6.561 1.392 -7.623 1.836 -7.865 2.614 -0.24 0.391 -0.451 0.918 -0.835 1.157 l -3.685 1.877 z"/><path d="m 19.907 26.689 c 1.356 -0.714 2.764 -1.34 4.175 -1.945 6.805 -2.669 14.01 -4.125 21.16 -5.56 4.317 -0.843 8.643 -1.644 12.968 -2.447 l -2.588 1.95 c -4.271 0.722 -8.537 1.469 -12.785 2.319 -7.339 1.537 -14.742 3.114 -21.673 6.05 -1.513 0.696 -3.02 1.411 -4.478 2.209 l 3.222 -2.577 z"/><path d="m 50.872 16.575 c 0.865 1.234 0.841 3.193 1.067 4.713 0.495 4.148 1.267 8.254 2.117 12.342 l -3.242 1.727 c -0.659 -4.116 -1.313 -8.236 -2.179 -12.315 -0.225 -1.19 -0.403 -3.227 -1.108 -4.04 l 3.346 -2.431 z"/><path d="m 57.27 34.717 c -0.288 -0.528 -1.01 -0.656 -1.553 -0.876 -6.093 0.509 1.881 -2.707 -1.507 -0.283 -2.507 2.125 -4.638 4.787 -5.859 7.851 -0.179 3.585 2.092 5.835 4.887 7.654 3.407 2.843 11.205 0.016 8.686 0.629 3.497 -4.218 3.325 -9.303 1.56 -14.205 -1.23 -2.971 -3.438 -3.163 -6.326 -3.057 l 3.02 -2.208 c 3.058 -0.044 5.369 0.301 6.51 3.497 1.602 5.03 1.912 10.207 -1.438 14.638 -5.302 3.505 -9.135 5.91 -15.15 2.716 -2.965 -1.937 -5.199 -4.304 -5.222 -8.06 1.176 -3.104 3.369 -5.787 5.769 -8.04 2.4 -1.882 5.239 -4.381 8.38 -3.367 0.734 0.304 1.535 0.484 1.923 1.234 l -3.685 1.877 z"/></g><path d="m 56.991,56 c 4.488,-6.279 3.687,-4.04 4.182,2.498 0.229,2.692 0.104,1.379 0.373,3.94 l -3.439,3.333 c -0.25,-2.595 -0.129,-1.272 -0.364,-3.969 -0.659,-6.774 -1.354,-4.856 2.932,-9.219 L 56.99,56 z"/><path d="m 58.06 54.46 c 3.905 -2.676 3.915 -2.271 7.598 -0.788 5.257 2.162 10.772 3.549 16.265 4.953 l -2.851 1.956 c -5.493 -1.625 -11.02 -3.119 -16.491 -4.833 -3.357 -1.082 -6.137 -0.263 -0.704 -2.87 l -3.818 1.581 z"/><g transform="matrix(0.98368 -0.17993 0.17993 0.98368 0 0)"><rect width="10.04" height="2.704" x="68.49" y="109.41" rx="0.425" style="opacity:0.86"/><rect rx="0.425" y="109.41" x="53.52" height="2.704" width="10.04" style="opacity:0.86"/><rect width="10.04" height="2.704" x="38.547" y="109.41" rx="0.425" style="opacity:0.86"/><rect rx="0.425" y="109.41" x="23.576" height="2.704" width="10.04" style="opacity:0.86"/><rect width="10.04" height="2.704" x="8.605" y="109.41" rx="0.425" style="opacity:0.86"/></g><text transform="matrix(0.98818 -0.15331 0.15331 0.98818 0 0)" y="107.73" x="12.287" text-align="start" line-height="125%" style="font-size:14;font-family:Bitstream Vera Sans"><tspan y="107.73" x="12.287">k</tspan></text><path d="m 60.47 54.14 c -4.088 -1.308 -3.913 -0.944 -5.958 1.396 -2.898 3.381 -6.338 6.142 -9.753 8.912 l 2.986 0.958 c 3.315 -2.967 6.718 -5.827 9.974 -8.867 1.986 -1.893 4.406 -1.93 -0.778 -2.754 l 3.529 0.356 z"/><text x="71.68" y="106.88" transform="matrix(0.98818 -0.15331 0.15331 0.98818 0 0)" text-align="start" line-height="125%" style="font-size:14;font-family:Bitstream Vera Sans"><tspan x="71.68" y="106.88">e</tspan></text></g></g></svg>