<svg xmlns="http://www.w3.org/2000/svg" viewBox="0 0 256 256"><defs><clipPath id="0"><rect width="46" height="46" x="1" y="0.998" rx="4" style="fill:#1890d0;stroke-width:1"/></clipPath><clipPath><rect width="46" height="46" x="1" y="0.998" rx="4" style="fill:#1890d0;stroke-width:1"/></clipPath></defs><g transform="translate(0 -796.36)"><path d="m 255.11 930.21 c 9.501 -160.28 -248.55 -170.21 -252.67 -10.256 -15.927 148.14 242.86 175.71 252.67 10.256" style="fill:#fff;color:#fff"/><g transform="matrix(10.17425 0 0 9.98898 -84.87 633.32)" style="clip-path:url(#0)"><g transform="translate(0 -1)"><path d="m 18 33 c 0 1.656 -1.344 3 -3 3 -1.656 0 -3 -1.344 -3 -3 0 -1.656 1.344 -3 3 -3 1.656 0 3 1.344 3 3" style="fill:#ff4500"/><g style="fill:#ffdead"><path d="m 24 33 c 0 1.656 -1.344 3 -3 3 -1.656 0 -3 -1.344 -3 -3 0 -1.656 1.344 -3 3 -3 1.656 0 3 1.344 3 3"/><path d="m 30 33 c 0 1.656 -1.344 3 -3 3 -1.656 0 -3 -1.344 -3 -3 0 -1.656 1.344 -3 3 -3 1.656 0 3 1.344 3 3"/></g><path d="m 24 27 c 0 1.656 -1.344 3 -3 3 -1.656 0 -3 -1.344 -3 -3 0 -1.656 1.344 -3 3 -3 1.656 0 3 1.344 3 3" style="fill:#ff4500"/></g></g></g></svg>