<svg xmlns="http://www.w3.org/2000/svg" xmlns:xlink="http://www.w3.org/1999/xlink" viewBox="0 0 256 256"><defs><path id="0" d="m 245.46 129.52 l -97.89 -96.9 c -5.556 -5.502 -16.222 -11.873 -23.7 -14.16 l -39.518 -12.08 c -7.479 -2.286 -18.1 0.391 -23.599 5.948 l -13.441 13.578 c -5.5 5.559 -14.502 14.653 -20 20.21 l -13.44 13.579 c -5.5 5.558 -8.07 16.206 -5.706 23.658 l 12.483 39.39 c 2.363 7.456 8.843 18.06 14.399 23.556 l 97.89 96.9 c 5.558 5.502 14.605 5.455 20.1 -0.101 l 36.26 -36.63 c 5.504 -5.559 14.503 -14.651 20 -20.21 l 36.26 -36.629 c 5.502 -5.56 5.455 -14.606 -0.101 -20.11 z m -178.09 -50.74 c -7.198 0 -13.03 -5.835 -13.03 -13.03 0 -7.197 5.835 -13.03 13.03 -13.03 7.197 0 13.03 5.835 13.03 13.03 -0.001 7.198 -5.836 13.03 -13.03 13.03 z"/><use id="1" xlink:href="#0"/><clipPath style="clip-path:url(#2)"><use xlink:href="#0"/></clipPath><clipPath style="clip-path:url(#2)"><use xlink:href="#0"/></clipPath><clipPath id="2"><use xlink:href="#1"/></clipPath></defs><path d="m 128.7087 2.1274812 c 169.75 -19.2330002 167.39 256.0599988 -3.02 252.7999988 -158.490003 9.07 -172.790003 -267.799999 3.02 -252.7999988 z" style="fill:#fff;color:#000"/><g style="fill:#ff4500"><path d="m 169.71278,225.30619 c -18.94485,-3.12021 -35.39584,-15.27705 -43.81517,-32.37823 -5.51689,-11.20581 -7.78182,-24.90485 -6.16083,-37.26266 2.52792,-19.27183 2.70063,-17.48823 -2.39318,-24.71503 -10.60659,-15.04801 -20.199143,-29.85188 -23.788808,-36.712476 -1.21225,-2.31687 -2.905714,-4.48172 -3.763252,-4.81079 -0.881986,-0.33845 -6.115195,1.70828 -12.049191,4.71248 -12.543905,6.350606 -13.385499,7.509266 -15.969741,21.986396 -2.034024,11.39476 -4.085069,21.70513 -7.623885,38.32439 -1.288254,6.05 -2.636256,13.025 -2.99556,15.5 -1.278721,8.80824 -6.408694,26.92759 -9.440535,33.34449 -4.096912,8.67113 -8.63803,12.65551 -14.423863,12.65551 -5.297261,0 -8.176928,-2.11468 -9.955548,-7.31084 -1.181702,-3.45229 -1.032305,-4.76949 1.587888,-14 1.590775,-5.60404 3.956595,-14.23916 5.257378,-19.18916 1.300782,-4.95 2.825435,-10.19393 3.388117,-11.65319 0.562682,-1.45925 1.531735,-5.50925 2.153451,-9 0.621717,-3.49074 1.956385,-9.27181 2.96593,-12.84681 1.009545,-3.575 2.55077,-10.1 3.424945,-14.5 0.874175,-4.4 2.20675,-10.925 2.961279,-14.5 6.157608,-29.175106 10.640279,-66.080026 11.502171,-94.695046 l 0.638401,-21.1950425 3.471615,-3.581212 c 6.102192,-6.2948325 14.927295,-7.1320335 20.522196,-1.946855 l 2.737371,2.536911 -0.504048,19.6906225 c -0.394459,15.409516 -1.07404,22.734486 -3.125679,33.690626 -1.441897,7.7 -2.406215,14.5625 -2.142928,15.25 0.55739,1.45547 6.146705,1.69776 7.008219,0.3038 0.321629,-0.5204 4.735686,-3.05787 9.809017,-5.63882 29.1764,-14.84286 52.25972,-29.28162 83.72424,-52.3700455 6.22931,-4.57101699 13.64199,-9.800249 20.88955,-14.736394 4.53721,-3.0901955 7.35743,-2.9085975 11.5146,0.741441 4.83477,4.244989 6.22946,8.81973101 4.00559,13.138784 -7.00818,13.6107835 -37.37256,37.6665645 -75.7413,60.0050445 -5.95736,3.4684 -12.25736,7.22055 -14,8.33811 -4.48947,2.87911 -4.64269,6.71314 -0.54221,13.56775 12.00789,20.073066 15.49957,25.172576 18.18768,26.562656 2.73056,1.41203 3.06342,1.35904 5.54551,-0.88269 4.20542,-3.7982 10.27483,-7.5222 15.14058,-9.28979 12.54023,-4.555506 13.68926,-4.779236 25,-4.867906 11.04698,-0.0866 11.98717,0.0778 23.86698,4.174206 7.48137,2.57972 13.20964,4.02409 14.5,3.65616 1.17316,-0.33452 3.50142,-2.17012 5.17391,-4.07912 2.1401,-2.442726 3.55345,-3.274216 4.77119,-2.806926 1.57044,0.60263 1.70524,2.431866 1.45911,19.798856 -0.25592,18.05764 -0.37847,19.13488 -2.17687,19.13488 -1.33508,0 -3.03012,-2.09593 -5.66111,-7 -5.14428,-9.58874 -12.50892,-17.4702 -21.64615,-23.16519 l -7.68421,-4.78936 -9.05143,0.008 c -10.55796,0.009 -16.29796,2.19346 -22.77072,8.66622 -3.97828,3.97791 -10.7807,17.34418 -10.7807,21.18295 0,2.5711 9.95601,13.66661 26.04855,29.02989 25.04764,23.91256 29.38866,28.26378 33.14291,33.22086 2.14661,2.83436 4.16439,6.76465 4.48397,8.73399 1.02703,6.32881 2.69027,6.45834 8.29259,0.64583 5.18426,-5.37879 8.28152,-6.25301 8.82304,-2.49036 0.19375,1.3462 -1.47804,3.76603 -5,7.23728 -6.32846,6.23733 -7.98898,7.42877 -16.63305,11.93437 -11.35057,5.91632 -25.17572,7.43842 -42.15801,4.64144 z m 29.39246,-6.65362 c 1.60183,-1.17129 1.06032,-1.76761 -5.55887,-6.12149 -4.48044,-2.94708 -13.46545,-11.00136 -23.09459,-20.7023 -16.58994,-16.71363 -19.75201,-18.73815 -19.72422,-12.62851 0.0347,7.62615 5.20107,22.39507 9.9429,28.42333 6.31103,8.02317 16.00987,12.2694 28.10119,12.30293 5.47123,0.0152 9.1991,-0.44441 10.33359,-1.27396 z" transform="matrix(0.57258295 0 0 0.55323247 55.567305 67.192698)"/></g></svg>