<svg xmlns="http://www.w3.org/2000/svg" viewBox="0 0 256 256"><defs><clipPath><rect width="46" height="46" x="1" y="0.998" rx="4" style="fill:#1890d0"/></clipPath><clipPath><rect width="46" height="46" x="1" y="0.998" rx="4" style="fill:#1890d0"/></clipPath><clipPath><rect width="46" height="46" x="1" y="0.998" rx="4" style="fill:#1890d0"/></clipPath><clipPath><rect width="46" height="46" x="1" y="0.998" rx="4" style="fill:#1890d0"/></clipPath><clipPath><rect width="46" height="46" x="1" y="0.998" rx="4" style="fill:#1890d0"/></clipPath><clipPath><rect width="46" height="46" x="1" y="0.998" rx="4" style="fill:#1890d0"/></clipPath><clipPath><rect width="46" height="46" x="1" y="0.998" rx="4" style="fill:#1890d0"/></clipPath><clipPath><rect width="46" height="46" x="1" y="0.998" rx="4" style="fill:#1890d0"/></clipPath><clipPath><rect width="46" height="46" x="1" y="0.998" rx="4" style="fill:#1890d0"/></clipPath><clipPath id="0"><rect width="46" height="46" x="1" y="0.998" rx="4" style="fill:#1890d0"/></clipPath></defs><g transform="translate(0 -796.36)"><path d="m -1374.42 1658.71 c 127.95 -192.46 -280.09 -311 -226.07 -62.2 23.02 102.82 167.39 165.22 226.07 62.2 z" transform="matrix(0 1 -1 0 1711.48 2401.81)" style="fill:#fff;color:#000"/><g transform="matrix(5.59403 2.78323 -2.97845 5.98641 64.09 711.8)" style="clip-path:url(#0)"><g transform="translate(0 -1)"><path d="m 17,16 h 14 c 2,0 2,-0.199 2,2 v 14 c 0,2 0,2 -2,2 H 17 c -2,0 -2,0 -2,-2 V 18 c 0,-2 0,-2 2,-2" style="fill:#ffdead;fill-rule:evenodd"/><path d="M 30,16 H 18 v 14 h 12" style="fill:#ff4500"/><path d="m 20 14 v 4 h 8 v -4" style="fill:#dc143c"/><g style="fill:#ffdead"><path d="m 20 20 v 2 h 8 v -2"/><path d="m 20 24 v 2 h 8 v -2"/></g></g></g></g></svg>