<svg xmlns="http://www.w3.org/2000/svg" viewBox="0 0 256 256"><g style="fill:#fff"><path d="m 35.18 1043.09 c 192.46 127.95 311 -280.09 62.2 -226.07 -102.82 23.02 -165.22 167.39 -62.2 226.07 z" transform="matrix(0.99264 0 0 0.99509 18.715 -806.82)" style="fill:#fff;color:#000"/><path d="m 129.37 144.41 c -2.52 -1.247 -4.454 -4.052 -4.454 -6.46 0 -2.165 0.429 -3.272 1.9 -4.908 1.862 -2.071 3.773 -2.862 6.288 -2.603 2.423 0.25 3.479 0.863 5.04 2.927 1.064 1.403 1.346 2.089 1.469 3.563 0.474 5.719 -5.296 9.932 -10.247 7.481 z" style="stroke:#ff4500;stroke-width:0.336"/></g><g style="stroke:#ff4500;stroke-width:0.336"><path d="m 99.78 197.02 c -0.542 -0.953 -1.354 -2.563 -1.803 -3.578 -0.449 -1.015 -2.576 -5.062 -4.727 -8.993 -2.151 -3.931 -3.911 -7.291 -3.911 -7.467 0 -0.176 -1.825 -3.661 -4.056 -7.744 -2.231 -4.083 -4.335 -8.07 -4.675 -8.867 -0.34 -0.794 -2.517 -4.928 -4.838 -9.187 -2.32 -4.259 -4.219 -7.875 -4.219 -8.04 0 -0.16 -1.595 -3.22 -3.544 -6.799 -1.949 -3.579 -3.573 -6.639 -3.608 -6.8 -0.056 -0.256 0.988 -0.851 4.971 -2.831 2.535 -1.26 11.07 -5.848 11.7 -6.288 0.385 -0.27 0.897 -0.49 1.137 -0.49 0.24 0 3.512 -1.661 7.271 -3.692 3.759 -2.031 7 -3.692 7.21 -3.692 0.207 0 1.697 -0.737 3.31 -1.637 5.071 -2.83 10.278 -5.551 11.351 -5.932 0.568 -0.202 1.927 -0.904 3.02 -1.561 1.093 -0.657 4.329 -2.375 7.19 -3.818 2.861 -1.443 7.968 -4.104 11.349 -5.914 3.381 -1.809 6.286 -3.289 6.457 -3.289 0.171 0 2.952 -1.43 6.18 -3.177 3.228 -1.747 7.421 -3.934 9.318 -4.858 1.896 -0.925 4.354 -2.202 5.462 -2.839 l 2.01 -1.157 l 0.58 0.73 c 0.319 0.401 0.583 0.947 0.587 1.211 0.004 0.265 0.817 1.926 1.807 3.692 3.524 6.286 6.668 12.171 6.885 12.887 0.121 0.4 0.645 1.482 1.163 2.405 2.161 3.848 5.83 10.718 8.154 15.271 1.367 2.677 3.473 6.679 4.68 8.894 1.208 2.215 2.727 5.16 3.377 6.545 0.65 1.384 1.906 3.801 2.79 5.37 3.664 6.499 6.03 11.11 6.126 11.93 0.092 0.816 -0.362 1.102 -7.622 4.814 -4.246 2.17 -9.424 4.879 -11.508 6.02 -2.084 1.14 -3.957 2.073 -4.164 2.073 -0.207 0 -1.976 0.892 -3.932 1.982 -1.956 1.09 -6.35 3.412 -9.764 5.159 -14.421 7.381 -18.5 9.497 -22.243 11.537 -2.174 1.185 -5.04 2.655 -6.377 3.266 -1.334 0.611 -4.979 2.493 -8.101 4.183 -3.122 1.69 -5.789 3.072 -5.927 3.072 -0.138 0 -2.114 1 -4.392 2.227 -2.278 1.225 -6.291 3.326 -8.917 4.669 l -4.775 2.442 l -0.986 -1.732 z m 35.32 -41.5 c 1.056 -1.255 1.462 -4.073 0.991 -6.884 -0.403 -2.408 0.107 -3.175 0.909 -1.365 0.499 1.126 3.184 3.758 4.593 4.502 2.241 1.184 5.02 -0.286 5.366 -2.834 0.243 -1.814 -0.218 -2.586 -3.079 -5.152 -1.292 -1.159 -2.397 -2.234 -2.456 -2.388 -0.058 -0.154 0.394 -0.137 1 0.038 1.46 0.419 4.824 0.403 6.38 -0.029 1.465 -0.407 2.622 -2.031 2.622 -3.68 0 -1.24 -1.065 -3.175 -1.937 -3.518 -1.13 -0.444 -5.297 -0.586 -6.603 -0.223 -0.728 0.202 -1.392 0.299 -1.475 0.216 -0.083 -0.083 0.934 -1.157 2.261 -2.385 3.554 -3.29 4.153 -4.938 2.623 -7.212 -0.718 -1.068 -0.9 -1.147 -2.861 -1.241 l -2.094 -0.1 l -2 1.909 c -1.1 1.05 -2.177 2.396 -2.393 2.992 -0.277 0.766 -0.559 1.04 -0.963 0.934 -0.511 -0.134 -0.525 -0.281 -0.131 -1.382 0.532 -1.491 0.592 -4.471 0.122 -6.161 -0.189 -0.68 -0.823 -1.64 -1.409 -2.134 -1.481 -1.246 -3.669 -1.033 -5.03 0.49 -0.893 1 -0.934 1.194 -0.929 4.48 0.003 1.889 0.146 3.657 0.318 3.929 0.206 0.326 0.176 0.579 -0.087 0.742 -0.249 0.154 -0.59 -0.118 -0.905 -0.722 -0.278 -0.533 -1.387 -1.887 -2.465 -3.01 -1.951 -2.028 -1.969 -2.038 -3.885 -2.038 -1.635 0 -2.047 0.13 -2.738 0.866 -0.649 0.69 -0.814 1.225 -0.814 2.634 0 1.635 0.126 1.916 1.666 3.719 0.916 1.073 2.162 2.243 2.769 2.601 1.1 0.649 1.552 1.5 0.603 1.136 -1.112 -0.427 -3.94 -0.619 -5.758 -0.392 -1.579 0.197 -2.139 0.45 -3.081 1.392 -1.051 1.051 -1.136 1.283 -0.981 2.666 0.193 1.716 0.934 2.715 2.505 3.38 1.259 0.533 4.794 0.603 6.452 0.127 1.326 -0.38 1.846 -0.106 0.859 0.453 -1.296 0.734 -4.833 4.493 -5.05 5.371 -0.609 2.427 1.122 4.91 3.423 4.91 0.644 0 1.425 -0.137 1.736 -0.305 1.071 -0.577 4.672 -4.256 4.914 -5.02 0.462 -1.457 0.63 -0.364 0.55 3.594 -0.077 3.866 -0.055 4 0.813 5.03 0.813 0.967 1.065 1.06 2.846 1.06 1.758 0 2.039 -0.101 2.798 -1 z" style="fill:#dc143c"/><g style="fill:#ff4500"><path d="m 78.25 113.78 c -0.004 -0.211 -0.747 -8.54 -1.651 -18.507 -0.904 -9.967 -1.619 -18.14 -1.587 -18.17 0.178 -0.142 13.07 -1.21 17.731 -1.467 4.946 -0.274 14.898 -1.14 55.938 -4.871 13.596 -1.236 15.491 -1.348 14.976 -0.881 -0.372 0.337 -3.088 1.711 -5.02 2.539 -0.738 0.317 -2.777 1.38 -4.531 2.363 -3.093 1.733 -9.109 4.855 -22.335 11.59 -3.516 1.79 -8.07 4.184 -10.129 5.32 -2.055 1.135 -3.885 2.064 -4.067 2.064 -0.182 0 -1.892 0.852 -3.799 1.893 -1.908 1.041 -7.124 3.759 -11.591 6.04 -4.467 2.281 -8.624 4.488 -9.238 4.904 -0.614 0.416 -1.792 1.04 -2.618 1.386 -1.696 0.711 -3.02 1.377 -8.341 4.2 -2.053 1.089 -3.736 1.807 -3.74 1.596 z"/><path d="m 187.85 111.55 c -4.03 -7.88 -5.906 -11.475 -7.625 -14.6 -1.837 -3.339 -2.293 -4.214 -4.199 -8.05 -0.898 -1.808 -2.509 -4.809 -6.76 -12.586 -0.757 -1.384 -1.38 -2.704 -1.385 -2.932 -0.005 -0.228 -0.48 -1.179 -1.055 -2.114 -0.575 -0.935 -0.976 -1.77 -0.889 -1.857 0.285 -0.285 10.413 -1.102 15.02 -1.212 l 4.523 -0.108 l 2.095 22.822 c 1.152 12.552 2.053 23.05 2 23.326 -0.051 0.277 -0.826 -0.931 -1.722 -2.685 z"/></g></g></svg>