<svg xmlns="http://www.w3.org/2000/svg" xmlns:xlink="http://www.w3.org/1999/xlink" viewBox="0 0 256 256"><defs><clipPath><rect width="84" height="84" rx="6" x="6" y="6" style="fill:#ff4500"/></clipPath><clipPath><rect width="79.2" height="79.2" rx="5.657" x="8.399" y="15.05" style="fill:url(#0)"/></clipPath><clipPath><ellipse cx="63.755" cy="59.38" rx="58.22" ry="58.25"/></clipPath><clipPath><rect transform="scale(1 -1)" y="-228.99" x="-336.95" rx="6" height="84" width="84" style="fill:#999"/></clipPath><clipPath><rect transform="scale(1 -1)" y="-90" x="6" rx="6" height="84" width="84" style="fill:url(#3)"/></clipPath><clipPath><rect y="6" x="6" rx="6" height="84" width="84" style="fill:url(#1)"/></clipPath><clipPath><rect transform="scale(1 -1)" y="-73.808" x="24.16" rx="4.219" height="59.07" width="59.07" style="fill:#0369a3"/></clipPath><clipPath><rect y="6" x="6" rx="6" height="84" width="84" style="fill:#ff4500"/></clipPath><linearGradient gradientUnits="userSpaceOnUse" id="1" y2="5.988" x2="0" y1="90"><stop style="stop-color:#70a83e"/><stop offset="1" style="stop-color:#9fd058"/></linearGradient><linearGradient y1="94.25" x2="0" y2="15.04" id="0" gradientUnits="userSpaceOnUse"><stop style="stop-color:#a8a8a8"/><stop offset="1" style="stop-color:#d7d7d7"/></linearGradient><radialGradient id="2" cx="64.57" cy="7.227" r="104.22" gradientUnits="userSpaceOnUse"><stop style="stop-color:#67c5d5"/><stop offset="0.16" style="stop-color:#66c2d3"/><stop offset="0.28" style="stop-color:#62b9ce"/><stop offset="0.385" style="stop-color:#5ca8c6"/><stop offset="0.483" style="stop-color:#5392ba"/><stop offset="0.576" style="stop-color:#4874aa"/><stop offset="0.665" style="stop-color:#3a5097"/><stop offset="0.749" style="stop-color:#2a2781"/><stop offset="0.815" style="stop-color:#1b006d"/><stop offset="1" style="stop-color:#596aad"/></radialGradient><radialGradient r="42" cy="-7.214" cx="48.555" gradientTransform="matrix(2.39643 0 0 2.25179 -67.804 9.03)" gradientUnits="userSpaceOnUse" id="3" xlink:href="#2"/></defs><g transform="translate(0 -796.36)"><path d="m -1374.42 1658.71 c 127.95 -192.46 -280.09 -311 -226.07 -62.2 23.02 102.82 167.39 165.22 226.07 62.2 z" transform="matrix(0 1 -1 0 1711.48 2401.81)" style="fill:#fff;color:#000"/><g transform="matrix(2.24899 0 0 2.20419 22.352 822.65)" style="fill:#ff4500"><path d="m 35.894 18.463 c 1.513 1.806 0.104 4.822 2.385 4.792 1.111 1.396 -2.214 0.417 0.187 1.493 1.381 0.966 -1.46 1.519 0.249 2.388 -1.971 0.904 0.319 4.729 1.783 5.686 2.409 1.803 1.065 -3.818 3.753 -4.11 1.46 -1.483 4.03 -2.434 5.847 -3.926 -1.78 -0.129 -2.82 -1.114 -1.134 -1.724 3.103 2.828 0.778 -1.339 -0.939 -1.999 1.662 -0.47 3.279 -0.126 3.048 -1.346 1.757 -1.143 -1.688 -1.511 -2.918 -1.254 -4.086 0 -8.173 0 -12.26 0 z m -25.484 1.18 c -2.245 0.569 -2.402 5.34 -0.145 2.691 0.554 -1.088 3.113 -2.396 0.145 -2.691 z m 10.492 0.166 c -1.295 1.805 0.188 3.252 1.265 1.05 0.762 -0.92 -0.567 -1.017 -1.265 -1.05 z m 3.235 0.405 c -2.501 1.031 -0.617 3.435 -0.555 3.967 2.634 0.811 4.1 -0.53 5.097 1.761 2.507 1.285 -0.049 3.517 -0.99 4.099 1.695 -1.312 4.954 3.569 4.099 0.99 -1.019 -0.662 2.736 1.063 0.788 -1.088 -1.793 -2.568 0.142 -1.15 0.898 -0.551 2.571 -2.05 -2.909 -2.298 -1.541 -4.407 -1.198 -0.863 -2.77 -3.478 -4.893 -2.967 -1.421 1.634 -0.196 -3.56 -2.281 -0.961 -0.108 1.453 -0.04 3.297 -0.647 0.78 -0.407 -0.44 0.7 -1.465 0.025 -1.625 z m -5.101 0.018 c -1.679 0.497 -1.589 2.514 0.475 2.731 0.707 -0.716 0.281 -2.595 -0.475 -2.731 z m -6.552 0.645 c -2.18 0.459 -1.291 2.023 -0.623 2.464 -2.699 0.601 4.12 0.768 0.727 1.149 -2.824 1 2.72 2.184 3.628 0.995 3.487 0.758 0.126 -2.482 -0.18 -4.238 -1.479 -1.411 -0.058 3.252 -1.395 0.15 -0.466 0.921 -1.949 0.136 -2.156 -0.519 z m 69.3 0.203 c -2.927 1.018 1.819 4.861 0.64 1.365 -0.117 -0.422 0.264 -1.538 -0.64 -1.365 z m -61.1 1.548 c -2.103 1.757 2.672 3.21 -0.604 4.519 -0.491 -1.632 -1.337 0.816 -3.211 -0.501 -3.223 1.193 -4.87 -0.621 -7.569 -1.865 -1.621 -0.179 -1.012 1.369 -1.119 2.819 0 4.01 0 8.01 0 12.02 1.589 1.487 0.62 0.656 0 0.246 0.872 2.641 -0.385 6.502 3.053 8.04 0.584 0.964 3.037 5.07 3.15 3.842 -1.229 -1.145 -2.491 -4.576 -0.411 -1.518 1.859 2.908 4.377 4.792 8.05 5.486 2.01 0.607 3.658 2.694 5.423 2.235 0.999 2.34 -2.958 4.587 0.133 6.769 1.614 2.21 4.323 3.658 2.856 6.761 -1.025 3.03 -0.586 6.331 -1.474 9.153 -0.276 1.718 2.693 6.079 2.436 2.587 0.866 -2.426 0.844 -5.097 2.885 -6.815 2.793 0.02 0.534 -2.671 3.306 -2.319 1.692 -1.972 2.181 -4.324 5.04 -5.107 0.341 -2.396 4.747 -6.06 0.195 -6.991 -1.237 -0.542 -4.422 -0.737 -4.179 -1 0.493 -2.375 -4.119 -3.051 -6.081 -4.02 -2.576 -1.626 -6.448 2.702 -7.355 -1.027 -0.542 -1.173 -2.522 -1.192 -1.612 -3 -1.64 1.45 -4.848 1.01 -4.01 -1.792 1.275 -2.359 6.174 -2.471 7.01 0.367 -1.159 -3.129 2.241 -5.57 4.127 -7.792 0.384 -1.064 2.667 -1.979 1.882 -0.564 1.338 -0.043 3.367 -2.191 0.989 -1.2 -0.033 -1.959 -2.083 -1.402 -2.748 -1.123 1.232 -1.738 7.558 -0.788 4.908 -3.629 -2.053 -0.739 -1.882 -5.05 -3.958 -2.651 0.175 -1.481 -4.226 -4.381 -4.13 -1.897 0.537 2.222 0.098 4.784 -1.045 6.24 -0.239 -3.257 -6.482 -2.537 -5.682 -6.01 1.163 -1.654 2.523 -3.942 2.653 -3.736 2.085 -0.708 3.763 -2.767 1.345 -4.121 -0.129 1.18 -1.818 3.614 -1.58 0.67 -1.564 1.649 -1.207 -2.623 -2.671 -3.066 z m 49.91 1.143 c -3.663 0.793 -5.114 3.908 -6.927 6.484 -2.671 1.071 -2.569 5.669 0.414 4.2 0.799 1.24 -0.559 3.197 1.767 1.573 1.876 -2.208 0.328 -5.778 3.521 -7.172 0.233 1.082 -2.945 5.125 0.767 4.461 3.357 0.113 -2.44 0.298 -0.807 2.203 -1.696 -0.895 -0.815 2.444 -3.03 1.667 -1.918 0.927 -3.175 -0.431 -2.736 -1.918 -1.509 0.782 0.474 2.99 -2.144 3.123 -0.586 1.853 -5.411 1.573 -2.668 3.459 1.218 2.807 -4.538 0.176 -2.904 3.544 1.398 3.331 4.328 -1.104 5.518 -1.961 2.294 -1.582 5.692 2.698 3.629 2.857 2.315 -0.276 1.839 -2.233 -0.016 -2.991 -1 -2.31 3.171 1.133 2.94 2.291 1.472 2.451 0.866 -2.51 2.364 -0.313 -0.175 2.317 6.03 0.545 3.065 3.497 -2.546 0.456 -5.05 -0.583 -7.242 0.083 -2.04 -0.016 -1.937 -1.953 -2.68 -2.439 -2.595 0.187 -5.801 0.167 -7.537 2.03 -1.878 2.291 -4.586 5.494 -2.539 8.42 2.048 4.335 7.128 0.225 10.05 2.786 0.868 1.068 -0.752 2.337 1.188 3.493 0.731 2.464 -0.829 4.8 0.964 7.157 0.925 2.214 1.503 5.529 4.955 3.505 3.653 -1.955 2.681 -5.562 5.695 -7.555 -2.386 -4.104 2.918 -5.905 4.242 -9.237 -2.891 0.376 -5.467 -2.187 -6.165 -4.768 -1.214 -1.253 -0.902 -3.101 0.455 -0.747 1.868 1.607 1.905 6.371 5.354 3.921 1.577 -0.586 5.883 -2.824 2.452 -3.842 -2.212 1.424 -4.651 -4.257 -1.404 -0.962 2.361 0.891 4.02 1.422 4.02 -1.532 0 -7.958 0 -16.02 0 -24.03 -0.735 0.668 -2.625 1.903 -3.579 1.082 -1.641 0.203 -3.808 3.043 -3.292 0.298 -1.427 -0.084 -0.255 2.461 -2.215 2.532 -0.197 1.308 -1.98 0.242 -1.31 1.484 -1.376 -0.867 -2.539 -3.607 0.171 -1.888 4.03 -1.073 -2.654 -3.496 -3.17 -4.081 0.866 -0.185 -0.943 -0.988 -1.161 -0.719 z m -33.22 0.719 c -1.34 0.993 2.547 1.18 0 0 z m -17.895 0.535 c -1.498 1.393 2.387 1.281 0 0 z m 8.688 1.382 c -1.135 1.653 1.676 0.61 0 0 z m 24.84 1.953 c -1.329 1.36 -3.082 -0.358 -3.111 0.811 0.24 0.353 1.205 2.874 3.318 1.014 1.134 -0.425 0.687 -1.496 -0.207 -1.825 z m -28.28 0.811 c -2.52 1.957 4.279 2.137 0.534 0.225 l -0.534 -0.225 z m 33.24 5.418 c -1.814 1.052 0.87 3.285 -0.04 4.335 -1.136 1.761 4.224 -0.124 1.361 -1.529 -0.204 -1.207 -1.677 -2.68 -1.321 -2.806 z m -1.223 2.119 c -2.527 0.636 -0.573 3.915 0.322 0.826 0.05 -0.179 0.118 -0.832 -0.322 -0.826 z m -20.237 2.378 c -2.352 1.426 -0.365 2.848 1.358 2.207 -0.354 -0.86 -1.342 -1.402 -1.358 -2.207 z m 44.41 2.396 c 1.173 0.527 -2.15 1.426 -0.045 2.352 1.224 1.281 0.763 4.03 -1.227 2.083 0.37 -2.172 -2.698 -3.794 1.273 -4.436 z m -6.03 0.018 c -0.159 1.396 3.386 3.565 -0.436 2.857 -2.02 0.211 -5.05 -0.055 -2.502 -2.294 0.804 -0.429 2.916 1.481 1.818 -0.305 0.389 -0.022 0.753 -0.153 1.12 -0.258 z m -11.673 3.02 c -1.474 0.844 1.019 1.492 0 0 z m -37.02 7.87 c -0.249 0.737 4.66 1.484 1.273 0.303 l -0.505 -0.158 l -0.768 -0.145 z m 3.815 1.05 c -1.49 1.345 3.069 0.401 0 0 z m 49.805 12.33 c -3.236 0.075 -2.806 7.497 -0.55 3.105 0.214 -0.953 1.072 -2.211 0.55 -3.105 z" style="opacity:0.7"/><g style="stroke:#dc143c"><path transform="matrix(0.74016 0.67243 -0.67243 0.74016 33.403 -44.2)" d="m 78.44 33.07 c 0 2.718 -2.27 4.921 -5.07 4.921 -2.8 0 -5.07 -2.203 -5.07 -4.921 0 -2.718 2.27 -4.921 5.07 -4.921 2.8 0 5.07 2.203 5.07 4.921 z" style="stroke-width:1.5"/><rect transform="matrix(0.74016 0.67243 -0.67243 0.74016 0 0)" width="20.728" height="46.38" x="57.33" y="-17.18" rx="6" style="fill-rule:evenodd"/></g><rect transform="matrix(0.74016 0.67243 -0.67243 0.74016 0 0)" rx="4.777" y="-13.365" x="59.37" height="38.29" width="16.504" style="fill:#ffdead;fill-rule:evenodd"/><path d="m 78.44 33.07 c 0 2.718 -2.27 4.921 -5.07 4.921 -2.8 0 -5.07 -2.203 -5.07 -4.921 0 -2.718 2.27 -4.921 5.07 -4.921 2.8 0 5.07 2.203 5.07 4.921 z" transform="matrix(0.66231 0.6017 -0.6017 0.66231 36.776 -36.437)" style="stroke:#d7d7d7;stroke-width:1.5"/><path d="m 65.47 25.656 c -2.187 0 -3.969 1.782 -3.969 3.969 0 2.187 1.782 3.969 3.969 3.969 2.187 0 3.969 -1.782 3.969 -3.969 0 -2.187 -1.782 -3.969 -3.969 -3.969 z m 0 0.844 c 1.718 0 3.094 1.407 3.094 3.125 0 1.718 -1.375 3.125 -3.094 3.125 -1.718 0 -3.125 -1.407 -3.125 -3.125 0 -1.718 1.407 -3.125 3.125 -3.125 z" style="color:#000"/><text transform="matrix(0.68465 -0.72767 0.74543 0.66833 0 0)" y="71.25" x="-19.292" line-height="125%" style="letter-spacing:0;word-spacing:0;font-size:14.615;font-family:DejaVu Sans"><tspan y="71.25" x="-19.292">Tag</tspan></text></g></g></svg>