<svg xmlns="http://www.w3.org/2000/svg" viewBox="0 0 256 256"><defs><clipPath><rect y="6" x="6" rx="6" height="84" width="84" style="fill:#ff4500ff4500"/></clipPath><filter style="color-interpolation-filters:sRGB"><feGaussianBlur stdDeviation="1.71"/></filter><linearGradient gradientUnits="userSpaceOnUse" gradientTransform="scale(1.0059 0.99417)" y1="92.54" x2="0" y2="7.02"><stop style="stop-color:#fff"/><stop offset="1" style="stop-color:#fff;stop-opacity:0.588"/></linearGradient></defs><g transform="translate(0 -796.36)"><path d="m -1374.42 1658.71 c 127.95 -192.46 -280.09 -311 -226.07 -62.2 23.02 102.82 167.39 165.22 226.07 62.2 z" transform="matrix(0 1 -1 0 1711.48 2401.81)" style="fill:#fff;color:#000"/><g transform="matrix(1.96899 0 0 1.91362 34.558 830.28)"><path transform="translate(-5.497 4.672)" d="m 78.05 47.629 c 0 14.875 -12.06 26.934 -26.934 26.934 -14.875 0 -26.934 -12.06 -26.934 -26.934 0 -14.875 12.06 -26.934 26.934 -26.934 14.875 0 26.934 12.06 26.934 26.934 z" style="fill:#f55;fill-rule:evenodd"/><path d="m 54.14 33.612 c 0 0 7.97 -8.52 4.947 -19.238 -3.02 -10.719 13.742 5.222 -4.947 19.238 z" style="fill:#8b0000"/><path d="m 53.25 36.01 c 0 0 5.481 -9.41 21.621 -11.495 16.14 -2.085 -16.554 -8.153 -21.621 11.495 z" style="fill:#b22222"/></g></g></svg>