<svg xmlns="http://www.w3.org/2000/svg" viewBox="0 0 256 256"><defs><clipPath><path d="m -24 13 c 0 1.105 -0.672 2 -1.5 2 -0.828 0 -1.5 -0.895 -1.5 -2 0 -1.105 0.672 -2 1.5 -2 0.828 0 1.5 0.895 1.5 2 z" transform="matrix(15.33333 0 0 11.5 415 -125.5)"/></clipPath></defs><g transform="matrix(0.98531 0 0 1 2.84 -793.96)"><path transform="translate(122.41 99.58)" d="m -65.02 748.3 c -5.567 3.251 -11.218 11 -10.513 21.12 -0.278 37.13 -0.265 74.29 0.261 111.42 -0.101 9.151 5.313 17.02 10.897 18.23 44.68 0.898 89.37 0.466 134.05 0.657 6.287 -2.929 11.702 -12.154 11.11 -22.843 0.528 -37.25 0.176 -74.52 0.284 -111.78 -1.971 -8.04 -6.294 -15.531 -11.891 -16.95 -44.728 0.097 -89.49 -0.194 -134.2 0.146 z" style="fill:#ff4500"/><g transform="matrix(0.95242 0 0 0.93611 5.481 56.24)" style="fill:#ffa07a"><path d="m 111.88,1050.06 c -18,-2.6 -28.715,-5.585 -41,-11.426 -25.05,-11.908 -44.1,-31.18 -54.864,-55.52 C 9.15,967.591 2.309,939.402 0.071,917.424 c -1.09,-10.708 -0.55,-33.721 0.983,-41.948 5.869,-31.484 22.17,-54.43 48.06,-67.66 16.606,-8.483 33.727,-12.298 55.27,-12.315 26.625,-0.021 51.665,5.922 76.79,18.222 38.26,18.736 63.36,47.48 71.13,81.44 2.275,9.951 2.302,27.38 0.059,37.922 -5.986,28.13 -22.09,54.627 -50.07,82.39 -13.768,13.662 -20.323,18.827 -30.331,23.904 -14.523,7.366 -26.992,10.306 -45.43,10.71 -6.875,0.151 -13.464,0.135 -14.643,-0.035 z m 32.759,-77.14 c 5.816,-10.05 10.468,-18.37 10.336,-18.488 -0.861,-0.773 -69.938,-40.38 -70.43,-40.38 -0.621,0 -21.902,36.406 -21.475,36.737 0.129,0.1 1.596,0.932 3.262,1.849 l 3.03,1.667 3.132,-2.25 3.132,-2.25 -0.35,3.109 c -0.193,1.71 -0.058,3.63 0.298,4.268 0.697,1.246 37.15,22.568 38.602,22.578 0.478,0 2.211,-1.771 3.85,-3.942 1.639,-2.171 3.101,-3.827 3.248,-3.68 0.147,0.147 -0.564,2.084 -1.581,4.305 -1.017,2.221 -1.744,4.522 -1.617,5.115 0.216,1.01 13.65,9.445 15.252,9.577 0.404,0.033 5.494,-8.163 11.31,-18.213 z m 17.16,-29.616 c 4.03,-6.894 4.367,-7.797 4.367,-11.753 0,-6.132 -1.288,-7.545 -12.969,-14.232 -5.439,-3.113 -9.989,-5.732 -10.112,-5.819 -0.123,-0.087 5.559,-8.518 12.625,-18.736 7.07,-10.218 13.391,-19.626 14.05,-20.907 0.828,-1.601 1.101,-3.397 0.875,-5.751 -0.983,-10.231 -14.261,-15.04 -21.08,-7.637 -0.883,0.959 -6.09,11.206 -11.571,22.771 -5.481,11.564 -10.315,20.942 -10.743,20.838 -0.428,-0.103 -5.02,-2.66 -10.215,-5.682 -8.478,-4.936 -9.816,-5.495 -13.168,-5.501 -4.526,-0.01 -6.662,1.374 -10.197,6.598 -3.8,5.616 -7.588,13.14 -6.786,13.474 0.393,0.164 16.14,9.264 35,20.221 18.857,10.957 34.571,19.846 34.919,19.753 0.348,-0.093 2.598,-3.529 5,-7.636 z"/><path d="m 124.99,988.54 c -4.02,-2.353 -7.309,-4.563 -7.309,-4.91 0,-0.347 0.964,-2.781 2.143,-5.408 3.742,-8.341 2.468,-8.746 -2.998,-0.953 -1.608,2.292 -3.211,4.167 -3.563,4.167 -1.139,0 -36.621,-20.773 -37.601,-22.01 -0.678,-0.859 -0.818,-2.399 -0.489,-5.41 l 0.46,-4.209 -3.362,2.959 c -1.849,1.628 -3.558,2.958 -3.797,2.957 -0.834,0 -5.078,-2.838 -5.064,-3.38 0.008,-0.3 4.486,-8.261 9.952,-17.689 6.123,-10.562 10.299,-17.05 10.878,-16.909 0.517,0.128 16.13,8.968 34.702,19.643 25.14,14.451 33.692,19.7 33.489,20.547 -0.262,1.096 -18.699,33.33 -19.66,34.374 -0.259,0.282 -3.761,-1.413 -7.781,-3.766 z"/></g><path d="m 102.39 1049.92 c -21.989 -4.212 -41.07 -12.528 -56.37 -24.57 -10.534 -8.289 -21.506 -20.985 -27.929 -32.33 -8.509 -15.02 -15.764 -39.645 -19.901 -67.56 c -1.399 -9.441 -1.538 -12.725 -1.207 -28.671 0.399 -19.273 0.906 -22.887 4.968 -35.429 11.193 -34.552 37 -56.23 76.36 -64.14 5.169 -1.039 9.997 -1.281 25.357 -1.272 16.631 0.011 20.14 0.22 28.46 1.69 44.562 7.883 85.62 32.23 106.48 63.13 30.22 44.778 20.566 95.96 -27.82 147.58 -9.495 10.125 -21.21 20.824 -28.3 25.847 -5.855 4.144 -18.937 10.501 -26.11 12.689 -8.819 2.689 -17.188 3.746 -32.27 4.074 -12.26 0.268 -15.733 0.101 -21.712 -1.044 z m 31.743 -58.938 c 3.677 -4.088 21.401 -35.36 20.525 -36.21 -1.636 -1.598 -70.34 -40.33 -71.54 -40.33 -1.077 0 -22.09 35.03 -22.13 36.889 -0.005 0.28 1.473 1.369 3.287 2.417 l 3.297 1.907 l 2.493 -1.877 c 1.371 -1.033 2.66 -1.877 2.866 -1.877 0.205 0 0.474 1.515 0.596 3.365 l 0.223 3.365 l 13.14 7.782 c 7.223 4.28 16.15 9.33 19.842 11.223 l 6.706 3.441 l 2.707 -2.521 c 1.955 -1.821 2.561 -2.121 2.182 -1.08 -1.916 5.251 -1.408 6.02 7.57 11.468 6.083 3.69 6.632 3.826 8.235 2.037 z m 25.633 -42.862 c 5.083 -7.887 7.03 -12.283 7.03 -15.884 0.003 -6.37 -1.627 -8.07 -15.11 -15.775 l -8.173 -4.671 l 13.829 -20.433 c 12.633 -18.665 13.829 -20.702 13.829 -23.549 0 -4.186 -1.431 -7.308 -4.619 -10.07 -2.917 -2.527 -6.382 -3.461 -10.718 -2.887 -5.384 0.713 -6.225 1.881 -17.644 24.516 -5.898 11.691 -11.06 21.458 -11.462 21.706 -0.407 0.248 -5.099 -1.91 -10.427 -4.795 -8.726 -4.725 -10.09 -5.246 -13.715 -5.246 -2.888 0 -4.578 0.407 -5.98 1.441 -3.48 2.565 -12.08 16.683 -11.33 18.594 0.359 0.91 4.282 3.198 44.963 26.22 14.212 8.04 26.12 14.621 26.463 14.621 0.341 0 1.718 -1.702 3.059 -3.782 z" style="fill:#fff;stroke:#fff;stroke-width:1.015"/><path d="m 154.09 874.4 c -3.53 -1.916 -4.433 -5.865 -2.203 -9.639 2.646 -4.48 8.466 -4.449 11.51 0.061 2.112 3.129 1.683 6.01 -1.298 8.727 -2.413 2.199 -5.01 2.475 -8.01 0.851 z" style="fill:#ffa07a"/></g></svg>