<svg xmlns="http://www.w3.org/2000/svg" xmlns:xlink="http://www.w3.org/1999/xlink" viewBox="0 0 256 256"><defs><path id="0" d="m 24 33 c 0 1.656 -1.344 3 -3 3 -1.656 0 -3 -1.344 -3 -3 0 -1.656 1.344 -3 3 -3 1.656 0 3 1.344 3 3"/><path id="1" d="m 36 33 c 0 1.656 -1.344 3 -3 3 -1.656 0 -3 -1.344 -3 -3 0 -1.656 1.344 -3 3 -3 1.656 0 3 1.344 3 3"/><path id="2" d="m 30 27 c 0 1.656 -1.344 3 -3 3 -1.656 0 -3 -1.344 -3 -3 0 -1.656 1.344 -3 3 -3 1.656 0 3 1.344 3 3"/><path id="3" d="m 36 21 c 0 1.656 -1.344 3 -3 3 -1.656 0 -3 -1.344 -3 -3 0 -1.656 1.344 -3 3 -3 1.656 0 3 1.344 3 3"/><clipPath id="4"><rect width="46" height="46" x="1" y="1" rx="4" style="fill:#1890d0;stroke-width:1"/></clipPath><clipPath id="5"><rect width="46" height="46" x="1" y="1" rx="4" style="fill:#1890d0;stroke-width:1"/></clipPath></defs><g transform="translate(0 -796.36)"><path d="m 215.99 827.03 c 120.91 105.68 -59.829 302.66 -176.59 193.24 -116.95 -92.42 51.778 -302.33 176.59 -193.24" style="fill:#fff;color:#000"/><g transform="matrix(5.54217 0 0 5.93591 -10.427 785.1)" style="fill:#ffdead"><g style="clip-path:url(#5)"><g style="opacity:0.1"><path d="m 18 33 c 0 1.656 -1.344 3 -3 3 -1.656 0 -3 -1.344 -3 -3 0 -1.656 1.344 -3 3 -3 1.656 0 3 1.344 3 3"/><use xlink:href="#0"/><path d="m 30 33 c 0 1.656 -1.344 3 -3 3 -1.656 0 -3 -1.344 -3 -3 0 -1.656 1.344 -3 3 -3 1.656 0 3 1.344 3 3"/><use xlink:href="#1"/><path d="m 18 27 c 0 1.656 -1.344 3 -3 3 -1.656 0 -3 -1.344 -3 -3 0 -1.656 1.344 -3 3 -3 1.656 0 3 1.344 3 3"/><path d="m 24 27 c 0 1.656 -1.344 3 -3 3 -1.656 0 -3 -1.344 -3 -3 0 -1.656 1.344 -3 3 -3 1.656 0 3 1.344 3 3"/><use xlink:href="#2"/><path d="m 36 27 c 0 1.656 -1.344 3 -3 3 -1.656 0 -3 -1.344 -3 -3 0 -1.656 1.344 -3 3 -3 1.656 0 3 1.344 3 3"/><path d="m 30 21 c 0 1.656 -1.344 3 -3 3 -1.656 0 -3 -1.344 -3 -3 0 -1.656 1.344 -3 3 -3 1.656 0 3 1.344 3 3"/><use xlink:href="#3"/><path d="m 36 15 c 0 1.656 -1.344 3 -3 3 -1.656 0 -3 -1.344 -3 -3 0 -1.656 1.344 -3 3 -3 1.656 0 3 1.344 3 3"/></g></g><g style="clip-path:url(#4)"><g transform="translate(0 -1)"><path d="m 18 33 c 0 1.656 -1.344 3 -3 3 -1.656 0 -3 -1.344 -3 -3 0 -1.656 1.344 -3 3 -3 1.656 0 3 1.344 3 3" style="fill:#ff4500"/><use xlink:href="#0"/><path d="m 30 33 c 0 1.656 -1.344 3 -3 3 -1.656 0 -3 -1.344 -3 -3 0 -1.656 1.344 -3 3 -3 1.656 0 3 1.344 3 3" id="6" style="fill:#ffdead"/><use xlink:href="#1"/><path d="m 24 27 c 0 1.656 -1.344 3 -3 3 -1.656 0 -3 -1.344 -3 -3 0 -1.656 1.344 -3 3 -3 1.656 0 3 1.344 3 3" style="fill:#ff4500"/><use xlink:href="#2"/><path d="m 36 27 c 0 1.656 -1.344 3 -3 3 -1.656 0 -3 -1.344 -3 -3 0 -1.656 1.344 -3 3 -3 1.656 0 3 1.344 3 3" id="7" style="fill:#ffdead"/><path d="m 30 21 c 0 1.656 -1.344 3 -3 3 -1.656 0 -3 -1.344 -3 -3 0 -1.656 1.344 -3 3 -3 1.656 0 3 1.344 3 3" style="fill:#ff4500"/><use xlink:href="#3"/><path d="m 36 15 c 0 1.656 -1.344 3 -3 3 -1.656 0 -3 -1.344 -3 -3 0 -1.656 1.344 -3 3 -3 1.656 0 3 1.344 3 3" style="fill:#ff4500"/><use xlink:href="#3"/></g></g><g transform="matrix(-0.99967 0.02392 -0.02743 -0.99967 48.35 45.02)" style="clip-path:url(#4)"><g transform="translate(0 -1)"><use xlink:href="#0"/><use xlink:href="#6"/><use xlink:href="#1"/><use xlink:href="#2"/><use xlink:href="#7"/><g><use xlink:href="#3"/><use xlink:href="#3"/></g></g></g></g></g></svg>