<svg xmlns="http://www.w3.org/2000/svg" xmlns:xlink="http://www.w3.org/1999/xlink" viewBox="0 0 256 256"><defs><filter id="0" x="-0.00799173" width="1.0159835" y="-1.8286371" height="4.6572742" style="color-interpolation-filters:sRGB"><feGaussianBlur stdDeviation="0.38626671"/></filter><linearGradient id="8" gradientUnits="userSpaceOnUse" y1="0" x2="0" y2="38.994099"><stop style="stop-color:#a80000"/><stop offset="1" style="stop-color:#6a0000"/></linearGradient><linearGradient id="7" gradientUnits="userSpaceOnUse" x1="60.5" x2="120"><stop style="stop-color:#400"/><stop offset="1" style="stop-color:#360000"/></linearGradient><linearGradient id="1" gradientUnits="userSpaceOnUse" x1="1.5" x2="60.5"><stop style="stop-color:#f10000"/><stop offset="1" style="stop-color:#fe0f0f"/></linearGradient><linearGradient id="2" gradientUnits="userSpaceOnUse" y1="0" x2="0" y2="39.012699"><stop style="stop-color:#f70000"/><stop offset="1" style="stop-color:#fe0606"/></linearGradient><radialGradient gradientUnits="userSpaceOnUse" id="A" r="21.33" cy="108.5" cx="94.75"><stop style="stop-color:#ec0000"/><stop offset="1" style="stop-color:#800000"/></radialGradient><radialGradient xlink:href="#A" id="9" gradientUnits="userSpaceOnUse" cx="68.1436" cy="108.8955" r="60.0242"/><radialGradient gradientUnits="userSpaceOnUse" id="6" r="21.6693" cy="109.125" cx="34.716801"><stop offset="0.0934" style="stop-color:#ff1919"/><stop offset="0.3547" style="stop-color:#fe1111"/><stop offset="0.6573" style="stop-color:#fe0808"/><stop offset="0.88129997" style="stop-color:#ff0303"/><stop offset="1" style="stop-color:#ff0101"/></radialGradient><radialGradient xlink:href="#A" id="B" gradientUnits="userSpaceOnUse" cx="94.75" cy="108.5" r="21.33"/><radialGradient xlink:href="#4" id="3" gradientUnits="userSpaceOnUse" cx="60.824699" cy="107.7041" r="48.575199"/><radialGradient xlink:href="#6" id="5" gradientUnits="userSpaceOnUse" cx="34.716801" cy="109.125" r="21.6693"/><radialGradient gradientUnits="userSpaceOnUse" id="4" r="48.575199" cy="107.7041" cx="60.824699"><stop style="stop-color:#ff1919"/><stop offset="1" style="stop-color:#ff0101"/></radialGradient></defs><path d="m 22.010842 203.4688 c 48.541 88.14 200.629998 53.931 226.359998 -18.64 30.66 -86.449998 -49.14 -250.629998 -184.299998 -154.449998 -45.527 33.585 -90.6 84.948998 -42.05 173.089998 z" style="fill:#fff;color:#000"/><g transform="matrix(0.98981965 -0.22226266 0.24615789 1.0601448 57.718854 89.47068)"><path transform="translate(-3.5 -14.5)" d="m 125.5,117 v -12 l -5,-87 H 7.5 l -4,87 v 12"/><path d="m 3,0 -1.09375,32.125 0,0.09375 L 1.5,43.875 l 59,0 0,-4.875 0,-0.125 L 60.5,0 3,0 z" style="fill:url(#1)"/><path d="M 60.5,38.994 V 0 H 3 L 1.901,32.228 c 18.74,4.836 38.669,7.011 58.599,6.766 z" style="fill:url(#2)"/><path transform="translate(-3.5 -14.5)" d="m 5.966,59.5 h 57.033 v 42 H 4.536" style="fill:url(#3)"/><path d="M 60.5,44 V 88.000001 H 0 L 1.5,44 h 59 m -2,2 H 3.433 L 2.069,86.000001 H 58.5 V 46 l 0,0 z" style="fill:#e80000"/><path transform="translate(-3.5 -14.5)" d="M 4.5,103.499 H 63 v 10.002 H 4.5" style="fill:url(#5)"/><path d="M 60.5,88.000001 V 100 H 0 V 88.000001 h 60.5 m -2,2 H 2 v 8 h 56.5 v -8 l 0,0 z" style="fill:#cb0000"/><path d="m 60.5,0 0,38.875 0,0.125 0,4.875 59.5,0 -0.59375,-12.71875 0,-0.125 L 118,0 60.5,0 z" style="fill:url(#7)"/><path d="M 119.416,31.149 118,0 H 60.5 v 38.994 c 20.042,-0.247 40.085,-2.942 58.916,-7.845 z" style="fill:url(#8)"/><path transform="translate(-3.5 -14.5)" d="m 65.002 59.502 h 57.542 l 1.908 41.996 h -59.45" style="fill:url(#9)"/><path d="m 120,44 2,44.000001 H 60.5 V 44 H 120 m -1.911,2 H 62.5 v 40.000001 h 57.407 L 118.089,46 l 0,0 z" style="fill:#0c0c0c"/><path transform="translate(-3.5 -14.5)" d="m 65.002,103.5 h 59.496 v 9.999 H 65.002" style="fill:url(#B)"/><path d="M 122,88.000001 V 100 H 60.5 V 88.000001 H 122 m -2,2 H 62.5 v 8 H 120 v -8 l 0,0 z" style="fill:#0c0c0c"/><path d="M 60.5,0 V 44 H 1.5 L 3,0 h 57.5 m -2,2 H 4.933 L 3.569,42 H 58.5 V 2 l 0,0 z" style="fill:#e80000"/><path d="m 118,0 2,44 H 60.5 V 0 H 118 m -1.911,2 H 62.5 v 40 h 55.407 l -1.818,-40 0,0 z" style="fill:#3f0000"/><path transform="matrix(1 0 0 1.4614754 -1.9152544 -72.993363)" d="m 120.91525 110.70456 c -1 -0.68083 -113.3329956 -0.34034 -115.9999956 0 32.3329996 0.1701 80.9999996 0.13248 115.9999956 0 z" style="fill:#ff1919;opacity:0.94604319;filter:url(#0)"/></g></svg>