<svg xmlns="http://www.w3.org/2000/svg" viewBox="0 0 256 256"><g transform="translate(0 -796.36)"><path d="m 125.12 1051.42 c -12.627 -1.365 -37.43 -4.37 -50 -10.486 c -42.41 -20.634 -64.11 -64.911 -72.981 -112.45 -2.025 -10.857 -1.855 -33.686 0.327 -43.874 5.306 -24.771 17.1 -44.45 36.94 -61.64 c 13.638 -11.817 31.81 -20.484 49.39 -23.558 39.912 -6.976 85.83 8.941 120.48 41.766 31.837 30.16 48.545 70.36 44.1 106.1 -2.263 18.19 -7.953 33.21 -18.832 49.715 -16.938 25.701 -47.15 46.04 -78.35 52.75 -6.673 1.435 -24.446 2.396 -31.07 1.68 z" style="fill:#fff"/><g transform="matrix(2.5184 0 0 2.51252 49.805 860.67)"><g style="stroke-linecap:round;stroke-linejoin:round"><path d="m 5.624 5.659 h 48.752 v 28.681 h -48.752 v -28.681 z" style="fill:none;stroke:#fff;stroke-width:10"/><g transform="matrix(0.1605 0 0 0.16743 -5.582 -14.364)" style="stroke:#ff4500"><path d="m 69.819 119.6 h 303.75 v 171.31 h -303.75 v -171.31 z" style="fill:#fff;fill-rule:evenodd;stroke-width:30.501"/><path d="m 69.819 119.6 l 150.12 90.41 l 153.63 -90.41" style="fill:none;stroke-width:19.06"/></g></g><g transform="translate(0.808)" style="fill:#ff4500"><g transform="translate(-0.313)" style="stroke:#fff;stroke-linecap:round;stroke-linejoin:round;stroke-width:5"><path d="m 28.864 43.12 v -15.437 c 0 -0.569 0.185 -1.043 0.556 -1.422 0.371 -0.379 0.849 -0.569 1.435 -0.569 0.586 0 1.06 0.177 1.422 0.53 0.371 0.353 0.556 0.84 0.556 1.461 v 5.766 l 6.516 -7.01 c 0.457 -0.5 0.97 -0.75 1.539 -0.75 0.526 0 0.983 0.181 1.37 0.543 0.396 0.353 0.595 0.819 0.595 1.396 0 0.328 -0.103 0.651 -0.31 0.97 -0.207 0.31 -0.539 0.694 -0.996 1.151 l -5 4.978 l 6.115 6.451 c 0.353 0.336 0.625 0.664 0.815 0.983 0.198 0.31 0.297 0.655 0.297 1.034 0 0.603 -0.198 1.064 -0.595 1.383 -0.396 0.31 -0.888 0.465 -1.474 0.465 -0.345 0 -0.659 -0.095 -0.944 -0.284 -0.276 -0.19 -0.629 -0.509 -1.06 -0.957 l -6.865 -7.499 v 6.813 c 0 0.543 -0.185 1 -0.556 1.37 -0.371 0.371 -0.845 0.556 -1.422 0.556 -0.577 0 -1.056 -0.177 -1.435 -0.53 -0.371 -0.353 -0.556 -0.819 -0.556 -1.396 z"/><path d="m 18.266 50.638 l 2.543 2.664 l 4.118 -2.785 l 3.27 1.453 l 1.09 4.773 l 3.512 -0.032 l 0.969 -4.898 l 3.27 -1.297 l 4.118 2.664 l 1.938 -2.664 l -4.673 -4.41 c -11.977 10.985 -19.646 -5.091 -12.04 -13.03 v -2.543 l -1.211 0.606 l -3.754 -2.387 l -2.593 2.13 l 2.351 4.01 l -1.332 3.27 l -4.588 0.762 l -0.014 3.477 l 4.723 1.211 l 1.302 3.179 z"/></g><g style="stroke:none"><path d="m 28.552 43.12 v -15.437 c 0 -0.569 0.185 -1.043 0.556 -1.422 0.371 -0.379 0.849 -0.569 1.435 -0.569 0.586 0 1.06 0.177 1.422 0.53 0.371 0.353 0.556 0.84 0.556 1.461 v 5.766 l 6.516 -7.01 c 0.457 -0.5 0.97 -0.75 1.539 -0.75 0.526 0 0.983 0.181 1.37 0.543 0.396 0.353 0.595 0.819 0.595 1.396 0 0.328 -0.103 0.651 -0.31 0.97 -0.207 0.31 -0.539 0.694 -0.996 1.151 l -5 4.978 l 6.115 6.451 c 0.353 0.336 0.625 0.664 0.815 0.983 0.198 0.31 0.297 0.655 0.297 1.034 0 0.603 -0.198 1.064 -0.595 1.383 -0.396 0.31 -0.888 0.465 -1.474 0.465 -0.345 0 -0.659 -0.095 -0.944 -0.284 -0.276 -0.19 -0.629 -0.509 -1.06 -0.957 l -6.865 -7.499 v 6.813 c 0 0.543 -0.185 1 -0.556 1.37 -0.371 0.371 -0.845 0.556 -1.422 0.556 -0.577 0 -1.056 -0.177 -1.435 -0.53 -0.371 -0.353 -0.556 -0.819 -0.556 -1.396 z"/><path d="m 17.953 50.638 l 2.543 2.664 l 4.118 -2.785 l 3.27 1.453 l 1.09 4.773 l 3.512 -0.032 l 0.969 -4.898 l 3.27 -1.297 l 4.118 2.664 l 1.938 -2.664 l -4.673 -4.41 c -11.977 10.985 -22.327 -5.946 -12.04 -13.03 v -2.543 l -1.211 0.606 l -3.754 -2.387 l -2.593 2.13 l 2.351 4.01 l -1.332 3.27 l -4.588 0.762 l -0.014 3.477 l 4.723 1.211 l 1.302 3.179 l -2.997 3.845 z" style="fill-rule:evenodd"/></g></g></g></g></svg>