<svg xmlns="http://www.w3.org/2000/svg" viewBox="0 0 256 256"><defs><clipPath><rect y="56" x="-202" width="84" rx="10" height="88" style="fill:none;stroke:#000;display:block;color:#000"/></clipPath><clipPath><rect y="56" x="-202" width="84" rx="10" height="88" style="fill:none;stroke:#000;display:block;color:#000"/></clipPath><clipPath><rect y="56" x="-202" width="84" rx="10" height="88" style="fill:none;stroke:#000;display:block;color:#000"/></clipPath></defs><g transform="translate(0 -796.36)"><path d="m 252.75 895.07 c -49.981 -239.91 -393.86 17.642 -187.29 139.59 80.25 52.27 213 -16.2 187.29 -139.59 z" style="fill:#fff;color:#000"/><path d="m 117.45 1018.65 c -5.03 -4.405 -6.524 -15.355 -3.04 -22.22 3.483 -6.857 2.848 -8.386 -5.789 -13.96 -11.132 -7.182 -13.813 -9.876 -20.81 -20.909 -3.355 -5.291 -6.892 -9.598 -7.858 -9.569 -0.967 0.028 -3.331 0.967 -5.255 2.087 -4.351 2.534 -14.929 2.693 -19.585 0.294 -5.04 -2.597 -7.147 -8.02 -6.111 -15.729 1.633 -12.142 8.6 -15.12 23.11 -9.864 7.542 2.729 9.508 1.742 9.556 -4.795 0.012 -1.66 1.356 -6.288 2.987 -10.286 3.435 -8.423 2.874 -11.176 -2.555 -12.525 -5.781 -1.436 -15.628 -8.739 -18.695 -13.865 -5.232 -8.739 -2.059 -19.62 7.136 -24.462 10.146 -5.345 20.722 0.551 27.999 15.616 2.485 5.143 4.983 9.35 5.551 9.35 0.568 0 4.592 -1.603 8.941 -3.563 4.349 -1.959 9.306 -3.573 11.02 -3.585 6.569 -0.047 7.547 -2.01 4.854 -9.738 -5.141 -14.749 -1.561 -22.473 11.12 -23.967 6.761 -0.799 7.563 -0.556 11.541 3.497 3.655 3.724 4.275 5.414 4.275 11.659 0 4.02 -0.939 9.158 -2.088 11.421 -2.763 5.443 -1.685 7.718 5.768 12.168 9.527 5.688 15.214 11.367 21.446 21.426 3.132 5.05 6.236 9.184 6.9 9.184 0.663 0 3.467 -0.962 6.228 -2.138 2.762 -1.176 7.924 -2.138 11.467 -2.138 5.261 0 7.2 0.766 10.537 4.166 2.598 2.647 4.086 5.635 4.082 8.195 -0.013 6.666 -2.745 14.598 -5.557 16.13 -3.893 2.123 -11.01 1.759 -17.884 -0.915 -3.857 -1.5 -6.543 -1.861 -7.396 -0.992 -1.175 1.197 -4.547 12.252 -6.544 21.455 -0.412 1.897 0.479 4.646 2.246 6.935 3.379 4.376 7.497 15.558 6.381 18.516 -1.202 3.191 -5.078 6.083 -5.916 0.791 l -1.719 -0.629 l -2.952 1.606 l -3.822 -3.287 l 12.394 0.631 c 5.613 2.791 -3.152 5.782 -9.595 5.782 -3.372 0 -7.232 -1.267 -10.276 -3.371 -7.04 -4.869 -8.149 -5.02 -14.865 -2.109 -3.334 1.446 -7.462 2.629 -9.175 2.629 -1.712 0 -4.324 0.901 -5.802 2 -2.589 1.928 -2.598 2.194 -0.268 7.175 3.256 6.954 3.209 18.16 -0.086 21.2 -1.378 1.272 -5.98 2.727 -10.226 3.236 -6.87 0.822 -8.153 0.544 -11.662 -2.531 z m 17.995 -1.964 c 1.209 -1.232 2.173 -3.316 2.142 -4.632 -0.086 -3.689 0.606 -0.264 0.541 3.092 -0.076 3.918 -4.862 3.673 -8.993 3.673 -3.179 0 -13.378 -4.814 -12.545 -10.149 0.549 -3.496 5.151 -16.823 4.282 -16.823 -0.826 0 5.571 -12.992 0.331 5.574 -2.991 10.598 -0.256 18.94 5.947 20.475 4.95 1.229 6.05 1.067 8.294 -1.214 z m -51.17 -89.72 c 2.041 -0.496 0.43 -6.781 3.892 -10.708 5.793 -6.565 -0.677 8.06 -0.677 10.924 0 0.634 31.544 12.629 32.741 14.15 2.101 2.672 -34.12 -7.127 -35.543 -10.134 -3.262 -6.88 1.237 -28.909 8.181 -32.568 5.715 -3.01 43.578 19.969 49.596 24.13 l 5.218 3.607 l -5.203 -0.761 c -6.137 -0.897 -47.59 -27.898 -48.687 -27.898 -3.187 0 12.09 -9.767 15.52 -10.874 1.712 -0.554 12.394 0.237 15.729 -2.595 4.617 -3.919 15.529 1.642 15.07 -0.826 -0.352 -1.904 13.35 5.615 16.743 10.264 1.876 2.571 -6.094 -5.183 -18.222 -7.461 -7.821 -1.468 -10.283 -1.345 -18.643 0.93 -8.6 2.34 -12.375 1.408 -20.683 9.813 -10.407 10.535 -12.03 20.695 -12.03 34.702 0 9.98 8.572 23.375 6.07 21.965 -5.218 -2.939 -11.11 -26.18 -9.07 -26.671 z m -8.097 25.683 c -2.319 2.994 -14.286 0.573 -18.352 1.181 -4.451 0.665 -5.939 -21.22 -2.882 -23.254 1.061 -0.706 18.313 5.658 19.66 5.987 4.823 1.178 0.648 4.03 -6.949 0.603 -9.606 -4.328 -12.857 -6.766 -9.345 -3.338 3.579 3.495 -5.934 12.871 -2.101 15.238 2.486 1.535 23.785 -1.351 19.973 3.583 z m 63.37 -12.211 c 2.028 -1.625 3.686 -4.219 3.686 -5.765 0 -3.371 -5.967 -9.808 -9.09 -9.808 -1.224 0 -3.77 1.574 -5.659 3.499 -1.888 1.924 -3.433 4.519 -3.433 5.765 0 2.807 6.162 9.264 8.841 9.264 1.085 0 3.632 -1.329 5.659 -2.953 z m 76.54 -5.808 c 2.418 -4.603 -0.638 -13.775 -5.175 -15.529 -4.222 -1.635 -11.134 2.97 -12.583 5.177 -1.927 2.939 3.292 -7.932 7.03 -9.382 4.75 -1.841 14 14.335 14 18.03 0 2.307 -18.813 4.675 -22.38 4.675 -5.657 0 -9.07 1.043 0.373 -2.04 14.386 -4.696 6.536 -1.554 8.525 -5.334 z m -145.95 -66.38 c 3.494 -4.526 8.472 5.997 2.79 -2.499 -4.913 -7.345 7.942 -0.744 3.943 -0.744 -1.669 0 -0.796 6.925 -3.352 9.612 -5.198 5.464 -9.527 4.128 -4.314 10.877 3.321 4.302 -8.791 -7.759 -5.171 -7.742 1.291 0.007 4.518 -7.451 6.103 -9.505 z m 17.349 22.483 c 0.307 -0.941 11.932 1.01 12.49 1.066 1.673 0.177 -9.568 -0.538 -11.372 0.075 -0.923 0.313 -1.427 -0.2 -1.119 -1.141 z m 60.5 -14.08 c 0.395 -0.652 -11.579 -11.09 -11.131 -16.12 0.976 -10.991 13.461 -1.293 5.34 -2.806 -10.611 -1.977 19.05 -2.02 7.435 7.101 -5.715 4.492 -7.707 -15.05 -5.782 -14.265 4.074 1.668 3.246 27.56 4.139 26.09 z m -16.282 -22.309 c 0 -1.567 13.22 18.11 13.989 18.11 0.769 0 -3.404 -10.284 -3.404 -8.717 0 1.567 0.316 11.247 -0.453 11.247 -0.769 0 -10.132 -19.08 -10.132 -20.646 z" style="fill:#ff4500"/></g></svg>