<svg xmlns="http://www.w3.org/2000/svg" viewBox="0 0 256 256" xmlns:xlink="http://www.w3.org/1999/xlink"><defs><path id="1" d="m 62.04 19.959 c 13.83 13.83 13.83 36.25 0 50.08" style="fill:none;color:#000;stroke-linejoin:round"/><filter style="color-interpolation-filters:sRGB"><feGaussianBlur stdDeviation="1.71"/></filter><linearGradient gradientTransform="scale(1.0059 0.99417)" gradientUnits="userSpaceOnUse" id="0" y2="7.02" x2="0" y1="92.54"><stop/><stop offset="1" style="stop-opacity:0.588"/></linearGradient></defs><g transform="translate(0 -796.36)"><path d="m 0.704 927.01 c 1.365 12.627 4.37 37.43 10.486 50 20.634 42.41 64.911 64.11 112.45 72.981 10.857 2.025 33.686 1.855 43.874 -0.328 24.771 -5.306 44.45 -17.1 61.64 -36.939 11.817 -13.638 20.484 -31.81 23.558 -49.39 6.976 -39.912 -8.941 -85.83 -41.766 -120.48 -30.16 -31.837 -70.36 -48.545 -106.1 -44.1 -18.19 2.263 -33.21 7.953 -49.715 18.832 -25.701 16.938 -46.04 47.15 -52.75 78.35 -1.435 6.673 -2.396 24.446 -1.68 31.07 z" style="fill:#fff"/><g transform="matrix(1.19635 0 0 1.21286 46.939 845.68)" style="stroke:#ff4500"><g transform="matrix(1.18463 0 0 1.18463 -925.12 -412.76)"><g style="fill:#ff4500"><path d="m 823,384 -10,10 0,18 10,10 z"/><path d="m 808.38 394 c -4.063 0 -4.375 1.55 -4.375 6.187 v 4.821 c 0 4.638 0.412 6.991 4.375 6.991 h 2.625 v -18 z"/></g><use transform="matrix(1.04479 0 0 1.04479 785.34 355.98)" xlink:href="#1" style="stroke-width:4.848"/><use transform="matrix(0.70594 0 0 0.70594 797.88 371.23)" xlink:href="#1" style="stroke-width:7.175"/><use transform="matrix(0.36709 0 0 0.36709 810.42 386.48)" xlink:href="#1" style="stroke-width:13.797"/></g><path transform="matrix(0.87645 0 0 0.90338 4.161 2.189)" d="m 133.64 67.896 c 0 34.952 -29.2 63.29 -65.23 63.29 -36.03 0 -65.23 -28.334 -65.23 -63.29 0 -34.952 29.2 -63.29 65.23 -63.29 36.03 0 65.23 28.334 65.23 63.29 z" style="fill:#005c94;fill-opacity:0;stroke-linecap:round;stroke-width:8.429"/></g></g></svg>