<svg xmlns="http://www.w3.org/2000/svg" viewBox="0 0 256 256"><defs><clipPath><path transform="matrix(15.33333 0 0 11.5 415 -125.5)" d="m -24 13 c 0 1.105 -0.672 2 -1.5 2 -0.828 0 -1.5 -0.895 -1.5 -2 0 -1.105 0.672 -2 1.5 -2 0.828 0 1.5 0.895 1.5 2 z"/></clipPath></defs><path d="m 222.65 37.868 c 145.18 221.56 -251.35 307.3 -219.76 79.37 12.881 -92.96 164.23 -164.13 219.76 -79.37 z" transform="translate(0.508 2.624)" style="fill:#fff;color:#000"/><g transform="matrix(2.3211 0 0 2.39915 57.46 60.16)" style="stroke:#ff4500;stroke-linejoin:round"><path d="m 3.906,56.09 7.03,-43.12 2.813,33.13 5.469,-10.313 10.938,-5 1.25,-8.125 2.031,26.09 4.375,-11.25 4.219,13.594 4.531,-35 2.656,37.34 7.03,-8.125 v 11.09 L 3.908,56.088 z" transform="matrix(1 0 0 1.05862 0 -3.205)" style="fill:#ff4500;fill-rule:evenodd;stroke-linecap:round;stroke-width:2.565"/><path transform="translate(0 0.156)" d="m 5.544,3.438 c -1.167,0 -2.106,0.939 -2.106,2.106 v 49.23 c 0,1.167 0.939,2.106 2.106,2.106 h 49.23 c 1.167,0 2.106,-0.939 2.106,-2.106 V 5.544 c 0,-1.167 -0.939,-2.106 -2.106,-2.106 H 5.544 z" style="fill:none;stroke-width:3.299"/></g></svg>