<svg xmlns="http://www.w3.org/2000/svg" xmlns:xlink="http://www.w3.org/1999/xlink" viewBox="0 0 256 256"><g transform="translate(0 -796.36)"><path d="m 229.63 992.2 c 92.05 -130.93 -77.948 -263.6 -186.39 -156.91 -102.17 100.51 -7.449 256.68 119.69 207.86 c 26.526 -10.185 49.802 -26.914 66.7 -50.948 z" style="fill:#fff;color:#000"/><g transform="matrix(0.87998 0 0 0.99593 26.869 -4.24)"><path d="m 115.38,952.82 v 13.656 h -15.281 c -2.771,0 -5,2.229 -5,5 0,2.771 2.229,5 5,5 h 55.813 c 2.771,0 5,-2.229 5,-5 0,-2.771 -2.229,-5 -5,-5 H 140.631 V 952.82 h -25.25 z" id="0" style="fill:#ff4500;color:#000"/><path d="m 63.19,872.63 c -2.348,0 -4.25,1.902 -4.25,4.25 v 76.875 c 0,2.348 1.902,4.219 4.25,4.219 h 129.63 c 2.348,0 4.25,-1.871 4.25,-4.219 V 876.88 c 0,-2.348 -1.902,-4.25 -4.25,-4.25 z m 8.288,11.215 h 113.05 v 62.913 H 71.478 z" id="1" style="fill:#ff4500;color:#000"/></g><g transform="matrix(0.71385 0 0 0.8566 2.354 170.11)"><use xlink:href="#0" width="256" height="256"/><use xlink:href="#1" width="256" height="256"/></g><g transform="translate(0 796.36)" style="fill:#ffdead;fill-rule:evenodd"><path d="m 53.37 157.51 v -26.576 h 12.475 h 12.475 v 10.09 c 0 6.4 0.476 10.564 1.302 11.39 0.933 0.933 8 1.302 24.949 1.302 h 23.647 v 3.797 v 3.797 h -7.425 c -6.084 0 -7.785 0.398 -9.418 2.202 -1.578 1.744 -1.778 2.817 -0.958 5.153 1.025 2.921 1.146 2.953 12.13 3.259 l 11.09 0.309 v 5.928 v 5.928 h -40.14 h -40.14 v -26.576 z"/><path d="m 90.25 136.35 v -5.424 h 21.695 h 21.695 v 5.424 v 5.424 h -21.695 h -21.695 v -5.424 z"/></g></g></svg>