<svg xmlns="http://www.w3.org/2000/svg" viewBox="0 0 256 256"><defs><clipPath><path d="m 27.643 3.295 l 13.09 13.09 h -11.07 c -0.978 0 -2.01 -1.035 -2.01 -2.01 v -11.07 z"/></clipPath></defs><g transform="translate(1774.03 -1727.32)"><path d="m -1583.78 1962.12 c -329.42 135.66 -174.65 -434.9 40.478 -157.85 37.47 49.706 40.36 133.17 -40.478 157.85 z" style="fill:#fff;color:#000"/><g style="fill:#ff4500"><path d="m 472.36 157 c -4.593 4.741 -15.261 14.766 -15.261 14.766 l 27.603 24.479 c 0 0 10.721 -12.05 15.587 -17.07 1.209 -1.248 0.902 -3.882 -0.435 -4.992 -4.172 -3.464 -11.08 -9.08 -11.08 -9.08 0 0 -6.516 -5.451 -10.527 -8.781 -1.464 -1.216 -4.558 -0.685 -5.882 0.682 z m -26.27 24.638 l -66.52 68.53 l 1.992 25.573 l 27.329 -1.634 l 65.791 -67.893 z" transform="translate(-2084.21 1652.07)" style="image-rendering:optimizeSpeed;fill-rule:evenodd"/><path d="m 769.05 288.6 v -24 h -514 v 24 h 514 z m 0 95.25 v -24 h -514 v 24 h 514 z m 0 95.25 v -24 h -514 v 24 h 514 z m 0 95.25 v -24 h -514 v 24 h 514 z m 0 95.25 v -24 h -514 v 24 h 514 z m 0 95.25 v -24 h -514 v 24 h 514 z" transform="matrix(0.24869 0 0 0.28165 -1777.75 1715.09)" style="fill-opacity:0.2;stroke:#ff4500"/></g><g transform="translate(-1774.03 1727.32)" style="fill:#ffdead;stroke:none;fill-rule:evenodd"><path d="m 60.15 65.75 v -3.01 h 63.21 h 63.21 v 3.01 v 3.01 h -63.21 h -63.21 v -3.01 z"/><path d="m 60.25 92.42 v -2.949 h 46.767 h 46.767 l -2.913 2.949 l -2.913 2.949 h -43.855 h -43.855 v -2.949 z"/><path d="m 60.25 119.24 v -2.949 h 32.826 h 32.826 l -2.913 2.949 l -2.913 2.949 h -29.913 h -29.913 v -2.949 z"/><path d="m 151.45 119.37 l -3.264 -2.815 l 10.224 -0.146 l 10.224 -0.146 l 2.983 2.549 l 2.983 2.549 l 2.297 -2.537 l 2.297 -2.537 h 4.069 h 4.069 v 2.949 v 2.949 h -16.309 h -16.309 l -3.264 -2.815 z"/><path d="m 150.34 146.05 l 2.913 -2.949 h 17.04 h 17.04 v 2.949 v 2.949 h -19.956 h -19.956 l 2.913 -2.949 z"/><path d="m 60.25 146.05 v -2.949 h 19.614 h 19.614 l -2.52 2.949 l -2.52 2.949 h -17.09 h -17.09 v -2.949 z"/><path d="m 60.25 172.86 v -2.949 h 6.814 h 6.814 l -2.257 2.299 c -1.241 1.265 -2.257 2.592 -2.257 2.949 0 0.458 -1.345 0.65 -4.558 0.65 h -4.558 v -2.949 z"/><path d="m 137.91 175.94 c 9.238 -0.082 24.2 -0.082 33.25 0 9.05 0.082 1.49 0.15 -16.796 0.15 -18.285 0 -25.688 -0.067 -16.45 -0.15 z"/><path d="m 124.35 172.86 l 2.52 -2.949 h 30.23 h 30.23 v 2.949 v 2.949 h -32.751 h -32.751 l 2.52 -2.949 z"/><path d="m 60.25 199.67 v -2.949 h 5.362 h 5.362 v 1.877 c 0 1.849 0.033 1.877 2.279 1.884 1.253 0.004 7.442 -0.283 13.752 -0.637 10.716 -0.602 11.57 -0.726 12.947 -1.884 l 1.474 -1.24 h 42.955 h 42.955 v 2.949 v 2.949 h -63.54 h -63.54 v -2.949 z"/></g></g></svg>