<svg xmlns="http://www.w3.org/2000/svg" viewBox="0 0 256 256"><g transform="translate(0 -796.36)"><path d="m 193.83 815.03 c 225.34 193.41 -237.98 379.39 -190.37 80.26 10.438 -65.59 129.65 -132.38 190.37 -80.26 z" style="fill:#fff;color:#000"/><g transform="matrix(1.40292 0 0 1.30591 35.23 843.93)"><path d="m 105.94 103.56 c -0.203 -4.816 -7.443 -19.14 -7.272 -24.694 0.195 -6.301 4.01 -14.06 11.941 1.11 4.755 9.09 12.05 3.434 12.939 -0.989 2.675 -13.382 -1.297 -29.432 -13.948 -45.16 c -21.882 -27.2 -60.35 -34.667 -85.89 -16.681 -25.541 17.988 -26.05 58.49 -2.747 81.97 c 21.13 21.271 50.26 30.62 74.62 20.369 2.519 -1.065 10.853 -4.327 10.356 -15.924 z m -68.42 -78.863 c 4.609 -3.246 10.975 -2.142 14.223 2.469 3.248 4.61 2.141 10.977 -2.468 14.223 -4.613 3.248 -10.977 2.142 -14.225 -2.468 -3.248 -4.61 -2.143 -10.975 2.471 -14.224 z m -19.902 41.484 c -3.246 -4.61 -2.138 -10.977 2.471 -14.223 4.607 -3.246 10.977 -2.144 14.223 2.466 3.248 4.611 2.138 10.98 -2.468 14.225 -4.609 3.247 -10.979 2.147 -14.225 -2.468 z m 49.55 -26.57 c -3.25 -4.61 -2.143 -10.98 2.468 -14.225 4.61 -3.246 10.975 -2.141 14.225 2.471 3.246 4.609 2.14 10.975 -2.471 14.223 -4.61 3.247 -10.976 2.143 -14.223 -2.468 z m -34.531 52.624 c -3.246 -4.614 -2.142 -10.983 2.467 -14.229 4.61 -3.246 10.98 -2.141 14.225 2.468 3.246 4.611 2.142 10.981 -2.468 14.226 -4.609 3.248 -10.977 2.141 -14.224 -2.466 z" style="fill:#ff4500"/><path d="m 40.26 43.42 c -5.221 -1.634 -8.763 -7.572 -7.639 -12.809 c 0.562 -2.62 1.637 -4.553 3.505 -6.3 2.472 -2.312 4.267 -3.01 7.739 -3.01 3.48 0 5.267 0.698 7.765 3.035 6.205 5.804 3.983 16.233 -4.064 19.07 -1.707 0.602 -5.403 0.61 -7.306 0.014 z" style="fill:#ffe4c4"/><path d="m 72.1 44.03 c -5.01 -1.569 -8.414 -7.27 -7.335 -12.299 0.539 -2.516 1.572 -4.372 3.366 -6.05 2.374 -2.22 4.097 -2.891 7.431 -2.891 3.342 0 5.057 0.67 7.455 2.914 5.958 5.573 3.825 15.586 -3.902 18.312 -1.639 0.578 -5.188 0.585 -7.01 0.013 z" style="fill:#dc143c"/><path d="m 23.262 70.69 c -5.01 -1.569 -8.414 -7.27 -7.335 -12.299 0.539 -2.516 1.572 -4.372 3.366 -6.05 2.374 -2.22 4.097 -2.891 7.431 -2.891 3.342 0 5.057 0.67 7.455 2.914 5.958 5.573 3.825 15.586 -3.902 18.312 -1.639 0.578 -5.188 0.585 -7.01 0.013 z" style="fill:#ffa07a"/><path d="m 37.644 96.76 c -5.01 -1.569 -8.414 -7.27 -7.335 -12.299 0.539 -2.516 1.572 -4.372 3.366 -6.05 2.374 -2.22 4.097 -2.891 7.431 -2.891 3.342 0 5.057 0.67 7.455 2.914 5.958 5.573 3.825 15.586 -3.902 18.312 -1.639 0.578 -5.188 0.585 -7.01 0.013 z" style="fill:#ffdead"/><path d="m 122.45 11.91 c -0.397 0.001 -0.659 0.057 -0.998 0.215 -1.115 0.519 -1.919 1.248 -4.56 4.133 -10.924 11.936 -18.651 21.845 -25.487 32.686 -4.488 7.117 -8.305 13.89 -14.783 26.22 -1.183 2.253 -2.22 4.172 -2.304 4.265 -0.084 0.093 -0.454 0.701 -0.822 1.352 -2.519 4.45 -4.816 9.267 -6.687 14.02 -0.891 2.265 -0.733 2.061 -1.781 2.292 -3.056 0.673 -6.286 2.47 -8.38 4.663 -1.735 1.816 -2.554 3.365 -4.708 8.911 -1.289 3.319 -1.551 3.929 -2.176 5.074 -1.741 3.194 -4.335 5.611 -8.993 8.38 -0.497 0.295 -0.924 0.572 -0.951 0.615 -0.021 0.034 0.101 0.097 0.301 0.172 0.107 -0.067 0.201 -0.13 0.33 -0.206 4.199 -2.466 7.159 -5.113 8.819 -7.887 0.611 -1.021 1.405 -2.816 2.493 -5.638 2.056 -5.33 2.818 -6.826 4.406 -8.654 1.46 -1.681 3.819 -3.32 6.153 -4.274 0.986 -0.403 2.441 -0.833 3.068 -0.907 0.247 -0.029 0.484 -0.096 0.526 -0.148 0.042 -0.052 0.362 -0.823 0.711 -1.714 1.321 -3.375 2.691 -6.441 4.386 -9.82 0.988 -1.97 2.96 -5.632 3.131 -5.816 0.07 -0.076 9.315 5.524 9.315 5.642 0 0.102 -1.717 2.562 -2.897 4.15 -0.995 1.34 -2.181 2.847 -3.432 4.375 0.483 -0.579 1.041 -1.236 1.382 -1.66 1.718 -2.137 4.917 -6.552 5.152 -7.112 0.062 -0.148 0.956 -1.44 1.985 -2.871 3.584 -4.981 8.563 -11.997 10.541 -14.849 4.532 -6.536 8.296 -12.392 11.648 -18.21 4.336 -7.526 7.983 -14.986 11.712 -23.767 1.447 -3.408 3.406 -8.27 3.722 -9.237 0.681 -2.086 0.693 -3.427 0.035 -4.085 -0.301 -0.301 -0.346 -0.317 -0.856 -0.316 z m -48.01 69.02 c -0.059 0.023 -0.365 0.508 -0.68 1.079 -0.438 0.794 -0.554 1.072 -0.49 1.176 0.103 0.168 6.979 5.278 7.106 5.281 0.05 0.001 0.169 -0.084 0.265 -0.189 0.356 -0.393 1.733 -2.448 1.702 -2.54 -0.001 -0.004 -0.118 -0.076 -0.13 -0.086 -0.028 0.122 -0.231 0.411 -0.992 1.486 -0.37 0.523 -0.715 0.948 -0.767 0.946 -0.118 -0.004 -6.822 -4.937 -6.929 -5.098 -0.056 -0.084 0.062 -0.371 0.408 -0.992 0.268 -0.481 0.536 -0.926 0.596 -0.987 0.006 -0.007 0.025 -0.005 0.038 -0.006 -0.012 -0.005 -0.124 -0.072 -0.127 -0.071 z m -1.486 2.792 c -0.171 0.038 -0.398 0.474 -1.574 2.847 -0.683 1.379 -1.134 2.385 -1.117 2.496 0.028 0.189 0.56 0.455 5.615 2.811 l 1.436 0.67 l 0.201 -0.189 c 0.11 -0.104 0.691 -0.83 1.293 -1.613 1.311 -1.708 1.341 -1.735 1.141 -1.917 -0.042 0.134 -0.646 0.948 -1.764 2.366 -0.412 0.523 -0.776 0.948 -0.807 0.945 -0.118 -0.01 -6.769 -3.167 -6.855 -3.254 -0.064 -0.065 0.28 -0.832 1.185 -2.647 0.905 -1.814 1.224 -2.393 1.364 -2.479 -0.003 -0.001 -0.044 -0.031 -0.045 -0.032 -0.025 -0.007 -0.048 -0.008 -0.073 -0.003 z m -2.944 5.939 c -0.172 -0.002 -1.568 3.139 -1.524 3.429 0.03 0.201 5.03 3.715 5.252 3.689 0.08 -0.009 0.833 -0.838 1.675 -1.841 0.842 -1 1.519 -1.883 1.506 -1.953 -0.001 -0.005 -0.151 -0.079 -0.174 -0.094 -0.102 0.177 -0.637 0.855 -1.37 1.722 -0.814 0.964 -1.526 1.75 -1.583 1.746 -0.138 -0.008 -5.03 -3.387 -5.077 -3.509 -0.05 -0.12 1.194 -2.932 1.386 -3.149 -0.009 -0.002 -0.088 -0.039 -0.092 -0.039 z m -1.71 4.129 c -0.196 -0.005 -0.258 0.112 -0.862 1.61 -0.358 0.889 -0.654 1.733 -0.658 1.876 -0.008 0.321 0.466 1.135 0.952 1.637 0.778 0.804 2.191 1.241 3.213 0.992 0.105 -0.026 0.668 -0.585 1.25 -1.243 1.172 -1.324 1.198 -1.361 1.116 -1.488 -0.006 -0.009 -0.113 -0.083 -0.133 -0.101 -0.089 0.17 -0.353 0.49 -0.962 1.169 -0.605 0.676 -1.162 1.252 -1.237 1.281 -0.075 0.029 -0.274 0.048 -0.444 0.042 -1.451 -0.047 -2.635 -0.766 -3.293 -2 l -0.275 -0.517 l 0.5 -1.291 c 0.512 -1.321 0.706 -1.791 0.835 -1.965 0 0 -0.003 -0.001 -0.003 -0.001 z m 8.02 1.194 c -0.134 0.16 -0.268 0.319 -0.402 0.479 0.152 -0.178 0.252 -0.302 0.402 -0.479 z m -4.295 5.01 c -0.151 0.199 -0.238 0.334 -0.225 0.372 0.025 0.074 0.141 0.403 0.256 0.73 0.404 1.154 0.514 1.921 0.513 3.573 -0.001 1.913 -0.175 2.912 -0.818 4.72 -0.091 0.257 -0.206 0.516 -0.319 0.776 0.256 -0.543 0.478 -1.072 0.641 -1.571 0.515 -1.576 0.677 -2.607 0.673 -4.292 -0.005 -1.603 -0.143 -2.496 -0.57 -3.669 -0.105 -0.288 -0.16 -0.541 -0.15 -0.638 z" style="fill:#eee8aa"/><path d="m 45.22 126.08 c -1.591 -0.174 -3.284 -0.515 -4.868 -0.981 -0.316 -0.093 -0.574 -0.197 -0.574 -0.232 0 -0.035 0.354 -0.27 0.786 -0.524 4.215 -2.471 7.185 -5.123 8.851 -7.902 0.613 -1.023 1.41 -2.822 2.503 -5.648 2.063 -5.339 2.828 -6.838 4.421 -8.669 1.466 -1.684 3.833 -3.325 6.177 -4.281 0.946 -0.386 2.402 -0.822 3.02 -0.904 0.5 -0.066 0.486 -0.044 1.37 -2.293 1.562 -3.976 3.559 -8.296 5.494 -11.886 1.397 -2.591 1.956 -3.539 2.069 -3.511 0.079 0.019 7.612 4.589 9.115 5.53 0.386 0.241 0.446 0.096 -0.76 1.832 -2.516 3.621 -5.844 7.79 -9.291 11.64 -0.727 0.812 -1.354 1.534 -1.394 1.605 -0.046 0.082 0.006 0.368 0.142 0.782 0.422 1.281 0.523 1.986 0.521 3.635 -0.001 1.916 -0.176 2.918 -0.822 4.729 -0.511 1.434 -1.29 2.79 -3.13 5.453 -1.219 1.764 -3.832 4.52 -5.768 6.083 -2.763 2.231 -5.888 3.901 -8.962 4.787 -2.754 0.795 -6 1.069 -8.901 0.752 z m 25.881 -26.672 c 0.075 -0.029 0.635 -0.61 1.244 -1.292 0.899 -1.01 1.087 -1.259 0.997 -1.345 -0.221 -0.211 -4.621 -3.216 -4.764 -3.255 -0.171 -0.046 -0.244 0.106 -1.012 2.092 l -0.504 1.303 l 0.277 0.522 c 0.662 1.245 1.853 1.97 3.313 2.02 0.172 0.006 0.373 -0.014 0.448 -0.042 z m 4.424 -4.953 c 0.819 -0.972 1.477 -1.806 1.462 -1.853 -0.04 -0.121 -6.615 -3.209 -6.735 -3.163 -0.128 0.049 -1.482 3.113 -1.431 3.237 0.051 0.123 4.971 3.532 5.11 3.54 0.057 0.004 0.775 -0.789 1.594 -1.761 z m 2.826 -3.451 c 1.165 -1.481 1.809 -2.347 1.809 -2.434 0 -0.097 -6.699 -5.05 -6.901 -5.107 -0.113 -0.03 -0.409 0.498 -1.426 2.542 -0.911 1.831 -1.257 2.606 -1.193 2.671 0.087 0.088 6.781 3.272 6.9 3.282 0.032 0.003 0.397 -0.426 0.812 -0.954 z m 3.056 -4.09 c 1.157 -1.639 1.084 -1.513 0.953 -1.64 -0.064 -0.062 -1.796 -1.135 -3.848 -2.385 -3.076 -1.874 -3.75 -2.253 -3.839 -2.159 -0.06 0.062 -0.329 0.51 -0.599 0.995 -0.349 0.627 -0.468 0.916 -0.411 1 0.108 0.163 6.856 5.139 6.974 5.143 0.052 0.002 0.399 -0.428 0.771 -0.955 z" style="fill:#d2b48c"/><path d="m 45.45 126.16 c -1 -0.101 -2.28 -0.302 -3.237 -0.507 -0.973 -0.209 -2.598 -0.676 -2.598 -0.747 0 -0.03 0.399 -0.38 0.873 -0.666 4.06 -2.455 7.01 -4.814 8.669 -7.495 0.618 -1 1.319 -2.463 1.962 -4.094 2.178 -5.523 2.882 -7.179 3.055 -7.179 0.081 0 0.235 0.459 0.765 2.282 0.474 1.629 1.041 2.746 1.656 3.262 0.505 0.423 1.135 0.649 1.798 0.644 0.834 -0.005 1.549 -0.202 3.328 -0.914 1.832 -0.733 2.375 -0.883 3.21 -0.883 0.845 0 1.331 0.241 2.059 1.02 0.807 0.864 1.451 2.205 1.631 3.394 0.05 0.329 0.028 0.435 -0.136 0.67 -0.493 0.897 -1.899 2.385 -3.047 3.544 -4.29 4.335 -9.09 6.698 -14.451 7.514 -1.279 0.195 -4.305 0.279 -5.537 0.154 z" style="fill:#dc143c"/><g style="fill:#999;stroke:#999"><path d="m 69.58 99.51 c -0.553 -0.152 -1.199 -0.529 -1.604 -0.933 -0.349 -0.349 -0.928 -1.241 -0.93 -1.433 -0.002 -0.2 1.259 -3.271 1.36 -3.31 0.156 -0.06 4.68 2.999 4.766 3.223 0.047 0.121 -0.328 0.593 -1.441 1.813 l -0.692 0.758 l -0.541 -0.007 c -0.297 -0.004 -0.711 -0.054 -0.918 -0.112 z" style="stroke-width:0.697"/><g style="stroke-width:0.074"><path d="m 72.37 95.15 c -1.972 -1.352 -3.334 -2.322 -3.444 -2.455 -0.065 -0.078 0.032 -0.387 0.373 -1.189 0.253 -0.596 0.57 -1.298 0.702 -1.562 0.226 -0.447 0.255 -0.473 0.445 -0.401 0.451 0.171 3.059 1.38 4.732 2.192 l 1.778 0.864 l -0.461 0.584 c -0.672 0.85 -2.095 2.515 -2.373 2.777 l -0.24 0.226 l -1.512 -1.036 z"/><path d="m 75.62 91.04 c -3.213 -1.52 -4.961 -2.379 -4.961 -2.438 0 -0.111 1.253 -2.698 1.78 -3.677 0.294 -0.546 0.59 -1.096 0.657 -1.223 0.147 -0.278 -0.093 -0.418 2.351 1.369 2.703 1.976 4.639 3.444 4.641 3.52 0.001 0.083 -1.875 2.558 -2.283 3.01 l -0.298 0.331 l -1.886 -0.892 z"/></g><path d="m 78.6 86.38 c -2.793 -2.026 -4.913 -3.636 -4.913 -3.731 0 -0.224 0.966 -1.878 1.096 -1.876 0.216 0.003 7.596 4.478 7.596 4.606 0 0.078 -1.428 2.094 -1.633 2.306 -0.137 0.142 -0.225 0.089 -2.145 -1.305 z" style="stroke-width:0.151"/></g></g></g></svg>