<svg xmlns="http://www.w3.org/2000/svg" xmlns:xlink="http://www.w3.org/1999/xlink" viewBox="0 0 256 256"><defs><linearGradient id="3"><stop style="stop-color:#5a5a5a"/><stop offset="1" style="stop-color:#101010"/></linearGradient><linearGradient x2="1012.86" x1="1004.81" gradientUnits="userSpaceOnUse" id="2"><stop style="stop-color:#fff"/><stop offset="0.168" style="stop-color:#29282b"/><stop offset="0.264" style="stop-color:#868c95"/><stop offset="0.396" style="stop-color:#92979f"/><stop offset="0.542" style="stop-color:#737881"/><stop offset="0.626" style="stop-color:#70757e"/><stop offset="0.718" style="stop-color:#e4e6e8"/><stop offset="0.791" style="stop-color:#fff"/><stop offset="1" style="stop-color:#1d191a"/></linearGradient><linearGradient x2="1011.54" x1="1013.47" gradientTransform="matrix(1.15789 0 0 2.65957 -159.62 -4.423)" gradientUnits="userSpaceOnUse" id="0" xlink:href="#3"/><linearGradient gradientTransform="matrix(1.15789 0 0 2.65957 -159.62 23.577)" gradientUnits="userSpaceOnUse" x2="1011.54" x1="1013.47" id="1" xlink:href="#3"/></defs><g transform="translate(0 -796.36)"><path d="m 244.84 882.37 c 49.681 128.5 -89.55 194.42 -176.23 161.67 -60.5 -22.859 -90.65 -113.97 -47.683 -187.62 54.22 -92.93 185.6 -73.16 223.92 25.949 z" style="fill:#fff;color:#000"/><g transform="matrix(3.0415 0 0 2.98785 52.41 -2149.58)"><path d="m 5.619 1008.36 c -0.898 0 -1.619 0.721 -1.619 1.619 v 36.761 c 0 0.898 0.722 1.619 1.619 1.619 h 36.761 c 0.898 0 1.619 -0.722 1.619 -1.619 v -36.761 c 0 -0.898 -0.722 -1.619 -1.619 -1.619 z" style="fill:#ff4500"/><path transform="translate(0 1004.36)" d="M 5.625,4 C 4.727272,4 4,4.7273 4,5.625 L 4,14 44,14 44,5.625 C 44,4.7272 43.272728,4 42.375,4 z" style="fill:#ffdead"/><rect transform="matrix(0 1 -1 0 0 0)" y="-40.5" x="1011.66" height="5" width="2.2" rx="0.26" style="fill:url(#0)"/><rect width="2.2" height="5" x="1011.66" y="-12.5" transform="matrix(0 1 -1 0 0 0)" rx="0.26" style="fill:url(#1)"/><path d="m 6 1008.36 c 18 1 18 1 36 0 z" style="fill:#fff;opacity:0.75"/><g transform="translate(4.375)" style="fill:url(#2)"><rect width="5" height="0.7" x="1007.86" y="-34.975" transform="matrix(0 1 -1 0 0 0)" rx="0.198"/><rect transform="matrix(0 1 -1 0 0 0)" y="-32.975" x="1007.86" height="0.7" width="5" rx="0.198"/></g><g transform="translate(-3.625)" style="fill:url(#2)"><rect transform="matrix(0 1 -1 0 0 0)" y="-12.975" x="1007.86" height="0.7" width="5" rx="0.198"/><rect width="5" height="0.7" x="1007.86" y="-14.975" transform="matrix(0 1 -1 0 0 0)" rx="0.198"/></g><path d="m 26.17 1044.36 h -2.531 v -16.281 c 0 -1.354 0.042 -2.635 0.125 -3.844 -0.219 0.219 -0.464 0.448 -0.734 0.688 -0.271 0.24 -1.51 1.255 -3.719 3.047 l -1.375 -1.781 l 6.05 -4.672 h 2.188 v 22.844" style="fill:#ff4500;opacity:0.75;stroke:#ff4500"/></g><path d="m 123.11 146.61 l -0.149 -29.08 l -6.01 4.806 l -6.01 4.806 l -2.284 -2.937 c -1.256 -1.616 -2.515 -3.238 -2.798 -3.605 -0.354 -0.46 2.565 -3.01 9.393 -8.207 l 9.908 -7.54 h 3.942 h 3.942 v 35.421 v 35.421 h -4.89 h -4.89 l -0.149 -29.08 z" transform="translate(0 796.36)" style="fill:#ffdead;fill-rule:evenodd"/></g></svg>