<svg xmlns="http://www.w3.org/2000/svg" viewBox="0 0 256 256"><g transform="translate(0 -796.36)"><path d="m 128.96 1049.99 c 12.627 -1.365 26.716 -5.548 39.29 -11.664 42.41 -20.634 74.826 -63.733 83.7 -111.27 2.025 -10.857 1.855 -33.686 -0.327 -43.874 -5.306 -24.771 -17.1 -44.45 -36.94 -61.64 -13.638 -11.817 -31.81 -20.484 -49.39 -23.558 c -39.912 -6.976 -85.83 8.941 -120.48 41.766 -31.837 30.16 -48.545 70.36 -44.1 106.1 2.263 18.19 7.953 33.21 18.832 49.715 c 16.938 25.701 47.15 46.04 78.35 52.75 6.673 1.435 24.446 2.396 31.07 1.68 z" style="fill:#fff"/><g transform="matrix(2.35468 0 0 2.33598 52.51 -1624.71)"><path d="m 3 1081.52 h 58 v 36 h -58 z" style="fill:#ffebcd"/><g style="fill-rule:evenodd"><path transform="translate(0 1058.52)" d="M 3,23 50,59 32,45 61,32 61,23 3,23 z" style="fill:#effff7"/><path d="m 3 1081.52 l 29 -18 l 29 18 z" style="fill:#faf0e6"/><path d="m 32 1103.52 l -22 -16 v -19 h 44 v 18 v 2 z" style="fill:#ff4500"/></g><path d="m 15 1071.52 v 2 h 13 v -2 z m 0 6 v 1 h 34 v -1 z m 0 2 v 1 h 34 v -1 z m 0 2 v 1 h 6 v -1 z m 0 4 v 1 h 34 v -1 z m 0 2 v 1 h 13 v -1 z m 0 2 v 1 h 28 v -1 z m 17 5 v 1 h 16 v -1 z m 0 2 v 1 h 16 v -1 z m 0 2 v 1 h 5 v -1 z" style="fill:#e9f8f1"/><g style="fill-rule:evenodd"><path d="m 32 1103.52 l 29 -22 v 36 h -11 z" style="fill:#ffe4b5"/><path d="m 32 1103.52 l -29 -22 v 36 h 11 z" style="fill-opacity:0"/><path d="m 3,1081.5196 29,22 0,1 -29,-20 z" style="fill:#ffdab9"/></g></g><g transform="matrix(0.13814 0 0 0.13482 -25.849 934.46)" style="fill:#ff4500;stroke:#ff4500;stroke-width:44.808"><path d="m 739.31 294.74 v -215.11 h 30.761 h 30.761 v 215.11 v 215.11 h -30.761 h -30.761 v -215.11 z"/><path d="m 773.14 260.9 h 215.11 v 30.761 v 30.761 h -215.11 h -215.11 v -30.761 v -30.761 h 215.11 z"/></g></g></svg>