<svg xmlns="http://www.w3.org/2000/svg" xmlns:xlink="http://www.w3.org/1999/xlink" viewBox="0 0 256 256"><defs><path id="1" d="m 25.95 1021.3 l -2.827 0.231 v 9.535 l 2.796 -0.333 v -4.075 l 3.728 4.511 l 2.921 -0.769 l -3.822 -4.332 l 3.853 -4.101 l -2.983 -0.564 l -3.697 4.101 l 0.031 -4.203 z m -6.369 2.332 c -0.032 0 -0.069 0.015 -0.093 0.026 l -1.087 0.923 c -0.046 0.04 -0.065 0.107 -0.031 0.154 l 1.274 1.743 c -0.229 0.317 -0.397 0.665 -0.528 1.025 l -2.361 0.41 c -0.066 0.015 -0.124 0.047 -0.124 0.103 v 1.282 c 0 0.054 0.061 0.114 0.124 0.128 l 2.299 0.461 c 0.123 0.418 0.308 0.815 0.559 1.179 l -1.336 1.666 c -0.037 0.047 -0.017 0.114 0.031 0.154 l 1.087 0.897 c 0.046 0.037 0.13 0.056 0.186 0.026 l 2.082 -1.051 c 0.409 0.195 0.838 0.357 1.305 0.461 l 0.497 1.922 c 0.014 0.056 0.057 0.103 0.124 0.103 h 1.554 c 0.065 0 0.14 -0.05 0.155 -0.103 l 0.559 -1.922 c 0.481 -0.107 0.948 -0.283 1.367 -0.487 l 2.051 1.128 c 0.056 0.029 0.138 0.015 0.186 -0.026 l 1.087 -0.897 c 0.047 -0.04 0.065 -0.107 0.031 -0.154 l -0.746 -1.025 l -0.249 0.076 c -0.035 0.015 -0.072 0 -0.093 -0.026 0 0 -0.47 -0.587 -1.087 -1.333 -0.738 1.192 -2.243 1.999 -3.977 1.999 -2.464 0 -4.474 -1.632 -4.474 -3.665 0 -1.495 1.089 -2.781 2.641 -3.358 v -0.948 c -0.282 0.082 -0.548 0.165 -0.808 0.282 0 0 -0.03 0 -0.031 0 l -2.082 -1.128 c -0.028 -0.015 -0.062 -0.028 -0.093 -0.025 z" style="fill:#fff;fill-opacity:0.392"/><linearGradient gradientTransform="matrix(1.05347 0 0 0.92729 -0.878 74.995)" gradientUnits="userSpaceOnUse" x2="41.998" x1="5.998" id="0"><stop style="stop-color:#af0000"/><stop offset="1" style="stop-color:#fe0000"/></linearGradient></defs><g transform="translate(0 -796.36)"><path d="m 52.774 1027.39 c 192.46 127.95 311 -280.09 62.2 -226.07 -102.82 23.02 -165.22 167.39 -62.2 226.07 z" style="fill:#fff;color:#000"/><g transform="matrix(4.52694 0 0 5.20628 20.453 -4430.68)"><path d="m 24.404 1015.05 c -10.246 0 -18.552 5.423 -18.552 12.11 0 3.541 2.343 6.717 6.05 8.932 0.946 0.364 1 3.625 1 5.35 0 0.566 0.391 0.439 0.53 0.445 0.555 0.033 2.309 -1.125 3.881 -2.098 1.045 -0.597 1.79 -1.014 2.656 -0.877 1.422 0.228 2.901 0.362 4.431 0.362 10.246 0 18.552 -5.424 18.552 -12.11 0 -6.691 -8.306 -12.11 -18.552 -12.11 z" style="fill:url(#0)"/><path d="m 41.584 1026.55 c -0.288 7.03 -8.04 12.664 -17.584 12.664 -1.452 0 -2.855 -0.145 -4.205 -0.391 -0.822 -0.149 -1.529 0.301 -2.521 0.945 -1.492 1.049 -3.157 2.298 -3.684 2.262 -0.132 -0.01 -0.504 0.13 -0.504 -0.48 0 -1.859 -0.053 -5.374 -0.951 -5.768 -3.363 -2.281 -5.537 -5.509 -5.727 -9.121 -0.003 0.097 -0.02 0.19 -0.02 0.287 0 3.819 2.225 7.244 5.746 9.633 0.898 0.393 0.951 3.91 0.951 5.77 0 0.611 0.372 0.474 0.504 0.48 0.527 0.036 2.191 -1.213 3.684 -2.262 0.992 -0.644 1.7 -1.094 2.521 -0.945 1.35 0.246 2.753 0.389 4.205 0.389 9.726 0 17.611 -5.849 17.611 -13.06 0 -0.135 -0.022 -0.265 -0.027 -0.398 z" style="fill:#0a0000;fill-opacity:0.314"/><path transform="translate(0 1004.36)" d="m 23.06 11.553 c -1.065 0.045 -2.098 0.157 -3.082 0.344 l -0.568 2.123 c 0.99 -0.219 2.029 -0.371 3.109 -0.443 l 0.541 -2.023 z m -5.307 0.91 c -4.398 1.402 -7.41 4.231 -7.41 7.5 0 0.339 0.041 0.672 0.104 1 0.515 -2.695 3.088 -4.994 6.715 -6.297 l 0.592 -2.203 z" style="fill:#250000;fill-opacity:0.235"/><use xlink:href="#1"/><use xlink:href="#1"/><use xlink:href="#1"/></g></g></svg>