<svg xmlns="http://www.w3.org/2000/svg" xmlns:xlink="http://www.w3.org/1999/xlink" viewBox="0 0 256 256"><defs><clipPath><path d="m -24 13 c 0 1.105 -0.672 2 -1.5 2 -0.828 0 -1.5 -0.895 -1.5 -2 0 -1.105 0.672 -2 1.5 -2 0.828 0 1.5 0.895 1.5 2 z" transform="matrix(15.33333 0 0 11.5 415 -125.5)"/></clipPath></defs><path transform="translate(0.508 2.624)" d="m 222.65 37.868 c 145.18 221.56 -251.35 307.3 -219.76 79.37 12.881 -92.96 164.23 -164.13 219.76 -79.37 z" style="fill:#fff;color:#000"/><g transform="matrix(2.49171 -0.03752 0.03772 2.50479 51.894 47.802)" style="fill:#ffdead;stroke:#ff4500"><g transform="translate(0.915 -0.636)" style="stroke-width:1.975"><path d="M 27.866,21.446 15.396,5.923"/><path d="M 29.902,22.21 43.135,5.669"/></g><path transform="translate(36.16 -1.527)" d="m -18.323 6.686 c 0 0.773 -0.627 1.4 -1.4 1.4 -0.773 0 -1.4 -0.627 -1.4 -1.4 0 -0.773 0.627 -1.4 1.4 -1.4 0.773 0 1.4 0.627 1.4 1.4 z" id="0" style="fill:#ffdead;stroke:#ff4500;fill-rule:evenodd;stroke-linecap:round;stroke-linejoin:round;stroke-width:1.975"/><use transform="translate(27.309 -0.254)" xlink:href="#0" width="256" height="256"/><g style="fill-rule:evenodd;stroke-linecap:round;stroke-linejoin:round"><rect x="3.436" y="18.295" width="53.31" height="37.28" rx="2" style="stroke-width:3.291"/><path d="m 10.09,22.979 c -1.108,0 -2,0.892 -2,2 v 23.956 c 0,1.108 0.892,2 2,2 h 33.29 c 1.108,0 2,-0.892 2,-2 V 24.979 c 0,-1.108 -0.892,-2 -2,-2 H 10.09 z" style="stroke-width:1.975"/><g><path transform="matrix(0.92989 0 0 0.92989 1.156 -0.18)" d="m 40.12 53.652 c -1.241 -3.86 -3.26 -7.593 -6.563 -9.643 -3.326 -0.145 -7.513 0 -11.562 0 -3.585 1.908 -5.763 5.699 -7.119 9.643" style="stroke-width:2.831"/><path d="m 38.452 33.782 c 0 5.27 -4.277 9.547 -9.547 9.547 -5.27 0 -9.547 -4.277 -9.547 -9.547 0 -5.27 4.277 -9.547 9.547 -9.547 5.27 0 9.547 4.277 9.547 9.547 z" style="stroke-width:2.633"/></g><g transform="translate(-0.18 0.006)" style="stroke-width:1.082"><path d="m 52.954 24.536 c 0 1.097 -0.89 1.987 -1.986 1.987 -1.096 0 -1.986 -0.89 -1.986 -1.987 0 -1.097 0.89 -1.987 1.986 -1.987 1.096 0 1.986 0.89 1.986 1.987 z"/><path d="m 52.954 36.837 c 0 1.097 -0.89 1.987 -1.986 1.987 -1.096 0 -1.986 -0.89 -1.986 -1.987 0 -1.097 0.89 -1.987 1.986 -1.987 1.096 0 1.986 0.89 1.986 1.987 z"/><path d="m 52.954 30.686 c 0 1.097 -0.89 1.987 -1.986 1.987 -1.096 0 -1.986 -0.89 -1.986 -1.987 0 -1.097 0.89 -1.987 1.986 -1.987 1.096 0 1.986 0.89 1.986 1.987 z"/></g></g></g></svg>