<svg xmlns="http://www.w3.org/2000/svg" viewBox="0 0 256 256"><defs><filter height="1.243" y="-0.121" width="1.08" x="-0.04" id="0" style="color-interpolation-filters:sRGB"><feGaussianBlur stdDeviation="8.47048"/></filter></defs><g transform="translate(0 -796.36)"><path d="m 244.84 882.37 c 49.681 128.5 -89.55 194.42 -176.23 161.67 -60.5 -22.859 -90.65 -113.97 -47.683 -187.62 54.22 -92.93 185.6 -73.16 223.92 25.949 z" style="fill:#fff;color:#000"/><g transform="matrix(0.32215 0 0 0.33711 42.871 845.53)"><path d="m 36.15 129.4 v 293.14 c 0 27.336 25.721 46.2 49.41 46.893 h 67.983 h 204.91 h 67.983 c 23.7 0 49.41 -19.557 49.41 -46.893 l -0.002 -293.14 z" style="fill:#ffdead;stroke:#ffdead"/><path d="m 86.08 42.564 c -48.42 0 -49.926 -0.208 -49.926 86.83 l 439.7 -0.044 c -0.043 -85.78 0.79 -86.79 -47.61 -86.79 h -342.16 z m 24.34 29.629 c 7.648 0 13.849 6.158 13.849 13.756 0 7.597 -6.201 13.758 -13.849 13.758 -7.648 0 -13.847 -6.16 -13.847 -13.758 -0.001 -7.598 6.199 -13.756 13.847 -13.756 z m 293.31 0.121 c 7.292 0.004 13.203 5.876 13.207 13.12 0.004 7.25 -5.909 13.13 -13.207 13.14 -7.304 0.004 -13.226 -5.88 -13.222 -13.14 0.004 -7.25 5.924 -13.12 13.222 -13.12 z" style="fill:#ff4500"/><path transform="matrix(0.88488 0 0 0.88488 29.472 15.816)" d="m 21 323.36 l -10.965 116.04 c 0 24.811 27.483 42.562 52.817 42.562 h 386.3 c 25.334 0 52.817 -17.751 52.817 -42.562 l -10.965 -116.04 z" style="opacity:0.2;filter:url(#0)"/><path d="m 36.15 284.74 l -10.716 109.02 c 0 23.21 25.711 39.818 49.41 39.818 h 362.31 c 23.7 0 49.41 -16.607 49.41 -39.818 l -10.716 -109.02 z" style="fill:#faebd7"/><g transform="matrix(0.9791 0 0 0.97268 -2.757 -15.507)" style="fill:#ff4500;stroke:#ff4500"><path d="m 157.56 333.91 c 0 29.559 23.67 53.23 53.23 53.23 29.1 0 52.997 -23.67 52.997 -53.23 0 -21.01 -12.701 -39.719 -31.06 -47.917 11.662 -6.812 19.744 -18.705 19.744 -33.715 0 -22.746 -18.705 -40.758 -41.451 -40.758 -22.746 0 -41.34 18.01 -41.34 40.758 h 10.276 c 0 -16.742 13.74 -30.482 31.06 -30.482 17.319 0 31.06 13.74 31.06 30.482 0 17.319 -14.317 28.75 -31.06 28.75 v 10.392 c 23.439 0 42.606 19.282 42.606 42.49 0 23.554 -19.17 42.952 -42.606 42.952 -23.554 0 -42.606 -19.398 -42.606 -42.952 h -10.854 z"/><path d="m 335.21 385.41 h 10.392 v -172.39 l -34.754 20.668 l 5.196 9.122 l 18.705 -11.2 z"/></g></g></g></svg>