<svg xmlns="http://www.w3.org/2000/svg" viewBox="0 0 256 256"><g transform="translate(0 -796.36)"><path d="m-1067.28 1935.73c48.956 88.52 202.34 54.16 228.29-18.719 30.922-86.82-49.563-251.7-185.88-155.11-45.916 33.728-91.37 85.31-42.41 173.83" transform="translate(1088.39 -936.13)" style="fill:#fff;color:#000"/><g transform="matrix(1.44401 0 0 1.41667 61.951 860.03)" style="fill:#ff4500;enable-background:new"><path d="m89.87 89.8v-83.72h-83.8v83.72h83.8"/><g style="fill:#ffdead"><g transform="matrix(1 0 0 -1 -0.438 -0.011)" style="stroke:#ffdead"><rect width="30.963" height="31.98" rx="1.532" ry="1.612" x="15.263" y="-82.02" style="opacity:0.2"/><rect width="30.963" height="31.98" rx="1.532" ry="1.612" x="50.649" y="-82.02" style="opacity:0.2"/><rect width="30.963" height="31.98" rx="1.532" ry="1.612" x="50.622" y="-45.977" style="opacity:0.2"/><rect width="30.963" height="31.98" rx="1.532" ry="1.612" x="15.519" y="-45.977" style="opacity:0.2"/></g><g transform="matrix(0.69252 0 0 0.70588 -42.902 -44.943)" style="stroke:none;fill-rule:evenodd"><path d="m 84.18 179.2 c -1.837 -1.837 -1.837 -42.2 0 -44.04 1.835 -1.835 41.12 -1.835 42.956 0 1.837 1.837 1.837 42.2 0 44.04 -1.835 1.835 -41.12 1.835 -42.956 0 z"/><path d="m 84.44 128.13 c -0.293 -0.763 -0.399 -11.135 -0.237 -23.05 l 0.295 -21.664 h 21.695 h 21.695 l 0.294 22.16 c 0.226 17 -0.027 22.363 -1.085 23.03 -0.758 0.481 -10.547 0.883 -21.752 0.892 -15.55 0.013 -20.499 -0.312 -20.905 -1.37 z"/><path d="m 135.16 128.22 c -1.837 -1.837 -1.837 -42.2 0 -44.04 1.374 -1.374 39.15 -1.945 42.542 -0.643 1.487 0.57 1.716 3.598 1.716 22.664 0 19.07 -0.229 22.09 -1.716 22.664 -3.393 1.302 -41.17 0.731 -42.542 -0.643 z"/><path d="m 135.16 179.2 c -1.837 -1.837 -1.837 -42.2 0 -44.04 1.374 -1.374 39.15 -1.945 42.542 -0.643 1.487 0.57 1.716 3.598 1.716 22.664 0 19.07 -0.229 22.09 -1.716 22.664 -3.393 1.302 -41.17 0.731 -42.542 -0.643 z"/></g></g></g></g></svg>