<svg xmlns="http://www.w3.org/2000/svg" viewBox="0 0 256 256"><defs><clipPath><path transform="matrix(15.33333 0 0 11.5 415 -125.5)" d="m -24 13 c 0 1.105 -0.672 2 -1.5 2 -0.828 0 -1.5 -0.895 -1.5 -2 0 -1.105 0.672 -2 1.5 -2 0.828 0 1.5 0.895 1.5 2 z"/></clipPath></defs><path d="m 222.65 37.868 c 145.18 221.56 -251.35 307.3 -219.76 79.37 12.881 -92.96 164.23 -164.13 219.76 -79.37 z" transform="translate(0.508 2.624)" style="fill:#fff;color:#000"/><g transform="matrix(3.6914 0 0 3.90312 37.889 25.23)" style="stroke:#ffdead"><g style="fill:#ff4500"><rect x="6" y="21" width="35" height="21" ry="2.959" rx="2.96" style="fill-rule:evenodd;stroke-width:4"/><path transform="matrix(1.6 0 0 1.4734 -24.8 2.053)" d="m 38 4.715 a 2.5 2.715 0 1 1 -5 0 2.5 2.715 0 1 1 5 0 z" style="stroke-linejoin:round;stroke-width:2.605"/><path d="m 29.964 13.08 h 4.071 v 5.956 h -4.071 z" style="stroke-width:0.931"/></g><g style="fill:#8b0000;stroke-width:3"><path d="M 23.571,20.545 41.424,36.568"/><path d="M 12.647,22 35,42"/><path d="M 5.5,26.477 23.353,42.5"/></g></g></svg>