<svg xmlns="http://www.w3.org/2000/svg" viewBox="0 0 256 256"><g transform="translate(0 -796.36)" style="color:#000"><path d="m 30.671 836.37 c 105.68 -120.91 302.66 59.829 193.24 176.59 -92.41 116.95 -302.33 -51.778 -193.24 -176.59 z" style="fill:#fff"/><path d="m 156.51 968.19 v 8.909 c 0 7.469 -6.01 13.482 -13.482 13.482 h -16.821 c -7.469 0 -13.482 -6.01 -13.482 -13.482 v -8.909" style="fill:none;stroke:#ff4500;stroke-linecap:round;stroke-width:7.919"/><g style="fill:#ffdead"><path d="m 147.71 865.35 c -4.257 0 -7.677 3.44 -7.677 7.697 v 70.39 c 0 4.257 3.42 7.677 7.677 7.677 h 52.32 c 4.257 0 7.677 -3.42 7.677 -7.677 v -45.26 v -1.256 c -0.109 -0.132 -0.156 -0.295 -0.279 -0.419 l -31.15 -31.15 h -0.877 h -27.697 z"/><path d="m 61.844 865.35 c -4.257 0 -7.677 3.44 -7.677 7.697 v 70.39 c 0 4.257 3.42 7.677 7.677 7.677 h 52.32 c 4.257 0 7.677 -3.42 7.677 -7.677 v -45.26 v -1.256 c -0.109 -0.132 -0.156 -0.295 -0.279 -0.419 l -31.15 -31.15 h -0.877 h -27.697 z"/></g><text y="939.32" x="151.03" text-align="start" line-height="125%" style="font-size:66.67;font-family:Federo;fill:#ff4500"><tspan y="939.32" x="151.03" style="font-family:Franklin Gothic Demi">B</tspan></text><path d="m 207.71 896.92 c -0.254 -0.565 -0.613 -1.101 -1.083 -1.566 l -30.343 -30 v 26.4 c 0 2.857 2.321 5.165 5.211 5.165 h 26.22 z" style="fill:#dc143c"/><text x="67.904" y="939.32" text-align="start" line-height="125%" style="font-size:66.67;font-family:Federo;fill:#ff4500"><tspan x="67.904" y="939.32" style="font-family:Franklin Gothic Demi">A</tspan></text><path d="m 121.84 896.92 c -0.254 -0.565 -0.613 -1.101 -1.083 -1.566 l -30.343 -30 v 26.4 c 0 2.857 2.321 5.165 5.211 5.165 h 26.22 z" style="fill:#dc143c"/><path d="m 190.61 181.93 l -16.883 29.24 l -16.883 -29.24 l -16.883 -29.24 h 33.766 h 33.766 z" transform="matrix(0.34551 0 0 -0.24329 96.48 1013.02)" style="fill:#ff4500;stroke:#ff4500;stroke-linecap:round;stroke-linejoin:round;stroke-width:16"/></g></svg>