<svg xmlns="http://www.w3.org/2000/svg" viewBox="0 0 256 256"><defs><clipPath><path transform="matrix(15.33333 0 0 11.5 415 -125.5)" d="m -24 13 c 0 1.105 -0.672 2 -1.5 2 -0.828 0 -1.5 -0.895 -1.5 -2 0 -1.105 0.672 -2 1.5 -2 0.828 0 1.5 0.895 1.5 2 z"/></clipPath><clipPath><path d="m 148 97 h 77.63 v 24 h -77.62"/></clipPath><clipPath><path d="m 74 56.824 h 129 v 139.69 h -129"/></clipPath><clipPath><path d="m 27.707 56.824 h 82.29 v 139.69 h -82.29"/></clipPath><clipPath><path d="m 171 132 h 54.625 v 24 h -54.625"/></clipPath></defs><g transform="translate(1.348 -793.37)" style="color:#000"><path d="m 120.54 797.8 c -344.06 154.26 160.73 431.5 132.11 87.84 -6.696 -51.745 -59.719 -106.08 -132.11 -87.84 z" style="fill:#fff"/><g transform="matrix(-2.38454 0 0 2.28733 203.07 851.66)" style="enable-background:new;color:#000;stroke-linejoin:round"><g style="stroke-linecap:round"><g style="fill:none;stroke:#fff"><path d="M 51.583,26.381 C 51.583,38.295 41.914,47.964 30,47.964 18.086,47.964 8.417,38.295 8.417,26.381 8.417,14.467 18.086,4.798 30,4.798 c 11.914,0 21.583,9.669 21.583,21.583 z" style="stroke-width:7.5"/><path d="m 4.804,13.985 c -0.018,0.12 -0.117,0.195 -0.117,0.321 v 38.48 c 0,1.163 0.784,2.102 1.752,2.102 h 47.15 c 0.968,0 1.723,-0.939 1.723,-2.102 V 27.766 C 34.965,32.65 17.262,25.732 4.802,13.986 z" style="stroke-width:8.125"/></g><g style="stroke:#ff4500;fill-rule:evenodd"><g style="fill:#fff"><path d="m 57.13 31.816 c 0 14.08 -11.429 25.512 -25.512 25.512 -14.08 0 -25.512 -11.429 -25.512 -25.512 0 -14.08 11.429 -25.512 25.512 -25.512 14.08 0 25.512 11.429 25.512 25.512 z" transform="matrix(0.84599 0 0 0.84599 3.25 -0.535)" style="stroke-width:2.955"/><path d="m 40.21 30.862 c 0 5.83 -4.731 10.561 -10.561 10.561 -5.83 0 -10.561 -4.731 -10.561 -10.561 0 -5.83 4.731 -10.561 10.561 -10.561 5.83 0 10.561 4.731 10.561 10.561 z" transform="matrix(0.78893 0 0 0.78893 6.61 2.034)" style="stroke-width:3.169"/><path d="m 35.01 26.392 c 0 2.639 -2.142 4.781 -4.781 4.781 -2.639 0 -4.781 -2.142 -4.781 -4.781 0 -2.639 2.142 -4.781 4.781 -4.781 2.639 0 4.781 2.142 4.781 4.781 z" transform="matrix(0.93427 0 0 0.93427 1.756 1.725)" style="stroke-width:1.338"/></g><path d="m 3.25,13.14 c -0.019,0.128 -0.125,0.209 -0.125,0.344 v 41.19 c 0,1.244 0.839,2.25 1.875,2.25 h 50.47 c 1.036,0 1.844,-1.01 1.844,-2.25 V 27.893 C 35.535,33.12 16.588,25.716 3.254,13.143 z" transform="matrix(0.93427 0 0 0.93427 1.768 1.709)" style="fill:#ffdead;stroke-width:3.345"/></g></g><g transform="translate(-0.466)" style="fill:#ff4500;stroke:#ff4500;fill-rule:evenodd"><path d="m 16.02,35.538 c -0.256,0 -0.461,0.206 -0.461,0.462 v 12.448 c 0,0.256 0.206,0.462 0.461,0.462 h 12.445 c 0.256,0 0.461,-0.206 0.461,-0.462 V 36 c 0,-0.256 -0.206,-0.462 -0.461,-0.462 H 16.02 z" style="stroke-width:1.877"/><path d="M 34.917,48.912 45.371,42.224 34.917,35.536 v 13.376 z" style="stroke-linecap:round;stroke-width:1.875"/></g></g></g></svg>