<svg xmlns="http://www.w3.org/2000/svg" viewBox="0 0 256 256" style="enable-background:new"><defs><filter id="0" style="color-interpolation-filters:sRGB"><feBlend in2="BackgroundImage" mode="lighten"/></filter></defs><g transform="matrix(0.85078 0 0 0.84361 21.271 -651.8)" style="filter:url(#0)"><path d="m 31.13 819.07 c -231.97 310.53 406.42 354.65 201.55 37.666 -46.705 -72.27 -140.1 -119.91 -201.55 -37.666 z" style="fill:#fff;stroke:#fff;color:#000"/><g transform="matrix(2.4978 0 0 2.46618 50.949 853)" style="stroke-linejoin:round"><g style="stroke-linecap:round"><g style="fill:none;stroke:#fff"><path d="M 51.583,26.381 C 51.583,38.295 41.914,47.964 30,47.964 18.086,47.964 8.417,38.295 8.417,26.381 8.417,14.467 18.086,4.798 30,4.798 c 11.914,0 21.583,9.669 21.583,21.583 z" style="stroke-width:7.5"/><path d="m 4.804,13.985 c -0.018,0.12 -0.117,0.195 -0.117,0.321 v 38.48 c 0,1.163 0.784,2.102 1.752,2.102 h 47.15 c 0.968,0 1.723,-0.939 1.723,-2.102 V 27.766 C 34.965,32.65 17.262,25.732 4.802,13.986 z" style="stroke-width:8.125"/></g><g style="stroke:#ff4500;fill-rule:evenodd"><path transform="matrix(0.84599 0 0 0.84599 3.25 -0.535)" d="m 57.13 31.816 c 0 14.08 -11.429 25.512 -25.512 25.512 -14.08 0 -25.512 -11.429 -25.512 -25.512 0 -14.08 11.429 -25.512 25.512 -25.512 14.08 0 25.512 11.429 25.512 25.512 z" style="fill:#ffdead;stroke-width:2.955"/><g style="fill:#fff"><path transform="matrix(0.78893 0 0 0.78893 6.61 2.034)" d="m 40.21 30.862 c 0 5.83 -4.731 10.561 -10.561 10.561 -5.83 0 -10.561 -4.731 -10.561 -10.561 0 -5.83 4.731 -10.561 10.561 -10.561 5.83 0 10.561 4.731 10.561 10.561 z" style="stroke-width:3.169"/><path transform="matrix(0.93427 0 0 0.93427 1.756 1.725)" d="m 35.01 26.392 c 0 2.639 -2.142 4.781 -4.781 4.781 -2.639 0 -4.781 -2.142 -4.781 -4.781 0 -2.639 2.142 -4.781 4.781 -4.781 2.639 0 4.781 2.142 4.781 4.781 z" style="stroke-width:1.338"/></g><path transform="matrix(0.93427 0 0 0.93427 1.768 1.709)" d="m 3.25,13.14 c -0.019,0.128 -0.125,0.209 -0.125,0.344 v 41.19 c 0,1.244 0.839,2.25 1.875,2.25 h 50.47 c 1.036,0 1.844,-1.01 1.844,-2.25 V 27.893 C 35.535,33.12 16.588,25.716 3.254,13.143 z" style="fill:#ff4500;stroke-width:3.345"/></g></g><g transform="translate(-0.466)" style="fill:#ffdead;stroke:#ffdead;fill-rule:evenodd"><path d="m 16.02,35.538 c -0.256,0 -0.461,0.206 -0.461,0.462 v 12.448 c 0,0.256 0.206,0.462 0.461,0.462 h 12.445 c 0.256,0 0.461,-0.206 0.461,-0.462 V 36 c 0,-0.256 -0.206,-0.462 -0.461,-0.462 H 16.02 z" style="stroke-width:1.877"/><path d="M 34.917,48.912 45.371,42.224 34.917,35.536 v 13.376 z" style="stroke-linecap:round;stroke-width:1.875"/></g></g></g></svg>