<svg xmlns="http://www.w3.org/2000/svg" viewBox="0 0 256 256"><defs><clipPath><path transform="matrix(15.33333 0 0 11.5 415 -125.5)" d="m -24 13 c 0 1.105 -0.672 2 -1.5 2 -0.828 0 -1.5 -0.895 -1.5 -2 0 -1.105 0.672 -2 1.5 -2 0.828 0 1.5 0.895 1.5 2 z"/></clipPath><clipPath><circle r="435.85" cy="510.69" cx="515.44" style="fill:none;stroke:#000;stroke-width:11.248"/></clipPath><clipPath><circle r="435.85" cy="510.69" cx="515.44" style="fill:none;stroke:#000;stroke-width:11.248"/></clipPath></defs><g transform="translate(0 -796.36)" style="fill:#fff"><path d="m 129.23 1061.48 c -11.11 -1.138 -25.02 -4.168 -35.1 -7.647 -34.596 -11.937 -58.64 -34.3 -68.864 -64.07 -3.903 -11.361 -5.365 -20.77 -5.325 -34.28 0.059 -20.237 4.829 -40.687 15.195 -65.15 2.903 -6.85 10.131 -21.274 13.418 -26.773 19.627 -32.842 57.839 -54.967 97.6 -56.51 19.859 -0.77 35.75 2.168 51.48 9.518 12.376 5.782 22.18 12.688 31.861 22.44 10.788 10.87 17.371 20.323 25.01 35.914 13.207 26.959 19.776 50.55 20.533 73.74 0.621 19.02 -2.544 35.01 -9.899 50 -10.225 20.849 -26.93 36.862 -50.29 48.21 -16.459 7.994 -32.464 12.478 -51.52 14.431 -7.739 0.793 -27.07 0.89 -34.09 0.171 z m -26.476 -59.56 c 1.508 -1.252 1.722 -4.502 1.725 -26.26 l 0.003 -22 l 2.825 -1.171 c 3.458 -1.433 7.678 -5.423 9.464 -8.948 2.8 -5.525 2.888 -12.31 0.231 -17.751 -1.716 -3.514 -6.159 -7.757 -9.616 -9.184 l -2.904 -1.198 v -22.399 c 0 -24.94 -0.047 -25.34 -3.139 -26.632 -2.119 -0.885 -4.04 -0.512 -5.534 1.074 l -1.176 1.252 l -0.141 23.44 l -0.141 23.44 l -1.359 0.341 c -3.484 0.874 -9 5.442 -10.818 8.955 -3.294 6.372 -3.189 13.787 0.281 19.706 1.784 3.044 5.831 6.55 9.15 7.925 l 2.776 1.151 l 0.007 22.762 c 0.006 17.18 0.162 23.07 0.638 24.02 0.915 1.831 3.592 3.048 5.501 2.501 0.84 -0.241 1.842 -0.699 2.227 -1.019 z m 49.5 0 c 1.424 -1.182 1.722 -4.472 1.725 -19.03 0.002 -11.53 0.142 -14.773 0.638 -14.773 1.307 0 5.757 -2.712 7.975 -4.86 10.301 -9.976 6.4 -27.528 -7.221 -32.49 l -1.389 -0.506 l -0.003 -29.433 c -0.002 -18.892 -0.192 -30.11 -0.53 -31.33 -1 -3.6 -5.379 -4.793 -7.994 -2.179 l -1.322 1.322 l -0.253 30.889 l -0.253 30.889 l -1.266 0.338 c -3.597 0.961 -8.153 4.615 -10.279 8.244 -4.171 7.118 -3.537 16.701 1.503 22.723 1.975 2.359 6.06 5.285 8.314 5.962 l 1.981 0.593 l 0.007 15.451 c 0.008 16.938 0.077 17.379 2.941 18.815 1.736 0.871 3.933 0.62 5.426 -0.619 z m 46.972 0 c 1.576 -1.308 1.722 -4.502 1.725 -37.666 l 0.003 -33.407 l 1.389 -0.342 c 2.16 -0.532 5.228 -2.493 7.51 -4.801 7.429 -7.514 7.313 -19.917 -0.259 -27.587 -2.133 -2.16 -6.48 -4.739 -8.01 -4.751 -0.485 -0.004 -0.632 -2.543 -0.634 -10.99 -0.002 -6.074 -0.239 -11.834 -0.53 -12.884 -1 -3.599 -5.378 -4.793 -7.994 -2.179 l -1.322 1.321 l -0.152 12.09 l -0.152 12.09 l -2.796 1.28 c -7.422 3.398 -11.801 10.06 -11.801 17.964 0 7.802 4.393 14.537 11.685 17.915 l 2.71 1.255 l 0.253 34.568 l 0.253 34.568 l 1.199 1.276 c 0.66 0.702 1.682 1.354 2.273 1.449 1.323 0.214 3.71 -0.384 4.649 -1.163 z" style="fill-opacity:0"/><path d="m 34.36 995.71 c 8.196 12.374 19.216 24.83 29.26 33.07 35.06 28.763 75.34 29.964 111.02 3.311 19.18 -14.323 37.548 -36.704 54.03 -65.827 19.673 -34.758 26.326 -76.37 17.12 -107.09 -1.944 -6.489 -7.492 -17.78 -11.449 -23.303 -13.233 -18.469 -33.1 -29.344 -61.96 -33.911 -27.603 -4.368 -53.52 -4.82 -75.52 -1.317 -45.25 7.205 -75.55 32.23 -86.22 71.19 -7.498 27.387 -5.133 58.09 7.01 91.07 1.818 4.935 13.704 28.29 16.699 32.81 z" style="fill:#fff"/><g transform="translate(-259.25 71.59)"><path d="m 380.19 932.99 c -3.057 -1.196 -8.613 -13.08 -14.34 -30.68 -6.03 -18.539 -14.391 -34.31 -21.09 -39.801 -6.484 -5.314 -7.739 -4.605 -12.431 7.03 -2.989 7.411 -8.674 7.748 -12.435 0.737 -3.731 -6.956 -4.796 -34.28 -1.574 -40.35 3.893 -7.332 6.289 -8.58 12 -6.253 2.704 1.101 3.697 8.469 4.425 4.931 20.724 2.61 0.616 0.636 14.581 0.741 3.59 0.027 7.96 0.796 9.711 1.708 2.6 1.356 3.552 1.169 5.194 -1.018 3.099 -4.128 2.522 -8.01 -1.191 -8.01 -2.63 0 -3.01 -0.591 -2.127 -3.314 0.591 -1.823 1.95 -9.367 3.02 -16.765 3.037 -21 11.416 -42.14 17.442 -44 6.121 -1.892 9.05 1.653 18.987 22.966 4.516 9.688 5.985 14.96 6.734 24.17 0.527 6.481 1.248 12.763 1.603 13.959 0.405 1.365 -0.59 2.359 -2.674 2.67 -1.826 0.272 -3.074 1.282 -2.773 2.245 0.3 0.962 0.963 3.597 1.472 5.855 0.879 3.9 -3.901 3.992 -0.748 1.841 1.896 -1.294 11.508 -2.264 15.771 -2.264 11.86 -1.334 11.731 4.486 18.201 -5.377 4.703 -2.467 6.919 -2.462 9.831 0.105 5.05 4.447 6.67 11.94 5.77 26.62 -1.013 16.545 -3.94 24.317 -9.156 24.317 -4.453 0 -6.74 -2.453 -7.998 -8.577 -1.399 -6.814 -3.964 -8.284 -9.546 -5.473 -4.33 2.181 -5.931 4.512 -16.727 24.361 -1.542 2.836 -5.335 13 -8.427 22.592 -7.286 22.592 -12.433 28.581 -21.511 25.03 z m 8.689 -40.16 c 2.578 -4.691 1.858 -5.587 -4.484 -5.587 -6.741 0 -7.07 0.465 -3.695 5.163 2.899 4.03 6.106 4.197 8.179 0.425 z" style="fill:#ff4500"/><g style="fill:#ffdead"><path d="m 370.98 853.48 c -2.165 -5.135 3.03 -24.608 7.886 -29.558 l 4.72 -4.812 l 4.87 4.97 c 5.563 5.678 8.997 15.369 9.01 25.436 0.015 9.158 -3.973 7.947 -7.928 -2.408 -1.645 -4.307 -3.972 -8.129 -5.17 -8.493 -1.198 -0.364 -3.722 3.02 -5.608 7.51 -3.825 9.115 -6.124 11.288 -7.783 7.355 z m -6.519 -56.03 c -1.539 -3.65 4.01 -22.515 9.828 -33.43 6.863 -12.869 12.718 -13.83 23.777 6.536 5.125 9.438 7.727 21.892 8.451 24.624 1.241 4.68 0.927 4.967 -5.433 4.967 -6.313 0 -6.903 -0.521 -9.116 -8.05 -4.172 -14.196 -14.12 -14.617 -16.16 -0.684 -0.933 6.364 -1.986 7.939 -5.623 8.409 -2.744 0.355 -4.956 -0.563 -5.719 -2.372 z"/><g style="fill-rule:evenodd"><path d="m 125.69 148.66 c -1.59 -1.693 -2.68 -3.546 -5.649 -9.608 -1.555 -3.175 -3.348 -6.372 -3.983 -7.105 l -1.155 -1.332 l 1.114 -1.147 c 0.64 -0.659 2.324 -3.509 3.96 -6.702 2.895 -5.65 5.071 -8.676 6.239 -8.676 0.928 0 3 2.917 4.87 6.854 3.01 6.342 3.352 6.953 4.731 8.487 0.745 0.829 1.63 1.508 1.966 1.508 0.561 0 0.538 0.107 -0.283 1.326 -1.515 2.25 -2.406 3.97 -4.401 8.503 -1.058 2.403 -2.596 5.351 -3.418 6.553 -1.805 2.638 -2.54 2.885 -3.991 1.34 z" transform="translate(259.25 724.77)"/><path d="m 396.62 859.46 c -0.866 -1.036 -2.461 -4.119 -4.487 -8.672 -3.15 -7.078 -4.875 -9.852 -6.127 -9.852 -1.748 0 -3.344 2.397 -7.128 10.707 -3.878 8.514 -5.738 10.475 -7.437 7.835 -1.998 -3.104 -0.685 -13.788 3.038 -24.718 2.12 -6.223 3.74 -9.07 7.411 -13.04 1.756 -1.899 3.282 -3.454 3.391 -3.456 0.449 -0.009 7.374 7.774 8.653 9.726 4.247 6.483 7.136 16.951 7.098 25.72 -0.02 4.527 -0.762 7.07 -2.114 7.241 -0.763 0.097 -1.221 -0.2 -2.296 -1.487 z"/><path d="m 400.38 850.62 c -0.49 0.017 -1.139 0.473 -1.953 1.348 -1.584 1.702 -3.259 4.856 -5.566 10.38 -0.616 1.474 -1.228 2.801 -1.823 3.977 -1.487 2.939 -2.851 4.863 -3.873 5.426 -0.036 0.015 -0.062 0.055 -0.098 0.067 -0.032 0.015 -0.067 0.022 -0.098 0.034 -0.065 0.019 -0.13 0.023 -0.195 0.034 -0.066 0.011 -0.128 0.03 -0.195 0.034 -0.113 0 -0.211 -0.011 -0.325 -0.034 -1.719 -0.336 -3.631 -3.273 -7.193 -10.886 -2.977 -6.362 -4.185 -8.386 -5.533 -9.302 -1.198 -0.814 -1.883 -0.403 -2.604 1.55 -0.482 1.308 -0.529 2.275 -0.358 6.504 0.302 7.471 2.253 16.64 5.143 24.16 1.639 4.269 2.302 5.289 6.477 10.04 l 3.385 3.842 l 3.515 -3.606 c 1.932 -1.986 4.107 -4.501 4.817 -5.594 4.603 -7.086 7.813 -19.771 7.877 -30.972 0.028 -4.887 -0.321 -7.05 -1.4 -7.01 z"/></g></g></g></g></svg>