<svg xmlns="http://www.w3.org/2000/svg" viewBox="0 0 256 256"><g transform="translate(0 -796.36)"><path d="m 2.01 934.95 c -14.627 -154.03 232.06 -195.49 251.22 -37.33 23.744 145.43 -199.87 220.33 -244.59 75.82 -4.9 -12.218 -4.806 -25.578 -6.633 -38.494" style="fill:#fff;color:#000"/><path d="m -78.71 1010.75 c -1.041 -1.041 -1.48 -8.728 -1.515 -26.555 l -0.05 -25.09 l -4.694 -5.189 c -2.626 -2.902 -5.801 -5.189 -7.206 -5.189 -1.382 0 -3.367 -1.221 -4.413 -2.714 -1.618 -2.31 -1.901 -8.186 -1.901 -39.545 0 -33.27 0.207 -37.08 2.137 -39.439 2.112 -2.577 2.593 -2.603 41.19 -2.272 l 39.05 0.335 l 1.723 3.663 c 0.948 2.01 3.336 5.723 5.308 8.241 l 3.584 4.579 h 25.304 c 19.922 0 25.808 0.368 27.674 1.732 2.234 1.633 2.37 3.443 2.37 31.556 0 23.482 -0.356 30.25 -1.676 31.843 -1.463 1.764 -4.967 2.02 -27.58 2.02 h -25.904 l -3.79 4.164 l -3.79 4.164 l -0.375 25.564 c -0.285 19.434 -0.776 26.05 -2.05 27.58 -1.475 1.774 -5.289 2.02 -31.805 2.02 -21.806 0 -30.534 -0.405 -31.595 -1.465 z m 4.03 -60.803 c 0.466 -0.754 10.977 -1.221 27.471 -1.221 16.494 0 27.01 0.467 27.471 1.221 1.145 1.852 4.997 1.46 6.782 -0.691 1.314 -1.583 1.235 -2.506 -0.461 -5.377 -2.935 -4.968 -3.049 -51.943 -0.139 -57.57 1.488 -2.877 1.589 -4.074 0.461 -5.434 -3.683 -4.438 -10.113 0.513 -6.634 5.108 2.573 3.399 2.638 55.662 0.071 57.792 -2.445 2.029 -51.718 2.161 -55.48 0.148 -3.717 -1.989 -7.479 -0.556 -7.479 2.849 0 1.522 0.366 3.133 0.814 3.581 1.252 1.252 6.274 0.965 7.122 -0.407 z" transform="translate(152.97 -11.957)" style="fill:#ff4500"/><g style="fill-rule:evenodd"><path d="m 82.39 1000.37 c -4.414 -0.175 -7.912 -0.55 -8.623 -0.925 -1.078 -0.569 -1.434 -2.879 -1.765 -11.467 -0.337 -8.725 -0.307 -39.691 0.04 -41.39 0.15 -0.736 0.278 -2.784 0.284 -4.551 l 0.011 -3.213 h 0.926 c 1.286 0 3.43 -0.583 4.195 -1.141 0.533 -0.388 1.321 -0.526 4.739 -0.828 5.999 -0.53 41.08 -0.532 47.07 -0.002 2.854 0.252 4.226 0.466 4.576 0.713 0.275 0.194 0.717 0.509 0.983 0.7 0.266 0.191 1.01 0.408 1.655 0.483 1.107 0.129 1.213 0.2 1.918 1.289 0.411 0.634 1.295 1.793 1.966 2.575 0.928 1.082 1.16 1.493 0.971 1.717 -0.167 0.199 -0.322 4.958 -0.474 14.586 -0.458 28.927 -0.855 36.783 -1.981 39.14 -1.123 2.348 -3.838 2.561 -31.994 2.513 -11.2 -0.019 -22.22 -0.108 -24.5 -0.198 z" style="fill:#ffdead"/><path d="m 148.69 937.29 c -1.282 -0.678 -4.045 -1.541 -6.235 -1.948 l -1.961 -0.364 l -0.798 -1.742 c -1.755 -3.832 -2.458 -12.514 -2.458 -30.351 0 -17.803 0.669 -26.14 2.41 -30.01 0.29 -0.646 0.594 -1.479 0.674 -1.852 0.14 -0.645 0.238 -0.697 2.038 -1.06 1.041 -0.21 2.424 -0.556 3.074 -0.77 1.094 -0.359 2.896 -0.377 24.07 -0.245 22.1 0.138 25.824 0.254 29.1 0.909 2.383 0.476 3.546 1.683 3.982 4.131 0.545 3.064 0.74 13.537 0.612 32.886 -0.181 27.3 -0.341 28.777 -3.197 29.779 -2.403 0.843 -4.944 0.934 -28.03 1.01 -21.926 0.072 -22.46 0.063 -23.286 -0.373 z" style="fill:#dc143c"/></g></g></svg>