<svg xmlns="http://www.w3.org/2000/svg" viewBox="0 0 256 256"><defs><clipPath><path transform="matrix(15.33333 0 0 11.5 415 -125.5)" d="m -24 13 c 0 1.105 -0.672 2 -1.5 2 -0.828 0 -1.5 -0.895 -1.5 -2 0 -1.105 0.672 -2 1.5 -2 0.828 0 1.5 0.895 1.5 2 z" style="fill:#1890d0"/></clipPath><clipPath><path transform="matrix(15.33333 0 0 11.5 415 -125.5)" d="m -24 13 c 0 1.105 -0.672 2 -1.5 2 -0.828 0 -1.5 -0.895 -1.5 -2 0 -1.105 0.672 -2 1.5 -2 0.828 0 1.5 0.895 1.5 2 z" style="fill:#1890d0"/></clipPath><clipPath><path transform="matrix(15.33333 0 0 11.5 415 -125.5)" d="m -24 13 c 0 1.105 -0.672 2 -1.5 2 -0.828 0 -1.5 -0.895 -1.5 -2 0 -1.105 0.672 -2 1.5 -2 0.828 0 1.5 0.895 1.5 2 z" style="fill:#1890d0"/></clipPath></defs><g transform="translate(0 -796.36)"><path d="m 34.618 1013.05 c -17.94 -19.811 -31.27 -50.05 -34.01 -77.16 -3.331 -32.975 7.087 -68.888 27.478 -94.73 c 4.47 -5.664 16.461 -17.13 22.522 -21.543 25.16 -18.305 60.685 -26.594 94.39 -22.03 18.289 2.479 38.3 9.601 53.905 19.19 40.627 24.956 61.876 70.42 56.18 120.21 -3.412 29.844 -13.876 53.29 -33.22 74.45 -23.19 25.367 -60.25 41.07 -96.55 40.911 -28.513 -0.124 -56.61 -9.617 -75.72 -25.582 -2.771 -2.315 -6.183 -5.146 -7.583 -6.291 -1.399 -1.145 -4.729 -4.494 -7.399 -7.442 z" style="fill:#fff"/><g transform="matrix(0.28399 0.26821 -0.30456 0.28002 132.51 779.27)" style="fill:#ffdead;fill-rule:evenodd"><path d="m 57.49 64 h 386.17 v 397.02 h -386.17 z" style="fill:#ff4500"/><path d="m 74.848 60.746 h 378.58 v 382.92 h -378.58 z" style="fill-opacity:0"/></g><g style="fill:#fff"><path d="m 181.17 838.52 c -12.386 -11.224 -23.859 -23.417 -37.08 -33.793 -10.334 -5.556 -25.1 -3.245 -32.416 5.679 -35.954 33.13 -72.09 66.13 -107.93 99.35 -3.777 8.05 -5.773 18.748 0.975 25.982 27.966 27.793 57.24 54.43 85.77 81.72 6.275 5.551 11.908 11.992 18.568 17.01 11.567 5.283 26.445 1.881 34.407 -7.419 35.21 -32.598 70.54 -65.1 105.67 -97.76 5.146 -8.282 5.256 -19.09 -0.515 -27.07 -22.482 -21.231 -44.96 -42.467 -67.45 -63.694 z m 34.04 71.76 c 4.567 3.248 2.964 9.353 -1.175 12.151 -11.972 9.08 -27.745 11.785 -42.492 14.621 -31.24 4.866 -63.31 6 -94.82 3.103 -12.04 -1.707 -25.647 -2.838 -35.03 -10.909 -3.786 -2.986 -2.945 -8.348 1 -10.83 9.925 -9.24 24.651 -11.226 37.729 -14.348 5.608 -1.536 12.142 -1.193 17.11 -3.963 8.37 -7.924 19.372 -13.801 31.552 -14.12 11.942 -0.764 24.22 3.062 32.519 11.124 7.139 2.277 15.06 1.272 22.394 2.765 10.713 1.748 22.697 3.539 31.21 10.411 z m -47.02 32.585 c -3.756 7.401 -10.529 13.332 -17.594 18.01 -17.218 10.03 -42.36 7.868 -55.39 -7.153 -1.827 -2 -3.883 -4.04 -4.862 -6.509 14.222 0.071 28.487 1.213 42.706 -0.084 11.841 -0.556 23.464 -2.795 35.16 -4.382 l -0.018 0.12 z"/><path d="m 183.82 909.57 c -4.233 -3.222 -9.93 -4.586 -15.1 -5.469 -0.37 4.597 4.502 9.15 3.469 13.914 -6.216 3.674 -14 4.779 -21.04 6.497 -20.977 3.78 -43.05 4.659 -63.842 -0.5 -2.884 -1.148 0.078 -5.073 0.108 -6.982 0.188 -2.77 5.174 -8.849 1.229 -9.03 -6.377 2.287 -14.502 4.427 -17.599 10.694 -0.191 5.756 7.237 7.794 11.994 9.385 15.722 4.247 32.408 3.625 48.604 3.258 16.15 -1.358 32.767 -3.46 47.44 -10.236 4.408 -2.05 10.01 -7.313 4.735 -11.535 z"/></g></g></svg>