<svg xmlns="http://www.w3.org/2000/svg" viewBox="0 0 256 256"><g transform="translate(0 -796.36)" style="fill:#dcdcdc"><path d="m 13.228 977.71 c 69.925 141.88 277.41 62.829 237.79 -81.07 -37.33 -135.58 -226.87 -131.72 -248.97 -0.272 -4.611 27.425 -1.653 55.3 11.182 81.34 z" style="fill:#fff;color:#000"/><path d="m 144.32 988.57 l -19.895 -18.339 h -36.406 h -36.406 v -55.32 v -55.32 h 72.844 h 72.844 v 55.32 v 55.32 l -16.373 0.044 l -16.373 0.044 l -0.043 18.309 c -0.024 10.07 -0.101 18.303 -0.171 18.295 -0.07 -0.01 -9.08 -8.266 -20.02 -18.352 z m -56.48 -33.11 c 0.131 -0.16 0.204 -2.46 0.235 -7.402 l 0.045 -7.17 l 7.139 -0.045 l 7.139 -0.045 v 7.239 c 0 5.399 0.052 7.292 0.205 7.447 0.31 0.314 6.866 0.292 7.125 -0.024 0.131 -0.16 0.204 -2.46 0.235 -7.402 l 0.045 -7.17 l 7.173 -0.045 c 5.477 -0.034 7.205 -0.096 7.307 -0.26 0.074 -0.118 0.136 -1.744 0.137 -3.613 0.002 -2.63 -0.049 -3.442 -0.226 -3.591 -0.158 -0.133 -2.43 -0.206 -7.31 -0.238 l -7.081 -0.045 v -7.185 v -7.185 l 7.173 -0.045 c 5.477 -0.034 7.205 -0.096 7.307 -0.26 0.074 -0.118 0.136 -1.744 0.137 -3.613 0.002 -2.63 -0.049 -3.442 -0.226 -3.591 -0.158 -0.133 -2.43 -0.206 -7.31 -0.238 l -7.081 -0.045 l -0.085 -7.272 l -0.085 -7.272 l -3.484 -0.047 c -2.425 -0.033 -3.555 0.013 -3.719 0.151 -0.193 0.162 -0.236 1.488 -0.236 7.364 v 7.166 l -7.139 -0.045 l -7.139 -0.045 l -0.085 -7.272 l -0.085 -7.272 l -3.484 -0.047 c -2.425 -0.033 -3.555 0.013 -3.719 0.151 -0.193 0.162 -0.236 1.487 -0.236 7.362 v 7.164 h -7.06 c -5.265 0 -7.114 0.053 -7.267 0.208 -0.235 0.238 -0.295 6.826 -0.065 7.192 0.103 0.164 1.813 0.225 7.222 0.26 l 7.087 0.045 l 0.045 7.228 l 0.045 7.228 h -7.06 c -5.266 0 -7.116 0.053 -7.269 0.208 -0.217 0.219 -0.307 6.593 -0.101 7.136 0.092 0.244 0.893 0.274 7.267 0.274 h 7.164 v 7.237 c 0 5.398 0.052 7.29 0.205 7.445 0.31 0.314 6.866 0.292 7.125 -0.024 z m 0.272 -22.492 c -0.045 -0.119 -0.062 -3.372 -0.037 -7.228 l 0.045 -7.01 h 7.096 h 7.096 l 0.045 7.228 l 0.045 7.228 h -7.104 c -5.529 0 -7.122 -0.048 -7.186 -0.217 z m 67.975 22.16 c 1.295 -0.489 1.999 -0.967 2.965 -2.02 1.526 -1.657 2.24 -4.01 1.874 -6.179 -1.013 -5.991 -8.181 -8.379 -12.421 -4.139 -4.25 4.25 -2.174 11.308 3.721 12.647 1.248 0.284 2.559 0.177 3.861 -0.314 z m 21.887 0 c 1.296 -0.489 1.999 -0.967 2.965 -2.02 1.526 -1.657 2.24 -4.01 1.874 -6.179 -1.013 -5.991 -8.181 -8.379 -12.421 -4.139 -4.25 4.25 -2.174 11.308 3.721 12.647 1.248 0.284 2.559 0.177 3.861 -0.314 z" transform="translate(2.169 4.339)" style="fill:#ff4500"/></g></svg>