<svg xmlns="http://www.w3.org/2000/svg" viewBox="0 0 256 256"><g transform="translate(0 -796.36)"><path d="m 203.23 1027.39 c -192.46 127.95 -311 -280.09 -62.2 -226.07 c 102.82 23.02 165.22 167.39 62.2 226.07 z" style="fill:#fff;color:#000"/><g transform="matrix(2.28265 0 0 2.27321 58.32 855.87)" style="stroke:#ff4500"><path d="m 4.481 2.957 h 50.06 c 1.187 0 2.142 0.955 2.142 2.142 v 50.06 c 0 1.187 -0.955 2.142 -2.142 2.142 h -50.06 c -1.187 0 -2.142 -0.955 -2.142 -2.142 v -50.06 c 0 -1.187 0.955 -2.142 2.142 -2.142 z" transform="translate(0.54)" style="fill:#fff;fill-rule:evenodd;stroke-width:3.125"/><g style="fill:none;stroke-linejoin:round"><g style="stroke-linecap:round;stroke-width:5.367"><path transform="translate(-0.36 -0.18)" d="m 10.797 55.861 v -45.35 h 14.216 v 16.375 h 24.653 v 11.696"/><path d="m 41.21 55.32 v -20.334 h -23.03"/></g><path d="m 4.481 2.957 h 50.06 c 1.187 0 2.142 0.955 2.142 2.142 v 50.06 c 0 1.187 -0.955 2.142 -2.142 2.142 h -50.06 c -1.187 0 -2.142 -0.955 -2.142 -2.142 v -50.06 c 0 -1.187 0.955 -2.142 2.142 -2.142 z" transform="translate(0.54)" style="stroke-width:3.355"/></g></g></g></svg>