<svg xmlns="http://www.w3.org/2000/svg" viewBox="0 0 256 256"><defs><clipPath><path transform="matrix(15.33333 0 0 11.5 415 -125.5)" d="m -24 13 c 0 1.105 -0.672 2 -1.5 2 -0.828 0 -1.5 -0.895 -1.5 -2 0 -1.105 0.672 -2 1.5 -2 0.828 0 1.5 0.895 1.5 2 z"/></clipPath><clipPath><circle r="435.85" cy="510.69" cx="515.44" style="fill:none;stroke:#000;stroke-width:11.248"/></clipPath><clipPath><circle r="435.85" cy="510.69" cx="515.44" style="fill:none;stroke:#000;stroke-width:11.248"/></clipPath></defs><g transform="translate(0 -796.36)"><path d="m 129.23 1061.48 c -11.11 -1.138 -25.02 -4.168 -35.1 -7.647 -34.596 -11.937 -58.64 -34.3 -68.864 -64.07 -3.903 -11.361 -5.365 -20.77 -5.325 -34.28 0.059 -20.237 4.829 -40.687 15.195 -65.15 2.903 -6.85 10.131 -21.274 13.418 -26.773 19.627 -32.842 57.839 -54.967 97.6 -56.51 19.859 -0.77 35.75 2.168 51.48 9.518 12.376 5.782 22.18 12.688 31.861 22.44 10.788 10.87 17.371 20.323 25.01 35.914 13.207 26.959 19.776 50.55 20.533 73.74 0.621 19.02 -2.544 35.01 -9.899 50 -10.225 20.849 -26.93 36.862 -50.29 48.21 -16.459 7.994 -32.464 12.478 -51.52 14.431 -7.739 0.793 -27.07 0.89 -34.09 0.171 z m -26.476 -59.56 c 1.508 -1.252 1.722 -4.502 1.725 -26.26 l 0.003 -22 l 2.825 -1.171 c 3.458 -1.433 7.678 -5.423 9.464 -8.948 2.8 -5.525 2.888 -12.31 0.231 -17.751 -1.716 -3.514 -6.159 -7.757 -9.616 -9.184 l -2.904 -1.198 v -22.399 c 0 -24.94 -0.047 -25.34 -3.139 -26.632 -2.119 -0.885 -4.04 -0.512 -5.534 1.074 l -1.176 1.252 l -0.141 23.44 l -0.141 23.44 l -1.359 0.341 c -3.484 0.874 -9 5.442 -10.818 8.955 -3.294 6.372 -3.189 13.787 0.281 19.706 1.784 3.044 5.831 6.55 9.15 7.925 l 2.776 1.151 l 0.007 22.762 c 0.006 17.18 0.162 23.07 0.638 24.02 0.915 1.831 3.592 3.048 5.501 2.501 0.84 -0.241 1.842 -0.699 2.227 -1.019 z m 49.5 0 c 1.424 -1.182 1.722 -4.472 1.725 -19.03 0.002 -11.53 0.142 -14.773 0.638 -14.773 1.307 0 5.757 -2.712 7.975 -4.86 10.301 -9.976 6.4 -27.528 -7.221 -32.49 l -1.389 -0.506 l -0.003 -29.433 c -0.002 -18.892 -0.192 -30.11 -0.53 -31.33 -1 -3.6 -5.379 -4.793 -7.994 -2.179 l -1.322 1.322 l -0.253 30.889 l -0.253 30.889 l -1.266 0.338 c -3.597 0.961 -8.153 4.615 -10.279 8.244 -4.171 7.118 -3.537 16.701 1.503 22.723 1.975 2.359 6.06 5.285 8.314 5.962 l 1.981 0.593 l 0.007 15.451 c 0.008 16.938 0.077 17.379 2.941 18.815 1.736 0.871 3.933 0.62 5.426 -0.619 z m 46.972 0 c 1.576 -1.308 1.722 -4.502 1.725 -37.666 l 0.003 -33.407 l 1.389 -0.342 c 2.16 -0.532 5.228 -2.493 7.51 -4.801 7.429 -7.514 7.313 -19.917 -0.259 -27.587 -2.133 -2.16 -6.48 -4.739 -8.01 -4.751 -0.485 -0.004 -0.632 -2.543 -0.634 -10.99 -0.002 -6.074 -0.239 -11.834 -0.53 -12.884 -1 -3.599 -5.378 -4.793 -7.994 -2.179 l -1.322 1.321 l -0.152 12.09 l -0.152 12.09 l -2.796 1.28 c -7.422 3.398 -11.801 10.06 -11.801 17.964 0 7.802 4.393 14.537 11.685 17.915 l 2.71 1.255 l 0.253 34.568 l 0.253 34.568 l 1.199 1.276 c 0.66 0.702 1.682 1.354 2.273 1.449 1.323 0.214 3.71 -0.384 4.649 -1.163 z" style="fill:#a0522d;fill-opacity:0"/><path d="m 57.19 1022.96 c -12.374 -8.488 -24.83 -19.901 -33.07 -30.3 -28.763 -36.31 -29.964 -78.02 -3.311 -114.98 14.323 -19.864 36.704 -38.886 65.827 -55.955 34.758 -20.374 76.37 -27.26 107.09 -17.73 6.489 2.01 17.78 7.759 23.303 11.857 18.469 13.705 29.344 34.28 33.911 64.17 4.368 28.587 4.82 55.43 1.317 78.21 -7.205 46.863 -32.23 78.24 -71.19 89.29 -27.387 7.765 -58.09 5.316 -91.07 -7.26 -4.935 -1.883 -28.29 -14.192 -32.81 -17.294 z" style="fill:#fff"/><g transform="matrix(3.57247 0 0 2.91371 30.589 841.27)" style="fill:#ffdead"><g style="stroke:#fff;stroke-linejoin:round"><g style="stroke-linecap:round"><g style="stroke-width:8.125"><path d="m 23.288 42.867 c -5.125 2.197 -8.05 12.448 -8.05 12.448"/><path d="m 35.25 41.16 c 11.959 6.59 7.566 13.18 7.566 13.18"/><path d="m 38.18 27 c 1.953 0.732 14.4 -1.953 14.4 -1.953"/><path d="m 19.627 24.562 c -3.661 2.197 -12.203 -2.929 -12.203 -2.929"/></g><ellipse cx="28.502" cy="30.1" transform="matrix(0.95908 0 0 0.95908 2.054 1.187)" ry="18.704" rx="13.233" style="stroke-width:8.472"/><path d="m 13.366 30.32 c 15.15 11.857 24.373 11.692 27.996 4.611 3.623 -7.081 4.117 22.561 -11.528 16.962 -15.645 -5.599 -16.468 -21.573 -16.468 -21.573 z" style="stroke-width:6.875"/></g><g style="stroke-width:7.168"><ellipse cx="23.285" cy="13.303" transform="matrix(0.95908 0 0 0.95908 2.298 1.187)" ry="10.307" rx="6.744"/><ellipse cx="23.285" cy="13.303" transform="matrix(0.95908 0 0 0.95908 12.493 1.187)" ry="10.307" rx="6.744"/></g></g><g transform="matrix(0.95908 0 0 0.95908 0.346 1.187)" style="stroke:#ff4500"><g style="stroke-linecap:round;stroke-linejoin:round"><g transform="translate(1.781)" style="stroke-width:3.258"><path d="m 22.14 43.46 c -5.344 2.29 -8.398 12.979 -8.398 12.979"/><path d="m 34.61 41.677 c 12.47 6.871 7.889 13.742 7.889 13.742"/><path d="m 37.663 26.917 c 2.036 0.763 15.01 -2.036 15.01 -2.036"/><path d="m 18.323 24.373 c -3.817 2.29 -12.724 -3.054 -12.724 -3.054"/><ellipse cx="28.502" cy="30.1" ry="18.704" rx="13.233" style="fill-rule:evenodd"/></g><path transform="matrix(0.62072 0 0 0.62072 -14.964 18.01)" d="m 45.979 19.909 c 25.45 19.917 40.941 19.64 47.03 7.746 6.086 -11.895 6.916 37.898 -19.364 28.492 -26.28 -9.405 -27.663 -36.24 -27.663 -36.24 z" style="fill-rule:evenodd;stroke-width:3.15"/></g><g transform="matrix(0.62072 0 0 0.62072 -14.964 18.01)" style="stroke-width:2.1"><path d="m 46.22 26.309 c 25.04 28.558 47.727 19.17 47.727 19.17"/><path d="m 60.694 30.22 c -1.956 6.651 0.782 19.17 0.782 19.17"/><path d="m 73.21 35.31 c -1.956 7.824 0 19.56 0 19.56"/><path d="m 86.51 34.13 c -2.738 9.389 0 20.734 0 20.734"/></g><g style="fill-rule:evenodd"><path transform="matrix(0.29068 0 0 0.29068 19.735 26.2)" d="m 14.453 22.817 l 4.585 4.803 l 7.422 -5.02 l 5.894 2.62 l 1.965 8.605 l 6.331 -0.058 l 1.746 -8.829 l 5.894 -2.337 l 7.423 4.803 l 3.493 -4.803 l -8.424 -7.95 c -21.591 19.803 -40.25 -10.718 -21.703 -23.487 v -4.585 l -2.183 1.092 l -6.768 -4.302 l -4.675 3.839 l 4.238 7.231 l -2.401 5.894 l -8.27 1.374 l -0.026 6.267 l 8.514 2.183 l 2.347 5.731 l -5.403 6.931 z" style="fill:#ff4500;stroke-linecap:round;stroke-linejoin:round;stroke-width:0.391"/><g style="stroke-width:1.955"><ellipse cx="23.285" cy="13.303" transform="translate(2.036)" ry="10.307" rx="6.744"/><ellipse cx="23.285" cy="13.303" transform="translate(12.666)" ry="10.307" rx="6.744"/></g><g style="fill:#ff4500"><ellipse cx="24.473" cy="17.713" transform="translate(0.72)" ry="5.218" rx="5.04"/><ellipse cx="24.473" cy="17.713" transform="translate(11.517 -0.18)" ry="5.218" rx="5.04"/></g></g></g></g></g></svg>