<svg xmlns="http://www.w3.org/2000/svg" viewBox="0 0 256 256"><defs><clipPath><path d="m -24 13 c 0 1.105 -0.672 2 -1.5 2 -0.828 0 -1.5 -0.895 -1.5 -2 0 -1.105 0.672 -2 1.5 -2 0.828 0 1.5 0.895 1.5 2 z" transform="matrix(15.33333 0 0 11.5 415 -125.5)"/></clipPath></defs><path transform="translate(1.798 -798.75)" d="m 53.11 1028.66 c 188.96 126.21 305.35 -276.27 61.07 -222.99 -100.95 22.706 -162.22 165.11 -61.07 222.99 z" style="fill:#fff;color:#000"/><g style="stroke:#ffdead;fill-rule:evenodd"><g transform="translate(-2.169)" style="stroke-linecap:round;stroke-linejoin:round"><path d="M 59.29,30.48 C 59.29,45.37 47.21,57.455 32.315,57.455 17.425,57.455 5.34,45.375 5.34,30.48 5.34,15.59 17.42,3.505 32.315,3.505 c 14.89,0 26.975,12.08 26.975,26.975 z" transform="matrix(2.70953 0 0 2.70572 42.599 43.36)" style="fill:#ff4500;stroke-width:3.404"/><path d="m 95.74 168.46 c 16.435 11.975 46.572 12.545 62.45 0.569 3.288 -3.423 -13.146 -7.411 -14.243 -32.5 -9.314 -1.142 -21.364 -1.711 -33.413 0 -2.191 23.947 -19.723 27.939 -14.79 31.931 z" style="fill:#ffdead;stroke-width:4.227"/></g><g transform="matrix(0.94872 0 0 0.94248 5.597 3.121)" style="fill:#ffdead;stroke-width:1.598"><ellipse rx="5.726" ry="5.344" transform="matrix(2.88593 0 0 2.88187 43.499 31.429)" cy="31.24" cx="14.633"/><ellipse rx="5.599" ry="5.726" transform="matrix(2.88593 0 0 2.88187 44.537 33.504)" cy="33.407" cx="45.3"/><ellipse rx="5.471" ry="5.217" transform="matrix(2.88593 0 0 2.88187 40.38 41.801)" cy="16.865" cx="24.558"/><ellipse rx="5.471" ry="5.471" transform="matrix(2.88593 0 0 2.88187 32.43 33.986)" cy="22.464" cx="41.1"/></g></g></svg>