<svg xmlns="http://www.w3.org/2000/svg" viewBox="0 0 256 256"><g transform="translate(0 -796.36)"><path d="m 229.63 992.2 c 92.05 -130.93 -77.948 -263.6 -186.39 -156.91 -102.17 100.51 -7.449 256.68 119.69 207.86 c 26.526 -10.185 49.802 -26.914 66.7 -50.948 z" style="fill:#fff;color:#000"/><g transform="translate(0 796.36)" style="fill:#ff4500;stroke:#ffdead;fill-rule:evenodd;stroke-width:5.938"><path d="m 111.26 188.15 c 0.363 -1.641 1.079 -4.447 1.592 -6.237 0.512 -1.79 1.935 -9.112 3.162 -16.271 1.227 -7.159 2.46 -14.03 2.741 -15.268 0.39 -1.718 -0.655 -3.072 -4.409 -5.719 -5.645 -3.979 -8.04 -8.724 -8.04 -15.914 0 -17.12 21.273 -25.21 34.544 -13.14 3.83 3.484 5.592 7.624 5.592 13.14 0 8.183 -3.169 13.408 -11.196 18.46 -1.552 0.976 -1.361 3.034 1.908 20.61 1.998 10.739 3.98 20.38 4.406 21.424 0.717 1.757 -0.409 1.898 -15.09 1.898 h -15.866 l 0.66 -2.983 z"/><path d="m 87.32 179.08 c -13.226 -9.883 -22.643 -23.19 -26.18 -36.997 -2.311 -9.02 -1.539 -27.09 1.523 -35.627 9.37 -26.13 34.652 -43.32 63.708 -43.32 20.797 0 38.671 7.966 51.29 22.859 10.941 12.911 15.42 24.861 15.42 41.14 0 5.119 -0.701 11.999 -1.559 15.29 -2.527 9.702 -9.607 21.598 -17.16 28.826 -7.144 6.841 -12.453 10.772 -13.344 9.881 -0.293 -0.293 -1.352 -6.458 -2.353 -13.699 l -1.819 -13.166 l 2.422 -2.99 c 6.479 -7.999 9.771 -20.89 7.909 -30.967 -3.114 -16.844 -15.934 -28.922 -34.3 -32.32 -17.691 -3.27 -37.07 6.898 -44.63 23.414 -5.403 11.808 -3.318 29.926 4.482 38.948 3.02 3.496 3.217 5.54 1.514 15.831 -0.642 3.878 -1.486 9.1 -1.876 11.594 l -0.709 4.543 l -4.339 -3.242 z"/></g></g></svg>