<svg xmlns="http://www.w3.org/2000/svg" xmlns:xlink="http://www.w3.org/1999/xlink" viewBox="0 0 256 256"><defs><path d="m 245.46 129.52 l -97.89 -96.9 c -5.556 -5.502 -16.222 -11.873 -23.7 -14.16 l -39.518 -12.08 c -7.479 -2.286 -18.1 0.391 -23.599 5.948 l -13.441 13.578 c -5.5 5.559 -14.502 14.653 -20 20.21 l -13.44 13.579 c -5.5 5.558 -8.07 16.206 -5.706 23.658 l 12.483 39.39 c 2.363 7.456 8.843 18.06 14.399 23.556 l 97.89 96.9 c 5.558 5.502 14.605 5.455 20.1 -0.101 l 36.26 -36.63 c 5.504 -5.559 14.503 -14.651 20 -20.21 l 36.26 -36.629 c 5.502 -5.56 5.455 -14.606 -0.101 -20.11 z m -178.09 -50.74 c -7.198 0 -13.03 -5.835 -13.03 -13.03 0 -7.197 5.835 -13.03 13.03 -13.03 7.197 0 13.03 5.835 13.03 13.03 -0.001 7.198 -5.836 13.03 -13.03 13.03 z" id="0"/><use id="1" xlink:href="#0"/><path id="3" d="m 23.692 56.796 l 11.04 -10.672 v -17.69 l -10.965 10.38 l -0.073 17.982 z" style="fill-rule:evenodd;stroke-linecap:round;stroke-linejoin:round;stroke-width:3.613"/><path id="4" d="m 6.734 37.511 c -0.9 0 -1.625 0.725 -1.625 1.625 v 16.185 c 0 0.9 0.725 1.625 1.625 1.625 h 16.185 c 0.9 0 1.625 -0.725 1.625 -1.625 v -16.185 c 0 -0.9 -0.725 -1.625 -1.625 -1.625 h -16.185 z" style="fill-rule:evenodd;stroke-linecap:round;stroke-linejoin:round;stroke-width:3.613"/><clipPath id="2"><use xlink:href="#0"/></clipPath><clipPath style="clip-path:url(#2)"><use xlink:href="#1"/></clipPath><clipPath style="clip-path:url(#2)"><use xlink:href="#1"/></clipPath></defs><g transform="translate(0 -796.36)" style="color:#000"><path d="m 31.858 859.63 c 77.35 -142.48 296.29 9.129 200.58 139.89 -79.33 128.19 -308.63 -11.31 -200.58 -139.89" style="fill:#fff"/><g transform="matrix(2.3618 0.81478 -0.82731 2.59191 84.72 816.52)" style="fill:#ff4500"><path d="m 26.13 9.09 l -8.969 8.75 c 0 0 -0.219 0.477 -0.219 0.781 v 7.313 h -3.094 l -8.75 8.5 c -0.034 0.031 -0.063 0.059 -0.094 0.094 c 0 0 -0.375 0.633 -0.375 0.938 v 14.03 c 0 0.78 0.626 1.406 1.406 1.406 h 14.03 l 9.625 -8.781 v 7.375 c 0 0.78 0.626 1.406 1.406 1.406 h 14.555 l 9.726 -9.375 v -15.594 h -12.728 l -0.022 -16.844 h -16.5 z" style="stroke:#fff;stroke-linecap:round;stroke-linejoin:round;stroke-width:8.125"/><g transform="matrix(0.99783 0 0 0.99783 0.787 -1.48)" style="stroke:#ffdead"><g transform="matrix(0.86674 0 0 0.86674 -0.579 3.145)"><use xlink:href="#3"/><path d="m 5.344 38.23 l 10.38 -10.09 h 19.01 l -11.11 10.892 l -18.275 -0.804 z" style="fill-rule:evenodd;stroke-linecap:round;stroke-linejoin:round;stroke-width:3.613"/><use xlink:href="#4"/></g><g transform="matrix(0.86674 0 0 0.86674 24.484 3.145)"><use xlink:href="#3"/><path d="m 5.344 38.23 l 10.38 -10.09 h 19.01 l -11.11 10.892 l -18.275 -0.804 z" style="fill-rule:evenodd;stroke-linecap:round;stroke-linejoin:round;stroke-width:3.613"/><use xlink:href="#4"/></g><g transform="matrix(0.86674 0 0 0.86674 11.729 -13.699)"><use xlink:href="#3"/><path d="m 5.344 38.23 l 10.38 -10.09 h 19.01 l -11.11 10.892 l -18.275 -0.804 z" style="fill-rule:evenodd;stroke-linecap:round;stroke-linejoin:round;stroke-width:3.613"/><use xlink:href="#4"/></g></g></g></g></svg>