<svg xmlns="http://www.w3.org/2000/svg" viewBox="0 0 256 256"><defs><clipPath><rect y="6" x="6" rx="6" height="84" width="84" style="fill:#ff4500"/></clipPath></defs><g transform="translate(0 -796.36)"><path d="m196.22 823.05c-95.24-84.46-241.79 48.767-182.53 160.27 59.906 112.74 258.16 82.69 241.3-55.767-5.02-41.2-27.695-76.954-58.764-104.51" style="fill:#fff;color:#000"/><g transform="matrix(0.05518 0 0 0.06948 159.92 878.75)" style="fill:#ff4500"><g style="color:#000"><path d="m-657 1743.64h12v1h-12z" style="opacity:0.5"/><path transform="matrix(0 1 -1 0 0 0)" d="m-272.69 1850.64h7.384v1h-7.384z" style="opacity:0.5"/></g><g line-height="125%" style="letter-spacing:0;word-spacing:0;font-family:&apos;Linux Libertine Display&apos;"><text transform="scale(1.17213 0.85315)" y="1525.04" x="-1809.75" style="font-size:1969.67"><tspan y="1525.04" x="-1809.75" style="font-family:&apos;DejaVu Sans&apos;">K</tspan></text><text transform="scale(1.15897 0.86284)" y="1823.94" x="-383.56" style="font-size:1177.15"><tspan y="1823.94" x="-383.56" style="font-family:&apos;Droid Sans&apos;">W</tspan></text></g><path d="m86.89 485.45c64.892 0 117.5 39.448 117.5 88.13 0 48.68-52.603 88.12-117.5 88.12-64.889 0-117.49-39.443-117.49-88.12 0-48.679 52.603-88.13 117.49-88.13m23.498-705.02c207.65 0 375.97 100.74 375.97 246.76 0 52.876-46.995 141-140.99 176.25-94 35.25-140.99 82.59-140.99 141v70.5h-234.99v-52.877c0-119.89 140.99-193.88 187.99-229.13 93.99-70.5 93.99-80.28 93.99-105.75 0-58.41-63.12-105.75-140.99-105.75-77.868 0-140.99 47.34-140.99 105.75v52.876h-234.99v-35.25c0-146.02 168.33-264.38 375.98-264.38"/></g></g></svg>