<svg xmlns="http://www.w3.org/2000/svg" viewBox="0 0 256 256"><g transform="translate(0 -796.36)"><path d="m -1067.28 1935.73 c 48.956 88.52 202.34 54.16 228.29 -18.719 30.922 -86.82 -49.563 -251.7 -185.88 -155.11 -45.916 33.728 -91.37 85.31 -42.41 173.83 z" transform="translate(1088.39 -936.13)" style="fill:#fff;color:#000"/><g transform="matrix(3.13178 0 0 3.12209 -1147 -704.5)" style="fill:#ff4500"><path d="m 384.57 503.8 h 48 v 40 h -48 z"/><path d="m 384.57 503.8 v 2 v 38 h 2 h 46 v -2 v -36 v -2 h -2 h -44 h -2 z m 2 2 h 44 v 36 h -44 v -36 z"/><path transform="translate(384.57 499.8)" d="m 6 25 v 16 h -1 v 3 h 43 v -16 l -3 -3 h -3.805 c -9.208 2.61 -9.571 14.545 -14.684 14.508 -5.11 -0.038 -7.87 -11.905 -17.594 -14.508 h -2.918 z" style="opacity:0.2;fill-rule:evenodd"/><path d="m 384.57 542.8 h 48 v 1 h -48 z"/><path transform="translate(384.57 499.8)" d="m 2,6 0,36 1,0 42,0 1,0 L 46,6 45,6 3,6 2,6 z M 3,7 45,7 45,41 3,41 3,7 z" style="fill:#ffdead;fill-opacity:0.498;stroke:#ffdead;color:#fff"/><path d="m 389.57 524.29 c 13.01 0 15.772 14.973 21.511 15.02 5.739 0.042 5.484 -15.02 18.489 -15.02" style="stroke:#8b0000;stroke-width:0.984"/><path d="m 389.57 506.8 h 1 v 34 h -1 z" style="fill:#ffdead;color:#fff"/><path d="m 389.57 523.76 c 13.01 0 15.772 -14.973 21.511 -15.02 5.739 -0.042 5.484 15.02 18.489 15.02" style="stroke:#ffdead;stroke-width:0.984"/><g style="color:#fff"><path d="m 419.57 539.8 h 4 v 1 h -4 z"/><path d="m 424.57 539.8 h 4 v 1 h -4 z"/><path d="m 390.57 523.8 h 39 v 1 h -39 z" style="fill:#ffdead"/></g><path d="m 390.73 524.01 c 13.01 0 15.772 -10.274 21.511 -10.316 5.739 -0.042 5.484 10.316 18.489 10.316" style="stroke:#ffdead;stroke-width:0.984"/><g style="fill:#ffdead;color:#fff"><path d="m 396.57 522.8 h 1 v 3 h -1 z"/><path d="m 410.57 522.8 h 1 v 3 h -1 z"/><path d="m 424.57 522.8 h 1 v 3 h -1 z"/></g></g></g></svg>