<svg xmlns="http://www.w3.org/2000/svg" viewBox="0 0 256 256"><g transform="translate(0 -796.36)"><path d="m 52.774 1027.39 c 192.46 127.95 311 -280.09 62.2 -226.07 -102.82 23.02 -165.22 167.39 -62.2 226.07 z" style="fill:#fff;color:#000"/><g transform="matrix(5.14424 0 0 4.7924 4.454 816.81)" style="fill:#ff4500"><path d="m 16.16 15.225 c -0.056 0.005 -0.118 0.021 -0.16 0.063 0 0 -1.971 1.94 -1.971 1.94 -0.083 0.082 -0.093 0.207 -0.032 0.306 0 0 2.303 3.744 2.303 3.744 -0.409 0.677 -0.741 1.403 -0.975 2.172 0 0 -4.232 0.865 -4.232 0.865 -0.118 0.024 -0.204 0.135 -0.204 0.253 0 0 0 2.742 0 2.742 0 0.116 0.089 0.215 0.204 0.243 0 0 4.103 0.981 4.103 0.981 0.219 0.891 0.559 1.743 1.01 2.52 0 0 -2.379 3.565 -2.379 3.565 -0.066 0.1 -0.053 0.233 0.032 0.316 0 0 1.971 1.94 1.971 1.94 0.083 0.082 0.21 0.092 0.311 0.032 0 0 3.725 -2.225 3.725 -2.225 0.731 0.415 1.523 0.749 2.357 0.97 0 0 0.868 4.113 0.868 4.113 0.024 0.116 0.125 0.201 0.246 0.201 0 0 2.785 0 2.785 0 0.117 0 0.219 -0.077 0.246 -0.19 0 0 1.029 -4.134 1.029 -4.134 0.86 -0.228 1.672 -0.567 2.421 -1 0 0 3.676 2.373 3.676 2.373 0.101 0.065 0.235 0.052 0.322 -0.032 0 0 1.961 -1.94 1.961 -1.94 0.083 -0.082 0.104 -0.207 0.042 -0.306 0 0 -1.34 -2.172 -1.34 -2.172 0 0 -0.573 0.128 -0.61 0.074 0 0 -0.846 -1.225 -1.95 -2.815 -1.32 2.543 -4.01 4.281 -7.115 4.281 -4.407 0 -7.983 -3.519 -7.983 -7.856 0 -3.191 1.938 -5.931 4.715 -7.161 0 0 0 -2.025 0 -2.025 -0.505 0.174 -0.993 0.384 -1.457 0.633 -0.001 -0.001 0.001 -0.01 0 -0.01 0 0 -3.761 -2.425 -3.761 -2.425 -0.051 -0.033 -0.104 -0.038 -0.16 -0.032 z"/><path d="m 133.63,89.22 c -13.66,19.923 -21.66,44.03 -21.66,70 0,62.44 46.22,114.11 106.28,122.72 v 161.59 c 0,44.01 -41.02,77.97 -85.03,77.97 v 3.53 h 205.5 v -3.53 c -44,0 -85.03,-33.96 -85.03,-77.97 V 281.94 C 313.76,273.33 360,221.66 360,159.22 c 0,-25.96 -8,-50.08 -21.65,-70 -102.76,0.907 -102.76,0.461 -204.72,0 z" transform="matrix(-0.04662 0 0 0.04784 39.971 2.33)"/></g></g></svg>