<svg xmlns="http://www.w3.org/2000/svg" viewBox="0 0 256 256"><path d="m -1374.42 1658.71 c 127.95 -192.46 -280.09 -311 -226.07 -62.2 23.02 102.82 167.39 165.22 226.07 62.2 z" transform="matrix(0 1 -1 0 1711.48 1605.44)" style="fill:#fff;color:#000"/><path d="m 133.63 89.22 c -13.66 19.923 -21.66 44.03 -21.66 70 0 62.44 46.22 114.11 106.28 122.72 v 161.59 c 0 44.01 -41.02 77.97 -85.03 77.97 v 3.53 h 205.5 v -3.53 c -44 0 -85.03 -33.96 -85.03 -77.97 v -161.59 c 60.07 -8.61 106.31 -60.28 106.31 -122.72 c 0 -25.96 -8 -50.08 -21.65 -70 -102.76 0.907 -102.76 0.461 -204.72 0 z" transform="matrix(-0.35009 0 0 0.30224 212.82 37.568)" style="fill:#ff4500"/></svg>