<svg xmlns="http://www.w3.org/2000/svg" viewBox="0 0 256 256"><g transform="translate(0 -796.36)"><path d="m 26.683 856.14 c -84.46 95.24 48.767 241.79 160.27 182.53 112.74 -59.906 82.69 -258.16 -55.767 -241.3 -41.2 5.02 -76.954 27.695 -104.51 58.764 z" style="fill:#fff;color:#fff"/><g transform="matrix(0.46218 0 0 0.45658 10.252 812.62)" style="fill:#ff4500"><path d="m 456.5 242.1 c 0 111.4 -89.01 201.69 -198.81 201.69 -109.8 0 -198.81 -90.31 -198.81 -201.69 0 -111.4 89.01 -201.69 198.81 -201.69 109.8 0 198.81 90.31 198.81 201.69" style="fill:#ffa07a;fill-rule:evenodd"/><text x="729.64" y="231.36" line-height="125%" style="letter-spacing:0;word-spacing:0;font-size:129.23;font-family:Gentium Book Basic"><tspan x="729.64" y="231.36"/></text><text x="378.91" y="579.25" transform="scale(4.0128 0.2492)" style="font-size:46.954;font-family:Arial;text-anchor:middle"/><text x="1310.91" y="151.36" line-height="125%" style="letter-spacing:0;word-spacing:0;font-size:129.23;font-family:Gentium Book Basic"><tspan x="1310.91" y="151.36"/></text><text x="523.76" y="258.22" transform="scale(4.0128 0.2492)" style="font-size:46.954;font-family:Arial;text-anchor:middle"/><text x="239.33" y="-29.901" line-height="125%" style="letter-spacing:0;word-spacing:0;font-size:129.23;font-family:Gentium Book Basic"><tspan x="239.33" y="-29.901"/></text><text x="256.72" y="-469.14" transform="scale(4.0128 0.2492)" style="font-size:46.954;font-family:Arial;text-anchor:middle"/><text x="1337.38" y="-246.37" line-height="125%" style="letter-spacing:0;word-spacing:0;font-size:129.23;font-family:Gentium Book Basic"><tspan x="1337.38" y="-246.37"/></text><text x="530.36" y="-1337.81" transform="scale(4.0128 0.2492)" style="font-size:46.954;font-family:Arial;text-anchor:middle"/><text x="1918.65" y="-326.38" line-height="125%" style="letter-spacing:0;word-spacing:0;font-size:129.23;font-family:Gentium Book Basic"><tspan x="1918.65" y="-326.38"/></text><text x="675.21" y="-1658.85" transform="scale(4.0128 0.2492)" style="font-size:46.954;font-family:Arial;text-anchor:middle"/><text x="1529.53" y="-798.78" line-height="125%" style="letter-spacing:0;word-spacing:0;font-size:129.23;font-family:Gentium Book Basic"><tspan x="1529.53" y="-798.78"/></text><text x="578.24" y="-3554.51" transform="scale(4.0128 0.2492)" style="font-size:46.954;font-family:Arial;text-anchor:middle"/><text x="2110.79" y="-878.78" line-height="125%" style="letter-spacing:0;word-spacing:0;font-size:129.23;font-family:Gentium Book Basic"><tspan x="2110.79" y="-878.78"/></text><text x="723.09" y="-3875.54" transform="scale(4.0128 0.2492)" style="font-size:46.954;font-family:Arial;text-anchor:middle"/><text x="277.99" y="535.94" line-height="125%" style="letter-spacing:0;word-spacing:0;font-size:208.33;font-family:Gentium Book Basic"><tspan x="277.99" y="535.94"/></text><g transform="matrix(1.2546 0 0 1.2546 527.17 80.926)" style="color:#fff"><path d="m -151.56 127.08 a 64.58 64.58 0 0 1 -129.16 0 64.58 64.58 0 1 1 129.16 0"/><path d="m -216.14 12.268 c -63.41 0 -114.81 51.4 -114.81 114.81 0 63.41 51.4 114.81 114.81 114.81 63.41 0 114.81 -51.4 114.81 -114.81 0 -63.41 -51.4 -114.81 -114.81 -114.81 m 0 28.702 c 47.555 0 86.11 38.551 86.11 86.11 0 47.555 -38.551 86.11 -86.11 86.11 -47.555 0 -86.11 -38.551 -86.11 -86.11 0 -47.555 38.551 -86.11 86.11 -86.11"/></g></g></g></svg>