<?xml version="1.0" encoding="UTF-8" standalone="no"?>
<svg
   xmlns:dc="http://purl.org/dc/elements/1.1/"
   xmlns:cc="http://creativecommons.org/ns#"
   xmlns:rdf="http://www.w3.org/1999/02/22-rdf-syntax-ns#"
   xmlns:svg="http://www.w3.org/2000/svg"
   xmlns="http://www.w3.org/2000/svg"
   xmlns:xlink="http://www.w3.org/1999/xlink"
   xmlns:sodipodi="http://sodipodi.sourceforge.net/DTD/sodipodi-0.dtd"
   xmlns:inkscape="http://www.inkscape.org/namespaces/inkscape"
   viewBox="0 0 256 256"
   id="svg312"
   version="1.1"
   inkscape:version="0.48.4 r9939"
   width="100%"
   height="100%"
   sodipodi:docname="lgeneral.svg">
  <metadata
     id="metadata367">
    <rdf:RDF>
      <cc:Work
         rdf:about="">
        <dc:format>image/svg+xml</dc:format>
        <dc:type
           rdf:resource="http://purl.org/dc/dcmitype/StillImage" />
      </cc:Work>
    </rdf:RDF>
  </metadata>
  <sodipodi:namedview
     pagecolor="#ffffff"
     bordercolor="#666666"
     borderopacity="1"
     objecttolerance="10"
     gridtolerance="10"
     guidetolerance="10"
     inkscape:pageopacity="0"
     inkscape:pageshadow="2"
     inkscape:window-width="644"
     inkscape:window-height="496"
     id="namedview365"
     showgrid="false"
     inkscape:zoom="0.921875"
     inkscape:cx="128"
     inkscape:cy="128"
     inkscape:window-x="0"
     inkscape:window-y="24"
     inkscape:window-maximized="0"
     inkscape:current-layer="g339" />
  <defs
     id="defs314">
    <path
       id="0"
       d="m 86.78 164.88 c 0 2.995 -2.185 5.424 -4.881 5.424 -2.696 0 -4.881 -2.428 -4.881 -5.424 0 -2.995 2.185 -5.424 4.881 -5.424 2.696 0 4.881 2.428 4.881 5.424 z"
       style="fill:#789;stroke:#789;fill-rule:evenodd" />
    <clipPath
       id="clipPath317">
      <path
         transform="matrix(15.33333 0 0 11.5 415 -125.5)"
         d="m -24 13 c 0 1.105 -0.672 2 -1.5 2 -0.828 0 -1.5 -0.895 -1.5 -2 0 -1.105 0.672 -2 1.5 -2 0.828 0 1.5 0.895 1.5 2 z"
         id="path319" />
    </clipPath>
  </defs>
  <g
     transform="translate(-1.089 -0.535)"
     id="g321">
    <g
       transform="matrix(1.71111 0 0 1.6629 -51.12 -634.24)"
       style="fill:#ff4500"
       id="g323">
      <path
         d="m 84 456.36 v 30 c 0 18 3 18 30 18 h 6 c 27 0 30 0 30 -18 v -30 c 0 -18 -3 -18 -30 -18 h -6 c -27 0 -30 0 -30 18 z m 30 -12 h 6 c 24 0 24 0 24 12 v 21 c 0 12 0 12 -24 12 h -6 c -24 0 -24 0 -24 -12 v -21 c 0 -12 0 -12 24 -12 z"
         id="path325" />
      <path
         d="m 96,477.91 v -11.636 l 10.5,-10.909 13.13,13.636 5.25,-5.454 13.13,13.636 v 0.727 c 0,5.455 -0.875,5.455 -10.5,5.455 h -21 c -9.625,0 -10.5,0 -10.5,-5.455 z"
         id="path327" />
      <path
         d="m 78 34.5 a 4.5 4.5 0 1 1 -9 0 4.5 4.5 0 1 1 9 0 z"
         transform="matrix(1.3333 0 0 1.3333 34 410.36)"
         style="color:#000"
         id="path329" />
      <path
         transform="translate(60 414.36)"
         d="M 42,12 C 15,12 12,12 12,30 v 30 c 0,9.758 0.891,14.235 6,16.281 V 51 36 30 C 18,19.134 18.181,18.128 36,18.031 V 18 h 6 6 28.531 C 73.886,12.002 66.718,12 48,12 h -6 z"
         id="path331" />
      <path
         d="m 90,414.36 c -27,0 -30,0 -30,18 v 30 c 0,9.758 0.891,14.235 6,16.281 v -25.281 -15 -6 c 0,-10.866 0.181,-11.872 18,-11.969 v -0.031 h 6 6 28.531 c -2.646,-5.998 -9.813,-6 -28.531,-6 h -6 z"
         id="path333" />
    </g>
    <g
       transform="translate(1.085 -795.28)"
       id="g335">
      <path
         d="m 195.84 822.18 c -130.93 -92.05 -263.6 77.948 -156.91 186.39 100.51 102.17 256.68 7.449 207.86 -119.69 -10.185 -26.526 -26.914 -49.802 -50.948 -66.7 z"
         style="fill:#ffffff;color:#000"
         id="path337" />
      <g
         transform="matrix(0.89357 0 0 0.61078 14.844 374.52)"
         id="g339"
         style="fill:#ff4500;stroke:#ff4500">
        <g
           style="fill:#ff4500;stroke:#ff4500"
           id="g341">
          <rect
             width="150.99"
             height="44.514"
             x="47.731"
             y="887.48"
             rx="4.02"
             id="rect343"
             style="fill:#ff4500;stroke:#ff4500" />
          <rect
             width="65.08"
             height="49.26"
             x="91.77"
             y="837.47"
             rx="9.958"
             id="rect345"
             style="fill:#ff4500;stroke:#ff4500" />
          <rect
             width="139.5"
             height="14.485"
             x="55.971"
             y="952.27"
             rx="7.88"
             ry="7.242"
             id="rect347"
             style="fill:#ff4500;stroke:#ff4500" />
          <rect
             rx="6.572"
             y="839.41"
             x="74.849"
             height="37.643"
             width="42.952"
             id="rect349"
             style="fill:#ff4500;stroke:#ff4500" />
          <rect
             rx="7.07"
             y="849.68"
             x="84.61"
             height="14.485"
             width="125.18"
             id="rect351"
             style="fill:#ff4500;stroke:#ff4500" />
        </g>
        <use
           transform="matrix(1.68607 0 0 2.4348 -76.69 547.96)"
           xlink:href="#0"
           id="use353"
           style="fill:#ff4500;stroke:#ff4500" />
        <use
           transform="matrix(1.68607 0 0 2.4348 53.48 547.96)"
           xlink:href="#0"
           id="use355"
           style="fill:#ff4500;stroke:#ff4500" />
        <use
           transform="matrix(1.68607 0 0 2.4348 28.751 546.03)"
           xlink:href="#0"
           id="use357"
           style="fill:#ff4500;stroke:#ff4500" />
        <use
           transform="matrix(1.68607 0 0 2.4348 2.717 546.03)"
           xlink:href="#0"
           id="use359"
           style="fill:#ff4500;stroke:#ff4500" />
        <use
           transform="matrix(1.68607 0 0 2.4348 -23.317 546.03)"
           xlink:href="#0"
           id="use361"
           style="fill:#ff4500;stroke:#ff4500" />
        <use
           transform="matrix(1.68607 0 0 2.4348 -49.35 547.96)"
           xlink:href="#0"
           id="use363"
           style="fill:#ff4500;stroke:#ff4500" />
      </g>
    </g>
  </g>
</svg>
