<svg xmlns="http://www.w3.org/2000/svg" viewBox="0 0 256 256"><defs><clipPath><path transform="matrix(15.33333 0 0 11.5 415 -125.5)" d="m -24 13 c 0 1.105 -0.672 2 -1.5 2 -0.828 0 -1.5 -0.895 -1.5 -2 0 -1.105 0.672 -2 1.5 -2 0.828 0 1.5 0.895 1.5 2 z"/></clipPath></defs><path d="M 33.674801,216.41632 C -111.5052,-5.1436738 285.0248,-90.883674 253.4348,137.04632 c -12.881,92.96 -164.229999,164.13 -219.759999,79.37 z" style="fill:#fff;color:#000"/><g transform="translate(-73.149892 64.471931)" style="fill:#ff4500"><path d="m 270.33668 62.892543 c 0 34.94 -27.408 65.095997 -62.231 68.296987 -34.833 3.2 -67.43 -21.29 -73.802 -55.741997 -6.3711 -34.441 15.125 -69.1370004 48.881 -78.6029904 33.766 -9.4679996 70.253 8.916 82.70501 41.6930004 2.949 7.763 4.449 16.052 4.449 24.356"/><path d="m 266.5067 62.487543 c 0 32.627 -25.66 60.785997 -58.262 63.774997 -32.61 3 -63.128 -19.88 -69.09401 -52.047997 -5.9641 -32.161 14.161 -64.5590004 45.764 -73.3990004 31.612 -8.8407 65.77201 8.326 77.432 38.9330004 2.7609 7.249 4.1652 14.989 4.1652 22.743" style="fill-opacity:0.84127042"/><path d="m 258.60669 41.893543 c 4.08 28.539 -14.11 56.535 -42.21 64.984997 -29.802 8.97 -62.532 -6.6 -73.988 -34.979997 4.864 34.079997 39.713 57.429997 73.864 49.489997 35.264 -8.2 55.724 -46.362997 42.334 -79.494997" style="fill:#fff"/><path d="m 238.31838,37.90931 c -8.34,1.725 -17.943,-10.089996 -25.174,-13.095996 -13.511,-5.617 -30.389,-3.009 -42.63,4.639 -12.949,8.088996 -22.157,23.627996 -23.574,38.881996 -0.005,0.0435 -0.005,0.052 -9.5e-4,0.0227 0.95568,-9.237 0.31036,-17.92 3.8284,-26.849 5.8278,-14.799996 18.431,-26.387996 33.628,-31.044996 15.713,-4.8125006 32.895,-1.7505004 46.431,7.4231 4.1795,2.8349 20.268,17.377996 7.4931,20.022996" style="fill:#ffdead"/><path d="m 186.19469 36.570543 v 48.905 c 0 4.9795 -2.0211 14.234 5.1795 14.583997 6.0595 0.29703 12.91 -7.833897 17.18 -11.242997 7.074 -5.642 14.148 -11.284 21.223 -16.928 6.819 -5.438 1.767 -9.475 -3.277 -13.515 -7.6 -6.085 -15.201 -12.174 -22.8 -18.261 -2.447 -1.959 -4.892 -3.919 -7.339 -5.877 -2.46 -1.972 -10.167 -2.283 -10.167 2.335" style="fill:#fff"/><path d="m 196.50369,33.287543 c 11.681,9.3549 23.36,18.709 35.04,28.064 7.2233,5.786 -0.86915,10.882 -5.3368,14.443 -7.906,6.3074 -15.814,12.617 -23.72,18.923 -1.9392,1.5449 -3.8776,3.0907 -5.8159,4.6384 -3.5575,2.838797 -11.298,1.893397 -11.298,-3.7362 v -19.878 -29.918 -8.5879 c 0,-5.2057 7.5733,-6.7984 11.131,-3.9478 m -1.02,64.901 c 11.562,-9.227 23.126,-18.45 34.687,-27.671 6.156,-4.911 -1.117,-9.037 -4.984,-12.135 -7.625,-6.107 -15.251,-12.216 -22.879,-18.324 -2.152,-1.7242 -4.3039,-3.4493 -6.4568,-5.1726 -2.0656,-1.6552 -8.8352,-2.093 -8.8352,1.8557 v 19.878 28.856 8.8509 c 9.1e-4,4.2862 4.8203,6.785597 8.4679,3.8586"/></g></svg>