<svg xmlns="http://www.w3.org/2000/svg" viewBox="0 0 256 256"><g transform="translate(-3.508 -797.2)"><path d="m 30.08 1000.26 c -126.33 -190.02 276.54 -307.05 223.2 -61.41 -10.168 45.42 -44.31 82.84 -84.14 101.23 -49.19 22.718 -107.05 16.386 -139.06 -39.823 z" style="fill:#fff;color:#000"/><g transform="matrix(4.10215 0 0 4.21569 31.646 829.73)" style="fill:#ffa07a"><path d="m 23.735,1.255 v 6.903 h -6.96 V 2.334 C 16.44,2.441 16.109,2.552 15.781,2.673 V 8.159 H 8.821 V 6.741 C 8.477,7.035 8.152,7.352 7.827,7.666 V 8.159 H 7.33 C 7.014,8.481 6.694,8.804 6.397,9.145 h 1.43 v 6.903 H 2.296 c -0.122,0.325 -0.235,0.654 -0.342,0.986 h 5.872 v 6.903 h -6.96 c 0,0.329 0.017,0.66 0.031,0.986 h 6.929 v 6.903 H 2.295 c 0.126,0.337 0.262,0.657 0.404,0.986 h 5.126 v 6.903 H 6.953 c 0.478,0.489 1.299,1.604 1.82,2.05 L 8.82,40.701 h 6.96 v 4.5 c 0.328,0.121 -0.56,0.909 0.994,1.106 v -5.605 h 6.96 v 5.917 c 0.332,0 0.665,-0.017 0.994,-0.031 v -5.886 h 6.96 v 4.377 c 0.34,-0.125 0.615,-0.226 0.947,-0.366 l 0.047,-4.01 h 6.463 c 0.519,-0.469 1.16,-0.793 1.634,-1.308 l -0.142,-6.581 h 4.132 c 0.141,-0.329 0.277,-0.649 0.404,-0.986 h -4.537 v -6.903 h 5.935 c 0.014,-0.326 0.031,-0.657 0.031,-0.986 h -5.965 v -6.903 h 4.878 C 45.408,16.704 45.295,16.375 45.173,16.05 H 40.636 V 9.147 h 0.435 c -0.448,-0.517 -0.936,-1 -1.43,-1.479 v 0.493 h -6.96 V 3.076 c -0.332,-0.14 -0.654,-0.275 -0.994,-0.4 v 5.486 h -6.96 V 1.289 C 24.398,1.275 24.065,1.258 23.733,1.258 z M 8.821,9.144 h 6.96 v 6.903 h -6.96 z m 7.954,0 h 6.96 v 6.903 h -6.96 z m 7.954,0 h 6.96 v 6.903 h -6.96 z m 7.954,0 h 6.96 v 6.903 h -6.96 z M 8.821,17.033 h 6.96 v 6.903 h -6.96 z m 7.954,0 h 6.96 v 6.903 h -6.96 z m 7.954,0 h 6.96 v 6.903 h -6.96 z m 7.954,0 h 6.96 v 6.903 h -6.96 z M 8.821,24.922 h 6.96 v 6.903 h -6.96 z m 7.954,0 h 6.96 v 6.903 h -6.96 z m 7.954,0 h 6.96 v 6.903 h -6.96 z m 7.954,0 h 6.96 v 6.903 h -6.96 z M 8.821,32.811 h 6.96 v 6.903 h -6.96 z m 7.954,0 h 6.96 v 6.903 h -6.96 z m 7.954,0 h 6.96 v 6.903 h -6.96 z m 7.954,0 h 6.96 v 6.903 h -6.96 z" style="fill-opacity:0.863"/><g><path d="m 31.68,-0.849 h 0.981 V 3.392 H 31.68 z"/><path d="m 23.756 -0.127 h 0.981 v 1.534 h -0.981 z"/><path d="m 15.786 44.911 h 0.981 v 1.173 h -0.981 z"/><path d="m 23.709 45.723 h 0.981 v 1.173 h -0.981 z"/><g transform="matrix(0 1 -1 0 0 0)"><path d="m 16.06,-2.966 h 0.979 v 1.219 H 16.06 z"/><path d="m 23.928 -1.579 h 0.978 v 1.219 h -0.978 z"/><path d="m 16.04,-50.08 h 0.978 v 5.202 H 16.04 z"/><path d="m 23.911 -49.27 h 0.978 v 3.317 h -0.978 z"/></g></g><g transform="matrix(0.69481 0 0 0.57401 2.8 21.843)" style="fill:#ff4500;color:#000;fill-rule:evenodd"><path solid-color="#ffffff" solid-opacity="1" white-space="normal" isolation="auto" mix-blend-mode="normal" d="m 14.165,27.18 0.091,-1.366 c 0.706,-10.931 1.865,-18.426 3.306,-23.24 1.441,-4.818 3.156,-6.741 4.451,-7.197 0.647,-0.229 1.315,-0.212 2.2,0.091 0.885,0.301 1.936,0.917 3.052,1.773 2.231,1.712 4.711,4.356 7.215,7.04 2.502,2.686 5.03,5.411 7.578,7.361 1.277,0.974 2.565,1.767 3.933,2.226 1.368,0.457 2.87,0.552 4.272,0.039 2.807,-1.026 4.741,-3.998 6.28,-9.213 1.538,-5.215 2.683,-13.07 3.381,-24.16 h -3.04 C 56.192,-8.49 55.045,-0.958 53.614,3.897 52.183,8.75 50.47,10.71 49.177,11.182 48.532,11.417 47.872,11.404 46.993,11.11 46.114,10.817 45.069,10.214 43.957,9.365 41.733,7.666 39.252,5.027 36.75,2.345 c -2.502,-2.686 -5.03,-5.421 -7.583,-7.38 -1.277,-0.98 -2.565,-1.773 -3.933,-2.239 -1.368,-0.466 -2.868,-0.577 -4.276,-0.08 -2.817,0.995 -4.772,3.946 -6.322,9.129 -1.551,5.184 -2.707,14.37 -3.422,25.404 2.05,-0.029 2.03,0 2.949,0 z" style="fill-opacity:0.098"/><path solid-color="#ffffff" solid-opacity="1" white-space="normal" isolation="auto" mix-blend-mode="normal" d="m 12.49,26.521 0.092,-1.386 c 0.711,-11.09 1.879,-18.693 3.33,-23.581 1.451,-4.888 3.179,-6.838 4.483,-7.302 0.652,-0.233 1.325,-0.215 2.216,0.093 0.891,0.306 1.95,0.931 3.074,1.798 2.246,1.737 4.744,4.419 7.267,7.144 2.52,2.725 5.063,5.49 7.633,7.467 1.286,0.988 2.584,1.792 3.961,2.258 1.378,0.463 2.89,0.56 4.303,0.039 2.827,-1.041 4.775,-4.056 6.324,-9.347 1.549,-5.29 2.702,-13.257 3.405,-24.506 H 55.516 C 54.819,-9.667 53.664,-2.026 52.223,2.9 50.782,7.824 49.057,9.811 47.755,10.29 47.105,10.529 46.441,10.515 45.556,10.217 44.671,9.919 43.618,9.308 42.498,8.446 40.258,6.723 37.76,4.045 35.239,1.322 c -2.52,-2.725 -5.065,-5.499 -7.637,-7.487 -1.286,-0.994 -2.584,-1.798 -3.961,-2.272 -1.378,-0.473 -2.888,-0.586 -4.307,-0.081 -2.837,1.01 -4.806,4 -6.367,9.262 -1.562,5.259 -2.727,14.578 -3.446,25.772 2.065,-0.03 2.044,0 2.97,0 z"/></g></g><g transform="matrix(0.79892 0 0 0.80822 30.353 179.38)" style="fill:#ffa07a"><path transform="matrix(0 1 -1 0 0 0)" d="m 847.39 -247.36 h 5.147 v 42.35 h -5.147 z"/><path transform="scale(-1 -1)" d="m -210.04 -852.96 h 5.147 v 42.36 h -5.147 z"/></g></g></svg>