<svg xmlns="http://www.w3.org/2000/svg" viewBox="0 0 256 256"><g style="fill:#fff"><path d="m 53.53106 235.21983 c 119.08 83.29 268.19 -104.26 171.28 -202.260002 -91.39 -92.42 -261.92 27.07 -217.5800003 141.960002 9.2750003 24.03 24.5420003 45.09 46.3000003 60.3 z" transform="matrix(0 1 -1 0 257.08019 -0.00561628)" style="color:#000"/></g><g transform="matrix(0.90850496 0 0 0.92389826 11.370109 8.1551808)" style="fill:#ff4500"><g style="fill-rule:evenodd"><path d="M 53.1355,83.5083 H 190.932 V 95.4747 H 53.1355 z"/><path d="m 55.279,111.686 h 134.595 v 12.018 H 55.279 z"/><path d="m 56.514,137.87 h 49.684 v 13.887 H 56.514 z"/></g><path d="m 122.55835,50.155392 c -13.88539,-0.258038 -27.828061,4.7972 -38.628188,15.251082 -21.600433,20.916372 -22.306747,55.498296 -1.576782,77.201336 18.07186,18.91882 46.44853,21.95669 67.75063,8.54041 3.57219,0.24756 9.33957,0.86374 11.33992,3.2475 2.72572,3.2341 -1.36025,10.58619 3.88308,15.54074 l 32.50307,34.67283 c 0,0 6.06031,6.75555 15.85907,-2.74207 9.80733,-9.49745 3.3282,-15.81218 3.3282,-15.81218 l -32.60547,-34.67473 c -4.71201,-5.47095 -12.20885,-1.66764 -15.31783,-4.52926 -2.27929,-2.10424 -2.56274,-7.87248 -2.66851,-11.47197 14.15549,-20.90808 12.26619,-49.628611 -5.80568,-68.547427 -10.3649,-10.855824 -24.1932,-16.418534 -38.07858,-16.676574 z m -0.17518,18.191495 c 19.95332,0.37081 35.87001,16.963363 35.45979,37.048473 -0.41041,20.09373 -16.98381,36.07387 -36.9457,35.70292 C 100.94397,140.72746 85.129697,124.13683 85.539924,104.05171 85.745118,94.004846 89.98758,84.843939 96.668004,78.376926 103.34842,71.909898 112.40669,68.152862 122.38335,68.338262 z"/><path d="m 57.6943,166.169 h 56.0017 v 13.696 H 57.6943 z" style="fill-rule:evenodd"/></g></svg>