<svg xmlns="http://www.w3.org/2000/svg" viewBox="0 0 256 256"><path d="m 157.05 800.67 c 237.88 49.54 -17.492 390.35 -138.4 185.62 -51.828 -79.53 16.06 -211.1 138.4 -185.62 z" transform="matrix(1 0 0 -0.99577 1.342 1048.14)" style="fill:#fff;color:#000"/><path d="m 104.15 204.12 c -13.03 -4.22 -18.887 -8 -30.09 -19.427 -9.76 -9.955 -11.775 -13.253 -17.872 -29.25 c -5.862 -20.06 -6.674 -22.388 0.291 -46.1 5.544 -13.98 6.716 -16.269 11.05 -21.629 5.694 -7.04 8.817 -10.177 15.822 -15.899 5.333 -4.357 7.616 -5.534 21.523 -11.11 25.606 -5.091 29.985 -4.843 54.1 2.709 4.606 1.159 15.933 8.701 21.582 14.372 8.567 8.6 15 19.321 17.306 25.696 7.385 30.05 6.988 32.405 2.187 52.887 -4.929 12.783 -6.848 16.407 -11.724 22.15 -2.883 3.394 -5.241 6.545 -5.241 7.01 0 0.461 -2.079 2.318 -4.618 4.126 -2.54 1.809 -6.835 4.923 -9.545 6.922 -2.71 1.999 -9.584 5.175 -15.275 7.06 -24.2 7.661 -25.07 6.072 -49.5 0.487 z m 46.11 -17.425 c 9.02 -3.423 11.37 -4.998 19.01 -12.782 7.333 -7.472 9.415 -10.587 13.12 -19.635 3.869 -9.466 4.398 -12.04 4.398 -21.377 0 -9.416 -0.52 -11.895 -4.592 -21.901 -3.995 -9.816 -5.744 -12.427 -13.451 -20.08 -7.662 -7.612 -10.329 -9.381 -19.732 -13.09 -9.122 -3.599 -12.459 -4.296 -20.729 -4.332 -8.808 -0.039 -11.07 0.482 -21.356 4.908 -15.383 6.621 -25.446 16.384 -31.902 30.942 -5.536 12.489 -6.93 27.904 -3.391 37.48 5.318 14.395 9.144 20.855 16.802 28.376 7.78 7.642 17.07 12.489 29.374 15.327 8.188 1.888 21.526 0.315 32.447 -3.827 z m -49.03 -17.762 c -1.943 -1.428 -2.163 -2.744 -1.499 -8.973 0.428 -4.01 2.145 -11.477 3.815 -16.582 1.671 -5.105 4.422 -15.13 6.115 -22.277 3.512 -14.826 8.931 -31.993 10.818 -34.28 1.864 -2.257 8.993 -3.292 11.902 -1.728 4.213 2.266 4.284 5.725 0.361 17.771 -3.907 11.995 -9.669 34.33 -10.788 41.828 -1.049 7.02 0.833 7.763 20.729 8.174 18.36 0.378 20.701 1.082 20.701 6.224 0 4.635 -2.245 7.846 -6.833 9.773 -5.864 2.462 -51.991 2.528 -55.32 0.079 z m 47.65 -58.42 c -4.01 -2.819 -3.742 -9.476 0.507 -12.836 4.125 -3.26 4.835 -3.221 8.513 0.473 5.384 5.411 2.671 14.289 -4.367 14.289 -1.053 0 -3.147 -0.867 -4.652 -1.926 z" style="fill:#ff4500"/></svg>