<svg xmlns="http://www.w3.org/2000/svg" xmlns:xlink="http://www.w3.org/1999/xlink" viewBox="0 0 256 256"><defs><path id="0" d="m 62.5 4.5 c 0 5.523 -4.477 10 -10 10 -5.523 0 -10 -4.477 -10 -10 0 -5.523 4.477 -10 10 -10 5.523 0 10 4.477 10 10 z"/><clipPath><path transform="matrix(15.33333 0 0 11.5 415 -125.5)" d="m -24 13 c 0 1.105 -0.672 2 -1.5 2 -0.828 0 -1.5 -0.895 -1.5 -2 0 -1.105 0.672 -2 1.5 -2 0.828 0 1.5 0.895 1.5 2 z"/></clipPath><filter height="1.767" y="-0.384" width="1.177" x="-0.089" id="1"><feGaussianBlur stdDeviation="1.59836"/></filter><linearGradient gradientUnits="userSpaceOnUse" y2="-4.621" x2="52.5" y1="12.472" x1="55.878" id="8"><stop style="stop-color:#a10000"/><stop offset="1" style="stop-color:#d30000"/></linearGradient><linearGradient gradientUnits="userSpaceOnUse" y2="-3.881" x2="50.08" y1="12.847" x1="54.11" id="9"><stop style="stop-color:#d30000"/><stop offset="1" style="stop-color:#a10000"/></linearGradient><linearGradient gradientTransform="matrix(0.85844 0 0 0.83471 4.415 8.446)" gradientUnits="userSpaceOnUse" y2="38.435" x2="43.06" y1="41" x1="40.25" id="6"><stop style="stop-color:#a10000"/><stop offset="1" style="stop-color:#ec0000"/></linearGradient><linearGradient y2="54.615" x2="83.63" y1="57.15" x1="81.1" gradientUnits="userSpaceOnUse" id="5"><stop style="stop-color:#470000"/><stop offset="1" style="stop-color:#6e0000"/></linearGradient><linearGradient gradientUnits="userSpaceOnUse" y2="45.743" x2="46.779" y1="35.743" x1="3.5" id="2"><stop style="stop-opacity:0"/><stop offset="0.081" style="stop-opacity:0"/><stop offset="0.615" style="stop-opacity:0.247"/><stop offset="0.749" style="stop-opacity:0.498"/><stop offset="1"/></linearGradient><linearGradient gradientTransform="matrix(0.85844 0 0 0.83471 4.415 8.446)" gradientUnits="userSpaceOnUse" y2="35.27" x2="37.21" y1="32.05" x1="33.985" id="A"><stop/><stop offset="1" style="stop-opacity:0"/></linearGradient><linearGradient y2="53.51" x2="82.92" y1="55.11" x1="81.33" gradientUnits="userSpaceOnUse" id="4"><stop style="stop-color:#6e0000"/><stop offset="0.702" style="stop-color:#bc0000"/><stop offset="1" style="stop-color:#a10000"/></linearGradient><radialGradient r="10.556" cy="10.902" cx="59.787" gradientTransform="matrix(0 -1.68661 1.66336 0 41.654 111.74)" gradientUnits="userSpaceOnUse" id="3"><stop style="stop-color:#fe1515"/><stop offset="1" style="stop-color:#ec0000"/></radialGradient><radialGradient r="10.498" cy="-2.694" cx="45.09" gradientTransform="matrix(0 1.14344 -1.24722 0 41.735 -54.26)" gradientUnits="userSpaceOnUse" id="7"><stop style="stop-color:#ff1919"/><stop offset="1" style="stop-color:#fe0808"/></radialGradient></defs><g style="fill:#fff"><path d="m 229.63 992.2 c 92.05 -130.93 -77.948 -263.6 -186.39 -156.91 -102.17 100.51 -7.449 256.68 119.69 207.86 c 26.526 -10.185 49.802 -26.914 66.7 -50.948 z" transform="matrix(0.99081 0 0 0.99081 2.879 -788.17)" style="fill:#fff;color:#000"/></g><g transform="matrix(3.14605 0 0 3.51796 46.24 43.594)"><path transform="matrix(0.87733 0 0 0.60292 5.459 19.56)" d="m 21,35.743 c -9.66,0 -17.5,1.813 -17.5,4.047 0,2.234 7.84,4.047 17.5,4.047 4.496,0 8.587,-0.395 11.688,-1.041 l 0.813,0.947 c 0.025,0.021 0.087,0.043 0.156,0.058 l 7.969,1.857 c 0.357,0.083 0.883,0.101 1.531,0.072 0.649,-0.029 1.412,-0.124 2.219,-0.311 0.801,-0.185 1.206,-0.35 1.344,-0.499 0.138,-0.149 0.039,-0.28 -0.313,-0.361 l -8.03,-1.843 C 38.298,42.698 38.205,42.684 38.096,42.68 l -4.094,-0.188 c 2.79,-0.717 4.5,-1.663 4.5,-2.703 0,-2.234 -7.84,-4.047 -17.5,-4.047 z" style="fill:url(#2);opacity:0.6;filter:url(#1)"/><g><g style="fill:#ff4500"><path d="M 2,10.883 V 15.5 h 37.06 l 2.604,-2.308 -2.604,-2.308 z"/><path d="M 2,4.883 V 9.5 H 39.06 L 41.664,7.192 39.06,4.884 z" style="opacity:0.162"/><path d="M 2,16.883 V 21.5 h 37.06 l 2.604,-2.308 -2.604,-2.308 z" style="opacity:0.162"/><path d="M 2,22.883 V 27.5 h 37.06 l 2.604,-2.308 -2.604,-2.308 z"/></g><g style="fill:#e10000"><path d="M 2,28.883 V 33.5 h 37.06 l 2.604,-2.308 -2.604,-2.308 z"/><path d="M 2,34.883 V 39.5 h 37.06 l 2.604,-2.308 -2.604,-2.308 z" style="opacity:0.162"/></g><g style="color:#000"><use transform="matrix(1.3735 0 0 1.33554 -48.808 19.13)" xlink:href="#0" width="256" height="256" style="fill:none;stroke:url(#3);stroke-linecap:round;stroke-width:2.215"/><g transform="matrix(1.32547 0 0 1.28213 -68.19 -28.653)"><path d="m 76.8,49.768 0.648,3.255 5.181,5.213 c 0.193,0.194 0.971,0.32 1.943,-0.656 0.971,-0.977 0.896,-1.704 0.648,-1.953 l -5.181,-5.208 -3.238,-0.651 z" style="fill:url(#4);stroke:url(#5);stroke-linecap:round;stroke-linejoin:round;stroke-width:0.799"/><path d="m 79.57,51.32 c -0.003,0.011 0.294,0.324 -0.245,0.865 -0.539,0.541 -1.01,0.374 -0.993,0.36 l -0.269,-1.522 1.508,0.296 z" style="fill:#ff1919;opacity:0.192"/></g><path d="m 34.705,36.22 0.534,2.672 6.438,6.301 c 0.317,0.31 0.802,0.182 1.603,-0.598 0.802,-0.779 1.01,-1.17 0.61,-1.559 l -6.438,-6.297 -2.748,-0.52 z" style="fill:none;stroke:url(#6);stroke-linecap:round"/><path d="m 33.458,34.733 c -0.223,0.073 -0.35,0.301 -0.29,0.521 l 0.87,4.167 c 0.022,0.077 0.065,0.146 0.124,0.2 l 6.834,6.691 c 0.306,0.298 0.769,0.385 1.325,0.28 0.557,-0.105 1.212,-0.448 1.905,-1.122 0.687,-0.668 1.041,-1.266 1.16,-1.803 0.118,-0.537 0.012,-1.029 -0.29,-1.322 L 38.22,35.694 c -0.068,-0.065 -0.155,-0.107 -0.249,-0.12 l -4.266,-0.841 c -0.081,-0.023 -0.167,-0.023 -0.249,0 z" style="fill:url(#A);opacity:0.153"/><g style="fill:none;stroke-linecap:round"><use transform="matrix(1.41642 0 0 1.37728 -51.06 18.943)" xlink:href="#0" width="256" height="256" style="stroke:url(#7);stroke-width:0.716"/><use transform="matrix(1.50226 0 0 1.46075 -55.57 18.567)" xlink:href="#0" width="256" height="256" style="stroke:url(#8);stroke-width:0.675"/><use transform="matrix(1.24745 0 0 1.21299 -42.19 19.682)" xlink:href="#0" width="256" height="256" style="stroke:url(#9);stroke-width:0.813"/></g></g></g></g></svg>