<svg xmlns="http://www.w3.org/2000/svg" viewBox="0 0 256 256"><defs><clipPath><path transform="matrix(15.33333 0 0 11.5 415 -125.5)" d="m -24 13 c 0 1.105 -0.672 2 -1.5 2 -0.828 0 -1.5 -0.895 -1.5 -2 0 -1.105 0.672 -2 1.5 -2 0.828 0 1.5 0.895 1.5 2 z"/></clipPath></defs><path d="M 33.674803,216.41632 C -111.5052,-5.1436759 285.0248,-90.883676 253.4348,137.04632 c -12.881,92.96 -164.229997,164.13 -219.759997,79.37 z" style="fill:#fff;color:#000"/><g transform="matrix(3.3043393 0 0 3.0651963 49.495055 55.224129)" style="stroke:#ff4500"><g style="fill:none"><path d="m 17.9707 40.0791 h 3.9562 v 7.4104 h -3.9562 z" style="stroke-width:1.02506936"/><path d="m 28.275,39.4882 h 3.9857 v 7.9782 H 28.275 z" style="stroke-width:0.99999982"/></g><g style="fill:#fff;fill-rule:evenodd"><path d="m 18.4682 40.516 h 2.9611 v 6.4858 h -2.9611 z"/><path d="m 28.7678 42.1033 h 3 v 4.9135 h -3 z"/><g style="stroke-width:1.0000005"><rect width="6.1280832" height="5" rx="2.0714309" ry="2.0714285" x="27.203806" y="39.038982"/><rect width="6.1280832" height="5" rx="2.0714309" ry="2.0714285" x="16.884729" y="39.025646"/></g></g><g transform="matrix(1 0 0 -1 0 -0.99896997)" style="fill:#ff4500"><path d="m 26.4436 -6.53957 h 4.1084 v 5.957411 h -4.1084 z" style="stroke-width:0.87732077"/><path d="m 17.7906 -6 h 3.4275 v 5.026791 h -3.4275 z" style="fill-rule:evenodd"/><path d="m 17.546,-6.53824 h 4.0489 v 5.98976 H 17.546 z" style="stroke-width:0.93232733"/><path d="m 26.8445 -5.56697 h 3.311 v 4.616526 h -3.311 z" style="fill-rule:evenodd"/></g><rect width="38.996269" height="32.996269" rx="1" x="4.96752215" y="6.2531567" style="fill:none;stroke-linecap:round;stroke-linejoin:round;stroke-width:1.004"/><path d="m 12.418306,12.659538 v 0.811561 1.623121 H 9.983625 v 0.81156 h 2.434681 0.811561 v -2.434681 h 0.811561 v 4.057802 0.811561 h 2.434681 V 17.528901 15.90578 h 1.623121 2.434682 0.81156 v -2.434681 h 0.811561 v 4.057802 0.811561 h 2.434682 V 17.528901 15.90578 h 1.623121 1.623121 0.81156 v -2.434681 h 0.811561 v 4.057802 0.811561 h 2.434681 V 17.528901 15.90578 h 1.623121 2.434682 0.811561 v -2.434681 h 0.81156 v -0.811561 h -1.623121 v 0.811561 1.623121 H 33.51888 31.084199 v 0.81156 1.623121 h -0.811561 v -4.057802 -0.811561 h -2.434681 v 0.811561 1.623121 h -1.623121 -2.434682 v 0.81156 1.623121 h -0.811561 v -4.057802 -0.811561 h -2.434681 v 0.811561 1.623121 H 18.09923 15.664549 v 0.81156 1.623121 h -0.811561 v -4.057802 -0.811561 h -2.434682 z" style="fill:#f00;fill-rule:evenodd"/><g transform="translate(-1.7671719 -2.4974249)" style="fill:#fff"><path d="M 8.6243,27.9288 H 21.3639 V 38.8449 H 8.6243 z" style="stroke-width:0.75114316"/><path d="m 9.90064,28.8134 h 2.77806 v 2.566 H 9.90064 z"/><path d="m 9.90771,35.3605 h 2.77799 v 2.566 H 9.90771 z"/><path d="m 9.92145,32.0903 h 2.77805 v 2.5659 H 9.92145 z"/><path d="m 13.5901 32.0903 h 2.7781 v 2.5659 h -2.7781 z"/><path d="m 17.3,32.0903 h 2.7781 v 2.5659 H 17.3 z"/><path d="m 13.5901 35.3605 h 2.7781 v 2.566 h -2.7781 z"/><path d="m 17.2863 35.3605 h 2.778 v 2.566 h -2.778 z"/><path d="m 17.3067 28.8375 h 2.778 v 2.566 h -2.778 z"/><path d="m 13.5917 28.8148 h 2.778 v 2.5659 h -2.778 z"/></g><g transform="matrix(0.99387142 0 0 1.1595605 -0.97770362 -5.899799)" style="fill:#ff4500"><g><rect rx="0.40000001" transform="matrix(0.00915219 0.99995812 -0.99995812 0.00915219 0 0)" width="1.9431828" height="1.0881823" x="28.087975" y="-29.245203"/><g transform="matrix(0.99995812 -0.00915219 0.00915219 0.99995812 0 0)"><rect rx="0.40000001" y="33.50631" x="22.696428" height="1.0881823" width="2.02091"/><rect rx="0.40000001" width="1.7877281" height="1.0881823" x="32.490074" y="33.50489"/></g><rect rx="0.40000001" transform="matrix(0.68326606 0.73016949 -0.73016949 0.68326606 0 0)" y="1.3575914" x="38.492668" height="1.0881823" width="2.02091"/><rect rx="0.40000001" width="2.02091" height="1.0881823" x="-1.0010228" y="43.789871" transform="matrix(-0.68326606 0.73016949 0.73016949 0.68326606 0 0)"/></g><rect rx="0.40000001" transform="scale(-1 -1)" y="-33.275948" x="-30.017399" height="4.5805264" width="2.1763647"/><g style="fill-rule:evenodd"><path d="m 31.160495 35.756442 c -1.132023 1.232145 -3.050381 1.313759 -4.282045 0.182177 -1.231667 -1.131584 -1.312536 -3.049973 -0.180513 -4.282118 1.132023 -1.232144 3.050381 -1.313758 4.282048 -0.182174 1.231664 1.131582 1.312533 3.049971 0.18051 4.282115 z" style="stroke-width:0.99999994"/><path d="m 30.143026 32.38531 c -0.741541 -0.681285 -1.853319 -0.634588 -2.534973 0.107354 -0.681654 0.741943 -0.634185 1.853687 0.107356 2.534972 0.741538 0.681283 1.853317 0.634587 2.534971 -0.107355 0.681653 -0.741941 0.634183 -1.853689 -0.107354 -2.534971 z" style="fill:#fff;stroke-width:0.91128999"/></g><path d="m -29.2013 -32.333 h 0.5441 v 3.5237 h -0.5441 z" transform="scale(-1 -1)"/></g><path d="m 15.169377 44.262619 c 0 1.123113 -0.910463 2.033576 -2.033576 2.033576 -1.123113 0 -2.033575 -0.910463 -2.033575 -2.033576 0 -1.123113 0.910462 -2.033576 2.033575 -2.033576 1.123113 0 2.033576 0.910463 2.033576 2.033576 z" transform="matrix(0.51351349 0 0 0.51351349 29.034536 5.8691366)" style="fill:#f00"/><g style="fill:#ff4500"><path transform="matrix(0.51351349 0 0 0.51351349 34.292549 5.8691364)" d="m 15.169377 44.262619 c 0 1.123113 -0.910463 2.033576 -2.033576 2.033576 -1.123113 0 -2.033575 -0.910463 -2.033575 -2.033576 0 -1.123113 0.910462 -2.033576 2.033575 -2.033576 1.123113 0 2.033576 0.910463 2.033576 2.033576 z"/><g transform="translate(0.62181851 -0.23318194)"><rect rx="0.40000001" y="23.184879" x="27.865486" height="1.8412106" width="1.1267109"/><rect rx="0.40000001" width="1.1267109" height="1.8412106" x="35.793682" y="23.157398"/><rect rx="0.40000001" width="1.1267109" height="2.5007486" x="29.81662" y="22.387938"/><rect rx="0.40000001" y="22.415419" x="33.773846" height="2.5007486" width="1.1267109"/><rect rx="0.40000001" width="1.1267109" height="3.5999789" x="31.781492" y="21.206266"/></g></g></g></svg>