<svg xmlns="http://www.w3.org/2000/svg" viewBox="0 0 256 256"><defs><clipPath><path transform="matrix(15.33333 0 0 11.5 415 -125.5)" d="m -24 13 c 0 1.105 -0.672 2 -1.5 2 -0.828 0 -1.5 -0.895 -1.5 -2 0 -1.105 0.672 -2 1.5 -2 0.828 0 1.5 0.895 1.5 2 z" style="fill:#1890d0"/></clipPath><clipPath><path transform="matrix(15.33333 0 0 11.5 415 -125.5)" d="m -24 13 c 0 1.105 -0.672 2 -1.5 2 -0.828 0 -1.5 -0.895 -1.5 -2 0 -1.105 0.672 -2 1.5 -2 0.828 0 1.5 0.895 1.5 2 z" style="fill:#1890d0"/></clipPath></defs><g transform="translate(0 -796.36)"><path d="m 52.774 1027.39 c 192.46 127.95 311 -280.09 62.2 -226.07 -102.82 23.02 -165.22 167.39 -62.2 226.07 z" style="fill:#fff;color:#000"/><g transform="matrix(4.24711 0 0 4.33835 30.04 822.21)" style="fill:#ff4500"><path d="m 12,12 0,26 6,0 0,-14 4,7 6,0 4,-7 0,14 6,0 0,-26 -4,0 -2,0 -7,11 -7,-11 -2,0 z" style="opacity:0.1"/><path d="m 11,11 0,26 6,0 0,-14 4,7 6,0 4,-7 0,14 6,0 0,-26 -4,0 -2,0 -7,11 -7,-11 -2,0 z"/><path d="m 12,12 0,24 4,0 0,-16.4375 6,9.4375 4,0 6,-9.4375 0,16.4375 4,0 0,-24 -3,0 -1,0 -8,12 -8,-12 -1,0 -3,0 z"/><path d="m 27 25 v 3 h -3 v 6 h 3 v 3 h 6 v -3 h 3 v -6 h -3 v -3 z" style="opacity:0.1"/><path d="M 26,24 H32 V36 H26 z"/><g transform="matrix(0 1 -1 0 0 0)"><path d="M 27,-35 H33 V-23 H27 z"/><path d="M 28,-34 H32 V-24 H28 z" style="fill:#ffdead"/></g><path d="M 27,25 H31 V35 H27 z" style="fill:#ffdead"/></g></g></svg>