<svg xmlns="http://www.w3.org/2000/svg" viewBox="0 0 256 256"><defs><clipPath><path transform="matrix(15.33333 0 0 11.5 415 -125.5)" d="m -24 13 c 0 1.105 -0.672 2 -1.5 2 -0.828 0 -1.5 -0.895 -1.5 -2 0 -1.105 0.672 -2 1.5 -2 0.828 0 1.5 0.895 1.5 2 z"/></clipPath></defs><path d="m 222.65 37.868 c 145.18 221.56 -251.35 307.3 -219.76 79.37 12.881 -92.96 164.23 -164.13 219.76 -79.37 z" transform="translate(0.508 2.624)" style="fill:#fff;color:#000"/><path d="m 25.375 83.45 h 207.06 v 95.41 h -207.06 z" style="fill:#ffd700"/><g transform="matrix(0.73568 0 0 0.82255 37.12 33.16)"><path d="m -18.553 125.93 v -71.5 h 144 h 144 v 71.5 v 71.5 h -144 h -144 v -71.5 z m 95.5 63.917 c 0 -2.594 -0.343 -2.917 -3.093 -2.917 -1.701 0 -3.833 -0.613 -4.738 -1.363 -1.402 -1.161 -1.734 -1.133 -2.242 0.192 -1.258 3.278 0.001 5.183 3.258 4.931 2.068 -0.16 3.31 0.287 3.712 1.333 0.965 2.514 3.103 1.015 3.103 -2.177 z m -23.821 0.435 c 2.308 -1.915 1.617 -4.143 -1.075 -3.467 -1.622 0.407 -2.581 0.119 -2.969 -0.892 -0.315 -0.821 -1.021 -1.493 -1.569 -1.493 -1.334 0 -3.337 3.856 -2.768 5.328 0.596 1.542 6.693 1.923 8.38 0.523 z m 44.821 -1.351 c 0 -1.654 -0.693 -2.01 -4 -2.078 -2.2 -0.043 -4.557 0.345 -5.238 0.863 -0.842 0.64 -1.436 0.424 -1.857 -0.672 -0.934 -2.434 -2.405 -1.934 -2.405 0.818 0 2.765 1.846 3.422 9 3.206 3.788 -0.115 4.5 -0.453 4.5 -2.136 z m 14.5 1.51 c 1.925 0.189 8.45 0.376 14.5 0.417 10.358 0.069 11 -0.044 11 -1.927 0 -1.654 -0.693 -2.01 -4 -2.078 -2.2 -0.043 -4.582 0.365 -5.292 0.908 -0.867 0.661 -1.674 0.605 -2.45 -0.172 -0.637 -0.637 -2.553 -1.158 -4.258 -1.158 -1.705 0 -3.621 -0.521 -4.258 -1.158 -0.822 -0.822 -1.533 -0.85 -2.45 -0.098 -2.01 1.651 -5.332 1.882 -7.01 0.488 -2.12 -1.759 -4.78 -0.484 -4.78 2.291 0 2.523 1.651 3.65 4 2.73 0.825 -0.323 3.075 -0.433 5 -0.244 z m 37.429 0.105 c 1.02 -1.65 -1.581 -7.232 -3.223 -6.916 -1.602 0.309 -3.531 5.466 -2.605 6.965 0.687 1.111 5.134 1.073 5.827 -0.049 z m 23.371 -0.315 c 2.219 -2.219 1.346 -3.696 -2.05 -3.469 -1.787 0.119 -3.843 0.589 -4.567 1.044 -0.884 0.555 -1.478 0.211 -1.807 -1.047 -0.374 -1.432 -1.42 -1.873 -4.433 -1.873 -3.642 0 -3.943 0.211 -3.943 2.773 0 2.963 0.889 3.484 2.758 1.615 0.816 -0.816 1.539 -0.847 2.45 -0.108 2.745 2.23 9.781 2.877 11.592 1.065 z m 8.2 -1.331 c 0 -2.644 -2.482 -4.387 -4.03 -2.834 -1.478 1.478 0.081 5.366 2.151 5.366 1.348 0 1.883 -0.719 1.883 -2.531 z m 8.986 1.781 c -0.037 -2.043 -1.322 -5.25 -2.103 -5.25 -1.026 0 -1.203 4.347 -0.217 5.333 0.898 0.898 2.337 0.846 2.32 -0.083 z m 6.977 -0.706 c 1.374 -1.656 0.594 -3.544 -1.464 -3.544 -1.8 0 -2.824 1.714 -2.12 3.548 0.71 1.851 2.045 1.85 3.584 -0.004 z m 8.834 -1.127 c 0.246 -1.721 -0.233 -2.083 -2.75 -2.083 -2.178 0 -3.048 0.476 -3.048 1.667 0 2.291 1.049 3.137 3.459 2.792 1.181 -0.169 2.167 -1.17 2.339 -2.376 z m 10.02 0.333 c -0.247 -1.736 -1.01 -2.271 -3.32 -2.344 -3.835 -0.12 -4.552 0.294 -3.818 2.206 0.353 0.92 1.35 1.351 2.455 1.062 1.024 -0.268 2.113 -0.079 2.421 0.419 1.088 1.761 2.577 0.876 2.262 -1.344 z m -155.07 -0.833 c 0.137 -0.779 -0.182 -2.088 -0.708 -2.909 -1.393 -2.17 -3.432 0.182 -2.555 2.946 0.735 2.316 2.854 2.292 3.263 -0.037 z m 33.25 -17.417 c 0 -2.508 -0.655 -2.867 -4.654 -2.552 -1.185 0.093 -2.449 -0.307 -2.809 -0.889 -1.399 -2.263 -3.676 -1.115 -3.353 1.691 0.28 2.43 0.684 2.715 3.475 2.448 1.737 -0.166 3.451 0.172 3.809 0.75 1.254 2.029 3.532 1.095 3.532 -1.448 z m 27.75 0.173 c 0.688 -0.435 1.25 -1.383 1.25 -2.107 0 -1.611 -5.86 -2.926 -7.393 -1.659 -1.488 1.229 -8.768 1.034 -10.465 -0.28 -1.01 -0.779 -1.72 -0.557 -2.75 0.852 -0.765 1.047 -1.392 2.239 -1.392 2.649 0 1.48 18.504 1.966 20.75 0.545 z m 16.25 0.909 c 0 -0.23 0.273 -1.13 0.607 -2 0.473 -1.233 -0.078 -1.582 -2.5 -1.582 -3.354 0 -3.408 0.052 -2.5 2.418 0.517 1.348 4.393 2.374 4.393 1.164 z m 12.8 -0.782 c 2.284 -2.284 1.405 -4.467 -1.8 -4.467 -2.109 0 -3 0.485 -3 1.633 0 1.599 1.811 4.03 3 4.03 0.33 0 1.14 -0.54 1.8 -1.2 z m 24.2 -0.716 c 0 -1.88 -2.852 -4.355 -4.355 -3.778 -2.186 0.839 -2.109 4.444 0.105 4.936 2.04 0.453 4.25 -0.149 4.25 -1.158 z m -45 -1.157 c 0 -1.431 -0.539 -1.97 -1.739 -1.739 -2.607 0.502 -2.897 3.812 -0.335 3.812 1.431 0 2.073 -0.642 2.073 -2.073 z m 28 0 c 0 -1.431 -0.539 -1.97 -1.739 -1.739 -2.607 0.502 -2.897 3.812 -0.335 3.812 1.431 0 2.073 -0.642 2.073 -2.073 z m 10 0.573 c 0 -0.825 -0.873 -1.5 -1.941 -1.5 -1.068 0 -2.219 -0.45 -2.559 -1 -1.139 -1.842 -2.5 -1.025 -2.5 1.5 0 2.19 0.433 2.5 3.5 2.5 2.444 0 3.5 -0.452 3.5 -1.5 z m 92.55 -30.11 c -0.355 -1.895 -1.074 -3.181 -1.596 -2.859 -1.085 0.671 -1.266 5.48 -0.3 7.996 1.133 2.951 2.645 -1.147 1.896 -5.138 z m -109.86 -2.577 c -0.319 -0.798 -0.556 -0.561 -0.604 0.604 -0.043 1.054 0.193 1.645 0.525 1.313 0.332 -0.332 0.368 -1.195 0.079 -1.917 z m 20.687 -0.063 c 0.332 -1.238 0.609 -8.347 0.617 -15.8 0.008 -7.453 0.434 -13.978 0.947 -14.5 1.337 -1.361 -0.235 -7.889 -1.973 -8.193 -3.847 -0.671 -4.215 0.956 -4.15 18.397 0.059 15.88 0.941 22.346 3.049 22.346 0.499 0 1.179 -1.012 1.511 -2.25 z m 31.828 -3.662 c 0.687 -4.02 -0.438 -17.661 -1.548 -18.772 -1.682 -1.682 -2.343 1.842 -2.046 10.91 0.185 5.651 0.349 10.874 0.366 11.607 0.07 3.063 2.559 0.176 3.228 -3.745 z m -211.29 -20.838 c 0.08 -12.938 -0.654 -16.971 -2.305 -12.668 -0.853 2.223 -0.759 29.458 0.116 33.543 0.717 3.35 0.728 3.337 1.412 -1.625 0.379 -2.75 0.729 -11.412 0.777 -19.25 z m 27.09 21.19 c 0 -0.857 -0.457 -1.276 -1.016 -0.931 -0.559 0.345 -0.757 1.047 -0.441 1.559 0.857 1.387 1.457 1.128 1.457 -0.628 z m 117 -5.561 c 0 -5.963 -4.357 -8.786 -11.493 -7.448 -5.468 1.026 -7.678 -0.711 -7.312 -5.747 l 0.304 -4.186 l 10.669 -0.606 c 5.868 -0.333 12.393 -0.327 14.5 0.013 l 3.831 0.619 l 0.534 9.487 c 0.333 5.913 1.143 10.61 2.149 12.468 l 1.615 2.981 l 1.033 -3.981 c 0.568 -2.19 1.172 -8.85 1.342 -14.801 0.287 -10.08 0.152 -10.995 -1.973 -13.38 -2.069 -2.322 -2.72 -2.492 -6.991 -1.815 -2.59 0.41 -9.435 0.662 -15.21 0.559 -16.849 -0.3 -19.17 1.624 -17.1 14.156 1.406 8.516 3.281 11.148 7.498 10.529 1.617 -0.237 4.716 0.019 6.886 0.57 3.171 0.805 4.24 1.703 5.437 4.569 1.41 3.375 1.566 3.464 2.886 1.658 0.768 -1.05 1.396 -3.591 1.396 -5.646 z m 97.41 -9.07 c 0.077 -11.423 0.316 -13.316 1.718 -13.589 1.239 -0.241 1.791 0.766 2.308 4.21 0.651 4.338 2.01 6.46 3.307 5.163 1.251 -1.251 0.298 -19.246 -1.21 -22.855 -0.833 -1.993 -1.263 -4.278 -0.956 -5.078 0.741 -1.932 -1.317 -3.118 -2.995 -1.726 -0.731 0.607 -2.055 0.825 -2.942 0.484 -1.131 -0.434 -1.916 0.178 -2.627 2.048 -1.397 3.673 -1.329 42.08 0.079 44.71 2.222 4.151 3.228 0.096 3.318 -13.367 z m -184.88 9.831 c 0.429 -2.862 0.068 -6.56 -1.05 -10.75 -0.937 -3.513 -1.992 -9.09 -2.343 -12.387 l -0.639 -6 l -4.438 0.103 l -4.438 0.103 l -1.808 6.397 c -1.89 6.686 -2.465 17.897 -0.919 17.897 0.952 0 3.466 -12.578 2.756 -13.788 -0.763 -1.299 1.258 -5.212 2.692 -5.212 2.671 0 4.147 3.317 4.849 10.898 1.221 13.198 1.992 17.1 3.375 17.1 0.778 0 1.574 -1.768 1.963 -4.363 z m 130.47 0.922 c 0 -1.593 -1.814 -3.078 -2.69 -2.202 -0.823 0.823 0.462 3.643 1.659 3.643 0.567 0 1.031 -0.648 1.031 -1.441 z m -111.3 -1.728 c 1.772 -1.47 1.637 -7.303 -0.204 -8.831 -0.825 -0.685 -1.5 -1.894 -1.5 -2.688 0 -0.794 -0.481 -2.343 -1.07 -3.442 -0.854 -1.596 -1.358 -1.76 -2.5 -0.812 -1.421 1.179 -2.073 12.1 -0.904 15.15 0.65 1.694 4.428 2.076 6.178 0.623 z m 26.668 -9.581 c 0.302 -5.912 0.679 -12.325 0.838 -14.25 0.243 -2.936 -0.059 -3.55 -1.875 -3.808 -2.691 -0.383 -3.063 1.013 -2.881 10.808 0.301 16.218 0.495 18 1.957 18 1.094 0 1.535 -2.42 1.961 -10.75 z m 94.22 7.257 c 1.765 -2.693 2.168 -9.434 1.247 -20.829 -0.73 -9.04 -1.73 -9.967 -8.734 -8.13 -2.969 0.779 -5.604 1.621 -5.854 1.872 -0.25 0.251 -0.034 1.719 0.481 3.264 0.742 2.226 1.719 2.936 4.708 3.422 4.673 0.76 5.533 2.065 5.533 8.394 0 5.958 -0.613 7.121 -4.229 8.03 -2.739 0.687 -3.274 1.914 -2.133 4.889 1.021 2.661 7.04 2.05 8.981 -0.912 z m -106.59 -2.01 c 0 -2.381 -0.461 -3.5 -1.441 -3.5 -2.145 0 -2.692 1.519 -1.591 4.416 1.401 3.685 3.03 3.193 3.03 -0.916 z m -62.04 -9.75 c -0.023 -5.259 -0.554 -9.156 -1.465 -10.75 -1.334 -2.334 -1.431 -1.993 -1.465 5.125 -0.02 4.194 0.246 9.03 0.59 10.75 1.164 5.82 2.375 3.167 2.34 -5.125 z m 45.04 -9.691 c 0 -0.518 -0.45 -1.219 -1 -1.559 -0.55 -0.34 -1 0.084 -1 0.941 0 0.857 0.45 1.559 1 1.559 0.55 0 1 -0.423 1 -0.941 z m 146.46 -4.04 c 1.798 -0.684 2.544 -1.707 2.544 -3.492 0 -1.389 -0.45 -2.525 -1 -2.525 -0.55 0 -1 -1.323 -1 -2.941 0 -3.654 -0.929 -4.277 -4.056 -2.719 -3.255 1.622 -4.807 5.311 -4.202 9.988 0.532 4.115 1.039 4.226 7.714 1.688 z m 9.544 -5.082 c 0 -5.156 -1.287 -8.934 -3.044 -8.934 -0.88 0 -0.441 9.385 0.596 12.75 0.958 3.109 2.448 0.787 2.448 -3.816 z m 39.875 -0.517 c 0.509 -2.602 -1.953 -21.469 -3.097 -23.732 -1.819 -3.597 -3.484 -0.076 -3.484 7.368 0 3.971 -0.501 7.554 -1.147 8.2 -1.806 1.806 -1.382 3.289 2.052 7.168 3.394 3.833 5.064 4.126 5.676 0.997 z" style="fill:#dd1b00"/><path d="m -19.932 123.46 v -71.5 h 144 h 144 v 71.5 v 71.5 h -144 h -144 v -71.5 z m 95.5 63.917 c 0 -2.594 -0.343 -2.917 -3.093 -2.917 -1.701 0 -3.833 -0.613 -4.738 -1.363 -1.402 -1.161 -1.734 -1.133 -2.242 0.192 -1.258 3.278 0.001 5.183 3.258 4.931 2.068 -0.16 3.31 0.287 3.712 1.333 0.965 2.514 3.103 1.015 3.103 -2.177 z m -23.821 0.435 c 2.308 -1.915 1.617 -4.143 -1.075 -3.467 -1.622 0.407 -2.581 0.119 -2.969 -0.892 -0.315 -0.821 -1.021 -1.493 -1.569 -1.493 -1.334 0 -3.337 3.856 -2.768 5.328 0.596 1.542 6.693 1.923 8.38 0.523 z m 44.821 -1.351 c 0 -1.654 -0.693 -2.01 -4 -2.078 -2.2 -0.043 -4.557 0.345 -5.238 0.863 -0.842 0.64 -1.436 0.424 -1.857 -0.672 -0.934 -2.434 -2.405 -1.934 -2.405 0.818 0 2.765 1.846 3.422 9 3.206 3.788 -0.115 4.5 -0.453 4.5 -2.136 z m 14.5 1.51 c 1.925 0.189 8.45 0.376 14.5 0.417 10.358 0.069 11 -0.044 11 -1.927 0 -1.654 -0.693 -2.01 -4 -2.078 -2.2 -0.043 -4.582 0.365 -5.292 0.908 -0.867 0.661 -1.674 0.605 -2.45 -0.172 -0.637 -0.637 -2.553 -1.158 -4.258 -1.158 -1.705 0 -3.621 -0.521 -4.258 -1.158 -0.822 -0.822 -1.533 -0.85 -2.45 -0.098 -2.01 1.651 -5.332 1.882 -7.01 0.488 -2.12 -1.759 -4.78 -0.484 -4.78 2.291 0 2.523 1.651 3.65 4 2.73 0.825 -0.323 3.075 -0.433 5 -0.244 z m 37.429 0.105 c 1.02 -1.65 -1.581 -7.232 -3.223 -6.916 -1.602 0.309 -3.531 5.466 -2.605 6.965 0.687 1.111 5.134 1.073 5.827 -0.049 z m 23.371 -0.315 c 2.219 -2.219 1.346 -3.696 -2.05 -3.469 -1.787 0.119 -3.843 0.589 -4.567 1.044 -0.884 0.555 -1.478 0.211 -1.807 -1.047 -0.374 -1.432 -1.42 -1.873 -4.433 -1.873 -3.642 0 -3.943 0.211 -3.943 2.773 0 2.963 0.889 3.484 2.758 1.615 0.816 -0.816 1.539 -0.847 2.45 -0.108 2.745 2.23 9.781 2.877 11.592 1.065 z m 8.2 -1.331 c 0 -2.644 -2.482 -4.387 -4.03 -2.834 -1.478 1.478 0.081 5.366 2.151 5.366 1.348 0 1.883 -0.719 1.883 -2.531 z m 8.986 1.781 c -0.037 -2.043 -1.322 -5.25 -2.103 -5.25 -1.026 0 -1.203 4.347 -0.217 5.333 0.898 0.898 2.337 0.846 2.32 -0.083 z m 6.977 -0.706 c 1.374 -1.656 0.594 -3.544 -1.464 -3.544 -1.8 0 -2.824 1.714 -2.12 3.548 0.71 1.851 2.045 1.85 3.584 -0.004 z m 8.834 -1.127 c 0.246 -1.721 -0.233 -2.083 -2.75 -2.083 -2.178 0 -3.048 0.476 -3.048 1.667 0 2.291 1.049 3.137 3.459 2.792 1.181 -0.169 2.167 -1.17 2.339 -2.376 z m 10.02 0.333 c -0.247 -1.736 -1.01 -2.271 -3.32 -2.344 -3.835 -0.12 -4.552 0.294 -3.818 2.206 0.353 0.92 1.35 1.351 2.455 1.062 1.024 -0.268 2.113 -0.079 2.421 0.419 1.088 1.761 2.577 0.876 2.262 -1.344 z m -155.07 -0.833 c 0.137 -0.779 -0.182 -2.088 -0.708 -2.909 -1.393 -2.17 -3.432 0.182 -2.555 2.946 0.735 2.316 2.854 2.292 3.263 -0.037 z m -68.749 -5.358 c 0 -1.343 -0.418 -2.699 -0.928 -3.01 -1.128 -0.697 -2.451 3.03 -1.578 4.447 1.133 1.833 2.506 1.049 2.506 -1.432 z m 13.06 -5.809 c 0.395 -8.444 0.211 -12.25 -0.591 -12.25 -1.187 0 -2.464 8.156 -1.762 11.25 0.541 2.384 2.254 3.112 2.352 1 z m -13.246 -40.26 c -0.019 -34.431 -0.499 -42.44 -2.201 -36.742 -0.695 2.323 -0.641 71.11 0.058 73.993 1.628 6.709 2.163 -2.579 2.144 -37.25 z m 102.19 34.01 c 0 -2.508 -0.655 -2.867 -4.654 -2.552 -1.185 0.093 -2.449 -0.307 -2.809 -0.889 -1.399 -2.263 -3.676 -1.115 -3.353 1.691 0.28 2.43 0.684 2.715 3.475 2.448 1.737 -0.166 3.451 0.172 3.809 0.75 1.254 2.029 3.532 1.095 3.532 -1.448 z m 27.75 0.173 c 0.688 -0.435 1.25 -1.383 1.25 -2.107 0 -1.611 -5.86 -2.926 -7.393 -1.659 -1.488 1.229 -8.768 1.034 -10.465 -0.28 -1.01 -0.779 -1.72 -0.557 -2.75 0.852 -0.765 1.047 -1.392 2.239 -1.392 2.649 0 1.48 18.504 1.966 20.75 0.545 z m 16.25 0.909 c 0 -0.23 0.273 -1.13 0.607 -2 0.473 -1.233 -0.078 -1.582 -2.5 -1.582 -3.354 0 -3.408 0.052 -2.5 2.418 0.517 1.348 4.393 2.374 4.393 1.164 z m 12.8 -0.782 c 2.284 -2.284 1.405 -4.467 -1.8 -4.467 -2.109 0 -3 0.485 -3 1.633 0 1.599 1.811 4.03 3 4.03 0.33 0 1.14 -0.54 1.8 -1.2 z m 24.2 -0.716 c 0 -1.88 -2.852 -4.355 -4.355 -3.778 -2.186 0.839 -2.109 4.444 0.105 4.936 2.04 0.453 4.25 -0.149 4.25 -1.158 z m -45 -1.157 c 0 -1.431 -0.539 -1.97 -1.739 -1.739 -2.607 0.502 -2.897 3.812 -0.335 3.812 1.431 0 2.073 -0.642 2.073 -2.073 z m 28 0 c 0 -1.431 -0.539 -1.97 -1.739 -1.739 -2.607 0.502 -2.897 3.812 -0.335 3.812 1.431 0 2.073 -0.642 2.073 -2.073 z m 10 0.573 c 0 -0.825 -0.873 -1.5 -1.941 -1.5 -1.068 0 -2.219 -0.45 -2.559 -1 -1.139 -1.842 -2.5 -1.025 -2.5 1.5 0 2.19 0.433 2.5 3.5 2.5 2.444 0 3.5 -0.452 3.5 -1.5 z m -148.8 -2.7 c -0.933 -0.933 -1.2 -0.667 -1.2 1.2 0 1.867 0.267 2.133 1.2 1.2 0.933 -0.933 0.933 -1.467 0 -2.4 z m 214.06 -40.29 c 0.212 -18.479 0.435 -21.02 1.87 -21.3 1.238 -0.238 1.792 0.772 2.308 4.213 0.651 4.338 2.01 6.46 3.307 5.163 1.251 -1.251 0.298 -19.246 -1.21 -22.855 -0.833 -1.993 -1.263 -4.278 -0.956 -5.078 0.741 -1.932 -1.317 -3.118 -2.995 -1.726 -0.731 0.607 -2.055 0.825 -2.942 0.484 -3.505 -1.345 -3.91 3.595 -3.043 37.08 0.456 17.6 0.894 34.925 0.974 38.5 0.08 3.575 0.272 6.95 0.427 7.5 0.683 2.416 2.04 -22.803 2.26 -41.987 z m -203.86 33.811 c 0.753 -6.01 -0.979 -8.37 -1.907 -2.602 -0.334 2.078 -0.799 4.723 -1.032 5.879 -0.463 2.293 0.494 3.888 1.599 2.665 0.381 -0.422 0.984 -3.096 1.341 -5.942 z m 231.42 -8.02 c 0.186 -13.853 -0.441 -19.513 -1.904 -17.18 -0.851 1.355 -1.031 28.641 -0.199 30.15 1.309 2.374 1.95 -1.575 2.103 -12.966 z m -13.03 4.974 c 0.26 -6.303 0.025 -7.374 -2.177 -9.92 -2.273 -2.628 -2.526 -2.705 -3.2 -0.97 -0.714 1.839 1.01 15.871 2.179 17.768 1.579 2.555 2.928 -0.347 3.198 -6.877 z m -227.88 -7.76 c 0.007 -11.801 -0.663 -17.788 -1.905 -17.02 -0.993 0.614 -1.317 20.279 -0.431 26.19 1.13 7.534 2.329 2.829 2.336 -9.165 z m 197.08 11.445 c 0 -2.815 -4.475 -9.235 -7.978 -11.446 -2.165 -1.367 -4.392 -3.336 -4.949 -4.376 -0.557 -1.04 -0.952 -7.01 -0.879 -13.265 0.144 -12.308 -0.705 -18.202 -2.535 -17.595 -1.576 0.523 -2.02 19.502 -0.723 31.1 0.82 7.342 1.447 9.462 3.369 11.384 3.665 3.665 13.695 6.741 13.695 4.201 z m -164 -5.839 c 0 -1.033 -0.895 -6.996 -1.99 -13.25 -1.094 -6.254 -1.994 -12.964 -2 -14.911 -0.006 -1.947 -0.737 -6.222 -1.626 -9.5 -0.889 -3.278 -1.901 -8.66 -2.25 -11.96 l -0.634 -6 l -4.438 0.103 l -4.438 0.103 l -1.72 6.1 c -1.77 6.277 -4.74 38.691 -3.645 39.785 0.337 0.337 3.775 0.048 7.64 -0.643 8.586 -1.534 9.541 -0.965 11.12 6.628 0.728 3.509 1.63 5.423 2.555 5.423 0.786 0 1.429 -0.846 1.429 -1.879 z m -18.06 -24.24 c -0.825 -1.542 -0.958 -4.403 -0.431 -9.304 0.418 -3.893 0.901 -8.768 1.073 -10.835 0.365 -4.387 1.039 -5.743 2.858 -5.743 2.633 0 4.048 3.441 4.887 11.884 1.63 16.399 1.786 15.571 -3.01 15.92 -3.477 0.253 -4.387 -0.072 -5.378 -1.923 z m 150.34 11.445 c -3.819 -11.405 -3.712 -13.284 0.814 -14.345 3.531 -0.828 4.963 -7.664 4.207 -20.08 -0.76 -12.479 -1.475 -13.352 -9.269 -11.325 -3.01 0.782 -6.832 1.429 -8.5 1.438 -5.872 0.03 -5.825 -0.161 -5.686 23.05 0.135 22.628 0.632 27.932 2.614 27.932 1.441 0 2.526 -13.156 2.534 -30.715 0.006 -12.545 0.416 -13.285 7.368 -13.285 4.952 0 6.64 2.122 6.622 8.321 -0.018 6.121 -0.617 7.297 -4.171 8.189 -3.704 0.93 -6.174 3.922 -5.535 6.704 0.876 3.812 8.499 22.812 9.765 24.337 2.832 3.412 2.553 -0.325 -0.762 -10.225 z m -109.78 8.844 c 5.703 -1.587 6.02 -1.838 6.324 -5.066 l 0.324 -3.396 l -6.586 0.675 c -9.118 0.934 -10.563 0.005 -10.563 -6.796 0 -6.777 1.339 -7.939 9.9 -8.587 l 6.6 -0.5 l 0.296 -3.505 l 0.296 -3.505 l -6.619 -0.184 c -6.869 -0.191 -9.472 -1.356 -9.472 -4.238 0 -0.928 -0.586 -2.488 -1.303 -3.468 -1.166 -1.594 -1.437 -1.619 -2.583 -0.239 -1.734 2.09 -1.13 35.1 0.703 38.39 1.502 2.696 4.185 2.785 12.683 0.42 z m 40.34 -5.119 c 15.645 -0.527 16.423 -0.651 18.25 -2.911 2.549 -3.152 2.795 -18.11 0.339 -20.566 -2.141 -2.141 -5.759 -2.921 -9.923 -2.14 -5.468 1.026 -7.678 -0.711 -7.312 -5.747 l 0.304 -4.186 l 10.669 -0.606 c 5.868 -0.333 12.393 -0.327 14.5 0.013 l 3.831 0.619 l 1 17.987 c 0.827 14.877 1.259 17.987 2.5 17.987 1.217 0 1.63 -2.36 2.186 -12.5 1.658 -30.21 1.73 -27.799 -0.919 -30.657 -2.179 -2.351 -2.848 -2.526 -7.086 -1.854 -2.574 0.408 -9.406 0.658 -15.181 0.555 -16.849 -0.3 -19.17 1.624 -17.1 14.156 1.554 9.409 2.596 10.471 10.778 10.992 7.381 0.47 9.327 1.993 9.327 7.299 0 4.863 -1.394 5.507 -11.95 5.523 -10.822 0.016 -14.05 0.613 -14.05 2.603 0 1.878 -0.796 1.759 -5.786 -0.864 -2.655 -1.395 -4.558 -3.204 -5 -4.753 -0.695 -2.434 -0.733 -26.02 -0.053 -32.975 0.27 -2.759 -0.048 -3.552 -1.541 -3.848 -1.034 -0.205 -2.224 0.183 -2.644 0.863 -1.086 1.757 -0.097 37.802 1.143 41.702 1.157 3.637 3.629 5.541 5.881 4.531 0.825 -0.37 8.854 -0.92 17.841 -1.223 z m -95.88 -32.3 c -0.023 -5.259 -0.554 -9.156 -1.465 -10.75 -1.334 -2.334 -1.431 -1.993 -1.465 5.125 -0.019 4.194 0.246 9.03 0.59 10.75 1.164 5.82 2.375 3.167 2.34 -5.125 z m 240.92 -11.25 c -0.084 -13.471 -1.765 -29.876 -3.319 -32.39 -1.07 -1.731 -3.299 0.343 -3.986 3.709 -1.203 5.896 -3.61 39.33 -2.913 40.454 0.976 1.579 2.1 -2.421 2.232 -7.941 0.122 -5.11 0.91 -7.332 2.6 -7.332 1.948 0 2.5 2.41 2.5 10.915 0 4.263 0.307 8.06 0.682 8.433 1.663 1.663 2.286 -2.818 2.205 -15.848 z m -39.958 -0.985 c -0.013 -10.191 -0.32 -12.773 -1.722 -14.491 -1.664 -2.037 -1.832 -2.048 -6.706 -0.432 -7.234 2.398 -8.979 4.406 -8.733 10.05 0.111 2.561 0.374 4.827 0.583 5.04 0.209 0.209 2.485 -0.182 5.057 -0.87 5.438 -1.455 7.944 -0.469 8.356 3.289 1.656 15.07 3.186 13.823 3.165 -2.587 z m -155.93 2.544 c 0 -0.518 -0.45 -1.219 -1 -1.559 -0.55 -0.34 -1 0.084 -1 0.941 0 0.857 0.45 1.559 1 1.559 0.55 0 1 -0.423 1 -0.941 z" style="fill:#9e1301"/><path d="m -24.527 123.46 l 4.595 -71.5 l 144 -2.055 l 148.14 1.233 l 2.757 72.32 l -5.974 74.79 l -144.46 -0.411 l -144.46 3.288 z m 100.1 63.917 c 0 -2.594 -0.343 -2.917 -3.093 -2.917 -1.701 0 -3.833 -0.613 -4.738 -1.363 -1.402 -1.161 -1.734 -1.133 -2.242 0.192 -1.258 3.278 0.001 5.183 3.258 4.931 2.068 -0.16 3.31 0.287 3.712 1.333 0.965 2.514 3.103 1.015 3.103 -2.177 z m -23.821 0.435 c 2.308 -1.915 1.617 -4.143 -1.075 -3.467 -1.622 0.407 -2.581 0.119 -2.969 -0.892 -0.315 -0.821 -1.021 -1.493 -1.569 -1.493 -1.334 0 -3.337 3.856 -2.768 5.328 0.596 1.542 6.693 1.923 8.38 0.523 z m 44.821 -1.351 c 0 -1.654 -0.693 -2.01 -4 -2.078 -2.2 -0.043 -4.557 0.345 -5.238 0.863 -0.842 0.64 -1.436 0.424 -1.857 -0.672 -0.934 -2.434 -2.405 -1.934 -2.405 0.818 0 2.765 1.846 3.422 9 3.206 3.788 -0.115 4.5 -0.453 4.5 -2.136 z m 14.5 1.51 c 1.925 0.189 8.45 0.376 14.5 0.417 10.358 0.069 11 -0.044 11 -1.927 0 -1.654 -0.693 -2.01 -4 -2.078 -2.2 -0.043 -4.582 0.365 -5.292 0.908 -0.867 0.661 -1.674 0.605 -2.45 -0.172 -0.637 -0.637 -2.553 -1.158 -4.258 -1.158 -1.705 0 -3.621 -0.521 -4.258 -1.158 -0.822 -0.822 -1.533 -0.85 -2.45 -0.098 -2.01 1.651 -5.332 1.882 -7.01 0.488 -2.12 -1.759 -4.78 -0.484 -4.78 2.291 0 2.523 1.651 3.65 4 2.73 0.825 -0.323 3.075 -0.433 5 -0.244 z m 37.429 0.105 c 1.02 -1.65 -1.581 -7.232 -3.223 -6.916 -1.602 0.309 -3.531 5.466 -2.605 6.965 0.687 1.111 5.134 1.073 5.827 -0.049 z m 23.371 -0.315 c 2.219 -2.219 1.346 -3.696 -2.05 -3.469 -1.787 0.119 -3.843 0.589 -4.567 1.044 -0.884 0.555 -1.478 0.211 -1.807 -1.047 -0.374 -1.432 -1.42 -1.873 -4.433 -1.873 -3.642 0 -3.943 0.211 -3.943 2.773 0 2.963 0.889 3.484 2.758 1.615 0.816 -0.816 1.539 -0.847 2.45 -0.108 2.745 2.23 9.781 2.877 11.592 1.065 z m 8.2 -1.331 c 0 -2.644 -2.482 -4.387 -4.03 -2.834 -1.478 1.478 0.081 5.366 2.151 5.366 1.348 0 1.883 -0.719 1.883 -2.531 z m 8.986 1.781 c -0.037 -2.043 -1.322 -5.25 -2.103 -5.25 -1.026 0 -1.203 4.347 -0.217 5.333 0.898 0.898 2.337 0.846 2.32 -0.083 z m 6.977 -0.706 c 1.374 -1.656 0.594 -3.544 -1.464 -3.544 -1.8 0 -2.824 1.714 -2.12 3.548 0.71 1.851 2.045 1.85 3.584 -0.004 z m 8.834 -1.127 c 0.246 -1.721 -0.233 -2.083 -2.75 -2.083 -2.178 0 -3.048 0.476 -3.048 1.667 0 2.291 1.049 3.137 3.459 2.792 1.181 -0.169 2.167 -1.17 2.339 -2.376 z m 10.02 0.333 c -0.247 -1.736 -1.01 -2.271 -3.32 -2.344 -3.835 -0.12 -4.552 0.294 -3.818 2.206 0.353 0.92 1.35 1.351 2.455 1.062 1.024 -0.268 2.113 -0.079 2.421 0.419 1.088 1.761 2.577 0.876 2.262 -1.344 z m -155.07 -0.833 c 0.137 -0.779 -0.182 -2.088 -0.708 -2.909 -1.393 -2.17 -3.432 0.182 -2.555 2.946 0.735 2.316 2.854 2.292 3.263 -0.037 z m -65.951 -53.747 c 0 -32.414 -2.611 -37.608 -3.424 -37.879 -0.62 -0.207 -1.507 0.431 -1.972 1.417 -0.905 1.919 -1.783 85.86 -0.921 88.1 0.283 0.737 1.303 1.187 2.267 1 1.64 -0.317 4.051 -10.641 4.051 -52.638 z m 11.09 44.08 c 0.628 -1.53 1.287 -10.292 1.484 -19.75 0.195 -9.35 12.1 -57.27 11.847 -56.25 -0.17 0.691 -6.087 4.794 -9.393 14.513 c -3.465 10.185 -4.346 26.05 -5.501 28.824 -0.574 1.379 -12.757 -52.838 -12.547 -45.807 c 1.386 46.543 1.417 -9.482 2.493 34.19 0.36 14.619 7.609 45.02 8.106 45.823 1.18 1.909 2.295 1.417 3.512 -1.547 z m 243.53 -14.06 c 0.332 -6.429 1.069 -15.289 1.639 -19.689 0.57 -4.4 1.197 -12.725 1.394 -18.5 0.351 -10.3 1.112 -18.03 2.262 -23 l 0.579 -2.5 l 0.757 2.5 c 0.416 1.375 0.809 9.884 0.872 14.01 0.128 8.366 4.08 20.264 6.193 18.16 1.701 -1.697 -0.598 -41.577 -1.983 -53.984 -0.986 -8.828 -3.364 -15.769 -5.05 -14.729 -2.836 1.753 -4.183 8.402 -5.518 27.24 -0.772 10.897 -1.429 21.387 -1.46 23.312 -0.221 13.719 -1.076 25.375 -1.923 26.22 -0.552 0.552 -1.456 0.723 -2.01 0.381 -1.284 -0.794 -3.168 -9.507 -3.168 -14.653 0 -4.754 -2.418 -7.64 -2.949 -3.059 -0.548 4.727 2.751 36.2 3.939 38.905 0.556 1.263 1.01 4.105 1.01 6.316 0 2.21 0.509 4.97 1.132 6.133 2.149 4.02 3.635 -0.517 4.281 -13.06 z m -155.41 6.311 c 0 -2.508 -0.655 -2.867 -4.654 -2.552 -1.185 0.093 -2.449 -0.307 -2.809 -0.889 -1.399 -2.263 -3.676 -1.115 -3.353 1.691 0.28 2.43 0.684 2.715 3.475 2.448 1.737 -0.166 3.451 0.172 3.809 0.75 1.254 2.029 3.532 1.095 3.532 -1.448 z m -74.07 0.086 c 1.32 -1.591 1.112 -72.14 -0.22 -74.27 -0.515 -0.821 -1.705 -0.298 -3.91 1.716 -3.145 2.873 -3.155 2.912 -1.257 5.01 1.813 2 1.9 3.813 1.66 34.588 -0.139 17.861 0.01 32.9 0.332 33.42 0.828 1.34 2.033 1.174 3.396 -0.468 z m 101.82 0.087 c 0.688 -0.435 1.25 -1.383 1.25 -2.107 0 -1.611 -5.86 -2.926 -7.393 -1.659 -1.488 1.229 -8.768 1.034 -10.465 -0.28 -1.01 -0.779 -1.72 -0.557 -2.75 0.852 -0.765 1.047 -1.392 2.239 -1.392 2.649 0 1.48 18.504 1.966 20.75 0.545 z m 16.25 0.909 c 0 -0.23 0.273 -1.13 0.607 -2 0.473 -1.233 -0.078 -1.582 -2.5 -1.582 -3.354 0 -3.408 0.052 -2.5 2.418 0.517 1.348 4.393 2.374 4.393 1.164 z m 12.8 -0.782 c 2.284 -2.284 1.405 -4.467 -1.8 -4.467 -2.109 0 -3 0.485 -3 1.633 0 1.599 1.811 4.03 3 4.03 0.33 0 1.14 -0.54 1.8 -1.2 z m 19.66 0.185 c 3.246 1.234 5.04 -0.185 3.608 -2.858 -1.355 -2.532 -3.613 -2.762 -4.88 -0.499 -0.594 1.062 -1.144 1.251 -1.582 0.544 -0.369 -0.597 -1.285 -0.849 -2.037 -0.56 -0.752 0.288 -1.664 0.044 -2.027 -0.544 -1.164 -1.884 -2.542 -1.144 -2.542 1.365 0 1.903 0.599 2.51 2.75 2.783 1.512 0.192 3.145 0.03 3.627 -0.361 0.482 -0.391 1.87 -0.333 3.083 0.129 z m 93.15 -23.558 c 0 -13.777 -3.269 -14.385 -4.3 -16.829 -2.418 -5.734 -2.806 -12.31 -2.822 8.521 -0.015 19.913 1.3 34.494 3.855 31.939 0.794 -0.794 3.267 -10.802 3.267 -23.631 z m -133.61 21.5 c 0 -1.431 -0.539 -1.97 -1.739 -1.739 -2.607 0.502 -2.897 3.812 -0.335 3.812 1.431 0 2.073 -0.642 2.073 -2.073 z m 28 0 c 0 -1.431 -0.539 -1.97 -1.739 -1.739 -2.607 0.502 -2.897 3.812 -0.335 3.812 1.431 0 2.073 -0.642 2.073 -2.073 z m 77.85 -30.07 c 0.321 -20.83 -0.988 -33.28 -0.346 -33.14 0.55 0.119 1.308 2.599 1.684 5.512 0.899 6.954 3.487 16.481 4.939 15.584 1.541 -0.953 -0.418 -30.627 -2.125 -33.817 -0.687 -1.283 -1.317 -3.702 -1.402 -5.374 -0.141 -2.803 -0.451 -3.051 -3.959 -3.173 -3.206 -0.111 -3.957 0.265 -4.763 2.383 -1.478 3.888 -1.262 80.996 0.232 82.8 3.03 3.648 5.241 1.598 5.74 -30.767 z m -205.72 25.639 c 0.351 -1.65 0.691 -5.757 0.756 -9.128 0.069 -3.564 0.641 -6.548 1.368 -7.133 0.688 -0.553 3.67 -1.516 6.627 -2.139 6.506 -1.372 7.708 -0.645 8.618 5.208 1.025 6.596 1.516 7.692 3.45 7.692 3.972 0 4.02 -1.901 0.521 -22.514 -1.864 -10.992 -4.081 -22.17 -4.927 -24.85 -0.846 -2.676 -1.545 -6.276 -1.554 -8 -0.023 -4.7 -1.227 -6.111 -3.965 -4.646 -1.616 0.865 -2.537 0.893 -3.327 0.103 -1.809 -1.809 -2.693 -1.248 -2.693 1.707 0 1.54 -0.415 3.228 -0.922 3.75 -1.469 1.513 -3.898 14.919 -5.064 27.95 -0.59 6.6 -1.491 14.925 -2 18.5 -2.468 17.276 -2.469 17.202 0.126 16.833 1.684 -0.239 2.53 -1.183 2.987 -3.333 z m 6.06 -34.19 c -1.382 -2.633 -0.368 -22.502 1.232 -24.13 3.179 -3.236 5.17 4.086 5.934 21.821 0.139 3.24 -0.086 3.523 -3.03 3.808 -2.269 0.22 -3.456 -0.211 -4.133 -1.5 z m 183.41 31.594 c 1.681 -1.857 3.706 -19.52 3.47 -30.28 -0.147 -6.684 -2.368 2.579 -2.69 0.993 -0.967 -4.761 -2.336 -0.944 -2.353 6.562 -0.021 9.162 -1.984 11.123 -8.772 8.757 -4.053 -1.413 -5.414 -5.04 -5.077 -13.522 0.151 -3.802 -0.109 -11.712 -0.577 -17.578 -0.85 -10.641 -0.846 -10.67 1.734 -13.25 1.905 -1.905 3.621 -2.585 6.524 -2.585 4.371 0 5.152 1.01 5.152 6.639 0 4.301 1.504 27.978 2.552 27.978 1.57 0 4.286 -14.156 4.286 -27.2 0 -19.19 -2.89 -25.864 -12.352 -22.324 -6.846 2.561 -8.486 4.835 -8.486 11.763 0 3.871 -0.64 6.438 -2.25 9.03 -2.041 3.282 -2.282 5.105 -2.597 19.618 -0.374 17.243 0.746 26.492 3.694 30.5 1.772 2.409 10.965 6.906 14.248 6.969 0.877 0.017 2.449 -0.913 3.494 -2.067 z m -142.59 -9.832 c 5.484 -1.637 5.501 -1.654 5.814 -5.991 l 0.314 -4.35 l -7.517 0.482 c -4.56 0.293 -7.929 0.071 -8.564 -0.564 -1.466 -1.466 -1.32 -10.36 0.185 -11.29 0.678 -0.419 4.39 -1.01 8.25 -1.309 l 7.02 -0.547 v -4.5 v -4.5 l -4.5 -0.254 c -9.844 -0.555 -10.927 -5.136 -12.755 -9.657 -1.857 -4.593 19.348 1.832 19.17 -7.119 -0.03 -1.543 -0.254 4.33 -0.709 -0.284 -0.266 -2.694 -21.7 -1.316 -21.858 1.564 -0.083 1.513 -0.359 4.1 -0.613 5.75 -0.254 1.65 -0.524 11.477 -0.599 21.838 l -0.137 18.838 l 2.81 2.416 c 3.02 2.6 3.26 2.591 13.69 -0.522 z m 113 1.471 c 0 -0.803 -1.575 -5.865 -3.5 -11.25 -1.925 -5.385 -3.5 -10.309 -3.5 -10.943 0 -0.634 1.315 -1.611 2.922 -2.171 4.684 -1.633 5.463 -4.287 5.272 -17.971 -0.201 -14.396 -0.979 -16.631 -5.533 -15.889 -1.739 0.283 -6.509 1 -10.6 1.595 -4.091 0.594 -7.797 1.644 -8.235 2.334 -0.438 0.69 -0.803 11.909 -0.811 24.932 -0.013 20.21 0.215 23.909 1.556 25.25 1.894 1.894 3.324 2.01 3.969 0.321 0.263 -0.688 0.609 -10.393 0.77 -21.568 0.323 -22.4 0.243 -22.14 6.739 -22.17 4.779 -0.021 5.95 1.452 5.95 7.485 0 5.6 -1.195 7.5 -4.715 7.5 -1.514 0 -2.964 1.067 -4.189 3.083 -1.853 3.047 -1.848 3.149 0.438 8.75 1.272 3.117 3.513 8.817 4.981 12.667 1.468 3.85 3.132 7.563 3.699 8.25 1.42 1.722 4.786 1.575 4.786 -0.209 z m -72.05 -6.161 c 13.269 -0.625 14.633 -0.868 16.75 -2.985 2.063 -2.063 2.304 -3.243 2.304 -11.277 0 -8.502 -0.138 -9.08 -2.635 -11.05 -2.02 -1.588 -4.077 -2.073 -8.8 -2.073 -6.607 0 -8.565 -1.058 -8.565 -4.629 0 -4.609 2.192 -5.371 15.449 -5.371 8.988 0 12.602 0.357 13.404 1.323 0.679 0.819 1.203 7.967 1.372 18.75 0.268 17.05 0.321 17.434 2.457 17.738 1.338 0.19 2.569 -0.412 3.182 -1.557 1.539 -2.875 0.946 -41.572 -0.666 -43.515 -1.103 -1.329 -3.861 -1.477 -19.492 -1.045 -21.622 0.598 -21.71 0.641 -21.701 10.667 0.007 7.718 1.528 13.319 3.972 14.627 1.04 0.556 4.53 1.012 7.756 1.012 6.652 0 8.266 1.074 8.266 5.5 0 5.204 -0.973 5.5 -18.09 5.5 -13.991 0 -15.775 -0.19 -16.448 -1.75 -0.415 -0.963 -0.82 -9.625 -0.899 -19.25 l -0.144 -17.5 h -2.458 h -2.458 l -0.284 19.5 c -0.313 21.52 -0.209 22.468 2.907 26.429 1.913 2.431 2.648 2.688 6.272 2.193 2.258 -0.309 10.606 -0.868 18.551 -1.242 z m -104.66 -40.88 c 0.455 11.59 4.584 61.25 -1.33 28.671 3.51 12.341 3.356 -32.429 1.33 -28.671 z" style="fill:#fff"/></g><path d="m 49.13 116.91 c -0.087 0.529 -0.21 1.05 -0.284 1.581 -0.017 0.471 -0.122 0.929 -0.199 1.392 -0.086 0.384 -0.216 0.752 -0.38 1.109 -0.86 1.869 -3.503 0.653 -2.643 -1.216 c 0.053 -0.114 0.093 -0.208 0.154 -0.374 0.074 -0.439 0.173 -0.87 0.187 -1.317 0.079 -0.555 0.199 -1.101 0.295 -1.653 0.338 -2.029 3.208 -1.551 2.87 0.478 z" style="fill:#9e1301"/><path d="m 48.16 120.21 c -0.071 0.436 -0.107 0.877 -0.131 1.318 -0.019 0.394 -0.02 0.788 -0.021 1.182 0 0.387 0.001 0.773 0.001 1.16 0 0.388 0 0.776 0 1.164 0.027 0.532 -0.066 1.055 -0.204 1.566 -0.1 0.235 -0.145 0.476 -0.166 0.727 -0.042 0.438 -0.215 0.837 -0.352 1.247 -0.112 0.296 -0.205 0.599 -0.31 0.898 -0.104 0.267 -0.149 0.549 -0.237 0.822 -0.63 1.958 -3.4 1.067 -2.77 -0.891 c 0.097 -0.299 0.148 -0.662 0.292 -0.977 0.079 -0.253 0.205 -0.568 0.286 -0.833 0.116 -0.315 0.118 -0.265 0.195 -0.541 0.045 -0.444 0.117 -0.885 0.281 -1.303 0.045 -0.194 0.107 -0.471 0.076 -0.715 0 -0.387 0 -0.774 0 -1.161 0 -0.39 -0.001 -0.78 -0.001 -1.17 0.001 -0.446 0.003 -0.892 0.025 -1.337 0.031 -0.547 0.078 -1.093 0.166 -1.634 0.338 -2.029 3.208 -1.551 2.87 0.478 z" style="fill:#ffd700"/><path d="m 37.14 149.34 c 0.088 0.504 0.306 0.954 0.518 1.414 0.298 0.705 0.564 1.424 0.784 2.157 0.165 0.523 0.334 1.045 0.509 1.565 0.089 0.325 0.22 0.636 0.309 0.962 0.094 0.342 0.026 0.183 0.094 0.333 0.101 0.336 0.204 0.628 0.311 0.952 0.151 0.487 0.176 0.995 0.191 1.501 0.01 0.554 0.007 1.108 0.006 1.661 -0.001 0.58 -0.001 1.16 -0.002 1.74 -0.016 0.288 0.061 0.566 0.14 0.84 0.099 0.366 0.226 0.724 0.35 1.081 0.111 0.398 0.284 0.773 0.422 1.161 0.678 1.942 -2.069 2.901 -2.747 0.959 c -0.131 -0.391 -0.32 -0.763 -0.423 -1.164 -0.142 -0.41 -0.283 -0.82 -0.4 -1.238 -0.152 -0.534 -0.265 -1.083 -0.252 -1.641 0 -0.581 0.001 -1.161 0.002 -1.742 0.001 -0.525 0.003 -1.051 -0.005 -1.576 -0.006 -0.229 -0.007 -0.462 -0.051 -0.688 -0.092 -0.306 -0.206 -0.607 -0.298 -0.913 -0.138 -0.433 -0.253 -0.872 -0.405 -1.301 -0.186 -0.553 -0.364 -1.108 -0.54 -1.665 -0.176 -0.601 -0.402 -1.186 -0.637 -1.766 -0.306 -0.666 -0.592 -1.337 -0.729 -2.061 -0.403 -2.02 2.45 -2.588 2.853 -0.571 z" style="fill:#9e1301"/><g style="fill:#ffd700"><path d="m 37.923 153.5 c 0 0.442 0 0.885 0 1.327 -0.029 0.342 0.013 0.665 0.068 0.999 0.1 0.291 0.199 0.583 0.316 0.868 0.135 0.398 0.308 0.778 0.43 1.181 0.118 0.362 0.239 0.722 0.346 1.088 0.146 0.375 0.235 0.767 0.348 1.152 0.146 0.488 0.198 0.994 0.225 1.5 0.016 0.413 0.014 0.827 0.014 1.241 -0.001 0.388 -0.002 0.775 -0.002 1.163 0 0.406 0 0.812 0 1.218 0 0.43 0 0.86 0 1.29 0.042 0.274 0.128 0.54 0.199 0.809 0.136 0.293 0.251 0.608 0.356 0.915 0.158 0.496 0.196 1.016 0.216 1.533 0.01 0.407 0.008 0.813 0.007 1.22 -0.001 0.387 -0.002 0.775 -0.002 1.162 -0.002 2.057 -2.911 2.055 -2.91 -0.002 c 0 -0.389 0.001 -0.778 0.002 -1.167 0.001 -0.369 0.003 -0.739 -0.005 -1.108 -0.008 -0.242 -0.014 -0.486 -0.07 -0.723 -0.114 -0.372 -0.299 -0.719 -0.409 -1.093 -0.132 -0.509 -0.28 -1.016 -0.294 -1.547 0 -0.43 0 -0.86 0 -1.29 0 -0.407 0 -0.814 0 -1.22 0 -0.388 0.001 -0.776 0.002 -1.165 0 -0.362 0.002 -0.725 -0.01 -1.087 -0.013 -0.279 -0.032 -0.56 -0.111 -0.829 -0.115 -0.391 -0.208 -0.787 -0.353 -1.169 -0.102 -0.368 -0.234 -0.727 -0.347 -1.091 -0.07 -0.316 -0.256 -0.598 -0.338 -0.911 -0.186 -0.479 -0.374 -0.96 -0.481 -1.464 -0.081 -0.489 -0.133 -0.978 -0.107 -1.474 0 -0.442 0 -0.885 0 -1.327 0 -2.057 2.91 -2.057 2.91 0 z"/><path d="m 41.796 154.71 c -0.09 0.303 -0.21 0.595 -0.305 0.896 -0.165 0.296 -0.231 0.608 -0.326 0.926 -0.083 0.295 -0.188 0.583 -0.275 0.876 -0.038 0.301 -0.079 0.598 -0.15 0.894 -0.067 0.246 -0.08 0.501 -0.092 0.754 -0.012 0.36 -0.011 0.721 -0.011 1.081 0 0.388 0.001 0.776 0.001 1.164 0 0.388 0 0.777 0 1.165 0 0.259 0 0.129 0 0.388 0 2.057 -2.91 2.057 -2.91 0 c 0 -0.259 0 -0.129 0 -0.388 0 -0.388 0 -0.775 0 -1.163 0 -0.389 -0.001 -0.777 -0.001 -1.166 0 -0.407 -0.001 -0.815 0.014 -1.222 0.022 -0.44 0.06 -0.881 0.173 -1.309 0.082 -0.318 0.078 -0.73 0.202 -1.079 0.103 -0.318 0.186 -0.552 0.282 -0.897 0.08 -0.305 0.156 -0.662 0.33 -0.937 0.145 -0.432 0.291 -0.864 0.466 -1.285 0.92 -1.84 3.523 -0.539 2.602 1.301 z"/><path d="m 39.474 154.28 c 0 0.442 0 0.885 0 1.327 0 0.28 0 0.56 0 0.84 0 2.057 -2.91 2.057 -2.91 0 c 0 -0.28 0 -0.56 0 -0.84 0 -0.442 0 -0.885 0 -1.327 0 -2.057 2.91 -2.057 2.91 0 z"/><path d="m 35.598 141.45 c 0.13 0.451 0.22 0.912 0.369 1.357 0.126 0.43 0.263 0.855 0.399 1.282 0.187 0.311 0.28 0.757 0.34 1.142 0.053 0.438 0.054 0.88 0.056 1.32 0 0.391 -0.001 0.782 -0.002 1.173 -0.001 0.387 -0.001 0.775 -0.001 1.162 0.001 0.312 -0.018 0.622 0.036 0.927 0.031 0.135 0.116 0.809 0.2 0.885 0.13 0.326 0.236 0.661 0.367 0.986 0.148 0.385 0.255 0.785 0.4 1.171 0.134 0.382 0.253 0.766 0.392 1.146 0.138 0.392 0.242 0.797 0.387 1.186 0.181 0.491 0.329 0.994 0.502 1.489 0.182 0.459 0.329 0.931 0.468 1.404 0.57 1.977 -2.226 2.783 -2.796 0.806 c -0.12 -0.425 -0.259 -0.845 -0.421 -1.256 -0.169 -0.49 -0.319 -0.986 -0.497 -1.473 -0.136 -0.395 -0.259 -0.795 -0.389 -1.193 -0.129 -0.375 -0.255 -0.751 -0.385 -1.126 -0.129 -0.369 -0.246 -0.742 -0.378 -1.11 -0.131 -0.348 -0.255 -0.697 -0.388 -1.044 -0.15 -0.455 -0.268 -0.921 -0.333 -1.396 -0.074 -0.465 -0.088 -0.931 -0.075 -1.401 0 -0.389 0 -0.778 0.001 -1.167 0.001 -0.386 0.002 -0.771 0.002 -1.157 -0.001 -0.305 0 -0.611 -0.026 -0.915 -0.026 -0.248 -0.137 -0.456 -0.236 -0.686 -0.129 -0.421 -0.27 -0.838 -0.392 -1.261 -0.184 -0.583 -0.326 -1.177 -0.469 -1.771 -0.338 -2.029 2.532 -2.508 2.87 -0.478 z"/><path d="m 61.61 141.84 c 0.435 0.04 0.861 0.127 1.296 0.164 0.361 0.054 0.708 0.162 1.072 0.198 0.045 0.003 0.089 0.012 0.134 0.009 0.024 -0.001 -0.053 0.002 -0.072 -0.013 -0.047 -0.037 0.116 -0.026 0.174 -0.036 0.205 -0.036 0.185 -0.031 0.4 -0.061 0.531 -0.063 1.066 -0.062 1.6 -0.067 0.611 -0.003 1.221 -0.002 1.832 -0.002 0.564 0 1.128 0.001 1.692 0.001 0.074 0 0.148 0 0.222 0 0.206 0 0.411 0 0.617 0 0.205 0 0.257 0.026 0.173 -0.01 0.025 -0.006 0.049 -0.012 0.074 -0.017 2.02 -0.4 2.584 2.454 0.565 2.854 c -0.083 0.016 -0.166 0.031 -0.249 0.047 -0.467 0.046 -0.933 0.04 -1.403 0.036 -0.564 0 -1.129 0 -1.693 -0.001 -0.602 0 -1.204 -0.001 -1.806 0.002 -0.412 0.003 -0.825 0.001 -1.235 0.041 -0.446 0.058 -0.889 0.181 -1.342 0.109 -0.338 -0.038 -0.69 -0.079 -1.012 -0.192 -0.316 -0.029 -0.793 -0.044 -1.089 -0.145 -0.016 -0.005 0.032 -0.005 0.048 -0.008 -2.057 0 -2.057 -2.91 0 -2.91 z"/><path d="m 61.976 137.01 c 0 0.45 0 0.9 0 1.35 0 0.462 0 0.924 0 1.385 0 0.396 0 0.793 0 1.189 -0.029 0.317 0.016 0.612 0.068 0.921 0.029 0.09 0.214 0.26 -0.044 -0.062 0.371 0.262 -0.084 0.017 0.101 0.029 2.034 0.312 1.592 3.188 -0.442 2.876 c -0.565 -0.096 -1.111 -0.272 -1.533 -0.68 -0.539 -0.525 -0.783 -0.945 -0.951 -1.681 -0.078 -0.465 -0.133 -0.931 -0.108 -1.403 0 -0.396 0 -0.793 0 -1.189 0 -0.462 0 -0.924 0 -1.385 0 -0.45 0 -0.9 0 -1.35 0 -2.057 2.91 -2.057 2.91 0 z"/><path d="m 62.36 131.97 c 0 0.442 0 0.885 0 1.327 0 0.412 0 0.824 0 1.237 0 0.389 0 0.777 0 1.166 0 2.057 -2.91 2.057 -2.91 0 c 0 -0.389 0 -0.777 0 -1.166 0 -0.412 0 -0.824 0 -1.237 0 -0.442 0 -0.885 0 -1.327 0 -2.057 2.91 -2.057 2.91 0 z"/><path d="m 60.831 145.34 c 0.34 0.027 0.664 -0.011 0.997 -0.067 0.44 -0.078 0.887 -0.105 1.333 -0.119 0.441 -0.01 0.882 -0.009 1.323 -0.008 0.413 0 0.826 0.001 1.238 0.001 0.389 0 0.778 0 1.167 0 0.388 0 0.775 0 1.163 0 0.532 -0.034 1.043 0.036 1.551 0.191 0.489 0.159 0.918 0.444 1.342 0.727 0.116 0.053 0.038 0.016 0.228 0.123 1.79 1.014 0.357 3.546 -1.434 2.532 c -0.24 -0.136 -0.103 -0.058 -0.412 -0.237 -0.217 -0.145 -0.427 -0.31 -0.676 -0.396 0.111 -0.012 -0.497 -0.06 -0.6 -0.031 -0.388 0 -0.775 0 -1.163 0 -0.389 0 -0.779 0 -1.168 0 -0.413 0 -0.826 -0.001 -1.239 -0.001 -0.409 0 -0.818 -0.002 -1.228 0.007 -0.315 0.01 -0.63 0.024 -0.941 0.08 -0.491 0.083 -0.983 0.133 -1.482 0.108 -2.057 0 -2.057 -2.91 0 -2.91 z"/><path d="m 88.28 132.54 c 0.334 -0.063 0.671 -0.107 1.01 -0.138 0.298 -0.027 0.176 0.006 0.321 -0.039 0.449 -0.119 0.911 -0.165 1.374 -0.193 0.264 -0.013 0.528 -0.017 0.791 -0.021 2.057 -0.031 2.102 2.878 0.044 2.909 c -0.223 0.003 -0.446 0.006 -0.668 0.017 -0.347 0.018 -0.688 0.059 -1.024 0.151 -0.425 0.068 -0.854 0.09 -1.277 0.167 -2.02 0.404 -2.588 -2.45 -0.571 -2.853 z"/><path d="m 85.08 115.66 c 0.442 0 0.885 0 1.327 0 0.412 0 0.824 0 1.237 0 0.389 0 0.777 0 1.166 0 0.388 0 0.775 0 1.163 0 0.238 0 0.521 -0.083 0.822 -0.127 0.429 -0.054 0.863 -0.062 1.295 -0.067 0.394 -0.003 0.788 -0.002 1.181 -0.001 0.239 0 0.521 -0.083 0.822 -0.126 0.3 -0.032 0.151 -0.019 0.45 -0.041 2.052 -0.151 2.266 2.751 0.214 2.902 c -0.179 0.012 -0.092 0.005 -0.263 0.022 -0.408 0.054 -0.81 0.179 -1.226 0.154 -0.381 0 -0.763 -0.002 -1.144 0.001 -0.309 0.004 -0.619 0.006 -0.927 0.039 -0.408 0.054 -0.808 0.179 -1.224 0.154 -0.388 0 -0.775 0 -1.163 0 -0.389 0 -0.777 0 -1.166 0 -0.412 0 -0.824 0 -1.237 0 -0.442 0 -0.885 0 -1.327 0 -2.057 0 -2.057 -2.91 0 -2.91 z"/><path d="m 85.06 118.39 c 0 0.442 0 0.885 0 1.327 0 0.144 0 0.287 0 0.431 0 2.057 -2.91 2.057 -2.91 0 c 0 -0.144 0 -0.287 0 -0.431 0 -0.442 0 -0.885 0 -1.327 0 -2.057 2.91 -2.057 2.91 0 z"/><path d="m 85.37 152.52 c 0.504 -0.098 1.015 -0.144 1.527 -0.175 0.423 -0.025 0.846 0.002 1.264 -0.065 0.339 -0.026 0.646 -0.143 0.976 -0.222 -0.006 -0.001 -0.025 -0.001 -0.019 -0.004 0.233 -0.113 0.492 -0.159 0.692 -0.236 0.345 -0.15 0.752 -0.173 1.08 -0.266 0.355 -0.071 0.62 -0.139 0.942 -0.228 0.371 -0.059 0.63 -0.16 1.01 -0.246 -0.252 -0.034 0.777 -0.149 0.531 -0.182 1.926 -0.723 2.949 2 1.023 2.724 c -0.308 0.105 -0.619 0.194 -0.927 0.3 -0.291 0.057 -0.568 0.178 -0.865 0.211 -0.309 0.083 -0.617 0.168 -0.932 0.225 -0.266 0.073 -0.537 0.115 -0.805 0.174 -0.353 0.137 -0.718 0.237 -1.075 0.364 -0.398 0.085 -0.783 0.234 -1.194 0.263 -0.507 0.074 -1.015 0.083 -1.527 0.092 -0.378 0.022 -0.756 0.053 -1.128 0.123 -2.02 0.404 -2.588 -2.45 -0.571 -2.853 z"/><path d="m 31.71 154.57 c 0.098 0.504 0.144 1.015 0.175 1.527 0.023 0.439 0.025 0.879 0.026 1.319 0 0.39 -0.001 0.781 -0.001 1.171 0 0.387 0 0.774 0 1.162 0 0.388 0 0.776 0 1.164 0 0.406 0 0.813 0 1.219 0 0.512 0 1.024 0 1.537 0 0.438 0 0.876 0 1.313 0 0.39 0 0.78 0 1.17 0 0.387 0 0.775 0 1.162 0 0.388 0 0.776 0 1.164 0 0.388 0 0.776 0 1.164 0 0.388 0 0.776 0 1.164 0 0.388 0 0.776 0 1.164 0 0.388 0 0.776 0 1.164 0 0.388 0 0.776 0 1.164 0 0.388 0 0.776 0 1.164 0 0.259 0 0.517 0 0.776 0 2.057 -2.91 2.057 -2.91 0 c 0 -0.259 0 -0.517 0 -0.776 0 -0.388 0 -0.776 0 -1.164 0 -0.388 0 -0.776 0 -1.164 0 -0.388 0 -0.776 0 -1.164 0 -0.388 0 -0.776 0 -1.164 0 -0.388 0 -0.776 0 -1.164 0 -0.388 0 -0.776 0 -1.164 0 -0.388 0 -0.776 0 -1.164 0 -0.387 0 -0.775 0 -1.162 0 -0.39 0 -0.78 0 -1.17 0 -0.438 0 -0.876 0 -1.313 0 -0.512 0 -1.024 0 -1.537 0 -0.406 0 -0.813 0 -1.219 0 -0.388 0 -0.776 0 -1.164 0 -0.388 0 -0.776 0 -1.164 0 -0.387 0.001 -0.774 0.001 -1.161 -0.001 -0.385 -0.002 -0.77 -0.021 -1.154 -0.022 -0.378 -0.053 -0.756 -0.123 -1.128 -0.403 -2.02 2.45 -2.588 2.853 -0.571 z"/><path d="m 32.19 122.37 c 0.196 0.429 0.333 0.882 0.5 1.322 0.132 0.401 0.257 0.801 0.384 1.203 0.141 0.471 0.172 0.962 0.189 1.45 0.009 0.402 0.007 0.804 0.006 1.206 -0.001 0.388 -0.001 0.775 -0.002 1.163 0 0.388 0 0.775 0 1.163 0.025 0.461 -0.026 0.913 -0.117 1.364 -0.082 0.381 -0.202 0.756 -0.328 1.125 -0.09 0.243 -0.161 0.491 -0.255 0.734 -0.744 1.918 -3.457 0.866 -2.713 -1.052 c 0.081 -0.209 0.147 -0.46 0.244 -0.707 0.008 0.109 -0.002 0.014 0.063 -0.215 0.083 -0.295 0.102 -0.214 0.136 -0.461 0.016 -0.077 0.011 -0.162 0.049 -0.231 0.004 -0.008 0.009 0.034 0.01 0.025 0.011 -0.193 -0.009 -0.389 0 -0.582 0 -0.388 0 -0.777 0 -1.165 0 -0.389 0.001 -0.778 0.002 -1.167 0.001 -0.369 0.003 -0.737 -0.004 -1.106 -0.007 -0.229 -0.01 -0.46 -0.061 -0.684 -0.105 -0.351 -0.223 -0.699 -0.331 -1.048 -0.126 -0.345 -0.244 -0.692 -0.376 -1.035 -0.92 -1.84 1.682 -3.141 2.602 -1.301 z"/><path d="m 111.31 148.25 c 0.464 0.088 0.931 0.177 1.399 0.25 0.663 0.094 1.334 0.116 2 0.129 0.651 0.009 1.302 0.007 1.953 0.006 0.476 -0.001 0.952 -0.002 1.428 -0.002 0.391 0 0.781 0 1.172 0 0.387 0 0.773 0 1.16 0 0.388 0 0.776 0 1.163 0 0.388 0 0.776 0 1.164 0 0.427 0 0.854 0 1.281 0 0.431 0.005 0.858 0.012 1.285 -0.044 0.419 -0.033 0.821 -0.15 1.231 -0.229 0.466 -0.085 0.94 -0.104 1.413 -0.114 0.284 -0.01 0.652 0.016 0.857 -0.031 -0.156 0.09 0.824 -0.202 0.565 -0.157 0.339 -0.144 0.638 -0.259 0.975 -0.38 0.267 -0.076 0.595 -0.202 0.836 -0.275 0.194 -0.083 0.397 -0.137 0.601 -0.191 1.995 -0.502 2.705 2.32 0.71 2.822 c -0.098 0.019 -0.191 0.049 -0.282 0.091 -0.303 0.104 -0.611 0.196 -0.913 0.303 -0.24 0.072 -0.472 0.176 -0.703 0.27 -0.396 0.166 -0.802 0.31 -1.23 0.373 -0.45 0.083 -0.9 0.092 -1.357 0.085 -0.311 0.006 -0.623 0.013 -0.931 0.063 -0.47 0.087 -0.931 0.221 -1.409 0.257 -0.549 0.067 -1.097 0.079 -1.649 0.067 -0.427 0 -0.854 0 -1.281 0 -0.388 0 -0.776 0 -1.164 0 -0.388 0 -0.776 0 -1.164 0 -0.387 0 -0.773 0 -1.16 0 -0.39 0 -0.78 0 -1.17 0 -0.475 0 -0.95 0.001 -1.425 0.002 -0.672 0.001 -1.344 0.003 -2.02 -0.006 -0.799 -0.016 -1.6 -0.046 -2.392 -0.163 -0.76 -0.119 -1.538 -0.226 -2.252 -0.522 -1.84 -0.92 -0.539 -3.523 1.301 -2.602 z"/><path d="m 199.31 151.37 c 0 0.442 0 0.885 0 1.327 0 0.412 0 0.824 0 1.237 0.025 0.417 -0.101 0.818 -0.155 1.226 -0.008 0.364 -0.117 0.711 -0.182 1.066 -0.024 0.356 -0.095 0.704 -0.174 1.051 -0.088 0.365 -0.201 0.726 -0.322 1.082 -0.089 0.271 -0.195 0.538 -0.277 0.812 -0.105 0.311 -0.201 0.627 -0.308 0.938 -0.088 0.269 -0.192 0.534 -0.274 0.806 -0.105 0.312 -0.201 0.628 -0.308 0.94 -0.088 0.269 -0.192 0.535 -0.274 0.806 -0.132 0.258 -0.216 0.528 -0.319 0.796 -0.79 1.9 -3.477 0.782 -2.687 -1.117 c 0.06 -0.173 0.135 -0.436 0.246 -0.621 0.006 -0.011 -0.003 0.025 -0.005 0.037 0.11 -0.326 0.204 -0.586 0.318 -0.93 0.071 -0.237 0.195 -0.557 0.264 -0.816 0.11 -0.326 0.204 -0.587 0.318 -0.93 0.071 -0.237 0.196 -0.558 0.265 -0.817 0.11 -0.324 0.204 -0.58 0.316 -0.923 0.01 0.108 -0.001 0.013 0.064 -0.218 0.078 -0.275 0.113 -0.254 0.147 -0.495 0.073 -0.317 0.117 -0.595 0.153 -0.949 0.069 -0.35 0.149 -0.57 0.158 -0.92 0.043 -0.3 0.126 -0.582 0.127 -0.824 0 -0.412 0 -0.824 0 -1.237 0 -0.442 0 -0.885 0 -1.327 0 -2.057 2.91 -2.057 2.91 0 z"/><path d="m 189.48 160.47 c 0.299 0.106 0.588 0.233 0.897 0.309 0.416 0.116 0.824 0.26 1.24 0.375 0.269 0.065 0.546 0.075 0.821 0.083 -0.184 -0.04 0.687 -0.105 0.545 -0.125 0.262 -0.07 0.518 -0.172 0.769 -0.262 0.333 -0.168 0.704 -0.229 1.049 -0.344 0.212 -0.056 0.39 -0.108 0.553 -0.168 1.93 -0.712 2.937 2.02 1.01 2.73 c -0.21 0.077 -0.422 0.15 -0.64 0.198 -0.275 0.091 -0.561 0.141 -0.825 0.259 -0.374 0.149 -0.755 0.28 -1.142 0.392 -0.465 0.111 -0.94 0.201 -1.417 0.227 -0.509 -0.018 -1.019 -0.056 -1.512 -0.192 -0.397 -0.114 -0.79 -0.244 -1.187 -0.36 -0.5 -0.135 -0.985 -0.316 -1.46 -0.521 -1.84 -0.92 -0.539 -3.523 1.301 -2.602 z"/><path d="m 192.06 159.41 c 0.556 -0.204 1.124 -0.38 1.689 -0.557 0.381 -0.168 0.782 -0.278 1.169 -0.428 0.352 -0.14 0.101 -0.009 0.35 -0.146 0.022 -0.012 -0.048 0.014 -0.069 0.027 -0.164 0.1 -0.152 0.107 -0.28 0.249 0.132 -0.181 0.159 -0.369 0.247 -0.594 0.129 -0.283 0.304 -0.55 0.437 -0.827 0.848 -1.874 3.499 -0.675 2.651 1.199 c -0.067 0.139 -0.312 0.662 -0.4 0.758 -0.017 0.019 0.016 -0.049 0.023 -0.073 -0.134 0.344 -0.234 0.712 -0.455 1.02 -0.09 0.128 -0.167 0.267 -0.271 0.384 -0.31 0.35 -0.743 0.569 -1.179 0.715 -0.449 0.175 -0.911 0.309 -1.356 0.494 -0.416 0.129 -0.829 0.294 -1.255 0.382 -1.84 0.92 -3.141 -1.682 -1.301 -2.602 z"/></g><g style="fill-rule:evenodd"><g style="fill:#dcdcdc;stroke:#fff"><rect width="187.39" height="0.501" x="22.493" y="77.23" rx="13.305" ry="0.251" style="stroke-width:8.05"/><rect rx="0.962" y="190.46" x="219.5" height="3.864" width="13.545" style="stroke-width:6.01"/></g><g style="fill:#ff4500;stroke:#ff4500;stroke-width:1.05"><path d="m 70.994 188.16 c -0.264 -0.054 -0.551 -0.166 -0.638 -0.25 -0.221 -0.212 0.573 -1.988 1.117 -2.499 0.6 -0.564 1.034 -0.391 1.674 0.668 0.534 0.884 0.741 0.976 1.96 0.877 0.506 -0.041 0.538 -0.013 0.302 0.271 -0.145 0.175 -0.514 0.447 -0.819 0.605 -0.578 0.299 -2.762 0.498 -3.595 0.328 z"/><path d="m 90.61 189.21 c -0.706 -1.051 -1.221 -1.301 -2.683 -1.305 -1.485 -0.004 -1.789 -0.121 -1.789 -0.691 0 -0.512 0.551 -1.997 0.74 -1.997 0.068 0 0.543 0.298 1.055 0.662 0.904 0.643 1.806 0.918 3.828 1.169 l 0.925 0.115 l -0.129 0.801 c -0.157 0.974 -0.675 1.929 -1.089 2.01 -0.184 0.036 -0.525 -0.268 -0.858 -0.763 z"/><path d="m 79.71 186.61 c 0.138 -0.747 0.803 -1.645 1.088 -1.469 0.271 0.168 0.184 1.306 -0.135 1.762 -0.164 0.234 -0.476 0.426 -0.692 0.426 -0.351 0 -0.379 -0.078 -0.261 -0.719 z"/><path d="m 101.47 188.09 c -0.905 -0.071 -1.747 -0.191 -1.87 -0.267 -0.322 -0.199 -0.275 -1.107 0.083 -1.619 0.29 -0.414 0.327 -0.42 0.664 -0.115 0.196 0.178 0.453 0.615 0.571 0.971 0.254 0.769 0.89 1.01 1.556 0.587 0.881 -0.558 4.296 -0.948 5.216 -0.595 0.44 0.169 0.166 0.612 -0.516 0.834 -0.805 0.262 -3.659 0.364 -5.704 0.204 z"/><path d="m 113.37 187.54 c 0 -0.336 0.13 -0.864 0.29 -1.172 0.589 -1.14 1.694 -1.255 3.182 -0.332 1.595 0.99 3.495 0.82 5.135 -0.459 0.614 -0.479 1.103 -0.449 1.766 0.109 0.546 0.459 1.317 0.666 3.876 1.04 0.919 0.134 1.572 0.367 2.205 0.787 l 0.899 0.597 l -2.972 -0.115 c -4.868 -0.189 -12.295 -0.197 -13.375 -0.014 l -1.01 0.171 v -0.611 z"/><path d="m 131.7 187.92 c -0.318 -0.515 3.828 -1.236 5.171 -0.899 0.481 0.121 0.504 0.163 0.237 0.43 -0.475 0.475 -5.153 0.881 -5.408 0.469 z"/><path d="m 143.2 188.31 c -0.322 -0.522 0.956 -3.509 1.664 -3.888 1.088 -0.582 2.085 2.683 1.093 3.581 -0.456 0.412 -2.548 0.645 -2.757 0.307 z"/><path d="m 157.86 187.99 c -0.58 -0.161 -1.621 -0.635 -2.313 -1.053 -0.692 -0.418 -1.349 -0.759 -1.46 -0.759 -0.111 0 -0.529 0.26 -0.929 0.578 -0.4 0.318 -0.767 0.537 -0.816 0.488 -0.208 -0.208 0.195 -1.461 0.528 -1.639 0.476 -0.255 3.621 -0.25 4.357 0.006 0.425 0.148 0.695 0.46 1.037 1.198 0.521 1.127 0.757 1.191 2.266 0.625 0.466 -0.175 1.396 -0.37 2.066 -0.432 1.062 -0.099 1.204 -0.075 1.102 0.19 -0.064 0.167 -0.347 0.457 -0.628 0.644 -0.706 0.468 -3.753 0.558 -5.209 0.153 z"/><path d="m 167.55 188.18 c -0.529 -0.529 -0.249 -1.582 0.561 -2.113 0.405 -0.265 0.585 -0.284 0.984 -0.103 0.447 0.204 0.477 0.29 0.355 1.034 -0.073 0.446 -0.266 0.963 -0.43 1.147 -0.368 0.417 -1.071 0.433 -1.47 0.034 z"/><path d="m 175.17 187.45 c 0.06 -0.584 0.194 -1.214 0.298 -1.399 0.157 -0.281 0.225 -0.201 0.41 0.485 0.323 1.198 0.204 1.832 -0.357 1.912 -0.449 0.063 -0.457 0.039 -0.35 -0.997 z"/><path d="m 184.74 187.86 c 0.083 -0.584 0.922 -0.946 2.027 -0.875 l 0.911 0.058 l -0.608 0.623 c -0.514 0.526 -0.747 0.623 -1.499 0.623 -0.813 0 -0.886 -0.037 -0.83 -0.43 z"/><path d="m 179.72 188.08 c 0 -0.52 1.01 -1.519 1.53 -1.519 0.404 0 0.405 0.007 0.063 0.595 -0.352 0.605 -1.126 1.322 -1.427 1.322 -0.091 0 -0.166 -0.179 -0.166 -0.398 z"/><path d="m 193.66 187.88 c -0.505 -0.575 -0.575 -0.597 -1.625 -0.491 -0.986 0.099 -1.059 0.083 -0.725 -0.166 0.38 -0.282 2.833 -0.395 3.447 -0.16 0.563 0.216 0.254 1.418 -0.363 1.418 -0.114 0 -0.444 -0.271 -0.734 -0.601 z"/></g><rect rx="12.593" y="195.7" x="41.09" height="0.526" width="177.35" ry="0.263" style="fill:#dcdcdc;stroke:#fff;stroke-width:8.03"/><g style="fill:#ff4500;stroke:#ff4500"><g style="stroke-width:1.599"><path d="m 28.663 148.91 c -0.234 -8.881 0.154 -35.483 0.527 -36.11 0.295 -0.498 0.352 -0.434 0.516 0.584 0.102 0.63 0.052 1.934 -0.11 2.898 -0.367 2.175 -0.351 21.01 0.02 24.398 0.451 4.115 0.666 12.564 0.32 12.564 -0.167 0 -0.492 0.187 -0.72 0.416 -0.36 0.36 -0.434 -0.281 -0.552 -4.748 z"/><path d="m 30.612 133.74 c -0.176 -0.13 -0.304 -2.559 -0.321 -6.132 -0.025 -5.24 0.025 -5.916 0.438 -5.912 0.813 0.008 1.2 0.438 1.791 1.994 0.649 1.709 0.802 6.379 0.271 8.292 -0.45 1.621 -1.363 2.358 -2.179 1.759 z"/><path d="m 31.29 120.91 c -0.401 -0.106 -0.509 -0.592 -0.592 -2.669 -0.122 -3.037 0.149 -3.924 0.586 -1.922 0.308 1.412 0.718 4.82 0.572 4.755 -0.042 -0.019 -0.296 -0.092 -0.566 -0.163 z"/><path d="m 38.709 179.76 c -0.439 -0.532 -1.078 -3.176 -2.389 -9.898 -2.27 -11.635 -3.53 -20.406 -3.497 -24.353 l 0.02 -2.346 l 0.414 1.315 c 0.228 0.723 0.421 2.367 0.428 3.652 0.009 1.531 0.209 2.892 0.579 3.945 0.311 0.884 0.57 2.141 0.575 2.794 0.005 0.653 0.404 2.354 0.886 3.78 0.734 2.173 0.877 3.051 0.877 5.414 0 1.661 0.179 3.41 0.435 4.255 0.239 0.789 0.437 2.164 0.438 3.056 0.002 0.892 0.142 1.76 0.312 1.93 0.17 0.17 0.426 1.138 0.569 2.151 0.281 1.99 0.913 2.997 1.507 2.403 0.192 -0.192 0.456 -1.917 0.6 -3.924 0.205 -2.862 0.166 -4.03 -0.195 -5.81 -0.556 -2.744 -0.567 -3.61 -0.051 -4.04 0.272 -0.226 0.444 -1.29 0.538 -3.323 0.093 -2.024 0.36 -3.673 0.823 -5.099 0.666 -2.052 0.67 -2.124 0.147 -2.703 -0.563 -0.622 -1.596 -0.784 -2.069 -0.325 -0.153 0.148 -0.632 0.2 -1.064 0.115 -1.086 -0.213 -1.69 -2.081 -1.722 -5.331 -0.019 -1.884 -0.218 -3.084 -0.804 -4.842 l -0.779 -2.338 l -1.242 0.025 l -1.242 0.025 v -3.035 c 0 -2.15 0.13 -3.286 0.446 -3.898 0.245 -0.475 0.541 -1.802 0.657 -2.949 l 0.211 -2.086 l 2.381 10.633 c 1.31 5.848 2.54 11.03 2.733 11.51 0.342 0.853 0.358 0.859 0.601 0.227 0.137 -0.357 0.586 -3.25 0.997 -6.428 0.411 -3.178 1.073 -7.619 1.47 -9.869 0.723 -4.091 2.4 -9.997 2.448 -8.62 0.014 0.402 -0.218 1.509 -0.514 2.46 -0.297 0.951 -0.474 1.98 -0.394 2.287 0.223 0.854 1.459 1.209 2.297 0.66 0.668 -0.438 0.691 -0.426 0.691 0.338 0 0.435 -0.719 4.481 -1.598 8.992 -3.128 16.05 -3.322 17.529 -3.948 30.13 -0.28 5.622 -0.684 8.099 -1.478 9.06 -0.432 0.52 -0.702 0.535 -1.096 0.06 z"/><path d="m 38.539 172.75 c -0.097 -0.362 -0.181 -1.118 -0.186 -1.68 -0.005 -0.562 -0.2 -2.075 -0.432 -3.36 -0.232 -1.286 -0.424 -3.126 -0.426 -4.091 -0.002 -0.964 -0.409 -3.462 -0.904 -5.552 -1.594 -6.722 -1.754 -7.548 -2.039 -10.519 -0.341 -3.548 -0.509 -4.232 -1.207 -4.906 -0.873 -0.843 -0.696 -1.429 0.398 -1.322 0.866 0.084 0.979 0.221 1.442 1.748 0.276 0.911 0.639 3.112 0.805 4.891 0.323 3.462 0.766 4.698 1.963 5.482 0.629 0.412 0.905 0.437 1.662 0.151 1.337 -0.505 1.515 -0.104 0.972 2.188 -0.26 1.097 -0.595 3.262 -0.745 4.812 -0.15 1.55 -0.436 3.079 -0.636 3.399 -0.286 0.458 -0.29 1.102 -0.022 3.03 0.483 3.455 0.454 6.389 -0.063 6.389 -0.222 0 -0.483 -0.296 -0.58 -0.657 z"/><path d="m 29.29 176.75 c -0.167 -0.439 -0.28 -5.127 -0.273 -11.322 l 0.012 -10.573 l 1.01 -0.642 c 0.976 -0.622 1.017 -0.625 1.303 -0.092 0.318 0.595 0.428 22.11 0.117 22.917 -0.106 0.275 -0.522 0.462 -1.03 0.462 -0.646 0 -0.921 -0.181 -1.138 -0.75 z"/><path d="m 32.13 153.76 c -0.116 -0.442 -0.386 -0.804 -0.6 -0.804 -0.299 0 -0.433 -1.06 -0.579 -4.602 -0.105 -2.531 -0.275 -6.607 -0.378 -9.06 l -0.188 -4.456 h 0.773 h 0.773 l 0.03 3.872 c 0.017 2.129 0.005 4.889 -0.025 6.133 -0.03 1.244 0.102 3.685 0.294 5.424 0.361 3.271 0.311 5.05 -0.099 3.49 z"/><path d="m 28.55 184.68 c -0.549 -0.401 -0.568 -0.922 -0.591 -15.851 l -0.024 -15.437 l 0.17 11.877 c 0.159 11.135 0.205 11.915 0.727 12.491 0.317 0.35 0.914 0.615 1.388 0.615 0.767 0 0.831 0.085 0.827 1.096 -0.003 0.603 -0.132 1.293 -0.288 1.534 -0.216 0.335 -0.284 0.222 -0.288 -0.476 -0.003 -0.503 -0.216 -1.089 -0.474 -1.304 -0.399 -0.331 -0.531 -0.307 -0.873 0.161 -1.045 1.429 -0.798 4.02 0.399 4.195 0.742 0.106 0.766 0.17 0.349 0.949 -0.361 0.674 -0.572 0.698 -1.322 0.151 z"/><path d="m 49.15 172.52 c -0.362 -0.224 -0.428 -3.64 -0.464 -24.01 -0.023 -13.06 0.06 -23.357 0.185 -22.875 0.124 0.482 0.251 1.534 0.283 2.338 0.106 2.721 1.066 4.757 1.624 3.446 0.421 -0.989 0.515 -8.951 0.137 -11.646 -0.201 -1.436 -0.345 -2.982 -0.321 -3.435 0.029 -0.528 -0.069 -0.754 -0.273 -0.628 -0.175 0.108 -0.502 -0.047 -0.727 -0.344 -0.424 -0.56 -0.424 -0.56 -0.559 0.774 -0.024 0.241 -0.155 1.224 -0.291 2.185 -0.204 1.446 -0.29 1.63 -0.497 1.07 -0.138 -0.372 -0.645 -0.825 -1.127 -1.01 -0.94 -0.355 -1.151 -1.189 -0.574 -2.267 0.21 -0.393 0.207 -0.744 -0.012 -1.152 -0.273 -0.51 -0.066 -0.841 1.569 -2.517 1.036 -1.062 2.06 -1.871 2.276 -1.8 0.216 0.072 0.498 0.711 0.626 1.421 0.307 1.7 0.623 49.628 0.355 53.917 -0.206 3.301 -0.211 3.319 -0.757 2.669 -0.471 -0.561 -0.592 -0.592 -0.843 -0.216 -0.368 0.549 -0.38 1.763 -0.024 2.326 0.231 0.365 0.357 0.348 0.872 -0.118 0.654 -0.592 0.76 -0.323 0.324 0.824 -0.342 0.9 -1.204 1.408 -1.783 1.05 z m 1.806 -11.137 c 0.423 -3.844 0.153 -17.301 -0.39 -19.365 -0.419 -1.595 -0.933 -2.01 -1.224 -0.984 -0.383 1.348 -0.541 15.268 -0.216 18.975 0.551 6.28 1.233 6.792 1.83 1.373 z"/><path d="m 44.794 130.09 c 0.006 -0.201 0.182 -1.088 0.392 -1.972 0.249 -1.048 0.335 -2.735 0.246 -4.847 -0.09 -2.143 -0.021 -3.454 0.202 -3.872 0.316 -0.59 0.384 -0.602 1.029 -0.179 1.104 0.723 1.433 1.918 1.265 4.6 -0.213 3.4 -0.994 6.03 -1.894 6.368 -0.949 0.361 -1.252 0.337 -1.24 -0.097 z"/><path d="m 49.797 120.81 c 0 -0.402 0.066 -0.566 0.147 -0.365 0.081 0.201 0.081 0.53 0 0.73 -0.081 0.201 -0.147 0.037 -0.147 -0.365 z"/><path d="m 30.2 111.83 c -0.013 -0.201 -0.247 -0.365 -0.52 -0.365 -0.386 0 -0.419 -0.078 -0.146 -0.351 0.434 -0.434 1.082 0.095 0.845 0.69 -0.114 0.285 -0.162 0.292 -0.179 0.026 z"/><path d="m 62.899 144.83 c -3.035 -0.371 -3.642 -1.241 -3.606 -5.17 0.027 -2.928 0.301 -7.05 0.547 -8.22 0.072 -0.342 0.384 -0.689 0.693 -0.77 0.445 -0.116 0.6 -0.503 0.743 -1.861 0.351 -3.325 0.875 -6.381 0.98 -5.708 0.058 0.375 -0.038 2.254 -0.213 4.177 -0.23 2.518 -0.23 3.661 -0.001 4.089 0.198 0.369 0.252 1.442 0.144 2.836 -0.506 6.525 -0.509 7.239 -0.035 7.633 0.336 0.279 1.568 0.368 4.608 0.333 2.282 -0.026 4.186 -0.085 4.231 -0.13 0.045 -0.045 -0.105 -0.993 -0.333 -2.107 -0.228 -1.114 -0.695 -4.853 -1.037 -8.308 -0.692 -6.976 -1.061 -8.777 -2.322 -11.317 -1.196 -2.41 -2 -2.957 -3.34 -2.264 -0.881 0.457 -0.931 0.304 -0.459 -1.394 l 0.304 -1.096 h 2.699 h 2.699 l 0.369 3.107 c 0.203 1.709 0.825 5.5 1.382 8.425 1.232 6.467 1.974 13.315 1.561 14.402 -0.158 0.416 -0.212 1.104 -0.119 1.527 0.311 1.416 -0.409 1.684 -4.82 1.8 -2.17 0.057 -4.273 0.063 -4.675 0.014 z"/><path d="m 55.23 168.78 c -0.172 -0.658 0.169 -4.839 0.78 -9.543 0.25 -1.928 0.853 -7.714 1.34 -12.856 1.205 -12.73 1.129 -12.677 1.152 -0.795 0.01 4.885 0.073 5.657 0.478 5.812 0.257 0.099 2.263 -0.103 4.458 -0.448 4.746 -0.746 5.839 -0.774 6.703 -0.168 0.972 0.681 1.423 1.759 2.23 5.333 0.951 4.213 1.618 5.287 2.647 4.259 0.632 -0.632 0.57 -1.691 -0.579 -9.755 -0.85 -5.967 -1.309 -11.517 -0.859 -10.373 0.296 0.753 2.192 14.787 2.338 17.311 0.208 3.601 -0.084 4.311 -1.774 4.311 -1.487 0 -1.671 -0.379 -2.474 -5.082 -0.34 -1.992 -0.809 -3.991 -1.042 -4.442 -0.638 -1.234 -2.061 -1.522 -4.761 -0.965 -2.057 0.425 -4.766 1.313 -5.481 1.798 -0.764 0.518 -1.013 1.824 -1.424 7.466 -0.436 5.981 -0.665 7.204 -1.534 8.164 -0.626 0.692 -2.01 0.675 -2.198 -0.026 z m 2.027 -0.947 c 0.827 -1.694 1.298 -8.09 0.665 -9.03 -0.256 -0.383 -0.344 -0.373 -0.69 0.079 -0.218 0.285 -0.486 1.074 -0.595 1.753 -0.863 5.356 -0.998 6.719 -0.736 7.409 0.331 0.871 0.869 0.789 1.356 -0.208 z"/><path d="m 69.62 148.42 c -0.542 -0.31 -1.87 -0.42 -5.151 -0.428 -4.652 -0.011 -5.256 -0.177 -5.02 -1.382 0.187 -0.972 1.339 -1.151 6.297 -0.982 4.658 0.159 4.757 0.176 5.525 0.946 0.757 0.758 0.767 0.808 0.291 1.534 -0.557 0.851 -0.9 0.906 -1.939 0.312 z"/><path d="m 59.39 149.49 v -0.829 l 3.141 0.106 c 1.728 0.058 3.996 0.19 5.04 0.294 l 1.899 0.188 l -3.945 0.517 c -2.17 0.284 -4.438 0.525 -5.04 0.535 -1.013 0.017 -1.096 -0.045 -1.096 -0.811 z"/><path d="m 74.2 159.17 c -0.085 -0.138 -0.493 -1.585 -0.907 -3.217 -0.97 -3.826 -1.213 -4.44 -2.138 -5.411 -0.583 -0.611 -0.655 -0.804 -0.3 -0.804 0.586 0 1.98 -1.625 1.98 -2.309 0 -0.281 -0.334 -0.825 -0.742 -1.209 l -0.742 -0.697 l 0.639 -0.236 c 0.351 -0.13 0.689 -0.186 0.75 -0.125 0.179 0.179 1.882 13.99 1.742 14.13 -0.07 0.07 -0.197 0.014 -0.282 -0.123 z"/></g><g style="stroke-width:1.055"><path d="m 83.57 138.88 c -0.406 -0.247 -0.688 -0.624 -0.83 -1.108 -0.571 -1.946 -0.384 -8.725 0.306 -11.05 0.284 -0.955 0.822 -1.474 1.328 -1.28 0.254 0.097 0.349 0.423 0.589 2.01 0.069 0.454 0.32 1.062 0.559 1.349 0.239 0.288 0.497 0.784 0.572 1.102 0.076 0.318 0.392 0.897 0.702 1.287 0.31 0.39 0.663 0.926 0.784 1.191 0.19 0.418 0.285 0.457 0.709 0.296 0.269 -0.102 1.299 -0.239 2.29 -0.304 2.071 -0.136 2.572 0.093 2.567 1.175 -0.006 1.125 -0.433 1.353 -2.917 1.56 -0.91 0.076 -1.744 0.194 -1.853 0.262 -0.109 0.068 -0.274 0.508 -0.367 0.976 -0.155 0.786 -0.233 0.874 -1.01 1.133 -0.462 0.154 -1.176 0.616 -1.587 1.027 -0.855 0.855 -1 0.885 -1.844 0.371 z"/><path d="m 88.52 136.76 c 0 -0.629 0.513 -0.92 1.87 -1.058 2.645 -0.27 3.335 -0.702 3.335 -2.089 0 -1.014 -0.259 -1.415 -1.092 -1.69 -0.685 -0.226 -3.486 -0.144 -4.181 0.123 -0.203 0.078 -0.513 -0.219 -1.01 -0.967 -0.394 -0.593 -0.672 -1.123 -0.619 -1.177 0.054 -0.054 0.652 0.036 1.33 0.199 0.751 0.181 2.687 0.345 4.953 0.42 3.106 0.103 3.703 0.168 3.615 0.398 -0.058 0.151 -0.105 0.484 -0.105 0.741 0 0.292 -0.111 0.466 -0.298 0.466 -0.164 0 -0.511 0.213 -0.771 0.473 -0.549 0.549 -0.603 1.256 -0.212 2.762 0.239 0.923 0.234 1.01 -0.069 1.01 -0.608 0 -6.261 0.584 -6.505 0.672 -0.139 0.05 -0.241 -0.068 -0.241 -0.279 z"/><path d="m 92.86 129.9 c -4.104 -0.271 -6.276 -0.578 -6.508 -0.92 -0.449 -0.661 -0.7 -1.305 -0.915 -2.351 -0.142 -0.689 -0.443 -1.407 -0.745 -1.776 -0.279 -0.341 -0.709 -0.883 -0.955 -1.205 -0.535 -0.699 -0.799 -0.729 -1.327 -0.152 -0.52 0.568 -0.664 1.08 -0.828 2.94 l -0.136 1.542 l -0.029 -1.735 c -0.027 -1.642 0.389 -8.04 0.483 -7.422 0.024 0.159 0.099 0.707 0.167 1.219 0.155 1.177 0.63 1.673 1.601 1.673 0.735 0 0.736 0.001 1.187 1.301 0.616 1.776 1.086 2.692 1.894 3.689 1.471 1.814 3.489 2.601 7.582 2.957 1.471 0.128 2.674 0.301 2.674 0.384 0 0.083 -0.108 0.139 -0.241 0.125 -0.133 -0.015 -1.889 -0.136 -3.904 -0.268 z"/><path d="m 85.24 119.36 v -0.726 l 2.458 -0.007 c 4.267 -0.012 7.36 -0.293 7.933 -0.719 0.656 -0.487 0.769 -1.526 0.237 -2.18 -0.427 -0.525 0.344 -0.504 -7.447 -0.204 -2.227 0.086 -4.2 0.223 -4.386 0.305 -0.193 0.085 -0.337 0.068 -0.337 -0.04 0 -0.303 3.731 -0.99 6.559 -1.209 2.799 -0.216 6.04 -0.029 6.982 0.404 0.354 0.162 0.593 0.472 0.722 0.934 0.305 1.1 0.234 1.501 -0.396 2.218 -1.149 1.308 -3.463 1.77 -9.483 1.892 l -2.843 0.058 v -0.726 z"/><path d="m 83.06 120.86 c -0.166 -0.166 -0.362 -0.713 -0.436 -1.215 -0.074 -0.502 -0.195 -0.957 -0.269 -1.01 -0.259 -0.186 0.193 -1.325 0.574 -1.446 0.21 -0.067 0.52 -0.259 0.688 -0.428 0.362 -0.362 2.243 -0.538 7.824 -0.73 3.715 -0.128 3.795 -0.122 4.01 0.273 0.284 0.53 -0.014 1.09 -0.666 1.254 -0.86 0.216 -5.113 0.49 -7.674 0.495 l -2.47 0.004 l 0.045 1.494 l 0.045 1.494 l -0.683 0.058 c -0.429 0.037 -0.795 -0.054 -0.984 -0.243 z"/><path d="m 84.42 156.96 c -0.87 -0.241 -1.604 -1.061 -1.886 -2.109 -0.972 -3.61 -1.518 -26.521 -0.64 -26.858 0.223 -0.085 0.243 0.121 0.12 1.194 -0.082 0.713 -0.147 2.815 -0.144 4.671 0.005 3.036 0.047 3.465 0.421 4.284 0.413 0.907 1.348 1.69 2.02 1.691 0.275 0.001 0.296 0.094 0.136 0.627 -0.104 0.345 -0.193 1.809 -0.2 3.254 -0.022 5.063 0.692 5.965 4.698 5.937 1.09 -0.008 3.283 -0.167 4.874 -0.353 1.59 -0.187 2.909 -0.329 2.93 -0.317 0.126 0.074 -0.399 4.14 -0.585 4.533 -0.469 0.99 -2.407 1.815 -6.979 2.971 -2.345 0.593 -3.809 0.739 -4.763 0.475 z m 5.734 -2.091 c 0.636 -0.189 1.787 -0.493 2.558 -0.675 1.806 -0.427 2.627 -0.966 2.707 -1.779 0.033 -0.336 -0.037 -0.793 -0.156 -1.015 -0.432 -0.807 -0.99 -0.818 -3.817 -0.071 -1.453 0.383 -3.335 0.774 -4.183 0.868 -0.848 0.094 -1.74 0.216 -1.981 0.271 -1.159 0.262 -1.584 1.677 -0.766 2.553 0.423 0.453 0.484 0.461 2.458 0.328 1.113 -0.075 2.545 -0.291 3.181 -0.48 z"/><path d="m 84.952 154.49 c -0.403 -0.446 -0.225 -1.117 0.355 -1.334 0.229 -0.086 0.938 -0.217 1.574 -0.292 0.636 -0.075 2.478 -0.433 4.093 -0.797 1.615 -0.364 3.065 -0.661 3.222 -0.661 0.157 0 0.379 0.173 0.492 0.386 0.297 0.555 -0.035 1.052 -0.946 1.416 -1.293 0.517 -4.625 1.297 -5.97 1.396 -0.702 0.052 -1.551 0.128 -1.887 0.168 -0.419 0.051 -0.711 -0.038 -0.933 -0.283 z"/><path d="m 95.88 134.99 c -0.204 -1.19 -0.196 -1.441 0.061 -1.833 0.164 -0.25 0.368 -0.454 0.454 -0.454 0.18 0 0.047 3.058 -0.149 3.424 -0.072 0.133 -0.236 -0.378 -0.367 -1.136 z"/><path d="m 63.12 140.31 c -0.268 -0.188 -0.428 -0.501 -0.428 -0.835 0 -0.795 0.167 -0.828 0.772 -0.15 0.532 0.595 0.589 0.611 2.164 0.608 1.931 -0.003 2.569 -0.311 2.76 -1.332 0.152 -0.808 -0.214 -7.799 -0.597 -11.437 -0.304 -2.88 -0.334 -3.444 -0.178 -3.287 0.328 0.328 1.264 9.976 1.295 13.36 0.023 2.456 -0.135 2.887 -1.159 3.171 -1.153 0.32 -4.122 0.258 -4.63 -0.098 z"/><path d="m 67.958 140.95 c 0.87 -0.23 1.464 -1.053 1.499 -2.077 0.02 -0.584 0.045 -0.545 0.182 0.289 0.087 0.53 0.205 1.202 0.262 1.494 l 0.103 0.53 l -1.393 -0.02 c -1.317 -0.019 -1.352 -0.031 -0.653 -0.216 z"/><path d="m 58.84 131.53 c -0.028 -0.427 1.022 -7.27 1.418 -9.236 0.749 -3.719 1.203 -4.786 0.616 -1.446 -0.149 0.848 -0.464 3.277 -0.7 5.398 -0.236 2.121 -0.5 3.902 -0.588 3.958 -0.087 0.056 -0.289 0.403 -0.449 0.771 -0.159 0.368 -0.293 0.617 -0.298 0.555 z"/><path d="m 62.823 122.37 c -0.291 -0.291 0.311 -3.156 0.663 -3.156 0.105 0 0.145 0.152 0.09 0.337 -0.056 0.186 -0.2 0.923 -0.322 1.639 -0.231 1.361 -0.236 1.375 -0.431 1.18 z"/><path d="m 62.32 113.68 c -0.034 -0.64 0.318 -1.41 0.645 -1.41 0.16 0 0.574 0.258 0.92 0.573 l 0.63 0.573 l -0.998 0.006 c -0.785 0.004 -1.017 0.078 -1.086 0.343 -0.068 0.261 -0.093 0.242 -0.111 -0.084 z"/><path d="m 66.736 112.94 c 0.634 -0.363 1.627 -0.363 1.928 0 0.209 0.252 0.071 0.288 -1.085 0.282 -1.246 -0.006 -1.296 -0.023 -0.843 -0.282 z"/><path d="m 61.44 121.52 c 0.071 -0.583 0.194 -1.884 0.272 -2.892 0.101 -1.294 0.301 -2.233 0.684 -3.2 l 0.542 -1.369 l 3.052 -0.173 c 3.109 -0.177 3.248 -0.155 3.248 0.517 0 0.1 -1.299 0.177 -2.981 0.177 -3.435 0 -3.134 -0.178 -3.684 2.182 -0.282 1.208 -0.305 1.581 -0.118 1.881 0.291 0.466 -0.003 1.789 -0.684 3.07 l -0.461 0.867 l 0.129 -1.06 z"/><path d="m 49.812 125.81 c -0.022 -0.239 -0.163 -0.434 -0.313 -0.434 -0.2 0 -0.29 -0.329 -0.337 -1.231 -0.036 -0.677 -0.021 -1.467 0.032 -1.756 0.095 -0.519 0.1 -0.521 0.441 -0.143 0.291 0.322 0.335 0.666 0.281 2.19 -0.035 0.994 -0.082 1.613 -0.104 1.374 z"/><path d="m 48.701 120.93 c -0.071 -0.115 -0.033 -0.306 0.085 -0.424 0.158 -0.158 0.215 -0.102 0.215 0.21 0 0.465 -0.1 0.537 -0.3 0.215 z"/><path d="m 58.38 135.31 c 0.065 -0.742 0.15 -1.386 0.188 -1.43 0.164 -0.19 0.046 2.228 -0.122 2.49 -0.123 0.191 -0.145 -0.167 -0.067 -1.06 z"/><path d="m 81.53 155.42 l -0.53 -0.386 v -3.39 c 0 -1.864 0.048 -3.342 0.107 -3.283 0.059 0.059 0.228 1.369 0.375 2.913 0.148 1.543 0.365 3.167 0.484 3.607 0.119 0.441 0.188 0.829 0.155 0.863 -0.034 0.034 -0.3 -0.112 -0.591 -0.325 z"/><path d="m 85.33 158.34 c -0.558 -0.116 -1.711 -0.754 -1.587 -0.878 0.033 -0.033 0.404 0.021 0.825 0.119 2.205 0.515 10.42 -1.789 11.783 -3.305 0.228 -0.254 0.507 -0.939 0.619 -1.522 l 0.204 -1.06 l -0.071 1.212 c -0.126 2.137 -0.434 2.356 -5.757 4.104 -3.733 1.226 -5.081 1.524 -6.02 1.33 z"/><path d="m 86.88 148.88 c -1.219 -0.3 -1.275 -0.571 -0.085 -0.412 1.3 0.173 3.34 0.177 6.829 0.012 l 2.699 -0.128 l -2.121 0.252 c -3.087 0.367 -6.44 0.494 -7.322 0.276 z"/><path d="m 106.49 152.37 c -0.777 -0.474 -1.704 -1.897 -2.07 -3.18 -0.427 -1.497 -0.643 -4.208 -0.972 -12.221 -0.376 -9.145 -0.329 -21.955 0.081 -22.449 0.19 -0.229 0.578 -0.319 1.379 -0.319 1.076 0 1.121 0.021 1.326 0.607 0.335 0.96 0.28 1.132 -0.322 1.012 -0.82 -0.164 -1.512 0.49 -1.765 1.67 -0.468 2.182 -0.114 19.344 0.438 21.233 0.218 0.748 0.301 0.828 0.843 0.827 h 0.601 l 0.121 1.832 c 0.19 2.886 0.392 3.529 1.483 4.723 0.525 0.574 1.258 1.232 1.629 1.461 0.672 0.415 0.673 0.419 0.306 0.828 -0.529 0.59 -0.63 0.997 -0.405 1.643 0.387 1.111 2.254 1.545 6.822 1.586 l 2.892 0.026 l -4.145 0.261 c -2.28 0.144 -4.804 0.393 -5.61 0.554 -1.85 0.37 -1.878 0.369 -2.635 -0.093 z"/><path d="m 105.2 138.54 c -0.297 -0.773 -0.532 -6.396 -0.558 -13.35 -0.032 -8.365 -0.01 -8.525 1.204 -8.641 0.602 -0.058 0.641 -0.029 0.515 0.386 -0.075 0.246 -0.185 5.284 -0.245 11.195 -0.102 10.08 -0.13 10.747 -0.447 10.747 -0.186 0 -0.397 -0.152 -0.468 -0.337 z"/><path d="m 111.82 148.25 c -0.849 -0.183 -1.331 -0.447 -2.217 -1.215 -0.623 -0.54 -1.306 -1.179 -1.518 -1.419 l -0.386 -0.437 l 0.482 0.137 c 1.505 0.429 4.145 0.526 12.395 0.455 7.87 -0.067 9.03 -0.116 9.967 -0.419 1.282 -0.414 1.865 -0.919 2.12 -1.834 0.258 -0.929 0.245 -3.665 -0.022 -4.429 -0.312 -0.896 -0.059 -0.962 0.336 -0.088 0.495 1.095 0.502 4.919 0.01 5.821 -0.717 1.315 -2.95 1.758 -8.902 1.77 -3.652 0.007 -6.724 0.231 -8.05 0.588 -0.435 0.117 -1.028 0.466 -1.316 0.775 -0.59 0.632 -1.097 0.684 -2.9 0.296 z"/><path d="m 118.98 151.26 c 0 -0.105 -1.471 -0.235 -3.422 -0.303 -3.582 -0.126 -4.923 -0.332 -5.491 -0.846 -0.421 -0.381 -0.429 -0.704 -0.034 -1.307 0.304 -0.463 0.312 -0.465 1.108 -0.145 0.49 0.196 1.253 0.308 1.959 0.287 0.636 -0.019 3.933 -0.115 7.325 -0.214 6.768 -0.198 8.551 -0.37 10.07 -0.973 1.715 -0.679 2.782 -0.478 3.034 0.571 0.194 0.807 -0.475 1.43 -2.169 2.02 -0.821 0.286 -2.144 0.6 -2.939 0.699 -2.155 0.268 -9.446 0.433 -9.446 0.214 z"/><path d="m 132.7 150.45 c 0.85 -0.466 1.512 -1.262 1.511 -1.819 -0.001 -0.773 -0.7 -1.63 -1.443 -1.769 -0.742 -0.139 -0.977 -0.103 -3.168 0.491 -1.438 0.39 -4.792 0.638 -11.485 0.849 -2.545 0.08 -2.831 0.059 -2.389 -0.176 0.836 -0.445 2.75 -0.646 7.304 -0.769 5.551 -0.149 7.721 -0.38 8.996 -0.956 1.289 -0.582 1.604 -1.099 1.851 -3.038 l 0.204 -1.593 l 0.557 1.248 c 0.644 1.442 0.876 1.649 1.36 1.211 0.334 -0.303 0.345 -0.279 0.231 0.54 -0.564 4.067 -1.51 5.674 -3.56 6.05 l -0.675 0.123 l 0.706 -0.387 z"/><path d="m 147.55 142.98 c -1.213 -2.834 -1.56 -5.468 -2.129 -16.16 -0.126 -2.36 -0.157 -2.509 -0.544 -2.565 -0.334 -0.048 -0.434 -0.235 -0.537 -1.012 -0.07 -0.524 -0.157 -0.954 -0.195 -0.954 -0.038 0 -0.794 -0.146 -1.68 -0.324 -1.256 -0.253 -2.612 -0.321 -6.142 -0.308 -4.04 0.014 -13.232 0.499 -13.442 0.709 -0.045 0.045 -0.175 1.01 -0.29 2.144 -0.244 2.416 -0.031 4 0.682 5.087 0.251 0.382 0.52 0.949 0.598 1.262 0.078 0.312 0.439 0.849 0.804 1.193 0.873 0.824 1.894 0.969 4.397 0.625 2.537 -0.349 4.205 -0.187 5.554 0.537 0.574 0.308 1.125 0.77 1.263 1.058 0.642 1.344 0.808 8.675 0.205 9.06 -0.139 0.088 -0.305 0.162 -0.368 0.163 -0.141 0.004 -2.11 -4.25 -2.105 -4.549 0.007 -0.479 -0.88 -1.284 -1.995 -1.81 -1.336 -0.63 -2.318 -0.871 -4.267 -1.048 -3.659 -0.333 -5.399 -0.782 -6.105 -1.577 -0.481 -0.541 -1.072 -3.114 -1.529 -6.655 -0.595 -4.613 -0.317 -6.816 1.04 -8.229 1.671 -1.74 4.106 -2.132 13.438 -2.16 3.128 -0.009 6.424 -0.095 7.325 -0.191 0.901 -0.096 2.476 -0.233 3.5 -0.305 l 1.861 -0.131 l 0.921 0.87 c 0.834 0.788 0.935 0.977 1.062 2 0.078 0.623 0.151 2.218 0.163 3.543 0.028 3.089 -0.771 20.288 -0.953 20.493 -0.075 0.085 -0.315 -0.262 -0.533 -0.771 z"/><path d="m 146.4 151.55 c -0.498 -0.6 -0.851 -4.41 -1.392 -14.993 -0.562 -11.01 -0.595 -11.934 -0.4 -11.277 0.095 0.318 0.272 2.313 0.394 4.434 0.26 4.52 0.638 8.285 1.037 10.326 0.36 1.843 1.155 3.815 1.687 4.188 0.354 0.248 0.393 0.407 0.284 1.176 -0.069 0.489 -0.159 1.756 -0.201 2.817 -0.041 1.06 -0.19 2.274 -0.331 2.696 -0.266 0.801 -0.72 1.067 -1.079 0.634 z"/><path d="m 145.89 152.65 c -0.405 -0.405 -0.699 -1.553 -0.666 -2.596 0.019 -0.599 0.05 -0.689 0.099 -0.289 0.146 1.188 0.515 2.238 0.85 2.417 0.885 0.474 1.537 0.04 1.894 -1.261 0.231 -0.841 0.683 -6.666 1.07 -13.783 l 0.246 -4.53 l 0.021 6.265 c 0.024 7.121 -0.203 11.794 -0.621 12.795 -0.461 1.102 -2.187 1.688 -2.893 0.982 z"/><path d="m 118.59 125 c -0.642 -5.923 0.323 -7.974 4.24 -9.01 0.775 -0.205 3.059 -0.326 8.482 -0.45 4.082 -0.093 9.113 -0.226 11.181 -0.296 l 3.759 -0.126 l 0.566 0.601 l 0.566 0.601 l -1.145 0.003 c -0.629 0.002 -1.969 0.092 -2.976 0.201 -1.01 0.108 -5.345 0.278 -9.639 0.377 -9.907 0.228 -11.16 0.431 -12.979 2.108 -0.484 0.446 -1.049 1.229 -1.296 1.798 -0.389 0.894 -0.439 1.318 -0.437 3.755 0.001 1.511 -0.015 2.747 -0.036 2.747 -0.021 0 -0.15 -1.038 -0.287 -2.306 z"/><path d="m 122.59 136.29 c -0.612 -0.132 -1.35 -0.415 -1.639 -0.629 -1.082 -0.803 -2.153 -3.76 -2.45 -6.762 -0.196 -1.985 0.141 -1.744 0.539 0.386 0.441 2.359 1.419 5.273 1.935 5.768 0.561 0.539 1.503 0.921 3.01 1.221 1.068 0.213 1.142 0.252 0.489 0.253 -0.424 0.001 -1.272 -0.106 -1.885 -0.237 z"/><path d="m 106.42 153.34 c -0.502 -0.418 -0.365 -0.512 0.26 -0.178 0.3 0.161 1.01 0.137 2.831 -0.096 2.951 -0.377 6.661 -0.692 8.172 -0.695 0.711 -0.001 1.149 -0.089 1.209 -0.243 0.071 -0.181 1.125 -0.249 4.232 -0.274 2.276 -0.018 4.768 -0.137 5.539 -0.265 0.77 -0.127 1.791 -0.298 2.268 -0.38 0.484 -0.083 0.896 -0.072 0.932 0.024 0.161 0.431 1.911 -0.035 2.734 -0.728 0.327 -0.275 0.815 -0.937 1.086 -1.472 0.584 -1.153 1.196 -4.02 1.196 -5.599 0 -0.62 0.061 -1.184 0.136 -1.253 0.205 -0.19 -0.061 4.973 -0.298 5.788 -0.316 1.088 -1.389 2.509 -2.339 3.099 -1.298 0.806 -2.996 1.035 -11.737 1.581 -4.4 0.275 -9.292 0.628 -10.871 0.784 -3.921 0.388 -4.788 0.372 -5.349 -0.095 z"/><path d="m 111.22 171.7 c -0.457 -0.119 -0.426 -0.414 0.161 -1.525 0.566 -1.071 1.193 -1.812 1.536 -1.812 0.128 0 0.742 0.238 1.364 0.529 1.051 0.491 1.311 0.529 3.638 0.53 2.26 0.001 2.591 -0.043 3.37 -0.452 1.054 -0.554 2.608 -0.586 3.962 -0.081 0.988 0.368 1.72 1.142 1.536 1.622 -0.1 0.262 -0.234 0.266 -1.111 0.039 -1.386 -0.36 -2.247 -0.323 -3.137 0.132 -1.859 0.95 -5.509 0.887 -7.519 -0.131 -0.971 -0.492 -1.044 -0.501 -1.504 -0.2 -0.266 0.174 -0.639 0.579 -0.828 0.9 -0.335 0.566 -0.65 0.663 -1.466 0.45 z"/><path d="m 114.32 172.24 c -0.601 -0.065 -1.148 -0.172 -1.215 -0.239 -0.067 -0.067 0.083 -0.359 0.333 -0.65 l 0.455 -0.529 l 1.531 0.529 c 2.214 0.765 4.735 0.777 7.03 0.033 1.568 -0.508 1.7 -0.521 2.795 -0.274 l 1.149 0.258 l -0.515 0.342 c -0.284 0.188 -1.064 0.422 -1.735 0.519 -1.328 0.192 -8.07 0.199 -9.831 0.01 z"/><path d="m 97.98 171.42 c -0.351 -1.01 -0.264 -2.359 0.188 -2.933 0.527 -0.67 0.844 -0.641 1.586 0.146 0.902 0.956 1.274 1.081 3.206 1.081 1.959 0 2.519 0.29 2.518 1.301 v 0.53 l -1.59 -0.007 c -1.952 -0.009 -2.287 -0.119 -2.932 -0.964 -0.886 -1.162 -2.107 -0.77 -2.354 0.755 -0.139 0.859 -0.344 0.889 -0.622 0.091 z"/><path d="m 103.24 173.04 c -0.659 -0.72 -0.67 -0.723 -2.408 -0.791 l -1.746 -0.068 l 0.121 -0.604 c 0.066 -0.332 0.248 -0.732 0.405 -0.888 0.25 -0.25 0.375 -0.195 1.046 0.46 0.827 0.808 1.635 1.038 3.716 1.06 0.964 0.01 1.087 0.054 0.983 0.349 -0.178 0.505 -0.862 1.205 -1.178 1.205 -0.153 0 -0.576 -0.325 -0.94 -0.723 z"/><path d="m 136.27 172.67 c -0.402 -0.167 -0.699 -0.401 -0.659 -0.52 0.068 -0.205 2.451 -0.438 2.451 -0.239 0 0.051 -0.085 0.316 -0.188 0.588 -0.216 0.567 -0.56 0.604 -1.603 0.172 z"/><path d="m 134.63 170.94 c -0.124 -0.406 -0.151 -0.807 -0.06 -0.898 0.41 -0.41 2.971 -0.386 3.644 0.034 0.16 0.1 0.207 0.336 0.129 0.648 -0.111 0.443 -0.238 0.501 -1.312 0.595 -0.654 0.058 -1.411 0.161 -1.682 0.23 -0.442 0.112 -0.517 0.048 -0.718 -0.609 z"/><path d="m 144.37 170.97 c -0.181 -0.38 -0.33 -0.996 -0.33 -1.369 0 -0.591 0.085 -0.714 0.669 -0.957 1.295 -0.541 2.816 -0.219 3.289 0.696 0.451 0.873 0.374 0.953 -0.927 0.953 -1.285 0 -1.98 0.309 -2.233 0.994 -0.121 0.327 -0.18 0.287 -0.468 -0.316 z"/><path d="m 145.33 172.46 c -0.288 -0.318 -0.279 -0.385 0.126 -0.892 0.352 -0.441 0.632 -0.567 1.438 -0.644 0.607 -0.058 1 -0.02 1 0.098 0 0.345 -1.531 1.783 -1.898 1.783 -0.196 0 -0.496 -0.155 -0.667 -0.344 z"/><path d="m 150.33 171.68 c -0.525 -0.58 -0.406 -1.468 0.274 -2.04 1.024 -0.862 1.913 -0.581 1.913 0.605 0 0.487 -0.104 0.681 -0.434 0.807 -0.239 0.091 -0.599 0.349 -0.801 0.574 -0.448 0.498 -0.547 0.503 -0.952 0.055 z"/><path d="m 161.27 171.54 c -0.736 -1.124 -0.16 -3 0.963 -3.136 0.703 -0.084 1.75 0.603 2.125 1.395 0.415 0.874 0.402 0.9 -0.279 0.56 -0.845 -0.422 -1.663 -0.051 -2.115 0.959 l -0.341 0.762 l -0.353 -0.539 z"/><path d="m 162.58 172.25 c -0.214 -0.142 -0.205 -0.276 0.053 -0.775 0.332 -0.643 0.397 -0.664 1.484 -0.484 0.561 0.093 0.681 0.186 0.606 0.474 -0.052 0.197 -0.193 0.44 -0.314 0.54 -0.336 0.277 -1.537 0.439 -1.829 0.246 z"/><path d="m 155.99 171.63 c 0 -0.424 0.511 -1.533 0.706 -1.533 0.065 0 0.495 0.347 0.955 0.771 0.46 0.424 0.99 0.772 1.178 0.774 0.291 0.003 0.299 0.031 0.053 0.19 -0.159 0.103 -0.875 0.188 -1.59 0.19 -1.184 0.003 -1.301 -0.033 -1.301 -0.392 z"/><path d="m 170.12 138.05 c -0.76 -0.823 -1.059 -2.807 -0.535 -3.554 0.158 -0.226 0.917 -0.651 1.687 -0.943 2.758 -1.049 3.125 -1.941 3.01 -7.297 -0.066 -3.01 -0.111 -3.364 -0.529 -4.157 -0.251 -0.477 -0.705 -1.365 -1.01 -1.973 -0.861 -1.724 -1.951 -2.273 -4.639 -2.339 -1.012 -0.025 -1.022 -0.031 -1.272 -0.793 -0.138 -0.423 -0.302 -1.136 -0.364 -1.586 l -0.112 -0.818 l 0.941 -0.406 c 1.681 -0.725 5.462 -1.723 6.526 -1.723 1.415 0 1.776 0.345 2.02 1.928 0.33 2.161 0.587 6.704 0.588 10.41 0.002 5.191 -0.427 8.211 -1.454 10.238 -0.533 1.051 -0.955 1.395 -2.237 1.82 -0.546 0.181 -1.15 0.571 -1.497 0.966 -0.32 0.364 -0.612 0.662 -0.65 0.662 -0.038 0 -0.249 -0.195 -0.469 -0.434 z"/><path d="m 173.88 157.43 c -0.691 -0.737 -1.267 -1.956 -2.621 -5.545 -1.366 -3.623 -3.897 -10.827 -3.897 -11.09 0 -0.102 0.179 -0.006 0.397 0.213 0.502 0.502 0.977 0.416 1.288 -0.233 0.696 -1.452 -1.274 -3.712 -2 -2.293 l -0.242 0.474 l -0.225 -0.57 c -0.124 -0.314 -0.27 -1.146 -0.324 -1.849 -0.088 -1.144 -0.041 -1.385 0.452 -2.29 0.684 -1.257 1.847 -2.163 3.469 -2.703 2.505 -0.833 2.934 -1.64 3.137 -5.893 l 0.137 -2.872 l 0.16 2.843 c 0.18 3.192 -0.034 5.324 -0.61 6.096 -0.197 0.264 -1.135 0.877 -2.083 1.361 -1.113 0.568 -1.808 1.051 -1.962 1.363 -0.554 1.122 -0.09 3.103 0.993 4.241 0.539 0.566 0.661 0.864 0.757 1.851 0.117 1.204 0.931 4.48 2.617 10.533 1.041 3.738 1.485 6.135 1.224 6.602 -0.14 0.251 -0.244 0.214 -0.666 -0.236 z"/><path d="m 167.8 140.35 c -0.237 -0.117 -0.473 -0.325 -0.525 -0.461 -0.109 -0.284 0.268 -1.207 0.493 -1.207 0.288 0 0.751 0.859 0.751 1.392 0 0.577 -0.062 0.601 -0.719 0.275 z"/><path d="m 161.84 147.25 c -0.996 -1.396 -1.358 -5.28 -1.531 -16.403 -0.172 -11.04 0.157 -15.42 1.219 -16.217 0.177 -0.133 0.645 -0.241 1.041 -0.241 0.924 0 1.386 0.562 1.928 2.345 l 0.401 1.32 l -0.579 0.541 c -0.348 0.325 -0.706 0.96 -0.896 1.589 -0.367 1.214 -0.423 2.385 -0.711 14.735 -0.116 4.983 -0.266 9.928 -0.333 10.988 l -0.122 1.928 l -0.417 -0.585 z"/><path d="m 160.55 153.48 c -0.872 -1.391 -1.084 -5.04 -1.218 -20.964 -0.123 -14.616 -0.013 -17.488 0.724 -19.02 0.48 -0.995 0.825 -1.126 3.648 -1.384 1.299 -0.119 3.527 -0.527 5.383 -0.986 4 -0.99 4.65 -1.01 5.528 -0.128 0.36 0.36 0.655 0.738 0.655 0.839 0 0.104 -0.412 0.144 -0.948 0.093 -1.417 -0.136 -5.107 0.774 -7.751 1.911 -1.035 0.445 -1.019 0.343 -0.426 2.74 0.154 0.621 0.253 1.153 0.22 1.181 -0.032 0.028 -0.234 0.105 -0.449 0.17 -0.344 0.105 -0.443 -0.051 -0.841 -1.335 -0.571 -1.84 -1.383 -2.785 -2.394 -2.785 -1.622 0 -2.227 0.766 -2.666 3.374 -0.334 1.987 -0.331 18.547 0.005 23.422 0.296 4.297 0.596 5.747 1.49 7.195 l 0.701 1.135 l -0.304 1.967 c -0.455 2.941 -0.761 3.521 -1.357 2.571 z"/><path d="m 160.37 154.82 c -0.503 -0.43 -0.822 -0.923 -1.024 -1.588 -0.361 -1.186 -0.652 -6.588 -0.617 -11.47 0.025 -3.468 0.029 -3.426 0.159 1.544 0.074 2.811 0.194 5.804 0.268 6.651 0.25 2.865 0.964 4.528 1.945 4.528 0.552 0 0.804 -0.519 1.26 -2.602 l 0.38 -1.735 l -0.07 2.224 c -0.078 2.464 -0.295 3.079 -1.087 3.074 -0.266 -0.002 -0.812 -0.284 -1.214 -0.627 z"/><path d="m 174.22 158.78 c -0.752 -0.181 -1.297 -0.707 -1.826 -1.764 -0.651 -1.3 -2.025 -5.01 -1.901 -5.134 0.048 -0.048 0.42 0.757 0.825 1.791 1.019 2.6 1.51 3.536 2.218 4.228 0.712 0.696 1.278 0.657 1.58 -0.11 0.264 -0.671 -0.15 -3 -1.286 -7.243 -0.481 -1.798 -0.849 -3.347 -0.817 -3.443 0.051 -0.152 2.291 7.145 2.829 9.218 0.27 1.04 0.254 1.936 -0.038 2.167 -0.325 0.256 -1.12 0.402 -1.582 0.29 z"/><path d="m 165.9 139.21 c -0.834 -2.502 -0.889 -3.352 -0.302 -4.658 0.496 -1.106 0.759 -1.108 0.296 -0.002 -0.399 0.953 -0.273 3 0.278 4.512 0.425 1.163 0.696 2.313 0.546 2.313 -0.053 0 -0.42 -0.974 -0.817 -2.165 z"/><path d="m 134.5 132.53 c -1.025 -0.507 -2.291 -0.585 -6.81 -0.416 -1.905 0.071 -2.412 -0.104 -3.042 -1.053 -0.244 -0.367 -0.197 -0.38 1.427 -0.406 0.923 -0.015 2.685 -0.058 3.914 -0.096 2.235 -0.069 2.236 -0.069 3.549 0.605 1.125 0.578 2.278 1.602 2.01 1.786 -0.046 0.031 -0.517 -0.158 -1.047 -0.42 z"/><path d="m 187.42 113.09 c 0.004 -3.639 1.061 -5.76 3.486 -6.997 0.406 -0.207 0.991 -0.376 1.3 -0.376 0.725 0 0.916 0.476 1.158 2.883 0.144 1.433 0.264 1.888 0.56 2.129 0.604 0.489 0.819 1.06 0.819 2.172 v 1.041 l -1.022 -0.085 c -0.723 -0.06 -1.743 0.091 -3.485 0.514 -1.355 0.329 -2.543 0.599 -2.641 0.599 -0.098 0 -0.177 -0.846 -0.176 -1.88 z"/><path d="m 197.84 124.85 c -0.325 -1.25 -0.595 -2.95 -0.892 -5.621 -0.332 -2.99 -0.552 -3.847 -1.154 -4.496 -0.352 -0.38 -0.449 -0.744 -0.508 -1.917 -0.06 -1.197 -0.16 -1.563 -0.577 -2.108 -0.389 -0.51 -0.575 -1.115 -0.821 -2.666 -0.388 -2.452 -0.659 -2.899 -1.755 -2.896 -1.31 0.003 -3.337 1.42 -4.243 2.967 -0.633 1.079 -1.047 2.968 -1.081 4.929 -0.027 1.528 -0.039 1.573 -0.179 0.675 -0.232 -1.491 -0.209 -4.837 0.041 -5.842 0.278 -1.118 0.888 -2.116 1.733 -2.832 1.211 -1.027 6.344 -3.181 7.579 -3.181 0.541 0 1.446 0.827 1.951 1.783 0.247 0.468 0.246 0.53 -0.01 0.53 -0.475 0 -0.554 0.842 -0.424 4.513 0.129 3.625 0.448 5.804 1.01 6.887 0.29 0.561 0.314 1.097 0.207 4.689 -0.124 4.157 -0.238 5.309 -0.524 5.309 -0.09 0 -0.248 -0.325 -0.351 -0.723 z"/><path d="m 198.59 140.23 c 0 -0.116 -0.13 -0.522 -0.289 -0.902 -0.24 -0.574 -0.337 -0.652 -0.57 -0.459 -0.231 0.192 -0.298 0.153 -0.373 -0.217 -0.248 -1.223 -0.984 -12.724 -1.145 -17.897 l -0.087 -2.795 l 0.354 2.572 c 0.498 3.616 0.734 4.663 1.211 5.379 0.229 0.344 0.46 0.623 0.513 0.62 0.053 -0.003 0.256 -0.223 0.45 -0.49 0.445 -0.612 0.777 -4.844 0.63 -8.04 -0.054 -1.188 -0.18 -4.241 -0.279 -6.786 -0.099 -2.545 -0.243 -5.114 -0.321 -5.709 -0.309 -2.354 0.702 -0.879 1.336 1.95 1.031 4.602 1.254 15.09 0.491 23.13 -0.441 4.645 -1.311 9.476 -1.757 9.752 -0.091 0.056 -0.166 0.008 -0.166 -0.108 z"/><path d="m 193.77 165.89 c -1.143 -0.366 -4.863 -2.166 -4.737 -2.292 0.042 -0.042 0.54 0.055 1.106 0.215 1.386 0.393 3.997 0.895 4.658 0.895 0.958 0 1.653 -0.522 2.13 -1.599 0.66 -1.49 1.987 -5.833 2.226 -7.285 0.293 -1.782 0.261 -5.01 -0.054 -5.423 -0.44 -0.579 -1.249 -0.774 -1.888 -0.455 l -0.565 0.282 l 0.1 -1.098 c 0.055 -0.604 0.148 -2.312 0.206 -3.797 0.058 -1.484 0.163 -3.176 0.233 -3.759 l 0.126 -1.06 l 0.206 1.239 c 0.113 0.681 0.316 1.275 0.45 1.318 0.145 0.047 0.408 -0.301 0.645 -0.853 0.22 -0.513 0.562 -1.28 0.76 -1.704 0.197 -0.424 0.417 -1.142 0.489 -1.595 0.206 -1.303 0.42 -1.133 0.569 0.45 0.356 3.802 -0.704 17.476 -1.763 22.735 -0.361 1.796 -0.492 2.091 -1.304 2.956 -1.165 1.242 -1.825 1.394 -3.591 0.828 z"/><path d="m 194.44 163.92 c -0.072 -0.116 -0.344 -0.17 -0.606 -0.12 -0.262 0.05 -1.409 -0.111 -2.549 -0.357 -1.14 -0.247 -2.242 -0.404 -2.449 -0.35 -0.516 0.135 -1.421 -0.733 -1.421 -1.362 0 -0.646 0.638 -1.263 1.301 -1.259 0.292 0.002 0.877 0.128 1.301 0.281 1.044 0.376 1.253 0.361 1.253 -0.091 0 -0.625 0.627 -1.077 2.241 -1.615 1.479 -0.493 1.531 -0.532 2.037 -1.518 0.634 -1.235 0.927 -2.784 0.927 -4.898 0 -1.593 0.002 -1.599 0.599 -1.908 0.333 -0.172 0.797 -0.26 1.046 -0.198 0.377 0.095 0.468 0.279 0.58 1.174 0.161 1.29 -0.03 3.636 -0.425 5.203 -0.444 1.763 -1.612 5.314 -2 6.083 -0.446 0.88 -1.528 1.432 -1.835 0.936 z"/><path d="m 185.93 161.48 c -2.15 -1.99 -3.165 -6.464 -3.533 -15.571 -0.327 -8.097 0.102 -21.03 0.789 -23.736 0.192 -0.756 0.69 -2.057 1.108 -2.892 0.769 -1.537 1.253 -3.157 1.518 -5.084 0.138 -1.01 0.151 -1.026 0.255 -0.386 0.063 0.385 0.21 0.654 0.344 0.627 0.129 -0.026 0.235 0.125 0.235 0.337 0 0.212 0.087 0.386 0.193 0.386 0.106 0 0.193 0.136 0.193 0.302 0 0.197 0.117 0.267 0.337 0.202 1.377 -0.409 1.385 -0.378 0.213 0.827 -0.625 0.642 -1.234 1.408 -1.354 1.702 -0.428 1.046 -0.488 2.71 -0.245 6.799 0.446 7.488 0.716 15.291 0.596 17.263 -0.154 2.544 0.153 5.923 0.687 7.55 0.56 1.707 1.704 2.914 3.331 3.517 2.261 0.837 3.936 0.833 4.845 -0.011 l 0.499 -0.463 l -0.138 1.253 c -0.188 1.705 -0.758 3.28 -1.386 3.83 l -0.522 0.457 l -0.357 -0.457 c -1.264 -1.619 -2.349 -2.753 -3.589 -3.75 -2.15 -1.729 -3.233 -2.995 -3.489 -4.078 -0.127 -0.541 -0.289 -4.59 -0.394 -9.853 -0.185 -9.313 -0.382 -12.207 -0.928 -13.671 -0.367 -0.984 -0.859 -1.419 -1.21 -1.068 -0.618 0.618 -0.956 5.05 -0.96 12.59 -0.004 6.402 0.195 10.61 0.697 14.789 0.554 4.611 1.045 6.177 2.399 7.645 0.53 0.575 0.782 1.012 0.74 1.284 -0.058 0.382 -0.123 0.357 -0.876 -0.339 z"/><path d="m 186.36 159.89 c -1.185 -1.614 -1.574 -2.987 -2.117 -7.473 -0.717 -5.92 -0.876 -19.943 -0.275 -24.419 0.207 -1.547 0.257 -1.68 0.502 -1.349 0.165 0.222 0.23 0.595 0.166 0.945 -0.48 2.618 -0.543 4.84 -0.338 11.886 0.135 4.631 0.29 7.435 0.418 7.563 0.143 0.143 0.309 0.138 0.558 -0.017 0.331 -0.207 0.363 -0.106 0.486 1.527 0.073 0.961 0.26 2.054 0.416 2.428 0.173 0.413 1.627 2 3.702 4.04 l 3.418 3.359 l -0.964 0.479 c -0.53 0.263 -1.137 0.685 -1.349 0.936 -0.345 0.41 -0.466 0.439 -1.157 0.278 -1.225 -0.284 -1.74 -0.221 -2.279 0.279 l -0.504 0.467 l -0.682 -0.929 z"/></g><g style="stroke-width:0.918"><path d="m 185.16 145.47 c -0.194 -1.763 -0.42 -12.835 -0.295 -14.467 l 0.128 -1.677 l 0.126 1.426 c 0.13 1.473 0.443 11.305 0.447 14.05 0.003 1.68 -0.249 2.096 -0.406 0.671 z"/><path d="m 193.7 166.3 c -0.554 -0.186 -1.856 -0.751 -2.893 -1.255 -1.463 -0.71 -1.887 -0.991 -1.887 -1.249 0 -0.236 -0.113 -0.333 -0.388 -0.333 -0.213 0 -0.605 -0.226 -0.87 -0.503 -0.265 -0.277 -0.654 -0.503 -0.864 -0.503 -0.503 0 -1.493 -0.883 -2.161 -1.929 -1.121 -1.754 -1.833 -4.569 -2.355 -9.309 -0.418 -3.799 -0.512 -16.08 -0.17 -22.17 0.149 -2.647 0.374 -5.406 0.501 -6.132 0.142 -0.814 0.619 -2.249 1.242 -3.743 0.909 -2.175 1.543 -4.381 1.543 -5.366 0 -0.217 0.132 -0.393 0.335 -0.446 0.314 -0.082 0.335 -0.229 0.335 -2.324 0 -4.535 0.745 -5.871 4.221 -7.57 2.347 -1.147 5.309 -2.15 5.906 -2 0.584 0.147 1.634 1.102 2.04 1.856 0.178 0.331 0.431 0.576 0.571 0.554 0.661 -0.107 1.64 2.865 2.128 6.459 0.352 2.594 0.504 13.226 0.245 17.191 -0.243 3.717 -0.664 7.336 -1.123 9.648 -0.066 0.334 -0.024 0.461 0.153 0.461 0.537 0 0.699 0.989 0.684 4.193 -0.032 6.823 -1.246 19.03 -2.174 21.843 -0.306 0.928 -1.497 2.322 -2.315 2.71 -0.752 0.357 -1.473 0.336 -2.703 -0.078 z m 1.024 -13.05 c 0.626 -0.353 1.2 -1.031 1.302 -1.538 0.091 -0.452 0.771 -10.1 0.777 -11.02 0.001 -0.119 0.211 -0.21 0.486 -0.21 0.445 0 0.493 0.061 0.597 0.755 0.133 0.886 0.305 0.953 0.602 0.236 0.159 -0.385 0.165 -0.549 0.023 -0.637 -0.105 -0.065 -0.296 -0.417 -0.423 -0.781 -0.182 -0.521 -0.306 -0.652 -0.581 -0.612 -0.28 0.041 -0.383 -0.076 -0.517 -0.587 -0.213 -0.815 -0.615 -6.281 -0.935 -12.715 -0.138 -2.768 -0.288 -5.73 -0.334 -6.584 -0.08 -1.491 -0.07 -1.552 0.269 -1.552 0.32 0 0.342 -0.065 0.24 -0.713 -0.195 -1.232 -0.464 -1.929 -0.95 -2.462 -0.431 -0.472 -0.561 -0.516 -1.536 -0.516 -1.578 0 -4.345 0.61 -4.657 1.027 -0.138 0.185 -0.694 0.841 -1.234 1.458 -0.54 0.617 -1.079 1.348 -1.198 1.625 -0.415 0.971 -0.432 2.91 -0.085 9.645 0.193 3.736 0.384 9.133 0.424 11.993 0.083 5.894 0.163 7.277 0.506 8.768 0.442 1.925 1.261 3.06 2.739 3.793 1.598 0.793 3.674 1.083 4.484 0.627 z m -9.714 -24.636 c -0.042 -0.161 -0.077 -0.029 -0.077 0.294 0 0.323 0.035 0.455 0.077 0.294 0.042 -0.161 0.042 -0.426 0 -0.587 z m 13.476 -18.699 c -0.264 -5.289 -0.47 -6.406 -0.489 -2.645 -0.013 2.512 0.152 5.05 0.421 6.508 0.243 1.315 0.265 0.096 0.067 -3.862 z"/><path d="m 207.12 142.69 c -0.289 -0.437 -0.471 -1.03 -0.58 -1.889 -0.359 -2.835 -0.554 -11.644 -0.458 -20.705 0.128 -12.04 0.336 -14.642 1.267 -15.837 0.285 -0.365 0.447 -0.407 1.636 -0.419 1.051 -0.011 1.422 -0.085 1.823 -0.364 0.934 -0.65 1.015 -0.625 1.054 0.327 0.019 0.474 0.259 1.654 0.533 2.623 0.943 3.334 1.401 7.969 1.42 14.349 0.011 3.786 -0.018 4.247 -0.292 4.665 -0.59 0.9 -0.819 0.556 -1.316 -1.976 -0.499 -2.537 -0.716 -3.211 -1.079 -3.35 -0.13 -0.05 -0.238 -0.225 -0.24 -0.389 -0.002 -0.164 -0.149 -0.62 -0.327 -1.012 -0.294 -0.647 -0.38 -0.713 -0.927 -0.713 -0.529 0 -0.634 0.071 -0.844 0.574 -0.132 0.316 -0.318 1.267 -0.414 2.113 -0.163 1.441 -0.491 14.671 -0.499 20.17 -0.002 1.511 -0.068 2.474 -0.169 2.474 -0.091 0 -0.355 -0.287 -0.587 -0.637 z"/><path d="m 206.31 168.32 c -0.195 -2.849 -0.943 -37.417 -1.056 -48.811 -0.126 -12.77 0.067 -16.204 0.978 -17.362 0.327 -0.415 0.392 -0.43 1.489 -0.321 1.031 0.102 1.22 0.071 1.868 -0.303 0.794 -0.458 1.534 -0.4 1.937 0.151 0.284 0.388 0.265 0.894 -0.032 0.894 -0.133 0 -0.492 0.143 -0.797 0.318 -0.338 0.194 -1.076 0.365 -1.887 0.437 -1.165 0.103 -1.388 0.178 -1.772 0.588 -0.893 0.956 -1.12 2.558 -1.337 9.433 -0.313 9.934 -0.139 23.95 0.34 27.374 0.209 1.494 0.591 2.375 1.284 2.965 0.539 0.459 0.514 -0.509 0.216 8.366 -0.2 5.959 -0.788 16.293 -0.986 17.361 -0.105 0.562 -0.145 0.384 -0.246 -1.09 z"/><path d="m 206.36 171.55 c -0.709 -0.636 -0.8 -1.185 -1 -6.107 -0.192 -4.664 -0.507 -24.918 -0.47 -30.25 0.016 -2.331 0.061 -1.383 0.148 3.103 0.208 10.708 0.503 22.979 0.658 27.402 0.14 3.987 0.163 4.188 0.522 4.571 0.207 0.22 0.43 0.4 0.495 0.4 0.646 0 1.333 -14.08 1.836 -37.657 0.205 -9.613 0.388 -13.227 0.709 -14.01 0.214 -0.523 0.263 0.455 0.463 9.368 0.441 19.646 -0.164 37.15 -1.442 41.711 -0.293 1.045 -0.82 1.929 -1.151 1.929 -0.138 0 -0.483 -0.208 -0.766 -0.461 z"/><path d="m 217.2 177.77 c -0.638 -0.968 -0.925 -2.35 -1.18 -5.672 -0.144 -1.881 -0.395 -3.723 -0.664 -4.884 -0.533 -2.3 -0.798 -4.184 -1.445 -10.296 -1.464 -13.823 -1.889 -23.483 -1.031 -23.483 0.071 0 0.263 0.376 0.429 0.836 0.165 0.46 0.453 1.03 0.638 1.266 0.284 0.361 0.36 0.816 0.481 2.869 0.224 3.797 1.026 8.457 1.8 10.461 0.272 0.704 0.781 1.053 1.352 0.928 0.643 -0.141 0.805 -0.347 1.017 -1.293 0.409 -1.825 0.895 -9.535 1.104 -17.499 0.232 -8.855 1.505 -29.1 2.188 -34.805 0.68 -5.679 1.663 -9.06 2.864 -9.843 0.429 -0.281 0.45 -0.278 0.818 0.15 0.851 0.99 1.906 4.685 2.503 8.77 0.929 6.353 2.278 30.576 2.266 40.676 -0.007 5.606 -0.203 7.084 -0.898 6.761 -0.216 -0.1 -1.844 -3.346 -2.188 -4.363 -0.379 -1.119 -1.081 -4.402 -1.348 -6.303 -0.135 -0.959 -0.36 -4.483 -0.502 -7.831 -0.275 -6.508 -0.302 -6.84 -0.705 -8.643 -0.451 -2.02 -0.525 -1.882 -1.206 2.181 -0.646 3.851 -1.033 8.357 -1.362 15.851 -0.316 7.203 -0.505 10.09 -1.098 16.774 -0.323 3.644 -0.773 9.607 -1 13.251 -0.46 7.4 -0.65 9.584 -1.017 11.711 -0.253 1.463 -0.822 2.899 -1.195 3.01 -0.11 0.033 -0.39 -0.228 -0.622 -0.58 z m 0.608 -11.06 c 0.601 -1.029 0.826 -2.667 0.92 -6.697 0.104 -4.46 0.007 -5.04 -1.134 -6.734 -0.875 -1.303 -1.88 -2.395 -2.203 -2.395 -1 0 -1.016 3.873 -0.038 10.922 0.461 3.327 0.778 4.586 1.294 5.144 0.452 0.488 0.775 0.422 1.162 -0.24 z m 9.963 -38.36 c 0.421 -1.22 0.569 -4.07 0.572 -11.01 0.004 -9.763 -0.467 -17.689 -1.444 -24.3 -0.26 -1.755 -0.806 -3.804 -1.116 -4.185 -0.298 -0.365 -1.044 -0.24 -1.505 0.252 -0.85 0.908 -1.187 1.897 -1.558 4.571 -0.671 4.838 -1.875 22.504 -1.974 28.968 -0.036 2.338 -0.003 2.756 0.236 2.997 0.258 0.26 0.295 0.251 0.549 -0.135 0.432 -0.66 0.762 -2.793 1.017 -6.585 0.13 -1.937 0.349 -3.89 0.487 -4.339 0.275 -0.9 0.844 -1.615 1.284 -1.615 0.485 0 1.099 0.618 1.309 1.319 0.309 1.032 0.52 3.688 0.529 6.649 0.01 3.452 0.262 7.348 0.505 7.802 0.299 0.559 0.85 0.365 1.11 -0.39 z"/><path d="m 214.17 134.61 c -0.159 -0.478 -0.507 -1.118 -0.775 -1.423 -0.397 -0.453 -0.592 -1.01 -1.066 -3.046 -0.319 -1.371 -0.811 -4 -1.094 -5.847 -0.283 -1.845 -0.558 -3.506 -0.612 -3.69 -0.066 -0.227 -0.042 -0.281 0.073 -0.168 0.094 0.092 0.337 0.998 0.54 2.01 0.203 1.015 0.583 2.317 0.844 2.893 0.396 0.876 0.543 1.048 0.889 1.048 0.257 0 0.58 -0.196 0.849 -0.516 0.373 -0.444 0.437 -0.684 0.452 -1.719 0.01 -0.662 0.07 -1.656 0.133 -2.21 0.169 -1.481 0.438 4.324 0.429 9.266 -0.008 4.25 -0.146 4.957 -0.664 3.398 z"/><path d="m 216.98 166.44 c -0.455 -0.582 -0.85 -2.614 -1.386 -7.144 -0.365 -3.085 -0.482 -7.328 -0.209 -7.601 0.166 -0.166 1.457 1.343 2.194 2.566 0.536 0.89 0.747 2.934 0.62 6.01 -0.128 3.099 -0.351 4.982 -0.687 5.785 -0.275 0.658 -0.3 0.676 -0.532 0.379 z"/><path d="m 227.18 171.97 c -1.302 -2.02 -2.033 -13.09 -1.919 -29.09 0.052 -7.384 0.113 -8.696 0.388 -8.42 0.043 0.043 0.339 1.056 0.657 2.25 0.603 2.264 1.737 4.942 2.608 6.159 1.455 2.033 1.799 11.223 0.761 20.335 -0.583 5.118 -1.504 9.142 -2.092 9.142 -0.088 0 -0.269 -0.17 -0.403 -0.377 z m 0.511 -4.668 c 0.35 -1.049 0.57 -4.674 0.673 -11.05 0.142 -8.853 -0.214 -13.92 -0.989 -14.07 -0.453 -0.087 -0.614 0.5 -0.806 2.928 -0.229 2.9 -0.238 19.687 -0.011 21.247 0.245 1.689 0.746 2.105 1.134 0.94 z"/><path d="m 227.82 154.65 c 0 -1.107 0.028 -1.538 0.06 -0.958 0.033 0.58 0.033 1.486 -0.001 2.01 -0.033 0.527 -0.06 0.052 -0.06 -1.055 z"/><path d="m 226.31 111.42 c -0.634 -0.669 -1.598 -1.872 -2.142 -2.674 -1.28 -1.888 -1.416 -2.727 -0.64 -3.946 0.692 -1.086 0.855 -2.134 1.054 -6.737 0.176 -4.08 0.431 -5.981 0.932 -6.927 l 0.294 -0.557 l 0.22 0.923 c 0.582 2.435 1.261 9.175 1.556 15.432 0.209 4.435 0.214 5.703 0.025 5.703 -0.081 0 -0.666 -0.547 -1.3 -1.216 z"/><path d="m 227.03 127.8 c -0.06 -0.363 -0.188 -2.886 -0.283 -5.608 -0.202 -5.732 -0.383 -7.519 -0.866 -8.525 -0.661 -1.379 -1.978 -1.561 -2.773 -0.382 -0.577 0.856 -0.695 1.464 -1.061 5.469 -0.338 3.692 -0.635 5.873 -0.779 5.728 -0.182 -0.182 0.524 -13.557 1.13 -21.412 0.808 -10.476 1.245 -12.914 2.457 -13.708 0.354 -0.232 0.437 -0.237 0.57 -0.033 0.181 0.277 0.152 0.399 -0.411 1.748 -0.511 1.225 -0.717 2.716 -0.948 6.877 -0.23 4.14 -0.409 5.307 -1.012 6.602 -0.276 0.592 -0.497 1.35 -0.497 1.702 0 1.229 1.72 3.849 4.02 6.116 l 1.184 1.17 l -0.003 5.54 c -0.003 5.278 -0.151 8.124 -0.469 8.984 -0.132 0.357 -0.155 0.333 -0.254 -0.268 z"/><path d="m 227.6 151.55 c -0.202 -0.94 -0.222 -4.03 -0.031 -4.7 0.068 -0.238 0.171 0.843 0.238 2.499 0.065 1.605 0.086 2.95 0.047 2.989 -0.039 0.039 -0.153 -0.316 -0.255 -0.788 z"/><path d="m 227.03 164.52 c -0.164 -3.208 -0.106 -13.887 0.071 -12.99 0.08 0.406 0.298 0.881 0.485 1.055 0.428 0.399 0.429 0.577 0.004 0.688 -0.298 0.078 -0.335 0.229 -0.335 1.367 0 0.982 0.058 1.301 0.252 1.376 0.205 0.079 0.251 0.476 0.248 2.133 -0.004 2.765 -0.303 7.969 -0.475 8.276 -0.084 0.149 -0.184 -0.615 -0.249 -1.905 z"/></g><g style="stroke-width:0.746"><path d="m 170.96 139.13 c 0 -0.358 1.259 -1.348 2.419 -1.902 1.113 -0.532 1.317 -0.686 1.731 -1.313 0.867 -1.311 1.38 -3.109 1.699 -5.955 0.126 -1.126 0.128 -1.112 0.066 0.491 -0.112 2.893 -0.61 4.736 -1.578 5.835 -0.411 0.467 -0.897 0.796 -1.854 1.255 -0.713 0.342 -1.564 0.869 -1.89 1.17 -0.326 0.301 -0.593 0.49 -0.593 0.42 z"/><path d="m 166.69 132.89 c -0.112 -0.291 0.756 -1.213 1.464 -1.556 0.319 -0.154 0.79 -0.277 1.047 -0.272 l 0.468 0.008 l -0.728 0.354 c -0.4 0.195 -1.053 0.651 -1.45 1.014 -0.556 0.508 -0.74 0.612 -0.801 0.452 z"/><path d="m 170.21 151.52 c -0.651 -1.633 -3.064 -8.75 -3.056 -9.01 0.007 -0.242 0.097 -0.098 0.29 0.466 0.153 0.449 0.915 2.59 1.692 4.757 0.777 2.167 1.413 3.96 1.413 3.984 0 0.152 -0.26 0.004 -0.338 -0.194 z"/><path d="m 172.8 146.82 c -0.235 -0.716 -0.759 -2.876 -0.724 -2.981 0.024 -0.072 0.264 0.607 0.533 1.51 0.269 0.903 0.435 1.641 0.368 1.641 -0.066 0 -0.146 -0.077 -0.177 -0.17 z"/><path d="m 137.04 139.58 c 0 -1.573 -0.259 -4.357 -0.47 -5.059 -0.106 -0.351 -0.281 -0.74 -0.39 -0.864 -0.121 -0.139 -0.16 -0.329 -0.1 -0.493 0.091 -0.249 0.114 -0.242 0.343 0.107 0.442 0.674 0.624 1.86 0.71 4.621 0.046 1.48 0.044 2.69 -0.005 2.69 -0.049 0 -0.089 -0.451 -0.089 -1 z"/><path d="m 226.97 145.56 c 0.003 -0.225 0.033 -0.3 0.068 -0.168 0.035 0.133 0.032 0.316 -0.005 0.409 -0.037 0.092 -0.066 -0.016 -0.063 -0.241 z"/><path d="m 160.13 171.51 c 0.14 -0.154 0.178 -0.272 0.089 -0.272 -0.087 0 -0.157 -0.152 -0.157 -0.338 0 -0.186 -0.171 -0.529 -0.379 -0.763 -0.297 -0.333 -0.524 -0.441 -1.053 -0.5 -0.507 -0.057 -0.607 -0.102 -0.404 -0.181 0.53 -0.207 0.89 -0.118 1.407 0.35 0.289 0.261 0.565 0.435 0.613 0.386 0.049 -0.049 0.091 0.06 0.094 0.241 0.003 0.181 0.088 0.559 0.188 0.84 l 0.182 0.511 h -0.414 c -0.405 0 -0.409 -0.006 -0.167 -0.272 z"/><path d="m 155.18 171.3 c -0.271 -0.594 -0.206 -2.246 0.108 -2.761 0.391 -0.641 0.712 -0.56 1.344 0.34 0.171 0.243 0.461 0.48 0.646 0.526 0.184 0.046 0.392 0.191 0.463 0.322 0.078 0.145 0.355 0.269 0.711 0.316 0.397 0.053 0.682 0.192 0.891 0.435 0.902 1.048 -0.239 0.829 -1.639 -0.316 -0.955 -0.78 -1.028 -0.815 -1.304 -0.621 -0.334 0.234 -0.675 0.837 -0.901 1.594 l -0.155 0.52 l -0.162 -0.357 z"/><path d="m 130.64 171.93 c 0 -0.178 0.437 -0.532 0.852 -0.689 0.503 -0.191 0.513 0.131 0.015 0.522 -0.361 0.284 -0.867 0.381 -0.867 0.167 z"/><path d="m 49.966 159.59 c -0.143 -2.04 -0.095 -14.674 0.054 -14.1 0.167 0.647 0.308 13.617 0.16 14.642 l -0.118 0.817 l -0.096 -1.362 z"/><path d="m 30.05 182.83 c -0.421 -0.08 -0.577 -0.263 -0.676 -0.793 -0.116 -0.62 0.042 -1.661 0.212 -1.393 0.066 0.103 0.12 0.416 0.121 0.695 0.002 0.436 0.055 0.522 0.377 0.613 0.326 0.092 0.366 0.16 0.306 0.518 -0.053 0.323 -0.127 0.401 -0.341 0.36 z"/><path d="m 82.2 126.31 c 0.101 -1.206 0.254 -1.824 0.571 -2.309 l 0.221 -0.338 l 0.391 0.457 c 0.215 0.251 0.393 0.505 0.396 0.564 0.003 0.059 -0.233 0.335 -0.526 0.613 -0.38 0.362 -0.596 0.728 -0.759 1.289 -0.125 0.431 -0.263 0.783 -0.306 0.783 -0.043 0 -0.038 -0.476 0.01 -1.059 z"/><path d="m 30.941 113.97 c -0.247 -0.65 -0.302 -1 -0.17 -1.085 0.071 -0.044 0.193 0.24 0.271 0.632 0.158 0.795 0.11 1.01 -0.101 0.453 z"/><path d="m 50.29 127.29 c 0.007 -0.159 0.039 -0.191 0.082 -0.082 0.039 0.098 0.035 0.216 -0.011 0.261 -0.045 0.045 -0.077 -0.035 -0.072 -0.179 z"/><path d="m 28.651 185.58 c -0.711 -0.351 -1.087 -0.902 -1.212 -1.781 -0.062 -0.432 -0.112 -7.435 -0.112 -15.563 v -14.779 l 0.412 -0.04 l 0.412 -0.04 l -0.103 -1.186 c -0.159 -1.832 -0.142 -22.324 0.025 -29.789 0.158 -7.08 0.309 -9.712 0.58 -10.147 0.119 -0.19 0.125 -0.309 0.02 -0.413 -0.358 -0.358 0.271 -1.399 0.949 -1.57 0.499 -0.125 1.076 0.207 1.356 0.779 0.22 0.451 0.225 0.547 0.048 0.972 -0.168 0.403 -0.17 0.499 -0.007 0.661 0.172 0.172 0.509 1.557 0.448 1.837 -0.014 0.064 0.077 0.345 0.201 0.625 0.337 0.757 0.778 3.488 0.864 5.347 0.057 1.231 0.141 1.763 0.339 2.156 0.437 0.867 0.775 2.455 0.874 4.108 l 0.094 1.565 l 0.497 -0.079 l 0.497 -0.079 l 1.06 4.746 c 1.495 6.693 3.344 14.706 3.478 15.07 0.107 0.289 0.117 0.284 0.196 -0.104 0.046 -0.225 0.363 -2.401 0.705 -4.835 1.11 -7.906 1.597 -10.606 2.571 -14.234 0.785 -2.926 1.238 -4.02 1.665 -4.02 0.153 0 0.189 -0.435 0.189 -2.323 0 -2.597 0.137 -3.382 0.676 -3.892 0.341 -0.322 0.358 -0.389 0.227 -0.88 -0.106 -0.398 -0.097 -0.678 0.039 -1.111 0.182 -0.583 0.21 -0.979 0.135 -1.895 -0.053 -0.65 0.322 -1.19 1.953 -2.809 1.382 -1.373 1.641 -1.58 2.336 -1.871 0.449 -0.187 0.485 -0.18 0.869 0.179 0.772 0.721 0.846 1.312 0.987 7.902 0.07 3.273 0.167 14.869 0.215 25.77 0.091 20.489 0.029 24.21 -0.423 25.289 -0.189 0.452 -0.187 0.519 0.018 0.746 0.447 0.494 -0.033 2.098 -0.856 2.859 -0.915 0.847 -2.156 0.76 -2.488 -0.173 -0.298 -0.836 -0.431 -10.252 -0.39 -27.579 l 0.04 -16.906 l -0.289 0.798 c -0.159 0.439 -0.36 0.884 -0.447 0.989 -0.122 0.147 -0.105 0.303 0.075 0.681 0.347 0.727 0.275 1.187 -2.198 14.181 -2.226 11.694 -2.474 13.653 -3.068 24.25 -0.505 8.991 -0.91 10.912 -2.476 11.726 -0.605 0.315 -1.442 -0.194 -1.824 -1.109 -0.66 -1.581 -2.967 -13.03 -4.209 -20.901 -0.266 -1.686 -0.521 -3.245 -0.566 -3.465 l -0.082 -0.401 l -0.198 0.377 c -0.133 0.253 -0.268 0.35 -0.411 0.295 -0.186 -0.071 -0.202 0.034 -0.121 0.817 0.135 1.318 0.094 19.909 -0.045 20.623 -0.067 0.342 -0.244 0.71 -0.405 0.84 -0.239 0.194 -0.264 0.291 -0.149 0.593 0.186 0.489 0.173 1.758 -0.024 2.417 -0.089 0.297 -0.326 0.715 -0.527 0.93 -0.443 0.474 -0.632 1.379 -0.338 1.623 0.407 0.338 -0.223 1.911 -0.906 2.265 -0.466 0.241 -0.618 0.237 -1.17 -0.035 z m 10.867 -9.479 c 0.001 -0.169 0.041 -0.736 0.09 -1.26 0.08 -0.848 0.066 -0.934 -0.12 -0.781 -0.116 0.095 -0.319 0.131 -0.455 0.078 -0.178 -0.068 -0.225 -0.041 -0.171 0.1 0.041 0.107 0.153 0.638 0.25 1.181 0.167 0.94 0.404 1.336 0.406 0.681 z m 11.03 -6.36 c 0 -0.071 -0.061 -0.166 -0.136 -0.212 -0.075 -0.046 -0.136 0.011 -0.136 0.128 0 0.117 0.061 0.212 0.136 0.212 0.075 0 0.136 -0.058 0.136 -0.128 z m -0.386 -8.757 c -0.121 -0.121 -0.157 -0.047 -0.15 0.311 0.009 0.441 0.018 0.451 0.159 0.159 0.111 -0.23 0.108 -0.352 -0.009 -0.47 z m -0.031 -16.08 c -0.004 -0.318 -0.059 -0.824 -0.121 -1.124 -0.097 -0.468 -0.115 -0.386 -0.128 0.579 -0.009 0.669 0.039 1.124 0.121 1.124 0.075 0 0.133 -0.261 0.128 -0.579 z m 0.033 -17.08 c -0.23 -0.203 -0.163 -1.218 0.077 -1.17 0.123 0.025 0.164 -0.2 0.148 -0.817 -0.012 -0.47 -0.046 -0.653 -0.077 -0.409 -0.041 0.328 -0.123 0.443 -0.319 0.443 -0.308 0 -0.302 -0.084 -0.127 1.839 0.187 2.055 0.313 2.438 0.405 1.226 0.052 -0.692 0.023 -0.997 -0.107 -1.111 z m -1.304 -2.441 c -0.045 -0.118 -0.087 -0.44 -0.092 -0.715 -0.008 -0.403 -0.032 -0.447 -0.127 -0.227 -0.209 0.485 -0.161 1.158 0.083 1.158 0.144 0 0.19 -0.074 0.136 -0.215 z m 1.495 -3.292 c -0.148 -0.148 -0.205 0.046 -0.111 0.381 l 0.094 0.335 l 0.048 -0.318 c 0.026 -0.175 0.012 -0.354 -0.031 -0.397 z m -1.521 -0.068 c 0.058 -0.323 0.04 -0.511 -0.05 -0.511 -0.078 0 -0.142 0.255 -0.142 0.568 0 0.669 0.065 0.65 0.192 -0.057 z m -18.627 -1.362 c -0.038 -0.094 -0.069 -0.017 -0.069 0.17 0 0.187 0.031 0.264 0.069 0.17 0.038 -0.094 0.038 -0.247 0 -0.341 z m 19.885 -1.396 c 0.011 0 -0.055 -0.644 -0.147 -1.43 -0.131 -1.126 -0.185 -1.329 -0.251 -0.953 -0.346 1.953 -0.467 2.808 -0.409 2.905 0.037 0.062 0.229 -0.03 0.427 -0.204 0.198 -0.174 0.369 -0.317 0.38 -0.317 z m -19.508 -5.439 c -0.05 -0.2 -0.117 -0.337 -0.149 -0.305 -0.032 0.032 -0.017 0.222 0.033 0.421 0.05 0.2 0.117 0.337 0.149 0.305 0.032 -0.032 0.017 -0.222 -0.033 -0.421 z"/></g></g></g></svg>