<svg xmlns="http://www.w3.org/2000/svg" xmlns:xlink="http://www.w3.org/1999/xlink" viewBox="0 0 256 256"><defs><path id="0" d="m 245.46 129.52 l -97.89 -96.9 c -5.556 -5.502 -16.222 -11.873 -23.7 -14.16 l -39.518 -12.08 c -7.479 -2.286 -18.1 0.391 -23.599 5.948 l -13.441 13.578 c -5.5 5.559 -14.502 14.653 -20 20.21 l -13.44 13.579 c -5.5 5.558 -8.07 16.206 -5.706 23.658 l 12.483 39.39 c 2.363 7.456 8.843 18.06 14.399 23.556 l 97.89 96.9 c 5.558 5.502 14.605 5.455 20.1 -0.101 l 36.26 -36.63 c 5.504 -5.559 14.503 -14.651 20 -20.21 l 36.26 -36.629 c 5.502 -5.56 5.455 -14.606 -0.101 -20.11 z m -178.09 -50.74 c -7.198 0 -13.03 -5.835 -13.03 -13.03 0 -7.197 5.835 -13.03 13.03 -13.03 7.197 0 13.03 5.835 13.03 13.03 -0.001 7.198 -5.836 13.03 -13.03 13.03 z"/><use id="1" xlink:href="#0"/><clipPath style="clip-path:url(#2)"><use xlink:href="#0"/></clipPath><clipPath style="clip-path:url(#2)"><use xlink:href="#0"/></clipPath><clipPath id="2"><use xlink:href="#1"/></clipPath></defs><path d="m 2.256 127.73 c -19.233 -169.75 256.06 -167.39 252.8 3.02 c 9.07 158.49 -267.8 172.79 -252.8 -3.02 z" style="fill:#fff;color:#000"/><path d="m 27.477489,239.43182 c -0.562797,-2.7125 -1.386695,-5.51744 -1.830896,-6.23321 -1.428692,-2.30215 -5.404388,-0.36536 -8.472669,4.12751 -1.753038,2.56699 -3.594228,4.21934 -4.701529,4.21934 -1.70017,0 -1.820071,-0.71534 -1.820071,-10.85848 0,-6.15804 0.361588,-10.63332 0.835301,-10.33836 1.765757,1.09944 4.937687,-3.02231 7.07788,-9.19734 1.227538,-3.54179 2.839294,-7.13498 3.581678,-7.98485 0.742384,-0.84987 2.663382,-4.08158 4.2689,-7.18158 4.684624,-9.04532 7.587799,-13.83164 14.773403,-24.35623 3.718075,-5.44577 6.760139,-10.11592 6.760139,-10.37809 0,-0.65017 5.823749,-8.30151 11.100366,-14.58386 2.386747,-2.84167 6.201999,-7.70303 8.478337,-10.80303 9.293368,-12.65606 30.433525,-35.987058 52.218592,-57.630216 25.11751,-24.953882 54.22148,-50.869788 57.12759,-50.869788 0.539,0 3.11608,-1.621084 5.72687,-3.602406 2.6108,-1.981323 5.96468,-3.907813 7.45309,-4.281082 1.4884,-0.373268 3.83717,-1.89843 5.21948,-3.389239 2.58366,-2.786465 6.48203,-4.336456 8.72533,-3.469198 0.69852,0.270048 1.74937,2.408791 2.33521,4.752758 0.58585,2.343966 1.79505,4.673259 2.68711,5.176211 0.89208,0.502961 1.29167,1.247214 0.88799,1.653906 -0.40368,0.406692 -1.54838,0.227042 -2.54377,-0.399233 -0.99539,-0.626275 -3.26449,-1.138686 -5.04245,-1.138686 -2.45535,0 -3.63544,0.599295 -4.90792,2.492428 -0.9214,1.370829 -3.03896,3.949465 -4.70569,5.730303 -1.66672,1.780827 -3.0304,3.792117 -3.0304,4.469523 0,0.677407 1.36368,2.38406 3.0304,3.792568 2.72272,2.300914 3.07775,3.188181 3.49662,8.738684 0.45057,5.970412 0.56011,6.197079 3.26352,6.753397 4.88479,1.005208 6.87892,2.620515 7.52617,6.096451 0.33725,1.811123 1.61409,4.086147 2.83742,5.055602 2.59538,2.056765 2.72854,3.334726 0.8256,7.923121 -1.7948,4.327619 -1.8492,4.123188 1.28155,4.815953 3.44434,0.762149 7.02382,4.567719 6.43392,6.84031 -0.41382,1.594292 -0.0576,1.673699 4.3086,0.960521 8.64257,-1.411684 8.46181,-1.443379 8.79967,1.54271 0.17063,1.508037 -0.17107,4.473742 -0.75933,6.590459 -0.74819,2.692228 -0.78332,4.607032 -0.11695,6.372823 0.80735,2.13934 0.37908,3.75724 -2.8087,10.61057 -5.53922,11.90863 -7.5928,11.89828 -9.83207,-0.0496 -0.90299,-4.81802 -1.04951,-7.58217 -0.43475,-8.20152 0.61477,-0.61937 0.28023,-1.81596 -0.99261,-3.550416 -1.88038,-2.562338 -1.9039,-6.166943 -0.0716,-10.977457 0.38108,-1.000492 0.20438,-1.26883 -0.53314,-0.809617 -1.73571,1.080745 -11.09887,-2.069344 -12.60959,-4.242303 -1.11723,-1.606983 -1.91873,-1.836139 -4.47253,-1.278778 -1.71126,0.373484 -4.29273,1.520437 -5.7366,2.548792 l -2.62522,1.869732 1.9259,1.807629 c 1.05924,0.994198 1.92589,2.175702 1.92589,2.625559 0,0.449866 3.04206,1.305166 6.76013,1.900685 8.19357,1.312352 11.90353,2.655272 11.34499,4.106608 -0.84707,2.201103 -6.60457,5.175516 -12.04431,6.222276 -6.81782,1.31194 -10.48526,2.65153 -13.41291,4.89929 -1.22304,0.93903 -3.41275,1.70731 -4.866,1.70731 -1.86042,0 -2.49653,0.38268 -2.14971,1.29323 0.58367,1.53238 5.71216,2.41008 19.01104,3.25363 9.48134,0.60139 9.79716,0.69328 10.63149,3.09322 1.33229,3.83228 0.32912,4.9555 -6.07393,6.8008 -5.41168,1.55959 -10.47676,3.22666 -20.8562,6.86439 -2.05135,0.71895 -4.26372,1.49388 -4.91639,1.72205 -0.89696,0.3136 -0.93427,0.82142 -0.15284,2.08015 0.86738,1.39716 2.40944,1.66526 9.57855,1.66526 10.64673,0 14.60555,1.83724 14.60555,6.7783 0,1.69693 0.41959,3.08533 0.93243,3.08533 3.55165,0 -3.67918,9.2091 -13.91799,17.72576 -3.19855,2.66056 -4.03476,2.97318 -5.24534,1.96099 -2.08611,-1.74424 -1.32467,-5.06316 1.24589,-5.43053 1.26308,-0.18052 3.0513,-1.77497 4.39407,-3.91794 1.24532,-1.98745 3.11916,-3.88691 4.16407,-4.22103 1.04491,-0.33412 1.89984,-1.06286 1.89984,-1.61942 0,-1.45438 -12.15396,-0.17088 -13.7666,1.45381 -0.74611,0.75168 -1.36637,3.65447 -1.4845,6.94746 -0.16384,4.5674 -0.70891,6.32466 -2.83131,9.12805 -1.44561,1.90945 -3.1085,3.64438 -3.69528,3.85542 -2.31019,0.83082 -15.08766,2.0444 -15.63349,1.48484 -0.31906,-0.32708 -0.85364,-2.42355 -1.18795,-4.65883 -0.55187,-3.68996 -0.34823,-4.30845 2.21186,-6.7178 3.63292,-3.41898 3.56496,-5.31852 -0.24768,-6.92344 -4.42973,-1.86465 -6.25694,-4.07974 -6.25694,-7.58514 0,-1.69433 -0.47656,-4.45786 -1.05902,-6.14118 -0.96169,-2.7793 -1.32588,-3.0087 -3.96284,-2.49612 -7.21757,1.40299 -11.91728,3.19171 -14.30529,5.44465 -1.42176,1.34135 -3.51815,2.72265 -4.65866,3.06956 -1.14051,0.34692 -2.91674,1.71058 -3.94718,3.03035 -1.03044,1.31977 -3.66385,3.55582 -5.85203,4.96899 -2.18817,1.41318 -4.77781,3.47883 -5.75477,4.59034 -1.14246,1.29983 -2.87607,2.02094 -4.8585,2.02094 -1.71554,0 -3.61536,0.67125 -4.28454,1.51382 -4.428056,5.57537 -6.297042,6.94072 -9.500982,6.94072 -2.523444,0 -3.68546,0.57155 -4.872353,2.3965 -0.857241,1.31807 -2.746517,3.01538 -4.198399,3.77178 -1.451881,0.7564 -5.270816,3.81125 -8.486533,6.78856 -3.215708,2.9773 -7.440839,6.60145 -9.389166,8.05365 -2.854353,2.12751 -3.330238,2.89793 -2.450022,3.96645 1.669828,2.02703 4.960904,1.58373 7.362477,-0.99171 1.18873,-1.2748 4.237327,-3.01249 6.774662,-3.86155 2.537326,-0.84905 6.038852,-2.80472 7.781168,-4.34591 2.042586,-1.8068 4.579269,-2.98622 7.141267,-3.3203 2.715124,-0.35405 5.081562,-1.51614 7.472721,-3.66962 3.75097,-3.37813 6.66653,-3.90437 11.74669,-2.12019 5.98726,2.10275 1.46142,7.42325 -6.31453,7.42325 -2.0649,0 -3.85211,1.09169 -6.920426,4.22727 -3.361558,3.43526 -4.75741,4.22728 -7.450155,4.22728 -2.658076,0 -3.62568,0.5323 -4.891317,2.69085 -1.826262,3.11471 -5.851349,5.76369 -8.757816,5.76369 -1.109193,0 -3.3563,1.37387 -4.993558,3.05303 -1.637258,1.67917 -4.336445,3.77314 -5.998198,4.65328 -5.284057,2.79867 -3.84412,3.90068 4.143945,3.17141 6.029751,-0.55048 7.644248,-1.07781 10.187495,-3.32748 3.399239,-3.00686 7.495032,-4.22081 11.35727,-3.36619 2.066412,0.45725 3.658288,-0.18631 7.73411,-3.12674 3.50805,-2.53081 6.59438,-3.91902 9.75278,-4.38673 6.03224,-0.89327 8.80055,-1.97673 11.4548,-4.48315 1.58033,-1.49232 3.73941,-2.17902 7.92567,-2.52076 l 5.75366,-0.4697 0.2833,-4.9743 c 0.2439,-4.28242 0.60035,-5.09573 2.56279,-5.84742 2.81035,-1.07647 8.64199,0.6988 10.11699,3.07983 1.7881,2.88645 -1.06401,6.41524 -6.43605,7.96307 -2.56419,0.73882 -5.94092,2.57652 -7.50385,4.08378 -1.70307,1.64243 -3.84916,2.7405 -5.35607,2.7405 -1.72054,0 -3.83232,1.30897 -6.68869,4.14593 -3.96738,3.94042 -11.05623,7.9368 -16.53218,9.32011 -1.38228,0.34919 -4.44986,2.32354 -6.816856,4.38745 -2.396678,2.0898 -5.277605,3.75257 -6.501732,3.75257 -3.191987,0 -5.147922,0.94671 -5.147922,2.49168 0,0.74321 -1.029919,2.38889 -2.288702,3.65707 -3.402185,3.4276 -8.6435,3.18966 -12.203555,-0.55399 -3.037016,-3.19362 -6.540258,-3.45151 -8.258293,-0.60792 -0.819533,1.35643 -0.661579,1.97194 0.783495,3.05303 0.995484,0.74474 2.791927,1.35407 3.992098,1.35407 3.208407,0 3.823075,2.73692 1.113557,4.95829 -1.984887,1.62728 -3.162326,1.77774 -9.87914,1.26247 -8.562518,-0.65687 -9.570804,-0.17688 -11.619693,5.53152 l -1.176562,3.27802 -10.003344,0 -10.003331,0 -1.023261,-4.93182 z m 3.688349,-14.79545 c 0,-1.03334 -0.419595,-1.87879 -0.932433,-1.87879 -0.512838,0 -0.932432,0.17679 -0.932432,0.39286 0,0.21608 -0.254694,1.06154 -0.565977,1.87879 -0.371398,0.97508 -0.05082,1.48593 0.932432,1.48593 0.876785,0 1.49841,-0.77943 1.49841,-1.87879 z m 28.392571,-5.74194 c 1.492908,-1.40528 -0.875237,-2.86896 -3.548241,-2.19308 -2.356574,0.59588 -3.183623,2.20189 -1.834076,3.56151 0.720807,0.72619 4.058617,-0.12245 5.382317,-1.36843 z m -3.198197,-35.1444 c 0.648712,-0.78749 0.927985,-1.68516 0.620609,-1.99484 -0.954867,-0.96199 -3.436601,0.47368 -3.436601,1.98806 0,1.83991 1.303316,1.84305 2.815992,0.007 z m 7.207656,-4.66303 c 1.153885,-0.33415 2.097973,-0.97192 2.097973,-1.41726 0,-0.44535 2.522044,-3.47992 5.604544,-6.74349 3.0825,-3.26358 5.831526,-6.65428 6.108952,-7.53488 0.277418,-0.88062 1.905762,-2.47367 3.618537,-3.54012 2.167803,-1.34978 3.289864,-2.88278 3.692452,-5.04474 0.357699,-1.92095 1.641295,-3.89749 3.364757,-5.18121 1.532536,-1.14151 2.786434,-2.69244 2.786434,-3.4465 0,-0.75406 1.993074,-3.70194 4.429056,-6.55083 9.423267,-11.02055 10.388667,-12.44521 12.293337,-18.14135 2.17532,-6.50552 1.55678,-9.57753 -1.92839,-9.57753 -2.65005,0 -11.615525,10.08213 -17.125084,19.25803 -1.025676,1.70821 -2.848852,4.3092 -4.051503,5.77997 -5.972239,7.3037 -12.266065,16.60536 -12.266065,18.12803 0,0.93984 -1.032519,2.39038 -2.294473,3.22343 -1.333192,0.88005 -2.715514,3.08993 -3.29945,5.2747 -0.552746,2.06805 -1.405782,3.76009 -1.895635,3.76009 -0.489853,0 -2.152054,1.75433 -3.693785,3.89852 -3.200965,4.45179 -3.888038,9.68441 -1.171386,8.92113 0.897466,-0.25215 2.575844,-0.73185 3.729729,-1.06599 z m 38.906602,-21.10386 c 0.9502,-1.85119 2.53324,-3.08298 4.75718,-3.70163 3.18887,-0.88706 7.23681,-3.94234 15.36395,-11.5963 2.05087,-1.93147 4.9432,-4.14441 6.4274,-4.91764 1.48419,-0.77324 3.53006,-2.5824 4.5464,-4.02036 1.1897,-1.68325 4.53311,-3.75806 9.38693,-5.82523 7.07241,-3.01203 7.63521,-3.46437 9.0921,-7.30765 0.85415,-2.25328 2.3513,-4.5273 3.327,-5.05338 2.45704,-1.32478 3.45012,-4.55231 2.36534,-7.68736 -1.13023,-3.26638 -0.52875,-3.97666 2.01317,-2.37735 2.43357,1.53114 5.07283,0.14766 5.52064,-2.89388 0.40322,-2.738629 -1.3941,-4.784178 -4.20361,-4.784178 -1.27719,0 -2.01962,-0.411305 -1.69567,-0.939394 0.31696,-0.516667 -0.28767,-0.939394 -1.34361,-0.939394 -1.05595,0 -1.9199,0.422727 -1.9199,0.939394 0,0.516666 0.38011,0.939394 0.8447,0.939394 0.46459,0 0.35969,1.05352 -0.23311,2.341158 -0.81902,1.77904 -1.79499,2.34291 -4.0648,2.34848 -2.24798,0.006 -3.99487,0.99509 -7.06073,3.99976 -8.33968,8.17321 -12.52421,11.76348 -14.41537,12.36819 -1.06942,0.34196 -2.63186,1.67878 -3.47211,2.97071 -0.84023,1.29194 -2.91371,3.01487 -4.60771,3.82871 -1.69401,0.81384 -3.79517,2.69941 -4.66924,4.19015 -0.87408,1.49073 -1.95586,2.71042 -2.40399,2.71042 -1.2133,0 -21.908695,20.86464 -22.665059,22.85041 -1.113025,2.92215 0.911138,5.33141 4.479249,5.33141 2.60876,0 3.47233,-0.51738 4.63085,-2.77444 z m 11.67786,-4.85159 c 0,-0.51667 -0.41959,-0.67814 -0.93243,-0.35882 -0.51284,0.31932 -0.93244,1.0033 -0.93244,1.51997 0,0.51667 0.4196,0.67814 0.93244,0.35882 0.51284,-0.31932 0.93243,-1.0033 0.93243,-1.51997 z m 51.28378,-8.34367 c 0,-0.51666 -0.41959,-0.93939 -0.93243,-0.93939 -0.51284,0 -0.93243,0.42273 -0.93243,0.93939 0,0.51667 0.41959,0.9394 0.93243,0.9394 0.51284,0 0.93243,-0.42273 0.93243,-0.9394 z m -7.04642,-14.97111 C 160.47279,127.4978 159.55729,126 156.05676,126 c -2.27825,0 -2.74227,0.38414 -2.74227,2.27021 0,1.97986 0.91989,3.0292 2.88589,3.29199 0.30515,0.0408 1.29034,-0.74465 2.18931,-1.74543 z m 8.91129,-9.92283 c 0.96599,-1.17264 0.84784,-1.40909 -0.70409,-1.40909 -1.02568,0 -2.38721,0.63409 -3.02564,1.40909 -0.96599,1.17265 -0.84784,1.40909 0.70409,1.40909 1.02567,0 2.38721,-0.63409 3.02564,-1.40909 z m -38.74202,-5.67017 c 0.94453,-2.27745 2.41411,-3.758 4.67468,-4.70958 2.16676,-0.91209 3.29707,-2.01215 3.29707,-3.20885 0,-1.00153 1.41654,-3.21518 3.14786,-4.91921 3.50222,-3.447011 7.10006,-8.991624 7.10541,-10.950091 0.006,-2.109297 -4.64529,-0.363818 -8.58462,3.221698 -1.94639,1.771575 -4.36227,3.221051 -5.36862,3.221051 -1.00635,0 -3.20802,1.19799 -4.89258,2.662214 -1.68457,1.464218 -4.45552,3.472168 -6.15767,4.462118 -1.70214,0.98995 -3.94605,3.18488 -4.98646,4.87762 -1.75387,2.85355 -1.7843,3.24276 -0.41782,5.34385 1.01884,1.56655 2.55823,2.3802 4.98646,2.63559 1.93195,0.2032 4.03149,0.44051 4.66566,0.52737 0.63417,0.0868 1.77295,-1.33686 2.53063,-3.16378 z m 52.85832,-17.313729 2.20127,-1.847534 -2.56419,-0.03128 c -1.41031,-0.01719 -2.56419,0.14554 -2.56419,0.36161 0,0.21608 -0.25469,1.061534 -0.56598,1.878788 -0.77434,2.032962 0.83904,1.865937 3.49309,-0.36161 z M 136.87935,82.45677 c 0.94766,-2.285 2.06588,-3.302373 4.07459,-3.707111 1.9453,-0.391962 3.12064,-1.414361 3.95283,-3.438426 0.70888,-1.724154 2.09763,-3.111517 3.4593,-3.455833 1.25123,-0.316379 3.28292,-2.183847 4.51485,-4.149923 1.23193,-1.966077 3.4018,-4.135739 4.82194,-4.821477 2.91421,-1.407165 4.08122,-4.520364 1.6945,-4.520364 -4.13897,0 -10.88643,5.501908 -22.05596,17.984537 -6.39831,7.150498 -7.20993,9.257887 -3.56547,9.257887 1.15766,0 2.26216,-1.120809 3.10342,-3.14929 z m 40.47091,-5.828216 c 2.12327,-1.498305 2.8348,-4.174009 1.10996,-4.174009 -2.3494,0 -7.42951,2.85773 -7.42951,4.179336 0,1.906114 3.61513,1.903061 6.31955,-0.0056 z M 196.606,68.160172 c 1.86471,-1.878629 1.96431,-1.442196 -1.51435,-6.63509 l -2.9796,-4.44789 -0.69629,2.622948 c -0.38295,1.442618 -1.38335,3.387812 -2.2231,4.322649 -3.53706,3.937592 3.63731,7.941609 7.41334,4.137383 z m -24.21039,-9.75897 c 1.23508,-1.374944 1.49961,-2.669945 1.04455,-5.113713 -0.76794,-4.124061 -3.28,-5.077677 -7.2318,-2.745313 -4.34834,2.566406 -5.14487,4.344556 -3.25077,7.256894 1.991,3.061344 6.94504,3.377412 9.43802,0.602132 z M 121.8407,177.52153 c -2.69731,-2.71745 -0.68338,-7.47183 3.73945,-8.82788 3.66712,-1.12435 11.64322,-7.37112 15.41638,-12.07391 2.23207,-2.78201 10.4531,-1.33047 10.4531,1.84565 0,1.83476 -3.79395,3.23158 -8.77737,3.23158 -3.71458,0 -4.10348,0.24629 -5.56244,3.52273 -0.86274,1.9375 -2.70966,5.63636 -4.10428,8.2197 -2.32367,4.30432 -2.84778,4.72017 -6.26957,4.97456 -2.09683,0.15589 -4.2431,-0.23539 -4.89527,-0.89243 z m 82.49858,-34.62317 c -2.92239,-3.4386 -2.05502,-5.52112 5.80908,-13.94749 9.42487,-10.09873 10.2816,-0.74385 1.08473,11.84459 -3.2609,4.46345 -4.55271,4.8575 -6.89381,2.1029 z m 17.51108,-69.105554 c -6.18016,-3.24648 -7.87932,-6.782255 -5.73918,-11.942572 1.10471,-2.663698 1.97844,-3.265615 6.14774,-4.235182 2.673,-0.621616 5.59404,-1.130204 6.4912,-1.130204 0.89715,0 2.58296,-1.02068 3.74625,-2.268176 2.01176,-2.157421 2.03108,-2.311942 0.39564,-3.16448 -0.94568,-0.492966 -4.5969,-1.118179 -8.11383,-1.389354 -6.70369,-0.516892 -9.48443,-2.061463 -8.47631,-4.708196 0.32062,-0.841744 2.04088,-2.015197 3.82282,-2.607673 2.22158,-0.738664 3.71222,-2.07514 4.74268,-4.252166 1.41509,-2.989612 1.39901,-3.290453 -0.27535,-5.154408 -1.41935,-1.580079 -1.72527,-3.143165 -1.51612,-7.746665 0.15341,-3.376708 -0.22944,-6.692308 -0.92363,-7.999127 -1.03419,-1.946819 -0.95067,-2.395793 0.65382,-3.514561 3.66133,-2.552963 4.17056,-3.352782 4.17056,-6.5504129 l 0,-3.2508388 4.66217,0 c 4.21144,0 4.66274,0.204337 4.66813,2.1136367 0.008,3.0903242 7.38112,11.959252 10.48389,12.612037 2.55797,0.53817 2.56419,0.559137 2.56419,8.650625 0,7.093786 -0.23391,8.258325 -1.86486,9.284481 -1.02568,0.645326 -1.86487,1.59247 -1.86487,2.10475 0,0.512289 0.83919,0.931437 1.86487,0.931437 1.73914,0 1.86486,0.626266 1.86486,9.289395 l 0,9.289394 -3.22793,0.61008 c -2.83059,0.534994 -3.30536,1.039308 -3.85688,4.096979 -0.34591,1.917782 -1.62777,5.494834 -2.84858,7.949001 l -2.21964,4.462121 -6.27822,-0.0056 c -3.86908,-0.0038 -7.35081,-0.569236 -9.07342,-1.474135 z m 19.55505,-47.321914 c 1.58618,-3.09023 1.88382,-6.622407 0.55804,-6.622407 -1.18749,0 -6.5949,6.722575 -6.5949,8.19888 0,0.657284 1.0382,1.195059 2.30713,1.195059 1.61179,0 2.7359,-0.835319 3.72973,-2.771532 z m -37.27335,16.268697 c -1.02568,-0.230339 -2.83542,-0.628445 -4.02164,-0.884684 -1.70685,-0.368702 -2.09587,-0.993409 -1.86486,-2.994693 0.3588,-3.108267 3.54049,-4.887996 8.77239,-4.906972 4.64152,-0.01682 7.18516,2.339119 6.74144,6.243992 -0.27318,2.403937 -0.67014,2.680908 -4.03274,2.813776 -2.05135,0.08107 -4.56891,-0.04105 -5.59459,-0.271419 z m 3.92812,-32.8680005 c -0.36553,-0.3682612 -0.66461,-1.8672991 -0.66461,-3.3311848 0,-2.6036152 0.11305,-2.6616134 5.18746,-2.6616134 l 5.18746,0 -0.29219,3.0530306 c -0.27796,2.90439 -0.49815,3.066567 -4.52285,3.3311851 -2.32686,0.15298 -4.52973,-0.02311 -4.89527,-0.3914175 z" transform="matrix(0.62711864 0 0 0.55932204 43.052216 58.576274)" style="fill:#ff4500"/></svg>