<svg xmlns="http://www.w3.org/2000/svg" viewBox="0 0 256 256"><path d="m 2.193 130.26 c -22.351 111.92 130.95 154.42 214.2 105.92 66.33 -38.644 47.37 -171.02 -42.17 -220.37 -89.54 -49.35 -154.09 24.617 -172.03 114.45 z" style="fill:#fff;color:#000"/><g transform="matrix(2.81814 0 0 2.792 60.742 70.23)" style="fill:#ff4500;stroke:#ff4500"><path d="m 64 13.313 c -0.168 0.109 -0.563 0.41 -1.25 1.031 -4.734 4.074 -12.307 4.792 -17.438 4.994 -0.348 0.011 -0.585 -0.002 -0.719 0 -0.283 0.005 -0.515 0 -0.719 0 -5.739 0 -10.491 -0.945 -14.719 -2.969 -0.979 -0.469 -1.65 -0.646 -1.938 -0.687 -0.159 0.218 -0.402 0.559 -0.656 0.968 -0.508 0.819 -1.118 1.923 -1.781 3.156 -1.327 2.466 -2.785 6.09 -3.656 8.224 -4.82 11.806 -6.01 24.08 -3.531 36.38 2.205 10.955 6.686 20.907 13.06 28.969 2.049 2.59 6.914 7.455 9.5 9.5 0.373 0.295 0.735 0.572 1.094 0.844 v -0.031 c -0.138 -0.104 -0.022 -0.039 0.281 0.188 0.349 0.262 0.632 0.512 0.875 0.688 0.392 0.283 0.751 0.555 1.125 0.813 2.255 1.555 4.635 2.955 7.156 4.25 0.265 0.136 0.335 0.185 0.219 0.125 0.368 0.188 0.73 0.354 1.094 0.531 0.185 0.091 0.45 0.218 0.781 0.375 0.364 0.172 0.591 0.285 0.719 0.344 0.01 0 0.021 0 0.031 0 0.385 0.176 0.732 0.355 1.063 0.5 0.424 0.187 0.895 0.362 1.375 0.563 0.487 0.203 0.936 0.421 1.375 0.594 0.473 0.186 0.961 0.354 1.438 0.531 0.412 0.153 0.785 0.306 1.156 0.438 -0.143 -0.051 -0.011 -0.02 0.313 0.094 0.054 0.015 0.071 0.012 0.125 0.031 0.651 0.227 0.668 0.228 0.063 0.031 0.01 0 0.021 0 0.031 0 -0.478 -0.163 -0.46 -0.161 0.125 0.031 0.021 0.01 0.042 0.02 0.063 0.031 1.67 0.585 2.57 0.842 3.125 0.875 0.021 0 0.042 0 0.063 0 0.278 0.023 0.318 0 0.156 0 -0.239 0 -0.101 -0.017 0.313 -0.031 0.571 -0.046 1.435 -0.274 3.063 -0.844 0.478 -0.167 0.544 -0.165 0.25 -0.063 0.078 -0.027 0.242 -0.096 0.5 -0.188 0.376 -0.133 0.737 -0.274 1.094 -0.406 0.937 -0.348 1.876 -0.734 2.813 -1.125 0.482 -0.201 0.95 -0.375 1.375 -0.563 0.414 -0.182 0.812 -0.375 1.219 -0.563 0.02 -0.009 0.149 -0.066 0.406 -0.188 0.363 -0.171 0.689 -0.332 0.969 -0.469 0.369 -0.181 0.734 -0.347 1.094 -0.531 0.47 -0.239 0.926 -0.48 1.313 -0.688 1.256 -0.674 2.468 -1.394 3.688 -2.156 0.808 -0.505 1.61 -1 2.375 -1.531 0.375 -0.259 0.732 -0.528 1.125 -0.813 0.06 -0.045 0.123 -0.086 0.188 -0.125 0.011 -0.008 0.02 -0.023 0.031 -0.031 0.021 -0.011 0.042 -0.021 0.063 -0.031 0.273 -0.204 0.557 -0.416 0.875 -0.656 0 -0.01 0 -0.021 0 -0.031 0.357 -0.269 0.721 -0.518 1.094 -0.813 2.586 -2.045 7.451 -6.91 9.5 -9.5 6.376 -8.06 10.857 -18.01 13.06 -28.969 2.476 -12.301 1.288 -24.57 -3.531 -36.38 -0.871 -2.134 -2.33 -5.758 -3.656 -8.224 -0.663 -1.233 -1.273 -2.338 -1.781 -3.156 -0.249 -0.4 -0.498 -0.719 -0.656 -0.937 -0.346 0.053 -0.955 0.2 -1.906 0.655 -3.697 1.77 -7.814 2.737 -12.625 2.938 -0.341 0.014 -0.709 0.024 -1.063 0.031 -0.383 0.007 -0.729 0 -1.031 0 -2.914 0 -5.706 -0.28 -8.281 -0.813 -0.188 -0.039 -0.388 -0.071 -0.625 -0.125 -4.01 -0.909 -7.493 -1.791 -10 -4.056 -0.687 -0.621 -1.082 -0.923 -1.25 -1.031 z m -10.5 97.69 l -0.969 -0.219 c -0.341 0 -0.332 0.044 -0.188 0.031 0.145 -0.013 0.522 -0.088 1.156 0.188 z" transform="matrix(0.46158 0 0 0.45357 -5.541 -5.04)"/><path d="m 24 11.313 c -2.024 0.006 -4.062 0.907 -4.719 2.688 -1.313 3.561 2.083 12.696 4.719 12.688 2.635 -0.008 6.04 -9.166 4.719 -12.719 -0.661 -1.776 -2.695 -2.663 -4.719 -2.656 z m 0 17.688 c -2.209 0 -4 1.791 -4 4 0 2.209 1.791 4 4 4 2.209 0 4 -1.791 4 -4 0 -2.209 -1.791 -4 -4 -4 z" style="opacity:0.6"/><path d="m 24 9.313 c -2.024 0.006 -4.062 0.907 -4.719 2.688 -1.313 3.561 2.083 12.696 4.719 12.688 2.635 -0.008 6.04 -9.166 4.719 -12.719 -0.661 -1.776 -2.695 -2.663 -4.719 -2.656 z m 0 17.688 c -2.209 0 -4 1.791 -4 4 0 2.209 1.791 4 4 4 2.209 0 4 -1.791 4 -4 0 -2.209 -1.791 -4 -4 -4 z"/><g style="fill:#ffdead"><path d="m 24 10.313 c -2.024 0.006 -4.062 0.907 -4.719 2.688 -1.313 3.561 2.083 12.696 4.719 12.688 2.635 -0.008 6.04 -9.166 4.719 -12.719 -0.661 -1.776 -2.695 -2.663 -4.719 -2.656 z"/><path d="m 24 28 c -2.209 0 -4 1.791 -4 4 0 2.209 1.791 4 4 4 2.209 0 4 -1.791 4 -4 0 -2.209 -1.791 -4 -4 -4 z"/></g></g></svg>