<svg xmlns="http://www.w3.org/2000/svg" viewBox="0 0 256 256"><defs><clipPath><path transform="matrix(15.33333 0 0 11.5 415 -125.5)" d="m -24 13 c 0 1.105 -0.672 2 -1.5 2 -0.828 0 -1.5 -0.895 -1.5 -2 0 -1.105 0.672 -2 1.5 -2 0.828 0 1.5 0.895 1.5 2 z"/></clipPath></defs><path d="m 46.627 219.57 c -200.11 -265.25 350.59 -302.94 173.86 -32.17 -40.29 61.728 -120.86 102.43 -173.86 32.17 z" style="fill:#fff;color:#000"/><g transform="matrix(2.30964 0 0 2.50459 57.46 57.6)" style="stroke:#ff4500"><g transform="matrix(0.16414 -0.02656 0.0333 0.17642 -14.796 -8.881)" style="fill:#fff;stroke-linecap:round;stroke-linejoin:round"><path d="m 69.819,119.6 h 303.75 V 290.91 H 69.819 V 119.6 z" style="fill-rule:evenodd;stroke-width:30.501"/><path d="m 69.819,119.6 150.12,90.41 153.63,-90.41" style="stroke-width:19.06"/></g><g transform="matrix(0.94957 0 0 0.92912 50.05 -22.54)" style="fill:#ffdead"><ellipse rx="10.434" ry="7.253" transform="matrix(0.74269 -0.17718 -0.03874 0.7942 -35.647 47.759)" cy="43.33" cx="23.921" style="fill-rule:evenodd;stroke-width:6.78"/><g style="fill:#ff4500;stroke-linejoin:round"><path d="M -12.445,73.59 V 46.776" style="stroke-linecap:round;stroke-width:5.177"/><path d="m -13.223,45.595 c -0.972,1.096 -0.389,3.653 -0.583,5.297 C -0.205,49.613 0.961,70.253 1.155,64.408 -3.12,42.856 -12.252,44.499 -13.224,45.595 z" style="fill-rule:evenodd"/></g></g></g></svg>