<svg xmlns="http://www.w3.org/2000/svg" viewBox="0 0 256 256"><defs><clipPath><rect y="6" x="6" rx="6" height="84" width="84" style="fill:#ff4500"/></clipPath><clipPath><rect y="6" x="6" rx="6" height="84" width="84" style="fill:url(#0)"/></clipPath><linearGradient gradientUnits="userSpaceOnUse" id="0" y2="5.988" x2="0" y1="90"><stop style="stop-color:#70a83e"/><stop offset="1" style="stop-color:#9fd058"/></linearGradient></defs><g transform="translate(0 -796.36)"><path d="m -1374.42 1658.71 c 127.95 -192.46 -280.09 -311 -226.07 -62.2 23.02 102.82 167.39 165.22 226.07 62.2 z" transform="matrix(0 1 -1 0 1711.48 2401.81)" style="fill:#fff;color:#000"/><g transform="matrix(1.5814 0 0 1.69214 55.49 842.07)" style="fill:#ff4500"><path d="m 6 6 v 84 h 84 v -84 h -84 z m 1.375 2.344 h 7.969 v 8.844 h -7.969 v -8.844 z m 73.56 0 h 7.969 v 8.844 h -7.969 v -8.844 z m -73.56 23.5 h 7.969 v 8.844 h -7.969 v -8.844 z m 73.56 0 h 7.969 v 8.844 h -7.969 v -8.844 z m -73.56 23.469 h 7.969 v 8.844 h -7.969 v -8.844 z m 73.56 0 h 7.969 v 8.844 h -7.969 v -8.844 z m -73.56 23.5 h 7.969 v 8.844 h -7.969 v -8.844 z m 73.56 0 h 7.969 v 8.844 h -7.969 v -8.844 z"/><g transform="matrix(0.9922 0 0 1.64915 -30.394 5.512)" line-height="125%" style="letter-spacing:0;word-spacing:0;font-size:20.03;font-family:DejaVu Sans;fill:#ffdead;stroke:#ffdead"><text x="50.42" y="23.97"><tspan x="50.42" y="23.97">MAKE</tspan></text><text y="42.16" x="56.19"><tspan y="42.16" x="56.19">MKV</tspan></text></g></g></g></svg>