<svg xmlns="http://www.w3.org/2000/svg" viewBox="0 0 256 256"><defs><clipPath><rect width="46" height="46" x="1" y="1" rx="4" style="fill:#1890d0"/></clipPath><clipPath><rect width="46" height="46" x="1" y="1" rx="4" style="fill:#1890d0"/></clipPath><linearGradient id="0" gradientUnits="userSpaceOnUse" x1="45.497" y1="7.676" x2="46.4" y2="34.25"><stop style="stop-color:#e1e0ff"/><stop offset="1" style="stop-color:#938ff4500"/></linearGradient></defs><g transform="translate(0 -796.36)"><path d="m 33.22 1011.66 c 104.01 119.95 297.88 -59.36 190.19 -175.2 -90.96 -116.03 -297.55 51.37 -190.19 175.2" style="fill:#fff;color:#000"/><g transform="matrix(2.22451 0 0 2.0343 47.865 853.39)" style="fill-rule:evenodd"><path d="m 66.735 36.95 v 28.779 c 0 1.639 -0.493 2.98 -1.095 2.98 h -26.6 c -0.602 0 -1.095 -1.339 -1.095 -2.98 v -28.779 h 28.788 z" style="fill:#ffe4b5"/><path d="m 4.67 10.01 l -0.005 -3.837 c 0 -0.378 0.152 -0.724 0.403 -0.993 0.321 -0.384 0.808 -0.631 1.35 -0.631 l 27.71 0.007 c 0.961 0 1.804 0.755 1.791 1.693 -0.018 1.302 0.08 2.617 0.081 3.885 l 0.022 24.356 c 0.001 0.939 -0.771 1.721 -1.713 1.721 -11.276 0 -8.676 -0.007 -27.909 -0.007 -0.94 0 -1.711 -0.775 -1.713 -1.721 l -0.022 -24.356 c 0 -0.039 0.002 -0.078 0.005 -0.116 z" style="fill:#9f0;fill-opacity:0.439"/><path d="m 4.628 8.838 l -0.004 -3.839 c 0 -0.377 0.151 -0.724 0.402 -0.993 0.321 -0.384 0.808 -0.63 1.35 -0.63 l 27.71 0.007 c 0.961 0 1.804 0.755 1.791 1.693 -0.017 1.302 0.08 2.617 0.081 3.885 l 0.022 24.18 c 0.001 0.939 -0.771 1.722 -1.711 1.722 -11.277 0 -8.678 -0.007 -27.911 -0.007 -0.94 0 -1.711 -0.775 -1.711 -1.722 l -0.022 -24.18 c 0 -0.039 0.001 -0.078 0.004 -0.116 z" style="fill:#bde06b"/><g transform="matrix(1.0042 0 0 1 -0.149 0)" style="fill:#ffdead;fill-rule:nonzero"><path d="M 4.537,41.31 4.532,37.473 c 0,-0.378 0.152,-0.724 0.403,-0.993 0.321,-0.384 0.808,-0.63 1.35,-0.63 l 27.71,0.007 c 0.961,0 1.804,0.755 1.791,1.691 -0.018,1.302 0.08,2.617 0.081,3.885 l 0.022,24.356 c 10e-4,0.939 -0.771,1.721 -1.713,1.721 -11.276,0 -8.676,-0.007 -27.909,-0.007 -0.94,0 -1.711,-0.774 -1.713,-1.721 L 4.532,41.426 c 0,-0.039 0.001,-0.078 0.005,-0.116 z"/><path d="M 4.537,41.607 4.532,37.77 c 0,-0.377 0.152,-0.724 0.403,-0.993 0.321,-0.384 0.808,-0.63 1.35,-0.63 l 27.71,0.007 c 0.961,0 1.804,0.755 1.791,1.693 -0.018,1.302 0.08,2.617 0.081,3.885 l 0.022,24.354 c 10e-4,0.939 -0.771,1.722 -1.713,1.722 -11.276,0 -8.676,-0.007 -27.909,-0.007 -0.94,0 -1.711,-0.775 -1.713,-1.722 L 4.532,41.725 c 0,-0.039 0.001,-0.078 0.005,-0.117 z" style="fill-opacity:0.502"/><path d="m 13.407,60.09 0.663,-1.587 1.944,-0.496 7.564,-7.646 c 1.309,-1.918 2.941,-2.849 3.62,-3.537 l 0.224,0.749 0.306,0.387 -11.139,11.765 -0.399,0.046 -2.783,0.32 z" style="fill-opacity:0.439"/><g><path d="m 29.499,46.27 c 0.451,0.327 0.891,0.613 1.305,0.836 -0.282,0.873 -1.025,1.576 -1.628,2.145 l -10e-4,-10e-4 -0.317,0.306 -10.877,10.993 -0.208,0.161 -0.27,0.158 -1.315,-1.098 0.399,-0.046 12.728,-13.443 0.183,-0.009 z" style="fill-opacity:0"/><path d="m 17.504,60.872 -0.056,0.032 -0.269,0.109 -7.67,1.821 v 10e-4 L 8.74,63.018 C 8.442,63.089 8.217,63.095 7.999,63.051 7.687,62.988 7.524,62.864 7.342,62.691 L 7.33,62.684 C 7.194,62.551 7.102,62.441 7.042,62.341 l 2.202,-1.667 -0.04,0.178 2.615,-0.62 0.148,0.026 4.222,-0.485 1.315,1.098 z" style="fill-opacity:0.439"/></g><path d="M 28.701,45.666 C 28.557,45.32 28.355,44.925 28.105,44.516 27.719,43.884 27.22,43.227 26.651,42.66 26.197,42.208 25.698,41.813 25.178,41.539 24.769,41.323 24.347,41.179 23.924,41.142 l -0.441,-0.48 -3.561,2.659 -8.03,7.822 -1.667,3.418 -0.279,3.03 -0.702,3.083 -2.202,1.667 C 6.894,62.095 6.939,61.906 7.02,61.545 7.026,61.517 7.037,61.475 7.044,61.393 L 7.068,61.261 9.094,52.36 9.199,52.082 9.389,51.75 9.557,51.535 21.119,40.183 21.125,40.177 c 0.119,-0.159 0.296,-0.34 0.533,-0.5 l -0.001,-10e-4 c 0.184,-0.126 0.419,-0.249 0.7,-0.345 0.226,-0.077 0.491,-0.139 0.795,-0.171 0.252,-0.026 0.533,-0.034 0.841,-0.014 0.741,0.048 1.453,0.278 2.114,0.628 0.71,0.374 1.368,0.891 1.95,1.47 0.691,0.687 1.289,1.475 1.752,2.231 0.536,0.879 0.908,1.75 1.054,2.409 l 0.005,0.004 c 0.096,0.441 0.06,0.847 -0.061,1.221 -0.656,-0.353 -1.376,-0.863 -2.104,-1.444 z" style="fill-opacity:0.063"/></g><g style="fill:#ff4500"><path d="m 22.696 42.01 c 1.113 1.213 2.999 3.253 4.302 4.661 l 0.652 0.706 l 0.136 0.146 l -0.139 0.142 l -1.977 2.036 l -0.157 0.158 l -0.149 -0.165 l -4.92 -5.452 l -0.135 -0.148 l 0.144 -0.142 l 1.943 -1.95 l 0.155 -0.151 l 0.146 0.158 z m -9.234 17.561 l -2.978 -3.364 l -0.073 -0.084 l 0.026 -0.106 l 0.741 -2.963 l 0.057 -0.098 l 8.08 -7.889 l 0.156 -0.152 l 0.146 0.162 l 4.933 5.472 l 0.132 0.148 l -0.138 0.141 l -7.98 8.03 l -0.097 0.056 l -2.798 0.713 l -0.123 0.031 l -0.086 -0.096 z m 16.427 -13.473 c -0.231 -1.046 -1.186 -2.805 -2.536 -4.148 -0.98 -0.976 -2.166 -1.728 -3.424 -1.811 -0.529 -0.034 -0.941 0.028 -1.253 0.135 -0.428 0.145 -0.667 0.369 -0.775 0.528 l -0.026 0.041 l -0.058 0.048 l -11.562 11.352 l -0.19 0.332 l -2.026 8.901 c -0.033 0.358 -0.122 0.385 -0.009 0.494 0.107 0.103 0.183 0.143 0.48 0.073 l 8.439 -2 l 0.326 -0.19 l 10.877 -10.993 c 0.66 -0.666 1.975 -1.67 1.737 -2.757 z" style="fill-opacity:0.094;stroke:#ff4500"/><g transform="matrix(0.98422 0 0 1.0082 0.447 -0.572)" style="fill-rule:nonzero"><path d="m 4.935,37.693 1.068,0.992 h 0.024 v 0.019 L 6.033,38.685 H 6.027 6.003 l 0.022,0.021 10e-4,-0.002 v 0.002 l 0.005,0.005 -0.005,0.002 0.005,3.809 v 0.059 l -0.005,0.116 0.022,24.297 h 0.006 c 0,0.064 0.026,0.122 0.065,0.162 0.037,0.037 0.09,0.06 0.148,0.06 v 0.006 l 18.16,0.005 9.527,-0.111 V 67.11 h 0.002 v 0.006 c 0.05,0 0.105,-0.028 0.146,-0.07 0.039,-0.039 0.064,-0.096 0.064,-0.156 v -0.002 h 0.006 l -0.104,-28.941 1.551,0.131 c -0.128,9.397 0.266,19.524 0.274,28.924 0,0.939 -0.771,1.721 -1.713,1.721 -11.277,0 -8.676,-0.007 -27.909,-0.007 -0.94,0 -1.711,-0.774 -1.713,-1.721 L 4.537,42.639 c 0,-0.039 0.002,-0.078 0.005,-0.116 L 4.537,38.686 c 0,-0.377 0.151,-0.725 0.402,-0.993 z" style="fill-opacity:0.502"/><path d="m 4.226 39.709 l -0.001 -0.301 v -0.051 v -0.011 v -0.011 l 0.001 -0.005 v -0.005 v -0.011 l -0.001 -0.364 c -0.001 -0.22 0.045 -0.433 0.125 -0.63 0.08 -0.204 0.203 -0.392 0.35 -0.549 0.188 -0.223 0.428 -0.406 0.691 -0.53 h 0.001 c 0.265 -0.122 0.557 -0.191 0.865 -0.191 l 27.71 0.008 h 0.024 h 0.004 c 0.544 0.007 1.056 0.222 1.427 0.569 0.376 0.35 0.618 0.836 0.617 1.375 v 0.021 v 0.004 v 0.34 v 0.011 v 0.005 v 0.006 v 0.011 v 0.008 v 0.002 v 0.011 v 0.011 v 0.027 v 0.021 v 0.004 v 0.022 v 0.009 v 0.01 v 0.01 v 0.01 v 0.161 h -0.002 l 0.002 0.456 h -0.56 v -0.52 v -0.004 v -0.007 v -0.004 v -0.007 v -0.004 v -0.007 v -0.004 v -0.007 v -0.004 v -0.007 v -0.004 v -0.007 v -0.004 v -0.008 v -0.002 v -0.008 v -0.002 v -0.008 v -0.002 v -0.065 v -0.007 v -0.011 v -0.004 v -0.039 v -0.011 v -0.004 v -0.007 v -0.011 c -0.021 -0.351 -0.185 -0.667 -0.441 -0.905 -0.275 -0.253 -0.648 -0.415 -1.046 -0.419 v 0.001 h -0.024 v -0.001 l -27.71 -0.008 v 0.002 c -0.224 0 -0.437 0.05 -0.624 0.137 c -0.198 0.093 -0.374 0.228 -0.509 0.392 l -0.008 0.009 c -0.107 0.116 -0.193 0.247 -0.248 0.383 -0.054 0.131 -0.083 0.274 -0.083 0.428 v 0.301 v 0.456 h -0.557 v -0.456 z" style="fill-opacity:0.157"/><path d="M 4.03,38.633 V 38.615 L 4.032,38.58 4.033,38.565 4.031,37.474 H 4.029 c 0,-0.247 0.051,-0.489 0.141,-0.715 l 0.002,-0.004 c 0.091,-0.222 0.223,-0.43 0.386,-0.607 0.208,-0.243 0.471,-0.446 0.768,-0.585 0.294,-0.137 0.619,-0.215 0.956,-0.215 v 0.002 l 27.339,0.007 v -0.002 h 0.026 l 0.006,0.002 c 0.599,0.007 1.163,0.249 1.572,0.63 0.419,0.39 0.914,0.879 0.913,1.483 h 0.002 v 0.021 l -0.002,0.006 c -0.11,9.32 -0.18,18.747 -0.165,28.06 h 0.002 v 0.044 l -0.002,0.03 -10e-4,0.02 10e-4,1.118 h 0.002 v 0.002 c 0,0.604 -0.25,1.159 -0.651,1.563 -0.399,0.402 -0.954,0.653 -1.56,0.654 V 68.99 H 33.762 V 68.988 L 24.007,68.986 6.25,68.981 v 0.002 C 5.644,68.983 5.088,68.731 4.689,68.329 4.289,67.927 4.037,67.37 4.037,66.762 V 65.55 H 4.039 L 4.032,42.634 H 4.03 v -0.03 l 0.002,-0.02 0.001,-0.028 -0.001,-1.135 v -0.02 L 4.036,41.318 4.032,38.681 V 38.672 L 4.033,38.628 H 4.031 z m 1,-0.018 h 10e-4 v 0.018 l -10e-4,0.006 -0.001,0.012 -0.001,0.045 0.004,2.647 v 0.02 l -0.004,0.084 0.001,1.135 v 0.02 0.008 H 5.03 v 0.03 H 5.028 l 0.007,22.916 h 0.002 v 1.212 c 0,0.337 0.138,0.644 0.357,0.863 0.217,0.219 0.522,0.357 0.855,0.357 v 0.002 l 17.757,0.005 9.755,0.002 v -0.002 h 0.002 v 0.002 c 0.328,0 0.634,-0.141 0.854,-0.361 0.219,-0.22 0.356,-0.526 0.356,-0.859 v -0.002 h 0.002 l -0.001,-1.148 v -0.02 h -10e-4 v -0.044 h 0.002 C 34.961,56.245 34.792,46.872 34.914,37.553 h -0.002 l 0.227,-0.079 -0.224,0.058 c 0,-0.313 -0.144,-0.601 -0.37,-0.811 -0.234,-0.217 -0.556,-0.358 -0.898,-0.363 V 36.36 H 33.621 V 36.358 L 6.282,36.351 v 0.002 c -0.193,0 -0.374,0.043 -0.533,0.116 -0.168,0.078 -0.318,0.195 -0.435,0.334 l -0.018,0.02 C 5.21,36.915 5.14,37.021 5.094,37.132 H 5.095 C 5.054,37.236 5.03,37.353 5.03,37.476 H 5.028 l 0.002,1.126 v 0.017 z" style="fill-opacity:0.188;stroke:#ff4500"/></g><path d="m 62.26 52.16 c 0.797 1.175 1.268 2.622 1.268 4.188 0 3.927 -2.963 7.112 -6.618 7.112 -2.948 0 -5.447 -2.073 -6.302 -4.939 h -8.109 c -0.468 0 -0.898 -0.208 -1.206 -0.541 c -0.31 -0.334 -0.504 -0.797 -0.504 -1.297 v -13.413 c 0 -0.505 0.193 -0.965 0.503 -1.298 c 0.308 -0.333 0.738 -0.541 1.207 -0.541 h 12.409 c 0.47 0 0.897 0.207 1.208 0.541 0.31 0.334 0.503 0.792 0.503 1.298 v 4.52 h -0.932 v -4.52 c 0 -0.229 -0.088 -0.44 -0.227 -0.59 -0.14 -0.15 -0.335 -0.244 -0.549 -0.244 h -12.409 c -0.213 0 -0.411 0.094 -0.549 0.243 c -0.14 0.151 -0.227 0.362 -0.227 0.591 v 13.413 c 0 0.231 0.088 0.442 0.226 0.59 c 0.14 0.15 0.336 0.244 0.55 0.244 h 7.883 c -0.059 -0.381 -0.089 -0.771 -0.089 -1.17 0 -3.868 2.873 -7.02 6.449 -7.111 0.006 0.066 0.017 0.132 0.028 0.196 v 6.757 l -0.078 0.142 l 5.461 -4.047 l -0.012 -0.018 c 0.04 -0.027 0.08 -0.065 0.119 -0.11 z m 0.67 -1.621 l -5.461 4.047 l 0.078 -0.142 v -6.868 h 0.033 c 2.208 0 4.161 1.171 5.35 2.967 z" style="fill-opacity:0.333;stroke:#ff4500;stroke-width:0.966"/></g><g transform="matrix(0.9999 0 0 1.01314 0.004 -0.911)" style="fill:#ffdead;stroke:#ff4500;fill-rule:nonzero"><path d="m 36.436,42.523 -0.005,-3.837 c 0,-0.377 0.152,-0.725 0.402,-0.993 0.322,-0.386 0.809,-0.631 1.351,-0.631 h 0.089 v 1.494 h -0.089 v 0.006 c -0.041,0 -0.081,0.009 -0.112,0.024 L 38.07,38.581 c -0.03,0.014 -0.063,0.041 -0.089,0.073 l -0.052,0.058 -0.004,0.005 0.005,3.807 H 36.436 z M 66,37.083 67.684,38.76 67.787,67 l -1.71,1.721 c -11.278,0 -8.679,-0.007 -27.911,-0.007 -0.94,0 -1.711,-0.774 -1.713,-1.721 L 36.431,42.637 c 0,-0.039 0.001,-0.078 0.005,-0.116 l 1.494,0.059 -0.005,0.115 0.022,24.298 h 0.006 c 0,0.063 0.026,0.12 0.065,0.161 0.035,0.037 0.09,0.06 0.148,0.06 v 0.006 l 18.15,0.005 9.472,0.002 v -0.006 h 0.002 l 0.138,-0.057 0.006,-0.006 0.064,-0.156 V 67 h 0.006 L 65.995,37.081 z m -28.07,1.603 v 0.02 l 0.006,-0.02 H 37.93 z" style="fill-opacity:0.502"/><path d="m 36.05 41.31 l -0.004 -2.626 v -0.009 v -0.053 v -0.008 v -0.017 l 0.002 -0.017 l -0.002 -1.109 h -0.002 c 0 -0.247 0.051 -0.488 0.141 -0.713 v -0.002 c 0.087 -0.216 0.219 -0.42 0.379 -0.598 l 0.009 -0.012 c 0.208 -0.244 0.474 -0.448 0.769 -0.585 0.294 -0.138 0.619 -0.215 0.956 -0.215 v 0.002 l 27.426 0.007 l 0.17 -0.002 h -0.144 l 0.176 0.002 c 0.598 0.007 0.992 0.249 1.401 0.63 0.419 0.391 0.687 0.937 0.686 1.541 h 0.002 v 0.021 l -0.002 0.006 c -0.111 9.397 -0.076 18.669 -0.067 28.06 h 0.002 v 0.044 l -0.002 0.03 l -0.001 0.02 l 0.001 1.118 h 0.002 v 0.002 c 0 0.602 -0.249 1.156 -0.648 1.56 l -0.002 0.002 c -0.4 0.404 -0.954 0.657 -1.558 0.657 h -0.002 v -0.002 l -9.472 -0.002 l -18.15 -0.005 v 0.002 c -0.606 0 -1.162 -0.252 -1.561 -0.654 -0.4 -0.402 -0.652 -0.959 -0.652 -1.567 v -1.212 h 0.002 l 0.148 -22.972 h -0.002 v -0.03 l 0.002 -0.02 v -0.028 v -1.135 v -0.018 l 0.004 -0.097 z m 0.993 -2.616 l 0.004 2.633 v 0.018 l -0.004 0.098 v 1.137 v 0.02 v 0.008 v 0.03 h -0.002 l -0.148 22.972 h 0.002 v 1.212 c 0 0.337 0.138 0.644 0.357 0.863 0.217 0.219 0.522 0.357 0.855 0.357 v 0.002 l 18.15 0.005 l 9.472 0.002 v -0.002 h 0.002 c 0.331 0 0.633 -0.138 0.849 -0.357 l 0.002 -0.002 c 0.219 -0.22 0.356 -0.526 0.356 -0.859 v -0.002 h 0.002 l -0.001 -1.148 v -0.02 v -0.044 h 0.002 c -0.008 -9.394 -0.054 -18.671 0.067 -28.07 h -0.002 v -0.021 h 0.002 c 0 -0.313 -0.144 -0.601 -0.37 -0.811 -0.234 -0.217 -0.556 -0.358 -0.896 -0.363 v 0.002 h -0.026 v -0.002 l -27.426 -0.007 v 0.002 c -0.194 0 -0.374 0.043 -0.533 0.116 -0.168 0.078 -0.319 0.195 -0.436 0.334 l -0.018 0.02 c -0.085 0.091 -0.155 0.198 -0.201 0.313 c -0.041 0.103 -0.065 0.219 -0.065 0.34 h -0.002 l 0.002 1.126 h 0.002 v 0.017 l -0.002 0.033 v 0.018 v 0.03 z" style="fill-opacity:0.165"/><path d="M 4.628,9.88 4.624,6.043 C 4.624,5.665 4.775,5.319 5.026,5.05 5.347,4.666 5.834,4.42 6.376,4.42 l 27.71,0.007 c 0.961,0 1.804,0.755 1.791,1.691 -0.018,1.303 0.08,2.617 0.081,3.885 l 0.022,24.913 c 0.001,0.939 -0.771,1.722 -1.711,1.722 -11.276,0 -8.678,-0.007 -27.911,-0.007 -0.94,0 -1.711,-0.775 -1.711,-1.722 L 4.625,9.996 c 0,-0.039 0.001,-0.078 0.004,-0.116 z"/><path d="M 4.454,6.04 H 5.948 L 5.952,9.877 V 9.918 L 5.948,10.033 5.97,34.906 h 0.006 c 0,0.064 0.025,0.122 0.064,0.161 0.037,0.037 0.091,0.061 0.148,0.061 v 0.006 l 18.02,0.005 9.663,0.002 v -0.006 h 0.002 v 0.006 c 0.05,0 0.104,-0.027 0.145,-0.07 0.039,-0.039 0.064,-0.096 0.064,-0.156 v -0.002 h 0.006 L 34.066,10 H 34.06 C 34.06,9.294 34.041,8.806 34.025,8.305 34,7.586 33.975,6.856 33.985,6.098 l 1.722,0.02 C 35.689,7.42 35.786,8.734 35.787,10 l 0.022,24.914 c 0.001,0.938 -0.771,1.721 -1.713,1.721 -11.275,0 -8.675,-0.007 -27.909,-0.007 -0.94,0 -1.71,-0.775 -1.711,-1.72 L 4.454,9.992 c 0,-0.035 0.001,-0.076 0.004,-0.115 L 4.454,6.04 z" style="fill-opacity:0.502"/><path d="m 7.469,35.14 16.74,0.005 9.08,0.002 1.1,1.469 c -0.093,0.017 -0.19,0.025 -0.288,0.025 -11.275,0 -8.675,-0.007 -27.909,-0.007 -0.291,0 -0.566,-0.076 -0.807,-0.206 l 2.088,-1.289 z" style="fill-opacity:0.22"/><path d="M 4.375,7.716 V 7.241 H 4.374 L 4.375,7.19 V 7.179 7.17 6.956 H 4.374 C 4.374,6.739 4.418,6.525 4.498,6.328 4.579,6.124 4.701,5.938 4.849,5.778 5.037,5.556 5.275,5.374 5.541,5.25 H 5.542 C 5.804,5.127 6.099,5.057 6.405,5.057 v 0.002 l 27.71,0.007 V 5.065 h 0.025 l 0.002,10e-4 c 0.544,0.006 1.055,0.223 1.427,0.568 0.377,0.351 0.618,0.837 0.617,1.377 h 10e-4 v 0.02 l -10e-4,0.004 -10e-4,0.169 v 0.011 0.006 0.005 0.011 0.009 10e-4 0.011 0.011 l 10e-4,0.028 h 10e-4 v 0.02 l -10e-4,0.004 -10e-4,0.074 v 0.001 0.009 10e-4 0.009 0.001 0.009 0.001 0.009 0.001 0.009 10e-4 0.009 0.001 0.008 0.002 0.008 0.002 0.008 0.002 0.008 0.002 l 0.002,0.214 h -0.002 l 0.002,0.285 h -0.56 L 35.626,7.642 V 7.636 7.631 7.625 7.62 7.614 7.609 7.603 7.598 7.591 7.587 7.58 7.576 7.569 7.565 7.558 7.554 7.547 7.543 7.536 7.532 7.525 7.521 7.514 7.51 7.503 7.499 7.492 7.488 7.481 7.477 7.47 7.466 7.459 7.455 7.448 7.444 7.437 7.433 7.426 7.422 7.415 7.41 7.404 7.399 7.393 7.388 7.382 7.377 7.371 7.302 7.295 7.284 7.282 7.242 7.231 7.229 7.221 C 35.608,6.867 35.442,6.543 35.185,6.307 34.911,6.052 34.537,5.891 34.14,5.885 V 5.887 H 34.115 V 5.885 L 6.405,5.878 V 5.879 C 6.182,5.879 5.968,5.93 5.781,6.016 V 6.017 C 5.583,6.109 5.407,6.244 5.271,6.408 L 5.263,6.419 C 5.157,6.534 5.072,6.663 5.016,6.802 4.963,6.932 4.935,7.076 4.935,7.227 H 4.933 L 4.934,7.702 V 7.987 H 4.375 V 7.702 z" style="fill-opacity:0.439"/></g><g transform="translate(-0.391 -0.999)" style="stroke:#ff4500;fill-rule:nonzero"><path d="m 36.38 11.415 l -0.005 -3.837 c 0 -0.378 0.152 -0.724 0.403 -0.993 0.321 -0.384 0.808 -0.63 1.35 -0.63 l 27.71 0.007 c 0.961 0 1.804 0.755 1.791 1.691 -0.018 1.303 0.08 2.617 0.082 3.886 l -0.19 24.26 c -0.007 0.937 -0.771 1.721 -1.713 1.721 -11.276 0 -8.478 0.051 -27.712 0.051 -0.939 0 -1.71 -0.775 -1.711 -1.722 l -0.008 -24.313 c 0 -0.039 0.002 -0.078 0.005 -0.116 z" style="fill:#ffdead"/><g style="fill-opacity:0.502"><path d="m 37.16,5.739 0.945,1.126 h 0.024 v 0.021 l 0.006,-0.021 h -0.006 -0.024 l 0.024,0.021 0.005,0.005 -0.005,0.006 c 0.011,9.296 -0.031,18.595 -0.048,27.893 h 0.006 c 0,0.064 0.026,0.123 0.064,0.161 0.037,0.037 0.09,0.061 0.148,0.061 12.274,0 15.354,-0.014 18.03,-0.025 3.286,-0.013 5.915,-0.026 9.394,-0.026 0.054,0 0.105,-0.024 0.142,-0.06 0.045,-0.045 0.077,-0.107 0.077,-0.167 V 34.728 L 65.937,6.922 67.431,6.94 c -0.126,9.369 0.418,18.767 0.346,28.14 -0.007,0.935 -0.771,1.721 -1.713,1.721 -11.276,0 -8.478,0.051 -27.712,0.051 -0.939,0 -1.71,-0.775 -1.711,-1.722 -0.002,-9.422 0.002,-18.845 -0.008,-28.27 0,-0.378 0.152,-0.724 0.403,-0.993 l 0.123,-0.132 z" style="fill:url(#0)"/><g><path d="m 38.36,35.01 c 12.221,0 15.295,-0.014 17.969,-0.025 3.286,-0.013 5.915,-0.026 9.394,-0.026 l 0.03,-0.004 1.421,1.426 c -0.299,0.26 -0.686,0.419 -1.109,0.419 -11.276,0 -8.478,0.051 -27.712,0.051 -0.33,0 -0.639,-0.096 -0.901,-0.261 l 0.908,-1.58 z"/><path d="m 38.03 35.961 c 0.102 0.043 0.213 0.066 0.328 0.066 4.939 0 12.376 0.005 18.16 0.008 l 9.754 0.002 v -0.004 h 0.004 v 0.004 c 0.136 0 0.268 -0.035 0.385 -0.097 l 0.514 0.657 c -0.262 0.165 -0.572 0.262 -0.902 0.262 -11.276 0 -8.676 -0.007 -27.911 -0.007 -0.254 0 -0.495 -0.057 -0.712 -0.157 l 0.384 -0.735 z"/></g></g><path d="M 36.457,7.702 V 7.286 H 36.456 L 36.457,7.235 V 7.224 7.213 6.943 h -10e-4 c 0,-0.219 0.045,-0.431 0.124,-0.63 0.081,-0.203 -0.051,-0.418 0.097,-0.578 0.187,-0.222 0.426,-0.404 0.69,-0.527 h 0.001 c 0.265,-0.124 0.559,-0.194 0.865,-0.194 v 10e-4 l 27.71,0.007 V 5.021 h 0.025 l 0.004,0.001 c 0.544,0.007 1.054,0.223 1.426,0.569 0.376,0.35 0.618,0.836 0.618,1.376 h 10e-4 V 6.988 L 68.016,6.99 68.015,7.214 v 0.011 0.008 0.002 0.011 0.011 0.001 0.009 0.011 l 0.001,0.031 h 10e-4 V 7.33 L 68.016,7.332 68.015,7.408 V 7.416 7.418 7.425 7.429 7.436 7.44 7.447 7.451 7.458 l 0.002,0.213 h -0.002 l 0.002,0.343 h -0.56 L 67.456,7.608 V 7.6 7.598 7.59 7.588 7.58 7.578 7.57 7.568 7.56 7.558 7.55 7.548 7.54 7.538 7.53 7.528 7.52 7.518 7.51 7.508 7.5 7.498 7.489 7.488 7.479 7.478 7.469 7.468 7.459 7.458 7.449 7.448 7.439 7.438 7.429 7.428 7.419 7.418 7.409 7.344 7.323 7.27 C 67.441,6.914 67.272,6.587 67.014,6.349 66.739,6.093 66.366,5.932 65.969,5.927 V 5.928 H 65.944 V 5.927 L 38.234,5.92 v 0.002 c -0.224,0 -0.436,0.05 -0.624,0.135 -0.198,0.094 -0.373,0.229 -0.509,0.393 l -0.009,0.012 c -0.107,0.113 -0.191,0.242 -0.248,0.38 -0.053,0.132 -0.08,0.275 -0.08,0.426 h -0.002 l 10e-4,0.416 V 8.027 L 36.459,8.055 V 7.712 z" style="fill:#e1e0ff"/><path d="m 4.587 6.494 v -0.009 v -0.044 h -0.002 v -0.017 l 0.002 -0.033 v -0.017 c -0.042 -1.469 0.103 -3.301 2.212 -3.388 v 0.002 l 26.901 0.035 v -0.002 h 0.026 l 0.006 0.002 c 0.588 0.007 1.143 0.249 1.546 0.63 0.412 0.39 0.676 0.934 0.675 1.54 h 0.002 v 0.021 l -0.002 0.006 c -0.008 0.697 0.017 1.414 0.039 2.121 0.02 0.619 0.043 1.244 0.043 1.759 h -0.002 l 0.022 23.862 v 0.008 v 0.072 v 1.691 h 0.002 v 0.002 c 0 0.602 -0.245 1.159 -0.641 1.561 -0.393 0.402 -0.939 0.654 -1.535 0.656 v 0.002 h -0.002 v -0.002 l -9.595 -0.002 l -17.501 -0.033 v 0.002 c -0.597 0 -1.142 -0.252 -1.535 -0.654 c -0.393 -0.402 -0.638 -0.958 -0.64 -1.566 -0.051 -9.473 -0.014 -18.735 -0.022 -28.21 z m 1 28.21 c 0 0.333 0.136 0.641 0.353 0.862 0.214 0.219 0.513 0.357 0.84 0.357 v 0.002 l 17.501 0.033 l 9.595 0.002 v -0.002 h 0.002 v 0.002 c 0.323 0 0.624 -0.141 0.84 -0.363 0.215 -0.22 0.35 -0.526 0.35 -0.857 v -0.002 h 0.002 v -1.7 v -0.008 v -0.072 l -0.022 -23.854 h -0.002 c 0 -0.631 -0.021 -1.176 -0.038 -1.728 -0.025 -0.71 -0.049 -1.433 -0.039 -2.158 h -0.002 v -0.021 h 0.002 c 0 -0.312 -0.142 -0.6 -0.364 -0.81 -0.23 -0.217 -0.547 -0.358 -0.882 -0.363 v 0.002 h -0.026 v -0.002 l -26.901 -0.035 v 0.002 c -1.417 0 -1.232 1.446 -1.231 2.419 v 0.018 v 0.017 v 0.007 v 0.009 v 0.046 c 0.008 9.47 -0.03 18.728 0.022 28.2 z" style="fill:#9bba65;stroke-width:0.992"/><path d="m 35.18,36.489 c -0.372,0.287 -0.837,0.461 -1.339,0.462 v 0.002 H 33.839 V 36.951 L 24.087,36.949 6.3,36.916 v 0.002 c -0.285,0 -0.556,-0.056 -0.808,-0.156 l 1.096,-0.843 17.499,0.033 9.752,0.002 v -0.002 h 0.002 v 0.002 c 0.193,0 0.378,-0.048 0.543,-0.133 0.282,0.227 0.552,0.451 0.796,0.669 z" style="fill:#7ea140"/><path d="m 67.908,6 c 0.017,0.067 0.03,0.136 0.038,0.206 0.012,0.086 0.017,0.184 0.015,0.282 V 6.49 l 0.034,28.28 h 0.002 v 0.002 c 0,0.6 -0.249,1.156 -0.648,1.56 l -0.002,0.002 c -0.4,0.404 -0.954,0.656 -1.561,0.657 v 0.002 h -0.002 v -0.002 l -9.27,-0.033 -18.16,-0.005 v 0.002 c -0.607,0 -1.16,-0.252 -1.561,-0.654 L 36.791,36.299 C 36.392,35.895 36.144,35.34 36.144,34.733 h 0.002 l -0.004,-1.342 c -0.027,-0.09 -0.05,-0.184 -0.066,-0.276 -0.021,-0.124 -0.033,-0.252 -0.033,-0.374 h 0.002 L 36.024,8.984 V 8.97 L 36.028,8.853 36.024,5.031 h -0.002 c 0,-0.247 0.051,-0.489 0.141,-0.715 V 4.314 C 36.255,4.088 36.391,3.878 36.557,3.697 36.766,3.455 37.027,3.254 37.32,3.118 V 3.117 c 0.289,-0.135 0.614,-0.211 0.954,-0.211 v 0.002 l 27.23,0.037 V 2.943 h 0.024 l 0.006,0.002 c 0.598,0.007 1.161,0.247 1.571,0.63 0.422,0.391 0.806,0.935 0.806,1.541 v 0.019 l -0.002,0.002 -0.002,0.461 0.005,0.406 z M 66.955,6.331 C 66.95,6.286 66.94,6.235 66.928,6.19 L 66.913,6.071 66.907,5.603 V 5.595 L 66.909,5.131 H 66.907 V 5.112 C 66.907,4.798 66.648,4.51 66.423,4.301 66.189,4.082 65.866,3.943 65.527,3.938 V 3.94 H 65.503 V 3.938 L 38.273,3.901 v 0.002 c -0.19,0 -0.372,0.044 -0.531,0.117 H 37.74 c -0.17,0.079 -0.32,0.195 -0.435,0.331 l -0.014,0.018 c -0.086,0.093 -0.157,0.202 -0.203,0.317 h -10e-4 c -0.04,0.103 -0.064,0.22 -0.064,0.341 h -0.002 l 0.004,3.836 v 0.014 l -0.004,0.117 0.021,23.743 h 0.002 c 0,0.071 0.006,0.141 0.017,0.202 v 0.002 c 0.011,0.066 0.028,0.133 0.051,0.196 l 0.027,0.167 0.004,1.426 h 0.002 c 0,0.337 0.137,0.644 0.354,0.865 l 0.002,0.002 c 0.217,0.217 0.521,0.354 0.853,0.354 v 0.002 l 18.16,0.005 9.27,0.033 v -0.002 h 0.002 v 0.002 c 0.327,0 0.632,-0.141 0.853,-0.361 l 0.002,-0.002 c 0.219,-0.222 0.356,-0.528 0.356,-0.859 v -0.002 h 0.002 L 66.965,6.477 V 6.475 L 66.957,6.344 66.956,6.332 z" style="fill:#ffa07a"/><path d="m 29.27 27.17 c 0.002 0.461 0.007 0.996 0.012 1.515 0.006 0.647 -0.024 1.448 -0.024 2.048 -0.019 0.263 -0.076 0.432 -0.184 0.528 -0.125 0.11 -0.346 0.175 -0.673 0.22 l -13.295 0.026 v -0.001 h -0.495 c -0.24 -0.067 -0.409 -0.15 -0.52 -0.266 -0.112 -0.118 -0.188 -0.293 -0.241 -0.542 -0.006 -0.235 -0.032 -0.38 -0.058 -0.523 -0.022 -0.119 -0.045 -0.242 -0.048 -0.435 0.073 -0.291 0.144 -0.489 0.236 -0.651 0.094 -0.163 0.227 -0.309 0.426 -0.497 l 0.021 -0.021 l 6.863 -7.713 c 0.422 -0.609 0.444 -1.287 -0.105 -1.837 -1.324 -1.212 -2.552 -2.319 -3.771 -3.416 -1.337 -1.205 -2.682 -2.415 -3.911 -3.542 l -0.004 -0.002 l -0.111 -0.1 c -0.185 -0.164 -0.368 -0.327 -0.362 -0.534 v -0.009 v -0.17 c 0.03 -0.292 0.066 -0.494 0.161 -0.611 0.089 -0.111 0.262 -0.184 0.576 -0.237 h 13.652 c 0.259 0.053 0.454 0.154 0.585 0.283 0.138 0.137 0.234 0.443 0.249 0.641 l -0.005 1.931 c -0.043 0.182 -0.165 0.275 -0.302 0.298 -0.071 0.012 -0.149 0.009 -0.223 -0.005 l -0.02 -0.191 c -0.08 -0.015 -0.139 0.144 -0.202 0.107 l -0.001 -0.002 c -0.151 -0.087 -0.256 -0.235 -0.224 -0.405 l 0.006 -0.064 v -0.704 l -0.015 -0.105 c -0.094 -0.289 -0.229 -0.459 -0.389 -0.563 c -0.162 -0.107 -0.313 -0.132 -0.476 -0.152 l -0.044 -0.002 l -7.183 0.006 l -0.05 0.002 l -0.054 0.008 c -0.156 0.022 -0.365 0.057 -0.534 0.178 c -0.273 0.196 -0.405 0.317 -0.031 0.828 l 0.048 0.051 c 0.853 0.771 1.872 1.769 2.9 2.712 0.886 0.813 1.786 1.637 2.841 2.591 0.193 0.19 0.292 0.338 0.295 0.474 v 0.001 c 0.003 0.152 -0.091 0.345 -0.286 0.617 -1.311 1.38 -2.444 2.728 -3.574 4.075 -1.129 1.345 -2.224 2.539 -3.506 3.888 -0.162 0.113 -0.265 0.255 -0.315 0.407 -0.052 0.156 -0.048 0.317 -0.001 0.464 h 0.001 c 0.044 0.139 0.131 0.266 0.243 0.366 0.156 0.139 0.371 0.233 0.615 0.241 h 0.009 l 9.604 0.067 l 0.039 -0.001 c 0.265 -0.03 0.455 -0.098 0.594 -0.22 l 0.002 -0.002 c 0.074 -0.069 -0.102 -1.202 0.182 -1.741 0.302 -0.574 1.069 -0.522 1.074 0.691 z" style="fill:#ff4500"/></g><path d="m 51.14 17.351 h -2.716 c -0.57 0 -1.042 -0.495 -1.046 -1.098 l -0.038 -6.501 c -0.004 -0.604 0.47 -1.098 1.045 -1.098 h 6.897 c 0.576 0 1.042 0.502 1.046 1.098 l 0.038 6.501 c 0.004 0.594 -0.473 1.098 -1.046 1.098 h -2.704 h -0.41 v 1.061 l 5.394 0.033 c 0.444 0 0.847 0.185 1.138 0.482 v 0.001 c 0.293 0.296 0.474 0.707 0.474 1.156 v 2.354 h 2.851 c 0.576 0 1.042 0.465 1.046 1.019 l 0.038 6.04 c 0.004 0.552 -0.473 1.019 -1.046 1.019 h -2.704 h -1.478 h -2.716 c -0.57 0 -1.042 -0.459 -1.046 -1.019 l -0.038 -6.04 c -0.004 -0.56 0.47 -1.019 1.045 -1.019 h 3.063 v -2.354 c 0 -0.176 -0.07 -0.338 -0.182 -0.451 c -0.114 -0.115 -0.272 -0.187 -0.445 -0.187 l -12.443 -0.076 c -0.173 0 -0.332 0.072 -0.444 0.187 c -0.114 0.113 -0.183 0.275 -0.183 0.451 v 2.506 h 2.779 c 0.576 0 1.042 0.465 1.046 1.019 l 0.038 6.04 c 0.004 0.552 -0.473 1.019 -1.046 1.019 h -2.704 h -1.478 h -2.716 c -0.57 0 -1.042 -0.459 -1.046 -1.019 l -0.038 -6.04 c -0.004 -0.56 0.47 -1.019 1.045 -1.019 h 3.135 v -2.506 c 0 -0.449 0.181 -0.86 0.474 -1.156 v -0.001 c 0.291 -0.296 0.695 -0.482 1.138 -0.482 l 6.06 0.037 v -1.055 h -0.083 z" style="fill:#ff4500"/></g></g></svg>