<svg xmlns="http://www.w3.org/2000/svg" viewBox="0 0 256 256"><defs><filter x="-0.124" y="-1.208" width="1.249" height="3.415" id="0"><feGaussianBlur stdDeviation="2.36409"/></filter><linearGradient y1="20.626" gradientTransform="matrix(2.2353 0 0 2.2105 -0.099 -0.816)" x2="0" gradientUnits="userSpaceOnUse" y2="0.983" id="1"><stop style="stop-color:#888a85"/><stop offset="1" style="stop-color:#acadaa"/></linearGradient><linearGradient y1="21" gradientTransform="matrix(2.2353 0 0 2.2105 -0.099 -0.816)" x2="0" gradientUnits="userSpaceOnUse" y2="6.802" id="2"><stop style="stop-color:#e8e8e8"/><stop offset="1" style="stop-color:#ff4500"/></linearGradient></defs><path d="m 213.3 834.88 c 146.42 225.37 -253.5 312.59 -221.64 80.74 12.991 -94.56 165.63 -166.95 221.64 -80.74 z" transform="matrix(0 1 -1 0 1052.27 10.249)" style="fill:#fff;color:#fff"/><g transform="matrix(3.42768 0 0 3.5873 34.876 42.44)"><rect x="5.49" y="40.584" width="38" height="3.916" ry="1.917" rx="1.908" transform="matrix(1.0263 0 0 1.0215 -0.634 -0.458)" style="opacity:0.361;filter:url(#0)"/><path d="m 5.49 2.5 h 38 v 42 h -38 z" style="fill:url(#2);stroke:url(#1)"/><path d="m 6.49 3.5 h 36 v 40 h -36 z" style="fill:none;stroke:#ff4500ff4500"/><g style="fill-opacity:0.096"><g transform="matrix(0 -1 1 0 0 0)"><path d="m -42 7.99 h 37 v 1 h -37 z"/><path d="m -42 11.99 h 37 v 1 h -37 z"/><path d="m -42 15.99 h 37 v 1 h -37 z"/><path d="m -42 19.99 h 37 v 1 h -37 z"/><path d="m -42 23.99 h 37 v 1 h -37 z"/><path d="m -42 27.99 h 37 v 1 h -37 z"/><path d="m -42 31.99 h 37 v 1 h -37 z"/><path d="m -42 35.99 h 37 v 1 h -37 z"/><path d="m -42 39.99 h 37 v 1 h -37 z"/></g><path d="m 7.99 5 h 33 v 1 h -33 z"/><path d="m 7.99 9 h 33 v 1 h -33 z"/><path d="m 7.99 13 h 33 v 1 h -33 z"/><path d="m 7.99 17 h 33 v 1 h -33 z"/><path d="m 7.99 21 h 33 v 1 h -33 z"/><path d="m 7.99 25 h 33 v 1 h -33 z"/><path d="m 7.99 29 h 33 v 1 h -33 z"/><path d="m 7.99 33 h 33 v 1 h -33 z"/><path d="m 7.99 37 h 33 v 1 h -33 z"/></g><path d="m 8.4896,27.135 2.9124,-2.613 5.977,7.15 2.44,-2.69 3.665,-6.981 4.998,8.017 3.837,-12.523 2.892,3.115 L 40.49,5.5 v 36 h -32 l -4e-4,-14.365 z" style="fill:#ff6347;stroke:#ffdead;fill-rule:evenodd"/><path d="M 38.495,40.381 39.59,11.159 35.371,22.633 32.82,19.482 28.793,32.157 23.531,24.047 20.807,29.47 17.446,32.896 11.376,26.049 9.5819,27.552 9.4896,40.679" style="fill:#ffdead;stroke:#f00"/></g></svg>