<svg xmlns="http://www.w3.org/2000/svg" viewBox="0 0 256 256"><g transform="translate(0 -796.36)"><path d="m 44.834 1015.23 c -201.82 -266.38 353.59 -304.22 175.35 -32.31 -40.634 61.991 -121.89 102.86 -175.35 32.31 z" style="fill:#fff;color:#fff"/><path d="m 93.73 866.77 h 70.7 v 110.86 h -70.7 z" style="fill:#ffdead;stroke:#fff;stroke-width:0.302"/><path d="m 123.67 839.19 c -45.969 0 -83.4 36.28 -83.4 80.84 0 44.554 37.429 80.84 83.4 80.84 45.969 0 83.4 -36.28 83.4 -80.84 0 -44.558 -37.429 -80.84 -83.4 -80.84 z m 0 30.31 c 5.757 0 10.426 4.522 10.426 10.1 0 5.58 -4.669 10.11 -10.426 10.11 -5.757 0 -10.426 -4.526 -10.426 -10.11 0 -5.58 4.669 -10.1 10.426 -10.1 z m -15.637 30.31 h 26.06 v 60.63 h 10.422 v 10.1 h -41.697 v -10.1 h 10.422 v -50.53 h -5.211 z" style="fill:#ff4500"/></g></svg>