<svg xmlns="http://www.w3.org/2000/svg" viewBox="0 0 256 256"><defs><clipPath><path transform="matrix(15.33333 0 0 11.5 415 -125.5)" d="m -24 13 c 0 1.105 -0.672 2 -1.5 2 -0.828 0 -1.5 -0.895 -1.5 -2 0 -1.105 0.672 -2 1.5 -2 0.828 0 1.5 0.895 1.5 2 z"/></clipPath><clipPath><rect y="6" x="6" rx="6" height="84" width="84" style="fill:#ff4500"/></clipPath></defs><g transform="translate(0 -796.36)"><path d="m 60.17 822.74 c 130.93 -92.05 263.6 77.948 156.91 186.39 -100.51 102.17 -256.68 7.449 -207.86 -119.69 10.185 -26.526 26.914 -49.802 50.948 -66.7 z" style="fill:#fff;color:#000"/><g transform="matrix(1.92906 0 0 1.71691 39.515 842.24)" style="enable-background:new"><text transform="scale(0.80725 1.23878)" y="63.54" x="10.536" line-height="125%" style="letter-spacing:0;word-spacing:0;font-size:80.68;font-family:Linux Libertine Display"><tspan y="63.54" x="10.536" style="fill:#ff4500">M</tspan></text><path d="m 86.67 42.613 h -21.996 l 16.356 22.748 l -15.98 23.5 h 21.808" style="fill:none;stroke:#ff4500;stroke-width:2.1"/></g></g></svg>