<svg xmlns="http://www.w3.org/2000/svg" viewBox="0 0 256 256"><path d="m -1374.42 1658.71 c 127.95 -192.46 -280.09 -311 -226.07 -62.2 23.02 102.82 167.39 165.22 226.07 62.2 z" transform="matrix(0 0.98637 -0.98183 0 1682.72 1585.9)" style="fill:#fff;color:#000"/><path d="m 117.1 187.49 c -4.02 -5.57 -18.895 -6.202 -36.637 -1.557 -6.475 1.695 -14.259 3.082 -17.298 3.082 h -5.525 v -46.845 v -46.845 h 2.812 c 1.547 0 7.893 -1.859 14.1 -4.132 12.41 -4.541 20.04 -6.159 28.972 -6.159 6.664 0 16.244 2.299 22.28 5.349 4.074 2.058 4.087 2.058 8.507 0.014 15.974 -7.386 30.899 -7.02 53.03 1.296 5.324 2 10.986 3.637 12.58 3.637 h 2.9 v 46.845 v 46.845 h -5.525 c -3.039 0 -10.823 -1.387 -17.298 -3.082 -17.435 -4.565 -32.13 -3.968 -36.507 1.481 -2.02 2.515 -2.606 2.63 -13.333 2.63 -10.696 0 -11.309 -0.12 -13.07 -2.555 z m 20.11 -3.093 c 0.303 -0.275 0.261 -2.476 -0.095 -4.891 l -0.646 -4.394 h -6.239 h -6.239 l -0.346 4.891 l -0.346 4.891 h 6.679 c 3.673 0 6.927 -0.225 7.23 -0.5 z m 0.184 -18.03 v -4.633 l -6.984 -0.307 l -6.984 -0.307 v 5.242 v 5.242 l 6.984 -0.307 l 6.984 -0.307 v -4.633 z m -58.21 -8.806 c 12.876 -5.139 20.554 -6.22 29.461 -4.148 9.05 2.106 10.246 2.059 10.246 -0.399 0 -3.838 -6.15 -5.694 -18.716 -5.646 -10.896 0.041 -11.812 0.226 -23.25 4.705 -9.39 3.675 -11.987 5.137 -12.272 6.906 -0.539 3.336 3.647 2.927 14.535 -1.418 z m 116.63 1.427 c -0.284 -1.756 -2.929 -3.252 -12.272 -6.949 -11.531 -4.563 -12.271 -4.713 -23.25 -4.713 -12.562 0 -18.716 1.87 -18.716 5.689 0 2.458 1.191 2.505 10.246 0.399 8.878 -2.064 16.619 -0.986 29.11 4.053 10.736 4.332 15.418 4.81 14.885 1.522 z m -58.778 -6 v -5.148 h -6.806 h -6.806 v 5.148 v 5.148 h 6.806 h 6.806 v -5.148 z m -56.863 -9.311 c 14.14 -5.15 20.298 -5.917 29.02 -3.617 7.06 1.863 9.698 1.592 9.698 -0.996 0 -2.898 -9.813 -6.04 -18.716 -5.996 -6.623 0.034 -10.01 0.78 -20.417 4.498 -14.214 5.078 -15.313 5.677 -15.313 8.341 0 2.858 2.88 2.45 15.731 -2.23 z m 115.85 1.765 c 0 -2.088 -1.554 -2.964 -11.941 -6.732 -15.06 -5.464 -22.662 -6.81 -30.18 -5.348 -7.086 1.38 -12.329 3.801 -12.329 5.695 0 2.598 2.184 2.797 10.186 0.925 6.872 -1.607 8.732 -1.674 14.819 -0.532 3.829 0.718 10.871 2.887 15.649 4.818 10.564 4.272 13.792 4.547 13.792 1.173 z m -58.905 -5.593 c 0.355 -2.415 0.398 -4.616 0.095 -4.891 -0.303 -0.275 -3.529 -0.5 -7.168 -0.5 h -6.617 v 4.462 c 0 2.454 0.363 4.791 0.807 5.194 0.444 0.403 3.379 0.596 6.522 0.429 l 5.715 -0.304 l 0.646 -4.394 z m -60.56 -8.486 c 15.502 -6.379 23.571 -7.449 34.33 -4.548 6.362 1.715 8.922 1 7.604 -2.114 -1.274 -3.01 -8.654 -5.05 -18.315 -5.04 -8.263 0.001 -10.266 0.448 -22.402 4.996 -11.642 4.363 -13.328 5.303 -13.328 7.401 0 3.291 2.827 3.129 12.11 -0.69 z m 119.47 0.73 c 0 -2.02 -1.654 -2.998 -11.364 -6.707 -6.25 -2.388 -13.974 -4.85 -17.16 -5.471 -9.433 -1.836 -23.861 0.869 -25.517 4.785 -1.318 3.117 1.242 3.829 7.604 2.114 10.753 -2.898 19.07 -1.799 34.08 4.503 9.09 3.815 12.359 4.02 12.359 0.776 z m -59.46 -1.731 c 0.61 -0.554 0.914 -2.871 0.675 -5.148 l -0.435 -4.14 h -6.687 h -6.687 v 4.462 c 0 2.454 0.34 4.77 0.756 5.148 1.175 1.066 11.133 0.808 12.377 -0.321 z m -57.6 -13.559 c 12.971 -5.04 23.25 -6.168 32.463 -3.573 6.092 1.716 7.463 1.472 7.463 -1.325 0 -3.212 -8.334 -5.764 -18.687 -5.721 -8.138 0.033 -10.482 0.541 -22.11 4.791 -12.939 4.729 -14.443 5.706 -13.223 8.59 0.917 2.169 1.884 1.98 14.1 -2.761 z m 116.85 1.629 c -0.298 -2.195 -1.704 -3.158 -8.299 -5.688 -18.898 -7.25 -28.15 -8.516 -38.47 -5.268 -10.658 3.358 -10.169 8.649 0.533 5.761 9.53 -2.571 18.752 -1.544 31.699 3.533 12.968 5.085 15.03 5.321 14.538 1.66 z m -58.57 -5.654 c 0.554 -5.268 -0.828 -6.321 -7.769 -5.919 l -5.476 0.317 l -0.346 4.891 l -0.346 4.891 h 6.749 h 6.749 l 0.439 -4.179 z m -59.18 -9.199 c 4.055 -1.568 9.322 -3.416 11.704 -4.106 5.349 -1.549 16.13 -1.607 20.414 -0.107 1.756 0.615 4.471 1.118 6.03 1.118 2.288 0 2.77 -0.446 2.478 -2.288 -0.267 -1.685 -1.857 -2.797 -6.03 -4.217 -9.164 -3.115 -19.874 -2.038 -35.01 3.521 -12.331 4.531 -14.04 5.696 -12.761 8.716 0.793 1.875 2.27 1.579 13.171 -2.638 z m 117.4 0.997 c 0 -2.119 -1.583 -3.02 -12.477 -7.111 -11.633 -4.366 -13.168 -4.684 -22.686 -4.692 -7.698 -0.007 -11.254 0.461 -14.462 1.908 -8.02 3.619 -4.187 7.686 4.44 4.708 8.01 -2.765 18.538 -1.123 36.11 5.632 7.791 2.996 9.07 2.932 9.07 -0.446 z m -58.26 -1.487 c 0.293 -0.266 0.317 -2.159 0.054 -4.206 -0.419 -3.26 -0.779 -3.635 -2.896 -3.02 -3.08 0.895 -5.178 0.888 -8.372 -0.032 -2.364 -0.681 -2.552 -0.423 -2.552 3.503 v 4.238 h 6.617 c 3.639 0 6.856 -0.218 7.149 -0.483 z" style="fill:#ff4500"/><path d="m 117.1 160.37 c -4.02 -5.57 -18.895 -6.202 -36.637 -1.557 -6.475 1.695 -14.259 3.082 -17.298 3.082 h -5.525 v -46.845 v -46.845 h 2.812 c 1.547 0 7.893 -1.859 14.1 -4.132 12.41 -4.541 20.04 -6.159 28.972 -6.159 6.664 0 16.244 2.299 22.28 5.349 4.074 2.058 4.087 2.058 8.507 0.014 15.974 -7.386 30.899 -7.02 53.03 1.296 5.324 2 10.986 3.637 12.58 3.637 h 2.9 v 46.845 v 46.845 h -5.525 c -3.039 0 -10.823 -1.387 -17.298 -3.082 -17.435 -4.565 -32.13 -3.968 -36.507 1.481 -2.02 2.515 -2.606 2.63 -13.333 2.63 -10.696 0 -11.309 -0.12 -13.07 -2.555 z m 20.11 -3.093 c 0.303 -0.275 0.261 -2.476 -0.095 -4.891 l -0.646 -4.394 h -6.239 h -6.239 l -0.346 4.891 l -0.346 4.891 h 6.679 c 3.673 0 6.927 -0.225 7.23 -0.5 z m 0.184 -18.03 v -4.633 l -6.984 -0.307 l -6.984 -0.307 v 5.242 v 5.242 l 6.984 -0.307 l 6.984 -0.307 v -4.633 z m -58.21 -8.806 c 12.876 -5.139 20.554 -6.22 29.461 -4.148 9.05 2.106 10.246 2.059 10.246 -0.399 0 -3.838 -6.15 -5.694 -18.716 -5.646 -10.896 0.041 -11.812 0.226 -23.25 4.705 -9.39 3.675 -11.987 5.137 -12.272 6.906 -0.539 3.336 3.647 2.927 14.535 -1.418 z m 116.63 1.427 c -0.284 -1.756 -2.929 -3.252 -12.272 -6.949 -11.531 -4.563 -12.271 -4.713 -23.25 -4.713 -12.562 0 -18.716 1.871 -18.716 5.689 0 2.458 1.191 2.505 10.246 0.399 8.878 -2.064 16.619 -0.986 29.11 4.053 10.736 4.332 15.418 4.81 14.885 1.522 z m -58.778 -6 v -5.148 h -6.806 h -6.806 v 5.148 v 5.148 h 6.806 h 6.806 v -5.148 z m -56.863 -9.311 c 14.14 -5.15 20.298 -5.917 29.02 -3.617 7.06 1.863 9.698 1.592 9.698 -0.996 0 -2.898 -9.813 -6.04 -18.716 -5.996 -6.623 0.034 -10.01 0.78 -20.417 4.498 -14.214 5.078 -15.313 5.677 -15.313 8.341 0 2.858 2.88 2.45 15.731 -2.23 z m 115.85 1.765 c 0 -2.088 -1.554 -2.964 -11.941 -6.732 -15.06 -5.464 -22.662 -6.81 -30.18 -5.348 -7.086 1.38 -12.329 3.801 -12.329 5.695 0 2.598 2.184 2.797 10.186 0.925 6.872 -1.607 8.732 -1.674 14.819 -0.532 3.829 0.718 10.871 2.887 15.649 4.818 10.564 4.272 13.792 4.547 13.792 1.173 z m -58.905 -5.593 c 0.355 -2.415 0.398 -4.616 0.095 -4.891 -0.303 -0.275 -3.529 -0.5 -7.168 -0.5 h -6.617 v 4.462 c 0 2.454 0.363 4.791 0.807 5.194 0.444 0.403 3.379 0.596 6.522 0.429 l 5.715 -0.304 l 0.646 -4.394 z m -60.56 -8.486 c 15.502 -6.379 23.571 -7.449 34.33 -4.548 6.362 1.715 8.922 1 7.604 -2.114 -1.274 -3.01 -8.654 -5.05 -18.315 -5.04 -8.263 0.001 -10.266 0.448 -22.402 4.996 -11.642 4.363 -13.328 5.303 -13.328 7.401 0 3.291 2.827 3.129 12.11 -0.69 z m 119.47 0.73 c 0 -2.02 -1.654 -2.998 -11.364 -6.707 -6.25 -2.388 -13.974 -4.85 -17.16 -5.471 -9.433 -1.836 -23.861 0.869 -25.517 4.785 -1.318 3.117 1.242 3.829 7.604 2.114 10.753 -2.898 19.07 -1.799 34.08 4.503 9.09 3.815 12.359 4.02 12.359 0.776 z m -59.46 -1.731 c 0.61 -0.554 0.914 -2.871 0.675 -5.148 l -0.435 -4.14 h -6.687 h -6.687 v 4.462 c 0 2.454 0.34 4.77 0.756 5.148 1.175 1.066 11.133 0.808 12.377 -0.321 z m -57.6 -13.559 c 12.971 -5.04 23.25 -6.168 32.463 -3.573 6.092 1.716 7.463 1.472 7.463 -1.325 0 -3.212 -8.334 -5.764 -18.687 -5.721 -8.138 0.033 -10.482 0.541 -22.11 4.791 -12.939 4.729 -14.443 5.706 -13.223 8.59 0.917 2.169 1.884 1.98 14.1 -2.761 z m 116.85 1.629 c -0.298 -2.195 -1.704 -3.158 -8.299 -5.688 -18.898 -7.25 -28.15 -8.516 -38.47 -5.268 -10.658 3.358 -10.169 8.649 0.533 5.761 9.53 -2.571 18.752 -1.544 31.699 3.533 12.968 5.085 15.03 5.321 14.538 1.66 z m -58.57 -5.654 c 0.554 -5.268 -0.828 -6.321 -7.769 -5.919 l -5.476 0.317 l -0.346 4.891 l -0.346 4.891 h 6.749 h 6.749 l 0.439 -4.179 z m -59.18 -9.199 c 4.055 -1.568 9.322 -3.416 11.704 -4.106 5.349 -1.549 16.13 -1.607 20.414 -0.107 1.756 0.615 4.471 1.118 6.03 1.118 2.288 0 2.77 -0.446 2.478 -2.288 -0.267 -1.685 -1.857 -2.797 -6.03 -4.217 -9.164 -3.115 -19.874 -2.038 -35.01 3.521 -12.331 4.531 -14.04 5.696 -12.761 8.716 0.793 1.875 2.27 1.579 13.171 -2.638 z m 117.4 0.997 c 0 -2.119 -1.583 -3.02 -12.477 -7.111 -11.633 -4.366 -13.168 -4.684 -22.686 -4.692 -7.698 -0.007 -11.254 0.461 -14.462 1.908 -8.02 3.619 -4.187 7.686 4.44 4.708 8.01 -2.765 18.538 -1.123 36.11 5.632 7.791 2.996 9.07 2.932 9.07 -0.446 z m -58.26 -1.487 c 0.293 -0.266 0.317 -2.159 0.054 -4.206 -0.419 -3.26 -0.779 -3.635 -2.896 -3.02 -3.08 0.895 -5.178 0.888 -8.372 -0.032 -2.364 -0.681 -2.552 -0.423 -2.552 3.503 v 4.238 h 6.617 c 3.639 0 6.856 -0.218 7.149 -0.483 z" style="fill:#ffa07a"/></svg>