<svg xmlns="http://www.w3.org/2000/svg" viewBox="0 0 256 256"><g transform="translate(0 -796.36)"><path d="m -1374.42 1658.71 c 127.95 -192.46 -280.09 -311 -226.07 -62.2 23.02 102.82 167.39 165.22 226.07 62.2 z" transform="matrix(-0.70433 0.68377 -0.61808 -0.7792 60.788 3167.96)" style="fill:#fff;color:#000"/><g transform="matrix(3.45129 0 0 3.52872 40.919 -2690.68)" style="fill:#ff4500"><path d="m 6 1007.39 c -1.312 0 -2.397 1.047 -2.397 2.359 v 29.09 c 0 1.312 1.086 2.407 2.397 2.397 h 13.675 l 4.325 7.674 l 4.325 -7.674 h 13.675 c 1.312 0 2.397 -1.085 2.397 -2.397 v -29.09 c 0 -1.312 -1.086 -2.359 -2.397 -2.359 z"/><path d="m 24 1013.16 c -6.232 0 -11.284 5.05 -11.284 11.284 0 6.232 5.05 11.284 11.284 11.284 6.232 0 11.284 -5.05 11.284 -11.284 0 -6.231 -5.05 -11.284 -11.284 -11.284 z m -4.231 16.926 v -11.284 l 11.29 5.642 l -11.29 5.642 z" style="fill:#ffdead"/></g></g></svg>