<svg xmlns="http://www.w3.org/2000/svg" xmlns:xlink="http://www.w3.org/1999/xlink" viewBox="0 0 256 256"><defs><path d="m 460 310 c 0 93.88841 -76.11159 170 -170 170 -93.88841 0 -170 -76.11159 -170 -170 0 -93.88841 76.11159 -170 170 -170 93.88841 0 170 76.11159 170 170 z" id="1" style="fill:#b2bdc2;stroke:#000"/><clipPath><path d="m 95.311 352.545 h 381.092 v -281.1221 h -381.092 v 281.1221 z"/></clipPath><clipPath><rect y="6" x="6" rx="6" height="84" width="84" style="fill:#fff"/></clipPath><clipPath><path d="M 5,160.003 H123 V219.003 H5 z"/></clipPath><clipPath><path d="m 93.311 354.545 h 385.2 v -285.3604 h -385.2 v 285.3604 z"/></clipPath><clipPath><path d="m 93.311 69.185 h 385.2 v 285.36 h -385.2 v -285.36 z"/></clipPath><clipPath><path transform="matrix(15.33333 0 0 11.5 415 -125.5)" d="m -24 13 c 0 1.105 -0.672 2 -1.5 2 -0.828 0 -1.5 -0.895 -1.5 -2 0 -1.105 0.672 -2 1.5 -2 0.828 0 1.5 0.895 1.5 2 z"/></clipPath><clipPath><path d="m 92.311 355.545 h 387.2 v -287.3604 h -387.2 v 287.3604 z"/></clipPath><filter id="0" style="color-interpolation-filters:sRGB"><feGaussianBlur stdDeviation="5.8118586"/></filter></defs><path d="m 222.65 37.868 c 145.18 221.56 -251.35 307.3 -219.76 79.37 12.881 -92.96 164.23 -164.13 219.76 -79.37 z" transform="translate(0.508 2.624)" style="fill:#fff;color:#000"/><g transform="matrix(0.50138967 0 0 0.40351202 46.940985 53.477414)" style="fill:#ff4500"><text y="-1071.7106" x="1196.9197" style="font-size:17.50346184;font-family:Bitstream Vera Sans"><tspan y="-1071.7106" x="1196.9197"/></text><g transform="matrix(0.98128924 0 0 0.9743587 -263.07697 121.56155)" style="stroke:#ff4500"><path d="m -1008.5466,828.35461 42.5,456.31249 c 0.5238,5.5175 5.3524,9.5463 10.7812,9.0313 l 458.2812,-43.5313 c 5.4287,-0.515 9.3976,-5.3887 8.875,-10.9062 l -36.6562,-385.87504 c -1.2728,-7.78981 -12.5663,-12.21567 -19.4375,-10.75 -131.1606,14.28491 -262.5211,26.77447 -393.8437,39.5 421.11044,-222.29767 232.91115,-182.44339 -70.5,-53.78125 z" transform="matrix(0.55361662 0 0 0.55361662 843.81138 -465.78376)" style="filter:url(#0)"/><path d="m 314.52322,27.545864 217.35614,-89.81184 2.07606,-6.228187 -247.3739,65.9052897 17.96691,31.0820853 1.4754,2.608919 8.49939,-3.556267 z"/><g style="stroke-width:1.5"><path d="m 310.08117,25.157718 221.54557,-92.688572 -25.15079,-31.360997 -224.3372,93.9155231 17.96764,31.0814219 1.47466,2.608917 8.50012,-3.556293 z"/><path d="M 545.64709,2.7743055 301.76585,26.694004 294.50168,65.982093 542.47558,43.356476 545.64709,2.7743055 z"/></g><g style="fill:#fff"><path d="M 282.91339,-4.9265189 288.83016,65.380207 323.23823,50.606673 311.81079,3.3946807 290.77832,-9.0006859 z"/><path d="m 516.89224,-102.69175 -14.48051,5.397758 25.10303,31.608048 6.67801,-2.854585 -17.30053,-34.151221 z"/><path d="m 479.35012,-87.830609 -32.66339,13.996121 25.12036,31.625351 32.66338,-14.013422 -25.12035,-31.60805 z"/><path d="m 417.37965,-62.277741 -32.68071,14.013421 25.12036,31.608049 32.68071,-13.99612 -25.12036,-31.62535 z"/><path d="M 357.51986,-36.672972 324.83914,-22.676851 349.9595,8.9484984 382.64021,-5.0649232 357.51986,-36.672972 z"/><path d="m 546.09551,4.5714661 -7.43921,39.6873869 7.23161,-0.588219 2.3356,-38.3379453 -2.128,-0.7612226 z"/><path d="m 511.75401,5.9901086 -34.80869,3.3043997 -7.47383,42.0921627 34.54916,-3.89261 7.73336,-41.5039524 z"/><path d="m 453.76261,11.889586 -34.6183,2.906488 -7.37002,40.673527 35.01624,-1.141838 6.97208,-42.438177 z"/><path d="m 390.85793,17.858265 -34.56644,3.373601 -7.40462,40.206416 34.56644,-2.145268 7.40462,-41.434749 z"/></g><g transform="matrix(1.4586218 0 0 1.4586218 559.1833 -23.617835)"><use xlink:href="#1" transform="matrix(0.02022963 0 0 0.02022963 -185.51953 16.839989)" width="1" height="1"/><path d="m -179.04605,23.515767 -0.2023,0.202296 0,1.416074 -0.80918,0 0,-1.416074 -0.2023,-0.202296 -1.41607,0 0,-0.809185 1.41607,0 0.2023,-0.202297 0,-1.416074 0.80918,0 0,1.416074 0.2023,0.202297 1.41607,0 0,0.809185 -1.41607,0 z" style="stroke-width:0.02022963"/></g><g transform="matrix(1.1532079 -0.89313445 0.89313445 1.1532079 481.84899 -150.97335)"><use xlink:href="#1" transform="matrix(0.02022963 0 0 0.02022963 -185.51953 16.839989)" width="1" height="1"/><path id="2" d="m -179.04605,23.515767 -0.2023,0.202296 0,1.416074 -0.80918,0 0,-1.416074 -0.2023,-0.202296 -1.41607,0 0,-0.809185 1.41607,0 0.2023,-0.202297 0,-1.416074 0.80918,0 0,1.416074 0.2023,0.202297 1.41607,0 0,0.809185 -1.41607,0 z" style="fill:#ff4500;stroke:#ff4500;stroke-width:0.02022963"/></g><g transform="matrix(1.2687047 0.71969848 -0.71969848 1.2687047 552.92621 144.2165)"><use xlink:href="#1" transform="matrix(0.02022963 0 0 0.02022963 -185.51953 16.839989)" width="1" height="1"/><use xlink:href="#2" width="1" height="1"/></g></g></g></svg>