<svg xmlns="http://www.w3.org/2000/svg" viewBox="0 0 256 256"><path d="m 100.3 250.86 c -237.88 -49.33 17.492 -388.7 138.4 -184.83 51.828 79.19 -16.06 210.21 -138.4 184.83 z" style="fill:#fff;color:#000"/><g style="fill:#730000"><g style="fill-rule:evenodd"><path d="m 67.69 153.7 l 91.46 21.273 l 35.848 -12.349 l -89.51 -13.88 z" style="fill:#e10000"/><path d="m 67.69 82.82 v 70.883 l 37.791 -4.957 v -60.06 z" style="fill:#670000"/><path d="m 105.48 88.69 l 89.51 -16.44 v 90.38 l -89.51 -13.88 z" style="fill:#ff1c1c"/></g><path d="m 67.69 82.82 l 91.46 -25.2 l 35.848 14.626 l -89.51 16.44 z" style="fill:#181818"/><g style="fill-rule:evenodd"><path d="m 159.15 57.63 v 117.35 l 35.848 -12.349 v -90.38 z" style="fill:#fe0a0a"/><path d="m 67.69 82.82 l 91.46 -25.2 v 117.35 l -91.46 -21.273 z" style="fill:#b80000"/></g></g><g style="fill:#5a0000"><g style="fill-rule:evenodd"><path d="m 113.84 161.05 l 55.55 50.846 l 29.798 -21.844 l -60.42 -36.87 z" style="fill:#c80000"/><path d="m 113.84 129.12 v 31.93 l 24.927 -7.868 v -28.3 z" style="fill:#4e0000"/><path d="m 138.77 124.88 l 60.42 19.866 v 45.31 l -60.42 -36.87 z" style="fill:#ff0303"/></g><path d="m 113.84 129.12 l 55.55 27.397 l 29.798 -11.77 l -60.42 -19.866 z" style="fill:#0c0c0c"/><g style="fill-rule:evenodd"><path d="m 169.39 156.52 v 55.38 l 29.798 -21.844 v -45.31 z" style="fill:#f00000"/><path d="m 113.84 129.12 l 55.55 27.397 v 55.38 l -55.55 -50.846 z" style="fill:#9f0000"/></g><g style="fill-rule:evenodd"><path d="m 114.05 99.08 l -71.3 96.91 v -10.479 l 71.3 18.368 z" style="fill:#9f0000"/><path d="m 114.05 99.08 v 104.79 l 23.559 -1.52 v -95.25 z" style="fill:#4e0000"/></g><path d="m 114.05 99.08 l -71.3 96.91 l -3.339 0.089 l 98.2 -88.975 z" style="fill:#0c0c0c"/><g style="fill-rule:evenodd"><path d="m 137.61 107.1 l -98.2 88.975 v -10.585 l 98.2 16.865 z" style="fill:#ff0303"/><path d="m 114.05 203.87 l -71.3 -18.368 l -3.339 -0.017 l 98.2 16.865 z" style="fill:#c80000"/><path d="m 42.748 195.99 v -10.479 l -3.339 -0.017 v 10.585 z" style="fill:#f00000"/></g></g><rect width="8.817" height="16.335" x="38.36" y="181.46" rx="1.742" style="fill:#fff;stroke:#fff;fill-rule:evenodd;stroke-width:4.326"/></svg>