<svg xmlns="http://www.w3.org/2000/svg" viewBox="0 0 256 256"><g transform="matrix(-1 0 0 -1 256 1052.36)"><path d="m 29.31 999.59 c -127.49 -192.36 255.37 -296.92 224.96 -62.2 -22.905 102.82 -166.57 165.22 -224.96 62.2 z" style="fill:#fff;color:#000"/><g transform="matrix(0.97348 0 0 0.95892 0.344 3.403)" style="fill:#ff4500"><path d="m 75.82 893.17 c -0.402 1.292 -1.587 3.204 -2.633 4.25 -2.42 2.42 -2.389 3.116 0.217 4.743 1.866 1.165 2.039 1.917 1.456 6.316 -0.636 4.793 -0.57 4.98 1.632 4.665 1.706 -0.244 2.233 -0.905 2.056 -2.575 -0.131 -1.236 0.17 -2.247 0.668 -2.247 2.493 0 4.07 1.467 4.07 3.786 0 4.624 2.213 9.281 4.122 8.675 1.5 -0.476 1.759 0.399 2.048 6.905 0.182 4.097 -0.007 7.24 -0.42 6.983 -1.088 -0.677 -0.921 8.47 0.221 12.08 0.534 1.689 1.377 4.871 1.874 7.07 l 0.902 4 l 1.235 -3.282 c 0.994 -2.64 1.508 -3.056 2.626 -2.128 0.765 0.635 1.391 1.853 1.391 2.706 0 1.19 0.583 1 2.5 -0.797 1.375 -1.292 2.5 -1.996 2.5 -1.564 0 0.432 1.952 -1.853 4.338 -5.076 2.386 -3.223 3.961 -6.01 3.5 -6.194 -1.749 -0.695 -0.744 -2.133 1.331 -1.905 1.769 0.194 2.922 -1.178 6.25 -7.437 2.244 -4.221 4.796 -8.7 5.671 -9.952 l 1.59 -2.277 l 3.509 5.452 c 1.93 2.999 5.489 7.918 7.91 10.932 2.421 3.01 5.85 7.964 7.621 11 1.771 3.036 3.248 5.07 3.282 4.52 0.034 -0.55 0.644 -0.235 1.355 0.701 1.339 1.762 5.644 2.091 5.644 0.431 0 -0.519 1.103 0.34 2.45 1.909 l 2.45 2.852 l 1.3 -2.946 c 0.855 -1.937 1.372 -8.426 1.51 -18.946 0.115 -8.8 0.287 -21.474 0.381 -28.16 l 0.172 -12.164 l 4.612 -1.161 c 4.25 -1.07 4.721 -0.998 5.99 0.914 1.444 2.175 4.134 2.836 4.134 1.017 0 -0.582 0.417 -0.801 0.926 -0.487 0.534 0.33 0.58 1.782 0.108 3.425 -0.45 1.569 -0.424 3.475 0.058 4.237 0.482 0.761 0.883 2.396 0.892 3.634 0.025 3.641 1.978 2.589 4.1 -2.209 1.085 -2.452 2.409 -4.729 2.944 -5.059 0.534 -0.33 0.972 -1.447 0.972 -2.482 0 -1.035 0.489 -2.184 1.087 -2.554 0.71 -0.439 0.981 0.342 0.781 2.252 -0.208 1.986 0.726 4.483 2.913 7.784 1.771 2.673 3.219 5.317 3.219 5.875 0 0.558 0.836 1.943 1.857 3.079 1.762 1.959 1.825 3.911 1.232 38.31 -0.618 35.815 -0.651 36.26 -2.815 37.777 -1.204 0.844 -1.963 2.124 -1.686 2.846 0.277 0.722 -0.192 1.89 -1.042 2.595 -2.136 1.773 -1.933 3.703 0.454 4.328 1.173 0.307 2 1.364 2 2.558 0 2.503 -1.812 3.807 -2.564 1.846 -0.835 -2.176 -8.436 -1.763 -8.436 0.458 0 0.927 -0.293 2.449 -0.651 3.382 -0.535 1.395 -0.247 1.569 1.618 0.977 1.711 -0.543 2.118 -0.387 1.652 0.635 -0.34 0.745 -0.881 2.087 -1.203 2.981 -0.322 0.894 -1.668 2.206 -2.991 2.914 -2.022 1.082 -2.687 1.041 -4.166 -0.256 -2.672 -2.345 -15.343 -0.346 -13.786 2.174 0.655 1.06 -6.391 6.459 -7.275 5.575 -0.368 -0.368 0.288 -1.426 1.458 -2.351 1.17 -0.925 2.893 -3.204 3.829 -5.064 1.925 -3.826 1.06 -5.074 -3.536 -5.102 -1.403 -0.01 -3.056 -0.521 -3.674 -1.139 -0.805 -0.805 -1.973 -0.828 -4.115 -0.082 -3.376 1.177 -4.689 0.547 -3.03 -1.452 1.229 -1.481 -0.42 -4.341 -2.504 -4.344 -2.277 0 -8.806 -8.264 -12.349 -15.623 -2 -4.162 -4.739 -8.285 -6.079 -9.164 -2.354 -1.542 -2.532 -1.48 -5.253 1.846 -1.549 1.893 -4.26 5.918 -6.02 8.943 -1.764 3.02 -6.02 9.775 -9.466 15 -3.442 5.225 -7.617 12.2 -9.277 15.5 -5.262 10.459 -3.364 9.688 -23.495 9.548 -9.744 -0.068 -18.366 -0.372 -19.16 -0.677 -1.225 -0.47 -1.457 -7.01 -1.533 -43.21 -0.049 -23.462 -0.266 -46.02 -0.482 -50.13 -0.232 -4.415 0.043 -7.993 0.673 -8.752 0.586 -0.707 0.789 -2.67 0.45 -4.364 -0.894 -4.472 0.796 -7.097 4.045 -6.282 2.531 0.635 2.58 0.556 1.897 -3.085 -0.554 -2.95 -0.333 -4.01 1.049 -5.02 1.632 -1.194 1.603 -1.326 -0.437 -1.974 -1.211 -0.384 -2.187 -1.52 -2.187 -2.543 0 -1.017 -0.53 -2.026 -1.177 -2.242 -1.288 -0.429 -0.265 -2.774 1.21 -2.774 0.503 0 1.663 1.462 2.576 3.25 0.914 1.788 2.275 3.61 3.03 4.05 0.75 0.44 1.365 1.677 1.365 2.75 0 1.073 0.45 1.95 1 1.95 0.55 0 1 -0.45 1 -1 0 -0.55 0.933 -1 2.073 -1 1.438 0 1.969 -0.536 1.732 -1.75 -0.232 -1.188 -1.3 -1.762 -3.323 -1.787 -2.737 -0.034 -2.956 -0.295 -2.664 -3.178 0.238 -2.354 -0.2 -3.418 -1.75 -4.248 -2.712 -1.451 -2.61 -2.635 0.396 -4.605 2.26 -1.481 2.729 -1.482 5.665 -0.017 2.971 1.482 3.343 1.471 5.169 -0.159 1.905 -1.699 1.944 -1.68 1.236 0.593 z m 13.549 9.201 c 0.537 2.899 0.42 4.95 -0.282 4.95 -1.462 0 -2.134 -3.068 -0.934 -4.267 0.623 -0.623 1.17 -0.93 1.216 -0.683 z m 0.385 9.243 c 0.428 0.986 0.498 2.074 0.155 2.417 -1.015 1.015 -1.834 -0.411 -1.367 -2.382 0.414 -1.747 0.468 -1.749 1.212 -0.035 z m 65.53 9.766 c 0 1.132 -0.43 1.793 -0.956 1.468 -0.526 -0.325 -0.703 -1.252 -0.393 -2.059 0.793 -2.067 1.349 -1.824 1.349 0.591 z m -13 6.382 c 0 0.793 -0.45 1.719 -1 2.059 -0.55 0.34 -1 -0.309 -1 -1.441 0 -1.132 0.45 -2.059 1 -2.059 0.55 0 1 0.648 1 1.441 z m 13.173 10.06 c 0.764 7.07 0.47 12.476 -0.686 12.622 -1.264 0.16 -1.695 -9 -0.652 -13.884 l 0.798 -3.738 l 0.54 5 z m -59.17 7.5 c 0 1.65 -0.45 3 -1 3 -0.55 0 -1 -1.35 -1 -3 0 -1.65 0.45 -3 1 -3 0.55 0 1 1.35 1 3 z m 99 67 c 0 0.55 -0.45 1 -1 1 -0.55 0 -1 -0.45 -1 -1 0 -0.55 0.45 -1 1 -1 0.55 0 1 0.45 1 1 z m -21 12.644 c 2.475 0.852 4.928 1.955 5.45 2.452 0.523 0.497 1.873 0.954 3 1.015 1.127 0.062 -0.132 0.53 -2.8 1.04 -3.275 0.627 -5.266 0.582 -6.132 -0.136 -0.705 -0.585 -3.02 -0.848 -5.15 -0.584 -2.128 0.264 -4.897 0.222 -6.154 -0.093 -2.233 -0.56 -2.211 -0.628 0.944 -2.956 3.744 -2.762 4.76 -2.831 10.841 -0.739 z" style="fill:#ffa07a"/><path d="m 202.03 885.05 c 2.023 2.023 -1.17 11.354 -3.886 11.354 -0.855 0 -1.427 1 -1.427 2.5 0 1.517 0.57 2.5 1.45 2.5 0.798 0 1.879 0.766 2.403 1.703 0.767 1.37 1.24 1.464 2.421 0.484 1.226 -1.018 1.572 -0.704 2.092 1.9 0.735 3.677 0.128 5.04 -1.899 4.263 -0.807 -0.31 -1.468 -0.065 -1.468 0.544 0 0.609 0.928 1.107 2.063 1.107 2.054 0 2.062 0.167 1.75 39.25 l -0.313 39.25 l -2.936 3.838 c -2.467 3.225 -2.746 4.141 -1.75 5.736 0.652 1.044 1.186 2.387 1.186 2.984 0 0.597 0.646 1.731 1.436 2.521 1.803 1.803 0.995 8.385 -1.249 10.171 -2.302 1.833 -4.302 1.527 -4.898 -0.75 -0.662 -2.532 -3.29 -2.63 -3.29 -0.122 0 3.232 -2.396 4.205 -9.643 3.916 -4.989 -0.199 -7.469 0.157 -9.103 1.308 l -2.246 1.581 l 2.543 1.159 c 1.399 0.637 3.041 1.159 3.649 1.159 1.946 0 13.8 5.961 13.8 6.94 0 1.932 -2.518 2.295 -15.346 2.207 -12.847 -0.088 -13.207 -0.15 -15.404 -2.674 -2.866 -3.292 -2.94 -7.876 -0.158 -9.824 2.561 -1.794 5.307 -5.583 4.576 -6.314 -1.146 -1.145 -8.667 3.071 -8.667 4.858 0 0.994 -0.338 1.804 -0.75 1.801 -1.129 -0.01 -4.876 -5.891 -7.139 -11.205 -1.104 -2.591 -3.197 -5.741 -4.651 -7 -1.455 -1.259 -4.892 -6.451 -7.638 -11.539 -2.746 -5.087 -5.63 -9.25 -6.407 -9.25 -0.778 0 -1.414 0.337 -1.415 0.75 -0.001 0.413 -1.172 2.1 -2.603 3.75 -1.431 1.65 -3.6 5.02 -4.82 7.5 -2.567 5.208 -11.196 18.647 -12.483 19.443 -0.48 0.297 -2.746 4.32 -5.03 8.94 -2.289 4.62 -4.926 9.02 -5.86 9.783 -1.37 1.115 -5.568 1.281 -21.698 0.858 l -20 -0.524 l -0.122 -63.5 c -0.116 -60.64 -0.037 -63.64 1.77 -66.65 1.041 -1.733 2.558 -3.406 3.372 -3.719 0.814 -0.312 1.48 -1.257 1.48 -2.099 0 -0.842 0.493 -1.531 1.096 -1.531 0.603 0 2.339 -0.885 3.858 -1.967 2.409 -1.716 3.183 -1.811 6.06 -0.75 2.618 0.966 3.387 0.959 3.726 -0.033 0.584 -1.709 3.919 -1.582 4.593 0.175 0.392 1.023 2.134 1.387 6.17 1.293 5.815 -0.136 7.45 0.854 7.482 4.532 0.01 1.088 -0.741 1.75 -1.985 1.75 -1.1 0 -2 -0.472 -2 -1.049 0 -0.658 -1.958 -0.875 -5.25 -0.583 -8.356 0.742 -10.379 2.034 -7.25 4.631 0.825 0.685 1.5 2.09 1.5 3.122 0 1.308 0.718 1.878 2.365 1.878 1.301 0 3.551 0.933 5 2.073 1.893 1.489 2.635 1.686 2.635 0.7 0 -0.755 -0.501 -1.873 -1.113 -2.485 -0.817 -0.817 -0.617 -1.792 0.75 -3.669 1.929 -2.647 3.82 -3.306 4.824 -1.681 0.894 1.446 1.585 15.06 0.764 15.06 -0.585 0 -0.805 18.946 -0.334 28.75 0.174 3.628 2.108 2.579 2.108 -1.143 0 -1.988 0.58 -3.616 1.402 -3.931 1.978 -0.759 2.598 0.173 2.598 3.909 0 3.87 0.856 6.415 2.158 6.415 0.519 0 2.467 -1.663 4.329 -3.695 2.694 -2.941 3.271 -4.267 2.824 -6.5 -0.516 -2.58 -0.318 -2.805 2.472 -2.805 2.714 0 3.422 -0.711 6.722 -6.75 5.196 -9.507 8.224 -13.291 10.07 -12.584 0.842 0.323 2.745 2.685 4.229 5.248 3.184 5.501 8.487 13.03 9.198 13.06 0.275 0.012 0.349 -7.669 0.164 -17.07 -0.317 -16.14 -0.234 -17.07 1.5 -16.738 1.696 0.326 1.851 1.812 2.043 19.557 0.221 20.467 0.83 23.432 5.488 26.694 3.226 2.26 3.772 0.659 3.79 -11.11 0.009 -5.716 0.456 -10.463 1.018 -10.811 0.6 -0.371 0.658 -1.299 0.145 -2.309 -0.965 -1.901 -0.705 -19.48 0.312 -21.13 0.362 -0.585 1.292 -1.064 2.067 -1.064 1.173 0 1.397 3.757 1.334 22.397 -0.044 13.05 0.337 23.13 0.912 24.16 0.93 1.661 1.022 1.652 1.563 -0.147 0.316 -1.052 0.699 -13.725 0.851 -28.16 0.194 -18.443 0.607 -26.25 1.389 -26.25 0.612 0 1.918 -0.889 2.901 -1.976 0.984 -1.087 2.253 -1.69 2.819 -1.339 2.118 1.309 6.702 1.104 6.702 -0.301 0 -2.083 0.867 -1.695 3.678 1.645 2 2.378 2.843 2.784 3.923 1.888 0.756 -0.627 2.02 -0.894 2.804 -0.592 0.786 0.302 1.689 -0.127 2.01 -0.952 0.317 -0.825 1.367 -1.42 2.333 -1.322 3.557 0.363 4.143 -0.128 4.446 -3.724 0.298 -3.521 1.668 -5.137 3.123 -3.681 z m -135.31 15.354 c 0 0.55 0.45 1 1 1 0.55 0 1 -0.45 1 -1 0 -0.55 -0.45 -1 -1 -1 -0.55 0 -1 0.45 -1 1 z m 118 2.378 c 0 0.758 0.675 1.938 1.5 2.622 1.246 1.034 1.5 0.914 1.5 -0.711 0 -1.076 -0.3 -2.256 -0.667 -2.622 -1.117 -1.117 -2.333 -0.746 -2.333 0.711 z m -125 5.188 c 0 2.949 1.631 6.434 3.01 6.434 0.828 0 0.522 -4.193 -0.565 -7.75 -0.689 -2.253 -2.445 -1.308 -2.445 1.316 z m 99 104.43 c 0 0.55 0.477 1 1.059 1 0.582 0 0.781 -0.45 0.441 -1 -0.34 -0.55 -0.816 -1 -1.059 -1 -0.243 0 -0.441 0.45 -0.441 1 z m 15.361 -126.31 c 1.195 1.195 0.646 3.306 -0.861 3.306 -0.825 0 -1.5 -0.648 -1.5 -1.441 0 -1.671 1.427 -2.798 2.361 -1.865 z m -21.361 4.879 c 0 0.931 -0.68 1.441 -1.667 1.25 -2.509 -0.487 -2.853 -2.823 -0.416 -2.823 1.228 0 2.083 0.646 2.083 1.573 z m -11.446 109.51 c 1.031 1.667 -1.287 3.58 -2.667 2.2 -1.154 -1.154 -0.432 -3.287 1.113 -3.287 0.485 0 1.184 0.489 1.554 1.087 z"/></g></g></svg>