<svg xmlns="http://www.w3.org/2000/svg" viewBox="0 0 256 256"><defs><clipPath><path d="m -24 13 c 0 1.105 -0.672 2 -1.5 2 -0.828 0 -1.5 -0.895 -1.5 -2 0 -1.105 0.672 -2 1.5 -2 0.828 0 1.5 0.895 1.5 2 z" transform="matrix(15.33333 0 0 11.5 415 -125.5)"/></clipPath></defs><g transform="translate(0 -796.37)"><path d="m 234.22 863.01 c 126.9 254.28 -348.4 252.6 -206.35 -5.807 38.994 -70.938 158.51 -90.06 206.35 5.807 z" style="fill:#fff;color:#000"/><g transform="matrix(3.23729 0 0 3.79322 48.14 837.67)" style="fill:#ff4500"><rect x="-40" y="3" width="32" height="40" transform="scale(-1 1)" rx="0.618" ry="0.527"/><g style="fill:#ffa07a;stroke:#ffdead;fill-rule:evenodd"><rect x="13" y="8" width="22" height="14" ry="0.105" rx="0.127" style="opacity:0.15"/><path d="m 14.5 9.5 h 19 v 11 h -19 z" style="stroke-miterlimit:3.429;stroke-linecap:round;stroke-linejoin:round"/></g><path d="M 10,3 C 8.892,3 8,3.892 8,5 V 6 C 8,4.892 8.892,4 10,4 h 28 c 1.108,0 2,0.892 2,2 V 5 C 40,3.892 39.108,3 38,3 H 10" style="opacity:0.2"/><path d="m 8,40 v 1 c 0,1.108 0.892,2 2,2 h 28 c 1.108,0 2,-0.892 2,-2 v -1 c 0,1.108 -0.892,2 -2,2 H 10 C 8.892,42 8,41.108 8,40" style="opacity:0.3"/><path d="m 15 28 c -0.554 0 -1 0.446 -1 1 v 2 h -2 c -0.554 0 -1 0.446 -1 1 v 2 c 0 0.554 0.446 1 1 1 h 2 v 2 c 0 0.554 0.446 1 1 1 h 2 c 0.554 0 1 -0.446 1 -1 v -2 h 2 c 0.554 0 1 -0.446 1 -1 v -2 c 0 -0.554 -0.446 -1 -1 -1 h -2 v -2 c 0 -0.554 -0.446 -1 -1 -1 h -2" style="opacity:0.2"/><path d="m 15 27 c -0.554 0 -1 0.446 -1 1 v 2 h -2 c -0.554 0 -1 0.446 -1 1 v 2 c 0 0.554 0.446 1 1 1 h 2 v 2 c 0 0.554 0.446 1 1 1 h 2 c 0.554 0 1 -0.446 1 -1 v -2 h 2 c 0.554 0 1 -0.446 1 -1 v -2 c 0 -0.554 -0.446 -1 -1 -1 h -2 v -2 c 0 -0.554 -0.446 -1 -1 -1 h -2" style="fill:#ffdead"/><g><circle cx="35" cy="30" r="2" style="opacity:0.2"/><circle r="2" cy="30" cx="29" style="opacity:0.2"/><circle r="2" cy="36" cx="35" style="opacity:0.2"/><circle cx="29" cy="36" r="2" style="opacity:0.2"/></g><g style="fill:#ffa07a"><circle r="2" cy="29" cx="35"/><circle cx="29" cy="29" r="2"/></g><g style="fill:#ffdead"><circle cx="35" cy="35" r="2"/><circle r="2" cy="35" cx="29"/></g></g></g></svg>