<svg xmlns="http://www.w3.org/2000/svg" viewBox="0 0 256 256" xmlns:xlink="http://www.w3.org/1999/xlink"><g transform="translate(0 -796.36)"><path d="m 213.3 834.88 c 146.42 225.37 -253.5 312.59 -221.64 80.74 12.991 -94.56 165.63 -166.95 221.64 -80.74 z" transform="translate(10.155)" style="fill:#fff;color:#fff"/><g transform="matrix(3.5558 0 0 3.51432 34.07 843.38)" style="fill:#ff4500;stroke:#ffdead"><g transform="matrix(1.16269 0.32854 -0.32854 1.16269 5.091 -16.715)"><path d="m 32.627 6.67 c -3.684 3.678 -21.515 5.995 -23.627 26.33 c 0.341 5.116 2.75 11.619 7.5 10.598 0.983 -0.211 2.039 0.197 2.704 0.81 4.352 4.01 8.529 2.375 9.651 -0.445 0.215 -0.541 0.9 -0.597 1.461 -0.373 c 6.541 2.611 8.297 -4.944 8.684 -10.59 0.097 -2.449 -1.199 -21.06 -3.178 -22.527 -0.59 -0.438 -2.02 1.714 -3.178 3.906 -9.247 17.516 -20.882 9.678 -0.406 -7.224 l 0.235 -0.527 l 0.271 0.031"/><g><path d="m 24 45 v -12" id="0" style="fill-rule:evenodd"/><path d="m 15 42 v -7" id="1" style="fill-rule:evenodd"/><path d="m 33 42 v -7" id="2" style="fill-rule:evenodd"/></g><path d="m 35.23 13.724 c -3.738 8.08 -13.235 16.223 -15.74 10.909 -1.236 -2.621 0.95 -7.294 5.476 -12.587 -5.918 3.639 -15.966 12.612 -14.356 21.845 -0.374 3.84 2.603 10.963 6.461 8.637 1.028 -0.62 2.758 0.276 3.378 1.332 1.319 2.243 6.112 1.588 7.154 0.151 0.768 -1.059 2.374 -1.672 3.638 -1.377 5.533 1.289 5.921 -6.125 5.897 -9.05 1.629 -10.747 -1.787 -15.884 -1.908 -19.864 z"/><g><use xlink:href="#2"/><use xlink:href="#0"/><use xlink:href="#1"/></g></g><path d="m 6.742 24.22 c 2.709 -5.297 7.726 -5.358 16.512 -2.481 5.834 0 13.676 -5.522 18.11 -10.471 0.994 19.21 -7.56 38.549 -15.177 31.02 -1.018 -1.01 -1.785 0.096 -3.289 0.937 -1.44 0.806 -2.132 0.93 -3.686 0.528 -5.122 0.324 -6.115 -7.929 -8.389 -6.264 -4.311 3.157 -5.862 -5.784 -4.081 -13.265 z" style="fill-rule:evenodd"/><g style="stroke-linecap:round;stroke-width:3.625"><path d="m 11.77 38.888 c -0.331 -2.871 -0.694 -8.279 1.82 -11.417"/><path d="m 24.5 30.649 c -2.898 7.567 -1.014 8.846 0.395 12.96 l -0.179 -0.625"/></g><g transform="matrix(1.16269 0.32854 -0.32854 1.16269 -22.333 -30.92)" style="stroke-width:0.828"><path d="m 58.837 11.192 c -4.235 2.092 -24.465 10.348 -24.725 27.19 0.127 5.638 2.911 12.57 8.884 10.597 0.423 -0.14 0.507 -0.011 0.762 0.307 4.154 5.187 9.979 2.384 10.705 -0.314 7.447 2.509 9.177 -4.365 9.653 -10.189 1.109 -5.25 -2.802 -24.7 -3.739 -23.11 -15.961 27.16 -21.14 8.675 -1.539 -4.482" style="stroke-linejoin:round"/><g transform="translate(25 5)" style="stroke-linecap:round;stroke-linejoin:bevel"><path d="m 18.646 43.904 c -3.594 -6.717 -2.105 -8.498 -1.932 -10.624"/><path d="m 29.35 43.829 c -3.263 -3.744 -3.931 -7.406 -3.232 -10.473"/></g></g><path d="m 29.15 6.201 c 0.185 -2.304 -22.609 7.325 -22.318 18.17 3.968 -5.156 7.823 -5.581 14.15 -2.999 4.613 4.309 -9.182 -3.548 8.168 -15.17 z" style="fill:#ff7f50;stroke:#ff7f50;fill-rule:evenodd"/></g></g></svg>