<svg xmlns="http://www.w3.org/2000/svg" viewBox="0 0 256 256"><path d="M 229.63,60.176646 C 321.68,191.10665 151.682,323.77665 43.24,217.08665 -58.93,116.57665 35.791,-39.593354 162.93,9.2266461 189.456,19.411646 212.732,36.140646 229.63,60.174646 z" style="fill:#fff;color:#000"/><g transform="matrix(4.7123651 0 0 4.7356604 13.121495 13.053244)"><g style="fill:#ff4500"><circle cx="25" cy="25" r="15" style="opacity:0.1"/><circle r="15" cy="24" cx="24"/></g><path d="m 18 13.608 c 3.713 -2.144 8.287 -2.144 12 0 0.069 5.534 -3.27 7.659 -6 10.392 -3.979 -2.776 -6.246 -6.147 -6 -10.392" style="fill:#ffa07a"/><path d="m 30 13.608 c 3.713 2.144 6 6.105 6 10.392 -4 2.918 -8 1.136 -12 0" style="fill:#e9967a"/><path d="m 12,24 c 0,-4.287 2.287,-8.249 6,-10.392 L 24,24 c -3.951,1.321 -7.873,3.434 -12,0 z" style="fill:#fa8072"/><path d="M 18,34.392 C 14.287,32.248 12,28.287 12,24 l 12,0 c 0.53,5.272 -2.769,7.808 -6,10.392 z" style="fill:#ffb6c1"/><path d="m 30,34.392 c -3.713,2.144 -8.287,2.144 -12,0 L 24,24 c 3.238,3.228 6.526,6.447 6,10.392 z" style="fill:#ff4500"/><path d="M 36 24 A 12 12 0 0 1 30 34.392 L 24 24" style="fill:#ffa07a"/></g></svg>