<svg xmlns="http://www.w3.org/2000/svg" viewBox="0 0 256 256"><defs><clipPath><path d="m24 6.917c-9.426 0-17.08 7.657-17.08 17.08 0 9.426 7.657 17.08 17.08 17.08 9.426 0 17.08-7.657 17.08-17.08 0-9.426-7.657-17.08-17.08-17.08"/></clipPath><clipPath><path d="m24 7.03c-9.363 0-16.97 7.606-16.97 16.97 0 9.363 7.606 16.97 16.97 16.97 9.363 0 16.97-7.606 16.97-16.97 0-9.363-7.606-16.97-16.97-16.97"/></clipPath><clipPath><path transform="matrix(15.33333 0 0 11.5 415 -125.5)" d="m-24 13c0 1.105-.672 2-1.5 2-.828 0-1.5-.895-1.5-2 0-1.105.672-2 1.5-2 .828 0 1.5.895 1.5 2"/></clipPath><clipPath><rect rx="4" y="0.998" x="1" height="46" width="46" style="fill:#1580b9"/></clipPath><clipPath><path d="m20.5 232.75c0 0 45.28 54.998 82.75 52.75 37.5-2.25 61.75-7.5 85.75-45 24-37.5 12.5-88.5 6.5-105.5-5.843-16.556-28-46-60-58.5-32-12.5-32-12.5-32-12.5l23.5-5.5 87 26 17.5 113-63 155.5-139.5-17.5-17-97 8.5-5.75"/></clipPath><clipPath><rect y="6" x="6" rx="6" height="84" width="84" style="fill:#ff4500"/></clipPath><clipPath><path d="m0 0v512h512v-512h-512m258.75 58.44c18.849-.169 38.17 3.345 49.03 7.688 19.18 7.669 48.47 16.694 28.406 46.06-20.18 29.538-30.717 88.16-13.469 120.53 17.328 32.52 23.773 38.497 48.22 50.31 24.446 11.816 55.19 11.722 78.13 8.844 22.974-2.883 11.417 34.925 4.563 51.09-17.462 44.494-60.12 77.07-101.81 94.97-42 18.03-154.25 19.916-183.81 5.125-29.856-14.938-51.887-26.593-72.72-47.656-20.837-21.07-31.823-43.943-38.469-69.22-6.736-25.619 21.573-10.01 54.656-4.406 33.08 5.599 69.62-20.349 84.31-37.37 14.691-17.03 36.2-68.12 37.5-100 1.301-31.881 2.515-54.669-9.594-71.56-12.11-16.894-26.28-32.392-3.813-45.969 9.831-5.94 24.21-8.306 38.875-8.438"/></clipPath><clipPath><path d="m6.5 4c-1.376 0-2.5 1.124-2.5 2.5v35c0 1.376 1.124 2.5 2.5 2.5h35c1.376 0 2.5-1.124 2.5-2.5v-35c0-1.376-1.124-2.5-2.5-2.5z"/></clipPath><clipPath><path d="m255.03 37.844c-78.66 2.082-157.93 40.989-202.59 106.65-30.477 45.918-35.577 103.97-29.11 157.41 14.11 84.89 85.39 154.24 168.83 171.73 60.28 13.327 124.99 6.997 181.79-16.977 53.47-24.376 93.59-75.07 104.63-132.86 13.318-56.38 15.413-119.51-15.603-170.77-41.39-73.26-124.79-116.14-207.94-115.18"/></clipPath><clipPath><path d="m386 90.5c0 0-28 28.5-34.5 50-5.02 16.614-9 51.5 13 79.5 19.452 24.757 56.5 45 87.5 34 31.89-11.316 42.08-41.718 45-66.5 2.916-24.729 3.5-28 3.5-28l11.5 6 21.5 101-71.5 46-123.5-56.5-12.5-128.5 33.5-59 111 1.5.5 13.5-85 7"/></clipPath><clipPath><rect y="6" x="6" rx="6" height="84" width="84" style="fill:url(#0)"/></clipPath><linearGradient gradientUnits="userSpaceOnUse" id="0" y2="5.988" x2="0" y1="90"><stop style="stop-color:#70a83e"/><stop offset="1" style="stop-color:#9fd058"/></linearGradient></defs><g transform="translate(0 -796.36)"><path d="m2.201 922.1c-22.351-111.92 130.95-154.42 214.2-105.92 66.33 38.644 47.37 171.02-42.17 220.37-89.54 49.35-154.09-24.617-172.03-114.45" style="fill:#fff;color:#000"/><g transform="matrix(5.53208 0 0 5.68241 -3.735 785.14)"><path d="m 12 12 v 8 h 8 v -8 m 0 8 v 4 h -4 v 12 h 4 v -4 h 8 v 4 h 4 v -12 h -4 v -4 m 0 0 h 8 v -8 h -8" transform="translate(1 1)" style="opacity:0.1"/><path d="m 12 12 v 8 h 8 v -8 m 0 8 v 4 h -4 v 12 h 4 v -4 h 8 v 4 h 4 v -12 h -4 v -4 m 0 0 h 8 v -8 h -8" style="fill:#ff4500"/></g></g></svg>