<svg xmlns="http://www.w3.org/2000/svg" viewBox="0 0 256 256"><defs><clipPath><path transform="matrix(15.33333 0 0 11.5 415 -125.5)" d="m -24 13 c 0 1.105 -0.672 2 -1.5 2 -0.828 0 -1.5 -0.895 -1.5 -2 0 -1.105 0.672 -2 1.5 -2 0.828 0 1.5 0.895 1.5 2 z"/></clipPath></defs><g transform="translate(-1.089 -0.535)"><path d="m 231.64 194.19 c 91.19 -130.16 -77.22 -262.04 -184.65 -155.98 -101.22 99.92 -7.38 255.17 118.58 206.63 c 26.28 -10.125 49.34 -26.755 66.08 -50.647 z" style="fill:#fff;color:#000"/><g transform="matrix(1.17023 0 0 1.15203 7.48 -43.1)" style="fill-rule:evenodd"><g style="fill:#ff4500"><path d="m 142.38 141.89 c -1.532 -0.466 -4.65 -1.109 -6.928 -1.428 -2.278 -0.319 -4.416 -0.728 -4.749 -0.908 -0.334 -0.181 -1.577 -0.328 -2.764 -0.328 h -2.158 l -0.012 -4.769 c -0.017 -6.922 -0.601 -17.998 -1.035 -19.629 -1.056 -3.967 -5.478 -7.234 -8.688 -6.419 -1.177 0.299 -2.968 1.86 -3.639 3.172 -1.077 2.108 -1.858 8.973 -2.489 21.887 -0.143 2.925 -0.396 4.964 -0.635 5.123 -0.219 0.145 -0.81 0.267 -1.314 0.27 -0.821 0.004 -0.905 -0.116 -0.801 -1.164 l 0.115 -1.17 l -0.534 1.17 l -0.534 1.17 h -4.466 c -2.887 0 -4.388 -0.127 -4.246 -0.36 0.121 -0.198 0.06 -0.36 -0.136 -0.36 -0.196 0 -0.455 0.162 -0.576 0.36 -0.386 0.632 -5.553 0.43 -6.918 -0.271 -1.607 -0.824 -1.833 -1.828 -1.381 -6.14 1 -9.54 -1.096 -19.349 -4.85 -22.684 -2.476 -2.2 -6.154 -1.272 -7.94 2 -1.474 2.701 -2.115 7.794 -2.763 21.931 -0.273 5.963 0.126 5.538 -5.136 5.462 -2.6 -0.038 -3.01 -0.104 -1.778 -0.285 1.458 -0.215 -8.99 -0.128 -13.431 0.112 l -1.871 0.101 l 0.198 -23.779 c 0.109 -13.08 0.281 -24.467 0.381 -25.309 0.141 -1.18 0.333 -1.53 0.839 -1.53 0.485 0 0.607 0.191 0.467 0.733 -0.176 0.681 -0.117 0.702 0.834 0.292 0.563 -0.243 1.175 -0.572 1.361 -0.733 0.559 -0.483 9.794 -0.324 12.02 0.207 1.169 0.278 2.045 0.342 2.045 0.149 0 -0.186 0.357 -0.286 0.793 -0.223 0.524 0.076 0.902 0.481 1.115 1.195 0.592 1.989 1.063 2.717 1.892 2.928 1.375 0.349 2.315 -0.114 4.914 -2.423 4.227 -3.754 7.486 -4.853 13.512 -4.554 5.884 0.291 9.365 2.075 13.162 6.744 1.175 1.445 2.56 2.947 3.078 3.338 0.908 0.685 0.979 0.688 2 0.076 0.584 -0.349 2.081 -1.835 3.327 -3.304 4.01 -4.72 7.06 -6.474 11.836 -6.808 1.584 -0.111 3.519 -0.245 4.302 -0.299 5.201 -0.359 10.87 3.576 13.803 9.583 3.35 6.861 4.704 15.806 5.113 33.783 0.227 9.998 0.07 12.577 -0.822 13.48 -0.678 0.686 -1.099 0.65 -4.518 -0.391 z m 3.319 -0.304 c 0 -0.087 -0.16 -0.259 -0.356 -0.381 -0.196 -0.122 -0.356 -0.051 -0.356 0.159 0 0.21 0.16 0.381 0.356 0.381 0.196 0 0.356 -0.071 0.356 -0.159 z m -4.98 -1.08 c 0 -0.087 -0.16 -0.259 -0.356 -0.381 -0.196 -0.122 -0.356 -0.051 -0.356 0.159 0 0.21 0.16 0.381 0.356 0.381 0.196 0 0.356 -0.071 0.356 -0.159 z m -6.05 -1.281 c 0 -0.198 -0.25 -0.36 -0.555 -0.36 -0.305 0 -0.456 0.162 -0.335 0.36 0.121 0.198 0.37 0.36 0.555 0.36 0.184 0 0.335 -0.162 0.335 -0.36 z m -6.758 -2.16 c 0 -0.198 -0.17 -0.36 -0.377 -0.36 -0.207 0 -0.278 0.162 -0.157 0.36 0.121 0.198 0.29 0.36 0.377 0.36 0.086 0 0.157 -0.162 0.157 -0.36 z m -13.516 -44.63 c 0 -0.198 -0.16 -0.36 -0.356 -0.36 -0.196 0 -0.356 0.162 -0.356 0.36 0 0.198 0.16 0.36 0.356 0.36 0.196 0 0.356 -0.162 0.356 -0.36 z m -17.517 -4.409 c -0.081 -0.247 -0.45 -0.509 -0.819 -0.581 -0.58 -0.114 -0.606 -0.053 -0.194 0.45 0.564 0.688 1.224 0.774 1.012 0.131 z"/><path d="m 80.43 199.76 l -1.145 -1.129 v -15.86 c 0 -13.872 0.56 -34.03 1.01 -36.22 0.15 -0.738 6.631 -0.614 8.884 -0.379 11.932 -0.374 15.314 -0.336 17.596 -0.373 5.33 -0.014 7.05 -0.125 7.689 -0.494 0.45 -0.261 0.921 0.105 1.046 0.099 0.125 -0.006 0.55 0.3 0.944 1.397 0.394 1.097 0.843 1.994 0.999 1.994 0.156 0 0.283 4.04 0.283 8.974 v 8.974 l -5.808 0.015 c -4.589 0.012 -6.151 0.134 -7.444 0.582 -2.603 0.902 -2.57 0.682 -2.709 18.213 l -0.119 14.987 l -7.584 0.218 c -4.171 0.12 -8.688 0.198 -10.04 0.174 -2.322 -0.041 -2.516 -0.105 -3.599 -1.173 z"/><path d="m 50.569 199.12 c -0.65 -0.203 -0.596 1.571 -0.573 -18.731 0.008 -7.03 0.104 -13.35 0.213 -14.04 0.222 -1.408 0.701 -0.987 2.273 -0.779 0.849 0.112 -2.494 0.181 -0.514 -0.088 1.35 -0.183 9.627 -0.134 13.605 -0.176 l 7.233 -0.077 l 2.584 0.25 l 0.049 2.123 l 0.407 8.632 c 0.455 9.643 0.358 21.863 -0.179 22.408 -0.359 0.364 -24.02 0.817 -25.1 0.481 z"/><path d="m 51.21 160.14 c 0 -0.29 -0.442 -0.697 -0.982 -0.904 l -0.982 -0.376 v -5.435 c 0 -5.224 0.032 -5.491 0.833 -6.879 1.219 -2.113 1.071 -1.575 2.48 -1.629 0.804 -0.031 1.061 0.607 3.675 0.461 4.607 -0.256 11.893 -0.197 14.526 0.117 l 2.372 0.283 c 0.742 -0.643 1.021 -0.401 1.254 0.226 0.643 1.621 0.709 2.395 0.709 8.226 v 6.437 h -11.943 c -10.688 0 -11.943 -0.055 -11.943 -0.527 z"/></g><path d="m 158.76 189.47 c -7.671 -1.271 -16.235 -6.373 -21.21 -12.638 -3.583 -4.507 -4.157 -6.465 -4.424 -15.08 l -0.192 -6.215 l 5.495 -0.539 c 5.888 -0.577 9.74 -1.254 11.09 -1.948 1.417 -0.727 2.213 -4.739 3.036 -15.306 0.43 -5.525 1.078 -9.817 1.726 -11.437 0.745 -1.862 2.049 -2.281 7.594 -2.444 9.862 -0.29 16.26 1.582 23.13 6.766 5.86 4.424 10.391 10.03 10.391 12.852 0 2.436 -3.739 7.171 -7.722 9.78 -2.561 1.677 -6.551 3.214 -10.158 3.913 -1.962 0.38 -3.717 0.442 -8.329 0.296 -3.727 -0.118 -6.06 -0.072 -6.432 0.129 -2.54 1.359 3.278 7.12 9.687 9.591 3.336 1.286 6.552 2.01 13.643 3.09 6.511 0.987 8.42 1.497 8.575 2.293 0.333 1.701 -8.315 9.947 -13.829 13.185 -2.491 1.463 -6.882 2.966 -10.518 3.6 -2.876 0.502 -8.838 0.557 -11.548 0.108 z m 12.379 -44.883 c 1.259 -2.352 -1.793 -8.644 -4.848 -9.996 -1.279 -0.566 -1.435 -0.574 -2.135 -0.115 -1.479 0.969 -0.606 3.978 2.221 7.652 2.132 2.771 4.061 3.767 4.762 2.458 z m 9.166 -3.64 c 0.405 -0.405 0.493 -0.94 0.398 -2.433 -0.378 -5.93 -7.718 -12.753 -8.91 -8.281 -0.835 3.133 2.649 8.79 6.621 10.751 1.2 0.592 1.263 0.591 1.89 -0.037 z" transform="matrix(0.85453 0 0 0.86803 -5.461 37.873)" style="fill:#ffa07a"/></g></g></svg>