<svg xmlns="http://www.w3.org/2000/svg" xmlns:xlink="http://www.w3.org/1999/xlink" viewBox="0 0 256 256"><defs><linearGradient xlink:href="#7" id="6" x1="887.87" y1="671.95" x2="850.59" y2="791.23" gradientUnits="userSpaceOnUse"/><linearGradient xlink:href="#7" id="5" x1="809.88" y1="370.24" x2="767.22" y2="487.13" gradientUnits="userSpaceOnUse"/><linearGradient id="7"><stop style="stop-color:#e60000"/><stop offset="1" style="stop-color:#fe4b4b"/></linearGradient><linearGradient xlink:href="#7" id="4" x1="889.53" y1="503.63" x2="786.1" y2="661.03" gradientUnits="userSpaceOnUse"/><linearGradient id="3" gradientUnits="userSpaceOnUse" x1="1010.36" y1="762.78" x2="1068.57" y2="738.68"><stop style="stop-color:#fe4848"/><stop offset="1" style="stop-color:#fe4848"/></linearGradient><linearGradient id="0" gradientUnits="userSpaceOnUse" x1="958.99" y1="638.94" x2="1017.31" y2="614.79"><stop style="stop-color:#b80000"/><stop offset="1" style="stop-color:#9b0000"/></linearGradient><linearGradient id="2" gradientUnits="userSpaceOnUse" x1="1058.84" y1="879.94" x2="1117.1" y2="855.81"><stop style="stop-color:#ff1616"/><stop offset="1" style="stop-color:#f40000"/></linearGradient><linearGradient id="1" gradientUnits="userSpaceOnUse" x1="970.95" y1="667.62" x2="1029.16" y2="643.52"><stop style="stop-color:#f00000"/><stop offset="1" style="stop-color:#d10000;stop-opacity:0.996"/></linearGradient></defs><g transform="translate(0 -796.36)"><path d="m 118.39 1051.73 c 154.06 14.765 195.54 -234.25 37.34 -253.59 -145.47 -23.968 -220.38 201.75 -75.841 246.9 c 12.22 4.946 25.584 4.852 38.503 6.696 z" style="fill:#fff;color:#000"/><g transform="matrix(0.18703 0 0 0.1892 36.733 859.97)"><g transform="matrix(1.68524 -0.24587 0.33506 1.23665 -731.96 252.65)"><path d="m 444.19,76.09 242,-111.81 6.233,3.339 7.515,2.743 8.365,6.246 11.184,7.275 4.951,3.936 5.547,5.218 13.316,10.182 6.144,6.5 6.144,6.5 5.801,7.44 5.801,7.44 5.801,7.44 5.458,8.379 5.115,9.318 4.176,8.976 4.773,10.258 4.43,11.197 2.551,10.512 2.208,11.451 2.043,6.068 1.104,5.725 0.583,12.987 0.583,12.987 0.24,13.926 -1.981,14.18 -1.042,14.523 -0.775,5.04 -1.118,5.979 -0.61,10.422 0.329,10.765 1.612,10.169 1.612,10.169 2.894,9.572 3.833,9.915 2.894,9.572 1.79,3.847 3.669,4.532 3.833,9.915 5.801,7.44 5.458,8.379 5.801,7.44 5.801,7.44 12.542,15.222 12.631,12.06 6.487,5.561 6.144,6.5 12.72,8.9 10.841,8.214 8.962,7.529 6.83,4.621 6.233,3.339 -242,111.81 -6.576,-2.4 -8.112,-4.02 -10.244,-6.932 -10.244,-6.932 -13.659,-9.243 -14.256,-10.525 -13.227,-13.343 -12.884,-14.283 -5.801,-7.44 -6.05,-9.661 -5.458,-8.379 -5.115,-9.318 -2.386,-5.129 -2.386,-5.129 -5.712,-10.601 -3.49,-10.854 -2.894,-9.572 -2.805,-12.733 -0.926,-12.05 -0.926,-12.05 -0.24,-13.926 0.178,-6.322 1.46,-6.919 1.981,-14.18 1.118,-5.979 -0.165,-5.383 0.953,-11.362 0.953,-11.362 -1.269,-11.11 -1.612,-10.169 -2.551,-10.512 -1.612,-10.169 -4.176,-8.976 -3.833,-9.915 -3.237,-8.633 -5.458,-8.379 -5.115,-9.318 -4.862,-7.097 -5.801,-7.44 -5.801,-7.44 -4.862,-7.097 -6.144,-6.5 -6.487,-5.561 -12.03,-10.779 -11.437,-9.497 -9.901,-7.872 -14.256,-10.525 -5.89,-4.279 z" style="fill:#760000"/><path d="m 538.87,61.675 120.53,-56.08 5.89,4.279 5.89,4.279 7.426,5.904 7.083,6.843 8.02,7.186 7.68,8.125 5.458,8.379 3.669,4.532 3.326,5.472 3.326,5.472 2.386,5.129 4.773,10.258 3.833,9.915 1.358,7.947 2.983,6.411 0.165,5.383 -122.15,57.61 -2.043,-6.068 -5.877,-15.983 -4.773,-10.258 -5.712,-10.601 -5.115,-9.318 -5.115,-9.318 -5.801,-7.44 -6.74,-7.782 -13.824,-14.625 -12.03,-10.779 -4.608,-4.875 z" style="fill:url(#5)"/><path d="m 633.27,360.13 120.28,-58.3 9.291,18.294 4.519,8.04 4.519,8.04 5.458,8.379 4.519,8.04 7.68,8.125 8.276,9.407 9.216,9.75 8.02,7.186 15.792,12.15 5.89,4.279 -125.75,61.63 -6.83,-4.621 -5.204,-6.157 -8.02,-7.186 -17.581,-15.997 -7.934,-10.347 -6.74,-7.782 -4.519,-8.04 -5.458,-8.379 -7.755,-16.669 -7.666,-19.83 z" style="fill:url(#6)"/><path d="m 617.06,194.53 6.592,136.53 123.09,-57.27 -5.399,-133.97 -124.29,54.707 z" style="fill:url(#4)"/><g transform="matrix(0.9394 0.34283 -0.34283 0.9394 98.72 -249.05)" style="fill:#fe4b4b"><path d="m 499,186 -20,-7 15,-18 20,8 -15,17 z"/><path d="m 545,210 -19,-11 17,-15 20,11 -18,15 z"/><path d="m 584,244 -15,-15 15,-18 16,16 -16,17 z"/><path d="m 615,294 -10,-22 13,-19 12,22 -15,19 z"/><path d="m 653,400 -13,-23 17,-16 13,24 -17,15 z"/><path d="m 688,437 -20,-18 18,-14 19,17 -17,15 z"/><path d="m 733,464 -25,-13 19,-13 24,13 -18,13 z"/><path d="m 781,483 -26,-9 16,-16 27,8 -17,17 z"/><path d="m 628,345 -5,-24 18,-20 5,24 -18,20 z"/></g><g transform="matrix(0.9394 0.34283 -0.34283 0.9394 98.72 -249.05)" style="fill:#fe4b4b"><path d="m 647,39 -20,-7 15,-18 21,8 -16,17 z"/><path d="M 692,62 674,52 692,37 710,48 692,62 z"/><path d="M 732,97 717,82 733,64 747,79 732,97 z"/><path d="m 763,146 -10,-22 13,-18 12,22 -15,18 z"/><path d="m 801,252 -14,-23 18,-15 13,23 -17,15 z"/><path d="m 835,290 -19,-18 18,-15 19,17 -18,16 z"/><path d="m 881,317 -24,-13 18,-14 24,14 -18,13 z"/><path d="m 929,335 -26,-8 17,-17 25,9 -16,16 z"/><path d="m 776,198 -5,-24 18,-21 5,25 -18,20 z"/></g></g><g transform="matrix(1.26592 0.85252 -1.16177 0.92895 -144.11 -516.37)"><path d="m 797.24559,42.41131 0,223 -31,40 -32,-41 0,-222 0,-14 0,-1 0,-1 3,-2 2,-2 4,-1 5,-1 6,-1 5,-1 7,0 6,0 6,1 6,1 4,1 4,1 3,2 1,1 1,1 0,2 0,14 z" style="fill:url(#3)"/><path d="m 734.25 48.41 h 63 v 21 h -63 v -21 z" style="fill:url(#1)"/><path d="m 734.24,26.04 h 62.973 V 48.575 H 734.24 V 26.04 z m 63.05,1.464 c 0,11.259 -14.14,20.396 -31.564,20.396 -17.423,0 -31.564,-9.138 -31.564,-20.396 0,-11.259 14.14,-20.397 31.564,-20.397 17.423,0 31.564,9.138 31.564,20.397 z" style="fill:url(#0)"/><g style="fill-rule:evenodd"><path d="m 734.21,264.38 23.937,51.3 16.03,-0.134 23.1,-50.22 -10.951,8.547 -8.547,-10.818 -12.153,10.684 -11.619,-12.02 -10.02,10.951 -9.78,-8.293 z" style="fill:url(#2)"/><path d="m 758.13,315.65 7.799,16.715 8.232,-16.868 -16.03,0.154 z"/></g></g></g></g></svg>