<svg xmlns="http://www.w3.org/2000/svg" viewBox="0 0 256 256"><g transform="translate(0 -796.36)" style="color:#000"><path d="m229.63 992.2c92.05-130.93-77.948-263.6-186.39-156.91-102.17 100.51-7.449 256.68 119.69 207.86 26.526-10.185 49.802-26.914 66.7-50.948" style="fill:#fff"/><g transform="matrix(0.37979 0 0 0.37396 29.586 833.22)" style="fill:#ff4500"><g><path d="m76.25 337.31v2 66.69 2h2 11.09 2v-2-66.69-2h-2-11.09-2m44.44 0v2 55.56 2h2 11.09 2v-2-55.56-2h-2-11.09-2m44.44 0v2 44.47 2h2 11.09 2v-2-44.47-2h-2-11.09-2m44.44 0v2 33.34 2h2 11.09 2v-2-33.34-2h-2-11.09-2m44.44 0v2 66.69 2h2 11.125 2v-2-66.69-2h-2-11.125-2m44.44 0v2 33.34 2h2 11.125 2v-2-33.34-2h-2-11.125-2m44.44 0v2 44.47 2h2 11.125 2v-2-44.47-2h-2-11.125-2m33.34 0v2 55.56 2h2 11.09 2v-2-55.56-2h-2-11.09-2m44.44 0v2 66.69 2h2 11.09 2v-2-66.69-2h-2-11.09-2"/><path d="m456 210.18c0-14.522-11.876-26.398-26.398-26.398h-347.2c-14.522 0-26.398 11.876-26.398 26.398v2.769c0 14.522 11.876 26.398 26.398 26.398h347.2c14.522 0 26.398-11.876 26.398-26.398v-2.769"/></g><path d="m156.01 121.3c0-14.522 11.869-26.391 26.391-26.391h147.2c14.522 0 26.391 11.869 26.391 26.391v169.41c0 14.522-11.869 26.391-26.391 26.391h-147.2c-14.522 0-26.391-11.869-26.391-26.391v-169.41"/><g transform="matrix(1.14276 0 0 1.14276 -36.547 -34.547)" style="fill:#ffdead"><path d="m197.66 147.84c0-12.708 10.386-23.09 23.09-23.09h70.5c12.708 0 23.09 10.386 23.09 23.09v80.22c0 12.708-10.386 23.06-23.09 23.06h-70.5c-12.708 0-23.09-10.355-23.09-23.06v-80.22"/><rect transform="matrix(0 1 -1 0 0 0)" width="87.5" height="19.444" x="144.19" y="-265.72" rx="6.598" style="fill:#ff4500"/></g></g></g></svg>