<svg xmlns="http://www.w3.org/2000/svg" viewBox="0 0 256 256"><path d="m 260.02 66.64 c -48.541 -88.14 -200.63 -53.931 -226.36 18.64 -30.66 86.45 49.14 250.63 184.3 154.45 45.527 -33.585 90.6 -84.949 42.05 -173.09 z" transform="translate(-26.04 -13.02)" style="fill:#fff;color:#000"/><g transform="matrix(0.68956355 -0.02891083 0.02675668 0.63818396 24.089045 52.092837)" style="fill:#ff4500"><path d="m 207.20954 135.04271 c 0 34.1061 -27.19146 61.75457 -60.73383 61.75457 -33.54237 0 -60.733831 -27.64847 -60.733831 -61.75457 0 -34.10611 27.191461 -61.754567 60.733831 -61.754567 33.54237 0 60.73383 27.648457 60.73383 61.754567 z" transform="matrix(1.5793477 0 0 1.6631332 -89.555021 -103.87708)" style="stroke:#fff;fill-rule:evenodd"/><g style="fill:#ffa07a"><path d="m 137.08449 224.73078 c -0.5644 -0.79564 4.06384 -0.81877 0.0526 -0.8101 -7.25248 0.0158 -26.86319 -4.68077 -31.62507 -7.93911 -1.3716 -0.93855 -4.45865 -2.55564 -6.860111 -3.59356 -4.067585 -1.75799 -23.435937 -17.34889 -27.263102 -21.94588 -7.489542 -8.99606 -9.826719 -12.82203 -15.094152 -24.70911 -4.918329 -11.09921 -9.108442 -20.35218 -10.334394 -34.02866 0.752313 -11.36661 -2.278066 -19.46227 0.59219 -19.55522 1.831048 -0.0245 11.661234 0.32025 25.854431 -1.32638 32.170688 -3.73229 71.424298 -5.9197 75.328298 -4.19765 2.49458 1.10035 2.90683 3.46918 2.88368 16.57008 -0.0149 8.40743 -0.86611 28.06158 -1.89167 43.67591 -1.76012 26.79868 -0.5555 44.85656 3.01743 56.32495 1.02059 3.27587 -19.7326 0.68444 -16.54692 1.21845 z"/><path d="m 145.19963 18.051314 c 0.49614 0.591583 3.63723 0.954231 6.98022 0.805876 6.04435 -0.268229 24.65173 3.534492 28.72598 5.870621 1.17352 0.672899 3.7988 1.806736 5.83392 2.519633 3.44707 1.207488 20.09405 12.506304 23.43245 15.904318 6.53309 6.649703 8.60471 9.507736 13.3791 18.457937 4.45795 8.357002 11.16599 27.018678 12.62967 37.48696 1.56434 11.188221 -7.02233 -30.965366 -0.4801 -0.01868 0.76075 3.598563 3.04082 1.793813 0.38062 1.939633 -1.52536 0.0836 -12.40882 1.59767 -24.18546 3.36461 -26.69328 4.00498 -59.33998 7.07275 -62.64953 5.88713 -2.11475 -0.7576 -2.5349 -2.5637 -2.93887 -12.633717 -0.25927 -6.462362 -0.18473 -21.59838 0.16559 -33.635588 0.60121 -20.659322 -0.81032 -35.737891 -4.15885 -44.426144 -0.95648 -2.481746 1.14903 -3.592855 2.88526 -1.522587 z"/></g></g></svg>