<svg xmlns="http://www.w3.org/2000/svg" viewBox="0 0 256 256" xmlns:xlink="http://www.w3.org/1999/xlink"><defs><path id="0" d="M 9.289,14.878 C 8.899,14.641 8.651,14.232 7.568,12.042 6.969,10.83 6.398,9.753 6.3,9.65 6.19,9.534 5.286,9.053 3.937,8.395 1.271,7.093 1,6.886 1,6.149 1,5.805 1.168,5.476 1.431,5.304 1.521,5.245 4.309,4.248 7.626,3.088 13.453,1.05 13.666,0.98 14.068,1.004 c 0.344,0.021 0.444,0.056 0.61,0.214 0.248,0.237 0.36,0.565 0.311,0.915 -0.052,0.377 -4.236,12.195 -4.391,12.404 -0.332,0.446 -0.895,0.593 -1.309,0.342 z" style="opacity:0.5"/><clipPath><circle r="10" cx="286" cy="26" style="fill:none;color:#000"/></clipPath></defs><g transform="translate(0 -796.36)"><path d="m 52.774 1027.39 c 192.46 127.95 311 -280.09 62.2 -226.07 -102.82 23.02 -165.22 167.39 -62.2 226.07 z" style="fill:#fff;color:#000"/><g transform="matrix(9.67779 0 0 10.6852 41.898 847.01)" style="fill:#ff4500"><g style="font-family:Bitstream Vera Sans"><g style="font-size:12.666"><text x="877.23" y="-21.19" style="opacity:0.8"><tspan x="877.23" y="-21.19"/></text><text x="901.19" y="-61.929" style="opacity:0.8"><tspan x="901.19" y="-61.929"/></text><text x="-569.37" y="-92.01" style="opacity:0.8"><tspan x="-569.37" y="-92.01"/></text><text x="-2393.06" y="653.55" style="opacity:0.8"><tspan x="-2393.06" y="653.55"/></text><text x="-454.88" y="-477.33" style="opacity:0.8"><tspan x="-454.88" y="-477.33"/></text><text x="352.72" y="-890.8" style="opacity:0.8"><tspan x="352.72" y="-890.8"/></text><text x="376.68" y="-931.54" style="opacity:0.8"><tspan x="376.68" y="-931.54"/></text><text x="-1114.78" y="-938.75" style="opacity:0.8"><tspan x="-1114.78" y="-938.75"/></text><text x="345.76" y="-1211.98" style="opacity:0.8"><tspan x="345.76" y="-1211.98"/></text><text x="1831.89" y="-585.29" style="opacity:0.8"><tspan x="1831.89" y="-585.29"/></text><text x="1855.85" y="-626.03" style="opacity:0.8"><tspan x="1855.85" y="-626.03"/></text><text x="364.38" y="-633.24" style="opacity:0.8"><tspan x="364.38" y="-633.24"/></text><text x="1824.93" y="-906.48" style="opacity:0.8"><tspan x="1824.93" y="-906.48"/></text><text x="-573.43" y="-681.34" style="opacity:0.8"><tspan x="-573.43" y="-681.34"/></text><text x="-2397.12" y="64.22" style="opacity:0.8"><tspan x="-2397.12" y="64.22"/></text><text x="-682.36" y="157.09" style="opacity:0.8"><tspan x="-682.36" y="157.09"/></text><text x="426.66" y="-22.09" style="opacity:0.8"><tspan x="426.66" y="-22.09"/></text><text x="450.62" y="-62.834" style="opacity:0.8"><tspan x="450.62" y="-62.834"/></text><text x="-1040.84" y="-70.04" style="opacity:0.8"><tspan x="-1040.84" y="-70.04"/></text><text x="419.7" y="-343.28" style="opacity:0.8"><tspan x="419.7" y="-343.28"/></text><text x="-608.03" y="-72.76" style="opacity:0.8"><tspan x="-608.03" y="-72.76"/></text><text x="-2431.72" y="672.8" style="opacity:0.8"><tspan x="-2431.72" y="672.8"/></text><text x="-456.94" y="-934.29" style="opacity:0.8"><tspan x="-456.94" y="-934.29"/></text><text x="350.66" y="-1347.76" style="opacity:0.8"><tspan x="350.66" y="-1347.76"/></text><text x="374.62" y="-1388.5" style="opacity:0.8"><tspan x="374.62" y="-1388.5"/></text><text x="-1116.84" y="-1395.71" style="opacity:0.8"><tspan x="-1116.84" y="-1395.71"/></text><text x="343.7" y="-1668.94" style="opacity:0.8"><tspan x="343.7" y="-1668.94"/></text><text x="1829.83" y="-1042.25" style="opacity:0.8"><tspan x="1829.83" y="-1042.25"/></text><text x="1853.79" y="-1082.99" style="opacity:0.8"><tspan x="1853.79" y="-1082.99"/></text><text x="362.32" y="-1090.2" style="opacity:0.8"><tspan x="362.32" y="-1090.2"/></text><text x="1822.87" y="-1363.44" style="opacity:0.8"><tspan x="1822.87" y="-1363.44"/></text><text x="-575.49" y="-1138.3" style="opacity:0.8"><tspan x="-575.49" y="-1138.3"/></text><text x="-2399.18" y="-392.74" style="opacity:0.8"><tspan x="-2399.18" y="-392.74"/></text><text x="-684.42" y="-299.87" style="opacity:0.8"><tspan x="-684.42" y="-299.87"/></text><text x="155.59" y="-58.956" style="opacity:0.8"><tspan x="155.59" y="-58.956"/></text><text x="179.55" y="-99.7" style="opacity:0.8"><tspan x="179.55" y="-99.7"/></text><text x="-1090.26" y="-293.73" style="opacity:0.8"><tspan x="-1090.26" y="-293.73"/></text><text x="-282.66" y="-707.2" style="opacity:0.8"><tspan x="-282.66" y="-707.2"/></text><text x="-258.7" y="-747.94" style="opacity:0.8"><tspan x="-258.7" y="-747.94"/></text><text x="-1750.16" y="-755.15" style="opacity:0.8"><tspan x="-1750.16" y="-755.15"/></text><text x="-289.62" y="-1028.38" style="opacity:0.8"><tspan x="-289.62" y="-1028.38"/></text><text x="1196.5" y="-401.69" style="opacity:0.8"><tspan x="1196.5" y="-401.69"/></text><text x="1220.46" y="-442.43" style="opacity:0.8"><tspan x="1220.46" y="-442.43"/></text><text x="-271" y="-449.64" style="opacity:0.8"><tspan x="-271" y="-449.64"/></text><text x="1189.54" y="-722.88" style="opacity:0.8"><tspan x="1189.54" y="-722.88"/></text><text x="-1208.82" y="-497.73" style="opacity:0.8"><tspan x="-1208.82" y="-497.73"/></text><text x="-3032.5" y="247.82" style="opacity:0.8"><tspan x="-3032.5" y="247.82"/></text></g><text transform="matrix(0.90475 0 0 0.90475 -716.75 -708.29)" x="-664.27" y="1159.42" style="font-size:14;opacity:0.8"><tspan x="-664.27" y="1159.42"/></text><g style="font-size:12.666"><text x="877.23" y="-13.949" style="opacity:0.8"><tspan x="877.23" y="-13.949"/></text><text x="901.19" y="-54.691" style="opacity:0.8"><tspan x="901.19" y="-54.691"/></text><text x="-569.37" y="-84.77" style="opacity:0.8"><tspan x="-569.37" y="-84.77"/></text><text x="-2393.06" y="660.78" style="opacity:0.8"><tspan x="-2393.06" y="660.78"/></text><text x="-454.88" y="-470.09" style="opacity:0.8"><tspan x="-454.88" y="-470.09"/></text><text x="352.72" y="-883.56" style="opacity:0.8"><tspan x="352.72" y="-883.56"/></text><text x="376.68" y="-924.3" style="opacity:0.8"><tspan x="376.68" y="-924.3"/></text><text x="-1114.78" y="-931.51" style="opacity:0.8"><tspan x="-1114.78" y="-931.51"/></text><text x="345.76" y="-1204.75" style="opacity:0.8"><tspan x="345.76" y="-1204.75"/></text><text x="1831.89" y="-578.05" style="opacity:0.8"><tspan x="1831.89" y="-578.05"/></text><text x="1855.85" y="-618.8" style="opacity:0.8"><tspan x="1855.85" y="-618.8"/></text><text x="364.38" y="-626.01" style="opacity:0.8"><tspan x="364.38" y="-626.01"/></text><text x="1824.93" y="-899.24" style="opacity:0.8"><tspan x="1824.93" y="-899.24"/></text><text x="-573.43" y="-674.1" style="opacity:0.8"><tspan x="-573.43" y="-674.1"/></text><text x="-2397.12" y="71.46" style="opacity:0.8"><tspan x="-2397.12" y="71.46"/></text><text x="-682.36" y="164.33" style="opacity:0.8"><tspan x="-682.36" y="164.33"/></text><text x="426.66" y="-14.854" style="opacity:0.8"><tspan x="426.66" y="-14.854"/></text><text x="450.62" y="-55.6" style="opacity:0.8"><tspan x="450.62" y="-55.6"/></text><text x="-1040.84" y="-62.806" style="opacity:0.8"><tspan x="-1040.84" y="-62.806"/></text><text x="419.7" y="-336.04" style="opacity:0.8"><tspan x="419.7" y="-336.04"/></text><text x="-608.03" y="-65.52" style="opacity:0.8"><tspan x="-608.03" y="-65.52"/></text><text x="-2431.72" y="680.03" style="opacity:0.8"><tspan x="-2431.72" y="680.03"/></text><text x="-456.94" y="-927.05" style="opacity:0.8"><tspan x="-456.94" y="-927.05"/></text><text x="350.66" y="-1340.52" style="opacity:0.8"><tspan x="350.66" y="-1340.52"/></text><text x="374.62" y="-1381.26" style="opacity:0.8"><tspan x="374.62" y="-1381.26"/></text><text x="-1116.84" y="-1388.47" style="opacity:0.8"><tspan x="-1116.84" y="-1388.47"/></text><text x="343.7" y="-1661.71" style="opacity:0.8"><tspan x="343.7" y="-1661.71"/></text><text x="1829.83" y="-1035.02" style="opacity:0.8"><tspan x="1829.83" y="-1035.02"/></text><text x="1853.79" y="-1075.76" style="opacity:0.8"><tspan x="1853.79" y="-1075.76"/></text><text x="362.32" y="-1082.97" style="opacity:0.8"><tspan x="362.32" y="-1082.97"/></text><text x="1822.87" y="-1356.2" style="opacity:0.8"><tspan x="1822.87" y="-1356.2"/></text><text x="-575.49" y="-1131.06" style="opacity:0.8"><tspan x="-575.49" y="-1131.06"/></text><text x="-2399.18" y="-385.5" style="opacity:0.8"><tspan x="-2399.18" y="-385.5"/></text><text x="-684.42" y="-292.63" style="opacity:0.8"><tspan x="-684.42" y="-292.63"/></text><text x="155.59" y="-51.718" style="opacity:0.8"><tspan x="155.59" y="-51.718"/></text><text x="179.55" y="-92.46" style="opacity:0.8"><tspan x="179.55" y="-92.46"/></text><text x="-1090.26" y="-286.49" style="opacity:0.8"><tspan x="-1090.26" y="-286.49"/></text><text x="-282.66" y="-699.96" style="opacity:0.8"><tspan x="-282.66" y="-699.96"/></text><text x="-258.7" y="-740.7" style="opacity:0.8"><tspan x="-258.7" y="-740.7"/></text><text x="-1750.16" y="-747.91" style="opacity:0.8"><tspan x="-1750.16" y="-747.91"/></text><text x="-289.62" y="-1021.14" style="opacity:0.8"><tspan x="-289.62" y="-1021.14"/></text><text x="1196.5" y="-394.45" style="opacity:0.8"><tspan x="1196.5" y="-394.45"/></text><text x="1220.46" y="-435.19" style="opacity:0.8"><tspan x="1220.46" y="-435.19"/></text><text x="-271" y="-442.4" style="opacity:0.8"><tspan x="-271" y="-442.4"/></text><text x="1189.54" y="-715.64" style="opacity:0.8"><tspan x="1189.54" y="-715.64"/></text><text x="-1208.82" y="-490.5" style="opacity:0.8"><tspan x="-1208.82" y="-490.5"/></text><text x="-3032.5" y="255.06" style="opacity:0.8"><tspan x="-3032.5" y="255.06"/></text></g><text transform="matrix(0.90475 0 0 0.90475 -716.75 -701.05)" x="-664.27" y="1159.42" style="font-size:14;opacity:0.8"><tspan x="-664.27" y="1159.42"/></text></g><g style="font-size:12.666"><text x="435.9" y="-393.23" style="font-family:Droid Sans"><tspan x="435.9" y="-393.23"/><tspan x="435.9" y="-377.39"/></text><g style="font-family:Bitstream Vera Sans"><text x="901.09" y="-875.27" style="opacity:0.8"><tspan x="901.09" y="-875.27"/></text><text x="-922.6" y="-129.72" style="opacity:0.8"><tspan x="-922.6" y="-129.72"/></text><text x="1628.17" y="-1160.27" style="opacity:0.8"><tspan x="1628.17" y="-1160.27"/></text><text x="1652.13" y="-1201.01" style="opacity:0.8"><tspan x="1652.13" y="-1201.01"/></text><text x="160.67" y="-1208.22" style="opacity:0.8"><tspan x="160.67" y="-1208.22"/></text><text x="1621.21" y="-1481.45" style="opacity:0.8"><tspan x="1621.21" y="-1481.45"/></text></g></g><use xlink:href="#0"/></g><g style="fill:#ff4500"><g transform="matrix(8.0507 0 0 8.74816 57.63 858.71)"><g style="font-family:Bitstream Vera Sans"><g style="font-size:12.666"><text y="-21.19" x="877.23" style="opacity:0.8"><tspan y="-21.19" x="877.23"/></text><text y="-61.929" x="901.19" style="opacity:0.8"><tspan y="-61.929" x="901.19"/></text><text y="-92.01" x="-569.37" style="opacity:0.8"><tspan y="-92.01" x="-569.37"/></text><text y="653.55" x="-2393.06" style="opacity:0.8"><tspan y="653.55" x="-2393.06"/></text><text y="-477.33" x="-454.88" style="opacity:0.8"><tspan y="-477.33" x="-454.88"/></text><text y="-890.8" x="352.72" style="opacity:0.8"><tspan y="-890.8" x="352.72"/></text><text y="-931.54" x="376.68" style="opacity:0.8"><tspan y="-931.54" x="376.68"/></text><text y="-938.75" x="-1114.78" style="opacity:0.8"><tspan y="-938.75" x="-1114.78"/></text><text y="-1211.98" x="345.76" style="opacity:0.8"><tspan y="-1211.98" x="345.76"/></text><text y="-585.29" x="1831.89" style="opacity:0.8"><tspan y="-585.29" x="1831.89"/></text><text y="-626.03" x="1855.85" style="opacity:0.8"><tspan y="-626.03" x="1855.85"/></text><text y="-633.24" x="364.38" style="opacity:0.8"><tspan y="-633.24" x="364.38"/></text><text y="-906.48" x="1824.93" style="opacity:0.8"><tspan y="-906.48" x="1824.93"/></text><text y="-681.34" x="-573.43" style="opacity:0.8"><tspan y="-681.34" x="-573.43"/></text><text y="64.22" x="-2397.12" style="opacity:0.8"><tspan y="64.22" x="-2397.12"/></text><text y="157.09" x="-682.36" style="opacity:0.8"><tspan y="157.09" x="-682.36"/></text><text y="-22.09" x="426.66" style="opacity:0.8"><tspan y="-22.09" x="426.66"/></text><text y="-62.834" x="450.62" style="opacity:0.8"><tspan y="-62.834" x="450.62"/></text><text y="-70.04" x="-1040.84" style="opacity:0.8"><tspan y="-70.04" x="-1040.84"/></text><text y="-343.28" x="419.7" style="opacity:0.8"><tspan y="-343.28" x="419.7"/></text><text y="-72.76" x="-608.03" style="opacity:0.8"><tspan y="-72.76" x="-608.03"/></text><text y="672.8" x="-2431.72" style="opacity:0.8"><tspan y="672.8" x="-2431.72"/></text><text y="-934.29" x="-456.94" style="opacity:0.8"><tspan y="-934.29" x="-456.94"/></text><text y="-1347.76" x="350.66" style="opacity:0.8"><tspan y="-1347.76" x="350.66"/></text><text y="-1388.5" x="374.62" style="opacity:0.8"><tspan y="-1388.5" x="374.62"/></text><text y="-1395.71" x="-1116.84" style="opacity:0.8"><tspan y="-1395.71" x="-1116.84"/></text><text y="-1668.94" x="343.7" style="opacity:0.8"><tspan y="-1668.94" x="343.7"/></text><text y="-1042.25" x="1829.83" style="opacity:0.8"><tspan y="-1042.25" x="1829.83"/></text><text y="-1082.99" x="1853.79" style="opacity:0.8"><tspan y="-1082.99" x="1853.79"/></text><text y="-1090.2" x="362.32" style="opacity:0.8"><tspan y="-1090.2" x="362.32"/></text><text y="-1363.44" x="1822.87" style="opacity:0.8"><tspan y="-1363.44" x="1822.87"/></text><text y="-1138.3" x="-575.49" style="opacity:0.8"><tspan y="-1138.3" x="-575.49"/></text><text y="-392.74" x="-2399.18" style="opacity:0.8"><tspan y="-392.74" x="-2399.18"/></text><text y="-299.87" x="-684.42" style="opacity:0.8"><tspan y="-299.87" x="-684.42"/></text><text y="-58.956" x="155.59" style="opacity:0.8"><tspan y="-58.956" x="155.59"/></text><text y="-99.7" x="179.55" style="opacity:0.8"><tspan y="-99.7" x="179.55"/></text><text y="-293.73" x="-1090.26" style="opacity:0.8"><tspan y="-293.73" x="-1090.26"/></text><text y="-707.2" x="-282.66" style="opacity:0.8"><tspan y="-707.2" x="-282.66"/></text><text y="-747.94" x="-258.7" style="opacity:0.8"><tspan y="-747.94" x="-258.7"/></text><text y="-755.15" x="-1750.16" style="opacity:0.8"><tspan y="-755.15" x="-1750.16"/></text><text y="-1028.38" x="-289.62" style="opacity:0.8"><tspan y="-1028.38" x="-289.62"/></text><text y="-401.69" x="1196.5" style="opacity:0.8"><tspan y="-401.69" x="1196.5"/></text><text y="-442.43" x="1220.46" style="opacity:0.8"><tspan y="-442.43" x="1220.46"/></text><text y="-449.64" x="-271" style="opacity:0.8"><tspan y="-449.64" x="-271"/></text><text y="-722.88" x="1189.54" style="opacity:0.8"><tspan y="-722.88" x="1189.54"/></text><text y="-497.73" x="-1208.82" style="opacity:0.8"><tspan y="-497.73" x="-1208.82"/></text><text y="247.82" x="-3032.5" style="opacity:0.8"><tspan y="247.82" x="-3032.5"/></text></g><text y="1159.42" x="-664.27" transform="matrix(0.90475 0 0 0.90475 -716.75 -708.29)" style="font-size:14;opacity:0.8"><tspan y="1159.42" x="-664.27"/></text><g style="font-size:12.666"><text y="-13.949" x="877.23" style="opacity:0.8"><tspan y="-13.949" x="877.23"/></text><text y="-54.691" x="901.19" style="opacity:0.8"><tspan y="-54.691" x="901.19"/></text><text y="-84.77" x="-569.37" style="opacity:0.8"><tspan y="-84.77" x="-569.37"/></text><text y="660.78" x="-2393.06" style="opacity:0.8"><tspan y="660.78" x="-2393.06"/></text><text y="-470.09" x="-454.88" style="opacity:0.8"><tspan y="-470.09" x="-454.88"/></text><text y="-883.56" x="352.72" style="opacity:0.8"><tspan y="-883.56" x="352.72"/></text><text y="-924.3" x="376.68" style="opacity:0.8"><tspan y="-924.3" x="376.68"/></text><text y="-931.51" x="-1114.78" style="opacity:0.8"><tspan y="-931.51" x="-1114.78"/></text><text y="-1204.75" x="345.76" style="opacity:0.8"><tspan y="-1204.75" x="345.76"/></text><text y="-578.05" x="1831.89" style="opacity:0.8"><tspan y="-578.05" x="1831.89"/></text><text y="-618.8" x="1855.85" style="opacity:0.8"><tspan y="-618.8" x="1855.85"/></text><text y="-626.01" x="364.38" style="opacity:0.8"><tspan y="-626.01" x="364.38"/></text><text y="-899.24" x="1824.93" style="opacity:0.8"><tspan y="-899.24" x="1824.93"/></text><text y="-674.1" x="-573.43" style="opacity:0.8"><tspan y="-674.1" x="-573.43"/></text><text y="71.46" x="-2397.12" style="opacity:0.8"><tspan y="71.46" x="-2397.12"/></text><text y="164.33" x="-682.36" style="opacity:0.8"><tspan y="164.33" x="-682.36"/></text><text y="-14.854" x="426.66" style="opacity:0.8"><tspan y="-14.854" x="426.66"/></text><text y="-55.6" x="450.62" style="opacity:0.8"><tspan y="-55.6" x="450.62"/></text><text y="-62.806" x="-1040.84" style="opacity:0.8"><tspan y="-62.806" x="-1040.84"/></text><text y="-336.04" x="419.7" style="opacity:0.8"><tspan y="-336.04" x="419.7"/></text><text y="-65.52" x="-608.03" style="opacity:0.8"><tspan y="-65.52" x="-608.03"/></text><text y="680.03" x="-2431.72" style="opacity:0.8"><tspan y="680.03" x="-2431.72"/></text><text y="-927.05" x="-456.94" style="opacity:0.8"><tspan y="-927.05" x="-456.94"/></text><text y="-1340.52" x="350.66" style="opacity:0.8"><tspan y="-1340.52" x="350.66"/></text><text y="-1381.26" x="374.62" style="opacity:0.8"><tspan y="-1381.26" x="374.62"/></text><text y="-1388.47" x="-1116.84" style="opacity:0.8"><tspan y="-1388.47" x="-1116.84"/></text><text y="-1661.71" x="343.7" style="opacity:0.8"><tspan y="-1661.71" x="343.7"/></text><text y="-1035.02" x="1829.83" style="opacity:0.8"><tspan y="-1035.02" x="1829.83"/></text><text y="-1075.76" x="1853.79" style="opacity:0.8"><tspan y="-1075.76" x="1853.79"/></text><text y="-1082.97" x="362.32" style="opacity:0.8"><tspan y="-1082.97" x="362.32"/></text><text y="-1356.2" x="1822.87" style="opacity:0.8"><tspan y="-1356.2" x="1822.87"/></text><text y="-1131.06" x="-575.49" style="opacity:0.8"><tspan y="-1131.06" x="-575.49"/></text><text y="-385.5" x="-2399.18" style="opacity:0.8"><tspan y="-385.5" x="-2399.18"/></text><text y="-292.63" x="-684.42" style="opacity:0.8"><tspan y="-292.63" x="-684.42"/></text><text y="-51.718" x="155.59" style="opacity:0.8"><tspan y="-51.718" x="155.59"/></text><text y="-92.46" x="179.55" style="opacity:0.8"><tspan y="-92.46" x="179.55"/></text><text y="-286.49" x="-1090.26" style="opacity:0.8"><tspan y="-286.49" x="-1090.26"/></text><text y="-699.96" x="-282.66" style="opacity:0.8"><tspan y="-699.96" x="-282.66"/></text><text y="-740.7" x="-258.7" style="opacity:0.8"><tspan y="-740.7" x="-258.7"/></text><text y="-747.91" x="-1750.16" style="opacity:0.8"><tspan y="-747.91" x="-1750.16"/></text><text y="-1021.14" x="-289.62" style="opacity:0.8"><tspan y="-1021.14" x="-289.62"/></text><text y="-394.45" x="1196.5" style="opacity:0.8"><tspan y="-394.45" x="1196.5"/></text><text y="-435.19" x="1220.46" style="opacity:0.8"><tspan y="-435.19" x="1220.46"/></text><text y="-442.4" x="-271" style="opacity:0.8"><tspan y="-442.4" x="-271"/></text><text y="-715.64" x="1189.54" style="opacity:0.8"><tspan y="-715.64" x="1189.54"/></text><text y="-490.5" x="-1208.82" style="opacity:0.8"><tspan y="-490.5" x="-1208.82"/></text><text y="255.06" x="-3032.5" style="opacity:0.8"><tspan y="255.06" x="-3032.5"/></text></g><text y="1159.42" x="-664.27" transform="matrix(0.90475 0 0 0.90475 -716.75 -701.05)" style="font-size:14;opacity:0.8"><tspan y="1159.42" x="-664.27"/></text></g><g style="font-size:12.666"><text y="-393.23" x="435.9" style="font-family:Droid Sans"><tspan y="-393.23" x="435.9"/><tspan y="-377.39" x="435.9"/></text><g style="font-family:Bitstream Vera Sans"><text y="-875.27" x="901.09" style="opacity:0.8"><tspan y="-875.27" x="901.09"/></text><text y="-129.72" x="-922.6" style="opacity:0.8"><tspan y="-129.72" x="-922.6"/></text><text y="-1160.27" x="1628.17" style="opacity:0.8"><tspan y="-1160.27" x="1628.17"/></text><text y="-1201.01" x="1652.13" style="opacity:0.8"><tspan y="-1201.01" x="1652.13"/></text><text y="-1208.22" x="160.67" style="opacity:0.8"><tspan y="-1208.22" x="160.67"/></text><text y="-1481.45" x="1621.21" style="opacity:0.8"><tspan y="-1481.45" x="1621.21"/></text></g></g><use xlink:href="#0"/></g><g transform="matrix(6.1137 0 0 5.88134 73.67 880.02)"><g style="font-family:Bitstream Vera Sans"><g style="font-size:12.666"><text x="877.23" y="-21.19" style="opacity:0.8"><tspan x="877.23" y="-21.19"/></text><text x="901.19" y="-61.929" style="opacity:0.8"><tspan x="901.19" y="-61.929"/></text><text x="-569.37" y="-92.01" style="opacity:0.8"><tspan x="-569.37" y="-92.01"/></text><text x="-2393.06" y="653.55" style="opacity:0.8"><tspan x="-2393.06" y="653.55"/></text><text x="-454.88" y="-477.33" style="opacity:0.8"><tspan x="-454.88" y="-477.33"/></text><text x="352.72" y="-890.8" style="opacity:0.8"><tspan x="352.72" y="-890.8"/></text><text x="376.68" y="-931.54" style="opacity:0.8"><tspan x="376.68" y="-931.54"/></text><text x="-1114.78" y="-938.75" style="opacity:0.8"><tspan x="-1114.78" y="-938.75"/></text><text x="345.76" y="-1211.98" style="opacity:0.8"><tspan x="345.76" y="-1211.98"/></text><text x="1831.89" y="-585.29" style="opacity:0.8"><tspan x="1831.89" y="-585.29"/></text><text x="1855.85" y="-626.03" style="opacity:0.8"><tspan x="1855.85" y="-626.03"/></text><text x="364.38" y="-633.24" style="opacity:0.8"><tspan x="364.38" y="-633.24"/></text><text x="1824.93" y="-906.48" style="opacity:0.8"><tspan x="1824.93" y="-906.48"/></text><text x="-573.43" y="-681.34" style="opacity:0.8"><tspan x="-573.43" y="-681.34"/></text><text x="-2397.12" y="64.22" style="opacity:0.8"><tspan x="-2397.12" y="64.22"/></text><text x="-682.36" y="157.09" style="opacity:0.8"><tspan x="-682.36" y="157.09"/></text><text x="426.66" y="-22.09" style="opacity:0.8"><tspan x="426.66" y="-22.09"/></text><text x="450.62" y="-62.834" style="opacity:0.8"><tspan x="450.62" y="-62.834"/></text><text x="-1040.84" y="-70.04" style="opacity:0.8"><tspan x="-1040.84" y="-70.04"/></text><text x="419.7" y="-343.28" style="opacity:0.8"><tspan x="419.7" y="-343.28"/></text><text x="-608.03" y="-72.76" style="opacity:0.8"><tspan x="-608.03" y="-72.76"/></text><text x="-2431.72" y="672.8" style="opacity:0.8"><tspan x="-2431.72" y="672.8"/></text><text x="-456.94" y="-934.29" style="opacity:0.8"><tspan x="-456.94" y="-934.29"/></text><text x="350.66" y="-1347.76" style="opacity:0.8"><tspan x="350.66" y="-1347.76"/></text><text x="374.62" y="-1388.5" style="opacity:0.8"><tspan x="374.62" y="-1388.5"/></text><text x="-1116.84" y="-1395.71" style="opacity:0.8"><tspan x="-1116.84" y="-1395.71"/></text><text x="343.7" y="-1668.94" style="opacity:0.8"><tspan x="343.7" y="-1668.94"/></text><text x="1829.83" y="-1042.25" style="opacity:0.8"><tspan x="1829.83" y="-1042.25"/></text><text x="1853.79" y="-1082.99" style="opacity:0.8"><tspan x="1853.79" y="-1082.99"/></text><text x="362.32" y="-1090.2" style="opacity:0.8"><tspan x="362.32" y="-1090.2"/></text><text x="1822.87" y="-1363.44" style="opacity:0.8"><tspan x="1822.87" y="-1363.44"/></text><text x="-575.49" y="-1138.3" style="opacity:0.8"><tspan x="-575.49" y="-1138.3"/></text><text x="-2399.18" y="-392.74" style="opacity:0.8"><tspan x="-2399.18" y="-392.74"/></text><text x="-684.42" y="-299.87" style="opacity:0.8"><tspan x="-684.42" y="-299.87"/></text><text x="155.59" y="-58.956" style="opacity:0.8"><tspan x="155.59" y="-58.956"/></text><text x="179.55" y="-99.7" style="opacity:0.8"><tspan x="179.55" y="-99.7"/></text><text x="-1090.26" y="-293.73" style="opacity:0.8"><tspan x="-1090.26" y="-293.73"/></text><text x="-282.66" y="-707.2" style="opacity:0.8"><tspan x="-282.66" y="-707.2"/></text><text x="-258.7" y="-747.94" style="opacity:0.8"><tspan x="-258.7" y="-747.94"/></text><text x="-1750.16" y="-755.15" style="opacity:0.8"><tspan x="-1750.16" y="-755.15"/></text><text x="-289.62" y="-1028.38" style="opacity:0.8"><tspan x="-289.62" y="-1028.38"/></text><text x="1196.5" y="-401.69" style="opacity:0.8"><tspan x="1196.5" y="-401.69"/></text><text x="1220.46" y="-442.43" style="opacity:0.8"><tspan x="1220.46" y="-442.43"/></text><text x="-271" y="-449.64" style="opacity:0.8"><tspan x="-271" y="-449.64"/></text><text x="1189.54" y="-722.88" style="opacity:0.8"><tspan x="1189.54" y="-722.88"/></text><text x="-1208.82" y="-497.73" style="opacity:0.8"><tspan x="-1208.82" y="-497.73"/></text><text x="-3032.5" y="247.82" style="opacity:0.8"><tspan x="-3032.5" y="247.82"/></text></g><text transform="matrix(0.90475 0 0 0.90475 -716.75 -708.29)" x="-664.27" y="1159.42" style="font-size:14;opacity:0.8"><tspan x="-664.27" y="1159.42"/></text><g style="font-size:12.666"><text x="877.23" y="-13.949" style="opacity:0.8"><tspan x="877.23" y="-13.949"/></text><text x="901.19" y="-54.691" style="opacity:0.8"><tspan x="901.19" y="-54.691"/></text><text x="-569.37" y="-84.77" style="opacity:0.8"><tspan x="-569.37" y="-84.77"/></text><text x="-2393.06" y="660.78" style="opacity:0.8"><tspan x="-2393.06" y="660.78"/></text><text x="-454.88" y="-470.09" style="opacity:0.8"><tspan x="-454.88" y="-470.09"/></text><text x="352.72" y="-883.56" style="opacity:0.8"><tspan x="352.72" y="-883.56"/></text><text x="376.68" y="-924.3" style="opacity:0.8"><tspan x="376.68" y="-924.3"/></text><text x="-1114.78" y="-931.51" style="opacity:0.8"><tspan x="-1114.78" y="-931.51"/></text><text x="345.76" y="-1204.75" style="opacity:0.8"><tspan x="345.76" y="-1204.75"/></text><text x="1831.89" y="-578.05" style="opacity:0.8"><tspan x="1831.89" y="-578.05"/></text><text x="1855.85" y="-618.8" style="opacity:0.8"><tspan x="1855.85" y="-618.8"/></text><text x="364.38" y="-626.01" style="opacity:0.8"><tspan x="364.38" y="-626.01"/></text><text x="1824.93" y="-899.24" style="opacity:0.8"><tspan x="1824.93" y="-899.24"/></text><text x="-573.43" y="-674.1" style="opacity:0.8"><tspan x="-573.43" y="-674.1"/></text><text x="-2397.12" y="71.46" style="opacity:0.8"><tspan x="-2397.12" y="71.46"/></text><text x="-682.36" y="164.33" style="opacity:0.8"><tspan x="-682.36" y="164.33"/></text><text x="426.66" y="-14.854" style="opacity:0.8"><tspan x="426.66" y="-14.854"/></text><text x="450.62" y="-55.6" style="opacity:0.8"><tspan x="450.62" y="-55.6"/></text><text x="-1040.84" y="-62.806" style="opacity:0.8"><tspan x="-1040.84" y="-62.806"/></text><text x="419.7" y="-336.04" style="opacity:0.8"><tspan x="419.7" y="-336.04"/></text><text x="-608.03" y="-65.52" style="opacity:0.8"><tspan x="-608.03" y="-65.52"/></text><text x="-2431.72" y="680.03" style="opacity:0.8"><tspan x="-2431.72" y="680.03"/></text><text x="-456.94" y="-927.05" style="opacity:0.8"><tspan x="-456.94" y="-927.05"/></text><text x="350.66" y="-1340.52" style="opacity:0.8"><tspan x="350.66" y="-1340.52"/></text><text x="374.62" y="-1381.26" style="opacity:0.8"><tspan x="374.62" y="-1381.26"/></text><text x="-1116.84" y="-1388.47" style="opacity:0.8"><tspan x="-1116.84" y="-1388.47"/></text><text x="343.7" y="-1661.71" style="opacity:0.8"><tspan x="343.7" y="-1661.71"/></text><text x="1829.83" y="-1035.02" style="opacity:0.8"><tspan x="1829.83" y="-1035.02"/></text><text x="1853.79" y="-1075.76" style="opacity:0.8"><tspan x="1853.79" y="-1075.76"/></text><text x="362.32" y="-1082.97" style="opacity:0.8"><tspan x="362.32" y="-1082.97"/></text><text x="1822.87" y="-1356.2" style="opacity:0.8"><tspan x="1822.87" y="-1356.2"/></text><text x="-575.49" y="-1131.06" style="opacity:0.8"><tspan x="-575.49" y="-1131.06"/></text><text x="-2399.18" y="-385.5" style="opacity:0.8"><tspan x="-2399.18" y="-385.5"/></text><text x="-684.42" y="-292.63" style="opacity:0.8"><tspan x="-684.42" y="-292.63"/></text><text x="155.59" y="-51.718" style="opacity:0.8"><tspan x="155.59" y="-51.718"/></text><text x="179.55" y="-92.46" style="opacity:0.8"><tspan x="179.55" y="-92.46"/></text><text x="-1090.26" y="-286.49" style="opacity:0.8"><tspan x="-1090.26" y="-286.49"/></text><text x="-282.66" y="-699.96" style="opacity:0.8"><tspan x="-282.66" y="-699.96"/></text><text x="-258.7" y="-740.7" style="opacity:0.8"><tspan x="-258.7" y="-740.7"/></text><text x="-1750.16" y="-747.91" style="opacity:0.8"><tspan x="-1750.16" y="-747.91"/></text><text x="-289.62" y="-1021.14" style="opacity:0.8"><tspan x="-289.62" y="-1021.14"/></text><text x="1196.5" y="-394.45" style="opacity:0.8"><tspan x="1196.5" y="-394.45"/></text><text x="1220.46" y="-435.19" style="opacity:0.8"><tspan x="1220.46" y="-435.19"/></text><text x="-271" y="-442.4" style="opacity:0.8"><tspan x="-271" y="-442.4"/></text><text x="1189.54" y="-715.64" style="opacity:0.8"><tspan x="1189.54" y="-715.64"/></text><text x="-1208.82" y="-490.5" style="opacity:0.8"><tspan x="-1208.82" y="-490.5"/></text><text x="-3032.5" y="255.06" style="opacity:0.8"><tspan x="-3032.5" y="255.06"/></text></g><text transform="matrix(0.90475 0 0 0.90475 -716.75 -701.05)" x="-664.27" y="1159.42" style="font-size:14;opacity:0.8"><tspan x="-664.27" y="1159.42"/></text></g><g style="font-size:12.666"><text x="435.9" y="-393.23" style="font-family:Droid Sans"><tspan x="435.9" y="-393.23"/><tspan x="435.9" y="-377.39"/></text><g style="font-family:Bitstream Vera Sans"><text x="901.09" y="-875.27" style="opacity:0.8"><tspan x="901.09" y="-875.27"/></text><text x="-922.6" y="-129.72" style="opacity:0.8"><tspan x="-922.6" y="-129.72"/></text><text x="1628.17" y="-1160.27" style="opacity:0.8"><tspan x="1628.17" y="-1160.27"/></text><text x="1652.13" y="-1201.01" style="opacity:0.8"><tspan x="1652.13" y="-1201.01"/></text><text x="160.67" y="-1208.22" style="opacity:0.8"><tspan x="160.67" y="-1208.22"/></text><text x="1621.21" y="-1481.45" style="opacity:0.8"><tspan x="1621.21" y="-1481.45"/></text></g></g><use xlink:href="#0"/></g></g></g></svg>