<svg xmlns="http://www.w3.org/2000/svg" viewBox="0 0 256 256"><defs><clipPath><path transform="matrix(15.33333 0 0 11.5 415 -125.5)" d="m -24 13 c 0 1.105 -0.672 2 -1.5 2 -0.828 0 -1.5 -0.895 -1.5 -2 0 -1.105 0.672 -2 1.5 -2 0.828 0 1.5 0.895 1.5 2 z"/></clipPath></defs><g style="fill:#fff"><path d="m 228.31 987.3 c 92.05 -130.93 -77.948 -263.6 -186.39 -156.91 -102.17 100.51 -7.449 256.68 119.69 207.86 26.526 -10.185 49.802 -26.914 66.7 -50.948 z" transform="translate(1.291 -790.59)" style="color:#000"/></g><path d="m 67.68 180.09 c -5.342 -2.124 -10.681 -7.242 -14.356 -13.76 -1.691 -3 -1.914 -4.408 -1.889 -11.907 0.022 -6.552 0.365 -9.189 1.493 -11.482 2.602 -5.292 6.575 -9.772 10.959 -12.357 4.133 -2.437 4.646 -2.526 14.469 -2.5 l 10.184 0.027 v -20.449 v -20.449 l 12.98 -13.704 l 12.98 -13.704 l 24.962 0.428 l 24.962 0.428 v 50.963 c 0 56.34 0.332 52.56 -5.262 59.911 -1.466 1.928 -4.558 4.798 -6.871 6.379 -4.097 2.799 -4.425 2.874 -12.612 2.874 -9.677 0 -12.458 -1.113 -18.296 -7.329 -5.702 -6.071 -6.832 -9.207 -6.859 -19.04 -0.019 -6.714 0.288 -9.115 1.459 -11.403 2.385 -4.66 8.555 -11.136 12.783 -13.417 3.609 -1.947 4.622 -2.09 12.996 -1.829 l 9.08 0.283 v -20.2 v -20.2 h -24.24 h -24.24 l -0.447 37.37 l -0.447 37.37 l -2.246 4.393 c -2.487 4.866 -7.547 10.04 -12.1 12.365 -3.879 1.983 -15.407 2.535 -19.442 0.931 z m 14.13 -14.701 c 7.937 -4.01 8.08 -17.03 0.24 -21.952 -9.857 -6.179 -21.388 5.732 -16 16.527 3.082 6.176 9.739 8.467 15.76 5.424 z m 64.23 -1.077 c 2.526 -1.904 4.79 -6.577 4.79 -9.889 0 -3.71 -2.382 -8.176 -5.589 -10.478 -5.122 -3.676 -13.173 -1.364 -15.9 4.566 -1.469 3.193 -1.348 8.847 0.258 12.155 2.747 5.656 11.265 7.544 16.441 3.645 z" style="fill:#ffa07a;opacity:0.97"/><path d="m 84.42 201.74 c -5.496 -2.219 -10.989 -7.566 -14.769 -14.376 -1.74 -3.134 -1.969 -4.605 -1.943 -12.44 0.022 -6.845 0.375 -9.6 1.536 -11.996 2.677 -5.529 6.765 -10.209 11.275 -12.91 4.252 -2.546 4.78 -2.639 14.886 -2.612 l 10.478 0.028 v -21.364 v -21.364 l 13.354 -14.317 l 13.354 -14.317 l 25.68 0.447 l 25.68 0.447 v 53.24 c 0 58.861 0.342 54.912 -5.414 62.59 -1.508 2.01 -4.689 5.01 -7.07 6.664 -4.215 2.924 -4.552 3 -12.975 3 -9.955 0 -12.817 -1.163 -18.823 -7.657 -5.866 -6.343 -7.03 -9.619 -7.06 -19.892 -0.02 -7.01 0.297 -9.523 1.501 -11.913 2.454 -4.869 8.801 -11.634 13.151 -14.02 3.713 -2.034 4.755 -2.184 13.371 -1.911 l 9.345 0.296 v -21.1 v -21.1 h -24.938 h -24.938 l -0.46 39.04 l -0.46 39.04 l -2.31 4.59 c -2.559 5.084 -7.765 10.489 -12.453 12.918 -3.991 2.072 -15.851 2.648 -20 0.973 z m 14.542 -15.359 c 8.166 -4.189 8.316 -17.792 0.246 -22.934 -10.141 -6.455 -22 5.988 -16.461 17.266 3.171 6.452 10.02 8.846 16.214 5.667 z m 66.08 -1.125 c 2.599 -1.989 4.928 -6.871 4.928 -10.331 0 -3.876 -2.451 -8.542 -5.75 -10.947 -5.27 -3.84 -13.552 -1.425 -16.358 4.77 -1.511 3.336 -1.387 9.243 0.265 12.699 2.826 5.909 11.589 7.882 16.914 3.808 z" style="fill:#ff4500;opacity:0.97"/></svg>