<svg xmlns="http://www.w3.org/2000/svg" viewBox="0 0 256 256"><defs><filter style="color-interpolation-filters:sRGB"><feBlend mode="darken" in2="BackgroundImage"/></filter></defs><g style="fill:#d3d3d3;color:#000"><path d="m 231.54 60.09 c 139.28 254.45 -369.54 266.45 -194.4 4.153 46.25 -67.48 156.91 -100.41 194.4 -4.153 z" style="fill:#fff"/><path d="m 505 567 c -0.554 0 -1 0.446 -1 1 v 12 c 0 0.554 0.446 1 1 1 h 14 c 0.554 0 1 -0.446 1 -1 v -12 v -1 h -3.5 l 1.5 3 h -2 l -1.5 -3 h -2 l 1.5 3 h -2 l -1.5 -3 h -2 l 1.5 3 h -2 l -1.5 -3 z m 4.997 6 l 5 2.5 l -5 2.5 z" transform="matrix(9.33898 0 0 8.12833 -4651.96 -4526.81)" style="fill:#ff4500;enable-background:new"/></g></svg>