<svg xmlns="http://www.w3.org/2000/svg" viewBox="0 0 256 256"><path d="m 3.74 950.97 c 19.829 131.87 217.21 135.83 247.04 7.636 30.702 -103.78 -80.47 -188.63 -163.63 -154.63 -55.684 16.07 -100.67 81.83 -83.41 146.99 z" transform="translate(0 -796.36)" style="fill:#fff;color:#000"/><g transform="matrix(1.35692 0 0 1.39531 39.16 40.694)" style="stroke:#ff4500"><path transform="matrix(1.88334 0 0 1.8857 38.953 24.887)" d="m 27.756 21.233 l -23.703 13.524 l 0.139 -27.29 z" style="fill:#ff7f50"/><path transform="matrix(0.78539 0 0 0.8909 6.553 62.62)" d="m 141.97 1.695 c 0 33.586 -30.885 60.814 -68.983 60.814 c -38.1 0 -68.983 -27.23 -68.983 -60.814 0 -33.586 30.885 -60.814 68.983 -60.814 c 38.1 0 68.983 27.23 68.983 60.814 z" style="fill:none;stroke-miterlimit:7;stroke-linecap:round;stroke-width:8.368"/></g></svg>