<svg xmlns="http://www.w3.org/2000/svg" viewBox="0 0 256 256" xmlns:xlink="http://www.w3.org/1999/xlink"><defs><clipPath id="0"><path d="m -24 13 c 0 1.105 -0.672 2 -1.5 2 -0.828 0 -1.5 -0.895 -1.5 -2 0 -1.105 0.672 -2 1.5 -2 0.828 0 1.5 0.895 1.5 2 z" transform="matrix(15.33333 0 0 11.5 415 -125.5)"/></clipPath></defs><g transform="translate(0 -796.36)"><path d="m 106.74 1052.08 c -25.842 -3.229 -43 -9.579 -59.776 -22.12 -12.508 -9.352 -21.673 -21.04 -30.607 -39.02 -29.878 -60.15 -18.945 -110.02 33.728 -153.86 42.931 -35.728 86.64 -47.933 123.32 -34.44 23.09 8.491 43.491 26.423 58.08 51.04 10.245 17.293 18.09 38.807 21.448 58.831 1.785 10.639 2.211 15.818 2.247 27.27 0.1 32.19 -8.239 54.41 -27.3 72.74 -21.916 21.08 -53.52 34.938 -89.33 39.16 -5.519 0.651 -27.551 0.917 -31.82 0.383 z" style="fill:#fff"/><g transform="matrix(0.54752 0 0 0.5202 -7.357 802.14)"><g style="stroke-width:0.926"><text y="251.31" x="676.86" line-height="125%" style="letter-spacing:0;word-spacing:0;font-size:119.67;font-family:Gentium Book Basic"><tspan y="251.31" x="676.86"/></text><text transform="scale(4.0128 0.2492)" y="685.16" x="351.17" style="font-size:43.479;font-family:Arial;text-anchor:middle"/><text y="177.24" x="1215.11" line-height="125%" style="letter-spacing:0;word-spacing:0;font-size:119.67;font-family:Gentium Book Basic"><tspan y="177.24" x="1215.11"/></text><text transform="scale(4.0128 0.2492)" y="387.89" x="485.3" style="font-size:43.479;font-family:Arial;text-anchor:middle"/><text y="9.389" x="222.84" line-height="125%" style="letter-spacing:0;word-spacing:0;font-size:119.67;font-family:Gentium Book Basic"><tspan y="9.389" x="222.84"/></text><text transform="scale(4.0128 0.2492)" y="-285.63" x="238.02" style="font-size:43.479;font-family:Arial;text-anchor:middle"/><text y="-191.06" x="1239.62" line-height="125%" style="letter-spacing:0;word-spacing:0;font-size:119.67;font-family:Gentium Book Basic"><tspan y="-191.06" x="1239.62"/></text><text transform="scale(4.0128 0.2492)" y="-1090.01" x="491.41" style="font-size:43.479;font-family:Arial;text-anchor:middle"/><text y="-265.15" x="1777.87" line-height="125%" style="letter-spacing:0;word-spacing:0;font-size:119.67;font-family:Gentium Book Basic"><tspan y="-265.15" x="1777.87"/></text><text transform="scale(4.0128 0.2492)" y="-1387.29" x="625.54" style="font-size:43.479;font-family:Arial;text-anchor:middle"/><text y="-702.59" x="1417.55" line-height="125%" style="letter-spacing:0;word-spacing:0;font-size:119.67;font-family:Gentium Book Basic"><tspan y="-702.59" x="1417.55"/></text><text transform="scale(4.0128 0.2492)" y="-3142.64" x="535.75" style="font-size:43.479;font-family:Arial;text-anchor:middle"/><text y="-776.66" x="1955.79" line-height="125%" style="letter-spacing:0;word-spacing:0;font-size:119.67;font-family:Gentium Book Basic"><tspan y="-776.66" x="1955.79"/></text><text transform="scale(4.0128 0.2492)" y="-3439.91" x="669.88" style="font-size:43.479;font-family:Arial;text-anchor:middle"/></g><g transform="matrix(0.92599 0 0 0.92599 1.222 37.08)" line-height="125%" style="letter-spacing:0;word-spacing:0;font-family:Gentium Book Basic"><text y="535.94" x="277.99" style="font-size:208.33"><tspan y="535.94" x="277.99"/></text><text y="-11.341" x="-307.18" style="font-size:200"><tspan y="-11.341" x="-307.18"/></text></g><g style="stroke-width:0.926"><text transform="scale(4.0128 0.2492)" y="-393.73" x="211.86" style="font-size:67.29;font-family:Arial;text-anchor:middle"/><text y="75.79" x="406.99" line-height="125%" style="letter-spacing:0;word-spacing:0;font-size:185.2;font-family:Gentium Book Basic"><tspan y="75.79" x="406.99"/></text><text transform="scale(4.0128 0.2492)" y="-196.26" x="383.87" style="font-size:67.29;font-family:Arial;text-anchor:middle"/><text y="-38.872" x="1240.02" line-height="125%" style="letter-spacing:0;word-spacing:0;font-size:185.2;font-family:Gentium Book Basic"><tspan y="-38.872" x="1240.02"/></text><text transform="scale(4.0128 0.2492)" y="-656.35" x="591.45" style="font-size:67.29;font-family:Arial;text-anchor:middle"/><text y="-87.61" x="432.42" line-height="125%" style="letter-spacing:0;word-spacing:0;font-size:185.2;font-family:Gentium Book Basic"><tspan y="-87.61" x="432.42"/></text><text transform="scale(4.0128 0.2492)" y="-851.94" x="390.2" style="font-size:67.29;font-family:Arial;text-anchor:middle"/><text y="-202.26" x="1265.45" line-height="125%" style="letter-spacing:0;word-spacing:0;font-size:185.2;font-family:Gentium Book Basic"><tspan y="-202.26" x="1265.45"/></text><text transform="scale(4.0128 0.2492)" y="-1312.02" x="597.79" style="font-size:67.29;font-family:Arial;text-anchor:middle"/><text y="330.83" x="-2354.79" line-height="125%" style="letter-spacing:0;word-spacing:0;font-size:185.2;font-family:Gentium Book Basic"><tspan y="330.83" x="-2354.79"/></text><text transform="scale(4.0128 0.2492)" y="827.18" x="-304.37" style="font-size:67.29;font-family:Arial;text-anchor:middle"/><text y="112.82" x="-569.23" line-height="125%" style="letter-spacing:0;word-spacing:0;font-size:185.2;font-family:Gentium Book Basic"><tspan y="112.82" x="-569.23"/></text><text transform="scale(4.0128 0.2492)" y="-47.635" x="140.59" style="font-size:67.29;font-family:Arial;text-anchor:middle"/><text y="162.03" x="120.99" line-height="125%" style="letter-spacing:0;word-spacing:0;font-size:185.2;font-family:Gentium Book Basic"><tspan y="162.03" x="120.99"/></text><text transform="scale(4.0128 0.2492)" y="149.84" x="312.59" style="font-size:67.29;font-family:Arial;text-anchor:middle"/><text y="47.38" x="954.02" line-height="125%" style="letter-spacing:0;word-spacing:0;font-size:185.2;font-family:Gentium Book Basic"><tspan y="47.38" x="954.02"/></text><text transform="scale(4.0128 0.2492)" y="-310.24" x="520.18" style="font-size:67.29;font-family:Arial;text-anchor:middle"/><text y="-1.36" x="146.42" line-height="125%" style="letter-spacing:0;word-spacing:0;font-size:185.2;font-family:Gentium Book Basic"><tspan y="-1.36" x="146.42"/></text><text transform="scale(4.0128 0.2492)" y="-505.84" x="318.93" style="font-size:67.29;font-family:Arial;text-anchor:middle"/><text y="-116.02" x="979.46" line-height="125%" style="letter-spacing:0;word-spacing:0;font-size:185.2;font-family:Gentium Book Basic"><tspan y="-116.02" x="979.46"/></text><text transform="scale(4.0128 0.2492)" y="-965.93" x="526.52" style="font-size:67.29;font-family:Arial;text-anchor:middle"/><text y="417.08" x="-2640.8" line-height="125%" style="letter-spacing:0;word-spacing:0;font-size:185.2;font-family:Gentium Book Basic"><tspan y="417.08" x="-2640.8"/></text><text transform="scale(4.0128 0.2492)" y="1173.29" x="-375.65" style="font-size:67.29;font-family:Arial;text-anchor:middle"/><text y="4.612" x="-1230.91" line-height="125%" style="letter-spacing:0;word-spacing:0;font-size:185.2;font-family:Gentium Book Basic"><tspan y="4.612" x="-1230.91"/></text><text transform="scale(4.0128 0.2492)" y="-481.85" x="-24.3" style="font-size:67.29;font-family:Arial;text-anchor:middle"/><text y="53.829" x="-540.7" line-height="125%" style="letter-spacing:0;word-spacing:0;font-size:185.2;font-family:Gentium Book Basic"><tspan y="53.829" x="-540.7"/></text><text transform="scale(4.0128 0.2492)" y="-284.38" x="147.7" style="font-size:67.29;font-family:Arial;text-anchor:middle"/><text y="-60.827" x="292.33" line-height="125%" style="letter-spacing:0;word-spacing:0;font-size:185.2;font-family:Gentium Book Basic"><tspan y="-60.827" x="292.33"/></text><text transform="scale(4.0128 0.2492)" y="-744.47" x="355.29" style="font-size:67.29;font-family:Arial;text-anchor:middle"/><text y="-109.57" x="-515.27" line-height="125%" style="letter-spacing:0;word-spacing:0;font-size:185.2;font-family:Gentium Book Basic"><tspan y="-109.57" x="-515.27"/></text><text transform="scale(4.0128 0.2492)" y="-940.06" x="154.04" style="font-size:67.29;font-family:Arial;text-anchor:middle"/><text y="-224.22" x="317.77" line-height="125%" style="letter-spacing:0;word-spacing:0;font-size:185.2;font-family:Gentium Book Basic"><tspan y="-224.22" x="317.77"/></text><text transform="scale(4.0128 0.2492)" y="-1400.14" x="361.62" style="font-size:67.29;font-family:Arial;text-anchor:middle"/><text y="308.87" x="-3302.48" line-height="125%" style="letter-spacing:0;word-spacing:0;font-size:185.2;font-family:Gentium Book Basic"><tspan y="308.87" x="-3302.48"/></text><text transform="scale(4.0128 0.2492)" y="739.06" x="-540.54" style="font-size:67.29;font-family:Arial;text-anchor:middle"/><text y="251.31" x="676.86" line-height="125%" style="letter-spacing:0;word-spacing:0;font-size:119.67;font-family:Gentium Book Basic"><tspan y="251.31" x="676.86"/></text><text transform="scale(4.0128 0.2492)" y="685.16" x="351.17" style="font-size:43.479;font-family:Arial;text-anchor:middle"/><text y="177.24" x="1215.11" line-height="125%" style="letter-spacing:0;word-spacing:0;font-size:119.67;font-family:Gentium Book Basic"><tspan y="177.24" x="1215.11"/></text><text transform="scale(4.0128 0.2492)" y="387.89" x="485.3" style="font-size:43.479;font-family:Arial;text-anchor:middle"/><text y="9.389" x="222.84" line-height="125%" style="letter-spacing:0;word-spacing:0;font-size:119.67;font-family:Gentium Book Basic"><tspan y="9.389" x="222.84"/></text><text transform="scale(4.0128 0.2492)" y="-285.63" x="238.02" style="font-size:43.479;font-family:Arial;text-anchor:middle"/><text y="-191.06" x="1239.62" line-height="125%" style="letter-spacing:0;word-spacing:0;font-size:119.67;font-family:Gentium Book Basic"><tspan y="-191.06" x="1239.62"/></text><text transform="scale(4.0128 0.2492)" y="-1090" x="491.41" style="font-size:43.479;font-family:Arial;text-anchor:middle"/><text y="-265.15" x="1777.87" line-height="125%" style="letter-spacing:0;word-spacing:0;font-size:119.67;font-family:Gentium Book Basic"><tspan y="-265.15" x="1777.87"/></text><text transform="scale(4.0128 0.2492)" y="-1387.28" x="625.54" style="font-size:43.479;font-family:Arial;text-anchor:middle"/><text y="-702.59" x="1417.55" line-height="125%" style="letter-spacing:0;word-spacing:0;font-size:119.67;font-family:Gentium Book Basic"><tspan y="-702.59" x="1417.55"/></text><text transform="scale(4.0128 0.2492)" y="-3142.62" x="535.75" style="font-size:43.479;font-family:Arial;text-anchor:middle"/><text y="-776.66" x="1955.79" line-height="125%" style="letter-spacing:0;word-spacing:0;font-size:119.67;font-family:Gentium Book Basic"><tspan y="-776.66" x="1955.79"/></text><text transform="scale(4.0128 0.2492)" y="-3439.89" x="669.88" style="font-size:43.479;font-family:Arial;text-anchor:middle"/></g><g transform="matrix(0.92599 0 0 0.92599 1.222 37.08)" line-height="125%" style="letter-spacing:0;word-spacing:0;font-family:Gentium Book Basic"><text y="535.94" x="277.99" style="font-size:208.33"><tspan y="535.94" x="277.99"/></text><text y="227.12" x="104.96" style="font-size:129.23"><tspan y="227.12" x="104.96"/></text></g><g style="stroke-width:0.926"><text transform="scale(4.0128 0.2492)" y="669.4" x="207.02" style="font-size:43.479;font-family:Arial;text-anchor:middle"/><text y="173.3" x="636.66" line-height="125%" style="letter-spacing:0;word-spacing:0;font-size:119.67;font-family:Gentium Book Basic"><tspan y="173.3" x="636.66"/></text><text transform="scale(4.0128 0.2492)" y="372.12" x="341.15" style="font-size:43.479;font-family:Arial;text-anchor:middle"/><text y="5.464" x="-355.61" line-height="125%" style="letter-spacing:0;word-spacing:0;font-size:119.67;font-family:Gentium Book Basic"><tspan y="5.464" x="-355.61"/></text><text transform="scale(4.0128 0.2492)" y="-301.39" x="93.88" style="font-size:43.479;font-family:Arial;text-anchor:middle"/><text y="-194.99" x="661.18" line-height="125%" style="letter-spacing:0;word-spacing:0;font-size:119.67;font-family:Gentium Book Basic"><tspan y="-194.99" x="661.18"/></text><text transform="scale(4.0128 0.2492)" y="-1105.78" x="347.26" style="font-size:43.479;font-family:Arial;text-anchor:middle"/><text y="-269.07" x="1199.43" line-height="125%" style="letter-spacing:0;word-spacing:0;font-size:119.67;font-family:Gentium Book Basic"><tspan y="-269.07" x="1199.43"/></text><text transform="scale(4.0128 0.2492)" y="-1403.05" x="481.39" style="font-size:43.479;font-family:Arial;text-anchor:middle"/><text y="-706.51" x="839.1" line-height="125%" style="letter-spacing:0;word-spacing:0;font-size:119.67;font-family:Gentium Book Basic"><tspan y="-706.51" x="839.1"/></text><text transform="scale(4.0128 0.2492)" y="-3158.4" x="391.6" style="font-size:43.479;font-family:Arial;text-anchor:middle"/><text y="-780.59" x="1377.35" line-height="125%" style="letter-spacing:0;word-spacing:0;font-size:119.67;font-family:Gentium Book Basic"><tspan y="-780.59" x="1377.35"/></text><text transform="scale(4.0128 0.2492)" y="-3455.68" x="525.73" style="font-size:43.479;font-family:Arial;text-anchor:middle"/></g><g transform="matrix(0.92599 0 0 0.92599 1.222 37.08)" line-height="125%" style="letter-spacing:0;word-spacing:0;font-family:Gentium Book Basic"><text y="531.69" x="-346.69" style="font-size:208.33"><tspan y="531.69" x="-346.69"/></text><text y="-15.584" x="-931.86" style="font-size:200"><tspan y="-15.584" x="-931.86"/></text></g><g style="stroke-width:0.926"><text transform="scale(4.0128 0.2492)" y="-409.5" x="67.71" style="font-size:67.29;font-family:Arial;text-anchor:middle"/><text y="71.857" x="-171.46" line-height="125%" style="letter-spacing:0;word-spacing:0;font-size:185.2;font-family:Gentium Book Basic"><tspan y="71.857" x="-171.46"/></text><text transform="scale(4.0128 0.2492)" y="-212.03" x="239.72" style="font-size:67.29;font-family:Arial;text-anchor:middle"/><text y="-42.798" x="661.57" line-height="125%" style="letter-spacing:0;word-spacing:0;font-size:185.2;font-family:Gentium Book Basic"><tspan y="-42.798" x="661.57"/></text><text transform="scale(4.0128 0.2492)" y="-672.11" x="447.31" style="font-size:67.29;font-family:Arial;text-anchor:middle"/><text y="-91.54" x="-146.03" line-height="125%" style="letter-spacing:0;word-spacing:0;font-size:185.2;font-family:Gentium Book Basic"><tspan y="-91.54" x="-146.03"/></text><text transform="scale(4.0128 0.2492)" y="-867.71" x="246.05" style="font-size:67.29;font-family:Arial;text-anchor:middle"/><text y="-206.19" x="687.01" line-height="125%" style="letter-spacing:0;word-spacing:0;font-size:185.2;font-family:Gentium Book Basic"><tspan y="-206.19" x="687.01"/></text><text transform="scale(4.0128 0.2492)" y="-1327.79" x="453.64" style="font-size:67.29;font-family:Arial;text-anchor:middle"/><text y="326.9" x="-2933.24" line-height="125%" style="letter-spacing:0;word-spacing:0;font-size:185.2;font-family:Gentium Book Basic"><tspan y="326.9" x="-2933.24"/></text><text transform="scale(4.0128 0.2492)" y="811.41" x="-448.52" style="font-size:67.29;font-family:Arial;text-anchor:middle"/><text y="108.9" x="-1147.67" line-height="125%" style="letter-spacing:0;word-spacing:0;font-size:185.2;font-family:Gentium Book Basic"><tspan y="108.9" x="-1147.67"/></text><text transform="scale(4.0128 0.2492)" y="-63.4" x="-3.557" style="font-size:67.29;font-family:Arial;text-anchor:middle"/><text y="158.1" x="-457.46" line-height="125%" style="letter-spacing:0;word-spacing:0;font-size:185.2;font-family:Gentium Book Basic"><tspan y="158.1" x="-457.46"/></text><text transform="scale(4.0128 0.2492)" y="134.07" x="168.44" style="font-size:67.29;font-family:Arial;text-anchor:middle"/><text y="43.45" x="375.57" line-height="125%" style="letter-spacing:0;word-spacing:0;font-size:185.2;font-family:Gentium Book Basic"><tspan y="43.45" x="375.57"/></text><text transform="scale(4.0128 0.2492)" y="-326.01" x="376.03" style="font-size:67.29;font-family:Arial;text-anchor:middle"/><text y="-5.29" x="-432.03" line-height="125%" style="letter-spacing:0;word-spacing:0;font-size:185.2;font-family:Gentium Book Basic"><tspan y="-5.29" x="-432.03"/></text><text transform="scale(4.0128 0.2492)" y="-521.6" x="174.78" style="font-size:67.29;font-family:Arial;text-anchor:middle"/><text y="-119.94" x="401.01" line-height="125%" style="letter-spacing:0;word-spacing:0;font-size:185.2;font-family:Gentium Book Basic"><tspan y="-119.94" x="401.01"/></text><text transform="scale(4.0128 0.2492)" y="-981.69" x="382.38" style="font-size:67.29;font-family:Arial;text-anchor:middle"/><text y="413.15" x="-3219.24" line-height="125%" style="letter-spacing:0;word-spacing:0;font-size:185.2;font-family:Gentium Book Basic"><tspan y="413.15" x="-3219.24"/></text><text transform="scale(4.0128 0.2492)" y="1157.52" x="-519.79" style="font-size:67.29;font-family:Arial;text-anchor:middle"/><text y="0.686" x="-1809.36" line-height="125%" style="letter-spacing:0;word-spacing:0;font-size:185.2;font-family:Gentium Book Basic"><tspan y="0.686" x="-1809.36"/></text><text transform="scale(4.0128 0.2492)" y="-497.62" x="-168.45" style="font-size:67.29;font-family:Arial;text-anchor:middle"/><text y="49.897" x="-1119.14" line-height="125%" style="letter-spacing:0;word-spacing:0;font-size:185.2;font-family:Gentium Book Basic"><tspan y="49.897" x="-1119.14"/></text><text transform="scale(4.0128 0.2492)" y="-300.15" x="3.552" style="font-size:67.29;font-family:Arial;text-anchor:middle"/><text y="-64.754" x="-286.11" line-height="125%" style="letter-spacing:0;word-spacing:0;font-size:185.2;font-family:Gentium Book Basic"><tspan y="-64.754" x="-286.11"/></text><text transform="scale(4.0128 0.2492)" y="-760.24" x="211.14" style="font-size:67.29;font-family:Arial;text-anchor:middle"/><text y="-113.5" x="-1093.72" line-height="125%" style="letter-spacing:0;word-spacing:0;font-size:185.2;font-family:Gentium Book Basic"><tspan y="-113.5" x="-1093.72"/></text><text transform="scale(4.0128 0.2492)" y="-955.82" x="9.889" style="font-size:67.29;font-family:Arial;text-anchor:middle"/><text y="-228.15" x="-260.68" line-height="125%" style="letter-spacing:0;word-spacing:0;font-size:185.2;font-family:Gentium Book Basic"><tspan y="-228.15" x="-260.68"/></text><text transform="scale(4.0128 0.2492)" y="-1415.91" x="217.49" style="font-size:67.29;font-family:Arial;text-anchor:middle"/><text y="304.94" x="-3880.93" line-height="125%" style="letter-spacing:0;word-spacing:0;font-size:185.2;font-family:Gentium Book Basic"><tspan y="304.94" x="-3880.93"/></text><text transform="scale(4.0128 0.2492)" y="723.29" x="-684.68" style="font-size:67.29;font-family:Arial;text-anchor:middle"/><text y="251.31" x="676.86" line-height="125%" style="letter-spacing:0;word-spacing:0;font-size:119.67;font-family:Gentium Book Basic"><tspan y="251.31" x="676.86"/></text><text transform="scale(4.0128 0.2492)" y="685.16" x="351.17" style="font-size:43.479;font-family:Arial;text-anchor:middle"/><text y="177.24" x="1215.11" line-height="125%" style="letter-spacing:0;word-spacing:0;font-size:119.67;font-family:Gentium Book Basic"><tspan y="177.24" x="1215.11"/></text><text transform="scale(4.0128 0.2492)" y="387.89" x="485.3" style="font-size:43.479;font-family:Arial;text-anchor:middle"/><text y="9.389" x="222.84" line-height="125%" style="letter-spacing:0;word-spacing:0;font-size:119.67;font-family:Gentium Book Basic"><tspan y="9.389" x="222.84"/></text><text transform="scale(4.0128 0.2492)" y="-285.63" x="238.02" style="font-size:43.479;font-family:Arial;text-anchor:middle"/><text y="-191.06" x="1239.62" line-height="125%" style="letter-spacing:0;word-spacing:0;font-size:119.67;font-family:Gentium Book Basic"><tspan y="-191.06" x="1239.62"/></text><text transform="scale(4.0128 0.2492)" y="-1090" x="491.41" style="font-size:43.479;font-family:Arial;text-anchor:middle"/><text y="-265.15" x="1777.87" line-height="125%" style="letter-spacing:0;word-spacing:0;font-size:119.67;font-family:Gentium Book Basic"><tspan y="-265.15" x="1777.87"/></text><text transform="scale(4.0128 0.2492)" y="-1387.28" x="625.54" style="font-size:43.479;font-family:Arial;text-anchor:middle"/><text y="-702.59" x="1417.55" line-height="125%" style="letter-spacing:0;word-spacing:0;font-size:119.67;font-family:Gentium Book Basic"><tspan y="-702.59" x="1417.55"/></text><text transform="scale(4.0128 0.2492)" y="-3142.62" x="535.75" style="font-size:43.479;font-family:Arial;text-anchor:middle"/><text y="-776.66" x="1955.79" line-height="125%" style="letter-spacing:0;word-spacing:0;font-size:119.67;font-family:Gentium Book Basic"><tspan y="-776.66" x="1955.79"/></text><text transform="scale(4.0128 0.2492)" y="-3439.89" x="669.88" style="font-size:43.479;font-family:Arial;text-anchor:middle"/></g><g transform="matrix(0.92599 0 0 0.92599 1.222 37.08)" line-height="125%" style="letter-spacing:0;word-spacing:0;font-family:Gentium Book Basic"><text y="535.94" x="277.99" style="font-size:208.33"><tspan y="535.94" x="277.99"/></text><text y="-11.341" x="-307.18" style="font-size:200"><tspan y="-11.341" x="-307.18"/></text></g><g style="stroke-width:0.926"><text transform="scale(4.0128 0.2492)" y="-393.73" x="211.86" style="font-size:67.29;font-family:Arial;text-anchor:middle"/><text y="75.79" x="406.99" line-height="125%" style="letter-spacing:0;word-spacing:0;font-size:185.2;font-family:Gentium Book Basic"><tspan y="75.79" x="406.99"/></text><text transform="scale(4.0128 0.2492)" y="-196.26" x="383.87" style="font-size:67.29;font-family:Arial;text-anchor:middle"/><text y="-38.872" x="1240.02" line-height="125%" style="letter-spacing:0;word-spacing:0;font-size:185.2;font-family:Gentium Book Basic"><tspan y="-38.872" x="1240.02"/></text><text transform="scale(4.0128 0.2492)" y="-656.35" x="591.45" style="font-size:67.29;font-family:Arial;text-anchor:middle"/><text y="-87.61" x="432.42" line-height="125%" style="letter-spacing:0;word-spacing:0;font-size:185.2;font-family:Gentium Book Basic"><tspan y="-87.61" x="432.42"/></text><text transform="scale(4.0128 0.2492)" y="-851.93" x="390.2" style="font-size:67.29;font-family:Arial;text-anchor:middle"/><text y="-202.26" x="1265.45" line-height="125%" style="letter-spacing:0;word-spacing:0;font-size:185.2;font-family:Gentium Book Basic"><tspan y="-202.26" x="1265.45"/></text><text transform="scale(4.0128 0.2492)" y="-1312.01" x="597.79" style="font-size:67.29;font-family:Arial;text-anchor:middle"/><text y="330.83" x="-2354.79" line-height="125%" style="letter-spacing:0;word-spacing:0;font-size:185.2;font-family:Gentium Book Basic"><tspan y="330.83" x="-2354.79"/></text><text transform="scale(4.0128 0.2492)" y="827.18" x="-304.37" style="font-size:67.29;font-family:Arial;text-anchor:middle"/><text y="112.82" x="-569.23" line-height="125%" style="letter-spacing:0;word-spacing:0;font-size:185.2;font-family:Gentium Book Basic"><tspan y="112.82" x="-569.23"/></text><text transform="scale(4.0128 0.2492)" y="-47.635" x="140.59" style="font-size:67.29;font-family:Arial;text-anchor:middle"/><text y="162.03" x="120.99" line-height="125%" style="letter-spacing:0;word-spacing:0;font-size:185.2;font-family:Gentium Book Basic"><tspan y="162.03" x="120.99"/></text><text transform="scale(4.0128 0.2492)" y="149.84" x="312.59" style="font-size:67.29;font-family:Arial;text-anchor:middle"/><text y="47.38" x="954.02" line-height="125%" style="letter-spacing:0;word-spacing:0;font-size:185.2;font-family:Gentium Book Basic"><tspan y="47.38" x="954.02"/></text><text transform="scale(4.0128 0.2492)" y="-310.24" x="520.18" style="font-size:67.29;font-family:Arial;text-anchor:middle"/><text y="-1.36" x="146.42" line-height="125%" style="letter-spacing:0;word-spacing:0;font-size:185.2;font-family:Gentium Book Basic"><tspan y="-1.36" x="146.42"/></text><text transform="scale(4.0128 0.2492)" y="-505.84" x="318.93" style="font-size:67.29;font-family:Arial;text-anchor:middle"/><text y="-116.02" x="979.46" line-height="125%" style="letter-spacing:0;word-spacing:0;font-size:185.2;font-family:Gentium Book Basic"><tspan y="-116.02" x="979.46"/></text><text transform="scale(4.0128 0.2492)" y="-965.92" x="526.52" style="font-size:67.29;font-family:Arial;text-anchor:middle"/><text y="417.08" x="-2640.8" line-height="125%" style="letter-spacing:0;word-spacing:0;font-size:185.2;font-family:Gentium Book Basic"><tspan y="417.08" x="-2640.8"/></text><text transform="scale(4.0128 0.2492)" y="1173.28" x="-375.65" style="font-size:67.29;font-family:Arial;text-anchor:middle"/><text y="4.612" x="-1230.91" line-height="125%" style="letter-spacing:0;word-spacing:0;font-size:185.2;font-family:Gentium Book Basic"><tspan y="4.612" x="-1230.91"/></text><text transform="scale(4.0128 0.2492)" y="-481.85" x="-24.3" style="font-size:67.29;font-family:Arial;text-anchor:middle"/><text y="53.829" x="-540.7" line-height="125%" style="letter-spacing:0;word-spacing:0;font-size:185.2;font-family:Gentium Book Basic"><tspan y="53.829" x="-540.7"/></text><text transform="scale(4.0128 0.2492)" y="-284.38" x="147.7" style="font-size:67.29;font-family:Arial;text-anchor:middle"/><text y="-60.827" x="292.33" line-height="125%" style="letter-spacing:0;word-spacing:0;font-size:185.2;font-family:Gentium Book Basic"><tspan y="-60.827" x="292.33"/></text><text transform="scale(4.0128 0.2492)" y="-744.47" x="355.29" style="font-size:67.29;font-family:Arial;text-anchor:middle"/><text y="-109.57" x="-515.27" line-height="125%" style="letter-spacing:0;word-spacing:0;font-size:185.2;font-family:Gentium Book Basic"><tspan y="-109.57" x="-515.27"/></text><text transform="scale(4.0128 0.2492)" y="-940.05" x="154.04" style="font-size:67.29;font-family:Arial;text-anchor:middle"/><text y="-224.22" x="317.77" line-height="125%" style="letter-spacing:0;word-spacing:0;font-size:185.2;font-family:Gentium Book Basic"><tspan y="-224.22" x="317.77"/></text><text transform="scale(4.0128 0.2492)" y="-1400.13" x="361.62" style="font-size:67.29;font-family:Arial;text-anchor:middle"/><text y="308.87" x="-3302.48" line-height="125%" style="letter-spacing:0;word-spacing:0;font-size:185.2;font-family:Gentium Book Basic"><tspan y="308.87" x="-3302.48"/></text><text transform="scale(4.0128 0.2492)" y="739.06" x="-540.54" style="font-size:67.29;font-family:Arial;text-anchor:middle"/><text y="251.31" x="676.86" line-height="125%" style="letter-spacing:0;word-spacing:0;font-size:119.67;font-family:Gentium Book Basic"><tspan y="251.31" x="676.86"/></text><text transform="scale(4.0128 0.2492)" y="685.16" x="351.17" style="font-size:43.479;font-family:Arial;text-anchor:middle"/><text y="177.24" x="1215.11" line-height="125%" style="letter-spacing:0;word-spacing:0;font-size:119.67;font-family:Gentium Book Basic"><tspan y="177.24" x="1215.11"/></text><text transform="scale(4.0128 0.2492)" y="387.89" x="485.3" style="font-size:43.479;font-family:Arial;text-anchor:middle"/><text y="9.389" x="222.84" line-height="125%" style="letter-spacing:0;word-spacing:0;font-size:119.67;font-family:Gentium Book Basic"><tspan y="9.389" x="222.84"/></text><text transform="scale(4.0128 0.2492)" y="-285.63" x="238.02" style="font-size:43.479;font-family:Arial;text-anchor:middle"/><text y="-191.06" x="1239.62" line-height="125%" style="letter-spacing:0;word-spacing:0;font-size:119.67;font-family:Gentium Book Basic"><tspan y="-191.06" x="1239.62"/></text><text transform="scale(4.0128 0.2492)" y="-1089.99" x="491.41" style="font-size:43.479;font-family:Arial;text-anchor:middle"/><text y="-265.15" x="1777.87" line-height="125%" style="letter-spacing:0;word-spacing:0;font-size:119.67;font-family:Gentium Book Basic"><tspan y="-265.15" x="1777.87"/></text><text transform="scale(4.0128 0.2492)" y="-1387.27" x="625.54" style="font-size:43.479;font-family:Arial;text-anchor:middle"/><text y="-702.59" x="1417.55" line-height="125%" style="letter-spacing:0;word-spacing:0;font-size:119.67;font-family:Gentium Book Basic"><tspan y="-702.59" x="1417.55"/></text><text transform="scale(4.0128 0.2492)" y="-3142.6" x="535.75" style="font-size:43.479;font-family:Arial;text-anchor:middle"/><text y="-776.66" x="1955.79" line-height="125%" style="letter-spacing:0;word-spacing:0;font-size:119.67;font-family:Gentium Book Basic"><tspan y="-776.66" x="1955.79"/></text><text transform="scale(4.0128 0.2492)" y="-3439.87" x="669.88" style="font-size:43.479;font-family:Arial;text-anchor:middle"/></g><g transform="matrix(0.92599 0 0 0.92599 1.222 37.08)" line-height="125%" style="letter-spacing:0;word-spacing:0;font-family:Gentium Book Basic"><text y="535.94" x="277.99" style="font-size:208.33"><tspan y="535.94" x="277.99"/></text><text y="227.12" x="104.96" style="font-size:129.23"><tspan y="227.12" x="104.96"/></text></g><g style="stroke-width:0.926"><text transform="scale(4.0128 0.2492)" y="669.4" x="207.02" style="font-size:43.479;font-family:Arial;text-anchor:middle"/><text y="173.3" x="636.66" line-height="125%" style="letter-spacing:0;word-spacing:0;font-size:119.67;font-family:Gentium Book Basic"><tspan y="173.3" x="636.66"/></text><text transform="scale(4.0128 0.2492)" y="372.12" x="341.15" style="font-size:43.479;font-family:Arial;text-anchor:middle"/><text y="5.464" x="-355.61" line-height="125%" style="letter-spacing:0;word-spacing:0;font-size:119.67;font-family:Gentium Book Basic"><tspan y="5.464" x="-355.61"/></text><text transform="scale(4.0128 0.2492)" y="-301.39" x="93.88" style="font-size:43.479;font-family:Arial;text-anchor:middle"/><text y="-194.99" x="661.18" line-height="125%" style="letter-spacing:0;word-spacing:0;font-size:119.67;font-family:Gentium Book Basic"><tspan y="-194.99" x="661.18"/></text><text transform="scale(4.0128 0.2492)" y="-1105.77" x="347.26" style="font-size:43.479;font-family:Arial;text-anchor:middle"/><text y="-269.07" x="1199.43" line-height="125%" style="letter-spacing:0;word-spacing:0;font-size:119.67;font-family:Gentium Book Basic"><tspan y="-269.07" x="1199.43"/></text><text transform="scale(4.0128 0.2492)" y="-1403.04" x="481.39" style="font-size:43.479;font-family:Arial;text-anchor:middle"/><text y="-706.51" x="839.1" line-height="125%" style="letter-spacing:0;word-spacing:0;font-size:119.67;font-family:Gentium Book Basic"><tspan y="-706.51" x="839.1"/></text><text transform="scale(4.0128 0.2492)" y="-3158.38" x="391.6" style="font-size:43.479;font-family:Arial;text-anchor:middle"/><text y="-780.59" x="1377.35" line-height="125%" style="letter-spacing:0;word-spacing:0;font-size:119.67;font-family:Gentium Book Basic"><tspan y="-780.59" x="1377.35"/></text><text transform="scale(4.0128 0.2492)" y="-3455.66" x="525.73" style="font-size:43.479;font-family:Arial;text-anchor:middle"/></g><g transform="matrix(0.92599 0 0 0.92599 1.222 37.08)" line-height="125%" style="letter-spacing:0;word-spacing:0;font-family:Gentium Book Basic"><text y="531.69" x="-346.69" style="font-size:208.33"><tspan y="531.69" x="-346.69"/></text><text y="-15.584" x="-931.86" style="font-size:200"><tspan y="-15.584" x="-931.86"/></text></g><g style="stroke-width:0.926"><text transform="scale(4.0128 0.2492)" y="-409.5" x="67.71" style="font-size:67.29;font-family:Arial;text-anchor:middle"/><text y="71.857" x="-171.46" line-height="125%" style="letter-spacing:0;word-spacing:0;font-size:185.2;font-family:Gentium Book Basic"><tspan y="71.857" x="-171.46"/></text><text transform="scale(4.0128 0.2492)" y="-212.03" x="239.72" style="font-size:67.29;font-family:Arial;text-anchor:middle"/><text y="-42.798" x="661.57" line-height="125%" style="letter-spacing:0;word-spacing:0;font-size:185.2;font-family:Gentium Book Basic"><tspan y="-42.798" x="661.57"/></text><text transform="scale(4.0128 0.2492)" y="-672.11" x="447.31" style="font-size:67.29;font-family:Arial;text-anchor:middle"/><text y="-91.54" x="-146.03" line-height="125%" style="letter-spacing:0;word-spacing:0;font-size:185.2;font-family:Gentium Book Basic"><tspan y="-91.54" x="-146.03"/></text><text transform="scale(4.0128 0.2492)" y="-867.7" x="246.05" style="font-size:67.29;font-family:Arial;text-anchor:middle"/><text y="-206.19" x="687.01" line-height="125%" style="letter-spacing:0;word-spacing:0;font-size:185.2;font-family:Gentium Book Basic"><tspan y="-206.19" x="687.01"/></text><text transform="scale(4.0128 0.2492)" y="-1327.78" x="453.64" style="font-size:67.29;font-family:Arial;text-anchor:middle"/><text y="326.9" x="-2933.24" line-height="125%" style="letter-spacing:0;word-spacing:0;font-size:185.2;font-family:Gentium Book Basic"><tspan y="326.9" x="-2933.24"/></text><text transform="scale(4.0128 0.2492)" y="811.41" x="-448.52" style="font-size:67.29;font-family:Arial;text-anchor:middle"/><text y="108.9" x="-1147.67" line-height="125%" style="letter-spacing:0;word-spacing:0;font-size:185.2;font-family:Gentium Book Basic"><tspan y="108.9" x="-1147.67"/></text><text transform="scale(4.0128 0.2492)" y="-63.4" x="-3.557" style="font-size:67.29;font-family:Arial;text-anchor:middle"/><text y="158.1" x="-457.46" line-height="125%" style="letter-spacing:0;word-spacing:0;font-size:185.2;font-family:Gentium Book Basic"><tspan y="158.1" x="-457.46"/></text><text transform="scale(4.0128 0.2492)" y="134.07" x="168.44" style="font-size:67.29;font-family:Arial;text-anchor:middle"/><text y="43.45" x="375.57" line-height="125%" style="letter-spacing:0;word-spacing:0;font-size:185.2;font-family:Gentium Book Basic"><tspan y="43.45" x="375.57"/></text><text transform="scale(4.0128 0.2492)" y="-326.01" x="376.03" style="font-size:67.29;font-family:Arial;text-anchor:middle"/><text y="-5.29" x="-432.03" line-height="125%" style="letter-spacing:0;word-spacing:0;font-size:185.2;font-family:Gentium Book Basic"><tspan y="-5.29" x="-432.03"/></text><text transform="scale(4.0128 0.2492)" y="-521.6" x="174.78" style="font-size:67.29;font-family:Arial;text-anchor:middle"/><text y="-119.94" x="401.01" line-height="125%" style="letter-spacing:0;word-spacing:0;font-size:185.2;font-family:Gentium Book Basic"><tspan y="-119.94" x="401.01"/></text><text transform="scale(4.0128 0.2492)" y="-981.68" x="382.38" style="font-size:67.29;font-family:Arial;text-anchor:middle"/><text y="413.15" x="-3219.24" line-height="125%" style="letter-spacing:0;word-spacing:0;font-size:185.2;font-family:Gentium Book Basic"><tspan y="413.15" x="-3219.24"/></text><text transform="scale(4.0128 0.2492)" y="1157.51" x="-519.79" style="font-size:67.29;font-family:Arial;text-anchor:middle"/><text y="0.686" x="-1809.36" line-height="125%" style="letter-spacing:0;word-spacing:0;font-size:185.2;font-family:Gentium Book Basic"><tspan y="0.686" x="-1809.36"/></text><text transform="scale(4.0128 0.2492)" y="-497.62" x="-168.45" style="font-size:67.29;font-family:Arial;text-anchor:middle"/><text y="49.897" x="-1119.14" line-height="125%" style="letter-spacing:0;word-spacing:0;font-size:185.2;font-family:Gentium Book Basic"><tspan y="49.897" x="-1119.14"/></text><text transform="scale(4.0128 0.2492)" y="-300.15" x="3.552" style="font-size:67.29;font-family:Arial;text-anchor:middle"/><text y="-64.754" x="-286.11" line-height="125%" style="letter-spacing:0;word-spacing:0;font-size:185.2;font-family:Gentium Book Basic"><tspan y="-64.754" x="-286.11"/></text><text transform="scale(4.0128 0.2492)" y="-760.23" x="211.14" style="font-size:67.29;font-family:Arial;text-anchor:middle"/><text y="-113.5" x="-1093.72" line-height="125%" style="letter-spacing:0;word-spacing:0;font-size:185.2;font-family:Gentium Book Basic"><tspan y="-113.5" x="-1093.72"/></text><text transform="scale(4.0128 0.2492)" y="-955.81" x="9.889" style="font-size:67.29;font-family:Arial;text-anchor:middle"/><text y="-228.15" x="-260.68" line-height="125%" style="letter-spacing:0;word-spacing:0;font-size:185.2;font-family:Gentium Book Basic"><tspan y="-228.15" x="-260.68"/></text><text transform="scale(4.0128 0.2492)" y="-1415.9" x="217.49" style="font-size:67.29;font-family:Arial;text-anchor:middle"/><text y="304.94" x="-3880.93" line-height="125%" style="letter-spacing:0;word-spacing:0;font-size:185.2;font-family:Gentium Book Basic"><tspan y="304.94" x="-3880.93"/></text><text transform="scale(4.0128 0.2492)" y="723.29" x="-684.68" style="font-size:67.29;font-family:Arial;text-anchor:middle"/></g><g transform="matrix(10.61901 0 0 10.61901 -9.465 -9.454)" style="clip-path:url(#0)"><g transform="translate(1 1)" style="opacity:0.1;fill-rule:evenodd"><path d="m 20.13 11.01 c -2.125 -0.047 -4.281 0.477 -4.816 2.473 -0.121 0.484 -0.309 1.484 -0.316 1.949 0 1.727 0 3.703 0 5.43 0.727 0 1.281 0 1.996 0 0.016 -1.82 -0.02 -3.602 0 -5.43 0.07 -1.156 1.691 -2.449 3 -2.441 0.016 1.852 -0.027 3.73 0 5.574 0.113 1.5 0.996 2.426 2.863 2.426 0.992 -0.02 1.996 0 2.984 0 1.508 -0.266 2.152 -1.523 2.152 -3 0 -1.648 0 -3.348 0 -5 1.371 -0.094 2.941 1.207 3 2.41 0.023 1.824 -0.008 3.578 0 5.387 0.719 0 1.281 0.074 2 0.074 0 -1.832 0 -3.633 0 -5.465 -0.07 -0.59 -0.273 -1.348 -0.613 -1.922 -0.883 -1.691 -2.945 -2.605 -4.891 -2.465 -0.566 -0.066 -1.344 0.293 -1.5 0.805 0.012 2.176 0.02 4.406 0 6.582 -0.063 0.91 -0.715 1.594 -1.996 1.594 -1.227 0 -1.238 -0.145 -1.695 -0.688 -0.305 -0.609 -0.27 -1.543 -0.305 -2.316 0 -1.766 -0.016 -3.426 0 -5.184 -0.602 -0.668 -1.125 -0.754 -1.867 -0.801" id="1"/><path d="m 32.609 33.13 c -0.063 0 -0.289 -0.043 -0.34 -0.012 0 0 -0.559 0.672 -0.867 0.887 -0.27 0.191 -0.52 0.734 -0.906 0.93 -0.148 0.074 -0.223 0.07 -0.496 0.07 h -3.422 l 0.027 1 h 2.969 c 0.066 0 0.273 0.02 0.41 -0.012 0.359 -0.078 0.605 -0.207 1.02 -0.438 0.438 -0.266 1.82 -1.832 1.82 -1.832 0.145 -0.09 0.184 -0.27 0.09 -0.402 l -0.043 -0.059 c -0.059 -0.086 -0.156 -0.129 -0.258 -0.133" id="2"/><path d="m 31.848 20.527 v 13.793 c 2.883 -0.297 5.152 -3.27 5.152 -6.895 0 -3.625 -2.27 -6.598 -5.152 -6.895" id="3"/><path d="m 16.15 20.598 v 13.793 c -2.887 -0.297 -5.152 -3.27 -5.152 -6.895 0 -3.625 2.273 -6.598 5.152 -6.895" id="4"/><path d="m 27 35.5 c 0 0.828 -1.121 1.5 -2.5 1.5 -1.383 0 -2.5 -0.672 -2.5 -1.5 0 -0.828 1.117 -1.5 2.5 -1.5 c 1.379 0 2.5 0.672 2.5 1.5" id="5"/><path d="m 31.363 20.305 h 0.773 c 0.199 0 0.363 0.129 0.363 0.285 v 13.43 c 0 0.16 -0.164 0.285 -0.363 0.285 h -0.773 c -0.199 0 -0.363 -0.125 -0.363 -0.285 v -13.43 c 0 -0.156 0.164 -0.285 0.363 -0.285" id="6"/><path d="m 15.824 20.285 h 0.848 c 0.18 0 0.324 0.129 0.324 0.289 v 13.523 c 0 0.156 -0.145 0.285 -0.324 0.285 h -0.848 c -0.18 0 -0.324 -0.129 -0.324 -0.285 v -13.523 c 0 -0.16 0.145 -0.289 0.324 -0.289" id="7"/></g></g><g transform="matrix(10.61901 0 0 10.61901 -6.771 -7.176)" style="clip-path:url(#0);fill:#ff4500"><g style="fill-rule:evenodd"><use xlink:href="#1"/><use xlink:href="#2"/><use xlink:href="#3"/><use xlink:href="#4"/><use xlink:href="#5"/><use xlink:href="#6"/><use xlink:href="#7"/></g></g></g></g></svg>