<svg xmlns="http://www.w3.org/2000/svg" viewBox="0 0 256 256"><g transform="translate(0 -796.36)"><path d="m 195.68 823.45 c -94.48 -84.12 -239.87 48.573 -181.08 159.63 59.43 112.29 256.11 82.36 239.38 -55.55 -4.98 -41.04 -27.475 -76.65 -58.3 -104.09 z" style="fill:#fff;color:#000"/><g transform="matrix(3.41602 0 0 3.43599 49.975 838.54)"><g style="fill:#ff4500;fill-rule:evenodd"><path d="m 28.632 5.364 v 6.947 h 4.632 v -6.947 h -4.632 z"/><path d="m 14.737 5.364 v 6.947 h 4.632 v -6.947 h -4.632 z"/></g><rect width="44" height="34.732" x="2" y="12.311" rx="1.153" style="fill:#ffdead"/><path d="m 14.737 5.364 l 4.632 -4.632 h 9.263 l 4.632 4.632 z" style="fill:#ff4500"/><path d="m 2.827 12.348 c 20.842 1.158 20.842 1.158 42.842 0 h -42.842 z" style="fill:#fff;fill-opacity:0.706"/></g><g transform="matrix(4.77485 0 0 4.52198 18.892 811.91)"><path d="m 25.19 21.346 l -2.618 0.259 v 10.703 l 2.589 -0.374 v -4.575 l 3.453 5.064 l 2.705 -0.863 l -3.539 -4.862 l 3.568 -4.604 l -2.762 -0.633 l -3.424 4.604 l 0.029 -4.719 z m -5.898 2.618 c -0.029 0 -0.064 0.017 -0.086 0.03 l -1.01 1.036 c -0.043 0.044 -0.06 0.12 -0.029 0.173 l 1.18 1.957 c -0.212 0.356 -0.368 0.746 -0.489 1.151 l -2.187 0.461 c -0.061 0.017 -0.115 0.053 -0.115 0.115 v 1.439 c 0 0.061 0.056 0.128 0.115 0.143 l 2.129 0.518 c 0.113 0.469 0.286 0.915 0.518 1.323 l -1.237 1.871 c -0.034 0.053 -0.016 0.128 0.029 0.173 l 1.01 1.01 c 0.043 0.041 0.12 0.063 0.173 0.03 l 1.928 -1.179 c 0.379 0.219 0.776 0.401 1.208 0.518 l 0.46 2.158 c 0.013 0.063 0.053 0.115 0.115 0.115 h 1.439 c 0.061 0 0.129 -0.056 0.144 -0.115 l 0.518 -2.158 c 0.445 -0.12 0.878 -0.318 1.266 -0.547 l 1.899 1.266 c 0.052 0.033 0.128 0.017 0.173 -0.03 l 1.01 -1.01 c 0.043 -0.045 0.061 -0.12 0.029 -0.172 l -0.691 -1.151 l -0.23 0.086 c -0.033 0.017 -0.067 0 -0.086 -0.03 0 0 -0.435 -0.659 -1.01 -1.496 -0.684 1.338 -2.077 2.244 -3.683 2.244 -2.282 0 -4.143 -1.832 -4.143 -4.114 0 -1.679 1.01 -3.122 2.446 -3.769 v -1.065 c -0.262 0.092 -0.508 0.186 -0.748 0.317 0 0 -0.028 0 -0.029 0 l -1.928 -1.266 c -0.026 -0.017 -0.057 -0.031 -0.086 -0.028 z" style="fill-opacity:0.059"/><path d="m 25.19 21.03 l -2.618 0.259 v 10.703 l 2.589 -0.374 v -4.575 l 3.453 5.064 l 2.705 -0.863 l -3.539 -4.862 l 3.568 -4.604 l -2.762 -0.633 l -3.424 4.604 l 0.029 -4.719 z m -5.898 2.618 c -0.029 0 -0.064 0.017 -0.086 0.03 l -1.01 1.036 c -0.043 0.044 -0.06 0.12 -0.029 0.173 l 1.18 1.957 c -0.212 0.356 -0.368 0.746 -0.489 1.151 l -2.187 0.461 c -0.061 0.017 -0.115 0.053 -0.115 0.115 v 1.439 c 0 0.061 0.056 0.128 0.115 0.143 l 2.129 0.518 c 0.113 0.469 0.286 0.915 0.518 1.323 l -1.237 1.871 c -0.034 0.053 -0.016 0.128 0.029 0.173 l 1.01 1.01 c 0.043 0.041 0.12 0.063 0.173 0.03 l 1.928 -1.179 c 0.379 0.219 0.776 0.401 1.208 0.518 l 0.46 2.158 c 0.013 0.063 0.053 0.115 0.115 0.115 h 1.439 c 0.061 0 0.129 -0.056 0.144 -0.115 l 0.518 -2.158 c 0.445 -0.12 0.878 -0.318 1.266 -0.547 l 1.899 1.266 c 0.052 0.033 0.128 0.017 0.173 -0.03 l 1.01 -1.01 c 0.043 -0.045 0.061 -0.12 0.029 -0.172 l -0.691 -1.151 l -0.23 0.086 c -0.033 0.017 -0.067 0 -0.086 -0.03 0 0 -0.435 -0.659 -1.01 -1.496 -0.684 1.338 -2.077 2.244 -3.683 2.244 -2.282 0 -4.143 -1.832 -4.143 -4.114 0 -1.679 1.01 -3.122 2.446 -3.769 v -1.065 c -0.262 0.092 -0.508 0.186 -0.748 0.317 0 0 -0.028 0 -0.029 0 l -1.928 -1.266 c -0.026 -0.017 -0.057 -0.031 -0.086 -0.028 z" style="fill-opacity:0.118"/><path d="m 25.19 20.72 l -2.618 0.259 v 10.703 l 2.589 -0.374 v -4.575 l 3.453 5.064 l 2.705 -0.863 l -3.539 -4.862 l 3.568 -4.604 l -2.762 -0.633 l -3.424 4.604 l 0.029 -4.719 z m -5.898 2.618 c -0.029 0 -0.064 0.017 -0.086 0.03 l -1.01 1.036 c -0.043 0.044 -0.06 0.12 -0.029 0.173 l 1.18 1.957 c -0.212 0.356 -0.368 0.746 -0.489 1.151 l -2.187 0.461 c -0.061 0.017 -0.115 0.053 -0.115 0.115 v 1.439 c 0 0.061 0.056 0.128 0.115 0.143 l 2.129 0.518 c 0.113 0.469 0.286 0.915 0.518 1.323 l -1.237 1.871 c -0.034 0.053 -0.016 0.128 0.029 0.173 l 1.01 1.01 c 0.043 0.041 0.12 0.063 0.173 0.03 l 1.928 -1.179 c 0.379 0.219 0.776 0.401 1.208 0.518 l 0.46 2.158 c 0.013 0.063 0.053 0.115 0.115 0.115 h 1.439 c 0.061 0 0.129 -0.056 0.144 -0.115 l 0.518 -2.158 c 0.445 -0.12 0.878 -0.318 1.266 -0.547 l 1.899 1.266 c 0.052 0.033 0.128 0.017 0.173 -0.03 l 1.01 -1.01 c 0.043 -0.045 0.061 -0.12 0.029 -0.172 l -0.691 -1.151 l -0.23 0.086 c -0.033 0.017 -0.067 0 -0.086 -0.03 0 0 -0.435 -0.659 -1.01 -1.496 -0.684 1.338 -2.077 2.244 -3.683 2.244 -2.282 0 -4.143 -1.832 -4.143 -4.114 0 -1.679 1.01 -3.122 2.446 -3.769 v -1.065 c -0.262 0.092 -0.508 0.186 -0.748 0.317 0 0 -0.028 0 -0.029 0 l -1.928 -1.266 c -0.026 -0.017 -0.057 -0.031 -0.086 -0.028 z" style="fill-opacity:0.235"/><path d="m 25.19 20.407 l -2.618 0.259 v 10.703 l 2.589 -0.374 v -4.575 l 3.453 5.064 l 2.705 -0.863 l -3.539 -4.862 l 3.568 -4.604 l -2.762 -0.633 l -3.424 4.604 l 0.029 -4.719 z m -5.898 2.618 c -0.029 0 -0.064 0.017 -0.086 0.03 l -1.01 1.036 c -0.043 0.044 -0.06 0.12 -0.029 0.173 l 1.18 1.957 c -0.212 0.356 -0.368 0.746 -0.489 1.151 l -2.187 0.461 c -0.061 0.017 -0.115 0.053 -0.115 0.115 v 1.439 c 0 0.061 0.056 0.128 0.115 0.143 l 2.129 0.518 c 0.113 0.469 0.286 0.915 0.518 1.323 l -1.237 1.871 c -0.034 0.053 -0.016 0.129 0.029 0.173 l 1.01 1.01 c 0.043 0.041 0.12 0.063 0.173 0.03 l 1.928 -1.179 c 0.379 0.219 0.776 0.401 1.208 0.518 l 0.46 2.158 c 0.013 0.063 0.053 0.115 0.115 0.115 h 1.439 c 0.061 0 0.129 -0.056 0.144 -0.115 l 0.518 -2.158 c 0.445 -0.12 0.878 -0.318 1.266 -0.547 l 1.899 1.266 c 0.052 0.033 0.128 0.017 0.173 -0.03 l 1.01 -1.01 c 0.043 -0.045 0.061 -0.12 0.029 -0.172 l -0.691 -1.151 l -0.23 0.086 c -0.033 0.017 -0.067 0 -0.086 -0.03 0 0 -0.435 -0.659 -1.01 -1.496 -0.684 1.338 -2.077 2.244 -3.683 2.244 -2.282 0 -4.143 -1.832 -4.143 -4.114 0 -1.679 1.01 -3.122 2.446 -3.769 v -1.065 c -0.262 0.092 -0.508 0.186 -0.748 0.317 0 0 -0.028 0 -0.029 0 l -1.928 -1.266 c -0.026 -0.017 -0.057 -0.031 -0.086 -0.028 z" style="fill:#ff4500"/></g></g></svg>