<svg xmlns="http://www.w3.org/2000/svg" viewBox="0 0 256 256"><g transform="translate(0 -796.36)"><g transform="matrix(0.97451 0 0 0.95325 0.153 48.22)" style="fill:#fff"><path d="m 153.91,1051.12 c 46.03,-5.499 83.35,-37.451 97.42,-83.42 4.202,-13.722 5.952,-32.724 4.349,-47.23 -2.313,-20.933 -10.539,-42.41 -23.16,-60.48 -7.99,-11.435 -22.18,-26.28 -32.992,-34.496 -18.425,-14.01 -37.679,-22.21 -60.01,-25.554 -7.771,-1.163 -23.681,-1.171 -32.14,-0.017 -20.884,2.851 -41.525,11.38 -59.24,24.476 -6.218,4.597 -18.989,17.231 -23.599,23.346 -12.876,17.08 -20.05,34.424 -22.958,55.48 -0.747,5.417 -0.747,20.389 0,26.24 1.975,15.463 6.301,28.94 14.12,43.982 9.345,17.98 22.679,34.549 36.939,45.901 19.99,15.913 45.644,27.19 70.71,31.08 6.325,0.981 24.654,1.395 30.557,0.69 z m -7.275,-91.47 c -2.907,-1.488 13.196,-9.06 15.945,-10.887 1.537,-1.021 14.459,-5.779 -13.748,4.914 l -8.396,4.616 2.666,-2.667 3.332,7.226 1.43,-6.733 4.762,1.841 -3.631,-26.24 c -0.201,-1.452 -6.297,33.744 -6.297,-3.796 0,-21.388 8.805,6.253 8.978,5.808 0.906,-2.336 4.203,1.783 -2.092,-9.526 l 0.734,1.319 20.14,-13.05 1.476,-1.836 -33.989,17.396 c -24.371,12.473 20.495,11.16 20.1,12.02 -0.308,0.67 -0.448,9.381 -1.125,9.687 -0.851,0.384 -5.276,-25.675 -10.557,-8.678 l -5.328,17.15 v 3.998 3.998 h 8.351 c 9.345,0 10.36,0.29 11.343,3.239 0.736,2.207 0.216,3.992 -1.606,5.509 l -6.831,-34.36 -23.444,35.612 c -13.196,20.04 18.982,-15.944 17.79,-16.554 z"/><path d="m 9.308 940.78 c 5.499 46.03 37.451 83.35 83.42 97.42 13.722 4.202 32.724 5.952 47.23 4.349 20.933 -2.313 42.41 -10.539 60.48 -23.16 11.435 -7.99 26.28 -22.18 34.496 -32.992 14.01 -18.425 22.21 -37.679 25.554 -60.01 1.163 -7.771 1.171 -23.681 0.017 -32.14 -2.851 -20.884 -11.38 -41.525 -24.476 -59.24 -4.597 -6.218 -17.231 -18.989 -23.346 -23.599 -17.08 -12.876 -34.424 -20.05 -55.48 -22.958 -5.417 -0.747 -20.389 -0.747 -26.24 0 -15.463 1.975 -28.94 6.301 -43.982 14.12 -17.98 9.345 -34.549 22.679 -45.901 36.939 -15.913 19.99 -27.19 45.644 -31.08 70.71 -0.981 6.325 -1.395 24.654 -0.69 30.557 z m 91.47 -7.275 c 1.488 -2.907 9.06 13.196 10.887 15.945 1.021 1.537 5.779 14.46 -4.914 -13.748 l -4.616 -8.396 l 2.666 2.666 l -7.226 3.332 l 6.733 1.43 l -1.841 4.762 l 26.24 -3.631 c 2.162 -1.28 5.336 1.84 7.514 0.589 l -1.319 0.734 l 13.05 20.14 l 1.836 1.476 l -17.396 -33.989 c -12.473 -24.371 -17.953 13.702 -18.813 13.307 -0.67 -0.308 -2.588 6.345 -2.894 5.668 19.08 -18.383 18.956 -16.893 -8.472 -15.885 h -3.998 h -3.998 v 8.351 c 0 9.345 1.069 5.74 -1.88 6.723 -2.207 0.736 -5.351 4.836 -6.868 3.01 46.814 1.922 25.604 -7.633 -1.252 -30.27 -20.04 -13.196 15.944 18.982 16.554 17.79 z"/></g><path d="m 93.71 996.7 c -0.285 -0.746 -0.392 -32.11 -0.237 -69.69 l 0.281 -68.34 h 8.678 h 8.678 l 0.59 39.05 c 0.325 21.478 0.691 39.17 0.814 39.32 0.123 0.149 0.955 0.271 1.85 0.271 0.895 0 1.627 0.732 1.627 1.627 0 0.895 -0.516 1.627 -1.146 1.627 -1.851 0 1.754 4.403 4.973 6.073 1.662 0.862 6.085 1.52 10.218 1.52 6.722 0 7.619 -0.285 11.537 -3.671 l 4.249 -3.671 l 0.542 -41.07 l 0.542 -41.07 l 8.949 -0.315 l 8.949 -0.315 v 43.83 c 0 42.699 0.058 43.904 2.248 46.688 1.275 1.621 3.338 2.858 4.765 2.858 3.792 0 5.561 6.698 2.118 8.02 -5.265 2.02 -17.189 -0.801 -18.568 -4.394 -0.668 -1.741 -5.319 -1.947 -6.348 -0.282 -0.399 0.646 -2.909 2.11 -5.578 3.254 -6.366 2.729 -22.475 2.948 -26.18 0.356 -5.144 -3.603 -5.615 -2.069 -5.615 18.286 0 13.176 -0.389 19.19 -1.302 20.1 -1.793 1.793 -15.952 1.747 -16.641 -0.054 z" style="fill:#ff4500;stroke:#ff4500;fill-rule:evenodd;stroke-width:5.938"/></g></svg>