<svg xmlns="http://www.w3.org/2000/svg" viewBox="0 0 256 256"><defs><clipPath><path transform="matrix(15.33333 0 0 11.5 415 -125.5)" d="m -24 13 c 0 1.105 -0.672 2 -1.5 2 -0.828 0 -1.5 -0.895 -1.5 -2 0 -1.105 0.672 -2 1.5 -2 0.828 0 1.5 0.895 1.5 2 z"/></clipPath></defs><path d="m 219.87 1024.74 c 92.05 -130.93 -77.948 -263.6 -186.39 -156.91 -102.17 100.51 -7.449 256.68 119.69 207.86 26.526 -10.185 49.802 -26.914 66.7 -50.948 z" transform="translate(9.761 -828.91)" style="fill:#fff;color:#000"/><path d="m 140.57 198.72 c -8.03 -2.351 -14.991 -7.535 -17.01 -12.659 -5.146 -13.07 8.306 -23.09 29.723 -22.13 l 8.314 0.372 l 0.442 -24.01 l 0.442 -24.01 h -9.633 c -8.857 0 -9.912 0.328 -13.09 4.068 -4.358 5.129 -7.06 5.129 -11.579 0 -3.238 -3.672 -4.464 -4.068 -12.586 -4.068 h -8.997 v 24.843 c 0 24.679 -0.029 24.878 -4.339 30.341 -8.08 10.236 -23.996 15.05 -37.45 11.331 -7.28 -2.01 -15.16 -9.438 -16.533 -15.579 -1.388 -6.199 3.294 -14.325 9.793 -17 2.669 -1.1 10.858 -2.229 18.199 -2.512 l 13.346 -0.514 v -30.2 c 0 -23.13 0.493 -30.546 2.103 -31.666 1.156 -0.804 8.254 -1.642 15.772 -1.86 l 13.669 -0.399 l 0.458 -16.896 c 0.31 -11.429 1.094 -17.235 2.427 -17.945 2.555 -1.356 17.561 -1.356 20.12 0 1.332 0.709 2.117 6.516 2.427 17.945 l 0.458 16.896 l 13.669 0.399 c 7.518 0.22 14.616 1.056 15.772 1.86 2.721 1.893 3.066 92.36 0.383 98.33 -2.446 5.424 -9.351 11.205 -16.884 14.13 -7.217 2.801 -12.217 3.041 -19.411 0.934 z" style="fill:#ff4500"/></svg>