<svg xmlns="http://www.w3.org/2000/svg" xmlns:xlink="http://www.w3.org/1999/xlink" viewBox="0 0 256 256"><defs><clipPath><path d="m 27.643 3.295 l 13.09 13.09 h -11.07 c -0.978 0 -2.01 -1.035 -2.01 -2.01 v -11.07 z"/></clipPath><clipPath><path transform="matrix(0.99561 0 0 0.99561 0.105 0.016)" d="m 47.41 6.348 v -1.75 c 0 -2.054 -1.664 -3.719 -3.719 -3.719 h -39.37 c -2.054 0 -3.719 1.664 -3.719 3.719 v 1.75"/></clipPath></defs><g transform="matrix(0 -1 0.95339 0 -1639.22 -1516.94)"><path d="m -1539.23 1793.07 c 135.66 329.42 -434.9 174.65 -157.85 -40.478 49.706 -37.47 133.17 -40.36 157.85 40.478 z" style="fill:#fff;color:#000"/><g transform="matrix(2.71616 0 0 2.9196 -1747.12 1791.15)"><g style="fill:#fff"><rect rx="2.359" y="8.888" x="10.924" height="33.73" width="7.243" style="opacity:0.99"/><rect rx="2.359" width="9.718" height="33.73" x="18.339" y="8.888" id="1" style="opacity:0.99"/></g><rect rx="1.752" y="8.888" x="13.866" height="25.06" width="9.03" style="fill:#151515;opacity:0.99"/><g style="fill:#ff4500"><rect rx="2.359" width="7.243" height="33.73" x="10.924" y="8.888"/><use xlink:href="#1"/></g><rect id="0" rx="1.752" width="7.753" height="25.06" x="14.409" y="8.888"/><g style="fill:#ff4500"><rect rx="2.359" width="9.718" height="33.73" x="28.14" y="8.888" style="opacity:0.99"/><rect rx="2.359" y="8.888" x="37.962" height="33.73" width="9.718" style="opacity:0.99"/></g><g style="fill:#fff"><rect rx="2.359" width="9.718" height="33.73" x="47.921" y="8.888" style="opacity:0.99"/><rect rx="2.359" y="8.888" x="57.811" height="33.73" width="9.718" id="2" style="opacity:0.99"/></g><rect rx="1.752" width="9.03" height="25.06" x="53.34" y="8.888" style="fill:#151515;opacity:0.99"/><g style="fill:#ff4500"><rect rx="2.359" y="8.888" x="47.921" height="33.73" width="9.718"/><use xlink:href="#2"/></g><rect rx="1.752" y="8.888" x="24.297" height="25.06" width="7.753"/><rect rx="1.752" width="7.753" height="25.06" x="34.15" y="8.888"/><rect rx="1.752" y="8.888" x="44.22" height="25.06" width="7.753"/><rect rx="1.752" width="7.753" height="25.06" x="53.663" y="8.888"/><use xlink:href="#0" width="1" height="1"/></g></g></svg>