<svg xmlns="http://www.w3.org/2000/svg" viewBox="0 0 256 256"><g transform="translate(0 -796.36)"><g transform="matrix(0.89225 -0.42479 0.45105 0.8403 -401 202.42)" style="fill:#ff4500;color:#000"><path d="m 115.38,952.82 v 13.656 h -15.281 c -2.771,0 -5,2.229 -5,5 0,2.771 2.229,5 5,5 h 55.813 c 2.771,0 5,-2.229 5,-5 0,-2.771 -2.229,-5 -5,-5 H 140.631 V 952.82 h -25.25 z"/><path d="m 63.19,872.63 c -2.348,0 -4.25,1.902 -4.25,4.25 v 76.875 c 0,2.348 1.902,4.219 4.25,4.219 h 129.63 c 2.348,0 4.25,-1.871 4.25,-4.219 V 876.88 c 0,-2.348 -1.902,-4.25 -4.25,-4.25 z m 8.288,11.215 h 113.05 v 62.913 H 71.478 z"/></g><g style="fill:#2d9900"><rect width="182.22" height="123.21" x="-410.38" y="826.68" rx="8.141" ry="8.424" transform="matrix(0.9029 -0.42986 0.47295 0.88109 0 0)" style="fill:#ff4500"/><path d="m 166.5 1044.31 c -44.18 15.07 -92.75 3.515 -126.81 -30.16 -10.167 -10.05 -20.566 -25.723 -25.847 -38.952 -7.619 -19.09 -10.145 -41.19 -7.114 -62.24 1.92 -13.324 7.87 -32.26 13.831 -44.02 10.161 -20.05 23.769 -35.422 42.41 -47.925 c 6.488 -4.351 20.872 -11.208 29.05 -13.851 20.21 -6.527 42.834 -8.04 64.93 -4.349 7.757 1.297 25.17 6.718 32.17 10.02 19.568 9.218 34.1 21.12 46.5 38.07 3.189 4.361 10.135 17.302 12.174 22.68 5.388 14.216 7.731 27.731 7.638 44.1 -0.109 19.565 -4.48 39.628 -12.11 55.58 -10.695 22.36 -28.664 43.15 -49.53 57.31 -5.264 3.572 -21.648 11.821 -27.314 13.752 z m 14.884 -89.18 c 1.939 -2.537 0.114 -6.808 -3.179 -7.439 -1.519 -0.291 -2.299 -0.014 -9.135 3.241 l -7.475 3.559 l -1.85 -3.447 l -1.85 -3.447 l 23.957 -11.555 l 23.957 -11.555 l 0.326 -1.435 c 0.314 -1.386 -0.3 -2.6 -17.717 -35.05 -9.923 -18.487 -18.339 -33.868 -18.704 -34.18 -1.903 -1.629 -0.125 -2.405 -62.45 27.27 l -58.53 27.863 l -0.657 1.898 l -0.657 1.898 l 17.863 33.28 c 12.597 23.469 18.18 33.518 18.937 34.09 0.59 0.446 1.689 0.789 2.443 0.761 0.947 -0.034 8.621 -3.502 24.87 -11.238 l 23.503 -11.189 l 1.855 3.456 l 1.855 3.456 l -7.554 3.596 c -8.451 4.02 -9.235 4.711 -8.755 7.684 0.358 2.224 1.655 3.54 4.01 4.07 l 1.935 0.433 l 26.02 -12.39 c 21.87 -10.412 26.17 -12.586 26.964 -13.625 z" style="fill:#fff"/><path d="m 75.74 941.09 l -14.03 -26.14 l 50.23 -23.915 l 50.23 -23.915 l 14.03 26.14 l 14.03 26.14 l -50.23 23.915 l -50.23 23.915 l -14.03 -26.14 z" style="fill:#ffdead"/></g></g></svg>