<svg xmlns="http://www.w3.org/2000/svg" viewBox="0 0 256 256"><g transform="translate(1.085 -794.19)"><path d="m -1374.42 1658.71 c 127.95 -192.46 -280.09 -311 -226.07 -62.2 23.02 102.82 167.39 165.22 226.07 62.2 z" transform="matrix(0 1 -0.99545 0 1703.7 2400.72)" fill="#fff" color="#000"/><g transform="matrix(0.1829 0.07916 -0.08179 0.18595 66.879 779.19)" fill="#ff4500"><path d="m 279.27 457.41 c -2.505 2.49 -3.834 5.65 -3.939 9.533 -0.324 11.501 -0.048 24.22 0.875 38.22 -0.028 0.244 0.034 0.544 0.006 0.788 l 0.171 2.03 c 5.333 66.1 23.931 123.14 55.62 171.18 33.816 51.33 72.18 78.54 115.01 81.58 q 6.229 0.519 12.283 0.337 c 3.487 -0.06 6.277 -1.497 8.554 -4.15 2.186 -2.708 3.199 -6.04 3.085 -9.936 l -89.84 -245.58 c -0.171 -2.72 -0.955 -5.481 -2.432 -8.141 -1.429 -2.608 -3.313 -4.803 -5.6 -6.484 -2.372 -1.637 -4.829 -2.542 -7.374 -2.763 l -77.32 -29.793 c -3.6 -0.342 -6.63 0.734 -9.09 3.177 z"/><path d="M 844.3,196.15 Q 837.45,191.2 830,186.9 C 779.05,156.75 720.35,157.55 653.95,189.4 591.8,219 539.9,269.25 498.35,340.2 l -1.25,2.15 c -0.15,0.3 -0.35,0.6 -0.5,0.9 -8.55,15.2 -15.65,29.45 -21.4,42.75 -1.95,4.5 -2.15,9.15 -0.6,13.9 1.55,4.75 4.45,8.35 8.75,10.8 L 668.3,517.5 c 3.05,1.75 6.4,2.65 10,2.6 3.55,-0.05 6.9,-1.05 9.95,-2.9 3.1,-1.85 5.45,-4.35 7.1,-7.4 l 154.8,-288.55 c 2.25,-4.3 2.85,-8.85 1.75,-13.65 -1.15,-4.8 -3.65,-8.6 -7.6,-11.45 z"/><path d="m 720.19 745.56 c 3.95 -2.85 6.45 -6.65 7.6 -11.45 1.1 -4.8 0.5 -9.35 -1.75 -13.65 l -234.8 -208.55 c -1.65 -3.05 -4 -5.55 -7.1 -7.4 -3.05 -1.85 -6.4 -2.85 -9.95 -2.9 -3.6 -0.05 -6.95 0.85 -10 2.6 l -104.95 26.8 c -4.3 2.45 -7.2 6.05 -8.75 10.8 -1.55 4.75 -1.35 9.4 0.6 13.9 5.75 13.3 12.85 27.55 21.4 42.75 0.15 0.3 0.35 0.6 0.5 0.9 l 1.25 2.15 c 41.55 70.95 93.45 121.2 155.6 150.8 66.4 31.85 125.1 32.65 176.05 2.5 4.95 -2.85 9.75 -5.95 14.3 -9.25 z"/><g mask="url(#)"><path d="m 780.25,334.45 c -6.3,-4.2 -14.8,-9.35 -25.55,-15.5 -56.55,-24.45 -119.95,-36.7 -190.3,-36.7 -105.1,0 -194.8,27.3 -269.15,81.95 -52.15,38.35 -86,82.3 -101.55,131.85 h -13.65 c -13.8,0 -25.6,4.9 -35.35,14.65 -9.75,9.75 -14.65,21.55 -14.65,35.35 v 22 c 0,11.35 6.9,21.35 20.75,30 234.75,-15.35 394.05,-2.5 477.95,38.5 83.9,41 139.65,74.85 167.3,101.6 49.55,51.45 87.5,102.9 113.95,154.35 l 97.05,-301.05 c -14.45,-34.35 -40,-75.25 -76.55,-122.6 -36.55,-47.4 -69.15,-80.6 -97.8,-99.6 -28.65,-19.05 -46.15,-30.65 -52.45,-34.8 z"/></g><path d="m 300.05 472.55 q 0 10.15 7.15 17.3 c 4.8 4.8 10.6 7.2 17.35 7.2 6.75 0 12.55 -2.4 17.3 -7.2 4.8 -4.75 7.2 -10.55 7.2 -17.3 0 -6.75 -2.4 -12.55 -7.2 -17.35 -4.75 -4.75 -10.55 -7.15 -17.3 -7.15 -6.75 0 -12.55 2.4 -17.35 7.15 -4.75 4.8 -7.15 10.6 -7.15 17.35 z"/></g></g></svg>