<svg xmlns="http://www.w3.org/2000/svg" viewBox="0 0 256 256"><g transform="translate(0 -796.36)"><path d="m 59.778 823.05 c 95.24 -84.46 241.79 48.767 182.53 160.27 -59.906 112.74 -258.16 82.69 -241.3 -55.767 5.02 -41.2 27.695 -76.954 58.764 -104.51 z" style="fill:#fff;color:#000"/><g transform="matrix(0.17143 0 0 0.12383 43.483 865.84)"><g style="fill-rule:evenodd"><rect y="52.07" x="56.41" height="928.54" width="911.19" rx="111" style="fill:#ff4500"/><rect y="407.83" x="164.14" height="208.27" width="694.24" rx="104.14" style="fill:#ffdead"/></g><path transform="matrix(1.23192 0 0 1.66319 -168.96 -336.81)" d="m 833.08 514.17 c 0 56.31 -40.795 101.97 -91.12 101.97 -50.32 0 -91.12 -45.652 -91.12 -101.97 0 -56.31 40.795 -101.97 91.12 -101.97 50.32 0 91.12 45.652 91.12 101.97 z" style="fill:#ffb6c1"/></g></g></svg>