<svg xmlns="http://www.w3.org/2000/svg" viewBox="0 0 256 256"><defs><clipPath><path transform="matrix(15.33333 0 0 11.5 415 -125.5)" d="m -24 13 c 0 1.105 -0.672 2 -1.5 2 -0.828 0 -1.5 -0.895 -1.5 -2 0 -1.105 0.672 -2 1.5 -2 0.828 0 1.5 0.895 1.5 2 z"/></clipPath></defs><g style="fill:#fff"><path d="M 60.17,822.74 C 191.1,730.69 323.77,900.688 217.08,1009.13 116.57,1111.3 -39.6,1016.579 9.22,889.44 19.405,862.914 36.134,839.638 60.168,822.74 z" transform="matrix(0.99211 0 0 0.98027 1.152 -778.19)" style="fill:#fff;color:#000"/></g><g style="fill:#ff4500;stroke:#ff4500;fill-rule:evenodd"><g style="stroke-width:3.4"><path d="m 118.75 216.66 c -30.11 -3.415 -56.33 -21.867 -68.907 -48.48 -5.649 -11.956 -7.747 -20.562 -8.241 -33.801 -0.566 -15.179 1.896 -26.922 8.461 -40.36 9.52 -19.488 24.439 -33.63 44.17 -41.872 32.922 -13.75 70.47 -6.164 95.5 19.293 c 9.05 9.204 17.472 23.531 20.946 35.623 5.05 17.586 4.362 37.38 -1.871 53.716 -9.738 25.517 -28.756 43.621 -54.736 52.11 -10.313 3.368 -25.05 4.945 -35.32 3.78 z m 23.905 -10.326 c 27.299 -5.407 49.95 -25.16 58.63 -51.14 2.9 -8.676 4.1 -15.987 4.1 -24.984 0 -20.406 -9.05 -41.07 -24.266 -55.38 c -10.711 -10.08 -26.12 -17.722 -40.951 -20.318 -5.788 -1.013 -19.486 -1.014 -24.756 0 -30.22 5.81 -52.828 25.732 -61.783 54.43 c -2.439 7.819 -3.062 12.325 -3.044 22.02 0.018 9.577 0.835 14.891 3.58 23.3 12.02 36.812 50.669 59.55 88.49 52.06 z"/><path d="m 125.9 102.17 c -0.336 -0.336 -1.917 -0.66 -3.512 -0.721 -1.898 -0.072 -4.904 0.987 -5.133 0.391 -0.551 -1.437 2.604 -3.841 4.62 -3.546 1.913 0.281 2.493 2.527 3.101 -1.439 0.181 -1.182 0.249 -3.704 9.839 -3.741 1.381 -0.005 -22.374 18.396 -16.692 3.174 0.333 -0.891 4.662 -2.186 5.185 -3.317 l 16.959 -0.041 l 4.63 2.824 c 2.086 1.272 0.137 2.679 1.553 2.679 1.169 0 1.553 0.326 1.553 1.318 0 1.101 0.153 1.191 0.932 0.545 0.76 -0.631 0.932 -0.596 0.932 0.186 0 0.806 -1.321 0.997 -8.23 1.19 -3.176 0.089 -8.774 -0.958 -7.841 0.454 24.04 36.39 -1.195 0.16 -1.353 0.235 -0.798 0.379 -0.92 0.079 -0.708 -1.735 0.301 -2.575 2.041 -3.03 3.039 -0.796 l 0.624 1.398 l 0.444 -1.398 c 0.388 -1.222 0.866 -1.398 3.797 -1.398 2.557 0 3.491 -0.258 3.935 -1.087 0.544 -1.015 0.002 -1.075 -8.208 -0.901 -9.904 0.209 -10.473 0.306 -9.942 1.69 0.209 0.545 0.736 0.854 1.171 0.688 0.883 -0.339 4.691 0.091 4.173 1.44 -0.393 1.025 -4.02 2.754 -4.865 1.908 z"/><path d="m 93.19 101.14 c 0.427 -0.176 0.776 -0.717 0.776 -1.201 0 -1.087 1.021 -1.16 1.465 -0.104 0.234 0.556 0.522 0.468 1.014 -0.311 1.01 -1.594 4.353 -1.474 4.353 0.155 0 0.683 0.279 1.242 0.621 1.242 0.342 0 0.621 -0.559 0.621 -1.242 0 -1.13 0.414 -1.242 4.592 -1.242 3.614 0 4.672 -0.209 4.969 -0.982 0.207 -0.54 0.377 -1.029 0.378 -1.087 0 -0.057 -3.354 -0.011 -7.453 0.103 l -11.505 4.837 l 4.051 -6.235 c 0.707 -1.088 0.297 -1.605 1.553 -1.605 0.966 0 3.434 -0.805 3.434 -0.226 0 1.365 -0.837 2.294 -0.459 0.847 0.281 -1.075 0.814 -1.232 3.954 -1.169 1.996 0.04 4.468 0.26 5.493 0.487 1.689 0.375 1.851 0.626 1.731 2.683 -0.119 2.045 0.034 2.288 1.553 2.463 1.206 0.139 1.685 0.547 1.685 1.437 0 1.195 -0.452 1.247 -11.801 1.356 -6.491 0.063 -11.452 -0.031 -11.02 -0.207 z"/><path d="m 105.76 106.54 c -1.055 -0.357 -1.205 -0.545 -0.466 -0.587 1.252 -0.071 1.46 -1.066 0.311 -1.481 -1.469 -0.531 4.821 -1.141 9.783 -0.948 4.824 0.188 6.937 -1.691 8.297 -2.317 6.526 -3 0.257 2.451 -1.107 1.404 -6.563 -5.03 -2.793 4.168 -4.072 4.439 -27.12 5.751 -1.748 1.703 -4.67 1.763 -3.587 0.073 -7.221 -1.984 -8.07 -2.273 z"/></g><path d="m 90.02 105.83 c 0.018 -1.404 1.661 -1.948 3.79 -2.152 1.57 -0.15 1.847 0.083 1.847 1.554 0 1.547 -0.262 1.731 -2.463 1.731 -1.803 0 -3.183 -0.41 -3.174 -1.134 z" style="stroke-width:3.729"/><path d="m 107.45 109.07 c 0.121 1.823 1.913 2.802 3.982 2.174 2.069 -0.627 4.09 -4.496 4.314 -2.23 0.253 2.562 0.225 16.16 0.164 27.417 l -0.099 18.09 l -3.7 -1.56 c -2.035 -0.858 -3.804 -2.526 -3.931 -3.707 -0.127 -1.182 -0.231 -7.261 -0.231 -13.512 0 -8.26 -0.024 7.3 -0.472 7.3 -0.411 0 -1.629 -22.491 -1.629 -28.699 0 -9.401 0.329 -12.1 0.733 -5.996 z" style="stroke-width:6.558"/><path d="m 139.75 109.2 c 0.144 2.43 1.332 -7.559 3.792 -8.395 0.575 -3.563 4.845 -0.592 4.955 3.971 0.172 7.14 1.38 25.899 1.308 40.899 l -0.117 24.11 l -4.397 -2.079 c -2.418 -1.144 -4.52 -3.367 -4.672 -4.942 -0.151 -1.575 -1.722 -10.403 -1.722 -18.736 0 -11.01 0.523 -10.664 -0.009 -10.664 -0.489 0 -0.009 -7.899 -0.009 -16.17 0 -12.533 0.392 -16.12 0.872 -7.994 z" style="stroke-width:8.255"/></g></svg>