<svg xmlns="http://www.w3.org/2000/svg" viewBox="0 0 256 256"><defs><clipPath><rect y="6" x="6" rx="6" height="84" width="84" style="fill:#ff4500"/></clipPath></defs><g transform="translate(0 -796.36)"><path d="M 229.63,992.2 C 321.68,861.27 151.682,728.6 43.24,835.29 c -102.17,100.51 -7.449,256.68 119.69,207.86 26.526,-10.185 49.802,-26.914 66.7,-50.948 z" style="fill:#fff;color:#000"/><g transform="matrix(5.38864 0 0 5.318 -2.934 798.61)" style="fill:#ff4500;fill-rule:evenodd"><path d="m 18,35 -6,-11 6,-10 7,0 7,10 0,-10 6,10 -5,11 -8,0 -7,-11 z" style="opacity:0.1"/><path d="m 17,34 -6,-11 6,-10 7,0 7,10 0,-10 6,10 -5,11 -8,0 -7,-11 z"/></g></g></svg>