<svg xmlns="http://www.w3.org/2000/svg" viewBox="0 0 256 256"><defs><clipPath><path transform="matrix(15.33333 0 0 11.5 415 -125.5)" d="m -24 13 c 0 1.105 -0.672 2 -1.5 2 -0.828 0 -1.5 -0.895 -1.5 -2 0 -1.105 0.672 -2 1.5 -2 0.828 0 1.5 0.895 1.5 2 z"/></clipPath></defs><path d="m 33.675 216.42 c -145.18 -221.56 251.35 -307.3 219.76 -79.37 c -12.881 92.96 -164.23 164.13 -219.76 79.37 z" style="fill:#fff;color:#000"/><g transform="matrix(1.22271 0 0 1.33578 -15.655 -39.461)" style="fill:#ff4500"><path d="m 109.72,173.61 c -3.245,-0.857 -10.03,-3.806 -15.09,-6.552 -9.963,-5.415 -10.746,-5.416 -15.8,-0.029 -5.151,5.491 -8.568,3.468 -14.659,-8.678 -5.075,-10.12 -6.805,-17.794 -6.678,-29.63 0.145,-13.551 3.366,-23.834 10.913,-34.848 6.415,-9.362 13.04,-15.06 23.348,-20.08 8.897,-4.332 16.632,-5.965 28.26,-5.965 19.07,0 30.571,4.612 43.42,17.413 13.368,13.313 18.758,26.17 18.758,44.736 0,14.971 -5.819,31.419 -13.718,38.778 l -2.922,2.722 -7.194,-3.719 -7.194,-3.719 -7.324,3.888 c -4.03,2.138 -9.06,4.394 -11.176,5.01 -6.898,2.02 -16.777,2.304 -22.958,0.671 z m -5.02,-54.59 c 0.269,-0.701 -0.63,-5.717 -1.998,-11.147 -2.979,-11.826 -4.459,-12.706 -10.87,-6.463 -6.83,6.65 -10.833,20.691 -7.61,26.695 0.984,1.833 1.791,1.61 10.528,-2.913 5.204,-2.694 9.682,-5.471 9.951,-6.172 z m 16.231,-19.48 c 1.621,-2.468 2.947,-4.889 2.947,-5.38 0,-1.141 -6.169,-3.301 -9.429,-3.301 -3.508,0 -5.979,1.1 -5.979,2.661 0,1.87 6.818,10.507 8.294,10.507 0.671,0 2.546,-2.02 4.167,-4.488 z"/><path d="m 205.02 147.53 c 0 30.554 -23.07 55.32 -51.53 55.32 -28.457 0 -51.53 -24.769 -51.53 -55.32 0 -30.554 23.07 -55.32 51.53 -55.32 28.457 0 51.53 24.769 51.53 55.32 z" transform="matrix(0.85247 0 0 0.77784 -10.16 16.576)" style="stroke:#ffdead;fill-rule:evenodd"/><g style="fill:#ffdead"><path transform="matrix(0.79691 -0.6041 0.57174 0.82043 0 0)" d="m 20.989 134.53 h 5.46 v 47.826 h -5.46 z"/><path d="m 135.59 146.98 c 0 3.295 -2.914 5.966 -6.508 5.966 -3.595 0 -6.508 -2.671 -6.508 -5.966 0 -3.295 2.914 -5.966 6.508 -5.966 3.595 0 6.508 2.671 6.508 5.966 z" transform="matrix(1.21131 0 0 1.2827 -36.488 -57.6)" style="stroke:#ffdead;fill-rule:evenodd"/><path d="m 157.88 165.53 l -6.692 -3.511 l 3.539 -3.985 c 7.02 -7.901 10.367 -16.848 10.367 -27.706 0 -12.239 -4.111 -21.758 -13.11 -30.357 -8.878 -8.481 -18.685 -12.417 -30.944 -12.417 -8.04 0 -14.498 1.398 -20.593 4.461 -2.343 1.177 -4.503 2.25 -4.806 2.384 -0.3 0.133 -3.292 -3.221 -6.647 -7.454 l -6.102 -7.697 l 4.385 -2.539 c 15.59 -9.03 35.808 -11.06 53.842 -5.413 12.774 3.999 27.563 17.14 34.809 30.916 3.888 7.394 5.466 14.935 5.479 26.17 0.014 11.601 -1.578 18.828 -6.198 28.14 -2.465 4.971 -8.783 12.832 -10.129 12.602 -0.278 -0.048 -3.518 -1.667 -7.198 -3.599 z"/></g></g></svg>