<svg xmlns="http://www.w3.org/2000/svg" viewBox="0 0 256 256"><defs><clipPath id="0"><path transform="matrix(15.33333 0 0 11.5 415 -125.5)" d="m -24 13 c 0 1.105 -0.672 2 -1.5 2 -0.828 0 -1.5 -0.895 -1.5 -2 0 -1.105 0.672 -2 1.5 -2 0.828 0 1.5 0.895 1.5 2 z" style="fill:#1890d0"/></clipPath><clipPath id="1"><path transform="matrix(15.33333 0 0 11.5 415 -125.5)" d="m -24 13 c 0 1.105 -0.672 2 -1.5 2 -0.828 0 -1.5 -0.895 -1.5 -2 0 -1.105 0.672 -2 1.5 -2 0.828 0 1.5 0.895 1.5 2 z" style="fill:#1890d0"/></clipPath></defs><g transform="translate(0 -796.36)"><path d="m 52.774 1027.39 c 192.46 127.95 311 -280.09 62.2 -226.07 -102.82 23.02 -165.22 167.39 -62.2 226.07 z" style="fill:#fff;color:#fff"/><g transform="matrix(5.28604 0 0 5.22145 3.556 796.57)" style="fill:#ff4500"><g style="clip-path:url(#1)"><path d="m 29 21 c 0 0 -0.754 -3.098 -4.04 -3.191 -3.281 -0.094 -4.965 2.473 -4.965 6.137 0 3.664 1.863 6.598 5.05 6.598 3.188 0 3.938 -3.543 3.938 -3.543 h 5.996 c 0 0 0.086 3.543 -2.477 6.082 -2.563 2.523 -5.703 2.938 -7.898 2.918 -2.188 -0.02 -5.227 0.035 -8.18 -2.973 -2.945 -3 -3.445 -5.93 -3.445 -8.793 0 -2.871 0.566 -6.672 4.066 -9.555 2.375 -1.961 4.789 -2.68 7.191 -2.68 10.07 0 10.734 9 10.734 9 h -5.996" transform="translate(1 1)" style="opacity:0.1;fill-opacity:0.769"/></g><g style="clip-path:url(#0)"><path d="m 29 21 c 0 0 -0.754 -3.098 -4.04 -3.191 -3.281 -0.094 -4.965 2.473 -4.965 6.137 0 3.664 1.863 6.598 5.05 6.598 3.188 0 3.938 -3.543 3.938 -3.543 h 5.996 c 0 0 0.086 3.543 -2.477 6.082 -2.563 2.523 -5.703 2.938 -7.898 2.918 -2.188 -0.02 -5.227 0.035 -8.18 -2.973 -2.945 -3 -3.445 -5.93 -3.445 -8.793 0 -2.871 0.566 -6.672 4.066 -9.555 2.375 -1.961 4.789 -2.68 7.191 -2.68 10.07 0 10.734 9 10.734 9 h -5.996" style="fill-opacity:0.769"/></g></g></g></svg>