<svg xmlns="http://www.w3.org/2000/svg" viewBox="0 0 256 256"><g transform="translate(0 -796.36)" style="color:#000"><path d="m 227.81 844.22 c 87.44 110.84 -44.799 278.58 -174.02 176.43 -122.38 -96.74 -16.907 -267.55 126.43 -214.19 c 19.694 7.333 34.821 21.566 47.595 37.758 z" style="fill:#fff"/><path d="m 77.25 867.32 h 54.86 l 7.272 10.233 h 50.52 c 6.776 0 12.231 5.255 12.231 11.782 v 51.688 c 0 6.528 -5.455 11.782 -12.231 11.782 h -112.65 c -6.776 0 -12.231 -5.255 -12.231 -11.782 v -61.923 c 0 -6.528 5.455 -11.782 12.231 -11.782 z" style="fill:#eeb5ac"/><rect width="137.11" height="84.74" x="65.02" y="882.61" rx="12.231" style="fill:#ff4500"/><g style="fill:#ffdead;color:#000;fill-rule:evenodd"><path d="m 94.21 927.45 c -0.77 -1.704 -5.668 -12.406 -10.883 -23.789 -5.217 -11.378 -9.485 -20.74 -9.485 -20.798 0 -0.059 4.875 -0.107 10.832 -0.107 h 10.832 l 7.217 15.762 c 3.97 8.669 8.901 19.421 10.958 23.891 l 3.74 8.133 h -10.903 h -10.903 l -1.398 -3.095 z"/><path d="m 111.2 964.33 c -0.77 -1.704 -5.668 -12.406 -10.883 -23.789 -5.217 -11.378 -9.485 -20.74 -9.485 -20.798 0 -0.059 4.875 -0.107 10.832 -0.107 h 10.832 l 7.217 15.762 c 3.97 8.669 8.901 19.421 10.958 23.891 l 3.74 8.133 h -10.903 h -10.903 l -1.398 -3.095 z"/><path d="m 140.14 964.34 c -0.77 -1.704 -5.668 -12.406 -10.883 -23.789 -5.217 -11.378 -9.485 -20.74 -9.485 -20.798 0 -0.059 4.875 -0.107 10.832 -0.107 h 10.832 l 7.217 15.762 c 3.97 8.669 8.901 19.421 10.958 23.891 l 3.74 8.133 h -10.903 h -10.903 l -1.398 -3.095 z"/><path d="m 123.14 927.09 c -0.77 -1.704 -5.668 -12.406 -10.883 -23.789 -5.217 -11.378 -9.485 -20.74 -9.485 -20.798 0 -0.059 4.875 -0.107 10.832 -0.107 h 10.832 l 7.217 15.762 c 3.97 8.669 8.901 19.421 10.958 23.891 l 3.74 8.133 h -10.903 h -10.903 l -1.398 -3.095 z"/></g></g></svg>