<svg xmlns="http://www.w3.org/2000/svg" viewBox="0 0 256 256"><defs><clipPath><path transform="matrix(15.33333 0 0 11.5 415 -125.5)" d="m -24 13 c 0 1.105 -0.672 2 -1.5 2 -0.828 0 -1.5 -0.895 -1.5 -2 0 -1.105 0.672 -2 1.5 -2 0.828 0 1.5 0.895 1.5 2 z"/></clipPath></defs><path d="m 219.57 211.55 c -265.25 200.11 -302.94 -350.59 -32.17 -173.86 61.728 40.29 102.43 120.86 32.17 173.86 z" style="fill:#fff;color:#000"/><g transform="matrix(0.21059 0 0 0.23837 61.21 28.702)" style="fill:#ff4500;stroke:#ffdead"><path d="m 21.5 108.45 l 701.88 324.49 l -700.82 341.08" style="fill:#dc143c;stroke-miterlimit:0.6;stroke-width:6.951"/><path d="m 24.783 771.38 l 384.31 -329.2 l -384.31 -329.2" style="stroke-width:2.296"/></g></svg>