<svg xmlns="http://www.w3.org/2000/svg" xmlns:xlink="http://www.w3.org/1999/xlink" viewBox="0 0 256 256"><g transform="translate(0 -796.36)"><path d="m 229.63 992.2 c 92.05 -130.93 -77.948 -263.6 -186.39 -156.91 -102.17 100.51 -7.449 256.68 119.69 207.86 c 26.526 -10.185 49.802 -26.914 66.7 -50.948 z" style="fill:#fff;color:#000"/><g transform="matrix(0.95066 0 0 1.08994 22.703 -96.04)"><path d="m 115.38,952.82 v 13.656 h -15.281 c -2.771,0 -5,2.229 -5,5 0,2.771 2.229,5 5,5 h 55.813 c 2.771,0 5,-2.229 5,-5 0,-2.771 -2.229,-5 -5,-5 H 140.631 V 952.82 h -25.25 z" id="0" style="fill:#ff4500;color:#000"/><path d="m 63.19,872.63 c -2.348,0 -4.25,1.902 -4.25,4.25 v 76.875 c 0,2.348 1.902,4.219 4.25,4.219 h 129.63 c 2.348,0 4.25,-1.871 4.25,-4.219 V 876.88 c 0,-2.348 -1.902,-4.25 -4.25,-4.25 z m 8.288,11.215 h 113.05 v 62.913 H 71.478 z" id="1" style="fill:#ff4500;color:#000"/></g><g transform="matrix(0.71385 0 0 0.8566 2.354 170.11)"><use xlink:href="#0" width="256" height="256"/><use xlink:href="#1" width="256" height="256"/></g><g transform="translate(0 796.36)" style="fill:#ffdead;fill-rule:evenodd"><path d="m 143.33 131.09 c 0 -7.156 -0.1 -7.98 -1.087 -8.967 -1.055 -1.055 -1.812 -1.087 -26.09 -1.087 h -25 v -25 v -25 h 53.26 h 53.26 v 33.967 v 33.967 h -27.17 h -27.17 v -7.88 z"/><path d="m 91.15 135.17 v -3.804 h 21.467 h 21.467 v 3.804 v 3.804 h -21.467 h -21.467 v -3.804 z"/><path d="m 53.652 158 v -26.63 h 12.5 h 12.5 v 8.992 c 0 8.823 0.025 9.02 1.334 10.326 l 1.334 1.334 h 25.296 h 25.296 v 4.348 v 4.348 h -7.311 c -8.02 0 -9.714 0.432 -10.936 2.796 -1.427 2.759 -0.472 6.781 1.913 8.06 0.593 0.317 4.828 0.56 9.777 0.56 h 8.731 v 6.25 v 6.25 h -40.22 h -40.22 v -26.63 z"/></g></g></svg>