<svg xmlns="http://www.w3.org/2000/svg" viewBox="0 0 256 256"><g transform="translate(0 -796.36)"><path d="m 73.17 801.07 c 368.15 -25.27 92.2 462.7 -64.2 141.39 -21.558 -49.51 -5.804 -123.34 64.2 -141.39 z" style="fill:#fff;color:#fff"/><g transform="matrix(0.4474 0 0 0.562 15.859 776.43)" style="fill:#ff4500"><text x="729.64" y="231.36" line-height="125%" style="letter-spacing:0;word-spacing:0;font-size:129.23;font-family:Gentium Book Basic"><tspan x="729.64" y="231.36"/></text><text x="378.91" y="579.25" transform="scale(4.0128 0.2492)" style="font-size:46.954;font-family:Arial;text-anchor:middle"/><text x="1310.91" y="151.36" line-height="125%" style="letter-spacing:0;word-spacing:0;font-size:129.23;font-family:Gentium Book Basic"><tspan x="1310.91" y="151.36"/></text><text x="523.76" y="258.22" transform="scale(4.0128 0.2492)" style="font-size:46.954;font-family:Arial;text-anchor:middle"/><text x="239.33" y="-29.901" line-height="125%" style="letter-spacing:0;word-spacing:0;font-size:129.23;font-family:Gentium Book Basic"><tspan x="239.33" y="-29.901"/></text><text x="256.72" y="-469.14" transform="scale(4.0128 0.2492)" style="font-size:46.954;font-family:Arial;text-anchor:middle"/><text x="1337.38" y="-246.37" line-height="125%" style="letter-spacing:0;word-spacing:0;font-size:129.23;font-family:Gentium Book Basic"><tspan x="1337.38" y="-246.37"/></text><text x="530.36" y="-1337.81" transform="scale(4.0128 0.2492)" style="font-size:46.954;font-family:Arial;text-anchor:middle"/><text x="1918.65" y="-326.38" line-height="125%" style="letter-spacing:0;word-spacing:0;font-size:129.23;font-family:Gentium Book Basic"><tspan x="1918.65" y="-326.38"/></text><text x="675.21" y="-1658.85" transform="scale(4.0128 0.2492)" style="font-size:46.954;font-family:Arial;text-anchor:middle"/><text x="1529.53" y="-798.78" line-height="125%" style="letter-spacing:0;word-spacing:0;font-size:129.23;font-family:Gentium Book Basic"><tspan x="1529.53" y="-798.78"/></text><text x="578.24" y="-3554.51" transform="scale(4.0128 0.2492)" style="font-size:46.954;font-family:Arial;text-anchor:middle"/><text x="2110.79" y="-878.78" line-height="125%" style="letter-spacing:0;word-spacing:0;font-size:129.23;font-family:Gentium Book Basic"><tspan x="2110.79" y="-878.78"/></text><text x="723.09" y="-3875.54" transform="scale(4.0128 0.2492)" style="font-size:46.954;font-family:Arial;text-anchor:middle"/><text x="277.99" y="535.94" line-height="125%" style="letter-spacing:0;word-spacing:0;font-size:208.33;font-family:Gentium Book Basic"><tspan x="277.99" y="535.94"/></text><g style="color:#fff"><path d="m 67.42 208.07 v 1.074 v 105.55 v 1.242 l 1.242 -0.168 c 0 0 3.366 -0.491 10.576 -1.31 l 0.94 -0.101 v -0.973 l -0.638 -70.43 l 10.71 69.36 l 0.168 1.041 l 1.041 -0.134 c 0 0 4.147 -0.509 18.328 -1.913 l 0.973 -0.101 v -0.973 v -101.05 v -1.074 h -1.074 h -10.911 h -1.074 v 1.074 l 0.336 74.4 l -11.381 -74.57 l -0.168 -0.907 h -0.907 l -17.09 -0.033 h -1.074 m 101.76 0 l -24.374 0.033 h -1.074 v 1.074 v 98.2 v 1.142 l 1.142 -0.068 c 0 0 6.245 -0.417 24.307 -1.578 l 1.01 -0.068 v -1.01 v -9.669 v -1.142 l -1.142 0.068 l -12.522 0.873 v -31.592 h 12.59 h 1.074 v -1.074 v -9.837 v -1.074 h -1.074 h -12.623 v -32.359 h 12.691 h 1.074 v -1.074 v -9.766 v -1.074 h -1.074 m 116.5 0 l -24.34 0.033 h -1.074 v 1.074 v 93.67 v 1.074 h 1.074 h 10.642 h 1.074 v -1.074 v -38.508 h 12.59 h 1.074 v -1.074 v -9.837 v -1.074 h -1.074 h -12.623 v -32.359 h 12.657 h 1.074 v -1.074 v -9.766 v -1.074 h -1.074 m 32.402 0 v 1.074 v 94.48 v 1.041 l 1.041 0.033 c 0 0 7.184 0.201 24.474 0.973 l 1.108 0.033 v -1.108 v -9.602 v -0.973 l -0.973 -0.101 c 0 0 -3.193 -0.216 -12.924 -0.57 v -84.2 v -1.074 h -1.074 h -10.576 h -1.074 m 65.803 0 l -10.542 0.033 h -1.074 v 1.074 v 97.02 v 1.01 l 1.01 0.068 c 0 0 3.898 0.22 10.542 0.705 l 1.142 0.068 v -1.142 v -97.76 v -1.074 h -1.074 m 33.674 0 l 0.269 1.276 l 9.03 46.37 l -8.762 54.42 l -0.168 1.142 l 1.142 0.101 l 11.314 1.108 l 1.041 0.101 l 0.134 -1.041 l 5.103 -39.25 l 4.969 40.489 l 0.101 0.839 l 0.839 0.101 l 12.422 1.411 l 1.411 0.168 l -0.202 -1.411 l -8.863 -56.838 l 8.964 -47.711 l 0.269 -1.276 h -1.31 h -11.882 h -0.907 l -0.168 0.907 l -5.237 33.24 l -5.473 -33.24 l -0.168 -0.907 h -0.907 h -11.65 h -1.31 m -222.72 0.033 v 1.074 v 9.733 v 1.074 h 1.074 h 10.408 v 83.969 v 1.175 l 1.175 -0.101 c 0 0 2.41 -0.222 10.441 -0.403 l 1.041 -0.033 v -1.041 l 0.068 -83.56 h 10.542 h 1.074 v -1.074 v -9.733 v -1.074 h -1.074 h -33.674 h -1.074"/><path d="m 61.42 202.07 v 1.074 v 105.55 v 1.242 l 1.242 -0.168 c 0 0 3.366 -0.491 10.576 -1.31 l 0.94 -0.101 v -0.973 l -0.638 -70.43 l 10.71 69.36 l 0.168 1.041 l 1.041 -0.134 c 0 0 4.147 -0.509 18.328 -1.913 l 0.973 -0.101 v -0.973 v -101.05 v -1.074 h -1.074 h -10.911 h -1.074 v 1.074 l 0.336 74.4 l -11.381 -74.57 l -0.168 -0.907 h -0.907 l -17.09 -0.033 h -1.074 m 101.76 0 l -24.374 0.033 h -1.074 v 1.074 v 98.2 v 1.142 l 1.142 -0.068 c 0 0 6.245 -0.417 24.307 -1.578 l 1.01 -0.068 v -1.01 v -9.669 v -1.142 l -1.142 0.068 l -12.522 0.873 v -31.592 h 12.59 h 1.074 v -1.074 v -9.837 v -1.074 h -1.074 h -12.623 v -32.359 h 12.691 h 1.074 v -1.074 v -9.766 v -1.074 h -1.074 m 116.5 0 l -24.34 0.033 h -1.074 v 1.074 v 93.67 v 1.074 h 1.074 h 10.642 h 1.074 v -1.074 v -38.508 h 12.59 h 1.074 v -1.074 v -9.837 v -1.074 h -1.074 h -12.623 v -32.359 h 12.657 h 1.074 v -1.074 v -9.766 v -1.074 h -1.074 m 32.402 0 v 1.074 v 94.48 v 1.041 l 1.041 0.033 c 0 0 7.184 0.201 24.474 0.973 l 1.108 0.033 v -1.108 v -9.602 v -0.973 l -0.973 -0.101 c 0 0 -3.193 -0.216 -12.924 -0.57 v -84.2 v -1.074 h -1.074 h -10.576 h -1.074 m 65.803 0 l -10.542 0.033 h -1.074 v 1.074 v 97.02 v 1.01 l 1.01 0.068 c 0 0 3.898 0.22 10.542 0.705 l 1.142 0.068 v -1.142 v -97.76 v -1.074 h -1.074 m 33.674 0 l 0.269 1.276 l 9.03 46.37 l -8.762 54.42 l -0.168 1.142 l 1.142 0.101 l 11.314 1.108 l 1.041 0.101 l 0.134 -1.041 l 5.103 -39.25 l 4.969 40.489 l 0.101 0.839 l 0.839 0.101 l 12.422 1.411 l 1.411 0.168 l -0.202 -1.411 l -8.863 -56.838 l 8.964 -47.711 l 0.269 -1.276 h -1.31 h -11.882 h -0.907 l -0.168 0.907 l -5.237 33.24 l -5.473 -33.24 l -0.168 -0.907 h -0.907 h -11.65 h -1.31 m -222.72 0.033 v 1.074 v 9.733 v 1.074 h 1.074 h 10.408 v 83.969 v 1.175 l 1.175 -0.101 c 0 0 2.41 -0.222 10.441 -0.403 l 1.041 -0.033 v -1.041 l 0.068 -83.56 h 10.542 h 1.074 v -1.074 v -9.733 v -1.074 h -1.074 h -33.674 h -1.074"/></g></g></g></svg>