<svg xmlns="http://www.w3.org/2000/svg" viewBox="0 0 256 256"><g transform="translate(0 -796.36)"><path d="m 52.774 1027.39 c 192.46 127.95 311 -280.09 62.2 -226.07 -102.82 23.02 -165.22 167.39 -62.2 226.07 z" style="fill:#fff;color:#000"/><path d="m 131.77 855.77 l -67.28 36.849 v 63.17 l 28.03 15.466 c 10.562 5.675 22.425 -3.232 22.425 -10.202 v -63.17 h -11.213 v 57.905 c 0 5.122 -4.76 7.528 -10.686 4.443 -0.168 -0.09 -0.359 -0.068 -0.527 -0.163 l -16.819 -9.544 v -52.641 l 56.06 -31.584 l 56.06 31.584 v 52.641 l -56.06 31.584 l -13.668 -7.733 l -11.566 4.443 l 25.23 13.818 l 67.28 -36.849 v -63.17 z m 16.819 42.11 c -16.819 0 -28.03 5.264 -28.03 15.792 0 10.528 11.213 15.792 28.03 15.792 5.606 0 16.819 0 16.819 5.264 0 5.264 -5.606 7.896 -16.819 7.896 -11.213 0 -16.819 -4.69 -16.819 -7.896 h -11.213 c 0 10.528 11.213 15.792 28.03 15.792 16.819 0 28.03 -5.264 28.03 -15.792 0 -10.528 -16.819 -15.792 -28.03 -15.792 -5.606 0 -16.819 0 -16.819 -5.264 0 -5.264 5.606 -7.896 16.819 -7.896 11.213 0 16.819 4.901 16.819 7.896 h 11.213 c 0 -10.528 -11.213 -15.792 -28.03 -15.792 z" style="fill:#ffa07a"/><path d="m 128.52 850.35 l -67.28 36.849 v 63.17 l 28.03 15.466 c 10.562 5.675 22.425 -3.232 22.425 -10.202 v -63.17 h -11.213 v 57.905 c 0 5.122 -4.76 7.528 -10.686 4.443 -0.168 -0.09 -0.359 -0.068 -0.527 -0.163 l -16.819 -9.544 v -52.641 l 56.06 -31.584 l 56.06 31.584 v 52.641 l -56.06 31.584 l -13.668 -7.733 l -11.566 4.443 l 25.23 13.818 l 67.28 -36.849 v -63.17 z m 16.819 42.11 c -16.819 0 -28.03 5.264 -28.03 15.792 0 10.528 11.213 15.792 28.03 15.792 5.606 0 16.819 0 16.819 5.264 0 5.264 -5.606 7.896 -16.819 7.896 -11.213 0 -16.819 -4.69 -16.819 -7.896 h -11.213 c 0 10.528 11.213 15.792 28.03 15.792 16.819 0 28.03 -5.264 28.03 -15.792 0 -10.528 -16.819 -15.792 -28.03 -15.792 -5.606 0 -16.819 0 -16.819 -5.264 0 -5.264 5.606 -7.896 16.819 -7.896 11.213 0 16.819 4.901 16.819 7.896 h 11.213 c 0 -10.528 -11.213 -15.792 -28.03 -15.792 z" style="fill:#ff4500"/></g></svg>