<svg xmlns="http://www.w3.org/2000/svg" viewBox="0 0 256 256"><g transform="matrix(1.04065 0 0 1.04065 1487.91 -1248.12)" color="#000"><path d="m -1409.81 1250.8 c -80.04 114.43 100.19 257.71 194.36 164.59 88.81 -87.82 -26.01 -251.69 -136.42 -209.08 -23.09 8.913 -43.33 23.583 -57.945 44.492 z" fill="#fff"/><g transform="matrix(0.7769 0 0 0.7769 -740.67 295.12)" fill="#ff4500"><path d="m 87.5 84.88 v 39.38 c -4.149 -1.991 -8.779 -3.125 -13.656 -3.125 -17.517 0 -31.906 14.42 -31.906 31.938 0 17.517 14.389 31.906 31.906 31.906 17.517 0 31.906 -14.389 31.906 -31.906 0 -0.687 -0.019 -1.355 -0.063 -2.031 v -61.09 l 54.53 -17.09 v 51.4 c -4.143 -1.984 -8.757 -3.125 -13.625 -3.125 -17.517 0 -31.906 14.42 -31.906 31.938 0 17.517 14.389 31.906 31.906 31.906 17.517 0 31.906 -14.389 31.906 -31.906 0 -0.826 -0.031 -1.626 -0.094 -2.438 v -82.55 c 0 -11.402 -9.889 -25.816 -23.673 -21.373 c -19.996 6.662 -34.481 10.784 -54.729 16.552 -12.792 4.295 -12.504 21.621 -12.504 21.621 z" transform="translate(-856.65 1207.36)"/><g><path d="m -769.15 1331.61 c 9.691 5.228 16.57 14.22 18.18 24.75 v -24.75 h -18.18 z"/><path d="m -696.43 1331.61 c 9.691 5.228 16.57 14.22 18.18 24.75 v -24.75 h -18.18 z"/></g></g></g></svg>