<svg xmlns="http://www.w3.org/2000/svg" viewBox="0 0 256 256"><defs><clipPath><path transform="matrix(15.33333 0 0 11.5 415 -125.5)" d="m -24 13 c 0 1.105 -0.672 2 -1.5 2 -0.828 0 -1.5 -0.895 -1.5 -2 0 -1.105 0.672 -2 1.5 -2 0.828 0 1.5 0.895 1.5 2 z"/></clipPath></defs><g transform="translate(0 -796.36)"><path d="m 62.64 1025.94 c 93.85 83.63 238.25 -48.29 179.87 -158.71 -59.03 -111.64 -254.39 -81.89 -237.77 55.22 4.945 40.8 27.29 76.21 57.905 103.49" style="fill:#fff;color:#000"/><path d="m 8.662 19.12 c 0 0 -2.87 11.766 2.319 11.634 4.188 -0.107 1.446 -14.711 4.13 -17.09 2.684 -2.378 10.267 1.411 9.222 12.31 -1.045 10.9 1.745 -15.525 5.03 -15.221 3.287 0.304 5.61 12.318 5.225 17.648 -0.385 5.33 3.767 4.106 4.246 -0.66 0.449 -4.462 -0.617 -7.465 -0.617 -7.465 0 0 3.474 10.288 0.809 13.487 -2.665 3.199 -7.08 0.495 -7.269 -4.162 -0.193 -4.657 0.514 -14.839 -1.377 -13.83 -1.627 0.868 -6.99 20.319 -6.99 20.319 0 0 -2 -13.832 -2.667 -15.435 -0.663 -1.594 -1.58 -3.904 -3.102 -3.19 -1.522 0.714 -0.507 12.154 -3.329 16.397 -1.454 2.185 -8.361 2.035 -8.143 -3.519 0.219 -5.554 2.509 -11.223 2.509 -11.223 z" transform="matrix(4.11562 0 0 4.33371 34.574 815.63)" style="fill:#ffa07a"/><path d="m 66.969 891.98 c 0 0 -11.812 50.99 9.544 50.42 17.236 -0.464 5.951 -63.753 16.998 -74.06 11.05 -10.306 42.26 6.115 37.954 53.35 -4.301 47.24 7.182 -67.28 20.702 -65.963 13.528 1.317 23.09 53.38 21.504 76.48 -1.585 23.1 15.504 17.794 17.475 -2.86 1.848 -19.337 -2.539 -32.35 -2.539 -32.35 0 0 14.298 44.585 3.33 58.45 -10.968 13.864 -29.14 2.145 -29.916 -18.04 -0.794 -20.18 2.115 -64.31 -5.667 -59.935 -6.696 3.762 -28.768 88.06 -28.768 88.06 0 0 -8.231 -59.944 -10.976 -66.891 -2.729 -6.908 -6.503 -16.919 -12.767 -13.825 -6.264 3.094 -2.087 52.672 -13.701 71.06 -5.984 9.469 -34.411 8.819 -33.513 -15.25 0.901 -24.07 10.326 -48.637 10.326 -48.637 z" style="fill:#ff4500"/></g></svg>