<svg xmlns="http://www.w3.org/2000/svg" viewBox="0 0 256 256"><g transform="translate(1088.39 -1732.49)" style="fill:#cb6600"><path d="m -1068.87 1784.85 c -72.72 102.23 71.53 251.73 178.76 188.89 91.69 -45.994 65.25 -185.01 -19.19 -224.33 -52.1 -30.774 -129.19 -20.627 -159.57 35.437 z" style="fill:#fff;color:#000"/><g transform="matrix(19.30125 0 0 18.80426 -1091.13 1681.08)" style="fill:#ff4500"><path transform="translate(0 2.258)" d="m 4.798 3.669 c -0.313 0 -0.564 0.252 -0.564 0.564 h -0.415 c -0.083 0 -0.15 0.067 -0.15 0.15 v 0.265 c 0 0.083 0.067 0.15 0.15 0.15 h 0.415 v 0.564 h -0.415 c -0.083 0 -0.15 0.067 -0.15 0.15 v 0.265 c 0 0.083 0.067 0.15 0.15 0.15 h 0.415 v 0.564 h -0.415 c -0.083 0 -0.15 0.067 -0.15 0.15 v 0.265 c 0 0.083 0.067 0.15 0.15 0.15 h 0.415 v 0.564 h -0.415 c -0.083 0 -0.15 0.067 -0.15 0.15 v 0.265 c 0 0.083 0.067 0.15 0.15 0.15 h 0.415 v 0.564 h -0.415 c -0.083 0 -0.15 0.067 -0.15 0.15 v 0.265 c 0 0.083 0.067 0.15 0.15 0.15 h 0.415 v 0.564 h -0.415 c -0.083 0 -0.15 0.067 -0.15 0.15 v 0.265 c 0 0.083 0.067 0.15 0.15 0.15 h 0.415 c 0 0.313 0.252 0.564 0.564 0.564 h 5.08 c 0.313 0 0.564 -0.252 0.564 -0.564 v -6.209 c 0 -0.313 -0.252 -0.564 -0.564 -0.564 h -5.08 z" style="fill-opacity:0.098"/><rect width="6.209" height="7.338" x="3.951" y="5.645" rx="0.564" style="stroke-width:1"/><g transform="translate(0 2.258)" style="fill:#ffdead"><path d="m 7.317,3.954 a 1.411,1.411 0 0 0 -0.977,0.414 1.411,1.411 0 0 0 0,1.995 1.411,1.411 0 0 0 1.774,0.178 L 8.535,6.962 8.934,6.563 8.514,6.143 A 1.411,1.411 0 0 0 8.335,4.368 1.411,1.411 0 0 0 7.317,3.954 M 7.35,4.518 A 0.847,0.847 0 0 1 7.936,4.767 0.847,0.847 0 0 1 8.101,5.73 L 7.737,5.366 7.338,5.765 7.702,6.129 A 0.847,0.847 0 0 1 6.739,5.964 0.847,0.847 0 0 1 6.739,4.767 0.847,0.847 0 0 1 7.35,4.519 z"/><path d="m 7.317,7.341 a 1.411,1.411 0 0 0 -0.977,0.413 1.411,1.411 0 0 0 0,1.995 1.411,1.411 0 0 0 1.774,0.178 L 8.535,10.349 8.934,9.949 8.514,9.53 A 1.411,1.411 0 0 0 8.335,7.754 1.411,1.411 0 0 0 7.317,7.341 M 7.35,7.906 A 0.847,0.847 0 0 1 7.936,8.154 0.847,0.847 0 0 1 8.101,9.117 L 7.737,8.752 7.338,9.151 7.702,9.516 A 0.847,0.847 0 0 1 6.739,9.351 0.847,0.847 0 0 1 6.739,8.154 0.847,0.847 0 0 1 7.35,7.906"/></g><path d="m 4.516 5.644 c -0.313 0 -0.564 0.252 -0.564 0.564 v 6.209 c 0 0.313 0.252 0.564 0.564 0.564 h 0.564 v -7.338 h -0.564 z" style="fill:#ffa07a"/><rect rx="0.15" y="8.467" x="3.387" height="0.564" width="1.129"/><rect width="1.129" height="0.564" x="3.387" y="9.596" rx="0.15"/><rect rx="0.15" y="10.724" x="3.387" height="0.564" width="1.129"/><rect width="1.129" height="0.564" x="3.387" y="11.853" rx="0.15"/><rect width="1.129" height="0.564" x="3.387" y="7.338" rx="0.15"/><rect rx="0.15" y="6.209" x="3.387" height="0.564" width="1.129"/></g></g></svg>