<svg xmlns="http://www.w3.org/2000/svg" viewBox="0 0 256 256"><g transform="translate(-8.858 -794.59)"><path d="m 220.22 834.2 c 200.93 262.28 -352.02 299.53 -174.57 31.816 40.451 -61.04 121.35 -101.28 174.57 -31.816 z" style="fill:#fff;color:#000"/><g transform="matrix(1.10868 0 0 1.16196 -8.385 768.09)" style="fill:#ff4500;fill-rule:evenodd"><path d="m 89.41 129.72 c -2.337 -3.02 -3.224 -3.568 -5.941 -3.638 -1.666 -0.043 -2.554 -0.352 -3.461 -1.204 -0.85 -0.799 -1.965 -1.221 -3.68 -1.393 -2.225 -0.224 -2.473 -0.365 -2.603 -1.487 -0.086 -0.745 0.518 -2.447 1.513 -4.263 0.982 -1.791 1.848 -4.219 2.126 -5.957 0.557 -3.485 0.921 -4.237 3.851 -7.959 1.23 -1.563 2.8 -4.04 3.488 -5.501 0.989 -2.101 1.805 -3.03 3.892 -4.412 1.453 -0.964 2.996 -2.4 3.43 -3.19 1.504 -2.738 2.578 -3.781 4.994 -4.849 1.335 -0.59 3.128 -1.872 3.985 -2.847 1.802 -2.053 3.616 -3.112 5.337 -3.116 0.667 -0.002 2.723 -0.747 4.568 -1.656 2.207 -1.087 4.629 -1.839 7.08 -2.195 2.046 -0.298 4.36 -0.882 5.141 -1.297 2.034 -1.081 14.615 -0.89 22.26 0.338 6.4 1.028 9.672 2.131 13.764 4.637 1.547 0.948 4.962 2.969 7.588 4.492 7.389 4.284 7.792 5.242 2.885 6.847 -4.116 1.346 -5.674 2.352 -8.274 5.341 -1.899 2.184 -2.903 2.947 -4.19 3.189 -1.798 0.337 -2.696 -0.321 -2.323 -1.702 0.106 -0.391 0.333 -2.025 0.505 -3.631 0.285 -2.665 0.224 -2.968 -0.697 -3.462 -0.81 -0.433 -1.845 -0.3 -5.222 0.671 -4.948 1.424 -5.471 1.454 -7.867 0.453 -2.458 -1.027 -4.501 -0.673 -9.558 1.657 -5.51 2.538 -6.354 2.507 -9.932 -0.364 -2.467 -1.98 -3.269 -2.353 -5.643 -2.621 -1.522 -0.172 -3.751 -0.533 -4.955 -0.803 -1.795 -0.402 -2.944 -0.311 -6.394 0.509 -2.313 0.55 -5.485 1.116 -7.05 1.259 -6.678 0.612 -7.351 1.573 -5.04 7.213 1.789 4.369 2.415 8.439 2.427 15.779 0.015 8.984 -1.579 16.97 -3.464 17.35 -0.42 0.085 -1.495 -0.843 -2.535 -2.19 z"/><path d="m 142.11 177.54 c -0.135 -0.218 0.804 -2.6 2.087 -5.292 2.74 -5.749 3.473 -8.817 3.235 -13.533 -0.144 -2.853 -0.372 -3.662 -1.315 -4.666 -2.032 -2.163 -4.899 -1.39 -5.686 1.533 -0.264 0.981 -0.682 4.11 -0.929 6.954 -0.383 4.41 -0.68 5.624 -2.022 8.252 -1.918 3.756 -4.546 5.936 -7.732 6.414 -1.219 0.183 -2.317 0.232 -2.439 0.11 -0.122 -0.122 0.822 -2.323 2.098 -4.89 3.56 -7.159 3.663 -7.76 3.618 -21.01 -0.04 -11.579 -0.402 -14.535 -1.727 -14.09 -0.317 0.106 -0.811 1.349 -1.097 2.762 -0.642 3.176 -1.456 4.511 -3.184 5.227 -2.059 0.853 -3.503 -0.031 -4.115 -2.518 -0.716 -2.907 -1.518 -4.275 -2.988 -5.101 -1.493 -0.838 -2.59 -0.386 -3.538 1.456 -0.806 1.568 -0.757 9.567 0.079 12.775 0.373 1.431 1.545 4.395 2.605 6.588 1.156 2.391 1.756 4.159 1.497 4.417 -0.695 0.695 -3.787 -0.541 -7.31 -2.92 -2.946 -1.989 -3.485 -2.185 -5.938 -2.152 -1.484 0.02 -3.273 0.181 -3.975 0.357 l -1.277 0.321 l 0.301 -7.962 c 0.343 -9.08 0.126 -10.874 -1.552 -12.869 -0.813 -0.966 -1.102 -1.734 -0.897 -2.38 0.447 -1.408 3.838 -3.172 7.344 -3.821 4.886 -0.904 5.8 -1.762 6.652 -6.241 0.629 -3.309 0.636 -17.818 0.009 -20.15 -0.272 -1.01 -1.029 -2.337 -1.683 -2.951 -1.72 -1.616 -1.483 -2.62 1.06 -4.5 3.444 -2.545 4.12 -2.582 6.432 -0.358 2.364 2.275 3.598 2.956 5.377 2.965 2.733 0.015 2.753 0.088 2.772 10.04 0.017 8.548 0.087 9.265 1.088 11.172 l 1.07 2.038 l -1.562 1.549 c -1 0.996 -2.914 2.028 -5.351 2.892 -7.978 2.829 -8.352 3.164 -6.13 5.483 1.505 1.571 3.614 1.846 5.267 0.688 2.724 -1.908 12.451 -2.816 16.256 -1.519 1.514 0.516 1.696 0.781 2.099 3.052 0.243 1.368 0.598 2.487 0.79 2.487 0.192 0 1.485 -0.974 2.874 -2.164 1.389 -1.19 3.423 -2.735 4.521 -3.434 1.098 -0.698 2 -1.621 2.01 -2.052 0.026 -1.173 -4.141 -6.478 -6.341 -8.07 -2.108 -1.528 -2.765 -1.536 -6.533 -0.079 -3.38 1.307 -3.447 1.139 -3.459 -8.733 -0.01 -7.638 -0.112 -8.665 -1.149 -11.568 -1.101 -3.081 -1.111 -3.217 -0.282 -4.132 0.471 -0.521 1.807 -1.406 2.968 -1.969 l 2.111 -1.022 l 2.136 1.067 c 1.866 0.932 2.563 1.026 5.523 0.742 1.863 -0.178 3.815 -0.427 4.339 -0.553 0.932 -0.224 0.944 -0.095 0.564 6.069 -0.214 3.464 -0.297 8.544 -0.185 11.289 0.17 4.176 0.412 5.432 1.484 7.696 2.164 4.575 2.611 3.549 2.637 -6.06 0.017 -6.422 0.428 -9.858 1.28 -10.71 0.515 -0.515 4.364 -1.229 5.422 -1.01 0.694 0.146 0.805 1.27 0.947 9.589 0.107 6.266 0.343 9.605 0.705 9.967 0.792 0.791 2.305 0.145 2.944 -1.257 0.85 -1.865 1.467 -9.111 1.477 -17.323 l 0.008 -7.425 l 2.723 -0.288 c 1.498 -0.159 3.258 -0.371 3.911 -0.473 l 1.187 -0.184 l -0.337 6 c -1.033 18.38 -2.068 21.974 -7.576 26.306 -1.692 1.331 -2.289 2.107 -2.184 2.842 0.137 0.96 0.356 1 4.349 0.844 3.161 -0.125 4.305 -0.008 4.611 0.474 0.533 0.841 0.511 7.904 -0.052 16.743 -0.656 10.295 -0.919 12.03 -1.907 12.557 -0.465 0.249 -3.727 0.64 -7.25 0.869 -7.341 0.478 -9.74 1.321 -10.433 3.669 -0.774 2.626 -1.974 4.644 -4.228 7.113 -2.927 3.206 -7.283 5.382 -8.107 4.049 z m 24.01 -21.19 c 0.636 -2.955 0.223 -18.505 -0.51 -19.238 -0.899 -0.898 -1.401 0.166 -1.789 3.786 -0.378 3.527 -0.018 15.573 0.503 16.809 0.55 1.307 1.354 0.7 1.797 -1.357 z m -10.291 -7.636 c 0.391 -3.647 -0.046 -11.822 -0.727 -13.613 -0.955 -2.512 -3.505 -0.807 -5.899 3.945 -2.363 4.691 -2.02 6.94 1.145 7.446 2.147 0.343 2.977 1.139 3.773 3.617 0.314 0.977 0.75 1.776 0.969 1.776 0.22 0 0.552 -1.427 0.739 -3.171 z"/><path d="m 99.88 126.45 c -0.545 -0.545 -0.678 -2.6 -0.676 -10.472 0.001 -5.387 0.139 -11.86 0.307 -14.386 l 0.304 -4.592 l 2.612 -0.326 c 5.343 -0.668 6.685 1.336 5.03 7.514 -0.775 2.898 -0.892 4.716 -0.773 11.944 0.106 6.447 -0.01 8.73 -0.477 9.364 -0.875 1.188 -5.414 1.873 -6.331 0.956 z"/><path d="m 188.96 126.57 c -2.197 -1.364 -3.844 -1.493 -6.249 -0.488 -3.604 1.506 -4.622 -0.308 -4.477 -7.982 0.102 -5.405 0.643 -10.253 1.541 -13.819 0.626 -2.488 2.129 -4.291 2.985 -3.581 0.947 0.786 5.232 9.305 7.64 15.191 1.807 4.416 2.24 6.03 2.289 8.525 0.053 2.744 -0.043 3.092 -0.887 3.204 -0.521 0.069 -1.8 -0.404 -2.842 -1.051 z"/><path d="m 181.05 153.66 c -0.154 -13.06 -0.246 -13.663 -2.547 -16.794 -0.729 -0.993 -0.703 -1.108 0.51 -2.231 0.703 -0.652 2.204 -1.633 3.335 -2.181 2.564 -1.241 3.468 -0.851 5.255 2.27 0.706 1.233 1.332 2.31 1.391 2.394 0.059 0.084 1.353 -0.813 2.876 -1.994 3.717 -2.882 8.706 -4.615 8.678 -3.01 -0.006 0.326 -0.972 2.077 -2.148 3.893 -2.904 4.483 -3.744 7.459 -3.754 13.297 -0.008 4.561 0.055 4.854 1.514 7.099 1.34 2.062 1.447 2.456 0.894 3.295 -1.272 1.931 -11.855 6.399 -15.15 6.399 -0.6 0 -0.724 -1.823 -0.85 -12.433 z"/><path d="m 196.07 176.95 c 0.218 -0.367 0.883 -1.449 1.477 -2.405 2.587 -4.16 3.083 -6.916 3.515 -19.536 0.222 -6.491 0.532 -12.388 0.689 -13.1 0.341 -1.553 0.743 -1.734 4.733 -2.143 l 3.073 -0.315 l -0.007 2.552 c -0.011 4.211 -1.357 22.21 -1.913 25.595 -0.617 3.75 -2.399 6.469 -5.387 8.221 -2.38 1.395 -6.818 2.21 -6.18 1.135 z"/><path d="m 122.41 196.15 c -1.172 -0.404 -3.517 -0.944 -5.21 -1.201 -3.551 -0.538 -7.173 -2.128 -12.595 -5.528 -2.108 -1.322 -5.325 -3.155 -7.15 -4.074 -6.197 -3.121 -8.142 -5.532 -7.22 -8.955 2 -7.442 8.351 -13.44 15.219 -14.381 1.784 -0.244 2.813 0.014 6.805 1.705 2.587 1.096 6.802 2.59 9.367 3.319 2.565 0.729 4.863 1.525 5.107 1.769 0.903 0.903 -0.283 2.111 -4.599 4.687 -5.466 3.262 -6.05 4.508 -3.136 6.661 2.941 2.171 8.757 2.845 17.76 2.058 6.826 -0.597 10.942 -1.694 13.404 -3.572 0.921 -0.703 3.138 -3.259 4.927 -5.68 1.788 -2.421 3.997 -4.971 4.908 -5.666 1.5 -1.144 1.828 -1.216 3.466 -0.762 0.995 0.276 2.874 0.505 4.177 0.508 4.229 0.009 5.898 0.758 9.117 4.09 2.215 2.293 2.96 3.402 2.96 4.407 0 1.16 -0.226 1.386 -1.654 1.654 -1.655 0.31 -1.948 0.598 -5.564 5.467 -1.208 1.627 -2.074 2.261 -3.722 2.726 -1.225 0.346 -3.213 1.516 -4.628 2.723 -1.364 1.164 -3.369 2.356 -4.456 2.649 -1.087 0.293 -3.153 1.123 -4.593 1.845 -5.357 2.688 -11.264 3.733 -22.983 4.068 -6.04 0.173 -8.01 0.068 -9.709 -0.518 z"/><path d="m 61.965 176.77 c -0.128 -0.334 0.62 -1.928 1.662 -3.541 1.043 -1.613 2.132 -4.04 2.421 -5.387 0.289 -1.35 0.69 -9.275 0.891 -17.61 0.259 -10.725 0.544 -15.521 0.975 -16.406 1.209 -2.481 4.602 -3.04 6.437 -1.06 1.588 1.713 1.877 3.794 0.929 6.69 -0.949 2.9 -0.865 12.466 0.118 13.447 0.866 0.864 2.601 -0.96 4.108 -4.319 2.27 -5.059 2.446 -9.761 0.397 -10.659 -1.206 -0.529 -1.242 -0.665 -0.611 -2.324 0.592 -1.557 3.784 -3.652 5.646 -3.704 1.119 -0.032 2.02 0.477 3.818 2.162 1.371 1.282 2.809 2.206 3.441 2.21 2.062 0.014 2.162 0.377 2.36 8.518 0.175 7.221 0.29 8.06 1.503 11.01 0.815 1.984 1.194 3.57 1 4.183 -0.344 1.083 -4.216 3.751 -5.445 3.751 -1.194 0 -2.632 1.883 -3.516 4.604 -0.928 2.856 -4.177 6.739 -6.602 7.889 -1.855 0.88 -5.03 1.029 -5.03 0.236 0 -0.293 0.85 -1.805 1.888 -3.36 2.422 -3.627 2.944 -5.663 2.93 -11.435 -0.013 -5.524 -0.428 -6.293 -3.123 -5.787 -2.355 0.442 -3 1.674 -4.03 7.675 -0.485 2.833 -1.103 5.713 -1.374 6.401 -0.659 1.674 -3.112 4.417 -4.984 5.574 -2.134 1.319 -5.508 2.041 -5.814 1.244 z"/></g></g></svg>