<svg xmlns="http://www.w3.org/2000/svg" viewBox="0 0 256 256"><path d="m 233.98 52.602525 c -48.541 -88.14 -200.63 -53.9309997 -226.36 18.64 -30.66 86.449995 49.14 250.629995 184.3 154.449995 45.527 -33.585 90.6 -84.949 42.05 -173.089995 z" style="fill:#fff;color:#000"/><g style="fill-rule:evenodd"><g style="fill:#ff4500"><path d="M 118.88213,205.1861 C 111.08585,201.91418 96.902481,192.11563 88.631505,184.28756 65.841966,162.71835 53.34809,133.28903 50.571778,94.637912 L 49.812966,84.073927 61.322045,82.890017 C 74.233741,81.561815 79.852229,80.244901 94.603111,75.089275 105.23861,71.372011 111.3428,67.765048 120.0905,60.028777 l 5.178,-4.579312 5.17801,4.643723 c 8.69287,7.795921 15.16195,11.482028 25.63626,15.142213 14.57376,5.092717 20.25044,6.329506 33.01307,7.642365 l 11.38998,1.17165 0,3.178201 c 0,6.634885 -2.40979,25.340743 -4.49802,34.915593 -7.0405,32.28186 -24.24986,57.88264 -50.55235,75.20202 -8.28737,5.457 -17.92208,10.10102 -20.57805,9.91881 -0.67323,-0.0462 -3.3621,-0.98126 -5.97527,-2.07794 z m 11.09545,-22.66574 c 5.41908,-3.45304 14.18659,-11.63267 19.77505,-18.44912 9.06043,-11.05129 17.79866,-31.52252 20.70248,-48.50014 0.97543,-5.70306 1.97851,-11.56231 2.22904,-13.02055 0.42391,-2.46751 0.0619,-2.736248 -5.22079,-3.875288 -9.93534,-2.14222 -23.92339,-6.960756 -33.20149,-11.437053 l -8.99337,-4.338926 -8.99337,4.34514 c -8.44908,4.082173 -23.02337,9.124529 -33.046168,11.433199 l -4.430878,1.02061 0.357219,6.239768 c 0.60005,10.48116 2.611499,19.7244 6.546016,30.08095 6.468941,17.02767 12.749132,26.85558 24.160971,37.80959 4.22471,4.05524 13.99028,11.48429 15.2098,11.57073 0.19175,0.0135 2.39921,-1.28192 4.90549,-2.87891 z" style="stroke:#ffa07a;stroke-width:5.70542622"/><path d="m 210.61726 149.16516 a 43.242676 43.751411 0 1 1 -86.48535 0 43.242676 43.751411 0 1 1 86.48535 0 z" transform="matrix(0.73235536 0 0 0.75872331 3.5891847 17.166794)" style="stroke:#ff4500"/></g><path transform="matrix(0.22078934 0 0 0.21822199 100.40456 84.054851)" d="m 210.61726 149.16516 a 43.242676 43.751411 0 1 1 -86.48535 0 43.242676 43.751411 0 1 1 86.48535 0 z" style="fill:#fff;stroke:#9acd32"/></g></svg>