<svg xmlns="http://www.w3.org/2000/svg" viewBox="0 0 256 256"><g transform="translate(0 -796.36)"><path d="m 3.74 950.97 c 19.829 131.87 217.21 135.83 247.04 7.636 30.702 -103.78 -80.47 -188.63 -163.63 -154.63 -55.684 16.07 -100.67 81.83 -83.41 146.99 z" style="fill:#fff;color:#000"/><g style="fill:#ff4500;fill-rule:evenodd"><path d="m 105.03 860.39 c 0 0 -14.852 13.02 -15.205 28.401 -7.757 -3.747 -13.469 -12.08 -7.78 -21.21 5.704 -9.161 13.574 -9.236 22.985 -7.186 z m -32.743 82.76 c 0 0 -8.341 15.771 -1.501 31.34 -8.81 -1.268 -17.566 -7.179 -16.551 -17.15 1.013 -9.956 5.04 -13.893 18.05 -14.185 z m 8.722 0.265 c 0 0 -7.847 9.482 -1.518 32.803 16.697 -0.769 22.596 -2.486 34.31 -15.889 11.71 -13.403 23.794 -61.64 20.04 -76.62 -3.757 -14.989 -18.215 -19.477 -18.215 -19.477 -16.09 6.919 -16.394 26.908 -16.394 26.908 0 0 15.09 3.343 4.554 32.803 -10.598 29.625 -22.769 19.477 -22.769 19.477 z"/><path d="m 179.13 876.57 c 0 0 -14 14.05 -14.335 30.635 -7.313 -4.04 -12.699 -13.03 -7.335 -22.883 5.378 -9.881 12.797 -9.963 21.67 -7.751 z m -30.87 89.27 c 0 0 -7.864 17.01 -1.416 33.803 -8.306 -1.368 -16.561 -7.743 -15.604 -18.502 0.955 -10.739 4.752 -14.986 17.02 -15.301 z m 8.223 0.286 c 0 0 -7.398 10.228 -1.431 35.38 15.742 -0.829 21.303 -2.681 32.34 -17.14 11.04 -14.457 22.433 -66.48 18.891 -82.65 -3.542 -16.17 -17.17 -21.01 -17.17 -21.01 -15.17 7.464 -15.456 29.02 -15.456 29.02 0 0 14.229 3.606 4.293 35.38 -9.992 31.955 -21.467 21.01 -21.467 21.01 z"/></g></g></svg>