<svg xmlns="http://www.w3.org/2000/svg" viewBox="0 0 256 256"><path d="m 157.05 800.67 c 237.88 49.54 -17.492 390.35 -138.4 185.62 -51.828 -79.53 16.06 -211.1 138.4 -185.62 z" transform="matrix(1 0 0 -0.99577 1.342 1048.14)" fill="#fff" color="#000"/><g transform="matrix(5.05947 0 0 5.29992 5.04 1.523)"><path d="m 14 16 c -0.5 0 -1 0.498 -1 0.998 h -0.002 c 0 5.669 0 11.337 0 17.01 h 23.998 v -14.932 c 0 -0.531 -0.5 -1.066 -1 -1.066 h -0.996 c -2.987 -0.016 -6 -0.008 -9 -0.008 l -1 -1.998 z" opacity="0.1" fill="#ff4500"/><g fill="#cd5c5c"><path d="m 21 15 0 4 3 0 1 -2 2 0 0 -0.004 -2 0 -1 -2 -3 0 z"/><path d="m 13 15 c -0.5 0 -1 0.5 -1 1 v 3 h 4 v -4 h -3 z"/><path d="m 16 15 v 4 h 5 v -4 h -5 z"/></g><path d="M 14,18 H25 V22 H14 z" fill="#800000"/><path d="m 12 19 v 14 h 4 v -14 h -4 z" fill="#dc143c"/><path d="m 15.885 19 l 0 14 l 5.231 0 l 0 -14 l -5.231 0 z" fill="#ff6347"/><path d="m 27 17 v 16 h 5 v -16 h -5 z" fill="#ff7f50"/><path d="m 32,17 0,16 4,0 0,-14.934 C 36,17.532 35.5,17 35,17 l -3,0 z" fill="#ffb6c1"/><path d="m 25 17 -1 2 -3 0 0 14 6 0 0 -16 -2 0 z" fill="#ff4500"/></g></svg>