<svg xmlns="http://www.w3.org/2000/svg" viewBox="0 0 256 256"><defs><clipPath><path transform="matrix(15.33333 0 0 11.5 415 -125.5)" d="m -24 13 c 0 1.105 -0.672 2 -1.5 2 -0.828 0 -1.5 -0.895 -1.5 -2 0 -1.105 0.672 -2 1.5 -2 0.828 0 1.5 0.895 1.5 2 z"/></clipPath></defs><g transform="translate(0 -796.36)"><path d="m 229.63 858.55 c 92.05 129.58 -77.948 260.87 -186.39 155.29 c -102.17 -99.48 -7.449 -254.02 119.69 -205.71 26.526 10.08 49.802 26.636 66.7 50.42 z" fill="#fff" color="#000"/><g transform="matrix(5.51083 0 0 4.81716 -276.49 977.22)" fill="#ff4500"><path d="m 72.959 -17.236 c -4.584 0 -8.352 3.352 -8.795 7.648 -0.091 -0.003 -0.175 -0.021 -0.267 -0.021 -3.442 0 -6.234 2.334 -6.234 5.197 0 2.844 2.757 5.146 6.168 5.176 0.022 0 0.045 0 0.067 0 h 23.802 c 2.201 0 3.963 -1.422 3.963 -3.185 0 -1.528 -1.328 -2.79 -3.117 -3.101 0.005 -0.086 0.022 -0.165 0.022 -0.251 0 -2.661 -2.329 -4.82 -5.21 -4.82 -0.601 0 -1.177 0.1 -1.714 0.272 -0.773 -3.936 -4.366 -6.915 -8.684 -6.915 z" opacity="0.15"/><path d="m 72.48 -24.279 c -4.584 0 -8.352 4.426 -8.795 10.1 -0.091 -0.004 -0.175 -0.028 -0.267 -0.028 -3.442 0 -6.234 3.083 -6.234 6.862 0 3.755 2.757 6.795 6.168 6.834 0.022 0 0.045 0 0.067 0 h 23.802 c 2.201 0 3.963 -1.878 3.963 -4.206 0 -2.02 -1.328 -3.685 -3.117 -4.095 0.005 -0.113 0.022 -0.217 0.022 -0.332 0 -3.514 -2.329 -6.364 -5.21 -6.364 -0.601 0 -1.177 0.131 -1.714 0.36 -0.773 -5.197 -4.366 -9.131 -8.684 -9.131 z"/><path d="m 79.78 -10.649 c 0 0.058 -4.837 2.896 -4.887 2.925 -0.049 0.03 -4.837 2.955 -4.887 2.925 -0.049 -0.03 0 -5.792 0 -5.851 0 -0.058 -0.049 -5.821 0 -5.851 0.049 -0.03 4.837 2.896 4.887 2.925 0.049 0.03 4.887 2.866 4.887 2.925 z" fill="#ffdead"/></g></g></svg>