<svg xmlns="http://www.w3.org/2000/svg" viewBox="0 0 256 256"><defs><clipPath><path transform="matrix(15.33333 0 0 11.5 415 -125.5)" d="m -24 13 c 0 1.105 -0.672 2 -1.5 2 -0.828 0 -1.5 -0.895 -1.5 -2 0 -1.105 0.672 -2 1.5 -2 0.828 0 1.5 0.895 1.5 2 z"/></clipPath></defs><path d="m 33.675 216.42 c -145.18 -221.56 251.35 -307.3 219.76 -79.37 c -12.881 92.96 -164.23 164.13 -219.76 79.37 z" style="fill:#fff;color:#000"/><path d="m 127.13 202.07 c -3.896 -0.368 -11.147 -2.144 -21.689 -5.313 -21.981 -6.607 -23.12 -6.808 -41.14 -7.269 -13.834 -0.354 -15.664 -0.536 -15.661 -1.558 0.002 -0.637 0.936 -3.641 2.075 -6.676 1.14 -3.035 3.043 -9.294 4.23 -13.909 2.145 -8.339 2.161 -8.542 2.688 -32.643 0.569 -26.07 0.875 -28.635 4.722 -39.554 5.668 -16.09 16.238 -29.737 30.355 -39.19 7.531 -5.05 14.12 -8.04 23.353 -10.616 5.901 -1.646 7.855 -1.839 18.641 -1.839 10.786 0 12.741 0.193 18.641 1.839 14.376 4.01 25.892 10.814 35.8 21.15 13.89 14.492 21.508 32.32 22.465 52.56 1.998 42.28 -28.416 78.68 -69.39 83.03 -3.836 0.408 -7.485 0.697 -8.107 0.642 -0.623 -0.055 -3.766 -0.348 -6.985 -0.653 z m -7.06 -37.945 c 0.395 -0.516 0.887 -10.367 1.165 -23.361 0.416 -19.418 0.651 -22.867 1.729 -25.4 3.918 -9.207 16.416 -9.91 20.16 -1.134 1.398 3.273 1.409 3.743 0.646 25.427 -0.681 19.358 -0.65 22.295 0.255 23.726 1.015 1.604 1.257 1.633 13.739 1.633 h 12.706 l 1.1 -1.739 c 0.971 -1.535 1.07 -4.911 0.843 -28.71 -0.238 -25.04 -0.359 -27.29 -1.693 -31.404 -2.989 -9.225 -7.855 -15.03 -15.931 -18.989 -4.405 -2.162 -4.962 -2.257 -13.206 -2.248 -9.15 0.01 -13.93 1.189 -18.51 4.568 -2.672 1.971 -2.834 1.91 -2.834 -1.058 0 -5.877 -1.138 -6.168 -15.15 -3.876 -4.734 0.774 -8.817 1.412 -9.07 1.417 -0.257 0.005 -0.954 0.514 -1.549 1.13 -0.957 0.992 -1.082 5.621 -1.082 40.16 0 29.412 0.204 39.25 0.826 39.894 1.194 1.237 24.903 1.204 25.853 -0.036 z" style="fill:#ff4500"/></svg>