<svg xmlns="http://www.w3.org/2000/svg" viewBox="0 0 256 256"><path d="m 53.071018,234.52898 c -88.14,-48.541 -53.93100016,-200.629998 18.64,-226.3599976 C 158.16102,-22.491018 322.34102,57.308982 226.16102,192.46898 c -33.585,45.527 -84.949,90.6 -173.090002,42.05 z" style="fill:#fff;fill-opacity:0.91634977;color:#000"/><g transform="matrix(0.35659942 0 0 0.33576677 114.15787 101.89037)" style="stroke:#fff"><path d="m 37.021143,-144.34108 -1.112703,0 L 247.32203,69.297921 35.90844,291.83854 38.133846,292.95125 -184.40678,81.537655 z" style="fill:#ff4500"/><path d="m 36.510525,-124.37337 3.915362,2.95557 L 227.51007,69.657919 55.203709,251.08489 35.398379,270.81405 -164.59482,80.774295 z" style="fill:none;stroke-width:12.71508503"/><path d="m 34.354361,-57.190506 c 0,0 64.678225,89.22329 62.957805,96.58493 -1.43725,6.14998 -43.69686,0 -43.69686,0 0,0 7.52131,38.17973 15.89214,55.37128 9.32419,19.149526 37.192924,53.651976 37.192924,53.651976 L 92.565296,167.5938 c 0,0 -31.07617,-34.73553 -36.48112,-32.6935 -8.59352,3.24668 -4.8737,58.52801 -4.8737,58.52801 H 9.947581 L 9.785071,39.394424 c 0,0 -35.8915,4.70758 -38.9309,0 -3.9099,-6.05584 63.50019,-96.58493 63.50019,-96.58493 z" style="fill:#fff;stroke-width:1.91488254"/></g></svg>