<svg xmlns="http://www.w3.org/2000/svg" viewBox="0 0 256 256"><defs><clipPath><circle r="99.31" cy="933.98" cx="132.22" style="fill:#0f9d58"/></clipPath><clipPath><circle r="128" cy="924.36" cx="128" style="fill:#72a854"/></clipPath><clipPath><circle r="128" cy="924.36" cx="128" style="fill:#4285f4"/></clipPath><clipPath><circle r="128" cy="924.36" cx="128" style="fill:#f16529"/></clipPath><clipPath><circle r="128" cy="924.36" cx="128" style="fill:#4285f4"/></clipPath><clipPath><circle r="128" cy="922.85" cx="112.26" style="fill:#0e85cd"/></clipPath><clipPath><path transform="translate(0 796.36)" d="m 88.12 249.44 c -42.02 -14.14 -73.35 -47.748 -83.985 -90.07 -2.796 -11.124 -3.211 -15.198 -3.208 -31.471 0.002 -10.417 0.209 -15.875 0.732 -19.348 2.808 -18.628 10.519 -37.903 21.385 -53.45 c 3.959 -5.666 8.345 -10.931 9.102 -10.926 0.328 0.002 10.489 18.31 22.579 40.683 12.09 22.373 22.375 41.33 22.854 42.14 0.479 0.802 0.925 2.441 0.99 3.643 0.343 6.316 2.524 14.21 5.642 20.423 2.954 5.887 5.065 8.733 10.435 14.07 6.714 6.67 12.889 10.286 21.732 12.729 3.166 0.874 5.105 1.05 11.575 1.05 8.826 0 12.602 -0.762 19.264 -3.887 2.046 -0.96 3.937 -1.665 4.202 -1.568 0.265 0.097 -11.06 17.665 -25.16 39.04 l -25.639 38.861 l -3.094 0.112 c -2.555 0.093 -4.195 -0.258 -9.409 -2.01 z"/><path d="m 112.36 1051.52 c -10 -1.449 -12.156 -1.82 -12.532 -2.156 -0.249 -0.222 1.738 -3.747 4.55 -8.07 7.166 -11.02 49.772 -74.65 50.26 -75.05 3.575 -2.992 8.635 -8.04 10.575 -10.554 3.362 -4.353 7.558 -12.914 9.07 -18.494 6.193 -22.925 -2.593 -47.15 -21.7 -59.837 l -2.961 -1.966 l 17.02 0.296 c 9.364 0.163 31.17 0.434 48.46 0.603 l 31.435 0.307 l 1.546 4.189 c 2.246 6.086 4.678 15.09 5.935 21.982 1.525 8.36 1.925 28.859 0.739 37.828 -3.081 23.278 -12.813 45.72 -27.802 64.11 -20.476 25.12 -51.46 42.2 -84.15 46.39 -5.312 0.681 -26.646 0.986 -30.446 0.436 z"/><path transform="translate(0 796.36)" d="m 67.99 108.87 c -26.706 -49.3 -34.7 -63.724 -35.756 -64.53 -0.582 -0.443 0.578 -1.795 6.462 -7.529 14.74 -14.365 30.11 -23.775 49.14 -30.08 13.848 -4.588 24.743 -6.299 40.11 -6.299 c 21.31 0 37.805 3.81 56.835 13.13 25.294 12.383 46.19 33.579 58.52 59.35 1.611 3.369 2.93 6.372 2.93 6.675 0 0.56 -10.549 0.495 -71.17 -0.437 l -24.288 -0.374 l -3.931 -1.764 c -6.757 -3.03 -10.646 -3.84 -18.658 -3.868 -5.03 -0.018 -7.979 0.208 -10.316 0.788 -14.508 3.604 -26.28 12.948 -33.29 26.419 -3.585 6.891 -5.247 13.08 -6.332 23.583 l -0.337 3.267 l -9.927 -18.326 z"/></clipPath><clipPath><circle r="128" cy="128" cx="128" style="fill:#292929;fill-opacity:0.26"/></clipPath><clipPath><path transform="matrix(15.33333 0 0 11.5 415 -125.5)" d="m -24 13 c 0 1.105 -0.672 2 -1.5 2 -0.828 0 -1.5 -0.895 -1.5 -2 0 -1.105 0.672 -2 1.5 -2 0.828 0 1.5 0.895 1.5 2 z"/></clipPath></defs><g transform="translate(0 -796.36)"><path d="m 53.53 1026.56 c 191.23 126.58 309.01 -277.1 61.801 -223.65 -102.16 22.774 -164.16 165.6 -61.801 223.65 z" style="fill:#fff;color:#000"/><g style="fill:#ff4500;fill-rule:evenodd"><path d="m 74.855 984.7 c -2.503 -0.918 -8.325 -4.359 -10.745 -6.351 -4.276 -3.519 -5.772 -7.255 -3.493 -8.723 1.603 -1.033 6.383 -2.316 20.409 -5.475 18.515 -4.171 26.06 -6.339 31.344 -9.01 9.787 -4.94 48.646 -49.862 58.23 -67.32 6.134 -11.169 8.06 -13.678 11.948 -15.58 2.977 -1.456 5.796 -1.038 11.194 1.659 4.548 2.272 7.168 4.686 7.168 6.604 0 0.622 -0.976 2.572 -2.17 4.333 -3.145 4.64 -4.243 9.712 -5.285 24.422 -1.769 24.966 -4.677 33.888 -14.394 44.16 -4.78 5.05 -8.172 7.525 -14.77 10.76 -13.212 6.479 -27.981 9.772 -48.47 10.809 -11.909 0.602 -16.707 1.775 -29.484 7.209 -6.935 2.949 -9.02 3.402 -11.48 2.498 z" style="opacity:0.99"/><path d="m 115.08 942.06 c -1.155 -0.74 -3.988 -2.991 -6.298 -5 -5.917 -5.155 -8.677 -7.142 -12.764 -9.191 -6.303 -3.16 -13.29 -5.01 -23.866 -6.319 -6.759 -0.837 -9.957 -1.411 -11.793 -2.117 l -1.307 -0.503 l 1.468 -2.154 c 2.02 -2.96 14.996 -18.96 23.483 -28.947 9.704 -11.419 13.16 -14.97 15.177 -15.593 0.919 -0.284 5.784 -0.628 10.812 -0.766 7.307 -0.199 10.07 -0.09 13.761 0.545 14.818 2.548 24.577 9.504 30.543 21.771 1.051 2.161 1.989 4.884 2.147 6.233 0.267 2.276 0.181 2.53 -1.725 5.115 -7.859 10.656 -34.17 38.3 -36.433 38.28 -0.609 -0.005 -2.052 -0.614 -3.206 -1.354 z" style="opacity:0.99"/><path d="m 160.21 894.54 c -0.403 -0.453 -1.988 -2.733 -3.521 -5.065 -2.578 -3.922 -7.353 -10.03 -12.833 -16.407 l -2.248 -2.618 l 1.782 -1.625 c 10.721 -9.778 23.07 -19.04 26.569 -19.928 l 1.251 -0.317 l -0.302 2.917 c -0.166 1.605 -1.227 7.52 -2.358 13.145 -2.27 11.292 -2.429 12.362 -3.066 20.752 -0.51 6.713 -1.649 9.971 -3.487 9.971 -0.579 0 -1.382 -0.371 -1.786 -0.825 z" style="opacity:0.99"/></g></g></svg>