<svg xmlns="http://www.w3.org/2000/svg" viewBox="0 0 256 256"><g transform="translate(0 -796.36)"><path d="m 229.63 992.2 c 92.05 -130.93 -77.948 -263.6 -186.39 -156.91 -102.17 100.51 -7.449 256.68 119.69 207.86 c 26.526 -10.185 49.802 -26.914 66.7 -50.948 z" style="fill:#fff;color:#000"/><g transform="matrix(3.11902 0 0 3.20048 50.15 843.49)" style="fill:#ff4500"><path d="M 4,4 V 44 H 44 V 4 H 4 z m 3,3 h 3 v 3 H 7 V 7 z m 31,0 h 3 v 3 H 38 V 7 z M 7,14.5 h 3 v 3 H 7 v -3 z m 31,0 h 3 v 3 h -3 v -3 z m -31,8 h 3 v 3 H 7 v -3 z m 31,0 h 3 v 3 h -3 v -3 z m -31,8 h 3 v 3 H 7 v -3 z m 31,0 h 3 v 3 h -3 v -3 z M 7,38 h 3 v 3 H 7 v -3 z m 31,0 h 3 v 3 h -3 v -3 z"/><g style="fill:#ffdead"><path d="m 13,7 h 22 v 8 H 13 z"/><path d="m 13,33 h 22 v 8 H 13 z"/><path d="M 13,17 H 35 V 31 H 13 z"/></g><path d="m 21.01 29.496 l 8.07 -5.5 l -8.07 -5.5 z" style="fill-rule:evenodd"/></g></g></svg>