<svg xmlns="http://www.w3.org/2000/svg" viewBox="0 0 256 256"><defs><clipPath><rect y="6" x="6" rx="6" height="84" width="84" style="fill:#ff4500"/></clipPath></defs><g transform="translate(0 -796.36)" style="color:#000"><path d="m 229.63 992.2 c 92.05 -130.93 -77.948 -263.6 -186.39 -156.91 -102.17 100.51 -7.449 256.68 119.69 207.86 c 26.526 -10.185 49.802 -26.914 66.7 -50.948 z" style="fill:#fff"/><path d="m 22.965 8.5 c -1.662 0 -3.265 0.267 -4.762 0.759 v 14.479 c 0 2.63 2.132 4.762 4.762 4.762 2.63 0 4.762 -2.132 4.762 -4.762 0 -2.63 -2.132 -4.762 -4.762 -4.762 v -4.762 c 5.26 0 9.524 4.264 9.524 9.524 0 5.26 -4.264 9.524 -9.524 9.524 -5.26 0 -9.524 -4.264 -9.524 -9.524 v -11.89 c -3.481 2.793 -5.714 7.08 -5.714 11.89 0 8.416 6.822 15.238 15.238 15.238 8.416 0 15.238 -6.822 15.238 -15.238 0 -8.416 -6.822 -15.238 -15.238 -15.238 z" transform="matrix(4.62001 0 0 4.53942 23.25 819.97)" style="fill:#ff4500"/></g></svg>