<svg xmlns="http://www.w3.org/2000/svg" viewBox="0 0 256 256"><defs><clipPath><path transform="matrix(15.33333 0 0 11.5 415 -125.5)" d="m -24 13 c 0 1.105 -0.672 2 -1.5 2 -0.828 0 -1.5 -0.895 -1.5 -2 0 -1.105 0.672 -2 1.5 -2 0.828 0 1.5 0.895 1.5 2 z"/></clipPath></defs><g transform="translate(1.061 1.811)"><path d="m 210.47 36.96 c 200.11 265.25 -350.59 302.94 -173.86 32.17 40.29 -61.728 120.86 -102.43 173.86 -32.17 z" style="fill:#fff;color:#000"/><path d="m 92.57 195.66 c -15.03 -3.621 -26.93 -16.607 -30.574 -33.36 -3.107 -14.292 1.537 -33.964 11.894 -50.37 7.641 -12.1 13.417 -18.545 23.474 -26.17 31.745 -24.07 70.893 -22.08 85.57 4.366 c 9.685 17.457 7.752 37.631 -6.05 63.13 -10.343 19.1 -27.29 33.371 -47.846 40.28 -8.01 2.691 -29.04 3.924 -36.465 2.136 z m 29.785 -11.353 c 6.647 -2.743 17.915 -13.07 24.03 -22 10.31 -15.07 17.805 -37.15 17.82 -52.5 0.011 -10.828 -1.739 -16.11 -7.349 -22.18 -9.248 -10.01 -25.05 -8.987 -40.03 2.577 -22.13 17.08 -37.97 62.59 -28.738 82.58 3.043 6.589 9.08 12.328 14.06 13.374 1.785 0.375 3.782 0.862 4.435 1.085 2.217 0.752 10.674 -0.817 15.781 -2.928 z" style="fill:#ffa07a"/><path d="m 90.4 190.23 c -15.03 -3.621 -26.93 -16.607 -30.574 -33.36 -3.107 -14.292 1.537 -33.964 11.894 -50.37 7.641 -12.1 13.417 -18.545 23.474 -26.17 31.745 -24.07 70.893 -22.08 85.57 4.366 c 9.685 17.457 7.752 37.631 -6.05 63.13 -10.343 19.1 -27.29 33.371 -47.846 40.28 -8.01 2.691 -29.04 3.924 -36.465 2.136 z m 29.785 -11.353 c 6.647 -2.743 17.915 -13.07 24.03 -22 10.31 -15.07 17.805 -37.15 17.82 -52.5 0.011 -10.828 -1.739 -16.11 -7.349 -22.18 -9.248 -10.01 -25.05 -8.987 -40.03 2.577 -22.13 17.08 -37.97 62.59 -28.738 82.58 3.043 6.589 9.08 12.328 14.06 13.374 1.785 0.375 3.782 0.862 4.435 1.085 2.217 0.752 10.674 -0.817 15.781 -2.928 z" style="fill:#ff4500"/></g></svg>