<svg xmlns="http://www.w3.org/2000/svg" viewBox="0 0 256 256"><g transform="translate(0 -796.36)"><path d="m 52.774 1027.39 c 192.46 127.95 311 -280.09 62.2 -226.07 -102.82 23.02 -165.22 167.39 -62.2 226.07 z" style="fill:#fff;color:#000"/><g transform="matrix(5.92167 -0.6978 0.76107 6.6105 -34.05 771.25)" style="fill:#ff4500"><g><path d="m 25 17 l -13 7 l 13 7 l 13 -7 l -13 -7 z m 12 8.539 l -2 1.076 v 6.924 l 1.1 -2.699 l 0.9 1.301 v -6.602 z m -21 1.615 v 3.996 l 9 4.85 l 9 -4.85 v -3.996 l -9 4.846 l -9 -4.846 z" style="fill-opacity:0.098"/><g><path d="m 11,23 13,-7 13,7 -13,7 z"/><path d="M 33,26.154 24,31 15,26.154 15,30.150391 24,35 33,30.150391 z"/></g><ellipse ry="1" rx="1.5" cy="23" cx="24.1" transform="matrix(1.60454 0.0296 0.03604 1.32791 -15.357 -8.579)" style="fill:#ffdead"/></g><path d="m 36,24.54 -2,1.076 0,6.924 1.1,-2.7 0.9,1.3 z"/></g></g></svg>