<svg xmlns="http://www.w3.org/2000/svg" viewBox="0 0 256 256"><g transform="translate(0 -796.36)"><path d="m 201.86 823.33 c -188.96 -126.21 -305.35 276.27 -61.07 222.99 100.95 -22.706 162.22 -165.11 61.07 -222.99 z" fill="#fff" color="#000"/><path d="m 97.57 978.65 c -3.305 -3.697 -5.793 -7.07 -5.528 -7.5 1.076 -1.741 4.437 -0.596 6.521 2.222 3.911 5.289 4.842 4.04 4.842 -6.5 l 0 -9.5 l -16.5 0 -16.5 0 l 0 -3 0 -3 l 16.5 0 16.5 0 l 0 -8 0 -8 l -13.953 0 c -14.547 0 -19.05 -0.955 -19.05 -4.04 0 -2.488 2.801 -2.927 18.75 -2.942 l 14.25 -0.014 l 0 -8.5 0 -8.5 l -13.375 0 c -15.876 0 -19.625 -0.572 -19.625 -2.994 0 -2.341 4.33 -2.981 20.25 -2.995 l 12.75 -0.011 l 0 -10.5 c 0 -11.814 -0.706 -12.748 -5.293 -7 -1.536 1.925 -3.448 3.5 -4.25 3.5 -2.935 0 -1.275 -3.66 4.649 -10.25 5.446 -6.06 6.453 -6.75 9.824 -6.75 3.296 0 4.296 0.637 8.163 5.205 8.03 9.491 8.258 9.843 7.03 11.07 -0.84 0.84 -2.133 0.151 -5.04 -2.686 -2.15 -2.099 -4.399 -3.513 -4.999 -3.142 -0.662 0.409 -1.09 4.378 -1.09 10.115 0 7.671 0.329 9.77 1.756 11.197 0.966 0.966 7.542 5.786 14.613 10.711 7.07 4.925 13.08 9.535 13.351 10.244 0.574 1.495 4.28 1.764 4.28 0.311 0 -0.538 3.624 -3.517 8.05 -6.621 7.443 -5.216 8.03 -5.881 7.75 -8.773 -0.242 -2.489 -0.753 -3.114 -2.497 -3.056 -2.183 0.073 -2.184 0.062 -0.297 -2.589 3.127 -4.392 4.6 -5.263 6.857 -4.055 1.098 0.588 2.282 1.969 2.631 3.069 0.349 1.101 1.055 2 1.568 2 0.513 0 0.933 0.505 0.933 1.122 0 0.824 -0.364 0.821 -1.367 -0.012 -1.984 -1.647 -3.893 1 -3.074 4.268 l 0.645 2.569 14.636 0.276 c 13.41 0.253 14.666 0.434 14.997 2.156 0.199 1.034 -0.246 2.265 -0.987 2.735 -0.742 0.47 -7.506 0.861 -15.03 0.87 -12.451 0.014 -13.736 0.183 -14.273 1.874 -1.483 4.673 -0.307 5.072 15.802 5.365 l 15.15 0.276 0.313 2.715 c 0.419 3.633 -1.26 3.975 -17.627 3.593 -11.439 -0.267 -13.282 -0.092 -13.722 1.301 -0.28 0.885 -0.225 2.348 0.121 3.25 0.546 1.423 2.675 1.641 16.02 1.641 l 15.393 0 l 0 3 0 3 l -15.481 0 -15.481 0 l -0.631 2.513 c -0.763 3.041 1.09 5.612 3.416 4.738 1.217 -0.457 0.958 0.313 -0.943 2.809 -3.451 4.531 -6.089 4.859 -8.773 1.091 -2.588 -3.635 -2.592 -3.791 -0.108 -4.441 1.414 -0.37 1.996 -1.356 1.985 -3.367 -0.021 -3.816 -0.496 -4.415 -7.735 -9.741 -3.438 -2.529 -6.25 -4.947 -6.25 -5.374 0 -0.426 -1.8 -0.775 -4 -0.775 -2.2 0 -4 0.352 -4 0.783 0 0.709 -5.731 5.05 -21.355 16.179 -3.02 2.154 -5.751 4.854 -6.06 6 -1.01 3.753 -0.631 17.438 0.5 18.14 0.598 0.369 2.531 -0.729 4.298 -2.441 3.164 -3.067 6.616 -4.133 6.616 -2.043 0 0.588 -2.588 3.963 -5.75 7.499 -5.513 6.165 -5.942 6.43 -10.413 6.43 -4.492 0 -4.883 -0.245 -10.672 -6.722 z m 27.04 -36.778 c 4.79 -3.3 8.729 -6.225 8.752 -6.5 0.023 -0.275 -4.571 -0.275 -10.21 0 l -10.252 0.5 -0.31 4.873 c -0.357 5.617 0.276 7.911 2.057 7.451 0.689 -0.178 5.172 -3.02 9.963 -6.324 z m 37.491 -5.836 c -0.362 -0.943 -1.843 -1.434 -4.133 -1.369 -1.963 0.056 -3.569 0.244 -3.569 0.418 0 0.174 1.451 1.199 3.224 2.277 3.335 2.028 5.516 1.382 4.477 -1.326 z m -25.785 -8.04 c -3.896 -3.535 -21.441 -14.635 -22.493 -14.231 -0.991 0.38 -1.424 2.204 -1.424 5.996 0 8.866 -0.375 8.613 12.774 8.613 6.358 0 11.372 -0.17 11.143 -0.378 z m 25.918 -1.978 c 0.714 -3.757 -1.547 -4.03 -6.02 -0.724 l -4.315 3.189 4.991 -0.305 c 3.928 -0.24 5.066 -0.7 5.344 -2.161 z" transform="matrix(1.19073 0 0 1.22131 -28.648 -210.09)" fill="#ff4500"/></g></svg>