<svg xmlns="http://www.w3.org/2000/svg" xmlns:xlink="http://www.w3.org/1999/xlink" viewBox="0 0 256 256"><defs><path id="0" d="m 68.906 38.17 l 1.928 2.128 l 1.834 1.948 l 2 2.01 l -1.807 0.901 l -2.478 1.41 l -2.416 1.336 l 4.128 -1.795 l 4.18 -1.684 l -3.718 -3.074 z" style="opacity:0.5;color:#fff"/><path id="1" d="m 68.22 52.38 l 2.141 1.643 l 2.028 1.497 l 2.202 1.533 l -1.702 0.932 l -2.316 1.427 l -2.263 1.358 l 3.916 -1.904 l 3.98 -1.814 l -4.02 -2.289 z" style="opacity:0.5;color:#fff"/><path id="2" d="m 69.02 29.985 c -1.544 0 -2.813 1.08 -2.813 2.438 0 1.357 1.269 2.469 2.813 2.469 1.544 0 2.781 -1.111 2.781 -2.469 0 -1.357 -1.237 -2.438 -2.781 -2.438 z m 0 0.375 c 1.302 0 2.344 0.918 2.344 2.063 0 1.145 -1.042 2.094 -2.344 2.094 -1.302 0 -2.375 -0.949 -2.375 -2.094 0 -1.145 1.073 -2.063 2.375 -2.063 z" style="opacity:0.25;color:#fff"/><path id="3" d="m 71.58 46.45 l 2.141 1.643 l 2.028 1.497 l 2.202 1.533 l -1.702 0.932 l -2.316 1.427 l -2.263 1.358 l 3.916 -1.904 l 3.98 -1.814 l -4.02 -2.289 z" style="opacity:0.5;color:#fff"/><filter style="color-interpolation-filters:sRGB"><feGaussianBlur stdDeviation="1.71"/></filter></defs><g transform="translate(0 -796.36)"><path d="m 24.975 849.14 c -127.95 192.46 280.09 311 226.07 62.2 -23.02 -102.82 -167.39 -165.22 -226.07 -62.2 z" style="fill:#fff;color:#000"/><g transform="matrix(1.96115 0 0 1.96143 34.03 822.02)" style="fill:#ff4500"><path d="m 32.962 13.926 c 1.65 2.271 0.113 6.06 2.601 6.03 1.212 1.756 -2.415 0.524 0.204 1.877 1.506 1.216 -1.593 1.91 0.272 3 -2.15 1.137 0.348 5.946 1.945 7.15 2.628 2.267 1.162 -4.801 4.094 -5.168 1.593 -1.864 4.392 -3.061 6.379 -4.937 -1.942 -0.162 -3.076 -1.401 -1.237 -2.168 3.385 3.556 0.849 -1.684 -1.025 -2.513 1.813 -0.591 3.577 -0.158 3.325 -1.692 1.916 -1.437 -1.842 -1.901 -3.184 -1.576 -4.458 0 -8.917 0 -13.375 0 z m -27.802 1.483 c -2.45 0.715 -2.621 6.716 -0.158 3.384 0.604 -1.368 3.397 -3.02 0.158 -3.384 z m 11.446 0.209 c -1.412 2.27 0.205 4.089 1.38 1.321 0.832 -1.156 -0.618 -1.279 -1.38 -1.321 z m 3.529 0.51 c -2.729 1.296 -0.673 4.319 -0.605 4.991 2.875 1.019 4.473 -0.666 5.561 2.215 2.735 1.616 -0.054 4.423 -1.081 5.154 1.849 -1.651 5.404 4.488 4.472 1.245 -1.112 -0.832 2.985 1.337 0.86 -1.367 -1.956 -3.23 0.155 -1.446 0.98 -0.692 2.805 -2.578 -3.174 -2.889 -1.681 -5.542 -1.308 -1.086 -3.02 -4.374 -5.339 -3.731 -1.55 2.055 -0.214 -4.477 -2.489 -1.209 -0.118 1.827 -0.043 4.146 -0.706 0.98 -0.444 -0.554 0.764 -1.842 0.027 -2.043 z m -5.565 0.023 c -1.832 0.626 -1.733 3.162 0.519 3.434 0.771 -0.901 0.306 -3.264 -0.519 -3.434 z m -7.148 0.811 c -2.379 0.578 -1.408 2.544 -0.68 3.098 -2.945 0.756 4.496 0.966 0.793 1.445 -3.081 1.261 2.967 2.747 3.959 1.252 3.804 0.954 0.137 -3.121 -0.197 -5.33 -1.613 -1.774 -0.064 4.09 -1.522 0.189 -0.509 1.158 -2.127 0.171 -2.353 -0.653 z m 75.6 0.255 c -3.192 1.281 1.984 6.113 0.698 1.717 -0.128 -0.531 0.288 -1.933 -0.698 -1.717 z m -66.67 1.947 c -2.294 2.21 2.916 4.04 -0.659 5.683 -0.536 -2.052 -1.458 1.027 -3.503 -0.631 -3.516 1.5 -5.314 -0.782 -8.258 -2.346 -1.768 -0.226 -1.104 1.722 -1.221 3.545 0 5.04 0 10.08 0 15.12 1.733 1.869 0.676 0.825 0 0.309 0.951 3.321 -0.42 8.176 3.331 10.11 0.638 1.212 3.313 6.376 3.436 4.831 -1.341 -1.44 -2.717 -5.755 -0.448 -1.909 2.033 3.656 4.775 6.03 8.78 6.898 2.19 0.764 3.991 3.388 5.917 2.811 1.089 2.942 -3.227 5.768 0.145 8.513 1.761 2.778 4.716 4.601 3.116 8.501 -1.119 3.81 -0.64 7.96 -1.608 11.51 -0.3 2.16 2.938 7.644 2.657 3.253 0.946 -3.051 0.921 -6.409 3.148 -8.57 3.047 0.025 0.582 -3.358 3.607 -2.916 1.846 -2.479 2.38 -5.437 5.495 -6.422 0.372 -3.01 5.179 -7.619 0.213 -8.791 -1.35 -0.682 -4.825 -0.927 -4.559 -1.263 0.538 -2.986 -4.493 -3.837 -6.634 -5.058 -2.811 -2.045 -7.03 3.397 -8.02 -1.292 -0.591 -1.475 -2.751 -1.499 -1.758 -3.776 -1.789 1.824 -5.289 1.27 -4.373 -2.253 1.392 -2.967 6.736 -3.107 7.646 0.461 -1.264 -3.935 2.444 -6.999 4.503 -9.799 0.419 -1.338 2.91 -2.488 2.053 -0.709 1.46 -0.054 3.673 -2.755 1.079 -1.508 -0.037 -2.463 -2.273 -1.762 -2.998 -1.413 1.344 -2.186 8.245 -0.991 5.355 -4.564 -2.239 -0.93 -2.053 -6.357 -4.318 -3.333 0.191 -1.863 -4.61 -5.509 -4.505 -2.385 0.586 2.795 0.107 6.01 -1.14 7.847 -0.26 -4.096 -7.08 -3.191 -6.199 -7.555 1.269 -2.08 2.753 -4.957 2.894 -4.698 2.275 -0.89 4.105 -3.48 1.468 -5.182 -0.141 1.484 -1.983 4.545 -1.724 0.843 -1.706 2.073 -1.316 -3.298 -2.914 -3.855 z m 54.45 1.437 c -3.996 1 -5.58 4.914 -7.557 8.153 -2.914 1.346 -2.803 7.129 0.452 5.282 0.871 1.56 -0.61 4.02 1.928 1.979 2.047 -2.776 0.358 -7.267 3.841 -9.02 0.254 1.361 -3.213 6.444 0.837 5.609 3.662 0.142 -2.662 0.374 -0.881 2.771 -1.85 -1.125 -0.889 3.073 -3.304 2.096 -2.092 1.166 -3.464 -0.542 -2.985 -2.413 -1.646 0.984 0.518 3.761 -2.34 3.927 -0.64 2.329 -5.903 1.978 -2.91 4.35 1.329 3.53 -4.952 0.221 -3.169 4.457 1.525 4.189 4.722 -1.388 6.02 -2.465 2.502 -1.99 6.211 3.392 3.959 3.592 2.525 -0.347 2.01 -2.809 -0.017 -3.761 -1.093 -2.905 3.459 1.424 3.207 2.881 1.606 3.082 0.945 -3.156 2.579 -0.394 -0.191 2.913 6.574 0.685 3.344 4.398 -2.777 0.573 -5.51 -0.734 -7.901 0.103 -2.225 -0.02 -2.113 -2.457 -2.924 -3.067 -2.83 0.236 -6.328 0.209 -8.223 2.553 -2.049 2.881 -5 6.909 -2.771 10.588 2.235 5.452 7.777 0.283 10.963 3.503 0.947 1.343 -0.821 2.938 1.297 4.393 0.797 3.098 -0.904 6.04 1.052 9 1.012 2.785 1.64 6.953 5.406 4.408 3.986 -2.458 2.924 -6.99 6.213 -9.5 -2.602 -5.162 3.184 -7.425 4.627 -11.615 -3.154 0.473 -5.964 -2.75 -6.726 -5.994 -1.325 -1.576 -0.984 -3.899 0.496 -0.939 2.034 2.02 2.078 8.02 5.841 4.931 1.72 -0.738 6.419 -3.551 2.675 -4.831 -2.413 1.791 -5.075 -5.352 -1.532 -1.209 2.576 1.12 4.38 1.788 4.38 -1.926 0 -10.01 0 -20.15 0 -30.22 -0.802 0.84 -2.864 2.393 -3.904 1.361 -1.79 0.256 -4.154 3.826 -3.591 0.375 -1.556 -0.106 -0.279 3.095 -2.417 3.184 -0.215 1.645 -2.16 0.305 -1.429 1.867 -1.501 -1.091 -2.771 -4.536 0.186 -2.374 4.391 -1.35 -2.896 -4.396 -3.458 -5.132 0.945 -0.232 -1.029 -1.242 -1.267 -0.904 z m -36.24 0.904 c -1.462 1.248 2.779 1.483 0 0 z m -19.522 0.672 c -1.635 1.752 2.603 1.611 0 0 z m 9.478 1.738 c -1.238 2.078 1.829 0.767 0 0 z m 27.1 2.457 c -1.449 1.71 -3.362 -0.45 -3.393 1.02 0.263 0.444 1.315 3.614 3.619 1.275 1.237 -0.535 0.75 -1.882 -0.226 -2.294 z m -30.856 1.02 c -2.749 2.46 4.668 2.687 0.582 0.282 l -0.582 -0.282 z m 36.26 6.814 c -1.979 1.323 0.949 4.132 -0.043 5.451 -1.24 2.215 4.608 -0.156 1.485 -1.923 -0.223 -1.518 -1.83 -3.37 -1.442 -3.528 z m -1.335 2.665 c -2.757 0.799 -0.626 4.924 0.351 1.039 0.055 -0.225 0.129 -1.046 -0.351 -1.039 z m -22.08 2.99 c -2.565 1.793 -0.398 3.582 1.482 2.776 -0.386 -1.082 -1.464 -1.763 -1.482 -2.776 z m 48.46 3.01 c 1.28 0.662 -2.346 1.793 -0.05 2.958 1.336 1.61 0.832 5.067 -1.339 2.62 0.403 -2.731 -2.944 -4.771 1.389 -5.579 z m -6.583 0.023 c -0.174 1.755 3.694 4.483 -0.475 3.592 -2.205 0.265 -5.507 -0.069 -2.729 -2.885 0.878 -0.54 3.182 1.863 1.983 -0.383 0.425 -0.028 0.821 -0.192 1.222 -0.324 z m -12.736 3.801 c -1.608 1.062 1.112 1.876 0 0 z m -40.38 9.896 c -0.271 0.927 5.086 1.866 1.389 0.381 l -0.551 -0.199 l -0.838 -0.182 z m 4.162 1.321 c -1.625 1.691 3.348 0.505 0 0 z m 54.34 15.505 c -3.531 0.093 -3.061 9.427 -0.6 3.904 0.233 -1.199 1.169 -2.78 0.6 -3.904 z" style="opacity:0.8"/><path d="m 35.594 42.874 c 0 0 9.62 33.877 32.07 44.09 0 0 -25.1 -8.18 -32.07 -44.09 z" style="opacity:0.25"/><path d="m 41.06 64.2 c 0 0 34.33 -7.66 45.709 -29.2 0 0 -9.483 24.25 -45.709 29.2 z" style="opacity:0.25"/><g transform="matrix(0.91414 0 0 0.7837 12.04 26.11)"><path d="m 39.957 89.71 c 0 0 -3.193 -17.917 -5.975 -24.419 c -1.33 -3.108 -6.078 -16.303 -10.551 -22.21 -3.557 -4.698 -2.746 -10.1 -2.331 -10.921 c 0.415 -0.822 0.511 -4.758 0.331 -9.222 -0.141 -3.496 1.147 -6.106 1.147 -6.106 0 0 -1.865 -4.52 -1.451 -5.958 0.415 -1.438 6.218 -1.027 8.498 1.644 0 0 19.13 -8.176 30.05 8.835 0 0 4.145 -1.849 8.08 1.438 0 0 -2.902 4.726 -7.669 6.78 0 0 3.109 1.644 5.803 4.726 2.694 3.082 22.799 -1.027 23.835 0.616 l 0.045 54.858 z" style="fill:#ffdead"/><g style="color:#fff"><path d="m 33.872 24.752 c -0.073 1.142 -0.611 0.347 -2.228 0.706 -1.786 0.397 -2.91 -0.347 -2.98 -1.958 -0.078 -1.807 1.572 -2.832 2.905 -2.505 1.405 0.345 2.375 2.615 2.303 3.756 z"/><path d="m 32.977 22.819 c 0.405 -0.033 0.481 0.508 0.524 0.647 l 0.173 0.56 c 0.043 0.139 -0.318 -0.028 -0.674 -0.081 -0.214 -0.032 -0.533 -0.111 -0.533 -0.111 l -0.233 -0.871 c 0 0 0.395 -0.115 0.744 -0.143 z" style="opacity:0.85"/><path d="m 45.585 26.715 c -0.408 1.069 0.412 0.569 1.734 1.567 1.461 1.102 2.792 0.892 3.524 -0.545 0.821 -1.611 -0.255 -3.229 -1.604 -3.484 -1.421 -0.269 -3.246 1.393 -3.654 2.462 z"/><path d="m 50.691 25.985 c 0.312 -0.014 0.244 0.445 0.244 0.564 v 0.478 c 0 0.119 -0.232 -0.034 -0.488 -0.091 -0.154 -0.034 -0.375 -0.112 -0.375 -0.112 l 0.026 -0.744 c 0 0 0.324 -0.084 0.593 -0.096 z" style="opacity:0.85"/></g><path d="m 35.993 33.732 c 0 0 -7.369 1.459 -7.869 0.235 -0.673 -1.648 0.31 2.472 1.213 3.06 0.903 0.589 5.978 3.06 8.123 0 2.145 -3.06 -1.468 -3.296 -1.468 -3.296 z"/><path d="m 40.514 34.28 c 0 0 6.466 3.538 7.725 2.232 0.917 -0.951 -0.966 2.375 -1.986 2.727 -1.019 0.351 -6.629 1.372 -7.965 -2.119 -1.336 -3.49 2.225 -2.84 2.225 -2.84 z"/><g style="color:#fff"><path d="m 43.859 34.33 c 0 1.64 -2.145 2.969 -4.791 2.969 -2.646 0 -4.791 -1.329 -4.791 -2.969 0 -1.64 2.145 -2.969 4.791 -2.969 2.646 0 4.791 1.329 4.791 2.969 z" transform="matrix(0.98898 0.14806 -0.14806 0.98898 4.838 -6.756)"/><path transform="matrix(0.14968 0.02241 -0.02241 0.14968 31.426 25.479)" d="m 43.859 34.33 c 0 1.64 -2.145 2.969 -4.791 2.969 -2.646 0 -4.791 -1.329 -4.791 -2.969 0 -1.64 2.145 -2.969 4.791 -2.969 2.646 0 4.791 1.329 4.791 2.969 z" style="fill:#ffdead"/><path d="m 44.38 40.563 c 0 1.968 -2.376 1.715 -7.113 1.835 c -5.614 0.142 -6.262 0.133 -6.262 -1.835 0 -1.968 2.994 -3.563 6.688 -3.563 c 3.693 0 6.688 1.595 6.688 3.563 z" transform="matrix(0.98752 0.15749 -0.15749 0.98752 6.734 -6.179)" style="opacity:0.9"/></g><g transform="matrix(0.98833 0.10924 -0.15156 0.65306 5.829 9.241)"><path d="m 38.15 35.614 c 0 0 0.675 1.754 -0.405 2.969 -1.08 1.215 -8.097 1.754 -8.772 -0.945 0 0 6.748 2.969 9.177 -2.024 z"/><path d="m 38.24 35.707 c 0 0 -0.675 1.754 0.405 2.969 1.08 1.215 8.097 1.754 8.772 -0.945 0 0 -6.748 2.969 -9.177 -2.024 z"/></g><path d="m 28.452 43.919 c 0 0 7.535 -1.754 9.961 -0.772 2.426 0.982 9.847 3.927 9.847 3.927 0 0 -13.263 -3.764 -19.808 -3.155 z" style="opacity:0.6"/><use xlink:href="#0"/><path d="m 71.58 46.45 l 2.141 1.643 l 2.028 1.497 l 2.202 1.533 l -1.702 0.932 l -2.316 1.427 l -2.263 1.358 l 3.916 -1.904 l 3.98 -1.814 l -4.02 -2.289 z" style="opacity:0.5;color:#fff"/><use xlink:href="#1"/><g transform="matrix(0.89352 0.44903 -0.44903 0.89352 22.553 -8.177)"><use xlink:href="#0"/><use xlink:href="#3"/><use xlink:href="#1"/></g><g transform="translate(9.1 0.297)"><use xlink:href="#0"/><use xlink:href="#3"/><use xlink:href="#1"/></g><g transform="matrix(0.97085 0.23971 -0.23971 0.97085 16.58 5.219)"><use xlink:href="#0"/><use xlink:href="#3"/><use xlink:href="#1"/></g><g style="color:#fff"><path d="m 70.77 36.15 l 2.02 -0.211 l 1.875 -0.241 l 1.976 -0.326 l -0.159 1.715 l -0.113 2.445 l -0.133 2.363 l 0.52 -3.781 l 0.606 -3.759 l -3.279 0.947 z"/><path d="m 78.48 35.659 l 2.02 -0.211 l 1.875 -0.241 l 1.976 -0.326 l -0.159 1.715 l -0.113 2.445 l -0.133 2.363 l 0.52 -3.781 l 0.606 -3.759 l -3.279 0.947 z"/></g><g transform="matrix(0.83093 0.08891 -0.07417 0.99604 24.23 13.583)"><use xlink:href="#0"/><use xlink:href="#3"/><use xlink:href="#1"/></g><path d="m 27.13 13.09 c 0 0 -4.119 -2.955 -4.835 -2.328 -0.716 0.627 1.343 5.372 1.343 5.372 0 0 0.537 -3.671 3.492 -3.044 z" style="opacity:0.6"/><path d="m 60.852 27.714 c 0 0 5.564 -3.695 5.245 -4.591 -0.319 -0.897 -5.49 -0.727 -5.49 -0.727 0 0 1.914 2.801 0.245 5.318 z" style="opacity:0.6"/><path d="m 30.08 32.553 c 0 0 -10.117 0.679 -18.474 2.173 0 0 10.493 -1.11 18.474 -2.173 z" id="4"/><path d="m 28.6 32.15 c 0 0 -7.886 -1.206 -14.563 -1.287 0 0 8.25 0.853 14.563 1.287 z" id="5"/><path d="m 28.22 33.29 c 0 0 -6.372 2.603 -13.803 5.848 0 0 7.807 -3.824 13.803 -5.848 z" id="6"/><g><path d="m 30.832 38.794 c 0 0 -4.522 2.993 -9.763 6.644 0 0 5.438 -4.149 9.763 -6.644 z"/><path d="m 30.665 39.441 c 0 0 -4.258 4.168 -9.154 9.194 0 0 5.01 -5.605 9.154 -9.194 z" id="9"/><path d="m 31.541 39.05 c 0 0 -3.37 4.914 -7.199 10.793 0 0 3.825 -6.468 7.199 -10.793 z" id="A"/></g><path d="m 28.13 31.32 c 0 0 -9.253 -3.152 -17.294 -4.697 0 0 9.77 2.809 17.294 4.697 z" id="7"/><g transform="matrix(-0.99273 -0.12033 -0.12033 0.99273 79.4 6.961)" style="fill:#ffdead"><use xlink:href="#4"/><use xlink:href="#5"/><use xlink:href="#6"/><use xlink:href="#7"/></g><g transform="matrix(-1 0 0 1 75.1 2.485)"><path d="m 30.832 38.794 c 0 0 -4.522 2.993 -9.763 6.644 0 0 5.438 -4.149 9.763 -6.644 z"/><use xlink:href="#9"/><use xlink:href="#A"/></g></g><path d="m 74.37 35.529 c 0 0 -30.27 -17.928 -53.3 -10.02 0 0 23.519 -11.181 53.3 10.02 z" style="opacity:0.25"/><g style="color:#fff"><path d="m 16.781 20.25 c -1.544 0 -2.813 1.08 -2.813 2.438 0 1.357 1.269 2.469 2.813 2.469 1.544 0 2.781 -1.111 2.781 -2.469 0 -1.357 -1.237 -2.438 -2.781 -2.438 z m 0 0.375 c 1.302 0 2.344 0.918 2.344 2.063 0 1.145 -1.042 2.094 -2.344 2.094 -1.302 0 -2.375 -0.949 -2.375 -2.094 0 -1.145 1.073 -2.063 2.375 -2.063 z" style="opacity:0.25"/><path d="m 16.774 21.31 c -0.877 0 -1.597 0.613 -1.597 1.384 0 0.771 0.72 1.402 1.597 1.402 0.877 0 1.579 -0.631 1.579 -1.402 0 -0.771 -0.703 -1.384 -1.579 -1.384 z m 0 0.213 c 0.739 0 1.331 0.521 1.331 1.171 0 0.65 -0.592 1.189 -1.331 1.189 -0.739 0 -1.348 -0.539 -1.348 -1.189 0 -0.65 0.609 -1.171 1.348 -1.171 z" style="opacity:0.25"/></g><g><use xlink:href="#2"/><path d="m 69.02 31.05 c -0.877 0 -1.597 0.613 -1.597 1.384 0 0.771 0.72 1.402 1.597 1.402 0.877 0 1.579 -0.631 1.579 -1.402 0 -0.771 -0.703 -1.384 -1.579 -1.384 z m 0 0.213 c 0.739 0 1.331 0.521 1.331 1.171 0 0.65 -0.592 1.189 -1.331 1.189 -0.739 0 -1.348 -0.539 -1.348 -1.189 0 -0.65 0.609 -1.171 1.348 -1.171 z" style="opacity:0.25;color:#fff"/></g><g transform="translate(17.639 2.699)"><use xlink:href="#2"/><path d="m 69.02 31.05 c -0.877 0 -1.597 0.613 -1.597 1.384 0 0.771 0.72 1.402 1.597 1.402 0.877 0 1.579 -0.631 1.579 -1.402 0 -0.771 -0.703 -1.384 -1.579 -1.384 z m 0 0.213 c 0.739 0 1.331 0.521 1.331 1.171 0 0.65 -0.592 1.189 -1.331 1.189 -0.739 0 -1.348 -0.539 -1.348 -1.189 0 -0.65 0.609 -1.171 1.348 -1.171 z" id="8" style="opacity:0.25;color:#fff"/></g><path d="m 86.8 35.483 c 0 0 -6.509 -18.831 -14.336 -20.341 0 0 8.405 -0.31 14.336 20.341 z" style="opacity:0.25"/><g transform="translate(3.952 -16.964)"><use xlink:href="#2"/><use xlink:href="#8"/></g><path d="m 72.913 15.286 c 0 0 -6.637 12.666 -3.504 17.462 0 0 -4.381 -4.197 3.504 -17.462 z" style="opacity:0.25"/></g><g transform="translate(0 796.36)" style="fill:#fff;fill-rule:evenodd"><path d="m 226.81 209.15 c 0.006 0.424 -0.686 0.801 -0.735 1.297 -0.476 1.081 -1.072 2.102 -1.668 3.117 -0.708 1.105 -1.165 1.822 -2.057 2.839 -0.786 0.889 -1.835 1.468 -2.823 2.1 -0.969 0.605 -2.027 1.055 -2.98 1.682 -0.982 0.569 -1.945 1.179 -2.87 1.837 -1.267 0.864 -2.545 1.687 -3.895 2.415 -1.423 0.719 -2.849 1.41 -4.357 1.932 -0.695 0.27 -1.444 0.304 -2.147 0.537 -5.958 1.662 -8.308 -6.764 -2.35 -8.426 c 0.576 -0.152 1.144 -0.292 1.727 -0.409 1.047 -0.319 1.983 -0.891 2.979 -1.336 1.045 -0.563 2.032 -1.197 3.01 -1.869 1.093 -0.762 2.213 -1.492 3.365 -2.161 0.929 -0.549 1.873 -1.072 2.823 -1.585 1.023 -0.647 0.818 -0.336 1.316 -0.89 -0.798 1.178 0.801 -1.209 0.826 -1.283 0.424 -0.773 0.658 -1.078 0.994 -1.794 0.665 -1.527 1.553 -2.936 2.654 -4.19 4.374 -4.374 10.559 1.812 6.185 6.185 z"/><path d="m 218.07 124.28 c -0.012 -0.04 -0.06 -0.155 -0.035 -0.121 0.454 0.622 0.79 1.288 1.369 1.813 1.064 0.896 1.9 2.01 2.697 3.136 0.512 0.837 1.072 1.623 1.653 2.398 0.981 1.165 1.496 2.598 1.999 4.01 0.364 1.173 0.744 2.341 1.137 3.505 0.366 1.337 0.773 2.663 1.062 4.02 0.237 1.207 0.3 2.437 0.341 3.663 0.196 6.182 -8.546 6.46 -8.743 0.278 c -0.022 -0.725 -0.044 -1.453 -0.164 -2.171 -0.197 -1.013 -0.544 -1.988 -0.783 -2.991 -0.381 -1.128 -0.747 -2.261 -1.1 -3.398 -0.216 -0.625 -0.33 -1.213 -0.775 -1.707 -0.629 -0.868 -1.266 -1.726 -1.826 -2.64 -0.521 -0.81 -1.14 -1.478 -1.873 -2.116 -1.055 -1.161 -2.01 -2.403 -2.782 -3.77 -2.766 -5.532 5.058 -9.444 7.824 -3.912 z"/><path d="m 128.57 207.09 c 0.004 -0.029 0 -0.114 0.012 -0.087 0.392 0.895 0.568 1.88 0.902 2.798 -0.175 -0.508 1.028 1.942 0.749 1.278 -1.025 -1.091 1.38 0.702 1.469 0.767 0.775 0.566 1.469 1.465 2.226 1.955 0.88 0.553 1.633 1.274 2.458 1.896 -0.035 -0.037 -0.149 -0.137 -0.106 -0.11 0.772 0.488 1.054 0.623 1.91 1.117 1.076 0.642 2.237 1.122 3.418 1.54 2.28 0.864 4.627 1.519 6.925 2.333 1.514 0.625 3.101 0.947 4.719 1.14 6.137 0.773 5.04 9.451 -1.093 8.679 c -2.24 -0.292 -4.451 -0.735 -6.557 -1.578 -2.317 -0.827 -4.692 -1.475 -6.99 -2.356 -1.675 -0.621 -3.332 -1.304 -4.869 -2.225 -0.955 -0.604 -2.01 -1.038 -2.893 -1.766 -0.575 -0.48 -1.086 -0.939 -1.787 -1.399 -0.951 -0.678 -1.841 -1.433 -2.662 -2.266 -1.084 -0.724 -2.308 -1.397 -3.154 -2.46 -0.781 -1.121 -1.428 -2.312 -1.987 -3.559 -0.476 -1.311 -0.833 -2.657 -1.269 -3.982 -1.213 -6.07 7.364 -7.781 8.577 -1.715 z"/><path d="m 225.95 201.09 c -0.647 0.87 -1.042 1.85 -1.501 2.821 -0.159 0.694 -0.562 1.318 -0.692 2.02 -0.393 1.015 -0.667 2.061 -1.056 3.077 -0.338 1.174 -1.364 1.961 -1.908 3 -0.855 1.257 -2.01 2.253 -3.2 3.184 -0.901 0.997 -2.085 1.7 -3.255 2.333 -0.902 0.429 -1.832 0.821 -2.778 1.147 -0.961 0.331 -0.538 0.11 -0.944 0.333 -1.184 0.537 -2.505 0.652 -3.703 1.14 -1.396 0.561 -2.887 0.802 -4.321 1.24 -1.755 0.608 -3.523 1.18 -5.249 1.868 -2.055 0.741 -4.099 1.51 -6.174 2.194 -0.845 0.319 -1.711 0.566 -2.551 0.897 -5.778 2.207 -8.9 -5.964 -3.122 -8.171 c 0.979 -0.367 1.967 -0.691 2.953 -1.039 1.912 -0.62 3.787 -1.346 5.682 -2.02 1.974 -0.773 3.982 -1.449 5.991 -2.123 1.263 -0.364 2.559 -0.613 3.793 -1.066 1.109 -0.389 2.242 -0.673 3.365 -1.01 0.96 -0.375 1.944 -0.687 2.895 -1.087 0.755 -0.408 1.427 -0.862 2.024 -1.526 0.468 -0.366 0.903 -0.7 1.273 -1.084 0.299 -0.442 0.653 -1.044 1.036 -1.437 0.053 -0.055 -0.146 0.268 -0.103 0.205 0.214 -0.317 0.281 -0.577 0.129 -0.116 0.235 -0.612 0.451 -1.51 0.751 -2.121 0.335 -1.232 0.812 -2.408 1.264 -3.599 0.499 -1.045 0.925 -2.157 1.612 -3.098 0.025 -0.034 -0.023 0.081 -0.035 0.121 2.766 -5.532 10.59 -1.62 7.824 3.912 z"/><path d="m 224.65 188.4 c -0.203 1.328 -0.342 2.654 -0.644 3.965 -0.134 1.042 -0.595 2 -0.809 3.02 -0.352 1.297 -1.027 2.464 -1.697 3.614 -0.226 0.495 -0.478 1.024 -0.64 1.589 -0.087 1.066 -0.952 1.883 -1.236 2.857 -0.557 0.947 -1.193 1.821 -1.748 2.765 -0.758 1.116 -1.423 2.12 -2.412 3.121 -0.202 0.483 -2.578 1.651 -2.725 2.03 -1.085 0.986 -2.434 1.583 -3.625 2.417 -1.145 0.798 -2.375 1.461 -3.535 2.232 -0.702 0.395 -1.304 0.915 -2.028 1.282 -1.406 0.712 -0.585 0.191 -1.024 0.473 -1.395 0.584 -2.84 1.052 -4.313 1.395 -1.043 0.292 -2.079 0.582 -3.098 0.95 -1.569 0.594 -3.206 0.994 -4.77 1.597 -1.684 0.69 -3.454 1.112 -5.173 1.698 -1.986 0.615 -3.935 1.334 -5.948 1.856 -2.312 0.529 -4.685 0.635 -7.05 0.697 -1.246 0.106 -2.53 -0.126 -3.755 0.12 -0.567 0.117 -1.141 0.197 -1.714 0.276 -6.13 0.825 -7.296 -7.844 -1.167 -8.669 c 0.465 -0.06 0.928 -0.131 1.387 -0.226 1.668 -0.273 3.34 -0.238 5.03 -0.245 1.713 -0.043 3.437 -0.093 5.122 -0.432 1.804 -0.438 3.525 -1.152 5.307 -1.667 1.639 -0.546 3.317 -0.954 4.919 -1.608 1.612 -0.585 3.259 -1.06 4.874 -1.635 1.353 -0.478 2.727 -0.879 4.114 -1.245 0.795 -0.164 1.543 -0.466 2.322 -0.686 0.761 -0.365 1.508 -0.704 2.244 -1.296 1.099 -0.693 2.214 -1.357 3.3 -2.076 0.942 -0.64 1.951 -1.166 2.867 -1.832 0.796 -0.65 1.638 -1.239 2.482 -1.813 -0.319 0.541 0.815 -1.228 0.88 -1.236 0.385 -0.63 0.94 -1.642 1.334 -1.996 0.65 -1.308 0.491 -0.64 0.889 -2.02 0.415 -1.13 0.851 -2.253 1.461 -3.299 -0.036 0.347 0.446 -0.911 0.556 -1 0.069 -0.058 -0.124 0.336 -0.085 0.256 0.164 -0.334 0.126 -0.528 0.156 -0.32 0.264 -1.039 0.626 -1.909 0.791 -2.949 0.291 -1.211 0.326 -2.462 0.583 -3.683 1.213 -6.07 9.79 -4.35 8.577 1.715 z"/><path d="m 127.83 201.08 c 0.401 1.179 0.948 2.312 1.6 3.372 0.718 1.074 1.617 2.01 2.508 2.938 0.922 0.884 1.67 1.962 2.696 2.737 0.921 0.692 1.913 1.29 2.888 1.904 1.023 0.574 1.931 1.303 2.942 1.892 0.941 0.391 1.881 0.79 2.824 1.18 1.141 0.578 2.352 0.986 3.545 1.44 1.252 0.45 2.524 0.844 3.78 1.283 1.476 0.523 2.996 0.896 4.486 1.374 2.104 0.634 4.275 0.99 6.456 1.223 2.905 0.248 5.823 0.281 8.738 0.306 2.573 0.012 5.147 0.005 7.72 0.001 1.752 -0.002 0.875 -0.001 2.63 -0.003 6.185 -0.006 6.193 8.741 0.008 8.747 c -1.753 0.002 -0.877 0.001 -2.626 0.003 -2.602 0.004 -5.204 0.012 -7.806 -0.001 -3.207 -0.027 -6.418 -0.069 -9.615 -0.357 -2.772 -0.309 -5.53 -0.771 -8.201 -1.596 -1.566 -0.514 -3.173 -0.893 -4.725 -1.455 -1.314 -0.487 -2.672 -0.854 -3.981 -1.357 -1.267 -0.492 -2.564 -0.917 -3.778 -1.533 -1.295 -0.543 -2.611 -1.051 -3.859 -1.695 -1.103 -0.643 -2.104 -1.413 -3.204 -2.051 -1.292 -0.816 -2.604 -1.615 -3.802 -2.566 -1.238 -1.055 -2.345 -2.231 -3.44 -3.431 -1.341 -1.405 -2.665 -2.84 -3.694 -4.497 -0.863 -1.468 -1.655 -2.995 -2.211 -4.608 -2.297 -5.743 5.824 -8.991 8.122 -3.249 z"/><path d="m 51.28 55.2 c -0.74 0.729 -1.651 1.31 -2.335 2.096 0.482 -0.41 -1.389 1.714 -0.909 1.267 -0.579 0.864 -1.105 1.649 -1.57 2.37 -0.564 0.814 -0.832 1.175 -1.275 1.941 -0.691 0.898 -1 1.53 -1.722 2.505 -0.237 0.478 -0.863 1.312 -1.298 1.939 0.021 -0.018 0.078 -0.078 0.064 -0.054 -0.464 0.772 -1 1.493 -1.478 2.256 -0.416 1.223 -0.928 2.56 -1.332 3.841 -0.661 1.781 -1.151 3.616 -1.741 5.419 -0.082 0.237 -0.163 0.475 -0.245 0.712 -2.01 5.849 -10.283 3 -8.272 -2.844 c 0.075 -0.217 0.149 -0.433 0.224 -0.65 0.615 -1.748 1.027 -3.57 1.702 -5.3 0.65 -2.02 1.321 -4.04 2.314 -5.92 0.562 -0.857 1.161 -1.684 1.667 -2.573 0.454 -0.622 0.949 -1.363 1.523 -2.238 -0.436 1.09 1.514 -2.747 1.124 -1.646 0.537 -0.865 1.067 -1.642 1.492 -2.28 0.514 -0.826 0.791 -1.189 1.234 -1.83 0.682 -1.099 1.476 -2.098 2.305 -3.093 0.75 -0.729 1.574 -1.476 2.341 -2.103 4.374 -4.374 10.559 1.812 6.185 6.185 z"/><path d="m 53.617 57.53 c -0.709 0.661 -1.267 1.441 -1.841 2.213 -0.695 0.802 -1.192 1.73 -1.813 2.59 -0.362 0.66 -0.896 1.381 -1.37 2.063 0.02 -0.017 0.075 -0.073 0.061 -0.051 -0.619 1.03 -0.368 0.576 -0.801 1.604 -0.253 0.713 -0.533 1.425 -0.749 2.153 -0.314 0.939 -0.601 1.89 -0.922 2.827 -0.339 1.103 -0.733 2.156 -1.263 3.186 -0.385 0.741 -0.681 1.522 -1.076 2.286 -0.546 1.179 -1.205 2.293 -1.956 3.352 -0.364 0.722 -0.978 1.397 -1.377 2.066 -0.65 0.968 -0.428 0.671 -0.813 1.966 -0.511 1.444 -0.969 2.907 -1.399 4.377 -0.622 2.856 -1.304 5.686 -1.721 8.581 -0.074 0.711 -0.148 1.421 -0.221 2.132 -0.649 6.151 -9.348 5.233 -8.699 -0.918 c 0.089 -0.828 0.177 -1.657 0.266 -2.485 0.493 -3.31 1.235 -6.563 1.997 -9.821 0.454 -1.492 0.903 -2.989 1.424 -4.458 0.403 -1.273 0.745 -2.633 1.57 -3.709 0.622 -1.027 1.359 -1.958 1.982 -2.986 0.441 -0.673 0.877 -1.436 1.226 -2.204 0.481 -0.811 0.68 -1.754 1.224 -2.552 -0.027 0.082 -0.119 0.325 -0.081 0.247 0.294 -0.614 0.401 -1.409 0.734 -2.143 0.212 -0.707 0.586 -1.678 0.792 -2.456 0.347 -1.033 0.669 -1.962 1.08 -3.01 0.43 -1.082 0.96 -2.108 1.614 -3.077 0.456 -0.629 0.958 -1.387 1.52 -2.267 0.564 -0.843 1.102 -1.772 1.786 -2.555 0.838 -1.082 1.643 -2.188 2.642 -3.135 4.374 -4.374 10.559 1.812 6.185 6.185 z"/></g></g></svg>