<svg xmlns="http://www.w3.org/2000/svg" xmlns:xlink="http://www.w3.org/1999/xlink" viewBox="0 0 256 256"><defs><path d="m 245.46 129.52 l -97.89 -96.9 c -5.556 -5.502 -16.222 -11.873 -23.7 -14.16 l -39.518 -12.08 c -7.479 -2.286 -18.1 0.391 -23.599 5.948 l -13.441 13.578 c -5.5 5.559 -14.502 14.653 -20 20.21 l -13.44 13.579 c -5.5 5.558 -8.07 16.206 -5.706 23.658 l 12.483 39.39 c 2.363 7.456 8.843 18.06 14.399 23.556 l 97.89 96.9 c 5.558 5.502 14.605 5.455 20.1 -0.101 l 36.26 -36.63 c 5.504 -5.559 14.503 -14.651 20 -20.21 l 36.26 -36.629 c 5.502 -5.56 5.455 -14.606 -0.101 -20.11 z m -178.09 -50.74 c -7.198 0 -13.03 -5.835 -13.03 -13.03 0 -7.197 5.835 -13.03 13.03 -13.03 7.197 0 13.03 5.835 13.03 13.03 -0.001 7.198 -5.836 13.03 -13.03 13.03 z" id="0"/><use id="1" xlink:href="#0"/><clipPath id="2"><use xlink:href="#0"/></clipPath><clipPath style="clip-path:url(#2)"><use xlink:href="#1"/></clipPath><clipPath style="clip-path:url(#2)"><use xlink:href="#1"/></clipPath></defs><g transform="translate(0 -796.36)" style="fill:#2c2c2c"><path d="m 211.94 1004.03 c -103.59 136.25 -294.03 -46.613 -173.03 -165.93 103.41 -120.34 306.63 51.831 173.03 165.93 z" style="fill:#fff;color:#000"/><text x="128" y="923.97" line-height="125%" style="letter-spacing:0;word-spacing:0;font-size:40;font-family:Sans;fill:#000"><tspan x="128" y="923.97"/></text><g transform="translate(0 796.36)" style="fill:#ff4500;fill-rule:evenodd"><path d="m 157.56 159.95 c -1.372 -0.082 -1.586 -0.162 -1.586 -0.59 0 -0.326 -0.173 -0.495 -0.508 -0.495 -0.338 0 -0.508 -0.169 -0.508 -0.508 0 -0.338 -0.169 -0.508 -0.508 -0.508 -0.446 0 -0.508 -0.169 -0.508 -1.396 0 -1.227 -0.061 -1.396 -0.508 -1.396 -0.496 0 -0.508 -0.169 -0.508 -7.487 0 -7.318 0.012 -7.487 0.508 -7.487 0.5 0 0.508 -0.169 0.508 -11.548 0 -11.379 0.007 -11.548 0.508 -11.548 0.501 0 0.508 -0.169 0.508 -13.452 0 -13.283 0.006 -13.452 0.508 -13.452 0.423 0 0.508 -0.169 0.508 -1.015 0 -0.846 0.085 -1.015 0.508 -1.015 0.338 0 0.508 -0.169 0.508 -0.508 0 -0.465 0.169 -0.508 2.03 -0.508 1.861 0 2.03 -0.042 2.03 -0.508 0 -0.497 0.169 -0.508 8.376 -0.508 8.206 0 8.376 0.01 8.376 0.508 0 0.451 0.169 0.508 1.523 0.508 1.354 0 1.523 0.056 1.523 0.508 0 0.423 0.169 0.508 1.015 0.508 0.846 0 1.015 0.085 1.015 0.508 0 0.423 0.169 0.508 1.015 0.508 0.846 0 1.015 0.085 1.015 0.508 0 0.423 0.169 0.508 1.015 0.508 0.846 0 1.015 0.085 1.015 0.508 0 0.338 0.169 0.508 0.508 0.508 0.338 0 0.508 0.169 0.508 0.508 0 0.338 0.169 0.508 0.508 0.508 0.338 0 0.508 0.169 0.508 0.508 0 0.338 0.169 0.508 0.508 0.508 0.338 0 0.508 0.169 0.508 0.508 0 0.338 0.169 0.508 0.508 0.508 0.338 0 0.508 0.169 0.508 0.508 0 0.282 0.169 0.508 0.381 0.508 0.212 0 0.381 0.226 0.381 0.508 0 0.338 0.169 0.508 0.508 0.508 0.338 0 0.508 0.169 0.508 0.508 0 0.338 0.169 0.508 0.508 0.508 0.411 0 0.508 0.169 0.508 0.888 0 0.719 0.097 0.888 0.508 0.888 0.423 0 0.508 0.169 0.508 1.015 0 0.846 0.085 1.015 0.508 1.015 0.494 0 0.508 0.169 0.508 6.472 0 6.303 -0.013 6.472 -0.508 6.472 -0.423 0 -0.508 0.169 -0.508 1.015 0 0.705 -0.109 1.015 -0.358 1.015 -0.22 0 -0.424 0.391 -0.53 1.015 -0.13 0.771 -0.288 1.015 -0.657 1.015 -0.397 0 -0.485 0.185 -0.485 1.015 0 0.846 -0.085 1.015 -0.508 1.015 -0.338 0 -0.508 0.169 -0.508 0.508 0 0.282 -0.169 0.508 -0.381 0.508 -0.212 0 -0.381 0.226 -0.381 0.508 0 0.338 -0.169 0.508 -0.508 0.508 -0.411 0 -0.508 0.169 -0.508 0.888 0 0.867 -0.024 0.888 -1.015 0.888 h -1.015 v 1.65 v 1.65 h 1.015 c 0.697 0 1.015 0.11 1.015 0.352 0 0.2 0.373 0.422 0.86 0.514 0.56 0.105 0.906 0.336 0.991 0.663 0.1 0.382 0.348 0.501 1.043 0.501 0.743 0 0.912 0.094 0.912 0.508 0 0.338 0.169 0.508 0.508 0.508 0.282 0 0.508 0.169 0.508 0.381 0 0.275 0.282 0.381 1.015 0.381 0.846 0 1.015 0.085 1.015 0.508 0 0.338 0.169 0.508 0.508 0.508 0.338 0 0.508 0.169 0.508 0.508 0 0.331 0.169 0.508 0.485 0.508 0.368 0 0.527 0.245 0.657 1.015 0.105 0.624 0.31 1.015 0.53 1.015 0.197 0 0.358 0.228 0.358 0.508 0 0.338 0.169 0.508 0.508 0.508 0.486 0 0.508 0.169 0.508 3.904 0 3.691 -0.028 3.912 -0.508 4.04 -0.389 0.102 -0.508 0.346 -0.508 1.045 0 0.743 -0.094 0.912 -0.508 0.912 -0.423 0 -0.508 0.169 -0.508 1.015 0 0.846 -0.085 1.015 -0.508 1.015 -0.338 0 -0.508 0.169 -0.508 0.508 0 0.338 -0.169 0.508 -0.508 0.508 -0.338 0 -0.508 0.169 -0.508 0.508 0 0.338 -0.169 0.508 -0.508 0.508 -0.338 0 -0.508 0.169 -0.508 0.508 0 0.423 -0.169 0.508 -1.015 0.508 -0.846 0 -1.015 0.085 -1.015 0.508 0 0.338 -0.169 0.508 -0.508 0.508 -0.338 0 -0.508 0.169 -0.508 0.508 0 0.338 -0.169 0.508 -0.508 0.508 -0.338 0 -0.508 0.169 -0.508 0.508 0 0.411 -0.169 0.508 -0.888 0.508 -0.719 0 -0.888 0.097 -0.888 0.508 0 0.423 -0.169 0.508 -1.015 0.508 -0.733 0 -1.015 0.106 -1.015 0.381 0 0.275 -0.282 0.381 -1.015 0.381 -0.846 0 -1.015 0.085 -1.015 0.508 0 0.451 -0.169 0.508 -1.523 0.508 -1.354 0 -1.523 0.056 -1.523 0.508 0 0.465 -0.169 0.508 -2.03 0.508 -1.861 0 -2.03 0.042 -2.03 0.508 0 0.472 -0.169 0.508 -2.411 0.508 -2.242 0 -2.411 0.036 -2.411 0.508 0 0.495 -0.17 0.508 -6.916 0.511 -3.804 0.002 -7.145 0.039 -7.424 0.083 -0.279 0.044 -1.221 0.037 -2.094 -0.016 z m 16.434 -9.461 c 0 -0.472 0.169 -0.508 2.411 -0.508 2.242 0 2.411 -0.036 2.411 -0.508 0 -0.456 0.169 -0.508 1.65 -0.508 1.481 0 1.65 -0.052 1.65 -0.508 0 -0.411 0.169 -0.508 0.888 -0.508 0.719 0 0.888 -0.097 0.888 -0.508 0 -0.423 0.169 -0.508 1.015 -0.508 0.733 0 1.015 -0.106 1.015 -0.381 0 -0.275 0.282 -0.381 1.015 -0.381 0.846 0 1.015 -0.085 1.015 -0.508 0 -0.338 0.169 -0.508 0.508 -0.508 0.338 0 0.508 -0.169 0.508 -0.508 0 -0.338 0.169 -0.508 0.508 -0.508 0.338 0 0.508 -0.169 0.508 -0.508 0 -0.338 0.169 -0.508 0.508 -0.508 0.338 0 0.508 -0.169 0.508 -0.508 0 -0.338 0.169 -0.508 0.508 -0.508 0.465 0 0.508 -0.169 0.508 -2.03 0 -1.861 -0.042 -2.03 -0.508 -2.03 -0.338 0 -0.508 -0.169 -0.508 -0.508 0 -0.338 -0.169 -0.508 -0.508 -0.508 -0.338 0 -0.508 -0.169 -0.508 -0.508 0 -0.338 -0.169 -0.508 -0.508 -0.508 -0.338 0 -0.508 -0.169 -0.508 -0.508 0 -0.423 -0.169 -0.508 -1.015 -0.508 -0.846 0 -1.015 -0.085 -1.015 -0.508 0 -0.423 -0.169 -0.508 -1.015 -0.508 -0.846 0 -1.015 -0.085 -1.015 -0.508 0 -0.446 -0.169 -0.508 -1.396 -0.508 -1.227 0 -1.396 -0.061 -1.396 -0.508 0 -0.451 -0.169 -0.508 -1.523 -0.508 -1.354 0 -1.523 -0.056 -1.523 -0.508 0 -0.474 -0.169 -0.508 -2.538 -0.508 -1.984 0 -2.538 -0.076 -2.538 -0.349 0 -0.443 -1.114 -0.666 -3.331 -0.666 -1.576 0 -1.745 0.049 -1.745 0.508 0 0.479 -0.169 0.508 -3.046 0.508 h -3.046 v 10.03 v 10.03 h 5.584 c 5.415 0 5.584 -0.015 5.584 -0.508 z m 2.03 -29.949 c 0 -0.451 0.169 -0.508 1.523 -0.508 1.354 0 1.523 -0.056 1.523 -0.508 0 -0.423 0.169 -0.508 1.015 -0.508 0.846 0 1.015 -0.085 1.015 -0.508 0 -0.338 0.169 -0.508 0.508 -0.508 0.338 0 0.508 -0.169 0.508 -0.508 0 -0.338 0.169 -0.508 0.508 -0.508 0.338 0 0.508 -0.169 0.508 -0.508 0 -0.282 0.169 -0.508 0.381 -0.508 0.212 0 0.381 -0.226 0.381 -0.508 0 -0.338 0.169 -0.508 0.508 -0.508 0.282 0 0.508 -0.169 0.508 -0.381 0 -0.212 0.226 -0.381 0.508 -0.381 0.423 0 0.508 -0.169 0.508 -1.015 0 -0.846 0.085 -1.015 0.508 -1.015 0.491 0 0.508 -0.169 0.508 -5.076 0 -4.907 -0.017 -5.076 -0.508 -5.076 -0.338 0 -0.508 -0.169 -0.508 -0.508 0 -0.338 -0.169 -0.508 -0.508 -0.508 -0.338 0 -0.508 -0.169 -0.508 -0.508 0 -0.338 -0.169 -0.508 -0.508 -0.508 -0.338 0 -0.508 -0.169 -0.508 -0.508 0 -0.282 -0.169 -0.508 -0.381 -0.508 -0.212 0 -0.381 -0.226 -0.381 -0.508 0 -0.328 -0.169 -0.508 -0.478 -0.508 -0.265 0 -0.537 -0.227 -0.611 -0.508 -0.102 -0.389 -0.346 -0.508 -1.045 -0.508 -0.743 0 -0.912 -0.094 -0.912 -0.508 0 -0.423 -0.169 -0.508 -1.015 -0.508 -0.854 0 -1.015 -0.083 -1.015 -0.519 0 -0.512 -0.094 -0.518 -6.832 -0.444 -3.758 0.041 -6.927 0.17 -7.04 0.286 -0.116 0.116 -0.245 3.514 -0.286 7.551 -0.06 5.929 -0.14 7.34 -0.415 7.34 -0.551 0 -0.646 0.877 -0.65 6.03 l -0.003 4.886 h 6.599 c 6.43 0 6.599 -0.013 6.599 -0.508 z" style="opacity:0.99"/><path d="m 39.98 157.34 c 0 -0.338 -0.169 -0.508 -0.508 -0.508 -0.478 0 -0.508 -0.169 -0.508 -2.919 0 -2.75 0.029 -2.919 0.508 -2.919 0.451 0 0.508 -0.169 0.508 -1.523 0 -1.354 0.056 -1.523 0.508 -1.523 0.411 0 0.508 -0.169 0.508 -0.888 0 -0.719 0.097 -0.888 0.508 -0.888 0.423 0 0.508 -0.169 0.508 -1.015 0 -0.846 0.085 -1.015 0.508 -1.015 0.432 0 0.508 -0.169 0.508 -1.142 0 -0.973 0.075 -1.142 0.508 -1.142 0.446 0 0.508 -0.169 0.508 -1.396 0 -1.227 0.062 -1.396 0.508 -1.396 0.483 0 0.508 -0.169 0.508 -3.553 0 -3.384 0.024 -3.553 0.508 -3.553 0.338 0 0.508 -0.169 0.508 -0.508 0 -0.338 0.169 -0.508 0.508 -0.508 0.282 0 0.508 -0.169 0.508 -0.381 0 -0.275 0.282 -0.381 1.015 -0.381 0.846 0 1.015 -0.085 1.015 -0.508 0 -0.338 0.169 -0.508 0.508 -0.508 0.423 0 0.508 -0.169 0.508 -1.015 0 -0.846 0.085 -1.015 0.508 -1.015 0.423 0 0.508 -0.169 0.508 -1.015 0 -0.846 0.085 -1.015 0.508 -1.015 0.423 0 0.508 -0.169 0.508 -1.015 0 -0.846 0.085 -1.015 0.508 -1.015 0.423 0 0.508 -0.169 0.508 -1.015 0 -0.733 0.106 -1.015 0.381 -1.015 0.275 0 0.381 -0.282 0.381 -1.015 0 -0.846 0.085 -1.015 0.508 -1.015 0.423 0 0.508 -0.169 0.508 -1.015 0 -0.846 0.085 -1.015 0.508 -1.015 0.423 0 0.508 -0.169 0.508 -1.015 0 -0.846 0.085 -1.015 0.508 -1.015 0.282 0 0.508 -0.169 0.508 -0.381 0 -0.212 0.226 -0.381 0.508 -0.381 0.423 0 0.508 -0.169 0.508 -1.015 0 -0.846 0.085 -1.015 0.508 -1.015 0.423 0 0.508 -0.169 0.508 -1.015 0 -0.846 0.085 -1.015 0.508 -1.015 0.423 0 0.508 -0.169 0.508 -1.015 0 -0.846 0.085 -1.015 0.508 -1.015 0.423 0 0.508 -0.169 0.508 -1.015 0 -0.846 0.085 -1.015 0.508 -1.015 0.338 0 0.508 -0.169 0.508 -0.508 0 -0.338 0.169 -0.508 0.508 -0.508 0.338 0 0.508 -0.169 0.508 -0.508 0 -0.279 0.161 -0.508 0.358 -0.508 0.22 0 0.424 -0.391 0.53 -1.015 0.13 -0.771 0.288 -1.015 0.657 -1.015 0.316 0 0.485 -0.177 0.485 -0.508 0 -0.338 0.169 -0.508 0.508 -0.508 0.423 0 0.508 -0.169 0.508 -1.015 0 -0.846 0.085 -1.015 0.508 -1.015 0.282 0 0.508 -0.169 0.508 -0.381 0 -0.212 0.226 -0.381 0.508 -0.381 0.338 0 0.508 -0.169 0.508 -0.508 0 -0.338 0.169 -0.508 0.508 -0.508 0.423 0 0.508 -0.169 0.508 -1.015 0 -0.846 0.085 -1.015 0.508 -1.015 0.338 0 0.508 -0.169 0.508 -0.508 0 -0.282 0.169 -0.508 0.381 -0.508 0.212 0 0.381 -0.226 0.381 -0.508 0 -0.338 0.169 -0.508 0.508 -0.508 0.338 0 0.508 -0.169 0.508 -0.508 0 -0.338 0.169 -0.508 0.508 -0.508 0.338 0 0.508 -0.169 0.508 -0.508 0 -0.338 0.169 -0.508 0.508 -0.508 0.338 0 0.508 -0.169 0.508 -0.508 0 -0.338 0.169 -0.508 0.508 -0.508 0.338 0 0.508 -0.169 0.508 -0.508 0 -0.462 0.169 -0.508 1.904 -0.508 1.734 0 1.904 0.045 1.904 0.508 0 0.338 0.169 0.508 0.508 0.508 0.338 0 0.508 0.169 0.508 0.508 0 0.338 0.169 0.508 0.508 0.508 0.423 0 0.508 0.169 0.508 1.015 0 0.846 0.085 1.015 0.508 1.015 0.471 0 0.508 0.17 0.511 2.348 0.004 2.672 0.159 3.49 0.661 3.49 0.276 0 0.351 0.546 0.351 2.538 0 2.369 0.034 2.538 0.508 2.538 0.474 0 0.508 0.169 0.508 2.538 0 2.369 0.034 2.538 0.508 2.538 0.474 0 0.508 0.169 0.508 2.538 0 2.369 0.034 2.538 0.508 2.538 0.472 0 0.508 0.169 0.508 2.411 0 2.242 0.036 2.411 0.508 2.411 0.472 0 0.508 0.169 0.508 2.411 0 2.242 0.036 2.411 0.508 2.411 0.468 0 0.508 0.169 0.508 2.157 0 1.988 0.04 2.157 0.508 2.157 0.472 0 0.508 0.169 0.508 2.411 0 2.242 0.036 2.411 0.508 2.411 0.474 0 0.508 0.169 0.508 2.538 0 2.369 0.034 2.538 0.508 2.538 0.472 0 0.508 0.169 0.508 2.411 0 2.242 0.036 2.411 0.508 2.411 0.432 0 0.508 0.169 0.508 1.142 0 0.973 0.075 1.142 0.508 1.142 0.446 0 0.508 0.169 0.508 1.396 0 1.227 0.062 1.396 0.508 1.396 0.451 0 0.508 0.169 0.508 1.523 0 1.184 0.085 1.523 0.381 1.523 0.316 0 0.381 0.494 0.381 2.919 0 2.425 -0.064 2.919 -0.381 2.919 -0.212 0 -0.381 0.226 -0.381 0.508 0 0.474 -0.169 0.508 -2.538 0.508 -2.369 0 -2.538 -0.034 -2.538 -0.508 0 -0.338 -0.169 -0.508 -0.508 -0.508 -0.338 0 -0.508 -0.169 -0.508 -0.508 0 -0.338 -0.169 -0.508 -0.508 -0.508 -0.282 0 -0.508 -0.169 -0.508 -0.381 0 -0.209 -0.171 -0.381 -0.381 -0.381 -0.275 0 -0.381 -0.282 -0.381 -1.015 0 -0.846 -0.085 -1.015 -0.508 -1.015 -0.451 0 -0.508 -0.169 -0.508 -1.523 0 -1.354 -0.056 -1.523 -0.508 -1.523 -0.451 0 -0.508 -0.169 -0.508 -1.523 0 -1.354 -0.056 -1.523 -0.508 -1.523 -0.465 0 -0.508 -0.169 -0.508 -2.03 0 -1.861 -0.042 -2.03 -0.508 -2.03 -0.472 0 -0.508 -0.169 -0.508 -2.411 0 -2.242 -0.036 -2.411 -0.508 -2.411 -0.474 0 -0.508 -0.169 -0.508 -2.538 v -2.538 h -3.046 c -2.876 0 -3.046 0.028 -3.046 0.508 0 0.474 -0.169 0.508 -2.538 0.508 -2.369 0 -2.538 0.034 -2.538 0.508 0 0.474 -0.169 0.508 -2.538 0.508 -2.369 0 -2.538 0.034 -2.538 0.508 0 0.463 -0.169 0.508 -1.904 0.508 -1.734 0 -1.904 0.045 -1.904 0.508 0 0.474 -0.169 0.508 -2.538 0.508 -2.369 0 -2.538 0.034 -2.538 0.508 0 0.338 -0.169 0.508 -0.508 0.508 -0.282 0 -0.508 0.169 -0.508 0.381 0 0.212 -0.226 0.381 -0.508 0.381 -0.451 0 -0.508 0.169 -0.508 1.523 0 1.354 -0.056 1.523 -0.508 1.523 -0.423 0 -0.508 0.169 -0.508 1.015 0 0.846 -0.085 1.015 -0.508 1.015 -0.423 0 -0.508 0.169 -0.508 1.015 0 0.846 -0.085 1.015 -0.508 1.015 -0.423 0 -0.508 0.169 -0.508 1.015 0 0.846 -0.085 1.015 -0.508 1.015 -0.423 0 -0.508 0.169 -0.508 1.015 0 0.846 -0.085 1.015 -0.508 1.015 -0.423 0 -0.508 0.169 -0.508 1.015 0 0.846 -0.085 1.015 -0.508 1.015 -0.423 0 -0.508 0.169 -0.508 1.015 0 0.846 -0.085 1.015 -0.508 1.015 -0.411 0 -0.508 0.169 -0.508 0.888 0 0.719 -0.097 0.888 -0.508 0.888 -0.338 0 -0.508 0.169 -0.508 0.508 0 0.282 -0.169 0.508 -0.381 0.508 -0.212 0 -0.381 0.226 -0.381 0.508 0 0.474 -0.169 0.508 -2.538 0.508 -2.369 0 -2.538 -0.034 -2.538 -0.508 z m 26.07 -30.711 c 0.117 -0.447 0.348 -0.508 1.943 -0.511 2.15 -0.004 2.953 -0.184 2.953 -0.661 0 -0.276 0.546 -0.351 2.538 -0.351 2.369 0 2.538 -0.034 2.538 -0.508 0 -0.451 0.169 -0.508 1.523 -0.508 h 1.523 v -1.015 c 0 -0.846 -0.085 -1.015 -0.508 -1.015 -0.474 0 -0.508 -0.169 -0.508 -2.538 0 -2.369 -0.034 -2.538 -0.508 -2.538 -0.474 0 -0.508 -0.169 -0.508 -2.538 0 -2.369 -0.034 -2.538 -0.508 -2.538 -0.474 0 -0.508 -0.169 -0.508 -2.538 0 -2.369 -0.034 -2.538 -0.508 -2.538 -0.411 0 -0.508 -0.169 -0.508 -0.888 0 -0.719 -0.097 -0.888 -0.508 -0.888 -0.338 0 -0.508 0.169 -0.508 0.508 0 0.338 -0.169 0.508 -0.508 0.508 -0.282 0 -0.508 0.169 -0.508 0.381 0 0.212 -0.226 0.381 -0.508 0.381 -0.423 0 -0.508 0.169 -0.508 1.015 0 0.846 -0.085 1.015 -0.508 1.015 -0.423 0 -0.508 0.169 -0.508 1.015 0 0.846 -0.085 1.015 -0.508 1.015 -0.328 0 -0.508 0.169 -0.508 0.478 0 0.265 -0.227 0.537 -0.508 0.611 -0.389 0.102 -0.508 0.346 -0.508 1.045 0 0.743 -0.094 0.912 -0.508 0.912 -0.423 0 -0.508 0.169 -0.508 1.015 0 0.846 -0.085 1.015 -0.508 1.015 -0.423 0 -0.508 0.169 -0.508 1.015 0 0.846 -0.085 1.015 -0.508 1.015 -0.338 0 -0.508 0.169 -0.508 0.508 0 0.338 -0.169 0.508 -0.508 0.508 -0.423 0 -0.508 0.169 -0.508 1.015 0 0.846 -0.085 1.015 -0.508 1.015 -0.411 0 -0.508 0.169 -0.508 0.888 0 0.719 -0.097 0.888 -0.508 0.888 -0.328 0 -0.508 0.169 -0.508 0.478 0 0.265 -0.227 0.537 -0.508 0.611 -0.389 0.102 -0.508 0.346 -0.508 1.045 0 0.642 -0.113 0.912 -0.381 0.912 -0.237 0 -0.381 0.24 -0.381 0.635 0 0.633 0.007 0.635 2.435 0.635 2.221 0 2.447 -0.044 2.568 -0.508 z" style="opacity:0.99"/><path d="m 112.06 136.53 c 0 -0.423 -0.169 -0.508 -1.015 -0.508 -0.846 0 -1.015 -0.085 -1.015 -0.508 0 -0.338 -0.169 -0.508 -0.508 -0.508 -0.474 0 -0.508 -0.169 -0.508 -2.538 0 -2.369 0.034 -2.538 0.508 -2.538 0.282 0 0.508 -0.169 0.508 -0.381 0 -0.275 0.282 -0.381 1.015 -0.381 0.839 0 1.015 -0.086 1.015 -0.498 0 -0.486 0.27 -0.499 11.336 -0.571 13.285 -0.086 13.537 -0.075 13.537 0.587 0 0.313 0.178 0.482 0.508 0.482 0.472 0 0.508 0.169 0.508 2.411 0 2.242 -0.036 2.411 -0.508 2.411 -0.338 0 -0.508 0.169 -0.508 0.508 0 0.411 -0.169 0.508 -0.888 0.508 -0.719 0 -0.888 0.097 -0.888 0.508 0 0.499 -0.169 0.508 -10.533 0.508 -10.364 0 -10.533 0.008 -10.533 0.508 0 0.423 -0.169 0.508 -1.015 0.508 -0.846 0 -1.015 -0.085 -1.015 -0.508 z" style="opacity:0.99"/></g></g></svg>