<svg xmlns="http://www.w3.org/2000/svg" viewBox="0 0 256 256"><g transform="translate(0 -796.36)"><path d="m 3.25 953.66 c 49.981 239.91 393.86 -17.642 187.29 -139.59 -80.25 -52.27 -213 16.2 -187.29 139.59 z" style="fill:#fff;color:#000"/><path d="m 119.29 192.5 c 0 -0.325 -0.327 -0.465 -1.085 -0.465 -0.758 0 -1.085 -0.14 -1.085 -0.465 0 -0.375 -0.482 -0.465 -2.481 -0.465 -1.999 0 -2.481 -0.09 -2.481 -0.465 0 -0.351 -0.379 -0.465 -1.551 -0.465 -1.114 0 -1.551 -0.121 -1.551 -0.429 0 -0.502 -0.937 -0.801 -2.525 -0.807 -0.715 -0.003 -1.195 -0.175 -1.308 -0.469 -0.098 -0.256 -0.392 -0.465 -0.653 -0.465 -0.261 0 -0.475 -0.209 -0.475 -0.465 0 -0.325 -0.327 -0.465 -1.085 -0.465 -0.758 0 -1.085 -0.14 -1.085 -0.465 0 -0.345 -0.362 -0.465 -1.396 -0.465 -1.189 0 -1.396 -0.092 -1.396 -0.62 0 -0.482 -0.207 -0.62 -0.93 -0.62 -0.62 0 -0.93 -0.155 -0.93 -0.465 0 -0.256 -0.194 -0.465 -0.432 -0.465 -0.238 0 -0.512 -0.209 -0.611 -0.465 -0.104 -0.272 -0.569 -0.465 -1.119 -0.465 -0.629 0 -0.94 -0.154 -0.94 -0.465 0 -0.258 -0.276 -0.465 -0.62 -0.465 -0.345 0 -0.62 -0.207 -0.62 -0.465 0 -0.256 -0.209 -0.465 -0.465 -0.465 -0.256 0 -0.465 -0.198 -0.465 -0.441 0 -0.242 -0.419 -0.533 -0.93 -0.645 -0.512 -0.112 -0.93 -0.403 -0.93 -0.645 0 -0.242 -0.209 -0.441 -0.465 -0.441 -0.256 0 -0.465 -0.209 -0.465 -0.465 0 -0.307 -0.307 -0.465 -0.906 -0.465 -0.75 0 -0.94 -0.157 -1.106 -0.91 -0.15 -0.684 -0.426 -0.96 -1.11 -1.11 -0.501 -0.11 -0.91 -0.398 -0.91 -0.64 0 -0.242 -0.209 -0.441 -0.465 -0.441 -0.256 0 -0.465 -0.209 -0.465 -0.465 0 -0.256 -0.209 -0.465 -0.465 -0.465 -0.256 0 -0.465 -0.209 -0.465 -0.465 0 -0.258 -0.276 -0.465 -0.62 -0.465 -0.482 0 -0.62 -0.207 -0.62 -0.93 0 -0.62 -0.155 -0.93 -0.465 -0.93 -0.256 0 -0.465 -0.209 -0.465 -0.465 0 -0.256 -0.222 -0.465 -0.494 -0.465 -0.272 0 -0.567 -0.279 -0.656 -0.62 -0.089 -0.341 -0.355 -0.62 -0.591 -0.62 -0.236 0 -0.429 -0.209 -0.429 -0.465 0 -0.256 -0.209 -0.465 -0.465 -0.465 -0.258 0 -0.465 -0.276 -0.465 -0.62 0 -0.345 -0.207 -0.62 -0.465 -0.62 -0.31 0 -0.465 -0.31 -0.465 -0.93 0 -0.62 -0.155 -0.93 -0.465 -0.93 -0.256 0 -0.465 -0.209 -0.465 -0.465 0 -0.256 -0.209 -0.465 -0.465 -0.465 -0.256 0 -0.465 -0.209 -0.465 -0.465 0 -0.256 -0.209 -0.465 -0.465 -0.465 -0.325 0 -0.465 -0.327 -0.465 -1.085 0 -0.879 -0.118 -1.085 -0.62 -1.085 -0.482 0 -0.62 -0.207 -0.62 -0.93 0 -0.62 -0.155 -0.93 -0.465 -0.93 -0.31 0 -0.465 -0.31 -0.465 -0.93 0 -0.62 -0.155 -0.93 -0.465 -0.93 -0.325 0 -0.465 -0.327 -0.465 -1.085 0 -0.758 -0.14 -1.085 -0.465 -1.085 -0.307 0 -0.465 -0.307 -0.465 -0.905 0 -1.218 -0.286 -1.886 -0.809 -1.886 -0.287 0 -0.432 -0.364 -0.432 -1.085 0 -0.758 -0.14 -1.085 -0.465 -1.085 -0.258 0 -0.465 -0.276 -0.465 -0.62 0 -0.345 -0.207 -0.62 -0.465 -0.62 -0.375 0 -0.465 -0.482 -0.465 -2.481 0 -1.999 -0.09 -2.481 -0.465 -2.481 -0.365 0 -0.465 -0.428 -0.465 -1.994 0 -1.425 -0.143 -2.137 -0.503 -2.497 -0.446 -0.446 -0.503 -1.837 -0.506 -12.307 -0.002 -9.618 0.075 -11.852 0.419 -12.06 0.276 -0.17 0.463 -1.07 0.54 -2.602 0.088 -1.736 0.23 -2.342 0.55 -2.342 0.332 0 0.431 -0.569 0.431 -2.481 0 -1.999 0.09 -2.481 0.465 -2.481 0.256 0 0.465 -0.209 0.465 -0.465 0 -0.256 0.209 -0.465 0.465 -0.465 0.325 0 0.465 -0.327 0.465 -1.085 0 -0.717 0.145 -1.085 0.429 -1.085 0.445 0 0.8 -0.907 0.807 -2.06 0.002 -0.366 0.214 -0.745 0.469 -0.843 0.272 -0.104 0.465 -0.569 0.465 -1.119 0 -0.629 0.154 -0.94 0.465 -0.94 0.31 0 0.465 -0.31 0.465 -0.93 0 -0.62 0.155 -0.93 0.465 -0.93 0.325 0 0.465 -0.327 0.465 -1.085 0 -0.879 0.118 -1.085 0.62 -1.085 0.345 0 0.62 -0.207 0.62 -0.465 0 -0.256 0.123 -0.465 0.274 -0.465 0.151 0 0.347 -0.279 0.436 -0.62 0.089 -0.341 0.385 -0.62 0.656 -0.62 0.342 0 0.494 -0.286 0.494 -0.93 0 -0.62 0.155 -0.93 0.465 -0.93 0.31 0 0.465 -0.31 0.465 -0.93 0 -0.62 0.155 -0.93 0.465 -0.93 0.258 0 0.465 -0.276 0.465 -0.62 0 -0.345 0.207 -0.62 0.465 -0.62 0.256 0 0.465 -0.209 0.465 -0.465 0 -0.258 0.276 -0.465 0.62 -0.465 0.345 0 0.62 -0.207 0.62 -0.465 0 -0.256 0.209 -0.465 0.465 -0.465 0.31 0 0.465 -0.31 0.465 -0.93 0 -0.62 0.155 -0.93 0.465 -0.93 0.256 0 0.465 -0.192 0.465 -0.426 0 -0.235 0.406 -0.508 0.903 -0.607 0.692 -0.138 0.951 -0.401 1.11 -1.124 0.114 -0.519 0.406 -0.944 0.648 -0.944 0.242 0 0.441 -0.209 0.441 -0.465 0 -0.256 0.209 -0.465 0.465 -0.465 0.256 0 0.465 -0.209 0.465 -0.465 0 -0.313 0.313 -0.465 0.959 -0.465 0.699 0 1 -0.169 1.122 -0.62 0.089 -0.341 0.355 -0.62 0.591 -0.62 0.236 0 0.429 -0.209 0.429 -0.465 0 -0.256 0.209 -0.465 0.465 -0.465 0.256 0 0.465 -0.209 0.465 -0.465 0 -0.311 0.311 -0.465 0.94 -0.465 0.55 0 1.014 -0.193 1.119 -0.465 0.098 -0.256 0.373 -0.465 0.611 -0.465 0.238 0 0.432 -0.209 0.432 -0.465 0 -0.256 0.209 -0.465 0.465 -0.465 0.258 0 0.465 -0.276 0.465 -0.62 0 -0.502 0.207 -0.62 1.085 -0.62 0.758 0 1.085 -0.14 1.085 -0.465 0 -0.31 0.31 -0.465 0.93 -0.465 0.62 0 0.93 -0.155 0.93 -0.465 0 -0.274 0.286 -0.467 0.698 -0.469 1.463 -0.009 2.123 -0.375 2.303 -1.277 0.163 -0.817 0.289 -0.89 1.535 -0.89 0.999 0 1.357 -0.123 1.357 -0.465 0 -0.351 0.379 -0.465 1.551 -0.465 1.172 0 1.551 -0.114 1.551 -0.465 0 -0.345 0.363 -0.465 1.405 -0.465 0.937 0 1.462 -0.149 1.577 -0.446 0.094 -0.245 0.578 -0.536 1.076 -0.645 0.497 -0.109 0.904 -0.327 0.904 -0.484 0 -0.157 0.593 -0.287 1.318 -0.29 1.767 -0.006 2.714 -0.287 2.714 -0.807 0 -0.343 0.806 -0.429 4.03 -0.429 3.377 0 4.03 -0.076 4.03 -0.465 0 -0.4 0.982 -0.465 6.978 -0.465 5.996 0 6.978 0.065 6.978 0.465 0 0.385 0.582 0.465 3.375 0.465 3.114 0 3.388 0.048 3.538 0.62 0.144 0.551 0.423 0.62 2.484 0.62 1.778 0 2.364 0.109 2.5 0.465 0.098 0.256 0.381 0.465 0.628 0.465 0.247 0 0.499 0.149 0.559 0.33 0.06 0.182 0.7 0.409 1.421 0.506 0.817 0.11 1.311 0.336 1.311 0.6 0 0.316 0.517 0.424 2.02 0.424 1.585 0 2.02 0.099 2.02 0.465 0 0.31 0.31 0.465 0.93 0.465 0.724 0 0.93 0.138 0.93 0.62 0 0.414 0.207 0.62 0.62 0.62 0.345 0 0.62 0.207 0.62 0.465 0 0.31 0.31 0.465 0.93 0.465 0.62 0 0.93 0.155 0.93 0.465 0 0.325 0.327 0.465 1.085 0.465 0.758 0 1.085 0.14 1.085 0.465 0 0.31 0.31 0.465 0.93 0.465 0.724 0 0.93 0.138 0.93 0.62 0 0.341 0.194 0.62 0.432 0.62 0.238 0 0.512 0.209 0.611 0.465 0.104 0.272 0.569 0.465 1.119 0.465 0.629 0 0.94 0.154 0.94 0.465 0 0.256 0.209 0.465 0.465 0.465 0.256 0 0.465 0.209 0.465 0.465 0 0.256 0.209 0.465 0.465 0.465 0.256 0 0.465 0.209 0.465 0.465 0 0.256 0.209 0.465 0.465 0.465 0.256 0 0.465 0.222 0.465 0.494 0 0.272 0.279 0.567 0.62 0.656 0.341 0.089 0.62 0.274 0.62 0.412 0 0.137 0.419 0.341 0.93 0.454 0.512 0.112 0.93 0.403 0.93 0.645 0 0.242 0.209 0.441 0.465 0.441 0.256 0 0.465 0.209 0.465 0.465 0 0.258 0.276 0.465 0.62 0.465 0.414 0 0.62 0.207 0.62 0.62 0 0.345 0.207 0.62 0.465 0.62 0.31 0 0.465 0.31 0.465 0.93 0 0.62 0.155 0.93 0.465 0.93 0.256 0 0.465 0.209 0.465 0.465 0 0.256 0.209 0.465 0.465 0.465 0.256 0 0.465 0.209 0.465 0.465 0 0.256 0.209 0.465 0.465 0.465 0.258 0 0.465 0.276 0.465 0.62 0 0.414 0.207 0.62 0.62 0.62 0.345 0 0.62 0.207 0.62 0.465 0 0.256 0.209 0.465 0.465 0.465 0.256 0 0.465 0.209 0.465 0.465 0 0.256 0.209 0.465 0.465 0.465 0.311 0 0.465 0.311 0.465 0.94 0 0.55 0.193 1.014 0.465 1.119 0.265 0.102 0.465 0.564 0.465 1.076 0 0.69 0.143 0.897 0.62 0.897 0.482 0 0.62 0.207 0.62 0.93 0 0.62 0.155 0.93 0.465 0.93 0.256 0 0.465 0.209 0.465 0.465 0 0.256 0.209 0.465 0.465 0.465 0.258 0 0.465 0.276 0.465 0.62 0 0.345 0.207 0.62 0.465 0.62 0.256 0 0.465 0.209 0.465 0.465 0 0.256 -0.209 0.465 -0.465 0.465 -0.256 0 -0.465 0.209 -0.465 0.465 0 0.31 -0.31 0.465 -0.93 0.465 -0.581 0 -0.93 0.16 -0.93 0.425 0 0.276 -0.511 0.482 -1.463 0.59 -0.805 0.091 -1.514 0.318 -1.577 0.506 -0.063 0.187 -0.534 0.341 -1.047 0.341 -0.673 0 -0.979 0.173 -1.096 0.62 -0.089 0.341 -0.355 0.62 -0.591 0.62 -0.236 0 -0.429 0.209 -0.429 0.465 0 0.31 -0.31 0.465 -0.93 0.465 -0.62 0 -0.93 0.155 -0.93 0.465 0 0.345 -0.363 0.465 -1.405 0.465 -0.963 0 -1.462 0.146 -1.584 0.465 -0.102 0.265 -0.564 0.465 -1.076 0.465 -0.591 0 -0.897 0.159 -0.897 0.465 0 0.258 -0.276 0.465 -0.62 0.465 -0.414 0 -0.62 0.207 -0.62 0.62 0 0.528 -0.207 0.62 -1.396 0.62 -1.034 0 -1.396 0.121 -1.396 0.465 0 0.325 -0.327 0.465 -1.085 0.465 -0.731 0 -1.085 0.144 -1.085 0.441 0 0.242 -0.419 0.533 -0.93 0.645 -0.512 0.112 -0.93 0.333 -0.93 0.49 0 0.157 -0.209 0.285 -0.465 0.285 -0.258 0 -0.465 0.276 -0.465 0.62 0 0.538 -0.207 0.62 -1.551 0.62 -1.172 0 -1.551 0.114 -1.551 0.465 0 0.325 -0.327 0.465 -1.085 0.465 -0.758 0 -1.085 0.14 -1.085 0.465 0 0.256 -0.199 0.465 -0.443 0.465 -0.244 0 -0.635 0.192 -0.87 0.427 -0.235 0.235 -0.873 0.525 -1.418 0.645 -0.547 0.12 -0.99 0.415 -0.99 0.658 0 0.297 -0.354 0.441 -1.085 0.441 -0.758 0 -1.085 0.14 -1.085 0.465 0 0.345 -0.362 0.465 -1.396 0.465 -1.034 0 -1.396 0.121 -1.396 0.465 0 0.256 -0.209 0.465 -0.465 0.465 -0.256 0 -0.465 0.209 -0.465 0.465 0 0.325 -0.327 0.465 -1.085 0.465 -0.758 0 -1.085 0.14 -1.085 0.465 0 0.325 -0.327 0.465 -1.085 0.465 -0.879 0 -1.085 0.118 -1.085 0.62 0 0.528 -0.207 0.62 -1.396 0.62 -1.034 0 -1.396 0.121 -1.396 0.465 0 0.256 -0.209 0.465 -0.465 0.465 -0.256 0 -0.465 0.209 -0.465 0.465 0 0.325 -0.327 0.465 -1.085 0.465 -0.758 0 -1.085 0.14 -1.085 0.465 0 0.274 -0.286 0.467 -0.698 0.469 -1.184 0.007 -2.093 0.358 -2.093 0.807 0 0.284 -0.368 0.429 -1.085 0.429 -0.758 0 -1.085 0.14 -1.085 0.465 0 0.256 -0.209 0.465 -0.465 0.465 -0.256 0 -0.465 0.209 -0.465 0.465 0 0.325 -0.327 0.465 -1.085 0.465 -0.731 0 -1.085 0.144 -1.085 0.441 0 0.242 -0.419 0.533 -0.93 0.645 -0.775 0.17 -0.93 0.356 -0.93 1.11 0 0.598 0.158 0.906 0.465 0.906 0.256 0 0.465 0.209 0.465 0.465 0 0.306 0.306 0.465 0.894 0.465 0.633 0 0.942 0.181 1.056 0.62 0.117 0.447 0.423 0.62 1.096 0.62 0.513 0 0.985 0.153 1.047 0.341 0.063 0.187 0.772 0.415 1.577 0.506 0.952 0.107 1.463 0.313 1.463 0.59 0 0.234 0.209 0.425 0.465 0.425 0.256 0 0.465 0.209 0.465 0.465 0 0.306 0.306 0.465 0.894 0.465 0.633 0 0.942 0.181 1.056 0.62 0.133 0.507 0.423 0.62 1.587 0.62 1.06 0 1.425 0.119 1.425 0.465 0 0.31 0.31 0.465 0.93 0.465 0.62 0 0.93 0.155 0.93 0.465 0 0.258 0.276 0.465 0.62 0.465 0.345 0 0.62 0.207 0.62 0.465 0 0.31 0.31 0.465 0.93 0.465 0.62 0 0.93 0.155 0.93 0.465 0 0.351 0.379 0.465 1.551 0.465 1.344 0 1.551 0.083 1.551 0.62 0 0.345 0.207 0.62 0.465 0.62 0.256 0 0.465 0.128 0.465 0.285 0 0.157 0.419 0.377 0.93 0.49 0.512 0.112 0.93 0.403 0.93 0.645 0 0.297 0.354 0.441 1.085 0.441 0.758 0 1.085 0.14 1.085 0.465 0 0.345 0.362 0.465 1.396 0.465 1.189 0 1.396 0.092 1.396 0.62 0 0.414 0.207 0.62 0.62 0.62 0.341 0 0.62 0.128 0.62 0.285 0 0.157 0.407 0.375 0.905 0.484 0.497 0.109 0.982 0.399 1.076 0.645 0.097 0.252 0.58 0.446 1.111 0.446 0.629 0 0.94 0.154 0.94 0.465 0 0.345 0.362 0.465 1.396 0.465 1.034 0 1.396 0.121 1.396 0.465 0 0.256 0.193 0.465 0.429 0.465 0.236 0 0.502 0.279 0.591 0.62 0.118 0.452 0.423 0.62 1.122 0.62 0.646 0 0.959 0.152 0.959 0.465 0 0.325 0.327 0.465 1.085 0.465 0.758 0 1.085 0.14 1.085 0.465 0 0.345 0.362 0.465 1.396 0.465 1.034 0 1.396 0.121 1.396 0.465 0 0.256 0.193 0.465 0.429 0.465 0.236 0 0.502 0.279 0.591 0.62 0.118 0.452 0.423 0.62 1.122 0.62 0.646 0 0.959 0.152 0.959 0.465 0 0.325 0.327 0.465 1.085 0.465 0.758 0 1.085 0.14 1.085 0.465 0 0.345 0.362 0.465 1.396 0.465 1.034 0 1.396 0.121 1.396 0.465 0 0.256 0.209 0.465 0.465 0.465 0.256 0 0.465 0.209 0.465 0.465 0 0.325 0.327 0.465 1.085 0.465 0.879 0 1.085 0.118 1.085 0.62 0 0.482 0.207 0.62 0.93 0.62 0.896 0 0.93 0.052 0.93 1.396 0 1.034 -0.121 1.396 -0.465 1.396 -0.256 0 -0.465 0.209 -0.465 0.465 0 0.256 -0.209 0.465 -0.465 0.465 -0.258 0 -0.465 0.276 -0.465 0.62 0 0.341 -0.198 0.62 -0.441 0.62 -0.242 0 -0.533 0.419 -0.645 0.93 -0.112 0.512 -0.322 0.93 -0.465 0.93 -0.143 0 -0.353 0.419 -0.465 0.93 -0.112 0.512 -0.403 0.93 -0.645 0.93 -0.242 0 -0.441 0.209 -0.441 0.465 0 0.256 -0.209 0.465 -0.465 0.465 -0.258 0 -0.465 0.276 -0.465 0.62 0 0.414 -0.207 0.62 -0.62 0.62 -0.482 0 -0.62 0.207 -0.62 0.93 0 0.62 -0.155 0.93 -0.465 0.93 -0.256 0 -0.465 0.198 -0.465 0.441 0 0.242 -0.419 0.533 -0.93 0.645 -0.775 0.17 -0.93 0.356 -0.93 1.11 0 0.598 -0.158 0.906 -0.465 0.906 -0.256 0 -0.465 0.209 -0.465 0.465 0 0.256 -0.214 0.465 -0.475 0.465 -0.261 0 -0.555 0.209 -0.653 0.465 -0.098 0.256 -0.373 0.465 -0.611 0.465 -0.238 0 -0.432 0.209 -0.432 0.465 0 0.256 -0.209 0.465 -0.465 0.465 -0.258 0 -0.465 0.276 -0.465 0.62 0 0.345 -0.207 0.62 -0.465 0.62 -0.256 0 -0.465 0.209 -0.465 0.465 0 0.325 -0.327 0.465 -1.085 0.465 -0.758 0 -1.085 0.14 -1.085 0.465 0 0.256 -0.209 0.465 -0.465 0.465 -0.256 0 -0.465 0.209 -0.465 0.465 0 0.256 -0.209 0.465 -0.465 0.465 -0.258 0 -0.465 0.276 -0.465 0.62 0 0.414 -0.207 0.62 -0.62 0.62 -0.345 0 -0.62 0.207 -0.62 0.465 0 0.31 -0.31 0.465 -0.93 0.465 -0.62 0 -0.93 0.155 -0.93 0.465 0 0.31 -0.31 0.465 -0.93 0.465 -0.62 0 -0.93 0.155 -0.93 0.465 0 0.258 -0.276 0.465 -0.62 0.465 -0.345 0 -0.62 0.207 -0.62 0.465 0 0.31 -0.31 0.465 -0.93 0.465 -0.724 0 -0.93 0.138 -0.93 0.62 0 0.502 -0.207 0.62 -1.085 0.62 -0.758 0 -1.085 0.14 -1.085 0.465 0 0.345 -0.362 0.465 -1.396 0.465 -1.034 0 -1.396 0.121 -1.396 0.465 0 0.256 -0.209 0.465 -0.465 0.465 -0.256 0 -0.465 0.209 -0.465 0.465 0 0.351 -0.379 0.465 -1.551 0.465 -1.344 0 -1.551 0.083 -1.551 0.62 0 0.557 -0.207 0.62 -2.02 0.62 -1.585 0 -2.02 0.099 -2.02 0.465 0 0.375 -0.482 0.465 -2.481 0.465 -1.999 0 -2.481 0.09 -2.481 0.465 0 0.311 -0.311 0.465 -0.94 0.465 -0.55 0 -1.014 0.193 -1.119 0.465 -0.154 0.402 -1.719 0.465 -11.465 0.465 -9.826 0 -11.287 -0.06 -11.287 -0.465 z" transform="translate(0 796.36)" style="fill:#ff4500;opacity:0.99;fill-rule:evenodd"/></g></svg>