<svg xmlns="http://www.w3.org/2000/svg" viewBox="0 0 256 256"><defs><clipPath id="0"><path d="m 12 96 c -3.324 0 -6 2.676 -6 6 v 72 c 0 3.324 2.676 6 6 6 h 72 c 3.324 0 6 -2.676 6 -6 v -72 c 0 -3.324 -2.676 -6 -6 -6 h -72 z m 36 11 c 18.225 0 33 12.09 33 27 0 14.912 -14.775 27 -33 27 -2.714 0 -5.351 -0.276 -7.875 -0.781 -3.393 3.541 -9.783 8.233 -19.406 7.188 7.43 -2.1 8.999 -8.241 9.344 -10.75 c -9.06 -4.813 -15.06 -13.158 -15.06 -22.656 0 -14.912 14.775 -27 33 -27 z"/></clipPath><clipPath><rect y="6" x="6" rx="6" height="84" width="84" style="fill:#ff4500"/></clipPath><filter id="1" height="1.376" width="1.345" y="-0.188" x="-0.173" style="color-interpolation-filters:sRGB"><feGaussianBlur stdDeviation="4.74581"/></filter></defs><g transform="translate(0 -796.36)"><path d="m 44.834 1015.23 c -201.82 -266.38 353.59 -304.22 175.35 -32.31 -40.634 61.991 -121.89 102.86 -175.35 32.31 z" style="fill:#fff;color:#000"/><g transform="matrix(2.51666 0 0 2.42343 6.6 796.63)" style="fill:#ff4500"><path d="m 48 107 c -18.225 0 -33 12.09 -33 27 0 9.498 6 17.843 15.06 22.656 -0.345 2.509 -1.914 8.65 -9.344 10.75 9.623 1.046 16.01 -3.646 19.406 -7.188 c 2.524 0.506 5.161 0.781 7.875 0.781 18.225 0 33 -12.09 33 -27 0 -14.912 -14.775 -27 -33 -27 z" transform="translate(0 -90)" style="clip-path:url(#0);opacity:0.2;filter:url(#1)"/><path d="m 48 17 c -18.225 0 -33 12.09 -33 27 0 9.498 6 17.843 15.06 22.656 -0.345 2.509 -1.914 8.65 -9.344 10.75 9.623 1.046 16.01 -3.646 19.406 -7.188 c 2.524 0.506 5.161 0.781 7.875 0.781 18.225 0 33 -12.09 33 -27 0 -14.912 -14.775 -27 -33 -27 z"/><path d="m 48 17 c -18.225 0 -33 12.09 -33 27 0 9.498 6 17.843 15.06 22.656 -0.345 2.509 -1.914 8.65 -9.344 10.75 9.623 1.046 16.01 -3.646 19.406 -7.188 c 2.524 0.506 5.161 0.781 7.875 0.781 18.225 0 33 -12.09 33 -27 0 -14.912 -14.775 -27 -33 -27 z m 0 1.875 c 17.393 0 31.13 11.456 31.13 25.13 0 13.669 -13.732 25.13 -31.12 25.13 -2.586 0 -5.095 -0.268 -7.5 -0.75 a 1.882 1.882 0 0 0 -1.719 0.531 c -2.23 2.327 -5.862 5.105 -10.906 6.219 0.603 -0.637 1.32 -1.241 1.75 -1.906 1.573 -2.435 2.116 -4.882 2.313 -6.313 a 1.882 1.882 0 0 0 -1 -1.906 c -8.571 -4.552 -14.06 -12.294 -14.06 -21 0 -13.669 13.732 -25.12 31.13 -25.12 z" style="opacity:0.08"/><path d="m 48 17 c -18.225 0 -33 12.09 -33 27 0 9.498 6 17.843 15.06 22.656 -0.345 2.509 -1.914 8.65 -9.344 10.75 9.623 1.046 16.01 -3.646 19.406 -7.188 c 2.524 0.506 5.161 0.781 7.875 0.781 18.225 0 33 -12.09 33 -27 0 -14.912 -14.775 -27 -33 -27 z m 0 1.063 c 17.757 0 31.938 11.725 31.938 25.938 0 14.212 -14.18 25.938 -31.938 25.938 -2.642 0 -5.199 -0.258 -7.656 -0.75 a 1.059 1.059 0 0 0 -0.969 0.313 c -2.644 2.76 -7.249 6.05 -13.781 6.719 1.443 -1.037 2.55 -2.241 3.344 -3.469 1.482 -2.293 2 -4.584 2.188 -5.938 a 1.059 1.059 0 0 0 -0.563 -1.094 c -8.786 -4.666 -14.5 -12.666 -14.5 -21.719 0 -14.212 14.18 -25.938 31.938 -25.938 z" style="opacity:0.6"/><text transform="scale(1.23507 0.80967)" y="61.19" x="19.1" line-height="125%" style="letter-spacing:0;word-spacing:0;font-size:21.02;font-family:Sans;fill:#ffdead"><tspan y="61.19" x="19.1">/list</tspan></text></g></g></svg>