<svg xmlns="http://www.w3.org/2000/svg" xmlns:xlink="http://www.w3.org/1999/xlink" viewBox="0 0 256 256"><defs><path id="0" d="m 77.5 67.13 a 3.125 3.125 0 1 1 -6.25 0 3.125 3.125 0 1 1 6.25 0 z"/><clipPath><rect y="6" x="6" rx="6" height="84" width="84" style="fill:none"/></clipPath><linearGradient id="1"><stop style="stop-color:#ff4500"/><stop offset="1" style="stop-color:#ff4500;stop-opacity:0"/></linearGradient><radialGradient xlink:href="#1" id="6" gradientUnits="userSpaceOnUse" gradientTransform="matrix(2.25939 -0.06832 0.00798 0.26386 -105.96 38.862)" cx="69.75" cy="75.974" r="58.5"/><radialGradient xlink:href="#1" id="5" gradientUnits="userSpaceOnUse" gradientTransform="matrix(0.46811 -0.52912 1.79482 1.58217 -112.04 -37.34)" cx="49.23" cy="70.61" r="25.484"/><radialGradient xlink:href="#1" id="4" gradientUnits="userSpaceOnUse" gradientTransform="matrix(1.45444 0 0 0.92611 -45.08 -12.601)" cx="64.23" cy="68.45" r="43.77"/><radialGradient id="3" gradientUnits="userSpaceOnUse" cx="74.38" cy="67.13" r="3.125"><stop style="stop-color:#ff4500"/><stop offset="0.306" style="stop-color:#ff4500"/><stop offset="0.519" style="stop-color:#ff4500;stop-opacity:0.641"/><stop offset="1" style="stop-color:#ff4500;stop-opacity:0"/></radialGradient><radialGradient xlink:href="#1" id="2" gradientUnits="userSpaceOnUse" gradientTransform="matrix(1.09485 0 0 0.33117 -21.845 32.793)" cx="63.875" cy="2.217" r="58.38"/><radialGradient xlink:href="#3" id="7" gradientUnits="userSpaceOnUse" cx="74.38" cy="67.13" r="3.125"/></defs><g transform="translate(0 -796.36)"><path d="m 229.63 992.2 c 92.05 -130.93 -77.948 -263.6 -186.39 -156.91 -102.17 100.51 -7.449 256.68 119.69 207.86 c 26.526 -10.185 49.802 -26.914 66.7 -50.948 z" style="fill:#fff;color:#000"/><g transform="matrix(-1.76684 0 0 1.7612 210.39 843.81)"><g transform="matrix(1.1447 0 0 1 0.725 -18.99)"><path d="m 24.04 28.15 c 2.145 2.216 0.147 5.915 3.382 5.879 1.576 1.713 -3.14 0.511 0.265 1.831 1.958 1.186 -2.071 1.864 0.354 2.928 -2.795 1.109 0.452 5.801 2.529 6.975 3.417 2.212 1.511 -4.683 5.323 -5.04 2.071 -1.819 5.71 -2.986 8.293 -4.816 -2.525 -0.158 -3.999 -1.366 -1.608 -2.115 4.401 3.469 1.104 -1.643 -1.333 -2.452 2.357 -0.577 4.65 -0.154 4.323 -1.651 2.491 -1.402 -2.395 -1.854 -4.14 -1.537 -5.796 0 -11.593 0 -17.389 0 z m -36.15 1.447 c -3.185 0.698 -3.408 6.552 -0.205 3.301 0.785 -1.335 4.416 -2.943 0.205 -3.301 z m 14.881 0.203 c -1.836 2.214 0.267 3.99 1.794 1.289 1.082 -1.128 -0.803 -1.247 -1.794 -1.289 z m 4.588 0.497 c -3.548 1.265 -0.875 4.213 -0.787 4.869 3.738 0.994 5.815 -0.65 7.23 2.16 3.556 1.576 -0.07 4.315 -1.405 5.03 2.404 -1.61 7.03 4.378 5.814 1.214 -1.446 -0.812 3.881 1.304 1.118 -1.334 -2.543 -3.151 0.202 -1.411 1.274 -0.675 3.647 -2.515 -4.127 -2.819 -2.185 -5.407 -1.701 -1.059 -3.926 -4.267 -6.941 -3.64 -2.02 2 -0.278 -4.368 -3.236 -1.179 -0.153 1.783 -0.056 4.04 -0.918 0.956 c -0.577 -0.541 0.993 -1.797 0.035 -1.993 z m -7.235 0.023 c -2.382 0.611 -2.253 3.085 0.675 3.35 1 -0.879 0.398 -3.184 -0.675 -3.35 z m -9.293 0.791 c -3.093 0.564 -1.831 2.482 -0.884 3.02 -3.829 0.738 5.845 0.943 1.031 1.41 -4.01 1.23 3.857 2.68 5.147 1.221 4.946 0.93 0.178 -3.045 -0.256 -5.2 -2.097 -1.731 -0.083 3.99 -1.979 0.184 -0.662 1.13 -2.765 0.167 -3.059 -0.637 z m 98.29 0.249 c -4.15 1.249 2.579 5.963 0.907 1.675 -0.166 -0.518 0.374 -1.886 -0.907 -1.675 z m -86.68 1.899 c -2.982 2.156 3.791 3.938 -0.857 5.544 -0.697 -2 -1.896 1 -4.554 -0.615 -4.571 1.464 -6.909 -0.762 -10.736 -2.288 -2.299 -0.22 -1.435 1.68 -1.587 3.458 0 4.916 0 9.832 0 14.748 2.253 1.824 0.879 0.805 0 0.302 1.236 3.24 -0.546 7.976 4.331 9.861 0.829 1.182 4.307 6.22 4.467 4.713 -1.743 -1.404 -3.532 -5.615 -0.582 -1.862 2.643 3.567 6.208 5.881 11.415 6.729 2.847 0.745 5.189 3.305 7.693 2.742 1.416 2.871 -4.195 5.627 0.189 8.304 2.289 2.71 6.131 4.488 4.051 8.293 -1.455 3.716 -0.832 7.766 -2.091 11.229 -0.39 2.108 3.82 7.457 3.454 3.174 1.23 -2.977 1.197 -6.252 4.093 -8.361 3.961 0.024 0.757 -3.276 4.689 -2.845 2.4 -2.419 3.094 -5.304 7.144 -6.265 0.484 -2.936 6.733 -7.433 0.277 -8.576 c -1.755 -0.665 -6.273 -0.904 -5.927 -1.232 0.699 -2.913 -5.841 -3.743 -8.625 -4.935 -3.655 -1.995 -9.14 3.314 -10.427 -1.26 -0.768 -1.439 -3.577 -1.463 -2.286 -3.683 -2.326 1.779 -6.876 1.239 -5.685 -2.198 1.81 -2.894 8.758 -3.03 9.941 0.45 -1.643 -3.839 3.177 -6.828 5.854 -9.559 c 0.545 -1.306 3.783 -2.427 2.669 -0.692 1.898 -0.053 4.775 -2.687 1.403 -1.471 -0.048 -2.403 -2.955 -1.719 -3.898 -1.378 1.747 -2.133 10.719 -0.967 6.962 -4.452 -2.911 -0.907 -2.669 -6.201 -5.614 -3.252 0.248 -1.817 -5.993 -5.374 -5.857 -2.327 0.762 2.727 0.139 5.868 -1.482 7.655 c -0.338 -3.996 -9.205 -3.113 -8.06 -7.37 1.65 -2.029 3.579 -4.836 3.763 -4.583 2.958 -0.869 5.337 -3.395 1.909 -5.056 -0.183 1.447 -2.578 4.434 -2.241 0.822 -2.218 2.02 -1.711 -3.218 -3.789 -3.761 z m 70.791 1.402 c -5.195 0.977 -7.255 4.793 -9.825 7.954 -3.789 1.314 -3.644 6.955 0.588 5.153 1.132 1.522 -0.793 3.92 2.507 1.93 2.661 -2.709 0.465 -7.089 4.994 -8.797 0.33 1.328 -4.177 6.287 1.088 5.472 4.761 0.138 -3.461 0.365 -1.145 2.703 -2.405 -1.098 -1.156 2.998 -4.296 2.045 -2.72 1.138 -4.504 -0.528 -3.881 -2.354 -2.14 0.96 0.673 3.669 -3.042 3.831 -0.832 2.273 -7.675 1.93 -3.783 4.244 1.728 3.444 -6.438 0.216 -4.12 4.348 1.983 4.086 6.139 -1.354 7.827 -2.405 3.253 -1.941 8.07 3.309 5.147 3.505 3.283 -0.339 2.613 -2.74 -0.022 -3.669 -1.421 -2.834 4.497 1.39 4.169 2.81 2.088 3.01 1.229 -3.079 3.353 -0.384 -0.248 2.842 8.547 0.668 4.348 4.29 -3.61 0.559 -7.164 -0.716 -10.272 0.101 -2.893 -0.02 -2.747 -2.397 -3.802 -2.992 -3.679 0.23 -8.227 0.204 -10.691 2.49 -2.664 2.811 -6.501 6.74 -3.603 10.33 2.906 5.319 10.111 0.276 14.253 3.417 1.231 1.31 -1.067 2.867 1.686 4.285 1.036 3.02 -1.175 5.891 1.368 8.78 1.316 2.717 2.132 6.783 7.03 4.301 5.182 -2.398 3.802 -6.819 8.08 -9.268 -3.383 -5.04 4.14 -7.244 6.02 -11.331 -4.101 0.462 -7.754 -2.682 -8.745 -5.847 -1.723 -1.537 -1.279 -3.804 0.645 -0.916 2.644 1.971 2.702 7.819 7.594 4.811 2.236 -0.719 8.345 -3.464 3.478 -4.713 -3.137 1.748 -6.598 -5.222 -1.992 -1.179 3.349 1.093 5.694 1.744 5.694 -1.879 0 -9.761 0 -19.655 0 -29.482 -1.043 0.82 -3.724 2.334 -5.076 1.328 -2.327 0.249 -5.401 3.732 -4.669 0.365 -2.023 -0.103 -0.363 3.02 -3.142 3.106 -0.28 1.605 -2.808 0.297 -1.858 1.821 -1.951 -1.064 -3.603 -4.425 0.242 -2.316 5.709 -1.317 -3.765 -4.288 -4.496 -5.01 1.229 -0.227 -1.338 -1.212 -1.647 -0.882 z m -47.12 0.882 c -1.901 1.218 3.613 1.447 0 0 z m -25.381 0.656 c -2.126 1.71 3.384 1.572 0 0 z m 12.322 1.696 c -1.61 2.028 2.378 0.749 0 0 z m 35.23 2.397 c -1.884 1.668 -4.371 -0.439 -4.411 0.995 0.342 0.433 1.71 3.526 4.705 1.244 1.608 -0.521 0.975 -1.836 -0.294 -2.238 z m -40.12 0.995 c -3.574 2.4 6.069 2.621 0.757 0.275 l -0.757 -0.275 z m 47.14 6.647 c -2.573 1.29 1.234 4.03 -0.056 5.318 -1.612 2.16 5.991 -0.152 1.931 -1.876 -0.29 -1.481 -2.379 -3.288 -1.875 -3.442 z m -1.736 2.6 c -3.584 0.779 -0.814 4.804 0.456 1.013 0.072 -0.22 0.168 -1.021 -0.456 -1.013 z m -28.706 2.917 c -3.335 1.749 -0.517 3.495 1.927 2.708 -0.502 -1.055 -1.903 -1.72 -1.927 -2.708 z m 63 2.939 c 1.664 0.646 -3.05 1.749 -0.065 2.886 1.737 1.571 1.082 4.943 -1.741 2.556 0.524 -2.665 -3.828 -4.655 1.806 -5.442 z m -8.559 0.023 c -0.226 1.712 4.803 4.373 -0.618 3.505 -2.867 0.259 -7.16 -0.067 -3.548 -2.814 1.141 -0.527 4.137 1.818 2.578 -0.374 0.553 -0.027 1.067 -0.188 1.589 -0.317 z m -16.558 3.708 c -2.091 1.036 1.446 1.83 0 0 z m -52.5 9.655 c -0.352 0.904 6.612 1.821 1.806 0.372 l -0.716 -0.194 l -1.089 -0.178 z m 5.411 1.289 c -2.113 1.649 4.353 0.493 0 0 z m 70.65 15.13 c -4.591 0.091 -3.98 9.197 -0.78 3.809 0.303 -1.169 1.52 -2.712 0.78 -3.809 z" style="fill:#ff4500;opacity:0.7"/><g transform="translate(-10.807 -9.977)"><g style="fill:none;stroke-width:2"><path d="m 7 29.523 c 51.25 8.824 31.634 59.48 31.634 59.48" style="stroke:url(#5)"/><path d="M 27.677,88.82 C 26.617,73.289 56.13,28.64 88.827,20.872" style="stroke:url(#4)"/></g><g style="fill:url(#7);fill-rule:evenodd"><use transform="matrix(1.35724 0 0 1.35544 -73.27 -53.872)" xlink:href="#0" width="256" height="256"/><use transform="matrix(1.07448 0 0 1.07305 -39.514 -14.09)" xlink:href="#0" width="256" height="256"/><use transform="matrix(1.58345 0 0 1.58134 -53.33 -72.39)" xlink:href="#0" width="256" height="256"/><use transform="matrix(1.02193 0 0 1.02058 -15.636 -16.922)" xlink:href="#0" width="256" height="256" style="opacity:0.6"/><use transform="matrix(0.8926 0 0 0.89141 -51.611 -28.372)" xlink:href="#0" width="256" height="256" style="opacity:0.7"/><use transform="matrix(0.56552 0 0 0.56477 38.457 3.262)" xlink:href="#0" width="256" height="256" style="opacity:0.6"/></g><g style="fill:none"><path d="m 7.177 47.702 c 28.1 -19.414 65.21 -20.473 81.82 1.588" style="stroke:url(#2);stroke-width:2"/><path d="m 7.177 67.821 c 51.25 -11.472 82 -30.18 82 -30.18" style="opacity:0.6;stroke:url(#6);stroke-width:1.5"/></g><use transform="matrix(0.84547 0 0 0.84435 15.553 -31.918)" xlink:href="#0" width="256" height="256" style="fill:url(#7);opacity:0.6;fill-rule:evenodd"/></g></g><g transform="matrix(0.9085 0.1852 -0.19128 0.94434 9.997 10.57)" style="fill:#ff4500"><g transform="matrix(0.86659 -0.96064 0.94375 0.8821 45.05 -28.87)" style="opacity:0.3"><path d="m -41,35.3214 h 10 V 48 h -10 z" id="8"/><path d="m -41,17.09 c -4.123,1.899 -7,6.069 -7,10.906 0,6.627 5.373,12 12,12 6.627,0 12,-5.373 12,-12 0,-4.837 -2.877,-9.01 -7,-10.906 v 8.906 H -41 V 17.09 z" id="9"/><path d="m -41,44 c -1.108,0 -2,0.892 -2,2 v 15 1 5 c 0,3.878 3.122,7 7,7 3.878,0 7,-3.122 7,-7 V 62 61 46 c 0,-1.108 -0.892,-2 -2,-2 h -10 z" id="A"/></g><g transform="matrix(0.86659 -0.92806 0.94375 0.85218 45.05 -27.39)"><use xlink:href="#8"/><use xlink:href="#9"/><use xlink:href="#A"/></g></g></g></g></svg>