<svg xmlns="http://www.w3.org/2000/svg" viewBox="0 0 256 256"><defs><clipPath id="0"><path transform="matrix(15.33333 0 0 11.5 415 -125.5)" d="m -24 13 c 0 1.105 -0.672 2 -1.5 2 -0.828 0 -1.5 -0.895 -1.5 -2 0 -1.105 0.672 -2 1.5 -2 0.828 0 1.5 0.895 1.5 2 z" style="fill:#1890d0"/></clipPath><clipPath id="1"><path transform="matrix(15.33333 0 0 11.5 415 -125.5)" d="m -24 13 c 0 1.105 -0.672 2 -1.5 2 -0.828 0 -1.5 -0.895 -1.5 -2 0 -1.105 0.672 -2 1.5 -2 0.828 0 1.5 0.895 1.5 2 z" style="fill:#1890d0"/></clipPath></defs><g transform="translate(0 -796.36)"><path d="m -1067.28 1935.73 c 48.956 88.52 202.34 54.16 228.29 -18.719 30.922 -86.82 -49.563 -251.7 -185.88 -155.11 -45.916 33.728 -91.37 85.31 -42.41 173.83 z" transform="translate(1088.39 -936.13)" style="fill:#fff;color:#000"/><g transform="matrix(4.31395 0 0 3.95929 27.86 830.76)"><g style="clip-path:url(#1)"><g transform="translate(1 1)" style="fill:#fff;opacity:0.1"><path d="m 12 12 v 11 h 6 v 2 h -6 v 11 h 11 v -6 h 2 v 6 h 11 v -11 h -6 v -2 h 6 v -11 h -11 v 6 h -2 v -6"/><path d="m 13 35 v -9 h 6 v -4 h -6 v -9 h 9 v 6 h 4 v -6 h 9 v 9 h -6 v 4 h 6 v 9 h -9 v -6 h -4 v 6"/><path d="m 14 14 v 7 h 6 v 6 h -6 v 7 h 7 v -6 h 6 v 6 h 7 v -7 h -6 v -6 h 6 v -7 h -7 v 6 h -6 v -6"/><g style="fill-opacity:0.8"><path d="m 15 28 h 5 v 5 h -5"/><path d="m 28 28 h 5 v 5 h -5"/><path d="m 28 15 h 5 v 5 h -5"/><path d="m 15 15 h 5 v 5 h -5"/><path d="m 21 21 h 6 v 6 h -6"/></g></g></g><g style="clip-path:url(#0)"><g style="fill:#ffdead"><path d="m 12 12 v 11 h 6 v 2 h -6 v 11 h 11 v -6 h 2 v 6 h 11 v -11 h -6 v -2 h 6 v -11 h -11 v 6 h -2 v -6"/><path d="m 13 35 v -9 h 6 v -4 h -6 v -9 h 9 v 6 h 4 v -6 h 9 v 9 h -6 v 4 h 6 v 9 h -9 v -6 h -4 v 6"/><path d="m 14 14 v 7 h 6 v 6 h -6 v 7 h 7 v -6 h 6 v 6 h 7 v -7 h -6 v -6 h 6 v -7 h -7 v 6 h -6 v -6" style="fill:#ff4500"/><g style="fill-opacity:0.8"><path d="m 15 28 h 5 v 5 h -5"/><path d="m 28 28 h 5 v 5 h -5"/><path d="m 28 15 h 5 v 5 h -5"/><path d="m 15 15 h 5 v 5 h -5"/><path d="m 21 21 h 6 v 6 h -6" style="fill:#ff4500"/></g></g></g></g></g></svg>