<svg xmlns="http://www.w3.org/2000/svg" viewBox="0 0 256 256"><g transform="translate(0 -796.36)"><path d="m -1583.78 1962.12 c -329.42 135.66 -174.65 -434.9 40.478 -157.85 37.47 49.706 40.36 133.17 -40.478 157.85 z" transform="matrix(0 1 -0.97589 0 1939.2 2570.4)" style="fill:#fff;color:#000"/><g transform="matrix(19.99671 0 0 19.6629 -10.17 783.46)" style="fill:#ff4500"><path d="m 4.48,3.387 c -0.139,0 -0.247,0.108 -0.247,0.247 v 6.844 c 0,0.139 0.108,0.247 0.247,0.247 h 5.151 c 0.139,0 0.247,-0.108 0.247,-0.247 V 6.774 5.081 L 8.185,3.388 H 5.927 5.363 4.481 z" style="opacity:0.1"/><path d="m 4.198,3.104 c -0.139,0 -0.247,0.108 -0.247,0.247 v 6.844 c 0,0.139 0.108,0.247 0.247,0.247 h 5.151 c 0.139,0 0.247,-0.108 0.247,-0.247 V 4.797 L 7.903,3.104"/><path d="m 7.902 3.104 v 1.693 h 1.693" style="fill:#ffdead"/><path d="M 9.596,6.491 V 4.798 H 7.903" style="fill-opacity:0.2"/><path d="M 7.105,6.02 C 6.975,6.02 6.866,6.093 6.816,6.196 6.717,6.13 6.579,6.117 6.467,6.178 6.355,6.238 6.296,6.353 6.307,6.465 6.187,6.455 6.062,6.51 5.998,6.613 5.933,6.717 5.946,6.845 6.018,6.937 5.907,6.983 5.829,7.085 5.829,7.205 c 0,0.12 0.078,0.222 0.189,0.268 C 5.947,7.565 5.933,7.692 5.998,7.797 6.062,7.9 6.187,7.955 6.307,7.945 6.296,8.057 6.355,8.172 6.467,8.232 6.517,8.259 6.572,8.269 6.627,8.269 V 9.531 L 7.106,9.087 7.585,9.531 V 8.269 c 0.054,0 0.11,-0.01 0.16,-0.037 C 7.857,8.172 7.916,8.057 7.905,7.945 8.025,7.955 8.15,7.9 8.214,7.797 8.279,7.693 8.266,7.565 8.194,7.473 8.305,7.427 8.383,7.325 8.383,7.205 8.383,7.085 8.305,6.983 8.194,6.937 8.265,6.845 8.279,6.718 8.214,6.613 8.15,6.51 8.025,6.455 7.905,6.465 7.916,6.353 7.857,6.238 7.745,6.178 7.633,6.118 7.495,6.13 7.396,6.196 7.346,6.093 7.237,6.02 7.107,6.02 z m 0,0.439 c 0.44,0 0.798,0.331 0.798,0.74 0,0.409 -0.357,0.74 -0.798,0.74 -0.44,0 -0.798,-0.331 -0.798,-0.74 0,-0.409 0.357,-0.74 0.798,-0.74 z m 0,0.148 c -0.352,0 -0.638,0.265 -0.638,0.592 0,0.327 0.286,0.592 0.638,0.592 0.352,0 0.638,-0.265 0.638,-0.592 0,-0.327 -0.286,-0.592 -0.638,-0.592 z" style="opacity:0.1"/><path d="M 6.822,5.743 C 6.692,5.743 6.583,5.816 6.533,5.919 6.434,5.853 6.296,5.84 6.184,5.901 6.072,5.961 6.013,6.076 6.024,6.188 5.904,6.178 5.779,6.233 5.715,6.336 5.65,6.44 5.663,6.568 5.735,6.66 5.624,6.706 5.546,6.808 5.546,6.928 5.546,7.048 5.624,7.15 5.735,7.196 5.664,7.288 5.65,7.415 5.715,7.52 5.779,7.623 5.904,7.678 6.024,7.668 6.013,7.78 6.072,7.895 6.184,7.955 6.234,7.982 6.289,7.992 6.344,7.992 V 9.254 L 6.823,8.81 7.302,9.254 V 7.992 c 0.054,0 0.11,-0.01 0.16,-0.037 C 7.574,7.895 7.633,7.78 7.622,7.668 7.742,7.678 7.867,7.623 7.931,7.52 7.996,7.416 7.983,7.288 7.911,7.196 8.022,7.15 8.1,7.048 8.1,6.928 8.1,6.808 8.022,6.706 7.911,6.66 7.982,6.568 7.996,6.441 7.931,6.336 7.867,6.233 7.742,6.178 7.622,6.188 7.633,6.076 7.574,5.961 7.462,5.901 7.35,5.841 7.212,5.853 7.113,5.919 7.063,5.816 6.954,5.743 6.824,5.743 z m 0,0.439 c 0.44,0 0.798,0.331 0.798,0.74 0,0.409 -0.357,0.74 -0.798,0.74 -0.44,0 -0.798,-0.331 -0.798,-0.74 0,-0.409 0.357,-0.74 0.798,-0.74 z m 0,0.148 C 6.47,6.33 6.184,6.595 6.184,6.922 6.184,7.249 6.47,7.514 6.822,7.514 7.174,7.514 7.46,7.249 7.46,6.922 7.46,6.595 7.174,6.33 6.822,6.33 z" style="fill:#ffdead"/></g></g></svg>