<svg xmlns="http://www.w3.org/2000/svg" viewBox="0 0 256 256"><path d="m -1374.42 1658.71 c 127.95 -192.46 -280.09 -311 -226.07 -62.2 23.02 102.82 167.39 165.22 226.07 62.2 z" transform="matrix(0 1 -1 0 1711.49 1605.45)" style="fill:#fff;color:#000"/><g style="fill:#ff4500"><path d="m 91.16 157.45 c -5.582 -2.527 -10.882 -7.336 -13.08 -11.868 -1.981 -4.092 -2.079 -5.905 -2.079 -38.612 0 -22.822 0.382 -35.595 1.141 -38.13 2.397 -8 11.308 -15.337 20.09 -16.541 8.59 -1.177 25.858 4.408 38.02 12.297 2.628 1.705 2.872 1.706 5.5 0.024 6.04 -3.866 16.11 -8.582 22.605 -10.587 8.83 -2.725 16.351 -2.734 22.11 -0.027 5.671 2.666 12.08 9.595 13.453 14.557 0.664 2.392 1.072 16.866 1.076 38.14 0.004 27.305 -0.282 34.971 -1.409 37.669 -1.971 4.716 -8.854 11.1 -14.14 13.12 -9 3.438 -24.07 0.267 -38.695 -8.144 l -7.75 -4.457 l -7.75 4.457 c -4.263 2.451 -10.675 5.445 -14.25 6.653 -8.348 2.82 -20.277 3.515 -24.846 1.447 z m 23.2 -25.557 c 3.61 -1.115 6.854 -2.498 7.209 -3.073 0.355 -0.575 -0.634 -3.825 -2.199 -7.223 -2.534 -5.502 -2.842 -7.271 -2.82 -16.177 0.022 -8.766 0.364 -10.732 2.771 -15.935 3.183 -6.881 2.91 -7.473 -4.598 -9.972 -6.141 -2.044 -10.582 -2.023 -12.886 0.062 -1.676 1.517 -1.829 3.685 -1.829 26 0 23.01 0.11 24.455 2 26.345 2.504 2.504 4.169 2.501 12.352 -0.027 z m 59.65 0.027 c 1.888 -1.888 2 -3.333 2 -25.777 0 -26.753 -0.332 -28.22 -6.375 -28.22 -4.497 0 -13.11 2.678 -14.676 4.562 -1.071 1.29 -0.927 2.303 0.842 5.945 2.772 5.705 4.611 16.45 3.878 22.646 -0.319 2.696 -1.796 7.609 -3.281 10.919 -1.841 4.102 -2.375 6.342 -1.677 7.04 1.302 1.302 12.07 4.764 15.04 4.835 1.238 0.03 3.15 -0.846 4.25 -1.946 z m -34.04 -20.934 c 1.416 -2.646 1.241 -8.07 -0.354 -10.944 l -1.318 -2.378 l -1.646 2.35 c -2.632 3.757 -1.672 12.905 1.354 12.905 0.511 0 1.395 -0.87 1.965 -1.934 z m -37.12 -46.668 c 7.89 -0.896 15.99 -1.373 18 -1.061 l 3.654 0.568 l -2.267 -1.877 c -2.751 -2.277 -12.988 -5.774 -19.483 -6.655 -6.163 -0.836 -12.613 1.568 -16.704 6.227 -3.768 4.292 -3.841 5.484 -0.297 4.888 1.513 -0.254 9.206 -1.195 17.1 -2.09 z m 86.969 -2.322 c -1.501 -2.404 -7.285 -5.62 -11.53 -6.412 -3.876 -0.723 -16.585 2.357 -21.969 5.324 -3.617 1.993 -3.659 2.071 -0.816 1.499 1.65 -0.332 8.175 -0.842 14.5 -1.132 8.704 -0.399 12.472 -0.17 15.5 0.943 5.439 1.999 5.693 1.986 4.315 -0.221 z" transform="matrix(1.26089 0 0 1.08902 -46.973 11.456)"/></g><g style="fill:#ffa07a;fill-rule:evenodd"><path d="m 190.91 81.35 c -5.23 -2.01 -5.242 -2.01 -17.444 -1.988 -10.557 0.019 -23.591 0.843 -29.406 1.859 -1.428 0.249 -1.073 -0.121 1.952 -2.039 4.489 -2.846 16.484 -6.921 24.818 -8.431 5.749 -1.041 6.286 -1.04 9.719 0.029 6.577 2.047 16.343 9.263 16.343 12.07 0 0.811 0.145 0.848 -5.981 -1.505 z"/><path d="m 56.53 84.3 c 0 -0.485 1.43 -2.665 3.177 -4.843 5.21 -6.495 11.696 -9.75 19.39 -9.728 7.474 0.021 23.442 5.314 28.811 9.55 1.145 0.903 2.081 1.678 2.082 1.722 0 0.044 -2.514 -0.011 -5.587 -0.123 -6.582 -0.239 -15.495 0.509 -32.27 2.704 -14.389 1.884 -15.607 1.94 -15.607 0.718 z"/></g></svg>