<svg xmlns="http://www.w3.org/2000/svg" viewBox="0 0 256 256"><defs><filter id="0"><feGaussianBlur stdDeviation="1.05927"/></filter></defs><g transform="translate(0 -796.36)"><path d="m 23.93 1001.41 c -75.07 -93.1 40.957 -226.49 148.29 -202.13 115.57 27.07 106.03 194.65 5.404 236.01 -50.08 28.811 -126.76 23.449 -153.69 -33.886 z" style="fill:#fff;color:#000"/><g transform="matrix(1.22617 0 0 1.29018 -87.95 718.76)" style="fill:#ff4500;stroke:#ff4500"><g transform="matrix(1.52428 -0.15508 -0.15145 -2.0131 80.5 94.71)" style="fill-rule:evenodd"><path d="m 12.996 -18.647 h 90.87 v 0.426 h -90.87 z"/><path d="m 12.996 -23.1 h 90.87 v 0.426 h -90.87 z"/><path d="m 12.996 -27.668 h 90.87 v 0.426 h -90.87 z"/><path d="m 12.996 -32.12 h 90.87 v 0.426 h -90.87 z"/><path d="m 12.996 -36.644 h 90.87 v 0.426 h -90.87 z"/><path d="m 12.996 -41.1 h 90.87 v 0.426 h -90.87 z"/><path d="m 12.996 -45.666 h 90.87 v 0.426 h -90.87 z"/><path d="m 12.996 -50.12 h 90.87 v 0.426 h -90.87 z"/><path d="m 12.996 -54.747 h 90.87 v 0.426 h -90.87 z"/><path d="m 12.996 -59.2 h 90.87 v 0.426 h -90.87 z"/></g><g transform="matrix(1.50373 0 0 1.71394 343.21 165.06)"><path d="m -104.77 9.617 c -1.146 0.541 -1.718 1.01 -1.718 1.401 0 0.295 0.273 0.565 0.818 0.811 0.545 0.246 1.255 0.467 2.127 0.664 0.873 0.148 1.882 0.27 3.03 0.369 1.145 0.098 2.346 0.148 3.6 0.148 6.109 0 11.346 -0.811 15.71 -2.434 6.382 -2.262 9.573 -6.097 9.573 -11.505 0 -5.998 -3.491 -11.726 -10.473 -17.18 -2.618 -2.163 -5.373 -4.105 -8.264 -5.826 -2.891 -1.77 -5.973 -3.393 -9.246 -4.868 -4.309 -1.868 -8.619 -3.319 -12.928 -4.351 -4.255 -1.082 -8.592 -1.721 -13.01 -1.918 -5.182 -0.295 -9.71 0.615 -13.583 2.729 -3.382 1.868 -5.291 4.155 -5.728 6.859 -0.164 0.738 -0.245 1.549 -0.245 2.434 0 2.557 0.409 5.04 1.227 7.449 0.982 2.852 2.264 4.917 3.846 6.195 0.273 0.393 0.545 0.59 0.818 0.59 0 0 0.054 -0.049 0.164 -0.148 0 -0.197 -0.136 -0.492 -0.409 -0.885 -2.455 -3.294 -3.682 -7.547 -3.682 -12.759 0 -0.934 0.082 -1.893 0.245 -2.876 1.091 -5.605 5.919 -8.408 14.483 -8.408 3.928 0 7.855 0.418 11.783 1.254 3.982 0.836 8.07 2.114 12.274 3.835 3.818 1.573 7.446 3.442 10.883 5.605 3.437 2.114 6.709 4.474 9.819 7.08 5.728 4.966 8.591 10.202 8.591 15.709 0 4.474 -2.155 7.695 -6.464 9.661 -1.855 0.885 -3.982 1.573 -6.382 2.065 -2.346 0.492 -4.964 0.738 -7.855 0.738 -3.109 0 -5.537 -0.393 -7.282 -1.18 -0.927 -0.246 -1.5 -0.664 -1.718 -1.254 m -29.947 22.642 c 0.709 0.246 1.527 0.369 2.455 0.369 1.036 0 2.02 -0.098 2.946 -0.295 0.982 -0.197 1.882 -0.516 2.7 -0.959 6 -2.901 12.383 -10.325 19.15 -22.273 4.091 -7.178 7.664 -14.677 10.719 -22.494 0.164 -0.344 0.191 -0.983 0.082 -1.918 -0.109 -0.885 -0.246 -1.327 -0.409 -1.328 0.055 0 -0.027 0.098 -0.245 0.295 -2.891 7.818 -7.719 17.01 -14.483 27.583 -7.419 11.604 -13.04 18.04 -16.856 19.323 -1.091 0.246 -2.073 0.393 -2.946 0.443 -0.818 0.098 -1.555 0.025 -2.209 -0.221 -1.582 -0.59 -2.837 -1.401 -3.764 -2.434 -0.491 -0.442 -0.846 -0.664 -1.064 -0.664 -0.273 0 -0.409 0.148 -0.409 0.443 0 0.295 0.164 0.664 0.491 1.106 0.927 1.278 2.209 2.286 3.846 3.02" style="filter:url(#0)"/><path d="m -104.77 9.618 c -1.146 0.541 -1.718 1.01 -1.718 1.401 0 0.295 0.273 0.565 0.818 0.811 0.545 0.246 1.255 0.467 2.127 0.664 0.873 0.148 1.882 0.27 3.03 0.369 1.145 0.098 2.346 0.148 3.6 0.148 6.109 0 11.346 -0.811 15.71 -2.434 6.382 -2.262 9.573 -6.097 9.573 -11.505 0 -5.998 -3.491 -11.726 -10.473 -17.18 -2.618 -2.163 -5.373 -4.105 -8.264 -5.826 -2.891 -1.77 -5.973 -3.393 -9.246 -4.868 -4.309 -1.868 -8.619 -3.319 -12.928 -4.351 -4.255 -1.082 -8.592 -1.721 -13.01 -1.918 -5.182 -0.295 -9.71 0.615 -13.583 2.729 -3.382 1.868 -5.291 4.155 -5.728 6.859 -0.164 0.738 -0.245 1.549 -0.245 2.434 0 2.557 0.409 5.04 1.227 7.449 0.982 2.852 2.264 4.917 3.846 6.195 0.273 0.393 0.545 0.59 0.818 0.59 0 0 0.054 -0.049 0.164 -0.148 0 -0.197 -0.136 -0.492 -0.409 -0.885 -2.455 -3.294 -3.682 -7.547 -3.682 -12.759 0 -0.934 0.082 -1.893 0.245 -2.876 1.091 -5.605 5.919 -8.408 14.483 -8.408 3.928 0 7.855 0.418 11.783 1.254 3.982 0.836 8.07 2.114 12.274 3.835 3.818 1.573 7.446 3.442 10.883 5.605 3.437 2.114 6.709 4.474 9.819 7.08 5.728 4.966 8.591 10.202 8.591 15.709 0 4.474 -2.155 7.695 -6.464 9.661 -1.855 0.885 -3.982 1.573 -6.382 2.065 -2.346 0.492 -4.964 0.738 -7.855 0.738 -3.109 0 -5.537 -0.393 -7.282 -1.18 -0.927 -0.246 -1.5 -0.664 -1.718 -1.254 m -29.947 22.642 c 0.709 0.246 1.527 0.369 2.455 0.369 1.036 0 2.02 -0.098 2.946 -0.295 0.982 -0.197 1.882 -0.516 2.7 -0.959 6 -2.901 12.383 -10.325 19.15 -22.273 4.091 -7.178 7.664 -14.677 10.719 -22.494 0.164 -0.344 0.191 -0.983 0.082 -1.918 -0.109 -0.885 -0.246 -1.327 -0.409 -1.328 0.055 0 -0.027 0.098 -0.245 0.295 -2.891 7.818 -7.719 17.01 -14.483 27.583 -7.419 11.604 -13.04 18.04 -16.856 19.323 -1.091 0.246 -2.073 0.393 -2.946 0.443 -0.818 0.098 -1.555 0.025 -2.209 -0.221 -1.582 -0.59 -2.837 -1.401 -3.764 -2.434 -0.491 -0.442 -0.846 -0.664 -1.064 -0.664 -0.273 0 -0.409 0.148 -0.409 0.443 0 0.295 0.164 0.664 0.491 1.106 0.927 1.278 2.209 2.286 3.846 3.02"/></g></g></g></svg>