<svg xmlns="http://www.w3.org/2000/svg" viewBox="0 0 256 256"><path d="m 53.071018,234.52898 c -88.14,-48.541 -53.93100016,-200.629998 18.64,-226.3599976 C 158.16102,-22.491018 322.34102,57.308982 226.16102,192.46898 c -33.585,45.527 -84.949,90.6 -173.090002,42.05 z" style="fill:#fff;color:#000"/><g transform="translate(-1.9041489 1.904149)"><g style="fill:#ff4500"><path d="m 104.34201,201.0398 c -5.468701,-1.73426 -14.275793,-5.69382 -14.905734,-6.70143 -1.009109,-1.6141 11.145084,-17.44614 13.393334,-17.44614 0.51704,0 2.97268,0.98991 5.45699,2.19979 8.91389,4.34116 21.04026,5.57251 29.87674,3.03378 5.57329,-1.60121 9.1439,-2.88376 11.69086,-4.19933 1.7143,-0.88547 2.0848,-0.89069 3.25206,-0.0458 0.72453,0.52441 1.99337,1.23932 2.81964,1.58867 1.65979,0.70176 12.48151,11.27005 12.48151,12.1892 0,2.50517 -19.17809,10.75597 -23.24707,10.00136 -1.16541,-0.21612 -2.11892,-0.61352 -2.11892,-0.8831 0,-0.26959 -2.29494,-2.90343 -5.09987,-5.85298 -4.75563,-5.00084 -5.22758,-5.32863 -6.99191,-4.85621 -1.04062,0.27864 -2.91644,0.45551 -4.16848,0.39305 -2.40897,-0.12018 -2.93914,0.28006 -8.42955,6.36375 -1.43616,1.59136 -2.61485,3.08971 -2.61931,3.32968 -0.005,0.23997 -0.46804,0.89097 -1.03018,1.44668 -1.38769,1.37182 -4.85802,1.18393 -10.36011,-0.56093 z M 72.807815,181.55378 c -8.178787,-8.76308 -15.620538,-21.57942 -15.620538,-26.90202 0,-1.85357 -0.318217,-2.81857 -1.016839,-3.08359 -0.634507,-0.2407 -0.81841,-0.68964 -0.489102,-1.194 0.290255,-0.44453 0.697962,-3.84629 0.906015,-7.55946 l 0.378278,-6.7512 0.120784,7.07269 c 0.121838,7.13444 0.750574,9.95756 1.694558,7.60883 0.260645,-0.64851 0.630469,-5.80851 0.821831,-11.46666 0.34438,-10.18257 0.33051,-10.31971 -1.359002,-13.43744 -1.928033,-3.55789 -2.224577,-6.66017 -0.692202,-7.24148 0.558102,-0.21172 1.457218,-1.47817 1.998036,-2.81435 0.658332,-1.62652 1.642703,-2.69943 2.978504,-3.24641 1.097359,-0.44935 4.623644,-3.24282 7.836189,-6.20773 5.495887,-5.07224 9.055737,-7.747082 12.839357,-9.647373 0.894314,-0.449161 2.796763,-1.517684 4.227666,-2.374495 1.430902,-0.856809 3.517135,-1.982203 4.636073,-2.500874 1.118938,-0.51867 2.233779,-1.261897 2.477424,-1.651614 0.243645,-0.389717 0.971615,-0.708577 1.617711,-0.708577 0.646098,0 1.872734,-0.534553 2.725858,-1.187897 0.853126,-0.653343 2.370064,-1.385683 3.370964,-1.627422 1.48468,-0.35858 2.0836,-0.121449 3.25205,1.287596 0.78773,0.949917 2.1819,2.477935 3.09817,3.395596 2.46983,2.47358 2.55517,3.163498 1.2079,9.76516 -1.62456,7.9604 -1.6251,16.09571 -10e-4,19.63064 1.29679,2.82302 6.55606,7.31465 8.56478,7.31465 0.64289,0 1.34209,0.27702 1.55376,0.61559 0.44312,0.70879 -2.92518,2.59357 -4.66606,2.61098 -3.88101,0.0388 -15.758914,11.92648 -15.792907,15.80591 -0.0065,0.7429 -0.349085,2.30711 -0.761279,3.47601 -0.608292,1.72499 -0.529328,2.98432 0.419259,6.68641 0.642786,2.50862 1.565407,5.01793 2.050267,5.57623 0.48486,0.55829 0.88156,1.29152 0.88156,1.62939 0,1.30604 6.99565,7.3265 10.21732,8.79303 1.8634,0.84823 3.78222,1.86567 4.26402,2.26096 2.00126,1.6419 18.48577,1.29431 21.75802,-0.45879 0.63757,-0.34158 2.53996,-1.26447 4.22755,-2.05087 4.34139,-2.02307 6.97276,-4.34698 10.23289,-9.03725 2.79764,-4.02492 2.83904,-4.16364 3.04071,-10.18871 0.14673,-4.38377 -0.0544,-6.56205 -0.71262,-7.71567 -0.5044,-0.88408 -1.33117,-2.48259 -1.83728,-3.55223 -0.50611,-1.06964 -1.96883,-2.80567 -3.25049,-3.85783 -1.28166,-1.05217 -3.59245,-3.00176 -5.13509,-4.33241 -1.54265,-1.33067 -3.53652,-2.57803 -4.43083,-2.77192 -0.89432,-0.19389 -2.57188,-0.76164 -3.72793,-1.26167 -1.15604,-0.50004 -4.45493,-1.10314 -7.33085,-1.34025 -2.87593,-0.2371 -5.07262,-0.58564 -4.88153,-0.77454 0.19108,-0.18891 3.53035,-0.28389 7.42058,-0.21109 l 7.07316,0.13236 2.83712,-2.11572 c 1.56041,-1.16365 3.51331,-3.41359 4.33978,-4.99986 1.33108,-2.5548 1.45333,-3.43476 1.07062,-7.70641 -0.39524,-4.41158 -2.3445,-14.541978 -3.24402,-16.859256 -0.22988,-0.592227 1.0437,-2.602808 3.31429,-5.232217 2.89587,-3.35348 4.07316,-4.270388 5.48309,-4.270388 0.98749,0 2.16196,0.436595 2.60995,0.970213 0.44799,0.533616 1.97233,1.153236 3.38742,1.376931 1.4151,0.223695 2.72243,0.791911 2.90518,1.262701 0.18274,0.47079 1.35177,1.045055 2.59783,1.276144 1.24607,0.23109 2.41985,0.817634 2.60843,1.303433 0.18858,0.485799 0.72813,0.883271 1.19899,0.883271 0.47087,0 1.72572,0.723344 2.78855,1.60743 1.06283,0.884087 2.24148,1.607431 2.61923,1.607431 0.37774,0 0.92085,0.38733 1.20692,0.860733 0.28607,0.473403 1.00439,1.124413 1.59625,1.446687 0.96601,0.525994 2.78913,1.988987 8.14166,6.533447 0.93717,0.79568 2.10433,1.44669 2.5937,1.44669 0.48937,0 1.86925,0.63473 3.06641,1.41051 1.63093,1.05687 2.35868,2.14499 2.9027,4.34006 0.89905,3.62764 1.10212,11.28316 0.43825,16.52213 -0.62681,4.94654 0.0811,10.83597 1.46724,12.20624 1.02489,1.01316 1.82161,4.38126 2.5353,10.71785 0.31328,2.78156 -0.004,3.78479 -3.24932,10.28755 -3.9006,7.81478 -10.36332,17.1715 -11.86042,17.1715 -1.06554,0 -1.0983,-0.49187 -0.29974,-4.5008 0.63262,-3.17589 -0.15137,-8.02354 -1.5581,-9.6342 -0.46828,-0.53616 -1.05988,-1.84285 -1.31466,-2.90376 -0.25477,-1.0609 -0.84126,-2.36292 -1.3033,-2.89337 -0.46204,-0.53045 -1.12203,-1.83247 -1.46665,-2.89338 -0.7074,-2.17773 -2.78154,-3.04053 -2.81827,-1.17234 -0.0184,0.93734 -0.20296,0.85099 -0.92057,-0.43076 -0.49364,-0.88171 -0.65282,-1.75262 -0.35373,-1.93536 0.2991,-0.18274 0.75164,-1.19737 1.00565,-2.25473 0.25401,-1.05736 2.61869,-6.32162 5.25485,-11.69835 4.94846,-10.09295 5.54841,-12.16046 3.72899,-12.85065 -2.08098,-0.78942 -2.98425,0.23984 -5.75026,6.55223 -0.92975,2.1218 -1.97273,4.29184 -2.31772,4.82229 -0.34499,0.53045 -0.92257,1.64295 -1.28351,2.47221 -1.21692,2.79595 -6.06473,10.68525 -8.55575,13.92358 -1.36012,1.76817 -2.9895,3.89262 -3.62084,4.72101 -0.63133,0.82838 -1.97485,2.41973 -2.98561,3.53634 -1.01075,1.11661 -2.72782,3.23858 -3.81572,4.71549 -4.22804,5.73991 -10.98714,9.19553 -20.56886,10.51592 -6.11657,0.84288 -5.14773,0.83809 -12.01091,0.0595 -9.56277,-1.0848 -15.16328,-4.30202 -25.506968,-14.65253 -10.131913,-10.13857 -15.057937,-16.77368 -19.555265,-26.34 -1.30828,-2.78286 -2.830406,-5.56608 -3.382504,-6.18494 -1.226838,-1.37519 -3.31159,-1.46803 -3.815489,-0.16991 -0.756072,1.94776 5.852428,15.56281 10.449573,21.52854 1.507349,1.9561 2.946973,3.9039 3.199165,4.32845 0.447994,0.75418 -0.676464,3.22664 -3.08686,6.78739 -1.064384,1.57236 -1.152336,2.62532 -0.778745,9.3231 0.231636,4.1528 0.586753,8.92489 0.789149,10.60466 0.331512,2.75135 0.238369,3.05412 -0.939558,3.05412 -0.797251,0 -3.122623,-1.94474 -5.958333,-4.98304 z m 9.848155,1.1252 c 0,-0.88408 0.147626,-1.24576 0.328058,-0.80371 0.180431,0.44204 0.180431,1.16538 0,1.60743 -0.180432,0.44204 -0.328058,0.0804 -0.328058,-0.80372 z m 96.2607,-1.28594 c 0,-0.88409 0.14763,-1.24576 0.32806,-0.80372 0.18043,0.44205 0.18043,1.16539 0,1.60743 -0.18043,0.44205 -0.32806,0.0804 -0.32806,-0.80371 z m -96.82778,-5.46526 c 0.0049,-1.76818 0.131196,-2.41521 0.280695,-1.43785 0.1495,0.97736 0.145505,2.42404 -0.0089,3.21486 -0.154382,0.79082 -0.2767,-0.009 -0.271817,-1.77701 z m 116.46183,-28.31851 c -0.21183,-0.5457 -0.23981,-1.13585 -0.0622,-1.31144 0.17762,-0.1756 0.47906,0.27089 0.66987,0.99219 0.4053,1.53215 -0.045,1.76874 -0.60768,0.31925 z m -1.77011,-6.42685 c -0.22306,-0.57462 -0.3804,-1.52745 -0.34966,-2.11739 0.0308,-0.58993 0.31376,-0.21914 0.62891,0.82399 0.61312,2.02938 0.39628,3.03369 -0.27925,1.2934 z m -1.00462,-5.81547 c 0.0312,-0.74903 0.18533,-0.90138 0.39295,-0.38846 0.18789,0.46414 0.16478,1.01871 -0.0513,1.23237 -0.21614,0.21365 -0.36985,-0.16611 -0.34161,-0.84391 z M 53.986575,121.22157 c 0.03121,-0.74903 0.185328,-0.90138 0.392956,-0.38847 0.187885,0.46415 0.164777,1.01871 -0.05135,1.23237 -0.216126,0.21365 -0.36985,-0.16611 -0.341608,-0.8439 z m 17.509726,-19.79983 c 0,-0.13352 0.512198,-0.63986 1.138218,-1.1252 1.031587,-0.799776 1.054592,-0.777034 0.245565,0.24276 -0.849675,1.07103 -1.383783,1.41163 -1.383783,0.88244 z m 54.634449,-3.615075 c 0,-2.143241 0.21681,-2.571889 1.30082,-2.571889 1.08402,0 1.30082,0.428648 1.30082,2.571889 0,2.14324 -0.2168,2.571885 -1.30082,2.571885 -1.08401,0 -1.30082,-0.428645 -1.30082,-2.571885 z m -8.76773,-11.559516 c -1.12438,-1.228218 -1.09989,-1.404822 0.7122,-5.135325 1.78272,-3.67001 3.44902,-4.883615 4.46783,-3.254001 0.21535,0.344446 1.84502,1.052969 3.62151,1.574495 2.92132,0.857618 3.51465,0.843927 6.20905,-0.143268 2.96376,-1.085884 2.98551,-1.083643 4.23005,0.435724 1.62554,1.984492 2.24032,4.4853 1.32507,5.390087 -0.99689,0.985482 -6.66777,0.609256 -7.93739,-0.526594 -1.4544,-1.301155 -3.45219,-1.152875 -4.8362,0.358955 -0.64748,0.70727 -1.57089,1.285945 -2.05204,1.285945 -0.48114,0 -0.87481,0.289337 -0.87481,0.642972 0,1.151391 -3.66973,0.676963 -4.86527,-0.62899 z"/><path d="m 139.46416,210.96976 c 0.22109,-0.35364 0.53105,-0.64298 0.6888,-0.64298 0.15775,0 0.28682,0.28934 0.28682,0.64298 0,0.35363 -0.30996,0.64297 -0.6888,0.64297 -0.37884,0 -0.50791,-0.28934 -0.28682,-0.64297 z m -20.64294,-4.31259 c 0.80906,-0.15379 1.97979,-0.14795 2.60164,0.013 0.62185,0.16093 -0.0401,0.28677 -1.471,0.27963 -1.4309,-0.007 -1.93969,-0.13881 -1.13064,-0.2926 z m 14.30144,0.0289 c 0.44716,-0.17837 1.17887,-0.17837 1.62603,0 0.44716,0.17837 0.0813,0.32431 -0.81301,0.32431 -0.89432,0 -1.26017,-0.14594 -0.81302,-0.32431 z m -21.70336,-2.78874 c -1.8311,-0.26524 -5.34331,-1.13246 -7.80492,-1.92717 -5.367564,-1.73287 -15.207415,-6.34231 -15.207415,-7.12386 0,-0.3064 -0.951225,-0.82861 -2.113833,-1.16046 l -2.113833,-0.60336 1.95123,-0.0664 c 1.720317,-0.0586 2.172332,-0.52164 3.819547,-3.91288 1.061303,-2.18498 3.940967,-6.07156 6.666704,-8.99782 4.29299,-4.6088 4.79839,-5.42178 4.79839,-7.71861 0,-1.78854 -0.28002,-2.56722 -0.9232,-2.56722 -1.373768,0 -7.730475,-5.9759 -9.172554,-8.62305 -1.266405,-2.32468 -4.217605,-3.57985 -6.437275,-2.73782 -1.020098,0.38697 -3.276494,5.00309 -3.870485,7.91822 -0.45207,2.21861 0.530607,21.88406 1.184095,23.69627 0.41106,1.13993 0.365368,1.1694 -0.402394,0.25956 -0.47636,-0.56452 -1.758234,-1.48209 -2.848608,-2.03904 -2.997888,-1.53129 -11.018698,-10.20772 -14.899665,-16.11756 -4.101817,-6.24614 -7.508217,-12.792 -7.508217,-14.42805 0,-0.64768 -0.933886,-2.4643 -2.075303,-4.03691 -1.760347,-2.42535 -1.828017,-2.63974 -0.445888,-1.41261 0.896179,0.79568 1.976407,1.44669 2.400508,1.44669 0.424102,0 0.771093,0.81098 0.771093,1.80218 0,2.23317 4.12601,10.77056 8.036695,16.62924 3.991253,5.97939 11.894639,14.36016 13.542176,14.36016 1.177927,0 1.27107,-0.30277 0.939558,-3.05412 -0.202396,-1.67977 -0.557513,-6.45186 -0.789149,-10.60466 -0.373591,-6.69778 -0.285639,-7.75074 0.778745,-9.3231 2.410396,-3.56075 3.534854,-6.03321 3.08686,-6.78739 -0.252192,-0.42455 -1.691816,-2.37235 -3.199165,-4.32845 -4.597145,-5.96573 -11.205645,-19.58078 -10.449573,-21.52854 0.503899,-1.29812 2.588651,-1.20528 3.815489,0.16991 0.552098,0.61886 2.074224,3.40208 3.382504,6.18494 4.497328,9.56632 9.423352,16.20143 19.555265,26.34 10.343688,10.35051 15.944198,13.56773 25.506968,14.65255 6.86318,0.77859 5.89434,0.78338 12.01091,-0.0595 9.58172,-1.32039 16.34082,-4.77602 20.56886,-10.51592 1.0879,-1.47691 2.80497,-3.59889 3.81572,-4.71549 1.01076,-1.11661 2.35428,-2.70797 2.98561,-3.53635 0.63134,-0.82838 2.26072,-2.95283 3.62084,-4.72101 2.49102,-3.23833 7.33883,-11.12763 8.55575,-13.92357 0.36094,-0.82927 0.93852,-1.94176 1.28351,-2.47222 0.34499,-0.53045 1.38797,-2.70048 2.31772,-4.82229 2.76601,-6.31239 3.66928,-7.34164 5.75026,-6.55222 1.82598,0.69268 1.21513,2.76851 -3.81406,12.96108 -2.68294,5.43748 -4.87807,10.31201 -4.87807,10.83229 0,1.12662 -1.36652,1.72653 -3.93277,1.72653 -1.28546,0 -2.11455,0.45496 -2.63638,1.44669 -1.35442,2.57406 -10.26545,13.22685 -12.61347,15.07891 -2.52201,1.9893 -2.55269,2.09201 -1.61828,5.41752 0.51281,1.82511 1.05747,2.41198 2.5039,2.69795 1.78029,0.35199 9.87605,7.65789 13.93025,12.57115 2.13549,2.58798 2.24092,2.46331 -5.71461,6.75774 -5.98052,3.22829 -12.91759,5.90993 -17.43872,6.74121 -2.63611,0.48469 -3.07206,0.42697 -2.76424,-0.36602 0.20099,-0.51781 0.36545,-1.05524 0.36545,-1.1943 0,-0.13905 0.80488,-0.0946 1.78863,0.0989 3.7269,0.7328 22.92695,-7.68394 22.92695,-10.0505 0,-0.91915 -10.82172,-11.48744 -12.48151,-12.1892 -0.82627,-0.34936 -2.09511,-1.06426 -2.81964,-1.58867 -1.16726,-0.84486 -1.53776,-0.83964 -3.25206,0.0458 -2.54696,1.31557 -6.11757,2.59812 -11.69086,4.19933 -8.83648,2.53872 -20.96285,1.30738 -29.87674,-3.03378 -2.48431,-1.20992 -4.93995,-2.19983 -5.45699,-2.19983 -2.24784,0 -14.402496,15.83195 -13.393594,17.44572 0.674509,1.0789 10.317928,5.30477 15.871834,6.95524 3.04854,0.90594 5.78367,1.32535 7.31712,1.12202 2.08938,-0.27704 2.44881,-0.14493 2.44881,0.90007 0,0.67361 -0.0732,1.18866 -0.1626,1.14454 -0.0894,-0.0441 -1.66078,-0.29722 -3.49188,-0.56246 z m -7.1024,-28.69201 c 0.96784,-0.36715 0.96383,-0.50258 -0.0476,-1.60743 -0.60748,-0.66358 -1.35182,-1.2065 -1.65411,-1.2065 -0.65048,0 -0.74077,2.16859 -0.11599,2.78621 0.52903,0.52299 0.51279,0.52274 1.81771,0.0277 z m 47.54008,-0.29806 c 0.74608,-1.19338 -0.81446,-2.19131 -1.95869,-1.25254 -0.55175,0.45267 -1.00318,1.07695 -1.00318,1.38728 0,0.80904 2.44127,0.69798 2.96187,-0.13474 z M 87.106145,156.61844 c 0,-0.54156 -0.453841,-1.15681 -1.008535,-1.36723 -0.920238,-0.34909 -8.062529,-10.53294 -10.073767,-14.3637 -0.579909,-1.10454 -0.937154,-1.3266 -1.144572,-0.71147 -0.429965,1.27515 3.511385,8.59257 6.361209,11.81008 1.326785,1.49797 2.760607,3.37459 3.186269,4.17026 0.877851,1.64095 2.679396,1.95161 2.679396,0.46206 z m 84.808935,-6.46214 c 0.21714,-0.55937 0.39334,-1.64439 0.39156,-2.41114 -0.003,-1.2859 -0.12737,-1.24439 -1.60263,0.53482 -0.87967,1.0609 -1.60993,2.14591 -1.6228,2.41114 -0.0455,0.93756 2.44476,0.4676 2.83387,-0.53482 z m -56.24788,50.04367 c 0.67644,-1.19078 4.09974,-5.08612 7.06257,-8.03643 0.97623,-0.97209 2.4335,-1.76777 3.23838,-1.76817 1.8787,-6.4e-4 1.85104,0.39672 -0.0992,1.42543 -0.85943,0.45334 -2.75884,2.40381 -4.2209,4.3344 -2.38705,3.15196 -4.67953,5.0834 -6.10936,5.14719 -0.28088,0.0125 -0.22306,-0.48356 0.12849,-1.10242 z m 23.22364,-1.4422 c -1.38851,-1.03877 -2.96933,-2.54974 -3.51295,-3.35772 -0.54361,-0.80798 -1.87963,-2.4094 -2.96892,-3.55871 -1.79691,-1.89594 -1.85716,-2.08966 -0.64987,-2.08966 1.09507,0 5.03305,3.72773 11.22812,10.62864 0.14905,0.16603 -0.14364,0.29383 -0.65041,0.28399 -0.50678,-0.01 -2.05747,-0.86778 -3.44597,-1.90654 z m 40.89875,-7.07718 c 0.64748,-0.70727 1.32357,-1.28594 1.50244,-1.28594 0.17886,0 -0.20455,0.57867 -0.85203,1.28594 -0.64747,0.70727 -1.32357,1.28595 -1.50243,1.28595 -0.17887,0 0.20455,-0.57868 0.85202,-1.28595 z m -110.279533,-3.69709 -2.241422,-2.41114 2.439038,2.21579 c 2.270204,2.0624 2.738088,2.6065 2.241422,2.6065 -0.108689,0 -1.206256,-1.08502 -2.439038,-2.41115 z m 106.051873,2.16839 c 0,-0.13352 0.51219,-0.63986 1.13821,-1.1252 1.03159,-0.79978 1.0546,-0.77704 0.24557,0.24276 -0.84967,1.07103 -1.38378,1.41163 -1.38378,0.88244 z m 3.60151,-5.2225 c 0.24161,-0.70727 0.66972,-3.16664 0.95136,-5.46527 0.28163,-2.29862 0.72688,-4.70122 0.98945,-5.3391 0.51673,-1.25535 -0.22114,-3.22975 -5.47997,-14.66346 -0.74975,-1.63009 -1.36317,-3.31789 -1.36317,-3.75067 0,-1.44815 1.53733,-0.30061 2.15805,1.61088 0.33733,1.0388 0.99136,2.32274 1.4534,2.85319 0.46204,0.53045 1.04853,1.83247 1.3033,2.89337 0.25478,1.06091 0.84638,2.3676 1.31466,2.90376 1.40673,1.61066 2.19072,6.45831 1.5581,9.6342 -0.79856,4.00893 -0.7658,4.5008 0.29974,4.5008 1.4971,0 7.95982,-9.35672 11.86042,-17.1715 3.81877,-7.65083 3.81511,-7.62842 2.5549,-15.62007 l -0.35487,-2.25041 0.75616,2.25041 c 0.85855,2.55517 1.7181,3.35405 3.07607,2.85895 0.76271,-0.27808 0.74869,-0.1258 -0.0746,0.81047 -0.55757,0.63407 -1.18827,2.28038 -1.40156,3.65845 -0.92603,5.98297 -11.50517,23.49987 -16.55823,27.41706 -0.97165,0.75323 -2.15271,1.99622 -2.62457,2.7622 -0.74986,1.21723 -0.8026,1.23068 -0.41863,0.10674 z m 10.3823,-2.89338 c 0.64748,-0.70727 1.32358,-1.28594 1.50244,-1.28594 0.17886,0 -0.20455,0.57867 -0.85203,1.28594 -0.64747,0.70727 -1.32357,1.28595 -1.50243,1.28595 -0.17886,0 0.20455,-0.57868 0.85202,-1.28595 z m -69.91648,-5.62069 c -1.2506,-0.14912 -2.65284,-0.58209 -3.11609,-0.96215 -0.46324,-0.38006 -2.36687,-1.38504 -4.23027,-2.23327 -3.22167,-1.46653 -10.21732,-7.48699 -10.21732,-8.79303 0,-0.33787 -0.3967,-1.0711 -0.88156,-1.62939 -0.48486,-0.5583 -1.407481,-3.06761 -2.050267,-5.57623 -0.948587,-3.70209 -1.027551,-4.96142 -0.419259,-6.68641 0.412194,-1.1689 0.75477,-2.73311 0.761279,-3.47601 0.03399,-3.87943 11.911897,-15.76712 15.792907,-15.80591 1.74088,-0.0174 5.10918,-1.90219 4.66606,-2.61098 -0.21167,-0.33857 -0.91087,-0.61559 -1.55376,-0.61559 -2.00872,0 -7.26799,-4.49163 -8.56478,-7.31465 -1.6238,-3.53493 -1.62326,-11.67024 0.001,-19.63064 1.34727,-6.601662 1.26193,-7.29158 -1.2079,-9.76516 -0.91627,-0.917661 -2.31044,-2.445679 -3.09817,-3.395596 -1.16845,-1.409045 -1.76737,-1.646176 -3.25205,-1.287596 -1.0009,0.241739 -2.517838,0.974079 -3.370964,1.627422 -0.853124,0.653344 -2.07976,1.187897 -2.725858,1.187897 -0.646096,0 -1.374066,0.31886 -1.617711,0.708577 -0.243645,0.389717 -1.358486,1.132944 -2.477424,1.651614 -1.118938,0.518671 -3.205171,1.644065 -4.636073,2.500874 -1.430903,0.856811 -3.333352,1.925334 -4.227666,2.374495 -3.78362,1.900291 -7.34347,4.575133 -12.839357,9.647373 -3.212545,2.96491 -6.73883,5.75838 -7.836189,6.20773 -1.355659,0.55511 -2.321235,1.62252 -3.012353,3.33003 -1.068191,2.63915 -1.936736,3.16378 -2.563713,1.54859 -0.831776,-2.14278 0.514504,-3.75542 6.414102,-7.68309 1.788628,-1.19078 4.290183,-3.13194 5.559011,-4.31368 7.031567,-6.548936 13.971599,-11.207208 23.709446,-15.914192 3.21953,-1.556225 6.292718,-3.069681 6.829307,-3.363235 0.536592,-0.293555 1.884432,-0.939777 2.995202,-1.436048 1.11077,-0.496271 3.1333,-2.003289 4.4945,-3.348927 1.94477,-1.922526 2.91615,-2.41724 4.53473,-2.309481 2.53837,0.168995 4.03548,-1.322295 4.40609,-4.388988 l 0.27196,-2.250403 0.10409,2.299067 c 0.13619,3.007967 -2.25833,5.395275 -5.28122,5.265309 -1.65294,-0.07107 -2.48573,0.376771 -3.95093,2.124626 -1.04258,1.243697 -1.69313,2.635614 -1.48384,3.174786 0.55029,1.417619 1.40868,1.170267 2.2464,-0.647318 0.91854,-1.99291 2.39306,-2.046708 4.40571,-0.160743 1.78003,1.667997 1.95088,2.937346 0.6325,4.6994 -0.62505,0.835419 -0.81539,2.119092 -0.57563,3.882349 0.19699,1.448841 -0.0915,4.631553 -0.64118,7.072698 -1.5221,6.76014 -2.01235,14.91725 -1.09851,18.27767 0.87771,3.22756 4.79681,7.41432 7.58874,8.10704 0.93441,0.23184 3.63297,0.13553 5.99679,-0.21403 2.89378,-0.42793 5.83592,-0.41671 9.00589,0.0343 4.6535,0.66215 4.74014,0.64776 7.47972,-1.24164 5.50954,-3.79977 6.29009,-8.98832 3.33477,-22.1674 -1.48096,-6.604271 -1.60118,-7.908212 -0.88641,-9.614088 0.45481,-1.085448 1.37215,-2.262002 2.03854,-2.614565 0.66639,-0.352542 1.21162,-0.965003 1.21162,-1.361004 0,-0.432229 -0.45493,-0.328228 -1.13822,0.260208 -1.63591,1.408813 -2.76424,0.720253 -2.76424,-1.686866 0,-1.380833 0.53785,-2.584248 1.59293,-3.564111 1.8099,-1.680864 3.61035,-1.385608 3.61035,0.592059 0,0.718368 0.42175,1.306124 0.93723,1.306124 1.5801,0 1.70385,-1.051644 0.27361,-2.325214 -0.74807,-0.666123 -1.62161,-1.887176 -1.94119,-2.713451 -0.5259,-1.359686 -0.84301,-1.459473 -3.34001,-1.051033 -3.62237,0.592519 -3.73456,0.683327 -3.73456,3.022898 0,1.100597 -0.47355,2.518359 -1.05231,3.150581 -0.57878,0.632223 -1.24815,2.101692 -1.48751,3.265489 -0.33694,1.638261 -0.79687,2.150838 -2.03714,2.27033 -1.58946,0.153134 -1.59054,0.14954 -0.13852,-0.46151 1.60098,-0.673735 2.06046,-3.519185 0.65041,-4.027858 -1.43224,-0.516681 -5.62003,0.260802 -6.39834,1.187885 -0.57594,0.686026 -0.54309,1.148107 0.13981,1.966469 0.80415,0.963668 0.75625,0.997897 -0.4831,0.345245 -1.08631,-0.572051 -2.11072,-0.458919 -4.8689,0.537705 -1.92122,0.694201 -3.87353,1.262185 -4.33845,1.262185 -0.46492,0 -1.39176,-1.260246 -2.05964,-2.800546 -0.6679,-1.540301 -1.68189,-2.977908 -2.25333,-3.194682 -1.39091,-0.527638 -1.31359,-2.485361 0.17244,-4.366358 0.66628,-0.84337 1.84297,-2.763082 2.61487,-4.26603 0.77188,-1.502947 1.76334,-2.731148 2.20322,-2.729337 0.43989,0.0018 1.97054,0.716125 3.40144,1.587364 2.90122,1.76648 5.34396,2.005902 8.59791,0.842714 1.71577,-0.613336 2.45854,-0.613336 3.45201,0 1.98873,1.227782 2.5773,0.940124 2.67661,-1.308171 0.0868,-1.964783 0.11593,-1.935965 0.4878,0.482229 l 0.39551,2.571889 3.27849,0 c 3.00978,0 3.49464,0.223972 5.91559,2.732631 1.4504,1.502947 3.21185,2.732631 3.91431,2.732631 0.70247,0 1.84535,0.424804 2.53975,0.94401 0.69439,0.519205 1.73525,0.953211 2.31303,0.964458 0.57778,0.01125 1.74852,0.555002 2.60164,1.208346 0.85312,0.653343 2.33555,1.377121 3.29428,1.608396 0.95873,0.231273 2.18174,0.85407 2.71779,1.383991 0.53605,0.529921 1.34567,0.963493 1.79915,0.963493 1.13603,0 5.034,2.636287 11.9514,8.083014 3.21953,2.53505 7.6098,5.41146 9.75615,6.39203 5.48864,2.50751 6.28079,3.30184 5.80311,5.81899 -0.24897,1.31194 -0.0464,2.63229 0.55053,3.58936 1.24724,1.99956 0.96868,9.54952 -0.49473,13.40899 -0.95144,2.50922 -0.99562,3.51919 -0.33279,7.60696 0.75281,4.64269 0.49624,6.43982 -0.65622,4.59642 -0.99407,-1.59004 -1.48647,-7.6377 -0.96008,-11.79173 0.66387,-5.23897 0.4608,-12.89449 -0.43825,-16.52213 -0.54402,-2.19507 -1.27177,-3.28319 -2.9027,-4.34006 -1.19716,-0.77578 -2.57704,-1.41051 -3.06641,-1.41051 -0.48937,0 -1.65653,-0.65101 -2.5937,-1.44669 -5.35253,-4.54446 -7.17565,-6.007453 -8.14166,-6.533447 -0.59186,-0.322274 -1.31018,-0.973284 -1.59625,-1.446687 -0.28607,-0.473403 -0.82918,-0.860733 -1.20692,-0.860733 -0.37775,0 -1.5564,-0.723344 -2.61923,-1.607431 -1.06283,-0.884086 -2.31768,-1.60743 -2.78855,-1.60743 -0.47086,0 -1.01041,-0.397472 -1.19899,-0.883271 -0.18858,-0.485799 -1.36236,-1.072343 -2.60843,-1.303433 -1.24606,-0.231089 -2.41509,-0.805354 -2.59783,-1.276144 -0.18275,-0.47079 -1.49008,-1.039006 -2.90518,-1.262701 -1.41509,-0.223695 -2.93943,-0.843315 -3.38742,-1.376931 -0.44799,-0.533618 -1.62246,-0.970213 -2.60995,-0.970213 -1.40993,0 -2.58722,0.916908 -5.48309,4.270388 -2.27059,2.629409 -3.54417,4.63999 -3.31429,5.232217 0.89952,2.317278 2.84878,12.447676 3.24402,16.859256 0.38271,4.27165 0.26046,5.15161 -1.07062,7.70641 -0.82647,1.58627 -2.77937,3.83621 -4.33978,4.99986 l -2.83712,2.11572 -7.07316,-0.13236 c -3.89023,-0.0728 -7.2295,0.0222 -7.42058,0.21109 -0.19109,0.1889 2.03335,0.53973 4.94319,0.77963 2.90985,0.23989 6.12103,0.86068 7.13596,1.37952 1.01493,0.51884 2.39202,0.94334 3.06022,0.94334 1.40648,0 7.01769,4.05969 6.05135,4.37812 -0.35519,0.11704 -2.49593,-0.6601 -4.75721,-1.72696 -2.26128,-1.06687 -5.52341,-2.25258 -7.24918,-2.63491 -3.835,-0.84961 -14.34555,-0.25921 -16.63929,0.93467 -0.90504,0.47108 -3.26975,1.62513 -5.25492,2.56456 -5.03388,2.38218 -8.19337,6.62075 -10.6238,14.25227 -0.91904,2.88577 -0.94368,3.8632 -0.19592,7.77254 0.68283,3.56989 1.36641,5.07612 3.38968,7.46891 1.3939,1.64849 2.70787,2.99724 2.91994,2.99724 0.21207,0 1.4673,0.97949 2.78941,2.17665 3.85397,3.48973 5.75592,4.53361 9.50636,5.21753 1.93922,0.35364 3.64655,1.00465 3.79406,1.44669 0.14751,0.44204 -0.12205,0.75741 -0.59902,0.70081 -0.47697,-0.0566 -1.89043,-0.2249 -3.14104,-0.37401 z m 75.44497,-65.38978 c 0,-0.15595 -0.29268,-0.46236 -0.65041,-0.68092 -0.35773,-0.21856 -0.65041,-0.091 -0.65041,0.28354 0,0.37451 0.29268,0.68092 0.65041,0.68092 0.35773,0 0.65041,-0.12759 0.65041,-0.28354 z M 125.74546,90.065354 c 0.81602,-0.778006 -0.77843,-2.546243 -2.29598,-2.546243 -0.67166,0 -1.22119,-0.289338 -1.22119,-0.642972 0,-0.353635 0.39367,-0.642972 0.87481,-0.642972 0.48115,0 1.40456,-0.578675 2.05204,-1.285945 1.38401,-1.51183 3.3818,-1.66011 4.8362,-0.358955 1.26962,1.13585 6.9405,1.512076 7.93739,0.526594 0.91525,-0.904787 0.30047,-3.405595 -1.32507,-5.390087 -1.24454,-1.519367 -1.26629,-1.521608 -4.23005,-0.435724 -2.6944,0.987195 -3.28773,1.000886 -6.20905,0.143268 -1.77649,-0.521526 -3.40616,-1.230049 -3.62151,-1.574495 -1.01881,-1.629614 -2.68511,-0.416009 -4.46783,3.254001 -1.74804,3.598646 -1.80375,3.942974 -0.81301,5.025211 0.58499,0.639015 1.06362,1.62174 1.06362,2.183832 0,2.676248 0.7202,3.191333 3.83246,2.740974 1.64827,-0.238513 3.2625,-0.686932 3.58717,-0.996487 z m 2.98006,-2.216569 c 0.98664,-1.175229 0.41027,-2.901563 -0.96874,-2.901563 -1.19344,0 -1.924,1.519817 -1.39082,2.893375 0.47564,1.225333 1.33523,1.228317 2.35956,0.0082 z m -2.45937,87.991075 c 0.58551,-0.57881 1.52628,-0.87724 2.09061,-0.66316 1.76804,0.6707 1.11968,1.71553 -1.06456,1.71553 -1.93594,0 -2.01185,-0.0779 -1.02605,-1.05237 z m 6.69391,-0.0776 c 0.35773,-0.35363 1.82115,-0.84525 3.25205,-1.09247 1.73443,-0.29968 2.38484,-0.23519 1.95123,0.19346 -0.35772,0.35364 -1.82115,0.84525 -3.25205,1.09248 -1.73443,0.29967 -2.38484,0.23518 -1.95123,-0.19347 z m 6.82931,-2.06337 c 0,-0.3196 1.18757,-1.39553 2.63904,-2.39097 3.97486,-2.72597 8.12054,-6.71847 9.22335,-8.88256 0.54064,-1.0609 1.46839,-3.59792 2.06166,-5.63783 0.95939,-3.29879 0.97567,-4.04532 0.14715,-6.75121 -1.46903,-4.79776 -3.33218,-8.66126 -5.28088,-10.95069 -0.98872,-1.16158 -1.64565,-2.26227 -1.45984,-2.44595 0.57793,-0.57132 5.17277,3.80249 6.13881,5.8435 0.50475,1.06643 1.33041,2.66231 1.83481,3.54639 0.65824,1.15376 0.85985,3.33774 0.71434,7.73823 -0.19534,5.90756 -0.2925,6.25874 -2.66833,9.64458 -3.53801,5.04211 -4.20099,5.72016 -7.82163,7.99939 -3.78257,2.38118 -5.52848,3.10345 -5.52848,2.28712 z M 57.939295,142.49323 c 0.100508,-8.6594 -0.03019,-9.94014 -1.279455,-12.53796 -0.76527,-1.59136 -1.711522,-3.32738 -2.102784,-3.85783 -0.530282,-0.71894 -0.430228,-1.6192 0.393023,-3.53635 l 1.104406,-2.57189 0.778995,2.58536 c 0.428448,1.42195 1.311535,3.38882 1.962418,4.37084 1.062694,1.60333 1.147585,2.85799 0.832133,12.29873 -0.198317,5.93518 -0.666863,11.03155 -1.075984,11.70347 -0.551013,0.90496 -0.697866,-1.12122 -0.612752,-8.45437 z M 56.536867,125.8139 c 0,-0.50958 -0.27246,-1.09298 -0.605468,-1.29643 -0.773265,-0.47244 -1.55097,0.73155 -1.020557,1.57997 0.598088,0.95666 1.626025,0.77741 1.626025,-0.28354 z m -10.355214,17.26872 c 0.03121,-0.74903 0.185328,-0.90138 0.392956,-0.38846 0.187884,0.46414 0.164778,1.0187 -0.05135,1.23236 -0.216126,0.21365 -0.369849,-0.16611 -0.341608,-0.8439 z M 208.08243,142.8906 c 0,-0.35363 0.29269,-0.82179 0.65041,-1.04035 0.35773,-0.21855 0.65041,-0.10803 0.65041,0.2456 0,0.35363 -0.29268,0.82179 -0.65041,1.04035 -0.35772,0.21856 -0.65041,0.10804 -0.65041,-0.2456 z M 45.606691,136.70648 c 0.01326,-1.06091 0.159025,-1.41707 0.323932,-0.79148 0.164907,0.62559 0.154062,1.4936 -0.0241,1.92891 -0.178163,0.43532 -0.313087,-0.0765 -0.299832,-1.13743 z m 3.878361,-2.25041 c 0,-0.88408 0.147626,-1.24575 0.328058,-0.80371 0.180431,0.44204 0.180431,1.16539 0,1.60743 -0.180432,0.44204 -0.328058,0.0804 -0.328058,-0.80372 z m -4.460663,-6.42972 c 0,-1.94499 0.12193,-2.74066 0.270955,-1.76817 0.149025,0.9725 0.149025,2.56385 0,3.53635 -0.149025,0.97249 -0.270955,0.17681 -0.270955,-1.76818 z m 4.484763,-2.2504 c 0.01326,-1.0609 0.159024,-1.41707 0.323932,-0.79148 0.164907,0.62559 0.154062,1.49361 -0.0241,1.92892 -0.178165,0.43531 -0.313089,-0.0765 -0.299834,-1.13744 z m -3.977909,-3.91141 c 0.03121,-0.74903 0.185328,-0.90138 0.392956,-0.38846 0.187884,0.46414 0.164778,1.0187 -0.05135,1.23236 -0.216126,0.21365 -0.36985,-0.1661 -0.341608,-0.8439 z m 4.552871,-3.85783 c 0.03121,-0.74903 0.185328,-0.90139 0.392956,-0.38847 0.187885,0.46415 0.164778,1.01871 -0.05135,1.23237 -0.216126,0.21365 -0.36985,-0.16611 -0.341608,-0.8439 z m 153.496796,0 c 0.0312,-0.74903 0.18533,-0.90139 0.39295,-0.38847 0.18789,0.46415 0.16479,1.01871 -0.0513,1.23237 -0.21613,0.21365 -0.36985,-0.16611 -0.34161,-0.8439 z M 46.181653,116.72076 c 0.03121,-0.74903 0.185328,-0.90138 0.392956,-0.38846 0.187884,0.46414 0.164778,1.0187 -0.05135,1.23236 -0.216126,0.21366 -0.369849,-0.1661 -0.341608,-0.8439 z m 161.900777,0.33712 c 0,-0.37451 0.29269,-0.5021 0.65041,-0.28354 0.35773,0.21856 0.65041,0.52498 0.65041,0.68092 0,0.15595 -0.29268,0.28354 -0.65041,0.28354 -0.35772,0 -0.65041,-0.30641 -0.65041,-0.68092 z m -81.78907,-14.77045 c -1.12123,-0.44552 -1.46343,-1.10027 -1.46343,-2.800029 0,-1.220194 -0.17609,-2.672183 -0.39132,-3.226643 -0.49844,-1.284062 2.42126,-2.479556 4.34108,-1.77749 1.13286,0.414279 1.40811,1.165875 1.64157,4.482455 0.26759,3.801627 0.21282,3.982847 -1.192,3.943967 -0.80986,-0.0224 -2.13102,-0.30243 -2.9359,-0.62226 z m 2.43903,-4.480765 c 0,-2.143241 -0.2168,-2.571889 -1.30082,-2.571889 -1.08401,0 -1.30082,0.428648 -1.30082,2.571889 0,2.14324 0.21681,2.571885 1.30082,2.571885 1.08402,0 1.30082,-0.428645 1.30082,-2.571885 z m 2.43904,-6.212578 c 0.44716,-0.178368 1.17887,-0.178368 1.62603,0 0.44716,0.178369 0.0813,0.324307 -0.81301,0.324307 -0.89432,0 -1.26017,-0.145938 -0.81302,-0.324307 z m 53.75965,-12.594357 -1.23903,-1.446687 1.46343,1.224854 c 1.37525,1.151061 1.75951,1.668521 1.23902,1.668521 -0.12342,0 -0.78196,-0.65101 -1.46342,-1.446688 z M 62.390559,79.560688 c 0,-0.133517 0.512198,-0.639857 1.138217,-1.125201 1.031587,-0.799774 1.054592,-0.777032 0.245566,0.242757 -0.849676,1.07103 -1.383783,1.411632 -1.383783,0.882444 z m 7.804922,-2.007645 c 1.213524,-1.237721 2.35275,-2.250402 2.531613,-2.250402 0.178863,0 -0.667679,1.012681 -1.881203,2.250402 -1.213524,1.237722 -2.352751,2.250403 -2.531614,2.250403 -0.178863,0 0.667679,-1.012681 1.881204,-2.250403 z m -1.328003,-4.983034 c 2.695277,-2.838844 3.279233,-3.349302 3.279233,-2.866503 0,0.103188 -1.390252,1.477541 -3.089448,3.054117 l -3.089448,2.866504 2.899663,-3.054118 z M 184.66767,72.409266 c -1.57987,-1.591356 -2.72614,-2.893374 -2.54728,-2.893374 0.17886,0 1.61782,1.302018 3.19769,2.893374 1.57986,1.591356 2.72614,2.893375 2.54728,2.893375 -0.17887,0 -1.61783,-1.302019 -3.19769,-2.893375 z M 74.748352,73.052238 c 0.840164,-0.884086 1.673913,-1.60743 1.852776,-1.60743 0.178863,0 -0.362202,0.723344 -1.202366,1.60743 -0.840164,0.884087 -1.673914,1.607431 -1.852777,1.607431 -0.178863,0 0.362203,-0.723344 1.202367,-1.607431 z m 62.241258,-1.93699 c -0.59491,-1.233281 -0.94757,-2.242328 -0.78368,-2.242328 0.44505,0 2.41948,3.936861 2.12194,4.230996 -0.14113,0.139513 -0.74334,-0.755387 -1.33826,-1.988668 z m 40.44058,0.490303 c -0.80903,-1.01979 -0.78602,-1.042532 0.24557,-0.242757 1.08342,0.839959 1.42796,1.367958 0.89265,1.367958 -0.13506,0 -0.64726,-0.50634 -1.13822,-1.125201 z m -58.51367,-4.199125 c 0.86146,-0.949446 2.0322,-1.875162 2.60164,-2.057147 0.56944,-0.181986 1.53392,-1.199639 2.14331,-2.261454 0.60938,-1.061814 1.41426,-1.930571 1.78862,-1.930571 0.61958,0 -0.27408,1.226345 -2.65269,3.640198 -0.49187,0.499161 -1.91871,1.678792 -3.17075,2.621403 l -2.27643,1.713837 1.5663,-1.726266 z m 15.5866,-0.30168 c -0.80903,-1.019789 -0.78602,-1.042531 0.24557,-0.242757 0.62602,0.485344 1.13822,0.991684 1.13822,1.125201 0,0.529188 -0.53411,0.188586 -1.38379,-0.882444 z m -59.754768,0.239472 c 0,-0.133517 0.512198,-0.639857 1.138217,-1.125201 1.031587,-0.799774 1.054592,-0.777032 0.245566,0.242757 -0.849676,1.07103 -1.383783,1.411632 -1.383783,0.882444 z m 56.907278,-2.333073 c -0.64946,-0.709437 -1.06068,-1.404443 -0.91382,-1.544457 0.14686,-0.140014 0.79288,0.440435 1.4356,1.289886 1.41945,1.876012 1.10363,2.030093 -0.52178,0.254571 z m -4.38666,-3.636747 c 0.44716,-0.178368 1.17887,-0.178368 1.62603,0 0.44715,0.178369 0.0813,0.324306 -0.81302,0.324306 -0.89431,0 -1.26017,-0.145937 -0.81301,-0.324306 z m -7.76427,-8.372032 c 0.46951,-0.185736 1.03049,-0.162893 1.24662,0.05076 0.21613,0.213654 -0.16802,0.365619 -0.85366,0.337701 -0.7577,-0.03085 -0.91181,-0.183209 -0.39296,-0.388462 z m 14.30902,0 c 0.46952,-0.185736 1.03049,-0.162893 1.24663,0.05076 0.21612,0.213654 -0.16803,0.365619 -0.85367,0.337701 -0.75769,-0.03085 -0.91181,-0.183209 -0.39296,-0.388462 z m -16.73451,-4.758135 c 0.74527,-0.736739 1.52878,-1.167755 1.74115,-0.957814 0.21237,0.20994 -0.17788,0.803525 -0.86721,1.319076 -1.86974,1.398363 -2.4227,1.169785 -0.87394,-0.361262 z m 19.33615,0.900302 c 0.46952,-0.185736 1.03049,-0.162893 1.24663,0.05076 0.21612,0.213654 -0.16803,0.36562 -0.85367,0.337701 -0.75769,-0.03085 -0.91181,-0.183208 -0.39296,-0.388462 z m -2.60164,-0.642972 c 0.46952,-0.185736 1.03049,-0.162893 1.24663,0.05076 0.21612,0.213654 -0.16803,0.36562 -0.85367,0.337701 -0.75769,-0.03085 -0.91181,-0.183209 -0.39296,-0.388462 z m -3.78051,-0.846721 c 0,-0.353635 0.74899,-0.642972 1.66442,-0.642972 0.94398,0 1.49041,0.278305 1.26243,0.642972 -0.22109,0.353635 -0.97007,0.642972 -1.66441,0.642972 -0.69434,0 -1.26244,-0.289337 -1.26244,-0.642972 z"/></g><path d="m 114.13646,210.62782 c -0.6944,-0.5192 -0.96985,-0.94401 -0.61212,-0.94401 0.35772,0 1.21855,0.42481 1.91294,0.94401 0.69439,0.5192 0.96984,0.94401 0.61212,0.94401 -0.35773,0 -1.21855,-0.42481 -1.91294,-0.94401 z m 24.639,0 c 0.69439,-0.5192 1.55522,-0.94401 1.91294,-0.94401 0.35773,0 0.0823,0.42481 -0.61212,0.94401 -0.69439,0.5192 -1.55521,0.94401 -1.91294,0.94401 -0.35772,0 -0.0823,-0.42481 0.61212,-0.94401 z m 3.4936,-1.38323 c 0.46951,-0.18573 1.03049,-0.1629 1.24662,0.0507 0.21612,0.21365 -0.16803,0.36562 -0.85367,0.3377 -0.75769,-0.0309 -0.91181,-0.18321 -0.39295,-0.38845 z m -15.96676,-1.95108 c 0.98866,-0.14779 2.45208,-0.14384 3.25205,0.009 0.79997,0.15261 -0.009,0.27353 -1.79757,0.26871 -1.78863,-0.005 -2.44314,-0.1297 -1.45448,-0.27749 z m 9.75959,-0.62716 c 0.63283,-0.16302 1.51088,-0.1523 1.95123,0.0239 0.44034,0.17613 -0.0774,0.30951 -1.1506,0.29641 -1.07318,-0.0131 -1.43346,-0.15721 -0.80063,-0.32023 z m -21.44072,-0.90202 c -0.39202,-0.38754 -1.84081,-0.83581 -3.21953,-0.99616 -4.05076,-0.47111 -10.74952,-2.61199 -16.582334,-5.29961 -5.739183,-2.64449 -10.63021,-5.85905 -8.914657,-5.85905 0.551351,0 1.697554,0.59596 2.547116,1.32435 3.657457,3.13582 19.069705,8.9632 23.705865,8.9632 1.55431,0 2.42873,0.3856 2.91615,1.28595 0.77677,1.4348 0.61758,1.63927 -0.45261,0.58132 z m 28.37495,-1.14063 c 0.44819,-0.82788 1.37455,-1.36961 2.34203,-1.36961 3.67319,0 16.95988,-5.52244 23.22474,-9.65307 1.69529,-1.11776 3.45139,-1.88529 3.90247,-1.70563 0.53071,0.21138 0.44656,0.34457 -0.23845,0.37741 -0.58222,0.0279 -1.42931,0.49236 -1.88244,1.0321 -2.23801,2.66581 -19.89828,10.59216 -23.59981,10.59216 -0.80441,0 -2.14375,0.47166 -2.97629,1.04813 -1.46887,1.01707 -1.49175,1.00754 -0.77225,-0.32149 z m 30.61458,-8.04209 c 0,-0.13351 0.51219,-0.63985 1.13821,-1.1252 1.03159,-0.79978 1.0546,-0.77703 0.24557,0.24276 -0.84967,1.07103 -1.38378,1.41163 -1.38378,0.88244 z m -96.994081,-2.81136 c -0.809026,-1.01979 -0.786021,-1.04253 0.245566,-0.24276 0.626019,0.48535 1.138217,0.99169 1.138217,1.1252 0,0.52919 -0.534107,0.18859 -1.383783,-0.88244 z m 100.571331,-0.16074 c 0.64748,-0.70727 1.32357,-1.28595 1.50244,-1.28595 0.17886,0 -0.20455,0.57868 -0.85203,1.28595 -0.64748,0.70727 -1.32357,1.28594 -1.50243,1.28594 -0.17887,0 0.20454,-0.57867 0.85202,-1.28594 z m -96.178983,-2.10655 c -6.204974,-5.10392 -14.403147,-13.79432 -17.588059,-18.64408 -4.37639,-6.66405 -7.299536,-12.39961 -7.880948,-15.46337 -0.248258,-1.30819 -0.709309,-2.53612 -1.024558,-2.72873 -0.315249,-0.1926 -0.893437,-0.98508 -1.284862,-1.76106 -0.491399,-0.97418 -0.192689,-0.81383 0.965059,0.51803 0.922208,1.06091 1.84094,2.65226 2.041627,3.53635 0.633178,2.78934 4.213635,9.77136 7.817937,15.24526 4.045985,6.14468 12.471588,15.12429 15.264115,16.26777 1.063246,0.43537 1.933175,1.00357 1.933175,1.26266 0,0.2591 0.717736,1.23667 1.594969,2.1724 2.177456,2.32264 1.221822,2.112 -1.838455,-0.40523 z m -7.948438,-0.62608 -1.239023,-1.44669 1.463423,1.22486 c 1.375256,1.15106 1.759516,1.66851 1.239023,1.66851 -0.12342,0 -0.78196,-0.651 -1.463423,-1.44668 z M 184.66767,186.8583 c 1.94305,-1.94499 3.67916,-3.53634 3.85802,-3.53634 0.17887,0 -1.26456,1.59135 -3.20761,3.53634 -1.94305,1.94499 -3.67916,3.53635 -3.85803,3.53635 -0.17886,0 1.26457,-1.59136 3.20762,-3.53635 z m -5.27563,-1.47378 c 0.37804,-0.69831 2.2319,-2.83775 4.11971,-4.75434 6.28966,-6.38556 14.3355,-20.13165 15.28396,-26.11222 0.31159,-1.96477 4.08344,-7.63722 4.08344,-6.14106 0,0.25474 -0.58195,1.07555 -1.29323,1.82401 -0.71129,0.74847 -1.58485,2.88091 -1.94126,4.73876 -1.36322,7.10604 -11.14943,22.80992 -18.22442,29.24467 -1.49355,1.3584 -2.40625,1.89848 -2.0282,1.20018 z m -113.465142,-1.58034 -1.910314,-2.08966 2.113833,1.88847 c 1.162608,1.03866 2.113833,1.97901 2.113833,2.08966 0,0.49674 -0.536672,0.0594 -2.317352,-1.88847 z m 124.594462,-3.29687 c 0,-0.13352 0.5122,-0.63986 1.13822,-1.1252 1.03159,-0.79978 1.05459,-0.77704 0.24557,0.24276 -0.84968,1.07103 -1.38379,1.41163 -1.38379,0.88244 z M 60.356365,177.05298 c -0.809026,-1.0198 -0.786021,-1.04254 0.245566,-0.24276 0.62602,0.48534 1.138218,0.99168 1.138218,1.1252 0,0.52919 -0.534108,0.18859 -1.383784,-0.88244 z m 42.142825,-1.87534 c -0.62478,-0.61762 -0.53449,-2.78621 0.11599,-2.78621 0.30229,0 1.04663,0.54292 1.65411,1.2065 1.01144,1.10485 1.01545,1.24028 0.0476,1.60743 -1.30492,0.49502 -1.28868,0.49527 -1.81771,-0.0277 z m 46.39592,-0.1356 c 0,-0.31033 0.45143,-0.93461 1.00318,-1.38728 1.14423,-0.93877 2.70477,0.0591 1.95869,1.25254 -0.5206,0.83272 -2.96187,0.94378 -2.96187,0.13474 z M 84.426749,156.15638 c -0.425662,-0.79567 -1.859484,-2.67229 -3.186269,-4.17026 -2.849824,-3.21751 -6.791174,-10.53493 -6.361209,-11.81008 0.207418,-0.61513 0.564663,-0.39307 1.144572,0.71147 2.011238,3.83076 9.153529,14.01461 10.073767,14.3637 1.279909,0.48553 1.324193,2.35186 0.0558,2.35186 -0.524003,0 -1.301001,-0.65101 -1.726664,-1.44669 z m -36.293866,-5.3581 c 0.03121,-0.74903 0.185329,-0.90138 0.392957,-0.38846 0.187884,0.46414 0.164777,1.01871 -0.05135,1.23237 -0.216126,0.21365 -0.36985,-0.16611 -0.341608,-0.84391 z m 3.606259,-0.61425 c -0.627632,-1.61687 -0.442481,-2.03407 0.324252,-0.73063 0.379638,0.64538 0.553237,1.30887 0.385777,1.47442 -0.16746,0.16554 -0.486973,-0.16916 -0.710029,-0.74379 z m 117.342068,0.50709 c 0.0129,-0.26523 0.74313,-1.35024 1.6228,-2.41114 1.47526,-1.77921 1.59965,-1.82072 1.60263,-0.53482 0.005,2.23701 -0.69585,3.42819 -2.01758,3.42819 -0.67718,0 -1.22071,-0.217 -1.20785,-0.48223 z m 37.10134,-2.46472 c 0.0312,-0.74903 0.18533,-0.90139 0.39295,-0.38847 0.18789,0.46414 0.16479,1.01871 -0.0513,1.23237 -0.21613,0.21365 -0.36985,-0.16611 -0.34161,-0.8439 z m -3.25205,-1.92892 c 0.0312,-0.74903 0.18533,-0.90138 0.39295,-0.38846 0.18789,0.46414 0.16479,1.0187 -0.0513,1.23236 -0.21613,0.21365 -0.36985,-0.1661 -0.34161,-0.8439 z M 46.832063,145.65451 c 0.03121,-0.74903 0.185328,-0.90138 0.392956,-0.38847 0.187885,0.46415 0.164778,1.01871 -0.05135,1.23237 -0.216126,0.21365 -0.369849,-0.16611 -0.341608,-0.8439 z M 206.84815,145.3866 c -0.0444,-1.31906 2.41653,-6.36501 2.48245,-5.0902 0.029,0.55993 -0.16686,1.2317 -0.43515,1.49284 -0.2683,0.26113 -0.8314,1.39437 -1.25134,2.51831 -0.41994,1.12393 -0.77813,1.6095 -0.79596,1.07905 z M 50.135462,142.81471 c 0,-0.88408 0.147626,-1.24576 0.328058,-0.80371 0.180432,0.44204 0.180432,1.16538 0,1.60743 -0.180432,0.44204 -0.328058,0.0804 -0.328058,-0.80372 z m 153.445448,0.26791 c 0.0312,-0.74903 0.18533,-0.90138 0.39295,-0.38846 0.18789,0.46414 0.16479,1.0187 -0.0513,1.23236 -0.21613,0.21365 -0.36985,-0.16611 -0.34161,-0.8439 z M 46.257101,140.56431 c 0.01326,-1.0609 0.159025,-1.41707 0.323932,-0.79148 0.164907,0.62559 0.154062,1.49361 -0.0241,1.92892 -0.178163,0.43531 -0.313087,-0.0765 -0.299832,-1.13744 z M 204.44611,129.63378 c -6.5e-4,-6.01179 0.097,-8.5577 0.21724,-5.65757 0.12024,2.90012 0.12085,7.81885 0.001,10.93052 -0.11948,3.11167 -0.21785,0.73884 -0.2186,-5.27295 z m -154.936958,7.71567 c 0.01326,-1.0609 0.159024,-1.41707 0.323932,-0.79148 0.164907,0.62559 0.154062,1.4936 -0.0241,1.92892 -0.178165,0.43531 -0.313089,-0.0765 -0.299834,-1.13744 z m -3.827715,-5.78675 c 0.0036,-2.12181 0.125074,-2.9123 0.26983,-1.75666 0.144756,1.15565 0.14177,2.89167 -0.0066,3.85784 -0.148407,0.96616 -0.266844,0.0206 -0.263193,-2.10118 z m 3.177305,-3.21486 c 0.01326,-1.0609 0.159024,-1.41707 0.323932,-0.79148 0.164907,0.62559 0.154062,1.49361 -0.0241,1.92892 -0.178162,0.43531 -0.313086,-0.0765 -0.299831,-1.13744 z m -3.214825,-3.21486 c 0.0072,-1.41454 0.140414,-1.9175 0.295987,-1.1177 0.155574,0.79979 0.149667,1.95714 -0.01313,2.57188 -0.162792,0.61474 -0.29008,-0.0396 -0.282861,-1.45418 z m 9.266925,0.96446 c -0.530413,-0.84842 0.247292,-2.05241 1.020557,-1.57997 0.789999,0.48266 0.784866,2.22294 -0.0066,2.22294 -0.336614,0 -0.792913,-0.28934 -1.014,-0.64297 z m 60.348878,-1.20815 c -4.30274,-3.11038 -5.07734,-5.08252 -4.98546,-12.69315 0.0432,-3.57892 0.58763,-8.76915 1.20984,-11.53385 0.63831,-2.836283 0.97657,-6.164728 0.77625,-7.638265 -0.23663,-1.740624 -0.0436,-3.027762 0.57878,-3.859632 1.29669,-1.733065 1.17101,-2.824107 -0.52959,-4.597666 -1.89608,-1.977422 -3.58018,-1.95538 -4.50862,0.05901 -0.83772,1.817585 -1.69611,2.064936 -2.2464,0.647317 -0.20929,-0.539171 0.44126,-1.931088 1.48384,-3.174786 1.4652,-1.747854 2.29799,-2.195692 3.95093,-2.124626 2.88886,0.124202 5.38531,-2.251682 5.38531,-5.12522 0,-3.019826 1.50193,-6.242 3.57223,-7.663709 1.73506,-1.191496 2.43932,-1.851416 4.78487,-4.483667 1.60985,-1.80662 5.1478,-1.384221 5.95354,0.710798 0.30715,0.798651 1.46493,2.09017 2.57283,2.870043 2.50926,1.766315 5.23048,6.950123 5.23048,9.963835 0,2.420478 -0.55717,2.74178 -2.58431,1.490289 -0.99347,-0.613336 -1.73624,-0.613336 -3.45201,0 -3.25395,1.163188 -5.69669,0.923766 -8.59791,-0.842714 -1.4309,-0.871239 -2.96155,-1.585552 -3.40144,-1.587364 -0.43988,-0.0018 -1.43134,1.22639 -2.20322,2.729337 -0.7719,1.502948 -1.94859,3.42266 -2.61487,4.26603 -1.48603,1.880997 -1.56335,3.83872 -0.17244,4.366358 0.57144,0.216774 1.58543,1.654381 2.25333,3.194682 0.66788,1.5403 1.59472,2.800546 2.05964,2.800546 0.46492,0 2.41488,-0.567136 4.33324,-1.260303 3.18532,-1.150962 3.65323,-1.175799 5.39326,-0.286283 1.07488,0.549482 3.08407,0.888615 4.60971,0.778074 2.47948,-0.179652 2.7405,-0.371915 3.13879,-2.311939 0.23893,-1.163797 0.90796,-2.633266 1.48674,-3.265489 0.57876,-0.632222 1.05231,-2.049984 1.05231,-3.150581 0,-2.339571 0.11219,-2.430379 3.73456,-3.022898 2.497,-0.40844 2.81411,-0.308653 3.34001,1.051033 0.31958,0.826275 1.19312,2.047328 1.94119,2.713451 1.43024,1.27357 1.30649,2.325214 -0.27361,2.325214 -0.51548,0 -0.93723,-0.587756 -0.93723,-1.306124 0,-1.977667 -1.80045,-2.272923 -3.61035,-0.592059 -1.05508,0.979863 -1.59293,2.183278 -1.59293,3.564111 0,2.407119 1.12833,3.095679 2.76424,1.686866 0.68329,-0.588436 1.13822,-0.692437 1.13822,-0.260208 0,0.396001 -0.54523,1.008462 -1.21162,1.361024 -0.66639,0.352562 -1.58373,1.529116 -2.03854,2.614565 -0.71477,1.705875 -0.59455,3.009816 0.88641,9.61409 2.90573,12.95795 2.1996,18.2007 -2.9521,21.91825 -2.70759,1.95385 -2.97454,2.01259 -7.04194,1.54941 -5.16089,-0.5877 -5.67636,-0.58723 -11.38218,0.0106 -4.40475,0.46147 -4.64204,0.41253 -7.29378,-1.50437 z m -0.47459,-14.07989 c -0.54282,-0.5366 -1.66217,0.59702 -1.6419,1.66283 0.0181,0.95459 0.13639,0.93607 0.9689,-0.15176 0.52152,-0.68145 0.82436,-1.36143 0.673,-1.51107 z m 28.25629,0.14025 c 0,-0.55133 -0.29746,-0.82067 -0.66102,-0.59855 -0.36356,0.22213 -0.49263,0.67321 -0.28682,1.00241 0.55755,0.89183 0.94784,0.72553 0.94784,-0.40386 z M 130.42126,98.965723 c -0.23346,-3.31658 -0.50871,-4.068176 -1.64157,-4.482455 -1.91982,-0.702066 -4.83952,0.493428 -4.34108,1.77749 0.21523,0.55446 0.39132,2.006449 0.39132,3.226643 0,2.343799 1.27524,3.335819 4.39933,3.422289 1.40482,0.0389 1.45959,-0.14234 1.192,-3.943967 z m -1.68887,-6.945807 c 0,-0.353635 -0.43902,-0.642972 -0.97561,-0.642972 -0.53659,0 -0.97562,0.289337 -0.97562,0.642972 0,0.353634 0.43903,0.642972 0.97562,0.642972 0.53659,0 0.97561,-0.289338 0.97561,-0.642972 z M 116.3746,90.090999 c 0,-0.353634 -0.29268,-0.642972 -0.65041,-0.642972 -0.35772,0 -0.65041,0.289338 -0.65041,0.642972 0,0.353635 0.29269,0.642972 0.65041,0.642972 0.35773,0 0.65041,-0.289337 0.65041,-0.642972 z m 24.06518,-1.32389 c 0,-1.387615 -1.0334,-1.698669 -1.47602,-0.444283 -0.39672,1.124324 0.19317,2.476054 0.89376,2.04802 0.32024,-0.195657 0.58226,-0.917338 0.58226,-1.603737 z M 137.2609,74.474814 c -0.53117,-0.525094 -0.72358,-0.453141 -0.72358,0.270584 0,1.278137 0.8746,2.142743 1.19784,1.184141 0.13712,-0.40668 -0.0763,-1.061306 -0.47426,-1.454725 z m -7.8781,-11.486491 c 0,-0.299818 -0.87805,-0.545124 -1.95123,-0.545124 -1.07317,0 -1.95123,0.269986 -1.95123,0.599968 0,0.329982 0.87806,0.575288 1.95123,0.545124 1.07318,-0.03016 1.95123,-0.300149 1.95123,-0.599968 z M 49.533253,122.2396 c 0,-1.23772 0.133851,-1.74406 0.297447,-1.1252 0.163596,0.61886 0.163596,1.63155 0,2.25041 -0.163596,0.61886 -0.297447,0.11252 -0.297447,-1.12521 z m -3.276152,-2.89337 c 0.01326,-1.0609 0.159025,-1.41707 0.323932,-0.79148 0.164907,0.62559 0.154062,1.49361 -0.0241,1.92892 -0.178163,0.43531 -0.313087,-0.0765 -0.299832,-1.13744 z m 3.827013,-3.26844 c 0.03121,-0.74903 0.185328,-0.90138 0.392956,-0.38846 0.187885,0.46414 0.164778,1.0187 -0.05135,1.23236 -0.216126,0.21365 -0.36985,-0.1661 -0.341608,-0.8439 z m 157.103056,0.0287 c -0.22306,-0.57462 -0.38701,-1.38278 -0.36433,-1.7959 0.0227,-0.41312 0.32165,-0.0581 0.66438,0.7889 0.34274,0.84702 0.50669,1.65518 0.36433,1.79591 -0.14235,0.14073 -0.44133,-0.21428 -0.66438,-0.78891 z M 46.832063,114.14887 c 0.03121,-0.74903 0.185328,-0.90138 0.392956,-0.38846 0.187885,0.46414 0.164778,1.01871 -0.05135,1.23237 -0.216126,0.21365 -0.369849,-0.16611 -0.341608,-0.84391 z m 159.350487,-2.57188 c 0.0312,-0.74903 0.18533,-0.90139 0.39295,-0.38847 0.18789,0.46414 0.16479,1.01871 -0.0513,1.23237 -0.21613,0.21365 -0.36985,-0.16611 -0.34161,-0.8439 z m -12.40914,-0.94883 c 0,-0.3745 0.29268,-0.5021 0.65041,-0.28354 0.35773,0.21856 0.65041,0.52497 0.65041,0.68092 0,0.15595 -0.29268,0.28354 -0.65041,0.28354 -0.35773,0 -0.65041,-0.30641 -0.65041,-0.68092 z m 4.91989,-10.06113 c -0.35296,-0.916366 -0.27826,-0.990221 0.3641,-0.35994 0.4445,0.43615 0.64434,0.95497 0.44409,1.15293 -0.20026,0.19797 -0.56394,-0.15888 -0.80819,-0.79299 z M 126.36596,87.840597 c -0.53318,-1.373558 0.19738,-2.893375 1.39082,-2.893375 1.37901,0 1.95538,1.726334 0.96874,2.901563 -1.02433,1.220129 -1.88392,1.217145 -2.35956,-0.0082 z M 63.691379,84.704465 c 0,-0.133517 0.512198,-0.639857 1.138218,-1.125201 1.031587,-0.799774 1.054592,-0.777033 0.245565,0.242757 -0.849675,1.07103 -1.383783,1.411632 -1.383783,0.882444 z m 2.926846,-3.615075 c 0.647474,-0.70727 1.323568,-1.285944 1.502431,-1.285944 0.178863,0 -0.204547,0.578674 -0.852021,1.285944 -0.647474,0.707269 -1.323569,1.285944 -1.502431,1.285944 -0.178863,0 0.204546,-0.578675 0.852021,-1.285944 z m 120.568115,0.160743 c -0.80902,-1.01979 -0.78602,-1.042532 0.24557,-0.242758 1.08342,0.839959 1.42796,1.367959 0.89265,1.367959 -0.13506,0 -0.64726,-0.506341 -1.13822,-1.125201 z m 3.90246,-1.285944 c -0.80902,-1.01979 -0.78602,-1.042532 0.24557,-0.242758 1.08342,0.839959 1.42796,1.367959 0.89265,1.367959 -0.13506,0 -0.64725,-0.506341 -1.13822,-1.125201 z m -2.5679,-3.214861 -1.5768,-1.768173 1.78863,1.558766 c 1.67174,1.456902 2.0869,1.97758 1.5768,1.97758 -0.1165,0 -0.92139,-0.795678 -1.78863,-1.768173 z M 66.29302,75.624127 c 1.213524,-1.237721 2.35275,-2.250403 2.531613,-2.250403 0.178863,0 -0.667679,1.012682 -1.881203,2.250403 -1.213524,1.237721 -2.352751,2.250402 -2.531614,2.250402 -0.178863,0 0.667679,-1.012681 1.881204,-2.250402 z m 115.1226,-0.642972 c -1.57987,-1.591356 -2.72614,-2.893375 -2.54728,-2.893375 0.17886,0 1.61782,1.302019 3.19769,2.893375 1.57986,1.591356 2.72614,2.893374 2.54728,2.893374 -0.17887,0 -1.61783,-1.302018 -3.19769,-2.893374 z m -111.220139,2.04921 c 0,-0.110655 0.951224,-1.051002 2.113833,-2.089659 l 2.113833,-1.888468 -1.910314,2.08966 c -1.780681,1.947855 -2.317352,2.385203 -2.317352,1.888467 z m 1.95123,-7.192987 c 1.213524,-1.237721 2.352751,-2.250403 2.531614,-2.250403 0.178862,0 -0.66768,1.012682 -1.881204,2.250403 -1.213524,1.237721 -2.352751,2.250402 -2.531613,2.250402 -0.178863,0 0.667679,-1.012681 1.881203,-2.250402 z m 5.528486,0.321486 c 0.647475,-0.707269 1.323569,-1.285944 1.502432,-1.285944 0.178862,0 -0.204547,0.578675 -0.852021,1.285944 -0.647475,0.707269 -1.323569,1.285944 -1.502432,1.285944 -0.178862,0 0.204547,-0.578675 0.852021,-1.285944 z m 103.055003,-1.125201 -2.24143,-2.411146 2.43904,2.21579 c 1.34147,1.218684 2.43904,2.303699 2.43904,2.411145 0,0.490986 -0.55039,0.02845 -2.63665,-2.215789 z m -5.25124,0.642972 c -0.80903,-1.01979 -0.78602,-1.042532 0.24557,-0.242757 1.08342,0.839958 1.42796,1.367958 0.89265,1.367958 -0.13506,0 -0.64726,-0.50634 -1.13822,-1.125201 z m 0.65041,-4.500805 c -0.80903,-1.01979 -0.78602,-1.042532 0.24557,-0.242757 1.08342,0.839959 1.42796,1.367958 0.89265,1.367958 -0.13506,0 -0.64726,-0.50634 -1.13822,-1.125201 z m -11.94502,-7.226072 c -0.22786,-0.364475 0.0332,-0.472267 0.61203,-0.252695 1.12678,0.427442 1.33294,0.888303 0.39737,0.888303 -0.33661,0 -0.79085,-0.286024 -1.0094,-0.635608 z M 92.135983,56.576665 c 0.441195,-0.439419 0.966016,-0.636974 1.166269,-0.439012 0.200253,0.197963 -0.160725,0.557488 -0.802173,0.798944 -0.926963,0.348931 -1.001672,0.275077 -0.364096,-0.359932 z m 4.075904,-1.849132 c 0.536588,-0.342804 1.2683,-0.62328 1.626025,-0.62328 0.357726,0 0.211384,0.280476 -0.325205,0.62328 -0.536588,0.342805 -1.2683,0.623281 -1.626025,0.623281 -0.357726,0 -0.211384,-0.280476 0.325205,-0.623281 z M 143.56988,54.28831 c 0.46951,-0.185736 1.03049,-0.162893 1.24662,0.05076 0.21612,0.213654 -0.16803,0.36562 -0.85367,0.337702 -0.75769,-0.03085 -0.91181,-0.18321 -0.39295,-0.388463 z M 113.0006,53.645338 c 0.46951,-0.185736 1.03049,-0.162893 1.24662,0.05076 0.21613,0.213654 -0.16803,0.36562 -0.85366,0.337701 -0.7577,-0.03085 -0.91181,-0.183209 -0.39296,-0.388462 z m 26.66682,0 c 0.46951,-0.185736 1.03049,-0.162893 1.24662,0.05076 0.21612,0.213654 -0.16803,0.36562 -0.85367,0.337701 -0.75769,-0.03085 -0.91181,-0.183209 -0.39295,-0.388462 z m -22.80501,-0.629577 c 0.44716,-0.178368 1.17887,-0.178368 1.62602,0 0.44716,0.178368 0.0813,0.324306 -0.81301,0.324306 -0.89431,0 -1.26017,-0.145938 -0.81301,-0.324306 z m 18.90254,-0.01339 c 0.46952,-0.185736 1.03049,-0.162893 1.24663,0.05076 0.21612,0.213654 -0.16803,0.36562 -0.85367,0.337701 -0.75769,-0.03085 -0.91181,-0.183209 -0.39296,-0.388462 z m -12.07323,-0.676359 c 1.69919,-0.132451 4.4797,-0.132451 6.17889,0 1.6992,0.132452 0.30895,0.240821 -3.08945,0.240821 -3.39839,0 -4.78864,-0.108369 -3.08944,-0.240821 z m -12.683,-1.882134 c 0.44715,-0.178369 1.17887,-0.178369 1.62602,0 0.44716,0.178368 0.0813,0.324306 -0.81301,0.324306 -0.89431,0 -1.26017,-0.145938 -0.81301,-0.324306 z m 31.26034,-0.0134 c 0.46951,-0.185736 1.03049,-0.162894 1.24662,0.05076 0.21612,0.213655 -0.16803,0.36562 -0.85367,0.337702 -0.75769,-0.03085 -0.91181,-0.183209 -0.39295,-0.388463 z m -27.31723,-0.642973 c 0.46951,-0.185735 1.03049,-0.162893 1.24662,0.05076 0.21613,0.213655 -0.16803,0.36562 -0.85366,0.337702 -0.7577,-0.03085 -0.91181,-0.183209 -0.39296,-0.388463 z m 22.7237,0.0134 c 0.44716,-0.178369 1.17887,-0.178369 1.62603,0 0.44716,0.178368 0.0813,0.324306 -0.81301,0.324306 -0.89432,0 -1.26017,-0.145938 -0.81302,-0.324306 z M 118.04119,48.47999 c 1.09819,-1.058922 2.30692,-1.313807 6.66671,-1.405812 2.92892,-0.06181 5.32531,0.139731 5.32531,0.447865 0,0.308135 1.39026,0.879308 3.08945,1.269273 l 3.08945,0.709027 -3.90246,-0.438688 c -5.43012,-0.610416 -12.75515,-0.537456 -14.30902,0.142524 -1.26531,0.553703 -1.26421,0.533933 0.0406,-0.724189 z" style="fill:#ffa07a"/><g style="fill:#ff4500;stroke:#ff4500"><path d="m 115.47605,210.65585 c -0.67306,-0.50379 -2.86819,-1.24115 -4.87807,-1.6386 C 83.889544,203.73577 61.625438,185.10934 51.254919,159.3701 45.593826,145.31948 44.476626,123.40733 48.668401,108.63957 51.304815,99.351404 56.020471,89.475057 61.362278,82.053848 64.910466,77.12446 75.051684,67.341806 80.408698,63.680856 89.359338,57.564044 103.7134,51.73805 112.79735,50.53503 c 1.78862,-0.236875 4.23902,-0.837152 5.44531,-1.333949 2.93882,-1.210317 5.73743,-1.14199 16.94074,0.413596 19.66854,2.730987 32.93256,8.448754 45.90701,19.78929 12.4964,10.922678 22.01623,26.841906 25.05961,41.905113 0.87809,4.34612 1.90421,7.07269 2.66173,7.07269 0.31433,0 0.5715,4.64377 0.5715,10.31949 0,7.93228 -0.22652,10.75252 -0.97923,12.19147 -0.53859,1.02959 -1.42274,3.98093 -1.96478,6.55853 -1.5042,7.15296 -3.40662,12.42617 -6.99704,19.3947 -10.94088,21.23479 -31.58647,37.04139 -54.76019,41.92528 -2.49608,0.52606 -5.19311,1.38059 -5.99342,1.89897 -2.06885,1.34006 -21.41902,1.32809 -23.21254,-0.0143 z m 19.34202,-3.55046 c 4.43959,-0.42682 7.06313,-1.01483 8.5321,-1.91233 1.16667,-0.7128 2.73679,-1.296 3.48915,-1.296 3.37718,0 21.89896,-8.21591 23.19492,-10.28883 0.20806,-0.3328 1.64366,-1.15842 3.19024,-1.83472 1.54657,-0.67629 3.65641,-2.32825 4.68853,-3.67103 1.03212,-1.34276 2.8648,-3.32937 4.07262,-4.41467 6.43986,-5.78664 16.34869,-21.91779 17.65903,-28.74814 0.35641,-1.85785 1.23463,-3.99519 1.95161,-4.74966 3.044,-3.20312 4.41047,-24.20058 2.24512,-34.49883 -7.00889,-33.333802 -32.57691,-57.412627 -66.40607,-62.538298 -8.6611,-1.312298 -13.53523,-1.257931 -22.4609,0.250538 -12.31708,2.08163 -21.239771,5.625675 -31.341149,12.448538 -23.079749,15.588963 -36.347714,42.510562 -34.191885,69.377652 0.320561,3.99499 0.91132,8.85497 1.312798,10.79996 0.731296,3.54282 2.64903,7.95771 3.748426,8.6294 0.322285,0.19691 0.789092,1.42835 1.03735,2.73654 1.17984,6.21717 9.357474,18.80698 17.14399,26.3939 6.291182,6.12991 10.654225,9.8201 11.610663,9.8201 0.334168,0 1.615666,0.75464 2.847772,1.67697 4.818448,3.60699 17.957705,8.75028 24.203265,9.47423 1.34792,0.15624 2.92816,0.67685 3.51164,1.15691 0.90293,0.74286 5.13224,1.35177 11.92387,1.71672 0.89432,0.048 4.51092,-0.18997 8.03691,-0.52895 z m -21.67484,-94.63316 c -0.0114,-0.59799 0.29148,-1.27798 0.673,-1.51108 1.1464,-0.70041 1.30713,0.038 0.2959,1.35932 -0.83251,1.08783 -0.95073,1.10635 -0.9689,0.15176 z m 28.95035,-1.11872 c -0.20581,-0.3292 -0.0767,-0.78028 0.28682,-1.00241 0.36356,-0.22212 0.66102,0.0472 0.66102,0.59855 0,1.12939 -0.39029,1.29569 -0.94784,0.40386 z M 126.78116,92.019916 c 0,-0.353635 0.43903,-0.642972 0.97562,-0.642972 0.53659,0 0.97561,0.289337 0.97561,0.642972 0,0.353634 -0.43902,0.642972 -0.97561,0.642972 -0.53659,0 -0.97562,-0.289338 -0.97562,-0.642972 z m -11.70738,-1.928917 c 0,-0.353634 0.29269,-0.642972 0.65041,-0.642972 0.35773,0 0.65041,0.289338 0.65041,0.642972 0,0.353635 -0.29268,0.642972 -0.65041,0.642972 -0.35772,0 -0.65041,-0.289337 -0.65041,-0.642972 z m 23.90393,-0.164436 c -0.3867,-1.039759 0.10519,-2.407452 0.86586,-2.407452 0.76789,0 0.77955,2.383978 0.014,2.851735 -0.32024,0.195657 -0.71615,-0.0042 -0.8798,-0.444283 z m -1.96613,-13.72644 c -0.26085,-0.257859 -0.47426,-0.912485 -0.47426,-1.454725 0,-0.723725 0.19241,-0.795678 0.72358,-0.270584 0.39796,0.393419 0.61138,1.048045 0.47426,1.454725 -0.13714,0.406679 -0.46274,0.528442 -0.72358,0.270584 z M 125.48034,63.043167 c 0,-0.329982 0.87806,-0.599968 1.95123,-0.599968 1.07318,0 1.95123,0.245306 1.95123,0.545124 0,0.299819 -0.87805,0.569805 -1.95123,0.599968 -1.07317,0.03016 -1.95123,-0.215142 -1.95123,-0.545124 z"/><path d="m 120.04749 175.22118 c -1.89384 -0.2307 -3.87996 -0.90658 -6.19092 -2.10677 -2.90725 -1.50987 -6.96277 -4.29656 -8.1917 -5.62879 -1.06868 -1.15851 -1.15221 -3.24794 -0.16764 -4.19326 l 0.36941 -0.35468 l -1.17475 0.1071 c -0.94328 0.086 -1.29007 0.0486 -1.76007 -0.18964 -1.25645 -0.637 -2.09618 -3.51228 -2.09618 -7.1774 0 -4.23031 1.30661 -8.31735 3.83412 -11.99299 2.98108 -4.33526 7.9142 -7.17968 15.04209 -8.67323 1.99903 -0.41887 8.59642 -0.43086 10.91034 -0.0198 2.12366 0.37723 4.21609 0.99367 6.45161 1.9007 5.66971 2.30038 9.07066 5.48421 11.69168 10.94524 1.24518 2.59442 1.38419 3.30622 1.26894 6.49754 -0.10642 2.94662 -0.40931 4.9417 -1.06686 7.02725 -0.82511 2.61705 -1.79806 4.13436 -2.87139 4.47794 -0.82127 0.2629 -1.25322 0.67117 -2.22274 2.10094 -1.47395 2.17365 -4.60504 4.4417 -7.98595 5.78474 -2.91802 1.15917 -5.23829 1.5083 -10.55364 1.58804 -2.21523 0.0332 -4.59409 -0.009 -5.28635 -0.0929 z m 4.83146 -1.1744 c 1.86173 -0.20009 3.25748 -0.55365 3.62111 -0.91728 0.13746 -0.13746 0.3021 -0.66748 0.36586 -1.17781 0.20123 -1.61053 1.25414 -2.6525 2.68036 -2.6525 0.99051 0 1.68941 0.32072 2.7631 1.26795 1.15247 1.01676 1.92707 1.27596 2.97528 0.9956 0.8844 -0.23654 2.17648 -1.06536 3.19937 -2.05226 1.12817 -1.08848 1.21944 -1.37146 1.17093 -3.63036 -0.0363 -1.69109 0.004 -2.05524 0.27393 -2.50184 0.5706 -0.94249 1.11304 -1.13275 2.87622 -1.00881 0.85366 0.06 1.67719 0.0611 1.83006 0.002 0.59771 -0.22937 1.60621 -3.0769 1.60621 -4.53522 0 -1.08678 -0.31647 -1.50173 -1.57649 -2.06706 -1.42957 -0.6414 -2.11557 -1.45006 -2.11557 -2.4938 0 -1.05437 0.29869 -1.43455 1.66937 -2.12481 1.18517 -0.59684 1.3514 -0.79472 1.3514 -1.60864 0 -0.98854 -1.3852 -4.09793 -2.13525 -4.79305 -0.53288 -0.49386 -1.31984 -0.52024 -2.47982 -0.0831 -1.24835 0.4704 -2.14429 0.57173 -3.17082 0.35862 -1.18926 -0.24689 -1.77989 -0.70458 -1.77989 -1.37927 0 -0.28166 0.27112 -1.11259 0.60249 -1.8465 0.53583 -1.18673 0.58029 -1.38798 0.40185 -1.81878 -0.40824 -0.98558 -2.24692 -1.92083 -5.95299 -3.02799 -1.87651 -0.5606 -2.9405 -0.66908 -3.33678 -0.34019 -0.14661 0.12167 -0.31735 0.60974 -0.37941 1.08458 -0.20856 1.59558 -1.72899 2.59818 -3.65889 2.41274 -1.07119 -0.10293 -1.45176 -0.53587 -1.95186 -2.22047 -0.60207 -2.02808 -0.77496 -2.06944 -4.90942 -1.17448 -4.06446 0.87981 -4.37108 1.07181 -4.12208 2.58113 0.25321 1.5349 0.1724 3.24979 -0.18042 3.82842 -0.44325 0.72696 -1.40938 1.02608 -2.37739 0.73606 -0.70611 -0.21156 -0.98404 -0.44817 -1.96086 -1.66943 -0.70333 -0.87932 -1.10041 -0.88701 -2.16939 -0.042 -1.40818 1.1131 -3.90464 4.36938 -3.90464 5.09305 0 0.33525 0.3201 0.68039 1.57898 1.70248 1.04106 0.84525 1.44038 1.51829 1.44117 2.42901 0.00085 1.00208 -0.73303 1.73934 -2.10882 2.11851 -1.78745 0.49262 -2.15631 0.67539 -2.56109 1.26903 -0.34851 0.51112 -0.38754 0.72626 -0.32277 1.77935 0.12308 2.00098 0.78029 2.69934 3.23119 3.43349 3.40795 1.02082 4.44363 2.55545 3.00051 4.44604 -1.14884 1.50505 -1.23765 2.15712 -0.44002 3.23053 0.89377 1.2028 3.76848 2.96691 5.14136 3.15508 0.90836 0.12451 1.34133 -0.23481 1.50327 -1.24754 0.13613 -0.85127 0.60347 -1.20943 1.57813 -1.20943 0.91825 0 1.82148 0.37565 2.51338 1.04529 0.60914 0.58955 0.80705 1.10903 0.97018 2.54654 0.0618 0.54484 0.1911 1.1633 0.28727 1.37437 0.4019 0.88208 1.73626 1.07904 4.96169 0.73238 z m 7.6592 -1.9346 c 0.32985 -0.32985 0.3287 -0.39324 -0.014 -0.77194 -0.34607 -0.38241 -1.18968 -0.39781 -1.59703 -0.0292 -0.16879 0.15275 -0.3069 0.33616 -0.3069 0.40756 0 0.31209 0.57288 0.65726 1.09084 0.65726 0.30986 0 0.68207 -0.11867 0.82711 -0.26372 h 0.00001 z" transform="translate(1.9041489 -1.904149)" style="fill-rule:evenodd;stroke-width:0.91865075"/></g><g style="fill:#fff;fill-rule:evenodd"><g transform="translate(1.9041489 -1.904149)" style="stroke-width:0.91865075"><path d="m 121.47397,173.57084 c -0.36921,-0.0637 -0.75776,-0.16942 -0.86345,-0.23487 -0.10568,-0.0654 -0.31889,-0.80861 -0.47378,-1.65146 -0.1549,-0.84285 -0.43661,-1.7684 -0.62602,-2.05678 -0.80007,-1.21809 -2.21669,-1.88363 -3.70496,-1.74062 -0.99694,0.0958 -1.49083,0.52923 -1.76313,1.54733 -0.19242,0.71943 -0.23471,0.75979 -0.79602,0.75979 -1.54877,0 -5.28908,-2.68639 -5.27942,-3.79181 0.002,-0.17589 0.34138,-0.88275 0.7552,-1.5708 0.5693,-0.94658 0.75239,-1.42038 0.75239,-1.94707 0,-1.41133 -1.22037,-2.49102 -3.85581,-3.41131 -0.85736,-0.29939 -1.74151,-0.66404 -1.96478,-0.81033 -0.61335,-0.40188 -0.92274,-1.15644 -0.95082,-2.31895 -0.0327,-1.35344 0.19757,-1.61002 1.96595,-2.19057 2.11488,-0.6943 2.95944,-1.50365 2.95944,-2.83605 0,-0.98866 -0.39236,-1.63928 -1.72524,-2.86091 l -1.26575,-1.16009 0.26271,-0.50828 c 0.78248,-1.51395 3.59758,-4.61989 4.18728,-4.61989 0.17543,0 0.74188,0.44811 1.25878,0.99581 1.0468,1.10919 1.87626,1.45761 3.01285,1.26559 1.58384,-0.26759 2.09903,-1.40452 1.93506,-4.27034 l -0.10404,-1.81839 0.68364,-0.27353 c 1.57281,-0.62932 6.04201,-1.48415 6.6168,-1.26562 0.27221,0.10349 0.47841,0.45629 0.75173,1.28611 0.64545,1.95968 1.33296,2.56998 2.89508,2.56998 1.73728,0 3.26315,-1.06805 3.64269,-2.54975 0.32033,-1.25052 0.25873,-1.19585 1.20575,-1.07022 0.97051,0.12874 3.5678,0.92508 5.08447,1.55892 1.30552,0.54559 2.43736,1.33134 2.43659,1.69152 -3.4e-4,0.15709 -0.2243,0.85202 -0.49769,1.54428 -0.6742,1.70718 -0.66156,2.24953 0.0685,2.93806 0.44206,0.41692 0.8346,0.59288 1.67734,0.7519 1.17978,0.2226 1.73622,0.16596 3.46343,-0.35259 1.6223,-0.48704 1.80716,-0.37344 2.81949,1.73271 0.83917,1.74589 1.12651,2.73816 0.89739,3.09898 -0.069,0.10867 -0.57617,0.45099 -1.12705,0.76071 -1.18163,0.66436 -1.76271,1.43183 -1.76271,2.32811 0,1.33651 0.61817,2.17148 2.31014,3.12031 0.57831,0.32431 1.13311,0.74217 1.23288,0.92859 0.29589,0.55288 -0.0303,2.29613 -0.72034,3.84927 l -0.34639,0.77969 -1.86747,0.0637 c -2.06504,0.0704 -2.52411,0.24862 -3.10548,1.20529 -0.25858,0.42551 -0.33373,0.9367 -0.387,2.63246 -0.0776,2.47019 -0.25417,2.88137 -1.72461,4.0158 -1.26944,0.97937 -2.05816,1.34782 -2.88521,1.34782 -0.59523,0 -0.88901,-0.13746 -1.82173,-0.85234 -1.38765,-1.06358 -2.07186,-1.35331 -3.19589,-1.35331 -1.61692,0 -2.77499,1.02311 -3.1359,2.77045 -0.13902,0.67307 -0.31828,1.06242 -0.56296,1.22274 -0.72233,0.47329 -5.02576,0.98059 -6.36193,0.74996 z m 7.32668,-8.90313 c 2.97649,-0.93541 4.52009,-3.2418 4.78125,-7.14394 0.39005,-5.82783 -2.53291,-8.96386 -8.36566,-8.9755 -2.75034,-0.005 -4.69226,0.70743 -6.31224,2.31737 -2.25352,2.23955 -2.87974,5.04287 -1.864,8.34441 0.93284,3.0321 2.98725,5.30525 5.2265,5.783 1.27144,0.27126 5.26913,0.0722 6.53415,-0.32534 l 0,0 z" style="stroke:#dc143c"/><g style="stroke:#fff"><path d="m 128.9094,93.097594 c -0.91904,-0.247419 -1.23673,-0.479396 -1.58873,-1.16008 -0.23698,-0.458265 -0.23174,-0.529849 0.0684,-0.935237 0.71517,-0.965782 1.69485,-1.400078 3.85437,-1.708655 2.04326,-0.291963 3.23687,0.26535 3.23632,1.511087 -7.2e-4,1.646643 -1.21287,2.534943 -3.43366,2.516295 -0.74193,-0.0062 -1.70347,-0.106764 -2.13675,-0.22341 z"/><path d="m 117.42447 92.831097 c -0.22108 -0.08926 -0.46116 -0.448727 -0.62932 -0.942272 -0.67091 -1.968994 -0.29556 -2.298151 2.63413 -2.309972 1.15445 -0.0047 2.3519 0.08191 2.75029 0.198821 1.29105 0.378874 2.0316 1.306406 1.59348 1.995806 -0.4823 0.75892 -5.15882 1.537988 -6.34858 1.057617 z"/></g></g><path d="m 126.63285 101.32556 c -0.81498 -0.46209 -1.07246 -2.922079 -0.52265 -4.993246 0.16362 -0.616326 1.03881 -0.941279 2.11389 -0.784886 0.74581 0.108492 0.93051 0.250149 1.1594 0.889271 0.34786 0.971156 0.35074 3.204019 0.005 4.168071 -0.34566 0.96496 -1.70048 1.31929 -2.75604 0.72079 z" style="stroke:#fff;stroke-width:1.27329183"/></g></g></svg>