<svg xmlns="http://www.w3.org/2000/svg" xmlns:xlink="http://www.w3.org/1999/xlink" viewBox="0 0 256 256"><defs><clipPath><path transform="matrix(15.33333 0 0 11.5 415 -125.5)" d="m -24 13 c 0 1.105 -0.672 2 -1.5 2 -0.828 0 -1.5 -0.895 -1.5 -2 0 -1.105 0.672 -2 1.5 -2 0.828 0 1.5 0.895 1.5 2 z" fill="#1890d0"/></clipPath><clipPath id="0"><path fill="#1890d0" transform="matrix(15.33333 0 0 11.5 415 -125.5)" d="m -24 13 c 0 1.105 -0.672 2 -1.5 2 -0.828 0 -1.5 -0.895 -1.5 -2 0 -1.105 0.672 -2 1.5 -2 0.828 0 1.5 0.895 1.5 2 z"/></clipPath><clipPath id="1"><path fill="#1890d0" transform="matrix(15.33333 0 0 11.5 415 -125.5)" d="m -24 13 c 0 1.105 -0.672 2 -1.5 2 -0.828 0 -1.5 -0.895 -1.5 -2 0 -1.105 0.672 -2 1.5 -2 0.828 0 1.5 0.895 1.5 2 z"/></clipPath></defs><g transform="translate(0 -796.36)"><path d="m 60.17 822.74 c 130.93 -92.05 263.6 77.948 156.91 186.39 -100.51 102.17 -256.68 7.449 -207.86 -119.69 10.185 -26.526 26.914 -49.802 50.948 -66.7 z" fill="#fff" color="#fff"/><g transform="matrix(6.6802 0 0 6.76151 -35.19 770.39)" fill="#ff4500"><g clip-path="url(#1)"><g opacity="0.1" transform="translate(1 1)"><path d="m 23 33 1 0 0 3 -1 0 m 0 -3" id="2"/><path d="m 25 33 1 0 0 3 -1 0 m 0 -3" id="3"/><path d="m 23 27 0 2 -1 0 0 4 5 0 0 -4 -1 0 0 -2 -1 0 0 2 -1 0 0 -2 m -1 0" id="4"/><path d="m 23 34 1 0 0 1 -1 0 m 0 -1" id="5"/><path d="m 25 34 1 0 0 1 -1 0 m 0 -1" id="6"/><path d="m 15 22 0 1 -3 0 0 -1 m 3 0" id="7"/><path d="m 15,24 0,0.996 -3,0 L 12,24 m 3,0" id="8"/><path d="m 15 21 0 5 4 0 0 -1 2 0 0 -1 -2 0 0 -1 2 0 0 -1 -2 0 0 -1 m -4 0" id="9"/><path d="m 14 22 0 1 -1 0 0 -1 m 1 0" id="A"/><path d="m 14,24 0,0.996 -1,0 L 13,24 m 1,0" id="B"/><path d="M 29.5,12 C 24.781,11.992 23,15.383 23,18 l 0,6 -2,0 0,1 2,0 0,2 1,0 0,-2 6,0 c 2.867,-0.07 6.04,-1.527 6,-6.438 0,-2.563 -2.098,-6.578 -6.5,-6.563 m 0,1 c 2.5,0 5.5,2.27 5.5,5.531 -0.055,3.59 -1.914,5.379 -5.469,5.469 l -5.531,0 0,-5.5 c -0.039,-3.707 2.699,-5.523 5.5,-5.5 m 0,0" id="C"/><path d="M 29.406,14 C 27.16,14.016 25,16 25,18 l 0,4 -4,0 0,1 4,0 0,4 1,0 0,-4 3,0 c 1.574,0.066 5,-0.547 5,-4.469 C 34,16.777 32.223,14 29.406,14 m 0.031,1 C 31.164,15 33,16.867 33,18.469 33.043,21.657 30.797,22 28.562,22 l -2.563,0 0,-3.438 c 0,-2.227 1.734,-3.563 3.438,-3.563 m 0,0" id="D"/></g></g><g clip-path="url(#0)"><g><use xlink:href="#2"/><use xlink:href="#3"/><use xlink:href="#4"/><use xlink:href="#5"/><use xlink:href="#6"/><use xlink:href="#7"/><use xlink:href="#8"/><use xlink:href="#9"/><use xlink:href="#A"/><use xlink:href="#B"/><use xlink:href="#C"/><use xlink:href="#D"/></g></g></g></g></svg>