<svg xmlns="http://www.w3.org/2000/svg" viewBox="0 0 256 256"><path d="m 157.05 251.58 c 237.88 -49.54 -17.492 -390.35 -138.4 -185.62 -51.828 79.53 16.06 211.1 138.4 185.62 z" style="fill:#fff;color:#000"/><g transform="matrix(4.7883 0 0 5.0539 17.552 -5048.71)" style="fill:#ff4500"><path d="m 42 27.5 a 1.5 1.5 0 1 1 -3 0 1.5 1.5 0 1 1 3 0 z" transform="matrix(2.85454 0 0 2.74836 -75.891 955.66)" style="opacity:0.6"/><path d="m 16.02,1027.88 c -0.513,2.796 -3.02,4.927 -6.081,4.927 H 29.26 c -3.059,0 -5.699,-1.72 -6.9,-4.223 -0.669,0.141 -1.357,0.248 -2.07,0.248 -1.531,0 -2.983,-0.343 -4.27,-0.952 z m 13.24,4.927 h 0.69 v -0.041 c -0.228,0.02 -0.457,0.041 -0.69,0.041 z m -19.321,0 c -0.237,0 -0.46,-0.058 -0.69,-0.082 v 0.082 h 0.69 z m 20.01,-13.248 c 0,5.122 -4.325,9.274 -9.66,9.274 -5.335,0 -9.66,-4.152 -9.66,-9.274 0,-5.122 4.325,-9.274 9.66,-9.274 5.335,0 9.66,4.152 9.66,9.274 z m 6.9,5.962 c 0,4.02 -3.398,7.287 -7.59,7.287 -4.192,0 -7.59,-3.262 -7.59,-7.287 0,-4.02 3.398,-7.287 7.59,-7.287 4.192,0 7.59,3.262 7.59,7.287 z m -20.701,1.325 c 0,3.293 -2.78,5.962 -6.21,5.962 -3.43,0 -6.21,-2.669 -6.21,-5.962 0,-3.293 2.78,-5.962 6.21,-5.962 3.43,0 6.21,2.669 6.21,5.962 z"/><path transform="matrix(1.44675 0 0 1.34586 -18.763 994.33)" d="m 42 27.5 a 1.5 1.5 0 1 1 -3 0 1.5 1.5 0 1 1 3 0 z"/></g></svg>