<svg xmlns="http://www.w3.org/2000/svg" xmlns:xlink="http://www.w3.org/1999/xlink" viewBox="0 0 256 256"><g transform="translate(0 -796.36)"><path d="m 3.25 953.66 c 49.981 239.91 393.86 -17.642 187.29 -139.59 -80.25 -52.27 -213 16.2 -187.29 139.59 z" style="fill:#fff;color:#000"/><g transform="matrix(7.37981 0 0 7.85118 -67.74 -3274.6)"><g style="fill-rule:evenodd"><path d="m 233.7 532.96 c 12.483 -20.791 -13.834 -14.197 -11.535 0.629 1.127 0.614 11.8 3.215 11.535 -0.629 z" transform="matrix(1.11875 0 0 1.0542 -233.09 -21.731)" style="fill:#8b160b"/><g transform="matrix(1 0 0 1.0081 0 -4.271)" style="fill:#ff4500"><path d="m 15.744 541.95 c -0.9 -15.392 20.06 -24.355 17.473 -4.152 -0.179 1.042 -4.119 1.38 -5.467 4.504" style="stroke:#6a140f;stroke-linecap:round;stroke-linejoin:round;stroke-width:1.888"/><path d="m 31.413 530.2 c 0 0 0.34 4.519 -5.289 8.388 -5.01 -5.471 -1.415 -10.152 5.289 -8.388 z"/><g style="stroke:#4e4e4e;stroke-linecap:round;stroke-linejoin:round"><path d="m 35.48 535.7 c 0 0 -3.807 5.964 -9.562 2.481 0.68 -2.01 0.992 -3.489 2.705 -4.18 2.701 2.578 4.569 2.301 6.857 1.7 z" style="stroke-width:0.882"/><path d="m 16.796 14.261 c 0 0 3.873 -4.794 -2.118 -7.51 -1.192 0.864 -1.758 1.436 -2.367 2.992 3.688 0.95 3.948 2.754 4.485 4.518 z" transform="matrix(1.40947 -0.15518 0.19834 1.93316 9.107 517.07)" style="stroke-width:0.787"/></g><path d="m 33.1 533.71 c 0.231 0.017 0.447 0.174 0.551 0.348 0.289 0.485 -0.184 0.663 -0.391 0.41 -0.143 -0.173 -0.389 -0.208 -0.539 -0.33 -0.115 -0.093 0.116 -0.447 0.38 -0.428 z"/></g></g><g style="fill:#ffdead"><path d="m 29.11 529.1 c 0.096 1.228 0.948 2.095 1.902 1.935 0.953 -0.16 1.649 -1.286 1.552 -2.514 -0.097 -1.228 -0.948 -2.095 -1.902 -1.935 -0.953 0.16 -1.649 1.286 -1.552 2.514 z"/><path d="m 24.482 530.32 c 0.369 1.925 1.789 3.154 3.169 2.745 1.38 -0.409 2.201 -2.303 1.832 -4.228 -0.369 -1.925 -1.789 -3.154 -3.169 -2.745 -1.38 0.409 -2.201 2.303 -1.832 4.228 z"/></g><path d="m 17.401 14.476 c 0 0.205 -0.166 0.371 -0.371 0.371 -0.205 0 -0.371 -0.166 -0.371 -0.371 0 -0.205 0.166 -0.371 0.371 -0.371 0.205 0 0.371 0.166 0.371 0.371 z" transform="matrix(3.50767 0 0 3.50731 -28.87 478.55)" id="0" style="fill-rule:evenodd"/><path transform="matrix(1.34798 0 0 1.34784 174.44 516.11)" d="m -106.57 9.52 c 0 0.201 -0.163 0.365 -0.365 0.365 -0.201 0 -0.365 -0.163 -0.365 -0.365 0 -0.201 0.163 -0.365 0.365 -0.365 0.201 0 0.365 0.163 0.365 0.365 z" id="1" style="fill:#ff4500;fill-rule:evenodd"/><use transform="translate(-3.445 1.252)" xlink:href="#0"/><use transform="translate(-3.356 1.141)" xlink:href="#1"/></g></g></svg>