<svg xmlns="http://www.w3.org/2000/svg" xmlns:xlink="http://www.w3.org/1999/xlink" viewBox="0 0 256 256"><defs><path d="m 77.5 67.13 a 3.125 3.125 0 1 1 -6.25 0 3.125 3.125 0 1 1 6.25 0 z" id="0"/><clipPath><rect width="84" height="84" rx="6" x="6" y="6" style="fill:#ff1919"/></clipPath><clipPath><path d="m -24 13 c 0 1.105 -0.672 2 -1.5 2 -0.828 0 -1.5 -0.895 -1.5 -2 0 -1.105 0.672 -2 1.5 -2 0.828 0 1.5 0.895 1.5 2 z" transform="matrix(15.33333 0 0 11.5 415 -125.5)"/></clipPath><linearGradient id="2" gradientUnits="userSpaceOnUse" y1="90" x2="0" y2="5.988"><stop style="stop-color:#9b0000"/><stop offset="1" style="stop-color:#ec0000"/></linearGradient><linearGradient id="1"><stop style="stop-color:#fe4b4b"/><stop offset="1" style="stop-color:#fe4b4b;stop-opacity:0"/></linearGradient><radialGradient cx="64.23" cy="68.45" r="43.77" id="7" xlink:href="#1" gradientUnits="userSpaceOnUse" gradientTransform="matrix(1.45444 0 0 0.92611 -45.08 -12.601)"/><radialGradient cx="74.38" cy="67.13" r="3.125" id="6" gradientUnits="userSpaceOnUse"><stop style="stop-color:#fe4b4b"/><stop offset="0.306" style="stop-color:#fe4b4b"/><stop offset="0.519" style="stop-color:#fe4b4b;stop-opacity:0.641"/><stop offset="1" style="stop-color:#fe4b4b;stop-opacity:0"/></radialGradient><radialGradient cx="49.23" cy="70.61" r="25.484" id="4" xlink:href="#1" gradientUnits="userSpaceOnUse" gradientTransform="matrix(0.46811 -0.52912 1.79482 1.58217 -112.04 -37.34)"/><radialGradient cx="63.875" cy="2.217" r="58.38" id="8" xlink:href="#1" gradientUnits="userSpaceOnUse" gradientTransform="matrix(1.09485 0 0 0.33117 -21.845 32.793)"/><radialGradient r="3.125" cy="67.13" cx="74.38" gradientUnits="userSpaceOnUse" id="3" xlink:href="#6"/><radialGradient cx="69.75" cy="75.974" r="58.5" id="5" xlink:href="#1" gradientUnits="userSpaceOnUse" gradientTransform="matrix(2.25939 -0.06832 0.00798 0.26386 -105.96 38.862)"/></defs><g transform="translate(0 -796.36)"><path d="m 60.17 822.74 c 130.93 -92.05 263.6 77.948 156.91 186.39 -100.51 102.17 -256.68 7.449 -207.86 -119.69 10.185 -26.526 26.914 -49.802 50.948 -66.7 z" style="fill:#fff;color:#000"/><g transform="matrix(1.7864 0 0 1.70033 41.539 845.5)"><path d="M 6,6 H 90 V 90 H 6 z" style="fill:url(#2)"/><g style="color:#000"><path d="m 6.094,17.719 c 2.086,32.23 19.932,57.41 41.656,57.41 21.714,0 39.555,-25.15 41.656,-57.36 H 6.501 c -0.136,0 -0.274,-0.035 -0.407,-0.048 z" style="fill:#800"/><path d="m 6.094,8.469 c 2.086,28.439 19.932,50.656 41.656,50.656 21.714,0 39.555,-22.2 41.656,-50.614 H 6.501 C 6.365,8.511 6.227,8.48 6.094,8.468 z" style="fill:#a50000"/><path d="m 6.844,5.969 c 2.043,20.86 19.513,37.16 40.781,37.16 21.258,0 38.724,-16.28 40.781,-37.12 H 7.246 C 7.113,6.009 6.978,5.986 6.847,5.978 z" style="fill:#c40000"/></g><g transform="matrix(1 0 0 1.19534 0 -17.385)"><g style="fill:none;stroke-width:2"><path d="m 7 29.523 c 51.25 8.824 31.634 59.48 31.634 59.48" style="stroke:url(#4)"/><path d="M 27.677,88.82 C 26.617,73.289 56.13,28.64 88.827,20.872" style="stroke:url(#7)"/></g><g style="fill:url(#3);fill-rule:evenodd"><use height="256" width="256" xlink:href="#0" transform="matrix(1.35724 0 0 1.35544 -73.27 -53.872)"/><use height="256" width="256" xlink:href="#0" transform="matrix(1.07448 0 0 1.07305 -39.514 -14.09)"/><use height="256" width="256" xlink:href="#0" transform="matrix(1.58345 0 0 1.58134 -53.33 -72.39)"/><use height="256" width="256" xlink:href="#0" transform="matrix(1.02193 0 0 1.02058 -15.636 -16.922)" style="opacity:0.6"/><use height="256" width="256" xlink:href="#0" transform="matrix(0.8926 0 0 0.89141 -51.611 -28.372)" style="opacity:0.7"/><use height="256" width="256" xlink:href="#0" transform="matrix(0.56552 0 0 0.56477 38.457 3.262)" style="opacity:0.6"/></g><g style="fill:none"><path d="m 7.177 47.702 c 28.1 -19.414 65.21 -20.473 81.82 1.588" style="stroke:url(#8);stroke-width:2"/><path d="m 7.177 67.821 c 51.25 -11.472 82 -30.18 82 -30.18" style="opacity:0.6;stroke:url(#5);stroke-width:1.5"/></g><use height="256" width="256" xlink:href="#0" transform="matrix(0.84547 0 0 0.84435 15.553 -31.918)" style="fill:url(#6);opacity:0.6;fill-rule:evenodd"/></g></g></g></svg>