<svg xmlns="http://www.w3.org/2000/svg" viewBox="0 0 256 256"><defs><filter id="9" height="1.447" y="-0.224" width="1.671" x="-0.336"><feGaussianBlur stdDeviation="1.34219"/></filter><filter id="6" height="1.447" y="-0.224" width="1.157" x="-0.078"><feGaussianBlur stdDeviation="1.34219"/></filter><filter id="8" height="1.447" y="-0.224" width="1.168" x="-0.084"><feGaussianBlur stdDeviation="1.34219"/></filter><filter id="7" height="1.447" y="-0.224" width="1.149" x="-0.075"><feGaussianBlur stdDeviation="1.34219"/></filter><filter id="5" height="1.093" y="-0.047" width="1.316" x="-0.158"><feGaussianBlur stdDeviation="0.79109"/></filter><filter id="0"><feGaussianBlur stdDeviation="0.63999"/></filter><filter id="4"><feGaussianBlur stdDeviation="0.65664"/></filter><filter id="1"><feGaussianBlur stdDeviation="0.79109"/></filter><filter id="3"><feGaussianBlur stdDeviation="0.29611"/></filter><filter id="2"><feGaussianBlur stdDeviation="0.61924"/></filter></defs><g transform="translate(0 -796.36)"><path d="m 45.729 833.49 c -200.97 266.38 352.09 304.22 174.6 32.31 -40.462 -61.991 -121.38 -102.86 -174.6 -32.31 z" style="fill:#fff;color:#000"/><g transform="matrix(1.39521 0 0 2.08305 35.461 792.46)" style="fill:#ff4500;stroke:#ffdead"><g style="stroke-width:2"><path d="m 40 48 v 32 h 8 v -32 h -8 z" style="filter:url(#5)"/><path d="m 52 48 v 32 h 8 v -24 h 16 v 24 l 8 -0.006 l -0.008 -25.623 c 0 0 -0.265 -2.038 -1.421 -3.622 -1.156 -1.585 -3.135 -2.729 -3.135 -2.729 l -27.436 -0.02 z" style="filter:url(#1)"/><path d="m 124 48 h -31.364 l -4.636 5.277 v 19.93 l 5.156 6.782 l 30.841 0.011 l 0.003 -8 h -28 v -4 h 24 v -8 h -24 v -4 h 28 v -8 z" style="filter:url(#1)"/><path d="M 2.59375,48 14.03125,63.5625 1.78125,80 l 9.9375,0 7.1875,-9.78125 L 26.09375,80 36,80 23.78125,63.5625 35.1875,48 25.59375,48 18.875,57 12.1875,48 2.59375,48 z" style="filter:url(#1)"/></g><g style="fill-rule:evenodd"><path d="m 41.45 48 v 32 h 7.481 v -32 h -7.481 z" style="fill-opacity:0.472;filter:url(#3)"/><path d="m 40 48 v 32 h 8 v -32 h -8 z"/><path d="m 52.671 48 v 32 h 7.481 v -24 h 14.962 v 24 l 7.481 -0.006 l -0.007 -25.623 c 0 0 -0.247 -2.038 -1.328 -3.622 c -1.081 -1.585 -2.932 -2.729 -2.932 -2.729 l -25.656 -0.02 z" style="fill-opacity:0.472;filter:url(#2)"/><path d="m 52 48 v 32 h 8 v -24 h 16 v 24 l 8 -0.006 l -0.008 -25.623 c 0 0 -0.265 -2.038 -1.421 -3.622 -1.156 -1.585 -3.135 -2.729 -3.135 -2.729 l -27.436 -0.02 z"/><path d="m 120 48 h -29.329 l -4.335 5.277 v 19.93 l 4.821 6.782 l 28.84 0.011 l 0.003 -8 h -26.18 v -4 h 22.443 v -8 h -22.443 v -4 h 26.18 v -8 z" style="fill-opacity:0.472;filter:url(#4)"/><path d="m 124 48 h -31.364 l -4.636 5.277 v 19.93 l 5.156 6.782 l 30.841 0.011 l 0.003 -8 h -28 v -4 h 24 v -8 h -24 v -4 h 28 v -8 z"/><path d="m 6.471 48 l 10.695 15.563 l -11.455 16.438 h 9.293 l 6.721 -9.781 l 6.721 9.781 h 9.264 l -11.426 -16.438 l 10.666 -15.563 h -8.971 l -6.283 9 l -6.254 -9 h -8.971 z" style="fill-opacity:0.472;filter:url(#0)"/><path d="M 2.59375,48 14.03125,63.5625 1.78125,80 l 9.9375,0 7.1875,-9.78125 L 26.09375,80 36,80 23.78125,63.5625 35.1875,48 25.59375,48 18.875,57 12.1875,48 2.59375,48 z"/><path d="m 40 84 v 12 h 8 v -12 h -8 z" style="filter:url(#9)"/><path d="m 52 84 v 12 h 8 v -9 h 16 v 9 l 8 -0.002 l -0.008 -9.609 c 0 0 -0.265 -0.764 -1.421 -1.358 -1.156 -0.594 -3.135 -1.023 -3.135 -1.023 l -27.436 -0.007 z" style="filter:url(#8)"/><path d="m 124 84 h -31.364 l -4.636 1.979 v 7.474 l 5.156 2.543 l 30.841 0.004 l 0.003 -3 h -28 v -1.5 h 24 v -3 h -24 v -1.5 h 28 v -3 z" style="filter:url(#7)"/><path d="m 2.594 84 l 11.438 5.836 l -12.25 6.164 h 9.938 l 7.188 -3.668 l 7.188 3.668 h 9.906 l -12.219 -6.164 l 11.406 -5.836 h -9.594 l -6.719 3.375 l -6.688 -3.375 h -9.594 z" style="filter:url(#6)"/></g></g></g></svg>