<svg xmlns="http://www.w3.org/2000/svg" viewBox="0 0 256 256"><defs><clipPath id="0"><path transform="matrix(15.33333 0 0 11.5 415 -125.5)" d="m -24 13 c 0 1.105 -0.672 2 -1.5 2 -0.828 0 -1.5 -0.895 -1.5 -2 0 -1.105 0.672 -2 1.5 -2 0.828 0 1.5 0.895 1.5 2 z" style="fill:#1890d0"/></clipPath><clipPath id="1"><path transform="matrix(15.33333 0 0 11.5 415 -125.5)" d="m -24 13 c 0 1.105 -0.672 2 -1.5 2 -0.828 0 -1.5 -0.895 -1.5 -2 0 -1.105 0.672 -2 1.5 -2 0.828 0 1.5 0.895 1.5 2 z" style="fill:#1890d0"/></clipPath></defs><g transform="translate(0 -796.36)"><path d="m -1374.42 1658.71 c 127.95 -192.46 -280.09 -311 -226.07 -62.2 23.02 102.82 167.39 165.22 226.07 62.2 z" transform="matrix(0 1 -1 0 1711.48 2401.81)" style="fill:#fff;color:#000"/><g transform="matrix(4.82106 0 0 5.34149 17.951 794.16)" style="fill:#ff4500"><g style="clip-path:url(#1)"><path d="m 11 13 v 22 c 0 0 1.598 0 3 0 v -1 h 4 v 1 h 12 v -1 h 4 v 1 c 1 0 2 0 3 0 v -22 c -1 0 -2 0 -3 0 v 1 h -4 v -1 h -12 v 1 h -4 v -1 c -1 0 -3 0 -3 0 m 3 3 h 4 v 4 h -4 m 16 -4 h 4 v 4 h -4 m -16 2 h 4 v 4 h -4 m 16 -4 h 4 v 4 h -4 m -16 2 h 4 v 4 h -4 m 16 -4 h 4 v 4 h -4" transform="translate(1 1)" style="opacity:0.1"/></g><g style="clip-path:url(#0)"><path d="m 11 13 v 22 c 0 0 1.598 0 3 0 v -1 h 4 v 1 h 12 v -1 h 4 v 1 c 1 0 2 0 3 0 v -22 c -1 0 -2 0 -3 0 v 1 h -4 v -1 h -12 v 1 h -4 v -1 c -1 0 -3 0 -3 0 m 3 3 h 4 v 4 h -4 m 16 -4 h 4 v 4 h -4 m -16 2 h 4 v 4 h -4 m 16 -4 h 4 v 4 h -4 m -16 2 h 4 v 4 h -4 m 16 -4 h 4 v 4 h -4"/></g></g></g></svg>