<svg xmlns="http://www.w3.org/2000/svg" xmlns:xlink="http://www.w3.org/1999/xlink" viewBox="0 0 256 256"><defs><path id="2" d="m 70.37 86.29 c -10.931 10.931 -69.78 10.931 -80.71 0 -10.931 -10.931 -10.931 -69.78 0 -80.71 10.931 -10.931 69.78 -10.931 80.71 0 10.931 10.931 10.931 69.78 0 80.71 z" style="opacity:0.877;fill-rule:evenodd"/><path id="3" d="m 72.834 14.76 a 7.241 7.241 0 1 1 -14.483 0 7.241 7.241 0 1 1 14.483 0 z" style="fill-rule:evenodd"/><rect id="4" width="12.488" x="29.09" y="1033.66" rx="2.25" height="7.718" style="fill-rule:evenodd;stroke-width:1"/><clipPath><g style="fill:#eee"><path d="m 161.36 13.05 l -45.35 4.367 v 186.87 l 44.908 -6.749 v -79.69 l 60.34 88.38 l 47.34 -14.986 l -61.828 -84.952 l 62.32 -80.19 l -48.33 -11.12 l -59.844 80.19 l 0.447 -82.12 z m -102.87 45.553 c -0.512 0.053 -1 0.307 -1.389 0.695 l -17.814 17.814 c -0.749 0.751 -0.899 1.919 -0.347 2.828 l 20.841 34.34 c -3.699 6.219 -6.664 12.924 -8.783 19.997 l -38.26 7.939 c -1.065 0.221 -1.836 1.189 -1.836 2.283 v 25.16 c 0 1.065 0.71 1.985 1.737 2.233 l 37.17 9.08 c 1.982 8.192 5.071 15.986 9.13 23.12 l -21.536 32.8 c -0.6 0.916 -0.478 2.106 0.298 2.878 l 17.814 17.814 c 0.749 0.747 1.915 0.896 2.828 0.347 l 33.743 -20.444 c 6.621 3.821 13.741 6.793 21.288 8.833 l 7.84 37.812 c 0.222 1.072 1.196 1.836 2.283 1.836 h 25.21 c 1.059 0 1.98 -0.698 2.233 -1.737 l 9.23 -37.911 c 7.78 -2.1 15.15 -5.235 21.933 -9.23 l 33.25 21.784 c 0.913 0.602 2.103 0.478 2.878 -0.298 l 17.814 -17.814 c 0.754 -0.754 0.901 -1.872 0.347 -2.779 l -12.157 -19.997 l -3.92 1.241 c -0.572 0.18 -1.202 -0.048 -1.538 -0.546 0 0 -7.725 -11.332 -17.715 -25.952 -11.942 23.372 -36.25 39.4 -64.31 39.4 -39.861 0 -72.15 -32.34 -72.15 -72.2 0 -29.325 17.466 -54.55 42.575 -65.848 v -18.608 c -4.57 1.599 -8.954 3.52 -13.15 5.806 -0.004 -0.003 -0.038 0.006 -0.05 0 l -33.991 -22.28 c -0.458 -0.299 -0.976 -0.45 -1.489 -0.397 z" transform="matrix(0 -0.08398 -0.08398 0 -952.06 -70.76)" style="fill:#eee"/></g></clipPath><clipPath><path d="m 20.809 937.36 c -1 0 -1.809 0.806 -1.809 1.803 v 99.39 c 0 0.997 0.809 1.803 1.809 1.803 h 9.01 h 68.6 h 4.522 c 2.25 0 4.054 -1.798 4.054 -4.04 v -94.89 c 0 -2.243 -1.804 -4.072 -4.054 -4.072 h -4.522 h -68.6 h -9.01 z"/></clipPath><clipPath><path transform="matrix(1.10706 0 0 0.87068 175.64 24.622)" d="m 70.37 86.29 c -10.931 10.931 -69.78 10.931 -80.71 0 -10.931 -10.931 -10.931 -69.78 0 -80.71 10.931 -10.931 69.78 -10.931 80.71 0 10.931 10.931 10.931 69.78 0 80.71 z"/></clipPath><clipPath><use transform="matrix(1.09857 0 0 0.864 242.66 24.642)" xlink:href="#2"/></clipPath><clipPath><path d="m 20.809 13 c -1 0 -1.809 0.806 -1.809 1.803 v 99.39 c 0 0.997 0.809 1.803 1.809 1.803 h 9.01 h 68.6 h 4.522 c 2.25 0 4.054 -1.798 4.054 -4.04 v -94.89 c 0 -2.243 -1.804 -4.072 -4.054 -4.072 h -4.522 h -68.6 h -9.01 z"/></clipPath><clipPath id="0"><path transform="matrix(0.60194 0 0 1.17609 28.905 14.393)" d="m 72.834 14.76 a 7.241 7.241 0 1 1 -14.483 0 7.241 7.241 0 1 1 14.483 0 z"/></clipPath><clipPath><use xlink:href="#2" transform="matrix(0.852 0 0 0.67008 181.51 40.836)"/></clipPath><filter id="1" height="1.631" width="1.21" y="-0.316" x="-0.105" style="color-interpolation-filters:sRGB"><feGaussianBlur stdDeviation="1.06832"/></filter><radialGradient gradientUnits="userSpaceOnUse" fy="10.142" r="7.241" cy="14.76" cx="65.59"><stop style="stop-color:#ffd12d"/><stop offset="0.746" style="stop-color:#dfa925"/><stop offset="1" style="stop-color:#c0811d"/></radialGradient></defs><g transform="translate(0 -796.36)"><path d="m118.31 800.01c155.28-14.532 197.08 230.55 37.632 249.59-146.61 23.59-222.12-198.57-76.44-243 12.317-4.868 25.786-4.775 38.807-6.59" style="fill:#fff;color:#000"/><g transform="matrix(1.51274 0 0 1.49154 34.874 -553.21)" style="fill:#ff4500"><path transform="matrix(-0.79866 -0.10775 -0.10775 0.79866 146.4 939.13)" d="M 88.59 7.25 A 0.49 0.49 0 0 0 88.31 7.375 c 0 0 -4.828 4.156 -9.719 8.375 -2.445 2.109 -4.889 4.246 -6.781 5.875 -0.946 0.814 -1.758 1.498 -2.344 2 -0.586 0.502 -0.991 0.843 -1.031 0.875 a 0.49 0.49 0 0 0 -0.031 0.719 l 2 1.875 a 0.49 0.49 0 0 0 0.688 0 l 17.875 -19 A 0.49 0.49 0 0 0 88.59 7.25 z" id="5"/><use transform="matrix(-0.96595 -0.25874 -0.25874 0.96595 426.08 56.01)" xlink:href="#5"/><g transform="matrix(1 0 0 1.16318 66.2 -172.38)"><use xlink:href="#4"/><use xlink:href="#4"/></g><g transform="matrix(1 0 0 1.16318 -6.976 -172.38)"><use xlink:href="#4"/><use xlink:href="#4"/></g><use transform="matrix(1.16653 0.14968 -0.14968 1.16653 16.82 929.27)" xlink:href="#3"/><g style="fill-rule:evenodd"><path transform="matrix(1.93796 0.24866 -0.12727 0.99187 -37.36 907.81)" d="m 80.63 34.438 a 12.188 4.063 0 1 1 -24.375 0 12.188 4.063 0 1 1 24.375 0 z" style="clip-path:url(#0);filter:url(#1)"/><path d="m 104.7 1024.45 c -10.81 8.699 -69.01 8.699 -79.82 0 -10.81 -8.699 -10.81 -55.53 0 -64.23 10.81 -8.699 69.01 -8.699 79.82 0 10.81 8.699 10.81 55.53 0 64.23 z"/><g transform="matrix(-1.24391 0 0 1.17518 -14.472 -177.23)" style="fill:#ffdead"><path d="m -85.76 988.36 h 3.765 v 3.765 h -3.765 z" style="opacity:0.859"/><path d="m -81.76 988.36 h 3.765 v 3.765 h -3.765 z" style="opacity:0.859"/><path d="m -77.76 988.36 h 3.765 v 3.765 h -3.765 z" style="opacity:0.859"/><path d="m -53.765 988.36 h 3.765 v 3.765 h -3.765 z" style="opacity:0.859"/><path d="m -49.765 988.36 h 3.765 v 3.765 h -3.765 z" style="opacity:0.859"/><path d="m -45.765 988.36 h 3.765 v 3.765 h -3.765 z" style="opacity:0.859"/><path d="m -77.76 1007.36 h 3.765 v 3.77 h -3.765 z" style="opacity:0.859"/><path d="m -49.765 976.36 h 3.765 v 3.765 h -3.765 z" style="opacity:0.859"/><path d="m -53.765 1007.36 h 3.765 v 3.77 h -3.765 z" style="opacity:0.859"/><path d="m -57.765 1011.36 h 3.765 v 3.77 h -3.765 z" style="opacity:0.859"/><path d="m -61.765 1011.36 h 3.765 v 3.77 h -3.765 z" style="opacity:0.859"/><path d="m -73.76 1011.36 h 3.765 v 3.77 h -3.765 z" style="opacity:0.859"/><path d="m -65.765 1011.36 h 3.765 v 3.77 h -3.765 z" style="opacity:0.859"/><path d="m -69.765 1011.36 h 3.765 v 3.77 h -3.765 z" style="opacity:0.859"/><path d="m -53.765 980.36 h 3.765 v 3.765 h -3.765 z" style="opacity:0.859"/><path d="m -45.765 980.36 h 3.765 v 3.765 h -3.765 z" style="opacity:0.859"/><path d="m -53.765 984.36 h 3.765 v 3.765 h -3.765 z" style="opacity:0.859"/><path d="m -45.765 984.36 h 3.765 v 3.765 h -3.765 z" style="opacity:0.859"/><path d="m -81.76 976.36 h 3.765 v 3.765 h -3.765 z" style="opacity:0.859"/><path d="m -85.76 980.36 h 3.765 v 3.765 h -3.765 z" style="opacity:0.859"/><path d="m -77.76 980.36 h 3.765 v 3.765 h -3.765 z" style="opacity:0.859"/><path d="m -85.76 984.36 h 3.765 v 3.765 h -3.765 z" style="opacity:0.859"/><path d="m -77.76 984.36 h 3.765 v 3.765 h -3.765 z" style="opacity:0.859"/></g></g><use transform="matrix(0.36245 0.04651 -0.04651 0.36245 89.65 931.52)" xlink:href="#3"/><use transform="matrix(0.36511 0.04685 -0.04685 0.36511 51.17 926.52)" xlink:href="#3"/></g></g></svg>