<svg xmlns="http://www.w3.org/2000/svg" viewBox="0 0 256 256"><path d="m 226.22 46.721 c 62.27 95.76 12.03 183 -58.47 203.69 -94.83 27.843 -223.59 -45.32 -138.75 -196.1 c 33.72 -59.925 152.85 -75.79 197.21 -7.587 z" style="fill:#fff;color:#000"/><g transform="matrix(2.49375 0 0 2.46439 45.544 45.838)" style="fill:#ff4500"><g style="stroke:#ffdead"><path d="m 59.5 32 c 0 -15.243 -12.257 -27.5 -27.5 -27.5 -15.243 0 -27.5 12.257 -27.5 27.5 c 0 15.243 12.257 27.5 27.5 27.5 15.243 0 27.5 -12.257 27.5 -27.5 z m -17 0 c 0 5.538 -4.851 10.5 -10.5 10.5 -5.759 0 -10.5 -5.074 -10.5 -10.5 0 -5.537 4.519 -10.5 10.5 -10.5 c 5.981 0 10.5 5.073 10.5 10.5 z"/><path d="m 32 21.5 c -5.796 0 -10.5 4.704 -10.5 10.5 0 5.796 4.704 10.5 10.5 10.5 5.796 0 10.5 -4.704 10.5 -10.5 0 -5.796 -4.704 -10.5 -10.5 -10.5 z m 0 5.25 c 2.898 0 5.25 2.352 5.25 5.25 0 2.898 -2.352 5.25 -5.25 5.25 -2.898 0 -5.25 -2.352 -5.25 -5.25 0 -2.898 2.352 -5.25 5.25 -5.25 z" style="fill-opacity:0.498;stroke-linejoin:round"/><g transform="matrix(1.33333 0 0 1.33333 0 0.059)"><path transform="matrix(0.9996 0.02824 -0.02824 0.9996 0.692 -0.671)" d="m 15.857 5.731 l 4.768 10.613 c 1.035 -0.459 2.17 -0.719 3.375 -0.719 c 0.032 0 0.062 0 0.094 0 l 0.014 -11.62 c -2.942 -0.071 -5.543 0.657 -8.251 1.726 z" style="opacity:0.8"/><path d="m 12.12 7.906 l 6.931 9.36 c 0.913 -0.67 1.966 -1.167 3.143 -1.425 0.031 -0.007 0.06 -0.014 0.092 -0.02 l -2.43 -11.395 c -2.889 0.561 -5.32 1.856 -7.736 3.48 z" style="opacity:0.8"/><path d="m 8.252 11.647 l 9.214 7.156 c 0.709 -0.883 1.597 -1.636 2.667 -2.19 0.028 -0.015 0.055 -0.029 0.083 -0.043 l -5.35 -10.319 c -2.645 1.29 -4.7 3.202 -6.613 5.396 z" style="opacity:0.8"/><path d="m 5.633 16.07 c 7.175 2.242 7.85 7.03 12.777 1.754 l -7.91 -8.696 c -2.221 1.931 -3.587 4.327 -4.867 6.942 z" style="opacity:0.8"/><path d="m 7.155 13.193 c -1.183 1.752 -1.908 3.636 -2.525 5.644 l 11.339 2.975 c 0.216 -0.763 0.518 -1.515 0.969 -2.219 0.017 -0.027 0.045 -0.067 0.063 -0.094 l -9.845 -6.307 z" style="opacity:0.8"/></g><path d="m 58.5 31.999 c 0 14.636 -11.865 26.501 -26.5 26.501 -14.636 0 -26.5 -11.865 -26.5 -26.501 c 0 -14.635 11.865 -26.499 26.5 -26.499 14.634 0 26.5 11.864 26.5 26.499 z" style="opacity:0.55;color:#000;stroke-linecap:round;stroke-linejoin:round"/><path d="m 32 43.5 c -6.374 0 -11.5 -5.126 -11.5 -11.5 0 -6.374 5.126 -11.5 11.5 -11.5 6.374 0 11.5 5.126 11.5 11.5 0 6.374 -5.126 11.5 -11.5 11.5 z" style="fill:#fff;opacity:0.4"/><g style="color:#000;stroke-linecap:round;stroke-linejoin:round"><path d="m 48 33.5 c -8 0 -14.5 6.499 -14.5 14.5 0 8 6.499 14.5 14.5 14.5 8 0 14.5 -6.499 14.5 -14.5 0 -8 -6.499 -14.5 -14.5 -14.5 z"/><path d="m 61.5 48 c 0 7.456 -6.04 13.5 -13.5 13.5 -7.456 0 -13.5 -6.04 -13.5 -13.5 0 -7.456 6.04 -13.5 13.5 -13.5 7.455 0 13.5 6.04 13.5 13.5 z" style="opacity:0.5"/></g></g><g style="stroke:none;color:#000"><path d="m 42,50 6,6 6,-6 z"/><path d="m 47,42 0,7 -5,0 6,6 6,-6 -5,0 0,-7 z" style="fill:#fff"/></g></g></svg>