<svg xmlns="http://www.w3.org/2000/svg" viewBox="0 0 256 256" xmlns:xlink="http://www.w3.org/1999/xlink"><defs><clipPath id="0"><path transform="matrix(15.33333 0 0 11.5 415 -125.5)" d="m -24 13 c 0 1.105 -0.672 2 -1.5 2 -0.828 0 -1.5 -0.895 -1.5 -2 0 -1.105 0.672 -2 1.5 -2 0.828 0 1.5 0.895 1.5 2 z" style="fill:#1890d0"/></clipPath><clipPath id="1"><path transform="matrix(15.33333 0 0 11.5 415 -125.5)" d="m -24 13 c 0 1.105 -0.672 2 -1.5 2 -0.828 0 -1.5 -0.895 -1.5 -2 0 -1.105 0.672 -2 1.5 -2 0.828 0 1.5 0.895 1.5 2 z" style="fill:#1890d0"/></clipPath></defs><g transform="translate(0 -796.36)"><path d="m -1374.42 1658.71 c 127.95 -192.46 -280.09 -311 -226.07 -62.2 23.02 102.82 167.39 165.22 226.07 62.2 z" transform="matrix(0 1 -1 0 1711.48 2401.81)" style="fill:#fff;color:#000"/><g transform="matrix(6.91224 0 0 6.0062 -36.14 782.46)" style="fill:#ff4500"><g style="clip-path:url(#1)"><g transform="translate(1 1)" style="opacity:0.1"><path d="m 34,18 0.004,12 -9.996,6 -10,-5.996 -0.004,-12 9.996,-6 m 10,6" id="2"/><path d="m 23.25 16 v 16 h 1.5 v -16"/><path d="m 26.5 28.5 c 0 0.828 -1.117 1.5 -2.5 1.5 -1.383 0 -2.5 -0.672 -2.5 -1.5 0 -0.828 1.117 -1.5 2.5 -1.5 1.383 0 2.5 0.672 2.5 1.5"/><path d="m 19.25 31 v -14 h -1.5 v 14"/><path d="m 21 21.5 c 0 0.828 -1.117 1.5 -2.5 1.5 -1.383 0 -2.5 -0.672 -2.5 -1.5 0 -0.828 1.117 -1.5 2.5 -1.5 c 1.383 0 2.5 0.672 2.5 1.5"/><path d="m 30.25 31 v -14 h -1.5 v 14"/><path d="m 32 21.5 c 0 0.828 -1.117 1.5 -2.5 1.5 -1.383 0 -2.5 -0.672 -2.5 -1.5 0 -0.828 1.117 -1.5 2.5 -1.5 c 1.383 0 2.5 0.672 2.5 1.5"/></g></g><g style="clip-path:url(#0)"><g><use xlink:href="#2"/><g style="fill:#ffdead"><path d="m 23.25 16 v 16 h 1.5 v -16"/><path d="m 26.5 28.5 c 0 0.828 -1.117 1.5 -2.5 1.5 -1.383 0 -2.5 -0.672 -2.5 -1.5 0 -0.828 1.117 -1.5 2.5 -1.5 1.383 0 2.5 0.672 2.5 1.5"/><path d="m 19.25 31 v -14 h -1.5 v 14"/><path d="m 21 21.5 c 0 0.828 -1.117 1.5 -2.5 1.5 -1.383 0 -2.5 -0.672 -2.5 -1.5 0 -0.828 1.117 -1.5 2.5 -1.5 c 1.383 0 2.5 0.672 2.5 1.5"/><path d="m 30.25 31 v -14 h -1.5 v 14"/><path d="m 32 21.5 c 0 0.828 -1.117 1.5 -2.5 1.5 -1.383 0 -2.5 -0.672 -2.5 -1.5 0 -0.828 1.117 -1.5 2.5 -1.5 c 1.383 0 2.5 0.672 2.5 1.5"/></g></g></g></g></g></svg>