<svg xmlns="http://www.w3.org/2000/svg" viewBox="0 0 256 256" xmlns:xlink="http://www.w3.org/1999/xlink"><defs><clipPath id="0"><path transform="matrix(15.33333 0 0 11.5 415 -125.5)" d="m -24 13 c 0 1.105 -0.672 2 -1.5 2 -0.828 0 -1.5 -0.895 -1.5 -2 0 -1.105 0.672 -2 1.5 -2 0.828 0 1.5 0.895 1.5 2 z"/></clipPath></defs><g transform="translate(0 -796.36)"><path d="m -1374.42 1658.71 c 127.95 -192.46 -280.09 -311 -226.07 -62.2 23.02 102.82 167.39 165.22 226.07 62.2 z" transform="matrix(0 1 -1 0 1711.48 2401.81)" style="fill:#fff;color:#000"/><g transform="matrix(7.10429 0 0 6.12481 -44.95 774.08)" style="fill:#ff4500"><g style="clip-path:url(#0)"><g transform="translate(1 1)" style="opacity:0.1"><path d="m 34 17.996 v 12 l -9.992 6 l -10 -5.996 l -0.004 -12 l 9.996 -6" id="1"/><path d="m 27.457 18 c -0.105 0.012 -0.238 0.051 -0.313 0.125 l -7.852 7.852 c -0.051 0.047 -0.07 0.109 -0.094 0.172 l -1.176 3.25 c -0.121 0.324 0.277 0.699 0.602 0.574 l 3.23 -1.152 c 0.063 -0.023 0.145 -0.047 0.191 -0.098 l 7.852 -7.879 c 0.094 -0.098 0.117 -0.238 0.094 -0.375 0 0 0.004 -0.074 -0.023 -0.148 -0.027 -0.078 -0.094 -0.18 -0.164 -0.301 -0.145 -0.238 -0.371 -0.555 -0.816 -1 -0.461 -0.457 -0.77 -0.711 -1.012 -0.848 -0.121 -0.074 -0.23 -0.125 -0.313 -0.152 -0.078 -0.027 -0.191 -0.023 -0.191 -0.023 h -0.023"/></g></g><g style="clip-path:url(#0)"><g><use xlink:href="#1"/><path d="m 27.457 18 c -0.105 0.012 -0.238 0.051 -0.313 0.125 l -7.852 7.852 c -0.051 0.047 -0.07 0.109 -0.094 0.172 l -1.176 3.25 c -0.121 0.324 0.277 0.699 0.602 0.574 l 3.23 -1.152 c 0.063 -0.023 0.145 -0.047 0.191 -0.098 l 7.852 -7.879 c 0.094 -0.098 0.117 -0.238 0.094 -0.375 0 0 0.004 -0.074 -0.023 -0.148 -0.027 -0.078 -0.094 -0.18 -0.164 -0.301 -0.145 -0.238 -0.371 -0.555 -0.816 -1 -0.461 -0.457 -0.77 -0.711 -1.012 -0.848 -0.121 -0.074 -0.23 -0.125 -0.313 -0.152 -0.078 -0.027 -0.191 -0.023 -0.191 -0.023 h -0.023" style="fill:#ffdead"/></g></g></g></g></svg>