<svg xmlns="http://www.w3.org/2000/svg" viewBox="0 0 256 256"><defs><clipPath><path transform="matrix(15.33333 0 0 11.5 415 -125.5)" d="m -24 13 c 0 1.105 -0.672 2 -1.5 2 -0.828 0 -1.5 -0.895 -1.5 -2 0 -1.105 0.672 -2 1.5 -2 0.828 0 1.5 0.895 1.5 2 z"/></clipPath></defs><g transform="translate(0 -796.36)"><path d="m 26.373 858.55 c -92.05 129.58 77.948 260.87 186.39 155.29 102.17 -99.48 7.449 -254.02 -119.69 -205.71 -26.526 10.08 -49.802 26.636 -66.7 50.42 z" style="fill:#fff;color:#000"/><g transform="matrix(3.33971 0 0 3.15411 46.21 845.28)" style="fill:#ff4500"><rect width="39" height="39" rx="2" x="4.5" y="5.5" style="color:#000"/><g style="stroke:#ffdead;stroke-linecap:round;stroke-linejoin:round"><rect width="37" height="37" rx="1" x="5.5" y="6.5" style="opacity:0.5"/><g style="color:#000"><rect width="39" height="39" rx="2" x="4.5" y="5.5" style="opacity:0.4"/><path d="m 10.191 9.5 c -0.937 0 -1.691 0.755 -1.691 1.691 v 27.617 c 0 0.937 0.755 1.691 1.691 1.691 h 27.617 c 0.937 0 1.691 -0.755 1.691 -1.691 v -27.617 c 0 -0.937 -0.755 -1.691 -1.691 -1.691 z m 4.309 5 h 11.594 c 2.264 0 4.064 0.558 5.4 1.674 1.337 1.106 2.01 2.593 2.01 4.459 0 1.875 -0.674 3.375 -2.02 4.5 -1.337 1.116 -3.132 1.674 -5.387 1.674 h -3.738 v 6.992 h 3.289 v 1.701 h -11.145 v -1.701 h 3 v -17.598 h -3 z m 7.855 1.701 v 8.904 h 1.529 c 1.182 0 2.122 -0.403 2.822 -1.209 0.709 -0.816 1.064 -1.904 1.064 -3.264 0 -1.35 -0.351 -2.424 -1.051 -3.221 -0.7 -0.806 -1.645 -1.211 -2.836 -1.211 z"/></g></g></g></g></svg>