<svg xmlns="http://www.w3.org/2000/svg" viewBox="0 0 256 256"><path d="m 32.36 217.48 c -146.42 -225.37 253.5 -312.59 221.64 -80.74 -12.991 94.56 -165.63 166.95 -221.64 80.74 z" style="fill:#fff;color:#000"/><g transform="matrix(3.5289 0 0 3.70954 42.956 33.3)" style="fill:#ff4500"><path d="m 4 13 v 31 h 40 v -30 v -1 z" style="fill:#ffdead"/><path d="m 4 6 h 40 v 8 h -40 z"/><path d="M 4,13 H44 V14 H4 z"/><g><path d="M 4,14 H15 V20 H4 z"/><path d="M 27,38 H44 V44 H27 z"/></g><path d="M 7,7 H16 V8 H7 z"/><path d="M 8,4 H15 V8 H8 z"/><path d="M 32,7 H41 V8 H32 z"/><path d="M 33,4 H40 V8 H33 z"/><path d="M 18,10 H30 V12 H18 z"/><g style="fill-rule:evenodd"><path d="M 8,8 19,19 26,19 15,8 z" style="opacity:0.2"/><path d="M 33,8 44,19 44,12 40,8 z" style="opacity:0.2"/></g><g><path d="M 16,18 H20 V19 H16 z"/><path d="M 34,30 H36 V31 H34 z"/><path d="M 5,36 H6 V37 H5 z"/><path d="M 7,36 H8 V37 H7 z"/></g><g><path d="M 16,36 H18 V37 H16 z"/><path d="M 28,24 H32 V25 H28 z"/><path d="M 10,24 H14 V25 H10 z"/><path d="M 16,24 H20 V25 H16 z"/><path d="M 22,24 H26 V25 H22 z"/></g><g><path d="M 34,36 H37 V37 H34 z"/><path d="M 5,30 H8 V31 H5 z"/><path d="M 40,18 H43 V19 H40 z"/></g></g></svg>