<svg xmlns="http://www.w3.org/2000/svg" viewBox="0 0 256 256"><defs><clipPath><path transform="matrix(15.33333 0 0 11.5 415 -125.5)" d="m -24 13 c 0 1.105 -0.672 2 -1.5 2 -0.828 0 -1.5 -0.895 -1.5 -2 0 -1.105 0.672 -2 1.5 -2 0.828 0 1.5 0.895 1.5 2 z" style="fill:#1890d0"/></clipPath><linearGradient gradientUnits="userSpaceOnUse" y2="505.8" x2="0" y1="535.8" id="0"><stop style="stop-color:#131011"/><stop offset="0.108" style="stop-color:#c4735b"/><stop offset="0.217" style="stop-color:#d5c6ae"/><stop offset="0.433" style="stop-color:#a2bdc9"/><stop offset="0.867" style="stop-color:#0058e2"/><stop offset="1" style="stop-color:#0030a0"/></linearGradient></defs><g transform="translate(0 -796.36)"><path d="m 60.17 822.74 c 130.93 -92.05 263.6 77.948 156.91 186.39 -100.51 102.17 -256.68 7.449 -207.86 -119.69 10.185 -26.526 26.914 -49.802 50.948 -66.7 z" style="fill:#fff;color:#fff"/><g transform="matrix(2.96221 0 0 2.90275 -1079.46 -597.15)"><path transform="translate(384.57 499.8)" d="m 18 37 v 7 v 2 v 2 h 12 v -2 v -2 v -7 z" style="fill:#ffa07a"/><path d="m 384.57 503.8 h 48 v 36 h -48 z" style="fill:#ff4500"/><path d="m 386.57 505.8 h 44 v 30 h -44 z" style="fill:url(#0)"/><g style="fill:#ff4500"><path d="m 397.57 546.8 h 22 v 1 h -22 z"/><path d="m 386.57 505.8 h 44 v 30 h -44 z" style="opacity:0.85"/></g><g style="fill:#fff;fill-opacity:0.621"><path d="m 386.57 531.8 h 44 v 4 h -44 z" style="opacity:0.85"/><path d="m 386.57 505.8 h 44 v 4 h -44 z" style="opacity:0.85"/></g><path transform="translate(384.57 499.8)" d="m 24 14 c -3.878 0 -7 3.122 -7 7 0 3.878 3.122 7 7 7 3.878 0 7 -3.122 7 -7 0 -3.878 -3.122 -7 -7 -7 z m 0 1 c 3.324 0 6 2.676 6 6 0 3.324 -2.676 6 -6 6 -3.324 0 -6 -2.676 -6 -6 0 -3.324 2.676 -6 6 -6 z" style="fill:#faebd7;opacity:0.85;fill-opacity:0.453"/><rect width="5" height="5" x="406.07" y="518.3" rx="2.5" style="fill:#fff;opacity:0.8"/><g style="fill:#ff4500"><g transform="translate(384.57 499.8)"><path d="M 5.5,33.5 C 5.223,33.5 5,33.723 5,34 c 0,0.277 0.223,0.5 0.5,0.5 l 24.5,0 0,-1 -24.5,0 z"/><path d="m 24 14 v 1 c 3.324 0 6 2.676 6 6 h 1 c 0 -3.878 -3.122 -7 -7 -7 z" style="opacity:0.85"/></g><path d="m 410.07 520.8 l -2.5 -1.5 v 3 z" style="fill-rule:evenodd"/></g><path transform="translate(384.57 499.8)" d="m 30 33.5 v 1 h 12.5 c 0.277 0 0.5 -0.223 0.5 -0.5 0 -0.277 -0.223 -0.5 -0.5 -0.5 h -12.5 z" style="fill:#999"/><rect y="532.8" x="413.57" height="2" width="2" rx="1" style="fill:#ff4500ff4500"/></g></g></svg>