<svg xmlns="http://www.w3.org/2000/svg" xmlns:xlink="http://www.w3.org/1999/xlink" viewBox="0 0 256 256"><g transform="translate(0 -796.36)"><path d="m 44.834 833.49 c -201.82 266.38 353.59 304.22 175.35 32.31 -40.634 -61.991 -121.89 -102.86 -175.35 -32.31 z" style="fill:#fff;color:#fff"/><g id="0" transform="matrix(2.81272 0 0 3.15436 57.12 859.45)" style="fill:#ff4500"><g transform="matrix(1 0 0 1.24734 0 -8.153)"><path id="1" d="M 4,9 H44 V39 H4 z"/><path id="2" d="m 6 11 h 36 v 28 h -36 z" style="fill:#ffdead"/><path id="3" d="M 2,27.5679 H46 V41 H2 z"/><use xlink:href="#3"/></g><g style="fill-rule:evenodd"><path d="m 28.13 34.535 c 0 1.362 -1.148 2.465 -2.564 2.465 -1.416 0 -2.564 -1.104 -2.564 -2.465 0 -1.362 1.148 -2.465 2.564 -2.465 1.416 0 2.564 1.104 2.564 2.465 z" transform="matrix(1.19417 0 0 1.12621 -6.528 -4.047)" style="opacity:0.3"/><path transform="translate(-1.564)" d="m 28.13 34.535 c 0 1.362 -1.148 2.465 -2.564 2.465 -1.416 0 -2.564 -1.104 -2.564 -2.465 0 -1.362 1.148 -2.465 2.564 -2.465 1.416 0 2.564 1.104 2.564 2.465 z" style="fill:#ffdead"/></g></g></g></svg>