<svg xmlns="http://www.w3.org/2000/svg" viewBox="0 0 256 256"><defs><linearGradient id="0" gradientUnits="userSpaceOnUse" x1="75.55" y1="62.37" x2="19.643" y2="62.65"><stop style="stop-color:#ff4500"/><stop offset="1" style="stop-color:#ff4500;stop-opacity:0"/></linearGradient></defs><g style="color:#000"><path d="m 2.967 952.88 c 15.875 104.05 156.87 131.89 219.1 57.62 54.798 -55.17 41.16 -160.78 -26.05 -196.99 -77.21 -48.44 -189.69 11.446 -195.83 107.88 c -0.632 10.565 0.26 21.245 2.771 31.493 z" transform="translate(0 -796.36)" style="fill:#fff"/><g transform="matrix(1.18242 0 0 1.11591 56.09 75.72)"><path d="m 16.871 107.08 c -19.14 -3.218 -28.9 -14.576 -30.389 -25.465 h 23.13 c 1.669 0 3 -0.994 3 -2.23 v -58 c 0 -1.236 -1.334 -2.23 -3 -2.23 h -23.13 c 2.121 -16.658 17.534 -25.16 30.389 -25.465 h 7.127 h 77.95 c 15.889 3.407 25.27 7.949 30.389 25.465 h -23.13 c -1.669 0 -3 0.994 -3 2.23 v 58 c 0 1.236 1.334 2.23 3 2.23 h 23.13 v 1.839 c 0 11.521 -24.396 23.625 -30.389 23.625 h -77.95 z m -19.265 -10.683 h 7.271 v -8.476 h -7.271 z m 14.543 0 h 7.271 v -8.476 h -7.271 z m 14.543 0 h 7.271 v -8.476 h -7.271 z m 14.543 0 h 7.271 v -8.476 h -7.271 z m 14.543 0 h 7.262 v -8.476 h -7.262 z m 14.533 0 h 7.271 v -8.476 h -7.271 z m 14.543 0 h 7.271 v -8.476 h -7.271 z m 14.543 0 h 7.272 v -8.476 h -7.272 z m 14.543 0 h 7.271 v -8.476 h -7.271 z m -85.965 -14.782 h 62.865 c 1.669 0 3 -0.994 3 -2.23 v -58 c 0 -1.236 -1.334 -2.23 -3 -2.23 h -62.865 c -1.669 0 -3 0.994 -3 2.23 v 58 c 0 1.236 1.334 2.23 3 2.23 z m -30.37 -68.767 h 7.271 v -8.476 h -7.271 z m 14.543 0 h 7.271 v -8.476 h -7.271 z m 14.543 0 h 7.271 v -8.476 h -7.271 z m 14.543 0 h 7.271 v -8.476 h -7.271 z m 14.543 0 h 7.262 v -8.476 h -7.262 z m 14.533 0 h 7.271 v -8.476 h -7.271 z m 14.543 0 h 7.271 v -8.476 h -7.271 z m 14.543 0 h 7.271 v -8.476 h -7.271 z m 14.543 0 h 7.272 v -8.476 h -7.272 z" style="fill:#ff4500"/><g transform="translate(8.257 -16.525)" style="fill-rule:evenodd"><path d="M 6.15,25.898 C 5.97,27.101 5.877,28.33 5.877,29.586 v 68.828 c 0,1.255 0.094,2.484 0.273,3.687 h 64.719 v -76.2 H 6.15 z" style="fill:url(#0);opacity:0.6"/><g transform="matrix(0.25 0 0 0.25 -1.957 -1.031)"><path d="m 253.44,30 v 81.69 l 26.531,26.16 v 344.16 l 10.438,10 h 103.25 c 48.34,0 98.34,-59.975 98.34,-98.34 V 188.23 L 334.059,30.01 h -26.5 -27.594 z" style="fill:#dc143c;fill-opacity:0.235"/><path d="m 279.95,30 h 27.603 V 482 H 279.95 z" style="fill:#33bac7"/><path d="m 286.86,30 h 13.802 V 482 H 286.86 z" style="fill:#ff4500;opacity:0.8"/><path d="m 279.97,30 v 111.44 l 13.781,9.469 13.813,-9.5 V 29.999 H 279.97 z" style="opacity:0.2"/><path d="m 253.45,30 h 80.61 v 81.67 l -40.31,27.725 -40.31,-27.725 z" style="fill:#ebebeb"/><path d="m 260.29,35.758 30.589,21.05 v 54.88 h 5.758 v -54.88 l 30.589,-21.05 z" style="fill:#ff4500;opacity:0.8"/></g></g></g></g></svg>