<svg xmlns="http://www.w3.org/2000/svg" viewBox="0 0 256 256"><defs><clipPath><path transform="matrix(15.33333 0 0 11.5 415 -125.5)" d="m -24 13 c 0 1.105 -0.672 2 -1.5 2 -0.828 0 -1.5 -0.895 -1.5 -2 0 -1.105 0.672 -2 1.5 -2 0.828 0 1.5 0.895 1.5 2 z" style="fill:#1890d0"/></clipPath><clipPath><path transform="matrix(15.33333 0 0 11.5 415 -125.5)" d="m -24 13 c 0 1.105 -0.672 2 -1.5 2 -0.828 0 -1.5 -0.895 -1.5 -2 0 -1.105 0.672 -2 1.5 -2 0.828 0 1.5 0.895 1.5 2 z" style="fill:#1890d0"/></clipPath><clipPath><path transform="matrix(15.33333 0 0 11.5 415 -125.5)" d="m -24 13 c 0 1.105 -0.672 2 -1.5 2 -0.828 0 -1.5 -0.895 -1.5 -2 0 -1.105 0.672 -2 1.5 -2 0.828 0 1.5 0.895 1.5 2 z" style="fill:#1890d0"/></clipPath><clipPath><path transform="matrix(15.33333 0 0 11.5 415 -125.5)" d="m -24 13 c 0 1.105 -0.672 2 -1.5 2 -0.828 0 -1.5 -0.895 -1.5 -2 0 -1.105 0.672 -2 1.5 -2 0.828 0 1.5 0.895 1.5 2 z" style="fill:#1890d0"/></clipPath><clipPath><path transform="matrix(15.33333 0 0 11.5 415 -125.5)" d="m -24 13 c 0 1.105 -0.672 2 -1.5 2 -0.828 0 -1.5 -0.895 -1.5 -2 0 -1.105 0.672 -2 1.5 -2 0.828 0 1.5 0.895 1.5 2 z" style="fill:#1890d0"/></clipPath><clipPath><path transform="matrix(15.33333 0 0 11.5 415 -125.5)" d="m -24 13 c 0 1.105 -0.672 2 -1.5 2 -0.828 0 -1.5 -0.895 -1.5 -2 0 -1.105 0.672 -2 1.5 -2 0.828 0 1.5 0.895 1.5 2 z" style="fill:#1890d0"/></clipPath><clipPath><path transform="matrix(15.33333 0 0 11.5 415 -125.5)" d="m -24 13 c 0 1.105 -0.672 2 -1.5 2 -0.828 0 -1.5 -0.895 -1.5 -2 0 -1.105 0.672 -2 1.5 -2 0.828 0 1.5 0.895 1.5 2 z" style="fill:#1890d0"/></clipPath><clipPath><path transform="matrix(15.33333 0 0 11.5 415 -125.5)" d="m -24 13 c 0 1.105 -0.672 2 -1.5 2 -0.828 0 -1.5 -0.895 -1.5 -2 0 -1.105 0.672 -2 1.5 -2 0.828 0 1.5 0.895 1.5 2 z" style="fill:#1890d0"/></clipPath><clipPath><path transform="matrix(15.33333 0 0 11.5 415 -125.5)" d="m -24 13 c 0 1.105 -0.672 2 -1.5 2 -0.828 0 -1.5 -0.895 -1.5 -2 0 -1.105 0.672 -2 1.5 -2 0.828 0 1.5 0.895 1.5 2 z" style="fill:#1890d0"/></clipPath><clipPath><path transform="matrix(15.33333 0 0 11.5 415 -125.5)" d="m -24 13 c 0 1.105 -0.672 2 -1.5 2 -0.828 0 -1.5 -0.895 -1.5 -2 0 -1.105 0.672 -2 1.5 -2 0.828 0 1.5 0.895 1.5 2 z" style="fill:#1890d0"/></clipPath></defs><g transform="translate(0 -796.36)"><path d="m 130.42 1050.99 c -26.397 -2.057 -57.29 -14.72 -78.83 -32.31 -26.2 -21.399 -45.35 -54.22 -50.5 -86.57 -1.13 -7.092 -1.453 -23.445 -0.608 -30.714 3.512 -30.18 21.232 -60.19 47.08 -79.75 c 14.03 -10.613 32.581 -19.06 49.988 -22.755 45.3 -9.623 92.56 8.596 124.96 48.17 19.418 23.721 29.473 47.634 31.924 75.92 2.939 33.913 -10.415 70.28 -34.795 94.76 -19.15 19.229 -44.836 31.456 -69.22 32.951 -3.536 0.217 -7.875 0.498 -9.643 0.625 -1.768 0.127 -6.429 -0.02 -10.357 -0.326 z" style="fill:#fff"/><g transform="matrix(0.38396 0 0 0.38506 32.726 827.08)" style="fill:#ff4500"><path d="m 320.37 42.27 c -77.47 -44.757 -77.941 58.27 -77.941 58.27 l 13.584 155.42 l 141.35 -65.994 c 0 0 89.03 -51.923 11.56 -96.68 c -23.933 -13.794 -41.497 -14.12 -54.48 -7.91 -1.142 -14.261 -10.141 -29.336 -34.07 -43.2"/><path d="m 256.02 255.98 l 65.983 141.37 c 0 0 51.915 89.05 96.6 11.561 13.792 -23.936 14.07 -41.503 7.908 -54.48 14.328 -1.142 29.401 -10.142 43.26 -34.08 44.681 -77.49 -58.33 -77.953 -58.33 -77.953 l -155.35 13.586"/><path d="m 256.02 255.98 l -141.42 65.994 c 0 0 -88.96 51.923 -11.56 96.61 23.933 13.794 41.566 14.07 54.48 7.91 1.142 14.331 10.141 29.406 34.07 43.27 77.47 44.688 77.941 -58.34 77.941 -58.34 l -13.515 -155.37"/><path d="m 256.02 255.98 l -65.983 -141.44 c 0 0 -51.915 -88.978 -96.67 -11.561 -13.792 23.936 -14.07 41.573 -7.908 54.48 -14.259 1.142 -29.332 10.142 -43.19 34.08 -44.75 77.49 58.27 77.953 58.27 77.953 l 155.4 -13.517"/></g></g></svg>