<svg xmlns="http://www.w3.org/2000/svg" viewBox="0 0 256 256"><g transform="translate(0 -796.36)"><g transform="matrix(-0.88013 -0.46872 0.47474 -0.86897 -198.77 1788.58)"><g style="color:#000"><path d="m 3.74 950.97 c 19.829 131.87 217.21 135.83 247.04 7.636 30.702 -103.78 -80.47 -188.63 -163.63 -154.63 -55.684 16.07 -100.67 81.83 -83.41 146.99 z" style="fill:#fff"/><path d="M 198.98 128 A 70.984 70.984 0 0 1 128 198.98 70.984 70.984 0 0 1 57.02 128 70.984 70.984 0 0 1 128 57.02 70.984 70.984 0 0 1 198.98 128" transform="matrix(0.53092 0 0 0.53092 60.04 856.4)" style="fill:#d6b7e3"/></g><g style="fill:none;stroke-linecap:round;stroke-width:10"><path d="m 128,924.36 72.33,-41.758" style="stroke:#d6b7e3"/><path d="M 128,924.36 48.54,844.9" style="stroke:#ff4500"/></g><path d="M 142.36 128 A 14.355 14.355 0 0 1 128 142.36 14.355 14.355 0 0 1 113.64 128 14.355 14.355 0 0 1 128 113.64 14.355 14.355 0 0 1 142.36 128" transform="matrix(1.42294 0 0 1.42294 -54.14 742.23)" style="fill:#ff4500;color:#000"/></g><path d="m 152.94 898.46 c 16.932 15.85 15.228 43.4 -3.504 56.53 -6.572 4.609 -5.909 4.93 -8.723 -4.24 l -2.451 -7.992 l 2.127 -1.629 c 5.056 -3.872 8.06 -11.11 7.415 -17.843 -0.389 -4.046 -1.667 -7.27 -4.211 -10.619 -2.565 -3.377 -10.11 -7.395 -14.377 -7.656 -11.597 -0.711 -21.626 7.798 -22.367 18.977 -0.725 10.933 7.697 20.562 18.944 21.664 l 2.388 0.234 l 2.397 7.86 c 1.318 4.323 2.187 7.98 1.931 8.126 -1.066 0.607 -8.936 0.298 -13.04 -0.512 -3.418 -0.674 -5.627 -1.514 -9.733 -3.7 -9.04 -4.817 -14.828 -11.755 -17.886 -21.458 l -1.637 -5.19 l -23.392 0.684 c -24.501 0.716 -25.813 0.595 -27.12 -2.51 -0.851 -2.01 0.666 -5.01 2.865 -5.656 0.843 -0.249 11.671 -0.734 24.06 -1.078 12.393 -0.344 22.772 -0.695 23.06 -0.779 0.293 -0.084 0.782 -1.761 1.089 -3.726 0.458 -2.918 1.178 -4.712 3.964 -9.816 3.02 -5.542 3.81 -6.609 6.993 -9.486 4.748 -4.292 9.245 -6.823 15.18 -8.542 5.722 -1.658 11.851 -2.03 17.246 -1.051 5.64 1.025 14.648 5.535 18.787 9.411 z" style="fill:#ffa07a"/></g></svg>