<svg xmlns="http://www.w3.org/2000/svg" xmlns:xlink="http://www.w3.org/1999/xlink" viewBox="0 0 256 256"><g transform="translate(0 -796.36)" style="fill:#ffdead"><path d="m 3.74 950.97 c 19.829 131.87 217.21 135.83 247.04 7.636 30.702 -103.78 -80.47 -188.63 -163.63 -154.63 -55.684 16.07 -100.67 81.83 -83.41 146.99 z" style="fill:#fff;color:#000"/><g transform="matrix(0.66468 0 0 0.68762 42.551 289.63)"><path d="m 3.652 915.15 c -14.532 149.54 230.55 189.8 249.59 36.24 23.59 -141.2 -198.57 -213.92 -243 -73.62 -4.868 11.862 -4.775 24.833 -6.59 37.37 z" style="fill:#ff4500;color:#000"/><g transform="matrix(6.49807 0 0 8.11051 -24.824 743.09)"><g transform="translate(-0.1 1)" style="stroke:#ffdead"><path d="m 42.824 21.737 c -2.111 0.728 -8.508 4.04 -19 4.04 -10.495 0 -16.853 -3.44 -19 -4.04 -2.965 -0.831 8.508 3.989 19 3.989 10.495 0 20.943 -4.659 19 -3.989 z" style="stroke-linecap:round;stroke-linejoin:round"/><path d="m 42.554 21.14 c -0.919 -0.003 -8.188 3.749 -18.439 3.749 -10.251 0 -17.643 -3.637 -18.597 -3.607 0 0 8.293 3.633 18.544 3.633 10.251 0 18.493 -3.776 18.493 -3.776 z" style="stroke-linecap:square;stroke-linejoin:bevel;stroke-width:0.484"/></g><path id="0" d="m 7.672 21.631 c 0.289 -1.978 0.289 -1.978 0.289 -1.978" style="fill:#ffdead;opacity:0.6;stroke:#ffdead;stroke-linecap:round;stroke-width:0.879"/><path id="1" d="m 14.14 23.517 c 0.289 -1.978 0.289 -1.978 0.289 -1.978" style="fill:#ffdead;opacity:0.6;stroke:#ffdead;stroke-linecap:round;stroke-width:0.879"/><path d="m 23.379 24.559 c 0.044 -1.999 0.044 -1.999 0.044 -1.999" style="opacity:0.6;stroke:#ffdead;stroke-linecap:round;stroke-width:0.879"/><g transform="matrix(-1 0 0 1 47.06 0.323)"><use xlink:href="#0" width="1" height="1"/><use xlink:href="#1" width="1" height="1"/></g><path d="m 23.526,28.584 2.669,2.669 -2.649,0.044 -2.69,-0.044 z" style="opacity:0.6;stroke:#ffdead"/><g line-height="125%" style="letter-spacing:0;word-spacing:0;font-family:Sans"><text x="13.513" y="20.02" style="font-size:4.208;opacity:0.6"><tspan x="13.513" y="20.02">5</tspan></text><text x="29.892" y="20.475" style="font-size:4.134;opacity:0.6"><tspan x="29.892" y="20.475">10</tspan></text></g></g></g></g></svg>