<svg xmlns="http://www.w3.org/2000/svg" viewBox="0 0 256 256"><g transform="translate(0 -796.36)"><path d="m 124.4 1049.99 c -12.627 -1.365 -26.716 -5.548 -39.29 -11.664 c -42.41 -20.634 -74.826 -63.733 -83.7 -111.27 -2.025 -10.857 -1.855 -33.686 0.327 -43.874 5.306 -24.771 17.1 -44.45 36.94 -61.64 c 13.638 -11.817 31.81 -20.484 49.39 -23.558 39.912 -6.976 85.83 8.941 120.48 41.766 31.837 30.16 48.545 70.36 44.1 106.1 -2.263 18.19 -7.953 33.21 -18.832 49.715 -16.938 25.701 -47.15 46.04 -78.35 52.75 -6.673 1.435 -24.446 2.396 -31.07 1.68 z m 62.23 -78.52 c 1.085 -0.81 2.635 -2.36 3.445 -3.445 1.434 -1.92 1.478 -2.896 1.671 -36.949 0.223 -39.39 0.348 -38.36 -5.079 -41.947 l -2.872 -1.901 h -59.34 h -59.34 l -2.527 1.572 c -1.39 0.865 -3.319 2.954 -4.286 4.643 l -1.759 3.071 l -0.236 30.714 c -0.13 16.893 -0.028 32.386 0.225 34.428 0.533 4.291 2.589 7.703 6.04 10.03 l 2.428 1.636 l 59.825 -0.19 c 59.16 -0.188 59.847 -0.207 61.797 -1.663 z" style="fill:#fff"/><path d="m 63.01 974.94 c -1.365 -0.756 -3.365 -2.857 -4.444 -4.67 l -1.962 -3.295 l -0.222 -35.799 c -0.122 -19.69 -0.026 -36.37 0.213 -37.06 0.31 -0.898 7.173 6.198 23.924 24.733 23.432 25.929 28.13 30.34 35.35 33.22 4.852 1.933 14.3 1.967 19.05 0.069 8.358 -3.338 12.319 -6.987 36.701 -33.814 l 23.915 -26.314 l -0.214 37.833 c -0.2 35.37 -0.305 38 -1.61 40.4 -0.768 1.411 -2.435 3.263 -3.703 4.117 -2.204 1.483 -5.03 1.562 -63.41 1.755 -55.807 0.184 -61.32 0.083 -63.59 -1.172 z" style="fill:#ff4500"/><path d="m 115.65 952.29 c -6.33 -2.326 -11.507 -6.525 -26.67 -21.63 -7.842 -7.812 -18.536 -18.443 -23.766 -23.626 -8.668 -8.59 -9.508 -9.663 -9.508 -12.146 0 -3.302 3.564 -8.972 6.987 -11.12 2.271 -1.423 4.516 -1.475 63.707 -1.478 l 61.35 -0.003 l 3.062 2.279 c 3.544 2.637 4.407 4.046 5.064 8.267 0.459 2.947 0.328 3.2 -3.525 6.814 -2.201 2.064 -12.758 12.585 -23.461 23.379 -26.885 27.11 -30.785 29.901 -42.568 30.417 -5.249 0.23 -7.593 -0.024 -10.676 -1.157 z" style="fill:#ffa07a"/></g></svg>