<svg xmlns="http://www.w3.org/2000/svg" xmlns:xlink="http://www.w3.org/1999/xlink" viewBox="0 0 256 256"><defs><clipPath id="0"><path transform="matrix(15.33333 0 0 11.5 415 -125.5)" d="m -24 13 c 0 1.105 -0.672 2 -1.5 2 -0.828 0 -1.5 -0.895 -1.5 -2 0 -1.105 0.672 -2 1.5 -2 0.828 0 1.5 0.895 1.5 2 z"/></clipPath></defs><g transform="translate(0 -796.36)"><path d="m -1067.28 1935.73 c 48.956 88.52 202.34 54.16 228.29 -18.719 30.922 -86.82 -49.563 -251.7 -185.88 -155.11 -45.916 33.728 -91.37 85.31 -42.41 173.83 z" transform="translate(1088.39 -936.13)" style="fill:#fff;color:#000"/><g transform="matrix(6.74612 0 0 6.6482 -32.26 768.16)" style="fill:#ff4500"><g style="clip-path:url(#0)"><g transform="translate(1 1)" style="opacity:0.1"><path d="m 18 24 c -3.313 0 -6 2.688 -6 6 0 3.313 2.688 6 6 6 3.313 0 6 -2.688 6 -6 h -6" id="1" style="fill:#ff4500"/><path d="m 25.02 29 h 1 v 0.996 h -1" id="2" style="fill:#ff4500"/><path d="m 19 27 h 1 v 2 h -1" id="3" style="fill:#ff4500"/><path d="m 21 28 v -1 h 2 v 1" id="4" style="fill:#ff4500"/><path d="m 34 24 h 1 v 0.996 h -1" id="5" style="fill:#ff4500"/><path d="m 20 16 h 0.996 v 1 h -0.996" id="6" style="fill:#ff4500"/><path d="m 19 24 h 1 v 0.996 h -1" id="7" style="fill:#ff4500"/><path d="m 29 16 h 0.996 v 1 h -0.996" id="8" style="fill:#ff4500"/><path d="m 25.02 19 v -1 h 2 v 1" id="9" style="fill:#ff4500"/><path d="m 22 19 h 1 v 1.996 h -1" id="A" style="fill:#ff4500"/><path d="m 21 23 v 1 h 1 v 1 h 1 v -2" id="B" style="fill:#ff4500"/><path d="m 26 26 h -1 v 1 h -0.996 v 1 h 1.996" id="C" style="fill:#ff4500"/><path d="m 28 24 v 0.996 h 1 v 1 h 0.996 v -1.996" id="D" style="fill:#ff4500"/><path d="m 26 21 v 1 h -1 v 1 h 1 v 1 h 1 v -3" id="E" style="fill:#ff4500"/><path d="m 19 20 h 1 v -1 h 0.996 v -1 h -1.996" id="F" style="fill:#ff4500"/><path d="m 27 15 v -0.996 h 3 v 0.996" id="G" style="fill:#ff4500"/><path d="m 28 13.988 v -1 h 1 v 1" id="H" style="fill:#ff4500"/><path d="m 31 22 h 1 v 1 h -1" id="I" style="fill:#ff4500"/><path d="m 35 21 v -0.996 h -1 v -1 h -0.996 v 1.996" id="J" style="fill:#ff4500"/><path d="m 25.02 13 h 1 v 2 h -1" id="K" style="fill:#ff4500"/><path d="m 22 16 v -0.996 h 2 v 0.996" id="L" style="fill:#ff4500"/><path d="m 31.996 13 h 1 v 1 h -1" id="M" style="fill:#ff4500"/><path d="m 31 20 h -1 v -1 h -0.996 v 1 h -1 v 0.996 h 3 v -0.996" id="N" style="fill:#ff4500"/><path d="m 33 18 v -1 h 1.996 v 1" id="O" style="fill:#ff4500"/></g></g><g style="clip-path:url(#0)"><g><use xlink:href="#1"/><use xlink:href="#2"/><use xlink:href="#3"/><use xlink:href="#4"/><use xlink:href="#5"/><use xlink:href="#6"/><use xlink:href="#7"/><use xlink:href="#8"/><use xlink:href="#9"/><use xlink:href="#A"/><use xlink:href="#B"/><use xlink:href="#C"/><use xlink:href="#D"/><use xlink:href="#E"/><use xlink:href="#F"/><use xlink:href="#G"/><use xlink:href="#H"/><use xlink:href="#I"/><use xlink:href="#J"/><use xlink:href="#K"/><use xlink:href="#L"/><use xlink:href="#M"/><use xlink:href="#N"/><use xlink:href="#O"/></g></g></g></g></svg>