<svg xmlns="http://www.w3.org/2000/svg" xmlns:xlink="http://www.w3.org/1999/xlink" viewBox="0 0 256 256"><g transform="translate(0 -796.36)"><path d="m 157.3 1049.11 c 239.91 -49.981 -17.642 -393.86 -139.59 -187.29 c -52.27 80.25 16.2 213 139.59 187.29 z" style="fill:#fff;color:#000"/><g transform="matrix(0.35411 0 0 0.36982 46.23 1005.58)" style="fill:#ff4500;stroke:#ffdead"><path d="m 252.08 -404.43 l 20.364 89.36 l -45.26 70.63 l -71.2 -44.08 l -20.364 -89.36 z" id="0"/><path d="m 35.981 -220.12 l 89.36 -20.364 l 70.63 45.26 l -44.08 71.2 l -89.36 20.364 z" id="1"/><path d="m 220.91 -3.628 l -20.364 -89.36 l 45.26 -70.63 l 71.2 44.08 l 20.364 89.36 z" id="2"/><path d="m 438.86 -188.36 l -89.36 20.364 l -70.63 -45.26 l 44.08 -71.2 l 89.36 -20.364 z" id="3"/><g style="stroke-linecap:round;stroke-linejoin:round;stroke-width:19.439"><use xlink:href="#0"/><use xlink:href="#1"/><use xlink:href="#2"/><use xlink:href="#3"/></g></g></g></svg>