<svg xmlns="http://www.w3.org/2000/svg" xmlns:xlink="http://www.w3.org/1999/xlink" viewBox="0 0 256 256"><defs><path id="0" d="m 83.939 14.346 c 0 0.888 -0.72 1.608 -1.608 1.608 -0.888 0 -1.608 -0.72 -1.608 -1.608 0 -0.888 0.72 -1.608 1.608 -1.608 0.888 0 1.608 0.72 1.608 1.608 z" style="stroke-opacity:0.627;fill:#cfcfcf;stroke:#000;fill-rule:evenodd;stroke-width:0.1"/></defs><g transform="translate(0 -796.36)"><path d="m 3.74 950.97 c 19.829 131.87 217.21 135.83 247.04 7.636 30.702 -103.78 -80.47 -188.63 -163.63 -154.63 -55.684 16.07 -100.67 81.83 -83.41 146.99 z" style="fill:#fff;color:#000"/><g transform="matrix(1.68418 0 0 1.65681 45.596 847.55)"><g style="fill:#ffdead"><path d="M 6,6 H90 V90 H6 z"/><g style="fill:#ff4500;color:#000"><path d="M 11,23 H85 V83 H11 z" style="opacity:0.99"/><path d="M 12,24 H84 V82 H12 z" style="opacity:0.99"/></g><g><path d="m 14 7.481 h 2 l -1 1.519 l -1 -1.519 z"/><g style="color:#000"><path d="m 69 8.03 h 2 v 0.744 h -2 z"/><path d="m 75 7 v 2 h 2 v -2 h -2 z m 0.531 0.531 h 0.938 v 0.938 h -0.938 v -0.938 z"/><path d="m 81.4 7 l -0.375 0.375 l 0.594 0.594 l -0.594 0.594 l 0.375 0.406 l 0.594 -0.594 l 0.594 0.594 l 0.406 -0.406 l -0.594 -0.594 l 0.594 -0.594 l -0.406 -0.375 l -0.594 0.594 l -0.594 -0.594 z"/></g></g></g><use transform="translate(-0.338 -6.092)" xlink:href="#0"/><path d="m 81.38 7.274 l -0.375 0.375 l 0.594 0.594 l -0.594 0.594 l 0.375 0.406 l 0.594 -0.594 l 0.594 0.594 l 0.406 -0.406 l -0.594 -0.594 l 0.594 -0.594 l -0.406 -0.375 l -0.594 0.594 l -0.594 -0.594 z" style="fill:#ff4500;color:#000"/><use transform="translate(-6.161 -6.103)" xlink:href="#0"/><use transform="translate(-12.415 -6.103)" xlink:href="#0"/><g style="fill:#ff4500"><path d="m 75.19 7.611 h 2 l -1 1.519 l -1 -1.519 z"/><path d="m 70.932 8.892 l -2 -0.017 l 1.013 -1.511 l 0.987 1.528 z"/></g><g transform="matrix(1.36983 0 0 1.39256 -18.02 -20.17)" style="fill:#d40000;color:#000;fill-rule:evenodd"><path d="m 66.13,41.38 c -12.501,0 -22.625,10.1 -22.625,22.531 0,12.431 10.124,22.5 22.625,22.5 12.501,0 22.656,-10.07 22.656,-22.5 C 88.786,51.48 78.631,41.38 66.13,41.38 z m 0,3.844 c 10.368,0 18.781,8.378 18.781,18.688 0,10.31 -8.413,18.656 -18.781,18.656 -10.368,0 -18.75,-8.346 -18.75,-18.656 0,-10.31 8.382,-18.688 18.75,-18.688 z"/><path transform="matrix(0.66691 0.74514 -0.74514 0.66691 0 0)" d="m 89.6,-27.27 h 4.053 V 13.479 H 89.6 z"/></g></g></g></svg>