<svg xmlns="http://www.w3.org/2000/svg" viewBox="0 0 256 256"><g transform="translate(0 -796.36)" style="fill:#fff"><g transform="matrix(0.99632 0 0 0.99153 4.184 7.834)" style="fill:#fff;color:#000"><path d="m 226.09 992.34 c 92.05 -130.93 -77.948 -263.6 -186.39 -156.91 -102.17 100.51 -7.449 256.68 119.69 207.86 26.526 -10.185 49.802 -26.914 66.7 -50.948 z" style="fill:#fff"/><g transform="matrix(1.11593 0 0 1.37937 -18.352 -349.06)" style="fill:#ff4500"><path d="m 115.38,952.82 v 13.656 h -15.281 c -2.771,0 -5,2.229 -5,5 0,2.771 2.229,5 5,5 h 55.813 c 2.771,0 5,-2.229 5,-5 0,-2.771 -2.229,-5 -5,-5 H 140.631 V 952.82 h -25.25 z"/><path d="m 63.19,872.63 c -2.348,0 -4.25,1.902 -4.25,4.25 v 76.875 c 0,2.348 1.902,4.219 4.25,4.219 h 129.63 c 2.348,0 4.25,-1.871 4.25,-4.219 V 876.88 c 0,-2.348 -1.902,-4.25 -4.25,-4.25 z m 8.288,11.215 h 113.05 v 62.913 H 71.478 z"/></g></g><g transform="matrix(3.18688 0 0 3.47578 49.39 847.43)" style="fill:#ff4500"><path d="M 10.506,20 10,23 7,23.424 10,24 10.55,27 11,24 14,23.534 11,23 10.506,20 z" style="fill-rule:evenodd"/><path d="m 36.924 13.443 c 0.424 1.018 0.647 2.145 0.647 3.319 0 4.698 -3.752 8.506 -8.38 8.506 -1.352 0 -2.616 -0.322 -3.747 -0.899 1.273 3.054 4.262 5.187 7.733 5.187 4.628 0 8.38 -3.808 8.38 -8.506 0 -3.326 -1.891 -6.207 -4.633 -7.607 z" style="stroke-opacity:0.29;opacity:0.7;stroke:#fff;stroke-linejoin:round;stroke-width:0.887"/><g style="fill-rule:evenodd"><path d="M 13.506,8 13,11 10,11.42369 13,12 13.54986,15 14,12 l 3,-0.46582 -3,-0.534 -0.494,-3 z"/><path d="M 19.506,15 19,18 16,18.424 19,19 19.54986,22 20,19 23,18.53418 20,18 19.506,15 z"/><path d="m 27.506,10.466 -0.506,3 -3,0.42369 3,0.57631 0.54986,3 0.45014,-3 3,-0.466 -3,-0.534 -0.494,-3 z"/></g></g><path d="m 148.36 150.99 c -3.402 -1.098 -4.995 -1.957 -7.918 -4.267 -2.072 -1.638 -6.224 -6.441 -6.224 -7.201 0 -0.137 1.22 0.038 2.711 0.389 8.715 2.051 17.654 -0.796 24.708 -7.869 4.1 -4.111 6.861 -9.1 8.202 -14.813 0.787 -3.354 1.077 -11.904 0.469 -13.821 -0.584 -1.839 0.574 -1.106 3.03 1.918 4.505 5.547 6.592 11.554 6.592 18.974 0 5.42 -0.934 9.331 -3.327 13.929 -3.14 6.03 -8.04 10.408 -14.05 12.528 -3.942 1.392 -10.278 1.495 -14.192 0.232 z" transform="translate(0 796.36)" style="fill:#ff4500;fill-opacity:0.992;fill-rule:evenodd"/></g></svg>