<svg xmlns="http://www.w3.org/2000/svg" viewBox="0 0 256 256"><defs><clipPath><path transform="translate(0 796.36)" d="m 88.12 249.44 c -42.02 -14.14 -73.35 -47.748 -83.985 -90.07 -2.796 -11.124 -3.211 -15.198 -3.208 -31.471 0.002 -10.417 0.209 -15.875 0.732 -19.348 2.808 -18.628 10.519 -37.903 21.385 -53.45 c 3.959 -5.666 8.345 -10.931 9.102 -10.926 0.328 0.002 10.489 18.31 22.579 40.683 12.09 22.373 22.375 41.33 22.854 42.14 0.479 0.802 0.925 2.441 0.99 3.643 0.343 6.316 2.524 14.21 5.642 20.423 2.954 5.887 5.065 8.733 10.435 14.07 6.714 6.67 12.889 10.286 21.732 12.729 3.166 0.874 5.105 1.05 11.575 1.05 8.826 0 12.602 -0.762 19.264 -3.887 2.046 -0.96 3.937 -1.665 4.202 -1.568 0.265 0.097 -11.06 17.665 -25.16 39.04 l -25.639 38.861 l -3.094 0.112 c -2.555 0.093 -4.195 -0.258 -9.409 -2.01 z"/><path d="m 112.36 1051.52 c -10 -1.449 -12.156 -1.82 -12.532 -2.156 -0.249 -0.222 1.738 -3.747 4.55 -8.07 7.166 -11.02 49.772 -74.65 50.26 -75.05 3.575 -2.992 8.635 -8.04 10.575 -10.554 3.362 -4.353 7.558 -12.914 9.07 -18.494 6.193 -22.925 -2.593 -47.15 -21.7 -59.837 l -2.961 -1.966 l 17.02 0.296 c 9.364 0.163 31.17 0.434 48.46 0.603 l 31.435 0.307 l 1.546 4.189 c 2.246 6.086 4.678 15.09 5.935 21.982 1.525 8.36 1.925 28.859 0.739 37.828 -3.081 23.278 -12.813 45.72 -27.802 64.11 -20.476 25.12 -51.46 42.2 -84.15 46.39 -5.312 0.681 -26.646 0.986 -30.446 0.436 z"/><path transform="translate(0 796.36)" d="m 67.99 108.87 c -26.706 -49.3 -34.7 -63.724 -35.756 -64.53 -0.582 -0.443 0.578 -1.795 6.462 -7.529 14.74 -14.365 30.11 -23.775 49.14 -30.08 13.848 -4.588 24.743 -6.299 40.11 -6.299 c 21.31 0 37.805 3.81 56.835 13.13 25.294 12.383 46.19 33.579 58.52 59.35 1.611 3.369 2.93 6.372 2.93 6.675 0 0.56 -10.549 0.495 -71.17 -0.437 l -24.288 -0.374 l -3.931 -1.764 c -6.757 -3.03 -10.646 -3.84 -18.658 -3.868 -5.03 -0.018 -7.979 0.208 -10.316 0.788 -14.508 3.604 -26.28 12.948 -33.29 26.419 -3.585 6.891 -5.247 13.08 -6.332 23.583 l -0.337 3.267 l -9.927 -18.326 z"/></clipPath><clipPath><circle r="128" cy="924.36" cx="128" style="fill:#4285f4"/></clipPath><clipPath><circle r="128" cy="924.36" cx="128" style="fill:#72a854"/></clipPath><clipPath><circle r="128" cy="922.85" cx="112.26" style="fill:#0e85cd"/></clipPath><clipPath><circle r="128" cy="128" cx="128" style="fill:#292929;fill-opacity:0.26"/></clipPath><clipPath><circle r="128" cy="924.36" cx="128" style="fill:#4285f4"/></clipPath><clipPath><path transform="matrix(15.33333 0 0 11.5 415 -125.5)" d="m -24 13 c 0 1.105 -0.672 2 -1.5 2 -0.828 0 -1.5 -0.895 -1.5 -2 0 -1.105 0.672 -2 1.5 -2 0.828 0 1.5 0.895 1.5 2 z"/></clipPath><clipPath><path d="m 148 97 h 77.63 v 24 h -77.62"/></clipPath><clipPath><rect rx="4.099" width="23.802" height="23.89" x="12.03" y="11.98" style="fill:#fff"/></clipPath><clipPath><circle r="128" cy="924.36" cx="128" style="fill:#f16529"/></clipPath><clipPath><path d="m 74 56.824 h 129 v 139.69 h -129"/></clipPath><clipPath><circle r="99.31" cy="933.98" cx="132.22" style="fill:#0f9d58"/></clipPath><clipPath><path d="m 171 132 h 54.625 v 24 h -54.625"/></clipPath><clipPath><path d="m 27.707 56.824 h 82.29 v 139.69 h -82.29"/></clipPath></defs><g transform="translate(0.461 2.13)"><path d="m 223.46 37.957 c 146.42 222.08 -253.5 308.02 -221.64 79.56 12.991 -93.18 165.63 -164.51 221.64 -79.56 z" style="fill:#fff;color:#000"/><path d="m 127.87 62.919 c -5.167 0 -9.523 2.921 -11.505 7.08 -3.937 -2.664 -9.416 -3.169 -13.89 -0.739 -4.437 2.404 -6.795 7.05 -6.349 11.544 -4.791 -0.422 -9.738 1.795 -12.3 5.959 -2.584 4.199 -2.052 9.345 0.795 13.03 -4.431 1.856 -7.541 5.946 -7.541 10.792 0 4.846 3.115 8.936 7.541 10.797 -2.847 3.69 -3.378 8.832 -0.795 13.03 2.562 4.164 7.514 6.376 12.3 5.959 -0.446 4.494 1.912 9.141 6.349 11.544 1.987 1.078 4.184 1.5 6.349 1.491 v 50.829 l 19.05 -17.877 l 19.05 17.877 v -50.829 c 2.165 0.013 4.361 -0.413 6.349 -1.491 4.437 -2.404 6.795 -7.05 6.349 -11.544 4.791 0.422 9.738 -1.795 12.3 -5.959 2.584 -4.199 2.052 -9.345 -0.795 -13.03 4.431 -1.865 7.541 -5.955 7.541 -10.806 0 -4.846 -3.115 -8.936 -7.541 -10.797 2.847 -3.69 3.378 -8.832 0.795 -13.03 -2.562 -4.164 -7.514 -6.376 -12.3 -5.959 0.446 -4.494 -1.912 -9.141 -6.349 -11.544 -4.474 -2.421 -9.953 -1.921 -13.89 0.743 -1.982 -4.151 -6.343 -7.07 -11.505 -7.07 z m 0 17.686 c 17.531 0 31.744 13.335 31.744 29.787 0 16.452 -14.212 29.787 -31.744 29.787 -17.531 0 -31.744 -13.335 -31.744 -29.787 0 -16.452 14.212 -29.787 31.744 -29.787 z m 0 5.959 c -14.02 0 -25.395 10.671 -25.395 23.832 0 13.17 11.371 23.832 25.395 23.832 14.02 0 25.395 -10.671 25.395 -23.832 0 -13.17 -11.371 -23.832 -25.395 -23.832 z" style="fill:#ff4500"/></g></svg>