<svg xmlns="http://www.w3.org/2000/svg" viewBox="0 0 256 256"><g transform="translate(0 -796.36)"><path d="m 3.25 953.66 c 49.981 239.91 393.86 -17.642 187.29 -139.59 -80.25 -52.27 -213 16.2 -187.29 139.59 z" style="fill:#fff;color:#000"/><g transform="matrix(8.32517 0 0 8.12942 -4456.22 -2893.86)" style="fill:#ff4500"><g style="color:#000"><path d="m 542 474 c 0.004 -0.224 0.112 -0.531 0.304 -0.704 l 2.162 -2.116 c 0.233 -0.244 0.787 -0.293 1.01 -0.157 0.081 0.002 1.135 0.631 1.288 0.865 0.617 0.946 -0.344 1.827 -1.174 1.547 l -0.35 -0.212 l -1.602 1.572 c -0.637 0.526 -1.692 0.092 -1.639 -0.795 z"/><path d="m 553.62 462.12 c 0.39 -0.101 0.791 -0.111 1.171 -0.081 l -1.36 2.306 c -0.279 0.474 -0.123 1.071 0.354 1.348 l 0.874 0.508 c 0.477 0.277 1.077 0.121 1.357 -0.353 l 1.36 -2.306 c 0.212 0.314 0.4 0.666 0.502 1.053 0.486 1.853 -0.631 3.748 -2.496 4.234 -0.39 0.101 -0.791 0.111 -1.171 0.081 l -0.802 1.115 l -3.41 -0.03 c 0 0 1.519 -2.577 1.627 -2.595 -0.212 -0.314 -0.4 -0.666 -0.502 -1.053 -0.486 -1.853 0.631 -3.748 2.496 -4.234 z"/><path d="m 545.6 462.72 c -0.23 0.047 -0.443 0.131 -0.655 0.219 -0.017 0.624 0.087 1.442 -0.156 1.656 -0.239 0.211 -1.037 0.034 -1.654 -0.031 -0.131 0.236 -0.235 0.485 -0.312 0.75 0.477 0.396 1.139 0.839 1.155 1.156 0.016 0.321 -0.625 0.805 -1.061 1.25 0.103 0.258 0.25 0.494 0.406 0.719 0.607 -0.126 1.364 -0.374 1.623 -0.188 0.263 0.189 0.265 1.01 0.343 1.625 0.249 0.075 0.512 0.104 0.78 0.125 0.281 -0.555 0.567 -1.32 0.874 -1.406 0.315 -0.089 0.962 0.458 1.498 0.781 0.218 -0.152 0.412 -0.337 0.593 -0.531 -0.253 -0.572 -0.72 -1.292 -0.593 -1.594 0.127 -0.302 0.974 -0.47 1.56 -0.688 0.004 -0.074 0.031 -0.144 0.031 -0.219 0 -0.191 -0.034 -0.379 -0.062 -0.563 -0.605 -0.161 -1.465 -0.241 -1.623 -0.531 -0.157 -0.288 0.241 -1.061 0.437 -1.656 -0.201 -0.179 -0.419 -0.337 -0.655 -0.469 -0.5 0.375 -1.083 0.994 -1.404 0.938 -0.316 -0.056 -0.662 -0.82 -0.999 -1.344 -0.04 0.007 -0.085 -0.008 -0.125 0 z m 0.624 1.875 c 0.931 0 1.685 0.756 1.685 1.688 0 0.932 -0.754 1.688 -1.685 1.688 -0.931 0 -1.685 -0.756 -1.685 -1.688 0 -0.932 0.754 -1.688 1.685 -1.688 z"/></g><path d="m 544.99 471 h 9.985 l 0.008 6.06 c 0 0.492 -0.472 0.938 -0.995 0.938 h -7.992 c -0.538 0 -0.999 -0.43 -0.999 -1 z" style="color:#bebebe"/><path d="m 557.96 473.98 c -0.004 -0.224 -0.112 -0.531 -0.304 -0.704 l -2.162 -2.116 c -0.233 -0.244 -0.787 -0.293 -1.01 -0.157 -0.081 0.002 -1.135 0.631 -1.288 0.865 -0.617 0.946 0.344 1.827 1.174 1.547 l 0.35 -0.212 l 1.602 1.572 c 0.637 0.526 1.692 0.092 1.639 -0.795 z" style="color:#000"/></g></g></svg>