<svg xmlns="http://www.w3.org/2000/svg" viewBox="0 0 256 256"><g transform="translate(0 -796.36)"><path d="m 211.57 834.41 c 200.35 265.17 -351.01 302.84 -174.07 32.16 40.34 -61.709 121 -102.39 174.07 -32.16 z" style="fill:#fff;color:#000"/><path d="m 63.27 897.37 h 138.56 c 4.38 0 7.928 3.448 7.928 7.697 v 54.57 c 0 4.253 -3.547 7.697 -7.928 7.697 h -138.56 c -4.381 0 -7.928 -3.444 -7.928 -7.697 v -54.57 c 0 -4.249 3.547 -7.697 7.928 -7.697 z" style="fill:none;stroke:#ff4500;stroke-linecap:round;stroke-linejoin:round;stroke-width:10.143"/><path d="m 68.973 907.18 c -1.425 0 -2.572 1.116 -2.572 2.5 v 44.974 c 0 1.383 1.147 2.5 2.572 2.5 h 62.04 c 1.428 0 2.575 -1.116 2.575 -2.5 v -44.974 c 0 -1.384 -1.147 -2.5 -2.575 -2.5 z m 18.02 34.982 v -19.991 h 5.146 v 19.991 z m 10.294 0 v -19.991 h 5.147 v 19.991 z m 10.292 0 v -19.991 h 5.149 v 19.991 z" style="fill:#ff4500"/></g></svg>