<svg xmlns="http://www.w3.org/2000/svg" viewBox="0 0 256 256"><defs><clipPath><rect width="84" height="84" rx="6" x="6" y="6" style="fill:#ff4500"/></clipPath></defs><g transform="translate(0 -796.36)"><path d="m 52.774 1027.39 c 192.46 127.95 311 -280.09 62.2 -226.07 -102.82 23.02 -165.22 167.39 -62.2 226.07 z" style="fill:#fff;color:#000"/><g transform="matrix(1.31811 0 0 1.46829 66.59 854.06)"><g transform="matrix(1.15818 0 0 1.16622 -7.874 -7.791)" style="color:#000"><path d="m 19 13 c -3.289 0 -6 2.711 -6 6 v 58 c 0 3.289 2.711 6 6 6 h 58 c 3.289 0 6 -2.711 6 -6 v -58 c 0 -3.289 -2.711 -6 -6 -6 h -58 z m 0 4 h 58 c 1.143 0 2 0.857 2 2 v 58 c 0 1.143 -0.857 2 -2 2 h -58 c -1.143 0 -2 -0.857 -2 -2 v -58 c 0 -1.143 0.857 -2 2 -2 z" style="opacity:0.15"/><path d="m 17 14 c -1.662 0 -3 1.338 -3 3 v 62 c 0 1.662 1.338 3 3 3 h 62 c 1.662 0 3 -1.338 3 -3 v -62 c 0 -1.662 -1.338 -3 -3 -3 h -62 z m 0 1.938 h 62 c 0.618 0 1.063 0.444 1.063 1.063 v 62 c 0 0.618 -0.444 1.063 -1.063 1.063 h -62 c -0.618 0 -1.063 -0.444 -1.063 -1.063 v -62 c 0 -0.618 0.444 -1.063 1.063 -1.063 z" style="opacity:0.3"/><path d="m 17 14 c -1.662 0 -3 1.338 -3 3 v 62 c 0 1.662 1.338 3 3 3 h 62 c 1.662 0 3 -1.338 3 -3 v -62 c 0 -1.662 -1.338 -3 -3 -3 h -62 z m 0 0.969 h 62 c 1.14 0 2.031 0.891 2.031 2.031 v 62 c 0 1.14 -0.891 2.031 -2.031 2.031 h -62 c -1.14 0 -2.031 -0.891 -2.031 -2.031 v -62 c 0 -1.14 0.891 -2.031 2.031 -2.031 z" style="opacity:0.6"/></g><g style="fill:#ffdead;fill-rule:evenodd"><path d="m 5.818 5.731 h 84.64 v 84.45 h -84.64 z" style="fill:#ff4500"/><path d="m -0.256 16.907 h 99.88 v 78.17 h -99.88 z"/></g><text transform="scale(0.99271 1.0073)" x="33.27" y="79.7" line-height="125%" style="letter-spacing:0;word-spacing:0;font-size:30.723;font-family:KanjiStrokeOrders;fill:#ff4500;font-weight:bold"><tspan x="33.27" y="79.7" style="font-size:38.02">&lt;/&gt;</tspan></text></g></g></svg>