<svg xmlns="http://www.w3.org/2000/svg" xmlns:xlink="http://www.w3.org/1999/xlink" viewBox="0 0 256 256"><defs><clipPath><path d="m -24 13 c 0 1.105 -0.672 2 -1.5 2 -0.828 0 -1.5 -0.895 -1.5 -2 0 -1.105 0.672 -2 1.5 -2 0.828 0 1.5 0.895 1.5 2 z" transform="matrix(15.33333 0 0 11.5 415 -125.5)"/></clipPath></defs><g transform="matrix(1 0 0 0.99132 -0.002 -788.34)" style="color:#000"><path d="m 229.85 992.46 c 91.27 -130.37 -77.29 -262.47 -184.81 -156.24 -101.3 100.08 -7.386 255.58 118.68 206.97 c 26.301 -10.141 49.38 -26.799 66.13 -50.73 z" style="fill:#fff"/><g transform="matrix(0.85373 0 0 0.83132 16.502 208.63)" style="fill:#ffa07a"><path id="0" d="m 115.38,952.82 v 13.656 h -15.281 c -2.771,0 -5,2.229 -5,5 0,2.771 2.229,5 5,5 h 55.813 c 2.771,0 5,-2.229 5,-5 0,-2.771 -2.229,-5 -5,-5 H 140.631 V 952.82 h -25.25 z" style="fill:#ffa07a"/><path id="1" d="m 63.19,872.63 c -2.348,0 -4.25,1.902 -4.25,4.25 v 76.875 c 0,2.348 1.902,4.219 4.25,4.219 h 129.63 c 2.348,0 4.25,-1.871 4.25,-4.219 V 876.88 c 0,-2.348 -1.902,-4.25 -4.25,-4.25 z m 8.288,11.215 h 113.05 v 62.913 H 71.478 z" style="fill:#ffa07a"/></g><g style="fill:#ff4500"><g transform="matrix(0.85373 0 0 0.78917 16.502 150.04)"><use xlink:href="#0" width="1" height="1"/><use xlink:href="#1" width="1" height="1" style="stroke:#ff4500"/></g><g transform="matrix(1 0 0 1.0088 0.002 795.25)" style="fill-rule:evenodd"><path d="m 68.45 108.19 c -0.403 -0.403 -0.733 -14.755 -0.733 -31.893 0 -27.414 0.206 -31.24 1.716 -31.819 2.591 -0.994 111.43 -0.757 113.01 0.246 1.067 0.677 1.309 7.87 1.085 32.25 l -0.288 31.383 l -57.03 0.281 c -31.367 0.154 -57.36 -0.049 -57.763 -0.452 z m 106.66 -31.29 v -25.492 h -49.36 h -49.36 v 25.492 v 25.492 h 49.36 h 49.36 v -25.492 z"/><path d="m 99.41 122.81 c -3.67 -3.67 0.573 -6.311 10.14 -6.311 5.565 0 5.895 -0.152 5.895 -2.712 0 -2.702 0.036 -2.712 10.305 -2.712 10.269 0 10.305 0.01 10.305 2.712 0 2.606 0.267 2.712 6.844 2.712 8.04 0 11.787 1.933 9.853 5.089 -1.096 1.789 -3.447 1.987 -26.611 2.252 -18.851 0.215 -25.75 -0.051 -26.73 -1.031 z"/></g></g></g></svg>