<svg xmlns="http://www.w3.org/2000/svg" viewBox="0 0 256 256"><g transform="translate(0 -796.36)"><g style="color:#000"><path d="m 15.08 998.94 c -111.21 -381.34 438.25 -138.25 162.63 32.359 -50.643 31.19 -136.61 33.36 -162.63 -32.359 z" style="fill:#fff"/><path d="m -3363.42 2101.72 v 10 h 1 v -7 h 1 h 8 h 2 v -3 z m 2 4 v 10 h 12 v -10 z m 2 8 c -6.51 5.657 -3.255 2.829 0 0 z" transform="matrix(10.20887 0 0 8.40509 34384.36 -16802.4)" style="fill:#ff4500;fill-opacity:0.675"/></g><g transform="translate(0 796.36)" style="fill:#ff4500;fill-opacity:0.992;fill-rule:evenodd"><path d="m 69.19 141.82 v -41.488 h 60.5 h 60.5 v 41.488 v 41.488 h -60.5 h -60.5 v -41.488 z"/><path d="m 48.45 108.39 v -41.488 h 60.5 h 60.5 v 12.1 v 12.1 h -55.894 h -55.894 v 29.387 v 29.387 h -4.61 h -4.61 v -41.488 z"/></g></g></svg>