<svg xmlns="http://www.w3.org/2000/svg" viewBox="0 0 256 256" xmlns:xlink="http://www.w3.org/1999/xlink"><g style="fill:#d3d3d3;color:#000"><path d="m -429.05 1690.33 c 145.2 -221.6 -385.23 -232.05 -202.66 -3.617 48.21 58.77 163.57 87.45 202.66 3.617 z" transform="matrix(-0.95926 0 0 -1.14823 -387.11 2000.98)" style="fill:#fff"/><g transform="matrix(10.12493 0 0 7.75875 -3025.33 -4802.31)" style="fill:#ff4500"><g style="color:#000"><path d="m 304 634 v 5 h 4.063 v -5 z m 2 1.938 l 1 -0.938 v 3 h -1 z"/><path d="m 305 630 c -0.61 0 -1 0.422 -1 0.969 v 0.031 h 1 v -1 z m 0 1 v 1 h 1 v -1 h -1 z m 1 0 h 1 v -1 h -1 v 1 z m 1 0 v 1 h 1 v -1 h -1 z m 0 1 h -1 v 1 h 1 v -1 z m -2 0 h -1 v 1 h 1 v -1 z"/></g><path d="m 309.09 634 v 5 h 3.938 v -5 z m 0.906 1 h 1.047 c 0.778 0 0.953 0.397 0.953 0.993 0 0.076 -0.023 0.117 -0.063 0.226 l -0.41 0.78 h 0.469 v 1.063 h -1.219 h -0.813 l 1.028 -1.906 c 0.047 -0.094 -0.001 -0.153 -0.059 -0.157 h -0.94 z" id="0" style="color:#000"/><path d="m 309.09 630 v 1 h 0.938 v -1 h -0.94 z m 0.938 1 v 1 h 1 v -1 h -1 z m 1 0 h 1 v -1 h -1 v 1 z m 1 0 v 1 h 1 v -1 h -1 z m 0 1 h -1 v 1 h 1 v -1 z m -2 0 h -0.938 v 1 h 0.938 v -1 z" style="color:#000"/><path d="m 314.09 634 v 5 h 3.938 v -5 z m 0.906 1 h 2.031 l -0.031 0.5 v 0.469 v 0.094 l -0.063 0.125 l -0.156 0.313 l 0.188 0.344 l 0.063 0.125 v 0.125 v 0.406 v 0.5 h -2.031 v -1 h 0.906 l -0.125 -0.219 l -0.125 -0.25 l 0.125 -0.25 l 0.16 -0.27 h -0.94 z" id="1" style="color:#000"/><path d="m 314.09 630 v 1 h 0.906 v -1 z m 0.906 1 v 1 h 1 v -1 z m 1 0 h 1 v -1 h -1 z m 1 0 v 1 h 1 v -1 z m 1 1 z m -1 0 h -1 v 1 h 1 z m -2 0 h -0.906 v 1 h 0.91 z" style="color:#000"/><use xlink:href="#0"/><use xlink:href="#1"/><g style="color:#000"><path d="m 317 643 c 0.61 0 1 -0.422 1 -0.969 v -0.031 h -1 v 1 z m 0 -1 v -1 h -1 v 1 h 1 z m -1 0 h -1 v 1 h 1 v -1 z m -1 0 v -1 h -1 v 1 h 1 z m 0 -1 h 1 v -1 h -1 v 1 z m 2 0 h 1 v -1 h -1 v 1 z"/><path d="m 312.91 643 v -1 h -0.938 v 1 h 0.94 z m -0.938 -1 v -1 h -1 v 1 h 1 z m -1 0 h -1 v 1 h 1 v -1 z m -1 0 v -1 h -1 v 1 h 1 z m 0 -1 h 1 v -1 h -1 v 1 z m 2 0 h 0.938 v -1 h -0.938 v 1 z"/><path d="m 307.91 643 v -1 h -0.906 v 1 z m -0.906 -1 v -1 h -1 v 1 z m -1 0 h -1 v 1 h 1 z m -1 0 v -1 h -1 v 1 z m -1 -1 z m 1 0 h 1 v -1 h -1 z m 2 0 h 0.906 v -1 h -0.91 z"/></g></g></g></svg>