<svg xmlns="http://www.w3.org/2000/svg" viewBox="0 0 256 256"><g style="fill:#d3d3d3;color:#000"><path d="m 24.461 195.9 c -139.28 -254.45 369.54 -266.45 194.4 -4.153 -46.25 67.48 -156.91 100.41 -194.4 4.153 z" style="fill:#fff"/><g transform="matrix(9.17713 0 0 9.6803 -1067.45 -5070.59)" style="fill:#ff4500"><path d="m 127.96 537.66 v 2.366 h -3.591 c -0.207 0 -0.368 0.205 -0.368 0.467 v 1.058 c 0 0.262 0.162 0.467 0.368 0.467 h 10.263 c 0.207 0 0.368 -0.205 0.368 -0.467 v -1.058 c 0 -0.262 -0.162 -0.467 -0.368 -0.467 h -3.655 v -2.366 z"/><g style="color:#000"><path d="m 126.8 529.03 c -0.951 0 -1.8 0.793 -1.8 1.746 v 6.613 c 0 0.953 0.849 1.746 1.868 1.746 h 5.264 c 1.019 0 1.868 -0.793 1.868 -1.746 v -6.613 c 0 -0.953 -0.849 -1.746 -1.868 -1.746 z m 0.2 2 h 5 c 0 0.317 0 -0.316 0 0 v 6 h -5 v -6 z"/><path d="m 128 532 h 3 v 1 h -3 z"/><path d="m 130 534 h 1 v 1 h -1 z"/></g><path d="m 132.23 532.03 c 0.07 0 0 0.209 0 0.476 v 1.078 c 0 0.267 0.07 0.476 0.16 0.476 h 4.452 c 0.09 0 0.16 -0.209 0.16 -0.476 v -1.078 c 0 -0.267 -0.07 -0.476 -0.16 -0.476 -0.16 0 -4.586 0.063 -4.611 0 z"/><path d="m 128.97 540.65 c 0.079 -0.059 0.252 0.038 0.394 0.223 l 0.573 0.746 c 0.142 0.185 0.191 0.376 0.112 0.435 -1.312 0.985 -2.624 1.969 -3.936 2.954 -0.079 0.059 -0.252 -0.038 -0.394 -0.223 l -0.573 -0.746 c -0.142 -0.185 -0.191 -0.376 -0.112 -0.435 0 0 3.946 -2.893 3.936 -2.954 z"/><path d="m 130.03 540.65 c -0.079 -0.059 -0.252 0.038 -0.394 0.223 l -0.573 0.746 c -0.142 0.185 -0.191 0.376 -0.112 0.435 1.312 0.985 2.624 1.969 3.936 2.954 0.079 0.059 0.252 -0.038 0.394 -0.223 l 0.573 -0.746 c 0.142 -0.185 0.191 -0.376 0.112 -0.435 0 0 -3.946 -2.893 -3.936 -2.954 z"/></g></g></svg>