<svg xmlns="http://www.w3.org/2000/svg" viewBox="0 0 256 256"><g transform="translate(0 -796.36)" style="fill:#d3d3d3;color:#000"><path d="m 247.71 889.18 c 47.8 133.41 -123.97 198.28 -188.51 143.97 -64.53 -54.31 -86.58 -147.39 -13.487 -194.22 73.09 -46.832 154.2 -83.16 202 50.27 z" style="fill:#fff"/><g transform="matrix(9.75545 0 0 10.0395 -757.03 -5669.59)" style="fill:#ff4500;color:#bebebe"><path d="m 95 650 c 1.662 0 3 1.338 3 3 v 6 c 0 1.662 -1.338 3 -3 3 h -8 c -1.662 0 -3 -1.338 -3 -3 v -6 c 0 -1.662 1.338 -3 3 -3 h 8 z m 0 2 h -8 c -0.554 0 -1 0.446 -1 1 v 6 c 0 0.554 0.446 1 1 1 h 8 c 0.554 0 1 -0.446 1 -1 v -6 c 0 -0.554 -0.446 -1 -1 -1 z"/><path d="m 91 663 c -5 0 -5 1 -5 1 0 1 1 1 1 1 h 8 c 1 0 1 -1 1 -1 0 0 0 -1 -5 -1 z"/><path d="m 87.5 654 c 0 0 -0.5 0 -0.5 0.5 v 4 c 0 0.5 0.5 0.5 0.5 0.5 h 4 c 0.5 0 0.5 -0.5 0.5 -0.5 v -4 c 0 -0.5 -0.437 -0.5 -0.5 -0.5 z m 0.5 1.999 h 3 v 2 h -3 z"/><path d="m 93.5 653 c 0 0 -0.5 0 -0.5 0.5 v 0.984 c 0 0 0 0.5 0.5 0.5 h 1 c 0 0 0.5 0 0.5 -0.5 v -0.984 c 0 0 0 -0.499 -0.5 -0.5 z"/></g></g></svg>