<svg xmlns="http://www.w3.org/2000/svg" xmlns:xlink="http://www.w3.org/1999/xlink" viewBox="0 0 256 256"><defs><path id="0" d="m 153.54 78.21 c 0 12.274 -9.95 22.22 -22.22 22.22 -12.274 0 -22.22 -9.95 -22.22 -22.22 0 -12.274 9.95 -22.22 22.22 -22.22 12.274 0 22.22 9.95 22.22 22.22 z" style="fill:#fff;stroke:#ff4500;color:#000"/></defs><g transform="translate(0 -796.36)"><path d="m 125.73 798.56 c -111.92 -22.351 -154.42 130.95 -105.92 214.2 38.644 66.33 171.02 47.37 220.37 -42.17 49.35 -89.54 -24.617 -154.09 -114.45 -172.03 z" style="fill:#fff;color:#000"/><path d="m 147.1 91.35 l -82.57 35.36 l 85.22 42.692" transform="translate(0 796.36)" style="fill:none;stroke:#ff4500;stroke-width:16"/><use transform="translate(15.781 809.49)" xlink:href="#0"/><use transform="translate(18.424 887.54)" xlink:href="#0"/><use transform="translate(-66.794 844.85)" xlink:href="#0"/><g transform="translate(0 796.36)" style="fill:#ff4500;fill-opacity:0.992;fill-rule:evenodd"><path d="m 147.84 190.91 c -9.708 -0.861 -17.728 -8.245 -19.391 -17.852 -0.35 -2.02 -0.349 -5.445 0.003 -7.428 1.566 -8.824 8.703 -15.961 17.53 -17.53 1.96 -0.348 5.551 -0.348 7.511 0 8.854 1.574 15.94 8.658 17.533 17.53 0.353 1.966 0.353 5.545 0 7.511 -1.974 10.991 -12.1 18.753 -23.19 17.77 z"/><path d="m 61.6 148.1 c -11.856 -1.655 -20.232 -12.753 -18.455 -24.452 1.385 -9.116 8.07 -16.207 17.12 -18.14 1.988 -0.426 6.526 -0.426 8.514 0 6.519 1.396 11.926 5.478 14.91 11.256 1.663 3.219 2.446 6.387 2.446 9.892 0 6.03 -2.341 11.453 -6.771 15.698 -4.758 4.559 -11.245 6.658 -17.764 5.748 z"/><path d="m 143.48 112.63 c -4.66 -0.842 -8.619 -2.942 -11.902 -6.312 -6.071 -6.233 -7.749 -15.497 -4.275 -23.613 4.338 -10.135 16.08 -15.382 26.595 -11.879 6.257 2.086 11.336 7.082 13.599 13.38 1.567 4.362 1.567 9.905 0 14.268 -1.717 4.78 -5.109 8.895 -9.492 11.515 -1.01 0.602 -1.489 0.829 -3.339 1.575 -3.232 1.302 -7.583 1.717 -11.185 1.066 z"/></g></g></svg>