<svg xmlns="http://www.w3.org/2000/svg" viewBox="0 0 256 256"><g transform="translate(0 -796.36)"><path d="m 196.22 1025.68 c -95.24 84.46 -241.79 -48.767 -182.53 -160.27 59.906 -112.74 258.16 -82.69 241.3 55.767 -5.02 41.2 -27.695 76.954 -58.764 104.51 z" fill="#fff" color="#fff"/><path d="m 73.28 1002.66 c 0 -8.732 10.02 -78.47 14.288 -99.49 1.51 -7.429 2.509 -13.743 2.22 -14.03 -0.289 -0.289 -2.676 0.062 -5.303 0.781 -6.26 1.713 -8.348 0.86 -8.348 -3.41 0 -2.433 2.986 -6.458 9.78 -13.185 11.597 -11.483 18.376 -15.167 25.462 -13.838 2.73 0.512 12.257 0.131 21.17 -0.847 17.474 -1.917 35.74 -0.305 43.803 3.865 10.472 5.415 11.195 17.952 2.176 37.745 -2.96 6.496 -17.17 21.657 -25.923 27.653 -12.906 8.843 -32.583 16.607 -42.18 16.646 -4.321 0.017 -8.628 0.521 -9.57 1.12 -0.942 0.599 -2.749 8.143 -4.02 16.764 -2.917 19.856 -6.091 35.986 -8.07 41.03 -1.391 3.538 -2.237 3.929 -8.514 3.929 -6.938 0 -6.97 -0.021 -6.97 -4.734 z m 52.14 -76.71 c 15.37 -4.099 19.999 -6.521 25.14 -13.157 2.608 -3.365 7.822 -9.545 11.585 -13.733 11.449 -12.74 8.09 -19.506 -11.455 -23.05 -13.789 -2.5 -37.32 2.01 -41.17 7.89 -4.234 6.461 -9.516 42.597 -6.647 45.47 1.29 1.29 9.644 0.024 22.546 -3.417 l 0 0 z" fill="#ff4500" stroke="#ff4500" stroke-width="1.429"/></g></svg>