<svg xmlns="http://www.w3.org/2000/svg" viewBox="0 0 256 256"><g transform="translate(0 -796.36)" style="fill:#f60"><path d="m 195.9 823.95 c -94.03 -84.1 -238.72 48.56 -180.21 159.59 59.14 112.26 254.88 82.34 238.23 -55.53 -4.956 -41.03 -27.343 -76.63 -58.02 -104.07 z" style="fill:#fff;fill-opacity:0.87;color:#000"/><path d="m 67.65 981.71 c -1.019 -0.257 -2.121 -1.279 -2.45 -2.272 -0.328 -0.992 7.764 -25.484 17.984 -54.43 10.219 -28.942 19.55 -55.58 20.735 -59.2 2.09 -6.377 4.378 -8.8 6.445 -6.819 0.554 0.53 4.946 12.204 9.761 25.94 4.815 13.737 9.171 25.375 9.68 25.863 0.509 0.488 4.921 -10.848 9.805 -25.19 10.74 -31.537 11.918 -32.806 16.83 -18.13 1.481 4.423 9.123 26.11 16.982 48.19 23.626 66.39 22.377 62.41 20.237 64.46 -1.474 1.414 -3.907 1.77 -12.09 1.77 -6.35 0 -10.723 -0.462 -11.511 -1.216 -0.697 -0.669 -4.92 -13.81 -9.384 -29.2 -4.462 -15.392 -8.492 -28.36 -8.955 -28.818 -0.462 -0.457 -3.666 7.05 -7.119 16.687 -3.453 9.635 -7.03 18.34 -7.949 19.344 -1.76 1.922 -9.374 2.529 -11.961 0.954 -1.518 -0.924 -5.657 -10.84 -11.06 -26.495 -1.929 -5.587 -3.883 -10.381 -4.344 -10.654 -0.46 -0.273 -2.418 4.768 -4.35 11.201 -1.932 6.433 -4.451 14.748 -5.599 18.476 -1.147 3.729 -3.271 10.768 -4.718 15.644 -3.574 12.04 -3.824 12.537 -6.844 13.638 -2.638 0.962 -16.627 1.138 -20.13 0.254 z" style="fill:#ffa07a"/><path d="m 65.39 977.37 c -0.985 -0.257 -2.05 -1.279 -2.368 -2.272 -0.317 -0.992 7.504 -25.484 17.382 -54.43 9.877 -28.942 18.895 -55.58 20.04 -59.2 2.02 -6.377 4.231 -8.8 6.229 -6.819 0.535 0.53 4.78 12.204 9.434 25.94 4.654 13.737 8.864 25.375 9.356 25.863 0.492 0.488 4.756 -10.848 9.477 -25.19 10.38 -31.537 11.519 -32.806 16.266 -18.13 1.431 4.423 8.817 26.11 16.413 48.19 22.835 66.39 21.627 62.41 19.559 64.46 -1.425 1.414 -3.776 1.77 -11.683 1.77 -6.137 0 -10.364 -0.462 -11.125 -1.216 -0.674 -0.669 -4.755 -13.81 -9.07 -29.2 -4.313 -15.392 -8.208 -28.36 -8.655 -28.818 -0.447 -0.457 -3.543 7.05 -6.881 16.687 -3.337 9.635 -6.795 18.34 -7.683 19.344 -1.701 1.922 -9.06 2.529 -11.56 0.954 -1.467 -0.924 -5.468 -10.84 -10.69 -26.495 -1.864 -5.587 -3.753 -10.381 -4.198 -10.654 -0.445 -0.273 -2.337 4.768 -4.204 11.201 -1.867 6.433 -4.302 14.748 -5.411 18.476 -1.109 3.729 -3.161 10.768 -4.56 15.644 -3.454 12.04 -3.696 12.537 -6.615 13.638 -2.55 0.962 -16.07 1.138 -19.453 0.254 z" style="fill:#ff4500"/></g></svg>