<svg xmlns="http://www.w3.org/2000/svg" viewBox="0 0 256 256"><g transform="translate(0 -796.36)"><path d="m -1067.28 1935.73 c 48.956 88.52 202.34 54.16 228.29 -18.719 30.922 -86.82 -49.563 -251.7 -185.88 -155.11 -45.916 33.728 -91.37 85.31 -42.41 173.83 z" transform="translate(1088.39 -936.13)" style="fill:#fff;color:#000"/><g style="fill-rule:evenodd"><path d="m 129.32 984.86 c -0.854 -0.085 -1.553 -0.287 -1.553 -0.449 0 -0.162 -0.515 -0.401 -1.145 -0.531 -1.621 -0.333 -3.859 -1.314 -5.157 -2.261 -3.338 -2.434 -6.708 -6.303 -7.412 -8.508 -0.15 -0.471 -0.427 -0.948 -0.616 -1.062 -1.121 -0.676 -1.644 -7.819 -0.836 -11.427 0.337 -1.505 0.721 -2.814 0.854 -2.909 0.132 -0.095 0.734 -1.16 1.337 -2.368 1.534 -3.072 5.422 -6.689 8.955 -8.332 l 1.645 -0.765 l 0.096 -13.602 l 0.096 -13.602 h 7.484 h 7.484 l 0.096 13.602 l 0.096 13.602 l 1.645 0.753 c 0.905 0.414 1.891 0.969 2.193 1.234 0.302 0.265 1.247 0.909 2.102 1.432 0.854 0.522 1.553 1.062 1.553 1.2 0 0.138 0.43 0.652 0.955 1.144 0.919 0.86 1.839 2.179 2.786 3.99 0.246 0.471 0.559 0.933 0.695 1.027 0.136 0.095 0.538 1.173 0.892 2.395 1.086 3.748 0.663 11.715 -0.694 13.1 -0.237 0.242 -0.924 1.339 -1.527 2.437 -0.603 1.099 -1.46 2.224 -1.905 2.5 -0.444 0.276 -0.899 0.758 -1.01 1.07 -0.111 0.313 -1.019 1.107 -2.02 1.766 -0.997 0.659 -1.817 1.315 -1.822 1.459 -0.009 0.307 -3.362 1.735 -4.939 2.104 -0.601 0.141 -1.185 0.395 -1.297 0.565 -0.233 0.354 -6.706 0.666 -9.03 0.436 z" style="fill:#ffdead"/><g transform="translate(0 796.36)" style="fill:#ff4500"><path d="m 130.41 197.69 c -2.664 -0.236 -8.01 -1.604 -9.717 -2.485 -2.656 -1.373 -5.03 -3.168 -7.65 -5.791 -5.161 -5.161 -7.201 -9.198 -8.641 -17.1 -0.573 -3.143 -0.491 -4.851 0.459 -9.61 1.406 -7.04 4.731 -12.623 10.239 -17.189 l 1.868 -1.548 l 0.244 -30.855 c 0.199 -25.25 0.331 -31.2 0.727 -32.741 0.957 -3.737 4.652 -8 8.744 -10.09 1.44 -0.736 1.945 -0.798 6.563 -0.798 5.623 0 5.803 0.054 9.708 2.93 2.183 1.608 5.117 5.551 5.829 7.834 0.275 0.882 0.463 10.346 0.645 32.559 l 0.257 31.32 l 1.613 1.371 c 4.479 3.808 8.12 8.998 9.456 13.48 1.105 3.707 1.918 9.289 1.632 11.208 -1.01 6.764 -1.726 9.09 -4.02 13.03 -2.693 4.623 -7.86 9.556 -12.544 11.979 -1.712 0.885 -8.113 2.452 -10.571 2.588 -1.284 0.071 -3.46 0.029 -4.836 -0.092 z m 9.673 -10.263 c 2.529 -0.794 5.501 -2.849 7.811 -5.404 2.315 -2.559 3.381 -4.352 4.424 -7.445 0.773 -2.292 0.911 -3.253 0.911 -6.368 0 -3.42 -0.082 -3.879 -1.204 -6.765 -1.799 -4.627 -4.56 -7.9 -9.07 -10.745 l -2.209 -1.395 l -0.027 -11.727 c -0.015 -6.45 -0.133 -21.427 -0.263 -33.28 l -0.235 -21.556 l -0.949 -1.244 c -1.572 -2.061 -3.656 -3.175 -5.94 -3.175 -2.548 0 -3.827 0.573 -5.486 2.457 l -1.363 1.548 l -0.201 4.084 c -0.111 2.246 -0.298 17.416 -0.416 33.711 l -0.215 29.626 l -0.805 0.306 c -1.311 0.498 -4.522 2.818 -5.812 4.199 -2.048 2.191 -3.236 4.171 -4.372 7.287 -1.01 2.767 -1.095 3.315 -1.097 7 -0.002 3.575 0.098 4.27 0.935 6.504 1.357 3.62 2.351 5.148 5.2 7.985 2.83 2.819 5.714 4.476 8.705 5 2.901 0.51 9.15 0.184 11.674 -0.608 z"/><path d="m 94.39 140.86 v -0.834 h 6.504 h 6.504 v 0.834 v 0.834 h -6.504 h -6.504 v -0.834 z"/><path d="m 101.65 131.11 c 1.154 -0.065 2.955 -0.065 4 0.001 1.048 0.066 0.104 0.119 -2.098 0.119 -2.201 -0.001 -3.059 -0.055 -1.905 -0.12 z"/><path d="m 94.39 122.52 v -0.834 h 6.504 h 6.504 v 0.834 v 0.834 h -6.504 h -6.504 v -0.834 z"/><path d="m 99.72 131.85 c 0 -0.416 0.649 -0.5 3.836 -0.5 3.187 0 3.836 0.085 3.836 0.5 0 0.416 -0.649 0.5 -3.836 0.5 -3.187 0 -3.836 -0.085 -3.836 -0.5 z"/><path d="m 99.72 113.51 c 0 -0.416 0.649 -0.5 3.836 -0.5 3.187 0 3.836 0.085 3.836 0.5 0 0.416 -0.649 0.5 -3.836 0.5 -3.187 0 -3.836 -0.085 -3.836 -0.5 z"/><path d="m 94.39 104.17 v -0.834 h 6.504 h 6.504 v 0.834 v 0.834 h -6.504 h -6.504 v -0.834 z"/><path d="m 99.72 95.16 c 0 -0.416 0.649 -0.5 3.836 -0.5 3.187 0 3.836 0.085 3.836 0.5 0 0.416 -0.649 0.5 -3.836 0.5 -3.187 0 -3.836 -0.085 -3.836 -0.5 z"/><path d="m 94.39 85.83 v -0.834 h 6.504 h 6.504 v 0.834 v 0.834 h -6.504 h -6.504 v -0.834 z"/><path d="m 99.72 76.82 c 0 -0.416 0.649 -0.5 3.836 -0.5 3.187 0 3.836 0.085 3.836 0.5 0 0.416 -0.649 0.5 -3.836 0.5 -3.187 0 -3.836 -0.085 -3.836 -0.5 z"/></g></g></g></svg>