<svg xmlns="http://www.w3.org/2000/svg" viewBox="0 0 256 256"><defs><clipPath><path d="m -24 13 c 0 1.105 -0.672 2 -1.5 2 -0.828 0 -1.5 -0.895 -1.5 -2 0 -1.105 0.672 -2 1.5 -2 0.828 0 1.5 0.895 1.5 2 z" transform="matrix(15.33333 0 0 11.5 415 -125.5)"/></clipPath></defs><g transform="matrix(-1 0 0 1 254.84 -796.36)"><path d="m 130.42 1050.99 c -26.397 -2.057 -57.29 -14.72 -78.83 -32.31 -26.2 -21.399 -45.35 -54.22 -50.5 -86.57 -1.13 -7.092 -1.453 -23.445 -0.608 -30.714 3.512 -30.18 21.232 -60.19 47.08 -79.75 14.03 -10.613 32.581 -19.06 49.988 -22.755 45.3 -9.623 92.56 8.596 124.96 48.17 19.418 23.721 29.473 47.634 31.924 75.92 2.939 33.913 -10.415 70.28 -34.795 94.76 -19.15 19.229 -44.836 31.456 -69.22 32.951 -3.536 0.217 -7.875 0.498 -9.643 0.625 -1.768 0.127 -6.429 -0.02 -10.357 -0.326 z" style="fill:#fff"/><g transform="matrix(-3.7574 0 0 3.82121 218.64 847.66)" style="fill:#ff4500;stroke:#ffdead"><rect width="37.05" height="37.05" x="5.476" y="2.226" rx="6.505" style="stroke-linecap:round;stroke-width:0.998"/><g transform="matrix(0.12474 0 0 0.12474 -61.697 -99.94)" style="fill:#ffdead"><path transform="matrix(1.67636 0 0 1.67636 688.68 -480.17)" d="m 22 863.61 a 23 23 0 1 1 -46 0 23 23 0 1 1 46 0 z"/><path d="m 666.92 892.01 c -33.418 8.872 -58.06 39.33 -58.06 75.53 0 36.2 24.645 66.69 58.06 75.56 -24.11 -10.819 -41.44 -40.587 -41.44 -75.56 0 -34.975 17.33 -64.712 41.44 -75.53 z m 40.16 0 c 24.11 10.819 41.44 40.556 41.44 75.53 0 34.975 -17.33 64.743 -41.44 75.56 33.418 -8.872 58.06 -39.37 58.06 -75.56 0 -36.2 -24.645 -66.66 -58.06 -75.53 z"/><path d="m 655.65 849.59 c -52.19 13.855 -90.67 61.42 -90.67 117.95 0 56.53 38.485 104.14 90.67 118 -37.646 -16.895 -64.708 -63.38 -64.708 -118 0 -54.617 27.06 -101.05 64.708 -117.95 z m 62.708 0 c 37.646 16.895 64.708 63.33 64.708 117.95 0 54.617 -27.06 101.1 -64.708 118 52.19 -13.855 90.67 -61.47 90.67 -118 0 -56.53 -38.485 -104.09 -90.67 -117.95 z"/></g></g></g></svg>