<svg xmlns="http://www.w3.org/2000/svg" viewBox="0 0 256 256"><g transform="translate(0 -796.36)"><path d="m 201.86 823.33 c -188.96 -126.21 -305.35 276.27 -61.07 222.99 100.95 -22.706 162.22 -165.11 61.07 -222.99" style="fill:#fff;color:#000"/><g transform="matrix(5.17863 0 0 5.96924 1.74 782.09)"><path d="m 23 15 v 2 h -6 v 2 h -2 v 2 h -2 v 10 h 2 v 2 h 2 v 2 h 16 v -2 h 2 v -2 h 2 v -10 h -2 v -2 h -2 v -2 h -8 v -2 h -2 z" style="opacity:0.1"/><g transform="matrix(0.1 0 0 0.1 -13.205 -28.618)"><path d="m 352.05 426.18 h 20 v 20 h -20 z" style="fill:#8f4126"/><path d="m 432.05 446.18 h 20 v 20 h -20 z" style="fill:#fe8d3f"/><path d="m 412.05 446.18 h 20 v 20 h -20 z" style="fill:#fe7e41"/><path d="m 392.05 446.18 h 20 v 20 h -20 z" style="fill:#fe7f41"/><path d="m 372.05 446.18 h 20 v 20 h -20 z" style="fill:#a1502b"/><path d="m 352.05 446.18 h 20 v 20 h -20 z" style="fill:#8e4328"/><path d="m 332.05 446.18 h 20 v 20 h -20 z" style="fill:#f97d41"/><path d="m 312.05 446.18 h 20 v 20 h -20 z" style="fill:#fe7642"/><path d="m 292.05 446.18 h 20 v 20 h -20 z" style="fill:#fe8a3f"/><path d="m 452.05 466.18 h 20 v 20 h -20 z" style="fill:#fd8643"/><path d="m 432.05 466.18 h 20 v 20 h -20 z" style="fill:#feb14b"/><path d="m 412.05 466.18 h 20 v 20 h -20 z" style="fill:#fec451"/><path d="m 392.05 466.18 h 20 v 20 h -20 z" style="fill:#fe9443"/><path d="m 372.05 466.18 h 20 v 20 h -20 z" style="fill:#ab532e"/><path d="m 352.05 466.18 h 20 v 20 h -20 z" style="fill:#b4542d"/><path d="m 332.05 466.18 h 20 v 20 h -20 z" style="fill:#fe9443"/><path d="m 312.05 466.18 h 20 v 20 h -20 z" style="fill:#fea848"/><path d="m 292.05 466.18 h 20 v 20 h -20 z" style="fill:#fea748"/><path d="m 272.05 466.18 h 20 v 20 h -20 z" style="fill:#fd9a44"/><path d="m 472.05 486.18 h 20 v 20 h -20 z" style="fill:#e75d41"/><path d="m 452.05 486.18 h 20 v 20 h -20 z" style="fill:#fe9040"/><path d="m 432.05 486.18 h 20 v 20 h -20 z" style="fill:#fe9341"/><path d="m 412.05 486.18 h 20 v 20 h -20 z" style="fill:#fe9b44"/><path d="m 392.05 486.18 h 20 v 20 h -20 z" style="fill:#feb14b"/><path d="m 372.05 486.18 h 20 v 20 h -20 z" style="fill:#feb84d"/><path d="m 352.05 486.18 h 20 v 20 h -20 z" style="fill:#fea748"/><path d="m 332.05 486.18 h 20 v 20 h -20 z" style="fill:#fea648"/><path d="m 312.05 486.18 h 20 v 20 h -20 z" style="fill:#feb34c"/><path d="m 292.05 486.18 h 20 v 20 h -20 z" style="fill:#fe9943"/><path d="m 272.05 486.18 h 20 v 20 h -20 z" style="fill:#fea246"/><path d="m 252.05 486.18 h 20 v 20 h -20 z" style="fill:#fe5f42"/><path d="m 472.05 506.18 h 20 v 20 h -20 z" style="fill:#d75f41"/><path d="m 452.05 506.18 h 20 v 20 h -20 z" style="fill:#fe873d"/><path d="m 432.05 506.18 h 20 v 20 h -20 z" style="fill:#fe8b3f"/><path d="m 412.05 506.18 h 20 v 20 h -20 z" style="fill:#fe8e40"/><path d="m 392.05 506.18 h 20 v 20 h -20 z" style="fill:#fe7b39"/><path d="m 372.05 506.18 h 20 v 20 h -20 z" style="fill:#fe9040"/><path d="m 352.05 506.18 h 20 v 20 h -20 z" style="fill:#fea045"/><path d="m 332.05 506.18 h 20 v 20 h -20 z" style="fill:#fe7f3b"/><path d="m 312.05 506.18 h 20 v 20 h -20 z" style="fill:#fe9040"/><path d="m 292.05 506.18 h 20 v 20 h -20 z" style="fill:#fe833c"/><path d="m 272.05 506.18 h 20 v 20 h -20 z" style="fill:#fe863d"/><path d="m 252.05 506.18 h 20 v 20 h -20 z" style="fill:#fe683d"/><path d="m 472.05 526.18 h 20 v 20 h -20 z" style="fill:#d75d40"/><path d="m 452.05 526.18 h 20 v 20 h -20 z" style="fill:#fe723b"/><path d="m 432.05 526.18 h 20 v 20 h -20 z" style="fill:#fe823b"/><path d="m 412.05 526.18 h 20 v 20 h -20 z" style="fill:#fe843c"/><path d="m 392.05 526.18 h 20 v 20 h -20 z" style="fill:#fe7a39"/><g style="fill:#fe7f3a"><path d="m 372.05 526.18 h 20 v 20 h -20 z"/><path d="m 352.05 526.18 h 20 v 20 h -20 z"/></g><path d="m 332.05 526.18 h 20 v 20 h -20 z" style="fill:#fe7a39"/><path d="m 312.05 526.18 h 20 v 20 h -20 z" style="fill:#fe843c"/><path d="m 292.05 526.18 h 20 v 20 h -20 z" style="fill:#fe833c"/><path d="m 272.05 526.18 h 20 v 20 h -20 z" style="fill:#fe723b"/><path d="m 252.05 526.18 h 20 v 20 h -20 z" style="fill:#fe663d"/><path d="m 472.05 546.18 h 20 v 20 h -20 z" style="fill:#ca5244"/><path d="m 452.05 546.18 h 20 v 20 h -20 z" style="fill:#fe673c"/><path d="m 432.05 546.18 h 20 v 20 h -20 z" style="fill:#fe7839"/><path d="m 412.05 546.18 h 20 v 20 h -20 z" style="fill:#fe7639"/><path d="m 392.05 546.18 h 20 v 20 h -20 z" style="fill:#fe733a"/><g style="fill:#fe7f3b"><path d="m 372.05 546.18 h 20 v 20 h -20 z"/><path d="m 352.05 546.18 h 20 v 20 h -20 z"/></g><path d="m 332.05 546.18 h 20 v 20 h -20 z" style="fill:#fe733a"/><path d="m 312.05 546.18 h 20 v 20 h -20 z" style="fill:#fe7639"/><path d="m 292.05 546.18 h 20 v 20 h -20 z" style="fill:#fe813b"/><path d="m 272.05 546.18 h 20 v 20 h -20 z" style="fill:#fe6a3d"/><path d="m 252.05 546.18 h 20 v 20 h -20 z" style="fill:#fe653d"/><path d="m 472.05 566.18 h 20 v 20 h -20 z" style="fill:#ca5244"/><path d="m 452.05 566.18 h 20 v 20 h -20 z" style="fill:#f95341"/><path d="m 432.05 566.18 h 20 v 20 h -20 z" style="fill:#fe5d3e"/><path d="m 412.05 566.18 h 20 v 20 h -20 z" style="fill:#fe7539"/><path d="m 392.05 566.18 h 20 v 20 h -20 z" style="fill:#fe693c"/><g style="fill:#fe7e3a"><path d="m 372.05 566.18 h 20 v 20 h -20 z"/><path d="m 352.05 566.18 h 20 v 20 h -20 z"/></g><path d="m 332.05 566.18 h 20 v 20 h -20 z" style="fill:#fe6c3b"/><path d="m 312.05 566.18 h 20 v 20 h -20 z" style="fill:#fe723a"/><path d="m 292.05 566.18 h 20 v 20 h -20 z" style="fill:#fe703b"/><path d="m 272.05 566.18 h 20 v 20 h -20 z" style="fill:#fe6e3b"/><path d="m 252.05 566.18 h 20 v 20 h -20 z" style="fill:#fe603e"/><path d="m 452.05 586.18 h 20 v 20 h -20 z" style="fill:#d44945"/><path d="m 432.05 586.18 h 20 v 20 h -20 z" style="fill:#e84e43"/><path d="m 412.05 586.18 h 20 v 20 h -20 z" style="fill:#fe5b3f"/><path d="m 392.05 586.18 h 20 v 20 h -20 z" style="fill:#fb5d3f"/><path d="m 372.05 586.18 h 20 v 20 h -20 z" style="fill:#fa6e3b"/><path d="m 352.05 586.18 h 20 v 20 h -20 z" style="fill:#fe6f3b"/><path d="m 332.05 586.18 h 20 v 20 h -20 z" style="fill:#f7623e"/><path d="m 312.05 586.18 h 20 v 20 h -20 z" style="fill:#f95d3f"/><path d="m 292.05 586.18 h 20 v 20 h -20 z" style="fill:#fc593f"/><path d="m 272.05 586.18 h 20 v 20 h -20 z" style="fill:#e55442"/><path d="m 432.05 606.18 h 20 v 20 h -20 z" style="fill:#bd4447"/><path d="m 412.05 606.18 h 20 v 20 h -20 z" style="fill:#df4c43"/><path d="m 392.05 606.18 h 20 v 20 h -20 z" style="fill:#e04c43"/><path d="m 372.05 606.18 h 20 v 20 h -20 z" style="fill:#db4b44"/><path d="m 352.05 606.18 h 20 v 20 h -20 z" style="fill:#e24c43"/><path d="m 332.05 606.18 h 20 v 20 h -20 z" style="fill:#d94a44"/><path d="m 312.05 606.18 h 20 v 20 h -20 z" style="fill:#d14945"/><path d="m 292.05 606.18 h 20 v 20 h -20 z" style="fill:#ca4746"/></g></g></g></svg>