<svg xmlns="http://www.w3.org/2000/svg" viewBox="0 0 256 256"><defs><clipPath><path d="m 47 24 c 0 12.708 -10.304 23 -23 23 -12.696 0 -23 -10.292 -23 -23 0 -12.708 10.304 -23 23 -23 12.696 0 23 10.292 23 23 z"/></clipPath></defs><g transform="translate(0 -796.36)"><path d="m 52.774 1027.39 c 192.46 127.95 311 -280.09 62.2 -226.07 -102.82 23.02 -165.22 167.39 -62.2 226.07 z" style="fill:#fff;color:#000"/><g transform="matrix(4.88657 0 0 4.9538 9.414 807.1)" style="fill:#ff4500"><path d="m 25,13 c -5.521,0 -10,1.877 -10,3.594 v 16.813 c 0,1.713 4.48,3.594 10,3.594 5.524,0 10,-1.881 10,-3.594 V 16.594 C 35,14.877 30.524,13 25,13 z" style="opacity:0.1"/><path d="M 23.998,12 C 18.477,12 14,13.89 14,15.606 l 0.002,16.792 C 14.002,34.111 18.48,36 24,36 29.524,36 34,34.11 34,32.398 L 33.998,15.606 C 33.998,13.889 29.52,12 23.998,12"/><path d="m 33 15.7 c 0 1.657 -4.03 3.3 -9 3.3 -4.971 0 -9 -1.643 -9 -3.3 0 -1.657 4.03 -3.1 9 -3.1 4.971 0 9 1.443 9 3.1 z" style="fill:#ffdead"/></g></g></svg>