<svg xmlns="http://www.w3.org/2000/svg" viewBox="0 0 256 256"><g transform="translate(0 -796.36)"><path d="m 211.17 835.34 c 201.82 264.12 -353.59 301.64 -175.35 32.04 40.634 -61.47 121.89 -101.99 175.35 -32.04 z" style="fill:#fff;color:#000"/><g style="fill:#ff4500;stroke:#ff4500;fill-rule:evenodd"><path d="m 116.09 976.82 c -1.939 -4.253 -18.13 -12.11 -33.686 -16.336 -0.827 -0.225 -3.591 -4.417 -6.141 -9.316 -4.484 -8.613 -4.653 -9.402 -5.127 -23.944 -0.487 -14.941 -0.464 -15.09 3.549 -23.13 4.795 -9.603 17.344 -22.504 26.694 -27.442 9.419 -4.975 20.662 -7.468 29.556 -6.556 15.946 1.636 29.505 7.726 41.42 18.603 11.642 10.627 15.699 19 17.312 35.74 1.204 12.493 1.306 12.788 6.112 17.704 8.641 8.838 10.527 14.784 6.889 21.72 -2.309 4.402 -3.057 3.711 -6.212 -5.733 -2.6 -7.782 -3.756 -9.157 -7.701 -9.157 -2.388 0 -5.595 2.453 -12.542 9.59 -16.839 17.302 -25.1 20.933 -47.599 20.933 -10.44 0 -11.395 -0.204 -12.524 -2.68 z m 33.538 -15.552 c 2.09 -1.199 6.652 -3.115 10.138 -4.256 3.485 -1.141 6.569 -2.729 6.853 -3.529 0.657 -1.854 -0.313 -4.506 -1.648 -4.506 -0.564 0 -2.551 -0.572 -4.417 -1.271 l -3.391 -1.271 l 4.239 -2.086 c 6.087 -2.995 6.193 -6.599 0.311 -10.54 -5.16 -3.457 -10.468 -4.072 -12.661 -1.467 -0.777 0.923 -3.691 2.038 -6.474 2.477 -12.278 1.936 -17.505 17.821 -5.863 17.821 1.867 0 3.739 -0.549 4.16 -1.221 0.951 -1.517 4.334 -1.616 4.334 -0.127 0 0.602 -2.786 2.856 -6.192 5.01 -6.732 4.259 -7.317 5.315 -4.02 7.271 2.738 1.627 9.693 0.531 14.637 -2.305 z m -33.55 -23.489 c 3.991 -1.793 8.384 -8.638 7.856 -12.243 -0.527 -3.604 -7.791 -8.303 -12.837 -8.303 -5.199 0 -11.71 6.843 -11.71 12.307 0 7.589 8.642 11.854 16.69 8.239 z m 47.04 -15.644 c 4.446 -1.667 5.03 -4.094 2.543 -10.523 -3.184 -8.22 -10.726 -10.07 -16.767 -4.116 -2.472 2.437 -3.283 8.989 -1.463 11.812 2.22 3.443 10.204 4.881 15.687 2.826 z m -41.623 -11.537 c 0.562 -2.918 -2.814 -5.531 -6.06 -4.693 -2.39 0.616 -3.385 5.085 -1.537 6.907 1.762 1.737 7.142 0.17 7.601 -2.214 z m 22.984 -5.119 c 0.983 -2.526 -1.343 -5.339 -4.414 -5.339 -2.644 0 -4.161 2.709 -3.077 5.494 0.956 2.455 6.519 2.341 7.491 -0.155 z" style="stroke-width:6.731"/><path d="m 73.03 987.21 c -1.243 -4.21 3.082 -13.215 7.643 -15.913 3.451 -2.041 4.127 -1.92 11.07 1.978 4.067 2.283 7.184 4.83 6.927 5.659 -0.257 0.829 -2.678 3.43 -5.379 5.78 -3.712 3.229 -6.675 4.43 -12.134 4.916 -6.47 0.577 -7.316 0.325 -8.127 -2.42 z" style="stroke-width:7.582"/></g></g></svg>