<svg xmlns="http://www.w3.org/2000/svg" viewBox="0 0 256 256"><defs><clipPath><path transform="matrix(15.33333 0 0 11.5 415 -125.5)" d="m -24 13 c 0 1.105 -0.672 2 -1.5 2 -0.828 0 -1.5 -0.895 -1.5 -2 0 -1.105 0.672 -2 1.5 -2 0.828 0 1.5 0.895 1.5 2 z" style="fill:#1890d0"/></clipPath></defs><g transform="translate(0 -796.36)"><path d="m 60.17 822.74 c 130.93 -92.05 263.6 77.948 156.91 186.39 -100.51 102.17 -256.68 7.449 -207.86 -119.69 10.185 -26.526 26.914 -49.802 50.948 -66.7 z" style="fill:#fff;color:#fff"/><g transform="matrix(12.91659 0 0 11.57755 533.37 -3754.22)" style="fill:#ff4500"><g transform="matrix(0.28222 0 0 0.28222 -38.12 397.84)"><path d="m 4,4 0,32 8,0 0,4 3,0 0,4 18,0 0,-4 3,0 0,-4 8,0 L 44,4 4,4 z"/><path d="m 7 7 v 26 h 8 v 2.998 h 3 v 5.1 h 12 v -5.1 h 3 v -2.998 h 8 v -26 h -8 h -18 h -8 z" style="fill:#ffa07a"/></g><path d="m -34.733 399.82 h 0.847 v 2.257 h -0.847 z"/><path d="m -32.757 399.82 h 0.847 v 2.257 h -0.847 z"/><path d="m -30.781 399.82 h 0.847 v 2.257 h -0.847 z"/><path d="m -28.806 399.82 h 0.847 v 2.257 h -0.847 z"/></g></g></svg>