<svg xmlns="http://www.w3.org/2000/svg" xmlns:xlink="http://www.w3.org/1999/xlink" viewBox="0 0 256 256"><defs><clipPath><path transform="matrix(15.33333 0 0 11.5 415 -125.5)" d="m -24 13 c 0 1.105 -0.672 2 -1.5 2 -0.828 0 -1.5 -0.895 -1.5 -2 0 -1.105 0.672 -2 1.5 -2 0.828 0 1.5 0.895 1.5 2 z"/></clipPath><linearGradient gradientUnits="userSpaceOnUse" xlink:href="#1" id="2" y2="22.887" x2="25.09" y1="4.265" x1="6.142"/><linearGradient id="1"><stop stop-color="#ff4500bb3"/><stop offset="1" stop-color="#ff3232"/></linearGradient><linearGradient gradientUnits="userSpaceOnUse" xlink:href="#1" id="0" y2="16.682" x2="57.57" y1="7.48" x1="29.08"/></defs><path d="m 216.38 223.2 c -221.56 145.18 -307.3 -251.35 -79.37 -219.76 92.96 12.881 164.13 164.23 79.37 219.76 z" fill="#fff" color="#000"/><g transform="matrix(3.17092 0 0 2.92216 47.815 64.933)"><g transform="matrix(0.90707 0.42098 -0.42098 0.90707 0 0)"><g fill-rule="evenodd" stroke-linejoin="bevel" stroke-dashoffset="8.858"><rect y="2.539" x="30.423" height="26" width="26.2" rx="3.902" opacity="0.5" stroke="#3e0000" stroke-width="0.7"/><rect y="1.746" x="29.28" height="26" width="26.2" rx="3.902" fill="url(#0)" stroke="#cf0000" stroke-width="0.8"/></g><path d="m 46.844,8.188 -2.063,1.094 h -0.375 l -3.03,4.563 -0.469,0.688 -0.031,-2 2.781,-4.094 0.156,-0.25 h 0.313 1.688 1.031 z" fill="#cf0000"/><g fill="#ff3232"><path d="m 40.656,19.844 -1.094,1.125 h 0.531 1.594 0.531 v -0.563 -5.375 l 4.03,-5.969 0.594,-0.875 -2.063,1.094 -3.563,5.25 -0.094,0.156 v 0.156 5 h -0.469 z"/><path d="m 37.969 8.188 -0.594 1.094 3.063 4.563 0.469 0.688 -0.031 -2 -2.75 -4.094 -0.156 -0.25 z"/></g><path d="M 37.38,9.281 37.974,8.187 H 37.661 35.973 V 8.75 l -0.438,0.313 4.03,5.969 v 5.375 0.563 l 1.094,-1.125 v -5 -0.156 l -0.094,-0.156 -3.563,-5.25 h 0.375 z" fill="#cf0000"/><path d="m 35.973,8.739 h 1.695 l 3.234,4.797 3.211,-4.797 h 1.695 l -4.125,6.109 v 5.555 H 40.097 V 14.848 L 35.972,8.739"/><path d="m 51.28,20.673 -1.494,2.335 h 1.494 v -2.335 m -0.155,-0.516 h 0.744 v 2.851 h 0.624 V 23.5 h -0.624 v 1.031 H 51.28 V 23.5 h -1.975 v -0.571 l 1.819,-2.771"/><path d="M 29.908,24.477 29.838,5.559 C 29.832,3.877 31.356,2.382 33.123,2.381 L 51.972,2.368" opacity="0.8" fill="none" stroke="#ff3232" stroke-linecap="round" stroke-width="1.2"/></g><g><g fill-rule="evenodd" stroke-linejoin="bevel" stroke-dashoffset="8.858"><path transform="translate(0.9 1)" d="m 8.125,2.25 c -2.162,0 -3.906,1.744 -3.906,3.906 v 18.19 c 0,2.162 1.744,3.906 3.906,3.906 h 18.406 c 2.162,0 3.906,-1.744 3.906,-3.906 V 6.156 C 30.437,3.994 28.693,2.25 26.531,2.25 H 8.125 z" opacity="0.5" stroke="#3e0000" stroke-width="0.7"/><path transform="translate(-0.3 -0.2)" d="m 8.125,2.25 c -2.162,0 -3.906,1.744 -3.906,3.906 v 18.19 c 0,2.162 1.744,3.906 3.906,3.906 h 18.406 c 2.162,0 3.906,-1.744 3.906,-3.906 V 6.156 C 30.437,3.994 28.693,2.25 26.531,2.25 H 8.125 z" fill="url(#2)" stroke="#cf0000" stroke-width="0.8"/></g><path d="m 26.429,22.924 c 0.283,0.061 0.504,0.187 0.662,0.378 0.16,0.191 0.24,0.428 0.24,0.709 0,0.432 -0.148,0.766 -0.445,1 -0.297,0.236 -0.719,0.354 -1.266,0.354 -0.184,0 -0.373,-0.019 -0.568,-0.056 -0.193,-0.035 -0.394,-0.089 -0.601,-0.161 v -0.571 c 0.164,0.096 0.344,0.168 0.539,0.217 0.195,0.049 0.399,0.073 0.612,0.073 0.371,0 0.653,-0.073 0.847,-0.22 0.195,-0.146 0.293,-0.359 0.293,-0.639 0,-0.258 -0.091,-0.459 -0.272,-0.604 -0.18,-0.146 -0.431,-0.22 -0.753,-0.22 h -0.51 v -0.486 h 0.533 c 0.291,0 0.514,-0.058 0.668,-0.173 0.154,-0.117 0.231,-0.285 0.231,-0.504 0,-0.225 -0.08,-0.396 -0.24,-0.516 -0.158,-0.121 -0.386,-0.182 -0.683,-0.182 -0.162,0 -0.336,0.018 -0.521,0.053 -0.186,0.035 -0.39,0.09 -0.612,0.164 v -0.527 c 0.225,-0.063 0.435,-0.109 0.63,-0.141 0.197,-0.031 0.383,-0.047 0.557,-0.047 0.449,0 0.805,0.103 1.066,0.308 0.262,0.203 0.393,0.479 0.393,0.826 0,0.242 -0.069,0.447 -0.208,0.615 -0.139,0.166 -0.336,0.281 -0.592,0.346"/><path d="m 20.264,9.493 -0.613,0.713 c 0,0 0.936,1.303 0.936,2.441 0,1.15 -0.286,1.901 -0.903,2.441 -0.612,0.541 -1.58,0.869 -2.909,0.869 h -2.107 -0.435 v 0.435 4.581 h -0.836 l -0.914,0.914 h 0.479 1.705 0.479 v -0.479 -4.537 h 1.628 c 1.468,0 2.674,-0.351 3.488,-1.07 0.821,-0.719 1.237,-1.841 1.237,-3.154 0,-1.303 -0.414,-2.433 -1.237,-3.154 z" fill="#ff3232"/><g fill="#cf0000"><path d="m 20.264,9.493 -0.613,0.713 C 19.04,9.662 18.106,9.337 16.775,9.337 h -3.377 v 11.636 l -0.914,0.914 V 21.408 8.902 8.423 h 0.479 3.812 c 1.467,0 2.673,0.344 3.488,1.07 z"/><path d="m 18.269,11.253 0.646,-0.646 c 0.528,0.501 0.769,1.214 0.769,2.04 0,0.831 -0.242,1.54 -0.769,2.04 -0.53,0.502 -1.283,0.736 -2.14,0.736 h -2.107 -0.435 l 0.869,-0.914 h 1.672 c 0.715,0 1.166,-0.157 1.494,-0.468 0.331,-0.314 0.502,-0.719 0.502,-1.394 0,-0.668 -0.171,-1.081 -0.502,-1.394 z"/></g><path d="m 14.234,15.422 0.914,-0.869 v -3.768 h 1.628 c 0.715,0 1.166,0.157 1.494,0.468 l 0.646,-0.646 c -0.53,-0.502 -1.283,-0.736 -2.14,-0.736 h -2.107 -0.435 v 0.435 4.681 0.435 z" fill="#ff3232"/><path d="m 14.648,10.305 v 4.69 h 2.123 c 0.786,0 1.393,-0.203 1.822,-0.61 0.429,-0.407 0.644,-0.986 0.644,-1.739 0,-0.747 -0.215,-1.324 -0.644,-1.73 -0.429,-0.407 -1.037,-0.61 -1.822,-0.61 H 14.648 M 12.959,8.918 h 3.812 c 1.399,0 2.455,0.318 3.168,0.953 0.719,0.63 1.078,1.555 1.078,2.775 0,1.232 -0.359,2.162 -1.078,2.792 -0.713,0.63 -1.769,0.945 -3.168,0.945 h -2.123 v 5.02 H 12.959 V 8.922"/></g></g></svg>