<?xml version="1.0" encoding="UTF-8" standalone="no"?>
<svg
   xmlns:dc="http://purl.org/dc/elements/1.1/"
   xmlns:cc="http://creativecommons.org/ns#"
   xmlns:rdf="http://www.w3.org/1999/02/22-rdf-syntax-ns#"
   xmlns:svg="http://www.w3.org/2000/svg"
   xmlns="http://www.w3.org/2000/svg"
   xmlns:xlink="http://www.w3.org/1999/xlink"
   xmlns:sodipodi="http://sodipodi.sourceforge.net/DTD/sodipodi-0.dtd"
   xmlns:inkscape="http://www.inkscape.org/namespaces/inkscape"
   viewBox="0 0 256 256"
   id="svg142"
   version="1.1"
   inkscape:version="0.48.4 r9939"
   width="100%"
   height="100%"
   sodipodi:docname="pysol.svg">
  <metadata
     id="metadata163">
    <rdf:RDF>
      <cc:Work
         rdf:about="">
        <dc:format>image/svg+xml</dc:format>
        <dc:type
           rdf:resource="http://purl.org/dc/dcmitype/StillImage" />
      </cc:Work>
    </rdf:RDF>
  </metadata>
  <sodipodi:namedview
     pagecolor="#ffffff"
     bordercolor="#666666"
     borderopacity="1"
     objecttolerance="10"
     gridtolerance="10"
     guidetolerance="10"
     inkscape:pageopacity="0"
     inkscape:pageshadow="2"
     inkscape:window-width="644"
     inkscape:window-height="496"
     id="namedview161"
     showgrid="false"
     inkscape:zoom="0.921875"
     inkscape:cx="128"
     inkscape:cy="128"
     inkscape:window-x="0"
     inkscape:window-y="24"
     inkscape:window-maximized="0"
     inkscape:current-layer="g147" />
  <defs
     id="defs144">
    <path
       id="0"
       d="m 142.63 93.27 a 28.746 30.915 0 1 1 5.351 -0.317"
       style="fill:#ffffff" />
  </defs>
  <g
     transform="translate(0 -796.36)"
     style="color:#000"
     id="g147">
    <path
       d="m -2.895 983.77 c -201.82 -266.38 353.59 -304.22 175.35 -32.31 -40.634 61.991 -121.89 102.86 -175.35 32.31 z"
       transform="matrix(0.99576 0 0 0.99153 48.609 39.03)"
       style="fill:#ffffff;color:#000"
       id="path149" />
    <use
       transform="matrix(1.07547 0 0 1 -28.2 799.61)"
       xlink:href="#0"
       id="use151"
       style="fill:#ff4500" />
    <use
       transform="matrix(1.07547 0 0 1 -64 852.77)"
       xlink:href="#0"
       id="use153"
       style="fill:#ff4500" />
    <use
       transform="matrix(1.07547 0 0 1 5.424 853.85)"
       xlink:href="#0"
       id="use155"
       style="fill:#ff4500" />
    <path
       d="m 98.71 227.8 l -14.829 -55.24 l -16.19 -54.854 l 55.25 14.776 l 55.6 13.406 l -40.42 40.461 z"
       transform="matrix(0.49274 0.71616 -0.50561 0.69794 151.45 770)"
       style="fill:#ff4500"
       id="path157" />
    <use
       transform="matrix(1.07547 0 0 1 -30.373 856.02)"
       xlink:href="#0"
       id="use159"
       style="fill:#ff4500" />
  </g>
</svg>
