<svg xmlns="http://www.w3.org/2000/svg" viewBox="0 0 256 256"><g transform="translate(0 -796.36)"><path d="m 119.95 137.5 c -0.696 -0.785 -3.078 -3.483 -5.295 -5.996 -2.216 -2.513 -4.173 -4.683 -4.349 -4.823 -0.279 -0.222 -2.092 -2.275 -6.37 -7.215 l -1.192 -1.376 l 4.428 -0.146 l 4.428 -0.146 l 0.136 -12.311 l 0.136 -12.311 h 9.383 h 9.383 v 12.418 v 12.418 l 4.3 0.147 l 4.3 0.147 l -1.635 1.991 c -0.899 1.095 -2.172 2.58 -2.828 3.3 -0.656 0.72 -2.598 2.886 -4.315 4.813 -1.717 1.927 -4.233 4.717 -5.59 6.2 -1.358 1.483 -2.735 3.061 -3.062 3.507 -0.526 0.719 -0.737 0.649 -1.858 -0.616 z" transform="translate(0 796.36)" style="fill:#ffdead;fill-rule:evenodd"/><path d="m 44.707 836.08 c -201.26 270.98 353.01 295.61 175.27 19 -34.839 -53.642 -116.98 -83.52 -175.27 -19 z" style="fill:#fff;color:#000"/><g transform="matrix(0.90522 0 0 0.85131 20.594 827.83)" style="fill-rule:evenodd"><g style="fill:#ff4500"><path d="m 46.3,206.74 c -1.572,-0.894 -3.403,-2.083 -4.068,-2.641 -1.9,-1.596 -4.674,-5.357 -5.907,-8.01 l -1.127,-2.425 V 122.667 51.67 l 1.263,-2.727 c 2.519,-5.439 7.206,-9.838 12.698,-11.918 2.445,-0.926 5.063,-0.961 71.58,-0.961 66.59,0 69.13,0.034 71.58,0.964 5.644,2.144 9.915,6.181 12.944,12.235 l 1.27,2.538 v 70.61 70.61 l -1.257,2.751 c -2.439,5.338 -5.806,8.889 -10.813,11.404 l -2.482,1.246 -71.41,-0.024 -71.41,-0.024 -2.859,-1.626 z m 85.61,-22.452 c 10.01,-1.526 21.45,-6.5 29.19,-12.692 9.963,-7.97 16.558,-17 20.939,-28.669 1.883,-5.02 2.384,-7.277 3.235,-14.595 0.705,-6.06 0.705,-7.394 0,-13.453 -1.08,-9.285 -2.447,-13.966 -6.309,-21.598 -3.537,-6.99 -6.297,-10.774 -12.03,-16.493 -7.261,-7.247 -15.544,-12.273 -25.747,-15.622 -25.417,-8.343 -52.859,-0.199 -70.834,21.02 -0.907,1.071 -1.65,2.064 -1.65,2.207 0,0.142 -0.654,1.091 -1.453,2.109 -2.313,2.945 -6.294,11.129 -7.814,16.06 -2.16,7.01 -2.663,10.607 -2.663,19.04 0,8.43 0.503,12.02 2.663,19.04 2.694,8.746 9.695,20.07 16.191,26.18 10.09,9.495 23.478,16.03 36.23,17.691 2.373,0.308 5,0.649 5.838,0.758 2.205,0.285 8.937,-0.182 14.214,-0.987 z"/><path d="m 112.36,171.9 c -6.728,-1.241 -9.859,-2.262 -15.02,-4.898 -5.131,-2.618 -8.759,-5.265 -13.167,-9.606 -2.81,-2.767 -7.344,-8.408 -7.344,-9.137 0,-0.163 -0.46,-0.918 -1.022,-1.678 -1.355,-1.833 -3.889,-8.06 -5.202,-12.791 -1.531,-5.514 -1.531,-18.853 0,-24.368 1.313,-4.728 3.847,-10.958 5.202,-12.791 0.562,-0.76 1.022,-1.515 1.022,-1.677 0,-0.286 1.767,-2.905 2.792,-4.136 3.572,-4.293 5.209,-5.933 8.884,-8.9 13.25,-10.697 32.19,-14.235 48.23,-9.01 11.613,3.786 19.271,9.262 26.501,18.949 9.508,12.74 12.383,30.07 7.473,45.05 -1.329,4.055 -4.167,9.949 -6.01,12.482 -0.861,1.184 -1.566,2.269 -1.566,2.411 0,0.142 -0.4,0.675 -0.888,1.185 -0.489,0.51 -1.827,1.938 -2.974,3.173 -4.466,4.809 -9.551,8.552 -15.236,11.216 -5.316,2.491 -7.716,3.242 -14.377,4.498 -6.375,1.202 -10.856,1.207 -17.289,0.02 z m 38.07,-26.942 v -5.584 h -14.451 -14.451 l 1.379,-1.434 c 0.758,-0.789 2.633,-2.87 4.165,-4.625 1.532,-1.755 3.246,-3.693 3.807,-4.306 0.562,-0.613 2.392,-2.675 4.068,-4.582 1.675,-1.907 3.674,-4.129 4.442,-4.938 0.768,-0.809 1.396,-1.692 1.396,-1.962 0,-0.281 -2.061,-0.49 -4.823,-0.49 h -4.823 V 104.853 92.669 h -9.899 -9.899 v 12.184 12.184 h -5.077 c -2.792,0 -5.077,0.141 -5.077,0.313 0,0.277 6.516,7.769 7.896,9.08 0.294,0.279 2.236,2.435 4.315,4.792 2.079,2.356 4.519,5.098 5.423,6.092 l 1.643,1.808 -14.462,0.135 -14.462,0.135 v 5.576 5.576 h 29.444 29.444 v -5.584 z"/></g><path d="m 112.62,184.22 c -6.642,-1.438 -10.571,-2.463 -13.613,-3.55 -4.14,-1.48 -13.547,-6.251 -13.547,-6.871 0,-0.225 -0.246,-0.41 -0.548,-0.41 -0.92,0 -7.68,-5.777 -11.242,-9.607 -5.227,-5.621 -10.432,-14.06 -12.86,-20.853 -2.836,-7.933 -3.423,-11.589 -3.423,-21.322 0,-9.781 0.54,-13.11 3.486,-21.517 0.878,-2.505 5.632,-12.03 6.24,-12.496 0.181,-0.14 1.013,-1.264 1.85,-2.499 3.234,-4.772 14.207,-15.269 15.963,-15.269 0.294,0 0.535,-0.204 0.535,-0.454 0,-0.685 11.97,-6.481 15.737,-7.62 6.214,-1.879 10.41,-2.703 15.1,-2.968 l 4.696,-0.265 v 5.558 5.558 l -5.457,0.643 c -10.723,1.264 -18.283,4.298 -26.867,10.785 -9.614,7.265 -16.525,18.231 -19.15,30.391 -1.188,5.496 -1.086,15.02 0.225,20.901 0.985,4.424 3.344,10.885 4.972,13.619 1.667,2.801 3.406,5.34 3.766,5.5 0.209,0.093 0.381,0.45 0.381,0.792 0,0.98 6.717,7.607 10.781,10.637 7.44,5.546 16.06,8.885 25.897,10.04 l 5.457,0.639 v 5.489 5.489 l -3.681,-0.059 c -2.024,-0.032 -4.137,-0.158 -4.696,-0.279 z" style="fill:#ffdead"/><path d="m 121.5,179.11 v -5.571 l 5.457,-0.621 c 3,-0.342 6.379,-0.946 7.505,-1.344 1.126,-0.398 2.348,-0.723 2.715,-0.723 0.816,0 3.242,-1.026 7.928,-3.352 4.874,-2.419 5.348,-2.729 10.804,-7.05 4.074,-3.226 9.925,-10.741 12.237,-15.721 3.518,-7.575 4.334,-10.365 5.167,-17.665 0.879,-7.709 -0.328,-17.738 -2.826,-23.479 -2.26,-5.193 -3.21,-6.997 -5.485,-10.407 -1.397,-2.094 -3.183,-4.493 -3.968,-5.33 -0.786,-0.838 -1.949,-2.094 -2.586,-2.792 -0.637,-0.698 -2.186,-2.067 -3.443,-3.041 -1.256,-0.975 -2.69,-2.14 -3.186,-2.589 -1.74,-1.575 -10.926,-5.953 -15.14,-7.218 -2.343,-0.703 -6.717,-1.559 -9.718,-1.904 l -5.457,-0.626 v -5.58 -5.58 l 4.696,0.261 c 8.794,0.489 21.375,4.596 28.874,9.425 0.734,0.472 2.047,1.308 2.919,1.857 0.872,0.549 1.585,1.177 1.585,1.396 0,0.219 0.249,0.398 0.553,0.398 0.595,0 1.987,1.199 6.486,5.584 5.14,5.01 8.823,10.1 11.952,16.499 2.536,5.19 2.588,5.321 4.04,10.153 3.486,11.596 3.486,23.432 0,35.03 -1.196,3.978 -1.492,4.77 -3.134,8.376 -3.712,8.152 -10.886,17.406 -17.323,22.342 -0.906,0.695 -1.913,1.5 -2.238,1.788 -0.997,0.885 -4.06,2.991 -5.406,3.718 -4.01,2.162 -7.554,3.93 -8.891,4.431 -7.684,2.882 -13.861,4.346 -19.672,4.662 l -4.442,0.241 v -5.571 z" style="fill:#dc143c"/></g></g></svg>