<svg xmlns="http://www.w3.org/2000/svg" viewBox="0 0 256 256"><g transform="translate(0 -796.36)"><path d="m 59.778 1025.68 c 95.24 84.46 241.79 -48.767 182.53 -160.27 -59.906 -112.74 -258.16 -82.69 -241.3 55.767 5.02 41.2 27.695 76.954 58.764 104.51 z" fill="#fff" color="#fff"/><g fill="#dc143c" stroke="#ff4500"><path d="m 137.02 958.95 c -4.687 -3.397 -4.796 -6.664 -0.343 -10.225 3.714 -2.97 6.55 -13.302 6.565 -23.917 0.005 -3.263 0.915 -11.09 2.023 -17.394 1.108 -6.304 2.231 -14.718 2.495 -18.7 0.478 -7.203 0.461 -7.237 -3.378 -7.02 -2.122 0.12 -5.776 1.415 -8.121 2.877 -4.993 3.114 -8.761 2.398 -8.761 -1.664 0 -2.742 3.876 -6.86 6.457 -6.86 0.674 0 2.654 -1.132 4.4 -2.516 6.733 -5.335 42.28 -6.06 60.19 -1.234 12.683 3.422 16.968 5.568 20.359 10.197 6.234 8.508 1.757 24.78 -11.174 40.609 -10.639 13.02 -27.687 23.646 -46.596 29.03 -6.546 1.865 -10.532 3.813 -12.579 6.149 -3.627 4.138 -6.513 4.304 -11.533 0.666 l 0 0 z m 27.813 -14.316 c 11.488 -3.274 32.27 -18.614 38.01 -28.05 7.115 -11.708 9.674 -24.337 5.784 -28.547 -4.63 -5.01 -19.467 -8.369 -36.969 -8.369 l -9.719 0 -1.438 4.524 c -0.791 2.488 -1.865 12.12 -2.387 21.414 -0.839 14.919 -2.58 26.292 -5.68 37.1 -0.876 3.054 -0.615 3.318 3.292 3.318 2.334 0 6.432 -0.623 9.106 -1.386 z" stroke-width="1.314"/><path d="m 41.35 959.9 c -3.01 -0.654 -5.816 -1.996 -6.238 -2.984 -1.122 -2.63 2.233 -5.623 6.302 -5.623 3.826 0 17.328 -3.305 19.79 -4.845 1.638 -1.024 5.02 -14.368 8.563 -33.757 1.227 -6.723 2.837 -15.408 3.578 -19.301 2.1 -11.04 2.701 -10.438 -9.955 -10.02 -6.224 0.205 -11.774 -0.037 -12.332 -0.538 -2.324 -2.083 1.056 -4.764 8.182 -6.489 4.181 -1.012 10.498 -2.593 14.04 -3.514 3.539 -0.92 11.605 -1.92 17.924 -2.222 9.919 -0.474 11.823 -0.217 13.931 1.879 3.519 3.498 0.424 6.725 -7.35 7.664 -6.939 0.837 -7.796 2.041 -10.135 14.224 -0.779 4.06 -3.043 15.777 -5.03 26.04 -4.523 23.357 -4.524 23.414 -0.295 22.459 2.072 -0.468 3.994 -0.024 5.104 1.18 2.734 2.965 -0.206 6.539 -7.288 8.859 -20.361 6.671 -31.23 8.63 -38.787 6.989 l 0 0 z" stroke-width="1.356"/></g></g></svg>