<svg xmlns="http://www.w3.org/2000/svg" viewBox="0 0 256 256"><g transform="translate(0 -796.36)"><path d="m 59.778 823.05 c 95.24 -84.46 241.79 48.767 182.53 160.27 -59.906 112.74 -258.16 82.69 -241.3 -55.767 5.02 -41.2 27.695 -76.954 58.764 -104.51 z" style="fill:#fff;color:#fff"/><g transform="translate(0 796.36)" style="fill:#ff4500;stroke:#ff4500;stroke-width:0.504"><path d="m 139.21 188.19 c -0.291 -0.336 -0.681 -1.01 -0.867 -1.494 -0.185 -0.485 -0.685 -0.883 -1.109 -0.883 -0.425 0 -0.772 -0.172 -0.772 -0.381 0 -0.21 -0.624 -0.661 -1.387 -1 -2.026 -0.907 -3.484 -4.597 -2.143 -5.425 0.277 -0.171 0.505 -0.695 0.505 -1.165 0.001 -1.049 2.151 -3.627 3.03 -3.627 1.061 0 3.02 -2.682 3.03 -4.131 0 -0.746 0.228 -1.497 0.505 -1.669 0.277 -0.171 0.504 -1.079 0.504 -2.02 0 -0.938 0.227 -1.846 0.504 -2.02 0.277 -0.171 0.504 -1.433 0.504 -2.804 0 -1.371 0.212 -2.492 0.472 -2.492 0.26 0 0.596 -2.326 0.747 -5.17 0.151 -2.843 0.51 -8.233 0.797 -11.978 0.287 -3.745 0.647 -9.02 0.799 -11.726 0.153 -2.705 0.489 -4.917 0.748 -4.917 0.259 0 0.471 -2.111 0.471 -4.69 0 -2.58 0.21 -4.906 0.466 -5.17 0.257 -0.264 0.589 -2.181 0.739 -4.262 0.258 -3.574 0.891 -9.402 1.603 -14.752 l 0.319 -2.396 h -3.077 c -1.715 0 -3.077 0.223 -3.077 0.504 0 0.277 -0.567 0.504 -1.261 0.504 -0.693 0 -1.261 0.227 -1.261 0.504 0 0.277 -0.404 0.504 -0.897 0.504 -0.494 0 -1.225 0.454 -1.624 1.01 -0.4 0.555 -1.081 1.01 -1.513 1.01 -0.432 0 -1.113 0.454 -1.513 1.01 -0.4 0.555 -1.017 1.01 -1.372 1.01 -0.355 0 -0.645 0.227 -0.645 0.504 0 0.277 -0.578 0.504 -1.284 0.504 -1.415 0 -3.76 -2.03 -3.76 -3.255 0 -0.429 -0.227 -0.779 -0.504 -0.779 -0.277 0 -0.504 -0.454 -0.504 -1.01 0 -0.555 0.227 -1.01 0.504 -1.01 0.277 0 0.504 -0.454 0.504 -1.01 0 -0.555 0.227 -1.01 0.504 -1.01 0.277 0 0.504 -0.351 0.504 -0.779 0 -0.878 2.194 -3.255 3 -3.255 0.29 0 0.527 -0.227 0.527 -0.504 0 -0.277 0.567 -0.504 1.261 -0.504 0.693 0 1.261 -0.227 1.261 -0.504 0 -0.277 0.358 -0.504 0.796 -0.504 0.438 0 1.668 -0.908 2.734 -2.02 1.066 -1.11 2.297 -2.02 2.734 -2.02 0.438 0 0.796 -0.227 0.796 -0.504 0 -0.277 0.681 -0.504 1.513 -0.504 0.832 0 1.513 -0.227 1.513 -0.504 0 -0.277 1.021 -0.504 2.27 -0.504 1.248 0 2.27 -0.227 2.27 -0.504 0 -0.303 2.02 -0.504 5.04 -0.504 3.03 0 5.04 -0.202 5.04 -0.504 0 -0.32 3.783 -0.504 10.339 -0.504 6.556 0 10.339 0.185 10.339 0.504 0 0.285 1.429 0.504 3.278 0.504 1.849 0 3.278 0.22 3.278 0.504 0 0.277 1.135 0.504 2.522 0.504 1.387 0 2.522 0.227 2.522 0.504 0 0.277 0.908 0.504 2.02 0.504 1.11 0 2.02 0.227 2.02 0.504 0 0.277 0.794 0.504 1.765 0.504 0.971 0 1.765 0.227 1.765 0.504 0 0.277 0.794 0.504 1.765 0.504 0.971 0 1.765 0.227 1.765 0.504 0 0.277 0.567 0.504 1.261 0.504 0.693 0 1.261 0.227 1.261 0.504 0 0.277 0.681 0.504 1.513 0.504 0.832 0 1.513 0.227 1.513 0.504 0 0.277 0.404 0.504 0.897 0.504 0.494 0 1.225 0.454 1.624 1.01 0.4 0.555 1.022 1.01 1.382 1.01 0.918 0 7.192 6.372 7.192 7.304 0 0.421 0.227 0.766 0.504 0.766 0.277 0 0.504 0.454 0.504 1.01 0 0.555 0.227 1.01 0.504 1.01 0.28 0 0.504 1.345 0.504 3.03 0 1.681 0.224 3.03 0.504 3.03 0.277 0 0.504 0.454 0.504 1.01 0 0.555 -0.227 1.01 -0.504 1.01 -0.288 0 -0.504 1.513 -0.504 3.53 0 2.02 -0.216 3.53 -0.504 3.53 -0.277 0 -0.504 0.908 -0.504 2.02 0 1.11 -0.227 2.02 -0.504 2.02 -0.277 0 -0.504 0.794 -0.504 1.765 0 0.971 -0.227 1.765 -0.504 1.765 -0.277 0 -0.504 0.567 -0.504 1.261 0 0.693 -0.227 1.261 -0.504 1.261 -0.277 0 -0.504 0.567 -0.504 1.261 0 0.693 -0.227 1.261 -0.504 1.261 -0.277 0 -0.504 0.454 -0.504 1.01 0 0.555 -0.227 1.01 -0.504 1.01 -0.277 0 -0.504 0.681 -0.504 1.513 0 0.832 -0.227 1.513 -0.504 1.513 -0.277 0 -0.504 0.404 -0.504 0.897 0 0.494 -0.454 1.225 -1.01 1.624 -0.555 0.4 -1.01 1.131 -1.01 1.624 0 0.494 -0.227 0.897 -0.504 0.897 -0.277 0 -0.504 0.404 -0.504 0.897 0 0.494 -0.454 1.225 -1.01 1.624 -0.555 0.4 -1.01 1.081 -1.01 1.513 0 0.432 -0.454 1.113 -1.01 1.513 -0.555 0.4 -1.01 1.028 -1.01 1.395 0 0.367 -0.567 1.235 -1.261 1.929 -0.693 0.693 -1.261 1.465 -1.261 1.714 0 0.249 -1.305 1.797 -2.9 3.44 -1.595 1.643 -3.234 3.471 -3.642 4.063 -0.408 0.592 -0.933 1.076 -1.168 1.076 -0.234 0 -1.531 1.135 -2.882 2.522 -1.351 1.387 -2.698 2.522 -2.993 2.522 -0.295 0 -0.537 0.227 -0.537 0.504 0 0.277 -0.243 0.504 -0.54 0.504 -0.297 0 -0.857 0.284 -1.243 0.63 -1.599 1.434 -2.229 1.891 -2.608 1.892 -0.22 0 -1.194 0.681 -2.165 1.512 -0.971 0.831 -1.933 1.511 -2.138 1.512 -0.359 0.001 -1.796 1.085 -3.178 2.397 -0.365 0.347 -1.021 0.63 -1.457 0.63 -0.436 0 -0.793 0.227 -0.793 0.504 0 0.277 -0.454 0.504 -1.01 0.504 -0.555 0 -1.01 0.227 -1.01 0.504 0 0.277 -0.454 0.504 -1.01 0.504 -0.555 0 -1.01 0.227 -1.01 0.504 0 0.277 -0.454 0.504 -1.01 0.504 -0.555 0 -1.01 0.227 -1.01 0.504 0 0.277 -0.454 0.504 -1.01 0.504 -0.555 0 -1.01 0.186 -1.01 0.413 0 0.227 -1.135 0.722 -2.522 1.1 -1.387 0.378 -2.522 0.873 -2.522 1.1 0 0.227 -0.495 0.413 -1.099 0.413 -0.604 0 -1.796 0.212 -2.648 0.47 -0.852 0.259 -2.57 0.762 -3.818 1.119 -1.248 0.357 -2.571 0.941 -2.939 1.298 -0.368 0.357 -1.106 0.882 -1.639 1.168 -0.533 0.285 -0.969 0.851 -0.969 1.258 0 0.406 -0.227 0.739 -0.504 0.739 -0.277 0 -0.505 0.284 -0.505 0.63 -0.001 0.804 -1.942 2.963 -3.402 3.783 -1.424 0.8 -5.758 0.787 -6.457 -0.019 z m 22.973 -18.515 c 0 -0.277 0.681 -0.504 1.513 -0.504 0.832 0 1.513 -0.227 1.513 -0.504 0 -0.277 0.681 -0.504 1.513 -0.504 0.832 0 1.513 -0.188 1.513 -0.418 0 -0.23 1.135 -0.95 2.522 -1.599 1.387 -0.65 2.522 -1.369 2.522 -1.599 0 -0.23 0.404 -0.418 0.897 -0.418 0.494 0 1.225 -0.454 1.624 -1.01 0.4 -0.555 1.081 -1.01 1.513 -1.01 0.432 0 1.113 -0.454 1.513 -1.01 0.4 -0.555 1.017 -1.01 1.372 -1.01 0.355 0 0.645 -0.227 0.645 -0.504 0 -0.277 0.249 -0.504 0.554 -0.504 0.305 0 1.19 -0.681 1.968 -1.513 0.777 -0.832 1.663 -1.513 1.968 -1.513 0.305 0 0.554 -0.227 0.554 -0.504 0 -0.277 0.235 -0.504 0.522 -0.504 0.624 0 10.574 -9.933 10.574 -10.556 0 -0.238 0.669 -1.15 1.487 -2.025 0.818 -0.876 1.628 -2.034 1.799 -2.575 0.172 -0.541 0.524 -0.983 0.782 -0.983 0.259 0 0.47 -0.454 0.47 -1.01 0 -0.555 0.212 -1.01 0.472 -1.01 0.259 0 0.759 -0.794 1.11 -1.765 0.351 -0.971 0.82 -1.765 1.041 -1.765 0.222 0 0.403 -0.454 0.403 -1.01 0 -0.555 0.227 -1.01 0.504 -1.01 0.277 0 0.504 -0.441 0.504 -0.979 0 -0.538 0.227 -1.119 0.504 -1.291 0.277 -0.171 0.504 -0.866 0.504 -1.543 0 -0.677 0.227 -1.231 0.504 -1.231 0.277 0 0.504 -0.749 0.504 -1.664 0 -0.915 0.221 -1.885 0.49 -2.154 0.27 -0.27 0.643 -2.131 0.829 -4.136 0.186 -2.01 0.533 -3.645 0.771 -3.645 0.238 0 0.432 -2.156 0.432 -4.791 0 -2.858 -0.204 -4.791 -0.504 -4.791 -0.277 0 -0.504 -0.352 -0.504 -0.782 0 -0.93 -1.376 -3.692 -2.299 -4.615 -0.36 -0.36 -1.012 -0.655 -1.448 -0.655 -0.436 0 -0.793 -0.227 -0.793 -0.504 0 -0.277 -0.34 -0.504 -0.757 -0.504 -0.416 0 -0.757 -0.227 -0.757 -0.504 0 -0.277 -0.567 -0.504 -1.261 -0.504 -0.693 0 -1.261 -0.227 -1.261 -0.504 0 -0.277 -0.794 -0.504 -1.765 -0.504 -0.971 0 -1.765 -0.227 -1.765 -0.504 0 -0.277 -1.021 -0.504 -2.27 -0.504 -1.248 0 -2.27 -0.227 -2.27 -0.504 0 -0.28 -1.345 -0.504 -3.03 -0.504 -1.681 0 -3.03 -0.224 -3.03 -0.504 0 -0.288 -1.513 -0.504 -3.53 -0.504 -2.02 0 -3.53 -0.216 -3.53 -0.504 0 -0.318 -3.362 -0.504 -9.08 -0.504 -8.742 0 -9.08 0.037 -9.08 1.01 0 0.555 -0.227 1.01 -0.504 1.01 -0.277 0 -0.504 1.135 -0.504 2.522 0 1.387 -0.227 2.522 -0.504 2.522 -0.313 0 -0.504 2.774 -0.504 7.313 0 4.539 -0.191 7.313 -0.504 7.313 -0.316 0 -0.504 3.194 -0.504 8.574 0 5.38 -0.188 8.574 -0.504 8.574 -0.308 0 -0.504 2.354 -0.504 6.05 0 3.699 -0.196 6.05 -0.504 6.05 -0.299 0 -0.504 1.849 -0.504 4.539 0 2.69 -0.205 4.539 -0.504 4.539 -0.277 0 -0.504 1.135 -0.504 2.522 0 1.387 -0.227 2.522 -0.504 2.522 -0.277 0 -0.504 0.908 -0.504 2.02 0 1.11 -0.227 2.02 -0.504 2.02 -0.277 0 -0.504 0.794 -0.504 1.765 0 0.971 -0.227 1.765 -0.504 1.765 -0.277 0 -0.504 0.554 -0.504 1.231 0 0.677 -0.227 1.371 -0.504 1.543 -0.277 0.171 -0.504 0.866 -0.504 1.543 0 1.231 0.002 1.231 5.548 1.231 3.362 0 5.548 -0.199 5.548 -0.504 z"/><path d="m 43.28 180.87 c -1.734 -0.085 -3.152 -0.371 -3.152 -0.635 0 -0.264 -0.604 -0.48 -1.342 -0.48 -1.77 0 -4.206 -2.695 -4.206 -4.653 0 -1.732 1.726 -3.612 3.808 -4.147 0.818 -0.21 3.417 -0.572 5.775 -0.804 5.761 -0.566 8.07 -1.01 8.07 -1.547 0 -0.247 0.681 -0.449 1.513 -0.449 0.832 0 1.513 -0.227 1.513 -0.504 0 -0.277 0.681 -0.504 1.513 -0.504 0.832 0 1.513 -0.199 1.513 -0.441 0 -0.243 0.627 -0.567 1.394 -0.72 2.482 -0.496 3.65 -1.959 3.65 -4.572 0 -1.285 0.227 -2.336 0.504 -2.336 0.28 0 0.504 -1.345 0.504 -3.03 0 -1.664 0.206 -3.03 0.458 -3.03 0.252 0 0.581 -1.192 0.731 -2.648 0.15 -1.456 0.512 -4.066 0.803 -5.8 0.291 -1.734 0.767 -4.571 1.056 -6.304 0.29 -1.734 0.651 -4.287 0.803 -5.674 0.152 -1.387 0.483 -2.737 0.734 -3 0.252 -0.264 0.458 -1.669 0.458 -3.122 0 -1.454 0.227 -2.784 0.504 -2.955 0.277 -0.171 0.504 -1.433 0.504 -2.804 0 -1.371 0.227 -2.492 0.504 -2.492 0.277 0 0.504 -1.121 0.504 -2.492 0 -1.371 0.227 -2.632 0.504 -2.804 0.277 -0.171 0.504 -1.274 0.504 -2.451 0 -1.176 0.205 -2.355 0.455 -2.618 0.435 -0.458 0.752 -2.341 1.373 -8.17 0.155 -1.456 0.488 -2.648 0.74 -2.648 0.252 0 0.458 -0.681 0.458 -1.513 0 -1.01 -0.252 -1.513 -0.757 -1.513 -0.416 0 -0.757 0.227 -0.757 0.504 0 0.288 -1.513 0.504 -3.53 0.504 -2.02 0 -3.53 0.216 -3.53 0.504 0 0.315 -3.038 0.504 -8.105 0.504 -8.631 0 -9.546 -0.24 -9.546 -2.502 0 -1.502 3.201 -4.558 4.774 -4.558 0.703 0 1.278 -0.227 1.278 -0.504 0 -0.277 0.681 -0.504 1.513 -0.504 0.832 0 1.513 -0.227 1.513 -0.504 0 -0.277 0.681 -0.504 1.513 -0.504 0.832 0 1.513 -0.227 1.513 -0.504 0 -0.277 0.908 -0.504 2.02 -0.504 1.11 0 2.02 -0.227 2.02 -0.504 0 -0.277 0.908 -0.504 2.02 -0.504 1.11 0 2.02 -0.227 2.02 -0.504 0 -0.277 0.908 -0.504 2.02 -0.504 1.11 0 2.02 -0.227 2.02 -0.504 0 -0.277 0.908 -0.504 2.02 -0.504 1.11 0 2.02 -0.227 2.02 -0.504 0 -0.277 0.908 -0.504 2.02 -0.504 1.11 0 2.02 -0.227 2.02 -0.504 0 -0.308 2.354 -0.504 6.05 -0.504 4.484 0 6.06 -0.163 6.092 -0.63 0.032 -0.504 0.091 -0.504 0.294 0 0.173 0.43 1.525 0.63 4.247 0.63 2.326 0 3.993 0.211 3.993 0.504 0 0.277 0.351 0.504 0.779 0.504 1.459 0 3.255 2.352 3.255 4.264 0 0.983 -0.227 1.788 -0.504 1.788 -0.277 0 -0.504 0.454 -0.504 1.01 0 0.672 -0.336 1.01 -1.01 1.01 -0.555 0 -1.01 0.227 -1.01 0.504 0 0.277 -0.681 0.504 -1.513 0.504 -0.832 0 -1.513 0.227 -1.513 0.504 0 0.277 -0.908 0.504 -2.02 0.504 -1.11 0 -2.02 0.227 -2.02 0.504 0 0.279 -1.328 0.504 -2.975 0.504 h -2.975 l -0.273 2.143 c -0.15 1.179 -0.525 3.392 -0.833 4.917 -0.308 1.526 -0.685 3.682 -0.838 4.791 -0.153 1.11 -0.482 2.233 -0.731 2.496 -0.249 0.264 -0.453 1.328 -0.453 2.366 0 1.038 -0.227 2.027 -0.504 2.198 -0.277 0.171 -0.504 1.42 -0.504 2.774 0 1.354 -0.227 2.602 -0.504 2.774 -0.277 0.171 -0.504 1.433 -0.504 2.804 0 1.371 -0.227 2.492 -0.504 2.492 -0.277 0 -0.504 1.121 -0.504 2.492 0 1.371 -0.227 2.632 -0.504 2.804 -0.277 0.171 -0.504 1.547 -0.504 3.056 0 1.509 -0.227 2.744 -0.504 2.744 -0.277 0 -0.504 1.135 -0.504 2.522 0 1.387 -0.227 2.522 -0.504 2.522 -0.28 0 -0.504 1.345 -0.504 3.03 0 1.681 -0.224 3.03 -0.504 3.03 -0.288 0 -0.504 1.513 -0.504 3.53 0 2.02 -0.216 3.53 -0.504 3.53 -0.303 0 -0.504 2.02 -0.504 5.04 v 5.04 h 1.513 c 0.832 0 1.513 -0.227 1.513 -0.504 0 -0.277 0.908 -0.504 2.02 -0.504 1.11 0 2.02 0.227 2.02 0.504 0 0.277 0.34 0.504 0.757 0.504 0.416 0 0.757 0.211 0.757 0.468 0 0.258 0.371 0.839 0.825 1.293 0.722 0.722 0.738 0.993 0.126 2.176 -0.966 1.869 -3.782 4.637 -4.716 4.637 -0.425 0 -0.773 0.227 -0.773 0.504 0 0.277 -0.454 0.504 -1.01 0.504 -0.555 0 -1.01 0.227 -1.01 0.504 0 0.277 -0.681 0.504 -1.513 0.504 -0.832 0 -1.513 0.227 -1.513 0.504 0 0.277 -0.554 0.504 -1.231 0.504 -0.677 0 -1.371 0.227 -1.543 0.504 -0.171 0.277 -0.852 0.504 -1.513 0.504 -0.661 0 -1.342 0.227 -1.513 0.504 -0.171 0.277 -0.979 0.504 -1.795 0.504 -0.816 0 -1.483 0.227 -1.483 0.504 0 0.277 -0.794 0.504 -1.765 0.504 -0.971 0 -1.765 0.202 -1.765 0.449 0 0.247 -0.851 0.594 -1.891 0.771 -4.604 0.784 -5.17 0.932 -5.17 1.356 0 0.247 -0.889 0.449 -1.975 0.449 -1.086 0 -2.051 0.193 -2.143 0.43 -0.2 0.51 -6.443 0.904 -10.885 0.686 z"/></g></g></svg>