<svg xmlns="http://www.w3.org/2000/svg" viewBox="0 0 256 256"><g transform="translate(0 -796.36)"><path d="m 59.778 823.05 c 95.24 -84.46 241.79 48.767 182.53 160.27 -59.906 112.74 -258.16 82.69 -241.3 -55.767 5.02 -41.2 27.695 -76.954 58.764 -104.51 z" fill="#fff" color="#fff"/><g fill="#ff4500" stroke="#ff4500" stroke-width="0.715" transform="translate(0 796.36)"><path d="m 139.35 188.21 c -0.492 -0.198 -0.894 -0.795 -0.894 -1.325 0 -0.531 -0.724 -1.193 -1.609 -1.473 -1.912 -0.604 -4.111 -2.965 -4.111 -4.416 0 -1.716 2.296 -6 3.454 -6.444 2.609 -1 3.732 -3.149 4.486 -8.58 0.422 -3.041 1.035 -6.05 1.361 -6.678 0.326 -0.632 0.825 -6.02 1.108 -11.976 0.283 -5.955 0.792 -10.827 1.13 -10.827 0.338 0 0.615 -1.672 0.615 -3.716 0 -6.123 1.505 -23.703 2.16 -25.24 0.336 -0.786 0.82 -4.245 1.077 -7.686 l 0.466 -6.256 -2.457 0 c -2.49 0 -6.543 1.644 -8.268 3.354 -0.52 0.515 -1.388 0.936 -1.931 0.936 -0.542 0 -1.243 0.457 -1.558 1.016 -0.927 1.646 -4.188 2.139 -5.316 0.804 -0.536 -0.635 -1.377 -1.603 -1.869 -2.151 -1.052 -1.174 -1.174 -2.529 -0.227 -2.529 0.367 0 0.894 -0.724 1.172 -1.609 0.626 -1.995 3.583 -4.826 5.04 -4.826 0.598 0 1.52 -0.402 2.051 -0.894 0.53 -0.492 1.802 -1.537 2.827 -2.324 1.024 -0.786 2.287 -1.805 2.806 -2.263 0.519 -0.458 2.521 -1.062 4.451 -1.341 1.929 -0.28 3.949 -0.861 4.489 -1.293 1.378 -1.102 35.696 -1.126 36.401 -0.025 0.281 0.438 2.441 1.032 4.8 1.32 2.359 0.288 4.612 0.778 5 1.09 0.393 0.312 2.565 0.975 4.826 1.475 2.261 0.5 4.111 1.143 4.111 1.43 0 0.287 1.126 0.733 2.502 0.991 1.376 0.258 2.502 0.755 2.502 1.104 0 0.349 0.688 0.853 1.528 1.119 2.067 0.656 7.48 6.156 8.141 8.271 0.293 0.939 0.847 1.908 1.23 2.155 0.87 0.559 0.888 13.536 0.02 14.13 -0.35 0.239 -1.026 2.604 -1.504 5.254 -0.478 2.651 -1.641 6.273 -2.586 8.05 -0.945 1.776 -2.088 4.353 -2.541 5.727 -0.453 1.373 -1.121 2.497 -1.483 2.497 -0.363 0 -0.66 0.433 -0.66 0.963 0 0.53 -0.643 1.705 -1.43 2.612 -0.786 0.907 -1.43 2.092 -1.43 2.634 0 0.542 -0.483 1.171 -1.072 1.397 -0.59 0.226 -1.072 0.844 -1.072 1.372 0 0.528 -0.436 1.218 -0.968 1.532 -0.532 0.314 -1.345 1.29 -1.806 2.169 -1.093 2.082 -12.737 13.565 -15.278 15.07 -1.081 0.639 -1.966 1.414 -1.966 1.722 0 0.308 -0.467 0.561 -1.037 0.561 -0.57 0 -1.294 0.403 -1.609 0.895 -0.314 0.492 -1.537 1.377 -2.717 1.966 -1.18 0.589 -2.536 1.393 -3.01 1.786 -0.478 0.393 -1.3 1.072 -1.828 1.508 -0.527 0.436 -2.219 1.208 -3.759 1.717 -1.54 0.508 -3.234 1.358 -3.764 1.889 -0.53 0.53 -1.566 0.965 -2.301 0.965 -0.735 0 -1.522 0.3 -1.749 0.667 -0.227 0.367 -2.256 1.029 -4.511 1.471 -6.929 1.36 -11.151 4.02 -12.05 7.599 -0.592 2.357 -6.2 3.945 -9.388 2.659 l 0 0 z m 26.12 -19.223 c 0.28 -0.412 1.839 -1.138 3.463 -1.612 1.625 -0.474 3.353 -1.343 3.841 -1.931 0.488 -0.588 1.331 -1.069 1.872 -1.069 0.542 0 0.985 -0.33 0.985 -0.733 0 -0.403 0.813 -1.042 1.806 -1.419 1.855 -0.705 2.194 -0.936 5.467 -3.726 1.051 -0.896 2.803 -2.272 3.892 -3.059 1.09 -0.786 2.482 -2.039 3.094 -2.783 0.612 -0.744 1.711 -1.87 2.443 -2.502 2.309 -1.993 2.922 -2.649 4.389 -4.694 0.786 -1.096 1.953 -2.517 2.592 -3.157 0.639 -0.64 1.406 -1.953 1.703 -2.918 0.297 -0.965 0.981 -2.194 1.519 -2.732 0.538 -0.538 0.978 -1.438 0.978 -1.999 0 -0.562 0.292 -1.021 0.649 -1.021 0.357 0 1.061 -1.609 1.565 -3.575 0.504 -1.966 1.157 -3.575 1.452 -3.575 0.295 0 0.761 -1.528 1.037 -3.396 0.275 -1.868 0.842 -3.616 1.259 -3.884 1.256 -0.808 1.049 -15.01 -0.242 -16.539 -2.956 -3.51 -4.51 -4.806 -6.281 -5.24 -1.068 -0.261 -2.119 -0.745 -2.337 -1.074 -0.218 -0.33 -1.987 -0.812 -3.932 -1.072 -1.945 -0.26 -3.697 -0.691 -3.893 -0.957 -0.582 -0.787 -15.496 -2.158 -23.466 -2.157 -5.649 0.0001 -7.634 0.256 -8.466 1.088 -0.869 0.869 -1.232 4.565 -1.809 18.41 -0.397 9.528 -0.988 17.967 -1.313 18.753 -0.325 0.786 -0.799 5.735 -1.052 10.996 -0.253 5.261 -0.736 10.09 -1.072 10.724 -0.336 0.637 -0.952 3.445 -1.368 6.241 -0.416 2.795 -1.242 6.01 -1.835 7.15 -2.291 4.393 -1.851 4.735 5.732 4.459 3.75 -0.136 7.05 -0.585 7.328 -0.998 l 0 0 z"/><path d="m 42.509 180.68 c -4.586 -0.583 -7.727 -2.739 -7.727 -5.304 0 -2.09 1.804 -3.854 3.941 -3.854 0.932 0 1.867 -0.279 2.077 -0.62 0.211 -0.341 2.836 -0.777 5.835 -0.97 2.999 -0.192 5.66 -0.671 5.915 -1.064 0.255 -0.393 2.199 -1.126 4.321 -1.629 4.872 -1.156 6.509 -2.536 6.509 -5.486 0 -1.266 0.283 -2.476 0.628 -2.69 0.346 -0.214 1.041 -4.093 1.546 -8.622 0.505 -4.528 1.146 -8.233 1.424 -8.233 0.279 0 0.738 -2.654 1.02 -5.898 0.282 -3.244 0.77 -6.22 1.085 -6.613 0.314 -0.393 0.976 -4.174 1.471 -8.401 0.495 -4.227 1.137 -7.686 1.427 -7.686 0.29 0 0.758 -2.172 1.039 -4.826 0.281 -2.654 0.759 -5.148 1.063 -5.541 0.303 -0.393 0.773 -2.747 1.043 -5.23 0.486 -4.465 0.474 -4.506 -1.051 -3.69 -0.86 0.46 -6.407 1 -12.534 1.226 -9.951 0.363 -11.04 0.285 -11.463 -0.827 -0.877 -2.286 1.117 -4.566 4.823 -5.515 1.912 -0.49 3.476 -1.141 3.476 -1.446 0 -0.305 1.609 -0.769 3.575 -1.029 1.966 -0.261 3.575 -0.697 3.575 -0.968 0 -0.272 2.654 -0.921 5.898 -1.442 3.244 -0.521 6.095 -1.25 6.336 -1.62 0.612 -0.94 15.258 -1.811 20.802 -1.237 5.057 0.523 7.717 2.15 7.717 4.72 0 2.757 -0.792 3.782 -3.286 4.249 -1.338 0.251 -2.433 0.71 -2.433 1.019 0 0.31 -2.252 0.789 -5 1.065 -4.93 0.495 -5 0.534 -5 2.575 0 1.14 -0.289 2.072 -0.642 2.072 -0.353 0 -0.869 2.252 -1.145 5 -0.276 2.753 -0.749 5 -1.051 5 -0.302 0 -0.969 3.539 -1.484 7.865 -0.514 4.326 -1.168 7.865 -1.452 7.865 -0.284 0 -0.748 2.333 -1.032 5.183 -0.284 2.851 -0.778 5.351 -1.099 5.555 -0.321 0.204 -0.99 4.467 -1.486 9.473 -0.497 5.01 -1.161 9.102 -1.476 9.102 -0.315 0 -0.573 2.28 -0.573 5.068 l 0 5.068 2.806 -0.474 c 1.735 -0.293 3.441 -0.14 4.469 0.402 3.961 2.087 3.362 4.141 -2.667 9.128 -0.415 0.343 -2.426 1.053 -4.469 1.576 -2.043 0.524 -3.714 1.176 -3.714 1.45 0 0.274 -1.44 0.715 -3.201 0.979 -1.76 0.264 -3.367 0.75 -3.571 1.08 -0.204 0.33 -2.539 0.977 -5.189 1.439 -2.65 0.461 -4.991 1.118 -5.202 1.459 -0.607 0.982 -11.385 1.858 -15.864 1.288 l 0 0 z"/></g></g></svg>