<svg xmlns="http://www.w3.org/2000/svg" viewBox="0 0 256 256"><g transform="translate(0 -796.36)"><path d="m 59.778 823.05 c 95.24 -84.46 241.79 48.767 182.53 160.27 -59.906 112.74 -258.16 82.69 -241.3 -55.767 5.02 -41.2 27.695 -76.954 58.764 -104.51 z" style="fill:#fff;color:#fff"/><g transform="translate(0 796.36)" style="fill:#ff4500;fill-rule:evenodd"><path d="m 139.37 188.39 c 0 -0.316 -0.259 -0.575 -0.575 -0.575 -0.317 0 -0.575 -0.34 -0.575 -0.759 0 -0.49 -0.339 -0.844 -0.958 -0.999 -0.527 -0.132 -0.958 -0.394 -0.958 -0.582 0 -0.188 -0.259 -0.342 -0.575 -0.342 -0.316 0 -0.575 -0.259 -0.575 -0.575 0 -0.358 -0.362 -0.575 -0.958 -0.575 -0.766 0 -0.958 -0.192 -0.958 -0.958 0 -0.527 -0.172 -0.958 -0.383 -0.958 -0.211 0 -0.383 -0.69 -0.383 -1.533 0 -0.843 0.172 -1.533 0.383 -1.533 0.211 0 0.383 -0.431 0.383 -0.958 0 -0.596 0.217 -0.958 0.575 -0.958 0.358 0 0.575 -0.362 0.575 -0.958 0 -0.596 0.217 -0.958 0.575 -0.958 0.316 0 0.575 -0.259 0.575 -0.575 0 -0.326 0.344 -0.575 0.794 -0.575 0.848 0 1.888 -0.829 1.888 -1.505 0 -0.226 0.259 -0.411 0.575 -0.411 0.415 0 0.575 -0.426 0.575 -1.533 0 -1.107 0.16 -1.533 0.575 -1.533 0.441 0 0.575 -0.49 0.575 -2.107 0 -1.159 0.172 -2.107 0.383 -2.107 0.221 0 0.383 -1.213 0.383 -2.874 0 -2.299 0.115 -2.874 0.575 -2.874 0.481 0 0.575 -0.805 0.575 -4.949 0 -3.619 0.129 -4.992 0.479 -5.108 0.351 -0.117 0.511 -1.866 0.6 -6.545 0.069 -3.608 0.277 -6.386 0.479 -6.386 0.205 0 0.357 -2.374 0.357 -5.555 0 -4.683 0.09 -5.555 0.575 -5.555 0.478 0 0.575 -0.745 0.575 -4.406 0 -2.682 0.15 -4.406 0.383 -4.406 0.231 0 0.383 -1.586 0.383 -3.991 0 -2.852 0.137 -4.04 0.479 -4.15 0.333 -0.111 0.519 -1.434 0.61 -4.342 0.097 -3.088 0.273 -4.263 0.67 -4.489 0.376 -0.214 0.539 -1.054 0.539 -2.778 v -2.471 h -3.065 c -2.469 0 -3.065 0.112 -3.065 0.575 0 0.383 -0.383 0.575 -1.149 0.575 -0.632 0 -1.149 0.172 -1.149 0.383 0 0.211 -0.431 0.383 -0.958 0.383 -0.596 0 -0.958 0.217 -0.958 0.575 0 0.316 -0.259 0.575 -0.575 0.575 -0.316 0 -0.575 0.172 -0.575 0.383 0 0.211 -0.306 0.383 -0.681 0.383 -0.701 0 -2 1.247 -2 1.92 0 0.208 -0.517 0.379 -1.149 0.379 -0.632 0 -1.149 0.172 -1.149 0.383 0 0.211 -0.603 0.383 -1.341 0.383 -0.738 0 -1.341 -0.172 -1.341 -0.383 0 -0.211 -0.259 -0.383 -0.575 -0.383 -0.316 0 -0.575 -0.259 -0.575 -0.575 0 -0.316 -0.172 -0.575 -0.383 -0.575 -0.211 0 -0.383 -0.431 -0.383 -0.958 0 -0.596 -0.217 -0.958 -0.575 -0.958 -0.358 0 -0.575 -0.362 -0.575 -0.958 0 -0.596 0.217 -0.958 0.575 -0.958 0.358 0 0.575 -0.362 0.575 -0.958 0 -0.527 0.172 -0.958 0.383 -0.958 0.211 0 0.383 -0.431 0.383 -0.958 0 -0.596 0.217 -0.958 0.575 -0.958 0.316 0 0.575 -0.259 0.575 -0.575 0 -0.316 0.259 -0.575 0.575 -0.575 0.316 0 0.575 -0.259 0.575 -0.575 0 -0.358 0.362 -0.575 0.958 -0.575 0.527 0 0.958 -0.172 0.958 -0.383 0 -0.211 0.431 -0.383 0.958 -0.383 0.596 0 0.958 -0.217 0.958 -0.575 0 -0.358 0.362 -0.575 0.958 -0.575 0.527 0 0.958 -0.172 0.958 -0.383 0 -0.211 0.259 -0.383 0.575 -0.383 0.316 0 0.575 -0.259 0.575 -0.575 0 -0.316 0.172 -0.575 0.383 -0.575 0.211 0 0.383 -0.259 0.383 -0.575 0 -0.316 0.259 -0.575 0.575 -0.575 0.316 0 0.575 -0.172 0.575 -0.383 0 -0.211 0.431 -0.383 0.958 -0.383 0.596 0 0.958 -0.217 0.958 -0.575 0 -0.415 0.426 -0.575 1.533 -0.575 0.843 0 1.533 -0.172 1.533 -0.383 0 -0.216 1.086 -0.383 2.49 -0.383 1.958 0 2.49 -0.123 2.49 -0.575 0 -0.479 0.763 -0.575 4.57 -0.575 3.552 0 4.698 -0.128 5.145 -0.575 0.863 -0.863 21.319 -0.863 21.319 0 0 0.459 0.57 0.575 2.833 0.575 2.164 0 2.885 0.136 3.053 0.575 0.162 0.423 0.831 0.575 2.531 0.575 1.285 0 2.311 0.17 2.311 0.383 0 0.211 0.874 0.383 1.943 0.383 1.216 0 2.158 0.215 2.518 0.575 0.316 0.316 1.252 0.575 2.08 0.575 0.828 0 1.505 0.172 1.505 0.383 0 0.211 0.702 0.383 1.56 0.383 0.876 0 1.812 0.252 2.135 0.575 0.316 0.316 0.993 0.575 1.505 0.575 0.572 0 0.93 0.222 0.93 0.575 0 0.415 0.426 0.575 1.533 0.575 0.843 0 1.533 0.172 1.533 0.383 0 0.211 0.431 0.383 0.958 0.383 0.596 0 0.958 0.217 0.958 0.575 0 0.316 0.259 0.575 0.575 0.575 0.316 0 0.575 0.172 0.575 0.383 0 0.211 0.431 0.383 0.958 0.383 0.527 0 0.958 0.17 0.958 0.379 0 0.486 1.221 1.92 1.635 1.92 0.456 0 2.196 1.808 2.196 2.281 0 0.22 0.259 0.401 0.575 0.401 0.316 0 0.575 0.259 0.575 0.575 0 0.316 0.172 0.575 0.383 0.575 0.211 0 0.383 0.431 0.383 0.958 0 0.596 0.217 0.958 0.575 0.958 0.383 0 0.575 0.383 0.575 1.149 0 0.766 0.192 1.149 0.575 1.149 0.46 0 0.575 0.575 0.575 2.874 0 1.66 0.162 2.874 0.383 2.874 0.211 0 0.383 0.431 0.383 0.958 0 0.527 -0.172 0.958 -0.383 0.958 -0.227 0 -0.383 1.391 -0.383 3.407 0 2.675 -0.123 3.455 -0.575 3.628 -0.405 0.156 -0.575 0.788 -0.575 2.148 0 1.458 -0.14 1.928 -0.575 1.928 -0.434 0 -0.575 0.468 -0.575 1.916 0 1.054 -0.172 1.916 -0.383 1.916 -0.211 0 -0.383 0.443 -0.383 0.985 0 0.542 -0.259 1.244 -0.575 1.56 -0.316 0.316 -0.575 0.993 -0.575 1.505 0 0.512 -0.172 0.93 -0.383 0.93 -0.211 0 -0.383 0.443 -0.383 0.985 0 0.542 -0.259 1.244 -0.575 1.56 -0.316 0.316 -0.575 0.993 -0.575 1.505 0 0.572 -0.222 0.93 -0.575 0.93 -0.358 0 -0.575 0.362 -0.575 0.958 0 0.527 -0.172 0.958 -0.383 0.958 -0.211 0 -0.383 0.271 -0.383 0.602 0 0.331 -0.216 0.842 -0.479 1.136 -1.223 1.364 -1.437 1.73 -1.437 2.46 0 0.44 -0.251 0.782 -0.575 0.782 -0.316 0 -0.575 0.24 -0.575 0.534 0 0.294 -0.259 0.633 -0.575 0.754 -0.316 0.121 -0.575 0.571 -0.575 0.999 0 0.428 -0.172 0.778 -0.383 0.778 -0.211 0 -0.383 0.259 -0.383 0.575 0 0.316 -0.259 0.575 -0.575 0.575 -0.358 0 -0.575 0.362 -0.575 0.958 0 0.527 -0.172 0.958 -0.383 0.958 -0.211 0 -0.383 0.259 -0.383 0.575 0 0.316 -0.17 0.575 -0.379 0.575 -0.684 0 -1.92 1.305 -1.92 2.028 0 0.777 -0.857 1.803 -1.505 1.803 -0.226 0 -0.411 0.259 -0.411 0.575 0 0.316 -0.185 0.575 -0.411 0.575 -0.53 0 -1.505 0.975 -1.505 1.505 0 0.226 -0.259 0.411 -0.575 0.411 -0.316 0 -0.575 0.178 -0.575 0.396 0 0.401 -2.151 2.669 -2.531 2.669 -0.365 0 -1.3 1.082 -1.3 1.505 0 0.226 -0.259 0.411 -0.575 0.411 -0.316 0 -0.575 0.185 -0.575 0.411 0 0.53 -0.975 1.505 -1.505 1.505 -0.226 0 -0.411 0.259 -0.411 0.575 0 0.326 -0.344 0.575 -0.796 0.575 -0.827 0 -3.036 1.93 -3.036 2.652 0 0.227 -0.259 0.413 -0.575 0.413 -0.316 0 -0.575 0.172 -0.575 0.383 0 0.211 -0.431 0.383 -0.958 0.383 -0.596 0 -0.958 0.217 -0.958 0.575 0 0.316 -0.259 0.575 -0.575 0.575 -0.316 0 -0.575 0.259 -0.575 0.575 0 0.358 -0.362 0.575 -0.958 0.575 -0.527 0 -0.958 0.172 -0.958 0.383 0 0.211 -0.259 0.383 -0.575 0.383 -0.316 0 -0.575 0.259 -0.575 0.575 0 0.358 -0.362 0.575 -0.958 0.575 -0.527 0 -0.958 0.172 -0.958 0.383 0 0.211 -0.259 0.383 -0.575 0.383 -0.316 0 -0.575 0.259 -0.575 0.575 0 0.358 -0.362 0.575 -0.958 0.575 -0.596 0 -0.958 0.217 -0.958 0.575 0 0.358 -0.362 0.575 -0.958 0.575 -0.527 0 -0.958 0.172 -0.958 0.383 0 0.211 -0.431 0.383 -0.958 0.383 -0.596 0 -0.958 0.217 -0.958 0.575 0 0.358 -0.362 0.575 -0.958 0.575 -0.527 0 -0.958 0.172 -0.958 0.383 0 0.211 -0.517 0.383 -1.149 0.383 -0.766 0 -1.149 0.192 -1.149 0.575 0 0.353 -0.359 0.575 -0.93 0.575 -0.512 0 -1.189 0.259 -1.505 0.575 -0.316 0.316 -1.018 0.575 -1.56 0.575 -0.542 0 -0.985 0.172 -0.985 0.383 0 0.211 -0.862 0.383 -1.916 0.383 -1.447 0 -1.916 0.14 -1.916 0.575 0 0.434 -0.468 0.575 -1.916 0.575 -1.054 0 -1.916 0.172 -1.916 0.383 0 0.211 -0.517 0.383 -1.149 0.383 -0.76 0 -1.149 0.192 -1.149 0.567 0 0.312 -0.431 0.676 -0.958 0.808 -0.527 0.132 -0.958 0.394 -0.958 0.582 0 0.188 -0.259 0.342 -0.575 0.342 -0.358 0 -0.575 0.362 -0.575 0.958 0 0.527 -0.172 0.958 -0.383 0.958 -0.211 0 -0.383 0.259 -0.383 0.575 0 0.316 -0.259 0.575 -0.575 0.575 -0.358 0 -0.575 0.362 -0.575 0.958 0 0.596 -0.217 0.958 -0.575 0.958 -0.316 0 -0.575 0.172 -0.575 0.383 0 0.211 -0.35 0.383 -0.778 0.383 -0.428 0 -0.878 0.259 -0.999 0.575 -0.169 0.439 -0.889 0.575 -3.053 0.575 -2.262 0 -2.833 -0.116 -2.833 -0.575 z m 22.988 -18.774 c 0 -0.415 0.426 -0.575 1.533 -0.575 0.843 0 1.533 -0.172 1.533 -0.383 0 -0.211 0.609 -0.383 1.353 -0.383 0.849 0 1.435 -0.214 1.574 -0.575 0.121 -0.316 0.633 -0.575 1.137 -0.575 0.56 0 0.917 -0.224 0.917 -0.575 0 -0.358 0.362 -0.575 0.958 -0.575 0.527 0 0.958 -0.172 0.958 -0.383 0 -0.211 0.259 -0.383 0.575 -0.383 0.316 0 0.575 -0.259 0.575 -0.575 0 -0.358 0.362 -0.575 0.958 -0.575 0.527 0 0.958 -0.172 0.958 -0.383 0 -0.211 0.259 -0.383 0.575 -0.383 0.316 0 0.575 -0.259 0.575 -0.575 0 -0.358 0.362 -0.575 0.958 -0.575 0.596 0 0.958 -0.217 0.958 -0.575 0 -0.316 0.18 -0.575 0.399 -0.575 0.376 0 0.809 -0.3 2.077 -1.437 0.294 -0.263 0.719 -0.479 0.945 -0.479 0.226 0 0.411 -0.172 0.411 -0.383 0 -0.211 0.259 -0.383 0.575 -0.383 0.316 0 0.575 -0.259 0.575 -0.575 0 -0.316 0.259 -0.575 0.575 -0.575 0.316 0 0.575 -0.259 0.575 -0.575 0 -0.319 0.341 -0.575 0.766 -0.575 0.421 0 0.766 -0.172 0.766 -0.383 0 -0.211 0.259 -0.383 0.575 -0.383 0.316 0 0.575 -0.259 0.575 -0.575 0 -0.316 0.259 -0.575 0.575 -0.575 0.316 0 0.575 -0.259 0.575 -0.575 0 -0.316 0.185 -0.575 0.411 -0.575 0.53 0 1.505 -0.975 1.505 -1.505 0 -0.226 0.185 -0.411 0.411 -0.411 0.53 0 1.505 -0.975 1.505 -1.505 0 -0.226 0.259 -0.411 0.575 -0.411 0.316 0 0.575 -0.259 0.575 -0.575 0 -0.316 0.185 -0.575 0.411 -0.575 0.53 0 1.505 -0.975 1.505 -1.505 0 -0.226 0.17 -0.411 0.379 -0.411 0.684 0 1.92 -1.305 1.92 -2.028 0 -0.777 0.857 -1.803 1.505 -1.803 0.226 0 0.411 -0.259 0.411 -0.575 0 -0.316 0.172 -0.575 0.383 -0.575 0.211 0 0.383 -0.431 0.383 -0.958 0 -0.596 0.217 -0.958 0.575 -0.958 0.358 0 0.575 -0.362 0.575 -0.958 0 -0.596 0.217 -0.958 0.575 -0.958 0.316 0 0.575 -0.259 0.575 -0.575 0 -0.316 0.172 -0.575 0.383 -0.575 0.211 0 0.383 -0.69 0.383 -1.533 0 -1.107 0.16 -1.533 0.575 -1.533 0.358 0 0.575 -0.362 0.575 -0.958 0 -0.527 0.172 -0.958 0.383 -0.958 0.211 0 0.383 -0.517 0.383 -1.149 0 -0.766 0.192 -1.149 0.575 -1.149 0.401 0 0.575 -0.404 0.575 -1.341 0 -0.937 0.173 -1.341 0.575 -1.341 0.415 0 0.575 -0.426 0.575 -1.533 0 -0.843 0.172 -1.533 0.383 -1.533 0.211 0 0.383 -0.844 0.383 -1.875 0 -1.313 0.172 -1.941 0.575 -2.095 0.405 -0.156 0.575 -0.788 0.575 -2.148 0 -1.06 0.172 -1.928 0.383 -1.928 0.236 0 0.383 -1.916 0.383 -4.981 0 -3.065 -0.147 -4.981 -0.383 -4.981 -0.211 0 -0.383 -0.517 -0.383 -1.149 0 -0.766 -0.192 -1.149 -0.575 -1.149 -0.319 0 -0.575 -0.341 -0.575 -0.766 0 -0.421 -0.172 -0.766 -0.383 -0.766 -0.211 0 -0.383 -0.259 -0.383 -0.575 0 -0.316 -0.259 -0.575 -0.575 -0.575 -0.316 0 -0.575 -0.154 -0.575 -0.342 0 -0.188 -0.431 -0.45 -0.958 -0.582 -0.527 -0.132 -0.958 -0.496 -0.958 -0.808 0 -0.312 -0.259 -0.567 -0.575 -0.567 -0.316 0 -0.575 -0.172 -0.575 -0.383 0 -0.211 -0.69 -0.383 -1.533 -0.383 -1.107 0 -1.533 -0.16 -1.533 -0.575 0 -0.415 -0.426 -0.575 -1.533 -0.575 -0.843 0 -1.533 -0.172 -1.533 -0.383 0 -0.216 -1.086 -0.383 -2.49 -0.383 -1.958 0 -2.49 -0.123 -2.49 -0.575 0 -0.46 -0.575 -0.575 -2.874 -0.575 -2.299 0 -2.874 -0.115 -2.874 -0.575 0 -0.468 -0.639 -0.575 -3.448 -0.575 -2.043 0 -3.448 -0.156 -3.448 -0.383 0 -0.245 -3.321 -0.383 -9.195 -0.383 h -9.195 v 0.958 c 0 0.596 -0.217 0.958 -0.575 0.958 -0.452 0 -0.575 0.532 -0.575 2.49 0 1.405 -0.167 2.49 -0.383 2.49 -0.242 0 -0.383 2.732 -0.383 7.43 0 6.251 -0.091 7.465 -0.575 7.651 -0.487 0.187 -0.575 1.512 -0.575 8.662 0 5.372 -0.139 8.441 -0.383 8.441 -0.239 0 -0.383 2.235 -0.383 5.939 0 5.02 -0.089 5.939 -0.575 5.939 -0.478 0 -0.575 0.745 -0.575 4.406 0 3.661 -0.097 4.406 -0.575 4.406 -0.456 0 -0.575 0.553 -0.575 2.682 0 1.533 -0.164 2.682 -0.383 2.682 -0.211 0 -0.383 0.788 -0.383 1.751 0 1.046 -0.231 1.983 -0.575 2.326 -0.316 0.316 -0.575 1.252 -0.575 2.08 0 0.828 -0.172 1.505 -0.383 1.505 -0.211 0 -0.383 0.517 -0.383 1.149 0 0.766 -0.192 1.149 -0.575 1.149 -0.415 0 -0.575 0.426 -0.575 1.533 v 1.533 h 5.555 c 4.683 0 5.555 -0.09 5.555 -0.575 z"/><path d="m 43.1 181.03 c -1.938 -0.113 -2.586 -0.29 -2.586 -0.707 0 -0.395 -0.447 -0.557 -1.533 -0.557 -0.843 0 -1.533 -0.172 -1.533 -0.383 0 -0.211 -0.259 -0.383 -0.575 -0.383 -0.316 0 -0.575 -0.185 -0.575 -0.411 0 -0.53 -0.975 -1.505 -1.505 -1.505 -0.237 0 -0.411 -0.809 -0.411 -1.916 0 -1.447 0.14 -1.916 0.575 -1.916 0.316 0 0.575 -0.259 0.575 -0.575 0 -0.316 0.172 -0.575 0.383 -0.575 0.211 0 0.383 -0.259 0.383 -0.575 0 -0.441 0.49 -0.575 2.107 -0.575 1.159 0 2.107 -0.172 2.107 -0.383 0 -0.231 1.587 -0.383 3.996 -0.383 3.041 0 4.133 -0.137 4.57 -0.575 0.316 -0.316 1.19 -0.575 1.943 -0.575 0.753 0 1.368 -0.172 1.368 -0.383 0 -0.211 0.69 -0.383 1.533 -0.383 1.107 0 1.533 -0.16 1.533 -0.575 0 -0.415 0.426 -0.575 1.533 -0.575 1.107 0 1.533 -0.16 1.533 -0.575 0 -0.401 0.404 -0.575 1.341 -0.575 0.738 0 1.341 -0.172 1.341 -0.383 0 -0.211 0.259 -0.383 0.575 -0.383 0.316 0 0.575 -0.259 0.575 -0.575 0 -0.316 0.259 -0.575 0.575 -0.575 0.452 0 0.575 -0.532 0.575 -2.49 0 -1.405 0.167 -2.49 0.383 -2.49 0.223 0 0.383 -1.277 0.383 -3.065 0 -2.469 0.112 -3.065 0.575 -3.065 0.448 0 0.575 -0.514 0.575 -2.326 0 -1.557 0.19 -2.516 0.575 -2.901 0.392 -0.392 0.575 -1.359 0.575 -3.038 0 -1.387 0.167 -2.463 0.383 -2.463 0.222 0 0.383 -1.222 0.383 -2.901 0 -2.068 0.165 -3.066 0.575 -3.476 0.4 -0.4 0.575 -1.381 0.575 -3.229 0 -1.514 0.165 -2.655 0.383 -2.655 0.221 0 0.383 -1.2 0.383 -2.833 0 -2.164 0.136 -2.885 0.575 -3.053 0.44 -0.169 0.575 -0.895 0.575 -3.106 0 -2.31 0.115 -2.886 0.575 -2.886 0.452 0 0.575 -0.532 0.575 -2.49 0 -1.405 0.167 -2.49 0.383 -2.49 0.216 0 0.383 -1.086 0.383 -2.49 0 -1.958 0.123 -2.49 0.575 -2.49 0.456 0 0.575 -0.553 0.575 -2.682 0 -1.533 0.164 -2.682 0.383 -2.682 0.221 0 0.383 -1.213 0.383 -2.874 0 -2.299 0.115 -2.874 0.575 -2.874 0.415 0 0.575 -0.426 0.575 -1.533 0 -1.107 -0.16 -1.533 -0.575 -1.533 -0.316 0 -0.575 0.259 -0.575 0.575 0 0.468 -0.639 0.575 -3.448 0.575 -2.043 0 -3.448 0.156 -3.448 0.383 0 0.244 -3.065 0.383 -8.429 0.383 -5.364 0 -8.429 -0.139 -8.429 -0.383 0 -0.211 -0.259 -0.383 -0.575 -0.383 -0.404 0 -0.575 -0.407 -0.575 -1.368 0 -1.339 0.687 -2.463 1.505 -2.463 0.226 0 0.411 -0.259 0.411 -0.575 0 -0.316 0.259 -0.575 0.575 -0.575 0.316 0 0.575 -0.259 0.575 -0.575 0 -0.415 0.426 -0.575 1.533 -0.575 0.843 0 1.533 -0.172 1.533 -0.383 0 -0.211 0.609 -0.383 1.353 -0.383 0.849 0 1.435 -0.214 1.574 -0.575 0.136 -0.355 0.718 -0.575 1.521 -0.575 0.715 0 1.3 -0.172 1.3 -0.383 0 -0.211 0.948 -0.383 2.107 -0.383 1.618 0 2.107 -0.134 2.107 -0.575 0 -0.434 0.468 -0.575 1.916 -0.575 1.447 0 1.916 -0.14 1.916 -0.575 0 -0.441 0.49 -0.575 2.107 -0.575 1.159 0 2.107 -0.172 2.107 -0.383 0 -0.211 0.862 -0.383 1.916 -0.383 1.447 0 1.916 -0.14 1.916 -0.575 0 -0.441 0.49 -0.575 2.107 -0.575 1.159 0 2.107 -0.154 2.107 -0.341 0 -0.188 2.593 -0.405 5.763 -0.482 4.578 -0.112 5.838 -0.258 6.13 -0.712 0.325 -0.506 0.409 -0.506 0.736 0.003 0.277 0.432 1.323 0.607 4.215 0.706 2.115 0.072 3.846 0.288 3.846 0.479 0 0.191 0.339 0.347 0.753 0.347 0.414 0 1.276 0.511 1.916 1.136 0.99 0.968 1.163 1.422 1.163 3.065 0 1.061 -0.172 1.929 -0.383 1.929 -0.211 0 -0.383 0.431 -0.383 0.958 0 0.766 -0.192 0.958 -0.958 0.958 -0.527 0 -0.958 0.172 -0.958 0.383 0 0.211 -0.69 0.383 -1.533 0.383 -1.107 0 -1.533 0.16 -1.533 0.575 0 0.441 -0.49 0.575 -2.107 0.575 -1.159 0 -2.107 0.172 -2.107 0.383 0 0.221 -1.213 0.383 -2.874 0.383 h -2.874 v 2.107 c 0 1.618 -0.134 2.107 -0.575 2.107 -0.452 0 -0.575 0.532 -0.575 2.49 0 1.958 -0.123 2.49 -0.575 2.49 -0.452 0 -0.575 0.532 -0.575 2.49 0 1.405 -0.167 2.49 -0.383 2.49 -0.216 0 -0.383 1.075 -0.383 2.458 0 1.561 -0.167 2.514 -0.456 2.611 -0.269 0.09 -0.523 1.205 -0.619 2.714 -0.09 1.409 -0.315 2.562 -0.502 2.562 -0.186 0 -0.339 1.293 -0.339 2.874 0 2.299 -0.115 2.874 -0.575 2.874 -0.452 0 -0.575 0.532 -0.575 2.49 0 1.958 -0.123 2.49 -0.575 2.49 -0.46 0 -0.575 0.575 -0.575 2.874 0 1.66 -0.162 2.874 -0.383 2.874 -0.215 0 -0.383 1.072 -0.383 2.449 0 1.824 -0.147 2.506 -0.575 2.67 -0.44 0.169 -0.575 0.895 -0.575 3.106 0 1.668 -0.162 2.886 -0.383 2.886 -0.227 0 -0.383 1.405 -0.383 3.448 0 2.81 -0.106 3.448 -0.575 3.448 -0.482 0 -0.575 0.83 -0.575 5.172 v 5.172 h 1.122 c 0.617 0 1.381 -0.259 1.697 -0.575 0.343 -0.343 1.28 -0.575 2.326 -0.575 1.301 0 1.751 0.148 1.751 0.575 0 0.316 0.259 0.575 0.575 0.575 0.316 0 0.575 0.185 0.575 0.411 0 0.53 0.975 1.505 1.505 1.505 0.226 0 0.411 0.431 0.411 0.958 0 0.596 -0.217 0.958 -0.575 0.958 -0.358 0 -0.575 0.362 -0.575 0.958 0 0.527 -0.172 0.958 -0.383 0.958 -0.211 0 -0.383 0.259 -0.383 0.575 0 0.316 -0.185 0.575 -0.411 0.575 -0.53 0 -1.505 0.975 -1.505 1.505 0 0.226 -0.517 0.411 -1.149 0.411 -0.766 0 -1.149 0.192 -1.149 0.575 0 0.358 -0.362 0.575 -0.958 0.575 -0.527 0 -0.958 0.172 -0.958 0.383 0 0.211 -0.69 0.383 -1.533 0.383 -1.107 0 -1.533 0.16 -1.533 0.575 0 0.401 -0.404 0.575 -1.341 0.575 -0.738 0 -1.341 0.172 -1.341 0.383 0 0.211 -0.69 0.383 -1.533 0.383 -1.107 0 -1.533 0.16 -1.533 0.575 0 0.415 -0.426 0.575 -1.533 0.575 -1.107 0 -1.533 0.16 -1.533 0.575 0 0.441 -0.49 0.575 -2.107 0.575 -1.159 0 -2.107 0.172 -2.107 0.383 0 0.211 -0.862 0.383 -1.916 0.383 -1.447 0 -1.916 0.14 -1.916 0.575 0 0.415 -0.426 0.575 -1.533 0.575 -0.843 0 -1.533 0.172 -1.533 0.383 0 0.211 -0.862 0.383 -1.916 0.383 -1.447 0 -1.916 0.14 -1.916 0.575 0 0.461 -0.587 0.576 -2.969 0.579 -1.633 0.002 -3.573 0.062 -4.31 0.133 -0.738 0.071 -2.505 0.061 -3.927 -0.022 z"/></g></g></svg>