<svg xmlns="http://www.w3.org/2000/svg" viewBox="0 0 256 256"><path d="m 52.774 1027.39 c 192.46 127.95 311 -280.09 62.2 -226.07 -102.82 23.02 -165.22 167.39 -62.2 226.07 z" transform="translate(0 -796.36)" style="fill:#fff;color:#000"/><g style="fill:#ff4500"><path d="m 123.25 162.41 c -2.037 -0.537 -3.223 -4.653 -5.549 -19.258 l -0.968 -6.078 l -11.295 -4.884 c -6.212 -2.686 -11.81 -5.706 -12.439 -6.711 -2.809 -4.487 -0.161 -24.733 3.49 -26.687 3.541 -1.895 57.16 -19.594 59.36 -19.594 5.445 0 16.457 16.713 18.594 28.22 1.169 6.295 2.605 2.95 -14.563 33.921 -10.08 18.18 -10.943 19.313 -15.83 20.715 -4.091 1.173 -16.872 1.391 -20.805 0.354 z"/><path d="m 188.16 75.36 l -5.236 -5.665 l 9.88 -3.29 c 5.434 -1.81 10.09 -3.082 10.344 -2.827 0.255 0.255 -1.835 4.285 -4.644 8.956 l -5.108 8.492 l -5.236 -5.665 z"/><path d="m 126.55 193.26 c -0.489 -2.572 -0.788 -4.777 -0.664 -4.901 0.367 -0.367 5.723 2.029 5.723 2.561 0 0.516 -3.704 7.02 -3.998 7.02 -0.095 0 -0.572 -2.104 -1.061 -4.676 z"/></g><g style="fill:#ff4500"><path d="m 59.56 113.22 c -2.904 -1.27 -3.119 -2.238 -0.634 -2.861 0.996 -0.25 2.351 -0.662 3.01 -0.915 0.96 -0.368 1.199 0.08 1.199 2.254 0 3.01 -0.091 3.045 -3.574 1.522 z"/><path d="m 122.58 160.49 c -0.69 -0.837 -2.167 -6.496 -3.281 -12.575 l -2.026 -11.05 l -11.939 -5.636 c -9.529 -4.499 -12.05 -6.231 -12.502 -8.582 -0.727 -3.801 1.028 -18.417 2.554 -21.267 0.801 -1.497 10.217 -5.191 29.583 -11.606 15.624 -5.176 29.595 -9.399 31.05 -9.385 4.35 0.042 13.07 12.6 16.865 24.286 l 2.143 6.6 l -6.997 13.496 c -9.769 18.842 -18.577 33.22 -21.688 35.398 -3.371 2.361 -21.87 2.614 -23.757 0.325 z"/><path d="m 188.23 74.32 c -2.153 -2.679 -3.75 -4.872 -3.549 -4.872 0.201 0 4.063 -1.057 8.583 -2.35 4.519 -1.292 8.217 -2.106 8.217 -1.808 0 1.325 -7.633 13.902 -8.438 13.902 -0.494 0 -2.66 -2.192 -4.813 -4.872 z"/><path d="m 127.56 195.68 c -0.664 -1.987 -1.328 -6.772 -0.94 -6.772 0.822 0 4.206 1.775 4.176 2.19 -0.017 0.244 -0.668 1.629 -1.445 3.077 -0.982 1.83 -1.529 2.289 -1.791 1.505 z"/></g></svg>