<svg xmlns="http://www.w3.org/2000/svg" xmlns:xlink="http://www.w3.org/1999/xlink" viewBox="0 0 256 256"><defs><path id="0" d="m 153.54 78.21 c 0 12.274 -9.95 22.22 -22.22 22.22 -12.274 0 -22.22 -9.95 -22.22 -22.22 0 -12.274 9.95 -22.22 22.22 -22.22 12.274 0 22.22 9.95 22.22 22.22 z" style="fill:#ff4500;color:#000"/><use id="1" xlink:href="#0"/><path id="2" d="m 22 1015.36 a 8 8 0 0 1 -8 8 8 8 0 0 1 -8 -8 8 8 0 0 1 8 -8 8 8 0 0 1 8 8 z" style="opacity:0.15"/><path id="3" d="m 14 1009.55 c -2.517 0 -4.807 2.29 -4.807 4.807 0 2.517 2.29 4.807 4.807 4.807 2.517 0 4.807 -2.29 4.807 -4.807 0 -2.517 -2.29 -4.807 -4.807 -4.807 z"/><path id="4" d="m 14 1009.03 c -2.837 0 -5.334 2.497 -5.334 5.334 0 2.837 2.497 5.334 5.334 5.334 2.837 0 5.334 -2.497 5.334 -5.334 0 -2.837 -2.497 -5.334 -5.334 -5.334 z" style="opacity:0.6"/></defs><g transform="matrix(0.98729 0 0 0.99573 1.888 -1.729)" style="fill:#fff"><use xlink:href="#1" transform="translate(15.781 13.13)" width="1" height="1"/><use xlink:href="#1" transform="translate(18.424 91.18)" width="1" height="1"/><use xlink:href="#1" transform="translate(-66.794 48.49)" width="1" height="1"/><path transform="translate(4.323 -795.63)" d="m 20.935 850.74 c -127.95 190.94 280.09 308.54 226.07 61.711 -23.02 -102.01 -167.39 -163.91 -226.07 -61.711 z" style="color:#000"/></g><g transform="matrix(3.80226 0 0 3.58844 51.39 -3558.42)" style="fill:#ff4500;stroke:#ffdead"><g><use xlink:href="#2"/><path d="m 22 1014.36 a 8 8 0 0 1 -8 8 8 8 0 0 1 -8 -8 8 8 0 0 1 8 -8 8 8 0 0 1 8 8 z"/><use xlink:href="#3"/><path d="m 14 1006.87 c -1.962 0 -3.913 0.808 -5.301 2.195 -1.388 1.388 -2.195 3.339 -2.195 5.301 0 1.962 0.808 3.913 2.195 5.301 1.388 1.388 3.339 2.195 5.301 2.195 1.962 0 3.913 -0.808 5.301 -2.195 1.388 -1.388 2.195 -3.338 2.195 -5.301 0 -1.962 -0.808 -3.913 -2.195 -5.301 c -1.388 -1.387 -3.339 -2.195 -5.301 -2.195 z" style="opacity:0.6"/><use xlink:href="#4"/><path d="m 14 1010.05 c -2.217 0 -4.313 2.095 -4.313 4.313 0 2.217 2.095 4.313 4.313 4.313 2.217 0 4.313 -2.095 4.313 -4.313 0 -2.217 -2.095 -4.313 -4.313 -4.313 z" style="opacity:0.4"/></g><g transform="translate(20 14)"><use xlink:href="#2"/><path d="m 22 1014.36 a 8 8 0 0 1 -8 8 8 8 0 0 1 -8 -8 8 8 0 0 1 8 -8 8 8 0 0 1 8 8 z" id="5"/><use xlink:href="#3"/><path d="m 14 1006.87 c -1.962 0 -3.913 0.808 -5.301 2.195 -1.388 1.388 -2.195 3.339 -2.195 5.301 0 1.962 0.808 3.913 2.195 5.301 1.388 1.388 3.339 2.195 5.301 2.195 1.962 0 3.913 -0.808 5.301 -2.195 1.388 -1.388 2.195 -3.338 2.195 -5.301 0 -1.962 -0.808 -3.913 -2.195 -5.301 c -1.388 -1.387 -3.339 -2.195 -5.301 -2.195 z" id="6" style="opacity:0.6"/><use xlink:href="#4"/><path d="m 14 1010.05 c -2.217 0 -4.313 2.095 -4.313 4.313 0 2.217 2.095 4.313 4.313 4.313 2.217 0 4.313 -2.095 4.313 -4.313 0 -2.217 -2.095 -4.313 -4.313 -4.313 z" id="7" style="opacity:0.4"/></g><g transform="translate(0 27)"><use xlink:href="#2"/><use xlink:href="#5"/><use xlink:href="#3"/><use xlink:href="#6"/><use xlink:href="#4"/><use xlink:href="#7"/></g></g></svg>