<svg xmlns="http://www.w3.org/2000/svg" xmlns:xlink="http://www.w3.org/1999/xlink" viewBox="0 0 256 256"><defs><path id="0" d="m245.46 129.52l-97.89-96.9c-5.556-5.502-16.222-11.873-23.7-14.16l-39.518-12.08c-7.479-2.286-18.1.391-23.599 5.948l-13.441 13.578c-5.5 5.559-14.502 14.653-20 20.21l-13.44 13.579c-5.5 5.558-8.07 16.206-5.706 23.658l12.483 39.39c2.363 7.456 8.843 18.06 14.399 23.556l97.89 96.9c5.558 5.502 14.605 5.455 20.1-.101l36.26-36.63c5.504-5.559 14.503-14.651 20-20.21l36.26-36.629c5.502-5.56 5.455-14.606-.101-20.11m-178.08-50.74c-7.198 0-13.03-5.835-13.03-13.03 0-7.197 5.835-13.03 13.03-13.03 7.197 0 13.03 5.835 13.03 13.03-.001 7.198-5.836 13.03-13.03 13.03"/><use id="1" xlink:href="#0"/><clipPath id="2"><use xlink:href="#1"/></clipPath><clipPath style="clip-path:url(#2)"><use xlink:href="#0"/></clipPath><clipPath><path transform="matrix(15.33333 0 0 11.5 415 -125.5)" d="m-24 13c0 1.105-.672 2-1.5 2-.828 0-1.5-.895-1.5-2 0-1.105.672-2 1.5-2 .828 0 1.5.895 1.5 2"/></clipPath><clipPath style="clip-path:url(#2)"><use xlink:href="#0"/></clipPath></defs><g transform="translate(0 -796.36)"><path d="m42.39 839.12c105.54-127.13 296.06 58.991 174.35 171.49-104.74 112.74-308.04-63.22-174.35-171.49" transform="matrix(-0.97089 0 0 -1.01392 250.87 1857.86)" style="fill:#fff;color:#000"/><g transform="matrix(15.66686 0 0 17.49979 19.13 800.1)" style="fill:#ff4500"><rect rx="0.579" ry="0.552" height="7.338" width="5.644" y="3.387" x="4.233" style="fill-opacity:0.118"/><g transform="scale(0.28222)"><g><rect x="14" y="11" width="20" height="26" ry="1.955" rx="2.052"/><rect x="15" y="12" width="18" height="20" ry="1.995" rx="2.073"/><g style="fill:#ffdead"><rect rx="1.968" ry="1.907" height="18" width="16" y="13" x="16"/><path d="m 32,22 -16,4 0,2 16,-4 z" style="fill:#ff4500"/></g></g><g style="fill-rule:evenodd"><path d="m 24.508 25.5 c -0.221 -1.124 -0.614 -2.06 -1.089 -2.926 -0.352 -0.642 -0.76 -1.236 -1.137 -1.859 -0.125 -0.209 -0.235 -0.427 -0.354 -0.644 -0.242 -0.431 -0.439 -0.932 -0.427 -1.581 0.011 -0.636 0.191 -1.144 0.448 -1.561 0.421 -0.684 1.129 -1.246 2.08 -1.393 0.775 -0.121 1.505 0.083 2.02 0.395 0.421 0.252 0.749 0.592 0.996 0.993 0.26 0.417 0.439 0.91 0.454 1.554 0.008 0.33 -0.046 0.636 -0.119 0.888 -0.075 0.256 -0.195 0.471 -0.302 0.699 -0.208 0.447 -0.469 0.856 -0.733 1.265 -0.781 1.22 -1.516 2.466 -1.837 4.17" style="fill-opacity:0.098"/><path d="m 24.01 25 c -0.221 -1.124 -0.614 -2.06 -1.089 -2.926 -0.352 -0.642 -0.76 -1.236 -1.137 -1.859 -0.125 -0.209 -0.235 -0.427 -0.354 -0.644 -0.242 -0.431 -0.439 -0.932 -0.427 -1.581 0.011 -0.636 0.191 -1.144 0.448 -1.561 0.421 -0.684 1.129 -1.246 2.08 -1.393 0.775 -0.121 1.505 0.083 2.02 0.395 0.421 0.252 0.749 0.592 0.996 0.993 0.26 0.417 0.439 0.91 0.454 1.554 0.008 0.33 -0.046 0.636 -0.119 0.888 -0.075 0.256 -0.195 0.471 -0.302 0.699 -0.208 0.447 -0.469 0.856 -0.733 1.265 -0.781 1.22 -1.516 2.466 -1.837 4.17"/><path d="m 25.4 18.1 c 0 0.773 -0.626 1.4 -1.399 1.4 -0.774 0 -1.401 -0.627 -1.401 -1.4 0 -0.773 0.628 -1.4 1.401 -1.4 0.774 0 1.399 0.627 1.399 1.4"/></g></g></g></g></svg>