<svg xmlns="http://www.w3.org/2000/svg" viewBox="0 0 256 256"><defs><clipPath><path transform="matrix(15.33333 0 0 11.5 415 -125.5)" d="m -24 13 c 0 1.105 -0.672 2 -1.5 2 -0.828 0 -1.5 -0.895 -1.5 -2 0 -1.105 0.672 -2 1.5 -2 0.828 0 1.5 0.895 1.5 2 z"/></clipPath><clipPath><rect y="6" x="6" rx="6" height="84" width="84" style="fill:#ff4500"/></clipPath></defs><g transform="translate(0 -796.36)"><path d="m 195.83 822.74 c -130.93 -92.05 -263.6 77.948 -156.91 186.39 c 100.51 102.17 256.68 7.449 207.86 -119.69 -10.185 -26.526 -26.914 -49.802 -50.948 -66.7 z" style="fill:#fff;color:#000"/><g transform="matrix(2.30882 0 0 2.0138 11.352 827.33)" style="fill:#ff4500"><g transform="matrix(1.10808 0 0 1.06393 -3.539 -11.341)"><path d="m 70.46 42.883 c 0 4.952 -1.038 9.431 -3.114 13.436 -2.214 4.288 -5.306 7.297 -9.273 9.03 0.854 0.745 2.052 1.731 3.598 2.959 2.122 1.409 3.99 2.476 5.605 3.201 -0.854 0.745 -2.272 1.842 -4.256 3.291 -1.13 0.684 -2.687 1.449 -4.671 2.295 -1.638 -1.147 -2.987 -2.305 -4.049 -3.472 -1.246 -1.409 -7.08 -5.442 -7.61 -6.468 0.508 -0.403 5.796 -9.338 8.34 -4.286 -2.238 0.825 -5.55 5.742 -7.788 5.742 -7.082 0 -12.814 -2.597 -17.201 -7.79 -4.129 -4.871 -6.194 -10.85 -6.194 -17.935 0 -7.629 2.249 -13.597 6.747 -17.905 4.222 -4.046 9.769 -6.069 16.642 -6.069 6.736 0 12.225 2.043 16.469 6.129 4.498 4.328 6.747 10.276 6.747 17.845 m -16.642 5.435 c 0 -5.596 -2.122 -8.394 -6.367 -8.394 -2.284 0 -3.99 0.835 -5.121 2.506 -0.992 1.469 -1.442 3.452 -1.35 5.948 0.116 2.315 0.692 4.418 1.73 6.311 1.223 2.194 2.733 3.291 4.532 3.291 1.776 0 3.345 -1.117 4.705 -3.352 1.246 -2.033 1.868 -4.137 1.868 -6.311"/><path d="m 58.37 40.45 c 0 8.603 -4.747 15.577 -10.603 15.577 -5.856 0 -10.603 -6.974 -10.603 -15.577 0 -8.603 4.747 -15.577 10.603 -15.577 5.856 0 10.603 6.974 10.603 15.577 z" transform="matrix(1.10619 0 0 0.75301 -4.834 17.828)" style="fill:#dc143c;color:#000;fill-rule:evenodd"/></g><text y="89.68" x="26.35" line-height="7.ffffff03%" style="letter-spacing:0;word-spacing:0;font-size:19.397;font-family:Broadway;stroke:#ff4500"><tspan y="89.68" x="26.35">NAPI</tspan></text></g></g></svg>