<svg xmlns="http://www.w3.org/2000/svg" viewBox="0 0 256 256"><g transform="translate(0 -796.36)"><path d="m 77.46 799.51 c 359.58 -44.57 87.92 469 -68.49 143.82 -21.558 -50.11 -1.518 -125.56 68.49 -143.82 z" style="fill:#fff;color:#000"/><g transform="translate(0 796.36)" style="fill:#ff4500;fill-opacity:0.992;fill-rule:evenodd"><path d="m 181.88 170.07 c -1.67 -0.177 -3.036 -0.625 -3.036 -0.995 0 -0.37 -0.666 -0.673 -1.48 -0.673 -2.565 0 -7.771 -3.531 -8.265 -5.606 -0.248 -1.042 -0.809 -2.345 -1.246 -2.897 -0.536 -0.677 -0.877 -8.973 -1.049 -25.536 l -0.255 -24.533 h -4.745 h -4.745 v -3.571 v -3.571 h 4.821 h 4.821 v -10 v -10 h 10.357 h 10.357 v 10 v 10 h 9.286 h 9.286 v 3.571 v 3.571 h -9.327 h -9.327 l 0.22 25.537 c 0.219 25.391 0.229 25.546 1.827 27.14 1.286 1.285 2.411 1.606 5.632 1.606 3.501 0 4.248 -0.256 5.735 -1.964 2.98 -3.424 3.097 -3.647 3.097 -5.863 0 -2.131 0.068 -2.173 3.571 -2.173 3.229 0 3.571 0.154 3.567 1.607 -0.013 5.304 -4.111 11.371 -8.387 12.417 -1.081 0.265 -2.145 0.752 -2.364 1.084 -0.463 0.7 -13.889 1.319 -18.352 0.846 z"/><path d="m 130.27 191.97 c 0 -0.393 -1.563 -0.714 -3.474 -0.714 -4.879 0 -10.694 -1.209 -11.974 -2.489 -0.595 -0.595 -1.541 -1.082 -2.103 -1.082 -0.561 0 -1.02 -0.282 -1.02 -0.628 0 -0.345 -0.964 -1.027 -2.143 -1.515 -1.179 -0.488 -2.143 -1.17 -2.143 -1.515 0 -0.345 -0.489 -0.628 -1.087 -0.628 -0.598 0 -1.453 -0.804 -1.9 -1.786 -0.447 -0.982 -1.049 -1.786 -1.336 -1.786 -0.287 0 -0.724 -0.804 -0.97 -1.786 -0.246 -0.982 -0.739 -1.786 -1.093 -1.786 -0.355 0 -1.01 -1.097 -1.45 -2.437 -0.98 -2.968 -1.743 -3.299 -8.771 -3.801 -3.045 -0.217 -5.536 -0.634 -5.536 -0.926 0 -0.292 -1.448 -0.748 -3.218 -1.014 -1.77 -0.265 -4.1 -0.943 -5.179 -1.505 -1.078 -0.562 -2.38 -1.025 -2.893 -1.027 -1.536 -0.007 -7.282 -2.843 -7.282 -3.594 0 -0.383 -0.431 -0.696 -0.958 -0.696 -1.303 0 -9.853 -8.494 -11.183 -11.11 -0.589 -1.158 -1.264 -2.266 -1.502 -2.462 -1.056 -0.875 -2.892 -5.829 -3.977 -10.732 -1.333 -6.03 -2.095 -23.23 -1.086 -24.503 0.363 -0.46 1.082 -3.488 1.598 -6.729 0.515 -3.241 1.2 -5.893 1.522 -5.893 0.322 0 0.586 -0.466 0.586 -1.036 0 -0.57 0.402 -1.293 0.894 -1.607 0.492 -0.314 1.376 -1.535 1.964 -2.714 1.054 -2.111 9.172 -10.566 11.844 -12.336 0.753 -0.499 2.495 -1.391 3.87 -1.982 1.375 -0.591 2.993 -1.348 3.595 -1.681 0.602 -0.333 2.209 -0.844 3.571 -1.136 1.362 -0.292 2.832 -0.816 3.267 -1.164 2.736 -2.195 29.892 -1.864 34.27 0.417 1.147 0.598 2.808 1.089 3.692 1.092 0.884 0.002 1.607 0.326 1.607 0.719 0 0.393 0.523 0.714 1.163 0.714 3.851 0 16.773 10.732 18.793 15.607 0.513 1.237 1.214 2.25 1.559 2.25 0.345 0 0.628 0.339 0.628 0.753 0 0.414 0.633 2.142 1.406 3.84 0.773 1.697 1.618 4.412 1.877 6.03 0.259 1.62 0.751 2.946 1.094 2.946 0.343 0 0.623 5.143 0.623 11.429 0 6.286 -0.248 11.429 -0.551 11.429 -0.303 0 -0.927 1.978 -1.386 4.396 -0.459 2.418 -1.136 4.587 -1.502 4.821 -0.367 0.234 -0.893 1.47 -1.17 2.747 -0.277 1.277 -0.721 2.321 -0.987 2.321 -0.266 0 -0.884 0.905 -1.373 2.01 -0.945 2.135 -9.106 10.847 -10.161 10.847 -0.343 0 -1.049 0.406 -1.568 0.902 -1.937 1.851 -4.837 3.354 -8.02 4.156 -1.804 0.454 -3.281 1.072 -3.281 1.373 0 0.301 -1.768 0.768 -3.929 1.038 -2.161 0.27 -3.929 0.789 -3.929 1.154 0 0.365 -0.482 0.663 -1.071 0.663 -0.589 0 -1.071 0.204 -1.071 0.454 0 0.996 3.644 3.745 5.99 4.519 1.369 0.452 2.599 1.151 2.734 1.554 0.134 0.403 3.53 0.914 7.546 1.135 l 7.302 0.402 v 7.396 c 0 4.068 -0.161 7.396 -0.357 7.396 -0.196 0 -0.357 -0.321 -0.357 -0.714 z m -25.406 -28.492 c 0.216 -0.349 1.19 -0.835 2.164 -1.08 2.067 -0.519 6.845 -4.992 8.09 -7.571 1.015 -2.108 2.485 -4.497 3.076 -5 0.749 -0.637 2.08 -6.984 2.08 -9.917 0 -1.571 0.321 -3.054 0.714 -3.297 0.438 -0.27 0.714 -5.96 0.714 -14.685 0 -9.02 -0.262 -14.244 -0.714 -14.244 -0.393 0 -0.714 -1.304 -0.714 -2.898 0 -2.967 -1.326 -9.318 -2.08 -9.959 -0.636 -0.541 -2.786 -4.393 -3.688 -6.607 -0.44 -1.08 -1.056 -1.964 -1.37 -1.964 -0.313 0 -1.326 -0.798 -2.252 -1.773 -0.925 -0.975 -2.084 -1.779 -2.575 -1.786 -0.491 -0.007 -0.893 -0.296 -0.893 -0.642 0 -0.932 -5.816 -2.228 -10 -2.228 -4.184 0 -10 1.296 -10 2.228 0 0.346 -0.411 0.629 -0.913 0.629 -0.502 0 -1.435 0.563 -2.073 1.25 -0.638 0.688 -1.995 2.01 -3.02 2.932 -1.021 0.925 -1.856 2.131 -1.856 2.679 0 0.548 -0.296 0.996 -0.658 0.996 -0.362 0 -0.869 0.964 -1.128 2.143 -0.259 1.179 -0.723 2.143 -1.031 2.143 -0.308 0 -0.948 2.01 -1.423 4.464 -0.475 2.455 -1.162 5.02 -1.526 5.705 -0.864 1.618 -0.864 33.04 0 34.662 0.365 0.682 1.051 3.249 1.526 5.705 0.475 2.455 1.106 4.464 1.403 4.464 0.297 0 0.748 0.831 1 1.847 0.526 2.096 0.998 2.742 5.226 7.16 1.739 1.817 3.95 3.354 5.179 3.6 1.179 0.236 2.144 0.71 2.144 1.054 0 0.823 14.09 0.813 14.594 -0.01 z"/></g></g></svg>