<?xml version="1.0" encoding="UTF-8" standalone="no"?>
<svg
   xmlns:dc="http://purl.org/dc/elements/1.1/"
   xmlns:cc="http://creativecommons.org/ns#"
   xmlns:rdf="http://www.w3.org/1999/02/22-rdf-syntax-ns#"
   xmlns:svg="http://www.w3.org/2000/svg"
   xmlns="http://www.w3.org/2000/svg"
   xmlns:xlink="http://www.w3.org/1999/xlink"
   xmlns:sodipodi="http://sodipodi.sourceforge.net/DTD/sodipodi-0.dtd"
   xmlns:inkscape="http://www.inkscape.org/namespaces/inkscape"
   viewBox="0 0 256 256"
   id="svg694"
   version="1.1"
   inkscape:version="0.48.4 r9939"
   width="100%"
   height="100%"
   sodipodi:docname="qtella.svg">
  <metadata
     id="metadata790">
    <rdf:RDF>
      <cc:Work
         rdf:about="">
        <dc:format>image/svg+xml</dc:format>
        <dc:type
           rdf:resource="http://purl.org/dc/dcmitype/StillImage" />
      </cc:Work>
    </rdf:RDF>
  </metadata>
  <sodipodi:namedview
     pagecolor="#ffffff"
     bordercolor="#666666"
     borderopacity="1"
     objecttolerance="10"
     gridtolerance="10"
     guidetolerance="10"
     inkscape:pageopacity="0"
     inkscape:pageshadow="2"
     inkscape:window-width="644"
     inkscape:window-height="496"
     id="namedview788"
     showgrid="false"
     inkscape:zoom="0.98603159"
     inkscape:cx="128"
     inkscape:cy="163.35231"
     inkscape:window-x="0"
     inkscape:window-y="24"
     inkscape:window-maximized="0"
     inkscape:current-layer="svg694" />
  <defs
     id="defs696">
    <path
       id="0"
       d="m 33.8 58.03 h 53.788 c 0 0 -6.804 -18.991 -23.11 -18.18 -2.054 0 -3.98 -0.162 -6.804 0 c -14.378 -0.974 -22.976 14.12 -23.875 18.18"
       style="fill:#ff4500;stroke:#9932cc;fill-rule:evenodd;stroke-linecap:round;stroke-linejoin:round;stroke-width:3.324" />
    <path
       id="1"
       d="m 38.855 6.76 v 30.15 h 43.11 v -30.15 h -43.11 z"
       style="stroke:#9932cc;fill-rule:evenodd;stroke-linecap:round;stroke-linejoin:round;stroke-width:1.65" />
    <clipPath
       id="clipPath700">
      <path
         d="m -24 13 c 0 1.105 -0.672 2 -1.5 2 -0.828 0 -1.5 -0.895 -1.5 -2 0 -1.105 0.672 -2 1.5 -2 0.828 0 1.5 0.895 1.5 2 z"
         transform="matrix(15.33333 0 0 11.5 415 -125.5)"
         id="path702" />
    </clipPath>
  </defs>
  <path
     d="m 230.39 54.43 c 126.21 188.96 -276.27 305.35 -222.99 61.07 22.706 -100.95 165.11 -162.22 222.99 -61.07 z"
     style="fill:#ffffff;color:#000"
     id="path704" />
  <g
     transform="matrix(-3.081676,0,0,2.9228011,223.88318,49.663473)"
     id="g706"
     style="stroke:#ff4500">
    <g
       transform="matrix(0.94011,0,0,0.94011,2.3710273,-0.86098832)"
       id="g736"
       style="stroke:#ff4500">
      <g
         style="stroke:#ff4500;fill:#ffdead"
         id="g738">
        <path
           d="m 27.969,40.05 c -0.065,0.065 -0.065,0.169 0,0.234 l 2.735,2.735 c 0.065,0.065 0.169,0.065 0.234,0 l 2.735,-2.735 c 0.065,-0.065 0.065,-0.169 0,-0.234 l -2.735,-2.735 c -0.065,-0.065 -0.169,-0.065 -0.234,0 l -2.735,2.735 z"
           style="fill:#ffdead;fill-rule:evenodd;stroke-width:1.06400001000000000;stroke-linejoin:round;stroke:#ff4500"
           id="path740"
           inkscape:connector-curvature="0" />
        <g
           style="fill:#ffdead;stroke:#ff4500"
           id="g742">
          <path
             d="M 31.05,36.21 V 6.69"
             transform="translate(-0.225,0.845)"
             style="stroke-width:2.65899991999999985;stroke:#ff4500;fill:#ffdead"
             id="path744"
             inkscape:connector-curvature="0" />
          <path
             d="m 32.446,37.35 c 0,-0.042 0,-0.085 0,-0.127"
             transform="translate(-0.607,0.972)"
             style="stroke-width:1.06400001000000000;stroke:#ff4500;fill:#ffdead"
             id="path746"
             inkscape:connector-curvature="0" />
          <g
             style="stroke-width:2.65899991999999985;stroke:#ff4500;fill:#ffdead"
             id="g748">
            <path
               d="M 32.32,37.22 48.257,9.617"
               transform="translate(-0.353,1.227)"
               id="path750"
               inkscape:connector-curvature="0"
               style="stroke:#ff4500;fill:#ffdead" />
            <path
               d="M 30.794,37.478 14.857,9.875"
               transform="translate(-1.116,0.972)"
               style="stroke-linejoin:round;stroke:#ff4500;fill:#ffdead"
               id="path752"
               inkscape:connector-curvature="0" />
          </g>
        </g>
      </g>
      <g
         transform="matrix(0.20142,0,0,0.20142,18.418,1.099)"
         id="g754"
         style="stroke:#ff4500;fill:#ff4500">
        <use
           xlink:href="#0"
           id="use756"
           x="0"
           y="0"
           width="256"
           height="256"
           style="stroke:#ff4500;fill:#ff4500" />
        <path
           d="m 35.892,3.441 c -1.108,0 -2,0.892 -2,2 v 33.28 c 0,1.108 0.892,2 2,2 h 49.31 c 1.108,0 2,-0.892 2,-2 V 5.441 c 0,-1.108 -0.892,-2 -2,-2 h -49.31 z"
           style="fill:#ff4500;fill-rule:evenodd;stroke:#ff4500;stroke-width:3.32399988000000013;stroke-linecap:round;stroke-linejoin:round"
           id="path758"
           inkscape:connector-curvature="0" />
        <use
           xlink:href="#1"
           id="use760"
           x="0"
           y="0"
           width="256"
           height="256"
           style="stroke:#ffdead;fill:#ffdead" />
      </g>
      <g
         transform="matrix(0.16739,0.11203,-0.11203,0.16739,40.503,0.442)"
         id="g762"
         style="stroke:#ff4500;fill:#ff4500">
        <use
           xlink:href="#0"
           id="use764"
           x="0"
           y="0"
           width="256"
           height="256"
           style="stroke:#ff4500;fill:#ff4500" />
        <path
           d="m 35.892,3.441 c -1.108,0 -2,0.892 -2,2 v 33.28 c 0,1.108 0.892,2 2,2 h 49.31 c 1.108,0 2,-0.892 2,-2 V 5.441 c 0,-1.108 -0.892,-2 -2,-2 h -49.31 z"
           style="fill:#ff4500;fill-rule:evenodd;stroke:#ff4500;stroke-width:3.32399988000000013;stroke-linecap:round;stroke-linejoin:round"
           id="path766"
           inkscape:connector-curvature="0" />
        <use
           xlink:href="#1"
           id="use768"
           x="0"
           y="0"
           width="256"
           height="256"
           style="stroke:#ffdead;fill:#ffdead" />
      </g>
      <g
         transform="matrix(-0.16739,0.11203,0.11203,0.16739,19.937,0.06)"
         id="g770"
         style="stroke:#ff4500;fill:#ff4500">
        <use
           xlink:href="#0"
           id="use772"
           x="0"
           y="0"
           width="256"
           height="256"
           style="stroke:#ff4500;fill:#ff4500" />
        <path
           d="m 35.892,3.441 c -1.108,0 -2,0.892 -2,2 v 33.28 c 0,1.108 0.892,2 2,2 h 49.31 c 1.108,0 2,-0.892 2,-2 V 5.441 c 0,-1.108 -0.892,-2 -2,-2 h -49.31 z"
           style="fill:#ff4500;fill-rule:evenodd;stroke:#ff4500;stroke-width:3.32399988000000013;stroke-linecap:round;stroke-linejoin:round"
           id="path774"
           inkscape:connector-curvature="0" />
        <use
           xlink:href="#1"
           id="use776"
           x="0"
           y="0"
           width="256"
           height="256"
           style="stroke:#ffdead;fill:#ffdead" />
      </g>
      <g
         style="stroke:#ff4500"
         id="g778">
        <g
           style="stroke-linejoin:round;stroke:#ff4500"
           id="g780">
          <path
             d="m 10.561,42.695 c 24.303,-5.09 37.28,12.09 37.28,12.09"
             transform="matrix(0.92506,0,0,0.92506,2.908,2.882)"
             style="fill:none;stroke-width:5.74900007000000013;stroke-linecap:round;stroke:#ff4500"
             id="path782"
             inkscape:connector-curvature="0" />
          <path
             d="m 18.45,35.12 c 0,2.142 -1.739,3.881 -3.881,3.881 -2.142,0 -3.881,-1.739 -3.881,-3.881 0,-2.142 1.739,-3.881 3.881,-3.881 2.142,0 3.881,1.739 3.881,3.881 z"
             transform="matrix(0.71761,0,0,0.71761,38.24,29.977)"
             style="fill:#ffdead;fill-rule:evenodd;stroke-width:1.85300003999999996;stroke:#ff4500"
             id="path784"
             inkscape:connector-curvature="0" />
        </g>
        <path
           d="m 50.769,33.09 c 0,11.273 -9.149,20.422 -20.422,20.422 -11.273,0 -20.422,-9.149 -20.422,-20.422 0,-11.273 9.149,-20.422 20.422,-20.422 11.273,0 20.422,9.149 20.422,20.422 z"
           transform="matrix(0.92506,0,0,0.92506,1.731,6.06)"
           style="fill:none;stroke-width:5.74900007000000013;stroke:#ff4500"
           id="path786"
           inkscape:connector-curvature="0" />
      </g>
    </g>
  </g>
</svg>
