<svg xmlns="http://www.w3.org/2000/svg" xmlns:xlink="http://www.w3.org/1999/xlink" viewBox="0 0 256 256"><defs><path id="0" d="m 153.54 78.21 c 0 12.274 -9.95 22.22 -22.22 22.22 -12.274 0 -22.22 -9.95 -22.22 -22.22 0 -12.274 9.95 -22.22 22.22 -22.22 12.274 0 22.22 9.95 22.22 22.22 z" style="fill:#ff4500;color:#000"/><use id="1" xlink:href="#0"/></defs><g transform="matrix(0.98729 0 0 0.99573 1.888 -1.729)" style="fill:#fff"><use xlink:href="#1" transform="translate(15.781 13.13)" width="1" height="1"/><use xlink:href="#1" transform="translate(18.424 91.18)" width="1" height="1"/><use xlink:href="#1" transform="translate(-66.794 48.49)" width="1" height="1"/><path transform="translate(4.323 -795.63)" d="m 20.935 850.74 c -127.95 190.94 280.09 308.54 226.07 61.711 -23.02 -102.01 -167.39 -163.91 -226.07 -61.711 z" style="color:#000"/></g><g transform="matrix(4.23876 0 0 4.91375 19.552 -2.688)" style="fill:#ff4500"><path d="m 20.775 28.06 c -3.36 1.557 -6.514 3.459 -9.328 5.73 c 10.131 -5.715 12.81 7.816 35.553 3.207 -7.852 -1.31 -18.08 -8.182 -26.22 -8.938 z" style="fill:#ffa07a;fill-rule:evenodd"/><path d="m 22.74 16.787 c -4.342 0 -8.894 0.551 -13.395 0.988 -0.834 1.965 -1.285 4.092 -1.285 6.227 0 3.519 1.234 7.01 3.387 9.791 7.802 -6.297 18.19 -9.803 28.455 -10.781 -0.002 -0.038 -0.003 -0.077 -0.006 -0.115 -4.63 -4.843 -10.651 -6.11 -17.16 -6.109 z"/></g></svg>