<svg xmlns="http://www.w3.org/2000/svg" viewBox="0 0 256 256"><defs><clipPath><path transform="matrix(15.33333 0 0 11.5 415 -125.5)" d="m -24 13 c 0 1.105 -0.672 2 -1.5 2 -0.828 0 -1.5 -0.895 -1.5 -2 0 -1.105 0.672 -2 1.5 -2 0.828 0 1.5 0.895 1.5 2 z"/></clipPath></defs><g transform="translate(0 -796.36)"><path d="m 26.373 858.55 c -92.05 129.58 77.948 260.87 186.39 155.29 102.17 -99.48 7.449 -254.02 -119.69 -205.71 -26.526 10.08 -49.802 26.636 -66.7 50.42 z" style="fill:#fff;color:#000"/><g transform="matrix(4.92504 0 0 4.96112 7.544 804.36)" style="fill:#ff4500"><circle r="11" cy="21" cx="28"/><g style="stroke:#ff4500;color:#000"><path d="m 28,8 c -7.174,0 -13,5.826 -13,13 0,7.174 5.826,13 13,13 7.174,0 13,-5.826 13,-13 C 41,13.826 35.174,8 28,8 z m 0,1 c 6.633,0 12,5.367 12,12 0,6.633 -5.367,12 -12,12 C 21.367,33 16,27.633 16,21 16,14.367 21.367,9 28,9 z"/><path d="M 19.219,29.98 4.837,38.778 4.5,38.983 v 1.157 l 0.436,-0.251 14.805,-9.06 z" style="fill-rule:evenodd"/></g></g></g></svg>