<svg xmlns="http://www.w3.org/2000/svg" viewBox="0 0 256 256"><defs><clipPath><rect y="6" x="6" rx="6" height="84" width="84" style="fill:#ff4500"/></clipPath></defs><g transform="translate(0 -796.36)"><path d="m -1374.42 1658.71 c 127.95 -192.46 -280.09 -311 -226.07 -62.2 23.02 102.82 167.39 165.22 226.07 62.2 z" transform="matrix(0 1 -1 0 1711.48 2401.81)" style="fill:#fff;color:#000"/><g transform="matrix(2.05311 0 0 2.25308 26.754 812.67)" style="fill:#ff4500;enable-background:new"><g style="fill-rule:evenodd"><path d="m 49.08,17.392 c -7.749,0.001 -15.45,3.583 -20.926,9.734 -3.346,3.759 -5.809,8.458 -7.237,13.524 h 6.457 c 3.735,-9.457 12.392,-16.612 21.706,-16.613 6.962,0 13.56,4 18.01,9.968 h -9.122 v 6.645 h 12.833 7.885 V 34.005 17.392 H 72.767 V 30.786 C 71.922,29.498 71.02,28.259 70.01,27.126 64.528,20.975 56.827,17.391 49.079,17.392 z m -29.585,43.19 v 6.645 16.613 h 5.919 V 70.465 c 0.84,1.281 1.737,2.513 2.74,3.641 5.475,6.151 13.177,9.734 20.926,9.734 7.749,10e-4 15.449,-3.583 20.931,-9.734 3.351,-3.76 5.817,-8.459 7.249,-13.524 h -6.457 c -3.74,9.46 -12.408,16.614 -21.723,16.613 -6.961,0 -13.548,-4 -17.995,-9.968 h 9.128 V 60.582 H 20.917 19.495 z" style="opacity:0.3"/><path d="m 49.08,16.539 c -7.749,0 -15.45,3.453 -20.926,9.381 -3.346,3.623 -5.809,8.151 -7.237,13.03 h 6.457 c 3.735,-9.114 12.392,-16.01 21.706,-16.01 6.962,0 13.56,3.855 18.01,9.606 h -9.122 v 6.404 h 12.833 7.885 V 32.546 16.536 H 72.767 V 29.444 C 71.922,28.203 71.02,27.009 70.01,25.917 64.528,19.989 56.827,16.536 49.079,16.536 z M 19.495,58.165 v 6.404 16.01 h 5.919 V 67.69 c 0.84,1.234 1.737,2.422 2.74,3.508 5.475,5.928 13.177,9.38 20.926,9.381 7.749,0 15.449,-3.453 20.931,-9.381 3.351,-3.624 5.817,-8.152 7.249,-13.03 h -6.457 c -3.74,9.117 -12.408,16.01 -21.723,16.01 -6.961,0 -13.548,-3.856 -17.995,-9.606 h 9.128 V 58.168 H 20.917 19.495 z"/></g><g line-height="125%" style="letter-spacing:0;word-spacing:0;font-family:Droid Sans Japanese"><text x="21.01" y="59.16" transform="scale(1.05209 0.95049)" style="font-size:26.02;opacity:0.3"><tspan x="21.01" y="59.16">raw</tspan></text><text transform="scale(1.09444 0.91371)" y="60.39" x="20.2" style="font-size:25.01"><tspan y="60.39" x="20.2">raw</tspan></text></g></g></g></svg>