<?xml version="1.0" encoding="UTF-8" standalone="no"?>
<svg
   xmlns:dc="http://purl.org/dc/elements/1.1/"
   xmlns:cc="http://creativecommons.org/ns#"
   xmlns:rdf="http://www.w3.org/1999/02/22-rdf-syntax-ns#"
   xmlns:svg="http://www.w3.org/2000/svg"
   xmlns="http://www.w3.org/2000/svg"
   xmlns:xlink="http://www.w3.org/1999/xlink"
   xmlns:sodipodi="http://sodipodi.sourceforge.net/DTD/sodipodi-0.dtd"
   xmlns:inkscape="http://www.inkscape.org/namespaces/inkscape"
   viewBox="0 0 256 256"
   id="svg2"
   version="1.1"
   inkscape:version="0.48.4 r9939"
   width="100%"
   height="100%"
   sodipodi:docname="rawlogviewer.svg">
  <metadata
     id="metadata33">
    <rdf:RDF>
      <cc:Work
         rdf:about="">
        <dc:format>image/svg+xml</dc:format>
        <dc:type
           rdf:resource="http://purl.org/dc/dcmitype/StillImage" />
      </cc:Work>
    </rdf:RDF>
  </metadata>
  <sodipodi:namedview
     pagecolor="#ffffff"
     bordercolor="#666666"
     borderopacity="1"
     objecttolerance="10"
     gridtolerance="10"
     guidetolerance="10"
     inkscape:pageopacity="0"
     inkscape:pageshadow="2"
     inkscape:window-width="644"
     inkscape:window-height="496"
     id="namedview31"
     showgrid="false"
     inkscape:zoom="0.921875"
     inkscape:cx="128"
     inkscape:cy="128"
     inkscape:window-x="0"
     inkscape:window-y="24"
     inkscape:window-maximized="0"
     inkscape:current-layer="g19" />
  <defs
     id="defs4">
    <path
       id="0"
       d="m 92.23 121.94 a 10.188 10.725 0 1 1 -20.377 0 10.188 10.725 0 1 1 20.377 0 z"
       style="fill:#4169e1;stroke:#ffffff;fill-rule:evenodd" />
    <clipPath
       id="clipPath7">
      <rect
         y="56"
         x="-202"
         width="84"
         rx="10"
         height="88"
         style="fill:none;stroke:#000;display:block;color:#000"
         id="rect9" />
    </clipPath>
    <clipPath
       id="clipPath11">
      <rect
         y="56"
         x="-202"
         width="84"
         rx="10"
         height="88"
         style="fill:none;stroke:#000;display:block;color:#000"
         id="rect13" />
    </clipPath>
    <clipPath
       id="clipPath15">
      <rect
         y="56"
         x="-202"
         width="84"
         rx="10"
         height="88"
         style="fill:none;stroke:#000;display:block;color:#000"
         id="rect17" />
    </clipPath>
  </defs>
  <g
     transform="translate(-1.416 -1.115)"
     id="g19">
    <path
       d="M 156.8045,5.3448162 C 392.69424,54.487026 139.45733,392.59467 19.554144,189.49548 -31.840867,110.58793 35.478437,-19.929793 156.8045,5.3448162 z"
       style="color:#000000;fill:#ffffff"
       id="path21"
       inkscape:connector-curvature="0" />
    <path
       d="m 76.51,67.99191 c -3.132,4.836 -0.91,7.346 6.977,7.884 6.92,0.471 7.093,0.63 6.534,5.99 -0.335,3.218 1.185,8.99 3.659,13.89 3.544,7.02 4.204,11.02 4.052,24.589 -0.166,14.805 -0.73,17.272 -6.535,28.552 -4.676,9.09 -7.686,12.877 -11.4,14.354 -6.214,2.472 -9.817,7.478 -7.234,10.05 1.48,1.475 2.908,8.216 11.471,7.418 1.017,-0.095 9.653,-12.555 10.145,-15.877 0.304,-2.051 2.954,-3.293 2.954,-1.384 0,1.078 5.673,-2.106 12.606,-7.08 26.995,-19.349 48.51,-31.367 80.88,-45.18 7.761,-3.313 15.218,-7.125 16.57,-8.471 1.357,-1.351 5.285,-2.449 8.767,-2.449 5.337,0 6.308,-0.546 6.308,-3.55 0,-8.127 -9.517,-9.624 -18.1,-2.848 -4.619,3.648 -7.8,4.586 -18.486,5.449 -13.499,1.09 -37.568,-0.994 -47.932,-4.15 -3.334,-1.015 -12.178,-4.547 -19.653,-7.847 -12.694,-5.605 -16.777,-8.612 -25.25,-18.596 -4.274,-5.04 -13.287,-5.45 -16.332,-0.747 z m 40.576,27.822 c 8.716,4.121 10.06,5.365 9.565,8.874 -0.955,6.818 -7.104,5.811 -14.257,-2.335 -6.777,-7.716 -8.952,-11.333 -6.818,-11.333 0.755,0 5.935,2.157 11.51,4.793 z m 43.9,10.622 c 2.764,0.011 5.468,0.61 6.01,1.333 1.306,1.746 -10.08,4.35 -24.851,5.681 l -11.949,1.077 1.238,-5.117 c 1.666,-6.884 3.694,-7.576 14.935,-5.103 5.276,1.161 11.854,2.119 14.618,2.129 z m -46.35,4.992 c 2.508,3.291 -0.853,6.701 -5.235,5.312 -4.087,-1.296 -3.956,-9.136 0.141,-8.469 1.687,0.274 3.98,1.695 5.094,3.157 z m 42.26,7.113 c 0,0.706 -4.231,3.549 -9.402,6.318 -7.624,4.082 -9.92,4.68 -12.139,3.158 -5.594,-3.837 -3.23,-7.254 6.134,-8.866 11.707,-2.02 15.408,-2.163 15.408,-0.609 z m -41.799,5.582 c 1.193,2.568 -4.437,11.181 -8.06,12.33 -3,0.952 -3.354,-7.173 -0.5,-11.58 2.276,-3.514 7.081,-3.935 8.56,-0.75 z m 15.653,7.85 c 0,2.343 -16.59,13.76 -18.14,12.482 -1.357,-1.121 4.668,-12.998 8.518,-16.792 2.571,-2.533 2.982,-2.543 6.186,-0.147 1.888,1.412 3.432,3.417 3.432,4.457 z"
       style="fill:#ff4500"
       id="path23"
       inkscape:connector-curvature="0" />
    <use
       height="1"
       width="1"
       transform="matrix(1.39033,0,0,-1.38724,-40.878,351.10191)"
       xlink:href="#0"
       id="use25"
       x="0"
       y="0"
       style="fill:#ffa07a;stroke:#ffa07a" />
    <use
       height="1"
       width="1"
       transform="matrix(1.39033,0,0,-1.38724,-36.465,228.42991)"
       xlink:href="#0"
       id="use27"
       x="0"
       y="0"
       style="fill:#ff4500;stroke:#ffa07a" />
    <use
       height="1"
       width="1"
       transform="matrix(1.39033,0,0,-1.38724,106,261.84491)"
       xlink:href="#0"
       id="use29"
       x="0"
       y="0"
       style="fill:#ffa07a;stroke:#ffa07a" />
  </g>
</svg>
