<svg xmlns="http://www.w3.org/2000/svg" viewBox="0 0 256 256"><defs><clipPath><rect y="6" x="6" rx="6" height="84" width="84" style="fill:#ff4500"/></clipPath></defs><g transform="translate(0 -796.36)"><path d="m -1374.42 1658.71 c 127.95 -192.46 -280.09 -311 -226.07 -62.2 23.02 102.82 167.39 165.22 226.07 62.2 z" transform="matrix(-1 0 0 1 -1349.44 -659.12)" style="fill:#fff;color:#000"/><g transform="matrix(2.6292 0 0 2.96269 4.522 776.79)" style="enable-background:new"><path transform="translate(-6.152 19.892)" d="m 84.06 28.11 c 0 5.357 -13.389 9.699 -29.905 9.699 -16.516 0 -29.905 -4.342 -29.905 -9.699 0 -5.357 13.389 -9.699 29.905 -9.699 16.516 0 29.905 4.342 29.905 9.699 z" style="fill:none;opacity:0.6;stroke:#ff4500"/><text y="65.5" x="29.66" line-height="125%" style="letter-spacing:0;word-spacing:0;font-size:12;font-family:KanjiStrokeOrders;fill:#ff4500;font-weight:500"><tspan y="65.5" x="29.66" style="font-size:48;font-family:Droid Sans Hebrew;font-weight:normal">R</tspan></text></g></g></svg>