<svg xmlns="http://www.w3.org/2000/svg" viewBox="0 0 256 256"><g transform="translate(0 -796.36)" style="fill:#ffdead;color:#000"><path d="m 3.74 950.97 c 19.829 131.87 217.21 135.83 247.04 7.636 30.702 -103.78 -80.47 -188.63 -163.63 -154.63 -55.684 16.07 -100.67 81.83 -83.41 146.99 z" style="fill:#fff"/><g transform="matrix(0.65255 0 0 0.63559 45.683 335.94)"><path transform="matrix(1.30337 0 0 1.3455 -40.525 -328.49)" d="m 60.23 1005.73 c -88.14 -67.851 24.775 -207.84 119.74 -158.24 89.47 46.731 33.06 188.91 -64.06 179.39 -20.263 -1.985 -39.496 -8.696 -55.674 -21.15 z" style="fill:#ff4500"/><g style="fill:#fff"><path d="m 178.04,926.58 c -0.004,-0.167 -0.015,-0.333 -0.034,-0.499 -0.071,-1.747 -1,-3.425 -2.396,-4.312 l -40.3,-25.14 -40.3,-25.17 c -1.474,-0.91 -3.395,-0.903 -4.863,0.019 -1.468,0.921 -2.428,2.722 -2.429,4.557 v 28.01 44.588 28.01 c 10e-4,1.836 0.961,3.636 2.429,4.557 1.468,0.921 3.389,0.929 4.863,0.019 l 40.3,-25.17 40.3,-25.14 c 1.413,-0.884 2.361,-2.578 2.431,-4.341 z"/><path d="m 92.6,869.61 c -0.848,0.003 -1.704,0.23 -2.438,0.696 -1.468,0.933 -2.436,2.761 -2.438,4.619 v 28.381 45.15 15.567 l 48.41,-30.659 29.344,-18.509 -30.16,-19.08 -40.31,-25.47 c -0.737,-0.461 -1.558,-0.699 -2.406,-0.696 z"/></g></g></g></svg>