<svg xmlns="http://www.w3.org/2000/svg" xmlns:xlink="http://www.w3.org/1999/xlink" viewBox="0 0 256 256"><defs><clipPath><path transform="matrix(15.33333 0 0 11.5 415 -125.5)" d="m -24 13 c 0 1.105 -0.672 2 -1.5 2 -0.828 0 -1.5 -0.895 -1.5 -2 0 -1.105 0.672 -2 1.5 -2 0.828 0 1.5 0.895 1.5 2 z"/></clipPath></defs><g transform="translate(0 -796.36)"><path d="m 60.17 822.74 c 130.93 -92.05 263.6 77.948 156.91 186.39 -100.51 102.17 -256.68 7.449 -207.86 -119.69 10.185 -26.526 26.914 -49.802 50.948 -66.7 z" style="fill:#fff;color:#000"/><g transform="matrix(19.31863 0 0 19.39776 -7.193 791.41)" style="fill:#ff4500"><g><path d="m 3.387 3.387 h 0.564 v 0.564 h -0.564 z"/><path d="m 4.516 3.387 h 0.564 v 0.564 h -0.564 z"/><path d="m 5.644 3.387 h 0.564 v 0.564 h -0.564 z"/></g><g><path d="m 6.773 3.387 h 0.564 v 0.564 h -0.564 z"/><path d="m 7.902 3.387 h 0.564 v 0.564 h -0.564 z"/><path d="m 9.03 3.387 h 0.564 v 0.564 h -0.564 z"/></g><g><path d="m 3.951 3.951 h 0.564 v 0.564 h -0.564 z"/><path d="m 5.08 3.951 h 0.564 v 0.564 h -0.564 z"/><path d="m 6.209 3.951 h 0.564 v 0.564 h -0.564 z"/></g><g><path d="m 7.338 3.951 h 0.564 v 0.564 h -0.564 z"/><path d="m 8.467 3.951 h 0.564 v 0.564 h -0.564 z"/><path d="m 9.596 3.951 h 0.564 v 0.564 h -0.564 z"/></g><g><path d="m 3.387 4.516 h 0.564 v 0.564 h -0.564 z"/><path d="m 5.644 4.516 h 0.564 v 0.564 h -0.564 z" id="1" style="fill:#ff4500"/></g><g><path d="m 6.773 4.516 h 0.564 v 0.564 h -0.564 z"/><path d="m 7.902 4.516 h 0.564 v 0.564 h -0.564 z"/><path d="m 9.03 4.516 h 0.564 v 0.564 h -0.564 z"/></g><g><path d="m 3.951 5.08 h 0.564 v 0.564 h -0.564 z"/><path d="m 6.209 5.08 h 0.564 v 0.564 h -0.564 z" id="2" style="fill:#ff4500"/></g><g style="fill:#ffa07a"><path d="m 7.338 5.08 h 0.564 v 0.564 h -0.564 z"/><path d="m 8.467 5.08 h 0.564 v 0.564 h -0.564 z"/><path d="m 9.596 5.08 h 0.564 v 0.564 h -0.564 z"/></g><path d="m 3.387 5.644 h 0.564 v 0.564 h -0.564 z"/><g><path d="m 6.773 5.644 h 0.564 v 0.564 h -0.564 z" id="3" style="fill:#ff4500"/><path d="m 7.902 5.644 h 0.564 v 0.564 h -0.564 z"/><path d="m 9.03 5.644 h 0.564 v 0.564 h -0.564 z"/></g><g><path d="m 3.951 6.209 h 0.564 v 0.564 h -0.564 z"/><path d="m 5.08 6.209 h 0.564 v 0.564 h -0.564 z"/></g><g><path d="m 7.338 6.209 h 0.564 v 0.564 h -0.564 z" id="4" style="fill:#ff4500"/><path d="m 8.467 6.209 h 0.564 v 0.564 h -0.564 z"/><path d="m 9.596 6.209 h 0.564 v 0.564 h -0.564 z"/></g><path d="m 3.387 6.773 h 0.564 v 0.564 h -0.564 z"/><g><path d="m 7.902 6.773 h 0.564 v 0.564 h -0.564 z"/><path d="m 9.03 6.773 h 0.564 v 0.564 h -0.564 z"/></g><g><path d="m 3.951 7.338 h 0.564 v 0.564 h -0.564 z"/><path d="m 6.209 7.338 h 0.564 v 0.564 h -0.564 z" id="5" style="fill:#ff4500"/></g><g><path d="m 7.338 7.338 h 0.564 v 0.564 h -0.564 z"/><path d="m 8.467 7.338 h 0.564 v 0.564 h -0.564 z"/><path d="m 9.596 7.338 h 0.564 v 0.564 h -0.564 z"/></g><path d="m 3.387 7.902 h 0.564 v 0.564 h -0.564 z"/><g><path d="m 6.773 7.902 h 0.564 v 0.564 h -0.564 z" id="6" style="fill:#ff4500"/><path d="m 7.902 7.902 h 0.564 v 0.564 h -0.564 z"/><path d="m 9.03 7.902 h 0.564 v 0.564 h -0.564 z"/></g><g><path d="m 3.951 8.467 h 0.564 v 0.564 h -0.564 z"/><path d="m 5.08 8.467 h 0.564 v 0.564 h -0.564 z"/></g><g style="fill:#ffa07a"><path d="m 7.338 8.467 h 0.564 v 0.564 h -0.564 z" id="7" style="fill:#ffa07a"/><path d="m 8.467 8.467 h 0.564 v 0.564 h -0.564 z"/><path d="m 9.596 8.467 h 0.564 v 0.564 h -0.564 z"/></g><g><path d="m 3.387 9.03 h 0.564 v 0.564 h -0.564 z"/><path d="m 5.644 9.03 h 0.564 v 0.564 h -0.564 z" id="8" style="fill:#ff4500"/></g><g><path d="m 7.902 9.03 h 0.564 v 0.564 h -0.564 z" id="9" style="fill:#ff4500"/><path d="m 9.03 9.03 h 0.564 v 0.564 h -0.564 z"/></g><g><path d="m 3.951 9.596 h 0.564 v 0.564 h -0.564 z"/><path d="M 5.08,9.59556 H5.64444 V10.16 H5.08 z"/><path d="m 6.209 9.596 h 0.564 v 0.564 h -0.564 z"/></g><g><path d="m 7.338 9.596 h 0.564 v 0.564 h -0.564 z"/><path d="m 8.467 9.596 h 0.564 v 0.564 h -0.564 z"/><path d="m 9.596 9.596 h 0.564 v 0.564 h -0.564 z"/></g><g><path d="m 5.08 7.338 h 0.564 v 0.564 h -0.564 z"/><path d="m 4.516 7.902 h 0.564 v 0.564 h -0.564 z"/><path d="m 5.644 7.902 h 0.564 v 0.564 h -0.564 z" id="A" style="fill:#ff4500"/><path d="m 6.209 8.467 h 0.564 v 0.564 h -0.564 z"/></g><path d="m 6.773 9.03 h 0.564 v 0.564 h -0.564 z"/><g style="fill:#ffa07a"><path d="m 4.516 9.03 h 0.564 v 0.564 h -0.564 z"/><path d="m 4.516 6.773 h 0.564 v 0.564 h -0.564 z"/><path d="m 4.516 5.644 h 0.564 v 0.564 h -0.564 z"/><path d="m 4.516 4.516 h 0.564 v 0.564 h -0.564 z"/><path d="M 5.08,5.08 H5.64444 V5.64444 H5.08 z"/><path d="m 5.644 5.644 h 0.564 v 0.564 h -0.564 z" id="B" style="fill:#ffa07a"/><path d="m 5.644 6.773 h 0.564 v 0.564 h -0.564 z" id="C" style="fill:#ffa07a"/></g><path d="m 6.773 6.773 h 0.564 v 0.564 h -0.564 z" id="0"/><path d="m 6.209 6.209 h 0.564 v 0.564 h -0.564 z"/><g style="fill:#ffa07a"><use xlink:href="#1"/><use xlink:href="#2"/><use xlink:href="#B"/><use xlink:href="#3"/><use xlink:href="#4"/><use xlink:href="#C"/><use xlink:href="#5"/><use xlink:href="#A"/><use xlink:href="#6"/><use xlink:href="#7"/><use xlink:href="#8"/><use xlink:href="#9"/><use xlink:href="#0"/></g><path d="M 10.16,4.51556 H10.7244 V5.08 H10.16 z" style="opacity:0.1"/><path d="m 10.16 5.644 h 0.564 v 0.564 h -0.564 z" style="opacity:0.1"/><path d="m 10.16 6.773 h 0.564 v 0.564 h -0.564 z" style="opacity:0.1"/><path d="m 10.16 7.902 h 0.564 v 0.564 h -0.564 z" style="opacity:0.1"/><path d="m 10.16 9.03 h 0.564 v 0.564 h -0.564 z" style="opacity:0.1"/><path d="m 4.516 10.16 h 0.564 v 0.564 h -0.564 z" style="opacity:0.1"/><path d="m 5.644 10.16 h 0.564 v 0.564 h -0.564 z" style="opacity:0.1"/><path d="m 6.773 10.16 h 0.564 v 0.564 h -0.564 z" style="opacity:0.1"/><path d="m 7.902 10.16 h 0.564 v 0.564 h -0.564 z" style="opacity:0.1"/><path d="m 9.03 10.16 h 0.564 v 0.564 h -0.564 z" style="opacity:0.1"/><path d="m 10.16 10.16 h 0.564 v 0.564 h -0.564 z" style="opacity:0.1"/></g></g></svg>