<svg xmlns="http://www.w3.org/2000/svg" viewBox="0 0 256 256"><defs><clipPath><path d="M 0,64 H64 V128 H0 z"/></clipPath></defs><g style="fill:#fff;color:#000"><path d="m -1360.14 1641.33 c 46.11 -98.28 -119.59 -146.07 -181.85 -106.06 -62.25 40.01 -83.52 108.58 -13.01 143.08 70.51 34.501 148.75 61.26 194.86 -37.03 z" transform="matrix(1.03665 0 0 -1.35742 1657.7099955 2320.7899973)" style="fill:#fff"/></g><g transform="matrix(3.3311486 0 0 3.1464118 50.186798 53.624781)"><path d="M 24,1 C 36.703,1 47,11.297 47,24 47,36.703 36.703,47 24,47 11.297,47 1,36.703 1,24 1,11.297 11.297,1 24,1 z" style="fill:#ff4500"/><g transform="translate(1 1.001)" style="opacity:0.1"><path d="m 26 9 h -4 v 15 h 4"/><path d="m 20 9.5 c -6.359 1.766 -11 7.617 -11 14.469 0 8.23 6.715 15.03 15 15.03 8.285 0 15 -6.801 15 -15.03 c 0 -6.852 -4.641 -12.703 -11 -14.469 v 3.875 c 4.184 1.645 7.25 5.75 7.25 10.594 0 6.313 -5.04 11.375 -11.25 11.375 -6.203 0 -11.25 -5.063 -11.25 -11.375 0 -4.895 3.01 -9.05 7.25 -10.656"/></g><g transform="translate(0 0.001)" style="fill:#f9f9f9"><path d="m 26 9 h -4 v 15 h 4"/><path d="m 20 9.5 c -6.359 1.766 -11 7.617 -11 14.469 0 8.23 6.715 15.03 15 15.03 8.285 0 15 -6.801 15 -15.03 c 0 -6.852 -4.641 -12.703 -11 -14.469 v 3.875 c 4.184 1.645 7.25 5.75 7.25 10.594 0 6.313 -5.04 11.375 -11.25 11.375 -6.203 0 -11.25 -5.063 -11.25 -11.375 0 -4.895 3.01 -9.05 7.25 -10.656"/></g></g></svg>