<svg xmlns="http://www.w3.org/2000/svg" viewBox="0 0 256 256" xmlns:xlink="http://www.w3.org/1999/xlink"><defs><clipPath id="0"><path transform="matrix(15.33333 0 0 11.5 415 -125.5)" d="m -24 13 c 0 1.105 -0.672 2 -1.5 2 -0.828 0 -1.5 -0.895 -1.5 -2 0 -1.105 0.672 -2 1.5 -2 0.828 0 1.5 0.895 1.5 2 z"/></clipPath></defs><g transform="translate(0 -796.36)"><path d="m -1374.42 1658.71 c 127.95 -192.46 -280.09 -311 -226.07 -62.2 23.02 102.82 167.39 165.22 226.07 62.2 z" transform="matrix(0 1 -1 0 1711.48 2401.81)" style="fill:#fff;color:#000"/><g transform="matrix(4.42813 0 0 4.3996 21.919 813.45)" style="fill:#ff4500"><g style="clip-path:url(#0)"><g transform="translate(1 1)" style="opacity:0.1"><path d="m 11 18 v 12 h 16 v -2 h -14 v -8 h 14 v -2 m 4 0 v 2 h 4 v 8 h -4 v 2 h 6 v -12" id="1"/><path d="m 14 22 h 9 v 4 h -9" id="2"/><path d="m 28 34 v -19.996 h 1.996 v 19.996" id="3"/><path d="m 25.02 14 h 8 v 1.996 h -8" id="4"/><path d="m 25.02 31.996 h 8 v 2 h -8" id="5"/></g></g><g style="clip-path:url(#0)"><g><use xlink:href="#1"/><use xlink:href="#2"/><g><use xlink:href="#3"/><use xlink:href="#4"/><use xlink:href="#5"/></g></g></g></g></g></svg>