<svg xmlns="http://www.w3.org/2000/svg" viewBox="0 0 256 256"><defs><clipPath><rect width="46" height="46" x="1" y="0.998" rx="4" style="fill:#1890d0"/></clipPath></defs><g transform="translate(0 -796.36)"><path d="m -1374.42 1658.71 c 125.16 -274.08 -273.7 -240.16 -226.07 -62.2 23.02 102.82 167.39 165.22 226.07 62.2 z" transform="matrix(1 0 0 -1 1605.44 2510.29)" style="fill:#fff;color:#000"/><g transform="matrix(9.60746 0 0 9.49722 -923.05 -2759.17)" style="fill:#ff4500;color:#bebebe"><path d="m 104.19 381 c -1.202 0 -2.188 0.988 -2.188 2.188 v 8.625 c 0 1.2 0.986 2.188 2.188 2.188 h 11.625 c 1.202 0 2.188 -0.988 2.188 -2.188 v -8.625 c 0 -1.2 -0.986 -2.188 -2.188 -2.188 h -11.625 z m 0 2 h 11.625 c 0.124 0 0.188 0.057 0.188 0.188 v 8.625 c 0 0.131 -0.064 0.188 -0.188 0.188 h -11.625 c -0.124 0 -0.188 -0.057 -0.188 -0.188 v -8.625 c 0 -0.131 0.064 -0.188 0.188 -0.188 z"/><path d="M 106.91 395 A 1 1 0 1 0 107 397 h 6 a 1 1 0 1 0 0 -2 h -6 a 1 1 0 0 0 -0.094 0 z"/><path d="m 116.12 383.02 l 0.82 8.164 l -11.672 -0.036 z m -0.857 2.959 l -4.23 2.96 l 4.216 0.023 z"/></g></g></svg>