<svg xmlns="http://www.w3.org/2000/svg" xmlns:xlink="http://www.w3.org/1999/xlink" viewBox="0 0 256 256"><defs><path d="m 143.84 37.759 a 1.876 1.446 0 1 1 -0.03 -0.26" id="0"/><clipPath><rect x="6" y="6" width="84" height="84" rx="6" style="fill:#f00"/></clipPath></defs><path d="m 24.967 203.22 c -127.95 -192.46 280.09 -311 226.07 -62.2 -23.02 102.82 -167.39 165.22 -226.07 62.2 z" style="fill:#fff;color:#000"/><g transform="matrix(1.6603 0 0 1.57973 47.28 49.79)" style="fill:#ff4500"><path d="m 23.1,45.916 -0.451,35.881 h 43.32 V 46.11 z"/><path d="M 54.806,69.39 H 66.417 V 88.4 H 54.806 z"/><path d="m 26.782,45.722 6.252,7.273 6.922,-6.982 5.359,6.788 8.485,-6.982 6.03,7.564 7.03,-7.661 z" style="fill:#ffdead"/><path d="m 22.428,2.859 0.223,43.06 48.01,0.388 -1.34,-29.29 c 0,0 -2.233,-3.297 -4.243,-4.267 C 63.068,11.781 52.574,2.471 52.574,2.471 L 51.681,13.138 H 34.487 z"/><path d="m 22.592 18.464 h 6.571 v 27.51 h -6.571 z"/><use xlink:href="#0" transform="matrix(5.4648 0 0 5.2155 -735.09 -160.71)" width="1" height="1"/><path d="M 22.703,69.19 H 34.314 V 88.2 H 22.703 z"/><path d="M 39.4,69.39 H 51.011 V 88.4 H 39.4 z"/><path d="m 35.888,34.507 7.084,-0.171 2.051,3.6 -8.948,-0.171 z" style="fill:#ffdead"/><g><use xlink:href="#0" transform="matrix(5.4648 0 0 5.2155 -718.68 -161.22)" width="1" height="1"/><use xlink:href="#0" transform="matrix(5.4648 0 0 5.2155 -726.88 -167.22)" width="1" height="1"/></g><g style="fill:#ffdead"><path d="m 63.1,34.507 -7.084,-0.171 -2.051,3.6 8.948,-0.171 z"/><path d="m 43.531,27.809 2.838,4.469 h 5.509 l 2.838,-4.629 z"/></g><path d="m 59.894 -87.9 h 6.571 v 18.982 h -6.571 z" transform="scale(1 -1)" style="opacity:0.882"/><path d="m 52.77,2.8554 -0.73,10.288 14.359,0.473 z"/></g></svg>