<svg xmlns="http://www.w3.org/2000/svg" viewBox="0 0 256 256"><defs><linearGradient id="4" x1="9.559" x2="33.559" gradientUnits="userSpaceOnUse"><stop stop-color="#fb3500"/><stop offset="0.5" stop-color="#ee3200"/><stop offset="1" stop-color="#e33700"/></linearGradient><linearGradient y2="0.447" y1="21.23" id="5" gradientUnits="userSpaceOnUse" x1="4.944" x2="16.944"><stop stop-color="#f43400"/><stop offset="0.5" stop-color="#fe6007"/><stop offset="1" stop-color="#f43400"/></linearGradient><linearGradient y2="21.23" y1="0.447" id="3" gradientUnits="userSpaceOnUse" x1="26.17" x2="38.17"><stop stop-color="#f23600"/><stop offset="0.5" stop-color="#c72d00"/><stop offset="1" stop-color="#d52f00"/></linearGradient><linearGradient y2="0.447" y1="21.23" id="1" gradientUnits="userSpaceOnUse" x1="4.944" x2="16.944"><stop stop-color="#c70d00"/><stop offset="0.5" stop-color="#930900"/><stop offset="1" stop-color="#cd0d00"/></linearGradient><linearGradient y2="21.23" y1="0.447" id="0" gradientUnits="userSpaceOnUse" x1="26.17" x2="38.17"><stop stop-color="#a50b00"/><stop offset="0.5" stop-color="#850b00"/><stop offset="1" stop-color="#9f0d00"/></linearGradient><linearGradient id="2" x1="9.559" x2="33.559" gradientUnits="userSpaceOnUse"><stop stop-color="#be0c00"/><stop offset="0.5" stop-color="#d90f00"/><stop offset="1" stop-color="#b80c00"/></linearGradient></defs><path d="m 252.46 156.79 c -49.33 237.88 -388.7 -17.492 -184.83 -138.4 79.19 -51.828 210.21 16.06 184.83 138.4 z" fill="#fff" color="#000"/><g transform="matrix(5.52714 0 0 5.7844 13.282 24.999)"><path d="m 19.35,6.04 c -0.099,0.014 -0.189,0.047 -0.273,0.092 0.007,-0.005 0.012,-0.013 0.02,-0.018 l -4.373,2.525 c -0.723,0.418 -0.781,2.032 -0.238,4.262 -2.373,0.543 -3.891,1.316 -3.92,2.182 0,-0.009 -0.006,-0.017 -0.006,-0.025 l 0,5.05 c 0,0.833 1.361,1.686 3.553,2.33 -0.711,2.318 -0.8,4.01 -0.066,4.469 -0.007,-0.004 -0.016,-0.004 -0.023,-0.008 l 0.041,0.023 c 0.001,0 0.001,0.002 0.002,0.002 10e-4,0.001 0.003,0.001 0.004,0.002 l 4.326,2.498 c 0.773,0.447 2.357,-0.478 4.164,-2.295 1.807,1.817 3.391,2.741 4.164,2.295 l 4.33,-2.5 0.002,-0.002 0.041,-0.023 c -0.007,0.004 -0.016,0.004 -0.023,0.008 0.733,-0.457 0.645,-2.151 -0.066,-4.469 2.192,-0.644 3.553,-1.497 3.553,-2.33 l 0,-5.05 c 0,0.009 -0.006,0.017 -0.006,0.025 -0.029,-0.866 -1.547,-1.639 -3.92,-2.182 0.543,-2.23 0.485,-3.844 -0.238,-4.262 l -4.33,-2.5 -0.043,-0.025 c 0.008,0.004 0.012,0.013 0.02,0.018 C 25.337,5.753 24.064,6.51 22.563,8.04 21.24,6.691 20.092,5.938 19.354,6.04 z m 3.578,11.332 -0.369,0.686 -0.369,-0.686 z" opacity="0.1"/><path d="M 26.652,14.03 C 23.338,8.29 19.489,4.309 18.054,5.138 c -0.997,0.576 -0.628,3.391 0.84,6.94 1.044,1.328 2.201,2.826 3.212,4.578 1.01,1.751 1.731,3.503 2.359,5.07 2.339,3.045 4.593,4.773 5.59,4.197 1.435,-0.828 -0.088,-6.153 -3.402,-11.892 z" fill="url(#0)"/><path d="m 16.467 14.03 c -3.314 5.74 -4.837 11.06 -3.402 11.892 0.997 0.576 3.251 -1.152 5.59 -4.197 0.628 -1.568 1.347 -3.319 2.359 -5.07 1.01 -1.751 2.168 -3.25 3.212 -4.578 1.468 -3.548 1.837 -6.364 0.84 -6.94 -1.435 -0.828 -5.284 3.153 -8.598 8.892 z" fill="url(#1)"/><path d="m 21.559 11.1 c -6.627 0 -12 1.343 -12 3 0 1.151 2.623 2.339 6.43 2.842 1.672 -0.24 3.548 -0.592 5.57 -0.592 2.02 0 3.899 0.352 5.57 0.592 3.807 -0.503 6.43 -1.691 6.43 -2.842 0 -1.657 -5.373 -3 -12 -3 z" fill="url(#2)"/><path d="m 18.1,5.11 -4.373,2.525 c -1.435,0.828 -0.258,6.353 3.055,12.09 3.314,5.74 7.51,9.521 8.945,8.692 L 30.1,25.892 C 28.665,26.72 24.816,22.739 21.502,17 18.188,11.26 16.665,5.94 18.1,5.108" fill="url(#3)"/><path d="m 9.559 14.05 v 5.05 c 0 1.657 5.373 3.4 12 3.4 6.627 0 12 -1.743 12 -3.4 v -5.05 c 0 1.657 -5.373 3 -12 3 -6.627 0 -12 -1.343 -12 -3 z" fill="url(#4)"/><path d="m 13.02,25.895 4.373,2.525 c 1.435,0.828 5.631,-2.953 8.945,-8.692 3.314,-5.74 4.49,-11.264 3.055,-12.09 L 25.02,5.113 c 1.435,0.828 -0.088,6.153 -3.402,11.892 -3.314,5.74 -7.163,9.721 -8.598,8.892 z" fill="url(#5)"/></g></svg>