<svg xmlns="http://www.w3.org/2000/svg" viewBox="0 0 256 256"><defs><clipPath><path transform="matrix(15.33333 0 0 11.5 415 -125.5)" d="m -24 13 c 0 1.105 -0.672 2 -1.5 2 -0.828 0 -1.5 -0.895 -1.5 -2 0 -1.105 0.672 -2 1.5 -2 0.828 0 1.5 0.895 1.5 2 z"/></clipPath></defs><g transform="translate(0 -796.36)"><path d="m 60.17 822.74 c 130.93 -92.05 263.6 77.948 156.91 186.39 -100.51 102.17 -256.68 7.449 -207.86 -119.69 10.185 -26.526 26.914 -49.802 50.948 -66.7 z" style="fill:#fff;color:#000"/><g transform="matrix(1.42655 0 0 1.49915 36.942 877.86)" style="fill:#ff4500"><circle r="33.941" cy="27.764" cx="35.709" transform="matrix(1.78374 0 0 1.78374 0.922 -17.788)" style="opacity:0.219"/><circle r="33.941" cy="27.764" cx="35.709" transform="matrix(1.67288 0 0 1.67288 4.88 -14.71)"/><circle r="33.941" cy="27.764" cx="35.709" transform="matrix(1.40166 0 0 1.40166 14.565 -7.179)" style="fill:#ffa07a"/><circle r="33.941" cy="27.764" cx="35.709" transform="matrix(1.13235 0 0 1.13235 24.18 0.298)"/><circle r="33.941" cy="27.764" cx="35.709" transform="matrix(1.06793 0 0 1.06793 26.482 2.086)" style="fill:#ffdead"/><circle r="33.941" cy="27.764" cx="35.709" transform="matrix(0.30694 0 0 -0.30694 53.657 40.24)"/><path d="m 64.62 2.177 c -8.303 0 -15.797 3.444 -21.17 8.963 l 15.16 11.204 c 4.04 -3.766 9.128 -6.395 14.78 -7.438 v -11.395 c -2.771 -0.866 -5.708 -1.335 -8.773 -1.335 z m -23.791 12.06 c -3.61 4.901 -5.769 10.948 -5.769 17.497 0 0.497 0.023 0.987 0.048 1.478 h 16.11 c 1.126 -2.868 2.662 -5.511 4.577 -7.867 l -14.971 -11.11 z"/><ellipse ry="4.419" rx="4.773" cy="57.639" cx="58.51" transform="matrix(1.14866 -1.0041 1.0041 1.14866 -42.27 39.528)"/></g></g></svg>