<svg xmlns="http://www.w3.org/2000/svg" xmlns:xlink="http://www.w3.org/1999/xlink" viewBox="0 0 256 256"><defs><clipPath><path transform="matrix(15.33333 0 0 11.5 415 -125.5)" d="m -24 13 c 0 1.105 -0.672 2 -1.5 2 -0.828 0 -1.5 -0.895 -1.5 -2 0 -1.105 0.672 -2 1.5 -2 0.828 0 1.5 0.895 1.5 2 z" fill="#1890d0"/></clipPath><clipPath id="0"><path fill="#1890d0" transform="matrix(15.33333 0 0 11.5 415 -125.5)" d="m -24 13 c 0 1.105 -0.672 2 -1.5 2 -0.828 0 -1.5 -0.895 -1.5 -2 0 -1.105 0.672 -2 1.5 -2 0.828 0 1.5 0.895 1.5 2 z"/></clipPath><clipPath id="1"><path fill="#1890d0" transform="matrix(15.33333 0 0 11.5 415 -125.5)" d="m -24 13 c 0 1.105 -0.672 2 -1.5 2 -0.828 0 -1.5 -0.895 -1.5 -2 0 -1.105 0.672 -2 1.5 -2 0.828 0 1.5 0.895 1.5 2 z"/></clipPath></defs><g transform="translate(0 -796.36)"><path d="m 60.17 822.74 c 130.93 -92.05 263.6 77.948 156.91 186.39 -100.51 102.17 -256.68 7.449 -207.86 -119.69 10.185 -26.526 26.914 -49.802 50.948 -66.7 z" fill="#fff" color="#fff"/><g transform="matrix(6.051 0 0 6.22238 -17.508 775.03)" fill="#ff4500"><g clip-path="url(#1)"><g opacity="0.1" transform="translate(1 1)"><path d="M 23.996,14 C 18.476,14 14,15.398 14,17.125 l 0,2.5 c 0,1.723 4.477,3.121 9.996,3.121 5.523,0 10,-1.398 10,-3.121 l 0,-2.5 c 0,-1.727 -4.477,-3.125 -10,-3.125 m 0,0" id="2"/><path d="m 23.965,24 c -4.477,0 -8.25,-0.918 -9.523,-2.188 -0.297,0.297 -0.445,0.613 -0.445,0.938 l 0,2.5 c 0,1.727 4.477,3.125 10,3.125 5.523,0 10,-1.398 10,-3.125 l 0,-2.5 c 0,-0.324 -0.176,-0.641 -0.473,-0.938 C 32.251,23.082 28.442,24 23.965,24 m 0,0" id="3"/><path d="m 23.965 29.625 c -4.477 0 -8.25 -0.918 -9.523 -2.188 -0.297 0.297 -0.445 0.613 -0.445 0.938 l 0 2.5 c 0 1.727 4.477 3.125 10 3.125 5.523 0 10 -1.398 10 -3.125 l 0 -2.5 c 0 -0.324 -0.176 -0.641 -0.473 -0.938 -1.273 1.27 -5.082 2.188 -9.559 2.188 m 0 0" id="4"/></g></g><g clip-path="url(#0)"><g><use xlink:href="#2"/><use xlink:href="#3"/><use xlink:href="#4"/></g></g></g></g></svg>