<svg xmlns="http://www.w3.org/2000/svg" viewBox="0 0 256 256"><defs><clipPath><rect y="6" x="6" rx="6" height="84" width="84" style="fill:#ff4500"/></clipPath></defs><g transform="translate(0 -796.36)"><path d="m 211.17 833.49 c 201.82 266.38 -353.59 304.22 -175.35 32.31 40.634 -61.991 121.89 -102.86 175.35 -32.31 z" style="fill:#fff;color:#000"/><path d="m 53.44,17.965 -5.836,2.564 c -11.336,0.85 -20.822,8.223 -20.822,8.223 l 1.149,-3.404 c -3.826,1.842 -7.118,6.366 -7.118,6.366 -0.85,-0.709 0,-2.829 0,-2.829 -2.409,2.409 -5.217,12.202 -5.217,12.202 -5.385,4.676 -6.366,8.93 -6.366,8.93 1.842,0.142 4.509,-0.575 4.509,-0.575 0,0 1.408,0.839 0.133,1.547 -1.275,0.709 -3.537,0.133 -3.537,0.133 -0.709,7.085 1.989,7.958 1.989,7.958 l 2.122,0.575 c 0.567,3.826 4.244,5.217 4.244,5.217 l -0.398,-1.547 c -0.85,-1.275 0.265,-5.393 0.265,-5.393 l 1.282,-0.84 c 0.142,1.134 4.244,3.846 4.244,3.846 -0.85,-1.275 -1.68,-7.383 -1.68,-7.383 0.992,-2.551 6.233,-4.111 6.233,-4.111 9.494,2.409 8.355,9.06 8.355,9.06 -1.134,3.401 -7.07,4.819 -7.07,4.819 l -4.111,-4.509 1.68,5.217 c -3.401,0.709 -7.206,-3.095 -7.206,-3.095 l 2.122,7.781 c 1.559,5.526 6.233,3.979 6.233,3.979 8.08,-7.794 17.551,-7.825 17.551,-7.825 5.668,1.842 9.947,19.275 9.947,19.275 l -0.399,5.794 h 34.22 L 89.912,74.34 66.171,62.926 c 13.887,-0.709 23.898,6.696 23.898,6.696 L 89.922,65.496 C 83.687,59.261 61.485,54.128 61.485,54.128 c 11.478,-1.134 28.42,3.937 28.42,3.937 l 0.049,-5.05 C 81.452,47.63 56.136,46.035 56.136,46.035 64.496,41.501 89.775,46.75 89.775,46.75 90.2,44.483 90.009,38.7 90.009,38.7 82.64,31.757 73.554,29.721 73.554,29.721 71.712,27.879 56.976,24.195 56.976,24.195 c 0.425,5.101 -3.979,7.118 -3.979,7.118 0,0 0.546,-2.701 1.68,-5.393 1.134,-2.692 -1.238,-7.958 -1.238,-7.958 z m -29.62,18.04 -1.149,3.227 -4.244,1.149 c 0,0 1.426,-4.093 5.393,-4.377 z" transform="matrix(1.73557 0 0 1.80078 37.603 834.65)" style="fill:#ff4500"/></g></svg>