<svg xmlns="http://www.w3.org/2000/svg" viewBox="0 0 256 256" xmlns:xlink="http://www.w3.org/1999/xlink"><defs><clipPath id="4"><path d="m 18.275 493.69 h 475.39 v -475.44 h -475.39 v 475.44 z"/></clipPath><clipPath id="3"><path d="m 63.01 63.03 c 59.697 -59.697 326.18 -59.697 385.88 0 59.697 59.697 59.697 326.18 0 385.88 -59.697 59.696 -326.18 59.696 -385.88 0.1 -59.697 -59.6 -59.6 -326.28 0 -385.98"/></clipPath><clipPath id="7"><path d="m 448.99 63.03 c -59.697 -59.697 -326.18 -59.697 -385.88 0 -59.697 59.697 -59.697 326.28 -0.1 385.98 c 59.6 59.696 326.28 59.6 385.98 0 59.697 -59.6 59.6 -326.28 0 -385.98"/></clipPath><clipPath id="8"><path d="m 18.325 493.74 h 475.4 v -475.49 h -475.4 v 475.49 z"/></clipPath><clipPath id="0"><path d="m 0 512 h 512 v -512 h -512 v 512"/></clipPath><clipPath><path d="m -24 13 c 0 1.105 -0.672 2 -1.5 2 -0.828 0 -1.5 -0.895 -1.5 -2 0 -1.105 0.672 -2 1.5 -2 0.828 0 1.5 0.895 1.5 2 z" transform="matrix(15.33333 0 0 11.5 415 -125.5)"/></clipPath><mask maskUnits="userSpaceOnUse" x="0" y="0" width="1" height="1" id="9"><path d="m -32768 32767 h 65535 v -65535 h -65535 v 65535 z" style="fill:url(#A)"/></mask><mask maskUnits="userSpaceOnUse" x="0" y="0" width="1" height="1" id="5"><path d="m -32768 32767 h 65535 v -65535 h -65535 v 65535 z" style="fill:url(#6)"/></mask><mask maskUnits="userSpaceOnUse" x="0" y="0" width="1" height="1" id="1"><path d="m -32768 32767 h 65535 v -65535 h -65535 v 65535 z" style="fill:url(#2)"/></mask><radialGradient cx="0" cy="0" r="1" gradientUnits="userSpaceOnUse" gradientTransform="matrix(188.2547 188.3612 -130.3588 130.279 256.02 256.04)" id="6" xlink:href="#2"/><radialGradient cx="256.02" cy="256" r="237.72" gradientUnits="userSpaceOnUse" id="A" xlink:href="#2"/><radialGradient cx="0" cy="0" r="1" gradientUnits="userSpaceOnUse" gradientTransform="matrix(-188.2877 188.3942 130.3817 130.3018 255.92 255.99)" id="2"><stop style="stop-color:#fff"/><stop offset="0.859" style="stop-color:#fff;stop-opacity:0.141"/><stop offset="1" style="stop-color:#fff;stop-opacity:0"/></radialGradient></defs><path d="m 116.8 1051.73 c 154.62 14.702 196.24 -233.26 37.473 -252.52 -145.99 -23.866 -221.18 200.9 -76.12 245.85 c 12.265 4.925 25.677 4.832 38.643 6.668 z" transform="translate(1.087 -797.45)" style="fill:#fff;color:#000"/><g transform="matrix(0.33968 0 0 -0.34659 42.67 217.81)" style="fill:#ff4500"><g style="clip-path:url(#0)"><g style="clip-path:url(#8);opacity:0.4"><g style="clip-path:url(#7)"><g style="mask:url(#9)"><path d="m 448.99 63.03 c -59.697 -59.697 -326.18 -59.697 -385.88 0 -59.697 59.697 -59.697 326.28 -0.1 385.98 c 59.6 59.696 326.28 59.6 385.98 0 59.697 -59.6 59.6 -326.28 0 -385.98" id="B"/></g></g></g><g style="clip-path:url(#8);opacity:0.4"><g style="clip-path:url(#7)"><g style="mask:url(#5)"><use xlink:href="#B"/></g></g></g><g style="clip-path:url(#4);opacity:0.4"><g style="clip-path:url(#3)"><g style="mask:url(#1)"><path d="m 63.01 63.03 c 59.697 -59.697 326.18 -59.697 385.88 0 59.697 59.697 59.697 326.18 0 385.88 -59.697 59.696 -326.18 59.696 -385.88 0.1 -59.697 -59.6 -59.6 -326.28 0 -385.98"/></g></g></g></g><path d="m 78.72 433.28 c -70.29 -70.29 -70.29 -284.26 0 -354.56 c 70.29 -70.29 284.26 -70.29 354.56 0 c 70.3 70.29 70.29 284.26 0 354.56 c -35.15 35.15 -106.21 52.721 -177.28 52.721 c -71.07 0 -142.13 -17.574 -177.28 -52.721"/><g transform="matrix(1.51433 0 0 1.79022 -129.09 -165.72)" style="clip-path:url(#0);fill:#fff;stroke:#fff"><path d="m 0,0 -69.356,-35.575 0,10.313 58.893,29.298 0,0.298 -58.893,29.298 0,10.313 L 0,8.371 0,0 z" transform="translate(209.21 252.5)"/><path d="m 293.81 198.24 h -74.74 v 7.474 h 74.74 v -7.474 z"/></g></g></svg>