<svg xmlns="http://www.w3.org/2000/svg" viewBox="0 0 256 256"><g transform="translate(0 -796.36)"><path d="m 3.74 950.97 c 19.829 131.87 217.21 135.83 247.04 7.636 30.702 -103.78 -80.47 -188.63 -163.63 -154.63 -55.684 16.07 -100.67 81.83 -83.41 146.99 z" style="fill:#fff;color:#000"/><g transform="matrix(3.58242 0 0 3.33515 41.495 848.69)" style="fill:#ff4500"><path d="M 4,4 H44 V44 H4 z"/><path d="m 4 4 v 9 h 40 v -9 z" style="fill:#ffa07a;fill-rule:evenodd"/><path d="m 4 44 h 40 c -20 -1 -20 -1 -40 0 z" style="opacity:0.35"/><path d="m 20 18 v 20 l 14.996 -10" style="opacity:0.1"/><g style="fill-rule:evenodd"><path d="m 18.355 7.883 l 1.254 2.039 l -1.254 2.039 h -2.504 l 1.254 -2.039 l -1.254 -2.039" style="opacity:0.1"/><path d="m 23.313 7.883 l 1.254 2.039 l -1.254 2.039 h -2.504 l 1.254 -2.039 l -1.254 -2.039" style="opacity:0.1"/><path d="m 28.11 7.883 l 1.254 2.039 l -1.254 2.039 h -2.504 l 1.254 -2.039 l -1.254 -2.039" style="opacity:0.1"/><path d="m 32.926 7.883 l 1.254 2.039 l -1.254 2.039 h -2.504 l 1.254 -2.039 l -1.254 -2.039" style="opacity:0.1"/></g><g style="fill:#ffdead"><path d="m 19 17 v 20 l 14.996 -10"/><g style="fill-rule:evenodd"><path d="m 17.355 6.883 l 1.254 2.039 l -1.254 2.039 h -2.504 l 1.254 -2.039 l -1.254 -2.039"/><path d="m 22.313 6.883 l 1.254 2.039 l -1.254 2.039 h -2.504 l 1.254 -2.039 l -1.254 -2.039"/><path d="m 27.11 6.883 l 1.254 2.039 l -1.254 2.039 h -2.504 l 1.254 -2.039 l -1.254 -2.039"/><path d="m 31.926 6.883 l 1.254 2.039 l -1.254 2.039 h -2.504 l 1.254 -2.039 l -1.254 -2.039"/></g></g><path d="m 4 4 h 40 c -20 1 -20 1 -40 0 z" style="opacity:0.75"/></g></g></svg>