<svg xmlns="http://www.w3.org/2000/svg" viewBox="0 0 256 256"><defs><clipPath id="8"><path d="m 0 512 h 512 v -512 h -512 v 512"/></clipPath><clipPath id="6"><path d="m 142.75 397.79 h 113.25 v -198.41 h -113.25 v 198.41 z"/></clipPath><clipPath id="4"><path d="m 142.75 312.62 h 113.25 v -198.41 h -113.25 v 198.41 z"/></clipPath><clipPath id="5"><path d="m 256 397.79 h 113.25 v -198.41 h -113.25 v 198.41 z"/></clipPath><clipPath id="7"><path d="m 142.75 284.54 h 226.5 v -170.34 h -226.5 v 170.34 z"/></clipPath><clipPath><path d="m 63.01 63.03 c 59.697 -59.697 326.18 -59.697 385.88 0 59.697 59.697 59.697 326.18 0 385.88 -59.697 59.696 -326.18 59.696 -385.88 0.1 -59.697 -59.6 -59.6 -326.28 0 -385.98"/></clipPath><clipPath><path d="m 18.325 493.74 h 475.4 v -475.49 h -475.4 v 475.49 z"/></clipPath><clipPath><path d="m 18.275 493.69 h 475.39 v -475.44 h -475.39 v 475.44 z"/></clipPath><clipPath><path d="m 448.99 63.03 c -59.697 -59.697 -326.18 -59.697 -385.88 0 -59.697 59.697 -59.697 326.28 -0.1 385.98 c 59.6 59.696 326.28 59.6 385.98 0 59.697 -59.6 59.6 -326.28 0 -385.98"/></clipPath><clipPath id="3"><path d="m 256 312.62 h 113.25 v -198.41 h -113.25 v 198.41 z"/></clipPath><clipPath id="2"><path d="m 142.75 397.79 h 226.5 v -170.34 h -226.5 v 170.34 z"/></clipPath><clipPath><path d="m 256 297.6 h 113.25 v -168.37 h -113.25 v 168.37 z"/></clipPath><clipPath><path transform="matrix(15.33333 0 0 11.5 415 -125.5)" d="m -24 13 c 0 1.105 -0.672 2 -1.5 2 -0.828 0 -1.5 -0.895 -1.5 -2 0 -1.105 0.672 -2 1.5 -2 0.828 0 1.5 0.895 1.5 2 z"/></clipPath><clipPath><path d="m 152.71 394.03 h 206.59 v -162.8 h -206.59 v 162.8 z"/></clipPath><clipPath><path d="m 142.75 297.6 h 113.25 v -168.37 h -113.25 v 168.37 z"/></clipPath><clipPath id="0"><path d="m 191.9 320.1 h 128.2 v -128.2 h -128.2 v 128.2 z"/></clipPath><clipPath><path d="m 152.71 280.77 h 206.59 v -162.8 h -206.59 v 162.8 z"/></clipPath><clipPath><path d="m 256 382.77 h 113.25 v -168.37 h -113.25 v 168.37 z"/></clipPath><clipPath id="1"><path d="m 142.75 382.77 h 113.25 v -168.37 h -113.25 v 168.37 z"/></clipPath></defs><path d="m 40.454 223.2 c 221.56 145.18 307.3 -251.35 79.37 -219.76 -92.96 12.881 -164.13 164.23 -79.37 219.76 z" style="fill:#fff;color:#000"/><g transform="matrix(0.59079 0 0 -0.52332 -11.945 245.16)" style="fill:#ff4500"><g transform="translate(-17.379 -42.08)" style="clip-path:url(#8)"><g style="clip-path:url(#7);opacity:0.5"><path d="M 0,0 -37.958,28.543 -75.916,0 -151.21,-56.617 -37.958,-141.794 75.293,-56.617 0,0 z" transform="translate(293.96 256)"/></g><g style="clip-path:url(#6);opacity:0.5"><path d="m 0,0 -113.252,-85.16 0,113.252 L 0,113.252 0,0 z" transform="translate(256 284.54)"/></g><g style="clip-path:url(#5);opacity:0.5"><path d="m 0,0 -113.252,85.16 0,113.251 L 0,113.252 0,0 z" transform="translate(369.25 199.38)"/></g><g style="clip-path:url(#0);opacity:0.8"><path d="m 302.95 302.95 c 52.26 -68.61 -25.3 -146.17 -93.91 -93.91 -52.26 68.61 25.3 146.17 93.91 93.91"/></g><g style="clip-path:url(#4);opacity:0.5"><path d="m 0,0 -113.252,85.16 0,-113.252 L 0,-113.252 0,0 z" transform="translate(256 227.46)"/></g><g style="clip-path:url(#3);opacity:0.5"><path d="m 0,0 -113.252,-85.16 0,-113.251 L 0,-113.252 0,0 z" transform="translate(369.25 312.62)"/></g><g style="clip-path:url(#2);opacity:0.5"><path d="M 0,0 -113.252,-85.177 -37.958,-141.794 0,-170.337 37.958,-141.794 113.252,-85.16 0,0 z" transform="translate(256 397.79)"/></g><g style="clip-path:url(#1);opacity:0.5"><path d="m 0 0 l -83.25 -62.6 c -9.886 -7.434 -24.02 -0.381 -24.02 11.988 v 75.72 c 0 4.715 2.217 9.155 5.985 11.989 l 83.25 62.6 c 9.886 7.434 24.02 0.38 24.02 -11.989 v -75.72 c 0 -4.715 -2.217 -9.155 -5.985 -11.989" transform="translate(250.01 280.04)"/></g><g transform="translate(0 -5.965)" style="clip-path:url(#0);opacity:0.8"><path d="m 320.1 256 c 0 -35.401 -28.698 -64.1 -64.1 -64.1 -35.401 0 -64.1 28.698 -64.1 64.1 0 35.401 28.698 64.1 64.1 64.1 35.401 0 64.1 -28.698 64.1 -64.1"/></g></g></g></svg>