<svg xmlns="http://www.w3.org/2000/svg" viewBox="0 0 256 256"><defs><clipPath><path d="M 0,64 H64 V128 H0 z"/></clipPath></defs><g style="fill:#fff;color:#000"><path d="m -1360.14 1641.33 c 46.11 -98.28 -119.59 -146.07 -181.85 -106.06 -62.25 40.01 -83.52 108.58 -13.01 143.08 70.51 34.501 148.75 61.26 194.86 -37.03 z" transform="matrix(1.03665 0 0 -1.35742 1657.71 2320.79)" style="fill:#fff"/></g><path d="m 84.133073,220.39979 c -21.323139,-7.42746 -33.734916,-18.8324 -43.828892,-40.27349 -4.629712,-9.83413 -5.219287,-13.36984 -4.371516,-26.21609 1.799611,-27.2697 19.019205,-50.09092 45.485756,-60.282575 16.429884,-6.32677 40.968449,-6.24703 55.743369,0.18117 16.0489,6.982435 32.81926,24.928715 37.29912,39.914475 4.42515,14.80284 3.26847,34.85813 -2.77693,48.14843 -5.91882,13.01204 -21.66381,28.84922 -34.98006,35.18489 -15.0792,7.17441 -37.481993,8.59911 -52.570847,3.34323 z m 5.575244,-19.7079 c 0,-3.36353 -0.348086,-3.53815 -2.024496,-1.01549 -1.113488,1.67555 -2.024518,4.87431 -2.024518,7.10837 0,3.36355 0.348084,3.53816 2.024518,1.01548 1.113466,-1.67555 2.024496,-4.87431 2.024496,-7.10836 z m 35.798563,0.42741 c -3.36786,-3.27513 -4.19812,-1.0785 -1.75757,4.64998 1.87347,4.39749 2.2866,4.57257 3.08513,1.3075 0.50706,-2.07345 -0.0903,-4.75431 -1.32756,-5.95748 z M 62.622222,180.38226 c 2.114511,-2.47767 2.015036,-3.04643 -0.532788,-3.04643 -1.722985,0 -4.30268,1.37089 -5.73261,3.04643 -2.11451,2.47767 -2.015036,3.04645 0.532789,3.04645 1.722984,0 4.302657,-1.3709 5.732609,-3.04645 z m 93.059708,-0.0647 c -4.62933,-3.40505 -7.43258,-3.8275 -7.43258,-1.12012 0,2.09965 3.67763,3.8633 8.35387,4.00623 2.33442,0.0712 2.09966,-0.66407 -0.92129,-2.88611 z m -25.8825,-43.75722 c 10.72177,-9.02214 19.82982,-17.31286 20.24007,-18.42383 1.28161,-3.47061 -8.64609,-12.21392 -19.54211,-17.21077 -10.96225,-5.027185 -22.8331,-6.303995 -25.12223,-2.702105 -1.86339,2.932035 1.24611,54.740585 3.2855,54.740585 0.90453,0 10.41698,-7.38175 21.13877,-16.40388 z m -70.307505,10.30721 c 1.483813,-2.33476 -8.77534,-6.70454 -11.664232,-4.96827 -3.069127,1.8446 -2.213294,4.59797 1.741614,5.60304 6.323793,1.60707 8.589988,1.4621 9.922618,-0.63477 z m 105.465165,-2.02717 c 0,-1.11704 -2.34953,-2.03097 -5.22118,-2.03097 -2.87164,0 -5.22116,0.91393 -5.22116,2.03097 0,1.11702 2.34952,2.03095 5.22116,2.03095 2.87165,0 5.22118,-0.91393 5.22118,-2.03095 z M 77.241489,116.76101 c 0,-2.03936 -2.20847,-5.72553 -4.907708,-8.19151 -4.115115,-3.75948 -5.297355,-4.02705 -7.320326,-1.65661 -1.875673,2.1978 -1.446911,4.02089 1.926589,8.1915 5.012277,6.19663 10.301445,7.04719 10.301445,1.65662 z" transform="matrix(1.1226305 0 0 1.12892 11.786238 -45.062434)" style="fill:#ff4500"/></svg>