<svg xmlns="http://www.w3.org/2000/svg" viewBox="0 0 256 256"><defs><clipPath id="0"><path transform="matrix(15.33333 0 0 11.5 415 -125.5)" d="m -24 13 c 0 1.105 -0.672 2 -1.5 2 -0.828 0 -1.5 -0.895 -1.5 -2 0 -1.105 0.672 -2 1.5 -2 0.828 0 1.5 0.895 1.5 2 z" fill="#1890d0"/></clipPath><clipPath id="1"><path transform="matrix(15.33333 0 0 11.5 415 -125.5)" d="m -24 13 c 0 1.105 -0.672 2 -1.5 2 -0.828 0 -1.5 -0.895 -1.5 -2 0 -1.105 0.672 -2 1.5 -2 0.828 0 1.5 0.895 1.5 2 z" fill="#1890d0"/></clipPath></defs><g transform="translate(0 -796.36)"><path d="m -1067.28 1935.73 c 48.956 88.52 202.34 54.16 228.29 -18.719 30.922 -86.82 -49.563 -251.7 -185.88 -155.11 -45.916 33.728 -91.37 85.31 -42.41 173.83 z" fill="#fff" color="#fff" transform="matrix(-1 0 0 -1 -832.39 2784.85)"/><g transform="matrix(1.44774 0 0 1.59696 32.893 814.93)"><g clip-path="url(#1)" transform="matrix(2.65238 0 0 2.65238 0.649 0.686)"><g opacity="0.1" transform="translate(1 1)" fill="#fff" fill-rule="evenodd"><path d="m 12 12 c 0 8.08 0 16.898 0 24 l 24 0 c 0 -24 0 -14.242 0 -24 m -24 0"/><path d="m 13 31 c 0 1.348 0 2.816 0 4 l 22 0 c 0 -4 0 -2.375 0 -4 m -22 0"/><path d="m 15.621 13.426 c 0 5.383 0 11.266 0 16 l 16.754 0 c 0 -16 0 -9.5 0 -16 m -16.754 0"/><path d="m 12,12 0,18 24,0 0,-18 M 18.406,15 24,19.406 29.594,15 c 0,4.215 -1.043,5.699 -2.656,6.719 l 2.719,2.125 c 0.547,0.352 0.977,0.852 1.188,1.469 l 0.156,0.188 -0.125,-0.031 c 0.043,0.23 0.125,0.469 0.125,0.719 0,1.547 -1.266,2.816 -2.813,2.816 -1.547,0 -2.781,-1.266 -2.781,-2.816 0,-0.621 0.188,-1.16 0.531,-1.625 -0.672,-0.543 -1.305,-0.93 -1.938,-1.281 -0.629,0.355 -1.262,0.738 -1.938,1.281 0.344,0.465 0.531,1 0.531,1.625 0,1.547 -1.234,2.816 -2.781,2.816 -1.547,0 -2.813,-1.266 -2.813,-2.816 0,-0.25 0.063,-0.488 0.125,-0.719 l -0.125,0.031 0.156,-0.188 c 0.207,-0.617 0.641,-1.117 1.188,-1.469 l 2.719,-2.125 C 19.449,20.699 18.406,19.215 18.406,15 m 1.406,9.813 c -0.77,0 -1.406,0.605 -1.406,1.375 0,0.77 0.637,1.406 1.406,1.406 0.77,0 1.375,-0.637 1.375,-1.406 0,-0.77 -0.605,-1.375 -1.375,-1.375 m 8.375,0 c -0.77,0 -1.375,0.605 -1.375,1.375 0,0.77 0.605,1.406 1.375,1.406 0.77,0 1.406,-0.637 1.406,-1.406 0,-0.77 -0.637,-1.375 -1.406,-1.375 m 0,0"/><path d="m 13 31.996 c 0 0.336 0 0.707 0 1 l 22 0 c 0 -1 0 -0.598 0 -1 m -22 0"/><path d="m 13 34 c 0 0.34 0 0.707 0 1 l 22 0 c 0 -1 0 -0.594 0 -1 m -22 0"/></g></g><g clip-path="url(#0)" transform="matrix(3.25476 0 0 3.1378 -13.01 -9.508)"><g><g fill-rule="evenodd"><path d="m 12 12 c 0 8.08 0 16.898 0 24 l 24 0 c 0 -24 0 -14.242 0 -24 m -24 0" fill="#c00"/><path d="m 13 31 c 0 1.348 0 2.816 0 4 l 22 0 c 0 -4 0 -2.375 0 -4 m -22 0" fill="#f9f9f9"/><path d="m 15.621 13.426 c 0 5.383 0 11.266 0 16 l 16.754 0 c 0 -16 0 -9.5 0 -16 m -16.754 0" fill="#ffe57f"/><path d="m 12,12 0,18 24,0 0,-18 M 18.406,15 24,19.406 29.594,15 c 0,4.215 -1.043,5.699 -2.656,6.719 l 2.719,2.125 c 0.547,0.352 0.977,0.852 1.188,1.469 l 0.156,0.188 -0.125,-0.031 c 0.043,0.23 0.125,0.469 0.125,0.719 0,1.547 -1.266,2.816 -2.813,2.816 -1.547,0 -2.781,-1.266 -2.781,-2.816 0,-0.621 0.188,-1.16 0.531,-1.625 -0.672,-0.543 -1.305,-0.93 -1.938,-1.281 -0.629,0.355 -1.262,0.738 -1.938,1.281 0.344,0.465 0.531,1 0.531,1.625 0,1.547 -1.234,2.816 -2.781,2.816 -1.547,0 -2.813,-1.266 -2.813,-2.816 0,-0.25 0.063,-0.488 0.125,-0.719 l -0.125,0.031 0.156,-0.188 c 0.207,-0.617 0.641,-1.117 1.188,-1.469 l 2.719,-2.125 C 19.449,20.699 18.406,19.215 18.406,15 m 1.406,9.813 c -0.77,0 -1.406,0.605 -1.406,1.375 0,0.77 0.637,1.406 1.406,1.406 0.77,0 1.375,-0.637 1.375,-1.406 0,-0.77 -0.605,-1.375 -1.375,-1.375 m 8.375,0 c -0.77,0 -1.375,0.605 -1.375,1.375 0,0.77 0.605,1.406 1.375,1.406 0.77,0 1.406,-0.637 1.406,-1.406 0,-0.77 -0.637,-1.375 -1.406,-1.375 m 0,0" fill="#ff4500"/><g fill="#e5e5e5"><path d="m 13 31.996 c 0 0.336 0 0.707 0 1 l 22 0 c 0 -1 0 -0.598 0 -1 m -22 0"/><path d="m 13 34 c 0 0.34 0 0.707 0 1 l 22 0 c 0 -1 0 -0.594 0 -1 m -22 0"/></g></g><g fill="#ffdead" stroke="#ff4500" stroke-width="0.335" transform="matrix(0.21222 0 0 0.19956 -2.985 -0.676)"><path d="m 103.59 147.88 c -3.631 -1.261 -6.799 -4.342 -8.253 -8.02 -0.608 -1.541 -0.763 -2.6 -0.77 -5.279 -0.009 -3.21 0.044 -3.458 1.252 -5.892 0.694 -1.398 1.821 -3.069 2.506 -3.714 0.944 -0.89 8.193 -6.917 15.15 -12.598 0.092 -0.075 -0.285 -0.451 -0.838 -0.836 -1.953 -1.359 -5.418 -5.138 -6.665 -7.269 -1.665 -2.844 -2.788 -5.876 -3.545 -9.571 -0.85 -4.15 -1.422 -9.882 -1.292 -12.952 l 0.109 -2.563 12.959 10.848 12.959 10.848 13.01 -10.907 c 15 -12.576 13.475 -12.1 12.858 -4.03 -0.953 12.453 -3.983 19.837 -10.09 24.577 -1.103 0.857 -1.964 1.671 -1.914 1.809 0.05 0.138 3.03 2.681 6.627 5.651 3.594 2.97 7.232 6.081 8.08 6.913 8.805 8.603 2.385 24.288 -9.625 23.517 -3.26 -0.209 -6.188 -1.622 -8.374 -4.04 -2.01 -2.229 -3.038 -4.461 -3.547 -7.74 -0.475 -3.053 -0.161 -5.09 1.276 -8.292 l 0.916 -2.042 -0.816 -0.628 c -2.12 -1.633 -5.977 -4.316 -7.188 -5 l -1.346 -0.76 -2.01 1.276 c -1.103 0.702 -3.174 2.161 -4.601 3.244 l -2.596 1.968 0.802 1.583 c 2.245 4.43 2.12 9.868 -0.322 14.03 -3.047 5.199 -9.384 7.724 -14.726 5.868 z m 5.973 -6.411 c 1.3 -0.494 3.225 -2.354 3.803 -3.674 0.291 -0.664 0.538 -2.14 0.55 -3.279 0.017 -1.733 -0.142 -2.334 -0.976 -3.682 -1.449 -2.344 -3.07 -3.182 -5.897 -3.047 -1.904 0.091 -2.436 0.26 -3.519 1.122 -2.96 2.355 -3.63 6.429 -1.597 9.712 1.615 2.607 4.974 3.861 7.635 2.849 l 0 0 z m 39.698 -0.207 c 2.838 -1.184 4.687 -4.339 4.341 -7.407 -0.244 -2.162 -1.785 -4.479 -3.602 -5.416 -2.198 -1.133 -5.172 -0.929 -6.937 0.475 -1.955 1.555 -2.845 3.548 -2.701 6.05 0.287 4.965 4.668 8.07 8.899 6.302 z"/><path d="m 75.28 166.24 0 -2.346 51.776 0 51.776 0 0 2.346 0 2.346 -51.776 0 -51.776 0 0 -2.346 z"/><path d="m 75.28 176.3 0 -2.346 51.776 0 51.776 0 0 2.346 0 2.346 -51.776 0 -51.776 0 0 -2.346 z"/></g></g></g></g></g></svg>