<svg xmlns="http://www.w3.org/2000/svg" xmlns:xlink="http://www.w3.org/1999/xlink" viewBox="0 0 256 256"><defs><path id="0" d="m 148.89 71.21 a 14.359 13.734 0 1 1 -28.717 0 14.359 13.734 0 1 1 28.717 0 z" style="fill-rule:evenodd"/></defs><g transform="translate(0 -796.36)" style="color:#000"><path d="m 52.774 1027.39 c 192.46 127.95 311 -280.09 62.2 -226.07 -102.82 23.02 -165.22 167.39 -62.2 226.07 z" style="fill:#fff"/><path d="m 117.35 930.35 c 7.199 0.799 13.952 3.949 18.398 8.581 4.444 4.632 6.526 10.691 5.672 16.502 0.737 -4.12 3.084 -8.04 6.627 -11.07 3.542 -3.03 8.263 -5.152 13.323 -5.99 8.164 -1.352 17.09 0.805 22.989 5.553 5.893 4.748 8.572 11.944 6.893 18.522 -2.443 12.262 -10.489 23.747 -22.255 31.769 -14.07 9.585 -33.13 14.02 -51.48 12.683 -18.345 -1.335 -35.829 -8.258 -49.04 -18.607 -8.06 -6.315 -14.751 -14.177 -16.68 -23.1 -0.965 -4.462 -0.695 -9.125 1.097 -13.417 1.791 -4.292 5.142 -8.194 9.694 -10.85 3.957 -2.309 8.777 -3.645 13.659 -3.784 4.882 -0.139 9.809 0.917 13.958 2.995 2.916 -3.489 7.07 -6.306 11.832 -8.02 4.767 -1.72 10.137 -2.338 15.312 -1.764 z" style="fill:#ff4500"/><g style="fill:#ececec;stroke:#ececec"><use transform="matrix(1.34561 0 0 1.40677 -73.884 782.32)" xlink:href="#0" style="fill:#ff4500"/><use transform="matrix(0.9046 0 0 0.95708 -58.65 844.09)" xlink:href="#0" style="fill:#ffdead;stroke:#ffdead"/></g><use transform="matrix(1.71241 0 0 1.82433 -65.08 720.22)" xlink:href="#0" style="fill:#ffa07a;stroke:#ffa07a"/></g></svg>