<svg xmlns="http://www.w3.org/2000/svg" viewBox="0 0 256 256"><defs><linearGradient gradientUnits="userSpaceOnUse" y2="37" x2="37" y1="20" x1="20" id="0"><stop style="stop-opacity:0.118"/><stop offset="1" style="stop-opacity:0.039"/></linearGradient><linearGradient gradientTransform="matrix(0.70692 -0.70724 0.70692 0.70724 -6.865 21.416)" y2="40" x2="0" y1="18" gradientUnits="userSpaceOnUse" id="1"><stop style="stop-color:#e30909"/><stop offset="1" style="stop-color:#f61c1c;stop-opacity:0.235"/></linearGradient></defs><g transform="translate(0 -796.36)"><path d="m 203.23 1027.39 c -192.46 127.95 -311 -280.09 -62.2 -226.07 c 102.82 23.02 165.22 167.39 62.2 226.07 z" style="fill:#fff;color:#000"/><g transform="matrix(4.64061 0 0 4.89866 16.413 809.06)"><path d="m 27.406 17.03 c 1.156 2.884 0.585 6.289 -1.75 8.625 -2.343 2.344 -5.768 2.922 -8.656 1.75 0.634 0.414 1.215 0.807 2.063 1.344 2.632 0.653 5.536 -0.035 7.594 -2.094 2.05 -2.051 2.734 -4.937 2.094 -7.563 -0.735 -1.162 -0.86 -1.319 -1.344 -2.063 z" style="fill-opacity:0.098"/><path d="m 21 13 c -2.047 0 -4.095 0.781 -5.656 2.344 -3.123 3.125 -3.123 8.188 0 11.313 0 0 18.4 12.744 21.25 9.938 2.85 -2.807 -9.938 -21.25 -9.938 -21.25 c -1.562 -1.562 -3.609 -2.344 -5.656 -2.344 z" style="fill:url(#0)"/><path d="m 35.586 35.596 c -2.85 2.807 -21.243 -9.946 -21.243 -9.946 l 11.307 -11.306 c 0 0 12.785 18.446 9.936 21.253 z" style="fill:url(#1)"/><path d="m 25.379 12.832 c 3.488 3.471 3.488 9.1 0 12.569 -3.488 3.471 -9.144 3.471 -12.633 0 -3.488 -3.471 -3.488 -9.1 0 -12.569 3.488 -3.471 9.144 -3.471 12.633 0 z" style="fill:#ff4500;stroke-width:1.143"/></g></g></svg>