<svg xmlns="http://www.w3.org/2000/svg" xmlns:xlink="http://www.w3.org/1999/xlink" viewBox="0 0 256 256"><g transform="translate(0 -796.36)"><path d="m 218.87 841.2 c -266.38 -201.82 -304.22 353.59 -32.31 175.35 61.991 -40.634 102.86 -121.89 32.31 -175.35 z" fill="#fff" color="#fff"/><g transform="matrix(4.58061 0 0 4.42399 4.356 818.54)" fill="#fa8072"><path d="m 10 25 c 0 -15 10 -15 30 -15 l 0 5 c -17 0 -24 0 -25.15 10 z" opacity="0.8" id="0"/><path d="m 40 23 c 0 15 -10 15 -30 15 l 0 -5 c 17 0 24 0 25.15 -10 z" opacity="0.8" id="1"/></g><g transform="matrix(4.58061 0 0 4.42399 6.848 811.06)" fill="#ff4500"><use xlink:href="#0"/><use xlink:href="#1"/></g></g></svg>