<svg xmlns="http://www.w3.org/2000/svg" viewBox="0 0 256 256"><g transform="translate(0 -796.36)"><path d="m -1374.42 1658.71 c 127.95 -192.46 -280.09 -311 -226.07 -62.2 23.02 102.82 167.39 165.22 226.07 62.2 z" transform="matrix(0 1 -1 0 1711.48 2401.81)" style="fill:#fff;color:#000"/><g style="fill-rule:evenodd"><path d="m 127.93 854.46 c -18.16 -7.345 -37.96 0.249 -44.39 17.03 l -8.32 21.721 l -7.494 -3.03 l -26.297 68.65 l 84.45 34.15 l 26.297 -68.65 l -6.936 -2.805 l 8.32 -21.721 c 6.427 -16.78 -3.02 -36.2 -21.18 -43.547 z m -3.906 13.735 l 2.702 1.093 c 11.04 4.463 16.02 18.18 11.22 30.769 l -6.114 16.05 l -42.542 -17.204 l 6.114 -16.05 c 4.798 -12.592 17.585 -19.12 28.62 -14.658 z m -19.786 57.18 c 5.114 2.277 7.711 7.868 5.882 12.662 -1.225 3.183 -4.194 5.379 -7.79 5.762 l -1.133 10.933 c -2.215 -0.07 -4.436 -0.517 -6.589 -1.388 l -2.702 -1.093 c -2.153 -0.871 -4.071 -2.098 -5.735 -3.596 l 6.41 -8.881 c -2.298 -2.786 -2.972 -6.411 -1.776 -9.549 1.804 -4.705 7.255 -7 12.453 -5.243 l 0.981 0.393 z" style="fill:#ffdead"/><path d="m 130.17 853.25 c -19.56 5.05 -31.569 22.948 -26.926 40.14 l 6.01 22.25 l -8.07 2.083 l 18.998 70.32 l 90.95 -23.47 l -18.998 -70.32 l -7.47 1.928 l -6.01 -22.25 c -4.643 -17.188 -24.13 -26.961 -43.689 -21.913 z m 4.933 13.257 l 2.91 -0.751 c 11.884 -3.067 24.23 4.847 27.737 17.731 l 4.468 16.418 l -45.813 11.823 l -4.468 -16.418 c -3.506 -12.883 3.282 -25.736 15.166 -28.802 z m 17.592 57.3 c 5.632 -1.255 11.138 1.632 12.471 6.538 0.876 3.264 -0.294 6.789 -3.071 9.248 l 5.578 9.368 c -1.892 1.271 -4.01 2.247 -6.334 2.846 l -2.91 0.751 c -2.319 0.598 -4.654 0.772 -6.938 0.579 l 0.056 -10.9 c -3.583 -0.837 -6.31 -3.314 -7.183 -6.525 -1.301 -4.821 1.884 -9.912 7.276 -11.631 l 1.054 -0.276 z" style="fill:#ff4500"/></g></g></svg>