<svg xmlns="http://www.w3.org/2000/svg" xmlns:xlink="http://www.w3.org/1999/xlink" viewBox="0 0 256 256"><defs><clipPath><path transform="matrix(15.33333 0 0 11.5 415 -125.5)" d="m -24 13 c 0 1.105 -0.672 2 -1.5 2 -0.828 0 -1.5 -0.895 -1.5 -2 0 -1.105 0.672 -2 1.5 -2 0.828 0 1.5 0.895 1.5 2 z"/></clipPath><linearGradient gradientUnits="userSpaceOnUse" y2="31.375" x2="50.636" y1="33.699" x1="44.15" id="H" xlink:href="#1"/><linearGradient gradientUnits="userSpaceOnUse" y2="24.587" x2="86.35" y1="14.924" x1="48.68" id="I" xlink:href="#1"/><linearGradient gradientUnits="userSpaceOnUse" y2="37.37" x2="56.39" y1="36.634" x1="52.1" id="G" xlink:href="#1"/><linearGradient gradientUnits="userSpaceOnUse" y2="40.915" x2="68.25" y1="35.533" x1="65.803" id="E" xlink:href="#1"/><linearGradient gradientUnits="userSpaceOnUse" x2="67.52" x1="51" id="F" xlink:href="#1"/><linearGradient gradientUnits="userSpaceOnUse" y2="20.489" x2="88.23" y1="33.13" x1="61.44" id="J" xlink:href="#1"/><linearGradient gradientUnits="userSpaceOnUse" y2="80.995" x2="50.25" y1="81.946" x1="45.06" id="O" xlink:href="#1"/><linearGradient gradientUnits="userSpaceOnUse" y2="28.623" x2="83.54" y1="37" x1="68.74" id="D" xlink:href="#1"/><linearGradient gradientUnits="userSpaceOnUse" y2="83.24" x2="58.811" y1="84.45" x1="51.37" id="N" xlink:href="#1"/><linearGradient gradientUnits="userSpaceOnUse" y2="76.28" x2="91.85" y1="81.56" x1="89.08" id="L" xlink:href="#1"/><linearGradient gradientUnits="userSpaceOnUse" y2="79.914" x2="87.01" y1="86.31" x1="80.951" id="K" xlink:href="#1"/><linearGradient gradientUnits="userSpaceOnUse" y2="82.34" x2="90.64" y1="87.01" x1="85.79" id="M" xlink:href="#1"/><linearGradient gradientUnits="userSpaceOnUse" y2="31.25" x2="92.1" y1="35.17" x1="86.23" id="C" xlink:href="#1"/><linearGradient gradientUnits="userSpaceOnUse" y2="23.486" x2="41.586" y1="19.2" x1="38.41" id="4" xlink:href="#1"/><linearGradient gradientUnits="userSpaceOnUse" y2="85.36" x2="54.23" y1="86.23" x1="46.876" id="P" xlink:href="#1"/><linearGradient gradientUnits="userSpaceOnUse" y2="26.605" x2="42.32" y1="29.17" x1="36.815" id="3" xlink:href="#1"/><linearGradient id="1"><stop style="stop-color:#e30000"/><stop offset="1" style="stop-color:#ff1717"/></linearGradient><linearGradient gradientUnits="userSpaceOnUse" y2="105.07" x2="87.94" y1="58.34" x1="45.499" id="0" xlink:href="#1"/><linearGradient gradientUnits="userSpaceOnUse" y2="54.4" x2="101.85" y1="46.03" x1="70.884" id="2" xlink:href="#1"/><linearGradient gradientUnits="userSpaceOnUse" y2="10.949" x2="50.15" y1="17.431" x1="38.528" id="5" xlink:href="#1"/><linearGradient gradientUnits="userSpaceOnUse" y2="29.785" x2="93.69" y1="25.14" x1="88.19" id="B" xlink:href="#1"/><linearGradient gradientUnits="userSpaceOnUse" y2="14.863" x2="58.1" y1="19.266" x1="54.55" id="6" xlink:href="#1"/><linearGradient gradientUnits="userSpaceOnUse" y2="16.269" x2="92.34" y1="20.795" x1="86.6" id="A" xlink:href="#1"/><linearGradient gradientUnits="userSpaceOnUse" y2="7.952" x2="72.41" y1="12.233" x1="62.01" id="8" xlink:href="#1"/><linearGradient gradientUnits="userSpaceOnUse" y2="14.313" x2="61.16" y1="9.42" x1="58.59" id="7" xlink:href="#1"/><linearGradient gradientUnits="userSpaceOnUse" x2="81.7" x1="75.71" id="9" xlink:href="#1"/></defs><path d="m 291.82 921.19 c 200.11 265.25 -350.59 302.94 -173.86 32.17 40.29 -61.728 120.86 -102.43 173.86 -32.17 z" transform="translate(-80.27 -882.59)" style="fill:#fff;color:#000"/><g transform="matrix(-1.40789 0 0 1.16189 221.13 65.05)" style="fill-rule:evenodd"><path d="m 33.11,58.34 -4.916,67.6 73.44,1.69 -2.919,-31.649 -4.302,-38.41 -5.992,3.38 -9.06,3.38 L 68.146,65.56 57.699,65.253 44.486,63.102 33.117,58.339 z" style="fill:url(#0)"/><path d="m 25.579,30.536 0.154,20.13 4.609,5.838 7.07,4.302 12.905,3.841 13.213,1.383 15.21,-1.383 13.213,-5.224 8.296,-8.143 -0.307,-19.972 -1.383,3.687 -4.609,4.763 -3.841,2.919 -0.922,-8.757 -14.288,3.994 -8.757,0.615 -0.768,9.372 -8.604,-0.307 -7.682,-1.075 -4.763,-1.69 -0.154,-7.835 -6.606,-1.844 -5.377,-2.612 -3.687,-4.455 -1.075,4.916 -1.844,-2.458 z" style="fill:url(#2)"/><path d="m 27.423,21.933 7.221,2.151 v 2.305 l -5.992,1.383 -1.229,5.531 -1.383,-3.534 0.615,-5.531 0.768,-2.305 z" style="fill:url(#3)"/><path d="m 27.73,21.472 -0.768,-8.143 7.528,2.919 0.461,7.989 -7.221,-2.765 z" style="fill:url(#4)"/><path d="m 27.12,12.869 3.226,-3.073 4.302,-2.765 3.994,-2.151 3.687,-1.69 5.07,5.992 -5.531,1.844 -4.302,2.765 -2.919,2.919 -7.528,-3.841 z" style="fill:url(#5)"/><path d="m 48.01,10.871 3.073,-0.615 3.38,-0.922 4.609,4.763 -3.38,0.615 -1.997,0.922 -2.612,0.461 H 48.471 L 48.01,10.871 z" style="fill:url(#6)"/><path d="m 54.616,9.489 -0.461,-8.604 4.455,5.992 0.461,7.07 -4.455,-4.455 z" style="fill:url(#7)"/><path d="m 55.38,1.039 5.07,-0.307 5.224,-0.154 6.914,0.922 3.38,6.606 -8.143,-1.69 H 63.062 L 58.453,6.877 54.459,1.346 55.381,1.039 z" style="fill:url(#8)"/><path d="m 75.66,8.567 0.154,5.224 1.844,0.307 5.531,2.919 L 83.035,13.483 80.73,12.1 78.118,10.564 75.967,10.718 75.66,8.567 z" style="fill:url(#9)"/><path d="m 82.88,8.72 5.838,-2.305 5.07,3.38 2.765,2.919 1.997,4.148 0.922,4.916 -9.525,1.075 0.461,-2.765 L 89.793,16.094 87.028,12.407 82.88,8.72 z" style="fill:url(#A)"/><path d="m 89.95,22.855 -0.461,6.606 9.986,1.383 -0.154,-8.911 -9.372,0.922 z" style="fill:url(#B)"/><path d="m 89.8,29.461 -1.69,2.765 1.229,1.844 0.615,8.604 2.305,-1.844 4.916,-3.534 2.305,-3.687 0.265,-2.919 -9.944,-1.229 z" style="fill:url(#C)"/><path d="m 85.34,25.927 c 0.615,1.383 3.994,7.835 3.994,7.835 l -5.684,1.844 -11.676,2.612 -6.145,0.154 -1.844,-6.76 h 5.07 l 6.299,-1.69 4.455,-1.229 4.763,-1.997 0.768,-0.768 z" style="fill:url(#D)"/><path d="m 66.29,37.911 -1.075,9.833 -1.997,-6.299 0.768,-9.679 2.305,6.145 z" style="fill:url(#E)"/><path d="m 63.07,42.06 -4.609,-0.307 -5.224,-1.075 -0.768,-0.307 -7.835,4.455 1.075,1.075 4.148,0.768 8.604,1.075 6.914,0.154 -2.305,-5.838 z" style="fill:url(#F)"/><path d="m 51.697,32.534 0.615,8.143 -7.682,4.455 -0.154,-5.07 v -3.073 l 7.221,-4.455 z" style="fill:url(#G)"/><path d="M 51.39,32.995 45.398,31.151 40.482,29 l -4.609,-3.534 -7.374,2.151 1.229,2.458 3.073,2.612 5.684,2.765 6.145,1.69 6.76,-4.148 z" style="fill:url(#H)"/><path d="m 39.714,27.617 4.148,-3.687 7.528,-3.534 7.07,-2.151 5.684,-0.768 6.914,0.615 5.531,0.922 7.835,3.841 5.377,5.684 -1.075,3.226 1.383,-4.763 v -4.763 l 0.615,-3.073 -2.458,-5.531 -5.377,-4.916 0.154,4.302 0.307,3.687 -5.07,-2.612 -2.458,-0.307 0.154,-5.684 -7.528,-1.383 -4.302,-0.307 -5.684,0.307 0.768,7.835 -4.609,1.075 -5.224,0.768 -1.075,-0.154 -0.615,-7.07 -5.684,1.69 -5.224,3.534 -2.919,3.073 1.075,7.682 1.536,0.768 3.226,1.69 z" style="fill:url(#I)"/><path d="m 39.714,27.925 2.919,-2.919 8.604,-4.781 10.897,-2.593 8,0.154 10.293,3.073 4.302,2.305 5.224,5.07 -0.922,3.841 -3.38,-6.145 -5.07,2.612 -6.453,1.997 -5.07,1.075 H 63.834 L 63.219,42.061 58.456,41.907 52.464,40.371 51.542,32.997 47.24,31.614 41.248,29.309 39.712,27.926 z" style="fill:url(#J)"/><g style="fill-opacity:0.157"><path d="m 27.73,21.472 -0.768,-8.143 7.528,2.919 0.461,7.989 -7.221,-2.765 z"/><path d="m 54.616,9.489 -0.461,-8.604 4.455,5.992 0.461,7.07 -4.455,-4.455 z"/><path d="m 89.95,22.855 -0.461,6.606 9.986,1.383 -0.154,-8.911 -9.372,0.922 z"/><path d="m 66.29,37.911 -1.075,9.833 -1.997,-6.299 0.768,-9.679 2.305,6.145 z"/><path d="m 39.714,27.617 4.148,-3.687 7.528,-3.534 7.07,-2.151 5.684,-0.768 6.914,0.615 5.531,0.922 7.724,4.063 5.488,5.462 -1.075,3.226 1.383,-4.763 v -4.763 l 0.615,-3.073 -2.458,-5.531 -5.377,-4.916 0.154,4.302 0.307,3.687 -5.07,-2.612 -2.458,-0.307 0.154,-5.684 -7.528,-1.383 -4.302,-0.307 -5.684,0.307 0.768,7.835 -4.609,1.075 -5.224,0.768 -1.075,-0.154 -0.615,-7.07 -5.684,1.69 -5.224,3.534 -2.919,3.073 1.075,7.682 1.536,0.768 3.226,1.69 z"/></g><path d="m 89.74,91.62 -5.649,3.15 -3.585,1.304 1.195,4.237 1.955,-0.326 4.237,-2.39 3.694,-2.499 -1.847,-3.476 z" style="fill:url(#K)"/><path d="m 89.63,91.19 4.02,-3.042 2.607,-1.521 1.086,5.323 -2.281,2.39 -2.933,0.76 -2.499,-3.911 z" style="fill:url(#L)"/><path d="m 91.81,94.99 -4.889,3.259 0.76,3.585 2.607,-0.543 4.671,-2.173 0.869,-1.086 -0.869,-3.802 -3.15,0.76 z" style="fill:url(#M)"/><path d="m 54.44,95.86 -7.06,-1.955 -2.716,-0.978 -1.086,4.671 4.128,1.195 c 0,0 2.933,0.869 3.368,0.869 0.435,0 3.15,0.326 3.15,0.326 l 0.217,-4.128 z" style="fill:url(#N)"/><path d="m 45.31,92.71 c -0.435,0 -4.237,-0.978 -4.237,-0.978 l -2.39,-1.304 -2.499,-0.978 -0.217,5.215 2.607,2.173 5.106,0.978 1.63,-5.106 z" style="fill:url(#O)"/><path d="m 39.771,97.05 -0.326,3.585 3.911,1.63 5.323,1.086 L 48.57,99.114 44.659,97.81 39.77,97.05 z" style="fill:url(#P)"/><g style="fill:#fe0808"><path d="m 93.64,87.84 -2.612,2.919 -1.075,0.154 -2.305,1.383 -3.994,1.997 -1.229,-10.754 0.922,-3.534 2.612,-4.763 5.07,1.075 1.075,1.383 1.536,10.14 z"/><path d="m 51.697,94.76 -6.145,-1.844 -2.151,-0.615 -3.841,-1.997 0.461,-9.986 2.458,-2.458 1.383,-1.075 h 2.151 l 3.687,2.305 1.69,4.302 0.307,11.369 z"/></g><path d="m 51.697,94.76 -6.145,-1.844 -2.151,-0.615 -3.841,-1.997 0.461,-9.986 2.458,-2.458 1.383,-1.075 h 2.151 l 3.687,2.305 1.69,4.302 0.307,11.369 z" style="fill-opacity:0.157"/><path d="m 102.01,127.36 -1.295,-0.196 C 99.333,104.205 96.791,81.3 93.963,58.554 c -9.118,6.04 -20.307,7.485 -31.05,7.419 -10.115,-0.456 -20.558,-1.769 -29.479,-6.909 -2.2,21.881 -3.608,44.29 -4.553,67.01 -0.504,0.079 -1.256,0.157 -1.256,0.157 l 4.593,-67.908 c -2.64,-1.939 -5.291,-4.01 -6.712,-7.03 C 24.9,41.568 24.07,31.003 26.723,21.539 L 26.134,13.335 C 32.382,6.398 37.47,5.46 42.264,2.972 l 6.32,5.849 0.079,1.766 c 1.735,-0.527 3.814,-0.401 5.378,-1.335 L 53.57,0.656 c 3.132,-0.128 6.282,-0.293 9.421,-0.314 3.139,-0.021 6.267,0.101 9.382,0.589 l 3.768,7.105 0.039,2.355 c 3.01,-0.977 4.199,1.25 6.084,2.237 l 0.079,-4.122 6.712,-2.355 c 2.424,1.846 4.832,2.725 7.458,6.281 2.057,3.113 3.21,6.646 3.297,10.05 0.17,9.604 0.748,17.984 0.51,28.812 -1.137,2.462 -2.934,4.59 -5.181,6.398 l 6.869,69.67 z M 63.97,0.96 c 2.745,-0.019 5.472,0.224 8.09,0.824 l 2.826,5.495 C 70.016,6.322 64.386,4.904 58.086,6.533 L 55.849,1.783 C 58.468,1.26 61.23,0.978 63.974,0.959 z m -9.382,0.746 2.865,4.75 0.903,6.241 -3.415,-3.611 -0.353,-7.38 z m -12.561,2.08 4.436,4.907 C 41.755,10 37.858,11.38 34.609,16.033 l -6.477,-3.18 c 3.404,-4.252 8.42,-6.892 13.896,-9.07 z m 21.393,3.14 c 0.508,-0.02 1,-0.009 1.492,0 3.524,0.067 6.702,0.864 10.05,1.492 l 0.51,5.299 c 2.889,0.974 5.807,1.873 8.09,4.475 L 82.973,9.556 c 2.66,1.857 4.922,4.352 6.01,6.359 1.167,2.161 1.405,4.375 0.628,6.83 l -0.196,4.907 C 82.166,19.082 71.575,16.381 60.839,17.642 53.03,18.936 44.719,21.419 39.093,27.298 L 35.482,25.061 35.246,24.237 35.01,17.603 c 2.892,-4.757 7.318,-6.469 12.404,-7.929 l 0.746,6.673 c 2.361,0.076 4.96,0.152 11.187,-1.845 L 58.601,7.633 C 60.3,7.208 61.906,6.987 63.429,6.926 z m 25.436,0 c 2.442,1.783 5.214,3.494 7.03,5.652 1.779,2.119 3.101,5.527 3.14,9.146 l -8.125,0.51 c 0.544,-2.419 0.102,-4.521 -1.06,-6.673 C 88.683,13.416 86.177,10.898 83.6,9.045 l 5.26,-2.12 z m -34.464,2.551 3.337,4.318 c -2.42,0.965 -5.703,2.554 -8.753,2.237 l -0.353,-4.789 c 2.092,0.074 3.988,-0.682 5.77,-1.766 z m 22.492,1.649 c 2.671,-0.154 4.433,1.829 5.378,2.826 l -0.039,1.766 c -1.687,-1.136 -3.932,-1.833 -5.966,-2.355 l -0.039,-2.159 c 0.231,-0.043 0.449,-0.066 0.667,-0.079 z m -49.3,2.905 6.163,2.983 0.196,6.32 C 32.076,22.952 30.297,22.79 27.933,21.175 L 27.58,14.031 z m 36.03,3.925 c 7.296,-0.164 21.817,2.549 25.75,11.148 0.06,0.983 -0.633,1.329 -1.217,1.963 l -2.708,-5.495 c -3.579,2.066 -7.387,3.415 -11.305,4.357 -0.016,-0.008 -1.787,-0.8 -2.512,-1.138 l 3.14,-2.394 c 0.81,0.477 2.551,1.492 2.551,1.492 l 0.236,-0.707 c 0,0 -0.971,-0.427 -2.355,-1.099 l 1.295,-1.021 -0.236,-0.432 -1.57,1.178 c -0.965,-0.477 -2.05,-1.024 -3.219,-1.688 0.391,-0.225 0.793,-0.456 1.178,-0.667 L 72.249,23.06 c -0.458,0.229 -0.921,0.462 -1.374,0.707 -1.142,-0.732 -2.208,-1.528 -3.297,-2.237 l 1.766,-0.981 -1.138,0.079 -1.099,0.589 C 66.145,20.634 65.13,20.15 63.967,19.922 l -0.393,0.236 c 0.947,0.454 1.863,0.952 2.787,1.452 l -4.71,2.473 c -1.49,-0.712 -2.747,-1.321 -3.297,-1.609 l -0.118,0.314 c 0.454,0.238 1.903,0.943 2.983,1.492 l -5.966,3.14 C 53.101,26.544 51.261,25.8 50.66,25.575 l -0.236,0.471 c 0.362,0.136 2.642,1.144 4.082,1.766 l -4.396,2.316 -2.748,-1.335 -0.314,0.353 2.551,1.256 -1.217,0.628 0.903,0.471 1.217,-0.667 5.456,2.669 c -0.532,0.352 -1.085,0.728 -1.609,1.06 l -0.079,0.471 c 0.708,-0.412 1.426,-0.841 2.159,-1.295 l 4.553,2.237 -1.06,0.785 0.589,0.51 1.217,-0.942 1.217,0.589 0.275,-0.432 -0.471,4.75 c -3.65,-0.022 -6.095,0.247 -10.09,-1.295 l -0.785,-7.733 c -5.063,-0.923 -9.73,-2.758 -12.168,-4.318 5.491,-5.541 13.781,-8.423 21.275,-9.696 0.696,-0.133 1.588,-0.212 2.63,-0.236 z m 3.297,3.925 c 1.225,0.674 2.438,1.387 3.651,2.08 -1.369,0.75 -2.717,1.55 -4.04,2.394 -1.45,-0.682 -2.906,-1.346 -4.2,-1.963 l 4.593,-2.512 z m -39.25,0.55 6.281,2.237 0.353,0.824 -5.927,2.08 -1.021,3.69 c -0.328,-2.213 -0.431,-6.611 0.314,-8.832 z m 71.52,0.039 0.039,7.733 -8.714,-1.335 0.275,-5.809 8.4,-0.589 z m -27.988,1.845 c 1.59,0.915 1.986,1.151 3.101,1.806 l -3.219,2.394 c -1.292,-0.603 -1.822,-0.873 -3.808,-1.806 1.33,-0.85 2.642,-1.648 3.925,-2.394 z m -9.303,0.314 c 1.626,0.824 2.22,1.123 4.122,2.08 -1.617,1.043 -3.194,2.101 -4.75,3.18 -0.596,-0.251 -0.949,-0.36 -1.649,-0.667 -1.227,-0.539 -2.339,-0.976 -3.494,-1.452 l 5.77,-3.14 z M 36.101,26.16 c 2.331,2.832 6.422,5.091 13.385,6.555 l -5.142,3.69 C 39.324,34.744 33.457,35.133 29.585,28.476 l 6.516,-2.316 z m 49.11,0.314 2.708,6.83 c -7.222,2.051 -14.06,4.942 -21.707,4.71 l -1.609,-5.849 c 6.243,-0.577 13.623,-2.02 20.608,-5.692 z m -18.488,0.589 c 1.682,0.846 2.652,1.343 3.729,1.884 l -3.02,2.237 c -0.771,0.109 -1.541,0.182 -2.316,0.275 -0.552,-0.204 -1.614,-0.63 -3.219,-1.295 1.604,-1.06 3.23,-2.072 4.828,-3.101 z m -11.344,1.099 c 1.532,0.665 2.221,0.961 3.965,1.727 0.467,0.205 0.811,0.341 1.217,0.51 -1.38,0.958 -2.748,1.854 -4.082,2.748 l -5.456,-2.591 4.357,-2.394 z m 15.623,1.06 c 0.489,0.246 1.808,0.904 1.963,0.981 -1.402,0.307 -2.814,0.562 -4.239,0.785 l 2.277,-1.766 z m -42.39,0.314 c 3.511,4.747 9.759,6.04 15.03,7.968 l 0.196,7.929 c 4.514,1.44 7.01,2.531 21.825,2.905 l 0.707,-9.03 c 8.11,0.191 15.17,-2.986 22.414,-4.985 l 0.903,8.793 c 4.134,-2.682 7.882,-5 10.01,-9.499 0.462,5.63 -0.13,11.408 -0.589,17.232 -7.487,12.11 -23.09,14.393 -36.07,14.563 C 50.348,64.758 34.645,62.357 26.768,51.045 26.206,43.985 25.099,36.848 26.532,31.654 l 1.06,2.551 1.021,-4.671 z m 61.941,0.275 8.871,1.413 c -0.715,4.831 -5.289,8.02 -8.989,10.677 L 89.571,34.05 88.747,32.205 c 1.114,-0.483 1.403,-1.355 1.806,-2.394 z m -29.361,0.824 c 1.236,0.501 2.02,0.821 2.63,1.021 -0.052,0.006 -0.105,-0.006 -0.157,0 l -0.236,2.473 -1.923,1.452 -4.553,-2.198 c 1.382,-0.868 2.809,-1.805 4.239,-2.748 z m 3.062,2.198 1.374,5.966 -0.628,7.772 -1.374,-5.064 0.628,-8.675 z m -13.11,0.275 0.628,6.948 -6.869,4.122 v -6.634 l 6.241,-4.436 z m 12.208,2 -0.118,1.256 -0.942,-0.432 1.06,-0.824 z M 52.361,40.76 c 4.219,1.604 6.911,1.692 10.598,1.727 l 0.864,4.671 c -6.327,0.275 -13.1,0.102 -18.881,-2.237 l 7.419,-4.161 z m 33.29,34.11 c -2.172,2.162 -3.071,5.493 -3.533,8.557 l 1.217,11.187 -2.826,1.335 0.981,4.671 c 1.949,-0.182 3.66,-0.931 5.26,-1.884 l 0.981,3.219 c -0.064,0.708 5.908,-1.274 8.636,-4 l -1.06,-3.729 2.237,-2.041 -1.335,-5.77 -2.512,1.57 -1.413,-11.501 C 90.247,75.16 88.025,74.873 85.65,74.875 z m -39.646,1.06 c -2.17,1.298 -3.293,-0.72 -6.595,4.161 L 38.978,90.375 C 38.055,89.986 37.126,89.574 36.23,89.119 l -0.55,5.692 c 1.156,0.906 0.903,1.465 3.768,2.394 l -0.314,3.611 c 2.772,1.336 5.943,2.274 9.656,2.669 l -0.079,-3.886 c 1.844,0.413 3.715,0.712 5.652,0.707 l 0.51,-4.867 C 53.877,95.315 52.891,95.151 51.929,94.968 L 51.772,82.446 c -0.941,-3.02 -3.179,-4.897 -5.77,-6.516 z m 42.16,0.157 c 1.488,0.018 1.634,0.565 2.983,1.256 l 1.806,10.834 c -1.01,1.027 -2.03,2.03 -3.651,2.237 L 88.165,76.087 z m -43.807,1.138 c 0.791,4.88 0.407,9.761 0.196,14.641 -1.725,0.191 -2.996,-0.754 -4.318,-1.57 l 0.432,-9.892 c 1.111,-1.299 1.996,-3.048 3.69,-3.18 z m 40.39,0.51 3.415,13.385 c -1.194,1.687 -2.702,1.799 -4.082,2.551 L 83.374,83.426 v -0.039 c -0.014,-2.414 0.151,-3.622 1.374,-5.652 z m -37.644,0.196 c 1.825,1.103 2.528,2.447 3.415,4.671 l 0.157,11.501 C 48.75,94.082 47.294,93.12 45.769,92.297 45.972,87.411 45.911,82.42 47.104,77.93 z m 48.87,9.07 0.864,4.907 c -0.632,0.929 -1.256,1.802 -2.237,2.08 -0.918,0.26 -1.943,0.441 -2.983,0.785 l -1.256,-3.219 c 1.254,-0.828 2.379,-1.802 3.297,-3.062 L 95.975,87 z m -59.15,2.865 c 1.944,0.941 4.702,2.822 6.948,3.14 0.12,0.045 0.233,0.113 0.353,0.157 l -0.589,4.2 c -2.208,-0.702 -5.208,-1.034 -7.262,-2.512 l 0.55,-4.985 z m 52.953,2.08 1.099,2.983 c -2.668,1.773 -5.81,4.603 -8.989,5.181 l -0.942,-3.808 c 2.673,-1.429 5.472,-1.991 8.165,-3.965 0.23,-0.127 0.444,-0.258 0.667,-0.393 z m -44.945,1.492 c 0.566,0.191 1.15,0.351 1.727,0.51 2.438,1.104 5.291,1.643 7.615,2 l -0.432,3.494 c -2.889,-0.126 -6.728,-1.13 -9.617,-1.923 l 0.707,-4.082 z m 49.93,1.295 0.432,2.512 c -0.805,1.802 -3.806,3.838 -7.105,4.239 L 87.225,98.422 C 88.646,97.528 90,96.518 91.386,95.557 l 0.079,-0.039 v 0.039 c 0.964,-0.365 2.114,-0.489 3.297,-0.824 z m -54.758,2.63 c 0.946,0.285 2.126,0.608 3.768,0.981 1.454,0.37 2.898,0.754 4.357,1.099 l 0.196,3.454 c -2.501,-0.394 -6.29,-1.33 -8.636,-2.394 l 0.314,-3.14 z"/></g></svg>