<svg xmlns="http://www.w3.org/2000/svg" viewBox="0 0 256 256"><defs><clipPath><path transform="matrix(15.33333 0 0 11.5 415 -125.5)" d="m -24 13 c 0 1.105 -0.672 2 -1.5 2 -0.828 0 -1.5 -0.895 -1.5 -2 0 -1.105 0.672 -2 1.5 -2 0.828 0 1.5 0.895 1.5 2 z" style="fill:#1890d0"/></clipPath></defs><g transform="translate(0 -796.36)"><path d="m 60.17 822.74 c 130.93 -92.05 263.6 77.948 156.91 186.39 -100.51 102.17 -256.68 7.449 -207.86 -119.69 10.185 -26.526 26.914 -49.802 50.948 -66.7 z" style="fill:#fff;color:#fff"/><g transform="matrix(3.6003 0 0 3.47459 43.24 -2641.82)" style="fill:#ff4500"><path d="m 23.869 1050.41 c -19.801 -14.03 -19.801 -26.21 -16.05 -39.663 l 16.05 -3.477 l 16.05 3.477 c 4.163 13.453 4.163 25.633 -16.05 39.663 z" style="fill-opacity:0.235"/><path d="m 23.877 1048.45 c -18.515 -13.12 -18.515 -24.507 -15.01 -37.09 l 15.01 -3.251 l 15.01 3.251 c 3.893 12.58 3.893 23.968 -15.01 37.09 z"/><path d="m 23.886 1047.05 c -17.229 -12.208 -17.229 -22.805 -13.964 -34.512 l 13.964 -3.03 l 13.964 3.03 c 3.622 11.706 3.622 22.304 -13.964 34.512 z"/><g style="fill-opacity:0.235"><path d="m 24 1020.44 c -3.868 0 -7 3.136 -7 7 0 3.867 3.136 7 7 7 3.868 0 7 -3.136 7 -7 0 -3.867 -3.136 -7 -7 -7 z m -1.085 10.235 l -3.222 -3.223 l 1.238 -1.238 l 1.984 1.985 l 4.209 -4.21 l 1.238 1.238 l -5.447 5.447 z"/><path d="m 24 1019.32 c -3.868 0 -7 3.136 -7 7 0 3.867 3.136 7 7 7 3.868 0 7 -3.136 7 -7 0 -3.867 -3.136 -7 -7 -7 z m -1.085 10.235 l -3.222 -3.223 l 1.238 -1.238 l 1.984 1.985 l 4.209 -4.21 l 1.238 1.238 l -5.447 5.447 z"/></g><path d="m 24 1019.88 c -3.868 0 -7 3.136 -7 7 0 3.868 3.136 7 7 7 3.868 0 7 -3.136 7 -7 0 -3.867 -3.136 -7 -7 -7 z m -1.085 10.235 l -3.222 -3.223 l 1.238 -1.238 l 1.984 1.985 l 4.209 -4.21 l 1.238 1.238 l -5.447 5.447 z" style="fill:#ffdead"/></g></g></svg>