<svg xmlns="http://www.w3.org/2000/svg" viewBox="0 0 256 256"><g transform="translate(0 -796.36)"><path d="m 3.74 950.97 c 19.829 131.87 217.21 135.83 247.04 7.636 30.702 -103.78 -80.47 -188.63 -163.63 -154.63 -55.684 16.07 -100.67 81.83 -83.41 146.99 z" style="fill:#fff;color:#000"/><g style="fill:#ff4500;fill-rule:evenodd"><path d="m 72.08 885.56 c 0 0 13.93 17.09 32.364 19.07 -5.4 7.82 -16.07 12.996 -26.391 6.02 -10.347 -6.997 -9.526 -15.336 -5.973 -25.09 z m 95.65 43.32 c 0 0 17.984 10.48 37.481 4.867 -2.544 9.194 -10.66 17.846 -22.526 15.728 -11.845 -2.114 -16.11 -6.789 -14.954 -20.595 z m 1.328 -9.206 c 0 0 10.484 9.299 39.24 5.04 1.01 -17.758 -0.37 -24.18 -15.12 -37.981 -14.748 -13.799 -71.3 -31.637 -89.75 -29.23 -18.446 2.41 -25.511 17.247 -25.511 17.247 6.451 17.758 30.434 20.17 30.434 20.17 0 0 5.764 -15.629 39.941 -1.39 34.37 14.319 20.766 26.14 20.766 26.14 z"/><path d="m 136.45 910.16 c 0 0 -16.336 7.283 -19.906 19.944 -6.304 -4.94 -9.77 -13.197 -2.637 -19.424 7.152 -6.244 14.367 -4.445 22.543 -0.52 z m -47.43 60.852 c 0 0 -10.96 11.1 -7.991 25.62 -7.791 -3.135 -14.552 -10.1 -11.517 -18.13 3.03 -8.01 7.544 -10.324 19.509 -7.488 z m 7.923 2.283 c 0 0 -9.181 6 -8.316 26.83 15.436 3.312 21.19 3.284 34.736 -5.056 13.542 -8.34 34.782 -45.46 34.51 -58.773 -0.271 -13.313 -12.549 -20.452 -12.549 -20.452 -16.18 1.93 -20.679 18.426 -20.679 18.426 0 0 13.1 6.34 -2.762 28.27 -15.951 22.05 -24.941 10.758 -24.941 10.758 z"/></g></g></svg>