<svg xmlns="http://www.w3.org/2000/svg" viewBox="0 0 256 256"><defs><filter id="0" style="color-interpolation-filters:sRGB"><feGaussianBlur stdDeviation="2.643"/></filter><filter height="1.3988" id="1" width="1.3281" x="-0.16410001" y="-0.19939999" style="color-interpolation-filters:sRGB"><feGaussianBlur stdDeviation="2.964"/></filter></defs><path d="m 22.010842 203.4688 c 48.541 88.14 200.629998 53.931 226.359998 -18.64 30.66 -86.449998 -49.14 -250.629998 -184.299998 -154.449998 -45.527 33.585 -90.6 84.948998 -42.05 173.089998 z" style="fill:#fff;color:#000"/><g transform="matrix(0.41067337 0 0 0.37957771 136.10527 119.85924)" style="fill:#ff4500"><path d="m 96.5375,215.4558 c -7.3642,0 -13.4375,6.042 -13.4375,13.4063 v 100.9688 c 0,7.3642 6.0733,13.4375 13.4375,13.4375 h 109.5937 c 7.3642,0 13.4063,-6.0733 13.4063,-13.4375 v -0.0937 -0.125 l -5.75,-100.75 v -0.2188 h -0.0312 c -0.122,-7.2619 -6.086,-13.1875 -13.375,-13.1875 H 96.5376 z" transform="matrix(2.16582 -0.33029 0.33029 2.16582 -433.17999 -520.5509)" style="filter:url(#0)"/><path d="m -156.09188,-103.35426 c -15.94953,2.43232 -27.10759,17.524158 -24.67523,33.473906 l 33.34898,218.680244 c 2.43232,15.94953 17.59195,27.09726 33.54148,24.66494 l 238.70459,-27.38372 c 15.94953,-2.43232 27.02968,-17.58164 24.59736,-33.53117 l -0.0309,-0.20294 -0.0413,-0.27073 -47.07433,-225.12121 -0.0723,-0.47389 -0.0676,0.0103 c -2.662768,-15.68767 -17.536885,-26.55161 -33.323547,-24.14412 l -224.906983,34.29857 -1.2e-4,-1e-4 z" style="stroke:#b3b3b3;stroke-width:2.19086003"/><path d="m -147.15808,-76.949811 c -6.98109,1.064624 -11.68698,7.38015 -10.62209,14.36297 l 16.74278,131.249155 c 0.17486,1.190243 1.93058,1.757333 2.76804,0.893845 70.736847,-71.7933877 155.347067,-102.336746 222.774128,-120.543214 0.818335,-0.217212 1.36688,-1.157201 1.153067,-1.976498 l -9.524759,-44.810421 -0.02064,-0.135364 -0.01031,-0.06757 -0.04129,-0.270728 C 74.995964,-105.23046 68.621517,-109.85622 61.640429,-108.7916 l -208.798689,31.842038 -2e-5,-1.08e-4 z"/><path d="m -155.84098,-102.99228 c -15.2209,3.141198 -19.50476,10.504893 -23.81347,22.071169 3.54966,-11.07798 10.53975,-17.764233 23.78048,-19.988459 L 66.636097,-134.8426 c 15.975522,-2.43629 31.04969,8.69167 33.764503,24.70029 l 0.0684,-0.0104 0.0723,0.47388 -0.0601,-2.69192 -0.0723,-0.47388 -0.0684,0.0104 c -2.666016,-15.68718 -17.695422,-26.52743 -33.671594,-24.09105 l -222.510066,33.93304 z" style="fill-opacity:0.74800002"/><g transform="matrix(1.3343565 0 0 1.4579678 44.92598 29.965625)" style="fill:#fff"><path d="m 151.0235,273.8145 h 26.6836 v 4.4473 h -26.6836 v -4.4473 z m -16.6712,-2.9034 v -7.2012 l 17.8632,-7.0231 -17.8632,-6.9468 v -7.1504 l 25.5988,11.0691 v 6.1071 l -25.5988,11.1454" transform="matrix(1.8831805 -0.28718716 0.30187845 1.9795162 -447.07908 -492.78564)" style="filter:url(#1)"/><path d="m -80.667425,4.9038756 50.24984,-7.6631573 1.34253,8.8034085 -50.24984,7.6631572 -1.34253,-8.8034084 z m -32.271135,-0.9597178 -2.1739,-14.2549938 31.519166,-19.03243 -35.736376,-8.621193 -2.15854,-14.154284 51.548328,14.55979 1.843579,12.088957 -44.842257,29.4141538"/></g><path d="m -156.72669,-101.85425 c -16.07843,2.521905 -27.32668,18.16965 -24.87466,34.706907 l 26.34869,227.875433 c 2.45197,16.53701 17.73412,28.09536 33.81255,25.57343 L 125.1082,147.63024 c 16.07844,-2.52192 27.24813,-18.22925 24.79615,-34.76626 l -0.0311,-0.21041 -0.0417,-0.2807 -46.09977,-224.27472 -0.0729,-0.49134 -0.0682,0.0107 c -2.68405,-16.26552 -17.678367,-27.52962 -33.59261,-25.03345 l -226.72462,35.56193 -1.2e-4,-1e-4 z m 2.66367,17.964782 226.724614,-35.561942 c 6.704126,-1.05155 12.581374,3.39339 13.60378,10.28895 l 0.04174,0.28068 0.03115,0.21042 46.168081,224.264 -0.0683,0.0107 c 1.02239,6.89531 -3.2889,13.01026 -9.99322,14.06184 l -246.5483,38.67133 c -6.70412,1.05153 -12.6599,-3.453 -13.68229,-10.34833 l -26.34866,-227.875462 c -1.02238,-6.895321 3.36763,-12.95092 10.07175,-14.002467 l -9e-5,1.24e-4 z" style="fill:#ffdead"/></g></svg>