<svg xmlns="http://www.w3.org/2000/svg" viewBox="0 0 256 256"><defs><clipPath><rect y="56" x="-202" width="84" rx="10" height="88" style="fill:none;stroke:#000;display:block;color:#000"/></clipPath><clipPath><rect y="56" x="-202" width="84" rx="10" height="88" style="fill:none;stroke:#000;display:block;color:#000"/></clipPath><clipPath><rect y="56" x="-202" width="84" rx="10" height="88" style="fill:none;stroke:#000;display:block;color:#000"/></clipPath><filter id="0"><feGaussianBlur stdDeviation="1.5975"/></filter></defs><g transform="translate(0 -796.36)"><path d="m 98.7 799.61 c -239.91 49.981 17.642 393.86 139.59 187.29 52.27 -80.25 -16.2 -213 -139.59 -187.29 z" style="fill:#fff;color:#000"/><g transform="matrix(-1.26414 0.4551 0.4521 1.25581 173.81 826.78)" style="fill:#ff4500"><g style="stroke-linecap:square"><path d="m 50.5 5.5 h 62 v 71 h -62 z" style="opacity:0.6;stroke:#000;filter:url(#0)"/><path d="m 50.5 5.5 h 62 v 71 h -62 z" style="stroke:#ffdead"/></g><g transform="matrix(0.6625 0 0 0.6625 0.344 -2.256)" style="fill:#ffdead"><path d="m 82.5 18.5 h 80 v 80 h -80 z"/><path d="m 162.5,59.35 c -3.352,-1.665 -6.723,-7.335 -11.133,-6 -1.155,0.349 -2.933,1.838 -4.045,1.334 -2.041,-0.926 -4.521,-3.099 -6.067,-4.501 -1.182,-1.072 -6.916,0.224 -8.641,-0.167 -5.092,-1.154 -9.795,-4.26 -12.134,-8.502 l -3.493,-5.335 c -2.532,-1.205 -4.775,-2.667 -6.701,-2.667 v 64.987 h 15.709 36.504 v -39.15 z" style="fill:#ffefd5"/><path d="m 162.5,79.03 c -3.209,-0.27 -5.387,-0.248 -8.301,0.664 -2.274,0.711 -3.38,2.781 -6.04,3.138 -3.685,0.494 -7.694,0.121 -11.316,0.121 l 0.129,15.45 25.532,0.099 V 79.03 z"/><path d="m 162.5,90.95 c -2.458,0.433 -3.539,-5.678 -6.088,-4.335 -2.56,1.348 -4.48,3.606 -7.495,4.4 -2.469,0.65 -5.528,-0.518 -7.549,-0.194 v 7.676 h 21.13 V 90.95 z"/></g><path d="m 0.789 15.5 h 78 v 88 h -78 z" style="stroke:#ffdead;stroke-linecap:square"/><g transform="matrix(0.65657 0 0 0.66151 -5.404 0.834)" style="fill:#ffdead"><path d="m 19,32 h 100 v 98 H 19 z" style="fill:#ffefd5"/><path d="m -156.89 58.56 c 0 4.662 -3.779 8.441 -8.441 8.441 -4.662 0 -8.441 -3.779 -8.441 -8.441 0 -4.662 3.779 -8.441 8.441 -8.441 4.662 0 8.441 3.779 8.441 8.441 z" transform="matrix(0.90221 0 0 0.89547 202.93 6.768)"/><path d="m 21.519 93.21 c 1.062 -0.525 0.991 -2.386 2.574 -1.865 2.215 0.73 1.268 1.168 1.973 1.865 0.149 0.147 1.558 0.205 1.802 0.085 1.503 -0.743 1.665 -2.526 3.346 -1.695 0.903 0.446 0.912 1.494 1.458 2.034 0.667 0.659 1.93 0.255 2.488 1.356 0.476 0.941 -0.368 2.433 0.429 3.221 0.071 0.07 1.867 0.041 1.887 0 0.437 -0.864 -0.194 -10.15 0.172 -10.511 0.933 -0.922 2.755 -0.504 3.603 -0.085 0.991 0.49 2.793 -1.648 5.319 0.848 0.219 0.216 1.832 0 2.145 0 2.672 0 4.806 0.085 7.12 0.848 0.158 0.052 0.661 -0.11 0.772 0 0.646 0.639 -0.408 2.648 0.429 3.476 0.208 0.206 1.807 0.043 2.059 0.085 1.485 0.245 0.486 -1.159 1.115 -1.78 0.087 -0.086 0.713 0 0.858 0 0.695 0 3.398 -0.288 3.86 0.17 0.064 0.064 -0.153 0.285 -0.172 0.339 -0.19 0.564 -0.312 4.455 0 4.917 0.075 0.112 1.878 1.776 1.887 1.78 1.482 0.732 1.204 -4.255 1.373 -5.086 0.679 -3.354 -0.828 -5.01 3.26 -6.02 0.673 -0.166 1.01 -0.932 1.63 -0.932 0.362 0 0.459 -4.3 0.682 -4.3 0.404 0 0.53 4.296 1.019 4.537 2.11 1.043 1.628 1.272 1.988 1.628 0.127 0.126 1.984 0.361 2.402 1.187 0.565 1.117 0.257 8.673 0.257 10.596 l -0.003 0.218 c 0.032 0.39 -0.03 0.783 -0.03 1.169 0 0.522 1.351 0.053 1.486 -0.48 0.081 -0.321 0.204 -0.647 0.243 -0.989 0.074 -0.659 -0.128 -3.11 0.334 -3.567 0.041 -0.041 0.142 0.023 0.182 0.03 0.769 0.127 1.523 0.12 2.305 0.12 0.394 0 2.58 0.267 2.881 -0.03 0.214 -0.212 -0.028 -1.21 -0.061 -1.469 -0.156 -1.232 -0.061 -2.531 -0.061 -3.776 l -0.303 -0.599 c 0.379 -1.073 0.006 -8.817 0.728 -9.531 0.535 -0.529 0.789 -0.51 1.092 -0.659 1.199 -0.592 0.91 -1.076 0.91 -2.338 0 -0.929 0.636 -10.49 0.91 -10.49 0.229 0 0.971 9.45 0.971 10.67 0 0.261 0.851 2.1 0.971 2.218 0.258 0.255 0.525 0.458 0.728 0.659 0.595 0.588 -0.227 7.568 0.364 8.152 0.332 0.328 0.81 0.97 1.274 1.199 0.531 0.263 0.994 -0.258 1.517 0 0.747 0.369 1.571 -0.492 2.063 0.48 0.882 1.744 -0.122 4.195 0.728 5.874 0.1 0.197 0.424 0.12 0.607 0.12 2.513 0 0.455 -5.095 1.335 -6.833 0.055 -0.109 7.441 -0.08 7.643 0.12 1.079 1.066 -0.119 5.517 0.485 6.114 0.195 0.193 1.729 0 2.063 0 0.35 0 1.24 0.453 1.456 0.24 1.102 -1.088 2.63 -2.281 3.154 -3.836 0.198 -0.587 -0.314 -1.509 -0.607 -1.798 -0.392 -0.387 0 -3.067 0 -3.716 0 -5.187 -1.021 -8.695 3.882 -10.31 v 52.629 h -99 v -36.2 c 0.638 -0.029 1.761 -0.075 2.02 -0.085 z" style="stroke:#ffebcd;stroke-width:1.517"/></g></g></g></svg>