<svg width="256" xmlns="http://www.w3.org/2000/svg" viewBox="0 0 256 256" height="256">
<defs>
<clipPath>
<path fill="#1890d0" d="m-24,13c0,1.105-.672,2-1.5,2-.828,0-1.5-.895-1.5-2 0-1.105 .672-2 1.5-2 .828,0 1.5,.895 1.5,2z" transform="matrix(15.33333 0 0 11.5 415 -125.5)"/>
</clipPath>
<clipPath>
<path d="m-24,13c0,1.105-.672,2-1.5,2-.828,0-1.5-.895-1.5-2 0-1.105 .672-2 1.5-2 .828,0 1.5,.895 1.5,2z" transform="matrix(15.33333 0 0 11.5 415 -125.5)"/>
</clipPath>
</defs>
<g color="#000" transform="translate(-1.085 -795.28)">
<path fill="#fff" d="m-1374.42,1658.71c127.95-192.46-280.09-311-226.07-62.2 23.02,102.82 167.39,165.22 226.07,62.2z" transform="matrix(0 -.99153 1 0 -1455.48 -541.65)"/>
<path fill="#ff4500" fill-rule="evenodd" d="m141.04,858.27c0,0-16.976,15.07-17.379,32.868-8.866-4.336-15.395-13.978-8.893-24.552 6.52-10.602 15.515-10.689 26.27-8.317zm-37.425,95.78c0,0-9.534,18.252-1.716,36.27-10.07-1.468-20.08-8.308-18.917-19.851 1.158-11.522 5.761-16.08 20.634-16.417zm9.97,.307c0,0-8.969,10.974-1.735,37.963 19.09-.89 25.827-2.877 39.21-18.388 13.384-15.511 27.2-71.33 22.902-88.68-4.295-17.347-20.82-22.54-20.82-22.54-18.391,8.01-18.738,31.14-18.738,31.14 0,0 17.251,3.869 5.205,37.963-12.11,34.29-26.03,22.54-26.03,22.54z" transform="translate(-7.593 5.424)"/>
</g>
</svg>
