<svg xmlns="http://www.w3.org/2000/svg" viewBox="0 0 256 256"><g transform="translate(0 -796.36)"><path d="m 211.17 833.49 c 201.82 266.38 -353.59 304.22 -175.35 32.31 40.634 -61.991 121.89 -102.86 175.35 -32.31 z" style="fill:#fff;color:#000"/><path d="m 51.47 203.34 c -2.316 -3.552 -2.237 -7.502 0.253 -12.656 1.112 -2.302 2.022 -4.647 2.022 -5.211 0 -1.812 14.11 -15.2 16.704 -15.851 1.379 -0.346 2.507 -0.986 2.507 -1.421 0 -0.436 1.137 -1.077 2.528 -1.426 1.39 -0.349 2.528 -1.081 2.528 -1.626 0 -0.546 0.925 -0.992 2.056 -0.992 2.229 0 5.997 -3.62 13.11 -12.595 2.502 -3.157 5.485 -6.734 6.627 -7.948 1.142 -1.214 3.183 -3.799 4.535 -5.746 1.352 -1.946 3.716 -4.775 5.254 -6.285 1.537 -1.511 2.795 -3.057 2.795 -3.437 0 -0.38 1.593 -2.237 3.539 -4.127 1.946 -1.89 3.539 -3.793 3.539 -4.228 0 -0.435 2.272 -3.257 5.05 -6.271 2.777 -3.01 5.05 -5.813 5.056 -6.22 0.003 -0.407 1.485 -2.314 3.292 -4.237 6.484 -6.9 7.836 -8.462 7.836 -9.05 0 -0.329 1.479 -2.19 3.286 -4.136 1.807 -1.946 4.196 -4.707 5.308 -6.135 1.112 -1.428 3.387 -4.166 5.056 -6.084 6.182 -7.106 7.583 -8.885 7.583 -9.623 0 -0.416 2.161 -3.03 4.803 -5.803 2.642 -2.776 5.713 -6.32 6.825 -7.874 1.112 -1.555 2.818 -3.522 3.792 -4.372 0.973 -0.85 1.769 -2.078 1.769 -2.729 0 -1.547 2.374 -2.411 6.619 -2.411 2.49 0 3.745 0.605 4.612 2.227 0.888 1.659 0.897 2.325 0.036 2.612 -0.636 0.212 -1.156 1.03 -1.156 1.818 0 0.788 -0.455 1.432 -1.011 1.432 -0.556 0 -1.011 0.581 -1.011 1.292 0 0.711 -0.847 2.02 -1.882 2.903 -1.035 0.886 -3.643 4.286 -5.797 7.555 -2.153 3.269 -4.719 6.826 -5.702 7.904 -0.983 1.078 -1.787 2.349 -1.787 2.823 0 0.475 -0.464 1.413 -1.031 2.084 -4.752 5.628 -6.04 7.457 -6.05 8.552 -0.001 0.695 -0.342 1.267 -0.76 1.271 -0.417 0.004 -1.887 1.71 -3.267 3.792 -4.197 6.333 -10.591 14.887 -11.395 15.244 -0.417 0.185 -0.758 0.947 -0.758 1.692 0 0.745 -1.365 2.72 -3.033 4.388 -1.668 1.668 -3.033 3.523 -3.033 4.122 0 0.599 -0.827 1.916 -1.838 2.927 -1.01 1.01 -3.804 4.878 -6.207 8.594 -2.403 3.716 -4.717 6.756 -5.141 6.756 -0.424 0 -1.24 1.251 -1.813 2.781 -0.573 1.529 -2.437 4.321 -4.143 6.204 -1.706 1.883 -3.102 3.892 -3.102 4.465 0 0.573 -0.697 1.763 -1.549 2.644 -3.556 3.678 -6.538 7.751 -6.539 8.932 -0.001 0.695 -0.342 1.266 -0.76 1.269 -1.371 0.009 -9.353 12.754 -9.353 14.934 0 1.172 -0.455 2.412 -1.011 2.756 -0.556 0.344 -1.011 1.342 -1.011 2.219 0 1.621 -4.471 6.376 -5.995 6.376 -0.459 0 -1.402 0.682 -2.094 1.517 -0.692 0.834 -2.355 1.517 -3.694 1.517 -1.34 0 -2.698 0.682 -3.02 1.517 -0.444 1.157 -2.413 1.531 -8.31 1.577 -12.879 0.101 -17.261 1.194 -20.485 5.113 -1.548 1.881 -2.95 4.316 -3.117 5.411 -0.273 1.79 -0.481 1.718 -2.073 -0.723 z" transform="translate(0 796.36)" style="fill:#ff4500;stroke:#ffdead;fill-rule:evenodd;stroke-width:5.535"/></g></svg>