<svg xmlns="http://www.w3.org/2000/svg" viewBox="0 0 256 256"><defs><clipPath><path transform="matrix(15.33333 0 0 11.5 415 -125.5)" d="m -24 13 c 0 1.105 -0.672 2 -1.5 2 -0.828 0 -1.5 -0.895 -1.5 -2 0 -1.105 0.672 -2 1.5 -2 0.828 0 1.5 0.895 1.5 2 z" fill="#1890d0"/></clipPath><clipPath id="0"><path transform="matrix(15.33333 0 0 11.5 415 -125.5)" d="m -24 13 c 0 1.105 -0.672 2 -1.5 2 -0.828 0 -1.5 -0.895 -1.5 -2 0 -1.105 0.672 -2 1.5 -2 0.828 0 1.5 0.895 1.5 2 z" fill="#1890d0"/></clipPath><clipPath><path transform="matrix(15.33333 0 0 11.5 415 -125.5)" d="m -24 13 c 0 1.105 -0.672 2 -1.5 2 -0.828 0 -1.5 -0.895 -1.5 -2 0 -1.105 0.672 -2 1.5 -2 0.828 0 1.5 0.895 1.5 2 z" fill="#1890d0"/></clipPath></defs><g transform="translate(0 -796.36)"><path d="m 229.63 856.53 c 92.05 130.93 -77.948 263.6 -186.39 156.91 -102.17 -100.51 -7.449 -256.68 119.69 -207.86 26.526 10.185 49.802 26.914 66.7 50.948 z" fill="#fff" color="#fff"/><g transform="matrix(1.37698 0 0 1.42923 38.451 830.78)" fill="#ff4500"><path transform="matrix(1 0 0 0.83938 78.24 -2.287)" d="m 29.339 77.09 c 0 30.659 -20.733 55.51 -46.31 55.51 -25.576 0 -46.31 -24.854 -46.31 -55.51 0 -30.659 20.733 -55.51 46.31 -55.51 25.576 0 46.31 24.854 46.31 55.51 z"/><g transform="matrix(4.27275 0 0 4.27275 -38.619 -37.4)" clip-path="url(#0)"><g><path d="m 18.06,11 c -3.898,0 -7.05,3.156 -7.05,7.05 0,1.203 0.305,2.367 0.836,3.359 -0.176,0.84 -0.273,1.695 -0.273,2.586 0,6.863 5.566,12.43 12.438,12.43 0.887,0 1.746,-0.094 2.582,-0.27 0.996,0.539 2.145,0.84 3.355,0.84 3.898,0 7.05,-3.156 7.05,-7.05 0,-1.211 -0.305,-2.367 -0.84,-3.363 0.176,-0.836 0.27,-1.695 0.27,-2.582 0,-6.859 -5.566,-12.43 -12.43,-12.43 -0.891,0 -1.75,0.09 -2.586,0.27 C 20.42,11.309 19.256,11 18.053,11 m 5.703,5.16 c 3.883,0 5.887,2.043 5.887,3.242 0,1.203 -0.578,1.383 -1.531,1.383 -1.852,0 -1.094,-2.223 -4.563,-2.223 -1.148,0 -2.582,0.523 -2.582,1.859 0,1.074 1.27,1.469 3.512,2.02 3.379,0.902 5.914,1.801 5.914,4.891 0,3 -2.453,4.504 -6.336,4.504 -3.883,0 -6.363,-2.313 -6.363,-3.512 0,-1.199 0.457,-1.5 1.41,-1.5 1.855,0 1.605,2.523 5.074,2.523 1.152,0 2.852,-0.523 2.852,-1.863 0,-1.07 -0.09,-1.441 -2.551,-2.102 -2.629,-0.355 -6.875,-1.207 -6.875,-4.473 0,-3 2.273,-4.746 6.156,-4.746 m 0,0"/><path d="m 119.96 174.65 c -6.231 -1.227 -8.102 -1.722 -11.395 -3.01 -7.357 -2.884 -15.05 -8.874 -17.652 -13.745 -1.308 -2.449 -1.347 -7.608 -0.074 -9.763 1.237 -2.095 3.055 -2.916 6.454 -2.916 3.521 0 6.65 1.857 10.317 6.121 5.731 6.665 12.389 9.477 21.12 8.917 7.172 -0.46 12.651 -3.081 14.705 -7.03 1.277 -2.456 1.227 -8.697 -0.084 -10.699 -2 -3.058 -8.856 -5.763 -19.879 -7.847 -13.14 -2.484 -21.782 -5.989 -27.378 -11.1 -4.411 -4.03 -6.344 -8.08 -6.687 -14.01 -0.783 -13.527 7.278 -24.06 21.23 -27.74 4.73 -1.248 15.02 -2.186 18.963 -1.729 13.575 1.573 24.499 7.362 28.3 14.997 1.623 3.258 1.872 5.663 0.879 8.512 -0.789 2.265 -2.451 3.356 -5.776 3.794 -4.556 0.601 -5.805 0.008 -10.834 -5.146 -2.571 -2.635 -5.811 -5.368 -7.2 -6.072 -5.093 -2.584 -14.986 -2.602 -20.286 -0.036 -3.857 1.867 -5.7 4.58 -6.01 8.843 -0.251 3.475 -0.248 3.483 2.337 5.933 2.967 2.811 5.701 3.923 18.301 7.443 15.11 4.222 23.874 8.332 28.748 13.487 4.212 4.456 6.291 12.316 5.342 20.2 -1.451 12.05 -11.09 19.976 -27.19 22.352 -4 0.591 -13.765 0.744 -16.25 0.254 l 0 0 z" transform="matrix(0.16997 0 0 0.16375 2.503 3.117)" fill="#ffdead" stroke="#ff4500" stroke-width="0.584"/></g></g></g></g></svg>