<svg xmlns="http://www.w3.org/2000/svg" viewBox="0 0 256 256"><g transform="translate(0 -796.36)"><path d="m 44.834 1015.23 c -201.82 -266.38 353.59 -304.22 175.35 -32.31 -40.634 61.991 -121.89 102.86 -175.35 32.31 z" style="fill:#fff;color:#fff"/><path d="m 26.607 8.43 c 12 0 21.733 9.791 21.733 21.871 0 9.663 -6.227 17.859 -14.864 20.751 -1.087 0.201 -1.484 -0.474 -1.484 -1.054 0 -0.52 0.019 -1.894 0.029 -3.719 6.05 1.321 7.321 -2.932 7.321 -2.932 0.989 -2.527 2.414 -3.199 2.414 -3.199 1.973 -1.356 -0.149 -1.329 -0.149 -1.329 -2.182 0.154 -3.329 2.254 -3.329 2.254 -1.939 3.342 -5.088 2.376 -6.326 1.817 -0.197 -1.412 -0.759 -2.376 -1.38 -2.923 4.826 -0.552 9.901 -2.429 9.901 -10.809 0 -2.387 -0.847 -4.341 -2.238 -5.868 0.224 -0.553 0.97 -2.778 -0.213 -5.788 0 0 -1.824 -0.588 -5.976 2.242 -1.733 -0.486 -3.593 -0.728 -5.441 -0.737 -1.847 0.009 -3.705 0.251 -5.441 0.737 -4.15 -2.83 -5.971 -2.242 -5.971 -2.242 -1.186 3.01 -0.44 5.235 -0.217 5.788 -1.393 1.528 -2.234 3.481 -2.234 5.868 0 8.402 5.082 10.251 9.923 10.792 -0.779 0.675 -1.474 2.01 -1.474 4.049 0 2.924 0.027 5.283 0.027 6 0 0.585 -0.392 1.266 -1.494 1.053 c -8.63 -2.899 -14.852 -11.09 -14.852 -20.75 c 0 -12.08 9.732 -21.871 21.737 -21.871" transform="matrix(3.5397 0 0 3.64674 32.761 809.64)" style="fill:#ff4500;fill-rule:evenodd"/></g></svg>