<svg xmlns="http://www.w3.org/2000/svg" viewBox="0 0 256 256"><g transform="translate(0 -796.36)"><path d="m 13.228 977.71 c 69.925 141.88 277.41 62.829 237.79 -81.07 -37.33 -135.58 -226.87 -131.72 -248.97 -0.272 -4.611 27.425 -1.653 55.3 11.182 81.34 z" style="fill:#fff;color:#000"/><g transform="translate(0 796.36)" style="fill-rule:evenodd"><path d="m 83.17 75.913 v -6.5 h 6.167 h 6.167 v 6.5 v 6.5 h -6.167 h -6.167 v -6.5 z" style="fill:#ffa07a"/><g style="fill:#ff4500"><path d="m 158.17 154.91 v -6.5 h -15.667 h -15.667 v -26.333 v -26.333 h 9.333 h 9.333 v -6.5 v -6.5 h 6.167 h 6.167 v 6.5 v 6.5 h 6.333 h 6.333 v 6.667 v 6.667 h 6.167 h 6.167 v 6.5 v 6.5 h 6.167 h 6.167 v 19.667 v 19.667 h -6.167 h -6.167 v -13.167 v -13.167 h -6.167 h -6.167 v 13.167 v 13.167 h -6.167 h -6.167 v -6.5 z m 0 -39.5 v -6.667 h -6.333 h -6.333 v 6.667 v 6.667 h 6.333 h 6.333 v -6.667 z"/><path d="m 158.17 75.913 v -6.5 h 6.167 h 6.167 v 6.5 v 6.5 h -6.167 h -6.167 v -6.5 z"/><path d="m 133.17 168.25 v -6.5 h 12.333 h 12.333 v 6.5 v 6.5 h -12.333 h -12.333 v -6.5 z"/></g><g style="fill:#ffa07a"><path d="m 58.17 141.75 v -19.667 h 6.167 h 6.167 v -6.5 v -6.5 h 6.333 h 6.333 v -6.667 v -6.667 h 6.167 h 6.167 v -6.5 v -6.5 h 6.167 h 6.167 v 6.5 v 6.5 h 9.333 h 9.333 v 26.333 v 26.333 h -15.5 h -15.5 v 6.5 v 6.5 h -6.167 h -6.167 v -13.167 v -13.167 h -6.333 h -6.333 v 13.167 v 13.167 h -6.167 h -6.167 v -19.667 z m 50 -26.333 v -6.667 h -6.333 h -6.333 v 6.667 v 6.667 h 6.333 h 6.333 v -6.667 z"/><path d="m 95.51 168.25 v -6.5 h 12.5 h 12.5 v 6.5 v 6.5 h -12.5 h -12.5 v -6.5 z"/></g></g></g></svg>