<svg xmlns="http://www.w3.org/2000/svg" viewBox="0 0 256 256"><path d="m 157.05 4.306 c 237.88 49.54 -17.492 390.35 -138.4 185.62 c -51.828 -79.53 16.06 -211.1 138.4 -185.62 z" style="fill:#fff;color:#000"/><g transform="matrix(0.72331 0 0 0.78837 45.24 47.821)" style="fill:#ff4500;fill-opacity:0.967"><path transform="matrix(1.11176 0.50042 -0.78728 0.70668 127.94 38.488)" d="M 116.3,179.91 73.832,160.951 31.364,141.992 69.017,114.693 106.67,87.394 l 4.815,46.26 z" style="opacity:0.97"/><path d="m 73.913 58.17 h 84.78 v 98.91 h -84.78 z" style="opacity:0.97"/></g><g style="stroke:#ffdead;fill-rule:evenodd"><path d="m 185.06 99.34 a 57.4 47.24 0 1 1 -114.8 0 57.4 47.24 0 1 1 114.8 0 z" style="fill:#ff4500;stroke-width:1.183"/><path d="m 156.13 78.73 a 29.55 15.06 0 1 1 -59.1 0 29.55 15.06 0 1 1 59.1 0 z" style="fill:#ffa07a;stroke-width:0.479"/></g></svg>