<svg xmlns="http://www.w3.org/2000/svg" viewBox="0 0 256 256"><defs><clipPath><rect width="46" height="46" x="1" y="1" rx="4" style="fill:#1890d0;stroke-width:1"/></clipPath><clipPath><rect width="46" height="46" x="1" y="1" rx="4" style="fill:#1890d0;stroke-width:1"/></clipPath><clipPath><rect width="46" height="46" x="1" y="1" rx="4" style="fill:#1890d0;stroke-width:1"/></clipPath><clipPath><rect width="46" height="46" x="1" y="1" rx="4" style="fill:#1890d0;stroke-width:1"/></clipPath><clipPath><rect width="46" height="46" x="1" y="1" rx="4" style="fill:#1890d0;stroke-width:1"/></clipPath><clipPath><rect width="46" height="46" x="1" y="1" rx="4" style="fill:#1890d0;stroke-width:1"/></clipPath><clipPath><rect width="46" height="46" x="1" y="1" rx="4" style="fill:#1890d0;stroke-width:1"/></clipPath><clipPath><rect width="46" height="46" x="1" y="1" rx="4" style="fill:#1890d0;stroke-width:1"/></clipPath><clipPath><rect width="46" height="46" x="1" y="1" rx="4" style="fill:#1890d0;stroke-width:1"/></clipPath><clipPath><rect width="46" height="46" x="1" y="1" rx="4" style="fill:#1890d0;stroke-width:1"/></clipPath><clipPath><rect width="46" height="46" x="1" y="1" rx="4" style="fill:#1890d0;stroke-width:1"/></clipPath><clipPath><rect width="46" height="46" x="1" y="1" rx="4" style="fill:#1890d0;stroke-width:1"/></clipPath><clipPath><rect width="46" height="46" x="1" y="1" rx="4" style="fill:#1890d0;stroke-width:1"/></clipPath><clipPath><path d="M -17,3 H21 V37 H-17 z"/></clipPath><clipPath><rect width="46" height="46" x="1" y="1" rx="4" style="fill:#1890d0;stroke-width:1"/></clipPath><clipPath><rect width="46" height="46" x="1" y="1" rx="4" style="fill:#1890d0;stroke-width:1"/></clipPath><clipPath><rect width="46" height="46" x="1" y="1" rx="4" style="fill:#1890d0;stroke-width:1"/></clipPath><clipPath><rect width="46" height="46" x="1" y="1" rx="4" style="fill:#1890d0;stroke-width:1"/></clipPath><clipPath><rect width="46" height="46" x="1" y="1" rx="4" style="fill:#1890d0;stroke-width:1"/></clipPath><clipPath><rect width="46" height="46" x="1" y="1" rx="4" style="fill:#1890d0;stroke-width:1"/></clipPath><clipPath><rect width="46" height="46" x="1" y="1" rx="4" style="fill:#1890d0;stroke-width:1"/></clipPath></defs><g transform="translate(0 -796.36)"><path d="m 203.33 1027.39 c -192.46 127.95 -311 -280.09 -62.2 -226.07 102.82 23.02 165.22 167.39 62.2 226.07 z" style="fill:#fff;color:#000"/><g transform="matrix(4.94603 0 0 4.51365 6.827 814.86)" style="fill:#ff4500"><path d="m 29 28 c -5 0 -6 9 -12 9 -3 0 -5 -2 -5 -6 0 -8 8.221 -7.942 15 -6 0 -4 -9 -5 -9 -9 0 -2 1.916 -3 4 -3 7 0 8 9 8 12 1.416 1 9 6 6 9 -1.439 1.515 -5.52 -6 -7 -6 z" style="opacity:0.1"/><path d="m 28 27 c -5 0 -6 9 -12 9 -3 0 -5 -2 -5 -6 0 -8 8.221 -7.942 15 -6 0 -4 -9 -5 -9 -9 0 -2 1.916 -3 4 -3 7 0 8 9 8 12 1.416 1 9 6 6 9 -1.439 1.515 -5.52 -6 -7 -6 z"/><path d="m 33 25 c -0.314 -9.504 11.4 -1.581 0 0" style="opacity:0.1"/><path d="m 32 24 c -0.314 -9.504 11.4 -1.581 0 0"/></g></g></svg>