<svg xmlns="http://www.w3.org/2000/svg" xmlns:xlink="http://www.w3.org/1999/xlink" viewBox="0 0 256 256"><defs><use xlink:href="#1" id="0"/><path d="m 245.46 129.52 l -97.89 -96.9 c -5.556 -5.502 -16.222 -11.873 -23.7 -14.16 l -39.518 -12.08 c -7.479 -2.286 -18.1 0.391 -23.599 5.948 l -13.441 13.578 c -5.5 5.559 -14.502 14.653 -20 20.21 l -13.44 13.579 c -5.5 5.558 -8.07 16.206 -5.706 23.658 l 12.483 39.39 c 2.363 7.456 8.843 18.06 14.399 23.556 l 97.89 96.9 c 5.558 5.502 14.605 5.455 20.1 -0.101 l 36.26 -36.63 c 5.504 -5.559 14.503 -14.651 20 -20.21 l 36.26 -36.629 c 5.502 -5.56 5.455 -14.606 -0.101 -20.11 z m -178.09 -50.74 c -7.198 0 -13.03 -5.835 -13.03 -13.03 0 -7.197 5.835 -13.03 13.03 -13.03 7.197 0 13.03 5.835 13.03 13.03 -0.001 7.198 -5.836 13.03 -13.03 13.03 z" id="1"/><clipPath><path d="m 171 132 h 54.625 v 24 h -54.625"/></clipPath><clipPath><path d="m 74 56.824 h 129 v 139.69 h -129"/></clipPath><clipPath style="clip-path:url(#2)"><use xlink:href="#1"/></clipPath><clipPath style="clip-path:url(#2)"><use xlink:href="#1"/></clipPath><clipPath><path d="m 148 97 h 77.63 v 24 h -77.62"/></clipPath><clipPath id="2"><use xlink:href="#0"/></clipPath><clipPath><path d="m 27.707 56.824 h 82.29 v 139.69 h -82.29"/></clipPath><clipPath><circle r="99.31" cy="933.98" cx="132.22" style="fill:#0f9d58"/></clipPath><clipPath><circle r="128" cy="924.36" cx="128" style="fill:#4285f4"/></clipPath><clipPath><circle r="128" cy="924.36" cx="128" style="fill:#f16529"/></clipPath><clipPath><path transform="matrix(15.33333 0 0 11.5 415 -125.5)" d="m -24 13 c 0 1.105 -0.672 2 -1.5 2 -0.828 0 -1.5 -0.895 -1.5 -2 0 -1.105 0.672 -2 1.5 -2 0.828 0 1.5 0.895 1.5 2 z"/></clipPath><clipPath><path transform="translate(0 796.36)" d="m 88.12 249.44 c -42.02 -14.14 -73.35 -47.748 -83.985 -90.07 -2.796 -11.124 -3.211 -15.198 -3.208 -31.471 0.002 -10.417 0.209 -15.875 0.732 -19.348 2.808 -18.628 10.519 -37.903 21.385 -53.45 c 3.959 -5.666 8.345 -10.931 9.102 -10.926 0.328 0.002 10.489 18.31 22.579 40.683 12.09 22.373 22.375 41.33 22.854 42.14 0.479 0.802 0.925 2.441 0.99 3.643 0.343 6.316 2.524 14.21 5.642 20.423 2.954 5.887 5.065 8.733 10.435 14.07 6.714 6.67 12.889 10.286 21.732 12.729 3.166 0.874 5.105 1.05 11.575 1.05 8.826 0 12.602 -0.762 19.264 -3.887 2.046 -0.96 3.937 -1.665 4.202 -1.568 0.265 0.097 -11.06 17.665 -25.16 39.04 l -25.639 38.861 l -3.094 0.112 c -2.555 0.093 -4.195 -0.258 -9.409 -2.01 z"/><path d="m 112.36 1051.52 c -10 -1.449 -12.156 -1.82 -12.532 -2.156 -0.249 -0.222 1.738 -3.747 4.55 -8.07 7.166 -11.02 49.772 -74.65 50.26 -75.05 3.575 -2.992 8.635 -8.04 10.575 -10.554 3.362 -4.353 7.558 -12.914 9.07 -18.494 6.193 -22.925 -2.593 -47.15 -21.7 -59.837 l -2.961 -1.966 l 17.02 0.296 c 9.364 0.163 31.17 0.434 48.46 0.603 l 31.435 0.307 l 1.546 4.189 c 2.246 6.086 4.678 15.09 5.935 21.982 1.525 8.36 1.925 28.859 0.739 37.828 -3.081 23.278 -12.813 45.72 -27.802 64.11 -20.476 25.12 -51.46 42.2 -84.15 46.39 -5.312 0.681 -26.646 0.986 -30.446 0.436 z"/><path transform="translate(0 796.36)" d="m 67.99 108.87 c -26.706 -49.3 -34.7 -63.724 -35.756 -64.53 -0.582 -0.443 0.578 -1.795 6.462 -7.529 14.74 -14.365 30.11 -23.775 49.14 -30.08 13.848 -4.588 24.743 -6.299 40.11 -6.299 c 21.31 0 37.805 3.81 56.835 13.13 25.294 12.383 46.19 33.579 58.52 59.35 1.611 3.369 2.93 6.372 2.93 6.675 0 0.56 -10.549 0.495 -71.17 -0.437 l -24.288 -0.374 l -3.931 -1.764 c -6.757 -3.03 -10.646 -3.84 -18.658 -3.868 -5.03 -0.018 -7.979 0.208 -10.316 0.788 -14.508 3.604 -26.28 12.948 -33.29 26.419 -3.585 6.891 -5.247 13.08 -6.332 23.583 l -0.337 3.267 l -9.927 -18.326 z"/></clipPath><clipPath><circle r="128" cy="128" cx="128" style="fill:#292929;fill-opacity:0.26"/></clipPath><clipPath><circle r="128" cy="924.36" cx="128" style="fill:#4285f4"/></clipPath><clipPath><circle r="128" cy="924.36" cx="128" style="fill:#72a854"/></clipPath><clipPath><circle r="128" cy="922.85" cx="112.26" style="fill:#0e85cd"/></clipPath></defs><g transform="translate(0.145 -794.18)" style="fill:#fff"><path d="m 211.98 840.19 c 129.37 103.48 -60.03 290.29 -174.51 170.96 -114.72 -102.7 64.33 -302.03 174.51 -170.96 z" style="fill:#fff;color:#000"/><g transform="translate(-0.145 794.18)" style="fill:#ff4500;fill-rule:evenodd"><path d="m 137.19 142.78 c 0 -3.183 0.032 -3.405 0.508 -3.53 0.412 -0.108 0.508 -0.346 0.508 -1.267 0 -1.679 -0.264 -2.72 -0.69 -2.72 -0.205 0 -0.432 -0.228 -0.505 -0.508 -0.1 -0.381 -0.346 -0.508 -0.991 -0.508 -0.69 0 -0.859 -0.1 -0.859 -0.508 0 -0.338 -0.169 -0.508 -0.508 -0.508 -0.338 0 -0.508 -0.169 -0.508 -0.508 0 -0.338 -0.169 -0.508 -0.508 -0.508 -0.338 0 -0.508 -0.169 -0.508 -0.508 0 -0.338 -0.169 -0.508 -0.508 -0.508 -0.338 0 -0.508 -0.169 -0.508 -0.508 0 -0.338 -0.169 -0.508 -0.508 -0.508 -0.338 0 -0.508 -0.169 -0.508 -0.508 0 -0.338 -0.169 -0.508 -0.508 -0.508 -0.338 0 -0.508 -0.169 -0.508 -0.508 0 -0.411 -0.169 -0.508 -0.888 -0.508 -0.719 0 -0.888 -0.097 -0.888 -0.508 0 -0.372 -0.169 -0.508 -0.635 -0.508 -0.395 0 -0.635 -0.144 -0.635 -0.381 0 -0.209 -0.182 -0.381 -0.404 -0.381 -0.222 0 -0.463 -0.226 -0.536 -0.501 -0.084 -0.323 -0.429 -0.557 -0.968 -0.658 -0.526 -0.099 -0.884 -0.337 -0.963 -0.641 -0.098 -0.376 -0.357 -0.484 -1.165 -0.484 -0.87 0 -1.039 -0.083 -1.039 -0.508 0 -0.423 -0.169 -0.508 -1.015 -0.508 -0.698 0 -1.015 -0.11 -1.015 -0.353 0 -0.194 -0.274 -0.422 -0.61 -0.506 -0.858 -0.215 -2.182 0.094 -2.182 0.51 0 0.267 -0.477 0.349 -2.03 0.349 -1.861 0 -2.03 0.042 -2.03 0.508 0 0.423 -0.169 0.508 -1.015 0.508 -0.846 0 -1.015 0.085 -1.015 0.508 0 0.403 -0.17 0.508 -0.825 0.511 -0.454 0.002 -1.082 0.072 -1.396 0.156 -0.453 0.121 -0.571 0.048 -0.571 -0.356 0 -0.381 0.224 -0.551 0.888 -0.676 0.532 -0.1 0.888 -0.315 0.888 -0.536 0 -0.225 0.248 -0.369 0.635 -0.369 0.465 0 0.635 -0.135 0.635 -0.508 0 -0.411 0.169 -0.508 0.888 -0.508 0.719 0 0.888 -0.097 0.888 -0.508 0 -0.423 0.169 -0.508 1.015 -0.508 0.846 0 1.015 -0.085 1.015 -0.508 0 -0.423 0.169 -0.508 1.015 -0.508 0.846 0 1.015 -0.085 1.015 -0.508 0 -0.338 0.169 -0.508 0.508 -0.508 0.372 0 0.508 -0.169 0.508 -0.635 0 -0.465 0.135 -0.635 0.508 -0.635 0.462 0 0.508 -0.169 0.508 -1.904 0 -1.734 0.045 -1.904 0.508 -1.904 0.451 0 0.508 -0.169 0.508 -1.523 0 -1.354 0.056 -1.523 0.508 -1.523 0.423 0 0.508 -0.169 0.508 -1.015 0 -0.695 0.111 -1.015 0.351 -1.015 0.413 0 0.656 -0.768 0.661 -2.094 0.002 -0.639 0.119 -0.952 0.355 -0.952 0.444 0 0.656 -0.785 0.661 -2.445 0.003 -1.088 0.087 -1.325 0.511 -1.436 0.473 -0.124 0.508 -0.346 0.508 -3.297 0 -3.587 -0.163 -4.751 -0.666 -4.751 -0.231 0 -0.349 -0.307 -0.349 -0.912 0 -0.699 -0.119 -0.943 -0.508 -1.045 -0.281 -0.073 -0.508 -0.346 -0.508 -0.611 0 -0.309 -0.18 -0.478 -0.508 -0.478 -0.413 0 -0.508 -0.169 -0.508 -0.912 0 -0.699 -0.119 -0.943 -0.508 -1.045 -0.281 -0.073 -0.508 -0.346 -0.508 -0.611 0 -0.309 -0.18 -0.478 -0.508 -0.478 -0.338 0 -0.508 -0.169 -0.508 -0.508 0 -0.338 -0.169 -0.508 -0.508 -0.508 -0.338 0 -0.508 -0.169 -0.508 -0.508 0 -0.338 -0.169 -0.508 -0.508 -0.508 -0.282 0 -0.508 -0.169 -0.508 -0.381 0 -0.212 -0.226 -0.381 -0.508 -0.381 -0.338 0 -0.508 -0.169 -0.508 -0.508 0 -0.338 -0.169 -0.508 -0.508 -0.508 -0.423 0 -0.508 -0.169 -0.508 -1.015 0 -0.846 0.085 -1.015 0.508 -1.015 0.338 0 0.508 0.169 0.508 0.508 0 0.338 0.169 0.508 0.508 0.508 0.338 0 0.508 0.169 0.508 0.508 0 0.338 0.169 0.508 0.508 0.508 0.338 0 0.508 0.169 0.508 0.508 0 0.338 0.169 0.508 0.508 0.508 0.338 0 0.508 0.169 0.508 0.508 0 0.282 0.169 0.508 0.381 0.508 0.212 0 0.381 0.226 0.381 0.508 0 0.338 0.169 0.508 0.508 0.508 0.338 0 0.508 0.169 0.508 0.508 0 0.328 0.169 0.508 0.479 0.508 0.347 0 0.525 0.245 0.646 0.888 0.095 0.507 0.317 0.888 0.518 0.888 0.193 0 0.388 0.257 0.433 0.571 0.052 0.367 0.285 0.6 0.652 0.652 0.314 0.045 0.571 0.244 0.571 0.444 0 0.2 0.171 0.363 0.381 0.363 0.217 0 0.381 0.228 0.381 0.531 0 0.318 0.204 0.585 0.508 0.664 0.279 0.073 0.508 0.291 0.508 0.484 0 0.287 0.923 0.351 5.076 0.351 4.343 0 5.076 -0.055 5.076 -0.381 0 -0.328 0.857 -0.381 6.187 -0.381 6.489 0 7.773 -0.106 7.773 -0.644 0 -0.183 0.445 -0.402 1.015 -0.498 0.944 -0.16 1.015 -0.23 1.015 -1.01 0 -0.623 0.13 -0.87 0.508 -0.969 0.304 -0.079 0.508 -0.346 0.508 -0.664 0 -0.292 0.158 -0.531 0.351 -0.531 0.193 0 0.411 -0.228 0.484 -0.508 0.196 -0.749 0.942 -0.648 0.942 0.127 0 0.393 -0.144 0.635 -0.378 0.635 -0.244 0 -0.435 0.358 -0.54 1.015 -0.097 0.607 -0.301 1.015 -0.508 1.015 -0.207 0 -0.411 0.408 -0.508 1.015 -0.098 0.612 -0.301 1.015 -0.511 1.015 -0.264 0 -0.348 0.46 -0.348 1.904 0 1.523 0.076 1.904 0.381 1.904 0.296 0 0.381 0.338 0.381 1.523 0 1.354 0.056 1.523 0.508 1.523 0.447 0 0.508 0.169 0.508 1.42 0 1.206 0.076 1.44 0.508 1.552 0.418 0.109 0.508 0.346 0.508 1.34 0 1.707 0.259 2.794 0.666 2.794 0.254 0 0.349 0.381 0.349 1.396 0 1.227 0.061 1.396 0.508 1.396 0.423 0 0.508 0.169 0.508 1.015 0 0.846 0.085 1.015 0.508 1.015 0.451 0 0.508 0.169 0.508 1.523 0 1.354 0.056 1.523 0.508 1.523 0.39 0 0.508 0.169 0.508 0.73 0 1.261 0.304 2.316 0.666 2.316 0.231 0 0.349 0.307 0.349 0.912 0 0.699 0.119 0.943 0.508 1.045 0.281 0.073 0.508 0.346 0.508 0.611 0 0.388 0.19 0.478 1.015 0.478 0.846 0 1.015 0.085 1.015 0.508 0 0.338 0.169 0.508 0.508 0.508 0.279 0 0.508 0.161 0.508 0.358 0 0.22 0.391 0.424 1.015 0.53 0.771 0.13 1.015 0.288 1.015 0.657 0 0.316 0.177 0.485 0.508 0.485 0.348 0 0.508 0.169 0.508 0.539 0 0.469 -0.104 0.519 -0.793 0.381 -0.436 -0.087 -1.122 -0.159 -1.523 -0.159 -0.56 0 -0.73 -0.118 -0.73 -0.508 0 -0.423 -0.169 -0.508 -1.015 -0.508 -0.846 0 -1.015 -0.085 -1.015 -0.508 0 -0.471 -0.168 -0.507 -2.348 -0.504 -2.672 0.004 -3.49 0.159 -3.49 0.661 0 0.242 -0.324 0.351 -1.039 0.351 -0.826 0 -1.066 0.104 -1.172 0.508 -0.1 0.381 -0.346 0.508 -0.991 0.508 -0.69 0 -0.859 0.1 -0.859 0.508 0 0.338 -0.169 0.508 -0.508 0.508 -0.338 0 -0.508 0.169 -0.508 0.508 0 0.423 -0.169 0.508 -1.015 0.508 -0.846 0 -1.015 0.085 -1.015 0.508 0 0.338 -0.169 0.508 -0.508 0.508 -0.338 0 -0.508 0.169 -0.508 0.508 0 0.338 -0.169 0.508 -0.508 0.508 -0.338 0 -0.508 0.169 -0.508 0.508 0 0.423 -0.169 0.508 -1.015 0.508 -0.846 0 -1.015 0.085 -1.015 0.508 0 0.338 -0.169 0.508 -0.508 0.508 -0.338 0 -0.508 0.169 -0.508 0.508 0 0.338 -0.169 0.508 -0.508 0.508 -0.338 0 -0.508 0.169 -0.508 0.508 0 0.338 -0.169 0.508 -0.508 0.508 -0.338 0 -0.508 0.169 -0.508 0.508 0 0.338 -0.169 0.508 -0.508 0.508 -0.282 0 -0.508 0.169 -0.508 0.381 0 0.212 -0.226 0.381 -0.508 0.381 -0.328 0 -0.508 0.169 -0.508 0.478 0 0.265 -0.227 0.537 -0.508 0.611 -0.455 0.119 -0.508 0.346 -0.508 2.187 0 1.563 -0.083 2.054 -0.345 2.054 -0.392 0 -0.664 1.73 -0.668 4.251 -0.002 1.24 -0.085 1.586 -0.383 1.586 -0.319 0 -0.381 -0.547 -0.381 -3.397 z" style="opacity:0.99"/><path d="m 76.27 172.57 c 0 -0.328 -0.169 -0.508 -0.479 -0.508 -0.347 0 -0.525 -0.245 -0.646 -0.888 -0.1 -0.532 -0.315 -0.888 -0.536 -0.888 -0.206 0 -0.369 -0.236 -0.369 -0.531 0 -0.318 -0.204 -0.585 -0.508 -0.664 -0.281 -0.073 -0.508 -0.346 -0.508 -0.611 0 -0.309 -0.18 -0.478 -0.508 -0.478 -0.279 0 -0.509 -0.143 -0.511 -0.317 -0.002 -0.174 -0.072 -0.574 -0.157 -0.888 -0.13 -0.486 -0.054 -0.571 0.511 -0.571 0.421 0 0.664 0.139 0.664 0.381 0 0.209 0.171 0.381 0.381 0.381 0.209 0 0.381 -0.171 0.381 -0.381 0 -0.209 0.214 -0.381 0.476 -0.381 0.498 0 0.793 -0.863 0.793 -2.316 0 -0.56 -0.118 -0.73 -0.508 -0.73 -0.39 0 -0.508 -0.169 -0.508 -0.73 0 -1.261 -0.304 -2.316 -0.666 -2.316 -0.231 0 -0.349 -0.307 -0.349 -0.912 0 -0.699 -0.119 -0.943 -0.508 -1.045 -0.37 -0.097 -0.509 -0.348 -0.511 -0.928 -0.005 -1.178 -0.264 -1.937 -0.661 -1.937 -0.247 0 -0.351 -0.339 -0.351 -1.142 0 -0.973 -0.075 -1.142 -0.508 -1.142 -0.423 0 -0.508 -0.169 -0.508 -1.015 0 -0.846 -0.085 -1.015 -0.508 -1.015 -0.411 0 -0.508 -0.169 -0.508 -0.888 0 -0.719 -0.097 -0.888 -0.508 -0.888 -0.465 0 -0.508 -0.169 -0.508 -2.03 0 -1.861 -0.042 -2.03 -0.508 -2.03 -0.472 0 -0.508 -0.169 -0.508 -2.411 0 -2.242 -0.036 -2.411 -0.508 -2.411 -0.451 0 -0.508 -0.169 -0.508 -1.523 0 -1.354 -0.056 -1.523 -0.508 -1.523 -0.451 0 -0.508 -0.169 -0.508 -1.523 v -1.523 h -1.366 c -1.687 0 -1.672 -0.038 -1.672 4.442 0 3.604 0.124 4.442 0.657 4.442 0.251 0 0.351 0.353 0.351 1.237 0 1.735 0.257 2.824 0.666 2.824 0.265 0 0.349 0.458 0.349 1.904 0 1.523 -0.076 1.904 -0.381 1.904 -0.232 0 -0.381 -0.236 -0.381 -0.603 0 -1.143 -0.318 -2.189 -0.666 -2.189 -0.215 0 -0.349 -0.28 -0.349 -0.73 0 -1.261 -0.304 -2.316 -0.666 -2.316 -0.274 0 -0.349 -0.568 -0.349 -2.633 0 -3.072 -0.181 -4.22 -0.666 -4.22 -0.289 0 -0.349 -1.457 -0.349 -8.503 0 -7.05 0.06 -8.503 0.349 -8.503 0.469 0 0.666 -1.135 0.666 -3.839 0 -1.742 0.079 -2.253 0.349 -2.253 0.409 0 0.666 -1.088 0.666 -2.824 0 -0.881 0.101 -1.237 0.349 -1.237 0.348 0 0.666 -1.046 0.666 -2.189 0 -0.367 0.149 -0.603 0.381 -0.603 0.299 0 0.381 -0.353 0.381 -1.65 0 -1.481 0.052 -1.65 0.508 -1.65 0.446 0 0.508 -0.169 0.508 -1.396 0 -1.227 0.062 -1.396 0.508 -1.396 0.423 0 0.508 -0.169 0.508 -1.015 0 -0.846 0.085 -1.015 0.508 -1.015 0.423 0 0.508 -0.169 0.508 -1.015 0 -0.846 0.085 -1.015 0.508 -1.015 0.423 0 0.508 -0.169 0.508 -1.015 0 -0.846 0.085 -1.015 0.508 -1.015 0.423 0 0.508 -0.169 0.508 -1.015 0 -0.846 0.085 -1.015 0.508 -1.015 0.338 0 0.508 -0.169 0.508 -0.508 0 -0.338 0.169 -0.508 0.508 -0.508 0.408 0 0.508 -0.169 0.508 -0.859 0 -0.645 0.126 -0.892 0.508 -0.991 0.304 -0.079 0.508 -0.346 0.508 -0.664 0 -0.292 0.158 -0.531 0.351 -0.531 0.193 0 0.411 -0.228 0.484 -0.508 0.073 -0.279 0.31 -0.508 0.526 -0.508 0.246 0 0.454 -0.323 0.555 -0.865 0.103 -0.551 0.338 -0.911 0.646 -0.991 0.363 -0.095 0.484 -0.355 0.484 -1.039 0 -0.743 0.094 -0.912 0.508 -0.912 0.338 0 0.508 -0.169 0.508 -0.508 0 -0.338 0.169 -0.508 0.508 -0.508 0.338 0 0.508 -0.169 0.508 -0.508 0 -0.338 0.169 -0.508 0.508 -0.508 0.338 0 0.508 -0.169 0.508 -0.508 0 -0.338 0.169 -0.508 0.508 -0.508 0.338 0 0.508 -0.169 0.508 -0.508 0 -0.282 0.169 -0.508 0.381 -0.508 0.212 0 0.381 -0.226 0.381 -0.508 0 -0.338 0.169 -0.508 0.508 -0.508 0.338 0 0.508 -0.169 0.508 -0.508 0 -0.338 0.169 -0.508 0.508 -0.508 0.338 0 0.508 -0.169 0.508 -0.508 0 -0.338 0.169 -0.508 0.508 -0.508 0.279 0 0.508 -0.161 0.508 -0.358 0 -0.22 0.391 -0.424 1.015 -0.53 0.771 -0.13 1.015 -0.288 1.015 -0.657 0 -0.316 0.177 -0.485 0.508 -0.485 0.282 0 0.508 -0.169 0.508 -0.381 0 -0.212 0.226 -0.381 0.508 -0.381 0.328 0 0.508 -0.169 0.508 -0.479 0 -0.347 0.245 -0.525 0.888 -0.646 0.532 -0.1 0.888 -0.315 0.888 -0.536 0 -0.206 0.236 -0.369 0.531 -0.369 0.318 0 0.585 -0.204 0.664 -0.508 0.073 -0.281 0.346 -0.508 0.611 -0.508 0.309 0 0.478 -0.18 0.478 -0.508 0 -0.413 0.169 -0.508 0.912 -0.508 0.684 0 0.944 -0.121 1.039 -0.484 0.081 -0.308 0.44 -0.543 0.991 -0.646 0.513 -0.096 0.865 -0.312 0.865 -0.531 0 -0.262 0.296 -0.369 1.015 -0.369 0.846 0 1.015 -0.085 1.015 -0.508 0 -0.423 0.169 -0.508 1.015 -0.508 0.846 0 1.015 -0.085 1.015 -0.508 0 -0.423 0.169 -0.508 1.015 -0.508 0.846 0 1.015 -0.085 1.015 -0.508 0 -0.451 0.169 -0.508 1.523 -0.508 1.354 0 1.523 -0.056 1.523 -0.508 0 -0.446 0.169 -0.508 1.396 -0.508 1.227 0 1.396 -0.062 1.396 -0.508 0 -0.465 0.169 -0.508 2.03 -0.508 1.861 0 2.03 -0.042 2.03 -0.508 0 -0.479 0.169 -0.508 3.046 -0.508 2.876 0 3.046 -0.028 3.046 -0.508 0 -0.499 0.169 -0.508 9.518 -0.508 9.349 0 9.518 0.009 9.518 0.508 0 0.495 -0.169 0.508 -6.599 0.508 -6.43 0 -6.599 0.013 -6.599 0.508 0 0.411 -0.169 0.508 -0.888 0.508 -0.719 0 -0.888 0.097 -0.888 0.508 0 0.372 -0.169 0.508 -0.635 0.508 -0.465 0 -0.635 0.135 -0.635 0.508 0 0.411 -0.169 0.508 -0.888 0.508 -0.719 0 -0.888 0.097 -0.888 0.508 0 0.338 -0.169 0.508 -0.508 0.508 -0.338 0 -0.508 0.169 -0.508 0.508 0 0.338 -0.169 0.508 -0.508 0.508 -0.338 0 -0.508 0.169 -0.508 0.508 0 0.338 -0.169 0.508 -0.508 0.508 -0.411 0 -0.508 0.169 -0.508 0.888 0 0.719 -0.097 0.888 -0.508 0.888 -0.372 0 -0.508 0.169 -0.508 0.635 0 0.465 -0.135 0.635 -0.508 0.635 -0.423 0 -0.508 0.169 -0.508 1.015 0 0.846 -0.085 1.015 -0.508 1.015 -0.462 0 -0.508 0.169 -0.508 1.904 0 1.734 0.045 1.904 0.508 1.904 0.338 0 0.508 0.169 0.508 0.508 0 0.338 0.169 0.508 0.508 0.508 0.423 0 0.508 0.169 0.508 1.015 0 0.846 -0.085 1.015 -0.508 1.015 -0.338 0 -0.508 -0.169 -0.508 -0.508 0 -0.338 -0.169 -0.508 -0.508 -0.508 -0.338 0 -0.508 -0.169 -0.508 -0.508 0 -0.483 -0.169 -0.508 -3.553 -0.508 -3.384 0 -3.553 0.024 -3.553 0.508 0 0.446 -0.169 0.508 -1.396 0.508 -1.227 0 -1.396 0.062 -1.396 0.508 0 0.423 -0.169 0.508 -1.015 0.508 -0.846 0 -1.015 0.085 -1.015 0.508 0 0.423 -0.169 0.508 -1.015 0.508 -0.846 0 -1.015 0.085 -1.015 0.508 0 0.338 -0.169 0.508 -0.508 0.508 -0.338 0 -0.508 0.169 -0.508 0.508 0 0.423 -0.169 0.508 -1.015 0.508 -0.846 0 -1.015 0.085 -1.015 0.508 0 0.41 -0.169 0.508 -0.877 0.508 -0.801 0 -0.891 0.077 -1.043 0.888 -0.121 0.643 -0.299 0.888 -0.646 0.888 -0.301 0 -0.479 0.179 -0.479 0.479 0 0.346 -0.245 0.525 -0.879 0.644 -0.749 0.141 -0.902 0.291 -1.039 1.02 -0.102 0.542 -0.337 0.902 -0.644 0.982 -0.363 0.095 -0.484 0.355 -0.484 1.039 0 0.743 -0.094 0.912 -0.508 0.912 -0.338 0 -0.508 0.169 -0.508 0.508 0 0.282 -0.169 0.508 -0.381 0.508 -0.275 0 -0.381 0.282 -0.381 1.015 0 0.846 -0.085 1.015 -0.508 1.015 -0.423 0 -0.508 0.169 -0.508 1.015 0 0.846 -0.085 1.015 -0.508 1.015 -0.451 0 -0.508 0.169 -0.508 1.523 0 1.354 -0.056 1.523 -0.508 1.523 -0.411 0 -0.508 0.169 -0.508 0.888 0 0.719 -0.097 0.888 -0.508 0.888 -0.432 0 -0.508 0.169 -0.508 1.142 0 0.973 -0.075 1.142 -0.508 1.142 -0.462 0 -0.508 0.169 -0.508 1.904 0 1.734 -0.045 1.904 -0.508 1.904 -0.451 0 -0.508 0.169 -0.508 1.523 0 1.354 -0.056 1.523 -0.508 1.523 -0.465 0 -0.508 0.169 -0.508 2.03 0 1.861 0.042 2.03 0.508 2.03 0.423 0 0.508 0.169 0.508 1.015 0 0.846 0.085 1.015 0.508 1.015 0.423 0 0.508 0.169 0.508 1.015 0 0.846 0.085 1.015 0.508 1.015 0.338 0 0.508 0.169 0.508 0.508 0 0.338 0.169 0.508 0.508 0.508 0.338 0 0.508 0.169 0.508 0.508 0 0.338 0.169 0.508 0.508 0.508 0.338 0 0.508 0.169 0.508 0.508 0 0.338 0.169 0.508 0.508 0.508 0.411 0 0.508 0.169 0.508 0.888 0 0.719 0.097 0.888 0.508 0.888 0.334 0 0.508 0.169 0.508 0.496 0 0.363 0.231 0.539 0.865 0.658 0.736 0.138 0.889 0.291 1.027 1.027 0.119 0.633 0.295 0.865 0.658 0.865 0.327 0 0.496 0.173 0.496 0.508 0 0.411 0.169 0.508 0.888 0.508 0.719 0 0.888 0.097 0.888 0.508 0 0.423 0.169 0.508 1.015 0.508 0.846 0 1.015 0.085 1.015 0.508 0 0.474 0.169 0.508 2.538 0.508 2.369 0 2.538 0.034 2.538 0.508 0 0.423 -0.169 0.508 -1.015 0.508 -0.846 0 -1.015 0.085 -1.015 0.508 0 0.338 -0.169 0.508 -0.508 0.508 -0.338 0 -0.508 0.169 -0.508 0.508 0 0.282 -0.169 0.508 -0.381 0.508 -0.212 0 -0.381 0.226 -0.381 0.508 0 0.337 -0.169 0.508 -0.505 0.508 -0.392 0 -0.541 0.226 -0.667 1.015 -0.089 0.559 -0.305 1.015 -0.481 1.015 -0.383 0 -0.624 0.801 -0.628 2.094 -0.002 0.639 -0.119 0.952 -0.355 0.952 -0.52 0 -0.657 0.828 -0.661 3.997 -0.003 2.252 -0.077 2.855 -0.352 2.855 -0.486 0 -0.666 1.149 -0.666 4.243 0 2.444 0.041 2.668 0.508 2.79 0.43 0.112 0.508 0.346 0.508 1.523 0 1.177 0.078 1.41 0.508 1.523 0.385 0.101 0.508 0.346 0.508 1.015 0 0.669 0.123 0.915 0.508 1.015 0.279 0.073 0.508 0.291 0.508 0.484 0 0.193 0.228 0.351 0.508 0.351 0.338 0 0.508 0.169 0.508 0.508 0 0.338 0.169 0.508 0.508 0.508 0.338 0 0.508 0.169 0.508 0.508 0 0.338 0.169 0.508 0.508 0.508 0.338 0 0.508 0.169 0.508 0.508 0 0.411 -0.169 0.508 -0.888 0.508 -0.719 0 -0.888 -0.097 -0.888 -0.508 0 -0.338 -0.169 -0.508 -0.508 -0.508 -0.338 0 -0.508 -0.169 -0.508 -0.508 0 -0.372 -0.169 -0.508 -0.635 -0.508 -0.465 0 -0.635 -0.135 -0.635 -0.508 0 -0.411 -0.169 -0.508 -0.888 -0.508 -0.719 0 -0.888 -0.097 -0.888 -0.508 0 -0.456 -0.169 -0.508 -1.65 -0.508 -1.297 0 -1.65 -0.081 -1.65 -0.381 0 -0.209 -0.171 -0.381 -0.381 -0.381 -0.209 0 -0.381 0.171 -0.381 0.381 0 0.286 -0.307 0.381 -1.237 0.381 -1.735 0 -2.824 0.257 -2.824 0.666 0 0.257 -0.4 0.349 -1.523 0.349 -1.354 0 -1.523 0.056 -1.523 0.508 0 0.451 -0.169 0.508 -1.523 0.508 -1.354 0 -1.523 0.056 -1.523 0.508 0 0.338 -0.169 0.508 -0.508 0.508 -0.488 0 -0.508 0.169 -0.508 4.465 0 4.252 0.024 4.472 0.508 4.598 0.37 0.097 0.509 0.348 0.511 0.928 0.002 0.437 0.072 1.052 0.157 1.366 0.123 0.461 0.049 0.571 -0.384 0.571 -0.368 0 -0.537 -0.16 -0.537 -0.508 z m -11.168 -40.863 c 0 -0.423 0.169 -0.508 1.015 -0.508 1.015 0 1.015 0 1.015 -1.015 0 -0.846 0.085 -1.015 0.508 -1.015 0.338 0 0.508 -0.169 0.508 -0.508 0 -0.338 0.169 -0.508 0.508 -0.508 0.338 0 0.508 -0.169 0.508 -0.508 0 -0.338 0.169 -0.508 0.508 -0.508 0.282 0 0.508 -0.169 0.508 -0.381 0 -0.212 0.226 -0.381 0.508 -0.381 0.423 0 0.508 -0.169 0.508 -1.015 0 -0.846 0.085 -1.015 0.508 -1.015 0.338 0 0.508 -0.169 0.508 -0.508 0 -0.338 0.169 -0.508 0.508 -0.508 0.338 0 0.508 -0.169 0.508 -0.508 0 -0.295 0.169 -0.508 0.404 -0.508 0.222 0 0.461 -0.218 0.531 -0.484 0.07 -0.266 0.344 -0.541 0.611 -0.611 0.282 -0.074 0.484 -0.349 0.484 -0.658 0 -0.296 0.164 -0.531 0.369 -0.531 0.221 0 0.436 -0.357 0.536 -0.888 0.101 -0.541 0.314 -0.888 0.543 -0.888 0.207 0 0.436 -0.228 0.509 -0.508 0.073 -0.279 0.276 -0.508 0.452 -0.508 0.337 0 0.637 -1.091 0.637 -2.316 0 -0.45 0.134 -0.73 0.349 -0.73 0.409 0 0.666 -1.088 0.666 -2.824 0 -0.931 0.094 -1.237 0.381 -1.237 0.296 0 0.381 -0.338 0.381 -1.523 0 -1.354 0.056 -1.523 0.508 -1.523 0.462 0 0.508 -0.169 0.508 -1.904 0 -1.734 0.045 -1.904 0.508 -1.904 0.423 0 0.508 -0.169 0.508 -1.015 0 -0.846 0.085 -1.015 0.508 -1.015 0.451 0 0.508 -0.169 0.508 -1.523 0 -1.354 0.056 -1.523 0.508 -1.523 0.423 0 0.508 -0.169 0.508 -1.015 0 -0.846 0.085 -1.015 0.508 -1.015 0.423 0 0.508 -0.169 0.508 -1.015 0 -0.846 0.085 -1.015 0.508 -1.015 0.411 0 0.508 -0.169 0.508 -0.888 0 -0.719 0.097 -0.888 0.508 -0.888 0.432 0 0.508 -0.169 0.508 -1.142 0 -0.846 0.099 -1.142 0.381 -1.142 0.212 0 0.381 -0.226 0.381 -0.508 0 -0.282 -0.169 -0.508 -0.381 -0.508 -0.305 0 -0.381 -0.381 -0.381 -1.904 0 -1.734 -0.045 -1.904 -0.508 -1.904 -0.338 0 -0.508 -0.169 -0.508 -0.508 0 -0.338 -0.169 -0.508 -0.508 -0.508 -0.338 0 -0.508 -0.169 -0.508 -0.508 0 -0.478 -0.169 -0.508 -2.919 -0.508 -2.75 0 -2.919 0.029 -2.919 0.508 0 0.372 -0.169 0.508 -0.635 0.508 -0.556 0 -0.635 0.11 -0.635 0.888 0 0.719 -0.097 0.888 -0.508 0.888 -0.372 0 -0.508 0.169 -0.508 0.635 0 0.371 -0.146 0.635 -0.351 0.635 -0.193 0 -0.411 0.228 -0.484 0.508 -0.073 0.279 -0.31 0.508 -0.526 0.508 -0.246 0 -0.454 0.323 -0.555 0.865 -0.103 0.551 -0.338 0.911 -0.646 0.991 -0.363 0.095 -0.484 0.355 -0.484 1.039 0 0.743 -0.094 0.912 -0.508 0.912 -0.338 0 -0.508 0.169 -0.508 0.508 0 0.338 -0.169 0.508 -0.508 0.508 -0.338 0 -0.508 0.169 -0.508 0.508 0 0.282 -0.169 0.508 -0.381 0.508 -0.275 0 -0.381 0.282 -0.381 1.015 0 0.846 -0.085 1.015 -0.508 1.015 -0.423 0 -0.508 0.169 -0.508 1.015 0 0.846 -0.085 1.015 -0.508 1.015 -0.423 0 -0.508 0.169 -0.508 1.015 0 0.846 -0.085 1.015 -0.508 1.015 -0.411 0 -0.508 0.169 -0.508 0.888 0 0.719 -0.097 0.888 -0.508 0.888 -0.423 0 -0.508 0.169 -0.508 1.015 0 0.846 -0.085 1.015 -0.508 1.015 -0.432 0 -0.508 0.169 -0.508 1.142 0 0.973 -0.075 1.142 -0.508 1.142 -0.451 0 -0.508 0.169 -0.508 1.523 0 1.354 -0.056 1.523 -0.508 1.523 -0.446 0 -0.508 0.169 -0.508 1.396 0 1.015 -0.095 1.396 -0.349 1.396 -0.443 0 -0.666 1.114 -0.666 3.331 0 1.316 -0.086 1.745 -0.351 1.745 -0.524 0 -0.657 0.83 -0.661 4.124 -0.003 2.48 -0.068 2.982 -0.384 2.982 -0.312 0 -0.381 0.437 -0.381 2.411 0 1.907 0.075 2.411 0.358 2.411 0.22 0 0.424 0.391 0.53 1.015 0.13 0.771 0.288 1.015 0.657 1.015 0.316 0 0.485 0.177 0.485 0.508 0 0.411 0.169 0.508 0.888 0.508 0.719 0 0.888 -0.097 0.888 -0.508 z" style="opacity:0.99"/><path d="m 179.07 88.56 c 0 -0.338 -0.169 -0.508 -0.508 -0.508 -0.338 0 -0.508 -0.169 -0.508 -0.508 0 -0.338 -0.169 -0.508 -0.508 -0.508 -0.338 0 -0.508 -0.169 -0.508 -0.508 0 -0.282 -0.169 -0.508 -0.381 -0.508 -0.209 0 -0.381 -0.171 -0.381 -0.381 0 -0.212 -0.226 -0.381 -0.508 -0.381 -0.338 0 -0.508 -0.169 -0.508 -0.508 0 -0.338 -0.169 -0.508 -0.508 -0.508 -0.338 0 -0.508 -0.169 -0.508 -0.508 0 -0.338 -0.169 -0.508 -0.508 -0.508 -0.338 0 -0.508 -0.169 -0.508 -0.508 0 -0.338 -0.169 -0.508 -0.508 -0.508 -0.338 0 -0.508 -0.169 -0.508 -0.508 0 -0.372 -0.169 -0.508 -0.635 -0.508 -0.465 0 -0.635 -0.135 -0.635 -0.508 0 -0.423 -0.169 -0.508 -1.015 -0.508 -0.846 0 -1.015 -0.085 -1.015 -0.508 0 -0.411 -0.169 -0.508 -0.888 -0.508 -0.719 0 -0.888 -0.097 -0.888 -0.508 0 -0.474 -0.169 -0.508 -2.538 -0.508 -2.369 0 -2.538 0.034 -2.538 0.508 0 0.338 -0.169 0.508 -0.508 0.508 -0.338 0 -0.508 0.169 -0.508 0.508 0 0.279 -0.161 0.508 -0.358 0.508 -0.22 0 -0.424 0.391 -0.53 1.015 -0.13 0.771 -0.288 1.015 -0.657 1.015 -0.397 0 -0.485 0.185 -0.485 1.015 0 0.846 -0.085 1.015 -0.508 1.015 -0.338 0 -0.508 0.169 -0.508 0.508 0 0.282 -0.169 0.508 -0.381 0.508 -0.275 0 -0.381 -0.282 -0.381 -1.015 0 -0.705 0.109 -1.015 0.358 -1.015 0.22 0 0.424 -0.391 0.53 -1.015 0.13 -0.771 0.288 -1.015 0.657 -1.015 0.397 0 0.485 -0.185 0.485 -1.015 0 -0.692 0.111 -1.015 0.349 -1.015 0.409 0 0.666 -1.088 0.666 -2.824 0 -1.068 -0.069 -1.237 -0.508 -1.237 -0.413 0 -0.508 -0.169 -0.508 -0.912 0 -0.684 -0.121 -0.944 -0.484 -1.039 -0.266 -0.07 -0.541 -0.344 -0.611 -0.611 -0.07 -0.266 -0.295 -0.484 -0.501 -0.484 -0.206 0 -0.435 -0.228 -0.508 -0.508 -0.073 -0.279 -0.301 -0.508 -0.508 -0.508 -0.206 0 -0.435 -0.228 -0.508 -0.508 -0.079 -0.304 -0.346 -0.508 -0.664 -0.508 -0.303 0 -0.531 -0.164 -0.531 -0.381 0 -0.275 -0.282 -0.381 -1.015 -0.381 -0.846 0 -1.015 -0.085 -1.015 -0.508 0 -0.446 -0.169 -0.508 -1.396 -0.508 -1.227 0 -1.396 -0.062 -1.396 -0.508 0 -0.423 -0.169 -0.508 -1.015 -0.508 -0.846 0 -1.015 -0.085 -1.015 -0.508 0 -0.423 -0.169 -0.508 -1.015 -0.508 -0.846 0 -1.015 -0.085 -1.015 -0.508 0 -0.472 -0.169 -0.508 -2.411 -0.508 -2.242 0 -2.411 -0.036 -2.411 -0.508 0 -0.478 0.169 -0.508 2.919 -0.508 2.75 0 2.919 0.029 2.919 0.508 0 0.423 0.169 0.508 1.015 0.508 0.846 0 1.015 0.085 1.015 0.508 0 0.451 0.169 0.508 1.523 0.508 1.354 0 1.523 0.056 1.523 0.508 0 0.446 0.169 0.508 1.396 0.508 1.227 0 1.396 0.062 1.396 0.508 0 0.372 0.169 0.508 0.635 0.508 0.465 0 0.635 0.135 0.635 0.508 0 0.446 0.169 0.508 1.396 0.508 1.227 0 1.396 0.062 1.396 0.508 0 0.372 0.169 0.508 0.635 0.508 0.386 0 0.635 0.145 0.635 0.369 0 0.221 0.357 0.436 0.888 0.536 0.509 0.095 0.888 0.317 0.888 0.519 0 0.194 0.228 0.352 0.508 0.352 0.331 0 0.508 0.169 0.508 0.485 0 0.368 0.245 0.527 1.015 0.657 0.771 0.13 1.015 0.288 1.015 0.657 0 0.316 0.177 0.485 0.508 0.485 0.282 0 0.508 0.169 0.508 0.381 0 0.212 0.226 0.381 0.508 0.381 0.328 0 0.508 0.169 0.508 0.479 0 0.347 0.245 0.525 0.888 0.646 0.655 0.123 0.888 0.297 0.888 0.663 0 0.327 0.173 0.496 0.508 0.496 0.282 0 0.508 0.169 0.508 0.381 0 0.212 0.226 0.381 0.508 0.381 0.338 0 0.508 0.169 0.508 0.508 0 0.338 0.169 0.508 0.508 0.508 0.338 0 0.508 0.169 0.508 0.508 0 0.338 0.169 0.508 0.508 0.508 0.338 0 0.508 0.169 0.508 0.508 0 0.338 0.169 0.508 0.508 0.508 0.338 0 0.508 0.169 0.508 0.508 0 0.338 0.169 0.508 0.508 0.508 0.338 0 0.508 0.169 0.508 0.508 0 0.338 0.169 0.508 0.508 0.508 0.338 0 0.508 0.169 0.508 0.508 0 0.338 0.169 0.508 0.508 0.508 0.338 0 0.508 0.169 0.508 0.508 0 0.338 0.169 0.508 0.508 0.508 0.338 0 0.508 0.169 0.508 0.508 0 0.338 0.169 0.508 0.508 0.508 0.338 0 0.508 0.169 0.508 0.508 0 0.338 0.169 0.508 0.508 0.508 0.411 0 0.508 0.169 0.508 0.888 0 0.719 -0.097 0.888 -0.508 0.888 -0.338 0 -0.508 -0.169 -0.508 -0.508 z" style="opacity:0.99"/><path d="m 117.14 195.67 c 0 -0.465 -0.169 -0.508 -2.03 -0.508 -1.861 0 -2.03 -0.042 -2.03 -0.508 0 -0.472 -0.169 -0.508 -2.411 -0.508 -2.242 0 -2.411 -0.036 -2.411 -0.508 0 -0.451 -0.169 -0.508 -1.523 -0.508 -1.354 0 -1.523 -0.056 -1.523 -0.508 0 -0.423 -0.169 -0.508 -1.015 -0.508 -0.692 0 -1.015 -0.111 -1.015 -0.349 0 -0.363 -1.055 -0.666 -2.316 -0.666 -0.561 0 -0.73 -0.118 -0.73 -0.508 0 -0.423 -0.169 -0.508 -1.015 -0.508 -0.705 0 -1.015 -0.109 -1.015 -0.358 0 -0.22 -0.391 -0.424 -1.015 -0.53 -0.796 -0.135 -1.015 -0.283 -1.015 -0.689 0 -0.444 0.112 -0.495 0.793 -0.358 0.436 0.087 0.893 0.159 1.015 0.159 0.122 0 0.222 0.157 0.222 0.349 0 0.363 1.055 0.666 2.316 0.666 0.56 0 0.73 0.118 0.73 0.508 0 0.423 0.169 0.508 1.015 0.508 0.695 0 1.015 0.111 1.015 0.351 0 0.515 0.825 0.657 3.839 0.661 3.129 0.004 4.283 -0.175 4.283 -0.663 0 -0.198 0.261 -0.349 0.603 -0.349 1.331 0 2.189 -0.311 2.189 -0.793 0 -0.307 0.18 -0.476 0.508 -0.476 0.446 0 0.508 -0.169 0.508 -1.396 0 -1.227 0.061 -1.396 0.508 -1.396 0.432 0 0.508 -0.169 0.508 -1.142 0 -0.973 -0.075 -1.142 -0.508 -1.142 -0.472 0 -0.508 -0.169 -0.508 -2.411 0 -2.242 -0.036 -2.411 -0.508 -2.411 -0.423 0 -0.508 -0.169 -0.508 -1.015 0 -0.846 -0.085 -1.015 -0.508 -1.015 -0.423 0 -0.508 -0.169 -0.508 -1.015 0 -0.846 -0.085 -1.015 -0.508 -1.015 -0.338 0 -0.508 -0.169 -0.508 -0.508 0 -0.279 -0.159 -0.508 -0.352 -0.508 -0.201 0 -0.423 -0.377 -0.517 -0.879 -0.141 -0.749 -0.291 -0.902 -1.02 -1.039 -0.542 -0.102 -0.902 -0.337 -0.982 -0.644 -0.095 -0.363 -0.355 -0.484 -1.039 -0.484 -0.743 0 -0.912 -0.094 -0.912 -0.508 0 -0.328 -0.169 -0.508 -0.478 -0.508 -0.265 0 -0.537 -0.227 -0.611 -0.508 -0.102 -0.389 -0.346 -0.508 -1.045 -0.508 -0.743 0 -0.912 -0.094 -0.912 -0.508 0 -0.338 -0.169 -0.508 -0.508 -0.508 -0.338 0 -0.508 -0.169 -0.508 -0.508 0 -0.338 -0.169 -0.508 -0.508 -0.508 -0.282 0 -0.508 -0.169 -0.508 -0.381 0 -0.266 0.268 -0.381 0.888 -0.381 0.719 0 0.888 0.097 0.888 0.508 0 0.328 0.169 0.508 0.478 0.508 0.265 0 0.537 0.227 0.611 0.508 0.102 0.389 0.346 0.508 1.045 0.508 0.743 0 0.912 0.094 0.912 0.508 0 0.42 0.169 0.508 0.986 0.508 0.772 0 1.014 0.11 1.118 0.508 0.105 0.403 0.346 0.508 1.172 0.508 0.715 0 1.039 0.109 1.039 0.351 0 0.49 0.81 0.657 3.204 0.661 2.517 0.004 3.648 -0.201 3.648 -0.663 0 -0.224 0.296 -0.35 0.825 -0.352 1.206 -0.005 1.967 -0.261 1.967 -0.661 0 -0.236 0.312 -0.352 0.952 -0.355 1.325 -0.005 2.094 -0.247 2.094 -0.661 0 -0.242 0.324 -0.351 1.039 -0.351 0.826 0 1.066 -0.104 1.172 -0.508 0.101 -0.385 0.346 -0.508 1.015 -0.508 0.669 0 0.915 -0.123 1.015 -0.508 0.073 -0.279 0.291 -0.508 0.484 -0.508 0.193 0 0.351 -0.228 0.351 -0.508 0 -0.423 0.169 -0.508 1.015 -0.508 0.846 0 1.015 -0.085 1.015 -0.508 0 -0.338 0.169 -0.508 0.508 -0.508 0.338 0 0.508 -0.169 0.508 -0.508 0 -0.338 0.169 -0.508 0.508 -0.508 0.423 0 0.508 -0.169 0.508 -1.015 0 -0.846 0.085 -1.015 0.508 -1.015 0.462 0 0.508 -0.169 0.508 -1.904 0 -1.734 0.045 -1.904 0.508 -1.904 0.474 0 0.508 -0.169 0.508 -2.538 0 -2.369 0.034 -2.538 0.508 -2.538 0.474 0 0.508 -0.169 0.508 -2.538 0 -2.087 0.068 -2.538 0.381 -2.538 0.317 0 0.381 0.508 0.381 3.046 0 2.538 -0.063 3.046 -0.381 3.046 -0.32 0 -0.381 0.55 -0.381 3.426 0 3.257 -0.025 3.426 -0.508 3.426 -0.451 0 -0.508 0.169 -0.508 1.523 v 1.523 h 0.888 c 0.719 0 0.888 0.097 0.888 0.508 0 0.372 0.169 0.508 0.635 0.508 0.465 0 0.635 0.135 0.635 0.508 0 0.411 0.169 0.508 0.888 0.508 0.719 0 0.888 0.097 0.888 0.508 0 0.423 0.169 0.508 1.015 0.508 0.846 0 1.015 0.085 1.015 0.508 0 0.328 0.169 0.508 0.478 0.508 0.265 0 0.537 0.227 0.611 0.508 0.102 0.389 0.346 0.508 1.045 0.508 0.743 0 0.912 0.094 0.912 0.508 0 0.423 0.169 0.508 1.015 0.508 0.846 0 1.015 0.085 1.015 0.508 0 0.423 0.169 0.508 1.015 0.508 0.846 0 1.015 0.085 1.015 0.508 0 0.423 0.169 0.508 1.015 0.508 0.692 0 1.015 0.111 1.015 0.349 0 0.465 1.131 0.666 3.736 0.666 1.936 0 2.163 -0.05 2.282 -0.508 0.104 -0.398 0.346 -0.508 1.118 -0.508 0.707 0 0.986 0.108 0.986 0.381 0 0.237 -0.24 0.381 -0.635 0.381 -0.453 0 -0.635 0.137 -0.635 0.479 0 0.346 -0.245 0.525 -0.879 0.644 -0.755 0.142 -0.902 0.289 -1.043 1.043 -0.119 0.634 -0.298 0.879 -0.644 0.879 -0.31 0 -0.479 0.179 -0.479 0.508 0 0.338 -0.169 0.508 -0.508 0.508 -0.338 0 -0.508 0.169 -0.508 0.508 0 0.338 -0.169 0.508 -0.508 0.508 -0.338 0 -0.508 0.169 -0.508 0.508 0 0.282 -0.169 0.508 -0.381 0.508 -0.212 0 -0.381 0.226 -0.381 0.508 0 0.338 -0.169 0.508 -0.508 0.508 -0.338 0 -0.508 0.169 -0.508 0.508 0 0.338 -0.169 0.508 -0.508 0.508 -0.338 0 -0.508 0.169 -0.508 0.508 0 0.338 -0.169 0.508 -0.508 0.508 -0.338 0 -0.508 0.169 -0.508 0.508 0 0.338 -0.169 0.508 -0.508 0.508 -0.411 0 -0.508 0.169 -0.508 0.888 0 0.719 -0.097 0.888 -0.508 0.888 -0.372 0 -0.508 0.169 -0.508 0.635 0 0.465 -0.135 0.635 -0.508 0.635 -0.282 0 -0.508 0.169 -0.508 0.381 0 0.212 -0.226 0.381 -0.508 0.381 -0.465 0 -0.508 0.169 -0.508 2.01 v 2.01 l 1.015 0.172 c 0.587 0.099 1.015 0.313 1.015 0.508 0 0.194 0.428 0.408 1.015 0.508 1.347 0.228 3.046 -0.068 3.046 -0.53 0 -0.266 0.366 -0.358 1.42 -0.358 1.183 0 1.441 -0.081 1.546 -0.484 0.081 -0.308 0.44 -0.543 0.991 -0.646 0.476 -0.089 0.865 -0.314 0.865 -0.499 0 -0.197 0.422 -0.404 1.015 -0.499 c 0.657 -0.105 1.015 -0.296 1.015 -0.54 c 0 -0.273 0.288 -0.378 1.039 -0.378 0.821 0 1.066 -0.105 1.17 -0.501 0.085 -0.326 0.431 -0.558 0.991 -0.663 0.487 -0.091 0.86 -0.314 0.86 -0.514 0 -0.194 0.228 -0.352 0.508 -0.352 0.331 0 0.508 -0.169 0.508 -0.485 0 -0.368 0.245 -0.527 1.015 -0.657 0.624 -0.105 1.015 -0.31 1.015 -0.53 0 -0.197 0.228 -0.358 0.508 -0.358 0.338 0 0.508 -0.169 0.508 -0.508 0 -0.423 0.169 -0.508 1.015 -0.508 0.846 0 1.015 -0.085 1.015 -0.508 0 -0.338 0.169 -0.508 0.508 -0.508 0.338 0 0.508 -0.169 0.508 -0.508 0 -0.338 0.169 -0.508 0.508 -0.508 0.338 0 0.508 -0.169 0.508 -0.508 0 -0.338 0.169 -0.508 0.508 -0.508 0.338 0 0.508 -0.169 0.508 -0.508 0 -0.338 0.169 -0.508 0.508 -0.508 0.338 0 0.508 -0.169 0.508 -0.508 0 -0.338 0.169 -0.508 0.508 -0.508 0.338 0 0.508 -0.169 0.508 -0.508 0 -0.411 0.169 -0.508 0.888 -0.508 0.719 0 0.888 -0.097 0.888 -0.508 0 -0.328 0.169 -0.508 0.478 -0.508 0.265 0 0.537 -0.227 0.611 -0.508 0.073 -0.279 0.315 -0.508 0.537 -0.508 0.235 0 0.404 -0.212 0.404 -0.508 0 -0.338 0.169 -0.508 0.508 -0.508 0.411 0 0.508 -0.169 0.508 -0.888 0 -0.719 0.097 -0.888 0.508 -0.888 0.338 0 0.508 -0.169 0.508 -0.508 0 -0.338 0.169 -0.508 0.508 -0.508 0.372 0 0.508 -0.169 0.508 -0.635 0 -0.465 0.135 -0.635 0.508 -0.635 0.411 0 0.508 -0.169 0.508 -0.888 0 -0.719 0.097 -0.888 0.508 -0.888 0.338 0 0.508 -0.169 0.508 -0.508 0 -0.338 0.169 -0.508 0.508 -0.508 0.338 0 0.508 -0.169 0.508 -0.508 0 -0.338 0.169 -0.508 0.508 -0.508 0.423 0 0.508 -0.169 0.508 -1.015 0 -0.692 0.111 -1.015 0.349 -1.015 0.443 0 0.666 -1.114 0.666 -3.331 0 -1.576 -0.049 -1.745 -0.508 -1.745 -0.338 0 -0.508 -0.169 -0.508 -0.508 0 -0.465 -0.169 -0.508 -2.03 -0.508 -1.861 0 -2.03 0.042 -2.03 0.508 0 0.423 -0.169 0.508 -1.015 0.508 -0.846 0 -1.015 0.085 -1.015 0.508 0 0.338 -0.169 0.508 -0.508 0.508 -0.338 0 -0.508 0.169 -0.508 0.508 0 0.411 -0.169 0.508 -0.888 0.508 -0.719 0 -0.888 0.097 -0.888 0.508 0 0.372 -0.169 0.508 -0.635 0.508 -0.465 0 -0.635 -0.135 -0.635 -0.508 0 -0.338 0.169 -0.508 0.508 -0.508 0.338 0 0.508 -0.169 0.508 -0.508 0 -0.328 0.169 -0.508 0.478 -0.508 0.265 0 0.537 -0.227 0.611 -0.508 0.073 -0.279 0.315 -0.508 0.537 -0.508 0.293 0 0.404 -0.245 0.404 -0.888 0 -0.719 0.097 -0.888 0.508 -0.888 0.423 0 0.508 -0.169 0.508 -1.015 0 -0.846 0.085 -1.015 0.508 -1.015 0.451 0 0.508 -0.169 0.508 -1.523 0 -1.354 0.056 -1.523 0.508 -1.523 0.465 0 0.508 -0.169 0.508 -2.03 0 -1.861 0.042 -2.03 0.508 -2.03 0.494 0 0.508 -0.169 0.508 -6.472 v -6.472 h -1.015 c -0.846 0 -1.015 -0.085 -1.015 -0.508 0 -0.338 -0.169 -0.508 -0.508 -0.508 -0.338 0 -0.508 -0.169 -0.508 -0.508 0 -0.411 -0.169 -0.508 -0.888 -0.508 -0.719 0 -0.888 -0.097 -0.888 -0.508 0 -0.372 -0.169 -0.508 -0.635 -0.508 -0.465 0 -0.635 -0.135 -0.635 -0.508 0 -0.338 -0.169 -0.508 -0.508 -0.508 -0.338 0 -0.508 -0.169 -0.508 -0.508 0 -0.411 -0.169 -0.508 -0.888 -0.508 -0.719 0 -0.888 -0.097 -0.888 -0.508 0 -0.423 0.169 -0.508 1.015 -0.508 0.846 0 1.015 0.085 1.015 0.508 0 0.423 0.169 0.508 1.015 0.508 0.846 0 1.015 0.085 1.015 0.508 0 0.411 0.169 0.508 0.888 0.508 0.719 0 0.888 0.097 0.888 0.508 0 0.423 0.169 0.508 1.015 0.508 0.846 0 1.015 0.085 1.015 0.508 0 0.451 0.169 0.508 1.523 0.508 1.354 0 1.523 -0.056 1.523 -0.508 0 -0.338 0.169 -0.508 0.508 -0.508 0.423 0 0.508 -0.169 0.508 -1.015 0 -0.846 0.085 -1.015 0.508 -1.015 0.338 0 0.508 -0.169 0.508 -0.508 0 -0.338 0.169 -0.508 0.508 -0.508 0.338 0 0.508 -0.169 0.508 -0.508 0 -0.279 0.166 -0.508 0.369 -0.508 0.221 0 0.436 -0.357 0.536 -0.888 0.121 -0.643 0.299 -0.888 0.646 -0.888 0.3 0 0.479 -0.179 0.479 -0.478 0 -0.265 0.227 -0.537 0.508 -0.611 0.403 -0.105 0.508 -0.346 0.508 -1.172 0 -0.715 0.109 -1.039 0.351 -1.039 0.4 0 0.656 -0.761 0.661 -1.967 0.002 -0.527 0.129 -0.825 0.351 -0.825 0.398 0 0.661 -1.267 0.665 -3.204 0.004 -1.79 -0.248 -2.887 -0.663 -2.887 -0.251 0 -0.35 -0.373 -0.352 -1.332 -0.004 -1.688 -0.214 -2.475 -0.661 -2.475 -0.263 0 -0.351 -0.414 -0.351 -1.65 0 -1.481 -0.052 -1.65 -0.508 -1.65 -0.446 0 -0.508 -0.169 -0.508 -1.396 0 -1.072 0.088 -1.396 0.381 -1.396 0.275 0 0.381 0.282 0.381 1.015 0 0.846 0.085 1.015 0.508 1.015 0.39 0 0.508 0.169 0.508 0.73 0 1.261 0.304 2.316 0.666 2.316 0.198 0 0.349 0.261 0.349 0.603 0 1.143 0.318 2.189 0.666 2.189 0.236 0 0.349 0.317 0.349 0.978 0 2.127 0.323 4.098 0.671 4.098 0.238 0 0.345 0.344 0.345 1.11 0 1.616 0.267 2.697 0.666 2.697 0.291 0 0.349 1.842 0.349 11.04 0 9.199 -0.058 11.04 -0.349 11.04 -0.409 0 -0.666 1.088 -0.666 2.824 0 0.881 -0.101 1.237 -0.349 1.237 -0.409 0 -0.666 1.088 -0.666 2.824 0 0.884 -0.1 1.237 -0.351 1.237 -0.413 0 -0.656 0.768 -0.661 2.094 -0.002 0.639 -0.119 0.952 -0.355 0.952 -0.397 0 -0.656 0.76 -0.661 1.937 -0.003 0.58 -0.141 0.831 -0.511 0.928 -0.403 0.105 -0.508 0.346 -0.508 1.172 0 0.715 -0.109 1.039 -0.351 1.039 -0.4 0 -0.656 0.761 -0.661 1.967 -0.003 0.655 -0.108 0.825 -0.511 0.825 -0.338 0 -0.508 0.169 -0.508 0.508 0 0.279 -0.161 0.508 -0.358 0.508 -0.22 0 -0.424 0.391 -0.53 1.015 -0.13 0.771 -0.288 1.015 -0.657 1.015 -0.397 0 -0.485 0.185 -0.485 1.015 0 0.733 -0.106 1.015 -0.381 1.015 -0.212 0 -0.381 0.226 -0.381 0.508 0 0.338 -0.169 0.508 -0.508 0.508 -0.338 0 -0.508 0.169 -0.508 0.508 0 0.338 -0.169 0.508 -0.508 0.508 -0.411 0 -0.508 0.169 -0.508 0.888 0 0.719 -0.097 0.888 -0.508 0.888 -0.338 0 -0.508 0.169 -0.508 0.508 0 0.338 -0.169 0.508 -0.508 0.508 -0.372 0 -0.508 0.169 -0.508 0.635 0 0.465 -0.135 0.635 -0.508 0.635 -0.338 0 -0.508 0.169 -0.508 0.508 0 0.338 -0.169 0.508 -0.508 0.508 -0.411 0 -0.508 0.169 -0.508 0.888 0 0.719 -0.097 0.888 -0.508 0.888 -0.338 0 -0.508 0.169 -0.508 0.508 0 0.338 -0.169 0.508 -0.508 0.508 -0.338 0 -0.508 0.169 -0.508 0.508 0 0.338 -0.169 0.508 -0.508 0.508 -0.338 0 -0.508 0.169 -0.508 0.508 0 0.338 -0.169 0.508 -0.508 0.508 -0.338 0 -0.508 0.169 -0.508 0.508 0 0.338 -0.169 0.508 -0.508 0.508 -0.338 0 -0.508 0.169 -0.508 0.508 0 0.411 -0.169 0.508 -0.888 0.508 -0.719 0 -0.888 0.097 -0.888 0.508 0 0.372 -0.169 0.508 -0.635 0.508 -0.465 0 -0.635 0.135 -0.635 0.508 0 0.338 -0.169 0.508 -0.508 0.508 -0.279 0 -0.508 0.166 -0.508 0.369 0 0.221 -0.357 0.436 -0.888 0.536 -0.509 0.095 -0.888 0.317 -0.888 0.519 0 0.194 -0.228 0.352 -0.508 0.352 -0.338 0 -0.508 0.169 -0.508 0.508 0 0.338 -0.169 0.508 -0.508 0.508 -0.338 0 -0.508 0.169 -0.508 0.508 0 0.423 -0.169 0.508 -1.015 0.508 -0.83 0 -1.015 0.088 -1.015 0.485 0 0.368 -0.245 0.527 -1.015 0.657 -0.576 0.097 -1.015 0.314 -1.015 0.502 0 0.182 -0.4 0.405 -0.888 0.497 -0.532 0.1 -0.888 0.315 -0.888 0.536 0 0.206 -0.236 0.369 -0.531 0.369 -0.318 0 -0.585 0.204 -0.664 0.508 -0.104 0.398 -0.346 0.508 -1.118 0.508 -0.816 0 -0.986 0.087 -0.986 0.508 0 0.39 -0.169 0.508 -0.73 0.508 -1.261 0 -2.316 0.304 -2.316 0.666 0 0.23 -0.304 0.349 -0.888 0.349 -0.719 0 -0.888 0.097 -0.888 0.508 0 0.465 -0.169 0.508 -2.03 0.508 -1.861 0 -2.03 0.042 -2.03 0.508 0 0.465 -0.169 0.508 -2.03 0.508 -1.861 0 -2.03 0.042 -2.03 0.508 0 0.465 -0.169 0.508 -2.03 0.508 -1.861 0 -2.03 0.042 -2.03 0.508 0 0.5 -0.169 0.508 -10.914 0.508 -10.745 0 -10.914 -0.008 -10.914 -0.508 z m 21.07 -1.015 c 0 -0.466 0.169 -0.508 2.043 -0.508 h 2.043 l -0.076 -1.459 l -0.076 -1.459 l -1.459 -0.076 c -0.994 -0.052 -1.459 -0.182 -1.459 -0.408 0 -0.526 -2.361 -0.658 -11.808 -0.658 -9.02 0 -10.274 0.081 -10.274 0.666 0 0.215 -0.28 0.349 -0.73 0.349 -1.261 0 -2.316 0.304 -2.316 0.666 0 0.192 -0.228 0.349 -0.508 0.349 -0.338 0 -0.508 0.169 -0.508 0.508 0 0.338 0.169 0.508 0.508 0.508 0.338 0 0.508 0.169 0.508 0.508 0 0.451 0.169 0.508 1.523 0.508 1.354 0 1.523 0.056 1.523 0.508 0 0.499 0.169 0.508 10.533 0.508 10.364 0 10.533 -0.008 10.533 -0.508 z" style="opacity:0.99"/><path d="m 185.95 99.79 c -0.02 -0.323 -0.2 -0.571 -0.415 -0.571 -0.212 0 -0.381 -0.226 -0.381 -0.508 0 -0.279 0.163 -0.508 0.363 -0.508 0.2 0 0.413 -0.257 0.473 -0.571 l 0.11 -0.571 l 0.035 0.571 c 0.02 0.323 0.2 0.571 0.415 0.571 0.212 0 0.381 0.226 0.381 0.508 0 0.279 -0.163 0.508 -0.363 0.508 -0.2 0 -0.413 0.257 -0.473 0.571 l -0.11 0.571 l -0.035 -0.571 z" style="opacity:0.99"/><path d="m 184.14 96.68 c 0 -0.411 0.169 -0.508 0.888 -0.508 0.719 0 0.888 0.097 0.888 0.508 0 0.411 -0.169 0.508 -0.888 0.508 -0.719 0 -0.888 -0.097 -0.888 -0.508 z" style="opacity:0.99"/><path d="m 184.14 95.67 c 0 -0.282 0.169 -0.508 0.381 -0.508 0.212 0 0.381 0.226 0.381 0.508 0 0.282 -0.169 0.508 -0.381 0.508 -0.212 0 -0.381 -0.226 -0.381 -0.508 z" style="opacity:0.99"/><path d="m 183.13 94.65 c 0 -0.338 -0.169 -0.508 -0.508 -0.508 -0.411 0 -0.508 -0.169 -0.508 -0.888 0 -0.719 -0.097 -0.888 -0.508 -0.888 -0.372 0 -0.508 -0.169 -0.508 -0.635 0 -0.465 -0.135 -0.635 -0.508 -0.635 -0.409 0 -0.508 -0.169 -0.508 -0.871 0 -0.701 -0.111 -0.892 -0.571 -0.981 -0.314 -0.061 -0.086 -0.126 0.508 -0.145 0.991 -0.032 1.079 0.017 1.079 0.6 0 0.465 0.135 0.635 0.508 0.635 0.411 0 0.508 0.169 0.508 0.888 0 0.719 0.097 0.888 0.508 0.888 0.372 0 0.508 0.169 0.508 0.635 0 0.465 0.135 0.635 0.508 0.635 0.411 0 0.508 0.169 0.508 0.888 0 0.719 -0.097 0.888 -0.508 0.888 -0.338 0 -0.508 -0.169 -0.508 -0.508 z" style="opacity:0.99"/><path d="m 187.19 102.14 c 0 -0.62 0.115 -0.888 0.381 -0.888 0.266 0 0.381 0.268 0.381 0.888 0 0.62 -0.115 0.888 -0.381 0.888 -0.266 0 -0.381 -0.268 -0.381 -0.888 z" style="opacity:0.99"/><path d="m 186.96 101.7 c -0.016 -0.244 -0.201 -0.444 -0.41 -0.444 -0.508 0 -0.508 -1.355 0 -1.777 0.318 -0.264 0.381 -0.227 0.381 0.223 0 0.369 0.159 0.539 0.508 0.539 0.338 0 0.508 0.169 0.508 0.508 0 0.279 -0.163 0.508 -0.362 0.508 -0.199 0 -0.414 0.2 -0.478 0.444 -0.111 0.423 -0.117 0.423 -0.146 0 z" style="opacity:0.99"/><path d="m 156.22 86.66 c 0 -0.209 0.171 -0.381 0.381 -0.381 0.209 0 0.381 0.171 0.381 0.381 0 0.209 -0.171 0.381 -0.381 0.381 -0.209 0 -0.381 -0.171 -0.381 -0.381 z" style="opacity:0.99"/><path d="m 156.01 87.55 c 0 -0.349 0.058 -0.492 0.128 -0.317 0.07 0.174 0.07 0.46 0 0.635 -0.07 0.174 -0.128 0.032 -0.128 -0.317 z" style="opacity:0.99"/><path d="m 136.93 63.69 c 0 -0.468 0.169 -0.508 2.157 -0.508 1.988 0 2.157 0.04 2.157 0.508 0 0.468 -0.169 0.508 -2.157 0.508 -1.988 0 -2.157 -0.04 -2.157 -0.508 z" style="opacity:0.99"/><path d="m 105.21 127.65 c 0 -0.282 0.169 -0.508 0.381 -0.508 0.212 0 0.381 0.226 0.381 0.508 0 0.282 -0.169 0.508 -0.381 0.508 -0.212 0 -0.381 -0.226 -0.381 -0.508 z" style="opacity:0.99"/><path d="m 101.15 128.66 c 0 -0.338 0.169 -0.508 0.508 -0.508 0.338 0 0.508 -0.169 0.508 -0.508 0 -0.423 0.169 -0.508 1.015 -0.508 0.697 0 1.015 -0.11 1.015 -0.352 0 -0.202 0.38 -0.424 0.888 -0.519 0.532 -0.1 0.888 -0.315 0.888 -0.536 0 -0.268 0.312 -0.369 1.142 -0.369 0.846 0 1.142 0.099 1.142 0.381 0 0.237 -0.24 0.381 -0.635 0.381 -0.465 0 -0.635 0.135 -0.635 0.508 0 0.423 -0.169 0.508 -1.015 0.508 -0.846 0 -1.015 0.085 -1.015 0.508 0 0.411 -0.169 0.508 -0.888 0.508 -0.719 0 -0.888 0.097 -0.888 0.508 0 0.423 -0.169 0.508 -1.015 0.508 -0.846 0 -1.015 -0.085 -1.015 -0.508 z" style="opacity:0.99"/><path d="m 99.12 129.68 c 0 -0.338 0.169 -0.508 0.508 -0.508 0.338 0 0.508 -0.169 0.508 -0.508 0 -0.338 0.169 -0.508 0.508 -0.508 0.423 0 0.508 0.169 0.508 1.015 0 1.015 0 1.015 -1.015 1.015 -0.846 0 -1.015 -0.085 -1.015 -0.508 z" style="opacity:0.99"/><path d="m 168.15 126.63 c 0 -0.338 -0.169 -0.508 -0.508 -0.508 -0.282 0 -0.508 -0.169 -0.508 -0.381 0 -0.625 1.684 -0.51 1.85 0.127 0.079 0.304 0.346 0.508 0.664 0.508 0.303 0 0.531 0.164 0.531 0.381 0 0.275 -0.282 0.381 -1.015 0.381 -0.846 0 -1.015 -0.085 -1.015 -0.508 z" style="opacity:0.99"/><path d="m 170.18 127.65 c 0 -0.423 0.169 -0.508 1.015 -0.508 0.846 0 1.015 0.085 1.015 0.508 0 0.423 -0.169 0.508 -1.015 0.508 -0.846 0 -1.015 -0.085 -1.015 -0.508 z" style="opacity:0.99"/><path d="m 162.06 170.67 c 0 -0.212 0.226 -0.381 0.508 -0.381 0.282 0 0.508 0.169 0.508 0.381 0 0.212 -0.226 0.381 -0.508 0.381 -0.282 0 -0.508 -0.169 -0.508 -0.381 z" style="opacity:0.99"/><path d="m 163.27 169.1 c 0.174 -0.07 0.46 -0.07 0.635 0 0.174 0.07 0.032 0.128 -0.317 0.128 -0.349 0 -0.492 -0.058 -0.317 -0.128 z" style="opacity:0.99"/><path d="m 165.11 167.64 c 0 -0.2 -0.257 -0.413 -0.571 -0.473 -0.314 -0.06 -0.086 -0.126 0.508 -0.145 0.921 -0.03 1.079 0.04 1.079 0.473 0 0.338 -0.169 0.508 -0.508 0.508 -0.279 0 -0.508 -0.163 -0.508 -0.363 z" style="opacity:0.99"/><path d="m 167.14 164.7 c 0 -0.338 0.169 -0.508 0.508 -0.508 0.338 0 0.508 0.169 0.508 0.508 0 0.338 -0.169 0.508 -0.508 0.508 -0.338 0 -0.508 -0.169 -0.508 -0.508 z" style="opacity:0.99"/><path d="m 169.93 163.69 c 0 -0.338 0.169 -0.508 0.508 -0.508 0.338 0 0.508 0.169 0.508 0.508 0 0.338 -0.169 0.508 -0.508 0.508 -0.338 0 -0.508 -0.169 -0.508 -0.508 z" style="opacity:0.99"/><path d="m 172.05 162.39 c 0.087 -0.436 0.159 -0.893 0.159 -1.015 0 -0.122 0.171 -0.222 0.381 -0.222 0.275 0 0.381 0.282 0.381 1.015 0 0.866 -0.079 1.015 -0.539 1.015 -0.469 0 -0.519 -0.104 -0.381 -0.793 z" style="opacity:0.99"/><path d="m 168.15 165.72 c 0 -0.282 0.169 -0.508 0.381 -0.508 0.212 0 0.381 0.226 0.381 0.508 0 0.282 -0.169 0.508 -0.381 0.508 -0.212 0 -0.381 -0.226 -0.381 -0.508 z" style="opacity:0.99"/><path d="m 162.06 169.67 c 0 -0.2 -0.257 -0.413 -0.571 -0.473 -0.314 -0.06 -0.086 -0.126 0.508 -0.145 0.921 -0.03 1.079 0.04 1.079 0.473 0 0.338 -0.169 0.508 -0.508 0.508 -0.279 0 -0.508 -0.163 -0.508 -0.363 z" style="opacity:0.99"/><path d="m 161.05 170.67 c 0 -0.212 0.226 -0.381 0.508 -0.381 0.282 0 0.508 0.169 0.508 0.381 0 0.212 -0.226 0.381 -0.508 0.381 -0.282 0 -0.508 -0.169 -0.508 -0.381 z" style="opacity:0.99"/><path d="m 165.11 166.61 c 0 -0.212 0.226 -0.381 0.508 -0.381 0.338 0 0.508 -0.169 0.508 -0.508 0 -0.423 0.169 -0.508 1.015 -0.508 0.846 0 1.015 0.085 1.015 0.508 0 0.338 -0.169 0.508 -0.508 0.508 -0.282 0 -0.508 0.169 -0.508 0.381 0 0.275 -0.282 0.381 -1.015 0.381 -0.733 0 -1.015 -0.106 -1.015 -0.381 z" style="opacity:0.99"/><path d="m 164.09 168.64 c 0 -0.212 0.226 -0.381 0.508 -0.381 0.282 0 0.508 0.169 0.508 0.381 0 0.212 -0.226 0.381 -0.508 0.381 -0.282 0 -0.508 -0.169 -0.508 -0.381 z" style="opacity:0.99"/><path d="m 169.97 164.7 c 0 -0.349 0.058 -0.492 0.128 -0.317 0.07 0.174 0.07 0.46 0 0.635 -0.07 0.174 -0.128 0.032 -0.128 -0.317 z" style="opacity:0.99"/><path d="m 171.2 163.69 c 0 -0.282 0.169 -0.508 0.381 -0.508 0.212 0 0.381 0.226 0.381 0.508 0 0.282 -0.169 0.508 -0.381 0.508 -0.212 0 -0.381 -0.226 -0.381 -0.508 z" style="opacity:0.99"/><path d="m 168.95 165.72 c 0 -0.349 0.058 -0.492 0.128 -0.317 0.07 0.174 0.07 0.46 0 0.635 -0.07 0.174 -0.128 0.032 -0.128 -0.317 z" style="opacity:0.99"/><path d="m 160.49 171.13 c 0.183 -0.073 0.402 -0.064 0.486 0.02 0.084 0.084 -0.066 0.144 -0.333 0.133 -0.296 -0.012 -0.356 -0.072 -0.153 -0.153 z" style="opacity:0.99"/><path d="m 168.15 164.7 c 0 -0.411 0.169 -0.508 0.888 -0.508 0.719 0 0.888 0.097 0.888 0.508 0 0.411 -0.169 0.508 -0.888 0.508 -0.719 0 -0.888 -0.097 -0.888 -0.508 z" style="opacity:0.99"/><path d="m 94.89 188.14 c -0.3 -0.061 -0.603 -0.334 -0.674 -0.605 -0.098 -0.373 -0.351 -0.493 -1.041 -0.493 -0.743 0 -0.912 -0.094 -0.912 -0.508 0 -0.372 -0.169 -0.508 -0.635 -0.508 -0.386 0 -0.635 -0.145 -0.635 -0.369 0 -0.221 -0.357 -0.436 -0.888 -0.536 -0.643 -0.121 -0.888 -0.299 -0.888 -0.646 0 -0.31 -0.179 -0.479 -0.508 -0.479 -0.282 0 -0.508 -0.169 -0.508 -0.381 0 -0.266 0.268 -0.381 0.888 -0.381 0.719 0 0.888 0.097 0.888 0.508 0 0.372 0.169 0.508 0.635 0.508 0.386 0 0.635 0.145 0.635 0.369 0 0.219 0.352 0.435 0.865 0.531 0.551 0.103 0.911 0.338 0.991 0.646 0.095 0.363 0.355 0.484 1.039 0.484 0.743 0 0.912 0.094 0.912 0.508 0 0.423 0.169 0.508 1.015 0.508 0.733 0 1.015 0.106 1.015 0.381 0 0.209 -0.143 0.382 -0.317 0.384 -0.174 0.002 -0.546 0.046 -0.825 0.097 -0.279 0.052 -0.753 0.044 -1.053 -0.018 z" style="opacity:0.99"/><path d="m 85.16 181.71 c 0 -0.338 -0.169 -0.508 -0.508 -0.508 -0.338 0 -0.508 -0.169 -0.508 -0.508 0 -0.338 -0.169 -0.508 -0.508 -0.508 -0.338 0 -0.508 -0.169 -0.508 -0.508 0 -0.423 0.169 -0.508 1.015 -0.508 0.846 0 1.015 0.085 1.015 0.508 0 0.338 0.169 0.508 0.508 0.508 0.338 0 0.508 0.169 0.508 0.508 0 0.338 0.169 0.508 0.508 0.508 0.338 0 0.508 0.169 0.508 0.508 0 0.423 -0.169 0.508 -1.015 0.508 -0.846 0 -1.015 -0.085 -1.015 -0.508 z" style="opacity:0.99"/><path d="m 81.1 177.65 c 0 -0.338 0.169 -0.508 0.508 -0.508 0.338 0 0.508 0.169 0.508 0.508 0 0.338 -0.169 0.508 -0.508 0.508 -0.338 0 -0.508 -0.169 -0.508 -0.508 z" style="opacity:0.99"/><path d="m 80.08 176.63 c 0 -0.338 0.169 -0.508 0.508 -0.508 0.338 0 0.508 0.169 0.508 0.508 0 0.338 -0.169 0.508 -0.508 0.508 -0.338 0 -0.508 -0.169 -0.508 -0.508 z" style="opacity:0.99"/><path d="m 79.32 175.62 c 0 -0.282 0.169 -0.508 0.381 -0.508 0.212 0 0.381 0.226 0.381 0.508 0 0.282 -0.169 0.508 -0.381 0.508 -0.212 0 -0.381 -0.226 -0.381 -0.508 z" style="opacity:0.99"/><path d="m 78.3 174.73 c 0 -0.209 0.171 -0.381 0.381 -0.381 0.209 0 0.381 0.171 0.381 0.381 0 0.209 -0.171 0.381 -0.381 0.381 -0.209 0 -0.381 -0.171 -0.381 -0.381 z" style="opacity:0.99"/><path d="m 78.08 174.81 c -0.016 -0.234 -0.229 -0.478 -0.474 -0.542 -0.395 -0.103 -0.397 -0.119 -0.019 -0.146 0.234 -0.016 0.478 -0.229 0.542 -0.474 0.103 -0.395 0.119 -0.397 0.146 -0.019 0.016 0.234 0.229 0.478 0.474 0.542 0.395 0.103 0.397 0.119 0.019 0.146 -0.234 0.016 -0.478 0.229 -0.542 0.474 -0.103 0.395 -0.119 0.397 -0.146 0.019 z" style="opacity:0.99"/><path d="m 82.11 178.66 c 0 -0.338 0.169 -0.508 0.508 -0.508 0.338 0 0.508 0.169 0.508 0.508 0 0.338 -0.169 0.508 -0.508 0.508 -0.338 0 -0.508 -0.169 -0.508 -0.508 z" style="opacity:0.99"/><path d="m 87.51 183.06 c 0.244 -0.064 0.444 -0.279 0.444 -0.478 0 -0.556 0.938 -0.431 1.089 0.146 0.118 0.451 0.014 0.504 -0.922 0.478 -0.58 -0.016 -0.855 -0.082 -0.611 -0.146 z" style="opacity:0.99"/><path d="m 70.18 164.7 c 0 -0.338 -0.169 -0.508 -0.508 -0.508 -0.423 0 -0.508 -0.169 -0.508 -1.015 0 -0.846 -0.085 -1.015 -0.508 -1.015 -0.423 0 -0.508 -0.169 -0.508 -1.015 0 -0.846 -0.085 -1.015 -0.508 -1.015 -0.423 0 -0.508 -0.169 -0.508 -1.015 0 -0.846 -0.085 -1.015 -0.508 -1.015 -0.423 0 -0.508 -0.169 -0.508 -1.015 0 -0.846 -0.085 -1.015 -0.508 -1.015 -0.423 0 -0.508 -0.169 -0.508 -1.015 0 -0.846 -0.085 -1.015 -0.508 -1.015 -0.451 0 -0.508 -0.169 -0.508 -1.523 0 -1.354 0.056 -1.523 0.508 -1.523 0.423 0 0.508 0.169 0.508 1.015 0 0.846 0.085 1.015 0.508 1.015 0.423 0 0.508 0.169 0.508 1.015 0 0.846 0.085 1.015 0.508 1.015 0.432 0 0.508 0.169 0.508 1.142 0 0.973 0.075 1.142 0.508 1.142 0.411 0 0.508 0.169 0.508 0.888 0 0.719 0.097 0.888 0.508 0.888 0.423 0 0.508 0.169 0.508 1.015 0 0.846 0.085 1.015 0.508 1.015 0.423 0 0.508 0.169 0.508 1.015 0 0.846 0.085 1.015 0.508 1.015 0.423 0 0.508 0.169 0.508 1.015 0 0.846 -0.085 1.015 -0.508 1.015 -0.338 0 -0.508 -0.169 -0.508 -0.508 z" style="opacity:0.99"/><path d="m 157.24 85.64 c 0 -0.209 0.171 -0.381 0.381 -0.381 0.209 0 0.381 0.171 0.381 0.381 0 0.209 -0.171 0.381 -0.381 0.381 -0.209 0 -0.381 -0.171 -0.381 -0.381 z" style="opacity:0.99"/><path d="m 154.98 88.62 c -0.023 -0.44 0.102 -0.564 0.542 -0.542 0.405 0.021 0.446 0.062 0.143 0.143 -0.236 0.062 -0.479 0.306 -0.542 0.542 -0.08 0.304 -0.122 0.262 -0.143 -0.143 z" style="opacity:0.99"/><path d="m 114.09 81.71 c 0 -0.338 0.169 -0.508 0.508 -0.508 0.338 0 0.508 0.169 0.508 0.508 0 0.338 -0.169 0.508 -0.508 0.508 -0.338 0 -0.508 -0.169 -0.508 -0.508 z" style="opacity:0.99"/><path d="m 154.19 87.67 c 0 -0.212 0.226 -0.381 0.508 -0.381 0.338 0 0.508 -0.169 0.508 -0.508 0 -0.348 0.169 -0.508 0.537 -0.508 0.433 0 0.508 0.111 0.384 0.571 -0.084 0.314 -0.155 0.714 -0.156 0.888 -0.002 0.193 -0.352 0.317 -0.892 0.317 -0.62 0 -0.888 -0.115 -0.888 -0.381 z" style="opacity:0.99"/><path d="m 156.98 85.64 c 0 -0.209 -0.171 -0.381 -0.381 -0.381 -0.212 0 -0.381 -0.226 -0.381 -0.508 0 -0.338 0.169 -0.508 0.508 -0.508 0.411 0 0.508 0.169 0.508 0.888 0 0.489 -0.057 0.888 -0.127 0.888 -0.07 0 -0.127 -0.171 -0.127 -0.381 z" style="opacity:0.99"/><path d="m 162.06 168.67 c 0 -0.192 0.357 -0.42 0.793 -0.508 1.158 -0.232 1.237 -0.209 1.237 0.349 0 0.423 -0.169 0.508 -1.015 0.508 -0.692 0 -1.015 -0.111 -1.015 -0.349 z" style="opacity:0.99"/><path d="m 160.28 171.68 c 0 -0.209 0.171 -0.381 0.381 -0.381 0.209 0 0.381 0.171 0.381 0.381 0 0.209 -0.171 0.381 -0.381 0.381 -0.209 0 -0.381 -0.171 -0.381 -0.381 z" style="opacity:0.99"/><path d="m 158.7 171.12 c 0.314 -0.06 0.571 -0.273 0.571 -0.473 0 -0.2 0.228 -0.363 0.508 -0.363 0.338 0 0.508 -0.169 0.508 -0.508 0 -0.581 0.961 -0.714 1.472 -0.203 0.447 0.447 0.372 0.711 -0.203 0.711 -0.279 0 -0.508 0.157 -0.508 0.349 0 0.37 -1.14 0.689 -2.253 0.632 -0.598 -0.031 -0.608 -0.046 -0.095 -0.145 z" style="opacity:0.99"/><path d="m 174.03 161.66 c 0 -0.349 0.058 -0.492 0.128 -0.317 0.07 0.174 0.07 0.46 0 0.635 -0.07 0.174 -0.128 0.032 -0.128 -0.317 z" style="opacity:0.99"/><path d="m 172.97 161.66 c 0 -0.338 0.169 -0.508 0.508 -0.508 0.338 0 0.508 0.169 0.508 0.508 0 0.338 -0.169 0.508 -0.508 0.508 -0.338 0 -0.508 -0.169 -0.508 -0.508 z" style="opacity:0.99"/><path d="m 171.2 162.67 c 0 -0.282 0.169 -0.508 0.381 -0.508 0.212 0 0.381 0.226 0.381 0.508 0 0.282 -0.169 0.508 -0.381 0.508 -0.212 0 -0.381 -0.226 -0.381 -0.508 z" style="opacity:0.99"/><path d="m 101.15 165.72 c 0 -0.338 0.169 -0.508 0.508 -0.508 0.338 0 0.508 0.169 0.508 0.508 0 0.338 -0.169 0.508 -0.508 0.508 -0.338 0 -0.508 -0.169 -0.508 -0.508 z" style="opacity:0.99"/><path d="m 99.12 164.7 c 0 -0.423 0.169 -0.508 1.015 -0.508 0.846 0 1.015 0.085 1.015 0.508 0 0.423 -0.169 0.508 -1.015 0.508 -0.846 0 -1.015 -0.085 -1.015 -0.508 z" style="opacity:0.99"/><path d="m 98.1 163.69 c 0 -0.338 0.169 -0.508 0.508 -0.508 0.338 0 0.508 0.169 0.508 0.508 0 0.338 -0.169 0.508 -0.508 0.508 -0.338 0 -0.508 -0.169 -0.508 -0.508 z" style="opacity:0.99"/><path d="m 97.09 163.69 c 0 -0.338 0.169 -0.508 0.508 -0.508 0.338 0 0.508 0.169 0.508 0.508 0 0.338 -0.169 0.508 -0.508 0.508 -0.338 0 -0.508 -0.169 -0.508 -0.508 z" style="opacity:0.99"/><path d="m 136.98 148.78 c -0.034 -1.221 -0.132 -1.586 -0.425 -1.586 -0.275 0 -0.381 -0.282 -0.381 -1.015 0 -0.715 0.108 -1.015 0.366 -1.015 0.246 0 0.398 -0.353 0.463 -1.079 0.077 -0.852 0.106 -0.745 0.142 0.508 0.034 1.221 0.132 1.586 0.425 1.586 0.275 0 0.381 0.282 0.381 1.015 0 0.715 -0.108 1.015 -0.366 1.015 -0.246 0 -0.398 0.353 -0.463 1.079 -0.077 0.852 -0.106 0.745 -0.142 -0.508 z" style="opacity:0.99"/></g></g></svg>