<svg xmlns="http://www.w3.org/2000/svg" xmlns:xlink="http://www.w3.org/1999/xlink" viewBox="0 0 256 256"><defs><clipPath id="0"><path transform="matrix(15.33333 0 0 11.5 415 -125.5)" d="m -24 13 c 0 1.105 -0.672 2 -1.5 2 -0.828 0 -1.5 -0.895 -1.5 -2 0 -1.105 0.672 -2 1.5 -2 0.828 0 1.5 0.895 1.5 2 z"/></clipPath></defs><g transform="translate(0 -796.36)"><path d="m 130.42 1050.99 c -26.397 -2.057 -57.29 -14.72 -78.83 -32.31 -26.2 -21.399 -45.35 -54.22 -50.5 -86.57 -1.13 -7.092 -1.453 -23.445 -0.608 -30.714 3.512 -30.18 21.232 -60.19 47.08 -79.75 c 14.03 -10.613 32.581 -19.06 49.988 -22.755 45.3 -9.623 92.56 8.596 124.96 48.17 19.418 23.721 29.473 47.634 31.924 75.92 2.939 33.913 -10.415 70.28 -34.795 94.76 -19.15 19.229 -44.836 31.456 -69.22 32.951 -3.536 0.217 -7.875 0.498 -9.643 0.625 -1.768 0.127 -6.429 -0.02 -10.357 -0.326 z" style="fill:#fff"/><g transform="matrix(6.18638 0 0 5.99803 -21.03 787.72)" style="fill:#ffe4c4"><g style="clip-path:url(#0)"><g transform="translate(1 1)" style="opacity:0.1"><g style="stroke:#dedede;stroke-linecap:round;stroke-linejoin:round"><path transform="matrix(0.16848 -0.01176 0.01188 0.16967 19.791 15.916)" d="m 52.913 -8.454 l 30.573 44.851 l -15.994 51.89 l -50.553 19.84 l -47.03 -27.14 l -8.08 -53.698 l 36.913 -39.803" id="2" style="fill:#ffe4c4;stroke-width:7.842"/><path transform="matrix(0.07153 -0.00499 0.00504 0.07203 21.915 19.988)" d="m 52.906 -8.477 l 29.94 67.21 l -54.7 49.24 l -63.706 -36.793 l 15.286 -71.934" id="3" style="fill:#ffe4c4;stroke-width:18.471"/></g><path d="m 29.828 11 c 0 0 -1.781 2.582 -4.852 7.926 l 1.086 0.621 c 3.055 -5.309 4.797 -7.832 4.797 -7.832 l -1.035 -0.715 m -10.215 0.324 l -1.238 0.184 c 0.789 5.332 1.199 7.438 1.348 8.156 -6.176 0.773 -8.508 0.402 -8.508 0.402 l -0.215 1.23 c 0 0 2.695 0.453 9.551 -0.465 l -0.078 -0.621 l 0.609 -0.137 c 0 0 -0.523 -2.344 -1.469 -8.754 m 16.91 8.109 c 0 0 -2.559 1.059 -8.566 3.598 l -0.641 0.27 l 0.336 0.609 c 2.973 5.398 6.402 8.141 6.402 8.141 l 0.781 -0.973 c 0 0 -2.957 -2.383 -5.73 -7.164 5.059 -2.137 7.895 -3.316 7.895 -3.316 l -0.48 -1.156 m -17.11 5.398 c -4.105 4.777 -7.07 6.371 -7.07 6.371 l 0.59 1.102 c 0 0 3.211 -1.754 7.422 -6.66 l -0.949 -0.813 m 4.434 2.477 c -0.473 6.57 -0.824 9.543 -0.824 9.543 l 1.238 0.148 c 0 0 0.355 -3.01 0.836 -9.605 l -1.246 -0.086" id="1"/><path d="m 20.383,19.17 c -1.137,0.008 -2.266,0.441 -3.105,1.293 l -4.063,4.09 1.789,1.801 3.836,-3.863 0.223,-0.227 c 0.621,-0.625 2,-0.68 2.68,0.008 l 2.082,2.098 1.785,-1.809 -2.082,-2.09 C 22.657,19.592 21.518,19.158 20.38,19.17 m 0.004,0"/><path d="m 34.28 20.426 l -4.059 4.09 c -0.621 0.625 -2 0.68 -2.688 -0.008 l -2.074 -2.098 l -1.801 1.805 l 2.082 2.098 c 1.742 1.758 4.578 1.703 6.266 0.008 l 4.059 -4.094"/><path d="m 36.434 20 c -0.648 -0.656 -1.559 -0.629 -2.223 -0.422 -0.664 0.207 -1.254 0.598 -1.789 1.137 -0.531 0.535 -0.922 1.133 -1.125 1.801 -0.207 0.668 -0.234 1.586 0.418 2.238 0.648 0.656 1.555 0.625 2.219 0.418 0.66 -0.207 1.254 -0.598 1.789 -1.133 0.531 -0.539 0.922 -1.137 1.125 -1.805 0.203 -0.668 0.234 -1.582 -0.414 -2.234"/></g></g><g style="clip-path:url(#0)"><g style="fill:#ff4500"><g style="stroke:#dedede;stroke-linecap:round;stroke-linejoin:round"><use xlink:href="#2" width="256" height="256"/><use xlink:href="#3" width="256" height="256"/></g><use xlink:href="#1"/><g style="stroke:none;fill-rule:evenodd"><g transform="matrix(0.16165 0 0 0.16672 3.399 2.509)"><path d="m 113.7 146.96 l -11.211 -5.332 l 1.155 -1.229 c 0.635 -0.676 1.145 -1.475 1.133 -1.775 -0.034 -0.831 -5.165 -4.637 -6.127 -4.545 -0.465 0.044 -0.846 -0.385 -0.846 -0.955 0 -3.094 3.122 -21.923 3.696 -22.288 0.372 -0.237 1.644 -0.435 2.826 -0.439 2.113 -0.009 2.144 -0.042 1.831 -1.97 -0.286 -1.762 -0.157 -2 1.271 -2.36 0.874 -0.219 1.663 -0.321 1.752 -0.225 0.089 0.096 -0.72 6.077 -1.798 13.291 -1.078 7.214 -1.966 13.641 -1.973 14.283 -0.011 0.948 2.238 2.23 12.05 6.869 l 12.06 5.703 l 8.965 -8.909 c 4.931 -4.9 9.157 -9.399 9.391 -9.997 0.35 -0.894 0.809 -0.445 2.576 2.522 l 2.15 3.609 l -8.892 9.285 c -7.735 8.08 -8.915 9.101 -9.07 7.874 -0.167 -1.31 -0.457 -1.425 -4.081 -1.607 -4.089 -0.206 -4.752 0.112 -4.766 2.287 -0.005 0.721 -0.206 1.296 -0.446 1.277 -0.24 -0.019 -5.482 -2.434 -11.648 -5.367 z"/><path d="m 140.72 113.11 c -6.071 -11.174 -7.313 -13.793 -6.543 -13.793 0.128 0 1.374 0.653 2.769 1.45 3.104 1.774 3.805 1.813 4.305 0.24 0.258 -0.812 0.584 -1.029 0.969 -0.645 0.319 0.319 3.135 5.264 6.257 10.989 l 5.677 10.409 l -2.672 1.051 c -1.469 0.578 -2.968 1.437 -3.33 1.909 -0.53 0.691 -1.976 -1.568 -7.433 -11.612 z"/><path d="m 171.51 93.39 c -7.03 -8.706 -13.14 -16.327 -13.572 -16.935 -0.686 -0.97 -0.544 -1.5 1.147 -4.29 1.061 -1.751 2.101 -3.115 2.311 -3.03 0.553 0.22 30.408 37.23 30.17 37.4 -0.441 0.316 -6.503 2.685 -6.871 2.685 -0.217 0 -6.15 -7.123 -13.185 -15.829 z"/><path d="m 180.13 156.72 l -2.923 -3.279 l 0.779 -3.306 c 3.049 -12.936 6.819 -28.709 7.269 -30.414 0.485 -1.837 0.933 -2.193 4.49 -3.573 2.173 -0.843 4.03 -1.335 4.121 -1.094 0.189 0.489 -10.162 44.29 -10.561 44.692 -0.139 0.139 -1.568 -1.223 -3.176 -3.03 z"/><path d="m 131.25 187.23 c 0.214 -2.306 0.449 -4.251 0.521 -4.322 0.072 -0.071 9.707 -4.586 21.41 -10.03 l 21.278 -9.903 l 2.688 2.968 l 2.688 2.969 l -24.23 11.257 c -13.328 6.191 -24.347 11.257 -24.487 11.257 -0.14 0 -0.079 -1.887 0.135 -4.192 z"/><path d="m 97.95 179.62 l -23.466 -11.193 l 2.479 -2.181 c 1.363 -1.2 2.939 -2.34 3.502 -2.535 1.012 -0.35 42.525 18.976 42.45 19.76 -0.021 0.204 -0.037 1.944 -0.037 3.868 0 2.416 -0.225 3.494 -0.729 3.486 -0.401 -0.007 -11.288 -5.05 -24.19 -11.205 z"/><path d="m 70.986 160.35 c 0 -0.152 -2.358 -10.583 -5.241 -23.18 -2.882 -12.596 -5.133 -23.01 -5 -23.14 0.132 -0.132 1.815 -0.382 3.74 -0.557 l 3.501 -0.317 l 0.579 2.263 c 0.318 1.245 2.47 10.6 4.783 20.789 4.136 18.225 4.186 18.545 3.108 19.739 -1.306 1.447 -5.468 4.799 -5.468 4.405 z"/><path d="m 64.09 104.65 c 0.32 -0.803 29.897 -36.742 30.27 -36.784 0.583 -0.064 1.723 9.422 1.215 10.11 -0.262 0.352 -5.392 6.609 -11.4 13.903 l -10.924 13.263 h -4.679 c -2.573 0 -4.591 -0.22 -4.484 -0.488 z"/></g><path d="m 28.369 18.828 c -0.421 1.615 -0.697 2.024 -4.711 6.985 -0.705 0.871 -1.37 1.798 -1.479 2.061 -0.252 0.607 -0.256 1.903 -0.008 2.638 0.115 0.34 0.839 1.405 1.903 2.795 0.945 1.235 2.042 2.679 2.439 3.208 l 0.721 0.962 l -0.99 1.234 l -0.99 1.234 l -2.621 -3.486 c -2.653 -3.529 -3.01 -4.118 -3.375 -5.594 -0.212 -0.855 -0.22 -2.721 -0.016 -3.594 0.358 -1.53 0.807 -2.212 4.089 -6.217 1.993 -2.433 2.298 -2.984 2.289 -4.149 -0.007 -1.04 -0.31 -1.82 -1.079 -2.78 -0.56 -0.699 -0.696 -0.798 -1.261 -0.921 -1.412 -0.306 -2.848 -1.78 -3.613 -3.708 -0.39 -0.983 -0.413 -1.112 -0.382 -2.146 0.028 -0.957 0.074 -1.167 0.353 -1.613 0.993 -1.59 3 -1.173 4.676 0.97 0.857 1.098 1.373 2.278 1.527 3.489 0.076 0.603 0.192 0.83 0.935 1.845 0.589 0.804 0.973 1.485 1.258 2.23 0.381 0.997 0.412 1.175 0.445 2.536 0.022 0.922 -0.019 1.67 -0.11 2.02 z"/><g transform="matrix(0.16165 0 0 0.16672 3.399 1.44)" style="fill:#ffdead"><path d="m 73.22 140.58 c -2.593 -11.322 -4.685 -20.627 -4.649 -20.679 0.037 -0.052 3.222 -0.293 7.078 -0.536 7.882 -0.496 16.361 -1.233 21.274 -1.848 1.81 -0.227 3.351 -0.361 3.423 -0.298 0.164 0.142 -3.052 23.03 -3.464 24.65 -0.246 0.966 -1.785 2.67 -8.359 9.253 -4.432 4.438 -8.627 8.513 -9.323 9.06 l -1.265 0.987 l -4.715 -20.585 z"/><path d="m 74.41 110.78 c 3.511 -4.391 21.728 -26.313 21.803 -26.24 0.053 0.053 0.661 3.38 1.351 7.392 0.69 4.01 1.682 9.479 2.206 12.149 0.524 2.67 0.901 4.906 0.837 4.97 -0.278 0.278 -24.08 2.637 -26.612 2.637 -0.173 0 0.014 -0.41 0.414 -0.91 z"/><path d="m 106.01 138.15 c 0 -0.175 0.838 -6.168 1.863 -13.318 1.528 -10.66 1.806 -13.224 1.547 -14.243 -1.553 -6.1 -6.231 -32.446 -6.231 -35.09 v -1.102 h 13.01 h 13.01 l 2.06 2.586 c 2.239 2.812 4.84 7.803 5.512 10.58 0.607 2.508 0.532 8.528 -0.132 10.627 -1.461 4.617 -3.813 7.805 -20.606 27.931 -2.518 3.02 -5.685 6.897 -7.04 8.621 -3.01 3.836 -2.991 3.811 -2.991 3.412 z"/><path d="m 151.52 122.67 l -2.909 -5.328 l 0.916 -1.334 c 2.421 -3.526 4.733 -9.333 5.399 -13.56 0.205 -1.298 0.31 -5.401 0.259 -10.05 -0.085 -7.759 -0.078 -7.867 0.647 -9.04 0.711 -1.15 0.751 -1.169 1.303 -0.611 0.837 0.846 26.927 33.15 26.922 33.33 -0.005 0.19 -28.854 11.919 -29.31 11.915 -0.176 -0.002 -1.629 -2.4 -3.229 -5.33 z"/><path d="m 173.69 155.66 c -5.649 -7.06 -14.655 -20.327 -14.14 -20.823 0.238 -0.228 25.577 -10.593 25.67 -10.501 0.112 0.111 -8.212 34.647 -8.394 34.827 -0.104 0.102 -1.517 -1.474 -3.14 -3.503 z"/><path d="m 131.8 186.59 c 0.1 -1.279 0.634 -7.897 1.187 -14.708 l 1.01 -12.382 l 6.52 -6.74 c 3.586 -3.707 7.856 -8.06 9.489 -9.681 l 2.97 -2.941 l 1.352 2.157 c 5.448 8.696 10.731 15.779 19.17 25.708 0.812 0.954 0.832 1.046 0.303 1.329 -0.583 0.312 -40.946 19.07 -41.741 19.4 -0.365 0.151 -0.41 -0.219 -0.259 -2.143 z"/><path d="m 126.3 150.51 c -1.505 -0.72 -2.736 -1.44 -2.736 -1.601 0 -0.161 0.891 -1.371 1.979 -2.688 3.322 -4.02 15.592 -18.932 16.645 -20.227 l 0.989 -1.217 l 2.184 4.03 c 1.201 2.219 2.225 4.186 2.274 4.372 0.111 0.414 -17.714 18.636 -18.23 18.636 -0.203 0 -1.6 -0.589 -3.105 -1.309 z"/><path d="m 121.17 181.93 c -3.126 -4.401 -4.733 -7.05 -5.132 -8.465 -1.224 -4.335 -1.012 -11.781 0.422 -14.843 1.433 -3.058 1.107 -3 5.466 -0.964 l 3.835 1.792 v 1.12 c 0.001 1.51 -1.887 24.585 -2.02 24.72 -0.059 0.059 -1.215 -1.453 -2.569 -3.36 z"/></g></g></g></g></g></g></svg>