<svg xmlns="http://www.w3.org/2000/svg" viewBox="0 0 256 256"><defs><clipPath><rect rx="4" y="1" x="1" height="46" width="46" style="fill:#1890d0"/></clipPath><clipPath><rect rx="4" y="1" x="1" height="46" width="46" style="fill:#1890d0"/></clipPath><clipPath><rect rx="4" y="1" x="1" height="46" width="46" style="fill:#1890d0"/></clipPath><clipPath><rect rx="4" y="1" x="1" height="46" width="46" style="fill:#1890d0"/></clipPath><clipPath><rect rx="4" y="1" x="1" height="46" width="46" style="fill:#1890d0"/></clipPath><clipPath><rect rx="4" y="1" x="1" height="46" width="46" style="fill:#1890d0"/></clipPath><clipPath><rect rx="4" y="1" x="1" height="46" width="46" style="fill:#1890d0"/></clipPath><clipPath><rect rx="4" y="1" x="1" height="46" width="46" style="fill:#1890d0"/></clipPath><clipPath><rect rx="4" y="1" x="1" height="46" width="46" style="fill:#1890d0"/></clipPath><clipPath><rect rx="4" y="1" x="1" height="46" width="46" style="fill:#1890d0"/></clipPath><clipPath><rect rx="4" y="1" x="1" height="46" width="46" style="fill:#1890d0"/></clipPath><clipPath><rect rx="4" y="1" x="1" height="46" width="46" style="fill:#1890d0"/></clipPath><clipPath><rect rx="4" y="1" x="1" height="46" width="46" style="fill:#1890d0"/></clipPath><clipPath id="0"><path d="m -24 13 c 0 1.105 -0.672 2 -1.5 2 -0.828 0 -1.5 -0.895 -1.5 -2 0 -1.105 0.672 -2 1.5 -2 0.828 0 1.5 0.895 1.5 2 z" transform="matrix(15.33333 0 0 11.5 415 -125.5)"/></clipPath><clipPath><rect rx="4" y="1" x="1" height="46" width="46" style="fill:#1890d0"/></clipPath><clipPath><rect rx="4" y="1" x="1" height="46" width="46" style="fill:#1890d0"/></clipPath><clipPath><rect rx="4" y="1" x="1" height="46" width="46" style="fill:#1890d0"/></clipPath><clipPath><rect rx="4" y="1" x="1" height="46" width="46" style="fill:#1890d0"/></clipPath><clipPath><rect rx="4" y="1" x="1" height="46" width="46" style="fill:#1890d0"/></clipPath><clipPath><rect rx="4" y="1" x="1" height="46" width="46" style="fill:#1890d0"/></clipPath><clipPath><rect rx="4" y="1" x="1" height="46" width="46" style="fill:#1890d0"/></clipPath></defs><g transform="translate(-0.197 -795.11)" style="color:#000"><path transform="matrix(0 1 -1 0 1711.59 2401.81)" d="m -1374.42 1658.71 c 127.95 -192.46 -280.09 -311 -226.07 -62.2 23.02 102.82 167.39 165.22 226.07 62.2 z" style="fill:#fff"/><g transform="matrix(5.23138 0 0 5.0253 9.597 809.37)" style="fill:#ff4500"><g transform="matrix(1 0 0 0.99399 0 -0.416)" style="clip-path:url(#0)"><path d="m 25,13.497 c -5.521,0 -10,1.888 -10,3.615 v 3.836 c 0,0.453 0.318,0.912 0.875,1.352 C 15.318,22.741 15,23.198 15,23.652 v 3.836 c 0,0.453 0.318,0.912 0.875,1.352 C 15.318,29.281 15,29.738 15,30.192 v 3.836 c 0,1.723 4.48,3.615 10,3.615 5.524,0 10,-1.892 10,-3.615 V 30.192 C 35,29.738 34.682,29.281 34.125,28.84 34.682,28.4 35,27.941 35,27.488 V 23.652 C 35,23.198 34.682,22.741 34.125,22.3 34.682,21.86 35,21.401 35,20.948 v -3.836 c 0,-1.727 -4.476,-3.615 -10,-3.615 z" style="fill-opacity:0.12"/></g><g transform="translate(0 -0.5)"><g transform="matrix(1 0 0 0.99399 0 0.084)"><path d="M 23.998,12.491 C 18.477,12.491 14,14.392 14,16.119 v 3.814 c 0,1.723 4.478,3.624 9.998,3.624 5.524,0 10,-1.901 10,-3.624 v -3.814 c 0,-1.727 -4.478,-3.628 -10,-3.628"/><path d="M 23.998,19.03 C 18.477,19.03 14,20.931 14,22.658 v 3.814 c 0,1.723 4.478,3.624 9.998,3.624 5.524,0 10,-1.901 10,-3.624 v -3.814 c 0,-1.727 -4.478,-3.628 -10,-3.628"/><path d="M 23.998,25.57 C 18.477,25.57 14,27.471 14,29.198 v 3.815 c 0,1.723 4.478,3.624 9.998,3.624 5.524,0 10,-1.901 10,-3.624 v -3.814 c 0,-1.727 -4.478,-3.628 -10,-3.628"/></g><g><path d="m 33 16.2 c 0 1.657 -4.03 3.3 -9 3.3 -4.971 0 -9 -1.643 -9 -3.3 0 -1.657 4.03 -3.1 9 -3.1 4.971 0 9 1.443 9 3.1 z"/><path d="m 15.563 21.688 c -0.349 0.327 -0.563 0.64 -0.563 1 0 1.657 4.03 3.313 9 3.313 4.971 0 9 -1.656 9 -3.313 0 -0.365 -0.204 -0.7 -0.563 -1.032 -1.774 1.043 -4.871 1.844 -8.438 1.844 -3.541 0 -6.658 -0.778 -8.438 -1.812 z"/><path d="m 15.563 28.19 c -0.349 0.327 -0.563 0.64 -0.563 1 0 1.657 4.03 3.313 9 3.313 4.971 0 9 -1.656 9 -3.313 0 -0.365 -0.204 -0.7 -0.563 -1.032 -1.774 1.043 -4.871 1.844 -8.438 1.844 -3.541 0 -6.658 -0.778 -8.438 -1.812 z"/></g></g><path d="m 16.748 11.745 c -6.531 3.352 -4.757 11.69 -2.478 15.821 0.962 0.224 1.816 0.652 2.585 1.044 -0.734 -0.322 -1.577 -0.421 -2.429 -0.564 0.149 0.444 0.297 0.853 0.441 1.215 1.26 0.22 2.773 1.081 2.773 1.081 0 0 -0.106 -0.05 -0.514 -0.195 -0.362 -0.128 -1.73 -0.341 -2.052 -0.39 0.349 0.795 0.658 1.278 0.854 1.305 0.379 0.053 0.89 0.251 1.416 0.499 1.186 0.559 2.448 1.376 2.448 1.376 1.475 1.502 2.904 2.93 4.989 3.671 l 0.446 -0.369 c -1.196 -0.47 -2.507 -1.304 -3.631 -2.525 -1.721 -1.866 -3.473 -4.408 -4.537 -7.577 -1.384 -4.949 -1.274 -9.834 0.046 -13.12 -1.042 3.149 -0.403 9.863 0.459 12.675 0.748 2.619 1.939 4.541 3.129 6.509 -0.747 -2.121 1.303 -4.782 1.303 -4.782 0 0 0.286 -1.928 0.362 -4.435 -1.122 1.131 -2.157 2.281 -3.046 3.552 0 0 1.452 -2.644 3.064 -4.556 0.023 -4.77 -0.865 -10.857 -5.627 -10.246" style="fill:#ffdead"/></g></g></svg>