<svg xmlns="http://www.w3.org/2000/svg" xmlns:xlink="http://www.w3.org/1999/xlink" viewBox="0 0 256 256"><defs><path id="0" d="m 76 34 a 2 2 0 1 1 -4 0 2 2 0 1 1 4 0 z"/><clipPath><rect y="6" x="6" rx="6" height="84" width="84" style="fill:#fff"/></clipPath></defs><g style="color:#000"><path d="m 226.22 211.58 c 62.27 -95.76 12.03 -183 -58.47 -203.69 -94.83 -27.843 -223.59 45.32 -138.75 196.1 c 33.72 59.925 152.85 75.79 197.21 7.587 z" style="fill:#fff"/><g transform="matrix(4.33702 0 0 4.5677 21.998 24.587)" style="fill:#ff4500"><path d="m 37.767 30.421 a 9.525 9.526 0 0 1 -19.05 0 9.525 9.526 0 1 1 19.05 0 z"/><g transform="matrix(0.47619 0 0 0.47619 1.143 1.143)"><use transform="matrix(1.5 0 0 1.5 -30 -14)" xlink:href="#0" width="256" height="256" style="opacity:0.8"/><use transform="matrix(1.5 0 0 1.5 -96 -30)" xlink:href="#0" width="256" height="256"/><use transform="matrix(0.75 0 0 0.75 28 -3)" xlink:href="#0" width="256" height="256"/><use transform="matrix(0.5 0 0 0.5 50 22)" xlink:href="#0" width="256" height="256"/><use transform="matrix(0.75 0 0 0.75 -39 15)" xlink:href="#0" width="256" height="256"/><use transform="matrix(0.75 0 0 0.75 -33 28)" xlink:href="#0" width="256" height="256"/><use transform="matrix(0.5 0 0 0.5 -10 40)" xlink:href="#0" width="256" height="256"/><use transform="matrix(0.5 0 0 0.5 -22 28)" xlink:href="#0" width="256" height="256"/><use transform="matrix(0.5 0 0 0.5 -16 -2)" xlink:href="#0" width="256" height="256"/><use transform="matrix(0.5 0 0 0.5 32 0)" xlink:href="#0" width="256" height="256"/><use transform="matrix(0.5 0 0 0.5 26 28)" xlink:href="#0" width="256" height="256"/><use transform="matrix(1.5 0 0 1.5 -42 -24)" xlink:href="#0" width="256" height="256"/><use transform="matrix(1.5 0 0 1.5 -36 -36)" xlink:href="#0" width="256" height="256"/><use transform="matrix(0.75 0 0 0.75 6 -13)" xlink:href="#0" width="256" height="256"/></g></g></g></svg>