<svg xmlns="http://www.w3.org/2000/svg" viewBox="0 0 256 256"><defs><clipPath><rect y="6" x="6" rx="6" height="84" width="84" style="fill:#ff4500"/></clipPath><clipPath><path d="m 62 6 c -3.324 0 -6 2.676 -6 6 v 0.531 c 0 -3.611 2.921 -6.531 6.531 -6.531 h -0.531 z m 71.47 0 c 3.611 0 6.531 2.921 6.531 6.531 v -0.531 c 0 -3.324 -2.676 -6 -6 -6 h -0.531 z m 6.531 6.531 c 0 36.735 -3.543 60.1 -7.844 69.938 c -10.816 5.03 -35.677 7.531 -69.62 7.531 h 71.47 c 3.324 0 6 -2.676 6 -6 v -71.47 z m -77.47 77.47 c -3.611 -0.005 -6.531 -2.921 -6.531 -6.531 v 0.531 c 0 3.324 2.676 6 6 6 h 0.531 z"/></clipPath><clipPath><path transform="matrix(15.33333 0 0 11.5 415 -125.5)" d="m -24 13 c 0 1.105 -0.672 2 -1.5 2 -0.828 0 -1.5 -0.895 -1.5 -2 0 -1.105 0.672 -2 1.5 -2 0.828 0 1.5 0.895 1.5 2 z"/></clipPath><linearGradient x2="0" gradientUnits="userSpaceOnUse" id="0" y1="47" y2="1"><stop style="stop-color:#c22428"/><stop offset="1" style="stop-color:#d3272c"/></linearGradient></defs><g transform="translate(0 -796.36)"><path d="m 254.37 914.68 c 14.532 155.28 -230.55 197.08 -249.59 37.632 -23.59 -146.61 198.57 -222.12 243 -76.44 c 4.868 12.317 4.775 25.786 6.59 38.807 z" style="fill:#fff;color:#000"/><g transform="matrix(3.52538 0 0 3.37384 42.67 841.08)" style="fill:#ff4500"><path d="m 24 4 v 21.5 v 18.5 h 20 v -40 h -10" style="fill:url(#0)"/><path d="m 24 4 h -12 h -8 v 40 h 20 v -20" style="fill:#ffdead"/><g style="fill:#000"><path d="m 25,13 0,24 4,0 L 27.03125,26.25 41,28 41,22 27.03125,23.75 29,13 Z m 0,0" style="opacity:0.1"/><path d="m 25,14 -4,8 -10,-0.996 8,8 -3,9 9,-5 m 0,-19" style="opacity:0.1"/></g><path d="m 24,12 0,24 4,0 L 26.03125,25.25 40,27 40,21 26.03125,22.75 28,12 Z m 0,0" style="fill:#ffdead"/><path d="m 24,13 -4,8 -10,-0.996 8,8 -3,9 9,-5 m 0,-19"/></g></g></svg>