<svg xmlns="http://www.w3.org/2000/svg" viewBox="0 0 256 256"><defs><clipPath><rect rx="4" y="1" x="1" height="46" width="46" style="fill:#1890d0;stroke-width:1"/></clipPath><clipPath><rect rx="4" y="1" x="1" height="46" width="46" style="fill:#1890d0;stroke-width:1"/></clipPath><clipPath><rect rx="4" y="1" x="1" height="46" width="46" style="fill:#1890d0;stroke-width:1"/></clipPath><clipPath><rect rx="4" y="1" x="1" height="46" width="46" style="fill:#1890d0;stroke-width:1"/></clipPath><clipPath><rect rx="4" y="1" x="1" height="46" width="46" style="fill:#1890d0;stroke-width:1"/></clipPath><clipPath><rect rx="4" y="1" x="1" height="46" width="46" style="fill:#1890d0;stroke-width:1"/></clipPath><clipPath><rect rx="4" y="1" x="1" height="46" width="46" style="fill:#1890d0;stroke-width:1"/></clipPath><clipPath><rect rx="4" y="1" x="1" height="46" width="46" style="fill:#1890d0;stroke-width:1"/></clipPath><clipPath><rect rx="4" y="1" x="1" height="46" width="46" style="fill:#1890d0;stroke-width:1"/></clipPath><clipPath><rect rx="4" y="1" x="1" height="46" width="46" style="fill:#1890d0;stroke-width:1"/></clipPath><clipPath><rect rx="4" y="1" x="1" height="46" width="46" style="fill:#1890d0;stroke-width:1"/></clipPath><clipPath><rect rx="4" y="1" x="1" height="46" width="46" style="fill:#1890d0;stroke-width:1"/></clipPath><clipPath><rect rx="4" y="1" x="1" height="46" width="46" style="fill:#1890d0;stroke-width:1"/></clipPath><clipPath><rect rx="4" y="1" x="1" height="46" width="46" style="fill:#1890d0;stroke-width:1"/></clipPath><clipPath><rect rx="4" y="1" x="1" height="46" width="46" style="fill:#1890d0;stroke-width:1"/></clipPath><clipPath><rect rx="4" y="1" x="1" height="46" width="46" style="fill:#1890d0;stroke-width:1"/></clipPath><clipPath><rect rx="4" y="1" x="1" height="46" width="46" style="fill:#1890d0;stroke-width:1"/></clipPath><clipPath><rect rx="4" y="1" x="1" height="46" width="46" style="fill:#1890d0;stroke-width:1"/></clipPath><clipPath><rect rx="4" y="1" x="1" height="46" width="46" style="fill:#1890d0;stroke-width:1"/></clipPath><clipPath><rect rx="4" y="1" x="1" height="46" width="46" style="fill:#1890d0;stroke-width:1"/></clipPath><clipPath><rect rx="4" y="1" x="1" height="46" width="46" style="fill:#1890d0;stroke-width:1"/></clipPath><clipPath><rect rx="4" y="1" x="1" height="46" width="46" style="fill:#1890d0;stroke-width:1"/></clipPath><clipPath><rect rx="4" y="1" x="1" height="46" width="46" style="fill:#1890d0;stroke-width:1"/></clipPath><clipPath><rect rx="4" y="1" x="1" height="46" width="46" style="fill:#1890d0;stroke-width:1"/></clipPath><clipPath><rect rx="4" y="1" x="1" height="46" width="46" style="fill:#1890d0;stroke-width:1"/></clipPath><clipPath><rect rx="4" y="1" x="1" height="46" width="46" style="fill:#1890d0;stroke-width:1"/></clipPath><clipPath><rect rx="4" y="1" x="1" height="46" width="46" style="fill:#1890d0;stroke-width:1"/></clipPath><clipPath><rect rx="4" y="1" x="1" height="46" width="46" style="fill:#1890d0;stroke-width:1"/></clipPath><clipPath><rect rx="4" y="1" x="1" height="46" width="46" style="fill:#1890d0;stroke-width:1"/></clipPath><clipPath><rect rx="4" y="1" x="1" height="46" width="46" style="fill:#1890d0;stroke-width:1"/></clipPath><clipPath><rect rx="4" y="1" x="1" height="46" width="46" style="fill:#1890d0;stroke-width:1"/></clipPath><clipPath><rect rx="4" y="1" x="1" height="46" width="46" style="fill:#1890d0;stroke-width:1"/></clipPath><clipPath><rect rx="4" y="1" x="1" height="46" width="46" style="fill:#1890d0;stroke-width:1"/></clipPath><clipPath><rect rx="4" y="1" x="1" height="46" width="46" style="fill:#1890d0;stroke-width:1"/></clipPath><clipPath><rect rx="4" y="1" x="1" height="46" width="46" style="fill:#1890d0;stroke-width:1"/></clipPath><clipPath><rect rx="4" y="1" x="1" height="46" width="46" style="fill:#1890d0;stroke-width:1"/></clipPath><clipPath><rect rx="4" y="1" x="1" height="46" width="46" style="fill:#1890d0;stroke-width:1"/></clipPath><clipPath><rect rx="4" y="1" x="1" height="46" width="46" style="fill:#1890d0;stroke-width:1"/></clipPath><clipPath><rect rx="4" y="1" x="1" height="46" width="46" style="fill:#1890d0;stroke-width:1"/></clipPath><clipPath><rect rx="4" y="1" x="1" height="46" width="46" style="fill:#1890d0;stroke-width:1"/></clipPath><clipPath><rect rx="4" y="1" x="1" height="46" width="46" style="fill:#1890d0;stroke-width:1"/></clipPath><clipPath><rect rx="4" y="1" x="1" height="46" width="46" style="fill:#1890d0;stroke-width:1"/></clipPath><clipPath><rect rx="4" y="1" x="1" height="46" width="46" style="fill:#1890d0;stroke-width:1"/></clipPath><clipPath id="0"><path d="m -24 13 c 0 1.105 -0.672 2 -1.5 2 -0.828 0 -1.5 -0.895 -1.5 -2 0 -1.105 0.672 -2 1.5 -2 0.828 0 1.5 0.895 1.5 2 z" transform="matrix(15.33333 0 0 11.5 415 -125.5)"/></clipPath><clipPath><rect rx="4" y="1" x="1" height="46" width="46" style="fill:#1890d0;stroke-width:1"/></clipPath><clipPath><rect rx="4" y="1" x="1" height="46" width="46" style="fill:#1890d0;stroke-width:1"/></clipPath><clipPath><rect rx="4" y="1" x="1" height="46" width="46" style="fill:#1890d0;stroke-width:1"/></clipPath><clipPath><rect width="84" height="84" rx="6" x="6" y="6" style="fill:#ff4500"/></clipPath><clipPath><rect rx="4" y="1" x="1" height="46" width="46" style="fill:#1890d0;stroke-width:1"/></clipPath><clipPath><rect rx="4" y="1" x="1" height="46" width="46" style="fill:#1890d0;stroke-width:1"/></clipPath><clipPath><rect rx="4" y="1" x="1" height="46" width="46" style="fill:#1890d0;stroke-width:1"/></clipPath><clipPath><rect rx="4" y="1" x="1" height="46" width="46" style="fill:#1890d0;stroke-width:1"/></clipPath><clipPath><rect rx="4" y="1" x="1" height="46" width="46" style="fill:#1890d0;stroke-width:1"/></clipPath><clipPath><rect rx="4" y="1" x="1" height="46" width="46" style="fill:#1890d0;stroke-width:1"/></clipPath><clipPath><rect rx="4" y="1" x="1" height="46" width="46" style="fill:#1890d0;stroke-width:1"/></clipPath><clipPath><rect rx="4" y="1" x="1" height="46" width="46" style="fill:#1890d0;stroke-width:1"/></clipPath><clipPath><rect rx="4" y="1" x="1" height="46" width="46" style="fill:#1890d0;stroke-width:1"/></clipPath><clipPath><rect rx="4" y="1" x="1" height="46" width="46" style="fill:#1890d0;stroke-width:1"/></clipPath><clipPath><rect rx="4" y="1" x="1" height="46" width="46" style="fill:#1890d0;stroke-width:1"/></clipPath><clipPath><rect rx="4" y="1" x="1" height="46" width="46" style="fill:#1890d0;stroke-width:1"/></clipPath></defs><g transform="translate(0 -796.36)"><path d="m -1374.42 1658.71 c 127.95 -192.46 -280.09 -311 -226.07 -62.2 23.02 102.82 167.39 165.22 226.07 62.2 z" transform="matrix(0 -1 0.96449 0 -1399.15 -552.58)" style="fill:#fff;color:#000"/><g transform="matrix(6.59332 0 0 6.80844 -30.947 757.63)" style="clip-path:url(#0)"><g style="fill:#ff4500"><path d="m 24 13.602 c 0 0 -4.402 -2.496 -5.707 -1.254 -0.652 0.621 -1.477 1.836 -1.359 3 0.215 2.207 1.816 6.883 2.156 7.262 0.34 0.379 0.738 0.57 0.852 0.418 0.113 -0.152 0.398 -0.684 0 -0.723 -0.398 -0.039 -1.703 -3.496 -1.816 -4.258 -0.113 -0.762 -0.953 -2.785 -0.219 -4.191 0.738 -1.406 0.953 -1.363 1.809 -1.363 0.852 0 4.289 1.715 4.289 1.715"/><path d="m 21.781 24.2 h 4.438 c 1.535 0 2.781 0.219 2.781 0.484 v 10.836 c 0 0.266 -1.246 0.48 -2.781 0.48 h -4.438 c -1.535 0 -2.781 -0.215 -2.781 -0.48 v -10.836 c 0 -0.266 1.246 -0.484 2.781 -0.484"/><path d="m 16 24.05 c 0 1.262 15.848 1.082 16 0.543 -1.273 -2.438 -5.113 -7.633 -7.887 -7.582 -2.625 -0.219 -7.977 6.074 -8.113 7.04"/><path d="m 28.06 22.695 c 0 0.348 -0.371 0.629 -0.832 0.629 -0.461 0 -0.832 -0.281 -0.832 -0.629 0 -0.348 0.371 -0.633 0.832 -0.633 0.461 0 0.832 0.285 0.832 0.633"/><path d="m 24 13.598 c 0 0 3.383 -2.395 4.773 -1.25 0.918 0.754 1.277 1.305 1.363 3 0.109 2.211 -1.82 6.883 -2.16 7.262 -0.34 0.379 -0.734 0.57 -0.848 0.418 -0.113 -0.152 -0.133 -0.75 0.266 -0.789 0.395 -0.039 1.277 -2.457 1.684 -4.125 0.508 -2.105 0.488 -3.316 0.078 -4.254 -0.625 -1.461 -0.953 -1.363 -1.805 -1.363 -0.852 0 -3.359 1.723 -3.359 1.723"/><path d="m 23.43 26 h 1.141 c 1.895 0 3.43 0.219 3.43 0.484 v 8.03 c 0 0.27 -1.535 0.477 -3.43 0.477 h -1.141 c -1.895 0 -3.43 -0.215 -3.43 -0.477 v -8.03 c 0 -0.266 1.535 -0.484 3.43 -0.484" style="fill:#ffdead;fill-opacity:0.604"/><path d="m 28 34.602 c 0 0.328 -1.793 0.598 -4 0.598 -2.211 0 -4 -0.27 -4 -0.598 0 -0.332 1.789 -0.602 4 -0.602 c 2.207 0 4 0.27 4 0.602" style="fill-opacity:0.557"/><path d="m 24 29.672 c 0.551 0 0.996 0.133 0.996 0.301 v 4.426 c 0 0.168 -0.445 0.301 -0.996 0.301 -0.555 0 -1 -0.133 -1 -0.301 v -4.426 c 0 -0.168 0.445 -0.301 1 -0.301"/><path d="m 24.656 29.11 c 0 0.777 -0.32 1.406 -0.715 1.406 -0.395 0 -0.715 -0.629 -0.715 -1.406 0 -0.777 0.32 -1.406 0.715 -1.406 0.395 0 0.715 0.629 0.715 1.406"/><path d="m 24.469 29.11 c 0 0.57 -0.234 1.035 -0.523 1.035 -0.293 0 -0.527 -0.465 -0.527 -1.035 0 -0.57 0.234 -1.035 0.527 -1.035 0.289 0 0.523 0.465 0.523 1.035"/><path d="m 24.27 29.11 c -0.02 0.324 -0.16 0.57 -0.324 0.57 -0.168 0 -0.309 -0.246 -0.324 -0.57 -0.016 -0.242 0.043 -0.48 0.148 -0.609 0.105 -0.129 0.242 -0.129 0.348 0 0.105 0.129 0.164 0.367 0.152 0.609"/><path d="m 24.478 28.922 c -0.033 0.499 -0.264 0.877 -0.536 0.877 -0.278 0 -0.511 -0.378 -0.536 -0.877 -0.026 -0.372 0.071 -0.739 0.245 -0.937 0.174 -0.198 0.4 -0.198 0.575 0 0.174 0.198 0.271 0.565 0.251 0.937" style="fill:#ffd700"/></g></g></g></svg>