<svg xmlns="http://www.w3.org/2000/svg" viewBox="0 0 256 256" xmlns:xlink="http://www.w3.org/1999/xlink"><defs><clipPath><path transform="matrix(15.33333 0 0 11.5 415 -125.5)" d="m -24 13 c 0 1.105 -0.672 2 -1.5 2 -0.828 0 -1.5 -0.895 -1.5 -2 0 -1.105 0.672 -2 1.5 -2 0.828 0 1.5 0.895 1.5 2 z"/></clipPath></defs><g transform="translate(0 -796.36)"><path d="m 26.373 856.53 c -92.05 130.93 77.948 263.6 186.39 156.91 102.17 -100.51 7.449 -256.68 -119.69 -207.86 -26.526 10.185 -49.802 26.914 -66.7 50.948 z" style="fill:#fff;color:#000"/><g transform="matrix(3.23945 0 0 3.71541 48.32 839.4)" style="fill:#ff4500"><g transform="matrix(1.44656 0 0 1.44656 -7.687 -9.752)" style="opacity:0.1"><path d="m 14.385 30.1 c 5.932 9.712 12.866 9.712 18.84 0 0.207 -1.647 0 -15.76 0 -15.76 h -18.84 c 0 0 -0.302 14.569 0 15.76 z" id="0"/><path d="m 16.09 29.618 c 4.854 8.25 10.526 8.25 15.415 0 0.169 -1.399 0 -13.387 0 -13.387 h -15.415 c 0 0 -0.247 12.376 0 13.387 z" id="1"/></g><g transform="matrix(1.44656 0 0 1.44656 -9.134 -11.198)"><use xlink:href="#0"/><use xlink:href="#1"/></g><g transform="matrix(1.02943 -1.01627 0.98886 1.05579 -7.706 -9.2)" style="opacity:0.1"><rect width="1.96" height="36.1" x="-0.347" y="16.02" rx="0.684"/><rect width="12.813" height="7.696" x="-5.706" y="18.16" rx="1.01"/></g><g transform="matrix(1.02943 -1.01627 0.98886 1.05579 -9.153 -10.647)" style="fill:#ffdead"><rect y="16.02" x="-0.347" height="36.1" width="1.96" rx="0.684"/><rect y="18.16" x="-5.706" height="7.696" width="12.813" rx="1.01"/></g><g transform="matrix(1.56228 0 0 1.56228 -9.998 -12.483)" style="opacity:0.1"><g><path d="m 35.508 11.647 l -0.671 3.02 l -18.434 18.905 l -2.272 -2.336 l 18.434 -18.905 l 2.943 -0.686 l -19.897 20.406 z"/><path d="m 15.539 32.05 l 19.921 -20.421 l -2.883 0.68 l -18.17 18.638 z"/></g><rect width="1.629" height="6.902" x="32.752" y="11.165" transform="matrix(0.69731 0.71677 -0.69818 0.71592 0 0)" rx="0.697" id="2"/><path d="m 12.917 29.991 l 4.699 4.83" style="stroke:#502d16;stroke-width:0.896"/></g><g transform="matrix(1.56228 0 0 1.56228 -11.445 -13.929)"><g><path d="m 35.508 11.647 l -0.671 3.02 l -18.434 18.905 l -2.272 -2.336 l 18.434 -18.905 l 2.943 -0.686 l -19.897 20.406 z" style="fill:#ff7f50"/><path d="m 15.539 32.05 l 19.921 -20.421 l -2.883 0.68 l -18.17 18.638 z" style="fill:#ffa07a"/></g><use xlink:href="#2"/><path d="m 12.917 29.991 l 4.699 4.83" style="stroke:#ff4500;stroke-width:0.896"/></g></g></g></svg>