<svg xmlns="http://www.w3.org/2000/svg" viewBox="0 0 256 256"><defs><clipPath><rect width="46" height="46" x="1" y="1" rx="4" style="fill:#1890d0;stroke-width:1"/></clipPath><clipPath><rect width="46" height="46" x="1" y="1" rx="4" style="fill:#1890d0;stroke-width:1"/></clipPath><clipPath><rect width="46" height="46" x="1" y="1" rx="4" style="fill:#1890d0;stroke-width:1"/></clipPath><clipPath><rect width="46" height="46" x="1" y="1" rx="4" style="fill:#1890d0;stroke-width:1"/></clipPath><clipPath><rect width="46" height="46" x="1" y="1" rx="4" style="fill:#1890d0;stroke-width:1"/></clipPath><clipPath><rect width="46" height="46" x="1" y="1" rx="4" style="fill:#1890d0;stroke-width:1"/></clipPath><clipPath><rect width="46" height="46" x="1" y="1" rx="4" style="fill:#1890d0;stroke-width:1"/></clipPath><clipPath><rect width="46" height="46" x="1" y="1" rx="4" style="fill:#1890d0;stroke-width:1"/></clipPath><clipPath><rect width="46" height="46" x="1" y="1" rx="4" style="fill:#1890d0;stroke-width:1"/></clipPath><clipPath><rect width="46" height="46" x="1" y="1" rx="4" style="fill:#1890d0;stroke-width:1"/></clipPath><clipPath><rect width="46" height="46" x="1" y="1" rx="4" style="fill:#1890d0;stroke-width:1"/></clipPath><clipPath><rect width="46" height="46" x="1" y="1" rx="4" style="fill:#1890d0;stroke-width:1"/></clipPath><clipPath><rect width="46" height="46" x="1" y="1" rx="4" style="fill:#1890d0;stroke-width:1"/></clipPath><clipPath><rect width="46" height="46" x="1" y="1" rx="4" style="fill:#1890d0;stroke-width:1"/></clipPath><clipPath><rect width="46" height="46" x="1" y="1" rx="4" style="fill:#1890d0;stroke-width:1"/></clipPath><clipPath><rect width="46" height="46" x="1" y="1" rx="4" style="fill:#1890d0;stroke-width:1"/></clipPath><clipPath><rect width="46" height="46" x="1" y="1" rx="4" style="fill:#1890d0;stroke-width:1"/></clipPath><clipPath><rect width="46" height="46" x="1" y="1" rx="4" style="fill:#1890d0;stroke-width:1"/></clipPath><clipPath><rect width="46" height="46" x="1" y="1" rx="4" style="fill:#1890d0;stroke-width:1"/></clipPath><clipPath><rect width="46" height="46" x="1" y="1" rx="4" style="fill:#1890d0;stroke-width:1"/></clipPath><clipPath><rect width="46" height="46" x="1" y="1" rx="4" style="fill:#1890d0;stroke-width:1"/></clipPath><clipPath><rect width="46" height="46" x="1" y="1" rx="4" style="fill:#1890d0;stroke-width:1"/></clipPath><clipPath><rect width="46" height="46" x="1" y="1" rx="4" style="fill:#1890d0;stroke-width:1"/></clipPath><clipPath><rect width="46" height="46" x="1" y="1" rx="4" style="fill:#1890d0;stroke-width:1"/></clipPath><clipPath><rect width="46" height="46" x="1" y="1" rx="4" style="fill:#1890d0;stroke-width:1"/></clipPath><clipPath><rect width="46" height="46" x="1" y="1" rx="4" style="fill:#1890d0;stroke-width:1"/></clipPath><clipPath><rect width="46" height="46" x="1" y="1" rx="4" style="fill:#1890d0;stroke-width:1"/></clipPath><clipPath><rect width="46" height="46" x="1" y="1" rx="4" style="fill:#1890d0;stroke-width:1"/></clipPath><clipPath><rect width="46" height="46" x="1" y="1" rx="4" style="fill:#1890d0;stroke-width:1"/></clipPath><clipPath><rect width="46" height="46" x="1" y="1" rx="4" style="fill:#1890d0;stroke-width:1"/></clipPath><clipPath><rect width="46" height="46" x="1" y="1" rx="4" style="fill:#1890d0;stroke-width:1"/></clipPath><clipPath><rect width="46" height="46" x="1" y="1" rx="4" style="fill:#1890d0;stroke-width:1"/></clipPath><clipPath><rect width="46" height="46" x="1" y="1" rx="4" style="fill:#1890d0;stroke-width:1"/></clipPath><clipPath><rect width="46" height="46" x="1" y="1" rx="4" style="fill:#1890d0;stroke-width:1"/></clipPath><clipPath><rect width="46" height="46" x="1" y="1" rx="4" style="fill:#1890d0;stroke-width:1"/></clipPath><clipPath><rect width="46" height="46" x="1" y="1" rx="4" style="fill:#1890d0;stroke-width:1"/></clipPath><clipPath><rect width="46" height="46" x="1" y="1" rx="4" style="fill:#1890d0;stroke-width:1"/></clipPath><clipPath><rect width="46" height="46" x="1" y="1" rx="4" style="fill:#1890d0;stroke-width:1"/></clipPath><clipPath><rect width="46" height="46" x="1" y="1" rx="4" style="fill:#1890d0;stroke-width:1"/></clipPath><clipPath><rect width="46" height="46" x="1" y="1" rx="4" style="fill:#1890d0;stroke-width:1"/></clipPath><clipPath><rect width="46" height="46" x="1" y="1" rx="4" style="fill:#1890d0;stroke-width:1"/></clipPath><clipPath><rect width="46" height="46" x="1" y="1" rx="4" style="fill:#1890d0;stroke-width:1"/></clipPath><clipPath><path transform="matrix(15.33333 0 0 11.5 415 -125.5)" d="m -24 13 c 0 1.105 -0.672 2 -1.5 2 -0.828 0 -1.5 -0.895 -1.5 -2 0 -1.105 0.672 -2 1.5 -2 0.828 0 1.5 0.895 1.5 2 z"/></clipPath><clipPath><rect width="46" height="46" x="1" y="1" rx="4" style="fill:#1890d0;stroke-width:1"/></clipPath><clipPath><rect width="46" height="46" x="1" y="1" rx="4" style="fill:#1890d0;stroke-width:1"/></clipPath><clipPath><rect width="46" height="46" x="1" y="1" rx="4" style="fill:#1890d0;stroke-width:1"/></clipPath><clipPath><rect width="46" height="46" x="1" y="1" rx="4" style="fill:#1890d0;stroke-width:1"/></clipPath><clipPath><rect width="46" height="46" x="1" y="1" rx="4" style="fill:#1890d0;stroke-width:1"/></clipPath><clipPath><rect width="46" height="46" x="1" y="1" rx="4" style="fill:#1890d0;stroke-width:1"/></clipPath><clipPath><rect width="46" height="46" x="1" y="1" rx="4" style="fill:#1890d0;stroke-width:1"/></clipPath><clipPath><rect width="46" height="46" x="1" y="1" rx="4" style="fill:#1890d0;stroke-width:1"/></clipPath><clipPath><rect width="46" height="46" x="1" y="1" rx="4" style="fill:#1890d0;stroke-width:1"/></clipPath><clipPath><rect width="46" height="46" x="1" y="1" rx="4" style="fill:#1890d0;stroke-width:1"/></clipPath><clipPath><rect width="46" height="46" x="1" y="1" rx="4" style="fill:#1890d0;stroke-width:1"/></clipPath><clipPath><rect width="46" height="46" x="1" y="1" rx="4" style="fill:#1890d0;stroke-width:1"/></clipPath><clipPath><rect width="46" height="46" x="1" y="1" rx="4" style="fill:#1890d0;stroke-width:1"/></clipPath><clipPath><rect width="46" height="46" x="1" y="1" rx="4" style="fill:#1890d0;stroke-width:1"/></clipPath><clipPath><rect y="6" x="6" rx="6" height="84" width="84" style="fill:#ff4500"/></clipPath><clipPath><rect width="46" height="46" x="1" y="1" rx="4" style="fill:#1890d0;stroke-width:1"/></clipPath><clipPath><rect width="46" height="46" x="1" y="1" rx="4" style="fill:#1890d0;stroke-width:1"/></clipPath></defs><g transform="translate(0 -796.36)" style="color:#000"><path d="m -1374.42 1658.71 c 127.95 -192.46 -280.09 -311 -226.07 -62.2 23.02 102.82 167.39 165.22 226.07 62.2 z" transform="matrix(0 1 -1 0 1711.59 2401.81)" style="fill:#fff"/><g transform="matrix(5.19418 0 0 4.95164 3.67 799.41)"><path d="m 134.78 67.37 a 63.46 73.76 0 1 1 -1.913 1.336 l 33.641 62.54 z" transform="matrix(0.19846 -0.07865 0.06569 0.18035 -16.999 14)" style="fill:#ff4500;stroke:#ff4500;fill-rule:evenodd"/><path d="m 16.433 9.323 c -5.154 3.109 -8.33 8.866 -8.33 15.08 h 11.533 c 0 -1.98 1.034 -3.697 2.563 -4.624 l -5.767 -10.461 z m 16.659 0 l -5.767 10.461 c 1.529 0.927 2.563 2.644 2.563 4.624 h 11.533 c 0 -6.219 -3.175 -11.975 -8.33 -15.08 z m -8.33 11.737 c -1.769 0 -3.204 1.499 -3.204 3.347 0 1.849 1.434 3.347 3.204 3.347 1.769 0 3.204 -1.499 3.204 -3.347 0 -1.849 -1.434 -3.347 -3.204 -3.347 z m -2.563 7.971 l -5.767 10.461 c 5.154 3.109 11.505 3.109 16.659 0 l -5.767 -10.461 c -0.755 0.458 -1.627 0.732 -2.563 0.732 -0.936 0 -1.808 -0.274 -2.563 -0.732 z" style="fill:#ffdead"/></g></g></svg>