<svg xmlns="http://www.w3.org/2000/svg" xmlns:xlink="http://www.w3.org/1999/xlink" viewBox="0 0 256 256"><defs><clipPath id="0"><path transform="matrix(15.33333 0 0 11.5 415 -125.5)" d="m -24 13 c 0 1.105 -0.672 2 -1.5 2 -0.828 0 -1.5 -0.895 -1.5 -2 0 -1.105 0.672 -2 1.5 -2 0.828 0 1.5 0.895 1.5 2 z"/></clipPath></defs><g transform="translate(0 -796.36)"><path d="m 229.63 992.2 c 92.05 -130.93 -77.948 -263.6 -186.39 -156.91 -102.17 100.51 -7.449 256.68 119.69 207.86 c 26.526 -10.185 49.802 -26.914 66.7 -50.948 z" style="fill:#fff;color:#000"/><g transform="matrix(7.35842 0 0 5.39154 -57.58 793.34)" style="fill:#ff4500"><g style="clip-path:url(#0)"><g transform="translate(1 1)" style="opacity:0.1"><path d="m 28.328 11.609 c 6.469 3.727 8.34 11.18 4.938 17.641 -4.863 8.102 -13.516 7.336 -18.469 4.203 5.05 4.547 15.25 5.109 20.2 -3.453 3.98 -7.445 0.238 -15.84 -6.672 -18.391" id="1"/><path d="m 16 14 h 7 v 8 h -7" id="2"/><path d="m 21 17 v 1 h -2 v 4 h 8 v -5" id="3"/><path d="m 22 20 v 2 h -2 v 2 h 5 v 9 h 1 v -9 h 1 v -4"/><path d="m 23 21 h 1 v 1 h -1" id="4" style="fill:#ff4500"/><path d="m 25 21 h 1 v 1 h -1" id="5" style="fill:#ff4500"/><path d="m 23 23 h 1 v 1 h -1" id="6" style="fill:#ff4500"/><path d="m 25 23 h 1 v 1 h -1" id="7" style="fill:#ff4500"/><path d="m 21 16 h 6 v 1 h -6" id="8"/><path d="m 22 15 h 4 v 1 h -4" id="9"/><path d="m 23 12 v 4 h 1 v 4 h 1 v -7 h 1 v -1"/><path d="m 25 13 h 1 v 1 h -1" id="A"/><path d="m 26 11 v 1 h -3 v -1" id="B"/><path d="m 24 10 h 1 v 1 h -1" id="C"/><path d="m 21 15 h 1 v 1 h -1" id="D"/><path d="m 26 18 h 1 v 1 h -1" id="E" style="fill:#ff4500"/><path d="m 22 18 h 1 v 1 h -1" id="F" style="fill:#ff4500"/><path d="m 19 18 h 1 v 1 h -1"/><path d="m 16 13 h 7 v 1 h -7" id="G"/><path d="m 18 22 h 1 v 1 h -1" id="H"/><path d="m 20 24 h 7 v 3 h -7" id="I"/><path d="m 20 27 h 7 v 2 h -7" id="J"/><path d="m 18 23 h 1 v 10 h -1" id="K"/><path d="m 17 27 h 2 v 1 h -2" id="L" style="fill:#ff4500"/><path d="m 19 29 v 3 h -1 v -3" id="M" style="fill:#ff4500"/><path d="m 20 29 h 1 v 1 h -1" id="N"/><path d="m 20 30 h 1 v 3 h -1" id="O" style="fill:#ff4500"/><path d="m 27 23 v 6 h -1 v 3 h 1 v -1 h 1 v -8" id="P" style="fill:#ff4500"/><path d="m 26 29 h 1 v 1 h -1" id="Q" style="fill:#ff4500"/><path d="m 19 33 h 1 v 1 h -1" id="R" style="fill:#ff4500"/><path d="m 20 33 h 1 v 7 h -1" id="S" style="fill:#ff4500"/><path d="m 26 32 h 1 v 7 h -1" id="T" style="fill:#ff4500"/></g></g><g style="clip-path:url(#0)"><g><use xlink:href="#1"/><use xlink:href="#2"/><use xlink:href="#3"/><path d="m 22 20 v 2 h -2 v 2 h 5 v 9 h 1 v -9 h 1 v -4" style="fill:#ffdead"/><g><use xlink:href="#4"/><use xlink:href="#5"/></g><g style="fill:#ffdead"><use xlink:href="#6"/><use xlink:href="#7"/></g><use xlink:href="#8"/><use xlink:href="#9"/><path d="m 23 12 v 4 h 1 v 4 h 1 v -7 h 1 v -1" style="fill:#ffdead"/><use xlink:href="#A"/><use xlink:href="#B"/><use xlink:href="#C"/><use xlink:href="#D"/><g style="fill:#ffdead"><use xlink:href="#E"/><use xlink:href="#F"/><path d="m 19 18 h 1 v 1 h -1"/></g><use xlink:href="#G"/><use xlink:href="#H"/><use xlink:href="#I"/><use xlink:href="#J"/><use xlink:href="#K"/><g><use xlink:href="#L"/><use xlink:href="#M"/></g><use xlink:href="#N"/><g><use xlink:href="#O"/><use xlink:href="#P"/></g><g><use xlink:href="#Q"/><use xlink:href="#R"/></g><g><use xlink:href="#S"/><use xlink:href="#T"/></g></g></g></g></g></svg>