<svg xmlns="http://www.w3.org/2000/svg" xmlns:xlink="http://www.w3.org/1999/xlink" viewBox="0 0 256 256"><defs><path id="0" d="m 245.46 129.52 l -97.89 -96.9 c -5.556 -5.502 -16.222 -11.873 -23.7 -14.16 l -39.518 -12.08 c -7.479 -2.286 -18.1 0.391 -23.599 5.948 l -13.441 13.578 c -5.5 5.559 -14.502 14.653 -20 20.21 l -13.44 13.579 c -5.5 5.558 -8.07 16.206 -5.706 23.658 l 12.483 39.39 c 2.363 7.456 8.843 18.06 14.399 23.556 l 97.89 96.9 c 5.558 5.502 14.605 5.455 20.1 -0.101 l 36.26 -36.63 c 5.504 -5.559 14.503 -14.651 20 -20.21 l 36.26 -36.629 c 5.502 -5.56 5.455 -14.606 -0.101 -20.11 z m -178.09 -50.74 c -7.198 0 -13.03 -5.835 -13.03 -13.03 0 -7.197 5.835 -13.03 13.03 -13.03 7.197 0 13.03 5.835 13.03 13.03 -0.001 7.198 -5.836 13.03 -13.03 13.03 z"/><use id="1" xlink:href="#0"/><clipPath clip-path="url(#2)"><use xlink:href="#0"/></clipPath><clipPath clip-path="url(#2)"><use xlink:href="#0"/></clipPath><clipPath id="2"><use xlink:href="#1"/></clipPath></defs><path d="m 2.256 127.73 c -19.233 -169.75 256.06 -167.39 252.8 3.02 c 9.07 158.49 -267.8 172.79 -252.8 -3.02 z" fill="#fff" color="#000"/><g transform="matrix(0.44378 0 0 0.65007 13.85 -382.64)"><path d="m 112.45 724.3 8.136 135.41 127.85 55.5 142.38 -58.988 1.162 -130.76 -51.43 -21.21 -173.48 -4.359 z" fill="#d41a1a" fill-rule="evenodd"/><path fill="#ffc82d" d="M 29.0579,733.888 H478.874 V841.111 H29.0579 z"/><path fill="#fff" d="M 171.712,681.016 H326.413 V737.504 H171.712 z"/><path d="m 243.35 917.98 c -4.598 -0.837 -56.53 -22.451 -59.26 -24.665 -1.306 -1.059 -9.144 -4.651 -17.417 -7.982 -8.273 -3.331 -16 -6.809 -17.17 -7.727 -1.573 -1.232 -2.528 -0.962 -3.641 1.026 -0.83 1.483 -2.981 2.696 -4.781 2.696 -2.634 0 -3.125 -0.77 -2.519 -3.944 0.786 -4.113 0.405 -4.364 -20.572 -13.571 -3.837 -1.684 -5.145 -3.268 -5.144 -6.226 0.002 -3.763 -0.427 -3.955 -8.312 -3.715 -4.573 0.139 -9.03 0.401 -9.898 0.583 -0.871 0.182 -17.792 0.246 -37.604 0.143 l -36.02 -0.188 0.634 -13.854 c 0.349 -7.62 0.705 -36.12 0.791 -63.33 l 0.157 -49.48 16.1 0 c 8.853 0 15.656 -0.441 15.12 -0.98 -1.54 -1.54 2.714 -5.01 6.925 -5.643 2.465 -0.372 5.076 0.722 7.364 3.085 1.95 2.01 5.689 3.812 8.309 3.996 2.621 0.183 4.766 0.868 4.768 1.521 0.005 1.769 5.996 1.436 7.128 -0.396 0.538 -0.871 4.799 -1.583 9.468 -1.583 8.08 0 8.538 -0.221 9.499 -4.596 0.709 -3.226 2.516 -5.198 6.06 -6.614 5.417 -2.163 16.13 -6.861 30.783 -13.497 5.01 -2.268 11.776 -5.195 15.04 -6.505 l 5.937 -2.381 0 -10.12 0 -10.12 87.87 0 87.87 0 0 11.875 c 0 7.273 0.647 11.875 1.67 11.875 0.919 0 4.719 1.389 8.446 3.087 3.727 1.698 8.319 2.683 10.205 2.19 2.449 -0.64 3.429 -0.181 3.429 1.607 0 3.31 4.96 5.845 9.244 4.724 2.271 -0.594 3.429 -0.167 3.442 1.269 0.024 2.699 16.739 10.675 19.19 9.158 0.99 -0.612 4.375 -0.033 7.523 1.286 5.821 2.439 17.488 2.336 64.48 -0.568 l 16.01 -0.989 0.999 14.06 c 2.033 28.596 6.075 111.66 5.464 112.27 -0.348 0.348 -10.395 1.122 -22.328 1.721 -18.334 0.92 -21.703 1.481 -21.745 3.619 -0.044 2.23 -0.294 2.209 -2.108 -0.179 -1.863 -2.452 -4.066 -2.57 -23.304 -1.243 -11.685 0.806 -21.424 1.49 -21.642 1.521 -0.218 0.031 -0.396 1.74 -0.396 3.798 0 3.036 -1.717 4.497 -9.104 7.743 -15.751 6.922 -58.875 24.932 -59.697 24.932 -0.432 0 -5.614 2.213 -11.513 4.918 -5.9 2.705 -15.715 6.921 -21.81 9.369 -6.096 2.448 -15.358 6.419 -20.583 8.826 -5.225 2.407 -9.856 4.456 -10.292 4.553 -0.435 0.097 -3.285 1 -6.333 2.01 -5.243 1.734 -9.781 1.908 -16.737 0.643 z m 13.546 -15.673 c 0.033 -4.918 2.596 -4.468 4.517 0.792 l 1.59 4.354 0.323 -4.354 c 0.178 -2.395 0.429 -5.245 0.559 -6.333 0.13 -1.089 -0.642 -2.89 -1.714 -4 -1.072 -1.114 -1.591 -2.959 -1.153 -4.101 0.98 -2.554 -3.34 -6.405 -5.612 -5 -0.934 0.577 -1.642 6.663 -1.628 13.99 0.017 8.958 0.499 12.235 1.559 10.594 0.844 -1.306 1.546 -3.978 1.559 -5.937 z m -17.392 -10.894 c 0 -9.838 -0.36 -11.533 -2.084 -9.802 -1.462 1.468 -1.88 5.276 -1.4 12.76 0.912 14.233 3.484 12.05 3.484 -2.958 z m 12.561 0.602 -0.106 -13.06 -2.113 6.767 c -1.162 3.722 -1.733 9.6 -1.269 13.06 1.468 10.947 3.598 6.815 3.488 -6.767 z m -19.955 7.637 c 2.172 0.833 2.644 -0.016 2.644 -4.747 0 -3.169 -1.032 -8.233 -2.294 -11.253 -1.262 -3.02 -1.618 -5.491 -0.792 -5.491 0.826 0 1.503 -1.473 1.503 -3.273 0 -2.553 -0.697 -3.052 -3.167 -2.268 -1.817 0.577 -3.167 0.285 -3.167 -0.685 0 -0.93 0.69 -1.69 1.534 -1.69 0.843 0 1.148 -1 0.677 -2.232 -0.515 -1.342 0.452 -2.647 2.425 -3.273 1.805 -0.573 3.281 -1.908 3.281 -2.968 0 -1.69 3.767 -2.139 10.687 -1.274 3.17 0.396 2.284 3.104 -1.397 4.272 -2.557 0.812 -2.863 1.388 -1.263 2.377 1.162 0.718 2.699 0.944 3.415 0.501 0.716 -0.442 3.472 -0.328 6.125 0.255 3.257 0.715 4.546 1.782 3.969 3.284 -0.562 1.465 0.255 2.225 2.395 2.225 1.931 0 2.954 0.803 2.523 1.979 -0.399 1.089 -1.459 1.824 -2.355 1.634 -0.896 -0.19 -2.497 0.701 -3.558 1.979 -1.351 1.628 -1.397 2.324 -0.152 2.324 0.977 0 1.777 -0.831 1.777 -1.847 0 -1.016 0.534 -1.313 1.188 -0.66 0.653 0.653 1.187 1.959 1.187 2.903 0 0.943 0.891 2.01 1.98 2.375 1.257 0.419 1.629 -0.256 1.018 -1.847 -1.479 -3.853 3.536 -3.094 6.38 0.966 2.033 2.903 2.087 3.878 0.33 5.937 -2.232 2.616 -4.521 8.01 -3.4 8.01 0.367 0 2.482 -0.827 4.7 -1.837 5.02 -2.286 5.233 -7.02 0.724 -15.857 -2.683 -5.259 -2.908 -6.742 -1.188 -7.844 1.401 -0.898 3.01 -0.287 4.75 1.798 2.794 3.356 6.08 4.207 6.08 1.574 0 -0.871 1.069 -1.583 2.375 -1.583 1.306 0 2.375 -0.712 2.375 -1.583 0 -4.192 5.215 -0.69 10.996 7.383 7.564 10.563 8.347 9.284 1.699 -2.776 -5.221 -9.472 -6.01 -14.11 -2.404 -14.11 2.819 0 2.803 0.119 0.779 -5.701 l -1.596 -4.59 -19.383 1.177 c -22.24 1.351 -22.01 1.35 -49.553 0.263 l -20.67 -0.816 -2.844 12.06 c -1.564 6.635 -2.594 12.311 -2.288 12.615 0.306 0.304 5.01 3.066 10.444 6.139 l 9.888 5.587 0.942 -3.754 c 1.074 -4.281 5.406 -6.758 5.406 -3.092 0 1.306 -1.128 2.808 -2.508 3.337 -2.02 0.775 -2.096 1.223 -0.396 2.301 1.565 0.992 1.292 1.36 -1.055 1.42 -2.767 0.071 -2.567 0.58 1.583 4.03 2.612 2.174 3.503 3.497 1.979 2.94 -1.87 -0.683 -2.771 -0.228 -2.771 1.4 0 2.765 3.503 4.479 4.877 2.385 0.505 -0.77 2.108 -0.943 3.562 -0.385 z m 14.01 -0.319 c 0.282 -1.418 0.268 -6.406 -0.03 -11.08 -0.383 -5.999 -1.199 -8.505 -2.771 -8.505 -2.761 0 -2.929 2.576 -0.249 3.826 1.583 0.739 1.583 1.108 0 1.847 -2.924 1.365 -2.667 16.493 0.28 16.493 1.242 0 2.489 -1.16 2.771 -2.579 z m -24.03 -3.957 c 0 -2.351 -6.341 -7.177 -14.371 -10.938 -6.809 -3.189 -8.223 -3.406 -9.46 -1.451 -2.208 3.49 -2.157 3.541 8.734 8.764 10.1 4.843 15.1 6.04 15.1 3.624 z m -29.22 -16.58 c -3.869 -3.869 -4.262 -3.02 -2.562 5.497 0.065 0.324 1.167 -0.281 2.449 -1.345 1.998 -1.659 2.01 -2.251 0.113 -4.152 z m -7.195 -1.03 c 0 -3.092 -2.457 -4.494 -18.604 -10.614 -10.232 -3.878 -20.385 -7.971 -22.562 -9.09 -4.865 -2.511 -9.5 -2.662 -9.5 -0.31 0 0.964 0.942 1.391 2.093 0.95 1.151 -0.442 2.938 0.551 3.972 2.206 1.033 1.655 2.588 3.01 3.455 3.01 0.867 0 8.164 3.079 16.216 6.841 26.432 12.352 24.932 11.93 24.931 7.01 z m -42.749 -17.11 c 0 -0.922 0.713 -1.236 1.583 -0.698 0.871 0.538 1.583 1.293 1.583 1.677 0 0.384 -0.712 0.698 -1.583 0.698 -0.871 0 -1.583 -0.755 -1.583 -1.677 z m 55.39 9.367 c 0.038 -4.044 -4.435 -4.859 -6.41 -1.168 -1.396 2.608 -1.171 3.648 1.153 5.348 3.157 2.308 5.212 0.675 5.257 -4.18 z m -9.459 -0.961 c 0.001 -0.653 1.044 -4.572 2.299 -8.708 l 2.282 -7.521 -18.13 0 c -9.973 0 -18.13 0.538 -18.13 1.196 0 1.435 26.859 16.04 29.687 16.15 1.089 0.04 1.987 -0.462 1.996 -1.115 z m 144.07 -1.251 c 0 -0.47 -1.326 -3.498 -2.947 -6.729 -1.621 -3.231 -2.63 -6.765 -2.243 -7.854 0.464 -1.305 -0.943 -1.979 -4.128 -1.979 -3.645 0 -4.608 0.584 -3.921 2.375 0.501 1.306 1.796 2.375 2.877 2.375 1.081 0 3.25 2.85 4.821 6.333 2.415 5.356 5.542 8.447 5.542 5.479 z m -17.949 -9.833 c -3.087 -6.362 -3.636 -6.729 -10.05 -6.729 l -6.784 0 2.493 5.228 c 2.729 5.722 7.077 8.401 13.468 8.297 l 4.137 -0.067 -3.265 -6.729 z m -114.38 3.293 c 0.903 -2.353 -1.29 -5.182 -4.069 -5.248 -2.126 -0.051 -2.957 5.321 -1.015 6.554 2.98 1.891 3.953 1.641 5.084 -1.306 z m 163.52 -4.37 c 0.114 -4.04 -0.413 -5.213 -2.061 -4.581 -1.218 0.467 -2.215 1.574 -2.215 2.458 0 0.927 -1.01 0.773 -2.375 -0.363 -1.945 -1.614 -2.375 -1.506 -2.375 0.598 0 1.527 1.305 2.569 3.216 2.569 1.769 0 3.626 1.069 4.128 2.375 1.305 3.401 1.51 3.03 1.682 -3.056 z m -13 1.245 c 1.317 0.506 2.395 0.277 2.395 -0.508 0 -0.785 -1.425 -1.879 -3.167 -2.432 -1.742 -0.553 -3.167 -1.67 -3.167 -2.482 0 -0.812 -1.8 -1.477 -3.999 -1.477 -3.954 0 -3.971 0.055 -1.485 4.862 2.039 3.942 2.941 4.508 4.771 2.99 1.241 -1.03 3.334 -1.459 4.651 -0.953 z m 19.812 -0.262 c 0 -0.704 -1.046 -2.664 -2.325 -4.354 -2.373 -3.138 -3.195 -1.38 -1.464 3.13 0.993 2.587 3.789 3.49 3.789 1.224 z m 1.761 -5.508 c -1.293 -1.293 -1.761 -1.116 -1.761 0.666 0 3.147 2.129 5.277 2.916 2.916 0.334 -1 -0.186 -2.613 -1.155 -3.582 z m -80.18 -15.329 c 10.634 -2.465 10.778 -3.061 9.564 -39.633 -1.218 -36.688 -2.429 -45.613 -6.604 -48.677 -2.086 -1.53 -7.787 -2.064 -20.01 -1.873 -9.401 0.147 -17.535 -0.175 -18.08 -0.717 -0.541 -0.541 -5.14 -0.984 -10.22 -0.984 l -9.236 0 -0.001 7.521 c -0.016 12.853 -1.986 33.646 -3.188 33.646 -0.63 0 -1.62 -7.303 -2.2 -16.229 -1.682 -25.863 -1.259 -24.937 -11.403 -24.937 -5.518 0 -8.857 0.714 -9.255 1.979 -0.343 1.089 -1.532 12.667 -2.642 25.729 l -2.02 23.75 -1.951 -23.75 c -1.073 -13.06 -1.999 -24.641 -2.058 -25.729 -0.074 -1.357 -3.163 -1.979 -9.822 -1.979 l -9.715 0 1.067 7.521 c 2.576 18.15 10.447 79.957 10.447 82.03 0 1.769 2.464 2.284 10.936 2.284 l 10.936 0 1.142 -15.437 c 0.628 -8.491 1.63 -18.644 2.226 -22.562 0.952 -6.26 1.225 -5.202 2.243 8.708 0.637 8.708 1.564 18.861 2.06 22.562 l 0.901 6.729 10.571 0 10.571 0 3.515 -28.896 c 1.933 -15.893 3.586 -31.03 3.673 -33.646 0.405 -12.146 2.694 9.787 3.76 36.02 l 1.142 28.1 13.684 -0.038 c 7.526 -0.021 16.515 -0.694 19.975 -1.496 z m -14 -20.237 c -0.476 -3.266 -1.332 -16.803 -1.902 -30.08 -0.926 -21.589 -0.765 -24.15 1.519 -24.15 2.144 0 2.578 2.224 2.703 13.854 0.082 7.62 0.616 20.446 1.188 28.503 0.571 8.06 0.801 15.36 0.511 16.229 -1.159 3.469 -3.2 1.256 -4.02 -4.358 z m -200.53 17.365 c 3.254 -2.635 3.474 -4.059 3.316 -21.438 -0.104 -11.422 -0.902 -19.789 -2.066 -21.652 -1.043 -1.67 -5.128 -4.711 -9.08 -6.758 -6.648 -3.445 -8.094 -3.612 -19.453 -2.253 -6.749 0.807 -12.271 2.062 -12.271 2.789 0 1.69 4.955 5.259 15.508 11.169 l 8.383 4.695 -0.467 10.615 c -0.601 13.681 -3.391 13.151 -4.425 -0.84 l -0.792 -10.712 -9.5 0 -9.5 0 -0.455 14.658 c -0.429 13.812 -0.228 14.886 3.491 18.604 3.648 3.648 5.074 3.946 18.884 3.946 11.972 0 15.63 -0.56 18.424 -2.823 z m 30.12 -18.552 c 0 -17.944 0.381 -21.375 2.375 -21.375 1.994 0 2.375 3.431 2.375 21.375 l 0 21.375 9.5 0 9.5 0 0.034 -7.521 c 0.064 -14.07 0.083 -77.17 0.024 -80.75 -0.054 -3.292 -0.779 -3.563 -9.558 -3.563 l -9.5 0 0 14.14 0 14.14 9.104 -0.61 9.104 -0.61 -8.524 1.369 c -4.688 0.753 -9.12 2.326 -9.848 3.495 -0.99 1.591 -2.034 1.698 -4.143 0.428 -1.646 -0.992 -6.444 -1.321 -11.527 -0.792 l -8.708 0.907 -0.431 29.687 -0.431 29.687 10.327 0 10.327 0 0 -21.375 z m 72.19 18.04 c 2.796 -3.09 3.02 -6.211 3.02 -42.694 0 -47.811 1.426 -44.769 -21.354 -45.555 -15.06 -0.52 -15.871 -0.377 -19.738 3.491 -3.351 3.351 -4.03 5.515 -4.03 12.813 0 7.986 0.322 8.8 3.562 8.996 l 3.563 0.216 -3.659 0.699 -3.659 0.699 0.492 29.31 c 0.611 36.39 -0.067 35.36 23.381 35.36 13.66 0 15.755 -0.379 18.429 -3.334 z m -21.525 -42.583 c 0 -25.685 0.347 -30.08 2.375 -30.08 1.306 0 2.375 1.378 2.375 3.061 0 2.124 1.333 3.263 4.354 3.721 l 4.354 0.66 -4.354 0.237 -4.354 0.237 0 26.12 c 0 22.17 -0.36 26.12 -2.375 26.12 -2.028 0 -2.375 -4.398 -2.375 -30.08 z m -8.312 -21.632 c 1.089 -0.439 2.87 -0.439 3.958 0 1.089 0.439 0.198 0.799 -1.979 0.799 -2.177 0 -3.068 -0.359 -1.979 -0.799 z m 196.91 65.25 c 3.446 -1.408 6.152 -7.743 6.152 -14.403 l 0 -5.467 -10.11 0 c -9.127 0 -10.197 0.343 -11.03 3.535 -2.237 8.554 -3.966 -1.512 -5.03 -29.26 -0.756 -19.77 -0.599 -29.687 0.471 -29.687 2.469 0 3.048 2.897 3.319 16.625 0.138 6.967 0.69 18.19 1.226 24.937 l 0.975 12.271 10.27 0 10.27 0 -0.922 -8.312 c -0.507 -4.572 -1.395 -18.502 -1.973 -30.955 -1.377 -29.661 -1.338 -29.607 -21.551 -29.607 -11.555 0 -15.806 0.624 -19.14 2.807 -4.113 2.696 -4.282 3.354 -4.28 16.625 0.0001 7.6 0.745 25.574 1.653 39.943 1.6 25.337 1.777 26.24 5.861 29.889 3.926 3.508 5.129 3.708 17.743 2.937 7.443 -0.455 14.682 -1.297 16.09 -1.872 z m 40.985 -24.62 c 0.781 -22.646 1.35 -23.04 3.971 -2.771 l 0.973 7.521 12.345 0 12.345 0 1.758 -18.604 c 0.967 -10.232 2.263 -26.09 2.88 -35.23 1.536 -22.754 3.153 -14.299 4.616 24.14 l 1.131 29.697 8.886 0.003 8.886 0.003 -0.354 -10.691 -0.354 -10.691 3.055 10.09 c 1.68 5.549 3.264 10.261 3.521 10.471 0.256 0.21 5.369 0.864 11.362 1.455 l 10.896 1.074 -0.981 -15.503 c -0.54 -8.527 -1.45 -26.449 -2.02 -39.828 l -1.04 -24.325 -7.722 0.742 c -4.247 0.408 -8.151 1.171 -8.675 1.695 -0.524 0.524 -0.827 8.265 -0.673 17.202 0.154 8.937 -0.096 15.873 -0.554 15.414 -0.459 -0.459 -2.547 -7.918 -4.641 -16.577 l -3.806 -15.742 -18.797 0.571 c -10.338 0.314 -19.11 0.863 -19.49 1.22 -0.381 0.357 -1.093 11.856 -1.583 25.554 l -0.891 24.905 -2.072 -15.833 c -1.14 -8.708 -2.786 -20.11 -3.658 -25.344 l -1.586 -9.511 -9.01 0.803 -9.01 0.803 -0.961 20.583 c -0.529 11.321 -1.147 20.94 -1.373 21.375 -0.227 0.435 -1.671 -8.685 -3.209 -20.267 -1.538 -11.582 -3.058 -21.309 -3.377 -21.615 -0.319 -0.306 -4.57 -0.092 -9.448 0.476 l -8.868 1.032 5.701 33.892 c 4.964 29.506 6.111 34.05 8.868 35.12 2.677 1.036 2.738 1.243 0.396 1.337 -3.258 0.131 -3.305 0.632 -1.041 11.186 l 1.729 8.06 10.541 -0.465 10.541 -0.465 0.792 -22.958 z m -17.714 3.668 c 1.143 -0.457 2.509 -0.401 3.035 0.125 0.526 0.526 -0.409 0.9 -2.078 0.832 -1.844 -0.076 -2.22 -0.451 -0.957 -0.957 z m 46.23 16.519 c 0.001 -1.089 0.459 -4.651 0.999 -7.917 l 0.981 -5.937 -12.478 -0.0001 -12.478 -0.0001 0.549 7.918 0.549 7.918 10.93 0 c 7.68 0 10.936 -0.589 10.948 -1.979 z m 30.07 -5.753 c 0 -6.722 -1.997 -8.04 -12.271 -8.08 -5.05 -0.021 -5.146 0.116 -5.146 7.103 l 0 7.125 8.708 0 8.708 0 0 -6.149 z m 21.15 5.142 c 7.084 -0.971 7.346 -1.197 7.346 -6.333 l 0 -5.326 -11.209 0 -11.209 0 1.104 5.146 c 1.811 8.445 1.373 8.24 13.969 6.514 z m -411.54 -50.28 c 0.819 -0.204 1.302 -4.423 1.073 -9.375 -0.339 -7.309 0.052 -9 2.073 -9 1.969 0 2.49 1.863 2.49 8.915 l 0 8.915 5.937 -0.981 c 3.266 -0.54 7.541 -0.989 9.5 -0.999 3.389 -0.017 3.561 -0.616 3.538 -12.288 -0.013 -6.749 -0.548 -13.05 -1.187 -14.01 -2.575 -3.856 -8.733 -5.383 -21.714 -5.383 -12.365 0 -13.996 0.362 -17.521 3.886 -3.508 3.508 -3.886 5.179 -3.886 17.15 0 7.297 0.369 13.636 0.82 14.09 0.73 0.73 15.06 0.036 18.878 -0.915 z m 45.614 -5.144 5.937 -0.981 0 -14.04 0 -14.04 -10.292 0 -10.292 0 0 15.04 0 15.04 4.354 -0.017 c 2.395 -0.001 7.03 -0.459 10.292 -0.999 z m 61.75 -47.49 c 3.974 -0.753 4.354 -1.44 4.354 -7.874 0 -4.667 -0.769 -7.344 -2.275 -7.922 -1.251 -0.48 -1.888 -1.883 -1.414 -3.117 0.474 -1.234 0.072 -2.244 -0.892 -2.244 -0.964 0 -1.753 0.713 -1.753 1.583 0 0.871 -0.534 1.468 -1.188 1.328 -0.653 -0.141 -3.325 0.686 -5.937 1.837 -2.612 1.151 -5.641 1.947 -6.729 1.77 -1.089 -0.178 -1.979 0.388 -1.979 1.258 0 0.87 -2.488 2.048 -5.528 2.618 -3.31 0.621 -5.112 1.71 -4.49 2.716 0.647 1.046 0.053 1.301 -1.577 0.676 -1.798 -0.69 -3.394 0.339 -5.111 3.293 -1.373 2.363 -2.117 3.05 -1.653 1.526 0.464 -1.524 0.153 -2.771 -0.691 -2.771 -0.843 0 -1.534 0.298 -1.534 0.662 0 0.364 -0.409 1.727 -0.908 3.03 -0.558 1.454 0.205 2.677 1.979 3.172 3.187 0.89 30.44 -0.234 37.32 -1.539 z m 52.976 -3.139 c 2.431 -1.805 5.3 -4.994 6.376 -7.087 1.844 -3.588 1.957 -3.421 1.979 2.923 0.02 5.909 0.457 6.732 3.586 6.751 1.959 0.011 5.166 0.451 7.125 0.976 3.48 0.933 3.562 0.658 3.562 -11.897 l 0 -12.851 -6.729 -0.016 c -6.35 -0.016 -6.879 -0.374 -9.399 -6.372 -3.655 -8.701 -9.728 -11.03 -28.777 -11.03 -12.147 0 -15.1 0.466 -15.884 2.504 -1.287 3.353 -1.233 34.528 0.066 37.912 0.894 2.329 3.141 2.597 17.351 2.071 13.428 -0.497 17.11 -1.187 20.744 -3.886 z m -21.705 -17.226 c 0 -8.515 0.1 -8.708 4.505 -8.708 4.718 0 9.745 4.171 9.745 8.08 0 4.628 -4.834 9.332 -9.59 9.332 -4.593 0 -4.66 -0.125 -4.66 -8.708 z m 63.33 14.15 c 0 -7.198 0.019 -7.223 5.146 -6.729 4.654 0.449 5.281 1.139 6.558 7.225 l 1.412 6.729 7.428 0 c 4.085 0 7.811 -0.383 8.279 -0.851 1.108 -1.108 -1.856 -15.255 -3.67 -17.516 -2.446 -3.049 3.044 -11.716 7.421 -11.716 3.798 0 3.842 0.174 3.842 15.04 l 0 15.04 8.708 0 8.708 0 0 -15.04 0 -15.04 6.333 0 c 6.333 0 6.333 0 6.333 -6.333 l 0 -6.333 -21.375 0 c -13.679 0 -21.375 0.59 -21.375 1.639 0 1.13 -0.951 1.13 -3.063 0 -1.684 -0.901 -10.947 -1.639 -20.583 -1.639 l -17.521 0 0 20.319 c 0 11.176 0.475 20.794 1.056 21.375 0.581 0.581 4.499 1.056 8.708 1.056 l 7.653 0 0 -7.225 z m 0 -21.275 c 0 -2.845 0.798 -3.29 5.146 -2.871 3.298 0.318 5.146 1.349 5.146 2.871 0 1.522 -1.848 2.553 -5.146 2.871 -4.348 0.419 -5.146 -0.026 -5.146 -2.871 z m -136.17 25.333 c 0 -0.871 -0.314 -1.583 -0.698 -1.583 -0.384 0 -1.139 0.712 -1.677 1.583 -0.538 0.871 -0.224 1.583 0.698 1.583 0.922 0 1.677 -0.712 1.677 -1.583 z m 245.81 -0.021 c 3.978 -0.253 3.419 -4.149 -0.792 -5.519 -1.959 -0.638 -3.919 -1.282 -4.354 -1.432 -1.351 -0.466 -13.329 -5.895 -15.833 -7.176 -1.306 -0.668 -3.8 -0.702 -5.542 -0.074 -1.742 0.627 -5.839 0.846 -9.104 0.485 l -5.937 -0.656 0 8.124 0 8.124 19.396 -0.85 c 10.668 -0.467 20.643 -0.929 22.17 -1.026 z m 10.687 -0.586 c 0 -0.334 -1.425 -0.98 -3.167 -1.435 -1.742 -0.455 -3.167 -0.182 -3.167 0.607 0 0.789 1.425 1.435 3.167 1.435 1.742 0 3.167 -0.273 3.167 -0.607 z m -142.66 -29.525 c 1.83 -3.51 3.327 -7.07 3.327 -7.917 0 -0.844 -3.574 -1.535 -7.943 -1.535 l -7.943 0 4.01 7.917 c 2.206 4.354 4.284 7.917 4.617 7.917 0.333 0 2.102 -2.872 3.932 -6.382 z m 83.01 204.96 c -0.518 -1.35 -0.183 -3.214 0.745 -4.142 2.317 -2.317 6.804 -0.345 5.709 2.509 -1.315 3.427 -5.372 4.453 -6.454 1.633 z m 76.22 -3.905 c -1.504 -2.434 0.556 -4 2.589 -1.973 1.137 1.137 1.164 2.023 0.083 2.691 -0.887 0.548 -2.089 0.225 -2.672 -0.718 z m -16.576 -11.626 c 0 -0.342 1.069 -1.032 2.375 -1.534 1.306 -0.501 2.375 -0.221 2.375 0.622 0 0.843 -1.069 1.534 -2.375 1.534 -1.306 0 -2.375 -0.28 -2.375 -0.622 z m -281.83 -15.211 c 0 -0.871 1.959 -1.572 4.354 -1.559 3.393 0.019 3.83 0.363 1.979 1.559 -3.098 2 -6.333 2 -6.333 0 z m 308.04 -3.03 c -0.51 -0.825 -0.252 -1.917 0.573 -2.427 0.825 -0.51 1.917 -0.252 2.427 0.573 0.51 0.825 0.252 1.917 -0.573 2.427 -0.825 0.51 -1.917 0.252 -2.427 -0.573 z m 6.514 0.393 c -2.101 -2.101 -0.989 -5.278 1.847 -5.278 3.735 0 5.01 1.331 3.944 4.113 -0.895 2.333 -3.999 2.957 -5.791 1.165 z m 22.694 -8.444 c 0 -0.871 0.755 -1.583 1.677 -1.583 0.922 0 1.236 0.712 0.698 1.583 -0.538 0.871 -1.293 1.583 -1.677 1.583 -0.384 0 -0.698 -0.712 -0.698 -1.583 z m -37.21 -150.42 c -0.538 -0.871 -0.224 -1.583 0.698 -1.583 0.922 0 1.677 0.713 1.677 1.583 0 0.871 -0.314 1.583 -0.698 1.583 -0.384 0 -1.139 -0.712 -1.677 -1.583 z m -26.12 -1.583 c 0 -0.871 0.712 -1.583 1.583 -1.583 0.871 0 1.583 0.712 1.583 1.583 0 0.871 -0.712 1.583 -1.583 1.583 -0.871 0 -1.583 -0.712 -1.583 -1.583 z" fill="#ff4500"/></g></svg>