<svg xmlns="http://www.w3.org/2000/svg" xmlns:xlink="http://www.w3.org/1999/xlink" viewBox="0 0 256 256"><defs><clipPath id="0"><path transform="matrix(15.33333 0 0 11.5 415 -125.5)" d="m -24 13 c 0 1.105 -0.672 2 -1.5 2 -0.828 0 -1.5 -0.895 -1.5 -2 0 -1.105 0.672 -2 1.5 -2 0.828 0 1.5 0.895 1.5 2 z"/></clipPath></defs><g transform="translate(0 -796.36)"><path d="m 231.03 849.14 c 127.95 192.46 -280.09 311 -226.07 62.2 23.02 -102.82 167.39 -165.22 226.07 -62.2 z" style="fill:#fff;color:#000"/><g transform="matrix(6.07745 -0.44986 0.33199 5.89651 -32.29 798.14)" style="fill:#ff4500"><g style="clip-path:url(#0)"><use xlink:href="#1" width="1" height="1" transform="translate(1 1)" style="opacity:0.1"/></g><g style="clip-path:url(#0)"><path id="1" d="m 32.367,15.496 -1.68,-0.375 -0.254,1.391 c -5.539,-4.691 -9.06,-6.563 -11.996,-4.938 2.762,0.551 8.03,3.813 9.113,6.262 l -1.285,1.902 -13.266,13.617 0.832,0.824 0.832,0.82 13.512,-13.375 1.895,-1.301 c 2.469,1.055 5.797,6.27 6.371,9.02 1.602,-2.941 -0.309,-6.438 -5.074,-11.906 l 1.391,-0.27 -0.395,-1.672 m 0.004,0" style="fill:#ff4500;fill-opacity:0.702"/></g><g transform="matrix(0.16386 0.0125 -0.00923 0.16889 5.307 0.103)" style="fill-rule:evenodd"><path d="m 61.29 195.3 c -1.761 -1.46 -3.02 -2.756 -2.883 -2.973 0.131 -0.212 17.18 -19.581 37.882 -43.04 l 37.644 -42.656 l 3.711 -6.05 l 3.711 -6.05 l -1.135 -1.687 c -0.624 -0.928 -1.545 -2.131 -2.046 -2.673 -0.501 -0.542 -0.744 -0.986 -0.54 -0.986 0.676 0 7.158 6.599 8.547 8.701 l 1.366 2.067 l -3.575 5.901 l -3.575 5.901 l -37.09 42.04 c -20.398 23.12 -37.495 42.506 -37.993 43.07 l -0.906 1.026 l -3.121 -2.588 z" style="opacity:0.99"/><path d="m 66.47 199.66 l -1.899 -1.689 l 37.942 -43.01 l 37.942 -43.01 l 3.675 -6.02 l 3.675 -6.02 l -1.16 -1.688 c -2.688 -3.912 -12.971 -13.205 -20.367 -18.406 -6.363 -4.475 -17.02 -10.07 -25.543 -13.405 -2.512 -0.984 -4.569 -1.892 -4.572 -2.02 -0.002 -0.127 1.166 -0.528 2.595 -0.892 3.43 -0.873 10.393 -0.872 14.516 0.003 11.723 2.487 24.999 9.257 44.557 22.723 5.552 3.823 6.369 4.542 13.267 11.687 9.987 10.344 13.458 14.298 18.374 20.921 7.334 9.882 10.997 17.859 11.692 25.46 0.291 3.182 0.057 7.755 -0.421 8.233 -0.104 0.104 -0.456 -0.327 -0.783 -0.958 -1.258 -2.432 -6.304 -10.112 -8.979 -13.665 -5.5 -7.305 -9.68 -11.769 -18.284 -19.525 -5.729 -5.164 -10.213 -8.316 -14.204 -9.983 l -1.309 -0.547 l -5.618 4.332 l -5.618 4.332 l -38.39 42 c -21.11 23.1 -38.57 42.19 -38.789 42.42 -0.301 0.316 -0.868 0.003 -2.299 -1.269 z" style="opacity:0.99"/><path d="m 162.88 89.75 c -0.248 -0.299 -2.141 -1.694 -4.207 -3.1 -2.065 -1.406 -3.676 -2.635 -3.579 -2.732 0.097 -0.097 0.788 0.239 1.535 0.747 0.748 0.508 1.464 0.805 1.591 0.659 0.128 -0.145 0.43 -1.958 0.672 -4.03 0.242 -2.071 0.482 -3.807 0.533 -3.86 0.199 -0.201 9.64 1.321 9.901 1.596 0.309 0.325 1.473 4.12 1.313 4.28 -0.056 0.056 -1.139 -0.045 -2.406 -0.224 -1.267 -0.179 -2.343 -0.287 -2.39 -0.24 -0.047 0.047 -0.3 1.694 -0.561 3.659 -0.419 3.149 -0.563 3.586 -1.214 3.68 -0.406 0.059 -0.942 -0.138 -1.19 -0.437 z" style="opacity:0.99"/><path d="m 61.67 195.4 c -1.319 -1.13 -2.498 -2.333 -2.62 -2.672 -0.219 -0.607 10.461 -12.883 59.56 -68.47 14.959 -16.933 15.526 -17.629 19.07 -23.401 2.01 -3.272 3.649 -6.149 3.643 -6.392 -0.005 -0.244 -0.489 -1.076 -1.074 -1.849 -1.802 -2.382 -0.757 -1.958 1.699 0.689 2.864 3.087 5.122 6.01 5.122 6.622 0 0.254 -1.53 2.989 -3.4 6.079 l -3.4 5.617 l -37.87 42.922 c -20.829 23.607 -37.975 42.919 -38.1 42.915 -0.128 -0.004 -1.312 -0.932 -2.631 -2.062 z" style="fill:#ff7f50;opacity:0.99"/></g></g></g></svg>