<svg xmlns="http://www.w3.org/2000/svg" viewBox="0 0 256 256"><defs><clipPath><circle cx="515.44" cy="510.69" r="435.85" style="fill:none;stroke:#000;stroke-width:11.248"/></clipPath><clipPath><circle cx="515.44" cy="510.69" r="435.85" style="fill:none;stroke:#000;stroke-width:11.248"/></clipPath><clipPath><rect width="46" height="46" x="1" y="1" rx="4" style="fill:#1890d0;stroke-width:1"/></clipPath><clipPath><path d="m -24 13 c 0 1.105 -0.672 2 -1.5 2 -0.828 0 -1.5 -0.895 -1.5 -2 0 -1.105 0.672 -2 1.5 -2 0.828 0 1.5 0.895 1.5 2 z" transform="matrix(15.33333 0 0 11.5 415 -125.5)"/></clipPath><clipPath><rect width="46" height="46" x="1" y="1" rx="4" style="fill:#1890d0;stroke-width:1"/></clipPath></defs><g transform="translate(0 -796.36)"><path d="m 129.23 1061.48 c -11.11 -1.138 -25.02 -4.168 -35.1 -7.647 -34.596 -11.937 -58.64 -34.3 -68.864 -64.07 -3.903 -11.361 -5.365 -20.77 -5.325 -34.28 0.059 -20.237 4.829 -40.687 15.195 -65.15 2.903 -6.85 10.131 -21.274 13.418 -26.773 19.627 -32.842 57.839 -54.967 97.6 -56.51 19.859 -0.77 35.75 2.168 51.48 9.518 12.376 5.782 22.18 12.688 31.861 22.44 10.788 10.87 17.371 20.323 25.01 35.914 13.207 26.959 19.776 50.55 20.533 73.74 0.621 19.02 -2.544 35.01 -9.899 50 -10.225 20.849 -26.93 36.862 -50.29 48.21 -16.459 7.994 -32.464 12.478 -51.52 14.431 -7.739 0.793 -27.07 0.89 -34.09 0.171 z m -26.476 -59.56 c 1.508 -1.252 1.722 -4.502 1.725 -26.26 l 0.003 -22 l 2.825 -1.171 c 3.458 -1.433 7.678 -5.423 9.464 -8.948 2.8 -5.525 2.888 -12.31 0.231 -17.751 -1.716 -3.514 -6.159 -7.757 -9.616 -9.184 l -2.904 -1.198 v -22.399 c 0 -24.94 -0.047 -25.34 -3.139 -26.632 -2.119 -0.885 -4.04 -0.512 -5.534 1.074 l -1.176 1.252 l -0.141 23.44 l -0.141 23.44 l -1.359 0.341 c -3.484 0.874 -9 5.442 -10.818 8.955 -3.294 6.372 -3.189 13.787 0.281 19.706 1.784 3.044 5.831 6.55 9.15 7.925 l 2.776 1.151 l 0.007 22.762 c 0.006 17.18 0.162 23.07 0.638 24.02 0.915 1.831 3.592 3.048 5.501 2.501 0.84 -0.241 1.842 -0.699 2.227 -1.019 z m 49.5 0 c 1.424 -1.182 1.722 -4.472 1.725 -19.03 0.002 -11.53 0.142 -14.773 0.638 -14.773 1.307 0 5.757 -2.712 7.975 -4.86 10.301 -9.976 6.4 -27.528 -7.221 -32.49 l -1.389 -0.506 l -0.003 -29.433 c -0.002 -18.892 -0.192 -30.11 -0.53 -31.33 -1 -3.6 -5.379 -4.793 -7.994 -2.179 l -1.322 1.322 l -0.253 30.889 l -0.253 30.889 l -1.266 0.338 c -3.597 0.961 -8.153 4.615 -10.279 8.244 -4.171 7.118 -3.537 16.701 1.503 22.723 1.975 2.359 6.06 5.285 8.314 5.962 l 1.981 0.593 l 0.007 15.451 c 0.008 16.938 0.077 17.379 2.941 18.815 1.736 0.871 3.933 0.62 5.426 -0.619 z m 46.972 0 c 1.576 -1.308 1.722 -4.502 1.725 -37.666 l 0.003 -33.407 l 1.389 -0.342 c 2.16 -0.532 5.228 -2.493 7.51 -4.801 7.429 -7.514 7.313 -19.917 -0.259 -27.587 -2.133 -2.16 -6.48 -4.739 -8.01 -4.751 -0.485 -0.004 -0.632 -2.543 -0.634 -10.99 -0.002 -6.074 -0.239 -11.834 -0.53 -12.884 -1 -3.599 -5.378 -4.793 -7.994 -2.179 l -1.322 1.321 l -0.152 12.09 l -0.152 12.09 l -2.796 1.28 c -7.422 3.398 -11.801 10.06 -11.801 17.964 0 7.802 4.393 14.537 11.685 17.915 l 2.71 1.255 l 0.253 34.568 l 0.253 34.568 l 1.199 1.276 c 0.66 0.702 1.682 1.354 2.273 1.449 1.323 0.214 3.71 -0.384 4.649 -1.163 z" style="fill:#a0522d;fill-opacity:0"/><path d="m 31.756 994.41 c 8.468 12.325 19.853 24.731 30.23 32.936 36.22 28.648 77.83 29.844 114.7 3.297 19.813 -14.265 38.793 -36.557 55.823 -65.56 20.325 -34.619 27.2 -76.07 17.69 -106.66 -2.01 -6.463 -7.74 -17.709 -11.829 -23.21 -13.672 -18.395 -34.2 -29.23 -64.01 -33.775 -28.518 -4.351 -55.29 -4.801 -78.02 -1.312 -46.748 7.176 -78.06 32.1 -89.08 70.911 -7.747 27.28 -5.303 57.863 7.247 90.7 1.878 4.915 14.159 28.18 17.253 32.679 z" style="fill:#fff"/><g style="fill:#ff4500"><path d="M 9.168 4.892 A 0.269 0.269 0 0 0 8.92 5.165 0.269 0.269 0 0 0 9.193 5.43 h 0.789 h 0.017 c 0.3 0 0.537 0.237 0.537 0.538 0 0.294 -0.229 0.529 -0.521 0.537 a 0.269 0.269 0 0 0 -0.017 0 0.269 0.269 0 0 0 -0.025 0 h -0.781 A 0.269 0.269 0 0 0 8.92 6.778 0.269 0.269 0 0 0 9.193 7.04 h 0.785 a 0.269 0.269 0 0 0 0.004 0 h 0.017 c 0.3 0 0.537 0.237 0.537 0.538 0 0.294 -0.229 0.529 -0.521 0.537 a 0.269 0.269 0 0 0 -0.017 0 0.269 0.269 0 0 0 -0.025 0 h -0.781 a 0.269 0.269 0 0 0 -0.273 0.273 0.269 0.269 0 0 0 0 0.025 0.269 0.269 0 0 0 0.273 0.239 h 0.785 a 0.269 0.269 0 0 0 0.021 0 0.269 0.269 0 0 0 0.055 -0.004 c 0.565 -0.029 1.02 -0.499 1.02 -1.071 0 -0.32 -0.141 -0.609 -0.365 -0.806 0.224 -0.198 0.365 -0.486 0.365 -0.806 0 -0.583 -0.473 -1.064 -1.054 -1.075 -0.001 0 -0.003 0 -0.004 0 a 0.269 0.269 0 0 0 -0.017 0 0.269 0.269 0 0 0 -0.025 0 h -0.781 a 0.269 0.269 0 0 0 -0.025 0 z m -3.224 0.806 A 0.269 0.269 0 0 0 5.697 5.971 v 0.575 C 5.236 6.667 4.891 7.086 4.891 7.584 a 0.269 0.269 0 0 0 0.239 0.273 0.269 0.269 0 0 0 0.025 0 0.269 0.269 0 0 0 0.273 -0.273 c 0 -0.288 0.22 -0.516 0.504 -0.533 a 0.269 0.269 0 0 0 0.004 0 0.269 0.269 0 0 0 0.025 0 0.269 0.269 0 0 0 0.029 0 c 0.001 0 0.003 0 0.004 0 0.286 0.015 0.508 0.243 0.508 0.533 a 0.269 0.269 0 1 0 0.537 0 c 0 -0.497 -0.345 -0.916 -0.806 -1.037 v -0.575 A 0.269 0.269 0 0 0 5.944 5.698 z m -3.203 0.004 c -0.149 0 -0.269 0.12 -0.269 0.269 0 0.11 0.065 0.206 0.16 0.248 -0.1 0.163 -0.16 0.354 -0.16 0.558 0 0.591 0.484 1.075 1.075 1.075 0.59 0 1.075 -0.484 1.075 -1.075 0 -0.204 -0.059 -0.395 -0.16 -0.558 0.095 -0.041 0.16 -0.137 0.16 -0.248 0 -0.149 -0.12 -0.269 -0.269 -0.269 h -0.806 h -0.806 z m 5.373 0 c -0.149 0 -0.269 0.12 -0.269 0.269 v 1.612 c 0 0.149 0.12 0.269 0.269 0.269 0.149 0 0.269 -0.12 0.269 -0.269 v -1.612 c 0 -0.149 -0.12 -0.269 -0.269 -0.269 z M 3.547 6.24 c 0.3 0 0.537 0.237 0.537 0.538 0 0.3 -0.237 0.538 -0.537 0.538 -0.3 0 -0.537 -0.237 -0.537 -0.538 0 -0.3 0.237 -0.538 0.537 -0.538 z" transform="matrix(20.29226 0 0 18.50091 -9.541 793.08)" style="fill-opacity:0.498;color:#000"/><g transform="translate(0 796.36)" style="fill-rule:evenodd"><path d="m 55.983 140.8 c -3.793 -1.12 -6.609 -2.799 -9.375 -5.591 -5.801 -5.855 -7.302 -13.972 -3.858 -20.865 l 1.238 -2.477 l -1.251 -1.029 c -1.753 -1.442 -2.262 -3.445 -1.342 -5.291 0.392 -0.787 1.234 -1.812 1.871 -2.278 1.116 -0.816 1.747 -0.852 17.236 -0.978 8.843 -0.072 17.05 -0.012 18.237 0.133 2.364 0.289 4.405 1.656 5.065 3.393 0.557 1.466 -0.22 3.811 -1.665 5.02 l -1.227 1.026 l 1.203 2.482 c 3.488 7.196 1.939 15.194 -4.09 21.12 -4.235 4.16 -9.446 6.178 -15.807 6.124 -2.291 -0.019 -4.659 -0.316 -6.234 -0.781 z m 11.713 -9.892 c 5.339 -2.668 7.273 -8.126 4.662 -13.153 -2.762 -5.317 -10.06 -7.27 -15.706 -4.202 -7.852 4.269 -6.695 14.943 1.954 18.03 2.821 1.01 6.235 0.753 9.09 -0.674 z" style="opacity:0.99"/><path d="m 92.93 141.18 c -3.186 -1.587 -3.765 -5.04 -1.75 -10.425 1.075 -2.874 3.971 -6.817 6.224 -8.474 2.101 -1.545 7.182 -4.061 8.202 -4.061 0.666 0 0.73 -0.522 0.73 -5.971 0 -6.399 0.313 -7.703 2.134 -8.882 1.628 -1.054 3.063 -1.2 4.834 -0.492 3.047 1.219 3.292 1.88 3.292 8.873 0 6.02 0.018 6.144 0.921 6.38 2.627 0.687 7.661 3.693 9.86 5.888 3.856 3.849 6.398 10.392 5.471 14.08 -0.646 2.575 -5.721 3.622 -8.495 1.753 -1.228 -0.827 -1.452 -1.267 -1.898 -3.733 -0.573 -3.164 -1.641 -5.147 -3.561 -6.611 -2.231 -1.702 -4.346 -2.379 -7.428 -2.379 -3.112 0 -5.067 0.634 -7.367 2.388 -1.477 1.127 -3.507 4.666 -3.511 6.121 -0.012 4.511 -3.973 7.377 -7.658 5.541 z" style="opacity:0.99"/><path d="m 152.24 140.92 c -2.414 -1.498 -2.41 -1.465 -2.41 -18.802 0 -13.962 0.081 -16.02 0.671 -17.01 0.952 -1.612 2.643 -2.479 4.836 -2.479 1.582 0 2.143 0.23 3.425 1.404 l 1.533 1.404 l 0.116 16.03 c 0.128 17.585 0.133 17.541 -2.328 19.294 -1.462 1.041 -4.299 1.12 -5.843 0.162 z" style="opacity:0.99"/><path d="m 175.74 156.41 c -0.763 -0.194 -1.959 -0.924 -2.658 -1.623 -2.376 -2.376 -1.397 -5.794 2.083 -7.277 0.993 -0.423 3.705 -0.563 10.926 -0.563 10.622 0 11.775 -0.199 14.725 -2.535 2.131 -1.688 3.592 -4.764 3.597 -7.575 0.008 -4.199 -3.348 -8.36 -7.72 -9.575 -0.83 -0.231 -5.812 -0.42 -11.07 -0.421 -8.02 -0.002 -9.77 -0.11 -10.851 -0.669 -2.643 -1.367 -3.688 -3.736 -2.587 -5.866 1.334 -2.58 1.786 -2.679 13.335 -2.921 9.866 -0.207 10.613 -0.277 12.655 -1.186 8.217 -3.658 8.217 -14.442 0 -18.12 -2.049 -0.918 -2.755 -0.984 -12.635 -1.186 -11.365 -0.232 -11.756 -0.309 -13.153 -2.599 -1.011 -1.658 -1.01 -2.52 0.027 -4.191 1.607 -2.601 2.449 -2.747 14.697 -2.549 11.633 0.188 12.468 0.312 16.732 2.48 7.551 3.84 12.09 11.987 10.874 19.526 -0.58 3.603 -2.473 7.43 -4.994 10.1 l -2.122 2.244 l 2.124 2.324 c 10.151 11.11 4.554 27.409 -10.847 31.59 -2.802 0.761 -20.682 1.225 -23.14 0.601 z" style="opacity:0.99"/></g></g></g></svg>