<svg xmlns="http://www.w3.org/2000/svg" viewBox="0 0 256 256" xmlns:xlink="http://www.w3.org/1999/xlink"><defs><clipPath><path d="m -24 13 c 0 1.105 -0.672 2 -1.5 2 -0.828 0 -1.5 -0.895 -1.5 -2 0 -1.105 0.672 -2 1.5 -2 0.828 0 1.5 0.895 1.5 2 z" transform="matrix(15.33333 0 0 11.5 415 -125.5)"/></clipPath></defs><g transform="translate(0 -796.36)"><path d="m 229.63 992.2 c 92.05 -130.93 -77.948 -263.6 -186.39 -156.91 -102.17 100.51 -7.449 256.68 119.69 207.86 c 26.526 -10.185 49.802 -26.914 66.7 -50.948 z" style="fill:#fff;color:#000"/><g transform="matrix(4.71127 0 0 4.91915 11.63 806.34)" style="fill:#ff4500;fill-rule:evenodd"><g transform="matrix(1.09091 0 0 1.09091 -1.364 -1.182)" style="opacity:0.1"><path d="m 15,13 0,17 5,5 11,0 -5,-5 -6,0 0,-12 10,0 -5,-5 z" id="0"/><path d="m 25 18 v 12 h -5 v -12 z" id="1"/><path d="m 25,13 4,0 5,5 -4,0 z" id="2"/><path d="m 26,30 4,0 5,5 -4,0 z" id="3"/></g><g transform="matrix(1.09091 0 0 1.09091 -2.364 -2.182)"><use xlink:href="#0"/><g style="fill:#ffdead"><use xlink:href="#1"/><use xlink:href="#2"/><use xlink:href="#3"/></g></g></g></g></svg>