<svg xmlns="http://www.w3.org/2000/svg" xmlns:xlink="http://www.w3.org/1999/xlink" viewBox="0 0 256 256"><defs><path id="1" d="m 18.32 16.672 h 2.134 v 56.03 h -2.134 z" style="fill-rule:evenodd"/><clipPath><rect y="6" x="6" rx="6" height="84" width="84" style="fill:#ff4500ff4500"/></clipPath><clipPath><path d="m 62 6 c -3.324 0 -6 2.676 -6 6 v 0.531 c 0 -3.611 2.921 -6.531 6.531 -6.531 h -0.531 z m 71.47 0 c 3.611 0 6.531 2.921 6.531 6.531 v -0.531 c 0 -3.324 -2.676 -6 -6 -6 h -0.531 z m 6.531 6.531 c 0 36.735 -3.543 60.1 -7.844 69.938 c -10.816 5.03 -35.677 7.531 -69.62 7.531 h 71.47 c 3.324 0 6 -2.676 6 -6 v -71.47 z m -77.47 77.47 c -3.611 -0.005 -6.531 -2.921 -6.531 -6.531 v 0.531 c 0 3.324 2.676 6 6 6 h 0.531 z"/></clipPath><filter style="color-interpolation-filters:sRGB"><feGaussianBlur stdDeviation="1.71"/></filter><linearGradient gradientTransform="scale(1.0059 0.99417)" gradientUnits="userSpaceOnUse" id="0" y2="7.02" x2="0" y1="92.54"><stop style="stop-color:#fff"/><stop offset="1" style="stop-color:#fff;stop-opacity:0.588"/></linearGradient><linearGradient gradientUnits="userSpaceOnUse" y2="5.988" x2="0" y1="90"><stop style="stop-color:#e4b31e"/><stop offset="1" style="stop-color:#ffef64"/></linearGradient></defs><g transform="translate(0 -796.36)"><path d="m 118.31 1050.73 c 155.28 14.532 197.08 -230.55 37.632 -249.59 -146.61 -23.59 -222.12 198.57 -76.44 243 c 12.317 4.868 25.786 4.775 38.807 6.59 z" style="fill:#fff;color:#fff"/><g transform="matrix(2.04623 0 0 1.87787 40.599 830.78)" style="fill:#ff4500"><g><use xlink:href="#1"/><ellipse cx="19.476" cy="72.7" rx="5.781" ry="5.514" style="fill-rule:evenodd"/></g><path transform="matrix(-0.00375 0.99999 -0.99999 -0.00375 0 0)" d="m 15.177 -70.941 h 2.134 v 56.03 h -2.134 z" style="fill-rule:evenodd"/><g transform="translate(16)"><use xlink:href="#1"/><ellipse cx="19.476" cy="72.7" rx="5.781" ry="5.514" style="fill-rule:evenodd"/></g><g transform="translate(32)"><use xlink:href="#1"/><ellipse cx="19.476" cy="72.7" rx="5.781" ry="5.514" style="fill-rule:evenodd"/></g><g transform="matrix(0.98612 -0.16601 0.16601 0.98612 40.39 3.892)"><use xlink:href="#1"/><ellipse cx="19.476" cy="72.7" rx="5.781" ry="5.514" style="fill-rule:evenodd"/></g></g></g></svg>