<svg xmlns="http://www.w3.org/2000/svg" viewBox="0 0 256 256"><defs><clipPath id="0"><path transform="matrix(15.33333 0 0 11.5 415 -125.5)" d="m -24 13 c 0 1.105 -0.672 2 -1.5 2 -0.828 0 -1.5 -0.895 -1.5 -2 0 -1.105 0.672 -2 1.5 -2 0.828 0 1.5 0.895 1.5 2 z" style="fill:#1890d0"/></clipPath><clipPath id="1"><path transform="matrix(15.33333 0 0 11.5 415 -125.5)" d="m -24 13 c 0 1.105 -0.672 2 -1.5 2 -0.828 0 -1.5 -0.895 -1.5 -2 0 -1.105 0.672 -2 1.5 -2 0.828 0 1.5 0.895 1.5 2 z" style="fill:#1890d0"/></clipPath></defs><g transform="translate(0 -796.36)"><path d="m 229.63 992.2 c 92.05 -130.93 -77.948 -263.6 -186.39 -156.91 -102.17 100.51 -7.449 256.68 119.69 207.86 c 26.526 -10.185 49.802 -26.914 66.7 -50.948 z" style="fill:#fff;color:#000"/><g transform="matrix(3.75845 0 0 3.56727 36.406 840.55)"><g transform="matrix(1.3734 0 0 1.3734 -9.148 -9.148)" style="clip-path:url(#1)"><g transform="translate(1 1)" style="fill:#fff;opacity:0.1"><path d="m 39 24 c 0 8.281 -6.715 15 -15 15 -8.285 0 -15 -6.719 -15 -15 0 -8.285 6.715 -15 15 -15 c 8.285 0 15 6.715 15 15"/><path d="m 15.32 11.766 c -1.684 1.199 -3.109 2.734 -4.18 4.508 l 6.859 1.727"/><path d="m 32.27 11.488 l -1.77 7.01 l 6.113 -2.625 c -1.129 -1.73 -2.617 -3.23 -4.344 -4.387"/><path d="m 32.5 27.5 l 1.863 7.344 c 1.488 -1.422 2.672 -3.133 3.48 -5.063"/><path d="m 16 28 l -5.949 1.52 c 0.73 1.852 1.809 3.508 3.172 4.914"/><path d="m 22 13 h 4 v -1 l -2 -3 l -2 3"/><path d="m 22 12 v 26.875 c 0.656 0.086 1.32 0.125 2 0.125 0.68 0 1.344 -0.039 2 -0.125 v -26.875"/><path d="m 24 35 l -2 3.875 c 0.656 0.086 1.32 0.125 2 0.125 0.68 0 1.344 -0.039 2 -0.125"/></g></g><g transform="matrix(1.3734 0 0 1.3734 -9.148 -9.148)" style="clip-path:url(#0)"><g><path d="m 39 24 c 0 8.281 -6.715 15 -15 15 -8.285 0 -15 -6.719 -15 -15 0 -8.285 6.715 -15 15 -15 c 8.285 0 15 6.715 15 15" style="fill:#ff4500"/><g style="fill:#ffdead"><path d="m 15.32 11.766 c -1.684 1.199 -3.109 2.734 -4.18 4.508 l 6.859 1.727"/><path d="m 32.27 11.488 l -1.77 7.01 l 6.113 -2.625 c -1.129 -1.73 -2.617 -3.23 -4.344 -4.387"/><path d="m 32.5 27.5 l 1.863 7.344 c 1.488 -1.422 2.672 -3.133 3.48 -5.063"/><path d="m 16 28 l -5.949 1.52 c 0.73 1.852 1.809 3.508 3.172 4.914"/></g><path d="m 22 13 h 4 v -1 l -2 -3 l -2 3" style="fill:#dc143c"/><path d="m 22 12 v 26.875 c 0.656 0.086 1.32 0.125 2 0.125 0.68 0 1.344 -0.039 2 -0.125 v -26.875" style="fill:#ffdead"/><path d="m 24 35 l -2 3.875 c 0.656 0.086 1.32 0.125 2 0.125 0.68 0 1.344 -0.039 2 -0.125" style="fill:#dc143c"/></g></g></g></g></svg>