<svg xmlns="http://www.w3.org/2000/svg" viewBox="0 0 256 256"><path d="m 193.89 31.801 c 226.71 210.75 -241.2 343.53 -189.6 63.746 25.452 -73.816 116.81 -131.42 189.6 -63.746 z" style="fill:#fff;color:#000"/><g transform="matrix(0.65611 0 0 0.66308 44.31 47.847)" style="fill:#ff4500"><g style="fill:#ffdead"><path d="m 15.03 238.08 c -1.04 -1.253 -1.164 -21.972 -0.647 -108.06 0.352 -58.58 0.902 -106.93 1.223 -107.45 0.769 -1.244 216.14 -1.283 216.91 -0.039 c 0.308 0.498 0.858 48.85 1.224 107.45 0.537 86.17 0.418 106.84 -0.623 108.09 -1.148 1.384 -12.904 1.551 -109.04 1.551 -96.11 0 -107.89 -0.167 -109.04 -1.55 z m 83.36 -33.522 c 2.101 -0.584 5.625 -2.691 7.829 -4.683 l 4.01 -3.622 l 13.671 0.239 c 11.793 0.206 15.01 -0.102 23.394 -2.248 19.383 -4.957 34.18 -15.571 40.992 -29.399 2.74 -5.564 3.343 -8.04 3.637 -14.942 0.277 -6.493 0.059 -8.274 -1.011 -8.274 -0.75 0 -8.784 7.438 -17.853 16.528 l -16.489 16.528 l -8 -0.278 l -8 -0.278 l -0.313 -3.25 l -0.313 -3.25 l -26.19 -0.015 c -14.403 -0.008 -26.713 -0.35 -27.357 -0.76 -1.827 -1.162 -2.617 -5.819 -1.379 -8.132 1.094 -2.045 1.745 -2.093 28 -2.093 14.786 0 27.595 -0.273 28.465 -0.607 0.87 -0.334 1.582 -1.234 1.582 -2 0 -1.021 -1.463 -1.393 -5.481 -1.393 -5.05 0 -5.531 -0.2 -6.127 -2.574 -0.355 -1.416 -0.149 -3.666 0.46 -5 1.067 -2.343 1.465 -2.426 11.545 -2.426 11.203 0 13.603 -0.451 13.603 -2.557 0 -0.934 -1.753 -1.435 -5.75 -1.643 -5.172 -0.27 -5.783 -0.536 -6.083 -2.652 -0.183 -1.293 -0.062 -3.431 0.269 -4.75 0.556 -2.217 1.083 -2.398 6.976 -2.398 6.789 0 7.588 0.588 7.588 5.582 0 1.33 0.347 2.418 0.771 2.418 0.424 0 4.736 -3.983 9.582 -8.852 l 8.811 -8.852 l -4.332 -3.727 c -5.322 -4.579 -18.12 -10.801 -26.832 -13.05 -10.851 -2.798 -27.761 -3.08 -39.5 -0.659 -32.503 6.703 -53.1 30.673 -47.13 54.857 3.129 12.678 10.858 22.17 24.802 30.452 3.755 2.231 6.828 4.702 6.828 5.492 0 2.461 -2.797 6.987 -5.964 9.653 -1.67 1.405 -3.036 2.809 -3.036 3.119 0 0.971 10.313 0.605 14.321 -0.508 z m -13.13 -56.658 l 0.306 -4.77 h 21 h 21 v 4.5 v 4.5 l -21.306 0.27 l -21.306 0.27 l 0.306 -4.77 z m 0.21 -10.659 c -0.3 -0.781 -0.401 -2.926 -0.225 -4.766 l 0.32 -3.345 h 27.5 h 27.5 v 4.5 v 4.5 l -27.28 0.266 c -22.823 0.223 -27.364 0.034 -27.82 -1.155 z"/><path d="m 15.505 237.53 c -0.716 -1.158 0.127 -128.01 1.185 -178.4 l 0.609 -29 l 9.134 -0.143 c 5.02 -0.079 11.159 -0.232 13.634 -0.342 2.475 -0.109 7.2 0.255 10.5 0.808 3.3 0.554 13.2 1.031 22 1.06 12.582 0.041 16.415 -0.261 17.941 -1.416 1.491 -1.127 5.168 -1.468 15.844 -1.468 13.06 0 13.934 0.121 14.426 2 0.474 1.813 1.364 2 9.499 2 7.461 0 9.405 -0.337 11.518 -2 2.255 -1.774 4.057 -2 15.929 -2 13.309 0 13.393 0.015 14.526 2.5 1.091 2.395 1.513 2.5 10.08 2.5 8.08 0 9.232 -0.241 11.916 -2.5 2.803 -2.359 3.641 -2.5 14.813 -2.5 6.513 0 12.553 0.273 13.423 0.607 0.87 0.334 1.582 1.684 1.582 3 0 2.053 0.481 2.393 3.385 2.393 h 3.385 l 0.615 30.25 c 0.338 16.638 0.727 62.43 0.865 101.75 l 0.25 71.5 l -108.19 0.254 c -78.49 0.185 -108.38 -0.05 -108.87 -0.856 z m 86.06 -33.13 c 1.65 -0.863 4.293 -2.769 5.874 -4.236 2.837 -2.633 3.086 -2.672 19 -2.945 13.185 -0.227 17.489 -0.682 23.598 -2.498 18.32 -5.444 33.07 -16.611 39.26 -29.717 2.668 -5.652 3.31 -8.357 3.612 -15.217 0.234 -5.324 -0.041 -8.751 -0.76 -9.47 -0.835 -0.835 -5.586 3.328 -18.367 16.09 l -17.241 17.22 h -7.676 h -7.676 l -0.313 -3.25 l -0.313 -3.25 l -26.724 -0.266 c -25.892 -0.258 -26.758 -0.331 -27.835 -2.343 -0.611 -1.142 -0.84 -3.16 -0.507 -4.484 l 0.604 -2.407 h 27.37 c 25.08 0 27.56 -0.154 29.64 -1.838 3.289 -2.664 1.655 -4.162 -4.54 -4.162 -4.495 0 -5.477 -0.327 -6.01 -2 -0.349 -1.1 -0.349 -2.9 0 -4 0.584 -1.842 1.513 -2 11.725 -2 h 11.09 l 11.643 -11.5 c 6.404 -6.325 12.183 -11.5 12.843 -11.5 4.272 0 -5.478 -8.301 -15.933 -13.567 -10.466 -5.27 -19.759 -7.536 -33.433 -8.148 -24.464 -1.096 -45.917 6.615 -59.38 21.344 -16.52 18.08 -15.484 41.451 2.587 58.36 3.482 3.257 9.03 7.406 12.332 9.219 3.301 1.813 6.01 3.918 6.01 4.678 0.019 2.258 -3.637 7.482 -6.952 9.933 -1.7 1.257 -2.794 2.767 -2.43 3.356 0.963 1.558 15.26 0.498 18.894 -1.402 z m -15.5 -56.77 v -4.04 l 20.25 0.271 l 20.25 0.271 v 3.5 v 3.5 l -20.25 0.271 l -20.25 0.271 v -4.04 z m 0 -14.02 v -4.02 l 26.75 0.266 l 26.75 0.266 l 0.31 3.75 l 0.31 3.75 h -27.06 h -27.06 v -4.02 z m 60.41 2.639 c -0.312 -0.813 -0.419 -2.523 -0.238 -3.8 0.303 -2.136 0.812 -2.323 6.329 -2.323 h 6 v 3.5 v 3.5 l -5.762 0.3 c -4.362 0.227 -5.9 -0.059 -6.329 -1.177 z"/></g><path d="m 16.295 232.1 c 0.005 -2.063 0.432 -8.7 0.949 -14.75 0.517 -6.05 1.43 -39.12 2.029 -73.5 0.599 -34.375 1.325 -64.41 1.613 -66.75 l 0.524 -4.25 h 101.87 h 101.87 l 0.54 5.25 c 0.297 2.887 1.038 34.27 1.646 69.75 0.608 35.475 1.508 69 1.999 74.5 0.491 5.5 0.907 10.787 0.926 11.75 0.032 1.656 -5.715 1.75 -106.97 1.75 h -107 l 0.009 -3.75 z m 83.991 -27.414 c 2.475 -1.069 5.625 -3.01 7 -4.312 2.386 -2.262 3.137 -2.369 16.5 -2.362 21.581 0.011 36.479 -4.506 51.01 -15.466 13.453 -10.15 21.13 -26.316 19.05 -40.14 -0.503 -3.351 -1.132 -4.554 -2.383 -4.554 -0.935 0 -9.34 7.65 -18.678 17 l -16.978 17 h -7.261 c -6.859 0 -7.262 -0.125 -7.276 -2.25 -0.032 -4.683 -0.134 -4.701 -28.03 -4.983 l -26.451 -0.267 l -0.313 -3.25 l -0.313 -3.25 h 27.376 h 27.376 l 2.796 -2.919 c 1.538 -1.605 2.496 -3.405 2.128 -4 -0.368 -0.595 -3.342 -1.081 -6.609 -1.081 -5.934 0 -5.941 -0.003 -5.941 -3 v -3 h 10.657 h 10.657 l 11.779 -11.634 l 11.779 -11.634 l 4.109 3.255 c 2.26 1.79 4.395 2.969 4.743 2.621 1.154 -1.154 -5.209 -9.01 -11.265 -13.901 -29.01 -23.455 -78.74 -21.631 -104.21 3.822 -5.127 5.124 -8.201 9.254 -10.5 14.11 -2.995 6.323 -3.251 7.653 -3.251 16.884 0 9.373 0.221 10.473 3.412 17 4.217 8.626 14 18.604 22.844 23.288 3.491 1.85 6.244 3.982 6.244 4.837 0 0.84 -2.53 3.999 -5.623 7.02 -3.147 3.073 -5.239 5.863 -4.75 6.336 2.492 2.415 13.545 1.784 20.373 -1.164 z m -13.819 -57.56 l 0.319 -2.772 h 19 h 19 v 2.5 v 2.5 l -19.319 0.272 l -19.319 0.272 z m 0.187 -12.755 c -0.32 -0.834 -0.32 -2.2 0 -3.034 0.503 -1.311 4.02 -1.481 25.857 -1.25 l 25.27 0.267 v 2.5 v 2.5 l -25.27 0.267 c -21.837 0.231 -25.354 0.061 -25.857 -1.25 z m 60.63 -1.575 c 0 -2.979 0.11 -3.05 4.25 -2.75 3.803 0.275 4.283 0.597 4.566 3.058 0.304 2.645 0.142 2.75 -4.25 2.75 -4.426 0 -4.566 -0.094 -4.566 -3.058 z m -109.78 -72.5 c -3.01 -2.107 -2.875 -5.97 0.278 -8.04 2.316 -1.517 2.684 -1.517 5 0 3.152 2.065 3.286 5.928 0.277 8.04 -1.222 0.856 -2.472 1.557 -2.777 1.557 -0.305 0 -1.555 -0.701 -2.777 -1.557 z m 50.27 -5.454 c -2.471 -3.856 -4.493 -7.752 -4.493 -8.658 0 -2 7.506 -11.929 9.637 -12.746 0.839 -0.322 5.795 -0.586 11.01 -0.586 9.372 0 9.477 0.027 8.804 2.25 -0.375 1.237 -1.53 3.653 -2.567 5.368 -2.698 4.46 -2.426 5.767 2.686 12.931 2.515 3.524 4.288 6.867 3.941 7.429 -0.373 0.603 -5.524 1.022 -12.579 1.022 h -11.948 z m 51.53 -0.651 c -5.615 -8.764 -5.57 -9.213 1.73 -17.09 l 3.939 -4.25 h 10.154 c 5.584 0 10.154 0.24 10.154 0.533 0 0.293 -1.125 2.753 -2.5 5.467 -3.252 6.418 -3.161 7.844 0.842 13.11 4.196 5.517 5.767 8.452 4.956 9.262 -0.347 0.347 -5.972 0.631 -12.499 0.631 h -11.868 z m 55.79 5.911 c -0.823 -0.962 -3.178 -4.567 -5.233 -8.01 l -3.737 -6.26 l 3.668 -4.997 c 5.539 -7.546 6.512 -7.984 17.711 -7.984 5.378 0 9.777 0.238 9.777 0.529 0 0.291 -1.336 3.174 -2.968 6.408 l -2.968 5.88 l 4.922 7.261 c 2.707 3.994 4.691 7.635 4.409 8.092 -0.282 0.457 -5.817 0.83 -12.299 0.83 -9.988 0 -12.01 -0.267 -13.282 -1.75 z m -158.8 -18.727 c -4.169 -3.376 1.249 -8.769 4.307 -8.334 3.695 0.526 6.759 8.257 3.02 8.342 -0.373 0.008 -2.347 4.03 -7.327 -0.008 z"/></g></svg>