<svg xmlns="http://www.w3.org/2000/svg" viewBox="0 0 256 256"><defs><clipPath><path transform="matrix(15.33333 0 0 11.5 415 -125.5)" d="m -24 13 c 0 1.105 -0.672 2 -1.5 2 -0.828 0 -1.5 -0.895 -1.5 -2 0 -1.105 0.672 -2 1.5 -2 0.828 0 1.5 0.895 1.5 2 z"/></clipPath><clipPath id="0"><rect x="-16.09" y="17.847" rx="1.839" height="32.19" width="32.19" transform="matrix(0.70711 -0.70711 0.70711 0.70711 0 0)" style="fill:#fff"/></clipPath></defs><path d="m 46.627 219.57 c -200.11 -265.25 350.59 -302.94 173.86 -32.17 -40.29 61.728 -120.86 102.43 -173.86 32.17 z" style="fill:#fff;color:#000"/><g transform="matrix(3.61287 0 0 3.46933 39.11 42.05)" style="fill:#ff4500"><g transform="matrix(0.70711 -0.70711 0.70711 0.70711 0 0)"><rect x="-16.971" y="18.724" rx="1.839" height="32.19" width="32.19" style="opacity:0.1"/><rect x="-16.09" y="17.847" rx="1.839" height="32.19" width="32.19"/></g><path d="m 27 -2 v 19.541 a 4 4 0 0 0 -1.459 1.459 h -5.541 h -2 l -2 2 v 2 v 29 h 4 v -27.996 c 1.064 -1 0 -0.004 1.064 -1 h 4.477 a 4 4 0 0 0 1.459 1.459 v 20.541 h 4 v -20.541 a 4 4 0 0 0 2 -3.459 4 4 0 0 0 -2 -3.459 v -19.541 h -4 z" style="clip-path:url(#0);fill:#ffdead;fill-rule:evenodd"/></g></svg>