<svg xmlns="http://www.w3.org/2000/svg" viewBox="0 0 256 256"><path d="m 158.39 4.629 c 237.88 49.33 -17.492 388.7 -138.4 184.83 -51.828 -79.19 16.06 -210.21 138.4 -184.83 z" style="fill:#fff;color:#000"/><path d="m 126.13 41.07 c -1.592 -0.004 -3.62 3.975 -6.871 12.762 -2.743 7.415 -4.98 14.516 -4.98 15.766 0 1.251 -1.194 5.29 -2.647 8.98 l -2.647 6.721 l 6.839 2.137 l 6.839 2.169 l -0.126 8.735 c -0.192 13.688 -1.618 20.49 -4.602 22.02 -2.01 1.034 -2.788 0.949 -3.309 -0.31 -0.374 -0.903 -2.479 -3.044 -4.696 -4.771 -3.629 -2.826 -4.03 -3.887 -4.03 -10.749 v -7.62 l -15.727 -7.959 c -8.645 -4.365 -14.368 -5.495 -17.205 -6.721 l -15.695 -6.784 c -6.714 -1.546 -2.051 6.688 9.864 19.359 17.683 17.11 4.348 3.956 8.351 8.612 7.541 8.767 6.37 5.813 7.217 8.208 0.625 1.767 2.442 2.137 10.494 2.137 9.429 0 8.358 2.628 13.201 7.06 2.752 2.519 6.595 6.146 7.03 7.589 1.256 4.182 0.355 5.454 -2.238 5.886 -4.296 0.716 -11.705 -3.345 -14.09 -7.713 -3.064 -5.616 -7.201 -6.346 -17.838 -3.128 -4.73 1.43 -9.762 2.263 -11.22 1.859 -2.453 -0.68 -26.946 8.704 -26.946 8.704 0 0 24.755 10.17 25.748 9.634 0.995 -0.538 12.508 1.245 20.01 2.447 5.999 0.96 11.05 -10.13 11.819 -2.571 0.398 3.922 1.429 5.264 1.103 9.107 -0.397 4.671 -3.377 5.602 -8.95 7.373 -4.379 1.391 -5.728 2.405 -5.106 3.779 0.467 1.031 2.619 7.914 4.79 15.302 4.271 14.53 9.26 27.05 11.184 28.09 1.388 0.749 2.228 -1.435 3.53 -9.169 0.508 -3.02 2.452 -9.241 4.317 -13.846 1.866 -4.605 2.562 -11.503 3.719 -14.898 4.064 -11.924 -0.199 -6.968 -3.53 -10 -3.036 -2.773 -3.845 -4.653 -3.845 -9.04 0 -6.812 6.288 -9.339 12.764 -8.332 3.316 0.515 -0.411 -5.135 1.292 -2.354 0.907 1.48 0.253 18.29 0.675 42.41 0.378 21.63 -1.051 42.889 -0.662 45.12 l 1.215 1.359 c 0.419 2.396 5.935 0.825 7.794 -0.319 1.998 -1.229 0.756 -7.807 0.985 -23.16 0.299 -19.963 0.114 -8.951 0.554 -27.2 0.163 -8.97 0.905 -28.12 3.651 -35.35 7.4 -1.461 12.259 -3.497 12.259 8.177 0 4.773 -0.606 6.243 -3.152 7.682 -1.729 0.977 -4.863 2.119 -6.965 2.571 -1.103 0.336 0.07 0.251 -0.763 0.38 0.031 0.344 -0.41 0.397 -0.632 0.66 1.617 1.739 2.052 6.657 4.926 16.03 9.01 29.382 10.673 33.31 13.583 23.572 0.866 -2.897 3.076 -9.483 4.916 -14.651 1.841 -5.168 3.778 -12.945 4.286 -17.285 0.924 -7.881 0.927 -7.891 -3.341 -9.819 -5.01 -2.266 -5.228 -5.106 -5.435 -9.797 -0.754 -17.17 5.612 -0.542 13.171 -4.128 2.285 -1.083 9.02 -1.808 13.628 -3.067 4.611 -1.259 11.322 -2.496 15.933 -2.934 12.739 -1.209 15.822 -2.792 14.07 -4.638 -2.117 -2.229 -14.577 -6.308 -24.426 -7.989 -4.611 -0.788 -11.736 -2.532 -15.853 -3.872 -8.829 -2.875 -12.8 -1.958 -16.227 3.841 -3.659 6.183 -16.434 10.06 -18.405 5.576 -1.248 -2.842 2.23 -9.287 7.69 -14.218 4.42 -3.995 5.872 -4.529 14.435 -5.266 l 9.549 -0.806 l 5.578 -7.496 c 3.065 -4.121 5.547 -7.863 5.547 -8.332 0 -0.47 2.58 -4.55 5.704 -9.04 7.676 -11.04 7.867 -11.616 3.845 -11.616 -2.913 0 -16.385 6.562 -29.782 14.496 -2.305 1.366 -6.624 3.656 -9.581 5.08 -4.404 2.121 -5.205 3.055 -4.476 5.235 2.914 8.712 1.1 7.281 -5.515 12.915 -3.498 2.984 -7.01 6.682 -7.532 6.226 -1.546 -1.351 -1.392 -10.953 -1.481 -20.413 -0.079 -8.33 0.155 -8.951 3.782 -10.963 2.113 -1.176 4.31 -2.689 4.885 -3.376 2.037 -2.435 -0.742 -13.783 -9.99 -40.857 -0.707 -2.07 -1.435 -3.189 -2.269 -3.191 z" style="fill:#ff4500"/></svg>