<svg xmlns="http://www.w3.org/2000/svg" viewBox="0 0 256 256"><defs><clipPath><rect y="6" x="6" rx="6" height="84" width="84" style="fill:#ff4500ff4500"/></clipPath><filter style="color-interpolation-filters:sRGB"><feGaussianBlur stdDeviation="1.71"/></filter><linearGradient gradientTransform="scale(1.0059 0.99417)" gradientUnits="userSpaceOnUse" id="0" y2="7.02" x2="0" y1="92.54"><stop style="stop-color:#fff"/><stop offset="1" style="stop-color:#fff;stop-opacity:0.588"/></linearGradient></defs><g transform="translate(0 -796.36)"><path d="m -1374.42 1658.71 c 127.95 -192.46 -280.09 -311 -226.07 -62.2 23.02 102.82 167.39 165.22 226.07 62.2 z" transform="matrix(0 1 1 0 -1455.48 2401.81)" style="fill:#fff;color:#fff"/><g transform="matrix(1.93568 0 0 1.90732 30.937 834.58)"><g style="fill-rule:evenodd"><path d="m 44.947 11.69 c -17.02 0 -30.82 14.33 -30.82 32.04 0 17.708 13.804 32.08 30.82 32.08 1.907 0 3.78 -0.196 5.592 -0.541 -0.411 -1.687 -0.66 -3.454 -0.66 -5.284 0 -11.203 8.191 -20.304 18.316 -20.304 2.374 0 4.655 0.506 6.736 1.415 0.532 -2.36 0.793 -4.835 0.793 -7.364 0 -17.708 -13.76 -32.04 -30.776 -32.04 z m -10.04 4.743 c 3.975 0 6.868 1.1 9.73 3.661 l 2.29 -3.329 h 2.774 v 15.395 h -2.774 c -1.272 -4.209 -2.125 -6.06 -3.875 -8.07 -2.226 -2.47 -4.684 -3.661 -7.705 -3.661 -4.373 0 -7.397 2.665 -7.397 6.324 0 2.01 1.025 3.953 2.774 4.868 1.431 0.915 1.439 0.899 5.812 1.997 l 3.963 0.999 c 4.85 1.189 6.413 1.948 8.322 3.869 2.226 2.104 3.346 5.211 3.346 9.237 0 8.509 -5.153 14.06 -12.945 14.06 -3.975 0 -7.616 -1.433 -10.875 -4.452 l -2.818 3.745 h -2.774 v -17.309 h 3.17 c 1.908 9.149 6.707 14.1 13.385 14.1 4.691 0 7.925 -3.02 7.925 -7.323 0 -3.66 -2.217 -5.501 -8.498 -7.24 l -4.227 -1.082 c -4.77 -1.281 -6.581 -2.198 -8.41 -4.119 -1.749 -1.83 -2.774 -4.878 -2.774 -8.446 c 0 -7.96 4.583 -13.231 11.58 -13.231 z" style="fill:#fff;opacity:0.3"/><path d="m 44.551 11.69 c -16.814 0 -30.424 13.722 -30.424 30.664 0 16.942 13.61 30.664 30.424 30.664 1.885 0 3.758 -0.169 5.548 -0.499 -0.406 -1.614 -0.616 -3.284 -0.616 -5.03 0 -10.718 8.05 -19.43 18.05 -19.43 2.345 0 4.591 0.462 6.648 1.331 0.526 -2.258 0.837 -4.612 0.837 -7.03 0 -16.942 -13.654 -30.664 -30.468 -30.664 z m -9.73 4.327 c 4.122 0 7.115 1.089 10.08 3.703 l 2.378 -3.329 h 2.906 v 15.686 h -2.906 c -1.319 -4.294 -2.237 -6.184 -4.051 -8.238 -2.308 -2.521 -4.836 -3.745 -7.969 -3.745 -4.534 0 -7.661 2.715 -7.661 6.449 0 2.054 1.048 4.02 2.862 4.951 1.484 0.934 1.497 0.96 6.03 2.08 l 4.095 0.999 c 5.03 1.214 6.695 1.951 8.674 3.911 2.308 2.147 3.478 5.337 3.478 9.445 0 8.682 -5.393 14.396 -13.473 14.396 -4.122 0 -7.891 -1.496 -11.271 -4.577 l -2.906 3.828 h -2.862 v -17.641 h 3.302 c 1.979 9.336 6.9 14.354 13.825 14.354 4.864 0 8.277 -3.06 8.277 -7.448 0 -3.734 -2.337 -5.632 -8.85 -7.406 l -4.359 -1.123 c -4.947 -1.307 -6.866 -2.2 -8.762 -4.161 -1.814 -1.867 -2.862 -4.972 -2.862 -8.613 0 -8.122 4.765 -13.522 12.02 -13.522 z" style="fill:#ff4500"/></g><g line-height="125%" style="letter-spacing:0;word-spacing:0;font-family:Century Schoolbook L;font-weight:500"><text x="54.834" y="87.45" transform="scale(1.03533 0.96587)" style="font-size:42.808;fill:#fff;opacity:0.3"><tspan x="54.834" y="87.45">k</tspan></text><text transform="scale(1.02258 0.97792)" y="85.31" x="55.55" style="font-size:40.837;fill:#ff4500"><tspan y="85.31" x="55.55">k</tspan></text></g></g></g></svg>