<svg xmlns="http://www.w3.org/2000/svg" viewBox="0 0 256 256"><path d="m 22.010839 203.4688 c 48.541 88.14 200.630001 53.931 226.360001 -18.64 30.66 -86.449996 -49.14 -250.629996 -184.300001 -154.449996 -45.527 33.585 -90.6 84.948996 -42.05 173.089996 z" style="fill:#fff;color:#000"/><a transform="matrix(1.6019783 0 0 1.452706 48.443456 50.604011)" target="_parent" xlink:title="W3C SVG Working Group home page"><path d="m 63.086 18.385 c 0 -7.227 -5.859 -13.086 -13.1 -13.086 -7.235 0 -13.096 5.859 -13.096 13.086 -5.1 -5.11 -13.395 -5.11 -18.497 0 -5.119 5.12 -5.119 13.408 0 18.524 -7.234 0 -13.103 5.859 -13.103 13.085 0 7.23 5.87 13.098 13.103 13.098 -5.119 5.11 -5.119 13.395 0 18.515 5.102 5.104 13.397 5.104 18.497 0 0 7.228 5.86 13.083 13.096 13.083 7.24 0 13.1 -5.855 13.1 -13.083 5.118 5.104 13.416 5.104 18.513 0 5.101 -5.12 5.101 -13.41 0 -18.515 7.216 0 13.081 -5.869 13.081 -13.098 0 -7.227 -5.865 -13.085 -13.081 -13.085 5.101 -5.119 5.101 -13.406 0 -18.524 -5.097 -5.11 -13.393 -5.11 -18.513 0 z" style="fill:#ff4500"/><path d="M 55.003,23.405 V 37.893 L 65.26,27.64 c 0,-1.812 0.691,-3.618 2.066,-5.005 2.78,-2.771 7.275,-2.771 10.024,0 2.771,2.766 2.771,7.255 0,10.027 -1.377,1.375 -3.195,2.072 -5.015,2.072 L 62.101,44.982 H 76.59 c 1.29,-1.28 3.054,-2.076 5.011,-2.076 3.9,0 7.078,3.179 7.078,7.087 0,3.906 -3.178,7.088 -7.078,7.088 -1.957,0 -3.721,-0.798 -5.011,-2.072 H 62.1 l 10.229,10.244 c 1.824,0 3.642,0.694 5.015,2.086 2.774,2.759 2.774,7.25 0,10.01 -2.75,2.774 -7.239,2.774 -10.025,0 -1.372,-1.372 -2.064,-3.192 -2.064,-5.003 L 55,62.094 v 14.499 c 1.271,1.276 2.084,3.054 2.084,5.013 0,3.906 -3.177,7.077 -7.098,7.077 -3.919,0 -7.094,-3.167 -7.094,-7.077 0,-1.959 0.811,-3.732 2.081,-5.013 V 62.094 L 34.738,72.346 c 0,1.812 -0.705,3.627 -2.084,5.003 -2.769,2.772 -7.251,2.772 -10.024,0 -2.775,-2.764 -2.775,-7.253 0,-10.012 1.377,-1.39 3.214,-2.086 5.012,-2.086 L 37.899,55.009 H 23.414 c -1.289,1.276 -3.072,2.072 -5.015,2.072 -3.917,0 -7.096,-3.18 -7.096,-7.088 0,-3.908 3.177,-7.087 7.096,-7.087 1.94,0 3.725,0.796 5.015,2.076 H 37.902 L 27.646,34.736 c -1.797,0 -3.632,-0.697 -5.012,-2.071 -2.775,-2.772 -2.775,-7.26 0,-10.027 2.773,-2.771 7.256,-2.771 10.027,0 1.375,1.386 2.083,3.195 2.083,5.005 L 44.979,37.895 V 23.407 c -1.27,-1.287 -2.082,-3.053 -2.082,-5.023 0,-3.908 3.175,-7.079 7.096,-7.079 3.919,0 7.097,3.168 7.097,7.079 -0.002,1.972 -0.816,3.735 -2.087,5.021 z" style="fill:#fff;stroke:#ffa07a"/><path d="M 6.5691363,57.607845 H 95.949136 v 40 q 0,5.000005 -5,5.000005 h -79.38 q -4.9999997,0 -4.9999997,-5.000005 z" style="fill:#ff4500"/><path d="m 14.657,54.211 h 71.394 c 2.908,0 5.312,2.385 5.312,5.315 v 17.91 C 63.779,74.033 36.437,69.311 9.352,69.753 V 59.526 c 10e-4,-2.93 2.391,-5.315 5.305,-5.315 z" style="fill:#ff4500"/><path d="m 18.302337 75.167289 c -2.10546 -1.871725 -3.410986 -4.466555 -3.410986 -7.331439 0 -5.725326 5.229111 -10.368659 11.679648 -10.368659 6.453542 0 11.68065 4.641556 11.68065 10.368659 h -6.839993 c 0 -2.375411 -2.170536 -4.296882 -4.840657 -4.296882 -2.666115 0 -4.84366 1.921471 -4.84366 4.296882 0 1.188594 0.549643 2.252821 1.416656 3.03811 0.884033 0.776406 2.103458 1.248112 3.427004 1.248112 v 0.01066 c 3.235782 0 6.15219 1.162832 8.252644 3.034557 2.120478 1.875277 3.428006 4.471884 3.428006 7.326996 0 5.733322 -5.227108 10.375766 -11.68065 10.375766 -6.449536 0 -11.679648 -4.638891 -11.679648 -10.375766 h 6.835988 c 0 2.379853 2.177545 4.295105 4.84366 4.295105 2.670121 0 4.840657 -1.915252 4.840657 -4.295105 0 -1.180599 -0.545638 -2.244825 -1.430672 -3.026561 -0.865011 -0.781736 -2.084436 -1.259661 -3.409985 -1.259661 -3.233778 0 -6.149185 -1.167274 -8.268662 -3.040774 z" style="fill:#fff;stroke:#fff;stroke-width:0.47483423"/><path d="m 45.074392,58.958374 4.84562,19.862369 4.842617,-19.862369 h 6.843762 l -8.256985,33.915908 h -6.86079 L 38.217609,58.958374" style="fill:#fff;stroke:#fff;stroke-width:0.46487293"/><path id="0" d="m 73.254992,72.134378 h 11.696656 v 10.361618 c 0,5.731581 -5.232109,10.374055 -11.68264,10.374055 -6.448529,0 -11.679636,-4.642474 -11.679636,-10.374055 V 67.837469 h -0.01702 c 0,-5.727139 5.247126,-10.372278 11.680637,-10.372278 6.46655,0 11.696657,4.641586 11.696657,10.372278 H 78.09264 c 0,-2.375425 -2.154516,-4.296909 -4.839651,-4.296909 -2.650094,0 -4.825634,1.921484 -4.825634,4.296909 v 14.658527 c 0,2.376314 2.17554,4.296909 4.825634,4.296909 2.685135,0 4.839651,-1.920595 4.839651,-4.288026 v -0.01066 -4.288025 h -4.839651 l 0.002,-6.071816 z" style="fill:#fff;stroke:#fff;stroke-width:0.47483549"/></a></svg>