<svg xmlns="http://www.w3.org/2000/svg" xmlns:xlink="http://www.w3.org/1999/xlink" viewBox="0 0 256 256"><defs><path d="m 245.46 129.52 l -97.89 -96.9 c -5.556 -5.502 -16.222 -11.873 -23.7 -14.16 l -39.518 -12.08 c -7.479 -2.286 -18.1 0.391 -23.599 5.948 l -13.441 13.578 c -5.5 5.559 -14.502 14.653 -20 20.21 l -13.44 13.579 c -5.5 5.558 -8.07 16.206 -5.706 23.658 l 12.483 39.39 c 2.363 7.456 8.843 18.06 14.399 23.556 l 97.89 96.9 c 5.558 5.502 14.605 5.455 20.1 -0.101 l 36.26 -36.63 c 5.504 -5.559 14.503 -14.651 20 -20.21 l 36.26 -36.629 c 5.502 -5.56 5.455 -14.606 -0.101 -20.11 z m -178.09 -50.74 c -7.198 0 -13.03 -5.835 -13.03 -13.03 0 -7.197 5.835 -13.03 13.03 -13.03 7.197 0 13.03 5.835 13.03 13.03 -0.001 7.198 -5.836 13.03 -13.03 13.03 z" id="0"/><use id="1" xlink:href="#0"/><clipPath><path d="m 641.63 257.33 c -4.661 -2.246 -9.361 -8.428 -10.444 -13.738 -1.083 -5.309 -3.897 -16.14 -6.254 -24.07 -3.751 -12.621 -2.796 -20.13 7.646 -60.18 7.695 -29.509 11.932 -54.651 11.932 -70.81 0 -19.546 1.739 -27.497 7.908 -36.16 12.349 -17.342 18.207 -42.46 18.207 -78.06 0 -31.19 -0.788 -34.35 -16.788 -67.22 -9.234 -18.971 -16.788 -37.454 -16.788 -41.07 0 -9.91 -5.282 -11.266 -18.4 -4.722 -8.197 4.089 -16.667 5.183 -27.501 3.552 -41.36 -6.226 -46.09 -6.159 -68.837 0.979 -13.956 4.379 -24.22 5.893 -25.534 3.765 -4.501 -7.282 2.644 -21.484 16.215 -32.23 28.31 -22.421 41.12 -26.674 90.31 -29.992 45.08 -3.04 46.15 -3.317 53.668 -13.976 32.27 -45.736 99.68 -75.933 169.87 -76.1 15.13 -0.036 54.58 2.647 87.67 5.961 61.931 6.202 79.46 5.855 181.42 -3.593 77.966 -7.225 91.98 -16.03 133.95 -84.12 26.07 -42.29 58.12 -76.47 85.51 -91.19 l 19.707 -10.587 l 4.348 11.52 c 2.391 6.336 6.622 11.52 9.401 11.52 2.779 0 17.556 -4.197 32.837 -9.327 15.281 -5.13 29.392 -9.327 31.356 -9.327 7.664 0 -5.355 18.557 -20.802 29.65 l -16.15 11.597 l 7.31 17.05 c 4.02 9.38 13.07 23.779 20.1 31.999 23.398 27.335 29.24 46.712 18.655 61.83 -5.05 7.207 -9.177 8.292 -31.567 8.292 h -25.76 l -3.851 14.301 c -3.415 12.682 -5.162 14.301 -15.43 14.301 -8.299 0 -12.418 -2.201 -14.538 -7.772 -10.954 -28.771 -9.717 -28.11 -18.07 -9.638 -4.177 9.234 -8.764 25.625 -10.193 36.426 -2.227 16.831 -3.932 19.972 -11.924 21.978 -7.32 1.837 -12.761 9.648 -25.303 36.32 -8.788 18.691 -21.08 48.589 -27.324 66.44 -14.815 42.38 -24.05 60.03 -41.28 78.901 -7.777 8.517 -15.888 21.361 -18.02 28.542 -7.547 25.378 -19.911 122.75 -20.678 162.85 -0.53 27.665 0.497 32.14 13.341 58.13 7.653 15.486 13.916 30.06 13.916 32.391 0 5.91 -16.389 11.512 -33.675 11.512 -13.66 0 -29.748 -10.468 -29.748 -19.357 0 -1.665 -3.876 -3.03 -8.614 -3.03 -24.803 0 -31.544 -25.339 -22.903 -86.1 5.196 -36.541 5.645 -52.35 2.574 -90.62 -2.046 -25.496 -4.864 -48.21 -6.262 -50.47 -4.923 -7.965 -35.475 -4.289 -66.58 8.01 l -30.658 12.12 h -87.67 c -48.22 0 -89.53 1.21 -91.8 2.689 -4.252 2.768 -9.425 32.979 -10.719 62.6 -1.029 23.545 -0.755 23.19 -12.946 16.884 -15.703 -8.12 -16.245 -7.631 -13.311 12.03 3.755 25.17 10.1 38.529 33.543 70.63 11.342 15.53 20.621 30.513 20.621 33.29 0 10.779 -44.613 11.357 -48.13 0.624 -0.858 -2.613 -7.821 -10.627 -15.473 -17.809 -11.518 -10.809 -14.571 -16.912 -17.731 -35.442 -5.01 -29.361 -17.04 -60.674 -28.676 -74.61 l -9.34 -11.192 l -7.265 8.547 c -9.721 11.437 -22.06 44.85 -29.28 79.28 l -5.9 28.14 l 11.882 24.39 c 13.05 26.778 15.07 42.3 5.981 45.785 -9.127 3.503 -32.34 2.21 -41.747 -2.325 z"/></clipPath><clipPath><path d="m 63.728 106.45 v 26.705 v 5.342 v 16.02 v 251.02 h 40.578 h 96.14 h 100.43 h 147.4 v -147.4 v -151.7 h -258.51 h -85.46 h -40.578 z"/></clipPath><clipPath clip-path="url(#2)"><use xlink:href="#1"/></clipPath><clipPath clip-path="url(#2)"><use xlink:href="#1"/></clipPath><clipPath id="2"><use xlink:href="#0"/></clipPath><clipPath><path transform="matrix(15.33333 0 0 11.5 415 -125.5)" d="m -24 13 c 0 1.105 -0.672 2 -1.5 2 -0.828 0 -1.5 -0.895 -1.5 -2 0 -1.105 0.672 -2 1.5 -2 0.828 0 1.5 0.895 1.5 2 z"/></clipPath></defs><g transform="translate(0 -796.36)"><path d="m 210.88 1006.55 c -103.2 127.36 -289.48 -59.09 -170.47 -171.79 102.41 -112.94 301.19 63.33 170.47 171.79 z" fill="#fff" color="#000"/><g transform="matrix(4.05864 0 0 4.19149 28.692 824.67)" fill="#ff4500"><path d="m 36.22 4.531 c -6.888 12.633 -14.99 27.551 -21.813 40.34 2.924 1.346 6.163 2.125 9.594 2.125 12.703 0 23 -10.297 23 -23 0 -8.215 -4.302 -15.401 -10.781 -19.469 z" fill="#ffa07a" fill-rule="evenodd"/><path d="m 35.594 7.969 0 0.031 c -0.289 0.031 -0.578 0.149 -0.75 0.252 -0.234 0.126 -0.27 0.232 -0.375 0.378 -0.211 0.279 -0.316 0.614 -0.438 1.01 -0.242 0.788 -0.492 1.847 -0.625 3.151 -0.266 2.604 -0.453 6.04 -0.594 9.517 -0.137 3.478 -0.281 6.956 -0.625 9.548 -0.172 1.292 -0.359 2.442 -0.625 3.151 -0.035 0.083 -0.151 0.055 -0.188 0.126 -0.238 -0.539 -0.48 -1.374 -0.625 -2.395 -0.293 -2.044 -0.32 -4.763 -0.438 -7.532 -0.117 -2.769 -0.32 -5.55 -0.625 -7.658 -0.152 -1.056 -0.336 -1.977 -0.625 -2.647 -0.148 -0.335 -0.294 -0.63 -0.563 -0.882 -0.262 -0.256 -0.598 -0.504 -1.25 -0.504 -0.496 0 -1.125 0.19 -1.438 0.378 -0.316 0.19 -0.457 0.39 -0.625 0.63 -0.34 0.484 -0.465 1.064 -0.625 1.765 -0.32 1.399 -0.523 3.211 -0.625 5.01 -0.105 1.804 -0.152 3.612 -0.438 4.916 -0.141 0.65 -0.426 1.209 -0.625 1.513 -0.098 0.153 -0.148 0.225 -0.188 0.252 -0.043 0 -0.116 -0.075 -0.188 -0.126 -0.117 -0.091 -0.323 -0.335 -0.438 -0.63 -0.23 -0.583 -0.363 -1.489 -0.438 -2.395 -0.078 -0.91 -0.016 -1.867 -0.375 -2.647 -0.184 -0.386 -0.414 -0.713 -0.875 -1.01 -0.461 -0.299 -1.328 -0.496 -2.063 -0.473 -0.895 0.039 -1.438 0.422 -1.813 0.851 -0.367 0.43 -0.684 0.934 -0.844 1.513 -0.32 1.17 -0.316 2.706 -0.406 4.16 -0.086 1.457 -0.175 2.86 -0.438 3.876 -0.121 0.457 -0.434 0.796 -0.594 1.01 -0.059 -0.087 -0.16 -0.122 -0.219 -0.252 -0.242 -0.516 -0.465 -1.296 -0.625 -2.269 -0.32 -1.946 -0.453 -4.538 -0.594 -7.153 -0.141 -2.624 -0.148 -5.286 -0.438 -7.279 -0.148 -0.996 -0.359 -1.855 -0.625 -2.49 -0.145 -0.319 -0.387 -0.512 -0.625 -0.756 -0.242 -0.236 -0.527 -0.63 -1.188 -0.63 -0.621 0 -1.254 0.279 -1.5 0.504 -0.242 0.225 -0.238 0.465 -0.375 0.756 -0.27 0.583 -0.477 1.335 -0.625 2.238 -0.301 1.804 -0.465 4.168 -0.625 6.523 -0.16 2.36 -0.305 4.703 -0.625 6.428 -0.152 0.866 -0.399 1.548 -0.625 1.986 c -0.137 -0.225 -0.52 -0.488 -0.625 -0.882 -0.258 -0.985 -0.305 -2.242 -0.438 -3.624 -0.129 -1.382 -0.207 -2.804 -0.563 -3.907 -0.176 -0.548 -0.5 -1.079 -0.875 -1.481 -0.311 -0.333 -0.818 -0.631 -1.469 -0.725 c -0.094 0.429 -0.211 0.855 -0.281 1.292 0.037 0.018 0.074 0.001 0.125 0.064 0.191 0.201 0.223 0.618 0.375 1.103 0.313 0.969 0.492 2.281 0.625 3.655 0.129 1.378 0.34 2.781 0.625 3.876 0.148 0.552 0.316 0.985 0.625 1.387 0.156 0.201 0.336 0.473 0.625 0.63 0.289 0.161 0.622 0.24 1.063 0.252 0.602 0 1.164 -0.275 1.438 -0.504 0.273 -0.225 0.477 -0.465 0.625 -0.756 0.297 -0.583 0.465 -1.339 0.625 -2.238 0.336 -1.796 0.465 -4.074 0.625 -6.428 0.16 -2.356 0.332 -4.782 0.625 -6.523 0.117 -0.701 0.211 -1.194 0.375 -1.639 0.172 0.504 0.508 1.202 0.625 2.02 0.281 1.934 0.488 4.505 0.625 7.119 0.137 2.627 0.289 5.271 0.625 7.279 0.164 1.01 0.289 1.871 0.594 2.521 0.152 0.323 0.359 0.508 0.625 0.756 0.266 0.248 0.59 0.61 1.219 0.63 0.887 0.039 1.73 -0.465 2.094 -0.882 0.359 -0.417 0.473 -0.942 0.625 -1.513 0.301 -1.142 0.508 -2.548 0.594 -4 0.086 -1.453 0.09 -2.872 0.375 -3.907 0.145 -0.52 0.241 -0.91 0.438 -1.134 0.195 -0.225 0.398 -0.252 0.438 -0.252 0.23 0 0.246 0.047 0.375 0.126 0.125 0.083 0.313 0.225 0.438 0.504 0.262 0.564 0.363 1.489 0.438 2.395 0.078 0.902 0.066 1.868 0.375 2.647 0.156 0.39 0.401 0.701 0.813 1.01 0.41 0.312 1.148 0.473 1.875 0.473 0.496 0 0.945 -0.055 1.25 -0.252 0.305 -0.19 0.469 -0.481 0.625 -0.725 0.32 -0.481 0.48 -1.064 0.625 -1.765 0.297 -1.403 0.516 -3.246 0.625 -5.04 0.105 -1.8 0.078 -3.573 0.375 -4.885 0.148 -0.65 0.418 -1.087 0.625 -1.387 0.051 0.083 0.199 0.138 0.25 0.252 0.238 0.539 0.48 1.374 0.625 2.395 0.293 2.044 0.258 4.763 0.375 7.532 0.117 2.769 0.32 5.55 0.625 7.658 0.152 1.056 0.336 1.973 0.625 2.647 0.145 0.335 0.359 0.603 0.625 0.851 0.262 0.256 0.781 0.504 1.438 0.504 0.387 0 0.601 -0.126 0.844 -0.252 0.227 -0.126 0.469 -0.205 0.594 -0.347 0.254 -0.291 0.473 -0.599 0.625 -1.01 0.309 -0.823 0.453 -1.954 0.625 -3.277 0.352 -2.647 0.453 -6.196 0.594 -9.674 0.137 -3.482 0.367 -6.956 0.625 -9.517 0.102 -0.957 0.074 -1.618 0.219 -2.269 0.195 0.772 0.457 1.666 0.594 2.868 0.324 2.804 0.707 6.578 0.875 10.305 0.172 3.726 0.32 7.507 0.625 10.305 0.152 1.395 0.375 2.521 0.625 3.372 0.129 0.426 0.172 0.717 0.375 1.01 0.102 0.142 0.23 0.366 0.438 0.504 0.211 0.134 0.563 0.264 1 0.252 0.617 -0.039 1.012 -0.279 1.25 -0.504 0.238 -0.225 0.488 -0.465 0.625 -0.756 0.273 -0.583 0.469 -1.339 0.625 -2.238 0.324 -1.796 0.449 -4.215 0.625 -6.554 0.176 -2.343 0.316 -4.668 0.625 -6.397 0.156 -0.866 0.414 -1.529 0.625 -1.986 0.125 0.217 0.273 0.351 0.375 0.725 0.258 0.973 0.309 2.391 0.438 3.781 0.129 1.395 0.27 2.761 0.625 3.876 0.081 0.256 0.193 0.516 0.313 0.756 0.452 -1.815 0.688 -3.716 0.688 -5.672 0 -0.941 -0.048 -1.861 -0.156 -2.773 -0.008 -0.029 -0.024 -0.066 -0.031 -0.095 -0.145 -0.548 -0.305 -1.083 -0.625 -1.481 -0.16 -0.197 -0.316 -0.347 -0.625 -0.504 -0.309 -0.157 -0.749 -0.26 -1.188 -0.252 -0.613 0 -1.012 0.279 -1.25 0.504 -0.238 0.225 -0.304 0.465 -0.438 0.756 -0.273 0.583 -0.465 1.343 -0.625 2.238 -0.324 1.796 -0.633 4.179 -0.813 6.523 -0.176 2.339 -0.32 4.695 -0.625 6.428 -0.117 0.646 -0.288 1.044 -0.438 1.481 c -0.215 -0.756 -0.48 -1.792 -0.625 -3.12 -0.301 -2.753 -0.461 -6.456 -0.625 -10.175 -0.172 -3.726 -0.234 -7.457 -0.563 -10.305 -0.16 -1.426 -0.359 -2.612 -0.625 -3.498 -0.137 -0.445 -0.233 -0.835 -0.438 -1.134 -0.102 -0.153 -0.258 -0.244 -0.438 -0.378 c -0.191 -0.134 -0.586 -0.339 -1 -0.378 -0.105 -0.012 -0.191 -0.012 -0.281 0 z"/><g transform="matrix(1.22267 0 0 1.1692 -6.548 -4.19)" fill="#b22222"><path d="m 26.5 16.5 c 0.008 0.902 -0.465 1.738 -1.242 2.191 -0.777 0.453 -1.738 0.453 -2.52 0 -0.777 -0.453 -1.25 -1.289 -1.238 -2.191 -0.012 -0.902 0.461 -1.738 1.238 -2.191 0.781 -0.453 1.742 -0.453 2.52 0 0.777 0.453 1.25 1.289 1.242 2.191 m 0 0"/><path d="m 22.789 21.609 c -2.438 -0.703 -5.01 -3.379 -5.074 -9.129 -0.254 -1.641 -2.598 -1.699 -2.711 -0.027 0.707 10.703 5.137 11.391 7.707 11.746 l -0.145 7.02 -4.613 2.816 c -1 1.676 0.324 3.113 1.742 2.578 1.41 -0.938 2.824 -1.875 4.234 -2.813 l 3.93 3.047 c 1.695 0.77 2.922 -1.586 1.59 -2.734 l -4.234 -2.852 0.188 -7.164 c 7.02 -1.73 6.906 -4.578 7.605 -11.496 -0.168 -1.957 -2.895 -2.277 -3.02 -0.098 0.738 5.469 -1.637 8.102 -4.766 8.91 l -0.086 -1.445 c -0.859 -0.621 -1.527 -0.621 -2.293 0 m -0.059 1.641"/></g></g></g></svg>