<svg xmlns="http://www.w3.org/2000/svg" viewBox="0 0 256 256" xmlns:xlink="http://www.w3.org/1999/xlink"><g transform="translate(0 -796.36)"><path d="m 232.17 1001.41 c 74.75 -93.1 -40.783 -226.49 -147.66 -202.13 c -115.08 27.07 -105.58 194.65 -5.381 236.01 49.868 28.811 126.22 23.449 153.04 -33.886 z" style="fill:#fff;color:#000"/><g transform="matrix(-4.57464 0 0 4.39194 242.86 818.99)" style="fill:#ffa07a"><path transform="translate(1 1)" d="M 26,9 25.958169,9.1080672 12,19 l 1,0 0,16 20,0 3,0.06257 L 36,18.34375 37,18 z" id="0"/><path d="m 18 12 h 1 c 0.554 0 1 0.446 1 1 v 4 c 0 0.554 -0.446 1 -1 1 h -1 c -0.554 0 -1 -0.446 -1 -1 v -4 c 0 -0.554 0.446 -1 1 -1 z" id="1"/><path d="m 17 27 c 2 -2 4 -2 6 0 v 9 h -6 z" id="2"/><path d="m 27 22 h 3 c 0.554 0 1 0.446 1 1 v 3 c 0 0.554 -0.446 1 -1 1 h -3 c -0.554 0 -1 -0.446 -1 -1 v -3 c 0 -0.554 0.446 -1 1 -1 z" id="3"/></g><g transform="matrix(-4.57464 0 0 4.39194 239.61 813.57)" style="fill:#ff4500"><use xlink:href="#0"/><use xlink:href="#1"/><use xlink:href="#2"/><use xlink:href="#3"/></g></g></svg>