<svg xmlns="http://www.w3.org/2000/svg" viewBox="0 0 256 256"><path d="m 142.16 254.79 c -49.63 -4.712 -98.53 -32.19 -122.97 -69.09 -13.692 -20.674 -19.586 -41.2 -18.34 -63.857 1.271 -23.1 8.323 -42.863 24.56 -68.815 18.562 -29.667 38.867 -44.769 68.18 -50.708 11.66 -2.363 34.731 -1.475 47.16 1.814 53.48 14.15 96.92 57.729 109.35 109.67 c 5.076 21.22 6.576 46.02 3.864 63.901 -4.753 31.349 -21.883 55.18 -48.61 67.62 -17.05 7.937 -41.18 11.551 -63.19 9.462 z m -7.474 -54.756 c 1.788 -1.978 31.12 -42.01 39.03 -53.27 4.063 -5.785 4.116 -5.986 2.099 -8 -1.189 -1.189 -3.825 -1.477 -13.509 -1.477 h -12.03 l -0.583 -3.526 c -0.321 -1.939 -0.587 -17.307 -0.593 -34.15 l -0.01 -30.626 l -2.428 -2.279 c -2.347 -2.203 -2.899 -2.279 -16.535 -2.279 h -14.11 l -2.268 2.638 l -2.268 2.638 v 33.793 v 33.793 h -12.504 c -12.963 0 -14.76 0.489 -14.76 4.02 0 1.502 36.28 52.604 41.705 58.737 1.053 1.192 2.958 2.115 4.362 2.115 1.392 0 3.337 -0.934 4.405 -2.115 z" style="fill:#fff;stroke:#fff"/><path d="m 125.97 197.89 c -5.71 -6.05 -40.815 -55.03 -40.815 -56.943 0 -1.672 3.895 -2.735 10.04 -2.743 3.524 -0.004 8.629 -0.275 11.344 -0.601 l 4.936 -0.593 v -33.07 v -33.07 l 2.888 -2.761 l 2.888 -2.761 l 12.39 0.031 c 13.386 0.033 16.07 0.761 17.596 4.764 0.487 1.281 1.169 16.856 1.515 34.61 l 0.629 32.28 l 5.629 0.588 c 3.096 0.324 7.788 0.631 10.427 0.682 5.728 0.112 9.231 0.984 9.708 2.416 0.469 1.406 -7.147 12.464 -26.21 38.06 -13.953 18.732 -17.14 22.425 -19.329 22.425 -0.284 0 -1.923 -1.491 -3.641 -3.312 z" style="fill:#ff4500;stroke:#ff4500"/></svg>