<svg xmlns="http://www.w3.org/2000/svg" viewBox="0 0 256 256"><g transform="translate(0 -796.36)"><path d="m 26.373 992.2 c -92.05 -130.93 77.948 -263.6 186.39 -156.91 102.17 100.51 7.449 256.68 -119.69 207.86 -26.526 -10.185 -49.802 -26.914 -66.7 -50.948 z" style="fill:#fff;color:#000"/><g transform="matrix(3.0179 0 0 3.1212 -1102.74 -704.74)" style="fill:#ff4500"><rect transform="scale(1 -1)" y="-543.8" x="388.57" height="40" width="40" rx="1.62"/><g transform="matrix(1.0018 0 0 0.86218 -0.733 70.788)" style="fill:#ffdead;stroke:#ffdead;fill-rule:evenodd"><path d="m 408.27,503.8 v 9.167 h 0.591 V 503.8 h -0.591 z"/><path d="m 428.59 512.92 h -40.04 v 0.463 h 40.04 v -0.463 z"/></g><path d="m 390.57 543.8 c 18 -1 18 -1 36 0 z" style="opacity:0.5"/><path d="m 390.57 503.8 c 18 1 18 1 36 0 z" style="opacity:0.8"/></g></g></svg>