<svg xmlns="http://www.w3.org/2000/svg" viewBox="0 0 256 256"><g transform="translate(0 -796.36)"><path d="m 3.74 950.97 c 19.829 131.87 217.21 135.83 247.04 7.636 30.702 -103.78 -80.47 -188.63 -163.63 -154.63 -55.684 16.07 -100.67 81.83 -83.41 146.99 z" style="fill:#fff;color:#000"/><g transform="matrix(4.06761 0 0 3.98626 -1449.13 -899.24)"><text y="716.65" x="-288.57" line-height="125%" style="letter-spacing:0;word-spacing:0;font-size:40;font-family:DejaVu Sans"><tspan y="716.65" x="-288.57"/></text><g transform="matrix(0.91555 0 0 0.91119 44.01 3.047)" style="fill:#ff4500"><path d="m 375.63 477.59 c -12.13 0.069 -21.941 9.883 -22.01 22.01 h 10.303 c 0.067 -6.434 5.272 -11.637 11.705 -11.705 v -10.303 z"/><path d="m 375.62 477.59 v 10.303 c 6.435 0.067 11.639 5.27 11.705 11.705 h 10.303 c -0.067 -12.13 -9.882 -21.941 -22.01 -22.01 z" style="fill:#ffdead"/><path d="m 353.63 499.59 c 0.069 12.12 9.884 21.94 22.01 22.01 v -10.303 c -6.433 -0.068 -11.637 -5.273 -11.705 -11.705 h -10.303 z" style="fill:#dc143c"/><path d="m 387.32 499.59 c -0.068 6.434 -5.271 11.639 -11.705 11.705 v 10.303 c 12.13 -0.067 21.939 -9.883 22.01 -22.01 h -10.303 z"/></g></g></g></svg>