<svg xmlns="http://www.w3.org/2000/svg" viewBox="0 0 256 256"><g transform="translate(0 -796.36)"><g style="color:#000"><path d="m 227.81 844.22 c 87.44 110.84 -44.799 278.58 -174.02 176.43 -122.38 -96.74 -16.907 -267.55 126.43 -214.19 c 19.694 7.333 34.821 21.566 47.595 37.758 z" style="fill:#fff"/><path d="m 77.25 864.07 h 54.86 l 7.272 10.623 h 50.52 c 6.776 0 12.231 5.455 12.231 12.231 v 53.656 c 0 6.776 -5.455 12.231 -12.231 12.231 h -112.65 c -6.776 0 -12.231 -5.455 -12.231 -12.231 v -64.28 c 0 -6.776 5.455 -12.231 12.231 -12.231 z" style="fill:#ffa07a"/><rect width="137.11" height="84.74" x="65.02" y="882.61" rx="12.231" style="fill:#ff4500"/></g><path d="m 148.2 132.46 a 10.465 11.05 0 1 1 0.012 -0.035" transform="matrix(1.63934 0 0 1.50045 -91.95 730.8)" style="fill:#ffdead;stroke:#ffdead;fill-rule:evenodd"/></g></svg>