<svg xmlns="http://www.w3.org/2000/svg" viewBox="0 0 256 256"><g transform="translate(13.636 -781.21)" style="fill:#fff;color:#000"><path d="m 203.5 961.32 c -19.386 -171.78 238.76 -167.36 254.81 3.059 9.145 160.39 -265.35 166.71 -254.81 -3.059 z" transform="matrix(0 -0.99211 0.99211 0 -838.5 1237.85)" style="fill:#fff"/><g transform="matrix(-1.15393 0 0 1.17668 278.94 743.63)" style="fill:#ff4500"><path d="m 159.97,180.33 c -1.79,-0.821 -16.16,-13.948 -31.932,-29.17 -28.352,-27.365 -28.74,-27.688 -34.17,-28.403 -13.23,-1.742 -22.334,-9.712 -24.951,-21.842 -0.83,-3.846 0.233,-11.21 1.617,-11.21 0.495,0 4.585,3.417 9.09,7.593 4.504,4.176 8.831,7.593 9.616,7.593 3.554,0 12.696,-8.984 12.696,-12.476 0,-1.01 -3.697,-5.808 -8.216,-10.672 -7.734,-8.325 -8.07,-8.886 -5.695,-9.553 9.07,-2.553 20.323,0.938 26.801,8.315 4.715,5.37 6.636,10.08 6.636,16.285 v 4.985 l 29.422,28.948 29.422,28.948 0.547,5.697 c 0.456,4.748 0.124,6.314 -1.991,9.4 -4.413,6.441 -12.06,8.694 -18.892,5.563 z m 9.626,-5.964 c 6.364,-2.42 6.373,-11.08 0.014,-13.732 -3.228,-1.349 -4.102,-1.341 -6.815,0.063 -6.786,3.509 -4.409,13.916 3.342,14.634 0.409,0.038 1.965,-0.396 3.459,-0.964 z"/><path d="m 70.68,179.42 -2.311,-2.46 6.45,-9.725 c 5.346,-8.06 7.194,-10 10.793,-11.352 2.389,-0.895 8.183,-5.131 12.877,-9.413 l 8.534,-7.786 2.88,2.88 2.88,2.88 -8.338,8.387 c -4.598,4.625 -8.856,9.974 -9.492,11.923 -1.111,3.404 -6.666,7.952 -18.07,14.789 l -3.896,2.337 -2.311,-2.46 z"/><path d="m 146.56 118.63 c -0.942 -1.135 2.137 -4.765 14.228 -16.771 12.359 -12.273 15.16 -15.593 14.07 -16.681 -1.088 -1.088 -3.03 0.254 -9.751 6.742 -24.893 24.03 -22.703 22.289 -25.22 20.02 -2.252 -2.038 -2.238 -2.057 12.979 -17.301 8.378 -8.393 15.233 -15.656 15.233 -16.14 0 -2.35 -4.32 0.96 -17.82 13.652 -8.09 7.607 -15.392 13.831 -16.227 13.831 -0.835 0 -1.805 -0.75 -2.157 -1.667 -0.44 -1.147 3.959 -6.138 14.1 -16 8.108 -7.883 15.788 -14.926 17.07 -15.651 4.962 -2.813 12.841 -0.759 16.36 4.265 0.931 1.329 1.693 4.589 1.693 7.244 0 4.757 -0.224 5.05 -15.409 20.369 -8.475 8.548 -15.981 15.542 -16.681 15.542 -0.699 0 -1.813 -0.652 -2.474 -1.449 z"/></g><g transform="matrix(0.93909 0 0 0.91759 -31.696 92.6)" style="fill:#ff4500"><path d="m 121.13,853.89 c -3.273,0 -5.908,2.635 -5.908,5.908 v 13.987 c -4.972,1.253 -9.668,3.222 -13.957,5.788 l -9.887,-9.887 c -2.315,-2.315 -6.04,-2.315 -8.35,0 l -9.706,9.706 c -2.315,2.315 -2.315,6.04 0,8.35 l 9.887,9.887 c -2.566,4.288 -4.534,8.985 -5.788,13.957 H 63.434 c -3.273,0 -5.908,2.635 -5.908,5.908 v 13.746 c 0,3.273 2.635,5.908 5.908,5.908 h 13.987 c 1.253,4.972 3.222,9.668 5.788,13.957 l -9.887,9.887 c -2.315,2.315 -2.315,6.04 0,8.35 l 9.706,9.706 c 2.315,2.315 6.04,2.315 8.35,0 l 9.887,-9.887 c 4.288,2.566 8.985,4.534 13.957,5.788 v 13.987 c 0,3.273 2.635,5.908 5.908,5.908 h 13.746 c 3.273,0 5.908,-2.635 5.908,-5.908 v -13.987 c 4.972,-1.253 9.668,-3.222 13.957,-5.788 l 9.887,9.887 c 2.315,2.315 6.04,2.315 8.35,0 l 9.706,-9.706 c 2.315,-2.315 2.315,-6.04 0,-8.35 l -9.887,-9.887 c 2.566,-4.288 4.534,-8.985 5.788,-13.957 h 13.987 c 3.273,0 5.908,-2.635 5.908,-5.908 v -13.746 c 0,-3.273 -2.635,-5.908 -5.908,-5.908 h -13.987 c -1.253,-4.972 -3.222,-9.668 -5.788,-13.957 l 9.887,-9.887 c 2.315,-2.315 2.315,-6.04 0,-8.35 l -9.706,-9.706 c -2.315,-2.315 -6.04,-2.315 -8.35,0 l -9.887,9.887 c -4.288,-2.566 -8.985,-4.534 -13.957,-5.788 v -13.987 c 0,-3.273 -2.635,-5.908 -5.908,-5.908 H 121.13 z m 6.873,46.39 c 13.308,0 24.09,10.777 24.09,24.09 0,13.308 -10.777,24.09 -24.09,24.09 -13.308,0 -24.09,-10.777 -24.09,-24.09 0,-13.308 10.777,-24.09 24.09,-24.09 z"/><path d="m 163.55 128 c 0 19.634 -15.917 35.551 -35.551 35.551 -19.634 0 -35.551 -15.917 -35.551 -35.551 0 -19.634 15.917 -35.551 35.551 -35.551 19.634 0 35.551 15.917 35.551 35.551 z" transform="matrix(0.90907 0 0 0.90907 11.639 808)" style="fill:#fff;stroke:#ffb6c1;stroke-width:17.6"/></g></g></svg>