<svg xmlns="http://www.w3.org/2000/svg" viewBox="0 0 256 256"><defs><clipPath><path transform="matrix(15.33333 0 0 11.5 415 -125.5)" d="m -24 13 c 0 1.105 -0.672 2 -1.5 2 -0.828 0 -1.5 -0.895 -1.5 -2 0 -1.105 0.672 -2 1.5 -2 0.828 0 1.5 0.895 1.5 2 z"/></clipPath><clipPath><rect y="6" x="6" rx="6" height="84" width="84" style="fill:#ff4500"/></clipPath></defs><g transform="translate(0 -796.36)"><path d="m 60.17 822.74 c 130.93 -92.05 263.6 77.948 156.91 186.39 -100.51 102.17 -256.68 7.449 -207.86 -119.69 10.185 -26.526 26.914 -49.802 50.948 -66.7 z" style="fill:#fff;color:#000"/><g transform="matrix(1.69214 0 0 1.92746 50.09 842.36)" style="fill:#ff4500;stroke:#ff4500"><g style="fill-rule:evenodd"><path d="m 10.948 31.853 h 17.76 v 3.893 h -17.76 z"/><path d="m 8.314,62.59 h 32.11 v 3.892 H 8.314 z"/><path d="m 9,69.61 h 8.758 v 3.892 H 9 z"/><path d="m 52.862,62.829 h 18.489 v 3.892 H 52.862 z"/><path d="m 53.55,70.829 h 8.758 v 3.892 H 53.55 z"/><path d="m 52.948,31.853 h 17.759 v 3.893 H 52.948 z"/><path d="m 52.948,39.853 h 17.759 v 3.893 H 52.948 z"/><path d="m 10.948 39.853 h 17.76 v 3.893 h -17.76 z"/></g><text y="22.1" x="15.41" line-height="125%" style="letter-spacing:0;word-spacing:0;font-size:18;font-family:DejaVu Sans"><tspan y="22.1" x="15.41">Invoice</tspan></text></g></g></svg>