<svg xmlns="http://www.w3.org/2000/svg" viewBox="0 0 256 256" xmlns:xlink="http://www.w3.org/1999/xlink"><defs><clipPath id="0"><path d="m 47 24 c 0 12.708 -10.304 23 -23 23 -12.696 0 -23 -10.292 -23 -23 0 -12.708 10.304 -23 23 -23 12.696 0 23 10.292 23 23 z"/></clipPath></defs><g transform="translate(0 -796.36)" color="#000"><path d="m 29.07 1010.87 c 91.29 114.88 279.65 -32.29 212.92 -156.06 -62.875 -116.61 -254.17 -43.08 -241.37 83.5 2.671 26.409 11.7 51.48 28.459 72.56 z" fill="#fff"/><g transform="matrix(-4.77459 -1.73615 -1.66346 5.33505 277.79 831.12)" fill="#ff4500"><g clip-path="url(#0)"><g opacity="0.1" transform="translate(1 1)"><path d="m 15,12 c 0,0 -1,0 -1,1 l 0,22 c 0,0 0,1 1,1 l 18,0 c 0,0 0.996,0 0.996,-1 l 0,-14.996 -8,-8 C 22.285,12 17.254,12 15,12 m 0,0.004" id="1"/><path d="m 19 21 v 1 h 10 v -1 m -10 0" id="2"/><path d="m 19 23 v 1 h 10 v -1 m -10 0" id="3"/><path d="m 19 25 v 1 h 10 v -1 m -10 0" id="4"/><path d="m 34 20 -8 -8 c -0.004 4 0 6 0 7 0 1 0 1 1 1 1 0 4.098 0.008 7 0 m 0 0"/><path d="m 19.965 28 h 13.773 v 4 h -13.773 m 0 -4"/><path d="m 33,28 0,4 2.438,0 c 0,0 0.563,-0.328 0.563,-2 0,-1.609 -0.625,-1.996 -0.625,-1.996 l -2.371,0 M 33.001,28" id="5"/><path d="m 20,28 -4,1.996 4,2 0,-4 M 20,28"/><path d="M 18,28.984 16,30 l 2,1.02 m 0,-2.035"/></g></g><g clip-path="url(#0)"><g><use xlink:href="#1"/><g fill="#ffdead"><use xlink:href="#2"/><use xlink:href="#3"/><use xlink:href="#4"/></g><path d="m 34 20 -8 -8 c -0.004 4 0 6 0 7 0 1 0 1 1 1 1 0 4.098 0.008 7 0 m 0 0" fill="#ffa07a"/><path d="m 19.965 28 h 13.773 v 4 h -13.773 m 0 -4" fill="#b22222"/><use xlink:href="#5"/><path d="m 20,28 -4,1.996 4,2 0,-4 M 20,28" fill="#dc143c"/><path d="M 18,28.984 16,30 l 2,1.02 m 0,-2.035" fill="#fffafa"/></g></g></g></g></svg>