<svg xmlns="http://www.w3.org/2000/svg" viewBox="0 0 256 256" xmlns:xlink="http://www.w3.org/1999/xlink"><defs><clipPath id="0"><path fill="#1890d0" transform="matrix(15.33333 0 0 11.5 415 -125.5)" d="m -24 13 c 0 1.105 -0.672 2 -1.5 2 -0.828 0 -1.5 -0.895 -1.5 -2 0 -1.105 0.672 -2 1.5 -2 0.828 0 1.5 0.895 1.5 2 z"/></clipPath><clipPath id="1"><path fill="#1890d0" transform="matrix(15.33333 0 0 11.5 415 -125.5)" d="m -24 13 c 0 1.105 -0.672 2 -1.5 2 -0.828 0 -1.5 -0.895 -1.5 -2 0 -1.105 0.672 -2 1.5 -2 0.828 0 1.5 0.895 1.5 2 z"/></clipPath></defs><g transform="translate(0 -796.36)"><path d="m -1067.28 1935.73 c 48.956 88.52 202.34 54.16 228.29 -18.719 30.922 -86.82 -49.563 -251.7 -185.88 -155.11 -45.916 33.728 -91.37 85.31 -42.41 173.83 z" fill="#fff" color="#000" transform="translate(1088.39 -936.13)"/><g transform="matrix(3.1771 0 0 2.98895 54.14 855.88)" fill="#ff4500"><g clip-path="url(#1)" transform="matrix(1.73049 0 0 1.73049 -17.897 -17.897)"><g opacity="0.1" transform="translate(1 1)"><path d="m 15.543,12 16.914,0 C 34.414,12 36,13.586 36,15.543 l 0,16.914 C 36,34.414 34.414,36 32.457,36 L 15.543,36 C 13.586,36 12,34.414 12,32.457 L 12,15.543 C 12,13.586 13.586,12 15.543,12 m 0,0" id="2"/><path d="m 17 23 2 0 c 0.551 0 1 0.445 1 1 l 0 2 c 0 0.551 -0.449 1 -1 1 l -2 0 c -0.551 0 -1 -0.449 -1 -1 l 0 -2 c 0 -0.555 0.449 -1 1 -1 m 0 0"/><path d="m 23 23 2 0 c 0.555 0 1 0.445 1 1 l 0 2 c 0 0.551 -0.445 1 -1 1 l -2 0 c -0.551 0 -1 -0.449 -1 -1 l 0 -2 c 0 -0.555 0.449 -1 1 -1 m 0 0"/><path d="m 29 23 2 0 c 0.551 0 1 0.445 1 1 l 0 2 c 0 0.551 -0.449 1 -1 1 l -2 0 c -0.555 0 -1 -0.449 -1 -1 l 0 -2 c 0 -0.555 0.445 -1 1 -1 m 0 0"/><path d="m 14.91,29 18.18,0 c 0.504,0 0.91,0.445 0.91,0.996 l 0,2 c 0,0.551 -0.406,1 -0.91,1 l -18.18,0 c -0.504,0 -0.91,-0.449 -0.91,-1 l 0,-2 C 14,29.445 14.406,29 14.91,29 m 0,0"/></g></g><g clip-path="url(#0)" transform="matrix(1.73049 0 0 1.73049 -17.897 -17.897)"><g><use xlink:href="#2"/><g fill="#ffdead"><path d="m 17 23 2 0 c 0.551 0 1 0.445 1 1 l 0 2 c 0 0.551 -0.449 1 -1 1 l -2 0 c -0.551 0 -1 -0.449 -1 -1 l 0 -2 c 0 -0.555 0.449 -1 1 -1 m 0 0"/><path d="m 23 23 2 0 c 0.555 0 1 0.445 1 1 l 0 2 c 0 0.551 -0.445 1 -1 1 l -2 0 c -0.551 0 -1 -0.449 -1 -1 l 0 -2 c 0 -0.555 0.449 -1 1 -1 m 0 0"/><path d="m 29 23 2 0 c 0.551 0 1 0.445 1 1 l 0 2 c 0 0.551 -0.449 1 -1 1 l -2 0 c -0.555 0 -1 -0.449 -1 -1 l 0 -2 c 0 -0.555 0.445 -1 1 -1 m 0 0"/><path d="m 14.91,29 18.18,0 c 0.504,0 0.91,0.445 0.91,0.996 l 0,2 c 0,0.551 -0.406,1 -0.91,1 l -18.18,0 c -0.504,0 -0.91,-0.449 -0.91,-1 l 0,-2 C 14,29.445 14.406,29 14.91,29 m 0,0"/></g></g></g><path d="m 9 44.4 29.884 0 c -14.942 -1 -14.942 -1 -29.884 0 z" opacity="0.35"/><path d="m 8 3 31 0 c -15.5 1 -15.5 1 -31 0 z" opacity="0.75"/></g></g></svg>