<svg xmlns="http://www.w3.org/2000/svg" viewBox="0 0 256 256"><g transform="translate(0 -796.36)"><path d="m -1583.78 1962.12 c -329.42 135.66 -174.65 -434.9 40.478 -157.85 37.47 49.706 40.36 133.17 -40.478 157.85 z" transform="translate(1774.03 -930.96)" fill="#fff" color="#000"/><g transform="matrix(20.49646 0 0 20.30499 -13.327 796.76)" fill="#ff4500"><g fill-rule="evenodd"><path d="m 4.798 5.362 v -1.411 h 4.516 v 2.822 h 1.411 v 3.104 h -1.693 v -1.411 h -1.129 v 1.411 h -3.104 v -1.411 h -1.411 v -3.104 z" fill-opacity="0.098"/><path d="m 4.516 5.08 v -1.411 h 4.516 v 2.822 h 1.411 v 3.104 h -1.693 v -1.411 h -1.129 v 1.411 h -3.104 v -1.411 h -1.411 v -3.104 z"/></g><g transform="scale(0.28222)"><path d="m 16 14 v 4 h -4 v 11 h 4 v 4 h 11 v -4 h 4 v 4 h 5 v -10 h -4 v -9 h -16 z"/><path d="m 30.545 21.389 l -12.783 11.611 h 9.238 v -4 h 4 v 4 h 5 v -6.334 l -3.789 -3.666 h -0.211 v -0.203 l -1.455 -1.408 z" fill="#8b0000"/><path d="M 19.2 15.584 A 3.818 3.694 0 0 0 16 17.12 V 18 H 15.514 a 3.818 3.694 0 0 0 -0.24 1.277 3.818 3.694 0 0 0 7.635 0 3.818 3.694 0 0 0 -3.705 -3.693 z" fill="#800000"/><path d="m 20.727 20.334 l -7.799 8.666 h 3.072 v 4 h 11 v -4 h 0.443 l -6.717 -8.666 z" fill="#dc143c"/><path d="m 15.812474,13.810705 v 4 h -4 v 1 h 4 v 4 h -4 v 1 h 4 v 4 h -4 v 1 h 4 v 4 h 1 v -4 h 4 v 4 h 1 v -4 h 4 v 4 h 1 v -4 h 4 v 4 h 1 v -4 h 4 v -1 h -4 v -4 h 4 v -1 h -4 v -9 h -1 v 4 h -4 v -4 h -1 v 4 h -4 v -4 h -1 v 4 h -4 v -4 z m 1,5 h 4 v 4 h -4 z m 5,0 h 4 v 4 h -4 z m 5,0 h 4 v 4 h -4 z m -10,5 h 4 v 4 h -4 z m 5,0 h 4 v 4 h -4 z m 5,0 h 4 v 4 h -4 z" fill="#8b0000" fill-opacity="0.216"/></g></g></g></svg>