<svg xmlns="http://www.w3.org/2000/svg" viewBox="0 0 256 256"><g transform="translate(0 -796.36)"><path d="m 211.17 833.49 c 201.82 266.38 -353.59 304.22 -175.35 32.31 40.634 -61.991 121.89 -102.86 175.35 -32.31 z" style="fill:#fff;color:#000"/><g transform="matrix(3.64011 0 0 3.32555 -1358.84 -806.84)" style="fill:#ff4500"><path d="m 390.57 503.8 h 36 v 40 h -36 z"/><path d="m 390.57 542.8 h 36 v 1 h -36 z"/><path d="m 392.57 505.8 h 32 v 36 h -32 z"/><path d="m 412.57 531.8 h 3 v 1 h -3 z"/><path d="m 392.57 539.8 h 32 v 2 h -32 z" style="fill:#ffdead;fill-opacity:0.314"/><g style="fill-rule:evenodd"><path d="m 424.57 529.8 l -10 10 v -10 z"/><path d="m 414.57 539.8 l 4 4 h 8 v -11 v -1 l -2 -2 z" style="opacity:0.2"/><path d="m 415.57 530.8 v 8 l 8 -8 z" style="fill:#ffdead"/></g><g style="fill:#ffdead"><path d="m 394.57 513.8 h 2 v 1 h -2 z"/><path d="m 397.57 513.8 h 3 v 1 h -3 z"/><path d="m 401.57 513.8 h 5 v 1 h -5 z"/><path d="m 408.57 513.8 h 6 v 1 h -6 z"/><path d="m 415.57 513.8 h 3 v 1 h -3 z"/><path d="m 419.57 513.8 h 2 v 1 h -2 z"/><path d="m 394.57 515.8 h 4 v 1 h -4 z"/><path d="m 399.57 515.8 h 2 v 1 h -2 z"/><path d="m 402.57 515.8 h 9 v 1 h -9 z"/><path d="m 412.57 515.8 h 6 v 1 h -6 z"/><path d="m 419.57 515.8 h 3 v 1 h -3 z"/><path d="m 394.57 519.8 h 2 v 1 h -2 z"/><path d="m 397.57 519.8 h 3 v 1 h -3 z"/><path d="m 401.57 519.8 h 6 v 1 h -6 z"/><path d="m 409.57 519.8 h 4 v 1 h -4 z"/><path d="m 414.57 519.8 h 2 v 1 h -2 z"/><path d="m 417.57 519.8 h 5 v 1 h -5 z"/><path d="m 394.57 521.8 h 2 v 1 h -2 z"/><path d="m 397.57 521.8 h 5 v 1 h -5 z"/><path d="m 403.57 521.8 h 3 v 1 h -3 z"/><path d="m 407.57 521.8 h 1 v 1 h -1 z"/><path d="m 409.57 521.8 h 5 v 1 h -5 z"/><path d="m 415.57 521.8 h 3 v 1 h -3 z"/><path d="m 419.57 521.8 h 3 v 1 h -3 z"/><path d="m 394.57 525.8 h 6 v 1 h -6 z"/><path d="m 401.57 525.8 h 3 v 1 h -3 z"/><path d="m 405.57 525.8 h 3 v 1 h -3 z"/><path d="m 409.57 525.8 h 3 v 1 h -3 z"/><path d="m 413.57 525.8 h 5 v 1 h -5 z"/><path d="m 419.57 525.8 h 1 v 1 h -1 z"/><path d="m 394.57 527.8 h 5 v 1 h -5 z"/><path d="m 400.57 527.8 h 5 v 1 h -5 z"/><path d="m 406.57 527.8 h 5 v 1 h -5 z"/><path d="m 412.57 527.8 h 3 v 1 h -3 z"/><path d="m 416.57 527.8 h 3 v 1 h -3 z"/><path d="m 420.57 527.8 h 1 v 1 h -1 z"/><path d="m 394.57 529.8 h 2 v 1 h -2 z"/><path d="m 394.57 531.8 h 4 v 1 h -4 z"/><path d="m 399.57 531.8 h 4 v 1 h -4 z"/><path d="m 404.57 531.8 h 4 v 1 h -4 z"/><path d="m 409.57 531.8 h 2 v 1 h -2 z"/><path d="m 394.57 533.8 h 3 v 1 h -3 z"/><path d="m 398.57 533.8 h 1 v 1 h -1 z"/><path d="m 400.57 533.8 h 4 v 1 h -4 z"/><path d="m 405.57 533.8 h 3 v 1 h -3 z"/><path d="m 409.57 533.8 h 5 v 1 h -5 z"/></g></g></g></svg>