<svg xmlns="http://www.w3.org/2000/svg" viewBox="0 0 256 256"><g transform="translate(0 -796.36)"><path d="m 44.834 1015.23 c -201.82 -266.38 353.59 -304.22 175.35 -32.31 -40.634 61.991 -121.89 102.86 -175.35 32.31 z" fill="#fff" color="#fff"/><g transform="matrix(3.74421 0 0 3.41394 -636.68 -1525.05)" fill="#ff4500"><path d="m 187.24 697.81 l 34 0 l 0 36 l -34 0 z"/><g fill="#ffdead"><path d="m 187.24 703.15 l 34 0 l 0 0.308 l -34 0 z"/><path d="m 187.24 708.66 l 34 0 l 0 0.308 l -34 0 z"/><path d="m 187.24 714.16 l 34 0 l 0 0.307 l -34 0 z"/><path d="m 189.24 693.81 l 3 0 l 0 5 l -3 0 z"/><path d="m 198.24 693.81 l 3 0 l 0 5 l -3 0 z"/><path d="m 207.24 693.81 l 3 0 l 0 5 l -3 0 z"/><path d="m 216.24 693.81 l 3 0 l 0 5 l -3 0 z"/><path d="m 187.24 719.67 l 34 0 l 0 0.308 l -34 0 z"/><path d="m 187.24 725.17 l 34 0 l 0 0.308 l -34 0 z"/><path transform="matrix(0 -1 1 0 0 0)" d="m -733.81 194.99 l 36 0 l 0 0.5 l -36 0 z"/></g><g transform="matrix(0.02953 0 0 0.0294 189.1 708.59)" fill="#fff"><path d="m 364.09 23.889 l -349.28 0 l -10.21 133.78 l 10.869 0 c 7.816 -100.19 16.414 -117.73 110.21 -117.73 10.869 0 28.528 0 33.389 0 11.553 1.808 11.553 9.159 11.553 23.08 l 0 329.25 c 0 21.86 -1.832 28.528 -52.782 28.528 l -17.17 0 l 0 14.606 c 29.02 -0.562 59.26 -1.148 88.93 -1.148 29.579 0 59.915 0.586 88.91 1.148 l 0 -14.606 l -16.878 0 c -50.19 0 -52 -6.668 -52 -28.528 l 0 -329.25 c 0 -13.36 0 -20.614 10.894 -23.08 l 33.19 0 c 92.55 0 101.61 17.439 109.42 117.73 l 10.894 0"/><path d="m 667.6 414.32 l -10.869 0 c -13.263 89.69 -21.08 138.44 -127.47 138.44 l -83.949 0 c -24.16 0 -25.304 -3.053 -25.304 -23.863 l 0 -169.07 l 57.06 0 c 57.06 0 62.5 20.908 62.5 71.956 l 9.721 0 l 0 -157.35 l -9.721 0 c 0 50.19 -5.447 70.71 -62.5 70.71 l -57.06 0 l 0 -149.9 c 0 -20.419 1.148 -23.472 25.304 -23.472 l 82.7 0 c 93.6 0 104.49 37.2 112.97 117.17 l 10.894 0 l -14.508 -133.78 l -306.27 0 l 0 16.609 c 42.841 0 49.705 0 49.705 27.19 l 0 326.42 c 0 27.19 -6.766 27.19 -49.705 27.19 l 0 14.606 l 314.76 0"/><path d="m 830.66 206.51 89.49 -129.38 c 8.964 -12.701 27.19 -38.836 76.82 -39.495 l 0 -14.606 c -13.849 1.148 -36.833 1.148 -51.34 1.148 -19.931 0 -44.747 0 -59.817 -1.148 l 0 14.607 c 19.369 1.807 24.13 13.922 24.13 23.667 0 7.23 -2.955 12.11 -7.254 18.12 l -79.85 115.82 -89.49 -130.99 c -4.201 -6.595 -4.787 -8.5 -4.787 -10.307 0 -5.447 6.595 -15.753 26.623 -16.315 l 0 -14.607 c -19.369 1.148 -48.948 1.148 -68.879 1.148 -15.656 0 -45.895 0 -60.5 -1.148 l 0 14.607 c 33.22 0 44.09 1.246 57.45 20.03 l 116.68 171.37 -105.22 153.71 c -25.964 37.59 -65.26 38.25 -76.82 38.25 l 0 14.606 c 13.825 -1.148 36.833 -1.148 51.34 -1.148 16.316 0 44.747 0 59.817 1.148 l 0 -14.606 c -18.71 -1.807 -24.13 -13.922 -24.13 -23.668 0 -7.816 2.955 -12.11 6.01 -16.414 l 96.75 -141.2 105.22 154.66 c 4.763 6.692 4.763 8.5 4.763 10.307 0 4.763 -5.422 15.168 -26.599 16.414 l 0 14.606 c 19.369 -1.148 48.948 -1.148 68.879 -1.148 15.656 0 45.895 0 60.57 1.148 l 0 -14.606 c -38.738 0 -44.844 -2.955 -56.861 -20.03"/></g></g></g></svg>