<svg xmlns="http://www.w3.org/2000/svg" viewBox="0 0 256 256" xmlns:xlink="http://www.w3.org/1999/xlink"><defs><clipPath><path d="M 0,64 H64 V128 H0 z"/></clipPath><radialGradient id="4" cx="-3478.63" cy="-170.58" r="177.93" gradientTransform="matrix(0.9239 -0.3827 -0.3827 -0.9239 3412.5 -1232.28)" gradientUnits="userSpaceOnUse" xlink:href="#0"/><radialGradient id="5" cx="-3484.06" cy="-172.15" r="180.42" gradientTransform="matrix(0.9239 -0.3827 -0.3827 -0.9239 3412.5 -1232.28)" gradientUnits="userSpaceOnUse" xlink:href="#0"/><radialGradient id="6" cx="-3492.76" cy="-163.44" r="192.39" gradientTransform="matrix(0.9239 -0.3827 -0.3827 -0.9239 3412.5 -1232.28)" gradientUnits="userSpaceOnUse" xlink:href="#0"/><radialGradient id="3" cx="-3489.27" cy="-157.04" r="220.61" gradientTransform="matrix(0.9239 -0.3827 -0.3827 -0.9239 3412.5 -1232.28)" gradientUnits="userSpaceOnUse" xlink:href="#0"/><radialGradient id="7" cx="-3478.62" cy="-162.47" r="172.1" gradientTransform="matrix(0.9239 -0.3827 -0.3827 -0.9239 3412.5 -1232.28)" gradientUnits="userSpaceOnUse" xlink:href="#0"/><radialGradient id="0" cx="-3483.09" cy="-160.91" r="173.08" gradientTransform="matrix(0.9239 -0.3827 -0.3827 -0.9239 3412.5 -1232.28)" gradientUnits="userSpaceOnUse"><stop style="stop-color:#1f0000"/><stop offset="0.053" style="stop-color:#300700"/><stop offset="0.159" style="stop-color:#5d1900"/><stop offset="0.307" style="stop-color:#a53700"/><stop offset="0.447" style="stop-color:#ef5500"/><stop offset="0.571" style="stop-color:#ef5000"/><stop offset="0.71" style="stop-color:#f14300"/><stop offset="0.856" style="stop-color:#f32d00"/><stop offset="1" style="stop-color:#f60f00"/></radialGradient><radialGradient id="2" cx="-3489.27" cy="-174.08" r="181.78" gradientTransform="matrix(0.9239 -0.3827 -0.3827 -0.9239 3412.5 -1232.28)" gradientUnits="userSpaceOnUse" xlink:href="#0"/><radialGradient id="1" cx="-3491.8" cy="-170.58" r="189.14" gradientTransform="matrix(0.9239 -0.3827 -0.3827 -0.9239 3412.5 -1232.28)" gradientUnits="userSpaceOnUse" xlink:href="#0"/></defs><g transform="matrix(0.47756 0 0 0.43654 3.03 16.78)"><g style="fill:#ff4500;stroke:#ff4500"><path d="m 259.2 248.3 c 156.7 -189.1 22.9 -244.5 0 0 z"/><path d="m 248.3 259.2 c -244.5 22.9 -189 156.7 0 0 z"/><path d="m 252.8 263.7 c -156.7 189.1 -22.9 244.5 0 0 z"/><path d="m 252.8 248.3 c -22.9 -244.5 -156.7 -189 0 0 z"/><path d="m 263.7 259.2 c 189.1 156.7 244.5 22.9 0 0 z"/><path d="m 259.2 263.7 c 22.9 244.5 156.7 189 0 0 z"/><path d="m 248.3 252.8 c -189.1 -156.7 -244.5 -22.9 0 0 z"/><path d="m 263.7 252.8 c 244.5 -22.9 189 -156.7 0 0 z"/></g><g><path d="m 256 248 c 70 -226.7 -70 -226.7 0 0 z" style="fill:url(#0)"/><path d="m 250.3 261.7 c -209.7 110.8 -110.8 209.7 0 0 z" style="fill:url(#1)"/><path d="m 256 264 c -70 226.7 70 226.7 0 0 z" style="fill:url(#2)"/><path d="m 250.3 250.3 c -110.8 -209.7 -209.7 -110.8 0 0 z" style="fill:url(#3)"/><path d="m 264 256 c 226.7 70 226.7 -70 0 0 z" style="fill:url(#4)"/><path d="m 261.7 261.7 c 110.8 209.7 209.7 110.8 0 0 z" style="fill:url(#5)"/><path d="m 248 256 c -226.7 -70 -226.7 70 0 0 z" style="fill:url(#6)"/><path d="m 261.7 250.3 c 209.7 -110.8 110.8 -209.7 0 0 z" style="fill:url(#7)"/></g><g style="fill:#ff4500;stroke:#ff4500"><g><path d="m 136.7 374.6 c 61.3 -60.9 98.6 -94.3 107.5 -106.8 -12.7 8.8 -46.3 45.9 -107.5 106.8 z"/><path d="m 249.6 271.4 c -8.3 13 -25.1 60.1 -58.4 139.8 33.2 -79.7 54.9 -124.8 58.4 -139.8 z"/><path d="m 87.8 255.5 c 86.4 0.3 136.4 3.1 151.5 0.5 -15.2 -2.7 -65.2 -0.3 -151.5 -0.5 z"/><path d="m 240.6 262.3 c -15 3.3 -60.3 24.7 -140.2 57.5 79.9 -32.7 127.1 -49.3 140.2 -57.5 z"/><path d="m 262.3 271.4 c 3.3 15 24.7 60.3 57.5 140.2 -32.7 -79.9 -49.3 -127.1 -57.5 -140.2 z"/><path d="M 374.6,375.3 C 313.7,314 280.3,276.7 267.8,267.8 c 8.8,12.7 45.9,46.3 106.8,107.5 z"/><path d="m 255.5 424.2 c 0.3 -86.4 3.1 -136.4 0.5 -151.5 -2.7 15.2 -0.3 65.2 -0.5 151.5 z"/><path d="m 240.6 249.6 c -13 -8.3 -60.1 -25.1 -139.8 -58.4 79.7 33.2 124.8 54.9 139.8 58.4 z"/><path d="m 271.4 249.7 c 15 -3.3 60.3 -24.7 140.2 -57.5 -79.9 32.7 -127.1 49.3 -140.2 57.5 z"/><path d="m 424.2 256.5 c -86.4 -0.3 -136.4 -3.1 -151.5 -0.5 15.2 2.7 65.2 0.3 151.5 0.5 z"/><path d="m 271.4 262.4 c 13 8.3 60.1 25.1 139.8 58.4 -79.7 -33.2 -124.8 -54.9 -139.8 -58.4 z"/><path d="m 375.3 137.4 c -61.3 60.9 -98.6 94.3 -107.5 106.8 12.7 -8.8 46.3 -45.9 107.5 -106.8 z"/><path d="m 249.7 240.6 c -3.3 -15 -24.7 -60.3 -57.5 -140.2 32.7 79.9 49.3 127.1 57.5 140.2 z"/><path d="m 137.4 136.7 c 60.9 61.3 94.3 98.6 106.8 107.5 -8.8 -12.7 -45.9 -46.3 -106.8 -107.5 z"/><path d="m 262.4 240.6 c 8.3 -13 25.1 -60.1 58.4 -139.8 -33.2 79.7 -54.9 124.8 -58.4 139.8 z"/><path d="m 256.5 87.8 c -0.3 86.4 -3.1 136.4 -0.5 151.5 2.7 -15.2 0.3 -65.2 0.5 -151.5 z"/></g><g style="opacity:0.4"><path d="m 140.7 355.2 c 59.2 -50.9 95 -78.6 103.8 -89.3 -11.9 7.1 -44.6 38.4 -103.8 89.3 z"/><path d="m 249.2 269.5 c -8.3 11.2 -26.6 52.6 -61.8 122.3 35.2 -69.7 57.7 -109 61.8 -122.3 z"/><path d="m 104.4 244.6 c 77.9 5.8 122.7 11.6 136.6 10.3 -13.6 -3.4 -58.8 -4.4 -136.6 -10.3 z"/><path d="m 241.7 260.7 c -13.8 2 -56 18.4 -130.1 42.8 74.1 -24.4 117.8 -36.2 130.1 -42.8 z"/><path d="m 260.7 270.3 c 2 13.8 18.4 56 42.8 130.1 -24.4 -74.1 -36.2 -117.8 -42.8 -130.1 z"/><path d="m 355.2 371.3 c -50.9 -59.2 -78.6 -95 -89.3 -103.8 7.1 11.9 38.4 44.6 89.3 103.8 z"/><path d="m 244.6 407.6 c 5.8 -77.9 11.6 -122.7 10.3 -136.6 -3.4 13.6 -4.4 58.8 -10.3 136.6 z"/><path d="m 242.5 249.2 c -11.2 -8.3 -52.6 -26.6 -122.3 -61.8 69.7 35.2 109 57.7 122.3 61.8 z"/><path d="m 270.3 251.3 c 13.8 -2 56 -18.4 130.1 -42.8 -74.1 24.4 -117.8 36.2 -130.1 42.8 z"/><path d="M 407.6,267.4 C 329.7,261.6 284.9,255.8 271,257.1 c 13.6,3.4 58.8,4.4 136.6,10.3 z"/><path d="m 269.5 262.8 c 11.2 8.3 52.6 26.6 122.3 61.8 -69.7 -35.2 -109 -57.7 -122.3 -61.8 z"/><path d="m 371.3 156.8 c -59.2 50.9 -95 78.6 -103.8 89.3 11.9 -7.1 44.6 -38.4 103.8 -89.3 z"/><path d="m 251.3 241.7 c -2 -13.8 -18.4 -56 -42.8 -130.1 24.4 74.1 36.2 117.8 42.8 130.1 z"/><path d="m 156.8 140.7 c 50.9 59.2 78.6 95 89.3 103.8 -7.1 -11.9 -38.4 -44.6 -89.3 -103.8 z"/><path d="m 262.8 242.5 c 8.3 -11.2 26.6 -52.6 61.8 -122.3 -35.2 69.7 -57.7 109 -61.8 122.3 z"/><path d="m 267.4 104.4 c -5.8 77.9 -11.6 122.7 -10.3 136.6 3.4 -13.6 4.4 -58.8 10.3 -136.6 z"/></g><g style="opacity:0.4"><path d="m 156.7 371.2 c 51 -59.1 82.3 -91.8 89.4 -103.7 -10.7 8.8 -38.4 44.5 -89.4 103.7 z"/><path d="m 251.3 270.3 c -6.6 12.3 -18.5 55.9 -42.9 130.1 24.4 -74.1 40.8 -116.3 42.9 -130.1 z"/><path d="m 104.3 267.2 c 77.9 -5.8 123.1 -6.7 136.6 -10.1 -13.8 -1.3 -58.7 4.4 -136.6 10.1 z"/><path d="m 242.5 262.8 c -13.3 4.1 -52.6 26.5 -122.3 61.6 69.7 -35.1 111.1 -53.3 122.3 -61.6 z"/><path d="m 262.8 269.5 c 4.1 13.3 26.5 52.6 61.6 122.3 -35.1 -69.7 -53.3 -111.1 -61.6 -122.3 z"/><path d="m 371.2 355.3 c -59.1 -51 -91.8 -82.3 -103.7 -89.4 8.8 10.7 44.5 38.4 103.7 89.4 z"/><path d="m 267.2 407.7 c -5.8 -77.9 -6.7 -123.1 -10.1 -136.6 -1.3 13.8 4.4 58.7 10.1 136.6 z"/><path d="m 241.7 251.3 c -12.3 -6.6 -55.9 -18.5 -130.1 -42.9 74.1 24.4 116.3 40.8 130.1 42.9 z"/><path d="m 269.5 249.2 c 13.3 -4.1 52.6 -26.5 122.3 -61.6 -69.7 35.1 -111.1 53.3 -122.3 61.6 z"/><path d="m 407.7 244.8 c -77.9 5.8 -123.1 6.7 -136.6 10.1 13.8 1.3 58.7 -4.4 136.6 -10.1 z"/><path d="m 270.3 260.7 c 12.3 6.6 55.9 18.5 130.1 42.9 -74.1 -24.4 -116.3 -40.8 -130.1 -42.9 z"/><path d="m 355.3 140.8 c -51 59.1 -82.3 91.8 -89.4 103.7 10.7 -8.8 38.4 -44.5 89.4 -103.7 z"/><path d="m 249.2 242.5 c -4.1 -13.3 -26.5 -52.6 -61.6 -122.3 35.1 69.7 53.3 111.1 61.6 122.3 z"/><path d="m 140.8 156.7 c 59.1 51 91.8 82.3 103.7 89.4 -8.8 -10.7 -44.5 -38.4 -103.7 -89.4 z"/><path d="m 260.7 241.7 c 6.6 -12.3 18.5 -55.9 42.9 -130.1 -24.4 74.1 -40.8 116.3 -42.9 130.1 z"/><path d="m 244.8 104.3 c 5.8 77.9 6.7 123.1 10.1 136.6 1.3 -13.8 -4.4 -58.7 -10.1 -136.6 z"/></g></g><g style="fill:#dc143c"><path d="m 252.3 291.4 c -1.5 14.5 -11.8 12.3 -7.3 -1.5 -4.5 13.9 -14.1 9.6 -6.8 -3 -7.3 12.6 -15.8 6.5 -6 -4.4 -9.8 10.8 -16.8 3 -5 -5.5 -11.8 8.6 -17 -0.5 -3.7 -6.4 -13.3 5.9 -16.6 -4 -2.3 -7.1 -14.3 3 -15.4 -7.4 -0.8 -7.4 -14.6 0 -13.5 -10.4 0.8 -7.4 -14.3 -3 -11 -13 2.3 -7.1 -13.3 -5.9 -8.1 -15 3.7 -6.4 -11.8 -8.6 -4.8 -16.4 5 -5.5 -9.8 -10.8 -1.3 -17 6 -4.4 -7.3 -12.6 2.3 -16.9 6.8 -3 -4.5 -13.9 5.8 -16.1 7.3 -1.5 -1.5 -14.5 9 -14.5 7.4 0 1.5 -14.5 11.8 -12.3 7.3 1.5 4.5 -13.9 14.1 -9.6 6.8 3 7.3 -12.6 15.8 -6.5 6 4.4 9.8 -10.8 16.8 -3 5 5.5 11.8 -8.6 17 0.5 3.7 6.4 13.3 -5.9 16.6 4 2.3 7.1 14.3 -3 15.4 7.4 0.8 7.4 14.6 0 13.5 10.4 -0.8 7.4 14.3 3 11 13 -2.3 7.1 13.3 5.9 8.1 15 -3.7 6.4 11.8 8.6 4.8 16.4 -5 5.5 9.8 10.8 1.3 17 -6 4.4 7.3 12.6 -2.3 16.9 -6.8 3 4.5 13.9 -5.8 16.1 -7.3 1.5 1.5 14.5 -8.9 14.5 -7.4 0 z"/><path d="m 253.3 268.2 c -6.7 31.7 -23.8 24 -5 -2.2 -18.8 26.3 -31.4 12.3 -3.6 -4 -27.7 16.4 -33.5 -1.5 -1.7 -5.2 -31.8 3.7 -29.9 -15 0.6 -5.4 -30.5 -9.5 -21.1 -25.8 2.7 -4.7 -23.8 -21.1 -8.6 -32.1 4.4 -3.2 -13 -28.9 5.3 -32.8 5.3 -1.1 0 -31.7 18.4 -27.8 5.3 1.1 13 -28.9 28.2 -17.9 4.4 3.2 23.8 -21.1 33.2 -4.8 2.7 4.7 30.5 -9.5 32.4 9.1 0.6 5.4 31.8 3.7 26 21.5 -1.7 5.2 27.7 16.4 15.2 30.3 -3.6 4 18.8 26.3 1.7 33.9 -5 2.2 6.7 31.6 -12.1 31.6 -5.4 0 z"/><path d="m 251.4 277.7 c -1.9 8.9 -8.1 6.9 -4.4 -1.4 -3.7 8.3 -9.4 5.1 -4 -2.3 -5.3 7.4 -10.2 3 -3.5 -3.1 -6.7 6.1 -10.6 0.8 -2.7 -3.7 -7.9 4.6 -10.5 -1.4 -1.9 -4.2 -8.6 2.8 -10 -3.6 -1 -4.5 -9 1 -9.1 -5.6 0 -4.6 -9 -0.9 -7.7 -7.3 1 -4.5 -8.7 -2.8 -6 -8.8 1.9 -4.2 -7.9 -4.5 -4.1 -9.8 2.7 -3.8 -6.8 -6.1 -1.9 -10.5 3.4 -3.1 -5.4 -7.3 0.3 -10.6 4 -2.3 -3.7 -8.3 2.5 -10.3 4.4 -1.4 -1.9 -8.9 4.6 -9.6 4.6 -0.5 0 -9.1 6.5 -8.4 4.6 0.5 1.9 -8.9 8.1 -6.9 4.4 1.4 3.7 -8.3 9.4 -5.1 4 2.3 5.3 -7.4 10.2 -3 3.5 3.1 6.7 -6.1 10.6 -0.8 2.7 3.7 7.9 -4.6 10.5 1.4 1.9 4.2 8.6 -2.8 10 3.6 1 4.5 9 -1 9.1 5.6 0 4.6 9 0.9 7.7 7.3 -1 4.5 8.7 2.8 6 8.8 -1.9 4.2 7.9 4.5 4.1 9.8 -2.7 3.8 6.8 6.1 1.9 10.5 -3.4 3.1 5.4 7.3 -0.3 10.6 -4 2.3 3.7 8.3 -2.5 10.3 -4.4 1.4 1.9 8.9 -4.6 9.6 -4.6 0.5 0.1 9.1 -6.4 8.4 -4.6 -0.5 z"/></g></g></svg>