<svg xmlns="http://www.w3.org/2000/svg" viewBox="0 0 256 256" xmlns:xlink="http://www.w3.org/1999/xlink"><defs><path id="0" d="m 50.983,119.32 21.743,-38.05 20.796,-38.577 22.08,37.855 23.01,37.3 -43.824,0.195 z"/><rect id="1" width="42.857" x="104.66" y="977.99" rx="3.301" height="4.969" ry="2.484"/></defs><g transform="translate(1.085 -795.28)"><path d="m -1374.42 1658.71 c 127.95 -192.46 -280.09 -311 -226.07 -62.2 23.02 102.82 167.39 165.22 226.07 62.2 z" transform="matrix(0 1 -1 0 1711.48 2401.81)" style="fill:#fff;color:#000"/><g transform="matrix(0.95404 0 0 0.89828 -26.749 79.39)" style="fill:#ff7f50"><use transform="matrix(0.5289 0.02769 -0.07999 1.54403 85.76 795.54)" xlink:href="#0"/><path d="m 61.831,193.08 -7.354,-13.11 -7.676,-12.924 15.03,0.186 15.03,-0.186 -7.676,12.924 z" transform="matrix(1.56163 0 0 0.89315 29.357 832.01)"/><use xlink:href="#1"/><rect width="19.255" height="22.981" x="122.52" y="855.16" rx="3.301"/></g><g transform="matrix(0.95404 0 0 0.89828 41.59 76.14)" style="fill:#ffa07a"><use transform="matrix(0.5289 0.02769 -0.07999 1.54403 85.76 795.54)" xlink:href="#0"/><path transform="matrix(1.56163 0 0 0.89315 29.357 832.01)" d="m 61.831,193.08 -7.354,-13.11 -7.676,-12.924 15.03,0.186 15.03,-0.186 -7.676,12.924 z" id="2"/><use xlink:href="#1"/><rect rx="3.301" y="855.16" x="122.52" height="22.981" width="19.255" id="3"/></g><g transform="matrix(1 0 0 1.10172 0 -86.985)" style="fill:#ff4500"><use transform="matrix(0.5289 0.02769 -0.07999 1.54403 85.76 795.54)" xlink:href="#0"/><use xlink:href="#2"/><use xlink:href="#1"/><use xlink:href="#3"/></g></g></svg>