<svg xmlns="http://www.w3.org/2000/svg" viewBox="0 0 256 256"><g transform="translate(0 -796.36)" style="fill:#ffdead"><path d="m 101.39 800.1 c -131.87 19.829 -135.83 217.21 -7.636 247.04 103.78 30.702 188.63 -80.47 154.63 -163.63 -16.07 -55.684 -81.83 -100.67 -146.99 -83.41 z" style="fill:#fff;color:#000"/><g transform="matrix(0.62289 0 0 0.63136 45.562 345.64)"><path transform="matrix(0 1 -1 0 1711.48 2401.81)" d="m -1374.42 1658.71 c 127.95 -192.46 -280.09 -311 -226.07 -62.2 23.02 102.82 167.39 165.22 226.07 62.2 z" style="color:#000"/><g style="fill:#ff4500"><path transform="matrix(0.5289 0.02769 -0.07999 1.54403 85.76 795.54)" d="m 50.983,119.32 21.743,-38.05 20.796,-38.577 22.08,37.855 23.01,37.3 -43.824,0.195 z"/><path transform="matrix(1.56163 0 0 0.89315 29.357 832.01)" d="m 61.831,193.08 -7.354,-13.11 -7.676,-12.924 15.03,0.186 15.03,-0.186 -7.676,12.924 z"/><rect ry="2.484" rx="3.301" y="977.99" x="104.66" height="4.969" width="42.857"/><rect rx="3.301" y="855.16" x="122.52" height="22.981" width="19.255"/></g></g></g></svg>