<svg xmlns="http://www.w3.org/2000/svg" viewBox="0 0 256 256"><g transform="translate(0 -796.36)" style="color:#000"><path d="m 125.73 798.56 c -111.92 -22.351 -154.42 130.95 -105.92 214.2 38.644 66.33 171.02 47.37 220.37 -42.17 49.35 -89.54 -24.617 -154.09 -114.45 -172.03 z" style="fill:#fff"/><g transform="matrix(7.22567 0 0 6.0167 -77.14 852.45)"><path d="m 32.817 16.376 c -0.037 0.003 -0.081 -0.009 -0.114 -0.031 -0.035 -0.022 -0.071 -0.062 -0.094 -0.103 -0.026 -0.045 -0.045 -0.107 -0.052 -0.161 -0.008 -0.062 -0.006 -0.137 0.006 -0.198 0.013 -0.07 0.042 -0.147 0.074 -0.206 0.037 -0.067 0.091 -0.134 0.144 -0.182 0.06 -0.053 0.137 -0.099 0.207 -0.126 0.078 -0.029 0.173 -0.044 0.255 -0.041 0.09 0.003 0.194 0.028 0.28 0.065 0.094 0.041 0.196 0.109 0.277 0.182 0.088 0.08 0.177 0.192 0.243 0.301 0.071 0.118 0.136 0.269 0.178 0.407 0.045 0.149 0.076 0.33 0.086 0.489 0.01 0.171 -0.001 0.369 -0.028 0.536 -0.03 0.179 -0.087 0.379 -0.155 0.541 -0.072 0.172 -0.178 0.356 -0.285 0.497 -0.113 0.15 -0.263 0.298 -0.405 0.404 -0.15 0.111 -0.336 0.209 -0.504 0.265 -0.177 0.06 -0.389 0.092 -0.572 0.09 -0.193 -0.003 -0.414 -0.045 -0.6 -0.112 -0.195 -0.071 -0.409 -0.192 -0.581 -0.325 -0.181 -0.14 -0.37 -0.337 -0.514 -0.532 -0.151 -0.204 -0.298 -0.469 -0.4 -0.716 -0.107 -0.258 -0.196 -0.575 -0.245 -0.859 -0.05 -0.296 -0.071 -0.646 -0.057 -0.948 0.015 -0.314 0.07 -0.672 0.151 -0.97 0.083 -0.31 0.217 -0.649 0.363 -0.92 0.151 -0.281 0.359 -0.574 0.563 -0.795 0.212 -0.229 0.483 -0.451 0.735 -0.602 0.261 -0.156 0.58 -0.285 0.864 -0.349 0.294 -0.067 0.64 -0.086 0.937 -0.053 0.307 0.034 0.656 0.132 0.945 0.266 0.298 0.138 0.624 0.354 0.883 0.586 0.267 0.238 0.544 0.564 0.752 0.882 0.214 0.327 0.42 0.745 0.558 1.131 0.142 0.397 0.257 0.881 0.311 1.312 0.056 0.442 0.066 0.961 0.028 1.406 -0.039 0.457 -0.14 0.975 -0.273 1.404 -0.136 0.44 -0.347 0.919 -0.57 1.299 -0.229 0.39 -0.54 0.793 -0.842 1.094 -0.31 0.309 -0.703 0.603 -1.066 0.8 -0.372 0.201 -0.824 0.361 -1.225 0.433 -0.41 0.074 -0.891 0.08 -1.303 0.017 -0.421 -0.064 -0.897 -0.22 -1.29 -0.419 -0.402 -0.205 -0.839 -0.517 -1.185 -0.846 -0.354 -0.336 -0.719 -0.791 -0.99 -1.232 -0.278 -0.45 -0.541 -1.021 -0.716 -1.546 -0.178 -0.537 -0.317 -1.187 -0.378 -1.764 -0.057 -0.479 -0.179 -1.019 -0.334 -1.462 -0.15 -0.433 -0.375 -0.901 -0.611 -1.269 -0.229 -0.359 -0.536 -0.728 -0.832 -0.999 -0.288 -0.264 -0.651 -0.513 -0.984 -0.673 -0.324 -0.156 -0.715 -0.273 -1.06 -0.317 -0.336 -0.043 -0.726 -0.028 -1.059 0.041 -0.323 0.067 -0.687 0.206 -0.984 0.377 -0.289 0.166 -0.601 0.412 -0.846 0.668 -0.237 0.248 -0.479 0.578 -0.656 0.895 -0.171 0.307 -0.331 0.693 -0.432 1.046 -0.098 0.342 -0.169 0.753 -0.191 1.115 -0.022 0.35 -0.005 0.756 0.047 1.101 0.05 0.333 0.149 0.706 0.267 1.01 0.114 0.293 0.281 0.609 0.453 0.854 0.166 0.236 0.384 0.476 0.594 0.649 0.201 0.166 0.453 0.319 0.682 0.412 0.22 0.09 0.484 0.15 0.715 0.163 0.221 0.013 0.478 -0.016 0.694 -0.077 0.207 -0.059 0.437 -0.167 0.624 -0.293 0.178 -0.121 0.369 -0.294 0.515 -0.47 0.139 -0.168 0.279 -0.388 0.377 -0.596 0.094 -0.198 0.177 -0.444 0.224 -0.667 0.045 -0.211 0.071 -0.462 0.069 -0.681 -0.002 -0.207 -0.03 -0.444 -0.076 -0.642 -0.044 -0.187 -0.117 -0.393 -0.2 -0.558 -0.078 -0.155 -0.187 -0.317 -0.295 -0.439 -0.102 -0.114 -0.233 -0.225 -0.356 -0.299 -0.114 -0.069 -0.255 -0.126 -0.38 -0.151 -0.116 -0.024 -0.253 -0.028 -0.37 -0.01 -0.108 0.017 -0.229 0.058 -0.329 0.114 -0.091 0.051 -0.189 0.128 -0.264 0.21 -0.068 0.075 -0.137 0.175 -0.184 0.272 -0.043 0.087 -0.08 0.198 -0.099 0.297 -0.017 0.089 -0.024 0.196 -0.017 0.288 0.006 0.081 0.025 0.174 0.053 0.247 0.025 0.065 0.063 0.134 0.105 0.183 0.037 0.043 0.086 0.084 0.133 0.105 0.041 0.019 0.094 0.029 0.138 0.024 0.039 -0.005 0.085 -0.023 0.118 -0.051 0.031 -0.026 0.061 -0.067 0.078 -0.109 0.017 -0.042 0.047 -0.083 0.078 -0.109 0.033 -0.027 0.078 -0.046 0.118 -0.051 0.044 -0.005 0.096 0.005 0.137 0.024 0.047 0.022 0.097 0.062 0.133 0.105 0.042 0.049 0.08 0.118 0.105 0.183 0.028 0.074 0.047 0.166 0.053 0.247 0.007 0.091 0 0.198 -0.017 0.288 -0.019 0.1 -0.056 0.21 -0.099 0.297 -0.047 0.097 -0.116 0.197 -0.184 0.272 -0.075 0.082 -0.173 0.159 -0.264 0.209 -0.099 0.055 -0.221 0.097 -0.329 0.114 -0.117 0.018 -0.254 0.014 -0.37 -0.01 -0.125 -0.026 -0.266 -0.083 -0.38 -0.151 -0.123 -0.074 -0.254 -0.185 -0.356 -0.299 -0.109 -0.122 -0.217 -0.284 -0.295 -0.439 -0.083 -0.165 -0.156 -0.371 -0.2 -0.558 -0.047 -0.198 -0.074 -0.435 -0.076 -0.642 -0.002 -0.219 0.024 -0.47 0.069 -0.681 0.048 -0.223 0.131 -0.469 0.224 -0.667 0.098 -0.209 0.238 -0.428 0.377 -0.596 0.146 -0.176 0.337 -0.349 0.515 -0.47 0.187 -0.126 0.417 -0.234 0.624 -0.293 0.216 -0.062 0.472 -0.09 0.694 -0.077 0.231 0.013 0.495 0.074 0.715 0.163 0.229 0.093 0.481 0.246 0.682 0.412 0.209 0.173 0.428 0.413 0.594 0.649 0.172 0.245 0.339 0.561 0.453 0.854 0.118 0.304 0.217 0.677 0.267 1.01 0.052 0.345 0.069 0.751 0.047 1.101 -0.023 0.362 -0.094 0.773 -0.191 1.115 -0.101 0.353 -0.261 0.739 -0.432 1.046 -0.177 0.317 -0.419 0.647 -0.656 0.895 -0.244 0.256 -0.556 0.502 -0.846 0.668 -0.298 0.171 -0.661 0.31 -0.984 0.377 -0.333 0.069 -0.723 0.084 -1.059 0.041 c -0.345 -0.044 -0.736 -0.161 -1.06 -0.317 -0.333 -0.16 -0.696 -0.409 -0.984 -0.673 -0.296 -0.271 -0.602 -0.64 -0.832 -0.999 -0.235 -0.368 -0.46 -0.837 -0.611 -1.269 c -0.154 -0.444 -0.277 -0.983 -0.334 -1.462 -0.058 -0.491 -0.065 -1.066 -0.019 -1.559 0.047 -0.505 0.163 -1.076 0.314 -1.548 0.154 -0.483 0.39 -1.01 0.639 -1.425 0.255 -0.426 0.6 -0.866 0.934 -1.194 0.342 -0.335 0.776 -0.654 1.176 -0.866 0.409 -0.216 0.905 -0.386 1.345 -0.461 0.449 -0.077 0.975 -0.078 1.424 -0.005 0.459 0.074 0.978 0.249 1.406 0.471 0.359 0.178 0.792 0.314 1.175 0.368 0.374 0.053 0.809 0.042 1.181 -0.029 0.362 -0.07 0.77 -0.219 1.104 -0.405 0.326 -0.181 0.679 -0.452 0.956 -0.734 c 0.269 -0.275 0.546 -0.641 0.749 -0.995 0.197 -0.344 0.382 -0.776 0.501 -1.172 0.115 -0.385 0.201 -0.85 0.232 -1.259 0.03 -0.397 0.016 -0.86 -0.038 -1.253 -0.053 -0.382 -0.159 -0.81 -0.289 -1.161 -0.126 -0.34 -0.313 -0.706 -0.505 -0.993 -0.187 -0.277 -0.435 -0.56 -0.673 -0.765 -0.23 -0.199 -0.519 -0.383 -0.783 -0.499 -0.255 -0.112 -0.561 -0.191 -0.83 -0.215 c -0.26 -0.022 -0.561 0.001 -0.816 0.065 -0.246 0.062 -0.52 0.18 -0.744 0.321 -0.215 0.136 -0.446 0.333 -0.625 0.536 -0.172 0.195 -0.346 0.451 -0.47 0.696 -0.119 0.235 -0.228 0.527 -0.293 0.793 -0.063 0.255 -0.104 0.559 -0.11 0.826 -0.006 0.254 0.018 0.548 0.066 0.795 0.046 0.235 0.128 0.497 0.222 0.709 0.09 0.201 0.218 0.414 0.348 0.577 0.123 0.155 0.283 0.309 0.435 0.416 0.143 0.101 0.321 0.19 0.481 0.238 0.151 0.046 0.33 0.069 0.485 0.061 0.146 -0.007 0.312 -0.044 0.45 -0.102 0.129 -0.054 0.272 -0.141 0.384 -0.237 0.105 -0.09 0.214 -0.214 0.295 -0.338 0.075 -0.114 0.146 -0.261 0.192 -0.397 0.042 -0.126 0.075 -0.279 0.086 -0.414 0.011 -0.124 0.006 -0.269 -0.013 -0.392 -0.017 -0.112 -0.052 -0.236 -0.095 -0.336 -0.039 -0.09 -0.096 -0.186 -0.156 -0.256 -0.053 -0.063 -0.124 -0.124 -0.19 -0.162 -0.059 -0.034 -0.132 -0.059 -0.197 -0.066 -0.057 -0.006 -0.124 0.002 -0.179 0.022 -0.048 0.018 -0.101 0.052 -0.139 0.092 -0.034 0.036 -0.067 0.087 -0.085 0.138 -0.017 0.045 -0.026 0.104 -0.024 0.154 0.002 0.047 0.016 0.1 0.036 0.14 0.02 0.039 0.034 0.093 0.036 0.14 0.002 0.05 -0.007 0.108 -0.024 0.154 -0.018 0.05 -0.051 0.102 -0.085 0.138 -0.039 0.04 -0.091 0.074 -0.139 0.093 -0.055 0.021 -0.122 0.028 -0.179 0.022 -0.065 -0.006 -0.138 -0.032 -0.197 -0.066 -0.067 -0.038 -0.137 -0.099 -0.19 -0.162 -0.059 -0.07 -0.117 -0.166 -0.156 -0.256 -0.043 -0.1 -0.078 -0.225 -0.095 -0.336 -0.019 -0.123 -0.023 -0.268 -0.013 -0.392 0.011 -0.135 0.044 -0.289 0.086 -0.414 0.046 -0.136 0.117 -0.283 0.192 -0.397 0.08 -0.123 0.19 -0.248 0.295 -0.338 0.112 -0.097 0.255 -0.184 0.384 -0.237 0.138 -0.057 0.305 -0.094 0.45 -0.102 0.155 -0.008 0.334 0.015 0.485 0.061 0.16 0.048 0.337 0.137 0.481 0.238 0.152 0.107 0.312 0.261 0.435 0.416 0.13 0.163 0.258 0.377 0.348 0.577 0.095 0.211 0.176 0.473 0.222 0.708 0.048 0.247 0.072 0.541 0.066 0.795 -0.006 0.266 -0.047 0.571 -0.11 0.826 -0.065 0.266 -0.174 0.559 -0.294 0.793 -0.125 0.245 -0.298 0.501 -0.47 0.696 -0.179 0.203 -0.41 0.4 -0.625 0.536 -0.224 0.141 -0.499 0.259 -0.744 0.321 -0.255 0.064 -0.556 0.088 -0.816 0.065 c -0.269 -0.023 -0.575 -0.103 -0.83 -0.215 -0.264 -0.116 -0.552 -0.3 -0.783 -0.499 -0.238 -0.206 -0.486 -0.488 -0.673 -0.765 -0.193 -0.286 -0.379 -0.653 -0.505 -0.993 -0.13 -0.351 -0.237 -0.779 -0.289 -1.161 -0.054 -0.393 -0.068 -0.856 -0.038 -1.253 0.031 -0.41 0.117 -0.874 0.232 -1.259 c 0.119 -0.396 0.304 -0.829 0.501 -1.172 0.203 -0.353 0.479 -0.72 0.749 -0.995 0.277 -0.282 0.63 -0.552 0.956 -0.734 0.335 -0.186 0.743 -0.335 1.105 -0.405 0.372 -0.072 0.807 -0.082 1.181 -0.029 0.383 0.054 0.817 0.19 1.175 0.368 0.368 0.182 0.768 0.463 1.085 0.759 0.325 0.304 0.661 0.716 0.911 1.115 0.256 0.409 0.501 0.929 0.663 1.408 0.166 0.49 0.297 1.085 0.356 1.613 0.06 0.54 0.063 1.171 0.009 1.712 -0.055 0.553 -0.186 1.177 -0.354 1.693 -0.172 0.527 -0.433 1.099 -0.708 1.552 -0.281 0.462 -0.66 0.939 -1.027 1.293 -0.302 0.301 -0.613 0.704 -0.842 1.094 -0.223 0.38 -0.434 0.859 -0.57 1.299 -0.133 0.429 -0.234 0.946 -0.273 1.404 -0.038 0.445 -0.028 0.964 0.028 1.406 0.055 0.43 0.169 0.914 0.312 1.312 0.138 0.386 0.344 0.804 0.558 1.131 0.208 0.318 0.485 0.644 0.752 0.882 0.259 0.231 0.585 0.448 0.883 0.586 0.289 0.134 0.638 0.232 0.945 0.266 0.298 0.033 0.643 0.013 0.937 -0.053 0.284 -0.065 0.604 -0.193 0.864 -0.349 0.252 -0.151 0.524 -0.373 0.735 -0.602 0.204 -0.221 0.412 -0.514 0.563 -0.795 0.145 -0.271 0.28 -0.61 0.363 -0.92 0.08 -0.298 0.136 -0.656 0.151 -0.97 0.014 -0.302 -0.007 -0.652 -0.057 -0.948 -0.048 -0.284 -0.138 -0.601 -0.245 -0.859 -0.102 -0.247 -0.25 -0.512 -0.4 -0.716 -0.144 -0.195 -0.334 -0.392 -0.514 -0.532 -0.172 -0.134 -0.387 -0.254 -0.581 -0.325 -0.185 -0.068 -0.407 -0.11 -0.6 -0.112 -0.183 -0.003 -0.395 0.03 -0.572 0.089 -0.168 0.056 -0.354 0.154 -0.504 0.265 -0.142 0.105 -0.291 0.254 -0.405 0.404 -0.107 0.141 -0.212 0.324 -0.285 0.497 -0.068 0.162 -0.126 0.361 -0.155 0.541 -0.028 0.168 -0.039 0.366 -0.028 0.536 0.01 0.159 0.041 0.34 0.086 0.489 0.042 0.138 0.107 0.289 0.178 0.407 0.066 0.109 0.155 0.22 0.243 0.301 0.08 0.074 0.183 0.142 0.277 0.182 0.086 0.037 0.189 0.062 0.28 0.065 0.082 0.003 0.176 -0.012 0.255 -0.041 0.07 -0.026 0.147 -0.072 0.207 -0.126 0.053 -0.047 0.107 -0.114 0.144 -0.182 0.033 -0.059 0.061 -0.136 0.074 -0.206 0.012 -0.061 0.015 -0.136 0.006 -0.198 -0.008 -0.055 -0.027 -0.116 -0.052 -0.161 -0.023 -0.041 -0.059 -0.08 -0.094 -0.103 -0.033 -0.021 -0.077 -0.033 -0.114 -0.031 z" style="fill:#ffdead;fill-opacity:0.702"/><path d="m 32.369 15.75 c -0.036 0.003 -0.08 -0.009 -0.112 -0.03 -0.035 -0.022 -0.07 -0.061 -0.092 -0.102 -0.025 -0.045 -0.044 -0.106 -0.051 -0.16 -0.008 -0.061 -0.005 -0.135 0.006 -0.196 0.013 -0.069 0.041 -0.145 0.073 -0.203 0.036 -0.066 0.089 -0.133 0.141 -0.18 0.058 -0.053 0.134 -0.098 0.203 -0.124 0.077 -0.029 0.169 -0.043 0.25 -0.041 0.089 0.003 0.19 0.027 0.274 0.064 0.092 0.04 0.192 0.108 0.271 0.18 0.086 0.079 0.174 0.19 0.238 0.297 0.07 0.116 0.134 0.266 0.174 0.402 0.044 0.147 0.074 0.326 0.084 0.484 0.01 0.169 -0.001 0.365 -0.028 0.53 -0.029 0.177 -0.086 0.374 -0.152 0.534 -0.071 0.17 -0.174 0.351 -0.279 0.491 -0.111 0.148 -0.258 0.295 -0.397 0.399 -0.147 0.11 -0.329 0.207 -0.494 0.262 -0.174 0.059 -0.381 0.091 -0.561 0.088 -0.189 -0.003 -0.406 -0.044 -0.588 -0.111 -0.191 -0.07 -0.401 -0.189 -0.57 -0.321 -0.177 -0.138 -0.363 -0.333 -0.504 -0.526 -0.148 -0.202 -0.292 -0.463 -0.392 -0.708 -0.104 -0.255 -0.193 -0.569 -0.24 -0.85 -0.049 -0.293 -0.069 -0.638 -0.056 -0.937 0.014 -0.311 0.069 -0.664 0.148 -0.959 0.082 -0.306 0.213 -0.641 0.356 -0.909 0.148 -0.278 0.352 -0.568 0.552 -0.786 0.207 -0.227 0.474 -0.446 0.721 -0.595 0.256 -0.155 0.569 -0.281 0.847 -0.345 0.288 -0.066 0.627 -0.085 0.919 -0.053 0.301 0.033 0.643 0.131 0.927 0.263 0.293 0.136 0.612 0.35 0.866 0.579 0.262 0.236 0.534 0.558 0.738 0.872 0.21 0.324 0.411 0.736 0.547 1.118 0.14 0.393 0.252 0.871 0.305 1.297 0.055 0.437 0.065 0.95 0.028 1.39 -0.038 0.452 -0.137 0.964 -0.267 1.388 -0.134 0.435 -0.34 0.908 -0.559 1.284 -0.224 0.385 -0.529 0.784 -0.825 1.082 -0.303 0.305 -0.689 0.596 -1.045 0.791 -0.365 0.199 -0.808 0.357 -1.201 0.428 -0.402 0.073 -0.873 0.079 -1.277 0.017 -0.413 -0.064 -0.88 -0.217 -1.265 -0.415 -0.394 -0.202 -0.823 -0.511 -1.162 -0.837 -0.347 -0.333 -0.705 -0.782 -0.971 -1.218 -0.272 -0.445 -0.531 -1.01 -0.702 -1.529 -0.175 -0.531 -0.311 -1.174 -0.371 -1.744 -0.056 -0.474 -0.176 -1.01 -0.327 -1.446 -0.148 -0.428 -0.368 -0.891 -0.599 -1.255 -0.225 -0.355 -0.525 -0.719 -0.815 -0.987 -0.282 -0.261 -0.638 -0.507 -0.965 -0.665 -0.318 -0.154 -0.701 -0.27 -1.039 -0.313 -0.329 -0.042 -0.712 -0.028 -1.038 0.041 -0.317 0.067 -0.673 0.204 -0.965 0.373 -0.283 0.164 -0.59 0.408 -0.829 0.66 -0.232 0.245 -0.47 0.571 -0.643 0.885 -0.168 0.304 -0.324 0.685 -0.423 1.034 -0.096 0.338 -0.165 0.744 -0.188 1.102 -0.021 0.346 -0.005 0.747 0.046 1.088 0.049 0.329 0.146 0.698 0.262 0.999 0.112 0.29 0.276 0.602 0.444 0.845 0.162 0.233 0.377 0.471 0.582 0.641 0.197 0.164 0.444 0.315 0.669 0.407 0.216 0.089 0.474 0.149 0.701 0.162 0.217 0.013 0.468 -0.016 0.68 -0.077 0.203 -0.059 0.429 -0.165 0.612 -0.29 0.175 -0.119 0.361 -0.29 0.505 -0.464 0.137 -0.166 0.274 -0.383 0.37 -0.589 0.092 -0.196 0.173 -0.439 0.22 -0.659 0.044 -0.209 0.07 -0.457 0.068 -0.673 -0.002 -0.204 -0.029 -0.439 -0.075 -0.635 -0.043 -0.185 -0.115 -0.389 -0.196 -0.551 -0.076 -0.153 -0.183 -0.314 -0.289 -0.434 -0.1 -0.113 -0.228 -0.222 -0.349 -0.296 -0.112 -0.068 -0.25 -0.124 -0.373 -0.15 -0.114 -0.024 -0.248 -0.028 -0.362 -0.01 -0.106 0.017 -0.225 0.058 -0.322 0.112 -0.089 0.05 -0.185 0.126 -0.259 0.207 -0.067 0.074 -0.134 0.173 -0.181 0.269 -0.042 0.087 -0.078 0.195 -0.097 0.294 -0.017 0.088 -0.023 0.194 -0.017 0.285 0.006 0.08 0.025 0.172 0.052 0.245 0.024 0.064 0.062 0.133 0.103 0.181 0.036 0.043 0.085 0.083 0.131 0.104 0.041 0.019 0.092 0.029 0.135 0.024 0.039 -0.005 0.083 -0.023 0.116 -0.05 0.03 -0.025 0.06 -0.067 0.077 -0.108 0.017 -0.041 0.046 -0.083 0.077 -0.108 0.032 -0.027 0.077 -0.046 0.116 -0.05 0.043 -0.005 0.094 0.005 0.135 0.024 0.046 0.021 0.095 0.061 0.131 0.104 0.041 0.049 0.079 0.117 0.103 0.181 0.027 0.073 0.046 0.164 0.052 0.245 0.007 0.09 0 0.196 -0.017 0.285 -0.019 0.099 -0.055 0.208 -0.097 0.294 -0.046 0.096 -0.114 0.195 -0.181 0.269 -0.074 0.081 -0.17 0.157 -0.259 0.207 -0.097 0.055 -0.217 0.096 -0.322 0.112 -0.114 0.018 -0.249 0.014 -0.362 -0.01 -0.123 -0.025 -0.26 -0.081 -0.373 -0.149 -0.12 -0.073 -0.249 -0.183 -0.349 -0.296 -0.107 -0.12 -0.213 -0.281 -0.289 -0.434 -0.081 -0.163 -0.153 -0.367 -0.196 -0.551 -0.046 -0.196 -0.073 -0.43 -0.075 -0.635 -0.002 -0.216 0.023 -0.465 0.068 -0.673 0.047 -0.22 0.128 -0.463 0.22 -0.659 0.096 -0.206 0.233 -0.424 0.37 -0.589 0.143 -0.174 0.33 -0.345 0.505 -0.464 0.183 -0.125 0.409 -0.231 0.612 -0.29 0.212 -0.061 0.463 -0.089 0.68 -0.077 0.227 0.013 0.485 0.073 0.701 0.162 0.225 0.092 0.471 0.243 0.669 0.407 0.205 0.171 0.42 0.408 0.582 0.641 0.169 0.242 0.332 0.554 0.444 0.845 0.116 0.301 0.212 0.67 0.262 0.999 0.051 0.341 0.068 0.742 0.046 1.088 -0.022 0.358 -0.092 0.764 -0.188 1.102 -0.099 0.349 -0.256 0.73 -0.423 1.034 -0.173 0.314 -0.411 0.64 -0.643 0.885 -0.239 0.253 -0.546 0.496 -0.829 0.66 -0.292 0.169 -0.648 0.306 -0.965 0.373 -0.326 0.068 -0.709 0.083 -1.038 0.041 -0.338 -0.043 -0.722 -0.159 -1.039 -0.313 -0.327 -0.158 -0.682 -0.404 -0.965 -0.665 -0.29 -0.268 -0.591 -0.633 -0.815 -0.987 -0.231 -0.364 -0.451 -0.827 -0.599 -1.255 -0.151 -0.439 -0.272 -0.972 -0.327 -1.446 -0.057 -0.485 -0.063 -1.054 -0.018 -1.542 0.046 -0.499 0.16 -1.064 0.307 -1.531 0.151 -0.478 0.383 -0.998 0.627 -1.409 0.25 -0.421 0.588 -0.856 0.916 -1.18 0.335 -0.331 0.761 -0.647 1.153 -0.856 0.401 -0.214 0.887 -0.382 1.318 -0.456 0.44 -0.076 0.956 -0.077 1.396 -0.005 0.45 0.074 0.958 0.246 1.378 0.465 0.352 0.176 0.777 0.311 1.152 0.364 0.366 0.052 0.793 0.042 1.158 -0.029 0.355 -0.069 0.755 -0.216 1.083 -0.401 c 0.32 -0.179 0.666 -0.447 0.937 -0.726 0.264 -0.271 0.535 -0.634 0.734 -0.983 0.193 -0.34 0.375 -0.767 0.491 -1.159 0.113 -0.381 0.197 -0.84 0.228 -1.245 0.029 -0.393 0.016 -0.85 -0.037 -1.239 -0.052 -0.377 -0.156 -0.801 -0.284 -1.148 -0.124 -0.336 -0.306 -0.699 -0.496 -0.982 -0.183 -0.274 -0.426 -0.553 -0.66 -0.757 -0.226 -0.196 -0.509 -0.379 -0.767 -0.493 -0.25 -0.11 -0.55 -0.189 -0.814 -0.212 c -0.254 -0.022 -0.55 0.001 -0.8 0.065 -0.241 0.061 -0.51 0.178 -0.73 0.318 -0.211 0.134 -0.437 0.329 -0.613 0.53 -0.168 0.192 -0.339 0.446 -0.461 0.688 -0.117 0.232 -0.224 0.521 -0.288 0.784 -0.061 0.252 -0.102 0.553 -0.108 0.816 -0.006 0.251 0.018 0.542 0.065 0.786 0.045 0.233 0.125 0.492 0.218 0.7 0.088 0.199 0.214 0.41 0.341 0.571 0.121 0.153 0.278 0.305 0.427 0.411 0.141 0.1 0.315 0.188 0.471 0.236 0.148 0.045 0.323 0.068 0.475 0.06 0.143 -0.007 0.306 -0.044 0.442 -0.1 0.127 -0.053 0.266 -0.139 0.377 -0.235 0.103 -0.089 0.21 -0.212 0.289 -0.334 0.073 -0.113 0.143 -0.258 0.188 -0.393 0.041 -0.124 0.073 -0.276 0.084 -0.41 0.01 -0.123 0.006 -0.266 -0.012 -0.387 -0.017 -0.11 -0.051 -0.234 -0.093 -0.332 -0.038 -0.089 -0.095 -0.184 -0.153 -0.253 -0.052 -0.062 -0.121 -0.123 -0.186 -0.16 -0.058 -0.033 -0.13 -0.059 -0.193 -0.065 -0.056 -0.006 -0.122 0.002 -0.175 0.022 -0.047 0.018 -0.099 0.051 -0.137 0.091 -0.033 0.035 -0.065 0.086 -0.083 0.136 -0.016 0.045 -0.026 0.103 -0.023 0.152 0.002 0.046 0.016 0.099 0.035 0.138 0.02 0.039 0.033 0.092 0.035 0.138 0.002 0.049 -0.007 0.107 -0.023 0.152 -0.018 0.05 -0.05 0.101 -0.084 0.136 -0.038 0.04 -0.09 0.074 -0.137 0.091 -0.054 0.02 -0.119 0.028 -0.175 0.022 -0.063 -0.006 -0.135 -0.032 -0.193 -0.065 -0.065 -0.038 -0.134 -0.098 -0.186 -0.16 -0.058 -0.07 -0.114 -0.164 -0.153 -0.253 -0.042 -0.099 -0.076 -0.222 -0.093 -0.332 -0.019 -0.121 -0.023 -0.265 -0.012 -0.387 0.011 -0.134 0.043 -0.285 0.084 -0.409 0.045 -0.135 0.115 -0.28 0.188 -0.393 0.079 -0.122 0.186 -0.245 0.289 -0.334 0.11 -0.096 0.25 -0.182 0.377 -0.235 0.136 -0.057 0.299 -0.093 0.442 -0.1 0.152 -0.007 0.327 0.015 0.475 0.06 0.157 0.048 0.331 0.135 0.471 0.236 0.149 0.106 0.306 0.258 0.427 0.411 0.127 0.161 0.253 0.372 0.341 0.571 0.093 0.209 0.173 0.468 0.218 0.7 0.047 0.244 0.071 0.534 0.065 0.786 -0.006 0.263 -0.046 0.564 -0.108 0.816 -0.064 0.263 -0.171 0.552 -0.288 0.784 -0.122 0.242 -0.293 0.496 -0.461 0.688 -0.175 0.2 -0.402 0.395 -0.613 0.53 -0.219 0.14 -0.489 0.256 -0.73 0.318 -0.25 0.064 -0.545 0.087 -0.8 0.065 c -0.264 -0.023 -0.564 -0.102 -0.814 -0.212 -0.259 -0.114 -0.542 -0.297 -0.767 -0.493 -0.233 -0.203 -0.477 -0.483 -0.66 -0.757 -0.189 -0.283 -0.372 -0.645 -0.496 -0.981 -0.128 -0.347 -0.232 -0.77 -0.284 -1.148 -0.053 -0.389 -0.066 -0.846 -0.037 -1.239 0.03 -0.405 0.115 -0.864 0.228 -1.245 0.116 -0.392 0.298 -0.819 0.491 -1.159 c 0.199 -0.349 0.47 -0.712 0.734 -0.983 0.271 -0.279 0.617 -0.546 0.937 -0.726 0.328 -0.184 0.728 -0.331 1.083 -0.401 0.364 -0.071 0.791 -0.081 1.158 -0.029 0.376 0.053 0.801 0.188 1.152 0.364 0.36 0.18 0.753 0.458 1.063 0.751 0.318 0.3 0.648 0.707 0.893 1.103 0.251 0.405 0.491 0.918 0.65 1.392 0.163 0.485 0.291 1.073 0.349 1.595 0.059 0.534 0.062 1.158 0.009 1.693 -0.054 0.547 -0.183 1.164 -0.347 1.674 -0.168 0.521 -0.425 1.087 -0.695 1.534 -0.275 0.457 -0.647 0.928 -1.01 1.279 -0.296 0.298 -0.601 0.696 -0.825 1.082 -0.219 0.376 -0.425 0.849 -0.559 1.284 -0.13 0.424 -0.229 0.936 -0.267 1.388 -0.037 0.44 -0.027 0.953 0.028 1.39 0.054 0.425 0.166 0.904 0.305 1.297 0.136 0.382 0.337 0.795 0.547 1.118 0.204 0.314 0.476 0.636 0.738 0.872 0.254 0.229 0.573 0.443 0.866 0.579 0.284 0.132 0.626 0.23 0.927 0.263 0.292 0.032 0.631 0.013 0.919 -0.053 0.279 -0.064 0.592 -0.191 0.847 -0.345 0.247 -0.149 0.513 -0.368 0.721 -0.595 0.2 -0.219 0.404 -0.509 0.552 -0.786 0.142 -0.268 0.274 -0.603 0.356 -0.909 0.079 -0.295 0.133 -0.649 0.148 -0.959 0.014 -0.299 -0.006 -0.644 -0.056 -0.937 -0.047 -0.281 -0.135 -0.595 -0.24 -0.85 -0.1 -0.244 -0.245 -0.506 -0.393 -0.708 -0.141 -0.193 -0.327 -0.388 -0.504 -0.526 -0.169 -0.132 -0.379 -0.251 -0.57 -0.321 -0.182 -0.067 -0.399 -0.108 -0.588 -0.111 -0.18 -0.003 -0.387 0.03 -0.561 0.088 -0.165 0.056 -0.348 0.152 -0.494 0.262 -0.139 0.104 -0.286 0.251 -0.397 0.399 -0.105 0.14 -0.208 0.321 -0.279 0.491 -0.066 0.16 -0.123 0.357 -0.152 0.534 -0.027 0.166 -0.038 0.362 -0.028 0.53 0.01 0.157 0.04 0.336 0.084 0.484 0.041 0.137 0.105 0.286 0.174 0.402 0.064 0.107 0.152 0.218 0.238 0.297 0.079 0.073 0.179 0.14 0.271 0.18 0.084 0.037 0.185 0.061 0.274 0.064 0.08 0.003 0.173 -0.012 0.25 -0.041 0.069 -0.026 0.144 -0.071 0.203 -0.124 0.052 -0.047 0.105 -0.113 0.141 -0.18 0.032 -0.058 0.06 -0.134 0.073 -0.203 0.011 -0.061 0.014 -0.134 0.006 -0.196 -0.007 -0.054 -0.026 -0.115 -0.051 -0.16 -0.023 -0.04 -0.057 -0.08 -0.092 -0.102 -0.033 -0.021 -0.076 -0.033 -0.112 -0.03 z" style="fill:#ff4500;fill-opacity:0.992"/></g></g></svg>