<svg xmlns="http://www.w3.org/2000/svg" xmlns:xlink="http://www.w3.org/1999/xlink" viewBox="0 0 256 256"><defs><clipPath id="0"><path transform="matrix(15.33333 0 0 11.5 415 -125.5)" d="m -24 13 c 0 1.105 -0.672 2 -1.5 2 -0.828 0 -1.5 -0.895 -1.5 -2 0 -1.105 0.672 -2 1.5 -2 0.828 0 1.5 0.895 1.5 2 z" style="fill:#1890d0"/></clipPath><clipPath id="1"><path transform="matrix(15.33333 0 0 11.5 415 -125.5)" d="m -24 13 c 0 1.105 -0.672 2 -1.5 2 -0.828 0 -1.5 -0.895 -1.5 -2 0 -1.105 0.672 -2 1.5 -2 0.828 0 1.5 0.895 1.5 2 z" style="fill:#1890d0"/></clipPath></defs><g transform="translate(0 -796.36)"><path d="m 52.774 1027.39 c 192.46 127.95 311 -280.09 62.2 -226.07 -102.82 23.02 -165.22 167.39 -62.2 226.07 z" style="fill:#fff;color:#fff"/><g transform="matrix(4.47159 0 0 5.18992 24.568 800.48)" style="fill:#ff4500"><g style="clip-path:url(#1)"><g transform="translate(1 1)" style="opacity:0.1"><path d="m 12 13 h 6 v 6 h -6" id="2"/><path d="m 21 13 h 6 v 6 h -6" id="3"/><path d="m 30 13 h 6 v 6 h -6" id="4"/><path d="m 21 21 h 6 v 6 h -6" id="5"/><path d="m 21 29 h 6 v 5.996 h -6" id="6"/></g></g><g style="clip-path:url(#0)"><g><use xlink:href="#2"/><use xlink:href="#3"/><use xlink:href="#4"/><use xlink:href="#5"/><use xlink:href="#6"/></g></g></g></g></svg>