<svg xmlns="http://www.w3.org/2000/svg" xmlns:xlink="http://www.w3.org/1999/xlink" viewBox="0 0 256 256"><defs><rect id="0" width="10" x="41" y="33" rx="1.429" height="18" ry="1.636" style="fill:#cfcfcf;stroke:#424242;fill-rule:evenodd;stroke-linejoin:round;stroke-width:1.1"/><clipPath><path transform="matrix(15.33333 0 0 11.5 415 -125.5)" d="m -24 13 c 0 1.105 -0.672 2 -1.5 2 -0.828 0 -1.5 -0.895 -1.5 -2 0 -1.105 0.672 -2 1.5 -2 0.828 0 1.5 0.895 1.5 2 z"/></clipPath><clipPath><rect y="6" x="6" rx="6" height="84" width="84" style="fill:#ff4500"/></clipPath></defs><g transform="translate(0 -796.36)"><path d="m 229.63 992.2 c 92.05 -130.93 -77.948 -263.6 -186.39 -156.91 c -102.17 100.51 -7.449 256.68 119.69 207.86 26.526 -10.185 49.802 -26.914 66.7 -50.948 z" style="fill:#fff;color:#000"/><g transform="matrix(1.88594 0 0 1.89978 31.953 835.01)" style="fill:#ff4500"><g style="fill-rule:evenodd"><rect width="50" height="73.916" rx="4" ry="4.05" x="35" y="11.08" style="opacity:0.4"/><rect width="48" height="72" rx="3.959" ry="4.085" x="36" y="12"/></g><g transform="translate(3 -4)"><path d="m 20.18 85.06 a 2.089 2.098 0 1 1 -4.179 0 2.089 2.098 0 1 1 4.179 0 z" transform="matrix(0 1.67094 1.66383 0 -122.04 53.28)" id="1"/><use transform="matrix(0 0.71355 0.71356 0 -40.1 69.6)" xlink:href="#1"/></g><g style="fill:#ffdead;fill-rule:evenodd"><path d="m 69.875 18.75 h 2.25 c 0.623 0 1.125 0.652 1.125 1.462 v 55.58 c 0 0.81 -0.502 1.463 -1.125 1.463 h -2.25 c -0.623 0 -1.125 -0.652 -1.125 -1.463 v -55.58 c 0 -0.81 0.502 -1.462 1.125 -1.462 z"/><path d="m 47.875 18.75 h 2.25 c 0.623 0 1.125 0.652 1.125 1.462 v 55.58 c 0 0.81 -0.502 1.463 -1.125 1.463 h -2.25 c -0.623 0 -1.125 -0.652 -1.125 -1.463 v -55.58 c 0 -0.81 0.502 -1.462 1.125 -1.462 z"/></g><g transform="translate(3 16)"><use xlink:href="#0"/><path d="m 42 41 v 2 h 8 v -2 h -8 z" style="stroke:#424242;color:#000;stroke-width:0.5"/></g><path d="m 21.875 12.75 h 2.25 c 0.623 0 1.125 0.652 1.125 1.463 v 55.58 c 0 0.81 -0.502 1.463 -1.125 1.463 h -2.25 c -0.623 0 -1.125 -0.652 -1.125 -1.463 v -55.58 c 0 -0.81 0.502 -1.463 1.125 -1.463 z" style="fill-rule:evenodd"/><g transform="translate(-23 -12)" style="stroke:#b22222"><use xlink:href="#0"/><path d="m 42 41 v 2 h 8 v -2 h -8 z" id="2" style="fill:#ff4500;stroke:#b22222;color:#000;stroke-width:0.5"/></g><g transform="translate(25 4)"><use xlink:href="#0"/><use xlink:href="#2"/></g></g></g></svg>