<svg xmlns="http://www.w3.org/2000/svg" viewBox="0 0 256 256"><g transform="translate(0 -796.36)"><path d="m -1374.42 1658.71 c 127.95 -192.46 -280.09 -311 -226.07 -62.2 23.02 102.82 167.39 165.22 226.07 62.2 z" transform="matrix(-0.68377 0.70433 0.7792 0.61808 -2113.7 993.48)" style="fill:#fff;color:#000"/><g transform="matrix(4.875 0 0 5 23 811.11)" style="fill:#ff4500"><path d="m 17.438 17.281 h 3.594 l 1.406 -5.938 h 1.719 l -1.25 5.938 h 7.813 l -0.313 1.25 h -7.969 q -0.156 0.625 -0.781 3.281 -0.313 1.25 -0.469 1.875 -2.031 7.656 -2.031 10.625 0 1.406 3.75 1.406 2.031 0 3.906 -0.625 l -0.313 1.406 q -1.875 0.156 -3.75 0.156 -5 0 -5 -3.75 0 -3.125 1.875 -9.844 q 0.156 -0.938 0.625 -2.344 0.313 -1.719 0.469 -2.188 h -3.438 l 0.156 -1.25 z" transform="matrix(1.09541 0 0 1.11852 -3.187 -2.594)" style="opacity:0.8"/><text y="20" x="34" text-align="start" line-height="125%" style="letter-spacing:0;word-spacing:0;font-size:40;font-family:sans-serif"><tspan y="20" x="34"/></text></g><path d="m 117.36 204.76 c -17.577 -5.347 -18.375 -17.665 -4.748 -73.25 3.212 -13.1 5.84 -24.451 5.84 -25.22 0 -1.033 -2.439 -1.399 -9.336 -1.399 -8.07 0 -9.247 -0.233 -8.678 -1.716 0.362 -0.944 0.658 -2.164 0.658 -2.712 0 -0.548 4.161 -0.996 9.247 -0.996 10.878 0 9.522 1.846 14.15 -19.254 l 3.15 -14.373 h 4.105 c 3.704 0 4.049 0.238 3.53 2.441 -1.124 4.771 -5.975 29.331 -5.975 30.25 0 0.515 9.275 0.936 20.61 0.936 15.774 0 20.606 0.318 20.594 1.356 -0.046 3.721 -1.61 4.02 -22.732 4.315 l -21.02 0.295 l -5.775 24.407 c -10.516 44.44 -13.448 65.12 -9.678 68.25 0.837 0.695 3.156 1.751 5.153 2.347 5.073 1.514 22.675 1.388 27.978 -0.201 2.427 -0.727 4.61 -1.122 4.852 -0.877 0.242 0.245 0.182 1.787 -0.133 3.428 l -0.573 2.983 l -14.246 -0.093 c -7.836 -0.051 -15.47 -0.465 -16.965 -0.92 z" transform="translate(0 796.36)" style="fill:#ff4500;fill-rule:evenodd"/></g></svg>