<svg xmlns="http://www.w3.org/2000/svg" viewBox="0 0 256 256"><g transform="translate(0 -796.36)"><path d="m 52.774 1027.39 c 192.46 127.95 311 -280.09 62.2 -226.07 -102.82 23.02 -165.22 167.39 -62.2 226.07 z" style="fill:#fff;color:#000"/><g transform="matrix(4.25994 0 0 3.50334 -1608.67 -906.34)"><rect y="514.8" x="392.57" height="16" width="32" rx="8" style="fill:#dc143c;stroke:#dc143c"/><rect y="515.8" x="392.57" height="16" width="32" rx="8" style="fill:#ff4500"/><rect width="14" height="14" x="409.67" y="516.8" rx="7" style="fill:#ffdead"/><path transform="translate(384.57 499.8)" d="m 35.553 19.09 c 0.9 1.049 1.447 2.411 1.447 3.908 c 0 3.324 -2.676 6 -6 6 -1.289 0 -2.477 -0.405 -3.453 -1.092 c 1.099 1.28 2.726 2.092 4.553 2.092 c 3.324 0 6 -2.676 6 -6 0 -2.035 -1.01 -3.824 -2.547 -4.908 z" style="fill:#deb887;fill-opacity:0.119"/></g></g></svg>