<?xml version="1.0" encoding="UTF-8" standalone="no"?>
<!-- Created with Inkscape (http://www.inkscape.org/) -->

<svg
   xmlns:dc="http://purl.org/dc/elements/1.1/"
   xmlns:cc="http://creativecommons.org/ns#"
   xmlns:rdf="http://www.w3.org/1999/02/22-rdf-syntax-ns#"
   xmlns:svg="http://www.w3.org/2000/svg"
   xmlns="http://www.w3.org/2000/svg"
   xmlns:xlink="http://www.w3.org/1999/xlink"
   xmlns:sodipodi="http://sodipodi.sourceforge.net/DTD/sodipodi-0.dtd"
   xmlns:inkscape="http://www.inkscape.org/namespaces/inkscape"
   width="256"
   height="256"
   id="svg10914"
   version="1.1"
   inkscape:version="0.48.4 r9939"
   sodipodi:docname="ToCA3.svg">
  <defs
     id="defs10916">
    <inkscape:path-effect
       effect="spiro"
       id="path-effect8785"
       is_visible="true" />
    <linearGradient
       gradientTransform="translate(56.880463,5.6152085)"
       gradientUnits="userSpaceOnUse"
       y2="-1009.9762"
       x2="-35.844036"
       y1="-1057.9852"
       x1="-35.844036"
       id="linearGradient843"
       xlink:href="#linearGradient872"
       inkscape:collect="always" />
    <linearGradient
       id="linearGradient872">
      <stop
         id="stop874"
         offset="0"
         style="stop-color:#e3ebed;stop-opacity:0.99607843" />
      <stop
         id="stop876"
         offset="1"
         style="stop-color:#f4f8f9;stop-opacity:0.99705881" />
    </linearGradient>
    <clipPath
       id="clipPath-093848315">
      <g
         id="g17"
         transform="translate(0,-1004.3622)">
        <path
           id="path19"
           fill="#1890d0"
           transform="matrix(15.333333,0,0,11.5,414.99999,878.8622)"
           d="m -24 13 c 0 1.105 -0.672 2 -1.5 2 -0.828 0 -1.5 -0.895 -1.5 -2 0 -1.105 0.672 -2 1.5 -2 0.828 0 1.5 0.895 1.5 2 z" />
      </g>
    </clipPath>
    <clipPath
       id="clipPath-072508252">
      <g
         id="g12"
         transform="translate(0,-1004.3622)">
        <path
           id="path14"
           fill="#1890d0"
           transform="matrix(15.333333,0,0,11.5,414.99999,878.8622)"
           d="m -24 13 c 0 1.105 -0.672 2 -1.5 2 -0.828 0 -1.5 -0.895 -1.5 -2 0 -1.105 0.672 -2 1.5 -2 0.828 0 1.5 0.895 1.5 2 z" />
      </g>
    </clipPath>
    <linearGradient
       gradientUnits="userSpaceOnUse"
       y2="1"
       x2="0"
       y1="47"
       id="linearGradient3764">
      <stop
         id="stop7"
         stop-opacity="1"
         stop-color="#747474" />
      <stop
         style="stop-color:#b3b3b3;stop-opacity:1;"
         id="stop9"
         stop-opacity="1"
         stop-color="#7e7e7e"
         offset="1" />
    </linearGradient>
  </defs>
  <sodipodi:namedview
     id="base"
     pagecolor="#ff4500ff4500"
     bordercolor="#666666"
     borderopacity="1.0"
     inkscape:pageopacity="0.0"
     inkscape:pageshadow="2"
     inkscape:zoom="0.88"
     inkscape:cx="122.05211"
     inkscape:cy="121.97537"
     inkscape:document-units="px"
     inkscape:current-layer="g55"
     showgrid="false"
     inkscape:showpageshadow="false"
     inkscape:snap-page="true"
     inkscape:snap-bbox="true"
     inkscape:window-width="688"
     inkscape:window-height="496"
     inkscape:window-x="60"
     inkscape:window-y="76"
     inkscape:window-maximized="0"
     inkscape:snap-global="false" />
  <metadata
     id="metadata10919">
    <rdf:RDF>
      <cc:Work
         rdf:about="">
        <dc:format>image/svg+xml</dc:format>
        <dc:type
           rdf:resource="http://purl.org/dc/dcmitype/StillImage" />
        <dc:title />
      </cc:Work>
    </rdf:RDF>
  </metadata>
  <g
     inkscape:label="Layer 1"
     inkscape:groupmode="layer"
     id="layer1"
     transform="translate(0,-796.36218)">
    <g
       id="g8839"
       transform="translate(-4.8692751e-5,-2.5394058e-6)">
      <path
         style="color:#ffffff;fill:#ffffff;fill-opacity:1;fill-rule:nonzero;stroke:none;stroke-width:4;marker:none;visibility:visible;display:inline;overflow:visible;enable-background:accumulate"
         d="M 24.974983,999.58777 C -102.97822,807.12803 305.06219,688.59023 251.04249,937.38546 228.02539,1040.2045 83.652433,1102.6008 24.974983,999.58777 z"
         id="path6974-8-4"
         inkscape:connector-curvature="0" />
      <g
         id="g3719"
         transform="matrix(5.2531157,0,0,4.7481523,2.3526896,805.70899)">
        <g
           id="g33" />
        <g
           id="g35">
          <g
             id="g37"
             clip-path="url(#clipPath-072508252)">
            <g
               id="g39"
               transform="translate(1,1)">
              <g
                 id="g41"
                 style="opacity:0.1">
                <!-- color: #7e7e7e -->
                <g
                   id="g43">
                  <path
                     id="path45"
                     d="m 22.324,13.188 c -2.805,0.313 -5.918,2.074 -7.82,5.367 -1.527,2.84 3.438,3.254 5.449,3.582 0.926,-1.965 2.77,-2.734 4.504,-2.582 -2.918,-0.414 -6.52,-5.242 -2.133,-6.367 m 3.406,0.047 c -2.488,0.063 -1.469,4.445 -1.18,6.332 2.152,0.277 3.457,1.793 3.844,3.492 -0.504,-2.906 2.977,-7.82 5.402,-3.996 -1.164,-2.57 -3.797,-4.988 -7.52,-5.781 -0.199,-0.039 -0.379,-0.055 -0.547,-0.047 m -1.727,6.328 c -2.453,0 -4.438,1.984 -4.438,4.438 0,0.516 0.086,1.012 0.246,1.469 -0.391,-1.082 -0.313,-2.234 0.098,-3.242 -1.254,2.668 -6.93,4.684 -6.715,0.16 -0.527,2.773 0.234,6.266 2.824,9.05 2.254,2.293 4.117,-2.301 5.02,-4.133 0.008,0.008 0.02,0.016 0.027,0.023 2.109,2.059 2.188,8.05 -2.02,6.398 2.457,1.391 6.02,1.793 9.484,0.238 2.906,-1.402 -0.875,-4.652 -2.313,-6.094 -1.219,0.668 -2.457,0.719 -3.535,0.371 0.418,0.129 0.859,0.199 1.316,0.199 2.457,0 4.445,-1.992 4.445,-4.445 0,-2.453 -1.988,-4.438 -4.445,-4.438 m 9.25,1.617 c -0.055,0 -0.109,0 -0.168,0.004 -1.512,0.07 -3.59,1.316 -4.723,1.902 0.426,2.129 -0.594,3.852 -2.078,4.762 2.59,-1.406 8.363,0.32 5.512,3.84 2.066,-1.922 3.516,-5.195 3.078,-8.973 -0.164,-1.121 -0.793,-1.527 -1.621,-1.535 m 0,0"
                     inkscape:connector-curvature="0"
                     style="fill:#ffffff;fill-opacity:1;fill-rule:nonzero;stroke:none" />
                  <path
                     id="path47"
                     d="M 24,9 C 15.738,9 9,15.738 9,24 9,32.262 15.738,39 24,39 32.262,39 39,32.262 39,24 39,15.738 32.262,9 24,9 m 0,3.789 c 6.215,0 11.211,4.996 11.211,11.211 0,6.215 -4.996,11.211 -11.211,11.211 -6.215,0 -11.211,-4.996 -11.211,-11.211 0,-6.215 4.996,-11.211 11.211,-11.211 m 0,0"
                     inkscape:connector-curvature="0"
                     style="fill:#ffffff;fill-opacity:1;fill-rule:nonzero;stroke:none" />
                  <path
                     id="path49"
                     d="m 24,12.777 c -1.449,0 -2.836,0.277 -4.109,0.781 -0.031,0.012 -0.059,0.023 -0.086,0.035 -0.07,0.027 -0.145,0.055 -0.215,0.086 -0.063,0.027 -0.125,0.055 -0.184,0.082 -0.012,0.004 -0.02,0.012 -0.031,0.016 -0.035,0.016 -0.074,0.031 -0.113,0.051 -0.043,0.016 -0.082,0.039 -0.121,0.059 -0.063,0.027 -0.125,0.059 -0.188,0.09 -0.02,0.012 -0.039,0.02 -0.059,0.027 -0.059,0.031 -0.117,0.063 -0.176,0.094 -0.02,0.012 -0.043,0.023 -0.063,0.035 -0.07,0.035 -0.133,0.074 -0.203,0.113 -3.387,1.93 -5.672,5.578 -5.672,9.754 0,6.195 5.02,11.223 11.219,11.223 6.199,0 11.227,-5.03 11.227,-11.223 0,-2.258 -0.668,-4.359 -1.816,-6.121 -0.703,-1.125 -1.684,-2.176 -2.91,-3.03 -0.051,-0.035 -0.098,-0.07 -0.148,-0.102 -0.023,-0.02 -0.051,-0.035 -0.074,-0.051 -1.793,-1.211 -3.953,-1.918 -6.277,-1.918 m 0,0.473 c 0.266,0 0.527,0.012 0.785,0.031 -0.129,0.082 -0.246,0.184 -0.344,0.305 -0.387,0.469 -0.527,1.133 -0.566,1.852 -0.07,1.313 0.219,2.828 0.391,3.844 -1.301,-0.289 -2.77,-1.496 -3.41,-2.75 -0.34,-0.66 -0.445,-1.316 -0.246,-1.852 0.203,-0.535 0.719,-1 1.77,-1.27 0.043,-0.008 0.078,-0.023 0.109,-0.051 0.496,-0.07 1,-0.109 1.512,-0.109 m 1.734,0.211 c 0.148,-0.004 0.313,0.012 0.5,0.047 1.246,0.266 2.363,0.719 3.344,1.301 0.023,0.012 0.047,0.027 0.07,0.043 0.051,0.031 0.102,0.063 0.152,0.094 0.004,0 0.008,0.004 0.012,0.004 0.066,0.047 0.133,0.09 0.203,0.137 1.043,0.703 1.953,1.59 2.691,2.605 -0.277,-0.145 -0.559,-0.246 -0.844,-0.258 -0.746,-0.039 -1.449,0.352 -2.031,0.938 -0.863,0.863 -1.5,2.168 -1.672,3.418 -0.637,-1.199 -1.789,-2.152 -3.41,-2.418 -0.164,-1.031 -0.48,-2.621 -0.414,-3.906 0.035,-0.672 0.184,-1.242 0.465,-1.582 0.215,-0.258 0.496,-0.418 0.938,-0.422 m -5.04,0.32 c -0.23,0.219 -0.414,0.465 -0.52,0.734 -0.262,0.703 -0.109,1.488 0.266,2.227 0.555,1.082 1.598,2.09 2.734,2.641 -1.336,0.234 -2.598,1.043 -3.348,2.5 -1.031,-0.16 -2.645,-0.348 -3.848,-0.809 -0.629,-0.242 -1.121,-0.559 -1.359,-0.934 -0.238,-0.371 -0.273,-0.813 0.082,-1.469 0,-0.004 0,-0.004 0,-0.004 0,0 0,-0.004 0,-0.004 1.07,-1.848 2.523,-3.191 4.082,-4.063 0.02,-0.012 0.035,-0.02 0.055,-0.031 0.059,-0.035 0.121,-0.063 0.184,-0.098 0.07,-0.035 0.137,-0.07 0.207,-0.105 0.07,-0.035 0.141,-0.066 0.207,-0.102 0.051,-0.02 0.094,-0.043 0.141,-0.063 0.023,-0.012 0.047,-0.02 0.066,-0.031 0.141,-0.059 0.277,-0.121 0.418,-0.172 0.211,-0.082 0.422,-0.156 0.633,-0.219 m 11.04,4.113 c 0.039,0 0.074,0 0.109,0 0.57,0.027 1.172,0.379 1.75,1.293 0.016,0.02 0.031,0.039 0.051,0.055 0,0 0,0 0,0.004 0.324,0.656 0.586,1.355 0.773,2.082 -0.129,-0.105 -0.27,-0.191 -0.422,-0.25 -0.285,-0.105 -0.598,-0.141 -0.922,-0.125 -0.328,0.016 -0.668,0.078 -1.016,0.176 -1.246,0.348 -2.566,1.09 -3.477,1.574 -0.086,-1.313 0.605,-3.03 1.574,-4 0.496,-0.496 1.043,-0.797 1.578,-0.809 m -7.777,1.871 c 0.156,0 0.313,0.004 0.465,0.016 0.008,0 0.012,0 0.016,0 0.008,0.004 0.02,0.004 0.031,0 0.016,0.008 0.031,0.012 0.047,0.016 2.02,0.258 3.23,1.637 3.625,3.211 -0.012,0.039 -0.016,0.082 -0.008,0.125 0.406,2.031 -0.555,3.645 -1.961,4.512 0,0 -0.004,0 -0.004,0 -0.02,0.008 -0.039,0.016 -0.055,0.027 -1.805,0.988 -3.617,0.566 -4.871,-0.5 -0.012,-0.016 -0.023,-0.035 -0.039,-0.047 -1.527,-1.402 -1.707,-3.266 -1.086,-4.801 0,-0.004 0.004,-0.008 0.004,-0.012 0.004,-0.008 0.008,-0.02 0.008,-0.031 0.012,-0.016 0.023,-0.031 0.027,-0.047 0.805,-1.695 2.301,-2.445 3.801,-2.469 m -9.918,0.188 c 0.043,0.156 0.105,0.301 0.191,0.438 0.324,0.512 0.91,0.855 1.582,1.113 1.23,0.473 2.77,0.66 3.785,0.813 -0.656,1.16 -2.25,2.211 -3.641,2.457 -0.73,0.129 -1.387,0.039 -1.84,-0.313 -0.449,-0.352 -0.746,-0.98 -0.695,-2.066 0,-0.039 -0.008,-0.078 -0.027,-0.113 0.129,-0.809 0.344,-1.586 0.645,-2.328 m 19.258,1.461 c 0.195,0.004 0.379,0.039 0.531,0.098 0.414,0.156 0.707,0.492 0.813,1.23 0.004,0 0,0.004 0,0.008 0.344,2.965 -0.516,5.594 -1.898,7.488 0.051,-0.316 0.059,-0.617 -0.023,-0.895 -0.203,-0.723 -0.797,-1.266 -1.539,-1.633 -1.09,-0.539 -2.527,-0.727 -3.766,-0.492 0.934,-0.984 1.461,-2.383 1.195,-4 0.922,-0.488 2.332,-1.297 3.574,-1.641 0.324,-0.094 0.629,-0.148 0.91,-0.16 0.07,-0.004 0.137,-0.008 0.203,-0.004 m -13.93,1.984 c -0.168,1.348 0.23,2.789 1.402,3.938 -0.457,0.938 -1.113,2.422 -1.91,3.434 -0.418,0.527 -0.863,0.91 -1.293,1.027 -0.426,0.117 -0.855,0.02 -1.379,-0.512 -0.004,0 -0.004,0 -0.004,-0.004 0,0 -0.004,0 -0.004,0 -2.027,-2.191 -2.891,-4.816 -2.895,-7.164 0.141,0.285 0.32,0.531 0.547,0.711 0.594,0.457 1.391,0.547 2.207,0.402 1.199,-0.211 2.469,-0.91 3.328,-1.832 m 8.961,4.199 c 0.926,-0.023 1.898,0.16 2.645,0.527 0.668,0.332 1.145,0.793 1.301,1.344 0.156,0.547 0.02,1.23 -0.664,2.074 -0.023,0.027 -0.039,0.063 -0.047,0.102 -0.555,0.547 -1.168,1.035 -1.828,1.449 0.055,-0.145 0.086,-0.297 0.098,-0.453 0.035,-0.605 -0.238,-1.223 -0.633,-1.828 -0.715,-1.098 -1.84,-2.152 -2.574,-2.875 0.488,-0.211 1.086,-0.324 1.707,-0.34 m -7.23,0.109 c 0.852,1.01 1.309,2.809 1.098,4.172 -0.113,0.734 -0.41,1.328 -0.887,1.645 -0.48,0.313 -1.168,0.387 -2.18,-0.008 -0.047,-0.02 -0.098,-0.02 -0.148,-0.008 -0.648,-0.344 -1.262,-0.75 -1.828,-1.215 0.184,0.016 0.359,-0.004 0.531,-0.051 0.59,-0.16 1.086,-0.617 1.531,-1.184 0.805,-1.023 1.438,-2.422 1.883,-3.352 m 5.07,0.441 c 0.738,0.734 1.938,1.836 2.641,2.914 0.367,0.566 0.582,1.109 0.555,1.551 -0.027,0.441 -0.258,0.82 -0.93,1.145 0,0 -0.004,0 -0.004,0.004 -2.727,1.219 -5.496,1.191 -7.719,0.441 0.316,-0.047 0.609,-0.133 0.852,-0.293 0.625,-0.41 0.965,-1.141 1.094,-1.957 0.184,-1.203 -0.07,-2.633 -0.668,-3.742 1.223,0.594 2.715,0.68 4.18,-0.063 m 0,0"
                     inkscape:connector-curvature="0"
                     style="fill:#ffffff;fill-opacity:1;fill-rule:nonzero;stroke:none" />
                </g>
              </g>
            </g>
          </g>
        </g>
        <g
           id="g51">
          <g
             id="g53"
             clip-path="url(#clipPath-093848315)">
            <!-- color: #7e7e7e -->
            <g
               id="g55">
              <path
                 id="path57"
                 d="m 22.324,13.188 c -2.805,0.313 -5.918,2.074 -7.82,5.367 -1.527,2.84 3.438,3.254 5.449,3.582 0.926,-1.965 2.77,-2.734 4.504,-2.582 -2.918,-0.414 -6.52,-5.242 -2.133,-6.367 m 3.406,0.047 c -2.488,0.063 -1.469,4.445 -1.18,6.332 2.152,0.277 3.457,1.793 3.844,3.492 -0.504,-2.906 2.977,-7.82 5.402,-3.996 -1.164,-2.57 -3.797,-4.988 -7.52,-5.781 -0.199,-0.039 -0.379,-0.055 -0.547,-0.047 m -1.727,6.328 c -2.453,0 -4.438,1.984 -4.438,4.438 0,0.516 0.086,1.012 0.246,1.469 -0.391,-1.082 -0.313,-2.234 0.098,-3.242 -1.254,2.668 -6.93,4.684 -6.715,0.16 -0.527,2.773 0.234,6.266 2.824,9.05 2.254,2.293 4.117,-2.301 5.02,-4.133 0.008,0.008 0.02,0.016 0.027,0.023 2.109,2.059 2.188,8.05 -2.02,6.398 2.457,1.391 6.02,1.793 9.484,0.238 2.906,-1.402 -0.875,-4.652 -2.313,-6.094 -1.219,0.668 -2.457,0.719 -3.535,0.371 0.418,0.129 0.859,0.199 1.316,0.199 2.457,0 4.445,-1.992 4.445,-4.445 0,-2.453 -1.988,-4.438 -4.445,-4.438 m 9.25,1.617 c -0.055,0 -0.109,0 -0.168,0.004 -1.512,0.07 -3.59,1.316 -4.723,1.902 0.426,2.129 -0.594,3.852 -2.078,4.762 2.59,-1.406 8.363,0.32 5.512,3.84 2.066,-1.922 3.516,-5.195 3.078,-8.973 -0.164,-1.121 -0.793,-1.527 -1.621,-1.535 m 0,0"
                 inkscape:connector-curvature="0"
                 style="fill:#f9f9f9;fill-opacity:1;fill-rule:nonzero;stroke:none" />
              <path
                 id="path59"
                 d="M 24,9 C 15.738,9 9,15.738 9,24 9,32.262 15.738,39 24,39 32.262,39 39,32.262 39,24 39,15.738 32.262,9 24,9 m 0,3.789 c 6.215,0 11.211,4.996 11.211,11.211 0,6.215 -4.996,11.211 -11.211,11.211 -6.215,0 -11.211,-4.996 -11.211,-11.211 0,-6.215 4.996,-11.211 11.211,-11.211 m 0,0"
                 inkscape:connector-curvature="0"
                 style="fill:#ff4500;fill-opacity:1;fill-rule:nonzero;stroke:none" />
              <path
                 id="path61"
                 d="m 23.892368,14.839226 c -1.194376,0 -2.337647,0.229054 -3.38695,0.645818 -0.02555,0.0099 -0.04864,0.01901 -0.07089,0.02895 -0.0577,0.02233 -0.119522,0.04548 -0.177221,0.07112 -0.05193,0.02233 -0.103034,0.04548 -0.151667,0.06781 -0.0099,0.0033 -0.01649,0.0099 -0.02555,0.01323 -0.02884,0.01323 -0.061,0.02564 -0.09315,0.04218 -0.03543,0.01323 -0.06759,0.03224 -0.09974,0.04879 -0.05193,0.02233 -0.103035,0.04879 -0.154964,0.07442 -0.01649,0.0099 -0.03214,0.01654 -0.04863,0.02233 -0.04864,0.02563 -0.09645,0.05209 -0.145074,0.07772 -0.01649,0.0099 -0.03544,0.01902 -0.05193,0.02895 -0.0577,0.02895 -0.109629,0.06119 -0.167329,0.09344 -2.791823,1.59594 -4.675293,4.612518 -4.675293,8.065704 0,5.122725 4.137865,9.280441 9.247552,9.280441 5.109686,0 9.254146,-4.15937 9.254146,-9.280441 0,-1.867168 -0.550617,-3.604512 -1.496886,-5.061532 -0.579466,-0.930275 -1.388079,-1.799361 -2.398643,-2.505545 -0.04204,-0.02895 -0.08077,-0.05788 -0.121991,-0.08435 -0.01896,-0.01654 -0.04205,-0.02895 -0.061,-0.04218 -1.477926,-1.001391 -3.258362,-1.586018 -5.173979,-1.586018 m 0,0.391131 c 0.219257,0 0.434391,0.0099 0.647056,0.02563 -0.106331,0.06781 -0.202772,0.15215 -0.283551,0.252207 -0.318995,0.387823 -0.434394,0.936892 -0.46654,1.531442 -0.0577,1.085737 0.180517,2.338509 0.322292,3.178653 -1.072384,-0.238979 -2.283246,-1.237062 -2.810782,-2.274011 -0.280253,-0.545762 -0.366802,-1.088216 -0.202771,-1.531441 0.167329,-0.442398 0.592654,-0.826912 1.458969,-1.050179 0.03543,-0.0066 0.0643,-0.01902 0.08984,-0.04218 0.40884,-0.05788 0.824275,-0.09013 1.246303,-0.09013 m 1.429295,0.174479 c 0.121994,-0.0033 0.257999,0.0099 0.412139,0.03886 1.027048,0.219959 1.947764,0.594552 2.756377,1.075814 0.01896,0.0099 0.03875,0.02233 0.0577,0.03556 0.04205,0.02563 0.08407,0.05209 0.12529,0.07772 0.0034,0 0.0066,0.0033 0.0099,0.0033 0.05441,0.03886 0.109629,0.07442 0.167328,0.113287 0.85972,0.58132 1.60981,1.31479 2.218126,2.154107 -0.228324,-0.119903 -0.46077,-0.203421 -0.69569,-0.213344 -0.614908,-0.03225 -1.194376,0.291072 -1.674103,0.775644 -0.711351,0.713627 -1.236414,1.792747 -1.37819,2.826388 -0.525063,-0.991469 -1.474629,-1.779516 -2.810781,-1.999476 -0.13518,-0.852546 -0.395652,-2.167337 -0.341251,-3.229919 0.02885,-0.555685 0.151667,-1.027027 0.383289,-1.308176 0.17722,-0.213343 0.408841,-0.34565 0.773172,-0.348957 m -4.154353,0.264611 c -0.189581,0.181094 -0.341249,0.384515 -0.428622,0.606955 -0.21596,0.581319 -0.08984,1.230445 0.219259,1.841534 0.457472,0.894718 1.317191,1.728246 2.253569,2.183876 -1.101233,0.193497 -2.14147,0.86247 -2.759675,2.067281 -0.849829,-0.132307 -2.180211,-0.287765 -3.171815,-0.668972 -0.51847,-0.200113 -0.924013,-0.462244 -1.120191,-0.772336 -0.196177,-0.306785 -0.225026,-0.672281 0.06759,-1.214735 0,-0.0033 0,-0.0033 0,-0.0033 0,0 0,-0.0033 0,-0.0033 0.881975,-1.528135 2.079648,-2.638678 3.364695,-3.359747 0.01649,-0.0099 0.02885,-0.01653 0.04533,-0.02563 0.04864,-0.02894 0.09974,-0.05209 0.151668,-0.08104 0.0577,-0.02895 0.112927,-0.05788 0.170626,-0.08682 0.0577,-0.02895 0.116223,-0.05458 0.170624,-0.08434 0.04205,-0.01653 0.07748,-0.03555 0.116222,-0.05209 0.01896,-0.0099 0.03876,-0.01653 0.05441,-0.02563 0.116223,-0.04879 0.228323,-0.100057 0.344548,-0.142229 0.173922,-0.06781 0.347843,-0.128997 0.521765,-0.181094 m 9.100007,3.401092 c 0.03214,0 0.061,0 0.08984,0 0.469837,0.02233 0.966051,0.313399 1.442483,1.069197 0.01319,0.01654 0.02555,0.03225 0.04205,0.04549 0,0 0,0 0,0.0033 0.267065,0.542454 0.483025,1.120465 0.637165,1.721631 -0.106331,-0.08682 -0.222554,-0.157939 -0.347843,-0.206727 -0.23492,-0.08682 -0.492917,-0.116595 -0.759984,-0.103365 -0.270361,0.01323 -0.550616,0.0645 -0.837464,0.145537 -1.027047,0.287765 -2.115093,0.901334 -2.866008,1.30156 -0.0709,-1.085736 0.498687,-2.505546 1.29741,-3.30765 0.408841,-0.41015 0.859721,-0.65905 1.300709,-0.668973 m -6.410395,1.547153 c 0.128587,0 0.258,0.0033 0.383289,0.01323 0.0066,0 0.0099,0 0.01319,0 0.0066,0.0033 0.01649,0.0033 0.02555,0 0.01319,0.0066 0.02555,0.0099 0.03875,0.01323 1.665038,0.213345 2.662411,1.353657 2.988001,2.655217 -0.0099,0.03224 -0.01319,0.06781 -0.0066,0.103365 0.334655,1.679459 -0.457474,3.014096 -1.616405,3.731028 0,0 -0.0034,0 -0.0034,0 -0.01649,0.0066 -0.03214,0.01323 -0.04533,0.02233 -1.487816,0.81699 -2.981406,0.468034 -4.015048,-0.413456 -0.0099,-0.01323 -0.01896,-0.02894 -0.03214,-0.03886 -1.258668,-1.159331 -1.407038,-2.700697 -0.895163,-3.970007 0,-0.0033 0.0034,-0.0066 0.0034,-0.0099 0.0034,-0.0066 0.0066,-0.01654 0.0066,-0.02563 0.0099,-0.01323 0.01896,-0.02563 0.02226,-0.03886 0.663542,-1.401618 1.896659,-2.021803 3.133072,-2.041648 m -8.175168,0.15546 c 0.03544,0.128998 0.08654,0.2489 0.157436,0.362188 0.267066,0.423379 0.750091,0.70701 1.304005,0.920352 1.01386,0.39113 2.283245,0.545764 3.119886,0.672281 -0.540726,0.959218 -1.854622,1.828304 -3.00119,2.031724 -0.601721,0.106672 -1.143271,0.03225 -1.516667,-0.258823 -0.370101,-0.291073 -0.61491,-0.810374 -0.572872,-1.708401 0,-0.03226 -0.0066,-0.0645 -0.02226,-0.09345 0.106332,-0.668972 0.283552,-1.311483 0.531659,-1.925052 m 15.873905,1.208119 c 0.160734,0.0033 0.3124,0.03224 0.437691,0.08104 0.341249,0.128998 0.582762,0.40684 0.670137,1.017101 0.0033,0 0,0.0033 0,0.0066 0.28355,2.451796 -0.425328,4.62575 -1.564476,6.191922 0.04204,-0.261305 0.04864,-0.510206 -0.01896,-0.740087 -0.167328,-0.597859 -0.656948,-1.046871 -1.268559,-1.350349 -0.898463,-0.445706 -2.082947,-0.601165 -3.104225,-0.40684 0.769874,-0.813683 1.204267,-1.970534 0.98501,-3.307651 0.759983,-0.403534 1.922211,-1.072506 2.945963,-1.356964 0.267065,-0.07772 0.518469,-0.122383 0.75009,-0.132306 0.0577,-0.0033 0.112926,-0.0066 0.167329,-0.0033 m -11.482165,1.640594 c -0.138478,1.114678 0.189585,2.30626 1.155636,3.256382 -0.376695,0.775644 -0.917419,2.002782 -1.574368,2.839618 -0.344547,0.435783 -0.71135,0.752492 -1.065789,0.84924 -0.35114,0.09675 -0.704755,0.01654 -1.136675,-0.42338 -0.0034,0 -0.0034,0 -0.0034,-0.0033 0,0 -0.0034,0 -0.0034,0 -1.670808,-1.811766 -2.382981,-3.982412 -2.386279,-5.924002 0.116224,0.23567 0.263768,0.43909 0.450878,0.587935 0.489622,0.377899 1.146569,0.452321 1.819178,0.332418 0.988308,-0.174477 2.035138,-0.75249 2.743191,-1.514904 m 7.386427,3.472227 c 0.763279,-0.01902 1.564476,0.132306 2.180211,0.435783 0.550616,0.274535 0.943796,0.655742 1.072381,1.11137 0.128588,0.452322 0.01649,1.017103 -0.547319,1.715016 -0.01896,0.02233 -0.03214,0.0521 -0.03876,0.08435 -0.457474,0.452321 -0.962754,0.855854 -1.506776,1.198196 0.04533,-0.119902 0.07089,-0.245593 0.08077,-0.374592 0.02885,-0.500282 -0.196176,-1.011314 -0.521767,-1.511595 -0.589357,-0.90795 -1.516667,-1.779516 -2.121685,-2.377374 0.402247,-0.174479 0.895163,-0.267919 1.407038,-0.281151 m -5.959515,0.09013 c 0.702284,0.835183 1.078978,2.322799 0.905055,3.449881 -0.09314,0.606953 -0.337951,1.09814 -0.731132,1.360269 -0.395653,0.258826 -0.962754,0.320017 -1.796921,-0.0066 -0.03876,-0.01653 -0.08078,-0.01653 -0.121994,-0.0066 -0.534131,-0.284458 -1.040235,-0.620186 -1.506776,-1.0047 0.151667,0.01323 0.295915,-0.0033 0.437691,-0.04218 0.486323,-0.132305 0.895164,-0.510204 1.261966,-0.979064 0.663542,-0.845932 1.185309,-2.002782 1.552111,-2.771811 m 4.179079,0.364668 c 0.608316,0.606955 1.597448,1.518211 2.176913,2.409625 0.302509,0.468032 0.479729,0.917045 0.457473,1.282541 -0.02226,0.364668 -0.212663,0.678067 -0.766576,0.946814 0,0 -0.0034,0 -0.0034,0.0033 -2.2478,1.008006 -4.53022,0.984852 -6.362587,0.364668 0.260473,-0.03886 0.501985,-0.109979 0.702285,-0.242285 0.515172,-0.339035 0.795425,-0.943507 0.901757,-1.618268 0.151667,-0.994776 -0.0577,-2.177262 -0.550617,-3.094308 1.008091,0.491186 2.23791,0.562301 3.445475,-0.05209 m 0,0"
                 inkscape:connector-curvature="0"
                 style="fill:#b2b2b2;fill-opacity:1;fill-rule:nonzero;stroke:#ff4500;stroke-width:0.82559323" />
            </g>
          </g>
        </g>
      </g>
    </g>
  </g>
</svg>
