<svg xmlns="http://www.w3.org/2000/svg" xmlns:xlink="http://www.w3.org/1999/xlink" viewBox="0 0 256 256"><defs><rect id="0" width="124.09" x="1.928" y="13.01" rx="7.07" height="101.53"/><clipPath id="2"><rect transform="scale(-1 1)" y="23" x="-100" rx="5.02" height="72" width="88" style="opacity:0.321"/></clipPath><clipPath><rect y="24" x="12" rx="5.02" height="72" width="88" style="fill:url(#6);opacity:0.653"/></clipPath><clipPath id="1"><rect y="24" x="12" rx="5.02" height="72" width="88" style="fill:url(#5)"/></clipPath><clipPath><rect y="24" x="12" rx="5.02" height="72" width="88" style="fill:url(#3)"/></clipPath><linearGradient x2="-17.198" x1="100.11" gradientUnits="userSpaceOnUse" id="8"><stop style="stop-color:#fe4b4b"/><stop offset="1" style="stop-color:#fe4b4b;stop-opacity:0"/></linearGradient><linearGradient gradientUnits="userSpaceOnUse" id="6" y2="60" x2="0" y1="92.76"><stop/><stop offset="1" style="stop-opacity:0"/></linearGradient><linearGradient id="4"><stop style="stop-color:#5e005e"/><stop offset="1" style="stop-color:#290029"/></linearGradient><linearGradient y2="49.89" x2="35.1" y1="17.411" x1="26.402" gradientUnits="userSpaceOnUse" id="9"><stop style="stop-color:#fe6464"/><stop offset="1" style="stop-color:#fe6464;stop-opacity:0"/></linearGradient><radialGradient gradientTransform="matrix(2.20676 0 0 2.05771 -67.58 -106.93)" gradientUnits="userSpaceOnUse" xlink:href="#4" id="5" fy="64.753" r="44" cy="65.962" cx="56"/><radialGradient gradientTransform="matrix(2.20676 0 0 2.05771 -67.58 -106.93)" gradientUnits="userSpaceOnUse" xlink:href="#4" id="3" fy="64.753" r="44" cy="65.962" cx="56"/><radialGradient r="44" fy="64.753" cy="65.962" cx="56" gradientTransform="matrix(3.11183 0 0 2.90165 -110.29 -171.62)" gradientUnits="userSpaceOnUse" id="7"><stop style="stop-color:#a90000"/><stop offset="1" style="stop-color:#740000"/></radialGradient></defs><g transform="translate(0 -796.36)"><path d="m 252.75 896.23 c -49.981 -234.82 -393.86 17.268 -187.29 136.63 80.25 51.16 213 -15.856 187.29 -136.63 z" style="fill:#fff;color:#000"/><g transform="matrix(1.44691 0 0 1.17136 38.41 853.75)"><use xlink:href="#0" width="256" height="256" style="fill:url(#7)"/><g transform="matrix(1.41013 0 0 1.41013 -14.994 -20.831)" style="clip-path:url(#1);fill:#fe4b4b;opacity:0.258;stroke:#fe1f1f;fill-rule:evenodd"><path d="m 24.5 19.5 v 80"/><path d="m 40.5 19.5 v 80"/><path d="m 56.5 19.5 v 80"/><path d="m 72.5 19.5 v 80"/><path d="m 88.5 19.5 v 80"/><path d="m 0.5 60.5 h 110.62"/><path d="m 0.5 79.5 h 110.62"/><path d="m 0.5 40.5 h 110.62"/></g><g transform="matrix(1.41013 0 0 1.41013 -14.994 -19.421)" style="clip-path:url(#2);stroke:#ffdead"><path d="M 16.247,126.85 -2.645,98.77 12,79.489 h 12 l 12,-24 h 16 l 12,16 h 12 l 8,-12 h 15.307 5.78 l -0.049,65.38" style="fill:url(#8);opacity:0.285;fill-rule:evenodd"/><g style="fill:none;stroke-linejoin:round"><path d="m 4,59.49 8,20 12,0 12,-24 16,0 12,16 12,0 8,-12 15.306836,0 8.693164,0" style="stroke-width:2"/><path d="m 4,59.49 8,20 12,0 12,-24 16,0 12,16 12,0 8,-12 15.306836,0 8.693164,0"/></g></g><path d="m 9.02,13.01 c -3.919,0 -7.095,3.176 -7.095,7.095 v 30.626 c 23.751,-11.186 57.04,-18.16 93.91,-18.16 10.395,0 20.49,0.541 30.19,1.586 v -14.06 c 0,-3.919 -3.176,-7.095 -7.095,-7.095 H 9.03 z" style="fill:url(#9);opacity:0.225"/></g></g></svg>