<svg xmlns="http://www.w3.org/2000/svg" viewBox="0 0 256 256"><defs><clipPath><path d="M 0,64 H64 V128 H0 z"/></clipPath></defs><g style="fill:#fff;color:#000"><path d="m -1360.14 1641.33 c 46.11 -98.28 -119.59 -146.07 -181.85 -106.06 -62.25 40.01 -83.52 108.58 -13.01 143.08 70.51 34.501 148.75 61.26 194.86 -37.03 z" transform="matrix(0 -1.03665 1.35742 0 -2064.79 -1401.71)" style="fill:#fff"/></g><g transform="matrix(6.46268 0 0 6.52408 -2513.55 -3289.28)"><g transform="matrix(0.09263 0.00118 -0.00126 0.09897 398.05 464.66)" style="fill:#fff"><path d="m 84.22 559.36 h -3.565 v -13.434 c -1.302 1.218 -2.837 2.119 -4.605 2.702 v -3.235 c 0.93 -0.304 1.941 -0.882 3.03 -1.732 1.091 -0.85 1.839 -1.842 2.245 -2.975 h 2.892 z"/><path d="m 88.14 647.05 v 3.311 h -12.496 c 0.135 -1.252 0.541 -2.438 1.218 -3.558 0.677 -1.121 2.01 -2.607 4.01 -4.459 1.607 -1.497 2.592 -2.512 2.956 -3.045 0.491 -0.736 0.736 -1.463 0.736 -2.182 0 -0.795 -0.214 -1.406 -0.641 -1.833 -0.427 -0.427 -1.017 -0.641 -1.77 -0.641 -0.744 0 -1.336 0.224 -1.776 0.672 -0.44 0.448 -0.693 1.192 -0.761 2.233 l -3.552 -0.355 c 0.211 -1.962 0.875 -3.37 1.992 -4.224 1.116 -0.854 2.512 -1.281 4.186 -1.281 1.835 0 3.277 0.495 4.326 1.484 1.049 0.99 1.573 2.22 1.573 3.692 0 0.837 -0.15 1.634 -0.45 2.391 -0.3 0.757 -0.776 1.55 -1.427 2.379 -0.431 0.55 -1.209 1.34 -2.334 2.372 -1.125 1.032 -1.837 1.717 -2.138 2.055 -0.3 0.338 -0.543 0.668 -0.729 0.989 z"/><path d="m 153.15 554.58 l 3.552 -0.368 c 0.101 0.803 0.402 1.44 0.901 1.909 0.499 0.469 1.074 0.704 1.725 0.704 0.744 0 1.374 -0.302 1.89 -0.907 0.516 -0.605 0.774 -1.516 0.774 -2.734 0 -1.142 -0.256 -1.998 -0.768 -2.569 -0.512 -0.571 -1.178 -0.856 -1.998 -0.856 -1.023 0 -1.941 0.452 -2.753 1.357 l -2.892 -0.419 l 1.827 -9.679 h 9.426 v 3.336 h -6.723 l -0.558 3.159 c 0.795 -0.397 1.607 -0.596 2.436 -0.596 1.581 0 2.922 0.575 4.02 1.725 1.099 1.15 1.649 2.643 1.649 4.478 0 1.531 -0.444 2.897 -1.332 4.098 -1.209 1.641 -2.888 2.461 -5.04 2.461 -1.717 0 -3.117 -0.461 -4.199 -1.383 -1.083 -0.922 -1.73 -2.161 -1.941 -3.717 z"/><path d="m 113.97 554.43 l 3.451 -0.419 c 0.11 0.88 0.406 1.552 0.888 2.02 0.482 0.465 1.066 0.698 1.751 0.698 0.736 0 1.355 -0.279 1.858 -0.837 0.503 -0.558 0.755 -1.311 0.755 -2.258 0 -0.896 -0.241 -1.607 -0.723 -2.131 -0.482 -0.524 -1.07 -0.787 -1.763 -0.787 -0.457 0 -1 0.089 -1.636 0.266 l 0.393 -2.905 c 0.964 0.025 1.7 -0.184 2.207 -0.628 0.507 -0.444 0.761 -1.034 0.761 -1.77 0 -0.626 -0.186 -1.125 -0.558 -1.497 -0.372 -0.372 -0.867 -0.558 -1.484 -0.558 -0.609 0 -1.129 0.211 -1.56 0.634 -0.431 0.423 -0.693 1.04 -0.787 1.852 l -3.286 -0.558 c 0.228 -1.125 0.573 -2.023 1.034 -2.696 0.461 -0.672 1.104 -1.201 1.928 -1.586 0.825 -0.385 1.749 -0.577 2.772 -0.577 1.751 0 3.155 0.558 4.212 1.675 0.871 0.913 1.307 1.945 1.307 3.095 0 1.632 -0.892 2.935 -2.677 3.907 1.066 0.228 1.918 0.74 2.556 1.535 0.639 0.795 0.958 1.755 0.958 2.88 0 1.632 -0.596 3.02 -1.789 4.174 -1.192 1.15 -2.677 1.725 -4.453 1.725 -1.683 0 -3.078 -0.484 -4.186 -1.453 -1.108 -0.968 -1.751 -2.235 -1.928 -3.799 z"/><path d="m 122.09 649.36 v -3.742 h -7.612 v -3.121 l 8.07 -11.811 h 2.994 v 11.798 h 2.309 v 3.133 h -2.309 v 3.742 z m 0 -6.876 v -6.356 l -4.275 6.356 z"/><path d="m 155.8 647.36 v -16.597 h 7.05 c 1.774 0 3.062 0.149 3.866 0.447 0.804 0.298 1.447 0.828 1.93 1.591 0.483 0.762 0.725 1.634 0.725 2.615 0 1.245 -0.366 2.274 -1.098 3.085 -0.732 0.811 -1.827 1.323 -3.283 1.534 0.725 0.423 1.323 0.887 1.794 1.393 0.472 0.506 1.108 1.404 1.908 2.695 l 2.027 3.238 h -4.01 l -2.423 -3.612 c -0.86 -1.291 -1.449 -2.104 -1.766 -2.44 -0.317 -0.336 -0.653 -0.566 -1.01 -0.691 -0.355 -0.125 -0.917 -0.187 -1.687 -0.187 h -0.679 v 6.929 z m 3.351 -9.578 h 2.479 c 1.608 0 2.612 -0.068 3.01 -0.204 0.4 -0.136 0.713 -0.37 0.94 -0.702 0.226 -0.332 0.34 -0.747 0.34 -1.245 0 -0.559 -0.149 -1.01 -0.447 -1.353 -0.298 -0.343 -0.719 -0.56 -1.262 -0.651 -0.272 -0.038 -1.087 -0.057 -2.445 -0.057 h -2.615 z"/></g><ellipse cx="408.57" cy="523.79" rx="11.91" ry="11.885" style="fill:#ffdead;stroke:#ffdead"/><ellipse cx="408.57" cy="523.85" rx="10.719" ry="10.702" style="fill:#ff4500;stroke:#ff4500;stroke-linecap:round;stroke-linejoin:round;stroke-width:0.122"/><path d="m 403.31 517.36 c -0.052 0.129 -0.112 0.243 -0.248 0.339 -0.135 0.096 -0.275 0.182 -0.391 0.216 v 0.339 c 0.217 -0.063 0.405 -0.141 0.567 -0.278 l -0.036 1.513 h 0.461 l 0.036 -2.13 h -0.389 z m 4.749 0.062 c -0.126 -0.001 -0.217 0.02 -0.319 0.061 -0.102 0.043 -0.191 0.11 -0.248 0.186 -0.057 0.076 -0.111 0.181 -0.142 0.309 l 0.389 0.061 c 0.013 -0.092 0.053 -0.168 0.106 -0.216 0.054 -0.048 0.138 -0.062 0.213 -0.061 0.075 0 0.132 0.019 0.177 0.061 0.045 0.043 0.072 0.083 0.07 0.154 -0.001 0.084 -0.044 0.166 -0.106 0.216 -0.063 0.049 -0.165 0.062 -0.283 0.062 l -0.036 0.339 c 0.078 -0.02 0.12 -0.032 0.177 -0.031 0.085 0.001 0.189 0.032 0.248 0.092 0.058 0.061 0.073 0.144 0.07 0.247 -0.001 0.108 -0.044 0.183 -0.106 0.247 -0.062 0.063 -0.122 0.093 -0.213 0.092 -0.083 -0.001 -0.155 -0.011 -0.213 -0.061 -0.058 -0.054 -0.094 -0.146 -0.106 -0.247 l -0.425 0.031 c 0.019 0.179 0.078 0.351 0.213 0.463 0.134 0.112 0.326 0.154 0.532 0.154 0.218 0 0.384 -0.055 0.532 -0.186 0.148 -0.129 0.245 -0.277 0.248 -0.463 0.001 -0.128 -0.065 -0.248 -0.142 -0.339 -0.077 -0.091 -0.154 -0.158 -0.283 -0.184 0.221 -0.108 0.316 -0.246 0.319 -0.432 0.002 -0.131 -0.037 -0.265 -0.142 -0.37 -0.127 -0.128 -0.316 -0.184 -0.532 -0.184 z m 4.36 0.092 l -0.248 1.08 l 0.355 0.062 c 0.101 -0.103 0.229 -0.154 0.355 -0.154 0.101 0 0.151 0.027 0.213 0.092 0.062 0.066 0.109 0.179 0.106 0.309 -0.002 0.138 -0.042 0.241 -0.106 0.309 -0.063 0.068 -0.122 0.093 -0.213 0.092 -0.079 -0.001 -0.152 -0.011 -0.213 -0.062 -0.061 -0.054 -0.095 -0.125 -0.106 -0.216 l -0.461 0.031 c 0.024 0.178 0.116 0.326 0.248 0.432 0.131 0.106 0.286 0.154 0.496 0.154 0.263 0 0.487 -0.092 0.638 -0.278 0.111 -0.136 0.175 -0.288 0.177 -0.463 0.002 -0.21 -0.079 -0.392 -0.213 -0.525 -0.132 -0.133 -0.302 -0.186 -0.496 -0.186 -0.102 -0.001 -0.185 0.017 -0.283 0.062 l 0.07 -0.37 h 0.816 v -0.37 h -1.135 z m -9 2.407 a 0.314 0.342 89.992 0 0 -0.036 0.031 0.314 0.342 89.992 0 0 -0.213 0.309 l -0.036 6.76 a 0.315 0.343 89.992 1 0 0.674 0 v -2.716 h 4.147 v 2.777 a 0.315 0.343 89.992 0 0 0.638 0.154 0.315 0.343 89.992 0 0 0.036 -0.154 v -2.809 h 4.466 v 2.871 a 0.315 0.343 89.992 0 0 0.07 0.186 0.315 0.343 89.992 0 0 0.07 0.062 0.315 0.343 89.992 0 0 0.355 0.031 0.315 0.343 89.992 0 0 0.177 -0.278 v -3.055 a 0.315 0.343 89.992 0 0 0 -0.217 0.315 0.343 89.992 0 0 0 -0.061 l 0.036 -3.458 a 0.314 0.342 89.992 0 0 -0.283 -0.309 0.314 0.342 89.992 0 0 -0.07 0 0.314 0.342 89.992 0 0 -0.319 0.309 v 3.303 h -4.466 v -3.364 a 0.314 0.342 89.992 0 0 -0.283 -0.309 0.314 0.342 89.992 0 0 -0.07 0 0.314 0.342 89.992 0 0 -0.319 0.309 v 3.395 h -4.182 l 0.036 -3.427 a 0.314 0.342 89.992 0 0 0 -0.092 0.314 0.342 89.992 0 0 -0.391 -0.247 0.314 0.342 89.992 0 0 -0.036 0 z m 4.821 7.779 l -1.027 1.327 v 0.37 h 0.957 l -0.036 0.432 h 0.425 l 0.036 -0.432 h 0.283 v -0.37 h -0.283 v -1.327 h -0.355 z m 4.076 0.031 l -0.036 1.914 h 0.425 v -0.802 h 0.07 c 0.094 0.001 0.169 0.016 0.213 0.031 0.044 0.015 0.103 0.054 0.142 0.092 0.038 0.038 0.109 0.129 0.213 0.278 l 0.283 0.401 l 0.496 0.031 l -0.248 -0.401 c -0.095 -0.149 -0.191 -0.25 -0.248 -0.309 -0.057 -0.059 -0.124 -0.105 -0.213 -0.154 0.179 -0.022 0.334 -0.063 0.425 -0.154 0.091 -0.091 0.14 -0.228 0.142 -0.37 0.001 -0.112 -0.048 -0.19 -0.106 -0.278 -0.058 -0.088 -0.115 -0.15 -0.213 -0.186 -0.098 -0.036 -0.279 -0.061 -0.496 -0.061 l -0.851 -0.032 z m -9.04 0.031 c -0.205 0 -0.357 0.028 -0.496 0.123 -0.138 0.096 -0.218 0.27 -0.248 0.493 l 0.425 0.031 c 0.01 -0.119 0.052 -0.197 0.106 -0.247 0.054 -0.049 0.122 -0.061 0.213 -0.061 0.093 0.001 0.162 0.013 0.213 0.061 0.052 0.048 0.073 0.126 0.07 0.216 -0.001 0.082 -0.045 0.164 -0.106 0.247 -0.045 0.061 -0.155 0.171 -0.355 0.34 -0.248 0.209 -0.412 0.367 -0.497 0.493 -0.085 0.127 -0.123 0.258 -0.142 0.401 l 1.524 0.031 v -0.37 l -0.851 -0.031 c 0.024 -0.036 0.033 -0.054 0.07 -0.092 0.037 -0.038 0.144 -0.13 0.283 -0.247 0.139 -0.116 0.23 -0.184 0.283 -0.247 0.081 -0.093 0.139 -0.191 0.177 -0.278 0.038 -0.087 0.07 -0.182 0.07 -0.278 0.002 -0.168 -0.086 -0.318 -0.213 -0.432 -0.127 -0.115 -0.307 -0.156 -0.532 -0.156 z m 9.428 0.309 h 0.319 c 0.167 0 0.286 0 0.319 0 0.066 0.011 0.106 0.053 0.142 0.092 0.036 0.039 0.072 0.09 0.07 0.154 -0.001 0.057 -0.042 0.087 -0.07 0.123 -0.028 0.037 -0.057 0.077 -0.106 0.092 -0.049 0.02 -0.158 0.031 -0.355 0.031 h -0.319 v -0.495 z m -4.537 0.247 v 0.71 h -0.532 l 0.532 -0.71 z" style="fill:#fff;opacity:0.746;color:#000"/></g></svg>