<svg xmlns="http://www.w3.org/2000/svg" viewBox="0 0 256 256"><g transform="translate(0 -796.36)"><path d="m59.778 1025.68c95.24 84.46 241.79-48.767 182.53-160.27-59.906-112.74-258.16-82.69-241.3 55.767 5.02 41.2 27.695 76.954 58.764 104.51" style="fill:#fff;color:#000"/><g transform="translate(0 796.36)" style="fill-rule:evenodd"><path d="m 117.95 152.79 c -3.819 -0.125 -7.298 -0.289 -7.729 -0.364 l -0.785 -0.137 l -0.185 -7.507 c -0.102 -4.129 -0.274 -7.564 -0.383 -7.634 -0.109 -0.07 -0.281 -2.03 -0.383 -4.357 -0.102 -2.326 -0.272 -4.23 -0.378 -4.23 -0.106 0 -0.275 -1.591 -0.375 -3.535 -0.1 -1.944 -0.271 -3.535 -0.381 -3.535 -0.109 0 -0.281 -1.534 -0.381 -3.409 -0.1 -1.875 -0.285 -3.409 -0.409 -3.409 -0.461 0 -0.239 -2.01 0.278 -2.525 0.393 -0.393 0.505 -0.421 0.505 -0.126 0 0.208 0.105 0.379 0.232 0.379 0.128 0 0.307 0.341 0.399 0.758 0.091 0.417 0.269 0.758 0.394 0.758 0.125 0 0.297 0.276 0.382 0.613 0.085 0.337 0.314 0.675 0.51 0.75 0.196 0.075 0.356 0.311 0.356 0.523 0 0.213 0.111 0.387 0.248 0.387 0.136 0 0.319 0.284 0.406 0.631 0.087 0.347 0.252 0.631 0.367 0.631 0.115 0 1.283 1.08 2.596 2.399 1.313 1.319 2.472 2.399 2.576 2.399 0.104 0 0.438 0.269 0.743 0.597 0.304 0.329 0.971 0.735 1.481 0.903 0.51 0.168 0.927 0.402 0.927 0.519 0 0.117 0.341 0.288 0.758 0.379 0.417 0.091 0.758 0.262 0.758 0.379 0 0.117 0.341 0.287 0.758 0.379 0.417 0.091 0.758 0.256 0.758 0.367 0 0.11 0.455 0.273 1.01 0.362 0.556 0.089 1.01 0.267 1.01 0.396 0 0.129 0.54 0.314 1.2 0.411 0.66 0.097 1.261 0.271 1.335 0.385 0.075 0.115 1.239 0.286 2.588 0.381 1.349 0.095 2.453 0.269 2.453 0.388 0 0.118 1.023 0.215 2.273 0.215 1.25 0 2.273 -0.097 2.273 -0.215 0 -0.118 1.045 -0.289 2.321 -0.379 1.277 -0.091 2.385 -0.264 2.462 -0.386 0.077 -0.122 0.737 -0.302 1.466 -0.402 0.729 -0.099 1.326 -0.269 1.326 -0.377 0 -0.108 0.455 -0.269 1.01 -0.358 0.556 -0.089 1.01 -0.265 1.01 -0.391 0 -0.126 0.341 -0.304 0.758 -0.396 0.417 -0.091 0.758 -0.262 0.758 -0.379 0 -0.117 0.341 -0.287 0.758 -0.379 0.417 -0.091 0.758 -0.25 0.758 -0.352 0 -0.102 0.398 -0.341 0.884 -0.532 0.486 -0.191 0.884 -0.432 0.884 -0.535 0 -0.104 0.256 -0.269 0.568 -0.368 0.313 -0.099 0.994 -0.618 1.515 -1.153 0.521 -0.536 1.052 -0.974 1.18 -0.974 0.357 0 1.787 -1.51 1.787 -1.886 0 -0.183 0.17 -0.398 0.379 -0.478 0.208 -0.08 0.379 -0.035 0.379 0.099 0 0.135 -0.1 0.245 -0.222 0.245 -0.122 0 -0.304 1.534 -0.405 3.409 -0.1 1.875 -0.272 3.409 -0.381 3.409 -0.109 0 -0.281 1.733 -0.383 3.851 -0.102 2.118 -0.28 3.912 -0.397 3.986 -0.117 0.074 -0.292 2.887 -0.388 6.25 -0.097 3.363 -0.272 6.115 -0.389 6.115 -0.117 0 -0.213 1.516 -0.213 3.37 v 3.37 l -3.977 0.167 c -7.161 0.3 -24.539 0.384 -31.629 0.152 z" style="fill:#ffdead"/><g style="fill:#ff4500"><path d="m 78.871 120.06 c -0.59 -0.062 -1.073 -0.209 -1.073 -0.326 0 -0.117 -0.682 -0.292 -1.515 -0.389 -0.833 -0.097 -1.515 -0.273 -1.515 -0.392 0 -0.119 -0.398 -0.291 -0.884 -0.382 c -0.486 -0.091 -0.884 -0.258 -0.884 -0.37 c 0 -0.112 -0.341 -0.279 -0.758 -0.371 -0.417 -0.091 -0.758 -0.266 -0.758 -0.387 0 -0.122 -0.398 -0.296 -0.884 -0.387 -0.486 -0.091 -0.884 -0.267 -0.884 -0.39 0 -0.123 -0.174 -0.224 -0.387 -0.224 -0.213 0 -0.448 -0.16 -0.523 -0.356 -0.075 -0.196 -0.412 -0.425 -0.75 -0.51 -0.337 -0.085 -0.613 -0.265 -0.613 -0.402 0 -0.136 -0.165 -0.248 -0.366 -0.248 -0.201 0 -0.457 -0.15 -0.568 -0.334 -0.111 -0.184 -0.592 -0.61 -1.07 -0.947 -0.477 -0.337 -1.273 -1.05 -1.768 -1.585 -3.444 -3.721 -3.804 -4.157 -3.804 -4.608 0 -0.165 -0.17 -0.366 -0.379 -0.446 -0.208 -0.08 -0.379 -0.319 -0.379 -0.532 0 -0.213 -0.105 -0.387 -0.232 -0.387 -0.128 0 -0.307 -0.341 -0.399 -0.758 -0.092 -0.417 -0.262 -0.758 -0.379 -0.758 -0.117 0 -0.287 -0.341 -0.379 -0.758 -0.092 -0.417 -0.258 -0.758 -0.37 -0.758 -0.112 0 -0.28 -0.511 -0.374 -1.136 -0.094 -0.625 -0.266 -1.136 -0.384 -1.136 -0.117 0 -0.295 -0.597 -0.394 -1.326 -0.099 -0.729 -0.309 -1.407 -0.466 -1.506 -0.397 -0.251 -0.401 -11.506 -0.005 -11.761 0.154 -0.099 0.36 -0.72 0.457 -1.38 0.097 -0.66 0.269 -1.199 0.382 -1.199 0.113 0 0.277 -0.455 0.366 -1.01 0.089 -0.556 0.261 -1.01 0.383 -1.01 0.122 0 0.296 -0.398 0.387 -0.884 0.091 -0.486 0.265 -0.884 0.387 -0.884 0.122 0 0.294 -0.331 0.383 -0.736 0.089 -0.405 0.325 -0.799 0.525 -0.876 0.2 -0.077 0.363 -0.313 0.363 -0.526 0 -0.213 0.111 -0.387 0.248 -0.387 0.136 0 0.317 -0.276 0.402 -0.613 0.085 -0.337 0.314 -0.675 0.51 -0.75 0.196 -0.075 0.357 -0.282 0.358 -0.46 0.001 -0.178 0.455 -0.721 1.01 -1.207 0.553 -0.486 1.01 -0.978 1.01 -1.093 0.003 -0.277 1.419 -1.685 1.694 -1.685 0.119 0 0.5 -0.313 0.847 -0.694 0.726 -0.798 2.125 -1.831 2.48 -1.831 0.133 0 0.28 -0.085 0.326 -0.189 0.154 -0.347 1.7 -1.326 2.094 -1.326 0.214 0 0.389 -0.105 0.389 -0.232 0 -0.128 0.341 -0.307 0.758 -0.399 0.417 -0.092 0.758 -0.258 0.758 -0.371 0 -0.112 0.398 -0.279 0.884 -0.37 0.486 -0.091 0.884 -0.26 0.884 -0.375 0 -0.115 0.48 -0.285 1.066 -0.379 0.586 -0.094 1.127 -0.269 1.202 -0.39 0.182 -0.295 4.537 -0.766 7.078 -0.766 h 2.042 l -0.174 0.947 c -0.096 0.521 -0.264 1.01 -0.374 1.078 -0.11 0.072 -0.28 1.013 -0.378 2.09 -0.098 1.077 -0.275 2.02 -0.395 2.093 -0.283 0.175 -0.284 6.165 -0.002 6.165 0.119 0 0.289 0.874 0.38 1.943 0.09 1.068 0.272 2.01 0.404 2.091 0.132 0.082 0.316 0.628 0.41 1.214 0.094 0.586 0.257 1.066 0.363 1.066 0.106 0 0.267 0.398 0.358 0.884 0.091 0.486 0.274 0.884 0.407 0.884 0.133 0 0.241 0.17 0.241 0.379 0 0.208 0.105 0.379 0.232 0.379 0.128 0 0.307 0.341 0.399 0.758 0.092 0.417 0.259 0.758 0.371 0.758 0.113 0 0.276 0.284 0.364 0.631 0.087 0.347 0.27 0.631 0.406 0.631 0.136 0 0.248 0.174 0.248 0.387 0 0.213 0.17 0.452 0.379 0.532 0.208 0.08 0.379 0.295 0.379 0.478 0 0.183 0.341 0.673 0.758 1.09 0.417 0.417 0.758 0.837 0.758 0.933 0 0.279 1.933 2.136 2.224 2.136 0.145 0 0.588 0.326 0.986 0.724 0.398 0.398 0.964 0.8 1.259 0.893 0.294 0.093 0.599 0.336 0.677 0.539 0.078 0.203 0.316 0.369 0.528 0.369 0.213 0 0.387 0.101 0.387 0.225 0 0.124 0.284 0.296 0.631 0.384 0.347 0.087 0.631 0.261 0.631 0.386 0 0.125 0.341 0.303 0.758 0.394 0.417 0.092 0.758 0.258 0.758 0.371 0 0.112 0.398 0.279 0.884 0.37 0.486 0.091 0.884 0.264 0.884 0.383 0 0.12 0.568 0.296 1.263 0.391 0.694 0.096 1.263 0.277 1.263 0.402 0 0.126 0.154 0.229 0.342 0.229 0.261 0 0.375 0.727 0.483 3.065 0.078 1.686 0.249 3.135 0.381 3.22 0.132 0.085 0.319 0.695 0.416 1.354 0.097 0.66 0.283 1.2 0.414 1.2 0.13 0 0.237 0.341 0.237 0.758 0 0.417 -0.114 0.758 -0.253 0.758 -0.139 0 -0.253 0.126 -0.253 0.28 0 0.34 -2.626 3 -2.961 3 -0.131 0 -0.569 0.338 -0.974 0.751 -0.405 0.413 -0.869 0.754 -1.031 0.758 -0.162 0.004 -0.332 0.092 -0.379 0.196 -0.128 0.288 -1.669 1.326 -1.968 1.326 -0.145 0 -0.263 0.105 -0.263 0.232 0 0.128 -0.341 0.307 -0.758 0.399 -0.417 0.091 -0.758 0.262 -0.758 0.379 0 0.117 -0.341 0.287 -0.758 0.379 -0.417 0.091 -0.758 0.256 -0.758 0.367 0 0.11 -0.455 0.273 -1.01 0.362 -0.556 0.089 -1.01 0.259 -1.01 0.379 0 0.119 -0.594 0.296 -1.321 0.392 -0.727 0.096 -1.398 0.3 -1.492 0.452 -0.175 0.284 -9.361 0.507 -11.518 0.28 z"/><path d="m 107.03 98.59 c -0.521 -0.062 -0.947 -0.207 -0.947 -0.322 0 -0.115 -0.625 -0.286 -1.389 -0.382 -0.764 -0.095 -1.389 -0.278 -1.389 -0.405 0 -0.127 -0.455 -0.304 -1.01 -0.393 -0.556 -0.089 -1.01 -0.248 -1.01 -0.354 0 -0.106 -0.311 -0.271 -0.692 -0.367 -0.381 -0.096 -0.75 -0.25 -0.821 -0.343 c -0.163 -0.214 -0.953 -0.712 -1.77 -1.116 c -0.347 -0.172 -0.852 -0.512 -1.121 -0.756 -0.269 -0.244 -0.589 -0.444 -0.711 -0.444 -0.122 0 -0.555 -0.313 -0.963 -0.694 -2.744 -2.568 -4.257 -4.15 -4.399 -4.597 -0.09 -0.284 -0.27 -0.517 -0.4 -0.517 -0.13 0 -0.236 -0.174 -0.236 -0.387 0 -0.213 -0.164 -0.449 -0.363 -0.526 -0.2 -0.077 -0.436 -0.471 -0.525 -0.876 -0.089 -0.405 -0.257 -0.736 -0.374 -0.736 -0.117 0 -0.287 -0.341 -0.379 -0.758 -0.092 -0.417 -0.262 -0.758 -0.379 -0.758 -0.117 0 -0.287 -0.341 -0.379 -0.758 -0.092 -0.417 -0.26 -0.758 -0.375 -0.758 -0.115 0 -0.287 -0.568 -0.382 -1.262 -0.095 -0.694 -0.277 -1.326 -0.402 -1.404 -0.126 -0.078 -0.229 -0.409 -0.229 -0.737 0 -0.327 -0.142 -0.643 -0.316 -0.701 -0.447 -0.149 -0.437 -9.576 0.01 -9.725 0.168 -0.056 0.306 -0.433 0.306 -0.839 0 -0.405 0.099 -0.737 0.219 -0.737 0.121 0 0.282 -0.471 0.36 -1.046 0.077 -0.576 0.248 -1.115 0.38 -1.199 0.132 -0.084 0.32 -0.522 0.418 -0.974 0.098 -0.451 0.274 -0.821 0.39 -0.821 0.117 0 0.287 -0.341 0.379 -0.758 0.092 -0.417 0.262 -0.758 0.379 -0.758 0.117 0 0.285 -0.331 0.374 -0.736 0.089 -0.405 0.325 -0.799 0.525 -0.876 0.2 -0.077 0.363 -0.313 0.363 -0.526 0 -0.213 0.085 -0.387 0.189 -0.388 0.104 -0.001 0.473 -0.422 0.821 -0.936 0.552 -0.817 1.876 -2.19 4.04 -4.188 0.347 -0.321 0.83 -0.659 1.073 -0.751 0.243 -0.092 0.442 -0.273 0.442 -0.401 0 -0.128 0.284 -0.304 0.631 -0.392 c 0.347 -0.087 0.631 -0.27 0.631 -0.406 c 0 -0.136 0.174 -0.248 0.387 -0.248 0.213 0 0.449 -0.164 0.526 -0.363 0.077 -0.2 0.471 -0.436 0.876 -0.525 0.405 -0.089 0.736 -0.243 0.736 -0.342 0 -0.099 0.684 -0.332 1.52 -0.518 0.836 -0.186 1.578 -0.43 1.647 -0.543 0.07 -0.113 0.664 -0.284 1.32 -0.381 0.656 -0.097 1.275 -0.302 1.374 -0.457 0.254 -0.396 10.753 -0.391 11 0.005 0.099 0.157 0.777 0.366 1.506 0.466 0.729 0.099 1.326 0.269 1.326 0.378 0 0.108 0.361 0.27 0.803 0.358 0.889 0.178 4.435 1.868 4.96 2.365 0.184 0.174 0.496 0.316 0.694 0.316 0.198 0 0.362 0.085 0.362 0.189 0.001 0.104 0.426 0.473 0.945 0.821 1.023 0.685 2.084 1.723 2.084 2.039 0 0.109 -0.17 0.368 -0.379 0.576 -0.208 0.208 -0.379 0.475 -0.379 0.593 0 0.118 -0.227 0.409 -0.505 0.647 -0.278 0.238 -0.505 0.592 -0.505 0.787 0 0.195 -0.17 0.42 -0.379 0.5 -0.208 0.08 -0.379 0.319 -0.379 0.532 0 0.213 -0.114 0.387 -0.253 0.387 -0.139 0 -0.253 0.17 -0.253 0.379 0 0.208 -0.105 0.379 -0.232 0.379 -0.128 0 -0.307 0.341 -0.399 0.758 -0.091 0.417 -0.271 0.758 -0.399 0.758 -0.128 0 -0.236 0.142 -0.241 0.316 -0.005 0.174 -0.228 0.77 -0.496 1.326 -0.268 0.556 -0.492 1.266 -0.496 1.578 -0.005 0.313 -0.113 0.568 -0.241 0.568 -0.128 0 -0.312 0.739 -0.408 1.641 -0.097 0.903 -0.276 1.641 -0.399 1.641 -0.123 0 -0.223 2.102 -0.223 4.672 0 2.569 0.1 4.672 0.223 4.672 0.123 0 0.302 0.739 0.399 1.641 0.097 0.903 0.273 1.641 0.393 1.641 0.119 0 0.294 0.511 0.387 1.136 0.094 0.625 0.262 1.136 0.374 1.136 0.112 0 0.279 0.341 0.37 0.758 0.091 0.417 0.262 0.758 0.379 0.758 0.117 0 0.287 0.341 0.379 0.758 0.091 0.417 0.271 0.758 0.399 0.758 0.128 0 0.232 0.17 0.232 0.379 0 0.208 0.114 0.379 0.253 0.379 0.139 0 0.253 0.174 0.253 0.387 0 0.213 0.17 0.452 0.379 0.532 0.208 0.08 0.379 0.305 0.379 0.5 0 0.195 0.227 0.549 0.505 0.787 0.278 0.238 0.505 0.529 0.505 0.647 0 0.118 0.17 0.385 0.379 0.593 0.208 0.208 0.379 0.468 0.379 0.576 0 0.522 -2.818 2.797 -3.465 2.797 -0.155 0 -0.319 0.085 -0.365 0.189 -0.128 0.288 -1.669 1.326 -1.968 1.326 -0.145 0 -0.263 0.105 -0.263 0.232 0 0.128 -0.341 0.307 -0.758 0.399 -0.417 0.092 -0.758 0.258 -0.758 0.37 0 0.112 -0.511 0.28 -1.136 0.374 -0.625 0.094 -1.136 0.264 -1.136 0.379 0 0.115 -0.54 0.289 -1.199 0.388 -0.66 0.099 -1.278 0.306 -1.373 0.461 -0.177 0.286 -8.668 0.492 -10.621 0.258 z"/><path d="m 146.74 98.59 c -0.486 -0.067 -0.997 -0.214 -1.136 -0.326 -0.139 -0.112 -0.765 -0.286 -1.39 -0.387 -0.625 -0.101 -1.25 -0.271 -1.389 -0.378 -0.139 -0.107 -0.622 -0.274 -1.073 -0.37 -0.451 -0.097 -0.821 -0.267 -0.821 -0.38 0 -0.112 -0.398 -0.279 -0.884 -0.37 -0.486 -0.091 -0.884 -0.272 -0.884 -0.402 0 -0.13 -0.284 -0.308 -0.631 -0.395 -0.347 -0.087 -0.631 -0.26 -0.631 -0.384 0 -0.124 -0.165 -0.225 -0.366 -0.225 -0.201 0 -0.457 -0.144 -0.568 -0.321 -0.111 -0.177 -0.486 -0.465 -0.833 -0.641 -0.347 -0.176 -0.865 -0.458 -1.152 -0.626 -0.652 -0.383 -3.899 -3.584 -3.899 -3.844 0 -0.105 -0.284 -0.455 -0.631 -0.777 -0.347 -0.322 -0.631 -0.696 -0.631 -0.832 0 -0.136 -0.143 -0.397 -0.319 -0.58 -0.175 -0.184 -0.488 -0.666 -0.694 -1.072 -0.728 -1.43 -0.876 -1.661 -1.064 -1.661 -0.104 0 -0.262 -0.455 -0.351 -1.01 -0.089 -0.556 -0.261 -1.01 -0.382 -1.01 -0.121 0 -0.22 -0.17 -0.22 -0.379 0 -0.208 -0.107 -0.379 -0.237 -0.379 -0.13 0 -0.317 -0.54 -0.414 -1.199 -0.097 -0.66 -0.303 -1.281 -0.457 -1.38 -0.388 -0.249 -0.393 -11.507 -0.005 -11.761 0.152 -0.099 0.353 -0.577 0.448 -1.062 0.208 -1.068 0.722 -2.275 0.968 -2.275 0.099 0 0.258 -0.426 0.354 -0.947 0.096 -0.521 0.243 -1 0.327 -1.073 0.205 -0.17 0.718 -0.994 1.099 -1.768 0.171 -0.347 0.454 -0.781 0.629 -0.965 0.175 -0.184 0.323 -0.468 0.329 -0.631 0.006 -0.164 0.347 -0.576 0.758 -0.917 0.411 -0.341 0.747 -0.719 0.747 -0.841 0 -0.368 2.882 -3.13 3.458 -3.313 0.295 -0.094 0.6 -0.336 0.678 -0.539 0.078 -0.203 0.306 -0.369 0.507 -0.369 0.201 0 0.404 -0.085 0.45 -0.189 0.128 -0.288 1.669 -1.326 1.968 -1.326 0.145 0 0.263 -0.101 0.263 -0.225 0 -0.124 0.311 -0.303 0.692 -0.399 0.381 -0.096 0.757 -0.279 0.836 -0.407 0.079 -0.128 0.734 -0.374 1.455 -0.545 0.721 -0.171 1.31 -0.387 1.31 -0.48 0 -0.093 0.597 -0.25 1.326 -0.35 0.729 -0.099 1.407 -0.309 1.506 -0.466 0.252 -0.399 10.336 -0.397 10.829 0.002 0.195 0.158 0.866 0.37 1.491 0.47 0.625 0.101 1.25 0.269 1.389 0.374 0.139 0.105 0.849 0.331 1.578 0.502 0.729 0.171 1.326 0.404 1.326 0.518 0 0.114 0.341 0.282 0.758 0.374 0.417 0.092 0.758 0.269 0.758 0.394 0 0.125 0.284 0.299 0.631 0.386 0.347 0.087 0.631 0.26 0.631 0.384 0 0.124 0.174 0.225 0.387 0.225 0.213 0 0.45 0.166 0.528 0.369 0.078 0.203 0.387 0.447 0.687 0.541 0.582 0.184 5.213 4.619 5.215 4.995 0.001 0.123 0.272 0.475 0.603 0.781 0.331 0.307 0.687 0.826 0.791 1.154 0.104 0.328 0.345 0.751 0.535 0.941 0.19 0.19 0.345 0.508 0.345 0.706 0 0.198 0.108 0.361 0.241 0.361 0.133 0 0.316 0.398 0.407 0.884 0.091 0.486 0.267 0.884 0.39 0.884 0.123 0 0.224 0.17 0.224 0.379 0 0.208 0.104 0.379 0.23 0.379 0.127 0 0.311 0.483 0.41 1.073 0.099 0.59 0.276 1.135 0.394 1.21 0.118 0.075 0.291 0.956 0.384 1.957 0.093 1 0.266 1.82 0.385 1.82 0.119 0 0.216 1.307 0.216 2.904 0 1.597 -0.097 2.904 -0.216 2.904 -0.119 0 -0.292 0.819 -0.385 1.82 -0.093 1 -0.274 1.885 -0.403 1.965 -0.129 0.08 -0.311 0.624 -0.404 1.21 -0.094 0.586 -0.27 1.066 -0.391 1.066 -0.121 0 -0.22 0.227 -0.22 0.505 0 0.278 -0.105 0.505 -0.232 0.505 -0.128 0 -0.307 0.341 -0.399 0.758 -0.091 0.417 -0.259 0.758 -0.371 0.758 -0.113 0 -0.276 0.284 -0.364 0.631 -0.087 0.347 -0.261 0.631 -0.386 0.631 -0.125 0 -0.3 0.331 -0.389 0.736 -0.089 0.405 -0.325 0.799 -0.525 0.876 -0.2 0.077 -0.363 0.261 -0.363 0.409 0 0.148 -0.511 0.803 -1.136 1.456 -0.625 0.652 -1.136 1.273 -1.136 1.38 0 0.246 -0.948 1.202 -1.199 1.21 -0.104 0.003 -0.628 0.401 -1.164 0.884 -0.536 0.483 -1.136 0.878 -1.334 0.878 -0.197 0 -0.42 0.16 -0.495 0.356 -0.075 0.196 -0.412 0.425 -0.75 0.51 -0.337 0.085 -0.613 0.256 -0.613 0.382 0 0.125 -0.341 0.303 -0.758 0.394 -0.417 0.092 -0.758 0.262 -0.758 0.379 0 0.117 -0.341 0.287 -0.758 0.379 -0.417 0.092 -0.758 0.266 -0.758 0.387 0 0.122 -0.398 0.296 -0.884 0.387 -0.486 0.091 -0.884 0.256 -0.884 0.367 0 0.11 -0.597 0.282 -1.326 0.381 -0.729 0.099 -1.401 0.299 -1.493 0.445 -0.174 0.275 -8.66 0.49 -10.312 0.261 z"/><path d="m 130.64 126.37 c -0.868 -0.058 -1.578 -0.198 -1.578 -0.313 0 -0.114 -0.682 -0.285 -1.515 -0.379 -0.833 -0.094 -1.515 -0.267 -1.515 -0.383 0 -0.116 -0.511 -0.288 -1.136 -0.382 -0.625 -0.094 -1.136 -0.277 -1.136 -0.407 0 -0.13 -0.121 -0.237 -0.269 -0.237 -0.148 0 -0.89 -0.284 -1.649 -0.631 -0.759 -0.347 -1.49 -0.631 -1.625 -0.631 -0.135 0 -0.245 -0.101 -0.245 -0.225 0 -0.124 -0.284 -0.296 -0.631 -0.384 -0.347 -0.087 -0.631 -0.27 -0.631 -0.406 0 -0.136 -0.172 -0.248 -0.381 -0.248 -0.21 0 -0.576 -0.227 -0.814 -0.505 -0.238 -0.278 -0.528 -0.505 -0.645 -0.505 -0.264 0 -4.221 -3.91 -4.221 -4.171 0 -0.105 -0.284 -0.453 -0.631 -0.775 -0.347 -0.322 -0.631 -0.689 -0.631 -0.815 0 -0.127 -0.339 -0.615 -0.754 -1.085 -0.414 -0.47 -0.755 -0.997 -0.758 -1.171 -0.002 -0.174 -0.109 -0.316 -0.236 -0.316 -0.128 0 -0.307 -0.341 -0.399 -0.758 -0.091 -0.417 -0.262 -0.758 -0.379 -0.758 -0.117 0 -0.293 -0.369 -0.391 -0.821 -0.098 -0.451 -0.335 -1.045 -0.525 -1.319 -0.191 -0.274 -0.347 -0.757 -0.347 -1.073 0 -0.316 -0.105 -0.575 -0.232 -0.575 -0.128 0 -0.312 -0.739 -0.408 -1.641 -0.097 -0.903 -0.276 -1.641 -0.399 -1.641 -0.123 0 -0.223 -0.852 -0.223 -1.894 0 -1.726 0.045 -1.894 0.505 -1.894 0.278 0 0.505 0.114 0.505 0.253 0 0.159 1.684 0.253 4.545 0.253 2.52 0 4.545 -0.101 4.545 -0.227 0 -0.125 0.795 -0.307 1.768 -0.404 0.972 -0.098 1.768 -0.273 1.768 -0.389 0 -0.116 0.511 -0.288 1.136 -0.382 0.625 -0.094 1.136 -0.262 1.136 -0.374 0 -0.112 0.341 -0.279 0.758 -0.37 0.417 -0.092 0.758 -0.271 0.758 -0.399 0 -0.128 0.219 -0.232 0.487 -0.232 0.268 0 0.642 -0.155 0.832 -0.345 0.19 -0.19 0.619 -0.432 0.953 -0.538 0.334 -0.106 0.763 -0.348 0.953 -0.538 0.19 -0.19 0.496 -0.345 0.679 -0.345 0.184 0 0.399 -0.17 0.479 -0.379 0.08 -0.208 0.271 -0.379 0.425 -0.379 0.154 0 0.605 -0.313 1 -0.694 0.397 -0.382 1 -0.949 1.34 -1.261 l 0.618 -0.566 l 1.071 1.01 c 0.589 0.555 1.227 1.01 1.418 1.01 0.191 0 0.348 0.104 0.348 0.232 0 0.128 0.426 0.491 0.947 0.807 0.521 0.316 1 0.658 1.076 0.758 0.071 0.1 0.44 0.261 0.821 0.356 0.381 0.096 0.692 0.266 0.692 0.379 0 0.113 0.341 0.28 0.758 0.371 0.417 0.092 0.758 0.262 0.758 0.379 0 0.117 0.341 0.287 0.758 0.379 0.417 0.092 0.758 0.261 0.758 0.377 0 0.116 0.483 0.29 1.073 0.387 0.59 0.097 1.198 0.278 1.352 0.401 0.153 0.123 0.977 0.297 1.831 0.386 0.854 0.089 1.552 0.26 1.552 0.379 0 0.119 1.989 0.217 4.419 0.217 2.431 0 4.419 -0.099 4.419 -0.22 0 -0.121 0.795 -0.298 1.768 -0.394 0.972 -0.096 1.768 -0.266 1.768 -0.379 0 -0.113 0.48 -0.282 1.066 -0.375 0.586 -0.094 1.16 -0.307 1.275 -0.474 0.115 -0.167 0.133 0.946 0.038 2.474 -0.094 1.528 -0.253 2.835 -0.353 2.904 -0.1 0.07 -0.252 0.735 -0.338 1.479 -0.086 0.744 -0.264 1.483 -0.395 1.641 -0.131 0.159 -0.318 0.715 -0.416 1.236 -0.097 0.521 -0.278 0.947 -0.401 0.947 -0.123 0 -0.224 0.17 -0.224 0.379 0 0.208 -0.101 0.379 -0.224 0.379 -0.123 0 -0.299 0.398 -0.39 0.884 -0.091 0.486 -0.272 0.884 -0.402 0.884 -0.13 0 -0.308 0.284 -0.395 0.631 -0.087 0.347 -0.26 0.631 -0.384 0.631 -0.124 0 -0.225 0.118 -0.225 0.263 0 0.333 -1.034 1.818 -1.452 2.086 -0.174 0.111 -0.316 0.325 -0.316 0.476 0 0.415 -4.34 4.658 -4.964 4.853 -0.3 0.094 -0.609 0.336 -0.687 0.539 -0.078 0.203 -0.316 0.369 -0.528 0.369 -0.213 0 -0.387 0.111 -0.387 0.248 0 0.136 -0.284 0.319 -0.631 0.406 -0.347 0.087 -0.631 0.239 -0.631 0.336 0 0.098 -0.398 0.334 -0.884 0.525 -0.486 0.191 -0.884 0.425 -0.884 0.52 0 0.095 -0.455 0.246 -1.01 0.335 -0.556 0.089 -1.01 0.261 -1.01 0.382 0 0.121 -0.511 0.298 -1.136 0.391 -0.625 0.094 -1.136 0.269 -1.136 0.389 0 0.12 -0.653 0.299 -1.452 0.397 -0.799 0.098 -1.509 0.267 -1.579 0.374 -0.155 0.239 -5.838 0.467 -8.02 0.322 z"/><path d="m 175.78 119.76 c 0 -0.121 -0.795 -0.298 -1.768 -0.394 -0.972 -0.096 -1.768 -0.268 -1.768 -0.383 0 -0.115 -0.511 -0.285 -1.136 -0.379 -0.625 -0.094 -1.136 -0.263 -1.136 -0.375 0 -0.113 -0.455 -0.277 -1.01 -0.366 -0.556 -0.089 -1.01 -0.265 -1.01 -0.391 0 -0.126 -0.341 -0.304 -0.758 -0.396 -0.417 -0.091 -0.758 -0.262 -0.758 -0.379 0 -0.117 -0.341 -0.287 -0.758 -0.379 -0.417 -0.091 -0.758 -0.263 -0.758 -0.382 0 -0.118 -0.245 -0.293 -0.544 -0.388 -0.299 -0.095 -0.795 -0.444 -1.102 -0.775 -0.307 -0.331 -0.661 -0.602 -0.788 -0.602 -0.127 0 -0.41 -0.209 -0.629 -0.465 -0.219 -0.256 -0.653 -0.644 -0.965 -0.862 -0.461 -0.323 -0.535 -0.542 -0.396 -1.176 0.094 -0.429 0.271 -0.779 0.392 -0.779 0.122 0 0.296 -0.398 0.387 -0.884 0.091 -0.486 0.26 -0.884 0.375 -0.884 0.115 0 0.289 -0.54 0.386 -1.2 0.097 -0.66 0.271 -1.261 0.385 -1.335 0.115 -0.075 0.286 -1.239 0.381 -2.588 0.095 -1.349 0.269 -2.453 0.388 -2.453 0.118 0 0.215 -0.843 0.215 -1.874 v -1.874 l 0.758 -0.166 c 0.417 -0.092 0.758 -0.271 0.758 -0.399 0 -0.128 0.174 -0.232 0.387 -0.232 0.213 0 0.448 -0.16 0.523 -0.356 0.075 -0.196 0.412 -0.425 0.75 -0.51 0.337 -0.085 0.613 -0.265 0.613 -0.402 0 -0.136 0.162 -0.248 0.359 -0.248 0.198 0 0.7 -0.341 1.117 -0.758 0.417 -0.417 0.87 -0.758 1.01 -0.758 0.325 0 2.817 -2.545 2.83 -2.891 0.006 -0.146 0.347 -0.545 0.758 -0.885 0.411 -0.341 0.747 -0.767 0.747 -0.947 0 -0.18 0.111 -0.328 0.248 -0.328 0.136 0 0.319 -0.284 0.406 -0.631 0.087 -0.347 0.26 -0.631 0.384 -0.631 0.124 0 0.225 -0.17 0.225 -0.379 0 -0.208 0.102 -0.379 0.227 -0.379 0.311 0 1.288 -1.921 1.288 -2.533 0 -0.274 0.108 -0.497 0.241 -0.497 0.133 0 0.316 -0.398 0.407 -0.884 0.091 -0.486 0.259 -0.884 0.372 -0.884 0.113 0 0.287 -0.653 0.385 -1.452 0.098 -0.799 0.305 -1.533 0.46 -1.632 0.401 -0.257 0.393 -11.01 -0.009 -11.256 -0.16 -0.099 -0.371 -0.834 -0.471 -1.632 -0.1 -0.799 -0.282 -1.452 -0.404 -1.452 -0.123 0 -0.223 -0.227 -0.223 -0.505 0 -0.477 0.168 -0.505 3.03 -0.505 1.852 0 3.03 0.098 3.03 0.253 0 0.139 0.347 0.253 0.772 0.253 1.215 0 4.278 0.558 4.278 0.779 0 0.11 0.511 0.277 1.136 0.37 0.625 0.094 1.136 0.262 1.136 0.374 0 0.112 0.341 0.279 0.758 0.37 0.417 0.092 0.758 0.262 0.758 0.379 0 0.117 0.341 0.287 0.758 0.379 0.417 0.092 0.758 0.269 0.758 0.394 0 0.125 0.284 0.299 0.631 0.386 0.347 0.087 0.631 0.26 0.631 0.384 0 0.124 0.174 0.225 0.387 0.225 0.213 0 0.452 0.17 0.532 0.379 0.08 0.208 0.298 0.379 0.485 0.379 0.187 0 0.726 0.398 1.198 0.884 0.472 0.486 0.937 0.884 1.033 0.884 0.348 0 2.931 2.43 2.931 2.758 0 0.128 0.319 0.555 0.709 0.947 0.39 0.393 0.784 0.913 0.876 1.156 0.092 0.243 0.272 0.442 0.4 0.442 0.128 0 0.304 0.284 0.392 0.631 0.087 0.347 0.261 0.631 0.386 0.631 0.125 0 0.303 0.341 0.394 0.758 0.091 0.417 0.269 0.758 0.394 0.758 0.125 0 0.299 0.284 0.386 0.631 0.087 0.347 0.251 0.631 0.364 0.631 0.113 0 0.282 0.349 0.375 0.775 0.094 0.426 0.329 1.079 0.524 1.452 0.194 0.373 0.354 0.926 0.355 1.231 0.001 0.304 0.115 0.624 0.254 0.709 0.139 0.086 0.253 0.367 0.253 0.625 0 0.258 0.142 0.516 0.316 0.574 0.241 0.08 0.316 1.559 0.316 6.25 0 4.691 -0.075 6.17 -0.316 6.25 -0.174 0.058 -0.316 0.437 -0.316 0.842 0 0.405 -0.101 0.737 -0.224 0.737 -0.123 0 -0.301 0.511 -0.394 1.136 -0.094 0.625 -0.277 1.136 -0.407 1.136 -0.13 0 -0.237 0.132 -0.237 0.293 0 0.388 -1.806 4.03 -2.21 4.46 -0.174 0.184 -0.316 0.484 -0.316 0.667 0 0.184 -0.17 0.399 -0.379 0.479 -0.208 0.08 -0.379 0.268 -0.379 0.418 0 0.15 -0.284 0.536 -0.631 0.858 -0.347 0.322 -0.631 0.674 -0.631 0.783 0 0.294 -3.039 3.183 -4.114 3.911 -0.513 0.347 -0.934 0.717 -0.935 0.821 -0.001 0.104 -0.176 0.189 -0.388 0.189 -0.213 0 -0.452 0.17 -0.532 0.379 -0.08 0.208 -0.296 0.379 -0.479 0.379 -0.184 0 -0.484 0.142 -0.667 0.316 -0.408 0.386 -4.065 2.21 -4.431 2.21 -0.145 0 -0.589 0.17 -0.987 0.377 -0.398 0.207 -0.956 0.378 -1.241 0.379 -0.285 0.001 -0.641 0.125 -0.792 0.275 -0.151 0.151 -0.969 0.337 -1.818 0.414 -0.849 0.077 -1.544 0.238 -1.544 0.357 0 0.12 -1.875 0.217 -4.167 0.217 -2.292 0 -4.167 -0.099 -4.167 -0.22 z"/><path d="m 129.57 155.37 c 0 -0.117 -3.77 -0.284 -8.377 -0.371 -4.607 -0.088 -8.442 -0.261 -8.523 -0.385 -0.08 -0.124 -1.737 -0.309 -3.681 -0.41 -1.944 -0.101 -3.592 -0.273 -3.662 -0.381 -0.07 -0.108 -1.234 -0.278 -2.589 -0.379 -1.354 -0.1 -2.462 -0.263 -2.462 -0.361 0 -0.098 -1.275 -0.32 -2.833 -0.493 -1.558 -0.173 -2.894 -0.41 -2.967 -0.525 -0.074 -0.116 -0.73 -0.291 -1.46 -0.391 -0.729 -0.099 -1.326 -0.277 -1.326 -0.394 0 -0.117 -0.511 -0.29 -1.136 -0.384 -0.625 -0.094 -1.136 -0.262 -1.136 -0.374 0 -0.112 -0.341 -0.279 -0.758 -0.37 -0.417 -0.091 -0.758 -0.259 -0.758 -0.371 0 -0.113 -0.286 -0.277 -0.635 -0.365 -0.774 -0.194 -1.638 -0.901 -1.638 -1.34 0 -0.177 -0.114 -0.323 -0.253 -0.323 -0.139 0 -0.253 -0.341 -0.253 -0.758 0 -0.417 0.1 -0.758 0.223 -0.758 0.123 0 0.283 -0.227 0.355 -0.505 0.076 -0.291 0.344 -0.505 0.634 -0.505 0.276 0 0.567 -0.17 0.647 -0.379 0.08 -0.208 0.319 -0.379 0.532 -0.379 0.213 0 0.387 -0.112 0.387 -0.25 0 -0.137 0.455 -0.322 1.01 -0.411 0.556 -0.089 1.01 -0.257 1.01 -0.373 0 -0.116 0.568 -0.287 1.263 -0.379 0.694 -0.092 1.263 -0.255 1.263 -0.361 0 -0.107 0.909 -0.274 2.02 -0.373 1.111 -0.098 2.02 -0.281 2.02 -0.405 0 -0.124 0.483 -0.207 1.073 -0.184 l 1.073 0.042 l -0.947 0.099 c -0.521 0.054 -0.947 0.197 -0.947 0.316 0 0.119 -0.739 0.296 -1.641 0.393 -0.903 0.097 -1.641 0.262 -1.641 0.366 0 0.105 -0.568 0.266 -1.263 0.358 -0.694 0.092 -1.263 0.263 -1.263 0.379 0 0.116 -0.455 0.284 -1.01 0.373 -0.556 0.089 -1.01 0.261 -1.01 0.384 0 0.122 -0.282 0.293 -0.626 0.379 -0.863 0.217 -2.152 1.532 -2.152 2.195 0 0.586 0.867 1.49 1.428 1.49 0.187 0 0.34 0.108 0.34 0.241 0 0.133 0.398 0.316 0.884 0.407 0.486 0.091 0.884 0.254 0.884 0.362 0 0.108 0.511 0.272 1.136 0.366 0.625 0.094 1.136 0.262 1.136 0.375 0 0.112 0.795 0.283 1.768 0.379 0.972 0.096 1.768 0.269 1.768 0.385 0 0.116 1.023 0.291 2.273 0.39 1.25 0.099 2.273 0.268 2.273 0.375 0 0.107 1.449 0.278 3.22 0.38 1.771 0.102 3.277 0.272 3.346 0.378 0.623 0.954 50.36 0.962 51.01 0.008 0.069 -0.101 1.431 -0.265 3.03 -0.364 1.595 -0.099 2.959 -0.27 3.03 -0.379 0.072 -0.109 1.151 -0.28 2.399 -0.379 1.248 -0.099 2.327 -0.273 2.399 -0.385 0.071 -0.112 0.84 -0.286 1.708 -0.386 0.868 -0.1 1.578 -0.271 1.578 -0.38 0 -0.109 0.625 -0.277 1.389 -0.372 0.764 -0.095 1.389 -0.27 1.389 -0.388 0 -0.118 0.341 -0.289 0.758 -0.381 0.417 -0.091 0.758 -0.271 0.758 -0.399 0 -0.128 0.154 -0.232 0.342 -0.232 0.483 0 1.678 -1.161 1.678 -1.629 0 -0.215 -0.1 -0.391 -0.223 -0.391 -0.123 0 -0.282 -0.227 -0.355 -0.505 -0.073 -0.278 -0.313 -0.505 -0.535 -0.505 -0.221 0 -0.402 -0.108 -0.402 -0.241 0 -0.133 -0.398 -0.316 -0.884 -0.407 -0.486 -0.091 -0.884 -0.262 -0.884 -0.379 0 -0.117 -0.398 -0.288 -0.884 -0.379 c -0.486 -0.092 -0.884 -0.259 -0.884 -0.372 c 0 -0.113 -0.625 -0.284 -1.389 -0.38 -0.764 -0.095 -1.389 -0.263 -1.389 -0.372 0 -0.109 -0.682 -0.278 -1.515 -0.374 -0.833 -0.097 -1.515 -0.261 -1.515 -0.365 0 -0.104 -0.881 -0.311 -1.957 -0.46 l -1.957 -0.271 l 2.399 0.13 c 1.319 0.071 2.456 0.218 2.525 0.325 0.07 0.107 0.893 0.276 1.831 0.375 0.938 0.099 1.705 0.27 1.705 0.38 0 0.11 0.568 0.275 1.263 0.367 0.694 0.092 1.263 0.263 1.263 0.379 0 0.116 0.455 0.284 1.01 0.373 0.556 0.089 1.01 0.274 1.01 0.411 0 0.137 0.162 0.25 0.361 0.25 0.198 0 0.511 0.148 0.694 0.33 0.184 0.181 0.533 0.405 0.776 0.497 0.243 0.092 0.442 0.341 0.442 0.554 0 0.213 0.114 0.387 0.253 0.387 0.139 0 0.253 0.341 0.253 0.758 0 0.417 -0.114 0.758 -0.253 0.758 -0.139 0 -0.253 0.174 -0.253 0.387 0 0.213 -0.199 0.462 -0.442 0.554 -0.243 0.092 -0.592 0.316 -0.776 0.497 -0.184 0.181 -0.496 0.33 -0.694 0.33 -0.198 0 -0.361 0.105 -0.361 0.232 0 0.128 -0.341 0.307 -0.758 0.399 -0.417 0.091 -0.758 0.258 -0.758 0.37 0 0.112 -0.511 0.28 -1.136 0.374 -0.625 0.094 -1.136 0.266 -1.136 0.384 0 0.117 -0.597 0.295 -1.326 0.394 -0.729 0.099 -1.386 0.275 -1.46 0.391 -0.074 0.116 -1.409 0.352 -2.967 0.525 -1.558 0.173 -2.833 0.397 -2.833 0.497 0 0.1 -1.136 0.262 -2.525 0.361 -1.389 0.099 -2.525 0.266 -2.525 0.373 0 0.107 -1.563 0.277 -3.472 0.378 -1.91 0.101 -3.537 0.285 -3.616 0.408 -0.079 0.123 -3.919 0.298 -8.533 0.388 -4.614 0.09 -8.449 0.259 -8.52 0.375 -0.171 0.277 -5.151 0.276 -5.151 0 z"/></g><path d="m 95.15 198.32 c 0.093 -0.243 0.262 -0.556 0.376 -0.694 0.114 -0.139 0.432 -0.526 0.707 -0.859 0.275 -0.334 0.5 -0.748 0.5 -0.92 0 -0.172 0.17 -0.379 0.379 -0.458 0.208 -0.08 0.379 -0.319 0.379 -0.532 0 -0.213 0.101 -0.387 0.225 -0.387 0.124 0 0.296 -0.284 0.384 -0.631 0.087 -0.347 0.261 -0.631 0.386 -0.631 0.125 0 0.303 -0.341 0.394 -0.758 0.092 -0.417 0.262 -0.758 0.379 -0.758 0.117 0 0.287 -0.341 0.379 -0.758 0.092 -0.417 0.262 -0.758 0.379 -0.758 0.117 0 0.287 -0.341 0.379 -0.758 0.091 -0.417 0.262 -0.758 0.379 -0.758 0.117 0 0.287 -0.341 0.379 -0.758 0.091 -0.417 0.262 -0.758 0.379 -0.758 0.117 0 0.287 -0.341 0.379 -0.758 0.091 -0.417 0.271 -0.758 0.399 -0.758 0.128 0 0.232 -0.17 0.232 -0.379 0 -0.208 0.101 -0.379 0.224 -0.379 0.123 0 0.299 -0.398 0.39 -0.884 0.091 -0.486 0.262 -0.884 0.379 -0.884 0.117 0 0.288 -0.398 0.379 -0.884 0.091 -0.486 0.261 -0.884 0.378 -0.884 0.117 0 0.289 -0.511 0.383 -1.136 0.094 -0.625 0.264 -1.136 0.379 -1.136 0.115 0 0.285 -0.511 0.379 -1.136 0.094 -0.625 0.269 -1.136 0.389 -1.136 0.12 0 0.297 -0.625 0.392 -1.389 0.095 -0.764 0.263 -1.389 0.372 -1.389 0.109 0 0.278 -0.682 0.374 -1.515 0.097 -0.833 0.265 -1.515 0.374 -1.515 0.109 0 0.28 -0.767 0.38 -1.705 0.1 -0.938 0.277 -1.764 0.393 -1.836 0.116 -0.072 0.291 -1.294 0.389 -2.715 0.098 -1.421 0.275 -2.583 0.394 -2.583 0.119 0 0.216 -0.949 0.216 -2.109 0 -1.16 0.073 -2.808 0.162 -3.662 l 0.162 -1.552 h 2.089 c 1.447 0 2.122 0.097 2.195 0.316 0.083 0.249 3.997 0.316 18.443 0.316 14.333 0 18.406 -0.069 18.653 -0.316 0.178 -0.178 0.937 -0.316 1.74 -0.316 h 1.425 l 0.162 4.844 c 0.089 2.664 0.265 4.908 0.392 4.987 0.126 0.079 0.312 1.138 0.413 2.353 0.101 1.215 0.272 2.21 0.381 2.21 0.109 0 0.277 0.682 0.374 1.515 0.097 0.833 0.267 1.515 0.379 1.515 0.112 0 0.282 0.682 0.379 1.515 0.097 0.833 0.271 1.515 0.388 1.515 0.117 0 0.289 0.511 0.383 1.136 0.094 0.625 0.256 1.136 0.361 1.136 0.105 0 0.254 0.471 0.331 1.047 0.077 0.576 0.252 1.116 0.389 1.2 0.137 0.084 0.333 0.608 0.436 1.163 0.103 0.555 0.381 1.18 0.616 1.388 0.236 0.208 0.508 0.805 0.605 1.326 0.097 0.521 0.279 0.947 0.406 0.947 0.126 0 0.304 0.398 0.395 0.884 0.091 0.486 0.258 0.884 0.37 0.884 0.112 0 0.279 0.341 0.371 0.758 0.091 0.417 0.262 0.758 0.379 0.758 0.117 0 0.287 0.341 0.379 0.758 0.091 0.417 0.262 0.758 0.379 0.758 0.117 0 0.287 0.341 0.379 0.758 0.091 0.417 0.259 0.758 0.371 0.758 0.113 0 0.276 0.284 0.364 0.631 0.087 0.347 0.261 0.631 0.386 0.631 0.125 0 0.303 0.341 0.394 0.758 0.091 0.417 0.271 0.758 0.399 0.758 0.128 0 0.232 0.174 0.232 0.387 0 0.213 0.16 0.448 0.356 0.523 0.196 0.075 0.425 0.412 0.51 0.75 0.085 0.337 0.265 0.613 0.402 0.613 0.136 0 0.248 0.169 0.248 0.377 0 0.207 0.341 0.702 0.758 1.101 0.417 0.398 0.758 0.854 0.758 1.012 0 0.215 -9.341 0.288 -36.608 0.288 -34.761 0 -36.6 -0.022 -36.439 -0.442 z" style="fill:#ffdead"/></g></g></svg>