<svg xmlns="http://www.w3.org/2000/svg" viewBox="0 0 256 256"><g transform="translate(0 -796.36)"><path d="m 124.4 796.6 c -12.627 1.365 -26.716 5.548 -39.29 11.664 -42.41 20.634 -74.826 63.733 -83.7 111.27 -2.025 10.857 -1.855 33.686 0.327 43.874 5.306 24.771 17.1 44.45 36.94 61.64 13.638 11.818 31.81 20.484 49.39 23.557 39.912 6.976 85.83 -8.941 120.48 -41.766 31.837 -30.16 48.545 -70.36 44.1 -106.1 -2.263 -18.19 -7.953 -33.21 -18.832 -49.715 -16.938 -25.701 -47.15 -46.04 -78.35 -52.75 -6.673 -1.435 -24.446 -2.396 -31.07 -1.68 z m 27.3 118.29 c -23.424 34.612 10.696 -6.238 11.506 -5.153 1.434 1.92 28.347 -28.27 28.54 5.781 0.223 39.39 0.348 38.36 -5.079 41.947 l -2.872 1.901 -59.34 0 -59.34 0 -2.527 -1.572 c -1.39 -0.865 -3.319 -2.954 -4.286 -4.643 l -1.759 -3.071 -0.236 -30.714 c -0.13 -16.893 38.663 10.605 38.917 8.562 0.533 -4.291 -5.915 -21.493 -10.08 -21.316 l -12.08 0.513 49.614 3.415 c 59.02 4.062 38.572 -2.26 40.523 -0.803 z" fill="#fff"/><path d="m 114.7 960.79 c -6.268 -2.515 -11.395 -7.06 -26.411 -23.388 -7.765 -8.447 -18.356 -19.942 -23.535 -25.545 -8.584 -9.288 -9.416 -10.448 -9.416 -13.13 0 -3.57 3.529 -9.701 6.919 -12.02 2.249 -1.538 4.472 -1.595 63.09 -1.598 l 60.757 -0.003 3.03 2.464 c 3.509 2.851 4.364 4.375 5.01 8.938 0.454 3.186 0.325 3.46 -3.491 7.368 -2.179 2.232 -12.634 13.607 -23.23 25.278 -26.624 29.32 -30.486 32.33 -42.15 32.888 -5.198 0.249 -7.519 -0.026 -10.572 -1.251 z" fill="#ff7f50"/><path d="m 62.26 974.19 c -1.364 -0.688 -3.362 -2.6 -4.44 -4.25 l -1.96 -2.999 -0.222 -32.582 c -0.122 -17.92 -0.026 -33.1 0.212 -33.728 0.31 -0.817 7.167 5.641 23.902 22.511 23.411 23.599 28.1 27.614 35.32 30.23 4.848 1.759 14.287 1.79 19.04 0.063 8.351 -3.038 12.308 -6.359 36.668 -30.776 l 23.894 -23.949 -0.214 34.433 c -0.2 32.19 -0.304 34.585 -1.609 36.768 -0.767 1.284 -2.432 2.97 -3.7 3.747 -2.202 1.35 -5.03 1.421 -63.36 1.597 -55.757 0.168 -61.27 0.076 -63.53 -1.067 l 0 0 z" fill="#ff4500"/></g></svg>