<svg xmlns="http://www.w3.org/2000/svg" viewBox="0 0 256 256" xmlns:xlink="http://www.w3.org/1999/xlink"><defs><clipPath id="0"><path transform="matrix(15.33333 0 0 11.5 415 -125.5)" d="m -24 13 c 0 1.105 -0.672 2 -1.5 2 -0.828 0 -1.5 -0.895 -1.5 -2 0 -1.105 0.672 -2 1.5 -2 0.828 0 1.5 0.895 1.5 2 z"/></clipPath></defs><g transform="translate(0 -796.36)"><path d="m -1374.42 1658.71 c 127.95 -192.46 -280.09 -311 -226.07 -62.2 23.02 102.82 167.39 165.22 226.07 62.2 z" color="#000" transform="matrix(0 1 -1 0 1711.48 2401.81)" fill="#fff"/><g transform="matrix(2.84583 0 0 3.0244 62.695 853.54)" fill="#ff4500"><path d="m 4 4 h 40 v 40 h -40 z"/><g clip-path="url(#0)" transform="matrix(1 0 0 0.78261 0 5.217)"><g opacity="0.1" transform="translate(1 1)"><path d="m 22 38 h 4 v 10 h -4 m 0 -10" id="1"/><path d="m 22 19 h 4 v 10 h -4 m 0 -10" id="2"/><path d="m 22,0 4,0 0,10 -4,0 M 22,0" id="3"/></g></g><g clip-path="url(#0)" transform="matrix(1 0 0 0.78261 0 5.217)" fill="#ffdead"><g><use xlink:href="#1"/><use xlink:href="#2"/><use xlink:href="#3"/></g></g></g></g></svg>