<svg xmlns="http://www.w3.org/2000/svg" viewBox="0 0 256 256"><path d="m 253.7918 130.2618 c 22.351 111.92 -130.95 154.42 -214.199996 105.92 -66.33 -38.644 -47.3700004 -171.019996 42.17 -220.369996 89.539996 -49.35 154.089996 24.617 172.029996 114.449996 z" style="fill:#fff;color:#000"/><g transform="matrix(1.1036685 0 0 1.1116431 -10.605277 -4.0829417)"><path d="m 96.642382,183 c -1.398423,-1.1 -3.654009,-2 -5.012414,-2 -2.892365,0 -4.172937,-1.36905 -5.14455,-5.5 -1.663492,-7.07257 -4.875862,-8.94464 -10.424727,-6.07521 -2.485791,1.28545 -3.06771,1.22695 -5.95034,-0.5982 -3.826576,-2.42282 -3.932484,-3.43856 -0.801075,-7.68295 2.06673,-2.80129 2.251072,-3.6823 1.348387,-6.44428 -0.575099,-1.75965 -1.188286,-3.76186 -1.362638,-4.44936 -0.607406,-2.39511 -2.033423,-1.22469 -2.953407,2.42405 -0.509501,2.02073 -1.488865,3.85823 -2.176365,4.08333 -0.96384,0.31559 -1.25,-3.1391 -1.25,-15.09071 0,-9.8761 0.37865,-15.62622 1.043594,-15.84787 1.513946,-0.50465 1.67147,-9.08045 0.17595,-9.57895 -0.738909,-0.24631 -1.219544,-2.34422 -1.219544,-5.32318 l 0,-4.91667 3.5,0 c 1.925,0 3.5,-0.43434 3.5,-0.9652 0,-0.53087 1.351485,-2.50446 3.0033,-4.38578 1.651814,-1.88131 3.669996,-5.016197 4.484848,-6.966412 0.814852,-1.950215 1.938367,-3.828175 2.496701,-4.173244 C 81.669746,88.415663 81.020867,84.12689 78.915253,83 c -1.144352,-0.612439 -2,-2.093823 -2,-3.462604 0,-2.94065 4.660256,-6.859504 7.327717,-6.161947 1.046506,0.273667 2.638386,0.128648 3.537511,-0.322265 6.977961,-3.499461 7.28838,-3.563598 8.595533,-1.775959 1.221637,1.670688 5.709986,2.483613 5.370926,0.972775 -0.0926,-0.4125 0.1825,-2.4375 0.61129,-4.5 0.70818,-3.406427 1.07809,-3.75 4.03747,-3.75 2.97494,0 3.3094,0.317524 3.85119,3.656204 0.75314,4.641044 0.28179,5.336826 -3.64065,5.374205 -2.73483,0.02606 -2.93021,0.182054 -1.36678,1.09122 1.38637,0.8062 2.99097,0.558886 6.68538,-1.030409 C 114.64189,71.922377 118.93166,71 121.65063,71 c 2.67555,0 5.41918,-0.55456 6.09698,-1.232356 2.4356,-2.435602 9.36691,-3.430757 13.35041,-1.91677 4.241,1.61185 8.00605,0.960312 10.84267,-1.87631 C 153.13052,64.784737 155.26315,64 157.30684,64 c 2.77056,0 3.50484,0.451214 4.01006,2.464164 0.44843,1.786685 1.6467,2.742904 4.35841,3.47801 2.63248,0.713629 4.77635,2.371402 7.23994,5.598359 1.925,2.521482 4.9625,6.116378 6.75,7.988657 1.7875,1.872279 3.25,3.79746 3.25,4.278181 0,0.823267 2.45626,12.602399 5.67038,27.192629 0.78754,3.575 1.68501,7.73782 1.99436,9.25071 0.33214,1.62431 -0.1385,4.2279 -1.14932,6.35803 -2.0677,4.35735 -1.88677,20.43414 0.23793,21.14238 1.52125,0.50708 1.677,5.24888 0.17241,5.24888 -2.10434,0 -12.81414,11.12729 -12.21431,12.69044 0.74692,1.94644 -1.62824,3.42446 -3.71145,2.30956 -2.39147,-1.27988 -3.87374,0.12535 -5.28923,5.01434 -1.21727,4.20434 -1.51393,4.45749 -7.24002,6.17805 -5.10604,1.53424 -7.09942,1.64246 -13.76414,0.74722 -4.28636,-0.57576 -8.59976,-0.79091 -9.58532,-0.4781 -4.38795,1.39268 -21.68504,1.29484 -25.28091,-0.14301 -3.25139,-1.3001 -3.99881,-1.28793 -6.70034,0.10908 -4.03694,2.08759 -6.348903,1.98257 -9.412908,-0.42758 z M 110.80418,134.20755 C 112.25292,131.50056 103.15613,111 100.5062,111 c -3.281729,0 -3.59575,12.39447 -0.42095,16.61514 6.2226,8.27251 8.92896,9.93699 10.71893,6.59241 z M 115.36382,107.25 c -0.76551,-6.33019 -1.80071,-8.25 -4.44857,-8.25 -2.94491,0 -4.4729,2.66666 -3.16846,5.52961 0.61907,1.35872 1.57368,2.47039 2.12134,2.47039 0.54767,0 1.69388,1.35 2.54712,3 2.51199,4.85764 3.73107,3.72066 2.94857,-2.75 z" style="fill:#8a0000"/><path d="m 116.96959,182 c -0.41521,-0.275 -1.28813,-1.5125 -1.93982,-2.75 -0.65168,-1.2375 -1.7752,-2.25 -2.49669,-2.25 -0.72149,0 -2.34952,-0.9 -3.61783,-2 -1.5326,-1.32922 -3.74136,-2 -6.58562,-2 -3.409123,0 -4.409424,-0.40903 -4.917858,-2.01097 -0.351041,-1.10603 -1.87664,-2.65136 -3.39022,-3.43406 -1.513581,-0.7827 -3.297723,-2.0807 -3.96476,-2.88443 -0.667038,-0.80373 -2.787017,-1.75665 -4.711064,-2.11761 -3.94016,-0.73917 -9.671789,-6.25738 -11.480422,-11.05293 -0.622294,-1.65 -2.065388,-4.99898 -3.206876,-7.44217 -1.835003,-3.92756 -1.94729,-5.05308 -0.969286,-9.71575 0.72587,-3.4606 0.782982,-6.40038 0.166127,-8.55123 -0.51701,-1.8027 -0.940018,-5.19312 -0.940018,-7.53425 0,-4.06289 -0.136525,-4.2566 -3,-4.2566 -2.779072,0 -3,-0.26573 -3,-3.60841 0,-3.44585 0.123887,-3.57569 2.75,-2.88211 1.5125,0.39946 3.261341,0.78574 3.886314,0.85841 C 70.65284,108.49593 81.952204,92.593125 84.84572,86.842792 85.669043,85.206588 87.089055,84 88.19135,84 c 1.053339,0 3.109629,-0.807312 4.569533,-1.794026 2.569731,-1.73682 8.627617,-3.653571 16.433057,-5.199512 2.07827,-0.411622 4.66019,-1.546156 5.73758,-2.521187 1.61161,-1.458481 3.0274,-1.661102 7.98566,-1.142863 4.41579,0.461543 7.10331,0.199166 10.05428,-0.981579 2.5034,-1.001661 5.64677,-1.428988 8.30637,-1.129213 2.35335,0.265258 6.92521,0.123165 10.15967,-0.315761 9.92353,-1.346652 16.85436,2.919081 25.86226,15.917494 2.53276,3.654775 5.25878,12.537128 9.87201,32.166647 1.31507,5.59568 1.33393,6.87569 0.13554,9.20034 -1.94588,3.77465 -1.80898,16.7172 0.23075,21.81498 1.52125,3.80199 1.51155,4.17873 -0.15499,6.02024 -1.13169,1.2505 -3.08433,1.97 -5.37281,1.97975 -4.28961,0.0183 -5.25348,0.61467 -6.84393,4.23469 -0.66451,1.5125 -1.65366,2.75 -2.1981,2.75 -1.36362,0 -9.05298,10.55908 -9.05298,12.43162 0,0.83436 -1.43879,2.26105 -3.19731,3.17042 -2.63232,1.36122 -6.71351,1.675 -23.09537,1.77568 C 126.67865,182.44497 117.38481,182.275 116.96959,182 z m -10.05434,-34 c 0,-0.55 -0.47656,-1 -1.05901,-1 -0.58246,0 -0.78091,0.45 -0.44099,1 0.33992,0.55 0.81648,1 1.05902,1 0.24254,0 0.44098,-0.45 0.44098,-1 z m 3.88893,-13.79245 C 112.25292,131.50056 103.15613,111 100.5062,111 c -3.281729,0 -3.59575,12.39447 -0.42095,16.61514 6.2226,8.27251 8.92896,9.93699 10.71893,6.59241 z M 115.36382,107.25 c -0.76551,-6.33019 -1.80071,-8.25 -4.44857,-8.25 -2.94491,0 -4.4729,2.66666 -3.16846,5.52961 0.61907,1.35872 1.57368,2.47039 2.12134,2.47039 0.54767,0 1.69388,1.35 2.54712,3 2.51199,4.85764 3.73107,3.72066 2.94857,-2.75 z m -28.184175,66.22263 c -2.660768,-1.86367 -1.920334,-4.70828 1.112886,-4.2755 1.476675,0.21069 2.219025,1.13983 2.439144,3.05287 0.360035,3.12903 -0.438063,3.40374 -3.55203,1.22263 z m 86.985605,-1.20327 c -0.6875,-0.23982 -1.25,-1.02538 -1.25,-1.7457 0,-1.50861 1.92571,-2.42937 3.75,-1.79302 0.6875,0.23982 1.25,1.02538 1.25,1.7457 0,1.50861 -1.92571,2.42937 -3.75,1.79302 z M 68.295255,165.54789 C 67.598639,163.73253 68.610467,162 70.367281,162 c 1.515957,0 2.840011,2.71845 1.992199,4.09024 -0.874065,1.41427 -3.445053,1.07118 -4.064225,-0.54235 z M 85.38818,80.956195 c -0.354809,-0.574093 -0.199485,-1.586593 0.345165,-2.25 C 86.277994,78.042788 86.879235,76.375 87.069435,75 c 0.276951,-2.002148 0.994395,-2.562505 3.602693,-2.813871 2.293099,-0.220991 3.442122,0.168873 3.882876,1.31746 1.591949,4.148552 -6.927938,11.0752 -9.166824,7.452606 z" style="fill:#bf0000"/><path d="m 116.96959,182 c -0.41521,-0.275 -1.28813,-1.5125 -1.93982,-2.75 -0.65168,-1.2375 -1.7752,-2.25 -2.49669,-2.25 -0.72149,0 -2.34952,-0.9 -3.61783,-2 -1.5326,-1.32922 -3.74136,-2 -6.58562,-2 -3.409123,0 -4.409424,-0.40903 -4.917858,-2.01097 -0.351041,-1.10603 -1.87664,-2.65136 -3.39022,-3.43406 -1.513581,-0.7827 -3.297723,-2.0807 -3.96476,-2.88443 -0.667038,-0.80373 -2.787017,-1.75665 -4.711064,-2.11761 -3.94016,-0.73917 -9.671789,-6.25738 -11.480422,-11.05293 -0.622294,-1.65 -2.065388,-4.99898 -3.206876,-7.44217 -1.835003,-3.92756 -1.94729,-5.05308 -0.969286,-9.71575 0.72587,-3.4606 0.782982,-6.40038 0.166127,-8.55123 -0.51701,-1.8027 -0.940018,-5.19312 -0.940018,-7.53425 0,-4.06289 -0.136525,-4.2566 -3,-4.2566 -2.779072,0 -3,-0.26573 -3,-3.60841 0,-3.44585 0.123887,-3.57569 2.75,-2.88211 1.5125,0.39946 3.261341,0.78574 3.886314,0.85841 C 70.65284,108.49593 81.952204,92.593125 84.84572,86.842792 85.669043,85.206588 87.089055,84 88.19135,84 c 1.053339,0 3.109629,-0.807312 4.569533,-1.794026 2.569731,-1.73682 8.627617,-3.653571 16.433057,-5.199512 2.07827,-0.411622 4.66019,-1.546156 5.73758,-2.521187 1.61161,-1.458481 3.0274,-1.661102 7.98566,-1.142863 4.41579,0.461543 7.10331,0.199166 10.05428,-0.981579 2.5034,-1.001661 5.64677,-1.428988 8.30637,-1.129213 2.35335,0.265258 6.92521,0.123165 10.15967,-0.315761 9.92353,-1.346652 16.85436,2.919081 25.86226,15.917494 2.53276,3.654775 5.25878,12.537128 9.87201,32.166647 1.31507,5.59568 1.33393,6.87569 0.13554,9.20034 -1.94588,3.77465 -1.80898,16.7172 0.23075,21.81498 1.52125,3.80199 1.51155,4.17873 -0.15499,6.02024 -1.13169,1.2505 -3.08433,1.97 -5.37281,1.97975 -4.28961,0.0183 -5.25348,0.61467 -6.84393,4.23469 -0.66451,1.5125 -1.65366,2.75 -2.1981,2.75 -1.36362,0 -9.05298,10.55908 -9.05298,12.43162 0,0.83436 -1.43879,2.26105 -3.19731,3.17042 -2.63232,1.36122 -6.71351,1.675 -23.09537,1.77568 C 126.67865,182.44497 117.38481,182.275 116.96959,182 z m 19.43754,-6.98686 c 0.33546,-0.54277 3.17451,-1.72639 6.30902,-2.63026 7.52226,-2.16912 15.49023,-7.54492 20.41211,-13.77157 4.79807,-6.07002 3.38098,-7.29264 -2.25425,-1.9449 C 156.86488,160.471 149.49217,165 147.30784,165 c -2.07402,0 -10.85514,4.20534 -13.14259,6.29408 -1.2375,1.13 -2.25,2.65111 -2.25,3.38023 0,1.53411 3.58598,1.8046 4.49188,0.33883 z m -17.08547,-0.8617 c 1.59004,-2.57274 -8.33163,-7.55176 -11.34152,-5.69154 -2.00102,1.2367 -1.06857,3.50121 1.68511,4.09238 1.5125,0.32472 3.65,0.97784 4.75,1.45138 2.64275,1.13768 4.26443,1.18652 4.90641,0.14778 z M 106.91525,148 c 0,-0.55 -0.47656,-1 -1.05901,-1 -0.58246,0 -0.78091,0.45 -0.44099,1 0.33992,0.55 0.81648,1 1.05902,1 0.24254,0 0.44098,-0.45 0.44098,-1 z m 15.19964,-4.75 c 0.27319,-7.86825 0.11666,-10.98336 -0.65263,-12.98811 -0.56162,-1.46355 -0.78682,-1.49677 -1.58549,-0.23386 -0.51199,0.80958 -0.93778,2.63973 -0.9462,4.06698 -0.008,1.42726 -0.91532,3.4095 -2.01532,4.40499 -3.65673,3.3093 -1.49611,10.5 3.15499,10.5 1.55629,0 1.87626,-0.89981 2.04465,-5.75 z m -39.199637,2.30902 c 0,-2.66793 -1.487336,-4.19754 -2.495449,-2.56638 -0.81265,1.31489 0.339797,5.00736 1.562837,5.00736 0.512936,0 0.932612,-1.09844 0.932612,-2.44098 z m 65.856647,-0.88304 c 0.74616,-0.60384 2.32116,-1.56546 3.5,-2.13694 1.17885,-0.57147 3.71835,-4.17837 5.64335,-8.01534 4.69174,-9.3517 4.87353,-15.95872 0.56291,-20.45804 C 156.25224,111.7423 154.65819,111 151.89483,111 c -2.00544,0 -3.8811,0.23485 -4.16814,0.52189 -0.28704,0.28704 -0.0481,2.29713 0.53108,4.46687 0.89958,3.37027 0.71154,4.78745 -1.29079,9.72811 -1.28908,3.18072 -3.17807,6.71213 -4.19775,7.84758 -1.01969,1.13545 -1.85398,2.41744 -1.85398,2.84887 0,0.43143 -0.72454,2.31128 -1.61009,4.17745 -2.41443,5.08801 -1.32996,6.74005 3.8623,5.88369 2.33628,-0.38532 4.85829,-1.19464 5.60444,-1.79848 z M 136.58087,136.465 c 0.80058,-2.18075 1.92288,-5.51226 2.494,-7.40336 0.57113,-1.8911 1.89385,-5.03444 2.9394,-6.98519 2.10659,-3.93045 2.42475,-6.63471 0.89203,-7.58198 -2.05393,-1.2694 -4.92491,0.72737 -8.05164,5.59995 -2.60623,4.06146 -3.30918,6.34146 -3.71836,12.06029 -0.38358,5.36097 -0.17083,7.26314 0.88719,7.9324 2.13594,1.35111 2.97706,0.6826 4.55738,-3.62211 z m -25.33146,-3.55226 C 110.99462,128.94102 102.27556,111 100.60014,111 c -1.773148,0 -2.653148,3.00285 -2.671232,9.11514 -0.01388,4.69198 1.146051,6.91263 6.881762,13.17487 3.24988,3.54822 6.67768,3.34737 6.43874,-0.37727 z m 8.70322,-13.05153 c 1.02388,-3.80242 1.20213,-3.95443 2.86859,-2.44631 1.66173,1.50384 2.06253,1.24369 6.18545,-4.0149 2.42472,-3.09261 5.73835,-6.89788 7.36363,-8.45615 2.94997,-2.82837 2.95169,-2.83694 1,-4.996465 -4.10154,-4.538312 -7.37537,-6.184915 -10.96,-5.512433 l -3.40893,0.639519 -0.29306,7.212769 c -0.4025,9.90646 -2.47217,9.10496 -4.27896,-1.65708 -0.63579,-3.787082 -0.72535,-3.857563 -4.18766,-3.295707 -1.94589,0.315774 -4.64188,1.297442 -5.9911,2.181484 l -2.45313,1.607353 2.39056,4.18835 c 1.31481,2.3036 3.88945,7.65722 5.72141,11.89694 1.83197,4.23972 3.69549,7.48322 4.14116,7.20778 0.44567,-0.27544 1.30159,-2.32526 1.90204,-4.55515 z M 87.796173,104.79243 c 1.448235,-2.23796 3.897807,-4.28698 6.250346,-5.228276 2.127804,-0.851378 3.868734,-1.967077 3.868734,-2.479332 0,-0.512254 1.145159,-2.292315 2.544797,-3.955691 l 2.5448,-3.02432 -2.4686,-1.617489 c -2.22622,-1.458674 -2.757154,-1.468273 -5.407435,-0.09776 -3.294225,1.70351 -11.677732,13.588028 -12.656074,17.941338 -0.529715,2.35707 -0.336758,2.77324 1.152809,2.48637 0.983956,-0.18949 2.860737,-2.00067 4.170623,-4.02484 z m 87.119077,-1.79976 C 174.91525,97.305598 163.48256,83 158.9376,83 c -3.69033,0 -2.15242,3.213452 4.74755,9.919937 3.72344,3.619035 7.3138,7.817563 7.97856,9.330063 1.41185,3.2123 3.25154,3.6325 3.25154,0.74267 z m -87.735605,70.47996 c -2.660768,-1.86367 -1.920334,-4.70828 1.112886,-4.2755 1.476675,0.21069 2.219025,1.13983 2.439144,3.05287 0.360035,3.12903 -0.438063,3.40374 -3.55203,1.22263 z m 85.735605,-3.36564 c 0,-0.49116 0.73865,-1.17646 1.64144,-1.52289 1.37248,-0.52667 1.43434,-0.38034 0.37756,0.89301 -1.44013,1.73524 -2.019,1.91584 -2.019,0.62988 z M 68.295255,165.54789 C 67.598639,163.73253 68.610467,162 70.367281,162 c 1.515957,0 2.840011,2.71845 1.992199,4.09024 -0.874065,1.41427 -3.445053,1.07118 -4.064225,-0.54235 z M 85.479577,81.104078 c -0.304541,-0.492757 0.04559,-2.051071 0.778064,-3.462919 0.950396,-1.831891 1.639845,-2.258926 2.407561,-1.49121 1.436199,1.436199 3.250051,0.203376 3.250051,-2.208966 0,-2.32617 1.817197,-2.580936 2.664261,-0.373522 1.522443,3.967422 -6.962649,10.994821 -9.099937,7.536617 z" style="fill:#ce0000"/><path d="m 113.27016,182.91822 c -0.41521,-0.275 -1.28813,-1.5125 -1.93982,-2.75 -0.65168,-1.2375 -1.7752,-2.25 -2.49669,-2.25 -0.72149,0 -2.34952,-0.9 -3.61783,-2 -1.5326,-1.32922 -3.74136,-2 -6.585622,-2 -3.409123,0 -4.409424,-0.40903 -4.917858,-2.01097 -0.351041,-1.10603 -1.87664,-2.65136 -3.39022,-3.43406 -1.513581,-0.7827 -3.297723,-2.0807 -3.96476,-2.88443 -0.667038,-0.80373 -2.787017,-1.75665 -4.711064,-2.11761 -3.94016,-0.73917 -9.671789,-6.25738 -11.480422,-11.05293 -0.622294,-1.65 -2.065388,-4.99898 -3.206876,-7.44217 -1.835003,-3.92756 -1.94729,-5.05308 -0.969286,-9.71575 0.72587,-3.4606 0.782982,-6.40038 0.166127,-8.55123 -0.51701,-1.8027 -0.940018,-5.19312 -0.940018,-7.53425 0,-4.06289 -0.136525,-4.2566 -3,-4.2566 -2.779072,0 -3,-0.26573 -3,-3.60841 0,-3.44585 0.123887,-3.57569 2.75,-2.88211 1.5125,0.39946 3.261341,0.78574 3.886314,0.85841 1.101273,0.12804 12.400637,-15.774767 15.294153,-21.525097 0.823323,-1.6362 2.243335,-2.84279 3.34563,-2.84279 1.053339,0 3.109629,-0.80731 4.569533,-1.79403 2.569731,-1.73682 8.627617,-3.65357 16.433059,-5.19951 2.07827,-0.41162 4.66019,-1.54615 5.73758,-2.52119 1.61161,-1.45848 3.0274,-1.6611 7.98566,-1.14286 4.41579,0.46154 7.10331,0.19917 10.05428,-0.98158 2.5034,-1.00166 5.64677,-1.42899 8.30637,-1.12921 2.35335,0.26526 6.92521,0.12316 10.15967,-0.31576 9.92353,-1.34665 16.85436,2.91908 25.86226,15.91749 2.53276,3.65478 5.25878,12.537127 9.87201,32.166647 1.31507,5.59568 1.33393,6.87569 0.13554,9.20034 -1.94588,3.77465 -1.80898,16.7172 0.23075,21.81498 1.52125,3.80199 1.51155,4.17873 -0.15499,6.02024 -1.13169,1.2505 -3.08433,1.97 -5.37281,1.97975 -4.28961,0.0183 -5.25348,0.61467 -6.84393,4.23469 -0.66451,1.5125 -1.65366,2.75 -2.1981,2.75 -1.36362,0 -9.05298,10.55908 -9.05298,12.43162 0,0.83436 -1.43879,2.26105 -3.19731,3.17042 -2.63232,1.36122 -6.71351,1.675 -23.09537,1.77568 -10.94392,0.0673 -20.23776,-0.10272 -20.65298,-0.37772 z m 19.43754,-6.98686 c 0.33546,-0.54277 3.17451,-1.72639 6.30902,-2.63026 7.52226,-2.16912 15.49023,-7.54492 20.41211,-13.77157 4.79807,-6.07002 3.38098,-7.29264 -2.25425,-1.9449 -4.00913,3.80459 -11.38184,8.33359 -13.56617,8.33359 -2.07402,0 -10.85514,4.20534 -13.14259,6.29408 -1.2375,1.13 -2.25,2.65111 -2.25,3.38023 0,1.53411 3.58598,1.8046 4.49188,0.33883 z m -17.08547,-0.8617 c 1.59004,-2.57274 -8.33163,-7.55176 -11.34152,-5.69154 -2.00102,1.2367 -1.06857,3.50121 1.68511,4.09238 1.5125,0.32472 3.65,0.97784 4.75,1.45138 2.64275,1.13768 4.26443,1.18652 4.90641,0.14778 z m -13.43537,-27.1905 c -0.80907,-0.51167 -1.00484,-0.93721 -0.43504,-0.94563 1.63838,-0.0242 7.46244,-8.15988 7.47874,-10.4471 0.008,-1.13751 0.57061,-3.05551 1.25,-4.26222 4.25455,-7.55672 5.49281,-10.11879 6.12262,-12.66824 0.66223,-2.68064 0.82094,-2.75922 2.50128,-1.23853 1.68472,1.52465 2.06319,1.28063 6.20278,-3.99922 2.42472,-3.09261 5.73835,-6.89788 7.36363,-8.45615 2.94997,-2.82837 2.95169,-2.83694 1,-4.99647 -4.10154,-4.538307 -7.37537,-6.184907 -10.96,-5.512427 l -3.40893,0.63952 -0.29306,7.212767 c -0.40871,10.05925 -2.43958,9.3258 -4.25648,-1.53724 -0.74702,-4.466347 -2.89334,-4.881997 -9.03658,-1.749997 -4.36237,2.224057 -7.655552,2.522297 -10.578453,0.958007 -1.635254,-0.87516 -1.764825,-1.395497 -0.809296,-3.249997 0.625722,-1.2144 2.023967,-3.18228 3.107207,-4.37304 1.96759,-2.16291 1.96705,-2.16666 -0.54877,-3.81509 -2.259252,-1.48032 -2.814239,-1.49701 -5.395391,-0.16224 -4.433394,2.2926 -11.158251,12.684197 -13.450586,20.784547 -1.486618,5.25322 -1.712523,7.37 -0.875826,8.20669 0.836696,0.8367 1.783131,0.28981 3.669299,-2.12026 1.397978,-1.78629 2.889142,-3.03311 3.313698,-2.77072 0.424555,0.26239 0.560444,3.7723 0.301975,7.7998 -0.612745,9.54788 2.083579,16.56952 7.321974,19.06753 1.895551,0.90393 5.133447,3.40816 7.195317,5.56497 2.061872,2.1568 3.960822,3.71437 4.219892,3.46126 0.25907,-0.25312 -0.19093,-0.87885 -1,-1.39052 z M 84.854195,108.41822 c 0.316582,-0.825 0.752459,-1.5 0.968615,-1.5 0.216156,0 0.393011,0.675 0.393011,1.5 0,0.825 -0.435877,1.5 -0.968615,1.5 -0.532739,0 -0.709594,-0.675 -0.393011,-1.5 z m 33.561265,35.75 c 0.27319,-7.86825 0.11666,-10.98336 -0.65263,-12.98811 -0.56162,-1.46355 -0.78682,-1.49677 -1.58549,-0.23386 -0.51199,0.80958 -0.93778,2.63973 -0.9462,4.06698 -0.008,1.42726 -0.91532,3.4095 -2.01532,4.40499 -3.65673,3.3093 -1.49611,10.5 3.15499,10.5 1.55629,0 1.87626,-0.89981 2.04465,-5.75 z m -38.619648,1.1753 c 0.882395,-4.70357 -1.055756,-6.93434 -2.568297,-2.95606 -1.101236,2.89647 -0.538971,6.53076 1.010381,6.53076 0.488014,0 1.189077,-1.60861 1.557916,-3.5747 z m 65.276658,0.25068 c 0.74616,-0.60384 2.32116,-1.56546 3.5,-2.13694 1.17885,-0.57147 3.71835,-4.17837 5.64335,-8.01534 4.69174,-9.3517 4.87353,-15.95872 0.56291,-20.45804 -2.22592,-2.32336 -3.81997,-3.06566 -6.58333,-3.06566 -2.00544,0 -3.8811,0.23485 -4.16814,0.52189 -0.28704,0.28704 -0.0481,2.29713 0.53108,4.46687 0.89958,3.37027 0.71154,4.78745 -1.29079,9.72811 -1.28908,3.18072 -3.17807,6.71213 -4.19775,7.84758 -1.01969,1.13545 -1.85398,2.41744 -1.85398,2.84887 0,0.43143 -0.72454,2.31128 -1.61009,4.17745 -2.41443,5.08801 -1.32996,6.74005 3.8623,5.88369 2.33628,-0.38532 4.85829,-1.19464 5.60444,-1.79848 z m -12.19103,-8.21098 c 0.80058,-2.18075 1.92288,-5.51226 2.494,-7.40336 0.57113,-1.8911 1.89385,-5.03444 2.9394,-6.98519 2.10659,-3.93045 2.42475,-6.63471 0.89203,-7.58198 -2.05393,-1.2694 -4.92491,0.72737 -8.05164,5.59995 -2.60623,4.06146 -3.30918,6.34146 -3.71836,12.06029 -0.38358,5.36097 -0.17083,7.26314 0.88719,7.9324 2.13594,1.35111 2.97706,0.6826 4.55738,-3.62211 z m -56.680932,-10.215 c -0.01193,-2.14294 -0.229302,-2.41887 -0.984687,-1.25 -1.264409,1.95653 -1.264409,4 0,4 0.55,0 0.993109,-1.2375 0.984687,-2.75 z m 95.015312,-23.25733 c 0,-5.687067 -11.43269,-19.992667 -15.97765,-19.992667 -3.69033,0 -2.15242,3.21345 4.74755,9.91994 3.72344,3.61903 7.3138,7.817557 7.97856,9.330057 1.41185,3.2123 3.25154,3.6325 3.25154,0.74267 z m -87.735607,70.47996 c -2.660768,-1.86367 -1.920334,-4.70828 1.112886,-4.2755 1.476675,0.21069 2.219025,1.13983 2.439144,3.05287 0.360035,3.12903 -0.438063,3.40374 -3.55203,1.22263 z m 85.735607,-3.36564 c 0,-0.49116 0.73865,-1.17646 1.64144,-1.52289 1.37248,-0.52667 1.43434,-0.38034 0.37756,0.89301 -1.44013,1.73524 -2.019,1.91584 -2.019,0.62988 z m -104.619997,-4.5591 c -0.696616,-1.81536 0.315212,-3.54789 2.072026,-3.54789 1.515957,0 2.840011,2.71845 1.992199,4.09024 -0.874065,1.41427 -3.445053,1.07118 -4.064225,-0.54235 z M 81.780145,82.022303 c -0.304541,-0.49276 0.04559,-2.05107 0.778064,-3.46292 0.950396,-1.83189 1.639845,-2.25893 2.407561,-1.49121 1.436199,1.4362 3.250051,0.20337 3.250051,-2.20897 0,-2.32617 1.817197,-2.58093 2.664261,-0.37352 1.522443,3.96742 -6.962649,10.99482 -9.099937,7.53662 z" style="fill:#ff5719"/><path d="m 116.23675,181.17857 c -0.72682,-0.72678 -1.3215,-1.76269 -1.3215,-2.30202 0,-0.53932 -1.35,-1.4512 -3,-2.02639 -1.65,-0.5752 -3,-1.46335 -3,-1.97367 0,-0.51032 1.37988,-0.21429 3.0664,0.65785 1.68652,0.87213 4.27402,1.44618 5.75,1.27568 2.24214,-0.25902 2.68605,-0.80353 2.6985,-3.31002 0.008,-1.65 0.52323,-3.87176 1.14453,-4.93724 2.07644,-3.5609 -1.13065,-8.11333 -7.57041,-10.74614 -3.07396,-1.25675 -5.96885,-2.1655 -6.4331,-2.01945 -0.46425,0.14606 -2.63314,-1.35074 -4.81975,-3.32622 -4.669752,-4.21884 -8.336167,-4.44521 -8.336167,-0.51469 0,3.47773 10.675207,12.04374 15.009267,12.04374 1.70966,0 3.98198,0.66069 5.0496,1.4682 1.91587,1.44908 1.9151,1.47057 -0.0589,1.6508 -3.58611,0.32742 -7.97924,-0.26182 -8.95,-1.20045 -0.5225,-0.5052 -3.2799,-0.91855 -6.127552,-0.91855 -3.189546,0 -5.618604,-0.53143 -6.326217,-1.38405 -0.70429,-0.84862 -3.000902,-1.35611 -5.936537,-1.31183 -4.330494,0.0653 -5.136093,-0.30398 -8.433034,-3.86594 -2.004838,-2.166 -4.154309,-5.28818 -4.776604,-6.93818 -0.622294,-1.65 -2.065388,-4.99898 -3.206876,-7.44217 -1.835003,-3.92756 -1.94729,-5.05308 -0.969286,-9.71575 0.72587,-3.4606 0.782982,-6.40038 0.166127,-8.55123 -0.51701,-1.8027 -0.940018,-5.19312 -0.940018,-7.53425 0,-4.06289 -0.136525,-4.2566 -3,-4.2566 -2.779072,0 -3,-0.26573 -3,-3.60841 0,-3.44585 0.123887,-3.57569 2.75,-2.88211 1.5125,0.39946 3.261341,0.78574 3.886314,0.85841 1.101273,0.12804 12.400637,-15.774765 15.294153,-21.525098 0.869943,-1.728852 2.241408,-2.851505 3.5,-2.865028 1.138243,-0.01223 3.194533,-0.902223 4.569533,-1.977764 1.375,-1.075541 3.230923,-1.965534 4.124273,-1.977764 0.893351,-0.01223 3.499034,-0.683691 5.790414,-1.492136 2.29138,-0.808445 3.88525,-1.015408 3.54194,-0.459918 -0.39098,0.632614 0.30043,0.777912 1.85049,0.388873 1.37616,-0.345394 2.77127,-0.141233 3.14281,0.459918 C 111.73264,79.513538 114.45243,80 117.40917,80 c 6.56356,0 11.68266,1.644057 9.4722,3.042103 -0.80636,0.509999 -2.37461,0.934162 -3.485,0.942584 -1.11038,0.0084 -5.60188,1.815313 -9.98112,4.015313 -4.37923,2.2 -8.05193,4 -8.16157,4 -0.10963,0 -0.34312,-0.994174 -0.51888,-2.209276 -0.24169,-1.670968 -1.27015,-2.405797 -4.22092,-3.015824 -4.971338,-1.027746 -6.924796,0.212269 -13.075713,8.300194 -4.810753,6.325726 -7.492947,12.972536 -7.51209,18.615886 -0.01541,4.54362 1.816728,5.1034 4.689423,1.43278 1.352842,-1.72861 2.807078,-2.92825 3.231634,-2.66586 0.424555,0.26239 0.560444,3.7723 0.301975,7.7998 -0.562959,8.77209 2.170305,16.69416 6.429327,18.6347 4.042383,1.84183 9.336814,6.22302 9.336814,7.72629 0,0.75972 0.3375,1.41401 0.75,1.45397 0.4125,0.04 3.28876,0.22305 6.39169,0.40685 3.10293,0.1838 6.59973,0.84692 7.77067,1.47359 1.17094,0.62666 2.50237,0.90862 2.95875,0.62656 1.43711,-0.88818 2.16133,-15.32999 1.03267,-20.59272 -0.98521,-4.59389 -0.88308,-5.23803 1.26213,-7.96006 1.28375,-1.62894 3.68409,-4.79103 5.33409,-7.02688 5.76065,-7.80601 7.73034,-10.05291 9.76927,-11.14411 3.58485,-1.91855 14.93416,-3.847 18.90424,-3.21216 3.09987,0.4957 3.82649,0.30716 3.82649,-0.992869 0,-2.349295 -3.88781,-4.526848 -14.79734,-8.287948 C 135.66514,87.414529 131.91525,87.078353 131.91525,90 c 0,1.466667 -0.66666,2 -2.5,2 -3.00929,0 -3.24417,-1.518308 -0.5,-3.232073 1.18042,-0.737182 2,-2.332027 2,-3.891842 0,-2.771417 1.91371,-3.82888 7,-3.868007 3.79951,-0.02923 10.12026,-2.004479 9.52036,-2.975138 -0.29196,-0.472403 -2.44098,-1.16014 -4.7756,-1.528303 -4.84097,-0.763409 -9.74476,-2.640278 -9.74476,-3.729696 0,-1.211983 4.86378,-2.056385 8.8104,-1.529578 2.02928,0.270873 6.3678,0.127986 9.64115,-0.317527 9.99997,-1.361028 16.90005,2.871015 25.93296,15.905517 2.53276,3.654775 5.25878,12.537128 9.87201,32.166647 1.31507,5.59568 1.33393,6.87569 0.13554,9.20034 -1.94588,3.77465 -1.80898,16.7172 0.23075,21.81498 1.52125,3.80199 1.51155,4.17873 -0.15499,6.02024 -1.13169,1.2505 -3.08433,1.97 -5.37281,1.97975 -4.28961,0.0183 -5.25348,0.61467 -6.84393,4.23469 -0.66451,1.5125 -1.65366,2.75 -2.1981,2.75 -1.36362,0 -9.05298,10.55908 -9.05298,12.43162 0,0.83436 -1.43879,2.26105 -3.19731,3.17042 -4.28048,2.21352 -42.35065,2.70696 -44.48119,0.57653 z m 20.62135,-5.60971 c 0.65326,-0.78713 3.41051,-1.90784 6.12722,-2.49047 6.04464,-1.29634 11.74182,-4.79504 18.00201,-11.05523 4.3991,-4.39911 9.62721,-12.6572 8.63885,-13.64556 -0.23572,-0.23572 -3.07961,2.07162 -6.31976,5.12743 -5.98377,5.64336 -13.16945,10.48995 -15.56924,10.50113 -0.72706,0.003 -2.51593,0.62913 -3.97526,1.39054 -1.45933,0.76142 -4.15933,1.89729 -6,2.52418 -3.77546,1.28582 -7.30226,5.44949 -6.46471,7.63211 0.71318,1.85852 4.02379,1.86796 5.56089,0.0159 z M 86.019052,153.7038 c -1.283486,-1.28349 -2.585054,-0.2915 -1.634836,1.24598 0.368078,0.59556 1.127349,0.79971 1.687268,0.45366 0.683003,-0.42211 0.665748,-0.98146 -0.05243,-1.69964 z m 62.396198,-5.26368 c 6.5862,-3.12309 13.98565,-11.13809 16.00071,-17.3318 C 168.28696,119.21006 161.62029,108 150.67334,108 c -4.46051,0 -13.17335,6.32848 -16.77771,12.18632 -4.97564,8.08643 -6.4899,24.3166 -2.20196,23.60099 1.18866,-0.19837 1.81415,0.48658 2.02062,2.21269 0.59589,4.98176 0.96388,5.27737 5.96778,4.79405 2.60325,-0.25145 6.53318,-1.31071 8.73318,-2.35393 z M 140.91525,128 c 0,-1.1 0.45,-2 1,-2 0.55,0 1,0.9 1,2 0,1.1 -0.45,2 -1,2 -0.55,0 -1,-0.9 -1,-2 z m -57.440967,19.62083 c 1.125228,-4.48327 0.13958,-7.95218 -2.30903,-8.12646 -1.961911,-0.13963 -2.25,0.32016 -2.25,3.59096 0,2.0631 0.273145,4.4629 0.606989,5.33288 0.912539,2.37804 3.274678,1.90145 3.952041,-0.79738 z M 79.823089,126.5 c 0.03385,-1.1 -0.381571,-2.675 -0.923149,-3.5 -2.260461,-3.44342 -3.966989,4.82196 -2.271135,11 0.646199,2.35412 0.757624,2.26659 1.909494,-1.5 0.672788,-2.2 1.250943,-4.9 1.28479,-6 z M 175.50344,104.50466 C 177.19286,97.773447 161.8434,79.27865 156.325,81.396261 c -2.87799,1.104385 -1.20359,4.113905 6.59025,11.84519 4.4,4.364682 8,8.705909 8,9.647169 0,1.77021 1.81134,4.11138 3.18095,4.11138 0.42952,0 1.06278,-1.12291 1.40724,-2.49534 z M 107.26756,83.238972 c 0.97662,-1.580201 -1.99701,-4.144646 -4.15238,-3.581002 l -2.14966,0.562148 2.22487,1.856672 c 2.45125,2.045591 3.36944,2.307317 4.07717,1.162182 z M 171.68608,80.8125 c -0.61807,-1.854223 -2.77083,-2.16176 -2.77083,-0.395833 0,0.870833 0.7125,1.583333 1.58333,1.583333 0.87084,0 1.40521,-0.534375 1.1875,-1.1875 z M 152.96807,77.5 c -0.0784,-1.484289 -2.31562,-1.211605 -2.83465,0.345503 -0.28038,0.841121 0.17677,1.215987 1.21949,1 C 152.2703,78.655477 152.99713,78.05 152.96807,77.5 z m -63.982532,96.75 c 0.03866,-0.4125 0.457029,-1.65 0.929715,-2.75 0.761562,-1.77225 0.867433,-1.68684 0.929715,0.75 0.03866,1.5125 -0.379715,2.75 -0.929715,2.75 -0.55,0 -0.968372,-0.3375 -0.929715,-0.75 z m 8.568089,-2.75 c -0.729953,-1.90222 1.267832,-1.88552 3.802753,0.0318 1.86807,1.41294 1.84387,1.4682 -0.64301,1.4682 -1.421276,0 -2.843161,-0.675 -3.159743,-1.5 z m 15.890053,-35.45401 c -0.82933,-1.34188 0.4111,-5.75092 1.98559,-7.05762 1.68122,-1.39529 2.94675,2.03966 2.05722,5.5838 -0.60917,2.42715 -2.93059,3.27343 -4.04281,1.47382 z M 88.553627,107.5 c 0.316582,-0.825 0.752459,-1.5 0.968615,-1.5 0.216156,0 0.393011,0.675 0.393011,1.5 0,0.825 -0.435877,1.5 -0.968615,1.5 -0.532739,0 -0.709594,-0.675 -0.393011,-1.5 z M 85.415253,81 c -1.167888,-1.889682 0.47229,-2.824907 2.924603,-1.667601 1.621815,0.765374 2.035004,1.390547 1.249327,1.890285 C 87.939125,82.27222 86.142281,82.176357 85.415253,81 z M 115.61215,76.300448 C 112.14452,75.401281 115.84093,73 120.69268,73 c 4.46921,0 4.50725,0.02795 2.72257,2 -1.74135,1.924168 -3.96716,2.295117 -7.8031,1.300448 z" style="fill:#530000"/></g></svg>