<svg xmlns="http://www.w3.org/2000/svg" viewBox="0 0 256 256"><defs><clipPath id="0"><path transform="matrix(15.33333 0 0 11.5 415 -125.5)" d="m -24 13 c 0 1.105 -0.672 2 -1.5 2 -0.828 0 -1.5 -0.895 -1.5 -2 0 -1.105 0.672 -2 1.5 -2 0.828 0 1.5 0.895 1.5 2 z"/></clipPath></defs><g transform="translate(0 -796.36)"><path d="m 229.63 992.2 c 92.05 -130.93 -77.948 -263.6 -186.39 -156.91 -102.17 100.51 -7.449 256.68 119.69 207.86 c 26.526 -10.185 49.802 -26.914 66.7 -50.948 z" style="fill:#fff;color:#000"/><g transform="matrix(6.34048 0 0 6.1572 -28.493 778.99)" style="fill:#ff4500"><g transform="matrix(-1 0 0 -1 50.02 50.02)" style="clip-path:url(#0)"><g transform="translate(1 1)" style="opacity:0.1"><path d="m 34 14 v 9 h -9 v -9"/><path d="m 14 14 h 9 v 9 h -9"/><path d="m 23 25.02 v 9 h -9 v -9"/><path d="m 25.02,25.02 9,0 -9,9"/></g></g><path d="m 14.02 34.02 v -9 h 9 v 9"/><path d="m 34.02 34.02 h -9 v -9 h 9"/><path d="m 25.02 23 v -9 h 9 v 9"/><path d="m 23,23 -9,0 9,-9"/><g><path d="M 15,26 H22 V33 H15 z" style="fill:#dc143c;opacity:0.632"/><path d="M 26,26 H33 V33 H26 z" style="opacity:0.632"/><path d="M 26,15 H33 V22 H26 z" style="fill:#ffdead;opacity:0.632"/><path d="m 22 16.4 v 5.6 h -5.6 z" style="fill:#ffa07a;opacity:0.632"/></g></g></g></svg>