<svg xmlns="http://www.w3.org/2000/svg" viewBox="0 0 256 256"><defs><clipPath><path d="m 74 56.824 h 129 v 139.69 h -129"/></clipPath><clipPath><path d="m 27.707 56.824 h 82.29 v 139.69 h -82.29"/></clipPath><clipPath><path d="m 148 97 h 77.63 v 24 h -77.62"/></clipPath><clipPath><path d="m 171 132 h 54.625 v 24 h -54.625"/></clipPath></defs><g transform="translate(0 -796.36)"><g style="color:#000"><path d="m 195.83 822.74 c -130.93 -92.05 -263.6 77.948 -156.91 186.39 100.51 102.17 256.68 7.449 207.86 -119.69 -10.185 -26.526 -26.914 -49.802 -50.948 -66.7 z" style="fill:#fff"/><path d="m 186.82 843.41 c -100.97 -73.33 -203.29 62.09 -121.01 148.48 77.51 81.39 197.95 5.934 160.3 -95.35 -7.855 -21.13 -20.756 -39.673 -39.29 -53.13 z" style="fill:#ffe4e1"/></g><g transform="matrix(0.33274 0 0 0.35117 8.787 804.92)" style="fill:none;stroke:#ff4500"><g transform="matrix(0.88249 0 0 0.89413 54.853 40.31)" style="stroke-linejoin:round"><g style="color:#000"><g style="stroke-width:7.087"><g><path d="m 167.86 107.36 c 0 0 -12.143 73.57 -7.857 115 4.286 41.43 23.929 83.21 40 108.57"/><path d="m 278.57 89.51 c 15.714 37.14 21.429 54.29 21.429 97.14 0 42.857 -0.893 98.93 1.071 107.14"/></g><g><path d="m 301.07 294.15 c 1.964 8.214 16.622 23.833 29.25 25.349 12.627 1.515 29.29 -12.627 40.911 -44.45 11.617 -31.82 18.18 -85.36 19.698 -111.62 1.515 -26.26 -2.525 -76.77 -2.525 -76.77"/><path d="m 501.43 87.36 c -2.143 17.14 -6.429 40 -6.429 67.14 0 27.14 1.429 33.571 5.714 41.43 4.286 7.857 7.857 25.714 4.286 40 -3.571 14.286 -16.429 28.571 -24.286 55 -7.857 26.429 -20.714 124.29 -25.714 149.29 -5 25 -25 172.14 -27.14 183.57"/><path d="m 273.57 625.22 c 0 0 -5.714 -51.43 -15 -85 -9.286 -33.571 -30.714 -74.29 -42.14 -86.43 -11.429 -12.143 -13.571 -10.714 -14.286 -27.857 -0.714 -17.14 5.357 -86.43 -1.786 -95"/></g></g><g style="stroke-width:3.543"><g><path d="M 302.86,292.36 201.43,330.931"/><path d="m 250.71,85.93 -83.57,23.571"/></g><path d="m 376.43 256.65 c 15.714 12.143 36.429 23.571 84.29 147.86"/></g><g style="stroke-dasharray:9.2126 9.2126;stroke-width:4.606"><path d="m 544.29,200.22 -97.14,-83.57 8.571,285.71"/><path d="m 614.29,343.79 -32.14,102.14 -79.29,75 -112.86,-8.571 -70.71,-45 -50,152.14"/></g></g><g style="stroke-width:4.606"><path d="M 105,243.79 272.14,87.36" style="stroke-dasharray:9.2126 18.4252"/><path d="m 70.71,392.36 202.86,-22.14 -38.571,-197.86 -36.429,35.714 -0.714,117.86" style="stroke-dasharray:9.2126 9.2126;color:#000"/></g><g style="color:#000;stroke-width:2.126"><path d="m 535.38 191.72 v 19.19 h 19.19 v -19.19 h -19.19 z" style="opacity:0.812"/><path d="m 603.57 335.16 v 19.19 h 19.19 v -19.19 h -19.19 z" style="opacity:0.812"/><path d="m 573.77 436.17 v 19.19 h 19.19 v -19.19 h -19.19 z" style="opacity:0.812"/><path d="m 494.98 511.43 v 19.19 h 19.19 v -19.19 h -19.19 z" style="opacity:0.812"/><path d="m 384.87 502.84 v 19.19 h 19.19 v -19.19 h -19.19 z" style="opacity:0.812"/><path d="m 96.47,233.64 v 19.19 h 19.19 V 233.64 H 96.47 z" style="opacity:0.812"/><path d="m 64.15,386.67 v 19.19 H 83.34 V 386.67 H 64.15 z" style="opacity:0.812"/><path d="m 262.64,359.4 v 19.19 h 19.19 V 359.4 h -19.19 z" style="opacity:0.812"/><path d="m 224.26 163.43 v 19.19 h 19.19 v -19.19 h -19.19 z" style="opacity:0.812"/><path d="m 291.43 284.65 v 19.19 h 19.19 v -19.19 h -19.19 z" style="opacity:0.812"/><path d="m 186.88 318.49 v 19.19 h 19.19 v -19.19 h -19.19 z" style="opacity:0.812"/><path d="m 449.02 395.26 v 19.19 h 19.19 v -19.19 h -19.19 z" style="opacity:0.812"/><path d="m 366.69 249.29 v 19.19 h 19.19 v -19.19 h -19.19 z" style="opacity:0.812"/></g></g><g transform="matrix(0.93666 0 0 1.0002 41.953 -0.059)" style="stroke-width:2.835"><path d="m 45.46,376.57 616.19,-1.01"/><path d="m 480.83 86.66 v 540.43" style="color:#000"/></g></g></g></svg>