<svg xmlns="http://www.w3.org/2000/svg" viewBox="0 0 256 256"><path d="m 125.73 798.56 c -111.92 -22.351 -154.42 130.95 -105.92 214.2 38.644 66.33 171.02 47.37 220.37 -42.17 49.35 -89.54 -24.617 -154.09 -114.45 -172.03 z" transform="translate(0 -796.36)" style="fill:#fff;color:#000"/><g transform="matrix(2.68564 1.56333 -1.66735 2.78888 93.71 23.672)" style="fill:#ff4500;stroke:#fff"><g style="stroke:#fff"><path d="m 12,10.0022 c -1.108,0 -2,0.8251 -2,1.85 v 1.85 5.55 24.05 c 0,2.0498 1.784,3.7 4,3.7 h 22 c 2.216,0 4,-1.6502 4,-3.7 v -24.05 -5.55 -1.85 c 0,-1.0249 -0.892,-1.85 -2,-1.85 H 36 14 12 z" style="opacity:0.15"/><path d="M 16,1 H 34 V 11 H 16 z"/><path d="m 12,9.0022 c -1.108,0 -2,0.8251 -2,1.85 v 1.85 5.55 24.05 c 0,2.0498 1.784,3.7 4,3.7 h 22 c 2.216,0 4,-1.6502 4,-3.7 v -24.05 -5.55 -1.85 c 0,-1.0249 -0.892,-1.85 -2,-1.85 H 36 14 12 z"/><path d="m 19 5 h 4 v 2 h -4 z"/><path d="m 19 4 h 4 v 2 h -4 z"/><path d="m 27 5 h 4 v 2 h -4 z"/><path d="m 27 4 h 4 v 2 h -4 z"/><path d="M 16,1 H 34 V 2 H 16 z" style="opacity:0.5"/><path d="m 16 2 h 1 v 7 h -1 z" style="opacity:0.5"/><path d="m 17.406 2.421 v 7.188 h 15.188 v -7.188 h -15.188 z" style="opacity:0.65"/><path d="m 33 2 h 1 v 7 h -1 z" style="opacity:0.5"/><g transform="translate(0 -1004.36)"><path d="m 12 1013.84 c -0.876 0 -1.531 0.623 -1.531 1.375 v 1.844 v 5.563 v 24.03 c 0 1.777 1.551 3.25 3.531 3.25 h 22 c 1.98 0 3.531 -1.473 3.531 -3.25 v -24.03 v -5.563 v -1.844 c 0 -0.752 -0.655 -1.375 -1.531 -1.375 h -2 h -22 h -2 z" style="opacity:0.74"/><path d="m 12 1014.91 c -0.356 0 -0.469 0.174 -0.469 0.313 v 1.844 v 5.563 v 24.03 c 0 1.164 1.019 2.188 2.469 2.188 h 22 c 1.449 0 2.469 -1.024 2.469 -2.188 v -24.03 v -5.563 v -1.844 c 0 -0.139 -0.113 -0.313 -0.469 -0.313 h -2 h -22 h -2 z" style="opacity:0.4"/></g></g><g transform="matrix(0.27622 -0.15484 0.16514 0.266 -29.794 8.214)" style="fill:#ffdead;stroke:none;fill-rule:evenodd"><path d="m 138.11 77.39 c -3.087 -1.824 -5.905 -3.491 -6.264 -3.703 -0.481 -0.285 0.101 -1.645 2.229 -5.205 1.584 -2.65 3.059 -5.01 3.276 -5.25 0.217 -0.237 3.272 1.241 6.788 3.284 l 6.393 3.715 l -1.056 2.073 c -1.554 3.049 -5.03 8.454 -5.418 8.427 -0.185 -0.013 -2.862 -1.516 -5.949 -3.341 z m 4.38 -1.127 c -2.031 -1.428 -7.485 -4.373 -6.873 -3.711 0.753 0.814 6.945 4.527 7.595 4.555 0.281 0.012 -0.044 -0.368 -0.722 -0.844 z m 3.65 -3.584 l 0.852 -1.442 l -3.919 -2.257 c -2.155 -1.241 -4.083 -2.329 -4.284 -2.417 -0.373 -0.164 -2.165 2.931 -1.865 3.22 0.562 0.542 7.403 4.321 7.836 4.329 0.29 0.005 0.911 -0.64 1.38 -1.433 z"/><path d="m 164.13 92.54 c -0.842 -0.522 -3.758 -2.247 -6.48 -3.833 l -4.95 -2.883 l 1.857 -3.174 c 1.021 -1.746 2.458 -4.125 3.194 -5.288 l 1.337 -2.115 l 5.837 3.392 c 3.21 1.866 6.124 3.577 6.475 3.803 0.484 0.312 0.317 0.987 -0.692 2.804 -1.313 2.363 -4.886 8.269 -4.992 8.252 -0.03 -0.005 -0.744 -0.436 -1.586 -0.959 z m -2.954 -5.483 c -2.186 -1.294 -4.077 -2.25 -4.202 -2.125 -0.274 0.274 6.938 4.492 7.666 4.484 0.281 -0.003 -1.278 -1.064 -3.464 -2.358 z m 6.376 -1.719 c 0.845 -1.486 0.838 -1.55 -0.255 -2.218 -4.391 -2.684 -6.563 -3.898 -6.972 -3.898 -0.501 0 -2.062 2 -2.062 2.647 0 0.347 7.574 4.98 8.163 4.993 0.14 0.003 0.647 -0.683 1.126 -1.524 z"/></g></g></svg>