<svg xmlns="http://www.w3.org/2000/svg" viewBox="0 0 256 256"><defs><clipPath><path transform="matrix(15.33333 0 0 11.5 415 -125.5)" d="m -24 13 c 0 1.105 -0.672 2 -1.5 2 -0.828 0 -1.5 -0.895 -1.5 -2 0 -1.105 0.672 -2 1.5 -2 0.828 0 1.5 0.895 1.5 2 z" style="fill:#1890d0"/></clipPath><clipPath><path transform="matrix(15.33333 0 0 11.5 415 -125.5)" d="m -24 13 c 0 1.105 -0.672 2 -1.5 2 -0.828 0 -1.5 -0.895 -1.5 -2 0 -1.105 0.672 -2 1.5 -2 0.828 0 1.5 0.895 1.5 2 z" style="fill:#1890d0"/></clipPath><clipPath><path transform="matrix(15.33333 0 0 11.5 415 -125.5)" d="m -24 13 c 0 1.105 -0.672 2 -1.5 2 -0.828 0 -1.5 -0.895 -1.5 -2 0 -1.105 0.672 -2 1.5 -2 0.828 0 1.5 0.895 1.5 2 z" style="fill:#1890d0"/></clipPath><clipPath><path transform="matrix(15.33333 0 0 11.5 415 -125.5)" d="m -24 13 c 0 1.105 -0.672 2 -1.5 2 -0.828 0 -1.5 -0.895 -1.5 -2 0 -1.105 0.672 -2 1.5 -2 0.828 0 1.5 0.895 1.5 2 z" style="fill:#1890d0"/></clipPath><clipPath><path d="m 62 6 c -3.324 0 -6 2.676 -6 6 v 0.531 c 0 -3.611 2.921 -6.531 6.531 -6.531 h -0.531 z m 71.47 0 c 3.611 0 6.531 2.921 6.531 6.531 v -0.531 c 0 -3.324 -2.676 -6 -6 -6 h -0.531 z m 6.531 6.531 c 0 36.735 -3.543 60.1 -7.844 69.938 c -10.816 5.03 -35.677 7.531 -69.62 7.531 h 71.47 c 3.324 0 6 -2.676 6 -6 v -71.47 z m -77.47 77.47 c -3.611 -0.005 -6.531 -2.921 -6.531 -6.531 v 0.531 c 0 3.324 2.676 6 6 6 h 0.531 z"/></clipPath><clipPath><rect y="6" x="6" rx="6" height="84" width="84" style="fill:#ff4500ff4500"/></clipPath><linearGradient gradientUnits="userSpaceOnUse" y2="5.988" x2="0" y1="90"><stop style="stop-color:#e4b31e"/><stop offset="1" style="stop-color:#ffef64"/></linearGradient></defs><g transform="translate(0 -796.36)"><path d="m 254.37 914.68 c 14.532 155.28 -230.55 197.08 -249.59 37.632 -23.59 -146.61 198.57 -222.12 243 -76.44 c 4.868 12.317 4.775 25.786 6.59 38.807 z" style="fill:#fff;color:#fff"/><g style="fill:#ff4500"><path d="m 23.05 1040.56 c -1.08 -0.345 -3.323 -2.812 -5.389 -5.929 -3.603 -5.436 -5.228 -10.861 -4.132 -13.798 0.462 -1.237 1.926 -2.681 3.473 -3.424 4.741 -2.278 13.06 -1.749 15.904 1.011 2.658 2.583 2.538 6.45 -0.381 12.275 -1.802 3.598 -4.049 6.885 -5.924 8.666 -1.42 1.349 -2.229 1.622 -3.552 1.199 z" transform="matrix(5.62664 0 0 5.0523 -6.75 -4263.4)" style="fill-opacity:0.498"/><path d="m 121.94 196.28 c -1.852 -0.804 -6.565 -4.537 -10.473 -8.294 c -31.918 -30.691 -51.07 -75.18 -39.947 -92.8 5.856 -9.276 18.1 -15.864 36.615 -19.705 c 9.241 -1.917 35.7 -1.609 45.39 0.529 17.15 3.784 26.57 9.476 31.671 19.15 2.442 4.63 2.73 6.226 2.667 14.786 -0.06 8.191 -0.534 10.827 -3.239 18 -7.05 18.705 -20.994 40.72 -35.36 55.825 -12.669 13.324 -18.899 16.177 -27.332 12.514 z" transform="translate(0 796.36)" style="fill-rule:evenodd"/></g></g></svg>