<svg xmlns="http://www.w3.org/2000/svg" viewBox="0 0 256 256" xmlns:xlink="http://www.w3.org/1999/xlink"><g transform="translate(0 -796.36)"><path d="m 232.07 1001.41 c 75.07 -93.1 -40.957 -226.49 -148.29 -202.13 -115.57 27.07 -106.03 194.65 -5.404 236.01 c 50.08 28.811 126.76 23.449 153.69 -33.886 z" style="fill:#fff;color:#000"/><g transform="matrix(-0.37932 0 0 0.41353 310.71 752.88)" style="fill:#ffa07a"><path d="m 274.41,86.75 -41.28,12.03 0.5,1.719 -0.375,-0.188 -75.78,143.84 H 27.415 v 43 h 154.94 v -0.063 l 0.844,0.438 67.59,-128.22 64.875,222.25 1,-0.281 -0.938,1.719 37.75,20.594 45.19,-82.87 h 75.81 v -44 h -99.47 v 0.5 h -1 v 0.375 l -0.625,-0.344 -28.25,51.813 -70.72,-242.31" transform="matrix(1 0 0 -1 231.54 654.16)" id="0" style="color:#000"/><text x="961.18" y="395.18" line-height="125%" style="letter-spacing:0;word-spacing:0;font-size:129.23;font-family:Gentium Book Basic"><tspan x="961.18" y="395.18"/></text><text x="436.61" y="1236.63" transform="scale(4.0128 0.2492)" style="font-size:46.954;font-family:Arial;text-anchor:middle"/><text x="1542.45" y="315.18" line-height="125%" style="letter-spacing:0;word-spacing:0;font-size:129.23;font-family:Gentium Book Basic"><tspan x="1542.45" y="315.18"/></text><text x="581.46" y="915.6" transform="scale(4.0128 0.2492)" style="font-size:46.954;font-family:Arial;text-anchor:middle"/><text x="470.87" y="133.92" line-height="125%" style="letter-spacing:0;word-spacing:0;font-size:129.23;font-family:Gentium Book Basic"><tspan x="470.87" y="133.92"/></text><text x="314.42" y="188.25" transform="scale(4.0128 0.2492)" style="font-size:46.954;font-family:Arial;text-anchor:middle"/><text x="1568.92" y="-82.55" line-height="125%" style="letter-spacing:0;word-spacing:0;font-size:129.23;font-family:Gentium Book Basic"><tspan x="1568.92" y="-82.55"/></text><text x="588.06" y="-680.43" transform="scale(4.0128 0.2492)" style="font-size:46.954;font-family:Arial;text-anchor:middle"/><text x="2150.19" y="-162.56" line-height="125%" style="letter-spacing:0;word-spacing:0;font-size:129.23;font-family:Gentium Book Basic"><tspan x="2150.19" y="-162.56"/></text><text x="732.91" y="-1001.46" transform="scale(4.0128 0.2492)" style="font-size:46.954;font-family:Arial;text-anchor:middle"/><text x="1761.07" y="-634.96" line-height="125%" style="letter-spacing:0;word-spacing:0;font-size:129.23;font-family:Gentium Book Basic"><tspan x="1761.07" y="-634.96"/></text><text x="635.94" y="-2897.13" transform="scale(4.0128 0.2492)" style="font-size:46.954;font-family:Arial;text-anchor:middle"/><text x="2342.33" y="-714.96" line-height="125%" style="letter-spacing:0;word-spacing:0;font-size:129.23;font-family:Gentium Book Basic"><tspan x="2342.33" y="-714.96"/></text><text x="780.79" y="-3218.16" transform="scale(4.0128 0.2492)" style="font-size:46.954;font-family:Arial;text-anchor:middle"/><text x="509.53" y="699.76" line-height="125%" style="letter-spacing:0;word-spacing:0;font-size:208.33;font-family:Gentium Book Basic"><tspan x="509.53" y="699.76"/></text></g><g transform="matrix(-0.37932 0 0 0.41353 308.54 746.37)" style="fill:#ff4500"><use xlink:href="#0"/><text line-height="125%" y="395.18" x="961.18" style="letter-spacing:0;word-spacing:0;font-size:129.23;font-family:Gentium Book Basic"><tspan y="395.18" x="961.18"/></text><text transform="scale(4.0128 0.2492)" y="1236.63" x="436.61" style="font-size:46.954;font-family:Arial;text-anchor:middle"/><text line-height="125%" y="315.18" x="1542.45" style="letter-spacing:0;word-spacing:0;font-size:129.23;font-family:Gentium Book Basic"><tspan y="315.18" x="1542.45"/></text><text transform="scale(4.0128 0.2492)" y="915.6" x="581.46" style="font-size:46.954;font-family:Arial;text-anchor:middle"/><text line-height="125%" y="133.92" x="470.87" style="letter-spacing:0;word-spacing:0;font-size:129.23;font-family:Gentium Book Basic"><tspan y="133.92" x="470.87"/></text><text transform="scale(4.0128 0.2492)" y="188.25" x="314.42" style="font-size:46.954;font-family:Arial;text-anchor:middle"/><text line-height="125%" y="-82.55" x="1568.92" style="letter-spacing:0;word-spacing:0;font-size:129.23;font-family:Gentium Book Basic"><tspan y="-82.55" x="1568.92"/></text><text transform="scale(4.0128 0.2492)" y="-680.43" x="588.06" style="font-size:46.954;font-family:Arial;text-anchor:middle"/><text line-height="125%" y="-162.56" x="2150.19" style="letter-spacing:0;word-spacing:0;font-size:129.23;font-family:Gentium Book Basic"><tspan y="-162.56" x="2150.19"/></text><text transform="scale(4.0128 0.2492)" y="-1001.46" x="732.91" style="font-size:46.954;font-family:Arial;text-anchor:middle"/><text line-height="125%" y="-634.96" x="1761.07" style="letter-spacing:0;word-spacing:0;font-size:129.23;font-family:Gentium Book Basic"><tspan y="-634.96" x="1761.07"/></text><text transform="scale(4.0128 0.2492)" y="-2897.13" x="635.94" style="font-size:46.954;font-family:Arial;text-anchor:middle"/><text line-height="125%" y="-714.96" x="2342.33" style="letter-spacing:0;word-spacing:0;font-size:129.23;font-family:Gentium Book Basic"><tspan y="-714.96" x="2342.33"/></text><text transform="scale(4.0128 0.2492)" y="-3218.16" x="780.79" style="font-size:46.954;font-family:Arial;text-anchor:middle"/><text line-height="125%" y="699.76" x="509.53" style="letter-spacing:0;word-spacing:0;font-size:208.33;font-family:Gentium Book Basic"><tspan y="699.76" x="509.53"/></text></g></g></svg>