<svg xmlns="http://www.w3.org/2000/svg" viewBox="0 0 256 256"><path d="M 251.41309,130.26594 C 273.24378,242.39126 123.51148,284.96921 42.19948,236.38024 -22.586417,197.66536 -4.0677883,65.046533 83.387804,15.606004 170.84339,-33.834525 233.89073,40.268162 251.41309,130.26594 z" style="fill:#fff;color:#000"/><g style="stroke-opacity:0.60392157;fill-rule:evenodd"><g style="stroke-width:5.052155"><g style="fill:#ff4500;stroke:#c0c0c0"><rect width="38.338615" height="131.41405" x="60.916466" y="71.201332" rx="2.2261941" style="opacity:0.91999996"/><rect y="70.620193" x="113.0813" height="131.41405" width="38.338615" rx="2.2261941" style="opacity:0.91999996"/><rect width="38.338615" height="131.41405" x="164.72008" y="71.511276" rx="2.2261941" style="opacity:0.91999996"/></g><g style="fill:#fff;stroke:#fff"><rect width="4.2512617" height="110.2018" x="81.980438" y="83.587006" ry="2.2261941" rx="2.12563085" style="opacity:0.91999996"/><rect ry="2.2261941" y="83.587006" x="137.94296" height="110.2018" width="4.2512617" rx="2.12563085" style="opacity:0.91999996"/><rect ry="2.2261941" y="83.141464" x="189.36801" height="110.2018" width="4.2512617" rx="2.12563085" style="opacity:0.91999996"/></g></g><g style="fill:#fff;stroke:#fff;stroke-width:6.38768625"><rect width="15.682811" height="13.024014" x="180.46651" y="117.59391" rx="2.894089" style="opacity:0.91999996"/><rect y="90.861702" x="129.4196" height="13.024014" width="15.682811" rx="2.894089" style="opacity:0.91999996"/><rect width="15.682811" height="13.024014" x="73.078926" y="142.54399" rx="2.894089" style="opacity:0.91999996"/></g></g></svg>