<svg xmlns="http://www.w3.org/2000/svg" viewBox="0 0 256 256"><g transform="translate(0 -796.36)"><path d="m 201.86 1026.57 c -188.96 126.21 -305.35 -276.27 -61.07 -222.99 100.95 22.706 162.22 165.11 61.07 222.99" style="fill:#fff;color:#000"/><path d="m 90.96 973.88 c -2.34 -2.82 -1.573 -7.01 5.848 -31.954 2.02 -6.792 2.687 -10.544 2.076 -11.696 -0.494 -0.933 -6.184 -5.364 -12.643 -9.847 -23.761 -16.493 -22.17 -15.16 -22.21 -18.639 -0.025 -2.196 0.506 -3.336 1.714 -3.678 1.808 -0.512 11.337 -1.185 31.25 -2.206 7.082 -0.363 11.996 -1.069 12.791 -1.838 0.71 -0.686 2.346 -4.364 3.637 -8.172 1.29 -3.808 3.551 -9.849 5.02 -13.424 1.473 -3.575 3.366 -8.482 4.206 -10.905 3.233 -9.323 8.06 -13.602 11.11 -9.845 1.07 1.317 6.352 15.961 11.361 31.495 1.702 5.278 3.708 9.633 4.675 10.15 0.932 0.498 9.794 1.198 19.694 1.557 22.736 0.824 22.5 0.774 22.5 4.701 0 3.711 -0.728 4.411 -18.75 18.03 -10.414 7.869 -13.25 10.516 -13.25 12.367 0 2.877 1.673 8.996 7.097 25.952 4.494 14.05 4.773 16.06 2.538 18.294 -1.854 1.854 -5.148 1.073 -9.683 -2.294 -1.898 -1.41 -7.276 -5.114 -11.951 -8.233 -4.675 -3.118 -10.447 -7.154 -12.827 -8.968 -2.38 -1.814 -4.923 -3.299 -5.651 -3.299 -1.291 0 -3.483 1.537 -23.815 16.698 -10.04 7.487 -12.509 8.45 -14.745 5.756 z" transform="matrix(1.20331 0 0 1.16901 -29.886 -147.34)" style="fill:#ff4500"/><path d="m 145.36 132.34 a 13.559 14.1 0 1 1 -27.12 0 13.559 14.1 0 1 1 27.12 0 z" transform="matrix(1.15374 0 0 1.18628 -24.601 769)" style="fill:#ffdead;stroke:#ffdead;fill-rule:evenodd"/></g></svg>