<svg xmlns="http://www.w3.org/2000/svg" viewBox="0 0 256 256"><defs><clipPath><path transform="matrix(15.33333 0 0 11.5 415 -125.5)" d="m -24 13 c 0 1.105 -0.672 2 -1.5 2 -0.828 0 -1.5 -0.895 -1.5 -2 0 -1.105 0.672 -2 1.5 -2 0.828 0 1.5 0.895 1.5 2 z"/></clipPath><clipPath><rect y="11.98" x="12.03" height="23.89" width="23.802" rx="4.099" style="fill:#fff"/></clipPath></defs><g transform="matrix(1.0018 0 0 0.99422 -1.249 -786.05)"><path d="m 124.5 1046.78 c -61.22 -6.742 -117.57 -52.54 -122.7 -115.81 -1.033 -12.758 -0.846 -34.674 2.509 -45.828 c 10.119 -33.65 33.584 -62.31 63.57 -77.63 18.1 -9.249 37.689 -13.661 55.09 -12.408 60.94 4.389 116.55 55.35 131.42 120.44 2.69 11.771 3.228 34.06 1.084 44.953 -8.662 44.01 -44.43 78.8 -88.94 86.51 -10.791 1.87 -30.594 1.03 -42.04 -0.23 z m 2.371 -62.41 c 25.931 -9.657 45.56 -36.461 52.25 -71.35 0.884 -4.61 1.614 -11.404 1.622 -15.1 0.017 -7.514 0.361 -8.298 7.898 -18.02 6.857 -8.84 6.893 -9.997 0.228 -7.398 -2.832 1.105 -5.632 2.01 -6.221 2.01 -0.589 0 0.604 -2.258 2.651 -5.02 2.048 -2.76 3.997 -6.69 4.332 -8.733 l 0.609 -3.715 l -6.644 3.676 c -3.654 2.02 -7.238 3.676 -7.965 3.676 -0.727 0 -3.286 -1.792 -5.687 -3.982 -9.343 -8.521 -23.581 -7.985 -33.19 1.248 -6.05 5.815 -10.209 17.716 -10.209 29.23 v 4.981 l -4.856 -0.686 c -6.818 -0.963 -14.997 -3.906 -21.595 -7.771 -5.475 -3.207 -19.448 -15.981 -25.07 -22.915 -1.603 -1.979 -3.154 -3.05 -3.663 -2.529 -1.077 1.103 -3.092 11.67 -3.092 16.212 0 6.282 2.199 13.404 6.103 19.771 2.156 3.515 3.451 6.56 2.879 6.767 -0.572 0.207 -2.83 -0.208 -5.02 -0.922 -2.187 -0.714 -4.169 -1.108 -4.404 -0.875 -1.089 1.077 2.38 14.12 5.04 18.95 2.617 4.753 4.47 6.52 12.555 11.973 2.539 1.712 0.904 2.689 -4.37 2.61 -5.27 -0.079 -5.457 0.411 -2.478 6.498 2.894 5.915 10.226 12.07 16.822 14.13 6.585 2.054 6.4 3.02 -1.586 8.3 -6.182 4.085 -14.537 6.702 -24.836 7.781 -6.796 0.712 -6.678 1.621 0.768 5.939 15.881 9.208 40.43 11.464 57.12 5.249 z" style="fill:#fff"/><path d="m 97.54 987.31 c -10.888 -1.133 -21.19 -4.441 -29.21 -9.376 -3.854 -2.373 -4.774 -3.419 -3.455 -3.931 0.303 -0.118 3.132 -0.588 6.288 -1.046 11.923 -1.728 18.611 -4.276 26.12 -9.952 1.288 -0.973 2.519 -2.162 2.734 -2.641 0.342 -0.76 0.293 -0.968 -0.378 -1.622 -0.423 -0.412 -2.206 -1.287 -3.961 -1.944 -8.873 -3.319 -15.764 -9.939 -18.49 -17.763 -0.763 -2.191 -0.362 -2.444 4.344 -2.743 4.429 -0.281 5.152 -0.475 5.152 -1.383 0 -0.643 -0.251 -0.856 -4.974 -4.231 -5.769 -4.122 -8.424 -7.676 -10.772 -14.417 -2.01 -5.773 -3.547 -12.955 -2.909 -13.601 0.082 -0.083 1.871 0.295 3.977 0.839 4.118 1.064 5.176 1.193 5.495 0.67 0.271 -0.444 -0.772 -2.78 -3.173 -7.11 -6.074 -10.949 -7.081 -18.457 -4.192 -31.26 0.717 -3.178 1.167 -4.226 1.816 -4.227 0.299 -0.001 2.046 1.632 3.882 3.629 6.299 6.849 15.582 15.562 20.96 19.675 6.301 4.818 17.06 8.929 27.03 10.327 l 2.921 0.41 l 0.006 -4.426 c 0.013 -10.01 2.636 -19.557 7.264 -26.46 5.744 -8.566 17.25 -12.796 26.778 -9.844 3.262 1.01 6.157 2.684 9.724 5.62 3.925 3.231 4.877 3.69 6.384 3.082 1.519 -0.613 7.623 -3.74 10.515 -5.388 2.365 -1.347 2.42 -1.361 2.42 -0.593 0 1.288 -0.939 4.543 -1.816 6.296 -0.451 0.901 -1.879 3.286 -3.174 5.301 -1.295 2.01 -2.354 3.949 -2.354 4.299 0 0.811 0.819 0.648 5.786 -1.151 3.643 -1.319 5.23 -1.609 5.23 -0.954 0 0.783 -1.285 2.751 -5.518 8.449 -4.499 6.06 -6.142 8.674 -6.783 10.804 -0.196 0.651 -0.509 3.998 -0.695 7.437 -1.807 33.28 -17.75 64.35 -40.748 79.4 -7.524 4.924 -14.501 7.758 -22.7 9.22 -4.447 0.793 -14.71 1.117 -19.528 0.615 z" style="fill:#ff4500;opacity:0.99;fill-rule:evenodd"/></g></svg>