<svg xmlns="http://www.w3.org/2000/svg" viewBox="0 0 256 256"><path d="M 3.2431221,126.78323 C -19.103912,15.737878 134.16986,-26.429989 217.40508,21.690989 283.72329,60.032989 264.76668,191.37448 175.24256,240.33881 85.718472,289.30315 21.179935,215.91418 3.2431221,126.78323 z" style="fill:#fff;color:#000"/><g style="stroke-opacity:0.60392157;fill-rule:evenodd"><rect y="58.566635" x="95.473007" height="137.83167" width="65.78083" rx="2.3349104" style="fill:#ff4500;opacity:0.91999996;stroke:#8b0000;stroke-width:6.77737951"/><g style="fill:#fff"><rect y="130.98987" x="-170.67801" height="18.972157" width="8.1709461" transform="matrix(0 -1 1 0 0 0)" rx="0.3832579" style="opacity:0.91999996;stroke:#c0c0c0;stroke-width:2.90614963"/><rect y="132.25366" x="101.56714" height="19.942158" width="53.60498" rx="4.4313812" style="opacity:0.91999996;stroke:#ffa07a;stroke-width:14.61328125"/><g transform="matrix(0 -1 1 0 0 0)" style="stroke:#c0c0c0"><rect width="8.1179676" height="19.793694" x="-187.48529" y="131.01602" rx="0.3998538" style="opacity:0.91999996;stroke-width:2.95876503"/><rect width="8.1709461" height="18.972157" x="-171.05547" y="106.2809" rx="0.3832579" style="opacity:0.91999996;stroke-width:2.90614963"/><rect y="105.67619" x="-186.59927" height="19.793694" width="8.1179676" rx="0.3998538" style="opacity:0.91999996;stroke-width:2.95876503"/></g></g></g></svg>