<svg xmlns="http://www.w3.org/2000/svg" viewBox="0 0 256 256"><g style="color:#000"><path d="m 124.73 804.91 c 90.18 -14.751 158.11 31.796 120.59 123.44 -25.739 62.875 -53.988 123.44 -120.59 123.44 -66.6 0 -120.59 -55.27 -120.59 -123.44 0 -68.17 54.823 -112.68 120.59 -123.44 z" transform="translate(0.435 -799.27)" style="fill:#fff"/><path d="m 131.83 204.03 c -61.6 9.856 -108.01 -21.245 -82.38 -82.48 17.583 -42.01 36.88 -82.48 82.38 -82.48 c 45.496 0 82.38 36.93 82.38 82.48 0 45.55 -37.451 75.29 -82.38 82.48 z m 29.363 -22.976 c 1.417 -0.176 2.827 -0.629 4.14 -1.389 5.261 -3.042 7.06 -9.775 4.02 -15.04 -3.035 -5.267 -9.763 -7.07 -15.02 -4.03 -5.257 3.039 -7.06 9.778 -4.02 15.04 2.279 3.95 6.628 5.944 10.88 5.417 z m -29.363 -11.659 c 4.423 0 8.706 -0.609 12.771 -1.732 0.717 -4.425 3.34 -8.517 7.521 -10.934 4.175 -2.409 8.991 -2.649 13.173 -1.067 8.133 -8.01 13.429 -18.903 14.199 -31.03 l -15.667 -0.222 c -1.445 16.43 -15.215 29.32 -31.998 29.32 -4.834 0 -9.424 -1.084 -13.535 -3 l -7.642 13.713 c 6.382 3.163 13.574 4.954 21.18 4.954 z m -26.507 -8.03 l 8.04 -13.49 c -8.259 -5.821 -13.656 -15.435 -13.656 -26.32 0 -10.883 5.395 -20.501 13.656 -26.32 l -8.04 -13.47 c -9.625 6.44 -16.778 16.279 -19.75 27.809 3.472 2.836 5.692 7.143 5.692 11.981 0 4.841 -2.22 9.165 -5.692 12 2.974 11.525 10.127 21.369 19.75 27.809 z m -29.504 -28.798 c 6.074 0 10.998 -4.93 10.998 -11.01 0 -6.082 -4.927 -11.01 -10.998 -11.01 -6.077 0 -10.998 4.933 -10.998 11.01 0 6.084 4.924 11.01 10.998 11.01 z m 88.01 -13.854 l 15.667 -0.241 c -0.77 -12.13 -6.066 -23.02 -14.199 -31.03 -4.181 1.582 -8.995 1.343 -13.173 -1.067 -4.181 -2.42 -6.805 -6.489 -7.521 -10.914 -4.065 -1.127 -8.348 -1.752 -12.771 -1.752 -7.602 0 -14.795 1.787 -21.18 4.954 l 7.642 13.713 c 4.112 -1.916 8.7 -2.98 13.535 -2.98 16.782 0 30.556 12.885 31.998 29.32 z m -5.35 -34.799 c 4.252 0.528 8.604 -1.489 10.88 -5.437 3.039 -5.267 1.239 -11.983 -4.02 -15.02 -5.261 -3.042 -11.988 -1.24 -15.02 4.03 -3.039 5.264 -1.238 12 4.02 15.04 1.314 0.76 2.726 1.213 4.14 1.389 z" style="fill:#ff4500"/></g></svg>