<svg xmlns="http://www.w3.org/2000/svg" viewBox="0 0 256 256"><g transform="matrix(-1 0 0 -1 260.86 255.47)"><path d="m 124.73,804.91 c 90.18,-14.751 158.11,31.796 120.59,123.44 -25.739,62.875 -53.988,123.44 -120.59,123.44 -66.6,0 -120.59,-55.27 -120.59,-123.44 0,-68.17 54.823,-112.68 120.59,-123.44 z m -42.983,34.386 c -2.075,0.263 -4.139,0.942 -6.06,2.079 -7.701,4.553 -10.336,14.629 -5.888,22.512 4.443,7.883 14.291,10.581 21.992,6.03 7.695,-4.548 10.331,-14.634 5.888,-22.512 -3.336,-5.912 -9.702,-8.896 -15.927,-8.107 z m 42.983,17.449 c -6.475,0 -12.745,0.911 -18.695,2.592 -1.05,6.622 -4.889,12.747 -11.01,16.364 -6.111,3.606 -13.162,3.964 -19.284,1.597 -11.905,11.986 -19.658,28.29 -20.785,46.44 l 22.934,0.332 c 2.115,-24.59 22.272,-43.879 46.84,-43.879 7.08,0 13.796,1.623 19.813,4.49 l 11.187,-20.523 c -9.342,-4.734 -19.87,-7.414 -31,-7.414 z m 38.803,12.02 -11.776,20.19 c 12.09,8.712 19.99,23.1 19.99,39.39 0,16.287 -7.898,30.682 -19.99,39.39 l 11.776,20.16 c 14.09,-9.638 24.561,-24.363 28.911,-41.619 -5.082,-4.245 -8.332,-10.691 -8.332,-17.931 0,-7.245 3.25,-13.717 8.332,-17.961 -4.354,-17.249 -14.824,-31.981 -28.911,-41.619 z m 43.19,43.1 c -8.891,0 -16.1,7.378 -16.1,16.485 0,9.102 7.213,16.485 16.1,16.485 8.896,0 16.1,-7.383 16.1,-16.485 0,-9.106 -7.208,-16.485 -16.1,-16.485 z m -128.83,20.734 -22.934,0.361 c 1.127,18.15 8.88,34.457 20.785,46.44 6.121,-2.367 13.168,-2.01 19.284,1.597 6.121,3.622 9.962,9.712 11.01,16.334 5.95,1.687 12.22,2.622 18.695,2.622 11.129,0 21.658,-2.675 31,-7.414 l -11.187,-20.523 c -6.02,2.867 -12.736,4.46 -19.813,4.46 -24.567,0 -44.73,-19.284 -46.84,-43.879 z m 7.831,52.08 c -6.224,-0.79 -12.595,2.229 -15.927,8.137 -4.448,7.883 -1.813,17.934 5.888,22.482 7.701,4.553 17.549,1.856 21.992,-6.03 4.448,-7.878 1.812,-17.959 -5.888,-22.512 -1.924,-1.137 -3.99,-1.816 -6.06,-2.079 z" transform="matrix(-1 0 0 -1 260.43 1054.74)" style="fill:#fff;color:#000"/><g style="fill:#ff4500;fill-rule:evenodd"><path d="M 94.42,184 C 82.32,174.827 73.21,161.673 68.925,147.205 l -0.785,-2.652 1.233,-1.282 c 4.24,-4.409 6.277,-8.722 6.882,-14.576 0.269,-2.598 -10e-4,-6.104 -0.658,-8.533 -0.976,-3.611 -3.33,-7.685 -5.96,-10.315 l -1.499,-1.499 0.791,-2.723 c 3.515,-12.1 11.03,-24.08 20.448,-32.587 2.557,-2.311 6.988,-5.795 7.37,-5.795 0.169,0 4.862,7.882 11.05,18.56 l 0.689,1.189 -1.451,1.094 c -6.408,4.831 -12.375,13 -15.362,21.04 -3.396,9.135 -3.975,19.982 -1.572,29.485 2.513,9.943 8.474,19.285 16.372,25.662 1.047,0.845 1.873,1.637 1.837,1.758 -0.116,0.385 -11.04,19.1 -11.331,19.408 -0.209,0.224 -0.847,-0.133 -2.562,-1.434 z" style="opacity:0.99"/><path d="m 174.12 215.21 c -7.648 -1.38 -13.33 -8.25 -13.33 -16.12 0 -6.144 3.531 -11.931 8.883 -14.559 3.547 -1.741 6.473 -2.151 10.1 -1.414 5.919 1.203 10.789 5.891 12.375 11.912 0.527 2 0.521 6.127 -0.013 8.122 -1.051 3.931 -4.03 8 -7.316 9.98 -3 1.81 -7.421 2.667 -10.7 2.076 z" style="opacity:0.99"/><g><path d="m 131.06,197.67 c -7.891,-0.505 -16.291,-2.628 -23.57,-5.959 -1.326,-0.607 -2.411,-1.193 -2.411,-1.304 0,-0.182 10.789,-20.12 10.887,-20.12 0.023,0 1.01,0.409 2.192,0.91 5.06,2.142 11.557,3.405 17.509,3.405 18.988,0 35.749,-11.307 43.38,-29.26 1.337,-3.148 2.684,-8.04 3.215,-11.69 0.227,-1.557 0.429,-2.837 0.449,-2.845 0.06,-0.023 22.1,0.343 22.309,0.37 0.29,0.038 0.229,1.668 -0.179,4.757 -1.897,14.38 -7.987,27.678 -17.711,38.669 -2.423,2.738 -2.052,2.627 -5.904,1.776 -2.136,-0.471 -3.02,-0.538 -5.584,-0.418 -3.499,0.163 -5.256,0.579 -8.152,1.931 -6.37,2.974 -10.908,8.374 -12.633,15.04 l -0.608,2.347 -2.248,0.566 c -3.747,0.943 -8.117,1.59 -12.527,1.856 -2.303,0.139 -4.416,0.237 -4.695,0.218 -0.279,-0.019 -1.95,-0.127 -3.714,-0.24 z" style="opacity:0.99"/><path d="m 182.36,119.82 c -0.999,-7.245 -3.881,-14.971 -7.686,-20.602 -2.713,-4.02 -7.501,-9.06 -11.182,-11.783 -10.878,-8.04 -24.531,-11.03 -37.639,-8.239 -2.395,0.511 -6.377,1.785 -8.569,2.743 -0.686,0.3 -1.327,0.455 -1.425,0.346 -0.294,-0.33 -10.93,-19.931 -10.852,-19.999 0.244,-0.212 2.934,-1.466 4.768,-2.223 5.366,-2.213 12.814,-4.111 18.655,-4.753 3.289,-0.362 11.259,-0.362 14.34,-0.001 2.608,0.306 6.616,1.025 9.636,1.73 l 1.895,0.442 0.282,1.389 c 0.409,2.02 0.82,3.167 1.947,5.45 4.899,9.922 16.294,14.851 26.824,11.601 l 1.37,-0.423 1.375,1.518 c 10.311,11.378 16.423,24.21 18.619,39.08 0.268,1.815 0.488,3.776 0.488,4.358 l 0.001,1.058 -1.586,0.138 c -0.872,0.076 -5.944,0.19 -11.271,0.254 l -9.685,0.116 -0.303,-2.201 z" style="opacity:0.99"/></g><g><path d="m 173.12 69.63 c -2.932 -0.709 -5.153 -2.01 -7.507 -4.388 -3.301 -3.339 -4.82 -6.947 -4.82 -11.455 0 -7.957 5.576 -14.774 13.198 -16.13 5.18 -0.925 9.921 0.644 13.838 4.578 3.284 3.299 4.713 6.761 4.72 11.436 0.004 2.943 -0.419 4.809 -1.669 7.36 -3.229 6.59 -10.84 10.277 -17.76 8.604 z" style="opacity:0.99"/><path d="m 49.763 142.23 c -4.275 -1.173 -8.35 -4.552 -10.241 -8.493 -3.214 -6.698 -1.994 -13.867 3.244 -19.06 3.072 -3.048 6.635 -4.541 10.833 -4.541 2.804 0 4.368 0.356 6.939 1.581 4.248 2.023 7.776 6.551 8.757 11.236 1.774 8.479 -3.495 17.15 -11.712 19.268 -1.903 0.491 -6.05 0.497 -7.819 0.012 z" style="opacity:0.99"/></g></g></g></svg>