<svg xmlns="http://www.w3.org/2000/svg" viewBox="0 0 256 256"><g transform="translate(0 -796.36)" style="fill:#ffdead;color:#000"><path d="m 3.74 950.97 c 19.829 131.87 217.21 135.83 247.04 7.636 30.702 -103.78 -80.47 -188.63 -163.63 -154.63 -55.684 16.07 -100.67 81.83 -83.41 146.99 z" style="fill:#fff"/><g transform="matrix(0.68221 0 0 0.70338 43.788 272.01)"><g transform="translate(-2.176 0.001)"><path d="M 211.17,833.49 C 412.99,1099.87 -142.42,1137.71 35.82,865.8 76.454,803.809 157.71,762.94 211.17,833.49 z" style="fill:#ffe4b5"/><path d="m 128 63.56 c -35.583 0 -64.44 28.855 -64.44 64.44 0 35.583 28.855 64.44 64.44 64.44 35.583 0 64.44 -28.855 64.44 -64.44 0 -35.583 -28.855 -64.44 -64.44 -64.44 z m 0 53.594 c 5.996 0 10.844 4.848 10.844 10.844 0 5.996 -4.848 10.844 -10.844 10.844 -5.996 0 -10.844 -4.848 -10.844 -10.844 0 -5.996 4.848 -10.844 10.844 -10.844 z" transform="translate(0 796.36)" style="fill:#ff4500"/><path d="m 128 899.92 c -13.495 0 -24.438 10.943 -24.438 24.437 0 13.495 10.943 24.438 24.438 24.438 13.495 0 24.437 -10.943 24.437 -24.438 0 -13.495 -10.943 -24.437 -24.437 -24.437 z m 0 14.325 c 5.592 0 10.112 4.521 10.112 10.112 0 5.592 -4.521 10.112 -10.112 10.112 -5.592 0 -10.112 -4.521 -10.112 -10.112 0 -5.592 4.521 -10.112 10.112 -10.112 z" style="fill:none;stroke:#ffb49b;stroke-width:6"/></g><path d="m 50.702,923.61 c 3,-5.669 7.05,-10.492 11.552,-14.572 -3.798,25.293 9.243,52.759 34.26,67.19 0.158,0.091 0.257,0.148 0.415,0.239 l -2.504,-38.66 63.15,54.29 -56.25,50.813 -1.67,-26.454 C 92.719,1015 85.965,1012.472 79.35,1008.655 48.23,990.7 35.34,952.625 50.692,923.625 z" style="fill:#fff;opacity:0.75"/></g></g></svg>