<svg xmlns="http://www.w3.org/2000/svg" viewBox="0 0 256 256"><path d="m 251.64 98.9 c -49.54 -237.88 -390.35 17.492 -185.62 138.4 79.53 51.828 211.1 -16.06 185.62 -138.4 z" fill="#fff" color="#000"/><path d="m 62.06 197.23 c -2.147 -1.518 -2.199 -3.933 -1.332 -61.986 0.903 -60.47 1.182 -68.23 2.528 -70.34 0.451 -0.706 25.864 -1.128 67.93 -1.128 61.16 0 67.28 0.172 67.966 1.908 0.722 1.821 3.02 87.89 3.083 115.37 0.025 11.565 -0.252 13.368 -2.379 15.424 -2.349 2.272 -4.01 2.328 -68.985 2.328 -54.17 0 -66.994 -0.294 -68.812 -1.58 z m 85.04 -20.07 c 7.155 -2.24 15.217 -9.09 19.351 -16.431 4.227 -7.511 5.412 -16.35 6.304 -47.05 0.874 -30.07 1.333 -28.947 -11.862 -28.947 -5.163 0 -9.289 0.568 -10.146 1.397 -1.036 1 -1.453 8.816 -1.474 27.647 -0.032 28.741 -0.938 35.13 -5.656 39.901 -8.954 9.06 -25.2 5.839 -29.427 -5.832 -1.149 -3.17 -1.503 -11.708 -1.323 -31.928 0.289 -32.522 0.791 -31.18 -11.701 -31.18 -13.1 0 -12.05 -2.539 -12.05 29.01 0 15.18 0.59 30.686 1.311 34.46 4.059 21.236 20.613 33.05 43.829 31.27 3.972 -0.304 9.752 -1.344 12.844 -2.312 z" fill="#ffa07a"/><path d="m 124.98 179.22 c -6.579 -0.569 -13.326 -2.813 -18.601 -6.187 -4.427 -2.832 -9.362 -8.424 -11.93 -13.517 -4.341 -8.609 -4.968 -14.573 -5 -47.562 -0.031 -29.1 -0.946 -26.914 11.284 -26.914 9.01 0 9.142 0.04 10.763 3.248 l 0.897 1.776 0.229 24.941 c 0.26 28.381 0.426 30.896 2.286 34.687 2.792 5.692 8.87 9.244 15.787 9.228 9.01 -0.02 15.423 -5.089 17.19 -13.591 0.926 -4.468 1.268 -11.143 1.482 -28.888 0.194 -16.182 0.621 -27.477 1.107 -29.29 0.112 -0.42 0.586 -0.938 1.053 -1.151 1.619 -0.738 7.132 -1.223 11.994 -1.056 6.115 0.21 7.262 0.628 8.359 3.048 0.689 1.52 0.795 2.496 0.924 8.535 0.08 3.75 -0.038 11.986 -0.262 18.302 -0.971 27.349 -1.814 35.03 -4.639 42.31 -2.798 7.205 -10.326 15.03 -17.824 18.536 -5.825 2.721 -16.773 4.27 -25.09 3.552 l 0 0 z" fill="#ff4500" stroke="#ff4500" stroke-width="0.359"/></svg>