<svg xmlns="http://www.w3.org/2000/svg" xmlns:xlink="http://www.w3.org/1999/xlink" viewBox="0 0 256 256"><defs><path id="1" d="m 222.07 93.61 a 46.651 46.651 0 1 1 -93.3 0 46.651 46.651 0 1 1 93.3 0 z" style="fill:#58bcee;fill-rule:evenodd"/><path id="2" d="m 222.07 93.61 a 46.651 46.651 0 1 1 -93.3 0 46.651 46.651 0 1 1 93.3 0 z" style="fill:#9df6f0;fill-rule:evenodd"/><clipPath id="3"><use transform="matrix(0.90148 0 0 0.90148 144.85 -2.372)" xlink:href="#2"/></clipPath><clipPath><use transform="matrix(3.56167 0 0 3.56167 -380.19 -41.771)" xlink:href="#1"/></clipPath><clipPath><use xlink:href="#2" transform="matrix(3.56167 0 0 3.56167 -380.19 -41.771)"/></clipPath><clipPath><path d="m 213.27 114.19 c 0.152 0.609 3.065 7.7 4.287 10.663 0.33 1.348 1.151 1.716 2.249 2.472 l 5.191 3.576 c 1.884 0.973 1.823 1.627 1.036 3.23 -1.748 2.473 -6.276 2.808 -11.222 2.82 -2.287 0.254 -2.921 -0.245 -4.489 -1.874 l -17.649 -13.562 z"/></clipPath><clipPath><path d="m 398.41 222.99 l -91.24 1.267 c -3.981 0.431 -7.517 0.14 -11.278 -0.966 l -37.613 -11.06 c -5.092 -0.846 -5.633 -2.086 -7.486 -6.534 l -3.059 -7.343 c -2.855 -4.826 -0.169 -5.937 3.273 -9.723 l 18.255 -20.08 c 18.921 -26.807 37.803 -58.05 64.4 -70.15 38.791 -14.804 81.87 -6.077 110.06 22.977 19.501 20.1 26.947 50.01 27.26 80.12 l -69.3 32.2 c -1.878 -6.381 -3.276 -10.704 -3.276 -10.704 z"/></clipPath><clipPath><path d="m 385.18 222.99 l 85.66 -27.13 c 0.76 18.658 -1.349 37.624 -5.147 54.59 -7.401 33.06 -61.707 84.7 -61.707 84.7 0 0 -1.662 -37.89 -4.781 -56.55 -3.152 -18.856 -14.02 -55.614 -14.02 -55.614 z"/></clipPath><clipPath id="0"><path d="m 455.38 420.08 a 94.75 94.75 0 1 1 -189.5 0 94.75 94.75 0 1 1 189.5 0 z" transform="matrix(1.12896 0 0 1.12896 -266.77 -103.02)"/></clipPath><clipPath><path d="m 295.5 170.71 c 0 0 10.917 -20.18 22.16 -22.802 9.4 -2.194 27.544 8.317 27.544 8.317 0 0 -11.654 14.214 -20.729 16.878 -9.163 2.689 -28.97 -2.393 -28.97 -2.393 z"/></clipPath><clipPath><use xlink:href="#1" transform="matrix(4.25438 0 0 4.25438 -467.55 -141.82)"/></clipPath></defs><g transform="translate(0 -796.36)"><path d="m 181.09 803.65 c -358.18 -69.03 -90.96 470.27 65.45 139.31 14.568 -62.823 5.723 -115.39 -65.45 -139.31 z" style="fill:#fff;color:#000"/><g transform="matrix(-0.3542 0 0 0.36533 222.17 819.52)" style="fill:#ff4500"><path transform="matrix(4.25438 0 0 4.25438 -461.55 -147.82)" d="m 222.07 93.61 c 0 25.765 -20.886 46.651 -46.651 46.651 -25.765 0 -46.651 -20.886 -46.651 -46.651 0 -25.765 20.886 -46.651 46.651 -46.651 25.765 0 46.651 20.886 46.651 46.651 z" style="fill:#ffdead;fill-rule:evenodd"/><path transform="matrix(4.62757 0 0 4.70051 -1114.5 -133.37)" d="m 280.37 38.672 l -0.707 12.728 l 2.475 3.889 l 0.707 3.182 l -0.707 3.182 l 2.475 0.354 l 1.768 3.889 l -2.121 2.652 l 1.414 2.652 l 0.53 1.768 l 3.01 2.828 l 0.707 3.182 l 0.086 4.523 l -0.75 5.25 l -0.456 4.517 l 3.642 2.208 l -1.868 -2.38 l -0.319 -2.346 l 0.562 -2.25 l 1.188 -2 l 1.25 4.25 l 0.25 3.5 l 2.75 5.5 l 3.5 1.25 l 2.5 1.5 l 3.75 0.75 l 0.884 2.244 l -2.672 1.087 l -4.596 3.733 l -2.631 5.433 l -3.536 5.657 l -4.596 6.718 c 0 0 -2.121 6.718 -0.354 6.718 1.768 0 23.335 0.354 24.749 1.061 1.414 0.707 19.09 -4.95 19.09 -4.95 l -9.546 -14.849 l -5.459 -2.532 l -3.686 -5.662 l -2.522 -2.766 l -2.475 -6.01 l 2.251 -2.839 l -2.823 -1.487 l -2.724 0.463 l 1.174 3.614 l -2.828 -2.226 l -0.707 -1.414 v -4.243 l 1.061 -4.243 l 3.182 -4.596 l 11.839 -0.728 l 3.38 -3.047 l -2.239 -2.574 l -0.647 -3.628 l -4.03 -2.099 l -1.231 -2.773 l 5.082 1.565 l 5.525 -0.858 l -1.414 -6.364 l 1.414 -6.01 l 2.121 -5.303 c 0 0 0.707 -7.07 2.121 -8.132 1.414 -1.061 3.889 -22.981 3.889 -22.981 0 0 -30.05 -1.414 -31.466 -0.707 -1.414 0.707 -25.1 16.263 -25.1 16.263 z" style="clip-path:url(#3)"/><path transform="matrix(1.12896 0 0 1.12896 -260.77 -109.02)" d="m 455.38 420.08 c 0 52.33 -42.42 94.75 -94.75 94.75 -52.33 0 -94.75 -42.42 -94.75 -94.75 0 -52.33 42.42 -94.75 94.75 -94.75 52.33 0 94.75 42.42 94.75 94.75 z" style="fill-rule:evenodd"/><path transform="translate(6 -6)" d="m 162.63 326.03 l 120.18 69.39 l -57.22 102.58 c 0 0 -78.958 -48.51 -88.42 -51.05 z" style="clip-path:url(#0);opacity:0.543"/><path d="m 129.86 319.75 c -7.286 0 -13.144 5.872 -13.144 13.158 v 38.86 h -22.644 c -2.735 0 -5.413 1.633 -6.661 4.068 -1.248 2.434 -1.01 5.559 0.587 7.78 l 52.29 54.26 c 1.379 1.918 3.711 3.112 6.074 3.112 2.362 0 4.695 -1.194 6.074 -3.112 l 52.29 -54.26 c 1.596 -2.221 1.835 -5.346 0.587 -7.78 -1.248 -2.434 -3.926 -4.067 -6.661 -4.068 h -22.644 v -38.86 c 0 -7.286 -5.859 -13.158 -13.144 -13.158 z" style="fill:#ffdead;color:#000;fill-rule:evenodd"/></g></g></svg>