<svg xmlns="http://www.w3.org/2000/svg" viewBox="0 0 256 256"><defs><linearGradient id="0" x1="4" x2="44" gradientUnits="userSpaceOnUse"><stop style="stop-color:#800"/><stop offset="1" style="stop-color:#ba0000"/></linearGradient><linearGradient id="1" gradientUnits="userSpaceOnUse" y1="1045.82" x2="0" y2="1010.58"><stop style="stop-color:#f40000"/><stop offset="1" style="stop-color:#fe7d7d"/></linearGradient><linearGradient id="2" gradientUnits="userSpaceOnUse" gradientTransform="matrix(0.60236 0 0 0.50094 9.543 -510.52)" x1="0.481" x2="47.519"><stop style="stop-color:#940000"/><stop offset="1" style="stop-color:#d00"/></linearGradient></defs><g transform="translate(0 -796.36)"><path d="m 44.834 1015.23 c -201.82 -266.38 353.59 -304.22 175.35 -32.31 -40.634 61.991 -121.89 102.86 -175.35 32.31 z" style="fill:#fff;color:#000"/><g transform="matrix(3.2242 0 0 3.38806 48.27 -2569.11)"><path d="m 4,-1048.36 h 40 v 40 H 4 z" transform="scale(1 -1)" style="fill:url(#0)"/><path d="m 7.903,1010.86 c -0.786,0 -1.403,0.617 -1.403,1.403 v 32.19 c 0,0.785 0.617,1.403 1.403,1.403 h 32.19 c 0.786,0 1.403,-0.617 1.403,-1.403 v -32.19 c 0,-0.785 -0.617,-1.403 -1.403,-1.403 H 7.903 z m 0.214,0.238 h 31.766 c 0.776,0 1.379,0.603 1.379,1.379 v 27.15 H 6.738 v -27.15 c 0,-0.776 0.603,-1.379 1.379,-1.379 z m -1.379,28.723 h 34.524 v 4.423 c 0,0.776 -0.603,1.379 -1.379,1.379 H 8.117 c -0.776,0 -1.379,-0.603 -1.379,-1.379 v -4.423 z" style="fill:url(#1)"/><path d="m 9.543,-1037.69 h 28.913 v 24.04 H 9.543 z" transform="scale(1 -1)" style="fill:url(#2)"/><path d="m 4 1048.36 c 20 -1 20 -1 40 0 z" style="opacity:0.5"/><path d="m 4 1008.36 c 20 1 20 1 40 0 z" style="fill:#fe4b4b;opacity:0.75"/></g></g></svg>