<svg xmlns="http://www.w3.org/2000/svg" viewBox="0 0 256 256"><g transform="translate(0 -796.36)"><path d="m 52.774 1027.39 c 192.46 127.95 311 -280.09 62.2 -226.07 -102.82 23.02 -165.22 167.39 -62.2 226.07 z" style="fill:#fff;color:#000"/><g transform="matrix(4.28034 0 0 4.28034 216.94 -760.29)"><path d="m -3.831 393.35 c 0 8.941 -7.248 16.189 -16.189 16.189 -8.941 0 -16.189 -7.248 -16.189 -16.189 0 -8.941 7.248 -16.189 16.189 -16.189 8.761 0 15.932 6.969 16.182 15.727" style="fill:#ff4500"/><g style="fill:#ffdead"><path d="m -20.01 383.1 c -3.869 0 -6.984 2.915 -6.984 6.536 v 12.83 h 1.552 v -12.83 c 0 -2.816 2.423 -5.084 5.432 -5.084 3.01 0 5.432 2.267 5.432 5.084 v 12.83 h 1.552 v -12.83 c 0 -3.621 -3.115 -6.536 -6.984 -6.536 z"/><path transform="scale(1 -1)" d="m -28.803 -402.47 h 17.589 v 10.346 h -17.589 z"/></g><path d="m -20.01 394.19 a 1.293 1.293 0 0 0 -1.293 1.293 1.293 1.293 0 0 0 0.776 1.184 v 3.73 h 1.035 v -3.73 a 1.293 1.293 0 0 0 0.776 -1.184 1.293 1.293 0 0 0 -1.293 -1.293 z" style="fill:#ff4500"/></g></g></svg>