<svg xmlns="http://www.w3.org/2000/svg" xmlns:xlink="http://www.w3.org/1999/xlink" viewBox="0 0 256 256"><defs><clipPath><path transform="matrix(15.33333 0 0 11.5 415 -125.5)" d="m -24 13 c 0 1.105 -0.672 2 -1.5 2 -0.828 0 -1.5 -0.895 -1.5 -2 0 -1.105 0.672 -2 1.5 -2 0.828 0 1.5 0.895 1.5 2 z"/></clipPath><linearGradient gradientUnits="userSpaceOnUse" x2="368.62" x1="300.93" gradientTransform="matrix(0.94135 0 0 1.06231 -194.47 -210.64)" id="5" xlink:href="#1"/><linearGradient gradientUnits="userSpaceOnUse" gradientTransform="matrix(0.94365 0 0 1.05972 -194.47 -210.64)" y2="355.1" x2="290.38" y1="250.86" x1="441.76" id="4"><stop style="stop-color:#f00"/><stop offset="1" style="stop-color:#6e0000;stop-opacity:0.408"/></linearGradient><linearGradient id="3"><stop style="stop-color:#f00"/><stop offset="0.5" style="stop-color:#8d0000;stop-opacity:0.859"/><stop offset="1"/></linearGradient><linearGradient gradientUnits="userSpaceOnUse" x2="253.97" x1="186.97" gradientTransform="matrix(2.1917 0 0 1.80476 -367.37 -959.73)" id="0" xlink:href="#1"/><linearGradient id="1"><stop style="stop-color:#f00"/><stop offset="1" style="stop-color:#f00;stop-opacity:0.078"/></linearGradient><radialGradient gradientUnits="userSpaceOnUse" gradientTransform="matrix(0.49157 0 0 2.03429 -194.47 -210.64)" r="35.843" cy="164.56" cx="804.72" id="6" xlink:href="#3"/><radialGradient gradientTransform="matrix(1.98521 0 0 1.99248 -367.37 -959.73)" gradientUnits="userSpaceOnUse" r="68.3" cy="544.58" cx="249.7" id="2" xlink:href="#3"/></defs><g style="fill:#dc00dc"><path d="m 229.63 992.2 c 92.05 -130.93 -77.948 -263.6 -186.39 -156.91 -102.17 100.51 -7.449 256.68 119.69 207.86 c 26.526 -10.185 49.802 -26.914 66.7 -50.948 z" transform="matrix(0 0.99081 -0.99081 0 1045.57 0.875)" style="fill:#fff;color:#000"/></g><g transform="matrix(0.69216 0 0 0.74291 21.15 37.27)"><g style="fill-rule:evenodd"><path transform="matrix(1.98521 0 0 1.99248 -367.37 -959.73)" d="m 298.13 543.92 c 0 27.1 -21.966 49.06 -49.06 49.06 -27.1 0 -49.06 -21.966 -49.06 -49.06 0 -27.1 21.966 -49.06 49.06 -49.06 27.1 0 49.06 21.966 49.06 49.06 z" style="fill:#c10000;stroke:#180000;stroke-width:1.25"/><path d="m 119.58 35.944 c -42.606 0 -77.18 34.758 -77.18 77.52 0 16.1 4.891 31.01 13.276 43.4 18.479 -5 39.494 -15.384 66.5 -38.604 28.05 -24.11 48.957 -33.706 67.06 -37.608 -12.332 -26.331 -38.778 -44.706 -69.67 -44.706 z" style="fill:url(#0);fill-opacity:0.452"/><path d="m 128.34 33.729 c -7.01 0 -13.733 0.988 -20.286 2.491 5.02 -0.944 10.154 -1.619 15.447 -1.619 46.25 0 83.81 37.7 83.81 84.12 0 46.42 -37.563 84.06 -83.81 84.06 -46.25 0 -83.75 -37.638 -83.75 -84.06 0 -11.605 2.334 -22.692 6.576 -32.751 -5.725 11.973 -9.244 25.19 -9.244 39.35 0 50.551 40.891 91.59 91.26 91.59 50.37 0 91.26 -41.04 91.26 -91.59 0 -50.551 -40.891 -91.59 -91.26 -91.59 z m -82.01 52.24 c 1.789 -4.244 4.084 -8.163 6.514 -12.02 -2.549 3.763 -4.537 7.882 -6.514 12.02 z" style="fill:url(#2);fill-opacity:0.75"/></g><path d="m 127.55,25.572 -20.397,2.295 -17.338,5.354 -16.573,8.414 -14.533,11.473 -12.748,16.828 -6.884,13 -6.629,25.497" style="fill:none;stroke:#180000;stroke-width:1.25"/><path d="m 128.37,25.08 -12.344,7.25 -9.781,8.25 -9.75,12.375 -9.125,16.06 -6.719,17.16 30.375,3.03 -1.938,19.781 -1.969,21.03 41.03,0.219 0.438,20 -0.438,18.875 35.813,-4.781 -3.25,16.938 24.09,-7.156 -7.156,13.875 8.875,-6.719 3.75,-4.406 c 9.721,-15.323 15.438,-33.471 15.438,-52.969 0,-54.17 -43.518,-98.17 -97.34,-98.81 z" style="fill:url(#4);fill-rule:evenodd"/><g style="fill:none;stroke:#180000"><path d="m 207.87,179.83 -11.219,12.748 -10.709,8.669" style="stroke-linecap:round;stroke-width:1.25"/><g transform="translate(-194.47 -210.64)" style="stroke-opacity:0.437;stroke-width:0.825"><path d="m 349.05,372.11 35.95,-5.099 0.765,-18.358 -35.44,4.589 -1.275,18.868 z"/><path d="m 383.72,383.84 19.377,-6.119 4.334,-14.278 -21.417,5.609 -2.295,14.788 z"/><path d="m 309.27,333.61 38.5,-0.51 -0.765,-18.868 -35.695,0.255 -2.04,19.12 z"/><path d="m 283.27,291.8 27.791,2.295 2.55,-13.513 -24.732,-2.04 -5.609,13.258 z"/><path d="m 294.74,270.13 21.16,1.785 3.06,-8.924 -18.1,-1.275 -6.119,8.414 z"/><path d="m 399.53,388.94 4.334,-4.079 3.06,-9.434 -4.844,4.079 -2.55,9.434 z"/><path d="m 391.78,301.23 -4.844,-13 16.828,-3.06 7.649,11.728 -19.632,4.334 z"/><path d="m 358.23,338.92 -1.53,-19.887 30.09,-2.04 2.805,17.08 -31.361,4.844 z"/><path d="m 317.18,305.82 2.04,-14.788 h 26.771 l 1.02,14.278 -29.831,0.51 z"/><path d="m 302.39,238.51 0.765,1.785 2.295,1.275 5.099,1.275"/><path d="m 322.02,236.21 -10.964,6.629 -10.199,8.669 -9.689,12.493 -8.924,15.298 -7.139,18.1 -5.864,19.632 -3.315,19.887 -0.765,20.14 1.275,18.358 3.57,17.08 6.119,14.278 6.884,10.964 8.414,7.904 9.944,4.589 14.788,1.785"/><path d="m 321.77,236.47 -18.358,3.57 -18.1,6.374 -17.338,9.689 -14.278,12.493 -12.493,16.06 -8.669,17.08 -5.864,17.338 -1.53,20.397 2.04,18.868 6.374,17.593 9.434,15.298 13.513,14.278 8.669,6.629 0.255,0.51"/><path d="m 321.51,236.72 -16.06,4.844 -15.298,7.649 -14.278,11.219 -12.748,14.533 -10.454,16.06 -8.669,19.12 -4.334,19.12 -1.02,19.632 1.53,18.358 5.354,18.1 8.414,15.04 10.964,12.493 13.258,8.669 14.533,5.354 12.493,3.57 8.159,1.275"/><path d="m 303.92,320.1 -34.42,-3.315 -25.497,-6.374 -11.219,-8.159 0.51,-8.159"/><path d="m 343.18,360.89 -39.775,0.51 -38.5,-4.334 -26.26,-7.394 -13,-9.944"/><path d="m 401.83,390.98 -9.434,7.904 -22.947,7.649 -29.831,4.334 h -33.401 l -29.831,-3.57 -22.18,-6.629 -10.709,-8.669" style="stroke-linecap:round"/><path d="m 380.41,411.63 -18.1,6.629 -25.752,3.06 h -27.791 l -25.497,-3.315 -18.1,-5.354"/><path d="m 367.92,421.07 -14.278,4.589 -19.632,2.55 h -22.18 l -20.652,-2.55"/><path d="m 252.93,263.75 -0.51,5.609 9.944,6.374 19.377,4.079"/><path d="m 267.71,252.28 -0.51,4.079 7.394,4.334 16.573,3.315"/><path d="m 284.29,243.86 0.51,3.315 5.099,2.04 10.964,2.04"/><path d="m 305.7,299.96 -30.341,-2.805 -23.2,-5.099 -10.454,-6.629 -1.53,-4.079 0.255,0.255"/><path d="m 305.7,299.96 -2.04,20.14 -2.04,20.907 -0.255,20.14 0.765,18.613 2.805,16.828 2.55,14.02 3.06,10.199 3.06,6.884 2.805,3.825 2.04,1.275 6.374,0.51"/><g style="stroke-linecap:round"><path d="m 342.87,341.05 -40.479,-0.045 -36.21,-4.079 -26.26,-7.139 -13.258,-10.709"/><path d="m 342.88,341.11 0.3,19.781 -0.255,19.12 -1.275,17.08 -2.04,13.513 -3.06,10.709 -2.55,6.884 -3.315,3.57 -13.513,0.255"/><path d="m 378.37,375.17 -35.19,5.099 h -41.05 l -35.44,-4.589 -26.517,-7.649 -13,-9.944"/><path d="m 378.37,375.23 -3.06,16.767 -5.864,14.02 -7.394,12.238 -9.689,8.159 -7.904,3.315 -13.513,2.295"/><path d="m 399.79,384.61 -24.732,7.394 -33.15,4.589 -36.855,0.74 -35.3,-4.565 -24.22,-7.394 -11.983,-9.944"/><path d="m 399.79,384.86 -7.904,14.278 -11.728,12.748 -11.728,8.924 -12.238,4.589 -10.709,4.079"/></g></g><path d="m 125.16,26.771 57.946,104.49 57.33,-104.49" style="stroke-opacity:1;stroke-linecap:round;stroke-linejoin:round;stroke-width:15"/></g><g style="stroke:none;fill-rule:evenodd"><path d="m 106.41,51.08 -6.125,8.406 21.16,1.781 3.063,-8.906 -18.09,-1.281 z m -12,16.813 -5.594,13.281 27.781,2.281 2.531,-13.5 -24.719,-2.063 z m 115.12,6.125 -17.06,3.563 4.844,13 19.656,-4.156 c -0.283,-0.679 -0.609,-1.329 -0.906,-2 l -6.531,-10.406 z m -84.78,6.375 -2.031,14.781 29.813,-0.5 -1,-14.281 h -26.781 z m 27.781,23.22 -35.688,0.25 -2.031,19.13 38.5,-0.531 -0.781,-18.844 z m 39.781,2.75 -30.09,2.031 1.531,19.875 31.375,-4.844 -2.813,-17.06 z m -1.031,31.656 -35.438,4.594 -1.25,18.875 35.938,-5.125 0.75,-18.344 z m 21.688,14.781 -21.406,5.625 -2.313,14.781 19.375,-6.125 4.344,-14.281 z m -0.5,12 -4.844,4.063 -2.563,9.438 4.344,-4.063 3.063,-9.438 z" style="fill:#c10000;fill-opacity:0.863"/><path d="m 106.41,51.08 -6.125,8.406 21.16,1.781 3.063,-8.906 -18.09,-1.281 z m -12,16.813 -5.594,13.281 27.781,2.281 2.531,-13.5 -24.719,-2.063 z m 30.344,12.5 -2.031,14.781 29.813,-0.5 -1,-14.281 h -26.781 z m 15.969,23.313 -23.875,0.156 -2.031,19.13 1.688,-0.031 c 1.888,-1.545 3.738,-3.01 5.688,-4.688 6.553,-5.634 12.702,-10.401 18.531,-14.563 z" style="fill:url(#5);fill-opacity:0.452"/><path d="m 204.56,75.05 -8.469,1.781 c 2.327,4.049 4.299,8.313 5.938,12.75 l 9.375,-1.969 c -1.979,-4.381 -4.23,-8.581 -6.844,-12.563 z m 8.406,77.75 -14.75,3.875 c -2.405,4.752 -5.243,9.227 -8.469,13.406 l -0.5,3.125 19.375,-6.125 4.344,-14.281 z m -3.688,14.688 -1.656,1.375 -0.813,3 c 0.851,-1.441 1.695,-2.884 2.469,-4.375 z" style="fill:url(#6);fill-opacity:0.75"/></g><g style="fill:none;stroke:#180000;stroke-linecap:round;stroke-linejoin:round"><g style="stroke-width:7.763"><path d="m 233.35 167.94 c 37.567 0 39.469 0 39.469 0"/><path d="m 233.35 187.21 v 24.09 h 19.02 v -24.566 h 20.448 v 25.04"/><path d="m 272.87,147.71 -39.515,-0.28 15.01,-12.498 -14.95,-12.25 39.5,0.091"/></g><path d="m 220.88 111.17 h 60.32 c 12.864 34.721 12.864 80.5 0 110.71" style="stroke-width:7.087"/></g></g></svg>