<svg xmlns="http://www.w3.org/2000/svg" xmlns:xlink="http://www.w3.org/1999/xlink" viewBox="0 0 256 256"><defs><path id="1" d="m 245.46 129.52 l -97.89 -96.9 c -5.556 -5.502 -16.222 -11.873 -23.7 -14.16 l -39.518 -12.08 c -7.479 -2.286 -18.1 0.391 -23.599 5.948 l -13.441 13.578 c -5.5 5.559 -14.502 14.653 -20 20.21 l -13.44 13.579 c -5.5 5.558 -8.07 16.206 -5.706 23.658 l 12.483 39.39 c 2.363 7.456 8.843 18.06 14.399 23.556 l 97.89 96.9 c 5.558 5.502 14.605 5.455 20.1 -0.101 l 36.26 -36.63 c 5.504 -5.559 14.503 -14.651 20 -20.21 l 36.26 -36.629 c 5.502 -5.56 5.455 -14.606 -0.101 -20.11 z m -178.09 -50.74 c -7.198 0 -13.03 -5.835 -13.03 -13.03 0 -7.197 5.835 -13.03 13.03 -13.03 7.197 0 13.03 5.835 13.03 13.03 -0.001 7.198 -5.836 13.03 -13.03 13.03 z"/><use id="2" xlink:href="#1"/><clipPath id="0"><use xlink:href="#2"/></clipPath><clipPath><path d="m 471.95 253.05 c 0 120.9 -98.01 218.91 -218.91 218.91 -120.9 0 -218.91 -98.01 -218.91 -218.91 0 -120.9 98.01 -218.91 218.91 -218.91 120.9 0 218.91 98.01 218.91 218.91"/></clipPath><clipPath style="clip-path:url(#0)"><use xlink:href="#1"/></clipPath><clipPath><path transform="matrix(15.33333 0 0 11.5 415 -125.5)" d="m -24 13 c 0 1.105 -0.672 2 -1.5 2 -0.828 0 -1.5 -0.895 -1.5 -2 0 -1.105 0.672 -2 1.5 -2 0.828 0 1.5 0.895 1.5 2 z" style="fill:#1890d0"/></clipPath><clipPath><path transform="matrix(15.33333 0 0 11.5 415 -125.5)" d="m -24 13 c 0 1.105 -0.672 2 -1.5 2 -0.828 0 -1.5 -0.895 -1.5 -2 0 -1.105 0.672 -2 1.5 -2 0.828 0 1.5 0.895 1.5 2 z" style="fill:#1890d0"/></clipPath><clipPath style="clip-path:url(#0)"><use xlink:href="#1"/></clipPath></defs><g transform="translate(0 -796.36)"><path d="m 42.39 839.12 c 105.54 -127.13 296.06 58.991 174.35 171.49 -104.74 112.74 -308.04 -63.22 -174.35 -171.49 z" transform="matrix(0.99345 0 0 1 1.676 0)" style="fill:#fff;color:#fff"/><g transform="translate(-171.38 709.76)"><text x="729.64" y="231.36" line-height="125%" style="letter-spacing:0;word-spacing:0;font-size:129.23;font-family:Gentium Book Basic"><tspan x="729.64" y="231.36"/></text><text x="378.91" y="579.26" transform="scale(4.0128 0.2492)" style="font-size:46.954;font-family:Arial;text-anchor:middle"/><text x="1310.91" y="151.36" line-height="125%" style="letter-spacing:0;word-spacing:0;font-size:129.23;font-family:Gentium Book Basic"><tspan x="1310.91" y="151.36"/></text><text x="523.76" y="258.22" transform="scale(4.0128 0.2492)" style="font-size:46.954;font-family:Arial;text-anchor:middle"/><text x="239.33" y="-29.9" line-height="125%" style="letter-spacing:0;word-spacing:0;font-size:129.23;font-family:Gentium Book Basic"><tspan x="239.33" y="-29.9"/></text><text x="256.72" y="-469.13" transform="scale(4.0128 0.2492)" style="font-size:46.954;font-family:Arial;text-anchor:middle"/><text x="1337.38" y="-246.37" line-height="125%" style="letter-spacing:0;word-spacing:0;font-size:129.23;font-family:Gentium Book Basic"><tspan x="1337.38" y="-246.37"/></text><text x="530.36" y="-1337.8" transform="scale(4.0128 0.2492)" style="font-size:46.954;font-family:Arial;text-anchor:middle"/><text x="1918.65" y="-326.37" line-height="125%" style="letter-spacing:0;word-spacing:0;font-size:129.23;font-family:Gentium Book Basic"><tspan x="1918.65" y="-326.37"/></text><text x="675.21" y="-1658.83" transform="scale(4.0128 0.2492)" style="font-size:46.954;font-family:Arial;text-anchor:middle"/><text x="1529.53" y="-798.77" line-height="125%" style="letter-spacing:0;word-spacing:0;font-size:129.23;font-family:Gentium Book Basic"><tspan x="1529.53" y="-798.77"/></text><text x="578.24" y="-3554.48" transform="scale(4.0128 0.2492)" style="font-size:46.954;font-family:Arial;text-anchor:middle"/><text x="2110.79" y="-878.78" line-height="125%" style="letter-spacing:0;word-spacing:0;font-size:129.23;font-family:Gentium Book Basic"><tspan x="2110.79" y="-878.78"/></text><text x="723.09" y="-3875.52" transform="scale(4.0128 0.2492)" style="font-size:46.954;font-family:Arial;text-anchor:middle"/><text x="277.99" y="535.94" line-height="125%" style="letter-spacing:0;word-spacing:0;font-size:208.33;font-family:Gentium Book Basic"><tspan x="277.99" y="535.94"/></text></g><g transform="translate(-120.54 711.96)"><text y="231.36" x="729.64" line-height="125%" style="letter-spacing:0;word-spacing:0;font-size:129.23;font-family:Gentium Book Basic"><tspan y="231.36" x="729.64"/></text><text transform="scale(4.0128 0.2492)" y="579.26" x="378.91" style="font-size:46.954;font-family:Arial;text-anchor:middle"/><text y="151.36" x="1310.91" line-height="125%" style="letter-spacing:0;word-spacing:0;font-size:129.23;font-family:Gentium Book Basic"><tspan y="151.36" x="1310.91"/></text><text transform="scale(4.0128 0.2492)" y="258.22" x="523.76" style="font-size:46.954;font-family:Arial;text-anchor:middle"/><text y="-29.9" x="239.33" line-height="125%" style="letter-spacing:0;word-spacing:0;font-size:129.23;font-family:Gentium Book Basic"><tspan y="-29.9" x="239.33"/></text><text transform="scale(4.0128 0.2492)" y="-469.13" x="256.72" style="font-size:46.954;font-family:Arial;text-anchor:middle"/><text y="-246.37" x="1337.38" line-height="125%" style="letter-spacing:0;word-spacing:0;font-size:129.23;font-family:Gentium Book Basic"><tspan y="-246.37" x="1337.38"/></text><text transform="scale(4.0128 0.2492)" y="-1337.8" x="530.36" style="font-size:46.954;font-family:Arial;text-anchor:middle"/><text y="-326.37" x="1918.65" line-height="125%" style="letter-spacing:0;word-spacing:0;font-size:129.23;font-family:Gentium Book Basic"><tspan y="-326.37" x="1918.65"/></text><text transform="scale(4.0128 0.2492)" y="-1658.83" x="675.21" style="font-size:46.954;font-family:Arial;text-anchor:middle"/><text y="-798.77" x="1529.53" line-height="125%" style="letter-spacing:0;word-spacing:0;font-size:129.23;font-family:Gentium Book Basic"><tspan y="-798.77" x="1529.53"/></text><text transform="scale(4.0128 0.2492)" y="-3554.48" x="578.24" style="font-size:46.954;font-family:Arial;text-anchor:middle"/><text y="-878.78" x="2110.79" line-height="125%" style="letter-spacing:0;word-spacing:0;font-size:129.23;font-family:Gentium Book Basic"><tspan y="-878.78" x="2110.79"/></text><text transform="scale(4.0128 0.2492)" y="-3875.52" x="723.09" style="font-size:46.954;font-family:Arial;text-anchor:middle"/><text y="535.94" x="277.99" line-height="125%" style="letter-spacing:0;word-spacing:0;font-size:208.33;font-family:Gentium Book Basic"><tspan y="535.94" x="277.99"/></text><path d="m 310.44 144.66 c -14.372 0 -21.667 4.99 -27.391 11.905 -5.724 6.916 -9.157 16.14 -13.09 24.06 -2.641 5.318 -8.532 25.09 -13.955 43.742 -2.712 9.328 -5.433 18.599 -7.972 26.325 -2.539 7.727 -4.467 13.488 -7.401 17.92 -4.842 7.312 -12.618 11.423 -20.439 11.423 -2.756 0 -5.496 -0.517 -8.114 -1.498 9.282 12.984 30.714 34.06 55.741 -1.037 17.356 -24.338 23.15 -76.76 35.404 -96.5 15.578 -25.09 23.404 -19.16 25.26 -17.06 0.349 -2.054 0.551 -4.196 0.459 -6.24 -0.171 -3.789 -1.134 -6.669 -3.364 -8.816 -2.23 -2.148 -6.415 -4.228 -15.14 -4.228 z m -117.03 22.13 c 3.699 4.218 6.673 9.556 8.461 15.857 3.996 14.08 4.767 31.584 5.668 46.996 0.45 7.706 0.904 14.863 1.641 20.486 0.738 5.622 2.16 9.795 2.579 10.428 2.378 3.591 5.422 4.947 8.43 4.947 3.01 0 6.06 -1.356 8.441 -4.947 0.625 -0.944 2.893 -6.197 5.148 -12.819 -3.807 -1.607 -9.326 -10.588 -13.589 -44.923 -2.46 -19.818 -16.852 -30.755 -26.78 -36.02 z m -22.763 3.52 c -1.839 0.015 -3.37 0.526 -4.598 1.386 -1.637 1.145 -3.06 2.987 -3.7 6.856 l -0.408 -0.062 c 0.261 10.563 7.197 17.55 7.197 17.55 0 0 -0.002 -7.265 7.217 -10.9 3.894 -1.96 8.747 1.226 12.406 4.567 -0.246 -1.054 -0.508 -2.094 -0.785 -3.069 -2.936 -10.346 -9.945 -15.311 -15.383 -16.18 -0.68 -0.108 -1.334 -0.159 -1.947 -0.154 z" style="fill:#ff4500"/></g></g></svg>