<svg xmlns="http://www.w3.org/2000/svg" xmlns:xlink="http://www.w3.org/1999/xlink" viewBox="0 0 256 256"><defs><path id="0" d="m 245.46 129.52 l -97.89 -96.9 c -5.556 -5.502 -16.222 -11.873 -23.7 -14.16 l -39.518 -12.08 c -7.479 -2.286 -18.1 0.391 -23.599 5.948 l -13.441 13.578 c -5.5 5.559 -14.502 14.653 -20 20.21 l -13.44 13.579 c -5.5 5.558 -8.07 16.206 -5.706 23.658 l 12.483 39.39 c 2.363 7.456 8.843 18.06 14.399 23.556 l 97.89 96.9 c 5.558 5.502 14.605 5.455 20.1 -0.101 l 36.26 -36.63 c 5.504 -5.559 14.503 -14.651 20 -20.21 l 36.26 -36.629 c 5.502 -5.56 5.455 -14.606 -0.101 -20.11 z m -178.09 -50.74 c -7.198 0 -13.03 -5.835 -13.03 -13.03 0 -7.197 5.835 -13.03 13.03 -13.03 7.197 0 13.03 5.835 13.03 13.03 -0.001 7.198 -5.836 13.03 -13.03 13.03 z"/><use id="1" xlink:href="#0"/><clipPath style="clip-path:url(#2)"><use xlink:href="#0"/></clipPath><clipPath style="clip-path:url(#2)"><use xlink:href="#0"/></clipPath><clipPath id="2"><use xlink:href="#1"/></clipPath></defs><path d="m 128.7087 2.1274812 c 169.75 -19.2330002 167.39 256.0599988 -3.02 252.7999988 -158.490003 9.07 -172.790003 -267.799999 3.02 -252.7999988 z" style="fill:#fff;color:#000"/><path d="m 98.812502,207.96279 c -0.167261,-0.42657 -0.378028,-10.40832 -0.46837,-22.18165 l -0.164261,-21.40607 -10.102396,-0.31023 -10.102396,-0.31024 -0.325884,-2.17163 c -0.289674,-1.93033 -0.579349,-2.2061 -2.60707,-2.48186 -2.027721,-0.27576 -2.317396,-0.55152 -2.60707,-2.48186 -0.289674,-1.93034 -0.579349,-2.2061 -2.60707,-2.48186 -2.027721,-0.27576 -2.317396,-0.55153 -2.60707,-2.48187 -0.289674,-1.93033 -0.579349,-2.2061 -2.60707,-2.48186 l -2.281186,-0.31023 0,-12.09908 0,-12.09909 2.281186,-0.31023 c 2.027721,-0.27576 2.317396,-0.55152 2.60707,-2.48186 0.289674,-1.93034 0.579349,-2.2061 2.60707,-2.48186 2.027721,-0.27576 2.317396,-0.55153 2.60707,-2.48187 0.289674,-1.93033 0.579349,-2.2061 2.60707,-2.48186 1.992434,-0.27096 2.306215,-0.55498 2.47892,-2.24374 l 0.197733,-1.93351 -5.248931,-0.43588 -5.248932,-0.43588 0,-4.17652 c 0,-4.6219 -0.624368,-5.665652 -3.389191,-5.665652 -1.819837,0 -1.824949,-0.0118 -1.824949,-4.21916 0,-4.66666 -0.618445,-5.70829 -3.389191,-5.70829 -1.819837,0 -1.824949,-0.0118 -1.824949,-4.21916 0,-4.66666 -0.618445,-5.70829 -3.389191,-5.70829 -1.819837,0 -1.824949,-0.0118 -1.824949,-4.21916 0,-4.66667 -0.618445,-5.70829 -3.389191,-5.70829 l -1.824949,0 0,-4.96372 c 0,-4.80273 0.0499,-4.96373 1.538451,-4.96373 0.846148,0 2.845731,-0.17058 4.443517,-0.37906 4.12232,-0.53789 5.09808,0.55257 5.09808,5.69734 0,3.80969 0.07104,3.98871 1.582863,3.98871 2.698287,0 3.631277,1.52585 3.631277,5.93874 0,3.80969 0.07104,3.98871 1.582863,3.98871 2.698287,0 3.631276,1.52585 3.631276,5.93874 l 0,3.98871 4.562373,0 4.562373,0 0,-3.98871 c 0,-4.41289 0.932989,-5.93874 3.631276,-5.93874 1.511824,0 1.582863,-0.17902 1.582863,-3.98871 0,-4.41289 0.93299,-5.93874 3.631277,-5.93874 1.511824,0 1.582864,-0.17902 1.582864,-3.98871 0,-5.15094 0.77814,-5.93874 5.865907,-5.93874 5.000691,0 5.865907,0.82366 5.865907,5.58419 0,4.04042 -1.003875,5.58419 -3.631276,5.58419 -1.511824,0 -1.582863,0.17901 -1.582863,3.98871 0,4.41289 -0.93299,5.93874 -3.631277,5.93874 -1.511824,0 -1.582864,0.17901 -1.582864,3.98871 0,4.41289 -0.932989,5.93874 -3.631276,5.93874 -1.511824,0 -1.582863,0.17901 -1.582863,3.98871 0,4.41289 -0.93299,5.938742 -3.631277,5.938742 -1.535274,0 -1.582864,0.13991 -1.582864,4.65349 l 0,4.65349 9.706781,0 c 11.114551,0 10.498012,0.34916 10.498012,-5.94517 0,-3.947902 0.01576,-3.982282 1.824945,-3.982282 2.77075,0 3.3892,-1.04162 3.3892,-5.70828 0,-4.20735 0.005,-4.21917 1.82494,-4.21917 2.77075,0 3.3892,-1.04162 3.3892,-5.70828 0,-4.20735 0.005,-4.21917 1.82494,-4.21917 2.77075,0 3.3892,-1.04162 3.3892,-5.70828 0,-4.20735 0.005,-4.21917 1.82494,-4.21917 2.75866,0 3.3892,-1.04591 3.3892,-5.62186 l 0,-4.13274 3.42177,-0.39126 c 6.92524,-0.79187 7.65827,-0.26191 7.65827,5.53669 0,3.80969 0.071,3.98871 1.58287,3.98871 2.69828,0 3.63127,1.52585 3.63127,5.93874 0,3.80969 0.071,3.98871 1.58287,3.98871 2.69828,0 3.63127,1.52585 3.63127,5.93874 0,3.8097 0.071,3.98871 1.58287,3.98871 2.69828,0 3.63127,1.52585 3.63127,5.93874 0,3.80969 0.071,3.98871 1.58287,3.98871 2.75434,0 3.63127,1.509102 3.63127,6.248972 l 0,4.29894 9.70678,0 c 10.98352,0 10.49801,0.24052 10.49801,-5.20061 0,-3.66435 -0.76181,-4.726842 -3.38919,-4.726842 -1.81984,0 -1.82494,-0.0118 -1.82494,-4.21916 0,-4.66666 -0.61845,-5.70829 -3.3892,-5.70829 -1.81984,0 -1.82494,-0.0118 -1.82494,-4.21916 0,-4.66666 -0.61845,-5.70829 -3.3892,-5.70829 -1.81984,0 -1.82495,-0.0118 -1.82495,-4.21916 0,-4.66667 -0.61844,-5.70829 -3.38919,-5.70829 l -1.82495,0 0,-4.96372 c 0,-4.80273 0.0499,-4.96373 1.53846,-4.96373 0.84614,0 2.84572,-0.17058 4.44351,-0.37906 4.12232,-0.53789 5.09808,0.55257 5.09808,5.69734 0,3.80969 0.071,3.98871 1.58287,3.98871 2.69828,0 3.63127,1.52585 3.63127,5.93874 0,3.80969 0.071,3.98871 1.58287,3.98871 2.69828,0 3.63127,1.52585 3.63127,5.93874 l 0,3.98871 4.56238,0 4.56237,0 0,-3.98871 c 0,-4.41289 0.93299,-5.93874 3.63127,-5.93874 1.51183,0 1.58287,-0.17902 1.58287,-3.98871 0,-4.41289 0.93299,-5.93874 3.63127,-5.93874 1.51183,0 1.58287,-0.17902 1.58287,-3.98871 0,-5.15094 0.77814,-5.93874 5.86591,-5.93874 5.00069,0 5.8659,0.82366 5.8659,5.58419 0,4.04042 -1.00388,5.58419 -3.63127,5.58419 -1.51183,0 -1.58287,0.17901 -1.58287,3.98871 0,4.41289 -0.93299,5.93874 -3.63127,5.93874 -1.51183,0 -1.58287,0.17901 -1.58287,3.98871 0,4.41289 -0.93299,5.93874 -3.63127,5.93874 -1.51183,0 -1.58287,0.17901 -1.58287,3.98871 0,4.41289 -0.93299,5.938742 -3.63127,5.938742 -1.51183,0 -1.58287,0.17901 -1.58287,3.98871 0,5.28975 -0.92068,6.22535 -5.60981,5.70071 -4.15719,-0.46514 -5.47024,-0.0495 -5.47024,1.73148 0,1.84366 1.19658,2.84981 3.3892,2.84981 1.56424,0 1.82495,0.24819 1.82495,1.7373 0,0.95552 0.35195,2.07236 0.78212,2.48187 0.43016,0.4095 1.60334,0.74456 2.60707,0.74456 1.56424,0 1.82495,0.24818 1.82495,1.7373 0,0.95552 0.35195,2.07236 0.78212,2.48186 0.43016,0.40951 1.60334,0.74456 2.60707,0.74456 l 1.82495,0 0,12.40932 0,12.40931 -1.82495,0 c -1.00373,0 -2.17691,0.33505 -2.60707,0.74456 -0.43017,0.40951 -0.78212,1.52634 -0.78212,2.48186 0,1.48912 -0.26071,1.73731 -1.82495,1.73731 -2.31601,0 -3.38919,1.02164 -3.38919,3.22642 0,1.48911 -0.26071,1.7373 -1.82495,1.7373 -2.31601,0 -3.3892,1.02164 -3.3892,3.22642 l 0,1.73731 -10.03266,0 c -8.54723,0 -10.09124,0.14531 -10.42828,0.98144 -0.21759,0.5398 -0.39562,10.59134 -0.39562,22.33677 l 0,21.35532 -5.20212,0 -5.20213,0 -0.17495,-14.35866 c -0.15708,-12.89135 -0.29151,-14.4286 -1.31555,-15.04312 -0.82971,-0.49791 -1.45148,-0.4985 -2.28119,-0.002 -0.87852,0.52553 -1.18459,1.70092 -1.33209,5.11567 -0.18923,4.38077 -0.21268,4.43306 -1.98789,4.43306 -2.74084,0 -3.36064,1.05278 -3.36064,5.70829 l 0,4.21917 -5.21413,0 -5.21414,0 0,-4.21917 c 0,-4.65551 -0.6198,-5.70829 -3.36064,-5.70829 -1.77521,0 -1.79866,-0.0523 -1.98789,-4.43337 -0.1475,-3.41474 -0.45357,-4.59014 -1.33209,-5.11567 -0.82971,-0.49633 -1.45148,-0.49574 -2.28119,0.002 -1.02404,0.61453 -1.15847,2.15178 -1.31555,15.04313 l -0.17495,14.35896 -4.8967,0 c -3.32066,0 -4.994579,-0.24963 -5.200808,-0.77558 z m 30.195968,-19.82388 c 0.45496,-0.43311 0.78212,-2.50944 0.78212,-4.96373 0,-4.20735 0.005,-4.21917 1.82495,-4.21917 2.77075,0 3.38919,-1.04162 3.38919,-5.70828 0,-4.20735 0.005,-4.21917 1.82495,-4.21917 1.00373,0 2.17691,-0.33505 2.60707,-0.74456 0.43017,-0.4095 0.78213,-1.52634 0.78213,-2.48186 0,-1.73024 0.0179,-1.73734 4.39943,-1.7468 5.25593,-0.0114 6.20374,-0.46778 5.9181,-2.84993 -0.18281,-1.52447 -0.55794,-1.84069 -2.49633,-2.1043 -2.02772,-0.27576 -2.31739,-0.55152 -2.60707,-2.48186 -0.28967,-1.93034 -0.57934,-2.2061 -2.60706,-2.48186 -2.02773,-0.27576 -2.3174,-0.55153 -2.60707,-2.48187 -0.28968,-1.93033 -0.57935,-2.2061 -2.60708,-2.48186 l -2.28118,-0.31023 0,-12.09908 0,-12.09909 2.28118,-0.31023 c 2.02773,-0.27576 2.3174,-0.55152 2.60708,-2.48186 0.28967,-1.93034 0.57934,-2.2061 2.60707,-2.48186 2.02772,-0.27576 2.31739,-0.55153 2.60706,-2.48187 0.28968,-1.93033 0.57935,-2.2061 2.60707,-2.48186 2.01627,-0.2742 2.30491,-0.54441 2.48543,-2.32675 l 0.20424,-2.01651 -4.55712,0 c -5.90685,0 -6.60552,-0.62815 -6.60552,-5.93874 0,-3.8097 -0.071,-3.98871 -1.58287,-3.98871 -2.02491,0 -3.63127,-1.529222 -3.63127,-3.456882 l 0,-1.50685 -9.77651,0 -9.77652,0 0,1.50685 c 0,1.92766 -1.60636,3.456882 -3.63127,3.456882 -1.51183,0 -1.58287,0.17901 -1.58287,3.98871 0,5.27094 -0.9114,6.20589 -5.51575,5.65824 -4.081145,-0.48542 -5.564295,-0.0126 -5.564295,1.77395 0,1.84366 1.196581,2.84981 3.389195,2.84981 1.56424,0 1.82495,0.24819 1.82495,1.7373 0,2.20479 1.07317,3.22643 3.38919,3.22643 1.56424,0 1.82495,0.24818 1.82495,1.7373 0,2.20478 1.07318,3.22642 3.38919,3.22642 l 1.82495,0 0,12.40932 0,12.40931 -1.82495,0 c -2.31601,0 -3.38919,1.02164 -3.38919,3.22642 0,1.48912 -0.26071,1.73731 -1.82495,1.73731 -2.31602,0 -3.38919,1.02164 -3.38919,3.22642 0,1.50026 -0.2559,1.7373 -1.8755,1.7373 -2.247384,0 -3.51683,1.26849 -3.225735,3.2233 0.198674,1.33416 0.552125,1.44236 5.264175,1.61141 5.0334,0.18058 5.0512,0.18725 5.0512,1.89242 0,2.17966 1.08089,3.20032 3.38919,3.20032 1.81984,0 1.82495,0.0118 1.82495,4.21917 0,4.66666 0.61844,5.70828 3.38919,5.70828 1.81984,0 1.82495,0.0118 1.82495,4.21917 0,2.45429 0.32716,4.53062 0.78212,4.96373 0.43016,0.4095 2.42457,0.74455 4.43202,0.74455 2.00744,0 4.00185,-0.33505 4.43201,-0.74455 z M 93.291615,156.61925 c 0.289674,-1.93034 0.579349,-2.2061 2.60707,-2.48186 2.027721,-0.27576 2.317396,-0.55153 2.60707,-2.48187 0.289674,-1.93033 0.579349,-2.2061 2.607075,-2.48186 l 2.28118,-0.31023 0,-12.09908 0,-12.09909 -2.28118,-0.31023 c -2.027726,-0.27576 -2.317401,-0.55152 -2.607075,-2.48186 -0.289674,-1.93034 -0.579349,-2.2061 -2.60707,-2.48186 -2.027721,-0.27576 -2.317396,-0.55153 -2.60707,-2.48187 l -0.325884,-2.17163 -4.888256,0 -4.888256,0 -0.325884,2.17163 c -0.289674,1.93034 -0.579349,2.20611 -2.60707,2.48187 -2.027721,0.27576 -2.317396,0.55152 -2.60707,2.48186 -0.289674,1.93034 -0.579349,2.2061 -2.60707,2.48186 l -2.281186,0.31023 0,12.09909 0,12.09908 2.281186,0.31023 c 2.027721,0.27576 2.317396,0.55153 2.60707,2.48186 0.289674,1.93034 0.579349,2.20611 2.60707,2.48187 1.839334,0.25014 2.318937,0.61068 2.476088,1.86139 0.390271,3.10607 0.503116,3.16711 5.498639,2.97458 l 4.734739,-0.18248 0.325884,-2.17163 z m 72.997965,0 c 0.28967,-1.93034 0.57934,-2.2061 2.60706,-2.48186 2.02773,-0.27576 2.3174,-0.55153 2.60707,-2.48187 0.28968,-1.93033 0.57935,-2.2061 2.60708,-2.48186 l 2.28118,-0.31023 0,-12.09908 0,-12.09909 -2.28118,-0.31023 c -2.02773,-0.27576 -2.3174,-0.55152 -2.60708,-2.48186 -0.28967,-1.93034 -0.57934,-2.2061 -2.60707,-2.48186 -2.02772,-0.27576 -2.31739,-0.55153 -2.60706,-2.48187 l -0.32589,-2.17163 -4.88825,0 -4.88826,0 -0.32589,2.17163 c -0.28967,1.93034 -0.57934,2.20611 -2.60706,2.48187 -2.02773,0.27576 -2.3174,0.55152 -2.60708,2.48186 -0.28967,1.93034 -0.57934,2.2061 -2.60707,2.48186 l -2.28118,0.31023 0,12.09909 0,12.09908 2.28118,0.31023 c 2.02773,0.27576 2.3174,0.55153 2.60707,2.48186 0.28968,1.93034 0.57935,2.20611 2.60708,2.48187 1.83933,0.25014 2.31893,0.61068 2.47609,1.86139 0.39027,3.10607 0.50311,3.16711 5.49863,2.97458 l 4.73474,-0.18248 0.32589,-2.17163 z m -37.15075,-71.974022 0,-4.34326 -4.56237,0 -4.56238,0 0,4.34326 0,4.34326 4.56238,0 4.56237,0 0,-4.34326 z" transform="matrix(1.0120065 0 0 0.96846948 2.5109021 0.95647136)" style="fill:#ff4500"/></svg>