<svg xmlns="http://www.w3.org/2000/svg" xmlns:xlink="http://www.w3.org/1999/xlink" viewBox="0 0 256 256"><defs><path id="0" d="m 111.94 94.06 a 1.936 1.936 0 1 1 -3.873 0 1.936 1.936 0 1 1 3.873 0 z"/><clipPath id="1"><rect y="6" x="6" rx="6" height="84" width="84" fill="#ff4500"/></clipPath><filter id="2" color-interpolation-filters="sRGB" height="1.384" width="1.384" y="-0.192" x="-0.192"><feGaussianBlur stdDeviation="5.28"/></filter><linearGradient gradientTransform="matrix(0.35653 0 0 0.35579 0.2 0.351)" y2="114.04" x2="0" y1="101.97" gradientUnits="userSpaceOnUse" id="K" xlink:href="#6"/><linearGradient gradientTransform="matrix(0 0.34122 0.34274 0 1.66 1.725)" x2="64.46" x1="15.75" gradientUnits="userSpaceOnUse" id="J"><stop stop-color="#9f0000"/><stop offset="1" stop-color="#f00"/></linearGradient><linearGradient gradientTransform="matrix(0 0.34122 0.34274 0 1.66 1.725)" x2="65.63" x1="14.585" gradientUnits="userSpaceOnUse" id="I"><stop stop-color="#e40000"/><stop offset="1" stop-color="#e40000" stop-opacity="0"/></linearGradient><linearGradient gradientTransform="matrix(0.32553 -0.08722 0.08567 0.31972 -0.795 8.08)" y2="42.02" x2="89.41" y1="23.504" x1="91.97" gradientUnits="userSpaceOnUse" id="H"><stop stop-color="#ff45001b7"/><stop offset="1" stop-color="#ad0000"/></linearGradient><linearGradient y2="40.21" x2="0" y1="37.35" gradientUnits="userSpaceOnUse" id="L"><stop stop-color="#700000"/><stop offset="1" stop-color="#510000"/></linearGradient><linearGradient y2="9.211" x2="0" y1="21.613" gradientUnits="userSpaceOnUse" id="N"><stop stop-color="#5d0000"/><stop offset="1" stop-color="#bc0000"/></linearGradient><linearGradient gradientTransform="matrix(0.35653 0 0 0.35579 9.26 0.351)" y2="114.04" x2="0" y1="101.97" gradientUnits="userSpaceOnUse" id="S" xlink:href="#6"/><linearGradient gradientTransform="matrix(0.32553 -0.08722 0.08567 0.31972 -0.795 8.08)" y2="38.03" x2="79.01" y1="21.664" x1="83.31" gradientUnits="userSpaceOnUse" id="G"><stop stop-color="#f00"/><stop offset="1" stop-color="#f70000"/></linearGradient><linearGradient y2="20.12" x2="0" y1="17.492" gradientUnits="userSpaceOnUse" id="R" xlink:href="#P"/><linearGradient id="P"><stop stop-color="#4f0000"/><stop offset="1" stop-color="#bc0000"/></linearGradient><linearGradient y2="16.757" x2="0" y1="14.13" gradientUnits="userSpaceOnUse" id="O" xlink:href="#P"/><linearGradient y2="13.391" x2="0" y1="10.759" gradientUnits="userSpaceOnUse" id="Q" xlink:href="#P"/><linearGradient gradientTransform="matrix(0.4549 -0.12189 0.11972 0.44678 -13.284 7.06)" y2="43.08" x2="85.2" y1="24.09" x1="90.19" gradientUnits="userSpaceOnUse" id="F" xlink:href="#6"/><linearGradient gradientTransform="matrix(0.32553 -0.08722 0.08567 0.31972 -15.1 29.06)" y2="39.31" x2="80.34" y1="21.561" x1="85.01" gradientUnits="userSpaceOnUse" id="7"><stop/><stop offset="1"/></linearGradient><linearGradient id="T" gradientUnits="userSpaceOnUse" y1="92.77" x2="0" y2="96.65"><stop stop-color="#850000"/><stop offset="1" stop-color="#f00"/></linearGradient><linearGradient id="6"><stop stop-color="#9f0000"/><stop offset="1" stop-color="#9f0000" stop-opacity="0"/></linearGradient><linearGradient gradientUnits="userSpaceOnUse" id="4" y2="138.66" x2="0" y1="20.221"><stop stop-color="#f00"/><stop offset="1" stop-color="#f00" stop-opacity="0"/></linearGradient><linearGradient id="3" gradientUnits="userSpaceOnUse" x1="4" x2="44"><stop stop-color="#b90000"/><stop offset="1" stop-color="#e40000"/></linearGradient><linearGradient gradientTransform="matrix(0.4549 -0.12189 0.11972 0.44678 -27.59 28.04)" y2="43.08" x2="85.2" y1="24.09" x1="90.19" gradientUnits="userSpaceOnUse" id="5" xlink:href="#6"/><linearGradient gradientTransform="matrix(0.32553 -0.08722 0.08567 0.31972 -15.1 29.06)" y2="41.36" x2="86.9" y1="23.41" x1="91.62" gradientUnits="userSpaceOnUse" id="8"><stop stop-color="#670000"/><stop offset="1"/></linearGradient><linearGradient gradientTransform="matrix(0.32553 -0.08722 0.08567 0.31972 -1.749 17.14)" y2="41.14" x2="85.71" y1="23.09" x1="90.46" gradientUnits="userSpaceOnUse" id="E"><stop stop-color="#570000"/><stop offset="1"/></linearGradient><linearGradient gradientTransform="matrix(0.32553 -0.08722 0.08567 0.31972 -1.749 17.14)" y2="38.724" x2="79.935" y1="21.771" x1="84.4" gradientUnits="userSpaceOnUse" id="D"><stop stop-color="#2b0000"/><stop offset="1" stop-color="#1e0000"/></linearGradient><linearGradient gradientTransform="matrix(0.4549 -0.12189 0.11972 0.44678 -14.238 16.12)" y2="43.08" x2="85.2" y1="24.09" x1="90.19" gradientUnits="userSpaceOnUse" id="C" xlink:href="#6"/><linearGradient gradientUnits="userSpaceOnUse" id="A" y2="38.933" x2="79.88" y1="21.771" x1="84.4"><stop stop-color="#fd0000"/><stop offset="1" stop-color="#b30000"/></linearGradient><linearGradient gradientUnits="userSpaceOnUse" xlink:href="#6" id="9" y2="43.08" x2="85.2" y1="24.09" x1="90.19"/><linearGradient gradientUnits="userSpaceOnUse" id="B" y2="41.02" x2="85.74" y1="23.09" x1="90.46"><stop stop-color="#fe0000"/><stop offset="1" stop-color="#610000"/></linearGradient><radialGradient r="18" cy="40" cx="40" gradientTransform="matrix(0 -0.35063 0.35063 0 1.345 29.435)" gradientUnits="userSpaceOnUse" id="M"><stop stop-color="#910000"/><stop offset="1" stop-color="#7c0000"/></radialGradient></defs><g transform="translate(0 -796.36)"><path d="m 229.63 992.2 c 92.05 -130.93 -77.948 -263.6 -186.39 -156.91 -102.17 100.51 -7.449 256.68 119.69 207.86 c 26.526 -10.185 49.802 -26.914 66.7 -50.948 z" fill="#fff" color="#000"/><g transform="matrix(3.68706 0 0 3.27996 39.4 845.41)"><rect width="40.06" height="40.06" rx="2.861" x="3.925" y="3.966" fill="url(#3)"/><rect clip-path="url(#1)" y="15" x="15" rx="12" height="66" width="66" transform="matrix(0.47685 0 0 0.47685 1.064 1.105)" opacity="0.1" fill="url(#4)" filter="url(#2)" stroke="#f00" stroke-linecap="round" stroke-width="0.5"/><g fill-rule="evenodd"><path d="M 20.01 30.636 A 3.814 3.814 0 1 1 12.642 32.61 3.814 3.814 0 0 1 20.01 30.636 z" fill="url(#5)"/><path d="M 18.96 30.917 A 2.729 2.729 0 1 1 13.688 32.33 2.729 2.729 0 0 1 18.96 30.917 z" fill="url(#7)" stroke="url(#8)" stroke-linejoin="round" stroke-width="0.477"/><g transform="matrix(0.45718 0 0 0.45708 1.274 2.849)"><path d="m 96.2 32.05 a 8.098 8.246 0 1 1 -16.197 0 8.098 8.246 0 1 1 16.197 0 z" transform="matrix(0.99503 -0.26667 0.26186 0.97748 -45.4 45.726)" fill="url(#9)"/><path d="m 96.2 32.05 a 8.098 8.246 0 1 1 -16.197 0 8.098 8.246 0 1 1 16.197 0 z" transform="matrix(0.71203 -0.19083 0.18738 0.69948 -18.09 47.955)" fill="url(#A)" stroke="url(#B)" stroke-linejoin="round" stroke-width="1.428"/></g><path d="m 33.36 18.715 a 3.814 3.814 0 1 1 -7.368 1.974 3.814 3.814 0 0 1 7.368 -1.974 z" fill="url(#C)"/><path d="m 32.31 18.995 a 2.729 2.729 0 0 1 -5.272 1.413 2.729 2.729 0 1 1 5.272 -1.413 z" fill="url(#D)" stroke="url(#E)" stroke-linejoin="round" stroke-width="0.477"/><path d="M 34.31 9.655 A 3.814 3.814 0 0 1 26.945 11.629 3.814 3.814 0 1 1 34.31 9.655 z" fill="url(#F)"/><g stroke-linejoin="round"><path d="M 33.27 9.935 A 2.731 2.731 0 0 1 27.993 11.348 2.731 2.731 0 1 1 33.27 9.935 z" fill="url(#G)" stroke="url(#H)" stroke-width="0.477"/><path d="m 15.37 23.636 a 8.226 8.226 0 0 0 0 -16.451 8.226 8.226 0 1 0 0 16.451 z" opacity="0.8" fill="url(#I)" stroke="url(#J)" stroke-width="0.715"/><g transform="matrix(0.47685 0 0 0.47685 1.064 1.105)" fill="#4d0000" stroke="url(#T)" stroke-width="1.73"><use transform="matrix(0.57803 0 0 0.57815 18.792 14.634)" xlink:href="#0" width="256" height="256"/><use transform="matrix(0.57803 0 0 0.57815 12.822 14.634)" xlink:href="#0" width="256" height="256"/><use transform="matrix(0.57803 0 0 0.57815 6.852 14.634)" xlink:href="#0" width="256" height="256"/><use transform="matrix(0.57803 0 0 0.57815 0.883 14.634)" xlink:href="#0" width="256" height="256"/><use transform="matrix(0.57803 0 0 0.57815 -5.087 14.634)" xlink:href="#0" width="256" height="256"/><use transform="matrix(0.57803 0 0 0.57815 15.807 11.649)" xlink:href="#0" width="256" height="256"/><use transform="matrix(0.57803 0 0 0.57815 9.837 11.649)" xlink:href="#0" width="256" height="256"/><use transform="matrix(0.57803 0 0 0.57815 3.868 11.649)" xlink:href="#0" width="256" height="256"/><use transform="matrix(0.57803 0 0 0.57815 -2.102 11.649)" xlink:href="#0" width="256" height="256"/><use transform="matrix(0.57803 0 0 0.57815 18.792 8.664)" xlink:href="#0" width="256" height="256"/><use transform="matrix(0.57803 0 0 0.57815 12.822 8.664)" xlink:href="#0" width="256" height="256"/><use transform="matrix(0.57803 0 0 0.57815 6.852 8.664)" xlink:href="#0" width="256" height="256"/><use transform="matrix(0.57803 0 0 0.57815 0.883 8.664)" xlink:href="#0" width="256" height="256"/><use transform="matrix(0.57803 0 0 0.57815 15.807 5.678)" xlink:href="#0" width="256" height="256"/><use transform="matrix(0.57803 0 0 0.57815 9.837 5.678)" xlink:href="#0" width="256" height="256"/><use transform="matrix(0.57803 0 0 0.57815 3.868 5.678)" xlink:href="#0" width="256" height="256"/><use transform="matrix(0.57803 0 0 0.57815 18.792 2.693)" xlink:href="#0" width="256" height="256"/><use transform="matrix(0.57803 0 0 0.57815 12.822 2.693)" xlink:href="#0" width="256" height="256"/><use transform="matrix(0.57803 0 0 0.57815 6.852 2.693)" xlink:href="#0" width="256" height="256"/><use transform="matrix(0.57803 0 0 0.57815 15.807 -0.293)" xlink:href="#0" width="256" height="256"/><use transform="matrix(0.57803 0 0 0.57815 9.837 -0.293)" xlink:href="#0" width="256" height="256"/><use transform="matrix(0.57803 0 0 0.57815 18.792 -3.278)" xlink:href="#0" width="256" height="256"/><use transform="matrix(0.57803 0 0 0.57815 12.822 -3.278)" xlink:href="#0" width="256" height="256"/><use transform="matrix(0.57803 0 0 0.57815 15.807 -6.264)" xlink:href="#0" width="256" height="256"/><use transform="matrix(0.57803 0 0 0.57815 18.792 -9.249)" xlink:href="#0" width="256" height="256"/></g></g><path d="m 27.3,36.63 c -1.18,0 -2.15,0.968 -2.15,2.146 0,1.178 0.97,2.146 2.15,2.146 h 2.852 c 1.18,0 2.15,-0.968 2.15,-2.146 0,-1.178 -0.97,-2.146 -2.15,-2.146 H 27.3 z" fill="url(#K)"/><rect y="37.35" x="25.861" rx="1.431" height="2.861" width="5.722" fill="url(#L)"/><path d="m 25.89,38.538 c -0.014,0.08 -0.03,0.155 -0.03,0.238 0,0.793 0.638,1.431 1.431,1.431 h 2.861 c 0.793,0 1.431,-0.638 1.431,-1.431 0,-0.084 -0.016,-0.159 -0.03,-0.238 -0.116,0.675 -0.692,1.192 -1.401,1.192 h -2.861 c -0.709,0 -1.285,-0.517 -1.401,-1.192 z" opacity="0.3" fill="#1a0000"/><path d="m 13.617,9.45 c -0.388,0 -0.701,0.313 -0.701,0.701 v 2.805 h -2.805 c -0.388,0 -0.701,0.313 -0.701,0.701 v 3.506 c 0,0.388 0.313,0.701 0.701,0.701 h 2.805 v 2.805 c 0,0.388 0.313,0.701 0.701,0.701 h 3.506 c 0.388,0 0.701,-0.313 0.701,-0.701 v -2.805 h 2.805 c 0.388,0 0.701,-0.313 0.701,-0.701 v -3.506 c 0,-0.388 -0.313,-0.701 -0.701,-0.701 h -2.805 v -2.805 c 0,-0.388 -0.313,-0.701 -0.701,-0.701 h -3.506 z" fill="url(#M)" stroke="url(#N)" stroke-linejoin="round" stroke-width="0.477"/><g fill="url(#O)"><path d="m 13.288 15.41 a 1.285 1.285 0 1 1 -2.569 0 1.285 1.285 0 1 1 2.569 0 z"/><path d="m 20.02 15.41 a 1.285 1.285 0 0 1 -2.569 0 1.285 1.285 0 1 1 2.569 0 z"/></g><path d="m 16.654 12.04 a 1.285 1.285 0 0 1 -2.569 0 1.285 1.285 0 1 1 2.569 0 z" fill="url(#Q)"/><path d="m 16.654 18.776 a 1.285 1.285 0 0 1 -2.569 0 1.285 1.285 0 1 1 2.569 0 z" fill="url(#R)"/><path d="m 36.36,36.63 c -1.18,0 -2.15,0.968 -2.15,2.146 0,1.178 0.97,2.146 2.15,2.146 h 2.852 c 1.18,0 2.15,-0.968 2.15,-2.146 0,-1.178 -0.97,-2.146 -2.15,-2.146 H 36.36 z" fill="url(#S)"/><rect y="37.35" x="34.921" rx="1.431" height="2.861" width="5.722" fill="url(#L)"/><path d="m 34.951,38.538 c -0.014,0.08 -0.03,0.155 -0.03,0.238 0,0.793 0.638,1.431 1.431,1.431 h 2.861 c 0.793,0 1.431,-0.638 1.431,-1.431 0,-0.084 -0.016,-0.159 -0.03,-0.238 -0.116,0.675 -0.692,1.192 -1.401,1.192 h -2.861 c -0.709,0 -1.285,-0.517 -1.401,-1.192 z" opacity="0.3" fill="#1a0000"/></g></g></g></svg>