<svg xmlns="http://www.w3.org/2000/svg" viewBox="0 0 256 256"><g transform="translate(0 -796.36)"><rect width="152.68" height="149.64" x="50.18" y="844.37" rx="12.231" ry="5.698" fill="#ff4500"/><g transform="matrix(1 0 0 0.99771 1.886 0.598)" fill="#fff"><path d="m 122.74 1050.9 c -59.3 -10.443 -113.03 -61.54 -121.74 -115.77 -2.028 -12.62 -0.836 -34.629 2.479 -45.769 c 9.999 -33.607 33.18 -62.22 62.811 -77.53 29.41 -15.189 59.3 -16.52 90.996 -4.05 37.813 14.874 72.67 51.3 87.26 91.17 5.923 16.191 8.341 29.18 8.368 44.952 0.025 15.219 -1.095 22.949 -5.05 34.85 -12.345 37.13 -45.33 65.47 -84.08 72.26 -10.467 1.833 -30.27 1.774 -41.03 -0.122 z m -4.546 -104.39 c 0 -33.685 -0.237 -40.4 -1.483 -42.05 -1.093 -1.445 -1.492 -4.924 -1.515 -13.22 l -0.032 -11.259 -4.798 -3.077 c -12.287 -7.881 -24.649 -11.63 -38.638 -11.719 l -9.596 -0.061 -0.288 11.602 c -0.158 6.381 -0.727 12.04 -1.263 12.576 -0.594 0.594 -0.975 17 -0.975 42.03 l 0 41.06 11.364 0.624 c 13.42 0.736 19.801 2.439 30.05 8.02 14.642 7.969 14.397 7.866 15.831 6.676 1.074 -0.891 1.342 -9.106 1.342 -41.2 z m 9.861 0.098 0.264 -40.717 -2.284 0.324 -2.284 0.324 -0.281 38.39 c -0.155 21.11 -0.025 39.439 0.289 40.726 0.37 1.519 1.177 2.223 2.302 2.01 1.596 -0.307 1.752 -3.522 1.996 -41.05 l 0 0 z m 64.7 32.915 -0.311 -4.293 -28.537 -0.268 -28.537 -0.268 0 4.562 0 4.561 28.847 0 28.847 0 -0.311 -4.293 z m 0.194 -12.879 0 -4.04 -28.789 0 -28.789 0 0 4.04 0 4.04 28.789 0 28.789 0 0 -4.04 z m -25.25 -13.13 0 -4.04 -16.16 0 -16.16 0 0 4.04 0 4.04 16.16 0 16.16 0 0 -4.04 z m 0 -12.12 0 -4.04 -16.16 0 -16.16 0 0 4.04 0 4.04 16.16 0 16.16 0 0 -4.04 z m 0 -13.13 0 -4.04 -16.16 0 -16.16 0 0 4.04 0 4.04 16.16 0 16.16 0 0 -4.04 z m 25.25 -12.12 0 -4.04 -28.789 0 -28.789 0 0 4.04 0 4.04 28.789 0 28.789 0 0 -4.04 z"/><g transform="translate(0 796.36)"><path d="m 112.69 90.13 c -1.339 -2.167 -16.497 -8.9 -24.672 -10.958 -5.107 -1.286 -11.718 -2.147 -16.485 -2.147 c -7.676 0 -7.948 -0.081 -7.636 -2.273 0.307 -2.16 0.749 -2.269 8.909 -2.202 9.794 0.081 18.798 2.176 28.28 6.582 8.924 4.144 14.14 7.89 14.14 10.152 0 2.032 -1.501 2.531 -2.542 0.846 l 0 0 z"/><path d="m 109.18 99.58 c -9.921 -5.993 -26.309 -10.435 -38.503 -10.435 l -7.088 0 0.32 -2.778 0.32 -2.778 8.586 0.071 c 10.491 0.087 19.16 2.257 29.799 7.458 10.05 4.915 12.918 7.165 12.468 9.796 -0.325 1.902 -0.678 1.822 -5.902 -1.334 z"/><path d="m 63.53 83.29 c -0.014 1.746 -0.567 3.726 -0.28 5.425 3.01 1.631 6.906 0.694 10.204 1.244 13.572 0.852 26.943 4.847 38.551 11.972 1.24 1.219 3.625 1.04 3.482 -1.058 0.084 -4.268 -4.92 -5.888 -7.89 -7.797 c -11.651 -6.56 -24.876 -10.57 -38.33 -10.08 -1.874 0.202 -3.979 -0.402 -5.735 0.292 z"/><path d="m 67.918 71.949 c -2.248 -0.302 -5.419 1.11 -4.426 3.837 1.595 2.725 5.614 1.269 8.163 1.797 10.381 0.354 20.644 2.932 30.11 7.267 4.061 1.728 8.136 3.651 11.465 6.587 2.683 1.087 3.358 -3.193 1.458 -4.475 c -5.676 -5.479 -13.349 -8.29 -20.514 -11.279 -8.368 -3.132 -17.395 -3.769 -26.25 -3.733 z"/></g></g></g></svg>