<svg xmlns="http://www.w3.org/2000/svg" viewBox="0 0 256 256"><g transform="translate(0 -796.36)"><g style="color:#000"><path d="m 73.17 1051.4 c 368.15 25.38 92.2 -464.75 -64.2 -142.02 -21.558 49.732 -5.804 123.89 64.2 142.02 z" style="fill:#fff"/><g transform="matrix(-1 0 0 -0.98972 272.67 1824.42)" style="fill:#ff4500"><path d="m 144.67 908.08 l 7 7.03 c 0.005 -0.005 0.026 0.005 0.031 0 6.154 -6.142 9.969 -14.63 9.969 -23.969 0 -9.339 -3.815 -17.827 -9.969 -23.969 -0.005 -0.005 -0.026 0.005 -0.031 0 l -7 7.03 c 4.322 4.317 6.969 10.299 6.969 16.938 0 6.639 -2.646 12.621 -6.969 16.938 z"/><path d="m 158.54 921.95 l 7 7.03 h 0.031 c 9.704 -9.694 15.719 -23.09 15.719 -37.844 0 -14.756 -6.01 -28.15 -15.719 -37.844 -0.005 -0.005 -0.026 0.005 -0.031 0 l -7 7.03 c 7.88 7.869 12.75 18.757 12.75 30.813 0 12.06 -4.87 22.944 -12.75 30.813 z"/><path d="m 172.42 935.86 l 7.03 7.03 c 13.289 -13.256 21.531 -31.56 21.531 -51.75 0 -20.19 -8.243 -38.494 -21.531 -51.75 l -7.03 7.03 c 11.465 11.431 18.563 27.23 18.563 44.719 0 17.489 -7.098 33.29 -18.563 44.719 z"/><path d="m 109.79 935.86 l 7.03 7.03 c 13.289 -13.256 21.531 -31.56 21.531 -51.75 0 -20.19 -8.243 -38.494 -21.531 -51.75 l -7.03 7.03 c -18.05 18.05 -30.935 27.23 -30.935 44.719 0 17.489 8.331 22.11 30.935 44.719 z"/></g></g><path d="m 110.39 908.66 l 3.179 3.174 l -2.564 2.953 c -3.4 3.916 -7.308 11.786 -8.643 17.408 -3.205 13.501 0.535 28.535 9.56 38.421 l 1.759 1.927 l -3.385 3.342 l -3.385 3.342 l -1.764 -2 c -5.36 -6.076 -9.686 -14.1 -11.859 -21.995 -1.406 -5.108 -1.907 -15.619 -1.01 -21.14 0.813 -4.989 3.089 -11.849 5.336 -16.08 1.826 -3.44 8.156 -12.06 9.08 -12.358 0.284 -0.093 1.946 1.259 3.695 3.01 z" style="fill:#ffa07a"/><path d="m 96.41 894.83 c 1.736 1.737 3.157 3.345 3.157 3.574 0 0.229 -1.106 1.614 -2.458 3.078 -6.954 7.531 -12.559 19.21 -14.451 30.11 -1.03 5.937 -1.03 15.779 0 21.716 1.892 10.902 7.496 22.579 14.451 30.11 1.352 1.464 2.458 2.862 2.458 3.106 0 0.244 -1.432 1.849 -3.183 3.566 l -3.183 3.122 l -3.166 -3.636 c -8.109 -9.313 -13.793 -20.652 -16.484 -32.88 -1.111 -5.05 -1.554 -18.244 -0.792 -23.572 2.111 -14.744 8.28 -27.798 18.576 -39.31 l 1.918 -2.144 l 3.157 3.158 z" style="fill:#ff7f50"/></g></svg>