<svg xmlns="http://www.w3.org/2000/svg" viewBox="0 0 256 256"><defs><clipPath><path transform="matrix(15.33333 0 0 11.5 415 -125.5)" d="m -24 13 c 0 1.105 -0.672 2 -1.5 2 -0.828 0 -1.5 -0.895 -1.5 -2 0 -1.105 0.672 -2 1.5 -2 0.828 0 1.5 0.895 1.5 2 z"/></clipPath></defs><g transform="matrix(1 0 0 0.99093 -1.255 -787.87)"><path d="m 194.68 815.03 c 222.27 193.41 -234.74 379.39 -187.78 80.26 10.296 -65.59 127.88 -132.38 187.78 -80.26 z" style="fill:#fff;color:#000"/><g transform="matrix(0.28822 0 0 0.28288 43.797 841.6)"><g style="fill-rule:evenodd"><path d="M 288.62,84.2 H 516.57 V 497.08 H 288.62 z" style="fill:#dc143c"/><path d="m 69.886,83.56 h 223.03 V 496.44 H 69.886 z" style="fill:#ffdead"/></g><path d="M 76.68,558.27 C 53.303,551.476 36.54,534.431 30.6,511.411 29.097,505.588 28.958,484.321 29.204,297.521 L 29.476,90.091 32.338,82.27 C 39.261,63.354 54.468,48.511 73.187,42.397 l 7.686,-2.511 h 209.78 209.78 l 7.686,2.511 c 18.735,6.12 33.982,21.01 40.823,39.873 l 2.837,7.821 0.574,48.636 c 0.316,26.75 0.327,121.12 0.026,209.71 l -0.548,161.07 -2.827,7.72 c -6.818,18.619 -21.08,32.862 -39.678,39.631 l -7.843,2.854 -209.26,0.192 c -196.48,0.18 -209.64,0.08 -215.55,-1.637 z M 270.73,445.19 v -21.442 l -41.43,-0.523 -41.43,-0.523 v -19.35 -19.35 h 103.32 103.32 l 0.285,19.599 0.285,19.599 -41.718,0.274 -41.718,0.274 v 21.442 21.442 h 42.481 42.481 l 0.284,-20.635 0.284,-20.635 20.694,-0.284 20.694,-0.284 0.524,-41.31 0.524,-41.31 h 19.405 19.405 l 0.524,41.31 0.524,41.31 h 21.503 21.503 v -63.28 -63.28 l -20.454,-0.523 -20.454,-0.523 -0.524,-20.396 -0.524,-20.396 -20.454,-0.523 -20.454,-0.523 -0.524,-20.396 -0.524,-20.396 -20.454,-0.523 -20.454,-0.523 -0.285,-19.589 -0.285,-19.589 20.739,-0.284 20.739,-0.284 v -21.442 -21.442 h -21.503 -21.503 l -0.284,20.635 -0.284,20.635 -20.694,0.284 -20.694,0.284 -0.284,20.666 -0.284,20.666 -61.6,-0.27 -61.6,-0.27 -0.524,-20.396 -0.524,-20.396 -20.454,-0.523 -20.454,-0.523 -0.524,-20.396 -0.524,-20.396 h -21.503 -21.503 v 21.442 21.442 l 20.454,0.523 20.454,0.523 v 19.35 19.35 l -20.454,0.523 -20.454,0.523 -0.524,20.396 -0.524,20.396 -20.454,0.523 -20.454,0.523 -0.524,20.396 -0.524,20.396 -20.454,0.523 -20.454,0.523 v 63.28 63.28 h 21.503 21.503 l 0.524,-41.31 0.524,-41.31 h 19.405 19.405 l 0.524,41.31 0.524,41.31 20.454,0.523 20.454,0.523 0.27,19.35 c 0.148,10.642 0.49,19.943 0.758,20.669 0.384,1.038 9.492,1.261 42.736,1.046 l 42.25,-0.273 V 445.19 z m -82.914,-148.8 c -0.29,-0.752 -0.397,-9.588 -0.238,-19.635 l 0.288,-18.267 h 19.405 19.405 v 19.35 19.35 l -19.17,0.285 c -15.02,0.224 -19.28,-0.011 -19.693,-1.083 z m 167.82,-0.024 c -0.284,-0.739 -0.388,-9.564 -0.229,-19.611 l 0.288,-18.267 h 19.405 19.405 l 0.285,19.611 0.285,19.611 h -19.461 c -14.885,0 -19.583,-0.316 -19.978,-1.344 z" style="fill:#ff4500"/></g></g></svg>