<svg xmlns="http://www.w3.org/2000/svg" viewBox="0 0 256 256"><path d="m 253.79 130.26 c 22.351 111.92 -130.95 154.42 -214.2 105.92 -66.33 -38.644 -47.37 -171.02 42.17 -220.37 89.54 -49.35 154.09 24.617 172.03 114.45 z" style="fill:#fff;fill-opacity:0.991;color:#000"/><g transform="matrix(1.10525 0 0 1.09964 -0.087 -12.905)" style="fill:#ff4500"><path d="m 54.58 176.98 v -14.255 l 13.843 -0.519 l 13.843 -0.519 l 0.51 -5.591 c 0.281 -3.075 2.357 -7.44 4.614 -9.699 3.934 -3.938 4.104 -5.05 4.104 -26.731 0 -21.819 -0.149 -22.772 -4.195 -26.822 -3.544 -3.548 -4.195 -5.817 -4.195 -14.617 0 -8.994 0.43 -10.417 3.146 -10.417 2.169 0 3.466 1.704 4.176 5.485 0.884 4.709 1.676 5.405 5.597 4.917 3.275 -0.407 4.843 -1.833 5.541 -5.04 0.591 -2.714 2.341 -4.682 4.454 -5.01 2.704 -0.419 3.708 0.677 4.504 4.917 0.862 4.593 1.802 5.457 5.936 5.457 3.981 0 5.254 -1.047 6.719 -5.526 2.06 -6.298 5.517 -6.151 6.931 0.294 1.221 5.564 9.484 7.21 11.157 2.222 3.575 -10.657 8.959 -8.934 8.959 2.866 0 7.02 -0.837 9.269 -5.03 13.554 l -5.03 5.139 v 23.676 c 0 23.305 0.068 23.732 4.318 27.3 2.375 1.991 4.881 5.871 5.569 8.623 1.216 4.865 1.607 5.02 14.12 5.526 14.792 0.6 15.179 1.098 14.26 18.349 l -0.519 10.662 l -64.42 0.008 l -58.91 0.008 z" style="fill:#ffdead"/><path d="m 54.58 176.95 v -14.233 l 13.843 -0.519 l 13.843 -0.519 l 0.51 -5.591 c 0.281 -3.075 2.357 -7.44 4.614 -9.699 3.934 -3.938 4.104 -5.05 4.104 -26.731 0 -21.819 -0.149 -22.772 -4.195 -26.822 -3.544 -3.548 -4.195 -5.817 -4.195 -14.617 0 -8.994 0.43 -10.417 3.146 -10.417 2.169 0 3.466 1.704 4.176 5.485 0.884 4.709 1.676 5.405 5.597 4.917 3.275 -0.407 4.843 -1.833 5.541 -5.04 0.591 -2.714 2.341 -4.682 4.454 -5.01 2.704 -0.419 3.708 0.677 4.504 4.917 0.862 4.593 1.802 5.457 5.936 5.457 3.981 0 5.254 -1.047 6.719 -5.526 2.06 -6.298 5.517 -6.151 6.931 0.294 1.221 5.564 9.484 7.21 11.157 2.222 3.575 -10.657 8.959 -8.934 8.959 2.866 0 7.02 -0.837 9.269 -5.03 13.554 l -5.03 5.139 v 23.51 v 23.51 l 5.03 4.78 c 3.01 2.859 5.03 6.546 5.03 9.174 0 4.348 -0.181 4.399 -17.199 4.904 l -17.199 0.51 l -0.49 13.858 l -0.49 13.858 h -30.13 h -30.13 v -14.233 z" style="fill:#a52a2a"/><path d="m 80.6 157.63 c 0 -3.193 1.781 -6.946 4.557 -9.6 4.395 -4.203 4.557 -5.192 4.557 -27.83 0 -22.639 -0.162 -23.628 -4.557 -27.83 -3.849 -3.681 -4.557 -6.04 -4.557 -15.166 0 -9.332 0.467 -10.809 3.417 -10.809 2.356 0 6.09 -0.078 6.861 3.845 0.96 4.886 -0.505 7.454 3.754 6.948 3.557 -0.422 5.26 -1.901 6.02 -5.227 0.642 -2.816 2.543 -4.858 4.838 -5.198 2.937 -0.435 5.422 0.241 6.287 4.641 0.936 4.765 0.563 6.124 5.05 6.124 4.324 0 4.312 -3.394 5.903 -8.04 2.238 -6.535 7.387 -4.075 8.923 2.612 1.326 5.773 8.906 5.173 10.723 -0.002 3.883 -11.06 11.126 -6.962 11.126 5.282 0 7.279 -0.909 9.618 -5.468 14.06 l -5.468 5.333 v 24.393 v 24.393 l 5.468 4.959 c 8.57 7.773 10.96 13.61 -16.1 12.617 -14.29 -0.524 -35.09 -0.275 -40.856 -0.272 -10.287 0.006 -10.48 -0.09 -10.48 -5.236 z"/></g></svg>