<svg xmlns="http://www.w3.org/2000/svg" viewBox="0 0 256 256"><g transform="translate(0 -796.36)"><path d="m 24.975 999.59 c -127.95 -192.46 280.09 -311 226.07 -62.2 -23.02 102.82 -167.39 165.22 -226.07 62.2 z" style="fill:#fff;color:#000"/><path d="m 120.49 975.55 c -3.114 -0.647 -11.579 -3.273 -13.579 -4.212 -0.649 -0.305 -2.708 -1.318 -4.575 -2.251 -3.478 -1.738 -3.488 -1.739 -9 -0.211 -8.311 2.302 -25.09 0.344 -26.12 -3.048 -0.128 -0.422 0.555 -1.277 1.518 -1.901 4.127 -2.672 9.209 -8.654 10.703 -12.598 0.715 -1.889 0.653 -2.323 -0.73 -5.03 -4.793 -9.382 -5.834 -19.738 -3.125 -31.11 1.386 -5.815 3.417 -10.491 6.953 -16.01 0.942 -1.469 1.899 -2.673 2.127 -2.675 0.228 -0.002 0.837 -0.794 1.353 -1.76 1.568 -2.935 10.288 -9.839 16.664 -13.193 15.299 -8.05 34.15 -9.535 50.39 -3.972 13.579 4.652 25.377 14.295 31.45 25.704 3.991 7.497 5.423 13.323 5.435 22.1 0.009 6.444 -0.215 8.287 -1.535 12.627 -5.786 19.03 -21.372 32.434 -43.46 37.38 -4.726 1.058 -19.641 1.148 -24.459 0.147 z m 25.977 -7.67 c 1.624 -0.559 3.882 -1.331 5.02 -1.717 11.09 -3.766 23.24 -14.501 26.893 -23.765 2.691 -6.821 3.223 -9.635 3.22 -17.03 -0.002 -6.453 -0.199 -7.865 -1.71 -12.319 -0.939 -2.767 -2.808 -6.749 -4.155 -8.849 -3.131 -4.883 -9.227 -11.453 -10.627 -11.453 -0.294 0 -0.623 -0.212 -0.731 -0.471 -0.3 -0.718 -4.626 -3.591 -7.281 -4.835 -4.463 -2.092 -7.378 -3.143 -13.06 -4.708 -3.512 -0.968 -19.249 -0.84 -23.842 0.194 -21.728 4.893 -37.18 22.571 -37.19 42.559 -0.007 9.877 3.82 19.823 10.498 27.29 3.343 3.736 9.03 8.482 10.163 8.482 0.324 0 0.589 0.283 0.589 0.628 0 0.346 0.278 0.629 0.619 0.629 0.34 0 1.735 0.588 3.099 1.307 3.601 1.897 10.834 4.373 14.583 4.991 5.159 0.851 20.467 0.257 23.91 -0.927 z" style="fill:#ff4500;stroke:#ff4500;fill-rule:evenodd;stroke-width:3.334"/></g></svg>