<svg xmlns="http://www.w3.org/2000/svg" xmlns:xlink="http://www.w3.org/1999/xlink" viewBox="0 0 256 256"><defs><path d="m 115.24 293.62 c 0 13.865 -11.24 25.1 -25.1 25.1 -13.865 0 -25.1 -11.24 -25.1 -25.1 0 -13.865 11.24 -25.1 25.1 -25.1 13.865 0 25.1 11.24 25.1 25.1 z" id="0"/></defs><path d="m 24.967 203.22 c -127.95 -192.46 280.09 -311 226.07 -62.2 -23.02 102.82 -167.39 165.22 -226.07 62.2 z" style="fill:#fff;color:#000"/><g transform="matrix(0.30094 0 0 0.2913 61.37 61.37)"><path d="M 0,225 0,0 l 225,0 225,0 0,225 0,225 -225,0 -225,0 0,-225 z" style="fill:#fe1313"/><path d="m 173,372.74 v -77.26 l -33.982,-33.971 -37.982,-37.971 6.511,-6.511 38.976,38.987 34.976,34.987 0.268,79.49 0.268,79.49 h -4.518 -4.518 v -77.26 z m 43,-21.998 v -99.25 C 47.32,79.212 46.71,82.022 224.247,245.999 c 0.414,0 0.753,-55.35 0.753,-123 v -123 H 337.5 450 v 225 225 H 333 216 v -99.25 z" style="fill:#720000"/><path d="M 216,350.75 V 251.5 l -55.48,-55.47 -59.48,-59.47 6.507,-6.507 59.974,59.98 c 30.786,30.789 56.31,55.98 56.727,55.98 0.414,0 0.753,-55.35 0.753,-123 v -123 h 112.5 112.5 v 225 225 h -77.5 -77.5 v -59.812 -59.812 l 2.852,-8.438 c 1.569,-4.641 3.784,-10.238 4.922,-12.438 2.65,-5.12 42.26,-44.39 48.24,-47.82 7.517,-4.315 16.938,-7.382 27.99,-9.111 13.01,-2.036 13.66,-2.233 14.313,-4.352 0.291,-0.944 2.438,-6.892 4.77,-13.217 l 4.241,-11.5 0.088,-16.5 0.088,-16.5 -4.5,-12.929 c -2.483,-7.134 -5.255,-13.389 -6.185,-13.954 -1.189,-0.723 -4.97,-0.501 -12.832,0.752 -11.362,1.812 -22.769,5.892 -30.607,10.948 -2.131,1.375 -23.05,21.778 -46.49,45.34 l -42.611,42.842 -3.581,8.712 c -1.97,4.791 -4.079,11.316 -4.688,14.5 -0.767,4.01 -1.015,29.949 -0.808,84.54 l 0.299,78.75 h -17.25 -17.25 v -99.25 z" style="fill:#ffdead"/><path d="m 129,394.23 v -55.766 l -11.943,-11.912 -15.943,-15.912 6.551,-6.575 17.17,17.298 13.168,13.298 v 57.667 57.667 h -4.5 -4.5 v -55.766 z m 166,-4.047 v -59.812 l 2.852,-8.438 c 1.569,-4.641 3.784,-10.238 4.922,-12.438 2.65,-5.12 42.26,-44.39 48.24,-47.82 7.517,-4.315 16.938,-7.382 27.99,-9.111 13.01,-2.036 13.66,-2.233 14.313,-4.352 0.291,-0.944 2.438,-6.892 4.77,-13.217 l 4.241,-11.5 0.088,-16.5 0.088,-16.5 -3.845,-11.5 c -2.115,-6.325 -4.484,-12.507 -5.266,-13.739 -1.037,-1.634 -1.139,-2.714 -0.377,-4 0.574,-0.969 2.643,-6.486 4.597,-12.261 3.3,-9.75 3.592,-11.608 4.083,-26 0.469,-13.751 0.282,-16.459 -1.655,-24 -2.922,-11.377 -8.74,-24.06 -16.576,-36.13 -9.33,-14.377 -30.475,-36.497 -47.45,-49.64 -7.429,-5.751 -13.868,-11.08 -14.308,-11.841 -0.678,-1.174 9.04,-1.385 63.75,-1.385 h 64.55 v 225 225 H 415.59 c -26.598,0 -34.531,-0.284 -34.921,-1.25 -0.404,-1 -0.52,-1 -0.583,0 -0.062,0.979 -9.288,1.25 -42.579,1.25 h -42.5 v -59.812 z" style="fill:#dc143c"/><path d="M 0,225 V 0 H 4 8 V 225 450 H 4 0 V 225 z m 381.78,182.4 0.281,-42.605 7.913,-18.645 c 10.707,-25.23 13,-33.463 13.732,-49.26 0.509,-11.03 0.294,-13.793 -1.717,-22 -1.264,-5.161 -3.813,-12.852 -5.664,-17.09 l -3.365,-7.706 4.769,-12.794 4.769,-12.794 v -18 -18 l -4.271,-12.248 -4.271,-12.248 4.657,-14.249 c 4.342,-13.286 4.689,-15.13 5.128,-27.25 0.425,-11.74 0.211,-14.02 -2.211,-23.502 C 396.248,78.336 384.647,59.142 364.25,37.334 353.16,25.471 336.337,10.999 322.97,1.811 c -2.336,-1.605 1.062,-1.7 62.28,-1.75 L 450,0.009 v 225 225 H 415.75 381.5 l 0.281,-42.605 z" style="fill:#b22222"/><use height="256" width="256" xlink:href="#0" transform="translate(0 0.117)" style="fill:#8a0000"/><use height="256" width="256" xlink:href="#0" transform="translate(0 -87.11)" style="fill:#720000"/><use height="256" width="256" xlink:href="#0" transform="translate(0.302 -173.92)" style="fill:#ffdead"/></g></svg>