<svg xmlns="http://www.w3.org/2000/svg" viewBox="0 0 256 256"><path d="m 117.58 255.1 c 155.28 14.591 197.08 -231.48 37.632 -250.59 c -146.61 -23.684 -222.12 199.36 -76.44 243.97 c 12.317 4.888 25.786 4.794 38.807 6.617 z" style="fill:#fff;color:#000"/><g style="fill:#ff4500;fill-rule:evenodd"><path d="m 125.8 156.01 c -0.112 -0.43 -0.323 -0.474 -2.277 -0.474 -1.756 0 -2.153 -0.065 -2.153 -0.355 0 -0.268 -0.289 -0.355 -1.184 -0.355 -0.894 0 -1.184 -0.087 -1.184 -0.355 0 -0.237 -0.237 -0.355 -0.71 -0.355 -0.552 0 -0.71 -0.105 -0.71 -0.474 0 -0.316 -0.158 -0.474 -0.474 -0.474 -0.263 0 -0.474 -0.158 -0.474 -0.355 0 -0.237 -0.237 -0.355 -0.71 -0.355 -0.552 0 -0.71 -0.105 -0.71 -0.474 0 -0.263 -0.158 -0.474 -0.355 -0.474 -0.195 0 -0.355 -0.16 -0.355 -0.355 0 -0.195 -0.16 -0.355 -0.355 -0.355 -0.195 0 -0.355 -0.16 -0.355 -0.355 0 -0.195 -0.16 -0.355 -0.355 -0.355 -0.197 0 -0.355 -0.21 -0.355 -0.474 0 -0.263 -0.158 -0.474 -0.355 -0.474 -0.195 0 -0.355 -0.16 -0.355 -0.355 0 -0.197 -0.21 -0.355 -0.474 -0.355 -0.316 0 -0.474 -0.158 -0.474 -0.474 0 -0.263 -0.158 -0.474 -0.355 -0.474 -0.237 0 -0.355 -0.237 -0.355 -0.71 0 -0.474 -0.118 -0.71 -0.355 -0.71 -0.248 0 -0.355 -0.25 -0.355 -0.829 0 -0.579 -0.107 -0.829 -0.355 -0.829 -0.268 0 -0.355 -0.289 -0.355 -1.184 0 -0.894 -0.087 -1.184 -0.355 -1.184 -0.282 0 -0.355 -0.342 -0.355 -1.657 0 -1.499 -0.045 -1.657 -0.474 -1.657 -0.442 0 -0.474 -0.158 -0.474 -2.368 0 -2.21 0.032 -2.368 0.474 -2.368 0.424 0 0.474 -0.158 0.474 -1.514 0 -1.127 0.091 -1.548 0.355 -1.65 0.251 -0.096 0.355 -0.487 0.355 -1.328 0 -0.901 0.087 -1.191 0.355 -1.191 0.237 0 0.355 -0.237 0.355 -0.71 0 -0.474 0.118 -0.71 0.355 -0.71 0.248 0 0.355 -0.25 0.355 -0.829 0 -0.579 0.107 -0.829 0.355 -0.829 0.197 0 0.355 -0.21 0.355 -0.474 0 -0.316 0.158 -0.474 0.474 -0.474 0.263 0 0.474 -0.158 0.474 -0.355 0 -0.195 0.16 -0.355 0.355 -0.355 0.195 0 0.355 -0.16 0.355 -0.355 0 -0.195 0.16 -0.355 0.355 -0.355 0.197 0 0.355 -0.21 0.355 -0.474 0 -0.263 0.158 -0.474 0.355 -0.474 0.195 0 0.355 -0.16 0.355 -0.355 0 -0.195 0.16 -0.355 0.355 -0.355 0.197 0 0.355 -0.21 0.355 -0.474 0 -0.368 0.158 -0.474 0.71 -0.474 0.474 0 0.71 -0.118 0.71 -0.355 0 -0.197 0.21 -0.355 0.474 -0.355 0.263 0 0.474 -0.158 0.474 -0.355 0 -0.237 0.237 -0.355 0.71 -0.355 0.552 0 0.71 -0.105 0.71 -0.474 0 -0.41 0.158 -0.474 1.184 -0.474 0.894 0 1.184 -0.087 1.184 -0.355 0 -0.29 0.397 -0.355 2.153 -0.355 1.954 0 2.164 -0.044 2.277 -0.474 0.088 -0.335 0.323 -0.474 0.806 -0.474 0.525 0 0.683 0.109 0.683 0.474 0 0.44 0.158 0.474 2.249 0.474 1.841 0 2.249 0.064 2.249 0.355 0 0.263 0.276 0.355 1.065 0.355 0.908 0 1.065 0.07 1.065 0.474 0 0.383 0.158 0.474 0.829 0.474 0.579 0 0.829 0.107 0.829 0.355 0 0.195 0.16 0.355 0.355 0.355 0.195 0 0.355 0.16 0.355 0.355 0 0.237 0.237 0.355 0.71 0.355 0.552 0 0.71 0.105 0.71 0.474 0 0.316 0.158 0.474 0.474 0.474 0.263 0 0.474 0.158 0.474 0.355 0 0.195 0.16 0.355 0.355 0.355 0.197 0 0.355 0.21 0.355 0.474 0 0.263 0.158 0.474 0.355 0.474 0.195 0 0.355 0.16 0.355 0.355 0 0.195 0.151 0.355 0.336 0.355 0.185 0 0.407 0.32 0.492 0.71 0.086 0.391 0.254 0.71 0.374 0.71 0.12 0 0.218 0.213 0.218 0.474 0 0.316 0.158 0.474 0.474 0.474 0.383 0 0.474 0.158 0.474 0.829 0 0.579 0.107 0.829 0.355 0.829 0.248 0 0.355 0.25 0.355 0.829 0 0.579 0.107 0.829 0.355 0.829 0.268 0 0.355 0.289 0.355 1.184 0 0.894 0.087 1.184 0.355 1.184 0.304 0 0.355 0.684 0.355 4.735 0 4.051 -0.051 4.735 -0.355 4.735 -0.268 0 -0.355 0.289 -0.355 1.184 0 0.894 -0.087 1.184 -0.355 1.184 -0.248 0 -0.355 0.25 -0.355 0.829 0 0.579 -0.107 0.829 -0.355 0.829 -0.248 0 -0.355 0.25 -0.355 0.829 0 0.671 -0.09 0.829 -0.474 0.829 -0.316 0 -0.474 0.158 -0.474 0.474 0 0.26 -0.098 0.474 -0.218 0.474 -0.12 0 -0.288 0.32 -0.374 0.71 -0.086 0.391 -0.307 0.71 -0.492 0.71 -0.185 0 -0.336 0.213 -0.336 0.474 0 0.263 -0.158 0.474 -0.355 0.474 -0.195 0 -0.355 0.16 -0.355 0.355 0 0.195 -0.16 0.355 -0.355 0.355 -0.195 0 -0.355 0.16 -0.355 0.355 0 0.197 -0.21 0.355 -0.474 0.355 -0.316 0 -0.474 0.158 -0.474 0.474 0 0.368 -0.158 0.474 -0.71 0.474 -0.474 0 -0.71 0.118 -0.71 0.355 0 0.195 -0.16 0.355 -0.355 0.355 -0.197 0 -0.355 0.21 -0.355 0.474 0 0.383 -0.158 0.474 -0.829 0.474 -0.579 0 -0.829 0.107 -0.829 0.355 0 0.263 -0.276 0.355 -1.065 0.355 -0.789 0 -1.065 0.092 -1.065 0.355 0 0.291 -0.408 0.355 -2.249 0.355 -2.091 0 -2.249 0.033 -2.249 0.474 0 0.364 -0.158 0.474 -0.683 0.474 -0.484 0 -0.719 -0.138 -0.806 -0.474 z"/><path d="m 55.56 198.75 c 0 -0.276 -0.316 -0.355 -1.421 -0.355 -1.263 0 -1.421 -0.053 -1.421 -0.474 0 -0.383 -0.158 -0.474 -0.829 -0.474 -0.579 0 -0.829 -0.107 -0.829 -0.355 0 -0.237 -0.237 -0.355 -0.71 -0.355 -0.552 0 -0.71 -0.105 -0.71 -0.474 0 -0.263 -0.158 -0.474 -0.355 -0.474 -0.195 0 -0.355 -0.16 -0.355 -0.355 0 -0.248 -0.25 -0.355 -0.829 -0.355 -0.579 0 -0.829 -0.107 -0.829 -0.355 0 -0.195 -0.16 -0.355 -0.355 -0.355 -0.197 0 -0.355 -0.21 -0.355 -0.474 0 -0.263 -0.158 -0.474 -0.355 -0.474 -0.195 0 -0.355 -0.16 -0.355 -0.355 0 -0.195 -0.16 -0.355 -0.355 -0.355 -0.197 0 -0.355 -0.21 -0.355 -0.474 0 -0.263 -0.158 -0.474 -0.355 -0.474 -0.195 0 -0.355 -0.16 -0.355 -0.355 0 -0.197 -0.21 -0.355 -0.474 -0.355 -0.383 0 -0.474 -0.158 -0.474 -0.829 0 -0.579 -0.107 -0.829 -0.355 -0.829 -0.248 0 -0.355 -0.25 -0.355 -0.829 0 -0.579 -0.107 -0.829 -0.355 -0.829 -0.237 0 -0.355 -0.237 -0.355 -0.71 0 -0.474 -0.118 -0.71 -0.355 -0.71 -0.282 0 -0.355 -0.342 -0.355 -1.657 0 -1.315 -0.073 -1.657 -0.355 -1.657 -0.315 0 -0.355 -5.746 -0.355 -50.29 0 -38.24 0.066 -50.31 0.278 -50.38 0.156 -0.052 0.324 -0.736 0.384 -1.559 0.075 -1.037 0.202 -1.466 0.433 -1.466 0.216 0 0.327 -0.282 0.327 -0.829 0 -0.579 0.107 -0.829 0.355 -0.829 0.248 0 0.355 -0.25 0.355 -0.829 0 -0.579 0.107 -0.829 0.355 -0.829 0.237 0 0.355 -0.237 0.355 -0.71 0 -0.552 0.105 -0.71 0.474 -0.71 0.316 0 0.474 -0.158 0.474 -0.474 0 -0.263 0.158 -0.474 0.355 -0.474 0.195 0 0.355 -0.16 0.355 -0.355 0 -0.195 0.16 -0.355 0.355 -0.355 0.197 0 0.355 -0.21 0.355 -0.474 0 -0.263 0.158 -0.474 0.355 -0.474 0.195 0 0.355 -0.16 0.355 -0.355 0 -0.195 0.16 -0.355 0.355 -0.355 0.195 0 0.355 -0.146 0.355 -0.326 0 -0.179 0.32 -0.389 0.71 -0.468 0.417 -0.083 0.71 -0.291 0.71 -0.503 0 -0.203 0.207 -0.361 0.474 -0.361 0.263 0 0.474 -0.158 0.474 -0.355 0 -0.237 0.237 -0.355 0.71 -0.355 0.552 0 0.71 -0.105 0.71 -0.474 0 -0.383 0.158 -0.474 0.829 -0.474 0.579 0 0.829 -0.107 0.829 -0.355 0 -0.263 0.276 -0.355 1.065 -0.355 0.789 0 1.065 -0.092 1.065 -0.355 0 -0.297 0.489 -0.355 2.982 -0.355 2.783 0 2.99 -0.032 3.105 -0.474 0.123 -0.472 0.323 -0.474 67.9 -0.474 67.58 0 67.776 0.001 67.9 0.474 0.116 0.442 0.323 0.474 3.105 0.474 2.493 0 2.982 0.058 2.982 0.355 0 0.263 0.276 0.355 1.065 0.355 0.789 0 1.065 0.092 1.065 0.355 0 0.237 0.237 0.355 0.71 0.355 0.552 0 0.71 0.105 0.71 0.474 0 0.383 0.158 0.474 0.829 0.474 0.579 0 0.829 0.107 0.829 0.355 0 0.197 0.21 0.355 0.474 0.355 0.26 0 0.474 0.158 0.474 0.351 0 0.193 0.266 0.417 0.592 0.499 0.326 0.082 0.592 0.297 0.592 0.478 0 0.181 0.213 0.329 0.474 0.329 0.263 0 0.474 0.158 0.474 0.355 0 0.195 0.16 0.355 0.355 0.355 0.197 0 0.355 0.21 0.355 0.474 0 0.263 0.158 0.474 0.355 0.474 0.195 0 0.355 0.16 0.355 0.355 0 0.195 0.16 0.355 0.355 0.355 0.197 0 0.355 0.21 0.355 0.474 0 0.263 0.158 0.474 0.355 0.474 0.237 0 0.355 0.237 0.355 0.71 0 0.552 0.105 0.71 0.474 0.71 0.383 0 0.474 0.158 0.474 0.829 0 0.579 0.107 0.829 0.355 0.829 0.248 0 0.355 0.25 0.355 0.829 0 0.579 0.107 0.829 0.355 0.829 0.282 0 0.355 0.342 0.355 1.657 0 1.315 0.073 1.657 0.355 1.657 0.315 0 0.355 5.735 0.355 50.19 0 44.46 -0.041 50.19 -0.355 50.19 -0.282 0 -0.355 0.342 -0.355 1.657 0 1.315 -0.073 1.657 -0.355 1.657 -0.237 0 -0.355 0.237 -0.355 0.71 0 0.474 -0.118 0.71 -0.355 0.71 -0.248 0 -0.355 0.25 -0.355 0.829 0 0.671 -0.09 0.829 -0.474 0.829 -0.383 0 -0.474 0.158 -0.474 0.829 0 0.579 -0.107 0.829 -0.355 0.829 -0.195 0 -0.355 0.16 -0.355 0.355 0 0.195 -0.16 0.355 -0.355 0.355 -0.197 0 -0.355 0.21 -0.355 0.474 0 0.263 -0.158 0.474 -0.355 0.474 -0.195 0 -0.355 0.16 -0.355 0.355 0 0.195 -0.16 0.355 -0.355 0.355 -0.197 0 -0.355 0.21 -0.355 0.474 0 0.316 -0.158 0.474 -0.474 0.474 -0.263 0 -0.474 0.158 -0.474 0.355 0 0.237 -0.237 0.355 -0.71 0.355 -0.474 0 -0.71 0.118 -0.71 0.355 0 0.195 -0.16 0.355 -0.355 0.355 -0.197 0 -0.355 0.21 -0.355 0.474 0 0.383 -0.158 0.474 -0.829 0.474 -0.579 0 -0.829 0.107 -0.829 0.355 0 0.237 -0.237 0.355 -0.71 0.355 -0.552 0 -0.71 0.105 -0.71 0.474 0 0.421 -0.158 0.474 -1.421 0.474 -1.105 0 -1.421 0.079 -1.421 0.355 0 0.315 -8.3 0.355 -73.28 0.355 -64.977 0 -73.28 -0.04 -73.28 -0.355 z m 46.17 -4.02 c 0 -0.195 0.16 -0.355 0.355 -0.355 0.248 0 0.355 -0.25 0.355 -0.829 0 -0.579 -0.107 -0.829 -0.355 -0.829 -0.197 0 -0.355 -0.21 -0.355 -0.474 0 -0.368 -0.158 -0.474 -0.71 -0.474 -0.474 0 -0.71 -0.118 -0.71 -0.355 0 -0.273 -0.303 -0.355 -1.302 -0.355 -1 0 -1.302 -0.083 -1.302 -0.355 0 -0.263 -0.276 -0.355 -1.065 -0.355 -0.749 0 -1.065 -0.097 -1.065 -0.328 0 -0.343 -0.694 -0.611 -1.598 -0.616 -0.314 -0.002 -0.533 -0.149 -0.533 -0.358 0 -0.268 -0.289 -0.355 -1.184 -0.355 -1.026 0 -1.184 -0.063 -1.184 -0.474 0 -0.368 -0.158 -0.474 -0.71 -0.474 -0.474 0 -0.71 -0.118 -0.71 -0.355 0 -0.237 -0.237 -0.355 -0.71 -0.355 -0.474 0 -0.71 -0.118 -0.71 -0.355 0 -0.248 -0.25 -0.355 -0.829 -0.355 -0.671 0 -0.829 -0.09 -0.829 -0.474 0 -0.368 -0.158 -0.474 -0.71 -0.474 -0.474 0 -0.71 -0.118 -0.71 -0.355 0 -0.248 -0.25 -0.355 -0.829 -0.355 -0.671 0 -0.829 -0.09 -0.829 -0.474 0 -0.263 -0.158 -0.474 -0.355 -0.474 -0.195 0 -0.355 -0.16 -0.355 -0.355 0 -0.237 -0.237 -0.355 -0.71 -0.355 -0.474 0 -0.71 -0.118 -0.71 -0.355 0 -0.195 -0.16 -0.355 -0.355 -0.355 -0.197 0 -0.355 -0.21 -0.355 -0.474 0 -0.383 -0.158 -0.474 -0.829 -0.474 -0.579 0 -0.829 -0.107 -0.829 -0.355 0 -0.195 -0.16 -0.355 -0.355 -0.355 -0.197 0 -0.355 -0.21 -0.355 -0.474 0 -0.263 -0.158 -0.474 -0.355 -0.474 -0.195 0 -0.355 -0.16 -0.355 -0.355 0 -0.195 -0.16 -0.355 -0.355 -0.355 -0.195 0 -0.355 -0.16 -0.355 -0.355 0 -0.195 -0.147 -0.355 -0.328 -0.355 -0.18 0 -0.383 -0.213 -0.451 -0.474 -0.09 -0.345 -0.323 -0.474 -0.856 -0.474 -0.493 0 -0.732 -0.116 -0.732 -0.355 0 -0.195 -0.16 -0.355 -0.355 -0.355 -0.197 0 -0.355 -0.21 -0.355 -0.474 0 -0.263 -0.158 -0.474 -0.355 -0.474 -0.195 0 -0.355 -0.16 -0.355 -0.355 0 -0.195 -0.16 -0.355 -0.355 -0.355 -0.239 0 -0.355 -0.239 -0.355 -0.732 0 -0.533 -0.129 -0.766 -0.474 -0.856 -0.26 -0.068 -0.474 -0.271 -0.474 -0.451 0 -0.18 -0.16 -0.328 -0.355 -0.328 -0.197 0 -0.355 -0.21 -0.355 -0.474 0 -0.263 -0.158 -0.474 -0.355 -0.474 -0.195 0 -0.355 -0.16 -0.355 -0.355 0 -0.195 -0.151 -0.355 -0.336 -0.355 -0.185 0 -0.407 -0.32 -0.492 -0.71 -0.086 -0.391 -0.254 -0.71 -0.374 -0.71 -0.12 0 -0.218 -0.213 -0.218 -0.474 0 -0.316 -0.158 -0.474 -0.474 -0.474 -0.383 0 -0.474 -0.158 -0.474 -0.829 0 -0.579 -0.107 -0.829 -0.355 -0.829 -0.195 0 -0.355 -0.16 -0.355 -0.355 0 -0.195 -0.16 -0.355 -0.355 -0.355 -0.248 0 -0.355 -0.25 -0.355 -0.829 0 -0.579 -0.107 -0.829 -0.355 -0.829 -0.248 0 -0.355 -0.25 -0.355 -0.829 0 -0.579 -0.107 -0.829 -0.355 -0.829 -0.238 0 -0.355 -0.238 -0.355 -0.718 0 -0.42 -0.148 -0.774 -0.355 -0.854 -0.219 -0.084 -0.355 -0.444 -0.355 -0.94 0 -0.645 -0.093 -0.803 -0.474 -0.803 -0.368 0 -0.474 -0.158 -0.474 -0.71 0 -0.474 -0.118 -0.71 -0.355 -0.71 -0.273 0 -0.355 -0.303 -0.355 -1.302 0 -0.944 -0.089 -1.302 -0.324 -1.302 -0.202 0 -0.375 -0.377 -0.458 -1 -0.074 -0.551 -0.248 -1.039 -0.386 -1.085 -0.139 -0.046 -0.252 -0.661 -0.252 -1.366 0 -0.982 -0.083 -1.282 -0.355 -1.282 -0.282 0 -0.355 -0.342 -0.355 -1.657 0 -1.499 -0.045 -1.657 -0.474 -1.657 -0.436 0 -0.474 -0.158 -0.474 -2.01 0 -1.631 -0.067 -2.01 -0.355 -2.01 -0.298 0 -0.355 -0.513 -0.355 -3.196 0 -2.683 -0.057 -3.196 -0.355 -3.196 -0.309 0 -0.355 -1.039 -0.355 -7.931 0 -6.892 0.047 -7.931 0.355 -7.931 0.302 0 0.355 -0.605 0.355 -4.02 0 -3.42 0.053 -4.02 0.355 -4.02 0.293 0 0.355 -0.434 0.355 -2.486 0 -2.328 0.03 -2.486 0.474 -2.486 0.442 0 0.474 -0.158 0.474 -2.368 0 -1.947 0.063 -2.368 0.355 -2.368 0.281 0 0.355 -0.34 0.355 -1.638 0 -1.089 0.098 -1.67 0.292 -1.735 0.19 -0.063 0.323 -0.775 0.38 -2.032 0.066 -1.455 0.17 -1.935 0.418 -1.935 0.248 0 0.33 -0.381 0.33 -1.539 0 -1.21 0.076 -1.539 0.355 -1.539 0.282 0 0.355 -0.342 0.355 -1.657 v -1.657 h -0.71 c -0.552 0 -0.71 -0.105 -0.71 -0.474 0 -0.316 -0.158 -0.474 -0.474 -0.474 -0.316 0 -0.474 0.158 -0.474 0.474 0 0.263 -0.158 0.474 -0.355 0.474 -0.237 0 -0.355 0.237 -0.355 0.71 0 0.474 -0.118 0.71 -0.355 0.71 -0.282 0 -0.355 0.342 -0.355 1.657 0 1.315 -0.073 1.657 -0.355 1.657 -0.282 0 -0.355 0.342 -0.355 1.657 0 1.315 -0.073 1.657 -0.355 1.657 -0.288 0 -0.355 0.381 -0.355 2.01 0 1.855 -0.037 2.01 -0.474 2.01 -0.436 0 -0.474 0.158 -0.474 2.01 0 1.631 -0.067 2.01 -0.355 2.01 -0.292 0 -0.355 0.421 -0.355 2.368 0 1.947 -0.063 2.368 -0.355 2.368 -0.3 0 -0.355 0.566 -0.355 3.67 0 3.104 -0.055 3.67 -0.355 3.67 -0.311 0 -0.355 1.368 -0.355 10.891 0 9.523 0.045 10.891 0.355 10.891 0.296 0 0.355 0.474 0.355 2.841 0 2.368 0.059 2.841 0.355 2.841 0.288 0 0.355 0.381 0.355 2.01 0 1.631 0.067 2.01 0.355 2.01 0.279 0 0.355 0.329 0.355 1.539 0 1.381 0.049 1.539 0.474 1.539 0.41 0 0.474 0.158 0.474 1.184 0 0.894 0.087 1.184 0.355 1.184 0.273 0 0.355 0.303 0.355 1.302 0 1 0.083 1.302 0.355 1.302 0.268 0 0.355 0.289 0.355 1.184 0 0.894 0.087 1.184 0.355 1.184 0.248 0 0.355 0.25 0.355 0.829 0 0.579 0.107 0.829 0.355 0.829 0.237 0 0.355 0.237 0.355 0.71 0 0.474 0.118 0.71 0.355 0.71 0.248 0 0.355 0.25 0.355 0.829 0 0.671 0.09 0.829 0.474 0.829 0.383 0 0.474 0.158 0.474 0.829 0 0.579 0.107 0.829 0.355 0.829 0.248 0 0.355 0.25 0.355 0.829 0 0.558 0.11 0.829 0.336 0.829 0.185 0 0.407 0.32 0.492 0.71 0.086 0.391 0.254 0.71 0.374 0.71 0.12 0 0.218 0.213 0.218 0.474 0 0.26 0.151 0.474 0.336 0.474 0.185 0 0.407 0.32 0.492 0.71 0.086 0.391 0.307 0.71 0.492 0.71 0.185 0 0.336 0.213 0.336 0.474 0 0.263 0.158 0.474 0.355 0.474 0.197 0 0.355 0.21 0.355 0.474 0 0.263 0.158 0.474 0.355 0.474 0.195 0 0.355 0.16 0.355 0.355 0 0.195 0.151 0.355 0.336 0.355 0.185 0 0.407 0.32 0.492 0.71 0.086 0.391 0.254 0.71 0.374 0.71 0.12 0 0.218 0.213 0.218 0.474 0 0.316 0.158 0.474 0.474 0.474 0.316 0 0.474 0.158 0.474 0.474 0 0.263 0.158 0.474 0.355 0.474 0.195 0 0.355 0.16 0.355 0.355 0 0.195 0.16 0.355 0.355 0.355 0.195 0 0.355 0.16 0.355 0.355 0 0.195 0.16 0.355 0.355 0.355 0.197 0 0.355 0.21 0.355 0.474 0 0.263 0.158 0.474 0.355 0.474 0.195 0 0.355 0.16 0.355 0.355 0 0.195 0.147 0.355 0.328 0.355 0.18 0 0.383 0.213 0.451 0.474 0.068 0.26 0.294 0.474 0.501 0.474 0.208 0 0.377 0.16 0.377 0.355 0 0.237 0.237 0.355 0.71 0.355 0.474 0 0.71 0.118 0.71 0.355 0 0.195 0.16 0.355 0.355 0.355 0.197 0 0.355 0.21 0.355 0.474 0 0.263 0.158 0.474 0.355 0.474 0.195 0 0.355 0.16 0.355 0.355 0 0.248 0.25 0.355 0.829 0.355 0.671 0 0.829 0.09 0.829 0.474 0 0.263 0.158 0.474 0.355 0.474 0.195 0 0.355 0.16 0.355 0.355 0 0.237 0.237 0.355 0.71 0.355 0.474 0 0.71 0.118 0.71 0.355 0 0.197 0.21 0.355 0.474 0.355 0.26 0 0.474 0.151 0.474 0.336 0 0.185 0.32 0.407 0.71 0.492 0.391 0.086 0.71 0.307 0.71 0.492 0 0.216 0.254 0.336 0.71 0.336 0.552 0 0.71 0.105 0.71 0.474 0 0.383 0.158 0.474 0.829 0.474 0.579 0 0.829 0.107 0.829 0.355 0 0.237 0.237 0.355 0.71 0.355 0.474 0 0.71 0.118 0.71 0.355 0 0.248 0.25 0.355 0.829 0.355 0.548 0 0.829 0.111 0.829 0.328 0 0.343 0.694 0.611 1.598 0.616 0.314 0.002 0.533 0.149 0.533 0.358 0 0.268 0.289 0.355 1.184 0.355 1.026 0 1.184 0.063 1.184 0.474 0 0.403 0.158 0.474 1.065 0.474 0.789 0 1.065 0.092 1.065 0.355 0 0.268 0.289 0.355 1.184 0.355 0.894 0 1.184 0.087 1.184 0.355 0 0.279 0.329 0.355 1.539 0.355 1.21 0 1.539 -0.076 1.539 -0.355 z m 50.43 -0.71 c 0 -0.299 0.539 -0.355 3.433 -0.355 3.275 0 3.433 -0.022 3.433 -0.474 0 -0.434 0.158 -0.474 1.894 -0.474 1.526 0 1.894 -0.069 1.894 -0.355 0 -0.262 0.274 -0.355 1.046 -0.355 1.271 0 1.795 -0.18 1.795 -0.617 0 -0.238 0.33 -0.33 1.184 -0.33 0.894 0 1.184 -0.087 1.184 -0.355 0 -0.248 0.25 -0.355 0.829 -0.355 0.579 0 0.829 -0.107 0.829 -0.355 0 -0.237 0.237 -0.355 0.71 -0.355 0.552 0 0.71 -0.105 0.71 -0.474 0 -0.383 0.158 -0.474 0.829 -0.474 0.579 0 0.829 -0.107 0.829 -0.355 0 -0.237 0.237 -0.355 0.71 -0.355 0.552 0 0.71 -0.105 0.71 -0.474 0 -0.263 0.158 -0.474 0.355 -0.474 0.195 0 0.355 -0.16 0.355 -0.355 0 -0.237 0.237 -0.355 0.71 -0.355 0.474 0 0.71 -0.118 0.71 -0.355 0 -0.197 0.21 -0.355 0.474 -0.355 0.316 0 0.474 -0.158 0.474 -0.474 0 -0.263 0.158 -0.474 0.355 -0.474 0.195 0 0.355 -0.16 0.355 -0.355 0 -0.195 0.16 -0.355 0.355 -0.355 0.197 0 0.355 -0.21 0.355 -0.474 0 -0.263 0.158 -0.474 0.355 -0.474 0.237 0 0.355 -0.237 0.355 -0.71 0 -0.474 0.118 -0.71 0.355 -0.71 0.197 0 0.355 -0.21 0.355 -0.474 0 -0.316 0.158 -0.474 0.474 -0.474 0.316 0 0.474 -0.158 0.474 -0.474 0 -0.26 0.098 -0.474 0.218 -0.474 0.12 0 0.288 -0.32 0.374 -0.71 0.086 -0.391 0.307 -0.71 0.492 -0.71 0.227 0 0.336 -0.271 0.336 -0.829 0 -0.579 0.107 -0.829 0.355 -0.829 0.268 0 0.355 -0.289 0.355 -1.184 0 -0.894 0.087 -1.184 0.355 -1.184 0.268 0 0.355 -0.289 0.355 -1.184 0 -1.026 0.063 -1.184 0.474 -1.184 0.428 0 0.474 -0.158 0.474 -1.657 0 -1.315 0.073 -1.657 0.355 -1.657 0.298 0 0.355 -0.511 0.355 -3.177 0 -2.331 0.079 -3.203 0.296 -3.275 0.219 -0.073 0.315 -1.223 0.37 -4.401 0.064 -3.729 0.025 -4.322 -0.296 -4.445 -0.317 -0.122 -0.37 -0.766 -0.37 -4.497 0 -3.713 -0.052 -4.355 -0.355 -4.355 -0.292 0 -0.355 -0.419 -0.355 -2.348 0 -2.545 -0.11 -3.097 -0.617 -3.097 -0.257 0 -0.33 -0.467 -0.33 -2.131 0 -1.736 -0.066 -2.131 -0.355 -2.131 -0.288 0 -0.355 -0.381 -0.355 -2.01 0 -1.631 -0.067 -2.01 -0.355 -2.01 -0.279 0 -0.355 -0.33 -0.355 -1.546 0 -1.156 -0.09 -1.581 -0.355 -1.683 -0.249 -0.095 -0.355 -0.483 -0.355 -1.295 0 -0.872 -0.088 -1.158 -0.355 -1.158 -0.268 0 -0.355 -0.289 -0.355 -1.184 0 -1.026 -0.063 -1.184 -0.474 -1.184 -0.41 0 -0.474 -0.158 -0.474 -1.184 0 -0.894 -0.087 -1.184 -0.355 -1.184 -0.268 0 -0.355 -0.289 -0.355 -1.184 0 -0.894 -0.087 -1.184 -0.355 -1.184 -0.248 0 -0.355 -0.25 -0.355 -0.829 0 -0.579 -0.107 -0.829 -0.355 -0.829 -0.268 0 -0.355 -0.289 -0.355 -1.184 0 -0.894 -0.087 -1.184 -0.355 -1.184 -0.248 0 -0.355 -0.25 -0.355 -0.829 0 -0.671 -0.09 -0.829 -0.474 -0.829 -0.383 0 -0.474 -0.158 -0.474 -0.829 0 -0.579 -0.107 -0.829 -0.355 -0.829 -0.248 0 -0.355 -0.25 -0.355 -0.829 0 -0.579 -0.107 -0.829 -0.355 -0.829 -0.237 0 -0.355 -0.237 -0.355 -0.71 0 -0.474 -0.118 -0.71 -0.355 -0.71 -0.197 0 -0.355 -0.21 -0.355 -0.474 0 -0.263 -0.158 -0.474 -0.355 -0.474 -0.248 0 -0.355 -0.25 -0.355 -0.829 0 -0.579 -0.107 -0.829 -0.355 -0.829 -0.195 0 -0.355 -0.16 -0.355 -0.355 0 -0.197 -0.21 -0.355 -0.474 -0.355 -0.383 0 -0.474 -0.158 -0.474 -0.829 0 -0.579 -0.107 -0.829 -0.355 -0.829 -0.195 0 -0.355 -0.16 -0.355 -0.355 0 -0.195 -0.16 -0.355 -0.355 -0.355 -0.248 0 -0.355 -0.25 -0.355 -0.829 0 -0.579 -0.107 -0.829 -0.355 -0.829 -0.197 0 -0.355 -0.21 -0.355 -0.474 0 -0.263 -0.158 -0.474 -0.355 -0.474 -0.195 0 -0.355 -0.16 -0.355 -0.355 0 -0.197 -0.21 -0.355 -0.474 -0.355 -0.263 0 -0.474 -0.158 -0.474 -0.355 0 -0.195 -0.16 -0.355 -0.355 -0.355 -0.248 0 -0.355 -0.25 -0.355 -0.829 0 -0.579 -0.107 -0.829 -0.355 -0.829 -0.197 0 -0.355 -0.21 -0.355 -0.474 0 -0.263 -0.158 -0.474 -0.355 -0.474 -0.195 0 -0.355 -0.16 -0.355 -0.355 0 -0.195 -0.16 -0.355 -0.355 -0.355 -0.195 0 -0.355 -0.16 -0.355 -0.355 0 -0.197 -0.21 -0.355 -0.474 -0.355 -0.316 0 -0.474 -0.158 -0.474 -0.474 0 -0.263 -0.158 -0.474 -0.355 -0.474 -0.195 0 -0.355 -0.16 -0.355 -0.355 0 -0.195 -0.16 -0.355 -0.355 -0.355 -0.197 0 -0.355 -0.21 -0.355 -0.474 0 -0.26 -0.148 -0.474 -0.33 -0.474 -0.181 0 -0.391 -0.16 -0.466 -0.355 -0.075 -0.195 -0.406 -0.355 -0.736 -0.355 -0.375 0 -0.599 -0.133 -0.599 -0.355 0 -0.197 -0.21 -0.355 -0.474 -0.355 -0.316 0 -0.474 -0.158 -0.474 -0.474 0 -0.263 -0.158 -0.474 -0.355 -0.474 -0.195 0 -0.355 -0.16 -0.355 -0.355 0 -0.195 -0.147 -0.355 -0.328 -0.355 -0.18 0 -0.383 -0.213 -0.451 -0.474 -0.084 -0.32 -0.323 -0.474 -0.738 -0.474 -0.388 0 -0.614 -0.131 -0.614 -0.355 0 -0.197 -0.21 -0.355 -0.474 -0.355 -0.263 0 -0.474 -0.158 -0.474 -0.355 0 -0.237 -0.237 -0.355 -0.71 -0.355 -0.552 0 -0.71 -0.105 -0.71 -0.474 0 -0.263 -0.158 -0.474 -0.355 -0.474 -0.195 0 -0.355 -0.16 -0.355 -0.355 0 -0.248 -0.25 -0.355 -0.829 -0.355 -0.671 0 -0.829 -0.09 -0.829 -0.474 0 -0.368 -0.158 -0.474 -0.71 -0.474 -0.474 0 -0.71 -0.118 -0.71 -0.355 0 -0.237 -0.237 -0.355 -0.71 -0.355 -0.474 0 -0.71 -0.118 -0.71 -0.355 0 -0.248 -0.25 -0.355 -0.829 -0.355 -0.671 0 -0.829 -0.09 -0.829 -0.474 0 -0.368 -0.158 -0.474 -0.71 -0.474 -0.474 0 -0.71 -0.118 -0.71 -0.355 0 -0.268 -0.289 -0.355 -1.184 -0.355 -1.026 0 -1.184 -0.063 -1.184 -0.474 0 -0.368 -0.158 -0.474 -0.71 -0.474 -0.474 0 -0.71 -0.118 -0.71 -0.355 0 -0.279 -0.329 -0.355 -1.539 -0.355 -1.21 0 -1.539 -0.076 -1.539 -0.355 0 -0.263 -0.276 -0.355 -1.065 -0.355 -0.908 0 -1.065 -0.07 -1.065 -0.474 0 -0.434 -0.158 -0.474 -1.894 -0.474 -1.526 0 -1.894 -0.069 -1.894 -0.355 0 -0.292 -0.421 -0.355 -2.368 -0.355 -1.858 0 -2.368 -0.07 -2.368 -0.328 0 -0.507 -0.786 -0.613 -4.558 -0.616 -2.974 -0.003 -3.492 -0.057 -3.492 -0.365 0 -0.32 -1.29 -0.354 -11.286 -0.296 -8.771 0.051 -11.308 0.132 -11.384 0.362 -0.07 0.21 -0.779 0.296 -2.446 0.296 -2.19 0 -2.348 0.032 -2.348 0.474 0 0.434 -0.158 0.474 -1.894 0.474 -1.526 0 -1.894 0.069 -1.894 0.355 0 0.263 -0.276 0.355 -1.065 0.355 -0.908 0 -1.065 0.07 -1.065 0.474 0 0.41 -0.158 0.474 -1.184 0.474 -0.894 0 -1.184 0.087 -1.184 0.355 0 0.237 -0.237 0.355 -0.71 0.355 -0.474 0 -0.71 0.118 -0.71 0.355 0 0.237 -0.237 0.355 -0.71 0.355 -0.552 0 -0.71 0.105 -0.71 0.474 0 0.383 -0.158 0.474 -0.829 0.474 -0.558 0 -0.829 0.11 -0.829 0.336 0 0.185 -0.32 0.407 -0.71 0.492 -0.391 0.086 -0.71 0.307 -0.71 0.492 0 0.185 -0.16 0.336 -0.355 0.336 -0.195 0 -0.355 0.16 -0.355 0.355 0 0.197 -0.21 0.355 -0.474 0.355 -0.263 0 -0.474 0.158 -0.474 0.355 0 0.195 -0.16 0.355 -0.355 0.355 -0.197 0 -0.355 0.21 -0.355 0.474 0 0.263 -0.158 0.474 -0.355 0.474 -0.195 0 -0.355 0.16 -0.355 0.355 0 0.195 -0.16 0.355 -0.355 0.355 -0.197 0 -0.355 0.21 -0.355 0.474 0 0.263 -0.158 0.474 -0.355 0.474 -0.197 0 -0.355 0.21 -0.355 0.474 0 0.267 -0.158 0.474 -0.361 0.474 -0.212 0 -0.42 0.294 -0.503 0.71 -0.078 0.391 -0.289 0.71 -0.468 0.71 -0.214 0 -0.326 0.283 -0.326 0.829 0 0.579 -0.107 0.829 -0.355 0.829 -0.237 0 -0.355 0.237 -0.355 0.71 0 0.474 -0.118 0.71 -0.355 0.71 -0.273 0 -0.355 0.303 -0.355 1.302 0 1 -0.083 1.302 -0.355 1.302 -0.279 0 -0.355 0.329 -0.355 1.539 0 1.21 -0.076 1.539 -0.355 1.539 -0.297 0 -0.355 0.487 -0.355 2.959 0 2.372 -0.065 2.959 -0.33 2.959 -0.548 0 -0.617 0.57 -0.617 5.11 0 4.203 0.017 4.361 0.474 4.361 0.457 0 0.474 0.158 0.474 4.498 0 3.841 0.052 4.498 0.355 4.498 0.296 0 0.355 0.474 0.355 2.841 0 2.368 0.059 2.841 0.355 2.841 0.295 0 0.355 0.46 0.355 2.723 0 2.179 0.066 2.723 0.332 2.723 0.256 0 0.351 0.517 0.414 2.258 0.049 1.34 0.191 2.327 0.35 2.427 0.149 0.094 0.31 1 0.362 2.045 0.059 1.195 0.198 1.912 0.383 1.973 0.18 0.06 0.289 0.579 0.289 1.379 0 1.125 0.058 1.282 0.474 1.282 0.428 0 0.474 0.158 0.474 1.657 0 1.315 0.073 1.657 0.355 1.657 0.268 0 0.355 0.289 0.355 1.184 0 0.894 0.087 1.184 0.355 1.184 0.268 0 0.355 0.289 0.355 1.184 0 0.894 0.087 1.184 0.355 1.184 0.248 0 0.355 0.25 0.355 0.829 0 0.579 0.107 0.829 0.355 0.829 0.268 0 0.355 0.289 0.355 1.184 0 1.026 0.063 1.184 0.474 1.184 0.383 0 0.474 0.158 0.474 0.829 0 0.579 0.107 0.829 0.355 0.829 0.237 0 0.355 0.237 0.355 0.71 0 0.474 0.118 0.71 0.355 0.71 0.248 0 0.355 0.25 0.355 0.829 0 0.579 0.107 0.829 0.355 0.829 0.248 0 0.355 0.25 0.355 0.829 0 0.579 0.107 0.829 0.355 0.829 0.248 0 0.355 0.25 0.355 0.829 0 0.671 0.09 0.829 0.474 0.829 0.263 0 0.474 0.158 0.474 0.355 0 0.195 0.16 0.355 0.355 0.355 0.248 0 0.355 0.25 0.355 0.829 0 0.579 0.107 0.829 0.355 0.829 0.248 0 0.355 0.25 0.355 0.829 0 0.579 0.107 0.829 0.355 0.829 0.195 0 0.355 0.16 0.355 0.355 0 0.195 0.16 0.355 0.355 0.355 0.197 0 0.355 0.21 0.355 0.474 0 0.263 0.158 0.474 0.355 0.474 0.237 0 0.355 0.237 0.355 0.71 0 0.552 0.105 0.71 0.474 0.71 0.316 0 0.474 0.158 0.474 0.474 0 0.263 0.158 0.474 0.355 0.474 0.195 0 0.355 0.16 0.355 0.355 0 0.195 0.16 0.355 0.355 0.355 0.197 0 0.355 0.21 0.355 0.474 0 0.26 0.151 0.474 0.336 0.474 0.185 0 0.407 0.32 0.492 0.71 0.086 0.391 0.254 0.71 0.374 0.71 0.12 0 0.218 0.213 0.218 0.474 0 0.316 0.158 0.474 0.474 0.474 0.263 0 0.474 0.158 0.474 0.355 0 0.195 0.16 0.355 0.355 0.355 0.197 0 0.355 0.21 0.355 0.474 0 0.263 0.158 0.474 0.355 0.474 0.195 0 0.355 0.16 0.355 0.355 0 0.195 0.16 0.355 0.355 0.355 0.195 0 0.355 0.16 0.355 0.355 0 0.195 0.147 0.355 0.328 0.355 0.18 0 0.383 0.213 0.451 0.474 0.09 0.345 0.323 0.474 0.856 0.474 0.493 0 0.732 0.116 0.732 0.355 0 0.195 0.16 0.355 0.355 0.355 0.197 0 0.355 0.21 0.355 0.474 0 0.263 0.158 0.474 0.355 0.474 0.195 0 0.355 0.16 0.355 0.355 0 0.195 0.16 0.355 0.355 0.355 0.195 0 0.355 0.16 0.355 0.355 0 0.248 0.25 0.355 0.829 0.355 0.671 0 0.829 0.09 0.829 0.474 0 0.263 0.158 0.474 0.355 0.474 0.195 0 0.355 0.16 0.355 0.355 0 0.237 0.237 0.355 0.71 0.355 0.552 0 0.71 0.105 0.71 0.474 0 0.263 0.158 0.474 0.355 0.474 0.195 0 0.355 0.16 0.355 0.355 0 0.248 0.25 0.355 0.829 0.355 0.579 0 0.829 0.107 0.829 0.355 0 0.237 0.237 0.355 0.71 0.355 0.552 0 0.71 0.105 0.71 0.474 0 0.383 0.158 0.474 0.829 0.474 0.579 0 0.829 0.107 0.829 0.355 0 0.237 0.237 0.355 0.71 0.355 0.552 0 0.71 0.105 0.71 0.474 0 0.368 0.158 0.474 0.71 0.474 0.474 0 0.71 0.118 0.71 0.355 0 0.268 0.289 0.355 1.184 0.355 0.894 0 1.184 0.087 1.184 0.355 0 0.263 0.276 0.355 1.065 0.355 0.908 0 1.065 0.07 1.065 0.474 0 0.425 0.158 0.474 1.539 0.474 1.21 0 1.539 0.076 1.539 0.355 0 0.279 0.329 0.355 1.539 0.355 1.152 0 1.539 0.082 1.539 0.328 0 0.492 0.777 0.613 3.966 0.616 2.419 0.003 2.9 0.062 2.9 0.358 0 0.311 1.578 0.355 12.785 0.355 11.207 0 12.785 -0.044 12.785 -0.355 z m 47.588 -20.953 c 0 -0.263 0.158 -0.474 0.355 -0.474 0.298 0 0.355 -0.513 0.355 -3.196 0 -3.038 0.023 -3.196 0.474 -3.196 0.469 0 0.474 -0.158 0.474 -15.744 0 -15.587 -0.005 -15.744 -0.474 -15.744 -0.45 0 -0.474 -0.158 -0.474 -3.196 0 -2.683 -0.057 -3.196 -0.355 -3.196 -0.292 0 -0.355 -0.421 -0.355 -2.368 0 -1.947 -0.063 -2.368 -0.355 -2.368 -0.282 0 -0.355 -0.342 -0.355 -1.657 0 -1.315 -0.073 -1.657 -0.355 -1.657 -0.279 0 -0.355 -0.33 -0.355 -1.546 0 -1.156 -0.09 -1.581 -0.355 -1.683 -0.249 -0.095 -0.355 -0.483 -0.355 -1.295 0 -0.872 -0.088 -1.158 -0.355 -1.158 -0.268 0 -0.355 -0.289 -0.355 -1.184 0 -1.026 -0.063 -1.184 -0.474 -1.184 -0.383 0 -0.474 -0.158 -0.474 -0.829 0 -0.579 -0.107 -0.829 -0.355 -0.829 -0.268 0 -0.355 -0.289 -0.355 -1.184 0 -0.894 -0.087 -1.184 -0.355 -1.184 -0.248 0 -0.355 -0.25 -0.355 -0.829 0 -0.579 -0.107 -0.829 -0.355 -0.829 -0.248 0 -0.355 -0.25 -0.355 -0.829 0 -0.579 -0.107 -0.829 -0.355 -0.829 -0.248 0 -0.355 -0.25 -0.355 -0.829 0 -0.671 -0.09 -0.829 -0.474 -0.829 -0.368 0 -0.474 -0.158 -0.474 -0.71 0 -0.474 -0.118 -0.71 -0.355 -0.71 -0.197 0 -0.355 -0.21 -0.355 -0.474 0 -0.263 -0.158 -0.474 -0.355 -0.474 -0.248 0 -0.355 -0.25 -0.355 -0.829 0 -0.558 -0.11 -0.829 -0.336 -0.829 -0.185 0 -0.407 -0.32 -0.492 -0.71 -0.086 -0.391 -0.254 -0.71 -0.374 -0.71 -0.12 0 -0.218 -0.213 -0.218 -0.474 0 -0.316 -0.158 -0.474 -0.474 -0.474 -0.263 0 -0.474 -0.158 -0.474 -0.355 0 -0.195 -0.16 -0.355 -0.355 -0.355 -0.237 0 -0.355 -0.237 -0.355 -0.71 0 -0.474 -0.118 -0.71 -0.355 -0.71 -0.197 0 -0.355 -0.21 -0.355 -0.474 0 -0.263 -0.158 -0.474 -0.355 -0.474 -0.197 0 -0.355 -0.21 -0.355 -0.474 0 -0.263 -0.158 -0.474 -0.355 -0.474 -0.195 0 -0.355 -0.16 -0.355 -0.355 0 -0.195 -0.16 -0.355 -0.355 -0.355 -0.197 0 -0.355 -0.21 -0.355 -0.474 0 -0.316 -0.158 -0.474 -0.474 -0.474 -0.263 0 -0.474 -0.158 -0.474 -0.355 0 -0.195 -0.16 -0.355 -0.355 -0.355 -0.195 0 -0.355 -0.16 -0.355 -0.355 0 -0.195 -0.16 -0.355 -0.355 -0.355 -0.197 0 -0.355 -0.21 -0.355 -0.474 0 -0.263 -0.158 -0.474 -0.355 -0.474 -0.195 0 -0.355 -0.16 -0.355 -0.355 0 -0.195 -0.16 -0.355 -0.355 -0.355 -0.197 0 -0.355 -0.21 -0.355 -0.474 0 -0.316 -0.158 -0.474 -0.474 -0.474 -0.263 0 -0.474 -0.158 -0.474 -0.355 0 -0.195 -0.16 -0.355 -0.355 -0.355 -0.195 0 -0.355 -0.16 -0.355 -0.355 0 -0.195 -0.16 -0.355 -0.355 -0.355 -0.197 0 -0.355 -0.21 -0.355 -0.474 0 -0.368 -0.158 -0.474 -0.71 -0.474 -0.474 0 -0.71 -0.118 -0.71 -0.355 0 -0.197 -0.21 -0.355 -0.474 -0.355 -0.316 0 -0.474 -0.158 -0.474 -0.474 0 -0.263 -0.158 -0.474 -0.355 -0.474 -0.195 0 -0.355 -0.16 -0.355 -0.355 0 -0.237 -0.237 -0.355 -0.71 -0.355 -0.474 0 -0.71 -0.118 -0.71 -0.355 0 -0.195 -0.16 -0.355 -0.355 -0.355 -0.197 0 -0.355 -0.21 -0.355 -0.474 0 -0.383 -0.158 -0.474 -0.829 -0.474 -0.579 0 -0.829 -0.107 -0.829 -0.355 0 -0.195 -0.16 -0.355 -0.355 -0.355 -0.197 0 -0.355 -0.21 -0.355 -0.474 0 -0.368 -0.158 -0.474 -0.71 -0.474 -0.474 0 -0.71 -0.118 -0.71 -0.355 0 -0.195 -0.16 -0.355 -0.355 -0.355 -0.195 0 -0.355 -0.16 -0.355 -0.355 0 -0.248 -0.25 -0.355 -0.829 -0.355 -0.671 0 -0.829 -0.09 -0.829 -0.474 0 -0.368 -0.158 -0.474 -0.71 -0.474 -0.474 0 -0.71 -0.118 -0.71 -0.355 0 -0.248 -0.25 -0.355 -0.829 -0.355 -0.671 0 -0.829 -0.09 -0.829 -0.474 0 -0.368 -0.158 -0.474 -0.71 -0.474 -0.474 0 -0.71 -0.118 -0.71 -0.355 0 -0.237 -0.237 -0.355 -0.71 -0.355 -0.474 0 -0.71 -0.118 -0.71 -0.355 0 -0.248 -0.25 -0.355 -0.829 -0.355 -0.671 0 -0.829 -0.09 -0.829 -0.474 0 -0.368 -0.158 -0.474 -0.71 -0.474 -0.474 0 -0.71 -0.118 -0.71 -0.355 0 -0.234 -0.234 -0.355 -0.683 -0.355 -0.484 0 -0.719 -0.138 -0.806 -0.474 -0.101 -0.387 -0.323 -0.474 -1.211 -0.474 -0.809 0 -1.088 -0.091 -1.088 -0.355 0 -0.237 -0.237 -0.355 -0.71 -0.355 -0.474 0 -0.71 -0.118 -0.71 -0.355 0 -0.268 -0.289 -0.355 -1.184 -0.355 -0.894 0 -1.184 0.087 -1.184 0.355 0 0.2 -0.212 0.355 -0.486 0.355 -0.437 0 -0.479 0.124 -0.414 1.243 0.07 1.212 0.091 1.245 0.841 1.317 0.477 0.046 0.769 0.204 0.769 0.414 0 0.245 0.297 0.34 1.065 0.34 0.908 0 1.065 0.07 1.065 0.474 0 0.383 0.158 0.474 0.829 0.474 0.579 0 0.829 0.107 0.829 0.355 0 0.237 0.237 0.355 0.71 0.355 0.474 0 0.71 0.118 0.71 0.355 0 0.234 0.234 0.355 0.683 0.355 0.484 0 0.719 0.138 0.806 0.474 0.09 0.345 0.323 0.474 0.856 0.474 0.493 0 0.732 0.116 0.732 0.355 0 0.234 0.234 0.355 0.683 0.355 0.484 0 0.719 0.138 0.806 0.474 0.09 0.345 0.323 0.474 0.856 0.474 0.493 0 0.732 0.116 0.732 0.355 0 0.237 0.237 0.355 0.71 0.355 0.474 0 0.71 0.118 0.71 0.355 0 0.237 0.237 0.355 0.71 0.355 0.552 0 0.71 0.105 0.71 0.474 0 0.383 0.158 0.474 0.829 0.474 0.579 0 0.829 0.107 0.829 0.355 0 0.195 0.16 0.355 0.355 0.355 0.197 0 0.355 0.21 0.355 0.474 0 0.368 0.158 0.474 0.71 0.474 0.474 0 0.71 0.118 0.71 0.355 0 0.197 0.21 0.355 0.474 0.355 0.263 0 0.474 0.158 0.474 0.355 0 0.237 0.237 0.355 0.71 0.355 0.552 0 0.71 0.105 0.71 0.474 0 0.316 0.158 0.474 0.474 0.474 0.263 0 0.474 0.158 0.474 0.355 0 0.221 0.224 0.355 0.592 0.355 0.434 0 0.592 0.126 0.592 0.474 0 0.316 0.158 0.474 0.474 0.474 0.263 0 0.474 0.158 0.474 0.355 0 0.195 0.16 0.355 0.355 0.355 0.195 0 0.355 0.16 0.355 0.355 0 0.237 0.237 0.355 0.71 0.355 0.552 0 0.71 0.105 0.71 0.474 0 0.263 0.158 0.474 0.355 0.474 0.195 0 0.355 0.16 0.355 0.355 0 0.197 0.21 0.355 0.474 0.355 0.316 0 0.474 0.158 0.474 0.474 0 0.263 0.158 0.474 0.355 0.474 0.195 0 0.355 0.16 0.355 0.355 0 0.195 0.16 0.355 0.355 0.355 0.195 0 0.355 0.16 0.355 0.355 0 0.195 0.16 0.355 0.355 0.355 0.197 0 0.355 0.21 0.355 0.474 0 0.263 0.158 0.474 0.355 0.474 0.195 0 0.355 0.16 0.355 0.355 0 0.195 0.16 0.355 0.355 0.355 0.197 0 0.355 0.21 0.355 0.474 0 0.316 0.158 0.474 0.474 0.474 0.263 0 0.474 0.158 0.474 0.355 0 0.195 0.16 0.355 0.355 0.355 0.195 0 0.355 0.16 0.355 0.355 0 0.195 0.16 0.355 0.355 0.355 0.248 0 0.355 0.25 0.355 0.829 0 0.579 0.107 0.829 0.355 0.829 0.197 0 0.355 0.21 0.355 0.474 0 0.263 0.158 0.474 0.355 0.474 0.195 0 0.355 0.16 0.355 0.355 0 0.197 0.21 0.355 0.474 0.355 0.383 0 0.474 0.158 0.474 0.829 0 0.579 0.107 0.829 0.355 0.829 0.195 0 0.355 0.16 0.355 0.355 0 0.195 0.16 0.355 0.355 0.355 0.248 0 0.355 0.25 0.355 0.829 0 0.579 0.107 0.829 0.355 0.829 0.238 0 0.355 0.238 0.355 0.718 0 0.42 0.148 0.774 0.355 0.854 0.195 0.075 0.355 0.285 0.355 0.466 0 0.181 0.213 0.33 0.474 0.33 0.383 0 0.474 0.158 0.474 0.829 0 0.579 0.107 0.829 0.355 0.829 0.268 0 0.355 0.289 0.355 1.184 0 0.894 0.087 1.184 0.355 1.184 0.248 0 0.355 0.25 0.355 0.829 0 0.544 0.112 0.829 0.324 0.829 0.211 0 0.368 0.39 0.45 1.117 0.069 0.614 0.243 1.156 0.386 1.204 0.143 0.048 0.26 0.451 0.26 0.896 0 0.561 0.109 0.809 0.355 0.809 0.28 0 0.355 0.331 0.355 1.561 0 1.362 0.06 1.577 0.474 1.685 0.392 0.103 0.474 0.323 0.474 1.28 0 0.87 0.088 1.156 0.355 1.156 0.288 0 0.355 0.381 0.355 2.01 0 1.631 0.067 2.01 0.355 2.01 0.292 0 0.355 0.421 0.355 2.368 0 1.947 0.063 2.368 0.355 2.368 0.298 0 0.355 0.513 0.355 3.196 0 2.683 0.057 3.196 0.355 3.196 0.311 0 0.355 1.629 0.355 13.239 0 10.381 -0.064 13.26 -0.296 13.337 -0.22 0.073 -0.315 1.317 -0.369 4.873 -0.064 4.197 -0.028 4.775 0.296 4.775 0.211 0 0.369 0.203 0.369 0.474 0 0.383 0.158 0.474 0.829 0.474 0.671 0 0.829 -0.09 0.829 -0.474 z"/><path d="m 119.72 189.04 c 0 -0.286 -0.368 -0.355 -1.894 -0.355 -1.736 0 -1.894 -0.04 -1.894 -0.474 0 -0.421 -0.158 -0.474 -1.421 -0.474 -1.105 0 -1.421 -0.079 -1.421 -0.355 0 -0.268 -0.289 -0.355 -1.184 -0.355 -0.894 0 -1.184 -0.087 -1.184 -0.355 0 -0.263 -0.276 -0.355 -1.065 -0.355 -0.908 0 -1.065 -0.07 -1.065 -0.474 0 -0.383 -0.158 -0.474 -0.829 -0.474 -0.579 0 -0.829 -0.107 -0.829 -0.355 0 -0.237 -0.237 -0.355 -0.71 -0.355 -0.552 0 -0.71 -0.105 -0.71 -0.474 0 -0.383 -0.158 -0.474 -0.829 -0.474 -0.579 0 -0.829 -0.107 -0.829 -0.355 0 -0.237 -0.237 -0.355 -0.71 -0.355 -0.474 0 -0.71 -0.118 -0.71 -0.355 0 -0.237 -0.237 -0.355 -0.71 -0.355 -0.552 0 -0.71 -0.105 -0.71 -0.474 0 -0.263 -0.158 -0.474 -0.355 -0.474 -0.195 0 -0.355 -0.16 -0.355 -0.355 0 -0.248 -0.25 -0.355 -0.829 -0.355 -0.671 0 -0.829 -0.09 -0.829 -0.474 0 -0.263 -0.158 -0.474 -0.355 -0.474 -0.195 0 -0.355 -0.16 -0.355 -0.355 0 -0.237 -0.237 -0.355 -0.71 -0.355 -0.474 0 -0.71 -0.118 -0.71 -0.355 0 -0.197 -0.21 -0.355 -0.474 -0.355 -0.316 0 -0.474 -0.158 -0.474 -0.474 0 -0.263 -0.158 -0.474 -0.355 -0.474 -0.195 0 -0.355 -0.16 -0.355 -0.355 0 -0.195 -0.16 -0.355 -0.355 -0.355 -0.197 0 -0.355 -0.21 -0.355 -0.474 0 -0.263 -0.158 -0.474 -0.355 -0.474 -0.195 0 -0.355 -0.16 -0.355 -0.355 0 -0.195 -0.16 -0.355 -0.355 -0.355 -0.195 0 -0.355 -0.16 -0.355 -0.355 0 -0.197 -0.21 -0.355 -0.474 -0.355 -0.316 0 -0.474 -0.158 -0.474 -0.474 0 -0.263 -0.158 -0.474 -0.355 -0.474 -0.195 0 -0.355 -0.16 -0.355 -0.355 0 -0.195 -0.16 -0.355 -0.355 -0.355 -0.197 0 -0.355 -0.21 -0.355 -0.474 0 -0.263 -0.158 -0.474 -0.355 -0.474 -0.195 0 -0.355 -0.16 -0.355 -0.355 0 -0.195 -0.16 -0.355 -0.355 -0.355 -0.195 0 -0.355 -0.16 -0.355 -0.355 0 -0.195 -0.16 -0.355 -0.355 -0.355 -0.197 0 -0.355 -0.21 -0.355 -0.474 0 -0.316 -0.158 -0.474 -0.474 -0.474 -0.263 0 -0.474 -0.158 -0.474 -0.355 0 -0.195 -0.16 -0.355 -0.355 -0.355 -0.248 0 -0.355 -0.25 -0.355 -0.829 0 -0.579 -0.107 -0.829 -0.355 -0.829 -0.195 0 -0.355 -0.16 -0.355 -0.355 0 -0.195 -0.16 -0.355 -0.355 -0.355 -0.248 0 -0.355 -0.25 -0.355 -0.829 0 -0.579 -0.107 -0.829 -0.355 -0.829 -0.197 0 -0.355 -0.21 -0.355 -0.474 0 -0.316 -0.158 -0.474 -0.474 -0.474 -0.368 0 -0.474 -0.158 -0.474 -0.71 0 -0.474 -0.118 -0.71 -0.355 -0.71 -0.248 0 -0.355 -0.25 -0.355 -0.829 0 -0.579 -0.107 -0.829 -0.355 -0.829 -0.248 0 -0.355 -0.25 -0.355 -0.829 0 -0.579 -0.107 -0.829 -0.355 -0.829 -0.248 0 -0.355 -0.25 -0.355 -0.829 0 -0.579 -0.107 -0.829 -0.355 -0.829 -0.248 0 -0.355 -0.25 -0.355 -0.829 0 -0.671 -0.09 -0.829 -0.474 -0.829 -0.41 0 -0.474 -0.158 -0.474 -1.184 0 -0.894 -0.087 -1.184 -0.355 -1.184 -0.268 0 -0.355 -0.289 -0.355 -1.184 0 -0.894 -0.087 -1.184 -0.355 -1.184 -0.268 0 -0.355 -0.289 -0.355 -1.184 0 -0.894 -0.087 -1.184 -0.355 -1.184 -0.288 0 -0.355 -0.381 -0.355 -2.01 0 -1.631 -0.067 -2.01 -0.355 -2.01 -0.395 0 -0.432 -1.778 -0.357 -16.928 0.032 -6.478 0.096 -7.845 0.375 -8 0.26 -0.146 0.337 -0.803 0.337 -2.9 0 -2.252 0.06 -2.711 0.355 -2.711 0.279 0 0.355 -0.329 0.355 -1.539 0 -1.21 0.076 -1.539 0.355 -1.539 0.282 0 0.355 -0.342 0.355 -1.657 0 -1.315 0.073 -1.657 0.355 -1.657 0.268 0 0.355 -0.289 0.355 -1.184 0 -1.026 0.063 -1.184 0.474 -1.184 0.41 0 0.474 -0.158 0.474 -1.184 0 -0.894 0.087 -1.184 0.355 -1.184 0.248 0 0.355 -0.25 0.355 -0.829 0 -0.579 0.107 -0.829 0.355 -0.829 0.248 0 0.355 -0.25 0.355 -0.829 0 -0.579 0.107 -0.829 0.355 -0.829 0.248 0 0.355 -0.25 0.355 -0.829 0 -0.579 0.107 -0.829 0.355 -0.829 0.195 0 0.355 -0.16 0.355 -0.355 0 -0.197 0.21 -0.355 0.474 -0.355 0.383 0 0.474 -0.158 0.474 -0.829 0 -0.579 0.107 -0.829 0.355 -0.829 0.195 0 0.355 -0.16 0.355 -0.355 0 -0.195 0.16 -0.355 0.355 -0.355 0.197 0 0.355 -0.21 0.355 -0.474 0 -0.263 0.158 -0.474 0.355 -0.474 0.197 0 0.355 -0.21 0.355 -0.474 0 -0.263 0.158 -0.474 0.355 -0.474 0.237 0 0.355 -0.237 0.355 -0.71 0 -0.552 0.105 -0.71 0.474 -0.71 0.263 0 0.474 -0.158 0.474 -0.355 0 -0.195 0.16 -0.355 0.355 -0.355 0.197 0 0.355 -0.21 0.355 -0.474 0 -0.368 0.158 -0.474 0.71 -0.474 0.474 0 0.71 -0.118 0.71 -0.355 0 -0.195 0.16 -0.355 0.355 -0.355 0.197 0 0.355 -0.21 0.355 -0.474 0 -0.263 0.158 -0.474 0.355 -0.474 0.195 0 0.355 -0.16 0.355 -0.355 0 -0.195 0.205 -0.355 0.457 -0.355 0.251 0 0.616 -0.16 0.812 -0.355 0.195 -0.195 0.523 -0.355 0.727 -0.355 0.214 0 0.372 -0.201 0.372 -0.474 0 -0.368 0.158 -0.474 0.71 -0.474 0.474 0 0.71 -0.118 0.71 -0.355 0 -0.248 0.25 -0.355 0.829 -0.355 0.671 0 0.829 -0.09 0.829 -0.474 0 -0.368 0.158 -0.474 0.71 -0.474 0.474 0 0.71 -0.118 0.71 -0.355 0 -0.263 0.277 -0.355 1.073 -0.355 0.735 0 1.116 -0.112 1.209 -0.355 0.093 -0.241 0.47 -0.355 1.176 -0.355 0.882 0 1.04 -0.072 1.04 -0.474 0 -0.425 0.158 -0.474 1.539 -0.474 1.21 0 1.539 -0.076 1.539 -0.355 0 -0.286 0.368 -0.355 1.894 -0.355 1.736 0 1.894 -0.039 1.894 -0.474 0 -0.455 0.158 -0.474 4.143 -0.474 3.525 0 4.143 -0.053 4.143 -0.355 0 -0.294 0.447 -0.355 2.604 -0.355 2.157 0 2.604 0.061 2.604 0.355 0 0.306 0.789 0.355 5.682 0.355 4.68 0 5.682 0.058 5.682 0.328 0 0.446 0.75 0.612 2.782 0.616 1.367 0.003 1.716 0.076 1.716 0.358 0 0.262 0.273 0.355 1.038 0.355 0.839 0 1.062 0.091 1.162 0.474 0.101 0.385 0.323 0.474 1.192 0.474 0.587 0 1.106 0.113 1.152 0.252 0.046 0.139 0.535 0.312 1.085 0.386 0.624 0.084 1 0.256 1 0.458 0 0.212 0.285 0.324 0.829 0.324 0.671 0 0.829 0.09 0.829 0.474 0 0.403 0.158 0.474 1.065 0.474 0.789 0 1.065 0.092 1.065 0.355 0 0.197 0.21 0.355 0.474 0.355 0.26 0 0.474 0.151 0.474 0.336 0 0.185 0.32 0.407 0.71 0.492 0.391 0.086 0.71 0.307 0.71 0.492 0 0.216 0.254 0.336 0.71 0.336 0.474 0 0.71 0.118 0.71 0.355 0 0.197 0.21 0.355 0.474 0.355 0.26 0 0.474 0.151 0.474 0.336 0 0.185 0.32 0.407 0.71 0.492 0.391 0.086 0.71 0.307 0.71 0.492 0 0.185 0.16 0.336 0.355 0.336 0.197 0 0.355 0.21 0.355 0.474 0 0.368 0.158 0.474 0.71 0.474 0.474 0 0.71 0.118 0.71 0.355 0 0.197 0.21 0.355 0.474 0.355 0.263 0 0.474 0.158 0.474 0.355 0 0.195 0.16 0.355 0.355 0.355 0.197 0 0.355 0.21 0.355 0.474 0 0.263 0.158 0.474 0.355 0.474 0.195 0 0.355 0.16 0.355 0.355 0 0.195 0.16 0.355 0.355 0.355 0.197 0 0.355 0.21 0.355 0.474 0 0.263 0.158 0.474 0.355 0.474 0.195 0 0.355 0.16 0.355 0.355 0 0.197 0.21 0.355 0.474 0.355 0.263 0 0.474 0.158 0.474 0.355 0 0.195 0.16 0.355 0.355 0.355 0.197 0 0.355 0.21 0.355 0.474 0 0.263 0.158 0.474 0.355 0.474 0.195 0 0.355 0.16 0.355 0.355 0 0.195 0.16 0.355 0.355 0.355 0.197 0 0.355 0.21 0.355 0.474 0 0.263 0.158 0.474 0.355 0.474 0.195 0 0.355 0.16 0.355 0.355 0 0.197 0.21 0.355 0.474 0.355 0.368 0 0.474 0.158 0.474 0.71 0 0.474 0.118 0.71 0.355 0.71 0.197 0 0.355 0.21 0.355 0.474 0 0.263 0.158 0.474 0.355 0.474 0.197 0 0.355 0.21 0.355 0.474 0 0.263 0.158 0.474 0.355 0.474 0.237 0 0.355 0.237 0.355 0.71 0 0.474 0.118 0.71 0.355 0.71 0.197 0 0.355 0.21 0.355 0.474 0 0.263 0.158 0.474 0.355 0.474 0.248 0 0.355 0.25 0.355 0.829 0 0.671 0.09 0.829 0.474 0.829 0.368 0 0.474 0.158 0.474 0.71 0 0.474 0.118 0.71 0.355 0.71 0.197 0 0.355 0.21 0.355 0.474 0 0.263 0.158 0.474 0.355 0.474 0.248 0 0.355 0.25 0.355 0.829 0 0.579 0.107 0.829 0.355 0.829 0.237 0 0.355 0.237 0.355 0.71 0 0.474 0.118 0.71 0.355 0.71 0.229 0 0.356 0.232 0.358 0.651 0.005 1.014 0.257 1.716 0.616 1.716 0.216 0 0.328 0.281 0.328 0.829 0 0.579 0.107 0.829 0.355 0.829 0.268 0 0.355 0.289 0.355 1.184 0 0.894 0.087 1.184 0.355 1.184 0.273 0 0.355 0.303 0.355 1.302 0 1 0.083 1.302 0.355 1.302 0.268 0 0.355 0.289 0.355 1.184 0 0.894 0.087 1.184 0.355 1.184 0.282 0 0.355 0.342 0.355 1.657 0 1.499 0.045 1.657 0.474 1.657 0.442 0 0.474 0.158 0.474 2.368 0 1.947 0.063 2.368 0.355 2.368 0.3 0 0.355 0.566 0.355 3.67 0 3.104 0.055 3.67 0.355 3.67 0.31 0 0.355 1.223 0.355 9.589 0 8.365 -0.045 9.589 -0.355 9.589 -0.292 0 -0.355 0.421 -0.355 2.368 0 1.947 -0.063 2.368 -0.355 2.368 -0.267 0 -0.355 0.286 -0.355 1.156 0 0.957 -0.082 1.178 -0.474 1.28 -0.387 0.101 -0.474 0.323 -0.474 1.211 0 0.809 -0.091 1.088 -0.355 1.088 -0.256 0 -0.355 0.263 -0.355 0.947 0 0.684 -0.099 0.947 -0.355 0.947 -0.237 0 -0.355 0.237 -0.355 0.71 0 0.474 -0.118 0.71 -0.355 0.71 -0.248 0 -0.355 0.25 -0.355 0.829 0 0.579 -0.107 0.829 -0.355 0.829 -0.248 0 -0.355 0.25 -0.355 0.829 0 0.671 -0.09 0.829 -0.474 0.829 -0.263 0 -0.474 0.158 -0.474 0.355 0 0.195 -0.16 0.355 -0.355 0.355 -0.195 0 -0.355 0.16 -0.355 0.355 0 0.195 -0.16 0.355 -0.355 0.355 -0.197 0 -0.355 0.21 -0.355 0.474 0 0.263 -0.158 0.474 -0.355 0.474 -0.195 0 -0.355 0.16 -0.355 0.355 0 0.195 -0.16 0.355 -0.355 0.355 -0.197 0 -0.355 0.21 -0.355 0.474 0 0.316 -0.158 0.474 -0.474 0.474 -0.263 0 -0.474 0.158 -0.474 0.355 0 0.195 -0.16 0.355 -0.355 0.355 -0.195 0 -0.355 0.16 -0.355 0.355 0 0.237 -0.237 0.355 -0.71 0.355 -0.552 0 -0.71 0.105 -0.71 0.474 0 0.263 -0.158 0.474 -0.355 0.474 -0.195 0 -0.355 0.16 -0.355 0.355 0 0.239 -0.239 0.355 -0.732 0.355 -0.533 0 -0.766 0.129 -0.856 0.474 -0.088 0.335 -0.323 0.474 -0.806 0.474 -0.449 0 -0.683 0.122 -0.683 0.355 0 0.237 -0.237 0.355 -0.71 0.355 -0.474 0 -0.71 0.118 -0.71 0.355 0 0.248 -0.25 0.355 -0.829 0.355 -0.671 0 -0.829 0.09 -0.829 0.474 0 0.368 -0.158 0.474 -0.71 0.474 -0.474 0 -0.71 0.118 -0.71 0.355 0 0.262 -0.274 0.355 -1.046 0.355 -1.271 0 -1.795 0.18 -1.795 0.617 0 0.238 -0.33 0.33 -1.184 0.33 -0.894 0 -1.184 0.087 -1.184 0.355 0 0.286 -0.368 0.355 -1.894 0.355 -1.526 0 -1.894 0.069 -1.894 0.355 0 0.286 -0.368 0.355 -1.894 0.355 -1.736 0 -1.894 0.04 -1.894 0.474 0 0.452 -0.158 0.474 -3.433 0.474 -2.894 0 -3.433 0.056 -3.433 0.355 0 0.31 -1.289 0.355 -10.181 0.355 -8.892 0 -10.181 -0.045 -10.181 -0.355 z m 31.02 -10.417 c 0 -0.291 0.408 -0.355 2.249 -0.355 1.841 0 2.249 -0.064 2.249 -0.355 0 -0.268 0.289 -0.355 1.184 -0.355 1.026 0 1.184 -0.063 1.184 -0.474 0 -0.403 0.158 -0.474 1.065 -0.474 0.789 0 1.065 -0.092 1.065 -0.355 0 -0.248 0.25 -0.355 0.829 -0.355 0.671 0 0.829 -0.09 0.829 -0.474 0 -0.368 0.158 -0.474 0.71 -0.474 0.474 0 0.71 -0.118 0.71 -0.355 0 -0.195 0.16 -0.355 0.355 -0.355 0.195 0 0.355 -0.151 0.355 -0.336 0 -0.185 0.32 -0.407 0.71 -0.492 0.391 -0.086 0.71 -0.307 0.71 -0.492 0 -0.185 0.213 -0.336 0.474 -0.336 0.316 0 0.474 -0.158 0.474 -0.474 0 -0.263 0.158 -0.474 0.355 -0.474 0.237 0 0.355 -0.237 0.355 -0.71 0 -0.474 0.118 -0.71 0.355 -0.71 0.195 0 0.355 -0.16 0.355 -0.355 0 -0.195 0.16 -0.355 0.355 -0.355 0.246 0 0.355 -0.247 0.355 -0.801 0 -0.602 0.118 -0.832 0.474 -0.925 0.385 -0.101 0.474 -0.323 0.474 -1.186 0 -0.726 0.112 -1.105 0.355 -1.199 0.283 -0.109 0.355 -0.619 0.355 -2.511 0 -1.953 0.063 -2.375 0.355 -2.375 0.305 0 0.355 -0.737 0.355 -5.209 0 -4.472 -0.05 -5.209 -0.355 -5.209 -0.303 0 -0.355 -0.658 -0.355 -4.498 0 -3.841 -0.052 -4.498 -0.355 -4.498 -0.301 0 -0.355 -0.594 -0.355 -3.929 0 -3.73 -0.024 -3.935 -0.474 -4.053 -0.426 -0.111 -0.474 -0.323 -0.474 -2.109 0 -1.606 -0.068 -1.985 -0.355 -1.985 -0.279 0 -0.355 -0.329 -0.355 -1.539 0 -1.21 -0.076 -1.539 -0.355 -1.539 -0.279 0 -0.355 -0.329 -0.355 -1.539 0 -1.21 -0.076 -1.539 -0.355 -1.539 -0.256 0 -0.355 -0.263 -0.355 -0.947 0 -0.684 -0.099 -0.947 -0.355 -0.947 -0.264 0 -0.355 -0.279 -0.355 -1.088 0 -0.888 -0.087 -1.11 -0.474 -1.211 -0.356 -0.093 -0.474 -0.323 -0.474 -0.925 0 -0.554 -0.109 -0.801 -0.355 -0.801 -0.237 0 -0.355 -0.237 -0.355 -0.71 0 -0.474 -0.118 -0.71 -0.355 -0.71 -0.197 0 -0.355 -0.21 -0.355 -0.474 0 -0.263 -0.158 -0.474 -0.355 -0.474 -0.248 0 -0.355 -0.25 -0.355 -0.829 0 -0.579 -0.107 -0.829 -0.355 -0.829 -0.195 0 -0.355 -0.16 -0.355 -0.355 0 -0.195 -0.16 -0.355 -0.355 -0.355 -0.248 0 -0.355 -0.25 -0.355 -0.829 0 -0.671 -0.09 -0.829 -0.474 -0.829 -0.263 0 -0.474 -0.158 -0.474 -0.355 0 -0.195 -0.16 -0.355 -0.355 -0.355 -0.197 0 -0.355 -0.21 -0.355 -0.474 0 -0.263 -0.158 -0.474 -0.355 -0.474 -0.238 0 -0.355 -0.238 -0.355 -0.718 0 -0.42 -0.148 -0.774 -0.355 -0.854 -0.195 -0.075 -0.355 -0.285 -0.355 -0.466 0 -0.181 -0.16 -0.33 -0.355 -0.33 -0.195 0 -0.355 -0.16 -0.355 -0.355 0 -0.197 -0.21 -0.355 -0.474 -0.355 -0.316 0 -0.474 -0.158 -0.474 -0.474 0 -0.263 -0.158 -0.474 -0.355 -0.474 -0.195 0 -0.355 -0.16 -0.355 -0.355 0 -0.195 -0.16 -0.355 -0.355 -0.355 -0.197 0 -0.355 -0.21 -0.355 -0.474 0 -0.273 -0.158 -0.474 -0.372 -0.474 -0.205 0 -0.532 -0.16 -0.727 -0.355 -0.195 -0.195 -0.561 -0.355 -0.812 -0.355 -0.251 0 -0.457 -0.16 -0.457 -0.355 0 -0.195 -0.16 -0.355 -0.355 -0.355 -0.197 0 -0.355 -0.21 -0.355 -0.474 0 -0.263 -0.158 -0.474 -0.355 -0.474 -0.195 0 -0.355 -0.16 -0.355 -0.355 0 -0.237 -0.237 -0.355 -0.71 -0.355 -0.552 0 -0.71 -0.105 -0.71 -0.474 0 -0.26 -0.148 -0.474 -0.33 -0.474 -0.181 0 -0.391 -0.16 -0.466 -0.355 -0.08 -0.208 -0.434 -0.355 -0.854 -0.355 -0.48 0 -0.718 -0.118 -0.718 -0.355 0 -0.237 -0.237 -0.355 -0.71 -0.355 -0.552 0 -0.71 -0.105 -0.71 -0.474 0 -0.383 -0.158 -0.474 -0.829 -0.474 -0.579 0 -0.829 -0.107 -0.829 -0.355 0 -0.237 -0.237 -0.355 -0.71 -0.355 -0.552 0 -0.71 -0.105 -0.71 -0.474 0 -0.368 -0.158 -0.474 -0.71 -0.474 -0.474 0 -0.71 -0.118 -0.71 -0.355 0 -0.268 -0.289 -0.355 -1.184 -0.355 -0.894 0 -1.184 -0.087 -1.184 -0.355 0 -0.263 -0.276 -0.355 -1.065 -0.355 -0.908 0 -1.065 -0.07 -1.065 -0.474 0 -0.416 -0.158 -0.474 -1.302 -0.474 -1 0 -1.302 -0.083 -1.302 -0.355 0 -0.284 -0.355 -0.355 -1.776 -0.355 -1.618 0 -1.776 -0.042 -1.776 -0.474 0 -0.445 -0.158 -0.474 -2.621 -0.474 -2.01 0 -2.703 -0.082 -2.976 -0.355 -0.533 -0.533 -13.343 -0.533 -13.343 0 0 0.291 -0.408 0.355 -2.249 0.355 -2.091 0 -2.249 0.033 -2.249 0.474 0 0.41 -0.158 0.474 -1.184 0.474 -0.894 0 -1.184 0.087 -1.184 0.355 0 0.263 -0.276 0.355 -1.065 0.355 -0.908 0 -1.065 0.07 -1.065 0.474 0 0.383 -0.158 0.474 -0.829 0.474 -0.579 0 -0.829 0.107 -0.829 0.355 0 0.237 -0.237 0.355 -0.71 0.355 -0.474 0 -0.71 0.118 -0.71 0.355 0 0.195 -0.16 0.355 -0.355 0.355 -0.197 0 -0.355 0.21 -0.355 0.474 0 0.383 -0.158 0.474 -0.829 0.474 -0.579 0 -0.829 0.107 -0.829 0.355 0 0.195 -0.16 0.355 -0.355 0.355 -0.197 0 -0.355 0.21 -0.355 0.474 0 0.263 -0.158 0.474 -0.355 0.474 -0.195 0 -0.355 0.16 -0.355 0.355 0 0.195 -0.16 0.355 -0.355 0.355 -0.195 0 -0.355 0.16 -0.355 0.355 0 0.195 -0.16 0.355 -0.355 0.355 -0.197 0 -0.355 0.21 -0.355 0.474 0 0.316 -0.158 0.474 -0.474 0.474 -0.26 0 -0.474 0.148 -0.474 0.33 0 0.181 -0.16 0.391 -0.355 0.466 -0.208 0.08 -0.355 0.434 -0.355 0.854 0 0.48 -0.118 0.718 -0.355 0.718 -0.197 0 -0.355 0.21 -0.355 0.474 0 0.263 -0.158 0.474 -0.355 0.474 -0.237 0 -0.355 0.237 -0.355 0.71 0 0.474 -0.118 0.71 -0.355 0.71 -0.256 0 -0.355 0.263 -0.355 0.947 0 0.652 -0.103 0.947 -0.33 0.947 -0.399 0 -0.617 0.51 -0.617 1.44 0 0.456 -0.121 0.691 -0.355 0.691 -0.267 0 -0.355 0.287 -0.355 1.158 0 0.811 -0.106 1.199 -0.355 1.295 -0.275 0.105 -0.355 0.566 -0.355 2.038 0 1.532 -0.069 1.901 -0.355 1.901 -0.296 0 -0.355 0.474 -0.355 2.841 0 2.368 -0.059 2.841 -0.355 2.841 -0.31 0 -0.355 1.328 -0.355 10.536 0 9.207 0.045 10.536 0.355 10.536 0.288 0 0.355 0.381 0.355 2.01 0 1.631 0.067 2.01 0.355 2.01 0.279 0 0.355 0.33 0.355 1.546 0 1.156 0.09 1.581 0.355 1.683 0.219 0.084 0.355 0.444 0.355 0.94 0 0.556 0.109 0.803 0.355 0.803 0.268 0 0.355 0.289 0.355 1.184 0 1.026 0.063 1.184 0.474 1.184 0.368 0 0.474 0.158 0.474 0.71 0 0.474 0.118 0.71 0.355 0.71 0.248 0 0.355 0.25 0.355 0.829 0 0.579 0.107 0.829 0.355 0.829 0.197 0 0.355 0.21 0.355 0.474 0 0.263 0.158 0.474 0.355 0.474 0.237 0 0.355 0.237 0.355 0.71 0 0.474 0.118 0.71 0.355 0.71 0.197 0 0.355 0.21 0.355 0.474 0 0.316 0.158 0.474 0.474 0.474 0.383 0 0.474 0.158 0.474 0.829 0 0.579 0.107 0.829 0.355 0.829 0.195 0 0.355 0.16 0.355 0.355 0 0.195 0.16 0.355 0.355 0.355 0.195 0 0.355 0.16 0.355 0.355 0 0.195 0.16 0.355 0.355 0.355 0.197 0 0.355 0.21 0.355 0.474 0 0.263 0.158 0.474 0.355 0.474 0.195 0 0.355 0.16 0.355 0.355 0 0.195 0.148 0.355 0.329 0.355 0.188 0 0.395 0.354 0.484 0.829 0.136 0.725 0.243 0.829 0.855 0.829 0.464 0 0.7 0.12 0.7 0.355 0 0.195 0.16 0.355 0.355 0.355 0.197 0 0.355 0.21 0.355 0.474 0 0.263 0.158 0.474 0.355 0.474 0.195 0 0.355 0.16 0.355 0.355 0 0.195 0.16 0.355 0.355 0.355 0.197 0 0.355 0.21 0.355 0.474 0 0.316 0.158 0.474 0.474 0.474 0.263 0 0.474 0.158 0.474 0.355 0 0.237 0.237 0.355 0.71 0.355 0.474 0 0.71 0.118 0.71 0.355 0 0.195 0.16 0.355 0.355 0.355 0.197 0 0.355 0.21 0.355 0.474 0 0.383 0.158 0.474 0.829 0.474 0.579 0 0.829 0.107 0.829 0.355 0 0.195 0.16 0.355 0.355 0.355 0.195 0 0.355 0.151 0.355 0.336 0 0.185 0.32 0.407 0.71 0.492 0.391 0.086 0.71 0.307 0.71 0.492 0 0.227 0.271 0.336 0.829 0.336 0.579 0 0.829 0.107 0.829 0.355 0 0.263 0.276 0.355 1.065 0.355 0.908 0 1.065 0.07 1.065 0.474 0 0.368 0.158 0.474 0.71 0.474 0.474 0 0.71 0.118 0.71 0.355 0 0.268 0.289 0.355 1.184 0.355 1.026 0 1.184 0.063 1.184 0.474 0 0.425 0.158 0.474 1.539 0.474 1.21 0 1.539 0.076 1.539 0.355 0 0.286 0.368 0.355 1.894 0.355 1.526 0 1.894 0.069 1.894 0.355 0 0.312 1.71 0.355 13.969 0.355 12.259 0 13.969 -0.043 13.969 -0.355 z"/><path d="m 123.51 175.31 c 0 -0.291 -0.408 -0.355 -2.249 -0.355 -1.841 0 -2.249 -0.064 -2.249 -0.355 0 -0.279 -0.329 -0.355 -1.539 -0.355 -1.381 0 -1.539 -0.049 -1.539 -0.474 0 -0.368 -0.158 -0.474 -0.71 -0.474 -0.474 0 -0.71 -0.118 -0.71 -0.355 0 -0.263 -0.276 -0.355 -1.065 -0.355 -0.908 0 -1.065 -0.07 -1.065 -0.474 0 -0.383 -0.158 -0.474 -0.829 -0.474 -0.579 0 -0.829 -0.107 -0.829 -0.355 0 -0.237 -0.237 -0.355 -0.71 -0.355 -0.474 0 -0.71 -0.118 -0.71 -0.355 0 -0.248 -0.25 -0.355 -0.829 -0.355 -0.671 0 -0.829 -0.09 -0.829 -0.474 0 -0.263 -0.158 -0.474 -0.355 -0.474 -0.195 0 -0.355 -0.16 -0.355 -0.355 0 -0.237 -0.237 -0.355 -0.71 -0.355 -0.552 0 -0.71 -0.105 -0.71 -0.474 0 -0.263 -0.158 -0.474 -0.355 -0.474 -0.195 0 -0.355 -0.16 -0.355 -0.355 0 -0.197 -0.21 -0.355 -0.474 -0.355 -0.263 0 -0.474 -0.158 -0.474 -0.355 0 -0.195 -0.16 -0.355 -0.355 -0.355 -0.195 0 -0.355 -0.151 -0.355 -0.336 0 -0.185 -0.32 -0.407 -0.71 -0.492 -0.391 -0.086 -0.71 -0.307 -0.71 -0.492 0 -0.185 -0.16 -0.336 -0.355 -0.336 -0.197 0 -0.355 -0.21 -0.355 -0.474 0 -0.263 -0.158 -0.474 -0.355 -0.474 -0.195 0 -0.355 -0.16 -0.355 -0.355 0 -0.197 -0.21 -0.355 -0.474 -0.355 -0.263 0 -0.474 -0.158 -0.474 -0.355 0 -0.195 -0.16 -0.355 -0.355 -0.355 -0.248 0 -0.355 -0.25 -0.355 -0.829 0 -0.579 -0.107 -0.829 -0.355 -0.829 -0.197 0 -0.355 -0.21 -0.355 -0.474 0 -0.263 -0.158 -0.474 -0.355 -0.474 -0.195 0 -0.355 -0.16 -0.355 -0.355 0 -0.195 -0.151 -0.355 -0.336 -0.355 -0.185 0 -0.407 -0.32 -0.492 -0.71 -0.086 -0.391 -0.307 -0.71 -0.492 -0.71 -0.185 0 -0.336 -0.213 -0.336 -0.474 0 -0.263 -0.158 -0.474 -0.355 -0.474 -0.248 0 -0.355 -0.25 -0.355 -0.829 0 -0.579 -0.107 -0.829 -0.355 -0.829 -0.248 0 -0.355 -0.25 -0.355 -0.829 0 -0.579 -0.107 -0.829 -0.355 -0.829 -0.248 0 -0.355 -0.25 -0.355 -0.829 0 -0.579 -0.107 -0.829 -0.355 -0.829 -0.237 0 -0.355 -0.237 -0.355 -0.71 0 -0.552 -0.105 -0.71 -0.474 -0.71 -0.416 0 -0.474 -0.158 -0.474 -1.302 0 -1 -0.083 -1.302 -0.355 -1.302 -0.268 0 -0.355 -0.289 -0.355 -1.184 0 -0.894 -0.087 -1.184 -0.355 -1.184 -0.292 0 -0.355 -0.421 -0.355 -2.368 0 -1.947 -0.063 -2.368 -0.355 -2.368 -0.306 0 -0.355 -0.829 -0.355 -6.04 0 -5.209 0.049 -6.04 0.355 -6.04 0.292 0 0.355 -0.421 0.355 -2.368 0 -1.947 0.063 -2.368 0.355 -2.368 0.282 0 0.355 -0.342 0.355 -1.657 0 -1.315 0.073 -1.657 0.355 -1.657 0.268 0 0.355 -0.289 0.355 -1.184 0 -0.85 0.092 -1.184 0.328 -1.184 0.359 0 0.611 -0.703 0.616 -1.716 0.002 -0.419 0.13 -0.651 0.358 -0.651 0.248 0 0.355 -0.25 0.355 -0.829 0 -0.579 0.107 -0.829 0.355 -0.829 0.248 0 0.355 -0.25 0.355 -0.829 0 -0.579 0.107 -0.829 0.355 -0.829 0.237 0 0.355 -0.237 0.355 -0.71 0 -0.474 0.118 -0.71 0.355 -0.71 0.248 0 0.355 -0.25 0.355 -0.829 0 -0.671 0.09 -0.829 0.474 -0.829 0.316 0 0.474 -0.158 0.474 -0.474 0 -0.263 0.158 -0.474 0.355 -0.474 0.237 0 0.355 -0.237 0.355 -0.71 0 -0.474 0.118 -0.71 0.355 -0.71 0.197 0 0.355 -0.21 0.355 -0.474 0 -0.263 0.158 -0.474 0.355 -0.474 0.195 0 0.355 -0.16 0.355 -0.355 0 -0.195 0.16 -0.355 0.355 -0.355 0.197 0 0.355 -0.21 0.355 -0.474 0 -0.316 0.158 -0.474 0.474 -0.474 0.263 0 0.474 -0.158 0.474 -0.355 0 -0.195 0.16 -0.355 0.355 -0.355 0.195 0 0.355 -0.16 0.355 -0.355 0 -0.195 0.16 -0.355 0.355 -0.355 0.197 0 0.355 -0.21 0.355 -0.474 0 -0.263 0.158 -0.474 0.355 -0.474 0.195 0 0.355 -0.16 0.355 -0.355 0 -0.237 0.237 -0.355 0.71 -0.355 0.552 0 0.71 -0.105 0.71 -0.474 0 -0.316 0.158 -0.474 0.474 -0.474 0.263 0 0.474 -0.158 0.474 -0.355 0 -0.237 0.237 -0.355 0.71 -0.355 0.474 0 0.71 -0.118 0.71 -0.355 0 -0.237 0.237 -0.355 0.71 -0.355 0.552 0 0.71 -0.105 0.71 -0.474 0 -0.383 0.158 -0.474 0.829 -0.474 0.579 0 0.829 -0.107 0.829 -0.355 0 -0.263 0.276 -0.355 1.065 -0.355 0.908 0 1.065 -0.07 1.065 -0.474 0 -0.41 0.158 -0.474 1.184 -0.474 0.857 0 1.184 -0.092 1.184 -0.332 0 -0.254 0.507 -0.351 2.17 -0.414 1.464 -0.056 2.202 -0.179 2.269 -0.379 0.076 -0.228 1.655 -0.296 6.826 -0.296 5.823 0 6.728 0.048 6.728 0.355 0 0.286 0.368 0.355 1.894 0.355 1.526 0 1.894 0.069 1.894 0.355 0 0.279 0.329 0.355 1.539 0.355 1.381 0 1.539 0.049 1.539 0.474 0 0.403 0.158 0.474 1.065 0.474 0.789 0 1.065 0.092 1.065 0.355 0 0.248 0.25 0.355 0.829 0.355 0.671 0 0.829 0.09 0.829 0.474 0 0.368 0.158 0.474 0.71 0.474 0.474 0 0.71 0.118 0.71 0.355 0 0.237 0.237 0.355 0.71 0.355 0.474 0 0.71 0.118 0.71 0.355 0 0.248 0.25 0.355 0.829 0.355 0.671 0 0.829 0.09 0.829 0.474 0 0.263 0.158 0.474 0.355 0.474 0.195 0 0.355 0.16 0.355 0.355 0 0.237 0.237 0.355 0.71 0.355 0.552 0 0.71 0.105 0.71 0.474 0 0.263 0.158 0.474 0.355 0.474 0.195 0 0.355 0.16 0.355 0.355 0 0.248 0.25 0.355 0.829 0.355 0.579 0 0.829 0.107 0.829 0.355 0 0.195 0.16 0.355 0.355 0.355 0.197 0 0.355 0.21 0.355 0.474 0 0.263 0.158 0.474 0.355 0.474 0.195 0 0.355 0.16 0.355 0.355 0 0.195 0.16 0.355 0.355 0.355 0.197 0 0.355 0.21 0.355 0.474 0 0.316 0.158 0.474 0.474 0.474 0.263 0 0.474 0.158 0.474 0.355 0 0.195 0.16 0.355 0.355 0.355 0.195 0 0.355 0.16 0.355 0.355 0 0.195 0.16 0.355 0.355 0.355 0.248 0 0.355 0.25 0.355 0.829 0 0.579 0.107 0.829 0.355 0.829 0.197 0 0.355 0.21 0.355 0.474 0 0.263 0.158 0.474 0.355 0.474 0.195 0 0.355 0.16 0.355 0.355 0 0.195 0.16 0.355 0.355 0.355 0.248 0 0.355 0.25 0.355 0.829 0 0.671 0.09 0.829 0.474 0.829 0.263 0 0.474 0.158 0.474 0.355 0 0.195 0.16 0.355 0.355 0.355 0.248 0 0.355 0.25 0.355 0.829 0 0.579 0.107 0.829 0.355 0.829 0.248 0 0.355 0.25 0.355 0.829 0 0.579 0.107 0.829 0.355 0.829 0.248 0 0.355 0.25 0.355 0.829 0 0.579 0.107 0.829 0.355 0.829 0.237 0 0.355 0.237 0.355 0.71 0 0.552 0.105 0.71 0.474 0.71 0.416 0 0.474 0.158 0.474 1.302 0 1 0.083 1.302 0.355 1.302 0.268 0 0.355 0.289 0.355 1.184 0 0.894 0.087 1.184 0.355 1.184 0.279 0 0.355 0.329 0.355 1.539 0 1.21 0.076 1.539 0.355 1.539 0.298 0 0.355 0.514 0.355 3.204 0 2.629 0.064 3.228 0.355 3.34 0.303 0.116 0.355 1.01 0.355 6.03 0 5.081 -0.049 5.894 -0.355 5.894 -0.298 0 -0.355 0.513 -0.355 3.196 0 2.683 -0.057 3.196 -0.355 3.196 -0.282 0 -0.355 0.342 -0.355 1.657 0 1.315 -0.073 1.657 -0.355 1.657 -0.268 0 -0.355 0.289 -0.355 1.184 0 0.894 -0.087 1.184 -0.355 1.184 -0.268 0 -0.355 0.289 -0.355 1.184 0 1.026 -0.063 1.184 -0.474 1.184 -0.383 0 -0.474 0.158 -0.474 0.829 0 0.579 -0.107 0.829 -0.355 0.829 -0.195 0 -0.355 0.148 -0.355 0.33 0 0.181 -0.16 0.391 -0.355 0.466 -0.208 0.08 -0.355 0.434 -0.355 0.854 0 0.48 -0.118 0.718 -0.355 0.718 -0.197 0 -0.355 0.21 -0.355 0.474 0 0.263 -0.158 0.474 -0.355 0.474 -0.195 0 -0.355 0.16 -0.355 0.355 0 0.197 -0.21 0.355 -0.474 0.355 -0.263 0 -0.474 0.158 -0.474 0.355 0 0.195 -0.16 0.355 -0.355 0.355 -0.197 0 -0.355 0.21 -0.355 0.474 0 0.263 -0.158 0.474 -0.355 0.474 -0.195 0 -0.355 0.151 -0.355 0.336 0 0.185 -0.32 0.407 -0.71 0.492 -0.391 0.086 -0.71 0.307 -0.71 0.492 0 0.185 -0.16 0.336 -0.355 0.336 -0.195 0 -0.355 0.16 -0.355 0.355 0 0.248 -0.25 0.355 -0.829 0.355 -0.579 0 -0.829 0.107 -0.829 0.355 0 0.237 -0.237 0.355 -0.71 0.355 -0.552 0 -0.71 0.105 -0.71 0.474 0 0.41 -0.158 0.474 -1.184 0.474 -0.894 0 -1.184 0.087 -1.184 0.355 0 0.263 -0.276 0.355 -1.065 0.355 -0.908 0 -1.065 0.07 -1.065 0.474 0 0.434 -0.158 0.474 -1.894 0.474 -1.526 0 -1.894 0.069 -1.894 0.355 0 0.294 -0.447 0.355 -2.604 0.355 -2.157 0 -2.604 0.061 -2.604 0.355 0 0.308 -0.96 0.355 -7.221 0.355 -6.261 0 -7.221 -0.047 -7.221 -0.355 z m 22.02 -9.47 c 0 -0.279 0.329 -0.355 1.539 -0.355 1.381 0 1.539 -0.049 1.539 -0.474 0 -0.403 0.158 -0.474 1.065 -0.474 0.789 0 1.065 -0.092 1.065 -0.355 0 -0.237 0.237 -0.355 0.71 -0.355 0.552 0 0.71 -0.105 0.71 -0.474 0 -0.316 0.158 -0.474 0.474 -0.474 0.263 0 0.474 -0.158 0.474 -0.355 0 -0.195 0.16 -0.355 0.355 -0.355 0.195 0 0.355 -0.16 0.355 -0.355 0 -0.195 0.16 -0.355 0.355 -0.355 0.197 0 0.355 -0.21 0.355 -0.474 0 -0.263 0.158 -0.474 0.355 -0.474 0.195 0 0.355 -0.16 0.355 -0.355 0 -0.195 0.16 -0.355 0.355 -0.355 0.248 0 0.355 -0.25 0.355 -0.829 0 -0.671 0.09 -0.829 0.474 -0.829 0.409 0 0.474 -0.158 0.474 -1.158 0 -0.811 0.106 -1.199 0.355 -1.295 0.305 -0.117 0.355 -1.197 0.355 -7.72 0 -6.583 -0.047 -7.584 -0.355 -7.584 -0.294 0 -0.356 -0.455 -0.358 -2.664 -0.004 -2.956 -0.131 -3.729 -0.616 -3.729 -0.248 0 -0.328 -0.404 -0.328 -1.657 0 -1.315 -0.073 -1.657 -0.355 -1.657 -0.282 0 -0.355 -0.342 -0.355 -1.657 0 -1.315 -0.073 -1.657 -0.355 -1.657 -0.268 0 -0.355 -0.289 -0.355 -1.184 0 -0.894 -0.087 -1.184 -0.355 -1.184 -0.248 0 -0.355 -0.25 -0.355 -0.829 0 -0.579 -0.107 -0.829 -0.355 -0.829 -0.237 0 -0.355 -0.237 -0.355 -0.71 0 -0.552 -0.105 -0.71 -0.474 -0.71 -0.383 0 -0.474 -0.158 -0.474 -0.829 0 -0.579 -0.107 -0.829 -0.355 -0.829 -0.248 0 -0.355 -0.25 -0.355 -0.829 0 -0.579 -0.107 -0.829 -0.355 -0.829 -0.195 0 -0.355 -0.16 -0.355 -0.355 0 -0.195 -0.16 -0.355 -0.355 -0.355 -0.248 0 -0.355 -0.25 -0.355 -0.829 0 -0.579 -0.107 -0.829 -0.355 -0.829 -0.197 0 -0.355 -0.21 -0.355 -0.474 0 -0.263 -0.158 -0.474 -0.355 -0.474 -0.195 0 -0.355 -0.16 -0.355 -0.355 0 -0.197 -0.21 -0.355 -0.474 -0.355 -0.263 0 -0.474 -0.158 -0.474 -0.355 0 -0.195 -0.16 -0.355 -0.355 -0.355 -0.197 0 -0.355 -0.21 -0.355 -0.474 0 -0.263 -0.158 -0.474 -0.355 -0.474 -0.195 0 -0.355 -0.16 -0.355 -0.355 0 -0.195 -0.16 -0.355 -0.355 -0.355 -0.197 0 -0.355 -0.21 -0.355 -0.474 0 -0.263 -0.158 -0.474 -0.355 -0.474 -0.195 0 -0.355 -0.16 -0.355 -0.355 0 -0.197 -0.21 -0.355 -0.474 -0.355 -0.263 0 -0.474 -0.158 -0.474 -0.355 0 -0.195 -0.16 -0.355 -0.355 -0.355 -0.197 0 -0.355 -0.21 -0.355 -0.474 0 -0.368 -0.158 -0.474 -0.71 -0.474 -0.474 0 -0.71 -0.118 -0.71 -0.355 0 -0.248 -0.25 -0.355 -0.829 -0.355 -0.671 0 -0.829 -0.09 -0.829 -0.474 0 -0.368 -0.158 -0.474 -0.71 -0.474 -0.474 0 -0.71 -0.118 -0.71 -0.355 0 -0.237 -0.237 -0.355 -0.71 -0.355 -0.474 0 -0.71 -0.118 -0.71 -0.355 0 -0.268 -0.289 -0.355 -1.184 -0.355 -1.026 0 -1.184 -0.063 -1.184 -0.474 0 -0.434 -0.158 -0.474 -1.894 -0.474 -1.526 0 -1.894 -0.069 -1.894 -0.355 0 -0.307 -0.908 -0.355 -6.748 -0.355 -5.84 0 -6.748 0.048 -6.748 0.355 0 0.279 -0.329 0.355 -1.539 0.355 -1.381 0 -1.539 0.049 -1.539 0.474 0 0.383 -0.158 0.474 -0.829 0.474 -0.543 0 -0.829 0.112 -0.829 0.324 0 0.202 -0.377 0.375 -1 0.458 -0.551 0.074 -1.039 0.248 -1.085 0.386 -0.046 0.139 -0.288 0.252 -0.538 0.252 -0.296 0 -0.454 0.165 -0.454 0.474 0 0.368 -0.158 0.474 -0.71 0.474 -0.474 0 -0.71 0.118 -0.71 0.355 0 0.195 -0.16 0.355 -0.355 0.355 -0.197 0 -0.355 0.21 -0.355 0.474 0 0.263 -0.158 0.474 -0.355 0.474 -0.195 0 -0.355 0.16 -0.355 0.355 0 0.195 -0.16 0.355 -0.355 0.355 -0.195 0 -0.355 0.16 -0.355 0.355 0 0.197 -0.21 0.355 -0.474 0.355 -0.316 0 -0.474 0.158 -0.474 0.474 0 0.263 -0.158 0.474 -0.355 0.474 -0.195 0 -0.355 0.16 -0.355 0.355 0 0.195 -0.16 0.355 -0.355 0.355 -0.248 0 -0.355 0.25 -0.355 0.829 0 0.579 -0.107 0.829 -0.355 0.829 -0.195 0 -0.355 0.16 -0.355 0.355 0 0.195 -0.16 0.355 -0.355 0.355 -0.248 0 -0.355 0.25 -0.355 0.829 0 0.671 -0.09 0.829 -0.474 0.829 -0.38 0 -0.474 0.158 -0.474 0.803 0 0.496 -0.136 0.856 -0.355 0.94 -0.243 0.093 -0.355 0.474 -0.355 1.209 0 0.796 -0.092 1.073 -0.355 1.073 -0.273 0 -0.355 0.303 -0.355 1.302 0 1 -0.083 1.302 -0.355 1.302 -0.292 0 -0.355 0.421 -0.355 2.368 0 1.947 -0.063 2.368 -0.355 2.368 -0.306 0 -0.355 0.829 -0.355 6.04 0 5.209 0.049 6.04 0.355 6.04 0.288 0 0.355 0.381 0.355 2.01 0 1.546 0.075 2.01 0.324 2.01 0.211 0 0.368 0.39 0.45 1.117 0.069 0.614 0.243 1.156 0.386 1.204 0.143 0.048 0.26 0.451 0.26 0.896 0 0.561 0.109 0.809 0.355 0.809 0.248 0 0.355 0.25 0.355 0.829 0 0.671 0.09 0.829 0.474 0.829 0.368 0 0.474 0.158 0.474 0.71 0 0.474 0.118 0.71 0.355 0.71 0.197 0 0.355 0.21 0.355 0.474 0 0.263 0.158 0.474 0.355 0.474 0.197 0 0.355 0.21 0.355 0.474 0 0.263 0.158 0.474 0.355 0.474 0.237 0 0.355 0.237 0.355 0.71 0 0.474 0.118 0.71 0.355 0.71 0.197 0 0.355 0.21 0.355 0.474 0 0.316 0.158 0.474 0.474 0.474 0.263 0 0.474 0.158 0.474 0.355 0 0.195 0.16 0.355 0.355 0.355 0.197 0 0.355 0.21 0.355 0.474 0 0.263 0.158 0.474 0.355 0.474 0.195 0 0.355 0.16 0.355 0.355 0 0.195 0.16 0.355 0.355 0.355 0.195 0 0.355 0.16 0.355 0.355 0 0.237 0.237 0.355 0.71 0.355 0.552 0 0.71 0.105 0.71 0.474 0 0.316 0.158 0.474 0.474 0.474 0.263 0 0.474 0.158 0.474 0.355 0 0.195 0.16 0.355 0.355 0.355 0.195 0 0.355 0.151 0.355 0.336 0 0.185 0.32 0.407 0.71 0.492 0.391 0.086 0.71 0.307 0.71 0.492 0 0.227 0.271 0.336 0.829 0.336 0.579 0 0.829 0.107 0.829 0.355 0 0.237 0.237 0.355 0.71 0.355 0.552 0 0.71 0.105 0.71 0.474 0 0.41 0.158 0.474 1.184 0.474 0.894 0 1.184 0.087 1.184 0.355 0 0.263 0.276 0.355 1.065 0.355 0.908 0 1.065 0.07 1.065 0.474 0 0.425 0.158 0.474 1.539 0.474 1.21 0 1.539 0.076 1.539 0.355 0 0.311 1.381 0.355 11.01 0.355 9.628 0 11.01 -0.044 11.01 -0.355 z"/><path d="m 126.58 163.23 c 0 -0.291 -0.408 -0.355 -2.249 -0.355 -1.841 0 -2.249 -0.064 -2.249 -0.355 0 -0.279 -0.329 -0.355 -1.539 -0.355 -1.381 0 -1.539 -0.049 -1.539 -0.474 0 -0.368 -0.158 -0.474 -0.71 -0.474 -0.474 0 -0.71 -0.118 -0.71 -0.355 0 -0.248 -0.25 -0.355 -0.829 -0.355 -0.671 0 -0.829 -0.09 -0.829 -0.474 0 -0.368 -0.158 -0.474 -0.71 -0.474 -0.474 0 -0.71 -0.118 -0.71 -0.355 0 -0.237 -0.237 -0.355 -0.71 -0.355 -0.474 0 -0.71 -0.118 -0.71 -0.355 0 -0.195 -0.16 -0.355 -0.355 -0.355 -0.197 0 -0.355 -0.21 -0.355 -0.474 0 -0.383 -0.158 -0.474 -0.829 -0.474 -0.579 0 -0.829 -0.107 -0.829 -0.355 0 -0.195 -0.16 -0.355 -0.355 -0.355 -0.197 0 -0.355 -0.21 -0.355 -0.474 0 -0.263 -0.158 -0.474 -0.355 -0.474 -0.195 0 -0.355 -0.16 -0.355 -0.355 0 -0.195 -0.16 -0.355 -0.355 -0.355 -0.195 0 -0.355 -0.16 -0.355 -0.355 0 -0.197 -0.21 -0.355 -0.474 -0.355 -0.316 0 -0.474 -0.158 -0.474 -0.474 0 -0.263 -0.158 -0.474 -0.355 -0.474 -0.237 0 -0.355 -0.237 -0.355 -0.71 0 -0.474 -0.118 -0.71 -0.355 -0.71 -0.197 0 -0.355 -0.21 -0.355 -0.474 0 -0.263 -0.158 -0.474 -0.355 -0.474 -0.195 0 -0.355 -0.16 -0.355 -0.355 0 -0.195 -0.16 -0.355 -0.355 -0.355 -0.248 0 -0.355 -0.25 -0.355 -0.829 0 -0.671 -0.09 -0.829 -0.474 -0.829 -0.383 0 -0.474 -0.158 -0.474 -0.829 0 -0.579 -0.107 -0.829 -0.355 -0.829 -0.248 0 -0.355 -0.25 -0.355 -0.829 0 -0.579 -0.107 -0.829 -0.355 -0.829 -0.268 0 -0.355 -0.289 -0.355 -1.184 0 -0.858 -0.091 -1.184 -0.332 -1.184 -0.257 0 -0.351 -0.521 -0.414 -2.289 -0.056 -1.559 -0.176 -2.32 -0.378 -2.387 -0.217 -0.072 -0.296 -0.944 -0.296 -3.275 0 -2.666 0.057 -3.177 0.355 -3.177 0.289 0 0.355 -0.395 0.355 -2.131 0 -1.736 0.066 -2.131 0.355 -2.131 0.279 0 0.355 -0.329 0.355 -1.539 0 -1.21 0.076 -1.539 0.355 -1.539 0.248 0 0.355 -0.25 0.355 -0.829 0 -0.579 0.107 -0.829 0.355 -0.829 0.248 0 0.355 -0.25 0.355 -0.829 0 -0.558 0.11 -0.829 0.336 -0.829 0.185 0 0.407 -0.32 0.492 -0.71 0.086 -0.391 0.307 -0.71 0.492 -0.71 0.227 0 0.336 -0.271 0.336 -0.829 0 -0.579 0.107 -0.829 0.355 -0.829 0.195 0 0.355 -0.16 0.355 -0.355 0 -0.195 0.16 -0.355 0.355 -0.355 0.248 0 0.355 -0.25 0.355 -0.829 0 -0.579 0.107 -0.829 0.355 -0.829 0.195 0 0.355 -0.16 0.355 -0.355 0 -0.197 0.21 -0.355 0.474 -0.355 0.316 0 0.474 -0.158 0.474 -0.474 0 -0.263 0.158 -0.474 0.355 -0.474 0.195 0 0.355 -0.16 0.355 -0.355 0 -0.195 0.16 -0.355 0.355 -0.355 0.197 0 0.355 -0.21 0.355 -0.474 0 -0.368 0.158 -0.474 0.71 -0.474 0.474 0 0.71 -0.118 0.71 -0.355 0 -0.197 0.21 -0.355 0.474 -0.355 0.263 0 0.474 -0.158 0.474 -0.355 0 -0.237 0.237 -0.355 0.71 -0.355 0.552 0 0.71 -0.105 0.71 -0.474 0 -0.368 0.158 -0.474 0.71 -0.474 0.474 0 0.71 -0.118 0.71 -0.355 0 -0.248 0.25 -0.355 0.829 -0.355 0.671 0 0.829 -0.09 0.829 -0.474 0 -0.403 0.158 -0.474 1.065 -0.474 0.759 0 1.065 -0.096 1.065 -0.334 0 -0.261 0.549 -0.351 2.526 -0.414 1.75 -0.056 2.556 -0.172 2.624 -0.377 0.069 -0.209 0.755 -0.296 2.328 -0.296 1.824 0 2.229 0.065 2.229 0.355 0 0.292 0.421 0.355 2.368 0.355 1.947 0 2.368 0.063 2.368 0.355 0 0.276 0.316 0.355 1.421 0.355 1.263 0 1.421 0.053 1.421 0.474 0 0.368 0.158 0.474 0.71 0.474 0.474 0 0.71 0.118 0.71 0.355 0 0.248 0.25 0.355 0.829 0.355 0.671 0 0.829 0.09 0.829 0.474 0 0.368 0.158 0.474 0.71 0.474 0.474 0 0.71 0.118 0.71 0.355 0 0.248 0.25 0.355 0.829 0.355 0.579 0 0.829 0.107 0.829 0.355 0 0.195 0.16 0.355 0.355 0.355 0.197 0 0.355 0.21 0.355 0.474 0 0.263 0.158 0.474 0.355 0.474 0.195 0 0.355 0.16 0.355 0.355 0 0.195 0.16 0.355 0.355 0.355 0.197 0 0.355 0.21 0.355 0.474 0 0.26 0.107 0.474 0.237 0.474 0.307 0 1.184 0.877 1.184 1.184 0 0.13 0.213 0.237 0.474 0.237 0.316 0 0.474 0.158 0.474 0.474 0 0.263 0.158 0.474 0.355 0.474 0.195 0 0.355 0.16 0.355 0.355 0 0.195 0.16 0.355 0.355 0.355 0.197 0 0.355 0.21 0.355 0.474 0 0.263 0.158 0.474 0.355 0.474 0.237 0 0.355 0.237 0.355 0.71 0 0.474 0.118 0.71 0.355 0.71 0.248 0 0.355 0.25 0.355 0.829 0 0.671 0.09 0.829 0.474 0.829 0.383 0 0.474 0.158 0.474 0.829 0 0.579 0.107 0.829 0.355 0.829 0.248 0 0.355 0.25 0.355 0.829 0 0.579 0.107 0.829 0.355 0.829 0.248 0 0.355 0.25 0.355 0.829 0 0.579 0.107 0.829 0.355 0.829 0.279 0 0.355 0.329 0.355 1.539 0 1.21 0.076 1.539 0.355 1.539 0.296 0 0.355 0.474 0.355 2.841 0 2.683 0.026 2.841 0.474 2.841 0.458 0 0.474 0.158 0.474 4.708 0 4.508 -0.02 4.713 -0.474 4.831 -0.439 0.115 -0.474 0.323 -0.474 2.869 0 2.282 -0.06 2.745 -0.355 2.745 -0.268 0 -0.355 0.289 -0.355 1.184 0 0.894 -0.087 1.184 -0.355 1.184 -0.248 0 -0.355 0.25 -0.355 0.829 0 0.579 -0.107 0.829 -0.355 0.829 -0.197 0 -0.355 0.21 -0.355 0.474 0 0.263 -0.158 0.474 -0.355 0.474 -0.237 0 -0.355 0.237 -0.355 0.71 0 0.552 -0.105 0.71 -0.474 0.71 -0.316 0 -0.474 0.158 -0.474 0.474 0 0.263 -0.158 0.474 -0.355 0.474 -0.195 0 -0.355 0.16 -0.355 0.355 0 0.195 -0.16 0.355 -0.355 0.355 -0.195 0 -0.355 0.16 -0.355 0.355 0 0.237 -0.237 0.355 -0.71 0.355 -0.552 0 -0.71 0.105 -0.71 0.474 0 0.368 -0.158 0.474 -0.71 0.474 -0.474 0 -0.71 0.118 -0.71 0.355 0 0.248 -0.25 0.355 -0.829 0.355 -0.671 0 -0.829 0.09 -0.829 0.474 0 0.41 -0.158 0.474 -1.184 0.474 -0.894 0 -1.184 0.087 -1.184 0.355 0 0.293 -0.434 0.355 -2.486 0.355 -2.052 0 -2.486 0.062 -2.486 0.355 0 0.304 -0.71 0.355 -4.972 0.355 -4.262 0 -4.972 -0.051 -4.972 -0.355 z m 12.07 -5.445 c 0 -0.268 0.289 -0.355 1.184 -0.355 1.026 0 1.184 -0.063 1.184 -0.474 0 -0.368 0.158 -0.474 0.71 -0.474 0.474 0 0.71 -0.118 0.71 -0.355 0 -0.237 0.237 -0.355 0.71 -0.355 0.552 0 0.71 -0.105 0.71 -0.474 0 -0.316 0.158 -0.474 0.474 -0.474 0.263 0 0.474 -0.158 0.474 -0.355 0 -0.195 0.102 -0.355 0.226 -0.355 0.124 0 0.296 -0.373 0.381 -0.829 0.089 -0.475 0.296 -0.829 0.484 -0.829 0.237 0 0.329 -0.332 0.329 -1.184 0 -0.894 0.087 -1.184 0.355 -1.184 0.309 0 0.355 -1.092 0.355 -8.405 0 -6.999 -0.055 -8.405 -0.328 -8.405 -0.236 0 -0.356 -0.442 -0.428 -1.583 -0.059 -0.933 -0.217 -1.622 -0.383 -1.677 -0.155 -0.052 -0.282 -0.458 -0.282 -0.903 0 -0.561 -0.109 -0.809 -0.355 -0.809 -0.248 0 -0.355 -0.25 -0.355 -0.829 0 -0.671 -0.09 -0.829 -0.474 -0.829 -0.383 0 -0.474 -0.158 -0.474 -0.829 0 -0.579 -0.107 -0.829 -0.355 -0.829 -0.248 0 -0.355 -0.25 -0.355 -0.829 0 -0.579 -0.107 -0.829 -0.355 -0.829 -0.195 0 -0.355 -0.16 -0.355 -0.355 0 -0.195 -0.16 -0.355 -0.355 -0.355 -0.195 0 -0.355 -0.16 -0.355 -0.355 0 -0.195 -0.16 -0.355 -0.355 -0.355 -0.197 0 -0.355 -0.21 -0.355 -0.474 0 -0.316 -0.158 -0.474 -0.474 -0.474 -0.263 0 -0.474 -0.158 -0.474 -0.355 0 -0.195 -0.16 -0.355 -0.355 -0.355 -0.197 0 -0.355 -0.21 -0.355 -0.474 0 -0.263 -0.158 -0.474 -0.355 -0.474 -0.195 0 -0.355 -0.16 -0.355 -0.355 0 -0.237 -0.237 -0.355 -0.71 -0.355 -0.474 0 -0.71 -0.118 -0.71 -0.355 0 -0.248 -0.25 -0.355 -0.829 -0.355 -0.671 0 -0.829 -0.09 -0.829 -0.474 0 -0.368 -0.158 -0.474 -0.71 -0.474 -0.474 0 -0.71 -0.118 -0.71 -0.355 0 -0.237 -0.237 -0.355 -0.71 -0.355 -0.552 0 -0.71 -0.105 -0.71 -0.474 0 -0.425 -0.158 -0.474 -1.539 -0.474 -1.232 0 -1.539 -0.073 -1.539 -0.367 0 -0.323 -0.706 -0.358 -5.959 -0.296 -4.505 0.053 -5.983 0.143 -6.06 0.367 -0.054 0.163 -0.462 0.296 -0.907 0.296 -0.651 0 -0.809 0.092 -0.809 0.474 0 0.368 -0.158 0.474 -0.71 0.474 -0.474 0 -0.71 0.118 -0.71 0.355 0 0.197 -0.21 0.355 -0.474 0.355 -0.316 0 -0.474 0.158 -0.474 0.474 0 0.368 -0.158 0.474 -0.71 0.474 -0.474 0 -0.71 0.118 -0.71 0.355 0 0.195 -0.16 0.355 -0.355 0.355 -0.195 0 -0.355 0.16 -0.355 0.355 0 0.195 -0.16 0.355 -0.355 0.355 -0.197 0 -0.355 0.21 -0.355 0.474 0 0.26 -0.155 0.474 -0.344 0.474 -0.206 0 -0.407 0.333 -0.5 0.829 -0.089 0.475 -0.296 0.829 -0.484 0.829 -0.207 0 -0.329 0.262 -0.329 0.71 0 0.474 -0.118 0.71 -0.355 0.71 -0.248 0 -0.355 0.25 -0.355 0.829 0 0.579 -0.107 0.829 -0.355 0.829 -0.248 0 -0.355 0.25 -0.355 0.829 0 0.579 -0.107 0.829 -0.355 0.829 -0.282 0 -0.355 0.342 -0.355 1.657 0 1.315 -0.073 1.657 -0.355 1.657 -0.306 0 -0.355 0.829 -0.355 6.04 0 5.209 0.049 6.04 0.355 6.04 0.268 0 0.355 0.289 0.355 1.184 0 0.894 0.087 1.184 0.355 1.184 0.248 0 0.355 0.25 0.355 0.829 0 0.579 0.107 0.829 0.355 0.829 0.238 0 0.355 0.238 0.355 0.718 0 0.42 0.148 0.774 0.355 0.854 0.195 0.075 0.355 0.285 0.355 0.466 0 0.181 0.148 0.33 0.329 0.33 0.188 0 0.395 0.354 0.484 0.829 0.093 0.496 0.294 0.829 0.5 0.829 0.189 0 0.344 0.213 0.344 0.474 0 0.263 0.158 0.474 0.355 0.474 0.195 0 0.355 0.16 0.355 0.355 0 0.195 0.16 0.355 0.355 0.355 0.195 0 0.355 0.16 0.355 0.355 0 0.237 0.237 0.355 0.71 0.355 0.552 0 0.71 0.105 0.71 0.474 0 0.316 0.158 0.474 0.474 0.474 0.263 0 0.474 0.158 0.474 0.355 0 0.195 0.16 0.355 0.355 0.355 0.195 0 0.355 0.16 0.355 0.355 0 0.237 0.237 0.355 0.71 0.355 0.552 0 0.71 0.105 0.71 0.474 0 0.383 0.158 0.474 0.829 0.474 0.579 0 0.829 0.107 0.829 0.355 0 0.263 0.276 0.355 1.065 0.355 0.908 0 1.065 0.07 1.065 0.474 0 0.425 0.158 0.474 1.539 0.474 1.21 0 1.539 0.076 1.539 0.355 0 0.308 1 0.355 7.576 0.355 6.577 0 7.576 -0.047 7.576 -0.355 z"/></g></svg>