<svg xmlns="http://www.w3.org/2000/svg" xmlns:xlink="http://www.w3.org/1999/xlink" viewBox="0 0 256 256"><defs><clipPath id="0"><path transform="matrix(15.33333 0 0 11.5 415 -125.5)" d="m -24 13 c 0 1.105 -0.672 2 -1.5 2 -0.828 0 -1.5 -0.895 -1.5 -2 0 -1.105 0.672 -2 1.5 -2 0.828 0 1.5 0.895 1.5 2 z" style="fill:#1890d0"/></clipPath><clipPath id="1"><path transform="matrix(15.33333 0 0 11.5 415 -125.5)" d="m -24 13 c 0 1.105 -0.672 2 -1.5 2 -0.828 0 -1.5 -0.895 -1.5 -2 0 -1.105 0.672 -2 1.5 -2 0.828 0 1.5 0.895 1.5 2 z" style="fill:#1890d0"/></clipPath></defs><g transform="translate(0 -796.36)"><path d="m 203.23 1027.39 c -192.46 127.95 -311 -280.09 -62.2 -226.07 c 102.82 23.02 165.22 167.39 62.2 226.07 z" style="fill:#fff;color:#fff"/><g transform="matrix(5.82955 0 0 6.15931 -14.909 780.35)" style="fill:#ff4500"><g style="clip-path:url(#1)"><g transform="translate(1 1)" style="opacity:0.1"><path d="m 11.531 13 c -0.297 0.031 -0.531 0.297 -0.531 0.594 v 10.816 c 0 0.316 0.277 0.594 0.594 0.594 h 5.406 v 2 h -4 v 2 h 7.281 v -6 h -6.84 c -0.211 0 -0.41 -0.195 -0.41 -0.41 v -7.184 c -0.004 -0.188 0.129 -0.371 0.313 -0.406 0.023 -0.004 0.066 -0.004 0.094 0 h 11.125 c 0.207 0 0.406 0.191 0.406 0.406 v 2.875 h 2.031 v -4.691 c 0 -0.313 -0.281 -0.594 -0.594 -0.594" id="2"/><path d="m 21.781 19 l 3.125 2 h 9.656 c 0.207 0 0.406 0.195 0.406 0.406 v 7.188 c 0 0.211 -0.199 0.406 -0.406 0.406 h -11.125 c -0.211 0 -0.406 -0.195 -0.406 -0.406 v -4.469 l -2.031 -1.313 v 7.594 c 0 0.313 0.281 0.594 0.594 0.594 h 5.406 v 2 h -4 v 2 h 12 v -2 h -4 v -2 h 5.406 c 0.313 0 0.594 -0.277 0.594 -0.594 v -10.813 c 0 -0.316 -0.281 -0.594 -0.594 -0.594" id="3"/><path d="m 24.332 24.14 l -5.793 -3.723 l 1.078 -1.684 l 5.793 3.723" id="4"/><path d="m 18.848 20.617 l 1.082 -1.684 l -1.023 -0.656 c 0 0 -0.328 -0.016 -0.777 0.688 -0.438 0.676 -0.277 1.012 -0.277 1.012 l 0.996 0.641" id="5"/><path d="m 24.316 24.13 l 2.223 0.238 l -1.141 -1.922" id="6"/><path d="m 25.426 24.26 l 1.113 0.105 l -0.566 -0.969" id="7"/></g></g><g style="clip-path:url(#0)"><g><use xlink:href="#2"/><use xlink:href="#3"/><use xlink:href="#4"/><use xlink:href="#5"/><use xlink:href="#6"/><use xlink:href="#7"/></g></g></g></g></svg>