<svg xmlns="http://www.w3.org/2000/svg" viewBox="0 0 256 256"><defs><clipPath id="0"><path transform="matrix(15.33333 0 0 11.5 415 -125.5)" d="m -24 13 c 0 1.105 -0.672 2 -1.5 2 -0.828 0 -1.5 -0.895 -1.5 -2 0 -1.105 0.672 -2 1.5 -2 0.828 0 1.5 0.895 1.5 2 z"/></clipPath></defs><g transform="translate(2.433 -796.62)"><path d="m 208.08 833.49 c 198.86 266.38 -348.41 304.22 -172.78 32.31 40.04 -61.991 120.1 -102.86 172.78 -32.31 z" style="fill:#fff;color:#000"/><g transform="matrix(5.27193 0 0 5.24662 1.474 804.51)" style="fill:#ff4500"><g style="clip-path:url(#0)"><path transform="translate(1 1)" d="m 14 12 c -1 0 -2 1 -2 2 v 7 c 0 1 1 2 2 2 1 0 2 -1 2 -2 v -3 l 2 2 v 3 h 3 v -1 c -0.031 -0.664 0.301 -0.996 1 -1 h 1 v -3 h -3 l -2 -2 h 3 c 1 0 2 -1 2 -2 0 -1 -1 -2 -2 -2 m 6 0 c -1 0 -2 1 -2 2 0 1 1 2 2 2 h 3 l -2 2 h -3 v 3 h 1 c 0.664 -0.031 0.996 0.301 1 1 v 1 h 3 v -3 l 2 -2 v 3 c 0 1 1 2 2 2 1 0 2 -1 2 -2 v -7 c 0 -1 -1 -2 -2 -2 m -16 13 v 3 c 0 1 1 2 2 2 h 3 v -3 h -1 c -0.664 0.031 -0.996 -0.301 -1 -1 v -1 m 6 0 v 1 c 0.031 0.664 -0.301 0.996 -1 1 h -1 v 3 h 3 l 2 2 h -3 c -1 0 -2 1 -2 2 0 1 1 2 2 2 h 7 c 1 0 2 -1 2 -2 v -7 c 0 -1 -1 -2 -2 -2 -1 0 -2 1 -2 2 v 3 l -2 -2 v -3" style="opacity:0.1"/></g><g style="clip-path:url(#0)"><path d="m 14 12 c -1 0 -2 1 -2 2 v 7 c 0 1 1 2 2 2 1 0 2 -1 2 -2 v -3 l 2 2 v 3 h 3 v -1 c -0.031 -0.664 0.301 -0.996 1 -1 h 1 v -3 h -3 l -2 -2 h 3 c 1 0 2 -1 2 -2 0 -1 -1 -2 -2 -2 m 6 0 c -1 0 -2 1 -2 2 0 1 1 2 2 2 h 3 l -2 2 h -3 v 3 h 1 c 0.664 -0.031 0.996 0.301 1 1 v 1 h 3 v -3 l 2 -2 v 3 c 0 1 1 2 2 2 1 0 2 -1 2 -2 v -7 c 0 -1 -1 -2 -2 -2 m -16 13 v 3 c 0 1 1 2 2 2 h 3 v -3 h -1 c -0.664 0.031 -0.996 -0.301 -1 -1 v -1 m 6 0 v 1 c 0.031 0.664 -0.301 0.996 -1 1 h -1 v 3 h 3 l 2 2 h -3 c -1 0 -2 1 -2 2 0 1 1 2 2 2 h 7 c 1 0 2 -1 2 -2 v -7 c 0 -1 -1 -2 -2 -2 -1 0 -2 1 -2 2 v 3 l -2 -2 v -3"/><path d="m 144.79 196.56 c -0.419 -0.081 -0.908 -0.193 -1.087 -0.251 -4.046 -1.292 -7.431 -5.222 -7.869 -9.135 -0.537 -4.804 3.64 -10.09 8.816 -11.156 0.723 -0.149 1.984 -0.173 9.189 -0.173 h 8.35 l -5.328 -5.329 l -5.328 -5.329 h -7.912 h -7.912 v -7.762 v -7.762 l 3.29 -0.058 c 3.571 -0.063 4.202 -0.148 5.221 -0.702 0.708 -0.385 1.423 -1.196 1.731 -1.964 0.239 -0.595 0.25 -0.765 0.284 -4.236 l 0.036 -3.616 h 7.877 h 7.877 v 7.857 v 7.857 l 5.247 5.247 c 2.886 2.886 5.284 5.247 5.329 5.247 0.045 0 0.081 -3.762 0.081 -8.359 v -8.359 l 0.266 -1.049 c 1.068 -4.21 5.01 -7.777 9.218 -8.334 4.283 -0.567 9.263 2.831 10.912 7.446 0.194 0.544 0.405 1.422 0.471 1.963 0.164 1.335 0.169 37.24 0.006 38.553 -0.208 1.673 -0.682 2.907 -1.71 4.452 -1.512 2.272 -3.934 4.057 -6.538 4.818 l -0.826 0.242 l -19.465 0.019 c -15.935 0.015 -19.603 -0.008 -20.227 -0.128 z" transform="matrix(0.18968 0 0 0.1906 -0.741 -1.504)" style="fill:#ffdead;opacity:0.99;fill-rule:evenodd"/></g></g></g></svg>