<svg xmlns="http://www.w3.org/2000/svg" viewBox="0 0 256 256" xmlns:xlink="http://www.w3.org/1999/xlink"><defs><path id="8" d="m 0,0 c 11.245,0 20.361,-9.116 20.361,-20.361 0,-11.245 -9.116,-20.361 -20.361,-20.361 -11.245,0 -20.361,9.116 -20.361,20.361 C -20.361,-9.116 -11.245,0 0,0"/><clipPath id="5"><path d="m 118.92 125.34 h 40.722 v -40.722 h -40.722 v 40.722 z"/></clipPath><clipPath id="6"><path d="m 119.31 427.51 h 40.722 v -40.722 h -40.722 v 40.722 z"/></clipPath><clipPath><path d="m 18.325 493.74 h 475.4 v -475.49 h -475.4 v 475.49 z"/></clipPath><clipPath id="7"><path d="m 91.8 453.77 h 328.39 v -399.29 h -328.39 v 399.29 z"/></clipPath><clipPath><path d="m 18.275 493.69 h 475.39 v -475.44 h -475.39 v 475.44 z"/></clipPath><clipPath><path d="m 448.99 63.03 c -59.697 -59.697 -326.18 -59.697 -385.88 0 -59.697 59.697 -59.697 326.28 -0.1 385.98 c 59.6 59.696 326.28 59.6 385.98 0 59.697 -59.6 59.6 -326.28 0 -385.98"/></clipPath><clipPath><path d="m 63.01 63.03 c 59.697 -59.697 326.18 -59.697 385.88 0 59.697 59.697 59.697 326.18 0 385.88 -59.697 59.696 -326.18 59.696 -385.88 0.1 -59.697 -59.6 -59.6 -326.28 0 -385.98"/></clipPath><clipPath id="4"><path d="m 352.36 427.51 h 40.722 v -40.722 h -40.722 v 40.722 z"/></clipPath><clipPath id="0"><path d="m 206.59 439.61 h 98.83 v -98.83 h -98.83 v 98.83 z"/></clipPath><clipPath id="1"><path d="m 0 512 h 512 v -512 h -512 v 512"/></clipPath><clipPath id="3"><path d="m 351.97 125.34 h 40.722 v -40.722 h -40.722 v 40.722 z"/></clipPath><clipPath><path d="m 219.53 236.35 h 72.939 v -76.64 h -72.939 v 76.64 z"/></clipPath><clipPath><path d="m 151.33 317.69 h 211.82 v -109.09 h -211.82 v 109.09 z"/></clipPath><clipPath id="2"><path d="m 127.38 332.57 h 257.25 v -261.13 h -257.25 v 261.13 z"/></clipPath><clipPath><path d="m 363.16 244.84 c 0 0 -35.3 -36.24 -107.16 -36.24 -72.52 0 -104.67 36.24 -104.67 36.24 0 40.28 43.35 72.85 104.67 72.85 61.31 0 107.16 -34.83 107.16 -72.85"/></clipPath></defs><path d="m 226.22 46.721 c 62.27 95.76 12.03 183 -58.47 203.69 -94.83 27.843 -223.59 -45.32 -138.75 -196.1 c 33.72 -59.925 152.85 -75.79 197.21 -7.587 z" style="fill:#fff;color:#000"/><g transform="matrix(0.41915 0 0 -0.39173 20.02 232.62)" style="fill:#ff4500"><g style="clip-path:url(#1)"><g style="clip-path:url(#7);opacity:0.4"><use transform="translate(0 -3.749)" xlink:href="#9"/></g><path d="m 0 0 c 10.684 23.77 18.246 82.54 18.246 151.28 0 68.74 -7.561 127.51 -18.246 151.28 -4.473 11.461 -12.11 20.74 -21.531 26.18 -19.549 12.991 -67.887 22.18 -124.42 22.18 -56.53 0 -104.87 -9.194 -124.42 -22.19 -9.426 -5.439 -17.06 -14.719 -21.531 -26.18 -10.684 -23.769 -18.245 -82.54 -18.245 -151.28 0 -68.74 7.56 -127.51 18.245 -151.28 4.474 -11.461 12.11 -20.74 21.531 -26.18 19.548 -12.992 67.886 -22.18 124.42 -22.18 56.53 0 104.87 9.193 124.42 22.18 c 9.427 5.438 17.06 14.719 21.532 26.18" transform="translate(401.95 106.59)" id="9"/><g style="clip-path:url(#6);opacity:0.4"><use transform="translate(139.67 427.51)" xlink:href="#8"/></g><g style="clip-path:url(#5);opacity:0.4"><use transform="translate(139.28 125.34)" xlink:href="#8"/></g><use transform="translate(139.67 431.13)" xlink:href="#8"/><path d="M 0,0 -6.326,10.956 0,21.914 l 12.652,0 L 18.979,10.956 12.652,0 0,0 z" transform="translate(133.34 399.81)" style="fill:#ffdead"/><use transform="translate(139.28 128.96)" xlink:href="#8"/><path d="M 0,0 -6.326,10.957 0,21.915 l 12.652,0 L 18.979,10.957 12.652,0 0,0 z" transform="translate(132.95 97.64)" id="A" style="fill:#ffdead"/><g style="clip-path:url(#4);opacity:0.4"><use transform="translate(372.72 427.51)" xlink:href="#8"/></g><g style="clip-path:url(#3);opacity:0.4"><use transform="translate(372.33 125.34)" xlink:href="#8"/></g><use transform="translate(372.72 431.13)" xlink:href="#8"/><path d="M 0,0 -6.326,10.956 0,21.914 l 12.652,0 L 18.979,10.956 12.652,0 0,0 z" transform="translate(366.4 399.81)" style="fill:#ffdead"/><use transform="translate(372.33 128.96)" xlink:href="#8"/><use transform="translate(233.05)" xlink:href="#A"/><g style="clip-path:url(#2);opacity:0.4"><path d="m 0 0 c 71.04 0 128.62 -58.45 128.62 -130.56 0 -72.11 -57.59 -130.56 -128.62 -130.56 -71.04 0 -128.62 58.45 -128.62 130.56 c 0 72.11 57.59 130.56 128.62 130.56" transform="translate(256 332.57)"/></g></g><path d="m 127.38 206.67 c 0 -71.04 57.59 -128.62 128.62 -128.62 c 71.04 0 128.62 57.59 128.62 128.62 c 0 71.04 -57.59 128.62 -128.62 128.62 c -71.04 0 -128.62 -57.59 -128.62 -128.62"/><g style="fill:#ffdead"><path d="m 219.53 206.67 c 0 -20.14 16.328 -36.47 36.47 -36.47 c 20.14 0 36.469 16.328 36.469 36.47 c 0 20.14 -16.327 36.47 -36.469 36.47 c -20.14 0 -36.47 -16.328 -36.47 -36.47"/><g style="clip-path:url(#1);stroke:#ffa07a"><path d="m 0 0 c -19.17 0 -34.772 -15.599 -34.772 -34.772 0 -19.17 15.598 -34.773 34.772 -34.773 19.17 0 34.772 15.599 34.772 34.773 c 0 19.17 -15.599 34.772 -34.772 34.772 m 0 -72.94 c -21.05 0 -38.17 17.12 -38.17 38.17 0 21.05 17.12 38.17 38.17 38.17 21.05 0 38.17 -17.12 38.17 -38.17 c 0 -21.05 -17.12 -38.17 -38.17 -38.17" transform="translate(256 241.44)"/><path d="m 0 0 c -29.593 0 -53.67 -24.07 -53.67 -53.669 0 -29.594 24.08 -53.67 53.67 -53.67 29.593 0 53.67 24.08 53.67 53.67 c 0 29.593 -24.08 53.669 -53.67 53.669 m 0 -110.06 c -31.09 0 -56.38 25.294 -56.38 56.38 0 31.09 25.295 56.38 56.38 56.38 31.09 0 56.38 -25.294 56.38 -56.38 0 -31.09 -25.294 -56.38 -56.38 -56.38" transform="translate(256 260.34)"/></g><path d="m 127.26 206.67 c 0 -71.1 57.638 -128.74 128.74 -128.74 c 71.1 0 128.74 57.638 128.74 128.74 c 0 71.1 -57.637 128.74 -128.74 128.74 c -71.1 0 -128.74 -57.638 -128.74 -128.74 m 26.694 0 c 0 56.36 45.687 102.04 102.04 102.04 c 56.36 0 102.04 -45.687 102.04 -102.04 c 0 -56.36 -45.686 -102.04 -102.04 -102.04 c -56.36 0 -102.04 45.687 -102.04 102.04"/></g><g style="clip-path:url(#1)"><g style="clip-path:url(#0);opacity:0.4"><path d="m 0 0 c -23.254 0 -42.17 18.919 -42.17 42.17 0 23.254 18.92 42.17 42.17 42.17 23.25 0 42.17 -18.919 42.17 -42.17 c 0 -23.25 -18.919 -42.17 -42.17 -42.17 m 0 91.59 c -27.25 0 -49.41 -22.17 -49.41 -49.41 0 -27.25 22.17 -49.41 49.41 -49.41 27.25 0 49.41 22.17 49.41 49.41 0 27.25 -22.17 49.41 -49.41 49.41" transform="translate(256 348.03)"/></g></g><path d="m 208.78 394.89 c 0 -26.08 21.14 -47.22 47.22 -47.22 c 26.08 0 47.22 21.14 47.22 47.22 c 0 26.08 -21.14 47.22 -47.22 47.22 c -26.08 0 -47.22 -21.14 -47.22 -47.22" style="fill:#ffdead"/><path d="m 206.59 394.89 c 0 -27.25 22.17 -49.41 49.41 -49.41 c 27.25 0 49.41 22.17 49.41 49.41 c 0 27.25 -22.17 49.41 -49.41 49.41 c -27.25 0 -49.41 -22.17 -49.41 -49.41 m 7.24 0 c 0 23.254 18.92 42.17 42.17 42.17 c 23.25 0 42.17 -18.919 42.17 -42.17 c 0 -23.254 -18.918 -42.17 -42.17 -42.17 c -23.255 0 -42.17 18.919 -42.17 42.17"/></g></svg>