<svg xmlns="http://www.w3.org/2000/svg" viewBox="0 0 256 256"><defs><clipPath><rect y="6" x="6" rx="6" height="84" width="84" style="fill:#ff4500"/></clipPath><clipPath><path d="m 12 6 c -3.324 0 -6 2.676 -6 6 v 72 c 0 3.324 2.676 6 6 6 h 72 c 3.324 0 6 -2.676 6 -6 v -72 c 0 -3.324 -2.676 -6 -6 -6 h -72 z m 7.5 9 h 57 c 2.493 0 4.5 2.01 4.5 4.5 v 57 c 0 2.493 -2.01 4.5 -4.5 4.5 h -57 c -2.493 0 -4.5 -2.01 -4.5 -4.5 v -57 c 0 -2.493 2.01 -4.5 4.5 -4.5 z"/></clipPath><clipPath><rect y="6" x="16" rx="6" height="84" width="84" style="fill:#ff4500"/></clipPath><clipPath><rect y="6" x="6" rx="6" height="84" width="84" style="fill:#ff4500"/></clipPath></defs><g transform="translate(0 -796.36)"><path d="m 44.834 1015.23 c -201.82 -266.38 353.59 -304.22 175.35 -32.31 -40.634 61.99 -121.89 102.86 -175.35 32.31 z" style="fill:#fff;color:#000"/><g transform="matrix(2.30086 0 0 2.18776 14.807 814)" style="fill:#ff4500;fill-rule:evenodd"><path transform="matrix(0.74697 -0.66485 0.66485 0.74697 0 0)" d="m -2.564 42.656 h 13.01 v 50.22 h -13.01 z"/><path transform="matrix(-0.74697 -0.66485 -0.66485 0.74697 0 0)" d="m -74.27 -21.17 h 13.01 v 50.22 h -13.01 z"/></g></g></svg>