<svg xmlns="http://www.w3.org/2000/svg" viewBox="0 0 256 256"><defs><clipPath><path d="m -24 13 c 0 1.105 -0.672 2 -1.5 2 -0.828 0 -1.5 -0.895 -1.5 -2 0 -1.105 0.672 -2 1.5 -2 0.828 0 1.5 0.895 1.5 2 z" transform="matrix(15.33333 0 0 11.5 415 -125.5)" style="fill:#1890d0"/></clipPath></defs><g transform="translate(0 -796.36)"><path d="m 252.75 895.07 c -49.981 -239.91 -393.86 17.642 -187.29 139.59 80.25 52.27 213 -16.2 187.29 -139.59 z" style="fill:#fff;color:#fff"/><g transform="matrix(3.70017 0 0 3.71909 24.946 829.35)" style="fill:#ff4500"><circle r="20.526" cy="24" cx="24" transform="matrix(1.09875 0 0 1.07369 2.697 0.416)" style="fill:#ffdead"/><path d="m 24 8 c -8.819 0 -16 7.181 -16 16 0 8.819 7.181 16 16 16 8.819 0 16 -7.181 16 -16 0 -8.819 -7.181 -16 -16 -16 z m -0.467 2.996 l -3.551 7.563 l -8.32 1.271 c 1.687 -5.01 6.327 -8.638 11.871 -8.834 z m 0.934 0 c 5.544 0.196 10.184 3.82 11.871 8.834 l -8.32 -1.271 l -3.551 -7.563 z m -12.988 9.426 l 6.02 6.172 l -1.281 7.848 c -3.182 -2.372 -5.246 -6.154 -5.246 -10.441 c 0 -1.243 0.183 -2.441 0.506 -3.578 z m 25.04 0 c 0.323 1.137 0.506 2.335 0.506 3.578 0 4.287 -2.064 8.07 -5.246 10.441 l -1.281 -7.848 l 6.02 -6.172 z m -12.521 11.137 l 6.617 3.658 c -1.939 1.144 -4.196 1.811 -6.617 1.811 c -2.422 0 -4.678 -0.667 -6.617 -1.811 l 6.617 -3.658 z" transform="matrix(1.13724 0 0 1.10503 1.605 -0.168)" style="color:#fff"/></g></g></svg>