<svg xmlns="http://www.w3.org/2000/svg" viewBox="0 0 256 256"><path d="m -1374.42 1658.71 c 127.95 -192.46 -280.09 -311 -226.07 -62.2 23.02 102.82 167.39 165.22 226.07 62.2 z" transform="matrix(0 0.98637 -0.98183 0 1682.72 1585.9)" style="fill:#fff;color:#000"/><g style="fill:#ff4500"><path d="m 95.88 191.19 c -2.879 -4.592 -13.53 -5.113 -26.23 -1.283 -4.637 1.397 -10.211 2.541 -12.387 2.541 h -3.956 v -38.618 v -38.618 h 2.01 c 1.108 0 5.652 -1.533 10.1 -3.406 8.887 -3.744 14.35 -5.078 20.746 -5.078 4.772 0 11.632 1.896 15.954 4.409 2.917 1.697 2.927 1.697 6.092 0.011 11.439 -6.089 22.13 -5.791 37.974 1.068 3.812 1.649 7.867 2.998 9.01 2.998 h 2.077 v 38.618 v 38.618 h -3.956 c -2.176 0 -7.75 -1.144 -12.387 -2.541 -12.485 -3.763 -23.01 -3.271 -26.14 1.221 -1.446 2.074 -1.866 2.168 -9.547 2.168 -7.659 0 -8.098 -0.099 -9.359 -2.106 z m 14.4 -2.55 c 0.217 -0.227 0.187 -2.041 -0.068 -4.03 l -0.463 -3.623 h -4.468 h -4.468 l -0.248 4.03 l -0.248 4.03 h 4.783 c 2.63 0 4.96 -0.186 5.177 -0.412 z m 0.132 -14.865 v -3.819 l -5 -0.253 l -5 -0.253 v 4.321 v 4.321 l 5 -0.253 l 5 -0.253 v -3.819 z m -41.683 -7.26 c 9.22 -4.236 14.718 -5.127 21.1 -3.42 6.48 1.736 7.337 1.698 7.337 -0.329 0 -3.164 -4.404 -4.694 -13.402 -4.654 -7.802 0.034 -8.458 0.187 -16.649 3.878 -6.724 3.03 -8.584 4.235 -8.788 5.693 -0.386 2.75 2.612 2.413 10.408 -1.169 z m 83.52 1.176 c -0.203 -1.448 -2.097 -2.681 -8.788 -5.729 -8.257 -3.762 -8.787 -3.886 -16.649 -3.886 -8.995 0 -13.402 1.542 -13.402 4.69 0 2.026 0.853 2.065 7.337 0.329 6.357 -1.702 11.9 -0.813 20.845 3.341 7.688 3.571 11.04 3.966 10.659 1.255 z m -42.09 -4.947 v -4.244 h -4.874 h -4.874 v 4.244 v 4.244 h 4.874 h 4.874 v -4.244 z m -40.718 -7.676 c 10.125 -4.246 14.535 -4.878 20.781 -2.982 5.055 1.536 6.945 1.312 6.945 -0.821 0 -2.389 -7.03 -4.98 -13.402 -4.943 -4.743 0.028 -7.168 0.643 -14.62 3.708 -10.178 4.186 -10.965 4.68 -10.965 6.876 0 2.356 2.062 2.02 11.265 -1.839 z m 82.957 1.455 c 0 -1.721 -1.113 -2.444 -8.551 -5.55 -10.784 -4.504 -16.228 -5.614 -21.611 -4.409 -5.074 1.137 -8.828 3.134 -8.828 4.695 0 2.142 1.564 2.305 7.294 0.763 4.921 -1.325 6.253 -1.38 10.612 -0.439 2.742 0.592 7.784 2.38 11.206 3.972 7.565 3.522 9.876 3.749 9.876 0.967 z m -42.18 -4.611 c 0.254 -1.991 0.285 -3.805 0.068 -4.03 -0.217 -0.227 -2.527 -0.412 -5.133 -0.412 h -4.738 v 3.678 c 0 2.023 0.26 3.95 0.578 4.282 0.318 0.332 2.42 0.491 4.67 0.354 l 4.092 -0.251 l 0.463 -3.623 z m -43.37 -6.996 c 11.1 -5.259 16.879 -6.141 24.583 -3.75 4.556 1.414 6.389 0.827 5.445 -1.743 -0.912 -2.484 -6.197 -4.159 -13.11 -4.159 -5.917 0.001 -7.351 0.369 -16.04 4.118 -8.337 3.597 -9.544 4.372 -9.544 6.101 0 2.713 2.024 2.58 8.672 -0.569 z m 85.55 0.602 c 0 -1.666 -1.184 -2.471 -8.137 -5.529 -4.475 -1.968 -10.01 -3.998 -12.288 -4.51 -6.755 -1.514 -17.09 0.717 -18.272 3.945 -0.944 2.57 0.889 3.157 5.445 1.743 7.7 -2.389 13.656 -1.483 24.404 3.712 6.509 3.145 8.85 3.315 8.85 0.64 z m -42.578 -1.427 c 0.437 -0.457 0.654 -2.367 0.483 -4.244 l -0.311 -3.413 h -4.788 h -4.788 v 3.678 c 0 2.023 0.243 3.933 0.541 4.244 0.841 0.879 7.972 0.666 8.863 -0.264 z m -41.25 -11.178 c 9.288 -4.151 16.649 -5.085 23.25 -2.946 4.362 1.415 5.344 1.214 5.344 -1.093 0 -2.648 -5.968 -4.751 -13.381 -4.716 -5.827 0.027 -7.506 0.446 -15.832 3.95 -9.265 3.899 -10.342 4.704 -9.469 7.081 0.657 1.788 1.349 1.632 10.1 -2.276 z m 83.67 1.343 c -0.213 -1.809 -1.22 -2.604 -5.943 -4.689 -13.532 -5.977 -20.16 -7.02 -27.547 -4.343 -7.632 2.769 -7.282 7.13 0.382 4.749 6.824 -2.12 13.428 -1.273 22.699 2.913 9.286 4.192 10.763 4.387 10.41 1.368 z m -41.941 -4.661 c 0.397 -4.343 -0.593 -5.211 -5.563 -4.88 l -3.921 0.261 l -0.248 4.03 l -0.248 4.03 h 4.833 h 4.833 l 0.314 -3.445 z m -42.38 -7.583 c 2.904 -1.293 6.675 -2.816 8.381 -3.385 3.83 -1.277 11.55 -1.325 14.618 -0.089 1.257 0.507 3.202 0.922 4.318 0.922 1.638 0 1.984 -0.367 1.774 -1.886 -0.191 -1.389 -1.33 -2.305 -4.318 -3.477 -6.562 -2.568 -14.231 -1.68 -25.07 2.903 -8.83 3.735 -10.05 4.696 -9.138 7.186 0.568 1.546 1.625 1.301 9.431 -2.175 z m 84.07 0.822 c 0 -1.747 -1.134 -2.491 -8.934 -5.862 -8.33 -3.599 -9.429 -3.861 -16.245 -3.868 -5.512 -0.006 -8.06 0.38 -10.356 1.573 -5.743 2.983 -2.998 6.336 3.179 3.881 5.736 -2.28 13.275 -0.926 25.858 4.643 5.579 2.47 6.495 2.417 6.495 -0.368 z m -41.719 -1.226 c 0.21 -0.219 0.227 -1.78 0.039 -3.467 -0.3 -2.688 -0.558 -2.997 -2.074 -2.49 -2.206 0.738 -3.708 0.732 -5.995 -0.027 -1.693 -0.561 -1.827 -0.349 -1.827 2.888 v 3.494 h 4.738 c 2.606 0 4.909 -0.179 5.119 -0.398 z"/><path d="m 151.54 134.84 c -2.608 -4.476 -12.26 -4.985 -23.771 -1.251 -4.201 1.362 -9.252 2.477 -11.223 2.477 h -3.585 v -37.651 v -37.651 h 1.825 c 1 0 5.121 -1.494 9.149 -3.321 8.05 -3.65 13 -4.95 18.798 -4.95 4.324 0 10.54 1.848 14.456 4.299 2.643 1.654 2.652 1.654 5.52 0.011 10.364 -5.936 20.05 -5.646 34.408 1.041 3.454 1.608 7.128 2.923 8.162 2.923 h 1.882 v 37.651 v 37.651 h -3.585 c -1.972 0 -7.02 -1.115 -11.223 -2.477 -11.312 -3.669 -20.847 -3.189 -23.687 1.19 -1.311 2.02 -1.691 2.114 -8.651 2.114 -6.94 0 -7.338 -0.096 -8.48 -2.053 z m 13.05 -2.486 c 0.197 -0.221 0.169 -1.99 -0.062 -3.931 l -0.419 -3.532 h -4.048 h -4.048 l -0.224 3.931 l -0.225 3.931 h 4.334 c 2.383 0 4.494 -0.181 4.691 -0.402 z m 0.119 -14.492 v -3.724 l -4.531 -0.246 l -4.531 -0.246 v 4.213 v 4.213 l 4.531 -0.246 l 4.531 -0.246 v -3.724 z m -37.768 -7.078 c 8.354 -4.13 13.336 -4.999 19.12 -3.334 5.872 1.692 6.648 1.655 6.648 -0.321 0 -3.085 -3.99 -4.576 -12.144 -4.538 -7.07 0.033 -7.664 0.182 -15.09 3.781 -6.093 2.954 -7.778 4.129 -7.962 5.551 -0.35 2.681 2.366 2.352 9.431 -1.14 z m 75.67 1.147 c -0.184 -1.411 -1.9 -2.614 -7.962 -5.585 -7.482 -3.668 -7.962 -3.788 -15.09 -3.788 -8.151 0 -12.144 1.503 -12.144 4.573 0 1.975 0.773 2.01 6.648 0.321 5.76 -1.659 10.783 -0.793 18.887 3.257 6.966 3.481 10 3.866 9.658 1.223 z m -38.14 -4.823 v -4.137 h -4.416 h -4.416 v 4.137 v 4.137 h 4.416 h 4.416 v -4.137 z m -36.894 -7.484 c 9.174 -4.139 13.17 -4.756 18.829 -2.907 4.581 1.497 6.292 1.279 6.292 -0.8 0 -2.329 -6.367 -4.856 -12.144 -4.819 -4.297 0.027 -6.495 0.627 -13.247 3.616 -9.222 4.081 -9.936 4.563 -9.936 6.704 0 2.297 1.869 1.969 10.207 -1.793 z m 75.17 1.418 c 0 -1.678 -1.01 -2.383 -7.748 -5.411 -9.771 -4.391 -14.704 -5.474 -19.582 -4.298 -4.598 1.109 -7.999 3.055 -7.999 4.578 0 2.088 1.417 2.248 6.609 0.744 4.459 -1.291 5.666 -1.345 9.615 -0.428 2.484 0.577 7.05 2.32 10.154 3.873 6.854 3.434 8.949 3.655 8.949 0.943 z m -38.22 -4.495 c 0.23 -1.941 0.258 -3.71 0.062 -3.931 -0.197 -0.221 -2.29 -0.402 -4.651 -0.402 h -4.293 v 3.586 c 0 1.972 0.236 3.851 0.524 4.175 0.288 0.324 2.192 0.479 4.232 0.345 l 3.708 -0.244 l 0.419 -3.532 z m -39.29 -6.82 c 10.06 -5.127 15.294 -5.987 22.274 -3.656 4.128 1.378 5.789 0.806 4.934 -1.699 -0.827 -2.422 -5.615 -4.055 -11.883 -4.054 -5.361 0.001 -6.661 0.36 -14.535 4.02 -7.554 3.507 -8.648 4.262 -8.648 5.948 0 2.645 1.834 2.515 7.857 -0.555 z m 77.52 0.587 c 0 -1.624 -1.073 -2.409 -7.373 -5.391 -4.055 -1.919 -9.07 -3.898 -11.134 -4.397 -6.12 -1.476 -15.482 0.699 -16.556 3.846 -0.855 2.505 0.806 3.078 4.934 1.699 6.977 -2.329 12.373 -1.446 22.11 3.619 5.898 3.066 8.02 3.231 8.02 0.624 z m -38.579 -1.391 c 0.396 -0.445 0.593 -2.307 0.438 -4.137 l -0.282 -3.328 h -4.339 h -4.339 v 3.586 c 0 1.972 0.221 3.834 0.491 4.137 0.762 0.857 7.223 0.65 8.03 -0.258 z m -37.37 -10.898 c 8.416 -4.047 15.09 -4.957 21.06 -2.872 3.953 1.379 4.842 1.183 4.842 -1.065 0 -2.581 -5.407 -4.632 -12.12 -4.598 -5.28 0.027 -6.801 0.435 -14.346 3.851 -8.395 3.801 -9.371 4.586 -8.579 6.904 0.595 1.744 1.222 1.591 9.149 -2.219 z m 75.82 1.309 c -0.193 -1.764 -1.106 -2.538 -5.385 -4.572 -12.262 -5.827 -18.265 -6.845 -24.961 -4.234 -6.915 2.699 -6.598 6.952 0.346 4.63 6.183 -2.067 12.167 -1.241 20.567 2.84 8.414 4.087 9.752 4.277 9.433 1.334 z m -38 -4.545 c 0.359 -4.234 -0.537 -5.08 -5.04 -4.757 l -3.553 0.255 l -0.224 3.931 l -0.225 3.931 h 4.379 h 4.379 l 0.285 -3.359 z m -38.4 -7.393 c 2.631 -1.26 6.05 -2.746 7.594 -3.3 3.471 -1.245 10.466 -1.291 13.245 -0.086 1.139 0.494 2.901 0.899 3.912 0.899 1.485 0 1.797 -0.358 1.608 -1.839 -0.173 -1.355 -1.205 -2.248 -3.912 -3.389 -5.946 -2.504 -12.895 -1.638 -22.716 2.83 -8 3.642 -9.11 4.578 -8.28 7.01 0.515 1.507 1.473 1.269 8.546 -2.121 z m 76.17 0.801 c 0 -1.704 -1.027 -2.429 -8.095 -5.715 -7.548 -3.509 -8.544 -3.764 -14.719 -3.771 -4.995 -0.006 -7.302 0.371 -9.383 1.534 -5.204 2.908 -2.717 6.177 2.881 3.784 5.197 -2.222 12.03 -0.902 23.429 4.527 5.055 2.408 5.885 2.357 5.885 -0.359 z m -37.801 -1.195 c 0.19 -0.213 0.206 -1.735 0.035 -3.38 -0.272 -2.621 -0.505 -2.922 -1.879 -2.427 -1.998 0.72 -3.36 0.713 -5.432 -0.026 -1.534 -0.547 -1.656 -0.34 -1.656 2.816 v 3.406 h 4.293 c 2.361 0 4.448 -0.175 4.638 -0.388 z"/></g></svg>