<svg xmlns="http://www.w3.org/2000/svg" viewBox="0 0 256 256"><g transform="translate(0 -796.36)"><path d="m 117.3 1051.73 c 155.28 14.765 197.08 -234.25 37.632 -253.59 -146.61 -23.968 -222.12 201.75 -76.44 246.9 c 12.317 4.946 25.786 4.852 38.807 6.696 z" style="fill:#fff;color:#000"/><g transform="matrix(5.47609 0 0 5.17132 -2110.07 -1784.27)" style="fill:#ff4500"><path d="m 408.57 510.96 a 12.62 12.62 0 0 0 -12.62 12.62 12.62 12.62 0 0 0 0.278 2.567 9.317 9.317 0 0 1 9.293 -8.835 9.317 9.317 0 0 1 9.317 9.317 9.317 9.317 0 0 1 -1.426 4.927 c 1.482 0.14 3.383 0.106 5.191 -0.337 a 12.62 12.62 0 0 0 2.587 -7.639 12.62 12.62 0 0 0 -12.62 -12.62 z" style="fill:#ffa07a"/><path d="m 399.21 522.53 c -1.124 1.463 -1.735 3.198 -1.737 4.937 0 2.399 1.183 4.784 3.216 6.481 2.033 1.697 4.889 2.684 7.764 2.684 1.753 -0.001 3.505 -0.359 5.061 -1.035 1.556 -0.676 2.912 -1.668 3.92 -2.866 -1.757 0.208 -3.584 -0.044 -5.175 -0.713 -1.591 -0.67 -2.939 -1.754 -3.818 -3.071 -1.132 -1.386 -1.704 -3.1 -1.597 -4.787 0.107 -1.688 0.891 -3.339 2.191 -4.612 -4.33 -0.893 -7.501 0.186 -9.823 2.983 z"/></g></g></svg>