<svg xmlns="http://www.w3.org/2000/svg" viewBox="0 0 256 256"><g transform="translate(0 -796.36)"><path d="m 52.774 1027.39 c 192.46 127.95 311 -280.09 62.2 -226.07 -102.82 23.02 -165.22 167.39 -62.2 226.07 z" style="fill:#fff;color:#000"/><g transform="matrix(14.95523 0 0 13.5557 25.367 843.02)" style="fill:#ff4500"><path d="m 6.773 1.117 c -3.124 0 -5.656 1.899 -5.656 4.242 0 2.307 2.457 4.18 5.515 4.237 v 2.834 c 5.809 -3.354 5.798 -5.468 5.798 -7.07 c 0 -2.343 -2.532 -4.242 -5.656 -4.242 z"/><path d="m 1.127 5.213 c -0.002 0.049 -0.01 0.097 -0.01 0.146 0 2.307 2.457 4.18 5.515 4.237 v -0.294 c -2.992 -0.056 -5.402 -1.851 -5.505 -4.089 z m 11.298 0.087 c -0.011 1.574 -0.256 3.639 -5.793 6.836 v 0.294 c 5.809 -3.354 5.798 -5.468 5.798 -7.07 c 0 -0.02 -0.004 -0.04 -0.004 -0.06 z" style="fill-opacity:0.314"/><path d="m 6.773 1.117 c -3.124 0 -5.656 1.9 -5.656 4.242 0 0.025 0.004 0.049 0.005 0.074 0.053 -2.309 2.56 -4.169 5.651 -4.169 3.111 0 5.633 1.884 5.654 4.213 0 -0.038 0.002 -0.08 0.002 -0.118 0 -2.343 -2.533 -4.242 -5.656 -4.242 z" style="fill-opacity:0.235"/><path d="m 4.128 3.284 v 2.18 h 1.543 c 0.007 0.051 0.014 0.103 0.014 0.156 0 0.549 -0.407 0.998 -0.934 1.074 v 0.631 c 0.873 -0.079 1.557 -0.811 1.557 -1.705 0 -0.053 -0.003 -0.104 -0.007 -0.156 h 0.007 v -2.18 h -2.18 z m 3.11 0 v 2.18 h 1.543 c 0.007 0.051 0.014 0.103 0.014 0.156 0 0.549 -0.407 0.998 -0.934 1.074 v 0.631 c 0.873 -0.079 1.557 -0.811 1.557 -1.705 0 -0.053 -0.003 -0.104 -0.007 -0.156 h 0.007 v -2.18 h -2.18 z" style="fill:#ffdead;fill-rule:evenodd"/></g></g></svg>