<svg xmlns="http://www.w3.org/2000/svg" viewBox="0 0 256 256"><defs><clipPath><path transform="matrix(15.33333 0 0 11.5 415 -125.5)" d="m -24 13 c 0 1.105 -0.672 2 -1.5 2 -0.828 0 -1.5 -0.895 -1.5 -2 0 -1.105 0.672 -2 1.5 -2 0.828 0 1.5 0.895 1.5 2 z"/></clipPath></defs><g style="fill:#fff"><path transform="translate(-111.75 -852.05)" d="m 323.28 890.82 c 200.11 265.25 -350.59 302.94 -173.86 32.17 40.29 -61.728 120.86 -102.43 173.86 -32.17 z" style="color:#000"/></g><g transform="matrix(1.0098 0 0 0.88753 -6.373 23.454)"><path d="m 165.5 208.1 c -7.655 -4.138 -9.08 -7.149 -9.944 -20.982 -1.147 -18.403 -4.401 -33.584 -9.585 -44.719 -1.525 -3.275 -2.973 -2.715 -2.973 1.149 0 10.86 -11.942 40.756 -18 45.07 -6.556 4.669 -14.375 4.632 -20.385 -0.095 -3.937 -3.097 -5.607 -7.108 -6.606 -15.867 -2.467 -21.634 -14.1 -40.557 -32.651 -53.12 -8.216 -5.564 -11.04 -8.756 -11.926 -13.455 -1.352 -7.206 4.632 -15.634 12.09 -17.03 7.321 -1.373 19.723 5.926 34.728 20.441 7.919 7.66 9.75 9.01 9.75 7.207 0 -3.215 -4.507 -16.16 -8.117 -23.308 -2.57 -5.09 -3.02 -6.983 -2.632 -11.03 1.11 -11.551 12.607 -17.982 22.441 -12.552 12.284 6.783 32.829 25.04 40.521 36 2.242 3.197 4.513 5.812 5.05 5.812 2.308 0 -2.339 -19.293 -7.874 -32.693 -3.765 -9.116 -4.255 -14.67 -1.757 -19.933 4.667 -9.835 18.05 -11.92 25.898 -4.03 2.02 2.03 4.632 6.971 7.305 13.82 14.284 36.61 15.812 72.817 4.634 109.84 -4.764 15.78 -9.524 25.26 -14.11 28.09 -4.686 2.896 -11.898 3.529 -15.852 1.392 z" style="fill:#eec33d"/><path d="m 165.5 208.1 c -10.08 -5.447 -11.988 -13.443 -6.366 -26.627 13.943 -32.699 14.03 -69.18 0.248 -102.55 -3.765 -9.116 -4.255 -14.67 -1.757 -19.933 4.667 -9.835 18.05 -11.92 25.898 -4.03 2.02 2.03 4.632 6.971 7.305 13.82 14.284 36.61 15.812 72.817 4.634 109.84 -4.764 15.78 -9.524 25.26 -14.11 28.09 -4.686 2.896 -11.898 3.529 -15.852 1.392 z m -55.818 -16.898 c -7.669 -2.801 -10.373 -7.094 -11.679 -18.543 -2.467 -21.634 -14.1 -40.557 -32.651 -53.12 -8.216 -5.564 -11.04 -8.756 -11.926 -13.455 -1.352 -7.206 4.632 -15.634 12.09 -17.03 7.321 -1.373 19.723 5.926 34.728 20.441 7.919 7.66 9.75 9.01 9.75 7.207 0 -3.176 -4.49 -16.12 -8.01 -23.09 -1.653 -3.275 -2.993 -7.522 -2.993 -9.489 0 -10.855 9.933 -18.631 19.961 -15.626 5.863 1.757 8.495 4.458 12.526 12.856 8.454 17.613 11.426 30.711 11.582 51.04 0.09 11.759 -0.267 15.173 -2.481 23.713 -3.617 13.949 -11.465 29.763 -16.353 32.953 -4.849 3.164 -9.785 3.895 -14.55 2.155 z" style="fill:#cc688c"/><g style="fill:#ffdead"><path d="m 165.5 208.11 c -10.08 -5.447 -11.988 -13.443 -6.366 -26.627 13.943 -32.699 14.03 -69.18 0.248 -102.55 -3.765 -9.116 -4.255 -14.67 -1.757 -19.933 4.667 -9.835 18.05 -11.92 25.898 -4.03 2.02 2.03 4.632 6.971 7.305 13.82 14.284 36.61 15.812 72.817 4.634 109.84 -4.764 15.78 -9.524 25.26 -14.11 28.09 -4.686 2.896 -11.898 3.529 -15.852 1.392 z m -57.11 -18.911 c -4.185 -1.822 -7.558 -6.823 -8.151 -12.09 -0.41 -3.642 0.244 -5.906 4.096 -14.159 6.05 -12.967 7.971 -21.264 7.942 -34.32 -0.029 -12.831 -1.906 -21.16 -7.255 -32.19 c -2.83 -5.833 -4.03 -9.609 -4.03 -12.69 c 0 -11.496 11.405 -17.591 21.666 -11.578 3.774 2.211 4.992 3.88 9.307 12.75 5.91 12.147 9.817 25.987 10.68 37.834 1.718 23.578 -10.211 61.11 -21.06 66.26 -4.094 1.943 -8.998 2.01 -13.198 0.182 z m -11.431 -23.821 c -4.516 -19.21 -15.225 -34.733 -31.612 -45.831 -8.216 -5.564 -11.04 -8.756 -11.926 -13.455 -1.352 -7.206 4.632 -15.634 12.09 -17.03 7.485 -1.404 20 6.071 35.23 21.03 l 10.25 10.07 l -0.015 9.98 c -0.008 5.489 -0.689 12.841 -1.514 16.338 -1.558 6.608 -9.196 24.14 -10.517 24.14 -0.415 0 -1.311 -2.363 -1.99 -5.25 z"/><path d="m 165.5 208.11 c -10.08 -5.447 -11.988 -13.443 -6.366 -26.627 13.943 -32.699 14.03 -69.18 0.248 -102.55 -3.765 -9.116 -4.255 -14.67 -1.757 -19.933 4.667 -9.835 18.05 -11.92 25.898 -4.03 2.02 2.03 4.632 6.971 7.305 13.82 14.284 36.61 15.812 72.817 4.634 109.84 -4.764 15.78 -9.524 25.26 -14.11 28.09 -4.686 2.896 -11.898 3.529 -15.852 1.392 z m -57.11 -18.911 c -4.185 -1.822 -7.558 -6.823 -8.151 -12.09 -0.41 -3.642 0.244 -5.906 4.096 -14.159 6.05 -12.967 7.971 -21.264 7.942 -34.32 -0.029 -12.831 -1.906 -21.16 -7.255 -32.19 c -2.83 -5.833 -4.03 -9.609 -4.03 -12.69 c 0 -11.496 11.405 -17.591 21.666 -11.578 3.774 2.211 4.992 3.88 9.307 12.75 5.91 12.147 9.817 25.987 10.68 37.834 1.718 23.578 -10.211 61.11 -21.06 66.26 -4.094 1.943 -8.998 2.01 -13.198 0.182 z m -9.312 -21.21 c -0.073 -2.735 -3.678 -16.599 -5.62 -21.612 -0.609 -1.572 0.089 -1.75 6.839 -1.75 h 7.517 l 1.083 -6.75 c 0.596 -3.713 1.228 -9.225 1.405 -12.25 0.182 -3.109 0.403 -1.239 0.507 4.303 0.234 12.39 -1.617 20.589 -7.267 32.2 -3.761 7.727 -4.392 8.556 -4.464 5.862 z"/></g><g style="fill:#ff4500"><path d="m 165.5 208.11 c -10.08 -5.447 -11.988 -13.443 -6.366 -26.627 13.943 -32.699 14.03 -69.18 0.248 -102.55 -3.765 -9.116 -4.255 -14.67 -1.757 -19.933 4.667 -9.835 18.05 -11.92 25.898 -4.03 2.02 2.03 4.632 6.971 7.305 13.82 14.284 36.61 15.812 72.817 4.634 109.84 -4.764 15.78 -9.524 25.26 -14.11 28.09 -4.686 2.896 -11.898 3.529 -15.852 1.392 z m -57.11 -18.911 c -4.185 -1.822 -7.558 -6.823 -8.151 -12.09 -0.41 -3.642 0.244 -5.906 4.096 -14.159 6.05 -12.967 7.971 -21.264 7.942 -34.32 -0.029 -12.831 -1.906 -21.16 -7.255 -32.19 c -2.83 -5.833 -4.03 -9.609 -4.03 -12.69 c 0 -11.496 11.405 -17.591 21.666 -11.578 3.774 2.211 4.992 3.88 9.307 12.75 5.91 12.147 9.817 25.987 10.68 37.834 1.718 23.578 -10.211 61.11 -21.06 66.26 -4.094 1.943 -8.998 2.01 -13.198 0.182 z"/><path d="m 106.79 191.22 c -4.603 -1.89 -8.312 -7.08 -8.965 -12.54 -0.451 -3.778 0.268 -6.126 4.505 -14.686 6.654 -13.45 8.767 -22.06 8.735 -35.598 -0.032 -13.309 -2.096 -21.948 -7.979 -33.389 -3.112 -6.05 -4.432 -9.967 -4.432 -13.163 0 -11.924 12.543 -18.246 23.829 -12.01 4.151 2.293 5.49 4.02 10.236 13.225 6.5 12.599 10.797 26.955 11.746 39.24 1.889 24.456 -11.23 63.39 -23.16 68.73 -4.503 2.02 -9.896 2.085 -14.515 0.189 z" style="stroke:#ff4500;stroke-width:1.068"/></g><path d="m 151.03 191.27 c -0.101 -0.851 -0.267 -2.599 -0.368 -3.886 -0.566 -7.175 -2.175 -16.83 -3.743 -22.455 -1.99 -7.141 -5.127 -14.825 -6.714 -16.449 -0.796 -0.814 -0.839 -0.985 -0.576 -2.274 0.157 -0.766 0.372 -4.13 0.479 -7.475 0.154 -4.843 0.088 -6.812 -0.328 -9.668 -1.362 -9.358 -4.732 -19.462 -9.466 -28.381 -1.801 -3.394 -4.745 -8.332 -5.745 -9.638 -0.316 -0.412 -0.507 -0.816 -0.426 -0.898 0.356 -0.356 11.997 7.947 17.793 12.69 5.559 4.548 11 9.729 15.13 14.396 4.125 4.661 4.994 5.424 5.94 5.214 1.057 -0.235 2.049 13.941 1.545 22.08 -0.865 13.972 -3.59 24.735 -9.745 38.495 -1.189 2.659 -2.485 5.951 -2.88 7.316 l -0.718 2.482 l -0.184 -1.547 z" transform="matrix(0.9903 0 0 1.12672 6.311 -26.426)" style="fill:#ffdead;fill-rule:evenodd"/></g></svg>