<svg xmlns="http://www.w3.org/2000/svg" viewBox="0 0 256 256"><g transform="translate(0 -796.36)"><path d="m 23.93 999.55 c -75.07 -92.26 40.957 -224.43 148.29 -200.29 115.57 26.821 106.03 192.88 5.404 233.87 -50.08 28.549 -126.76 23.24 -153.69 -33.578 z" style="fill:#fff;color:#000"/><g transform="matrix(3.18307 0 0 3.07319 71.1 830.22)" style="fill-rule:evenodd"><path d="m 18.809 7.594 c -12.703 0 -23 10.297 -23 23 h 23 v -23 z" style="fill:#ffb6c1"/><path d="m 18.809 7.594 v 23 h 23 c 0 -12.703 -10.297 -23 -23 -23 z" style="fill:#ff4500"/><path d="m 18.809 30.594 v 23 c 12.703 0 23 -10.297 23 -23 h -23 z" style="fill:#ffdead"/><path d="m -4.191 30.594 c 0 12.703 10.297 23 23 23 v -23 h -23 z" style="fill:#dc143c"/></g></g></svg>