<svg xmlns="http://www.w3.org/2000/svg" viewBox="0 0 256 256"><g transform="translate(0 -796.36)"><path d="m 231.03 999.59 c 127.95 -192.46 -280.09 -311 -226.07 -62.2 23.02 102.82 167.39 165.22 226.07 62.2 z" style="fill:#fff;color:#000"/><g transform="matrix(11.97976 0 0 11.093 505.03 -3554.82)" style="fill:#ff4500"><path d="m -37.555 398.97 h 11.853 v 8.184 h -11.853 z"/><path d="m -28.806 410.26 l 3.104 -3.104 h -3.104 z"/><path d="m -32.28 403.48 h 0.993 v -0.993 h -0.993 v 0.993 m -1.716 0 h 0.903 v -0.993 h -0.903 v -0.813 h 0.903 v -1.355 h 0.813 v 1.355 h 0.993 v -1.355 h 0.813 v 1.355 h 0.903 v 0.813 h -0.903 v 0.993 h 0.903 v 0.813 h -0.903 v 1.355 h -0.813 v -1.355 h -0.993 v 1.355 h -0.813 v -1.355 h -0.903 v -0.813" style="fill:#ffdead;opacity:0.75"/></g></g></svg>