<svg xmlns="http://www.w3.org/2000/svg" viewBox="0 0 256 256"><defs><clipPath><path d="M 0,2743.88 0,0 l 2743.81,0 0,2743.88 -2743.81,0 z"/></clipPath><clipPath><path d="m 0 500 h 1024 v -500 h -1024 v 500"/></clipPath></defs><g style="fill:#d3d3d3;color:#000"><path d="m -429.05 1690.33 c 145.2 -221.6 -385.23 -232.05 -202.66 -3.617 48.21 58.77 163.57 87.45 202.66 3.617 z" transform="matrix(-0.95926 0 0 -1.14823 -387.11 2000.98)" style="fill:#fff"/><path d="m 474.41 431.27 c 0 29.547 -21.839 53.734 -49.57 53.738 -16 0 -29.14 -8.04 -39.34 -21.495 l -17.533 5.371 l 10.216 -18.788 c -1.437 -6.726 -2.919 -12.13 -2.919 -18.827 0 -1.683 0.094 -3.363 0.239 -5.02 3.882 1.053 7.969 1.658 12.2 1.658 25.455 0 46.12 -20.15 46.12 -45.685 0 -1.752 -0.137 -3.465 -0.345 -5.181 23.48 4.645 40.927 27.8 40.927 54.23 z m -24.787 17.455 c 0 -4.03 -2.882 -6.709 -7.266 -6.713 -4.369 0 -7.301 2.687 -7.301 6.713 0 4.03 2.932 8.101 7.301 8.101 4.384 0 7.266 -4.075 7.266 -8.101 z m 0 -37.609 c 0 -4.04 -2.882 -6.722 -7.266 -6.722 -4.369 0 -7.301 2.679 -7.301 6.722 0 4.03 2.932 8.07 7.301 8.07 4.384 0 7.266 -4.04 7.266 -8.07 z m -18.923 -32.29 c 0 25.572 -18.994 45.704 -42.29 45.704 -23.339 0 -42.29 -20.13 -42.29 -45.704 0 -5.343 1.459 -10.751 2.927 -16.13 l -8.763 -14.745 l 14.569 4.04 c 8.765 -10.788 20.407 -18.818 33.553 -18.814 23.292 0 42.29 21.499 42.29 45.648 z m -23.343 14.81 c 0 -4.062 -2.925 -6.726 -5.826 -6.726 -2.944 0 -5.828 2.664 -5.828 6.726 0 2.679 2.884 5.373 5.828 5.373 2.897 0 5.826 -2.691 5.826 -5.373 z m 0 -29.56 c 0 -4.02 -2.925 -6.716 -5.826 -6.716 -2.944 0 -5.828 2.695 -5.828 6.716 0 2.664 2.884 5.343 5.828 5.343 2.897 0 5.826 -2.683 5.826 -5.343 z" transform="matrix(0 -0.9996 -1 0 536.55 542.77)" style="fill:#ff4500"/></g></svg>