<svg xmlns="http://www.w3.org/2000/svg" viewBox="0 0 256 256"><defs><clipPath id="0"><path transform="matrix(15.33333 0 0 11.5 415 -125.5)" d="m -24 13 c 0 1.105 -0.672 2 -1.5 2 -0.828 0 -1.5 -0.895 -1.5 -2 0 -1.105 0.672 -2 1.5 -2 0.828 0 1.5 0.895 1.5 2 z" style="fill:#1890d0"/></clipPath><clipPath><path transform="matrix(15.33333 0 0 11.5 415 -125.5)" d="m -24 13 c 0 1.105 -0.672 2 -1.5 2 -0.828 0 -1.5 -0.895 -1.5 -2 0 -1.105 0.672 -2 1.5 -2 0.828 0 1.5 0.895 1.5 2 z" style="fill:#1890d0"/></clipPath><clipPath id="1"><path transform="matrix(15.33333 0 0 11.5 415 -125.5)" d="m -24 13 c 0 1.105 -0.672 2 -1.5 2 -0.828 0 -1.5 -0.895 -1.5 -2 0 -1.105 0.672 -2 1.5 -2 0.828 0 1.5 0.895 1.5 2 z" style="fill:#1890d0"/></clipPath></defs><g transform="translate(0 -796.36)"><path d="m 26.373 992.2 c -92.05 -130.93 77.948 -263.6 186.39 -156.91 102.17 100.51 7.449 256.68 -119.69 207.86 -26.526 -10.185 -49.802 -26.914 -66.7 -50.948 z" style="fill:#fff;color:#000"/><g transform="matrix(6.48551 0 0 7.12193 -73.48 786.44)" style="clip-path:url(#0);fill:#ffdead"><path d="m 25.971 1.782 c -4 1.172 -8 2.348 -12 3.523 0.293 8.723 2.531 19.363 12 22.477 9.57 -3.02 11.594 -13.848 12 -22.477 -4 -1.176 -8 -2.352 -12 -3.523" transform="translate(5.257 5.804)" style="fill-rule:evenodd"/></g><g transform="matrix(5.56236 0 0 6.80142 -1.888 769.3)" style="clip-path:url(#1);fill:#ff4500"><g style="fill-rule:evenodd"><path d="m -2.613 38.994 c -4 1.172 -8 2.348 -12 3.523 0.293 8.723 2.531 19.363 12 22.477 9.57 -3.02 11.594 -13.848 12 -22.477 -4 -1.176 -8 -2.352 -12 -3.523"/><path d="m 26.754 27.82 h -0.004 l 0.445 -0.367 c -0.184 -0.148 -0.52 -0.594 -0.746 -1.059 -0.207 -0.051 -0.633 -0.188 -0.813 -0.344 l -0.367 0.25 l -0.004 0.004 l -0.371 0.242 c 0.145 0.184 0.215 0.555 0.234 0.734 0.5 0.281 0.953 0.648 1.086 0.828 l 0.527 -0.285 v 0.004 l 0.008 -0.004"/><path d="m 17.727,17.852 c 2.809,2.789 5.539,5.594 8.285,8.402 0.047,0.34 0.539,0.723 0.867,1.043 l -0.777,0.523 c -0.367,-0.344 -0.629,-0.789 -1.055,-0.887 -2.75,-2.785 -5.508,-5.57 -8.223,-8.41 C 16.094,17.722 15.609,16.839 15,16 c 0.91,0.617 1.902,1.09 2.727,1.852 m 0,0"/><path d="m 29.82 30.04 c -0.043 -0.031 -0.082 -0.012 -0.141 -0.082 -0.773 -0.691 -1.402 -1.309 -2.055 -2.02 -0.039 -0.047 -0.09 -0.109 -0.098 -0.176 l -0.5 0.32 l -0.484 0.336 c 0.078 0.023 0.145 0.078 0.191 0.117 0.691 0.68 1.285 1.32 1.941 2.09 0.063 0.066 0.035 0.094 0.063 0.133 l 0.531 -0.367"/><path d="m 27.05 28.1 l 0.488 -0.332 c 0 0 -0.152 -0.055 -0.125 -0.129 0.023 -0.074 0.453 -0.34 0.602 -0.426 -0.031 -0.066 -0.137 -0.152 -0.211 -0.203 -0.285 0.215 -0.895 0.012 -1.266 0.352 0.008 -0.117 -0.109 -0.281 -0.293 -0.344 0.051 0.164 0.145 0.383 0.129 0.418 -0.047 0.008 -0.262 -0.125 -0.441 -0.199 0.031 0.16 0.199 0.289 0.34 0.309 -0.477 0.23 -0.367 0.766 -0.68 0.953 0.043 0.07 0.129 0.176 0.195 0.211 0.133 -0.102 0.535 -0.391 0.629 -0.395 0.09 -0.008 0.117 0.109 0.117 0.109 0 0 0.516 -0.324 0.516 -0.324"/><path d="m 29.797 30.03 c 0.031 0.043 0 0.07 0.066 0.133 0.277 0.27 0.543 0.211 0.98 0.641 0.617 0.637 -0.746 1.617 -1.398 1 -0.473 -0.457 -0.332 -0.715 -0.582 -0.973 -0.063 -0.07 -0.102 -0.047 -0.145 -0.078 l 0.547 -0.355"/><path d="m 20.223 26.797 l 0.414 0.391 c 0.141 -0.18 0.59 -0.527 1.07 -0.77 0.043 -0.195 0.16 -0.602 0.316 -0.785 l -0.285 -0.328 l -0.004 -0.004 l -0.281 -0.332 c -0.184 0.152 -0.57 0.242 -0.762 0.27 -0.266 0.488 -0.629 0.938 -0.813 1.074 l 0.332 0.477 l 0.008 0.008"/><path d="m 30.21 17.68 c -2.777 2.813 -5.574 5.559 -8.379 8.32 -0.355 0.07 -0.73 0.555 -1.051 0.883 l -0.594 -0.695 c 0.336 -0.363 0.793 -0.641 0.871 -1.047 2.77 -2.762 5.551 -5.531 8.387 -8.266 0.805 -0.738 1.707 -1.25 2.559 -1.875 -0.602 0.895 -1.039 1.859 -1.793 2.684"/><path d="m 18.06 29.82 c 0.027 -0.039 0.008 -0.074 0.078 -0.141 0.688 -0.766 1.301 -1.398 2 -2.059 0.051 -0.035 0.109 -0.086 0.18 -0.102 l -0.371 -0.445 l -0.379 -0.434 c -0.02 0.078 -0.074 0.141 -0.113 0.188 -0.676 0.695 -1.313 1.293 -2.09 1.957 -0.063 0.066 -0.098 0.039 -0.137 0.066 l 0.422 0.477 l 0.406 0.488"/><path d="m 19.945 27.09 l 0.379 0.441 c 0 0 0.051 -0.148 0.129 -0.129 0.078 0.016 0.387 0.402 0.484 0.535 0.063 -0.031 0.152 -0.137 0.199 -0.211 -0.242 -0.254 -0.066 -0.84 -0.445 -1.164 0.129 0 0.293 -0.121 0.348 -0.293 -0.168 0.055 -0.395 0.16 -0.43 0.145 -0.008 -0.043 0.117 -0.25 0.184 -0.426 -0.168 0.039 -0.297 0.203 -0.309 0.34 -0.27 -0.43 -0.824 -0.297 -1.043 -0.578 -0.074 0.047 -0.18 0.137 -0.215 0.195 0.113 0.121 0.445 0.48 0.457 0.566 0.012 0.086 -0.109 0.117 -0.109 0.117 0 0 0.371 0.461 0.371 0.461"/><path d="m 18.07 29.797 c -0.039 0.031 -0.07 0.004 -0.133 0.074 -0.27 0.273 -0.195 0.523 -0.617 0.957 -0.637 0.625 -1.75 -0.59 -1.141 -1.242 0.453 -0.477 0.738 -0.359 0.988 -0.613 0.07 -0.063 0.047 -0.098 0.078 -0.137 l 0.406 0.488"/></g></g></g></svg>