<svg xmlns="http://www.w3.org/2000/svg" viewBox="0 0 256 256"><defs><clipPath><path d="m 27.707 56.824 h 82.29 v 139.69 h -82.29"/></clipPath><clipPath><path d="m 74 56.824 h 129 v 139.69 h -129"/></clipPath><clipPath><path d="m 148 97 h 77.63 v 24 h -77.62"/></clipPath><clipPath><rect y="6" x="6" rx="6" height="84" width="84" style="fill:#ff4500"/></clipPath><clipPath><path d="m 171 132 h 54.625 v 24 h -54.625"/></clipPath></defs><g transform="translate(0 -796.36)"><path d="m 229.63 992.2 c 92.05 -130.93 -77.948 -263.6 -186.39 -156.91 c -102.17 100.51 -7.449 256.68 119.69 207.86 26.526 -10.185 49.802 -26.914 66.7 -50.948 z" style="fill:#fff;color:#000"/><path d="M 86.26,22.752 C 78.07,29.688 76.929,29.268 72.345,49.413 70.57,55.155 69.229,63.1 66.295,73.247 H 54.493 C 53.397,68.645 51.425,60.788 48.576,49.676 46.779,55.396 44.357,63.253 41.311,73.247 H 29.673 C 28.27,68.227 26.886,60.031 23.489,48.657 19.459,27.688 18.547,27.853 8.723,22.752 h 27.328 c 0.46,2.148 1.271,5.622 2.433,10.421 l 3.485,13.15 c 0.636,-1.819 1.578,-4.986 2.827,-9.501 -1.03,-3.835 -2.345,-8.525 -3.945,-14.07 h 20.382 c 0.351,2.104 0.931,5.512 1.742,10.224 0.592,3.134 1.403,7.583 2.433,13.347 L 68.794,32.91 c 0.614,-2.542 1.326,-5.928 2.137,-10.158 h 15.332" transform="matrix(1.97716 0 0 2.02773 35.28 835.16)" style="fill:#ffa07a"/><path transform="matrix(1.97716 0 0 2.02773 30.941 830.82)" d="M 86.26,22.752 C 78.07,29.688 76.929,29.268 72.345,49.413 70.57,55.155 69.229,63.1 66.295,73.247 H 54.493 C 53.397,68.645 51.425,60.788 48.576,49.676 46.779,55.396 44.357,63.253 41.311,73.247 H 29.673 C 28.27,68.227 26.886,60.031 23.489,48.657 19.459,27.688 18.547,27.853 8.723,22.752 h 27.328 c 0.46,2.148 1.271,5.622 2.433,10.421 l 3.485,13.15 c 0.636,-1.819 1.578,-4.986 2.827,-9.501 -1.03,-3.835 -2.345,-8.525 -3.945,-14.07 h 20.382 c 0.351,2.104 0.931,5.512 1.742,10.224 0.592,3.134 1.403,7.583 2.433,13.347 L 68.794,32.91 c 0.614,-2.542 1.326,-5.928 2.137,-10.158 h 15.332" style="fill:#ff4500"/></g></svg>