<svg xmlns="http://www.w3.org/2000/svg" viewBox="0 0 256 256" xmlns:xlink="http://www.w3.org/1999/xlink"><defs><path id="0" d="m 368.64 356.36 c 0 32.575 -25.03 58.983 -55.911 58.983 -30.879 0 -55.911 -26.408 -55.911 -58.983 0 -32.575 25.03 -58.983 55.911 -58.983 30.879 0 55.911 26.408 55.911 58.983 z"/></defs><g transform="translate(0 -796.36)"><path d="m229.63 992.2c92.05-130.93-77.948-263.6-186.39-156.91-102.17 100.51-7.449 256.68 119.69 207.86 26.526-10.185 49.802-26.914 66.7-50.948" style="fill:#fff;color:#000"/><g transform="matrix(0.28485 0 0 0.27965 48.542 845.89)"><g style="stroke:#ffdead;fill-rule:evenodd"><rect y="42.957" x="46.756" height="498.55" width="487.22" rx="39.679" style="fill:#ff4500;stroke-width:28.5"/><rect ry="27.905" y="95.41" x="389.51" height="407.1" width="44.24" rx="22.12" style="fill:#ffdead;stroke-width:5"/></g><g style="fill:#ffdead"><use transform="matrix(1.02406 0 0 0.97073 93.92 -138.65)" xlink:href="#0"/><rect ry="27.905" y="95.41" x="270.33" height="407.1" width="44.24" rx="22.12" style="stroke:#ffdead;fill-rule:evenodd;stroke-width:5"/><use transform="matrix(1.02406 0 0 0.97073 -28.693 -13.519)" xlink:href="#0"/><rect ry="27.905" y="95.41" x="150.93" height="407.1" width="44.24" rx="22.12" style="stroke:#ffdead;fill-rule:evenodd;stroke-width:5"/><use transform="matrix(1.02406 0 0 0.97073 -148.09 -174.65)" xlink:href="#0"/></g><g style="fill:#fff"><use transform="matrix(0.72211 0 0 0.6845 -53.49 -73.03)" xlink:href="#0"/><use transform="matrix(0.72211 0 0 0.6845 65.6 87.57)" xlink:href="#0"/><use transform="matrix(0.72211 0 0 0.6845 187.77 -35.817)" xlink:href="#0"/></g></g></g></svg>