<svg xmlns="http://www.w3.org/2000/svg" viewBox="0 0 256 256"><defs><clipPath><path transform="matrix(15.33333 0 0 11.5 415 -125.5)" d="m -24 13 c 0 1.105 -0.672 2 -1.5 2 -0.828 0 -1.5 -0.895 -1.5 -2 0 -1.105 0.672 -2 1.5 -2 0.828 0 1.5 0.895 1.5 2 z"/></clipPath><linearGradient gradientTransform="matrix(1.125 0 0 1 -51.07 0)" gradientUnits="userSpaceOnUse" y2="515.8" x2="0" y1="543.8" id="0"><stop style="stop-color:#1d1e1e"/><stop offset="1" style="stop-color:#5f656c"/></linearGradient></defs><path d="m 27.14 202.14 c -126.21 -188.96 276.27 -305.35 222.99 -61.07 -22.706 100.95 -165.11 162.22 -222.99 61.07 z" style="fill:#fff;color:#000"/><g transform="matrix(2.9322 0 0 3.08814 -1067.3 -1491.19)"><path d="m 392.57 525.8 h 31 v 18 h -31 z" style="fill:url(#0)"/><path d="m 392.57 542.8 h 32 v 1 h -32 z" style="fill:#202224"/><path d="m 395.57 503.8 h 26 v 22 h -26 z" style="fill:#ffdead"/><g style="fill:#202224"><path d="m 399.57 510.8 h 7 v 7 h -7 z"/><path d="m 410.57 510.8 h 7 v 7 h -7 z"/></g><g style="fill:#ff4500"><path d="m 401.57 510.8 h 3 v 7 h -3 z"/><path d="m 412.57 510.8 h 3 v 7 h -3 z"/><path d="m 392.2 525.8 h 32.37 v 18 h -32.37 z"/></g></g></svg>