<svg xmlns="http://www.w3.org/2000/svg" xmlns:xlink="http://www.w3.org/1999/xlink" viewBox="0 0 256 256"><defs><linearGradient y2="24.894" x2="3.259" y1="12.875" x1="31" gradientTransform="matrix(2.62994 0 0 2.62778 1.343 8.837)" gradientUnits="userSpaceOnUse" id="0" xlink:href="#1"/><linearGradient id="1"><stop style="stop-color:#fff"/><stop offset="1" style="stop-color:#fff;stop-opacity:0"/></linearGradient><radialGradient r="14.438" cy="16.563" cx="32.5" gradientTransform="matrix(1.75135 0 0 1.74992 29.896 7.281)" gradientUnits="userSpaceOnUse" id="2" xlink:href="#1"/></defs><g transform="translate(3.523 -797.79)" style="color:#000"><path d="m 60.23 1005.73 c -88.14 -67.851 24.775 -207.84 119.74 -158.24 89.47 46.731 33.06 188.91 -64.06 179.39 -20.263 -1.985 -39.496 -8.696 -55.674 -21.15 z" transform="matrix(1.30337 0 0 1.3455 -40.525 -328.49)" style="fill:#fff"/><g transform="matrix(1.42246 0 0 1.68757 22.11 822.44)"><g style="fill-rule:evenodd"><path d="m 84.16 28.06 c -13.983 0.333 -21.826 3.231 -26.75 7.438 -4.924 4.207 -6.769 9.568 -9.03 14.469 -2.262 4.901 -4.851 9.375 -11.281 12.5 -6.43 3.125 -16.876 4.847 -34.688 3.719 a 1.113 1.113 0 0 0 -1.156 1.031 l -0.344 4.25 a 1.113 1.113 0 0 0 0.469 1.031 c 13.532 8.98 24.938 11.97 34.75 11.469 9.812 -0.501 17.958 -4.471 25.13 -9.125 7.167 -4.654 13.383 -9.999 19.25 -13.375 5.867 -3.376 11.183 -4.831 17.13 -2.063 a 1.113 1.113 0 0 0 1.469 -1.469 l -13.906 -29.22 a 1.113 1.113 0 0 0 -1.031 -0.656 z" style="fill:url(#0);opacity:0.15"/><path d="m 2.329 67.31 c 71.64 4.54 26.493 -36.786 81.86 -38.1 l 13.91 29.21 c -25.26 -11.771 -42.546 48.701 -96.1 13.165 l 0.329 -4.27 z" style="fill:#ffdead;opacity:0.25;stroke:#ffdead"/></g><path d="m 112.1 36.26 c 0 13.953 -11.321 25.26 -25.285 25.26 -13.965 0 -25.285 -11.311 -25.285 -25.26 0 -13.953 11.321 -25.26 25.285 -25.26 13.965 0 25.285 11.311 25.285 25.26 z" style="fill:url(#2)"/><g style="fill:#ff4500"><g style="stroke:#ff4500;stroke-linecap:round"><path d="m 86.82 33.801 l 34.19 76.21" style="stroke-width:4"/><path d="m 86.82 33.801 l 34.19 76.21" style="fill-rule:evenodd;stroke-width:2"/></g><path d="m 81.2 62.03 l -12.02 -3.739 l -9.555 8.318 l 0.583 -12.687 l -10.424 -5.946 l 12.381 -4.102 l 3.112 -11.993 l 7.07 10.152 l 12.348 -1.467 l -8.01 10.376 l 4.519 11.09 z"/><path d="m 50.11 81.05 l -4.94 -6.638 l -7.92 0.925 l 4.791 -6.745 l -3.328 -7.241 l 7.901 2.469 l 5.864 -5.4 l 0.092 8.271 l 6.952 3.903 l -7.844 2.643 l -1.567 7.812 z"/><path d="m 28.961 80.905 l -5.556 -2.119 l -4.443 3.613 l 0.299 -5.935 l -4.812 -3.105 l 5.741 -1.549 l 1.469 -5.533 l 3.249 4.977 l 5.72 -0.314 l -3.733 4.625 l 2.066 5.339 z"/></g><path d="m 86.57 31.01 c -0.153 0.016 -0.252 0.044 -0.411 0.082 -0.791 0.199 -1.465 0.826 -1.808 1.56 -0.343 0.734 -0.355 1.486 0 2.217 l 9.862 21.926 c -0.017 0.025 -0.017 0.058 0 0.082 0.025 0.017 0.058 0.017 0.082 0 0.025 0.017 0.058 0.017 0.082 0 0.017 -0.025 0.017 -0.058 0 -0.082 0.617 -1.066 1.517 -1.753 2.712 -2.053 0.654 -0.155 1.343 -0.134 1.972 0 0.025 0.017 0.058 0.017 0.082 0 0.017 -0.025 0.017 -0.058 0 -0.082 l -9.862 -21.926 c -0.378 -0.922 -1.276 -1.605 -2.219 -1.724 -0.159 -0.02 -0.34 -0.016 -0.493 0 z" style="fill:#ffdead;fill-rule:evenodd"/></g></g></svg>