<svg xmlns="http://www.w3.org/2000/svg" viewBox="0 0 256 256"><g transform="translate(0 -796.36)" style="color:#000"><path d="m 2.967 952.88 c 15.875 104.05 156.87 131.89 219.1 57.62 54.798 -55.17 41.16 -160.78 -26.05 -196.99 -77.21 -48.44 -189.69 11.446 -195.83 107.88 c -0.632 10.565 0.26 21.245 2.771 31.493 z" style="fill:#fff"/><g transform="matrix(5.27155 -2.9768 2.47609 3.94849 -42.99 879.55)" style="fill:#ff4500"><path d="m 18,8 2,2 2,20 -7,2 z" style="opacity:0.2;fill-rule:evenodd"/><path d="m 18 8 a 2 2 0 0 0 -2 2 2 2 0 0 0 0.855 1.637 C 15.389 16.06 12.71 23.29 10 26 c 0 0 4 6 4 10 h 10 C 24 32 28 26 28 26 25.29 23.29 22.613 16.07 21.15 11.639 A 2 2 0 0 0 22 10 2 2 0 0 0 20 8 v 4 v 14.27 c 0.618 0.357 0.999 1.017 1 1.73 0 1.105 -0.895 2 -2 2 -1.105 0 -2 -0.895 -2 -2 0.001 -0.713 0.382 -1.372 1 -1.729 V 12 V 8 z"/><path d="m 14 36 h 10 c 0.831 0 1.5 0.669 1.5 1.5 0 0.831 -0.669 1.5 -1.5 1.5 h -10 c -0.831 0 -1.5 -0.669 -1.5 -1.5 0 -0.831 0.669 -1.5 1.5 -1.5 z" style="fill:#ffdead"/><path d="M 14,39 H24 V44 H14 z"/><path d="m 14,39 5,5 5,0 0,-5 z" style="fill:#ffdead;opacity:0.2;fill-rule:evenodd"/></g></g></svg>