<?xml version="1.0" encoding="UTF-8" standalone="no"?>
<svg
   xmlns:dc="http://purl.org/dc/elements/1.1/"
   xmlns:cc="http://creativecommons.org/ns#"
   xmlns:rdf="http://www.w3.org/1999/02/22-rdf-syntax-ns#"
   xmlns:svg="http://www.w3.org/2000/svg"
   xmlns="http://www.w3.org/2000/svg"
   xmlns:xlink="http://www.w3.org/1999/xlink"
   xmlns:sodipodi="http://sodipodi.sourceforge.net/DTD/sodipodi-0.dtd"
   xmlns:inkscape="http://www.inkscape.org/namespaces/inkscape"
   viewBox="0 0 256 256"
   id="svg433"
   version="1.1"
   inkscape:version="0.48.4 r9939"
   width="100%"
   height="100%"
   sodipodi:docname="work.svg">
  <sodipodi:namedview
     pagecolor="#ffffff"
     bordercolor="#666666"
     borderopacity="1"
     objecttolerance="10"
     gridtolerance="10"
     guidetolerance="10"
     inkscape:pageopacity="0"
     inkscape:pageshadow="2"
     inkscape:window-width="644"
     inkscape:window-height="496"
     id="namedview473"
     showgrid="false"
     inkscape:zoom="0.921875"
     inkscape:cx="128"
     inkscape:cy="128"
     inkscape:window-x="0"
     inkscape:window-y="24"
     inkscape:window-maximized="0"
     inkscape:current-layer="svg433" />
  <metadata
     id="metadata475">
    <rdf:RDF>
      <cc:Work
         rdf:about="">
        <dc:format>image/svg+xml</dc:format>
        <dc:type
           rdf:resource="http://purl.org/dc/dcmitype/StillImage" />
      </cc:Work>
    </rdf:RDF>
  </metadata>
  <defs
     id="defs435">
    <path
       id="1"
       d="m 73.25 212.76 a 7.631 8.648 0 1 1 -15.261 0 7.631 8.648 0 1 1 15.261 0 z"
       style="fill:#be00fc;stroke:#be00fc;fill-rule:evenodd" />
  </defs>
  <path
     d="M 156.06325,251.6628 C 390.89345,202.54641 138.79553,-135.34938 19.437655,67.630004 -31.72587,146.47995 35.291752,276.92493 156.06325,251.6628 z"
     style="color:#000000;fill:#ffffff"
     id="path438"
     inkscape:connector-curvature="0" />
  <g
     transform="matrix(0.91880172,0,0,0.93159368,65.598923,69.76452)"
     style="fill:#ff0000"
     id="g440">
    <path
       d="m 66.01,150.99 c 0,-1.119 0.395,-2.035 0.879,-2.035 1.741,0 6.769,-5.892 19.533,-22.892 7.143,-9.513 14.903,-19.234 17.245,-21.602 4.951,-5.01 6.225,-4.8 12.201,1.987 2.96,3.362 4.21,4.049 7.368,4.049 6.256,0 11.509,-3.803 39.21,-28.382 13.584,-12.05 17.227,-12.982 25.451,-6.482 2.784,2.201 8.415,7.807 12.514,12.457 9.67,10.974 7.849,11.421 -7.828,1.923 -6.527,-3.955 -12.677,-7.19 -13.666,-7.19 -2.532,0 -9.626,4.967 -27.08,18.956 -17.95,14.389 -20.529,16.257 -25.07,18.15 -3.292,1.375 -3.795,1.276 -10.429,-2.062 -10.81,-5.439 -11.167,-5.315 -21.409,7.43 -17.887,22.259 -28.919,32.06 -28.919,25.69 z"
       transform="translate(-55.958,-69.18)"
       style="opacity:0.97000002;fill:#dd0000"
       id="path442"
       inkscape:connector-curvature="0" />
    <path
       d="M 102.29,137.39 C 101.561,136.465 95.404,123.154 88.608,107.811 81.813,92.468 75.69,79.721 75.002,79.485 74.314,79.249 73.078,80.351 72.255,81.934 71.432,83.517 67,90.719 62.406,97.944 l -8.353,13.13 -11.47,-8.669 -11.47,-8.669 -8.781,7.34 c -7.829,6.544 -13.299,9.186 -13.299,6.423 0,-0.533 4.719,-5.854 10.487,-11.824 l 10.487,-10.855 7.765,6.443 c 9.165,7.604 14.714,9.429 17.436,5.733 1.01,-1.366 5.532,-10.456 10.06,-20.2 4.873,-10.493 8.779,-17.366 9.58,-16.856 1.832,1.166 4.183,7.04 12.512,31.25 8.274,24.05 14.251,38.12 16.592,39.04 2.562,1.012 11.806,-5.654 23.28,-16.788 l 10.408,-10.1 7.471,8.601 c 9.409,10.832 12.565,12.94 20.69,13.823 l 6.53,0.709 -4.29,2.379 c -6.067,3.364 -10.01,2.02 -20.376,-6.94 -4.893,-4.231 -9.936,-8.08 -11.205,-8.553 -1.681,-0.627 -5.187,1.764 -12.909,8.805 -16.03,14.62 -19.682,17.233 -21.259,15.232 z"
       style="opacity:0.97000002;fill:#fa0000"
       id="path444"
       inkscape:connector-curvature="0" />
  </g>
  <g
     style="fill:#be0000"
     id="g446"
     transform="matrix(0.91880172,0,0,0.93159368,14.184617,10.999591)">
    <rect
       width="5.0869999"
       height="160.75"
       x="53.923"
       y="50.48"
       rx="2.45"
       style="opacity:0.97000002"
       id="rect448" />
    <rect
       y="-215.17999"
       x="207.67"
       height="162.78999"
       width="5.0869999"
       transform="matrix(0,1,-1,0,0,0)"
       rx="2.4820001"
       style="opacity:0.97000002"
       id="rect450" />
  </g>
  <path
     d="m 54.889987,68.462099 5.459796,-10.217802 5.459797,-10.2178 5.19727,10.389096 5.197269,10.389097 -10.655986,-0.170274 z"
     id="0"
     style="opacity:0.97000002;fill:#be0000"
     inkscape:connector-curvature="0" />
  <use
     transform="matrix(0,1.0139225,-0.98626873,0,267.459,139.41216)"
     xlink:href="#0"
     id="use453"
     x="0"
     y="0"
     width="256"
     height="256" />
  <use
     transform="matrix(0.91880172,0,0,0.93159368,6.7064894,8.1563667)"
     xlink:href="#1"
     id="use455"
     x="0"
     y="0"
     width="256"
     height="256"
     style="fill:#ff4500;stroke:#ff4500" />
  <use
     transform="matrix(0.91880172,0,0,0.93159368,35.685495,9.1037976)"
     xlink:href="#1"
     id="use457"
     x="0"
     y="0"
     width="256"
     height="256"
     style="fill:#ff4500;stroke:#ff4500" />
  <use
     transform="matrix(0.91880172,0,0,0.93159368,65.598923,9.1037976)"
     xlink:href="#1"
     id="use459"
     x="0"
     y="0"
     width="256"
     height="256"
     style="fill:#ff4500;stroke:#ff4500" />
  <use
     transform="matrix(0.91880172,0,0,0.93159368,93.642588,9.1037976)"
     xlink:href="#1"
     id="use461"
     x="0"
     y="0"
     width="256"
     height="256"
     style="fill:#ff4500;stroke:#ff4500" />
  <use
     transform="matrix(0.91880172,0,0,0.93159368,119.81925,9.1037976)"
     xlink:href="#1"
     id="use463"
     x="0"
     y="0"
     width="256"
     height="256"
     style="fill:#ff4500;stroke:#ff4500" />
  <use
     transform="matrix(0.91880172,0,0,0.93159368,5.7711492,-24.070254)"
     xlink:href="#1"
     id="use465"
     x="0"
     y="0"
     width="256"
     height="256"
     style="fill:#ff4500;stroke:#ff4500" />
  <use
     transform="matrix(0.91880172,0,0,0.93159368,5.7711492,-54.398286)"
     xlink:href="#1"
     id="use467"
     x="0"
     y="0"
     width="256"
     height="256"
     style="fill:#ff4500;stroke:#ff4500" />
  <use
     transform="matrix(0.91880172,0,0,0.93159368,4.8367278,-87.572337)"
     xlink:href="#1"
     id="use469"
     x="0"
     y="0"
     width="256"
     height="256"
     style="fill:#ff4500" />
  <use
     transform="matrix(0.91880172,0,0,0.93159368,4.8367278,-115.06366)"
     xlink:href="#1"
     id="use471"
     x="0"
     y="0"
     width="256"
     height="256"
     style="fill:#ff4500;stroke:#ff4500" />
</svg>
