<svg xmlns="http://www.w3.org/2000/svg" viewBox="0 0 256 256"><defs><clipPath><path transform="matrix(15.33333 0 0 11.5 415 -125.5)" d="m -24 13 c 0 1.105 -0.672 2 -1.5 2 -0.828 0 -1.5 -0.895 -1.5 -2 0 -1.105 0.672 -2 1.5 -2 0.828 0 1.5 0.895 1.5 2 z"/></clipPath></defs><path d="m 53.11 1028.66 c 188.96 126.21 305.35 -276.27 61.07 -222.99 -100.95 22.706 -162.22 165.11 -61.07 222.99 z" transform="translate(1.798 -798.75)" style="fill:#fff;color:#000"/><path d="m 163.08 185.72 c 0.405 -0.619 2.093 -1.126 3.753 -1.126 1.66 0 4.38 -1.013 6.05 -2.251 3.621 -2.692 6.279 -2.906 6.279 -0.505 0 0.96 -1.859 2.479 -4.131 3.377 -4.737 1.87 -13.07 2.223 -11.948 0.505 z m -17.271 -8.447 c -1.638 -0.888 -5.389 -1.557 -8.337 -1.487 -4.951 0.117 -14.783 -1.13 -28.939 -3.671 -11.562 -2.075 -25.698 -1.295 -35.664 1.968 -5.073 1.661 -9.577 2.686 -10.01 2.277 -0.989 -0.935 6.25 -18.09 16 -37.905 3.862 -7.85 13.335 -21.973 23.858 -35.562 2.444 -3.155 7.645 -8.183 11.559 -11.172 3.914 -2.989 9.528 -7.44 12.476 -9.893 2.948 -2.453 7.771 -5.464 10.719 -6.693 2.948 -1.228 6.224 -2.947 7.28 -3.818 1.057 -0.871 4.808 -1.882 8.337 -2.247 3.529 -0.365 7.01 -1.363 7.739 -2.217 0.892 -1.048 5.398 -1.79 13.818 -2.277 13.258 -0.767 15.784 0.008 11.627 3.562 -1.294 1.108 -2.354 2.879 -2.354 3.938 0 1.059 -1.072 3.212 -2.382 4.787 -1.31 1.574 -2.382 4.062 -2.382 5.528 0 1.467 -0.83 3.787 -1.845 5.155 -2.262 3.052 -6.518 29.22 -6.421 39.474 0.039 4.123 0.58 10.03 1.201 13.12 0.622 3.095 1.765 11.393 2.542 18.439 1.407 12.768 1.402 12.819 -1.334 14.912 -1.51 1.155 -4.16 2.117 -5.888 2.137 -1.729 0.02 -4.184 0.78 -5.455 1.688 -2.933 2.096 -12.25 2.072 -16.14 -0.042 z" style="fill:#ff4500"/></svg>