<svg xmlns="http://www.w3.org/2000/svg" viewBox="0 0 256 256"><g transform="translate(0 -796.36)"><path d="m 157.3 1049.18 c 239.91 -48.92 -17.642 -385.5 -139.59 -183.31 c -52.27 78.54 16.2 208.47 139.59 183.31 z" fill="#fff" color="#000"/><g fill="#ff4500" stroke="#ffa07a" stroke-width="0.475" transform="translate(0 796.36)"><path d="m 162.17 140.2 0 -23.02 8.07 0 c 5.063 0 8.07 0.177 8.07 0.475 0 0.271 1.424 0.475 3.322 0.475 2.637 0 3.323 0.147 3.323 0.712 0 0.396 0.422 0.712 0.949 0.712 0.522 0 0.949 0.214 0.949 0.475 0 0.261 0.33 0.475 0.734 0.475 0.403 0 1.258 0.524 1.899 1.165 0.641 0.641 1.165 1.495 1.165 1.899 0 0.403 0.32 0.734 0.712 0.734 0.527 0 0.712 0.554 0.712 2.136 0 1.372 0.212 2.149 0.593 2.173 0.475 0.03 0.475 0.085 0 0.277 -0.349 0.141 -0.593 1.103 -0.593 2.336 0 1.547 -0.187 2.096 -0.712 2.096 -0.392 0 -0.712 0.33 -0.712 0.734 0 1.072 -2.168 3.064 -3.335 3.064 -1.069 0 -2.361 1.02 -2.361 1.865 0 0.28 0.641 0.509 1.424 0.509 0.783 0 1.424 0.214 1.424 0.475 0 0.261 0.38 0.475 0.845 0.475 0.464 0 1.152 0.427 1.529 0.949 0.376 0.522 0.866 0.949 1.088 0.949 0.668 0 1.76 1.305 1.76 2.102 0 0.41 0.214 0.746 0.475 0.746 0.261 0 0.475 1.175 0.475 2.611 0 1.752 0.195 2.623 0.593 2.648 0.475 0.03 0.475 0.085 0 0.277 -0.349 0.141 -0.593 1.103 -0.593 2.336 0 1.153 -0.214 2.096 -0.475 2.096 -0.261 0 -0.475 0.336 -0.475 0.746 0 0.744 -1.077 2.102 -1.667 2.102 -0.171 0 -1.037 0.748 -1.924 1.661 -0.887 0.914 -2.044 1.661 -2.571 1.661 -0.527 0 -0.958 0.214 -0.958 0.475 0 0.271 -1.424 0.475 -3.322 0.475 -1.899 0 -3.322 0.203 -3.322 0.475 0 0.299 -3.164 0.475 -8.544 0.475 l -8.544 0 0 -23.02 z m 22.448 17.724 c 0.982 -0.526 1.452 -0.887 2.81 -2.157 1.624 -1.519 1.796 -2.124 1.796 -6.292 0 -2.361 -0.199 -4.292 -0.443 -4.292 -0.243 0 -0.578 -0.427 -0.744 -0.949 -0.166 -0.522 -0.617 -0.949 -1 -0.949 -0.386 0 -1.236 -0.534 -1.888 -1.187 -1.172 -1.172 -1.283 -1.187 -9.234 -1.187 l -8.05 0 0 8.781 0 8.781 7.863 0 c 5.05 0 8.23 -0.197 8.89 -0.55 l 0 0 z m 0.588 -23.404 c 1.597 -1.597 1.645 -1.755 1.645 -5.354 0 -3.164 -0.139 -3.809 -0.949 -4.392 -0.522 -0.376 -0.949 -0.923 -0.949 -1.215 0 -1.203 -2.566 -1.633 -9.753 -1.633 l -7.335 0 0 7.12 0 7.12 7.847 0 7.847 0 1.645 -1.645 z"/><path d="m 43.04 161.08 c 0 -1.175 -0.214 -2.136 -0.475 -2.136 -0.261 0 -0.475 -0.641 -0.475 -1.424 0 -0.783 -0.214 -1.424 -0.475 -1.424 -0.261 0 -0.475 -0.854 -0.475 -1.899 0 -1.044 -0.214 -1.899 -0.475 -1.899 -0.261 0 -0.475 -0.961 -0.475 -2.136 0 -1.175 -0.214 -2.136 -0.475 -2.136 -0.261 0 -0.475 -0.854 -0.475 -1.899 0 -1.044 -0.214 -1.899 -0.475 -1.899 -0.261 0 -0.475 -0.754 -0.475 -1.676 0 -1.052 -0.265 -1.778 -0.712 -1.949 -0.439 -0.169 -0.712 -0.89 -0.712 -1.884 0 -0.886 -0.214 -1.61 -0.475 -1.61 -0.261 0 -0.475 -0.854 -0.475 -1.899 0 -1.044 -0.214 -1.899 -0.475 -1.899 -0.261 0 -0.475 -0.854 -0.475 -1.899 l 0 -1.899 2.373 0 c 2.32 0 2.373 0.032 2.373 1.424 0 0.783 0.214 1.424 0.475 1.424 0.261 0 0.475 0.854 0.475 1.899 0 1.044 0.214 1.899 0.475 1.899 0.261 0 0.475 0.754 0.475 1.676 0 1.052 0.265 1.778 0.712 1.949 0.439 0.169 0.712 0.89 0.712 1.884 0 0.886 0.214 1.61 0.475 1.61 0.261 0 0.475 0.961 0.475 2.136 0 1.175 0.214 2.136 0.475 2.136 0.261 0 0.475 0.854 0.475 1.899 0 1.044 0.214 1.899 0.475 1.899 0.261 0 0.475 0.641 0.475 1.424 0 0.783 0.229 1.424 0.509 1.424 0.957 0 1.865 -1.356 1.865 -2.786 0 -0.786 0.214 -1.562 0.475 -1.723 0.261 -0.161 0.475 -1.028 0.475 -1.927 0 -0.898 0.214 -1.633 0.475 -1.633 0.261 0 0.475 -0.854 0.475 -1.899 0 -1.044 0.214 -1.899 0.475 -1.899 0.261 0 0.475 -0.854 0.475 -1.899 0 -1.044 0.214 -1.899 0.475 -1.899 0.261 0 0.475 -0.748 0.475 -1.661 0 -0.914 0.214 -1.661 0.475 -1.661 0.261 0 0.475 -0.854 0.475 -1.899 0 -1.044 0.214 -1.899 0.475 -1.899 0.261 0 0.475 -0.427 0.475 -0.949 0 -0.834 0.316 -0.949 2.611 -0.949 3.067 0 4.509 1.062 4.509 3.322 0 0.783 0.214 1.424 0.475 1.424 0.261 0 0.475 0.961 0.475 2.136 0 1.175 0.214 2.136 0.475 2.136 0.261 0 0.475 0.854 0.475 1.899 0 1.044 0.214 1.899 0.475 1.899 0.261 0 0.475 0.854 0.475 1.899 0 1.044 0.214 1.899 0.475 1.899 0.261 0 0.475 0.854 0.475 1.899 0 1.044 0.214 1.899 0.475 1.899 0.261 0 0.475 0.656 0.475 1.458 0 1.454 0.901 2.814 1.865 2.814 0.28 0 0.509 -0.641 0.509 -1.424 0 -0.783 0.214 -1.424 0.475 -1.424 0.261 0 0.475 -0.854 0.475 -1.899 0 -1.044 0.214 -1.899 0.475 -1.899 0.261 0 0.475 -0.961 0.475 -2.136 0 -1.175 0.214 -2.136 0.475 -2.136 0.261 0 0.475 -0.748 0.475 -1.661 0 -0.914 0.214 -1.661 0.475 -1.661 0.261 0 0.475 -0.854 0.475 -1.899 0 -1.044 0.214 -1.899 0.475 -1.899 0.261 0 0.475 -0.854 0.475 -1.899 0 -1.044 0.214 -1.899 0.475 -1.899 0.261 0 0.475 -0.641 0.475 -1.424 0 -1.392 0.053 -1.424 2.373 -1.424 l 2.373 0 0 1.899 c 0 1.044 -0.19 1.899 -0.423 1.899 -0.232 0 -0.553 0.748 -0.712 1.661 -0.159 0.914 -0.42 2.411 -0.579 3.327 -0.159 0.916 -0.48 1.783 -0.712 1.927 -0.232 0.144 -0.422 1.103 -0.422 2.131 0 1.029 -0.214 1.871 -0.475 1.871 -0.261 0 -0.475 0.854 -0.475 1.899 0 1.044 -0.214 1.899 -0.475 1.899 -0.261 0 -0.475 0.961 -0.475 2.136 0 1.175 -0.214 2.136 -0.475 2.136 -0.261 0 -0.475 0.854 -0.475 1.899 0 1.044 -0.214 1.899 -0.475 1.899 -0.261 0 -0.475 0.641 -0.475 1.424 0 0.783 -0.214 1.424 -0.475 1.424 -0.261 0 -0.475 0.961 -0.475 2.136 l 0 2.136 -2.882 0 c -3.453 0 -4.238 -0.609 -4.238 -3.289 0 -1.063 -0.214 -1.932 -0.475 -1.932 -0.261 0 -0.475 -0.854 -0.475 -1.899 0 -1.044 -0.214 -1.899 -0.475 -1.899 -0.261 0 -0.475 -0.961 -0.475 -2.136 0 -1.175 -0.214 -2.136 -0.475 -2.136 -0.261 0 -0.475 -0.854 -0.475 -1.899 0 -1.044 -0.214 -1.899 -0.475 -1.899 -0.261 0 -0.475 -0.641 -0.475 -1.424 0 -0.783 -0.214 -1.424 -0.475 -1.424 -0.261 0 -0.475 -0.961 -0.475 -2.136 0 -1.175 -0.214 -2.136 -0.475 -2.136 -0.261 0 -0.475 -0.854 -0.475 -1.899 0 -1.709 -0.119 -1.899 -1.187 -1.899 -1.068 0 -1.187 0.19 -1.187 1.899 0 1.044 -0.214 1.899 -0.475 1.899 -0.261 0 -0.475 0.961 -0.475 2.136 0 1.175 -0.214 2.136 -0.475 2.136 -0.261 0 -0.475 0.641 -0.475 1.424 0 0.783 -0.214 1.424 -0.475 1.424 -0.261 0 -0.475 0.854 -0.475 1.899 0 1.044 -0.214 1.899 -0.475 1.899 -0.261 0 -0.475 0.961 -0.475 2.136 0 1.582 -0.185 2.136 -0.712 2.136 -0.514 0 -0.712 0.527 -0.712 1.899 0 1.044 -0.214 1.899 -0.475 1.899 -0.261 0 -0.475 0.87 -0.475 1.932 0 2.629 -0.803 3.289 -4 3.289 l -2.644 0 0 -2.136 z"/><path d="m 86.23 162.74 c 0 -0.261 0.199 -0.475 0.443 -0.475 0.243 0 0.58 -0.434 0.749 -0.965 0.168 -0.53 0.824 -1.482 1.456 -2.114 0.632 -0.632 1.15 -1.48 1.15 -1.883 0 -0.403 0.214 -0.734 0.475 -0.734 0.261 0 0.475 -0.273 0.475 -0.607 0 -0.334 0.427 -0.915 0.949 -1.291 0.522 -0.376 0.949 -1.064 0.949 -1.529 0 -0.464 0.229 -0.845 0.509 -0.845 0.623 0 1.865 -1.194 1.865 -1.794 0 -0.241 0.641 -1.109 1.424 -1.928 1.396 -1.461 2.026 -4.346 0.949 -4.346 -0.261 0 -0.475 -0.427 -0.475 -0.949 0 -0.522 -0.214 -0.949 -0.475 -0.949 -0.261 0 -0.475 -0.273 -0.475 -0.607 0 -0.334 -0.427 -0.915 -0.949 -1.291 -0.522 -0.376 -0.949 -1.064 -0.949 -1.529 0 -0.464 -0.223 -0.845 -0.496 -0.845 -0.712 0 -2.826 -2.213 -2.826 -2.959 0 -0.346 -0.427 -0.937 -0.949 -1.313 -0.522 -0.376 -0.949 -1.064 -0.949 -1.529 0 -0.464 -0.214 -0.845 -0.475 -0.845 -0.261 0 -0.475 -0.303 -0.475 -0.672 0 -0.37 -0.267 -0.78 -0.593 -0.912 -0.326 -0.132 0.645 -0.256 2.157 -0.277 2.316 -0.032 2.935 0.147 3.916 1.128 0.641 0.641 1.165 1.409 1.165 1.708 0 0.299 0.641 1.142 1.424 1.873 0.783 0.732 1.424 1.672 1.424 2.089 0 0.417 0.32 0.759 0.712 0.759 0.392 0 0.712 0.223 0.712 0.496 0 0.84 2.518 3.103 2.734 2.457 0.106 -0.319 0.404 -0.58 0.662 -0.58 0.625 0 1.825 -1.226 1.825 -1.865 0 -0.28 0.214 -0.509 0.475 -0.509 0.261 0 0.475 -0.341 0.475 -0.759 0 -0.417 0.641 -1.357 1.424 -2.089 0.783 -0.732 1.424 -1.575 1.424 -1.873 0 -0.299 0.524 -1.067 1.165 -1.708 0.971 -0.971 1.622 -1.164 3.916 -1.158 1.513 0.004 2.537 0.164 2.275 0.356 -0.261 0.192 -0.794 0.989 -1.183 1.773 -0.389 0.783 -1.083 1.769 -1.542 2.192 -0.459 0.422 -0.834 1.031 -0.834 1.352 0 0.321 -0.641 1.183 -1.424 1.915 -0.783 0.732 -1.424 1.58 -1.424 1.886 0 0.695 -1.186 1.912 -1.865 1.912 -0.28 0 -0.509 0.32 -0.509 0.712 0 0.392 -0.214 0.712 -0.475 0.712 -0.261 0 -0.475 0.349 -0.475 0.775 0 0.426 -0.481 1.203 -1.068 1.725 -0.724 0.645 -0.877 1.019 -0.475 1.163 0.326 0.117 0.593 0.516 0.593 0.885 0 0.37 0.161 0.672 0.359 0.672 0.197 0 0.642 0.641 0.989 1.424 0.347 0.783 0.841 1.424 1.099 1.424 0.646 0 1.825 1.235 1.825 1.912 0 0.305 0.641 1.154 1.424 1.886 0.783 0.732 1.424 1.679 1.424 2.105 0 0.426 0.73 1.504 1.622 2.396 0.892 0.892 1.761 2.06 1.931 2.595 0.17 0.535 0.615 0.973 0.989 0.973 0.374 0 0.68 0.214 0.68 0.475 0 0.264 -1.273 0.475 -2.869 0.475 -2.414 0 -3.054 -0.185 -4.03 -1.165 -0.641 -0.641 -1.165 -1.495 -1.165 -1.899 0 -0.403 -0.214 -0.734 -0.475 -0.734 -0.261 0 -0.475 -0.235 -0.475 -0.522 0 -0.287 -0.641 -1.12 -1.424 -1.852 -0.783 -0.732 -1.424 -1.575 -1.424 -1.873 0 -0.68 -2.157 -2.873 -2.826 -2.873 -0.273 0 -0.496 -0.32 -0.496 -0.712 0 -0.396 -0.422 -0.712 -0.949 -0.712 -0.527 0 -0.949 0.316 -0.949 0.712 0 0.392 -0.214 0.712 -0.475 0.712 -0.261 0 -0.475 0.427 -0.475 0.949 0 0.522 -0.229 0.949 -0.509 0.949 -0.623 0 -1.865 1.194 -1.865 1.794 0 0.241 -0.641 1.109 -1.424 1.928 -0.783 0.82 -1.424 1.822 -1.424 2.228 0 0.406 -0.524 1.262 -1.165 1.903 -0.957 0.957 -1.635 1.165 -3.797 1.165 -1.448 0 -2.632 -0.214 -2.632 -0.475 z"/><path d="m 126.1 140.2 0 -23.02 12.815 0 12.815 0 0 2.373 0 2.373 -9.968 0 -9.968 0 0 7.12 0 7.12 9.02 0 9.02 0 0 2.373 0 2.373 -9.02 0 -9.02 0 0 11.154 0 11.154 -2.848 0 -2.848 0 0 -23.02 z"/></g></g></svg>