<svg xmlns="http://www.w3.org/2000/svg" viewBox="0 0 256 256"><g transform="translate(-22.25 28.22)"><path d="m 157.05 800.67 c 237.88 49.54 -17.492 390.35 -138.4 185.62 -51.828 -79.53 16.06 -211.1 138.4 -185.62 z" transform="matrix(1 0 0 0.99577 23.592 -820.88)" style="fill:#fff;color:#000"/><g transform="matrix(4.63762 0 0 5.0459 39.06 -23.565)" style="fill:#ff4500"><path d="M 12,13 H 38 V 37 H 12 z" style="fill-opacity:0.098"/><path d="M 11,12 H 37 V 36 H 11 z"/><g style="fill:#ffdead"><path d="m 12 13 h 7 v 13 h -7 z"/><path d="M 20,19 H 30 V 30 H 20 z"/><path d="m 20,31 h 16 v 4 H 20 z"/></g><path d="m 20,13 h 10 v 5 H 20 z"/><path d="m 31 19 h 5 v 11 h -5 z" style="fill:#ffa07a"/><path d="m 12 27 h 7 v 8 h -7 z" style="fill:#dc143c;fill-rule:evenodd"/><path d="m 31 13 h 5 v 5 h -5 z" style="fill:#ffdead"/></g></g></svg>