<svg xmlns="http://www.w3.org/2000/svg" viewBox="0 0 256 256"><path d="m 226.22 46.721 c 62.27 95.76 12.03 183 -58.47 203.69 -94.83 27.843 -223.59 -45.32 -138.75 -196.1 c 33.72 -59.925 152.85 -75.79 197.21 -7.587 z" style="fill:#fff;color:#000"/><g transform="matrix(2.28197 0 0 2.24221 53.18 -2153.83)" style="fill:#ff4500;stroke:#ffdead"><g transform="translate(3)"><path d="m 50 1045.28 h 8 v 5 h -8 z" style="opacity:0.4"/><path transform="scale(-1 -1)" d="m -11 -1050.36 h 8 v 5 h -8 z" style="opacity:0.4"/><path d="m 11 1045.36 h 39 v 5 h -39 z" style="opacity:0.4"/></g><rect width="51" height="59" rx="3" x="7.5" y="988.86"/><rect y="991.86" x="10.5" rx="2" height="53" width="45" style="opacity:0.35"/><rect y="988.86" x="7.5" rx="3" height="59" width="51" style="opacity:0.5"/><rect y="989.86" x="8.5" rx="2" height="57" width="49" style="stroke-linecap:round;stroke-linejoin:round"/><rect y="992.86" x="11.5" rx="1" height="51" width="43" style="opacity:0.9;color:#000"/><rect width="43" height="51" rx="1" x="11.5" y="992.86" style="opacity:0.7"/><path d="m 12.5 993.86 h 41 v 48.998 h -41 z" style="opacity:0.3;stroke-linecap:round;stroke-linejoin:round"/><rect width="37" height="45" rx="1" x="14.5" y="995.86" style="opacity:0.15"/><g><path d="m 16 997.36 c 7.791 0 34 0.003 34 0.003 v 41.997 c 0 0 -22.667 0 -34 0 0 -14 0 -28 0 -42 z"/><path d="m 49.5 1038.86 h -33 v -41 h 33 z" style="stroke-linecap:round"/><path d="m 15.5 996.86 c 8.02 0 35 0.003 35 0.003 v 42.997 c 0 0 -23.333 0 -35 0 0 -14.333 0 -28.667 0 -43 z" style="opacity:0.3;stroke-linejoin:round"/><path d="m 20 1003.86 h 2.344 z m 2.688 0 h 2.188 z m 2.531 0 h 1.938 z m 2.25 0 h 0.844 z m 1.188 0 h 1.875 z m 2.25 0 h 4.937 z m 5.25 0 h 3.781 z m 4.094 0 h 1.156 z m -20.25 2 h 3.656 z m 4.063 0 h 1.75 z m 2.063 0 h 0.875 z m 1.219 0 h 1.594 z m 1.938 0 h 1.625 z m 1.938 0 h 2.594 z m 2.938 0 h 3.375 z m 3.688 0 h 2.25 z m 2.563 0 h 0.563 z m -20.406 1.984 h 3.094 z m 3.406 0 h 5.063 z m 5.375 0 h 2.469 z m 2.781 0 h 2.313 z m 2.625 0 h 1.969 z m 2.281 0 l 3.094 0.031 z m 3.375 0.031 h 5.03 z m -19.844 1.985 h 4.281 z m 4.625 0 h 4.625 z m 4.938 0 h 1.844 z m 2.156 0 h 4.344 z m 4.625 0 h 2.969 z m 3.313 0 h 1.188 z m 1.5 0 h 0.656 z m 1 0 h 1.844 z m -22.16 2 h 1.594 z m 2.094 0 h 5.906 z m -2.094 3.984 h 3.094 z m 3.406 0 h 5.063 z m 5.375 0 h 2.469 z m 2.781 0 h 2.313 z m 2.625 0 h 1.969 z m 2.281 0 l 3.094 0.031 z m 3.375 0.031 h 5.03 z m -19.844 1.985 h 2.344 z m 2.688 0 h 2.156 z m 2.531 0 h 1.938 z m 2.25 0 h 0.844 z m 1.188 0 h 1.875 z m 2.25 0 h 4.906 z m 5.25 0 h 3.75 z m 4.063 0 h 1.188 z m 1.5 0 h 2.813 z m -21.719 2 h 3.938 z m 4.25 0 h 4.219 z m 4.531 0 h 1.625 z m 1.938 0 h 3.969 z m 4.281 0 h 5 z m 5.344 0 h 1.844 z m -20.344 2 h 4.281 z m 4.625 0 h 4.625 z m 4.938 0 h 1.844 z m 2.156 0 h 4.344 z m 4.625 0 h 2.969 z m 3.313 0 h 1.188 z m 1.5 0 h 0.656 z m 1 0 h 1.844 z m -22.16 2 h 3.656 z m 4.063 0 h 1.75 z m 2.063 0 h 0.875 z m 1.219 0 h 1.594 z m 1.938 0 h 1.625 z m 1.938 0 h 2.594 z m 2.938 0 h 3.375 z m 3.688 0 h 2.25 z m 2.563 0 h 0.563 z m -20.406 3.984 h 3.094 z m 3.406 0 h 5.063 z m 5.375 0 h 2.469 z m 2.781 0 h 2.313 z m 2.625 0 h 1.969 z m 2.281 0 l 3.094 0.031 z m 3.375 0.031 h 5.03 z m -19.844 1.985 h 3.656 z m 4.063 0 h 1.75 z m 2.063 0 h 0.875 z m 1.219 0 h 1.594 z m 1.938 0 h 1.625 z m 1.938 0 h 2.594 z m 2.938 0 h 3.375 z m 3.688 0 h 2.25 z m 2.563 0 h 0.563 z m -20.406 2 h 3.875 z m 4.219 0 h 1.219 z m 1.531 0 h 2.781 z m 3.094 0 h 4.094 z m 4.438 0 h 2.781 z m 3.063 0 h 0.594 z m 0.906 0 h 3.531 z m 3.906 0 h 1.844 z m -21.16 2 h 3.875 z m 4.219 0 h 1.75 z m 2.063 0 h 2.75 z m 3.063 0 h 2.969 z m 3.313 0 h 1.188 z m 1.5 0 h 0.656 z m 1 0 h 1.844 z"/></g><path d="m 11 1021.36 h 44 v 7 h -44 z" style="opacity:0.8"/><path d="m 11 1024.36 h 44 v 1 h -44 z" style="opacity:0.8"/></g></svg>