<svg xmlns="http://www.w3.org/2000/svg" viewBox="0 0 256 256"><g transform="translate(-3.508 -797.2)"><path d="m 30.08 1000.26 c -126.33 -190.02 276.54 -307.05 223.2 -61.41 -10.168 45.42 -44.31 82.84 -84.14 101.23 -49.19 22.718 -107.05 16.386 -139.06 -39.823 z" style="fill:#fff;color:#000"/><g transform="matrix(5.0621 0 0 5.26079 4.182 804.58)"><path d="m 25.342 4.554 v 5.617 h -6.275 v -4.739 c -0.302 0.087 -0.6 0.177 -0.896 0.276 v 4.464 h -6.275 v -1.154 c -0.31 0.239 -0.603 0.497 -0.896 0.753 v 0.401 h -0.448 c -0.285 0.262 -0.573 0.525 -0.841 0.802 h 1.289 v 5.617 h -4.987 c -0.11 0.264 -0.212 0.532 -0.308 0.802 h 5.294 v 5.617 h -6.275 c 0 0.268 0.015 0.537 0.028 0.802 h 6.247 v 5.617 h -4.987 c 0.114 0.274 0.236 0.535 0.364 0.802 h 4.622 v 5.617 h -0.786 c 0.431 0.398 1.171 1.305 1.641 1.668 l 0.042 -0.866 h 6.275 v 3.661 c 0.296 0.098 -0.505 0.74 0.896 0.9 v -4.56 h 6.275 v 4.814 c 0.299 0 0.6 -0.014 0.896 -0.025 v -4.789 h 6.275 v 3.561 c 0.307 -0.102 0.554 -0.184 0.854 -0.298 l 0.042 -3.263 h 5.827 c 0.468 -0.382 1.046 -0.645 1.473 -1.064 l -0.128 -5.355 h 3.725 c 0.127 -0.268 0.25 -0.528 0.364 -0.802 h -4.091 v -5.617 h 5.351 c 0.013 -0.265 0.028 -0.535 0.028 -0.802 h -5.378 v -5.617 h 4.398 c -0.096 -0.27 -0.198 -0.538 -0.308 -0.802 h -4.091 v -5.617 h 0.392 c -0.404 -0.421 -0.844 -0.814 -1.289 -1.203 v 0.401 h -6.275 v -4.137 c -0.299 -0.114 -0.59 -0.224 -0.896 -0.325 v 4.464 h -6.275 v -5.592 c -0.297 -0.011 -0.597 -0.025 -0.896 -0.025 z m -13.447 6.419 h 6.275 v 5.617 h -6.275 z m 7.171 0 h 6.275 v 5.617 h -6.275 z m 7.171 0 h 6.275 v 5.617 h -6.275 z m 7.171 0 h 6.275 v 5.617 h -6.275 z m -21.514 6.419 h 6.275 v 5.617 h -6.275 z m 7.171 0 h 6.275 v 5.617 h -6.275 z m 7.171 0 h 6.275 v 5.617 h -6.275 z m 7.171 0 h 6.275 v 5.617 h -6.275 z m -21.514 6.419 h 6.275 v 5.617 h -6.275 z m 7.171 0 h 6.275 v 5.617 h -6.275 z m 7.171 0 h 6.275 v 5.617 h -6.275 z m 7.171 0 h 6.275 v 5.617 h -6.275 z m -21.514 6.419 h 6.275 v 5.617 h -6.275 z m 7.171 0 h 6.275 v 5.617 h -6.275 z m 7.171 0 h 6.275 v 5.617 h -6.275 z m 7.171 0 h 6.275 v 5.617 h -6.275 z" style="fill:#ffa07a;fill-opacity:0.863"/><g transform="translate(2.786 0.144)" style="fill:#ff4500"><g transform="matrix(0.92943 0 0 0.92404 1.695 -6.435)" style="color:#000"><path d="m 17.543,21.03 v 2.164 h -5.38 v 14.07 h 11.835 v 1.623 h 1.076 v -4.329 h -1.076 v 1.623 H 13.239 V 24.277 h 4.304 v 2.164 h 15.06 v -2.164 h 4.304 v 11.904 h -9.683 v -3.247 h -1.076 v 7.575 h 1.076 v -3.247 h 10.759 v -14.07 h -5.38 v -2.164 h -15.06 z m 1.076,1.082 H 31.53 v 3.247 H 18.619 v -3.247 z" style="opacity:0.1"/><path transform="matrix(1.07592 0 0 1.08221 -1.824 4.799)" d="m 17,14 v 2 h -5 v 13 h 11 v 1.5 h 1 v -4 H 23 V 28 H 13 V 17 h 4 v 2 h 14 v -2 h 4 v 11 h -9 v -3 h -1 v 7 h 1 V 29 H 36 V 16 H 31 V 14 H 17 z m 1,1 h 12 v 3 H 18 v -3 z"/></g><g transform="matrix(0.9998 0 0 0.74925 0 25.744)"><path d="m 34.444,13.685 c 0,0 0.563,-0.324 0.563,-1.996 0,-1.613 -0.633,-2 -0.633,-2 l -15.366,0 -4,1.996 4,2" style="opacity:0.1"/><path d="m 33.444,12.35 c 0,0 0.563,-0.324 0.563,-1.996 0,-1.613 -0.633,-2 -0.633,-2 l -15.366,0 -4,1.996 4,2"/><path d="m 18,8.354 -4,2 4,2"/><path d="m 16,9.354 -2,0.994 2,1.01"/></g></g></g></g></svg>