<svg xmlns="http://www.w3.org/2000/svg" viewBox="0 0 256 256"><g transform="translate(0 -796.36)"><path d="m 218.87 844.28 c -266.38 -198.88 -304.22 348.42 -32.31 172.79 61.991 -40.04 102.86 -120.11 32.31 -172.79 z" style="fill:#fff;color:#000"/><g transform="matrix(3.15261 0 0 3.30556 41.485 842.17)"><path d="M 2,4 H46 V44 H2 z" style="fill:#d60000"/><g style="fill:#fe0606"><path d="m 12 13 v 3 v 27 h 33 v -27 h -20 v -3 z"/><path d="M 3,16 H11 V43 H3 z"/></g><path d="M 41,5 H45 V6 H41 z" style="fill:#4d0000"/><g style="fill:#0c0c0c"><path d="M 18,18 H25 V24 H18 z"/><path d="M 28,18 H35 V24 H28 z"/><path d="m 28 26.5 h 7 v 6 h -7 z"/><path d="m 18 26.5 h 7 v 6 h -7 z"/><path d="M 18,36 H25 V42 H18 z"/><path d="M 12,12 H25 V13 H12 z"/></g><path d="M 25,13 H32 V16 H25 z" style="fill:#ae0000"/></g></g></svg>