<svg xmlns="http://www.w3.org/2000/svg" viewBox="0 0 256 256"><path d="m -1374.42 1658.71 c 127.95 -192.46 -280.09 -311 -226.07 -62.2 23.02 102.82 167.39 165.22 226.07 62.2 z" transform="matrix(0 0.98637 -0.98183 0 1682.72 1585.9)" style="fill:#fff;color:#000"/><path d="m 66.99898,912.69627 v -64 h 64 64 v 64 64 h -64 -64 v -64 z m 26.783,49.22 0.283,-11.283 -11.283,0.283 -11.283,0.283 -0.285,9.644 c -0.379,12.815 -0.174,13.02 12.641,12.641 l 9.644,-0.285 0.283,-11.283 z m -8.533,7.72 c -2.711,-1.052 -3.061,-5.383 -0.65,-8.05 1.439,-1.59 1.446,-1.986 0.075,-3.944 -2.036,-2.906 -1.083,-4.946 2.31,-4.946 4.098,0 5.156,1.987 4.815,9.05 -0.34,7.04 -2.386,9.506 -6.55,7.891 z m -10.215,-1.871 c -1.623,-3.034 -1.28,-11.678 0.536,-13.494 0.864,-0.864 1.732,-1.571 1.929,-1.571 0.196,0 1.064,0.707 1.929,1.571 1.01,1.01 1.571,3.359 1.571,6.566 0,5.526 -1.318,8.863 -3.5,8.863 -0.786,0 -1.895,-0.87 -2.465,-1.934 z m 50.79,2.02 0.326,-3.415 -2.67,1.75 c -2.576,1.688 -2.749,1.676 -4.89,-0.335 -2.772,-2.604 -3.414,-2.6 -6.225,0.041 -3.868,3.634 -5.365,1.924 -5.365,-6.126 0,-7.65 1.037,-9.121 4.95,-7.03 1.72,0.92 2.589,0.748 4.735,-0.941 2.315,-1.821 2.879,-1.903 4.722,-0.686 1.151,0.76 2.237,2.343 2.412,3.518 0.554,3.704 2.18,2.313 2.18,-1.865 v -4 h -10.5 -10.5 v 10.833 c 0,5.958 0.251,11.08 0.557,11.39 0.306,0.306 4.919,0.494 10.25,0.417 l 9.693,-0.14 0.326,-3.415 z m 31.957,-7.835 0.283,-11.25 h -10.533 -10.533 v 10.833 c 0,5.958 0.315,11.149 0.7,11.534 0.385,0.385 4.998,0.573 10.25,0.417 l 9.55,-0.284 0.283,-11.25 z m -9.739,7.303 c -1.053,-1.269 -0.978,-2 0.423,-4.144 1.632,-2.49 1.615,-2.683 -0.382,-4.544 -2.498,-2.327 -2.54,-2.772 -0.529,-5.643 1.753,-2.503 6.204,-3.01 7.05,-0.801 0.3,0.782 0.022,2.399 -0.617,3.594 -0.98,1.831 -0.806,2.553 1.109,4.591 l 2.272,2.418 -2.036,2.738 c -2.387,3.208 -5.484,3.969 -7.291,1.791 z m -7.892,-0.438 c -1.949,-1.235 -1.896,-12.8 0.068,-14.764 1.325,-1.325 1.679,-1.308 3.137,0.149 2.741,2.741 1.796,15.548 -1.142,15.485 -0.393,-0.008 -1.321,-0.4 -2.063,-0.869 z m -46.15,-39.648 v -10.533 l -11.217,0.283 -11.217,0.283 -0.064,9.5 c -0.035,5.225 0.089,9.837 0.276,10.25 0.187,0.413 5.264,0.75 11.281,0.75 h 10.941 v -10.533 z m -10.965,6.598 c -0.569,-1.064 -1.035,-2.455 -1.035,-3.092 0,-0.637 -0.9,-2.302 -2,-3.701 -2.41,-3.064 -2.51,-4.62 -0.429,-6.701 1.694,-1.694 5.141,-2.041 7.213,-0.726 1.749,1.109 2.675,11.427 1.263,14.07 -1.4,2.616 -3.658,2.686 -5.01,0.154 z m 42.965,-6.566 v -10.5 h -10.5 -10.5 v 10.5 10.5 h 10.5 10.5 v -10.5 z m -18.05,6.937 c -1.741,-2.098 -1.536,-12.278 0.284,-14.1 1.31,-1.31 1.669,-1.295 3.088,0.124 1.551,1.551 2.16,8.787 1.067,12.695 -0.648,2.319 -3.01,3 -4.439,1.28 z m 8.252,0.363 c -0.671,-0.671 -1.2,-3.889 -1.2,-7.3 0,-6.476 1.071,-8.5 4.5,-8.5 3.429,0 4.5,2.024 4.5,8.5 0,6.476 -1.071,8.5 -4.5,8.5 -1.155,0 -2.64,-0.54 -3.3,-1.2 z m 41.8,-7.3 v -10.5 h -10.5 -10.5 v 10.5 10.5 h 10.5 10.5 v -10.5 z m -14.965,6.566 c -2.171,-4.056 -0.762,-15.07 1.929,-15.07 2.419,0 4.04,3.406 4.04,8.5 0,7.176 -3.548,11.08 -5.965,6.566 z m 8.608,0.434 c -1.115,-1.115 -1.643,-3.364 -1.643,-7 0,-3.636 0.528,-5.885 1.643,-7 2.703,-2.703 4.607,0.19 4.607,7 0,6.81 -1.904,9.703 -4.607,7 z m 39.857,-7 v -10 l -11.25,-0.283 -11.25,-0.283 v 10.566 10.566 l 11.25,-0.283 11.25,-0.283 v -10 z m -11.11,6.981 c -2.932,-2.932 -2.973,-3.86 -0.281,-6.367 1.94,-1.808 1.986,-2.14 0.575,-4.154 -2.038,-2.909 -1.1,-4.96 2.268,-4.96 2.746,0 6.05,2.636 6.05,4.829 0,0.644 -0.937,2.108 -2.081,3.253 -1.968,1.968 -1.988,2.184 -0.379,3.963 3.803,4.202 -2.091,7.496 -6.15,3.437 z m -8.392,0.016 c -1.314,-1.583 -1.731,-11.5 -0.563,-13.39 1.019,-1.648 4.263,-1.337 4.959,0.475 1.23,3.204 0.625,11.257 -0.964,12.847 -1.921,1.921 -1.894,1.921 -3.431,0.068 z m -77.997,-39.03 v -10.533 l -11.217,0.283 -11.217,0.283 -0.064,9.5 c -0.035,5.225 0.089,9.837 0.276,10.25 0.187,0.413 5.264,0.75 11.281,0.75 h 10.941 v -10.533 z m -14.653,6.995 c -0.324,-0.845 0.221,-2.434 1.213,-3.529 1.743,-1.926 1.731,-2.042 -0.379,-3.519 -4.212,-2.95 -1.665,-8.414 3.922,-8.414 3.675,0 4.771,2.377 2.337,5.066 -1.743,1.926 -1.731,2.042 0.379,3.519 2.564,1.796 2.817,4.636 0.61,6.843 -2.034,2.034 -7.305,2.056 -8.08,0.034 z m 46.653,-6.963 v -10.5 h -10.5 -10.5 v 10.5 10.5 h 10.5 10.5 v -10.5 z m -13.803,7.643 c -0.717,-0.455 -1.544,-3.525 -1.838,-6.825 -0.619,-6.944 0.844,-9.318 5.744,-9.318 3.524,0 4.797,2.344 2.599,4.787 -1.394,1.55 -1.358,1.938 0.379,4.074 2.331,2.866 2.417,4.499 0.348,6.568 -1.7,1.7 -5.142,2.04 -7.232,0.714 z m 45.803,-7.643 v -10.5 h -10.5 -10.5 v 10.5 10.5 h 10.5 10.5 v -10.5 z m -10.8,7.3 c -1.751,-1.751 -1.472,-4.181 0.779,-6.776 2.098,-2.42 1.762,-4.522 -0.58,-3.623 -2.194,0.842 -4.399,-0.428 -4.399,-2.532 0,-2.364 3.583,-3.851 7.551,-3.134 4.419,0.8 5.449,2.081 5.449,6.782 0,3.334 -0.637,4.954 -2.901,7.378 -3.182,3.406 -4.101,3.703 -5.899,1.906 z m 44.3,-7.3 v -10 l -11.25,-0.283 -11.25,-0.283 v 10.566 10.566 l 11.25,-0.283 11.25,-0.283 v -10 z m -19.868,6.385 c -1.658,-2.368 -1.2,-4.522 1.528,-7.174 1.012,-0.984 1.84,-2.888 1.84,-4.231 0,-1.751 0.687,-2.614 2.428,-3.051 3.817,-0.958 6.572,0.361 6.572,3.145 0,1.356 1.111,3.405 2.5,4.613 5.355,4.656 1.924,8.813 -7.272,8.813 -5.092,0 -6.362,-0.354 -7.596,-2.115 z m 10.118,-4.635 c 0.261,-0.785 -0.545,-1.25 -2.167,-1.25 -2.524,0 -3.288,0.962 -1.882,2.368 1.029,1.029 3.568,0.328 4.049,-1.118 z m -87.968,-34.5 -0.283,-11.25 -9.835,-0.006 c -5.409,-0.003 -10.299,0.28 -10.865,0.63 -0.981,0.606 -1.814,20.528 -0.897,21.445 0.237,0.237 5.321,0.431 11.297,0.431 h 10.866 l -0.283,-11.25 z m -10.748,7.316 c -0.569,-1.064 -1.035,-4.384 -1.035,-7.378 0,-6.136 1.885,-8.877 4.834,-7.03 2.02,1.265 2.837,11.217 1.18,14.312 -1.37,2.56 -3.636,2.602 -4.979,0.092 z m 42.748,-7.316 -0.283,-11.25 h -10 -10 l -0.283,11.25 -0.283,11.25 h 10.566 10.566 l -0.283,-11.25 z m -14.211,7.679 c -2.207,-2.207 -1.954,-5.05 0.61,-6.843 2.11,-1.478 2.122,-1.593 0.379,-3.519 -3.26,-3.602 0.312,-7.357 4.976,-5.232 3.577,1.63 4.355,6.03 1.478,8.355 -2.193,1.776 -2.215,1.932 -0.529,3.794 0.967,1.068 1.492,2.634 1.168,3.479 -0.776,2.02 -6.05,1.999 -8.08,-0.034 z m 46.21,-7.679 -0.283,-11.25 h -10 -10 l -0.283,11.25 -0.283,11.25 h 10.565 10.565 l -0.283,-11.25 z m -14.211,7.679 c -2.069,-2.069 -1.983,-3.701 0.348,-6.568 1.779,-2.188 1.801,-2.493 0.292,-4.169 -3.627,-4.03 2.932,-7.548 6.821,-3.659 1.881,1.881 2.087,2.927 1.615,8.22 -0.299,3.349 -1.124,6.434 -1.844,6.891 -2.09,1.325 -5.532,0.985 -7.232,-0.714 z m 47.935,-6.764 c 0.003,-5.409 -0.318,-10.359 -0.713,-11 -0.472,-0.763 -4.26,-1.164 -11.01,-1.165 h -10.287 l -0.283,11.283 -0.283,11.283 11.283,-0.283 11.283,-0.283 0.006,-9.835 z m -13.08,6.28 c -1.612,-1.063 -3.688,-1.935 -4.613,-1.938 -1.72,-0.007 -3.423,-3.412 -2.941,-5.881 0.148,-0.756 1.795,-2.946 3.661,-4.867 2.743,-2.824 3.886,-3.369 5.97,-2.846 1.418,0.356 2.82,1.421 3.116,2.367 0.819,2.615 2.227,5.533 3.577,7.412 0.993,1.382 0.859,2.085 -0.732,3.843 -3.294,3.64 -4.854,4.01 -8.04,1.911 z" transform="translate(3.255 -788.78)" style="fill:#ff4500"/></svg>