<svg xmlns="http://www.w3.org/2000/svg" viewBox="0 0 256 256"><defs><clipPath><path d="m 28.07 9.763 h 36.2 v 59.19 h -36.2 z"/></clipPath><clipPath><path transform="matrix(15.33333 0 0 11.5 415 -125.5)" d="m -24 13 c 0 1.105 -0.672 2 -1.5 2 -0.828 0 -1.5 -0.895 -1.5 -2 0 -1.105 0.672 -2 1.5 -2 0.828 0 1.5 0.895 1.5 2 z"/></clipPath><clipPath><path d="m 47.41 6.348 v -1.75 c 0 -2.054 -1.664 -3.719 -3.719 -3.719 h -39.37 c -2.054 0 -3.719 1.664 -3.719 3.719 v 1.75" transform="matrix(0.99561 0 0 0.99561 0.105 0.016)"/></clipPath><clipPath><path d="m 27.643 3.295 l 13.09 13.09 h -11.07 c -0.978 0 -2.01 -1.035 -2.01 -2.01 v -11.07 z"/></clipPath></defs><g transform="matrix(1.02082 0 0 0.98719 -3.47 1.95)"><path d="m -1539.23 1793.07 c 135.66 329.42 -434.9 174.65 -157.85 -40.478 49.706 -37.47 133.17 -40.36 157.85 40.478 z" transform="matrix(-0.17085 0.97129 -0.94529 -0.17555 1606.13 2055.12)" style="fill:#fff;color:#000"/><g transform="matrix(1.10367 0 0 1.16965 0.692 -15.689)"><path d="m 111.23 192.74 c -0.709 -0.804 -2.297 -1.462 -3.528 -1.462 -1.231 0 -3.01 -0.9 -3.951 -2 -0.942 -1.1 -2.742 -2 -4 -2 -1.258 0 -3.058 -0.9 -4 -2 -0.942 -1.1 -2.742 -2 -4 -2 -1.258 0 -3.058 -0.9 -4 -2 -0.942 -1.1 -2.742 -2 -4 -2 -1.258 0 -3.058 -0.9 -4 -2 -0.942 -1.1 -2.742 -2 -4 -2 -1.258 0 -3.058 -0.9 -4 -2 -0.942 -1.1 -2.742 -2 -4 -2 -1.258 0 -3.058 -0.9 -4 -2 -0.942 -1.1 -2.856 -2 -4.254 -2 -1.398 0 -2.794 -0.658 -3.102 -1.462 -0.309 -0.804 -1.419 -1.734 -2.469 -2.067 -1.825 -0.579 -1.908 -2.01 -1.908 -32.971 0 -30.965 0.083 -32.391 1.908 -32.971 1.049 -0.333 2.16 -1.263 2.469 -2.067 0.309 -0.804 1.705 -1.462 3.102 -1.462 1.398 0 3.312 -0.9 4.254 -2 0.942 -1.1 2.742 -2 4 -2 1.258 0 3.058 -0.9 4 -2 0.942 -1.1 2.742 -2 4 -2 1.258 0 3.058 -0.9 4 -2 0.942 -1.1 2.742 -2 4 -2 1.258 0 3.058 -0.9 4 -2 0.942 -1.1 2.742 -2 4 -2 1.258 0 3.058 -0.9 4 -2 0.942 -1.1 2.742 -2 4 -2 1.258 0 3.058 -0.9 4 -2 0.942 -1.1 2.734 -2 3.982 -2 1.248 0 2.831 -0.9 3.518 -2 1.756 -2.812 8.78 -2.812 10.536 0 0.687 1.1 2.27 2 3.518 2 1.248 0 3.04 0.9 3.982 2 0.942 1.1 2.742 2 4 2 1.258 0 3.058 0.9 4 2 0.942 1.1 2.742 2 4 2 1.258 0 3.058 0.9 4 2 0.942 1.1 2.742 2 4 2 1.258 0 3.058 0.9 4 2 0.942 1.1 2.742 2 4 2 1.258 0 3.058 0.9 4 2 0.942 1.1 2.742 2 4 2 1.258 0 3.058 0.9 4 2 0.942 1.1 2.678 2 3.858 2 1.18 0 3.209 1.148 4.51 2.552 l 2.365 2.552 v 31.397 v 31.397 l -2.365 2.552 c -1.301 1.403 -3.33 2.552 -4.51 2.552 -1.18 0 -2.916 0.9 -3.858 2 -0.942 1.1 -2.742 2 -4 2 -1.258 0 -3.058 0.9 -4 2 -0.942 1.1 -2.742 2 -4 2 -1.258 0 -3.058 0.9 -4 2 -0.942 1.1 -2.742 2 -4 2 -1.258 0 -3.058 0.9 -4 2 -0.942 1.1 -2.742 2 -4 2 -1.258 0 -3.058 0.9 -4 2 -0.942 1.1 -2.742 2 -4 2 -1.258 0 -3.058 0.9 -4 2 -0.942 1.1 -2.705 2 -3.919 2 -1.213 0 -2.881 0.675 -3.706 1.5 -1.909 1.909 -8.737 1.884 -10.432 -0.038 z" style="fill:#e0e001"/><path d="m 111.23 192.74 c -0.709 -0.804 -2.297 -1.462 -3.528 -1.462 -1.231 0 -3.01 -0.9 -3.951 -2 -0.942 -1.1 -2.742 -2 -4 -2 -1.258 0 -3.058 -0.9 -4 -2 -0.942 -1.1 -2.742 -2 -4 -2 -1.258 0 -3.058 -0.9 -4 -2 -0.942 -1.1 -2.742 -2 -4 -2 -1.258 0 -3.058 -0.9 -4 -2 -0.942 -1.1 -2.742 -2 -4 -2 -1.258 0 -3.058 -0.9 -4 -2 -0.942 -1.1 -2.742 -2 -4 -2 -1.258 0 -3.058 -0.9 -4 -2 -0.942 -1.1 -2.856 -2 -4.254 -2 -1.398 0 -2.794 -0.658 -3.102 -1.462 -0.309 -0.804 -1.419 -1.734 -2.469 -2.067 -1.825 -0.579 -1.908 -2.01 -1.908 -32.971 0 -30.965 0.083 -32.391 1.908 -32.971 1.049 -0.333 2.16 -1.263 2.469 -2.067 0.309 -0.804 1.705 -1.462 3.102 -1.462 1.398 0 3.312 -0.9 4.254 -2 0.942 -1.1 2.742 -2 4 -2 1.258 0 3.058 -0.9 4 -2 0.942 -1.1 2.742 -2 4 -2 1.258 0 3.058 -0.9 4 -2 0.942 -1.1 2.742 -2 4 -2 1.258 0 3.058 -0.9 4 -2 0.942 -1.1 2.742 -2 4 -2 1.258 0 3.058 -0.9 4 -2 0.942 -1.1 2.742 -2 4 -2 1.258 0 3.058 -0.9 4 -2 0.942 -1.1 2.734 -2 3.982 -2 1.248 0 2.831 -0.9 3.518 -2 1.756 -2.812 8.78 -2.812 10.536 0 0.687 1.1 2.27 2 3.518 2 1.248 0 3.04 0.9 3.982 2 0.942 1.1 2.742 2 4 2 1.258 0 3.058 0.9 4 2 0.942 1.1 2.742 2 4 2 1.258 0 3.058 0.9 4 2 0.942 1.1 2.742 2 4 2 1.258 0 3.058 0.9 4 2 0.942 1.1 2.742 2 4 2 1.258 0 3.058 0.9 4 2 0.942 1.1 2.742 2 4 2 1.258 0 3.058 0.9 4 2 0.942 1.1 2.678 2 3.858 2 1.18 0 3.209 1.148 4.51 2.552 l 2.365 2.552 v 31.397 v 31.397 l -2.365 2.552 c -1.301 1.403 -3.33 2.552 -4.51 2.552 -1.18 0 -2.916 0.9 -3.858 2 -0.942 1.1 -2.742 2 -4 2 -1.258 0 -3.058 0.9 -4 2 -0.942 1.1 -2.742 2 -4 2 -1.258 0 -3.058 0.9 -4 2 -0.942 1.1 -2.742 2 -4 2 -1.258 0 -3.058 0.9 -4 2 -0.942 1.1 -2.742 2 -4 2 -1.258 0 -3.058 0.9 -4 2 -0.942 1.1 -2.742 2 -4 2 -1.258 0 -3.058 0.9 -4 2 -0.942 1.1 -2.705 2 -3.919 2 -1.213 0 -2.881 0.675 -3.706 1.5 -1.909 1.909 -8.737 1.884 -10.432 -0.038 z m 0.789 -77.855 c 0 -8.555 -0.28 -10.5 -1.582 -11 -0.87 -0.334 -10.32 -0.607 -21 -0.607 -16.594 0 -19.418 0.218 -19.418 1.5 0 0.855 0.899 1.5 2.092 1.5 1.151 0 3.236 0.9 4.635 2 1.398 1.1 3.198 2 4 2 0.802 0 2.602 0.9 4 2 1.398 1.1 3.198 2 4 2 0.802 0 2.602 0.9 4 2 1.398 1.1 3.198 2 4 2 0.802 0 2.602 0.9 4 2 1.398 1.1 3.327 2 4.285 2 0.958 0 2.303 0.675 2.988 1.5 0.685 0.825 1.865 1.5 2.622 1.5 1.082 0 1.378 -2.232 1.378 -10.393 z m 13 8.893 c 0.71 -0.856 2.891 -1.5 5.079 -1.5 3.087 0 4.671 -0.777 8.128 -3.988 2.361 -2.193 5.02 -3.993 5.909 -4 0.888 -0.007 2.759 -0.912 4.158 -2.01 1.398 -1.1 3.198 -2 4 -2 0.802 0 2.602 -0.9 4 -2 1.398 -1.1 3.484 -2 4.635 -2 1.193 0 2.092 -0.645 2.092 -1.5 0 -1.282 -2.824 -1.5 -19.418 -1.5 -10.68 0 -20.13 0.273 -21 0.607 -2.185 0.838 -2.381 21.393 -0.204 21.393 0.758 0 1.938 -0.675 2.622 -1.5 z m -14.213 -26.347 c 0.946 -0.6 1.211 -3.573 1 -11.235 -0.285 -10.339 -0.306 -10.42 -2.839 -10.716 -1.59 -0.185 -3.251 0.475 -4.405 1.75 -1.019 1.126 -2.838 2.047 -4.04 2.047 -1.205 0 -3 0.9 -4 2 -0.995 1.1 -2.795 2 -4 2 -1.205 0 -3 0.9 -4 2 -0.995 1.1 -2.795 2 -4 2 -1.205 0 -3 0.9 -4 2 -0.995 1.1 -2.682 2 -3.747 2 -1.066 0 -3.081 0.9 -4.48 2 -1.398 1.1 -3.355 2 -4.349 2 -1.974 0 -3.245 1.345 -2.23 2.361 0.944 0.944 43.587 0.748 45.09 -0.208 z m 56.713 -0.589 c 0 -0.515 -1.406 -1.301 -3.124 -1.746 -1.718 -0.445 -3.686 -1.486 -4.372 -2.314 -0.746 -0.899 -2.927 -1.504 -5.423 -1.504 -3.553 0 -4.756 -0.596 -8.08 -4 -2.154 -2.206 -4.867 -4 -6.05 -4 -1.178 0 -2.957 -0.9 -3.952 -2 -0.995 -1.1 -2.795 -2 -4 -2 -1.205 0 -3.02 -0.921 -4.04 -2.047 -1.154 -1.275 -2.815 -1.935 -4.405 -1.75 -2.533 0.295 -2.554 0.377 -2.839 10.716 -0.211 7.657 0.054 10.637 1 11.245 1.79 1.15 45.29 0.574 45.29 -0.6 z" style="fill:#e06060"/><path d="m 112.67 192.8 c -0.31 -0.809 -1.821 -1.777 -3.357 -2.152 -1.536 -0.375 -3.866 -1.514 -5.178 -2.53 -1.312 -1.016 -3.041 -1.848 -3.842 -1.848 -0.802 0 -2.602 -0.9 -4 -2 -1.398 -1.1 -3.198 -2 -4 -2 -0.802 0 -2.602 -0.9 -4 -2 -1.398 -1.1 -3.198 -2 -4 -2 -0.802 0 -2.602 -0.9 -4 -2 -1.398 -1.1 -3.198 -2 -4 -2 -0.802 0 -2.602 -0.9 -4 -2 -1.398 -1.1 -3.198 -2 -4 -2 -0.802 0 -2.602 -0.9 -4 -2 -1.398 -1.1 -3.126 -2 -3.838 -2 -0.713 0 -2.883 -1.012 -4.823 -2.25 l -3.527 -2.25 v -31 v -31 l 3.527 -2.25 c 1.94 -1.237 4.326 -2.25 5.303 -2.25 0.977 0 2.59 -0.9 3.586 -2 0.995 -1.1 2.795 -2 4 -2 1.205 0 3 -0.9 4 -2 0.995 -1.1 2.795 -2 4 -2 1.205 0 3 -0.9 4 -2 0.995 -1.1 2.795 -2 4 -2 1.205 0 3 -0.9 4 -2 0.995 -1.1 2.795 -2 4 -2 1.205 0 3 -0.9 4 -2 0.995 -1.1 2.795 -2 4 -2 1.205 0 2.958 -0.848 3.896 -1.885 0.938 -1.037 3.074 -2.159 4.747 -2.493 1.888 -0.378 3.24 -1.369 3.566 -2.615 0.748 -2.86 6.835 -2.86 7.583 0 0.326 1.246 1.678 2.237 3.566 2.615 1.672 0.334 3.809 1.457 4.747 2.493 0.938 1.037 2.692 1.885 3.896 1.885 1.205 0 3 0.9 4 2 0.995 1.1 2.795 2 4 2 1.205 0 3 0.9 4 2 0.995 1.1 2.682 2 3.747 2 1.065 0 3.081 0.9 4.48 2 1.398 1.1 3.312 2 4.253 2 0.941 0 2.525 0.9 3.52 2 0.995 1.1 2.795 2 4 2 1.205 0 3 0.9 4 2 0.995 1.1 2.753 2.01 3.905 2.032 1.152 0.017 3.333 1.121 4.845 2.452 l 2.75 2.42 v 30.596 v 30.596 l -2.75 2.42 c -1.512 1.331 -3.693 2.435 -4.845 2.452 -1.152 0.017 -2.91 0.932 -3.905 2.032 -0.995 1.1 -2.795 2 -4 2 -1.205 0 -3 0.9 -4 2 -0.995 1.1 -2.795 2 -4 2 -1.205 0 -3 0.9 -4 2 -0.995 1.1 -2.795 2 -4 2 -1.205 0 -3 0.9 -4 2 -0.995 1.1 -2.795 2 -4 2 -1.205 0 -3 0.9 -4 2 -0.995 1.1 -3.074 2 -4.62 2 -1.786 0 -3.2 0.728 -3.88 2 -0.589 1.1 -1.955 2 -3.035 2 -1.081 0 -2.865 0.9 -3.965 2 -2.338 2.338 -7.53 2.667 -8.35 0.53 z m 15.35 -8.03 c 0 -0.825 -0.675 -1.5 -1.5 -1.5 -1.562 0 -1.984 1.183 -0.833 2.333 1.151 1.151 2.333 0.728 2.333 -0.833 z m 0 -10.674 c 0 -1.047 1.8 -3.776 4 -6.07 2.2 -2.29 4 -4.99 4 -6 0 -1.01 1.8 -3.71 4 -6 3.193 -3.322 4 -4.908 4 -7.854 0 -3.722 -1.173 -4.906 -4.86 -4.906 -0.933 0 -2.467 -0.9 -3.408 -2 -0.942 -1.1 -2.826 -2 -4.187 -2 -1.475 0 -2.92 -0.832 -3.577 -2.06 -0.777 -1.451 -1.895 -1.968 -3.785 -1.75 l -2.683 0.31 l -0.27 21.976 c -0.149 12.09 -0.01 22.655 0.308 23.484 0.446 1.163 1.251 0.737 3.52 -1.862 1.618 -1.853 2.942 -4.226 2.942 -5.272 z m 8.5 6.174 c 0.995 -1.1 2.795 -2 4 -2 1.205 0 3 -0.9 4 -2 0.995 -1.1 2.795 -2 4 -2 1.205 0 3 -0.9 4 -2 0.995 -1.1 2.795 -2 4 -2 1.205 0 3 -0.9 4 -2 0.995 -1.1 2.724 -2 3.841 -2 2.322 0 6.659 -3.695 6.659 -5.674 0 -0.783 -1.138 -1.326 -2.778 -1.326 -1.54 0 -3.541 -0.891 -4.49 -2 -0.942 -1.1 -2.826 -2 -4.187 -2 -1.451 0 -2.917 -0.827 -3.545 -2 -1.838 -3.435 -5.119 -2.393 -10.234 3.25 -2.617 2.887 -4.76 6.05 -4.762 7.04 -0.002 0.984 -1.804 3.662 -4 5.951 -2.2 2.29 -4 4.917 -4 5.839 0 0.922 -0.675 2.236 -1.5 2.921 -0.825 0.685 -1.5 1.865 -1.5 2.622 0 2.084 4.435 1.659 6.5 -0.622 z m 39.27 -44.559 c 0.149 -12.04 0.01 -22.572 -0.308 -23.401 -0.446 -1.163 -1.251 -0.737 -3.52 1.862 -1.618 1.853 -2.942 4.226 -2.942 5.272 0 1.047 -1.8 3.776 -4 6.07 -2.2 2.29 -4 5.01 -4 6.04 0 1.032 -1.8 3.659 -4 5.837 -2.2 2.178 -4 4.602 -4 5.387 0 2.293 5.723 7.496 8.244 7.496 1.271 0 3.082 0.9 4.02 2 0.942 1.1 2.613 2 3.714 2 1.101 0 2.564 0.901 3.252 2 2.721 4.358 3.268 1.178 3.536 -20.562 z m -23.863 0.67 c 2.251 -2.689 4.093 -5.631 4.093 -6.539 0 -0.907 1.8 -3.523 4 -5.813 2.2 -2.29 4 -4.917 4 -5.839 0 -0.922 0.675 -2.236 1.5 -2.921 4.239 -3.518 -0.382 -5.454 -4.773 -2 -1.398 1.1 -3.198 2 -4 2 -0.802 0 -2.602 0.9 -4 2 -1.398 1.1 -3.198 2 -4 2 -0.802 0 -2.602 0.9 -4 2 -1.398 1.1 -3.264 2 -4.145 2 -0.881 0 -2.373 0.9 -3.315 2 -0.942 1.1 -2.476 2 -3.408 2 -3.179 0 -4.86 1.211 -4.86 3.5 0 2.289 1.681 3.5 4.86 3.5 0.933 0 2.467 0.9 3.408 2 0.942 1.1 2.794 2 4.115 2 1.322 0 2.662 0.675 2.978 1.5 1.021 2.661 3.359 1.611 7.545 -3.389 z m -39.907 -21.504 c 0 -8.555 -0.28 -10.5 -1.582 -11 -0.87 -0.334 -10.32 -0.607 -21 -0.607 -16.594 0 -19.418 0.218 -19.418 1.5 0 0.855 0.899 1.5 2.092 1.5 1.151 0 3.236 0.9 4.635 2 1.398 1.1 3.198 2 4 2 0.802 0 2.602 0.9 4 2 1.398 1.1 3.198 2 4 2 0.802 0 2.602 0.9 4 2 1.398 1.1 3.198 2 4 2 0.802 0 2.602 0.9 4 2 1.398 1.1 3.327 2 4.285 2 0.958 0 2.303 0.675 2.988 1.5 0.685 0.825 1.865 1.5 2.622 1.5 1.082 0 1.378 -2.232 1.378 -10.393 z m 13 8.893 c 0.71 -0.856 2.891 -1.5 5.079 -1.5 3.087 0 4.671 -0.777 8.128 -3.988 2.361 -2.193 5.02 -3.993 5.909 -4 0.888 -0.007 2.759 -0.912 4.158 -2.01 1.398 -1.1 3.198 -2 4 -2 0.802 0 2.602 -0.9 4 -2 1.398 -1.1 3.484 -2 4.635 -2 1.193 0 2.092 -0.645 2.092 -1.5 0 -1.282 -2.824 -1.5 -19.418 -1.5 -10.68 0 -20.13 0.273 -21 0.607 -2.185 0.838 -2.381 21.393 -0.204 21.393 0.758 0 1.938 -0.675 2.622 -1.5 z m 46.808 -14.575 c -0.197 -0.591 -0.786 -1.075 -1.308 -1.075 -0.523 0 -1.111 0.484 -1.308 1.075 -0.197 0.591 0.392 1.075 1.308 1.075 0.917 0 1.505 -0.484 1.308 -1.075 z m -61.02 -11.772 c 0.946 -0.6 1.211 -3.573 1 -11.235 -0.285 -10.339 -0.306 -10.42 -2.839 -10.716 -1.59 -0.185 -3.251 0.475 -4.405 1.75 -1.019 1.126 -2.838 2.047 -4.04 2.047 -1.205 0 -3 0.9 -4 2 -0.995 1.1 -2.795 2 -4 2 -1.205 0 -3 0.9 -4 2 -0.995 1.1 -2.795 2 -4 2 -1.205 0 -3 0.9 -4 2 -0.995 1.1 -2.682 2 -3.747 2 -1.066 0 -3.081 0.9 -4.48 2 -1.398 1.1 -3.355 2 -4.349 2 -1.974 0 -3.245 1.345 -2.23 2.361 0.944 0.944 43.587 0.748 45.09 -0.208 z m 56.713 -0.589 c 0 -0.515 -1.406 -1.301 -3.124 -1.746 -1.718 -0.445 -3.686 -1.486 -4.372 -2.314 -0.746 -0.899 -2.927 -1.504 -5.423 -1.504 -3.553 0 -4.756 -0.596 -8.08 -4 -2.154 -2.206 -4.867 -4 -6.05 -4 -1.178 0 -2.957 -0.9 -3.952 -2 -0.995 -1.1 -2.795 -2 -4 -2 -1.205 0 -3.02 -0.921 -4.04 -2.047 -1.154 -1.275 -2.815 -1.935 -4.405 -1.75 -2.533 0.295 -2.554 0.377 -2.839 10.716 -0.211 7.657 0.054 10.637 1 11.245 1.79 1.15 45.29 0.574 45.29 -0.6 z" style="fill:#00e000"/><path d="m 112.67 192.8 c -0.31 -0.809 -1.821 -1.777 -3.357 -2.152 -1.536 -0.375 -3.866 -1.514 -5.178 -2.53 -1.312 -1.016 -3.041 -1.848 -3.842 -1.848 -0.802 0 -2.602 -0.9 -4 -2 -1.398 -1.1 -3.198 -2 -4 -2 -0.802 0 -2.602 -0.9 -4 -2 -1.398 -1.1 -3.198 -2 -4 -2 -0.802 0 -2.602 -0.9 -4 -2 -1.398 -1.1 -3.198 -2 -4 -2 -0.802 0 -2.602 -0.9 -4 -2 -1.398 -1.1 -3.198 -2 -4 -2 -0.802 0 -2.602 -0.9 -4 -2 -1.398 -1.1 -3.126 -2 -3.838 -2 -0.713 0 -2.883 -1.012 -4.823 -2.25 l -3.527 -2.25 v -31 v -31 l 3.527 -2.25 c 1.94 -1.237 4.326 -2.25 5.303 -2.25 0.977 0 2.59 -0.9 3.586 -2 0.995 -1.1 2.795 -2 4 -2 1.205 0 3 -0.9 4 -2 0.995 -1.1 2.795 -2 4 -2 1.205 0 3 -0.9 4 -2 0.995 -1.1 2.795 -2 4 -2 1.205 0 3 -0.9 4 -2 0.995 -1.1 2.795 -2 4 -2 1.205 0 3 -0.9 4 -2 0.995 -1.1 2.795 -2 4 -2 1.205 0 2.958 -0.848 3.896 -1.885 0.938 -1.037 3.074 -2.159 4.747 -2.493 1.888 -0.378 3.24 -1.369 3.566 -2.615 0.748 -2.86 6.835 -2.86 7.583 0 0.326 1.246 1.678 2.237 3.566 2.615 1.672 0.334 3.809 1.457 4.747 2.493 0.938 1.037 2.692 1.885 3.896 1.885 1.205 0 3 0.9 4 2 0.995 1.1 2.795 2 4 2 1.205 0 3 0.9 4 2 0.995 1.1 2.682 2 3.747 2 1.065 0 3.081 0.9 4.48 2 1.398 1.1 3.312 2 4.253 2 0.941 0 2.525 0.9 3.52 2 0.995 1.1 2.795 2 4 2 1.205 0 3 0.9 4 2 0.995 1.1 2.753 2.01 3.905 2.032 1.152 0.017 3.333 1.121 4.845 2.452 l 2.75 2.42 v 30.596 v 30.596 l -2.75 2.42 c -1.512 1.331 -3.693 2.435 -4.845 2.452 -1.152 0.017 -2.91 0.932 -3.905 2.032 -0.995 1.1 -2.795 2 -4 2 -1.205 0 -3 0.9 -4 2 -0.995 1.1 -2.795 2 -4 2 -1.205 0 -3 0.9 -4 2 -0.995 1.1 -2.795 2 -4 2 -1.205 0 -3 0.9 -4 2 -0.995 1.1 -2.795 2 -4 2 -1.205 0 -3 0.9 -4 2 -0.995 1.1 -3.074 2 -4.62 2 -1.786 0 -3.2 0.728 -3.88 2 -0.589 1.1 -1.955 2 -3.035 2 -1.081 0 -2.865 0.9 -3.965 2 -2.338 2.338 -7.53 2.667 -8.35 0.53 z m -4.879 -8.342 c 0.218 -0.653 -0.317 -1.188 -1.188 -1.188 -0.871 0 -1.583 0.713 -1.583 1.583 0 1.766 2.153 1.458 2.771 -0.396 z m 20.229 0.313 c 0 -0.825 -0.675 -1.5 -1.5 -1.5 -1.562 0 -1.984 1.183 -0.833 2.333 1.151 1.151 2.333 0.728 2.333 -0.833 z m -25 -3.878 c 0 -0.758 -0.675 -1.938 -1.5 -2.622 -0.825 -0.685 -1.5 -2.072 -1.5 -3.084 0 -1.01 -1.8 -3.621 -4 -5.799 -2.2 -2.178 -4 -4.844 -4 -5.925 0 -2.774 -9.09 -12.192 -11.766 -12.192 -1.19 0 -2.646 0.9 -3.234 2 -0.628 1.173 -2.094 2 -3.545 2 -1.361 0 -3.245 0.9 -4.187 2 -0.942 1.1 -2.887 2 -4.324 2 -1.436 0 -2.917 0.306 -3.292 0.681 -1.117 1.117 4.546 6.319 6.879 6.319 1.187 0 2.972 0.9 3.968 2 0.995 1.1 2.795 2 4 2 1.205 0 3 0.9 4 2 0.995 1.1 2.795 2 4 2 1.205 0 3 0.9 4 2 0.995 1.1 2.795 2 4 2 1.205 0 3 0.9 4 2 2.065 2.282 6.5 2.707 6.5 0.622 z m 8.77 -22.692 l -0.27 -22.43 l -2.683 -0.31 c -1.89 -0.218 -3.01 0.299 -3.785 1.75 -0.657 1.228 -2.102 2.06 -3.577 2.06 -1.361 0 -3.245 0.9 -4.187 2 -0.942 1.1 -2.476 2 -3.408 2 -3.733 0 -4.86 1.175 -4.86 5.068 0 3.17 0.71 4.557 4 7.815 2.2 2.178 4 4.878 4 6 0 1.122 1.8 3.822 4 6 2.2 2.178 4 4.809 4 5.846 0 2.447 5.082 8.589 6.19 7.482 0.467 -0.467 0.728 -10.943 0.58 -23.28 z m 16.23 15.895 c 0 -1.047 1.8 -3.776 4 -6.07 2.2 -2.29 4 -4.99 4 -6 0 -1.01 1.8 -3.71 4 -6 3.193 -3.322 4 -4.908 4 -7.854 0 -3.722 -1.173 -4.906 -4.86 -4.906 -0.933 0 -2.467 -0.9 -3.408 -2 -0.942 -1.1 -2.826 -2 -4.187 -2 -1.475 0 -2.92 -0.832 -3.577 -2.06 -0.777 -1.451 -1.895 -1.968 -3.785 -1.75 l -2.683 0.31 l -0.27 21.976 c -0.149 12.09 -0.01 22.655 0.308 23.484 0.446 1.163 1.251 0.737 3.52 -1.862 1.618 -1.853 2.942 -4.226 2.942 -5.272 z m 8.5 6.174 c 0.995 -1.1 2.795 -2 4 -2 1.205 0 3 -0.9 4 -2 0.995 -1.1 2.795 -2 4 -2 1.205 0 3 -0.9 4 -2 0.995 -1.1 2.795 -2 4 -2 1.205 0 3 -0.9 4 -2 0.995 -1.1 2.724 -2 3.841 -2 2.322 0 6.659 -3.695 6.659 -5.674 0 -0.783 -1.138 -1.326 -2.778 -1.326 -1.54 0 -3.541 -0.891 -4.49 -2 -0.942 -1.1 -2.826 -2 -4.187 -2 -1.451 0 -2.917 -0.827 -3.545 -2 -1.838 -3.435 -5.119 -2.393 -10.234 3.25 -2.617 2.887 -4.76 6.05 -4.762 7.04 -0.002 0.984 -1.804 3.662 -4 5.951 -2.2 2.29 -4 4.917 -4 5.839 0 0.922 -0.675 2.236 -1.5 2.921 -0.825 0.685 -1.5 1.865 -1.5 2.622 0 2.084 4.435 1.659 6.5 -0.622 z m -75.73 -24 c 0.687 -1.1 2.15 -2 3.25 -2 1.101 0 2.772 -0.9 3.714 -2 0.942 -1.1 2.753 -2 4.02 -2 2.522 0 8.244 -5.203 8.244 -7.496 0 -0.785 -1.8 -3.209 -4 -5.387 -2.2 -2.178 -4 -4.878 -4 -6 0 -1.122 -1.8 -3.822 -4 -6 -2.2 -2.178 -4 -4.809 -4 -5.846 0 -2.287 -4.907 -8.447 -6.128 -7.692 -1.01 0.623 -1.206 44.753 -0.205 45.754 1.083 1.083 1.779 0.784 3.101 -1.333 z m 115 -20.559 c 0.149 -12.04 0.01 -22.572 -0.308 -23.401 -0.446 -1.163 -1.251 -0.737 -3.52 1.862 -1.618 1.853 -2.942 4.226 -2.942 5.272 0 1.047 -1.8 3.776 -4 6.07 -2.2 2.29 -4 5.01 -4 6.04 0 1.032 -1.8 3.659 -4 5.837 -2.2 2.178 -4 4.602 -4 5.387 0 2.293 5.723 7.496 8.244 7.496 1.271 0 3.082 0.9 4.02 2 0.942 1.1 2.613 2 3.714 2 1.101 0 2.564 0.901 3.252 2 2.721 4.358 3.268 1.178 3.536 -20.562 z m -87.13 4.059 c 0.317 -0.825 1.657 -1.5 2.978 -1.5 1.322 0 3.173 -0.9 4.115 -2 0.942 -1.1 2.476 -2 3.408 -2 3.209 0 4.86 -1.219 4.86 -3.588 0 -1.76 -0.711 -2.548 -2.75 -3.046 -1.513 -0.369 -3.823 -1.503 -5.135 -2.519 -1.312 -1.016 -3.041 -1.848 -3.842 -1.848 -0.802 0 -2.602 -0.9 -4 -2 -1.398 -1.1 -3.198 -2 -4 -2 -0.802 0 -2.602 -0.9 -4 -2 -1.398 -1.1 -3.198 -2 -4 -2 -0.802 0 -2.602 -0.9 -4 -2 -4.391 -3.454 -9.01 -1.518 -4.773 2 0.825 0.685 1.5 2.072 1.5 3.084 0 1.01 1.8 3.621 4 5.799 2.2 2.178 4 4.81 4 5.848 0 2.276 7.722 11.269 9.677 11.269 0.762 0 1.645 -0.675 1.962 -1.5 z m 63.27 -3.389 c 2.251 -2.689 4.093 -5.631 4.093 -6.539 0 -0.907 1.8 -3.523 4 -5.813 2.2 -2.29 4 -4.917 4 -5.839 0 -0.922 0.675 -2.236 1.5 -2.921 4.239 -3.518 -0.382 -5.454 -4.773 -2 -1.398 1.1 -3.198 2 -4 2 -0.802 0 -2.602 0.9 -4 2 -1.398 1.1 -3.198 2 -4 2 -0.802 0 -2.602 0.9 -4 2 -1.398 1.1 -3.264 2 -4.145 2 -0.881 0 -2.373 0.9 -3.315 2 -0.942 1.1 -2.476 2 -3.408 2 -3.179 0 -4.86 1.211 -4.86 3.5 0 2.289 1.681 3.5 4.86 3.5 0.933 0 2.467 0.9 3.408 2 0.942 1.1 2.794 2 4.115 2 1.322 0 2.662 0.675 2.978 1.5 1.021 2.661 3.359 1.611 7.545 -3.389 z m -39.907 -21.504 c 0 -8.555 -0.28 -10.5 -1.582 -11 -0.87 -0.334 -10.32 -0.607 -21 -0.607 -16.594 0 -19.418 0.218 -19.418 1.5 0 0.855 0.899 1.5 2.092 1.5 1.151 0 3.236 0.9 4.635 2 1.398 1.1 3.198 2 4 2 0.802 0 2.602 0.9 4 2 1.398 1.1 3.198 2 4 2 0.802 0 2.602 0.9 4 2 1.398 1.1 3.198 2 4 2 0.802 0 2.602 0.9 4 2 1.398 1.1 3.327 2 4.285 2 0.958 0 2.303 0.675 2.988 1.5 0.685 0.825 1.865 1.5 2.622 1.5 1.082 0 1.378 -2.232 1.378 -10.393 z m 13 8.893 c 0.71 -0.856 2.891 -1.5 5.079 -1.5 3.087 0 4.671 -0.777 8.128 -3.988 2.361 -2.193 5.02 -3.993 5.909 -4 0.888 -0.007 2.759 -0.912 4.158 -2.01 1.398 -1.1 3.198 -2 4 -2 0.802 0 2.602 -0.9 4 -2 1.398 -1.1 3.484 -2 4.635 -2 1.193 0 2.092 -0.645 2.092 -1.5 0 -1.282 -2.824 -1.5 -19.418 -1.5 -10.68 0 -20.13 0.273 -21 0.607 -2.185 0.838 -2.381 21.393 -0.204 21.393 0.758 0 1.938 -0.675 2.622 -1.5 z m -61.19 -14.575 c -0.197 -0.591 -0.786 -1.075 -1.308 -1.075 -0.523 0 -1.111 0.484 -1.308 1.075 -0.197 0.591 0.392 1.075 1.308 1.075 0.917 0 1.505 -0.484 1.308 -1.075 z m 108 0 c -0.197 -0.591 -0.786 -1.075 -1.308 -1.075 -0.523 0 -1.111 0.484 -1.308 1.075 -0.197 0.591 0.392 1.075 1.308 1.075 0.917 0 1.505 -0.484 1.308 -1.075 z m -61.02 -11.772 c 0.946 -0.6 1.211 -3.573 1 -11.235 -0.285 -10.339 -0.306 -10.42 -2.839 -10.716 -1.59 -0.185 -3.251 0.475 -4.405 1.75 -1.019 1.126 -2.838 2.047 -4.04 2.047 -1.205 0 -3 0.9 -4 2 -0.995 1.1 -2.795 2 -4 2 -1.205 0 -3 0.9 -4 2 -0.995 1.1 -2.795 2 -4 2 -1.205 0 -3 0.9 -4 2 -0.995 1.1 -2.682 2 -3.747 2 -1.066 0 -3.081 0.9 -4.48 2 -1.398 1.1 -3.355 2 -4.349 2 -1.974 0 -3.245 1.345 -2.23 2.361 0.944 0.944 43.587 0.748 45.09 -0.208 z m 56.713 -0.589 c 0 -0.515 -1.406 -1.301 -3.124 -1.746 -1.718 -0.445 -3.686 -1.486 -4.372 -2.314 -0.746 -0.899 -2.927 -1.504 -5.423 -1.504 -3.553 0 -4.756 -0.596 -8.08 -4 -2.154 -2.206 -4.867 -4 -6.05 -4 -1.178 0 -2.957 -0.9 -3.952 -2 -0.995 -1.1 -2.795 -2 -4 -2 -1.205 0 -3.02 -0.921 -4.04 -2.047 -1.154 -1.275 -2.815 -1.935 -4.405 -1.75 -2.533 0.295 -2.554 0.377 -2.839 10.716 -0.211 7.657 0.054 10.637 1 11.245 1.79 1.15 45.29 0.574 45.29 -0.6 z" style="fill:#616107"/><path d="m 112.65 192.75 c -0.321 -0.836 -1.904 -1.784 -3.518 -2.107 -1.669 -0.334 -3.141 -1.375 -3.412 -2.413 -0.338 -1.291 -1.609 -1.919 -4.339 -2.143 -2.625 -0.215 -3.861 -0.797 -3.861 -1.817 0 -1 -1.333 -1.667 -4 -2 -2.667 -0.333 -4 -1 -4 -2 0 -1 -1.333 -1.667 -4 -2 -2.667 -0.333 -4 -1 -4 -2 0 -1 -1.333 -1.667 -4 -2 -2.667 -0.333 -4 -1 -4 -2 0 -1 -1.333 -1.667 -4 -2 -2.667 -0.333 -4 -1 -4 -2 0 -0.949 -1.285 -1.689 -3.5 -2.02 -1.925 -0.284 -4.96 -1.409 -6.744 -2.5 l -3.244 -1.984 l 0.036 -31 l 0.036 -31 l 3.527 -2.25 c 1.94 -1.237 4.289 -2.25 5.221 -2.25 0.931 0 2.138 1.013 2.681 2.25 l 0.987 2.25 l 23.5 -0.357 c 13.849 -0.211 24.01 -0.774 24.75 -1.372 0.853 -0.693 1.25 -4.284 1.25 -11.321 0 -11.509 -0.884 -13.449 -6.13 -13.449 -3.737 0 -2.959 -1.532 1.202 -2.364 1.953 -0.391 3.308 -1.37 3.637 -2.629 0.748 -2.86 6.835 -2.86 7.583 0 0.329 1.259 1.684 2.238 3.637 2.629 4.16 0.832 4.939 2.364 1.202 2.364 -5.246 0 -6.13 1.94 -6.13 13.449 0 7.04 0.397 10.628 1.25 11.321 0.737 0.598 10.901 1.162 24.75 1.372 l 23.5 0.357 l 0.987 -2.25 c 1.28 -2.918 4.285 -2.828 7.763 0.234 l 2.75 2.42 v 30.596 v 30.596 l -2.75 2.42 c -1.512 1.331 -3.693 2.435 -4.845 2.452 -1.152 0.017 -2.91 0.932 -3.905 2.032 -0.995 1.1 -2.795 2 -4 2 -1.205 0 -3 0.9 -4 2 -0.995 1.1 -2.795 2 -4 2 -1.205 0 -3 0.9 -4 2 -0.995 1.1 -2.795 2 -4 2 -1.205 0 -3 0.9 -4 2 -0.995 1.1 -2.795 2 -4 2 -1.205 0 -3 0.9 -4 2 -0.995 1.1 -3.074 2 -4.62 2 -1.786 0 -3.2 0.728 -3.88 2 -0.589 1.1 -1.955 2 -3.035 2 -1.081 0 -2.865 0.9 -3.965 2 -2.37 2.37 -7.531 2.666 -8.369 0.48 z m -4.86 -8.292 c 0.218 -0.653 -0.317 -1.188 -1.188 -1.188 -0.871 0 -1.583 0.713 -1.583 1.583 0 1.766 2.153 1.458 2.771 -0.396 z m 20.229 0.313 c 0 -0.825 -0.675 -1.5 -1.5 -1.5 -1.562 0 -1.984 1.183 -0.833 2.333 1.151 1.151 2.333 0.728 2.333 -0.833 z m -25 -3.878 c 0 -0.758 -0.675 -1.938 -1.5 -2.622 -0.825 -0.685 -1.5 -2.072 -1.5 -3.084 0 -1.01 -1.8 -3.621 -4 -5.799 -2.2 -2.178 -4 -4.844 -4 -5.925 0 -2.774 -9.09 -12.192 -11.766 -12.192 -1.19 0 -2.646 0.9 -3.234 2 -0.628 1.173 -2.094 2 -3.545 2 -1.361 0 -3.245 0.9 -4.187 2 -0.942 1.1 -2.887 2 -4.324 2 -1.436 0 -2.917 0.306 -3.292 0.681 -1.117 1.117 4.546 6.319 6.879 6.319 1.187 0 2.972 0.9 3.968 2 0.995 1.1 2.795 2 4 2 1.205 0 3 0.9 4 2 0.995 1.1 2.795 2 4 2 1.205 0 3 0.9 4 2 0.995 1.1 2.795 2 4 2 1.205 0 3 0.9 4 2 2.065 2.282 6.5 2.707 6.5 0.622 z m 8.77 -22.692 l -0.27 -22.43 l -2.683 -0.31 c -1.89 -0.218 -3.01 0.299 -3.785 1.75 -0.657 1.228 -2.102 2.06 -3.577 2.06 -1.361 0 -3.245 0.9 -4.187 2 -0.942 1.1 -2.476 2 -3.408 2 -3.733 0 -4.86 1.175 -4.86 5.068 0 3.17 0.71 4.557 4 7.815 2.2 2.178 4 4.878 4 6 0 1.122 1.8 3.822 4 6 2.2 2.178 4 4.809 4 5.846 0 2.447 5.082 8.589 6.19 7.482 0.467 -0.467 0.728 -10.943 0.58 -23.28 z m 16.23 15.895 c 0 -1.047 1.8 -3.776 4 -6.07 2.2 -2.29 4 -4.99 4 -6 0 -1.01 1.8 -3.71 4 -6 3.193 -3.322 4 -4.908 4 -7.854 0 -3.722 -1.173 -4.906 -4.86 -4.906 -0.933 0 -2.467 -0.9 -3.408 -2 -0.942 -1.1 -2.826 -2 -4.187 -2 -1.475 0 -2.92 -0.832 -3.577 -2.06 -0.777 -1.451 -1.895 -1.968 -3.785 -1.75 l -2.683 0.31 l -0.27 21.976 c -0.149 12.09 -0.01 22.655 0.308 23.484 0.446 1.163 1.251 0.737 3.52 -1.862 1.618 -1.853 2.942 -4.226 2.942 -5.272 z m 8.5 6.174 c 0.995 -1.1 2.795 -2 4 -2 1.205 0 3 -0.9 4 -2 0.995 -1.1 2.795 -2 4 -2 1.205 0 3 -0.9 4 -2 0.995 -1.1 2.795 -2 4 -2 1.205 0 3 -0.9 4 -2 0.995 -1.1 2.724 -2 3.841 -2 2.322 0 6.659 -3.695 6.659 -5.674 0 -0.783 -1.138 -1.326 -2.778 -1.326 -1.54 0 -3.541 -0.891 -4.49 -2 -0.942 -1.1 -2.826 -2 -4.187 -2 -1.451 0 -2.917 -0.827 -3.545 -2 -1.838 -3.435 -5.119 -2.393 -10.234 3.25 -2.617 2.887 -4.76 6.05 -4.762 7.04 -0.002 0.984 -1.804 3.662 -4 5.951 -2.2 2.29 -4 4.917 -4 5.839 0 0.922 -0.675 2.236 -1.5 2.921 -0.825 0.685 -1.5 1.865 -1.5 2.622 0 2.084 4.435 1.659 6.5 -0.622 z m -75.73 -24 c 0.687 -1.1 2.15 -2 3.25 -2 1.101 0 2.772 -0.9 3.714 -2 0.942 -1.1 2.753 -2 4.02 -2 2.522 0 8.244 -5.203 8.244 -7.496 0 -0.785 -1.8 -3.209 -4 -5.387 -2.2 -2.178 -4 -4.878 -4 -6 0 -1.122 -1.8 -3.822 -4 -6 -2.2 -2.178 -4 -4.809 -4 -5.846 0 -2.287 -4.907 -8.447 -6.128 -7.692 -1.01 0.623 -1.206 44.753 -0.205 45.754 1.083 1.083 1.779 0.784 3.101 -1.333 z m 115 -20.559 c 0.149 -12.04 0.01 -22.572 -0.308 -23.401 -0.446 -1.163 -1.251 -0.737 -3.52 1.862 -1.618 1.853 -2.942 4.226 -2.942 5.272 0 1.047 -1.8 3.776 -4 6.07 -2.2 2.29 -4 5.01 -4 6.04 0 1.032 -1.8 3.659 -4 5.837 -2.2 2.178 -4 4.602 -4 5.387 0 2.293 5.723 7.496 8.244 7.496 1.271 0 3.082 0.9 4.02 2 0.942 1.1 2.613 2 3.714 2 1.101 0 2.564 0.901 3.252 2 2.721 4.358 3.268 1.178 3.536 -20.562 z m -87.13 4.059 c 0.317 -0.825 1.657 -1.5 2.978 -1.5 1.322 0 3.173 -0.9 4.115 -2 0.942 -1.1 2.476 -2 3.408 -2 3.209 0 4.86 -1.219 4.86 -3.588 0 -1.76 -0.711 -2.548 -2.75 -3.046 -1.513 -0.369 -3.823 -1.503 -5.135 -2.519 -1.312 -1.016 -3.041 -1.848 -3.842 -1.848 -0.802 0 -2.602 -0.9 -4 -2 -1.398 -1.1 -3.198 -2 -4 -2 -0.802 0 -2.602 -0.9 -4 -2 -1.398 -1.1 -3.198 -2 -4 -2 -0.802 0 -2.602 -0.9 -4 -2 -4.391 -3.454 -9.01 -1.518 -4.773 2 0.825 0.685 1.5 2.072 1.5 3.084 0 1.01 1.8 3.621 4 5.799 2.2 2.178 4 4.81 4 5.848 0 2.276 7.722 11.269 9.677 11.269 0.762 0 1.645 -0.675 1.962 -1.5 z m 63.27 -3.389 c 2.251 -2.689 4.093 -5.631 4.093 -6.539 0 -0.907 1.8 -3.523 4 -5.813 2.2 -2.29 4 -4.917 4 -5.839 0 -0.922 0.675 -2.236 1.5 -2.921 4.239 -3.518 -0.382 -5.454 -4.773 -2 -1.398 1.1 -3.198 2 -4 2 -0.802 0 -2.602 0.9 -4 2 -1.398 1.1 -3.198 2 -4 2 -0.802 0 -2.602 0.9 -4 2 -1.398 1.1 -3.264 2 -4.145 2 -0.881 0 -2.373 0.9 -3.315 2 -0.942 1.1 -2.476 2 -3.408 2 -3.179 0 -4.86 1.211 -4.86 3.5 0 2.289 1.681 3.5 4.86 3.5 0.933 0 2.467 0.9 3.408 2 0.942 1.1 2.794 2 4.115 2 1.322 0 2.662 0.675 2.978 1.5 1.021 2.661 3.359 1.611 7.545 -3.389 z m -38.13 -20.713 c 0.205 -8.102 -0.065 -11.383 -1 -12.144 -0.764 -0.621 -9.716 -1.186 -22.17 -1.398 -18.649 -0.318 -21 -0.177 -21.942 1.31 -1.375 2.179 0.73 4.834 3.832 4.834 1.24 0 2.791 0.646 3.447 1.436 0.655 0.79 2.479 1.719 4.053 2.064 1.574 0.346 3.374 1.246 4 2 0.626 0.754 2.426 1.654 4 2 1.574 0.346 3.374 1.246 4 2 0.626 0.754 2.426 1.654 4 2 1.574 0.346 3.374 1.246 4 2 0.626 0.754 2.488 1.668 4.137 2.03 1.649 0.362 3.251 1.315 3.559 2.118 0.342 0.89 1.583 1.341 3.182 1.156 l 2.622 -0.304 l 0.281 -11.1 z m 12.257 9.563 c 1.455 -1.455 3.134 -1.974 5.866 -1.812 3.282 0.194 4.28 -0.29 7 -3.391 1.747 -1.99 4.476 -3.903 6.07 -4.252 1.589 -0.349 3.401 -1.252 4.03 -2.01 0.626 -0.754 2.426 -1.654 4 -2 1.574 -0.346 3.398 -1.275 4.053 -2.064 0.655 -0.79 2.206 -1.436 3.447 -1.436 3.102 0 5.207 -2.655 3.832 -4.834 -0.939 -1.487 -3.293 -1.628 -21.942 -1.31 -12.1 0.206 -21.416 0.784 -22.14 1.372 -1.332 1.083 -1.856 21.832 -0.583 23.1 1.299 1.299 4.36 0.64 6.372 -1.372 z m -62.23 -16.04 c -0.197 -0.591 -0.786 -1.075 -1.308 -1.075 -0.523 0 -1.111 0.484 -1.308 1.075 -0.197 0.591 0.392 1.075 1.308 1.075 0.917 0 1.505 -0.484 1.308 -1.075 z m 108 0 c -0.197 -0.591 -0.786 -1.075 -1.308 -1.075 -0.523 0 -1.111 0.484 -1.308 1.075 -0.197 0.591 0.392 1.075 1.308 1.075 0.917 0 1.505 -0.484 1.308 -1.075 z m -105.81 -16.925 c 0 -0.55 1.152 -1 2.559 -1 1.451 0 2.292 0.433 1.941 1 -0.34 0.55 -1.491 1 -2.559 1 -1.068 0 -1.941 -0.45 -1.941 -1 z m 96.5 0 c -0.351 -0.567 0.49 -1 1.941 -1 1.407 0 2.559 0.45 2.559 1 0 0.55 -0.873 1 -1.941 1 -1.068 0 -2.219 -0.45 -2.559 -1 z m -89 -4 c 0.34 -0.55 1.743 -1 3.118 -1 1.412 0 2.231 0.435 1.882 1 -0.34 0.55 -1.743 1 -3.118 1 -1.412 0 -2.231 -0.435 -1.882 -1 z m 74.67 -1.314 c -1.196 -1.273 -2.174 -2.623 -2.174 -3 0 -1.438 4.294 -0.599 6.727 1.314 1.398 1.1 3.355 2 4.349 2 0.993 0 2.084 0.45 2.424 1 0.38 0.615 -1.265 1 -4.267 1 -3.813 0 -5.362 -0.508 -7.06 -2.314 z m -66.67 -2.686 c 0.34 -0.55 1.743 -1 3.118 -1 1.412 0 2.231 0.435 1.882 1 -0.34 0.55 -1.743 1 -3.118 1 -1.412 0 -2.231 -0.435 -1.882 -1 z m 8 -4 c 0.34 -0.55 1.743 -1 3.118 -1 1.412 0 2.231 0.435 1.882 1 -0.34 0.55 -1.743 1 -3.118 1 -1.412 0 -2.231 -0.435 -1.882 -1 z m 49 0 c -0.349 -0.565 0.47 -1 1.882 -1 1.375 0 2.778 0.45 3.118 1 0.349 0.565 -0.47 1 -1.882 1 -1.375 0 -2.778 -0.45 -3.118 -1 z m -41 -4 c 0.34 -0.55 1.743 -1 3.118 -1 1.412 0 2.231 0.435 1.882 1 -0.34 0.55 -1.743 1 -3.118 1 -1.412 0 -2.231 -0.435 -1.882 -1 z m 33 0 c -0.349 -0.565 0.47 -1 1.882 -1 1.375 0 2.778 0.45 3.118 1 0.349 0.565 -0.47 1 -1.882 1 -1.375 0 -2.778 -0.45 -3.118 -1 z" style="fill:#602827"/><path d="m 113.5 192.02 c -0.551 -1.257 -2.076 -2.404 -3.454 -2.598 -1.357 -0.191 -3.555 -1.204 -4.885 -2.25 -1.33 -1.046 -3.074 -1.902 -3.875 -1.902 -0.802 0 -2.602 -0.9 -4 -2 -1.398 -1.1 -3.198 -2 -4 -2 -0.802 0 -2.602 -0.9 -4 -2 -1.398 -1.1 -3.198 -2 -4 -2 -0.802 0 -2.602 -0.9 -4 -2 -1.398 -1.1 -3.198 -2 -4 -2 -0.802 0 -2.602 -0.9 -4 -2 -1.398 -1.1 -3.198 -2 -4 -2 -0.802 0 -2.602 -0.9 -4 -2 -1.398 -1.1 -3.312 -2 -4.253 -2 -0.941 0 -2.525 -0.9 -3.52 -2 -0.995 -1.1 -2.64 -2 -3.655 -2 -1.753 0 -1.845 -1.521 -1.845 -30.5 0 -28.979 0.092 -30.5 1.845 -30.5 1.015 0 2.66 -0.9 3.655 -2 2.23 -2.464 4.375 -2.553 6.06 -0.25 1.17 1.599 3.3 1.719 24.61 1.393 13.733 -0.21 23.844 -0.775 24.58 -1.372 2.01 -1.635 1.707 -21.17 -0.365 -23.24 -1.487 -1.487 -1.487 -1.757 0 -3.4 0.888 -0.982 1.615 -2.537 1.615 -3.456 0 -1.116 0.831 -1.671 2.5 -1.671 1.669 0 2.5 0.555 2.5 1.671 0 0.919 0.727 2.474 1.615 3.456 1.487 1.643 1.487 1.913 0 3.4 -2.072 2.072 -2.379 21.607 -0.365 23.24 0.736 0.598 10.846 1.162 24.58 1.372 21.31 0.326 23.44 0.206 24.61 -1.393 1.685 -2.303 3.83 -2.214 6.06 0.25 0.995 1.1 2.415 2 3.155 2 1.097 0 1.345 5.618 1.345 30.5 0 22.849 -0.297 30.5 -1.186 30.5 -0.652 0 -2.195 0.948 -3.429 2.107 -4.098 3.85 -5.094 1.523 -1.106 -2.584 l 3.72 -3.83 v -22.16 v -22.16 l -3.369 -3.787 c -2.956 -3.323 -3.63 -3.647 -5.5 -2.646 -1.172 0.627 -2.131 1.575 -2.131 2.105 0 0.531 -0.813 0.965 -1.806 0.965 -0.993 0 -3.331 1.125 -5.194 2.5 -1.864 1.375 -4.02 2.5 -4.787 2.5 -0.769 0 -2.542 0.9 -3.941 2 -1.398 1.1 -3.175 2 -3.948 2 -0.773 0 -2.695 0.953 -4.27 2.118 -1.575 1.165 -3.391 1.792 -4.03 1.395 -1.689 -1.044 2.53 -5.255 6.04 -6.02 1.543 -0.339 3.318 -1.233 3.944 -1.988 0.626 -0.754 2.426 -1.654 4 -2 1.574 -0.346 3.398 -1.275 4.053 -2.064 0.655 -0.79 2.206 -1.436 3.447 -1.436 3.102 0 5.207 -2.655 3.832 -4.834 -0.939 -1.487 -3.293 -1.628 -21.942 -1.31 -12.455 0.212 -21.408 0.777 -22.17 1.398 -0.935 0.761 -1.205 4.04 -1 12.144 0.268 10.558 0.389 11.12 2.47 11.413 1.234 0.176 3.113 -0.613 4.309 -1.809 1.471 -1.471 3.099 -2.026 5.311 -1.811 3.62 0.351 3.943 2.132 0.481 2.655 -3.247 0.49 -4.79 2.028 -4.79 4.777 0 1.851 -0.538 2.378 -2.429 2.378 -5.298 0 -5.571 1.248 -5.571 25.391 v 22.248 l 3 3.36 c 3.593 4.02 3.7 4.762 0.75 5.18 -1.237 0.176 -2.694 1.332 -3.237 2.57 -0.556 1.268 -1.871 2.25 -3.01 2.25 -1.142 0 -2.457 -0.982 -3.01 -2.25 z m -5.716 -7.563 c 0.218 -0.653 -0.317 -1.188 -1.188 -1.188 -0.871 0 -1.583 0.713 -1.583 1.583 0 1.766 2.153 1.458 2.771 -0.396 z m -4.771 -3.565 c 0 -0.758 -0.675 -1.938 -1.5 -2.622 -0.825 -0.685 -1.5 -2.072 -1.5 -3.084 0 -1.01 -1.8 -3.621 -4 -5.799 -2.2 -2.178 -4 -4.844 -4 -5.925 0 -2.774 -9.09 -12.192 -11.766 -12.192 -1.19 0 -2.646 0.9 -3.234 2 -0.628 1.173 -2.094 2 -3.545 2 -1.361 0 -3.245 0.9 -4.187 2 -0.942 1.1 -2.887 2 -4.324 2 -1.436 0 -2.917 0.306 -3.292 0.681 -1.117 1.117 4.546 6.319 6.879 6.319 1.187 0 2.972 0.9 3.968 2 0.995 1.1 2.795 2 4 2 1.205 0 3 0.9 4 2 0.995 1.1 2.795 2 4 2 1.205 0 3 0.9 4 2 0.995 1.1 2.795 2 4 2 1.205 0 3 0.9 4 2 2.065 2.282 6.5 2.707 6.5 0.622 z m 8.77 -22.692 l -0.27 -22.43 l -2.683 -0.31 c -1.89 -0.218 -3.01 0.299 -3.785 1.75 -0.657 1.228 -2.102 2.06 -3.577 2.06 -1.361 0 -3.245 0.9 -4.187 2 -0.942 1.1 -2.476 2 -3.408 2 -3.733 0 -4.86 1.175 -4.86 5.068 0 3.17 0.71 4.557 4 7.815 2.2 2.178 4 4.878 4 6 0 1.122 1.8 3.822 4 6 2.2 2.178 4 4.809 4 5.846 0 2.447 5.082 8.589 6.19 7.482 0.467 -0.467 0.728 -10.943 0.58 -23.28 z m -51 -1.93 c 0.687 -1.1 2.15 -2 3.25 -2 1.101 0 2.772 -0.9 3.714 -2 0.942 -1.1 2.753 -2 4.02 -2 2.522 0 8.244 -5.203 8.244 -7.496 0 -0.785 -1.8 -3.209 -4 -5.387 -2.2 -2.178 -4 -4.878 -4 -6 0 -1.122 -1.8 -3.822 -4 -6 -2.2 -2.178 -4 -4.809 -4 -5.846 0 -2.287 -4.907 -8.447 -6.128 -7.692 -1.01 0.623 -1.206 44.753 -0.205 45.754 1.083 1.083 1.779 0.784 3.101 -1.333 z m 27.87 -16.5 c 0.317 -0.825 1.657 -1.5 2.978 -1.5 1.322 0 3.173 -0.9 4.115 -2 0.942 -1.1 2.476 -2 3.408 -2 3.209 0 4.86 -1.219 4.86 -3.588 0 -1.76 -0.711 -2.548 -2.75 -3.046 -1.513 -0.369 -3.823 -1.503 -5.135 -2.519 -1.312 -1.016 -3.041 -1.848 -3.842 -1.848 -0.802 0 -2.602 -0.9 -4 -2 -1.398 -1.1 -3.198 -2 -4 -2 -0.802 0 -2.602 -0.9 -4 -2 -1.398 -1.1 -3.198 -2 -4 -2 -0.802 0 -2.602 -0.9 -4 -2 -4.391 -3.454 -9.01 -1.518 -4.773 2 0.825 0.685 1.5 2.072 1.5 3.084 0 1.01 1.8 3.621 4 5.799 2.2 2.178 4 4.81 4 5.848 0 2.276 7.722 11.269 9.677 11.269 0.762 0 1.645 -0.675 1.962 -1.5 z m 25.14 -24.1 c 0.205 -8.102 -0.065 -11.383 -1 -12.144 -1.545 -1.257 -41.702 -2.129 -43.531 -0.945 -3.02 1.957 -0.778 5.691 3.424 5.691 0.831 0 2.655 0.9 4.053 2 1.398 1.1 3.198 2 4 2 0.802 0 2.602 0.9 4 2 1.398 1.1 3.198 2 4 2 0.802 0 2.602 0.9 4 2 1.398 1.1 3.198 2 4 2 0.802 0 2.602 0.9 4 2 1.398 1.1 3.396 2 4.439 2 1.043 0 2.165 0.699 2.493 1.554 0.378 0.984 1.558 1.443 3.219 1.25 l 2.622 -0.304 l 0.281 -11.1 z m -49.973 -6.473 c -0.197 -0.591 -0.786 -1.075 -1.308 -1.075 -0.523 0 -1.111 0.484 -1.308 1.075 -0.197 0.591 0.392 1.075 1.308 1.075 0.917 0 1.505 -0.484 1.308 -1.075 z m 65.6 66.69 c -0.652 -1.699 0.224 -3.611 1.655 -3.611 1.261 0 1.207 3.718 -0.066 4.504 -0.554 0.342 -1.269 -0.06 -1.589 -0.893 z m 7.762 -12.672 c 0.184 -1.256 0.935 -2.481 1.668 -2.723 0.907 -0.299 1.227 0.292 1 1.843 -0.184 1.256 -0.935 2.481 -1.668 2.723 -0.907 0.299 -1.227 -0.292 -1 -1.843 z m 29.528 -5.579 c -0.933 -0.933 0.195 -2.361 1.865 -2.361 0.793 0 1.441 0.675 1.441 1.5 0 1.506 -2.111 2.056 -3.306 0.861 z m -8.198 -4.368 c -0.759 -1.229 1.993 -2.427 3.473 -1.512 0.585 0.362 0.805 1.077 0.489 1.589 -0.763 1.235 -3.18 1.188 -3.962 -0.076 z m -12.786 -0.725 c -1.084 -1.933 0.691 -8.295 2.891 -10.362 2.345 -2.203 2.4 -2.208 2.4 -0.215 0 1.122 0.933 3.225 2.073 4.674 2.01 2.56 2.02 2.635 0.135 2.635 -1.066 0 -3.092 0.908 -4.503 2.02 -1.411 1.11 -2.759 1.672 -2.995 1.25 z m -7.214 -11.275 c -0.759 -1.229 1.993 -2.427 3.473 -1.512 0.585 0.362 0.805 1.077 0.489 1.589 -0.763 1.235 -3.18 1.188 -3.962 -0.076 z m -8 -4 c -0.759 -1.229 1.993 -2.427 3.473 -1.512 0.585 0.362 0.805 1.077 0.489 1.589 -0.763 1.235 -3.18 1.188 -3.962 -0.076 z m 26.67 -6.05 c 0.184 -1.256 0.935 -2.481 1.668 -2.723 0.906 -0.299 1.227 0.292 1 1.843 -0.184 1.256 -0.935 2.481 -1.668 2.723 -0.906 0.299 -1.227 -0.292 -1 -1.843 z m 8 -12.08 c 0.184 -1.299 0.784 -2.249 1.334 -2.111 1.476 0.369 1.215 3.511 -0.334 4.03 -0.915 0.305 -1.229 -0.298 -1 -1.917 z m -16.511 -31.69 c -3.517 -3.887 -0.285 -4.535 3.345 -0.671 2.254 2.399 2.267 2.5 0.329 2.5 -1.111 0 -2.764 -0.823 -3.674 -1.829 z" style="fill:#036003"/><path d="m 113.5 192.03 c -0.582 -1.326 -2.155 -2.453 -3.836 -2.75 l -2.849 -0.503 l 3.599 -3.7 l 3.599 -3.7 v -22.478 c 0 -24.393 -0.267 -25.621 -5.571 -25.621 -1.868 0 -2.429 -0.531 -2.429 -2.3 0 -2.705 -1.726 -4.7 -4.065 -4.7 -0.916 0 -2.738 -0.838 -4.05 -1.862 -1.312 -1.024 -3.51 -2.203 -4.885 -2.618 -1.375 -0.416 -3.175 -1.324 -4 -2.02 -0.825 -0.695 -2.625 -1.595 -4 -2 -1.375 -0.405 -3.175 -1.305 -4 -2 -0.825 -0.695 -2.625 -1.604 -4 -2.02 -1.375 -0.416 -3.573 -1.594 -4.885 -2.618 -1.312 -1.024 -3.116 -1.862 -4.01 -1.862 -0.894 0 -2.187 -0.9 -2.874 -2 -1.742 -2.79 -3.03 -2.519 -6.881 1.45 l -3.351 3.45 v 22.617 v 22.617 l 3.75 3.576 c 2.499 2.383 3.309 3.731 2.429 4.04 -0.727 0.255 -2.331 -0.484 -3.564 -1.643 -1.234 -1.159 -3 -2.107 -3.929 -2.107 -1.544 0 -1.686 -2.563 -1.686 -30.5 0 -28.979 0.092 -30.5 1.845 -30.5 1.015 0 2.66 -0.9 3.655 -2 2.23 -2.464 4.375 -2.553 6.06 -0.25 1.17 1.599 3.3 1.719 24.61 1.393 13.733 -0.21 23.844 -0.775 24.58 -1.372 2.01 -1.635 1.707 -21.17 -0.365 -23.24 -1.487 -1.487 -1.487 -1.757 0 -3.4 0.888 -0.982 1.615 -2.537 1.615 -3.456 0 -1.116 0.831 -1.671 2.5 -1.671 1.669 0 2.5 0.555 2.5 1.671 0 0.919 0.727 2.474 1.615 3.456 1.487 1.643 1.487 1.913 0 3.4 -2.072 2.072 -2.379 21.607 -0.365 23.24 0.736 0.598 10.846 1.162 24.58 1.372 21.31 0.326 23.44 0.206 24.61 -1.393 1.685 -2.303 3.83 -2.214 6.06 0.25 0.995 1.1 2.415 2 3.155 2 1.097 0 1.345 5.618 1.345 30.5 0 22.849 -0.297 30.5 -1.186 30.5 -0.652 0 -2.195 0.948 -3.429 2.107 -4.098 3.85 -5.094 1.523 -1.106 -2.584 l 3.72 -3.83 v -22.16 v -22.16 l -3.369 -3.787 c -2.956 -3.323 -3.63 -3.647 -5.5 -2.646 -1.172 0.627 -2.131 1.575 -2.131 2.105 0 0.531 -0.813 0.965 -1.806 0.965 -0.993 0 -3.331 1.125 -5.194 2.5 -1.864 1.375 -4.02 2.5 -4.787 2.5 -0.769 0 -2.542 0.9 -3.941 2 -1.398 1.1 -3.175 2 -3.948 2 -0.773 0 -2.695 0.953 -4.27 2.118 -1.575 1.165 -3.391 1.792 -4.03 1.395 -1.689 -1.044 2.53 -5.255 6.04 -6.02 1.543 -0.339 3.318 -1.233 3.944 -1.988 0.626 -0.754 2.426 -1.654 4 -2 1.574 -0.346 3.398 -1.275 4.053 -2.064 0.655 -0.79 2.206 -1.436 3.447 -1.436 3.102 0 5.207 -2.655 3.832 -4.834 -0.939 -1.487 -3.293 -1.628 -21.942 -1.31 -12.455 0.212 -21.408 0.777 -22.17 1.398 -0.935 0.761 -1.205 4.04 -1 12.144 0.268 10.558 0.389 11.12 2.47 11.413 1.234 0.176 3.113 -0.613 4.309 -1.809 1.471 -1.471 3.099 -2.026 5.311 -1.811 3.62 0.351 3.943 2.132 0.481 2.655 -3.247 0.49 -4.79 2.028 -4.79 4.777 0 1.851 -0.538 2.378 -2.429 2.378 -5.298 0 -5.571 1.248 -5.571 25.391 v 22.248 l 3 3.36 c 3.593 4.02 3.7 4.762 0.75 5.18 -1.237 0.176 -2.694 1.332 -3.237 2.57 -1.279 2.916 -4.746 2.917 -6.03 0.003 z m 0.294 -76.35 c 0.205 -8.102 -0.065 -11.383 -1 -12.144 -1.545 -1.257 -41.702 -2.129 -43.531 -0.945 -3.02 1.957 -0.778 5.691 3.424 5.691 0.831 0 2.655 0.9 4.053 2 1.398 1.1 3.198 2 4 2 0.802 0 2.602 0.9 4 2 1.398 1.1 3.198 2 4 2 0.802 0 2.602 0.9 4 2 1.398 1.1 3.198 2 4 2 0.802 0 2.602 0.9 4 2 1.398 1.1 3.396 2 4.439 2 1.043 0 2.165 0.699 2.493 1.554 0.378 0.984 1.558 1.443 3.219 1.25 l 2.622 -0.304 l 0.281 -11.1 z m -21.969 64.918 c 0.722 -0.289 1.584 -0.253 1.917 0.079 0.332 0.332 -0.258 0.569 -1.313 0.525 -1.165 -0.048 -1.402 -0.285 -0.604 -0.604 z m -8 -4 c 0.722 -0.289 1.584 -0.253 1.917 0.079 0.332 0.332 -0.258 0.569 -1.313 0.525 -1.165 -0.048 -1.402 -0.285 -0.604 -0.604 z m 17.588 -0.717 c -0.366 -0.954 -0.171 -2.229 0.434 -2.834 0.8 -0.8 1.282 -0.627 1.766 0.634 0.366 0.954 0.171 2.229 -0.434 2.834 -0.8 0.8 -1.282 0.627 -1.766 -0.634 z m 28 0.011 c -0.652 -1.699 0.224 -3.611 1.655 -3.611 1.261 0 1.207 3.718 -0.066 4.504 -0.554 0.342 -1.269 -0.06 -1.589 -0.893 z m -53.592 -3.294 c 0.722 -0.289 1.584 -0.253 1.917 0.079 0.332 0.332 -0.258 0.569 -1.313 0.525 -1.165 -0.048 -1.402 -0.285 -0.604 -0.604 z m -8 -4 c 0.722 -0.289 1.584 -0.253 1.917 0.079 0.332 0.332 -0.258 0.569 -1.313 0.525 -1.165 -0.048 -1.402 -0.285 -0.604 -0.604 z m 25.588 -4.717 c -0.366 -0.954 -0.171 -2.229 0.434 -2.834 0.8 -0.8 1.282 -0.627 1.766 0.634 0.366 0.954 0.171 2.229 -0.434 2.834 -0.8 0.8 -1.282 0.627 -1.766 -0.634 z m 43.766 -0.66 c 0.184 -1.256 0.935 -2.481 1.668 -2.723 0.907 -0.299 1.227 0.292 1 1.843 -0.184 1.256 -0.935 2.481 -1.668 2.723 -0.907 0.299 -1.227 -0.292 -1 -1.843 z m -73.71 -6.01 c -0.92 -1.489 0.147 -2.299 2.061 -1.564 0.884 0.339 1.326 1.07 0.984 1.624 -0.811 1.312 -2.215 1.284 -3.045 -0.06 z m 103.23 0.427 c -0.933 -0.933 0.195 -2.361 1.865 -2.361 0.793 0 1.441 0.675 1.441 1.5 0 1.506 -2.111 2.056 -3.306 0.861 z m -96.2 -4.368 c -0.759 -1.229 1.993 -2.427 3.473 -1.512 0.585 0.362 0.805 1.077 0.489 1.589 -0.763 1.235 -3.18 1.188 -3.962 -0.076 z m 88 0 c -0.759 -1.229 1.993 -2.427 3.473 -1.512 0.585 0.362 0.805 1.077 0.489 1.589 -0.763 1.235 -3.18 1.188 -3.962 -0.076 z m -73.901 -1.876 c -1.048 -1.164 -3.039 -2.117 -4.424 -2.117 h -2.519 l 2.174 -2.314 c 1.196 -1.273 2.174 -3.4 2.174 -4.727 v -2.413 l 2.565 2.565 c 2.101 2.101 2.508 3.34 2.25 6.844 l -0.315 4.278 l -1.905 -2.117 z m 61.11 1.151 c -1.084 -1.933 0.691 -8.295 2.891 -10.362 2.345 -2.203 2.4 -2.208 2.4 -0.215 0 1.122 0.933 3.225 2.073 4.674 2.01 2.56 2.02 2.635 0.135 2.635 -1.066 0 -3.092 0.908 -4.503 2.02 -1.411 1.11 -2.759 1.672 -2.995 1.25 z m -55.21 -11.275 c -0.759 -1.229 1.993 -2.427 3.473 -1.512 0.585 0.362 0.805 1.077 0.489 1.589 -0.763 1.235 -3.18 1.188 -3.962 -0.076 z m 48 0 c -0.759 -1.229 1.993 -2.427 3.473 -1.512 0.585 0.362 0.805 1.077 0.489 1.589 -0.763 1.235 -3.18 1.188 -3.962 -0.076 z m -40 -4 c -0.759 -1.229 1.993 -2.427 3.473 -1.512 0.585 0.362 0.805 1.077 0.489 1.589 -0.763 1.235 -3.18 1.188 -3.962 -0.076 z m 32 0 c -0.759 -1.229 1.993 -2.427 3.473 -1.512 0.585 0.362 0.805 1.077 0.489 1.589 -0.763 1.235 -3.18 1.188 -3.962 -0.076 z m -57.1 -5.393 c -0.366 -0.954 -0.171 -2.229 0.434 -2.834 0.8 -0.8 1.282 -0.627 1.766 0.634 0.366 0.954 0.171 2.229 -0.434 2.834 -0.8 0.8 -1.282 0.627 -1.766 -0.634 z m 83.77 -0.66 c 0.184 -1.256 0.935 -2.481 1.668 -2.723 0.906 -0.299 1.227 0.292 1 1.843 -0.184 1.256 -0.935 2.481 -1.668 2.723 -0.906 0.299 -1.227 -0.292 -1 -1.843 z m -91.77 -11.34 c -0.366 -0.954 -0.171 -2.229 0.434 -2.834 0.8 -0.8 1.282 -0.627 1.766 0.634 0.366 0.954 0.171 2.229 -0.434 2.834 -0.8 0.8 -1.282 0.627 -1.766 -0.634 z m 99.77 -0.739 c 0.184 -1.299 0.784 -2.249 1.334 -2.111 1.476 0.369 1.215 3.511 -0.334 4.03 -0.915 0.305 -1.229 -0.298 -1 -1.917 z m -16.511 -31.69 c -3.517 -3.887 -0.285 -4.535 3.345 -0.671 2.254 2.399 2.267 2.5 0.329 2.5 -1.111 0 -2.764 -0.823 -3.674 -1.829 z" style="fill:#121404"/></g><g transform="matrix(0.9796 0 0 1.01298 3.399 -1.975)" style="fill:#fff;fill-rule:evenodd"><g style="stroke:#ff4500"><g style="stroke-width:5.938"><path d="m 72.12 97.86 c 0.376 -0.608 1.194 -1.105 1.82 -1.105 1.132 0 12.996 -5.622 16.09 -7.626 0.895 -0.579 2.847 -1.54 4.339 -2.135 1.492 -0.595 3.444 -1.545 4.339 -2.112 0.895 -0.567 2.928 -1.666 4.517 -2.443 1.589 -0.777 6.144 -3.085 10.122 -5.13 5.996 -3.082 7.403 -3.453 8.232 -2.169 0.55 0.852 0.876 6.43 0.725 12.396 l -0.275 10.847 l -25.297 0.291 c -16.968 0.195 -25.07 -0.072 -24.614 -0.814 z"/><path d="m 86.78 95.24 c 0 -1.084 30.562 -16.01 31.29 -15.281 0.74 0.74 0.801 13.3 0.068 13.965 -0.771 0.699 -31.359 1.983 -31.359 1.316 z"/><path d="m 107.93 88.22 c 6.234 -2.883 6.524 -2.92 6.875 -0.883 0.505 2.932 -1.602 3.972 -7.959 3.929 l -5.424 -0.037 l 6.508 -3.01 z"/><path d="m 135.23 98.21 c -1.09 -1.09 -0.836 -21.283 0.29 -23.06 0.811 -1.281 2.228 -0.907 8.211 2.169 3.977 2.045 9.01 4.627 11.177 5.738 2.171 1.111 5.878 3.674 8.239 5.695 2.795 2.392 5.455 3.691 7.623 3.723 1.832 0.027 5.476 1.172 8.099 2.544 4.473 2.34 4.608 2.538 2.169 3.19 -3.458 0.925 -44.884 0.927 -45.809 0.002 z"/><path d="m 139.66 94.93 c -1.557 -0.407 -1.898 -1.737 -1.898 -7.403 0 -3.799 0.469 -7.197 1.042 -7.551 1.355 -0.837 11.639 4.408 21.01 10.716 l 7.407 4.986 l -12.831 -0.126 c -7.06 -0.069 -13.685 -0.349 -14.729 -0.622 z"/><path d="m 145.63 91.63 c -4.285 -0.386 -4.61 -0.64 -4.61 -3.607 0 -1.756 0.366 -3.186 0.814 -3.178 0.447 0.007 3.742 1.701 7.322 3.764 6.81 3.924 6.779 3.95 -3.525 3.02 z"/><path d="m 157.94 106.53 c -19.17 0 -22.21 0.232 -22.781 1.719 c -0.362 0.944 -0.656 6.287 -0.656 11.906 c 0 5.619 0.365 10.207 0.813 10.188 c 0.447 -0.019 1.779 -0.749 2.938 -1.625 c 1.158 -0.876 3.432 -1.594 5.063 -1.594 c 1.706 0 5.04 -1.576 7.844 -3.719 c 5.608 -4.281 24.999 -14.719 27.344 -14.719 c 0.866 0 1.563 -0.497 1.563 -1.094 c 0 -0.688 -8.101 -1.063 -22.12 -1.063 z"/><path d="m 137.98 118.32 c 0.294 -4.059 1.062 -6.915 2.025 -7.524 1.428 -0.904 26.889 -1.514 25.868 -0.619 -2.667 2.336 -21.377 12.756 -24.405 13.592 l -3.961 1.094 l 0.473 -6.542 z"/></g><g style="stroke-width:1.965"><path d="m 140.92 120.2 c 0 -1.472 0.854 -6.03 1.192 -6.367 0.269 -0.266 2.716 -0.507 6.705 -0.661 5.659 -0.218 6.209 -0.189 5.543 0.301 -0.949 0.698 -12.814 7.06 -13.171 7.06 -0.148 0.001 -0.269 -0.148 -0.269 -0.332 z"/><path d="m 142.54 116.85 c 0.136 -0.839 0.401 -1.687 0.588 -1.885 0.187 -0.197 1.826 -0.409 3.642 -0.47 l 3.303 -0.111 l -1.174 0.738 c -1.37 0.861 -6.07 3.253 -6.387 3.253 -0.121 0 -0.108 -0.687 0.028 -1.526 z"/><path d="m 119.25 129.35 c -1.172 -0.91 -2.656 -1.72 -3.398 -1.854 -1.597 -0.289 -2.845 -0.899 -5.463 -2.672 -1.096 -0.742 -2.865 -1.608 -3.931 -1.924 -1.066 -0.317 -3.163 -1.379 -4.659 -2.362 -1.496 -0.982 -3.482 -2.02 -4.413 -2.296 -0.931 -0.28 -2.954 -1.318 -4.495 -2.307 -1.541 -0.989 -3.521 -1.986 -4.399 -2.217 -0.878 -0.231 -2.809 -1.206 -4.289 -2.167 -2.935 -1.905 -4.265 -2.505 -5.548 -2.505 -0.459 0 -1.216 -0.313 -1.682 -0.695 -0.783 -0.642 -0.803 -0.74 -0.264 -1.288 0.982 -0.999 9.476 -1.337 26.878 -1.069 8.588 0.132 16.261 0.351 17.05 0.485 2.303 0.393 2.478 1.287 2.461 12.618 -0.014 9.454 -0.238 11.574 -1.243 11.768 -0.289 0.056 -1.461 -0.626 -2.606 -1.515 z"/><path d="m 119.22 128 c -1.177 -0.762 -2.55 -1.48 -3.051 -1.594 -0.501 -0.114 -2.446 -1.068 -4.322 -2.119 -1.876 -1.052 -4.257 -2.242 -5.292 -2.646 -1.035 -0.404 -2.548 -1.155 -3.363 -1.669 -0.815 -0.514 -3.037 -1.704 -4.939 -2.643 -3.346 -1.653 -13.827 -7.04 -16.726 -8.594 -0.782 -0.42 -1.832 -0.784 -2.333 -0.808 -0.548 -0.027 -0.267 -0.162 0.704 -0.339 1.994 -0.364 26.296 -0.44 34.731 -0.11 4.852 0.19 6.29 0.36 6.641 0.782 0.533 0.641 0.875 18.261 0.389 20.03 l -0.3 1.093 l -2.14 -1.386 z"/><path d="m 111.67 122.87 c -4.738 -2.37 -12.815 -6.484 -17.948 -9.142 l -9.333 -4.833 l 1.615 -0.308 c 1.76 -0.335 31.07 -0.053 32.918 0.318 0.626 0.125 1.218 0.435 1.315 0.689 0.33 0.859 0.634 15.784 0.34 16.688 l -0.292 0.897 l -8.615 -4.309 z"/><path d="m 103.87 117.56 l -14.981 -7.621 l 12.468 -0.109 c 6.857 -0.06 13.623 -0.007 15.04 0.117 2.235 0.197 2.595 0.327 2.777 1.01 0.31 1.156 0.264 14.243 -0.05 14.235 -0.148 -0.004 -7.01 -3.437 -15.25 -7.628 z"/><path d="m 106.13 117.32 l -12 -6 l 2.846 -0.217 c 1.565 -0.119 6.916 -0.119 11.891 0 l 9.05 0.217 l 0.219 1.828 c 0.121 1.01 0.169 3.707 0.109 6 l -0.111 4.175 l -12 -6 z"/><path d="m 107.54 116.76 l -8.795 -4.449 l 9.01 -0.019 l 9.01 -0.019 l 0.211 3.727 c 0.203 3.582 0.069 5.269 -0.414 5.228 -0.125 -0.011 -4.185 -2.02 -9.02 -4.468 z"/><path d="m 109.69 116.49 l -5.923 -2.953 l 5.884 -0.099 c 3.236 -0.054 5.949 -0.034 6.03 0.045 0.079 0.079 0.097 1.452 0.039 3.052 l -0.105 2.907 l -5.923 -2.953 z"/><path d="m 111.13 115.87 c -2.569 -1.336 -2.635 -1.401 -1.436 -1.415 0.691 -0.008 2.104 0.087 3.141 0.212 1.855 0.223 1.885 0.245 1.885 1.433 0 0.735 -0.175 1.199 -0.449 1.189 -0.247 -0.01 -1.66 -0.648 -3.141 -1.418 z"/></g></g><g style="stroke:#ffa07a"><g style="stroke-width:5.588"><path d="m 119.41 143.66 c -1.312 -0.006 -2.473 0.615 -3.313 1.813 c -0.819 1.169 -2.128 2.125 -2.938 2.125 c -0.81 0 -3.677 1.149 -6.344 2.531 c -2.667 1.383 -5.643 2.747 -6.625 3.03 c -3.231 0.934 -2.317 7.349 1.75 12.313 c 1.945 2.374 4.091 5.636 4.781 7.25 c 0.691 1.614 2.758 4.841 4.594 7.156 c 1.836 2.316 3.899 5.542 4.594 7.156 c 0.694 1.614 2.214 4.278 3.344 5.938 l 2.031 3.03 l 0.844 -3.969 c 0.452 -2.174 0.682 -13.852 0.531 -25.969 l -0.281 -22.03 l -2.375 -0.344 c -0.193 -0.027 -0.406 -0.03 -0.594 -0.031 z"/><path d="m 110.19 172.05 c -4.349 -6.728 -8.128 -13.08 -8.398 -14.11 -0.395 -1.511 0.866 -2.438 6.48 -4.764 3.834 -1.588 7.704 -3.5 8.6 -4.249 1.47 -1.227 1.695 -0.294 2.297 9.533 0.913 14.929 0.836 24.641 -0.203 25.283 -0.478 0.295 -4.427 -4.967 -8.776 -11.695 z"/><path d="m 110.98 166.64 l -5.232 -8.522 l 4.616 -2.242 c 2.539 -1.233 4.726 -2.107 4.861 -1.941 0.328 0.404 1.53 21.23 1.225 21.23 -0.131 0 -2.593 -3.835 -5.47 -8.522 z"/></g><g style="stroke-width:1.216"><path d="m 111.61 162.11 c -0.794 -1.299 -1.472 -2.467 -1.506 -2.595 -0.059 -0.222 2.362 -1.549 2.526 -1.385 0.097 0.097 0.568 6.202 0.484 6.283 -0.033 0.032 -0.71 -1 -1.504 -2.304 z"/><path d="m 93.18 148.45 c -3.462 -2.728 -8.541 -9.383 -9.08 -11.899 -0.378 -1.763 -1.633 -3.633 -4.783 -7.126 -2.137 -2.369 -3.822 -4.848 -4.122 -6.06 -0.574 -2.325 -0.757 -2.72 -1.761 -3.799 -1.41 -1.516 -1.796 -2.119 -1.796 -2.813 0 -0.924 0.749 -1.434 2.046 -1.394 1.533 0.047 2.872 0.597 4.916 2.02 1.896 1.316 3.773 2.273 4.475 2.28 0.708 0.007 2.677 1.01 4.518 2.303 2.044 1.434 3.119 1.986 4.561 2.339 1.391 0.341 2.497 0.91 4.573 2.357 2.062 1.436 3.208 2.024 4.346 2.226 1.132 0.201 2.555 0.908 4.584 2.276 2.035 1.372 3.419 2.068 5.399 2.713 2.698 0.879 3.357 1.678 3.177 3.852 -0.186 2.243 -1.485 3.268 -4.639 3.659 -2.052 0.255 -2.61 0.533 -4.492 2.238 -1.861 1.687 -2.466 1.995 -4.673 2.38 -1.935 0.338 -2.566 0.646 -3.184 1.558 -0.758 1.117 -1.658 1.858 -2.257 1.857 -0.357 0 -1.067 -0.378 -1.809 -0.963 z"/><path d="m 94.04 148.09 c -2.571 -1.667 -8 -8.371 -8.98 -11.08 -1.12 -3.109 -1.629 -3.893 -5.52 -8.503 -2.385 -2.826 -3.339 -4.361 -3.916 -6.304 -0.369 -1.243 -0.779 -2 -1.698 -3.152 -0.666 -0.832 -1.31 -1.695 -1.431 -1.916 -0.6 -1.101 1.375 -1.394 3.312 -0.492 0.643 0.299 2.165 1.156 3.383 1.905 1.218 0.748 2.79 1.536 3.495 1.749 1.571 0.477 1.964 0.68 5.136 2.651 1.388 0.862 3.086 1.73 3.775 1.928 1.399 0.402 2.379 0.911 5.889 3.063 1.329 0.814 2.549 1.48 2.713 1.48 0.773 0 2.54 0.83 5.414 2.542 1.727 1.029 3.76 2.079 4.516 2.333 2.364 0.794 3.113 1.328 3.318 2.365 0.247 1.251 -0.195 2.496 -1.106 3.108 -0.402 0.271 -1.542 0.636 -2.591 0.83 -2.501 0.464 -3.066 0.73 -4.998 2.347 -2.01 1.683 -2.359 1.866 -4.46 2.34 -2.229 0.503 -2.962 0.883 -3.671 1.906 -0.328 0.474 -0.825 1.01 -1.104 1.194 -0.468 0.307 -0.581 0.284 -1.476 -0.296 z"/><path d="m 73.19 116.78 l 1.219 1.719 c 0.662 0.945 1.52 2.493 1.906 3.469 c 0.903 2.284 1.598 3.428 4.281 6.688 c 2.552 3.1 3.961 5.144 4.594 6.75 c 0.799 2.027 1.48 3.223 3.156 5.469 c 1.894 2.537 4.539 5.451 5.813 6.375 l 0.906 0.625 l 1 -1.094 c 1.284 -1.407 1.582 -1.56 5.063 -2.469 c 0.558 -0.146 1.724 -0.826 2.813 -1.656 c 2.201 -1.679 3.142 -2.199 4.781 -2.563 c 3.291 -0.729 4 -1.204 4 -2.688 c 0 -1.012 -0.558 -1.525 -2.375 -2.25 c -0.753 -0.3 -3.134 -1.52 -5.313 -2.688 c -2.178 -1.168 -4.353 -2.22 -4.813 -2.344 c -0.459 -0.124 -2.211 -1.038 -3.906 -2.031 c -1.695 -0.993 -3.613 -2.01 -4.25 -2.25 c -1.561 -0.593 -3.087 -1.351 -5.313 -2.688 c -1.023 -0.614 -2.934 -1.61 -4.25 -2.188 c -1.316 -0.577 -3.283 -1.563 -4.375 -2.188 c -2.204 -1.261 -3.145 -1.673 -4.219 -1.875 l -0.719 -0.125 z"/><path d="m 92.6 144.69 c -3.092 -3.209 -5.374 -6.422 -6.742 -9.494 -0.792 -1.779 -1.672 -3.109 -4.078 -6.167 -2.994 -3.805 -3.602 -4.73 -4.823 -7.327 -0.589 -1.253 -1.284 -2.578 -1.544 -2.943 -0.26 -0.365 -0.415 -0.664 -0.345 -0.664 0.151 0 8.497 4.223 16 8.098 2.931 1.513 8.752 4.464 12.936 6.557 4.285 2.144 7.703 3.987 7.828 4.221 0.142 0.266 0.147 0.614 0.015 0.963 -0.215 0.564 -0.456 0.668 -3.901 1.673 -1.135 0.331 -2.211 0.905 -3.983 2.125 -1.977 1.361 -2.827 1.795 -4.582 2.341 -1.756 0.546 -2.36 0.854 -3.268 1.67 -0.612 0.55 -1.209 1 -1.326 1 -0.117 0 -1.103 -0.924 -2.192 -2.054 z"/><path d="m 93.14 144.12 c -3.042 -3.152 -4.994 -5.91 -6.952 -9.821 -0.457 -0.913 -2.245 -3.558 -3.974 -5.879 -2.648 -3.554 -5.488 -8.158 -5.207 -8.439 0.103 -0.103 30.758 15.45 32.664 16.571 0.824 0.485 1.499 0.972 1.499 1.082 0 0.11 -1.024 0.528 -2.276 0.929 -1.643 0.527 -3.062 1.204 -5.1 2.436 -1.553 0.938 -3.702 2.031 -4.775 2.428 -1.073 0.397 -2.464 1.1 -3.091 1.562 l -1.14 0.84 l -1.649 -1.708 z"/><path d="m 93.2 143.07 c -1.932 -2.034 -3.961 -4.738 -5.05 -6.729 -1.407 -2.575 -2.775 -4.719 -5.05 -7.921 -2.397 -3.37 -4.355 -6.341 -4.355 -6.608 0 -0.248 28.325 14.03 30.4 15.321 0.519 0.324 0.49 0.347 -1.453 1.149 -1.091 0.45 -3.078 1.427 -4.417 2.172 -1.339 0.745 -3.383 1.78 -4.543 2.301 -1.16 0.52 -2.483 1.18 -2.938 1.467 -0.456 0.286 -0.868 0.52 -0.916 0.52 -0.048 0 -0.802 -0.753 -1.676 -1.673 z"/><path d="m 93.58 142.35 c -1.876 -1.951 -3.465 -4.141 -5.673 -7.822 -0.989 -1.649 -2.999 -4.746 -4.465 -6.883 -1.466 -2.137 -2.632 -3.919 -2.59 -3.961 0.089 -0.089 24.914 12.37 26.16 13.13 l 0.846 0.515 l -6.424 3.255 l -6.424 3.255 l -1.435 -1.492 z"/><path d="m 93.67 141.3 c -0.857 -0.917 -2.107 -2.492 -2.777 -3.499 -2.612 -3.922 -7.892 -12.158 -7.794 -12.158 0.162 0 21.691 10.789 22.451 11.252 l 0.68 0.413 l -5.501 2.83 l -5.501 2.83 l -1.558 -1.668 z"/><path d="m 94.02 140.57 c -0.699 -0.817 -1.594 -1.926 -1.988 -2.464 -1.08 -1.476 -6.813 -10.337 -6.738 -10.415 0.036 -0.037 4.416 2.107 9.734 4.765 l 9.668 4.833 l -4.648 2.397 c -2.556 1.318 -4.672 2.391 -4.702 2.383 -0.03 -0.008 -0.626 -0.682 -1.326 -1.499 z"/><path d="m 93.89 139.23 c -1.57 -1.946 -6.557 -9.376 -6.399 -9.534 0.047 -0.047 3.602 1.645 7.901 3.76 l 7.816 3.845 l -3.881 1.93 l -3.881 1.93 l -1.556 -1.93 z"/><path d="m 94.35 138.57 c -1.958 -2.547 -4.789 -6.716 -4.653 -6.852 0.065 -0.065 2.773 1.158 6.02 2.718 3.244 1.56 5.875 2.857 5.847 2.882 -0.028 0.025 -1.366 0.702 -2.973 1.505 l -2.922 1.46 l -1.316 -1.712 z"/><path d="m 93.74 136.49 c -1.164 -1.609 -2.074 -2.966 -2.023 -3.02 0.051 -0.051 1.923 0.8 4.161 1.891 l 4.069 1.983 l -2.046 1.034 l -2.046 1.034 l -2.115 -2.925 z"/><path d="m 95.06 137.06 c -0.571 -0.8 -0.992 -1.5 -0.935 -1.556 0.056 -0.056 1.04 0.334 2.187 0.867 l 2.085 0.969 l -1.15 0.587 l -1.15 0.587 l -1.038 -1.454 z"/><path d="m 62.67 168.67 c -0.816 -0.597 -0.905 -2.951 -0.902 -23.921 0.002 -18.603 0.211 -27.526 0.671 -28.725 0.224 -0.584 0.632 -0.438 1.855 0.661 2.279 2.049 4.456 5.431 4.914 7.635 0.346 1.663 1.805 3.95 4.279 6.706 3.075 3.425 4.813 6.072 4.813 7.333 0 1.207 1.731 3.775 4.977 7.385 2.513 2.794 3.906 4.809 3.906 5.65 0 1.286 -1.92 3.874 -4.376 5.9 -1.842 1.519 -3.296 2.29 -4.866 2.581 -1.815 0.335 -2.893 0.903 -4.607 2.424 -1.804 1.601 -2.316 1.881 -4.02 2.196 -1.684 0.311 -2.793 1.087 -4.03 2.818 -1.2 1.682 -1.768 1.977 -2.614 1.358 z"/></g><g style="stroke-width:2.286"><path d="m 63.02 167.7 c -0.448 -0.701 -0.423 -49.29 0.026 -50.02 0.234 -0.378 0.657 -0.198 1.557 0.663 1.604 1.534 2.67 3.284 3.875 6.36 0.601 1.533 2.438 4.365 4.78 7.368 2.092 2.683 3.923 5.373 4.068 5.979 0.473 1.976 1.454 3.501 5.212 8.103 2.037 2.494 3.703 4.841 3.703 5.216 0 2.176 -5 6.588 -8.913 7.856 -1.184 0.384 -3.092 1.397 -4.241 2.25 -1.148 0.853 -3.072 1.878 -4.275 2.277 -1.599 0.53 -2.623 1.235 -3.808 2.621 -1.237 1.447 -1.707 1.761 -1.985 1.325 z"/><path d="m 64.11 142.75 c 0 -15.408 0.137 -22.561 0.429 -22.381 0.236 0.146 1.268 1.934 2.292 3.974 1.025 2.04 3.387 5.831 5.25 8.424 1.863 2.593 3.814 5.654 4.336 6.803 0.522 1.148 2.57 4.219 4.551 6.824 1.981 2.605 3.602 4.986 3.602 5.291 0 1.164 -3.867 4.375 -7.419 6.161 -6.46 3.247 -11.139 5.84 -12.1 6.706 l -0.94 0.844 v -22.646 z"/><path d="m 65.37 144.21 c 0 -12.143 0.145 -18.633 0.418 -18.633 0.23 0 0.418 0.16 0.418 0.356 0 0.196 1.838 3.155 4.084 6.577 2.246 3.422 4.63 7.161 5.297 8.309 0.667 1.148 2.588 3.997 4.268 6.329 1.68 2.333 3.054 4.441 3.054 4.684 0 0.823 -4.356 3.718 -10.428 6.929 -3.324 1.758 -6.283 3.395 -6.577 3.639 -0.432 0.358 -0.534 -3.116 -0.534 -18.19 z"/><path d="m 66.873 159.58 c -0.37 -0.965 -0.315 -29.41 0.058 -29.409 0.172 0 1.337 1.645 2.588 3.654 1.251 2.01 4.403 6.847 7 10.752 l 4.728 7.099 l -1.137 0.918 c -0.625 0.505 -3.213 2.083 -5.751 3.506 -2.538 1.424 -5.203 2.939 -5.924 3.367 -1.176 0.699 -1.337 0.71 -1.566 0.113 z"/><path d="m 68.09 155.96 c -0.14 -0.976 -0.198 -6.279 -0.13 -11.784 l 0.124 -10.01 l 5.533 8.454 c 3.043 4.65 5.53 8.59 5.526 8.756 -0.006 0.287 -10.11 6.357 -10.577 6.357 -0.122 0 -0.337 -0.799 -0.477 -1.775 z"/><path d="m 69.38 148.63 c -0.152 -3.838 -0.121 -7.528 0.069 -8.2 0.334 -1.18 0.469 -1.029 3.978 4.468 1.998 3.129 3.632 5.784 3.632 5.899 0 0.262 -2.927 2.243 -5.476 3.706 l -1.926 1.105 l -0.277 -6.978 z"/><path d="m 70.803 148.44 c 0.011 -5.333 -0.108 -5.319 3 -0.342 l 1.551 2.481 l -2.079 1.279 c -1.143 0.704 -2.17 1.279 -2.281 1.279 -0.111 0 -0.198 -2.114 -0.193 -4.698 z"/><path d="m 108.17 195.87 c -0.689 -0.374 -1.86 -1.208 -2.603 -1.854 -0.743 -0.646 -2.152 -1.388 -3.132 -1.649 -2.499 -0.666 -4.01 -1.438 -6.05 -3.085 -1.128 -0.91 -2.57 -1.592 -3.99 -1.887 -1.531 -0.318 -2.838 -0.97 -4.195 -2.09 -1.842 -1.522 -3.073 -2.096 -5.761 -2.688 -0.603 -0.133 -2.01 -1 -3.132 -1.928 -1.119 -0.928 -2.787 -1.885 -3.705 -2.128 -2.722 -0.719 -4.29 -1.648 -6.485 -3.844 -2.812 -2.812 -2.703 -4.04 0.361 -4.045 2.109 -0.004 4.242 -0.874 6.11 -2.49 1.952 -1.69 2.296 -1.848 5.01 -2.308 1.233 -0.209 2.156 -0.801 3.641 -2.333 3.239 -3.343 4.697 -2.812 11.201 4.078 3.562 3.774 4.32 4.93 5.618 8.571 0.407 1.141 1.875 3.33 3.502 5.22 3.711 4.311 4.652 5.689 5.151 7.546 0.23 0.855 1.076 2.521 1.881 3.702 1.863 2.734 1.741 3.664 -0.497 3.796 -0.929 0.055 -2.221 -0.203 -2.919 -0.582 z"/><path d="m 107.12 193.44 c -1.033 -0.788 -3.01 -1.855 -4.384 -2.37 -1.378 -0.516 -3.598 -1.64 -4.933 -2.499 -1.335 -0.859 -3.402 -1.879 -4.593 -2.267 -1.191 -0.388 -3.086 -1.359 -4.211 -2.156 -1.125 -0.798 -3.068 -1.802 -4.317 -2.232 -1.25 -0.43 -3.349 -1.501 -4.666 -2.38 -1.317 -0.879 -3.038 -1.837 -3.825 -2.128 -2.765 -1.024 -4.091 -1.83 -5.822 -3.543 l -1.746 -1.728 l 2.233 -0.319 c 1.596 -0.228 3.01 -0.837 4.947 -2.134 1.493 -0.998 3.747 -2.142 5.01 -2.542 1.389 -0.44 2.993 -1.37 4.062 -2.355 2.763 -2.547 3.338 -2.363 8.3 2.654 3.48 3.518 4.547 4.913 5.985 7.824 1.798 3.642 2.446 4.62 5.996 9.06 1.136 1.42 2.953 4.38 4.04 6.577 l 1.973 3.995 l -1.084 -0.011 c -0.596 -0.006 -1.93 -0.655 -2.963 -1.443 z"/><path d="m 107.31 192.02 c -0.218 -0.205 -3.685 -2.01 -7.704 -4 -4.02 -1.996 -7.683 -3.843 -8.143 -4.104 -0.459 -0.261 -2.902 -1.531 -5.428 -2.822 -12.538 -6.406 -15.748 -8.326 -13.919 -8.326 0.932 0 11.63 -5.472 13.758 -7.04 1.302 -0.958 1.923 -1.183 2.463 -0.894 1.876 1 8.23 8.407 9.894 11.528 0.966 1.811 3.03 5.02 4.593 7.138 3.01 4.082 5.849 8.891 5.245 8.891 -0.199 0 -0.541 -0.168 -0.759 -0.372 z"/><path d="m 100.65 187.09 c -2.067 -1.031 -8.785 -4.519 -14.93 -7.752 l -11.172 -5.878 l 4.7 -2.469 c 2.585 -1.358 5.555 -2.993 6.601 -3.634 1.79 -1.096 1.951 -1.124 2.749 -0.478 1.871 1.515 5.836 6.292 8 9.643 1.263 1.952 3.601 5.488 5.197 7.858 1.595 2.37 2.835 4.371 2.756 4.446 -0.08 0.076 -1.836 -0.706 -3.903 -1.736 z"/><path d="m 88.63 179.35 l -11.184 -5.869 l 5.129 -2.831 l 5.129 -2.831 l 1.619 1.742 c 2.967 3.191 11.12 14.581 11.12 15.536 0 0.415 -0.974 -0.059 -11.81 -5.745 z"/><path d="m 88.38 177.69 l -8.08 -4.199 l 3.491 -1.968 c 2.525 -1.423 3.642 -1.852 4.04 -1.547 0.831 0.641 9 11.539 8.802 11.739 -0.096 0.096 -3.81 -1.715 -8.253 -4.02 z"/><path d="m 87.31 175.62 l -4.152 -2.111 l 1.647 -0.997 c 0.906 -0.548 1.859 -0.998 2.119 -0.999 0.396 -0.002 2.113 2.027 4.667 5.516 0.795 1.087 0.318 0.929 -4.281 -1.409 z"/></g><g style="stroke-width:1.61"><path d="m 86.56 173.84 c -0.498 -0.276 -0.596 -0.454 -0.338 -0.613 0.215 -0.133 0.618 0.03 0.987 0.399 0.701 0.701 0.405 0.799 -0.649 0.214 z"/><path d="m 72.12 149.49 v -1.546 l 0.704 1.021 c 0.759 1.101 0.744 1.296 -0.132 1.765 -0.533 0.285 -0.572 0.2 -0.572 -1.24 z"/><path d="m 111.59 160.6 c -0.262 -0.582 -0.287 -0.942 -0.078 -1.15 0.454 -0.454 0.66 -0.075 0.554 1.02 l -0.094 0.978 l -0.382 -0.847 z"/></g></g></g></g></svg>