<?xml version="1.0" encoding="UTF-8" standalone="no"?>
<svg
   xmlns:dc="http://purl.org/dc/elements/1.1/"
   xmlns:cc="http://creativecommons.org/ns#"
   xmlns:rdf="http://www.w3.org/1999/02/22-rdf-syntax-ns#"
   xmlns:svg="http://www.w3.org/2000/svg"
   xmlns="http://www.w3.org/2000/svg"
   xmlns:sodipodi="http://sodipodi.sourceforge.net/DTD/sodipodi-0.dtd"
   xmlns:inkscape="http://www.inkscape.org/namespaces/inkscape"
   viewBox="0 0 256 256"
   id="svg2"
   version="1.1"
   inkscape:version="0.48.4 r9939"
   width="100%"
   height="100%"
   sodipodi:docname="xfce4-sample-plugin.svg">
  <metadata
     id="metadata10">
    <rdf:RDF>
      <cc:Work
         rdf:about="">
        <dc:format>image/svg+xml</dc:format>
        <dc:type
           rdf:resource="http://purl.org/dc/dcmitype/StillImage" />
        <dc:title></dc:title>
      </cc:Work>
    </rdf:RDF>
  </metadata>
  <defs
     id="defs8" />
  <sodipodi:namedview
     pagecolor="#ffffff"
     bordercolor="#666666"
     borderopacity="1"
     objecttolerance="10"
     gridtolerance="10"
     guidetolerance="10"
     inkscape:pageopacity="0"
     inkscape:pageshadow="2"
     inkscape:window-width="770"
     inkscape:window-height="496"
     id="namedview6"
     showgrid="false"
     inkscape:zoom="0.9"
     inkscape:cx="92.506468"
     inkscape:cy="128"
     inkscape:window-x="413"
     inkscape:window-y="201"
     inkscape:window-maximized="0"
     inkscape:current-layer="svg2"
     inkscape:snap-global="false" />
  <path
     d="m 125.73 798.56 c -111.92 -22.351 -154.42 130.95 -105.92 214.2 38.644 66.33 171.02 47.37 220.37 -42.17 49.35 -89.54 -24.617 -154.09 -114.45 -172.03 z"
     style="fill:#ffffff;color:#000"
     id="path4"
     transform="translate(0 -796.36)" />
  <g
     id="g6"
     style="fill:#ff4500;stroke:#ff4500;stroke-width:0.99994326;stroke-miterlimit:4;stroke-opacity:1;stroke-dasharray:none"
     transform="matrix(6.0148965,0,0,4.9823094,-20.035472,0.12238789)">
    <path
       d="m 24.9029,12.1188 c -2.54625,0.03097 -4.95763,0.748621 -6.7674,1.86883 -1.80977,1.12021 -3.05099,2.36835 -3.03048,4.0547 0.01462,1.20241 1.07245,2.101 2.38715,2.08501 1.41206,-0.01717 2.67686,-1.06495 2.66153,-2.32507 -0.0012,-0.09513 -3.6e-5,-0.218769 -0.03678,-0.327081 -0.03674,-0.108311 -0.110473,-0.232245 -0.20258,-0.473941 -0.08022,-0.187679 -0.137906,-0.250946 -0.138795,-0.324014 -0.0071,-0.58048 0.430335,-1.15231 1.32515,-1.62398 0.894819,-0.471671 2.21139,-0.801054 3.69673,-0.81912 1.36889,-0.01665 2.40692,0.2705 3.09276,0.766317 0.68584,0.495818 1.06429,1.20121 1.07596,2.16051 0.01355,1.11437 -0.359759,2.24897 -1.04358,3.19865 -0.0055,0.0076 0.0058,0.02221 3.62e-4,0.02977 -0.714422,0.948404 -1.19374,0.997186 -2.925,1.93937 -2.04339,1.09876 -3.21739,2.08583 -3.96801,3.08717 -0.75062,1.00134 -0.978981,2.21149 -1.22842,4.18348 -0.03228,0.2529 0.217752,0.503929 0.498122,0.500122 l 1.6399,-0.0199 c 0.236806,-0.0022 0.456959,-0.179743 0.487259,-0.393006 0.193189,-1.47132 0.568198,-2.41849 1.27389,-3.1419 0.705691,-0.723413 1.78848,-1.28242 3.55395,-1.77019 0.01093,1.96e-4 0.02188,6.3e-5 0.0328,-3.99e-4 1.98716,-0.594089 3.14261,-1.1722 4.30214,-2.28547 2.42e-4,-0.0099 1.21e-4,-0.01986 -3.62e-4,-0.02977 1.43043,-1.40043 2.29127,-3.101 2.26998,-4.85121 -0.02046,-1.68208 -1.01107,-3.12594 -2.60819,-4.07727 -1.59712,-0.951337 -3.7892,-1.44268 -6.34807,-1.41156 z"
       id="path8"
       inkscape:connector-curvature="0"
       style="opacity:0.5;fill:#ff4500;stroke:#ff4500;stroke-width:0.99994326;stroke-miterlimit:4;stroke-opacity:1;stroke-dasharray:none" />
    <path
       style="fill:#ff4500;fill-opacity:1;fill-rule:evenodd;stroke:#ff4500;stroke-width:6.08222198;stroke-miterlimit:4;stroke-opacity:1;stroke-dasharray:none"
       d="m 98.007226,163.01201 c -2.731547,-0.7139 -3.470684,-4.82738 -2.054209,-11.43218 2.974065,-13.86758 9.516813,-20.29197 31.775673,-31.20083 17.59753,-8.62439 20.49593,-11.47464 21.41709,-21.061338 1.07002,-11.136004 -5.61043,-14.947281 -24.96082,-14.240446 -10.16079,0.371154 -13.0177,0.904418 -18.53922,3.460492 -6.411512,2.968081 -6.512844,3.085792 -5.708212,6.630896 1.437262,6.332396 0.758312,9.015006 -3.216531,12.708976 -7.349715,6.83034 -18.714267,7.40424 -25.670781,1.29634 -9.919378,-8.70933 -3.054732,-21.5721 16.395866,-30.722082 32.519518,-15.297888 78.940268,-10.44447 92.383868,9.65899 2.65858,3.975628 3.265,6.050696 3.24708,11.111111 -0.0581,16.405271 -16.13633,31.552961 -39.48915,37.203611 -18.07975,4.37474 -24.92488,9.0115 -27.63985,18.72269 -1.8313,6.55039 -4.52045,8.65873 -10.84243,8.50065 -2.83508,-0.0709 -6.029347,-0.35749 -7.098374,-0.63688 l 0,0 z"
       id="path6725"
       inkscape:connector-curvature="0"
       transform="matrix(0.1662539,0,0,0.20071014,3.7004284,-2.2546771)" />
    <path
       style="fill:#ff4500;fill-opacity:1;fill-rule:evenodd;stroke:#ff4500;stroke-width:1.1110481;stroke-miterlimit:4;stroke-opacity:1;stroke-dasharray:none"
       d="m 18.655119,39.505125 c -2.046201,-0.913006 -2.00133,-3.390201 0.08525,-4.706153 2.950878,-1.861046 6.271648,0.833002 4.289153,3.47967 -0.82557,1.102151 -3.176063,1.761177 -4.374398,1.226483 z"
       id="path6727"
       inkscape:connector-curvature="0" />
  </g>
</svg>
