<svg xmlns="http://www.w3.org/2000/svg" viewBox="0 0 256 256"><path d="m 2.193 125.74 c -22.351 -111.92 130.95 -154.42 214.2 -105.92 c 66.33 38.644 47.37 171.02 -42.17 220.37 -89.54 49.35 -154.09 -24.617 -172.03 -114.45 z" style="fill:#fff;color:#000"/><g transform="matrix(2.72467 0 0 2.76772 58.8 55.6)" style="fill:#ff4500;stroke:#ff4500"><path d="m 45 23.02 a 20 21 0 0 1 -40 0 20 21 0 1 1 40 0 z"/><path d="m 31 9.02 v 14 h -14 v 14 h -14 v 7 h 14 h 14 h 14 v -35 h -14 z"/><path d="m 30.94 8.964 v 14 h -14 v 14 h -6.875 c 3.662 4.285 8.964 7 14.875 7 11.04 0 20 -9.408 20 -21 0 -5.386 -1.947 -10.282 -5.125 -14 h -8.875 z" style="fill:#ffdead"/></g></svg>