<svg xmlns="http://www.w3.org/2000/svg" viewBox="0 0 256 256"><defs><clipPath><path d="m -24 13 c 0 1.105 -0.672 2 -1.5 2 -0.828 0 -1.5 -0.895 -1.5 -2 0 -1.105 0.672 -2 1.5 -2 0.828 0 1.5 0.895 1.5 2 z" transform="matrix(15.33333 0 0 11.5 415 -125.5)"/></clipPath></defs><path d="m 252.46 98.7 c -49.33 -237.88 -388.7 17.492 -184.83 138.4 79.19 51.828 210.21 -16.06 184.83 -138.4 z" style="fill:#fff;color:#000"/><g transform="matrix(6.07262 0 0 6.65092 -2423.29 -3383.2)"><path d="m 424.57,537.3 -15,-9.734 15,-12.771 z" style="fill:#d00000"/><path d="m 424.57,537.15 4.898,3.124 -4.898,-25.481 z" style="fill:#ec0000"/><path d="m 429.53,540.34 -19.963,-5.331 0.124,-7.44 z" style="fill:#b40000"/></g></svg>