<svg xmlns="http://www.w3.org/2000/svg" viewBox="0 0 256 256"><g transform="translate(0 -796.36)"><path d="m 54.15 1026.57 c 188.96 126.21 305.35 -276.27 61.07 -222.99 -100.95 22.706 -162.22 165.11 -61.07 222.99" style="fill:#fff;color:#000"/><g transform="matrix(1.16898 0 0 1.29722 6.176 -241.94)" style="fill:#ff4500"><path d="m 65.06 956.53 c -0.622 -0.622 -1.131 -1.983 -1.131 -3.02 0 -1.041 -0.9 -3.036 -2 -4.435 -1.1 -1.398 -2 -3.198 -2 -4 0 -0.802 -0.9 -2.602 -2 -4 -1.1 -1.398 -2 -3.312 -2 -4.253 0 -0.941 -0.9 -2.525 -2 -3.52 -1.1 -0.995 -2 -2.682 -2 -3.747 0 -1.066 -0.9 -3.081 -2 -4.48 -1.1 -1.398 -2 -3.312 -2 -4.253 0 -0.941 -0.9 -2.525 -2 -3.52 -1.1 -0.995 -2 -2.907 -2 -4.249 0 -1.598 -0.69 -2.619 -2 -2.962 -1.797 -0.47 -2 -1.364 -2 -8.79 0 -7.426 0.203 -8.32 2 -8.79 1.31 -0.343 2 -1.364 2 -2.962 0 -1.341 0.9 -3.253 2 -4.249 1.1 -0.995 2 -2.795 2 -4 0 -1.205 0.9 -3 2 -4 1.1 -0.995 2 -2.795 2 -4 0 -1.205 0.9 -3 2 -4 1.1 -0.995 2 -2.58 2 -3.52 0 -0.941 0.9 -2.854 2 -4.253 1.1 -1.398 2 -3.198 2 -4 0 -0.802 0.9 -2.602 2 -4 1.1 -1.398 2 -3.429 2 -4.512 0 -1.083 0.569 -2.442 1.264 -3.02 1.747 -1.45 76.72 -1.45 78.47 0 0.695 0.577 1.264 1.936 1.264 3.02 0 1.083 0.9 3.114 2 4.512 1.1 1.398 2 3.198 2 4 0 0.802 0.9 2.602 2 4 1.1 1.398 2 3.312 2 4.253 0 0.941 0.9 2.525 2 3.52 1.1 0.995 2 2.682 2 3.747 0 1.066 0.9 3.081 2 4.48 1.1 1.398 2 3.312 2 4.253 0 0.941 0.9 2.525 2 3.52 1.1 0.995 2 2.879 2 4.186 0 1.307 0.675 2.635 1.5 2.952 2.18 0.837 2.18 16.887 0 17.723 -0.825 0.317 -1.5 1.645 -1.5 2.952 0 1.307 -0.9 3.191 -2 4.186 -1.1 0.995 -2 2.58 -2 3.52 0 0.941 -0.9 2.854 -2 4.253 -1.1 1.398 -2 3.414 -2 4.48 0 1.066 -0.9 2.752 -2 3.747 -1.1 0.995 -2 2.58 -2 3.52 0 0.941 -0.9 2.854 -2 4.253 -1.1 1.398 -2 3.414 -2 4.48 0 1.066 -0.9 2.752 -2 3.747 -1.1 0.995 -2 2.81 -2 4.03 0 1.222 -0.62 2.737 -1.377 3.365 -1.934 1.605 -76.88 1.446 -78.49 -0.167 z"/><g style="fill:#ffdead"><path d="m 77.77 952.81 c -1.604 -1.079 -3.112 -4.319 -4.251 -4.322 -1.138 0 -1.496 -1.664 -2.145 -2.457 -1.727 -2.112 -4.206 -5.439 -2.917 -7.886 0.982 -1.856 0.86 -2.116 -0.954 -2.116 -1.241 0 -2.27 -0.778 -2.57 -1.942 -0.275 -1.068 -1.28 -2.193 -2.234 -2.5 -0.954 -0.307 -1.984 -1.322 -2.291 -2.254 -0.305 -0.932 -1.503 -2.877 -2.661 -4.322 -1.782 -2.223 -1.945 -3.082 -1.088 -5.589 0.929 -2.704 0.812 -3.01 -1.333 -3.562 -1.293 -0.33 -2.35 -1.096 -2.35 -1.704 0 -0.608 -1.75 -3.03 -3.889 -5.389 -5.01 -5.521 -5.01 -8.07 0 -13.591 2.139 -2.356 3.889 -5.165 3.889 -6.242 0 -1.077 0.875 -2.762 1.945 -3.744 1.07 -0.982 1.945 -2.759 1.945 -3.949 0 -1.19 0.875 -2.961 1.945 -3.949 1.07 -0.982 1.945 -2.354 1.945 -3.048 0 -0.694 0.827 -1.528 1.84 -1.854 1.012 -0.326 2.064 -1.467 2.339 -2.534 0.299 -1.164 1.329 -1.942 2.57 -1.942 1.803 0 1.929 -0.268 0.972 -2.078 -1.38 -2.617 -0.332 -8.781 1.491 -8.781 0.742 0 1.616 -0.778 1.943 -1.728 0.327 -0.95 2.631 -2.756 5.12 -4.01 l 4.526 -2.285 l 4.587 2.285 c 2.523 1.257 4.801 3.062 5.064 4.01 0.616 2.238 3.613 2.238 4.243 0 0.267 -0.95 2.501 -2.756 4.963 -4.01 l 4.477 -2.285 l 4.587 2.285 c 2.523 1.257 4.801 3.062 5.064 4.01 0.262 0.95 1.214 1.728 2.117 1.728 0.902 0 1.855 -0.778 2.117 -1.728 0.262 -0.95 2.541 -2.756 5.064 -4.01 l 4.587 -2.285 l 4.526 2.285 c 2.489 1.257 4.793 3.062 5.12 4.01 0.327 0.95 1.201 1.728 1.943 1.728 1.824 0 2.871 6.164 1.491 8.781 -0.954 1.81 -0.828 2.078 0.972 2.078 1.241 0 2.27 0.778 2.57 1.942 0.275 1.068 1.28 2.193 2.234 2.5 0.954 0.307 1.984 1.322 2.291 2.254 0.305 0.932 1.503 2.877 2.661 4.322 1.782 2.223 1.945 3.082 1.088 5.589 -0.929 2.704 -0.812 3.01 1.333 3.562 1.293 0.33 2.35 1.096 2.35 1.704 0 0.608 1.75 3.03 3.889 5.389 5.01 5.521 5.01 8.07 0 13.591 -2.139 2.356 -3.889 4.781 -3.889 5.389 0 0.608 -1.094 1.383 -2.431 1.725 -2.749 0.7 -2.8 0.821 -1.458 3.367 1.306 2.478 0.012 5.614 -4.074 9.871 -1.824 1.9 -10.413 23.402 -10.771 24.352 -0.996 2.646 -2.648 -16.703 -3.339 -19.384 -0.275 -1.068 -1.328 -2.208 -2.339 -2.534 -1.012 -0.326 -3.73 5.483 -3.73 4.689 0 -4.149 -7.098 -0.382 -9.02 4.787 -0.484 1.302 0.141 -4.999 -3.249 -4.999 -3.679 0 -4.589 -0.359 -5.01 -1.974 -0.28 -1.086 -0.786 -1.997 -1.124 -2.025 -8.49 -0.689 -10.05 -0.439 -12.789 2.042 -2.466 2.235 -5.783 2.711 -5.272 5.905 0.52 3.252 16.845 4.718 13.93 7.602 -3.357 3.318 -8.104 5.196 -9.652 5.184 -0.472 0 -17.313 1.128 -18.918 0.05 z m 6.855 -4.318 c 0.028 -0.068 0.793 -1.33 1.701 -2.804 1.872 -3.039 5.172 -3.579 3.643 -4.538 -0.568 -0.356 -4.457 -4.405 -4.945 -5.71 -0.541 -1.444 -1.671 -2.372 -2.89 -2.372 -2.194 0 -8.748 6.086 -8.734 8.111 0.005 0.697 1.579 2.949 3.497 5 2.692 2.883 3.968 3.589 5.582 3.086 1.151 -0.358 2.116 -0.708 2.144 -0.776 z m -12.669 -19.14 c 1.588 -1.158 4.353 -5.953 4.353 -7.544 0 -2.745 -4.03 -8.482 -5.962 -8.482 -2.181 0 -8.622 6.171 -8.622 8.259 0 1.692 6.525 8.529 8.119 8.507 0.614 -0.008 1.565 -0.342 2.113 -0.74 z m -3.425 -7.636 c 0 -1.017 0.637 -1.5 1.701 -1.293 2.05 0.401 1.92 2.153 -0.192 2.599 -0.881 0.187 -1.51 -0.358 -1.51 -1.306 z m 28.342 5.429 c 0.559 -1.629 1.412 -2.961 1.894 -2.961 1.43 0 1 -3.564 -0.824 -6.858 -2.582 -4.658 -5.304 -4.852 -9.421 -0.671 -1.904 1.933 -3.461 4.208 -3.461 5.056 0 2.37 6.04 8.252 8.558 8.328 1.641 0.049 2.509 -0.722 3.255 -2.893 z m 21.842 2.206 c 0.596 -0.399 1.391 -1.725 1.767 -2.947 0.375 -1.221 1.091 -2.221 1.59 -2.221 1.561 0 0.993 -3.688 -1.134 -7.347 -1.22 -2.1 -2.796 -3.511 -3.918 -3.511 -2.294 0 -8.622 6.218 -8.622 8.472 0 1.745 6.508 8.32 8.211 8.295 0.564 -0.008 1.513 -0.342 2.11 -0.74 z m -3.515 -7.636 c 0 -1.017 0.637 -1.5 1.701 -1.293 2.05 0.401 1.92 2.153 -0.192 2.599 -0.881 0.187 -1.51 -0.358 -1.51 -1.306 z m 26.738 7.636 c 0.535 -0.399 1.824 -2.424 2.866 -4.5 1.521 -3.03 1.664 -4.102 0.727 -5.429 -0.642 -0.909 -1.593 -2.653 -2.113 -3.875 -0.543 -1.272 -1.801 -2.221 -2.946 -2.221 -2.387 0 -8.742 6.159 -8.742 8.472 0 1.745 6.508 8.32 8.211 8.295 0.564 -0.008 1.463 -0.342 1.998 -0.74 z m -3.403 -7.636 c 0 -1.017 0.637 -1.5 1.701 -1.293 2.05 0.401 1.92 2.153 -0.192 2.599 -0.881 0.187 -1.51 -0.358 -1.51 -1.306 z m -75.55 -14.694 c 1.976 -1.838 3.593 -4.074 3.593 -4.965 0 -2.112 -6.264 -8.472 -8.344 -8.472 -1.789 0 -8.185 6.63 -8.185 8.485 0 1.546 6.648 8.297 8.172 8.297 0.645 0 2.788 -1.503 4.764 -3.342 z m -6.13 -5.05 c 0 -0.814 0.656 -1.481 1.458 -1.481 0.802 0 1.458 0.666 1.458 1.481 0 0.814 -0.656 1.481 -1.458 1.481 -0.802 0 -1.458 -0.666 -1.458 -1.481 z m 29.687 4.965 c 1.854 -1.882 3.371 -4.118 3.371 -4.965 0 -2.01 -6.288 -8.391 -8.264 -8.391 -2.01 0 -8.264 6.399 -8.264 8.457 0 2.092 6.139 8.325 8.199 8.325 0.873 0 3.104 -1.54 4.959 -3.422 z m 22.72 -0.09 c 1.122 -1.931 2.041 -4.127 2.041 -4.879 0 -2.671 -4.064 -8.391 -5.962 -8.391 -2.249 0 -8.622 6.198 -8.622 8.386 0 2.3 6.01 8.25 8.411 8.328 1.405 0.045 2.761 -1.085 4.132 -3.443 z m -5.737 -4.879 c 0 -1.017 0.637 -1.5 1.701 -1.293 2.05 0.401 1.92 2.153 -0.192 2.599 -0.881 0.187 -1.51 -0.358 -1.51 -1.306 z m 26.76 7.636 c 1.577 -1.15 4.353 -5.943 4.353 -7.52 0 -2.614 -3.368 -7.565 -5.532 -8.132 -1.573 -0.413 -3.03 0.359 -5.591 2.957 -1.904 1.933 -3.461 4.208 -3.461 5.056 0 1.974 5.863 8.244 7.778 8.313 0.802 0.029 1.906 -0.273 2.453 -0.672 z m 23.312 -0.001 c 0.535 -0.399 1.764 -2.251 2.731 -4.114 1.697 -3.269 1.697 -3.512 0 -6.909 -1.853 -3.711 -3.039 -4.965 -4.728 -4.985 -1.744 -0.026 -8.211 6.57 -8.211 8.376 0 1.806 6.467 8.402 8.211 8.376 0.564 -0.008 1.463 -0.342 1.998 -0.741 z m -3.403 -7.635 c 0 -1.017 0.637 -1.5 1.701 -1.293 2.05 0.401 1.92 2.153 -0.192 2.599 -0.881 0.187 -1.51 -0.358 -1.51 -1.306 z m -75.32 -14.775 c 1.854 -1.882 3.371 -4.154 3.371 -5.05 0 -1.816 -6.53 -8.31 -8.357 -8.31 -1.512 0 -8.172 6.745 -8.172 8.276 0 1.927 6.188 8.436 8.05 8.472 0.954 0.019 3.25 -1.506 5.104 -3.389 z m 23.335 0 c 1.854 -1.882 3.371 -4.118 3.371 -4.965 0 -2.01 -6.288 -8.391 -8.264 -8.391 -1.975 0 -8.264 6.382 -8.264 8.386 0 2.118 5.924 8.245 8.05 8.328 0.954 0.038 3.25 -1.472 5.104 -3.354 z m -6.352 -4.965 c 0 -0.814 0.656 -1.481 1.458 -1.481 0.802 0 1.458 0.666 1.458 1.481 0 0.814 -0.656 1.481 -1.458 1.481 -0.802 0 -1.458 -0.666 -1.458 -1.481 z m 29.687 4.965 c 1.854 -1.882 3.371 -4.118 3.371 -4.965 0 -2.01 -6.288 -8.391 -8.264 -8.391 -1.975 0 -8.264 6.382 -8.264 8.386 0 2.118 5.924 8.245 8.05 8.328 0.954 0.038 3.25 -1.472 5.104 -3.354 z m -6.352 -4.965 c 0 -0.814 0.656 -1.481 1.458 -1.481 0.802 0 1.458 0.666 1.458 1.481 0 0.814 -0.656 1.481 -1.458 1.481 -0.802 0 -1.458 -0.666 -1.458 -1.481 z m 29.686 4.965 c 1.854 -1.882 3.371 -4.059 3.371 -4.837 0 -1.714 -6.529 -8.522 -8.172 -8.522 -1.862 0 -8.357 6.51 -8.357 8.376 0 2.154 6.098 8.406 8.199 8.406 0.873 0 3.104 -1.54 4.959 -3.422 z m -58.34 -19.743 c 1.854 -1.883 3.371 -4.154 3.371 -5.05 0 -2.513 -6.855 -8.427 -8.976 -7.744 -2.936 0.946 -6.825 5.529 -6.825 8.04 0 2.478 5.396 8.174 7.742 8.174 0.723 0 2.832 -1.54 4.686 -3.422 z m 23.335 0 c 1.854 -1.883 3.371 -4.154 3.371 -5.05 0 -1.766 -6.507 -8.31 -8.264 -8.31 -1.754 0 -8.264 6.543 -8.264 8.305 0 2.182 5.882 8.324 8.05 8.409 0.954 0.038 3.25 -1.472 5.104 -3.354 z m -6.352 -4.965 c 0 -0.814 0.656 -1.481 1.458 -1.481 0.802 0 1.458 0.666 1.458 1.481 0 0.814 -0.656 1.481 -1.458 1.481 -0.802 0 -1.458 -0.666 -1.458 -1.481 z m 29.687 4.965 c 1.854 -1.883 3.371 -4.059 3.371 -4.837 0 -1.714 -6.529 -8.522 -8.172 -8.522 -1.824 0 -8.357 6.492 -8.357 8.305 0 2.182 5.882 8.324 8.05 8.409 0.954 0.038 3.25 -1.472 5.104 -3.354 z m -6.352 -4.965 c 0 -0.814 0.656 -1.481 1.458 -1.481 0.802 0 1.458 0.666 1.458 1.481 0 0.814 -0.656 1.481 -1.458 1.481 -0.802 0 -1.458 -0.666 -1.458 -1.481 z"/><rect width="45.13" height="18.18" x="91.43" y="933.3" rx="1.27" ry="1.038" style="stroke:#ffdead;fill-rule:evenodd;stroke-width:4.314"/></g></g></g></svg>