<svg xmlns="http://www.w3.org/2000/svg" viewBox="0 0 256 256"><g transform="translate(0 -796.36)" style="color:#000"><path d="m 234.13 862.2 c 127.44 255.36 -349.88 253.67 -207.23 -5.832 39.16 -71.24 159.18 -90.44 207.23 5.832 z" style="fill:#fff"/><g transform="matrix(0.98243 0 0 0.98243 -0.169 20.993)" style="fill:#ff4500"><path d="m 115.38 952.82 v 13.656 h -15.281 c -2.771 0 -5 2.229 -5 5 0 2.771 2.229 5 5 5 h 55.813 c 2.771 0 5 -2.229 5 -5 0 -2.771 -2.229 -5 -5 -5 h -15.281 v -13.656 h -25.25 z"/><path d="m 63.19 872.63 c -2.348 0 -4.25 1.902 -4.25 4.25 v 76.875 c 0 2.348 1.902 4.219 4.25 4.219 h 129.63 c 2.348 0 4.25 -1.871 4.25 -4.219 v -76.875 c 0 -2.348 -1.902 -4.25 -4.25 -4.25 z m 8.288 11.215 h 113.05 v 62.913 h -113.05 z"/></g><g transform="matrix(0.98243 0 0 0.98243 20.441 28.586)" style="fill:#ff4500"><path d="m 115.38,952.82 v 13.656 h -15.281 c -2.771,0 -5,2.229 -5,5 0,2.771 2.229,5 5,5 h 55.813 c 2.771,0 5,-2.229 5,-5 0,-2.771 -2.229,-5 -5,-5 H 140.631 V 952.82 h -25.25 z"/><path d="m 63.19,872.63 c -2.348,0 -4.25,1.902 -4.25,4.25 v 76.875 c 0,2.348 1.902,4.219 4.25,4.219 h 129.63 c 2.348,0 4.25,-1.871 4.25,-4.219 V 876.88 c 0,-2.348 -1.902,-4.25 -4.25,-4.25 z m 8.288,11.215 h 113.05 v 62.913 H 71.478 z"/></g></g></svg>