<svg xmlns="http://www.w3.org/2000/svg" xmlns:xlink="http://www.w3.org/1999/xlink" viewBox="0 0 256 256"><defs><path id="0" d="m 52.594 78.4 a 5.905 3.307 0 1 1 -11.81 0 5.905 3.307 0 1 1 11.81 0 z"/><path id="1" d="m 35.621 3.938 a 0.84 0.84 0 1 1 -1.679 0 0.84 0.84 0 1 1 1.679 0 z"/><filter id="2" style="color-interpolation-filters:sRGB"><feGaussianBlur stdDeviation="1.15417"/></filter><linearGradient id="Y"><stop style="stop-opacity:0.606"/><stop offset="0.233" style="stop-opacity:0"/><stop offset="0.486" style="stop-opacity:0"/><stop offset="0.712" style="stop-opacity:0"/><stop offset="1" style="stop-opacity:0.142"/></linearGradient><linearGradient gradientTransform="matrix(0.29797 0 0 0.32759 61.52 19.546)" gradientUnits="userSpaceOnUse" xlink:href="#4" id="Q" y2="85.9" x2="0" y1="63.75"/><linearGradient gradientUnits="userSpaceOnUse" xlink:href="#Y" id="Z" y2="81.955" x2="0" y1="74.01" gradientTransform="matrix(0.26486 0 0 0.27664 63.729 42.26)"/><linearGradient id="b"><stop style="stop-color:#fe4b4b;stop-opacity:0.425"/><stop offset="1" style="stop-color:#fe4b4b;stop-opacity:0"/></linearGradient><linearGradient gradientUnits="userSpaceOnUse" xlink:href="#b" id="a" y2="78.4" x2="50.5" y1="81.955" x1="50.587" gradientTransform="matrix(0.26486 0 0 0.27664 53.927 25.866)"/><linearGradient gradientUnits="userSpaceOnUse" xlink:href="#Y" id="X" y2="81.955" x2="0" y1="74.01" gradientTransform="matrix(0.26486 0 0 0.27664 63.729 24.902)"/><linearGradient gradientTransform="matrix(0.70629 0 0 0.87356 63.729 19.546)" gradientUnits="userSpaceOnUse" xlink:href="#N" id="R" y2="33.705" x2="30.955" y1="32.997" x1="34.09"/><linearGradient gradientTransform="matrix(0.26486 0 0 0.27664 63.729 25.866)" gradientUnits="userSpaceOnUse" id="W" y2="32.31" x2="53.57" y1="29.31" x1="39.761"><stop style="stop-opacity:0.504"/><stop offset="1" style="stop-opacity:0"/></linearGradient><linearGradient gradientTransform="matrix(0.79458 0 0 0.87356 57.843 19.546)" gradientUnits="userSpaceOnUse" xlink:href="#4" id="S" y2="32.389" x2="33.496" y1="29.12" x1="37.713"/><linearGradient gradientTransform="matrix(0.26486 0 0 0.32759 63.729 19.546)" gradientUnits="userSpaceOnUse" xlink:href="#4" id="U" y2="90.65" x2="53.733" y1="80.55" x1="46.667"/><linearGradient gradientTransform="matrix(0.26486 0 0 0.32759 102.57 19.546)" gradientUnits="userSpaceOnUse" id="t" y2="76.868" x2="-62.64" y1="146.06" x1="-81"><stop style="stop-opacity:0.606"/><stop offset="1" style="stop-opacity:0"/></linearGradient><linearGradient gradientUnits="userSpaceOnUse" xlink:href="#Y" id="c" y2="81.955" x2="0" y1="74.01" gradientTransform="matrix(0.26486 0 0 0.27664 53.927 25.866)"/><linearGradient gradientTransform="matrix(0.70629 0 0 0.73772 63.729 25.866)" gradientUnits="userSpaceOnUse" xlink:href="#i" id="k" x2="28.818" x1="25.8"/><linearGradient gradientUnits="userSpaceOnUse" xlink:href="#b" id="d" y2="78.4" x2="49.52" y1="81.955" x1="49.886" gradientTransform="matrix(0.26486 0 0 0.27664 45.701 23.937)"/><linearGradient gradientTransform="matrix(0.70629 0 0 0.73772 63.729 25.866)" gradientUnits="userSpaceOnUse" xlink:href="#i" id="l" y2="38.4" x2="32.976" y1="38.22" x1="28.93"/><linearGradient gradientTransform="matrix(0.26486 0 0 0.32759 63.729 19.546)" gradientUnits="userSpaceOnUse" xlink:href="#4" id="s" y2="101.4" x2="42.42" y1="73.38" x1="36"/><linearGradient gradientTransform="matrix(0.26486 0 0 0.32759 63.729 19.546)" gradientUnits="userSpaceOnUse" id="r" y2="86.12" x2="36" y1="85.23" x1="42.12"><stop style="stop-color:#ff0505"/><stop offset="1" style="stop-color:#fe2929"/></linearGradient><linearGradient gradientTransform="matrix(0.70629 0 0 0.73772 63.729 25.866)" gradientUnits="userSpaceOnUse" xlink:href="#i" id="j" y2="38.857" x2="19.476" y1="38.919" x1="15.374"/><linearGradient gradientUnits="userSpaceOnUse" xlink:href="#Y" id="e" y2="81.955" x2="0" y1="74.01" gradientTransform="matrix(0.26486 0 0 0.27664 45.701 23.937)"/><linearGradient id="i"><stop style="stop-color:#fe4b4b;stop-opacity:0"/><stop offset="0.5" style="stop-color:#fe4b4b"/><stop offset="1" style="stop-color:#fe4b4b;stop-opacity:0"/></linearGradient><linearGradient gradientUnits="userSpaceOnUse" xlink:href="#b" id="f" y2="78.4" x2="44.22" y1="81.05" x1="43.13" gradientTransform="matrix(0.26486 0 0 0.27664 36.02 22.01)"/><linearGradient gradientTransform="matrix(0.70629 0 0 0.73772 63.729 25.866)" gradientUnits="userSpaceOnUse" xlink:href="#i" id="h" x2="24" x1="20.961"/><linearGradient gradientUnits="userSpaceOnUse" xlink:href="#Y" id="g" y2="81.955" x2="0" y1="73.841" gradientTransform="matrix(0.26486 0 0 0.27664 36.02 22.01)"/><linearGradient gradientTransform="matrix(0.26486 0 0 0.32759 63.729 19.546)" gradientUnits="userSpaceOnUse" xlink:href="#N" id="T" y2="53.09" x2="46.667" y1="52.32" x1="53.58"/><linearGradient id="A"><stop style="stop-color:#fe4b4b"/><stop offset="1" style="stop-color:#fe4b4b;stop-opacity:0"/></linearGradient><linearGradient xlink:href="#D" id="E" gradientUnits="userSpaceOnUse" x1="34.3" y1="3.938" x2="35.521" y2="3.845" gradientTransform="matrix(0.26486 0 0 0.27664 17.573 8.21)"/><linearGradient gradientTransform="matrix(0.26486 0 0 0.32759 63.729 19.546)" gradientUnits="userSpaceOnUse" xlink:href="#N" id="P" y2="72.71" x2="69.38" y1="67.884" x1="77.27"/><linearGradient id="D"><stop style="stop-color:#db0000"/><stop offset="1" style="stop-color:#fe0a0a;stop-opacity:0"/></linearGradient><linearGradient gradientUnits="userSpaceOnUse" xlink:href="#D" id="C" y2="3.845" x2="35.521" y1="3.938" x1="34.3" gradientTransform="matrix(0.26486 0 0 0.27664 17.636 10.524)"/><linearGradient gradientTransform="matrix(0.29348 0 0 0.24966 20.583 12.145)" gradientUnits="userSpaceOnUse" xlink:href="#A" id="9" y2="55.2" x2="34.975" y1="13" x1="17.698"/><linearGradient id="4"><stop/><stop offset="1" style="stop-opacity:0"/></linearGradient><linearGradient gradientTransform="matrix(1.51106 0 0 0.04849 20.583 11.681)" gradientUnits="userSpaceOnUse" xlink:href="#4" id="8" y2="162.45" x2="0" y1="171.29"/><linearGradient gradientTransform="matrix(0.29925 0 0 0.24485 19.888 11.508)" gradientUnits="userSpaceOnUse" id="5" y2="33.34" x2="34.784" y1="7.229" x1="8.612"><stop style="stop-color:#fe2929"/><stop offset="1" style="stop-color:#ff1616"/></linearGradient><linearGradient gradientTransform="matrix(0.31098 0 0 0.26155 20.509 11.5)" gradientUnits="userSpaceOnUse" id="7" y2="8.867" x2="16.316" y1="32.622" x1="19.15"><stop style="stop-color:#a60000"/><stop offset="1" style="stop-color:#600"/></linearGradient><linearGradient gradientTransform="matrix(0.29251 0 0 0.25049 20.318 11.869)" gradientUnits="userSpaceOnUse" id="6" y2="31.25" x2="32.537" y1="5.382" x1="10.391"><stop style="stop-color:#da0000"/><stop offset="1" style="stop-color:#940000"/></linearGradient><linearGradient gradientTransform="matrix(0.32815 0 0 0.24786 20.474 11.5)" gradientUnits="userSpaceOnUse" id="B" y2="26.729" x2="17.199" y1="1.654" x1="11.492"><stop style="stop-color:#fe4b4b"/><stop offset="1" style="stop-color:#fe4848;stop-opacity:0"/></linearGradient><linearGradient gradientTransform="matrix(0.26486 0 0 0.32759 63.729 19.546)" gradientUnits="userSpaceOnUse" xlink:href="#4" id="O" y2="85.03" x2="0" y1="55.804"/><linearGradient xlink:href="#D" id="F" gradientUnits="userSpaceOnUse" x1="34.3" y1="3.938" x2="35.521" y2="3.845" gradientTransform="matrix(0.26486 0 0 0.27664 17.511 6.01)"/><linearGradient gradientTransform="matrix(0.26486 0 0 0.32759 63.729 19.546)" gradientUnits="userSpaceOnUse" xlink:href="#N" id="M" y2="73.858" x2="60" y1="72.21" x1="66.917"/><linearGradient id="N"><stop style="stop-color:#ff0505"/><stop offset="1" style="stop-color:#fe2929;stop-opacity:0"/></linearGradient><linearGradient gradientUnits="userSpaceOnUse" xlink:href="#D" id="H" y2="3.845" x2="35.521" y1="3.938" x1="34.3" gradientTransform="matrix(0.26486 0 0 0.27664 17.385 1.619)"/><linearGradient gradientUnits="userSpaceOnUse" xlink:href="#D" id="G" y2="3.845" x2="35.521" y1="3.938" x1="34.3" gradientTransform="matrix(0.26486 0 0 0.27664 17.448 3.816)"/><linearGradient gradientTransform="matrix(0 0.19366 0.18541 0 21.247 9.549)" gradientUnits="userSpaceOnUse" id="I" y2="16.357" x2="32.35" y1="58.08" x1="42.43"><stop style="stop-color:#fe1010"/><stop offset="1" style="stop-color:#fe4848"/></linearGradient><linearGradient gradientTransform="matrix(0 0.19366 0.18541 0 21.247 9.549)" gradientUnits="userSpaceOnUse" xlink:href="#A" id="J" y2="70.07" x2="52.13" y1="11.914" x1="28.835"/><radialGradient gradientTransform="matrix(0.26554 0.00046 0.00529 0.08976 -2.628 22.394)" gradientUnits="userSpaceOnUse" xlink:href="#4" id="3" r="18.06" cy="41.625" cx="25.19"/><radialGradient xlink:href="#L" id="q" gradientUnits="userSpaceOnUse" gradientTransform="matrix(0.28009 -0.03935 0.07277 0.78496 67.08 0.082)" cx="27.18" cy="77.35" r="28"/><radialGradient xlink:href="#L" id="p" gradientUnits="userSpaceOnUse" gradientTransform="matrix(0.28009 -0.03935 0.07277 0.78496 67.08 0.082)" cx="27.18" cy="77.35" r="28"/><radialGradient xlink:href="#L" id="n" gradientUnits="userSpaceOnUse" gradientTransform="matrix(0.28009 -0.03935 0.07277 0.78496 67.08 0.082)" cx="27.18" cy="77.35" r="28"/><radialGradient gradientTransform="matrix(0.26486 0 0 0.2078 63.729 27.884)" gradientUnits="userSpaceOnUse" id="V" r="6.904" cy="33.3" cx="46.665"><stop style="stop-color:#fe4b4b;stop-opacity:0.606"/><stop offset="1" style="stop-color:#fe4b4b;stop-opacity:0"/></radialGradient><radialGradient xlink:href="#L" id="o" gradientUnits="userSpaceOnUse" gradientTransform="matrix(0.28009 -0.03935 0.07277 0.78496 67.08 0.082)" cx="27.18" cy="77.35" r="28"/><radialGradient gradientTransform="matrix(0.28009 -0.03935 0.07277 0.78496 67.08 0.082)" gradientUnits="userSpaceOnUse" id="L" r="28" cy="77.35" cx="27.18"><stop style="stop-color:#fe3939"/><stop offset="1" style="stop-color:#ff1d1d"/></radialGradient><radialGradient gradientTransform="matrix(0.27655 0.00225 0.00017 0.08618 12.42 75.19)" gradientUnits="userSpaceOnUse" xlink:href="#4" id="K" r="18.06" cy="41.625" cx="25.19"/><radialGradient xlink:href="#L" id="m" gradientUnits="userSpaceOnUse" gradientTransform="matrix(0.28009 -0.03935 0.07277 0.78496 67.08 0.082)" cx="27.18" cy="77.35" r="28"/></defs><g transform="translate(0 -796.36)"><path d="m 203.23 821.34 c -192.46 -127.95 -311 280.09 -62.2 226.07 102.82 -23.02 165.22 -167.39 62.2 -226.07 z" style="fill:#fff;color:#000"/><g transform="matrix(3.49202 0 0 3.32438 44.44 855.96)"><path transform="matrix(0.17229 0.04787 -0.25222 1.14366 31.607 -8.786)" d="m 43.25 41.625 a 18.06 5.875 0 1 1 -36.12 0 18.07 5.877 0 1 1 36.13 0 z" style="fill:url(#3);opacity:0.267;color:#000;fill-rule:evenodd"/><g transform="matrix(1.08399 0 0 1.08399 -2.342 -2.432)"><g style="fill-rule:evenodd"><path d="m 7.581,4.571 h 33.588 c 0.911,0 1.624,0.583 1.667,1.402 l 1.332,25.578 c 0.058,1.118 -0.901,2.02 -2.02,2.02 H 6.603 c -1.119,0 -2.079,-0.903 -2.02,-2.02 L 5.915,5.973 C 5.955,5.199 6.463,4.571 7.582,4.571 z" style="fill:url(#5);stroke:url(#6);color:#000"/><path d="m 8.911,7.181 -1.242,22.05 h 31.65 L 37.984,7.279 8.914,7.186 z" style="fill:url(#7);stroke:#181818;stroke-linejoin:round;stroke-width:0.5"/></g><g style="fill:none"><path d="m 6.677 31.611 h 35.428" style="stroke-opacity:0.248;stroke:url(#8);stroke-linecap:round;stroke-width:0.996"/><path d="M 7.415,5.581 41.261,5.543 c 0.284,0 0.559,0.237 0.582,0.653 l 1.362,24.803 c 0.058,1.057 -0.54,1.786 -1.598,1.786 H 7.083 c -1.059,0 -1.593,-0.729 -1.536,-1.786 L 6.871,6.505 C 6.91,5.789 7.037,5.582 7.416,5.581 z" style="stroke-opacity:0.701;stroke:url(#9);color:#000"/></g><g style="fill-rule:evenodd"><path d="M 9.145,7.43 8.133,25.49 C 19.173,23.089 24.293,14.92 38.027,12.266 L 37.742,7.505 9.145,7.428 z" style="fill:url(#B);opacity:0.531"/><g style="color:#000"><use transform="matrix(1.33124 0 0 0.65845 -5.919 5.729)" xlink:href="#1" width="256" height="256" style="fill:url(#C)"/><use transform="matrix(1.33124 0 0 0.65845 -5.806 7.835)" xlink:href="#1" width="256" height="256" style="fill:url(#E)"/><use transform="matrix(1.33124 0 0 0.65845 -5.692 9.835)" xlink:href="#1" width="256" height="256" style="fill:url(#F)"/><use transform="matrix(1.33124 0 0 0.65845 -5.579 11.835)" xlink:href="#1" width="256" height="256" style="fill:url(#G)"/><use transform="matrix(1.33124 0 0 0.65845 -5.465 13.835)" xlink:href="#1" width="256" height="256" style="fill:url(#H)"/></g></g><path d="m 22.5,30.19 h 0.282 c 0.084,0 0.148,0.019 0.193,0.056 0.045,0.037 0.067,0.09 0.067,0.159 0,0.069 -0.022,0.122 -0.067,0.16 -0.045,0.037 -0.109,0.056 -0.193,0.056 H 22.67 v 0.228 H 22.5 v -0.658 m 0.17,0.123 v 0.184 h 0.094 c 0.033,0 0.058,-0.008 0.076,-0.024 0.018,-0.016 0.027,-0.039 0.027,-0.068 0,-0.029 -0.009,-0.052 -0.027,-0.068 -0.018,-0.016 -0.043,-0.024 -0.076,-0.024 H 22.67 m 0.792,-0.012 c -0.052,0 -0.092,0.019 -0.12,0.057 -0.029,0.038 -0.043,0.092 -0.043,0.161 0,0.069 0.014,0.123 0.043,0.161 0.029,0.038 0.069,0.057 0.12,0.057 0.052,0 0.092,-0.019 0.121,-0.057 0.029,-0.038 0.043,-0.092 0.043,-0.161 0,-0.069 -0.014,-0.123 -0.043,-0.161 -0.029,-0.038 -0.069,-0.057 -0.121,-0.057 m 0,-0.123 c 0.106,0 0.189,0.03 0.249,0.091 0.06,0.061 0.09,0.144 0.09,0.251 0,0.106 -0.03,0.19 -0.09,0.25 -0.06,0.061 -0.143,0.091 -0.249,0.091 -0.106,0 -0.188,-0.03 -0.249,-0.091 -0.06,-0.061 -0.09,-0.144 -0.09,-0.25 0,-0.107 0.03,-0.19 0.09,-0.251 0.06,-0.061 0.143,-0.091 0.249,-0.091 m 0.466,0.012 h 0.19 l 0.239,0.451 v -0.451 h 0.161 v 0.658 h -0.19 l -0.239,-0.451 v 0.451 h -0.161 v -0.658 m 0.663,0 h 0.186 l 0.15,0.235 0.15,-0.235 h 0.186 l -0.251,0.381 v 0.277 h -0.17 v -0.277 l -0.251,-0.381" style="fill:#7c0000"/></g><path d="M 11.03,28.618 38.417,8.996 39.579,28.618 H 11.031 z M 24.9,24.462 h 9.801 l -0.44,-6.332 -9.36,6.332 z" style="fill:url(#I);stroke:#f60000;fill-rule:evenodd;stroke-width:0.719"/><g style="stroke-width:0.7"><path d="M 38.896,27.927 13.235,27.94 37.777,10.326 38.896,27.927 z" style="fill:none;opacity:0.639;stroke:url(#J)"/><g style="fill:#600000;fill-opacity:0.75;stroke:#f60000;fill-rule:evenodd;stroke-linecap:square"><path d="m 36.877 27.944 v -0.531"/><path d="m 34.08 27.944 v -0.531"/><path d="m 31.28 27.944 v -0.531"/><path d="m 28.476 27.944 v -0.531"/><path d="m 25.676 27.944 v -0.531"/><path d="m 22.876 27.944 v -0.531"/><path d="m 20.08 27.944 v -0.531"/><path d="m 17.276 27.944 v -0.531"/></g></g><path transform="matrix(0.07223 0.96475 -0.37547 0.04279 59.24 -6.391)" d="m 43.25 41.625 a 18.06 5.875 0 1 1 -36.12 0 18.07 5.877 0 1 1 36.13 0 z" style="fill:url(#K);opacity:0.267;color:#000;fill-rule:evenodd"/><g transform="matrix(0.3375 0 0 0.36444 -3.398 1.13)" style="stroke-width:1.426"><path transform="matrix(1 0 0 0.98297 0 0.417)" d="m 46.667,24.521 c -3.163,0 -5.817,1.039 -6.5,4.539 -0.01,0.025 0.009,0.073 0,0.099 -0.006,0.032 0.005,0.067 0,0.099 C 40.085,29.517 40,29.754 40,30.047 v 0.789 38.38 L 36.667,66.549 C 35.559,66.549 32,88.729 32,90.039 l 9.333,29.998 c 0,1.312 0.892,2.368 2,2.368 H 82 c 1.108,0 8.667,-21.581 8.667,-22.893 V 59.795 c 0,-1.312 -0.892,-2.368 -2,-2.368 l -8,-1.333 c -1.108,0 -2,1.056 -2,2.368 v -3.158 c 0,-1.312 -0.892,-2.368 -2,-2.368 h -8 c -1.108,0 -2,1.056 -2,2.368 v -3.158 c 0,-1.312 -0.892,-2.368 -2,-2.368 h -9.333 c -1.108,0 -2,1.056 -2,2.368 V 30.831 30.042 c 0,-0.293 -0.085,-0.531 -0.167,-0.789 -0.011,-0.064 0.012,-0.134 0,-0.197 -0.683,-3.501 -3.337,-4.539 -6.5,-4.539 z" style="opacity:0.15;fill-opacity:0.358;stroke:#181818;stroke-linecap:round;stroke-linejoin:round;stroke-width:1.438;filter:url(#2)"/><path d="m 46.667,24.521 c -3.163,0 -5.817,1.039 -6.5,4.539 -0.01,0.025 0.009,0.073 0,0.099 -0.006,0.032 0.005,0.067 0,0.099 C 40.085,29.517 40,29.754 40,30.047 v 0.789 38.38 L 36.667,66.549 C 35.559,66.549 32,88.729 32,90.039 l 9.333,29.998 c 0,1.312 0.892,2.368 2,2.368 H 82 c 1.108,0 8.667,-21.581 8.667,-22.893 L 89.334,59.795 c 0,-1.312 -0.892,-2.368 -2,-2.368 l -6.667,-1.333 c -1.108,0 -2,1.056 -2,2.368 v -3.158 c 0,-1.312 -0.892,-2.368 -2,-2.368 h -8 c -1.108,0 -2,1.056 -2,2.368 v -3.158 c 0,-1.312 -0.892,-2.368 -2,-2.368 h -9.333 c -1.108,0 -2,1.056 -2,2.368 V 30.831 30.042 c 0,-0.293 -0.085,-0.531 -0.167,-0.789 -0.011,-0.064 0.012,-0.134 0,-0.197 -0.683,-3.501 -3.337,-4.539 -6.5,-4.539 z" style="fill:url(#L)"/><g style="stroke-linecap:round;stroke-linejoin:round"><g><rect y="49.782" x="53.33" ry="0.553" rx="0.53" height="63.15" width="13.333" style="fill:url(#M);stroke:url(#O)"/><path d="m 68.917 52.94 h 7.5 c 1.246 0 2.25 1.056 2.25 2.368 v 55.26 c 0 1.312 -1 2.368 -2.25 2.368 h -7.5 c -1.246 0 -2.25 -1.056 -2.25 -2.368 v -55.26 c 0 -1.312 1 -2.368 2.25 -2.368 z" style="fill:url(#P);stroke:url(#Q)"/><path d="m 80.67,56.1 c -0.529,0 -0.976,0.296 -1.333,0.691 -0.203,0.214 -0.386,0.506 -0.5,0.789 -0.114,0.284 -0.167,0.56 -0.167,0.888 v 55.26 c 0,1.312 1,2.368 2.25,2.368 h 3.083 c 2.603,-5.324 6.667,-15.61 6.667,-16.578 L 89.337,59.801 c 0,-0.328 -0.053,-0.605 -0.167,-0.888 -0.114,-0.284 -0.297,-0.575 -0.5,-0.789 -0.185,-0.195 -0.343,-0.376 -0.583,-0.493 -0.025,-0.013 -0.057,0.011 -0.083,0 -0.198,-0.088 -0.444,-0.172 -0.667,-0.197 L 80.67,56.101 z" style="fill:url(#R);stroke:url(#S)"/><path d="m 46.667,24.521 c -3.126,0 -5.697,1 -6.417,4.441 -0.019,0.043 -0.067,0.055 -0.083,0.099 -0.012,0.063 0.011,0.133 0,0.197 C 40.103,29.481 40,29.701 40,29.949 v 0.888 39.27 37 c 0,1.258 0.892,2.27 2,2.27 h 9.333 c 1.108,0 2,-1.012 2,-2.27 V 51.156 30.828 29.94 c 0,-0.248 -0.103,-0.468 -0.167,-0.691 -0.018,-0.104 -0.062,-0.193 -0.083,-0.296 -0.719,-3.44 -3.29,-4.441 -6.417,-4.441 z" style="fill:url(#T);stroke:url(#U)"/><path d="m 46.667 24.521 c -3.126 0 -5.697 1 -6.417 4.441 -0.019 0.043 -0.067 0.055 -0.083 0.099 0.017 0.062 -0.019 0.136 0 0.197 0.877 2.812 3.461 4.835 6.5 4.835 3.046 0 5.629 -2.01 6.5 -4.835 0.009 -0.029 -0.009 -0.069 0 -0.099 -0.02 -0.068 -0.068 -0.125 -0.083 -0.197 -0.719 -3.44 -3.29 -4.441 -6.417 -4.441 z" style="fill:url(#V);stroke:url(#W)"/><g style="fill:none"><use transform="translate(0 1.333)" xlink:href="#0" width="256" height="256" style="stroke:url(#X)"/><use transform="translate(0 -22.667)" xlink:href="#0" width="256" height="256" style="stroke:url(#Z)"/></g><use transform="translate(13.333)" xlink:href="#0" width="256" height="256" style="fill:url(#a);stroke:url(#c)"/></g><use transform="matrix(0.91533 0 0 1 29.787 2.667)" xlink:href="#0" width="256" height="256" style="fill:url(#d);stroke:url(#e);stroke-width:1.49"/><use transform="matrix(0.90121 0 0 1 42.529 5.333)" xlink:href="#0" width="256" height="256" style="fill:url(#f);stroke:url(#g);stroke-width:1.502"/></g><path d="m 46.667 24.5 c -3.126 0 -5.744 0.996 -6.463 4.436 -0.019 0.043 -0.021 0.104 -0.037 0.148 0.017 0.062 -0.019 0.106 0 0.167 0.064 0.206 0.654 0.129 0.736 0.326 0.442 -3.269 2.632 -4.385 5.761 -4.364 3.431 0.023 5.108 1.137 5.827 4.406 0.082 -0.197 0.612 -0.161 0.676 -0.367 0.009 -0.029 -0.009 -0.054 0 -0.083 -0.02 -0.068 -0.022 -0.095 -0.037 -0.167 -0.719 -3.44 -3.336 -4.5 -6.463 -4.5 z" style="fill:#ff3232;fill-opacity:0.513"/><path d="m 63.33,81.17 c -0.942,0.357 -2.111,0.5 -3.333,0.5 -1.055,0 -1.976,-0.145 -2.833,-0.417 l -1.417,0.25 c -1.087,0.174 -1.919,1.23 -1.833,2.333 l 2.917,37.417 c 0.037,0.481 0.268,0.87 0.583,1.167 h 4.833 l 2.75,-0.417 c 1.087,-0.174 1.919,-1.23 1.833,-2.333 L 63.913,82.253 C 63.878,81.809 63.596,81.462 63.33,81.17 z" style="fill:url(#h);opacity:0.18"/><path d="m 41.5 81.33 c -0.991 0.255 -1.747 1.211 -1.667 2.25 l 2.917 38.667 v 0.083 c 0.191 0.072 0.372 0.083 0.583 0.083 h 8.75 c 0.434 -0.421 0.716 -1.031 0.667 -1.667 l -2.833 -38.25 c -0.928 0.34 -2.06 0.5 -3.25 0.5 -2.241 0 -4.166 -0.636 -5.167 -1.667 z" style="fill:url(#j);opacity:0.206"/><path d="m 76.83 83.08 c -0.987 0.798 -2.573 1.25 -4.333 1.25 -1.462 0 -2.777 -0.339 -3.75 -0.917 -0.112 0.229 -0.236 0.557 -0.25 0.833 l -1.833 37.583 c -0.011 0.216 0.029 0.385 0.083 0.583 h 9.917 l 1.833 -37.17 c 0.051 -1.041 -0.662 -1.968 -1.667 -2.167 z" style="fill:url(#k);opacity:0.206"/><path d="m 79.42,84.42 -3.667,37.25 c -0.024,0.248 0.024,0.512 0.083,0.75 h 6.167 c 0.572,0 2.835,-5.757 4.917,-11.5 l 2.417,-24.5 c 0.033,-0.337 -0.05,-0.693 -0.167,-1 -0.927,0.971 -2.635,1.583 -4.583,1.583 -2.57,0 -4.67,-1.077 -5.167,-2.583 z" style="fill:url(#l);opacity:0.206"/><g style="fill:url(#m)"><path d="m 41.667 26.08 c -0.464 0.44 -0.799 0.99 -1.083 1.667 0.29 -0.713 0.685 -1.213 1.167 -1.667 -0.017 0.015 -0.067 -0.016 -0.083 0 z" style="fill:url(#n)"/><path d="m 40.583 27.75 c -0.165 0.392 -0.323 0.852 -0.417 1.333 0.016 -0.044 0.065 -0.041 0.083 -0.083 0.09 -0.43 0.188 -0.893 0.333 -1.25 z" style="fill:url(#o)"/><path d="m 51.583 26.08 c 0.481 0.453 0.876 0.953 1.167 1.667 -0.294 -0.701 -0.68 -1.219 -1.167 -1.667 z" style="fill:url(#p)"/><path d="m 52.75 27.75 c 0.145 0.357 0.243 0.82 0.333 1.25 0.009 0.041 0.071 0.045 0.083 0.083 -0.094 -0.481 -0.252 -0.941 -0.417 -1.333 z" style="fill:url(#q)"/></g><g style="stroke-linecap:round;stroke-linejoin:round"><path d="M 36.667,66.58 C 35.559,66.58 32,88.77 32,90.08 l 8,25.667 V 70.08 69.247 L 36.667,66.58 z" style="fill:url(#r);stroke:url(#s)"/><path d="m 46.667,24.521 c -3.163,0 -5.817,1.039 -6.5,4.539 -0.01,0.025 0.009,0.073 0,0.099 -0.006,0.032 0.005,0.067 0,0.099 C 40.085,29.517 40,29.754 40,30.047 v 0.789 38.38 L 36.667,66.549 C 35.559,66.549 32,88.729 32,90.039 l 9.333,29.998 c 0,1.312 0.892,2.368 2,2.368 H 82 c 1.108,0 8.667,-21.581 8.667,-22.893 L 89.334,59.795 c 0,-1.312 -0.892,-2.368 -2,-2.368 l -6.667,-1.333 c -1.108,0 -2,1.056 -2,2.368 v -3.158 c 0,-1.312 -0.892,-2.368 -2,-2.368 h -8 c -1.108,0 -2,1.056 -2,2.368 v -3.158 c 0,-1.312 -0.892,-2.368 -2,-2.368 h -9.333 c -1.108,0 -2,1.056 -2,2.368 V 30.831 30.042 c 0,-0.293 -0.085,-0.531 -0.167,-0.789 -0.011,-0.064 0.012,-0.134 0,-0.197 -0.683,-3.501 -3.337,-4.539 -6.5,-4.539 z" style="fill:none;stroke:url(#t)"/></g></g></g></g></svg>