<svg xmlns="http://www.w3.org/2000/svg" viewBox="0 0 256 256"><defs><filter height="1.059" y="-0.029" width="8.642" x="-3.821" id="0"><feGaussianBlur stdDeviation="0.54031"/></filter><linearGradient gradientUnits="userSpaceOnUse" x2="47.913" x1="46.574" id="1"><stop/><stop offset="1" style="stop-opacity:0"/></linearGradient></defs><path d="m 52.77 231.02 c 192.46 127.95 311 -280.09 62.2 -226.07 -102.82 23.02 -165.22 167.39 -62.2 226.07 z" style="fill:#fff;color:#000"/><g transform="matrix(2.92697 0 0 2.97336 56.961 -2927.14)" style="fill:#ff4500"><path d="m 47.24 1005.75 c 0.024 0.205 -0.04 0.427 0 0.628 0.042 0.212 0.135 0.413 0.157 0.628 0.031 0.312 0 0.628 0 0.942 0 0.785 0 1.569 0 2.354 0 5.441 0 10.882 0 16.323 0 1.883 0 3.767 0 5.65 0 0.628 0 1.256 0 1.883 0 0.209 0.023 0.42 0 0.628 -0.029 0.265 -0.124 0.52 -0.157 0.785 -0.039 0.312 0 0.628 0 0.942 0 0.418 0 0.837 0 1.256 0 0.889 0 1.779 0 2.668 0 0.314 0.028 0.629 0 0.942 -0.024 0.266 -0.13 0.519 -0.157 0.785 -0.026 0.26 0 0.523 0 0.785 0 0.262 0 0.523 0 0.785 0 1.36 0 2.72 0 4.081 0 0.074 -0.007 0.778 0 0.785 0.037 0.037 0.12 -0.037 0.157 0 0.005 0 0 0.433 0 0.471 0 0.209 0 0.419 0 0.628 0 0.052 0 0.105 0 0.157 0 0.052 0.052 0.157 0 0.157 -0.052 0 -0.037 -0.12 0 -0.157 0.037 -0.037 0.105 0 0.157 0" style="stroke:url(#1);filter:url(#0)"/><g style="stroke:#ffdead"><rect ry="1.337" rx="1.587" y="1005.25" x="-2.089" height="44.923" width="52.33" style="stroke-width:1.077"/><rect ry="1.323" rx="2.378" y="1015.32" x="1.351" height="25.12" width="45.38" style="stroke-width:1.312"/></g><text transform="scale(0.91383 1.09429)" y="946.84" x="1.297" style="font-size:20.814;font-family:Bitstream Vera Sans;fill:#ffdead"><tspan y="946.84" x="1.297">MIPS</tspan></text></g></svg>