<svg xmlns="http://www.w3.org/2000/svg" viewBox="0 0 256 256"><g transform="translate(-22.904 28.319)"><path d="m 28.483 70.48 c 49.33 -237.88 388.7 17.492 184.83 138.4 -79.19 51.828 -210.21 -16.06 -184.83 -138.4 z" style="fill:#fff;color:#000"/><g transform="matrix(4.54142 0 0 4.693 39.626 -9.87)" style="fill:#ff4500"><g transform="scale(3.54331)"><path d="m 7.06,2.822 c -2.338,0 -4.233,1.895 -4.233,4.233 0,2.338 1.895,4.233 4.233,4.233 2.338,0 4.233,-1.895 4.233,-4.233 0,-2.338 -1.895,-4.233 -4.233,-4.233 z m 0,0.564 c 2.026,0 3.669,1.643 3.669,3.669 0,2.026 -1.643,3.669 -3.669,3.669 -2.026,0 -3.669,-1.643 -3.669,-3.669 0,-2.026 1.643,-3.669 3.669,-3.669 z m -1.693,1.128 0,5.08 4.515,-2.54 z" style="opacity:0.1"/><path d="m 5.08,4.233 0,5.08 4.516,-2.54"/></g><path d="M 24 9 A 15 15 0 0 0 9 24 15 15 0 0 0 24 39 15 15 0 0 0 39 24 15 15 0 0 0 24 9 z m 0 2 A 13 13 0 0 1 37 24 13 13 0 0 1 24 37 13 13 0 0 1 11 24 13 13 0 0 1 24 11 z"/></g></g></svg>