<svg xmlns="http://www.w3.org/2000/svg" viewBox="0 0 256 256"><g transform="translate(0 -796.36)"><path d="m 54.15 823.33 c 188.96 -126.21 305.35 276.27 61.07 222.99 -100.95 -22.706 -162.22 -165.11 -61.07 -222.99" style="fill:#fff;color:#000"/><g transform="translate(27.1 22.78)" style="fill:#ff4500"><path d="m 39.88 962.58 c 0 -2.839 0.557 -4.578 1.601 -4.998 0.881 -0.354 1.601 -1.923 1.601 -3.486 0 -1.563 0.961 -3.704 2.135 -4.757 1.174 -1.053 2.135 -3.067 2.135 -4.474 0 -1.407 0.961 -3.42 2.135 -4.474 1.174 -1.053 2.135 -3.067 2.135 -4.474 0 -1.407 0.961 -3.42 2.135 -4.474 1.174 -1.053 2.135 -3.067 2.135 -4.474 0 -1.407 0.961 -3.42 2.135 -4.474 1.174 -1.053 2.135 -3.296 2.135 -4.983 0 -1.923 0.797 -3.514 2.135 -4.265 1.252 -0.702 2.135 -2.342 2.135 -3.965 0 -1.522 0.961 -3.63 2.135 -4.683 1.174 -1.053 2.135 -3.067 2.135 -4.474 0 -1.407 0.961 -3.42 2.135 -4.474 1.174 -1.053 2.135 -3.067 2.135 -4.474 0 -1.407 0.961 -3.42 2.135 -4.474 1.174 -1.053 2.135 -3.067 2.135 -4.474 0 -1.407 0.961 -3.42 2.135 -4.474 1.174 -1.053 2.135 -3.296 2.135 -4.983 0 -1.923 0.797 -3.514 2.135 -4.265 1.252 -0.702 2.135 -2.342 2.135 -3.965 0 -1.522 0.961 -3.63 2.135 -4.683 1.174 -1.053 2.135 -3.067 2.135 -4.474 0 -1.407 0.961 -3.42 2.135 -4.474 1.174 -1.053 2.135 -3.067 2.135 -4.474 0 -1.407 0.961 -3.42 2.135 -4.474 1.174 -1.053 2.135 -2.963 2.135 -4.244 0 -3.616 6.681 -10.595 10.143 -10.595 3.461 0 10.143 6.979 10.143 10.595 0 1.281 0.961 3.191 2.135 4.244 1.174 1.053 2.135 3.067 2.135 4.474 0 1.407 0.961 3.42 2.135 4.474 1.174 1.053 2.135 3.067 2.135 4.474 0 1.407 0.961 3.42 2.135 4.474 1.174 1.053 2.135 3.161 2.135 4.683 0 1.623 0.883 3.263 2.135 3.965 1.338 0.75 2.135 2.342 2.135 4.265 0 1.687 0.961 3.929 2.135 4.983 1.174 1.053 2.135 3.161 2.135 4.683 0 1.623 0.883 3.263 2.135 3.965 1.338 0.75 2.135 2.342 2.135 4.265 0 1.687 0.961 3.929 2.135 4.983 1.174 1.053 2.135 3.067 2.135 4.474 0 1.407 0.961 3.42 2.135 4.474 1.174 1.053 2.135 3.161 2.135 4.683 0 1.623 0.883 3.263 2.135 3.965 1.358 0.761 2.135 2.342 2.135 4.34 0 1.728 0.961 4.054 2.135 5.167 1.174 1.113 2.135 3.127 2.135 4.474 0 1.347 0.961 3.36 2.135 4.474 1.174 1.113 2.135 3.127 2.135 4.474 0 1.347 0.961 3.36 2.135 4.474 1.174 1.113 2.135 3.127 2.135 4.474 0 1.347 0.961 3.36 2.135 4.474 1.174 1.113 2.135 3.175 2.135 4.581 0 1.406 0.48 2.868 1.068 3.248 0.587 0.38 1.068 2.675 1.068 5.099 v 4.408 h -68.33 h -68.33 z m 69.875 -53.9 c -0.344 -0.583 0.23 1.419 -0.326 1.779 -0.556 0.36 -2.186 0.258 -1.842 0.841 0.344 0.583 1.226 -0.545 1.782 -0.905 0.556 -0.36 0.73 -1.131 0.386 -1.714 z"/><path d="m 88.65 957.26 c -1.276 -1.337 -2.833 -4.659 -1.225 -4.659 0.881 0 1.601 0.725 1.601 1.612 0 1.869 0.62 4.091 -0.377 3.047 z m 44.24 -2.738 c -0.546 -1.504 -1.75 -3.039 -2.676 -3.411 -1.014 -0.408 -1.683 -2.01 -1.683 -4.03 0 -2.206 -0.729 -3.76 -2.135 -4.548 -1.505 -0.844 -2.135 -2.342 -2.135 -5.072 0 -3.432 10.598 13.01 8.129 13.01 -2.6 0 -13.659 -17.15 -13.02 -20.74 0.567 -3.167 3.359 3.207 1.574 2.206 -1.203 -0.675 -5.23 -9.627 -5.23 -11.03 0 -3.197 -1.892 -5.217 -4.887 -5.217 -2.773 0 -4.383 1.814 -4.886 5.505 -0.546 4.01 -3.621 5.501 -3.621 1.569 0 -5.366 -0.841 -7.07 -14.899 -7.07 -13.704 0 -15.481 0.603 -15.481 5.257 0 1.581 -0.64 2.572 -1.66 2.572 -1.314 0 -1.592 -1.107 -1.335 -5.313 l 0.325 -5.313 l 18.393 -0.306 c 17.07 -0.284 18.474 -0.465 19.522 -2.516 1.474 -2.886 5.972 -2.886 7.447 0 1.048 2.051 2.457 2.233 19.522 2.516 17.584 0.292 18.393 0.404 18.393 2.543 0 2.122 -0.81 2.253 -15.748 2.546 -11.456 0.225 -15.782 0.682 -15.874 1.678 -0.272 2.941 0.412 4.722 2.363 6.154 1.147 0.842 2.034 2.811 2.034 4.515 0 1.812 -1.765 -1.221 -0.485 -0.384 1.295 0.847 4.755 7.412 4.755 9.277 0 1.866 0.841 3.627 2.135 4.474 1.188 0.777 3.571 5.48 3.571 6.999 0 1.502 14.769 -35.583 15.71 -35.03 0.398 0.233 3.629 -1.829 2.792 1.022 -3.199 10.9 -16.978 39.845 -18.596 40.41 -0.73 0.255 -1.775 -0.767 -2.32 -2.271 z m -49.734 -9.75 c 0.996 0 1.601 1.056 1.601 2.796 8.265 15.35 -0.768 13.316 -1.601 -2.796 z m 3.446 8.91 c 0 -1.74 4.099 -8.91 5.095 -8.91 0.996 0 1.601 1.056 1.601 2.796 0 1.74 -0.605 2.796 -1.601 2.796 -0.996 0 -5.095 5.057 -5.095 3.318 z m 1.155 3.302 c -2.034 -2.131 17.409 -41.13 20.22 -43.06 1.446 -0.993 -10.937 23.813 -10.747 22.13 0.187 -1.658 7.208 -18.385 7.942 -18.638 0.946 -0.325 -0.46 1.137 -0.46 5.02 0 4.539 -2.656 11.839 -5.136 14.328 -2.324 2.332 -10.825 21.263 -11.818 20.222 z m -10.287 -18.535 c 0.219 -1.995 -0.728 -1.154 0.501 -1.398 1.573 -0.313 3.317 0.222 3.037 2.777 -0.219 1.995 -0.708 1.154 -1.936 1.398 -1.573 0.313 -1.882 -0.222 -1.601 -2.777 z m -4.994 -5.984 c -1.094 -1.855 -4.247 -13.394 -2.756 -12.874 1.652 0.577 19.483 33.539 17.84 34.11 -0.379 0.132 2.858 6.795 -0.197 3.145 -2.422 -2.893 -9.684 -14.03 -9.862 -14.334 z m 21.988 -44.989 c 0 -4.279 12.393 12.961 12.885 17.315 0.239 2.119 1.908 6.658 0.723 6.658 -1.156 0 -13.609 -21.588 -13.609 -23.973 z m 21.451 15.16 c 0.492 -4.354 3.01 -4.738 3.01 -0.459 0 2.385 -0.516 3.449 -1.672 3.449 -1.185 0 -1.574 -0.871 -1.335 -2.989 z m -17.279 -8.754 c 0 -1.74 -8.727 -20.384 -7.731 -20.384 0.996 0 10.934 18.644 10.934 20.384 0 1.74 8.727 16.795 7.731 16.795 -0.996 0 -10.934 -15.05 -10.934 -16.795 z m 12.935 16.318 c 0.492 -4.354 19.945 -38.779 19.945 -34.5 0 2.385 -16.02 34.977 -17.17 34.977 -1.185 0 -3.01 1.642 -2.77 -0.477 z m -18.257 -23.785 c -10.01 -28.434 1.684 -6.354 3.233 -4.675 1.707 1.852 0.81 6.463 -1.38 6.901 -1.349 0.269 -1.229 -0.456 -1.852 -2.225 z m 31.14 -0.995 c 0.189 -2.02 3.849 -9.271 4.625 -9.538 1.019 -0.351 -1.556 5.918 -1.804 8.567 -0.189 2.02 -0.978 3.887 -1.754 4.154 -1.019 0.351 -1.315 -0.534 -1.068 -3.183 z m 4.08 -8.557 c 0 -5.478 -1.284 -5.909 -17.616 -5.909 -15.949 0 -17.616 0.497 -17.616 5.257 0 1.581 -0.64 2.572 -1.66 2.572 -1.314 0 -4.733 -5.183 -2.354 -8.661 l 1.344 -1.965 h 20.285 h 20.285 l 1.456 2.442 c 1.743 2.925 -1.964 8.733 -2.79 9.02 -0.862 0.301 -1.335 -0.676 -1.335 -2.759 z" style="fill:#ffdead"/></g></g></svg>