<svg xmlns="http://www.w3.org/2000/svg" viewBox="0 0 256 256"><g transform="translate(0 -796.36)"><path d="m 256.23 926.75 c -5.55 154.1 -227.2 166.81 -250.11 23.05 -21.59 -135.46 152.84 -207.84 226.93 -99.83 c 15.458 22.535 24.2 48.5 23.18 76.78 z" style="fill:#fff;color:#000"/><g transform="matrix(-5.78767 0 0 5.76503 271.39 -5001.32)"><path d="m 43.41 1019.29 l -4.357 9.721 l 6.909 3.121 c -0.288 1.804 -0.795 3.611 -1.577 5.355 -2.636 5.882 -7.618 9.977 -13.371 11.717 l -4.232 -1.912 l -1.034 2.307 l -17.956 -8.111 l 1.034 -2.307 l 0.031 0.014 l 2.647 -5.907 l -5.975 -2.699 l 9.762 -21.782 l 1.774 0.801 l 0.813 -1.815 c 0.016 -0.01 0.029 -0.011 0.045 -0.017 l 15.38 6.319 l 10.11 5.194 z" style="fill:#ff4500"/><path d="m 33.722 1008.25 c 1.375 0.621 2.657 1.379 3.835 2.23 1.178 0.851 2.243 1.793 3.209 2.835 0.966 1.043 1.84 2.173 2.578 3.369 0.739 1.194 1.343 2.437 1.841 3.745 0.497 1.308 0.888 2.681 1.13 4.063 0.241 1.383 0.34 2.807 0.31 4.226 -0.028 1.332 -0.19 2.65 -0.469 3.982 -0.925 -0.224 -1.871 -0.478 -2.8 -0.732 -1.506 -0.412 -2.927 -0.857 -3.986 -1.339 -0.529 -0.239 -0.986 -0.513 -1.293 -0.762 -0.31 -0.248 -0.536 -0.404 -0.606 -0.629 -0.271 -0.865 -0.58 -1.944 -0.342 -3.281 0.017 -0.1 0.106 -0.41 0.152 -0.499 0.055 -0.087 0.145 -0.21 0.274 -0.374 0.307 -0.39 0.738 -0.91 1.139 -1.511 0.401 -0.602 0.776 -1.25 0.917 -1.967 0.139 -0.706 0.023 -1.494 -0.484 -2.172 -0.202 -0.248 -0.495 -0.441 -0.775 -0.493 -0.29 -0.055 -0.589 -0.001 -0.895 0.093 -0.614 0.188 -1.254 0.609 -1.868 1.075 -0.611 0.464 -1.191 0.987 -1.665 1.416 -0.238 0.215 -0.449 0.36 -0.617 0.503 -0.075 0.064 -0.136 0.133 -0.181 0.167 -0.045 0.035 -0.069 0.056 -0.055 0.046 -0.038 0.026 -0.083 0.043 -0.128 0.049 0.027 -0.01 -0.093 0.01 -0.174 -0.01 -0.124 -0.025 -0.205 -0.049 -0.309 -0.103 -0.054 -0.025 -0.096 -0.073 -0.121 -0.126 -0.006 -0.015 -0.011 -0.029 -0.016 -0.043 -0.016 -0.057 -0.013 -0.12 0.007 -0.175 0.008 -0.031 0.022 -0.063 0.04 -0.089 0.117 -0.138 0.359 -0.362 0.704 -0.779 0.402 -0.486 0.846 -1.115 1.258 -1.777 0.413 -0.662 0.755 -1.365 0.885 -2.052 0.127 -0.671 0.032 -1.38 -0.472 -1.883 -0.755 -0.763 -1.675 -0.883 -2.386 -0.545 -0.749 0.354 -1.369 1.082 -1.921 1.904 -0.549 0.819 -1.013 1.731 -1.346 2.448 -0.166 0.358 -0.285 0.633 -0.384 0.857 -0.009 0.021 -0.02 0.044 -0.026 0.058 -0.018 0.041 -0.048 0.077 -0.082 0.105 -0.038 0.026 -0.083 0.042 -0.128 0.049 -0.034 0.01 -0.069 0 -0.102 -0.012 -0.06 -0.018 -0.126 -0.01 -0.233 -0.039 -0.372 -0.092 -0.886 -0.261 -1.512 -0.434 -1.25 -0.347 -2.922 -0.752 -4.684 -1.05 -1.763 -0.298 -3.635 -0.465 -5.272 -0.214 -1.632 0.25 -3.055 0.917 -3.891 2.258 -0.521 0.83 -0.251 1.966 0.31 3.196 0.56 1.228 1.431 2.594 2.413 3.897 0.981 1.302 2.039 2.553 2.891 3.544 0.426 0.496 0.781 0.924 1.068 1.264 0.145 0.172 0.272 0.329 0.367 0.45 0.094 0.121 0.156 0.194 0.2 0.268 0.3 0.502 0.34 0.941 0.217 1.341 -0.126 0.409 -0.394 0.773 -0.697 1 -0.011 0 -0.02 -0.013 -0.029 -0.014 -0.002 -0.001 -0.01 0.027 -0.014 0.031 -0.002 -0.001 -0.027 -0.013 -0.029 -0.014 -0.003 0 -0.012 0.029 -0.014 0.031 -0.085 0.052 -0.166 0.074 -0.313 0.143 -0.178 0.083 -0.423 0.199 -0.668 0.302 -0.489 0.205 -1.066 0.451 -1.638 0.718 -0.572 0.267 -1.136 0.562 -1.572 0.889 -0.443 0.333 -0.787 0.675 -0.836 1.15 -0.001 0.015 0.031 -0.01 0.029 0.014 -0.006 0.121 0.083 0.256 0.143 0.314 0.085 0.08 0.155 0.143 0.269 0.192 0.212 0.095 0.473 0.152 0.792 0.215 0.634 0.124 1.458 0.198 2.288 0.291 0.831 0.089 1.667 0.184 2.288 0.291 0.226 0.038 0.375 0.089 0.513 0.125 0.148 0.043 0.24 0.225 0.19 0.37 -0.018 0.053 -0.052 0.101 -0.095 0.134 -0.065 0.051 -0.15 0.13 -0.31 0.215 -0.469 0.253 -1.135 0.49 -1.808 0.782 -0.675 0.293 -1.333 0.646 -1.81 1.101 -0.455 0.436 -0.723 1.107 -0.489 1.805 0.012 0.025 0.009 0.032 0.016 0.043 0.096 0.149 0.158 0.148 0.299 0.205 0.113 0.051 0.24 0.11 0.397 0.143 0.313 0.068 0.714 0.099 1.181 0.145 0.933 0.087 2.126 0.15 3.299 0.175 1.172 0.025 2.301 0.01 3.161 0.01 0.477 0.012 0.958 -0.082 1.411 0.104 0.098 0.032 0.222 0.101 0.37 0.204 0.299 0.199 0.744 0.462 1.28 0.792 1.011 0.621 1.933 1.767 3.587 2.62 -1.11 0.381 -1.738 0.405 -2.899 0.604 -1.381 0.237 -2.803 0.331 -4.221 0.297 -1.418 -0.035 -2.826 -0.21 -4.242 -0.53 -1.416 -0.32 -2.831 -0.781 -4.206 -1.402 -11.01 -4.972 -15.929 -17.92 -11 -28.918 4.929 -10.998 17.85 -15.886 28.853 -10.915 z m -11.775 2 c -0.161 -0.085 -0.475 0.108 -0.583 0.27 -0.996 1.885 -1.569 4.04 -1.929 6.129 -0.151 0.409 0.156 1.119 0.656 0.758 0.827 -0.967 0.971 -2.33 1.359 -3.508 0.216 -1.133 0.725 -2.312 0.593 -3.464 -0.012 -0.102 -0.041 -0.157 -0.095 -0.185 z m -4.642 -0.747 c -0.295 -0.178 -0.553 0.079 -0.564 0.385 -0.112 2.364 -0.022 4.784 0.476 7.108 0.029 0.536 0.728 0.746 0.967 0.224 0.559 -1.487 0.176 -3.136 0.034 -4.675 -0.241 -1.01 -0.196 -2.235 -0.912 -3.042 z" style="fill:#fff"/></g></g></svg>