<svg xmlns="http://www.w3.org/2000/svg" viewBox="0 0 256 256"><defs><clipPath><path transform="matrix(15.33333 0 0 11.5 415 -125.5)" d="m -24 13 c 0 1.105 -0.672 2 -1.5 2 -0.828 0 -1.5 -0.895 -1.5 -2 0 -1.105 0.672 -2 1.5 -2 0.828 0 1.5 0.895 1.5 2 z" style="fill:#1890d0"/></clipPath></defs><g transform="translate(0 -796.36)"><path d="m 73.46 130.4 v -47.728 h 55.623 h 55.623 v 47.728 v 47.728 h -55.623 h -55.623 v -47.728 z m 62.08 -13.1 v -3.05 h -11.483 h -11.483 v 3.05 v 3.05 h 11.483 h 11.483 v -3.05 z m -45.36 -2.173 c 1.361 -0.505 4.01 -1.46 5.884 -2.124 1.875 -0.663 4.297 -1.551 5.383 -1.972 1.086 -0.421 2.7 -1.018 3.589 -1.326 2.996 -1.039 2.871 -0.832 2.871 -4.744 v -3.521 l -1.346 -0.542 c -0.74 -0.298 -1.911 -0.744 -2.602 -0.992 -0.691 -0.248 -2.79 -1.013 -4.665 -1.7 -1.875 -0.688 -4.75 -1.719 -6.389 -2.293 -1.639 -0.573 -3.447 -1.284 -4.02 -1.58 -1.757 -0.909 -1.828 -0.794 -1.717 2.766 l 0.103 3.303 l 1.615 0.609 c 0.888 0.335 2.18 0.809 2.871 1.054 2.784 0.986 3.863 1.378 5.968 2.165 l 2.2 0.823 l -2.738 0.967 c -1.506 0.532 -3.303 1.171 -3.994 1.42 -3.099 1.117 -3.84 1.386 -4.934 1.796 l -1.166 0.436 v 3.186 c 0 1.752 0.138 3.186 0.306 3.186 0.168 0 1.42 -0.413 2.781 -0.917 z" transform="translate(0 796.36)" style="fill:#ff4500;fill-rule:evenodd"/><path d="m 60.17 822.74 c 130.93 -92.05 263.6 77.948 156.91 186.39 -100.51 102.17 -256.68 7.449 -207.86 -119.69 10.185 -26.526 26.914 -49.802 50.948 -66.7 z" style="fill:#fff;color:#fff"/><g transform="translate(0 796.36)" style="fill-rule:evenodd"><g style="fill:#ffdead"><path d="m 65.57 130.4 v -55.623 h 63.52 h 63.52 v 55.623 v 55.623 h -63.52 h -63.52 v -55.623 z m 119.5 0 v -48.09 h -55.982 h -55.982 v 48.09 v 48.09 h 55.982 h 55.982 v -48.09 z"/><path d="m 87.46 112.77 v -2.645 l 2.243 -0.832 c 4.497 -1.667 6.17 -2.274 8.943 -3.244 0.922 -0.322 1.775 -0.685 1.895 -0.807 0.289 -0.29 -1.178 -1.23 -2.315 -1.483 -0.493 -0.11 -2.028 -0.638 -3.409 -1.173 -1.382 -0.536 -2.916 -1.059 -3.409 -1.164 -0.493 -0.105 -1.216 -0.409 -1.605 -0.676 -0.389 -0.267 -1.076 -0.486 -1.525 -0.486 -0.781 0 -0.817 -0.124 -0.817 -2.833 v -2.833 l 1.266 0.286 c 0.696 0.157 1.463 0.441 1.705 0.632 0.241 0.19 0.842 0.432 1.336 0.537 0.87 0.185 2.722 0.847 6.818 2.435 1.086 0.421 2.62 0.988 3.409 1.26 0.789 0.272 2.324 0.798 3.409 1.17 l 1.974 0.676 v 3.355 v 3.355 l -1.615 0.61 c -0.888 0.335 -2.18 0.814 -2.871 1.063 -0.691 0.249 -1.765 0.669 -2.387 0.932 -0.622 0.264 -1.31 0.479 -1.529 0.479 -0.219 0 -1.083 0.307 -1.919 0.682 -0.837 0.375 -1.844 0.765 -2.239 0.868 -0.395 0.102 -1.848 0.622 -3.23 1.154 -4.349 1.676 -4.127 1.747 -4.127 -1.317 z"/><path d="m 113.29 117.31 v -2.691 h 10.945 h 10.945 v 2.691 v 2.691 h -10.945 h -10.945 v -2.691 z"/></g><path d="m 73.1 130.4 v -48.09 h 55.982 h 55.982 v 48.09 v 48.09 h -55.982 h -55.982 v -48.09 z m 62.08 -13.1 v -2.691 h -10.945 h -10.945 v 2.691 v 2.691 h 10.945 h 10.945 v -2.691 z m -37.13 -5.383 c 5.115 -1.875 9.346 -3.409 9.401 -3.409 0.055 0 0.1 -1.578 0.1 -3.507 v -3.507 l -9.779 -3.491 c -5.378 -1.92 -9.9 -3.491 -10.05 -3.491 -0.148 0 -0.269 1.285 -0.269 2.854 v 2.854 l 1.166 0.361 c 3.222 0.996 11.127 3.928 11.442 4.243 0.316 0.315 -2.616 1.511 -11.801 4.811 -0.74 0.266 -0.807 0.515 -0.807 2.99 0 2.363 0.081 2.7 0.647 2.7 0.356 0 4.833 -1.534 9.948 -3.409 z" style="fill:#ff4500"/></g></g></svg>