<svg xmlns="http://www.w3.org/2000/svg" xmlns:xlink="http://www.w3.org/1999/xlink" viewBox="0 0 256 256"><defs><path d="m245.46 129.52l-97.89-96.9c-5.556-5.502-16.222-11.873-23.7-14.16l-39.518-12.08c-7.479-2.286-18.1.391-23.599 5.948l-13.441 13.578c-5.5 5.559-14.502 14.653-20 20.21l-13.44 13.579c-5.5 5.558-8.07 16.206-5.706 23.658l12.483 39.39c2.363 7.456 8.843 18.06 14.399 23.556l97.89 96.9c5.558 5.502 14.605 5.455 20.1-.101l36.26-36.63c5.504-5.559 14.503-14.651 20-20.21l36.26-36.629c5.502-5.56 5.455-14.606-.101-20.11m-178.08-50.74c-7.198 0-13.03-5.835-13.03-13.03 0-7.197 5.835-13.03 13.03-13.03 7.197 0 13.03 5.835 13.03 13.03-.001 7.198-5.836 13.03-13.03 13.03" id="0"/><use id="1" xlink:href="#0"/><clipPath id="2"><use xlink:href="#0"/></clipPath><clipPath style="clip-path:url(#2)"><use xlink:href="#1"/></clipPath><clipPath style="clip-path:url(#2)"><use xlink:href="#1"/></clipPath></defs><g transform="translate(0 -796.36)"><path d="m212.32 840.15c129.89 104.85-60.27 294.12-175.21 173.21-115.19-104.06 64.59-306.02 175.21-173.21" style="fill:#fff;color:#000"/><g transform="matrix(3.46963 0 0 3.44645 40.29 843.17)"><g><path d="m 36.31,5 c 5.859,4.062 9.688,10.831 9.688,18.5 0,12.426 -10.07,22.5 -22.5,22.5 -7.669,0 -14.438,-3.828 -18.5,-9.688 1.037,1.822 2.306,3.499 3.781,4.969 4.085,3.712 9.514,5.969 15.469,5.969 12.703,0 23,-10.298 23,-23 0,-5.954 -2.256,-11.384 -5.969,-15.469 C 39.81,7.306 38.132,6.037 36.31,5 z m 4.969,3.781 c 3.854,4.113 6.219,9.637 6.219,15.719 0,12.703 -10.297,23 -23,23 -6.081,0 -11.606,-2.364 -15.719,-6.219 4.16,4.144 9.883,6.719 16.219,6.719 12.703,0 23,-10.298 23,-23 0,-6.335 -2.575,-12.06 -6.719,-16.219 z" style="opacity:0.05"/><path d="m 41.28 8.781 c 3.712 4.085 5.969 9.514 5.969 15.469 0 12.703 -10.297 23 -23 23 -5.954 0 -11.384 -2.256 -15.469 -5.969 4.113 3.854 9.637 6.219 15.719 6.219 12.703 0 23 -10.298 23 -23 0 -6.081 -2.364 -11.606 -6.219 -15.719 z" style="opacity:0.1"/><path d="M 31.25,2.375 C 39.865,5.529 46,13.792 46,23.505 c 0,12.426 -10.07,22.5 -22.5,22.5 -9.708,0 -17.971,-6.135 -21.12,-14.75 a 23,23 0 0 0 44.875,-7 23,23 0 0 0 -16,-21.875 z" style="opacity:0.2"/></g><path d="M 24,1 C 36.703,1 47,11.297 47,24 47,36.703 36.703,47 24,47 11.297,47 1,36.703 1,24 1,11.297 11.297,1 24,1 z" style="fill:#ffdead"/><path d="m 40.03,7.531 c 3.712,4.084 5.969,9.514 5.969,15.469 0,12.703 -10.297,23 -23,23 C 17.045,46 11.615,43.744 7.53,40.031 11.708,44.322 17.54,47 23.999,47 c 12.703,0 23,-10.298 23,-23 0,-6.462 -2.677,-12.291 -6.969,-16.469 z" style="opacity:0.1"/><path d="M 15.437,13.06 11.58,17.656 22,26.398 22,40 28,40 28,26.398 38.42,17.656 34.563,13.06 25,21.08 15.437,13.06 z" style="opacity:0.1"/><g style="fill:#ff4500"><path d="m 21,24 v 15 h 6 V 24 h -6 z"/><path d="m 14.438,12.06 -3.857,4.596 11.492,9.643 3.855,-4.598 -11.49,-9.641 z"/><path d="m 33.563,12.06 -11.49,9.641 3.855,4.598 11.492,-9.643 -3.857,-4.596 z"/></g></g></g></svg>