<svg xmlns="http://www.w3.org/2000/svg" viewBox="0 0 256 256"><defs><clipPath><path d="m -24 13 c 0 1.105 -0.672 2 -1.5 2 -0.828 0 -1.5 -0.895 -1.5 -2 0 -1.105 0.672 -2 1.5 -2 0.828 0 1.5 0.895 1.5 2 z" transform="matrix(15.33333 0 0 11.5 415 -125.5)"/></clipPath></defs><path d="m 33.675 216.42 c -145.18 -221.56 251.35 -307.3 219.76 -79.37 c -12.881 92.96 -164.23 164.13 -219.76 79.37 z" style="fill:#ffffff;color:#000"/><g transform="matrix(2.34425 0 0 2.44221 53.33 52.56)"><g style="stroke-linecap:round;stroke-linejoin:round"><path d="m 7.125 4.688 c -1.028 0 -1.844 0.816 -1.844 1.844 v 30.875 c 0 1.028 0.816 1.844 1.844 1.844 h 13.875 c -9.549 2.828 -15.244 12.932 -15.938 16.06 h 49.875 c 0 0 -4.66 -12.813 -15.469 -16.06 h 13.406 c 1.028 0 1.844 -0.816 1.844 -1.844 v -30.875 c 0 -1.028 -0.816 -1.844 -1.844 -1.844 h -45.75 z" style="fill:none;stroke:#ff4500;stroke-width:8.125"/><g style="fill-rule:evenodd"><path d="m 3.216 57.46 h 53.788 c 0 0 -6.804 -18.991 -23.11 -18.18 -2.054 0 -3.98 -0.162 -6.804 0 c -14.378 -0.974 -22.976 14.12 -23.875 18.18" transform="matrix(0.92744 0 0 0.92744 2.075 2.026)" style="fill:#ff4500;stroke-width:3.125"/><g transform="matrix(0.31263 0 0 0.31263 19.862 29.768)" style="stroke-width:1.875"><path d="m 37.837 36.624 l -4.596 17.34 c -6.476 -9.401 -19.847 -6.06 -19.847 -6.06 l 3.76 -13.788 c 0.836 0 -0.836 -4.596 6.06 -3.552 10.446 0.418 14.624 6.06 14.624 6.06 z" style="fill:#ffffff"/><g style="fill:#ff4500"><path d="m 33.14 54.07 l -4.596 17.34 c -7.658 -6.447 -20.14 -3.695 -19.847 -6.06 l 4.204 -17.334 c 13.392 -4.284 20.239 6.05 20.239 6.05 z"/><path d="m 27.25 69.859 l 5.131 -17.58 c 6.346 10.06 19.466 8.843 19.466 8.843 l -4.394 16.335 c -9.108 5.379 -20.2 -7.599 -20.2 -7.599 z"/><path d="m 32.19 52.919 l 5.279 -17.284 c 6.493 8.434 19.318 8.548 19.318 8.548 l -3.951 13.381 c -0.836 -0.087 0.772 4.676 -6.107 2.92 -10.439 -1.499 -14.539 -7.564 -14.539 -7.564 z"/></g></g></g><g style="stroke:#ffffff"><g style="fill:none"><g transform="matrix(0.31263 0 0 0.31263 19.862 29.768)" style="stroke-width:3.998"><path d="m 17.844 31.357 l -9.5 35.783 c 22.679 -4.071 22.855 15.97 38.819 10.908 l 9.351 -35.22 c -15.07 5.524 -18.898 -17.285 -38.669 -11.47 z"/><path d="m 37.69 36.02 l -9.67 34.61"/></g><path d="m 24.18 44.669 c 2.998 -0.623 4.243 0.078 5.839 1.674 1.518 1.518 3.815 2.92 6.073 2.141" style="stroke-width:1.25"/><path d="m 3.216 57.46 h 53.788 c 0 0 -6.804 -18.991 -23.11 -18.18 -2.054 0 -3.98 -0.162 -6.804 0 c -14.378 -0.974 -22.976 14.12 -23.875 18.18" transform="matrix(0.92744 0 0 0.92744 2.075 2.026)" style="stroke-width:3.369"/></g><path d="m 5.453 2.869 c -1.108 0 -2 0.892 -2 2 v 33.28 c 0 1.108 0.892 2 2 2 h 49.31 c 1.108 0 2 -0.892 2 -2 v -33.28 c 0 -1.108 -0.892 -2 -2 -2 h -49.31 z" transform="matrix(0.92744 0 0 0.92744 2.075 2.026)" style="fill:#ff4500;fill-rule:evenodd;stroke-width:3.369"/></g></g><g transform="matrix(1 0 0 0.939 75 1.341)" style="fill:#ffe4c4"><path d="m 8.555 6.437 v 30.15 h 43.11 v -30.15 h -43.11 z" transform="matrix(0.92744 0 0 0.92744 -72.925 2.026)" style="stroke:#ffffff;stroke-linecap:round;stroke-linejoin:round;stroke-width:2.086"/><g><path d="m 8.555 6.437 v 30.15 h 43.11 v -30.15 h -43.11 z" transform="matrix(0.92744 0 0 0.92744 -72.925 2.026)" style="fill-rule:evenodd;stroke-linecap:round;stroke-linejoin:round;stroke-width:1.875"/><path d="m 10.56 9.178 v -1.066 l 7.512 2.725 v 0.973 l -7.512 2.725 v -1.066 l 6.04 -2.139 l -6.04 -2.15 z" transform="matrix(0.86849 0 0 0.86849 -70.958 3.405)"/></g></g></g></svg>