<svg xmlns="http://www.w3.org/2000/svg" viewBox="0 0 256 256"><g transform="translate(0 -796.36)"><path d="m 52.774 1027.39 c 192.46 127.95 311 -280.09 62.2 -226.07 -102.82 23.02 -165.22 167.39 -62.2 226.07 z" style="fill:#fff;color:#000"/><g transform="matrix(4.32756 0 0 5.08661 26.14 794.49)" style="fill:#ff4500"><path d="m 14 13 c -1.108 0 -2 0.892 -2 2 v 20 c 0 1.108 0.892 2 2 2 1.108 0 2 -0.892 2 -2 v -20 c 0 -1.108 -0.892 -2 -2 -2 z m 10 0 c -1.108 0 -2 0.892 -2 2 v 20 c 0 1.108 0.892 2 2 2 1.108 0 2 -0.892 2 -2 v -20 c 0 -1.108 -0.892 -2 -2 -2 z m 10 0 c -1.108 0 -2 0.892 -2 2 v 20 c 0 1.108 0.892 2 2 2 1.108 0 2 -0.892 2 -2 v -20 c 0 -1.108 -0.892 -2 -2 -2 z" style="opacity:0.3"/><path d="m 18 19 a 4 4 0 0 1 -4 4 4 4 0 0 1 -4 -4 4 4 0 0 1 4 -4 4 4 0 0 1 4 4 z"/><path d="m 28 29 a 4 4 0 0 1 -4 4 4 4 0 0 1 -4 -4 4 4 0 0 1 4 -4 4 4 0 0 1 4 4 z"/><path d="m 38 22 a 4 4 0 0 1 -4 4 4 4 0 0 1 -4 -4 4 4 0 0 1 4 -4 4 4 0 0 1 4 4 z"/></g></g></svg>