<svg xmlns="http://www.w3.org/2000/svg" xmlns:xlink="http://www.w3.org/1999/xlink" viewBox="0 0 256 256"><defs><linearGradient id="0" gradientUnits="userSpaceOnUse" x1="189.5767454" y1="210.179385" x2="203.8213132" y2="240.5886277"><stop style="stop-color:#fff"/><stop offset="1" style="stop-color:#fff;stop-opacity:0"/></linearGradient></defs><path d="m 233.98 203.4688 c -48.541 88.14 -200.63 53.931 -226.36 -18.64 -30.66 -86.449996 49.14 -250.629996 184.3 -154.449996 45.527 33.585 90.6 84.948996 42.05 173.089996 z" style="fill:#fff;color:#000"/><g transform="matrix(0.63573298 0 0 0.53179134 41.721844 63.962708)"><rect width="188.5975" height="188.58282" x="-229.53946" y="16.255651" rx="28.479282" transform="scale(-1 1)" style="fill:#ff4500;fill-rule:evenodd"/><text transform="scale(0.87463964 1.143328)" y="78.055931" x="89.036003" style="font-size:72.95279694;font-family:Arial;fill:#fff"><tspan y="78.055931" x="89.036003" style="font-weight:bold">You</tspan></text><g style="stroke:#fff"><rect rx="28.479282" y="102.89152" x="56.112885" height="77.013023" width="163.754" style="fill:#ff2a2a;stroke-width:0.8025158"/><text transform="scale(0.93025964 1.0749687)" y="152.91222" x="83.97541" style="font-size:58.87646103;font-family:Arial;fill:#fff;font-weight:normal;stroke-width:1.5"><tspan y="152.91222" x="83.97541" style="fill:#fff;stroke:#fff">Tube</tspan></text></g><g transform="matrix(1.6742097 0 0 1.6742097 -113.06614 -199.10174)"><path id="1" d="m 184.97712,205.24762 27.12176,-0.003 -3.41411,31.57732 c 6.63745,-0.0191 11.26907,1.04277 20.18797,-1.25784 -11.60883,10.71679 -27.75239,30.17803 -30.54281,46.71687 -3.10299,-10.302 -17.5438,-34.72905 -30.58313,-45.99072 6.75022,1.00171 13.76203,1.48024 21.37103,0.76438 l -4.14071,-31.80733 z" style="fill:#2b0000;stroke:#ffad00;stroke-width:1.54127562"/><path id="2" d="m 187.67556,207.60315 21.56426,-0.002 -3.30342,31.63986 c 7.78783,-0.99757 9.57643,1.41799 16.66777,-0.4112 -9.12092,8.73911 -22.42073,22.94956 -24.63937,36.09944 -3.01291,-9.60998 -13.69221,-26.61118 -23.95051,-35.78352 4.38469,1.12389 14.40662,-0.35119 17.83685,0.28029 l -4.17558,-31.82275 z" style="fill:#ff2a2a;stroke:#2b0000;stroke-width:1.37270617"/><path id="3" d="m 189.57675,210.24694 17.05544,-0.0676 -2.58563,32.64353 c 0,0 -7.43894,-3.75326 -9.04969,-13.89774 -1.61376,-10.16345 -4.77371,-14.15338 -5.42012,-18.67823 z" style="fill:url(#0)"/></g><g transform="matrix(1.6742097 0 0 1.6742097 -276.11664 -199.93363)"><use xlink:href="#1" width="1" height="1"/><use xlink:href="#2" width="1" height="1"/><use xlink:href="#3" width="1" height="1"/></g></g></svg>