<svg xmlns="http://www.w3.org/2000/svg" viewBox="0 0 256 256" xmlns:xlink="http://www.w3.org/1999/xlink"><g transform="translate(0 -796.36)"><path d="m 24.975 999.59 c -127.95 -192.46 280.09 -311 226.07 -62.2 -23.02 102.82 -167.39 165.22 -226.07 62.2 z" style="fill:#fff;color:#000"/><g transform="matrix(5.0101 0 0 5.25475 7.857 798.71)" style="fill:#ff4500"><g transform="matrix(0.77124 0 0 0.77124 6.379 6.208)" style="opacity:0.1"><path d="m 22.02 31 h 3.961 c 0.012 0 0.02 0.004 0.02 0.004 v 1.992 c 0 0 -0.008 0.004 -0.02 0.004 h -3.961 c -0.012 0 -0.02 -0.004 -0.02 -0.004 v -1.992 c 0 0 0.008 -0.004 0.02 -0.004" id="0"/><path d="m 22.02 27.984 h 3.961 c 0.012 0 0.02 0.004 0.02 0.004 v 1.992 c 0 0.004 -0.008 0.004 -0.02 0.004 h -3.961 c -0.012 0 -0.02 0 -0.02 -0.004 v -1.992 c 0 0 0.008 -0.004 0.02 -0.004" id="1" style="fill-opacity:0.902"/><path d="m 22.02 25.02 h 3.961 c 0.012 0 0.02 0 0.02 0.004 v 1.965 c 0 0.004 -0.008 0.004 -0.02 0.004 h -3.961 c -0.012 0 -0.02 0 -0.02 -0.004 v -1.965 c 0 -0.004 0.008 -0.004 0.02 -0.004" id="2" style="fill-opacity:0.8"/><path d="m 22.02 22 h 3.961 c 0.012 0 0.02 0 0.02 0.004 v 1.953 c 0 0 -0.008 0.004 -0.02 0.004 h -3.961 c -0.012 0 -0.02 -0.004 -0.02 -0.004 v -1.953 c 0 -0.004 0.008 -0.004 0.02 -0.004" id="3" style="fill-opacity:0.702"/><path d="m 22.02 19 h 3.961 c 0.012 0 0.02 0 0.02 0.004 v 1.941 c 0 0 -0.008 0.004 -0.02 0.004 h -3.961 c -0.012 0 -0.02 -0.004 -0.02 -0.004 v -1.941 c 0 -0.004 0.008 -0.004 0.02 -0.004" id="4" style="fill-opacity:0.6"/><path d="m 32.02 31.01 h 3.957 c 0.012 0 0.023 0 0.023 0.004 v 1.977 c 0 0 -0.012 0.004 -0.023 0.004 h -3.957 c -0.012 0 -0.02 -0.004 -0.02 -0.004 v -1.977 c 0 -0.004 0.008 -0.004 0.02 -0.004" id="5"/><path d="m 32.02 28.02 h 3.957 c 0.012 0 0.023 0.004 0.023 0.004 v 1.969 c 0 0 -0.012 0.004 -0.023 0.004 h -3.957 c -0.012 0 -0.02 -0.004 -0.02 -0.004 v -1.969 c 0 0 0.008 -0.004 0.02 -0.004" id="6" style="fill-opacity:0.902"/><path d="m 32.02 25.05 h 3.957 c 0.012 0 0.023 0.004 0.023 0.004 v 1.957 c 0 0 -0.012 0.004 -0.023 0.004 h -3.957 c -0.012 0 -0.02 -0.004 -0.02 -0.004 v -1.957 c 0 0 0.008 -0.004 0.02 -0.004" id="7" style="fill-opacity:0.8"/><path d="m 32.02 22.05 h 3.957 c 0.012 0 0.023 0 0.023 0.004 v 1.941 c 0 0 -0.012 0.004 -0.023 0.004 h -3.957 c -0.012 0 -0.02 -0.004 -0.02 -0.004 v -1.941 c 0 -0.004 0.008 -0.004 0.02 -0.004" id="8" style="fill-opacity:0.702"/><path d="m 32.02 19.06 h 3.957 c 0.012 0 0.023 0 0.023 0.004 v 1.926 c 0 0.004 -0.012 0.004 -0.023 0.004 h -3.957 c -0.012 0 -0.02 0 -0.02 -0.004 v -1.926 c 0 -0.004 0.008 -0.004 0.02 -0.004" id="9" style="fill-opacity:0.6"/><path d="m 32.02 16 h 3.957 c 0.012 0 0.023 0.004 0.023 0.004 v 1.992 c 0 0 -0.012 0.004 -0.023 0.004 h -3.957 c -0.012 0 -0.02 -0.004 -0.02 -0.004 v -1.992 c 0 0 0.008 -0.004 0.02 -0.004" id="A" style="fill-opacity:0.502"/><path d="m 37.02 31 h 3.957 c 0.012 0 0.023 0.004 0.023 0.004 v 1.992 c 0 0 -0.012 0.004 -0.023 0.004 h -3.957 c -0.012 0 -0.02 -0.004 -0.02 -0.004 v -1.992 c 0 0 0.008 -0.004 0.02 -0.004" id="B"/><path d="m 37.02 28 h 3.957 c 0.012 0 0.023 0 0.023 0.004 v 1.98 c 0 0 -0.012 0.004 -0.023 0.004 h -3.957 c -0.012 0 -0.02 -0.004 -0.02 -0.004 v -1.98 c 0 -0.004 0.008 -0.004 0.02 -0.004" id="C" style="fill-opacity:0.902"/><path d="m 37.02 25.02 h 3.957 c 0.012 0 0.023 0 0.023 0.004 v 1.965 c 0 0.004 -0.012 0.004 -0.023 0.004 h -3.957 c -0.012 0 -0.02 0 -0.02 -0.004 v -1.965 c 0 -0.004 0.008 -0.004 0.02 -0.004" id="D" style="fill-opacity:0.8"/><path d="m 37.02 22 h 3.957 c 0.012 0 0.023 0 0.023 0.004 v 1.953 c 0 0 -0.012 0.004 -0.023 0.004 h -3.957 c -0.012 0 -0.02 -0.004 -0.02 -0.004 v -1.953 c 0 -0.004 0.008 -0.004 0.02 -0.004" id="E" style="fill-opacity:0.702"/><path d="m 37.02 19 h 3.957 c 0.012 0 0.023 0 0.023 0.004 v 1.941 c 0 0 -0.012 0.004 -0.023 0.004 h -3.957 c -0.012 0 -0.02 -0.004 -0.02 -0.004 v -1.941 c 0 -0.004 0.008 -0.004 0.02 -0.004" id="F" style="fill-opacity:0.6"/><path d="m 27.02 31 h 3.957 c 0.012 0 0.023 0.004 0.023 0.004 v 1.992 c 0 0 -0.012 0.004 -0.023 0.004 h -3.957 c -0.012 0 -0.02 -0.004 -0.02 -0.004 v -1.992 c 0 0 0.008 -0.004 0.02 -0.004" id="G"/><path d="m 27.02 28 h 3.957 c 0.012 0 0.023 0 0.023 0.004 v 1.98 c 0 0 -0.012 0.004 -0.023 0.004 h -3.957 c -0.012 0 -0.02 -0.004 -0.02 -0.004 v -1.98 c 0 -0.004 0.008 -0.004 0.02 -0.004" id="H" style="fill-opacity:0.902"/><path d="m 27.02 25.02 h 3.957 c 0.012 0 0.023 0 0.023 0.004 v 1.965 c 0 0.004 -0.012 0.004 -0.023 0.004 h -3.957 c -0.012 0 -0.02 0 -0.02 -0.004 v -1.965 c 0 -0.004 0.008 -0.004 0.02 -0.004" id="I" style="fill-opacity:0.8"/><path d="m 12 31 h 4 v 2 h -4" id="J"/><path d="m 12 28 h 4 v 2 h -4" id="K" style="fill-opacity:0.902"/><path d="m 12 25 h 4 v 2 h -4" id="L" style="fill-opacity:0.8"/><path d="m 12 22 h 4 v 2 h -4" id="M" style="fill-opacity:0.702"/><path d="m 12 19 h 4 v 1.996 h -4" id="N" style="fill-opacity:0.6"/><path d="m 12 15.996 h 4 v 2 h -4" id="O" style="fill-opacity:0.502"/><path d="m 12 13 h 4 v 2 h -4" id="P" style="fill-opacity:0.4"/><path d="m 17.02 31 h 3.961 c 0.008 0 0.02 0 0.02 0.004 v 1.988 c 0 0.004 -0.012 0.004 -0.02 0.004 h -3.961 c -0.012 0 -0.02 0 -0.02 -0.004 v -1.988 c 0 -0.004 0.008 -0.004 0.02 -0.004" id="Q"/><path d="m 17.02 27.988 h 3.961 c 0.008 0 0.02 0 0.02 0.004 v 1.992 c 0 0 -0.012 0.004 -0.02 0.004 h -3.961 c -0.012 0 -0.02 -0.004 -0.02 -0.004 v -1.992 c 0 -0.004 0.008 -0.004 0.02 -0.004" id="R" style="fill-opacity:0.902"/><path d="m 17.02 25 h 3.961 c 0.008 0 0.02 0 0.02 0.004 v 1.965 c 0 0 -0.012 0.004 -0.02 0.004 h -3.961 c -0.012 0 -0.02 -0.004 -0.02 -0.004 v -1.965 c 0 -0.004 0.008 -0.004 0.02 -0.004" id="S" style="fill-opacity:0.8"/><path d="m 17.02 21.996 h 3.961 c 0.008 0 0.02 0.004 0.02 0.004 v 1.953 c 0 0.004 -0.012 0.004 -0.02 0.004 h -3.961 c -0.012 0 -0.02 0 -0.02 -0.004 v -1.953 c 0 0 0.008 -0.004 0.02 -0.004" id="T" style="fill-opacity:0.702"/><path d="m 7.02 31 h 3.957 c 0.012 0 0.02 0.004 0.02 0.004 v 1.992 c 0 0 -0.008 0.004 -0.02 0.004 h -3.957 c -0.012 0 -0.023 -0.004 -0.023 -0.004 v -1.992 c 0 0 0.012 -0.004 0.023 -0.004" id="U"/><path d="m 7.02 28 h 3.957 c 0.012 0 0.02 0 0.02 0.004 v 1.98 c 0 0 -0.008 0.004 -0.02 0.004 h -3.957 c -0.012 0 -0.023 -0.004 -0.023 -0.004 v -1.98 c 0 -0.004 0.012 -0.004 0.023 -0.004" id="V" style="fill-opacity:0.902"/><path d="m 7.02 25.02 h 3.957 c 0.012 0 0.02 0 0.02 0.004 v 1.965 c 0 0.004 -0.008 0.004 -0.02 0.004 h -3.957 c -0.012 0 -0.023 0 -0.023 -0.004 v -1.965 c 0 -0.004 0.012 -0.004 0.023 -0.004" id="W" style="fill-opacity:0.8"/><path d="m 7.02 22 h 3.957 c 0.012 0 0.02 0 0.02 0.004 v 1.953 c 0 0 -0.008 0.004 -0.02 0.004 h -3.957 c -0.012 0 -0.023 -0.004 -0.023 -0.004 v -1.953 c 0 -0.004 0.012 -0.004 0.023 -0.004" id="X" style="fill-opacity:0.702"/><path d="m 7.02 19 h 3.957 c 0.012 0 0.02 0 0.02 0.004 v 1.941 c 0 0 -0.008 0.004 -0.02 0.004 h -3.957 c -0.012 0 -0.023 -0.004 -0.023 -0.004 v -1.941 c 0 -0.004 0.012 -0.004 0.023 -0.004" id="Y" style="fill-opacity:0.6"/><path d="m 2 16 v 2 h 4 v -2" id="Z" style="fill-opacity:0.502"/><path d="m 2 19 v 1.996 h 4 v -1.996" id="a" style="fill-opacity:0.6"/><path d="m 2 22 v 2 h 4 v -2" id="b" style="fill-opacity:0.702"/><path d="m 2 25.02 v 2 h 4 v -2" id="c" style="fill-opacity:0.8"/><path d="m 2 28 v 1.996 h 4 v -1.996" id="d" style="fill-opacity:0.902"/><path d="m 2 31 v 2 h 4 v -2" id="e"/><path d="m 42 13 v 2 h 4 v -2" id="f" style="fill-opacity:0.4"/><path d="m 42 16 v 2 h 4 v -2" id="g" style="fill-opacity:0.502"/><path d="m 42 19 v 1.996 h 4 v -1.996" id="h" style="fill-opacity:0.6"/><path d="m 42 22 v 2 h 4 v -2" id="i" style="fill-opacity:0.702"/><path d="m 42 25.02 v 2 h 4 v -2" id="j" style="fill-opacity:0.8"/><path d="m 42 28 v 1.996 h 4 v -1.996" id="k" style="fill-opacity:0.902"/><path d="m 42 31 v 2 h 4 v -2" id="l"/><path d="m 7.406 15.09 c -1.43 0 -2.688 0.797 -3.875 1.5 c -1.188 0.703 -2.254 1.375 -3.531 1.375 v 0.406 c 1.43 0 2.625 -0.672 3.813 -1.375 1.188 -0.703 2.316 -1.344 3.594 -1.344 1.281 0 2.469 0.641 3.656 1.344 1.188 0.703 2.383 1.375 3.813 1.375 1.43 0 2.656 -0.672 3.844 -1.375 1.188 -0.703 2.379 -1.344 3.656 -1.344 1.281 0 2.406 0.641 3.594 1.344 1.188 0.703 2.383 1.375 3.813 1.375 1.441 0 2.625 -0.672 3.816 -1.375 1.188 -0.703 2.406 -1.344 3.688 -1.344 1.277 0 2.371 0.641 3.566 1.344 1.188 0.703 2.383 1.375 3.813 1.375 1.188 0 2.316 -0.473 3.348 -1.031 v -0.531 c -1.078 0.617 -2.191 1.156 -3.348 1.156 -1.273 0 -2.344 -0.672 -3.527 -1.375 -1.191 -0.703 -2.414 -1.5 -3.848 -1.5 -1.43 0 -2.652 0.797 -3.844 1.5 -1.188 0.703 -2.379 1.375 -3.656 1.375 -1.273 0 -2.344 -0.672 -3.527 -1.375 -1.191 -0.703 -2.445 -1.5 -3.875 -1.5 -1.434 0 -2.723 0.797 -3.906 1.5 -1.191 0.703 -2.316 1.375 -3.594 1.375 -1.277 0 -2.473 -0.672 -3.656 -1.375 -1.191 -0.703 -2.383 -1.5 -3.812 -1.5" id="m"/><path d="m 1.5 22.313 c -0.559 0 -1.043 0.227 -1.5 0.531 v 0.563 c 0.5 -0.387 0.988 -0.688 1.5 -0.688 0.785 0 1.523 0.672 2.313 1.375 0.758 0.676 1.668 1.316 2.625 1.375 0.039 0.004 0.086 0 0.125 0 0.957 -0.059 1.836 -0.699 2.594 -1.375 0.789 -0.703 1.527 -1.375 2.313 -1.375 0.785 0 1.523 0.672 2.313 1.375 0.789 0.703 1.582 1.375 2.605 1.375 1.012 0 1.836 -0.672 2.625 -1.375 0.777 -0.703 1.52 -1.375 2.313 -1.375 0.785 0 1.523 0.672 2.313 1.375 0.789 0.703 1.707 1.375 2.719 1.375 1.012 0 1.805 -0.672 2.594 -1.375 0.789 -0.703 1.559 -1.375 2.344 -1.375 0.785 0 1.523 0.672 2.313 1.375 0.789 0.703 1.582 1.375 2.594 1.375 1.012 0 1.836 -0.672 2.625 -1.375 0.789 -0.703 1.527 -1.375 2.313 -1.375 0.785 0 1.523 0.672 2.313 1.375 0.789 0.703 1.707 1.375 2.723 1.375 0.695 0 1.289 -0.348 1.852 -0.781 v -0.594 c -0.621 0.523 -1.219 0.938 -1.852 0.938 -0.777 0 -1.684 -0.641 -2.473 -1.344 -0.789 -0.703 -1.547 -1.375 -2.563 -1.375 -1.012 0 -1.836 0.672 -2.625 1.375 -0.789 0.703 -1.527 1.344 -2.313 1.344 -0.785 0 -1.523 -0.641 -2.313 -1.344 -0.789 -0.703 -1.582 -1.375 -2.594 -1.375 -1.012 0 -1.836 0.672 -2.625 1.375 -0.789 0.703 -1.527 1.344 -2.313 1.344 -0.785 0 -1.68 -0.641 -2.469 -1.344 -0.789 -0.703 -1.551 -1.375 -2.563 -1.375 -1.016 0 -1.805 0.672 -2.594 1.375 -0.789 0.703 -1.566 1.344 -2.344 1.344 -0.785 0 -1.527 -0.641 -2.316 -1.344 -0.789 -0.703 -1.578 -1.375 -2.594 -1.375 -1.012 0 -1.773 0.672 -2.566 1.375 -0.754 0.672 -1.594 1.293 -2.344 1.344 -0.031 0 -0.09 0.004 -0.125 0 c -0.75 -0.051 -1.555 -0.672 -2.313 -1.344 -0.789 -0.703 -1.613 -1.375 -2.625 -1.375" id="n"/><path d="m 3.344 30.25 c -1.191 0 -2.313 0.469 -3.344 1.031 v 0.563 c 1.086 -0.621 2.184 -1.188 3.344 -1.188 1.277 0 2.375 0.672 3.563 1.375 1.188 0.703 2.383 1.5 3.813 1.5 1.43 0 2.656 -0.797 3.844 -1.5 1.191 -0.703 2.379 -1.375 3.656 -1.375 1.281 0 2.375 0.672 3.563 1.375 1.191 0.703 2.414 1.5 3.855 1.5 1.43 0 2.746 -0.797 3.938 -1.5 1.188 -0.703 2.281 -1.375 3.563 -1.375 1.277 0 2.469 0.672 3.656 1.375 1.188 0.703 2.414 1.5 3.844 1.5 1.43 0 2.656 -0.797 3.844 -1.5 1.188 -0.703 2.25 -1.375 3.531 -1.375 v -0.406 c -1.43 0 -2.625 0.672 -3.813 1.375 -1.188 0.703 -2.285 1.344 -3.563 1.344 -1.281 0 -2.5 -0.641 -3.691 -1.344 -1.188 -0.703 -2.383 -1.375 -3.813 -1.375 -1.438 0 -2.656 0.672 -3.852 1.375 -1.188 0.703 -2.375 1.344 -3.648 1.344 -1.277 0 -2.406 -0.641 -3.602 -1.344 -1.188 -0.703 -2.383 -1.375 -3.813 -1.375 -1.43 0 -2.625 0.672 -3.813 1.375 -1.188 0.703 -2.41 1.344 -3.688 1.344 -1.281 0 -2.375 -0.641 -3.563 -1.344 c -1.188 -0.703 -2.383 -1.375 -3.813 -1.375" id="o"/></g><g transform="matrix(0.77124 0 0 0.77124 5.608 5.437)"><g><use xlink:href="#0"/><use xlink:href="#1"/><use xlink:href="#2"/><use xlink:href="#3"/><use xlink:href="#4"/></g><g><use xlink:href="#5"/><use xlink:href="#6"/><use xlink:href="#7"/><use xlink:href="#8"/><use xlink:href="#9"/><use xlink:href="#A"/></g><g><use xlink:href="#B"/><use xlink:href="#C"/><use xlink:href="#D"/><use xlink:href="#E"/><use xlink:href="#F"/></g><g><use xlink:href="#G"/><use xlink:href="#H"/><use xlink:href="#I"/></g><g><use xlink:href="#J"/><use xlink:href="#K"/><use xlink:href="#L"/><use xlink:href="#M"/><use xlink:href="#N"/><use xlink:href="#O"/><use xlink:href="#P"/></g><g><use xlink:href="#Q"/><use xlink:href="#R"/><use xlink:href="#S"/><use xlink:href="#T"/></g><g><use xlink:href="#U"/><use xlink:href="#V"/><use xlink:href="#W"/><use xlink:href="#X"/><use xlink:href="#Y"/></g><g><use xlink:href="#Z"/><use xlink:href="#a"/><use xlink:href="#b"/><use xlink:href="#c"/><use xlink:href="#d"/><use xlink:href="#e"/></g><g><use xlink:href="#f"/><use xlink:href="#g"/><use xlink:href="#h"/><use xlink:href="#i"/><use xlink:href="#j"/><use xlink:href="#k"/><use xlink:href="#l"/></g><g><use xlink:href="#m"/><use xlink:href="#n"/><use xlink:href="#o"/></g></g></g></g></svg>