<?xml version="1.0" encoding="UTF-8" standalone="no"?>
<!-- Created with Inkscape (http://www.inkscape.org/) -->
<svg id="svg4161" xmlns:rdf="http://www.w3.org/1999/02/22-rdf-syntax-ns#" xmlns="http://www.w3.org/2000/svg" height="64" width="64" version="1.1" xmlns:cc="http://creativecommons.org/ns#" xmlns:xlink="http://www.w3.org/1999/xlink" xmlns:dc="http://purl.org/dc/elements/1.1/">
 <defs id="defs4163">
  <linearGradient id="linearGradient3897" y2="39.999" gradientUnits="userSpaceOnUse" x2="25.058" gradientTransform="matrix(1.579 0 0 .71429 -5.8948 27.929)" y1="47.028" x1="25.058">
   <stop id="stop2895-8-9-9-1" style="stop-color:#181818;stop-opacity:0" offset="0"/>
   <stop id="stop2897-7-8-7-7" style="stop-color:#181818" offset=".5"/>
   <stop id="stop2899-4-5-1-5" style="stop-color:#181818;stop-opacity:0" offset="1"/>
  </linearGradient>
  <radialGradient id="radialGradient3900" gradientUnits="userSpaceOnUse" cy="43.5" cx="4.993" gradientTransform="matrix(3.1639 0 0 1 -25.703 -102.5)" r="2.5">
   <stop id="stop2889-7-9-6-9" style="stop-color:#181818" offset="0"/>
   <stop id="stop2891-6-6-1-7" style="stop-color:#181818;stop-opacity:0" offset="1"/>
  </radialGradient>
  <radialGradient id="radialGradient3903" gradientUnits="userSpaceOnUse" cy="43.5" cx="4.993" gradientTransform="matrix(3.1639 0 0 1 38.297 15.5)" r="2.5">
   <stop id="stop2883-4-0-1-8" style="stop-color:#181818" offset="0"/>
   <stop id="stop2885-9-2-9-6" style="stop-color:#181818;stop-opacity:0" offset="1"/>
  </radialGradient>
  <linearGradient id="linearGradient3911" y2="60" gradientUnits="userSpaceOnUse" x2="32" y1="4" x1="32">
   <stop id="stop3907" style="stop-color:#fff" offset="0"/>
   <stop id="stop3909" style="stop-color:#fff;stop-opacity:0" offset="1"/>
  </linearGradient>
  <linearGradient id="linearGradient4215" y2="32" gradientUnits="userSpaceOnUse" x2="59.5" gradientTransform="matrix(0,-1,-1,0,64,64)" y1="32" x1="4.5">
   <stop id="stop3864-8-6-9" style="stop-color:#3f3f3f" offset="0"/>
   <stop id="stop4668" style="stop-color:#595959" offset=".5"/>
   <stop id="stop4666" style="stop-color:#3f3f3f" offset=".5"/>
   <stop id="stop3866-9-1-6" style="stop-color:#595959" offset="1"/>
  </linearGradient>
  <linearGradient id="linearGradient4229" y2="32" gradientUnits="userSpaceOnUse" x2="59.5" gradientTransform="matrix(0,-1,-1,0,64,64)" y1="32" x1="4.5">
   <stop id="stop4165" style="stop-color:#f55c11" offset="0"/>
   <stop id="stop4672" style="stop-color:#ff8431" offset=".5"/>
   <stop id="stop4670" style="stop-color:#ee7d1a" offset="1"/>
  </linearGradient>
 </defs>
 <metadata id="metadata4166">
  <rdf:RDF>
   <cc:Work rdf:about="">
    <dc:format>image/svg+xml</dc:format>
    <dc:type rdf:resource="http://purl.org/dc/dcmitype/StillImage"/>
    <dc:title/>
   </cc:Work>
  </rdf:RDF>
 </metadata>
 <g id="layer1">
  <rect id="rect2801-5-5-7-9" style="opacity:.6;fill:url(#radialGradient3903)" height="5" width="7.8948" y="56.5" x="54.105"/>
  <rect id="rect3696-3-0-3-7" style="opacity:.6;fill:url(#radialGradient3900)" transform="scale(-1)" height="5" width="7.8948" y="-61.5" x="-9.8948"/>
  <rect id="rect3700-5-6-8-4" style="opacity:.6;fill:url(#linearGradient3897)" height="5" width="44.211" y="56.5" x="9.8948"/>
  <path id="rect5505-21-3-8-5-2" style="color:#000000;fill:url(#linearGradient4215)" d="m7.5 4.5c-1.662 0-3 1.338-3 3v49c0 1.662 1.338 3 3 3h24.5v-27.5h27.5v-24.5c0-1.662-1.338-3-3-3h-49z"/>
  <path id="rect4224" style="color:#000000;fill:url(#linearGradient4229)" d="m32 32v27.5h24.5c1.662 0 3-1.338 3-3v-24.5h-27.5z"/>
  <rect id="rect6741-5-0-2-3" style="opacity:.1;stroke-linejoin:round;stroke:url(#linearGradient3911);stroke-linecap:round;fill:none" rx="2" ry="2" height="53.142" width="53" y="5.4288" x="5.5"/>
  <rect id="rect5505-21-3-8-9-1-1" style="opacity:0.61;stroke-linejoin:round;color:#000000;stroke:#000;stroke-linecap:round;fill:none" rx="3" ry="3" height="55" width="55" y="4.5" x="4.5"/>
  <path id="rect3932" style="opacity:.15;color:#000000;fill:#fff" d="m7.5 5c-1.3936 0-2.5 1.1064-2.5 2.5v1c0-1.3936 1.1064-2.5 2.5-2.5h49c1.394 0 2.5 1.1064 2.5 2.5v-1c0-1.3936-1.106-2.5-2.5-2.5h-49z"/>
  <path id="path3946" style="opacity:.15;color:#000000;fill:#fff" d="m7.5 59c-1.3936 0-2.5-1.106-2.5-2.5v-1c0 1.394 1.1064 2.5 2.5 2.5h49c1.3936 0 2.5-1.1064 2.5-2.5v1c0 1.3936-1.1064 2.5-2.5 2.5h-49z"/>
  <path id="path4260" style="opacity:.15;color:#000000;fill:#fff" d="m7.5 5c-1.3936 0-2.5 1.1064-2.5 2.5v1 22.5h1v-23.5c0-0.4355 0.1214-0.8331 0.3125-1.1875 0.3544-0.1911 0.752-0.3125 1.1875-0.3125h23.5v-1h-22.5-1zm24.5 0v1 25h1v-25h23.5c1.394 0 2.5 1.1064 2.5 2.5v-1c0-1.3936-1.106-2.5-2.5-2.5h-23.5-1zm-27 27v1 23.5c0 1.394 1.1064 2.5 2.5 2.5h1c-1.3936 0-2.5-1.106-2.5-2.5v-23.5h25v-1h-25-1zm27 0v27h1v-26h26v-1h-27z"/>
 </g>
 <g id="layer2">
  <path id="path4355" style="opacity:.2;enable-background:new" d="m51 17v3h-11v-3z"/>
  <path id="path4357" style="opacity:.2;block-progression:tb;text-indent:0;color:#000000;enable-background:new;text-transform:none" d="m12 40v1.375c0 0.37969 0.15742 0.71992 0.40625 0.96875 0.0311 0.0311 0.0598 0.0657 0.0937 0.0937l3.0625 3.0625-3.0625 3.0625c-0.30559 0.25219-0.5 0.63534-0.5 1.0625v1.375h1.375c0.42716 0 0.8103-0.19441 1.0625-0.5l3.0625-3.0625 3.0625 3.0625 0.0937 0.0937c0.248 0.25 0.588 0.407 0.968 0.407h1.375v-1.375c0-0.3797-0.15743-0.71993-0.40625-0.96875-0.0311-0.0311-0.0598-0.0657-0.0937-0.0937l-3.0625-3.0625 3.1562-3.1562c0.24877-0.24888 0.4062-0.58911 0.4062-0.9688v-1.375h-1.375c-0.42716 0-0.8103 0.19441-1.0625 0.5l-3.0625 3.0625-3.0625-3.0625c-0.028-0.034-0.0627-0.0626-0.0937-0.0937-0.248-0.249-0.588-0.406-0.968-0.406h-1.375z"/>
  <path id="path4359" style="opacity:.2;color:#000000;enable-background:new" d="m16 13v4h-4v3h4v4h3v-4h4v-3h-4v-4h-3z"/>
  <path id="rect4361" style="opacity:.2;color:#000000;enable-background:new" d="m40 41v3h11v-3h-11zm0 6v3h11v-3h-11z"/>
  <path id="path4323" d="m51 16v3h-11v-3z" style="enable-background:new;fill:#fff"/>
  <path id="path4325" style="block-progression:tb;text-indent:0;color:#000000;enable-background:new;text-transform:none;fill:#fff" d="m12 39v1.375c0 0.37969 0.15742 0.71992 0.40625 0.96875 0.0311 0.0311 0.0598 0.0657 0.0937 0.0937l3.0625 3.0625-3.0625 3.0625c-0.30559 0.25219-0.5 0.63534-0.5 1.0625v1.375h1.375c0.42716 0 0.8103-0.19441 1.0625-0.5l3.0625-3.0625 3.0625 3.0625 0.0937 0.0937c0.248 0.25 0.588 0.407 0.968 0.407h1.375v-1.375c0-0.3797-0.15743-0.71993-0.40625-0.96875-0.0311-0.0311-0.0598-0.0657-0.0937-0.0937l-3.0625-3.0625 3.1562-3.1562c0.24877-0.24888 0.4062-0.58911 0.4062-0.9688v-1.375h-1.375c-0.42716 0-0.8103 0.19441-1.0625 0.5l-3.0625 3.0625-3.0625-3.0625c-0.028-0.034-0.0627-0.0626-0.0937-0.0937-0.248-0.249-0.588-0.406-0.968-0.406h-1.375z"/>
  <path id="path4327" style="color:#000000;enable-background:new;fill:#fff" d="m16 12v4h-4v3h4v4h3v-4h4v-3h-4v-4h-3z"/>
  <path id="rect4329" style="color:#000000;enable-background:new;fill:#fff" d="m40 40v3h11v-3h-11zm0 6v3h11v-3h-11z"/>
  <path id="rect4338" style="opacity:.2;enable-background:new" d="m31 5v26h-26v1h26v27h1v-27h27v-1h-27v-26z"/>
 </g>
</svg>
