<?xml version="1.0" encoding="UTF-8" standalone="no"?>
<!-- Created with Inkscape (http://www.inkscape.org/) -->
<svg id="svg4161" xmlns:rdf="http://www.w3.org/1999/02/22-rdf-syntax-ns#" xmlns="http://www.w3.org/2000/svg" height="64" width="64" version="1.1" xmlns:cc="http://creativecommons.org/ns#" xmlns:xlink="http://www.w3.org/1999/xlink" xmlns:dc="http://purl.org/dc/elements/1.1/">
 <defs id="defs4163">
  <linearGradient id="linearGradient3688">
   <stop id="stop3690" offset="0"/>
   <stop id="stop3692" style="stop-opacity:0" offset="1"/>
  </linearGradient>
  <clipPath id="clipPath4456" clipPathUnits="userSpaceOnUse">
   <rect id="rect4458" style="fill:url(#linearGradient4460)" rx="1.023" ry="1" height="22" width="22" y="36" x="36.023"/>
  </clipPath>
  <linearGradient id="linearGradient4460" y2="18.005" gradientUnits="userSpaceOnUse" x2="-21.478" gradientTransform="matrix(1.6923 0 0 1.6964 163.79 28.313)" y1="-.80552" x1="-21.478">
   <stop id="stop3864-8-6-6" style="stop-color:#8c166c" offset="0"/>
   <stop id="stop4409-9" style="stop-color:#ca3561" offset=".36207"/>
   <stop id="stop3866-9-1-1" style="stop-color:#f38f4e" offset="1"/>
  </linearGradient>
  <clipPath id="clipPath4552" clipPathUnits="userSpaceOnUse">
   <rect id="rect4554" style="opacity:.2" rx="0" height="21.098" width="21.098" y="24.01" x="42.892"/>
  </clipPath>
  <linearGradient id="linearGradient3960">
   <stop id="stop3962" style="stop-opacity:0" offset="0"/>
   <stop id="stop3970" offset=".5"/>
   <stop id="stop3964" style="stop-opacity:0" offset="1"/>
  </linearGradient>
  <linearGradient id="linearGradient4013" y2="36.5" gradientUnits="userSpaceOnUse" x2="24.5" gradientTransform="translate(7.0303 8)" y1="10" x1="24.5">
   <stop id="stop4156" style="stop-color:#fff" offset="0"/>
   <stop id="stop4158" style="stop-color:#fff;stop-opacity:0" offset="1"/>
  </linearGradient>
  <linearGradient id="linearGradient4016" y2="40" gradientUnits="userSpaceOnUse" x2="144" gradientTransform="matrix(-.175 0 0 .175 57.23 4)" y1="280" x1="144">
   <stop id="stop3990-5-6" style="stop-color:#e6e6e6" offset="0"/>
   <stop id="stop3992-0-6" style="stop-color:#f0f0f0" offset="1"/>
  </linearGradient>
  <radialGradient id="radialGradient4042" gradientUnits="userSpaceOnUse" cy="38.681" cx="24" gradientTransform="matrix(1 0 0 .78390 9.0303 2.6778)" r="17.859">
   <stop id="stop4194" offset="0"/>
   <stop id="stop4196" style="stop-opacity:0" offset="1"/>
  </radialGradient>
  <linearGradient id="linearGradient4083" y2="42" xlink:href="#linearGradient3960" gradientUnits="userSpaceOnUse" x2="25" gradientTransform="matrix(1.0571 0 0 1.6667 -3.4 -22)" y1="45" x1="25"/>
  <radialGradient id="radialGradient4085" xlink:href="#linearGradient3688" gradientUnits="userSpaceOnUse" cy="43.5" cx="40" gradientTransform="matrix(1.0571 0 0 1.25 17.6 -3.875)" r="2"/>
  <radialGradient id="radialGradient4087" xlink:href="#linearGradient3688" gradientUnits="userSpaceOnUse" cy="43.5" cx="9" gradientTransform="matrix(1.0571 0 0 1.25 -3.4 -3.875)" r="2"/>
  <linearGradient id="linearGradient4089" y2="42" xlink:href="#linearGradient3960" gradientUnits="userSpaceOnUse" x2="25" gradientTransform="translate(-2 7)" y1="45" x1="25"/>
  <radialGradient id="radialGradient4091" xlink:href="#linearGradient3688" gradientUnits="userSpaceOnUse" cy="43.5" cx="40" gradientTransform="matrix(1 0 0 .75 19 17.875)" r="2"/>
  <radialGradient id="radialGradient4093" xlink:href="#linearGradient3688" gradientUnits="userSpaceOnUse" cy="43.5" cx="9" gradientTransform="matrix(1 0 0 .75 -2 17.875)" r="2"/>
  <radialGradient id="radialGradient4180" xlink:href="#linearGradient3688" gradientUnits="userSpaceOnUse" cy="43.5" cx="4.993" gradientTransform="matrix(2.0038 0 0 1.4 27.988 -17.4)" r="2.5"/>
  <radialGradient id="radialGradient4182" xlink:href="#linearGradient3688" gradientUnits="userSpaceOnUse" cy="43.5" cx="4.993" gradientTransform="matrix(2.0038 0 0 1.4 -20.012 -104.4)" r="2.5"/>
  <linearGradient id="linearGradient4184" y2="39.999" gradientUnits="userSpaceOnUse" x2="25.058" y1="47.028" x1="25.058">
   <stop id="stop3704" style="stop-opacity:0" offset="0"/>
   <stop id="stop3710" offset=".5"/>
   <stop id="stop3706" style="stop-opacity:0" offset="1"/>
  </linearGradient>
  <linearGradient id="linearGradient4186" y2="61.616" gradientUnits="userSpaceOnUse" x2="-19.532" gradientTransform="matrix(.98481 .17365 -.17365 .98481 79.18 30.431)" y1="9.25" x1="-29.375">
   <stop id="stop8592" style="stop-color:#eeeeec" offset="0"/>
   <stop id="stop8594" style="stop-color:#fff" offset="1"/>
  </linearGradient>
  <linearGradient id="linearGradient4188" y2="18.005" gradientUnits="userSpaceOnUse" x2="-21.478" gradientTransform="matrix(1.6923 0 0 1.6964 170.03 17.414)" y1="-.80552" x1="-21.478">
   <stop id="stop4115" style="stop-color:#78a5d5" offset="0"/>
   <stop id="stop4117" style="stop-color:#7cc4e4" offset="1"/>
  </linearGradient>
  <linearGradient id="linearGradient4214" y2="38.5" gradientUnits="userSpaceOnUse" x2="15.032" y1="38.5" x1="8">
   <stop id="stop4181" style="stop-color:#d2d2d2" offset="0"/>
   <stop id="stop4191" style="stop-color:#ebebeb" offset=".33869"/>
   <stop id="stop4189" style="stop-color:#d2d2d2" offset=".62082"/>
   <stop id="stop4187" style="stop-color:#f5f5f5" offset=".83311"/>
   <stop id="stop4183" style="stop-color:#ededed" offset="1"/>
  </linearGradient>
 </defs>
 <metadata id="metadata4166">
  <rdf:RDF>
   <cc:Work rdf:about="">
    <dc:format>image/svg+xml</dc:format>
    <dc:type rdf:resource="http://purl.org/dc/dcmitype/StillImage"/>
    <dc:title/>
   </cc:Work>
  </rdf:RDF>
 </metadata>
 <g id="layer1">
  <use id="use4164" xlink:href="#g4143" transform="matrix(.98481 .17365 -.17365 .98481 6.1297 -5.063)" height="64" width="64" y="0" x="0"/>
  <g id="g4206" transform="matrix(.97609 -.97609 .97609 .97609 -34.299 18.4)">
   <path id="path4193" style="opacity:0.41;stroke-linejoin:round;color:#000000;stroke:#000;stroke-width:1.4489;fill:none" d="m12.5 28c-1.3375 0-2.4005 1.0449-2.4688 2.3438-0.0022 0.04256-0.03125 0.08192-0.03125 0.125-0.0003255 0.01041-0.0003255 0.02084 0 0.03125-0.0003368 0.01041-0.0003368 0.02084 0 0.03125v9.375c0.0099 0.01087 0.02038 0.0213 0.03125 0.03125-0.000326 0.01041-0.000326 0.02084 0 0.03125-0.0013 0.02081-0.0013 0.04169 0 0.0625 0.03061 0.79461 0.66681 1.4668 1.4688 1.4688v-0.03125c0.7527 0.000907 1.3665-0.5544 1.4688-1.2812 0.01348-0.03012 0.02396-0.06157 0.03125-0.09375 0.0016-0.02219-0.000561-0.04006 0-0.0625 0.000326-0.01041 0.000326-0.02084 0-0.03125 0.000326-0.01041 0.000326-0.02084 0-0.03125 0.01041 0.000326 0.02084 0.000326 0.03125 0v-5.4688c0.0098-0.30915-0.32555-0.57744-0.625-0.5-0.21792 0.05617-0.3821 0.27507-0.375 0.5v5.3438c-0.000326 0.01041-0.000326 0.02084 0 0.03125v0.0625c-0.01186 0.02007-0.02231 0.04097-0.03125 0.0625-0.00073 0.28206-0.21793 0.50073-0.5 0.5-0.28207-0.00072-0.46948-0.24919-0.46875-0.53125-0.01041-0.000326-0.02084-0.000326-0.03125 0 0.01186-0.02007 0.02231-0.04097 0.03125-0.0625v-9.375-0.03125c0.000326-0.01041 0.000326-0.02084 0-0.03125 0-0.82998 0.64098-1.5 1.4688-1.5 0.82777 0 1.5 0.67002 1.5 1.5 0.0072 0.03216 0.01768 0.06362 0.03125 0.09375-0.0013 0.02081-0.0013 0.04169 0 0.0625v10.688c-0.0052 0.04145-0.0052 0.08355 0 0.125v0.0625c0 1.3866-1.1134 2.5-2.5 2.5s-2.5-1.1134-2.5-2.5c0-0.008-0.00008-0.02305 0-0.03125v-0.5h-0.03125v-9.4688c0.00523-0.29617-0.30279-0.55555-0.59375-0.5-0.2292 0.04373-0.41036 0.2667-0.40625 0.5v10c0.00373 0.07641 0.0253 0.1519 0.0625 0.21875 0.1191 1.819 1.619 3.279 3.4687 3.279 1.9271 0 3.5-1.5729 3.5-3.5v-0.5-10.438-0.0625c0.000326-0.01041 0.000326-0.02084 0-0.03125 0-0.04308-0.02901-0.08244-0.03125-0.125-0.068-1.299-1.162-2.344-2.5-2.344z"/>
   <path id="path35480" d="m12.5 28c-1.3375 0-2.4005 1.0449-2.4688 2.3438-0.0022 0.04256-0.03125 0.08192-0.03125 0.125-0.0003255 0.01041-0.0003255 0.02084 0 0.03125-0.0003368 0.01041-0.0003368 0.02084 0 0.03125v9.375c0.0099 0.01087 0.02038 0.0213 0.03125 0.03125-0.000326 0.01041-0.000326 0.02084 0 0.03125-0.0013 0.02081-0.0013 0.04169 0 0.0625 0.03061 0.79461 0.66681 1.4668 1.4688 1.4688v-0.03125c0.7527 0.000907 1.3665-0.5544 1.4688-1.2812 0.01348-0.03012 0.02396-0.06157 0.03125-0.09375 0.0016-0.02219-0.000561-0.04006 0-0.0625 0.000326-0.01041 0.000326-0.02084 0-0.03125 0.000326-0.01041 0.000326-0.02084 0-0.03125 0.01041 0.000326 0.02084 0.000326 0.03125 0v-5.4688c0.0098-0.30915-0.32555-0.57744-0.625-0.5-0.21792 0.05617-0.3821 0.27507-0.375 0.5v5.3438c-0.000326 0.01041-0.000326 0.02084 0 0.03125v0.0625c-0.01186 0.02007-0.02231 0.04097-0.03125 0.0625-0.00073 0.28206-0.21793 0.50073-0.5 0.5-0.28207-0.00072-0.46948-0.24919-0.46875-0.53125-0.01041-0.000326-0.02084-0.000326-0.03125 0 0.01186-0.02007 0.02231-0.04097 0.03125-0.0625v-9.375-0.03125c0.000326-0.01041 0.000326-0.02084 0-0.03125 0-0.82998 0.64098-1.5 1.4688-1.5 0.82777 0 1.5 0.67002 1.5 1.5 0.0072 0.03216 0.01768 0.06362 0.03125 0.09375-0.0013 0.02081-0.0013 0.04169 0 0.0625v10.688c-0.0052 0.04145-0.0052 0.08355 0 0.125v0.0625c0 1.3866-1.1134 2.5-2.5 2.5s-2.5-1.1134-2.5-2.5c0-0.008-0.00008-0.02305 0-0.03125v-0.5h-0.03125v-9.4688c0.00523-0.29617-0.30279-0.55555-0.59375-0.5-0.2292 0.04373-0.41036 0.2667-0.40625 0.5v10c0.00373 0.07641 0.0253 0.1519 0.0625 0.21875 0.1191 1.819 1.619 3.279 3.4687 3.279 1.9271 0 3.5-1.5729 3.5-3.5v-0.5-10.438-0.0625c0.000326-0.01041 0.000326-0.02084 0-0.03125 0-0.04308-0.02901-0.08244-0.03125-0.125-0.068-1.299-1.162-2.344-2.5-2.344z" style="color:#000000;stroke-width:7.755;fill:url(#linearGradient4214)"/>
   <path id="path4195" style="color:#000000;stroke-width:7.755;fill:#fff" d="m12.5 28c-1.3375 0-2.4005 1.0449-2.4688 2.3438-0.002 0.042-0.031 0.082-0.031 0.125-0.0003255 0.01041-0.0003255 0.02084 0 0.03125-0.0003368 0.01041-0.0003368 0.02084 0 0.03125v0.9375c0-0.04308 0.02905-0.08244 0.03125-0.125 0.0579-1.1013 0.8259-1.996 1.875-2.25 0.02942-0.01263 0.06332-0.02054 0.09375-0.03125 0.15213-0.05355 0.32755-0.09375 0.5-0.09375s0.34572 0.0402 0.5 0.09375c0.03086 0.01071 0.06385 0.01862 0.09375 0.03125 1.0559 0.25403 1.8484 1.1487 1.9062 2.25 0.0022 0.04256 0.03125 0.08192 0.03125 0.125v-0.90625-0.0625c0.000326-0.01041 0.000326-0.02084 0-0.03125 0-0.04308-0.02901-0.08244-0.03125-0.125-0.068-1.3-1.162-2.345-2.5-2.345zm-4.0938 3c-0.2292 0.044-0.4103 0.267-0.4062 0.5v1c-0.0041-0.233 0.177-0.456 0.4062-0.5 0.291-0.056 0.599 0.204 0.5938 0.5v-1c0.0052-0.296-0.3028-0.556-0.5938-0.5zm4 3c-0.21792 0.05617-0.3821 0.27507-0.375 0.5v1c-0.0071-0.22493 0.15708-0.44383 0.375-0.5 0.29945-0.07744 0.6348 0.19085 0.625 0.5v-1c0.0098-0.30915-0.32555-0.57744-0.625-0.5zm-0.375 5.9375c-0.012 0.02-0.022 0.04-0.031 0.062-0.00073 0.28206-0.21793 0.50073-0.5 0.5-0.28207-0.00072-0.46948-0.24919-0.46875-0.53125v0.9375c-0.0089 0.02153-0.01939 0.04243-0.03125 0.0625 0.01041-0.000326 0.02084-0.000326 0.03125 0-0.000547 0.21154 0.10958 0.41659 0.28125 0.5 0.05722 0.0278 0.11698 0.03107 0.1875 0.03125v-0.03125c0.07343 0.000088 0.1483-0.02111 0.21875-0.03125 0.159-0.083 0.28-0.242 0.281-0.438 0.0089-0.02153 0.01939-0.04243 0.03125-0.0625v-0.0625c-0.000326-0.01041-0.000326-0.02084 0-0.03125v-0.90625zm-3.031 1.031v1h0.03125v0.5c-0.00008 0.0082 0 0.02325 0 0.03125 0 1.2133 0.85796 2.2054 2 2.4375 0.16315 0.03315 0.32667 0.0625 0.5 0.0625 1.3866 0 2.5-1.1134 2.5-2.5v-0.0625c-0.0052-0.04145-0.0052-0.08355 0-0.125v-0.8125c0 1.3866-1.1134 2.5-2.5 2.5s-2.5-1.1134-2.5-2.5c0-0.008-0.00008-0.02305 0-0.03125v-0.5h-0.03125z"/>
   <path id="path4201" d="m12.5 29c-0.16719 0-0.3428 0.03139-0.5 0.0625-0.03043 0.01071-0.06433 0.01862-0.09375 0.03125-0.52949 0.22735-0.875 0.75252-0.875 1.375 0.000326 0.01041 0.000326 0.02084 0 0.03125v0.03125 0.9375c0-0.82998 0.64098-1.5 1.4688-1.5 0.82777 0 1.5 0.67002 1.5 1.5 0.0072 0.03216 0.01768 0.06362 0.03125 0.09375v-0.9375c-0.0013-0.02081-0.0013-0.04169 0-0.0625-0.013-0.032-0.024-0.063-0.031-0.095 0-0.623-0.368-1.148-0.906-1.375-0.03-0.013-0.063-0.021-0.094-0.032-0.158-0.031-0.333-0.062-0.5-0.062zm-2.5 10.906v1c0.0099 0.01087 0.02038 0.0213 0.03125 0.03125-0.000326 0.01041-0.000326 0.02084 0 0.03125-0.0013 0.02081-0.0013 0.04169 0 0.0625 0.03061 0.79461 0.66681 1.4668 1.4688 1.4688v-0.03125c0.7527 0.000907 1.3665-0.5544 1.4688-1.2812 0.01348-0.03012 0.02396-0.06157 0.03125-0.09375 0.0016-0.02219-0.000561-0.04006 0-0.0625 0.000326-0.01041 0.000326-0.02084 0-0.03125 0.000326-0.01041 0.000326-0.02084 0-0.03125 0.01041 0.000326 0.02084 0.000326 0.03125 0v-1c-0.01041 0.000326-0.02084 0.000326-0.03125 0 0.000326 0.01041 0.000326 0.02084 0 0.03125 0.000326 0.01041 0.000326 0.02084 0 0.03125-0.000561 0.02244 0.0016 0.04031 0 0.0625-0.0073 0.03218-0.01777 0.06363-0.03125 0.09375-0.09224 0.65594-0.59839 1.1562-1.25 1.25-0.06964 0.03614-0.13275 0.06272-0.21875 0.0625-0.07052-0.00018-0.13028-0.0034-0.1875-0.03125-0.70641-0.10122-1.2532-0.70952-1.2812-1.4375-0.0013-0.02081-0.0013-0.04169 0-0.0625-0.000326-0.01041-0.000326-0.02084 0-0.03125-0.011-0.01-0.021-0.021-0.031-0.032zm1.0312 0c-0.0089 0.02153-0.01939 0.04243-0.03125 0.0625 0.01041-0.000326 0.02084-0.000326 0.03125 0v-0.0625zm-3.031 1.594v1c0.00373 0.07641 0.0253 0.1519 0.0625 0.21875 0.1188 1.821 1.6187 3.281 3.4685 3.281 1.9271 0 3.5-1.5729 3.5-3.5v-0.5-0.5c0 1.9271-1.5729 3.5-3.5 3.5-0.1687 0-0.3379-0.03905-0.5-0.0625-1.6153-0.234-2.8605-1.564-2.9685-3.219-0.0372-0.067-0.0588-0.143-0.0625-0.219z" style="opacity:.2;color:#000000;stroke-width:7.755"/>
  </g>
  <g id="g4143">
   <g id="g4074" transform="translate(-1)">
    <path id="rect4206" style="opacity:.4;stroke-linejoin:round;stroke-linecap:square;fill:#fff" d="m7.0303 49h52v1h-52z"/>
    <path id="rect3985" style="opacity:0.12;fill:url(#linearGradient4083)" d="m6.1143 48h53.772v5h-53.772z"/>
    <path id="path3987" d="m59.886 48v5h0.52857c0.87849 0 1.5857-1.115 1.5857-2.5s-0.70723-2.5-1.5857-2.5h-0.52857z" style="opacity:0.12;fill:url(#radialGradient4085)"/>
    <path id="path3989" d="m5.4866 48c-0.8236 0-1.4866 1.045-1.4866 2.344v0.3125c0 1.299 0.663 2.344 1.4866 2.344h0.62768v-5h-0.62768z" style="opacity:0.12;fill:url(#radialGradient4087)"/>
    <path id="rect3938" style="opacity:0.12;fill:url(#linearGradient4089)" d="m7 49h52v3h-52z"/>
    <path id="rect3940" style="opacity:0.12;fill:url(#radialGradient4091)" d="m59 49v3h0.5c0.831 0 1.5-0.669 1.5-1.5s-0.669-1.5-1.5-1.5h-0.5z"/>
    <path id="rect3942" style="opacity:0.12;fill:url(#radialGradient4093)" d="m6.4062 49c-0.77906 0-1.4062 0.62719-1.4062 1.4062v0.1875c0 0.77906 0.62719 1.4062 1.4062 1.4062h0.59375v-3h-0.59375z"/>
   </g>
   <path id="rect3886" d="m5.0303 13v37c0 0.554 0.446 1 1 1h52c0.554 0 1-0.446 1-1v-37c0-0.554-0.446-1-1-1h-52c-0.554 0-1 0.446-1 1z" style="opacity:0.41;color:#bebebe"/>
   <path id="rect3882" d="m6.0303 13v37h52v-37z" style="color:#bebebe;fill:url(#linearGradient4016)"/>
   <path id="path3893" style="opacity:.6;fill:url(#linearGradient4013)" d="m6.0303 13v37h52v-37zm1 1h50v35h-50z"/>
   <g id="g4026" transform="matrix(1.3 0 0 1.3 -10.995 -9.6421)">
    <path id="path4184" style="opacity:.2;block-progression:tb;text-indent:0;color:#000000;text-transform:none;fill:url(#radialGradient4042)" d="m15.124 20.625 9.9062 11.876 0.78125-0.9694zm35.719 0.15625-11.062 11.25l0.991 0.969z"/>
    <path id="path3386" style="block-progression:tb;text-indent:0;color:#000000;text-transform:none;fill:#999" d="m27.687 33.844c0.88388 0.88388 1.4198 1.4537 2.1875 1.7812 0.76773 0.32754 1.6433 0.375 3.1562 0.375s2.3885-0.04746 3.1562-0.375c0.76773-0.32754 1.3036-0.89737 2.1875-1.7812l12.656-13.344-13.343 12.656c-0.88388 0.88388-1.3347 1.3007-1.875 1.5312-0.541 0.231-1.295 0.313-2.782 0.313-1.4871 0-2.2409-0.08198-2.7812-0.3125-0.54033-0.23052-0.99112-0.64737-1.875-1.5312l-13.344-12.656z"/>
    <path id="path4172" style="block-progression:tb;text-indent:0;color:#000000;text-transform:none;fill:#999" d="m25.687 31.656-10.657 11.344 11.344-10.656z"/>
    <path id="path4174" style="block-progression:tb;text-indent:0;color:#000000;text-transform:none;fill:#999" d="m39.374 31.625-0.6875 0.75l12.344 10.625z"/>
    <path id="path4200" d="m27.968 32.844c0.90182 0.86557 1.4198 1.4537 2.1875 1.7812 0.76773 0.32754 1.3621 0.375 2.875 0.375s2.1073-0.04746 2.875-0.375c0.76773-0.32754 1.2843-0.91707 2.1875-1.7812l13.114-12.549-13.802 11.861c-0.94803 0.8147-1.3347 1.3007-1.875 1.5312-0.54033 0.23052-1.0129 0.3125-2.5 0.3125s-1.9597-0.08198-2.5-0.3125c-0.54033-0.23052-0.92785-0.71553-1.875-1.5312l-13.669-11.772z" style="opacity:.6;block-progression:tb;text-indent:0;color:#000000;text-transform:none;fill:#fff"/>
    <path id="path4202" d="m26.312 32.422-11.282 10.578 11.969-9.891z" style="opacity:.6;block-progression:tb;text-indent:0;color:#000000;text-transform:none;fill:#fff"/>
    <path id="path4204" d="m39.265 32.875-0.6875 0.75l12.452 9.375z" style="opacity:.6;block-progression:tb;text-indent:0;color:#000000;text-transform:none;fill:#fff"/>
   </g>
  </g>
 </g>
 <g id="layer2">
  <g id="g4166" transform="matrix(.86710 0 0 .86710 7.5292 6.5213)">
   <g id="g8795" style="opacity:.2" transform="matrix(.88114 .15537 -.13644 .77378 28.563 21.071)">
    <rect id="rect8797" style="fill:url(#radialGradient4180)" height="7" width="5" y="40" x="38"/>
    <rect id="rect8799" style="fill:url(#radialGradient4182)" transform="scale(-1)" height="7" width="5" y="-47" x="-10"/>
    <rect id="rect8801" style="fill:url(#linearGradient4184)" height="7" width="28" y="40" x="10"/>
   </g>
   <path id="path8746" style="fill:url(#linearGradient4186)" d="m29.365 56.679 0.52094-2.9544 0.52318 0.09225c0.25574 0.04509 0.49793-0.12449 0.54303-0.38023l0.1845-1.0464c0.04509-0.25574-0.12449-0.49793-0.38023-0.54303l-0.52318-0.09225 0.3473-1.9696 0.52318 0.09225c0.25574 0.04509 0.49793-0.12449 0.54303-0.38023l0.1845-1.0464c0.04509-0.25574-0.12449-0.49793-0.38023-0.54303l-0.52318-0.09225 0.3473-1.9696 0.52318 0.09225c0.25574 0.04509 0.49793-0.12449 0.54303-0.38023l0.1845-1.0464c0.04509-0.25574-0.12449-0.49793-0.38023-0.54303l-0.52318-0.09225 0.3473-1.9696 0.52318 0.09225c0.25574 0.04509 0.49793-0.12449 0.54303-0.38023l0.1845-1.0464c0.0451-0.25574-0.12449-0.49793-0.38023-0.54303l-0.52318-0.09225 0.3473-1.9696 0.52318 0.09225c0.25574 0.04509 0.49793-0.12449 0.54303-0.38023l0.1845-1.0464c0.04509-0.25574-0.12449-0.49793-0.38023-0.54303l-0.52318-0.09225 0.3473-1.9696 0.52318 0.09225c0.25574 0.04509 0.49793-0.12449 0.54303-0.38023l0.1845-1.0464c0.04509-0.25574-0.12449-0.49793-0.38023-0.54303l-0.52318-0.09225 0.69459-3.9392 3.9392 0.69459-0.09225 0.52318c-0.04509 0.25574 0.12449 0.49793 0.38023 0.54303l1.0464 0.1845c0.25574 0.04509 0.49793-0.12449 0.54303-0.38023l0.09225-0.52318 1.9696 0.3473-0.09225 0.52318c-0.04509 0.25574 0.12449 0.49793 0.38023 0.54303l1.0464 0.1845c0.25574 0.04509 0.49793-0.12449 0.54303-0.38023l0.09225-0.52318 1.9696 0.3473-0.09225 0.52318c-0.04509 0.25574 0.12449 0.49793 0.38023 0.54303l1.0464 0.1845c0.25574 0.04509 0.49793-0.12449 0.54303-0.38023l0.09225-0.52318 1.9696 0.3473-0.09225 0.52318c-0.04509 0.25574 0.12449 0.49793 0.38023 0.54303l1.0464 0.1845c0.25574 0.04509 0.49793-0.12449 0.54303-0.38023l0.09225-0.52318 1.9696 0.3473-0.09225 0.52318c-0.04509 0.25574 0.12449 0.49793 0.38023 0.54303l1.0464 0.1845c0.25574 0.04509 0.49793-0.12449 0.54303-0.38023l0.09225-0.52318 1.9696 0.3473-0.09225 0.52318c-0.04509 0.25574 0.12449 0.49793 0.38023 0.54303l1.0464 0.1845c0.25574 0.04509 0.49793-0.12449 0.54303-0.38023l0.09225-0.52318 2.9544 0.52094-0.52094 2.9544-0.52318-0.09225c-0.25574-0.04509-0.49793 0.12449-0.54303 0.38023l-0.1845 1.0464c-0.04509 0.25574 0.12449 0.49793 0.38023 0.54303l0.52318 0.09225-0.3473 1.9696-0.52318-0.09225c-0.25574-0.04509-0.49793 0.12449-0.54303 0.38023l-0.1845 1.0464c-0.04509 0.25574 0.12449 0.49793 0.38023 0.54303l0.52318 0.09225-0.3473 1.9696-0.52318-0.09225c-0.25574-0.04509-0.49793 0.12449-0.54303 0.38023l-0.1845 1.0464c-0.04509 0.25574 0.12449 0.49793 0.38023 0.54303l0.52318 0.09225-0.3473 1.9696-0.52318-0.09225c-0.25574-0.04509-0.49793 0.12449-0.54303 0.38023l-0.1845 1.0464c-0.04509 0.25574 0.12449 0.49793 0.38023 0.54303l0.52318 0.09225-0.3473 1.9696-0.52318-0.09225c-0.25574-0.04509-0.49793 0.12449-0.54303 0.38023l-0.1845 1.0464c-0.04509 0.25574 0.12449 0.49793 0.38023 0.54303l0.52318 0.09225-0.3473 1.9696-0.52318-0.09225c-0.25574-0.04509-0.49793 0.12449-0.54303 0.38023l-0.1845 1.0464c-0.04509 0.25574 0.12449 0.49793 0.38023 0.54303l0.52318 0.09225-0.69459 3.9392-3.9392-0.69459 0.09225-0.52318c0.04509-0.25574-0.12449-0.49793-0.38023-0.54303l-1.043-0.181c-0.25574-0.04509-0.49793 0.12449-0.54303 0.38023l-0.09225 0.52318-1.9696-0.3473 0.09225-0.52318c0.04509-0.25574-0.12449-0.49793-0.38023-0.54303l-1.0464-0.1845c-0.25574-0.04509-0.49793 0.12449-0.54303 0.38023l-0.09225 0.52318-1.9696-0.3473 0.09225-0.52318c0.04509-0.25574-0.12449-0.49793-0.38023-0.54303l-1.0464-0.1845c-0.25574-0.04509-0.49793 0.12449-0.54303 0.38023l-0.09225 0.52318-1.9696-0.3473 0.09225-0.52318c0.04509-0.25574-0.12449-0.49793-0.38023-0.54303l-1.0464-0.1845c-0.25574-0.04509-0.49793 0.12449-0.54303 0.38023l-0.09225 0.52318-1.9696-0.3473 0.09225-0.52318c0.04509-0.25574-0.12449-0.49793-0.38023-0.54303l-1.0464-0.1845c-0.25574-0.04509-0.49793 0.12449-0.54303 0.38023l-0.09225 0.52318-1.9696-0.3473 0.09225-0.52318c0.04509-0.25574-0.12449-0.49793-0.38023-0.54303l-1.047-0.187c-0.25574-0.0451-0.49793 0.12449-0.54303 0.38023l-0.09225 0.52318-2.9544-0.52094z"/>
   <rect id="rect8651" style="fill:url(#linearGradient4188)" rx="1.023" ry="1" transform="rotate(10)" width="22" y="25.1" x="42.261" height="22"/>
   <rect id="rect8657" style="opacity:.2;stroke-dashoffset:.7;stroke:#fff;stroke-linecap:round;stroke-width:1.1533;fill:none" transform="rotate(10)" height="18.998" width="18.993" y="26.719" x="43.766"/>
   <path id="path4450" d="m29.365 56.679 0.52094-2.9544 0.52318 0.09225c0.25574 0.04509 0.49793-0.12449 0.54303-0.38023l0.1845-1.0464c0.04509-0.25574-0.12449-0.49793-0.38023-0.54303l-0.52318-0.09225 0.3473-1.9696 0.52318 0.09225c0.25574 0.04509 0.49793-0.12449 0.54303-0.38023l0.1845-1.0464c0.04509-0.25574-0.12449-0.49793-0.38023-0.54303l-0.52318-0.09225 0.3473-1.9696 0.52318 0.09225c0.25574 0.04509 0.49793-0.12449 0.54303-0.38023l0.1845-1.0464c0.04509-0.25574-0.12449-0.49793-0.38023-0.54303l-0.52318-0.09225 0.3473-1.9696 0.52318 0.09225c0.25574 0.04509 0.49793-0.12449 0.54303-0.38023l0.1845-1.0464c0.0451-0.25574-0.12449-0.49793-0.38023-0.54303l-0.52318-0.09225 0.3473-1.9696 0.52318 0.09225c0.25574 0.04509 0.49793-0.12449 0.54303-0.38023l0.1845-1.0464c0.04509-0.25574-0.12449-0.49793-0.38023-0.54303l-0.52318-0.09225 0.3473-1.9696 0.52318 0.09225c0.25574 0.04509 0.49793-0.12449 0.54303-0.38023l0.1845-1.0464c0.04509-0.25574-0.12449-0.49793-0.38023-0.54303l-0.52318-0.09225 0.69459-3.9392 3.9392 0.69459-0.09225 0.52318c-0.04509 0.25574 0.12449 0.49793 0.38023 0.54303l1.0464 0.1845c0.25574 0.04509 0.49793-0.12449 0.54303-0.38023l0.09225-0.52318 1.9696 0.3473-0.09225 0.52318c-0.04509 0.25574 0.12449 0.49793 0.38023 0.54303l1.0464 0.1845c0.25574 0.04509 0.49793-0.12449 0.54303-0.38023l0.09225-0.52318 1.9696 0.3473-0.09225 0.52318c-0.04509 0.25574 0.12449 0.49793 0.38023 0.54303l1.0464 0.1845c0.25574 0.04509 0.49793-0.12449 0.54303-0.38023l0.09225-0.52318 1.9696 0.3473-0.09225 0.52318c-0.04509 0.25574 0.12449 0.49793 0.38023 0.54303l1.0464 0.1845c0.25574 0.04509 0.49793-0.12449 0.54303-0.38023l0.09225-0.52318 1.9696 0.3473-0.09225 0.52318c-0.04509 0.25574 0.12449 0.49793 0.38023 0.54303l1.0464 0.1845c0.25574 0.04509 0.49793-0.12449 0.54303-0.38023l0.09225-0.52318 1.9696 0.3473-0.09225 0.52318c-0.04509 0.25574 0.12449 0.49793 0.38023 0.54303l1.0464 0.1845c0.25574 0.04509 0.49793-0.12449 0.54303-0.38023l0.09225-0.52318 2.9544 0.52094-0.52094 2.9544-0.52318-0.09225c-0.25574-0.04509-0.49793 0.12449-0.54303 0.38023l-0.1845 1.0464c-0.04509 0.25574 0.12449 0.49793 0.38023 0.54303l0.52318 0.09225-0.3473 1.9696-0.52318-0.09225c-0.25574-0.04509-0.49793 0.12449-0.54303 0.38023l-0.1845 1.0464c-0.04509 0.25574 0.12449 0.49793 0.38023 0.54303l0.52318 0.09225-0.3473 1.9696-0.52318-0.09225c-0.25574-0.04509-0.49793 0.12449-0.54303 0.38023l-0.1845 1.0464c-0.04509 0.25574 0.12449 0.49793 0.38023 0.54303l0.52318 0.09225-0.3473 1.9696-0.52318-0.09225c-0.25574-0.04509-0.49793 0.12449-0.54303 0.38023l-0.1845 1.0464c-0.04509 0.25574 0.12449 0.49793 0.38023 0.54303l0.52318 0.09225-0.3473 1.9696-0.52318-0.09225c-0.25574-0.04509-0.49793 0.12449-0.54303 0.38023l-0.1845 1.0464c-0.04509 0.25574 0.12449 0.49793 0.38023 0.54303l0.52318 0.09225-0.3473 1.9696-0.52318-0.09225c-0.25574-0.04509-0.49793 0.12449-0.54303 0.38023l-0.1845 1.0464c-0.04509 0.25574 0.12449 0.49793 0.38023 0.54303l0.52318 0.09225-0.69459 3.9392-3.9392-0.69459 0.09225-0.52318c0.04509-0.25574-0.12449-0.49793-0.38023-0.54303l-1.043-0.181c-0.25574-0.04509-0.49793 0.12449-0.54303 0.38023l-0.09225 0.52318-1.9696-0.3473 0.09225-0.52318c0.04509-0.25574-0.12449-0.49793-0.38023-0.54303l-1.0464-0.1845c-0.25574-0.04509-0.49793 0.12449-0.54303 0.38023l-0.09225 0.52318-1.9696-0.3473 0.09225-0.52318c0.04509-0.25574-0.12449-0.49793-0.38023-0.54303l-1.0464-0.1845c-0.25574-0.04509-0.49793 0.12449-0.54303 0.38023l-0.09225 0.52318-1.9696-0.3473 0.09225-0.52318c0.04509-0.25574-0.12449-0.49793-0.38023-0.54303l-1.0464-0.1845c-0.25574-0.04509-0.49793 0.12449-0.54303 0.38023l-0.09225 0.52318-1.9696-0.3473 0.09225-0.52318c0.04509-0.25574-0.12449-0.49793-0.38023-0.54303l-1.0464-0.1845c-0.25574-0.04509-0.49793 0.12449-0.54303 0.38023l-0.09225 0.52318-1.9696-0.3473 0.09225-0.52318c0.04509-0.25574-0.12449-0.49793-0.38023-0.54303l-1.047-0.187c-0.25574-0.0451-0.49793 0.12449-0.54303 0.38023l-0.09225 0.52318-2.9544-0.52094z" style="opacity:0.41;stroke-dashoffset:.7;stroke:#000;stroke-linecap:round;stroke-width:1.1533;fill:none"/>
   <rect id="rect4452" style="opacity:.1;stroke:#000;stroke-width:2.3065;fill:none" clip-path="url(#clipPath4456)" rx="1.023" transform="matrix(.98481 .17365 -.17365 .98481 8.0364 -9.6507)" ry="1" width="22" y="36" x="36.023" height="22"/>
   <path id="path4152" d="m53.13 45.886c-0.15898 0.90128-0.41621 1.6587-0.77186 2.2724-0.35566 0.61364-0.80858 1.0617-1.3587 1.3441-0.54487 0.28334-1.1746 0.36202-1.8892 0.23601-0.52799-0.0931-0.95526-0.24268-1.2818-0.44873-0.32127-0.20511-0.52317-0.51016-0.60572-0.91513-0.84412 0.39004-1.6448 0.5183-2.4021 0.38477-0.6773-0.11942-1.2229-0.37783-1.6367-0.77524-0.41382-0.3974-0.69309-0.90304-0.83779-1.5169-0.14377-0.61922-0.14884-1.3075-0.01472-2.0648 0.21721-1.2319 0.69108-2.1574 1.4216-2.7764 0.73146-0.62436 1.6358-0.84156 2.7131-0.65162 0.60262 0.10626 1.1857 0.40154 1.7492 0.8858l0.05774-0.32798 1.7199 0.30326-0.98172 5.5677c-0.06198 0.35198-0.04155 0.57831 0.06166 0.67899 0.1086 0.10162 0.24014 0.16608 0.39482 0.19333 0.3413 0.0602 0.64558-0.01259 0.91283-0.21846 0.26723-0.20582 0.49806-0.51704 0.69252-0.93366 0.19976-0.41568 0.34853-0.90083 0.44636-1.4555 0.30841-1.7492 0.09241-3.1593-0.64808-4.2301-0.73516-1.0699-1.948-1.7539-3.6386-2.052-1.0399-0.18336-2.0226-0.11469-2.948 0.20604-0.92536 0.32074-1.6965 0.85837-2.3135 1.6129-0.61067 0.75014-1.0058 1.6345-1.1854 2.6531-0.19467 1.1039-0.1405 2.106 0.16274 3.0063 0.30849 0.90121 0.83264 1.6397 1.5724 2.2156 0.74415 0.58212 1.6655 0.97004 2.7641 1.1638 0.65596 0.11567 1.2682 0.19886 1.8366 0.2496 0.57376 0.05167 1.18 0.0596 1.8187 0.02375l0.05806 1.4949c-1.0575 0.07198-2.3862-0.03309-3.9861-0.31519-1.3866-0.2445-2.5638-0.74076-3.5317-1.4888-0.9688-0.7427-1.6566-1.6915-2.0633-2.8465-0.40043-1.1594-0.47935-2.427-0.23674-3.8029 0.22475-1.2746 0.73372-2.3836 1.5269-3.327 0.79415-0.94873 1.791-1.628 2.9905-2.0379 1.1995-0.40985 2.4579-0.49864 3.7752-0.26639 2.1439 0.37803 3.7163 1.2684 4.7172 2.6711s1.3142 3.1654 0.93995 5.2879m-5.2055-2.4767c-0.54309-0.47517-1.0386-0.75226-1.4866-0.83125-0.62397-0.11001-1.1329 0.000947-1.5269 0.33289-0.38769 0.32756-0.65771 0.92331-0.81004 1.7873-0.13445 0.76262-0.08653 1.3484 0.14377 1.7575 0.23124 0.4037 0.62152 0.65398 1.1708 0.75083 0.47464 0.08368 1.1125-0.05677 1.9137-0.42141l0.59525-3.3758" style="opacity:.5;fill:#fff"/>
   <path id="path4129" style="fill:#fff" d="m34.812 28.719-0.53125 2.9375h0.03125c0.04808 0.0085 0.07999 0.04714 0.125 0.0625l0.375-2 2.9375 0.5v0.03125c-0.09168 0.52001 0.26123 1.0333 0.78125 1.125l1.0625 0.1875c0.52001 0.09168 1.0333-0.26123 1.125-0.78125v-0.03125l0.96875 0.15625v0.03125c-0.09168 0.52001 0.26123 1.0333 0.78125 1.125l1.0625 0.1875c0.52001 0.09168 1.0333-0.26123 1.125-0.78125v-0.03125l0.96875 0.15625v0.03125c-0.09168 0.52001 0.26123 1.0333 0.78125 1.125l1.0625 0.1875c0.52001 0.09168 1.0333-0.26123 1.125-0.78125v-0.03125l0.96875 0.1875v0.03125c-0.09168 0.52001 0.26123 1.0333 0.78125 1.125l1.0625 0.1875c0.52001 0.09168 1.0333-0.29248 1.125-0.8125l0.967 0.156v0.03125c-0.09168 0.52001 0.29248 1.0333 0.8125 1.125l1.0312 0.1875c0.52001 0.09168 1.0333-0.26123 1.125-0.78125v-0.03125l0.96875 0.15625v0.03125c-0.09168 0.52001 0.29248 1.0333 0.8125 1.125l1.0312 0.1875c0.52001 0.09168 1.0333-0.26123 1.125-0.78125v-0.03125l1.8125 0.3125 0.15625-0.96875-1.9688-0.34375v0.03125c-0.09169 0.52002-0.60499 0.87293-1.125 0.78125l-1.031-0.188c-0.52002-0.09169-0.90418-0.60499-0.8125-1.125v-0.03125l-0.96875-0.15625v0.03125c-0.09169 0.52002-0.60499 0.87293-1.125 0.78125l-1.032-0.188c-0.52-0.091-0.904-0.605-0.812-1.125v-0.031l-0.969-0.156c-0.09169 0.52002-0.60499 0.90418-1.125 0.8125l-1.0625-0.1875c-0.52002-0.09169-0.87293-0.60499-0.78125-1.125v-0.03125l-0.96875-0.1875v0.03125c-0.09169 0.52002-0.60499 0.87293-1.125 0.78125l-1.063-0.187c-0.52-0.092-0.873-0.605-0.781-1.125v-0.03125l-0.96875-0.15625v0.03125c-0.09169 0.52002-0.60499 0.87293-1.125 0.78125l-1.0625-0.1875c-0.52002-0.09169-0.87293-0.60499-0.78125-1.125v-0.03125l-0.96875-0.15625v0.03125c-0.09169 0.52002-0.60499 0.87293-1.125 0.78125l-1.062-0.187c-0.52-0.092-0.873-0.605-0.781-1.125v-0.03125l-2.9375-0.5zm0.1875 4.5-0.09375 0.59375c-0.09169 0.52002-0.60499 0.90418-1.125 0.8125h-0.03125l-0.15625 0.96875h0.03125c0.04808 0.0085 0.07999 0.04714 0.125 0.0625v-0.03125h0.03125c0.52001 0.09168 1.0333-0.29248 1.125-0.8125l0.1875-1.0312c0.035-0.204-0.012-0.389-0.094-0.564zm-0.6875 3.9375-0.09375 0.625c-0.09169 0.52002-0.60499 0.87293-1.125 0.78125h-0.03125l-0.15625 0.96875h0.03125c0.04808 0.0085 0.07999 0.04714 0.125 0.0625v-0.03125h0.03125c0.52001 0.09168 1.0333-0.26123 1.125-0.78125l0.1875-1.0625c0.03564-0.20213-0.01134-0.38677-0.09375-0.5625zm26.469 0.75-0.09375 0.4375c-0.0832 0.47193 0.21452 0.91175 0.65625 1.0625l0.15625-0.9375h-0.03125c-0.31789-0.05605-0.55789-0.28613-0.6875-0.5625zm-27.156 3.1875-0.09375 0.625c-0.09169 0.52002-0.60499 0.87293-1.125 0.78125h-0.03125l-0.15625 0.96875c0.05788 0.01021 0.10221 0.04242 0.15625 0.0625v-0.03125h0.03125c0.52001 0.09168 1.0333-0.26123 1.125-0.78125l0.1875-1.0625c0.036-0.204-0.011-0.389-0.093-0.564zm26.469 0.781-0.094 0.437c-0.08365 0.47446 0.21043 0.91891 0.65625 1.0625l0.15625-0.96875h-0.03125c-0.318-0.055-0.558-0.263-0.687-0.53zm-27.156 3.1875-0.09375 0.59375c-0.0917 0.52002-0.60499 0.87293-1.125 0.78125h-0.03125l-0.1875 0.96875h0.03125c0.05788 0.01021 0.10289 0.04242 0.15625 0.0625v-0.03125h0.03125c0.52001 0.09168 1.0333-0.26123 1.125-0.78125l0.1875-1.0625c0.033-0.191-0.017-0.363-0.094-0.532zm26.469 0.75-0.09375 0.4375c-0.08365 0.47446 0.21043 0.91891 0.65625 1.0625l0.15625-0.96875h-0.03125c-0.318-0.055-0.558-0.263-0.688-0.531zm-27.188 3.1562-0.09375 0.625c-0.09169 0.52002-0.57374 0.87293-1.0938 0.78125h-0.0625l-0.15625 0.96875h0.03125c0.04808 0.0085 0.07999 0.04714 0.125 0.0625v-0.03125h0.0625c0.52001 0.09168 1.0021-0.26123 1.0938-0.78125l0.1875-1.0625c0.03564-0.20213-0.01134-0.38677-0.09375-0.5625zm26.5 0.78125-0.09375 0.4375c-0.08148 0.46213 0.19897 0.90217 0.625 1.0625l0.1875-0.9375h-0.03125c-0.318-0.054-0.558-0.284-0.687-0.56zm-27.188 3.1562-0.09375 0.625c-0.09169 0.52002-0.60499 0.87293-1.125 0.78125h-0.03125l-0.34375 1.9688 0.15625 0.03125 0.1875-1h0.03125c0.52001 0.09168 1.0333-0.26123 1.125-0.78125l0.1875-1.0625c0.03564-0.20213-0.01134-0.38677-0.09375-0.5625zm26.469 0.751-0.094 0.469c-0.08148 0.46213 0.22473 0.90217 0.65625 1.0625l0.157-0.938c-0.33-0.058-0.585-0.303-0.719-0.594zm-0.6875 3.9688-0.09375 0.4375c-0.0832 0.47193 0.21452 0.91174 0.65625 1.0625l0.15625-0.9375h-0.03125c-0.317-0.055-0.557-0.285-0.687-0.561z"/>
  </g>
 </g>
</svg>
