<?xml version="1.0" encoding="UTF-8" standalone="no"?>
<!-- Created with Inkscape (http://www.inkscape.org/) -->
<svg id="svg4161" xmlns:rdf="http://www.w3.org/1999/02/22-rdf-syntax-ns#" xmlns="http://www.w3.org/2000/svg" height="64" width="64" version="1.1" xmlns:cc="http://creativecommons.org/ns#" xmlns:xlink="http://www.w3.org/1999/xlink" xmlns:dc="http://purl.org/dc/elements/1.1/">
 <defs id="defs4163">
  <linearGradient id="linearGradient3897" y2="39.999" gradientUnits="userSpaceOnUse" x2="25.058" gradientTransform="matrix(1.579 0 0 .71429 -5.8948 27.929)" y1="47.028" x1="25.058">
   <stop id="stop2895-8-9-9-1" style="stop-color:#181818;stop-opacity:0" offset="0"/>
   <stop id="stop2897-7-8-7-7" style="stop-color:#181818" offset=".5"/>
   <stop id="stop2899-4-5-1-5" style="stop-color:#181818;stop-opacity:0" offset="1"/>
  </linearGradient>
  <radialGradient id="radialGradient3900" gradientUnits="userSpaceOnUse" cy="43.5" cx="4.993" gradientTransform="matrix(3.1639 0 0 1 -25.703 -102.5)" r="2.5">
   <stop id="stop2889-7-9-6-9" style="stop-color:#181818" offset="0"/>
   <stop id="stop2891-6-6-1-7" style="stop-color:#181818;stop-opacity:0" offset="1"/>
  </radialGradient>
  <radialGradient id="radialGradient3903" gradientUnits="userSpaceOnUse" cy="43.5" cx="4.993" gradientTransform="matrix(3.1639 0 0 1 38.297 15.5)" r="2.5">
   <stop id="stop2883-4-0-1-8" style="stop-color:#181818" offset="0"/>
   <stop id="stop2885-9-2-9-6" style="stop-color:#181818;stop-opacity:0" offset="1"/>
  </radialGradient>
  <linearGradient id="linearGradient3911" y2="60" gradientUnits="userSpaceOnUse" x2="32" y1="4" x1="32">
   <stop id="stop3907" style="stop-color:#fff" offset="0"/>
   <stop id="stop3909" style="stop-color:#fff;stop-opacity:0" offset="1"/>
  </linearGradient>
  <clipPath id="clipPath4384" clipPathUnits="userSpaceOnUse">
   <rect id="rect4386" style="opacity:0;color:#bebebe" ry="7" height="14" width="36" y="184" x="318"/>
  </clipPath>
  <linearGradient id="linearGradient3413">
   <stop id="stop3415" style="stop-color:#ddd" offset="0"/>
   <stop id="stop3417" style="stop-color:#f2f2f2" offset="1"/>
  </linearGradient>
  <linearGradient id="linearGradient3993" y2="231" xlink:href="#linearGradient3413" gradientUnits="userSpaceOnUse" x2="336" gradientTransform="matrix(1.5 0 0 1.5 -460 -346)" y1="273" x1="336"/>
  <linearGradient id="linearGradient3997" y2="273" gradientUnits="userSpaceOnUse" x2="324" gradientTransform="matrix(1.5 0 0 1.5 -460 -346)" y1="231" x1="324">
   <stop id="stop4086" style="stop-color:#cd5fc2" offset="0"/>
   <stop id="stop4088" style="stop-color:#9a4993" offset="1"/>
  </linearGradient>
  <linearGradient id="linearGradient4000" y2="277" gradientUnits="userSpaceOnUse" x2="328" gradientTransform="matrix(1.5 0 0 1.5 -460 -352)" y1="235" x1="328">
   <stop id="stop4102" style="stop-color:#aaa" offset="0"/>
   <stop id="stop4104" style="stop-color:#767676" offset="1"/>
  </linearGradient>
  <linearGradient id="linearGradient4004" y2="32" xlink:href="#linearGradient3413" gradientUnits="userSpaceOnUse" x2="59.5" gradientTransform="matrix(0,-1,-1,0,64,64)" y1="32" x1="4.5"/>
 </defs>
 <metadata id="metadata4166">
  <rdf:RDF>
   <cc:Work rdf:about="">
    <dc:format>image/svg+xml</dc:format>
    <dc:type rdf:resource="http://purl.org/dc/dcmitype/StillImage"/>
    <dc:title/>
   </cc:Work>
  </rdf:RDF>
 </metadata>
 <g id="layer1">
  <rect id="rect2801-5-5-7-9" style="opacity:.6;fill:url(#radialGradient3903)" height="5" width="7.8948" y="56.5" x="54.105"/>
  <rect id="rect3696-3-0-3-7" style="opacity:.6;fill:url(#radialGradient3900)" transform="scale(-1)" height="5" width="7.8948" y="-61.5" x="-9.8948"/>
  <rect id="rect3700-5-6-8-4" style="opacity:.6;fill:url(#linearGradient3897)" height="5" width="44.211" y="56.5" x="9.8948"/>
  <path id="rect5505-21-3-8-5-2" style="color:#000000;fill:url(#linearGradient4004)" d="m7.5 5c-1.3936 0-2.5 1.1064-2.5 2.5v49c0 1.394 1.1064 2.5 2.5 2.5h49c1.3936 0 2.5-1.1064 2.5-2.5v-49c0-1.3936-1.106-2.5-2.5-2.5h-49z"/>
  <rect id="rect6741-5-0-2-3" style="opacity:.1;stroke-linejoin:round;stroke:url(#linearGradient3911);stroke-linecap:round;fill:none" rx="2" ry="2" height="53.142" width="53" y="5.4288" x="5.5"/>
  <rect id="rect5505-21-3-8-9-1-1" style="opacity:.41;stroke-linejoin:round;color:#000000;stroke:#000;stroke-linecap:round;fill:none" rx="3" ry="3" height="55" width="55" y="4.5" x="4.5"/>
  <path id="rect3932" style="opacity:.15;color:#000000;fill:#fff" d="m7.5 5c-1.3936 0-2.5 1.1064-2.5 2.5v1c0-1.3936 1.1064-2.5 2.5-2.5h49c1.394 0 2.5 1.1064 2.5 2.5v-1c0-1.3936-1.106-2.5-2.5-2.5h-49z"/>
  <path id="path3946" style="opacity:.15;color:#000000;fill:#fff" d="m7.5 59c-1.3936 0-2.5-1.106-2.5-2.5v-1c0 1.394 1.1064 2.5 2.5 2.5h49c1.3936 0 2.5-1.1064 2.5-2.5v1c0 1.3936-1.1064 2.5-2.5 2.5h-49z"/>
 </g>
 <g id="layer2">
  <g id="g5006" style="opacity:.4;enable-background:new;fill:#fff" transform="translate(-288 -136.5)">
   <rect id="rect5008" style="color:#bebebe;enable-background:accumulate;fill:#fff" ry="7" height="14" width="36" y="173.5" x="302"/>
   <rect id="rect5010" style="color:#bebebe;enable-background:accumulate;fill:#fff" ry="6.75" height="14" width="36" y="151.5" x="302"/>
   <rect id="rect5012" style="opacity:.1;color:#bebebe;enable-background:accumulate;fill:#fff" ry="6" height="12" width="21" y="153.5" x="316"/>
   <rect id="rect5014" style="color:#bebebe;enable-background:accumulate;fill:#fff" ry="6" height="12" width="21" y="152.5" x="316"/>
   <rect id="rect5016" style="opacity:.1;color:#bebebe;enable-background:accumulate;fill:#fff" ry="6" height="12" width="21" y="175.5" x="303"/>
   <rect id="rect5018" style="color:#bebebe;enable-background:accumulate;fill:#fff" ry="6" height="12" width="21" y="174.5" x="303"/>
   <rect id="rect5020" ry="7" style="opacity:0;color:#bebebe;enable-background:accumulate" clip-path="url(#clipPath4384)" transform="translate(-16 -10.5)" height="14" width="36" y="184" x="318"/>
   <rect id="rect5022" style="opacity:0;stroke-width:2;color:#bebebe;enable-background:accumulate" transform="translate(-16 -10.5)" clip-path="url(#clipPath4384)" ry="7" height="14" width="36" y="184" x="318"/>
   <rect id="rect5024" style="opacity:0;stroke-width:2;color:#bebebe;enable-background:accumulate" transform="translate(-16 -32.5)" clip-path="url(#clipPath4384)" ry="7" height="14" width="36" y="184" x="318"/>
   <rect id="rect5026" style="opacity:0;color:#bebebe;enable-background:accumulate" transform="translate(-16 -32.5)" clip-path="url(#clipPath4384)" ry="7" height="14" width="36" y="184" x="318"/>
  </g>
  <rect id="rect4266" style="color:#bebebe;fill:url(#linearGradient4000)" ry="7" height="14" width="36" y="36" x="14"/>
  <rect id="rect4268" style="color:#bebebe;fill:url(#linearGradient3997)" ry="6.75" height="14" width="36" y="14" x="14"/>
  <path id="path4002" style="opacity:.2;color:#bebebe" d="m34 16c-3.324 0-6 2.676-6 6s2.676 6 6 6h9c3.324 0 6-2.676 6-6s-2.676-6-6-6h-9zm-13 22c-3.324 0-6 2.676-6 6s2.676 6 6 6h9c3.324 0 6-2.676 6-6s-2.676-6-6-6h-9z"/>
  <rect id="rect4376" style="opacity:.15;color:#bebebe" ry="6" height="12" width="21" y="16" x="28"/>
  <path id="rect4276" d="m34 15c-3.324 0-6 2.676-6 6s2.676 6 6 6h9c3.324 0 6-2.676 6-6s-2.676-6-6-6h-9zm-13 22c-3.324 0-6 2.676-6 6s2.676 6 6 6h9c3.324 0 6-2.676 6-6s-2.676-6-6-6h-9z" style="color:#bebebe;fill:url(#linearGradient3993)"/>
  <rect id="rect4380" ry="7" style="opacity:0;color:#bebebe" clip-path="url(#clipPath4384)" transform="translate(-304,-148)" height="14" width="36" y="184" x="318"/>
  <rect id="rect4388" style="opacity:0;stroke-width:2;color:#bebebe" transform="translate(-304,-148)" clip-path="url(#clipPath4384)" ry="7" height="14" width="36" y="184" x="318"/>
  <rect id="rect4390" style="opacity:0;stroke-width:2;color:#bebebe" transform="translate(-304 -170)" clip-path="url(#clipPath4384)" ry="7" height="14" width="36" y="184" x="318"/>
  <rect id="rect4392" style="opacity:0;color:#bebebe" transform="translate(-304 -170)" clip-path="url(#clipPath4384)" ry="7" height="14" width="36" y="184" x="318"/>
  <path id="rect3957" d="m20.75 14c-3.739 0-6.75 3.011-6.75 6.75v0.5c0 0.08481-0.0031 0.16596 0 0.25 0.13232-3.6212 3.0953-6.5 6.75-6.5h22.5c3.6547 0 6.6177 2.8788 6.75 6.5 0.0031-0.08404 0-0.16519 0-0.25v-0.5c0-3.739-3.011-6.75-6.75-6.75h-22.5zm0.25 22c-3.878 0-7 3.122-7 7 0 0.16875 0.01962 0.33431 0.03125 0.5 0.256-3.642 3.26-6.5 6.969-6.5h22c3.7092 0 6.7132 2.858 6.9688 6.5 0.011-0.166 0.031-0.331 0.031-0.5 0-3.878-3.122-7-7-7h-22z" style="opacity:.1;color:#bebebe"/>
  <path id="rect3967" d="m34 15c-3.324 0-6 2.676-6 6 0 0.12486 0.02381 0.25208 0.03125 0.375 0.306-3.033 2.853-5.375 5.969-5.375h9c3.1162 0 5.6626 2.3421 5.9688 5.375 0.007-0.123 0.031-0.25 0.031-0.375 0-3.324-2.676-6-6-6h-9zm-13 22c-3.324 0-6 2.676-6 6 0 0.12486 0.02381 0.25208 0.03125 0.375 0.306-3.033 2.853-5.375 5.969-5.375h9c3.1162 0 5.6626 2.3421 5.9688 5.375 0.007-0.123 0.031-0.25 0.031-0.375 0-3.324-2.676-6-6-6h-9z" style="opacity:.4;color:#bebebe;fill:#fff"/>
 </g>
</svg>
