<?xml version="1.0" encoding="UTF-8" standalone="no"?>
<!-- Created with Inkscape (http://www.inkscape.org/) -->
<svg id="svg4161" xmlns:rdf="http://www.w3.org/1999/02/22-rdf-syntax-ns#" xmlns="http://www.w3.org/2000/svg" height="64" width="64" version="1.1" xmlns:cc="http://creativecommons.org/ns#" xmlns:xlink="http://www.w3.org/1999/xlink" xmlns:dc="http://purl.org/dc/elements/1.1/">
 <defs id="defs4163">
  <linearGradient id="linearGradient3884" y2="32" gradientUnits="userSpaceOnUse" x2="59.5" gradientTransform="translate(-64,-64)" y1="32" x1="4.5">
   <stop id="stop3864-8-6-0" style="stop-color:#2ba051" offset="0"/>
   <stop id="stop3866-9-1-7" style="stop-color:#46bc6c" offset="1"/>
  </linearGradient>
  <linearGradient id="linearGradient3897" y2="39.999" gradientUnits="userSpaceOnUse" x2="25.058" gradientTransform="matrix(1.579 0 0 .71429 -5.8948 27.929)" y1="47.028" x1="25.058">
   <stop id="stop2895-8-9-9-1" style="stop-color:#181818;stop-opacity:0" offset="0"/>
   <stop id="stop2897-7-8-7-7" style="stop-color:#181818" offset=".5"/>
   <stop id="stop2899-4-5-1-5" style="stop-color:#181818;stop-opacity:0" offset="1"/>
  </linearGradient>
  <radialGradient id="radialGradient3900" gradientUnits="userSpaceOnUse" cy="43.5" cx="4.993" gradientTransform="matrix(3.1639 0 0 1 -25.703 -102.5)" r="2.5">
   <stop id="stop2889-7-9-6-9" style="stop-color:#181818" offset="0"/>
   <stop id="stop2891-6-6-1-7" style="stop-color:#181818;stop-opacity:0" offset="1"/>
  </radialGradient>
  <radialGradient id="radialGradient3903" gradientUnits="userSpaceOnUse" cy="43.5" cx="4.993" gradientTransform="matrix(3.1639 0 0 1 38.297 15.5)" r="2.5">
   <stop id="stop2883-4-0-1-8" style="stop-color:#181818" offset="0"/>
   <stop id="stop2885-9-2-9-6" style="stop-color:#181818;stop-opacity:0" offset="1"/>
  </radialGradient>
  <linearGradient id="linearGradient3911" y2="60" gradientUnits="userSpaceOnUse" x2="32" y1="4" x1="32">
   <stop id="stop3907" style="stop-color:#fff" offset="0"/>
   <stop id="stop3909" style="stop-color:#fff;stop-opacity:0" offset="1"/>
  </linearGradient>
  <linearGradient id="linearGradient3972" y2="4" gradientUnits="userSpaceOnUse" x2="24" gradientTransform="matrix(1.3846 0 0 1.3846 -1.2308 -1.2308)" y1="44" x1="24">
   <stop id="stop4726" style="stop-color:#f2fff6" offset="0"/>
   <stop id="stop4728" style="stop-color:#f4fff5" offset="1"/>
  </linearGradient>
 </defs>
 <metadata id="metadata4166">
  <rdf:RDF>
   <cc:Work rdf:about="">
    <dc:format>image/svg+xml</dc:format>
    <dc:type rdf:resource="http://purl.org/dc/dcmitype/StillImage"/>
    <dc:title/>
   </cc:Work>
  </rdf:RDF>
 </metadata>
 <g id="layer1">
  <rect id="rect2801-5-5-7-9" style="opacity:.6;fill:url(#radialGradient3903)" height="5" width="7.8948" y="56.5" x="54.105"/>
  <rect id="rect3696-3-0-3-7" style="opacity:.6;fill:url(#radialGradient3900)" transform="scale(-1)" height="5" width="7.8948" y="-61.5" x="-9.8948"/>
  <rect id="rect3700-5-6-8-4" style="opacity:.6;fill:url(#linearGradient3897)" height="5" width="44.211" y="56.5" x="9.8948"/>
  <rect id="rect5505-21-3-8-5-2" style="color:#000000;fill:url(#linearGradient3884)" rx="3" transform="matrix(0,-1,-1,0,0,0)" ry="3" width="55" y="-59.5" x="-59.5" height="55"/>
  <rect id="rect6741-5-0-2-3" style="opacity:.1;stroke-linejoin:round;stroke:url(#linearGradient3911);stroke-linecap:round;fill:none" rx="2" ry="2" height="53.142" width="53" y="5.4288" x="5.5"/>
  <rect id="rect5505-21-3-8-9-1-1" style="opacity:.81;stroke-linejoin:round;color:#000000;stroke:#007625;stroke-linecap:round;fill:none" rx="3" ry="3" height="55" width="55" y="4.5" x="4.5"/>
  <path id="rect3932" style="opacity:.15;color:#000000;fill:#fff" d="m7.5 5c-1.3936 0-2.5 1.1064-2.5 2.5v1c0-1.3936 1.1064-2.5 2.5-2.5h49c1.394 0 2.5 1.1064 2.5 2.5v-1c0-1.3936-1.106-2.5-2.5-2.5h-49z"/>
  <path id="path3946" style="opacity:.15;color:#000000;fill:#fff" d="m7.5 59c-1.3936 0-2.5-1.106-2.5-2.5v-1c0 1.394 1.1064 2.5 2.5 2.5h49c1.3936 0 2.5-1.1064 2.5-2.5v1c0 1.3936-1.1064 2.5-2.5 2.5h-49z"/>
 </g>
 <g id="layer2">
  <path id="path3979" style="opacity:.3;enable-background:new" d="m32.036 15c3.6547 0 7.2374 1.0973 10.296 3.24 0.97776 0.684 1.188 2.0103 0.504 2.988-0.68256 0.97782-2.0117 1.2254-2.988 0.54-2.363-1.6546-5.1293-2.4739-7.956-2.448-0.40608 0-0.792 0-1.188 0.036-0.12102 0.01385-0.23904 0.05677-0.36 0.072-0.32544 0.04016-0.6552 0.0817-0.972 0.144-0.14112 0.0277-0.2952 0.04016-0.432 0.072-0.31248 0.07062-0.63216 0.15978-0.936 0.252-0.0965 0.03047-0.19152 0.07616-0.288 0.108-0.34704 0.11354-0.67248 0.22043-1.008 0.36-0.03462 0.01523-0.0749 0.02215-0.108 0.036-2.0131 0.86538-3.7699 2.2205-5.148 3.888-0.0083 0.01385-0.02742 0.0263-0.036 0.036-1.9382 2.3601-3.0946 5.3538-3.096 8.64h3.6l-5.76 8.64-5.76-8.64h3.6c0.0014-3.7757 1.1722-7.2547 3.168-10.152 0.0288-0.04984 0.0389-0.0983 0.072-0.144 0.24768-0.35418 0.52272-0.6768 0.792-1.008 0.0317-0.04016 0.0749-0.10385 0.108-0.144 1.8259-2.2162 4.0968-3.9212 6.696-5.04 0.072-0.03184 0.144-0.07753 0.216-0.108 0.41472-0.17142 0.83232-0.32538 1.26-0.468 0.15408-0.05123 0.31104-0.09692 0.468-0.144 0.37296-0.11354 0.7704-0.20022 1.152-0.288 0.21024-0.04847 0.39888-0.10246 0.612-0.144 0.1051-0.01938 0.22032-0.054 0.324-0.072 0.28512-0.04985 0.57888-0.07062 0.864-0.108 0.19728-0.02353 0.37728-0.05262 0.576-0.072 0.47808-0.0443 0.9648-0.0637 1.44-0.072h0.252 0.036zm15.804 9.36 5.76 8.64h-3.6c0 3.7872-1.1981 7.285-3.204 10.188-0.0245 0.04016-0.04458 0.06784-0.072 0.108-0.20736 0.29658-0.4248 0.5832-0.648 0.864-0.0835 0.10662-0.1656 0.22029-0.252 0.324-0.32832 0.39877-0.68544 0.75018-1.044 1.116-0.03462 0.036-0.0389 0.07477-0.072 0.108-1.2038 1.2052-2.5877 2.2478-4.068 3.06-0.0389 0.02353-0.06618 0.04985-0.108 0.072-0.42624 0.22902-0.85104 0.41622-1.296 0.612-0.1109 0.04707-0.24768 0.09554-0.36 0.144-0.38016 0.15702-0.75888 0.30102-1.152 0.432-0.18576 0.0637-0.35136 0.12185-0.54 0.18-0.34416 0.10246-0.72576 0.20451-1.08 0.288-0.23472 0.054-0.44496 0.0983-0.684 0.144-0.09942 0.01938-0.19008 0.05538-0.288 0.072-0.33408 0.05816-0.67392 0.10385-1.008 0.144-0.12102 0.01384-0.23904 0.02353-0.36 0.036-0.60048 0.05815-1.2024 0.108-1.8 0.108-3.659 0-7.2331-1.1304-10.296-3.276-0.97632-0.68538-1.224-2.0463-0.54-3.024 0.68544-0.9792 2.0491-1.1894 3.024-0.504 2.3803 1.6675 5.1451 2.4868 7.992 2.448 0.37584 0 0.74736 0 1.116-0.036 0.1512-0.01523 0.3168-0.054 0.468-0.072 0.29088-0.03877 0.58032-0.08862 0.864-0.144 0.17424-0.03323 0.33264-0.06785 0.504-0.108 0.27792-0.06506 0.55728-0.13569 0.828-0.216 0.13098-0.04015 0.2664-0.06506 0.396-0.108 0.31248-0.10523 0.6336-0.23331 0.936-0.36 0.0691-0.0277 0.14832-0.04153 0.216-0.072 0.35424-0.15549 0.6696-0.32123 1.008-0.504 0.01578-0.01385 0.05622-0.0277 0.072-0.036 1.1448-0.62917 2.1773-1.4228 3.096-2.34 0.0144-0.01523 0.02022-0.01938 0.036-0.036 0.28512-0.28648 0.5688-0.58749 0.828-0.9 0.0547-0.06647 0.12531-0.14843 0.18-0.216 1.8706-2.34 2.988-5.2748 2.988-8.496h-3.6l5.76-8.64z"/>
  <path id="path2995" d="m32.036 14c3.6547 0 7.2374 1.0973 10.296 3.24 0.97776 0.684 1.188 2.0103 0.504 2.988-0.68256 0.97782-2.0117 1.2254-2.988 0.54-2.363-1.6546-5.1293-2.4739-7.956-2.448-0.40608 0-0.792 0-1.188 0.036-0.12102 0.01385-0.23904 0.05677-0.36 0.072-0.32544 0.04016-0.6552 0.0817-0.972 0.144-0.14112 0.0277-0.2952 0.04016-0.432 0.072-0.31248 0.07062-0.63216 0.15978-0.936 0.252-0.0965 0.03047-0.19152 0.07616-0.288 0.108-0.34704 0.11354-0.67248 0.22043-1.008 0.36-0.03462 0.01523-0.0749 0.02215-0.108 0.036-2.0131 0.86538-3.7699 2.2205-5.148 3.888-0.0083 0.01385-0.02742 0.0263-0.036 0.036-1.9382 2.3601-3.0946 5.3538-3.096 8.64h3.6l-5.76 8.64-5.76-8.64h3.6c0.0014-3.7757 1.1722-7.2547 3.168-10.152 0.0288-0.04984 0.0389-0.0983 0.072-0.144 0.24768-0.35418 0.52272-0.6768 0.792-1.008 0.0317-0.04016 0.0749-0.10385 0.108-0.144 1.8259-2.2162 4.0968-3.9212 6.696-5.04 0.072-0.03184 0.144-0.07753 0.216-0.108 0.41472-0.17142 0.83232-0.32538 1.26-0.468 0.15408-0.05123 0.31104-0.09692 0.468-0.144 0.37296-0.11354 0.7704-0.20022 1.152-0.288 0.21024-0.04847 0.39888-0.10246 0.612-0.144 0.1051-0.01938 0.22032-0.054 0.324-0.072 0.28512-0.04985 0.57888-0.07062 0.864-0.108 0.19728-0.02353 0.37728-0.05262 0.576-0.072 0.47808-0.0443 0.9648-0.0637 1.44-0.072h0.252 0.036zm15.804 9.36 5.76 8.64h-3.6c0 3.7872-1.1981 7.285-3.204 10.188-0.0245 0.04016-0.04458 0.06784-0.072 0.108-0.20736 0.29658-0.4248 0.5832-0.648 0.864-0.0835 0.10662-0.1656 0.22029-0.252 0.324-0.32832 0.39877-0.68544 0.75018-1.044 1.116-0.03462 0.036-0.0389 0.07477-0.072 0.108-1.2038 1.2052-2.5877 2.2478-4.068 3.06-0.0389 0.02353-0.06618 0.04985-0.108 0.072-0.42624 0.22902-0.85104 0.41622-1.296 0.612-0.1109 0.04707-0.24768 0.09554-0.36 0.144-0.38016 0.15702-0.75888 0.30102-1.152 0.432-0.18576 0.0637-0.35136 0.12185-0.54 0.18-0.34416 0.10246-0.72576 0.20451-1.08 0.288-0.23472 0.054-0.44496 0.0983-0.684 0.144-0.09942 0.01938-0.19008 0.05538-0.288 0.072-0.33408 0.05816-0.67392 0.10385-1.008 0.144-0.12102 0.01384-0.23904 0.02353-0.36 0.036-0.60048 0.05815-1.2024 0.108-1.8 0.108-3.659 0-7.2331-1.1304-10.296-3.276-0.97632-0.68538-1.224-2.0463-0.54-3.024 0.68544-0.9792 2.0491-1.1894 3.024-0.504 2.3803 1.6675 5.1451 2.4868 7.992 2.448 0.37584 0 0.74736 0 1.116-0.036 0.1512-0.01523 0.3168-0.054 0.468-0.072 0.29088-0.03877 0.58032-0.08862 0.864-0.144 0.17424-0.03323 0.33264-0.06785 0.504-0.108 0.27792-0.06506 0.55728-0.13569 0.828-0.216 0.13098-0.04015 0.2664-0.06506 0.396-0.108 0.31248-0.10523 0.6336-0.23331 0.936-0.36 0.0691-0.0277 0.14832-0.04153 0.216-0.072 0.35424-0.15549 0.6696-0.32123 1.008-0.504 0.01578-0.01385 0.05622-0.0277 0.072-0.036 1.1448-0.62917 2.1773-1.4228 3.096-2.34 0.0144-0.01523 0.02022-0.01938 0.036-0.036 0.28512-0.28648 0.5688-0.58749 0.828-0.9 0.0547-0.06647 0.12531-0.14843 0.18-0.216 1.8706-2.34 2.988-5.2748 2.988-8.496h-3.6l5.76-8.64z" style="enable-background:new;fill:url(#linearGradient3972)"/>
  <path id="path3974" style="enable-background:new;fill:#fff" d="m31.75 14c-0.475 0.008-0.959 0.018-1.438 0.062-0.198 0.02-0.396 0.071-0.593 0.094-0.285 0.038-0.559 0.044-0.844 0.094-0.104 0.018-0.239 0.043-0.344 0.062-0.213 0.042-0.383 0.108-0.593 0.157-0.382 0.088-0.784 0.167-1.157 0.281-0.157 0.047-0.314 0.105-0.469 0.156-0.427 0.143-0.835 0.298-1.25 0.469-0.072 0.03-0.146 0.062-0.218 0.094-2.599 1.119-4.893 2.846-6.719 5.062-0.033 0.04-0.062 0.085-0.094 0.125-0.269 0.331-0.533 0.646-0.781 1-0.033 0.046-0.065 0.107-0.094 0.156-1.996 2.898-3.155 6.381-3.156 10.157h-3.594l0.656 1h2.938c0.001-3.776 1.16-7.259 3.156-10.157 0.029-0.049 0.061-0.11 0.094-0.156 0.248-0.354 0.512-0.669 0.781-1 0.032-0.04 0.061-0.085 0.094-0.125 1.826-2.216 4.12-3.943 6.719-5.062 0.072-0.032 0.146-0.064 0.218-0.094 0.415-0.171 0.823-0.326 1.25-0.469 0.155-0.051 0.312-0.109 0.469-0.156 0.373-0.114 0.775-0.193 1.157-0.281 0.21-0.049 0.38-0.115 0.593-0.157 0.105-0.019 0.24-0.044 0.344-0.062 0.285-0.05 0.559-0.056 0.844-0.094 0.197-0.023 0.395-0.074 0.593-0.094 0.479-0.044 0.963-0.054 1.438-0.062h0.25 0.031c3.655 0 7.254 1.107 10.313 3.25 0.443 0.31 0.728 0.737 0.844 1.219 0.197-0.826-0.102-1.7-0.844-2.219-3.059-2.143-6.658-3.25-10.313-3.25h-0.031-0.25zm16.094 9.375l-5.75 8.625h0.656l5.094-7.625 5.094 7.625h0.656l-5.75-8.625zm-29.469 8.594c-0.024 0.33-0.062 0.663-0.063 1h2.938l0.656-1h-3.531zm27.25 1.031c-0.207 2.825-1.264 5.406-2.937 7.5-0.055 0.068-0.133 0.152-0.188 0.219-0.259 0.312-0.527 0.62-0.812 0.906-0.016 0.017-0.017 0.016-0.032 0.031-0.918 0.917-1.949 1.715-3.094 2.344-0.015 0.008-0.077 0.017-0.093 0.031-0.339 0.183-0.646 0.345-1 0.5-0.068 0.031-0.15 0.035-0.219 0.063-0.302 0.126-0.625 0.27-0.938 0.375-0.129 0.043-0.244 0.053-0.374 0.093-0.271 0.081-0.566 0.154-0.844 0.219-0.172 0.04-0.326 0.092-0.5 0.125-0.284 0.056-0.584 0.086-0.875 0.125-0.151 0.018-0.318 0.048-0.469 0.063-0.369 0.036-0.718 0.062-1.094 0.062-2.847 0.039-5.619-0.801-8-2.468-0.975-0.686-2.346-0.48-3.031 0.5-0.362 0.517-0.443 1.143-0.313 1.718 0.063-0.242 0.162-0.502 0.313-0.718 0.685-0.98 2.056-1.186 3.031-0.5 2.381 1.667 5.153 2.507 8 2.468 0.376 0 0.725-0.026 1.094-0.062 0.151-0.015 0.318-0.045 0.469-0.063 0.291-0.039 0.591-0.069 0.875-0.125 0.174-0.033 0.328-0.085 0.5-0.125 0.278-0.065 0.573-0.138 0.844-0.219 0.13-0.04 0.245-0.05 0.374-0.093 0.313-0.105 0.636-0.249 0.938-0.375 0.069-0.028 0.151-0.032 0.219-0.063 0.354-0.155 0.661-0.317 1-0.5 0.016-0.014 0.078-0.023 0.093-0.031 1.145-0.629 2.176-1.427 3.094-2.344 0.015-0.015 0.016-0.014 0.032-0.031 0.285-0.286 0.553-0.594 0.812-0.906 0.055-0.067 0.133-0.151 0.188-0.219 1.87-2.34 3-5.279 3-8.5h-0.063z"/>
 </g>
</svg>
