<?xml version="1.0" encoding="UTF-8" standalone="no"?>
<!-- Created with Inkscape (http://www.inkscape.org/) -->
<svg id="svg5356" xmlns:rdf="http://www.w3.org/1999/02/22-rdf-syntax-ns#" xmlns="http://www.w3.org/2000/svg" height="64px" width="64px" version="1.1" xmlns:cc="http://creativecommons.org/ns#" xmlns:xlink="http://www.w3.org/1999/xlink" xmlns:dc="http://purl.org/dc/elements/1.1/">
 <defs id="defs5358">
  <clipPath id="clipPath12225" clipPathUnits="userSpaceOnUse">
   <path id="path12227" style="block-progression:tb;text-indent:0;color:#000000;text-transform:none" d="m310.5 158c-1.5 0-1.5 1.4688-1.5 1.4688v12.53h-1.5c-1.5 0-1.5 1.2812-1.5 1.2812l1.3438 35.438c0.0382 0.40456 0.24888 0.69804 0.46875 0.90625 0.21986 0.2082 0.48146 0.37682 0.90625 0.375h54.562c0.42451 0.001 0.65511-0.16676 0.875-0.375 0.2199-0.20825 0.43064-0.50187 0.46875-0.90625l1.375-35.5s-0.009-1.2188-1.375-1.2188h-1.625v-7.5s0-1.5064-1.5-1.5l-21.031 0.0937c-5 0-4.47-5.09-9.47-5.09h-20.5z"/>
  </clipPath>
  <linearGradient id="linearGradient5294" y2="184" gradientUnits="userSpaceOnUse" x2="336" y1="168" x1="336">
   <stop id="stop11344" style="stop-color:#fff" offset="0"/>
   <stop id="stop11346" style="stop-color:#fff;stop-opacity:0" offset="1"/>
  </linearGradient>
  <clipPath id="clipPath12267" clipPathUnits="userSpaceOnUse">
   <path id="path12269" style="block-progression:tb;text-indent:0;color:#000000;text-transform:none" d="m307.5 168c-0.35457 0-0.64506 0.0626-0.875 0.1875-0.22994 0.12486-0.36622 0.31678-0.4375 0.4375-0.082 0.13891-0.12908 0.27141-0.15625 0.375-0.0272 0.10359-0.0274 0.12696-0.0312 0.21875v0.0312 0.0312 0.0312l1.3438 35.344v0.0312 0.0312 0.0312c0.0473 0.36803 0.25881 0.67618 0.46875 0.875 0.0967 0.0916 0.21058 0.16825 0.375 0.25 0.16442 0.0817 0.34434 0.12566 0.53125 0.125h54.562c0.1872 0.00044 0.3698-0.0362 0.53125-0.125s0.25774-0.16855 0.34375-0.25c0.21008-0.19895 0.42151-0.50693 0.46875-0.875 0.0108-0.10912 0.008-0.11455 0-0.0312v-0.0312l1.375-35.438s0.0152-0.32086-0.15625-0.625c-0.0644-0.11425-0.19054-0.30572-0.40625-0.4375s-0.48648-0.18751-0.8125-0.1875h-57.125z"/>
  </clipPath>
  <linearGradient id="linearGradient5300" y2="212" gradientUnits="userSpaceOnUse" x2="368" gradientTransform="translate(-304,-148)" y1="148" x1="368">
   <stop id="stop4970-7" style="stop-color:#f7f7f7" offset="0"/>
   <stop id="stop3794" style="stop-color:#dedede" offset=".66667"/>
   <stop id="stop4972-5" style="stop-color:#c6c6c6" offset="1"/>
  </linearGradient>
  <linearGradient id="linearGradient5303" y2="180" gradientUnits="userSpaceOnUse" x2="336" gradientTransform="translate(-304 -152)" y1="164" x1="336">
   <stop id="stop11361-1" style="stop-color:#f5f5f5" offset="0"/>
   <stop id="stop11363-8" style="stop-color:#d7d7d7" offset="1"/>
  </linearGradient>
 </defs>
 <metadata id="metadata5361">
  <rdf:RDF>
   <cc:Work rdf:about="">
    <dc:format>image/svg+xml</dc:format>
    <dc:type rdf:resource="http://purl.org/dc/dcmitype/StillImage"/>
    <dc:title/>
   </cc:Work>
  </rdf:RDF>
 </metadata>
 <g id="layer1">
  <path id="path13872" style="opacity:.2;block-progression:tb;text-indent:0;color:#000000;text-transform:none" d="m3.5 21.5c-0.60888 0-0.76171 0.18314-0.875 0.375-0.1053 0.17837-0.124 0.3512-0.125 0.375v0.0312l1.3438 35.375v0.0312c0.0305 0.23711 0.14773 0.40646 0.3125 0.5625 0.18507 0.1753 0.27764 0.251 0.5625 0.25h54.562c0.28554 0.00067 0.34678-0.0753 0.53125-0.25 0.16477-0.15604 0.2821-0.32566 0.3125-0.5625 0.001-0.0101-0.00099-0.0208 0-0.0312l1.375-35.438s0.0105-0.15889-0.0937-0.34375c-0.10424-0.18486-0.24809-0.37501-0.78125-0.375h-57.125z"/>
  <path id="path12179" style="block-progression:tb;text-indent:0;color:#000000;text-transform:none;fill:url(#linearGradient5303)" d="m6.5 7c-0.4236 0-0.3728 0.0608-0.4375 0.1875-0.0645 0.1267-0.0625 0.2813-0.0625 0.2813v12.531 1h-0.5v6.5h53v-6.5h-0.5v-1-7.5s-0.025-0.176-0.094-0.312c-0.068-0.138 0.009-0.19-0.406-0.188l-21.031 0.094c-2.84 0-4.383-1.602-5.5-2.8752-1.117-1.2735-1.809-2.2188-3.969-2.2188h-20.5z"/>
  <path id="path12181" style="block-progression:tb;text-indent:0;color:#000000;text-transform:none;fill:url(#linearGradient5300)" d="m6 20.5v0.5h-1-1.5c-0.4653 0-0.3968 0.087-0.4375 0.156-0.0325 0.056-0.0585 0.075-0.0625 0.094v0.031l1.3438 35.344c0.0101 0.107 0.0454 0.176 0.1562 0.281 0.128 0.121 0.0603 0.095 0.2188 0.094h54.562c0.16 0 0.027 0.059 0.188-0.094 0.111-0.105 0.146-0.174 0.156-0.281l1.375-35.406s0.001-0.025 0-0.031c-0.004-0.021-0.006-0.049-0.031-0.094-0.034-0.059 0.042-0.094-0.344-0.094h-1.625-1v-0.5h-52z"/>
  <path id="path12257" style="opacity:.2;block-progression:tb;text-indent:0;color:#000000;stroke:url(#linearGradient5294);stroke-width:4;text-transform:none;fill:none" d="m307.5 168c-0.35457 0-0.64506 0.0626-0.875 0.1875-0.22994 0.12486-0.36622 0.31678-0.4375 0.4375-0.082 0.13891-0.12908 0.27141-0.15625 0.375-0.0272 0.10359-0.0274 0.12696-0.0312 0.21875v0.0312 0.0312 0.0312l1.3438 35.344v0.0312 0.0312 0.0312c0.0473 0.36803 0.25881 0.67618 0.46875 0.875 0.0967 0.0916 0.21058 0.16825 0.375 0.25 0.16442 0.0817 0.34434 0.12566 0.53125 0.125h54.562c0.1872 0.00044 0.3698-0.0362 0.53125-0.125s0.25774-0.16855 0.34375-0.25c0.21008-0.19895 0.42151-0.50693 0.46875-0.875 0.0108-0.10912 0.008-0.11455 0-0.0312v-0.0312l1.375-35.438s0.0152-0.32086-0.15625-0.625c-0.0644-0.11425-0.19054-0.30572-0.40625-0.4375s-0.48648-0.18751-0.8125-0.1875h-57.125z" clip-path="url(#clipPath12267)" transform="translate(-304,-148)"/>
  <path id="path12216" style="opacity:0.41;block-progression:tb;text-indent:0;color:#000000;text-transform:none" d="m310.5 157c-1.0764 0-1.8772 0.67358-2.1875 1.2812-0.3103 0.60767-0.3125 1.1875-0.3125 1.1875v11.53h-0.5c-1.0347 0-1.8532 0.55385-2.1875 1.125-0.33433 0.57115-0.3125 1.1562-0.3125 1.1562v0.0312l1.3438 35.438v0.0312 0.0312c0.0663 0.70208 0.4523 1.2198 0.78125 1.5312 0.31168 0.29516 0.90258 0.65921 1.5938 0.65625h54.562c0.68882 0.002 1.2839-0.39237 1.5625-0.65625 0.32904-0.3116 0.71507-0.82904 0.78125-1.5312v-0.0312-0.0312l1.375-35.5v-0.0312s0-0.54338-0.3125-1.0938c-0.3125-0.55037-1.0821-1.125-2.0625-1.125h-0.625v-6.5s0.0254-0.57288-0.28125-1.1875-1.134-1.3171-2.2188-1.3125l-21.031 0.0937c-2.1604 0.00002-2.8516-0.94532-3.9688-2.2188-1.12-1.27-2.66-2.87-5.5-2.87h-20.5zm0 2h20.5c2.1604 0 2.8516 0.94532 3.9688 2.2188 1.1172 1.2734 2.6604 2.875 5.5 2.875l21.03-0.09c0.41525-0.002 0.3379 0.0505 0.40625 0.1875 0.06 0.13 0.09 0.31 0.09 0.31v7.5 1h1 1.625c0.38559-0.00001 0.31025 0.0347 0.34375 0.0937 0.0256 0.0451 0.0267 0.0736 0.0312 0.0937 0.001 0.006 0 0.0312 0 0.0312l-1.375 35.406c-0.01 0.10655-0.0455 0.17635-0.15625 0.28125-0.16114 0.1526-0.0273 0.0941-0.1875 0.0937h-54.562c-0.15841 0.00068-0.0907 0.0275-0.21875-0.0937-0.11079-0.10492-0.14614-0.17421-0.15625-0.28125l-1.34-35.35v-0.03c0.004-0.0191 0.03-0.0382 0.0625-0.0937 0.04-0.07-0.03-0.16 0.44-0.16h1.5 1v-1-12.531s-0.002-0.15455 0.0625-0.28125c0.07-0.13 0.02-0.19 0.44-0.19z" clip-path="url(#clipPath12225)" transform="translate(-304 -152)"/>
  <rect id="rect12245" style="opacity:0.41;color:#000000" height="1" width="52" y="20" x="6"/>
 </g>
</svg>
