<?xml version="1.0" encoding="UTF-8" standalone="no"?>
<!-- Created with Inkscape (http://www.inkscape.org/) -->
<svg id="svg4161" xmlns:rdf="http://www.w3.org/1999/02/22-rdf-syntax-ns#" xmlns="http://www.w3.org/2000/svg" height="64" width="64" version="1.1" xmlns:cc="http://creativecommons.org/ns#" xmlns:xlink="http://www.w3.org/1999/xlink" xmlns:dc="http://purl.org/dc/elements/1.1/">
 <defs id="defs4163">
  <linearGradient id="linearGradient3884" y2="32" gradientUnits="userSpaceOnUse" x2="59.5" gradientTransform="translate(-64,-64)" y1="32" x1="4.5">
   <stop id="stop3864-8-6" style="stop-color:#bd251d" offset="0"/>
   <stop id="stop3866-9-1" style="stop-color:#e22c1e" offset="1"/>
  </linearGradient>
  <linearGradient id="linearGradient3897" y2="39.999" gradientUnits="userSpaceOnUse" x2="25.058" gradientTransform="matrix(1.579 0 0 .71429 -5.8948 27.929)" y1="47.028" x1="25.058">
   <stop id="stop2895-8-9-9-1" style="stop-color:#181818;stop-opacity:0" offset="0"/>
   <stop id="stop2897-7-8-7-7" style="stop-color:#181818" offset=".5"/>
   <stop id="stop2899-4-5-1-5" style="stop-color:#181818;stop-opacity:0" offset="1"/>
  </linearGradient>
  <radialGradient id="radialGradient3900" gradientUnits="userSpaceOnUse" cy="43.5" cx="4.993" gradientTransform="matrix(3.1639 0 0 1 -25.703 -102.5)" r="2.5">
   <stop id="stop2889-7-9-6-9" style="stop-color:#181818" offset="0"/>
   <stop id="stop2891-6-6-1-7" style="stop-color:#181818;stop-opacity:0" offset="1"/>
  </radialGradient>
  <radialGradient id="radialGradient3903" gradientUnits="userSpaceOnUse" cy="43.5" cx="4.993" gradientTransform="matrix(3.1639 0 0 1 38.297 15.5)" r="2.5">
   <stop id="stop2883-4-0-1-8" style="stop-color:#181818" offset="0"/>
   <stop id="stop2885-9-2-9-6" style="stop-color:#181818;stop-opacity:0" offset="1"/>
  </radialGradient>
  <linearGradient id="linearGradient3911" y2="60" gradientUnits="userSpaceOnUse" x2="32" y1="4" x1="32">
   <stop id="stop3907" style="stop-color:#fff" offset="0"/>
   <stop id="stop3909" style="stop-color:#fff;stop-opacity:0" offset="1"/>
  </linearGradient>
  <linearGradient id="linearGradient4791">
   <stop id="stop4793" style="stop-color:#fff2f3" offset="0"/>
   <stop id="stop4795" style="stop-color:#fff5f4" offset="1"/>
  </linearGradient>
  <linearGradient id="linearGradient3089" y2="4" xlink:href="#linearGradient4791" gradientUnits="userSpaceOnUse" y1="44" gradientTransform="translate(180,-10)" x2="24" x1="24"/>
  <linearGradient id="linearGradient4809" xlink:href="#linearGradient4791" gradientUnits="userSpaceOnUse" x2="32" y1="64" x1="32"/>
 </defs>
 <metadata id="metadata4166">
  <rdf:RDF>
   <cc:Work rdf:about="">
    <dc:format>image/svg+xml</dc:format>
    <dc:type rdf:resource="http://purl.org/dc/dcmitype/StillImage"/>
    <dc:title/>
   </cc:Work>
  </rdf:RDF>
 </metadata>
 <g id="layer1">
  <rect id="rect2801-5-5-7-9" style="opacity:.6;fill:url(#radialGradient3903)" height="5" width="7.8948" y="56.5" x="54.105"/>
  <rect id="rect3696-3-0-3-7" style="opacity:.6;fill:url(#radialGradient3900)" transform="scale(-1)" height="5" width="7.8948" y="-61.5" x="-9.8948"/>
  <rect id="rect3700-5-6-8-4" style="opacity:.6;fill:url(#linearGradient3897)" height="5" width="44.211" y="56.5" x="9.8948"/>
  <rect id="rect5505-21-3-8-5-2" style="color:#000000;fill:url(#linearGradient3884)" rx="3" transform="matrix(0,-1,-1,0,0,0)" ry="3" width="55" y="-59.5" x="-59.5" height="55"/>
  <rect id="rect6741-5-0-2-3" style="opacity:.1;stroke-linejoin:round;stroke:url(#linearGradient3911);stroke-linecap:round;fill:none" rx="2" ry="2" height="53.142" width="53" y="5.4288" x="5.5"/>
  <rect id="rect5505-21-3-8-9-1-1" style="opacity:0.61;stroke-linejoin:round;color:#000000;stroke:#800000;stroke-linecap:round;fill:none" rx="3" ry="3" height="55" width="55" y="4.5" x="4.5"/>
  <path id="rect3932" style="opacity:.15;color:#000000;fill:#fff" d="m7.5 5c-1.3936 0-2.5 1.1064-2.5 2.5v1c0-1.3936 1.1064-2.5 2.5-2.5h49c1.394 0 2.5 1.1064 2.5 2.5v-1c0-1.3936-1.106-2.5-2.5-2.5h-49z"/>
  <path id="path3946" style="opacity:.15;color:#000000;fill:#fff" d="m7.5 59c-1.3936 0-2.5-1.106-2.5-2.5v-1c0 1.394 1.1064 2.5 2.5 2.5h49c1.3936 0 2.5-1.1064 2.5-2.5v1c0 1.3936-1.1064 2.5-2.5 2.5h-49z"/>
 </g>
 <g id="layer2">
  <path id="path4816" style="opacity:.3;enable-background:new" d="m35.5 13.218-6.7812 9.75-16.5-7.5625 7.75 12.375-7.2188 0.8125 6.875 4.125-9.625 6.875 11.406 0.90625-2.625 12.281 11-6.5625 6.625 6.5625 2.3125-8.0938l13.063 3.72-9.406-11.281 11.625-1.907-11-4.437 8.781-8.781-13.187 2.218-3.094-11zm-5.5 11.781h3v6c-0.147 3.6146-0.75 4.1875-0.75 7h-1.5c0-2.8125-0.73813-3.9909-0.75-7v-6zm1.5 15c0.82843 0 1.5 0.67157 1.5 1.5s-0.67157 1.5-1.5 1.5-1.5-0.67157-1.5-1.5 0.67157-1.5 1.5-1.5z"/>
  <path id="path4355" style="enable-background:new;fill:url(#linearGradient4809)" d="m35.5 12.219-6.7812 9.75-16.5-7.5625 7.75 12.375-7.2188 0.8125 6.875 4.125-9.625 6.875 11.406 0.90625-2.625 12.281 11-6.5625 6.625 6.5625 2.3125-8.0938 13.062 3.7188l-9.405-11.28 11.625-1.906-11-4.438 8.781-8.781-13.187 2.219-3.094-11zm-5.5 11.781h3v6c-0.147 3.6146-0.75 4.1875-0.75 7h-1.5c0-2.8125-0.73813-3.9909-0.75-7v-6zm1.5 15c0.828 0 1.5 0.672 1.5 1.5s-0.672 1.5-1.5 1.5-1.5-0.672-1.5-1.5 0.672-1.5 1.5-1.5z"/>
  <path id="path4357" style="enable-background:new;fill:url(#linearGradient3089)" d="m206.38 0.5-4.63 6.6562-11.25-5.1562 5.28 8.438-4.9 0.562 4.68 2.812-6.56 4.688 7.78 0.625-1.78 8.375 7.5-4.5 4.5 4.5 1.59-5.531 8.91 2.531-6.44-7.688 7.94-1.312l-7.5-3 6-6-9 1.5-2.125-7.5zm-3.38 7.5h2v5c-0.098 2.4097-0.5 2.125-0.5 4h-1c0-1.875-0.49208-1.9939-0.5-4v-5zm1 11c0.55228 0 1 0.44772 1 1s-0.44772 1-1 1-1-0.44772-1-1 0.44772-1 1-1z"/>
  <path id="path4811" style="enable-background:new;fill:#fff" d="m35.5 12.219l-6.781 9.75-16.5-7.563 0.875 1.406 15.625 7.157 6.781-9.75 3.094 11 12-2.031 1.187-1.188-13.187 2.219-3.094-11zm-16.125 14.625l-6.625 0.75 1.406 0.844 5.813-0.657-0.594-0.937zm10.625 3.156v1c0.012 3.009 0.75 4.188 0.75 7h1.5c0-2.812 0.603-3.385 0.75-7v-1c-0.147 3.615-0.75 4.188-0.75 7h-1.5c0-2.812-0.738-3.991-0.75-7zm13.719 0.062l-0.719 0.719 9.25 3.719 1.75-0.281-10.281-4.157zm-24.844 2.188l-8.875 6.344 1.25 0.094 8.375-5.969-0.75-0.469zm24.219 4.75l-0.719 0.125 8.313 9.969 1.093 0.312-8.687-10.406zm-21.906 3.469l-2.407 11.312 0.25-0.156 2.375-11.125-0.218-0.031zm8.906 0.531c-0.054 0.154-0.094 0.327-0.094 0.5 0 0.828 0.672 1.5 1.5 1.5s1.5-0.672 1.5-1.5c0-0.173-0.04-0.346-0.094-0.5-0.204 0.586-0.75 1-1.406 1s-1.202-0.414-1.406-1z"/>
 </g>
</svg>
