<?xml version="1.0" encoding="UTF-8" standalone="no"?>
<!-- Created with Inkscape (http://www.inkscape.org/) -->
<svg id="svg4161" xmlns:rdf="http://www.w3.org/1999/02/22-rdf-syntax-ns#" xmlns="http://www.w3.org/2000/svg" height="64" width="64" version="1.1" xmlns:cc="http://creativecommons.org/ns#" xmlns:xlink="http://www.w3.org/1999/xlink" xmlns:dc="http://purl.org/dc/elements/1.1/">
 <defs id="defs4163">
  <linearGradient id="linearGradient3884" y2="32" gradientUnits="userSpaceOnUse" x2="59.5" gradientTransform="translate(-64,-64)" y1="32" x1="4.5">
   <stop id="stop3864-8-6-2" style="stop-color:#232d1e" offset="0"/>
   <stop id="stop3866-9-1-6" style="stop-color:#36432f" offset="1"/>
  </linearGradient>
  <linearGradient id="linearGradient3897" y2="39.999" gradientUnits="userSpaceOnUse" x2="25.058" gradientTransform="matrix(1.579 0 0 .71429 -5.8948 27.929)" y1="47.028" x1="25.058">
   <stop id="stop2895-8-9-9-1" style="stop-color:#181818;stop-opacity:0" offset="0"/>
   <stop id="stop2897-7-8-7-7" style="stop-color:#181818" offset=".5"/>
   <stop id="stop2899-4-5-1-5" style="stop-color:#181818;stop-opacity:0" offset="1"/>
  </linearGradient>
  <radialGradient id="radialGradient3900" gradientUnits="userSpaceOnUse" cy="43.5" cx="4.993" gradientTransform="matrix(3.1639 0 0 1 -25.703 -102.5)" r="2.5">
   <stop id="stop2889-7-9-6-9" style="stop-color:#181818" offset="0"/>
   <stop id="stop2891-6-6-1-7" style="stop-color:#181818;stop-opacity:0" offset="1"/>
  </radialGradient>
  <radialGradient id="radialGradient3903" gradientUnits="userSpaceOnUse" cy="43.5" cx="4.993" gradientTransform="matrix(3.1639 0 0 1 38.297 15.5)" r="2.5">
   <stop id="stop2883-4-0-1-8" style="stop-color:#181818" offset="0"/>
   <stop id="stop2885-9-2-9-6" style="stop-color:#181818;stop-opacity:0" offset="1"/>
  </radialGradient>
  <linearGradient id="linearGradient3911" y2="60" gradientUnits="userSpaceOnUse" x2="32" y1="4" x1="32">
   <stop id="stop3907" style="stop-color:#fff" offset="0"/>
   <stop id="stop3909" style="stop-color:#fff;stop-opacity:0" offset="1"/>
  </linearGradient>
  <linearGradient id="linearGradient3721">
   <stop id="stop3723" style="stop-color:#26ee2d;stop-opacity:0" offset="0"/>
   <stop id="stop3725" style="stop-color:#26ee2d" offset=".19524"/>
   <stop id="stop3727" style="stop-color:#26ee2d" offset=".5"/>
   <stop id="stop3729" style="stop-color:#26ee2d" offset=".80476"/>
   <stop id="stop3731" style="stop-color:#26ee2d;stop-opacity:0" offset="1"/>
  </linearGradient>
  <linearGradient id="linearGradient3891" y2="31.547" xlink:href="#linearGradient3721" gradientUnits="userSpaceOnUse" x2="59" gradientTransform="translate(0,1)" y1="31.547" x1="5"/>
  <linearGradient id="linearGradient3893" y2="244" xlink:href="#linearGradient3721" gradientUnits="userSpaceOnUse" x2="333" gradientTransform="matrix(1.3684 0 0 1.3684 -394.95 -301.3)" y1="244" x1="291"/>
 </defs>
 <metadata id="metadata4166">
  <rdf:RDF>
   <cc:Work rdf:about="">
    <dc:format>image/svg+xml</dc:format>
    <dc:type rdf:resource="http://purl.org/dc/dcmitype/StillImage"/>
    <dc:title/>
   </cc:Work>
  </rdf:RDF>
 </metadata>
 <g id="layer1">
  <rect id="rect2801-5-5-7-9" style="opacity:.6;fill:url(#radialGradient3903)" height="5" width="7.8948" y="56.5" x="54.105"/>
  <rect id="rect3696-3-0-3-7" style="opacity:.6;fill:url(#radialGradient3900)" transform="scale(-1)" height="5" width="7.8948" y="-61.5" x="-9.8948"/>
  <rect id="rect3700-5-6-8-4" style="opacity:.6;fill:url(#linearGradient3897)" height="5" width="44.211" y="56.5" x="9.8948"/>
  <rect id="rect5505-21-3-8-5-2" style="color:#000000;fill:url(#linearGradient3884)" rx="3" transform="matrix(0,-1,-1,0,0,0)" ry="3" width="55" y="-59.5" x="-59.5" height="55"/>
  <rect id="rect6741-5-0-2-3" style="opacity:.1;stroke-linejoin:round;stroke:url(#linearGradient3911);stroke-linecap:round;fill:none" rx="2" ry="2" height="53.142" width="53" y="5.4288" x="5.5"/>
  <rect id="rect5505-21-3-8-9-1-1" style="opacity:0.61;stroke-linejoin:round;color:#000000;stroke:#000;stroke-linecap:round;fill:none" rx="3" ry="3" height="55" width="55" y="4.5" x="4.5"/>
  <path id="rect3932" style="opacity:.15;color:#000000;fill:#fff" d="m7.5 5c-1.3936 0-2.5 1.1064-2.5 2.5v1c0-1.3936 1.1064-2.5 2.5-2.5h49c1.394 0 2.5 1.1064 2.5 2.5v-1c0-1.3936-1.106-2.5-2.5-2.5h-49z"/>
  <path id="path3946" style="opacity:.15;color:#000000;fill:#fff" d="m7.5 59c-1.3936 0-2.5-1.106-2.5-2.5v-1c0 1.394 1.1064 2.5 2.5 2.5h49c1.3936 0 2.5-1.1064 2.5-2.5v1c0 1.3936-1.1064 2.5-2.5 2.5h-49z"/>
 </g>
 <g id="layer2">
  <path id="path3267" style="enable-background:new;fill:url(#linearGradient3893);fill-rule:evenodd" d="m18.438 15.531-0.5 2.5625v0.03125l-3.313 18.687-0.031 0.188h-0.219-8.375v1.0312h9.4688l2.6875-15.25v-0.09375h0.5v0.09375l3.9062 24v0.03125l0.5 2.75 0.5-2.75v-0.03125l1.688-11.562 0.031-0.219h0.219 5.5938l0.78125-2.2188 0.03125-0.125 0.25-0.8125 0.21875 0.8125 2.5 9.125 1.7188-3.625 0.0625-0.125h0.15625 21.188v-1.031h-21.969l-0.59375 1.25-0.28125 0.59375-0.1875-0.65625-2.75-9.9375-1.8125 5.5625-0.0625 0.1875h-0.1875-5.75l-1.125 7.6875v0.0625h-0.5v-0.0625l-3.843-23.563z"/>
  <path id="path3882" d="m18.438 15.531-0.5 2.5625v0.03125l-3.313 18.687-0.031 0.188h-0.219-8.375v1.0312h9.4688l2.6875-15.25v-0.09375h0.5v0.09375l3.9062 24v0.03125l0.5 2.75 0.5-2.75v-0.03125l1.688-11.562 0.031-0.219h0.219 5.5938l0.78125-2.2188 0.03125-0.125 0.25-0.8125 0.21875 0.8125 2.5 9.125 1.7188-3.625 0.0625-0.125h0.15625 21.188v-1.031h-21.969l-0.59375 1.25-0.28125 0.59375-0.1875-0.65625-2.75-9.9375-1.8125 5.5625-0.0625 0.1875h-0.1875-5.75l-1.125 7.6875v0.0625h-0.5v-0.0625l-3.843-23.563z" style="opacity:.1;stroke-width:2;stroke:url(#linearGradient3891);enable-background:new;fill:none"/>
 </g>
</svg>
