<?xml version="1.0" encoding="UTF-8" standalone="no"?>
<!-- Created with Inkscape (http://www.inkscape.org/) -->
<svg id="svg5400" xmlns:rdf="http://www.w3.org/1999/02/22-rdf-syntax-ns#" xmlns="http://www.w3.org/2000/svg" height="16px" width="16px" version="1.1" xmlns:cc="http://creativecommons.org/ns#" xmlns:xlink="http://www.w3.org/1999/xlink" xmlns:dc="http://purl.org/dc/elements/1.1/">
 <defs id="defs5402">
  <clipPath id="clipPath11908-0" clipPathUnits="userSpaceOnUse">
   <path id="path11910-2" style="block-progression:tb;text-indent:0;color:#000000;text-transform:none;fill:#4e9a06" d="m432 129v1 3 2 7.5s0 1.5 1.5 1.5h13s1.5 0 1.5-1.5v-7.5-2-1-1h-1-5c-0.66667 0-0.78125-0.21875-1.2812-0.71875-0.5-0.5-1.39-1.28-2.72-1.28h-5-1z"/>
  </clipPath>
  <linearGradient id="linearGradient7396" y2="131" gradientUnits="userSpaceOnUse" x2="440" gradientTransform="translate(-432,-125)" y1="127" x1="440">
   <stop id="stop11361" style="stop-color:#d5cbd7" offset="0"/>
   <stop id="stop11363" style="stop-color:#d9bfdf" offset="1"/>
  </linearGradient>
  <linearGradient id="linearGradient7398" y2="276" gradientUnits="userSpaceOnUse" x2="352" gradientTransform="matrix(.38091 0 0 .38091 -116.94 -88.847)" y1="228" x1="352">
   <stop id="stop4970" style="stop-color:#f1e6f4" offset="0"/>
   <stop id="stop4972" style="stop-color:#c9bcce" offset="1"/>
  </linearGradient>
 </defs>
 <metadata id="metadata5405">
  <rdf:RDF>
   <cc:Work rdf:about="">
    <dc:format>image/svg+xml</dc:format>
    <dc:type rdf:resource="http://purl.org/dc/dcmitype/StillImage"/>
    <dc:title/>
   </cc:Work>
  </rdf:RDF>
 </metadata>
 <g id="layer1">
  <path id="path3024" d="m8.0225 5.0225c-2.2032 0-4 1.7968-4 4s1.7968 4 4 4 4-1.7968 4-4-1.7968-4-4-4zm-0.34375 2.0938a0.25002 0.25002 0 0 1 0.03125 0 0.25002 0.25002 0 0 1 0.03125 0 0.25002 0.25002 0 0 1 0.0625 0 0.25002 0.25002 0 0 1 0.09375 0.03125 0.25002 0.25002 0 0 1 0.09375 0.09375 0.25002 0.25002 0 0 1 0.03125 0.09375 0.25002 0.25002 0 0 1 0 0.03125v1.75h1.25a0.25002 0.25002 0 0 1 0.03125 0 0.25002 0.25002 0 0 1 0.09375 0.03125 0.25002 0.25002 0 0 1 0.09375 0.09375 0.25002 0.25002 0 0 1 0.03125 0.0625 0.25002 0.25002 0 0 1 0 0.0625 0.25002 0.25002 0 0 1 0 0.0625 0.25002 0.25002 0 0 1 -0.03125 0.0625 0.25002 0.25002 0 0 1 -0.03125 0.0625 0.25002 0.25002 0 0 1 -0.0625 0.03125 0.25002 0.25002 0 0 1 -0.0625 0.03125 0.25002 0.25002 0 0 1 -0.0625 0h-1.5-0.25v-0.25-2a0.25002 0.25002 0 0 1 0.03125 -0.09375 0.25002 0.25002 0 0 1 0.03125 -0.0625 0.25002 0.25002 0 0 1 0.03125 -0.03125 0.25002 0.25002 0 0 1 0.0625 -0.0625z" style="opacity:.3;block-progression:tb;text-indent:0;color:#000000;text-transform:none;fill:#fff"/>
  <path id="path4938-1" d="m0.5 0.49972v0.5 2.5h15v-0.5-0.5h-0.5-5c-0.38802 0-0.71067-0.0767-0.96875-0.25-0.25808-0.17334-0.41853-0.38728-0.65625-0.625-0.47545-0.47545-1.237-1.125-2.375-1.125h-5z" style="block-progression:tb;text-indent:0;color:#000000;text-transform:none;fill:url(#linearGradient7396)"/>
  <path id="path11441" d="m0.5 2.4997v11s-0.003 0.27549 0.125 0.53125c0.12792 0.25576 0.29167 0.46875 0.875 0.46875h13s0.27551 0.003 0.53125-0.125c0.256-0.128 0.469-0.292 0.469-0.875v-11z" style="block-progression:tb;text-indent:0;color:#000000;text-transform:none;fill:url(#linearGradient7398)"/>
  <path id="rect11912" style="opacity:0.41;color:#000000" d="m1 1.9997h7l2 1h-9z"/>
  <path id="path11904" style="opacity:0.41;block-progression:tb;text-indent:0;color:#000000;stroke:#000;stroke-width:2;text-transform:none;fill:none" d="m432 129v1 1 2 9.5s0 1.5 1.5 1.5h13s1.5 0 1.5-1.5v-9.5-2 1-1h-1-5c-0.66667 0-0.78125-0.21875-1.2812-0.71875-0.5-0.5-1.39-1.28-2.72-1.28h-5z" clip-path="url(#clipPath11908-0)" transform="translate(-432 -129)"/>
  <path id="path7434" style="opacity:.1;block-progression:tb;text-indent:0;color:#000000;text-transform:none;fill:#fff" d="m1 3v1h14v-1z"/>
  <path id="path3814" style="opacity:.4;block-progression:tb;text-indent:0;color:#000000;text-transform:none" d="m8.0225 4.0225c-2.2032 0-4 1.7968-4 4s1.7968 4 4 4 4-1.7968 4-4-1.7968-4-4-4zm-0.34375 2.0938a0.25002 0.25002 0 0 1 0.03125 0 0.25002 0.25002 0 0 1 0.03125 0 0.25002 0.25002 0 0 1 0.0625 0 0.25002 0.25002 0 0 1 0.09375 0.03125 0.25002 0.25002 0 0 1 0.09375 0.09375 0.25002 0.25002 0 0 1 0.03125 0.09375 0.25002 0.25002 0 0 1 0 0.03125v1.75h1.25a0.25002 0.25002 0 0 1 0.03125 0 0.25002 0.25002 0 0 1 0.09375 0.03125 0.25002 0.25002 0 0 1 0.09375 0.09375 0.25002 0.25002 0 0 1 0.03125 0.0625 0.25002 0.25002 0 0 1 0 0.0625 0.25002 0.25002 0 0 1 0 0.0625 0.25002 0.25002 0 0 1 -0.03125 0.0625 0.25002 0.25002 0 0 1 -0.03125 0.0625 0.25002 0.25002 0 0 1 -0.0625 0.03125 0.25002 0.25002 0 0 1 -0.0625 0.03125 0.25002 0.25002 0 0 1 -0.0625 0h-1.5-0.25v-0.25-2a0.25002 0.25002 0 0 1 0.03125 -0.09375 0.25002 0.25002 0 0 1 0.03125 -0.0625 0.25002 0.25002 0 0 1 0.03125 -0.03125 0.25002 0.25002 0 0 1 0.0625 -0.0625z"/>
 </g>
</svg>
