<?xml version="1.0" encoding="UTF-8" standalone="no"?>
<!-- Created with Inkscape (http://www.inkscape.org/) -->
<svg id="svg5400" xmlns:rdf="http://www.w3.org/1999/02/22-rdf-syntax-ns#" xmlns="http://www.w3.org/2000/svg" height="16px" width="16px" version="1.1" xmlns:cc="http://creativecommons.org/ns#" xmlns:xlink="http://www.w3.org/1999/xlink" xmlns:dc="http://purl.org/dc/elements/1.1/">
 <defs id="defs5402">
  <linearGradient id="linearGradient7396" y2="131" gradientUnits="userSpaceOnUse" x2="440" gradientTransform="translate(-432,-124)" y1="127" x1="440">
   <stop id="stop11361" style="stop-color:#d5cbd7" offset="0"/>
   <stop id="stop11363" style="stop-color:#d9bfdf" offset="1"/>
  </linearGradient>
  <linearGradient id="linearGradient7398" y2="276" gradientUnits="userSpaceOnUse" x2="352" gradientTransform="matrix(.38091 0 0 .38091 -116.94 -87.847)" y1="228" x1="352">
   <stop id="stop4970" style="stop-color:#f1e6f4" offset="0"/>
   <stop id="stop4972" style="stop-color:#c9bcce" offset="1"/>
  </linearGradient>
 </defs>
 <metadata id="metadata5405">
  <rdf:RDF>
   <cc:Work rdf:about="">
    <dc:format>image/svg+xml</dc:format>
    <dc:type rdf:resource="http://purl.org/dc/dcmitype/StillImage"/>
    <dc:title/>
   </cc:Work>
  </rdf:RDF>
 </metadata>
 <g id="layer1">
  <path id="path4938-1" d="m0.5 1.4997v0.5 2.5h15v-0.5-0.5h-0.5-5c-0.38802 0-0.71067-0.0767-0.96875-0.25-0.25808-0.17334-0.41853-0.38728-0.65625-0.625-0.47545-0.47545-1.237-1.125-2.375-1.125h-5z" style="block-progression:tb;text-indent:0;color:#000000;text-transform:none;fill:url(#linearGradient7396)"/>
  <path id="path11441" d="m0.5 3.4997v11s-0.003 0.27549 0.125 0.53125c0.12792 0.25576 0.29167 0.46875 0.875 0.46875h13s0.27551 0.003 0.53125-0.125c0.256-0.128 0.469-0.292 0.469-0.875v-11z" style="block-progression:tb;text-indent:0;color:#000000;text-transform:none;fill:url(#linearGradient7398)"/>
  <path id="rect11912" style="opacity:0.41;color:#000000" d="m1 2.9997 7 0.0003 2 1-9-0.0003z"/>
  <path id="path7434" style="opacity:.1;block-progression:tb;text-indent:0;color:#000000;text-transform:none;fill:#fff" d="m1 4v1h14v-1z"/>
  <path id="path3007" style="opacity:0.41;block-progression:tb;text-indent:0;color:#000000;text-transform:none" d="m0 1v0.5 0.5 1.5 1 10s-0.0062121 0.36294 0.1875 0.75c0.077302 0.15456 0.20365 0.37778 0.4375 0.53125 0.23385 0.154 0.5225 0.219 0.875 0.219h13s0.36294 0.0062 0.75-0.1875c0.15459-0.07729 0.37778-0.20365 0.53125-0.4375 0.154-0.234 0.219-0.522 0.219-0.875v-10-1 0.5-0.5-0.5h-0.5-0.5-5c-0.3221 0-0.5329-0.0524-0.6875-0.1562-0.1746-0.1174-0.3123-0.3102-0.5625-0.5626h-0.03125c-0.5033-0.5032-1.3905-1.2812-2.7188-1.2812h-5-0.5zm1 1h5c0.9478 0 1.5836 0.5211 2.0312 0.9688 0.2113 0.2112 0.3823 0.4614 0.7188 0.6874 0.3615 0.2428 0.7961 0.3438 1.25 0.3438h5v-0.5 1 10c0 0.2308-0.04553 0.3179-0.0625 0.34375s-0.02385 0.04317-0.125 0.09375c-0.124 0.062-0.312 0.062-0.312 0.062h-13c-0.2308 0-0.3179-0.046-0.3438-0.062-0.0258-0.017-0.0431-0.024-0.0937-0.126-0.0623-0.124-0.0625-0.312-0.0625-0.312v-10-1z"/>
 </g>
 <g id="layer2">
  <path id="path4506" style="opacity:.3;fill:#fff" d="m10.5 6c-0.8284 0-1.5 0.6716-1.5 1.5 0 0.1036 0.0113 0.2149 0.0312 0.3125l-2.5937 1.5313c-0.2579-0.2095-0.5793-0.3438-0.9375-0.3438-0.8284 0-1.5 0.6716-1.5 1.5 0 0.828 0.6716 1.5 1.5 1.5 0.3582 0 0.6796-0.134 0.9375-0.344l2.5938 1.5312v0.03125c-0.0164 0.089-0.0313 0.189-0.0313 0.282 0 0.828 0.6716 1.5 1.5 1.5 0.828 0 1.5-0.672 1.5-1.5s-0.672-1.5-1.5-1.5c-0.367 0-0.7082 0.125-0.9688 0.344l-2.5624-1.532c0.0199-0.097 0.0312-0.208 0.0312-0.312s-0.0113-0.215-0.0312-0.312l2.5624-1.5318c0.2606 0.2186 0.6018 0.3438 0.9688 0.3438 0.828 0 1.5-0.6716 1.5-1.5s-0.672-1.5-1.5-1.5z"/>
  <path id="path4482" style="opacity:.4" d="m10.5 5c-0.8284 0-1.5 0.6716-1.5 1.5 0 0.1036 0.0113 0.2149 0.0312 0.3125l-2.5937 1.5313c-0.2579-0.2095-0.5793-0.3438-0.9375-0.3438-0.8284 0-1.5 0.6716-1.5 1.5 0 0.828 0.6716 1.5 1.5 1.5 0.3582 0 0.6796-0.134 0.9375-0.344l2.5937 1.532v0.031c-0.0163 0.088-0.0312 0.188-0.0312 0.281 0 0.828 0.6716 1.5 1.5 1.5 0.828 0 1.5-0.672 1.5-1.5s-0.672-1.5-1.5-1.5c-0.367 0-0.7082 0.125-0.9688 0.344l-2.5624-1.5315c0.0199-0.0976 0.0312-0.2089 0.0312-0.3125s-0.0113-0.2149-0.0312-0.3125l2.5624-1.5313c0.2606 0.2186 0.6018 0.3438 0.9688 0.3438 0.828 0 1.5-0.6716 1.5-1.5s-0.672-1.5-1.5-1.5z"/>
 </g>
</svg>
