<?xml version="1.0" encoding="UTF-8" standalone="no"?>
<!-- Created with Inkscape (http://www.inkscape.org/) -->
<svg id="svg3279" xmlns:rdf="http://www.w3.org/1999/02/22-rdf-syntax-ns#" xmlns="http://www.w3.org/2000/svg" height="16" width="16" version="1.1" xmlns:cc="http://creativecommons.org/ns#" xmlns:xlink="http://www.w3.org/1999/xlink" xmlns:dc="http://purl.org/dc/elements/1.1/">
 <defs id="defs3281">
  <linearGradient id="linearGradient3029" y2="7.0925" gradientUnits="userSpaceOnUse" x2="40.007" gradientTransform="matrix(.82997 0 0 .83015 -23.704 -2.8029)" y1="12.911" x1="40.007">
   <stop id="stop4224" style="stop-color:#fff" offset="0"/>
   <stop id="stop4226" style="stop-color:#fff;stop-opacity:0" offset="1"/>
  </linearGradient>
  <linearGradient id="linearGradient3035" y2="24.034" gradientUnits="userSpaceOnUse" x2="39.906" gradientTransform="matrix(.66667 0 0 .66667 -17.167 -1.1668)" y1="6.123" x1="39.906">
   <stop id="stop3245" style="stop-color:#eee" offset="0"/>
   <stop id="stop3247" style="stop-color:#dfdfdf" offset="1"/>
  </linearGradient>
 </defs>
 <metadata id="metadata3284">
  <rdf:RDF>
   <cc:Work rdf:about="">
    <dc:format>image/svg+xml</dc:format>
    <dc:type rdf:resource="http://purl.org/dc/dcmitype/StillImage"/>
    <dc:title/>
   </cc:Work>
  </rdf:RDF>
 </metadata>
 <path id="path2463" style="fill:url(#linearGradient3035);fill-rule:evenodd" d="m6.8334 2.4999-6.3334 6.5626 5.5 5.4375 6.5-6.3334v-5.6667h-5.6667zm2.6667 2c0.552 0 1 0.448 1 1s-0.448 1-1 1-1-0.448-1-1 0.448-1 1-1z"/>
 <path id="path3294" style="opacity:.6;stroke:url(#linearGradient3029);stroke-width:1px;fill:none" d="m9.4944 3.5011c1.2556-0.0443 2.2916 1.2899 1.9336 2.4961-0.265 1.1836-1.7221 1.8658-2.7986 1.3016-1.108-0.4895-1.4942-2.048-0.7348-2.9945 0.3689-0.4993 0.9782-0.808 1.5998-0.8032z"/>
 <path id="path3298" style="opacity:.41;stroke-width:1px;color:#000000;stroke:#000;fill:none" d="m10.333 4.9996c0.73935-0.39148 1.7027-0.51142 2.6179-0.53183 0.41143-0.0092 0.8273 0.0746 1.231-0.02143 0.51383-0.12222 0.86399-0.49868 0.81277-0.84284-0.06877-0.46198-0.68935-0.80302-1.2714-1.0471-0.51628-0.21648-0.91364-0.60224-1.1236-1.0097-0.1061-0.20589 0.07919-0.42208 0.3764-0.48844 0.27-0.060291 0.55279-0.084123 0.82754-0.022904 0.41816 0.093175 0.91179 0.20685 1.1063 0.50311"/>
 <path id="path2463-3" style="opacity:.41;stroke:#000;stroke-width:1px;fill:none" d="m6.8334 2.4999-6.3334 6.5626 5.5 5.4375 6.5-6.3334v-5.6667h-5.6667zm2.6667 2c0.552 0 1 0.448 1 1s-0.448 1-1 1-1-0.448-1-1 0.448-1 1-1z"/>
 <path id="path2996" style="opacity:.4;fill:#fff;fill-rule:evenodd" d="m7.0312 3l-5.8437 6.0625 0.5 0.5 5.3437-5.5625h2.4688 2.5v-1h-4.9688zm1.0626 3c-0.054 0.154-0.0938 0.3286-0.0938 0.5 0 0.8225 0.6775 1.5 1.5 1.5 0.823 0 1.5-0.6775 1.5-1.5 0-0.1714-0.04-0.346-0.094-0.5-0.205 0.585-0.755 1-1.406 1-0.6512 0-1.2011-0.415-1.4062-1z"/>
</svg>
