<?xml version="1.0" encoding="UTF-8" standalone="no"?>
<!-- Created with Inkscape (http://www.inkscape.org/) -->
<svg id="svg5400" xmlns:rdf="http://www.w3.org/1999/02/22-rdf-syntax-ns#" xmlns="http://www.w3.org/2000/svg" height="16px" width="16px" version="1.1" xmlns:cc="http://creativecommons.org/ns#" xmlns:xlink="http://www.w3.org/1999/xlink" xmlns:dc="http://purl.org/dc/elements/1.1/">
 <defs id="defs5402">
  <linearGradient id="linearGradient3785">
   <stop id="stop3787" style="stop-color:#fff" offset="0"/>
   <stop id="stop3789" style="stop-color:#fff;stop-opacity:0" offset="1"/>
  </linearGradient>
  <linearGradient id="linearGradient3791" y2="15" xlink:href="#linearGradient3785" gradientUnits="userSpaceOnUse" x2="8" y1="9" x1="8"/>
  <linearGradient id="linearGradient3795" y2="8" xlink:href="#linearGradient3785" gradientUnits="userSpaceOnUse" x2="8" y1="5" x1="8"/>
 </defs>
 <metadata id="metadata5405">
  <rdf:RDF>
   <cc:Work rdf:about="">
    <dc:format>image/svg+xml</dc:format>
    <dc:type rdf:resource="http://purl.org/dc/dcmitype/StillImage"/>
    <dc:title/>
   </cc:Work>
  </rdf:RDF>
 </metadata>
 <g id="layer1">
  <path id="path3774" style="opacity:.2;stroke:#b600ff;enable-background:new;fill:none" d="m8.0001 3.0709c2.0282 0 3.6722 1.5486 3.6722 3.459 0 0.92903-0.38896 1.7724-1.0217 2.3938-0.181-0.2744-0.431-0.5359-0.776-0.7364 0.43199-0.43336 0.69707-1.0161 0.69707-1.6574 0-1.338-1.1515-2.4225-2.5719-2.4225-1.4205 0-2.5719 1.0846-2.5719 2.4225 0 0.64274 0.26625 1.2266 0.6999 1.6602-0.3443 0.2012-0.5936 0.4633-0.774 0.7382-0.6355-0.6219-1.0264-1.4671-1.0264-2.3984 0-1.9103 1.6441-3.459 3.6723-3.459zm0-2.0709c3.2424 0 5.8709 2.4758 5.8709 5.5299 0 1.9931-1.1196 3.7397-2.7986 4.7128 0.0335-0.23959 0.0548-0.49675 0.0548-0.76316 0 0 0.001-0.2059-0.0573-0.50329 1.0432-0.8253 1.7065-2.0628 1.7065-3.4464 0-2.4847-2.1385-4.499-4.7765-4.499s-4.7765 2.0142-4.7765 4.499c0 1.3865 0.66612 2.6264 1.7132 3.4517-0.0576 0.29452-0.0561 0.498-0.0561 0.498 0 0.26822 0.0217 0.52707 0.0554 0.76802-1.6837-0.973-2.8069-2.7217-2.8069-4.7181 0.0001-3.0541 2.6286-5.5299 5.8711-5.5299z"/>
  <path id="path3772" d="m8.0001 3.0709c2.0282 0 3.6722 1.5486 3.6722 3.459 0 0.92903-0.38896 1.7724-1.0217 2.3938-0.181-0.2744-0.431-0.5359-0.776-0.7364 0.43199-0.43336 0.69707-1.0161 0.69707-1.6574 0-1.338-1.1515-2.4225-2.5719-2.4225-1.4205 0-2.5719 1.0846-2.5719 2.4225 0 0.64274 0.26625 1.2266 0.6999 1.6602-0.3443 0.2012-0.5936 0.4633-0.774 0.7382-0.6355-0.6219-1.0264-1.4671-1.0264-2.3984 0-1.9103 1.6441-3.459 3.6723-3.459zm0-2.0709c3.2424 0 5.8709 2.4758 5.8709 5.5299 0 1.9931-1.1196 3.7397-2.7986 4.7128 0.0335-0.23959 0.0548-0.49675 0.0548-0.76316 0 0 0.001-0.2059-0.0573-0.50329 1.0432-0.8253 1.7065-2.0628 1.7065-3.4464 0-2.4847-2.1385-4.499-4.7765-4.499s-4.7765 2.0142-4.7765 4.499c0 1.3865 0.66612 2.6264 1.7132 3.4517-0.0576 0.29452-0.0561 0.498-0.0561 0.498 0 0.26822 0.0217 0.52707 0.0554 0.76802-1.6837-0.973-2.8069-2.7217-2.8069-4.7181 0.0001-3.0541 2.6286-5.5299 5.8711-5.5299z" style="enable-background:new;fill:#b064d6"/>
  <path id="path3867" style="enable-background:new;fill:#555" d="m8.0001 7.9142c-0.81166 0-1.4697-0.61976-1.4697-1.3843 0-0.76451 0.65801-1.3843 1.4697-1.3843 0.8117 0 1.4697 0.61979 1.4697 1.3843 0 0.76454-0.65801 1.3843-1.4697 1.3843zm0 0.69214c1.116 0 2.0208 0.85221 2.0208 1.9034 0 1.051-0.9048 4.49-2.0209 4.49s-2.0208-3.439-2.0208-4.49c0-1.0512 0.90475-1.9034 2.0208-1.9034z"/>
  <path id="path3799" d="m8.0001 7.9142c-0.81166 0-1.4697-0.61976-1.4697-1.3843 0-0.76451 0.65801-1.3843 1.4697-1.3843 0.8117 0 1.4697 0.61979 1.4697 1.3843 0 0.76454-0.65801 1.3843-1.4697 1.3843zm0 0.69214c1.116 0 2.0208 0.85221 2.0208 1.9034 0 1.051-0.9048 4.49-2.0209 4.49s-2.0208-3.439-2.0208-4.49c0-1.0512 0.90475-1.9034 2.0208-1.9034z" style="opacity:0.41;stroke:#000;enable-background:new;fill:none"/>
  <path id="path3776" style="opacity:.4;enable-background:new;fill:url(#linearGradient3791)" d="m8 9.0938c-0.86156 0-1.5312 0.64192-1.5312 1.4062 0 0.38217 0.21607 1.5298 0.5625 2.4688 0.17322 0.46947 0.39456 0.90834 0.59375 1.1875 0.1992 0.279 0.3528 0.344 0.375 0.344s0.1758-0.065 0.375-0.344 0.4205-0.718 0.5938-1.187c0.3464-0.939 0.5624-2.087 0.5624-2.469 0-0.7643-0.6697-1.4062-1.5312-1.4062z"/>
  <path id="path3793" style="opacity:.4;enable-background:new;fill:url(#linearGradient3795)" d="m8 5.6562c-0.55719 0-0.96875 0.39739-0.96875 0.875 0 0.47763 0.41161 0.875 0.96875 0.875 0.55712 0 0.96875-0.39735 0.96875-0.875 0-0.47763-0.41157-0.875-0.96875-0.875z"/>
 </g>
</svg>
