<?xml version="1.0" encoding="UTF-8" standalone="no"?>
<!-- Created with Inkscape (http://www.inkscape.org/) -->
<svg id="svg4215" xmlns:rdf="http://www.w3.org/1999/02/22-rdf-syntax-ns#" xmlns="http://www.w3.org/2000/svg" height="16px" width="16px" version="1.1" xmlns:cc="http://creativecommons.org/ns#" xmlns:xlink="http://www.w3.org/1999/xlink" xmlns:dc="http://purl.org/dc/elements/1.1/">
 <defs id="defs4217">
  <linearGradient id="linearGradient60901" y2="217" gradientUnits="userSpaceOnUse" x2="98.594" gradientTransform="translate(507.94 53.737)" y1="218.75" x1="49.75">
   <stop id="stop22486-6-5" style="stop-color:#f8d022" offset="0"/>
   <stop id="stop20631-9-6" style="stop-color:#e3ce74" offset="1"/>
  </linearGradient>
  <linearGradient id="linearGradient60903" y2="150.21" gradientUnits="userSpaceOnUse" x2="149.73" gradientTransform="translate(507.94 53.737)" y1="210.8" x1="126.75">
   <stop id="stop20106-9-6-9" style="stop-color:#826a00" offset="0"/>
   <stop id="stop20108-6-6-9" style="stop-color:#d9b100" offset="1"/>
  </linearGradient>
  <linearGradient id="linearGradient60905" y2="155.55" gradientUnits="userSpaceOnUse" x2="175.08" gradientTransform="translate(507.94 68.737)" y1="157.3" x1="113.81">
   <stop id="stop20116-5-2-3-4-0" style="stop-color:#888a85" offset="0"/>
   <stop id="stop20118-4-5-6-9-2" style="stop-color:#a4a5a1" offset="1"/>
  </linearGradient>
  <linearGradient id="linearGradient60907" y2="169.25" gradientUnits="userSpaceOnUse" x2="112.75" gradientTransform="translate(507.94 53.737)" y1="173.5" x1="98.5">
   <stop id="stop22397-0-6" style="stop-color:#bdbdbd" offset="0"/>
   <stop id="stop22399-6-9" style="stop-color:#cdcdcd" offset="1"/>
  </linearGradient>
  <linearGradient id="linearGradient60911" y2="175.55" gradientUnits="userSpaceOnUse" x2="182.08" gradientTransform="translate(507.94 68.737)" y1="175.55" x1="130.81">
   <stop id="stop20116-5-4-8" style="stop-color:#888a85" offset="0"/>
   <stop id="stop20118-4-2-6" style="stop-color:#a4a5a1" offset="1"/>
  </linearGradient>
  <linearGradient id="linearGradient60913" y2="175.55" gradientUnits="userSpaceOnUse" x2="182.08" gradientTransform="translate(507.94 53.737)" y1="175.55" x1="130.81">
   <stop id="stop20116-5-9-2-3-4" style="stop-color:#888a85" offset="0"/>
   <stop id="stop20118-4-3-9-0-3" style="stop-color:#a4a5a1" offset="1"/>
  </linearGradient>
  <linearGradient id="linearGradient60919" y2="169.88" gradientUnits="userSpaceOnUse" x2="103.25" gradientTransform="translate(507.94 53.737)" y1="159.38" x1="118">
   <stop id="stop22801-7-5" offset="0"/>
   <stop id="stop22803-5-9" style="stop-opacity:.37281" offset="1"/>
  </linearGradient>
  <radialGradient id="radialGradient4479" gradientUnits="userSpaceOnUse" cy="187.74" cx="80.25" gradientTransform="matrix(.11298 -.029260 .018137 .070027 -6.7578 -3.8535)" r="30.75">
   <stop id="stop14993-0" style="stop-color:#fff" offset="0"/>
   <stop id="stop14995-0" style="stop-color:#fff;stop-opacity:0" offset="1"/>
  </radialGradient>
  <linearGradient id="linearGradient4484" y2="195.5" gradientUnits="userSpaceOnUse" x2="156.5" gradientTransform="matrix(.099972 0 0 .099972 -1.337 -10.015)" y1="189" x1="105.5">
   <stop id="stop60639" style="stop-color:#4c84d8" offset="0"/>
   <stop id="stop60641" style="stop-color:#6b9bdc" offset="1"/>
  </linearGradient>
  <linearGradient id="linearGradient4487" y2="191.56" gradientUnits="userSpaceOnUse" x2="92.708" gradientTransform="matrix(.099972 0 0 .099972 -2.3092 -12.224)" y1="194.96" x1="58.908">
   <stop id="stop60945" style="stop-color:#95c48c" offset="0"/>
   <stop id="stop60947" style="stop-color:#a6dc98" offset="1"/>
  </linearGradient>
  <radialGradient id="radialGradient4490" gradientUnits="userSpaceOnUse" cy="218.76" cx="88.25" gradientTransform="matrix(.17477 -.0086307 .0035474 .071835 -9.6863 -4.859)" r="34.75">
   <stop id="stop15011-8" style="stop-color:#303030" offset="0"/>
   <stop id="stop15013-2" style="stop-color:#959595" offset="1"/>
  </radialGradient>
  <linearGradient id="linearGradient4497" y2="173.7" gradientUnits="userSpaceOnUse" x2="171.28" gradientTransform="matrix(.10118 0 0 .10118 -2.4711 -12.468)" y1="272.53" x1="171.28">
   <stop id="stop19629" style="stop-color:#585858" offset="0"/>
   <stop id="stop19631" style="stop-color:#9b9b9b" offset="1"/>
  </linearGradient>
  <radialGradient id="radialGradient4499" gradientUnits="userSpaceOnUse" cy="194.62" cx="149.38" gradientTransform="matrix(1 0 0 .57798 0 82.135)" r="13.625">
   <stop id="stop14757-1" offset="0"/>
   <stop id="stop14759-3" style="stop-opacity:0" offset="1"/>
  </radialGradient>
  <radialGradient id="radialGradient4503" gradientUnits="userSpaceOnUse" cy="129.84" cx="129.25" r="34.937">
   <stop id="stop14973-7" style="stop-color:#fabebe" offset="0"/>
   <stop id="stop14975-2" style="stop-color:#fabebe;stop-opacity:0" offset="1"/>
  </radialGradient>
  <radialGradient id="radialGradient4505" gradientUnits="userSpaceOnUse" cy="116" cx="127.89" gradientTransform="matrix(1.7826 0 0 1.7826 -100.09 -90.783)" r="31.25">
   <stop id="stop14747-5" style="stop-color:#ff4141" offset="0"/>
   <stop id="stop14749-3" style="stop-color:#c00" offset="1"/>
  </radialGradient>
  <radialGradient id="radialGradient4507" gradientUnits="userSpaceOnUse" cy="49.24" cx="149.49" gradientTransform="matrix(.082940 0 0 .035122 -1.3903 -.23397)" r="34.5">
   <stop id="stop14685-5" style="stop-color:#fff" offset="0"/>
   <stop id="stop14687-3" style="stop-color:#fff;stop-opacity:0" offset="1"/>
  </radialGradient>
  <radialGradient id="radialGradient4516" gradientUnits="userSpaceOnUse" cy="122.21" cx="125.57" gradientTransform="matrix(.11133 0 0 .17423 -3.3898 -14.009)" r="31.25">
   <stop id="stop14672-2" style="stop-color:#fc6c6c" offset="0"/>
   <stop id="stop14674-7" style="stop-color:#f92424" offset="1"/>
  </radialGradient>
 </defs>
 <metadata id="metadata4220">
  <rdf:RDF>
   <cc:Work rdf:about="">
    <dc:format>image/svg+xml</dc:format>
    <dc:type rdf:resource="http://purl.org/dc/dcmitype/StillImage"/>
    <dc:title/>
   </cc:Work>
  </rdf:RDF>
 </metadata>
 <g id="layer1">
  <path id="path60799" d="m2.6785 1.6904-0.0794 5.6245-1.6923 5.8821c0.23678 1.4631 0.106 1.9566 1.493 2.1163l4.815-0.0681 0.052888-1.5909 5.0425 1.724 2.9567-0.02136-0.05262-3.2209s-0.16193-8.692-0.14643-10.439z" style="color:#000000;fill:#c7c7c7"/>
  <path id="path60811" style="color:#000000;fill:url(#radialGradient4490)" d="m1.0898 13.069c-0.0898 1.431 0.8574 2.03 0.8574 2.03l5.5528 0.401-1-2.5 2-2.5-5.5-0.5z"/>
  <path id="path60813" style="color:#000000;fill:url(#linearGradient4487)" d="m8.9919 1.9293-5.9644-0.046-0.0275 5.1167-2.1601 6.218 6.3858-0.424 7.5243-10.636z"/>
  <path id="path60815" d="m9.9099 4.2313 3.4491 1.6495 0.55 3.549 0.4 5.3982-6.2972-2.902c-0.1749-0.087-0.2513-0.047-0.2513-0.047l1.6496-3.9488z" style="color:#000000;fill:url(#linearGradient4484)"/>
  <path id="path60825" style="opacity:.40329;color:#000000;fill:url(#radialGradient4479)" d="m3.7898 7.3643 4.648-1.5938-1.1997 2.7493-4.8757 1.6792z"/>
  <g id="g60829" style="enable-background:new" transform="matrix(.097196 0 0 .097196 -51.086 -17.209)">
   <path id="path60833" style="color:#000000;enable-background:accumulate;fill:url(#linearGradient60901)" d="m612.94 238.38-16.849 8.1404 0.85052-6.7626 2.139-34.411-14.837-1.6275 0.55229 40.718-2.7911 7.6731-24.406 12.928-12.865 30.424 63.206-42.73z"/>
   <path id="path60835" style="color:#000000;enable-background:accumulate;fill:url(#linearGradient60903)" d="m660.44 262.04 0.76517 18.283c-7.8997-5.9421-15.727-12.156-24.095-15.758l-2.9711 20.595-11.152-4.8611 3.4128-21.309c-6.1468-3.0355-11.406-4.5114-17.959-6.2552l5.9754-14.597c17.257 5.1888 30.354 13.661 46.025 23.903z"/>
   <path id="path60837" style="color:#000000;enable-background:accumulate;fill:url(#linearGradient60905)" d="m635.03 248.76 1.4116-11.028 1-30.5-16.75-8.5-4.75 34.5-2 6c7.1288 2.3407 13.735 5.143 21.088 9.5277z"/>
   <path id="path60839" d="m596.44 247.24 4.75-8.75 2-31.75 16.521-3.1073-3.7714 29.607-2 6z" style="color:#000000;enable-background:accumulate;fill:url(#linearGradient60907)"/>
   <path id="path60843" style="color:#000000;enable-background:accumulate;fill:url(#linearGradient60911)" d="m660.05 263.38c-7.3993-4.024-13.484-10.841-21.302-13.612v-10.43l20.683 9.6343z"/>
   <path id="path60845" style="color:#000000;enable-background:accumulate;fill:#686965" d="m658.55 233.18 2.1213 13.081-22.627-10.253 0.35355-12.374z"/>
   <path id="path60847" style="color:#000000;enable-background:accumulate;fill:url(#linearGradient60913)" d="m651.48 278.43 0.7071 12.021 11.314 5.8336-1.8562-11.932z"/>
   <path id="path60853" style="opacity:.30453;color:#000000;enable-background:accumulate;fill:url(#linearGradient60919)" d="m603.44 206.74 17-3.5965 19 4.0965-4.25 32.75-19.25-8.5-15 7z"/>
  </g>
  <path id="path60859" d="m7 14.5c-1.9036-0.127-4.0198 0.7-5.5475-0.555" style="opacity:.31276;color:#000000;stroke:#fff;stroke-linecap:square;fill:none"/>
  <path id="path5310" style="color:#000000;stroke:url(#linearGradient4497);fill:none" d="m2.5 1.5v5.5l-2 6c0 2 0.61295 2.3403 2 2.5h5l-0.2322-1.845 5.2322 1.845h3l-0.5-3.5s0.4845-8.7529 0.5-10.5z"/>
  <path id="path60863" style="opacity:.34979;color:#000000;fill:url(#radialGradient4499)" d="m163 194.62a13.625 7.875 0 1 1 -27.25 0 13.625 7.875 0 1 1 27.25 0z" transform="matrix(.075405 0 0 .074125 -.25580 -3.2535)"/>
  <rect id="rect5314" style="opacity:.4;fill:#fff" height="1" width="12" y="2" x="3"/>
  <path id="path60865" style="color:#000000;stroke:#c90505;fill:url(#radialGradient4516)" d="m14.479 4.0242c0 2.765-2.7342 7.5111-3.4791 7.4544-0.74498-0.05662-3.4792-4.6328-3.4792-7.4544 0-1.8969 1.5577-3.4347 3.4792-3.4347s3.4791 1.5378 3.4791 3.4347z"/>
  <path id="path60867" style="opacity:.7;color:#000000;fill:url(#radialGradient4503)" d="m160.5 96.75a31.25 31.25 0 1 1 -62.5 0 31.25 31.25 0 1 1 62.5 0z" transform="matrix(.08 0 0 .078642 .67997 -3.0962)"/>
  <path id="path60869" style="color:#000000;fill:url(#radialGradient4505)" d="m160.5 96.75a31.25 31.25 0 1 1 -62.5 0 31.25 31.25 0 1 1 62.5 0z" transform="matrix(.064 0 0 .064 2.7601 -2.2271)"/>
  <path id="path60871" style="opacity:.45267;color:#000000;fill:url(#radialGradient4507)" d="m11.008 1.1094c-1.3342 0-2.4158 0.81953-2.4158 1.8305 0 0.072937 0.00655 0.14484 0.017506 0.21554 0.14147-0.90881 1.1608-1.6133 2.3983-1.6133 1.2374 0 2.259 0.70446 2.4005 1.6133 0.01095-0.070708 0.01532-0.14261 0.01532-0.21554 0-1.0109-1.0816-1.8305-2.4158-1.8305z"/>
  <path id="path60937" d="m6.5 12.5c-1.9839 0.09219-5-1-6 0.5" style="color:#000000;stroke:#5d5d5d;stroke-linecap:round;fill:none"/>
  <path id="path5308" style="opacity:.3" d="m12 4a1 1 0 1 1 -2 0 1 1 0 1 1 2 0z" transform="translate(-.010723 -1.0305)"/>
  <path id="path5306" style="fill:#fff" d="m12 4a1 1 0 1 1 -2 0 1 1 0 1 1 2 0z" transform="translate(.020527 2.033e-8)"/>
 </g>
</svg>
