<?xml version="1.0" encoding="UTF-8" standalone="no"?>
<!-- Created with Inkscape (http://www.inkscape.org/) -->
<svg id="svg5400" xmlns:rdf="http://www.w3.org/1999/02/22-rdf-syntax-ns#" xmlns="http://www.w3.org/2000/svg" height="16px" width="16px" version="1.1" xmlns:cc="http://creativecommons.org/ns#" xmlns:xlink="http://www.w3.org/1999/xlink" xmlns:dc="http://purl.org/dc/elements/1.1/">
 <defs id="defs5402">
  <linearGradient id="linearGradient7223">
   <stop id="stop7225" style="stop-color:#fff" offset="0"/>
   <stop id="stop7227" style="stop-color:#fff;stop-opacity:0" offset="1"/>
  </linearGradient>
  <linearGradient id="linearGradient7229" y2="13.5" xlink:href="#linearGradient7223" gradientUnits="userSpaceOnUse" x2="10" y1="13.5" x1="9"/>
 </defs>
 <metadata id="metadata5405">
  <rdf:RDF>
   <cc:Work rdf:about="">
    <dc:format>image/svg+xml</dc:format>
    <dc:type rdf:resource="http://purl.org/dc/dcmitype/StillImage"/>
    <dc:title/>
   </cc:Work>
  </rdf:RDF>
 </metadata>
 <g id="layer1">
  <path id="rect7356-3" style="color:#bebebe;fill:#555" d="m2.9996 3-0.00021 0.99998 10 0.00002l0.001-1z"/>
  <path id="path6091-3" d="m2.9998 6-0.0002 1h10v-1z" style="color:#bebebe;fill:#555"/>
  <path id="path6094-6" style="color:#bebebe;fill:#555" d="m2.9998 9-0.00021 0.99998h6.0003l0.0002-1z"/>
  <path id="path6097-0" d="m2.9998 12-0.00021 0.99998 4.0003 0.00002l0.0002-1z" style="color:#bebebe;fill:#555"/>
  <path id="path6113-7" style="color:#000000;enable-background:new;fill:#555" d="m10 8v2 2.0938c-0.1542-0.054-0.3273-0.094-0.4999-0.094-0.82843 0-1.5 0.67157-1.5 1.5s0.67157 1.5 1.5 1.5 1.5-0.67157 1.5-1.5v-3.5h3v2.0938c-0.15432-0.0536-0.32741-0.0937-0.5-0.0937-0.82843 0-1.5 0.67157-1.5 1.5s0.67157 1.5 1.5 1.5 1.5-0.67157 1.5-1.5v-5.5h-1-3-1z"/>
  <path id="path7219" style="opacity:.5;fill:url(#linearGradient7229)" d="m10 13.5a0.5 0.5 0 1 1 -1 0 0.5 0.5 0 1 1 1 0z" transform="matrix(0,1,-1,0,23,4)"/>
  <path id="path7221" style="opacity:.5;fill:url(#linearGradient7229)" d="m10 13.5a0.5 0.5 0 1 1 -1 0 0.5 0.5 0 1 1 1 0z" transform="matrix(0,1,-1,0,27,4)"/>
  <path id="path7233" style="opacity:.2;color:#bebebe;fill:#fff" d="m3 3v0.5h10v-0.5h-10zm0 3v0.5h10v-0.5h-10zm0 3v0.5h6v-0.5h-6zm0 3v0.5h4v-0.5h-4z"/>
  <rect id="rect7245" style="opacity:.2;fill:#fff" height="1" width="5" y="8" x="10"/>
 </g>
</svg>
