<?xml version="1.0" encoding="UTF-8" standalone="no"?>
<!-- Created with Inkscape (http://www.inkscape.org/) -->
<svg id="svg5400" xmlns:rdf="http://www.w3.org/1999/02/22-rdf-syntax-ns#" xmlns="http://www.w3.org/2000/svg" height="16px" width="16px" version="1.1" xmlns:cc="http://creativecommons.org/ns#" xmlns:xlink="http://www.w3.org/1999/xlink" xmlns:dc="http://purl.org/dc/elements/1.1/">
 <defs id="defs5402">
  <linearGradient id="linearGradient3979">
   <stop id="stop3981" style="stop-color:#235a9f" offset="0"/>
   <stop id="stop3983" style="stop-color:#1b89c2" offset="1"/>
  </linearGradient>
  <linearGradient id="linearGradient3815">
   <stop id="stop3817" style="stop-color:#fff" offset="0"/>
   <stop id="stop3819" style="stop-color:#fff;stop-opacity:0" offset="1"/>
  </linearGradient>
  <linearGradient id="linearGradient5621">
   <stop id="stop5623" style="stop-color:#2777db" offset="0"/>
   <stop id="stop5625" style="stop-color:#00a8ff" offset="1"/>
  </linearGradient>
  <linearGradient id="linearGradient3926" y2="10" xlink:href="#linearGradient3815" gradientUnits="userSpaceOnUse" x2="15" gradientTransform="matrix(0,1,-1,0,17,-3)" y1="10" x1="5"/>
  <linearGradient id="linearGradient3930" y2="10" xlink:href="#linearGradient5621" gradientUnits="userSpaceOnUse" x2="15.5" gradientTransform="translate(-17,-3)" y1="10" x1="4.5"/>
  <linearGradient id="linearGradient3934" y2="10" xlink:href="#linearGradient3815" gradientUnits="userSpaceOnUse" x2="15" gradientTransform="matrix(0,1,-1,0,19,-1)" y1="10" x1="5"/>
  <linearGradient id="linearGradient3938" y2="10" xlink:href="#linearGradient5621" gradientUnits="userSpaceOnUse" x2="15.5" gradientTransform="translate(-19,-1)" y1="10" x1="4.5"/>
  <linearGradient id="linearGradient3961" y2="6" gradientUnits="userSpaceOnUse" x2="8.75" y1="12.25" x1="8.75">
   <stop id="stop3965" style="stop-color:#d8ebff" offset="0"/>
   <stop id="stop3967" style="stop-color:#f3fbff" offset="1"/>
  </linearGradient>
  <linearGradient id="linearGradient3975" y2="7" xlink:href="#linearGradient3979" gradientUnits="userSpaceOnUse" x2="-1" y1="7" x1="-13"/>
  <linearGradient id="linearGradient3977" y2="9" xlink:href="#linearGradient3979" gradientUnits="userSpaceOnUse" x2="-3" y1="9" x1="-15"/>
 </defs>
 <metadata id="metadata5405">
  <rdf:RDF>
   <cc:Work rdf:about="">
    <dc:format>image/svg+xml</dc:format>
    <dc:type rdf:resource="http://purl.org/dc/dcmitype/StillImage"/>
    <dc:title/>
   </cc:Work>
  </rdf:RDF>
 </metadata>
 <g id="layer1">
  <rect id="rect3839" style="fill:url(#linearGradient3930)" transform="rotate(-90)" height="11" width="11" y="1.5" x="-12.5"/>
  <rect id="rect3841" style="stroke-linejoin:round;stroke:url(#linearGradient3975);fill:none" transform="rotate(-90)" height="11" width="11" y="1.5" x="-12.5"/>
  <path id="path3843" d="m12 2h-10v10h10v-10zm-1 1v8h-8v-8h8z" style="opacity:.2;fill:url(#linearGradient3926)"/>
  <path id="path3845" style="opacity:.2;fill:#fff" d="m2 2v1h10v-1h-10z"/>
  <rect id="rect3000" style="fill:url(#linearGradient3938)" transform="rotate(-90)" height="11" width="11" y="3.5" x="-14.5"/>
  <rect id="rect3778" style="stroke-linejoin:round;stroke:url(#linearGradient3977);fill:none" transform="rotate(-90)" height="11" width="11" y="3.5" x="-14.5"/>
  <path id="rect3794" style="opacity:.2;fill:url(#linearGradient3934)" d="m14 4h-10v10h10v-10zm-1 1v8h-8v-8h8z"/>
  <path id="path3807" style="opacity:.2;fill:#fff" d="m4 4v1h10v-1h-10z"/>
  <path id="path3953" style="opacity:.3" d="m7 7v1.5 2.2812c-0.0814-0.016-0.1637-0.031-0.25-0.031-0.6904 0-1.25 0.56-1.25 1.25 0 0.69036 0.55964 1.25 1.25 1.25 0.6904 0 1.25-0.56 1.25-1.25v-3.5h3v2.2812c-0.081-0.016-0.164-0.031-0.25-0.031-0.69 0-1.25 0.56-1.25 1.25 0 0.69036 0.55964 1.25 1.25 1.25 0.69 0 1.25-0.56 1.25-1.25v-3.5-1.5h-1-3-1z"/>
  <path id="path3940" style="fill:url(#linearGradient3961)" d="m7 6v1.5 2.2812c-0.0814-0.0166-0.1637-0.0312-0.25-0.0312-0.6904 0-1.25 0.56-1.25 1.25s0.5596 1.25 1.25 1.25 1.25-0.56 1.25-1.25v-3.5h3v2.2812c-0.081-0.0166-0.164-0.0312-0.25-0.0312-0.69 0-1.25 0.56-1.25 1.25s0.56 1.25 1.25 1.25 1.25-0.56 1.25-1.25v-3.5-1.5h-1-3-1z"/>
 </g>
</svg>
