<?xml version="1.0" encoding="UTF-8" standalone="no"?>
<!-- Created with Inkscape (http://www.inkscape.org/) -->
<svg id="svg5400" xmlns:rdf="http://www.w3.org/1999/02/22-rdf-syntax-ns#" xmlns="http://www.w3.org/2000/svg" height="16px" width="16px" version="1.1" xmlns:cc="http://creativecommons.org/ns#" xmlns:xlink="http://www.w3.org/1999/xlink" xmlns:dc="http://purl.org/dc/elements/1.1/">
 <defs id="defs5402">
  <linearGradient id="linearGradient7396" y2="131" gradientUnits="userSpaceOnUse" x2="440" gradientTransform="translate(-432,-124)" y1="127" x1="440">
   <stop id="stop11361" style="stop-color:#d5cbd7" offset="0"/>
   <stop id="stop11363" style="stop-color:#d9bfdf" offset="1"/>
  </linearGradient>
  <linearGradient id="linearGradient7398" y2="276" gradientUnits="userSpaceOnUse" x2="352" gradientTransform="matrix(.38091 0 0 .38091 -116.94 -87.847)" y1="228" x1="352">
   <stop id="stop4970" style="stop-color:#f1e6f4" offset="0"/>
   <stop id="stop4972" style="stop-color:#c9bcce" offset="1"/>
  </linearGradient>
 </defs>
 <metadata id="metadata5405">
  <rdf:RDF>
   <cc:Work rdf:about="">
    <dc:format>image/svg+xml</dc:format>
    <dc:type rdf:resource="http://purl.org/dc/dcmitype/StillImage"/>
    <dc:title/>
   </cc:Work>
  </rdf:RDF>
 </metadata>
 <g id="layer1">
  <path id="path4938-1" d="m0.5 1.4997v0.5 4.5h15v-2.5-0.5h-0.5-5c-0.38802 0-0.71067-0.0767-0.96875-0.25-0.25808-0.17334-0.41853-0.38728-0.65625-0.625-0.47545-0.47545-1.237-1.125-2.375-1.125h-5-0.5z" style="block-progression:tb;text-indent:0;color:#000000;text-transform:none;fill:url(#linearGradient7396)"/>
  <path id="path11441" d="m0.5 5.4997v9s-0.003 0.27549 0.125 0.53125c0.12792 0.25576 0.29167 0.46875 0.875 0.46875h13s0.27551 0.003 0.53125-0.125c0.256-0.128 0.469-0.292 0.469-0.875v-9h-15z" style="block-progression:tb;text-indent:0;color:#000000;text-transform:none;fill:url(#linearGradient7398)"/>
  <path id="rect11912" style="opacity:0.41;color:#000000" d="m1 4.9997h14v1h-14z"/>
  <path id="path7434" style="opacity:.1;block-progression:tb;text-indent:0;color:#000000;text-transform:none;fill:#fff" d="m1 6v1h14v-1h-14z"/>
  <path id="path3007" style="opacity:0.41;block-progression:tb;text-indent:0;color:#000000;text-transform:none" d="m0 1v0.5 0.5 3.5 1 8s-0.0062121 0.36294 0.1875 0.75c0.077302 0.15456 0.20365 0.37778 0.4375 0.53125 0.23385 0.154 0.5225 0.219 0.875 0.219h13s0.36294 0.0062 0.75-0.1875c0.15459-0.07729 0.37778-0.20365 0.53125-0.4375 0.154-0.234 0.219-0.522 0.219-0.875v-8-1-1.5-0.5-0.5h-0.5-0.5-5c-0.3221 0-0.5329-0.0524-0.6875-0.1562-0.1746-0.1174-0.3123-0.3102-0.5625-0.5626h-0.03125c-0.5033-0.5032-1.3905-1.2812-2.7188-1.2812h-5-0.5-0.5zm1 1h5c0.9478 0 1.5836 0.5211 2.0312 0.9688 0.2113 0.2112 0.3823 0.4614 0.7188 0.6874 0.3615 0.2428 0.7961 0.3438 1.25 0.3438h5v1.5 1 8c0 0.2308-0.04553 0.3179-0.0625 0.34375s-0.02385 0.04317-0.125 0.09375c-0.124 0.062-0.312 0.062-0.312 0.062h-13c-0.2308 0-0.3179-0.046-0.3438-0.062-0.0258-0.017-0.0431-0.024-0.0937-0.126-0.0623-0.124-0.0625-0.312-0.0625-0.312v-8-1-3.5z"/>
 </g>
 <g id="layer2">
  <path id="path3069" style="opacity:.4;enable-background:new;fill:#fff" d="m8.5 8l-3.5 3h1v3h2v-2h1v1.969h2.031l-0.031-2.969h1l-3.5-3z"/>
  <path id="path16259-2-3" style="opacity:.4;enable-background:new" d="m8.5 7l-3.5 3h1v3h2v-2h1v1.969h2.031l-0.031-2.969h1l-3.5-3z"/>
 </g>
</svg>
