<?xml version="1.0" encoding="UTF-8" standalone="no"?>
<!-- Created with Inkscape (http://www.inkscape.org/) -->
<svg id="svg5014" xmlns:rdf="http://www.w3.org/1999/02/22-rdf-syntax-ns#" xmlns="http://www.w3.org/2000/svg" height="24" width="24" version="1.1" xmlns:cc="http://creativecommons.org/ns#" xmlns:xlink="http://www.w3.org/1999/xlink" xmlns:dc="http://purl.org/dc/elements/1.1/">
 <defs id="defs5016">
  <linearGradient id="linearGradient5200">
   <stop id="stop5202" offset="0"/>
   <stop id="stop5204" style="stop-opacity:0" offset="1"/>
  </linearGradient>
  <linearGradient id="linearGradient3132" y2="13" gradientUnits="userSpaceOnUse" x2="15" gradientTransform="matrix(.73333 0 0 .73333 0.4 13.038)" y1="-1" x1="15">
   <stop id="stop5074" offset="0"/>
   <stop id="stop5076" style="stop-opacity:0" offset="1"/>
  </linearGradient>
  <linearGradient id="linearGradient3140" y2="8" gradientUnits="userSpaceOnUse" x2="24" gradientTransform="matrix(.73333 0 0 .73333 0.4 13.038)" y1="8" x1="8">
   <stop id="stop5084" style="stop-color:#fff" offset="0"/>
   <stop id="stop5086" style="stop-color:#fff;stop-opacity:.74902" offset=".46633"/>
   <stop id="stop5088" style="stop-color:#fff;stop-opacity:0" offset=".67678"/>
   <stop id="stop5090" style="stop-color:#fff;stop-opacity:0" offset="1"/>
  </linearGradient>
  <linearGradient id="linearGradient3144" gradientUnits="userSpaceOnUse" x2="20" gradientTransform="matrix(.73333 0 0 .73333 0.4 13.038)" y1="20" x1="20">
   <stop id="stop4937" style="stop-color:#e5cf08" offset="0"/>
   <stop id="stop4977" style="stop-color:#e9d414" offset=".5"/>
   <stop id="stop4939" style="stop-color:#fff279" offset="1"/>
  </linearGradient>
  <radialGradient id="radialGradient3151" xlink:href="#linearGradient5200" gradientUnits="userSpaceOnUse" cy="29.5" cx="17" gradientTransform="matrix(1 0 0 .25 0 22.125)" r="10"/>
  <linearGradient id="linearGradient3931" y2="12" gradientUnits="userSpaceOnUse" x2="0" gradientTransform="matrix(.73333 0 0 .73333 0.4 13.038)" y1="12" x1="32">
   <stop id="stop4929" style="stop-color:#c09e06" offset="0"/>
   <stop id="stop4931" style="stop-color:#b99b13" offset="1"/>
  </linearGradient>
 </defs>
 <metadata id="metadata5019">
  <rdf:RDF>
   <cc:Work rdf:about="">
    <dc:format>image/svg+xml</dc:format>
    <dc:type rdf:resource="http://purl.org/dc/dcmitype/StillImage"/>
    <dc:title/>
   </cc:Work>
  </rdf:RDF>
 </metadata>
 <g id="layer1" transform="translate(0,-8)">
  <path id="path5198" style="opacity:.2;fill:url(#radialGradient3151)" d="m27 29.5a10 2.5 0 1 1 -20 0 10 2.5 0 1 1 20 0z" transform="matrix(.91667 0 0 .58667 -3.0833 9.6647)"/>
  <path id="path5208" style="opacity:.2;fill:url(#radialGradient3151)" d="m27 29.5a10 2.5 0 1 1 -20 0 10 2.5 0 1 1 20 0z" transform="matrix(.66 0 0 .29333 .91333 18.318)"/>
  <path id="path4925" style="stroke:url(#linearGradient3931);stroke-width:2;fill:none" d="m9.9333 15.238s-1.4667 1.4667-7.3333 1.4667c0 8.8 4.4 8.8 4.4 8.8 2.9333 0 3.6667-2.2 5.1333-2.2 1.4667 0 2.2 2.2 5.8667 2.2 0 0 3.6667 0 3.6667-8.8-6.6 0-7.3333-1.4667-7.3333-1.4667-0.73333 0-0.73333 1.4667-2.2 1.4667s-1.4667-1.4667-2.2-1.4667z"/>
  <path id="path4923" style="stroke:url(#linearGradient3144);fill:none" d="m9.9333 15.238s-1.4667 1.4667-7.3333 1.4667c0 8.8 4.4 8.8 4.4 8.8 2.9333 0 3.6667-2.2 5.1333-2.2 1.4667 0 2.2 2.2 5.8667 2.2 0 0 3.6667 0 3.6667-8.8-6.6 0-7.3333-1.4667-7.3333-1.4667-0.73333 0-0.73333 1.4667-2.2 1.4667s-1.4667-1.4667-2.2-1.4667z"/>
  <path id="path4915" style="fill:#a161ab" d="m9.9333 15.238s-1.4667 1.4667-7.3333 1.4667c0 8.8 4.4 8.8 4.4 8.8 2.9333 0 3.6667-2.2 5.1333-2.2 1.4667 0 2.2 2.2 5.8667 2.2 0 0 3.6667 0 3.6667-8.8-6.6 0-7.3333-1.4667-7.3333-1.4667-0.73333 0-0.73333 1.4667-2.2 1.4667s-1.4667-1.4667-2.2-1.4667zm-3.0938 4.1938c1.0032-0.096 2.2228 0.319 3.8275 1.673-0.7914 0.787-1.7121 1.367-2.9337 1.466-1.8547-0.166-2.5346-1.092-2.9333-2.2 0.6128-0.478 1.2594-0.865 2.0396-0.939zm10.244 0c0.93506-0.01919 1.683 0.39257 2.3833 0.93958-0.39875 1.108-1.0786 2.0341-2.9333 2.2-1.2216-0.09885-2.1423-0.67899-2.9333-1.4667 1.4261-1.2036 2.5483-1.6537 3.4833-1.6729z"/>
  <path id="path4943" style="opacity:.5;fill:url(#linearGradient3140)" d="m9.9333 15.238s-0.63292 0.62067-2.6583 1.0542c0.98812 0.35704 3.5241 1.0431 4.125 1.8792 1.5387 2.3885-0.80348 5.5562-2.8646 7.1042 1.7283-0.56562 2.4271-1.9708 3.5979-1.9708s1.8696 1.4052 3.5979 1.9708c-2.0611-1.548-4.4033-4.7156-2.8646-7.1042 0.60089-0.83605 3.1369-1.5221 4.125-1.8792-2.026-0.434-2.659-1.055-2.659-1.055-0.73333 0-0.73333 1.4667-2.2 1.4667s-1.4667-1.4667-2.2-1.4667z"/>
  <path id="path4968" style="stroke:#4d1556;fill:none" d="m6.8396 19.432c1.0031-0.096 2.2227 0.319 3.8274 1.673-0.7914 0.787-1.7121 1.367-2.9337 1.466-1.8547-0.166-2.5346-1.092-2.9333-2.2 0.6128-0.478 1.2594-0.865 2.0396-0.939zm10.244 0c0.93506-0.01919 1.683 0.39257 2.3833 0.93958-0.39875 1.108-1.0786 2.0341-2.9333 2.2-1.2216-0.09885-2.1423-0.67899-2.9333-1.4667 1.4261-1.2036 2.5483-1.6537 3.4833-1.6729z"/>
  <path id="path4987" style="opacity:.2;fill:#fff" d="m8.4896 15.971c-0.33576 0.11419-0.72954 0.21702-1.2146 0.32083 0.98812 0.35704 3.5241 1.0431 4.125 1.8792 0.26646 0.41363 0.40303 0.85835 0.45833 1.3062 0.065-0.705-0.046-1.399-0.458-2.039-0.422-0.587-1.7861-1.089-2.9104-1.467z"/>
  <path id="path4996" d="m15.662 15.994c0.33576 0.11419 0.72954 0.21702 1.2146 0.32083-0.98812 0.35704-3.5241 1.0431-4.125 1.8792-0.26646 0.41363-0.40303 0.85835-0.45833 1.3062-0.06496-0.70581 0.046-1.3995 0.45833-2.0396 0.42195-0.58708 1.7861-1.0895 2.9104-1.4667z" style="opacity:.1;fill:#fff"/>
  <path id="path5021" style="opacity:.4;block-progression:tb;text-indent:0;color:#000000;text-transform:none" d="m6.8854 19.798c-0.57119 0.0547-1.0635 0.3827-1.5583 0.73333 0.042125 0.09528 0.093144 0.18311 0.1375 0.275 0.4491-0.31231 0.90267-0.59205 1.4208-0.64167 0.73731-0.07061 1.7029 0.2693 2.9104 1.1458 0.081784-0.06456 0.17229-0.11424 0.25208-0.18333-1.3375-1.0296-2.371-1.405-3.1625-1.3292zm10.198 0c-0.73735 0.01514-1.6851 0.4212-2.8646 1.3292 0.07979 0.0691 0.1703 0.11877 0.25208 0.18333 1.0587-0.77048 1.9306-1.1318 2.6125-1.1458 0.65798-0.01351 1.205 0.25451 1.7417 0.61875 0.04432-0.09122 0.09625-0.17968 0.1375-0.275-0.58088-0.41212-1.1653-0.72507-1.8792-0.71042z"/>
  <path id="path5023" style="opacity:.4;block-progression:tb;text-indent:0;color:#000000;text-transform:none;fill:#fff" d="m4.5938 20.784c-0.00846 0.0066-0.014477 0.01632-0.022917 0.02292l-0.20625 0.18333 0.091667 0.22917c0.21083 0.58584 0.51518 1.1806 1.0312 1.6271 0.51607 0.44651 1.2392 0.73703 2.2229 0.825h0.022917 0.022917c1.3217-0.10696 2.3344-0.75671 3.1625-1.5812l0.29792-0.275-0.321-0.253c-0.04-0.033-0.076-0.059-0.115-0.092-0.655 0.624-1.4179 1.131-2.3602 1.352-0.213 0.05-0.4332 0.096-0.6646 0.115h-0.022917c-0.00833-0.000807-0.014652 0.000807-0.022917 0-0.19675-0.01759-0.37367-0.05824-0.55-0.09167-0.7053-0.133-1.26-0.376-1.6729-0.733-0.4265-0.369-0.6897-0.846-0.8937-1.329zm15.079 0.02292c-0.20334 0.47594-0.473 0.94221-0.89375 1.3062-0.41286 0.35721-0.96761 0.59963-1.6729 0.73333-0.17555 0.04021-0.35941 0.07148-0.57292 0.09166h-0.02292c-0.23131-0.01872-0.45154-0.06459-0.66458-0.11458-0.94227-0.22111-1.7047-0.72842-2.3604-1.3521-0.0389 0.03211-0.07531 0.05852-0.11458 0.09167l-0.32083 0.25208 0.29792 0.275c0.82806 0.82454 1.8408 1.4743 3.1625 1.5812h0.02292 0.02292c0.98373-0.08797 1.7068-0.37849 2.2229-0.825 0.51607-0.44651 0.82042-1.0412 1.0312-1.6271l0.09166-0.22917-0.20625-0.18333c-0.0048-0.0037-0.0181 0.0037-0.02292 0z"/>
  <path id="path5069" style="opacity:.2;fill:url(#linearGradient3132)" d="m8.4437 15.971c-0.2308 0.077-0.504 0.157-0.802 0.229 0.3012-0.074 0.5692-0.151 0.802-0.229zm-1.1688 0.32083c-1.103 0.236-2.6063 0.413-4.6749 0.413 0 8.8 4.4 8.8 4.4 8.8 0.59174 0 1.0987-0.08623 1.5354-0.22917 0.00824-0.0062 0.014674-0.01668 0.022917-0.02292 2.055-1.5547 4.3742-4.7023 2.8417-7.0812-0.60089-0.83605-3.1369-1.5221-4.125-1.8792zm9.6021 0.02292c-1.042 0.36482-3.4264 1.0436-4.0104 1.8562-1.4705 2.2826 0.60385 5.2629 2.5896 6.875 0.6629 0.26704 1.4695 0.45833 2.5438 0.45833 0 0 3.6667 0 3.6667-8.8-2.1961 0-3.7035-0.17288-4.7896-0.38958zm-10.037 3.117c1.0031-0.096 2.2227 0.319 3.8274 1.673-0.7914 0.787-1.7121 1.367-2.9337 1.466-1.8547-0.166-2.5346-1.092-2.9333-2.2 0.6128-0.478 1.2594-0.865 2.0396-0.939zm10.244 0c0.93506-0.01919 1.683 0.39257 2.3833 0.93958-0.39875 1.108-1.0786 2.0341-2.9333 2.2-1.2216-0.09885-2.1423-0.67899-2.9333-1.4667 1.4261-1.2036 2.5483-1.6537 3.4833-1.6729z"/>
  <path id="path5093" style="opacity:.5;stroke:#fff;stroke-width:.5;fill:none" d="m11.95 23.305v-2.9397-2.927"/>
  <path id="path5106" style="opacity:.1" d="m2.6 16.705c0 8.8 4.4 8.8 4.4 8.8 2.0479 0.3492 3.7235-2.1389 5.1333-2.2 2.9118 1.2275 2.9803 2.1806 5.8667 2.2 0 0 3.6667 0 3.6667-8.8-0.0083 0-0.01467 0.000005-0.02292 0-0.2032 8.0461-3.6438 8.0667-3.6438 8.0667-2.9185 0.05083-3.6427-1.4965-5.8667-2.2-2.1809 0.88287-2.9116 2.0382-5.1333 2.2 0 0-4.1332-0.02056-4.3771-8.0667-0.00819 0.000005-0.01471 0-0.022917 0z"/>
  <path id="path5116" style="opacity:.1" d="m9.9333 15.238c-1.9384 1.237-5.0725 1.459-7.3333 1.467 0 0.25884 0.015528 0.4895 0.022917 0.73333 2.5401-0.11464 5.1296-0.06246 7.3104-1.4667 0.73333 0 0.73333 1.4667 2.2 1.4667s1.4667-1.4667 2.2-1.4667c2.0673 1.2164 4.6134 1.4569 7.3104 1.4667 0.0062-0.24384 0.02292-0.4745 0.02292-0.73333-2.7237-0.11038-5.059-0.0113-7.3333-1.4667-0.73333 0-0.73333 1.4667-2.2 1.4667s-1.4667-1.4667-2.2-1.4667zm-4.9041 5.683c-0.0798 0.058-0.1508 0.122-0.2292 0.184 0.39875 1.108 1.0786 2.0341 2.9333 2.2 1.2216-0.099 2.1423-0.679 2.9337-1.467-0.152-0.128-0.291-0.232-0.436-0.344-0.6933 0.582-1.4916 0.996-2.4977 1.077-1.5383-0.137-2.2723-0.796-2.7041-1.65zm14.185 0c-0.4325 0.84852-1.1491 1.513-2.6812 1.65-1.006-0.081-1.804-0.495-2.498-1.077-0.141 0.109-0.287 0.219-0.435 0.344 0.79104 0.78768 1.7118 1.3678 2.9333 1.4667 1.8548-0.16586 2.5346-1.092 2.9333-2.2-0.08326-0.06503-0.16724-0.12262-0.25208-0.18333zm-5.843 2.567c0.17267 0.26549 0.3715 0.51063 0.57292 0.75625-0.20045-0.2441-0.40102-0.49441-0.57292-0.75625z"/>
  <path id="path3923" style="opacity:0.41;block-progression:tb;text-indent:0;color:#000000;stroke:#000;text-transform:none;fill:none" d="m9.5312 14.25-0.3125 0.28125s0.036912-0.03465-0.125 0.0625-0.45075 0.27525-0.9375 0.4375c-0.97351 0.3245-2.7125 0.6875-5.5625 0.6875h-1v1c0 4.5667 1.1643 7.0705 2.5 8.4062 0.66785 0.66785 1.3673 1.0078 1.9062 1.1875 0.53899 0.17966 1 0.1875 1 0.1875 1.7167 0 2.9214-0.68325 3.7188-1.2812 0.39867-0.299 0.7017-0.56716 0.9375-0.71875s0.35208-0.1875 0.46875-0.1875 0.24356 0.02833 0.5 0.1875 0.60733 0.44655 1.0625 0.75c0.91034 0.60689 2.2792 1.25 4.3125 1.25 0 0 0.45146-0.02433 0.9375-0.21875s1.093-0.57406 1.6562-1.25c1.1266-1.3519 2.0625-3.7736 2.0625-8.3125v-1h-1c-3.2259 0-4.9376-0.3807-5.7812-0.6875-0.42185-0.1534-0.6172-0.28751-0.6875-0.34375-0.03515-0.02812-0.04472-0.04764-0.03125-0.03125l-0.21875-0.40625h-0.59375c-0.51667 0-0.96626 0.2899-1.1875 0.53125s-0.332 0.45308-0.4375 0.59375c-0.211 0.28133-0.19375 0.34375-0.59375 0.34375s-0.3515-0.06242-0.5625-0.34375c-0.106-0.14-0.217-0.352-0.438-0.593-0.221-0.242-0.671-0.532-1.1875-0.532z"/>
 </g>
</svg>
