<?xml version="1.0" encoding="UTF-8" standalone="no"?>
<!-- Created with Inkscape (http://www.inkscape.org/) -->

<svg
   xmlns:dc="http://purl.org/dc/elements/1.1/"
   xmlns:cc="http://creativecommons.org/ns#"
   xmlns:rdf="http://www.w3.org/1999/02/22-rdf-syntax-ns#"
   xmlns:svg="http://www.w3.org/2000/svg"
   xmlns="http://www.w3.org/2000/svg"
   xmlns:xlink="http://www.w3.org/1999/xlink"
   xmlns:sodipodi="http://sodipodi.sourceforge.net/DTD/sodipodi-0.dtd"
   xmlns:inkscape="http://www.inkscape.org/namespaces/inkscape"
   width="256"
   height="256"
   id="svg10914"
   version="1.1"
   inkscape:version="0.48.4 r9939"
   sodipodi:docname="folder2.svg">
  <sodipodi:namedview
     id="base"
     pagecolor="#ffffff"
     bordercolor="#666666"
     borderopacity="1.0"
     inkscape:pageopacity="0.0"
     inkscape:pageshadow="2"
     inkscape:zoom="1.4"
     inkscape:cx="-38.606041"
     inkscape:cy="119.60212"
     inkscape:document-units="px"
     inkscape:current-layer="layer1"
     showgrid="false"
     inkscape:showpageshadow="false"
     inkscape:snap-page="true"
     inkscape:snap-bbox="true"
     inkscape:window-width="1280"
     inkscape:window-height="948"
     inkscape:window-x="0"
     inkscape:window-y="24"
     inkscape:window-maximized="1" />
  <defs
     id="defs10916">
    <clipPath
       id="clip4">
      <path
         d="M 148 97 L 225.625 97 L 225.625 121 L 148 121 Z "
         id="path3044" />
    </clipPath>
    <clipPath
       id="clip3">
      <path
         d="M 171 132 L 225.625 132 L 225.625 156 L 171 156 Z "
         id="path3047" />
    </clipPath>
    <clipPath
       id="clip1">
      <path
         d="M 27.707031 56.824219 L 110 56.824219 L 110 196.511719 L 27.707031 196.511719 Z "
         id="path3050" />
    </clipPath>
    <clipPath
       id="clip2">
      <path
         d="M 74 56.824219 L 203 56.824219 L 203 196.511719 L 74 196.511719 Z "
         id="path3053" />
    </clipPath>
    <linearGradient
       id="linearGradient9879-4"
       inkscape:collect="always">
      <stop
         id="stop9881-6"
         offset="0"
         style="stop-color:#ffffff;stop-opacity:1" />
      <stop
         id="stop9883-2"
         offset="1"
         style="stop-color:#e4e4e1;stop-opacity:1" />
    </linearGradient>
    <radialGradient
       r="12.49998"
       fy="127.7508"
       fx="-170.8718"
       cy="127.7508"
       cx="-170.8718"
       gradientTransform="matrix(1,0,0,1.1280507,0,-15.592641)"
       gradientUnits="userSpaceOnUse"
       id="radialGradient220922"
       xlink:href="#linearGradient9879-4"
       inkscape:collect="always" />
  </defs>
  <metadata
     id="metadata10919">
    <rdf:RDF>
      <cc:Work
         rdf:about="">
        <dc:format>image/svg+xml</dc:format>
        <dc:type
           rdf:resource="http://purl.org/dc/dcmitype/StillImage" />
        <dc:title></dc:title>
      </cc:Work>
    </rdf:RDF>
  </metadata>
  <g
     transform="translate(0,-796.36218)"
     id="layer1"
     inkscape:groupmode="layer"
     inkscape:label="Layer 1">
    <path
       inkscape:connector-curvature="0"
       id="path2991"
       d="M 117.89008,1051.3222 C 96.919962,1047.539 73.99112,1036.992 54.202271,1022.0265 40.843574,1011.9239 25.476415,995.18224 16.852855,981.33654 12.56812,974.45704 7.3231733,963.33591 4.6713571,955.50741 0.71488407,943.82745 -0.0098531,938.19336 1.0037309e-4,919.19365 0.00923201,902.18168 0.02678504,901.98589 2.3223458,893.55064 9.2646297,868.04098 21.121813,848.96896 41.247314,830.94065 57.406247,816.46557 78.58077,806.15131 101.34957,801.66442 c 11.02253,-2.17213 32.07267,-2.70703 44.16903,-1.12236 16.79334,2.19998 34.41511,7.65692 46.29645,14.33664 25.16525,14.14796 49.03102,43.84396 58.28953,72.52923 7.02564,21.76727 7.8063,46.71212 2.15713,68.92858 -12.30007,48.37259 -50.88304,85.98979 -97.09979,94.66929 -8.84667,1.6615 -28.87411,1.8315 -37.27184,0.3164 l 0,0 z m 80.13868,-83.62036 c 1.55917,-1.017 3.22929,-2.8652 3.71136,-4.10718 0.6213,-1.60074 1.02219,-13.38349 1.377,-40.47244 l 0.5005,-38.21429 -2.09568,-3.04667 c -1.15261,-1.67567 -2.82463,-3.51742 -3.71561,-4.09279 -1.89696,-1.22502 -23.29486,-2.47767 -42.59442,-2.49351 -6.62678,-0.006 -12.98631,-0.19908 -14.1323,-0.43032 -1.54064,-0.31087 -2.99137,-1.70689 -5.5671,-5.35714 l -3.4835,-4.93671 -20.49928,0 c -11.2746,0 -25.0025,0.21286 -30.50644,0.47302 -9.773253,0.46196 -10.064785,0.52287 -12.472067,2.60603 -5.201287,4.50095 -4.927429,1.71453 -4.927429,50.13524 0,40.34404 0.09507,43.74288 1.28337,45.88613 1.482307,2.67353 3.924786,4.42733 7.250395,5.20603 1.28547,0.301 29.494531,0.5802 62.686771,0.6204 l 60.34954,0.073 2.83489,-1.8489 0,0 z"
       style="fill:#48d1cc;fill-opacity:1" />
    <path
       style="fill:#48d1cc;fill-opacity:1"
       d="m 110.33125,995.69191 c -29.297746,-0.4163 -44.464234,-0.9726 -46.474864,-1.7047 -1.641543,-0.5977 -3.752099,-2.2374 -4.690123,-3.6438 -1.650716,-2.4749 -1.713613,-4.264 -1.958109,-55.69809 -0.261009,-54.90811 0.170108,-64.83272 2.963412,-68.2196 4.002006,-4.85243 4.234883,-4.88213 41.205814,-5.25579 l 34.53636,-0.34905 4.06537,6.09043 c 4.85379,7.27155 3.45444,6.88738 27.91273,7.66283 25.08485,0.79532 41.63264,2.1951 44.38016,3.75415 1.28541,0.72937 3.5291,2.97761 4.98601,4.99608 l 2.6489,3.66992 -0.87587,45.2496 c -0.48172,24.88722 -1.22751,48.19712 -1.65729,51.79962 -0.71271,5.9742 -1.06664,6.8162 -4.0261,9.5772 l -3.24469,3.0272 -28.14074,-0.169 c -15.47741,-0.093 -47.71135,-0.4471 -71.63097,-0.787 z"
       id="path3229"
       inkscape:connector-curvature="0" />
    <g
       id="layer1-1"
       inkscape:label="Layer 1"
       transform="translate(-65.14286,37.999997)" />
    <g
       inkscape:label="Layer 1"
       id="layer1-5"
       transform="translate(-205,-11.428571)" />
    <g
       inkscape:label="Layer 1"
       id="layer1-3"
       transform="translate(-181.081,32.86978)">
      <path
         style="fill:#fffbfa;fill-opacity:1"
         d="m 254.99801,935.07129 c -4.96319,-0.50743 -7.87441,-1.88016 -9.18643,-4.33169 -1.58402,-2.95977 -2.2755,-19.16413 -1.94987,-45.69382 0.2243,-18.27411 0.59938,-27.4921 1.18035,-29.00869 1.66997,-4.35935 -0.82808,-4.1874 63.92503,-4.40025 38.53786,-0.12668 60.61005,0.0631 63.20818,0.54335 2.80635,0.51878 4.60101,1.34681 6.0418,2.78759 l 2.04959,2.0496 -0.80894,36.87589 -0.80895,36.87589 -2.66312,2.47612 -2.66312,2.47612 -56.78571,-0.0821 c -31.23215,-0.0451 -58.92461,-0.30077 -61.53881,-0.56804 l 0,0 z"
         id="path3125"
         inkscape:connector-curvature="0" />
      <path
         style="fill:#afeeee;fill-opacity:1"
         d="m 378.63599,859.1855 c -1.39725,-1.39725 -3.33933,-2.42045 -5.32052,-2.80315 -4.63506,-0.89534 -118.11767,-0.7946 -122.04863,0.10834 -1.76786,0.40608 -4.09821,1.58336 -5.17857,2.61618 l -1.96429,1.87785 0,-4.30022 c 0,-10.17551 2.73579,-15.96762 8.0055,-16.94893 3.68714,-0.68661 57.25896,-1.89653 57.84897,-1.30652 0.29008,0.29008 2.06838,2.77186 3.95179,5.51505 l 3.42438,4.98763 23.62202,0.43967 c 26.22926,0.48821 32.71138,0.95566 35.17885,2.53692 1.54625,0.99091 5.6252,8.53337 4.96945,9.18912 -0.15868,0.15868 -1.27871,-0.7017 -2.48895,-1.91194 z"
         id="path3427"
         inkscape:connector-curvature="0" />
    </g>
  </g>
</svg>
