<?xml version="1.0" encoding="UTF-8" standalone="no"?>
<!-- Created with Inkscape (http://www.inkscape.org/) -->
<svg id="svg5014" xmlns:rdf="http://www.w3.org/1999/02/22-rdf-syntax-ns#" xmlns="http://www.w3.org/2000/svg" height="32px" width="32px" version="1.1" xmlns:cc="http://creativecommons.org/ns#" xmlns:xlink="http://www.w3.org/1999/xlink" xmlns:dc="http://purl.org/dc/elements/1.1/">
 <defs id="defs5016">
  <linearGradient id="linearGradient3988-5">
   <stop id="stop3990-5" style="stop-color:#ededed" offset="0"/>
   <stop id="stop3992-0" style="stop-color:#fafafa" offset="1"/>
  </linearGradient>
  <linearGradient id="linearGradient3960">
   <stop id="stop3962" style="stop-opacity:0" offset="0"/>
   <stop id="stop3970" offset=".5"/>
   <stop id="stop3964" style="stop-opacity:0" offset="1"/>
  </linearGradient>
  <linearGradient id="linearGradient3952">
   <stop id="stop3954" offset="0"/>
   <stop id="stop3956" style="stop-opacity:0" offset="1"/>
  </linearGradient>
  <radialGradient id="radialGradient5947" xlink:href="#linearGradient3952" gradientUnits="userSpaceOnUse" cy="43.5" cx="9" gradientTransform="matrix(1 0 0 .75 -7 -5.125)" r="2"/>
  <radialGradient id="radialGradient5950" xlink:href="#linearGradient3952" gradientUnits="userSpaceOnUse" cy="43.5" cx="40" gradientTransform="matrix(1 0 0 .75 -10 -5.125)" r="2"/>
  <clipPath id="clipPath4552" clipPathUnits="userSpaceOnUse">
   <rect id="rect4554" style="opacity:.2" rx="0" height="21.098" width="21.098" y="24.01" x="42.892"/>
  </clipPath>
  <linearGradient id="linearGradient6169" y2="18.005" gradientUnits="userSpaceOnUse" x2="-21.478" gradientTransform="matrix(.76923 0 0 .76923 38.615 14.514)" y1="-.80552" x1="-21.478">
   <stop id="stop3864-8-6-6" style="stop-color:#8c166c" offset="0"/>
   <stop id="stop4409-9" style="stop-color:#ca3561" offset=".36207"/>
   <stop id="stop3866-9-1-1" style="stop-color:#f38f4e" offset="1"/>
  </linearGradient>
  <linearGradient id="linearGradient6176" y2="260" gradientUnits="userSpaceOnUse" x2="332" gradientTransform="matrix(0 -1 1 0 -209.13 365.13)" y1="260" x1="324">
   <stop id="stop4096-0" style="stop-color:#e28192" offset="0"/>
   <stop id="stop4317-3" style="stop-color:#f7d6c7" offset=".25862"/>
   <stop id="stop4098-7" style="stop-color:#fffee4" offset="1"/>
  </linearGradient>
  <radialGradient id="radialGradient6223" gradientUnits="userSpaceOnUse" cy="12.115" cx="10.652" gradientTransform="matrix(2.5334 0 0 1.5233 -.33338 8.6992)" r="8">
   <stop id="stop7252" style="stop-color:#fff" offset="0"/>
   <stop id="stop7254" style="stop-color:#eeeeec" offset="1"/>
  </radialGradient>
  <linearGradient id="linearGradient6278" y2="42" xlink:href="#linearGradient3960" gradientUnits="userSpaceOnUse" x2="25" gradientTransform="matrix(1.2727 0 0 1 -9.4545 -16)" y1="45" x1="25"/>
  <linearGradient id="linearGradient6284" y2="35.51" xlink:href="#linearGradient3988-5" gradientUnits="userSpaceOnUse" x2="146.86" gradientTransform="matrix(0 .12419 -.12564 0 4.4616 -34.239)" y1="290.2" x1="146.86"/>
  <radialGradient id="radialGradient6342" xlink:href="#linearGradient3952" gradientUnits="userSpaceOnUse" cy="43.5" cx="9" gradientTransform="matrix(1 0 0 .75 8 -2.125)" r="2"/>
  <radialGradient id="radialGradient6345" xlink:href="#linearGradient3952" gradientUnits="userSpaceOnUse" cy="43.5" cx="40" gradientTransform="matrix(1 0 0 .75 -10 -2.125)" r="2"/>
  <linearGradient id="linearGradient6348" y2="42" xlink:href="#linearGradient3960" gradientUnits="userSpaceOnUse" x2="25" gradientTransform="matrix(.59091 0 0 1 11.682 -13)" y1="45" x1="25"/>
 </defs>
 <metadata id="metadata5019">
  <rdf:RDF>
   <cc:Work rdf:about="">
    <dc:format>image/svg+xml</dc:format>
    <dc:type rdf:resource="http://purl.org/dc/dcmitype/StillImage"/>
    <dc:title/>
   </cc:Work>
  </rdf:RDF>
 </metadata>
 <g id="layer1">
  <g id="g6258" transform="matrix(.92769 .16358 -.16358 .92769 3.9362 -1.9688)">
   <g id="g6260">
    <rect id="rect6262" style="opacity:.4;fill:url(#linearGradient6278)" height="3" width="28" y="26" x="2"/>
    <path id="path6264" d="m30 26v3h0.5c0.831 0 1.5-0.669 1.5-1.5s-0.669-1.5-1.5-1.5h-0.5z" style="opacity:.4;fill:url(#radialGradient5950)"/>
    <path id="path6266" d="m1.4062 26c-0.77901 0-1.4062 0.627-1.4062 1.406v0.1875c0 0.779 0.62719 1.406 1.4062 1.406h0.5938v-3h-0.5938z" style="opacity:.4;fill:url(#radialGradient5947)"/>
   </g>
   <rect id="rect6268" style="opacity:0.41;stroke-linejoin:round;stroke-width:2;color:#bebebe;stroke:#000;fill:none" transform="matrix(0,-1,-1,0,0,0)" ry="0" height="28" width="22" y="-30" x="-27"/>
   <rect id="rect6270" ry="0" style="color:#bebebe;fill:url(#linearGradient6284)" transform="matrix(0,-1,-1,0,0,0)" height="28" width="22" y="-30" x="-27"/>
   <path id="path6272" style="opacity:.4;color:#bebebe;fill:#fff" d="m30 5h-28v22h28v-22zm-1 1v20h-26v-20h26z"/>
   <path id="path6274" style="opacity:.4;color:#bebebe;fill:#fff" d="m2 5v1h1.2727 25.454 1.273v-1h-28z"/>
   <path id="path6276" d="m3.5 7.8749 8.7501 8.2618-8.1251 7.9883 8.6133-7.5782 2.8517 2.4219 0.41 0.35126 0.41-0.35126 2.8517-2.4219 8.6133 7.5782l-8.125-7.988 8.75-8.2621-12.5 9.8051z" style="opacity:.4;block-progression:tb;text-indent:0;color:#000000;text-transform:none"/>
  </g>
  <g id="g5955">
   <rect id="rect3938" style="opacity:.4;fill:url(#linearGradient6278)" height="3" width="28" y="26" x="2"/>
   <path id="rect3940" d="m30 26v3h0.5c0.831 0 1.5-0.669 1.5-1.5s-0.669-1.5-1.5-1.5h-0.5z" style="opacity:.4;fill:url(#radialGradient5950)"/>
   <path id="rect3942" d="m1.4062 26c-0.77901 0-1.4062 0.627-1.4062 1.406v0.1875c0 0.779 0.62719 1.406 1.4062 1.406h0.5938v-3h-0.5938z" style="opacity:.4;fill:url(#radialGradient5947)"/>
  </g>
  <rect id="rect5133" style="opacity:0.41;stroke-linejoin:round;stroke-width:2;color:#bebebe;stroke:#000;fill:none" transform="matrix(0,-1,-1,0,0,0)" ry="0" height="28" width="22" y="-30" x="-27"/>
  <rect id="rect3882" ry="0" style="color:#bebebe;fill:url(#linearGradient6284)" transform="matrix(0,-1,-1,0,0,0)" height="28" width="22" y="-30" x="-27"/>
  <path id="rect5903" style="opacity:.4;color:#bebebe;fill:#fff" d="m30 5h-28v22h28v-22zm-1 1v20h-26v-20h26z"/>
  <path id="path5908" style="opacity:.4;color:#bebebe;fill:#fff" d="m2 5v1h1.2727 25.454 1.273v-1h-28z"/>
  <path id="path3886" d="m3.5 7.8749 8.7501 8.2618-8.1251 7.9883 8.6133-7.5782 2.8517 2.4219 0.41 0.35126 0.41-0.35126 2.8517-2.4219 8.6133 7.5782l-8.125-7.988 8.75-8.2621-12.5 9.8051z" style="opacity:.4;block-progression:tb;text-indent:0;color:#000000;text-transform:none"/>
 </g>
 <g id="layer2">
  <g id="g6350">
   <rect id="rect6305" style="opacity:.2;fill:url(#linearGradient6348)" height="3" width="13" y="29" x="17"/>
   <path id="path6307" style="opacity:.2;fill:url(#radialGradient6345)" d="m30 29v3h0.5c0.831 0 1.5-0.669 1.5-1.5s-0.669-1.5-1.5-1.5h-0.5z"/>
   <path id="path6309" style="opacity:.2;fill:url(#radialGradient6342)" d="m16.406 29c-0.779 0-1.406 0.627-1.406 1.406v0.1875c0 0.779 0.627 1.406 1.406 1.406h0.594v-3h-0.59375z"/>
  </g>
  <path id="path7059" style="fill:url(#radialGradient6223)" d="m16.5 15.5v3h0.5625c0.24484 0 0.4375 0.19266 0.4375 0.4375v1.125c0 0.24484-0.19266 0.4375-0.4375 0.4375h-0.5625v2h0.5625c0.24484 0 0.4375 0.19266 0.4375 0.4375v1.125c0 0.24484-0.19266 0.4375-0.4375 0.4375h-0.5625v2h0.5625c0.24484 0 0.4375 0.19266 0.4375 0.4375v1.125c0 0.24484-0.19266 0.4375-0.4375 0.4375h-0.5625v2h2v-0.5625c0-0.245 0.193-0.438 0.438-0.438h1.125c0.24484 0 0.4375 0.19266 0.4375 0.4375v0.5625h2v-0.5625c0-0.245 0.193-0.438 0.438-0.438h1.125c0.24484 0 0.4375 0.19266 0.4375 0.4375v0.5625h2v-0.5625c0-0.245 0.193-0.438 0.438-0.438h1.125c0.24484 0 0.4375 0.19266 0.4375 0.4375v0.5625h3v-3h-0.5625c-0.245 0-0.438-0.193-0.438-0.437v-1.125c0-0.24484 0.19266-0.4375 0.4375-0.4375h0.5625v-2h-0.5625c-0.24484 0-0.4375-0.19266-0.4375-0.4375v-1.125c0-0.24484 0.19266-0.4375 0.4375-0.4375h0.5625v-2h-0.5625c-0.24484 0-0.4375-0.19266-0.4375-0.4375v-1.125c0-0.24484 0.19266-0.4375 0.4375-0.4375h0.5625v-2h-2v0.5625c0 0.24484-0.19266 0.4375-0.4375 0.4375h-1.125c-0.24484 0-0.4375-0.19266-0.4375-0.4375v-0.5625h-2v0.5625c0 0.24484-0.19266 0.4375-0.4375 0.4375h-1.125c-0.24484 0-0.4375-0.19266-0.4375-0.4375v-0.5625h-2v0.5625c0 0.24484-0.19266 0.4375-0.4375 0.4375h-1.125c-0.24484 0-0.4375-0.19266-0.4375-0.4375v-0.5625h-3z"/>
  <rect id="rect6372" style="fill:url(#linearGradient6169)" rx=".71429" ry=".71429" height="9.976" width="10" y="18" x="19"/>
  <path id="rect6227" style="opacity:.1" d="m19.719 18c-0.396 0-0.719 0.323-0.719 0.719v8.531c0 0.39571 0.32304 0.71875 0.71875 0.71875h8.5625c0.395 0 0.718-0.323 0.718-0.719v-8.5312c0-0.396-0.323-0.719-0.719-0.719zm0.3125 1.0312h0.5 6.9688 0.5v0.5 7 0.5h-0.5-6.9688-0.5v-0.5-7z"/>
  <rect id="rect7218" style="opacity:.2;stroke-dashoffset:.7;stroke:#fff;stroke-linecap:round;fill:none" height="7.0073" width="6.97" y="19.532" x="20.518"/>
  <g id="g4528" clip-path="url(#clipPath4552)" transform="matrix(.37919 0 0 .37919 3.736 9.8955)">
   <path id="path4090" d="m50.867 30.125c-3.8305 0-7 3.1695-7 7s3.1695 7 7 7 7-3.1695 7-7-3.1695-7-7-7zm0 6c0.58782 0 1 0.41218 1 1s-0.41218 1-1 1-1-0.41218-1-1 0.41218-1 1-1z" style="opacity:.1;block-progression:tb;text-indent:0;color:#000000;enable-background:new;text-transform:none;fill:#fed8cd"/>
   <path id="path4088" d="m50.867 31.125c-3.29 0-6 2.71-6 6s2.71 6 6 6 6-2.71 6-6-2.71-6-6-6zm0 4c1.1283 0 2 0.87174 2 2s-0.87174 2-2 2-2-0.87174-2-2 0.87174-2 2-2z" style="opacity:.1;block-progression:tb;text-indent:0;color:#000000;enable-background:new;text-transform:none;fill:#fed8cd"/>
   <path id="path4086" d="m50.867 32.125c-2.7496 0-5 2.2504-5 5s2.2504 5 5 5 5-2.2504 5-5-2.2504-5-5-5zm0 2c1.6687 0 3 1.3313 3 3s-1.3313 3-3 3-3-1.3313-3-3 1.3313-3 3-3z" style="opacity:.1;block-progression:tb;text-indent:0;color:#000000;enable-background:new;text-transform:none;fill:#fed8cd"/>
   <path id="path4082" d="m50.867 33.125c2.2091 0 4 1.7909 4 4s-1.7909 4-4 4-4-1.7909-4-4 1.7909-4 4-4z" style="color:#000000;fill-rule:evenodd;enable-background:new;fill:url(#linearGradient6176)"/>
   <path id="path4084" d="m42.625 42.125v-1s2.5239-1.6666 3.2335-1.812 1.5476-0.027 2.4088 0.1355c0.86124 0.162 2.147 0.3811 2.5483 0.3948 0.40129 0.014 1.1275-0.035 1.9712-0.086 0.84374-0.05 2.2408-0.096 2.6765-0.091 0.43575 0 1.5236 0.06 2.6832 0.1308 1.1596 0.071 2.7523 0.1896 3.1136 0.2228 0.36137 0.033 0.78614 0.094 1.2682 0.1605 0.48204 0.066 1.3166 0.1657 1.6118 0.1931 0.29522 0.027 0.97966 0.1211 1.7738 0.1942 0.79414 0.073 2.065 0.098 2.432 0.071 0.36701-0.027 1.1363-0.2988 1.9936-0.5493 0.85728-0.2504 1.8026-0.4797 2.5216-0.423 0.71903 0.057 4.7639 1.4585 4.7639 1.4585v1h-5.25-4.25-4.25-4.25-4.25-4.25-4.25z"/>
   <path id="path4092" style="opacity:.9" d="m42.625 42.125v0.6525s2.5239 1.0873 3.2335 1.1822c0.7096 0.095 1.5476 0.018 2.4088-0.088 0.86124-0.1057 2.147-0.2487 2.5483-0.2576 0.40129-0.01 1.1275 0.023 1.9712 0.056 0.84374 0.033 2.2408 0.063 2.6765 0.059 0.43575 0 1.5236-0.039 2.6832-0.085s2.7523-0.1237 3.1136-0.1453c0.36137-0.022 0.78614-0.061 1.2682-0.1048 0.48204-0.043 1.3166-0.108 1.6118-0.1259 0.29522-0.018 0.97966-0.079 1.7738-0.1268 0.79414-0.048 2.065-0.064 2.432-0.046 0.36701 0.018 1.1363 0.195 1.9936 0.3584 0.85728 0.1634 1.8026 0.313 2.5216 0.276 0.71903-0.037 4.7639-0.9516 4.7639-0.9516v-0.6524h-5.25-4.25-4.25-4.25-4.25-4.25-4.25z"/>
   <path id="rect4102" d="m42.625 42.125h35v3h-35z" style="opacity:.3;color:#000000;enable-background:new;fill:#4d585e"/>
  </g>
  <path id="path4590" style="opacity:.8;fill:#fff" d="m24.609 20.047c-0.15676 0.000001-0.28522 0.02948-0.39062 0.07813-0.1045 0.04865-0.20467 0.11996-0.28125 0.23438l0.3125 0.21875c0.03514-0.05315 0.08747-0.10188 0.14062-0.14062s0.11934-0.04688 0.20312-0.04688c0.07748 0.000002 0.12773 0.01264 0.17188 0.04688 0.04414 0.03424 0.07812 0.08207 0.07813 0.14062 0 0.07478-0.02557 0.15028-0.0625 0.21875-0.03604 0.06757-0.09049 0.12835-0.15625 0.20312-0.06577 0.07387-0.16053 0.16864-0.28125 0.28125s-0.24378 0.23595-0.39062 0.35938v0.3125h1.3438v-0.34375h-0.84375c0.02792-0.02072 0.09893-0.0848 0.21875-0.1875 0.12072-0.1027 0.23232-0.19656 0.3125-0.28125 0.08108-0.08559 0.14426-0.17553 0.1875-0.26562 0.04414-0.09099 0.0625-0.19268 0.0625-0.3125 0-0.16306-0.06016-0.28491-0.17188-0.375-0.11081-0.09009-0.26033-0.14062-0.45312-0.14062zm1.6406 0c-0.20631 0.000001-0.36906 0.03851-0.48438 0.125s-0.17188 0.22576-0.17188 0.39062c0 0.08198 0.02858 0.14758 0.07813 0.21875 0.05045 0.07027 0.11785 0.13795 0.21875 0.1875-0.10541 0.04775-0.18694 0.10462-0.25 0.1875-0.06216 0.08288-0.09375 0.18606-0.09375 0.29688 0 0.18108 0.06498 0.31436 0.1875 0.40625 0.123 0.09 0.294 0.14 0.516 0.14 0.22432 0 0.3958-0.04513 0.51562-0.14062 0.12072-0.09549 0.17187-0.23328 0.17188-0.40625 0-0.07027-0.0051-0.13074-0.03125-0.1875-0.02522-0.05675-0.05983-0.1121-0.10938-0.15625s-0.13077-0.09017-0.23438-0.14062c0.08648-0.04774 0.14516-0.08626 0.1875-0.125s0.08324-0.09287 0.10938-0.14062c0.02702-0.04775 0.04688-0.10039 0.04688-0.15625-0.000003-0.16847-0.07038-0.29122-0.1875-0.375s-0.26786-0.125-0.46876-0.125zm0 0.29688c0.1 0.000002 0.1755 0.02196 0.21875 0.0625 0.04324 0.04054 0.0625 0.09679 0.0625 0.15625 0 0.04594-0.02196 0.08085-0.0625 0.125s-0.11334 0.09468-0.21875 0.14062c-0.06847-0.02702-0.12953-0.06312-0.17188-0.09375-0.04145-0.03153-0.07574-0.0502-0.09375-0.07813-0.01802-0.02792-0.01562-0.06883-0.01562-0.10938 0-0.05405 0.02196-0.10008 0.0625-0.14062s0.11154-0.0625 0.21875-0.0625zm0 0.76562c0.10721 0.05045 0.18302 0.1049 0.23438 0.15625 0.05225 0.05135 0.07812 0.11002 0.07813 0.1875 0 0.06847-0.02768 0.12503-0.07813 0.17188-0.04955 0.04684-0.12356 0.0625-0.23438 0.0625-0.11081 0-0.19955-0.01745-0.25-0.0625-0.05045-0.04504-0.07813-0.1016-0.07813-0.17188 0-0.07928 0.02948-0.13615 0.07813-0.1875s0.13558-0.1058 0.25-0.15625z"/>
  <path id="path6225" d="m16.5 15.5v3h0.5625c0.24484 0 0.4375 0.19266 0.4375 0.4375v1.125c0 0.24484-0.19266 0.4375-0.4375 0.4375h-0.5625v2h0.5625c0.24484 0 0.4375 0.19266 0.4375 0.4375v1.125c0 0.24484-0.19266 0.4375-0.4375 0.4375h-0.5625v2h0.5625c0.24484 0 0.4375 0.19266 0.4375 0.4375v1.125c0 0.24484-0.19266 0.4375-0.4375 0.4375h-0.5625v2h2v-0.5625c0-0.245 0.193-0.438 0.438-0.438h1.125c0.24484 0 0.4375 0.19266 0.4375 0.4375v0.5625h2v-0.5625c0-0.245 0.193-0.438 0.438-0.438h1.125c0.24484 0 0.4375 0.19266 0.4375 0.4375v0.5625h2v-0.5625c0-0.245 0.193-0.438 0.438-0.438h1.125c0.24484 0 0.4375 0.19266 0.4375 0.4375v0.5625h3v-3h-0.5625c-0.245 0-0.438-0.193-0.438-0.437v-1.125c0-0.24484 0.19266-0.4375 0.4375-0.4375h0.5625v-2h-0.5625c-0.24484 0-0.4375-0.19266-0.4375-0.4375v-1.125c0-0.24484 0.19266-0.4375 0.4375-0.4375h0.5625v-2h-0.5625c-0.24484 0-0.4375-0.19266-0.4375-0.4375v-1.125c0-0.24484 0.19266-0.4375 0.4375-0.4375h0.5625v-2h-2v0.5625c0 0.24484-0.19266 0.4375-0.4375 0.4375h-1.125c-0.24484 0-0.4375-0.19266-0.4375-0.4375v-0.5625h-2v0.5625c0 0.24484-0.19266 0.4375-0.4375 0.4375h-1.125c-0.24484 0-0.4375-0.19266-0.4375-0.4375v-0.5625h-2v0.5625c0 0.24484-0.19266 0.4375-0.4375 0.4375h-1.125c-0.24484 0-0.4375-0.19266-0.4375-0.4375v-0.5625h-3z" style="opacity:0.41;stroke-dashoffset:.7;stroke:#000;stroke-linecap:round;fill:none"/>
  <path id="rect6229" style="opacity:.1;block-progression:tb;text-indent:0;color:#000000;text-transform:none;fill:#fff" d="m20.016 19v0.5 7 0.5h0.5 6.9688 0.5v-0.5-7-0.5h-0.5-6.9688-0.5zm1 1h5.9688v6h-5.9688v-6z"/>
 </g>
</svg>
