<?xml version="1.0" encoding="UTF-8" standalone="no"?>
<!-- Created with Inkscape (http://www.inkscape.org/) -->
<svg id="svg4248" xmlns:rdf="http://www.w3.org/1999/02/22-rdf-syntax-ns#" xmlns="http://www.w3.org/2000/svg" height="32" width="32" version="1.1" xmlns:cc="http://creativecommons.org/ns#" xmlns:xlink="http://www.w3.org/1999/xlink" xmlns:dc="http://purl.org/dc/elements/1.1/">
 <defs id="defs4250">
  <linearGradient id="linearGradient3921" y2="42" gradientUnits="userSpaceOnUse" x2="25" gradientTransform="translate(-7 -14)" y1="45" x1="25">
   <stop id="stop3962" style="stop-opacity:0" offset="0"/>
   <stop id="stop3970" offset=".5"/>
   <stop id="stop3964" style="stop-opacity:0" offset="1"/>
  </linearGradient>
  <radialGradient id="radialGradient3924" gradientUnits="userSpaceOnUse" cy="43.5" cx="9" gradientTransform="matrix(1 0 0 .75 -6 -3.125)" r="2">
   <stop id="stop3946" offset="0"/>
   <stop id="stop3948" style="stop-opacity:0" offset="1"/>
  </radialGradient>
  <radialGradient id="radialGradient3927" gradientUnits="userSpaceOnUse" cy="43.5" cx="40" gradientTransform="matrix(1 0 0 .75 -11 -3.125)" r="2">
   <stop id="stop3954" offset="0"/>
   <stop id="stop3956" style="stop-opacity:0" offset="1"/>
  </radialGradient>
  <linearGradient id="linearGradient3849" y2="16" gradientUnits="userSpaceOnUse" x2="29.5" gradientTransform="matrix(0,-1,1,0,0,32)" y1="16" x1="2.5">
   <stop id="stop5620" style="stop-color:#3e3e3e" offset="0"/>
   <stop id="stop5622" style="stop-color:#595959" offset="1"/>
  </linearGradient>
  <linearGradient id="linearGradient3857" y2="16" gradientUnits="userSpaceOnUse" x2="29" gradientTransform="matrix(0,1,-1,0,32,0)" y1="16" x1="3">
   <stop id="stop3853" style="stop-color:#fff" offset="0"/>
   <stop id="stop3855" style="stop-color:#fff;stop-opacity:0" offset="1"/>
  </linearGradient>
 </defs>
 <metadata id="metadata4253">
  <rdf:RDF>
   <cc:Work rdf:about="">
    <dc:format>image/svg+xml</dc:format>
    <dc:type rdf:resource="http://purl.org/dc/dcmitype/StillImage"/>
    <dc:title/>
   </cc:Work>
  </rdf:RDF>
 </metadata>
 <g id="layer1">
  <g id="g3930">
   <path id="rect3940" d="m29 28v3h0.5c0.831 0 1.5-0.669 1.5-1.5s-0.669-1.5-1.5-1.5h-0.5z" style="opacity:.3;fill:url(#radialGradient3927)"/>
   <path id="rect3942" d="m2.4062 28c-0.779 0-1.4062 0.627-1.4062 1.406v0.1875c0 0.77906 0.62719 1.4062 1.4062 1.4062h0.59375v-3h-0.59375z" style="opacity:.3;fill:url(#radialGradient3924)"/>
   <path id="rect3938" d="m2.9999 28h26v3l-26-0.000001z" style="opacity:.3;fill:url(#linearGradient3921)"/>
  </g>
  <path id="rect3894" style="fill:url(#linearGradient3849);fill-rule:evenodd" d="m4 2.5c-0.8218 0-1.5 0.6782-1.5 1.5v24c0 0.822 0.6782 1.5 1.5 1.5h24c0.822 0 1.5-0.678 1.5-1.5v-24c0-0.8218-0.678-1.5-1.5-1.5h-24z"/>
  <path id="path3951" style="opacity:.1;fill:url(#linearGradient3857);fill-rule:evenodd" d="m29 4c0-0.5626-0.437-1-1-1h-24c-0.5626 0-1 0.4374-1 1v24c0 0.56265 0.43735 1 1 1h24c0.56265 0 1-0.43735 1-1v-24zm-1 0v24h-24v-24h24z"/>
  <path id="path3906" style="opacity:.81;stroke:#000;fill:none" transform="rotate(-90)" d="m-28 2.5h24c0.831 0 1.5 0.669 1.5 1.5v24c0 0.831-0.669 1.5-1.5 1.5h-24c-0.831 0-1.5-0.669-1.5-1.5v-24c0-0.831 0.669-1.5 1.5-1.5z"/>
  <path id="path3935" style="opacity:.15;fill:#fff;fill-rule:evenodd" d="m4 3c-0.5626 0-1 0.4374-1 1v1c0-0.5626 0.4374-1 1-1h24c0.563 0 1 0.4374 1 1v-1c0-0.5626-0.437-1-1-1h-24z"/>
  <path id="path3949" style="opacity:.1;fill:#fff;fill-rule:evenodd" d="m4 29c-0.5626 0-1-0.437-1-1v-1c0 0.56265 0.43735 1 1 1h24c0.56265 0 1-0.43735 1-1v1c0 0.56265-0.43735 1-1 1h-24z"/>
 </g>
 <g id="layer2">
  <g id="g4091" style="opacity:.2;enable-background:new" transform="matrix(.5 0 0 .5 -142.51 -107)">
   <rect id="rect4093" style="color:#bebebe;enable-background:accumulate" height="2" width="12" y="242" x="307"/>
   <g id="g4095" style="enable-background:new">
    <path id="path4097-7" d="m299.08 227.18h2.0169v1.1413c0.55749 0.11153 1.0724 0.32794 1.5446 0.64933 0.47878 0.31483 0.91167 0.70508 1.2986 1.1708l-1.1904 1.5053s-0.35663-0.45079-0.52144-0.65913c-0.13119-0.15085-0.30828-0.29842-0.53127-0.44272-0.21645-0.14428-0.44929-0.24595-0.69852-0.30499v2.9613c0.53126 0.17054 1.0002 0.36074 1.4069 0.57063 0.40664 0.20989 0.74442 0.45257 1.0134 0.72803 0.27546 0.27548 0.48206 0.58703 0.61981 0.93464 0.13772 0.34107 0.20659 0.73131 0.2066 1.1708-0.00001 0.41321-0.0721 0.81002-0.21644 1.1904-0.1443 0.37386-0.35418 0.71492-0.62966 1.0232-0.26891 0.30827-0.59686 0.5739-0.98383 0.7969-0.38698 0.223-0.82641 0.3837-1.3183 0.48208v1.0822h-2.0169v-1.0232c-0.61653-0.105-1.2101-0.31155-1.7807-0.61982-0.57062-0.30826-1.0789-0.70836-1.5249-1.2003l1.2298-1.7315 0.57066 0.70836c0.22301 0.24268 0.45911 0.44928 0.70836 0.61981 0.25579 0.17053 0.55422 0.29188 0.89528 0.36402v-3.6008c-0.47879-0.17709-0.9084-0.37386-1.2888-0.5903-0.37386-0.21644-0.69197-0.45584-0.95432-0.71819-0.25579-0.26892-0.45256-0.56406-0.5903-0.88545-0.13773-0.32794-0.2066-0.6854-0.2066-1.0724 0-0.36728 0.0688-0.71818 0.2066-1.0527 0.13774-0.33449 0.33451-0.6362 0.5903-0.90511 0.2558-0.26891 0.56407-0.49847 0.92481-0.68869 0.36729-0.19675 0.77394-0.34105 1.2199-0.43288v-1.1708m1.9185 10.999c0.35417-0.12462 0.63948-0.3017 0.85593-0.53127 0.22299-0.22956 0.33449-0.53455 0.3345-0.91496-0.00001-0.31482-0.0984-0.5903-0.29515-0.82643-0.19021-0.23611-0.48864-0.42632-0.89528-0.57061v2.8433m-1.8201-7.9592c-0.27547 0.0721-0.49848 0.20005-0.66899 0.38369-0.17055 0.18366-0.25581 0.41978-0.25581 0.70836 0 0.20989 0.0688 0.42633 0.20661 0.64933 0.13773 0.22301 0.37713 0.39354 0.71819 0.51159v-2.253"/>
   </g>
  </g>
  <g id="g4030" style="enable-background:new;fill:#fff" transform="matrix(.5 0 0 .5 -142.51 -108)">
   <rect id="rect4032" style="color:#bebebe;enable-background:accumulate;fill:#fff" height="2" width="12" y="242" x="307"/>
   <g id="g4034" style="enable-background:new;fill:#fff">
    <path id="path4036" d="m299.08 227.18h2.0169v1.1413c0.55749 0.11153 1.0724 0.32794 1.5446 0.64933 0.47878 0.31483 0.91167 0.70508 1.2986 1.1708l-1.1904 1.5053s-0.35663-0.45079-0.52144-0.65913c-0.13119-0.15085-0.30828-0.29842-0.53127-0.44272-0.21645-0.14428-0.44929-0.24595-0.69852-0.30499v2.9613c0.53126 0.17054 1.0002 0.36074 1.4069 0.57063 0.40664 0.20989 0.74442 0.45257 1.0134 0.72803 0.27546 0.27548 0.48206 0.58703 0.61981 0.93464 0.13772 0.34107 0.20659 0.73131 0.2066 1.1708-0.00001 0.41321-0.0721 0.81002-0.21644 1.1904-0.1443 0.37386-0.35418 0.71492-0.62966 1.0232-0.26891 0.30827-0.59686 0.5739-0.98383 0.7969-0.38698 0.223-0.82641 0.3837-1.3183 0.48208v1.0822h-2.0169v-1.0232c-0.61653-0.105-1.2101-0.31155-1.7807-0.61982-0.57062-0.30826-1.0789-0.70836-1.5249-1.2003l1.2298-1.7315 0.57066 0.70836c0.22301 0.24268 0.45911 0.44928 0.70836 0.61981 0.25579 0.17053 0.55422 0.29188 0.89528 0.36402v-3.6008c-0.47879-0.17709-0.9084-0.37386-1.2888-0.5903-0.37386-0.21644-0.69197-0.45584-0.95432-0.71819-0.25579-0.26892-0.45256-0.56406-0.5903-0.88545-0.13773-0.32794-0.2066-0.6854-0.2066-1.0724 0-0.36728 0.0688-0.71818 0.2066-1.0527 0.13774-0.33449 0.33451-0.6362 0.5903-0.90511 0.2558-0.26891 0.56407-0.49847 0.92481-0.68869 0.36729-0.19675 0.77394-0.34105 1.2199-0.43288v-1.1708m1.9185 10.999c0.35417-0.12462 0.63948-0.3017 0.85593-0.53127 0.22299-0.22956 0.33449-0.53455 0.3345-0.91496-0.00001-0.31482-0.0984-0.5903-0.29515-0.82643-0.19021-0.23611-0.48864-0.42632-0.89528-0.57061v2.8433m-1.8201-7.9592c-0.27547 0.0721-0.49848 0.20005-0.66899 0.38369-0.17055 0.18366-0.25581 0.41978-0.25581 0.70836 0 0.20989 0.0688 0.42633 0.20661 0.64933 0.13773 0.22301 0.37713 0.39354 0.71819 0.51159v-2.253" style="fill:#fff"/>
   </g>
  </g>
 </g>
</svg>
