<?xml version="1.0" encoding="UTF-8" standalone="no"?>
<svg id="svg2" xmlns:rdf="http://www.w3.org/1999/02/22-rdf-syntax-ns#" xmlns="http://www.w3.org/2000/svg" height="48" width="48" version="1.1" xmlns:cc="http://creativecommons.org/ns#" xmlns:dc="http://purl.org/dc/elements/1.1/">
 <metadata id="metadata90">
  <rdf:RDF>
   <cc:Work rdf:about="">
    <dc:format>image/svg+xml</dc:format>
    <dc:type rdf:resource="http://purl.org/dc/dcmitype/StillImage"/>
    <dc:title>Faba Symbolic Icon Theme</dc:title>
   </cc:Work>
  </rdf:RDF>
 </metadata>
 <title id="title8473">Faba Symbolic Icon Theme</title>
 <g id="layer9" transform="translate(-241 -185)">
  <flowRoot id="flowRoot6246" letter-spacing="0" transform="translate(241 265)" font-size="40" word-spacing="0" style="font-size:40px;letter-spacing:0;word-spacing:0;font-family:Andron Freefont LAT;line-height:125%;fill:#000000" line-height="125%">
   <flowRegion id="flowRegion6248">
    <rect id="rect6251" y="-838" width="44" x="-76" height="50"/>
   </flowRegion>
   <flowPara id="flowPara6253">Mok</flowPara>
  </flowRoot>
  <flowRoot id="flowRoot6255" letter-spacing="0" transform="translate(241 265)" font-size="40" word-spacing="0" style="font-size:40px;letter-spacing:0;word-spacing:0;font-family:Andron Freefont LAT;line-height:125%;fill:#000000" line-height="125%">
   <flowRegion id="flowRegion6257">
    <rect id="rect6259" y="-752" width="545" x="-179" height="68"/>
   </flowRegion>
   <flowPara id="flowPara6261"/>
  </flowRoot>
  <text id="text4987" letter-spacing="0" font-size="12" line-height="125%" word-spacing="0" style="font-size:12px;letter-spacing:0;text-anchor:middle;word-spacing:0;font-family:Roboto;line-height:125%;text-align:center" y="-247.375" x="511.12521" text-align="center">
   <tspan id="tspan4989" x="511.12521" y="-247.375"/>
  </text>
  <g id="g3177" transform="matrix(2 0 0 2 -357 1011)">
   <path id="path3179" style="opacity:.35;fill:#fff" d="m308-404v8h6v-8z"/>
   <rect id="rect3181" style="color:#dddddd;fill:none" transform="rotate(90)" height="24" width="24" y="-323" x="-413"/>
   <path id="path3183" d="m309-408v1h4v-1zm-2.1562 2c-0.28125 0.0469-0.84375 0.25-0.84375 1v10c0 1 1 1 1 1h8c1 0 1-1 1-1v-10s0-1-1-1h-8s-0.0625-0.0156-0.15625 0zm0.15625 1h8v10h-8zm1 5v4h6v-4z" style="fill:#fff"/>
  </g>
 </g>
</svg>
