<?xml version="1.0" encoding="UTF-8" standalone="no"?>
<svg id="svg2" xmlns:rdf="http://www.w3.org/1999/02/22-rdf-syntax-ns#" xmlns="http://www.w3.org/2000/svg" height="48" width="48" version="1.1" xmlns:cc="http://creativecommons.org/ns#" xmlns:dc="http://purl.org/dc/elements/1.1/">
 <metadata id="metadata90">
  <rdf:RDF>
   <cc:Work rdf:about="">
    <dc:format>image/svg+xml</dc:format>
    <dc:type rdf:resource="http://purl.org/dc/dcmitype/StillImage"/>
    <dc:title>Faba Symbolic Icon Theme</dc:title>
   </cc:Work>
  </rdf:RDF>
 </metadata>
 <title id="title8473">Faba Symbolic Icon Theme</title>
 <g id="layer9" transform="translate(-241 -185)">
  <flowRoot id="flowRoot6246" letter-spacing="0" transform="translate(241 265)" font-size="40" word-spacing="0" style="font-size:40px;letter-spacing:0;word-spacing:0;font-family:Andron Freefont LAT;line-height:125%;fill:#000000" line-height="125%">
   <flowRegion id="flowRegion6248">
    <rect id="rect6251" y="-838" width="44" x="-76" height="50"/>
   </flowRegion>
   <flowPara id="flowPara6253">Mok</flowPara>
  </flowRoot>
  <flowRoot id="flowRoot6255" letter-spacing="0" transform="translate(241 265)" font-size="40" word-spacing="0" style="font-size:40px;letter-spacing:0;word-spacing:0;font-family:Andron Freefont LAT;line-height:125%;fill:#000000" line-height="125%">
   <flowRegion id="flowRegion6257">
    <rect id="rect6259" y="-752" width="545" x="-179" height="68"/>
   </flowRegion>
   <flowPara id="flowPara6261"/>
  </flowRoot>
  <text id="text4987" letter-spacing="0" font-size="12" line-height="125%" word-spacing="0" style="font-size:12px;letter-spacing:0;text-anchor:middle;word-spacing:0;font-family:Roboto;line-height:125%;text-align:center" y="-247.375" x="511.12521" text-align="center">
   <tspan id="tspan4989" x="511.12521" y="-247.375"/>
  </text>
  <path id="path3169" style="opacity:.35;fill:#e13f2b" d="m259 203v16h12v-16z"/>
  <path id="path3173" d="m261 195v2h8v-2zm-4.3125 4c-0.5625 0.0938-1.6875 0.5-1.6875 2v20c0 2 2 2 2 2h16c2 0 2-2 2-2v-20s0-2-2-2h-16s-0.125-0.0312-0.3125 0zm0.3125 2h16v20h-16z" style="fill:#fff"/>
  <path id="path3175" style="fill:#e13f2b" d="m259 215v4h12v-4z"/>
 </g>
</svg>
