<?xml version="1.0" encoding="UTF-8" standalone="no"?>
<!-- Created with Inkscape (http://www.inkscape.org/) -->
<svg id="svg3759" xmlns:rdf="http://www.w3.org/1999/02/22-rdf-syntax-ns#" xmlns="http://www.w3.org/2000/svg" height="48" width="48" version="1.1" xmlns:cc="http://creativecommons.org/ns#" xmlns:xlink="http://www.w3.org/1999/xlink" xmlns:dc="http://purl.org/dc/elements/1.1/">
 <metadata id="metadata37">
  <rdf:RDF>
   <cc:Work rdf:about="">
    <dc:format>image/svg+xml</dc:format>
    <dc:type rdf:resource="http://purl.org/dc/dcmitype/StillImage"/>
    <dc:title/>
   </cc:Work>
  </rdf:RDF>
 </metadata>
 <defs id="defs3761">
  <linearGradient id="linearGradient5060-6">
   <stop id="stop5062-0" offset="0"/>
   <stop id="stop5064-0" style="stop-opacity:0" offset="1"/>
  </linearGradient>
  <linearGradient id="linearGradient4287" y2="54.67" gradientUnits="userSpaceOnUse" x2="24" gradientTransform="matrix(.97782 0 0 .97680 .53236 .98474)" y1="-14.604" x1="24">
   <stop id="stop3762-6" style="stop-color:#e44343" offset="0"/>
   <stop id="stop3764-6" style="stop-color:#ac0808" offset="1"/>
  </linearGradient>
  <radialGradient id="radialGradient4290" xlink:href="#linearGradient5060-6" gradientUnits="userSpaceOnUse" cy="486.65" cx="605.71" gradientTransform="matrix(.024097 0 0 .015441 28.978 36.589)" r="117.14"/>
  <radialGradient id="radialGradient4293" xlink:href="#linearGradient5060-6" gradientUnits="userSpaceOnUse" cy="486.65" cx="605.71" gradientTransform="matrix(-.024097 0 0 .015441 19.022 36.589)" r="117.14"/>
  <linearGradient id="linearGradient4296" y2="609.51" gradientUnits="userSpaceOnUse" x2="302.86" gradientTransform="matrix(.080770 0 0 .015441 -5.1924 36.589)" y1="366.65" x1="302.86">
   <stop id="stop5050-6" style="stop-opacity:0" offset="0"/>
   <stop id="stop5056-4" offset=".5"/>
   <stop id="stop5052-5" style="stop-opacity:0" offset="1"/>
  </linearGradient>
  <linearGradient id="linearGradient3863" y2="44" gradientUnits="userSpaceOnUse" x2="24" x1="24">
   <stop id="stop3859" style="stop-color:#fff" offset="0"/>
   <stop id="stop3861" style="stop-color:#fff;stop-opacity:0" offset="1"/>
  </linearGradient>
 </defs>
 <g id="layer1">
  <g id="g3865">
   <rect id="rect2879-1" style="opacity:.5;fill:url(#linearGradient4296)" height="3.75" width="39" y="42.25" x="4.4999"/>
   <path id="path2881-5" style="opacity:.5;fill:url(#radialGradient4293)" d="m4.4999 42.25v3.7498c-1.241 0.007-3-0.84016-3-1.8752s1.3848-1.8746 3-1.8746z"/>
   <path id="path2883-9" style="opacity:.5;fill:url(#radialGradient4290)" d="m43.5 42.25v3.7498c1.2409 0.007 3-0.84016 3-1.8752s-1.3848-1.8746-3-1.8746z"/>
  </g>
  <path id="path11155-5" d="m45.687 40.056-19.097-36c-0.54891-1-1.5421-1.5556-2.6483-1.5556s-2.1045 0.66666-2.6617 1.6667l-18.955 36c-0.44617 0.88889-0.45127 2.1111 0.0981 3 0.54936 0.8889 1.4324 1.3333 2.5386 1.3333h38.052c1.1062 0 2.104-0.55556 2.5502-1.4444 0.55677-0.88889 0.56141-2 0.12312-3z" style="fill:url(#linearGradient4287)"/>
  <path id="path11155-8" d="m45.687 40.056-19.097-36c-0.54891-1-1.5421-1.5556-2.6483-1.5556s-2.1045 0.66666-2.6617 1.6667l-18.955 36c-0.44617 0.88889-0.45127 2.1111 0.0981 3 0.54936 0.8889 1.4324 1.3333 2.5386 1.3333h38.052c1.1062 0 2.104-0.55556 2.5502-1.4444 0.55677-0.88889 0.56141-2 0.12312-3z" style="opacity:.81;stroke:#5c0303;fill:none"/>
  <path id="path3843" style="opacity:.4;fill:url(#linearGradient3863)" d="m23.938 3c-0.906 0-1.74 0.5455-2.219 1.4062l-18.938 36c-0.2299 0.459-0.2943 1.04-0.2185 1.594 0.0457-0.213 0.1276-0.412 0.2187-0.594l18.938-36c0.479-0.8605 1.313-1.406 2.219-1.406 0.938 0 1.754 0.4358 2.218 1.2812l18.969 35.781 0.094 0.188c0.096 0.219 0.174 0.435 0.219 0.656 0.091-0.535 0.025-1.099-0.219-1.656l-0.094-0.188-18.969-35.781c-0.464-0.8452-1.28-1.281-2.218-1.281z"/>
 </g>
 <g id="layer2">
  <path id="path3972" style="opacity:.4" d="m22 14v8c0.016 3.21 1 8 1 11h2c0-3 0.804-7.144 1-11v-8h-4zm2 23c-1.105 0-2 0.895-2 2s0.895 2 2 2 2-0.895 2-2-0.895-2-2-2z"/>
  <path id="path4064" style="fill:#fff" d="m22 13v8c0.016 3.21 1 8 1 11h2c0-3 0.804-7.144 1-11v-8h-4zm2 23c-1.105 0-2 0.895-2 2s0.895 2 2 2 2-0.895 2-2-0.895-2-2-2z"/>
 </g>
</svg>
