<?xml version="1.0" encoding="UTF-8" standalone="no"?>
<!-- Created with Inkscape (http://www.inkscape.org/) -->
<svg id="svg2436" xmlns:rdf="http://www.w3.org/1999/02/22-rdf-syntax-ns#" xmlns="http://www.w3.org/2000/svg" height="48" width="48" version="1.1" xmlns:cc="http://creativecommons.org/ns#" xmlns:xlink="http://www.w3.org/1999/xlink" xmlns:dc="http://purl.org/dc/elements/1.1/">
 <defs id="defs2438">
  <linearGradient id="linearGradient5271" y2="276" gradientUnits="userSpaceOnUse" x2="352" gradientTransform="translate(-304 -228)" y1="228" x1="352">
   <stop id="stop4970" style="stop-color:#f1e6f4" offset="0"/>
   <stop id="stop4972" style="stop-color:#c9bcce" offset="1"/>
  </linearGradient>
  <linearGradient id="linearGradient5274" y2="260" gradientUnits="userSpaceOnUse" x2="328" gradientTransform="translate(-304 -236)" y1="240" x1="328">
   <stop id="stop11361" style="stop-color:#d5cbd7" offset="0"/>
   <stop id="stop11363" style="stop-color:#d9bfdf" offset="1"/>
  </linearGradient>
  <linearGradient id="linearGradient3952">
   <stop id="stop3954" offset="0"/>
   <stop id="stop3956" style="stop-opacity:0" offset="1"/>
  </linearGradient>
  <linearGradient id="linearGradient3960">
   <stop id="stop3962" style="stop-opacity:0" offset="0"/>
   <stop id="stop3970" offset=".5"/>
   <stop id="stop3964" style="stop-opacity:0" offset="1"/>
  </linearGradient>
  <radialGradient id="radialGradient3938" xlink:href="#linearGradient3952" gradientUnits="userSpaceOnUse" cy="43.5" cx="40" gradientTransform="matrix(1.0571 0 0 1.25 .098610 -36.875)" r="2"/>
  <radialGradient id="radialGradient3940" xlink:href="#linearGradient3952" gradientUnits="userSpaceOnUse" cy="43.5" cx="40" gradientTransform="matrix(1 0 0 .75 1.4986 -15.125)" r="2"/>
  <radialGradient id="radialGradient3942" xlink:href="#linearGradient3952" gradientUnits="userSpaceOnUse" cy="43.5" cx="9" gradientTransform="matrix(1.0571 0 0 1.25 -4.9014 -36.875)" r="2"/>
  <radialGradient id="radialGradient3944" xlink:href="#linearGradient3952" gradientUnits="userSpaceOnUse" cy="43.5" cx="9" gradientTransform="matrix(1 0 0 .75 -3.5014 -15.125)" r="2"/>
  <linearGradient id="linearGradient3946" y2="42" xlink:href="#linearGradient3960" gradientUnits="userSpaceOnUse" x2="25" gradientTransform="matrix(1.0571 0 0 1.6667 -5.9014 -55)" y1="45" x1="25"/>
  <linearGradient id="linearGradient3948" y2="42" xlink:href="#linearGradient3960" gradientUnits="userSpaceOnUse" x2="25" gradientTransform="translate(-4.5014 -26)" y1="45" x1="25"/>
 </defs>
 <metadata id="metadata2441">
  <rdf:RDF>
   <cc:Work rdf:about="">
    <dc:format>image/svg+xml</dc:format>
    <dc:type rdf:resource="http://purl.org/dc/dcmitype/StillImage"/>
    <dc:title/>
   </cc:Work>
  </rdf:RDF>
 </metadata>
 <path id="path13868" style="opacity:.2;block-progression:tb;text-indent:0;color:#000000;text-transform:none" d="m3 24.5c-0.29771 0-0.52077 0.31947-0.5 0.53125v0.0312l1 16.969c0.0198 0.21007 0.28895 0.46966 0.5 0.46875h40c0.21122 0.00086 0.4802-0.25864 0.5-0.46875l1-16.969v-0.0312c0.0216-0.22918-0.26981-0.53224-0.5-0.53125z"/>
 <path id="rect11352" style="color:#000000;fill:url(#linearGradient5274)" d="m5 4.5c-0.28565 0-0.5 0.21435-0.5 0.5v22c0 0.28565 0.21435 0.5 0.5 0.5h38c0.28565 0 0.5-0.21435 0.5-0.5v-18c0-0.28565-0.21435-0.5-0.5-0.5h-15c-2.1667 0-3.3438-1.1562-4.3438-2.1562s-1.8229-1.8438-3.6562-1.8438z"/>
 <g id="g3930" style="opacity:.1" transform="translate(0 4.5)">
  <path id="path3987-4" style="fill:url(#radialGradient3938)" d="m42.384 15v5h0.52857c0.87849 0 1.5857-1.115 1.5857-2.5s-0.70723-2.5-1.5857-2.5h-0.52857z"/>
  <path id="rect3940" d="m41.499 16v3h0.5c0.831 0 1.5-0.669 1.5-1.5s-0.669-1.5-1.5-1.5h-0.5z" style="fill:url(#radialGradient3940)"/>
  <path id="path3989" style="fill:url(#radialGradient3942)" d="m3.9852 15c-0.82358 0-1.4866 1.0453-1.4866 2.3438v0.3125c0 1.2984 0.66303 2.3438 1.4866 2.3438h0.62768v-5h-0.62768z"/>
  <path id="rect3942" d="m4.9049 16c-0.77906 0-1.4062 0.62719-1.4062 1.4062v0.1875c0 0.77906 0.62719 1.4062 1.4062 1.4062h0.59375v-3h-0.59375z" style="fill:url(#radialGradient3944)"/>
  <path id="rect3985" d="m4.6128 15h37.772v5h-37.772z" style="fill:url(#linearGradient3946)"/>
  <path id="rect3938" d="m5.4985 16h36v3h-36z" style="fill:url(#linearGradient3948)"/>
 </g>
 <path id="path3787" style="opacity:0.41;color:#000000;stroke:#000;fill:none" d="m5 4.5c-0.28565 0-0.5 0.21435-0.5 0.5v22c0 0.28565 0.21435 0.5 0.5 0.5h38c0.28565 0 0.5-0.21435 0.5-0.5v-18c0-0.28565-0.21435-0.5-0.5-0.5h-15c-2.1667 0-3.3438-1.1562-4.3438-2.1562s-1.8229-1.8438-3.6562-1.8438z"/>
 <path id="path10548" style="block-progression:tb;text-indent:0;color:#000000;text-transform:none;fill:url(#linearGradient5271)" d="m3 21.5c-0.29771 0-0.52077 0.31947-0.5 0.53125v0.0312l1 18.969c0.0198 0.21007 0.28895 0.46966 0.5 0.46875h40c0.21122 0.00086 0.4802-0.25864 0.5-0.46875l0.99995-18.969v-0.0312c0.0216-0.22918-0.26981-0.53224-0.5-0.53125z"/>
 <path id="path11392" d="m2.9062 23c-0.5244 0.047-0.9576 0.57-0.9062 1.094l1 15.906c0.0463 0.49158 0.50624 0.90838 1 0.90625h40c0.49376 0.002 0.95367-0.41467 1-0.90625l1-15.906c0.0521-0.5539-0.44366-1.0961-1-1.0938h-42c-0.0312-0.001-0.0625-0.001-0.0937 0z" style="block-progression:tb;text-indent:0;color:#000000;text-transform:none;fill:none"/>
 <path id="path3789" style="opacity:0.41;block-progression:tb;text-indent:0;color:#000000;stroke:#000;text-transform:none;fill:none" d="m3 21.5c-0.29771 0-0.52077 0.31947-0.5 0.53125v0.0312l1 18.969c0.0198 0.21007 0.28895 0.46966 0.5 0.46875h40c0.21122 0.00086 0.4802-0.25864 0.5-0.46875l0.99995-18.969v-0.0312c0.0216-0.22918-0.26981-0.53224-0.5-0.53125z"/>
 <path id="path3017" style="opacity:.2;block-progression:tb;text-indent:0;color:#000000;text-transform:none;fill:#fff" d="m3 22v0.031 0.031l0.0312 0.938h41.938l0.031-0.938v-0.031c0.005 0.012 0.001-0.025 0-0.031z"/>
</svg>
