<?xml version="1.0" encoding="UTF-8" standalone="no"?>
<!-- Created with Inkscape (http://www.inkscape.org/) -->
<svg id="svg3759" xmlns:rdf="http://www.w3.org/1999/02/22-rdf-syntax-ns#" xmlns="http://www.w3.org/2000/svg" height="48" width="48" version="1.1" xmlns:cc="http://creativecommons.org/ns#" xmlns:xlink="http://www.w3.org/1999/xlink" xmlns:dc="http://purl.org/dc/elements/1.1/">
 <metadata id="metadata37">
  <rdf:RDF>
   <cc:Work rdf:about="">
    <dc:format>image/svg+xml</dc:format>
    <dc:type rdf:resource="http://purl.org/dc/dcmitype/StillImage"/>
    <dc:title/>
   </cc:Work>
  </rdf:RDF>
 </metadata>
 <defs id="defs3761">
  <linearGradient id="linearGradient3960">
   <stop id="stop3962" style="stop-opacity:0" offset="0"/>
   <stop id="stop3970" offset=".5"/>
   <stop id="stop3964" style="stop-opacity:0" offset="1"/>
  </linearGradient>
  <linearGradient id="linearGradient3952">
   <stop id="stop3954" offset="0"/>
   <stop id="stop3956" style="stop-opacity:0" offset="1"/>
  </linearGradient>
  <linearGradient id="linearGradient4236" y2="42" xlink:href="#linearGradient3960" gradientUnits="userSpaceOnUse" x2="25" gradientTransform="matrix(1.0571 0 0 1.6667 -4.9 -31.5)" y1="45" x1="25"/>
  <radialGradient id="radialGradient4238" xlink:href="#linearGradient3952" gradientUnits="userSpaceOnUse" cy="43.5" cx="40" gradientTransform="matrix(1.0571 0 0 1.25 2.1 -13.375)" r="2"/>
  <radialGradient id="radialGradient4240" xlink:href="#linearGradient3952" gradientUnits="userSpaceOnUse" cy="43.5" cx="9" gradientTransform="matrix(1.0571 0 0 1.25 -4.9 -13.375)" r="2"/>
  <linearGradient id="linearGradient4242" y2="42" xlink:href="#linearGradient3960" gradientUnits="userSpaceOnUse" x2="25" gradientTransform="translate(-3.5 -2.5)" y1="45" x1="25"/>
  <radialGradient id="radialGradient4244" xlink:href="#linearGradient3952" gradientUnits="userSpaceOnUse" cy="43.5" cx="40" gradientTransform="matrix(1 0 0 .75 3.5 8.375)" r="2"/>
  <radialGradient id="radialGradient4246" xlink:href="#linearGradient3952" gradientUnits="userSpaceOnUse" cy="43.5" cx="9" gradientTransform="matrix(1 0 0 .75 -3.5 8.375)" r="2"/>
  <linearGradient id="linearGradient4248" y2="40" gradientUnits="userSpaceOnUse" x2="144" gradientTransform="matrix(-.175 0 0 .175 49.2 -3)" y1="280" x1="144">
   <stop id="stop3990-5-6" style="stop-color:#e6e6e6" offset="0"/>
   <stop id="stop3992-0-6" style="stop-color:#f0f0f0" offset="1"/>
  </linearGradient>
  <linearGradient id="linearGradient4250" y2="36.5" gradientUnits="userSpaceOnUse" x2="24.5" gradientTransform="translate(-1 1)" y1="10" x1="24.5">
   <stop id="stop4156" style="stop-color:#fff" offset="0"/>
   <stop id="stop4158" style="stop-color:#fff;stop-opacity:0" offset="1"/>
  </linearGradient>
  <radialGradient id="radialGradient4252" gradientUnits="userSpaceOnUse" cy="38.681" cx="24" gradientTransform="matrix(1 0 0 .78390 0 -4.3222)" r="17.859">
   <stop id="stop4194" offset="0"/>
   <stop id="stop4196" style="stop-opacity:0" offset="1"/>
  </radialGradient>
  <linearGradient id="linearGradient4448" y2="38.5" gradientUnits="userSpaceOnUse" x2="15.032" gradientTransform="matrix(.70711 -.70711 .70711 .70711 3.0406 16.833)" y1="38.5" x1="8">
   <stop id="stop4181" style="stop-color:#d2d2d2" offset="0"/>
   <stop id="stop4191" style="stop-color:#ebebeb" offset=".33869"/>
   <stop id="stop4189" style="stop-color:#d2d2d2" offset=".62082"/>
   <stop id="stop4187" style="stop-color:#f5f5f5" offset=".83311"/>
   <stop id="stop4183" style="stop-color:#ededed" offset="1"/>
  </linearGradient>
 </defs>
 <g id="layer1">
  <g id="g4208" transform="translate(0 -.00014534)">
   <g id="g3162" transform="translate(-1 -1)">
    <path id="rect3985" style="opacity:0.12;fill:url(#linearGradient4236)" d="m4.6143 38.5h39.772v5h-39.772z"/>
    <path id="path3987" d="m44.386 38.5v5h0.52857c0.87849 0 1.5857-1.115 1.5857-2.5s-0.70723-2.5-1.5857-2.5h-0.52857z" style="opacity:0.12;fill:url(#radialGradient4238)"/>
    <path id="path3989" d="m3.9866 38.5c-0.82358 0-1.4866 1.0453-1.4866 2.3438v0.3125c0 1.2984 0.66303 2.3438 1.4866 2.3438h0.62768v-5h-0.62768z" style="opacity:0.12;fill:url(#radialGradient4240)"/>
    <path id="rect3938" style="opacity:0.12;fill:url(#linearGradient4242)" d="m5.5 39.5h38v3h-38z"/>
    <path id="rect3940" style="opacity:0.12;fill:url(#radialGradient4244)" d="m43.5 39.5v3h0.5c0.831 0 1.5-0.669 1.5-1.5s-0.669-1.5-1.5-1.5h-0.5z"/>
    <path id="rect3942" style="opacity:0.12;fill:url(#radialGradient4246)" d="m4.9062 39.5c-0.77906 0-1.4062 0.62719-1.4062 1.4062v0.1875c0 0.77906 0.62719 1.4062 1.4062 1.4062h0.59375v-3h-0.59375z"/>
   </g>
   <path id="rect3886" d="m3 10v29c0 0.554 0.446 1 1 1h40c0.554 0 1-0.446 1-1v-29c0-0.554-0.446-1-1-1h-40c-0.554 0-1 0.446-1 1z" style="opacity:0.41;color:#bebebe"/>
   <path id="rect3882" d="m4 10v29h40v-29z" style="color:#bebebe;fill:url(#linearGradient4248)"/>
   <path id="path3893" style="opacity:.6;fill:url(#linearGradient4250)" d="m4 10v29h40v-29zm1 1h38v27h-38z"/>
   <path id="path4184" d="m6.0938 13.625 9.9062 11.876 0.781-0.97zm35.718 0.156-11.062 11.25 0.991 0.969z" style="opacity:.2;block-progression:tb;text-indent:0;color:#000000;text-transform:none;fill:url(#radialGradient4252)"/>
   <path id="path3386" d="m18.656 26.844c0.88388 0.88388 1.4198 1.4537 2.1875 1.7812 0.767 0.328 1.643 0.375 3.156 0.375 1.5129 0 2.3885-0.04746 3.1562-0.375 0.76773-0.32754 1.3036-0.89737 2.1875-1.7812l12.656-13.344-13.344 12.656c-0.88388 0.88388-1.3347 1.3007-1.875 1.5312-0.54 0.231-1.294 0.313-2.781 0.313-1.4871 0-2.2409-0.08198-2.7812-0.3125-0.54033-0.23052-0.99112-0.64737-1.875-1.5312l-13.344-12.656z" style="block-progression:tb;text-indent:0;color:#000000;text-transform:none;fill:#999"/>
   <path id="path4172" d="m16.656 24.656-10.656 11.344 11.344-10.656z" style="block-progression:tb;text-indent:0;color:#000000;text-transform:none;fill:#999"/>
   <path id="path4174" d="m30.344 24.625-0.6875 0.75l12.344 10.625z" style="block-progression:tb;text-indent:0;color:#000000;text-transform:none;fill:#999"/>
   <path id="path4200" style="opacity:.6;block-progression:tb;text-indent:0;color:#000000;text-transform:none;fill:#fff" d="m18.938 25.844c0.90182 0.86557 1.4198 1.4537 2.1875 1.7812 0.767 0.328 1.361 0.375 2.874 0.375 1.5129 0 2.1073-0.04746 2.875-0.375 0.76773-0.32754 1.2843-0.91707 2.1875-1.7812l13.115-12.549-13.802 11.861c-0.948 0.815-1.335 1.301-1.875 1.532-0.54 0.23-1.013 0.312-2.5 0.312s-1.96-0.082-2.5-0.312c-0.54-0.231-0.928-0.716-1.875-1.532l-13.669-11.772z"/>
   <path id="path4202" style="opacity:.6;block-progression:tb;text-indent:0;color:#000000;text-transform:none;fill:#fff" d="m17.281 25.422-11.281 10.578 11.969-9.891z"/>
   <path id="path4204" style="opacity:.6;block-progression:tb;text-indent:0;color:#000000;text-transform:none;fill:#fff" d="m30.234 25.875-0.6875 0.75l12.454 9.375z"/>
   <rect id="rect4206" style="opacity:.4;stroke-linejoin:round;stroke-linecap:square;fill:#fff" height="1" width="40" y="38" x="4"/>
  </g>
 </g>
 <g id="layer2">
  <path id="path4193" d="m31.678 27.794c-0.94578 0.94578-0.95852 2.4362-0.08839 3.403 0.02854 0.03165 0.03583 0.08002 0.06629 0.11049 0.0071 0.0076 0.01451 0.01497 0.0221 0.0221 0.0071 0.0076 0.0145 0.01497 0.0221 0.0221l6.6291 6.6291c0.01469 0.000686 0.02947 0.000651 0.04419 0 0.0071 0.0076 0.01451 0.01497 0.0221 0.0221 0.0138 0.01563 0.02856 0.0304 0.04419 0.04419 0.58352 0.54023 1.5087 0.56568 2.0771 0l-0.0221-0.0221c0.53288-0.5316 0.57427-1.3583 0.13258-1.9445-0.01177-0.03083-0.02659-0.06048-0.04419-0.08839-0.01456-0.01682-0.02872-0.02793-0.04419-0.04419-0.0071-0.0076-0.01451-0.01497-0.0221-0.0221-0.0071-0.0076-0.0145-0.01497-0.0221-0.0221 0.0076-0.0071 0.01497-0.01451 0.0221-0.0221l-3.867-3.867c-0.21167-0.22553-0.63851-0.17812-0.7955 0.08839-0.11437 0.19381-0.07568 0.46469 0.08839 0.61872l3.7786 3.7786c0.0071 0.0076 0.01451 0.01497 0.0221 0.0221l0.0442 0.04419c0.0058 0.02258 0.01319 0.04475 0.0221 0.06629 0.19893 0.19996 0.19997 0.50817 0 0.70711-0.19996 0.19894-0.50818 0.15577-0.70711-0.04419-0.0076 0.0071-0.01497 0.01451-0.0221 0.0221-0.0058-0.02258-0.0132-0.04474-0.0221-0.06629l-6.6291-6.6291-0.0221-0.0221c-0.0071-0.0076-0.01451-0.01497-0.0221-0.0221-0.58688-0.58688-0.60742-1.5139-0.0221-2.0992 0.58532-0.58532 1.5344-0.58688 2.1213 0 0.02783 0.01765 0.05749 0.03248 0.08839 0.04419 0.0138 0.01563 0.02856 0.0304 0.04419 0.04419l7.5572 7.5572c0.02563 0.03299 0.0554 0.06276 0.08839 0.08839l0.04419 0.04419c0.9805 0.9805 0.9805 2.555 0 3.5355s-2.555 0.9805-3.5355 0c-0.0057-0.0057-0.01636-0.01624-0.0221-0.0221l-0.35355-0.35355-0.0221 0.0221-6.6954-6.6954c-0.20572-0.21312-0.60694-0.17873-0.7734 0.06629-0.13115 0.19299-0.10158 0.47876 0.06629 0.64082l7.0711 7.0711c0.05667 0.05139 0.1253 0.08952 0.19887 0.11049 1.3717 1.2036 3.4648 1.1756 4.773-0.13258 1.3626-1.3626 1.3626-3.5871 0-4.9497l-0.35355-0.35355-7.3804-7.3804-0.04419-0.04419c-0.0071-0.0076-0.01451-0.01497-0.0221-0.0221-0.03046-0.03046-0.07881-0.03778-0.11049-0.06629-0.9667-0.87014-2.4793-0.8353-3.425 0.11048z" style="opacity:0.41;stroke-linejoin:round;color:#000000;stroke:#000;stroke-width:2;fill:none"/>
  <path id="path35480" style="color:#000000;stroke-width:7.755;fill:url(#linearGradient4448)" d="m31.678 27.794c-0.94578 0.94578-0.95852 2.4362-0.08839 3.403 0.02854 0.03165 0.03583 0.08002 0.06629 0.11049 0.0071 0.0076 0.01451 0.01497 0.0221 0.0221 0.0071 0.0076 0.0145 0.01497 0.0221 0.0221l6.6291 6.6291c0.01469 0.000686 0.02947 0.000651 0.04419 0 0.0071 0.0076 0.01451 0.01497 0.0221 0.0221 0.0138 0.01563 0.02856 0.0304 0.04419 0.04419 0.58352 0.54023 1.5087 0.56568 2.0771 0l-0.0221-0.0221c0.53288-0.5316 0.57427-1.3583 0.13258-1.9445-0.01177-0.03083-0.02659-0.06048-0.04419-0.08839-0.01456-0.01682-0.02872-0.02793-0.04419-0.04419-0.0071-0.0076-0.01451-0.01497-0.0221-0.0221-0.0071-0.0076-0.0145-0.01497-0.0221-0.0221 0.0076-0.0071 0.01497-0.01451 0.0221-0.0221l-3.867-3.867c-0.21167-0.22553-0.63851-0.17812-0.7955 0.08839-0.11437 0.19381-0.07568 0.46469 0.08839 0.61872l3.7786 3.7786c0.0071 0.0076 0.01451 0.01497 0.0221 0.0221l0.0442 0.04419c0.0058 0.02258 0.01319 0.04475 0.0221 0.06629 0.19893 0.19996 0.19997 0.50817 0 0.70711-0.19996 0.19894-0.50818 0.15577-0.70711-0.04419-0.0076 0.0071-0.01497 0.01451-0.0221 0.0221-0.0058-0.02258-0.0132-0.04474-0.0221-0.06629l-6.6291-6.6291-0.0221-0.0221c-0.0071-0.0076-0.01451-0.01497-0.0221-0.0221-0.58688-0.58688-0.60742-1.5139-0.0221-2.0992 0.58532-0.58532 1.5344-0.58688 2.1213 0 0.02783 0.01765 0.05749 0.03248 0.08839 0.04419 0.0138 0.01563 0.02856 0.0304 0.04419 0.04419l7.5572 7.5572c0.02563 0.03299 0.0554 0.06276 0.08839 0.08839l0.04419 0.04419c0.9805 0.9805 0.9805 2.555 0 3.5355s-2.555 0.9805-3.5355 0c-0.0057-0.0057-0.01636-0.01624-0.0221-0.0221l-0.35355-0.35355-0.0221 0.0221-6.6954-6.6954c-0.20572-0.21312-0.60694-0.17873-0.7734 0.06629-0.13115 0.19299-0.10158 0.47876 0.06629 0.64082l7.0711 7.0711c0.05667 0.05139 0.1253 0.08952 0.19887 0.11049 1.3717 1.2036 3.4648 1.1756 4.773-0.13258 1.3626-1.3626 1.3626-3.5871 0-4.9497l-0.35355-0.35355-7.3804-7.3804-0.04419-0.04419c-0.0071-0.0076-0.01451-0.01497-0.0221-0.0221-0.03046-0.03046-0.07881-0.03778-0.11049-0.06629-0.9667-0.87014-2.4793-0.8353-3.425 0.11048z"/>
  <path id="path4195" style="color:#000000;stroke-width:7.755;fill:#fff" d="m31.678 27.794c-0.94578 0.94578-0.95852 2.4362-0.08839 3.403 0.02854 0.03165 0.03583 0.08002 0.06629 0.11049 0.0071 0.0076 0.0145 0.01497 0.0221 0.0221 0.0071 0.0076 0.0145 0.01497 0.0221 0.0221l0.66291 0.66291c-0.03046-0.03046-0.03775-0.07884-0.06629-0.11049-0.73776-0.81965-0.82737-1.9954-0.26516-2.9168 0.01187-0.02973 0.03025-0.0593 0.04419-0.08839 0.06971-0.14544 0.16532-0.2979 0.28726-0.41984s0.27289-0.21604 0.41984-0.28726c0.02939-0.01425 0.05832-0.03198 0.08839-0.0442 0.92628-0.56704 2.1193-0.4947 2.9389 0.24307 0.03165 0.02854 0.08002 0.03583 0.11048 0.06629l-0.64082-0.64082-0.04419-0.04419c-0.0071-0.0076-0.01451-0.01497-0.0221-0.0221-0.03046-0.03046-0.07881-0.03778-0.11048-0.06629-0.9667-0.87014-2.4793-0.8353-3.425 0.11048zm-0.7734 5.016c-0.13115 0.19299-0.10158 0.47876 0.06629 0.64082l0.70711 0.70711c-0.16788-0.16206-0.19744-0.44782-0.06629-0.64082 0.16646-0.24502 0.56768-0.27941 0.7734-0.06629l-0.70711-0.70711c-0.20572-0.21312-0.60694-0.17873-0.7734 0.06629zm4.9497-0.70711c-0.11437 0.19381-0.07568 0.46469 0.08839 0.61872l0.70711 0.70711c-0.16407-0.15403-0.20276-0.42491-0.08839-0.61872 0.15698-0.2665 0.58382-0.31392 0.7955-0.08839l-0.70711-0.70711c-0.21167-0.22553-0.63851-0.17812-0.7955 0.08839zm3.9333 4.4636c0.0058 0.02258 0.0132 0.04474 0.0221 0.06629 0.19893 0.19996 0.19997 0.50817 0 0.70711-0.19996 0.19894-0.50818 0.15577-0.70711-0.0442l0.66291 0.66291c0.0089 0.02152 0.01629 0.04371 0.0221 0.06629 0.0071-0.0076 0.01451-0.01497 0.0221-0.0221 0.1492 0.14997 0.37206 0.21709 0.55243 0.15468 0.06012-0.0208 0.10469-0.06075 0.15468-0.11049l-0.0221-0.0221c0.05199-0.05186 0.08994-0.11979 0.13258-0.17678 0.05401-0.17055 0.0278-0.36924-0.11049-0.50823-0.0089-0.02152-0.01629-0.04371-0.0221-0.06629l-0.04419-0.04419c-0.0076-0.0071-0.01497-0.0145-0.0221-0.0221l-0.64082-0.64082zm-1.4142 2.8726 0.70711 0.70711 0.0221-0.0221 0.35355 0.35355c0.0057 0.0059 0.01644 0.01644 0.0221 0.0221 0.85793 0.85793 2.1661 0.95281 3.1378 0.30936 0.1388-0.09192 0.27518-0.1868 0.39775-0.30936 0.9805-0.9805 0.9805-2.555 0-3.5355l-0.04419-0.04419c-0.03299-0.02563-0.06276-0.0554-0.08839-0.08839l-0.57452-0.57452c0.9805 0.9805 0.9805 2.555 0 3.5355s-2.555 0.9805-3.5355 0c-0.0057-0.0057-0.01635-0.01624-0.0221-0.0221l-0.35355-0.35355-0.0221 0.0221z"/>
  <path id="path4201" style="opacity:.2;color:#000000;stroke-width:7.755" d="m32.386 28.501c-0.11822 0.11822-0.2202 0.26459-0.30936 0.39775-0.01394 0.02909-0.03232 0.05865-0.04419 0.08839-0.21365 0.53517-0.08661 1.1508 0.35355 1.591 0.0076 0.0071 0.01497 0.01451 0.0221 0.0221l0.0221 0.0221 0.66291 0.66291c-0.58688-0.58688-0.60742-1.5139-0.0221-2.0992 0.58532-0.58532 1.5344-0.58688 2.1213 0 0.02783 0.01765 0.05749 0.03248 0.08839 0.04419l-0.66291-0.66291c-0.01563-0.0138-0.0304-0.02856-0.04419-0.04419-0.0309-0.01171-0.06056-0.02654-0.08839-0.04419-0.44016-0.44016-1.0717-0.55132-1.6131-0.33146-0.03008 0.01222-0.059 0.02995-0.08839 0.0442-0.13376 0.08977-0.27952 0.19114-0.39775 0.30936zm5.9441 9.4796 0.70711 0.70711c0.01469 0.000686 0.02947 0.00065 0.04419 0 0.0071 0.0076 0.0145 0.01497 0.0221 0.0221 0.0138 0.01563 0.02856 0.0304 0.04419 0.04419 0.58352 0.54023 1.5087 0.56568 2.0771 0l-0.0221-0.0221c0.53288-0.5316 0.57427-1.3583 0.13258-1.9445-0.01177-0.03083-0.0266-0.06048-0.04419-0.08839-0.01456-0.01682-0.02872-0.02793-0.04419-0.04419-0.0071-0.0076-0.0145-0.01497-0.0221-0.0221-0.0071-0.0076-0.0145-0.01497-0.0221-0.0221 0.0076-0.0071 0.01497-0.01451 0.0221-0.0221l-0.70711-0.70711c-0.0071 0.0076-0.0145 0.01497-0.0221 0.0221 0.0076 0.0071 0.01497 0.01451 0.0221 0.0221 0.0076 0.0071 0.01497 0.01451 0.0221 0.0221 0.01547 0.01626 0.02963 0.02737 0.0442 0.04419 0.01759 0.02792 0.03243 0.05756 0.04419 0.08839 0.39859 0.52904 0.39442 1.2407 0 1.7678-0.02369 0.0748-0.04952 0.13822-0.11049 0.19887-0.04999 0.04974-0.09452 0.08972-0.15468 0.11049-0.57108 0.42793-1.3879 0.38445-1.9224-0.11049-0.01563-0.01379-0.0304-0.02856-0.04419-0.04419-0.0076-0.0071-0.01497-0.0145-0.0221-0.0221-0.01472 0.000651-0.02951 0.000686-0.04419 0zm0.7292-0.7292c0.0089 0.02152 0.01629 0.04371 0.0221 0.06629 0.0071-0.0076 0.0145-0.01497 0.0221-0.0221l-0.04419-0.04419zm-1.0165 3.2704 0.70711 0.70711c0.05667 0.05139 0.1253 0.08952 0.19887 0.11048 1.3717 1.2036 3.4648 1.1756 4.773-0.13258 1.3626-1.3626 1.3626-3.5871 0-4.9497l-0.35355-0.35355-0.35355-0.35355c1.3626 1.3626 1.3626 3.5871 0 4.9497-0.11929 0.11929-0.26654 0.21132-0.39775 0.30936-1.3076 0.97709-3.1286 0.91711-4.3752-0.17678-0.07357-0.02097-0.14221-0.05909-0.19887-0.11049z"/>
 </g>
</svg>
