<?xml version="1.0" encoding="UTF-8" standalone="no"?>
<!-- Created with Inkscape (http://www.inkscape.org/) -->
<svg id="svg5014" xmlns:rdf="http://www.w3.org/1999/02/22-rdf-syntax-ns#" xmlns="http://www.w3.org/2000/svg" height="48" width="48" version="1.1" xmlns:cc="http://creativecommons.org/ns#" xmlns:xlink="http://www.w3.org/1999/xlink" xmlns:dc="http://purl.org/dc/elements/1.1/">
 <defs id="defs5016">
  <linearGradient id="linearGradient3872">
   <stop id="stop3874" style="stop-color:#fff" offset="0"/>
   <stop id="stop3876" style="stop-color:#fff;stop-opacity:0" offset="1"/>
  </linearGradient>
  <linearGradient id="linearGradient5200">
   <stop id="stop5202" offset="0"/>
   <stop id="stop5204" style="stop-opacity:0" offset="1"/>
  </linearGradient>
  <radialGradient id="radialGradient5206" xlink:href="#linearGradient5200" gradientUnits="userSpaceOnUse" cy="29.5" cx="17" gradientTransform="matrix(1 0 0 .25 0 22.125)" r="10"/>
  <linearGradient id="linearGradient3881" y2="7.9919" xlink:href="#linearGradient3872" gradientUnits="userSpaceOnUse" x2="16.286" gradientTransform="matrix(1.0376 0 0 1.0376 -.89763 -.29204)" y1="17.391" x1="13.621"/>
  <linearGradient id="linearGradient3889" y2="13" gradientUnits="userSpaceOnUse" x2="15" gradientTransform="matrix(1.5384 0 0 1.552 -.61141 -8.6319)" y1="-1" x1="15">
   <stop id="stop5074" offset="0"/>
   <stop id="stop5076" style="stop-opacity:0" offset="1"/>
  </linearGradient>
  <linearGradient id="linearGradient3896" y2="8" gradientUnits="userSpaceOnUse" x2="24" gradientTransform="matrix(1.5384 0 0 1.552 -.61141 -8.6319)" y1="8" x1="8">
   <stop id="stop5084" style="stop-color:#fff" offset="0"/>
   <stop id="stop5086" style="stop-color:#fff;stop-opacity:.74902" offset=".46633"/>
   <stop id="stop5088" style="stop-color:#fff;stop-opacity:0" offset=".67678"/>
   <stop id="stop5090" style="stop-color:#fff;stop-opacity:0" offset="1"/>
  </linearGradient>
  <linearGradient id="linearGradient3900" gradientUnits="userSpaceOnUse" x2="20" gradientTransform="matrix(1.5384 0 0 1.552 -.61141 -8.6319)" y1="20" x1="20">
   <stop id="stop4937" style="stop-color:#e5cf08" offset="0"/>
   <stop id="stop4977" style="stop-color:#e9d414" offset=".5"/>
   <stop id="stop4939" style="stop-color:#fff279" offset="1"/>
  </linearGradient>
  <linearGradient id="linearGradient3903" y2="12" gradientUnits="userSpaceOnUse" x2="0" gradientTransform="matrix(1.5384 0 0 1.552 -.61141 -8.6319)" y1="12" x1="32">
   <stop id="stop4929" style="stop-color:#c09e06" offset="0"/>
   <stop id="stop4931" style="stop-color:#b99b13" offset="1"/>
  </linearGradient>
  <linearGradient id="linearGradient3908" y2="7.9919" xlink:href="#linearGradient3872" gradientUnits="userSpaceOnUse" x2="16.286" gradientTransform="matrix(-1.0376 0 0 1.0376 48.76 -.77704)" y1="17.391" x1="13.621"/>
  <linearGradient id="linearGradient3917" y2="4" gradientUnits="userSpaceOnUse" x2="25" y1="11" x1="25">
   <stop id="stop3912" style="stop-color:#4d1556" offset="0"/>
   <stop id="stop3914" style="stop-color:#312b32" offset="1"/>
  </linearGradient>
 </defs>
 <metadata id="metadata5019">
  <rdf:RDF>
   <cc:Work rdf:about="">
    <dc:format>image/svg+xml</dc:format>
    <dc:type rdf:resource="http://purl.org/dc/dcmitype/StillImage"/>
    <dc:title/>
   </cc:Work>
  </rdf:RDF>
 </metadata>
 <g id="layer1" transform="translate(0,16)">
  <path id="path5198" style="opacity:.2;fill:url(#radialGradient5206)" d="m27 29.5a10 2.5 0 1 1 -20 0 10 2.5 0 1 1 20 0z" transform="matrix(2.1 0 0 1.3558 -11.7 -19.387)"/>
  <path id="path5208" style="opacity:.2;fill:url(#radialGradient5206)" d="m27 29.5a10 2.5 0 1 1 -20 0 10 2.5 0 1 1 20 0z" transform="matrix(1.5 0 0 .67254 -1.5 .47047)"/>
  <path id="path3120" d="m13.656 4.5937c-0.246-0.011-0.485 0.0088-0.718 0.0313-1.368 0.1321-2.486 0.9085-3.5317 1.6562l-0.3125 0.2188 0.1562 0.4062c0.1031 0.2354 0.1995 0.423 0.2812 0.5938l0.2813 0.5625 0.4995-0.3437c0.92695-0.65028 1.7886-1.1914 2.7188-1.2812 1.345-0.12993 3.2717 0.52884 5.75 2.3438l0.313 0.2186 0.344-0.25c0.127-0.1012 0.31-0.2132 0.531-0.4062l0.469-0.4063-0.5-0.4063c-2.503-1.9432-4.556-2.8599-6.282-2.9375zm20.719 0.0313c-1.7297 0.035818-3.7909 0.94808-6.3125 2.9062l-0.5 0.40625 0.46875 0.40625c0.221 0.1931 0.404 0.3051 0.531 0.4063l0.344 0.25 0.313-0.2188c2.174-1.5959 3.932-2.3177 5.187-2.3437 1.233-0.0255 2.256 0.4737 3.344 1.2187l0.5 0.3438 0.25-0.5625c0.081-0.1685 0.21-0.3227 0.312-0.5625l0.157-0.4063-0.344-0.2499c-1.251-0.8957-2.594-1.6281-4.25-1.5938z" style="opacity:.4;block-progression:tb;text-indent:0;color:#000000;text-transform:none"/>
  <path id="path4925" style="stroke:url(#linearGradient3903);stroke-width:3;fill:none" d="m19.388-3.976s-3.0769 3.104-15.384 3.104c0 18.624 9.2307 18.624 9.2307 18.624 6.1538 0 7.6922-4.656 10.769-4.656 3.0769 0 4.6153 4.656 12.308 4.656 0 0 7.6922 0 7.6922-18.624-13.846 0-15.384-3.104-15.384-3.104-1.5384 0-1.5384 3.104-4.6153 3.104s-3.0769-3.104-4.6153-3.104z"/>
  <path id="path4923" style="stroke:url(#linearGradient3900);stroke-width:2;fill:none" d="m19.388-3.976s-3.0769 3.104-15.384 3.104c0 18.624 9.2307 18.624 9.2307 18.624 6.1538 0 7.6922-4.656 10.769-4.656 3.0769 0 4.6153 4.656 12.308 4.656 0 0 7.6922 0 7.6922-18.624-13.846 0-15.384-3.104-15.384-3.104-1.5384 0-1.5384 3.104-4.6153 3.104s-3.0769-3.104-4.6153-3.104z"/>
  <path id="path4915" style="fill:#a161ab" d="m19.388-3.976s-3.0769 3.104-15.384 3.104c0 18.624 9.2306 18.624 9.2306 18.624 6.1538 0 7.6922-4.656 10.769-4.656 3.0769 0 4.6153 4.656 12.308 4.656 0 0 7.6922 0 7.6922-18.624-13.846 0-15.384-3.104-15.384-3.104-1.5384 0-1.5384 3.104-4.6153 3.104s-3.0769-3.104-4.6153-3.104zm-6.4903 8.8754c2.1045-0.2033 4.6629 0.67489 8.0287 3.5405-1.66 1.6671-3.591 2.8951-6.154 3.1041-3.891-0.351-5.3172-2.3112-6.1538-4.6561 1.2855-1.0129 2.6418-1.8303 4.2788-1.9885zm21.49 0c1.9616-0.040622 3.5308 0.83081 4.9999 1.9885-0.83652 2.3449-2.2627 4.3049-6.1538 4.656-2.5627-0.2092-4.4943-1.437-6.1538-3.104 2.9919-2.5472 5.346-3.4998 7.3076-3.5405z"/>
  <path id="path4943" style="opacity:.5;fill:url(#linearGradient3896)" d="m19.388-3.976s-1.3278 1.3135-5.5768 2.231c2.0729 0.75562 7.3931 2.2076 8.6537 3.977 3.228 5.0549-1.6856 11.759-6.0095 15.035 3.6258-1.197 5.0918-4.171 7.548-4.171s3.9222 2.9739 7.548 4.171c-4.3239-3.2761-9.2375-9.9799-6.0095-15.035 1.2606-1.7694 6.5808-3.2213 8.6537-3.977-4.2491-0.91744-5.5768-2.231-5.5768-2.231-1.5384 0-1.5384 3.104-4.6153 3.104s-3.0769-3.104-4.6153-3.104z"/>
  <path id="path4968" style="opacity:.8;stroke:url(#linearGradient3917);fill:none" d="m12.898 4.8994c2.105-0.2033 4.663 0.6749 8.029 3.5405-1.66 1.6671-3.591 2.8951-6.154 3.1041-3.891-0.351-5.3172-2.3112-6.1538-4.6561 1.2855-1.0129 2.6418-1.8303 4.2788-1.9885zm21.49 0c1.9616-0.040622 3.5308 0.83081 4.9999 1.9885-0.83652 2.3449-2.2627 4.3049-6.1538 4.656-2.5627-0.2092-4.4943-1.437-6.1538-3.104 2.9919-2.5472 5.346-3.4998 7.3076-3.5405z"/>
  <path id="path4987" style="opacity:.2;fill:#fff" d="m16.36-2.424c-0.70437 0.24166-1.5305 0.45929-2.548 0.67899 2.0729 0.75562 7.3931 2.2076 8.6537 3.977 0.559 0.87538 0.8455 1.8166 0.96152 2.7645 0.13627-1.4937-0.0965-2.9619-0.96152-4.3165-0.8852-1.2425-3.747-2.3057-6.1057-3.104z"/>
  <path id="path4996" d="m31.407-2.3755c0.70437 0.24166 1.5305 0.45929 2.548 0.67899-2.0729 0.75562-7.3931 2.2076-8.6537 3.977-0.559 0.87538-0.8455 1.8166-0.96153 2.7645-0.13627-1.4937 0.09651-2.9619 0.96153-4.3165 0.88519-1.2425 3.747-2.3057 6.1057-3.104z" style="opacity:.1;fill:#fff"/>
  <path id="path5023" style="opacity:.4;block-progression:tb;text-indent:0;color:#000000;text-transform:none;fill:#fff" d="m8.1865 7.7609c-0.017758 0.013965-0.03037 0.03454-0.048076 0.048495l-0.4326 0.388 0.1923 0.485c0.4423 1.2398 1.0808 2.4985 2.1634 3.4435 1.0826 0.94497 2.5996 1.5598 4.6634 1.746h0.04807 0.04807c2.7729-0.22636 4.8974-1.6015 6.6345-3.3465l0.625-0.5826-0.673-0.5335c-0.08271-0.070419-0.15845-0.12577-0.24038-0.194-1.3757 1.3199-2.9751 2.3935-4.9519 2.8615-0.44694 0.1058-0.90896 0.20288-1.3942 0.2425h-0.04807c-0.01747-0.0018-0.03073 0.0018-0.04807 0-0.41275-0.03724-0.78392-0.12326-1.1538-0.194-1.4796-0.28295-2.6434-0.796-3.5096-1.552-0.8953-0.7811-1.4475-1.7913-1.8755-2.8131zm31.634 0.048495c-0.42659 1.0073-0.9923 1.994-1.875 2.7645-0.86612 0.75598-2.0299 1.269-3.5096 1.552-0.36828 0.0851-0.75399 0.15127-1.2019 0.194h-0.04807c-0.48525-0.03961-0.94728-0.1367-1.3942-0.2425-1.9768-0.46794-3.5762-1.5416-4.9519-2.8615-0.08161 0.067949-0.15798 0.12385-0.24038 0.194l-0.67307 0.5335 0.62499 0.58199c1.7372 1.745 3.8617 3.1201 6.6345 3.3465h0.04807 0.04807c2.0638-0.18618 3.5808-0.80102 4.6634-1.746 1.0826-0.94497 1.7211-2.2036 2.1634-3.4435l0.192-0.4851-0.432-0.388c-0.01006-0.00799-0.03796 0.00799-0.04807 0z"/>
  <path id="path5069" style="opacity:.2;fill:url(#linearGradient3889)" d="m16.263-2.424c-0.4843 0.16166-1.0575 0.33072-1.6827 0.485 0.63194-0.15741 1.1942-0.32 1.6827-0.485zm-2.4519 0.67899c-2.3142 0.49966-5.468 0.87299-9.8076 0.87299 0 18.624 9.2306 18.624 9.2306 18.624 1.2414 0 2.3048-0.18249 3.2211-0.485 0.01727-0.01304 0.03078-0.03531 0.04807-0.04851 4.3112-3.2902 9.1765-9.9516 5.9615-14.986-1.2606-1.7694-6.5808-3.2213-8.6537-3.977zm20.144 0.048499c-2.1861 0.77208-7.188 2.2086-8.4133 3.9285-3.0849 4.8308 1.2668 11.138 5.4326 14.55 1.3907 0.56515 3.0827 0.96999 5.3365 0.96999 0 0 7.6922 0 7.6922-18.624-4.6071 0-7.7694-0.36587-10.048-0.82449zm-21.057 6.5959c2.1045-0.2033 4.6629 0.67489 8.0287 3.5405-1.66 1.6671-3.591 2.8951-6.154 3.1041-3.891-0.351-5.3172-2.3112-6.1538-4.6561 1.2855-1.0129 2.6418-1.8303 4.2788-1.9885zm21.49 0c1.9616-0.040622 3.5308 0.83081 4.9999 1.9885-0.83652 2.3449-2.2627 4.3049-6.1538 4.656-2.5627-0.2092-4.4943-1.437-6.1538-3.104 2.9919-2.5472 5.346-3.4998 7.3076-3.5405z"/>
  <path id="path5093" style="opacity:.5;stroke:#fff;stroke-width:0.5;fill:none" d="m23.619 13.096v-6.2214-6.1944"/>
  <path id="path5106" style="opacity:.1" d="m4.0039-0.872c0 18.624 9.2306 18.624 9.2306 18.624 4.2962 0.73903 7.8115-4.5267 10.769-4.656 6.1086 2.5978 6.2522 4.6149 12.308 4.656 0 0 7.6922 0 7.6922-18.624-0.01734 0-0.03078 0.0000109-0.04807 0-0.427 17.028-7.645 17.072-7.645 17.072-6.123 0.107-7.642-3.167-12.307-4.656-4.5753 1.8684-6.1082 4.3136-10.769 4.656 0 0-8.671-0.04351-9.1826-17.072-0.017178 0.00001235-0.03086 0-0.048076 0z"/>
  <path id="path5116" style="opacity:.1" d="m19.388-3.976c-4.0666 2.617-10.642 3.0886-15.384 3.104 0 0.54779 0.032575 1.0359 0.048076 1.552 5.3289-0.24263 10.761-0.1322 15.336-3.104 1.5384 0 1.5384 3.104 4.6153 3.104s3.0769-3.104 4.6153-3.104c4.3369 2.5744 9.6783 3.0833 15.336 3.104 0.01292-0.51604 0.04808-1.0042 0.04808-1.552-5.7141-0.23359-10.613-0.023912-15.384-3.104-1.5384 0-1.5384 3.104-4.6153 3.104s-3.0769-3.104-4.6153-3.104zm-10.288 12.028c-0.1673 0.1223-0.3162 0.2584-0.4808 0.388 0.8366 2.3451 2.2628 4.3051 6.1538 4.6561 2.563-0.209 4.494-1.437 6.154-3.1041-0.318-0.2708-0.61-0.4914-0.914-0.7275-1.455 1.2306-3.129 2.1076-5.24 2.2796-3.227-0.291-4.767-1.6858-5.673-3.4921zm29.759 0c-0.907 1.7958-2.411 3.2021-5.625 3.4921-2.11-0.172-3.785-1.049-5.24-2.2796-0.297 0.2304-0.604 0.4636-0.913 0.7275 1.659 1.6671 3.591 2.8951 6.153 3.1041 3.891-0.351 5.318-2.311 6.154-4.6561-0.175-0.1376-0.351-0.2595-0.529-0.388zm-12.259 5.4321c0.36225 0.56188 0.77936 1.0807 1.2019 1.6005-0.42052-0.51661-0.8413-1.0463-1.2019-1.6005z"/>
  <path id="path3895" d="m18.751-5.4798-0.42151 0.45393s-0.0093 0.02956-0.38908 0.25939c-0.3797 0.22983-1.0491 0.55196-2.1075 0.90786-2.1168 0.7118-5.8069 1.4915-11.835 1.4915h-1.4915v1.4915c0 9.5597 2.3984 14.664 5.0581 17.347 1.3298 1.3415 2.7049 2.0442 3.7611 2.3993 1.0563 0.35519 1.913 0.38908 1.913 0.38908 3.4552 0 5.7906-1.3897 7.425-2.6263 0.81718-0.61828 1.4973-1.2026 2.0427-1.5563 0.54539-0.3537 0.90602-0.48635 1.2969-0.48635 0.39092 0 0.74619 0.15362 1.3294 0.51878 0.58318 0.36516 1.3402 0.93126 2.2696 1.5563 1.8588 1.2501 4.5732 2.5939 8.7219 2.5939 0 0 0.81519-0.04394 1.7509-0.42151 0.93568-0.37757 2.1245-1.1109 3.2424-2.4642 2.2358-2.7065 4.1826-7.7309 4.1826-17.249v-1.4915h-1.4915c-6.8109 0-10.519-0.77417-12.386-1.4591-0.9335-0.34244-1.4127-0.67479-1.6212-0.84301-0.07817-0.063083-0.08163-0.080014-0.09727-0.097271-0.0052-0.00575-0.03243-0.03243-0.03242-0.032424l-0.32424-0.68089h-0.94028c-0.88901 0-1.6363 0.52544-2.0427 0.97271-0.40642 0.44727-0.63459 0.87572-0.87544 1.1997-0.48169 0.64791-0.65198 0.94028-1.686 0.94028s-1.2043-0.29237-1.686-0.94028c-0.24085-0.32396-0.46902-0.7524-0.87544-1.1997-0.40642-0.44727-1.1537-0.97271-2.0427-0.97271z" style="opacity:0.41;block-progression:tb;text-indent:0;color:#000000;stroke:#000;text-transform:none;fill:none"/>
  <path id="path3098" d="m19.388-4.976c-4.0666 2.617-10.642 3.0886-15.384 3.104 0 0.54779 0.032575 1.0359 0.048076 1.552 5.3289-0.24262 10.761-0.13218 15.336-3.104 1.5384 0 1.5384 3.104 4.6153 3.104s3.0769-3.104 4.6153-3.104c4.3369 2.5744 9.6783 3.0833 15.336 3.104 0.01292-0.51604 0.04808-1.0042 0.04808-1.552-5.7141-0.23359-10.613-0.023913-15.384-3.104-1.5384 0-1.5384 3.104-4.6153 3.104s-3.0769-3.104-4.6153-3.104z" style="opacity:.4;fill:#fff"/>
  <path id="path3870" d="m16.263-2.424c-0.4843 0.16166-1.0575 0.33072-1.6827 0.485 0.63194-0.15741 1.1942-0.32 1.6827-0.485zm-2.4519 0.67899c-2.3142 0.49966-5.468 0.87299-9.8076 0.87299 0 18.624 9.2306 18.624 9.2306 18.624 1.2414 0 2.3048-0.18249 3.2211-0.485 0.01727-0.01304 0.03078-0.03531 0.04807-0.04851 4.312-3.29 9.177-9.9513 5.962-14.986-1.26-1.7694-6.581-3.2214-8.654-3.977zm-0.91345 6.6444c2.1045-0.2033 4.6629 0.67489 8.0287 3.5405-1.66 1.6671-3.591 2.8951-6.154 3.1041-3.891-0.351-5.3172-2.3112-6.1538-4.6561 1.2855-1.0129 2.6418-1.8303 4.2788-1.9885z" style="opacity:.2;fill:url(#linearGradient3881)"/>
  <path id="path3906" style="opacity:.2;fill:url(#linearGradient3908)" d="m31.599-2.909c0.4843 0.16166 1.0575 0.33072 1.6827 0.485-0.63194-0.15741-1.1942-0.32-1.6827-0.485zm2.4519 0.67899c2.3142 0.49966 5.468 0.87299 9.8076 0.87299 0 18.624-9.2306 18.624-9.2306 18.624-1.2414 0-2.3048-0.18249-3.2211-0.485-0.01727-0.01304-0.03078-0.03531-0.04807-0.04851-4.311-3.29-9.177-9.9513-5.962-14.986 1.2606-1.7694 6.5808-3.2213 8.6537-3.977zm0.91345 6.6444c-2.104-0.2033-4.662 0.6749-8.028 3.5405 1.659 1.667 3.591 2.8951 6.154 3.1041 3.891-0.351 5.317-2.3112 6.153-4.6561-1.285-1.0129-2.642-1.8303-4.278-1.9885z"/>
 </g>
</svg>
