<?xml version="1.0" encoding="UTF-8" standalone="no"?>
<!-- Created with Inkscape (http://www.inkscape.org/) -->
<svg id="svg3495" xmlns:rdf="http://www.w3.org/1999/02/22-rdf-syntax-ns#" xmlns="http://www.w3.org/2000/svg" height="24" width="24" version="1.1" xmlns:cc="http://creativecommons.org/ns#" xmlns:xlink="http://www.w3.org/1999/xlink" xmlns:dc="http://purl.org/dc/elements/1.1/">
 <defs id="defs3497">
  <linearGradient id="linearGradient3859" y2="11" gradientUnits="userSpaceOnUse" x2="19.5" gradientTransform="matrix(0,1,-1,0,23,25)" y1="11" x1="2.5">
   <stop id="stop3823" style="stop-color:#f7f7f7" offset="0"/>
   <stop id="stop3825" style="stop-color:#ddd" offset="1"/>
  </linearGradient>
  <linearGradient id="linearGradient3870" y2="42" gradientUnits="userSpaceOnUse" x2="25" gradientTransform="translate(-8,1)" y1="45" x1="25">
   <stop id="stop3962" style="stop-opacity:0" offset="0"/>
   <stop id="stop3970" offset=".5"/>
   <stop id="stop3964" style="stop-opacity:0" offset="1"/>
  </linearGradient>
  <radialGradient id="radialGradient3873" gradientUnits="userSpaceOnUse" cy="43.5" cx="9" gradientTransform="matrix(1 0 0 .75 -4 11.875)" r="2">
   <stop id="stop3946" offset="0"/>
   <stop id="stop3948" style="stop-opacity:0" offset="1"/>
  </radialGradient>
  <radialGradient id="radialGradient3876" gradientUnits="userSpaceOnUse" cy="43.5" cx="40" gradientTransform="matrix(1 0 0 .75 -21 11.875)" r="2">
   <stop id="stop3954" offset="0"/>
   <stop id="stop3956" style="stop-opacity:0" offset="1"/>
  </radialGradient>
  <linearGradient id="linearGradient3987" y2="22" gradientUnits="userSpaceOnUse" x2="12" y1="-2" x1="12">
   <stop id="stop3924" style="stop-color:#a0a0a0" offset="0"/>
   <stop id="stop3926" style="stop-color:#cacaca" offset="1"/>
  </linearGradient>
 </defs>
 <metadata id="metadata3500">
  <rdf:RDF>
   <cc:Work rdf:about="">
    <dc:format>image/svg+xml</dc:format>
    <dc:type rdf:resource="http://purl.org/dc/dcmitype/StillImage"/>
    <dc:title/>
   </cc:Work>
  </rdf:RDF>
 </metadata>
 <g id="layer1" transform="translate(0,-24)">
  <g id="g3878" style="opacity:.3">
   <path id="rect3940" d="m19 43v3h0.5c0.831 0 1.5-0.669 1.5-1.5s-0.669-1.5-1.5-1.5h-0.5z" style="opacity:1;fill:url(#radialGradient3876)"/>
   <path id="rect3942" d="m4.4062 43c-0.779 0-1.4062 0.627-1.4062 1.406v0.1875c0 0.779 0.6272 1.406 1.4062 1.406h0.5938v-3h-0.5938z" style="opacity:1;fill:url(#radialGradient3873)"/>
   <path id="rect3938" d="m5 43h14v3h-14z" style="opacity:1;fill:url(#linearGradient3870)"/>
  </g>
  <path id="rect2998" style="color:#000000;fill:url(#linearGradient3859)" d="m20.5 30c0-1.3764-1.1236-2.5-2.5-2.5h-12c-1.3764 0-2.5 1.1236-2.5 2.5v12c0 1.3764 1.1236 2.5 2.5 2.5h12c1.3764 0 2.5-1.1236 2.5-2.5v-12z"/>
  <path id="path3018" style="color:#000000;fill:none" d="m6 28c-1.108 0-2 0.892-2 2v12c0 1.108 0.892 2 2 2h12c1.108 0 2-0.892 2-2v-12c0-1.108-0.892-2-2-2z"/>
  <path id="path3861" d="m20.5 30c0-1.3764-1.1236-2.5-2.5-2.5h-12c-1.3764 0-2.5 1.1236-2.5 2.5v12c0 1.3764 1.1236 2.5 2.5 2.5h12c1.3764 0 2.5-1.1236 2.5-2.5v-12z" style="opacity:0.41;color:#000000;stroke:#000;fill:none"/>
 </g>
 <g id="layer2" transform="translate(0,2)">
  <path id="path3994" d="m12.012 5.1664c1.1844 0 2.3455 0.35561 3.3367 1.05 0.31687 0.22167 0.385 0.65149 0.16333 0.96833-0.2212 0.31689-0.65193 0.39712-0.96833 0.175-0.7658-0.53622-1.6623-0.80172-2.5783-0.79333-0.1316 0-0.25667 0-0.385 0.0117-0.0392 0.004-0.0775 0.0184-0.11667 0.0233-0.10546 0.013-0.21233 0.0265-0.315 0.0467-0.0457 0.009-0.0957 0.013-0.14 0.0233-0.10126 0.0229-0.20486 0.0518-0.30333 0.0817-0.0313 0.01-0.0621 0.0247-0.0933 0.035-0.11247 0.0368-0.21794 0.0714-0.32667 0.11667-0.0112 0.005-0.0243 0.007-0.035 0.0117-0.6524 0.28044-1.2217 0.71961-1.6683 1.26-0.003 0.005-0.009 0.008-0.0117 0.0117-0.62813 0.76484-1.0029 1.735-1.0033 2.8h1.1667l-1.8667 2.8-1.8667-2.8h1.1667c0-1.2235 0.3794-2.3509 1.0262-3.2899 0.009-0.0161 0.0126-0.0319 0.0233-0.0467 0.0803-0.11479 0.1694-0.21934 0.25666-0.32667 0.0103-0.013 0.0243-0.0337 0.035-0.0467 0.59174-0.71822 1.3277-1.2708 2.17-1.6333 0.0233-0.0103 0.0467-0.0251 0.07-0.035 0.1344-0.0555 0.26973-0.10545 0.40833-0.15167 0.0499-0.0166 0.1008-0.0314 0.15167-0.0467 0.12086-0.0368 0.24966-0.0649 0.37333-0.0933 0.0681-0.0157 0.12926-0.0332 0.19833-0.0467 0.0341-0.006 0.0714-0.0175 0.105-0.0233 0.0924-0.0162 0.1876-0.0229 0.28-0.035 0.0639-0.008 0.12226-0.0171 0.18666-0.0233 0.15494-0.0143 0.31267-0.0206 0.46667-0.0233h0.0817 0.0117zm5.1216 3.0333 1.8667 2.8h-1.1667c0 1.2273-0.38826 2.3609-1.0383 3.3017-0.008 0.013-0.0144 0.022-0.0233 0.035-0.0672 0.0961-0.13767 0.189-0.21 0.28-0.0271 0.0345-0.0537 0.0714-0.0817 0.105-0.1064 0.12923-0.22213 0.24311-0.33833 0.36166-0.0112 0.0117-0.0126 0.0242-0.0233 0.035-0.39013 0.39057-0.8386 0.72845-1.3183 0.99167-0.0126 0.008-0.0214 0.0161-0.035 0.0233-0.13813 0.0742-0.2758 0.13488-0.42 0.19833-0.036 0.0153-0.0803 0.0309-0.11667 0.0467-0.1232 0.0509-0.24593 0.0975-0.37333 0.14-0.0602 0.0207-0.11387 0.0395-0.175 0.0583-0.11153 0.0332-0.2352 0.0663-0.35 0.0933-0.0761 0.0175-0.1442 0.0318-0.22167 0.0467-0.0322 0.006-0.0616 0.0179-0.0933 0.0233-0.10827 0.0188-0.2184 0.0337-0.32667 0.0467-0.0392 0.004-0.0775 0.008-0.11666 0.0117-0.1946 0.0188-0.38967 0.035-0.58334 0.035-1.1858 0-2.344-0.36633-3.3366-1.0617-0.3164-0.22211-0.39667-0.66316-0.175-0.98 0.22213-0.31733 0.66406-0.38544 0.98-0.16333 0.77139 0.54039 1.6674 0.8059 2.59 0.79333 0.1218 0 0.2422 0 0.36166-0.0117 0.049-0.005 0.10267-0.0175 0.15167-0.0233 0.0943-0.0126 0.18807-0.0287 0.28-0.0467 0.0565-0.0108 0.1078-0.022 0.16333-0.035 0.0901-0.0211 0.1806-0.044 0.26834-0.07 0.0424-0.013 0.0863-0.0211 0.12833-0.035 0.10127-0.0341 0.20533-0.0756 0.30333-0.11666 0.0224-0.009 0.0481-0.0135 0.07-0.0233 0.1148-0.0504 0.217-0.10411 0.32668-0.16334 0.005-0.005 0.0182-0.009 0.0233-0.0117 0.371-0.2039 0.7056-0.4611 1.0033-0.75833l0.0117-0.0117c0.0924-0.0928 0.18435-0.19039 0.26834-0.29167 0.0177-0.0215 0.0406-0.0481 0.0583-0.07 0.6062-0.75833 0.96833-1.7094 0.96833-2.7533h-1.1666l1.8666-2.8z" style="opacity:.4;enable-background:new;fill:#fff"/>
  <path id="path3849" style="enable-background:new;fill:url(#linearGradient3987)" d="m12.012 4.1667c1.1844 0 2.3455 0.35561 3.3367 1.05 0.31687 0.22167 0.385 0.65149 0.16333 0.96833-0.2212 0.31689-0.65193 0.39712-0.96833 0.175-0.7658-0.53622-1.6623-0.80172-2.5783-0.79333-0.1316 0-0.25667 0-0.385 0.0117-0.0392 0.004-0.0775 0.0184-0.11667 0.0233-0.10546 0.013-0.21233 0.0265-0.315 0.0467-0.0457 0.009-0.0957 0.013-0.14 0.0233-0.10126 0.0229-0.20486 0.0518-0.30333 0.0817-0.0313 0.01-0.0621 0.0247-0.0933 0.035-0.11247 0.0368-0.21794 0.0714-0.32667 0.11667-0.0112 0.005-0.0243 0.007-0.035 0.0117-0.6524 0.28044-1.2217 0.71961-1.6683 1.26-0.003 0.005-0.009 0.008-0.0117 0.0117-0.62813 0.76484-1.0029 1.735-1.0033 2.8h1.1667l-1.8667 2.8-1.8667-2.8h1.1667c0.00046-1.2236 0.37986-2.351 1.0267-3.29 0.009-0.0161 0.0126-0.0319 0.0233-0.0467 0.0803-0.11479 0.1694-0.21934 0.25666-0.32667 0.0103-0.013 0.0243-0.0337 0.035-0.0467 0.59174-0.71822 1.3277-1.2708 2.17-1.6333 0.0233-0.0103 0.0467-0.0251 0.07-0.035 0.1344-0.0555 0.26973-0.10545 0.40833-0.15167 0.0499-0.0166 0.1008-0.0314 0.15167-0.0467 0.12086-0.0368 0.24966-0.0649 0.37333-0.0933 0.0681-0.0157 0.12926-0.0332 0.19833-0.0467 0.0341-0.006 0.0714-0.0175 0.105-0.0233 0.0924-0.0162 0.1876-0.0229 0.28-0.035 0.0639-0.008 0.12226-0.0171 0.18666-0.0233 0.15494-0.0143 0.31267-0.0206 0.46667-0.0233h0.0817 0.0117zm5.1216 3.0333 1.8667 2.8h-1.1667c0 1.2273-0.38826 2.3609-1.0383 3.3017-0.008 0.013-0.0144 0.022-0.0233 0.035-0.0672 0.0961-0.13767 0.189-0.21 0.28-0.0271 0.0345-0.0537 0.0714-0.0817 0.105-0.1064 0.12923-0.22213 0.24311-0.33833 0.36166-0.0112 0.0117-0.0126 0.0242-0.0233 0.035-0.39013 0.39057-0.8386 0.72845-1.3183 0.99167-0.0126 0.008-0.0214 0.0161-0.035 0.0233-0.13813 0.0742-0.2758 0.13488-0.42 0.19833-0.036 0.0153-0.0803 0.0309-0.11667 0.0467-0.1232 0.0509-0.24593 0.0975-0.37333 0.14-0.0602 0.0207-0.11387 0.0395-0.175 0.0583-0.11153 0.0332-0.2352 0.0663-0.35 0.0933-0.0761 0.0175-0.1442 0.0318-0.22167 0.0467-0.0322 0.006-0.0616 0.0179-0.0933 0.0233-0.10827 0.0188-0.2184 0.0337-0.32667 0.0467-0.0392 0.004-0.0775 0.008-0.11666 0.0117-0.1946 0.0188-0.38967 0.035-0.58334 0.035-1.1858 0-2.344-0.36633-3.3366-1.0617-0.3164-0.22211-0.39667-0.66316-0.175-0.98 0.22213-0.31733 0.66406-0.38544 0.98-0.16333 0.77139 0.54039 1.6674 0.8059 2.59 0.79333 0.1218 0 0.2422 0 0.36166-0.0117 0.049-0.005 0.10267-0.0175 0.15167-0.0233 0.0943-0.0126 0.18807-0.0287 0.28-0.0467 0.0565-0.0108 0.1078-0.022 0.16333-0.035 0.0901-0.0211 0.1806-0.044 0.26834-0.07 0.0424-0.013 0.0863-0.0211 0.12833-0.035 0.10127-0.0341 0.20533-0.0756 0.30333-0.11666 0.0224-0.009 0.0481-0.0135 0.07-0.0233 0.1148-0.0504 0.217-0.10411 0.32668-0.16334 0.005-0.005 0.0182-0.009 0.0233-0.0117 0.371-0.2039 0.7056-0.4611 1.0033-0.75833l0.0117-0.0117c0.0924-0.0928 0.18435-0.19039 0.26834-0.29167 0.0177-0.0215 0.0406-0.0481 0.0583-0.07 0.6062-0.75833 0.96833-1.7094 0.96833-2.7533h-1.1666l1.8666-2.8z"/>
  <path id="path3989" style="opacity:.1;enable-background:new" d="m11.906 6.1562c-0.154 0.0028-0.314 0.017-0.468 0.0313-0.065 0.0062-0.124 0.0233-0.188 0.0313-0.092 0.012-0.158 0.015-0.25 0.0312-0.034 0.0058-0.091 0.0252-0.125 0.0312-0.069 0.0136-0.119 0.0156-0.187 0.0313-0.124 0.0284-0.255 0.0569-0.376 0.0937-0.05 0.0154-0.106 0.046-0.156 0.0626-0.138 0.0462-0.2716 0.1007-0.406 0.1562-0.0233 0.0099-0.0392 0.021-0.0625 0.0312-0.8423 0.3626-1.5958 0.9068-2.1875 1.625-0.0107 0.013-0.021 0.0183-0.0312 0.0313-0.0873 0.1073-0.1698 0.229-0.25 0.3437-0.0108 0.0148-0.0223 0.0152-0.0313 0.0313-0.6468 0.9389-1.0308 2.0885-1.0313 3.3125h-1.1562l0.6875 1h0.4687c0.0005-1.224 0.3845-2.374 1.0313-3.3125 0.009-0.0161 0.0205-0.0165 0.0313-0.0313 0.0802-0.1147 0.1627-0.2364 0.25-0.3437 0.0102-0.013 0.0205-0.0183 0.0312-0.0313 0.5917-0.7182 1.3452-1.2624 2.1875-1.625 0.0233-0.0102 0.0392-0.0213 0.0625-0.0312 0.1344-0.0555 0.268-0.11 0.406-0.1562 0.05-0.0166 0.106-0.0472 0.156-0.0626 0.121-0.0368 0.252-0.0653 0.376-0.0937 0.068-0.0157 0.118-0.0177 0.187-0.0313 0.034-0.006 0.091-0.0254 0.125-0.0312 0.092-0.0162 0.158-0.0192 0.25-0.0312 0.064-0.008 0.123-0.0251 0.188-0.0313 0.154-0.0143 0.314-0.0285 0.468-0.0313h0.094c1.184 0 2.353 0.3682 3.344 1.0626 0.026 0.0184 0.039 0.0413 0.062 0.0624 0.034-0.032 0.066-0.0541 0.094-0.0937 0.222-0.3168 0.161-0.7471-0.156-0.9687-0.991-0.6944-2.16-1.0626-3.344-1.0626h-0.094zm5.219 3.0313l-1.844 2.8125h0.657l1.187-1.812 1.219 1.812h0.656l-1.875-2.8125zm-9.4375 2.8125c-0.0741 0.32-0.1249 0.656-0.125 1h0.5l0.6563-1h-1.0313zm8.6245 1c-0.152 0.643-0.441 1.247-0.843 1.75-0.018 0.022-0.045 0.041-0.063 0.062-0.084 0.102-0.189 0.22-0.281 0.313-0.298 0.297-0.629 0.546-1 0.75-0.005 0.003-0.026 0.026-0.031 0.031-0.11 0.059-0.198 0.106-0.313 0.156-0.022 0.01-0.04 0.023-0.062 0.032-0.098 0.041-0.211 0.059-0.313 0.094-0.042 0.013-0.082 0.049-0.125 0.062-0.087 0.026-0.191 0.041-0.281 0.062-0.056 0.014-0.1 0.021-0.156 0.032-0.092 0.018-0.187 0.018-0.282 0.031-0.048 0.006-0.107 0.026-0.156 0.031-0.119 0.012-0.253 0-0.375 0-0.922 0.013-1.791-0.241-2.5622-0.781-0.316-0.222-0.7779-0.161-1 0.156-0.1963 0.281-0.1377 0.669 0.0937 0.907 0.2373-0.23 0.6266-0.26 0.9063-0.063 0.7712 0.54 1.6402 0.794 2.5622 0.781 0.122 0 0.256 0.012 0.375 0 0.049-0.005 0.108-0.025 0.156-0.031 0.095-0.013 0.19-0.013 0.282-0.031 0.056-0.011 0.1-0.018 0.156-0.032 0.09-0.021 0.194-0.036 0.281-0.062 0.043-0.013 0.083-0.049 0.125-0.062 0.102-0.035 0.215-0.053 0.313-0.094 0.022-0.009 0.04-0.022 0.062-0.032 0.115-0.05 0.203-0.097 0.313-0.156 0.005-0.005 0.026-0.028 0.031-0.031 0.371-0.204 0.702-0.453 1-0.75 0.092-0.093 0.197-0.211 0.281-0.313 0.018-0.021 0.045-0.04 0.063-0.062 0.606-0.758 0.969-1.706 0.969-2.75h-0.126z" transform="translate(0,-2)"/>
 </g>
</svg>
