<?xml version="1.0" encoding="UTF-8" standalone="no"?>
<!-- Created with Inkscape (http://www.inkscape.org/) -->
<svg id="svg3495" xmlns:rdf="http://www.w3.org/1999/02/22-rdf-syntax-ns#" xmlns="http://www.w3.org/2000/svg" height="24" width="24" version="1.1" xmlns:cc="http://creativecommons.org/ns#" xmlns:xlink="http://www.w3.org/1999/xlink" xmlns:dc="http://purl.org/dc/elements/1.1/">
 <defs id="defs3497">
  <linearGradient id="linearGradient3922">
   <stop id="stop3924" style="stop-color:#a0a0a0" offset="0"/>
   <stop id="stop3926" style="stop-color:#cacaca" offset="1"/>
  </linearGradient>
  <linearGradient id="linearGradient3859" y2="11" gradientUnits="userSpaceOnUse" x2="19.5" gradientTransform="matrix(0,1,-1,0,23,25)" y1="11" x1="2.5">
   <stop id="stop3823" style="stop-color:#f7f7f7" offset="0"/>
   <stop id="stop3825" style="stop-color:#ddd" offset="1"/>
  </linearGradient>
  <linearGradient id="linearGradient3870" y2="42" gradientUnits="userSpaceOnUse" x2="25" gradientTransform="translate(-8,1)" y1="45" x1="25">
   <stop id="stop3962" style="stop-opacity:0" offset="0"/>
   <stop id="stop3970" offset=".5"/>
   <stop id="stop3964" style="stop-opacity:0" offset="1"/>
  </linearGradient>
  <radialGradient id="radialGradient3873" gradientUnits="userSpaceOnUse" cy="43.5" cx="9" gradientTransform="matrix(1 0 0 .75 -4 11.875)" r="2">
   <stop id="stop3946" offset="0"/>
   <stop id="stop3948" style="stop-opacity:0" offset="1"/>
  </radialGradient>
  <radialGradient id="radialGradient3876" gradientUnits="userSpaceOnUse" cy="43.5" cx="40" gradientTransform="matrix(1 0 0 .75 -21 11.875)" r="2">
   <stop id="stop3954" offset="0"/>
   <stop id="stop3956" style="stop-opacity:0" offset="1"/>
  </radialGradient>
  <linearGradient id="linearGradient3810" y2="220.5" xlink:href="#linearGradient3922" gradientUnits="userSpaceOnUse" x2="562" y1="220.5" x1="550"/>
  <linearGradient id="linearGradient3818" y2="84.5" xlink:href="#linearGradient3922" gradientUnits="userSpaceOnUse" x2="532.5" y1="60.5" x1="532.5"/>
 </defs>
 <metadata id="metadata3500">
  <rdf:RDF>
   <cc:Work rdf:about="">
    <dc:format>image/svg+xml</dc:format>
    <dc:type rdf:resource="http://purl.org/dc/dcmitype/StillImage"/>
    <dc:title/>
   </cc:Work>
  </rdf:RDF>
 </metadata>
 <g id="layer1" transform="translate(0,-24)">
  <g id="g3878" style="opacity:.3">
   <path id="rect3940" d="m19 43v3h0.5c0.831 0 1.5-0.669 1.5-1.5s-0.669-1.5-1.5-1.5h-0.5z" style="opacity:1;fill:url(#radialGradient3876)"/>
   <path id="rect3942" d="m4.4062 43c-0.779 0-1.4062 0.627-1.4062 1.406v0.1875c0 0.779 0.6272 1.406 1.4062 1.406h0.5938v-3h-0.5938z" style="opacity:1;fill:url(#radialGradient3873)"/>
   <path id="rect3938" d="m5 43h14v3h-14z" style="opacity:1;fill:url(#linearGradient3870)"/>
  </g>
  <path id="rect2998" style="color:#000000;fill:url(#linearGradient3859)" d="m20.5 30c0-1.3764-1.1236-2.5-2.5-2.5h-12c-1.3764 0-2.5 1.1236-2.5 2.5v12c0 1.3764 1.1236 2.5 2.5 2.5h12c1.3764 0 2.5-1.1236 2.5-2.5v-12z"/>
  <path id="path3018" style="color:#000000;fill:none" d="m6 28c-1.108 0-2 0.892-2 2v12c0 1.108 0.892 2 2 2h12c1.108 0 2-0.892 2-2v-12c0-1.108-0.892-2-2-2z"/>
  <path id="path3861" d="m20.5 30c0-1.3764-1.1236-2.5-2.5-2.5h-12c-1.3764 0-2.5 1.1236-2.5 2.5v12c0 1.3764 1.1236 2.5 2.5 2.5h12c1.3764 0 2.5-1.1236 2.5-2.5v-12z" style="opacity:0.41;color:#000000;stroke:#000;fill:none"/>
 </g>
 <g id="layer2" transform="translate(0,2)">
  <g id="g3830" style="opacity:.4;fill:#fff" transform="translate(-544.5,-209.5)">
   <path id="path3832" style="color:#bebebe;fill:#fff" d="m535.5 66c-1.3807 0-2.5 1.1193-2.5 2.5 0 0.21842 0.0411 0.42306 0.0937 0.625l-2.9687 1.4688c-0.43-0.37-1-0.594-1.62-0.594-1.3807 0-2.5 1.1193-2.5 2.5s1.1193 2.5 2.5 2.5c0.61672 0 1.189-0.22358 1.625-0.59375l2.9688 1.4688c-0.05 0.202-0.09 0.407-0.09 0.625 0 1.3807 1.1193 2.5 2.5 2.5s2.5-1.1193 2.5-2.5-1.1193-2.5-2.5-2.5c-0.61672 0-1.189 0.22358-1.625 0.59375l-2.97-1.469c0.05-0.202 0.09-0.407 0.09-0.625 0-0.21842-0.0411-0.42306-0.0937-0.625l2.9687-1.4688c0.43 0.37 1 0.594 1.62 0.594 1.3807 0 2.5-1.1193 2.5-2.5s-1.1193-2.5-2.5-2.5z" transform="translate(24,148)"/>
  </g>
  <g id="g6018" style="fill:url(#linearGradient3810)" transform="translate(-544.5,-210.5)">
   <path id="path8436-3-3" style="color:#bebebe;fill:url(#linearGradient3818)" d="m535.5 66c-1.3807 0-2.5 1.1193-2.5 2.5 0 0.21842 0.0411 0.42306 0.0937 0.625l-2.9687 1.4688c-0.43-0.37-1-0.594-1.62-0.594-1.3807 0-2.5 1.1193-2.5 2.5s1.1193 2.5 2.5 2.5c0.61672 0 1.189-0.22358 1.625-0.59375l2.9688 1.4688c-0.05 0.202-0.09 0.407-0.09 0.625 0 1.3807 1.1193 2.5 2.5 2.5s2.5-1.1193 2.5-2.5-1.1193-2.5-2.5-2.5c-0.61672 0-1.189 0.22358-1.625 0.59375l-2.97-1.469c0.05-0.202 0.09-0.407 0.09-0.625 0-0.21842-0.0411-0.42306-0.0937-0.625l2.9687-1.4688c0.43 0.37 1 0.594 1.62 0.594 1.3807 0 2.5-1.1193 2.5-2.5s-1.1193-2.5-2.5-2.5z" transform="translate(24,148)"/>
  </g>
  <g id="g3820" transform="translate(-544.5,-210.5)">
   <path id="path3822" style="opacity:.1;color:#bebebe" d="m15 5.5c-1.381 0-2.5 1.1193-2.5 2.5 0 0.1634 0.029 0.3161 0.062 0.4688 0.245-1.1241 1.241-1.9688 2.438-1.9688 1.208 0 2.204 0.8608 2.438 2 0.033-0.1627 0.062-0.3274 0.062-0.5 0-1.3807-1.119-2.5-2.5-2.5zm-2.469 3.1562l-2.906 1.4378c-0.436-0.3704-1.0083-0.594-1.625-0.594-1.3807 0-2.5 1.119-2.5 2.5 0 0.173 0.0292 0.337 0.0625 0.5 0.2331-1.139 1.2294-2 2.4375-2 0.6167 0 1.189 0.224 1.625 0.594l2.969-1.469c-0.053-0.2019-0.094-0.4066-0.094-0.625 0-0.1182 0.015-0.23 0.031-0.3438zm-2.093 3.6878l-0.032 0.031c0.011 0.041 0.022 0.084 0.032 0.125 0.011-0.05-0.009-0.106 0-0.156zm0 0.312c0.02 0.114 0.062 0.223 0.062 0.344 0 0.218-0.041 0.423-0.094 0.625l2.969 1.469c0.436-0.37 1.008-0.594 1.625-0.594 1.208 0 2.204 0.861 2.438 2 0.033-0.163 0.062-0.327 0.062-0.5 0-1.381-1.119-2.5-2.5-2.5-0.617 0-1.189 0.224-1.625 0.594l-2.937-1.438zm2.093 3.688c0.008 0.052 0.021 0.105 0.031 0.156 0.01-0.041 0.021-0.084 0.032-0.125l-0.063-0.031z" transform="translate(544.5,208.5)"/>
  </g>
 </g>
</svg>
