<?xml version="1.0" encoding="UTF-8" standalone="no"?>
<!-- Created with Inkscape (http://www.inkscape.org/) -->
<svg id="svg5400" xmlns:rdf="http://www.w3.org/1999/02/22-rdf-syntax-ns#" xmlns="http://www.w3.org/2000/svg" height="16px" width="16px" version="1.1" xmlns:cc="http://creativecommons.org/ns#" xmlns:xlink="http://www.w3.org/1999/xlink" xmlns:dc="http://purl.org/dc/elements/1.1/">
 <defs id="defs5402">
  <clipPath id="clipPath4308" clipPathUnits="userSpaceOnUse">
   <path id="path4310" style="opacity:.4;color:#000000;enable-background:new;fill:#fff" d="m424 145c-1.6568 0-3 1.3432-3 3s1.3432 3 3 3 3-1.3432 3-3-1.3432-3-3-3zm0 2c0.55228 0 1 0.44772 1 1s-0.44772 1-1 1-1-0.44772-1-1 0.44772-1 1-1z"/>
  </clipPath>
  <clipPath id="clipPath3271" clipPathUnits="userSpaceOnUse">
   <rect id="rect3273" style="fill:#fff;fill-rule:evenodd" height="59" width="118" y="160" x="5"/>
  </clipPath>
  <linearGradient id="linearGradient3917" y2="64" xlink:href="#linearGradient3236" gradientUnits="userSpaceOnUse" x2="123" gradientTransform="matrix(-.98504 .17149 -.17149 -.98504 138.02 271.07)" y1="64" x1="5"/>
  <linearGradient id="linearGradient3236">
   <stop id="stop3238" style="stop-color:#fff;stop-opacity:0" offset="0"/>
   <stop id="stop3240" style="stop-color:#fffc2b;stop-opacity:.23438" offset="0.35"/>
   <stop id="stop3242" style="stop-color:#46d15d;stop-opacity:.21875" offset=".5"/>
   <stop id="stop3244" style="stop-color:#46d1aa;stop-opacity:0" offset="0.65"/>
   <stop id="stop3246" style="stop-color:#fff;stop-opacity:0" offset="1"/>
  </linearGradient>
  <linearGradient id="linearGradient3919" y2="64" xlink:href="#linearGradient3265" gradientUnits="userSpaceOnUse" x2="123" gradientTransform="matrix(-0.853 .52164 -.52164 -0.853 151.98 240.21)" y1="64" x1="5"/>
  <linearGradient id="linearGradient3265">
   <stop id="stop3267" style="stop-color:#fff;stop-opacity:0" offset="0"/>
   <stop id="stop3252" style="stop-color:#afcff3;stop-opacity:0" offset=".2"/>
   <stop id="stop3269" style="stop-color:#60a0e7;stop-opacity:.14844" offset="0.35"/>
   <stop id="stop3271" style="stop-color:#db8ef1;stop-opacity:.21094" offset=".5"/>
   <stop id="stop3273" style="stop-color:#fff;stop-opacity:0" offset="0.65"/>
   <stop id="stop3275" style="stop-color:#fff;stop-opacity:0" offset="1"/>
  </linearGradient>
  <linearGradient id="linearGradient3921" y2="64" xlink:href="#linearGradient3247" gradientUnits="userSpaceOnUse" x2="123" gradientTransform="matrix(-.88145 -.47197 .47197 -.88145 90.207 305.62)" y1="64" x1="5"/>
  <linearGradient id="linearGradient3247">
   <stop id="stop3249" style="stop-color:#fff;stop-opacity:0" offset="0"/>
   <stop id="stop3293" style="stop-color:#d5d5d5;stop-opacity:0" offset="0.3"/>
   <stop id="stop3251" style="stop-color:#eb8888;stop-opacity:.25781" offset=".5"/>
   <stop id="stop3295" style="stop-color:#e28f25;stop-opacity:0" offset="0.7"/>
   <stop id="stop3253" style="stop-color:#fff;stop-opacity:0" offset="1"/>
  </linearGradient>
  <linearGradient id="linearGradient3972" y2="64" xlink:href="#linearGradient3247" gradientUnits="userSpaceOnUse" x2="123" gradientTransform="matrix(-.021479 .12527 .12526 .021480 1.3578 -1.392)" y1="64" x1="5"/>
  <linearGradient id="linearGradient4031" y2="14.203" gradientUnits="userSpaceOnUse" x2="35.391" gradientTransform="matrix(0 .45715 -.45715 0 18.56 -2.9715)" y1="32.416" x1="12.274">
   <stop id="stop3265-8" style="stop-color:#eee" offset="0"/>
   <stop id="stop3267-9" style="stop-color:#f4f4f4" offset=".5"/>
   <stop id="stop3269-2" style="stop-color:#d8d8d8" offset="1"/>
  </linearGradient>
 </defs>
 <metadata id="metadata5405">
  <rdf:RDF>
   <cc:Work rdf:about="">
    <dc:format>image/svg+xml</dc:format>
    <dc:type rdf:resource="http://purl.org/dc/dcmitype/StillImage"/>
    <dc:title/>
   </cc:Work>
  </rdf:RDF>
 </metadata>
 <g id="layer1">
  <path id="path4556" style="enable-background:new;fill:url(#linearGradient4031)" d="m8 1c-3.8996 0-7 3.1004-7 7 0 3.9 3.1004 7 7 7 3.9 0 7-3.1 7-7 0-3.8996-3.1-7-7-7zm0 3c2.199 0 4 1.8009 4 4 0 2.199-1.801 4-4 4-2.1991 0-4-1.801-4-4 0-2.1991 1.8009-4 4-4z"/>
  <g id="g3289" transform="matrix(.078077 -.10031 .10031 .078080 -18.964 -2.68)">
   <g id="g3266" clip-path="url(#clipPath3271)">
    <path id="path3259" style="fill:url(#linearGradient3917);fill-rule:evenodd" d="m74.118 277.12c32.082-5.59 53.582-36.16 48.002-68.24-5.59-32.08-36.157-53.58-68.238-48-32.081 5.59-53.584 36.16-47.999 68.24s36.154 53.58 68.235 48zm-6.5167-37.432c-11.419 1.9879-22.299-5.6659-24.287-17.085-1.9879-11.419 5.6659-22.299 17.084-24.287 11.419-1.9879 22.299 5.6659 24.287 17.085 1.9879 11.419-5.6659 22.299-17.085 24.287z"/>
    <path id="path3231" style="fill:url(#linearGradient3919);fill-rule:evenodd" d="m94.777 269.33c27.783-16.99 36.543-53.33 19.553-81.11-16.992-27.78-53.326-36.54-81.107-19.55-27.78 16.99-36.539 53.33-19.55 81.11s53.323 36.54 81.104 19.55zm-19.823-32.42c-9.8879 6.0469-22.821 2.9295-28.867-6.9585-6.0469-9.8879-2.9295-22.821 6.9585-28.867 9.8879-6.0469 22.821-2.9295 28.867 6.9584 6.0469 9.8879 2.9295 22.821-6.9585 28.867z"/>
    <path id="path3243" style="fill:url(#linearGradient3921);fill-rule:evenodd" d="m36.154 271.01c28.707 15.371 64.481 4.5478 79.852-24.159s4.5478-64.481-24.159-79.852-64.481-4.5478-79.852 24.159-4.5478 64.481 24.159 79.852zm17.935-33.495c-10.218-5.4711-14.07-18.204-8.5991-28.422 5.4711-10.218 18.204-14.07 28.422-8.5991 10.218 5.4711 14.07 18.204 8.5991 28.422-5.4711 10.218-18.204 14.07-28.422 8.5991z"/>
   </g>
   <g id="g3275" clip-path="url(#clipPath3271)" transform="matrix(1 0 0 -1 0 438)">
    <path id="path3277" style="fill-rule:evenodd;fill:url(#linearGradient3917)" d="m74.118 277.12c32.082-5.59 53.582-36.16 48.002-68.24-5.59-32.08-36.157-53.58-68.238-48-32.081 5.59-53.584 36.16-47.999 68.24s36.154 53.58 68.235 48zm-6.5167-37.432c-11.419 1.9879-22.299-5.6659-24.287-17.085-1.9879-11.419 5.6659-22.299 17.084-24.287 11.419-1.9879 22.299 5.6659 24.287 17.085 1.9879 11.419-5.6659 22.299-17.085 24.287z"/>
    <path id="path3279" style="fill-rule:evenodd;fill:url(#linearGradient3919)" d="m94.777 269.33c27.783-16.99 36.543-53.33 19.553-81.11-16.992-27.78-53.326-36.54-81.107-19.55-27.78 16.99-36.539 53.33-19.55 81.11s53.323 36.54 81.104 19.55zm-19.823-32.42c-9.8879 6.0469-22.821 2.9295-28.867-6.9585-6.0469-9.8879-2.9295-22.821 6.9585-28.867 9.8879-6.0469 22.821-2.9295 28.867 6.9584 6.0469 9.8879 2.9295 22.821-6.9585 28.867z"/>
    <path id="path3281" style="fill:url(#linearGradient3972);fill-rule:evenodd" d="m8 1c-3.8996 0-7 3.1004-7 7 0 3.9 3.1004 7 7 7 3.9 0 7-3.1 7-7 0-3.8996-3.1-7-7-7zm0 3c2.199 0 4 1.8009 4 4 0 2.199-1.801 4-4 4-2.1991 0-4-1.801-4-4 0-2.1991 1.8009-4 4-4zm0 1c-1.655 0-3 1.345-3 3s1.345 3 3 3 3-1.345 3-3-1.345-3-3-3zm-0.0938 0.3438c0.1773-0.0058 0.3498 0.0001 0.5313 0.0312 1.4521 0.249 2.4365 1.6104 2.1875 3.0625s-1.6104 2.4365-3.0625 2.1875-2.4365-1.6104-2.1875-3.0625c0.2179-1.2706 1.2908-2.1788 2.5312-2.2187z" transform="matrix(4.8323 -6.2081 -6.2079 -4.8321 75.004 307.32)"/>
   </g>
  </g>
  <path id="path4295" style="opacity:.4;color:#000000;enable-background:new;fill:#fff" d="m8 5c-1.6568 0-3 1.3432-3 3 0 1.6569 1.3432 3 3 3s3-1.3432 3-3-1.3432-3-3-3zm0 2c0.55228 0 1 0.44772 1 1s-0.44772 1-1 1-1-0.44772-1-1 0.44772-1 1-1z"/>
  <path id="path4303" style="opacity:.1;stroke-linejoin:round;stroke-width:2;color:#000000;stroke:#000;enable-background:new;fill:none" d="m424 147c0.55228 0 1 0.44772 1 1s-0.44772 1-1 1-1-0.44772-1-1 0.44772-1 1-1z" clip-path="url(#clipPath4308)" transform="translate(-416,-140)"/>
  <path id="path3179" style="opacity:.2;enable-background:new;fill:#fff" d="m8 0.5c-4.1663 0-7.5 3.3337-7.5 7.5 0 0.1668 0.02072 0.336 0.03125 0.5 0.2524-3.9316 3.4692-7 7.4688-7 3.999 0 7.216 3.0684 7.469 7 0.01-0.164 0.031-0.3332 0.031-0.5 0-4.1663-3.334-7.5-7.5-7.5zm-3.4688 8c-0.0228 0.1611-0.0312 0.3328-0.0312 0.5 0 1.927 1.5729 3.5 3.5 3.5s3.5-1.573 3.5-3.5c0-0.1672-0.008-0.3389-0.031-0.5-0.241 1.695-1.7091 3-3.469 3s-3.2278-1.305-3.4688-3z"/>
  <path id="path3964" style="opacity:.41;stroke:#000;enable-background:new;fill:none" d="m8 0.5c-4.1663 0-7.5 3.3337-7.5 7.5s3.3337 7.5 7.5 7.5 7.5-3.3337 7.5-7.5-3.3337-7.5-7.5-7.5zm0 4c1.9271 0 3.5 1.5729 3.5 3.5s-1.5729 3.5-3.5 3.5-3.5-1.5729-3.5-3.5 1.5729-3.5 3.5-3.5z"/>
 </g>
</svg>
