<?xml version="1.0" encoding="UTF-8" standalone="no"?>
<!-- Created with Inkscape (http://www.inkscape.org/) -->
<svg id="svg5400" xmlns:rdf="http://www.w3.org/1999/02/22-rdf-syntax-ns#" xmlns="http://www.w3.org/2000/svg" height="16px" width="16px" version="1.1" xmlns:cc="http://creativecommons.org/ns#" xmlns:xlink="http://www.w3.org/1999/xlink" xmlns:dc="http://purl.org/dc/elements/1.1/">
 <defs id="defs5402">
  <linearGradient id="linearGradient3156" y2="14" gradientUnits="userSpaceOnUse" x2="5" gradientTransform="translate(2,1)" y1="1" x1="5">
   <stop id="stop3806" style="stop-color:#fff" offset="0"/>
   <stop id="stop3808" style="stop-color:#fff;stop-opacity:0" offset="1"/>
  </linearGradient>
  <linearGradient id="linearGradient3159" y2="40" gradientUnits="userSpaceOnUse" x2="144" gradientTransform="matrix(.055556 0 0 .057143 0 -1.1429)" y1="280" x1="144">
   <stop id="stop3864-8-6-6" style="stop-color:#f0f0f0" offset="0"/>
   <stop id="stop3866-9-1-7" style="stop-color:#f9f9f9" offset="1"/>
  </linearGradient>
 </defs>
 <metadata id="metadata5405">
  <rdf:RDF>
   <cc:Work rdf:about="">
    <dc:format>image/svg+xml</dc:format>
    <dc:type rdf:resource="http://purl.org/dc/dcmitype/StillImage"/>
    <dc:title/>
   </cc:Work>
  </rdf:RDF>
 </metadata>
 <g id="layer1">
  <path id="path3029" d="m2 1h12v14h-12z" style="opacity:0.41;stroke-linejoin:round;stroke-width:2;color:#bebebe;stroke:#000;fill:none"/>
  <path id="rect3373-6" style="color:#bebebe;fill:url(#linearGradient3159)" d="m2 1h12v14h-12z"/>
  <path id="path3799" style="color:#bebebe;fill:url(#linearGradient3156)" d="m2 1v14h12v-14zm1 1h10v12h-10z"/>
 </g>
 <g id="layer2">
  <g id="g3057">
   <path id="path26173" style="fill:#89adc2" d="m4.2891 2.8594v-0.8594h-1.2891v0.85938h1.2891"/>
   <path id="path26175" style="fill:#89adc2" d="m5.5391 2.8594v-0.8594h-1.2891v0.85938h1.2891"/>
   <path id="path26177" style="fill:#89adc2" d="m6.7891 2.8594v-0.8594h-1.2891v0.85938h1.2891"/>
   <path id="path26271" style="fill:#b78ed4" d="m4.2891 4.8594v-0.8594h-1.2891v0.85938h1.2891"/>
   <path id="path26273" style="fill:#b78ed4" d="m5.5391 4.8594v-0.8594h-1.2891v0.85938h1.2891"/>
   <path id="path26365" style="fill:#94d48e" d="m4.2891 6.8594v-0.8594h-1.2891v0.85938h1.2891"/>
   <path id="path26369" style="fill:#c0c0c0" d="m6.7891 6.8594v-0.8594h-1.2891v0.85938h1.2891"/>
   <path id="path26405" style="fill:#89adc2" d="m11.797 10.859v-0.85938h-1.2891v0.85938h1.2891"/>
   <path id="path26449" style="fill:#d48eb3" d="m8.0391 4.8594v-0.8594h-1.2891v0.85938h1.2891"/>
   <path id="path26501" style="fill:#94d48e" d="m4.2891 8.8594v-0.8594h-1.2891v0.85938h1.2891"/>
   <path id="path4089" style="fill:#c0c0c0" d="m6.7891 8.8594v-0.8594h-1.2891v0.85938h1.2891"/>
   <path id="path4091" style="fill:#89adc2" d="m9.2969 8.8594v-0.85938h-1.2891v0.85938h1.2891"/>
   <path id="path4093" style="fill:#89adc2" d="m10.539 8.8594v-0.8594h-1.289v0.85938h1.2891"/>
   <path id="path4095" style="fill:#94d48e" d="m4.2891 10.859v-0.859h-1.2891v0.85938h1.2891"/>
   <path id="path4097" style="fill:#c0c0c0" d="m6.7891 10.859v-0.859h-1.2891v0.85938h1.2891"/>
   <path id="path4101" style="fill:#89adc2" d="m10.539 10.859v-0.85938h-1.2891v0.85938h1.2891"/>
   <path id="path4103" style="fill:#de6161" d="m4.2891 12.859v-0.859h-1.2891v0.85938h1.2891"/>
   <path id="path4105" style="fill:#c0c0c0" d="m6.7891 12.859v-0.859h-1.2891v0.85938h1.2891"/>
   <path id="path4107" style="fill:#c0c0c0" d="m8.0391 10.859v-0.859h-1.2891v0.85938h1.2891"/>
  </g>
 </g>
</svg>
