<?xml version="1.0" encoding="UTF-8" standalone="no"?>
<!-- Created with Inkscape (http://www.inkscape.org/) -->
<svg id="svg5400" xmlns:rdf="http://www.w3.org/1999/02/22-rdf-syntax-ns#" xmlns="http://www.w3.org/2000/svg" height="16px" width="16px" version="1.1" xmlns:cc="http://creativecommons.org/ns#" xmlns:xlink="http://www.w3.org/1999/xlink" xmlns:dc="http://purl.org/dc/elements/1.1/">
 <defs id="defs5402">
  <linearGradient id="linearGradient3057" y2="14" gradientUnits="userSpaceOnUse" x2="5" gradientTransform="translate(2,1)" y1="1" x1="5">
   <stop id="stop3806" style="stop-color:#fff" offset="0"/>
   <stop id="stop3808" style="stop-color:#fff;stop-opacity:0" offset="1"/>
  </linearGradient>
  <linearGradient id="linearGradient3060" y2="40" gradientUnits="userSpaceOnUse" x2="144" gradientTransform="matrix(.055556 0 0 .057143 0 -1.1429)" y1="280" x1="144">
   <stop id="stop3864-8-6-6" style="stop-color:#f0f0f0" offset="0"/>
   <stop id="stop3866-9-1-7" style="stop-color:#f9f9f9" offset="1"/>
  </linearGradient>
  <linearGradient id="linearGradient3834" y2="-977.85" gradientUnits="userSpaceOnUse" x2="318.25" gradientTransform="matrix(0.5 0 0 .35556 -152.12 347.68)" y1="-932.85" x1="318.25">
   <stop id="stop20555" style="stop-color:#a348b1" offset="0"/>
   <stop id="stop20557" style="stop-color:#bf7bca" offset="1"/>
  </linearGradient>
 </defs>
 <metadata id="metadata5405">
  <rdf:RDF>
   <cc:Work rdf:about="">
    <dc:format>image/svg+xml</dc:format>
    <dc:type rdf:resource="http://purl.org/dc/dcmitype/StillImage"/>
    <dc:title/>
   </cc:Work>
  </rdf:RDF>
 </metadata>
 <g id="layer1">
  <path id="rect3373-6" style="color:#bebebe;fill:url(#linearGradient3060)" d="m2.0001 1h12v14h-12z"/>
  <path id="rect20578" style="color:#000000;fill-rule:evenodd;enable-background:new;fill:url(#linearGradient3834)" d="m1.0001 1c0-1 0.9375-1 0.9375-1h2.0625v16h-2s-1 0-1-1z"/>
  <path id="path3799" style="opacity:.4;color:#bebebe;fill:url(#linearGradient3057)" d="m2.0001 1v14h12v-14zm1 1h10v12h-10z"/>
  <path id="path3837" style="opacity:0.41;block-progression:tb;text-indent:0;color:#bebebe;text-transform:none" d="m1.8126 0c-0.4584 0.087467-0.82072 0.5334-0.8125 1v14c0.0000524 0.52358 0.47642 0.99995 1 1h12c0.52358-0.000052 0.99995-0.47642 1-1v-14c-0.000052-0.52358-0.47642-0.99995-1-1h-12c-0.031227-0.00147-0.062523-0.00147-0.09375 0-0.031227-0.00147-0.062523-0.00147-0.09375 0zm0.1875 1h12v14h-12z"/>
 </g>
</svg>
