<?xml version="1.0" encoding="UTF-8" standalone="no"?>
<!-- Created with Inkscape (http://www.inkscape.org/) -->
<svg id="svg2436" xmlns:rdf="http://www.w3.org/1999/02/22-rdf-syntax-ns#" xmlns="http://www.w3.org/2000/svg" height="32" width="32" version="1.1" xmlns:cc="http://creativecommons.org/ns#" xmlns:xlink="http://www.w3.org/1999/xlink" xmlns:dc="http://purl.org/dc/elements/1.1/">
 <defs id="defs2438">
  <linearGradient id="linearGradient5273" y2="273.94" gradientUnits="userSpaceOnUse" x2="349" gradientTransform="matrix(.76182 0 0 .76182 -233.87 -176.69)" y1="231.93" x1="349">
   <stop id="stop4970-0" style="stop-color:#f1e6f4" offset="0"/>
   <stop id="stop4972-8" style="stop-color:#c9bcce" offset="1"/>
  </linearGradient>
  <linearGradient id="linearGradient5276" y2="131" gradientUnits="userSpaceOnUse" x2="440" gradientTransform="matrix(2 0 0 2 -863.99 -248)" y1="127" x1="440">
   <stop id="stop11361-4" style="stop-color:#d5cbd7" offset="0"/>
   <stop id="stop11363-4" style="stop-color:#d9bfdf" offset="1"/>
  </linearGradient>
 </defs>
 <metadata id="metadata2441">
  <rdf:RDF>
   <cc:Work rdf:about="">
    <dc:format>image/svg+xml</dc:format>
    <dc:type rdf:resource="http://purl.org/dc/dcmitype/StillImage"/>
    <dc:title/>
   </cc:Work>
  </rdf:RDF>
 </metadata>
 <path id="path11688" style="block-progression:tb;text-indent:0;color:#000000;text-transform:none;fill:url(#linearGradient5276)" d="m1.5004 2.5v1.5 8.5h29v-4.5-1.5h-1.5-9c-0.72136 0.000033-1.2549-0.14697-1.6875-0.4375-0.43256-0.29053-0.73104-0.66854-1.2188-1.1562-0.97544-0.97544-2.6224-2.4062-5.0938-2.4062h-9z"/>
 <path id="path4022" style="opacity:0.41;block-progression:tb;text-indent:0;color:#000000;text-transform:none" d="m1 2v0.5 1.5 4h0.5 0.5v-4-1h1 9c2.2783 0 3.8007 1.3007 4.75 2.25 0.46849 0.4685 0.77043 0.87565 1.2812 1.2188 0.526 0.3531 1.18 0.5312 1.969 0.5312h9 1v1h0.5 0.5v-1.5-0.5h-0.5-1.5-9c-0.653 0-1.067-0.1158-1.406-0.3438-0.355-0.2379-0.65-0.5868-1.156-1.0937-1.002-1.0016-2.774-2.5625-5.438-2.5625h-9-1.5z"/>
 <path id="path13866" d="m1.5004 9.5v18.5s-0.003 0.6505 0.3125 1.2812c0.31546 0.63075 0.85419 1.2188 2.1875 1.2188h24s0.65052 0.0029 1.2812-0.3125c0.63073-0.31537 1.2188-0.85419 1.2188-2.1875v-18.5z" style="opacity:.2;block-progression:tb;text-indent:0;color:#000000;text-transform:none"/>
 <path id="path11690" style="block-progression:tb;text-indent:0;color:#000000;text-transform:none;fill:url(#linearGradient5273)" d="m1.5004 8.5v18.5s-0.003 0.6505 0.3125 1.2812c0.31546 0.63075 0.85419 1.2188 2.1875 1.2188h24s0.65052 0.0029 1.2812-0.3125c0.63073-0.31537 1.2188-0.85419 1.2188-2.1875v-18.5z"/>
 <path id="path4026" style="opacity:.4;block-progression:tb;text-indent:0;color:#000000;text-transform:none;fill:#fff" d="m2 9v1h28v-1z"/>
 <path id="path4024" style="opacity:0.41;block-progression:tb;text-indent:0;color:#000000;text-transform:none" d="m1 8v0.5 18.5s-0.002596 0.7451 0.375 1.5c0.18086 0.36163 0.44178 0.74415 0.875 1.0312 0.4332 0.287 1.0098 0.469 1.75 0.469h24s0.74517 0.0025 1.5-0.375c0.36165-0.18083 0.74414-0.44177 1.0312-0.875 0.287-0.433 0.469-1.01 0.469-1.75v-18.5-0.5h-0.5-29zm1 1h28v18c0 0.59315-0.11666 0.93915-0.28125 1.1875-0.165 0.248-0.387 0.427-0.657 0.562-0.506 0.253-1.062 0.25-1.062 0.25h-24c-0.5932 0-0.9392-0.117-1.1875-0.281-0.2483-0.165-0.4279-0.387-0.5625-0.657-0.2534-0.506-0.25-1.062-0.25-1.062z"/>
 <g id="layer2">
  <path id="path5584" style="opacity:.3;color:#000000;fill-rule:evenodd;enable-background:new;fill:#fff" d="m10.812 12c-0.0237 0.0045-0.0393 0.02485-0.0625 0.03125-0.0791 0.01941-0.15937 0.04621-0.25 0.09375-0.0994 0.05214-0.19803 0.11886-0.28125 0.21875-0.009 0.01084-0.02295 0.02007-0.03125 0.03125-0.057 0.07586-0.0919 0.17368-0.125 0.28125-0.008 0.031-0.024 0.06-0.031 0.094-0.021 0.081-0.0325 0.166-0.031 0.25v7 1 1h1v-1h1v-1-6h5v3h3v8 1h1v-1h1c0.001-0.14516-0.00082-0.73763 0-1v-1c0.00043-0.35608-0.0001-0.57373 0-1v-1-2c-0.002-2.417-0.001-2.346 0-2.438v-0.562l-4-4h-0.562-6.438s-0.05555 0.0011-0.09375 0c-0.0312-0.0015-0.06255-0.0015-0.09375 0zm10.188 14v1h1v-1h-1zm-1 0h-1v1h1v-1zm-1 0v-1h-1v1h1zm-1 0h-1v1h1v-1zm-1 0v-1h-1v1h1zm-1 0h-1v1h1v-1zm-1 0v-1h-1v1h1zm-1 0h-1v1h1v-1zm-1 0v-1h-1v1h1zm-1 0h-1v1h1v-1zm-1 0v-1h-1v1h1zm0-1h1v-1h-1v1zm0-1v-1h-1v1h1zm0-1h1v-1h-1v1z"/>
  <path id="rect12037" style="opacity:.4;color:#000000;fill-rule:evenodd;enable-background:new" d="m10.812 11c-0.023 0.004-0.039 0.025-0.062 0.031-0.079 0.02-0.159 0.046-0.25 0.094-0.099 0.052-0.198 0.119-0.281 0.219-0.009 0.011-0.023 0.02-0.031 0.031-0.058 0.076-0.092 0.174-0.126 0.281-0.008 0.031-0.024 0.06-0.031 0.094-0.021 0.081-0.0325 0.166-0.031 0.25v7 1 1h1v-1h1v-1-6h5v3h3v8 1h1v-1h1c0.001-0.145-0.001-0.738 0-1v-1-1-1-2c-0.002-2.417-0.001-2.346 0-2.438v-0.562l-4-4h-0.562-6.438s-0.056 0.001-0.094 0c-0.031-0.002-0.062-0.002-0.094 0zm10.188 14v1h1v-1h-1zm-1 0h-1v1h1v-1zm-1 0v-1h-1v1h1zm-1 0h-1v1h1v-1zm-1 0v-1h-1v1h1zm-1 0h-1v1h1v-1zm-1 0v-1h-1v1h1zm-1 0h-1v1h1v-1zm-1 0v-1h-1v1h1zm-1 0h-1v1h1v-1zm-1 0v-1h-1v1h1zm0-1h1v-1h-1v1zm0-1v-1h-1v1h1zm0-1h1v-1h-1v1z"/>
 </g>
</svg>
