<?xml version="1.0" encoding="UTF-8" standalone="no"?>
<!-- Created with Inkscape (http://www.inkscape.org/) -->
<svg id="svg4300" xmlns:rdf="http://www.w3.org/1999/02/22-rdf-syntax-ns#" xmlns="http://www.w3.org/2000/svg" height="32" width="32" version="1.1" xmlns:cc="http://creativecommons.org/ns#" xmlns:xlink="http://www.w3.org/1999/xlink" xmlns:dc="http://purl.org/dc/elements/1.1/">
 <defs id="defs4302">
  <linearGradient id="linearGradient3600-8-3">
   <stop id="stop3602-2-5" style="stop-color:#f4f4f4" offset="0"/>
   <stop id="stop3604-5-9" style="stop-color:#dbdbdb" offset="1"/>
  </linearGradient>
  <clipPath id="clipPath3925" clipPathUnits="userSpaceOnUse">
   <path id="path3927" style="color:#000000;fill:url(#linearGradient3929)" d="m9.9735 3.0002c-1.6532 0.039-3.5153 0.1391-5.1659 1.6634-1.6506 1.5242-1.3558 4.0188-1.6115 5.9324-0.00681 0.01239-0.013174 0.02503-0.019061 0.03788-0.29366 4.9035-0.27742 9.8755 0.47728 14.774-0.0001034 0.0063-0.0001034 0.01261 0 0.01891 0.24548 1.297 1.0594 2.6737 2.965 3.198 1.9056 0.52435 4.3613 0.52454 6.638 0.0031 1.1792-0.27048 2.4009-0.99518 2.8255-2.3109 0.0019-0.0054-0.0019-0.01328 0-0.01891 0.55424-1.5719 0.54351-3.19 0.78622-6.2913 0.244-3.101 0.223-7.861-0.384-12.574-0.084-0.6689-0.221-1.4047-0.554-2.084-0.33-0.6719-0.869-1.2796-1.967-1.7627s-2.611-0.5331-3.951-0.586c-0.012722-0.0004117-0.025458-0.0004117-0.03818 0z"/>
  </clipPath>
  <linearGradient id="linearGradient3929" y2="49.956" xlink:href="#linearGradient3600-8-3" gradientUnits="userSpaceOnUse" x2="18.601" gradientTransform="matrix(.61092 0 0 .54243 5.9403 2.2194)" y1=".85446" x1="18.601"/>
  <linearGradient id="linearGradient3065" y2="30" gradientUnits="userSpaceOnUse" x2="10" y1="1" x1="10">
   <stop id="stop3933" style="stop-color:#fff" offset="0"/>
   <stop id="stop3935" style="stop-color:#fff;stop-opacity:0" offset="1"/>
  </linearGradient>
  <linearGradient id="linearGradient3073" y2="15.234" gradientUnits="userSpaceOnUse" x2="15" gradientTransform="translate(6)" y1=".73422" x1="5">
   <stop id="stop3959" style="stop-color:#fff" offset="0"/>
   <stop id="stop3961" style="stop-color:#fff;stop-opacity:0" offset="1"/>
  </linearGradient>
  <linearGradient id="linearGradient3079" y2="49.956" xlink:href="#linearGradient3600-8-3" gradientUnits="userSpaceOnUse" x2="18.601" gradientTransform="matrix(.61092 0 0 .54243 11.94 2.2194)" y1=".85446" x1="18.601"/>
  <radialGradient id="radialGradient3082" gradientUnits="userSpaceOnUse" cy="41.636" cx="23.335" gradientTransform="matrix(.41984 0 0 .13257 6.2031 22.48)" r="22.627">
   <stop id="stop23421-7-7" offset="0"/>
   <stop id="stop23423-0-7" style="stop-opacity:0" offset="1"/>
  </radialGradient>
 </defs>
 <metadata id="metadata4305">
  <rdf:RDF>
   <cc:Work rdf:about="">
    <dc:format>image/svg+xml</dc:format>
    <dc:type rdf:resource="http://purl.org/dc/dcmitype/StillImage"/>
    <dc:title/>
   </cc:Work>
  </rdf:RDF>
 </metadata>
 <path id="path23417-6" d="m25.5 28c0 1.657-4.253 3-9.5 3s-9.5005-1.343-9.5-3c-0.0004-1.657 4.253-3 9.5-3 5.2471 0 9.5005 1.3432 9.5 3z" style="opacity:.3;fill-rule:evenodd;fill:url(#radialGradient3082)"/>
 <path id="path4487" style="color:#000000;fill:url(#linearGradient3079)" d="m15.969 2.5c-1.6646 0.03918-3.7197 0.13727-5.5 1.7812-0.9363 0.8645-1.2957 2.0162-1.469 3.125-0.1715 1.098-0.1955 2.1953-0.3125 3.0938-0.00117 0.009 0.0012 0.02231 0 0.03125v0.0625c-0.2937 4.9041-0.28416 9.8845 0.46875 14.812-0.0001933 0.01178-0.0001933 0.01947 0 0.03125 0.00158 0.01032-0.00159 0.02093 0 0.03125v0.0625c0.27101 1.4319 1.2575 2.9884 3.3438 3.5625 2.0115 0.55349 4.5221 0.57016 6.875 0.03125 1.2955-0.29717 2.6932-1.1249 3.1875-2.6562 0.000238-0.000675 0.02778-0.06216 0.03125-0.09375 0.0012-0.01053-0.000481-0.02218 0-0.03125 0.0016-0.01452-0.000297-0.01977 0-0.03125 0.000015-0.0077 0.000239-0.02487 0-0.03125 0.5304-1.6176 0.54806-3.2703 0.78125-6.25 0.247-3.142 0.207-7.9-0.405-12.655-0.087-0.6898-0.222-1.491-0.594-2.25-0.372-0.7584-1.034-1.479-2.219-2-1.158-0.5093-2.571-0.5452-3.844-0.5938v-0.03125h-0.28125-0.0625z"/>
 <path id="path3911" style="opacity:0.41;block-progression:tb;text-indent:0;color:#000000;text-transform:none" d="m15.938 2c-1.676 0.0394-3.903 0.1738-5.813 1.9375-1.0469 0.9667-1.4431 2.2418-1.625 3.4063-0.1729 1.1066-0.1842 2.1359-0.2812 2.9682l-0.03125 0.0625v0.1875c-0.29314 4.8948-0.27772 9.8971 0.46875 14.844-0.0002832 0.01725-0.0002832 0.014 0 0.03125v0.09375c0.00159 0.01034-0.00159 0.02091 0 0.03125v0.0625c0.29655 1.5668 1.4205 3.3449 3.6875 3.9688 2.1174 0.58264 4.6958 0.55639 7.125 0 1.3995-0.32104 2.9549-1.2201 3.5312-2.9375h0.03125c0.0029-0.0088-0.0028-0.02242 0-0.03125 0.0068-0.0192-0.0066-0.04332 0-0.0625 0.0132-0.05222 0.02727-0.08878 0.03125-0.125 0.0013-0.01201-0.000844-0.02022 0-0.03125 0.0063-0.05885 0.03255-0.08962 0.03125-0.125 0.51621-1.6647 0.55563-3.3045 0.78125-6.1875 0.25-3.183 0.213-7.984-0.405-12.78-0.09-0.7107-0.245-1.567-0.657-2.4058-0.414-0.8448-1.166-1.691-2.437-2.25-1.191-0.524-2.516-0.5795-3.719-0.625l-0.031-0.0312h-0.563-0.124zm0.03125 1c0.01272-0.0004117 0.01853-0.0004117 0.03125 0 1.3399 0.05286 2.8705 0.11065 3.9688 0.59375s1.6392 1.0781 1.9688 1.75c0.3332 0.67926 0.44718 1.4253 0.53125 2.0938 0.60728 4.7137 0.64896 9.4612 0.40625 12.562-0.24271 3.1013-0.22701 4.7406-0.78125 6.3125-0.42464 1.3157-1.6646 2.042-2.8438 2.3125-2.2766 0.52144-4.7194 0.52435-6.625 0s-2.7233-1.8905-2.9688-3.1875c-0.0001034-0.0063-0.0001034-0.02495 0-0.03125-0.7549-4.898-0.7626-9.877-0.4689-14.78 0.0059-0.013-0.0068-0.019 0-0.031 0.2557-1.9136-0.0256-4.4135 1.6245-5.9378 1.651-1.5242 3.504-1.6173 5.157-1.6562z"/>
 <path id="path3892" style="color:#000000;fill:none" d="m10.808 4.6636c-1.651 1.5242-1.3562 4.0188-1.6119 5.9324-0.00681 0.01239-0.013174 0.02503-0.019061 0.03788-0.29366 4.9035-0.27742 9.8755 0.47728 14.774-0.0001034 0.0063-0.0001034 0.01261 0 0.01891 0.24548 1.297 1.0594 2.6737 2.965 3.198 1.9056 0.52435 4.3613 0.52454 6.638 0.0031 1.1792-0.27048 2.4009-0.99518 2.8255-2.3109 0.0019-0.0054-0.0019-0.01328 0-0.01891 0.55424-1.5719 0.54351-3.19 0.70638-4.6596 0.0065-0.0062 0.01286-0.01246 0.01907-0.01891 0.305-4.713 0.284-9.473-0.323-14.186-0.084-0.6689-0.221-1.4047-0.554-2.084-0.33-0.6719-0.869-1.2796-1.967-1.7627s-2.611-0.5331-4.127-0.5401c-1.5157-0.007-3.3777 0.093183-5.0284 1.6174z"/>
 <path id="path3905" style="opacity:.05;block-progression:tb;text-indent:0;color:#000000;text-transform:none;fill:url(#linearGradient3065)" d="m9.9375 2c-1.676 0.0394-3.9025 0.1738-5.8125 1.9375-1.0469 0.9667-1.4431 2.2418-1.625 3.4063-0.1729 1.1066-0.1842 2.1359-0.2812 2.9682l-0.03125 0.0625v0.1875c-0.29314 4.8948-0.27772 9.8971 0.46875 14.844-0.0002832 0.01725-0.0002832 0.014 0 0.03125v0.09375c0.00159 0.01034-0.00159 0.02091 0 0.03125v0.0625c0.29655 1.5668 1.4205 3.3449 3.6875 3.9688 2.1174 0.58264 4.6958 0.55639 7.125 0 1.3995-0.32104 2.9549-1.2201 3.5312-2.9375h0.03125c0.0029-0.0088-0.0028-0.02242 0-0.03125 0.0068-0.0192-0.0066-0.04332 0-0.0625 0.0132-0.05222 0.02727-0.08878 0.03125-0.125 0.0013-0.01201-0.000844-0.02022 0-0.03125 0.0063-0.05885 0.03255-0.08962 0.03125-0.125 0.51621-1.6647 0.55563-3.3045 0.78125-6.1875 0.25-3.183 0.213-7.984-0.405-12.78-0.09-0.7107-0.245-1.567-0.657-2.4058-0.414-0.8448-1.166-1.691-2.437-2.25-1.191-0.524-2.516-0.5795-3.719-0.625l-0.031-0.0312h-0.563-0.1245zm0.0313 2c0.0088 0.0003 0.0224 0.0003 0.0312 0 1.3346 0.053273 2.7578 0.14602 3.5625 0.5 0.92572 0.40719 1.224 0.78235 1.4688 1.2812 0.25496 0.51976 0.39005 1.1555 0.46875 1.7812 0.59675 4.632 0.61116 9.3574 0.375 12.375-0.245 3.1306-0.26868 4.6662-0.75 6.0312-0.000033 0.000099 0.0014 0.02579 0 0.03125-0.2854 0.88427-1.1473 1.4391-2.0938 1.6562-2.124 0.48649-4.4625 0.46606-6.1562 0-1.4956-0.41155-2.0106-1.3216-2.2188-2.3125v-0.03125-0.0625c-0.7379-4.788-0.7579-9.678-0.4687-14.529 0.0014-0.011-0.0014-0.021 0-0.031 0.1377-1.0535 0.1355-2.1302 0.2813-3.063 0.1472-0.9423 0.4274-1.6612 1.0312-2.2188 1.3821-1.2762 2.8508-1.3675 4.4688-1.4062z" clip-path="url(#clipPath3925)" transform="translate(6)"/>
 <path id="path3952" style="opacity:.4;color:#000000;fill:url(#linearGradient3073)" d="m15.969 3c-1.6532 0.038913-3.5056 0.132-5.1562 1.6562s-1.3693 4.0242-1.625 5.9375c-0.00681 0.01239 0.00589 0.0184 0 0.03125-0.096241 1.607-0.14167 3.227-0.15625 4.8438 5.6123-3.3925 8.8461-5.3751 13.406-8.1875-0.08581-0.62631-0.19222-1.3101-0.5-1.9375-0.33-0.6721-0.871-1.2672-1.969-1.7502-1.099-0.4831-2.629-0.5409-3.969-0.5938-0.01272-0.0004117-0.01853-0.0004117-0.03125 0z"/>
 <path id="path3941" style="opacity:.1;color:#000000;fill:#fff" d="m15.969 3c-1.6532 0.038913-3.5056 0.132-5.1562 1.6562s-1.3693 4.0242-1.625 5.9375c-0.00681 0.01239 0.00589 0.0184 0 0.03125-0.093156 1.5555-0.13915 3.1227-0.15625 4.6875 0.027981-1.2322 0.082835-2.4616 0.15625-3.6875 0.00589-0.01285-0.00681-0.01886 0-0.03125 0.2554-1.9126-0.0259-4.4125 1.6242-5.9368 1.651-1.5242 3.504-1.6173 5.157-1.6562 0.012-0.0004 0.018-0.0004 0.031 0 1.3399 0.05286 2.8705 0.11065 3.9688 0.59375s1.6392 1.0781 1.9688 1.75c0.3332 0.67926 0.44718 1.4253 0.53125 2.0938 0.30364 2.3569 0.48049 4.7083 0.53125 6.875-0.02-2.435-0.179-5.138-0.531-7.8755-0.084-0.6685-0.198-1.4145-0.531-2.0937-0.33-0.6719-0.871-1.267-1.969-1.75-1.099-0.4831-2.629-0.5409-3.969-0.5938-0.01272-0.0004117-0.01853-0.0004117-0.03125 0z"/>
 <path id="path3980" style="color:#000000;fill:#fff" d="m15.969 3c-1.6532 0.038913-3.5056 0.132-5.1562 1.6562s-1.3693 4.0242-1.625 5.9375c-0.00681 0.01239 0.00589 0.0184 0 0.03125-0.093156 1.5555-0.13797 3.1218-0.15625 4.6875 0.028781-1.2329 0.082835-2.4616 0.15625-3.6875 0.00589-0.01285-0.00681-0.01886 0-0.03125 0.2554-1.9126-0.0259-4.4125 1.6242-5.9368 1.651-1.5242 3.504-1.6173 5.157-1.6562 0.012-0.0004 0.018-0.0004 0.031 0 1.3399 0.05286 2.8705 0.11065 3.9688 0.59375s1.6392 1.0781 1.9688 1.75c0.3332 0.67926 0.44718 1.4253 0.53125 2.0938 0.30364 2.3569 0.47526 4.7113 0.53125 6.875-0.026-2.432-0.179-5.138-0.531-7.8755-0.084-0.6685-0.198-1.4145-0.531-2.0937-0.33-0.6719-0.871-1.267-1.969-1.75-1.099-0.4831-2.629-0.5409-3.969-0.5938-0.01272-0.0004117-0.01853-0.0004117-0.03125 0z"/>
 <path id="path3992" style="opacity:.6;color:#000000;fill:#fff" d="m23 16.406c-0.021 0.955-0.064 1.819-0.125 2.594-0.24271 3.1013-0.22701 4.7406-0.78125 6.3125-0.42464 1.3157-1.6646 2.042-2.8438 2.3125-2.2766 0.52144-4.7194 0.52435-6.625 0s-2.7233-1.8905-2.9688-3.1875c-0.0001034-0.0063-0.0001034-0.02495 0-0.03125-0.37735-2.4494-0.56544-4.905-0.625-7.375 0.02873 2.8019 0.19691 5.5962 0.625 8.375-0.0001034 0.0063-0.0001034 0.02495 0 0.03125 0.24548 1.297 1.0632 2.6631 2.9688 3.1875 1.9056 0.52435 4.3484 0.52144 6.625 0 1.1792-0.27048 2.4191-0.99682 2.8438-2.3125 0.554-1.571 0.538-3.211 0.781-6.312 0.08-1.026 0.117-2.268 0.125-3.594z"/>
</svg>
