<?xml version="1.0" encoding="UTF-8" standalone="no"?>
<!-- Created with Inkscape (http://www.inkscape.org/) -->
<svg id="svg4248" xmlns:rdf="http://www.w3.org/1999/02/22-rdf-syntax-ns#" xmlns="http://www.w3.org/2000/svg" height="32" width="32" version="1.1" xmlns:cc="http://creativecommons.org/ns#" xmlns:xlink="http://www.w3.org/1999/xlink" xmlns:dc="http://purl.org/dc/elements/1.1/">
 <defs id="defs4250">
  <linearGradient id="linearGradient3921" y2="42" gradientUnits="userSpaceOnUse" x2="25" gradientTransform="translate(-7 -14)" y1="45" x1="25">
   <stop id="stop3962" style="stop-opacity:0" offset="0"/>
   <stop id="stop3970" offset=".5"/>
   <stop id="stop3964" style="stop-opacity:0" offset="1"/>
  </linearGradient>
  <radialGradient id="radialGradient3924" gradientUnits="userSpaceOnUse" cy="43.5" cx="9" gradientTransform="matrix(1 0 0 .75 -6 -3.125)" r="2">
   <stop id="stop3946" offset="0"/>
   <stop id="stop3948" style="stop-opacity:0" offset="1"/>
  </radialGradient>
  <radialGradient id="radialGradient3927" gradientUnits="userSpaceOnUse" cy="43.5" cx="40" gradientTransform="matrix(1 0 0 .75 -11 -3.125)" r="2">
   <stop id="stop3954" offset="0"/>
   <stop id="stop3956" style="stop-opacity:0" offset="1"/>
  </radialGradient>
  <linearGradient id="linearGradient3932" y2="16" gradientUnits="userSpaceOnUse" x2="29" gradientTransform="matrix(0,1,-1,0,32,-2)" y1="16" x1="3">
   <stop id="stop3928" style="stop-color:#fff" offset="0"/>
   <stop id="stop3930" style="stop-color:#fff;stop-opacity:0" offset="1"/>
  </linearGradient>
  <linearGradient id="linearGradient3934" y2="16" gradientUnits="userSpaceOnUse" x2="29.5" gradientTransform="matrix(0,-1,1,0,0,30)" y1="16" x1="2.5">
   <stop id="stop4101" style="stop-color:#a7a7a7" offset="0"/>
   <stop id="stop4103" style="stop-color:#d1d1d1" offset="1"/>
  </linearGradient>
 </defs>
 <metadata id="metadata4253">
  <rdf:RDF>
   <cc:Work rdf:about="">
    <dc:format>image/svg+xml</dc:format>
    <dc:type rdf:resource="http://purl.org/dc/dcmitype/StillImage"/>
    <dc:title/>
   </cc:Work>
  </rdf:RDF>
 </metadata>
 <g id="layer1">
  <g id="g3930" transform="translate(0,-2)">
   <path id="rect3940" d="m29 28v3h0.5c0.831 0 1.5-0.669 1.5-1.5s-0.669-1.5-1.5-1.5h-0.5z" style="opacity:.3;fill:url(#radialGradient3927)"/>
   <path id="rect3942" d="m2.4062 28c-0.779 0-1.4062 0.627-1.4062 1.406v0.1875c0 0.77906 0.62719 1.4062 1.4062 1.4062h0.59375v-3h-0.59375z" style="opacity:.3;fill:url(#radialGradient3924)"/>
   <path id="rect3938" d="m2.9999 28h26v3l-26-0.000001z" style="opacity:.3;fill:url(#linearGradient3921)"/>
  </g>
  <path id="rect3894" style="fill:url(#linearGradient3934);fill-rule:evenodd" d="m4 27.5c-0.8218 0-1.5-0.678-1.5-1.5v-20c0-0.8218 0.6782-1.5 1.5-1.5h24c0.82175 0 1.5 0.67825 1.5 1.5v20c0 0.82175-0.67825 1.5-1.5 1.5z"/>
  <path id="path3951" style="opacity:.1;fill:url(#linearGradient3932);fill-rule:evenodd" d="m29 6c0-0.5626-0.437-1-1-1h-24c-0.5626 0-1 0.4374-1 1v20c0 0.56265 0.43735 1 1 1h24c0.56265 0 1-0.43735 1-1zm-1 0v20h-24v-20z"/>
  <path id="path3906" style="opacity:.41;stroke:#000;fill:none" d="m2.5 26v-20c0-0.831 0.669-1.5 1.5-1.5h24c0.831 0 1.5 0.669 1.5 1.5v20c0 0.831-0.669 1.5-1.5 1.5h-24c-0.831 0-1.5-0.669-1.5-1.5z"/>
  <path id="path3935" style="opacity:.05;fill:#fff;fill-rule:evenodd" d="m4 5c-0.5626 0-1 0.4374-1 1v1c0-0.5626 0.4374-1 1-1h24c0.56265 0 1 0.43735 1 1v-1c0-0.5626-0.437-1-1-1z"/>
  <path id="path3949" style="opacity:.05;fill:#fff;fill-rule:evenodd" d="m4 27c-0.5626 0-1-0.437-1-1v-1c0 0.56265 0.43735 1 1 1h24c0.56265 0 1-0.43735 1-1v1c0 0.56265-0.43735 1-1 1z"/>
 </g>
</svg>
