<?xml version="1.0" encoding="UTF-8" standalone="no"?>
<!-- Created with Inkscape (http://www.inkscape.org/) -->
<svg id="svg4032" xmlns:rdf="http://www.w3.org/1999/02/22-rdf-syntax-ns#" xmlns="http://www.w3.org/2000/svg" height="32" width="32" version="1.1" xmlns:cc="http://creativecommons.org/ns#" xmlns:xlink="http://www.w3.org/1999/xlink" xmlns:dc="http://purl.org/dc/elements/1.1/">
 <metadata id="metadata41">
  <rdf:RDF>
   <cc:Work rdf:about="">
    <dc:format>image/svg+xml</dc:format>
    <dc:type rdf:resource="http://purl.org/dc/dcmitype/StillImage"/>
    <dc:title/>
   </cc:Work>
  </rdf:RDF>
 </metadata>
 <defs id="defs4034">
  <linearGradient id="linearGradient10691-1">
   <stop id="stop10693-3" offset="0"/>
   <stop id="stop10695-1" style="stop-opacity:0" offset="1"/>
  </linearGradient>
  <linearGradient id="linearGradient3028" y2="95.366" gradientUnits="userSpaceOnUse" x2="397.07" gradientTransform="matrix(.68184 0 0 .60634 -255.25 -27.798)" y1="87.076" x1="397.07">
   <stop id="stop3180" style="stop-color:#787878" offset="0"/>
   <stop id="stop3184" style="stop-color:#c8c8c8" offset=".24006"/>
   <stop id="stop3186" style="stop-color:#e6e6e6" offset=".33495"/>
   <stop id="stop3188" style="stop-color:#8c8c8c" offset="1"/>
  </linearGradient>
  <radialGradient id="radialGradient3033" xlink:href="#linearGradient10691-1" gradientUnits="userSpaceOnUse" cy="73.296" cx="8.0738" gradientTransform="matrix(1.2451 0 0 .27669 6.6545 8.6316)" r="7.2284"/>
  <linearGradient id="linearGradient3811" y2="2" xlink:href="#outerBackgroundGradient-5-0" gradientUnits="userSpaceOnUse" x2="15" y1="24.619" x1="15"/>
  <clipPath id="clipPath3872" clipPathUnits="userSpaceOnUse">
   <path id="path3874" style="fill:url(#linearGradient3876)" d="m1.1875 3c-0.122 0-0.1875 0.0642-0.1875 0.1562v20.688c0 0.092 0.0655 0.156 0.1875 0.156h29.625c0.122 0 0.188-0.064 0.188-0.156v-20.688c0-0.0918-0.066-0.156-0.188-0.156h-29.624z"/>
  </clipPath>
  <linearGradient id="linearGradient3876" y2="2" gradientUnits="userSpaceOnUse" x2="15" y1="24.619" x1="15">
   <stop id="stop3843" style="stop-color:#080808" offset="0"/>
   <stop id="stop3845" style="stop-color:#262626" offset="1"/>
  </linearGradient>
  <linearGradient id="linearGradient3884" y2="24.637" gradientUnits="userSpaceOnUse" x2="15" y1="2" x1="15">
   <stop id="stop3880" style="stop-color:#fff" offset="0"/>
   <stop id="stop3882" style="stop-color:#fff;stop-opacity:0" offset="1"/>
  </linearGradient>
  <linearGradient id="outerBackgroundGradient-5-0">
   <stop id="stop3864-8-6-4" style="stop-color:#261e2b" offset="0"/>
   <stop id="stop3866-9-1-86" style="stop-color:#352f39" offset="1"/>
  </linearGradient>
  <linearGradient id="linearGradient3856" y2="2" gradientUnits="userSpaceOnUse" x2="15" gradientTransform="translate(0 -27)" y1="24.619" x1="15">
   <stop id="stop3841" style="stop-color:#f2f2f2" offset="0"/>
   <stop id="stop3844" style="stop-color:#d4d4d4" offset="1"/>
  </linearGradient>
  <clipPath id="clipPath3862" clipPathUnits="userSpaceOnUse">
   <rect id="rect3864" style="fill:url(#linearGradient3811)" rx="0" ry="0" height="17" width="28" y="4" x="2"/>
  </clipPath>
  <linearGradient id="linearGradient3887" y2="12" gradientUnits="userSpaceOnUse" x2="20" y1="-3" x1="10">
   <stop id="stop3883" style="stop-color:#fff" offset="0"/>
   <stop id="stop3885" style="stop-color:#fff;stop-opacity:0" offset="1"/>
  </linearGradient>
  <radialGradient id="radialGradient4222" xlink:href="#linearGradient10691-1" gradientUnits="userSpaceOnUse" cy="73.616" cx="6.7027" gradientTransform="matrix(2.2135 0 0 .27669 1.1636 7.6316)" r="7.2284"/>
 </defs>
 <g id="layer1">
  <path id="path4220" d="m32 28c0 1.1046-7.1634 2-16 2s-16-0.895-16-2 7.1634-2 16-2c8.837 0 16 0.895 16 2z" style="opacity:.1;fill:url(#radialGradient4222)"/>
  <path id="path2589" d="m24 29c0 1.1046-2.5294 2-7.5 2-4.971 0-8.5-0.895-8.5-2 0-1.1046 3.5294-2 8.5-2s7.5 0.89543 7.5 2z" style="opacity:.3;fill:url(#radialGradient3033)"/>
  <path id="rect1789-8" d="m13 22s-0.01619 4.3985-0.5 5c-0.48382 0.60145-1.5 1-1.5 1-0.61776 0.06319-0.62288 1.5 0 1.5h10c0.62288 0 0.61789-1.4376 0-1.5 0 0-1.0162-0.39853-1.5-1-0.484-0.601-0.5-5-0.5-5z" style="color:#000000;enable-background:new;fill:url(#linearGradient3028)"/>
  <path id="path3849" style="opacity:0.41;color:#000000;stroke:#000;enable-background:new;fill:none" d="m13 22s-0.01619 4.3985-0.5 5c-0.48382 0.60145-1.5 1-1.5 1-0.61776 0.06319-0.62288 1.5 0 1.5h10c0.62288 0 0.61789-1.4376 0-1.5 0 0-1.0162-0.39853-1.5-1-0.484-0.601-0.5-5-0.5-5z"/>
  <path id="rect3851" style="opacity:0.41;fill:#fff" d="m11 28h10v1h-10z"/>
  <path id="rect3853" style="opacity:0.11" d="m12 27h8v1h-8z"/>
  <path id="rect3854" style="fill:url(#linearGradient3856)" d="m1.1889-24.5h29.622c0.38165 0 0.68889 0.29733 0.68889 0.66666v20.666c0 0.36933-0.30725 0.66666-0.68889 0.66666h-29.622c-0.38165 0-0.68889-0.29733-0.68889-0.66666v-20.666c0-0.36933 0.30725-0.66666 0.68889-0.66666z" transform="scale(1,-1)"/>
  <path id="rect3889" style="fill:#2b2b2b" d="m24 23h5v1.5h-5z"/>
  <path id="rect2722" style="fill:url(#linearGradient3811)" d="m2 4h28v17h-28z"/>
  <path id="rect3872" style="opacity:.2;fill:url(#linearGradient3887)" d="m2 4v12l28-7.125v-4.875z"/>
  <path id="path3868" style="opacity:.1;stroke-linejoin:round;stroke-dashoffset:0.5;stroke:url(#linearGradient3884);stroke-linecap:round;stroke-width:2;fill:none" d="m1.1875 3c-0.122 0-0.1875 0.0642-0.1875 0.1562v20.688c0 0.092 0.0655 0.156 0.1875 0.156h29.625c0.122 0 0.188-0.064 0.188-0.156v-20.688c0-0.0918-0.066-0.156-0.188-0.156z" clip-path="url(#clipPath3872)"/>
  <path id="path3829" style="opacity:.05;fill:#fff" d="m1.1875 24c-0.122 0-0.1875-0.064-0.1875-0.156v-1c0 0.092 0.0655 0.156 0.1875 0.156h29.625c0.122 0 0.188-0.064 0.188-0.156v1c0 0.092-0.066 0.156-0.188 0.156z"/>
  <path id="rect3803" style="opacity:0.61;stroke-linejoin:round;stroke-dashoffset:0.5;stroke:#000;stroke-linecap:round;fill:none" d="m1.1889 2.5001h29.622c0.38165 0 0.68889 0.29733 0.68889 0.66666v20.666c0 0.36933-0.30725 0.66666-0.68889 0.66666h-29.622c-0.38165 0-0.68889-0.29733-0.68889-0.66666v-20.666c0-0.36933 0.30725-0.66666 0.68889-0.66666z"/>
  <path id="rect3858" style="opacity:.2;stroke:#000;stroke-width:2;fill:none" d="m2 4h28v17h-28z" clip-path="url(#clipPath3862)"/>
  <path id="rect3815" style="opacity:.1;fill:#fff" d="m1.1875 3c-0.122 0-0.1875 0.0642-0.1875 0.1562v1c0-0.092 0.0655-0.1562 0.1875-0.1562h29.625c0.122 0 0.188 0.0642 0.188 0.1562v-1c0-0.092-0.066-0.1562-0.188-0.1562z"/>
  <path id="rect3868" style="opacity:.6;fill:#fff" d="m2 21h28v1h-28z"/>
  <path id="rect3870" style="opacity:.2" d="m2 4h28v1h-28z"/>
 </g>
</svg>
