<?xml version="1.0" encoding="UTF-8" standalone="no"?>
<!-- Created with Inkscape (http://www.inkscape.org/) -->
<svg id="svg3759" xmlns:rdf="http://www.w3.org/1999/02/22-rdf-syntax-ns#" xmlns="http://www.w3.org/2000/svg" height="48" width="48" version="1.1" xmlns:cc="http://creativecommons.org/ns#" xmlns:xlink="http://www.w3.org/1999/xlink" xmlns:dc="http://purl.org/dc/elements/1.1/">
 <metadata id="metadata37">
  <rdf:RDF>
   <cc:Work rdf:about="">
    <dc:format>image/svg+xml</dc:format>
    <dc:type rdf:resource="http://purl.org/dc/dcmitype/StillImage"/>
    <dc:title/>
   </cc:Work>
  </rdf:RDF>
 </metadata>
 <defs id="defs3761">
  <radialGradient id="radialGradient3755" gradientUnits="userSpaceOnUse" cy="38.909" cx="24.85" gradientTransform="matrix(1 0 0 .37 0 24.512)" r="20.203">
   <stop id="stop26115-7-7-9" offset="0"/>
   <stop id="stop26117-3-7-8" style="stop-opacity:0" offset="1"/>
  </radialGradient>
  <radialGradient id="radialGradient4274" gradientUnits="userSpaceOnUse" cx="24.85" cy="38.909" r="20.203" gradientTransform="matrix(1.0085 0 0 .37315 -.21140 24.39)">
   <stop id="stop26123-4-7-8" offset="0"/>
   <stop id="stop26125-3-9-9" style="stop-opacity:0" offset="1"/>
  </radialGradient>
  <linearGradient id="linearGradient3899" y2="24" gradientUnits="userSpaceOnUse" x2="44" gradientTransform="matrix(0,1,1,0,3.1e-6,-2.9e-6)" y1="24" x1="4">
   <stop id="stop3842" style="stop-color:#1e7488" offset="0"/>
   <stop id="stop3844" style="stop-color:#1e5976" offset=".5"/>
   <stop id="stop3846" style="stop-color:#122937" offset=".75"/>
   <stop id="stop3848" style="stop-color:#020509" offset="1"/>
  </linearGradient>
  <radialGradient id="radialGradient3811" gradientUnits="userSpaceOnUse" cy="12" cx="24" gradientTransform="matrix(-1.641 4.157e-8 -4.6185e-8 -1.8231 63.385 33.878)" r="19.5">
   <stop id="stop3852" style="stop-color:#32a5dc" offset="0"/>
   <stop id="stop3854" style="stop-color:#248ec3" offset=".5"/>
   <stop id="stop3856" style="stop-color:#1f5271" offset=".75"/>
   <stop id="stop3858" style="stop-color:#020509" offset="1"/>
  </radialGradient>
  <radialGradient id="radialGradient3820" gradientUnits="userSpaceOnUse" cy="13.948" cx="24" gradientTransform="matrix(-1.6558 -9.358e-8 1.0396e-7 -1.8396 63.739 37.658)" r="19.326">
   <stop id="stop3816" style="stop-color:#fff" offset="0"/>
   <stop id="stop3833" style="stop-color:#f7f7f7" offset=".25"/>
   <stop id="stop3831" style="stop-color:#e8e8e8" offset=".5"/>
   <stop id="stop3818" style="stop-color:#7d7d7d" offset="1"/>
  </radialGradient>
 </defs>
 <g id="layer1">
  <path id="path9641" style="filter:url(#filter5927);enable-background:new;fill:url(#radialGradient4274)" d="m45.053 38.909a20.203 7.4751 0 1 1 -40.406 0 20.203 7.4751 0 1 1 40.406 0z" transform="matrix(.76993 0 0 .70231 4.8675 13.674)"/>
  <path id="path9643" style="opacity:.51837;filter:url(#filter5788);enable-background:new;fill:url(#radialGradient3755)" d="m45.053 38.909a20.203 7.4751 0 1 1 -40.406 0 20.203 7.4751 0 1 1 40.406 0z" transform="matrix(1.0408 0 0 .94940 -1.8633 3.5144)"/>
  <path id="path6495" d="m4.5 23.999c0 10.77 8.731 19.501 19.5 19.501 10.77 0 19.5-8.7309 19.5-19.501 0-10.769-8.7306-19.499-19.5-19.499s-19.5 8.7299-19.5 19.499z" style="fill:url(#radialGradient3811)"/>
  <path id="path6534" style="color:#bebebe;fill:url(#radialGradient3820)" d="m23.956 4.5c-1.7733 0-3.5033 0.25288-5.1362 0.69643 0.04652-0.011143 0.05613 0.041368 0.08705 0.087054 0.13789 0.20391-0.54263 0.2769-0.52232 0.52232 0.06184 0.74632 1.4855 0.63993 1.8281 1.3058 0.11951 0.23233 0.09276 0.53937 0 0.78348-0.12424 0.32662-0.6506 0.43708-0.69643 0.78348-0.0936 0.70757 0.28047 1.6895 0.95759 1.9152 0.24626 0.08218 0.506-0.17188 0.69643-0.34822 0.37245-0.3449 0.39485-0.97926 0.78348-1.3058 0.92834-0.78 2.4556-2.0723 3.3951-1.3058 0.13678 0.11171-0.15725 0.36036-0.08705 0.52232 0.08329 0.19194 0.31311 0.35248 0.52232 0.34821 0.3946-0.00836 0.90892-0.30476 0.95759-0.69643 0.02786-0.22481-0.21339-0.47591-0.43527-0.52232-0.25406-0.053207-0.44023 0.38978-0.69643 0.34821-0.04039-0.00557-0.07842-0.047218-0.08705-0.087054-0.199-0.9055 1.349-1.7709 0.958-2.6116-0.143-0.308-1.073-0.0287-0.958-0.3482-0.516-0.0411-1.039-0.0871-1.567-0.0871zm1.567 0.087054c0.56034 0.044519 1.1102 0.17079 1.654 0.26116-0.55-0.0922-1.088-0.2163-1.654-0.2612zm-6.8772 0.69643c-0.71972 0.20293-1.4059 0.41553-2.0893 0.69643 0.18107 0.029529 0.3437 0.21617 0.52232 0.17411 0.19974-0.047079 0.25545-0.33654 0.43527-0.43527 0.23456-0.1287 0.52884-0.091929 0.78348-0.17411 0.10502-0.033986 0.23762-0.18149 0.34822-0.26116zm-2.2634 0.78348c-0.52382 0.22156-1.0677 0.43158-1.567 0.69643 0.07633 0.041786 0.03649 0.18232 0 0.26116-0.11171 0.24291-0.45209 0.3059-0.60938 0.52232-0.22174 0.30515-0.64453 0.73078-0.43527 1.0446 0.16101 0.24152 0.63202 0.16519 0.87054 0 0.20364-0.14124 0.16227-0.46917 0.26116-0.69643-0.01671 0.33041 0.47054 0.50201 0.78348 0.60938 0.21951 0.075214 0.53227 0.16408 0.69643 0 0.16408-0.16408 0.12647-0.50179 0-0.69643-0.15572-0.23957-0.49839-0.36824-0.78348-0.34821-0.1365 0.00836-0.29704 0.014068-0.43527 0.087054 0.24681-0.27634 0.51928-0.54689 0.87054-0.60938 0.29827-0.052929 0.59887 0.12717 0.87054 0.26116 0.57776 0.28515 0.9236 1.1663 1.567 1.1317 0.38983-0.022286 0.94505-0.40025 0.87054-0.78348-0.065-0.3335-0.714-0.1121-0.958-0.3483-0.224-0.2176-0.099-0.6813-0.348-0.8706-0.41822-0.31824-1.2165 0.21756-1.567-0.17411-0.0195-0.022286 0-0.058082 0-0.087054-0.02519 0.01053-0.06191-0.010633-0.08705 0zm16.453 0.60938c0.673 0.3495 1.375 0.707 2.002 1.1316-0.646-0.4364-1.304-0.7738-2.002-1.1317zm0.43527 0.78348c-0.47792-0.025072-0.95742 0.14959-1.3929 0.34821-0.32228 0.14709-0.70696 0.2952-0.87054 0.60938-0.08051 0.15433 0.08329 0.36939 0 0.52232-0.2808 0.51614-1.2643 0.411-1.4799 0.95759-0.1755 0.44518-0.10419 1.2367 0.34821 1.3929 0.31275 0.10781 0.4543-0.64258 0.78348-0.60938 0.26632 0.02786 0.3161 0.43894 0.52232 0.60938 0.18024 0.14904 0.39084 0.4317 0.60938 0.34821 0.34287-0.13093 0.34025-0.67768 0.34821-1.0446 0.0056-0.21116-0.18497-0.39838-0.17411-0.60938 0.0084-0.156 0.08469-0.30712 0.17411-0.43527 0.22341-0.32016 0.50605-0.64361 0.87054-0.78348 0.10836-0.041507 0.28314-0.096107 0.34821 0 0.17522 0.25879-0.2891 0.56363-0.34821 0.87054-0.04931 0.25656-0.19918 0.61467 0 0.78348 0.26938 0.22815 0.90817-0.49967 1.0446-0.17411 0.15266 0.36398-0.7447 0.36406-0.95759 0.69643-0.07967 0.12452-0.01128 0.30782-0.08705 0.43527-0.25099 0.42563-0.65144 0.84123-1.1317 0.95759-0.37627 0.09109-0.89068 0.04165-1.1317-0.26116-0.14458-0.18163 0.20475-0.5869 0-0.69643-0.18441-0.09861-0.46271 0.14764-0.52232 0.34821-0.06296 0.21172 0.38295 0.42488 0.26116 0.60938-0.15962 0.24236-0.62043-0.14708-0.87054 0-0.2574 0.15154-0.26464 0.53823-0.43527 0.78348-0.15294 0.21951-0.28932 0.47792-0.52232 0.60938-0.30746 0.17355-0.93692-0.16213-1.0446 0.17411-0.08775 0.27356 0.46371 0.36178 0.60938 0.60938 0.10725 0.18218 0.30133 0.44073 0.17411 0.60938-0.15739 0.20837-0.53043-0.06463-0.78348 0-0.35231 0.0897-0.77198 0.20976-0.95759 0.52232-0.26659 0.44914-0.36933 1.1976 0 1.567 0.10251 0.10252 0.30122-0.05544 0.43527 0 0.18943 0.07856 0.23344 0.39866 0.43527 0.43527 0.34501 0.06268 0.71949-0.17801 0.95759-0.43527 0.23066-0.24932 0.13455-0.69359 0.34821-0.95759 0.17216-0.21283 0.53547-0.21394 0.69643-0.43527 0.0702-0.09666 0.0018-0.26436 0.08705-0.34821 0.27634-0.27133 0.76331-0.38036 1.1317-0.26116 0.29353 0.09471 0.36526 0.50784 0.60938 0.69643 0.20531 0.15879 0.61971 0.10029 0.69643 0.34821 0.08831 0.28542-0.62102 0.54948-0.43527 0.78348 0.13121 0.16547 0.44992-0.03566 0.60938-0.17411 0.21562-0.18748 0.39298-0.50121 0.34822-0.78348-0.06129-0.38557-0.94232-0.51391-0.78348-0.87054 0.04708-0.10614 0.23957-0.04095 0.34821 0 0.28874 0.10836 0.5419 0.34239 0.69643 0.60938 0.1482 0.25601 0.05098 0.60146 0.17411 0.87054 0.13761 0.30083 0.28916 0.86669 0.60938 0.78348 0.36941-0.09583-0.0507-0.82326 0.17411-1.1317 0.07633-0.10474 0.22202-0.20447 0.34821-0.17411 0.52466 0.12675 0.48513 1.0448 0.95759 1.3058 0.35652 0.19695 0.83558-0.05084 1.2188 0.08705 0.23484 0.08469 0.55854 0.19082 0.60938 0.43527 0.03454 0.16575-0.1528 0.30545-0.26116 0.43527-0.19779 0.23679-0.40769 0.50087-0.69643 0.60938-0.2988 0.11226-0.64252 0.05098-0.95759 0-0.4529-0.07354-0.84884-0.39407-1.3058-0.43527-0.20447-0.0195-0.42585-0.0054-0.60938 0.08705-0.22035 0.11004-0.27606 0.52232-0.52232 0.52232-0.65659 0-0.82496-1.0633-1.3929-1.3929-0.28615-0.16603-0.62757-0.23776-0.95759-0.26116-0.46672-0.03315-0.9336 0.08469-1.3929 0.17411-0.44215 0.08608-0.92656 0.10502-1.3058 0.34821-0.91962 0.58948-1.535 1.5833-2.0893 2.5246-0.36365 0.61756-0.93023 1.3007-0.78348 2.0022 0.03371 0.16074 0.33203 0.18497 0.34821 0.34821 0.04123 0.41646-0.65815 0.6279-0.69643 1.0446-0.06073 0.66021 0.42947 1.2676 0.78348 1.8281 0.516 0.81705 0.95207 2.0975 1.9152 2.1763 0.41103 0.03371 0.54745-0.82677 0.95759-0.78348 0.18469 0.0195 0.16547 0.40128 0.34821 0.43527 0.39632 0.07382 0.64484-0.66111 1.0446-0.60938 0.16269 0.02229 0.19667 0.2854 0.34821 0.34821 0.2949 0.12229 0.66693-0.13176 0.95759 0 0.28088 0.12759 0.54199 0.3954 0.60938 0.69643 0.09221 0.41229-0.44215 0.80683-0.34821 1.2188 0.07772 0.34069 0.58249 0.45315 0.69643 0.78348 0.15182 0.43978-0.19458 0.94021-0.08705 1.3929 0.09304 0.39226 0.59639 0.64172 0.60938 1.0446 0.01114 0.32426-0.35359 0.55656-0.43527 0.87054-0.16101 0.61846-0.18818 1.2841-0.08705 1.9152 0.14207 0.88873 0.74064 1.6511 0.95759 2.5246 0.11282 0.4541 0.14514 0.92586 0.17411 1.3929 0.01393 0.23177-0.16408 0.53227 0 0.69643 0.12313 0.12313 0.35454 0.04652 0.52232 0 0.32612-0.09026 0.54441-0.43198 0.87054-0.52232 0.30763-0.08524 0.66818 0.13455 0.95759 0 0.65353-0.30403 1.242-0.94918 1.3929-1.654 0.04429-0.2067-0.23623-0.40749-0.17411-0.60938 0.13344-0.43318 1.0241-0.41772 1.0446-0.87054 0.01672-0.36897-0.8039-0.41471-0.78348-0.78348 0.0195-0.37103 0.56544-0.4843 0.87054-0.69643 0.27774-0.19305 0.61573-0.29963 0.87054-0.52232 0.13984-0.12229 0.31052-0.25322 0.34821-0.43527 0.06714-0.32398-0.21742-0.62966-0.26116-0.95759-0.10781-0.80532-0.17717-1.6446 0-2.4375 0.11895-0.53207 0.39476-1.0258 0.69643-1.4799 0.21589-0.3252 0.57394-0.54112 0.78348-0.87054 0.43967-0.69122 0.79474-1.4605 0.95759-2.2634 0.04039-0.19918 0.15294-0.47558 0-0.60938-0.33038-0.28927-1.1019 0.56305-1.3058 0.17411-0.20029-0.38209 0.54812-0.671 0.87054-0.95759 0.37315-0.33167 0.84747-0.53678 1.2188-0.87054 0.25991-0.23344 0.57224-0.45686 0.69643-0.78348 0.09276-0.24403 0.05516-0.52823 0-0.78348-0.07438-0.34267-0.08691-0.91658-0.43527-0.95759-0.32858-0.03872-0.2786 0.79022-0.60938 0.78348-0.2496-0.0056-0.26074-0.43084-0.43527-0.60938-0.2028-0.20754-0.56667-0.26269-0.69643-0.52232-0.15572-0.31144-0.32509-0.9199 0-1.0446 0.36448-0.13984 0.41939 0.72966 0.78348 0.87054 0.27189 0.1053 0.59397-0.17982 0.87054-0.08705 0.48686 0.16296 0.62043 1.0913 1.1317 1.0446 0.11561-0.01114 0.19096-0.18511 0.26116-0.26116-0.706-4.913-3.223-9.26-6.877-12.275 0.025 0.3482-0.347 0.7805-0.696 0.7832-0.473 0.0028-1.148-0.6122-0.958-1.0446 0.12842-0.29217 0.66269 0.12229 0.95759 0 0.07577-0.031478 0.09221-0.17049 0.17411-0.17411-0.25-0.192-0.524-0.3424-0.784-0.5224-0.074 0.2572-0.526-0.0991-0.783-0.1741-0.326-0.095-0.619-0.3306-0.958-0.3482zm-20.37 0.5222c-0.2065 0.14333-0.40878 0.28427-0.60938 0.43527 0.12396 0.094993-0.05237 0.33729-0.17411 0.43527-0.13762 0.11059-0.45287 0.24946-0.52232 0.087054-3.9986 3.2999-6.6636 8.1768-7.0513 13.667 0.4185-0.09165 0.3122 0.82307 0.60938 1.1317 0.39696 0.41226 0.95308 0.64696 1.4799 0.87054 0.49903 0.21171 1.1243 0.12229 1.567 0.43527 0.28921 0.20447 0.36306 0.616 0.60938 0.87054 0.3027 0.31278 0.615 0.71376 1.0446 0.78348 0.18107 0.02953 0.33988-0.19416 0.52232-0.17411 0.16826 0.0195 0.35189 0.11408 0.43527 0.26116 0.01393 0.02507 0.0056 0.05864 0 0.08705-0.08803 0.57143-0.26409 1.1367-0.52232 1.654-0.11143 0.22341-0.38869 0.36415-0.43527 0.60938-0.02229 0.11756 0.08817 0.22843 0.08705 0.34821-0.0028 0.45045-0.40359 0.85875-0.34821 1.3058 0.11004 0.88948 0.75381 1.6443 1.3058 2.3504 0.36668 0.46908 0.90413 0.77925 1.3058 1.2188 0.22314 0.24431 0.50948 0.46808 0.60938 0.78348 0.18414 0.5816-0.2021 1.229-0.08705 1.8281 0.06602 0.34434 0.39972 0.60876 0.43527 0.95759 0.0663 0.6513-0.36226 1.2646-0.43527 1.9152-0.0028 0.02897 0.02813 0.08037 0 0.08705 0.78549 0.55673 1.572 1.0425 2.4375 1.4799-0.02953-0.14207 0.31487-0.1202 0.34821-0.26116 0.02981-0.12619-0.195-0.22007-0.17411-0.34822 0.04596-0.28356 0.46371-0.36178 0.60938-0.60938 0.10725-0.18218 0.02507-0.4609 0.17411-0.60938 0.23539-0.23261 0.7142-0.03719 0.95759-0.26116 0.49973-0.46012 0.70721-1.236 0.69643-1.9152-0.0025-0.15628-0.18414-0.27932-0.17411-0.43527 0.0195-0.29816 0.19667-0.6038 0.43527-0.78348 0.3093-0.23289 0.83772-0.0085 1.1317-0.26116 0.35596-0.30506 0.44518-0.8434 0.52232-1.3058 0.09555-0.57316-0.25058-1.1835-0.08705-1.7411 0.1404-0.47909 0.70133-0.74905 0.87054-1.2188 0.13789-0.38318 0.28531-0.8629 0.08705-1.2188-0.63771-1.1454-2.5644-0.89201-3.4821-1.8281-0.31796-0.32434-0.25517-0.93455-0.60938-1.2188-0.27999-0.22453-0.77538-0.02521-1.0446-0.26116-0.42042-0.37056-0.12814-1.2799-0.60938-1.567-0.40187-0.23957-0.93998 0.29178-1.3929 0.17411-0.5224-0.13566-0.76699-0.98946-1.3058-0.95759-0.59436 0.0351-1.0685 0.67269-1.3058 1.2188-0.02229 0.05321 0.04624 0.13929 0 0.17411-0.33729 0.25434-0.91803-0.05153-1.2188-0.34821-0.21561-0.21283-0.21742-0.57079-0.26116-0.87054-0.04206-0.2871 0.21506-0.67581 0-0.87054-0.21617-0.19556-0.66874 0.29771-0.87054 0.08705-0.42599-0.44435 0.66462-1.3631 0.26116-1.8281-0.11421-0.13149-0.3666-0.07772-0.52232 0-0.25963 0.12981-0.29955 0.51051-0.52232 0.69643-0.14959 0.1248-0.32788 0.27063-0.52232 0.26116-0.27356-0.01393-0.55196-0.2028-0.69643-0.43527-0.15405-0.24765-0.08482-0.57893-0.08705-0.87054-0.0028-0.34941-0.08761-0.74214 0.08705-1.0446 0.22954-0.39722 0.69375-0.64668 1.1317-0.78348 0.2769-0.08664 0.63514 0.16965 0.87054 0 0.14876-0.10725 0.01393-0.43401 0.17411-0.52232 0.31465-0.17271 0.7415 0.06922 1.0446 0.26116 0.34832 0.22091 0.38833 1.0757 0.78348 0.95759 0.53118-0.15878-0.08998-1.1666 0.17411-1.654 0.28506-0.52594 1.0526-0.63971 1.3929-1.1317 0.26102-0.37735 0.12285-0.96973 0.43527-1.3058 0.25684-0.27634 0.74484-0.20614 1.0446-0.43527 0.26297-0.20085 0.32793-0.60954 0.60938-0.78348 0.3776-0.23344 0.94455-0.0029 1.3058-0.26116 0.32807-0.23427 0.81017-0.69505 0.60938-1.0446-0.31796-0.55358-1.7868 0.62536-1.9152 0-0.08886-0.43296 0.78579-0.43346 1.2188-0.52232 0.28425-0.05822 0.58522 0.05293 0.87054 0 0.39738-0.07382 0.78206-0.63801 1.1317-0.43527 0.33016 0.19138-0.19862 1.0493 0.17411 1.1317 0.30646 0.06769 0.5789-0.47474 0.52232-0.78348-0.04513-0.24542-0.53918-0.19584-0.60938-0.43527-0.04402-0.14987 0.20558-0.28219 0.17411-0.43527-0.04123-0.20113-0.25294-0.34139-0.43527-0.43527-0.15684-0.08079-0.43128 0.06393-0.52232-0.08705-0.09471-0.15711 0.1911-0.33958 0.17411-0.52232-0.02786-0.29749-0.15377-0.68339-0.43527-0.78348-0.29448-0.10474-0.63509 0.55374-0.87054 0.34822-0.18024-0.15739 0.26715-0.47591 0.17411-0.69643-0.15656-0.37148-0.65698-0.71997-1.0446-0.60938-0.53675 0.15321-0.70298 0.92759-0.78348 1.4799-0.02229 0.14653 0.1553 0.30386 0.08705 0.43527-0.13149 0.25378-0.57996 0.14764-0.78348 0.34821-0.29587 0.29169-0.11059 1.187-0.52232 1.1317-0.34986-0.04708 0.05014-0.77206-0.17411-1.0446-0.31509-0.38287-1.0488-0.16519-1.3929-0.52232-0.1911-0.19834-0.35955-0.52633-0.26116-0.78348 0.25044-0.65562 1.2704-0.61862 1.8281-1.0446 0.2935-0.22425 0.62681-0.449 0.78348-0.78348 0.13594-0.29024 0.23219-0.6718 0.08705-0.95759-0.07661-0.15099-0.27216-0.21603-0.43527-0.26116-0.05599-0.016714-0.15795 0.055714-0.1741-0.000003zm14.712 1.567c-0.09722-0.00279-0.19988 0.025211-0.26116 0.087054-0.12313 0.12313-0.05767 0.35802 0 0.52232 0.06156 0.17522 0.2867 0.25991 0.34821 0.43527 0.08636 0.24654 0.0195 0.52307 0 0.78348-0.02925 0.38056-0.44995 0.86792-0.17411 1.1317 0.21394 0.20447 0.60511-0.04318 0.87054-0.17411 0.27662-0.1365 0.68618-0.30108 0.69643-0.60938 0.0084-0.2871-0.45003-0.37036-0.60938-0.60938-0.29593-0.44388-0.16603-1.1831-0.60938-1.4799-0.07243-0.048471-0.16422-0.083989-0.26116-0.087054zm-1.306 1.2189c-0.09694 0.03371-0.21074 0.0975-0.26116 0.17411-0.19249 0.29172-0.22105 0.88012 0.08705 1.0446 0.26353 0.14068 0.68874-0.15182 0.78348-0.43527 0.09054-0.27105-0.08664-0.66815-0.34821-0.78348-0.08385-0.03705-0.16422-0.03371-0.26116 0zm10.446 9.3147c0.40788 0.06101 0.5621 0.60963 0.78348 0.95759 0.43195 0.67893 0.60152 1.5046 1.0446 2.1763 0.16993 0.2574 0.56319 0.39145 0.60938 0.69643 0.0429 0.28258-0.391 0.5009-0.34821 0.78348 0.04624 0.30498 0.73685 0.41552 0.60938 0.69643-0.10781 0.2379-0.56792 0.14736-0.78348 0-0.92511-0.63283-0.63782-2.1754-1.2188-3.1339-0.1599-0.26381-0.4643-0.42421-0.60938-0.69643-0.21199-0.39752-0.50736-0.88438-0.34821-1.3058 0.03705-0.09778 0.15781-0.18971 0.26116-0.17411zm-15.147 23.243c0.7719 0.0929 1.5535 0.17411 2.3504 0.17411-0.78994 0-1.5843-0.08246-2.3504-0.17411z"/>
  <path id="path3822" style="color:#bebebe;fill:#fff" d="m23.969 4.5c-1.774 0-3.524 0.244-5.157 0.6875 0.047-0.0111 0.063 0.0481 0.094 0.0937 0.138 0.204-0.551 0.2859-0.531 0.5313 0.023 0.2819 0.282 0.4051 0.563 0.5313 0.005-0.022-0.015-0.0371-0.032-0.0626-0.031-0.0456-0.047-0.1048-0.094-0.0937 1.633-0.4435 3.383-0.6875 5.157-0.6875 0.527 0 1.046 0.0527 1.562 0.0938-0.095 0.263 0.513 0.1055 0.813 0.2187 0.173-0.2943 0.259-0.5871 0.125-0.875-0.143-0.308-1.053-0.0242-0.938-0.3437-0.516-0.0411-1.035-0.0938-1.562-0.0938zm-5.313 0.7812c-0.719 0.203-1.41 0.4067-2.094 0.6876 0.182 0.0295 0.353 0.2295 0.532 0.1874 0.199-0.047 0.226-0.3387 0.406-0.4374 0.235-0.1288 0.558-0.1054 0.812-0.1876 0.106-0.0339 0.234-0.1703 0.344-0.25zm-2.281 0.7813c-0.524 0.2216-1.063 0.4226-1.563 0.6875 0.077 0.0418 0.037 0.2024 0 0.2812-0.111 0.243-0.436 0.3149-0.593 0.5313-0.222 0.3051-0.647 0.7174-0.438 1.0313 0.061 0.091 0.162 0.1432 0.281 0.1562 0.051-0.0649 0.115-0.1297 0.157-0.1875 0.157-0.2164 0.482-0.2883 0.593-0.5313 0.037-0.0788 0.077-0.2394 0-0.2812 0.201-0.1063 0.415-0.1883 0.626-0.2812-0.095 0.0098-0.193 0.0468-0.282 0.0937 0.247-0.2763 0.524-0.5625 0.875-0.625 0.299-0.0529 0.604 0.116 0.875 0.25 0.044 0.0217 0.084 0.0658 0.125 0.0937 0.352-0.0359 0.743-0.1331 1 0.0626 0.249 0.1892 0.119 0.6261 0.344 0.8437 0.055 0.0532 0.134 0.1067 0.219 0.125 0.009 0.002 0.021-0.0018 0.031 0 0.367-0.091 0.784-0.4134 0.719-0.75-0.155-0.0569-0.266-0.1557-0.406-0.2187-0.02-0.0016-0.043 0.0014-0.063 0-0.184-0.0133-0.39-0.0499-0.5-0.1563-0.154-0.1488-0.13-0.4125-0.187-0.625-0.224 0.0441-0.49 0.0474-0.688 0.1563-0.18 0.0987-0.207 0.3904-0.406 0.4374-0.179 0.0421-0.35-0.1579-0.532-0.1874 0.513-0.2107 1.034-0.3727 1.563-0.5313-0.024-0.0437-0.053-0.0626-0.094-0.0937-0.418-0.3183-1.212 0.2041-1.562-0.1876-0.02-0.0222 0-0.0647 0-0.0937-0.025 0.0105-0.069-0.0106-0.094 0zm9.937 1.2187c-0.158-0.0332-0.298 0.1351-0.437 0.25-0.201 0.2952-0.36 0.6028-0.344 0.9063 0.079 0.0418 0.167 0.0642 0.25 0.0625 0.059-0.0012 0.126-0.0178 0.188-0.0312 0.11-0.0989 0.216-0.2142 0.343-0.1876 0.033 0.0069 0.062 0.0164 0.094 0.0313 0.184-0.1241 0.32-0.3042 0.344-0.5 0.028-0.2248-0.216-0.4848-0.438-0.5313zm6.594 0.1876c-0.357 0.0478-0.704 0.1947-1.031 0.3437-0.322 0.1471-0.711 0.2796-0.875 0.5937-0.081 0.1544 0.083 0.3784 0 0.5313-0.281 0.5161-1.253 0.4222-1.469 0.9687-0.113 0.2868-0.127 0.6888 0 0.9998 0.216-0.546 1.188-0.452 1.469-0.9685 0.083-0.1529-0.081-0.3769 0-0.5313 0.164-0.3141 0.553-0.4466 0.875-0.5937 0.435-0.1986 0.928-0.3688 1.406-0.3437 0.339 0.0176 0.612 0.2487 0.938 0.3437 0.118 0.0345 0.292 0.1211 0.437 0.1875-0.034-0.1089-0.043-0.2132 0-0.3125 0.129-0.2922 0.674 0.1223 0.969 0 0.076-0.0315 0.074-0.1839 0.156-0.1875-0.25-0.192-0.522-0.3513-0.781-0.5312-0.074 0.2571-0.524-0.0814-0.781-0.1563-0.326-0.095-0.599-0.3261-0.938-0.3437-0.119-0.0063-0.256-0.016-0.375 0zm-16.875 0.4687c-0.27 0.0481-0.486 0.2353-0.687 0.4375 0.082 0.0366 0.171 0.0661 0.25 0.0938 0.008 0.0029 0.023-0.003 0.031 0 0.166-0.0055 0.348 0.0399 0.5 0.125 0.103 0.0001 0.182-0.0254 0.25-0.0938 0.12-0.1198 0.114-0.3184 0.063-0.5-0.138-0.0485-0.267-0.0872-0.407-0.0625zm-3.125 0.0313c-0.206 0.1433-0.424 0.2865-0.625 0.4374 0.124 0.095-0.034 0.3396-0.156 0.4376-0.138 0.1105-0.462 0.2561-0.531 0.0937-3.9988 3.2995-6.675 8.1655-7.0628 13.656 0.0423-0.01 0.0925 0.021 0.125 0.031 0.6202-5.085 3.1812-9.587 6.9378-12.688 0.069 0.163 0.393 0.0173 0.531-0.0932 0.122-0.098 0.28-0.3426 0.156-0.4376 0.201-0.1509 0.419-0.2941 0.625-0.4374 0.016 0.0557 0.101-0.0168 0.156 0 0.136 0.0376 0.282 0.1152 0.376 0.2187 0.135-0.2902 0.207-0.6517 0.062-0.9375-0.077-0.151-0.274-0.2361-0.438-0.2812-0.055-0.0168-0.14 0.0557-0.156 0zm7.219 0.0624c-0.193 0.2261-0.555 0.3653-0.594 0.6563-0.033 0.2477 0.019 0.5106 0.094 0.7813 0.173-0.1926 0.501-0.3176 0.594-0.5626 0.093-0.2441 0.119-0.5489 0-0.7812-0.02-0.0382-0.068-0.0603-0.094-0.0938zm16.187 0.9063c0.026 0.3484-0.338 0.7786-0.687 0.7813-0.039 0.0002-0.083-0.0234-0.125-0.0313-0.302 0.0066-0.731-0.2556-0.844 0-0.19 0.4325 0.497 1.0345 0.969 1.0315 0.349-0.003 0.713-0.433 0.687-0.7815 3.45 2.8465 5.863 6.8945 6.719 11.468 0.065-0.06 0.108-0.135 0.157-0.187-0.707-4.912-3.222-9.266-6.876-12.282zm-8.843 0.625c-0.046 0.0144-0.095 0.0316-0.125 0.0625-0.123 0.1231-0.058 0.3669 0 0.531 0.058 0.167 0.271 0.247 0.344 0.406 0.003 0.008-0.003 0.023 0 0.032 0.068 0.014 0.134-0.005 0.187 0.031 0.443 0.297 0.298 1.056 0.594 1.5 0.025 0.038 0.087 0.062 0.125 0.094 0.24-0.121 0.492-0.261 0.5-0.5 0.008-0.287-0.466-0.355-0.625-0.594-0.296-0.444-0.151-1.2032-0.594-1.5-0.072-0.0485-0.153-0.0594-0.25-0.0625-0.049-0.0014-0.111-0.0144-0.156 0zm5.719 0.1563c-0.066 0.0068-0.134 0.0104-0.188 0.0312-0.013 0.0051-0.018 0.0257-0.031 0.0312-0.058 0.2328-0.133 0.4858 0.031 0.6248 0.027 0.023 0.06 0.057 0.094 0.063 0.14-0.25 0.393-0.507 0.25-0.719-0.033-0.0481-0.091-0.0381-0.156-0.0312zm-18.25 0.25c-0.104-0.023-0.185 0.0036-0.282 0.0312-0.537 0.153-0.732 0.916-0.812 1.469-0.023 0.146 0.162 0.306 0.094 0.437-0.132 0.254-0.578 0.143-0.782 0.344-0.296 0.292-0.119 1.18-0.531 1.125-0.35-0.047 0.068-0.759-0.156-1.031-0.315-0.383-1.062-0.174-1.407-0.532-0.015-0.015-0.016-0.045-0.031-0.062-0.089 0.081-0.173 0.162-0.219 0.281-0.098 0.257 0.059 0.583 0.25 0.781 0.345 0.358 1.092 0.149 1.407 0.532 0.224 0.272-0.194 0.984 0.156 1.031 0.412 0.055 0.235-0.833 0.531-1.125 0.204-0.201 0.65-0.09 0.782-0.344 0.068-0.131-0.117-0.291-0.094-0.437 0.08-0.553 0.275-1.316 0.812-1.469 0.388-0.111 0.875 0.222 1.032 0.594 0.093 0.22-0.368 0.53-0.188 0.687 0.235 0.206 0.581-0.448 0.875-0.343 0.097 0.034 0.187 0.099 0.25 0.187 0.04-0.126 0.2-0.269 0.187-0.406-0.027-0.298-0.156-0.681-0.437-0.781-0.294-0.105-0.64 0.549-0.875 0.343-0.18-0.157 0.281-0.467 0.188-0.687-0.118-0.279-0.439-0.556-0.75-0.6252zm17.187 0.6252c-0.082 0.122-0.148 0.26-0.156 0.406-0.006 0.105 0.048 0.182 0.093 0.281 0.062-0.214 0.058-0.48 0.063-0.687zm-5.687 0.156c-0.043 0-0.077 0.014-0.126 0.031-0.096 0.034-0.23 0.08-0.281 0.157-0.172 0.261-0.183 0.749 0.031 0.968 0.058-0.062 0.167-0.096 0.25-0.125 0.097-0.033 0.167-0.037 0.25 0 0.041 0.018 0.09 0.033 0.126 0.063 0.102-0.086 0.183-0.175 0.218-0.282 0.091-0.271-0.082-0.665-0.344-0.781-0.041-0.018-0.082-0.031-0.124-0.031zm7.437 0.406c-0.25 0.057-0.673 0.421-0.875 0.25-0.211 0.351-0.532 0.676-0.906 0.844-0.046 0.185-0.151 0.313-0.313 0.375-0.194 0.074-0.365-0.128-0.531-0.281-0.206-0.039-0.379-0.13-0.5-0.282-0.068-0.084-0.01-0.214 0.031-0.343-0.037-0.029-0.074-0.026-0.125-0.031-0.139-0.015-0.244 0.107-0.344 0.25 0.105 0.133 0.266 0.288 0.188 0.406-0.16 0.242-0.625-0.147-0.875 0-0.257 0.151-0.267 0.536-0.437 0.781-0.153 0.22-0.299 0.462-0.532 0.594-0.307 0.173-0.923-0.149-1.031 0.187-0.088 0.274 0.448 0.346 0.594 0.594 0.047 0.08 0.11 0.185 0.156 0.281 0.104 0.002 0.204-0.019 0.281-0.062 0.233-0.132 0.379-0.374 0.532-0.594 0.17-0.245 0.18-0.63 0.437-0.781 0.25-0.147 0.715 0.242 0.875 0 0.122-0.185-0.344-0.414-0.281-0.625 0.059-0.201 0.347-0.443 0.531-0.344 0.205 0.11-0.145 0.506 0 0.687 0.241 0.303 0.749 0.373 1.125 0.282 0.48-0.117 0.874-0.543 1.125-0.969 0.076-0.127 0.014-0.313 0.094-0.437 0.213-0.333 1.121-0.324 0.968-0.688-0.034-0.081-0.104-0.113-0.187-0.094zm-6.219 0.375c-0.096 0.352-0.366 0.738-0.125 0.969 0.036 0.034 0.081 0.051 0.125 0.062 0.018-0.06 0.027-0.13 0.032-0.187 0.019-0.26 0.086-0.535 0-0.781-0.008-0.023-0.019-0.043-0.032-0.063zm-10.968 0.75c0.062 0.14 0.111 0.298 0.124 0.438 0.017 0.182-0.25 0.374-0.156 0.531 0.055 0.091 0.16 0.072 0.282 0.062 0.133-0.066 0.28-0.103 0.406-0.031 0.082 0.048 0.122 0.142 0.125 0.25 0.065 0.065 0.107 0.164 0.125 0.25 0.031 0.153-0.201 0.288-0.156 0.438 0.029 0.101 0.134 0.114 0.25 0.156 0.215-0.125 0.387-0.51 0.343-0.75-0.045-0.245-0.523-0.167-0.593-0.406-0.045-0.15 0.187-0.285 0.156-0.438-0.041-0.201-0.255-0.343-0.438-0.437-0.142-0.073-0.357 0.027-0.468-0.063zm-1.344 2.438c-0.433 0.089-1.308 0.098-1.219 0.531 0.032 0.156 0.152 0.201 0.313 0.188 0.341-0.03 0.876-0.325 1.25-0.344 0.116-0.108 0.206-0.249 0.281-0.375-0.209-0.01-0.422-0.042-0.625 0zm12.281 0.406c-0.352 0.09-0.783 0.219-0.969 0.531-0.221 0.374-0.338 0.947-0.156 1.344 0.04-0.128 0.094-0.239 0.156-0.344 0.186-0.312 0.617-0.441 0.969-0.531 0.253-0.065 0.624 0.208 0.781 0 0.127-0.169-0.08-0.443-0.187-0.625-0.096-0.163-0.351-0.251-0.5-0.375-0.035-0.001-0.062-0.008-0.094 0zm4.375 1.063c0.019 0.022 0.053 0.031 0.062 0.062 0.03 0.095-0.039 0.191-0.124 0.281 0.11 0.082 0.247 0.164 0.374 0.25 0.088-0.095 0.171-0.221 0.219-0.343-0.118-0.106-0.262-0.165-0.406-0.219-0.035-0.014-0.08-0.02-0.125-0.031zm-0.375 0.843c0.053 0.067 0.127 0.056 0.219 0.031-0.066-0.023-0.146-0.013-0.219-0.031zm-1.406 0.531c-0.467-0.033-0.916 0.067-1.375 0.157-0.06 0.011-0.126 0.021-0.188 0.031-0.031 0.175-0.072 0.344-0.187 0.469-0.238 0.257-0.593 0.5-0.938 0.437-0.151-0.027-0.21-0.219-0.312-0.344-0.754 0.599-1.291 1.449-1.781 2.282-0.364 0.617-0.929 1.298-0.782 2 0.013 0.06 0.067 0.12 0.125 0.156 0.168-0.399 0.443-0.793 0.657-1.156 0.554-0.942 1.174-1.911 2.093-2.5 0.379-0.243 0.871-0.289 1.313-0.375 0.459-0.09 0.908-0.19 1.375-0.157 0.33 0.024 0.682 0.084 0.969 0.25 0.567 0.33 0.718 1.407 1.374 1.407 0.247 0 0.311-0.421 0.532-0.531 0.183-0.093 0.42-0.114 0.625-0.094 0.457 0.041 0.828 0.364 1.281 0.437 0.315 0.051 0.67 0.113 0.969 0 0.288-0.108 0.489-0.357 0.687-0.593 0.109-0.13 0.316-0.272 0.282-0.438-0.041-0.194-0.266-0.297-0.469-0.375-0.15 0.17-0.294 0.329-0.5 0.406-0.299 0.113-0.654 0.051-0.969 0-0.453-0.073-0.824-0.396-1.281-0.437-0.205-0.02-0.442 0.001-0.625 0.094-0.221 0.11-0.285 0.531-0.532 0.531-0.656 0-0.807-1.077-1.374-1.407-0.287-0.166-0.639-0.226-0.969-0.25zm-19.563 2.594c-0.012 0.019-0.02 0.043-0.031 0.063-0.087 0.16-0.063 0.37-0.031 0.593 0.133-0.124 0.107-0.387 0.062-0.656zm29.5 0.5c-0.325 0.125-0.155 0.72 0 1.032 0.13 0.259 0.485 0.323 0.688 0.531 0.174 0.178 0.188 0.588 0.437 0.593 0.331 0.007 0.265-0.819 0.594-0.781 0.302 0.036 0.35 0.474 0.406 0.813 0.011-0.022 0.023-0.04 0.031-0.063 0.093-0.244 0.056-0.526 0-0.781-0.001-0.009 0.002-0.022 0-0.031-0.145-0.23-0.276-0.457-0.5-0.531-0.069-0.024-0.145-0.044-0.218-0.032-0.07 0.202-0.147 0.41-0.313 0.406-0.143-0.003-0.219-0.127-0.281-0.281-0.02-0.004-0.043 0.008-0.062 0-0.166-0.064-0.279-0.298-0.376-0.5-0.167-0.089-0.325-0.181-0.406-0.343-0.003-0.008 0.004-0.024 0-0.032zm-3.562 0.469c-0.048 0.033-0.075 0.076-0.094 0.125-0.159 0.421 0.132 0.915 0.344 1.312 0.145 0.273 0.434 0.424 0.594 0.688 0.58 0.959 0.293 2.523 1.218 3.156 0.216 0.148 0.674 0.238 0.782 0 0.127-0.281-0.548-0.414-0.594-0.718-0.011-0.071-0.003-0.123 0.031-0.188-0.075-0.025-0.165-0.057-0.219-0.094-0.925-0.633-0.638-2.197-1.218-3.156-0.16-0.264-0.449-0.415-0.594-0.688-0.072-0.133-0.149-0.289-0.219-0.437-0.01 0.005-0.022-0.006-0.031 0zm-28.125 1.156c-0.0969 0.007-0.2034 0.024-0.2813 0.063-0.2596 0.13-0.2772 0.501-0.5 0.687-0.1496 0.125-0.3368 0.291-0.5313 0.281-0.2735-0.013-0.543-0.205-0.6874-0.437-0.0717-0.115-0.1203-0.267-0.125-0.406-0.0003 0.179 0.0298 0.356 0.0312 0.531 0.0022 0.292-0.0603 0.627 0.0938 0.875 0.1444 0.232 0.4139 0.424 0.6874 0.437 0.1945 0.01 0.3817-0.156 0.5313-0.281 0.2228-0.186 0.2404-0.557 0.5-0.687 0.109-0.055 0.2831-0.087 0.4063-0.063 0.1689-0.343 0.3267-0.705 0.125-0.937-0.0572-0.066-0.1532-0.069-0.25-0.063zm16.187 1.219c-0.164 0.147-0.326 0.305-0.344 0.5-0.022 0.248 0.03 0.486 0.126 0.719 0.21-0.255 0.593-0.438 0.562-0.75-0.016-0.163-0.31-0.215-0.344-0.375-0.007-0.033 0.004-0.062 0-0.094zm-15.406 0.531c-0.1784-0.03-0.4349 0.173-0.625 0.188-0.1782 0.364-0.3824 0.733-0.1562 0.969 0.2017 0.21 0.6588-0.29 0.875-0.094-0.0049-0.041 0.0057-0.086 0-0.125-0.0421-0.287 0.215-0.681 0-0.875-0.0271-0.025-0.0603-0.057-0.0938-0.063zm29.625 0.469c-0.034 0.065-0.042 0.117-0.031 0.188 0.02 0.134 0.167 0.253 0.312 0.343 0.011-0.038 0.038-0.084 0.032-0.125-0.028-0.18-0.161-0.285-0.313-0.406zm-26.75 0.281c-0.594 0.035-1.075 0.673-1.313 1.219-0.022 0.053 0.047 0.153 0 0.188-0.337 0.254-0.9175-0.079-1.2182-0.376-0.0936-0.092-0.1536-0.182-0.1876-0.312-0.0321 0.157-0.0835 0.325-0.0624 0.469 0.0251 0.172 0.0476 0.359 0.0937 0.531 0.1309 0.093 0.2493 0.162 0.4063 0.188 0.1812 0.029 0.3492-0.177 0.5312-0.157 0.168 0.02 0.354 0.103 0.437 0.25 0.014 0.025 0.006 0.066 0 0.094-0.017 0.115-0.037 0.229-0.062 0.344 0.023-0.012 0.041-0.016 0.062-0.031 0.047-0.035-0.022-0.135 0-0.188 0.238-0.546 0.719-1.184 1.313-1.219 0.539-0.032 0.79 0.833 1.313 0.969 0.452 0.118 0.973-0.427 1.374-0.188 0.482 0.288 0.205 1.192 0.626 1.563 0.269 0.236 0.751 0.057 1.031 0.281 0.354 0.284 0.307 0.895 0.625 1.219 0.907 0.925 2.778 0.681 3.437 1.781 0.103-0.331 0.191-0.683 0.031-0.968-0.637-1.146-2.55-0.877-3.468-1.813-0.318-0.324-0.271-0.935-0.625-1.219-0.28-0.224-0.762-0.045-1.031-0.281-0.421-0.371-0.144-1.275-0.626-1.563-0.401-0.239-0.922 0.306-1.374 0.188-0.523-0.136-0.774-1.001-1.313-0.969zm28.625 0.407c-0.115 0.078-0.24 0.157-0.344 0.25-0.322 0.286-1.075 0.586-0.875 0.968 0.189 0.361 0.858-0.343 1.219-0.218 0.033-0.119 0.069-0.255 0.094-0.376 0.04-0.199 0.153-0.459 0-0.593-0.024-0.021-0.065-0.022-0.094-0.031zm-30.094 2.437c-0.092 0.311-0.231 0.618-0.375 0.906-0.111 0.224-0.3907 0.349-0.4372 0.594-0.0223 0.118 0.0948 0.224 0.0937 0.344-0.0028 0.45-0.3991 0.865-0.3437 1.312 0.0197 0.16 0.0743 0.317 0.125 0.469 0.1031-0.252 0.2171-0.517 0.2187-0.781 0.0011-0.12-0.116-0.226-0.0937-0.344 0.0465-0.245 0.3262-0.37 0.4372-0.594 0.258-0.517 0.443-1.085 0.531-1.656 0.006-0.028 0.014-0.069 0-0.094-0.034-0.061-0.095-0.115-0.156-0.156zm20.406 1.125c-0.097 0.182-0.198 0.377-0.156 0.562 0.029 0.125 0.117 0.228 0.219 0.313 0.097-0.18 0.197-0.347 0.156-0.531-0.029-0.13-0.132-0.235-0.219-0.344zm0.5 2.25c-0.031 0.162-0.068 0.345-0.031 0.5 0.015 0.064 0.061 0.099 0.094 0.156 0.039-0.192 0.062-0.383 0-0.562-0.012-0.035-0.043-0.064-0.063-0.094zm6.782 0.906c-0.071 0.649-0.024 1.322 0.062 1.969 0.011 0.082 0.031 0.17 0.063 0.25 0.09-0.086 0.163-0.164 0.187-0.281 0.067-0.324-0.206-0.641-0.25-0.969-0.043-0.32-0.045-0.643-0.062-0.969zm-6.438 1.156c-0.08 0.11-0.155 0.22-0.187 0.344-0.125 0.479-0.158 0.972-0.125 1.469 0.023-0.159 0.084-0.314 0.125-0.469 0.081-0.314 0.417-0.55 0.406-0.875-0.006-0.179-0.098-0.324-0.219-0.469zm-12.281 0.75c-0.009 0.022-0.025 0.04-0.031 0.063-0.091 0.308-0.029 0.644 0.031 0.969 0.013-0.074 0.051-0.148 0.063-0.219 0.044-0.267-0.012-0.539-0.063-0.813zm17.5 2.157c-0.268 0.13-0.518 0.27-0.531 0.531-0.007 0.12 0.074 0.176 0.187 0.25 0.274-0.122 0.582-0.213 0.594-0.469 0.006-0.135-0.114-0.232-0.25-0.312zm-24.344 0.093c-0.059 0.31-0.12 0.607-0.062 0.907 0.01 0.054 0.041 0.105 0.062 0.156 0.064-0.331 0.13-0.658 0.031-0.969-0.009-0.029-0.019-0.066-0.031-0.094zm5 1.438c-0.09 0.146-0.177 0.305-0.187 0.469-0.005 0.078 0.049 0.149 0.094 0.219 0.054-0.23 0.09-0.461 0.093-0.688zm18.625 0.5c-0.037 0.042-0.077 0.102-0.094 0.156-0.015 0.051-0.016 0.075 0 0.125 0.046-0.086 0.061-0.191 0.094-0.281zm-23.344 0.625c-0.115 0.401-0.297 0.807-0.343 1.219-0.003 0.029 0.028 0.087 0 0.094 0.074 0.052 0.144 0.104 0.219 0.156 0.134-0.385 0.259-0.76 0.218-1.156-0.011-0.11-0.041-0.215-0.094-0.313zm19.626 0.969c-0.016 0.088 0.004 0.179 0.031 0.25-0.007-0.086-0.023-0.165-0.031-0.25z"/>
  <path id="path3796" style="opacity:0.91;stroke:url(#linearGradient3899);fill:none" d="m23.999 43.5c10.77 0 19.501-8.7311 19.501-19.5 0-10.77-8.7309-19.5-19.501-19.5-10.769 0-19.499 8.7306-19.499 19.5s8.73 19.5 19.499 19.5z"/>
  <path id="path3872" style="opacity:.4;fill:#fff" d="m24 5c-10.499 0-19 8.501-19 19 0 0.169 0.0268 0.332 0.0312 0.5 0.2684-10.265 8.6388-18.5 18.969-18.5 10.329 0 18.7 8.235 18.969 18.5 0.004-0.168 0.031-0.331 0.031-0.5 0-10.499-8.502-19-19-19z"/>
  <path id="path3837" style="opacity:.2;color:#bebebe" d="m26.344 5.8125c-0.332 0.5651-0.944 1.1546-0.813 1.75 0.009 0.0398 0.054 0.0569 0.094 0.0625 0.096 0.0156 0.166-0.0248 0.25-0.0938 0.369-0.542 0.835-1.0741 0.594-1.5937-0.026-0.0544-0.061-0.1007-0.125-0.125zm-7.688 0.4687c-0.18 0.0508-0.355 0.1034-0.531 0.1563 0.022 0.0402 0.05 0.0779 0.063 0.125 0.04-0.0081 0.085-0.0186 0.124-0.0313 0.106-0.0339 0.234-0.1703 0.344-0.25zm0.282 0.0938c-0.069 0.1438-0.58 0.2304-0.563 0.4375 0.022 0.2647 0.244 0.4086 0.5 0.5313 0.02 0.0014 0.043-0.0016 0.063 0 0.2 0.0158 0.373 0.052 0.406 0.2187 0.309 0.1135 0.608 0.2496 0.781 0.4687 0.037-0.043 0.074-0.0727 0.094-0.125 0.093-0.2441 0.119-0.5489 0-0.7812-0.211-0.4103-0.821-0.5459-1.281-0.75zm-2.563 0.6875c-0.314 0.1326-0.623 0.2677-0.937 0.4063 0.052-0.0055 0.107 0.0029 0.156 0 0.285-0.0201 0.625 0.1041 0.781 0.3437 0.034 0.0526 0.044 0.1203 0.063 0.1875 0.156 0.0553 0.323 0.1161 0.468 0.1875 0.578 0.2851 0.919 1.1908 1.563 1.1563 0.39-0.0223 0.949-0.3981 0.875-0.7813-0.049-0.25-0.431-0.197-0.719-0.25-0.01-0.0018-0.022 0.002-0.031 0-0.041 0.0088-0.087 0.0291-0.125 0.0313-0.595 0.0319-0.934-0.7233-1.438-1.0626-0.22 0.0226-0.427 0.026-0.562-0.125-0.02-0.0222 0-0.0647 0-0.0937-0.025 0.0105-0.069-0.0106-0.094 0zm8.187 0.3437c-0.869 0.0767-1.897 0.9463-2.593 1.5313-0.389 0.3265-0.44 0.9676-0.813 1.3125-0.19 0.176-0.441 0.426-0.687 0.344-0.432-0.144-0.701-0.6025-0.844-1.094-0.047 0.0581-0.084 0.1114-0.094 0.1875-0.093 0.7075 0.261 1.6805 0.938 1.9065 0.246 0.082 0.497-0.168 0.687-0.344 0.373-0.345 0.424-0.986 0.813-1.3125 0.928-0.78 2.435-2.079 3.375-1.3125 0.137 0.1117-0.164 0.3693-0.094 0.5312 0.083 0.192 0.322 0.3481 0.531 0.3438 0.395-0.0084 0.92-0.2958 0.969-0.6875 0.024-0.1919-0.155-0.4134-0.344-0.5-0.129 0.0871-0.291 0.1247-0.437 0.1563-0.111 0.0988-0.216 0.177-0.344 0.1562-0.04-0.0056-0.085-0.0227-0.094-0.0625-0.009-0.0412 0.002-0.084 0-0.125-0.12-0.0636-0.231-0.1654-0.281-0.2813-0.07-0.1619 0.231-0.4195 0.094-0.5312-0.235-0.1916-0.492-0.2443-0.782-0.2188zm-9.656 0.5c-0.099 0.2273-0.046 0.5463-0.25 0.6876-0.148 0.1029-0.396 0.1777-0.594 0.1562-0.217 0.2776-0.45 0.5893-0.281 0.8438 0.161 0.2415 0.637 0.1651 0.875 0 0.204-0.1413 0.151-0.4603 0.25-0.6876-0.016 0.3305 0.469 0.4864 0.782 0.5938 0.219 0.0752 0.523 0.1641 0.687 0s0.126-0.4929 0-0.6875c-0.06-0.0931-0.147-0.1614-0.25-0.2187-0.144-0.0003-0.309-0.0499-0.437-0.0938-0.019-0.0065-0.043-0.0242-0.063-0.0312-0.008-0.003-0.023 0.0029-0.031 0-0.137 0.0083-0.3 0.0207-0.438 0.0937 0.057-0.0638 0.127-0.1268 0.188-0.1875-0.242-0.1076-0.449-0.2434-0.438-0.4688zm18.282 0.8126c-0.066 0.0068-0.134 0.0104-0.188 0.0312-0.364 0.1399-0.652 0.4923-0.875 0.8125-0.089 0.1281-0.148 0.2815-0.156 0.4375-0.011 0.201 0.144 0.364 0.156 0.562 0.215-0.308 0.498-0.6333 0.844-0.7808 0.012-0.0504 0.022-0.1105 0.031-0.1562 0.059-0.3069 0.519-0.6162 0.344-0.875-0.033-0.0481-0.091-0.0381-0.156-0.0312zm1.812 0.25c-0.039 0.1355-0.178 0.1368-0.344 0.0624 0.117 0.3158 0.511 0.5932 0.844 0.6563 0.043-0.0009 0.088 0.0153 0.125 0 0.076-0.0315 0.074-0.1839 0.156-0.1875-0.25-0.192-0.522-0.3513-0.781-0.5312zm-21.562 0.2187c-0.157 0.3345-0.519 0.5883-0.813 0.8125-0.558 0.426-1.562 0.376-1.813 1.031-0.09 0.237 0.048 0.519 0.219 0.719 0.401-0.361 1.138-0.402 1.594-0.75 0.294-0.224 0.656-0.478 0.813-0.812 0.135-0.2907 0.207-0.6522 0.062-0.938-0.013-0.0252-0.044-0.0418-0.062-0.0625zm20.437 0.9685c-0.217 0.049-0.564 0.35-0.781 0.313-0.031 0.055-0.083 0.101-0.094 0.156-0.047 0.247-0.168 0.574 0 0.75 0.076-0.127 0.014-0.313 0.094-0.437 0.213-0.333 1.121-0.324 0.968-0.688-0.034-0.081-0.104-0.113-0.187-0.094zm-6.406 0.406c-0.046 0.015-0.095 0.032-0.125 0.063-0.123 0.123-0.058 0.367 0 0.531 0.053 0.153 0.227 0.24 0.312 0.375 0.014-0.05 0.028-0.108 0.032-0.156 0.019-0.26 0.086-0.535 0-0.781-0.003-0.009 0.003-0.024 0-0.032-0.023-0.004-0.04 0.001-0.063 0-0.049-0.001-0.111-0.014-0.156 0zm3.062 0.126c-0.252 0.119-0.382 0.688-0.656 0.593-0.161-0.055-0.273-0.202-0.344-0.375-0.175 0.445-0.108 1.219 0.344 1.375 0.18 0.062 0.302-0.15 0.437-0.343-0.058-0.076-0.116-0.143-0.093-0.219 0.059-0.201 0.347-0.443 0.531-0.344 0.109 0.058 0.078 0.196 0.031 0.344 0.16 0.122 0.239 0.424 0.407 0.562 0.02 0.017 0.041 0.044 0.062 0.063 0.206 0.039 0.437 0.045 0.625 0 0.076-0.019 0.147-0.062 0.219-0.094 0.05-0.206 0.027-0.463 0.031-0.656 0.003-0.106-0.017-0.213-0.063-0.313-0.047 0.166-0.132 0.287-0.281 0.344-0.218 0.083-0.413-0.195-0.593-0.344-0.207-0.17-0.265-0.566-0.532-0.593-0.041-0.005-0.089-0.018-0.125 0zm-3.843 1.156c-0.171 0.142-0.398 0.244-0.563 0.156-0.032-0.017-0.037-0.068-0.063-0.094-0.009 0.01-0.024 0.021-0.031 0.032-0.192 0.291-0.214 0.897 0.094 1.062 0.264 0.141 0.687-0.154 0.781-0.438 0.077-0.229-0.023-0.555-0.218-0.718zm-10.063 0.344c0.001 0.021 0.019 0.041 0.031 0.062 0.006 0.009 0.025-0.007 0.032 0-0.014-0.028-0.047-0.037-0.063-0.062zm11.969 0.031c-0.069 0.034-0.126 0.094-0.188 0.125-0.221 0.109-0.529 0.276-0.75 0.218-0.103 0.345-0.359 0.714-0.125 0.938 0.214 0.204 0.61-0.025 0.875-0.156 0.277-0.137 0.677-0.317 0.688-0.625 0.007-0.241-0.302-0.334-0.5-0.5zm-11.656 1.093c-0.239 0.12-0.464 0.359-0.719 0.407-0.286 0.053-0.591-0.058-0.875 0-0.433 0.089-1.308 0.098-1.219 0.531 0.128 0.625 1.588-0.554 1.906 0 0.085 0.147 0.032 0.308-0.062 0.469 0.083 0.004 0.168 0.015 0.25 0 0.397-0.074 0.775-0.64 1.125-0.438 0.029 0.017 0.045 0.067 0.062 0.094-0.109-0.159 0.069-0.572 0.063-0.844-0.086-0.086-0.209-0.134-0.313-0.187-0.062-0.033-0.137-0.038-0.218-0.032zm0.75 1.063c-0.062 0.036-0.12 0.077-0.188 0.063-0.029-0.007-0.044-0.017-0.062-0.032 0.125 0.294-0.264 0.959 0.062 1.032 0.306 0.067 0.588-0.504 0.531-0.813-0.026-0.141-0.187-0.193-0.343-0.25zm10.093 0.375c-0.079 0.019-0.129 0.072-0.156 0.156-0.03 0.093 0.017 0.155 0.094 0.219 0.243 0.006 0.55 0.182 0.687 0 0.071-0.094 0.027-0.222-0.031-0.344-0.208-0.003-0.436-0.068-0.594-0.031zm-12.093 0.344c-0.089 0.081-0.168 0.129-0.25 0.187-0.271 0.194-0.665 0.111-1 0.157-0.112 0.015-0.219 0.066-0.313 0.124-0.281 0.174-0.362 0.581-0.625 0.782-0.3 0.229-0.774 0.161-1.031 0.437-0.313 0.336-0.177 0.935-0.438 1.313-0.34 0.492-1.121 0.599-1.406 1.125-0.132 0.243-0.025 0.605 0.031 0.937 0.309-0.476 1.048-0.589 1.375-1.062 0.261-0.378 0.125-0.977 0.438-1.313 0.257-0.276 0.731-0.208 1.031-0.437 0.263-0.201 0.344-0.608 0.625-0.782 0.378-0.233 0.951-0.022 1.313-0.281 0.328-0.234 0.794-0.681 0.593-1.031-0.069-0.121-0.189-0.164-0.343-0.156zm14.781 0.062c-0.306-0.007-0.637 0.109-0.844 0.313-0.085 0.084-0.024 0.247-0.094 0.343-0.161 0.222-0.515 0.225-0.687 0.438-0.214 0.264-0.145 0.719-0.375 0.969-0.238 0.257-0.593 0.5-0.938 0.437-0.202-0.036-0.248-0.359-0.437-0.437-0.134-0.056-0.335 0.102-0.438 0-0.055-0.056-0.121-0.118-0.156-0.188-0.124 0.418-0.121 0.911 0.156 1.188 0.103 0.102 0.304-0.056 0.438 0 0.047 0.019 0.091 0.052 0.125 0.093 0.098-0.078 0.206-0.15 0.312-0.218 0.328-0.21 0.736-0.281 1.125-0.344 0.032-0.175 0.081-0.368 0.188-0.5 0.172-0.213 0.526-0.216 0.687-0.438 0.07-0.096 0.009-0.259 0.094-0.343 0.276-0.272 0.757-0.369 1.125-0.25 0.294 0.094 0.35 0.499 0.594 0.687 0.073 0.057 0.18 0.069 0.281 0.094-0.076-0.149 0.152-0.299 0.313-0.469-0.123-0.091-0.213-0.186-0.157-0.312 0.024-0.053 0.089-0.071 0.157-0.063-0.155-0.108-0.434-0.126-0.594-0.25-0.244-0.188-0.3-0.593-0.594-0.687-0.092-0.03-0.179-0.06-0.281-0.063zm1.375 0c-0.027 0.008-0.051 0.036-0.063 0.063-0.159 0.356 0.72 0.458 0.781 0.843 0.02 0.12 0.016 0.256-0.031 0.376 0.119 0.105 0.235 0.241 0.313 0.374 0.148 0.257 0.033 0.606 0.156 0.876 0.138 0.3 0.305 0.864 0.625 0.781 0.369-0.096-0.069-0.817 0.156-1.125-0.02 0.071-0.074 0.104-0.156 0.125-0.32 0.083-0.487-0.481-0.625-0.781-0.123-0.27-0.008-0.619-0.156-0.876-0.155-0.266-0.43-0.485-0.719-0.593-0.081-0.031-0.202-0.087-0.281-0.063zm2.312 1c-0.126-0.03-0.298 0.083-0.375 0.188-0.168 0.231 0.048 0.709 0 0.968 0.079-0.098 0.255-0.185 0.375-0.156 0.525 0.127 0.465 1.052 0.938 1.313 0.356 0.197 0.835-0.044 1.218 0.093 0.049 0.018 0.104 0.043 0.157 0.063 0.06-0.068 0.131-0.12 0.187-0.187 0.109-0.13 0.316-0.272 0.282-0.438-0.051-0.244-0.391-0.353-0.626-0.438-0.383-0.137-0.862 0.104-1.218-0.093-0.473-0.261-0.413-1.186-0.938-1.313zm-1.844 0.625c-0.028 0.031-0.063 0.068-0.093 0.094-0.095 0.083-0.24 0.151-0.375 0.187 0.098 0.035 0.189 0.093 0.218 0.188 0.089 0.285-0.623 0.547-0.437 0.781 0.131 0.166 0.434-0.018 0.594-0.156 0.215-0.187 0.388-0.53 0.343-0.813-0.019-0.124-0.121-0.193-0.25-0.281zm-23.437 2.813c-0.089-0.002-0.1713 0.019-0.25 0.062-0.1602 0.089-0.0075 0.393-0.1562 0.5-0.2354 0.17-0.5982-0.086-0.875 0-0.438 0.137-0.8955 0.384-1.125 0.782-0.1747 0.302-0.0966 0.713-0.0938 1.062 0.0005 0.062 0.0032 0.123 0 0.188 0.0166-0.085 0.0501-0.175 0.0938-0.25 0.2295-0.398 0.687-0.645 1.125-0.782 0.2768-0.086 0.6396 0.17 0.875 0 0.1487-0.107-0.004-0.411 0.1562-0.5 0.3146-0.172 0.7594 0.058 1.0625 0.25 0.3485 0.221 0.3865 1.087 0.7815 0.969 0.357-0.107 0.19-0.605 0.125-1.063-0.032 0.03-0.074 0.048-0.125 0.063-0.395 0.118-0.433-0.748-0.7815-0.969-0.2274-0.144-0.5455-0.308-0.8125-0.312zm31.406 0.031c-0.037-0.011-0.079 0.014-0.125 0.031-0.317 0.122-0.152 0.683 0 1 0.199-0.076 0.292 0.133 0.406 0.375 0.101 0.054 0.206 0.11 0.282 0.188 0.074 0.076 0.11 0.198 0.156 0.312 0.189 0.037 0.395-0.092 0.594-0.125 0.07-0.201 0.117-0.394 0.281-0.375 0.339 0.04 0.368 0.593 0.437 0.938 0.002 0.009-0.001 0.022 0 0.031 0.166 0.261 0.357 0.493 0.626 0.469 0.115-0.011 0.179-0.174 0.25-0.25-0.04-0.276-0.106-0.541-0.157-0.813-0.029 0.027-0.058 0.059-0.093 0.063-0.512 0.046-0.639-0.869-1.126-1.031-0.276-0.093-0.603 0.199-0.874 0.093-0.319-0.123-0.397-0.831-0.657-0.906zm-3.531 0.469c-0.103-0.016-0.213 0.058-0.25 0.156-0.106 0.28-0.013 0.583 0.125 0.875 0.041-0.022 0.083-0.038 0.125-0.031 0.408 0.061 0.56 0.589 0.781 0.937 0.432 0.679 0.62 1.516 1.063 2.188 0.069 0.105 0.176 0.197 0.281 0.281 0.102-0.194 0.345-0.382 0.313-0.594-0.047-0.305-0.424-0.43-0.594-0.687-0.443-0.672-0.631-1.509-1.063-2.188-0.221-0.348-0.373-0.876-0.781-0.937zm-32.094 2.531c-0.0399 0.328-0.1015 0.636-0.125 0.969 0.4185-0.092 0.3279 0.847 0.625 1.156 0.397 0.412 0.942 0.651 1.4688 0.875 0.499 0.212 1.1199 0.093 1.5625 0.406 0.2892 0.205 0.3787 0.621 0.625 0.875 0.3027 0.313 0.6016 0.712 1.0313 0.782 0.1812 0.029 0.3492-0.177 0.5312-0.157 0.098 0.012 0.196 0.036 0.281 0.094 0.04-0.135 0.064-0.269 0.094-0.406-0.343 0.175-0.8743-0.128-1.1562-0.407-0.0916-0.09-0.1223-0.185-0.1563-0.312-0.2274-0.162-0.4329-0.395-0.625-0.594-0.2463-0.254-0.3358-0.67-0.625-0.875-0.4426-0.313-1.0635-0.194-1.5625-0.406-0.5268-0.224-1.0718-0.463-1.4688-0.875-0.2671-0.277-0.2105-1.039-0.5-1.125zm20.125 0.125c-0.104 0.248-0.155 0.494-0.125 0.75 0.186-0.167 0.366-0.31 0.344-0.531-0.01-0.102-0.122-0.158-0.219-0.219zm17.5 0.094c-0.139 0.291-0.414 0.501-0.656 0.718-0.371 0.334-0.846 0.544-1.219 0.876-0.322 0.286-1.075 0.586-0.875 0.968 0.189 0.361 0.858-0.343 1.219-0.218 0.298-0.203 0.607-0.385 0.875-0.626 0.26-0.233 0.563-0.454 0.687-0.781 0.093-0.244 0.056-0.526 0-0.781-0.009-0.045-0.022-0.105-0.031-0.156zm-33.687 0.437c-0.169 0.344-0.338 0.684-0.125 0.907 0.042 0.043 0.0968 0.035 0.1562 0.031 0.1576-0.322 0.2831-0.657 0.0938-0.875-0.0343-0.04-0.0723-0.052-0.125-0.063zm15.844 1.438c-0.071 0.085-0.116 0.177-0.126 0.281-0.06 0.66 0.428 1.252 0.782 1.812 0.516 0.818 0.943 2.109 1.906 2.188 0.411 0.034 0.559-0.825 0.969-0.781 0.184 0.019 0.161 0.403 0.343 0.437 0.397 0.074 0.632-0.676 1.032-0.625 0.162 0.023 0.192 0.312 0.344 0.375 0.294 0.123 0.678-0.132 0.968 0 0.16 0.073 0.291 0.2 0.406 0.344 0.12-0.222 0.27-0.429 0.219-0.656-0.067-0.301-0.344-0.56-0.625-0.688-0.29-0.132-0.674 0.123-0.968 0-0.152-0.063-0.182-0.352-0.344-0.375-0.4-0.051-0.635 0.699-1.032 0.625-0.182-0.034-0.159-0.418-0.343-0.437-0.41-0.044-0.558 0.815-0.969 0.781-0.963-0.079-1.39-1.37-1.906-2.188-0.222-0.35-0.497-0.705-0.656-1.093zm14.718 0.312c-0.045 0.162-0.199 0.313-0.281 0.469 0.225 0.076 0.482 0.085 0.563-0.094 0.071-0.157-0.097-0.26-0.282-0.375zm-29.781 0.125c0.0111 0.094 0.0116 0.19 0.0312 0.282 0.0169-0.103 0.0108-0.204-0.0312-0.282zm31.375 1.032c-0.185 0.673-0.501 1.318-0.875 1.906-0.21 0.329-0.565 0.55-0.781 0.875-0.302 0.454-0.569 0.936-0.688 1.469-0.107 0.478-0.089 0.974-0.062 1.468 0.017-0.159 0.027-0.313 0.062-0.468 0.119-0.533 0.386-1.015 0.688-1.469 0.216-0.325 0.571-0.546 0.781-0.875 0.44-0.691 0.806-1.479 0.969-2.282 0.04-0.199 0.153-0.459 0-0.593-0.024-0.021-0.065-0.022-0.094-0.031zm-9.625 3.437c-0.12 0.224-0.271 0.459-0.219 0.687 0.07 0.306 0.489 0.429 0.656 0.688 0.061-0.311 0.163-0.617 0.063-0.906-0.072-0.21-0.322-0.321-0.5-0.469zm-21.406 1.625c-0.0725 0.177-0.1479 0.347-0.125 0.531 0.11 0.89 0.7602 1.638 1.3122 2.344 0.367 0.469 0.911 0.779 1.313 1.219 0.202 0.221 0.442 0.447 0.562 0.718 0.059-0.309 0.124-0.615 0.031-0.906-0.099-0.315-0.37-0.568-0.593-0.812-0.402-0.44-0.946-0.75-1.313-1.219-0.453-0.579-0.9562-1.183-1.1872-1.875zm10.812 0.156c-0.025 0.082-0.035 0.175-0.062 0.25-0.169 0.47-0.735 0.74-0.875 1.219-0.088 0.298-0.028 0.623 0.031 0.937 0.17-0.438 0.683-0.708 0.844-1.156 0.138-0.383 0.292-0.863 0.093-1.218-0.007-0.014-0.023-0.019-0.031-0.032zm11.094 0.25c-0.057 0.279-0.157 0.576-0.094 0.844 0.052 0.218 0.225 0.382 0.375 0.562 0.123-0.167 0.226-0.335 0.219-0.531-0.011-0.337-0.33-0.579-0.5-0.875zm6.844 2.469c-0.051 0.048-0.107 0.113-0.157 0.156-0.254 0.223-0.597 0.307-0.874 0.5-0.306 0.212-0.825 0.348-0.844 0.719-0.013 0.234 0.295 0.33 0.531 0.469 0.112-0.055 0.222-0.125 0.313-0.188 0.277-0.193 0.62-0.277 0.874-0.5 0.14-0.122 0.307-0.255 0.344-0.437 0.051-0.243-0.092-0.479-0.187-0.719zm-18.844 0.719c-0.074 0.404-0.168 0.836-0.469 1.094-0.294 0.252-0.815 0.017-1.125 0.25-0.238 0.179-0.418 0.483-0.437 0.781-0.01 0.156 0.185 0.281 0.187 0.437 0.001 0.03 0.001 0.064 0 0.094 0.074-0.12 0.143-0.232 0.25-0.312 0.31-0.233 0.831 0.002 1.125-0.25 0.356-0.306 0.454-0.851 0.532-1.313 0.042-0.256-0.014-0.518-0.063-0.781zm11.969 0.031c-0.071 0.478-0.045 0.964 0.031 1.437 0.142 0.889 0.721 1.658 0.937 2.532 0.057 0.227 0.1 0.454 0.126 0.687 0.022-0.106 0.068-0.215 0.062-0.312-0.029-0.467-0.075-0.921-0.188-1.375-0.216-0.874-0.795-1.643-0.937-2.532-0.023-0.142-0.022-0.292-0.031-0.437zm5.187 1.875c-0.21 0.094-0.41 0.218-0.469 0.406-0.062 0.202 0.232 0.387 0.188 0.594-0.018 0.083-0.064 0.169-0.094 0.25 0.26-0.293 0.951-0.323 0.969-0.719 0.011-0.249-0.358-0.378-0.594-0.531zm-24 0.375c-0.055 0.288-0.116 0.565-0.062 0.844 0.045 0.236 0.229 0.441 0.343 0.656 0.068-0.233 0.119-0.448 0.094-0.687-0.03-0.294-0.26-0.541-0.375-0.813zm4.907 1.063c-0.103 0.433-0.282 0.837-0.594 1.124-0.244 0.224-0.734 0.049-0.969 0.282-0.149 0.148-0.08 0.411-0.187 0.594-0.146 0.247-0.548 0.341-0.594 0.624-0.021 0.129 0.186 0.218 0.156 0.344-0.033 0.141-0.373 0.108-0.344 0.25-0.783-0.396-1.506-0.82-2.218-1.312-0.087 0.248-0.191 0.495-0.219 0.75-0.003 0.029 0.028 0.087 0 0.094 0.785 0.556 1.572 1.031 2.437 1.468-0.029-0.142 0.311-0.109 0.344-0.25 0.03-0.126-0.177-0.215-0.156-0.344 0.046-0.283 0.448-0.377 0.594-0.624 0.107-0.183 0.038-0.446 0.187-0.594 0.235-0.233 0.725-0.058 0.969-0.282 0.499-0.46 0.698-1.227 0.687-1.906-0.001-0.078-0.049-0.149-0.093-0.218zm18.624 0.093c-0.259 0.493-0.728 0.897-1.218 1.125-0.29 0.135-0.63-0.085-0.938 0-0.326 0.091-0.549 0.441-0.875 0.532-0.168 0.046-0.408 0.123-0.531 0-0.024-0.025-0.02-0.065-0.031-0.094 0.01 0.127 0.023 0.247 0.031 0.375 0.014 0.232-0.164 0.554 0 0.719 0.123 0.123 0.363 0.046 0.531 0 0.326-0.091 0.549-0.441 0.875-0.532 0.308-0.085 0.648 0.135 0.938 0 0.653-0.304 1.255-0.951 1.406-1.656 0.033-0.155-0.137-0.317-0.188-0.469z"/>
  <path id="path3879" style="opacity:.4" d="m24 44c-10.499 0-19-8.501-19-19 0-0.169 0.0268-0.332 0.0312-0.5 0.2684 10.265 8.6388 18.5 18.969 18.5 10.329 0 18.7-8.235 18.969-18.5 0.004 0.168 0.031 0.331 0.031 0.5 0 10.499-8.502 19-19 19z"/>
 </g>
</svg>
