<?xml version="1.0" encoding="UTF-8" standalone="no"?>
<!-- Created with Inkscape (http://www.inkscape.org/) -->
<svg id="svg3923" xmlns:rdf="http://www.w3.org/1999/02/22-rdf-syntax-ns#" xmlns="http://www.w3.org/2000/svg" height="48px" width="48px" version="1.1" xmlns:cc="http://creativecommons.org/ns#" xmlns:xlink="http://www.w3.org/1999/xlink" xmlns:dc="http://purl.org/dc/elements/1.1/">
 <defs id="defs3925">
  <linearGradient id="linearGradient3145" y2="172" gradientUnits="userSpaceOnUse" y1="172" gradientTransform="matrix(0,1,-1,0,196,-296)" x2="344" x1="296">
   <stop id="stop3849-0" style="stop-color:#fff" offset="0"/>
   <stop id="stop3851-1" style="stop-color:#e8e8e8" offset="1"/>
  </linearGradient>
  <linearGradient id="linearGradient4539" y2="48" gradientUnits="userSpaceOnUse" x2="25" y1="-2" x1="25">
   <stop id="stop4535" style="stop-color:#fff" offset="0"/>
   <stop id="stop4537" style="stop-color:#fff;stop-opacity:0" offset="1"/>
  </linearGradient>
 </defs>
 <metadata id="metadata3928">
  <rdf:RDF>
   <cc:Work rdf:about="">
    <dc:format>image/svg+xml</dc:format>
    <dc:type rdf:resource="http://purl.org/dc/dcmitype/StillImage"/>
    <dc:title/>
   </cc:Work>
  </rdf:RDF>
 </metadata>
 <g id="layer1">
  <path id="path4545" style="opacity:.2;color:#000000" d="m27 7.5c-3.3601 0-6.409 1.2812-8.7188 3.375l-0.219 0.219-0.281-0.094c-0.88-0.306-1.808-0.5-2.781-0.5-4.7003 0-8.5 3.7996-8.5 8.5 0 0.48803 0.043245 0.99262 0.125 1.4688l0.0625 0.343-0.3125 0.157c-3.508 1.97-5.875 5.719-5.875 10.031 0 6.357 5.1428 11.5 11.5 11.5h25.5c5.5288 0 10-4.4712 10-10 0-4.5854-3.0797-8.4091-7.2812-9.5938l-0.40625-0.125 0.0625-0.4375c0.088-0.613 0.125-1.21 0.125-1.844 0-7.186-5.814-13-13-13z"/>
  <path id="path4543" style="opacity:.4;color:#000000" d="m27 7c-3.3601 0-6.409 1.2812-8.7188 3.375l-0.219 0.219-0.281-0.094c-0.88-0.306-1.808-0.5-2.781-0.5-4.7003 0-8.5 3.7996-8.5 8.5 0 0.48803 0.043245 0.99262 0.125 1.4688l0.0625 0.343-0.3125 0.157c-3.508 1.97-5.875 5.719-5.875 10.031 0 6.357 5.1428 11.5 11.5 11.5h25.5c5.5288 0 10-4.4712 10-10 0-4.5854-3.0797-8.4091-7.2812-9.5938l-0.40625-0.125 0.0625-0.4375c0.088-0.613 0.125-1.21 0.125-1.844 0-7.186-5.814-13-13-13z"/>
  <path id="path3866" style="color:#000000;fill:url(#linearGradient3145)" d="m27 6.5c-3.36 0-6.409 1.2812-8.719 3.375l-0.219 0.219-0.281-0.094c-0.88-0.3059-1.808-0.5-2.781-0.5-4.7 0-8.5 3.8-8.5 8.5 0 0.488 0.0432 0.993 0.125 1.469l0.0625 0.343-0.3125 0.157c-3.508 1.97-5.875 5.719-5.875 10.031 0 6.357 5.1428 11.5 11.5 11.5h25.5c5.529 0 10-4.471 10-10 0-4.585-3.08-8.409-7.281-9.594l-0.407-0.125 0.063-0.437c0.088-0.613 0.125-1.21 0.125-1.844 0-7.186-5.814-13-13-13z"/>
  <path id="path4510" style="opacity:.41;color:#000000;stroke:#000;fill:none" d="m27 6.5c-3.36 0-6.409 1.2812-8.719 3.375l-0.219 0.219-0.281-0.094c-0.88-0.3059-1.808-0.5-2.781-0.5-4.7 0-8.5 3.8-8.5 8.5 0 0.488 0.0432 0.993 0.125 1.469l0.0625 0.343-0.3125 0.157c-3.508 1.97-5.875 5.719-5.875 10.031 0 6.357 5.1428 11.5 11.5 11.5h25.5c5.529 0 10-4.471 10-10 0-4.585-3.08-8.409-7.281-9.594l-0.407-0.125 0.063-0.437c0.088-0.613 0.125-1.21 0.125-1.844 0-7.186-5.814-13-13-13z"/>
  <path id="path4512" style="color:#000000;fill:url(#linearGradient4539)" d="m27 7c-3.233 0-6.152 1.2351-8.375 3.25l-0.219 0.188-0.218 0.218-0.282-0.094-0.281-0.093c-0.839-0.292-1.718-0.469-2.625-0.469-4.431 0-8 3.569-8 8 0 0.458 0.0482 0.928 0.125 1.375l0.0625 0.344 0.0625 0.375-0.3438 0.156-0.2812 0.156h-0.0312c-3.3436 1.888-5.5938 5.474-5.5938 9.594 0 6.088 4.9125 11 11 11h25.5c5.259 0 9.5-4.241 9.5-9.5 0-4.362-2.914-7.999-6.906-9.125h-0.032l-0.406-0.125-0.406-0.125 0.062-0.406 0.063-0.438c0.084-0.586 0.125-1.167 0.125-1.781 0-6.916-5.584-12.5-12.5-12.5zm0 1c6.378 0 11.5 5.122 11.5 11.5 0 0.57-0.047 1.086-0.125 1.625l-0.063 0.437-0.062 0.407-0.125 0.843 0.844 0.282 0.406 0.125 0.406 0.125h0.031l0.094 0.031c3.524 1.038 6.094 4.244 6.094 8.125 0 4.722-3.778 8.5-8.5 8.5h-25.5c-5.5496 0-10-4.45-10-10 0-3.724 2.0344-6.929 5.0312-8.656 0.0253-0.015 0.0371-0.048 0.0626-0.063h0.0312l0.1875-0.125 0.0937-0.031 0.25-0.125 0.7188-0.312-0.125-0.75-0.0625-0.376-0.0313-0.031-0.0624-0.312h0.0312c-0.0688-0.401-0.125-0.831-0.125-1.219 0-3.894 3.106-7 7-7 0.776 0 1.528 0.144 2.281 0.406h0.031l0.282 0.094 0.281 0.094 0.594 0.218 0.437-0.437 0.156-0.187 0.063-0.032 0.156-0.156c2.051-1.8589 4.741-3 7.719-3z"/>
  <path id="path4541" style="color:#000000;fill:url(#linearGradient4539)" d="m27 7c-3.233 0-6.152 1.2351-8.375 3.25l-0.219 0.188-0.218 0.218-0.282-0.094-0.281-0.093c-0.839-0.292-1.718-0.469-2.625-0.469-4.431 0-8 3.569-8 8 0 0.458 0.0482 0.928 0.125 1.375l0.0625 0.344 0.0625 0.375-0.3438 0.156-0.2812 0.156h-0.0312c-3.3436 1.888-5.5938 5.474-5.5938 9.594 0 6.088 4.9125 11 11 11h25.5c5.259 0 9.5-4.241 9.5-9.5 0-4.362-2.914-7.999-6.906-9.125h-0.032l-0.406-0.125-0.406-0.125 0.062-0.406 0.063-0.438c0.084-0.586 0.125-1.167 0.125-1.781 0-6.916-5.584-12.5-12.5-12.5zm0 1c6.378 0 11.5 5.122 11.5 11.5 0 0.57-0.047 1.086-0.125 1.625l-0.063 0.437-0.062 0.407-0.125 0.843 0.844 0.282 0.406 0.125 0.406 0.125h0.031l0.094 0.031c3.524 1.038 6.094 4.244 6.094 8.125 0 4.722-3.778 8.5-8.5 8.5h-25.5c-5.5496 0-10-4.45-10-10 0-3.724 2.0344-6.929 5.0312-8.656 0.0253-0.015 0.0371-0.048 0.0626-0.063h0.0312l0.1875-0.125 0.0937-0.031 0.25-0.125 0.7188-0.312-0.125-0.75-0.0625-0.376-0.0313-0.031-0.0624-0.312h0.0312c-0.0688-0.401-0.125-0.831-0.125-1.219 0-3.894 3.106-7 7-7 0.776 0 1.528 0.144 2.281 0.406h0.031l0.282 0.094 0.281 0.094 0.594 0.218 0.437-0.437 0.156-0.187 0.063-0.032 0.156-0.156c2.051-1.8589 4.741-3 7.719-3z"/>
 </g>
</svg>
