<?xml version="1.0" encoding="UTF-8" standalone="no"?>
<!-- Created with Inkscape (http://www.inkscape.org/) -->
<svg id="svg3759" xmlns:rdf="http://www.w3.org/1999/02/22-rdf-syntax-ns#" xmlns="http://www.w3.org/2000/svg" height="48" width="48" version="1.1" xmlns:cc="http://creativecommons.org/ns#" xmlns:xlink="http://www.w3.org/1999/xlink" xmlns:dc="http://purl.org/dc/elements/1.1/">
 <metadata id="metadata37">
  <rdf:RDF>
   <cc:Work rdf:about="">
    <dc:format>image/svg+xml</dc:format>
    <dc:type rdf:resource="http://purl.org/dc/dcmitype/StillImage"/>
    <dc:title/>
   </cc:Work>
  </rdf:RDF>
 </metadata>
 <defs id="defs3761">
  <radialGradient id="radialGradient3755" gradientUnits="userSpaceOnUse" cy="38.909" cx="24.85" gradientTransform="matrix(1 0 0 .37 0 24.512)" r="20.203">
   <stop id="stop26115-7-7-9" offset="0"/>
   <stop id="stop26117-3-7-8" style="stop-opacity:0" offset="1"/>
  </radialGradient>
  <radialGradient id="radialGradient4274" gradientUnits="userSpaceOnUse" cx="24.85" cy="38.909" r="20.203" gradientTransform="matrix(1.0085 0 0 .37315 -.21140 24.39)">
   <stop id="stop26123-4-7-8" offset="0"/>
   <stop id="stop26125-3-9-9" style="stop-opacity:0" offset="1"/>
  </radialGradient>
  <linearGradient id="linearGradient3901">
   <stop id="stop3903" style="stop-color:#f5f5f5" offset="0"/>
   <stop id="stop3791" style="stop-color:#e8e8e8" offset=".5"/>
   <stop id="stop3905" style="stop-color:#c3c3c3" offset="1"/>
  </linearGradient>
  <radialGradient id="radialGradient3789" xlink:href="#linearGradient3901" gradientUnits="userSpaceOnUse" cy="18.472" cx="24" gradientTransform="matrix(-1.8462 -5.2072e-8 4.5635e-8 -1.618 68.308 41.888)" r="19.5"/>
  <clipPath id="clipPath3795" clipPathUnits="userSpaceOnUse">
   <path id="path3797" style="fill:url(#radialGradient3789)" d="m4.5 23.999c0 10.77 8.731 19.501 19.5 19.501 10.77 0 19.5-8.7309 19.5-19.501 0-10.769-8.7306-19.499-19.5-19.499s-19.5 8.7299-19.5 19.499z"/>
  </clipPath>
  <linearGradient id="linearGradient3807" y2="8" gradientUnits="userSpaceOnUse" x2="40" y1="40" x1="8">
   <stop id="stop3803" style="stop-color:#b4b4b4" offset="0"/>
   <stop id="stop3811" style="stop-color:#fff" offset=".5"/>
   <stop id="stop3809" style="stop-color:#d2d2d2" offset=".84084"/>
   <stop id="stop3805" style="stop-color:#d7d7d7" offset="1"/>
  </linearGradient>
  <radialGradient id="radialGradient4379" xlink:href="#linearGradient4271" gradientUnits="userSpaceOnUse" cy="20" cx="23" r="10"/>
  <linearGradient id="linearGradient4271">
   <stop id="stop4273" style="stop-color:#fff" offset="0"/>
   <stop id="stop4275" style="stop-color:#fff;stop-opacity:0" offset="1"/>
  </linearGradient>
  <radialGradient id="radialGradient4381" xlink:href="#linearGradient4271" gradientUnits="userSpaceOnUse" cy="18.611" cx="20.494" gradientTransform="matrix(0.5 6.2018e-8 -6.1534e-8 0.5 10.753 9.6943)" r="10"/>
 </defs>
 <g id="layer1">
  <path id="path9641" style="filter:url(#filter5927);enable-background:new;fill:url(#radialGradient4274)" d="m45.053 38.909a20.203 7.4751 0 1 1 -40.406 0 20.203 7.4751 0 1 1 40.406 0z" transform="matrix(.76993 0 0 .70231 4.8675 13.674)"/>
  <path id="path9643" style="opacity:.51837;filter:url(#filter5788);enable-background:new;fill:url(#radialGradient3755)" d="m45.053 38.909a20.203 7.4751 0 1 1 -40.406 0 20.203 7.4751 0 1 1 40.406 0z" transform="matrix(1.0408 0 0 .94940 -1.8633 3.5144)"/>
  <path id="path6495" d="m4.5 23.999c0 10.77 8.731 19.501 19.5 19.501 10.77 0 19.5-8.7309 19.5-19.501 0-10.769-8.7306-19.499-19.5-19.499s-19.5 8.7299-19.5 19.499z" style="fill:url(#radialGradient3789)"/>
  <path id="path3872" style="opacity:.4;fill:#fff" d="m24 5c-10.499 0-19 8.501-19 19 0 0.169 0.0268 0.332 0.0312 0.5 0.2684-10.265 8.6388-18.5 18.969-18.5 10.329 0 18.7 8.235 18.969 18.5 0.004-0.168 0.031-0.331 0.031-0.5 0-10.499-8.502-19-19-19z"/>
  <path id="path3813" d="m4.5 23.999c0 10.77 8.731 19.501 19.5 19.501 10.77 0 19.5-8.7309 19.5-19.501 0-10.769-8.7306-19.499-19.5-19.499s-19.5 8.7299-19.5 19.499z" style="opacity:.4;stroke:#000;stroke-width:6;fill:none" clip-path="url(#clipPath3795)"/>
  <path id="path3023" style="stroke:url(#linearGradient3807);stroke-width:4;fill:none" clip-path="url(#clipPath3795)" d="m4.5 23.999c0 10.77 8.731 19.501 19.5 19.501 10.77 0 19.5-8.7309 19.5-19.501 0-10.769-8.7306-19.499-19.5-19.499s-19.5 8.7299-19.5 19.499z"/>
  <path id="path3796" style="opacity:.41;stroke:#000;fill:none" d="m23.999 4.5c10.77 0 19.501 8.7311 19.501 19.5s-8.731 19.5-19.501 19.5c-10.769 0-19.499-8.731-19.499-19.5s8.7299-19.5 19.499-19.5z"/>
  <g id="g4395" transform="matrix(1.3995 0 0 1.3995 -9.589 -9.4642)">
   <path id="path4269" style="fill:url(#radialGradient4379)" d="m34 24c0 5.5228-4.4772 10-10 10s-10-4.4772-10-10 4.4772-10 10-10 10 4.4772 10 10z" transform="matrix(1.179 0 0 1.179 -4.295 -4.3841)"/>
   <path id="path4279" style="opacity:.8;fill:url(#radialGradient4381)" d="m34 24c0 5.5228-4.4772 10-10 10s-10-4.4772-10-10 4.4772-10 10-10 10 4.4772 10 10z" transform="matrix(1.179 0 0 1.179 -4.295 -4.3841)"/>
   <path id="path4290" style="opacity:.8;fill:#fff" d="m22 18.5c0 0.828-0.672 1.5-1.5 1.5s-1.5-0.672-1.5-1.5 0.672-1.5 1.5-1.5c0.82843 0 1.5 0.67157 1.5 1.5z" transform="matrix(1.179 0 0 1.179 -4.295 -4.3841)"/>
   <path id="path3848" style="opacity:.2" d="m24 36.415c-6.5112 0-11.79-5.2784-11.79-11.79 0-0.12062 0.01873-0.23751 0.02233-0.35726 0.19058 6.3444 5.3767 11.432 11.767 11.432 6.3906 0 11.577-5.0879 11.767-11.432 0.0036 0.11975 0.02233 0.23664 0.02233 0.35726 0 6.5112-5.2784 11.79-11.79 11.79z"/>
   <path id="path3853" d="m24 11.764c-6.5112 0-11.79 5.2784-11.79 11.79 0 0.12062 0.01873 0.23751 0.02233 0.35726 0.19058-6.3444 5.3767-11.432 11.767-11.432 6.3906 0 11.577 5.0879 11.767 11.432 0.0036-0.11975 0.02233-0.23664 0.02233-0.35726 0-6.5112-5.2784-11.79-11.79-11.79z" style="opacity:.2"/>
  </g>
 </g>
 <g id="layer2">
  <g id="g3815" transform="matrix(.81581 0 0 .81581 4.5454 4.4204)">
   <path id="path3953" d="m13.343 13.343 10.657 10.657 9.991-7.493" style="opacity:.5;stroke-linejoin:round;stroke-width:1.2258;stroke:#000;stroke-linecap:round;enable-background:new;fill:none"/>
   <path id="path4005-8" d="m24 24 10.657-11.989" style="stroke-width:.61288;stroke:#dc0000;enable-background:new;fill:none"/>
  </g>
 </g>
</svg>
