<?xml version="1.0" encoding="UTF-8" standalone="no"?>
<!-- Created with Inkscape (http://www.inkscape.org/) -->
<svg id="svg3759" xmlns:rdf="http://www.w3.org/1999/02/22-rdf-syntax-ns#" xmlns="http://www.w3.org/2000/svg" height="48" width="48" version="1.1" xmlns:cc="http://creativecommons.org/ns#" xmlns:xlink="http://www.w3.org/1999/xlink" xmlns:dc="http://purl.org/dc/elements/1.1/">
 <metadata id="metadata37">
  <rdf:RDF>
   <cc:Work rdf:about="">
    <dc:format>image/svg+xml</dc:format>
    <dc:type rdf:resource="http://purl.org/dc/dcmitype/StillImage"/>
    <dc:title/>
   </cc:Work>
  </rdf:RDF>
 </metadata>
 <defs id="defs3761">
  <linearGradient id="linearGradient3874" y2="24" gradientUnits="userSpaceOnUse" x2="43.5" gradientTransform="matrix(0 1 -1 0 48 -.0000029)" y1="24" x1="4.5">
   <stop id="stop3846" style="stop-color:#fae794" offset="0"/>
   <stop id="stop3848" style="stop-color:#ffe18e" offset=".44444"/>
   <stop id="stop3850" style="stop-color:#ffcb3d" offset="1"/>
  </linearGradient>
  <linearGradient id="linearGradient3946" y2="24" gradientUnits="userSpaceOnUse" y1="24" gradientTransform="matrix(0 -1 1 0 0 48)" x2="44" x1="4">
   <stop id="stop4075-1" style="stop-color:#7f6a2b" offset="0"/>
   <stop id="stop4077-2" style="stop-color:#9b8b27" offset="1"/>
  </linearGradient>
 </defs>
 <g id="layer1">
  <path id="path4026" style="opacity:.05;block-progression:tb;text-indent:0;color:#000000;stroke:#000;stroke-width:2;text-transform:none" d="m24 5c-11.04 0-20 8.961-20 20 0 11.04 8.96 20 20 20s20-8.96 20-20c0-11.039-8.96-20-20-20z"/>
  <path id="path4024" d="m24 5c-11.04 0-20 8.961-20 20 0 11.04 8.96 20 20 20s20-8.96 20-20c0-11.039-8.96-20-20-20z" style="opacity:.1;block-progression:tb;text-indent:0;color:#000000;stroke:#000;text-transform:none"/>
  <path id="path4018" style="opacity:.2;block-progression:tb;text-indent:0;color:#000000;text-transform:none" d="m24 5c-11.04 0-20 8.961-20 20 0 11.04 8.96 20 20 20s20-8.96 20-20c0-11.039-8.96-20-20-20z"/>
  <path id="path6495" d="m4.5 24.001c0-10.77 8.7311-19.501 19.5-19.501 10.77 0 19.5 8.7309 19.5 19.501 0 10.769-8.731 19.499-19.5 19.499s-19.5-8.73-19.5-19.499z" style="fill:url(#linearGradient3874)"/>
  <path id="path3872" style="opacity:.4;fill:#fff" d="m24 5c-10.499 0-19 8.501-19 19 0 0.169 0.0268 0.332 0.0312 0.5 0.2684-10.265 8.6388-18.5 18.969-18.5 10.329 0 18.7 8.235 18.969 18.5 0.004-0.168 0.031-0.331 0.031-0.5 0-10.499-8.502-19-19-19z"/>
  <path id="path3796" style="opacity:0.91;stroke:url(#linearGradient3946);fill:none" d="m23.999 4.5c10.77 0 19.501 8.731 19.501 19.5s-8.731 19.5-19.501 19.5c-10.769 0-19.499-8.731-19.499-19.5s8.73-19.5 19.499-19.5z"/>
  <path id="path3366" style="opacity:.1;fill:#fff" d="m24 43c-10.499 0-19-8.501-19-19 0-0.169 0.0268-0.332 0.0312-0.5 0.2684 10.265 8.6388 18.5 18.969 18.5 10.329 0 18.7-8.235 18.969-18.5 0.004 0.168 0.031 0.331 0.031 0.5 0 10.499-8.502 19-19 19z"/>
 </g>
 <g id="layer2">
  <path id="path3903" style="opacity:.3;color:#bebebe;fill:#fff" d="m23.347 11.028c-1.3754 0.06541-2.7631 0.31679-4.125 0.8125-7.2637 2.6438-11.019 10.674-8.375 17.938 2.6438 7.2637 10.674 11.019 17.938 8.375 7.2637-2.6438 11.019-10.674 8.375-17.938-2.1481-5.9018-7.8526-9.4709-13.812-9.1875zm0.09375 1.9688c5.1085-0.24293 10.003 2.8476 11.844 7.9062 2.2661 6.226-0.96146 13.109-7.1875 15.375-6.226 2.2661-13.109-0.96146-15.375-7.1875-2.2661-6.226 0.96146-13.109 7.1875-15.375 1.1674-0.42489 2.3524-0.66269 3.5312-0.71875zm1.4688 3-5.9062 11h5l-0.90625 7 5.9062-11h-5l0.90625-7z"/>
  <path id="path6640" d="m23.347 10.028c-1.3754 0.06541-2.7631 0.31679-4.125 0.8125-7.2637 2.6438-11.019 10.674-8.375 17.938 2.6438 7.2637 10.674 11.019 17.938 8.375 7.2637-2.6438 11.019-10.674 8.375-17.938-2.1481-5.9018-7.8526-9.4709-13.812-9.1875zm0.09375 1.9688c5.1085-0.24293 10.003 2.8476 11.844 7.9062 2.2661 6.226-0.96146 13.109-7.1875 15.375-6.226 2.2661-13.109-0.96146-15.375-7.1875-2.2661-6.226 0.96146-13.109 7.1875-15.375 1.1674-0.42489 2.3524-0.66269 3.5312-0.71875zm1.4688 3-5.9062 11h5l-0.90625 7 5.9062-11h-5l0.90625-7z" style="color:#bebebe;fill:#333"/>
 </g>
</svg>
