<?xml version="1.0" encoding="UTF-8" standalone="no"?>
<!-- Created with Inkscape (http://www.inkscape.org/) -->
<svg id="svg5356" xmlns:rdf="http://www.w3.org/1999/02/22-rdf-syntax-ns#" xmlns="http://www.w3.org/2000/svg" height="64px" width="64px" version="1.1" xmlns:cc="http://creativecommons.org/ns#" xmlns:xlink="http://www.w3.org/1999/xlink" xmlns:dc="http://purl.org/dc/elements/1.1/">
 <defs id="defs5358">
  <clipPath id="clipPath12225" clipPathUnits="userSpaceOnUse">
   <path id="path12227" style="block-progression:tb;text-indent:0;color:#000000;text-transform:none" d="m310.5 158c-1.5 0-1.5 1.4688-1.5 1.4688v12.53h-1.5c-1.5 0-1.5 1.2812-1.5 1.2812l1.3438 35.438c0.0382 0.40456 0.24888 0.69804 0.46875 0.90625 0.21986 0.2082 0.48146 0.37682 0.90625 0.375h54.562c0.42451 0.001 0.65511-0.16676 0.875-0.375 0.2199-0.20825 0.43064-0.50187 0.46875-0.90625l1.375-35.5s-0.009-1.2188-1.375-1.2188h-1.625v-7.5s0-1.5064-1.5-1.5l-21.031 0.0937c-5 0-4.47-5.09-9.47-5.09h-20.5z"/>
  </clipPath>
  <linearGradient id="linearGradient5294" y2="184" gradientUnits="userSpaceOnUse" x2="336" y1="168" x1="336">
   <stop id="stop11344" style="stop-color:#fff" offset="0"/>
   <stop id="stop11346" style="stop-color:#fff;stop-opacity:0" offset="1"/>
  </linearGradient>
  <clipPath id="clipPath12267" clipPathUnits="userSpaceOnUse">
   <path id="path12269" style="block-progression:tb;text-indent:0;color:#000000;text-transform:none" d="m307.5 168c-0.35457 0-0.64506 0.0626-0.875 0.1875-0.22994 0.12486-0.36622 0.31678-0.4375 0.4375-0.082 0.13891-0.12908 0.27141-0.15625 0.375-0.0272 0.10359-0.0274 0.12696-0.0312 0.21875v0.0312 0.0312 0.0312l1.3438 35.344v0.0312 0.0312 0.0312c0.0473 0.36803 0.25881 0.67618 0.46875 0.875 0.0967 0.0916 0.21058 0.16825 0.375 0.25 0.16442 0.0817 0.34434 0.12566 0.53125 0.125h54.562c0.1872 0.00044 0.3698-0.0362 0.53125-0.125s0.25774-0.16855 0.34375-0.25c0.21008-0.19895 0.42151-0.50693 0.46875-0.875 0.0108-0.10912 0.008-0.11455 0-0.0312v-0.0312l1.375-35.438s0.0152-0.32086-0.15625-0.625c-0.0644-0.11425-0.19054-0.30572-0.40625-0.4375s-0.48648-0.18751-0.8125-0.1875h-57.125z"/>
  </clipPath>
  <linearGradient id="linearGradient5300" y2="212" gradientUnits="userSpaceOnUse" x2="368" gradientTransform="translate(-304,-148)" y1="148" x1="368">
   <stop id="stop4970" style="stop-color:#f1e6f4" offset="0"/>
   <stop id="stop4972" style="stop-color:#c9bcce" offset="1"/>
  </linearGradient>
  <linearGradient id="linearGradient5303" y2="180" gradientUnits="userSpaceOnUse" x2="336" gradientTransform="translate(-304 -152)" y1="164" x1="336">
   <stop id="stop11361" style="stop-color:#d5cbd7" offset="0"/>
   <stop id="stop11363" style="stop-color:#d9bfdf" offset="1"/>
  </linearGradient>
 </defs>
 <metadata id="metadata5361">
  <rdf:RDF>
   <cc:Work rdf:about="">
    <dc:format>image/svg+xml</dc:format>
    <dc:type rdf:resource="http://purl.org/dc/dcmitype/StillImage"/>
    <dc:title/>
   </cc:Work>
  </rdf:RDF>
 </metadata>
 <g id="layer1">
  <path id="path13872" style="opacity:.2;block-progression:tb;text-indent:0;color:#000000;text-transform:none" d="m3.5 21.5c-0.60888 0-0.76171 0.18314-0.875 0.375-0.1053 0.17837-0.124 0.3512-0.125 0.375v0.0312l1.3438 35.375v0.0312c0.0305 0.23711 0.14773 0.40646 0.3125 0.5625 0.18507 0.1753 0.27764 0.251 0.5625 0.25h54.562c0.28554 0.00067 0.34678-0.0753 0.53125-0.25 0.16477-0.15604 0.2821-0.32566 0.3125-0.5625 0.001-0.0101-0.00099-0.0208 0-0.0312l1.375-35.438s0.0105-0.15889-0.0937-0.34375c-0.10424-0.18486-0.24809-0.37501-0.78125-0.375h-57.125z"/>
  <path id="path12179" style="block-progression:tb;text-indent:0;color:#000000;text-transform:none;fill:url(#linearGradient5303)" d="m6.5 6.4997c-0.58682 0-0.7489 0.2218-0.875 0.46875-0.126 0.24695-0.125 0.5-0.125 0.5v20.031h53v-15s0.003-0.27486-0.125-0.53125c-0.12792-0.25639-0.29237-0.47075-0.875-0.46875l-21.031 0.0937c-2.6698 0-4.0078-1.4453-5.125-2.7187-1.117-1.273-2.014-2.3746-4.344-2.3746h-20.5z"/>
  <path id="path12181" style="block-progression:tb;text-indent:0;color:#000000;text-transform:none;fill:url(#linearGradient5300)" d="m3.5 20.5c-0.60888 0-0.76171 0.18314-0.875 0.375-0.1053 0.17837-0.124 0.3512-0.125 0.375v0.0312l1.3438 35.375v0.0312c0.0305 0.23711 0.14773 0.40646 0.3125 0.5625 0.18507 0.1753 0.27764 0.251 0.5625 0.25h54.562c0.28554 0.00067 0.34678-0.0753 0.53125-0.25 0.16477-0.15604 0.2821-0.32566 0.3125-0.5625 0.001-0.0101-0.00099-0.0207 0-0.0312l1.375-35.438s0.0105-0.15889-0.0937-0.34375c-0.10424-0.18486-0.24809-0.37501-0.78125-0.375h-57.125z"/>
  <path id="path12257" style="opacity:.2;block-progression:tb;text-indent:0;color:#000000;stroke:url(#linearGradient5294);stroke-width:4;text-transform:none;fill:none" d="m307.5 168c-0.35457 0-0.64506 0.0626-0.875 0.1875-0.22994 0.12486-0.36622 0.31678-0.4375 0.4375-0.082 0.13891-0.12908 0.27141-0.15625 0.375-0.0272 0.10359-0.0274 0.12696-0.0312 0.21875v0.0312 0.0312 0.0312l1.3438 35.344v0.0312 0.0312 0.0312c0.0473 0.36803 0.25881 0.67618 0.46875 0.875 0.0967 0.0916 0.21058 0.16825 0.375 0.25 0.16442 0.0817 0.34434 0.12566 0.53125 0.125h54.562c0.1872 0.00044 0.3698-0.0362 0.53125-0.125s0.25774-0.16855 0.34375-0.25c0.21008-0.19895 0.42151-0.50693 0.46875-0.875 0.0108-0.10912 0.008-0.11455 0-0.0312v-0.0312l1.375-35.438s0.0152-0.32086-0.15625-0.625c-0.0644-0.11425-0.19054-0.30572-0.40625-0.4375s-0.48648-0.18751-0.8125-0.1875h-57.125z" clip-path="url(#clipPath12267)" transform="translate(-304,-148)"/>
  <path id="path12216" style="opacity:0.41;block-progression:tb;text-indent:0;color:#000000;stroke:#000;stroke-width:2;text-transform:none;fill:none" d="m310.5 158c-1.5 0-1.5 1.4688-1.5 1.4688v12.53h-1.5c-1.5 0-1.5 1.2812-1.5 1.2812l1.3438 35.438c0.0382 0.40456 0.24888 0.69804 0.46875 0.90625 0.21986 0.2082 0.48146 0.37682 0.90625 0.375h54.562c0.42451 0.001 0.65511-0.16676 0.875-0.375 0.2199-0.20825 0.43064-0.50187 0.46875-0.90625l1.375-35.5s-0.009-1.2188-1.375-1.2188h-1.625v-7.5s0-1.5064-1.5-1.5l-21.031 0.0937c-5 0-4.47-5.09-9.47-5.09h-20.5z" clip-path="url(#clipPath12225)" transform="translate(-304 -152)"/>
  <rect id="rect12245" style="opacity:0.41;color:#000000" height="1" width="52" y="20" x="6"/>
 </g>
</svg>
