<?xml version="1.0" encoding="UTF-8" standalone="no"?>
<svg width="24" xmlns="http://www.w3.org/2000/svg" version="1.0" height="24">
 <path id="path3170-4" opacity=".2" fill-rule="evenodd" d="m10 4c-4.416 0-8 3.584-8 8s3.584 8 8 8 8-3.584 8-8-3.584-8-8-8zm0 5c1.656 0 3 1.344 3 3s-1.344 3-3 3-3-1.344-3-3c1e-7 -1.656 1.344-3 3-3z"/>
 <path id="path3170" opacity=".35" fill-rule="evenodd" fill="#fff" d="m10 3c-4.416 0-8 3.584-8 8s3.584 8 8 8 8-3.584 8-8-3.584-8-8-8zm0 5c1.656 1e-7 3 1.344 3 3s-1.344 3-3 3-3-1.344-3-3c1e-7 -1.656 1.344-3 3-3z"/>
 <path id="path3263" fill="#fff" d="m10 3v5c1.656 1e-7 3 1.344 3 3s-1.344 3-3 3c-0.66784 0-1.284-0.22314-1.7812-0.59375l-2.9375 4.0625c1.3224 0.967 2.9572 1.532 4.7187 1.532 4.416 0 8-3.584 8-8s-3.584-8-8-8z"/>
</svg>
