<?xml version="1.0" encoding="UTF-8" standalone="no"?>
<svg xmlns="http://www.w3.org/2000/svg" height="24" width="24" version="1.0">
 <path id="path3170-4" opacity=".2" fill-rule="evenodd" d="m12 5c-4.416 0-8 3.584-8 8s3.584 8 8 8 8-3.584 8-8-3.584-8-8-8zm0 5c1.656 0 3 1.344 3 3s-1.344 3-3 3-3-1.344-3-3c1e-7 -1.656 1.344-3 3-3z"/>
 <path id="path3170" opacity=".35" d="m12 4c-4.416 0-8 3.584-8 8s3.584 8 8 8 8-3.584 8-8-3.584-8-8-8zm0 5c1.656 1e-7 3 1.344 3 3s-1.344 3-3 3-3-1.344-3-3c1e-7 -1.656 1.344-3 3-3z" fill-rule="evenodd" fill="#fff"/>
 <path id="path2573" fill="#fff" d="m12 4v5c1.656 1e-7 3 1.344 3 3 0 0.29576-0.03681 0.57435-0.11715 0.84375l4.742 1.594c0.247-0.771 0.375-1.586 0.375-2.438 0-4.416-3.584-8-8-8z"/>
</svg>
