<?xml version="1.0" encoding="UTF-8" standalone="no"?>
<svg xmlns="http://www.w3.org/2000/svg" height="24" width="24" version="1.0">
 <path id="path3170-4" opacity=".2" fill-rule="evenodd" d="m12 5c-4.416 0-8 3.584-8 8s3.584 8 8 8 8-3.584 8-8-3.584-8-8-8zm0 5c1.656 0 3 1.344 3 3s-1.344 3-3 3-3-1.344-3-3c1e-7 -1.656 1.344-3 3-3z"/>
 <path id="path3170" opacity=".35" d="m12 4c-4.416 0-8 3.584-8 8s3.584 8 8 8 8-3.584 8-8-3.584-8-8-8zm0 5c1.656 0 3 1.344 3 3s-1.344 3-3 3-3-1.344-3-3c1e-7 -1.656 1.344-3 3-3z" fill-rule="evenodd" fill="#fff"/>
 <path id="path3288" fill="#fff" d="m12 4v5c0.98751 0 1.8595 0.48173 2.4062 1.2188l4.032-2.969c-1.458-1.971-3.8-3.25-6.438-3.25z"/>
</svg>
