<?xml version="1.0" encoding="UTF-8" standalone="no"?>
<svg xmlns="http://www.w3.org/2000/svg" height="24" width="24" version="1.0">
 <path id="path3170-4" opacity=".2" fill-rule="evenodd" d="m12 5c-4.416 0-8 3.584-8 8s3.584 8 8 8 8-3.584 8-8-3.584-8-8-8zm0 5c1.656 0 3 1.344 3 3s-1.344 3-3 3-3-1.344-3-3 1.344-3 3-3z"/>
 <path id="path3170" opacity=".35" d="m12 4c-4.416 0-8 3.584-8 8s3.584 8 8 8 8-3.584 8-8-3.584-8-8-8zm0 5c1.656 1e-7 3 1.344 3 3s-1.344 3-3 3-3-1.344-3-3 1.344-3 3-3z" fill-rule="evenodd" fill="#fff"/>
 <path id="path3288" fill="#fff" d="m12 4v5c1.656 1e-7 3 1.344 3 3s-1.344 3-3 3-3-1.344-3-3c0-0.98751 0.48173-1.8595 1.2188-2.4062 0.23792-0.1757 0.48556-0.31084 0.75-0.40625l-1.5315-4.7814c-0.7664 0.259-1.5023 0.6503-2.1875 1.1563-1.971 1.4576-3.25 3.7998-3.25 6.4375 0 4.416 3.584 8 8 8s8-3.584 8-8-3.584-8-8-8z"/>
</svg>
