<?xml version="1.0" encoding="UTF-8" standalone="no"?>
<!-- Created with Inkscape (http://www.inkscape.org/) -->
<svg id="svg3759" xmlns:rdf="http://www.w3.org/1999/02/22-rdf-syntax-ns#" xmlns="http://www.w3.org/2000/svg" height="64" width="64" version="1.1" xmlns:cc="http://creativecommons.org/ns#" xmlns:xlink="http://www.w3.org/1999/xlink" xmlns:dc="http://purl.org/dc/elements/1.1/">
 <metadata id="metadata37">
  <rdf:RDF>
   <cc:Work rdf:about="">
    <dc:format>image/svg+xml</dc:format>
    <dc:type rdf:resource="http://purl.org/dc/dcmitype/StillImage"/>
    <dc:title/>
   </cc:Work>
  </rdf:RDF>
 </metadata>
 <defs id="defs3761">
  <linearGradient id="linearGradient3204" y2="40" gradientUnits="userSpaceOnUse" x2="144" gradientTransform="matrix(.25968 0 0 .26026 -21.136 -29.385)" y1="280" x1="144">
   <stop id="stop3990-5" style="stop-color:#ededed" offset="0"/>
   <stop id="stop3992-0" style="stop-color:#fafafa" offset="1"/>
  </linearGradient>
  <linearGradient id="linearGradient3029" y2="609.51" gradientUnits="userSpaceOnUse" x2="302.86" gradientTransform="matrix(.091538 0 0 .020588 -1.0846 49.451)" y1="366.65" x1="302.86">
   <stop id="stop5050" style="stop-opacity:0" offset="0"/>
   <stop id="stop5056" offset=".5"/>
   <stop id="stop5052" style="stop-opacity:0" offset="1"/>
  </linearGradient>
  <radialGradient id="radialGradient3026" xlink:href="#linearGradient5060" gradientUnits="userSpaceOnUse" cy="486.65" cx="605.71" gradientTransform="matrix(-.031326 0 0 .020588 28.779 49.451)" r="117.14"/>
  <linearGradient id="linearGradient5060">
   <stop id="stop5062" offset="0"/>
   <stop id="stop5064" style="stop-opacity:0" offset="1"/>
  </linearGradient>
  <radialGradient id="radialGradient3066" gradientUnits="userSpaceOnUse" xlink:href="#linearGradient5060" cx="605.71" cy="486.65" r="117.14" gradientTransform="matrix(.031326 0 0 .020588 35.221 49.451)"/>
 </defs>
 <g id="layer1" transform="translate(0,16)">
  <g id="g3031" transform="translate(0 -14)">
   <rect id="rect2879" style="opacity:.3;fill:url(#linearGradient3029)" height="5" width="44.2" y="57" x="9.9"/>
   <path id="path2881" style="opacity:.3;fill:url(#radialGradient3026)" d="m9.9 57v4.9997c-1.6132 0.01-3.9-1.1202-3.9-2.5002s1.8002-2.4995 3.9-2.4995z"/>
   <path id="path2883" style="opacity:.3;fill:url(#radialGradient3066)" d="m54.1 57v4.9997c1.613 0.01 3.9-1.12 3.9-2.5s-1.8002-2.4995-3.9-2.4995z"/>
  </g>
  <g id="g4204" transform="matrix(0 1 -1 0 48 1)">
   <g id="g4020" transform="translate(2,-1)">
    <rect id="rect3886" style="opacity:.35;color:#bebebe" transform="matrix(0,1,1,0,0,0)" ry="1" height="60" width="48" y="-17" x="-7"/>
    <rect id="rect3882" ry="0" style="color:#bebebe;fill:url(#linearGradient3204)" transform="matrix(0,1,1,0,0,0)" height="58" width="46" y="-16" x="-6"/>
    <path id="rect4018" style="opacity:.4;fill:#fff" d="m-40-16h46v1h-46z" transform="rotate(-90)"/>
    <path id="path3893" style="opacity:.4;fill:#fff" d="m-16-6v46h58v-46zm1 1h56v44h-56z"/>
   </g>
  </g>
 </g>
</svg>
