<?xml version="1.0" encoding="UTF-8" standalone="no"?>
<!-- Created with Inkscape (http://www.inkscape.org/) -->
<svg id="svg4060" xmlns:rdf="http://www.w3.org/1999/02/22-rdf-syntax-ns#" xmlns="http://www.w3.org/2000/svg" height="16" width="16" version="1.1" xmlns:cc="http://creativecommons.org/ns#" xmlns:xlink="http://www.w3.org/1999/xlink" xmlns:dc="http://purl.org/dc/elements/1.1/">
 <defs id="defs4062">
  <linearGradient id="linearGradient3867" gradientUnits="userSpaceOnUse" x2="8" y1="16" x1="8">
   <stop id="stop3936" style="stop-color:#dd2f03" offset="0"/>
   <stop id="stop3938" style="stop-color:#e96300" offset="1"/>
  </linearGradient>
 </defs>
 <metadata id="metadata4065">
  <rdf:RDF>
   <cc:Work rdf:about="">
    <dc:format>image/svg+xml</dc:format>
    <dc:type rdf:resource="http://purl.org/dc/dcmitype/StillImage"/>
    <dc:title/>
   </cc:Work>
  </rdf:RDF>
 </metadata>
 <g id="layer1">
  <rect id="rect5505-21-7" style="color:#000000;fill:url(#linearGradient3867)" rx="1.1538" ry="1.1538" height="15" width="15" y=".5" x=".50437"/>
  <rect id="rect3018" style="opacity:.61;color:#000000;stroke:#640000;fill:none" rx="1.1538" ry="1.1538" height="15" width="15" y=".5" x=".50437"/>
  <path id="rect3788" style="opacity:.1;color:#000000;fill:#fff" d="m1.6562 1c-0.3708 0-0.6562 0.2854-0.6562 0.6562v1c0-0.3708 0.2854-0.6562 0.6562-0.6562h12.688c0.371 0 0.656 0.2854 0.656 0.6562v-1c0-0.3708-0.285-0.6562-0.656-0.6562h-12.688z"/>
  <path id="path3805" style="opacity:.3;color:#000000" d="m1.7812 16c-0.3708 0-0.6562-0.285-0.6562-0.656v-1c0 0.371 0.2854 0.656 0.6562 0.656h12.688c0.37088 0 0.65625-0.28537 0.65625-0.65625v1c0 0.371-0.285 0.656-0.656 0.656h-12.688z"/>
 </g>
 <g id="layer2">
  <g id="g4024" style="opacity:.2;enable-background:new" transform="translate(-800.5 178.12)">
   <path id="path4026" style="color:#bebebe;enable-background:accumulate" d="m805.5-168.12c-1.1046 0-2 0.89543-2 2s0.89543 2 2 2 2-0.89543 2-2-0.89543-2-2-2z"/>
   <path id="path4028" d="m813.5-174.75c0 0.125-7 1.25-7 1.25v7.3749h1v-5.3411l5-0.9375v5.2786h1v-6.4999z" style="block-progression:tb;text-indent:0;color:#000000;enable-background:accumulate;text-transform:none"/>
   <path id="path4030" style="color:#bebebe;enable-background:accumulate" d="m811.5-169.12c-1.1046 0-2 0.89543-2 2s0.89543 2 2 2 2-0.89543 2-2-0.89543-2-2-2z"/>
  </g>
  <g id="g3943" style="enable-background:new;fill:#fff" transform="translate(-800.5 177.12)">
   <path id="path3945" style="color:#bebebe;enable-background:accumulate;fill:#fff" d="m805.5-168.12c-1.1046 0-2 0.89543-2 2s0.89543 2 2 2 2-0.89543 2-2-0.89543-2-2-2z"/>
   <path id="path3947" style="block-progression:tb;text-indent:0;color:#000000;enable-background:accumulate;text-transform:none;fill:#fff" d="m813.5-174.75c0 0.125-7 1.25-7 1.25v7.3749h1v-5.3411l5-0.9375v5.2786h1v-6.4999z"/>
   <path id="path3949" style="color:#bebebe;enable-background:accumulate;fill:#fff" d="m811.5-169.12c-1.1046 0-2 0.89543-2 2s0.89543 2 2 2 2-0.89543 2-2-0.89543-2-2-2z"/>
  </g>
 </g>
</svg>
