<?xml version="1.0" encoding="UTF-8" standalone="no"?>
<!-- Created with Inkscape (http://www.inkscape.org/) -->
<svg id="svg7539" xmlns:rdf="http://www.w3.org/1999/02/22-rdf-syntax-ns#" xmlns="http://www.w3.org/2000/svg" height="16" width="16" version="1.1" xmlns:cc="http://creativecommons.org/ns#" xmlns:xlink="http://www.w3.org/1999/xlink" xmlns:dc="http://purl.org/dc/elements/1.1/">
 <defs id="defs7541">
  <linearGradient id="linearGradient3060" y2="481.07" gradientUnits="userSpaceOnUse" y1="490.55" gradientTransform="matrix(.19481 0 0 .71429 -120.79 -334.99)" x2="670.25" x1="670.25">
   <stop id="stop4931-7-3-3-9-6-4-6-1-9-5-2-4-0-3-4-8-9-6-1-9" style="stop-color:#fff" offset="0"/>
   <stop id="stop4933-0-1-2-7-9-6-0-7-8-0-4-1-4-6-6-1-0-2-6-2" style="stop-color:#fff;stop-opacity:0" offset="1"/>
  </linearGradient>
  <linearGradient id="linearGradient3009-7-5" y2="233.83" gradientUnits="userSpaceOnUse" x2="292.86" gradientTransform="matrix(.041003 0 0 .44322 -20.929 -88.509)" y1="211.08" x1="292.86">
   <stop id="stop4697-9-9-7-0-1-3-6" offset="0"/>
   <stop id="stop4699-5-8-9-0-4-9-8" style="stop-opacity:0" offset="1"/>
  </linearGradient>
  <linearGradient id="linearGradient8022-0" y2="619.31" gradientUnits="userSpaceOnUse" x2="731.06" gradientTransform="matrix(.80479 0 0 .60166 -516.82 -396.08)" y1="654.82" x1="731.06">
   <stop id="stop27420-2-24" style="stop-color:#a348b1" offset="0"/>
   <stop id="stop27422-3-0" style="stop-color:#c596cc" offset="1"/>
  </linearGradient>
 </defs>
 <metadata id="metadata7544">
  <rdf:RDF>
   <cc:Work rdf:about="">
    <dc:format>image/svg+xml</dc:format>
    <dc:type rdf:resource="http://purl.org/dc/dcmitype/StillImage"/>
    <dc:title/>
   </cc:Work>
  </rdf:RDF>
 </metadata>
 <path id="path3010-2" style="opacity:0.99;color:#000000;fill:url(#linearGradient8022-0)" d="m13.532 9.2766a5.7305 5.7305 0 1 1 -11.461 0 5.7305 5.7305 0 1 1 11.461 0z" transform="matrix(1.1343 0 0 1.1343 -.84901 -2.5223)"/>
 <path id="path3010-3" style="opacity:.2;stroke-linejoin:round;stroke-width:.76407;color:#000000;stroke:url(#linearGradient3060);stroke-linecap:round;fill:none" d="m13.532 9.2766a5.7305 5.7305 0 1 1 -11.461 0 5.7305 5.7305 0 1 1 11.461 0z" transform="matrix(1.3088 0 0 1.3088 -2.2104 -4.1411)"/>
 <path id="path2922-6-6-0-9-4" style="color:#000000;fill:#773482" d="m11.987 3.6245 2.0134 1.8121-6.7651 8.9396-5.2349-4.5101 1.7315-2.2953 3.0604 2.6577 5.1946-6.604z"/>
 <path id="path2922-6-6-0-9" style="color:#000000;fill:#fff" d="m11.987 2.6242 2.0134 1.8121-6.7651 8.9396-5.2349-4.5101 1.7315-2.2953 3.0604 2.6577 5.1946-6.604z"/>
 <path id="path3010" style="opacity:.5;stroke-linejoin:round;stroke-width:.88161;color:#000000;stroke:#571561;stroke-linecap:round;fill:none" d="m13.532 9.2766a5.7305 5.7305 0 1 1 -11.461 0 5.7305 5.7305 0 1 1 11.461 0z" transform="matrix(1.1343 0 0 1.1343 -.84901 -2.5223)"/>
 <path id="path3010-28" style="opacity:.05;stroke-linejoin:round;stroke-width:1.0419;color:#000000;stroke:url(#linearGradient3009-7-5);stroke-linecap:round;fill:none" d="m13.532 9.2766a5.7305 5.7305 0 1 1 -11.461 0 5.7305 5.7305 0 1 1 11.461 0z" transform="matrix(.95978 0 0 .95978 .51238 -.90347)"/>
</svg>
