<?xml version="1.0" encoding="UTF-8" standalone="no"?>
<!-- Created with Inkscape (http://www.inkscape.org/) -->
<svg id="svg4060" xmlns:rdf="http://www.w3.org/1999/02/22-rdf-syntax-ns#" xmlns="http://www.w3.org/2000/svg" height="16" width="16" version="1.1" xmlns:cc="http://creativecommons.org/ns#" xmlns:xlink="http://www.w3.org/1999/xlink" xmlns:dc="http://purl.org/dc/elements/1.1/">
 <defs id="defs4062">
  <linearGradient id="linearGradient3867" gradientUnits="userSpaceOnUse" x2="8" y1="16" x1="8">
   <stop id="stop5620" style="stop-color:#3e3e3e" offset="0"/>
   <stop id="stop5622" style="stop-color:#595959" offset="1"/>
  </linearGradient>
 </defs>
 <metadata id="metadata4065">
  <rdf:RDF>
   <cc:Work rdf:about="">
    <dc:format>image/svg+xml</dc:format>
    <dc:type rdf:resource="http://purl.org/dc/dcmitype/StillImage"/>
    <dc:title/>
   </cc:Work>
  </rdf:RDF>
 </metadata>
 <g id="layer1">
  <rect id="rect5505-21-7" style="color:#000000;fill:url(#linearGradient3867)" rx="1.1538" ry="1.1538" height="15" width="15" y=".5" x=".50437"/>
  <rect id="rect3018" style="opacity:.61;color:#000000;stroke:#000;fill:none" rx="1.1538" ry="1.1538" height="15" width="15" y=".5" x=".50437"/>
  <path id="rect3788" style="opacity:.1;color:#000000;fill:#fff" d="m1.6562 1c-0.3708 0-0.6562 0.2854-0.6562 0.6562v1c0-0.3708 0.2854-0.6562 0.6562-0.6562h12.688c0.371 0 0.656 0.2854 0.656 0.6562v-1c0-0.3708-0.285-0.6562-0.656-0.6562h-12.688z"/>
  <path id="path3805" style="opacity:.3;color:#000000" d="m1.7812 16c-0.3708 0-0.6562-0.285-0.6562-0.656v-1c0 0.371 0.2854 0.656 0.6562 0.656h12.688c0.37088 0 0.65625-0.28537 0.65625-0.65625v1c0 0.371-0.285 0.656-0.656 0.656h-12.688z"/>
 </g>
 <g id="layer2">
  <path id="rect4101" style="opacity:.2;color:#bebebe" d="m6 7h3v1h-3z"/>
  <path id="path4105" d="m3.4238 3.6739h0.5762v0.3261c0.1593 0.0318 0.3064 0.0937 0.4413 0.1855 0.1368 0.09 0.2605 0.2015 0.3711 0.3345l-0.3402 0.4301s-0.1019-0.1288-0.14898-0.18832c-0.0374-0.0431-0.088-0.0853-0.1517-0.1265-0.0619-0.0412-0.1284-0.0703-0.1996-0.0872v0.8461c0.15179 0.04875 0.28578 0.10307 0.40196 0.16304s0.21269 0.1293 0.28952 0.20801c0.078705 0.078705 0.13774 0.16772 0.17709 0.26704 0.03935 0.097445 0.05903 0.20894 0.05903 0.3345 0 0.11806-0.0206 0.23144-0.06184 0.34012-0.0413 0.1069-0.1012 0.2043-0.1799 0.2924-0.0769 0.0881-0.1706 0.164-0.2811 0.2277-0.1106 0.0637-0.2362 0.1096-0.3767 0.1377v0.3092h-0.57624v-0.29234c-0.1762-0.03-0.3458-0.089-0.5088-0.1771-0.1631-0.0881-0.3083-0.2024-0.4357-0.3429l0.35137-0.49473 0.16304 0.20239c0.06372 0.069335 0.13118 0.12836 0.20239 0.17709 0.073085 0.0487 0.15835 0.08339 0.2558 0.104v-1.0288c-0.1368-0.0507-0.2596-0.1069-0.3683-0.1688-0.1068-0.0618-0.1977-0.1302-0.2726-0.2052-0.0731-0.0768-0.1293-0.1611-0.1687-0.2529-0.0393-0.0937-0.059-0.1959-0.059-0.3064 0-0.105 0.0196-0.2052 0.059-0.3008s0.0956-0.1818 0.1687-0.2586 0.1611-0.1424 0.2642-0.1968c0.1049-0.0562 0.2211-0.0974 0.3486-0.1237v-0.3345m0.5481 3.1427c0.1012-0.0356 0.1827-0.0862 0.2445-0.1518 0.0638-0.0656 0.0956-0.1527 0.0956-0.2614 0-0.09-0.0281-0.1687-0.0843-0.2362-0.0544-0.0674-0.1396-0.1218-0.2558-0.163v0.81236m-0.52-2.2741c-0.0787 0.0206-0.1425 0.0572-0.1912 0.1097-0.0487 0.0524-0.0731 0.1199-0.0731 0.2023 0 0.05997 0.01965 0.1218 0.059025 0.18552 0.03935 0.063715 0.10776 0.11244 0.2052 0.14617v-0.6437" style="opacity:.2"/>
  <path id="rect4049" style="color:#bebebe;fill:#fff" d="m6 6h3v1h-3z"/>
  <path id="path4053" style="fill:#fff" d="m3.4238 2.6739h0.5762v0.3261c0.1593 0.0318 0.3064 0.0937 0.4413 0.1855 0.1368 0.09 0.2605 0.2015 0.3711 0.3345l-0.3402 0.4301s-0.1019-0.1288-0.14898-0.18832c-0.0374-0.0431-0.088-0.0853-0.1517-0.1265-0.0619-0.0412-0.1284-0.0703-0.1996-0.0872v0.8461c0.15179 0.04875 0.28578 0.10307 0.40196 0.16304s0.21269 0.1293 0.28952 0.20801c0.078705 0.078705 0.13774 0.16772 0.17709 0.26704 0.03935 0.097445 0.05903 0.20894 0.05903 0.3345 0 0.11806-0.0206 0.23144-0.06184 0.34012-0.0413 0.1069-0.1012 0.2043-0.1799 0.2924-0.0769 0.0881-0.1706 0.164-0.2811 0.2277-0.1106 0.0637-0.2362 0.1096-0.3767 0.1377v0.3092h-0.57624v-0.29234c-0.1762-0.03-0.3458-0.089-0.5088-0.1771-0.1631-0.0881-0.3083-0.2024-0.4357-0.3429l0.35137-0.49473 0.16304 0.20239c0.06372 0.069335 0.13118 0.12836 0.20239 0.17709 0.073085 0.0487 0.15835 0.08339 0.2558 0.104v-1.0288c-0.1368-0.0507-0.2596-0.1069-0.3683-0.1688-0.1068-0.0618-0.1977-0.1302-0.2726-0.2052-0.0731-0.0768-0.1293-0.1611-0.1687-0.2529-0.0393-0.0937-0.059-0.1959-0.059-0.3064 0-0.105 0.0196-0.2052 0.059-0.3008s0.0956-0.1818 0.1687-0.2586 0.1611-0.1424 0.2642-0.1968c0.1049-0.0562 0.2211-0.0974 0.3486-0.1237v-0.3345m0.5481 3.1427c0.1012-0.0356 0.1827-0.0862 0.2445-0.1518 0.0638-0.0656 0.0956-0.1527 0.0956-0.2614 0-0.09-0.0281-0.1687-0.0843-0.2362-0.0544-0.0674-0.1396-0.1218-0.2558-0.163v0.81236m-0.52-2.2741c-0.0787 0.0206-0.1425 0.0572-0.1912 0.1097-0.0487 0.0524-0.0731 0.1199-0.0731 0.2023 0 0.05997 0.01965 0.1218 0.059025 0.18552 0.03935 0.063715 0.10776 0.11244 0.2052 0.14617v-0.6437"/>
 </g>
</svg>
