<svg xmlns="http://www.w3.org/2000/svg" viewBox="0 0 256 256"><defs><clipPath><rect y="56" x="-202" width="84" rx="10" height="88" style="fill:none;stroke:#000;display:block;color:#000"/></clipPath><clipPath><rect y="56" x="-202" width="84" rx="10" height="88" style="fill:none;stroke:#000;display:block;color:#000"/></clipPath><clipPath><rect y="56" x="-202" width="84" rx="10" height="88" style="fill:none;stroke:#000;display:block;color:#000"/></clipPath><clipPath><path d="m 148 97 h 77.63 v 24 h -77.62"/></clipPath><clipPath><path d="m 27.707 56.824 h 82.29 v 139.69 h -82.29"/></clipPath><clipPath><path d="m 74 56.824 h 129 v 139.69 h -129"/></clipPath><clipPath><path d="m 171 132 h 54.625 v 24 h -54.625"/></clipPath></defs><g transform="matrix(0.98718 0 0 0.99573 2.142 -791.83)"><path d="M 60.17,822.74 C 191.1,730.69 323.77,900.688 217.08,1009.13 116.57,1111.3 -39.6,1016.579 9.22,889.44 19.405,862.914 36.134,839.638 60.168,822.74 z" style="fill:#fff;color:#000"/><g transform="matrix(-2.57081 0.68788 0.66935 2.69579 140.89 846.9)" style="fill:#ff4500"><path d="M 8,1 C 6.971,1 6,1.971 6,3 v 42 c 0,0.971 1.029,2 2,2 h 32 c 0.971,0 2,-1.029 2,-2 V 14 L 29,1"/><path d="M 29,12 29.062,12.062 29.219,12 29,12 z m 2,2 11,11 0,-11 -11,0 z" style="fill-opacity:0.196"/><g style="fill:#fff"><path d="M 29,1 42,14 H 31 c -0.971,0 -2,-1.029 -2,-2 V 1" style="fill-opacity:0.392"/><g style="stroke:#fff"><rect x="15.5" y="16" width="8" height="7" ry="0.601" rx="0.579"/><g transform="translate(-0.5 -1)" style="stroke-linecap:round;stroke-linejoin:round;stroke-dashoffset:0.774"><path d="m 26.5 17.5 h 5"/><path d="m 26.5 20.5 h 5"/><path d="m 26.5 23.5 h 5"/><path d="m 16 26.5 h 16"/><path d="m 16 29.5 h 16"/><path d="m 16 32.5 h 16"/></g></g></g><path d="m 6,35 v 10 c 0,0.971 1.029,2 2,2 h 32 c 0.971,0 2,-1.029 2,-2 V 35 z" style="fill-opacity:0.196"/></g></g></svg>