<svg xmlns="http://www.w3.org/2000/svg" viewBox="0 0 256 256"><defs><clipPath><path d="m 148 97 h 77.63 v 24 h -77.62"/></clipPath><clipPath><path d="m 171 132 h 54.625 v 24 h -54.625"/></clipPath><clipPath><path d="m 74 56.824 h 129 v 139.69 h -129"/></clipPath><clipPath><path d="m 27.707 56.824 h 82.29 v 139.69 h -82.29"/></clipPath></defs><g transform="matrix(1 0 0 0.99153 0 -787.44)"><path d="M 60.17,822.74 C 191.1,730.69 323.77,900.688 217.08,1009.13 116.57,1111.3 -39.6,1016.579 9.22,889.44 19.405,862.914 36.134,839.638 60.168,822.74 z" style="fill:#fff;color:#000"/><path d="m 75.33 1008.79 c -3.472 -2.54 -6.486 -9.31 -14.07 -31.603 l -9.65 -28.371 h -12.253 h -12.253 v -7.317 v -7.317 l 18.246 0.494 c 22.05 0.597 22.618 0.976 28.681 19.21 2.552 7.675 4.695 11.797 5.499 10.577 0.724 -1.099 4.02 -13.87 7.326 -28.38 6.81 -29.898 8.669 -33.11 17.929 -30.986 5.356 1.229 6.506 2.631 13.468 16.427 4.187 8.296 8.271 16.376 9.07 17.956 1.193 2.343 2.201 1.15 5.468 -6.464 4.388 -10.23 8.88 -13.312 16.913 -11.605 4.183 0.889 5.872 3.501 14.751 22.812 l 10.03 21.809 l 12.207 0.012 l 12.207 0.012 v 7.183 v 7.183 h -17.804 c -21.18 0 -20.987 0.112 -28.445 -16.844 -2.859 -6.499 -5.729 -11.347 -6.378 -10.774 -0.649 0.573 -2.569 4.442 -4.267 8.598 -3.082 7.545 -6.716 10.401 -13.235 10.401 -5.127 0 -8.262 -3.661 -15.06 -17.592 -3.373 -6.91 -6.54 -12.566 -7.04 -12.568 -0.497 -0.002 -4.322 14.702 -8.5 32.676 -6.389 27.488 -8.216 33.08 -11.503 35.19 -5.03 3.235 -6.02 3.172 -11.341 -0.718 z" style="fill:#ff4500;stroke:#fff;fill-rule:evenodd;stroke-width:8.823"/></g></svg>