<svg xmlns="http://www.w3.org/2000/svg" viewBox="0 0 256 256"><defs><clipPath><path d="m 171 132 h 54.625 v 24 h -54.625"/></clipPath><clipPath><path d="m 74 56.824 h 129 v 139.69 h -129"/></clipPath><clipPath><path d="m 148 97 h 77.63 v 24 h -77.62"/></clipPath><clipPath><path d="m 27.707 56.824 h 82.29 v 139.69 h -82.29"/></clipPath><clipPath><path d="m 148 97 h 77.63 v 24 h -77.62"/></clipPath><clipPath><path d="m 74 56.824 h 129 v 139.69 h -129"/></clipPath><clipPath><path d="m 171 132 h 54.625 v 24 h -54.625"/></clipPath><clipPath><path d="m 27.707 56.824 h 82.29 v 139.69 h -82.29"/></clipPath></defs><g transform="translate(0 -796.36)"><path d="m 60.17 822.74 c 130.93 -92.05 263.6 77.948 156.91 186.39 -100.51 102.17 -256.68 7.449 -207.86 -119.69 10.185 -26.526 26.914 -49.802 50.948 -66.7 z" style="fill:#fff;color:#000"/><g transform="translate(54.637 78.78)" style="fill:#ff4500;stroke:#ff4500"><g transform="matrix(7.12378 -1.40077 1.40351 7.51562 -4242.87 1594.85)"><path d="m 593 7 v 2 c 0.552 0 1 0.448 1 1 0 0.552 -0.448 1 -1 1 v 1 c 0.552 0 1 0.448 1 1 0 0.552 -0.448 1 -1 1 v 1 c 0.552 0 1 0.448 1 1 0 0.552 -0.448 1 -1 1 v 1 c 0.552 0 1 0.448 1 1 0 0.552 -0.448 1 -1 1 v 2 h 2 c 0 -0.552 0.448 -1 1 -1 0.552 0 1 0.448 1 1 h 1 c 0 -0.552 0.448 -1 1 -1 0.552 0 1 0.448 1 1 h 1 c 0 -0.552 0.448 -1 1 -1 0.552 0 1 0.448 1 1 h 1 c 0 -0.552 0.448 -1 1 -1 0.552 0 1 0.448 1 1 h 2 v -2 c -0.552 0 -1 -0.448 -1 -1 0 -0.552 0.448 -1 1 -1 v -1 c -0.552 0 -1 -0.448 -1 -1 0 -0.552 0.448 -1 1 -1 v -1 c -0.552 0 -1 -0.448 -1 -1 0 -0.552 0.448 -1 1 -1 v -1 c -0.552 0 -1 -0.448 -1 -1 0 -0.552 0.448 -1 1 -1 v -2 h -2 c 0 0.552 -0.448 1 -1 1 -0.552 0 -1 -0.448 -1 -1 h -1 c 0 0.552 -0.448 1 -1 1 -0.552 0 -1 -0.448 -1 -1 h -1 c 0 0.552 -0.448 1 -1 1 -0.552 0 -1 -0.448 -1 -1 h -1 c 0 0.552 -0.448 1 -1 1 -0.552 0 -1 -0.448 -1 -1 z m 2 2 h 11 l 0.007 10.669 l -2.426 0.087 l 0.014 -1.839 c 0.008 -1.067 -0.483 -1.703 -1.423 -1.973 -0.494 0.48 -0.961 0.431 -1.672 0.431 -0.711 0 -0.991 0.069 -1.485 -0.411 -0.777 0.279 -1.595 0.945 -1.596 2.187 l -0.127 1.849 h -2.293 z"/><path d="m 602.54 13.408 c -0.013 1.215 -0.957 2.209 -2.111 2.221 -1.153 0.012 -2.077 -0.963 -2.065 -2.178 0.013 -1.215 0.957 -2.209 2.111 -2.221 1.153 -0.012 2.077 0.963 2.065 2.178 z" style="color:#bebebe;stroke-width:0.857"/></g><g style="fill-rule:evenodd;stroke-width:4.662"><g transform="matrix(0.95257 -0.30433 0.18296 0.98312 0 0)"><rect width="7.929" height="94.1" x="-156.79" y="794.08" rx="0.362" ry="0.5"/><rect ry="0.5" rx="0.362" y="804.56" x="-59.976" height="94.1" width="7.929"/></g><rect ry="0.5" rx="0.362" transform="matrix(0.30433 0.95257 -0.98312 0.18296 0 0)" y="173.81" x="913.4" height="94.1" width="7.929"/><rect width="7.929" height="94.1" x="809.21" y="161.89" transform="matrix(0.30872 0.95115 -0.98226 0.1875 0 0)" rx="0.362" ry="0.5"/></g></g></g></svg>