<svg xmlns="http://www.w3.org/2000/svg" viewBox="0 0 256 256"><defs><clipPath><path d="m 74 56.824 h 129 v 139.69 h -129"/></clipPath><clipPath><path d="m 27.707 56.824 h 82.29 v 139.69 h -82.29"/></clipPath><clipPath><path d="m 148 97 h 77.63 v 24 h -77.62"/></clipPath><clipPath><path d="m 171 132 h 54.625 v 24 h -54.625"/></clipPath></defs><g transform="translate(0 -796.36)"><g style="color:#000"><g transform="translate(0 12.143)" style="fill:#fff"><path d="m 227.81 832.08 c 87.44 110.84 -44.799 278.58 -174.02 176.43 -122.38 -96.74 -16.907 -267.55 126.43 -214.19 c 19.694 7.333 34.821 21.566 47.595 37.758 z" style="fill:#fff"/><path d="m 75.11 855.5 h 54.86 l 7.272 10.965 h 50.52 c 6.776 0 12.231 5.63 12.231 12.624 v 55.38 c 0 6.994 -5.455 12.624 -12.231 12.624 h -112.65 c -6.776 0 -12.231 -5.63 -12.231 -12.624 v -66.35 c 0 -6.994 5.455 -12.624 12.231 -12.624 z" style="fill:#ffa07a"/><rect width="137.11" height="84.74" x="65.02" y="882.61" rx="12.231" style="fill:#fff"/></g><rect rx="12.231" y="696.18" x="230.73" height="84.74" width="137.11" transform="matrix(1.0104 0 0 1.11801 -169.69 111.56)" style="fill:#ff4500;stroke-width:1"/></g><g transform="matrix(7.0434 0 0 6.49819 -2401.71 3518.3)" style="fill:#d8bfd8;color:#bebebe"><path d="m 360 -402 c -2.02 0 -4 2.026 -4 4 v 2 h 10 v -2 c 0 -1.995 -1.964 -4 -4 -4 z m 0 2 h 2 c 1.157 0 2 1.17 2 2 v 2 h -6 v -2 c 0 -0.667 0.801 -2 2 -2 z"/><path d="m 355,-395 v 2.25 h 2.25 v 0.5 H 355 v 1.25 0.25 h 2.25 v 0.5 H 355 v 1.5 h 2.25 v 0.5 H 355 v 0.25 0.5 c 0,0.831 0.669,1.5 1.5,1.5 h 9 c 0.831,0 1.5,-0.669 1.5,-1.5 v -0.5 -0.25 h -2.25 v -0.5 H 367 v -1.5 h -2.25 v -0.5 H 367 v -0.25 -1.25 h -2.25 v -0.5 H 367 V -395 z"/></g></g></svg>