<svg xmlns="http://www.w3.org/2000/svg" viewBox="0 0 256 256"><g transform="translate(0 -796.36218)"><path d="M 118.98105,1050.306 C 98.176582,1046.5042 75.428857,1035.9054 55.796326,1020.8663 42.543153,1010.714 27.297384,993.89013 18.741944,979.97636 14.491056,973.06306 9.2875396,961.88726 6.6566702,954.02029 2.7314515,942.28293 2.0124385,936.62115 2.0223133,917.52805 2.0313392,900.43247 2.0487817,900.23571 4.3262155,891.75901 11.21366,866.12397 22.977179,846.95822 42.943703,828.8413 c 16.031289,-14.54622 37.03855,-24.91118 59.627487,-29.42012 10.93547,-2.1828 31.81932,-2.72033 43.82014,-1.12787 16.66068,2.21078 34.14325,7.69455 45.93073,14.40709 24.96647,14.21751 48.64371,44.05946 57.82908,72.88571 6.97015,21.87425 7.74464,46.9417 2.14009,69.26736 -12.20291,48.61033 -50.4811,86.41243 -96.33276,95.13453 -8.7768,1.6696 -28.64603,1.8405 -36.97742,0.318 z" style="fill:#fff"/><g transform="translate(0 796.36218)" style="fill:#ff4500;fill-rule:evenodd"><path d="m 61.914876 84.887214 v -9.084006 h 9.336339 h 9.336339 v -2.271002 c 0 -1.345778 0.102803 -2.271001 0.252334 -2.271001 0.14419 0 0.252333 -0.757001 0.252333 -1.766335 0 -1.009334 0.108143 -1.766334 0.252334 -1.766334 0.138783 0 0.252333 -0.397425 0.252333 -0.883167 0 -0.485742 0.11355 -0.883168 0.252334 -0.883168 0.138783 0 0.252333 -0.158176 0.252333 -0.351503 0 -0.193327 0.170325 -0.416863 0.378501 -0.496747 0.208175 -0.07989 0.3785 -0.319134 0.3785 -0.531664 0 -0.212531 0.11355 -0.38642 0.252333 -0.38642 0.138784 0 0.252334 -0.170325 0.252334 -0.3785 0 -0.208175 0.11355 -0.378501 0.252333 -0.378501 0.138784 0 0.252334 -0.2271 0.252334 -0.504667 0 -0.277566 0.124768 -0.504667 0.277261 -0.504667 0.152494 0 0.595477 -0.34065 0.984406 -0.757 0.38893 -0.41635 0.872782 -0.757001 1.075228 -0.757001 0.202446 0 0.581263 -0.283875 0.84182 -0.630833 0.260555 -0.346959 0.667183 -0.630834 0.903619 -0.630834 0.236437 0 0.500062 -0.11355 0.585835 -0.252334 0.08577 -0.138783 0.376351 -0.252333 0.645727 -0.252333 0.269376 0 0.489774 -0.170325 0.489774 -0.3785 0 -0.26435 0.266353 -0.3785 0.883167 -0.3785 0.485742 0 0.883168 -0.113551 0.883168 -0.252334 0 -0.167105 12.826955 -0.252333 37.976195 -0.252333 25.14924 0 37.97619 0.08523 37.97619 0.252333 0 0.142623 0.72095 0.252334 1.65819 0.252334 1.1375 0 1.77704 0.118852 2.03669 0.3785 0.20818 0.208175 0.65426 0.3785 0.99131 0.3785 0.33705 0 0.61281 0.11355 0.61281 0.252333 0 0.138784 0.2271 0.252334 0.50467 0.252334 0.27756 0 0.50466 0.11355 0.50466 0.252333 0 0.138784 0.28388 0.252334 0.63084 0.252334 0.37068 0 0.63083 0.144813 0.63083 0.351145 0 0.19313 0.27062 0.419067 0.60138 0.502083 0.67937 0.170508 2.17429 1.475139 2.17429 1.897512 0 0.152494 0.17033 0.277262 0.3785 0.277262 0.21028 0 0.3785 0.224296 0.3785 0.504667 0 0.277567 0.11355 0.504667 0.25233 0.504667 0.13879 0 0.25234 0.170325 0.25234 0.3785 0 0.208175 0.11355 0.3785 0.25233 0.3785 0.13878 0 0.25233 0.227101 0.25233 0.504667 0 0.280371 0.16823 0.504667 0.37851 0.504667 0.23551 0 0.3785 0.238315 0.3785 0.630834 0 0.346959 0.11355 0.630834 0.25233 0.630834 0.13878 0 0.25233 0.34065 0.25233 0.757 0 0.416351 0.11355 0.757001 0.25234 0.757001 0.14419 0 0.25233 0.757 0.25233 1.766334 0 1.009334 0.10814 1.766335 0.25233 1.766335 0.14419 0 0.25234 0.757 0.25234 1.766334 v 1.766335 h 9.33634 h 9.33634 v 9.084006 v 9.084006 h -69.26555 h -69.265544 v -9.084006 z m 101.690394 -13.752176 v -4.66817 h -32.42485 h -32.424854 v 4.66817 v 4.66817 h 32.424854 h 32.42485 v -4.66817 z"/><path d="m 91.437895 204.24096 c 0 -0.14601 -0.805065 -0.25234 -1.910526 -0.25234 -1.361798 0 -2.019233 -0.10871 -2.289025 -0.3785 -0.208176 -0.20817 -0.654264 -0.3785 -0.99131 -0.3785 -0.337045 0 -0.61281 -0.11355 -0.61281 -0.25233 0 -0.13878 -0.348761 -0.25233 -0.775024 -0.25233 -0.773147 0 -1.495977 -0.47899 -1.495977 -0.99131 0 -0.1487 -0.230885 -0.27036 -0.513078 -0.27036 -0.526417 0 -2.262591 -1.54255 -2.262591 -2.01026 0 -0.14341 -0.124768 -0.26074 -0.277261 -0.26074 -0.152494 0 -0.595477 -0.34065 -0.984406 -0.757 -0.38893 -0.41635 -0.831912 -0.757 -0.984406 -0.757 -0.152494 0 -0.277262 -0.25881 -0.277262 -0.57513 0 -0.31632 -0.2271 -0.73881 -0.504667 -0.93887 -0.277567 -0.20006 -0.504667 -0.50901 -0.504667 -0.68654 0 -0.17754 -0.11355 -0.3228 -0.252333 -0.3228 -0.138784 0 -0.252334 -0.2271 -0.252334 -0.50467 0 -0.28037 -0.168222 -0.50466 -0.3785 -0.50466 -0.235511 0 -0.3785 -0.23832 -0.3785 -0.63084 0 -0.34695 -0.11355 -0.63083 -0.252334 -0.63083 -0.138783 0 -0.252333 -0.2271 -0.252333 -0.50467 0 -0.27756 -0.11355 -0.50466 -0.252334 -0.50466 -0.138783 0 -0.252333 -0.17389 -0.252333 -0.38642 0 -0.21254 -0.170325 -0.45178 -0.3785 -0.53167 -0.208176 -0.0799 -0.378501 -0.41697 -0.378501 -0.74908 0 -0.33211 -0.11355 -0.60384 -0.252333 -0.60384 -0.138784 0 -0.252334 -0.28387 -0.252334 -0.63083 0 -0.34696 -0.11355 -0.63083 -0.252333 -0.63083 -0.138784 0 -0.252334 -0.33395 -0.252334 -0.74211 0 -0.40816 -0.11355 -0.81229 -0.252333 -0.89806 -0.138784 -0.0858 -0.252334 -0.37635 -0.252334 -0.64573 0 -0.26937 -0.170325 -0.48977 -0.3785 -0.48977 -0.235511 0 -0.3785 -0.23832 -0.3785 -0.63083 0 -0.34696 -0.11355 -0.63084 -0.252334 -0.63084 -0.138783 0 -0.252333 -0.39742 -0.252333 -0.88317 0 -0.48574 -0.11355 -0.88316 -0.252334 -0.88316 -0.138783 0 -0.252333 -0.39743 -0.252333 -0.88317 0 -0.61681 -0.114151 -0.88317 -0.3785 -0.88317 -0.252334 0 -0.378501 -0.25233 -0.378501 -0.757 0 -0.41635 -0.11355 -0.757 -0.252333 -0.757 -0.138783 0 -0.252334 -0.39742 -0.252334 -0.88317 0 -0.48574 -0.11355 -0.88316 -0.252333 -0.88316 -0.138783 0 -0.252334 -0.39743 -0.252334 -0.88317 0 -0.48574 -0.11355 -0.88317 -0.252333 -0.88317 -0.138783 0 -0.252334 -0.39742 -0.252334 -0.88316 0 -0.61682 -0.11415 -0.88317 -0.3785 -0.88317 -0.28037 0 -0.3785 -0.29439 -0.3785 -1.1355 0 -0.62453 -0.11355 -1.1355 -0.252334 -1.1355 -0.138783 0 -0.252333 -0.39743 -0.252333 -0.88317 0 -0.48574 -0.11355 -0.88317 -0.252334 -0.88317 -0.138783 0 -0.252333 -0.51097 -0.252333 -1.1355 0 -0.84111 -0.09813 -1.1355 -0.3785 -1.1355 -0.280371 0 -0.378501 -0.29439 -0.378501 -1.1355 0 -0.62453 -0.11355 -1.1355 -0.252333 -1.1355 -0.138783 0 -0.252334 -0.51098 -0.252334 -1.1355 0 -0.62453 -0.10259 -1.1355 -0.22798 -1.1355 -0.125388 0 -0.29072 -0.53937 -0.367403 -1.19859 -0.399002 -3.4301 -0.594986 -4.45515 -0.869286 -4.54658 -0.184494 -0.0615 -0.301665 -0.63145 -0.301665 -1.46736 0 -0.75175 -0.11355 -1.36681 -0.252333 -1.36681 -0.151401 0 -0.252334 -1.00934 -0.252334 -2.52334 0 -1.38783 -0.102903 -2.52333 -0.228674 -2.52333 -0.12577 0 -0.267708 -1.66549 -0.315416 -3.70108 -0.06264 -2.67276 -0.17438 -3.73024 -0.402161 -3.80603 -0.491905 -0.16368 -0.434157 -4.00067 0.06308 -4.19148 0.312416 -0.11989 0.3785 -0.78544 0.3785 -3.812 0 -2.27628 0.09569 -3.66676 0.252334 -3.66676 0.14419 0 0.252333 -0.757 0.252333 -1.76633 0 -1.00934 0.108143 -1.76634 0.252334 -1.76634 0.142341 0 0.252333 -0.71494 0.252333 -1.64016 0 -1.28971 0.08088 -1.64017 0.3785 -1.64017 0.280371 0 0.3785 -0.29439 0.3785 -1.1355 0 -0.62453 0.113551 -1.1355 0.252334 -1.1355 0.138783 0 0.252333 -0.51098 0.252333 -1.1355 0 -0.62453 0.113551 -1.1355 0.252334 -1.1355 0.138783 0 0.252333 -0.39743 0.252333 -0.88317 0 -0.48574 0.113551 -0.88317 0.252334 -0.88317 0.138783 0 0.252333 -0.39742 0.252333 -0.88317 0 -0.61681 0.114151 -0.88316 0.378501 -0.88316 0.264349 0 0.3785 -0.26636 0.3785 -0.88317 0 -0.48574 0.11355 -0.88317 0.252333 -0.88317 0.138784 0 0.252334 -0.28387 0.252334 -0.63083 0 -0.34696 0.11355 -0.63084 0.252333 -0.63084 0.138784 0 0.252334 -0.34065 0.252334 -0.757 0 -0.47712 0.129349 -0.757 0.349861 -0.757 0.192837 0 0.423495 -0.36806 0.513925 -0.82008 0.394287 -1.97085 0.467176 -2.20792 0.678855 -2.20792 0.123031 0 0.223693 -0.2271 0.223693 -0.50467 0 -0.27756 0.113551 -0.50466 0.252334 -0.50466 0.138783 0 0.252333 -0.28388 0.252333 -0.63084 0 -0.39251 0.142989 -0.63083 0.378501 -0.63083 0.210277 0 0.3785 -0.2243 0.3785 -0.50467 0 -0.27756 0.11355 -0.50466 0.252333 -0.50466 0.138784 0 0.252334 -0.17033 0.252334 -0.3785 0 -0.32924 1.149519 -0.3785 8.831672 -0.3785 5.71956 0 8.831673 0.0889 8.831673 0.25233 0 0.13878 -0.11355 0.25233 -0.252334 0.25233 -0.138783 0 -0.252333 0.17033 -0.252333 0.3785 0 0.20818 -0.11355 0.3785 -0.252334 0.3785 -0.138783 0 -0.252333 0.2271 -0.252333 0.50467 0 0.27757 -0.11355 0.50467 -0.252334 0.50467 -0.138783 0 -0.252333 0.28387 -0.252333 0.63083 0 0.39252 -0.14299 0.63083 -0.378501 0.63083 -0.210277 0 -0.3785 0.2243 -0.3785 0.50467 0 0.27757 -0.11355 0.50467 -0.252333 0.50467 -0.138784 0 -0.252334 0.39742 -0.252334 0.88317 0 0.48574 -0.11355 0.88316 -0.252333 0.88316 -0.138784 0 -0.252334 0.28388 -0.252334 0.63084 0 0.39252 -0.142989 0.63083 -0.3785 0.63083 -0.210278 0 -0.3785 0.2243 -0.3785 0.50467 0 0.27756 -0.11355 0.50466 -0.252334 0.50466 -0.138783 0 -0.252333 0.39743 -0.252333 0.88317 0 0.48574 -0.11355 0.88317 -0.252334 0.88317 -0.138783 0 -0.252333 0.39742 -0.252333 0.88317 0 0.48574 -0.11355 0.88316 -0.252334 0.88316 -0.138783 0 -0.252333 0.39743 -0.252333 0.88317 0 0.61682 -0.114151 0.88317 -0.3785 0.88317 -0.26435 0 -0.378501 0.26635 -0.378501 0.88317 0 0.48574 -0.11355 0.88316 -0.252333 0.88316 -0.138784 0 -0.252334 0.51098 -0.252334 1.1355 0 0.62453 -0.11355 1.1355 -0.252333 1.1355 -0.138784 0 -0.252334 0.51098 -0.252334 1.1355 0 0.84112 -0.09813 1.13551 -0.3785 1.13551 -0.297269 0 -0.3785 0.3488 -0.3785 1.62527 0 0.8939 -0.11355 1.69545 -0.252334 1.78123 -0.140841 0.087 -0.252333 1.26429 -0.252333 2.66439 0 1.50407 -0.101034 2.50844 -0.252334 2.50844 -0.161874 0 -0.252333 2.39717 -0.252333 6.68684 0 4.28967 0.09046 6.68684 0.252333 6.68684 0.1514 0 0.252334 1.00933 0.252334 2.52333 0 1.51401 0.100933 2.52334 0.252333 2.52334 0.149596 0 0.252334 0.92786 0.252334 2.27892 0 1.79293 0.08072 2.3099 0.3785 2.42416 0.271701 0.10427 0.3785 0.52923 0.3785 1.50609 0 0.74846 0.11355 1.36083 0.252334 1.36083 0.138783 0 0.252333 0.62453 0.252333 1.38784 0 0.76331 0.11355 1.38783 0.252334 1.38783 0.138783 0 0.252333 0.62809 0.252333 1.39576 0 1.00789 0.10518 1.43611 0.378501 1.54099 0.256963 0.0986 0.3785 0.50119 0.3785 1.25375 0 0.60968 0.11355 1.10851 0.252333 1.10851 0.138784 0 0.252334 0.51097 0.252334 1.1355 0 0.62452 0.11355 1.1355 0.252333 1.1355 0.138784 0 0.252334 0.39742 0.252334 0.88317 0 0.48574 0.11355 0.88316 0.252333 0.88316 0.138784 0 0.252334 0.51098 0.252334 1.1355 0 0.84111 0.09813 1.1355 0.3785 1.1355 0.28037 0 0.3785 0.29439 0.3785 1.1355 0 0.62453 0.11355 1.13551 0.252334 1.13551 0.138783 0 0.252333 0.39742 0.252333 0.88316 0 0.48574 0.11355 0.88317 0.252334 0.88317 0.138783 0 0.252333 0.38932 0.252333 0.86514 0 0.47583 0.170325 1.03547 0.3785 1.24365 0.208176 0.20817 0.378501 0.72726 0.378501 1.15352 0 0.42627 0.11355 0.77503 0.252333 0.77503 0.138784 0 0.252334 0.39742 0.252334 0.88316 0 0.48575 0.11355 0.88317 0.252333 0.88317 0.138784 0 0.252334 0.39743 0.252334 0.88317 0 0.48574 0.11355 0.88316 0.252333 0.88316 0.138784 0 0.252334 0.34066 0.252334 0.75701 0 0.50466 0.126166 0.757 0.3785 0.757 0.208175 0 0.3785 0.11355 0.3785 0.25233 0 0.1672 14.004514 0.25233 41.508864 0.25233 27.50435 0 41.50886 -0.0851 41.50886 -0.25233 0 -0.13878 0.17033 -0.25233 0.3785 -0.25233 0.25233 0 0.3785 -0.25234 0.3785 -0.757 0 -0.41635 0.11355 -0.75701 0.25233 -0.75701 0.13879 0 0.25234 -0.39742 0.25234 -0.88316 0 -0.48574 0.11355 -0.88317 0.25233 -0.88317 0.13878 0 0.25234 -0.39742 0.25234 -0.88317 0 -0.48574 0.11355 -0.88316 0.25233 -0.88316 0.13878 0 0.25233 -0.39743 0.25233 -0.88317 0 -0.61682 0.11415 -0.88317 0.3785 -0.88317 0.26435 0 0.3785 -0.26635 0.3785 -0.88317 0 -0.48574 0.11355 -0.88316 0.25234 -0.88316 0.13878 0 0.25233 -0.39743 0.25233 -0.88317 0 -0.48574 0.11355 -0.88317 0.25233 -0.88317 0.13879 0 0.25234 -0.51097 0.25234 -1.1355 0 -0.84111 0.0981 -1.1355 0.3785 -1.1355 0.26435 0 0.3785 -0.26635 0.3785 -0.88317 0 -0.48574 0.11355 -0.88316 0.25233 -0.88316 0.13878 0 0.25233 -0.51098 0.25233 -1.1355 0 -0.62453 0.11355 -1.1355 0.25234 -1.1355 0.13878 0 0.25233 -0.51098 0.25233 -1.13551 0 -0.62452 0.11355 -1.1355 0.25233 -1.1355 0.13879 0 0.25234 -0.39742 0.25234 -0.88316 0 -0.61682 0.11415 -0.88317 0.3785 -0.88317 0.29439 0 0.3785 -0.33644 0.3785 -1.514 0 -0.84111 0.11215 -1.514 0.25233 -1.514 0.14234 0 0.25234 -0.71495 0.25234 -1.64017 0 -0.92522 0.10999 -1.64017 0.25233 -1.64017 0.13878 0 0.25233 -0.62452 0.25233 -1.38783 0 -1.06541 0.0879 -1.38784 0.3785 -1.38784 0.30841 0 0.3785 -0.42055 0.3785 -2.271 0 -1.34578 0.10281 -2.271 0.25234 -2.271 0.15359 0 0.25233 -1.1355 0.25233 -2.90183 0 -1.76634 0.0987 -2.90184 0.25233 -2.90184 0.16091 0 0.25234 -2.10278 0.25234 -5.80367 0 -3.70089 -0.0914 -5.80367 -0.25234 -5.80367 -0.15211 0 -0.25233 -1.04643 -0.25233 -2.63461 0 -1.48422 -0.11018 -2.70271 -0.25233 -2.79056 -0.13879 -0.0858 -0.25234 -0.83055 -0.25234 -1.65506 0 -1.16432 -0.0845 -1.49911 -0.3785 -1.49911 -0.29439 0 -0.3785 -0.33644 -0.3785 -1.514 0 -0.84111 -0.11214 -1.514 -0.25233 -1.514 -0.13878 0 -0.25233 -0.51098 -0.25233 -1.1355 0 -0.62453 -0.11355 -1.1355 -0.25234 -1.1355 -0.13878 0 -0.25233 -0.51098 -0.25233 -1.1355 0 -0.84112 -0.0981 -1.1355 -0.3785 -1.1355 -0.26435 0 -0.3785 -0.26636 -0.3785 -0.88317 0 -0.48574 -0.11355 -0.88317 -0.25234 -0.88317 -0.13878 0 -0.25233 -0.39742 -0.25233 -0.88317 0 -0.48574 -0.11355 -0.88316 -0.25233 -0.88316 -0.13879 0 -0.25234 -0.33395 -0.25234 -0.74211 0 -0.40816 -0.11355 -0.81229 -0.25233 -0.89806 -0.13878 -0.0858 -0.25233 -0.37635 -0.25233 -0.64573 0 -0.26937 -0.17033 -0.48977 -0.3785 -0.48977 -0.25234 0 -0.3785 -0.25234 -0.3785 -0.757 0 -0.41635 -0.11355 -0.757 -0.25234 -0.757 -0.13878 0 -0.25233 -0.28388 -0.25233 -0.63084 0 -0.34696 -0.11355 -0.63083 -0.25233 -0.63083 -0.13879 0 -0.25234 -0.28388 -0.25234 -0.63083 0 -0.39252 -0.14299 -0.63084 -0.3785 -0.63084 -0.23551 0 -0.3785 -0.23831 -0.3785 -0.63083 0 -0.34696 -0.11355 -0.63084 -0.25233 -0.63084 -0.13878 0 -0.25233 -0.2271 -0.25233 -0.50466 0 -0.27757 -0.11356 -0.50467 -0.25234 -0.50467 -0.13878 0 -0.25233 -0.28387 -0.25233 -0.63083 0 -0.34696 -0.11355 -0.63084 -0.25234 -0.63084 -0.13878 0 -0.25233 -0.11355 -0.25233 -0.25233 0 -0.16342 3.11211 -0.25233 8.83167 -0.25233 7.68216 0 8.83168 0.0493 8.83168 0.3785 0 0.20817 0.11355 0.3785 0.25233 0.3785 0.13878 0 0.25233 0.2271 0.25233 0.50466 0 0.28037 0.16823 0.50467 0.3785 0.50467 0.23551 0 0.3785 0.23832 0.3785 0.63083 0 0.34696 0.11355 0.63084 0.25234 0.63084 0.13878 0 0.25233 0.2271 0.25233 0.50466 0 0.27757 0.11355 0.50467 0.25233 0.50467 0.13879 0 0.25234 0.28388 0.25234 0.63084 0 0.34695 0.11355 0.63083 0.25233 0.63083 0.13878 0 0.25233 0.28387 0.25233 0.63083 0 0.39252 0.14299 0.63084 0.3785 0.63084 0.25234 0 0.3785 0.25233 0.3785 0.757 0 0.41635 0.11355 0.757 0.25234 0.757 0.13878 0 0.25233 0.28387 0.25233 0.63083 0 0.34696 0.11355 0.63084 0.25234 0.63084 0.13878 0 0.25233 0.28387 0.25233 0.63083 0 0.39252 0.14299 0.63083 0.3785 0.63083 0.25233 0 0.3785 0.25234 0.3785 0.757 0 0.41635 0.11355 0.757 0.25233 0.757 0.13879 0 0.25234 0.39743 0.25234 0.88317 0 0.48574 0.11355 0.88317 0.25233 0.88317 0.13878 0 0.25233 0.39742 0.25233 0.88317 0 0.48574 0.11355 0.88316 0.25234 0.88316 0.13878 0 0.25233 0.51098 0.25233 1.1355 0 0.84111 0.0981 1.1355 0.3785 1.1355 0.28037 0 0.3785 0.29439 0.3785 1.1355 0 0.62453 0.11355 1.13551 0.25233 1.13551 0.14019 0 0.25234 0.67289 0.25234 1.514 0 0.84111 0.11214 1.514 0.25233 1.514 0.14589 0 0.25233 0.80169 0.25233 1.90042 0 1.45649 0.0884 1.93435 0.3785 2.04566 0.32644 0.12527 0.37851 1.35632 0.37851 8.94992 0 7.65816 -0.0493 8.80468 -0.37851 8.80468 -0.31121 0 -0.3785 0.44859 -0.3785 2.52333 0 1.514 -0.10093 2.52334 -0.25233 2.52334 -0.14019 0 -0.25233 0.67289 -0.25233 1.514 0 0.84111 -0.11215 1.514 -0.25234 1.514 -0.13878 0 -0.25233 0.62453 -0.25233 1.38783 0 1.06541 -0.0879 1.38784 -0.3785 1.38784 -0.29057 0 -0.3785 0.32243 -0.3785 1.38783 0 0.76331 -0.11355 1.38784 -0.25233 1.38784 -0.13879 0 -0.25234 0.56775 -0.25234 1.26166 0 0.69392 -0.11355 1.26167 -0.25233 1.26167 -0.13878 0 -0.25233 0.34065 -0.25233 0.757 0 0.41635 -0.11355 0.757 -0.25234 0.757 -0.13878 0 -0.25233 0.56775 -0.25233 1.26167 0 0.95326 -0.0925 1.26167 -0.3785 1.26167 -0.25233 0 -0.3785 0.25233 -0.3785 0.757 0 0.41635 -0.11355 0.757 -0.25233 0.757 -0.13879 0 -0.25234 0.4542 -0.25234 1.00933 0 0.55514 -0.11355 1.00934 -0.25233 1.00934 -0.13879 0 -0.25234 0.4542 -0.25234 1.00933 0 0.69224 -0.10991 1.00933 -0.34986 1.00933 -0.19242 0 -0.41535 0.31227 -0.4954 0.69392 -0.08 0.38166 -0.21938 1.06296 -0.30962 1.514 -0.0902 0.45105 -0.26472 0.82009 -0.38776 0.82009 -0.12303 0 -0.22369 0.39742 -0.22369 0.88316 0 0.48575 -0.11355 0.88317 -0.25233 0.88317 -0.13879 0 -0.25234 0.34065 -0.25234 0.757 0 0.50467 -0.12616 0.757 -0.3785 0.757 -0.26435 0 -0.3785 0.26636 -0.3785 0.88317 0 0.48574 -0.11355 0.88317 -0.25233 0.88317 -0.13878 0 -0.25233 0.28387 -0.25233 0.63083 0 0.34696 -0.11355 0.63083 -0.25234 0.63083 -0.13878 0 -0.25233 0.39743 -0.25233 0.88317 0 0.61682 -0.11415 0.88317 -0.3785 0.88317 -0.21028 0 -0.3785 0.2243 -0.3785 0.50467 0 0.27756 -0.11355 0.50466 -0.25234 0.50466 -0.13878 0 -0.25233 0.28388 -0.25233 0.63084 0 0.34696 -0.11355 0.63083 -0.25233 0.63083 -0.13879 0 -0.25234 0.39743 -0.25234 0.88317 0 0.48574 -0.11355 0.88316 -0.25233 0.88316 -0.13878 0 -0.25233 0.2271 -0.25233 0.50467 0 0.28037 -0.16823 0.50467 -0.3785 0.50467 -0.23551 0 -0.3785 0.23831 -0.3785 0.63083 0 0.34696 -0.11355 0.63084 -0.25234 0.63084 -0.13878 0 -0.25233 0.2271 -0.25233 0.50466 0 0.27757 -0.11355 0.50467 -0.25233 0.50467 -0.13879 0 -0.25234 0.28388 -0.25234 0.63083 0 0.34696 -0.12942 0.63084 -0.2876 0.63084 -0.36975 0 -0.95565 0.76967 -0.96604 1.26904 -0.004 0.21224 -0.23512 0.54957 -0.51269 0.74963 -0.27757 0.20006 -0.50467 0.62255 -0.50467 0.93887 0 0.31632 -0.12477 0.57513 -0.27726 0.57513 -0.15249 0 -0.59548 0.34065 -0.98441 0.757 -0.38893 0.41635 -0.83191 0.757 -0.9844 0.757 -0.15249 0 -0.27726 0.11871 -0.27726 0.2638 0 0.37066 -1.17141 1.50088 -1.56562 1.51056 -0.45118 0.0111 -1.21005 0.61692 -1.21005 0.96604 0 0.15818 -0.28388 0.2876 -0.63084 0.2876 -0.34695 0 -0.63083 0.11355 -0.63083 0.25233 0 0.13879 -0.2271 0.25234 -0.50467 0.25234 -0.27756 0 -0.50466 0.11355 -0.50466 0.25233 0 0.13878 -0.39743 0.25233 -0.88317 0.25233 -0.61681 0 -0.88317 0.11415 -0.88317 0.3785 0 0.30491 -0.39252 0.3785 -2.01867 0.3785 -1.17755 0 -2.01866 0.10514 -2.01866 0.25234 0 0.16715 -13.41574 0.25233 -39.74253 0.25233 -26.32679 0 -39.742529 -0.0852 -39.742529 -0.25233 z"/><path d="m 145.6896 175.97961 c 0 -0.41635 0.11355 -0.757 0.25233 -0.757 0.13878 0 0.25233 -0.39743 0.25233 -0.88317 0 -0.48574 0.11355 -0.88317 0.25234 -0.88317 0.13878 0 0.25233 -0.39742 0.25233 -0.88317 0 -0.61681 0.11415 -0.88316 0.3785 -0.88316 0.25233 0 0.3785 -0.25234 0.3785 -0.757 0 -0.41635 0.11355 -0.757 0.25233 -0.757 0.13879 0 0.25234 -0.39743 0.25234 -0.88317 0 -0.48574 0.11355 -0.88317 0.25233 -0.88317 0.13878 0 0.25233 -0.51097 0.25233 -1.1355 0 -0.84111 0.0981 -1.1355 0.37851 -1.1355 0.26311 0 0.3785 -0.2647 0.3785 -0.86827 0 -0.47756 0.11355 -0.93846 0.25233 -1.02423 0.13878 -0.0858 0.25233 -0.60345 0.25233 -1.1504 0 -0.54694 0.11355 -0.99444 0.25234 -0.99444 0.13878 0 0.25233 -0.39742 0.25233 -0.88316 0 -0.48575 0.11355 -0.88317 0.25233 -0.88317 0.13879 0 0.25234 -0.49883 0.25234 -1.1085 0 -0.75257 0.12153 -1.15515 0.3785 -1.25375 0.27332 -0.10489 0.3785 -0.53311 0.3785 -1.541 0 -0.76767 0.11355 -1.39575 0.25233 -1.39575 0.13878 0 0.25233 -0.51098 0.25233 -1.13551 0 -0.62452 0.11355 -1.1355 0.25234 -1.1355 0.13878 0 0.25233 -0.62452 0.25233 -1.38783 0 -1.06541 0.0879 -1.38783 0.3785 -1.38783 0.3049 0 0.3785 -0.39252 0.3785 -2.01867 0 -1.17756 0.10514 -2.01867 0.25233 -2.01867 0.1472 0 0.25234 -0.84111 0.25234 -2.01867 0 -1.17756 0.10514 -2.01867 0.25233 -2.01867 0.16335 0 0.25234 -3.07005 0.25234 -8.7055 0 -5.63545 -0.089 -8.70551 -0.25234 -8.70551 -0.1421 0 -0.25233 -0.70998 -0.25233 -1.62527 0 -0.8939 -0.11355 -1.69546 -0.25234 -1.78123 -0.13878 -0.0858 -0.25233 -0.66022 -0.25233 -1.27656 0 -0.82787 -0.0989 -1.12061 -0.3785 -1.12061 -0.28037 0 -0.3785 -0.29439 -0.3785 -1.1355 0 -0.62452 -0.11355 -1.1355 -0.25233 -1.1355 -0.13879 0 -0.25234 -0.39742 -0.25234 -0.88317 0 -0.48574 -0.11355 -0.88316 -0.25233 -0.88316 -0.13878 0 -0.25233 -0.34422 -0.25233 -0.76492 0 -0.44716 -0.15724 -0.82526 -0.3785 -0.91017 -0.20818 -0.0799 -0.3785 -0.36019 -0.3785 -0.62291 0 -0.26272 -0.11355 -0.47767 -0.25234 -0.47767 -0.13878 0 -0.25233 -0.28388 -0.25233 -0.63084 0 -0.34695 -0.11355 -0.63083 -0.25233 -0.63083 -0.13879 0 -0.25234 -0.2271 -0.25234 -0.50467 0 -0.27756 -0.11355 -0.50466 -0.25233 -0.50466 -0.13878 0 -0.25233 -0.28388 -0.25233 -0.63084 0 -0.39252 -0.14299 -0.63083 -0.3785 -0.63083 -0.21028 0 -0.37851 -0.2243 -0.37851 -0.50467 0 -0.27757 -0.11355 -0.50467 -0.25233 -0.50467 -0.13878 0 -0.25233 -0.23521 -0.25233 -0.52269 0 -0.55864 -0.54601 -1.24364 -0.99131 -1.24364 -0.1487 0 -0.27036 -0.2271 -0.27036 -0.50467 0 -0.27756 -0.11355 -0.50466 -0.25233 -0.50466 -0.13879 0 -0.25234 -0.17033 -0.25234 -0.3785 0 -0.20818 -0.11355 -0.3785 -0.25233 -0.3785 -0.13878 0 -0.25233 -0.11355 -0.25233 -0.25234 0 -0.15832 1.59811 -0.25233 4.28967 -0.25233 4.12144 0 4.28967 0.0198 4.28967 0.50467 0 0.27756 0.11355 0.50466 0.25233 0.50466 0.13878 0 0.25233 0.12166 0.25233 0.27036 0 0.34935 0.64196 0.99131 0.99131 0.99131 0.1487 0 0.27036 0.25881 0.27036 0.57513 0 0.31632 0.2271 0.73881 0.50467 0.93887 0.27756 0.20006 0.50466 0.62255 0.50466 0.93887 0 0.31632 0.11355 0.57513 0.25234 0.57513 0.13878 0 0.25233 0.2271 0.25233 0.50467 0 0.28037 0.16822 0.50467 0.3785 0.50467 0.23551 0 0.3785 0.23831 0.3785 0.63083 0 0.34696 0.11355 0.63083 0.25233 0.63083 0.13879 0 0.25234 0.2271 0.25234 0.50467 0 0.27757 0.11355 0.50467 0.25233 0.50467 0.13879 0 0.25234 0.27576 0.25234 0.61281 0 0.33704 0.17032 0.78313 0.3785 0.99131 0.20817 0.20817 0.3785 0.61371 0.3785 0.90119 0 0.28748 0.11355 0.52269 0.25233 0.52269 0.13878 0 0.25233 0.39742 0.25233 0.88317 0 0.48574 0.11355 0.88316 0.25234 0.88316 0.13878 0 0.25233 0.34065 0.25233 0.757 0 0.41635 0.11355 0.75701 0.25233 0.75701 0.13879 0 0.25234 0.51453 0.25234 1.14342 0 0.78359 0.11911 1.18912 0.3785 1.28866 0.2717 0.10426 0.3785 0.52922 0.3785 1.50608 0 0.74846 0.11355 1.36084 0.25233 1.36084 0.14953 0 0.25233 0.92522 0.25233 2.271 0 1.34578 0.10281 2.271 0.25234 2.271 0.16121 0 0.25233 2.18689 0.25233 6.05601 0 3.86911 -0.0911 6.056 -0.25233 6.056 -0.1472 0 -0.25234 0.84111 -0.25234 2.01867 0 1.17755 -0.10513 2.01867 -0.25233 2.01867 -0.14719 0 -0.25233 0.84111 -0.25233 2.01866 0 1.62615 -0.0736 2.01867 -0.3785 2.01867 -0.29763 0 -0.3785 0.35046 -0.3785 1.64017 0 0.92522 -0.10999 1.64017 -0.25234 1.64017 -0.13878 0 -0.25233 0.51097 -0.25233 1.1355 0 0.62452 -0.11355 1.1355 -0.25233 1.1355 -0.13879 0 -0.25234 0.51097 -0.25234 1.1355 0 0.62452 -0.11355 1.1355 -0.25233 1.1355 -0.13878 0 -0.25233 0.51909 -0.25233 1.15352 0 0.68892 -0.15246 1.30598 -0.3785 1.53203 -0.20818 0.20817 -0.3785 0.76781 -0.3785 1.24364 0 0.47583 -0.11355 0.86515 -0.25234 0.86515 -0.13878 0 -0.25233 0.34065 -0.25233 0.757 0 0.41635 -0.11355 0.757 -0.25234 0.757 -0.13878 0 -0.25233 0.56775 -0.25233 1.26166 0 0.95327 -0.0925 1.26167 -0.3785 1.26167 -0.25233 0 -0.3785 0.25234 -0.3785 0.757 0 0.41635 -0.11355 0.757 -0.25233 0.757 -0.13879 0 -0.25234 0.39743 -0.25234 0.88317 0 0.48574 -0.11355 0.88317 -0.25233 0.88317 -0.13878 0 -0.25233 0.39742 -0.25233 0.88316 0 0.48575 -0.11355 0.88317 -0.25234 0.88317 -0.13878 0 -0.25233 0.39743 -0.25233 0.88317 0 0.61681 -0.11415 0.88317 -0.3785 0.88317 -0.26435 0 -0.3785 0.26635 -0.3785 0.88316 0 0.48575 -0.11355 0.88317 -0.25233 0.88317 -0.13879 0 -0.25234 0.39743 -0.25234 0.88317 0 0.48574 -0.11355 0.88317 -0.25233 0.88317 -0.13878 0 -0.25233 0.34065 -0.25233 0.757 v 0.757 h -4.28967 h -4.28967 v -0.757 z"/><path d="m 108.84891 176.48427 c 0 -0.13878 -0.17033 -0.25233 -0.3785 -0.25233 -0.26435 0 -0.3785 -0.26635 -0.3785 -0.88317 0 -0.48574 -0.11355 -0.88317 -0.25234 -0.88317 -0.13878 0 -0.25233 -0.34065 -0.25233 -0.757 0 -0.41635 -0.11355 -0.757 -0.25234 -0.757 -0.13878 0 -0.25233 -0.27576 -0.25233 -0.61281 0 -0.33704 -0.17032 -0.78313 -0.3785 -0.99131 -0.20817 -0.20817 -0.3785 -0.61371 -0.3785 -0.90119 0 -0.28748 -0.11355 -0.52269 -0.25233 -0.52269 -0.13879 0 -0.25234 -0.39742 -0.25234 -0.88317 0 -0.48574 -0.11355 -0.88316 -0.25233 -0.88316 -0.13878 0 -0.25233 -0.39743 -0.25233 -0.88317 0 -0.48574 -0.11355 -0.88317 -0.25234 -0.88317 -0.13878 0 -0.25233 -0.34065 -0.25233 -0.757 0 -0.50466 -0.12617 -0.757 -0.3785 -0.757 -0.28598 0 -0.3785 -0.3084 -0.3785 -1.26167 0 -0.69391 -0.11355 -1.26166 -0.25233 -1.26166 -0.13879 0 -0.25234 -0.34065 -0.25234 -0.757 0 -0.41635 -0.11355 -0.757 -0.25233 -0.757 -0.13878 0 -0.25233 -0.38932 -0.25233 -0.86515 0 -0.47583 -0.17033 -1.03547 -0.3785 -1.24364 -0.22605 -0.22605 -0.37851 -0.84311 -0.37851 -1.53203 0 -0.63443 -0.11355 -1.15352 -0.25233 -1.15352 -0.13878 0 -0.25233 -0.51098 -0.25233 -1.1355 0 -0.62453 -0.11355 -1.1355 -0.25234 -1.1355 -0.13878 0 -0.25233 -0.51098 -0.25233 -1.1355 0 -0.62453 -0.11355 -1.1355 -0.25233 -1.1355 -0.14206 0 -0.25234 -0.70894 -0.25234 -1.62215 0 -1.10546 -0.12056 -1.7427 -0.3785 -2.00064 -0.26979 -0.26979 -0.3785 -0.92723 -0.3785 -2.28903 0 -1.10546 -0.106326 -1.91052 -0.25233 -1.91052 -0.155282 0 -0.252333 -1.26167 -0.252333 -3.28034 0 -2.01867 -0.09705 -3.28033 -0.252334 -3.28033 -0.138783 0 -0.252333 -0.62453 -0.252333 -1.38784 0 -0.76331 0.11355 -1.38783 0.252333 -1.38783 0.157708 0 0.252334 -1.514 0.252334 -4.03734 0 -2.52333 0.09462 -4.03733 0.252333 -4.03733 0.142342 0 0.25233 -0.71495 0.25233 -1.64017 0 -1.28971 0.0809 -1.64017 0.3785 -1.64017 0.27963 0 0.3785 -0.29273 0.3785 -1.12061 0 -0.61633 0.11355 -1.19078 0.25234 -1.27656 0.13878 -0.0858 0.25233 -0.66022 0.25233 -1.27656 0 -0.61633 0.11355 -1.1206 0.25233 -1.1206 0.13879 0 0.25234 -0.34066 0.25234 -0.75701 0 -0.41635 0.11355 -0.757 0.25233 -0.757 0.13878 0 0.25233 -0.39742 0.25233 -0.88316 0 -0.61682 0.11416 -0.88317 0.37851 -0.88317 0.26434 0 0.3785 -0.26635 0.3785 -0.88317 0 -0.48574 0.11355 -0.88316 0.25233 -0.88316 0.13878 0 0.25233 -0.28388 0.25233 -0.63084 0 -0.34696 0.11355 -0.63083 0.25234 -0.63083 0.13878 0 0.25233 -0.2271 0.25233 -0.50467 0 -0.28037 0.16822 -0.50467 0.3785 -0.50467 0.23551 0 0.3785 -0.23831 0.3785 -0.63083 0 -0.34696 0.11355 -0.63083 0.25233 -0.63083 0.13879 0 0.25234 -0.2271 0.25234 -0.50467 0 -0.27757 0.11355 -0.50467 0.25233 -0.50467 0.13878 0 0.25233 -0.28387 0.25233 -0.63083 0 -0.34696 0.11355 -0.63084 0.25234 -0.63084 0.13878 0 0.25233 -0.15817 0.25233 -0.3515 0 -0.19333 0.17033 -0.41686 0.3785 -0.49675 0.20818 -0.0799 0.3785 -0.31913 0.3785 -0.53166 0 -0.21253 0.11355 -0.38642 0.25233 -0.38642 0.13879 0 0.25234 -0.2271 0.25234 -0.50467 0 -0.27756 0.11355 -0.50466 0.25233 -0.50466 0.13879 0 0.25234 -0.17033 0.25234 -0.3785 0 -0.20818 0.17032 -0.3785 0.3785 -0.3785 0.20817 0 0.3785 -0.11355 0.3785 -0.25234 0 -0.15737 1.47194 -0.25233 3.91117 -0.25233 2.43922 0 3.91116 0.095 3.91116 0.25233 0 0.13879 -0.11355 0.25234 -0.25233 0.25234 -0.13878 0 -0.25233 0.28387 -0.25233 0.63083 0 0.34696 -0.11355 0.63083 -0.25234 0.63083 -0.13878 0 -0.25233 0.2271 -0.25233 0.50467 0 0.27757 -0.12166 0.50467 -0.27036 0.50467 -0.4453 0 -0.99131 0.68499 -0.99131 1.24364 0 0.28748 -0.11355 0.52269 -0.25233 0.52269 -0.13878 0 -0.25233 0.23521 -0.25233 0.52269 0 0.28748 -0.17033 0.69302 -0.3785 0.90119 -0.20818 0.20818 -0.3785 0.59749 -0.3785 0.86515 0 0.26765 -0.11355 0.48664 -0.25234 0.48664 -0.13878 0 -0.25233 0.28388 -0.25233 0.63083 0 0.34696 -0.11355 0.63084 -0.25234 0.63084 -0.13878 0 -0.25233 0.39742 -0.25233 0.88317 0 0.48574 -0.11355 0.88316 -0.25233 0.88316 -0.13879 0 -0.25234 0.23521 -0.25234 0.52269 0 0.28748 -0.17032 0.69302 -0.3785 0.90119 -0.20817 0.20818 -0.3785 0.59749 -0.3785 0.86515 0 0.26765 -0.11355 0.48664 -0.25233 0.48664 -0.13878 0 -0.25233 0.51098 -0.25233 1.1355 0 0.62453 -0.11355 1.1355 -0.25234 1.1355 -0.13878 0 -0.25233 0.49883 -0.25233 1.10851 0 0.75256 -0.12154 1.15514 -0.3785 1.25374 -0.28299 0.1086 -0.3785 0.56114 -0.3785 1.79334 0 0.9305 -0.10987 1.64808 -0.25233 1.64808 -0.14954 0 -0.25234 0.92523 -0.25234 2.271 0 1.34578 -0.1028 2.27101 -0.25233 2.27101 -0.16163 0 -0.25233 2.31305 -0.25233 6.4345 0 4.12145 0.0907 6.4345 0.25233 6.4345 0.14953 0 0.25233 0.92523 0.25233 2.27101 0 1.34577 0.1028 2.271 0.25234 2.271 0.14953 0 0.25233 0.92522 0.25233 2.271 0 1.85044 0.0701 2.271 0.3785 2.271 0.29439 0 0.3785 0.33644 0.3785 1.514 0 0.84111 0.11215 1.514 0.25233 1.514 0.13879 0 0.25234 0.51098 0.25234 1.1355 0 0.62453 0.11355 1.1355 0.25233 1.1355 0.13878 0 0.25233 0.62453 0.25233 1.38784 0 1.0654 0.0879 1.38783 0.3785 1.38783 0.28037 0 0.3785 0.29439 0.3785 1.1355 0 0.62453 0.11355 1.1355 0.25234 1.1355 0.13878 0 0.25233 0.39743 0.25233 0.88317 0 0.48574 0.10162 0.88317 0.22583 0.88317 0.12421 0 0.29453 0.4542 0.3785 1.00933 l 0.30534 2.01867 c 0.0941 0.62222 0.28767 1.00933 0.50467 1.00933 0.23406 0 0.352 0.29591 0.352 0.88317 0 0.48574 0.11355 0.88317 0.25233 0.88317 0.13878 0 0.25233 0.39742 0.25233 0.88317 0 0.48574 0.11355 0.88316 0.25234 0.88316 0.13878 0 0.25233 0.39743 0.25233 0.88317 0 0.61681 0.11415 0.88317 0.3785 0.88317 0.26435 0 0.3785 0.26635 0.3785 0.88316 0 0.48575 0.11355 0.88317 0.25233 0.88317 0.13879 0 0.25234 0.2271 0.25234 0.50467 0 0.27757 0.11355 0.50467 0.25233 0.50467 0.13878 0 0.25233 0.34065 0.25233 0.757 v 0.757 h -3.91116 c -2.43923 0 -3.91117 -0.095 -3.91117 -0.25234 z"/><path d="m 127.26925 140.02208 v -36.71452 h 4.03734 h 4.03733 v 36.71452 v 36.71453 h -4.03733 h -4.03734 v -36.71453 z"/></g></g></svg>