<?xml version="1.0" encoding="UTF-8" standalone="no"?>
<!-- Created with Inkscape (http://www.inkscape.org/) -->

<svg
   xmlns:dc="http://purl.org/dc/elements/1.1/"
   xmlns:cc="http://creativecommons.org/ns#"
   xmlns:rdf="http://www.w3.org/1999/02/22-rdf-syntax-ns#"
   xmlns:svg="http://www.w3.org/2000/svg"
   xmlns="http://www.w3.org/2000/svg"
   xmlns:sodipodi="http://sodipodi.sourceforge.net/DTD/sodipodi-0.dtd"
   xmlns:inkscape="http://www.inkscape.org/namespaces/inkscape"
   width="256"
   height="256"
   id="svg10914"
   version="1.1"
   inkscape:version="0.48.4 r9939"
   sodipodi:docname="user-trash.svg">
  <sodipodi:namedview
     id="base"
     pagecolor="#ffffff"
     bordercolor="#666666"
     borderopacity="1.0"
     inkscape:pageopacity="0.0"
     inkscape:pageshadow="2"
     inkscape:zoom="0.98901497"
     inkscape:cx="143.8728"
     inkscape:cy="147.58701"
     inkscape:document-units="px"
     inkscape:current-layer="layer1"
     showgrid="false"
     inkscape:showpageshadow="false"
     inkscape:snap-page="true"
     inkscape:snap-bbox="true"
     inkscape:window-width="624"
     inkscape:window-height="471"
     inkscape:window-x="371"
     inkscape:window-y="441"
     inkscape:window-maximized="0"
     inkscape:snap-global="false" />
  <defs
     id="defs10916" />
  <metadata
     id="metadata10919">
    <rdf:RDF>
      <cc:Work
         rdf:about="">
        <dc:format>image/svg+xml</dc:format>
        <dc:type
           rdf:resource="http://purl.org/dc/dcmitype/StillImage" />
        <dc:title />
      </cc:Work>
    </rdf:RDF>
  </metadata>
  <g
     transform="translate(0,-796.36218)"
     id="layer1"
     inkscape:groupmode="layer"
     inkscape:label="Layer 1">
    <path
       inkscape:connector-curvature="0"
       id="path2991"
       d="M 118.98105,1050.306 C 98.176582,1046.5042 75.428857,1035.9054 55.796326,1020.8663 42.543153,1010.714 27.297384,993.89013 18.741944,979.97636 14.491056,973.06306 9.2875396,961.88726 6.6566702,954.02029 2.7314515,942.28293 2.0124385,936.62115 2.0223133,917.52805 2.0313392,900.43247 2.0487817,900.23571 4.3262155,891.75901 11.21366,866.12397 22.977179,846.95822 42.943703,828.8413 c 16.031289,-14.54622 37.03855,-24.91118 59.627487,-29.42012 10.93547,-2.1828 31.81932,-2.72033 43.82014,-1.12787 16.66068,2.21078 34.14325,7.69455 45.93073,14.40709 24.96647,14.21751 48.64371,44.05946 57.82908,72.88571 6.97015,21.87425 7.74464,46.9417 2.14009,69.26736 -12.20291,48.61033 -50.4811,86.41243 -96.33276,95.13453 -8.7768,1.6696 -28.64603,1.8405 -36.97742,0.318 z"
       style="fill:#ffffff;fill-opacity:1"
       sodipodi:nodetypes="cssscsssssssccc" />
    <g
       id="layer1-1"
       inkscape:label="Layer 1"
       transform="matrix(0.96091779,0,0,0.96445326,-53.602988,67.990616)" />
    <g
       inkscape:label="Layer 1"
       id="layer1-5"
       transform="matrix(0.96091779,0,0,0.96445326,-187.9942,20.319073)" />
    <g
       inkscape:label="Layer 1"
       id="layer1-3"
       transform="matrix(0.96091779,0,0,0.96445326,1.8405738,39.511486)"
       style="fill:#ff8c00">
      <g
         inkscape:label="Layer 1"
         id="layer1-38"
         transform="translate(142.30146,94.528804)"
         style="fill:#ff8c00" />
    </g>
    <path
       style="fill:#ff4500;fill-opacity:1;fill-rule:evenodd;stroke:#dc143c;stroke-width:0;stroke-miterlimit:4;stroke-opacity:1;stroke-dasharray:none"
       d="m 63.235955,881.55806 0,-9.11006 9.355935,0 9.355934,0 0,-1.96216 c 0,-1.12123 0.119692,-1.96216 0.279282,-1.96216 0.153604,0 0.279281,-0.50456 0.279281,-1.12124 0,-0.61668 0.125677,-1.12124 0.279283,-1.12124 0.153604,0 0.279281,-0.25227 0.279281,-0.56062 0,-0.30833 0.125675,-0.56062 0.279282,-0.56062 0.153604,0 0.27928,-0.41364 0.27928,-0.91919 0,-0.59765 0.195402,-1.06057 0.558563,-1.32328 0.307211,-0.22223 0.558564,-0.60066 0.558564,-0.84093 0,-0.24026 0.251354,-0.61869 0.558564,-0.84092 0.307209,-0.22224 0.558563,-0.57532 0.558563,-0.78464 0,-0.48157 2.0612,-2.48617 2.797596,-2.72074 0.304582,-0.097 0.553783,-0.27876 0.553783,-0.40384 0,-0.12507 0.37703,-0.38416 0.837845,-0.57573 0.460815,-0.19157 0.837846,-0.45917 0.837846,-0.59463 0,-0.13547 0.37703,-0.2463 0.837844,-0.2463 0.460815,0 0.837845,-0.12614 0.837845,-0.28031 0,-0.15417 0.37703,-0.28031 0.837845,-0.28031 0.460814,0 0.837845,-0.11687 0.837845,-0.2597 0,-0.14285 1.099672,-0.34202 2.443714,-0.44261 4.29681,-0.32157 65.701,-0.45334 65.701,-0.14099 0,0.16312 0.82692,0.28268 1.95497,0.28268 1.11714,0 1.95498,0.12014 1.95498,0.28031 0,0.15417 0.5027,0.28031 1.11713,0.28031 0.61441,0 1.11712,0.12614 1.11712,0.28031 0,0.15417 0.24394,0.28031 0.54208,0.28031 0.29814,0 0.61976,0.12614 0.71468,0.28031 0.095,0.15418 0.47938,0.2803 0.85433,0.2803 0.37495,0 0.68173,0.10484 0.68173,0.23295 0,0.12812 0.3456,0.41194 0.76803,0.6307 0.4224,0.21876 1.01165,0.6185 1.30941,0.8883 0.29779,0.2698 0.65324,0.49054 0.78992,0.49054 0.37946,0 2.38104,2.17826 2.58015,2.80788 0.0967,0.30571 0.27772,0.55582 0.40233,0.55582 0.12463,0 0.38275,0.37842 0.57364,0.84093 0.19087,0.46251 0.52032,0.84093 0.73208,0.84093 0.25386,0 0.38504,0.33425 0.38504,0.98108 0,0.53959 0.12568,0.98108 0.27929,0.98108 0.15359,0 0.27927,0.37843 0.27927,0.84093 0,0.46252 0.12568,0.84093 0.27928,0.84093 0.1655,0 0.27928,1.0278 0.27928,2.52278 l 0,2.52278 9.2163,0 9.21629,0 0,9.11006 0,9.11005 -67.58615,0 -67.586155,0 0,-9.11005 z m 99.144975,-13.73515 0,-4.62511 -31.55882,0 -31.558824,0 0,4.62511 0,4.62509 31.558824,0 31.55882,0 0,-4.62509 z"
       id="path3004"
       inkscape:connector-curvature="0" />
    <path
       style="fill:#ff4500;fill-opacity:1;fill-rule:evenodd;stroke:#dc143c;stroke-width:0;stroke-miterlimit:4;stroke-opacity:1;stroke-dasharray:none"
       d="m 108.47958,936.63881 0,-27.47031 4.4685,0 4.46851,0 0,27.47031 0,27.4703 -4.46851,0 -4.4685,0 0,-27.4703 z"
       id="path3008"
       inkscape:connector-curvature="0" />
    <path
       style="fill:#ff4500;fill-opacity:1;fill-rule:evenodd;stroke:#dc143c;stroke-width:0;stroke-miterlimit:4;stroke-opacity:1;stroke-dasharray:none"
       d="m 90.326273,1000.8296 c 0,-0.1661 -1.024033,-0.2802 -2.513534,-0.2802 -1.489503,0 -2.513535,-0.1143 -2.513535,-0.2803 0,-0.1542 -0.37703,-0.28051 -0.837845,-0.28051 -0.558564,0 -0.837846,-0.1401 -0.837846,-0.4204 0,-0.2803 -0.27928,-0.4204 -0.837843,-0.4204 -0.460816,0 -0.837846,-0.1262 -0.837846,-0.28039 0,-0.15415 -0.164816,-0.28027 -0.366261,-0.28027 -0.201442,0 -0.636057,-0.25233 -0.965808,-0.56062 -0.329751,-0.30838 -0.710486,-0.56062 -0.84608,-0.56062 -0.396594,0 -2.673638,-2.31186 -3.105915,-3.15347 -0.217775,-0.42397 -0.500395,-0.77085 -0.628043,-0.77085 -0.127649,0 -0.232089,-0.22443 -0.232089,-0.49874 0,-0.27429 -0.251353,-0.68057 -0.558563,-0.90281 -0.328009,-0.23728 -0.558563,-0.72563 -0.558563,-1.18311 0,-0.42848 -0.125677,-0.77905 -0.279282,-0.77905 -0.153605,0 -0.279281,-0.25227 -0.279281,-0.56061 0,-0.30834 -0.125678,-0.56063 -0.279283,-0.56063 -0.153604,0 -0.279281,-0.56762 -0.279281,-1.26139 0,-0.69376 -0.125675,-1.26138 -0.279282,-1.26138 -0.15728,0 -0.279282,-0.78869 -0.279282,-1.80547 0,-0.99301 -0.125675,-1.88343 -0.279281,-1.97872 -0.184137,-0.11421 -0.279281,-14.20523 -0.279281,-41.36214 l 0,-41.18891 8.937011,0 8.937013,0 0,41.34561 0,41.3456 40.635477,0 40.63548,0 0,-41.3456 0,-41.34561 8.93701,0 8.93701,0 0,41.34561 c 0,27.37687 -0.0943,41.3456 -0.27928,41.3456 -0.16551,0 -0.27929,1.02781 -0.27929,2.52279 0,1.49497 -0.11378,2.52278 -0.27927,2.52278 -0.15361,0 -0.27928,0.37842 -0.27928,0.84092 0,0.46252 -0.12569,0.84094 -0.27929,0.84094 -0.1536,0 -0.27928,0.35056 -0.27928,0.77905 0,0.45747 -0.23056,0.94582 -0.55855,1.18311 -0.30723,0.22224 -0.55858,0.60066 -0.55858,0.84093 0,0.24027 -0.25135,0.61869 -0.55857,0.84093 -0.30721,0.22224 -0.55855,0.56963 -0.55855,0.77199 0,0.47808 -1.82661,2.31139 -2.30293,2.31139 -0.20162,0 -0.54774,0.25233 -0.76917,0.56072 -0.22142,0.30829 -0.59845,0.56052 -0.83784,0.56052 -0.23939,0 -0.61643,0.25224 -0.83786,0.56062 -0.23641,0.32926 -0.72296,0.56062 -1.17877,0.56062 -0.42691,0 -0.77619,0.12612 -0.77619,0.28027 0,0.15419 -0.31419,0.28039 -0.69821,0.28039 -0.43443,0 -0.6982,0.1588 -0.6982,0.4204 0,0.3037 -0.31031,0.4204 -1.11712,0.4204 -0.61442,0 -1.11714,0.12631 -1.11714,0.28051 0,0.16 -0.83784,0.2803 -1.95497,0.2803 -1.11712,0 -1.95496,0.1201 -1.95496,0.2802 0,0.1856 -13.68481,0.2804 -40.49584,0.2804 -26.81104,0 -40.495837,-0.094 -40.495837,-0.2804 z"
       id="path3006"
       inkscape:connector-curvature="0" />
    <path
       style="fill:#ff4500;fill-opacity:1;fill-rule:evenodd;stroke:#dc143c;stroke-width:0;stroke-miterlimit:4;stroke-opacity:1;stroke-dasharray:none"
       d="m 126.35361,936.63881 0,-27.47031 4.4685,0 4.4685,0 0,27.47031 0,27.4703 -4.4685,0 -4.4685,0 0,-27.4703 z"
       id="path3010"
       inkscape:connector-curvature="0" />
    <path
       style="fill:#ff4500;fill-opacity:1;fill-rule:evenodd;stroke:#dc143c;stroke-width:0;stroke-miterlimit:4;stroke-opacity:1;stroke-dasharray:none"
       d="m 144.5069,936.63881 0,-27.47031 4.46852,0 4.46849,0 0,27.47031 0,27.4703 -4.46849,0 -4.46852,0 0,-27.4703 z"
       id="path3012"
       inkscape:connector-curvature="0" />
  </g>
</svg>
