<?xml version="1.0" encoding="UTF-8" standalone="no"?>
<!-- Created with Inkscape (http://www.inkscape.org/) -->
<svg id="svg3759" xmlns:rdf="http://www.w3.org/1999/02/22-rdf-syntax-ns#" xmlns="http://www.w3.org/2000/svg" height="48" width="48" version="1.1" xmlns:cc="http://creativecommons.org/ns#" xmlns:xlink="http://www.w3.org/1999/xlink" xmlns:dc="http://purl.org/dc/elements/1.1/">
 <metadata id="metadata37">
  <rdf:RDF>
   <cc:Work rdf:about="">
    <dc:format>image/svg+xml</dc:format>
    <dc:type rdf:resource="http://purl.org/dc/dcmitype/StillImage"/>
    <dc:title/>
   </cc:Work>
  </rdf:RDF>
 </metadata>
 <defs id="defs3761">
  <linearGradient id="linearGradient3874" y2="24" gradientUnits="userSpaceOnUse" x2="43.5" gradientTransform="matrix(0 1 -1 0 48 -.0000029)" y1="24" x1="4.5">
   <stop id="stop3762-6" style="stop-color:#e44343" offset="0"/>
   <stop id="stop3764-6" style="stop-color:#ac0808" offset="1"/>
  </linearGradient>
 </defs>
 <g id="layer1">
  <path id="path4026" style="opacity:.05;block-progression:tb;text-indent:0;color:#000000;stroke:#000;stroke-width:2;text-transform:none" d="m24 5c-11.04 0-20 8.961-20 20 0 11.04 8.96 20 20 20s20-8.96 20-20c0-11.039-8.96-20-20-20z"/>
  <path id="path4024" d="m24 5c-11.04 0-20 8.961-20 20 0 11.04 8.96 20 20 20s20-8.96 20-20c0-11.039-8.96-20-20-20z" style="opacity:.1;block-progression:tb;text-indent:0;color:#000000;stroke:#000;text-transform:none"/>
  <path id="path4018" style="opacity:.2;block-progression:tb;text-indent:0;color:#000000;text-transform:none" d="m24 5c-11.04 0-20 8.961-20 20 0 11.04 8.96 20 20 20s20-8.96 20-20c0-11.039-8.96-20-20-20z"/>
  <path id="path6495" d="m4.5 24.001c0-10.77 8.7311-19.501 19.5-19.501 10.77 0 19.5 8.7309 19.5 19.501 0 10.769-8.731 19.499-19.5 19.499s-19.5-8.73-19.5-19.499z" style="fill:url(#linearGradient3874)"/>
  <path id="path3872" style="opacity:.4;fill:#fff" d="m24 5c-10.499 0-19 8.501-19 19 0 0.169 0.0268 0.332 0.0312 0.5 0.2684-10.265 8.6388-18.5 18.969-18.5 10.329 0 18.7 8.235 18.969 18.5 0.004-0.168 0.031-0.331 0.031-0.5 0-10.499-8.502-19-19-19z"/>
  <path id="path3796" style="opacity:.81;stroke:#5c0303;fill:none" d="m23.999 4.5c10.77 0 19.501 8.731 19.501 19.5s-8.731 19.5-19.501 19.5c-10.769 0-19.499-8.731-19.499-19.5s8.73-19.5 19.499-19.5z"/>
  <path id="path3366" style="opacity:.1;fill:#fff" d="m24 43c-10.499 0-19-8.501-19-19 0-0.169 0.0268-0.332 0.0312-0.5 0.2684 10.265 8.6388 18.5 18.969 18.5 10.329 0 18.7-8.235 18.969-18.5 0.004 0.168 0.031 0.331 0.031 0.5 0 10.499-8.502 19-19 19z"/>
 </g>
 <g id="layer2" clip-rule="evenodd">
  <path id="path3963" style="opacity:.3;fill-rule:evenodd;enable-background:new" d="m35.762 28.196c-0.64514 1.1039-2.2545 0.79588-3.4033 0.62756-1.1166-0.16245-2.4496-0.32675-3.1834-1.366-0.41258-0.58208-0.28663-1.3029-0.28465-1.9287 0.0016-0.6177 0.18926-1.3982-0.1656-1.9356-0.5746-0.87327-1.7769-1.1006-2.4816-1.207-1.5955-0.23669-2.8281-0.24859-4.5327 0.04474-0.82611 0.14115-1.9518 0.35562-2.4064 1.1562-0.67853 1.1963 0.34251 2.5555-0.45307 3.8087-0.75698 1.1929-2.1414 1.2417-3.1713 1.392-0.99424 0.14258-2.4335 0.51621-3.2281-0.28486-0.45576-0.46101-0.41812-1.1152-0.41771-1.7106-0.0011-0.60643-0.07592-1.2025-0.0016-1.7367 0.17882-1.2941 0.79512-2.5362 1.842-3.6675 1.0263-1.1092 2.203-1.6806 3.3585-2.123 2.2601-0.86415 4.3859-1.0866 6.776-1.115 2.3502-0.02857 4.6753 0.24488 6.9329 1.1495 2.8186 1.1303 4.6971 3.4611 5.0266 5.884 0.05676 0.4107 0.01993 0.94968 0.01369 1.4673-0.0046 0.51753 0.06376 1.0595-0.2203 1.5449z"/>
  <path id="path8317" style="enable-background:new;fill:#fff;fill-rule:evenodd" d="m35.762 27.196c-0.64514 1.1039-2.2545 0.79588-3.4033 0.62756-1.1166-0.16245-2.4496-0.32675-3.1834-1.366-0.41258-0.58208-0.28663-1.3029-0.28465-1.9287 0.0016-0.6177 0.18926-1.3982-0.1656-1.9356-0.5746-0.87327-1.7769-1.1006-2.4816-1.207-1.5955-0.23669-2.8281-0.24859-4.5327 0.04474-0.82611 0.14115-1.9518 0.35562-2.4064 1.1562-0.67853 1.1963 0.34251 2.5555-0.45307 3.8087-0.75698 1.1929-2.1414 1.2417-3.1713 1.392-0.99424 0.14258-2.4335 0.51621-3.2281-0.28486-0.45576-0.46101-0.41812-1.1152-0.41771-1.7106-0.0011-0.60643-0.07592-1.2025-0.0016-1.7367 0.17882-1.2941 0.79512-2.5362 1.842-3.6675 1.0263-1.1092 2.203-1.6806 3.3585-2.123 2.2601-0.86415 4.3859-1.0866 6.776-1.115 2.3502-0.02857 4.6753 0.24488 6.9329 1.1495 2.8186 1.1303 4.6971 3.4611 5.0266 5.884 0.05676 0.4107 0.01993 0.94968 0.01369 1.4673-0.0046 0.51753 0.06376 1.0595-0.2203 1.5449z"/>
 </g>
</svg>
