<?xml version="1.0" encoding="UTF-8" standalone="no"?>
<!-- Created with Inkscape (http://www.inkscape.org/) -->
<svg id="svg3759" xmlns:rdf="http://www.w3.org/1999/02/22-rdf-syntax-ns#" xmlns="http://www.w3.org/2000/svg" height="48" width="48" version="1.1" xmlns:cc="http://creativecommons.org/ns#" xmlns:xlink="http://www.w3.org/1999/xlink" xmlns:dc="http://purl.org/dc/elements/1.1/">
 <metadata id="metadata37">
  <rdf:RDF>
   <cc:Work rdf:about="">
    <dc:format>image/svg+xml</dc:format>
    <dc:type rdf:resource="http://purl.org/dc/dcmitype/StillImage"/>
    <dc:title/>
   </cc:Work>
  </rdf:RDF>
 </metadata>
 <defs id="defs3761">
  <linearGradient id="linearGradient3874" y2="24" gradientUnits="userSpaceOnUse" x2="43.5" gradientTransform="matrix(0 -1 -1 0 48 48.5)" y1="24" x1="4.5">
   <stop id="stop3888" style="stop-color:#2ca42a" offset="0"/>
   <stop id="stop3890" style="stop-color:#57d932" offset="1"/>
  </linearGradient>
  <linearGradient id="linearGradient4266" y2="24" gradientUnits="userSpaceOnUse" x2="44" gradientTransform="matrix(0,-1,1,0,0,48)" y1="24" x1="4">
   <stop id="stop3906-5" style="stop-color:#1c521e" offset="0"/>
   <stop id="stop3908-1" style="stop-color:#2f821a" offset="1"/>
  </linearGradient>
 </defs>
 <g id="layer1">
  <path id="path4026" style="opacity:.05;block-progression:tb;text-indent:0;color:#000000;stroke:#000;stroke-width:2;text-transform:none" d="m24 5c-11.04 0-20 8.961-20 20 0 11.04 8.96 20 20 20s20-8.96 20-20c0-11.039-8.96-20-20-20z"/>
  <path id="path4024" d="m24 5c-11.04 0-20 8.961-20 20 0 11.04 8.96 20 20 20s20-8.96 20-20c0-11.039-8.96-20-20-20z" style="opacity:.1;block-progression:tb;text-indent:0;color:#000000;stroke:#000;text-transform:none"/>
  <path id="path4018" style="opacity:.2;block-progression:tb;text-indent:0;color:#000000;text-transform:none" d="m24 5c-11.04 0-20 8.961-20 20 0 11.04 8.96 20 20 20s20-8.96 20-20c0-11.039-8.96-20-20-20z"/>
  <path id="path6495" d="m4.5 24.499c0 10.77 8.731 19.501 19.5 19.501 10.77 0 19.5-8.7309 19.5-19.501 0-10.769-8.7306-19.499-19.5-19.499s-19.5 8.7299-19.5 19.499z" style="fill:url(#linearGradient3874)"/>
  <path id="path3872" style="opacity:.4;fill:#fff" d="m24 5c-10.499 0-19 8.501-19 19 0 0.169 0.0268 0.332 0.0312 0.5 0.2684-10.265 8.6388-18.5 18.969-18.5 10.329 0 18.7 8.235 18.969 18.5 0.004-0.168 0.031-0.331 0.031-0.5 0-10.499-8.502-19-19-19z"/>
  <path id="path3796" style="opacity:0.81;stroke:url(#linearGradient4266);fill:none" d="m4.5 24.001c0-10.77 8.731-19.501 19.5-19.501s19.5 8.731 19.5 19.501c0 10.769-8.731 19.499-19.5 19.499s-19.5-8.73-19.5-19.499z"/>
  <path id="path3366" style="opacity:.1;fill:#fff" d="m24 43c-10.499 0-19-8.501-19-19 0-0.169 0.0268-0.332 0.0312-0.5 0.2684 10.265 8.6388 18.5 18.969 18.5 10.329 0 18.7-8.235 18.969-18.5 0.004 0.168 0.031 0.331 0.031 0.5 0 10.499-8.502 19-19 19z"/>
 </g>
 <g id="layer2" clip-rule="evenodd">
  <path id="path3963" style="opacity:.3;fill-rule:evenodd;enable-background:new" d="m14.049 31.169c-0.3244-1.2368 1.0314-2.157 1.9627-2.8502 0.90445-0.67471 1.9632-1.5011 3.2169-1.2851 0.70333 0.11985 1.124 0.71861 1.5651 1.1625 0.43565 0.43791 0.85482 1.1225 1.4858 1.2516 1.0238 0.21119 2.0347-0.47828 2.6082-0.90133 1.2956-0.96084 2.1756-1.824 3.1734-3.2367 0.48434-0.68396 1.1287-1.6316 0.884-2.5192-0.36609-1.3257-2.0492-1.5648-2.3728-3.0135-0.30823-1.3788 0.63617-2.3923 1.2582-3.2267 0.60221-0.80385 1.3557-2.0857 2.484-2.0812 0.64825 0.0037 1.0842 0.49288 1.505 0.91423 0.42959 0.42803 0.904 0.79663 1.2292 1.2269 0.78864 1.0415 1.2311 2.3556 1.2908 3.8958 0.05863 1.51-0.36935 2.7461-0.87364 3.876-0.98707 2.2092-2.3329 3.8696-4.0029 5.5798-1.6417 1.6821-3.4791 3.1328-5.7151 4.0895-2.7923 1.1938-5.7687 0.87398-7.715-0.60624-0.33054-0.25027-0.68562-0.65743-1.0472-1.0279-0.3627-0.3692-0.79427-0.7041-0.93666-1.2482z"/>
  <path id="path8317" style="enable-background:new;fill:#fff;fill-rule:evenodd" d="m14.049 30.169c-0.3244-1.2368 1.0314-2.157 1.9627-2.8502 0.90445-0.67471 1.9632-1.5011 3.2169-1.2851 0.70333 0.11985 1.124 0.71861 1.5651 1.1625 0.43565 0.43791 0.85482 1.1225 1.4858 1.2516 1.0238 0.21119 2.0347-0.47828 2.6082-0.90133 1.2956-0.96084 2.1756-1.824 3.1734-3.2367 0.48434-0.68396 1.1287-1.6316 0.884-2.5192-0.36609-1.3257-2.0492-1.5648-2.3728-3.0135-0.30823-1.3788 0.63617-2.3923 1.2582-3.2267 0.60221-0.80385 1.3557-2.0857 2.484-2.0812 0.64825 0.0037 1.0842 0.49288 1.505 0.91423 0.42959 0.42803 0.904 0.79663 1.2292 1.2269 0.78864 1.0415 1.2311 2.3556 1.2908 3.8958 0.05863 1.51-0.36935 2.7461-0.87364 3.876-0.98707 2.2092-2.3329 3.8696-4.0029 5.5798-1.6417 1.6821-3.4791 3.1328-5.7151 4.0895-2.7923 1.1938-5.7687 0.87398-7.715-0.60624-0.33054-0.25027-0.68562-0.65743-1.0472-1.0279-0.3627-0.3692-0.79427-0.7041-0.93666-1.2482z"/>
 </g>
</svg>
