<?xml version="1.0" encoding="UTF-8" standalone="no"?>
<!-- Created with Inkscape (http://www.inkscape.org/) -->
<svg id="svg3759" xmlns:rdf="http://www.w3.org/1999/02/22-rdf-syntax-ns#" xmlns="http://www.w3.org/2000/svg" height="48" width="48" version="1.1" xmlns:cc="http://creativecommons.org/ns#" xmlns:xlink="http://www.w3.org/1999/xlink" xmlns:dc="http://purl.org/dc/elements/1.1/">
 <metadata id="metadata37">
  <rdf:RDF>
   <cc:Work rdf:about="">
    <dc:format>image/svg+xml</dc:format>
    <dc:type rdf:resource="http://purl.org/dc/dcmitype/StillImage"/>
    <dc:title/>
   </cc:Work>
  </rdf:RDF>
 </metadata>
 <defs id="defs3761">
  <linearGradient id="linearGradient4004">
   <stop id="stop4006" offset="0"/>
   <stop id="stop4008" style="stop-opacity:0" offset="1"/>
  </linearGradient>
  <linearGradient id="linearGradient4117" y2="40" gradientUnits="userSpaceOnUse" x2="144" gradientTransform="matrix(0 -.175 .175 0 -4 48.2)" y1="280" x1="144">
   <stop id="stop3990-5" style="stop-color:#ededed" offset="0"/>
   <stop id="stop3992-0" style="stop-color:#fff" offset="1"/>
  </linearGradient>
  <linearGradient id="linearGradient3149" y2="42" xlink:href="#linearGradient3960" gradientUnits="userSpaceOnUse" x2="25" gradientTransform="matrix(1.0571 0 0 1.6667 -4.9 -31.5)" y1="45" x1="25"/>
  <linearGradient id="linearGradient3960">
   <stop id="stop3962" style="stop-opacity:0" offset="0"/>
   <stop id="stop3970" offset=".5"/>
   <stop id="stop3964" style="stop-opacity:0" offset="1"/>
  </linearGradient>
  <radialGradient id="radialGradient3146" xlink:href="#linearGradient4004" gradientUnits="userSpaceOnUse" cy="43.5" cx="40" gradientTransform="matrix(1.0571 0 0 1.25 2.1 -13.375)" r="2"/>
  <radialGradient id="radialGradient3143" xlink:href="#linearGradient4004" gradientUnits="userSpaceOnUse" cy="43.5" cx="9" gradientTransform="matrix(1.0571 0 0 1.25 -4.9 -13.375)" r="2"/>
  <linearGradient id="linearGradient3158" y2="42" xlink:href="#linearGradient3960" gradientUnits="userSpaceOnUse" x2="25" gradientTransform="translate(-3.5 -2.5)" y1="45" x1="25"/>
  <radialGradient id="radialGradient3155" xlink:href="#linearGradient4004" gradientUnits="userSpaceOnUse" cy="43.5" cx="40" gradientTransform="matrix(1 0 0 .75 3.5 8.375)" r="2"/>
  <radialGradient id="radialGradient3153" gradientUnits="userSpaceOnUse" xlink:href="#linearGradient4004" cx="9" cy="43.5" r="2" gradientTransform="matrix(1 0 0 .75 -3.5 8.375)"/>
  <radialGradient id="radialGradient5130" gradientUnits="userSpaceOnUse" cy="9.3411" cx="38.659" r="8.3417">
   <stop id="stop2380" style="stop-color:#fff" offset="0"/>
   <stop id="stop4146" style="stop-color:#fefede;stop-opacity:.91837" offset=".25"/>
   <stop id="stop2386" style="stop-color:#f5f328" offset=".5"/>
   <stop id="stop2382" style="stop-color:#f5f32d;stop-opacity:.12234" offset="1"/>
  </radialGradient>
  <linearGradient id="linearGradient4010" y2="28.481" xlink:href="#linearGradient4004" gradientUnits="userSpaceOnUse" x2="13.776" y1="5" x1="14"/>
  <clipPath id="clipPath4607" clipPathUnits="userSpaceOnUse">
   <path id="path4609" style="opacity:.4;fill-rule:evenodd;enable-background:new;fill:url(#linearGradient4010)" d="m7 11h14v15h-14z"/>
  </clipPath>
 </defs>
 <g id="layer1">
  <g id="g3162" transform="translate(0,-1)">
   <path id="rect3985" d="m4.6143 38.5h39.772v5h-39.772z" style="opacity:0.12;fill:url(#linearGradient3149)"/>
   <path id="path3987" style="opacity:0.12;fill:url(#radialGradient3146)" d="m44.386 38.5v5h0.52857c0.87849 0 1.5857-1.115 1.5857-2.5s-0.70723-2.5-1.5857-2.5h-0.52857z"/>
   <path id="path3989" style="opacity:0.12;fill:url(#radialGradient3143)" d="m3.9866 38.5c-0.82358 0-1.4866 1.0453-1.4866 2.3438v0.3125c0 1.2984 0.66303 2.3438 1.4866 2.3438h0.62768v-5h-0.62768z"/>
   <path id="rect3938" d="m5.5 39.5h38v3h-38z" style="opacity:0.12;fill:url(#linearGradient3158)"/>
   <path id="rect3940" d="m43.5 39.5v3h0.5c0.831 0 1.5-0.669 1.5-1.5s-0.669-1.5-1.5-1.5h-0.5z" style="opacity:0.12;fill:url(#radialGradient3155)"/>
   <path id="rect3942" d="m4.9062 39.5c-0.77906 0-1.4062 0.62719-1.4062 1.4062v0.1875c0 0.77906 0.62719 1.4062 1.4062 1.4062h0.59375v-3h-0.59375z" style="opacity:0.12;fill:url(#radialGradient3153)"/>
  </g>
  <g id="g4204" transform="translate(-.0000016888 -7.9403e-7)">
   <g id="g4020" transform="translate(2,-1)">
    <rect id="rect3886" style="opacity:.35;color:#bebebe" transform="matrix(0,1,1,0,0,0)" ry="1" height="41" width="33" y="2" x="8"/>
    <rect id="rect3882" ry="0" style="color:#bebebe;fill:url(#linearGradient4117)" transform="matrix(0,1,1,0,0,0)" height="39" width="31" y="3" x="9"/>
    <path id="path3893" style="opacity:.4;fill:#fff" d="m3 9v31h39v-31zm1 1h37v29h-37z"/>
    <rect id="rect4018" style="opacity:.4;fill:#fff" height="1" width="39" y="9" x="3"/>
   </g>
  </g>
  <path id="path2375" style="enable-background:new" d="m24.146 16.375c0 0.36328-0.0753 0.64189-0.22584 0.83581-0.15057 0.19263-0.35588 0.28895-0.61595 0.28895-0.10609 0-0.2076-0.02263-0.30456-0.06787v-0.51584c0.0856 0.07369 0.18023 0.11054 0.28402 0.11054 0.12776 0 0.22357-0.05365 0.28745-0.16096 0.065-0.1086 0.0975-0.27084 0.0975-0.48675v-1.7201h0.47736v1.7162m1.3328-0.99289c0.26691 0.000003 0.47964 0.09309 0.63819 0.27925 0.15855 0.18617 0.23782 0.43633 0.23782 0.75048 0 0.34131-0.085 0.60763-0.25493 0.79897-0.16996 0.19005-0.39808 0.28507-0.68438 0.28507-0.2635 0-0.47793-0.09373-0.64333-0.28119-0.16425-0.18746-0.24638-0.43309-0.24638-0.73691 0-0.3413 0.0861-0.60892 0.25836-0.80284 0.17223-0.19521 0.40378-0.29282 0.69465-0.29282m-0.0394 1.6968c0.13916 0 0.25208-0.05624 0.33877-0.16871 0.0878-0.11377 0.13175-0.26826 0.13175-0.46348 0-0.1978-0.0433-0.35359-0.13004-0.46736-0.0867-0.11506-0.1979-0.17259-0.33364-0.17259-0.1346 0.000001-0.24866 0.06012-0.34219 0.18035-0.0935 0.11894-0.1403 0.27602-0.1403 0.47123 0 0.19263 0.0456 0.34454 0.13688 0.45572 0.0924 0.10989 0.20531 0.16484 0.33877 0.16484m2.9069 0.3607h-0.45855v-1.0879c0-0.18229-0.0245-0.31415-0.0736-0.3956-0.049-0.08274-0.13289-0.12411-0.25151-0.12411-0.10381 0.000001-0.18992 0.0446-0.25836 0.13381-0.0684 0.08921-0.10266 0.20298-0.10266 0.3413v1.1325h-0.46367v-2.9399h0.46367v1.2314c0.0627-0.11635 0.14087-0.20362 0.23441-0.2618 0.0947-0.05818 0.20474-0.08726 0.33021-0.08727 0.19277 0.000003 0.33763 0.06788 0.43459 0.20362 0.0969 0.13575 0.14542 0.33937 0.14543 0.61086v1.2431m2.1011 0h-0.45854v-1.0879c0-0.18229-0.0245-0.31415-0.0736-0.3956-0.0491-0.08274-0.13288-0.12411-0.25151-0.12411-0.1038 0.000001-0.18992 0.0446-0.25836 0.13381-0.0684 0.08921-0.10266 0.20298-0.10266 0.3413v1.1325h-0.46367v-1.9858h0.46367v0.27731c0.0627-0.11635 0.14088-0.20362 0.23441-0.2618 0.0947-0.05818 0.20473-0.08726 0.33021-0.08727 0.19277 0.000003 0.33763 0.06788 0.43459 0.20362 0.097 0.13575 0.14543 0.33937 0.14543 0.61086v1.2431m1.5005-2.7809h0.85891c0.41519 0.000002 0.72659 0.11312 0.93419 0.33937 0.20873 0.22625 0.3131 0.56497 0.3131 1.0162 0 0.43568-0.11748 0.78216-0.35246 1.0394-0.23384 0.25727-0.55093 0.38591-0.9513 0.38591h-0.80244v-2.7809m0.47735 2.3523h0.31483c0.25778 0 0.46025-0.08726 0.60739-0.2618 0.14829-0.17453 0.22241-0.41306 0.22243-0.71558-0.00002-0.29347-0.0719-0.52165-0.21558-0.68455-0.14373-0.16289-0.34391-0.24434-0.60055-0.24434h-0.32852v1.9063m2.8539-1.629c0.26691 0.000003 0.47964 0.09309 0.63819 0.27925 0.15855 0.18617 0.23783 0.43633 0.23783 0.75048 0 0.34131-0.085 0.60763-0.25493 0.79897-0.16996 0.19005-0.39809 0.28507-0.68439 0.28507-0.26349 0-0.47793-0.09373-0.64333-0.28119-0.16426-0.18746-0.24638-0.43309-0.24638-0.73691 0-0.3413 0.0861-0.60892 0.25836-0.80284 0.17223-0.19521 0.40379-0.29282 0.69465-0.29282m-0.0394 1.6968c0.13915 0 0.25208-0.05624 0.33877-0.16871 0.0878-0.11377 0.13174-0.26826 0.13174-0.46348 0-0.1978-0.0433-0.35359-0.13004-0.46736-0.0867-0.11506-0.19789-0.17259-0.33363-0.17259-0.1346 0.000001-0.24866 0.06012-0.34219 0.18035-0.0935 0.11894-0.1403 0.27602-0.1403 0.47123 0 0.19263 0.0456 0.34454 0.13687 0.45572 0.0924 0.10989 0.20532 0.16484 0.33878 0.16484m2.806-0.51778h-1.1669c0 0.1629 0.0439 0.28959 0.13175 0.38009 0.089 0.08921 0.21215 0.13381 0.36957 0.13381 0.17337 0.000003 0.34049-0.05882 0.50131-0.17647v0.43051c-0.18022 0.10601-0.38212 0.15902-0.60568 0.15902-0.27034 0-0.48192-0.08985-0.63476-0.26956-0.15171-0.1797-0.22758-0.42534-0.22758-0.73691 0-0.33613 0.081-0.60375 0.24297-0.80284 0.16311-0.20038 0.37756-0.30058 0.64332-0.30058 0.23383 0.000002 0.41633 0.08274 0.54751 0.24822 0.13232 0.16419 0.19848 0.39367 0.19848 0.68843v0.24628m-0.429-0.347c0-0.13833-0.0308-0.24628-0.0924-0.32385-0.0605-0.07757-0.14657-0.11635-0.25836-0.11636-0.10151 0.000004-0.18935 0.04008-0.26348 0.12023-0.0741 0.07886-0.11578 0.18552-0.12491 0.31997h0.73914"/>
  <rect id="rect2377" style="opacity:.39766;fill-rule:evenodd;enable-background:new;fill:#8d8d8d" rx="1" ry="1" height="2" width="15" y="20" x="23"/>
  <rect id="rect2379" style="opacity:.39766;fill-rule:evenodd;enable-background:new;fill:#8d8d8d" rx="1" ry="1" height="2" width="12" y="23" x="23"/>
  <path id="rect2415" style="opacity:.4;fill-rule:evenodd;enable-background:new;fill:url(#linearGradient4010)" d="m7 11h14v15h-14z"/>
  <path id="path6751-4" style="opacity:.2;color:#bebebe" d="m14 14c-1.841 0-3.344 1.42-3.344 3.156 0 1.109 0.612 2.103 1.532 2.688-0.06 0.051-0.119 0.087-0.188 0.156-1.874 0.915-3 2.873-3 5h10c0-2.127-1.126-4.085-3-5-0.069-0.069-0.128-0.105-0.188-0.156 0.92-0.585 1.532-1.579 1.532-2.688 0-1.736-1.503-3.156-3.344-3.156z"/>
  <g id="g4155" transform="matrix(.99186 0 0 .99186 -.29310 -.70312)">
   <path id="path4157" d="m10.254 35.966c0.80041 0.51492-0.78727 0.55967-0.27803 0.40118 0.91838-0.0047-0.41193-0.48334 0.27168-0.49195 0.11013-0.36722-0.82351-0.2579-0.0032-0.34944 0.21591 0.04339 0.25436 0.39987 0.0095 0.4402"/>
   <path id="path4159" d="m10.781 36.365c0.64234-0.06313 0.37272 0.19262-0.11028 0.10791 0.22611-0.36186 0.59237-0.92824-0.02238-0.89378 0.78098-0.30307 0.60478 0.49362 0.13267 0.78588z"/>
   <path id="path4161" d="m11.704 36.053c0.7265-0.5313-0.7037-0.61661 0.000005 0.000003zm-0.22851 0.40054c0.14926-0.05402 0.79241-0.48328 0.09663-0.32136-0.65198-0.85683 1.0124-0.66082 0.35532 0.23376-0.10077 0.14564-0.3046 0.14962-0.45195 0.08759z"/>
   <path id="path4163" d="m12.574 35.642c-0.42328 0.31427-0.10043 0.82164 0 0.25828v-0.25828zm-0.02095-0.1168c0.32508 0.0071 0.01517 0.64922 0.27485 0.72173-0.29802 0.36111-0.09949 0.0089-0.55709 0-0.31899-0.0042 0.26225-0.59733 0.28224-0.72173z"/>
   <path id="path4165" d="m13.76 35.526c0.48258-0.08483 0.74256 0.03604 0.42455 0.50812-0.11438 0.53532-0.42752 0.50876-0.12332-0.01189 0.43719-0.6766-0.21555-0.16644-0.30123-0.49623z"/>
   <path id="path4167" d="m14.947 35.966c0.80041 0.51492-0.78728 0.55967-0.27803 0.40118 0.91838-0.0047-0.41192-0.48334 0.27168-0.49195 0.11013-0.36722-0.82351-0.2579-0.0032-0.34944 0.21591 0.04339 0.25436 0.39987 0.0095 0.4402"/>
   <path id="path4169" d="m15.703 35.642c-0.42328 0.31427-0.10043 0.82164 0 0.25828v-0.25828zm-0.02095-0.1168c0.32508 0.0071 0.01517 0.64922 0.27485 0.72173-0.29802 0.36111-0.09949 0.0089-0.55709 0-0.31899-0.0042 0.26225-0.59733 0.28224-0.72173z"/>
   <path id="path4171" d="m16.647 35.546c-0.14938 0.05449-0.79316 0.48348-0.09681 0.32134 0.65152 0.85589-1.0116 0.66208-0.35579-0.23312 0.10075-0.14608 0.30494-0.15043 0.45259-0.08823m-0.22852 0.40054c-0.72822 0.52788 0.70419 0.62036 0-0.000007z"/>
   <path id="path4173" d="m17.889 35.997c0.22979-0.34752 0.19732 0.33477-0.00001-0.00001m0.08442-0.38721c-0.60913 0.40786 0.3468 1.2687 0.16726 0.2182-0.01034-0.08693-0.05332-0.22258-0.16726-0.2182zm0-0.10156c0.88362 0.24114-0.24829 1.6865-0.30659 0.49194-0.0082-0.19139 0.05115-0.50231 0.30659-0.49194z"/>
   <path id="path4175" d="m18.671 35.997c0.22979-0.34752 0.19732 0.33477-0.00001-0.00001m0.08442-0.38721c-0.60913 0.40786 0.3468 1.2687 0.16726 0.2182-0.01034-0.08693-0.05331-0.22258-0.16726-0.2182zm0-0.10156c0.88362 0.24114-0.24829 1.6865-0.30659 0.49194-0.0082-0.19139 0.05115-0.50231 0.30659-0.49194z"/>
   <path id="path4177" d="m19.525 36.053c0.7265-0.5313-0.7037-0.61661 0.000005 0.000003zm-0.229 0.401c0.14926-0.05402 0.79242-0.48328 0.09665-0.32136-0.65198-0.85683 1.0124-0.66082 0.35532 0.23376-0.10077 0.14564-0.3046 0.14962-0.45195 0.08759z"/>
   <path id="path4179" d="m20.165 36.365c0.64234-0.06313 0.37272 0.19262-0.11028 0.10791 0.22612-0.36186 0.59237-0.92823-0.02238-0.89378 0.78099-0.30307 0.60476 0.49362 0.13266 0.78588z"/>
   <path id="path4181" d="m21.871 36.053c0.7265-0.53129-0.7037-0.61661 0.000005 0.000003zm-0.22851 0.40054c0.14926-0.05402 0.79242-0.48328 0.09664-0.32136-0.65198-0.85683 1.0124-0.66082 0.35532 0.23376-0.10077 0.14564-0.3046 0.14962-0.45195 0.08759z"/>
   <path id="path4183" d="m22.741 35.642c-0.42328 0.31427-0.10043 0.82164 0 0.25828v-0.25828zm-0.02095-0.1168c0.32508 0.0071 0.01517 0.64922 0.27485 0.72173-0.29802 0.36111-0.09949 0.0089-0.55709 0-0.31899-0.0042 0.26225-0.59733 0.28224-0.72173z"/>
   <path id="path4185" d="m23.435 36.053c0.7265-0.5313-0.7037-0.61661 0.000004 0.000003zm-0.22851 0.40054c0.14926-0.05402 0.79242-0.48328 0.09665-0.32136-0.65198-0.85683 1.0124-0.66082 0.35532 0.23376-0.10077 0.14564-0.3046 0.14962-0.45195 0.08759z"/>
   <path id="path4187" d="m24.305 35.642c-0.42328 0.31427-0.10043 0.82164 0 0.25828v-0.25828zm-0.02095-0.1168c0.32508 0.0071 0.01517 0.64922 0.27485 0.72173-0.29802 0.36111-0.09949 0.0089-0.55709 0-0.31899-0.0042 0.26225-0.59733 0.28224-0.72173z"/>
   <path id="path4189" d="m25.639 36.365c0.64234-0.06313 0.37272 0.19262-0.11028 0.10791 0.22611-0.36186 0.59237-0.92824-0.02238-0.89378 0.78099-0.30307 0.60476 0.49362 0.13266 0.78588z"/>
   <path id="path4191" d="m26.273 35.526c0.48258-0.08483 0.74256 0.03604 0.42455 0.50812-0.11438 0.53532-0.42752 0.50876-0.12332-0.01189 0.43719-0.6766-0.21555-0.16644-0.30123-0.49623z"/>
   <path id="path4193" d="m27.203 36.365c0.64234-0.06313 0.37272 0.19262-0.11028 0.10791 0.22611-0.36186 0.59237-0.92824-0.02238-0.89378 0.78098-0.30307 0.60478 0.49362 0.13267 0.78588z"/>
   <path id="path4195" d="m28.378 35.546c-0.14938 0.05449-0.79316 0.48348-0.09681 0.32134 0.65152 0.85589-1.0116 0.66208-0.35579-0.23312 0.10075-0.14608 0.30494-0.15043 0.45259-0.08823m-0.22852 0.40054c-0.72822 0.52788 0.70419 0.62036 0-0.000007z"/>
   <path id="path4197" d="m29.779 35.642c-0.42328 0.31427-0.10043 0.82164 0 0.25828v-0.25828zm-0.02095-0.1168c0.32509 0.0071 0.01517 0.64922 0.27485 0.72173-0.29802 0.36111-0.09949 0.0089-0.55709 0-0.31899-0.0042 0.26225-0.59733 0.28224-0.72173z"/>
   <path id="path4199" d="m30.561 35.642c-0.42328 0.31427-0.10043 0.82164 0 0.25828v-0.25828zm-0.02095-0.1168c0.32508 0.0071 0.01517 0.64922 0.27485 0.72173-0.29802 0.36111-0.09948 0.0089-0.55709 0-0.31899-0.0042 0.26225-0.59733 0.28224-0.72173z"/>
   <path id="path4201" d="m31.343 35.642c-0.42328 0.31427-0.10043 0.82164 0 0.25828v-0.25828zm-0.02095-0.1168c0.32508 0.0071 0.01517 0.64922 0.27485 0.72173-0.29802 0.36111-0.09949 0.0089-0.55709 0-0.31899-0.0042 0.26225-0.59733 0.28224-0.72173z"/>
   <path id="path4203" d="m32.05 36.023c-0.74832 0.5045 0.71901 0.43829-0.000009-0.000005zm-0.11173-0.05333c-0.50755-0.71537 0.76056-0.36134 0.36944 0.08442 0.33377 0.75428-1.114 0.38132-0.36943-0.08443m-0.04634-0.20376c0.38433 0.57669 0.35483-0.55829 0 0.000006z"/>
   <path id="path4205" d="m33.46 36.365c0.64234-0.06313 0.37272 0.19262-0.11028 0.10791 0.22612-0.36186 0.59237-0.92823-0.02238-0.89378 0.78098-0.30307 0.60478 0.49362 0.13267 0.78588z"/>
   <path id="path4207" d="m34.383 36.053c0.7265-0.5313-0.7037-0.61661 0.000005 0.000003zm-0.22851 0.40054c0.14926-0.05402 0.79241-0.48328 0.09663-0.32136-0.65198-0.85683 1.0124-0.66082 0.35532 0.23376-0.10077 0.14564-0.3046 0.14962-0.45195 0.08759z"/>
   <path id="path4209" d="m35.165 36.053c0.7265-0.5313-0.7037-0.61661 0.000005 0.000003zm-0.22851 0.40054c0.14926-0.05402 0.79241-0.48328 0.09663-0.32136-0.65198-0.85683 1.0124-0.66082 0.35532 0.23376-0.10077 0.14564-0.3046 0.14962-0.45195 0.08759z"/>
   <path id="path4211" d="m35.875 35.997c0.22979-0.34752 0.19732 0.33477-0.00001-0.00001m0.08442-0.38721c-0.60913 0.40786 0.3468 1.2687 0.16726 0.2182-0.01034-0.08693-0.05331-0.22258-0.16726-0.2182zm0-0.10156c0.88362 0.24114-0.24829 1.6865-0.30659 0.49194-0.0082-0.19139 0.05115-0.50231 0.30659-0.49194z"/>
   <path id="path4213" d="m37.599 35.642c-0.42328 0.31427-0.10043 0.82164 0 0.25828v-0.25828zm-0.02095-0.1168c0.32508 0.0071 0.01517 0.64922 0.27485 0.72173-0.29802 0.36111-0.09949 0.0089-0.55709 0-0.31899-0.0042 0.26225-0.59733 0.28224-0.72173z"/>
   <path id="path4215" d="m38.381 35.642c-0.42328 0.31427-0.10043 0.82164 0 0.25828v-0.25828zm-0.02095-0.1168c0.32508 0.0071 0.01517 0.64922 0.27485 0.72173-0.29802 0.36111-0.09949 0.0089-0.55709 0-0.31899-0.0042 0.26225-0.59733 0.28224-0.72173z"/>
   <path id="path4217" d="m39.19 35.966c0.80041 0.51492-0.78728 0.55967-0.27803 0.40118 0.91838-0.0047-0.41192-0.48334 0.27168-0.49195 0.11013-0.36722-0.82351-0.2579-0.0032-0.34944 0.21591 0.04339 0.25436 0.39987 0.0095 0.4402"/>
   <path id="path4219" d="m39.716 36.365c0.64234-0.06313 0.37272 0.19262-0.11028 0.10791 0.22612-0.36186 0.59237-0.92823-0.02238-0.89378 0.78099-0.30307 0.60476 0.49362 0.13266 0.78588z"/>
  </g>
  <g id="g4347" transform="translate(0,-1)">
   <rect id="rect4253" style="opacity:.3" height="7" width="1" y="30" x="7"/>
   <rect id="rect4255" style="opacity:.3" height="4" width=".5" y="30" x="9"/>
   <rect id="rect4257" style="opacity:.3" height="4" width=".5" y="30" x="10"/>
   <rect id="rect4259" style="opacity:.3" height="4" width="1" y="30" x="11"/>
   <rect id="rect4261" style="opacity:.3" height="4" width="1.5" y="30" x="12.5"/>
   <rect id="rect4263" style="opacity:.3" height="4" width=".5" y="30" x="15.5"/>
   <rect id="rect4265" style="opacity:.3" height="4" width="1" y="30" x="16.5"/>
   <rect id="rect4267" style="opacity:.3" height="4" width="1.5" y="30" x="18"/>
   <rect id="rect4269" style="opacity:.3" height="4" width=".5" y="30" x="20.5"/>
   <rect id="rect4271" style="opacity:.3" height="4" width=".5" y="30" x="21.5"/>
   <rect id="rect4273" style="opacity:.3" height="4" width=".5" y="30" x="22.5"/>
   <rect id="rect4275" style="opacity:.3" height="4" width="1" y="30" x="24"/>
   <rect id="rect4277" style="opacity:.3" height="4" width=".5" y="30" x="28"/>
   <rect id="rect4279" style="opacity:.3" height="4" width=".5" y="30" x="29"/>
   <rect id="rect4281" style="opacity:.3" height="4" width=".5" y="30" x="30"/>
   <rect id="rect4283" style="opacity:.3" height="4" width="1" y="30" x="26"/>
   <rect id="rect4285" style="opacity:.3" height="7" width="1" y="30" x="41"/>
   <rect id="rect4287" style="opacity:.3" height="4" width="2" y="30" x="32"/>
   <rect id="rect4289" style="opacity:.3" height="4" width=".5" y="30" x="31"/>
   <rect id="rect4291" style="opacity:.3" height="4" width="1" y="30" x="35"/>
   <rect id="rect4293" style="opacity:.3" height="4" width=".5" y="30" x="37"/>
   <rect id="rect4295" style="opacity:.3" height="4" width=".5" y="30" x="38"/>
   <rect id="rect4297" style="opacity:.3" height="4" width="1" y="30" x="39"/>
  </g>
  <g id="g4447" style="opacity:.1;stroke-linejoin:round;stroke:#000;stroke-width:.25205;fill:none" transform="matrix(.99186 0 0 .99186 -.29310 -.70312)">
   <path id="path4449" d="m10.254 35.966c0.80041 0.51492-0.78727 0.55967-0.27803 0.40118 0.91838-0.0047-0.41193-0.48334 0.27168-0.49195 0.11013-0.36722-0.82351-0.2579-0.0032-0.34944 0.21591 0.04339 0.25436 0.39987 0.0095 0.4402" style="stroke-linejoin:round;stroke:#000;stroke-width:.25205;fill:none"/>
   <path id="path4451" d="m10.781 36.365c0.64234-0.06313 0.37272 0.19262-0.11028 0.10791 0.22611-0.36186 0.59237-0.92824-0.02238-0.89378 0.78098-0.30307 0.60478 0.49362 0.13267 0.78588z" style="stroke-linejoin:round;stroke:#000;stroke-width:.25205;fill:none"/>
   <path id="path4453" d="m11.704 36.053c0.7265-0.5313-0.7037-0.61661 0.000005 0.000003zm-0.22851 0.40054c0.14926-0.05402 0.79241-0.48328 0.09663-0.32136-0.65198-0.85683 1.0124-0.66082 0.35532 0.23376-0.10077 0.14564-0.3046 0.14962-0.45195 0.08759z" style="stroke-linejoin:round;stroke:#000;stroke-width:.25205;fill:none"/>
   <path id="path4455" d="m12.574 35.642c-0.42328 0.31427-0.10043 0.82164 0 0.25828v-0.25828zm-0.02095-0.1168c0.32508 0.0071 0.01517 0.64922 0.27485 0.72173-0.29802 0.36111-0.09949 0.0089-0.55709 0-0.31899-0.0042 0.26225-0.59733 0.28224-0.72173z" style="stroke-linejoin:round;stroke:#000;stroke-width:.25205;fill:none"/>
   <path id="path4457" d="m13.76 35.526c0.48258-0.08483 0.74256 0.03604 0.42455 0.50812-0.11438 0.53532-0.42752 0.50876-0.12332-0.01189 0.43719-0.6766-0.21555-0.16644-0.30123-0.49623z" style="stroke-linejoin:round;stroke:#000;stroke-width:.25205;fill:none"/>
   <path id="path4459" d="m14.947 35.966c0.80041 0.51492-0.78728 0.55967-0.27803 0.40118 0.91838-0.0047-0.41192-0.48334 0.27168-0.49195 0.11013-0.36722-0.82351-0.2579-0.0032-0.34944 0.21591 0.04339 0.25436 0.39987 0.0095 0.4402" style="stroke-linejoin:round;stroke:#000;stroke-width:.25205;fill:none"/>
   <path id="path4461" d="m15.703 35.642c-0.42328 0.31427-0.10043 0.82164 0 0.25828v-0.25828zm-0.02095-0.1168c0.32508 0.0071 0.01517 0.64922 0.27485 0.72173-0.29802 0.36111-0.09949 0.0089-0.55709 0-0.31899-0.0042 0.26225-0.59733 0.28224-0.72173z" style="stroke-linejoin:round;stroke:#000;stroke-width:.25205;fill:none"/>
   <path id="path4463" d="m16.647 35.546c-0.14938 0.05449-0.79316 0.48348-0.09681 0.32134 0.65152 0.85589-1.0116 0.66208-0.35579-0.23312 0.10075-0.14608 0.30494-0.15043 0.45259-0.08823m-0.22852 0.40054c-0.72822 0.52788 0.70419 0.62036 0-0.000007z" style="stroke-linejoin:round;stroke:#000;stroke-width:.25205;fill:none"/>
   <path id="path4465" d="m17.889 35.997c0.22979-0.34752 0.19732 0.33477-0.00001-0.00001m0.08442-0.38721c-0.60913 0.40786 0.3468 1.2687 0.16726 0.2182-0.01034-0.08693-0.05332-0.22258-0.16726-0.2182zm0-0.10156c0.88362 0.24114-0.24829 1.6865-0.30659 0.49194-0.0082-0.19139 0.05115-0.50231 0.30659-0.49194z" style="stroke-linejoin:round;stroke:#000;stroke-width:.25205;fill:none"/>
   <path id="path4467" d="m18.671 35.997c0.22979-0.34752 0.19732 0.33477-0.00001-0.00001m0.08442-0.38721c-0.60913 0.40786 0.3468 1.2687 0.16726 0.2182-0.01034-0.08693-0.05331-0.22258-0.16726-0.2182zm0-0.10156c0.88362 0.24114-0.24829 1.6865-0.30659 0.49194-0.0082-0.19139 0.05115-0.50231 0.30659-0.49194z" style="stroke-linejoin:round;stroke:#000;stroke-width:.25205;fill:none"/>
   <path id="path4469" d="m19.525 36.053c0.7265-0.5313-0.7037-0.61661 0.000005 0.000003zm-0.229 0.401c0.14926-0.05402 0.79242-0.48328 0.09665-0.32136-0.65198-0.85683 1.0124-0.66082 0.35532 0.23376-0.10077 0.14564-0.3046 0.14962-0.45195 0.08759z" style="stroke-linejoin:round;stroke:#000;stroke-width:.25205;fill:none"/>
   <path id="path4471" d="m20.165 36.365c0.64234-0.06313 0.37272 0.19262-0.11028 0.10791 0.22612-0.36186 0.59237-0.92823-0.02238-0.89378 0.78099-0.30307 0.60476 0.49362 0.13266 0.78588z" style="stroke-linejoin:round;stroke:#000;stroke-width:.25205;fill:none"/>
   <path id="path4473" d="m21.871 36.053c0.7265-0.53129-0.7037-0.61661 0.000005 0.000003zm-0.22851 0.40054c0.14926-0.05402 0.79242-0.48328 0.09664-0.32136-0.65198-0.85683 1.0124-0.66082 0.35532 0.23376-0.10077 0.14564-0.3046 0.14962-0.45195 0.08759z" style="stroke-linejoin:round;stroke:#000;stroke-width:.25205;fill:none"/>
   <path id="path4475" d="m22.741 35.642c-0.42328 0.31427-0.10043 0.82164 0 0.25828v-0.25828zm-0.02095-0.1168c0.32508 0.0071 0.01517 0.64922 0.27485 0.72173-0.29802 0.36111-0.09949 0.0089-0.55709 0-0.31899-0.0042 0.26225-0.59733 0.28224-0.72173z" style="stroke-linejoin:round;stroke:#000;stroke-width:.25205;fill:none"/>
   <path id="path4477" d="m23.435 36.053c0.7265-0.5313-0.7037-0.61661 0.000004 0.000003zm-0.22851 0.40054c0.14926-0.05402 0.79242-0.48328 0.09665-0.32136-0.65198-0.85683 1.0124-0.66082 0.35532 0.23376-0.10077 0.14564-0.3046 0.14962-0.45195 0.08759z" style="stroke-linejoin:round;stroke:#000;stroke-width:.25205;fill:none"/>
   <path id="path4479" d="m24.305 35.642c-0.42328 0.31427-0.10043 0.82164 0 0.25828v-0.25828zm-0.02095-0.1168c0.32508 0.0071 0.01517 0.64922 0.27485 0.72173-0.29802 0.36111-0.09949 0.0089-0.55709 0-0.31899-0.0042 0.26225-0.59733 0.28224-0.72173z" style="stroke-linejoin:round;stroke:#000;stroke-width:.25205;fill:none"/>
   <path id="path4481" d="m25.639 36.365c0.64234-0.06313 0.37272 0.19262-0.11028 0.10791 0.22611-0.36186 0.59237-0.92824-0.02238-0.89378 0.78099-0.30307 0.60476 0.49362 0.13266 0.78588z" style="stroke-linejoin:round;stroke:#000;stroke-width:.25205;fill:none"/>
   <path id="path4483" d="m26.273 35.526c0.48258-0.08483 0.74256 0.03604 0.42455 0.50812-0.11438 0.53532-0.42752 0.50876-0.12332-0.01189 0.43719-0.6766-0.21555-0.16644-0.30123-0.49623z" style="stroke-linejoin:round;stroke:#000;stroke-width:.25205;fill:none"/>
   <path id="path4485" d="m27.203 36.365c0.64234-0.06313 0.37272 0.19262-0.11028 0.10791 0.22611-0.36186 0.59237-0.92824-0.02238-0.89378 0.78098-0.30307 0.60478 0.49362 0.13267 0.78588z" style="stroke-linejoin:round;stroke:#000;stroke-width:.25205;fill:none"/>
   <path id="path4487" d="m28.378 35.546c-0.14938 0.05449-0.79316 0.48348-0.09681 0.32134 0.65152 0.85589-1.0116 0.66208-0.35579-0.23312 0.10075-0.14608 0.30494-0.15043 0.45259-0.08823m-0.22852 0.40054c-0.72822 0.52788 0.70419 0.62036 0-0.000007z" style="stroke-linejoin:round;stroke:#000;stroke-width:.25205;fill:none"/>
   <path id="path4489" d="m29.779 35.642c-0.42328 0.31427-0.10043 0.82164 0 0.25828v-0.25828zm-0.02095-0.1168c0.32509 0.0071 0.01517 0.64922 0.27485 0.72173-0.29802 0.36111-0.09949 0.0089-0.55709 0-0.31899-0.0042 0.26225-0.59733 0.28224-0.72173z" style="stroke-linejoin:round;stroke:#000;stroke-width:.25205;fill:none"/>
   <path id="path4491" d="m30.561 35.642c-0.42328 0.31427-0.10043 0.82164 0 0.25828v-0.25828zm-0.02095-0.1168c0.32508 0.0071 0.01517 0.64922 0.27485 0.72173-0.29802 0.36111-0.09948 0.0089-0.55709 0-0.31899-0.0042 0.26225-0.59733 0.28224-0.72173z" style="stroke-linejoin:round;stroke:#000;stroke-width:.25205;fill:none"/>
   <path id="path4493" d="m31.343 35.642c-0.42328 0.31427-0.10043 0.82164 0 0.25828v-0.25828zm-0.02095-0.1168c0.32508 0.0071 0.01517 0.64922 0.27485 0.72173-0.29802 0.36111-0.09949 0.0089-0.55709 0-0.31899-0.0042 0.26225-0.59733 0.28224-0.72173z" style="stroke-linejoin:round;stroke:#000;stroke-width:.25205;fill:none"/>
   <path id="path4495" d="m32.05 36.023c-0.74832 0.5045 0.71901 0.43829-0.000009-0.000005zm-0.11173-0.05333c-0.50755-0.71537 0.76056-0.36134 0.36944 0.08442 0.33377 0.75428-1.114 0.38132-0.36943-0.08443m-0.04634-0.20376c0.38433 0.57669 0.35483-0.55829 0 0.000006z" style="stroke-linejoin:round;stroke:#000;stroke-width:.25205;fill:none"/>
   <path id="path4497" d="m33.46 36.365c0.64234-0.06313 0.37272 0.19262-0.11028 0.10791 0.22612-0.36186 0.59237-0.92823-0.02238-0.89378 0.78098-0.30307 0.60478 0.49362 0.13267 0.78588z" style="stroke-linejoin:round;stroke:#000;stroke-width:.25205;fill:none"/>
   <path id="path4499" d="m34.383 36.053c0.7265-0.5313-0.7037-0.61661 0.000005 0.000003zm-0.22851 0.40054c0.14926-0.05402 0.79241-0.48328 0.09663-0.32136-0.65198-0.85683 1.0124-0.66082 0.35532 0.23376-0.10077 0.14564-0.3046 0.14962-0.45195 0.08759z" style="stroke-linejoin:round;stroke:#000;stroke-width:.25205;fill:none"/>
   <path id="path4501" d="m35.165 36.053c0.7265-0.5313-0.7037-0.61661 0.000005 0.000003zm-0.22851 0.40054c0.14926-0.05402 0.79241-0.48328 0.09663-0.32136-0.65198-0.85683 1.0124-0.66082 0.35532 0.23376-0.10077 0.14564-0.3046 0.14962-0.45195 0.08759z" style="stroke-linejoin:round;stroke:#000;stroke-width:.25205;fill:none"/>
   <path id="path4503" d="m35.875 35.997c0.22979-0.34752 0.19732 0.33477-0.00001-0.00001m0.08442-0.38721c-0.60913 0.40786 0.3468 1.2687 0.16726 0.2182-0.01034-0.08693-0.05331-0.22258-0.16726-0.2182zm0-0.10156c0.88362 0.24114-0.24829 1.6865-0.30659 0.49194-0.0082-0.19139 0.05115-0.50231 0.30659-0.49194z" style="stroke-linejoin:round;stroke:#000;stroke-width:.25205;fill:none"/>
   <path id="path4505" d="m37.599 35.642c-0.42328 0.31427-0.10043 0.82164 0 0.25828v-0.25828zm-0.02095-0.1168c0.32508 0.0071 0.01517 0.64922 0.27485 0.72173-0.29802 0.36111-0.09949 0.0089-0.55709 0-0.31899-0.0042 0.26225-0.59733 0.28224-0.72173z" style="stroke-linejoin:round;stroke:#000;stroke-width:.25205;fill:none"/>
   <path id="path4507" d="m38.381 35.642c-0.42328 0.31427-0.10043 0.82164 0 0.25828v-0.25828zm-0.02095-0.1168c0.32508 0.0071 0.01517 0.64922 0.27485 0.72173-0.29802 0.36111-0.09949 0.0089-0.55709 0-0.31899-0.0042 0.26225-0.59733 0.28224-0.72173z" style="stroke-linejoin:round;stroke:#000;stroke-width:.25205;fill:none"/>
   <path id="path4509" d="m39.19 35.966c0.80041 0.51492-0.78728 0.55967-0.27803 0.40118 0.91838-0.0047-0.41192-0.48334 0.27168-0.49195 0.11013-0.36722-0.82351-0.2579-0.0032-0.34944 0.21591 0.04339 0.25436 0.39987 0.0095 0.4402" style="stroke-linejoin:round;stroke:#000;stroke-width:.25205;fill:none"/>
   <path id="path4511" d="m39.716 36.365c0.64234-0.06313 0.37272 0.19262-0.11028 0.10791 0.22612-0.36186 0.59237-0.92823-0.02238-0.89378 0.78099-0.30307 0.60476 0.49362 0.13266 0.78588z" style="stroke-linejoin:round;stroke:#000;stroke-width:.25205;fill:none"/>
  </g>
  <path id="path4603" style="opacity:.1;stroke-width:2;stroke:#000;enable-background:new;fill:none" clip-path="url(#clipPath4607)" d="m7 11h14v15h-14z"/>
 </g>
 <g id="layer2">
  <g id="g11016" style="enable-background:new" transform="matrix(1.3032 0 0 1.3032 -14.015 -2.7206)">
   <path id="path11018" style="fill:url(#radialGradient5130);fill-rule:evenodd" d="m47.001 9.3411c0 4.607-3.7347 8.3417-8.3417 8.3417s-8.3417-3.7347-8.3417-8.3417 3.7347-8.3417 8.3417-8.3417 8.3417 3.7347 8.3417 8.3417z" transform="matrix(1.1498 0 0 1.1498 -6.0739 .55468)"/>
   <path id="path11020" style="color:#000000;fill-rule:evenodd;fill:#fff" d="m44.52 15.503c-0.50717 0.87845-4.5947-0.16082-5.5214 0.25175-0.92665 0.41257-2.8894 4.1456-3.8816 3.9347-0.99218-0.21089-1.2669-4.4195-1.9456-5.1733-0.67873-0.7538-4.8356-1.4669-4.9416-2.4757-0.10603-1.0088 3.8117-2.5706 4.3189-3.449 0.50717-0.87845-0.09914-5.0522 0.82751-5.4648 0.92665-0.41257 3.6227 2.8308 4.6148 3.0417 0.99218 0.21089 4.7743-1.6555 5.453-0.90171 0.67873 0.7538-1.5728 4.3201-1.4668 5.3289 0.10603 1.0088 3.0498 4.0291 2.5427 4.9075z" transform="matrix(.67412 .29958 -.29958 .67412 16.986 -7.1287)"/>
  </g>
 </g>
</svg>
