<?xml version="1.0" encoding="UTF-8" standalone="no"?>
<!-- Created with Inkscape (http://www.inkscape.org/) -->
<svg id="svg3759" xmlns:rdf="http://www.w3.org/1999/02/22-rdf-syntax-ns#" xmlns="http://www.w3.org/2000/svg" height="48" width="48" version="1.1" xmlns:cc="http://creativecommons.org/ns#" xmlns:xlink="http://www.w3.org/1999/xlink" xmlns:dc="http://purl.org/dc/elements/1.1/">
 <metadata id="metadata37">
  <rdf:RDF>
   <cc:Work rdf:about="">
    <dc:format>image/svg+xml</dc:format>
    <dc:type rdf:resource="http://purl.org/dc/dcmitype/StillImage"/>
    <dc:title/>
   </cc:Work>
  </rdf:RDF>
 </metadata>
 <defs id="defs3761">
  <linearGradient id="linearGradient3997" y2="42" xlink:href="#linearGradient3960-7" gradientUnits="userSpaceOnUse" x2="25" y1="45" x1="25"/>
  <linearGradient id="linearGradient3960-7">
   <stop id="stop3962-5" style="stop-opacity:0" offset="0"/>
   <stop id="stop3970-2" offset=".5"/>
   <stop id="stop3964-3" style="stop-opacity:0" offset="1"/>
  </linearGradient>
  <radialGradient id="radialGradient3999" xlink:href="#linearGradient3952-6" gradientUnits="userSpaceOnUse" cy="43.5" cx="40" gradientTransform="matrix(1 0 0 .75 0 10.875)" r="2"/>
  <linearGradient id="linearGradient3952-6">
   <stop id="stop3954-4" offset="0"/>
   <stop id="stop3956-4" style="stop-opacity:0" offset="1"/>
  </linearGradient>
  <radialGradient id="radialGradient3950" xlink:href="#linearGradient3952-6" gradientUnits="userSpaceOnUse" cy="43.5" cx="9" gradientTransform="matrix(1 0 0 .75 0 10.875)" r="2"/>
  <linearGradient id="linearGradient3158-9" y2="40" gradientUnits="userSpaceOnUse" x2="144" gradientTransform="matrix(.175 0 0 .175 -1.2 -6)" y1="280" x1="144">
   <stop id="stop3990-5-4" style="stop-color:#ededed" offset="0"/>
   <stop id="stop3992-0-9" style="stop-color:#fafafa" offset="1"/>
  </linearGradient>
  <radialGradient id="radialGradient3674-4" xlink:href="#linearGradient3952-6" gradientUnits="userSpaceOnUse" cy="43.5" cx="40" gradientTransform="matrix(1.0571 0 0 1.25 4.6 -30.875)" r="2"/>
  <radialGradient id="radialGradient3659-5" xlink:href="#linearGradient3952-6" gradientUnits="userSpaceOnUse" cy="43.5" cx="40" gradientTransform="matrix(1 0 0 .75 6 -9.125)" r="2"/>
  <radialGradient id="radialGradient3993" xlink:href="#linearGradient3952-6" gradientUnits="userSpaceOnUse" cy="20" cx="11" gradientTransform="matrix(1 0 0 .22222 0 15.556)" r="9"/>
  <linearGradient id="linearGradient4320" y2="22" gradientUnits="userSpaceOnUse" x2="11" gradientTransform="matrix(1,0,0,-1,27,31)" x1="11">
   <stop id="stop3888-3" style="stop-color:#2ca42a" offset="0"/>
   <stop id="stop3890-1" style="stop-color:#57d932" offset="1"/>
  </linearGradient>
  <linearGradient id="linearGradient3975" y2="11" gradientUnits="userSpaceOnUse" x2="21" gradientTransform="matrix(0,-1,1,0,27,31)" y1="11" x1="1">
   <stop id="stop3906-5" style="stop-color:#1c521e" offset="0"/>
   <stop id="stop3908-7" style="stop-color:#2f821a" offset="1"/>
  </linearGradient>
 </defs>
 <g id="layer1">
  <g id="g3983" style="opacity:.2" transform="matrix(1.0571 0 0 1.6667 -1.4 -29)">
   <rect id="rect3985" style="opacity:.6;fill:url(#linearGradient3997)" height="3" width="31" y="42" x="9"/>
   <path id="path3987" style="opacity:.6;fill:url(#radialGradient3999)" d="m40 42v3h0.5c0.831 0 1.5-0.669 1.5-1.5s-0.669-1.5-1.5-1.5h-0.5z"/>
   <path id="path3989" style="opacity:.6;fill:url(#radialGradient3950)" d="m8.4062 42c-0.779 0-1.4062 0.627-1.4062 1.406v0.1875c0 0.779 0.6272 1.406 1.4062 1.406h0.5938v-3h-0.5938z"/>
  </g>
  <g id="g3978" style="opacity:.2" transform="translate(-3e-7,-1.2e-6)">
   <rect id="rect3938" style="opacity:.6;fill:url(#linearGradient3997)" height="3" width="31" y="42" x="9"/>
   <path id="rect3940" d="m40 42v3h0.5c0.831 0 1.5-0.669 1.5-1.5s-0.669-1.5-1.5-1.5h-0.5z" style="opacity:.6;fill:url(#radialGradient3999)"/>
   <path id="rect3942" d="m8.4062 42c-0.779 0-1.4062 0.627-1.4062 1.406v0.1875c0 0.779 0.6272 1.406 1.4062 1.406h0.5938v-3h-0.5938z" style="opacity:.6;fill:url(#radialGradient3950)"/>
  </g>
  <g id="g4204" transform="matrix(0 1 -1 0 48 -1)">
   <g id="g4020" transform="translate(2,-1)">
    <rect id="rect3886" style="opacity:.35;color:#bebebe" transform="matrix(0,1,1,0,0,0)" ry="1" height="41" width="33" y="2" x="8"/>
    <rect id="rect3882" ry="0" style="color:#bebebe;fill:url(#linearGradient3158-9)" transform="matrix(0,1,1,0,0,0)" height="39" width="31" y="3" x="9"/>
    <path id="path3893" style="opacity:.4;fill:#fff" d="m3 9v31h39v-31zm1 1h37v29h-37z"/>
    <rect id="rect4018" style="opacity:.4;fill:#fff" height="1" width="39" y="9" x="3"/>
   </g>
  </g>
 </g>
 <g id="layer2">
  <g id="g3181" transform="translate(0,17)">
   <path id="path3617-2" d="m46.886 21v5h0.52857c0.87849 0 1.5857-1.115 1.5857-2.5s-0.70723-2.5-1.5857-2.5h-0.52857z" style="opacity:0.12;fill:url(#radialGradient3674-4)"/>
   <path id="path3625-0" style="opacity:0.12;fill:url(#radialGradient3659-5)" d="m46 22v3h0.5c0.831 0 1.5-0.669 1.5-1.5s-0.669-1.5-1.5-1.5h-0.5z"/>
   <g id="g4507" transform="translate(27,-17)">
    <path id="path3163" style="opacity:.4;fill:url(#radialGradient3993)" d="m20 20c0 1.1046-4.0294 2-9 2s-9-0.89543-9-2 4.0294-2 9-2 9 0.89543 9 2z" transform="matrix(1,0,0,1.5,0,15)"/>
    <path id="path3995" style="opacity:.8;fill:url(#radialGradient3993)" d="m20 20c0 1.1046-4.0294 2-9 2s-9-0.89543-9-2 4.0294-2 9-2 9 0.89543 9 2z" transform="matrix(.66667 0 0 1 3.6667 26)"/>
   </g>
   <path id="path4791" d="m38 29.5c-5.2408 0-9.5-4.2592-9.5-9.5s4.2592-9.5 9.5-9.5 9.5 4.2592 9.5 9.5-4.2592 9.5-9.5 9.5z" style="fill:url(#linearGradient4320);fill-rule:evenodd"/>
   <path id="path3804" style="opacity:0.81;stroke:url(#linearGradient3975);fill:none" d="m28.5 20c0 5.2408 4.2592 9.5 9.5 9.5s9.5-4.2592 9.5-9.5-4.2592-9.5-9.5-9.5-9.5 4.2592-9.5 9.5z"/>
   <path id="path3806" style="opacity:.2;fill:#fff;fill-rule:evenodd" d="m38 11c-4.9699 0-9 4.0301-9 9 0 0.17154 0.02178 0.33083 0.03125 0.5 0.265-4.732 4.171-8.5 8.969-8.5 4.7983 0 8.7037 3.7678 8.9688 8.5 0.009-0.16917 0.0312-0.32846 0.0312-0.5 0-4.9699-4.0301-9-9-9z"/>
   <path id="path3820" style="opacity:.2;fill-rule:evenodd" d="m38 30c-4.9699 0-9-4.0301-9-9 0-0.17154 0.02177-0.33083 0.03125-0.5 0.265 4.732 4.171 8.5 8.969 8.5 4.7983 0 8.7037-3.7678 8.9688-8.5 0.01 0.16917 0.0312 0.32846 0.0312 0.5 0 4.9699-4.0301 9-9 9z"/>
   <rect id="rect3854" style="opacity:.3" height="2" width="10" y="18" x="33"/>
   <rect id="rect3084" style="fill:#fff" height="2" width="10" y="19" x="33"/>
   <rect id="rect3015" style="opacity:.3" transform="rotate(90)" height="2" width="10" y="-39" x="14"/>
   <rect id="rect3017" style="fill:#fff" transform="rotate(90)" height="2" width="10" y="-39" x="15"/>
  </g>
 </g>
 <path id="path3204" d="m33 27v6h-6v6h6v6h6v-6h6v-6h-6v-6h-6z" style="fill:none"/>
</svg>
