<?xml version="1.0" encoding="UTF-8" standalone="no"?>
<!-- Created with Inkscape (http://www.inkscape.org/) -->
<svg id="svg3759" xmlns:rdf="http://www.w3.org/1999/02/22-rdf-syntax-ns#" xmlns="http://www.w3.org/2000/svg" height="48" width="48" version="1.1" xmlns:cc="http://creativecommons.org/ns#" xmlns:xlink="http://www.w3.org/1999/xlink" xmlns:dc="http://purl.org/dc/elements/1.1/">
 <metadata id="metadata37">
  <rdf:RDF>
   <cc:Work rdf:about="">
    <dc:format>image/svg+xml</dc:format>
    <dc:type rdf:resource="http://purl.org/dc/dcmitype/StillImage"/>
    <dc:title/>
   </cc:Work>
  </rdf:RDF>
 </metadata>
 <defs id="defs3761">
  <linearGradient id="linearGradient3960">
   <stop id="stop3962" style="stop-opacity:0" offset="0"/>
   <stop id="stop3970" offset=".5"/>
   <stop id="stop3964" style="stop-opacity:0" offset="1"/>
  </linearGradient>
  <linearGradient id="linearGradient3952">
   <stop id="stop3954" offset="0"/>
   <stop id="stop3956" style="stop-opacity:0" offset="1"/>
  </linearGradient>
  <linearGradient id="linearGradient3158" y2="40" gradientUnits="userSpaceOnUse" x2="144" gradientTransform="matrix(.175 0 0 .175 -1.2 -6)" y1="280" x1="144">
   <stop id="stop3990-5" style="stop-color:#ededed" offset="0"/>
   <stop id="stop3992-0" style="stop-color:#fafafa" offset="1"/>
  </linearGradient>
  <radialGradient id="radialGradient3950" xlink:href="#linearGradient3952" gradientUnits="userSpaceOnUse" cy="43.5" cx="9" gradientTransform="matrix(1 0 0 .75 0 10.875)" r="2"/>
  <radialGradient id="radialGradient3958" xlink:href="#linearGradient3952" gradientUnits="userSpaceOnUse" cy="43.5" cx="40" gradientTransform="matrix(1 0 0 .75 0 10.875)" r="2"/>
  <linearGradient id="linearGradient3968" y2="42" xlink:href="#linearGradient3960" gradientUnits="userSpaceOnUse" x2="25" y1="45" x1="25"/>
 </defs>
 <g id="layer1">
  <g id="g3983" style="opacity:.2" transform="matrix(1.0571 0 0 1.6667 -1.4 -29)">
   <rect id="rect3985" style="opacity:.6;fill:url(#linearGradient3968)" height="3" width="31" y="42" x="9"/>
   <path id="path3987" style="opacity:.6;fill:url(#radialGradient3958)" d="m40 42v3h0.5c0.831 0 1.5-0.669 1.5-1.5s-0.669-1.5-1.5-1.5h-0.5z"/>
   <path id="path3989" style="opacity:.6;fill:url(#radialGradient3950)" d="m8.4062 42c-0.779 0-1.4062 0.627-1.4062 1.406v0.1875c0 0.779 0.6272 1.406 1.4062 1.406h0.5938v-3h-0.5938z"/>
  </g>
  <g id="g3978" style="opacity:.2">
   <rect id="rect3938" style="opacity:.6;fill:url(#linearGradient3968)" height="3" width="31" y="42" x="9"/>
   <path id="rect3940" style="opacity:.6;fill:url(#radialGradient3958)" d="m40 42v3h0.5c0.831 0 1.5-0.669 1.5-1.5s-0.669-1.5-1.5-1.5h-0.5z"/>
   <path id="rect3942" style="opacity:.6;fill:url(#radialGradient3950)" d="m8.4062 42c-0.779 0-1.4062 0.627-1.4062 1.406v0.188c0 0.779 0.6272 1.406 1.4062 1.406h0.5938v-3h-0.5938z"/>
  </g>
  <g id="g4204" transform="matrix(0,1,-1,0,48,-1)">
   <g id="g4020" transform="translate(2,-1)">
    <rect id="rect3886" style="opacity:.35;color:#bebebe" transform="matrix(0,1,1,0,0,0)" ry="1" height="41" width="33" y="2" x="8"/>
    <rect id="rect3882" ry="0" style="color:#bebebe;fill:url(#linearGradient3158)" transform="matrix(0,1,1,0,0,0)" height="39" width="31" y="3" x="9"/>
    <path id="path3893" style="opacity:.4;fill:#fff" d="m3 9v31h39v-31zm1 1h37v29h-37z"/>
    <rect id="rect4018" style="opacity:.4;fill:#fff" height="1" width="39" y="9" x="3"/>
   </g>
  </g>
 </g>
 <g id="layer2">
  <path id="path3912" d="m22 34v-10h-3.5625c2.6723-3.8548 5.6749-8.4654 6.0625-9.0625l6.0625 9.0625h-3.5625v10z" style="opacity:.4;block-progression:tb;text-indent:0;color:#000000;text-transform:none;fill:#fff"/>
  <path id="path1299" style="block-progression:tb;text-indent:0;color:#000000;text-transform:none;fill:#bbb" d="m22 33v-10h-3.5625c2.6723-3.8548 5.6749-8.4654 6.0625-9.0625l6.0625 9.0625h-3.5625v10z"/>
  <path id="path3139" style="opacity:.2;block-progression:tb;text-indent:0;color:#000000;text-transform:none" d="m24.5 13.938c-0.388 0.597-3.39 5.207-6.062 9.062h0.687c2.471-3.605 5.021-7.518 5.375-8.062l5.406 8.062h0.656l-6.062-9.062z"/>
 </g>
</svg>
