<?xml version="1.0" encoding="UTF-8" standalone="no"?>
<!-- Created with Inkscape (http://www.inkscape.org/) -->
<svg id="svg3759" xmlns:rdf="http://www.w3.org/1999/02/22-rdf-syntax-ns#" xmlns="http://www.w3.org/2000/svg" height="48" width="48" version="1.1" xmlns:cc="http://creativecommons.org/ns#" xmlns:xlink="http://www.w3.org/1999/xlink" xmlns:dc="http://purl.org/dc/elements/1.1/">
 <metadata id="metadata37">
  <rdf:RDF>
   <cc:Work rdf:about="">
    <dc:format>image/svg+xml</dc:format>
    <dc:type rdf:resource="http://purl.org/dc/dcmitype/StillImage"/>
    <dc:title/>
   </cc:Work>
  </rdf:RDF>
 </metadata>
 <defs id="defs3761">
  <linearGradient id="linearGradient3960">
   <stop id="stop3962" style="stop-opacity:0" offset="0"/>
   <stop id="stop3970" offset=".5"/>
   <stop id="stop3964" style="stop-opacity:0" offset="1"/>
  </linearGradient>
  <linearGradient id="linearGradient3952">
   <stop id="stop3954" offset="0"/>
   <stop id="stop3956" style="stop-opacity:0" offset="1"/>
  </linearGradient>
  <linearGradient id="linearGradient3158" y2="40" gradientUnits="userSpaceOnUse" x2="144" gradientTransform="matrix(.175 0 0 .175 -1.2 -6)" y1="280" x1="144">
   <stop id="stop3990-5" style="stop-color:#ededed" offset="0"/>
   <stop id="stop3992-0" style="stop-color:#fafafa" offset="1"/>
  </linearGradient>
  <radialGradient id="radialGradient3950" xlink:href="#linearGradient3952" gradientUnits="userSpaceOnUse" cy="43.5" cx="9" gradientTransform="matrix(1 0 0 .75 0 10.875)" r="2"/>
  <radialGradient id="radialGradient3958" xlink:href="#linearGradient3952" gradientUnits="userSpaceOnUse" cy="43.5" cx="40" gradientTransform="matrix(1 0 0 .75 0 10.875)" r="2"/>
  <linearGradient id="linearGradient3968" y2="42" xlink:href="#linearGradient3960" gradientUnits="userSpaceOnUse" x2="25" y1="45" x1="25"/>
  <linearGradient id="linearGradient3915" y2="35" gradientUnits="userSpaceOnUse" x2="32" y1="45" x1="32">
   <stop id="stop3922" style="stop-color:#f8f8f8" offset="0"/>
   <stop id="stop3924" style="stop-color:#e6e6e6" offset="1"/>
  </linearGradient>
 </defs>
 <g id="layer1">
  <g id="g3983" style="opacity:.2" transform="matrix(1.0571 0 0 1.6667 -1.4 -29)">
   <rect id="rect3985" style="opacity:.6;fill:url(#linearGradient3968)" height="3" width="31" y="42" x="9"/>
   <path id="path3987" style="opacity:.6;fill:url(#radialGradient3958)" d="m40 42v3h0.5c0.831 0 1.5-0.669 1.5-1.5s-0.669-1.5-1.5-1.5h-0.5z"/>
   <path id="path3989" style="opacity:.6;fill:url(#radialGradient3950)" d="m8.4062 42c-0.779 0-1.4062 0.627-1.4062 1.406v0.1875c0 0.779 0.6272 1.406 1.4062 1.406h0.5938v-3h-0.5938z"/>
  </g>
  <g id="g3978" style="opacity:.2">
   <rect id="rect3938" style="opacity:.6;fill:url(#linearGradient3968)" height="3" width="31" y="42" x="9"/>
   <path id="rect3940" style="opacity:.6;fill:url(#radialGradient3958)" d="m40 42v3h0.5c0.831 0 1.5-0.669 1.5-1.5s-0.669-1.5-1.5-1.5h-0.5z"/>
   <path id="rect3942" style="opacity:.6;fill:url(#radialGradient3950)" d="m8.4062 42c-0.779 0-1.4062 0.627-1.4062 1.406v0.188c0 0.779 0.6272 1.406 1.4062 1.406h0.5938v-3h-0.5938z"/>
  </g>
  <g id="g4204" transform="matrix(0,1,-1,0,48,-1)">
   <g id="g4020" transform="translate(2,-1)">
    <rect id="rect3886" style="opacity:.35;color:#bebebe" transform="matrix(0,1,1,0,0,0)" ry="1" height="41" width="33" y="2" x="8"/>
    <rect id="rect3882" ry="0" style="color:#bebebe;fill:url(#linearGradient3158)" transform="matrix(0,1,1,0,0,0)" height="39" width="31" y="3" x="9"/>
    <path id="path3893" style="opacity:.4;fill:#fff" d="m3 9v31h39v-31zm1 1h37v29h-37z"/>
    <rect id="rect4018" style="opacity:.4;fill:#fff" height="1" width="39" y="9" x="3"/>
   </g>
  </g>
 </g>
 <g id="layer2">
  <g id="g4009" style="opacity:.2" transform="matrix(.91429 0 0 1 9.6 1)">
   <rect id="rect4011" style="opacity:.6;fill:url(#linearGradient3968)" height="3" width="31" y="42" x="9"/>
   <path id="path4013" style="opacity:.6;fill:url(#radialGradient3958)" d="m40 42v3h0.5c0.831 0 1.5-0.669 1.5-1.5s-0.669-1.5-1.5-1.5h-0.5z"/>
   <path id="path4015" style="opacity:.6;fill:url(#radialGradient3950)" d="m8.4062 42c-0.779 0-1.4062 0.627-1.4062 1.406v0.1875c0 0.779 0.6272 1.406 1.4062 1.406h0.5938v-3h-0.5938z"/>
  </g>
  <path id="path5251" d="m22 15.999v10h-3.5625c2.6723 3.8548 5.6749 8.4654 6.0625 9.0625l6.0625-9.0625h-3.5625v-10z" style="opacity:.4;block-progression:tb;text-indent:0;color:#000000;text-transform:none;fill:#fff"/>
  <path id="path1299" style="block-progression:tb;text-indent:0;color:#000000;text-transform:none;fill:#bbb" d="m22 15v10h-3.5625c2.6723 3.8548 5.6749 8.4654 6.0625 9.0625l6.062-9.062h-3.562v-10z"/>
  <path id="path3934" style="opacity:.2;block-progression:tb;text-indent:0;color:#000000;text-transform:none" d="m22 15v1h5v-1zm-3.562 10c0.23384 0.33731 0.45058 0.65431 0.6875 1h2.874v-1zm8.562 0v1h2.9062l0.65625-1z"/>
  <path id="rect3139" style="fill:url(#linearGradient3915);fill-rule:evenodd" d="m20 35.5c-1.376 0-2.5 1.124-2.5 2.5v4c0 1.376 1.124 2.5 2.5 2.5h24c1.376 0 2.5-1.124 2.5-2.5v-4c0-1.376-1.124-2.5-2.5-2.5h-24z"/>
  <path id="path3933" style="opacity:.31;stroke:#000;fill:none" d="m20 35.5c-1.376 0-2.5 1.124-2.5 2.5v4c0 1.376 1.124 2.5 2.5 2.5h24c1.376 0 2.5-1.124 2.5-2.5v-4c0-1.376-1.124-2.5-2.5-2.5h-24z"/>
  <path id="path3935" style="opacity:.05;fill-rule:evenodd" d="m20 36c-1.104 0-2 0.896-2 2v1c0-1.104 0.896-2 2-2h24c1.104 0 2 0.896 2 2v-1c0-1.104-0.896-2-2-2h-24z"/>
  <path id="path3949" style="opacity:.4;fill:#fff;fill-rule:evenodd" d="m20.125 44c-1.1042 0-2-0.89578-2-2v-1c0 1.1042 0.89578 2 2 2h24c1.1042 0 2-0.89578 2-2v1c0 1.1042-0.89578 2-2 2h-24z"/>
  <rect id="rect3951" style="opacity:.1" ry="0" height="6" width="20" y="37" x="19"/>
  <rect id="rect3956" style="opacity:.2" height=".5" width="3" y="37.5" x="20"/>
  <rect id="rect3958" style="opacity:.2" height=".5" width="3" y="42" x="20"/>
  <rect id="rect3960" style="opacity:.2" height="4" width="1" y="38" x="21"/>
 </g>
</svg>
