<?xml version="1.0" encoding="UTF-8" standalone="no"?>
<!-- Created with Inkscape (http://www.inkscape.org/) -->
<svg id="svg3759" xmlns:rdf="http://www.w3.org/1999/02/22-rdf-syntax-ns#" xmlns="http://www.w3.org/2000/svg" height="48" width="48" version="1.1" xmlns:cc="http://creativecommons.org/ns#" xmlns:xlink="http://www.w3.org/1999/xlink" xmlns:dc="http://purl.org/dc/elements/1.1/">
 <metadata id="metadata37">
  <rdf:RDF>
   <cc:Work rdf:about="">
    <dc:format>image/svg+xml</dc:format>
    <dc:type rdf:resource="http://purl.org/dc/dcmitype/StillImage"/>
    <dc:title/>
   </cc:Work>
  </rdf:RDF>
 </metadata>
 <defs id="defs3761">
  <clipPath id="clipPath4812" clipPathUnits="userSpaceOnUse">
   <path id="path4814" style="color:#bebebe;fill:#bf5454" d="m547.65-156c-22.103 0-39.844 17.741-39.844 39.844v112.5c0 22.103 17.741 39.844 39.844 39.844h112.5c22.103 0 39.844-17.741 39.844-39.844v-112.5c0-22.103-17.741-39.844-39.844-39.844h-112.5z"/>
  </clipPath>
  <linearGradient id="linearGradient3161" y2="244" gradientUnits="userSpaceOnUse" x2="332" gradientTransform="matrix(0,-1,1,0,-220,336)" y1="244" x1="292">
   <stop id="stop4217" style="stop-color:#dcdcdc" offset="0"/>
   <stop id="stop4219" style="stop-color:#f0f0f0" offset="1"/>
  </linearGradient>
  <clipPath id="clipPath3182" clipPathUnits="userSpaceOnUse">
   <path id="path3184" d="m4.5 24.001c0-10.77 8.7311-19.501 19.5-19.501 10.77 0 19.5 8.7309 19.5 19.501 0 10.769-8.731 19.499-19.5 19.499s-19.5-8.73-19.5-19.499z" style="fill:url(#linearGradient3186)"/>
  </clipPath>
  <linearGradient id="linearGradient3186" y2="24" gradientUnits="userSpaceOnUse" x2="43.5" gradientTransform="matrix(0 1 -1 0 48 -.000003)" y1="24" x1="4.5">
   <stop id="stop3812" style="stop-color:#4cc7e0" offset="0"/>
   <stop id="stop3814" style="stop-color:#2061be" offset="1"/>
  </linearGradient>
 </defs>
 <g id="layer1">
  <path id="path4024" d="m24 5c-11.04 0-20 8.961-20 20 0 11.04 8.96 20 20 20s20-8.96 20-20c0-11.039-8.96-20-20-20z" style="opacity:.1;block-progression:tb;text-indent:0;color:#000000;stroke:#000;text-transform:none"/>
  <path id="path4018" style="opacity:.2;block-progression:tb;text-indent:0;color:#000000;text-transform:none" d="m24 5c-11.04 0-20 8.961-20 20 0 11.04 8.96 20 20 20s20-8.96 20-20c0-11.039-8.96-20-20-20z"/>
  <path id="path3372" d="m24 5.5c-10.764 0-19.5 8.737-19.5 19.5 0 10.764 8.736 19.5 19.5 19.5s19.5-8.736 19.5-19.5c0-10.763-8.736-19.5-19.5-19.5z" style="opacity:.2;block-progression:tb;text-indent:0;color:#000000;text-transform:none"/>
  <g id="g3163" clip-path="url(#clipPath3182)">
   <path id="path4208" d="m12 3.5c-4.7153 0-8.5 3.7847-8.5 8.5v24c0 4.7153 3.7847 8.5 8.5 8.5h24c4.7153 0 8.5-3.7847 8.5-8.5v-24c0-4.7153-3.785-8.5-8.5-8.5h-24z" style="color:#bebebe;fill:url(#linearGradient3161)"/>
   <g id="g4746" style="enable-background:new" transform="matrix(.21333 0 0 .21333 -104.83 36.78)" clip-path="url(#clipPath4812)">
    <path id="path4748" style="fill-opacity:.042553" d="m603.9-209.91c-23.278 0-45.392 5.326-65.062 14.812l56.25 119.25-98.25-89.25c-26.603 27.076-42.937 64.283-42.937 105.19 0 10.815 1.1942 21.33 3.375 31.5l148.12-38.25-2.4375-2.0625 95.625-107.44c-25.83-21.059-58.808-33.75-94.687-33.75zm144.56 109.87-147.37 35.25 0.56274 0.37504-128.06 78.75c25.847 45.24 74.54 75.75 130.31 75.75 4.227 0 8.4234-0.2186 12.562-0.56252-5.3916-61.771-13.315-150.93-13.5-153l119.06 95.812c19.928-25.465 31.875-57.452 31.875-92.25 0-13.884-1.8975-27.359-5.4375-40.125z" clip-path="none"/>
    <path id="path4750" style="fill-opacity:.047872" d="m603.9-209.91c-18.043 0-35.344 3.3327-51.375 9.1875l42.562 124.87-109.31-76.5c-19.982 25.483-31.875 57.588-31.875 92.437 0 7.1782 0.52244 14.277 1.5 21.187l150-27.937-2.4375-2.0625 83.437-116.25c-23.691-15.667-52.007-24.937-82.5-24.937zm147.19 121.31-150 23.812 0.56274 0.37504-117.94 94.125c27.369 36.583 71.046 60.375 120.19 60.375 1.1979 0 2.3713 0.02836 3.5625 0-1.7868-62.288-4.316-151.5-4.5-153.56l124.5 88.312c16.601-24.138 26.437-53.278 26.437-84.75 0-9.8201-1.0058-19.391-2.8125-28.687z" clip-path="none"/>
    <path id="path4752" style="fill-opacity:.058511" d="m603.9-209.91c-13.615 0-26.831 1.8415-39.375 5.25l37.875 137.62 70.687-125.81c-20.718-10.814-44.225-17.062-69.187-17.062zm-127.69 71.25c-14.144 22.883-22.312 49.906-22.312 78.75 0 3.4694 0.14255 6.9014 0.37466 10.312l148.87-16.5-126.94-72.562zm276.75 61.687-149.62 9 129.19 85.312c13.576-22.555 21.375-49.038 21.375-77.25 0-5.7537-0.30526-11.476-0.93748-17.062zm-148.87 10.122-106.13 113.25c26.144 26.052 61.947 42.326 101.44 43.5l4.6875-156.75z" clip-path="none"/>
    <path id="path4754" style="fill-opacity:.063830" d="m603.9-209.91c-8.2205 0-16.324 0.59908-24.187 1.875l22.687 141 55.875-132.56c-16.873-6.5823-35.188-10.312-54.375-10.312zm-134.62 83.812c-9.4947 19.268-15.008 40.928-15.375 63.75l149.25-3.75-133.87-60zm134.06 58.125 134.25 76.125c10.426-20.425 16.312-43.583 16.312-68.062 0-2.082-0.103-4.1259-0.18734-6.1875l-150.37-1.875zm0.75 1.125-86.812 129.19c21.101 14.996 46.104 24.792 73.312 27.187l13.5-156.37z" clip-path="none"/>
    <path id="path4756" style="fill-opacity:.10106" d="m603.9-209.91c-3.7832 0-7.5366 0.099-11.25 0.37496l9.75 142.5 37.875-138.37c-11.647-2.9069-23.835-4.5-36.375-4.5zm-140.44 97.5c-4.4258 11.822-7.5046 24.298-8.8125 37.312l148.5 9-139.69-46.312zm139.87 44.437 138.94 66c6.6417-15.811 10.612-32.994 11.438-51l-150.37-15.003zm0.75 1.125-65.437 141.94c12.951 6.2734 26.933 10.798 41.625 13.125l23.812-155.06z" clip-path="none"/>
    <path id="path4758" style="fill-opacity:.085106" d="m604.84-209.91-2.4375 142.87 22.688-141.37c-6.6074-0.93484-13.397-1.4576-20.25-1.5zm-144.94 108c-1.6918 5.8041-3.14 11.742-4.125 17.812l147.37 18zm143.44 33.937 142.87 55.125c2.7212-8.2255 4.9225-16.716 6.1875-25.5zm0.75 1.125-55.5 146.25c3.3616 1.3427 6.8371 2.6469 10.312 3.75 3.0746 0.967 6.2189 1.8545 9.3749 2.625 0.81419 0.20024 1.6183 0.37586 2.4376 0.56252z" clip-path="none"/>
   </g>
  </g>
  <path id="path3796" style="opacity:.7;stroke:#2b2b2b;fill:none" d="m43.5 23.999c0 10.77-8.731 19.501-19.5 19.501s-19.5-8.731-19.5-19.501c0-10.769 8.731-19.499 19.5-19.499s19.5 8.7299 19.5 19.499z"/>
  <g id="g4144">
   <path id="path3872" d="m24 5c-10.499 0-19 8.501-19 19 0 0.169 0.0268 0.332 0.0312 0.5 0.2684-10.265 8.6388-18.5 18.969-18.5 10.329 0 18.7 8.235 18.969 18.5 0.004-0.168 0.031-0.331 0.031-0.5 0-10.499-8.502-19-19-19z" style="opacity:.15;fill:#fff"/>
   <path id="path3366" style="opacity:.3" d="m24 44c-10.499 0-19-8.501-19-19 0-0.169 0.0268-0.332 0.0312-0.5 0.2684 10.265 8.6388 18.5 18.969 18.5 10.329 0 18.7-8.235 18.969-18.5 0.004 0.168 0.031 0.331 0.031 0.5 0 10.499-8.502 19-19 19z"/>
   <path id="path3374" style="opacity:.1;fill:#fff" d="m24 43c-10.499 0-19-8.501-19-19 0-0.169 0.0268-0.332 0.0312-0.5 0.2684 10.265 8.6388 18.5 18.969 18.5 10.329 0 18.7-8.235 18.969-18.5 0.004 0.168 0.031 0.331 0.031 0.5 0 10.499-8.502 19-19 19z"/>
  </g>
 </g>
 <g id="layer2">
  <path id="path4957" d="m23.929 9.4558c-1.108 0-2 0.89195-2 2v10c0 0.74193 0.40306 1.3734 1 1.7188 0.0717 0.0415 0.14173 0.0925 0.21875 0.125 0.0411 0.0208 0.0823 0.0445 0.125 0.0625 0.0804 0.0276 0.16522 0.0452 0.25 0.0625 0.17143 0.0476 0.34427 0.0937 0.53125 0.0937 1.108 0 2-0.89195 2-2v-10c0-0.74193-0.40306-1.3735-1-1.7188-0.0684-0.0462-0.1446-0.0874-0.21875-0.125-0.0419-0.0177-0.0817-0.0477-0.125-0.0625-0.0778-0.0328-0.16746-0.0396-0.25-0.0625-0.17143-0.0476-0.34427-0.0937-0.53125-0.0937zm-6.125 3.5625c-0.31074 0.0338-0.61311 0.14179-0.875 0.3125-2.12 1.2228-3.8959 3.0087-5.125 5.125-3.5992 6.197-1.809 14.033 3.8125 18.219 0.36542 0.27208 0.72737 0.54168 1.125 0.78125 0.0652 0.0393 0.12145 0.0866 0.1875 0.125 0.32356 0.18792 0.66814 0.34109 1 0.5 0.34429 0.16486 0.67969 0.3034 1.0312 0.4375 0.10587 0.0414 0.20572 0.0862 0.3125 0.125 0.20946 0.074 0.41364 0.15537 0.625 0.21875 0.1764 0.0549 0.35289 0.10826 0.53125 0.15625 0.13296 0.0342 0.27277 0.0637 0.40625 0.0937 3.3552 0.79785 7.0145 0.39225 10.219-1.4688 6.6659-3.8716 8.9965-12.459 5.125-19.125-1.2291-2.1163-3.005-3.9022-5.125-5.125-0.26189-0.17071-0.56426-0.2787-0.875-0.3125-0.90618-0.0769-1.8324 0.53516-2.0938 1.4062-0.26131 0.87106 0.16991 1.9091 0.96875 2.3438 1.5144 0.8735 2.747 2.1132 3.625 3.625 1.7411 2.9978 1.7871 6.5157 0.40625 9.4062-0.006 0.0127-0.0251 0.0186-0.0312 0.0312-0.208 0.16968-0.38196 0.38036-0.5 0.625-2.7858 4.7965-8.891 6.3483-13.688 3.5625-0.27976-0.16248-0.55503-0.3471-0.8125-0.53125-0.0181-0.0135-0.0445-0.0176-0.0625-0.0312-1.0164-0.77047-1.8782-1.7593-2.5625-2.9375-0.0918-0.19027-0.22608-0.35422-0.375-0.5-1.5249-2.9429-1.5491-6.5898 0.25-9.6875 0.87802-1.5118 2.1106-2.7515 3.625-3.625 0.79884-0.43466 1.2301-1.4727 0.96875-2.3438-0.26133-0.87109-1.1876-1.4831-2.0938-1.4062z" style="opacity:.6;block-progression:tb;text-indent:0;color:#000000;enable-background:new;text-transform:none;fill:#fff"/>
  <path id="path3993" style="block-progression:tb;text-indent:0;color:#000000;enable-background:new;text-transform:none;fill:#444" d="m23.929 8.4559c-1.108 0-2 0.89195-2 2v10c0 0.74193 0.40306 1.3734 1 1.7188 0.0717 0.0415 0.14173 0.0925 0.21875 0.125 0.0411 0.0208 0.0823 0.0445 0.125 0.0625 0.0804 0.0276 0.16522 0.0452 0.25 0.0625 0.17143 0.0476 0.34427 0.0937 0.53125 0.0937 1.108 0 2-0.89195 2-2v-10c0-0.74193-0.40306-1.3735-1-1.7188-0.0684-0.0462-0.1446-0.0874-0.21875-0.125-0.0419-0.0177-0.0817-0.0477-0.125-0.0625-0.0778-0.0328-0.16746-0.0396-0.25-0.0625-0.17143-0.0476-0.34427-0.0937-0.53125-0.0937zm-6.125 3.5625c-0.31074 0.0338-0.61311 0.14179-0.875 0.3125-2.12 1.2228-3.8959 3.0087-5.125 5.125-3.5992 6.197-1.809 14.033 3.8125 18.219 0.36542 0.27208 0.72737 0.54168 1.125 0.78125 0.0652 0.0393 0.12145 0.0866 0.1875 0.125 0.32356 0.18792 0.66814 0.34109 1 0.5 0.34429 0.16486 0.67969 0.3034 1.0312 0.4375 0.10587 0.0414 0.20572 0.0862 0.3125 0.125 0.20946 0.074 0.41364 0.15537 0.625 0.21875 0.1764 0.0549 0.35289 0.10826 0.53125 0.15625 0.13296 0.0342 0.27277 0.0637 0.40625 0.0937 3.3552 0.79785 7.0145 0.39225 10.219-1.4688 6.6659-3.8716 8.9965-12.459 5.125-19.125-1.2291-2.1163-3.005-3.9022-5.125-5.125-0.26189-0.17071-0.56426-0.2787-0.875-0.3125-0.90618-0.0769-1.8324 0.53516-2.0938 1.4062-0.26131 0.87106 0.16991 1.9091 0.96875 2.3438 1.5144 0.8735 2.747 2.1132 3.625 3.625 1.7411 2.9978 1.7871 6.5157 0.40625 9.4062-0.006 0.0127-0.0251 0.0186-0.0312 0.0312-0.208 0.16968-0.38196 0.38036-0.5 0.625-2.7858 4.7965-8.891 6.3483-13.688 3.5625-0.27976-0.16248-0.55503-0.3471-0.8125-0.53125-0.0181-0.0135-0.0445-0.0176-0.0625-0.0312-1.0164-0.77047-1.8782-1.7593-2.5625-2.9375-0.0918-0.19027-0.22608-0.35422-0.375-0.5-1.5249-2.9429-1.5491-6.5898 0.25-9.6875 0.87802-1.5118 2.1106-2.7515 3.625-3.625 0.79884-0.43466 1.2301-1.4727 0.96875-2.3438-0.26133-0.87109-1.1876-1.4831-2.0938-1.4062z"/>
 </g>
</svg>
