<?xml version="1.0" encoding="UTF-8" standalone="no"?>
<!-- Created with Inkscape (http://www.inkscape.org/) -->

<svg
   xmlns:dc="http://purl.org/dc/elements/1.1/"
   xmlns:cc="http://creativecommons.org/ns#"
   xmlns:rdf="http://www.w3.org/1999/02/22-rdf-syntax-ns#"
   xmlns:svg="http://www.w3.org/2000/svg"
   xmlns="http://www.w3.org/2000/svg"
   xmlns:sodipodi="http://sodipodi.sourceforge.net/DTD/sodipodi-0.dtd"
   xmlns:inkscape="http://www.inkscape.org/namespaces/inkscape"
   width="256"
   height="256"
   viewBox="0 0 256 256"
   id="svg4149"
   version="1.1"
   inkscape:version="0.92.2 (5c3e80d, 2017-08-06)"
   sodipodi:docname="accessories-dictionary.svg">
  <sodipodi:namedview
     id="base"
     pagecolor="#ffffff"
     bordercolor="#666666"
     borderopacity="1.0"
     inkscape:pageopacity="0.0"
     inkscape:pageshadow="2"
     inkscape:zoom="3.3125"
     inkscape:cx="62.792453"
     inkscape:cy="128"
     inkscape:document-units="px"
     inkscape:current-layer="layer1"
     showgrid="false"
     units="px"
     inkscape:window-width="1920"
     inkscape:window-height="1048"
     inkscape:window-x="0"
     inkscape:window-y="0"
     inkscape:window-maximized="1" />
  <defs
     id="defs4151">
    <clipPath
       id="clipPath4863"
       clipPathUnits="userSpaceOnUse">
      <circle
         r="77.263145"
         cy="924.36218"
         cx="128"
         id="circle4865"
         style="fill:#e9e9e9;fill-opacity:1;stroke:none;stroke-width:20;stroke-miterlimit:4;stroke-dasharray:none;stroke-opacity:1" />
    </clipPath>
    <clipPath
       clipPathUnits="userSpaceOnUse"
       id="clipPath4227">
      <circle
         r="77.263145"
         cy="924.36218"
         cx="128"
         id="circle4229"
         style="fill:#e9e9e9;fill-opacity:1;stroke:none;stroke-width:20;stroke-miterlimit:4;stroke-dasharray:none;stroke-opacity:1" />
    </clipPath>
    <clipPath
       id="clipPath5242"
       clipPathUnits="userSpaceOnUse">
      <circle
         r="53.296803"
         cy="27.298298"
         cx="-91.568832"
         id="circle5244"
         style="fill:#294172;fill-opacity:1;stroke:none;stroke-width:20;stroke-miterlimit:4;stroke-dasharray:none;stroke-opacity:1" />
    </clipPath>
    <clipPath
       clipPathUnits="userSpaceOnUse"
       id="clipPath4435">
      <circle
         r="128"
         cy="924.80219"
         cx="128"
         id="circle4437"
         style="fill:#597cc3;fill-opacity:1;stroke:none;stroke-width:20;stroke-miterlimit:4;stroke-dasharray:none;stroke-opacity:1" />
    </clipPath>
    <clipPath
       id="clipPath4611"
       clipPathUnits="userSpaceOnUse">
      <circle
         r="92.307434"
         cy="928.3988"
         cx="128"
         id="circle4613"
         style="fill:#597cc3;fill-opacity:1;stroke:none;stroke-width:20;stroke-miterlimit:4;stroke-dasharray:none;stroke-opacity:1" />
    </clipPath>
    <clipPath
       id="clipPath4193"
       clipPathUnits="userSpaceOnUse">
      <circle
         r="128"
         cy="924.36218"
         cx="128"
         id="circle4195"
         style="fill:#cbced2;fill-opacity:1;stroke:none;stroke-width:20;stroke-miterlimit:4;stroke-dasharray:none;stroke-opacity:1" />
    </clipPath>
    <clipPath
       id="clipPath4220"
       clipPathUnits="userSpaceOnUse">
      <ellipse
         style="fill:#573e39;fill-opacity:1;stroke:none;stroke-width:20;stroke-miterlimit:4;stroke-dasharray:none;stroke-opacity:1"
         id="ellipse4222"
         cx="115.07809"
         cy="924.36218"
         rx="115.07809"
         ry="128"
         clip-path="url(#clipPath4193)" />
    </clipPath>
    <clipPath
       id="clipPath4167"
       clipPathUnits="userSpaceOnUse">
      <ellipse
         style="fill:#946a61;fill-opacity:1;stroke:none;stroke-width:20;stroke-miterlimit:4;stroke-dasharray:none;stroke-opacity:1"
         id="ellipse4169"
         cx="115.07809"
         cy="924.36218"
         rx="115.07809"
         ry="128"
         clip-path="url(#clipPath4193)" />
    </clipPath>
    <clipPath
       clipPathUnits="userSpaceOnUse"
       id="clipPath1070">
      <circle
         r="128"
         cy="924.36218"
         cx="128"
         id="circle1072"
         style="fill:#946a61;fill-opacity:1;stroke:none;stroke-width:20;stroke-miterlimit:4;stroke-dasharray:none;stroke-opacity:1" />
    </clipPath>
    <clipPath
       clipPathUnits="userSpaceOnUse"
       id="clipPath1195">
      <rect
         style="fill:#a63030;fill-opacity:1;stroke:none;stroke-width:4.95677614;stroke-miterlimit:4;stroke-dasharray:none;stroke-opacity:1"
         id="rect1197"
         width="41.778461"
         height="197.81656"
         x="0.078387983"
         y="824.2348"
         clip-path="url(#clipPath4220)" />
    </clipPath>
    <clipPath
       clipPathUnits="userSpaceOnUse"
       id="clipPath1195-3">
      <rect
         style="fill:#a63030;fill-opacity:1;stroke:none;stroke-width:4.95677614;stroke-miterlimit:4;stroke-dasharray:none;stroke-opacity:1"
         id="rect1197-6"
         width="41.778461"
         height="197.81656"
         x="0.078387983"
         y="824.2348"
         clip-path="url(#clipPath4220)" />
    </clipPath>
    <clipPath
       clipPathUnits="userSpaceOnUse"
       id="clipPath1464">
      <g
         clip-path="url(#clipPath1070)"
         id="g1572"
         style="font-style:normal;font-weight:normal;line-height:0%;font-family:sans-serif;letter-spacing:0px;word-spacing:0px;fill:#614466;fill-opacity:1;stroke:none;stroke-width:1px;stroke-linecap:butt;stroke-linejoin:miter;stroke-opacity:1"
         aria-label="Abc">
        <g
           style="fill:#614466;fill-opacity:1"
           transform="translate(0,796.36216)"
           id="g1570">
          <g
             style="font-size:90px;line-height:1.25;fill:#614466;fill-opacity:1"
             id="g1566">
            <path
               style="fill:#614466;fill-opacity:1"
               d="M 116.06836,93.173828 V 161.55273 L -25.352996,302.97409 v -68.37891 z"
               id="path1466"
               inkscape:connector-curvature="0" />
            <path
               style="fill:#614466;fill-opacity:1"
               d="m 116.06836,161.55273 h 8.13086 L -17.222136,302.97409 h -8.13086 z"
               id="path1468"
               inkscape:connector-curvature="0" />
            <path
               style="fill:#614466;fill-opacity:1"
               d="m 124.19922,161.55273 v -7.38281 L -17.222136,295.59128 v 7.38281 z"
               id="path1470"
               inkscape:connector-curvature="0" />
            <path
               style="fill:#614466;fill-opacity:1"
               d="m 124.19922,154.16992 c 3.50032,6.00507 9.66975,8.61086 15.73242,8.65625 L -1.4897162,304.24753 c -6.06267,-0.0454 -12.2320998,-2.65118 -15.7324198,-8.65625 z"
               id="path1472"
               inkscape:connector-curvature="0" />
            <path
               style="fill:#614466;fill-opacity:1"
               d="m 139.93164,162.82617 c 5.10113,0 9.37984,-1.72876 12.83737,-5.18629 L 11.347649,299.06124 c -3.4575216,3.45752 -7.7362351,5.18629 -12.8373652,5.18629 z"
               id="path1474"
               inkscape:connector-curvature="0" />
            <path
               style="fill:#614466;fill-opacity:1"
               d="m 152.76901,157.63988 c 0.59336,-0.59336 1.16255,-1.23765 1.70755,-1.93285 L 13.055204,297.12839 c -0.545003,0.6952 -1.114186,1.33948 -1.707555,1.93285 z"
               id="path1476"
               inkscape:connector-curvature="0" />
            <path
               style="fill:#614466;fill-opacity:1"
               d="m 154.47656,155.70703 c 3.75,-4.74609 5.625,-10.98633 5.625,-18.7207 L 18.680204,278.40769 c 0,7.73437 -1.875,13.97461 -5.625,18.7207 z"
               id="path1478"
               inkscape:connector-curvature="0" />
            <path
               style="fill:#614466;fill-opacity:1"
               d="m 160.10156,136.98633 c 0,-7.73438 -1.875,-13.97461 -5.625,-18.72071 L 13.055204,259.68698 c 3.75,4.7461 5.625,10.98633 5.625,18.72071 z"
               id="path1480"
               inkscape:connector-curvature="0" />
            <path
               style="fill:#614466;fill-opacity:1"
               d="m 154.47656,118.26562 c -3.7207,-4.74609 -8.56835,-7.11914 -14.54492,-7.11914 L -1.4897162,252.56784 c 5.97657,0 10.82422,2.37305 14.5449202,7.11914 z"
               id="path1482"
               inkscape:connector-curvature="0" />
            <path
               style="fill:#614466;fill-opacity:1"
               d="m 139.93164,111.14648 c -3.60351,0 -6.70899,0.71875 -9.31641,2.1543 L -10.806126,254.72214 c 2.6074198,-1.43555 5.7128998,-2.1543 9.3164098,-2.1543 z"
               id="path1484"
               inkscape:connector-curvature="0" />
            <path
               style="fill:#614466;fill-opacity:1"
               d="m 130.61523,113.30078 c -1.23535,0.67383 -2.3698,1.52255 -3.40335,2.54616 L -14.20948,257.26829 c 1.033553,-1.02361 2.168005,-1.87233 3.403354,-2.54615 z"
               id="path1486"
               inkscape:connector-curvature="0" />
            <path
               style="fill:#614466;fill-opacity:1"
               d="m 127.21188,115.84694 c -1.12343,1.11262 -2.12765,2.43187 -3.01266,3.95775 L -17.222136,261.22605 c 0.88501,-1.52588 1.889229,-2.84513 3.012656,-3.95776 z"
               id="path1488"
               inkscape:connector-curvature="0" />
            <path
               style="fill:#614466;fill-opacity:1"
               d="M 124.19922,119.80469 V 93.173828 L -17.222136,234.59518 v 26.63087 z"
               id="path1490"
               inkscape:connector-curvature="0" />
            <path
               style="fill:#614466;fill-opacity:1"
               d="M 72.123047,95.941406 47.074219,161.55273 -94.347137,302.97409 -69.298309,237.36276 Z"
               id="path1492"
               inkscape:connector-curvature="0" />
            <path
               style="fill:#614466;fill-opacity:1"
               d="m 47.074219,161.55273 h 9.361328 L -84.985809,302.97409 h -9.361328 z"
               id="path1494"
               inkscape:connector-curvature="0" />
            <path
               style="fill:#614466;fill-opacity:1"
               d="m 56.435547,161.55273 5.976562,-16.83203 -141.421356,141.42136 -5.976562,16.83203 z"
               id="path1496"
               inkscape:connector-curvature="0" />
            <path
               style="fill:#614466;fill-opacity:1"
               d="M 62.412109,144.7207 H 91.986328 L -49.435028,286.14206 h -29.574219 z"
               id="path1498"
               inkscape:connector-curvature="0" />
            <path
               style="fill:#614466;fill-opacity:1"
               d="m 91.986328,144.7207 5.976563,16.83203 -141.421356,141.42136 -5.976563,-16.83203 z"
               id="path1500"
               inkscape:connector-curvature="0" />
            <path
               style="fill:#614466;fill-opacity:1"
               d="m 97.962891,161.55273 h 9.228519 L -34.229946,302.97409 h -9.228519 z"
               id="path1502"
               inkscape:connector-curvature="0" />
            <path
               style="fill:#614466;fill-opacity:1"
               d="M 107.19141,161.55273 82.1875,95.941406 -59.233856,237.36276 l 25.00391,65.61133 z"
               id="path1504"
               inkscape:connector-curvature="0" />
            <path
               style="fill:#614466;fill-opacity:1"
               d="M 77.132812,104.6875 89.21875,137.33789 -52.202606,278.75925 -64.288544,246.10886 Z"
               id="path1506"
               inkscape:connector-curvature="0" />
            <path
               style="fill:#614466;fill-opacity:1"
               d="M 89.21875,137.33789 H 65.091797 L -76.329559,278.75925 h 24.126953 z"
               id="path1508"
               inkscape:connector-curvature="0" />
            <path
               style="fill:#614466;fill-opacity:1"
               d="m 194.73047,111.14648 c -7.50385,0 -13.45282,2.19887 -17.84873,6.59478 L 35.460386,259.16262 c 4.395908,-4.39591 10.344876,-6.59478 17.848728,-6.59478 z"
               id="path1510"
               inkscape:connector-curvature="0" />
            <path
               style="fill:#614466;fill-opacity:1"
               d="m 176.88174,117.74126 c -0.10072,0.10072 -0.20062,0.20259 -0.29971,0.30562 L 35.160674,259.46824 c 0.09909,-0.10303 0.198992,-0.2049 0.299712,-0.30562 z"
               id="path1512"
               inkscape:connector-curvature="0" />
            <path
               style="fill:#614466;fill-opacity:1"
               d="m 176.58203,118.04688 c -4.39453,4.5996 -6.5918,10.9121 -6.5918,18.93945 L 28.568874,278.40769 c 0,-8.02735 2.19727,-14.33985 6.5918,-18.93945 z"
               id="path1514"
               inkscape:connector-curvature="0" />
            <path
               style="fill:#614466;fill-opacity:1"
               d="m 169.99023,136.98633 c 0.89081,16.04338 9.45969,25.66157 24.21289,25.83984 L 52.781764,304.24753 c -14.7532,-0.17827 -23.32208,-9.79646 -24.21289,-25.83984 z"
               id="path1516"
               inkscape:connector-curvature="0" />
            <path
               style="fill:#614466;fill-opacity:1"
               d="m 194.20312,162.82617 c 2.72462,0 5.28907,-0.26367 7.69141,-0.79101 L 60.473174,303.45652 c -2.40234,0.52734 -4.96679,0.79101 -7.69141,0.79101 z"
               id="path1518"
               inkscape:connector-curvature="0" />
            <path
               style="fill:#614466;fill-opacity:1"
               d="m 201.89453,162.03516 c 2.43164,-0.52735 4.77539,-1.31836 7.03125,-2.37305 L 67.504424,301.08347 c -2.25586,1.05469 -4.59961,1.8457 -7.03125,2.37305 z"
               id="path1520"
               inkscape:connector-curvature="0" />
            <path
               style="fill:#614466;fill-opacity:1"
               d="m 208.92578,159.66211 v -7.4707 L 67.504424,293.61277 v 7.4707 z"
               id="path1522"
               inkscape:connector-curvature="0" />
            <path
               style="fill:#614466;fill-opacity:1"
               d="m 208.92578,152.19141 c -2.28515,1.25976 -4.58594,2.21289 -6.90039,2.85742 L 60.604034,296.47019 c 2.31445,-0.64453 4.61524,-1.59766 6.90039,-2.85742 z"
               id="path1524"
               inkscape:connector-curvature="0" />
            <path
               style="fill:#614466;fill-opacity:1"
               d="m 202.02539,155.04883 c -2.28516,0.61523 -4.59961,0.92187 -6.94336,0.92187 L 53.660674,297.39206 c 2.34375,0 4.6582,-0.30664 6.94336,-0.92187 z"
               id="path1526"
               inkscape:connector-curvature="0" />
            <path
               style="fill:#614466;fill-opacity:1"
               d="m 195.08203,155.9707 c -5.24414,0 -9.3164,-1.65429 -12.2168,-4.96484 L 41.443874,292.42722 c 2.9004,3.31055 6.97266,4.96484 12.2168,4.96484 z"
               id="path1528"
               inkscape:connector-curvature="0" />
            <path
               style="fill:#614466;fill-opacity:1"
               d="m 182.86523,151.00586 c -2.90038,-3.33984 -4.34961,-8.01367 -4.34961,-14.01953 L 37.094264,278.40769 c 0,6.00586 1.44923,10.67969 4.34961,14.01953 z"
               id="path1530"
               inkscape:connector-curvature="0" />
            <path
               style="fill:#614466;fill-opacity:1"
               d="m 178.51562,136.98633 c 10e-6,-6.00586 1.44923,-10.66406 4.34961,-13.97461 L 41.443874,264.43308 c -2.90038,3.31055 -4.3496,7.96875 -4.34961,13.97461 z"
               id="path1532"
               inkscape:connector-curvature="0" />
            <path
               style="fill:#614466;fill-opacity:1"
               d="m 182.86523,123.01172 c 0.22426,-0.25823 0.45552,-0.50649 0.69379,-0.74475 L 42.137661,263.68832 c -0.238268,0.23827 -0.469531,0.48652 -0.693787,0.74476 z"
               id="path1534"
               inkscape:connector-curvature="0" />
            <path
               style="fill:#614466;fill-opacity:1"
               d="m 183.55902,122.26697 c 2.84334,-2.84335 6.68434,-4.26502 11.52301,-4.26502 L 53.660674,259.42331 c -4.838667,0 -8.679667,1.42167 -11.523013,4.26501 z"
               id="path1536"
               inkscape:connector-curvature="0" />
            <path
               style="fill:#614466;fill-opacity:1"
               d="m 195.08203,118.00195 c 2.34375,0 4.6582,0.32227 6.94336,0.9668 L 60.604034,260.39011 c -2.28516,-0.64453 -4.59961,-0.9668 -6.94336,-0.9668 z"
               id="path1538"
               inkscape:connector-curvature="0" />
            <path
               style="fill:#614466;fill-opacity:1"
               d="m 202.02539,118.96875 c 2.31445,0.61523 4.61524,1.55273 6.90039,2.8125 L 67.504424,263.20261 c -2.28515,-1.25977 -4.58594,-2.19727 -6.90039,-2.8125 z"
               id="path1540"
               inkscape:connector-curvature="0" />
            <path
               style="fill:#614466;fill-opacity:1"
               d="m 208.92578,121.78125 v -7.55859 L 67.504424,255.64402 v 7.55859 z"
               id="path1542"
               inkscape:connector-curvature="0" />
            <path
               style="fill:#614466;fill-opacity:1"
               d="m 208.92578,114.22266 c -2.22656,-1.0254 -4.52734,-1.78711 -6.90039,-2.28516 L 60.604034,253.35886 c 2.37305,0.49805 4.67383,1.25976 6.90039,2.28516 z"
               id="path1544"
               inkscape:connector-curvature="0" />
            <path
               style="fill:#614466;fill-opacity:1"
               d="m 202.02539,111.9375 c -2.37305,-0.52734 -4.80469,-0.79102 -7.29492,-0.79102 L 53.309114,252.56784 c 2.49023,0 4.92187,0.26368 7.29492,0.79102 z"
               id="path1546"
               inkscape:connector-curvature="0" />
            <path
               style="fill:#614466;fill-opacity:1"
               d="m 148.01758,123.01172 c 2.46094,3.36914 3.6914,8.02734 3.6914,13.97461 L 10.287624,278.40769 c 0,-5.94727 -1.2304602,-10.60547 -3.6914002,-13.97461 z"
               id="path1548"
               inkscape:connector-curvature="0" />
            <path
               style="fill:#614466;fill-opacity:1"
               d="m 151.70898,136.98633 c 0,5.94726 -1.23046,10.6211 -3.6914,14.01953 L 6.5962238,292.42722 c 2.46094,-3.39843 3.6914002,-8.07227 3.6914002,-14.01953 z"
               id="path1550"
               inkscape:connector-curvature="0" />
            <path
               style="fill:#614466;fill-opacity:1"
               d="m 148.01758,151.00586 c -0.43688,0.60532 -0.90358,1.15622 -1.40009,1.65273 L 5.1961346,294.07995 c 0.4965095,-0.49651 0.9632096,-1.04742 1.4000892,-1.65273 z"
               id="path1552"
               inkscape:connector-curvature="0" />
            <path
               style="fill:#614466;fill-opacity:1"
               d="m 146.61749,152.65859 c -2.26703,2.26703 -5.15551,3.4 -8.66437,3.4 L -3.4682362,297.47995 c 3.50886176,0 6.3973442,-1.13298 8.6643708,-3.4 z"
               id="path1554"
               inkscape:connector-curvature="0" />
            <path
               style="fill:#614466;fill-opacity:1"
               d="m 137.95312,156.05859 c -4.27733,0 -7.64648,-1.68359 -10.10742,-5.05273 L -13.575656,292.42722 c 2.46094,3.36914 5.8300898,5.05273 10.1074198,5.05273 z"
               id="path1556"
               inkscape:connector-curvature="0" />
            <path
               style="fill:#614466;fill-opacity:1"
               d="m 127.8457,151.00586 c -2.43164,-3.39843 -3.64648,-8.07227 -3.64648,-14.01953 L -17.222136,278.40769 c 0,5.94726 1.21484,10.6211 3.64648,14.01953 z"
               id="path1558"
               inkscape:connector-curvature="0" />
            <path
               style="fill:#614466;fill-opacity:1"
               d="m 124.19922,136.98633 c 0,-5.94727 1.21484,-10.60547 3.64648,-13.97461 L -13.575656,264.43308 c -2.43164,3.36914 -3.64648,8.02734 -3.64648,13.97461 z"
               id="path1560"
               inkscape:connector-curvature="0" />
            <path
               style="fill:#614466;fill-opacity:1"
               d="m 127.8457,123.01172 c 0.30024,-0.36797 0.61349,-0.71414 0.93818,-1.03883 L -12.63748,263.39425 c -0.324689,0.32469 -0.637935,0.67086 -0.938176,1.03883 z"
               id="path1562"
               inkscape:connector-curvature="0" />
            <path
               style="fill:#614466;fill-opacity:1"
               d="m 128.78388,121.97289 c 5.70031,-5.70031 14.92776,-4.77991 19.2337,1.03883 L 6.5962238,264.43308 C 2.2902802,258.61434 -6.9371683,257.69394 -12.63748,263.39425 Z"
               id="path1564"
               inkscape:connector-curvature="0" />
          </g>
          <path
             style="font-size:90px;line-height:1.25;fill:#614466;fill-opacity:1"
             d="m 116.06836,93.173828 v 68.378902 h 8.13086 v -7.38281 c 3.50032,6.00507 9.66975,8.61086 15.73242,8.65625 5.97657,0 10.82422,-2.37305 14.54492,-7.11914 3.75,-4.74609 5.625,-10.98633 5.625,-18.7207 0,-7.73438 -1.875,-13.97461 -5.625,-18.72071 -3.7207,-4.74609 -8.56835,-7.11914 -14.54492,-7.11914 -3.60351,0 -6.70899,0.71875 -9.31641,2.1543 -2.57812,1.40625 -4.71679,3.57422 -6.41601,6.50391 V 93.173828 Z M 72.123047,95.941406 47.074219,161.55273 h 9.361328 l 5.976562,-16.83203 h 29.574219 l 5.976563,16.83203 h 9.228519 L 82.1875,95.941406 Z m 5.009765,8.746094 12.085938,32.65039 H 65.091797 Z m 117.597658,6.45898 c -7.67578,0 -13.72461,2.30079 -18.14844,6.9004 -4.39453,4.5996 -6.5918,10.9121 -6.5918,18.93945 0.89081,16.04338 9.45969,25.66157 24.21289,25.83984 2.72462,0 5.28907,-0.26367 7.69141,-0.79101 2.43164,-0.52735 4.77539,-1.31836 7.03125,-2.37305 v -7.4707 c -2.28515,1.25976 -4.58594,2.21289 -6.90039,2.85742 -2.28516,0.61523 -4.59961,0.92187 -6.94336,0.92187 -5.24414,0 -9.3164,-1.65429 -12.2168,-4.96484 -2.90038,-3.33984 -4.34961,-8.01367 -4.34961,-14.01953 10e-6,-6.00586 1.44923,-10.66406 4.34961,-13.97461 2.9004,-3.33985 6.97266,-5.00977 12.2168,-5.00977 2.34375,0 4.6582,0.32227 6.94336,0.9668 2.31445,0.61523 4.61524,1.55273 6.90039,2.8125 v -7.55859 c -2.22656,-1.0254 -4.52734,-1.78711 -6.90039,-2.28516 -2.37305,-0.52734 -4.80469,-0.79102 -7.29492,-0.79102 z m -46.71289,11.86524 c 2.46094,3.36914 3.6914,8.02734 3.6914,13.97461 0,5.94726 -1.23046,10.6211 -3.6914,14.01953 -2.43164,3.36914 -5.78711,5.05273 -10.06446,5.05273 -4.27733,0 -7.64648,-1.68359 -10.10742,-5.05273 -2.43164,-3.39843 -3.64648,-8.07227 -3.64648,-14.01953 0,-5.94727 1.21484,-10.60547 3.64648,-13.97461 5.57133,-6.8281 15.62067,-6.15017 20.17188,0 z"
             id="path1568"
             inkscape:connector-curvature="0"
             sodipodi:nodetypes="ccccccscscccccccccccccccccscccccccscccsccccscscscscc" />
        </g>
      </g>
    </clipPath>
    <clipPath
       clipPathUnits="userSpaceOnUse"
       id="clipPath1685">
      <g
         clip-path="url(#clipPath1070)"
         id="g1793"
         style="font-style:normal;font-weight:normal;line-height:0%;font-family:sans-serif;letter-spacing:0px;word-spacing:0px;fill:#614466;fill-opacity:1;stroke:none;stroke-width:1px;stroke-linecap:butt;stroke-linejoin:miter;stroke-opacity:1"
         aria-label="Abc">
        <g
           style="fill:#614466;fill-opacity:1"
           transform="translate(0,796.36216)"
           id="g1791">
          <g
             style="font-size:90px;line-height:1.25;fill:#614466;fill-opacity:1"
             id="g1787">
            <path
               style="fill:#614466;fill-opacity:1"
               d="M 116.06836,93.173828 V 161.55273 L -25.352996,302.97409 v -68.37891 z"
               id="path1687"
               inkscape:connector-curvature="0" />
            <path
               style="fill:#614466;fill-opacity:1"
               d="m 116.06836,161.55273 h 8.13086 L -17.222136,302.97409 h -8.13086 z"
               id="path1689"
               inkscape:connector-curvature="0" />
            <path
               style="fill:#614466;fill-opacity:1"
               d="m 124.19922,161.55273 v -7.38281 L -17.222136,295.59128 v 7.38281 z"
               id="path1691"
               inkscape:connector-curvature="0" />
            <path
               style="fill:#614466;fill-opacity:1"
               d="m 124.19922,154.16992 c 3.50032,6.00507 9.66975,8.61086 15.73242,8.65625 L -1.4897162,304.24753 c -6.06267,-0.0454 -12.2320998,-2.65118 -15.7324198,-8.65625 z"
               id="path1693"
               inkscape:connector-curvature="0" />
            <path
               style="fill:#614466;fill-opacity:1"
               d="m 139.93164,162.82617 c 5.10113,0 9.37984,-1.72876 12.83737,-5.18629 L 11.347649,299.06124 c -3.4575216,3.45752 -7.7362351,5.18629 -12.8373652,5.18629 z"
               id="path1695"
               inkscape:connector-curvature="0" />
            <path
               style="fill:#614466;fill-opacity:1"
               d="m 152.76901,157.63988 c 0.59336,-0.59336 1.16255,-1.23765 1.70755,-1.93285 L 13.055204,297.12839 c -0.545003,0.6952 -1.114186,1.33948 -1.707555,1.93285 z"
               id="path1697"
               inkscape:connector-curvature="0" />
            <path
               style="fill:#614466;fill-opacity:1"
               d="m 154.47656,155.70703 c 3.75,-4.74609 5.625,-10.98633 5.625,-18.7207 L 18.680204,278.40769 c 0,7.73437 -1.875,13.97461 -5.625,18.7207 z"
               id="path1699"
               inkscape:connector-curvature="0" />
            <path
               style="fill:#614466;fill-opacity:1"
               d="m 160.10156,136.98633 c 0,-7.73438 -1.875,-13.97461 -5.625,-18.72071 L 13.055204,259.68698 c 3.75,4.7461 5.625,10.98633 5.625,18.72071 z"
               id="path1701"
               inkscape:connector-curvature="0" />
            <path
               style="fill:#614466;fill-opacity:1"
               d="m 154.47656,118.26562 c -3.7207,-4.74609 -8.56835,-7.11914 -14.54492,-7.11914 L -1.4897162,252.56784 c 5.97657,0 10.82422,2.37305 14.5449202,7.11914 z"
               id="path1703"
               inkscape:connector-curvature="0" />
            <path
               style="fill:#614466;fill-opacity:1"
               d="m 139.93164,111.14648 c -3.60351,0 -6.70899,0.71875 -9.31641,2.1543 L -10.806126,254.72214 c 2.6074198,-1.43555 5.7128998,-2.1543 9.3164098,-2.1543 z"
               id="path1705"
               inkscape:connector-curvature="0" />
            <path
               style="fill:#614466;fill-opacity:1"
               d="m 130.61523,113.30078 c -1.23535,0.67383 -2.3698,1.52255 -3.40335,2.54616 L -14.20948,257.26829 c 1.033553,-1.02361 2.168005,-1.87233 3.403354,-2.54615 z"
               id="path1707"
               inkscape:connector-curvature="0" />
            <path
               style="fill:#614466;fill-opacity:1"
               d="m 127.21188,115.84694 c -1.12343,1.11262 -2.12765,2.43187 -3.01266,3.95775 L -17.222136,261.22605 c 0.88501,-1.52588 1.889229,-2.84513 3.012656,-3.95776 z"
               id="path1709"
               inkscape:connector-curvature="0" />
            <path
               style="fill:#614466;fill-opacity:1"
               d="M 124.19922,119.80469 V 93.173828 L -17.222136,234.59518 v 26.63087 z"
               id="path1711"
               inkscape:connector-curvature="0" />
            <path
               style="fill:#614466;fill-opacity:1"
               d="M 72.123047,95.941406 47.074219,161.55273 -94.347137,302.97409 -69.298309,237.36276 Z"
               id="path1713"
               inkscape:connector-curvature="0" />
            <path
               style="fill:#614466;fill-opacity:1"
               d="m 47.074219,161.55273 h 9.361328 L -84.985809,302.97409 h -9.361328 z"
               id="path1715"
               inkscape:connector-curvature="0" />
            <path
               style="fill:#614466;fill-opacity:1"
               d="m 56.435547,161.55273 5.976562,-16.83203 -141.421356,141.42136 -5.976562,16.83203 z"
               id="path1717"
               inkscape:connector-curvature="0" />
            <path
               style="fill:#614466;fill-opacity:1"
               d="M 62.412109,144.7207 H 91.986328 L -49.435028,286.14206 h -29.574219 z"
               id="path1719"
               inkscape:connector-curvature="0" />
            <path
               style="fill:#614466;fill-opacity:1"
               d="m 91.986328,144.7207 5.976563,16.83203 -141.421356,141.42136 -5.976563,-16.83203 z"
               id="path1721"
               inkscape:connector-curvature="0" />
            <path
               style="fill:#614466;fill-opacity:1"
               d="m 97.962891,161.55273 h 9.228519 L -34.229946,302.97409 h -9.228519 z"
               id="path1723"
               inkscape:connector-curvature="0" />
            <path
               style="fill:#614466;fill-opacity:1"
               d="M 107.19141,161.55273 82.1875,95.941406 -59.233856,237.36276 l 25.00391,65.61133 z"
               id="path1725"
               inkscape:connector-curvature="0" />
            <path
               style="fill:#614466;fill-opacity:1"
               d="M 77.132812,104.6875 89.21875,137.33789 -52.202606,278.75925 -64.288544,246.10886 Z"
               id="path1727"
               inkscape:connector-curvature="0" />
            <path
               style="fill:#614466;fill-opacity:1"
               d="M 89.21875,137.33789 H 65.091797 L -76.329559,278.75925 h 24.126953 z"
               id="path1729"
               inkscape:connector-curvature="0" />
            <path
               style="fill:#614466;fill-opacity:1"
               d="m 194.73047,111.14648 c -7.50385,0 -13.45282,2.19887 -17.84873,6.59478 L 35.460386,259.16262 c 4.395908,-4.39591 10.344876,-6.59478 17.848728,-6.59478 z"
               id="path1731"
               inkscape:connector-curvature="0" />
            <path
               style="fill:#614466;fill-opacity:1"
               d="m 176.88174,117.74126 c -0.10072,0.10072 -0.20062,0.20259 -0.29971,0.30562 L 35.160674,259.46824 c 0.09909,-0.10303 0.198992,-0.2049 0.299712,-0.30562 z"
               id="path1733"
               inkscape:connector-curvature="0" />
            <path
               style="fill:#614466;fill-opacity:1"
               d="m 176.58203,118.04688 c -4.39453,4.5996 -6.5918,10.9121 -6.5918,18.93945 L 28.568874,278.40769 c 0,-8.02735 2.19727,-14.33985 6.5918,-18.93945 z"
               id="path1735"
               inkscape:connector-curvature="0" />
            <path
               style="fill:#614466;fill-opacity:1"
               d="m 169.99023,136.98633 c 0.89081,16.04338 9.45969,25.66157 24.21289,25.83984 L 52.781764,304.24753 c -14.7532,-0.17827 -23.32208,-9.79646 -24.21289,-25.83984 z"
               id="path1737"
               inkscape:connector-curvature="0" />
            <path
               style="fill:#614466;fill-opacity:1"
               d="m 194.20312,162.82617 c 2.72462,0 5.28907,-0.26367 7.69141,-0.79101 L 60.473174,303.45652 c -2.40234,0.52734 -4.96679,0.79101 -7.69141,0.79101 z"
               id="path1739"
               inkscape:connector-curvature="0" />
            <path
               style="fill:#614466;fill-opacity:1"
               d="m 201.89453,162.03516 c 2.43164,-0.52735 4.77539,-1.31836 7.03125,-2.37305 L 67.504424,301.08347 c -2.25586,1.05469 -4.59961,1.8457 -7.03125,2.37305 z"
               id="path1741"
               inkscape:connector-curvature="0" />
            <path
               style="fill:#614466;fill-opacity:1"
               d="m 208.92578,159.66211 v -7.4707 L 67.504424,293.61277 v 7.4707 z"
               id="path1743"
               inkscape:connector-curvature="0" />
            <path
               style="fill:#614466;fill-opacity:1"
               d="m 208.92578,152.19141 c -2.28515,1.25976 -4.58594,2.21289 -6.90039,2.85742 L 60.604034,296.47019 c 2.31445,-0.64453 4.61524,-1.59766 6.90039,-2.85742 z"
               id="path1745"
               inkscape:connector-curvature="0" />
            <path
               style="fill:#614466;fill-opacity:1"
               d="m 202.02539,155.04883 c -2.28516,0.61523 -4.59961,0.92187 -6.94336,0.92187 L 53.660674,297.39206 c 2.34375,0 4.6582,-0.30664 6.94336,-0.92187 z"
               id="path1747"
               inkscape:connector-curvature="0" />
            <path
               style="fill:#614466;fill-opacity:1"
               d="m 195.08203,155.9707 c -5.24414,0 -9.3164,-1.65429 -12.2168,-4.96484 L 41.443874,292.42722 c 2.9004,3.31055 6.97266,4.96484 12.2168,4.96484 z"
               id="path1749"
               inkscape:connector-curvature="0" />
            <path
               style="fill:#614466;fill-opacity:1"
               d="m 182.86523,151.00586 c -2.90038,-3.33984 -4.34961,-8.01367 -4.34961,-14.01953 L 37.094264,278.40769 c 0,6.00586 1.44923,10.67969 4.34961,14.01953 z"
               id="path1751"
               inkscape:connector-curvature="0" />
            <path
               style="fill:#614466;fill-opacity:1"
               d="m 178.51562,136.98633 c 10e-6,-6.00586 1.44923,-10.66406 4.34961,-13.97461 L 41.443874,264.43308 c -2.90038,3.31055 -4.3496,7.96875 -4.34961,13.97461 z"
               id="path1753"
               inkscape:connector-curvature="0" />
            <path
               style="fill:#614466;fill-opacity:1"
               d="m 182.86523,123.01172 c 0.22426,-0.25823 0.45552,-0.50649 0.69379,-0.74475 L 42.137661,263.68832 c -0.238268,0.23827 -0.469531,0.48652 -0.693787,0.74476 z"
               id="path1755"
               inkscape:connector-curvature="0" />
            <path
               style="fill:#614466;fill-opacity:1"
               d="m 183.55902,122.26697 c 2.84334,-2.84335 6.68434,-4.26502 11.52301,-4.26502 L 53.660674,259.42331 c -4.838667,0 -8.679667,1.42167 -11.523013,4.26501 z"
               id="path1757"
               inkscape:connector-curvature="0" />
            <path
               style="fill:#614466;fill-opacity:1"
               d="m 195.08203,118.00195 c 2.34375,0 4.6582,0.32227 6.94336,0.9668 L 60.604034,260.39011 c -2.28516,-0.64453 -4.59961,-0.9668 -6.94336,-0.9668 z"
               id="path1759"
               inkscape:connector-curvature="0" />
            <path
               style="fill:#614466;fill-opacity:1"
               d="m 202.02539,118.96875 c 2.31445,0.61523 4.61524,1.55273 6.90039,2.8125 L 67.504424,263.20261 c -2.28515,-1.25977 -4.58594,-2.19727 -6.90039,-2.8125 z"
               id="path1761"
               inkscape:connector-curvature="0" />
            <path
               style="fill:#614466;fill-opacity:1"
               d="m 208.92578,121.78125 v -7.55859 L 67.504424,255.64402 v 7.55859 z"
               id="path1763"
               inkscape:connector-curvature="0" />
            <path
               style="fill:#614466;fill-opacity:1"
               d="m 208.92578,114.22266 c -2.22656,-1.0254 -4.52734,-1.78711 -6.90039,-2.28516 L 60.604034,253.35886 c 2.37305,0.49805 4.67383,1.25976 6.90039,2.28516 z"
               id="path1765"
               inkscape:connector-curvature="0" />
            <path
               style="fill:#614466;fill-opacity:1"
               d="m 202.02539,111.9375 c -2.37305,-0.52734 -4.80469,-0.79102 -7.29492,-0.79102 L 53.309114,252.56784 c 2.49023,0 4.92187,0.26368 7.29492,0.79102 z"
               id="path1767"
               inkscape:connector-curvature="0" />
            <path
               style="fill:#614466;fill-opacity:1"
               d="m 148.01758,123.01172 c 2.46094,3.36914 3.6914,8.02734 3.6914,13.97461 L 10.287624,278.40769 c 0,-5.94727 -1.2304602,-10.60547 -3.6914002,-13.97461 z"
               id="path1769"
               inkscape:connector-curvature="0" />
            <path
               style="fill:#614466;fill-opacity:1"
               d="m 151.70898,136.98633 c 0,5.94726 -1.23046,10.6211 -3.6914,14.01953 L 6.5962238,292.42722 c 2.46094,-3.39843 3.6914002,-8.07227 3.6914002,-14.01953 z"
               id="path1771"
               inkscape:connector-curvature="0" />
            <path
               style="fill:#614466;fill-opacity:1"
               d="m 148.01758,151.00586 c -0.43688,0.60532 -0.90358,1.15622 -1.40009,1.65273 L 5.1961346,294.07995 c 0.4965095,-0.49651 0.9632096,-1.04742 1.4000892,-1.65273 z"
               id="path1773"
               inkscape:connector-curvature="0" />
            <path
               style="fill:#614466;fill-opacity:1"
               d="m 146.61749,152.65859 c -2.26703,2.26703 -5.15551,3.4 -8.66437,3.4 L -3.4682362,297.47995 c 3.50886176,0 6.3973442,-1.13298 8.6643708,-3.4 z"
               id="path1775"
               inkscape:connector-curvature="0" />
            <path
               style="fill:#614466;fill-opacity:1"
               d="m 137.95312,156.05859 c -4.27733,0 -7.64648,-1.68359 -10.10742,-5.05273 L -13.575656,292.42722 c 2.46094,3.36914 5.8300898,5.05273 10.1074198,5.05273 z"
               id="path1777"
               inkscape:connector-curvature="0" />
            <path
               style="fill:#614466;fill-opacity:1"
               d="m 127.8457,151.00586 c -2.43164,-3.39843 -3.64648,-8.07227 -3.64648,-14.01953 L -17.222136,278.40769 c 0,5.94726 1.21484,10.6211 3.64648,14.01953 z"
               id="path1779"
               inkscape:connector-curvature="0" />
            <path
               style="fill:#614466;fill-opacity:1"
               d="m 124.19922,136.98633 c 0,-5.94727 1.21484,-10.60547 3.64648,-13.97461 L -13.575656,264.43308 c -2.43164,3.36914 -3.64648,8.02734 -3.64648,13.97461 z"
               id="path1781"
               inkscape:connector-curvature="0" />
            <path
               style="fill:#614466;fill-opacity:1"
               d="m 127.8457,123.01172 c 0.30024,-0.36797 0.61349,-0.71414 0.93818,-1.03883 L -12.63748,263.39425 c -0.324689,0.32469 -0.637935,0.67086 -0.938176,1.03883 z"
               id="path1783"
               inkscape:connector-curvature="0" />
            <path
               style="fill:#614466;fill-opacity:1"
               d="m 128.78388,121.97289 c 5.70031,-5.70031 14.92776,-4.77991 19.2337,1.03883 L 6.5962238,264.43308 C 2.2902802,258.61434 -6.9371683,257.69394 -12.63748,263.39425 Z"
               id="path1785"
               inkscape:connector-curvature="0" />
          </g>
          <path
             style="font-size:90px;line-height:1.25;fill:#614466;fill-opacity:1"
             d="m 116.06836,93.173828 v 68.378902 h 8.13086 v -7.38281 c 3.50032,6.00507 9.66975,8.61086 15.73242,8.65625 5.97657,0 10.82422,-2.37305 14.54492,-7.11914 3.75,-4.74609 5.625,-10.98633 5.625,-18.7207 0,-7.73438 -1.875,-13.97461 -5.625,-18.72071 -3.7207,-4.74609 -8.56835,-7.11914 -14.54492,-7.11914 -3.60351,0 -6.70899,0.71875 -9.31641,2.1543 -2.57812,1.40625 -4.71679,3.57422 -6.41601,6.50391 V 93.173828 Z M 72.123047,95.941406 47.074219,161.55273 h 9.361328 l 5.976562,-16.83203 h 29.574219 l 5.976563,16.83203 h 9.228519 L 82.1875,95.941406 Z m 5.009765,8.746094 12.085938,32.65039 H 65.091797 Z m 117.597658,6.45898 c -7.67578,0 -13.72461,2.30079 -18.14844,6.9004 -4.39453,4.5996 -6.5918,10.9121 -6.5918,18.93945 0.89081,16.04338 9.45969,25.66157 24.21289,25.83984 2.72462,0 5.28907,-0.26367 7.69141,-0.79101 2.43164,-0.52735 4.77539,-1.31836 7.03125,-2.37305 v -7.4707 c -2.28515,1.25976 -4.58594,2.21289 -6.90039,2.85742 -2.28516,0.61523 -4.59961,0.92187 -6.94336,0.92187 -5.24414,0 -9.3164,-1.65429 -12.2168,-4.96484 -2.90038,-3.33984 -4.34961,-8.01367 -4.34961,-14.01953 10e-6,-6.00586 1.44923,-10.66406 4.34961,-13.97461 2.9004,-3.33985 6.97266,-5.00977 12.2168,-5.00977 2.34375,0 4.6582,0.32227 6.94336,0.9668 2.31445,0.61523 4.61524,1.55273 6.90039,2.8125 v -7.55859 c -2.22656,-1.0254 -4.52734,-1.78711 -6.90039,-2.28516 -2.37305,-0.52734 -4.80469,-0.79102 -7.29492,-0.79102 z m -46.71289,11.86524 c 2.46094,3.36914 3.6914,8.02734 3.6914,13.97461 0,5.94726 -1.23046,10.6211 -3.6914,14.01953 -2.43164,3.36914 -5.78711,5.05273 -10.06446,5.05273 -4.27733,0 -7.64648,-1.68359 -10.10742,-5.05273 -2.43164,-3.39843 -3.64648,-8.07227 -3.64648,-14.01953 0,-5.94727 1.21484,-10.60547 3.64648,-13.97461 5.57133,-6.8281 15.62067,-6.15017 20.17188,0 z"
             id="path1789"
             inkscape:connector-curvature="0"
             sodipodi:nodetypes="ccccccscscccccccccccccccccscccccccscccsccccscscscscc" />
        </g>
      </g>
    </clipPath>
    <clipPath
       clipPathUnits="userSpaceOnUse"
       id="clipPath1170">
      <circle
         r="128"
         cy="924.36218"
         cx="128"
         id="circle1172"
         style="fill:#654869;fill-opacity:1;stroke:none;stroke-width:20;stroke-miterlimit:4;stroke-dasharray:none;stroke-opacity:1" />
    </clipPath>
    <clipPath
       clipPathUnits="userSpaceOnUse"
       id="clipPath1023">
      <ellipse
         style="fill:#8b6292;fill-opacity:1;stroke:none;stroke-width:20;stroke-miterlimit:4;stroke-dasharray:none;stroke-opacity:1"
         id="ellipse1025"
         cx="115.07809"
         cy="924.36218"
         rx="115.07809"
         ry="128"
         clip-path="url(#clipPath4193)" />
    </clipPath>
    <clipPath
       clipPathUnits="userSpaceOnUse"
       id="clipPath1025">
      <ellipse
         style="fill:#8b6292;fill-opacity:1;stroke:none;stroke-width:20;stroke-miterlimit:4;stroke-dasharray:none;stroke-opacity:1"
         id="ellipse1027"
         cx="115.07809"
         cy="924.36218"
         rx="115.07809"
         ry="128"
         clip-path="url(#clipPath4193)" />
    </clipPath>
    <clipPath
       clipPathUnits="userSpaceOnUse"
       id="clipPath1024">
      <circle
         r="128"
         cy="924.36218"
         cx="128"
         id="circle1026"
         style="fill:#654869;fill-opacity:1;stroke:none;stroke-width:20;stroke-miterlimit:4;stroke-dasharray:none;stroke-opacity:1" />
    </clipPath>
  </defs>
  <metadata
     id="metadata4154">
    <rdf:RDF>
      <cc:Work
         rdf:about="">
        <dc:format>image/svg+xml</dc:format>
        <dc:type
           rdf:resource="http://purl.org/dc/dcmitype/StillImage" />
        <dc:title />
      </cc:Work>
    </rdf:RDF>
  </metadata>
  <g
     inkscape:label="Layer 1"
     inkscape:groupmode="layer"
     id="layer1"
     transform="translate(0,-796.36216)">
    <circle
       style="fill:#654869;fill-opacity:1;stroke:none;stroke-width:20;stroke-miterlimit:4;stroke-dasharray:none;stroke-opacity:1"
       id="path4723"
       cx="128"
       cy="924.36218"
       r="128" />
    <g
       style="fill:#b8b8b8;fill-opacity:1"
       id="g1021"
       transform="translate(-2)" />
    <g
       id="g1032"
       clip-path="url(#clipPath1170)">
      <ellipse
         style="fill:#7e7e7e;fill-opacity:1;stroke:none;stroke-width:20;stroke-miterlimit:4;stroke-dasharray:none;stroke-opacity:1"
         id="circle4156"
         cx="125"
         cy="924.36218"
         rx="125"
         ry="128" />
      <g
         transform="translate(2)"
         style="fill:#9a9a9a;fill-opacity:1"
         id="g1009">
        <ellipse
           style="fill:#9a9a9a;fill-opacity:1;stroke:none;stroke-width:20;stroke-miterlimit:4;stroke-dasharray:none;stroke-opacity:1"
           id="ellipse1006"
           cx="119"
           cy="924.36218"
           rx="125"
           ry="128" />
      </g>
      <ellipse
         ry="128"
         rx="125"
         cy="924.36218"
         cx="119"
         id="ellipse1019"
         style="fill:#b8b8b8;fill-opacity:1;stroke:none;stroke-width:20;stroke-miterlimit:4;stroke-dasharray:none;stroke-opacity:1"
         transform="translate(-2)" />
      <g
         transform="translate(-6)"
         id="g1017"
         style="fill:#cfcfcf;fill-opacity:1">
        <ellipse
           ry="128"
           rx="125"
           cy="924.36218"
           cx="119"
           id="ellipse1015"
           style="fill:#cfcfcf;fill-opacity:1;stroke:none;stroke-width:20;stroke-miterlimit:4;stroke-dasharray:none;stroke-opacity:1" />
      </g>
      <g
         transform="translate(-10)"
         id="g1013"
         style="fill:#ffffff;fill-opacity:1">
        <ellipse
           ry="128"
           rx="125"
           cy="924.36218"
           cx="119"
           id="ellipse1011"
           style="fill:#ffffff;fill-opacity:1;stroke:none;stroke-width:20;stroke-miterlimit:4;stroke-dasharray:none;stroke-opacity:1" />
      </g>
    </g>
    <ellipse
       clip-path="url(#clipPath4193)"
       ry="128"
       rx="115.07809"
       cy="924.36218"
       cx="115.07809"
       id="circle4189"
       style="fill:#8b6292;fill-opacity:1;stroke:none;stroke-width:20;stroke-miterlimit:4;stroke-dasharray:none;stroke-opacity:1" />
    <g
       aria-label="Abc"
       style="font-style:normal;font-weight:normal;line-height:0%;font-family:sans-serif;letter-spacing:0px;word-spacing:0px;fill:#614466;fill-opacity:1;stroke:none;stroke-width:1px;stroke-linecap:butt;stroke-linejoin:miter;stroke-opacity:1"
       id="g849"
       clip-path="url(#clipPath1070)">
      <g
         id="g982"
         transform="translate(0,796.36216)"
         style="fill:#614466;fill-opacity:1">
        <g
           id="g979"
           style="font-size:90px;line-height:1.25;fill:#614466;fill-opacity:1">
          <path
             id="path879"
             d="M116.06836 93.173828L116.06836 161.55273L-25.3529962373 302.974086237L-25.3529962373 234.595184237Z"
             style="fill:#614466;fill-opacity:1" />
          <path
             id="path881"
             d="M116.06836 161.55273L124.19922 161.55273L-17.2221362373 302.974086237L-25.3529962373 302.974086237Z"
             style="fill:#614466;fill-opacity:1" />
          <path
             id="path883"
             d="M124.19922 161.55273L124.19922 154.16992L-17.2221362373 295.591276237L-17.2221362373 302.974086237Z"
             style="fill:#614466;fill-opacity:1" />
          <path
             id="path885"
             d="M124.19922 154.16992C127.69954 160.17499 133.86897 162.78078 139.93164 162.82617L-1.48971623731 304.247526237C-7.55238623731 304.202136237 -13.7218162373 301.596346237 -17.2221362373 295.591276237Z"
             style="fill:#614466;fill-opacity:1" />
          <path
             id="path887"
             d="M139.93164 162.82617C145.032770183 162.82617 149.311483591 161.097406112 152.769005148 157.639884555L11.3476489111 299.061240792C7.89012735352 302.51876235 3.61141394565 304.247526237 -1.48971623731 304.247526237Z"
             style="fill:#614466;fill-opacity:1" />
          <path
             id="path889"
             d="M152.769005148 157.639884555C153.362374055 157.046515648 153.931556942 156.402230786 154.47656 155.70703L13.0552037627 297.128386237C12.5102007045 297.823587023 11.9410178178 298.467871885 11.3476489111 299.061240792Z"
             style="fill:#614466;fill-opacity:1" />
          <path
             id="path891"
             d="M154.47656 155.70703C158.22656 150.96094 160.10156 144.7207 160.10156 136.98633L18.6802037627 278.407686237C18.6802037627 286.142056237 16.8052037627 292.382296237 13.0552037627 297.128386237Z"
             style="fill:#614466;fill-opacity:1" />
          <path
             id="path893"
             d="M160.10156 136.98633C160.10156 129.25195 158.22656 123.01172 154.47656 118.26562L13.0552037627 259.686976237C16.8052037627 264.433076237 18.6802037627 270.673306237 18.6802037627 278.407686237Z"
             style="fill:#614466;fill-opacity:1" />
          <path
             id="path895"
             d="M154.47656 118.26562C150.75586 113.51953 145.90821 111.14648 139.93164 111.14648L-1.48971623731 252.567836237C4.48685376269 252.567836237 9.33450376269 254.940886237 13.0552037627 259.686976237Z"
             style="fill:#614466;fill-opacity:1" />
          <path
             id="path897"
             d="M139.93164 111.14648C136.32813 111.14648 133.22265 111.86523 130.61523 113.30078L-10.8061262373 254.722136237C-8.19870623731 253.286586237 -5.09322623731 252.567836237 -1.48971623731 252.567836237Z"
             style="fill:#614466;fill-opacity:1" />
          <path
             id="path899"
             d="M130.61523 113.30078C129.379880833 113.974608125 128.245429692 114.823327691 127.211876576 115.846938698L-14.2094796618 257.268294935C-13.1759265455 256.244683928 -12.041475404 255.395964362 -10.8061262373 254.722136237Z"
             style="fill:#614466;fill-opacity:1" />
          <path
             id="path901"
             d="M127.211876576 115.846938698C126.088449275 116.959559358 125.084230417 118.278809792 124.19922 119.80469L-17.2221362373 261.226046237C-16.3371258206 259.700166029 -15.3329069621 258.380915595 -14.2094796618 257.268294935Z"
             style="fill:#614466;fill-opacity:1" />
          <path
             id="path903"
             d="M124.19922 119.80469L124.19922 93.173828L-17.2221362373 234.595184237L-17.2221362373 261.226046237Z"
             style="fill:#614466;fill-opacity:1" />
          <path
             id="path905"
             d="M72.123047 95.941406L47.074219 161.55273L-94.3471372373 302.974086237L-69.2983092373 237.362762237Z"
             style="fill:#614466;fill-opacity:1" />
          <path
             id="path907"
             d="M47.074219 161.55273L56.435547 161.55273L-84.9858092373 302.974086237L-94.3471372373 302.974086237Z"
             style="fill:#614466;fill-opacity:1" />
          <path
             id="path909"
             d="M56.435547 161.55273L62.412109 144.7207L-79.0092472373 286.142056237L-84.9858092373 302.974086237Z"
             style="fill:#614466;fill-opacity:1" />
          <path
             id="path911"
             d="M62.412109 144.7207L91.986328 144.7207L-49.4350282373 286.142056237L-79.0092472373 286.142056237Z"
             style="fill:#614466;fill-opacity:1" />
          <path
             id="path913"
             d="M91.986328 144.7207L97.962891 161.55273L-43.4584652373 302.974086237L-49.4350282373 286.142056237Z"
             style="fill:#614466;fill-opacity:1" />
          <path
             id="path915"
             d="M97.962891 161.55273L107.19141 161.55273L-34.2299462373 302.974086237L-43.4584652373 302.974086237Z"
             style="fill:#614466;fill-opacity:1" />
          <path
             id="path917"
             d="M107.19141 161.55273L82.1875 95.941406L-59.2338562373 237.362762237L-34.2299462373 302.974086237Z"
             style="fill:#614466;fill-opacity:1" />
          <path
             id="path919"
             d="M77.132812 104.6875L89.21875 137.33789L-52.2026062373 278.759246237L-64.2885442373 246.108856237Z"
             style="fill:#614466;fill-opacity:1" />
          <path
             id="path921"
             d="M89.21875 137.33789L65.091797 137.33789L-76.3295592373 278.759246237L-52.2026062373 278.759246237Z"
             style="fill:#614466;fill-opacity:1" />
          <path
             id="path923"
             d="M194.73047 111.14648C187.226618569 111.14648 181.277649805 113.34535427 176.881741831 117.741262245L35.4603855933 259.162618482C39.8562935682 254.766710508 45.8052623313 252.567836237 53.3091137627 252.567836237Z"
             style="fill:#614466;fill-opacity:1" />
          <path
             id="path925"
             d="M176.881741831 117.741262245C176.781022597 117.841981479 176.681118661 117.943854071 176.58203 118.04688L35.1606737627 259.468236237C35.2597624234 259.365210309 35.3596663596 259.263337716 35.4603855933 259.162618482Z"
             style="fill:#614466;fill-opacity:1" />
          <path
             id="path927"
             d="M176.58203 118.04688C172.1875 122.64648 169.99023 128.95898 169.99023 136.98633L28.5688737627 278.407686237C28.5688737627 270.380336237 30.7661437627 264.067836237 35.1606737627 259.468236237Z"
             style="fill:#614466;fill-opacity:1" />
          <path
             id="path929"
             d="M169.99023 136.98633C170.88104 153.02971 179.44992 162.6479 194.20312 162.82617L52.7817637627 304.247526237C38.0285637627 304.069256237 29.4596837627 294.451066237 28.5688737627 278.407686237Z"
             style="fill:#614466;fill-opacity:1" />
          <path
             id="path931"
             d="M194.20312 162.82617C196.92774 162.82617 199.49219 162.5625 201.89453 162.03516L60.4731737627 303.456516237C58.0708337627 303.983856237 55.5063837627 304.247526237 52.7817637627 304.247526237Z"
             style="fill:#614466;fill-opacity:1" />
          <path
             id="path933"
             d="M201.89453 162.03516C204.32617 161.50781 206.66992 160.7168 208.92578 159.66211L67.5044237627 301.083466237C65.2485637627 302.138156237 62.9048137627 302.929166237 60.4731737627 303.456516237Z"
             style="fill:#614466;fill-opacity:1" />
          <path
             id="path935"
             d="M208.92578 159.66211L208.92578 152.19141L67.5044237627 293.612766237L67.5044237627 301.083466237Z"
             style="fill:#614466;fill-opacity:1" />
          <path
             id="path937"
             d="M208.92578 152.19141C206.64063 153.45117 204.33984 154.4043 202.02539 155.04883L60.6040337627 296.470186237C62.9184837627 295.825656237 65.2192737627 294.872526237 67.5044237627 293.612766237Z"
             style="fill:#614466;fill-opacity:1" />
          <path
             id="path939"
             d="M202.02539 155.04883C199.74023 155.66406 197.42578 155.9707 195.08203 155.9707L53.6606737627 297.392056237C56.0044237627 297.392056237 58.3188737627 297.085416237 60.6040337627 296.470186237Z"
             style="fill:#614466;fill-opacity:1" />
          <path
             id="path941"
             d="M195.08203 155.9707C189.83789 155.9707 185.76563 154.31641 182.86523 151.00586L41.4438737627 292.427216237C44.3442737627 295.737766237 48.4165337627 297.392056237 53.6606737627 297.392056237Z"
             style="fill:#614466;fill-opacity:1" />
          <path
             id="path943"
             d="M182.86523 151.00586C179.96485 147.66602 178.51562 142.99219 178.51562 136.98633L37.0942637627 278.407686237C37.0942637627 284.413546237 38.5434937627 289.087376237 41.4438737627 292.427216237Z"
             style="fill:#614466;fill-opacity:1" />
          <path
             id="path945"
             d="M178.51562 136.98633C178.51563 130.98047 179.96485 126.32227 182.86523 123.01172L41.4438737627 264.433076237C38.5434937627 267.743626237 37.0942737627 272.401826237 37.0942637627 278.407686237Z"
             style="fill:#614466;fill-opacity:1" />
          <path
             id="path947"
             d="M182.86523 123.01172C183.089486649 122.753485422 183.320748983 122.505234121 183.559017011 122.266966093L42.1376607739 263.688322331C41.8993927458 263.926590359 41.6681304119 264.174841659 41.4438737627 264.433076237Z"
             style="fill:#614466;fill-opacity:1" />
          <path
             id="path949"
             d="M183.559017011 122.266966093C186.402363692 119.423619413 190.243362785 118.00195 195.08203 118.00195L53.6606737627 259.423306237C48.8220065472 259.423306237 44.9810074544 260.84497565 42.1376607739 263.688322331Z"
             style="fill:#614466;fill-opacity:1" />
          <path
             id="path951"
             d="M195.08203 118.00195C197.42578 118.00195 199.74023 118.32422 202.02539 118.96875L60.6040337627 260.390106237C58.3188737627 259.745576237 56.0044237627 259.423306237 53.6606737627 259.423306237Z"
             style="fill:#614466;fill-opacity:1" />
          <path
             id="path953"
             d="M202.02539 118.96875C204.33984 119.58398 206.64063 120.52148 208.92578 121.78125L67.5044237627 263.202606237C65.2192737627 261.942836237 62.9184837627 261.005336237 60.6040337627 260.390106237Z"
             style="fill:#614466;fill-opacity:1" />
          <path
             id="path955"
             d="M208.92578 121.78125L208.92578 114.22266L67.5044237627 255.644016237L67.5044237627 263.202606237Z"
             style="fill:#614466;fill-opacity:1" />
          <path
             id="path957"
             d="M208.92578 114.22266C206.69922 113.19726 204.39844 112.43555 202.02539 111.9375L60.6040337627 253.358856237C62.9770837627 253.856906237 65.2778637627 254.618616237 67.5044237627 255.644016237Z"
             style="fill:#614466;fill-opacity:1" />
          <path
             id="path959"
             d="M202.02539 111.9375C199.65234 111.41016 197.2207 111.14648 194.73047 111.14648L53.3091137627 252.567836237C55.7993437627 252.567836237 58.2309837627 252.831516237 60.6040337627 253.358856237Z"
             style="fill:#614466;fill-opacity:1" />
          <path
             id="path961"
             d="M148.01758 123.01172C150.47852 126.38086 151.70898 131.03906 151.70898 136.98633L10.2876237627 278.407686237C10.2876237627 272.460416237 9.05716376269 267.802216237 6.59622376269 264.433076237Z"
             style="fill:#614466;fill-opacity:1" />
          <path
             id="path963"
             d="M151.70898 136.98633C151.70898 142.93359 150.47852 147.60743 148.01758 151.00586L6.59622376269 292.427216237C9.05716376269 289.028786237 10.2876237627 284.354946237 10.2876237627 278.407686237Z"
             style="fill:#614466;fill-opacity:1" />
          <path
             id="path965"
             d="M148.01758 151.00586C147.580700473 151.611175051 147.11400031 152.162081638 146.617490821 152.658591127L5.19613458336 294.079947364C5.69264407246 293.583437875 6.15934423521 293.032531289 6.59622376269 292.427216237Z"
             style="fill:#614466;fill-opacity:1" />
          <path
             id="path967"
             d="M146.617490821 152.658591127C144.350464236 154.925617712 141.4619818 156.05859 137.95312 156.05859L-3.46823623731 297.479946237C0.0406255626076 297.479946237 2.9291079987 296.346973949 5.19613458336 294.079947364Z"
             style="fill:#614466;fill-opacity:1" />
          <path
             id="path969"
             d="M137.95312 156.05859C133.67579 156.05859 130.30664 154.375 127.8457 151.00586L-13.5756562373 292.427216237C-11.1147162373 295.796356237 -7.74556623731 297.479946237 -3.46823623731 297.479946237Z"
             style="fill:#614466;fill-opacity:1" />
          <path
             id="path971"
             d="M127.8457 151.00586C125.41406 147.60743 124.19922 142.93359 124.19922 136.98633L-17.2221362373 278.407686237C-17.2221362373 284.354946237 -16.0072962373 289.028786237 -13.5756562373 292.427216237Z"
             style="fill:#614466;fill-opacity:1" />
          <path
             id="path973"
             d="M124.19922 136.98633C124.19922 131.03906 125.41406 126.38086 127.8457 123.01172L-13.5756562373 264.433076237C-16.0072962373 267.802216237 -17.2221362373 272.460416237 -17.2221362373 278.407686237Z"
             style="fill:#614466;fill-opacity:1" />
          <path
             id="path975"
             d="M127.8457 123.01172C128.145941085 122.643751104 128.459187085 122.297581016 128.783876666 121.972891436L-12.6374795717 263.394247673C-12.962169152 263.718937254 -13.2754151524 264.065107341 -13.5756562373 264.433076237Z"
             style="fill:#614466;fill-opacity:1" />
          <path
             id="path977"
             d="M128.783876666 121.972891436C134.484187961 116.272580141 143.711636432 117.192984992 148.01758 123.01172L6.59622376269 264.433076237C2.29028019424 258.614341229 -6.93716827623 257.693936378 -12.6374795717 263.394247673Z"
             style="fill:#614466;fill-opacity:1" />
        </g>
        <path
           sodipodi:nodetypes="ccccccscscccccccccccccccccscccccccscccsccccscscscscc"
           inkscape:connector-curvature="0"
           id="path843"
           d="m 116.06836,93.173828 v 68.378902 h 8.13086 v -7.38281 c 3.50032,6.00507 9.66975,8.61086 15.73242,8.65625 5.97657,0 10.82422,-2.37305 14.54492,-7.11914 3.75,-4.74609 5.625,-10.98633 5.625,-18.7207 0,-7.73438 -1.875,-13.97461 -5.625,-18.72071 -3.7207,-4.74609 -8.56835,-7.11914 -14.54492,-7.11914 -3.60351,0 -6.70899,0.71875 -9.31641,2.1543 -2.57812,1.40625 -4.71679,3.57422 -6.41601,6.50391 V 93.173828 Z M 72.123047,95.941406 47.074219,161.55273 h 9.361328 l 5.976562,-16.83203 h 29.574219 l 5.976563,16.83203 h 9.228519 L 82.1875,95.941406 Z m 5.009765,8.746094 12.085938,32.65039 H 65.091797 Z m 117.597658,6.45898 c -7.67578,0 -13.72461,2.30079 -18.14844,6.9004 -4.39453,4.5996 -6.5918,10.9121 -6.5918,18.93945 0.89081,16.04338 9.45969,25.66157 24.21289,25.83984 2.72462,0 5.28907,-0.26367 7.69141,-0.79101 2.43164,-0.52735 4.77539,-1.31836 7.03125,-2.37305 v -7.4707 c -2.28515,1.25976 -4.58594,2.21289 -6.90039,2.85742 -2.28516,0.61523 -4.59961,0.92187 -6.94336,0.92187 -5.24414,0 -9.3164,-1.65429 -12.2168,-4.96484 -2.90038,-3.33984 -4.34961,-8.01367 -4.34961,-14.01953 10e-6,-6.00586 1.44923,-10.66406 4.34961,-13.97461 2.9004,-3.33985 6.97266,-5.00977 12.2168,-5.00977 2.34375,0 4.6582,0.32227 6.94336,0.9668 2.31445,0.61523 4.61524,1.55273 6.90039,2.8125 v -7.55859 c -2.22656,-1.0254 -4.52734,-1.78711 -6.90039,-2.28516 -2.37305,-0.52734 -4.80469,-0.79102 -7.29492,-0.79102 z m -46.71289,11.86524 c 2.46094,3.36914 3.6914,8.02734 3.6914,13.97461 0,5.94726 -1.23046,10.6211 -3.6914,14.01953 -2.43164,3.36914 -5.78711,5.05273 -10.06446,5.05273 -4.27733,0 -7.64648,-1.68359 -10.10742,-5.05273 -2.43164,-3.39843 -3.64648,-8.07227 -3.64648,-14.01953 0,-5.94727 1.21484,-10.60547 3.64648,-13.97461 5.57133,-6.8281 15.62067,-6.15017 20.17188,0 z"
           style="font-size:90px;line-height:1.25;fill:#614466;fill-opacity:1"
           transform="" />
      </g>
    </g>
    <g
       id="text4152"
       style="font-style:normal;font-weight:normal;line-height:0%;font-family:sans-serif;letter-spacing:0px;word-spacing:0px;fill:#ffffff;fill-opacity:1;stroke:none;stroke-width:1px;stroke-linecap:butt;stroke-linejoin:miter;stroke-opacity:1"
       aria-label="Abc">
      <path
         id="path836"
         style="font-size:90px;line-height:1.25;fill:#ffffff;fill-opacity:1"
         d="m 77.133301,901.04919 -12.041016,32.65137 h 24.125977 z m -5.009766,-8.74511 h 10.063477 l 25.004878,65.61035 H 97.963379 L 91.986816,941.08337 H 62.411621 l -5.976562,16.83106 h -9.360352 z" />
      <path
         id="path838"
         style="font-size:90px;line-height:1.25;fill:#ffffff;fill-opacity:1"
         d="m 151.7085,933.349 q 0,-8.9209 -3.69141,-13.97461 -3.64746,-5.09766 -10.06348,-5.09766 -6.41601,0 -10.10742,5.09766 -3.64746,5.05371 -3.64746,13.97461 0,8.9209 3.64746,14.01855 3.69141,5.05371 10.10742,5.05371 6.41602,0 10.06348,-5.05371 3.69141,-5.09765 3.69141,-14.01855 z m -27.50977,-17.18262 q 2.54883,-4.39453 6.41602,-6.5039 3.91113,-2.15332 9.3164,-2.15332 8.96485,0 14.5459,7.11914 5.625,7.11914 5.625,18.7207 0,11.60156 -5.625,18.7207 -5.58105,7.11914 -14.5459,7.11914 -5.40527,0 -9.3164,-2.10937 -3.86719,-2.15332 -6.41602,-6.54785 v 7.38281 h -8.12988 v -68.37891 h 8.12988 z" />
      <path
         id="path840"
         style="font-size:90px;line-height:1.25;fill:#ffffff;fill-opacity:1"
         d="m 208.92529,910.58533 v 7.55859 q -3.42773,-1.88965 -6.89941,-2.8125 -3.42774,-0.9668 -6.94336,-0.9668 -7.86621,0 -12.2168,5.00977 -4.35058,4.96582 -4.35058,13.97461 0,9.00879 4.35058,14.01855 4.35059,4.96582 12.2168,4.96582 3.51562,0 6.94336,-0.92285 3.47168,-0.96679 6.89941,-2.85644 v 7.4707 q -3.38379,1.58203 -7.03125,2.37305 -3.60351,0.79101 -7.69043,0.79101 -11.11816,0 -17.66601,-6.9873 -6.54785,-6.98731 -6.54785,-18.85254 0,-12.04102 6.59179,-18.94043 6.63575,-6.89941 18.14942,-6.89941 3.73535,0 7.29492,0.79101 3.55957,0.74707 6.89941,2.28516 z" />
    </g>
    <rect
       style="opacity:1;fill:#a63030;fill-opacity:1;stroke:none;stroke-width:36.28070831;stroke-linecap:butt;stroke-linejoin:round;stroke-miterlimit:4;stroke-dasharray:none;stroke-opacity:1"
       id="rect1019"
       width="40.150944"
       height="200"
       x="0"
       y="824.36218"
       clip-path="url(#clipPath1024)" />
  </g>
</svg>
