<?xml version="1.0" encoding="UTF-8" standalone="no"?>
<!-- Created with Inkscape (http://www.inkscape.org/) -->
<svg id="svg3786" xmlns:rdf="http://www.w3.org/1999/02/22-rdf-syntax-ns#" xmlns="http://www.w3.org/2000/svg" height="48" width="48" version="1.0" xmlns:cc="http://creativecommons.org/ns#" xmlns:xlink="http://www.w3.org/1999/xlink" xmlns:dc="http://purl.org/dc/elements/1.1/">
 <metadata id="metadata39">
  <rdf:RDF>
   <cc:Work rdf:about="">
    <dc:format>image/svg+xml</dc:format>
    <dc:type rdf:resource="http://purl.org/dc/dcmitype/StillImage"/>
    <dc:title/>
   </cc:Work>
  </rdf:RDF>
 </metadata>
 <defs id="defs3788">
  <linearGradient id="linearGradient5060">
   <stop id="stop5062" offset="0"/>
   <stop id="stop5064" style="stop-opacity:0" offset="1"/>
  </linearGradient>
  <linearGradient id="linearGradient4072" y2="15" gradientUnits="userSpaceOnUse" x2="25.25" gradientTransform="translate(-.25 1)" y1="39" x1="25.25">
   <stop id="stop4099" style="stop-color:#acacac" offset="0"/>
   <stop id="stop4101" style="stop-color:#b6b6b6" offset=".25"/>
   <stop id="stop4103" style="stop-color:#d9d9d9" offset=".25"/>
   <stop id="stop4105" style="stop-color:#d4d4d4" offset="1"/>
  </linearGradient>
  <radialGradient id="radialGradient4075" xlink:href="#linearGradient5060" gradientUnits="userSpaceOnUse" cy="486.65" cx="605.71" gradientTransform="matrix(-.044847 0 0 .020588 32.611 31.451)" r="117.14"/>
  <radialGradient id="radialGradient4078" xlink:href="#linearGradient5060" gradientUnits="userSpaceOnUse" cy="486.65" cx="605.71" gradientTransform="matrix(.044847 0 0 .020588 15.389 31.451)" r="117.14"/>
  <linearGradient id="linearGradient4081" y2="609.51" gradientUnits="userSpaceOnUse" x2="302.86" gradientTransform="matrix(.076357 0 0 .020588 -3.5974 31.451)" y1="366.65" x1="302.86">
   <stop id="stop5050" style="stop-opacity:0" offset="0"/>
   <stop id="stop5056" offset=".5"/>
   <stop id="stop5052" style="stop-opacity:0" offset="1"/>
  </linearGradient>
  <linearGradient id="linearGradient7778" y2="3" xlink:href="#linearGradient7772" gradientUnits="userSpaceOnUse" x2="12" y1="24" x1="12"/>
  <linearGradient id="linearGradient7772">
   <stop id="stop7774" style="stop-color:#979797" offset="0"/>
   <stop id="stop7776" style="stop-color:#e3e3e3" offset="1"/>
  </linearGradient>
  <linearGradient id="linearGradient7805" y2="24" xlink:href="#linearGradient7799" gradientUnits="userSpaceOnUse" x2="12" x1="12"/>
  <linearGradient id="linearGradient7799">
   <stop id="stop7801" style="stop-color:#fff" offset="0"/>
   <stop id="stop7803" style="stop-color:#fff;stop-opacity:0" offset="1"/>
  </linearGradient>
  <clipPath id="clipPath7793" clipPathUnits="userSpaceOnUse">
   <path id="path7795" style="fill:url(#linearGradient7797)" d="m11 2v1.2871 0.63281a0.50005 0.50005 0 0 1 -0.014 0.1153c-0.027 0.1176-0.097 0.3211-0.254 0.4511-0.156 0.13-0.268 0.1503-0.402 0.1992-0.3546 0.1296-0.7564 0.1989-1.1972 0.3926-0.3558 0.1564-0.6342 0.3025-0.8476 0.416-0.2135 0.1136-0.2804 0.1946-0.5547 0.2559-0.0226 0.005-0.1164 0.0365-0.2578 0.0156-0.1415-0.0208-0.1962-0.0603-0.2539-0.0898-0.2072-0.1059-0.3938-0.2648-0.6739-0.5449l-0.9082-0.9082-0.707 0.707-0.707 0.707 0.9101 0.9102 0.4453 0.4453a0.50005 0.50005 0 0 1 0.070312 0.089844c0.0641 0.1029 0.1597 0.2951 0.1426 0.4981s-0.0824 0.2998-0.1426 0.4297c-0.1599 0.3453-0.3946 0.6751-0.5683 1.123-0.1406 0.3625-0.2347 0.6613-0.3047 0.8922-0.070047 0.23132-0.05894 0.33434-0.21094 0.57422-0.012432 0.01962-0.056333 0.11061-0.17188 0.19531-0.11554 0.0847-0.1793 0.09364-0.24023 0.11328-0.2189 0.071-0.466 0.092-0.8633 0.092h-1.2891v1 1h1.2891 0.63086a0.50005 0.50005 0 0 1 0.11523 0.01367c0.11763 0.02762 0.32119 0.09782 0.45117 0.25391s0.15026 0.26828 0.19922 0.40234c0.12953 0.35467 0.19883 0.75646 0.39258 1.1973 0.15642 0.35589 0.30248 0.63411 0.41602 0.84766 0.11353 0.21355 0.19435 0.27993 0.25586 0.55469 0.00482 0.02152 0.037071 0.11492 0.015625 0.25781s-0.060718 0.19506-0.089844 0.25195c-0.10579 0.20664-0.26472 0.39362-0.54492 0.67383l-0.9082 0.91016 0.70703 0.70703 0.70703 0.70703 0.91016-0.91016 0.44531-0.44531a0.50005 0.50005 0 0 1 0.089844 -0.07031c0.10284-0.0641 0.29507-0.15965 0.49805-0.14258 0.20298 0.01708 0.29981 0.08243 0.42969 0.14258 0.3453 0.15991 0.67514 0.3946 1.123 0.56836 0.36247 0.14062 0.66126 0.23464 0.89258 0.30469s0.33434 0.05894 0.57422 0.21094c0.01961 0.01243 0.1106 0.05633 0.19531 0.17188 0.08471 0.11554 0.09364 0.17929 0.11328 0.24023 0.071 0.218 0.092 0.465 0.092 0.862v1.289h1 1v-1.2891-0.63086a0.50005 0.50005 0 0 1 0.01367 -0.11523c0.02762-0.11763 0.09782-0.32119 0.25391-0.45117 0.15609-0.12999 0.26828-0.15026 0.40234-0.19922 0.35468-0.12954 0.75646-0.19883 1.1973-0.39258 0.35589-0.15642 0.63411-0.30248 0.84766-0.41602 0.21355-0.11353 0.27993-0.19435 0.55469-0.25586 0.02154-0.0048 0.11493-0.03708 0.25781-0.01563s0.19507 0.06072 0.25195 0.08984c0.20667 0.1058 0.39363 0.26472 0.67383 0.54492l0.91016 0.9082 0.70703-0.70703 0.70703-0.70703-0.91016-0.91016-0.44531-0.44531a0.50005 0.50005 0 0 1 -0.07031 -0.08984c-0.06411-0.10284-0.15966-0.29507-0.14258-0.49805s0.08243-0.29981 0.14258-0.42969c0.15991-0.3453 0.3946-0.67514 0.56836-1.123 0.14062-0.36247 0.23464-0.66126 0.30469-0.89258s0.05894-0.33434 0.21094-0.57422c0.01243-0.01961 0.05633-0.1106 0.17188-0.19531 0.11554-0.08471 0.17929-0.09364 0.24023-0.11328 0.218-0.071 0.465-0.092 0.862-0.092h1.289v-2h-1.2891-0.63086a0.50005 0.50005 0 0 1 -0.115 -0.014c-0.118-0.027-0.321-0.097-0.451-0.254-0.13-0.156-0.151-0.268-0.2-0.402-0.129-0.3546-0.198-0.7564-0.392-1.1972-0.157-0.356-0.303-0.6342-0.416-0.8476-0.114-0.2135-0.194-0.2813-0.256-0.5547-0.004-0.0182-0.038-0.1029-0.02-0.2481 0.019-0.1451 0.062-0.201 0.092-0.2597 0.106-0.2076 0.265-0.3957 0.545-0.6758l0.91-0.9102-0.707-0.707-0.707-0.707-0.91 0.9101-0.445 0.4453a0.50005 0.50005 0 0 1 -0.08984 0.070312c-0.103 0.0641-0.295 0.1597-0.498 0.1426s-0.3-0.0824-0.43-0.1426c-0.345-0.1599-0.675-0.3946-1.123-0.5683-0.362-0.1407-0.661-0.2361-0.892-0.3067-0.232-0.0705-0.336-0.0593-0.575-0.2109-0.019-0.0121-0.11-0.056-0.195-0.1719s-0.094-0.1811-0.113-0.2422c-0.071-0.2187-0.092-0.464-0.092-0.8613v-1.2871h-1-1zm1 5c2.76 0 5 2.24 5 5s-2.24 5-5 5-5-2.24-5-5 2.24-5 5-5z"/>
  </clipPath>
  <linearGradient id="linearGradient3326" y2="17" xlink:href="#linearGradient7799" gradientUnits="userSpaceOnUse" y1="7" x2="12" x1="12"/>
 </defs>
 <g id="layer1">
  <g id="g4092" transform="translate(0,-2)">
   <rect id="rect2723" style="opacity:.3;fill:url(#linearGradient4081)" height="5" width="36.869" y="39" x="5.5653"/>
   <path id="path2725" style="opacity:.3;fill:url(#radialGradient4078)" d="m42.417 39v4.9997c2.309 0.009 5.583-1.12 5.583-2.5s-2.577-2.5-5.583-2.5z"/>
   <path id="path2727" style="opacity:.3;fill:url(#radialGradient4075)" d="m5.5833 39v4.9997c-2.3095 0.009-5.5833-1.12-5.5833-2.5s2.5773-2.5 5.5833-2.5z"/>
  </g>
  <path id="rect6431" style="fill:url(#linearGradient4072);enable-background:new;fill-rule:evenodd" d="m9.75 12.5c-0.8098 0-2.035 0.16781-2.2188 0.84375l-6.2812 20.656 1 5.5h43.094l0.90625-5.5312-6.7812-20.625c-0.16-0.548-1.06-0.844-1.719-0.844z"/>
  <path id="path3856" d="m10 12.5c-0.8098 0-2.035 0.16781-2.2188 0.84375l-6.2812 21.125 45 0.031-6.781-21.156c-0.16-0.548-1.06-0.844-1.719-0.844zm36.5 22h-45l1 6h43.094z" style="enable-background:new;fill:none"/>
  <path id="path3873" d="m9.75 12.5c-0.8098 0-2.035 0.16781-2.2188 0.84375l-6.2812 20.656 1 5.5h43.094l0.90625-5.5312-6.7812-20.625c-0.16-0.548-1.06-0.844-1.719-0.844z" style="opacity:0.41;stroke:#000;enable-background:new;fill:none"/>
  <rect id="rect3875" style="opacity:0.41;fill:#fff" ry=".5" height="1" width="44" y="33" x="2"/>
  <path id="path4161" style="opacity:.5;fill:#fff;enable-background:new;fill-rule:evenodd" d="m9.75 13c-0.3704 0-0.8618 0.051-1.2188 0.156-0.3569 0.105-0.5104 0.236-0.5312 0.313v0.031l-6.2188 20.5 0.125 0.625 6.0938-20.125v-0.031c0.0208-0.077 0.1743-0.208 0.5312-0.313 0.357-0.105 0.8484-0.156 1.2188-0.156h28c0.25465 0 0.59151 0.07771 0.84375 0.1875s0.39017 0.2262 0.40625 0.28125v0.031l6.625 20.125 0.094-0.656-6.719-20.469v-0.031c-0.016-0.055-0.154-0.172-0.406-0.281-0.252-0.11-0.589-0.188-0.844-0.188h-28z"/>
  <path id="path3912" style="opacity:.4;block-progression:tb;text-indent:0;color:#000000;text-transform:none;fill:#fff" d="m9.5 14.375c-0.3437 0-0.625 0.2813-0.625 0.625s0.2813 0.625 0.625 0.625 0.625-0.2813 0.625-0.625-0.2813-0.625-0.625-0.625zm28 0c-0.3437 0-0.625 0.2813-0.625 0.625s0.2813 0.625 0.625 0.625 0.625-0.2813 0.625-0.625-0.2813-0.625-0.625-0.625zm-33 17c-0.3437 0-0.625 0.2813-0.625 0.625s0.2813 0.625 0.625 0.625 0.625-0.2813 0.625-0.625-0.2813-0.625-0.625-0.625zm38 0c-0.3437 0-0.625 0.2813-0.625 0.625s0.2813 0.625 0.625 0.625 0.625-0.2813 0.625-0.625-0.2813-0.625-0.625-0.625z"/>
  <path id="path3905" style="opacity:.4;block-progression:tb;text-indent:0;color:#000000;text-transform:none" d="m9.5 13.875c-0.3437 0-0.625 0.281-0.625 0.625s0.2813 0.625 0.625 0.625 0.625-0.281 0.625-0.625-0.2813-0.625-0.625-0.625zm28 0c-0.344 0-0.625 0.281-0.625 0.625s0.281 0.625 0.625 0.625 0.625-0.281 0.625-0.625-0.281-0.625-0.625-0.625zm-33 17c-0.3437 0-0.625 0.281-0.625 0.625s0.2813 0.625 0.625 0.625 0.625-0.281 0.625-0.625-0.2813-0.625-0.625-0.625zm38 0c-0.344 0-0.625 0.281-0.625 0.625s0.281 0.625 0.625 0.625 0.625-0.281 0.625-0.625-0.281-0.625-0.625-0.625z"/>
  <g id="g3010" transform="translate(24 -1)">
   <path id="path7924" style="opacity:.1;stroke-linejoin:round;stroke:#000;stroke-linecap:round;stroke-width:3" d="m10.5 26.5v0.5 1.2871 0.63281c-0.04317 0.18387-0.07779 0.20046-0.3418 0.29688-0.2729 0.09967-0.72711 0.18477-1.2266 0.4043-0.7444 0.32719-1.168 0.60876-1.3105 0.64062-0.071285 0.01593-0.070239 0.02173-0.17383-0.03125s-0.2892-0.1935-0.54883-0.45312l-1.2617-1.2617-1.0605 1.0605-1.0605 1.0605 1.2637 1.2637 0.44531 0.44531c0.10056 0.16133 0.088614 0.19851-0.029297 0.45312-0.12196 0.26336-0.38456 0.64331-0.58203 1.1523-0.29436 0.75879-0.39309 1.2584-0.4707 1.3809-0.038806 0.06124-0.033791 0.06391-0.14453 0.09961-0.111 0.036-0.3415 0.069-0.7092 0.069h-1.7891v1.5 1.5h1.7891 0.63086c0.18387 0.04317 0.20046 0.07779 0.29688 0.3418 0.099667 0.2729 0.18477 0.7271 0.4043 1.2266 0.32722 0.74448 0.60887 1.1687 0.64062 1.3105 0.015877 0.07093 0.021704 0.06844-0.03125 0.17188-0.052954 0.10343-0.19344 0.28915-0.45312 0.54883l-1.2617 1.2637 1.0605 1.0605 1.0605 1.0605 1.2637-1.2637 0.44531-0.44531c0.16133-0.10056 0.19851-0.08861 0.45312 0.0293 0.26336 0.12196 0.64331 0.38456 1.1523 0.58203 0.75879 0.29436 1.2584 0.39309 1.3809 0.4707 0.06124 0.03881 0.06391 0.03379 0.09961 0.14453s0.06836 0.34128 0.06836 0.70898v1.7891h1.5 1.5v-1.7891-0.63086c0.04317-0.18387 0.07779-0.20046 0.3418-0.29688 0.2729-0.09967 0.7271-0.18477 1.2266-0.4043 0.74448-0.32722 1.1687-0.60887 1.3105-0.64062 0.07093-0.01588 0.06844-0.0217 0.17188 0.03125 0.10343 0.05295 0.28915 0.19344 0.54883 0.45312l1.2637 1.2617 1.0605-1.0605 1.0605-1.0605-1.2637-1.2637-0.44531-0.44531c-0.10056-0.16134-0.08861-0.19851 0.0293-0.45312 0.12196-0.26336 0.38456-0.64331 0.58203-1.1523 0.29436-0.75879 0.39309-1.2584 0.4707-1.3809 0.03881-0.06124 0.03379-0.06391 0.14453-0.09961s0.34128-0.06836 0.70898-0.06836h1.7891v-3h-1.7891-0.63086c-0.18387-0.04317-0.20046-0.07779-0.29688-0.3418-0.09967-0.2729-0.18477-0.7271-0.4043-1.2266-0.3273-0.74466-0.60861-1.1685-0.64062-1.3105-0.01601-0.07104-0.02345-0.06865 0.0293-0.17188 0.05274-0.10322 0.1935-0.2892 0.45312-0.54883l1.2637-1.2637-1.0605-1.0605-1.0605-1.0605-1.2637 1.2637-0.44531 0.44531c-0.16134 0.10056-0.19851 0.08861-0.45312-0.0293-0.26336-0.12196-0.64331-0.38456-1.1523-0.58203-0.7586-0.29429-1.2582-0.39473-1.3809-0.47266-0.06133-0.03897-0.06384-0.03349-0.09961-0.14453-0.037-0.113-0.07-0.343-0.07-0.711v-1.7871h-1.5-1.5zm1.5 6c2.4912 0 4.5 2.0088 4.5 4.5s-2.0088 4.5-4.5 4.5-4.5-2.0088-4.5-4.5 2.0088-4.5 4.5-4.5z"/>
   <path id="path7807" d="m10.5 26.5v0.5 1.2871 0.63281c-0.04317 0.18387-0.07779 0.20046-0.3418 0.29688-0.2729 0.09967-0.72711 0.18477-1.2266 0.4043-0.7444 0.32719-1.168 0.60876-1.3105 0.64062-0.071285 0.01593-0.070239 0.02173-0.17383-0.03125s-0.2892-0.1935-0.54883-0.45312l-1.2617-1.2617-1.0605 1.0605-1.0605 1.0605 1.2637 1.2637 0.44531 0.44531c0.10056 0.16133 0.088614 0.19851-0.029297 0.45312-0.12196 0.26336-0.38456 0.64331-0.58203 1.1523-0.29436 0.75879-0.39309 1.2584-0.4707 1.3809-0.038806 0.06124-0.033791 0.06391-0.14453 0.09961-0.111 0.036-0.3415 0.069-0.7092 0.069h-1.7891v1.5 1.5h1.7891 0.63086c0.18387 0.04317 0.20046 0.07779 0.29688 0.3418 0.099667 0.2729 0.18477 0.7271 0.4043 1.2266 0.32722 0.74448 0.60887 1.1687 0.64062 1.3105 0.015877 0.07093 0.021704 0.06844-0.03125 0.17188-0.052954 0.10343-0.19344 0.28915-0.45312 0.54883l-1.2617 1.2637 1.0605 1.0605 1.0605 1.0605 1.2637-1.2637 0.44531-0.44531c0.16133-0.10056 0.19851-0.08861 0.45312 0.0293 0.26336 0.12196 0.64331 0.38456 1.1523 0.58203 0.75879 0.29436 1.2584 0.39309 1.3809 0.4707 0.06124 0.03881 0.06391 0.03379 0.09961 0.14453s0.06836 0.34128 0.06836 0.70898v1.7891h1.5 1.5v-1.7891-0.63086c0.04317-0.18387 0.07779-0.20046 0.3418-0.29688 0.2729-0.09967 0.7271-0.18477 1.2266-0.4043 0.74448-0.32722 1.1687-0.60887 1.3105-0.64062 0.07093-0.01588 0.06844-0.0217 0.17188 0.03125 0.10343 0.05295 0.28915 0.19344 0.54883 0.45312l1.2637 1.2617 1.0605-1.0605 1.0605-1.0605-1.2637-1.2637-0.44531-0.44531c-0.10056-0.16134-0.08861-0.19851 0.0293-0.45312 0.12196-0.26336 0.38456-0.64331 0.58203-1.1523 0.29436-0.75879 0.39309-1.2584 0.4707-1.3809 0.03881-0.06124 0.03379-0.06391 0.14453-0.09961s0.34128-0.06836 0.70898-0.06836h1.7891v-3h-1.7891-0.63086c-0.18387-0.04317-0.20046-0.07779-0.29688-0.3418-0.09967-0.2729-0.18477-0.7271-0.4043-1.2266-0.3273-0.74466-0.60861-1.1685-0.64062-1.3105-0.01601-0.07104-0.02345-0.06865 0.0293-0.17188 0.05274-0.10322 0.1935-0.2892 0.45312-0.54883l1.2637-1.2637-1.0605-1.0605-1.0605-1.0605-1.2637 1.2637-0.44531 0.44531c-0.16134 0.10056-0.19851 0.08861-0.45312-0.0293-0.26336-0.12196-0.64331-0.38456-1.1523-0.58203-0.7586-0.29429-1.2582-0.39473-1.3809-0.47266-0.06133-0.03897-0.06384-0.03349-0.09961-0.14453-0.037-0.113-0.07-0.343-0.07-0.711v-1.7871h-1.5-1.5zm1.5 6c2.4912 0 4.5 2.0088 4.5 4.5s-2.0088 4.5-4.5 4.5-4.5-2.0088-4.5-4.5 2.0088-4.5 4.5-4.5z" style="opacity:.2;stroke-linejoin:round;stroke:#000;stroke-linecap:round"/>
   <path id="circle7735" d="m10.5 1.5v0.5 1.2871 0.63281c-0.04317 0.18387-0.07779 0.20046-0.3418 0.29688-0.2729 0.09967-0.72711 0.18477-1.2266 0.4043-0.7444 0.32719-1.168 0.60876-1.3105 0.64062-0.071285 0.01593-0.070239 0.02173-0.17383-0.03125-0.1036-0.053-0.2892-0.1935-0.5489-0.4532l-1.2617-1.2617-1.0605 1.0606-1.0606 1.0605 1.2637 1.2637 0.4453 0.4453c0.10056 0.16133 0.088614 0.19851-0.029297 0.45312-0.1219 0.2634-0.3845 0.6433-0.582 1.1524-0.2944 0.7588-0.3931 1.2588-0.4707 1.3808-0.038806 0.06124-0.033791 0.06391-0.14453 0.09961-0.1108 0.035-0.3413 0.068-0.709 0.068h-1.7891v1.5 1.5h1.7891 0.63086c0.18387 0.04317 0.20046 0.07779 0.29688 0.3418 0.099667 0.2729 0.18477 0.7271 0.4043 1.2266 0.32722 0.74448 0.60887 1.1687 0.64062 1.3105 0.015877 0.07093 0.021704 0.06844-0.03125 0.17188-0.052954 0.10343-0.19344 0.28915-0.45312 0.54883l-1.2617 1.2637 1.0605 1.0605 1.0605 1.0605 1.2637-1.2637 0.44531-0.44531c0.16133-0.10056 0.19851-0.08861 0.45312 0.0293 0.26336 0.12196 0.64331 0.38456 1.1523 0.58203 0.75879 0.29436 1.2584 0.39309 1.3809 0.4707 0.06124 0.03881 0.06391 0.03379 0.09961 0.14453s0.06836 0.34128 0.06836 0.70898v1.7891h1.5 1.5v-1.7891-0.63086c0.04317-0.18387 0.07779-0.20046 0.3418-0.29688 0.2729-0.09967 0.7271-0.18477 1.2266-0.4043 0.74448-0.32722 1.1687-0.60887 1.3105-0.64062 0.07093-0.01588 0.06844-0.0217 0.17188 0.03125 0.10343 0.05295 0.28915 0.19344 0.54883 0.45312l1.2637 1.2617 1.0605-1.0605 1.0605-1.0605-1.2637-1.2637-0.44531-0.44531c-0.10056-0.16134-0.08861-0.19851 0.0293-0.45312 0.12196-0.26336 0.38456-0.64331 0.58203-1.1523 0.29436-0.75879 0.39309-1.2584 0.4707-1.3809 0.03881-0.06124 0.03379-0.06391 0.14453-0.09961s0.34128-0.06836 0.70898-0.06836h1.7891v-3h-1.7891-0.63086c-0.18388-0.04317-0.20046-0.07779-0.29688-0.3418-0.09967-0.2729-0.18477-0.72711-0.4043-1.2266-0.3273-0.74466-0.60861-1.1685-0.64062-1.3105-0.01601-0.07104-0.02345-0.06865 0.0293-0.17188 0.05274-0.10322 0.1935-0.2892 0.45312-0.54883l1.262-1.2657-1.06-1.0605-1.061-1.0606-1.263 1.2637-0.446 0.4453c-0.16134 0.10056-0.19851 0.088613-0.45312-0.029297-0.263-0.1219-0.643-0.3845-1.152-0.582-0.759-0.2943-1.258-0.3947-1.381-0.4727-0.061-0.0389-0.064-0.0335-0.1-0.1445-0.035-0.111-0.068-0.3413-0.068-0.709v-1.7871h-1.5-1.5zm1.5 6c2.4912 0 4.5 2.0088 4.5 4.5s-2.0088 4.5-4.5 4.5-4.5-2.009-4.5-4.5c0-2.4912 2.0088-4.5 4.5-4.5z" style="fill:url(#linearGradient7778)" transform="translate(0,24)"/>
   <path id="path7770" d="m10.5 1.5v0.5 1.2871 0.63281c-0.04317 0.18387-0.07779 0.20046-0.3418 0.29688-0.2729 0.09967-0.72711 0.18477-1.2266 0.4043-0.7444 0.32719-1.168 0.60876-1.3105 0.64062-0.071285 0.01593-0.070239 0.02173-0.17383-0.03125-0.1036-0.053-0.2892-0.1935-0.5489-0.4532l-1.2617-1.2617-1.0605 1.0606-1.0606 1.0605 1.2637 1.2637 0.4453 0.4453c0.10056 0.16133 0.088614 0.19851-0.029297 0.45312-0.1219 0.2634-0.3845 0.6433-0.582 1.1524-0.2944 0.7588-0.3931 1.2588-0.4707 1.3808-0.038806 0.06124-0.033791 0.06391-0.14453 0.09961-0.1108 0.035-0.3413 0.068-0.709 0.068h-1.7891v1.5 1.5h1.7891 0.63086c0.18387 0.04317 0.20046 0.07779 0.29688 0.3418 0.099667 0.2729 0.18477 0.7271 0.4043 1.2266 0.32722 0.74448 0.60887 1.1687 0.64062 1.3105 0.015877 0.07093 0.021704 0.06844-0.03125 0.17188-0.052954 0.10343-0.19344 0.28915-0.45312 0.54883l-1.2617 1.2637 1.0605 1.0605 1.0605 1.0605 1.2637-1.2637 0.44531-0.44531c0.16133-0.10056 0.19851-0.08861 0.45312 0.0293 0.26336 0.12196 0.64331 0.38456 1.1523 0.58203 0.75879 0.29436 1.2584 0.39309 1.3809 0.4707 0.06124 0.03881 0.06391 0.03379 0.09961 0.14453s0.06836 0.34128 0.06836 0.70898v1.7891h1.5 1.5v-1.7891-0.63086c0.04317-0.18387 0.07779-0.20046 0.3418-0.29688 0.2729-0.09967 0.7271-0.18477 1.2266-0.4043 0.74448-0.32722 1.1687-0.60887 1.3105-0.64062 0.07093-0.01588 0.06844-0.0217 0.17188 0.03125 0.10343 0.05295 0.28915 0.19344 0.54883 0.45312l1.2637 1.2617 1.0605-1.0605 1.0605-1.0605-1.2637-1.2637-0.44531-0.44531c-0.10056-0.16134-0.08861-0.19851 0.0293-0.45312 0.12196-0.26336 0.38456-0.64331 0.58203-1.1523 0.29436-0.75879 0.39309-1.2584 0.4707-1.3809 0.03881-0.06124 0.03379-0.06391 0.14453-0.09961s0.34128-0.06836 0.70898-0.06836h1.7891v-3h-1.7891-0.63086c-0.18388-0.04317-0.20046-0.07779-0.29688-0.3418-0.09967-0.2729-0.18477-0.72711-0.4043-1.2266-0.3273-0.74466-0.60861-1.1685-0.64062-1.3105-0.01601-0.07104-0.02345-0.06865 0.0293-0.17188 0.05274-0.10322 0.1935-0.2892 0.45312-0.54883l1.262-1.2657-1.06-1.0605-1.061-1.0606-1.263 1.2637-0.446 0.4453c-0.16134 0.10056-0.19851 0.088613-0.45312-0.029297-0.263-0.1219-0.643-0.3845-1.152-0.582-0.759-0.2943-1.258-0.3947-1.381-0.4727-0.061-0.0389-0.064-0.0335-0.1-0.1445-0.035-0.111-0.068-0.3413-0.068-0.709v-1.7871h-1.5-1.5zm1.5 6c2.4912 0 4.5 2.0088 4.5 4.5s-2.0088 4.5-4.5 4.5-4.5-2.009-4.5-4.5c0-2.4912 2.0088-4.5 4.5-4.5z" style="opacity:.4;stroke-linejoin:round;stroke:#000;stroke-linecap:round;fill:none" transform="translate(0,24)"/>
   <path id="path7780" d="m11 2v1.2871 0.63281a0.50005 0.50005 0 0 1 -0.014 0.1153c-0.027 0.1176-0.097 0.3211-0.254 0.4511-0.156 0.13-0.268 0.1503-0.402 0.1992-0.3546 0.1296-0.7564 0.1989-1.1972 0.3926-0.3558 0.1564-0.6342 0.3025-0.8476 0.416-0.2135 0.1136-0.2804 0.1946-0.5547 0.2559-0.0226 0.005-0.1164 0.0365-0.2578 0.0156-0.1415-0.0208-0.1962-0.0603-0.2539-0.0898-0.2072-0.1059-0.3938-0.2648-0.6739-0.5449l-0.9082-0.9082-0.707 0.707-0.707 0.707 0.9101 0.9102 0.4453 0.4453a0.50005 0.50005 0 0 1 0.070312 0.089844c0.0641 0.1029 0.1597 0.2951 0.1426 0.4981s-0.0824 0.2998-0.1426 0.4297c-0.1599 0.3453-0.3946 0.6751-0.5683 1.123-0.1406 0.3625-0.2347 0.6613-0.3047 0.8922-0.070047 0.23132-0.05894 0.33434-0.21094 0.57422-0.012432 0.01962-0.056333 0.11061-0.17188 0.19531-0.11554 0.0847-0.1793 0.09364-0.24023 0.11328-0.2189 0.071-0.466 0.092-0.8633 0.092h-1.2891v1 1h1.2891 0.63086a0.50005 0.50005 0 0 1 0.11523 0.01367c0.11763 0.02762 0.32119 0.09782 0.45117 0.25391s0.15026 0.26828 0.19922 0.40234c0.12953 0.35467 0.19883 0.75646 0.39258 1.1973 0.15642 0.35589 0.30248 0.63411 0.41602 0.84766 0.11353 0.21355 0.19435 0.27993 0.25586 0.55469 0.00482 0.02152 0.037071 0.11492 0.015625 0.25781s-0.060718 0.19506-0.089844 0.25195c-0.10579 0.20664-0.26472 0.39362-0.54492 0.67383l-0.9082 0.91016 0.70703 0.70703 0.70703 0.70703 0.91016-0.91016 0.44531-0.44531a0.50005 0.50005 0 0 1 0.089844 -0.07031c0.10284-0.0641 0.29507-0.15965 0.49805-0.14258 0.20298 0.01708 0.29981 0.08243 0.42969 0.14258 0.3453 0.15991 0.67514 0.3946 1.123 0.56836 0.36247 0.14062 0.66126 0.23464 0.89258 0.30469s0.33434 0.05894 0.57422 0.21094c0.01961 0.01243 0.1106 0.05633 0.19531 0.17188 0.08471 0.11554 0.09364 0.17929 0.11328 0.24023 0.071 0.218 0.092 0.465 0.092 0.862v1.289h1 1v-1.2891-0.63086a0.50005 0.50005 0 0 1 0.01367 -0.11523c0.02762-0.11763 0.09782-0.32119 0.25391-0.45117 0.15609-0.12999 0.26828-0.15026 0.40234-0.19922 0.35468-0.12954 0.75646-0.19883 1.1973-0.39258 0.35589-0.15642 0.63411-0.30248 0.84766-0.41602 0.21355-0.11353 0.27993-0.19435 0.55469-0.25586 0.02154-0.0048 0.11493-0.03708 0.25781-0.01563s0.19507 0.06072 0.25195 0.08984c0.20667 0.1058 0.39363 0.26472 0.67383 0.54492l0.91016 0.9082 0.70703-0.70703 0.70703-0.70703-0.91016-0.91016-0.44531-0.44531a0.50005 0.50005 0 0 1 -0.07031 -0.08984c-0.06411-0.10284-0.15966-0.29507-0.14258-0.49805s0.08243-0.29981 0.14258-0.42969c0.15991-0.3453 0.3946-0.67514 0.56836-1.123 0.14062-0.36247 0.23464-0.66126 0.30469-0.89258s0.05894-0.33434 0.21094-0.57422c0.01243-0.01961 0.05633-0.1106 0.17188-0.19531 0.11554-0.08471 0.17929-0.09364 0.24023-0.11328 0.218-0.071 0.465-0.092 0.862-0.092h1.289v-2h-1.2891-0.63086a0.50005 0.50005 0 0 1 -0.115 -0.014c-0.118-0.027-0.321-0.097-0.451-0.254-0.13-0.156-0.151-0.268-0.2-0.402-0.129-0.3546-0.198-0.7564-0.392-1.1972-0.157-0.356-0.303-0.6342-0.416-0.8476-0.114-0.2135-0.194-0.2813-0.256-0.5547-0.004-0.0182-0.038-0.1029-0.02-0.2481 0.019-0.1451 0.062-0.201 0.092-0.2597 0.106-0.2076 0.265-0.3957 0.545-0.6758l0.91-0.9102-0.707-0.707-0.707-0.707-0.91 0.9101-0.445 0.4453a0.50005 0.50005 0 0 1 -0.08984 0.070312c-0.103 0.0641-0.295 0.1597-0.498 0.1426s-0.3-0.0824-0.43-0.1426c-0.345-0.1599-0.675-0.3946-1.123-0.5683-0.362-0.1407-0.661-0.2361-0.892-0.3067-0.232-0.0705-0.336-0.0593-0.575-0.2109-0.019-0.0121-0.11-0.056-0.195-0.1719s-0.094-0.1811-0.113-0.2422c-0.071-0.2187-0.092-0.464-0.092-0.8613v-1.2871h-1-1zm1 5c2.76 0 5 2.24 5 5s-2.24 5-5 5-5-2.24-5-5 2.24-5 5-5z" style="fill:url(#linearGradient7778)" transform="translate(0,24)"/>
   <path id="path7789" style="opacity:.4;stroke-linejoin:round;stroke:url(#linearGradient7805);stroke-linecap:round;stroke-width:2;fill:none" d="m11 2v1.2871 0.63281c-0.00007 0.038812-0.0047 0.077484-0.01367 0.11523-0.02762 0.11763-0.09782 0.32119-0.25391 0.45117-0.156 0.13-0.268 0.1503-0.402 0.1992-0.3546 0.1296-0.7564 0.1989-1.1972 0.3926-0.3558 0.1564-0.6342 0.3025-0.8476 0.416-0.2135 0.1136-0.2804 0.1946-0.5547 0.2559-0.0226 0.005-0.1164 0.0365-0.2578 0.0156-0.1415-0.0208-0.1962-0.0603-0.2539-0.0898-0.2072-0.1059-0.3938-0.2648-0.6739-0.5449l-0.9082-0.9082-0.707 0.707-0.707 0.707 0.9101 0.9102 0.4453 0.4453c0.026788 0.027167 0.050379 0.057311 0.070312 0.089844 0.0641 0.1029 0.1597 0.2951 0.1426 0.4981s-0.0824 0.2998-0.1426 0.4297c-0.1599 0.3453-0.3946 0.6751-0.5683 1.123-0.1406 0.3625-0.2347 0.6613-0.3047 0.8922-0.070047 0.23132-0.05894 0.33434-0.21094 0.57422-0.012432 0.01962-0.056333 0.11061-0.17188 0.19531-0.11554 0.0847-0.1793 0.09364-0.24023 0.11328-0.2189 0.071-0.466 0.092-0.8633 0.092h-1.2891v1 1h1.2891 0.63086c0.038812 0.00007 0.077484 0.0047 0.11523 0.01367 0.11763 0.02762 0.32119 0.09782 0.45117 0.25391s0.15026 0.26828 0.19922 0.40234c0.12953 0.35467 0.19883 0.75646 0.39258 1.1973 0.15642 0.35589 0.30248 0.63411 0.41602 0.84766 0.11353 0.21355 0.19435 0.27993 0.25586 0.55469 0.00482 0.02152 0.037071 0.11492 0.015625 0.25781s-0.060718 0.19506-0.089844 0.25195c-0.10579 0.20664-0.26472 0.39362-0.54492 0.67383l-0.9082 0.91016 0.70703 0.70703 0.70703 0.70703 0.91016-0.91016 0.44531-0.44531c0.027167-0.02679 0.057311-0.05038 0.089844-0.07031 0.10284-0.0641 0.29507-0.15965 0.49805-0.14258 0.20298 0.01708 0.29981 0.08243 0.42969 0.14258 0.3453 0.15991 0.67514 0.3946 1.123 0.56836 0.36247 0.14062 0.66126 0.23464 0.89258 0.30469s0.33434 0.05894 0.57422 0.21094c0.01961 0.01243 0.1106 0.05633 0.19531 0.17188 0.08471 0.11554 0.09364 0.17929 0.11328 0.24023 0.071 0.219 0.092 0.466 0.092 0.863v1.289h1 1v-1.2891-0.63086c0.00007-0.03881 0.0047-0.07748 0.01367-0.11523 0.02762-0.11763 0.09782-0.32119 0.25391-0.45117 0.15609-0.12999 0.26828-0.15026 0.40234-0.19922 0.35468-0.12954 0.75646-0.19883 1.1973-0.39258 0.35589-0.15642 0.63411-0.30248 0.84766-0.41602 0.21355-0.11353 0.27993-0.19435 0.55469-0.25586 0.02154-0.0048 0.11493-0.03708 0.25781-0.01563s0.19507 0.06072 0.25195 0.08984c0.20667 0.1058 0.39363 0.26472 0.67383 0.54492l0.91016 0.9082 0.70703-0.70703 0.70703-0.70703-0.91016-0.91016-0.44531-0.44531c-0.02679-0.02717-0.05038-0.05731-0.07031-0.08984-0.06411-0.10284-0.15966-0.29507-0.14258-0.49805s0.08243-0.29981 0.14258-0.42969c0.15991-0.3453 0.3946-0.67514 0.56836-1.123 0.14062-0.36247 0.23464-0.66126 0.30469-0.89258s0.05894-0.33434 0.21094-0.57422c0.01243-0.01961 0.05633-0.1106 0.17188-0.19531 0.11554-0.08471 0.17929-0.09364 0.24023-0.11328 0.219-0.071 0.466-0.092 0.863-0.092h1.289v-2h-1.2891-0.63086c-0.03881-0.00007-0.07748-0.0047-0.11523-0.01367-0.118-0.027-0.321-0.097-0.451-0.254-0.13-0.156-0.151-0.268-0.2-0.402-0.129-0.3546-0.198-0.7564-0.392-1.1972-0.157-0.356-0.303-0.6342-0.416-0.8476-0.114-0.2135-0.194-0.2813-0.256-0.5547-0.004-0.0182-0.038-0.1029-0.02-0.2481 0.019-0.1451 0.062-0.201 0.092-0.2597 0.106-0.2076 0.265-0.3957 0.545-0.6758l0.91-0.9102-0.707-0.707-0.707-0.707-0.91 0.9101-0.445 0.4453c-0.02717 0.026788-0.05731 0.050379-0.08984 0.070312-0.10284 0.064109-0.29507 0.15966-0.49805 0.14258-0.203-0.0171-0.3-0.0824-0.43-0.1426-0.345-0.1599-0.675-0.3946-1.123-0.5683-0.362-0.1407-0.661-0.2361-0.892-0.3067-0.232-0.0705-0.336-0.0593-0.575-0.2109-0.019-0.0121-0.11-0.056-0.195-0.1719s-0.094-0.1811-0.113-0.2422c-0.071-0.2187-0.092-0.464-0.092-0.8613v-1.2871h-1z" clip-path="url(#clipPath7793)" transform="translate(0,24)"/>
   <path id="path7819" style="opacity:.4;stroke-linejoin:round;stroke:url(#linearGradient3326);stroke-linecap:round;stroke-width:2;fill:none" d="m12 7c2.76 0 5 2.24 5 5s-2.24 5-5 5-5-2.24-5-5 2.24-5 5-5z" clip-path="url(#clipPath7793)" transform="matrix(1,0,0,-1,0,48)"/>
  </g>
 </g>
</svg>
