<?xml version="1.0" encoding="UTF-8" standalone="no"?>
<!-- Created with Inkscape (http://www.inkscape.org/) -->
<svg id="svg3540" xmlns:rdf="http://www.w3.org/1999/02/22-rdf-syntax-ns#" xmlns="http://www.w3.org/2000/svg" height="48px" width="48px" version="1.1" xmlns:cc="http://creativecommons.org/ns#" xmlns:xlink="http://www.w3.org/1999/xlink" xmlns:dc="http://purl.org/dc/elements/1.1/">
 <defs id="defs3542">
  <linearGradient id="linearGradient5060-6">
   <stop id="stop5062-6" offset="0"/>
   <stop id="stop5064-2" style="stop-opacity:0" offset="1"/>
  </linearGradient>
  <filter id="filter6876-3" height="1.1596" width="1.2482" y="-.079811" x="-.12409" color-interpolation-filters="sRGB">
   <feGaussianBlur id="feGaussianBlur6878-2" stdDeviation="0.28308036"/>
  </filter>
  <filter id="filter5733-3" height="1.7146" width="1.1526" y="-.35729" x="-.076276" color-interpolation-filters="sRGB">
   <feGaussianBlur id="feGaussianBlur5735-1" stdDeviation="0.60003059"/>
  </filter>
  <linearGradient id="linearGradient5817-4">
   <stop id="stop5819-6" style="stop-color:#fff" offset="0"/>
   <stop id="stop5821-9" style="stop-color:#fff;stop-opacity:0" offset="1"/>
  </linearGradient>
  <linearGradient id="linearGradient5408" y2="23.059" gradientUnits="userSpaceOnUse" x2="35.315" y1="38.791" x1="38.907">
   <stop id="stop5536-3-5" style="stop-color:#414141" offset="0"/>
   <stop id="stop5538-3-1" style="stop-color:#bebebe" offset="1"/>
  </linearGradient>
  <radialGradient id="radialGradient5410" gradientUnits="userSpaceOnUse" cy="29.84" cx="30.128" gradientTransform="matrix(1.7481 0 0 1.7805 -23.043 -23.568)" r="6.9986">
   <stop id="stop5787-5" style="stop-color:#f2f2f2" offset="0"/>
   <stop id="stop5789-7" style="stop-color:#464646" offset="1"/>
  </radialGradient>
  <linearGradient id="linearGradient5418" y2="9.8352" xlink:href="#linearGradient5817-4" gradientUnits="userSpaceOnUse" x2="42.913" y1="9.4375" x1="40.546"/>
  <linearGradient id="linearGradient5423" y2="10.435" xlink:href="#linearGradient5817-4" gradientUnits="userSpaceOnUse" x2="38.537" gradientTransform="translate(-.01777 -.94639)" y1="8.6672" x1="38.449"/>
  <linearGradient id="linearGradient5427" y2="12.291" xlink:href="#linearGradient5817-4" gradientUnits="userSpaceOnUse" x2="38.626" gradientTransform="translate(-.01777 -.94639)" y1="8.6672" x1="38.449"/>
  <linearGradient id="linearGradient5432" y2="8.625" gradientUnits="userSpaceOnUse" x2="30.25" gradientTransform="matrix(1.053 0 0 1 -2.2628 -.94639)" y1="10.232" x1="30.25">
   <stop id="stop6834-7" style="stop-color:#505050" offset="0"/>
   <stop id="stop6836-0" style="stop-color:#737373" offset="1"/>
  </linearGradient>
  <linearGradient id="linearGradient5438" y2="40" gradientUnits="userSpaceOnUse" x2="14" gradientTransform="translate(1,2.75)" y1="35.844" x1="13.5">
   <stop id="stop5321" style="stop-color:#fff" offset="0"/>
   <stop id="stop5323" style="stop-color:#fff;stop-opacity:0" offset="1"/>
  </linearGradient>
  <linearGradient id="linearGradient5441" y2="43.121" gradientUnits="userSpaceOnUse" x2="23.238" gradientTransform="matrix(-.44862 0 .27932 .46891 19.645 25.692)" y1="17.459" x1="23.556">
   <stop id="stop4634-4-4-7-7-4" style="stop-color:#b4cee1" offset="0"/>
   <stop id="stop5298" style="stop-color:#5d9fcd" offset=".5"/>
   <stop id="stop4636-3-1-5-1-3" style="stop-color:#7aaacb" offset="1"/>
  </linearGradient>
  <linearGradient id="linearGradient5452" y2="32.114" gradientUnits="userSpaceOnUse" x2="28.121" gradientTransform="matrix(-.44862 0 .27932 .46891 19.645 25.692)" y1="19.318" x1="24.612">
   <stop id="stop4648-8-0-3-6" style="stop-color:#f9f9f9" offset="0"/>
   <stop id="stop4650-1-7-3-4" style="stop-color:#d8d8d8" offset="1"/>
  </linearGradient>
  <linearGradient id="linearGradient5461" y2="26.118" gradientUnits="userSpaceOnUse" x2="26.719" gradientTransform="translate(-.01777 1.2411)" y1="16.572" x1="27.445">
   <stop id="stop5739-8" style="stop-color:#babdb6" offset="0"/>
   <stop id="stop5741-1" style="stop-color:#dddedb" offset="1"/>
  </linearGradient>
  <linearGradient id="linearGradient5464" y2="49.359" gradientUnits="userSpaceOnUse" x2="23.892" gradientTransform="matrix(1 0 0 .99858 -.01777 3.0486)" y1="21.859" x1="21.5">
   <stop id="stop5510-6" style="stop-color:#fff" offset="0"/>
   <stop id="stop5512-2" style="stop-color:#fff;stop-opacity:0" offset="1"/>
  </linearGradient>
  <linearGradient id="linearGradient5468" y2="19.573" gradientUnits="userSpaceOnUse" x2="15.876" gradientTransform="matrix(1 0 0 1.0126 -.01777 2.7833)" y1="39.987" x1="15.876">
   <stop id="stop5493-1" style="stop-color:#444" offset="0"/>
   <stop id="stop5501-4" style="stop-color:#858585" offset=".25"/>
   <stop id="stop5499-3" style="stop-color:#a0a0a0" offset=".62437"/>
   <stop id="stop5771-3" style="stop-color:#fff" offset=".79696"/>
   <stop id="stop5495-2" style="stop-color:#90928d" offset="1"/>
  </linearGradient>
  <linearGradient id="linearGradient5498" y2="34" gradientUnits="userSpaceOnUse" x2="13" y1="24" x1="15">
   <stop id="stop5685-6" style="stop-color:#fff" offset="0"/>
   <stop id="stop5687-9" style="stop-color:#fff;stop-opacity:0" offset="1"/>
  </linearGradient>
  <linearGradient id="linearGradient5500" y2="35.908" gradientUnits="userSpaceOnUse" x2="11.412" gradientTransform="translate(2.5878 .8421)" y1="26.908" x1="10.412">
   <stop id="stop5392" style="stop-color:#f8f8f8" offset="0"/>
   <stop id="stop5394" style="stop-color:#c6c6c6" offset="1"/>
  </linearGradient>
  <radialGradient id="radialGradient6717" gradientUnits="userSpaceOnUse" cy="31.953" cx="34.312" gradientTransform="matrix(1 0 0 1.5548 0 -17.727)" r="2.2812">
   <stop id="stop6844-9" style="stop-color:#d8d9d7" offset="0"/>
   <stop id="stop6846-9" style="stop-color:#7c7f79" offset="1"/>
  </radialGradient>
  <linearGradient id="linearGradient4183" y2="17.861" xlink:href="#linearGradient5817-4" gradientUnits="userSpaceOnUse" x2="60.692" gradientTransform="matrix(.75 0 0 .75 -22.566 .29722)" y1="27.761" x1="46.876"/>
  <radialGradient id="radialGradient4245" xlink:href="#linearGradient5060-6" gradientUnits="userSpaceOnUse" cy="486.65" cx="605.71" gradientTransform="matrix(-.055574 0 0 .027949 42.161 30.718)" r="117.14"/>
  <radialGradient id="radialGradient4248" xlink:href="#linearGradient5060-6" gradientUnits="userSpaceOnUse" cy="486.65" cx="605.71" gradientTransform="matrix(.055574 0 0 .027949 2.0108 30.718)" r="117.14"/>
  <linearGradient id="linearGradient4251" y2="609.51" gradientUnits="userSpaceOnUse" x2="302.86" gradientTransform="matrix(.055574 0 0 .027949 1.9999 30.718)" y1="366.65" x1="302.86">
   <stop id="stop5050-8" style="stop-opacity:0" offset="0"/>
   <stop id="stop5056-0" offset=".5"/>
   <stop id="stop5052-6" style="stop-opacity:0" offset="1"/>
  </linearGradient>
  <linearGradient id="linearGradient4255" y2="17.861" xlink:href="#linearGradient5817-4" gradientUnits="userSpaceOnUse" x2="60.692" gradientTransform="matrix(.75 0 0 .75 -2.0156 8.7383)" y1="27.761" x1="46.876"/>
 </defs>
 <metadata id="metadata3545">
  <rdf:RDF>
   <cc:Work rdf:about="">
    <dc:format>image/svg+xml</dc:format>
    <dc:type rdf:resource="http://purl.org/dc/dcmitype/StillImage"/>
   </cc:Work>
  </rdf:RDF>
 </metadata>
 <g id="layer1">
  <path id="path5398" style="color:#000000;fill-rule:evenodd;fill:#5094c3" d="m20.653 39.113 18.567 0.28082c0.36016 0 0.4237 0.67686 0.4237 0.67686-0.7476 2.7901-3.8743 4.3557-5.9668 4.3557l-23.569 0.0323c7.2336-0.45208 7.7366-0.8855 8.3063-4.0394 0.48898-0.9883 1.4014-1.3063 2.2391-1.3063z"/>
  <rect id="rect3954" style="opacity:.24124;color:#000000;fill:url(#linearGradient4251)" height="6.7877" width="26.834" y="40.966" x="8.6688"/>
  <path id="path3956" style="opacity:.24124;color:#000000;fill:url(#radialGradient4248)" d="m35.503 40.966v6.7873c2.8619 0.01278 6.9188-1.5207 6.9188-3.3941s-3.1937-3.3932-6.9188-3.3932z"/>
  <path id="path3958" style="opacity:.24124;color:#000000;fill:url(#radialGradient4245)" d="m8.6688 40.966v6.7873c-2.8619 0.01278-6.9188-1.5207-6.9188-3.3941s3.1937-3.3932 6.9188-3.3932z"/>
  <path id="path5759" style="stroke-linejoin:round;stroke-opacity:.49804;color:#000000;stroke:#000;fill:none" d="m20.653 39.113 18.567 0.28082c0.36016 0 0.4237 0.67686 0.4237 0.67686-0.7476 2.7901-3.8743 4.3557-5.9668 4.3557l-23.569 0.0323c7.2336-0.45208 7.7366-0.8855 8.3063-4.0394 0.48898-0.9883 1.4014-1.3063 2.2391-1.3063z"/>
  <path id="path5472" style="stroke-width:.99715;color:#000000;stroke:#626262;stroke-linecap:square;fill:url(#linearGradient5468)" d="m9.9822 21.516c-3.588 0-6.5 4.99-6.5 11.138 0 6.1484 2.912 10.87 6.5 10.87 0.0857 0 0.16513-0.026 0.25-0.0316v0.0316h22.22v-22.034s-14.812 0.18883-22.47 0.0262z"/>
  <path id="path4585" style="stroke-width:.99715;color:#000000;stroke:url(#radialGradient5410);stroke-linecap:square;fill:url(#linearGradient5408)" d="m43.125 29.562a6.5 10.938 0 1 1 -13 0 6.5 10.938 0 1 1 13 0z" transform="matrix(1 0 0 1.0057 -3.6428 2.7597)"/>
  <path id="path5503" style="opacity:.41714;stroke-width:.99715;color:#000000;stroke:url(#linearGradient5464);stroke-linecap:square;fill:none" d="m32.456 22.49s-14.973 0.17419-21.947 0.0284c-3.2678 0-5.9198 4.4743-5.9198 9.9872 0 5.513 2.6521 9.9872 5.9198 9.9872 0.078 0 0.15039-0.0233 0.22769-0.0284v0.0284h21.719c3.2678 0 5.9198-4.4743 5.9198-9.9872 0-5.513-2.6521-9.9872-5.9198-9.9872z"/>
  <path id="path5477" style="fill:url(#linearGradient5461);fill-rule:evenodd" d="m22.17 7.5447c-1.0538 0-1.8945 0.46004-2.375 1.25l-5.9812 12.169-0.375 0.75h0.8125 1.125 0.3125l0.125-0.28125 5.6062-11.481c0.0971-0.15684 0.42421-0.40625 0.75-0.40625l21.672-0.093c0.20957-0.0156 0.28456 0.19864 0.21093 0.29688l-10.914 22.183-0.25 0.4375 0.4375 0.25 0.875 0.46875 0.4375 0.21875 0.25-0.4375 11.062-22.456c0.369-0.6255 0.24-1.3208-0.064-1.8746-0.336-0.6143-1.024-1.1129-1.906-1.0938l-21.812 0.1003z"/>
  <path id="rect5631" style="color:#000000;fill:url(#linearGradient5500)" d="m8.4688 25c-0.16198 0-0.24547 0.01326-0.28125 0.03125-1.9623 2.1326-2.1149 4.763-1.75 7.5625 0.36485 2.7995 1.2815 5.7054 1.4062 8.1875 0 0.15678 0.040343 0.34773 0.09375 0.4375 0.044506 0.07481 0.035694 0.09336 0.0625 0.09375 0.00536 0.000077 0.02353 0 0.03125 0l15.188-1.312h0.031c0.20308 0 0.34375-0.17192 0.34375-0.375-1.684-4.205-2.655-9.916 0.031-14.375v-0.03125l0.03125-0.03125c0.084-0.112 0.055-0.058 0.032-0.094-0.024-0.037-0.131-0.094-0.188-0.094z"/>
  <path id="path5677" style="color:#000000;stroke:url(#linearGradient5498);stroke-linecap:square;fill:none" d="m22.938 25.781c0.0089 0.01544 0.03128 0.06253 0.03125 0.0625 0.04943 0.03557 0.16065 0.14245 0.1875 0.15625 0.01367 0.007 0.08034 0.0217 0.09375 0.03125-0.1027-0.05547-0.2115-0.14209-0.3125-0.25zm-14.188 0.281c-1.4793 1.796-1.6455 3.914-1.3125 6.469 0.3287 2.522 1.1038 5.225 1.3125 7.781l13.625-1.187c-1.404-3.894-2.043-8.768-0.094-13.063h-13.531zm14.5 0c0.03083 0.01612 0.0462 0.0245 0.0625 0.03125-0.0043-0.0018 0.0045-0.02924 0-0.03125h-0.0625z" xlink:href="#rect5631"/>
  <path id="path5691" style="opacity:.20571;filter:url(#filter5733-3);fill-rule:evenodd" d="m7.9822 30.57 5.0823 0.17678 0.39775 1.37 10.032 0.7513 0.22098 1.0607-15.247-0.22097z"/>
  <path id="path5388" style="opacity:.3;color:#000000;stroke:#000;stroke-linecap:square;fill:none" d="m8.4769 24.491h15.029c0.47143 0 0.91345 0.50452 0.53845 1.0072-2.6009 4.317-1.6357 10.006 0.0625 14.14 0 0.47143-0.37952 0.85095-0.85095 0.85095l-15.217 1.313c-0.47142 0-0.6947-0.53577-0.6947-1.0072-0.23847-4.7456-3.7041-11.546 0.4817-16.095 0 0 0.17908-0.20856 0.6505-0.20856z"/>
  <path id="rect337" style="stroke-linejoin:round;stroke-opacity:.36691;color:#000000;fill-rule:evenodd;stroke:#000;fill:url(#linearGradient5452)" d="m12.69 33.25c-1.9 0.083-0.447-1.639-1.92-1.995-2.6363-0.077-6.92-0.009-6.92-0.009-0.85 0.504 0.15 2.504-0.8884 2.004-0.64887 0.0655-0.22944 1.597-0.22944 1.597 0.51319 3.1541 1.5657 6.5427 4.2378 8.5233 1.4857 1.1554 3.4031 1.0351 5.1738 1.0287 7.2377 0.01 14.475 0.0198 21.713 0.0297-3.1692-0.11676-6.2606-1.8208-7.8434-4.6068-0.94697-1.5629-1.5135-3.3292-1.8379-5.12 0 0-0.0109-1.3305-1.2182-1.3809-1.9573 0.0121-10.267-0.0709-10.267-0.0709z"/>
  <path id="path5795" style="opacity:.53143;fill:#fff;fill-rule:evenodd" d="m39.138 39.929c-0.25 1.8125-2.7188 3.5938-5.0625 4.0312 1.5173-0.61136 3.7734-1.2932 5.0625-4.0312z"/>
  <path id="path5302" style="color:#000000;fill-rule:evenodd;fill:url(#linearGradient5441)" d="m3.25 37.25c1.0494 3.8112 3.2413 7.1714 7.0312 7.1562l23.562 0.0312c-5.5742-0.34837-7.9343-4.0583-9-7.1875h-21.594z"/>
  <path id="path5317" style="opacity:.5;stroke-linejoin:round;stroke-opacity:.36691;color:#000000;stroke:url(#linearGradient5438);fill:none" d="m4.5169 38.21c1.6828 3.8904 3.8351 5.3004 6.7541 5.2852l16.713-0.008c-0.90245-0.50673-2.7083-2.1477-3.774-5.2769z"/>
  <path id="path5384" style="opacity:.4;stroke:#000;fill:none" d="m22.17 7.5447c-1.0538 0-1.8945 0.46004-2.375 1.25l-5.9812 12.169-0.375 0.75h0.8125 1.125 0.3125l0.125-0.28125 5.6062-11.481c0.0971-0.15684 0.42421-0.40625 0.75-0.40625l21.672-0.093c0.20957-0.0156 0.28456 0.19864 0.21093 0.29688l-10.914 22.183-0.25 0.4375 0.4375 0.25 0.875 0.46875 0.4375 0.21875 0.25-0.4375 11.062-22.456c0.369-0.6255 0.24-1.3208-0.064-1.8746-0.336-0.6143-1.024-1.1129-1.906-1.0938l-21.812 0.1003z"/>
  <path id="path6850" style="opacity:.38286;stroke-width:1.1361;color:#000000;filter:url(#filter6876-3);stroke:#2e3436;stroke-linecap:square;fill:#2e3436" d="m35.562 31.953a1.7812 3.0469 0 1 1 -3.5625 0 1.7812 3.0469 0 1 1 3.5625 0z" transform="matrix(1 0 0 .77472 -.52535 8.0968)"/>
  <path id="path6840" style="stroke-opacity:.35252;color:#000000;stroke:#000;stroke-linecap:square;fill:url(#radialGradient6717)" d="m35.562 31.953a1.7812 3.0469 0 1 1 -3.5625 0 1.7812 3.0469 0 1 1 3.5625 0z" transform="translate(-.01777 -.00889)"/>
  <rect id="rect6826" style="color:#000000;fill:url(#linearGradient5432)" rx="2" ry="2" height="4" width="19.875" y="6.5536" x="22.482"/>
  <rect id="rect5386" style="opacity:.4;color:#000000;stroke:#000;stroke-linecap:square;fill:none" rx="2" ry="2" height="4" width="19.875" y="6.5536" x="22.482"/>
  <path id="path5797" style="opacity:.53143;color:#000000;fill:url(#linearGradient5427)" d="m38.17 7.0721c-0.52345 0.13606-0.9375 0.73309-0.9375 1.4375 0 0.79095 0.50605 1.4464 1.125 1.4688 0.011 0.0004 0.0202 0 0.0312 0h2.25c0.0111 0 0.0202 0.0004 0.0312 0 0.61895-0.0223 1.125-0.6778 1.125-1.4688 0-0.79067-0.50637-1.4147-1.125-1.4375h-0.25-1.8125-0.21875c-0.0113 0-0.02-0.00041-0.0312 0-0.0675 0.002-0.12341-0.0167-0.1875 0z"/>
  <path id="path5829" style="opacity:.48571;color:#000000;fill:url(#linearGradient5418)" d="m41.719 9.4375a0.70312 1.1562 0 1 1 -1.4062 0 0.70312 1.1562 0 1 1 1.4062 0z" transform="matrix(1.2222 0 0 1 -9.2832 -.92429)"/>
  <path id="path5804" style="opacity:.53143;color:#000000;fill:url(#linearGradient5423)" d="m24.295 7.0849c-0.65867 0-1.25 0.63246-1.25 1.4375s0.57571 1.5156 1.2344 1.5156l1.5605 0.0339c-0.41891-0.18971-0.9365-0.70502-0.9365-1.5404 0-0.81977 0.56738-1.3238 0.89767-1.4714-0.30906-0.0446-1.219 0.0248-1.506 0.0248z"/>
  <path id="path5400" d="m3.25 37.25c1.0494 3.8112 3.2413 7.1714 7.0312 7.1562l23.562 0.0312c-5.5742-0.34837-7.9343-4.0583-9-7.1875h-21.594z" style="opacity:.4;stroke-linejoin:round;color:#000000;stroke:#000;fill:none"/>
  <path id="path7272" d="m15.067 20.919 4.4415-9.2817" style="stroke:url(#linearGradient4183);stroke-linecap:round;stroke-width:1px;fill:none"/>
  <path id="path4253" style="stroke:url(#linearGradient4255);stroke-linecap:round;stroke-width:1px;fill:none" d="m35.617 29.36 10.442-21.382"/>
  <path id="path4257" style="opacity:.3;stroke:#fff;stroke-linecap:round;stroke-width:1px;fill:none" d="m24.442 7.5303 15.028 0.066765"/>
  <path id="path4259" d="m24.486 9.6036 15.073 0.066765" style="opacity:.3;stroke:#000;stroke-linecap:round;stroke-width:1px;fill:none"/>
 </g>
</svg>
