<?xml version="1.0" encoding="UTF-8" standalone="no"?>
<!-- Created with Inkscape (http://www.inkscape.org/) -->
<svg id="svg3759" xmlns:rdf="http://www.w3.org/1999/02/22-rdf-syntax-ns#" xmlns="http://www.w3.org/2000/svg" height="48" width="48" version="1.1" xmlns:cc="http://creativecommons.org/ns#" xmlns:xlink="http://www.w3.org/1999/xlink" xmlns:dc="http://purl.org/dc/elements/1.1/">
 <metadata id="metadata37">
  <rdf:RDF>
   <cc:Work rdf:about="">
    <dc:format>image/svg+xml</dc:format>
    <dc:type rdf:resource="http://purl.org/dc/dcmitype/StillImage"/>
    <dc:title/>
   </cc:Work>
  </rdf:RDF>
 </metadata>
 <defs id="defs3761">
  <linearGradient id="linearGradient3874" y2="24" gradientUnits="userSpaceOnUse" x2="43.5" gradientTransform="matrix(0 -1 -1 0 48 48)" y1="24" x1="4.5">
   <stop id="stop3864-8-6-3-9" style="stop-color:#1c6aba" offset="0"/>
   <stop id="stop3866-9-1-7-5" style="stop-color:#4195ec" offset="1"/>
  </linearGradient>
  <linearGradient id="linearGradient3946" y2="24" gradientUnits="userSpaceOnUse" y1="24" gradientTransform="matrix(0 -1 1 0 0 48)" x2="44" x1="4">
   <stop id="stop3906-8" style="stop-color:#234683" offset="0"/>
   <stop id="stop3908-2" style="stop-color:#30589e" offset="1"/>
  </linearGradient>
 </defs>
 <g id="layer1">
  <path id="path4026" style="opacity:.05;block-progression:tb;text-indent:0;color:#000000;stroke:#000;stroke-width:2;text-transform:none" d="m24 5c-11.04 0-20 8.961-20 20 0 11.04 8.96 20 20 20s20-8.96 20-20c0-11.039-8.96-20-20-20z"/>
  <path id="path4024" d="m24 5c-11.04 0-20 8.961-20 20 0 11.04 8.96 20 20 20s20-8.96 20-20c0-11.039-8.96-20-20-20z" style="opacity:.1;block-progression:tb;text-indent:0;color:#000000;stroke:#000;text-transform:none"/>
  <path id="path4018" style="opacity:.2;block-progression:tb;text-indent:0;color:#000000;text-transform:none" d="m24 5c-11.04 0-20 8.961-20 20 0 11.04 8.96 20 20 20s20-8.96 20-20c0-11.039-8.96-20-20-20z"/>
  <path id="path6495" d="m4.5 23.999c0 10.77 8.731 19.501 19.5 19.501 10.77 0 19.5-8.7309 19.5-19.501 0-10.769-8.7306-19.499-19.5-19.499s-19.5 8.7299-19.5 19.499z" style="fill:url(#linearGradient3874)"/>
  <path id="path3872" style="opacity:.4;fill:#fff" d="m24 5c-10.499 0-19 8.501-19 19 0 0.169 0.0268 0.332 0.0312 0.5 0.2684-10.265 8.6388-18.5 18.969-18.5 10.329 0 18.7 8.235 18.969 18.5 0.004-0.168 0.031-0.331 0.031-0.5 0-10.499-8.502-19-19-19z"/>
  <path id="path3796" style="opacity:0.91;stroke:url(#linearGradient3946);fill:none" d="m23.999 4.5c10.77 0 19.501 8.731 19.501 19.5s-8.731 19.5-19.501 19.5c-10.769 0-19.499-8.731-19.499-19.5s8.73-19.5 19.499-19.5z"/>
  <path id="path3366" style="opacity:.1;fill:#fff" d="m24 43c-10.499 0-19-8.501-19-19 0-0.169 0.0268-0.332 0.0312-0.5 0.2684 10.265 8.6388 18.5 18.969 18.5 10.329 0 18.7-8.235 18.969-18.5 0.004 0.168 0.031 0.331 0.031 0.5 0 10.499-8.502 19-19 19z"/>
 </g>
 <g id="layer2">
  <path id="path4065" style="opacity:.3;enable-background:new" d="m20.565 35.072c0-0.53966 0.07744-0.99562 0.23236-1.3691 0.1549-0.37226 0.36976-0.67334 0.64584-0.90318 0.27483-0.22986 0.59962-0.39601 0.97314-0.49968 0.37226-0.10244 0.77077-0.1549 1.1955-0.1549 0.40226 0 0.78451 0.05246 1.1455 0.1549 0.36103 0.10368 0.67958 0.26982 0.95566 0.49968 0.27483 0.22985 0.4922 0.53092 0.65334 0.90318 0.16114 0.37352 0.24109 0.82948 0.24109 1.3691 0 0.51718-0.07995 0.9594-0.24109 1.3267-0.16114 0.36602-0.37851 0.67208-0.65334 0.91318-0.27607 0.23985-0.59463 0.41475-0.95566 0.52467-0.36 0.108-0.743 0.163-1.145 0.163-0.42473 0-0.82323-0.05497-1.1955-0.16365-0.37352-0.10992-0.69831-0.28482-0.97314-0.52467-0.27608-0.2411-0.49094-0.54716-0.64584-0.91318-0.1549-0.36727-0.23236-0.80949-0.23236-1.3267m0.56839-5.8888v-1.273c0-0.58589 0.05999-1.1168 0.18114-1.5928 0.11992-0.4772 0.30356-0.92942 0.55091-1.3604 0.24609-0.42972 0.56464-0.84947 0.9544-1.2567 0.39101-0.40725 0.86196-0.82948 1.4129-1.2655 0.4822-0.37851 0.88944-0.71705 1.2217-1.0169 0.33355-0.29731 0.60212-0.59338 0.8095-0.88694 0.20612-0.29232 0.35602-0.59837 0.44722-0.91942 0.09239-0.3223 0.13866-0.69582 0.13866-1.1193 0-0.6546-0.22236-1.1955-0.66333-1.619-0.44222-0.42474-1.1168-0.63709-2.0237-0.63709-0.79076 0-1.644 0.16614-2.5572 0.49844-0.91068 0.33353-1.8563 0.74079-2.832 1.223l-1.754-3.805c0.49219-0.28732 1.0294-0.55965 1.609-0.81698 0.58089-0.2586 1.183-0.48845 1.8076-0.68957 0.62586-0.19988 1.2605-0.35853 1.9026-0.47346 0.64335-0.11492 1.2742-0.17239 1.8951-0.17239 1.1705 0 2.2261 0.14116 3.1668 0.42223 0.94192 0.28108 1.7402 0.69082 2.3935 1.2305 0.65584 0.53966 1.1568 1.1955 1.5066 1.9638 0.35103 0.76952 0.52592 1.6465 0.52592 2.6334 0 0.7233-0.0812 1.3691-0.24109 1.9375-0.1599 0.5684-0.39975 1.0968-0.71331 1.584-0.31731 0.48844-0.71331 0.9594-1.1893 1.4116-0.47596 0.45347-1.0306 0.93317-1.6615 1.4379-0.4822 0.3785-0.87571 0.70955-1.1805 0.99062-0.30356 0.28109-0.54216 0.54841-0.7133 0.7995-0.1724 0.25359-0.28982 0.51469-0.35354 0.78451-0.06249 0.26859-0.09494 0.58714-0.09494 0.95441v1.0331h-4.5447z"/>
  <path id="path4055" d="m20.565 34.072c0-0.53966 0.07744-0.99562 0.23236-1.3691 0.1549-0.37226 0.36976-0.67334 0.64584-0.90318 0.27483-0.22986 0.59962-0.39601 0.97314-0.49968 0.37226-0.10244 0.77077-0.1549 1.1955-0.1549 0.40226 0 0.78451 0.05246 1.1455 0.1549 0.36103 0.10368 0.67958 0.26982 0.95566 0.49968 0.27483 0.22985 0.4922 0.53092 0.65334 0.90318 0.16114 0.37352 0.24109 0.82948 0.24109 1.3691 0 0.51718-0.07995 0.9594-0.24109 1.3267-0.16114 0.36602-0.37851 0.67208-0.65334 0.91318-0.27607 0.23985-0.59463 0.41475-0.95566 0.52467-0.36 0.108-0.743 0.163-1.145 0.163-0.42473 0-0.82323-0.05497-1.1955-0.16365-0.37352-0.10992-0.69831-0.28482-0.97314-0.52467-0.27608-0.2411-0.49094-0.54716-0.64584-0.91318-0.1549-0.36727-0.23236-0.80949-0.23236-1.3267m0.56839-5.8888v-1.273c0-0.58589 0.05999-1.1168 0.18114-1.5928 0.11992-0.4772 0.30356-0.92942 0.55091-1.3604 0.24609-0.42972 0.56464-0.84947 0.9544-1.2567 0.39101-0.40725 0.86196-0.82948 1.4129-1.2655 0.4822-0.37851 0.88944-0.71705 1.2217-1.0169 0.33355-0.29731 0.60212-0.59338 0.8095-0.88694 0.20612-0.29232 0.35602-0.59837 0.44722-0.91942 0.09239-0.3223 0.13866-0.69582 0.13866-1.1193 0-0.6546-0.22236-1.1955-0.66333-1.619-0.44222-0.42474-1.1168-0.63709-2.0237-0.63709-0.79076 0-1.644 0.16614-2.5572 0.49844-0.91068 0.33353-1.8563 0.74079-2.832 1.223l-1.754-3.805c0.49219-0.28732 1.0294-0.55965 1.609-0.81698 0.58089-0.2586 1.183-0.48845 1.8076-0.68957 0.62586-0.19988 1.2605-0.35853 1.9026-0.47346 0.64335-0.11492 1.2742-0.17239 1.8951-0.17239 1.1705 0 2.2261 0.14116 3.1668 0.42223 0.94192 0.28108 1.7402 0.69082 2.3935 1.2305 0.65584 0.53966 1.1568 1.1955 1.5066 1.9638 0.35103 0.76952 0.52592 1.6465 0.52592 2.6334 0 0.7233-0.0812 1.3691-0.24109 1.9375-0.1599 0.5684-0.39975 1.0968-0.71331 1.584-0.31731 0.48844-0.71331 0.9594-1.1893 1.4116-0.47596 0.45347-1.0306 0.93317-1.6615 1.4379-0.4822 0.3785-0.87571 0.70955-1.1805 0.99062-0.30356 0.28109-0.54216 0.54841-0.7133 0.7995-0.1724 0.25359-0.28982 0.51469-0.35354 0.78451-0.06249 0.26859-0.09494 0.58714-0.09494 0.95441v1.0331h-4.5447z" style="enable-background:new;fill:#fff"/>
 </g>
</svg>
