<?xml version="1.0" encoding="UTF-8" standalone="no"?>
<!-- Created with Inkscape (http://www.inkscape.org/) -->
<svg id="svg3759" xmlns:rdf="http://www.w3.org/1999/02/22-rdf-syntax-ns#" xmlns="http://www.w3.org/2000/svg" height="48" width="48" version="1.1" xmlns:cc="http://creativecommons.org/ns#" xmlns:xlink="http://www.w3.org/1999/xlink" xmlns:dc="http://purl.org/dc/elements/1.1/">
 <metadata id="metadata37">
  <rdf:RDF>
   <cc:Work rdf:about="">
    <dc:format>image/svg+xml</dc:format>
    <dc:type rdf:resource="http://purl.org/dc/dcmitype/StillImage"/>
    <dc:title/>
   </cc:Work>
  </rdf:RDF>
 </metadata>
 <defs id="defs3761">
  <radialGradient id="radialGradient3755" gradientUnits="userSpaceOnUse" cy="38.909" cx="24.85" gradientTransform="matrix(1 0 0 .37 0 24.512)" r="20.203">
   <stop id="stop26115-7-7-9" offset="0"/>
   <stop id="stop26117-3-7-8" style="stop-opacity:0" offset="1"/>
  </radialGradient>
  <radialGradient id="radialGradient4274" gradientUnits="userSpaceOnUse" cx="24.85" cy="38.909" r="20.203" gradientTransform="matrix(1.0085 0 0 .37315 -.21140 24.39)">
   <stop id="stop26123-4-7-8" offset="0"/>
   <stop id="stop26125-3-9-9" style="stop-opacity:0" offset="1"/>
  </radialGradient>
  <radialGradient id="radialGradient3811" gradientUnits="userSpaceOnUse" cy="12" cx="24" gradientTransform="matrix(-1.641 4.157e-8 -4.6185e-8 -1.8231 63.385 33.878)" r="19.5">
   <stop id="stop3852" style="stop-color:#32a5dc" offset="0"/>
   <stop id="stop3854" style="stop-color:#248ec3" offset=".5"/>
   <stop id="stop3856" style="stop-color:#1c435b" offset=".75"/>
   <stop id="stop3858" style="stop-color:#020509" offset="1"/>
  </radialGradient>
  <radialGradient id="radialGradient3820" gradientUnits="userSpaceOnUse" cy="13.948" cx="24" gradientTransform="matrix(-1.6558 -9.358e-8 1.0396e-7 -1.8396 63.739 37.658)" r="19.326">
   <stop id="stop3910" style="stop-color:#78ccdf" offset="0"/>
   <stop id="stop3912" style="stop-color:#a4d2e9" offset=".5"/>
   <stop id="stop3914" style="stop-color:#3e6c88" offset=".75"/>
   <stop id="stop3916" style="stop-color:#425063" offset="1"/>
  </radialGradient>
  <radialGradient id="radialGradient3035" gradientUnits="userSpaceOnUse" fx="-.12968" fy="8.5322" cx="9.14" cy="8.3835" r="20" gradientTransform="matrix(6.006e-8 1.8 -1.6 3.03e-8 37.414 -4.4519)">
   <stop id="stop3937" style="stop-color:#8cd447" offset="0"/>
   <stop id="stop3939" style="stop-color:#8ed45e" offset=".5"/>
   <stop id="stop3941" style="stop-color:#41a100" offset=".75"/>
   <stop id="stop3943" style="stop-color:#1a2412" offset="1"/>
  </radialGradient>
  <radialGradient id="radialGradient3996" fx="-.12968" fy="8.5322" gradientUnits="userSpaceOnUse" cy="8.3835" cx="9.14" gradientTransform="matrix(6.006e-8 1.8 -1.6 3.03e-8 37.414 -4.4519)" r="20">
   <stop id="stop3964" style="stop-color:#bff28e" offset="0"/>
   <stop id="stop3966" style="stop-color:#b4f687" offset=".5"/>
   <stop id="stop3968" style="stop-color:#56ac1b" offset=".75"/>
   <stop id="stop3970" style="stop-color:#1a2412" offset="1"/>
  </radialGradient>
  <radialGradient id="radialGradient5493" gradientUnits="userSpaceOnUse" cy="16.507" cx="24" gradientTransform="matrix(-1.9768 .077220 -.080175 -2.0525 72.892 46.79)" r="16.188">
   <stop id="stop5474" style="stop-color:#204c00" offset="0"/>
   <stop id="stop5476" style="stop-color:#204c00" offset=".5"/>
   <stop id="stop5478" style="stop-color:#1f3013" offset=".75"/>
   <stop id="stop5480" offset="1"/>
  </radialGradient>
  <linearGradient id="linearGradient5499" y2="24" gradientUnits="userSpaceOnUse" x2="44" gradientTransform="matrix(0,1,1,0,3.1e-6,-2.9e-6)" y1="24" x1="4">
   <stop id="stop3842" style="stop-color:#1e7488" offset="0"/>
   <stop id="stop3844" style="stop-color:#1e5976" offset=".5"/>
   <stop id="stop3846" style="stop-color:#122937" offset=".75"/>
   <stop id="stop3848" style="stop-color:#020509" offset="1"/>
  </linearGradient>
  <linearGradient id="linearGradient3948" y2="40.454" gradientUnits="userSpaceOnUse" x2="24" y1="28" x1="24">
   <stop id="stop3944" style="stop-color:#daffae" offset="0"/>
   <stop id="stop3946" style="stop-color:#daffae;stop-opacity:0" offset="1"/>
  </linearGradient>
 </defs>
 <g id="layer1">
  <path id="path9641" style="filter:url(#filter5927);enable-background:new;fill:url(#radialGradient4274)" d="m45.053 38.909a20.203 7.4751 0 1 1 -40.406 0 20.203 7.4751 0 1 1 40.406 0z" transform="matrix(.76993 0 0 .70231 4.8675 13.674)"/>
  <path id="path9643" style="opacity:.51837;filter:url(#filter5788);enable-background:new;fill:url(#radialGradient3755)" d="m45.053 38.909a20.203 7.4751 0 1 1 -40.406 0 20.203 7.4751 0 1 1 40.406 0z" transform="matrix(1.0408 0 0 .94940 -1.8633 3.5144)"/>
  <path id="path6495" style="fill:url(#radialGradient3811)" d="m4.5 23.999c0 10.77 8.731 19.501 19.5 19.501 10.77 0 19.5-8.7309 19.5-19.501 0-10.769-8.7306-19.499-19.5-19.499s-19.5 8.7299-19.5 19.499z"/>
  <path id="path6534" style="color:#bebebe;fill:url(#radialGradient3820)" d="m23.956 4.5c-1.7733 0-3.5033 0.25288-5.1362 0.69643 0.04652-0.011143 0.05613 0.041368 0.08705 0.087054 0.13789 0.20391-0.54263 0.2769-0.52232 0.52232 0.06184 0.74632 1.4855 0.63993 1.8281 1.3058 0.11951 0.23233 0.09276 0.53937 0 0.78348-0.12424 0.32662-0.6506 0.43708-0.69643 0.78348-0.0936 0.70757 0.28047 1.6895 0.95759 1.9152 0.24626 0.08218 0.506-0.17188 0.69643-0.34822 0.37245-0.3449 0.39485-0.97926 0.78348-1.3058 0.92834-0.78 2.4556-2.0723 3.3951-1.3058 0.13678 0.11171-0.15725 0.36036-0.08705 0.52232 0.08329 0.19194 0.31311 0.35248 0.52232 0.34821 0.3946-0.00836 0.90892-0.30476 0.95759-0.69643 0.02786-0.22481-0.21339-0.47591-0.43527-0.52232-0.25406-0.053207-0.44023 0.38978-0.69643 0.34821-0.04039-0.00557-0.07842-0.047218-0.08705-0.087054-0.199-0.9055 1.349-1.7709 0.958-2.6116-0.143-0.308-1.073-0.0287-0.958-0.3482-0.516-0.0411-1.039-0.0871-1.567-0.0871zm1.567 0.087054c0.56034 0.044519 1.1102 0.17079 1.654 0.26116-0.55-0.0922-1.088-0.2163-1.654-0.2612zm-6.8772 0.69643c-0.71972 0.20293-1.4059 0.41553-2.0893 0.69643 0.18107 0.029529 0.3437 0.21617 0.52232 0.17411 0.19974-0.047079 0.25545-0.33654 0.43527-0.43527 0.23456-0.1287 0.52884-0.091929 0.78348-0.17411 0.10502-0.033986 0.23762-0.18149 0.34822-0.26116zm-2.2634 0.78348c-0.52382 0.22156-1.0677 0.43158-1.567 0.69643 0.07633 0.041786 0.03649 0.18232 0 0.26116-0.11171 0.24291-0.45209 0.3059-0.60938 0.52232-0.22174 0.30515-0.64453 0.73078-0.43527 1.0446 0.16101 0.24152 0.63202 0.16519 0.87054 0 0.20364-0.14124 0.16227-0.46917 0.26116-0.69643-0.01671 0.33041 0.47054 0.50201 0.78348 0.60938 0.21951 0.075214 0.53227 0.16408 0.69643 0 0.16408-0.16408 0.12647-0.50179 0-0.69643-0.15572-0.23957-0.49839-0.36824-0.78348-0.34821-0.1365 0.00836-0.29704 0.014068-0.43527 0.087054 0.24681-0.27634 0.51928-0.54689 0.87054-0.60938 0.29827-0.052929 0.59887 0.12717 0.87054 0.26116 0.57776 0.28515 0.9236 1.1663 1.567 1.1317 0.38983-0.022286 0.94505-0.40025 0.87054-0.78348-0.065-0.3335-0.714-0.1121-0.958-0.3483-0.224-0.2176-0.099-0.6813-0.348-0.8706-0.41822-0.31824-1.2165 0.21756-1.567-0.17411-0.0195-0.022286 0-0.058082 0-0.087054-0.02519 0.01053-0.06191-0.010633-0.08705 0zm16.453 0.60938c0.673 0.3495 1.375 0.707 2.002 1.1316-0.646-0.4364-1.304-0.7738-2.002-1.1317zm0.43527 0.78348c-0.47792-0.025072-0.95742 0.14959-1.3929 0.34821-0.32228 0.14709-0.70696 0.2952-0.87054 0.60938-0.08051 0.15433 0.08329 0.36939 0 0.52232-0.2808 0.51614-1.2643 0.411-1.4799 0.95759-0.1755 0.44518-0.10419 1.2367 0.34821 1.3929 0.31275 0.10781 0.4543-0.64258 0.78348-0.60938 0.26632 0.02786 0.3161 0.43894 0.52232 0.60938 0.18024 0.14904 0.39084 0.4317 0.60938 0.34821 0.34287-0.13093 0.34025-0.67768 0.34821-1.0446 0.0056-0.21116-0.18497-0.39838-0.17411-0.60938 0.0084-0.156 0.08469-0.30712 0.17411-0.43527 0.22341-0.32016 0.50605-0.64361 0.87054-0.78348 0.10836-0.041507 0.28314-0.096107 0.34821 0 0.17522 0.25879-0.2891 0.56363-0.34821 0.87054-0.04931 0.25656-0.19918 0.61467 0 0.78348 0.26938 0.22815 0.90817-0.49967 1.0446-0.17411 0.15266 0.36398-0.7447 0.36406-0.95759 0.69643-0.07967 0.12452-0.01128 0.30782-0.08705 0.43527-0.25099 0.42563-0.65144 0.84123-1.1317 0.95759-0.37627 0.09109-0.89068 0.04165-1.1317-0.26116-0.14458-0.18163 0.20475-0.5869 0-0.69643-0.18441-0.09861-0.46271 0.14764-0.52232 0.34821-0.06296 0.21172 0.38295 0.42488 0.26116 0.60938-0.15962 0.24236-0.62043-0.14708-0.87054 0-0.2574 0.15154-0.26464 0.53823-0.43527 0.78348-0.15294 0.21951-0.28932 0.47792-0.52232 0.60938-0.30746 0.17355-0.93692-0.16213-1.0446 0.17411-0.08775 0.27356 0.46371 0.36178 0.60938 0.60938 0.10725 0.18218 0.30133 0.44073 0.17411 0.60938-0.15739 0.20837-0.53043-0.06463-0.78348 0-0.35231 0.0897-0.77198 0.20976-0.95759 0.52232-0.26659 0.44914-0.36933 1.1976 0 1.567 0.10251 0.10252 0.30122-0.05544 0.43527 0 0.18943 0.07856 0.23344 0.39866 0.43527 0.43527 0.34501 0.06268 0.71949-0.17801 0.95759-0.43527 0.23066-0.24932 0.13455-0.69359 0.34821-0.95759 0.17216-0.21283 0.53547-0.21394 0.69643-0.43527 0.0702-0.09666 0.0018-0.26436 0.08705-0.34821 0.27634-0.27133 0.76331-0.38036 1.1317-0.26116 0.29353 0.09471 0.36526 0.50784 0.60938 0.69643 0.20531 0.15879 0.61971 0.10029 0.69643 0.34821 0.08831 0.28542-0.62102 0.54948-0.43527 0.78348 0.13121 0.16547 0.44992-0.03566 0.60938-0.17411 0.21562-0.18748 0.39298-0.50121 0.34822-0.78348-0.06129-0.38557-0.94232-0.51391-0.78348-0.87054 0.04708-0.10614 0.23957-0.04095 0.34821 0 0.28874 0.10836 0.5419 0.34239 0.69643 0.60938 0.1482 0.25601 0.05098 0.60146 0.17411 0.87054 0.13761 0.30083 0.28916 0.86669 0.60938 0.78348 0.36941-0.09583-0.0507-0.82326 0.17411-1.1317 0.07633-0.10474 0.22202-0.20447 0.34821-0.17411 0.52466 0.12675 0.48513 1.0448 0.95759 1.3058 0.35652 0.19695 0.83558-0.05084 1.2188 0.08705 0.23484 0.08469 0.55854 0.19082 0.60938 0.43527 0.03454 0.16575-0.1528 0.30545-0.26116 0.43527-0.19779 0.23679-0.40769 0.50087-0.69643 0.60938-0.2988 0.11226-0.64252 0.05098-0.95759 0-0.4529-0.07354-0.84884-0.39407-1.3058-0.43527-0.20447-0.0195-0.42585-0.0054-0.60938 0.08705-0.22035 0.11004-0.27606 0.52232-0.52232 0.52232-0.65659 0-0.82496-1.0633-1.3929-1.3929-0.28615-0.16603-0.62757-0.23776-0.95759-0.26116-0.46672-0.03315-0.9336 0.08469-1.3929 0.17411-0.44215 0.08608-0.92656 0.10502-1.3058 0.34821-0.91962 0.58948-1.535 1.5833-2.0893 2.5246-0.36365 0.61756-0.93023 1.3007-0.78348 2.0022 0.03371 0.16074 0.33203 0.18497 0.34821 0.34821 0.04123 0.41646-0.65815 0.6279-0.69643 1.0446-0.06073 0.66021 0.42947 1.2676 0.78348 1.8281 0.516 0.81705 0.95207 2.0975 1.9152 2.1763 0.41103 0.03371 0.54745-0.82677 0.95759-0.78348 0.18469 0.0195 0.16547 0.40128 0.34821 0.43527 0.39632 0.07382 0.64484-0.66111 1.0446-0.60938 0.16269 0.02229 0.19667 0.2854 0.34821 0.34821 0.2949 0.12229 0.66693-0.13176 0.95759 0 0.28088 0.12759 0.54199 0.3954 0.60938 0.69643 0.09221 0.41229-0.44215 0.80683-0.34821 1.2188 0.07772 0.34069 0.58249 0.45315 0.69643 0.78348 0.15182 0.43978-0.19458 0.94021-0.08705 1.3929 0.09304 0.39226 0.59639 0.64172 0.60938 1.0446 0.01114 0.32426-0.35359 0.55656-0.43527 0.87054-0.16101 0.61846-0.18818 1.2841-0.08705 1.9152 0.14207 0.88873 0.74064 1.6511 0.95759 2.5246 0.11282 0.4541 0.14514 0.92586 0.17411 1.3929 0.01393 0.23177-0.16408 0.53227 0 0.69643 0.12313 0.12313 0.35454 0.04652 0.52232 0 0.32612-0.09026 0.54441-0.43198 0.87054-0.52232 0.30763-0.08524 0.66818 0.13455 0.95759 0 0.65353-0.30403 1.242-0.94918 1.3929-1.654 0.04429-0.2067-0.23623-0.40749-0.17411-0.60938 0.13344-0.43318 1.0241-0.41772 1.0446-0.87054 0.01672-0.36897-0.8039-0.41471-0.78348-0.78348 0.0195-0.37103 0.56544-0.4843 0.87054-0.69643 0.27774-0.19305 0.61573-0.29963 0.87054-0.52232 0.13984-0.12229 0.31052-0.25322 0.34821-0.43527 0.06714-0.32398-0.21742-0.62966-0.26116-0.95759-0.10781-0.80532-0.17717-1.6446 0-2.4375 0.11895-0.53207 0.39476-1.0258 0.69643-1.4799 0.21589-0.3252 0.57394-0.54112 0.78348-0.87054 0.43967-0.69122 0.79474-1.4605 0.95759-2.2634 0.04039-0.19918 0.15294-0.47558 0-0.60938-0.33038-0.28927-1.1019 0.56305-1.3058 0.17411-0.20029-0.38209 0.54812-0.671 0.87054-0.95759 0.37315-0.33167 0.84747-0.53678 1.2188-0.87054 0.25991-0.23344 0.57224-0.45686 0.69643-0.78348 0.09276-0.24403 0.05516-0.52823 0-0.78348-0.07438-0.34267-0.08691-0.91658-0.43527-0.95759-0.32858-0.03872-0.2786 0.79022-0.60938 0.78348-0.2496-0.0056-0.26074-0.43084-0.43527-0.60938-0.2028-0.20754-0.56667-0.26269-0.69643-0.52232-0.15572-0.31144-0.32509-0.9199 0-1.0446 0.36448-0.13984 0.41939 0.72966 0.78348 0.87054 0.27189 0.1053 0.59397-0.17982 0.87054-0.08705 0.48686 0.16296 0.62043 1.0913 1.1317 1.0446 0.11561-0.01114 0.19096-0.18511 0.26116-0.26116-0.706-4.913-3.223-9.26-6.877-12.275 0.025 0.3482-0.347 0.7805-0.696 0.7832-0.473 0.0028-1.148-0.6122-0.958-1.0446 0.12842-0.29217 0.66269 0.12229 0.95759 0 0.07577-0.031478 0.09221-0.17049 0.17411-0.17411-0.25-0.192-0.524-0.3424-0.784-0.5224-0.074 0.2572-0.526-0.0991-0.783-0.1741-0.326-0.095-0.619-0.3306-0.958-0.3482zm-20.37 0.5222c-0.2065 0.14333-0.40878 0.28427-0.60938 0.43527 0.12396 0.094993-0.05237 0.33729-0.17411 0.43527-0.13762 0.11059-0.45287 0.24946-0.52232 0.087054-3.9986 3.2999-6.6636 8.1768-7.0513 13.667 0.4185-0.09165 0.3122 0.82307 0.60938 1.1317 0.39696 0.41226 0.95308 0.64696 1.4799 0.87054 0.49903 0.21171 1.1243 0.12229 1.567 0.43527 0.28921 0.20447 0.36306 0.616 0.60938 0.87054 0.3027 0.31278 0.615 0.71376 1.0446 0.78348 0.18107 0.02953 0.33988-0.19416 0.52232-0.17411 0.16826 0.0195 0.35189 0.11408 0.43527 0.26116 0.01393 0.02507 0.0056 0.05864 0 0.08705-0.08803 0.57143-0.26409 1.1367-0.52232 1.654-0.11143 0.22341-0.38869 0.36415-0.43527 0.60938-0.02229 0.11756 0.08817 0.22843 0.08705 0.34821-0.0028 0.45045-0.40359 0.85875-0.34821 1.3058 0.11004 0.88948 0.75381 1.6443 1.3058 2.3504 0.36668 0.46908 0.90413 0.77925 1.3058 1.2188 0.22314 0.24431 0.50948 0.46808 0.60938 0.78348 0.18414 0.5816-0.2021 1.229-0.08705 1.8281 0.06602 0.34434 0.39972 0.60876 0.43527 0.95759 0.0663 0.6513-0.36226 1.2646-0.43527 1.9152-0.0028 0.02897 0.02813 0.08037 0 0.08705 0.78549 0.55673 1.572 1.0425 2.4375 1.4799-0.02953-0.14207 0.31487-0.1202 0.34821-0.26116 0.02981-0.12619-0.195-0.22007-0.17411-0.34822 0.04596-0.28356 0.46371-0.36178 0.60938-0.60938 0.10725-0.18218 0.02507-0.4609 0.17411-0.60938 0.23539-0.23261 0.7142-0.03719 0.95759-0.26116 0.49973-0.46012 0.70721-1.236 0.69643-1.9152-0.0025-0.15628-0.18414-0.27932-0.17411-0.43527 0.0195-0.29816 0.19667-0.6038 0.43527-0.78348 0.3093-0.23289 0.83772-0.0085 1.1317-0.26116 0.35596-0.30506 0.44518-0.8434 0.52232-1.3058 0.09555-0.57316-0.25058-1.1835-0.08705-1.7411 0.1404-0.47909 0.70133-0.74905 0.87054-1.2188 0.13789-0.38318 0.28531-0.8629 0.08705-1.2188-0.63771-1.1454-2.5644-0.89201-3.4821-1.8281-0.31796-0.32434-0.25517-0.93455-0.60938-1.2188-0.27999-0.22453-0.77538-0.02521-1.0446-0.26116-0.42042-0.37056-0.12814-1.2799-0.60938-1.567-0.40187-0.23957-0.93998 0.29178-1.3929 0.17411-0.5224-0.13566-0.76699-0.98946-1.3058-0.95759-0.59436 0.0351-1.0685 0.67269-1.3058 1.2188-0.02229 0.05321 0.04624 0.13929 0 0.17411-0.33729 0.25434-0.91803-0.05153-1.2188-0.34821-0.21561-0.21283-0.21742-0.57079-0.26116-0.87054-0.04206-0.2871 0.21506-0.67581 0-0.87054-0.21617-0.19556-0.66874 0.29771-0.87054 0.08705-0.42599-0.44435 0.66462-1.3631 0.26116-1.8281-0.11421-0.13149-0.3666-0.07772-0.52232 0-0.25963 0.12981-0.29955 0.51051-0.52232 0.69643-0.14959 0.1248-0.32788 0.27063-0.52232 0.26116-0.27356-0.01393-0.55196-0.2028-0.69643-0.43527-0.15405-0.24765-0.08482-0.57893-0.08705-0.87054-0.0028-0.34941-0.08761-0.74214 0.08705-1.0446 0.22954-0.39722 0.69375-0.64668 1.1317-0.78348 0.2769-0.08664 0.63514 0.16965 0.87054 0 0.14876-0.10725 0.01393-0.43401 0.17411-0.52232 0.31465-0.17271 0.7415 0.06922 1.0446 0.26116 0.34832 0.22091 0.38833 1.0757 0.78348 0.95759 0.53118-0.15878-0.08998-1.1666 0.17411-1.654 0.28506-0.52594 1.0526-0.63971 1.3929-1.1317 0.26102-0.37735 0.12285-0.96973 0.43527-1.3058 0.25684-0.27634 0.74484-0.20614 1.0446-0.43527 0.26297-0.20085 0.32793-0.60954 0.60938-0.78348 0.3776-0.23344 0.94455-0.0029 1.3058-0.26116 0.32807-0.23427 0.81017-0.69505 0.60938-1.0446-0.31796-0.55358-1.7868 0.62536-1.9152 0-0.08886-0.43296 0.78579-0.43346 1.2188-0.52232 0.28425-0.05822 0.58522 0.05293 0.87054 0 0.39738-0.07382 0.78206-0.63801 1.1317-0.43527 0.33016 0.19138-0.19862 1.0493 0.17411 1.1317 0.30646 0.06769 0.5789-0.47474 0.52232-0.78348-0.04513-0.24542-0.53918-0.19584-0.60938-0.43527-0.04402-0.14987 0.20558-0.28219 0.17411-0.43527-0.04123-0.20113-0.25294-0.34139-0.43527-0.43527-0.15684-0.08079-0.43128 0.06393-0.52232-0.08705-0.09471-0.15711 0.1911-0.33958 0.17411-0.52232-0.02786-0.29749-0.15377-0.68339-0.43527-0.78348-0.29448-0.10474-0.63509 0.55374-0.87054 0.34822-0.18024-0.15739 0.26715-0.47591 0.17411-0.69643-0.15656-0.37148-0.65698-0.71997-1.0446-0.60938-0.53675 0.15321-0.70298 0.92759-0.78348 1.4799-0.02229 0.14653 0.1553 0.30386 0.08705 0.43527-0.13149 0.25378-0.57996 0.14764-0.78348 0.34821-0.29587 0.29169-0.11059 1.187-0.52232 1.1317-0.34986-0.04708 0.05014-0.77206-0.17411-1.0446-0.31509-0.38287-1.0488-0.16519-1.3929-0.52232-0.1911-0.19834-0.35955-0.52633-0.26116-0.78348 0.25044-0.65562 1.2704-0.61862 1.8281-1.0446 0.2935-0.22425 0.62681-0.449 0.78348-0.78348 0.13594-0.29024 0.23219-0.6718 0.08705-0.95759-0.07661-0.15099-0.27216-0.21603-0.43527-0.26116-0.05599-0.016714-0.15795 0.055714-0.1741-0.000003zm14.712 1.567c-0.09722-0.00279-0.19988 0.025211-0.26116 0.087054-0.12313 0.12313-0.05767 0.35802 0 0.52232 0.06156 0.17522 0.2867 0.25991 0.34821 0.43527 0.08636 0.24654 0.0195 0.52307 0 0.78348-0.02925 0.38056-0.44995 0.86792-0.17411 1.1317 0.21394 0.20447 0.60511-0.04318 0.87054-0.17411 0.27662-0.1365 0.68618-0.30108 0.69643-0.60938 0.0084-0.2871-0.45003-0.37036-0.60938-0.60938-0.29593-0.44388-0.16603-1.1831-0.60938-1.4799-0.07243-0.048471-0.16422-0.083989-0.26116-0.087054zm-1.306 1.2189c-0.09694 0.03371-0.21074 0.0975-0.26116 0.17411-0.19249 0.29172-0.22105 0.88012 0.08705 1.0446 0.26353 0.14068 0.68874-0.15182 0.78348-0.43527 0.09054-0.27105-0.08664-0.66815-0.34821-0.78348-0.08385-0.03705-0.16422-0.03371-0.26116 0zm10.446 9.3147c0.40788 0.06101 0.5621 0.60963 0.78348 0.95759 0.43195 0.67893 0.60152 1.5046 1.0446 2.1763 0.16993 0.2574 0.56319 0.39145 0.60938 0.69643 0.0429 0.28258-0.391 0.5009-0.34821 0.78348 0.04624 0.30498 0.73685 0.41552 0.60938 0.69643-0.10781 0.2379-0.56792 0.14736-0.78348 0-0.92511-0.63283-0.63782-2.1754-1.2188-3.1339-0.1599-0.26381-0.4643-0.42421-0.60938-0.69643-0.21199-0.39752-0.50736-0.88438-0.34821-1.3058 0.03705-0.09778 0.15781-0.18971 0.26116-0.17411zm-15.147 23.243c0.7719 0.0929 1.5535 0.17411 2.3504 0.17411-0.78994 0-1.5843-0.08246-2.3504-0.17411z"/>
  <path id="path3822" style="opacity:.8;color:#bebebe;fill:#fff" d="m23.969 4.5c-1.774 0-3.524 0.244-5.157 0.6875 0.047-0.0111 0.063 0.0481 0.094 0.0937 0.138 0.204-0.551 0.2859-0.531 0.5313 0.023 0.2819 0.282 0.4051 0.563 0.5313 0.005-0.022-0.015-0.0371-0.032-0.0626-0.031-0.0456-0.047-0.1048-0.094-0.0937 1.633-0.4435 3.383-0.6875 5.157-0.6875 0.527 0 1.046 0.0527 1.562 0.0938-0.095 0.263 0.513 0.1055 0.813 0.2187 0.173-0.2943 0.259-0.5871 0.125-0.875-0.143-0.308-1.053-0.0242-0.938-0.3437-0.516-0.0411-1.035-0.0938-1.562-0.0938zm-5.313 0.7812c-0.719 0.203-1.41 0.4067-2.094 0.6876 0.182 0.0295 0.353 0.2295 0.532 0.1874 0.199-0.047 0.226-0.3387 0.406-0.4374 0.235-0.1288 0.558-0.1054 0.812-0.1876 0.106-0.0339 0.234-0.1703 0.344-0.25zm-2.281 0.7813c-0.524 0.2216-1.063 0.4226-1.563 0.6875 0.077 0.0418 0.037 0.2024 0 0.2812-0.111 0.243-0.436 0.3149-0.593 0.5313-0.222 0.3051-0.647 0.7174-0.438 1.0313 0.061 0.091 0.162 0.1432 0.281 0.1562 0.051-0.0649 0.115-0.1297 0.157-0.1875 0.157-0.2164 0.482-0.2883 0.593-0.5313 0.037-0.0788 0.077-0.2394 0-0.2812 0.201-0.1063 0.415-0.1883 0.626-0.2812-0.095 0.0098-0.193 0.0468-0.282 0.0937 0.247-0.2763 0.524-0.5625 0.875-0.625 0.299-0.0529 0.604 0.116 0.875 0.25 0.044 0.0217 0.084 0.0658 0.125 0.0937 0.352-0.0359 0.743-0.1331 1 0.0626 0.249 0.1892 0.119 0.6261 0.344 0.8437 0.055 0.0532 0.134 0.1067 0.219 0.125 0.009 0.002 0.021-0.0018 0.031 0 0.367-0.091 0.784-0.4134 0.719-0.75-0.155-0.0569-0.266-0.1557-0.406-0.2187-0.02-0.0016-0.043 0.0014-0.063 0-0.184-0.0133-0.39-0.0499-0.5-0.1563-0.154-0.1488-0.13-0.4125-0.187-0.625-0.224 0.0441-0.49 0.0474-0.688 0.1563-0.18 0.0987-0.207 0.3904-0.406 0.4374-0.179 0.0421-0.35-0.1579-0.532-0.1874 0.513-0.2107 1.034-0.3727 1.563-0.5313-0.024-0.0437-0.053-0.0626-0.094-0.0937-0.418-0.3183-1.212 0.2041-1.562-0.1876-0.02-0.0222 0-0.0647 0-0.0937-0.025 0.0105-0.069-0.0106-0.094 0zm9.937 1.2187c-0.158-0.0332-0.298 0.1351-0.437 0.25-0.201 0.2952-0.36 0.6028-0.344 0.9063 0.079 0.0418 0.167 0.0642 0.25 0.0625 0.059-0.0012 0.126-0.0178 0.188-0.0312 0.11-0.0989 0.216-0.2142 0.343-0.1876 0.033 0.0069 0.062 0.0164 0.094 0.0313 0.184-0.1241 0.32-0.3042 0.344-0.5 0.028-0.2248-0.216-0.4848-0.438-0.5313zm6.594 0.1876c-0.357 0.0478-0.704 0.1947-1.031 0.3437-0.322 0.1471-0.711 0.2796-0.875 0.5937-0.081 0.1544 0.083 0.3784 0 0.5313-0.281 0.5161-1.253 0.4222-1.469 0.9687-0.113 0.2868-0.127 0.6888 0 0.9998 0.216-0.546 1.188-0.452 1.469-0.9685 0.083-0.1529-0.081-0.3769 0-0.5313 0.164-0.3141 0.553-0.4466 0.875-0.5937 0.435-0.1986 0.928-0.3688 1.406-0.3437 0.339 0.0176 0.612 0.2487 0.938 0.3437 0.118 0.0345 0.292 0.1211 0.437 0.1875-0.034-0.1089-0.043-0.2132 0-0.3125 0.129-0.2922 0.674 0.1223 0.969 0 0.076-0.0315 0.074-0.1839 0.156-0.1875-0.25-0.192-0.522-0.3513-0.781-0.5312-0.074 0.2571-0.524-0.0814-0.781-0.1563-0.326-0.095-0.599-0.3261-0.938-0.3437-0.119-0.0063-0.256-0.016-0.375 0zm-16.875 0.4687c-0.27 0.0481-0.486 0.2353-0.687 0.4375 0.082 0.0366 0.171 0.0661 0.25 0.0938 0.008 0.0029 0.023-0.003 0.031 0 0.166-0.0055 0.348 0.0399 0.5 0.125 0.103 0.0001 0.182-0.0254 0.25-0.0938 0.12-0.1198 0.114-0.3184 0.063-0.5-0.138-0.0485-0.267-0.0872-0.407-0.0625zm-3.125 0.0313c-0.206 0.1433-0.424 0.2865-0.625 0.4374 0.124 0.095-0.034 0.3396-0.156 0.4376-0.138 0.1105-0.462 0.2561-0.531 0.0937-3.9988 3.2995-6.675 8.1655-7.0628 13.656 0.0423-0.01 0.0925 0.021 0.125 0.031 0.6202-5.085 3.1812-9.587 6.9378-12.688 0.069 0.163 0.393 0.0173 0.531-0.0932 0.122-0.098 0.28-0.3426 0.156-0.4376 0.201-0.1509 0.419-0.2941 0.625-0.4374 0.016 0.0557 0.101-0.0168 0.156 0 0.136 0.0376 0.282 0.1152 0.376 0.2187 0.135-0.2902 0.207-0.6517 0.062-0.9375-0.077-0.151-0.274-0.2361-0.438-0.2812-0.055-0.0168-0.14 0.0557-0.156 0zm7.219 0.0624c-0.193 0.2261-0.555 0.3653-0.594 0.6563-0.033 0.2477 0.019 0.5106 0.094 0.7813 0.173-0.1926 0.501-0.3176 0.594-0.5626 0.093-0.2441 0.119-0.5489 0-0.7812-0.02-0.0382-0.068-0.0603-0.094-0.0938zm16.187 0.9063c0.026 0.3484-0.338 0.7786-0.687 0.7813-0.039 0.0002-0.083-0.0234-0.125-0.0313-0.302 0.0066-0.731-0.2556-0.844 0-0.19 0.4325 0.497 1.0345 0.969 1.0315 0.349-0.003 0.713-0.433 0.687-0.7815 3.45 2.8465 5.863 6.8945 6.719 11.468 0.065-0.06 0.108-0.135 0.157-0.187-0.707-4.912-3.222-9.266-6.876-12.282zm-8.843 0.625c-0.046 0.0144-0.095 0.0316-0.125 0.0625-0.123 0.1231-0.058 0.3669 0 0.531 0.058 0.167 0.271 0.247 0.344 0.406 0.003 0.008-0.003 0.023 0 0.032 0.068 0.014 0.134-0.005 0.187 0.031 0.443 0.297 0.298 1.056 0.594 1.5 0.025 0.038 0.087 0.062 0.125 0.094 0.24-0.121 0.492-0.261 0.5-0.5 0.008-0.287-0.466-0.355-0.625-0.594-0.296-0.444-0.151-1.2032-0.594-1.5-0.072-0.0485-0.153-0.0594-0.25-0.0625-0.049-0.0014-0.111-0.0144-0.156 0zm5.719 0.1563c-0.066 0.0068-0.134 0.0104-0.188 0.0312-0.013 0.0051-0.018 0.0257-0.031 0.0312-0.058 0.2328-0.133 0.4858 0.031 0.6248 0.027 0.023 0.06 0.057 0.094 0.063 0.14-0.25 0.393-0.507 0.25-0.719-0.033-0.0481-0.091-0.0381-0.156-0.0312zm-18.25 0.25c-0.104-0.023-0.185 0.0036-0.282 0.0312-0.537 0.153-0.732 0.916-0.812 1.469-0.023 0.146 0.162 0.306 0.094 0.437-0.132 0.254-0.578 0.143-0.782 0.344-0.296 0.292-0.119 1.18-0.531 1.125-0.35-0.047 0.068-0.759-0.156-1.031-0.315-0.383-1.062-0.174-1.407-0.532-0.015-0.015-0.016-0.045-0.031-0.062-0.089 0.081-0.173 0.162-0.219 0.281-0.098 0.257 0.059 0.583 0.25 0.781 0.345 0.358 1.092 0.149 1.407 0.532 0.224 0.272-0.194 0.984 0.156 1.031 0.412 0.055 0.235-0.833 0.531-1.125 0.204-0.201 0.65-0.09 0.782-0.344 0.068-0.131-0.117-0.291-0.094-0.437 0.08-0.553 0.275-1.316 0.812-1.469 0.388-0.111 0.875 0.222 1.032 0.594 0.093 0.22-0.368 0.53-0.188 0.687 0.235 0.206 0.581-0.448 0.875-0.343 0.097 0.034 0.187 0.099 0.25 0.187 0.04-0.126 0.2-0.269 0.187-0.406-0.027-0.298-0.156-0.681-0.437-0.781-0.294-0.105-0.64 0.549-0.875 0.343-0.18-0.157 0.281-0.467 0.188-0.687-0.118-0.279-0.439-0.556-0.75-0.6252zm17.187 0.6252c-0.082 0.122-0.148 0.26-0.156 0.406-0.006 0.105 0.048 0.182 0.093 0.281 0.062-0.214 0.058-0.48 0.063-0.687zm-5.687 0.156c-0.043 0-0.077 0.014-0.126 0.031-0.096 0.034-0.23 0.08-0.281 0.157-0.172 0.261-0.183 0.749 0.031 0.968 0.058-0.062 0.167-0.096 0.25-0.125 0.097-0.033 0.167-0.037 0.25 0 0.041 0.018 0.09 0.033 0.126 0.063 0.102-0.086 0.183-0.175 0.218-0.282 0.091-0.271-0.082-0.665-0.344-0.781-0.041-0.018-0.082-0.031-0.124-0.031zm7.437 0.406c-0.25 0.057-0.673 0.421-0.875 0.25-0.211 0.351-0.532 0.676-0.906 0.844-0.046 0.185-0.151 0.313-0.313 0.375-0.194 0.074-0.365-0.128-0.531-0.281-0.206-0.039-0.379-0.13-0.5-0.282-0.068-0.084-0.01-0.214 0.031-0.343-0.037-0.029-0.074-0.026-0.125-0.031-0.139-0.015-0.244 0.107-0.344 0.25 0.105 0.133 0.266 0.288 0.188 0.406-0.16 0.242-0.625-0.147-0.875 0-0.257 0.151-0.267 0.536-0.437 0.781-0.153 0.22-0.299 0.462-0.532 0.594-0.307 0.173-0.923-0.149-1.031 0.187-0.088 0.274 0.448 0.346 0.594 0.594 0.047 0.08 0.11 0.185 0.156 0.281 0.104 0.002 0.204-0.019 0.281-0.062 0.233-0.132 0.379-0.374 0.532-0.594 0.17-0.245 0.18-0.63 0.437-0.781 0.25-0.147 0.715 0.242 0.875 0 0.122-0.185-0.344-0.414-0.281-0.625 0.059-0.201 0.347-0.443 0.531-0.344 0.205 0.11-0.145 0.506 0 0.687 0.241 0.303 0.749 0.373 1.125 0.282 0.48-0.117 0.874-0.543 1.125-0.969 0.076-0.127 0.014-0.313 0.094-0.437 0.213-0.333 1.121-0.324 0.968-0.688-0.034-0.081-0.104-0.113-0.187-0.094zm-6.219 0.375c-0.096 0.352-0.366 0.738-0.125 0.969 0.036 0.034 0.081 0.051 0.125 0.062 0.018-0.06 0.027-0.13 0.032-0.187 0.019-0.26 0.086-0.535 0-0.781-0.008-0.023-0.019-0.043-0.032-0.063zm-10.968 0.75c0.062 0.14 0.111 0.298 0.124 0.438 0.017 0.182-0.25 0.374-0.156 0.531 0.055 0.091 0.16 0.072 0.282 0.062 0.133-0.066 0.28-0.103 0.406-0.031 0.082 0.048 0.122 0.142 0.125 0.25 0.065 0.065 0.107 0.164 0.125 0.25 0.031 0.153-0.201 0.288-0.156 0.438 0.029 0.101 0.134 0.114 0.25 0.156 0.215-0.125 0.387-0.51 0.343-0.75-0.045-0.245-0.523-0.167-0.593-0.406-0.045-0.15 0.187-0.285 0.156-0.438-0.041-0.201-0.255-0.343-0.438-0.437-0.142-0.073-0.357 0.027-0.468-0.063zm-1.344 2.438c-0.433 0.089-1.308 0.098-1.219 0.531 0.032 0.156 0.152 0.201 0.313 0.188 0.341-0.03 0.876-0.325 1.25-0.344 0.116-0.108 0.206-0.249 0.281-0.375-0.209-0.01-0.422-0.042-0.625 0zm12.281 0.406c-0.352 0.09-0.783 0.219-0.969 0.531-0.221 0.374-0.338 0.947-0.156 1.344 0.04-0.128 0.094-0.239 0.156-0.344 0.186-0.312 0.617-0.441 0.969-0.531 0.253-0.065 0.624 0.208 0.781 0 0.127-0.169-0.08-0.443-0.187-0.625-0.096-0.163-0.351-0.251-0.5-0.375-0.035-0.001-0.062-0.008-0.094 0zm4.375 1.063c0.019 0.022 0.053 0.031 0.062 0.062 0.03 0.095-0.039 0.191-0.124 0.281 0.11 0.082 0.247 0.164 0.374 0.25 0.088-0.095 0.171-0.221 0.219-0.343-0.118-0.106-0.262-0.165-0.406-0.219-0.035-0.014-0.08-0.02-0.125-0.031zm-0.375 0.843c0.053 0.067 0.127 0.056 0.219 0.031-0.066-0.023-0.146-0.013-0.219-0.031zm-1.406 0.531c-0.467-0.033-0.916 0.067-1.375 0.157-0.06 0.011-0.126 0.021-0.188 0.031-0.031 0.175-0.072 0.344-0.187 0.469-0.238 0.257-0.593 0.5-0.938 0.437-0.151-0.027-0.21-0.219-0.312-0.344-0.754 0.599-1.291 1.449-1.781 2.282-0.364 0.617-0.929 1.298-0.782 2 0.013 0.06 0.067 0.12 0.125 0.156 0.168-0.399 0.443-0.793 0.657-1.156 0.554-0.942 1.174-1.911 2.093-2.5 0.379-0.243 0.871-0.289 1.313-0.375 0.459-0.09 0.908-0.19 1.375-0.157 0.33 0.024 0.682 0.084 0.969 0.25 0.567 0.33 0.718 1.407 1.374 1.407 0.247 0 0.311-0.421 0.532-0.531 0.183-0.093 0.42-0.114 0.625-0.094 0.457 0.041 0.828 0.364 1.281 0.437 0.315 0.051 0.67 0.113 0.969 0 0.288-0.108 0.489-0.357 0.687-0.593 0.109-0.13 0.316-0.272 0.282-0.438-0.041-0.194-0.266-0.297-0.469-0.375-0.15 0.17-0.294 0.329-0.5 0.406-0.299 0.113-0.654 0.051-0.969 0-0.453-0.073-0.824-0.396-1.281-0.437-0.205-0.02-0.442 0.001-0.625 0.094-0.221 0.11-0.285 0.531-0.532 0.531-0.656 0-0.807-1.077-1.374-1.407-0.287-0.166-0.639-0.226-0.969-0.25zm-19.563 2.594c-0.012 0.019-0.02 0.043-0.031 0.063-0.087 0.16-0.063 0.37-0.031 0.593 0.133-0.124 0.107-0.387 0.062-0.656zm29.5 0.5c-0.325 0.125-0.155 0.72 0 1.032 0.13 0.259 0.485 0.323 0.688 0.531 0.174 0.178 0.188 0.588 0.437 0.593 0.331 0.007 0.265-0.819 0.594-0.781 0.302 0.036 0.35 0.474 0.406 0.813 0.011-0.022 0.023-0.04 0.031-0.063 0.093-0.244 0.056-0.526 0-0.781-0.001-0.009 0.002-0.022 0-0.031-0.145-0.23-0.276-0.457-0.5-0.531-0.069-0.024-0.145-0.044-0.218-0.032-0.07 0.202-0.147 0.41-0.313 0.406-0.143-0.003-0.219-0.127-0.281-0.281-0.02-0.004-0.043 0.008-0.062 0-0.166-0.064-0.279-0.298-0.376-0.5-0.167-0.089-0.325-0.181-0.406-0.343-0.003-0.008 0.004-0.024 0-0.032zm-3.562 0.469c-0.048 0.033-0.075 0.076-0.094 0.125-0.159 0.421 0.132 0.915 0.344 1.312 0.145 0.273 0.434 0.424 0.594 0.688 0.58 0.959 0.293 2.523 1.218 3.156 0.216 0.148 0.674 0.238 0.782 0 0.127-0.281-0.548-0.414-0.594-0.718-0.011-0.071-0.003-0.123 0.031-0.188-0.075-0.025-0.165-0.057-0.219-0.094-0.925-0.633-0.638-2.197-1.218-3.156-0.16-0.264-0.449-0.415-0.594-0.688-0.072-0.133-0.149-0.289-0.219-0.437-0.01 0.005-0.022-0.006-0.031 0zm-28.125 1.156c-0.0969 0.007-0.2034 0.024-0.2813 0.063-0.2596 0.13-0.2772 0.501-0.5 0.687-0.1496 0.125-0.3368 0.291-0.5313 0.281-0.2735-0.013-0.543-0.205-0.6874-0.437-0.0717-0.115-0.1203-0.267-0.125-0.406-0.0003 0.179 0.0298 0.356 0.0312 0.531 0.0022 0.292-0.0603 0.627 0.0938 0.875 0.1444 0.232 0.4139 0.424 0.6874 0.437 0.1945 0.01 0.3817-0.156 0.5313-0.281 0.2228-0.186 0.2404-0.557 0.5-0.687 0.109-0.055 0.2831-0.087 0.4063-0.063 0.1689-0.343 0.3267-0.705 0.125-0.937-0.0572-0.066-0.1532-0.069-0.25-0.063zm16.187 1.219c-0.164 0.147-0.326 0.305-0.344 0.5-0.022 0.248 0.03 0.486 0.126 0.719 0.21-0.255 0.593-0.438 0.562-0.75-0.016-0.163-0.31-0.215-0.344-0.375-0.007-0.033 0.004-0.062 0-0.094zm-15.406 0.531c-0.1784-0.03-0.4349 0.173-0.625 0.188-0.1782 0.364-0.3824 0.733-0.1562 0.969 0.2017 0.21 0.6588-0.29 0.875-0.094-0.0049-0.041 0.0057-0.086 0-0.125-0.0421-0.287 0.215-0.681 0-0.875-0.0271-0.025-0.0603-0.057-0.0938-0.063zm29.625 0.469c-0.034 0.065-0.042 0.117-0.031 0.188 0.02 0.134 0.167 0.253 0.312 0.343 0.011-0.038 0.038-0.084 0.032-0.125-0.028-0.18-0.161-0.285-0.313-0.406zm-26.75 0.281c-0.594 0.035-1.075 0.673-1.313 1.219-0.022 0.053 0.047 0.153 0 0.188-0.337 0.254-0.9175-0.079-1.2182-0.376-0.0936-0.092-0.1536-0.182-0.1876-0.312-0.0321 0.157-0.0835 0.325-0.0624 0.469 0.0251 0.172 0.0476 0.359 0.0937 0.531 0.1309 0.093 0.2493 0.162 0.4063 0.188 0.1812 0.029 0.3492-0.177 0.5312-0.157 0.168 0.02 0.354 0.103 0.437 0.25 0.014 0.025 0.006 0.066 0 0.094-0.017 0.115-0.037 0.229-0.062 0.344 0.023-0.012 0.041-0.016 0.062-0.031 0.047-0.035-0.022-0.135 0-0.188 0.238-0.546 0.719-1.184 1.313-1.219 0.539-0.032 0.79 0.833 1.313 0.969 0.452 0.118 0.973-0.427 1.374-0.188 0.482 0.288 0.205 1.192 0.626 1.563 0.269 0.236 0.751 0.057 1.031 0.281 0.354 0.284 0.307 0.895 0.625 1.219 0.907 0.925 2.778 0.681 3.437 1.781 0.103-0.331 0.191-0.683 0.031-0.968-0.637-1.146-2.55-0.877-3.468-1.813-0.318-0.324-0.271-0.935-0.625-1.219-0.28-0.224-0.762-0.045-1.031-0.281-0.421-0.371-0.144-1.275-0.626-1.563-0.401-0.239-0.922 0.306-1.374 0.188-0.523-0.136-0.774-1.001-1.313-0.969zm28.625 0.407c-0.115 0.078-0.24 0.157-0.344 0.25-0.322 0.286-1.075 0.586-0.875 0.968 0.189 0.361 0.858-0.343 1.219-0.218 0.033-0.119 0.069-0.255 0.094-0.376 0.04-0.199 0.153-0.459 0-0.593-0.024-0.021-0.065-0.022-0.094-0.031zm-30.094 2.437c-0.092 0.311-0.231 0.618-0.375 0.906-0.111 0.224-0.3907 0.349-0.4372 0.594-0.0223 0.118 0.0948 0.224 0.0937 0.344-0.0028 0.45-0.3991 0.865-0.3437 1.312 0.0197 0.16 0.0743 0.317 0.125 0.469 0.1031-0.252 0.2171-0.517 0.2187-0.781 0.0011-0.12-0.116-0.226-0.0937-0.344 0.0465-0.245 0.3262-0.37 0.4372-0.594 0.258-0.517 0.443-1.085 0.531-1.656 0.006-0.028 0.014-0.069 0-0.094-0.034-0.061-0.095-0.115-0.156-0.156zm20.406 1.125c-0.097 0.182-0.198 0.377-0.156 0.562 0.029 0.125 0.117 0.228 0.219 0.313 0.097-0.18 0.197-0.347 0.156-0.531-0.029-0.13-0.132-0.235-0.219-0.344zm0.5 2.25c-0.031 0.162-0.068 0.345-0.031 0.5 0.015 0.064 0.061 0.099 0.094 0.156 0.039-0.192 0.062-0.383 0-0.562-0.012-0.035-0.043-0.064-0.063-0.094zm6.782 0.906c-0.071 0.649-0.024 1.322 0.062 1.969 0.011 0.082 0.031 0.17 0.063 0.25 0.09-0.086 0.163-0.164 0.187-0.281 0.067-0.324-0.206-0.641-0.25-0.969-0.043-0.32-0.045-0.643-0.062-0.969zm-6.438 1.156c-0.08 0.11-0.155 0.22-0.187 0.344-0.125 0.479-0.158 0.972-0.125 1.469 0.023-0.159 0.084-0.314 0.125-0.469 0.081-0.314 0.417-0.55 0.406-0.875-0.006-0.179-0.098-0.324-0.219-0.469zm-12.281 0.75c-0.009 0.022-0.025 0.04-0.031 0.063-0.091 0.308-0.029 0.644 0.031 0.969 0.013-0.074 0.051-0.148 0.063-0.219 0.044-0.267-0.012-0.539-0.063-0.813zm17.5 2.157c-0.268 0.13-0.518 0.27-0.531 0.531-0.007 0.12 0.074 0.176 0.187 0.25 0.274-0.122 0.582-0.213 0.594-0.469 0.006-0.135-0.114-0.232-0.25-0.312zm-24.344 0.093c-0.059 0.31-0.12 0.607-0.062 0.907 0.01 0.054 0.041 0.105 0.062 0.156 0.064-0.331 0.13-0.658 0.031-0.969-0.009-0.029-0.019-0.066-0.031-0.094zm5 1.438c-0.09 0.146-0.177 0.305-0.187 0.469-0.005 0.078 0.049 0.149 0.094 0.219 0.054-0.23 0.09-0.461 0.093-0.688zm18.625 0.5c-0.037 0.042-0.077 0.102-0.094 0.156-0.015 0.051-0.016 0.075 0 0.125 0.046-0.086 0.061-0.191 0.094-0.281zm-23.344 0.625c-0.115 0.401-0.297 0.807-0.343 1.219-0.003 0.029 0.028 0.087 0 0.094 0.074 0.052 0.144 0.104 0.219 0.156 0.134-0.385 0.259-0.76 0.218-1.156-0.011-0.11-0.041-0.215-0.094-0.313zm19.626 0.969c-0.016 0.088 0.004 0.179 0.031 0.25-0.007-0.086-0.023-0.165-0.031-0.25z"/>
  <path id="path3796" style="opacity:0.91;block-progression:tb;text-indent:0;color:#000000;text-transform:none;fill:url(#linearGradient5499)" d="m22.969 4.0312c-10.562 0.536-18.969 9.2738-18.969 19.969 0 7.209 3.8363 13.512 9.562 17.031l-0.031-0.281c-0.016-0.21-0.031-0.42-0.031-0.656 0-0.07964-0.0041-0.1665 0-0.25-5.126-3.402-8.5-9.227-8.5-15.844 0-10.372 8.302-18.766 18.625-18.969-0.085-0.0025-0.165-0.031-0.25-0.031v-0.5-0.46875c-0.13478 0.00415-0.27215-0.00681-0.40625 0zm-9.1875 37.125c-9.1875 4.5625-4.5938 2.2812 0 0z"/>
  <path id="path3872" style="opacity:.4;fill:#fff" d="m24 5c-10.499 0-19 8.501-19 19 0 0.169 0.0268 0.332 0.0312 0.5 0.2684-10.265 8.6388-18.5 18.969-18.5 10.329 0 18.7 8.235 18.969 18.5 0.004-0.168 0.031-0.331 0.031-0.5 0-10.499-8.502-19-19-19z"/>
  <path id="path3837" style="opacity:.2;color:#bebebe" d="m26.344 5.8125c-0.33195 0.56511-0.94383 1.1546-0.8125 1.75 0.0086 0.039836 0.05336 0.05693 0.09375 0.0625 0.09608 0.015586 0.16635-0.024776 0.25-0.09375 0.36938-0.54208 0.83538-1.0741 0.59375-1.5938-0.0253-0.054424-0.06068-0.10071-0.125-0.125zm-7.6875 0.46875c-0.17993 0.050731-0.35503 0.10339-0.53125 0.15625 0.02202 0.040237 0.04967 0.077906 0.0625 0.125 0.04087-0.00807 0.08566-0.018554 0.125-0.03125 0.10502-0.033986 0.23316-0.17033 0.34375-0.25zm0.282 0.0938c-0.06815 0.14378-0.57964 0.23043-0.5625 0.4375 0.02194 0.26474 0.24439 0.40857 0.5 0.53125 0.0202 0.00145 0.04262-0.00157 0.0625 0 0.20079 0.015851 0.3738 0.052053 0.40625 0.21875 0.30878 0.11349 0.60872 0.24957 0.78125 0.46875 0.0368-0.043007 0.07389-0.072794 0.09375-0.125 0.09276-0.24411 0.11951-0.54892 0-0.78125-0.211-0.4103-0.821-0.5459-1.281-0.75zm-2.563 0.6875c-0.31352 0.13261-0.62347 0.26768-0.9375 0.40625 0.05277-0.00549 0.1075 0.00299 0.15625 0 0.28509-0.020029 0.62553 0.10418 0.78125 0.34375 0.03416 0.052566 0.04353 0.1203 0.0625 0.1875 0.15651 0.055348 0.32395 0.11608 0.46875 0.1875 0.57776 0.28515 0.91914 1.1908 1.5625 1.1562 0.38983-0.022286 0.94952-0.39802 0.875-0.78125-0.04868-0.25005-0.43034-0.19698-0.71875-0.25-0.0096-0.00177-0.02185 0.00204-0.03125 0-0.0409 0.00878-0.08655 0.029052-0.125 0.03125-0.59433 0.031936-0.93359-0.72328-1.4375-1.0625-0.22064 0.022563-0.42746 0.025909-0.5625-0.125-0.0195-0.022286 0-0.064778 0-0.09375-0.02519 0.01053-0.06861-0.010633-0.09375 0zm8.1875 0.34375c-0.869 0.0767-1.897 0.9463-2.593 1.5313-0.389 0.3265-0.44 0.9676-0.813 1.3125-0.19 0.176-0.441 0.426-0.687 0.344-0.432-0.144-0.701-0.6025-0.844-1.094-0.04714 0.058148-0.08368 0.11135-0.09375 0.1875-0.0936 0.70757 0.26038 1.6806 0.9375 1.9062 0.24626 0.08218 0.49707-0.16741 0.6875-0.34375 0.37245-0.3449 0.42386-0.98596 0.8125-1.3125 0.92834-0.78 2.4355-2.079 3.375-1.3125 0.137 0.1117-0.164 0.3693-0.094 0.5312 0.083 0.192 0.322 0.3481 0.531 0.3438 0.395-0.0084 0.92-0.2958 0.969-0.6875 0.024-0.1919-0.155-0.4134-0.344-0.5-0.129 0.0871-0.291 0.1247-0.437 0.1563-0.111 0.0988-0.216 0.177-0.344 0.1562-0.04-0.0056-0.085-0.0227-0.094-0.0625-0.0091-0.041158 0.0022-0.084006 0-0.125-0.12-0.0636-0.231-0.1654-0.281-0.2813-0.07-0.1619 0.231-0.4195 0.094-0.5312-0.235-0.1916-0.492-0.2443-0.782-0.2188zm-9.6562 0.5c-0.09889 0.22726-0.04636 0.54626-0.25 0.6875-0.14861 0.10293-0.39584 0.17771-0.59375 0.15625-0.21725 0.27759-0.45088 0.58933-0.28125 0.84375 0.16101 0.24152 0.63649 0.16519 0.875 0 0.20364-0.14124 0.15111-0.46024 0.25-0.6875-0.01671 0.33041 0.4683 0.48639 0.78125 0.59375 0.21951 0.075214 0.52334 0.16408 0.6875 0 0.16408-0.16408 0.12647-0.49286 0-0.6875-0.06-0.0931-0.147-0.1614-0.25-0.2187-0.144-0.0003-0.309-0.0499-0.437-0.0938-0.01898-0.00651-0.04239-0.024245-0.0625-0.03125-0.0083-0.0029-0.02275 0.00299-0.03125 0-0.1365 0.00836-0.29927 0.020764-0.4375 0.09375 0.05696-0.063771 0.12716-0.12683 0.1875-0.1875-0.242-0.1076-0.449-0.2434-0.438-0.4688zm18.282 0.8126c-0.066 0.0068-0.134 0.0104-0.188 0.0312-0.364 0.1399-0.652 0.4923-0.875 0.8125-0.089 0.1281-0.148 0.2815-0.156 0.4375-0.01034 0.20085 0.1445 0.36358 0.15625 0.5625 0.21526-0.30847 0.49831-0.63381 0.84375-0.78125 0.012-0.0504 0.022-0.1105 0.031-0.1562 0.059-0.3069 0.519-0.6162 0.344-0.875-0.033-0.0481-0.091-0.0381-0.156-0.0312zm1.812 0.25c-0.03923 0.1356-0.17842 0.13687-0.34375 0.0625 0.11721 0.31579 0.51122 0.59317 0.84375 0.65625 0.04308-0.0009416 0.08814 0.015287 0.125 0 0.076-0.0316 0.074-0.184 0.156-0.1876-0.25-0.192-0.522-0.3513-0.781-0.5312zm-21.562 0.2187c-0.157 0.3345-0.519 0.5883-0.813 0.8125-0.55776 0.42602-1.5621 0.37563-1.8125 1.0312-0.09049 0.2365 0.04779 0.51837 0.21875 0.71875 0.40076-0.36092 1.1377-0.40168 1.5938-0.75 0.2935-0.22425 0.65583-0.47802 0.8125-0.8125 0.135-0.2907 0.207-0.6522 0.062-0.938-0.013-0.0252-0.044-0.0418-0.062-0.0625zm20.438 0.96875c-0.21655 0.0491-0.5638 0.34958-0.78125 0.3125-0.031 0.05508-0.08306 0.10077-0.09375 0.15625-0.0475 0.24713-0.16772 0.57436 0 0.75 0.07577-0.12745 0.01408-0.31298 0.09375-0.4375 0.21288-0.33236 1.1214-0.32352 0.96875-0.6875-0.03412-0.08139-0.10421-0.11264-0.1875-0.09375zm-6.4062 0.40625c-0.04548 0.01438-0.09436 0.03158-0.125 0.0625-0.12313 0.12313-0.05767 0.36695 0 0.53125 0.05366 0.15273 0.22697 0.23984 0.3125 0.375 0.01376-0.05026 0.02759-0.10868 0.03125-0.15625 0.0195-0.26041 0.08636-0.53471 0-0.78125-0.0029-0.0083 0.0036-0.02334 0-0.03125-0.02205-0.0041-0.03969 0.00072-0.0625 0-0.04861-0.0014-0.11077-0.01438-0.15625 0zm3.0625 0.125c-0.2519 0.11991-0.38259 0.68808-0.65625 0.59375-0.16117-0.05564-0.27324-0.20248-0.34375-0.375-0.1755 0.44518-0.10865 1.2188 0.34375 1.375 0.18029 0.06215 0.30225-0.15003 0.4375-0.34375-0.05894-0.07514-0.1164-0.14258-0.09375-0.21875 0.05961-0.20057 0.34684-0.44236 0.53125-0.34375 0.10914 0.05838 0.07825 0.19598 0.03125 0.34375 0.16012 0.12218 0.23914 0.42439 0.40625 0.5625 0.02003 0.01656 0.04175 0.04333 0.0625 0.0625 0.20576 0.03882 0.43687 0.04555 0.625 0 0.07566-0.01833 0.14733-0.0617 0.21875-0.09375 0.05055-0.20618 0.02705-0.46272 0.03125-0.65625 0.0028-0.10558-0.01691-0.21292-0.0625-0.3125-0.04771 0.16526-0.13213 0.2868-0.28125 0.34375-0.21854 0.08349-0.41351-0.19472-0.59375-0.34375-0.20623-0.17043-0.26494-0.56589-0.53125-0.59375-0.04115-0.0042-0.08901-0.01713-0.125 0zm-3.844 1.157c-0.171 0.142-0.398 0.244-0.563 0.156-0.03227-0.01723-0.03742-0.06805-0.0625-0.09375-0.0093 0.01018-0.02419 0.02052-0.03125 0.03125-0.19249 0.29172-0.21435 0.89798 0.09375 1.0625 0.26353 0.14068 0.68651-0.15405 0.78125-0.4375 0.07661-0.22935-0.02306-0.55597-0.21875-0.71875zm-10.063 0.344c0.000788 0.02163 0.01872 0.04171 0.03125 0.0625 0.0053 0.0087 0.02483-0.0068 0.03125 0-0.01349-0.02811-0.04661-0.03655-0.0625-0.0625zm11.969 0.03125c-0.06903 0.03453-0.12579 0.09455-0.1875 0.125-0.22119 0.10911-0.5295 0.27672-0.75 0.21875-0.10362 0.34468-0.35973 0.71303-0.125 0.9375 0.21394 0.20447 0.60958-0.02532 0.875-0.15625 0.27662-0.1365 0.67725-0.3167 0.6875-0.625 0.0071-0.24121-0.30224-0.3333-0.5-0.5zm-11.656 1.093c-0.23857 0.11903-0.46383 0.35889-0.71875 0.40625-0.28531 0.05293-0.59075-0.05822-0.875 0-0.43296 0.08886-1.3076 0.09829-1.2188 0.53125 0.12837 0.62536 1.5883-0.55358 1.9062 0 0.08435 0.14686 0.03214 0.30768-0.0625 0.46875 0.08332 0.0039 0.16848 0.01512 0.25 0 0.39738-0.07382 0.77536-0.64024 1.125-0.4375 0.02971 0.01722 0.04542 0.06678 0.0625 0.09375-0.10929-0.1586 0.0692-0.57218 0.0625-0.84375-0.08601-0.08633-0.20858-0.13399-0.3125-0.1875-0.06273-0.03232-0.13764-0.03774-0.21875-0.03125zm0.75 1.0625c-0.06126 0.03558-0.11973 0.07747-0.1875 0.0625-0.02867-0.0063-0.0437-0.01639-0.0625-0.03125 0.12507 0.29354-0.26364 0.95912 0.0625 1.0312 0.30646 0.06769 0.58783-0.50376 0.53125-0.8125-0.02597-0.14123-0.18678-0.19286-0.34375-0.25zm10.094 0.375c-0.07897 0.01853-0.12932 0.07219-0.15625 0.15625-0.02985 0.09305 0.0168 0.15502 0.09375 0.21875 0.24308 0.0061 0.54978 0.18232 0.6875 0 0.07109-0.09424 0.02711-0.22237-0.03125-0.34375-0.20786-0.0036-0.43582-0.0683-0.59375-0.03125zm-12.094 0.345c-0.08819 0.0816-0.16798 0.12893-0.25 0.1875-0.27094 0.1937-0.66431 0.1105-1 0.15625-0.1119 0.01525-0.2181 0.06664-0.3125 0.125-0.28144 0.17394-0.36203 0.5804-0.625 0.78125-0.2998 0.22912-0.77441 0.16116-1.0312 0.4375-0.31242 0.33607-0.17648 0.93515-0.4375 1.3125-0.3403 0.49198-1.1212 0.59906-1.4062 1.125-0.13204 0.24369-0.02463 0.60477 0.03125 0.9375 0.30849-0.47635 1.0478-0.58944 1.375-1.0625 0.26102-0.37735 0.12508-0.97643 0.4375-1.3125 0.25684-0.27634 0.73145-0.20838 1.0312-0.4375 0.26297-0.20085 0.34356-0.60731 0.625-0.78125 0.3776-0.23344 0.95125-0.02299 1.3125-0.28125 0.32807-0.23427 0.79454-0.68167 0.59375-1.0312-0.06971-0.12136-0.18967-0.16416-0.34375-0.15625zm14.781 0.0625c-0.30533-0.0069-0.63649 0.109-0.84375 0.3125-0.08525 0.08385-0.02355 0.24709-0.09375 0.34375-0.16096 0.22132-0.51534 0.22467-0.6875 0.4375-0.21366 0.264-0.14434 0.71943-0.375 0.96875-0.2381 0.25726-0.59249 0.50018-0.9375 0.4375-0.20182-0.0366-0.24807-0.35894-0.4375-0.4375-0.13405-0.05544-0.33499 0.10252-0.4375 0-0.0554-0.0554-0.12105-0.11733-0.15625-0.1875-0.12405 0.41731-0.12075 0.9105 0.15625 1.1875 0.10251 0.10252 0.30345-0.05544 0.4375 0 0.04736 0.01964 0.09108 0.05212 0.125 0.09375 0.09847-0.07816 0.20629-0.15067 0.3125-0.21875 0.32767-0.21012 0.73541-0.2805 1.125-0.34375 0.03151-0.17523 0.08067-0.368 0.1875-0.5 0.17216-0.21283 0.52654-0.21618 0.6875-0.4375 0.0702-0.09666 0.0085-0.2599 0.09375-0.34375 0.27634-0.27133 0.75662-0.3692 1.125-0.25 0.29353 0.09471 0.34964 0.49891 0.59375 0.6875 0.07288 0.05637 0.18013 0.06872 0.28125 0.09375-0.07613-0.14864 0.15183-0.29874 0.3125-0.46875-0.12252-0.09078-0.21264-0.1859-0.15625-0.3125 0.02354-0.05307 0.08866-0.07065 0.15625-0.0625-0.15492-0.10854-0.43335-0.12595-0.59375-0.25-0.24411-0.18859-0.30022-0.59279-0.59375-0.6875-0.0921-0.0298-0.17948-0.0602-0.28125-0.0625zm1.375 0c-0.02636 0.0082-0.05073 0.03597-0.0625 0.0625-0.15884 0.35663 0.71996 0.45818 0.78125 0.84375 0.019 0.11983 0.01574 0.2559-0.03125 0.375 0.1187 0.10542 0.23524 0.24151 0.3125 0.375 0.1482 0.25601 0.03312 0.60593 0.15625 0.875 0.13761 0.30083 0.30478 0.86446 0.625 0.78125 0.36941-0.09583-0.06856-0.81657 0.15625-1.125-0.01998 0.07161-0.07455 0.10381-0.15625 0.125-0.32022 0.08321-0.48739-0.48042-0.625-0.78125-0.12313-0.26907-0.008-0.61899-0.15625-0.875-0.15452-0.26698-0.43001-0.48538-0.71875-0.59375-0.08148-0.03071-0.20216-0.08702-0.28125-0.0625zm2.3125 1c-0.12619-0.03036-0.29867 0.08276-0.375 0.1875-0.1686 0.23133 0.04823 0.70927 0 0.96875 0.07889-0.09873 0.25512-0.1851 0.375-0.15625 0.52466 0.12675 0.46504 1.0515 0.9375 1.3125 0.35652 0.19695 0.83558-0.04414 1.2188 0.09375 0.04863 0.01754 0.10321 0.04208 0.15625 0.0625 0.0599-0.0677 0.13112-0.12 0.1875-0.1875 0.10836-0.12981 0.31579-0.27175 0.28125-0.4375-0.05084-0.24445-0.39016-0.35281-0.625-0.4375-0.38318-0.13789-0.86224 0.1032-1.2188-0.09375-0.47246-0.26099-0.41284-1.1858-0.9375-1.3125zm-1.8438 0.625c-0.02818 0.03076-0.06356 0.0675-0.09375 0.09375-0.09506 0.08254-0.24021 0.15136-0.375 0.1875 0.09785 0.03448 0.18934 0.09246 0.21875 0.1875 0.08831 0.28542-0.62325 0.54725-0.4375 0.78125 0.13121 0.16547 0.4343-0.0178 0.59375-0.15625 0.21562-0.18748 0.38852-0.53022 0.34375-0.8125-0.01985-0.12486-0.12138-0.19385-0.25-0.28125zm-23.437 2.813c-0.089001-0.0014-0.17134 0.01932-0.25 0.0625-0.16018 0.08831-0.00749 0.39275-0.15625 0.5-0.23539 0.16965-0.5981-0.08664-0.875 0-0.43794 0.13681-0.89546 0.38404-1.125 0.78125-0.1747 0.302-0.0966 0.713-0.0938 1.062 0.0004754 0.06217 0.00316 0.12292 0 0.1875 0.016567-0.08482 0.050085-0.17438 0.09375-0.25 0.22954-0.39722 0.68706-0.64444 1.125-0.78125 0.2769-0.08664 0.63961 0.16965 0.875 0 0.14876-0.10725-0.00393-0.41169 0.15625-0.5 0.31465-0.17271 0.75936 0.05806 1.0625 0.25 0.34832 0.22091 0.3861 1.0869 0.78125 0.96875 0.35679-0.10666 0.19053-0.60473 0.125-1.0625-0.0315 0.0295-0.07423 0.04732-0.125 0.0625-0.395 0.118-0.433-0.748-0.7815-0.969-0.2274-0.144-0.5455-0.308-0.8125-0.312zm31.406 0.031c-0.0371-0.01067-0.07944 0.01377-0.125 0.03125-0.31755 0.12185-0.15246 0.68273 0 1 0.19849-0.07616 0.29145 0.13316 0.40625 0.375 0.10051 0.05379 0.2052 0.10967 0.28125 0.1875 0.07447 0.07619 0.11005 0.19825 0.15625 0.3125 0.18903 0.03627 0.3947-0.09232 0.59375-0.125 0.06992-0.20155 0.11696-0.39436 0.28125-0.375 0.33941 0.03995 0.36787 0.59255 0.4375 0.9375 0.0018 0.0091-0.0019 0.02245 0 0.03125 0.16586 0.26091 0.35679 0.49321 0.625 0.46875 0.11561-0.01114 0.1798-0.17395 0.25-0.25-0.03958-0.27538-0.1054-0.54081-0.15625-0.8125-0.02906 0.02682-0.05805 0.05906-0.09375 0.0625-0.51126 0.04663-0.63814-0.86829-1.125-1.0312-0.27657-0.09277-0.60311 0.19905-0.875 0.09375-0.318-0.123-0.396-0.831-0.656-0.906zm-3.531 0.469c-0.10335-0.0156-0.21295 0.05847-0.25 0.15625-0.10561 0.27965-0.0125 0.58295 0.125 0.875 0.04076-0.02208 0.08326-0.03755 0.125-0.03125 0.40788 0.06101 0.55987 0.58954 0.78125 0.9375 0.43195 0.67893 0.61938 1.5158 1.0625 2.1875 0.06964 0.10549 0.17585 0.19694 0.28125 0.28125 0.10197-0.19386 0.34468-0.38181 0.3125-0.59375-0.04619-0.30498-0.42382-0.4301-0.59375-0.6875-0.44312-0.67169-0.63055-1.5086-1.0625-2.1875-0.221-0.348-0.373-0.876-0.781-0.937zm-32.094 2.531c-0.039992 0.32788-0.10151 0.63615-0.125 0.96875 0.4185-0.09165 0.32782 0.84762 0.625 1.1562 0.39696 0.41226 0.94192 0.65142 1.4688 0.875 0.49903 0.21171 1.1199 0.09327 1.5625 0.40625 0.28921 0.20447 0.37869 0.62047 0.625 0.875 0.3027 0.31278 0.60161 0.71152 1.0312 0.78125 0.18107 0.02953 0.34881-0.17631 0.53125-0.15625 0.09815 0.01138 0.19559 0.03576 0.28125 0.09375 0.03977-0.13452 0.064-0.26944 0.09375-0.40625-0.343 0.175-0.8743-0.128-1.1562-0.407-0.0916-0.09-0.1223-0.185-0.1563-0.312-0.2274-0.162-0.4329-0.395-0.625-0.594-0.2463-0.254-0.3358-0.67-0.625-0.875-0.4426-0.313-1.0635-0.194-1.5625-0.406-0.5268-0.224-1.0718-0.463-1.4688-0.875-0.2671-0.277-0.2105-1.039-0.5-1.125zm20.125 0.125c-0.10462 0.24838-0.15534 0.4938-0.125 0.75 0.186-0.167 0.366-0.31 0.344-0.531-0.01-0.102-0.122-0.158-0.219-0.219zm17.5 0.09375c-0.13876 0.29122-0.41434 0.50147-0.65625 0.71875-0.37128 0.33376-0.8456 0.54333-1.2188 0.875-0.32242 0.28659-1.0753 0.58666-0.875 0.96875 0.18892 0.36044 0.85768-0.34364 1.2188-0.21875 0.29845-0.20271 0.60713-0.3842 0.875-0.625 0.25991-0.23344 0.56331-0.45462 0.6875-0.78125 0.09276-0.24403 0.05516-0.526 0-0.78125-0.0099-0.04538-0.02265-0.10453-0.03125-0.15625zm-33.688 0.4375c-0.16897 0.34336-0.338 0.68408-0.125 0.90625 0.042041 0.04389 0.096846 0.03587 0.15625 0.03125 0.15756-0.32212 0.28306-0.6568 0.09375-0.875-0.034264-0.03945-0.072205-0.05204-0.125-0.0625zm15.844 1.4375c-0.07031 0.08493-0.11543 0.17706-0.125 0.28125-0.06073 0.66021 0.42724 1.2519 0.78125 1.8125 0.517 0.816 0.944 2.107 1.907 2.186 0.41103 0.03371 0.55861-0.82454 0.96875-0.78125 0.18469 0.0195 0.16101 0.40351 0.34375 0.4375 0.39632 0.07382 0.63144-0.67673 1.0312-0.625 0.16269 0.02229 0.19221 0.31218 0.34375 0.375 0.2949 0.12229 0.67809-0.13176 0.96875 0 0.16001 0.07268 0.29123 0.19984 0.40625 0.34375 0.11958-0.22187 0.26947-0.42949 0.21875-0.65625-0.06739-0.30102-0.34412-0.55991-0.625-0.6875-0.29066-0.13176-0.67385 0.12229-0.96875 0-0.15154-0.06282-0.18106-0.35271-0.34375-0.375-0.39981-0.05173-0.63493 0.69882-1.0312 0.625-0.18274-0.03399-0.15906-0.418-0.34375-0.4375-0.41-0.044-0.558 0.815-0.969 0.781-0.963-0.079-1.39-1.37-1.906-2.188-0.222-0.35-0.497-0.705-0.656-1.093zm14.719 0.3125c-0.04557 0.16132-0.19899 0.31237-0.28125 0.46875 0.2254 0.07648 0.48164 0.08468 0.5625-0.09375 0.07126-0.15703-0.0967-0.26073-0.28125-0.375zm-29.781 0.124c0.011131 0.0942 0.011584 0.18938 0.03125 0.28125 0.016854-0.10285 0.010714-0.20385-0.03125-0.28125zm31.375 1.032c-0.18538 0.67303-0.50128 1.3187-0.875 1.9062-0.20954 0.32941-0.56536 0.5498-0.78125 0.875-0.30166 0.45413-0.56855 0.93668-0.6875 1.4688-0.10682 0.47809-0.08931 0.97457-0.0625 1.4688 0.01736-0.15888 0.02766-0.31284 0.0625-0.46875 0.11895-0.53207 0.38584-1.0146 0.6875-1.4688 0.21589-0.3252 0.57171-0.54559 0.78125-0.875 0.43967-0.69122 0.8059-1.4784 0.96875-2.2812 0.04039-0.19918 0.15294-0.45995 0-0.59375-0.02421-0.0212-0.0652-0.02137-0.09375-0.03125zm-9.625 3.4375c-0.1203 0.22361-0.27081 0.45919-0.21875 0.6875 0.06958 0.30501 0.48899 0.42824 0.65625 0.6875 0.06027-0.311 0.1624-0.61687 0.0625-0.90625-0.07238-0.20986-0.32184-0.32038-0.5-0.46875zm-21.406 1.624c-0.07242 0.17686-0.14784 0.34688-0.125 0.53125 0.11004 0.88948 0.76051 1.6376 1.3125 2.3438 0.36668 0.46908 0.91083 0.77925 1.3125 1.2188 0.2025 0.22172 0.44249 0.44702 0.5625 0.71875 0.05916-0.30944 0.12332-0.61545 0.03125-0.90625-0.0999-0.3154-0.37061-0.56819-0.59375-0.8125-0.402-0.44-0.946-0.75-1.313-1.219-0.453-0.579-0.9562-1.183-1.1872-1.875zm10.812 0.15625c-0.02521 0.0814-0.0353 0.17442-0.0625 0.25-0.1692 0.4697-0.7346 0.73966-0.875 1.2188-0.08749 0.29832-0.02734 0.62277 0.03125 0.9375 0.1702-0.43804 0.68263-0.709 0.84375-1.1562 0.13789-0.38318 0.29201-0.8629 0.09375-1.2188-0.0074-0.01336-0.02346-0.01826-0.03125-0.03125zm11.094 0.25c-0.05697 0.27896-0.15741 0.57578-0.09375 0.84375 0.05164 0.2177 0.22456 0.38212 0.375 0.5625 0.12245-0.16723 0.22549-0.33516 0.21875-0.53125-0.01087-0.33745-0.33032-0.5788-0.5-0.875zm6.8438 2.4688c-0.05035 0.04781-0.10631 0.11257-0.15625 0.15625-0.25481 0.22269-0.59726 0.30695-0.875 0.5-0.30509 0.21213-0.82425 0.34772-0.84375 0.71875-0.01296 0.23403 0.29574 0.32974 0.53125 0.46875 0.11247-0.05465 0.22231-0.12479 0.3125-0.1875 0.27774-0.19305 0.62019-0.27731 0.875-0.5 0.13984-0.12229 0.30606-0.25545 0.34375-0.4375 0.05036-0.24298-0.09216-0.47924-0.1875-0.71875zm-18.844 0.719c-0.07352 0.40463-0.16773 0.83577-0.46875 1.0938-0.29398 0.25266-0.8157 0.01711-1.125 0.25-0.2386 0.17968-0.418 0.4831-0.4375 0.78125-0.01003 0.15594 0.185 0.28122 0.1875 0.4375 0.000474 0.02986 0.000376 0.06355 0 0.09375 0.07375-0.11987 0.14251-0.23156 0.25-0.3125 0.3093-0.23289 0.83102 0.0027 1.125-0.25 0.35596-0.30506 0.45411-0.8501 0.53125-1.3125 0.04276-0.25649-0.01362-0.51794-0.0625-0.78125zm11.969 0.031c-0.07083 0.47771-0.04459 0.96421 0.03125 1.4375 0.14207 0.88873 0.72055 1.6578 0.9375 2.5312 0.05641 0.22705 0.0992 0.45442 0.125 0.6875 0.02227-0.10614 0.06834-0.21541 0.0625-0.3125-0.02897-0.467-0.07468-0.9209-0.1875-1.375-0.21695-0.87349-0.79543-1.6425-0.9375-2.5312-0.02285-0.14256-0.02156-0.29235-0.03125-0.4375zm5.1875 1.875c-0.21063 0.09411-0.41072 0.21785-0.46875 0.40625-0.06212 0.20188 0.23179 0.38705 0.1875 0.59375-0.01787 0.0835-0.06422 0.16865-0.09375 0.25 0.26015-0.29343 0.95079-0.32254 0.96875-0.71875 0.01128-0.24888-0.35817-0.37816-0.59375-0.53125zm-24 0.375c-0.05553 0.288-0.116 0.56514-0.0625 0.84375 0.04539 0.23674 0.22919 0.44167 0.34375 0.65625 0.067-0.23265 0.1181-0.44833 0.09375-0.6875-0.02995-0.29388-0.26016-0.54018-0.375-0.8125zm4.9062 1.0625c-0.10208 0.43356-0.28142 0.83743-0.59375 1.125-0.24339 0.22397-0.73336 0.04864-0.96875 0.28125-0.14904 0.14848-0.08025 0.41156-0.1875 0.59375-0.14566 0.2476-0.54779 0.34144-0.59375 0.625-0.02089 0.12814 0.18606 0.21756 0.15625 0.34375-0.03335 0.14096-0.37328 0.10793-0.34375 0.25-0.78375-0.3961-1.5067-0.82034-2.2188-1.3125-0.08653 0.24777-0.19017 0.49533-0.21875 0.75-0.0028 0.02897 0.02813 0.08707 0 0.09375 2.4594 1.7539 1.9885 1.421 3.2188 0.25 0.10725-0.18218 0.03846-0.44527 0.1875-0.59375 0.23539-0.23261 0.72536-0.05728 0.96875-0.28125 0.49973-0.46012 0.69828-1.227 0.6875-1.9062-0.0012-0.07814-0.04928-0.14896-0.09375-0.21875zm18.625 0.09375c-0.25978 0.49305-0.7286 0.89698-1.2188 1.125-0.28941 0.13455-0.62987-0.08524-0.9375 0-0.32612 0.09034-0.54888 0.44099-0.875 0.53125-0.16778 0.04652-0.40812 0.12313-0.53125 0-0.02405-0.02406-0.02022-0.06448-0.03125-0.09375 0.01 0.12753 0.02335 0.24772 0.03125 0.375 0.01393 0.23177-0.16408 0.55459 0 0.71875 0.12313 0.12313 0.36347 0.04652 0.53125 0 0.32612-0.09026 0.54888-0.44091 0.875-0.53125 0.30763-0.08524 0.64809 0.13455 0.9375 0 0.65353-0.30403 1.2554-0.95141 1.4062-1.6562 0.03322-0.15502-0.13689-0.31742-0.1875-0.46875z"/>
  <path id="path3879" style="opacity:.4" d="m24 44c-10.499 0-19-8.501-19-19 0-0.169 0.0268-0.332 0.0312-0.5 0.2684 10.265 8.6388 18.5 18.969 18.5 10.329 0 18.7-8.235 18.969-18.5 0.004 0.168 0.031 0.331 0.031 0.5 0 10.499-8.502 19-19 19z"/>
 </g>
 <g id="layer2">
  <rect id="rect3950" style="opacity:.6;fill:none" height="96" width="96" y="-24" x="-24"/>
  <path id="path2555-1" style="color:#000000;fill:url(#radialGradient3035)" d="m23.374 4.5019c5.0657 0 9.6534 4.5946 10.001 9.999 0.000007 5.2413-4.2585 9.4991-9.5006 9.4991l-0.50004 0.03125c-5.1476 0.2614-9.2506 4.5067-9.2506 9.7178s4.103 9.4564 9.2506 9.7178v0.03124c0.16694 0.0042 0.33209 0 0.50004 0 10.759 0 19.501-8.7407 19.501-19.498s-8.7421-19.498-19.501-19.498c-0.16794 0-0.3331-0.00422-0.50004 0.0000066z"/>
  <path id="path3945" style="color:#000000;fill:url(#radialGradient3996)" d="m23.375 4.5c5.0657 0 9.6527 4.5956 10 10-0.8297 8.3764-6.478 5.5833-11.375 5.5-4.4183 0-8 3.5817-8 8 0 0.22248 0.0442 0.43839 0.0625 0.65625-1.278 1.418-2.062 3.285-2.062 5.344 0 2.0515 0.76169 3.9278 2.0312 5.3438-0.025 0.245-0.031 0.498-0.031 0.75 0 0.21251 0.01498 0.41666 0.03125 0.625 2.3913 1.4301 5.0894 2.3639 8 2.6562 0.07277 0.0073 0.14572 0.02476 0.21875 0.03125 0.24122 0.03043 0.47241 0.04999 0.71875 0.0625v0.03125c0.16694 0.0042 0.33206 0 0.5 0 0.08397 0 0.16623 0.0011 0.25 0 0.09424 0.0013 0.1867 0 0.28125 0 0.1566 0 0.31296-0.02735 0.46875-0.03125 1.7533-0.0439 3.4538-0.30684 8.2274-1.8967 4.774-1.59 10.679-8.925 10.679-17.572 0-10.757-8.7409-19.5-19.5-19.5-0.16794 0-0.33306-0.00422-0.5 0z"/>
  <path id="path4005" style="opacity:0.91;block-progression:tb;text-indent:0;color:#000000;text-transform:none;fill:url(#radialGradient5493)" d="m23.5 4.0121v0.5 0.5c4.7538 0 9.154 4.372 9.5 9.5 0.000695 0.0103-0.000662 0.02094 0 0.03125-0.20819 1.974-0.7151 3.2668-1.3438 4.0625-0.64006 0.81015-1.4282 1.1882-2.4062 1.3438-1.9562 0.31105-4.5848-0.3943-7.125-0.4375-4.6885 0-8.5 3.8115-8.5 8.5 0 0.22362 0.04221 0.37449 0.0625 0.53125-1.2581 1.48-2.0625 3.373-2.0625 5.4688 0 2.0853 0.78062 3.9871 2.0312 5.4688-0.01448 0.20861-0.03125 0.4254-0.03125 0.625 0 0.23601 0.01486 0.44639 0.03125 0.65625l0.03125 0.28125 0.21875 0.125c5.197 2.7779 10.257 3.6251 17.212 1.3051 6.956-2.32 12.882-9.699 12.882-18.461 0-11.028-8.97-20-20-20-0.15957 0-0.31632-0.00464-0.5 0zm4.875 1.5625c8.365 1.99 14.625 9.4684 14.625 18.437 0.000006 8.4196-5.7589 15.577-12.344 17.641-6.5854 2.0637-11.167 1.2851-16.031-1.2659-0.0044-0.08129-0.000807-0.16864 0-0.25 3.1704 1.5518 5.3518 2.2134 7.2188 2.25 2.0133 0.03946 3.638-0.59784 5.8125-1.2812l-0.3125-0.9375c-2.2005 0.69159-3.7032 1.254-5.5 1.2188-1.7613-0.03452-3.8993-0.65512-7.3125-2.375-1.1894-1.3265-1.9062-3.0723-1.9062-5 0-1.7061 0.57055-3.2433 1.5312-4.5 3.731 2.6494 8.2258 3.3814 13.5 1.5938l-0.3125-0.9375c-5.0652 1.7169-9.1478 0.99634-12.656-1.5312-0.0011-0.01274 0.0012-0.01874 0-0.03125-0.02222-0.24024-0.0625-0.44523-0.0625-0.59375 0-4.1481 3.3519-7.5 7.5-7.5 2.3567 0.04008 4.9816 0.77192 7.2812 0.40625 1.1498-0.18284 2.2571-0.6681 3.0625-1.6875 0.804-1.019 1.317-2.503 1.53-4.655v-0.0625-0.03125c-0.244-3.803-2.564-7.0726-5.625-8.9064z"/>
  <path id="path5504" style="opacity:.6;color:#000000;fill:url(#linearGradient3948)" d="m28.25 5.5625c0.79 0.4732 1.519 1.0386 2.188 1.6875 7.087 2.6241 12.196 9.308 12.406 17.25 0.004-0.168 0.031-0.331 0.031-0.5 0-8.969-6.26-16.448-14.625-18.438zm5.562 9.4375c-0.238 1.906-0.722 3.274-1.468 4.219-0.806 1.019-1.913 1.504-3.063 1.687-2.299 0.366-4.924-0.366-7.281-0.406-4.148 0-7.5 3.352-7.5 7.5 0 0.055 0.023 0.149 0.031 0.219 0.384-3.786 3.58-6.719 7.469-6.719 2.357 0.04 4.982 0.772 7.281 0.406 1.15-0.183 2.257-0.668 3.063-1.687 0.805-1.02 1.318-2.504 1.531-4.657v-0.062-0.031c-0.01-0.159-0.045-0.312-0.063-0.469zm-19.781 14.5c-0.96 1.257-1.531 2.794-1.531 4.5 0 0.126 0.025 0.251 0.031 0.375 0.123-1.454 0.66-2.775 1.5-3.875 3.731 2.649 8.226 3.381 13.5 1.594l-0.312-0.906c-0.626 0.201-1.24 0.369-1.844 0.5-0.24 0.055-0.484 0.112-0.719 0.156-0.03 0.005-0.063-0.005-0.094 0s-0.062 0.026-0.093 0.031c-0.248 0.04-0.506 0.066-0.75 0.094-0.255 0.032-0.5 0.044-0.75 0.062-0.074 0.006-0.146 0.027-0.219 0.031-0.774 0.044-1.524 0.024-2.25-0.062-0.061-0.006-0.127-0.024-0.188-0.031-0.257-0.031-0.497-0.08-0.75-0.125-0.01-0.002-0.021 0.002-0.031 0-0.297-0.06-0.585-0.106-0.875-0.188-0.032-0.008-0.062-0.023-0.094-0.031-1.614-0.423-3.132-1.131-4.531-2.125zm0.469 10.625c-0.001 0.081-0.004 0.169 0 0.25 3.452 1.811 6.768 2.691 10.25 2.563 0.871-0.235 1.766-0.525 2.781-0.844l-0.312-0.906c-1.046 0.333-1.992 0.623-2.907 0.843-0.331 0.085-0.645 0.164-0.968 0.219-0.062 0.01-0.126 0.023-0.188 0.031-0.469 0.071-0.944 0.104-1.437 0.094-0.23-0.004-0.475-0.006-0.719-0.031-0.225-0.023-0.451-0.085-0.688-0.125-0.019-0.004-0.043 0.003-0.062 0-0.23-0.041-0.476-0.098-0.719-0.157-1.394-0.333-3.005-0.946-5.031-1.937z"/>
  <path id="path3940" style="opacity:.2;color:#000000;fill:#daffae" d="m28.25 6.5627c0.78978 0.47321 1.5193 1.0386 2.1875 1.6875 7.0876 2.6241 12.197 9.3078 12.406 17.25 0.0046-0.1675 0.03125-0.33146 0.03125-0.5 0-8.9694-6.2603-16.448-14.625-18.437zm5.5625 9.4375c-0.23808 1.9061-0.72207 3.2736-1.4688 4.2188-0.80538 1.0194-1.9127 1.5047-3.0625 1.6875-2.2997 0.36568-4.9245-0.36617-7.2812-0.40625-4.1481 0-7.5 3.3519-7.5 7.5 0 0.05493 0.02318 0.14944 0.03125 0.21875 0.38345-3.7862 3.5799-6.7188 7.4688-6.7188 2.3567 0.04008 4.9816 0.77192 7.2812 0.40625 1.1498-0.18284 2.2571-0.6681 3.0625-1.6875 0.80538-1.0194 1.3181-2.5041 1.5312-4.6562v-0.0625-0.03125c-0.01018-0.15846-0.04521-0.31221-0.0625-0.46875zm-19.781 14.5c-0.9607 1.2567-1.5312 2.7939-1.5312 4.5 0 0.12594 0.0252 0.25068 0.03125 0.375 0.12234-1.4543 0.65938-2.7754 1.5-3.875 3.731 2.6494 8.2258 3.3814 13.5 1.5938l-0.3125-0.90625c-0.62598 0.20142-1.24 0.36905-1.8438 0.5-0.23971 0.0555-0.48358 0.11231-0.71875 0.15625-0.0306 0.0053-0.06321-0.0051-0.09375 0-0.0313 0.0057-0.06253 0.02578-0.09375 0.03125-0.24788 0.04014-0.50599 0.06551-0.75 0.09375-0.25512 0.032-0.50021 0.04436-0.75 0.0625-0.07359 0.0053-0.14561 0.0271-0.21875 0.03125-0.77432 0.04398-1.5244 0.0235-2.25-0.0625-0.06112-0.0065-0.12666-0.02394-0.1875-0.03125-0.25734-0.03091-0.49768-0.07974-0.75-0.125-0.01026-0.0018-0.021 0.0019-0.03125 0-0.29709-0.06-0.5857-0.10576-0.875-0.1875-0.03184-0.0081-0.062-0.02294-0.09375-0.03125-1.6148-0.4225-3.1321-1.1315-4.5312-2.125z"/>
 </g>
</svg>
