<?xml version="1.0" encoding="UTF-8" standalone="no"?>
<!-- Created with Inkscape (http://www.inkscape.org/) -->
<svg id="svg3759" xmlns:rdf="http://www.w3.org/1999/02/22-rdf-syntax-ns#" xmlns="http://www.w3.org/2000/svg" height="48" width="48" version="1.1" xmlns:cc="http://creativecommons.org/ns#" xmlns:xlink="http://www.w3.org/1999/xlink" xmlns:dc="http://purl.org/dc/elements/1.1/">
 <metadata id="metadata37">
  <rdf:RDF>
   <cc:Work rdf:about="">
    <dc:format>image/svg+xml</dc:format>
    <dc:type rdf:resource="http://purl.org/dc/dcmitype/StillImage"/>
    <dc:title/>
   </cc:Work>
  </rdf:RDF>
 </metadata>
 <defs id="defs3761">
  <linearGradient id="linearGradient4140" y2="256" gradientUnits="userSpaceOnUse" x2="827" y1="256" x1="789">
   <stop id="stop4136" style="stop-color:#fff" offset="0"/>
   <stop id="stop4138" style="stop-color:#fff;stop-opacity:0" offset="1"/>
  </linearGradient>
  <clipPath id="clipPath4130" clipPathUnits="userSpaceOnUse">
   <path id="path4132" style="fill:#ba2222" d="m790.44 237c-0.81 0-1.44 0.63-1.44 1.44v35.094c0 0.812 0.62555 1.4688 1.4375 1.4688h35.125c0.81195 0 1.4375-0.65675 1.4375-1.4688v-35.094c0-0.81-0.63-1.44-1.44-1.44h-35.125z"/>
  </clipPath>
  <linearGradient id="linearGradient4117" y2="-808" gradientUnits="userSpaceOnUse" x2="-984.86" gradientTransform="translate(1028.4 784)" y1="-808" x1="-1023.9">
   <stop id="stop3933" style="stop-color:#828282" offset="0"/>
   <stop id="stop3935" style="stop-color:#373737" offset="1"/>
  </linearGradient>
  <linearGradient id="linearGradient3952">
   <stop id="stop3954" offset="0"/>
   <stop id="stop3956" style="stop-opacity:0" offset="1"/>
  </linearGradient>
  <linearGradient id="linearGradient3960">
   <stop id="stop3962" style="stop-opacity:0" offset="0"/>
   <stop id="stop3970" offset=".5"/>
   <stop id="stop3964" style="stop-opacity:0" offset="1"/>
  </linearGradient>
  <radialGradient id="radialGradient5537" xlink:href="#linearGradient3952" gradientUnits="userSpaceOnUse" cy="43.5" cx="40" gradientTransform="matrix(1.0571 0 0 1.25 .6 -10.875)" r="2"/>
  <radialGradient id="radialGradient5539" xlink:href="#linearGradient3952" gradientUnits="userSpaceOnUse" cy="43.5" cx="40" gradientTransform="matrix(1 0 0 .75 2 10.875)" r="2"/>
  <radialGradient id="radialGradient5541" xlink:href="#linearGradient3952" gradientUnits="userSpaceOnUse" cy="43.5" cx="9" gradientTransform="matrix(1.0571 0 0 1.25 -4.4 -10.875)" r="2"/>
  <radialGradient id="radialGradient5543" xlink:href="#linearGradient3952" gradientUnits="userSpaceOnUse" cy="43.5" cx="9" gradientTransform="matrix(1 0 0 .75 -3 10.875)" r="2"/>
  <linearGradient id="linearGradient5545" y2="42" xlink:href="#linearGradient3960" gradientUnits="userSpaceOnUse" x2="25" gradientTransform="matrix(1.0571 0 0 1.6667 -5.4 -29)" y1="45" x1="25"/>
  <linearGradient id="linearGradient5547" y2="42" xlink:href="#linearGradient3960" gradientUnits="userSpaceOnUse" x2="25" gradientTransform="translate(-4)" y1="45" x1="25"/>
  <linearGradient id="linearGradient3920" y2="52" gradientUnits="userSpaceOnUse" x2="33.75" gradientTransform="matrix(.99819 0 0 .99819 -6.9439 -7.971)" y1="12" x1="33.625">
   <stop id="stop5805-7" style="stop-color:#fff" offset="0"/>
   <stop id="stop5807-8" style="stop-color:#dedede" offset="1"/>
  </linearGradient>
  <linearGradient id="linearGradient3937" y2="40" gradientUnits="userSpaceOnUse" x2="20" gradientTransform="translate(-1,-1)" y1="8" x1="20">
   <stop id="stop4952" style="stop-color:#90dbec" offset="0"/>
   <stop id="stop4954" style="stop-color:#55c1ec" offset=".26238"/>
   <stop id="stop4956" style="stop-color:#3689e6" offset=".70495"/>
   <stop id="stop4958" style="stop-color:#2b63a0" offset="1"/>
  </linearGradient>
  <linearGradient id="linearGradient3984" y2="36" gradientUnits="userSpaceOnUse" x2="25" y1="13" x1="25">
   <stop id="stop3980" style="stop-color:#fff" offset="0"/>
   <stop id="stop3982" style="stop-color:#fff;stop-opacity:0" offset="1"/>
  </linearGradient>
 </defs>
 <g id="layer1">
  <g id="g3111">
   <path id="path3987" style="opacity:0.12;fill:url(#radialGradient5537)" d="m42.886 41v5h0.52857c0.87849 0 1.5857-1.115 1.5857-2.5s-0.70723-2.5-1.5857-2.5h-0.52857z"/>
   <path id="rect3940" d="m42 42v3h0.5c0.831 0 1.5-0.669 1.5-1.5s-0.669-1.5-1.5-1.5h-0.5z" style="opacity:0.12;fill:url(#radialGradient5539)"/>
   <path id="path3989" style="opacity:0.12;fill:url(#radialGradient5541)" d="m4.4866 41c-0.8236 0-1.4866 1.045-1.4866 2.344v0.3125c0 1.2984 0.66303 2.3438 1.4866 2.3438h0.62768v-5h-0.62768z"/>
   <path id="rect3942" d="m5.4062 42c-0.77906 0-1.4062 0.62719-1.4062 1.4062v0.1875c0 0.77906 0.62719 1.4062 1.4062 1.4062h0.59375v-3h-0.59375z" style="opacity:0.12;fill:url(#radialGradient5543)"/>
   <path id="rect3985" d="m5.1141 41h37.772v5h-37.772z" style="opacity:0.12;fill:url(#linearGradient5545)"/>
   <path id="rect3938" d="m5.9999 42h36v3h-36z" style="opacity:0.12;fill:url(#linearGradient5547)"/>
  </g>
  <rect id="rect4073" style="fill:url(#linearGradient4117)" transform="rotate(90)" rx="1.95" ry="1.95" height="39" width="39" y="-43.5" x="4.5"/>
  <rect id="rect4085" ry="1.95" style="opacity:.61;stroke:#000;fill:none" rx="1.95" transform="matrix(0,-1,-1,0,0,0)" height="39" width="39" y="-43.5" x="-43.5"/>
  <path id="rect4089-4" style="opacity:.15;fill:#fff" d="m6.4375 5c-0.8119 0-1.4375 0.6256-1.4375 1.4375v1c0-0.8119 0.6256-1.4375 1.4375-1.4375h35.125c0.81195 0 1.4375 0.62555 1.4375 1.4375v-1c0-0.81195-0.62555-1.4375-1.4375-1.4375h-35.125z"/>
  <path id="path4128" style="opacity:.1;stroke:url(#linearGradient4140);stroke-width:2;fill:none" d="m790.44 237c-0.81 0-1.44 0.63-1.44 1.44v35.094c0 0.812 0.62555 1.4688 1.4375 1.4688h35.125c0.81195 0 1.4375-0.65675 1.4375-1.4688v-35.094c0-0.81-0.63-1.44-1.44-1.44h-35.125z" clip-path="url(#clipPath4130)" transform="matrix(0,1,-1,0,280,-784)"/>
  <path id="path4105" style="opacity:.1;fill:#fff" d="m6.4375 43c-0.8119 0-1.4375-0.626-1.4375-1.437v-1c0 0.8119 0.62555 1.4375 1.4375 1.4375h35.125c0.81195 0 1.4375-0.6256 1.4375-1.4375v1c0 0.8119-0.62555 1.4375-1.4375 1.4375h-35.125z"/>
 </g>
 <g id="layer2">
  <path id="path3941" style="opacity:.1;stroke-width:2;color:#000000;stroke:#000" d="m9 14.033 30-0.033v21.967l-30 0.033z"/>
  <path id="path3939" d="m9 14.033 30-0.033v21.967l-30 0.033z" style="opacity:.2;color:#000000"/>
  <path id="rect4948" style="color:#000000;fill:url(#linearGradient3937)" d="m9 13.033 30-0.033v21.967l-30 0.033z"/>
  <path id="path5057" style="opacity:.1;stroke:#000;stroke-width:2" d="m8.0326 10.998c-0.553 0-0.99819 0.44519-0.99819 0.99819v8.9801c0 0.553 0.44519 0.99819 0.99819 0.99819h13.971c0.553 0 0.99819-0.44519 0.99819-0.99819v-8.9801c0-0.553-0.44519-0.99819-0.99819-0.99819zm20.958-0.0018c-0.553 0-0.99819 0.44519-0.99819 0.99819v8.9801c0 0.553 0.44519 0.99819 0.99819 0.99819h10.976c0.553 0 0.99819-0.44519 0.99819-0.99819v-8.9801c0-0.553-0.44519-0.99819-0.99819-0.99819zm-11.973 15.97c-0.553 0-0.99819 0.44519-0.99819 0.99819v8.9819c0 0.553 0.44519 0.99819 0.99819 0.99819h12.967c0.553 0 0.99819-0.44519 0.99819-0.99819v-8.9819c0-0.553-0.44519-0.99819-0.99819-0.99819z"/>
  <path id="path3973" style="opacity:.2;color:#000000;fill:url(#linearGradient3984)" d="m39 13-30 0.031v21.969l30-0.031zm-1 1v19.969l-28 0.031v-19.969z"/>
  <path id="path5053" d="m8.0326 10.998c-0.553 0-0.99819 0.44519-0.99819 0.99819v8.9801c0 0.553 0.44519 0.99819 0.99819 0.99819h13.971c0.553 0 0.99819-0.44519 0.99819-0.99819v-8.9801c0-0.553-0.44519-0.99819-0.99819-0.99819zm20.958-0.0018c-0.553 0-0.99819 0.44519-0.99819 0.99819v8.9801c0 0.553 0.44519 0.99819 0.99819 0.99819h10.976c0.553 0 0.99819-0.44519 0.99819-0.99819v-8.9801c0-0.553-0.44519-0.99819-0.99819-0.99819zm-11.973 15.97c-0.553 0-0.99819 0.44519-0.99819 0.99819v8.9819c0 0.553 0.44519 0.99819 0.99819 0.99819h12.967c0.553 0 0.99819-0.44519 0.99819-0.99819v-8.9819c0-0.553-0.44519-0.99819-0.99819-0.99819z" style="opacity:.2"/>
  <path id="rect4981" style="fill:url(#linearGradient3920)" d="m8.0326 10c-0.553 0-0.99819 0.44519-0.99819 0.99819v8.9801c0 0.553 0.44519 0.99819 0.99819 0.99819h13.971c0.553 0 0.99819-0.44519 0.99819-0.99819v-8.9801c0-0.553-0.445-0.998-0.998-0.998zm20.958-0.0018c-0.553 0-0.99819 0.44519-0.99819 0.99819v8.9801c0 0.553 0.44519 0.99819 0.99819 0.99819h10.976c0.553 0 0.99819-0.44519 0.99819-0.99819v-8.9801c0-0.553-0.44519-0.99819-0.99819-0.99819zm-11.973 15.969c-0.553 0-0.99819 0.44519-0.99819 0.99819v8.9819c0 0.553 0.44519 0.99819 0.99819 0.99819h12.967c0.553 0 0.99819-0.44519 0.99819-0.99819v-8.9819c0-0.553-0.44519-0.99819-0.99819-0.99819z"/>
  <path id="path3962" style="fill:#fff" d="m8.0312 10c-0.553 0-1 0.447-1 1v1c0-0.553 0.447-1 1-1h13.969c0.553 0 1 0.447 1 1v-1c0-0.553-0.447-1-1-1zm20.969 0c-0.553 0-1 1-1 1v1c0-0.553 0.447-1 1-1h10.969c0.553 0 1 0.447 1 1v-1s-0.447-1-1-1zm-11.969 15.969c-0.553 0-1 0.447-1 1v1c0-0.553 0.447-1 1-1h12.969c0.553 0 0.96875 0.447 0.96875 1v-1c0-0.553-0.41575-1-0.96875-1z"/>
 </g>
</svg>
