<?xml version="1.0" encoding="UTF-8" standalone="no"?>
<!-- Created with Inkscape (http://www.inkscape.org/) -->
<svg id="svg3759" xmlns:rdf="http://www.w3.org/1999/02/22-rdf-syntax-ns#" xmlns="http://www.w3.org/2000/svg" height="48" width="48" version="1.1" xmlns:cc="http://creativecommons.org/ns#" xmlns:xlink="http://www.w3.org/1999/xlink" xmlns:dc="http://purl.org/dc/elements/1.1/">
 <metadata id="metadata37">
  <rdf:RDF>
   <cc:Work rdf:about="">
    <dc:format>image/svg+xml</dc:format>
    <dc:type rdf:resource="http://purl.org/dc/dcmitype/StillImage"/>
    <dc:title/>
   </cc:Work>
  </rdf:RDF>
 </metadata>
 <defs id="defs3761">
  <linearGradient id="linearGradient3117" y2="260" gradientUnits="userSpaceOnUse" x2="332" gradientTransform="matrix(0 -1 1 0 -244 356)" y1="260" x1="324">
   <stop id="stop4096" style="stop-color:#e28192" offset="0"/>
   <stop id="stop4317" style="stop-color:#f7d6c7" offset=".25862"/>
   <stop id="stop4098" style="stop-color:#fffee4" offset="1"/>
  </linearGradient>
  <linearGradient id="linearGradient3123" y2="40" gradientUnits="userSpaceOnUse" x2="144" gradientTransform="matrix(0 -.175 .175 0 -4 -.79998)" y1="280" x1="144">
   <stop id="stop3864-8-6" style="stop-color:#8c166c" offset="0"/>
   <stop id="stop4409" style="stop-color:#ca3561" offset=".36207"/>
   <stop id="stop3866-9-1" style="stop-color:#f38f4e" offset="1"/>
  </linearGradient>
  <linearGradient id="linearGradient3126" y2="40" gradientUnits="userSpaceOnUse" x2="144" gradientTransform="matrix(0 -.175 .175 0 -4 50.2)" y1="280" x1="144">
   <stop id="stop3990-5" style="stop-color:#f1f1f1" offset="0"/>
   <stop id="stop3992-0" style="stop-color:#f4f4f4" offset="1"/>
  </linearGradient>
  <linearGradient id="linearGradient3960">
   <stop id="stop3962" style="stop-opacity:0" offset="0"/>
   <stop id="stop3970" offset=".5"/>
   <stop id="stop3964" style="stop-opacity:0" offset="1"/>
  </linearGradient>
  <linearGradient id="linearGradient3952">
   <stop id="stop3954" offset="0"/>
   <stop id="stop3956" style="stop-opacity:0" offset="1"/>
  </linearGradient>
  <radialGradient id="radialGradient3143" xlink:href="#linearGradient3952" gradientUnits="userSpaceOnUse" cy="43.5" cx="9" gradientTransform="matrix(1.0571 0 0 1.25 -4.9 -13.375)" r="2"/>
  <radialGradient id="radialGradient3146" xlink:href="#linearGradient3952" gradientUnits="userSpaceOnUse" cy="43.5" cx="40" gradientTransform="matrix(1.0571 0 0 1.25 2.1 -13.375)" r="2"/>
  <linearGradient id="linearGradient3149" y2="42" xlink:href="#linearGradient3960" gradientUnits="userSpaceOnUse" x2="25" gradientTransform="matrix(1.0571 0 0 1.6667 -4.9 -31.5)" y1="45" x1="25"/>
  <radialGradient id="radialGradient3152" xlink:href="#linearGradient3952" gradientUnits="userSpaceOnUse" cy="43.5" cx="9" gradientTransform="matrix(1 0 0 .75 -3.5 8.375)" r="2"/>
  <radialGradient id="radialGradient3155" xlink:href="#linearGradient3952" gradientUnits="userSpaceOnUse" cy="43.5" cx="40" gradientTransform="matrix(1 0 0 .75 3.5 8.375)" r="2"/>
  <linearGradient id="linearGradient3158" y2="42" xlink:href="#linearGradient3960" gradientUnits="userSpaceOnUse" x2="25" gradientTransform="translate(-3.5 -2.5)" y1="45" x1="25"/>
 </defs>
 <g id="g3162">
  <path id="rect3985" d="m4.6143 38.5h39.772v5h-39.772z" style="opacity:0.12;fill:url(#linearGradient3149)"/>
  <path id="path3987" style="opacity:0.12;fill:url(#radialGradient3146)" d="m44.386 38.5v5h0.52857c0.87849 0 1.5857-1.115 1.5857-2.5s-0.70723-2.5-1.5857-2.5h-0.52857z"/>
  <path id="path3989" style="opacity:0.12;fill:url(#radialGradient3143)" d="m3.9866 38.5c-0.82358 0-1.4866 1.0453-1.4866 2.3438v0.3125c0 1.2984 0.66303 2.3438 1.4866 2.3438h0.62768v-5h-0.62768z"/>
  <path id="rect3938" d="m5.5 39.5h38v3h-38z" style="opacity:0.12;fill:url(#linearGradient3158)"/>
  <path id="rect3940" d="m43.5 39.5v3h0.5c0.831 0 1.5-0.669 1.5-1.5s-0.669-1.5-1.5-1.5h-0.5z" style="opacity:0.12;fill:url(#radialGradient3155)"/>
  <path id="rect3942" d="m4.9062 39.5c-0.77906 0-1.4062 0.62719-1.4062 1.4062v0.1875c0 0.77906 0.62719 1.4062 1.4062 1.4062h0.59375v-3h-0.59375z" style="opacity:0.12;fill:url(#radialGradient3152)"/>
 </g>
 <rect id="rect3886" style="opacity:.35;color:#bebebe" transform="matrix(0,1,1,0,0,0)" ry="1" height="41" width="33" y="4" x="8"/>
 <rect id="rect3882" ry="0" style="color:#bebebe;fill:url(#linearGradient3126)" transform="matrix(0,1,1,0,0,0)" height="39" width="31" y="5" x="9"/>
 <rect id="rect3383" style="color:#bebebe;fill:url(#linearGradient3123)" transform="rotate(90)" ry="0" height="35" width="27" y="-42" x="11"/>
 <path id="path4086" style="opacity:.1;block-progression:tb;text-indent:0;color:#000000;enable-background:new;text-transform:none;fill:#fed8cd" d="m16 23c-2.7496 0-5 2.2504-5 5s2.2504 5 5 5 5-2.2504 5-5-2.2504-5-5-5zm0 2c1.6687 0 3 1.3313 3 3s-1.3313 3-3 3-3-1.3313-3-3 1.3313-3 3-3z"/>
 <path id="path4088" style="opacity:.1;block-progression:tb;text-indent:0;color:#000000;enable-background:new;text-transform:none;fill:#fed8cd" d="m16 22c-3.29 0-6 2.71-6 6s2.71 6 6 6 6-2.71 6-6-2.71-6-6-6zm0 4c1.1283 0 2 0.87174 2 2s-0.87174 2-2 2-2-0.87174-2-2 0.87174-2 2-2z"/>
 <path id="path4090" style="opacity:.1;block-progression:tb;text-indent:0;color:#000000;enable-background:new;text-transform:none;fill:#fed8cd" d="m16 21c-3.8305 0-7 3.1695-7 7s3.1695 7 7 7 7-3.1695 7-7-3.1695-7-7-7zm0 6c0.58782 0 1 0.41218 1 1s-0.41218 1-1 1-1-0.41218-1-1 0.41218-1 1-1z"/>
 <path id="path4082" style="color:#000000;fill-rule:evenodd;enable-background:new;fill:url(#linearGradient3117)" d="m16 24c2.2091 0 4 1.7909 4 4s-1.7909 4-4 4-4-1.7909-4-4 1.7909-4 4-4z"/>
 <path id="path4084" d="m7 33v-1s2.5239-1.6666 3.2335-1.812 1.5476-0.027 2.4088 0.1355c0.86124 0.162 2.147 0.3811 2.5483 0.3948 0.40129 0.014 1.1275-0.035 1.9712-0.086 0.84374-0.05 2.2408-0.096 2.6765-0.091 0.43575 0 1.5236 0.06 2.6832 0.1308 1.1596 0.071 2.7523 0.1896 3.1136 0.2228 0.36137 0.033 0.78614 0.094 1.2682 0.1605 0.48204 0.066 1.3166 0.1657 1.6118 0.1931 0.29522 0.027 0.97966 0.1211 1.7738 0.1942 0.79414 0.073 2.065 0.098 2.432 0.071 0.36701-0.027 1.1363-0.2988 1.9936-0.5493 0.85728-0.2504 1.8026-0.4797 2.5216-0.423 0.71903 0.057 4.7639 1.4585 4.7639 1.4585v1h-5.25-4.25-4.25-4.25-4.25-4.25-4.25z"/>
 <path id="path4092" d="m7 33v0.6525s2.5239 1.0873 3.2335 1.1822c0.7096 0.095 1.5476 0.018 2.4088-0.088 0.86124-0.1057 2.147-0.2487 2.5483-0.2576 0.40129-0.01 1.1275 0.023 1.9712 0.056 0.84374 0.033 2.2408 0.063 2.6765 0.059 0.43575 0 1.5236-0.039 2.6832-0.085s2.7523-0.1237 3.1136-0.1453c0.36137-0.022 0.78614-0.061 1.2682-0.1048 0.48204-0.043 1.3166-0.108 1.6118-0.1259 0.29522-0.018 0.97966-0.079 1.7738-0.1268 0.79414-0.048 2.065-0.064 2.432-0.046 0.36701 0.018 1.1363 0.195 1.9936 0.3584 0.85728 0.1634 1.8026 0.313 2.5216 0.276 0.71903-0.037 4.7639-0.9516 4.7639-0.9516v-0.6524h-5.25-4.25-4.25-4.25-4.25-4.25-4.25z" style="opacity:.9"/>
 <path id="rect4102" style="opacity:.3;color:#000000;enable-background:new;fill:#4d585e" d="m7 33h35v3h-35z"/>
 <path id="rect3888" style="opacity:.2" d="m7 11v27h35v-27zm1 1h33v25h-33z"/>
 <path id="path3893" style="opacity:.4;fill:#fff" d="m5 9v31h39v-31zm1 1h37v29h-37z"/>
 <rect id="rect4018" style="opacity:.4;fill:#fff" height="1" width="39" y="9" x="5"/>
</svg>
