<?xml version="1.0" encoding="UTF-8" standalone="no"?>
<!-- Created with Inkscape (http://www.inkscape.org/) -->
<svg id="svg3759" xmlns:rdf="http://www.w3.org/1999/02/22-rdf-syntax-ns#" xmlns="http://www.w3.org/2000/svg" height="48" width="48" version="1.1" xmlns:cc="http://creativecommons.org/ns#" xmlns:xlink="http://www.w3.org/1999/xlink" xmlns:dc="http://purl.org/dc/elements/1.1/">
 <metadata id="metadata37">
  <rdf:RDF>
   <cc:Work rdf:about="">
    <dc:format>image/svg+xml</dc:format>
    <dc:type rdf:resource="http://purl.org/dc/dcmitype/StillImage"/>
    <dc:title/>
   </cc:Work>
  </rdf:RDF>
 </metadata>
 <defs id="defs3761">
  <linearGradient id="linearGradient4140" y2="256" gradientUnits="userSpaceOnUse" x2="827" y1="256" x1="789">
   <stop id="stop4136" style="stop-color:#fff" offset="0"/>
   <stop id="stop4138" style="stop-color:#fff;stop-opacity:0" offset="1"/>
  </linearGradient>
  <clipPath id="clipPath4130" clipPathUnits="userSpaceOnUse">
   <path id="path4132" style="fill:#ba2222" d="m790.44 237c-0.81 0-1.44 0.63-1.44 1.44v35.094c0 0.812 0.62555 1.4688 1.4375 1.4688h35.125c0.81195 0 1.4375-0.65675 1.4375-1.4688v-35.094c0-0.81-0.63-1.44-1.44-1.44h-35.125z"/>
  </clipPath>
  <linearGradient id="linearGradient3877" y2="-808" gradientUnits="userSpaceOnUse" x2="-984.86" gradientTransform="matrix(0 -1 -1 0 -784 -980.36)" y1="-808" x1="-1023.9">
   <stop id="stop3415" style="stop-color:#ddd" offset="0"/>
   <stop id="stop3417" style="stop-color:#f2f2f2" offset="1"/>
  </linearGradient>
  <radialGradient id="radialGradient4205" xlink:href="#linearGradient3952" gradientUnits="userSpaceOnUse" cy="43.5" cx="40" gradientTransform="matrix(1.0571 0 0 1.25 .6 -10.875)" r="2"/>
  <linearGradient id="linearGradient3952">
   <stop id="stop3954" offset="0"/>
   <stop id="stop3956" style="stop-opacity:0" offset="1"/>
  </linearGradient>
  <radialGradient id="radialGradient4214" xlink:href="#linearGradient3952" gradientUnits="userSpaceOnUse" cy="43.5" cx="40" gradientTransform="matrix(1 0 0 .75 2 10.875)" r="2"/>
  <radialGradient id="radialGradient4202" xlink:href="#linearGradient3952" gradientUnits="userSpaceOnUse" cy="43.5" cx="9" gradientTransform="matrix(1.0571 0 0 1.25 -4.4 -10.875)" r="2"/>
  <radialGradient id="radialGradient4211" xlink:href="#linearGradient3952" gradientUnits="userSpaceOnUse" cy="43.5" cx="9" gradientTransform="matrix(1 0 0 .75 -3 10.875)" r="2"/>
  <linearGradient id="linearGradient4208" y2="42" xlink:href="#linearGradient3960" gradientUnits="userSpaceOnUse" x2="25" gradientTransform="matrix(1.0571 0 0 1.6667 -5.4 -29)" y1="45" x1="25"/>
  <linearGradient id="linearGradient3960">
   <stop id="stop3962" style="stop-opacity:0" offset="0"/>
   <stop id="stop3970" offset=".5"/>
   <stop id="stop3964" style="stop-opacity:0" offset="1"/>
  </linearGradient>
  <linearGradient id="linearGradient3172" y2="42" xlink:href="#linearGradient3960" gradientUnits="userSpaceOnUse" y1="45" gradientTransform="translate(-4)" x2="25" x1="25"/>
 </defs>
 <g id="layer1">
  <g id="g3111">
   <path id="path3987" style="opacity:0.12;fill:url(#radialGradient4205)" d="m42.886 41v5h0.52857c0.87849 0 1.5857-1.115 1.5857-2.5s-0.70723-2.5-1.5857-2.5h-0.52857z"/>
   <path id="rect3940" d="m42 42v3h0.5c0.831 0 1.5-0.669 1.5-1.5s-0.669-1.5-1.5-1.5h-0.5z" style="opacity:0.12;fill:url(#radialGradient4214)"/>
   <path id="path3989" style="opacity:0.12;fill:url(#radialGradient4202)" d="m4.4866 41c-0.8236 0-1.4866 1.045-1.4866 2.344v0.3125c0 1.2984 0.66303 2.3438 1.4866 2.3438h0.62768v-5h-0.62768z"/>
   <path id="rect3942" d="m5.4062 42c-0.77906 0-1.4062 0.62719-1.4062 1.4062v0.1875c0 0.77906 0.62719 1.4062 1.4062 1.4062h0.59375v-3h-0.59375z" style="opacity:0.12;fill:url(#radialGradient4211)"/>
   <path id="rect3985" d="m5.1141 41h37.772v5h-37.772z" style="opacity:0.12;fill:url(#linearGradient4208)"/>
   <path id="rect3938" d="m5.9999 42h36v3h-36z" style="opacity:0.12;fill:url(#linearGradient3172)"/>
  </g>
  <path id="rect4073" style="fill:url(#linearGradient3877)" d="m6.4375 5c-0.81195 0-1.4375 0.62555-1.4375 1.4375v35.125c0 0.81195 0.62555 1.4375 1.4375 1.4375h35.125c0.81195 0 1.4375-0.62555 1.4375-1.4375v-35.125c0-0.8114-0.626-1.437-1.438-1.437h-35.125z"/>
  <rect id="rect4085" ry="1.95" style="opacity:.41;stroke:#000;fill:none" rx="1.95" transform="matrix(0,-1,-1,0,0,0)" height="39" width="39" y="-43.5" x="-43.5"/>
  <path id="rect4089-4" style="opacity:.15;fill:#fff" d="m6.4375 5c-0.8119 0-1.4375 0.6256-1.4375 1.4375v1c0-0.8119 0.6256-1.4375 1.4375-1.4375h35.125c0.81195 0 1.4375 0.62555 1.4375 1.4375v-1c0-0.81195-0.62555-1.4375-1.4375-1.4375h-35.125z"/>
  <path id="path4128" style="opacity:.1;stroke:url(#linearGradient4140);stroke-width:2;fill:none" d="m790.44 237c-0.81 0-1.44 0.63-1.44 1.44v35.094c0 0.812 0.62555 1.4688 1.4375 1.4688h35.125c0.81195 0 1.4375-0.65675 1.4375-1.4688v-35.094c0-0.81-0.63-1.44-1.44-1.44h-35.125z" clip-path="url(#clipPath4130)" transform="matrix(0,1,-1,0,280,-784)"/>
  <path id="path4105" style="opacity:.1;fill:#fff" d="m6.4375 43c-0.8119 0-1.4375-0.626-1.4375-1.437v-1c0 0.8119 0.62555 1.4375 1.4375 1.4375h35.125c0.81195 0 1.4375-0.6256 1.4375-1.4375v1c0 0.8119-0.62555 1.4375-1.4375 1.4375h-35.125z"/>
 </g>
 <g id="layer2">
  <g id="g3103" style="opacity:.4;enable-background:new;fill:#fff" transform="matrix(.89318 0 0 .89318 -258.96 -192.08)">
   <path id="path3105" style="enable-background:new;fill:#fff" d="m312.71 234.26c-1.7673 0-2.9918 0.17827-3.6734 0.5348-0.68157 0.35653-1.0224 0.96473-1.0224 1.8246 0 0.6851 0.2536 1.2304 0.76082 1.6359 0.51514 0.39847 1.2126 0.59771 2.0923 0.59771 1.2126 0 2.1834-0.3775 2.9125-1.1325 0.73704-0.762 1.1056-1.7722 1.1056-3.0305v-0.42993h-2.1755m4.3628-0.79696v6.7007h-2.1874v-1.7827c-0.4993 0.71307-1.1214 1.2409-1.8664 1.5834-0.74498 0.33556-1.6564 0.50334-2.7342 0.50334-1.3632 0-2.4489-0.33556-3.2573-1.0067-0.80045-0.67811-1.2007-1.5834-1.2007-2.7159-0.00001-1.3213 0.49928-2.3175 1.4979-2.9886 1.0065-0.67111 2.5044-1.0067 4.4936-1.0067h3.0671v-0.18875c-0.00001-0.88783-0.33287-1.5729-0.99858-2.0553-0.6578-0.48935-1.585-0.73402-2.7818-0.73403-0.76083 0.00001-1.5018 0.0804-2.223 0.24118-0.7212 0.1608-1.4146 0.40198-2.0804 0.72355v-1.7827c0.80044-0.27263 1.5771-0.47537 2.33-0.6082 0.75289-0.13981 1.486-0.20972 2.1992-0.20973 1.9258 0.00001 3.3642 0.44044 4.3153 1.3213 0.95102 0.88085 1.4265 2.2161 1.4266 4.0057"/>
   <path id="path3107" d="m326.62 246.29c0.76538 0 1.3478-0.29189 1.7471-0.87567 0.40598-0.58379 0.60898-1.4317 0.60899-2.5436-0.00001-1.112-0.20301-1.9598-0.60899-2.5436-0.39934-0.58377-0.98171-0.87566-1.7471-0.87568-0.7654 0.00002-1.3544 0.29538-1.767 0.88611-0.406 0.58379-0.609 1.4282-0.60899 2.5332-0.00001 1.105 0.20299 1.9529 0.60899 2.5436 0.41264 0.58378 1.0016 0.87567 1.767 0.87567m-2.376-7.5579c0.49251-0.68107 1.0383-1.1815 1.6373-1.5012 0.59899-0.32663 1.2878-0.48995 2.0666-0.48996 1.3777 0.00001 2.5091 0.57337 3.3944 1.7201 0.88518 1.1398 1.3278 2.6097 1.3278 4.4096-0.00002 1.8-0.44261 3.2734-1.3278 4.4201-0.88521 1.1398-2.0167 1.7096-3.3944 1.7096-0.77871 0-1.4676-0.15985-2.0666-0.47954-0.59901-0.32664-1.1448-0.8305-1.6373-1.5116v1.6888h-4.1044v-16.221h4.1044v6.2548" style="enable-background:new;fill:#fff"/>
   <path id="path3109" d="m313.87 253.41c-0.66033 1.4527-1.5739 2.5592-2.7407 3.3198-1.1669 0.76051-2.5463 1.1408-4.1383 1.1408-2.0985 0-3.6453-0.6537-4.6403-1.9611-0.99499-1.3159-1.2664-3.0591-0.81408-5.2296 0.46131-2.179 1.4653-3.9179 3.0121-5.2168 1.5558-1.3074 3.383-1.9611 5.4815-1.9611 0.91357 0.00001 1.8 0.10255 2.6593 0.30762 0.86834 0.19655 1.7141 0.4999 2.5372 0.91005l-0.73267 3.4864h-1.4518c0.0633-1.1963-0.16735-2.0679-0.69197-2.6148-0.5156-0.54687-1.3659-0.82032-2.5508-0.82033-1.3478 0.00001-2.4739 0.49563-3.3784 1.4868-0.89549 0.9827-1.5513 2.4567-1.9674 4.4221-0.41609 1.9654-0.38896 3.4437 0.0814 4.4349 0.47939 0.99123 1.3975 1.4868 2.7543 1.4868 1.0764 0 1.99-0.2649 2.7407-0.7947 0.7598-0.52979 1.3704-1.3288 1.8317-2.3969h2.0081" style="enable-background:new;fill:#fff"/>
  </g>
  <g id="g3909" style="enable-background:new;fill:#323232" transform="matrix(.89318 0 0 .89318 -258.96 -193.08)">
   <path id="text2841" style="enable-background:new;fill:#323232" d="m312.71 234.26c-1.7673 0-2.9918 0.17827-3.6734 0.5348-0.68157 0.35653-1.0224 0.96473-1.0224 1.8246 0 0.6851 0.2536 1.2304 0.76082 1.6359 0.51514 0.39847 1.2126 0.59771 2.0923 0.59771 1.2126 0 2.1834-0.3775 2.9125-1.1325 0.73704-0.762 1.1056-1.7722 1.1056-3.0305v-0.42993h-2.1755m4.3628-0.79696v6.7007h-2.1874v-1.7827c-0.4993 0.71307-1.1214 1.2409-1.8664 1.5834-0.74498 0.33556-1.6564 0.50334-2.7342 0.50334-1.3632 0-2.4489-0.33556-3.2573-1.0067-0.80045-0.67811-1.2007-1.5834-1.2007-2.7159-0.00001-1.3213 0.49928-2.3175 1.4979-2.9886 1.0065-0.67111 2.5044-1.0067 4.4936-1.0067h3.0671v-0.18875c-0.00001-0.88783-0.33287-1.5729-0.99858-2.0553-0.6578-0.48935-1.585-0.73402-2.7818-0.73403-0.76083 0.00001-1.5018 0.0804-2.223 0.24118-0.7212 0.1608-1.4146 0.40198-2.0804 0.72355v-1.7827c0.80044-0.27263 1.5771-0.47537 2.33-0.6082 0.75289-0.13981 1.486-0.20972 2.1992-0.20973 1.9258 0.00001 3.3642 0.44044 4.3153 1.3213 0.95102 0.88085 1.4265 2.2161 1.4266 4.0057"/>
   <path id="text2849" style="enable-background:new;fill:#323232" d="m326.62 246.29c0.76538 0 1.3478-0.29189 1.7471-0.87567 0.40598-0.58379 0.60898-1.4317 0.60899-2.5436-0.00001-1.112-0.20301-1.9598-0.60899-2.5436-0.39934-0.58377-0.98171-0.87566-1.7471-0.87568-0.7654 0.00002-1.3544 0.29538-1.767 0.88611-0.406 0.58379-0.609 1.4282-0.60899 2.5332-0.00001 1.105 0.20299 1.9529 0.60899 2.5436 0.41264 0.58378 1.0016 0.87567 1.767 0.87567m-2.376-7.5579c0.49251-0.68107 1.0383-1.1815 1.6373-1.5012 0.59899-0.32663 1.2878-0.48995 2.0666-0.48996 1.3777 0.00001 2.5091 0.57337 3.3944 1.7201 0.88518 1.1398 1.3278 2.6097 1.3278 4.4096-0.00002 1.8-0.44261 3.2734-1.3278 4.4201-0.88521 1.1398-2.0167 1.7096-3.3944 1.7096-0.77871 0-1.4676-0.15985-2.0666-0.47954-0.59901-0.32664-1.1448-0.8305-1.6373-1.5116v1.6888h-4.1044v-16.221h4.1044v6.2548"/>
   <path id="text2853" style="enable-background:new;fill:#323232" d="m313.87 253.41c-0.66033 1.4527-1.5739 2.5592-2.7407 3.3198-1.1669 0.76051-2.5463 1.1408-4.1383 1.1408-2.0985 0-3.6453-0.6537-4.6403-1.9611-0.99499-1.3159-1.2664-3.0591-0.81408-5.2296 0.46131-2.179 1.4653-3.9179 3.0121-5.2168 1.5558-1.3074 3.383-1.9611 5.4815-1.9611 0.91357 0.00001 1.8 0.10255 2.6593 0.30762 0.86834 0.19655 1.7141 0.4999 2.5372 0.91005l-0.73267 3.4864h-1.4518c0.0633-1.1963-0.16735-2.0679-0.69197-2.6148-0.5156-0.54687-1.3659-0.82032-2.5508-0.82033-1.3478 0.00001-2.4739 0.49563-3.3784 1.4868-0.89549 0.9827-1.5513 2.4567-1.9674 4.4221-0.41609 1.9654-0.38896 3.4437 0.0814 4.4349 0.47939 0.99123 1.3975 1.4868 2.7543 1.4868 1.0764 0 1.99-0.2649 2.7407-0.7947 0.7598-0.52979 1.3704-1.3288 1.8317-2.3969h2.0081"/>
  </g>
 </g>
</svg>
