<?xml version="1.0" encoding="UTF-8" standalone="no"?>
<!-- Created with Inkscape (http://www.inkscape.org/) -->
<svg id="svg3759" xmlns:rdf="http://www.w3.org/1999/02/22-rdf-syntax-ns#" xmlns="http://www.w3.org/2000/svg" height="48" width="48" version="1.1" xmlns:cc="http://creativecommons.org/ns#" xmlns:xlink="http://www.w3.org/1999/xlink" xmlns:dc="http://purl.org/dc/elements/1.1/">
 <metadata id="metadata37">
  <rdf:RDF>
   <cc:Work rdf:about="">
    <dc:format>image/svg+xml</dc:format>
    <dc:type rdf:resource="http://purl.org/dc/dcmitype/StillImage"/>
    <dc:title/>
   </cc:Work>
  </rdf:RDF>
 </metadata>
 <defs id="defs3761">
  <linearGradient id="linearGradient3874" y2="24" gradientUnits="userSpaceOnUse" x2="43.5" gradientTransform="matrix(0 -1 -1 0 48 48)" y1="24" x1="4.5">
   <stop id="stop3415" style="stop-color:#ddd" offset="0"/>
   <stop id="stop3417" style="stop-color:#f2f2f2" offset="1"/>
  </linearGradient>
  <linearGradient id="linearGradient3937" y2="36" gradientUnits="userSpaceOnUse" x2="24" gradientTransform="translate(-.0027508 -1.013)" y1="12" x1="24">
   <stop id="stop3914" style="stop-color:#5d5d5d" offset="0"/>
   <stop id="stop3916" style="stop-color:#989898" offset="1"/>
  </linearGradient>
 </defs>
 <g id="layer1">
  <path id="path4026" style="opacity:.05;block-progression:tb;text-indent:0;color:#000000;stroke:#000;stroke-width:2;text-transform:none" d="m24 5c-11.04 0-20 8.961-20 20 0 11.04 8.96 20 20 20s20-8.96 20-20c0-11.039-8.96-20-20-20z"/>
  <path id="path4024" d="m24 5c-11.04 0-20 8.961-20 20 0 11.04 8.96 20 20 20s20-8.96 20-20c0-11.039-8.96-20-20-20z" style="opacity:.1;block-progression:tb;text-indent:0;color:#000000;stroke:#000;text-transform:none"/>
  <path id="path4018" style="opacity:.2;block-progression:tb;text-indent:0;color:#000000;text-transform:none" d="m24 5c-11.04 0-20 8.961-20 20 0 11.04 8.96 20 20 20s20-8.96 20-20c0-11.039-8.96-20-20-20z"/>
  <path id="path6495" d="m4.5 23.999c0 10.77 8.731 19.501 19.5 19.501 10.77 0 19.5-8.7309 19.5-19.501 0-10.769-8.7306-19.499-19.5-19.499s-19.5 8.7299-19.5 19.499z" style="fill:url(#linearGradient3874)"/>
  <path id="path3872" style="opacity:.4;fill:#fff" d="m24 5c-10.499 0-19 8.501-19 19 0 0.169 0.0268 0.332 0.0312 0.5 0.2684-10.265 8.6388-18.5 18.969-18.5 10.329 0 18.7 8.235 18.969 18.5 0.004-0.168 0.031-0.331 0.031-0.5 0-10.499-8.502-19-19-19z"/>
  <path id="path3796" style="opacity:.41;stroke:#000;fill:none" d="m23.999 4.5c10.77 0 19.501 8.731 19.501 19.5s-8.731 19.5-19.501 19.5c-10.769 0-19.499-8.731-19.499-19.5s8.73-19.5 19.499-19.5z"/>
  <path id="path3366" style="opacity:.1;fill:#fff" d="m24 43c-10.499 0-19-8.501-19-19 0-0.169 0.0268-0.332 0.0312-0.5 0.2684 10.265 8.6388 18.5 18.969 18.5 10.329 0 18.7-8.235 18.969-18.5 0.004 0.168 0.031 0.331 0.031 0.5 0 10.499-8.502 19-19 19z"/>
 </g>
 <g id="layer2">
  <path id="path3945" style="opacity:.5;block-progression:tb;text-indent:0;color:#000000;enable-background:new;text-transform:none;fill:#fff" d="m25.997 13.987c-4.4183 0-8 3.5817-8 8 0 1.6569 0.5124 3.1919 1.375 4.4688 0.0048 0.0071-0.0048 0.02413 0 0.03125l-4.9375 4.9375c-0.56476 0.55217-0.58359 1.5916-0.03125 2.1562 0.55233 0.56461 1.5918 0.55249 2.1562 0l4.9688-4.9688c1.2768 0.8626 2.8119 1.375 4.4688 1.375 4.4183 0 8-3.5817 8-8s-3.5817-8-8-8zm0 3c2.7614 0 5 2.2386 5 5s-2.2386 5-5 5-5-2.2386-5-5 2.2386-5 5-5z"/>
  <path id="path27918-2" style="block-progression:tb;text-indent:0;color:#000000;enable-background:new;text-transform:none;fill:url(#linearGradient3937)" d="m25.997 12.987c-4.4183 0-8 3.5817-8 8 0 1.6569 0.5124 3.1919 1.375 4.4688 0.0048 0.0071-0.0048 0.02413 0 0.03125l-4.9375 4.9375c-0.56476 0.55217-0.58359 1.5916-0.03125 2.1562 0.55233 0.56461 1.5918 0.55249 2.1562 0l4.9688-4.9688c1.2768 0.8626 2.8119 1.375 4.4688 1.375 4.4183 0 8-3.5817 8-8s-3.5817-8-8-8zm0 3c2.7614 0 5 2.2386 5 5s-2.2386 5-5 5-5-2.2386-5-5 2.2386-5 5-5z"/>
  <path id="path3940" style="opacity:.2;block-progression:tb;text-indent:0;color:#000000;enable-background:new;text-transform:none" d="m25.997 12.987c-4.4183 0-8 3.5817-8 8 0 0.06416 0.02972 0.12371 0.03125 0.1875 0.40968-4.034 3.8266-7.1875 7.9688-7.1875 4.2482 0 7.7075 3.3177 7.9688 7.5 0.01046-0.16745 0.03125-0.32991 0.03125-0.5 0-4.4183-3.5817-8-8-8zm-4.9688 8.5c-0.01707 0.16808-0.03125 0.32741-0.03125 0.5 0 2.7614 2.2386 5 5 5s5-2.2386 5-5c0-0.17259-0.01418-0.33192-0.03125-0.5-0.25605 2.5213-2.3799 4.5-4.9688 4.5-2.5888 0-4.7127-1.9787-4.9688-4.5zm-2.0312 4.375-4.5625 4.5625c-0.4161 0.40682-0.53044 1.0739-0.34375 1.625 0.07005-0.23104 0.17197-0.45705 0.34375-0.625l4.9375-4.9375c-0.0048-0.0071 0.0048-0.02415 0-0.03125-0.13017-0.19267-0.26134-0.38978-0.375-0.59375z"/>
 </g>
</svg>
