<?xml version="1.0" encoding="UTF-8" standalone="no"?>
<!-- Created with Inkscape (http://www.inkscape.org/) -->
<svg id="svg3759" xmlns:rdf="http://www.w3.org/1999/02/22-rdf-syntax-ns#" xmlns="http://www.w3.org/2000/svg" height="48" width="48" version="1.1" xmlns:cc="http://creativecommons.org/ns#" xmlns:xlink="http://www.w3.org/1999/xlink" xmlns:dc="http://purl.org/dc/elements/1.1/">
 <metadata id="metadata37">
  <rdf:RDF>
   <cc:Work rdf:about="">
    <dc:format>image/svg+xml</dc:format>
    <dc:type rdf:resource="http://purl.org/dc/dcmitype/StillImage"/>
    <dc:title/>
   </cc:Work>
  </rdf:RDF>
 </metadata>
 <defs id="defs3761">
  <linearGradient id="linearGradient4140" y2="256" gradientUnits="userSpaceOnUse" x2="827" y1="256" x1="789">
   <stop id="stop4136" style="stop-color:#fff" offset="0"/>
   <stop id="stop4138" style="stop-color:#fff;stop-opacity:0" offset="1"/>
  </linearGradient>
  <clipPath id="clipPath4130" clipPathUnits="userSpaceOnUse">
   <path id="path4132" style="fill:#ba2222" d="m790.44 237c-0.81 0-1.44 0.63-1.44 1.44v35.094c0 0.812 0.62555 1.4688 1.4375 1.4688h35.125c0.81195 0 1.4375-0.65675 1.4375-1.4688v-35.094c0-0.81-0.63-1.44-1.44-1.44h-35.125z"/>
  </clipPath>
  <clipPath id="clipPath4068" clipPathUnits="userSpaceOnUse">
   <rect id="rect4070" style="color:#bebebe;fill:#525252" ry="4.5" height="9" width="24" y="259" x="316"/>
  </clipPath>
  <clipPath id="clipPath4060" clipPathUnits="userSpaceOnUse">
   <rect id="rect4062" style="color:#bebebe;fill:#525252" ry="4.5" height="9" width="24" y="240" x="316"/>
  </clipPath>
  <linearGradient id="linearGradient3877" y2="-808" gradientUnits="userSpaceOnUse" x2="-984.86" gradientTransform="matrix(0 -1 -1 0 -784 -980.36)" y1="-808" x1="-1023.9">
   <stop id="stop3415" style="stop-color:#ddd" offset="0"/>
   <stop id="stop3417" style="stop-color:#f2f2f2" offset="1"/>
  </linearGradient>
  <linearGradient id="linearGradient3952">
   <stop id="stop3954" offset="0"/>
   <stop id="stop3956" style="stop-opacity:0" offset="1"/>
  </linearGradient>
  <linearGradient id="linearGradient3960">
   <stop id="stop3962" style="stop-opacity:0" offset="0"/>
   <stop id="stop3970" offset=".5"/>
   <stop id="stop3964" style="stop-opacity:0" offset="1"/>
  </linearGradient>
  <radialGradient id="radialGradient5379" xlink:href="#linearGradient3952" gradientUnits="userSpaceOnUse" cy="43.5" cx="40" gradientTransform="matrix(1.0571 0 0 1.25 .6 -10.875)" r="2"/>
  <radialGradient id="radialGradient5381" xlink:href="#linearGradient3952" gradientUnits="userSpaceOnUse" cy="43.5" cx="40" gradientTransform="matrix(1 0 0 .75 2 10.875)" r="2"/>
  <radialGradient id="radialGradient5383" xlink:href="#linearGradient3952" gradientUnits="userSpaceOnUse" cy="43.5" cx="9" gradientTransform="matrix(1.0571 0 0 1.25 -4.4 -10.875)" r="2"/>
  <radialGradient id="radialGradient5385" xlink:href="#linearGradient3952" gradientUnits="userSpaceOnUse" cy="43.5" cx="9" gradientTransform="matrix(1 0 0 .75 -3 10.875)" r="2"/>
  <linearGradient id="linearGradient5387" y2="42" xlink:href="#linearGradient3960" gradientUnits="userSpaceOnUse" x2="25" gradientTransform="matrix(1.0571 0 0 1.6667 -5.4 -29)" y1="45" x1="25"/>
  <linearGradient id="linearGradient5389" y2="42" xlink:href="#linearGradient3960" gradientUnits="userSpaceOnUse" x2="25" gradientTransform="translate(-4)" y1="45" x1="25"/>
  <linearGradient id="linearGradient3991" y2="271.5" gradientUnits="userSpaceOnUse" x2="327.5" gradientTransform="translate(-307.5,-235.5)" y1="262.5" x1="327.5">
   <stop id="stop4014" style="stop-color:#acacac" offset="0"/>
   <stop id="stop4016" style="stop-color:#bbb" offset="1"/>
  </linearGradient>
  <clipPath id="clipPath4027" clipPathUnits="userSpaceOnUse">
   <path id="path4029" style="color:#bebebe;fill:#bbb" d="m16.5 12c-2.493 0-4.5 2.007-4.5 4.5s2.007 4.5 4.5 4.5h15c2.493 0 4.5-2.007 4.5-4.5s-2.007-4.5-4.5-4.5h-15zm0 15c-2.493 0-4.5 2.007-4.5 4.5s2.007 4.5 4.5 4.5h15c2.493 0 4.5-2.007 4.5-4.5s-2.007-4.5-4.5-4.5h-15z"/>
  </clipPath>
  <linearGradient id="linearGradient4053" y2="9" gradientUnits="userSpaceOnUse" x2="25" y1="39" x1="25">
   <stop id="stop4057" style="stop-opacity:.49804" offset="0"/>
   <stop id="stop4059" offset=".5"/>
   <stop id="stop4061" style="stop-opacity:.49804" offset=".5"/>
   <stop id="stop4063" offset="1"/>
  </linearGradient>
  <linearGradient id="linearGradient4646-8" y2="241.5" gradientUnits="userSpaceOnUse" x2="327.5" gradientTransform="translate(-307.5,-231.5)" y1="268.5" x1="327.5">
   <stop id="stop3864-8-6-9" style="stop-color:#ddd" offset="0"/>
   <stop id="stop4033" style="stop-color:#f2f2f2" offset=".5"/>
   <stop id="stop4035" style="stop-color:#ddd" offset=".5"/>
   <stop id="stop3866-9-1-5" style="stop-color:#f2f2f2" offset="1"/>
  </linearGradient>
  <linearGradient id="linearGradient4104" y2="253.12" gradientUnits="userSpaceOnUse" x2="327.5" gradientTransform="translate(-307.5,-231.5)" y1="243.5" x1="327.5">
   <stop id="stop27420-2-84" style="stop-color:#c881d3" offset="0"/>
   <stop id="stop27422-3-5" style="stop-color:#a348b1" offset="1"/>
  </linearGradient>
 </defs>
 <g id="layer1">
  <g id="g3111">
   <path id="path3987" style="opacity:0.12;fill:url(#radialGradient5379)" d="m42.886 41v5h0.52857c0.87849 0 1.5857-1.115 1.5857-2.5s-0.70723-2.5-1.5857-2.5h-0.52857z"/>
   <path id="rect3940" d="m42 42v3h0.5c0.831 0 1.5-0.669 1.5-1.5s-0.669-1.5-1.5-1.5h-0.5z" style="opacity:0.12;fill:url(#radialGradient5381)"/>
   <path id="path3989" style="opacity:0.12;fill:url(#radialGradient5383)" d="m4.4866 41c-0.8236 0-1.4866 1.045-1.4866 2.344v0.3125c0 1.2984 0.66303 2.3438 1.4866 2.3438h0.62768v-5h-0.62768z"/>
   <path id="rect3942" d="m5.4062 42c-0.77906 0-1.4062 0.62719-1.4062 1.4062v0.1875c0 0.77906 0.62719 1.4062 1.4062 1.4062h0.59375v-3h-0.59375z" style="opacity:0.12;fill:url(#radialGradient5385)"/>
   <path id="rect3985" d="m5.1141 41h37.772v5h-37.772z" style="opacity:0.12;fill:url(#linearGradient5387)"/>
   <path id="rect3938" d="m5.9999 42h36v3h-36z" style="opacity:0.12;fill:url(#linearGradient5389)"/>
  </g>
  <path id="rect4073" style="fill:url(#linearGradient3877)" d="m6.4375 5c-0.8119 0-1.4375 0.6256-1.4375 1.4375v35.124c0 0.812 0.6256 1.438 1.4375 1.438h35.124c0.812 0 1.438-0.626 1.438-1.438v-35.124c0-0.8124-0.626-1.438-1.438-1.438h-35.124z"/>
  <rect id="rect4085" ry="1.95" style="opacity:.41;stroke:#000;fill:none" rx="1.95" transform="matrix(0,-1,-1,0,0,0)" height="39" width="39" y="-43.5" x="-43.5"/>
  <path id="rect4089-4" style="opacity:.15;fill:#fff" d="m6.4375 5c-0.8119 0-1.4375 0.6256-1.4375 1.4375v1c0-0.8119 0.6256-1.4375 1.4375-1.4375h35.125c0.81195 0 1.4375 0.62555 1.4375 1.4375v-1c0-0.81195-0.62555-1.4375-1.4375-1.4375h-35.125z"/>
  <path id="path4128" style="opacity:.1;stroke:url(#linearGradient4140);stroke-width:2;fill:none" d="m790.44 237c-0.81 0-1.44 0.63-1.44 1.44v35.094c0 0.812 0.62555 1.4688 1.4375 1.4688h35.125c0.81195 0 1.4375-0.65675 1.4375-1.4688v-35.094c0-0.81-0.63-1.44-1.44-1.44h-35.125z" clip-path="url(#clipPath4130)" transform="matrix(0,1,-1,0,280,-784)"/>
  <path id="path4105" style="opacity:.1;fill:#fff" d="m6.4375 43c-0.8119 0-1.4375-0.626-1.4375-1.437v-1c0 0.8119 0.62555 1.4375 1.4375 1.4375h35.125c0.81195 0 1.4375-0.6256 1.4375-1.4375v1c0 0.8119-0.62555 1.4375-1.4375 1.4375h-35.125z"/>
 </g>
 <g id="layer2">
  <path id="rect4956" style="opacity:.4;color:#bebebe;fill:#fff" d="m16.5 27h15c2.493 0 4.5 2.007 4.5 4.5s-2.007 4.5-4.5 4.5h-15c-2.493 0-4.5-2.007-4.5-4.5s2.007-4.5 4.5-4.5z"/>
  <path id="rect4958" style="opacity:.4;color:#bebebe;fill:#fff" d="m16.5 12h15c2.493 0 4.5 2.007 4.5 4.5s-2.007 4.5-4.5 4.5h-15c-2.493 0-4.5-2.007-4.5-4.5s2.007-4.5 4.5-4.5z"/>
  <path id="rect4968" d="m320.5 259h15c2.493 0 4.5 2.007 4.5 4.5s-2.007 4.5-4.5 4.5h-15c-2.493 0-4.5-2.007-4.5-4.5s2.007-4.5 4.5-4.5z" style="opacity:0;color:#bebebe" transform="translate(-304,-232)" clip-path="url(#clipPath4068)"/>
  <path id="rect4970" d="m320.5 240h15c2.493 0 4.5 2.007 4.5 4.5s-2.007 4.5-4.5 4.5h-15c-2.493 0-4.5-2.007-4.5-4.5s2.007-4.5 4.5-4.5z" style="opacity:0;color:#bebebe" transform="translate(-304,-228)" clip-path="url(#clipPath4060)"/>
  <path id="rect4972" d="m320.5 240h15c2.493 0 4.5 2.007 4.5 4.5s-2.007 4.5-4.5 4.5h-15c-2.493 0-4.5-2.007-4.5-4.5s2.007-4.5 4.5-4.5z" style="opacity:0;stroke-width:2;color:#bebebe" transform="translate(-304,-228)" clip-path="url(#clipPath4060)"/>
  <path id="rect4974" d="m320.5 259h15c2.493 0 4.5 2.007 4.5 4.5s-2.007 4.5-4.5 4.5h-15c-2.493 0-4.5-2.007-4.5-4.5s2.007-4.5 4.5-4.5z" style="opacity:0;stroke-width:2;color:#bebebe" transform="translate(-304,-232)" clip-path="url(#clipPath4068)"/>
  <path id="rect4041" style="color:#bebebe;fill:url(#linearGradient3991)" d="m16.5 27h15c2.493 0 4.5 2.007 4.5 4.5s-2.007 4.5-4.5 4.5h-15c-2.493 0-4.5-2.007-4.5-4.5s2.007-4.5 4.5-4.5z"/>
  <path id="rect4043" style="color:#bebebe;fill:url(#linearGradient4104)" d="m16.5 12h15c2.493 0 4.5 2.007 4.5 4.5s-2.007 4.5-4.5 4.5h-15c-2.493 0-4.5-2.007-4.5-4.5s2.007-4.5 4.5-4.5z"/>
  <path id="rect4054" d="m320.5 259h15c2.493 0 4.5 2.007 4.5 4.5s-2.007 4.5-4.5 4.5h-15c-2.493 0-4.5-2.007-4.5-4.5s2.007-4.5 4.5-4.5z" style="opacity:0;color:#bebebe" transform="translate(-304,-232)" clip-path="url(#clipPath4068)"/>
  <path id="rect4056" d="m320.5 240h15c2.493 0 4.5 2.007 4.5 4.5s-2.007 4.5-4.5 4.5h-15c-2.493 0-4.5-2.007-4.5-4.5s2.007-4.5 4.5-4.5z" style="opacity:0;color:#bebebe" transform="translate(-304,-228)" clip-path="url(#clipPath4060)"/>
  <path id="rect4064" d="m320.5 240h15c2.493 0 4.5 2.007 4.5 4.5s-2.007 4.5-4.5 4.5h-15c-2.493 0-4.5-2.007-4.5-4.5s2.007-4.5 4.5-4.5z" style="opacity:0;stroke-width:2;color:#bebebe" transform="translate(-304,-228)" clip-path="url(#clipPath4060)"/>
  <path id="rect4072" d="m320.5 259h15c2.493 0 4.5 2.007 4.5 4.5s-2.007 4.5-4.5 4.5h-15c-2.493 0-4.5-2.007-4.5-4.5s2.007-4.5 4.5-4.5z" style="opacity:0;stroke-width:2;color:#bebebe" transform="translate(-304,-232)" clip-path="url(#clipPath4068)"/>
  <path id="path4020" style="opacity:.1;stroke-width:2;color:#bebebe;stroke:url(#linearGradient4053);fill:none" clip-path="url(#clipPath4027)" d="m16.5 12c-2.493 0-4.5 2.007-4.5 4.5s2.007 4.5 4.5 4.5h15c2.493 0 4.5-2.007 4.5-4.5s-2.007-4.5-4.5-4.5h-15zm0 15c-2.493 0-4.5 2.007-4.5 4.5s2.007 4.5 4.5 4.5h15c2.493 0 4.5-2.007 4.5-4.5s-2.007-4.5-4.5-4.5h-15z"/>
  <path id="rect4665" style="opacity:.1;color:#bebebe" d="m16.5 12c-2.493 0-4.5 2.007-4.5 4.5 0 0.172 0.044 0.333 0.062 0.5 0.252-2.251 2.117-4 4.438-4h15c2.321 0 4.186 1.749 4.438 4 0.018-0.167 0.062-0.328 0.062-0.5 0-2.493-2.007-4.5-4.5-4.5h-15zm0 15c-2.493 0-4.5 2.007-4.5 4.5 0 0.172 0.044 0.333 0.062 0.5 0.252-2.251 2.117-4 4.438-4h15c2.321 0 4.186 1.749 4.438 4 0.018-0.167 0.062-0.328 0.062-0.5 0-2.493-2.007-4.5-4.5-4.5h-15z"/>
  <path id="path4675" style="opacity:.5;color:#bebebe;fill:#fff" d="m16.5 37c-2.493 0-4.5-2.007-4.5-4.5 0-0.17231 0.04383-0.33284 0.0625-0.5 0.2515 2.2514 2.1168 4 4.4375 4h15c2.3207 0 4.186-1.7486 4.4375-4 0.018 0.167 0.062 0.328 0.062 0.5 0 2.493-2.007 4.5-4.5 4.5h-15zm0-15c-2.493 0-4.5-2.007-4.5-4.5 0-0.17231 0.04383-0.33284 0.0625-0.5 0.2515 2.2514 2.1168 4 4.4375 4h15c2.3207 0 4.186-1.7486 4.4375-4 0.018 0.167 0.062 0.328 0.062 0.5 0 2.493-2.007 4.5-4.5 4.5h-15z"/>
  <path id="rect4106" style="opacity:.15;color:#bebebe" d="m25.5 14c-1.939 0-3.5 1.561-3.5 3.5s1.561 3.5 3.5 3.5h6c1.939 0 3.5-1.561 3.5-3.5s-1.561-3.5-3.5-3.5h-6zm-9 15c-1.939 0-3.5 1.561-3.5 3.5s1.561 3.5 3.5 3.5h6c1.939 0 3.5-1.561 3.5-3.5s-1.561-3.5-3.5-3.5h-6z"/>
  <path id="path4106" style="opacity:.1;stroke-width:2;color:#bebebe;stroke:#000;fill:none" d="m25.5 13c-1.939 0-3.5 1.561-3.5 3.5s1.561 3.5 3.5 3.5h6c1.939 0 3.5-1.561 3.5-3.5s-1.561-3.5-3.5-3.5h-6zm-9 15c-1.939 0-3.5 1.561-3.5 3.5s1.561 3.5 3.5 3.5h6c1.939 0 3.5-1.561 3.5-3.5s-1.561-3.5-3.5-3.5h-6z"/>
  <path id="rect4047" style="color:#bebebe;fill:url(#linearGradient4646-8)" d="m25.5 13c-1.939 0-3.5 1.561-3.5 3.5s1.561 3.5 3.5 3.5h6c1.939 0 3.5-1.561 3.5-3.5s-1.561-3.5-3.5-3.5h-6zm-9 15c-1.939 0-3.5 1.561-3.5 3.5s1.561 3.5 3.5 3.5h6c1.939 0 3.5-1.561 3.5-3.5s-1.561-3.5-3.5-3.5h-6z"/>
  <path id="path4680" style="opacity:.5;color:#bebebe;fill:#fff" d="m25.5 13c-1.939 0-3.5 1.561-3.5 3.5 0 0.16825 0.0085 0.33821 0.03125 0.5 0.23926-1.7027 1.698-3 3.4688-3h6c1.7707 0 3.2295 1.2973 3.4688 3 0.022-0.162 0.031-0.332 0.031-0.5 0-1.939-1.561-3.5-3.5-3.5h-6zm-9 15c-1.939 0-3.5 1.561-3.5 3.5 0 0.16825 0.0085 0.33821 0.03125 0.5 0.23926-1.7027 1.698-3 3.4688-3h6c1.7707 0 3.2295 1.2973 3.4688 3 0.022-0.162 0.031-0.332 0.031-0.5 0-1.939-1.561-3.5-3.5-3.5h-6z"/>
 </g>
</svg>
