<?xml version="1.0" encoding="UTF-8" standalone="no"?>
<!-- Created with Inkscape (http://www.inkscape.org/) -->
<svg id="svg3759" xmlns:rdf="http://www.w3.org/1999/02/22-rdf-syntax-ns#" xmlns="http://www.w3.org/2000/svg" height="48" width="48" version="1.1" xmlns:cc="http://creativecommons.org/ns#" xmlns:xlink="http://www.w3.org/1999/xlink" xmlns:dc="http://purl.org/dc/elements/1.1/">
 <metadata id="metadata37">
  <rdf:RDF>
   <cc:Work rdf:about="">
    <dc:format>image/svg+xml</dc:format>
    <dc:type rdf:resource="http://purl.org/dc/dcmitype/StillImage"/>
    <dc:title/>
   </cc:Work>
  </rdf:RDF>
 </metadata>
 <defs id="defs3761">
  <linearGradient id="linearGradient3874" y2="24" gradientUnits="userSpaceOnUse" x2="43.5" gradientTransform="matrix(0 -1 -1 0 48 48)" y1="24" x1="4.5">
   <stop id="stop3864-8-6-3-9" style="stop-color:#1c6aba" offset="0"/>
   <stop id="stop3866-9-1-7-5" style="stop-color:#4195ec" offset="1"/>
  </linearGradient>
  <linearGradient id="linearGradient3946" y2="24" gradientUnits="userSpaceOnUse" y1="24" gradientTransform="matrix(0 -1 1 0 0 48)" x2="44" x1="4">
   <stop id="stop3906-8" style="stop-color:#234683" offset="0"/>
   <stop id="stop3908-2" style="stop-color:#30589e" offset="1"/>
  </linearGradient>
 </defs>
 <g id="layer1">
  <path id="path4026" style="opacity:.05;block-progression:tb;text-indent:0;color:#000000;stroke:#000;stroke-width:2;text-transform:none" d="m24 5c-11.04 0-20 8.961-20 20 0 11.04 8.96 20 20 20s20-8.96 20-20c0-11.039-8.96-20-20-20z"/>
  <path id="path4024" d="m24 5c-11.04 0-20 8.961-20 20 0 11.04 8.96 20 20 20s20-8.96 20-20c0-11.039-8.96-20-20-20z" style="opacity:.1;block-progression:tb;text-indent:0;color:#000000;stroke:#000;text-transform:none"/>
  <path id="path4018" style="opacity:.2;block-progression:tb;text-indent:0;color:#000000;text-transform:none" d="m24 5c-11.04 0-20 8.961-20 20 0 11.04 8.96 20 20 20s20-8.96 20-20c0-11.039-8.96-20-20-20z"/>
  <path id="path6495" d="m4.5 23.999c0 10.77 8.731 19.501 19.5 19.501 10.77 0 19.5-8.7309 19.5-19.501 0-10.769-8.7306-19.499-19.5-19.499s-19.5 8.7299-19.5 19.499z" style="fill:url(#linearGradient3874)"/>
  <path id="path3872" style="opacity:.4;fill:#fff" d="m24 5c-10.499 0-19 8.501-19 19 0 0.169 0.0268 0.332 0.0312 0.5 0.2684-10.265 8.6388-18.5 18.969-18.5 10.329 0 18.7 8.235 18.969 18.5 0.004-0.168 0.031-0.331 0.031-0.5 0-10.499-8.502-19-19-19z"/>
  <path id="path3796" style="opacity:0.91;stroke:url(#linearGradient3946);fill:none" d="m23.999 4.5c10.77 0 19.501 8.731 19.501 19.5s-8.731 19.5-19.501 19.5c-10.769 0-19.499-8.731-19.499-19.5s8.73-19.5 19.499-19.5z"/>
  <path id="path3366" style="opacity:.1;fill:#fff" d="m24 43c-10.499 0-19-8.501-19-19 0-0.169 0.0268-0.332 0.0312-0.5 0.2684 10.265 8.6388 18.5 18.969 18.5 10.329 0 18.7-8.235 18.969-18.5 0.004 0.168 0.031 0.331 0.031 0.5 0 10.499-8.502 19-19 19z"/>
 </g>
 <g id="layer2">
  <path id="path4025" style="opacity:.3;color:#bebebe" d="m24.037 12c-1.6312 0-2.9535 1.3223-2.9535 2.9535s1.3223 2.9535 2.9535 2.9535 2.9535-1.3223 2.9535-2.9535c0.001-1.632-1.321-2.954-2.953-2.954zm-10.817 6.6084c-0.64156 0.14134-0.66808 1.2575-0.0369 1.4398l0.0738 0.07384h0.14767s5.2644 0.68657 7.0883 2.5104c1.1814 1.1814 0.38843 3.8753 0 5.9069-0.55697 2.9132-2.8427 8.4174-2.8427 8.4174l-0.0368 0.14767c-0.21571 0.68906 0.95817 1.2471 1.3291 0.62761l0.0738-0.14767s3.8395-9.045 5.0209-9.045 5.0209 9.045 5.0209 9.045l0.0738 0.14767c0.37089 0.61949 1.5448 0.0614 1.3291-0.62761l-0.0368-0.14767s-2.2857-5.5042-2.8427-8.4174c-0.38843-2.0316-1.1814-4.7255 0-5.9069 1.8239-1.8239 7.0883-2.5104 7.0883-2.5104h0.14766l0.0738-0.07384c0.68068-0.24087 0.38587-1.5148-0.33226-1.4398 0 0-6.9776 1.6476-10.522 1.6244-3.5442 0.02324-10.485-1.6244-10.485-1.6244-0.10686-0.02401-0.22531-0.02401-0.33226 0z"/>
  <path id="path7088" style="color:#bebebe;fill:#fff" d="m24.037 11c-1.6312 0-2.9535 1.3223-2.9535 2.9535s1.3223 2.9535 2.9535 2.9535 2.9535-1.3223 2.9535-2.9535c0.001-1.632-1.321-2.954-2.953-2.954zm-10.817 6.6084c-0.64156 0.14134-0.66808 1.2575-0.0369 1.4398l0.0738 0.07384h0.14767s5.2644 0.68657 7.0883 2.5104c1.1814 1.1814 0.38843 3.8753 0 5.9069-0.55697 2.9132-2.8427 8.4174-2.8427 8.4174l-0.0368 0.14767c-0.21571 0.68906 0.95817 1.2471 1.3291 0.62761l0.0738-0.14767s3.8395-9.045 5.0209-9.045 5.0209 9.045 5.0209 9.045l0.0738 0.14767c0.37089 0.61949 1.5448 0.0614 1.3291-0.62761l-0.0368-0.14767s-2.2857-5.5042-2.8427-8.4174c-0.38843-2.0316-1.1814-4.7255 0-5.9069 1.8239-1.8239 7.0883-2.5104 7.0883-2.5104h0.14766l0.0738-0.07384c0.68068-0.24087 0.38587-1.5148-0.33226-1.4398 0 0-6.9776 1.6476-10.522 1.6244-3.5442 0.02324-10.485-1.6244-10.485-1.6244-0.10686-0.02401-0.22531-0.02401-0.33226 0z"/>
 </g>
</svg>
