<?xml version="1.0" encoding="UTF-8" standalone="no"?>
<!-- Created with Inkscape (http://www.inkscape.org/) -->
<svg id="svg3759" xmlns:rdf="http://www.w3.org/1999/02/22-rdf-syntax-ns#" xmlns="http://www.w3.org/2000/svg" height="48" width="48" version="1.1" xmlns:cc="http://creativecommons.org/ns#" xmlns:xlink="http://www.w3.org/1999/xlink" xmlns:dc="http://purl.org/dc/elements/1.1/">
 <metadata id="metadata37">
  <rdf:RDF>
   <cc:Work rdf:about="">
    <dc:format>image/svg+xml</dc:format>
    <dc:type rdf:resource="http://purl.org/dc/dcmitype/StillImage"/>
    <dc:title/>
   </cc:Work>
  </rdf:RDF>
 </metadata>
 <defs id="defs3761">
  <clipPath id="clipPath4130" clipPathUnits="userSpaceOnUse">
   <path id="path4132" style="fill:#ba2222" d="m790.44 237c-0.81 0-1.44 0.63-1.44 1.44v35.094c0 0.812 0.62555 1.4688 1.4375 1.4688h35.125c0.81195 0 1.4375-0.65675 1.4375-1.4688v-35.094c0-0.81-0.63-1.44-1.44-1.44h-35.125z"/>
  </clipPath>
  <linearGradient id="linearGradient3952">
   <stop id="stop3954" offset="0"/>
   <stop id="stop3956" style="stop-opacity:0" offset="1"/>
  </linearGradient>
  <linearGradient id="linearGradient3960">
   <stop id="stop3962" style="stop-opacity:0" offset="0"/>
   <stop id="stop3970" offset=".5"/>
   <stop id="stop3964" style="stop-opacity:0" offset="1"/>
  </linearGradient>
  <radialGradient id="radialGradient3878" xlink:href="#linearGradient3952" gradientUnits="userSpaceOnUse" cy="43.5" cx="40" gradientTransform="matrix(1.0571 0 0 1.25 .6 -10.875)" r="2"/>
  <radialGradient id="radialGradient3880" xlink:href="#linearGradient3952" gradientUnits="userSpaceOnUse" cy="43.5" cx="40" gradientTransform="matrix(1 0 0 .75 2 10.875)" r="2"/>
  <radialGradient id="radialGradient3882" xlink:href="#linearGradient3952" gradientUnits="userSpaceOnUse" cy="43.5" cx="9" gradientTransform="matrix(1.0571 0 0 1.25 -4.4 -10.875)" r="2"/>
  <radialGradient id="radialGradient3884" xlink:href="#linearGradient3952" gradientUnits="userSpaceOnUse" cy="43.5" cx="9" gradientTransform="matrix(1 0 0 .75 -3 10.875)" r="2"/>
  <linearGradient id="linearGradient3886" y2="42" xlink:href="#linearGradient3960" gradientUnits="userSpaceOnUse" x2="25" gradientTransform="matrix(1.0571 0 0 1.6667 -5.4 -29)" y1="45" x1="25"/>
  <linearGradient id="linearGradient3888" y2="42" xlink:href="#linearGradient3960" gradientUnits="userSpaceOnUse" x2="25" gradientTransform="translate(-4)" y1="45" x1="25"/>
  <linearGradient id="linearGradient3890" y2="-808" gradientUnits="userSpaceOnUse" x2="-984.86" gradientTransform="matrix(0 -1 -1 0 -784 -980.36)" y1="-808" x1="-1023.9">
   <stop id="stop3900" style="stop-color:#ddd" offset="0"/>
   <stop id="stop3902" style="stop-color:#e7e7e7" offset=".91026"/>
   <stop id="stop3904" style="stop-color:#f2f2f2" offset="1"/>
  </linearGradient>
  <linearGradient id="linearGradient3892" y2="256" gradientUnits="userSpaceOnUse" x2="827" y1="256" x1="789">
   <stop id="stop4136" style="stop-color:#fff" offset="0"/>
   <stop id="stop4138" style="stop-color:#fff;stop-opacity:0" offset="1"/>
  </linearGradient>
 </defs>
 <g id="layer1">
  <use id="use3932" xlink:href="#g3906" transform="translate(6,6)" height="48" width="48" y="0" x="0"/>
  <g id="g3906">
   <g id="g3111" transform="matrix(.90476 0 0 1 .28571 -6)">
    <path id="path3987" d="m42.886 41v5h0.52857c0.87849 0 1.5857-1.115 1.5857-2.5s-0.70723-2.5-1.5857-2.5h-0.52857z" style="opacity:0.12;fill:url(#radialGradient3878)"/>
    <path id="rect3940" style="opacity:0.12;fill:url(#radialGradient3880)" d="m42 42v3h0.5c0.831 0 1.5-0.669 1.5-1.5s-0.669-1.5-1.5-1.5h-0.5z"/>
    <path id="path3989" d="m4.4866 41c-0.8236 0-1.4866 1.045-1.4866 2.344v0.3125c0 1.2984 0.66303 2.3438 1.4866 2.3438h0.62768v-5h-0.62768z" style="opacity:0.12;fill:url(#radialGradient3882)"/>
    <path id="rect3942" style="opacity:0.12;fill:url(#radialGradient3884)" d="m5.4062 42c-0.77906 0-1.4062 0.62719-1.4062 1.4062v0.1875c0 0.77906 0.62719 1.4062 1.4062 1.4062h0.59375v-3h-0.59375z"/>
    <path id="rect3985" style="opacity:0.12;fill:url(#linearGradient3886)" d="m5.1141 41h37.772v5h-37.772z"/>
    <path id="rect3938" style="opacity:0.12;fill:url(#linearGradient3888)" d="m5.9999 42h36v3h-36z"/>
   </g>
   <path id="rect4073" d="m6.4375 5c-0.81195 0-1.4375 0.62555-1.4375 1.4375v29.125c0 0.81195 0.62555 1.4375 1.4375 1.4375h31.125c0.81195 0 1.4375-0.62555 1.4375-1.4375v-29.125c0-0.8114-0.626-1.437-1.438-1.437z" style="fill:url(#linearGradient3890)"/>
   <path id="rect4085" style="opacity:0.41;stroke:#000;fill:none" d="m-35.55-39.5h29.1c1.0803 0 1.95 0.87 1.95 1.95v31.1c0 1.0803-0.8697 1.95-1.95 1.95h-29.1c-1.08 0-1.95-0.8697-1.95-1.95v-31.1c0-1.0803 0.8697-1.95 1.95-1.95z" transform="matrix(0,-1,-1,0,0,0)"/>
   <path id="rect4089-4" style="opacity:.15;fill:#fff" d="m6.4375 5c-0.8119 0-1.4375 0.6256-1.4375 1.4375v1c0-0.8119 0.6256-1.4375 1.4375-1.4375h31.125c0.81195 0 1.4375 0.62555 1.4375 1.4375v-1c0-0.81195-0.62555-1.4375-1.4375-1.4375z"/>
   <path id="path4128" style="opacity:.1;stroke:url(#linearGradient3892);stroke-width:2;fill:none" d="m790.44 241c-0.81 0-1.44 0.63-1.44 1.44v31.094c0 0.812 0.62555 1.4688 1.4375 1.4688h29.125c0.81195 0 1.4375-0.65675 1.4375-1.4688v-31.094c0-0.81-0.63-1.44-1.44-1.44z" clip-path="url(#clipPath4130)" transform="matrix(0,1,-1,0,280,-784)"/>
   <path id="path4105" style="opacity:.1;fill:#fff" d="m6.4375 37c-0.8119 0-1.4375-0.626-1.4375-1.437v-1c0 0.8119 0.62555 1.4375 1.4375 1.4375h31.125c0.81195 0 1.4375-0.6256 1.4375-1.4375v1c0 0.8119-0.62555 1.4375-1.4375 1.4375z"/>
   <path id="rect3886" d="m7 12h30v23h-30z" style="opacity:.1;stroke:#000;stroke-width:2"/>
   <path id="rect3114" d="m7 12h30v23h-30z" style="fill:#fff"/>
   <rect id="rect3890" style="opacity:.1" height="2" width="2" y="6" x="36"/>
   <rect id="rect3894" style="opacity:.1" ry="1" height="2" width="2" y="6" x="36"/>
  </g>
  <path id="path3897" style="opacity:.5;block-progression:tb;text-indent:0;color:#000000;text-transform:none" d="m36.562 6.4375l-0.124 0.125 0.437 0.4375-0.437 0.4375 0.124 0.125 0.438-0.4375 0.438 0.4375 0.124-0.125-0.437-0.4375 0.437-0.4375-0.124-0.125-0.438 0.4375-0.438-0.4375z"/>
 </g>
</svg>
