<?xml version="1.0" encoding="UTF-8" standalone="no"?>
<!-- Created with Inkscape (http://www.inkscape.org/) -->
<svg id="svg3759" xmlns:rdf="http://www.w3.org/1999/02/22-rdf-syntax-ns#" xmlns="http://www.w3.org/2000/svg" height="48" width="48" version="1.1" xmlns:cc="http://creativecommons.org/ns#" xmlns:xlink="http://www.w3.org/1999/xlink" xmlns:dc="http://purl.org/dc/elements/1.1/">
 <metadata id="metadata37">
  <rdf:RDF>
   <cc:Work rdf:about="">
    <dc:format>image/svg+xml</dc:format>
    <dc:type rdf:resource="http://purl.org/dc/dcmitype/StillImage"/>
    <dc:title/>
   </cc:Work>
  </rdf:RDF>
 </metadata>
 <defs id="defs3761">
  <linearGradient id="linearGradient3874" y2="24" gradientUnits="userSpaceOnUse" x2="43.5" gradientTransform="matrix(0 1 -1 0 48 -.0000029)" y1="24" x1="4.5">
   <stop id="stop5444" style="stop-color:#46d6aa" offset="0"/>
   <stop id="stop5446" style="stop-color:#27c393" offset="1"/>
  </linearGradient>
 </defs>
 <g id="layer1">
  <path id="path4026" style="opacity:.05;block-progression:tb;text-indent:0;color:#000000;stroke:#000;stroke-width:2;text-transform:none" d="m24 5c-11.04 0-20 8.961-20 20 0 11.04 8.96 20 20 20s20-8.96 20-20c0-11.039-8.96-20-20-20z"/>
  <path id="path4024" d="m24 5c-11.04 0-20 8.961-20 20 0 11.04 8.96 20 20 20s20-8.96 20-20c0-11.039-8.96-20-20-20z" style="opacity:.1;block-progression:tb;text-indent:0;color:#000000;stroke:#000;text-transform:none"/>
  <path id="path4018" style="opacity:.2;block-progression:tb;text-indent:0;color:#000000;text-transform:none" d="m24 5c-11.04 0-20 8.961-20 20 0 11.04 8.96 20 20 20s20-8.96 20-20c0-11.039-8.96-20-20-20z"/>
  <path id="path6495" d="m4.5 24.001c0-10.77 8.7311-19.501 19.5-19.501 10.77 0 19.5 8.7309 19.5 19.501 0 10.769-8.731 19.499-19.5 19.499s-19.5-8.73-19.5-19.499z" style="fill:url(#linearGradient3874)"/>
  <path id="path3872" style="opacity:.4;fill:#fff" d="m24 5c-10.499 0-19 8.501-19 19 0 0.169 0.0268 0.332 0.0312 0.5 0.2684-10.265 8.6388-18.5 18.969-18.5 10.329 0 18.7 8.235 18.969 18.5 0.004-0.168 0.031-0.331 0.031-0.5 0-10.499-8.502-19-19-19z"/>
  <path id="path3796" style="opacity:.91;stroke:#2f795f;fill:none" d="m23.999 4.5c10.77 0 19.501 8.731 19.501 19.5s-8.731 19.5-19.501 19.5c-10.769 0-19.499-8.731-19.499-19.5s8.73-19.5 19.499-19.5z"/>
  <path id="path3366" style="opacity:.1;fill:#fff" d="m24 43c-10.499 0-19-8.501-19-19 0-0.169 0.0268-0.332 0.0312-0.5 0.2684 10.265 8.6388 18.5 18.969 18.5 10.329 0 18.7-8.235 18.969-18.5 0.004 0.168 0.031 0.331 0.031 0.5 0 10.499-8.502 19-19 19z"/>
 </g>
 <g id="layer2">
  <path id="path3913" style="opacity:.2;color:#000000" d="m24 15.003c3.3137 0 5.9999 2.6863 5.9999 5.9999 0 3.3137-2.6862 5.9999-5.9999 5.9999s-5.9999-2.6863-5.9999-5.9999c0-3.3137 2.6862-5.9999 5.9999-5.9999zm-2 14h3.9999c2.9473 0 5.4472 1.7565 6.8124 4.1874-2.1911 2.3571-5.3403 3.8124-8.8124 3.8124-3.472 0-6.6213-1.4554-8.8124-3.8124 1.3652-2.431 3.8651-4.1874 6.8124-4.1874z"/>
  <path id="path3029" style="color:#000000;fill:#fff" d="m24 14.003c3.3137 0 5.9999 2.6863 5.9999 5.9999 0 3.3137-2.6862 5.9999-5.9999 5.9999s-5.9999-2.6863-5.9999-5.9999c0-3.3137 2.6862-5.9999 5.9999-5.9999zm-2 14h3.9999c2.9473 0 5.4472 1.7565 6.8124 4.1874-2.1911 2.3571-5.3403 3.8124-8.8124 3.8124-3.472 0-6.6213-1.4554-8.8124-3.8124 1.3652-2.431 3.8651-4.1874 6.8124-4.1874z"/>
 </g>
</svg>
