<?xml version="1.0" encoding="UTF-8" standalone="no"?>
<!-- Created with Inkscape (http://www.inkscape.org/) -->
<svg id="svg3759" xmlns:rdf="http://www.w3.org/1999/02/22-rdf-syntax-ns#" xmlns="http://www.w3.org/2000/svg" height="48" width="48" version="1.1" xmlns:cc="http://creativecommons.org/ns#" xmlns:xlink="http://www.w3.org/1999/xlink" xmlns:dc="http://purl.org/dc/elements/1.1/">
 <metadata id="metadata37">
  <rdf:RDF>
   <cc:Work rdf:about="">
    <dc:format>image/svg+xml</dc:format>
    <dc:type rdf:resource="http://purl.org/dc/dcmitype/StillImage"/>
    <dc:title/>
   </cc:Work>
  </rdf:RDF>
 </metadata>
 <defs id="defs3761">
  <linearGradient id="linearGradient4140" y2="256" gradientUnits="userSpaceOnUse" x2="827" y1="256" x1="789">
   <stop id="stop4136" style="stop-color:#fff" offset="0"/>
   <stop id="stop4138" style="stop-color:#fff;stop-opacity:0" offset="1"/>
  </linearGradient>
  <clipPath id="clipPath4130" clipPathUnits="userSpaceOnUse">
   <path id="path4132" style="fill:#ba2222" d="m790.44 237c-0.81 0-1.44 0.63-1.44 1.44v35.094c0 0.812 0.62555 1.4688 1.4375 1.4688h35.125c0.81195 0 1.4375-0.65675 1.4375-1.4688v-35.094c0-0.81-0.63-1.44-1.44-1.44h-35.125z"/>
  </clipPath>
  <linearGradient id="linearGradient4564" y2="-808" gradientUnits="userSpaceOnUse" x2="-984.86" gradientTransform="translate(980.36 784)" y1="-808" x1="-1023.9">
   <stop id="stop3864-8-6-0" style="stop-color:#2ba051" offset="0"/>
   <stop id="stop3866-9-1-7" style="stop-color:#46bc6c" offset="1"/>
  </linearGradient>
  <linearGradient id="linearGradient4722" y2="4" gradientUnits="userSpaceOnUse" x2="24" y1="44" x1="24">
   <stop id="stop4726" style="stop-color:#f2fff6" offset="0"/>
   <stop id="stop4728" style="stop-color:#f4fff5" offset="1"/>
  </linearGradient>
  <radialGradient id="radialGradient4205" xlink:href="#linearGradient3952" gradientUnits="userSpaceOnUse" cy="43.5" cx="40" gradientTransform="matrix(1.0571 0 0 1.25 .6 -10.875)" r="2"/>
  <linearGradient id="linearGradient3952">
   <stop id="stop3954" offset="0"/>
   <stop id="stop3956" style="stop-opacity:0" offset="1"/>
  </linearGradient>
  <radialGradient id="radialGradient4214" xlink:href="#linearGradient3952" gradientUnits="userSpaceOnUse" cy="43.5" cx="40" gradientTransform="matrix(1 0 0 .75 2 10.875)" r="2"/>
  <radialGradient id="radialGradient4202" xlink:href="#linearGradient3952" gradientUnits="userSpaceOnUse" cy="43.5" cx="9" gradientTransform="matrix(1.0571 0 0 1.25 -4.4 -10.875)" r="2"/>
  <radialGradient id="radialGradient4211" xlink:href="#linearGradient3952" gradientUnits="userSpaceOnUse" cy="43.5" cx="9" gradientTransform="matrix(1 0 0 .75 -3 10.875)" r="2"/>
  <linearGradient id="linearGradient4208" y2="42" xlink:href="#linearGradient3960" gradientUnits="userSpaceOnUse" x2="25" gradientTransform="matrix(1.0571 0 0 1.6667 -5.4 -29)" y1="45" x1="25"/>
  <linearGradient id="linearGradient3960">
   <stop id="stop3962" style="stop-opacity:0" offset="0"/>
   <stop id="stop3970" offset=".5"/>
   <stop id="stop3964" style="stop-opacity:0" offset="1"/>
  </linearGradient>
  <linearGradient id="linearGradient3172" y2="42" xlink:href="#linearGradient3960" gradientUnits="userSpaceOnUse" y1="45" gradientTransform="translate(-4)" x2="25" x1="25"/>
 </defs>
 <g id="layer1">
  <rect id="rect4073" style="fill:url(#linearGradient4564)" transform="matrix(0,-1,-1,0,0,0)" rx="1.95" ry="1.95" height="39" width="39" y="-43.5" x="-43.5"/>
  <rect id="rect4085" ry="1.95" style="opacity:.61;stroke:#000;fill:none" rx="1.95" transform="matrix(0,-1,-1,0,0,0)" height="39" width="39" y="-43.5" x="-43.5"/>
  <path id="rect4089-4" style="opacity:.15;fill:#fff" d="m6.4375 5c-0.8119 0-1.4375 0.6256-1.4375 1.4375v1c0-0.8119 0.6256-1.4375 1.4375-1.4375h35.125c0.81195 0 1.4375 0.62555 1.4375 1.4375v-1c0-0.81195-0.62555-1.4375-1.4375-1.4375h-35.125z"/>
  <path id="path4128" style="opacity:.1;stroke:url(#linearGradient4140);stroke-width:2;fill:none" d="m790.44 237c-0.81 0-1.44 0.63-1.44 1.44v35.094c0 0.812 0.62555 1.4688 1.4375 1.4688h35.125c0.81195 0 1.4375-0.65675 1.4375-1.4688v-35.094c0-0.81-0.63-1.44-1.44-1.44h-35.125z" clip-path="url(#clipPath4130)" transform="matrix(0,1,-1,0,280,-784)"/>
  <path id="path4105" style="opacity:.1;fill:#fff" d="m6.4375 43c-0.8119 0-1.4375-0.626-1.4375-1.437v-1c0 0.8119 0.62555 1.4375 1.4375 1.4375h35.125c0.81195 0 1.4375-0.6256 1.4375-1.4375v1c0 0.8119-0.62555 1.4375-1.4375 1.4375h-35.125z"/>
  <g id="g3111">
   <path id="path3987" style="opacity:0.12;fill:url(#radialGradient4205)" d="m42.886 41v5h0.52857c0.87849 0 1.5857-1.115 1.5857-2.5s-0.70723-2.5-1.5857-2.5h-0.52857z"/>
   <path id="rect3940" d="m42 42v3h0.5c0.831 0 1.5-0.669 1.5-1.5s-0.669-1.5-1.5-1.5h-0.5z" style="opacity:0.12;fill:url(#radialGradient4214)"/>
   <path id="path3989" style="opacity:0.12;fill:url(#radialGradient4202)" d="m4.4866 41c-0.8236 0-1.4866 1.045-1.4866 2.344v0.3125c0 1.2984 0.66303 2.3438 1.4866 2.3438h0.62768v-5h-0.62768z"/>
   <path id="rect3942" d="m5.4062 42c-0.77906 0-1.4062 0.62719-1.4062 1.4062v0.1875c0 0.77906 0.62719 1.4062 1.4062 1.4062h0.59375v-3h-0.59375z" style="opacity:0.12;fill:url(#radialGradient4211)"/>
   <path id="rect3985" d="m5.1141 41h37.772v5h-37.772z" style="opacity:0.12;fill:url(#linearGradient4208)"/>
   <path id="rect3938" d="m5.9999 42h36v3h-36z" style="opacity:0.12;fill:url(#linearGradient3172)"/>
  </g>
 </g>
 <g id="layer2">
  <path id="path4712" d="m24.026 12c2.6395 0 5.227 0.7925 7.436 2.34 0.70616 0.494 0.858 1.4519 0.364 2.158-0.49296 0.7062-1.4529 0.885-2.158 0.39-1.7066-1.195-3.7045-1.7867-5.746-1.768-0.29328 0-0.572 0-0.858 0.026-0.0874 0.01-0.17264 0.041-0.26 0.052-0.23504 0.029-0.4732 0.059-0.702 0.104-0.10192 0.02-0.2132 0.029-0.312 0.052-0.22568 0.051-0.45656 0.1154-0.676 0.182-0.0697 0.022-0.13832 0.055-0.208 0.078-0.25064 0.082-0.48568 0.1592-0.728 0.26-0.025 0.011-0.0541 0.016-0.078 0.026-1.4539 0.625-2.7227 1.6037-3.718 2.808-0.006 0.01-0.0198 0.019-0.026 0.026-1.3998 1.7045-2.235 3.8666-2.236 6.24h2.6l-4.16 6.24-4.16-6.24h2.6c0.001-2.7269 0.84656-5.2395 2.288-7.332 0.0208-0.036 0.0281-0.071 0.052-0.104 0.17888-0.2558 0.37752-0.4888 0.572-0.728 0.0229-0.029 0.0541-0.075 0.078-0.104 1.3187-1.6006 2.9588-2.832 4.836-3.64 0.052-0.023 0.104-0.056 0.156-0.078 0.29952-0.1238 0.60112-0.235 0.91-0.338 0.11128-0.037 0.22464-0.07 0.338-0.104 0.26936-0.082 0.5564-0.1446 0.832-0.208 0.15184-0.035 0.28808-0.074 0.442-0.104 0.0759-0.014 0.15912-0.039 0.234-0.052 0.20592-0.036 0.41808-0.051 0.624-0.078 0.14248-0.017 0.27248-0.038 0.416-0.052 0.34528-0.032 0.6968-0.046 1.04-0.052h0.182 0.026zm11.414 6.76 4.16 6.24h-2.6c0 2.7352-0.86528 5.2614-2.314 7.358-0.0177 0.029-0.0322 0.049-0.052 0.078-0.14976 0.2142-0.3068 0.4212-0.468 0.624-0.0603 0.077-0.1196 0.1591-0.182 0.234-0.23712 0.288-0.49504 0.5418-0.754 0.806-0.025 0.026-0.0281 0.054-0.052 0.078-0.86944 0.8704-1.8689 1.6234-2.938 2.21-0.0281 0.017-0.0478 0.036-0.078 0.052-0.30784 0.1654-0.61464 0.3006-0.936 0.442-0.0801 0.034-0.17888 0.069-0.26 0.104-0.27456 0.1134-0.54808 0.2174-0.832 0.312-0.13416 0.046-0.25376 0.088-0.39 0.13-0.24856 0.074-0.52416 0.1477-0.78 0.208-0.16952 0.039-0.32136 0.071-0.494 0.104-0.0718 0.014-0.13728 0.04-0.208 0.052-0.24128 0.042-0.48672 0.075-0.728 0.104-0.0874 0.01-0.17264 0.017-0.26 0.026-0.43368 0.042-0.8684 0.078-1.3 0.078-2.6426 0-5.2239-0.8164-7.436-2.366-0.70512-0.495-0.884-1.4779-0.39-2.184 0.49504-0.7072 1.4799-0.859 2.184-0.364 1.7191 1.2043 3.7159 1.796 5.772 1.768 0.27144 0 0.53976 0 0.806-0.026 0.1092-0.011 0.2288-0.039 0.338-0.052 0.21008-0.028 0.41912-0.064 0.624-0.104 0.12584-0.024 0.24024-0.049 0.364-0.078 0.20072-0.047 0.40248-0.098 0.598-0.156 0.0946-0.029 0.1924-0.047 0.286-0.078 0.22568-0.076 0.4576-0.1685 0.676-0.26 0.0499-0.02 0.10712-0.03 0.156-0.052 0.25584-0.1123 0.4836-0.232 0.728-0.364 0.0114-0.01 0.0406-0.02 0.052-0.026 0.8268-0.4544 1.5725-1.0276 2.236-1.69 0.0104-0.011 0.0146-0.014 0.026-0.026 0.20592-0.2069 0.4108-0.4243 0.598-0.65 0.0395-0.048 0.0905-0.1072 0.13-0.156 1.351-1.69 2.158-3.8096 2.158-6.136h-2.6l4.16-6.24z" style="opacity:.3;enable-background:new"/>
  <path id="path2995" d="m24.026 11c2.6395 0 5.227 0.7925 7.436 2.34 0.70616 0.494 0.858 1.4519 0.364 2.158-0.49296 0.7062-1.4529 0.885-2.158 0.39-1.7066-1.195-3.7045-1.7867-5.746-1.768-0.29328 0-0.572 0-0.858 0.026-0.0874 0.01-0.17264 0.041-0.26 0.052-0.23504 0.029-0.4732 0.059-0.702 0.104-0.10192 0.02-0.2132 0.029-0.312 0.052-0.22568 0.051-0.45656 0.1154-0.676 0.182-0.0697 0.022-0.13832 0.055-0.208 0.078-0.25064 0.082-0.48568 0.1592-0.728 0.26-0.025 0.011-0.0541 0.016-0.078 0.026-1.4539 0.625-2.7227 1.6037-3.718 2.808-0.006 0.01-0.0198 0.019-0.026 0.026-1.3998 1.7045-2.235 3.8666-2.236 6.24h2.6l-4.16 6.24-4.16-6.24h2.6c0.001-2.7269 0.84656-5.2395 2.288-7.332 0.0208-0.036 0.0281-0.071 0.052-0.104 0.17888-0.2558 0.37752-0.4888 0.572-0.728 0.0229-0.029 0.0541-0.075 0.078-0.104 1.3187-1.6006 2.9588-2.832 4.836-3.64 0.052-0.023 0.104-0.056 0.156-0.078 0.29952-0.1238 0.60112-0.235 0.91-0.338 0.11128-0.037 0.22464-0.07 0.338-0.104 0.26936-0.082 0.5564-0.1446 0.832-0.208 0.15184-0.035 0.28808-0.074 0.442-0.104 0.0759-0.014 0.15912-0.039 0.234-0.052 0.20592-0.036 0.41808-0.051 0.624-0.078 0.14248-0.017 0.27248-0.038 0.416-0.052 0.34528-0.032 0.6968-0.046 1.04-0.052h0.182 0.026zm11.414 6.76 4.16 6.24h-2.6c0 2.7352-0.86528 5.2614-2.314 7.358-0.0177 0.029-0.0322 0.049-0.052 0.078-0.14976 0.2142-0.3068 0.4212-0.468 0.624-0.0603 0.077-0.1196 0.1591-0.182 0.234-0.23712 0.288-0.49504 0.5418-0.754 0.806-0.025 0.026-0.0281 0.054-0.052 0.078-0.86944 0.8704-1.8689 1.6234-2.938 2.21-0.0281 0.017-0.0478 0.036-0.078 0.052-0.30784 0.1654-0.61464 0.3006-0.936 0.442-0.0801 0.034-0.17888 0.069-0.26 0.104-0.27456 0.1134-0.54808 0.2174-0.832 0.312-0.13416 0.046-0.25376 0.088-0.39 0.13-0.24856 0.074-0.52416 0.1477-0.78 0.208-0.16952 0.039-0.32136 0.071-0.494 0.104-0.0718 0.014-0.13728 0.04-0.208 0.052-0.24128 0.042-0.48672 0.075-0.728 0.104-0.0874 0.01-0.17264 0.017-0.26 0.026-0.43368 0.042-0.8684 0.078-1.3 0.078-2.6426 0-5.2239-0.8164-7.436-2.366-0.70512-0.495-0.884-1.4779-0.39-2.184 0.49504-0.7072 1.4799-0.859 2.184-0.364 1.7191 1.2043 3.7159 1.796 5.772 1.768 0.27144 0 0.53976 0 0.806-0.026 0.1092-0.011 0.2288-0.039 0.338-0.052 0.21008-0.028 0.41912-0.064 0.624-0.104 0.12584-0.024 0.24024-0.049 0.364-0.078 0.20072-0.047 0.40248-0.098 0.598-0.156 0.0946-0.029 0.1924-0.047 0.286-0.078 0.22568-0.076 0.4576-0.1685 0.676-0.26 0.0499-0.02 0.10712-0.03 0.156-0.052 0.25584-0.1123 0.4836-0.232 0.728-0.364 0.0114-0.01 0.0406-0.02 0.052-0.026 0.8268-0.4544 1.5725-1.0276 2.236-1.69 0.0104-0.011 0.0146-0.014 0.026-0.026 0.20592-0.2069 0.4108-0.4243 0.598-0.65 0.0395-0.048 0.0905-0.1072 0.13-0.156 1.351-1.69 2.158-3.8096 2.158-6.136h-2.6l4.16-6.24z" style="enable-background:new;fill:url(#linearGradient4722)"/>
  <path id="path4730" style="enable-background:new;fill:#fff" d="m23.812 11c-0.343 0.006-0.685 0.03-1.031 0.062-0.143 0.014-0.264 0.015-0.406 0.032-0.206 0.027-0.419 0.058-0.625 0.094-0.075 0.012-0.174 0.017-0.25 0.031-0.154 0.03-0.286 0.09-0.438 0.125-0.275 0.063-0.574 0.105-0.843 0.187-0.114 0.034-0.201 0.088-0.313 0.125-0.309 0.103-0.638 0.22-0.937 0.344-0.052 0.022-0.105 0.04-0.157 0.062-1.877 0.808-3.493 2.056-4.812 3.657-0.024 0.029-0.071 0.065-0.094 0.093-0.194 0.24-0.383 0.463-0.562 0.719-0.024 0.033-0.042 0.089-0.063 0.125-1.441 2.093-2.28 4.586-2.281 7.313h-2.5938l0.6563 1h1.9375c0.001-2.727 0.84-5.22 2.281-7.313 0.021-0.036 0.039-0.092 0.063-0.125 0.179-0.256 0.368-0.479 0.562-0.719 0.023-0.028 0.07-0.064 0.094-0.093 1.319-1.601 2.935-2.849 4.812-3.657 0.052-0.022 0.105-0.04 0.157-0.062 0.299-0.124 0.628-0.241 0.937-0.344 0.112-0.037 0.199-0.091 0.313-0.125 0.269-0.082 0.568-0.124 0.843-0.187 0.152-0.035 0.284-0.095 0.438-0.125 0.076-0.014 0.175-0.019 0.25-0.031 0.206-0.036 0.419-0.067 0.625-0.094 0.142-0.017 0.263-0.018 0.406-0.032 0.346-0.032 0.688-0.056 1.031-0.062h0.188 0.031c2.64 0 5.229 0.796 7.438 2.344 0.265 0.185 0.458 0.441 0.562 0.718 0.197-0.625 0.006-1.321-0.562-1.718-2.209-1.548-4.798-2.344-7.438-2.344h-0.031-0.188zm11.626 6.75l-4.157 6.25h0.657l3.5-5.25 3.5 5.25h0.656l-4.156-6.25zm-21.25 6.219c-0.034 0.332-0.063 0.658-0.063 1h1.937l0.657-1h-2.531zm19.624 1.031c-0.194 1.935-0.938 3.679-2.093 5.125-0.04 0.049-0.086 0.108-0.125 0.156-0.187 0.226-0.388 0.45-0.594 0.657-0.011 0.012-0.021 0.02-0.031 0.031-0.664 0.662-1.423 1.233-2.25 1.687-0.012 0.006-0.02 0.022-0.031 0.032-0.245 0.132-0.495 0.262-0.75 0.374-0.049 0.022-0.107 0.012-0.157 0.032-0.218 0.091-0.43 0.205-0.656 0.281-0.094 0.031-0.187 0.033-0.281 0.063-0.196 0.058-0.393 0.109-0.594 0.156-0.124 0.029-0.249 0.07-0.375 0.094-0.205 0.04-0.415 0.065-0.625 0.093-0.109 0.013-0.235 0.021-0.344 0.031-0.266 0.026-0.541 0.032-0.812 0.032-2.056 0.028-4.031-0.546-5.75-1.75-0.704-0.495-1.693-0.364-2.188 0.344-0.295 0.422-0.342 0.949-0.187 1.406 0.046-0.136 0.101-0.283 0.187-0.406 0.495-0.708 1.484-0.839 2.188-0.344 1.719 1.204 3.694 1.778 5.75 1.75 0.271 0 0.546-0.006 0.812-0.032 0.109-0.01 0.235-0.018 0.344-0.031 0.21-0.028 0.42-0.053 0.625-0.093 0.126-0.024 0.251-0.065 0.375-0.094 0.201-0.047 0.398-0.098 0.594-0.156 0.094-0.03 0.187-0.032 0.281-0.063 0.226-0.076 0.438-0.19 0.656-0.281 0.05-0.02 0.108-0.01 0.157-0.032 0.255-0.112 0.505-0.242 0.75-0.374 0.011-0.01 0.019-0.026 0.031-0.032 0.827-0.454 1.586-1.025 2.25-1.687 0.01-0.011 0.02-0.019 0.031-0.031 0.206-0.207 0.407-0.431 0.594-0.657 0.039-0.048 0.085-0.107 0.125-0.156 1.351-1.69 2.156-3.799 2.156-6.125h-0.063z"/>
 </g>
</svg>
