<?xml version="1.0" encoding="UTF-8" standalone="no"?>
<!-- Created with Inkscape (http://www.inkscape.org/) -->
<svg id="svg3759" xmlns:rdf="http://www.w3.org/1999/02/22-rdf-syntax-ns#" xmlns="http://www.w3.org/2000/svg" height="48" width="48" version="1.1" xmlns:cc="http://creativecommons.org/ns#" xmlns:xlink="http://www.w3.org/1999/xlink" xmlns:dc="http://purl.org/dc/elements/1.1/">
 <metadata id="metadata37">
  <rdf:RDF>
   <cc:Work rdf:about="">
    <dc:format>image/svg+xml</dc:format>
    <dc:type rdf:resource="http://purl.org/dc/dcmitype/StillImage"/>
    <dc:title/>
   </cc:Work>
  </rdf:RDF>
 </metadata>
 <defs id="defs3761">
  <linearGradient id="linearGradient4140" y2="256" gradientUnits="userSpaceOnUse" x2="827" y1="256" x1="789">
   <stop id="stop4136" style="stop-color:#fff" offset="0"/>
   <stop id="stop4138" style="stop-color:#fff;stop-opacity:0" offset="1"/>
  </linearGradient>
  <clipPath id="clipPath4130" clipPathUnits="userSpaceOnUse">
   <path id="path4132" style="fill:#ba2222" d="m790.44 237c-0.81 0-1.44 0.63-1.44 1.44v35.094c0 0.812 0.62555 1.4688 1.4375 1.4688h35.125c0.81195 0 1.4375-0.65675 1.4375-1.4688v-35.094c0-0.81-0.63-1.44-1.44-1.44h-35.125z"/>
  </clipPath>
  <linearGradient id="linearGradient4564" y2="-808" gradientUnits="userSpaceOnUse" x2="-984.86" gradientTransform="translate(980.36 784)" y1="-808" x1="-1023.9">
   <stop id="stop3864-8-6" style="stop-color:#bd251d" offset="0"/>
   <stop id="stop3866-9-1" style="stop-color:#e22c1e" offset="1"/>
  </linearGradient>
  <linearGradient id="linearGradient4789" y2="4" gradientUnits="userSpaceOnUse" x2="24" y1="44" x1="24">
   <stop id="stop4793" style="stop-color:#fff2f3" offset="0"/>
   <stop id="stop4795" style="stop-color:#fff5f4" offset="1"/>
  </linearGradient>
  <radialGradient id="radialGradient4205" xlink:href="#linearGradient3952" gradientUnits="userSpaceOnUse" cy="43.5" cx="40" gradientTransform="matrix(1.0571 0 0 1.25 .6 -10.875)" r="2"/>
  <linearGradient id="linearGradient3952">
   <stop id="stop3954" offset="0"/>
   <stop id="stop3956" style="stop-opacity:0" offset="1"/>
  </linearGradient>
  <radialGradient id="radialGradient4214" xlink:href="#linearGradient3952" gradientUnits="userSpaceOnUse" cy="43.5" cx="40" gradientTransform="matrix(1 0 0 .75 2 10.875)" r="2"/>
  <radialGradient id="radialGradient4202" xlink:href="#linearGradient3952" gradientUnits="userSpaceOnUse" cy="43.5" cx="9" gradientTransform="matrix(1.0571 0 0 1.25 -4.4 -10.875)" r="2"/>
  <radialGradient id="radialGradient4211" xlink:href="#linearGradient3952" gradientUnits="userSpaceOnUse" cy="43.5" cx="9" gradientTransform="matrix(1 0 0 .75 -3 10.875)" r="2"/>
  <linearGradient id="linearGradient4208" y2="42" xlink:href="#linearGradient3960" gradientUnits="userSpaceOnUse" x2="25" gradientTransform="matrix(1.0571 0 0 1.6667 -5.4 -29)" y1="45" x1="25"/>
  <linearGradient id="linearGradient3960">
   <stop id="stop3962" style="stop-opacity:0" offset="0"/>
   <stop id="stop3970" offset=".5"/>
   <stop id="stop3964" style="stop-opacity:0" offset="1"/>
  </linearGradient>
  <linearGradient id="linearGradient3172" y2="42" xlink:href="#linearGradient3960" gradientUnits="userSpaceOnUse" y1="45" gradientTransform="translate(-4)" x2="25" x1="25"/>
 </defs>
 <g id="layer1">
  <rect id="rect4073" style="fill:url(#linearGradient4564)" transform="matrix(0,-1,-1,0,0,0)" rx="1.95" ry="1.95" height="39" width="39" y="-43.5" x="-43.5"/>
  <rect id="rect4085" ry="1.95" style="opacity:.81;stroke:#800000;fill:none" rx="1.95" transform="matrix(0,-1,-1,0,0,0)" height="39" width="39" y="-43.5" x="-43.5"/>
  <path id="rect4089-4" style="opacity:.15;fill:#fff" d="m6.4375 5c-0.8119 0-1.4375 0.6256-1.4375 1.4375v1c0-0.8119 0.6256-1.4375 1.4375-1.4375h35.125c0.81195 0 1.4375 0.62555 1.4375 1.4375v-1c0-0.81195-0.62555-1.4375-1.4375-1.4375h-35.125z"/>
  <path id="path4128" style="opacity:.1;stroke:url(#linearGradient4140);stroke-width:2;fill:none" d="m790.44 237c-0.81 0-1.44 0.63-1.44 1.44v35.094c0 0.812 0.62555 1.4688 1.4375 1.4688h35.125c0.81195 0 1.4375-0.65675 1.4375-1.4688v-35.094c0-0.81-0.63-1.44-1.44-1.44h-35.125z" clip-path="url(#clipPath4130)" transform="matrix(0,1,-1,0,280,-784)"/>
  <path id="path4105" style="opacity:.1;fill:#fff" d="m6.4375 43c-0.8119 0-1.4375-0.626-1.4375-1.437v-1c0 0.8119 0.62555 1.4375 1.4375 1.4375h35.125c0.81195 0 1.4375-0.6256 1.4375-1.4375v1c0 0.8119-0.62555 1.4375-1.4375 1.4375h-35.125z"/>
  <g id="g3111">
   <path id="path3987" style="opacity:0.12;fill:url(#radialGradient4205)" d="m42.886 41v5h0.52857c0.87849 0 1.5857-1.115 1.5857-2.5s-0.70723-2.5-1.5857-2.5h-0.52857z"/>
   <path id="rect3940" d="m42 42v3h0.5c0.831 0 1.5-0.669 1.5-1.5s-0.669-1.5-1.5-1.5h-0.5z" style="opacity:0.12;fill:url(#radialGradient4214)"/>
   <path id="path3989" style="opacity:0.12;fill:url(#radialGradient4202)" d="m4.4866 41c-0.8236 0-1.4866 1.045-1.4866 2.344v0.3125c0 1.2984 0.66303 2.3438 1.4866 2.3438h0.62768v-5h-0.62768z"/>
   <path id="rect3942" d="m5.4062 42c-0.77906 0-1.4062 0.62719-1.4062 1.4062v0.1875c0 0.77906 0.62719 1.4062 1.4062 1.4062h0.59375v-3h-0.59375z" style="opacity:0.12;fill:url(#radialGradient4211)"/>
   <path id="rect3985" d="m5.1141 41h37.772v5h-37.772z" style="opacity:0.12;fill:url(#linearGradient4208)"/>
   <path id="rect3938" d="m5.9999 42h36v3h-36z" style="opacity:0.12;fill:url(#linearGradient3172)"/>
  </g>
 </g>
 <g id="layer2">
  <path id="path4775" style="opacity:.3;enable-background:new" d="m26.375 11.5-4.625 6.656-11.25-5.156 5.281 8.438-4.906 0.562 4.687 2.812-6.562 4.688 7.781 0.625-1.781 8.375 7.5-4.5 4.5 4.5 1.594-5.531 8.906 2.531-6.438-7.688 7.938-1.312l-7.5-3 6-6-9 1.5-2.125-7.5zm-3.375 7.5h2v5c-0.098 2.4097-0.5 2.125-0.5 4h-1c0-1.875-0.49208-1.9939-0.5-4v-5zm1 11c0.55228 0 1 0.44772 1 1s-0.44772 1-1 1-1-0.44772-1-1 0.44772-1 1-1z"/>
  <path id="path4473" style="opacity:.2;enable-background:new" d="m26.375 10.5-4.625 6.656-11.25-5.156 5.281 8.438-4.906 0.562 4.687 2.812-6.562 4.688 7.781 0.625-1.781 8.375 7.5-4.5 4.5 4.5 1.594-5.531 8.906 2.531-6.438-7.688 7.938-1.312l-7.5-3 6-6-9 1.5-2.125-7.5zm-3.375 7.5h2v5c-0.098 2.4097-0.5 2.125-0.5 4h-1c0-1.875-0.49208-1.9939-0.5-4v-5zm1 11c0.55228 0 1 0.44772 1 1s-0.44772 1-1 1-1-0.44772-1-1 0.44772-1 1-1z"/>
  <path id="path4357" style="enable-background:new;fill:url(#linearGradient4789)" d="m26.375 10.5-4.625 6.656-11.25-5.156 5.281 8.438-4.906 0.562 4.687 2.812-6.562 4.688 7.781 0.625-1.781 8.375 7.5-4.5 4.5 4.5 1.594-5.531 8.906 2.531-6.438-7.688 7.938-1.312l-7.5-3 6-6-9 1.5-2.125-7.5zm-3.375 7.5h2v5c-0.098 2.4097-0.5 2.125-0.5 4h-1c0-1.875-0.49208-1.9939-0.5-4v-5zm1 11c0.55228 0 1 0.44772 1 1s-0.44772 1-1 1-1-0.44772-1-1 0.44772-1 1-1z"/>
  <path id="path4797" style="enable-background:new;fill:#fff" d="m26.375 10.5l-4.625 6.656-11.25-5.156 0.875 1.406 10.375 4.75 4.625-6.656 2.125 7.5 7.812-1.312 1.188-1.188-9 1.5-2.125-7.5zm-11.187 10l-4.313 0.5 1.406 0.844 3.5-0.406-0.593-0.938zm17.031 2.281l-0.719 0.719 5.719 2.281 1.781-0.281-6.781-2.719zm-9.219 0.219v1c0.008 2.006 0.5 2.125 0.5 4h1c0-1.875 0.402-1.59 0.5-4v-1c-0.098 2.41-0.5 2.125-0.5 4h-1c0-1.875-0.492-1.994-0.5-4zm-8.188 1.344l-5.812 4.156 1.25 0.094 5.312-3.782-0.75-0.468zm17 3.344l-0.75 0.124 5.344 6.376 1.094 0.312-5.688-6.812zm-15.25 2.406l-1.562 7.406 0.25-0.156 1.531-7.219-0.219-0.031zm6.594 0.406c-0.089 0.15-0.156 0.313-0.156 0.5 0 0.552 0.448 1 1 1s1-0.448 1-1c0-0.187-0.067-0.35-0.156-0.5-0.175 0.292-0.479 0.5-0.844 0.5s-0.669-0.208-0.844-0.5z"/>
 </g>
</svg>
