<?xml version="1.0" encoding="UTF-8" standalone="no"?>
<svg id="svg2" xmlns:rdf="http://www.w3.org/1999/02/22-rdf-syntax-ns#" xmlns="http://www.w3.org/2000/svg" height="48" width="48" version="1.1" xmlns:cc="http://creativecommons.org/ns#" xmlns:xlink="http://www.w3.org/1999/xlink" xmlns:dc="http://purl.org/dc/elements/1.1/">
 <defs id="defs11">
  <linearGradient id="linearGradient3830">
   <stop id="stop3832" offset="0"/>
   <stop id="stop3834" style="stop-opacity:0" offset="1"/>
  </linearGradient>
  <radialGradient id="radialGradient3104" gradientUnits="userSpaceOnUse" cy="3" cx="8" gradientTransform="matrix(3.375 0 0 2.8074 -3 -29.932)" r="4">
   <stop id="stop3765" style="stop-color:#fff" offset="0"/>
   <stop id="stop3824" style="stop-color:#f7f7f7" offset=".5"/>
   <stop id="stop3767" style="stop-color:#b9b9b9" offset="1"/>
  </radialGradient>
  <radialGradient id="radialGradient3108" gradientUnits="userSpaceOnUse" cy="15.379" cx="10.227" gradientTransform="matrix(15.051 5.9892 -7.082 17.733 1.4482 -328.54)" r="6">
   <stop id="stop3773" style="stop-color:#b1b1b1" offset="0"/>
   <stop id="stop3789" style="stop-color:#ececec" offset=".25"/>
   <stop id="stop3781" style="stop-color:#fff" offset="0.3"/>
   <stop id="stop3779" style="stop-color:#d9d9d9" offset="0.4"/>
   <stop id="stop3775" style="stop-color:#827d7d" offset="1"/>
  </radialGradient>
  <radialGradient id="radialGradient3134" gradientUnits="userSpaceOnUse" cy="28.5" cx="19" gradientTransform="matrix(1.5 0 0 .41761 -4.5469 -4.3082)" r="11">
   <stop id="stop3940" offset="0"/>
   <stop id="stop3942" style="stop-opacity:0" offset="1"/>
  </radialGradient>
  <radialGradient id="radialGradient3138" xlink:href="#linearGradient3830" gradientUnits="userSpaceOnUse" cy="18" cx="20" gradientTransform="matrix(1.5 0 0 1.25 -6 -32.062)" r="6"/>
  <radialGradient id="radialGradient3959" xlink:href="#linearGradient3830" gradientUnits="userSpaceOnUse" cy="18" cx="20" gradientTransform="matrix(1.5 0 0 1.25 -6 -30.062)" r="6"/>
  <radialGradient id="radialGradient3993-2" xlink:href="#linearGradient3830" gradientUnits="userSpaceOnUse" cy="20" cx="11" gradientTransform="matrix(1 0 0 .22222 0 15.556)" r="9"/>
  <linearGradient id="linearGradient3802" y2="22" gradientUnits="userSpaceOnUse" x2="11" gradientTransform="matrix(1,0,0,-1,1,47)" x1="11">
   <stop id="stop3864-8-6-3" style="stop-color:#1c6aba" offset="0"/>
   <stop id="stop3866-9-1-7" style="stop-color:#4195ec" offset="1"/>
  </linearGradient>
  <linearGradient id="linearGradient3839" y2="11" gradientUnits="userSpaceOnUse" x2="21" gradientTransform="matrix(0,-1,1,0,1,47)" y1="11" x1="1">
   <stop id="stop3906" style="stop-color:#234683" offset="0"/>
   <stop id="stop3908" style="stop-color:#30589e" offset="1"/>
  </linearGradient>
 </defs>
 <metadata id="metadata3401">
  <rdf:RDF>
   <cc:Work rdf:about="">
    <dc:format>image/svg+xml</dc:format>
    <dc:type rdf:resource="http://purl.org/dc/dcmitype/StillImage"/>
    <dc:title/>
   </cc:Work>
  </rdf:RDF>
 </metadata>
 <g id="layer1" transform="translate(0,32)">
  <path id="path3936" style="opacity:.6;fill:url(#radialGradient3134)" d="m41.016 8.0938c0 2.5371-7.9498 4.5938-17.062 4.5938-9.1127 0-16.969-2.0567-16.969-4.5938s7.8561-4.5937 16.969-4.5937c9.1127 0 17.062 2.0567 17.062 4.5937z"/>
  <path id="path3819" style="opacity:0.51;stroke:#000;stroke-width:2;fill:none" d="m23.953-26.016c-4.9706 0-9 4.0384-9 9s4.0294 9 9 9 9-4.0384 9-9-4.0294-9-9-9zm-7.2188 17.484c-5.0595 2.6155-6.75 8.3887-6.75 14.469 0 1.2404 6.5129 3 13.969 3 7.4558 0 14.062-1.7596 14.062-3 0-6.08-1.7843-11.853-6.8438-14.469-1.9678 1.6803-4.4424 2.7656-7.2188 2.7656-2.7763 0-5.2509-1.0853-7.2188-2.7656z"/>
  <path id="path4268" style="fill:url(#radialGradient3108);fill-rule:evenodd" d="m16.711-8.5254c-5.0595 2.6155-6.7266 8.387-6.7266 14.467 0 1.2404 6.5129 2.9959 13.969 2.9959 7.4558 0 14.062-1.7555 14.062-2.9959 0-6.08-1.7608-11.851-6.8203-14.467-1.9678 1.6803-4.4658 2.7372-7.2422 2.7372-2.7763 0-5.2744-1.0569-7.2422-2.7372z"/>
  <path id="path3955" d="m33-7.5625c0 4.1421-4.0294 7.5-9 7.5s-9-3.3579-9-7.5 4.0294-7.5 9-7.5 9 3.3579 9 7.5z" style="opacity:0.41;fill:url(#radialGradient3959)"/>
  <path id="path3828" style="opacity:0.41;fill:url(#radialGradient3138)" d="m33-9.5625c0 4.1421-4.0294 7.5-9 7.5s-9-3.3579-9-7.5 4.0294-7.5 9-7.5 9 3.3579 9 7.5z"/>
  <path id="path4266" d="m24-26.002c-4.9706 0-9 4.0222-9 8.9838s4.0294 8.9838 9 8.9838 9-4.0222 9-8.9838-4.0294-8.9838-9-8.9838z" style="color:#bebebe;fill:url(#radialGradient3104)"/>
  <path id="path3842" style="opacity:.4;fill:#fff;fill-rule:evenodd" d="m10.031 5.2906c-0.01278 0.419-0.04687 0.21926-0.04687 0.64691 0 1.2404 6.5129 3 13.969 3 7.4558 0 14.062-1.7596 14.062-3 0-0.42764-0.0341-0.22791-0.04687-0.64691-0.69134 1.2149-7.0258 2.7656-14.016 2.7656-6.9899 0-13.231-1.5507-13.922-2.7656z"/>
  <path id="path3844" style="opacity:.4;color:#bebebe;fill:#fff" d="m24-26.016c-4.9706 0-9 4.0384-9 9 0 0.18637 0.03567 0.37894 0.04687 0.5625 0.46089-4.5301 4.2932-8.0625 8.9531-8.0625s8.4922 3.5324 8.9531 8.0625c0.01121-0.18356 0.04687-0.37613 0.04687-0.5625 0-4.9616-4.0294-9-9-9z"/>
  <g id="g3883" transform="translate(22,-5)">
   <g id="g4507" transform="translate(1,-27)">
    <path id="path3163" style="opacity:.4;fill:url(#radialGradient3993-2)" d="m20 20c0 1.1046-4.0294 2-9 2s-9-0.89543-9-2 4.0294-2 9-2 9 0.89543 9 2z" transform="matrix(1,0,0,1.5,0,15)"/>
    <path id="path3995" style="opacity:.8;fill:url(#radialGradient3993-2)" d="m20 20c0 1.1046-4.0294 2-9 2s-9-0.89543-9-2 4.0294-2 9-2 9 0.89543 9 2z" transform="matrix(.66667 0 0 1 3.6667 26)"/>
   </g>
   <path id="path4791" d="m12 45.5c-5.2408 0-9.5-4.2592-9.5-9.5s4.2592-9.5 9.5-9.5 9.5 4.2592 9.5 9.5-4.2592 9.5-9.5 9.5z" style="fill:url(#linearGradient3802);fill-rule:evenodd" transform="translate(0,-26)"/>
   <path id="path3804" style="opacity:0.81;stroke:url(#linearGradient3839);fill:none" transform="translate(0,-26)" d="m2.5 36c0 5.2408 4.2592 9.5 9.5 9.5s9.5-4.2592 9.5-9.5-4.2592-9.5-9.5-9.5-9.5 4.2592-9.5 9.5z"/>
   <path id="path3806" d="m12 27c-4.9699 0-9 4.0301-9 9 0 0.17154 0.021774 0.33083 0.03125 0.5 0.2651-4.732 4.1705-8.5 8.9688-8.5s8.7037 3.7678 8.9688 8.5c0.009-0.169 0.031-0.328 0.031-0.5 0-4.97-4.03-9-9-9z" style="opacity:.2;fill:#fff;fill-rule:evenodd" transform="translate(0,-26)"/>
   <path id="path3820" style="opacity:.2;fill-rule:evenodd" transform="translate(0,-26)" d="m12 46c-4.9699 0-9-4.03-9-9 0-0.172 0.0218-0.331 0.0312-0.5 0.2651 4.732 4.1705 8.5 8.9688 8.5 4.798 0 8.704-3.768 8.969-8.5 0.009 0.169 0.031 0.328 0.031 0.5 0 4.9699-4.0301 9-9 9z"/>
   <path id="path3802" style="opacity:.3" transform="translate(0,-26)" d="m12 30c-3.866 0-7 3.1341-7 7 0 3.866 3.134 7 7 7s7-3.134 7-7c0-3.8659-3.134-7-7-7zm0 1c3.3137 0 6 2.6863 6 6s-2.6863 6-6 6-6-2.6863-6-6 2.6863-6 6-6zm0 1.75c-0.69036 0-1.25 0.55964-1.25 1.25s0.55964 1.25 1.25 1.25 1.25-0.55964 1.25-1.25-0.55964-1.25-1.25-1.25zm-1 3.25v5h2v-5h-1-1z"/>
   <path id="path4995" style="fill:#fff" transform="translate(0,-26)" d="m12 29c-3.866 0-7 3.1341-7 7 0 3.866 3.134 7 7 7s7-3.134 7-7c0-3.8659-3.134-7-7-7zm0 1c3.3137 0 6 2.6863 6 6s-2.6863 6-6 6-6-2.6863-6-6 2.6863-6 6-6zm0 1.75c-0.69036 0-1.25 0.55964-1.25 1.25s0.55964 1.25 1.25 1.25 1.25-0.55964 1.25-1.25-0.55964-1.25-1.25-1.25zm-1 3.25v5h2v-5h-1-1z"/>
  </g>
 </g>
</svg>
