<?xml version="1.0" encoding="UTF-8" standalone="no"?>
<!-- Created with Inkscape (http://www.inkscape.org/) -->
<svg id="svg3759" xmlns:rdf="http://www.w3.org/1999/02/22-rdf-syntax-ns#" xmlns="http://www.w3.org/2000/svg" height="48" width="48" version="1.1" xmlns:cc="http://creativecommons.org/ns#" xmlns:xlink="http://www.w3.org/1999/xlink" xmlns:dc="http://purl.org/dc/elements/1.1/">
 <metadata id="metadata37">
  <rdf:RDF>
   <cc:Work rdf:about="">
    <dc:format>image/svg+xml</dc:format>
    <dc:type rdf:resource="http://purl.org/dc/dcmitype/StillImage"/>
    <dc:title/>
   </cc:Work>
  </rdf:RDF>
 </metadata>
 <defs id="defs3761">
  <linearGradient id="linearGradient4140" y2="256" gradientUnits="userSpaceOnUse" x2="827" y1="256" x1="789">
   <stop id="stop4136" style="stop-color:#fff" offset="0"/>
   <stop id="stop4138" style="stop-color:#fff;stop-opacity:0" offset="1"/>
  </linearGradient>
  <clipPath id="clipPath4130" clipPathUnits="userSpaceOnUse">
   <path id="path4132" style="fill:#ba2222" d="m790.44 237c-0.81 0-1.44 0.63-1.44 1.44v35.094c0 0.812 0.62555 1.4688 1.4375 1.4688h35.125c0.81195 0 1.4375-0.65675 1.4375-1.4688v-35.094c0-0.81-0.63-1.44-1.44-1.44h-35.125z"/>
  </clipPath>
  <linearGradient id="linearGradient4083" y2="-808" gradientUnits="userSpaceOnUse" x2="-984.86" gradientTransform="translate(980.36 784)" y1="-808" x1="-1023.9">
   <stop id="stop4430" style="stop-color:#0d1808" offset="0"/>
   <stop id="stop4432" style="stop-color:#132906" offset="1"/>
  </linearGradient>
  <linearGradient id="linearGradient4707" y2="244" xlink:href="#linearGradient3721" gradientUnits="userSpaceOnUse" y1="244" gradientTransform="translate(-288 -220)" x2="333" x1="291"/>
  <linearGradient id="linearGradient3721">
   <stop id="stop3723" style="stop-color:#26ee2d;stop-opacity:0" offset="0"/>
   <stop id="stop3725" style="stop-color:#26ee2d" offset=".19524"/>
   <stop id="stop3727" style="stop-color:#26ee2d" offset=".5"/>
   <stop id="stop3729" style="stop-color:#26ee2d" offset=".80476"/>
   <stop id="stop3731" style="stop-color:#26ee2d;stop-opacity:0" offset="1"/>
  </linearGradient>
  <linearGradient id="linearGradient3854" y2="24" xlink:href="#linearGradient3721" gradientUnits="userSpaceOnUse" x2="45.5" y1="24" x1="2.5"/>
  <radialGradient id="radialGradient4205" xlink:href="#linearGradient3952" gradientUnits="userSpaceOnUse" cy="43.5" cx="40" gradientTransform="matrix(1.0571 0 0 1.25 .6 -10.875)" r="2"/>
  <linearGradient id="linearGradient3952">
   <stop id="stop3954" offset="0"/>
   <stop id="stop3956" style="stop-opacity:0" offset="1"/>
  </linearGradient>
  <radialGradient id="radialGradient4214" xlink:href="#linearGradient3952" gradientUnits="userSpaceOnUse" cy="43.5" cx="40" gradientTransform="matrix(1 0 0 .75 2 10.875)" r="2"/>
  <radialGradient id="radialGradient4202" xlink:href="#linearGradient3952" gradientUnits="userSpaceOnUse" cy="43.5" cx="9" gradientTransform="matrix(1.0571 0 0 1.25 -4.4 -10.875)" r="2"/>
  <radialGradient id="radialGradient4211" xlink:href="#linearGradient3952" gradientUnits="userSpaceOnUse" cy="43.5" cx="9" gradientTransform="matrix(1 0 0 .75 -3 10.875)" r="2"/>
  <linearGradient id="linearGradient4208" y2="42" xlink:href="#linearGradient3960" gradientUnits="userSpaceOnUse" x2="25" gradientTransform="matrix(1.0571 0 0 1.6667 -5.4 -29)" y1="45" x1="25"/>
  <linearGradient id="linearGradient3960">
   <stop id="stop3962" style="stop-opacity:0" offset="0"/>
   <stop id="stop3970" offset=".5"/>
   <stop id="stop3964" style="stop-opacity:0" offset="1"/>
  </linearGradient>
  <linearGradient id="linearGradient3172" y2="42" xlink:href="#linearGradient3960" gradientUnits="userSpaceOnUse" y1="45" gradientTransform="translate(-4)" x2="25" x1="25"/>
 </defs>
 <g id="g3111">
  <path id="path3987" style="opacity:0.12;fill:url(#radialGradient4205)" d="m42.886 41v5h0.52857c0.87849 0 1.5857-1.115 1.5857-2.5s-0.70723-2.5-1.5857-2.5h-0.52857z"/>
  <path id="rect3940" d="m42 42v3h0.5c0.831 0 1.5-0.669 1.5-1.5s-0.669-1.5-1.5-1.5h-0.5z" style="opacity:0.12;fill:url(#radialGradient4214)"/>
  <path id="path3989" style="opacity:0.12;fill:url(#radialGradient4202)" d="m4.4866 41c-0.8236 0-1.4866 1.045-1.4866 2.344v0.3125c0 1.2984 0.66303 2.3438 1.4866 2.3438h0.62768v-5h-0.62768z"/>
  <path id="rect3942" d="m5.4062 42c-0.77906 0-1.4062 0.62719-1.4062 1.4062v0.1875c0 0.77906 0.62719 1.4062 1.4062 1.4062h0.59375v-3h-0.59375z" style="opacity:0.12;fill:url(#radialGradient4211)"/>
  <path id="rect3985" d="m5.1141 41h37.772v5h-37.772z" style="opacity:0.12;fill:url(#linearGradient4208)"/>
  <path id="rect3938" d="m5.9999 42h36v3h-36z" style="opacity:0.12;fill:url(#linearGradient3172)"/>
 </g>
 <rect id="rect4073" style="opacity:.9;fill:url(#linearGradient4083)" transform="matrix(0,-1,-1,0,0,0)" rx="1.95" ry="1.95" height="39" width="39" y="-43.5" x="-43.5"/>
 <rect id="rect4085" ry="1.95" style="opacity:0.61;stroke:#000;fill:none" rx="1.95" transform="matrix(0,-1,-1,0,0,0)" height="39" width="39" y="-43.5" x="-43.5"/>
 <path id="rect4089-4" style="opacity:.15;fill:#fff" d="m6.4375 5c-0.8119 0-1.4375 0.6256-1.4375 1.4375v1c0-0.8119 0.6256-1.4375 1.4375-1.4375h35.125c0.81195 0 1.4375 0.62555 1.4375 1.4375v-1c0-0.81195-0.62555-1.4375-1.4375-1.4375h-35.125z"/>
 <path id="path4128" style="opacity:.1;stroke:url(#linearGradient4140);stroke-width:2;fill:none" d="m790.44 237c-0.81 0-1.44 0.63-1.44 1.44v35.094c0 0.812 0.62555 1.4688 1.4375 1.4688h35.125c0.81195 0 1.4375-0.65675 1.4375-1.4688v-35.094c0-0.81-0.63-1.44-1.44-1.44h-35.125z" clip-path="url(#clipPath4130)" transform="matrix(0,1,-1,0,280,-784)"/>
 <path id="path4105" style="opacity:.1;fill:#fff" d="m6.4375 43c-0.8119 0-1.4375-0.626-1.4375-1.437v-1c0 0.8119 0.62555 1.4375 1.4375 1.4375h35.125c0.81195 0 1.4375-0.6256 1.4375-1.4375v1c0 0.8119-0.62555 1.4375-1.4375 1.4375h-35.125z"/>
 <g id="layer2">
  <path id="path3267" style="enable-background:new;fill:url(#linearGradient4707);fill-rule:evenodd" d="m13.539 13.384-2.4094 13.728h-6.1296v1.1094h7.0656l1.9934-11.423 2.8601 17.611 0.54602 3.021 0.54601-3.021 1.2307-8.3723h4.2295l0.62402-1.9414 1.9761 7.1416 1.456-3.0681h15.473v-1.1094h-16.166l-0.48535 1.0054-2.1841-7.8696-1.508 4.7322h-4.3681l-0.84936 5.7375-2.8081-17.265-0.53735-2.8316z"/>
  <path id="path3846" style="opacity:.1;stroke-width:2;stroke:url(#linearGradient3854);enable-background:new;fill:none" d="m13.539 13.384-2.4094 13.728h-6.1296v1.1094h7.0656l1.9934-11.423 2.8601 17.611 0.54602 3.021 0.54601-3.021 1.2307-8.3723h4.2295l0.62402-1.9414 1.9761 7.1416 1.456-3.0681h15.473v-1.1094h-16.166l-0.48535 1.0054-2.1841-7.8696-1.508 4.7322h-4.3681l-0.84936 5.7375-2.8081-17.265-0.53735-2.8316z"/>
 </g>
</svg>
