<?xml version="1.0" encoding="UTF-8" standalone="no"?>
<!-- Created with Inkscape (http://www.inkscape.org/) -->
<svg id="svg3759" xmlns:rdf="http://www.w3.org/1999/02/22-rdf-syntax-ns#" xmlns="http://www.w3.org/2000/svg" height="48" width="48" version="1.1" xmlns:cc="http://creativecommons.org/ns#" xmlns:xlink="http://www.w3.org/1999/xlink" xmlns:dc="http://purl.org/dc/elements/1.1/">
 <metadata id="metadata37">
  <rdf:RDF>
   <cc:Work rdf:about="">
    <dc:format>image/svg+xml</dc:format>
    <dc:type rdf:resource="http://purl.org/dc/dcmitype/StillImage"/>
    <dc:title/>
   </cc:Work>
  </rdf:RDF>
 </metadata>
 <defs id="defs3761">
  <linearGradient id="linearGradient4140" y2="256" gradientUnits="userSpaceOnUse" x2="827" y1="256" x1="789">
   <stop id="stop4136" style="stop-color:#fff" offset="0"/>
   <stop id="stop4138" style="stop-color:#fff;stop-opacity:0" offset="1"/>
  </linearGradient>
  <clipPath id="clipPath4130" clipPathUnits="userSpaceOnUse">
   <path id="path4132" style="fill:#ba2222" d="m790.44 237c-0.81 0-1.44 0.63-1.44 1.44v35.094c0 0.812 0.62555 1.4688 1.4375 1.4688h35.125c0.81195 0 1.4375-0.65675 1.4375-1.4688v-35.094c0-0.81-0.63-1.44-1.44-1.44h-35.125z"/>
  </clipPath>
  <linearGradient id="linearGradient4083" y2="-808" gradientUnits="userSpaceOnUse" x2="-984.86" gradientTransform="translate(980.36 784)" y1="-808" x1="-1023.9">
   <stop id="stop5620" style="stop-color:#2b2b2b" offset="0"/>
   <stop id="stop5622" style="stop-color:#353535" offset="1"/>
  </linearGradient>
  <radialGradient id="radialGradient4205" xlink:href="#linearGradient3952" gradientUnits="userSpaceOnUse" cy="43.5" cx="40" gradientTransform="matrix(1.0571 0 0 1.25 .6 -10.875)" r="2"/>
  <linearGradient id="linearGradient3952">
   <stop id="stop3954" offset="0"/>
   <stop id="stop3956" style="stop-opacity:0" offset="1"/>
  </linearGradient>
  <radialGradient id="radialGradient4214" xlink:href="#linearGradient3952" gradientUnits="userSpaceOnUse" cy="43.5" cx="40" gradientTransform="matrix(1 0 0 .75 2 10.875)" r="2"/>
  <radialGradient id="radialGradient4202" xlink:href="#linearGradient3952" gradientUnits="userSpaceOnUse" cy="43.5" cx="9" gradientTransform="matrix(1.0571 0 0 1.25 -4.4 -10.875)" r="2"/>
  <radialGradient id="radialGradient4211" xlink:href="#linearGradient3952" gradientUnits="userSpaceOnUse" cy="43.5" cx="9" gradientTransform="matrix(1 0 0 .75 -3 10.875)" r="2"/>
  <linearGradient id="linearGradient4208" y2="42" xlink:href="#linearGradient3960" gradientUnits="userSpaceOnUse" x2="25" gradientTransform="matrix(1.0571 0 0 1.6667 -5.4 -29)" y1="45" x1="25"/>
  <linearGradient id="linearGradient3960">
   <stop id="stop3962" style="stop-opacity:0" offset="0"/>
   <stop id="stop3970" offset=".5"/>
   <stop id="stop3964" style="stop-opacity:0" offset="1"/>
  </linearGradient>
  <linearGradient id="linearGradient3172" y2="42" xlink:href="#linearGradient3960" gradientUnits="userSpaceOnUse" y1="45" gradientTransform="translate(-4)" x2="25" x1="25"/>
 </defs>
 <g id="g3111">
  <path id="path3987" style="opacity:0.12;fill:url(#radialGradient4205)" d="m42.886 41v5h0.52857c0.87849 0 1.5857-1.115 1.5857-2.5s-0.70723-2.5-1.5857-2.5h-0.52857z"/>
  <path id="rect3940" d="m42 42v3h0.5c0.831 0 1.5-0.669 1.5-1.5s-0.669-1.5-1.5-1.5h-0.5z" style="opacity:0.12;fill:url(#radialGradient4214)"/>
  <path id="path3989" style="opacity:0.12;fill:url(#radialGradient4202)" d="m4.4866 41c-0.8236 0-1.4866 1.045-1.4866 2.344v0.3125c0 1.2984 0.66303 2.3438 1.4866 2.3438h0.62768v-5h-0.62768z"/>
  <path id="rect3942" d="m5.4062 42c-0.77906 0-1.4062 0.62719-1.4062 1.4062v0.1875c0 0.77906 0.62719 1.4062 1.4062 1.4062h0.59375v-3h-0.59375z" style="opacity:0.12;fill:url(#radialGradient4211)"/>
  <path id="rect3985" d="m5.1141 41h37.772v5h-37.772z" style="opacity:0.12;fill:url(#linearGradient4208)"/>
  <path id="rect3938" d="m5.9999 42h36v3h-36z" style="opacity:0.12;fill:url(#linearGradient3172)"/>
 </g>
 <rect id="rect4073" style="opacity:.9;fill:url(#linearGradient4083)" transform="matrix(0,-1,-1,0,0,0)" rx="1.95" ry="1.95" height="39" width="39" y="-43.5" x="-43.5"/>
 <rect id="rect4085" ry="1.95" style="opacity:0.61;stroke:#000;fill:none" rx="1.95" transform="matrix(0,-1,-1,0,0,0)" height="39" width="39" y="-43.5" x="-43.5"/>
 <path id="rect4089-4" style="opacity:.15;fill:#fff" d="m6.4375 5c-0.8119 0-1.4375 0.6256-1.4375 1.4375v1c0-0.8119 0.6256-1.4375 1.4375-1.4375h35.125c0.81195 0 1.4375 0.62555 1.4375 1.4375v-1c0-0.81195-0.62555-1.4375-1.4375-1.4375h-35.125z"/>
 <path id="path4128" style="opacity:.1;stroke:url(#linearGradient4140);stroke-width:2;fill:none" d="m790.44 237c-0.81 0-1.44 0.63-1.44 1.44v35.094c0 0.812 0.62555 1.4688 1.4375 1.4688h35.125c0.81195 0 1.4375-0.65675 1.4375-1.4688v-35.094c0-0.81-0.63-1.44-1.44-1.44h-35.125z" clip-path="url(#clipPath4130)" transform="matrix(0,1,-1,0,280,-784)"/>
 <path id="path4105" style="opacity:.1;fill:#fff" d="m6.4375 43c-0.8119 0-1.4375-0.626-1.4375-1.437v-1c0 0.8119 0.62555 1.4375 1.4375 1.4375h35.125c0.81195 0 1.4375-0.6256 1.4375-1.4375v1c0 0.8119-0.62555 1.4375-1.4375 1.4375h-35.125z"/>
 <g id="g4055" style="opacity:.2;enable-background:new" transform="translate(-288,-218)">
  <rect id="rect4057" style="color:#bebebe;enable-background:accumulate" height="2" width="9" y="240" x="307"/>
  <g id="g4059" style="enable-background:new">
   <path id="path4061" d="m300.2 229h1.7288v0.97826c0.47785 0.0956 0.91918 0.2811 1.324 0.55657 0.41039 0.26986 0.78144 0.60436 1.1131 1.0035l-1.0204 1.2902s-0.30568-0.38639-0.44695-0.56497c-0.11245-0.1293-0.26424-0.25579-0.45538-0.37948-0.18553-0.12367-0.3851-0.21081-0.59873-0.26142v2.5383c0.45537 0.14618 0.85734 0.30921 1.2059 0.48911 0.34855 0.17991 0.63808 0.38792 0.86859 0.62403 0.23611 0.23613 0.4132 0.50317 0.53127 0.80113 0.11805 0.29234 0.17708 0.62684 0.17709 1.0035-0.00001 0.35418-0.0618 0.69431-0.18552 1.0204-0.12369 0.32045-0.30359 0.61279-0.53971 0.87702-0.2305 0.26423-0.5116 0.49192-0.84329 0.68306-0.3317 0.19115-0.70836 0.32889-1.13 0.41322v0.92761h-1.7288v-0.87702c-0.52846-0.09-1.0372-0.26704-1.5264-0.53127-0.48911-0.26423-0.92481-0.60717-1.3071-1.0288l1.0541-1.4842 0.48914 0.60717c0.19115 0.20801 0.39353 0.3851 0.60717 0.53127 0.21925 0.14617 0.47505 0.25018 0.76739 0.31202v-3.0864c-0.4104-0.15179-0.77864-0.32045-1.1047-0.50597-0.32046-0.18552-0.59312-0.39072-0.818-0.6156-0.21925-0.2305-0.38791-0.48348-0.50597-0.75896-0.11806-0.28109-0.17709-0.58749-0.17709-0.91919 0-0.31482 0.059-0.61559 0.17709-0.90232 0.11806-0.28671 0.28672-0.54532 0.50597-0.77582 0.21926-0.23049 0.48349-0.42726 0.7927-0.59031 0.31482-0.16864 0.66338-0.29233 1.0457-0.37104v-1.0035m1.6444 9.428c0.30358-0.10681 0.54813-0.2586 0.73366-0.45537 0.19114-0.19677 0.28671-0.45819 0.28672-0.78426-0.00001-0.26985-0.0843-0.50597-0.25299-0.70837-0.16304-0.20238-0.41884-0.36542-0.76739-0.4891v2.4371m-1.5601-6.8222c-0.23612 0.0618-0.42727 0.17147-0.57343 0.32888-0.14618 0.15742-0.21926 0.35981-0.21926 0.60717 0 0.17991 0.059 0.36543 0.17709 0.55657 0.11806 0.19115 0.32326 0.33732 0.6156 0.43851v-1.9311"/>
  </g>
 </g>
 <g id="g3932" style="enable-background:new;fill:#fff" transform="translate(-288,-219)">
  <rect id="rect4100" style="color:#bebebe;enable-background:accumulate;fill:#fff" height="2" width="9" y="240" x="307"/>
  <g id="text3894" style="enable-background:new;fill:#fff">
   <path id="path3930" d="m300.2 229h1.7288v0.97826c0.47785 0.0956 0.91918 0.2811 1.324 0.55657 0.41039 0.26986 0.78144 0.60436 1.1131 1.0035l-1.0204 1.2902s-0.30568-0.38639-0.44695-0.56497c-0.11245-0.1293-0.26424-0.25579-0.45538-0.37948-0.18553-0.12367-0.3851-0.21081-0.59873-0.26142v2.5383c0.45537 0.14618 0.85734 0.30921 1.2059 0.48911 0.34855 0.17991 0.63808 0.38792 0.86859 0.62403 0.23611 0.23613 0.4132 0.50317 0.53127 0.80113 0.11805 0.29234 0.17708 0.62684 0.17709 1.0035-0.00001 0.35418-0.0618 0.69431-0.18552 1.0204-0.12369 0.32045-0.30359 0.61279-0.53971 0.87702-0.2305 0.26423-0.5116 0.49192-0.84329 0.68306-0.3317 0.19115-0.70836 0.32889-1.13 0.41322v0.92761h-1.7288v-0.87702c-0.52846-0.09-1.0372-0.26704-1.5264-0.53127-0.48911-0.26423-0.92481-0.60717-1.3071-1.0288l1.0541-1.4842 0.48914 0.60717c0.19115 0.20801 0.39353 0.3851 0.60717 0.53127 0.21925 0.14617 0.47505 0.25018 0.76739 0.31202v-3.0864c-0.4104-0.15179-0.77864-0.32045-1.1047-0.50597-0.32046-0.18552-0.59312-0.39072-0.818-0.6156-0.21925-0.2305-0.38791-0.48348-0.50597-0.75896-0.11806-0.28109-0.17709-0.58749-0.17709-0.91919 0-0.31482 0.059-0.61559 0.17709-0.90232 0.11806-0.28671 0.28672-0.54532 0.50597-0.77582 0.21926-0.23049 0.48349-0.42726 0.7927-0.59031 0.31482-0.16864 0.66338-0.29233 1.0457-0.37104v-1.0035m1.6444 9.428c0.30358-0.10681 0.54813-0.2586 0.73366-0.45537 0.19114-0.19677 0.28671-0.45819 0.28672-0.78426-0.00001-0.26985-0.0843-0.50597-0.25299-0.70837-0.16304-0.20238-0.41884-0.36542-0.76739-0.4891v2.4371m-1.5601-6.8222c-0.23612 0.0618-0.42727 0.17147-0.57343 0.32888-0.14618 0.15742-0.21926 0.35981-0.21926 0.60717 0 0.17991 0.059 0.36543 0.17709 0.55657 0.11806 0.19115 0.32326 0.33732 0.6156 0.43851v-1.9311" style="fill:#fff"/>
  </g>
 </g>
</svg>
