<?xml version="1.0" encoding="UTF-8" standalone="no"?>
<svg
   xmlns:dc="http://purl.org/dc/elements/1.1/"
   xmlns:cc="http://creativecommons.org/ns#"
   xmlns:rdf="http://www.w3.org/1999/02/22-rdf-syntax-ns#"
   xmlns:svg="http://www.w3.org/2000/svg"
   xmlns="http://www.w3.org/2000/svg"
   xmlns:xlink="http://www.w3.org/1999/xlink"
   xmlns:sodipodi="http://sodipodi.sourceforge.net/DTD/sodipodi-0.dtd"
   xmlns:inkscape="http://www.inkscape.org/namespaces/inkscape"
   viewBox="0 0 256 256"
   id="svg2"
   version="1.1"
   inkscape:version="0.48.4 r9939"
   width="100%"
   height="100%"
   sodipodi:docname="text-x-css.svg">
  <metadata
     id="metadata68">
    <rdf:RDF>
      <cc:Work
         rdf:about="">
        <dc:format>image/svg+xml</dc:format>
        <dc:type
           rdf:resource="http://purl.org/dc/dcmitype/StillImage" />
      </cc:Work>
    </rdf:RDF>
  </metadata>
  <sodipodi:namedview
     pagecolor="#ffffff"
     bordercolor="#666666"
     borderopacity="1"
     objecttolerance="10"
     gridtolerance="10"
     guidetolerance="10"
     inkscape:pageopacity="0"
     inkscape:pageshadow="2"
     inkscape:window-width="644"
     inkscape:window-height="480"
     id="namedview66"
     showgrid="false"
     inkscape:zoom="0.921875"
     inkscape:cx="128"
     inkscape:cy="128"
     inkscape:window-x="0"
     inkscape:window-y="24"
     inkscape:window-maximized="0"
     inkscape:current-layer="g56" />
  <defs
     id="defs4">
    <clipPath
       id="clipPath6">
      <rect
         y="56"
         x="-202"
         width="84"
         rx="10"
         height="88"
         fill="none"
         display="block"
         stroke="#000"
         color="#000"
         id="rect8" />
    </clipPath>
    <clipPath
       id="clipPath10">
      <rect
         y="56"
         x="-202"
         width="84"
         rx="10"
         height="88"
         fill="none"
         display="block"
         stroke="#000"
         color="#000"
         id="rect12" />
    </clipPath>
    <clipPath
       id="clipPath14">
      <rect
         y="56"
         x="-202"
         width="84"
         rx="10"
         height="88"
         fill="none"
         display="block"
         stroke="#000"
         color="#000"
         id="rect16" />
    </clipPath>
  </defs>
  <g
     transform="translate(0 -796.36)"
     id="g18">
    <path
       d="m 252.75 895.07 c -49.981 -239.91 -393.86 17.642 -187.29 139.59 80.25 52.27 213 -16.2 187.29 -139.59 z"
       fill="#0c72ba"
       color="#000"
       id="path20" />
    <g
       transform="matrix(3.10308 0 0 3.17608 55.08 851.31)"
       id="g22">
      <path
         d="m 8 1 c -1.029 0 -2 0.971 -2 2 v 42 c 0 0.971 1.029 2 2 2 h 32 c 0.971 0 2 -1.029 2 -2 v -31 l -13 -13"
         fill="#3468ce"
         id="path24" />
      <path
         d="M 29,12 29.062,12.062 29.219,12 29,12 Z m 2,2 11,11 0,-11 -11,0 z"
         fill-opacity="0.196"
         id="0" />
      <path
         d="m 29 1 l 13 13 h -11 c -0.971 0 -2 -1.029 -2 -2 v -11"
         fill="#fff"
         fill-opacity="0.392"
         id="1" />
      <g
         fill="#fff"
         transform="translate(-0.5 -1)"
         id="g28">
        <rect
           x="16"
           y="17"
           width="8"
           height="7"
           ry="0.601"
           rx="0.579"
           id="rect30" />
        <g
           stroke="#fff"
           stroke-linejoin="round"
           stroke-linecap="round"
           stroke-dashoffset="0.774"
           id="g32">
          <path
             d="m 26.5 17.5 h 5"
             id="path34" />
          <path
             d="m 26.5 20.5 h 5"
             id="path36" />
          <path
             d="m 26.5 23.5 h 5"
             id="path38" />
          <path
             d="m 16 26.5 h 16"
             id="path40" />
          <path
             d="m 16 29.5 h 16"
             id="path42" />
          <path
             d="m 16 32.5 h 16"
             id="path44" />
        </g>
      </g>
      <path
         d="m 6 35 v 10 c 0 0.971 1.029 2 2 2 h 32 c 0.971 0 2 -1.029 2 -2 v -10 z"
         fill-opacity="0.196"
         id="path46" />
      <g
         transform="scale(1.0618 0.94175)"
         fill="#fff"
         id="g48">
        <path
           d="m 15.356 39.29 c 0.479 0 0.914 0.054 1.303 0.163 0.389 0.109 0.724 0.276 1 0.502 0.28 0.226 0.493 0.516 0.638 0.868 0.154 0.344 0.231 0.751 0.231 1.221 0 0.489 -0.1 0.932 -0.299 1.33 -0.199 0.398 -0.529 0.701 -0.991 0.909 0.154 0.235 0.317 0.498 0.489 0.787 0.172 0.28 0.339 0.579 0.502 0.896 0.163 0.308 0.317 0.62 0.461 0.936 0.154 0.308 0.285 0.602 0.394 0.882 h -1.75 c -0.208 -0.543 -0.452 -1.063 -0.733 -1.56 -0.271 -0.507 -0.565 -1.018 -0.882 -1.533 h -0.868 v 3.094 h -1.669 v -8.278 c 0.163 -0.036 0.339 -0.068 0.529 -0.095 0.199 -0.036 0.398 -0.059 0.597 -0.068 0.199 -0.018 0.389 -0.032 0.57 -0.041 0.181 -0.009 0.339 -0.014 0.475 -0.014 m 1.479 2.741 c 0 -0.443 -0.136 -0.769 -0.407 -0.977 -0.271 -0.208 -0.629 -0.312 -1.072 -0.312 -0.063 0 -0.14 0.005 -0.231 0.014 -0.09 0 -0.181 0.009 -0.271 0.027 v 2.524 h 0.366 c 0.57 0 0.982 -0.109 1.235 -0.326 0.253 -0.226 0.38 -0.543 0.38 -0.95"
           id="path50" />
        <path
           d="m 25.682 39.38 v 1.384 h -2.212 v 7.02 h -1.683 v -7.02 h -2.212 v -1.384 h 6.107"
           id="path52" />
        <path
           d="m 26.877 47.783 v -8.4 h 5.143 v 1.384 h -3.474 v 2.035 h 3.04 v 1.384 h -3.04 v 3.596 h -1.669"
           id="path54" />
      </g>
    </g>
    <g
       transform="matrix(4.47851 0 0 3.76955 21.462 841.62)"
       id="g56">
      <path
         d="m 8 1 c -1.029 0 -2 0.971 -2 2 v 42 c 0 0.971 1.029 2 2 2 h 32 c 0.971 0 2 -1.029 2 -2 v -31 l -13 -13"
         fill="#0c72ba"
         id="path58" />
      <use
         xlink:href="#0"
         id="use60"
         transform="translate(0,-0.28776532)"
         x="0"
         y="0"
         width="256"
         height="256" />
      <use
         xlink:href="#1"
         id="use62"
         transform="translate(0,-0.28776532)"
         x="0"
         y="0"
         width="256"
         height="256" />
      <path
         d="m 15.757789,18.014357 0,4 12,0 -0.3,3 -6.7,0 0,4 6.3,0 -0.3,4 -3,1 -3,-1 0,-2 -4,0 0,5 7,2 7,-2 1,-18 z"
         id="path64"
         inkscape:connector-curvature="0"
         style="fill:#ffffff" />
    </g>
  </g>
</svg>
