<?xml version="1.0" encoding="UTF-8" standalone="no"?>
<!-- Created with Inkscape (http://www.inkscape.org/) -->
<svg id="svg3759" xmlns:rdf="http://www.w3.org/1999/02/22-rdf-syntax-ns#" xmlns="http://www.w3.org/2000/svg" height="48" width="48" version="1.1" xmlns:cc="http://creativecommons.org/ns#" xmlns:xlink="http://www.w3.org/1999/xlink" xmlns:dc="http://purl.org/dc/elements/1.1/">
 <metadata id="metadata37">
  <rdf:RDF>
   <cc:Work rdf:about="">
    <dc:format>image/svg+xml</dc:format>
    <dc:type rdf:resource="http://purl.org/dc/dcmitype/StillImage"/>
    <dc:title/>
   </cc:Work>
  </rdf:RDF>
 </metadata>
 <defs id="defs3761">
  <linearGradient id="linearGradient4140" y2="256" gradientUnits="userSpaceOnUse" x2="827" y1="256" x1="789">
   <stop id="stop4136" style="stop-color:#fff" offset="0"/>
   <stop id="stop4138" style="stop-color:#fff;stop-opacity:0" offset="1"/>
  </linearGradient>
  <clipPath id="clipPath4130" clipPathUnits="userSpaceOnUse">
   <path id="path4132" style="fill:#ba2222" d="m790.44 237c-0.81 0-1.44 0.63-1.44 1.44v35.094c0 0.812 0.62555 1.4688 1.4375 1.4688h35.125c0.81195 0 1.4375-0.65675 1.4375-1.4688v-35.094c0-0.81-0.63-1.44-1.44-1.44h-35.125z"/>
  </clipPath>
  <linearGradient id="linearGradient3877" y2="-808" gradientUnits="userSpaceOnUse" x2="-984.86" gradientTransform="matrix(0 -1 -1 0 -784 -980.36)" y1="-808" x1="-1023.9">
   <stop id="stop3990-5" style="stop-color:#ededed" offset="0"/>
   <stop id="stop3992-0" style="stop-color:#fafafa" offset="1"/>
  </linearGradient>
  <linearGradient id="linearGradient3960">
   <stop id="stop3962" style="stop-opacity:0" offset="0"/>
   <stop id="stop3970" offset=".5"/>
   <stop id="stop3964" style="stop-opacity:0" offset="1"/>
  </linearGradient>
  <linearGradient id="linearGradient3952">
   <stop id="stop3954" offset="0"/>
   <stop id="stop3956" style="stop-opacity:0" offset="1"/>
  </linearGradient>
  <radialGradient id="radialGradient4202" xlink:href="#linearGradient3952" gradientUnits="userSpaceOnUse" cy="43.5" cx="9" gradientTransform="matrix(1.0571 0 0 1.25 -4.4 -10.875)" r="2"/>
  <radialGradient id="radialGradient4205" xlink:href="#linearGradient3952" gradientUnits="userSpaceOnUse" cy="43.5" cx="40" gradientTransform="matrix(1.0571 0 0 1.25 .6 -10.875)" r="2"/>
  <linearGradient id="linearGradient4208" y2="42" xlink:href="#linearGradient3960" gradientUnits="userSpaceOnUse" x2="25" gradientTransform="matrix(1.0571 0 0 1.6667 -5.4 -29)" y1="45" x1="25"/>
  <radialGradient id="radialGradient4211" xlink:href="#linearGradient3952" gradientUnits="userSpaceOnUse" cy="43.5" cx="9" gradientTransform="matrix(1 0 0 .75 -3 10.875)" r="2"/>
  <radialGradient id="radialGradient4214" xlink:href="#linearGradient3952" gradientUnits="userSpaceOnUse" cy="43.5" cx="40" gradientTransform="matrix(1 0 0 .75 2 10.875)" r="2"/>
  <linearGradient id="linearGradient4217" y2="42" xlink:href="#linearGradient3960" gradientUnits="userSpaceOnUse" x2="25" gradientTransform="translate(-4)" y1="45" x1="25"/>
 </defs>
 <g id="layer1">
  <path id="path3987" d="m42.886 41v5h0.52857c0.87849 0 1.5857-1.115 1.5857-2.5s-0.70723-2.5-1.5857-2.5h-0.52857z" style="opacity:0.12;fill:url(#radialGradient4205)"/>
  <path id="rect3940" style="opacity:0.12;fill:url(#radialGradient4214)" d="m42 42v3h0.5c0.831 0 1.5-0.669 1.5-1.5s-0.669-1.5-1.5-1.5h-0.5z"/>
  <path id="path3989" d="m4.4866 41c-0.8236 0-1.4866 1.045-1.4866 2.344v0.3125c0 1.2984 0.66303 2.3438 1.4866 2.3438h0.62768v-5h-0.62768z" style="opacity:0.12;fill:url(#radialGradient4202)"/>
  <path id="rect3942" style="opacity:0.12;fill:url(#radialGradient4211)" d="m5.4062 42c-0.77906 0-1.4062 0.62719-1.4062 1.4062v0.1875c0 0.77906 0.62719 1.4062 1.4062 1.4062h0.59375v-3h-0.59375z"/>
  <path id="rect3985" style="opacity:0.12;fill:url(#linearGradient4208)" d="m5.1141 41h37.772v5h-37.772z"/>
  <path id="rect3938" style="opacity:0.12;fill:url(#linearGradient4217)" d="m5.9999 42h36v3h-36z"/>
  <path id="rect4073" style="fill:url(#linearGradient3877)" d="m6.4375 5c-0.8119 0-1.4375 0.6256-1.4375 1.4375v35.124c0 0.812 0.6256 1.438 1.4375 1.438h35.124c0.812 0 1.438-0.626 1.438-1.438v-35.124c0-0.8124-0.626-1.438-1.438-1.438h-35.124z"/>
  <rect id="rect4085" ry="1.95" style="opacity:.41;stroke:#000;fill:none" rx="1.95" transform="matrix(0,-1,-1,0,0,0)" height="39" width="39" y="-43.5" x="-43.5"/>
  <path id="rect4089-4" style="opacity:.15;fill:#fff" d="m6.4375 5c-0.8119 0-1.4375 0.6256-1.4375 1.4375v1c0-0.8119 0.6256-1.4375 1.4375-1.4375h35.125c0.81195 0 1.4375 0.62555 1.4375 1.4375v-1c0-0.81195-0.62555-1.4375-1.4375-1.4375h-35.125z"/>
  <path id="path4128" style="opacity:.1;stroke:url(#linearGradient4140);stroke-width:2;fill:none" d="m790.44 237c-0.81 0-1.44 0.63-1.44 1.44v35.094c0 0.812 0.62555 1.4688 1.4375 1.4688h35.125c0.81195 0 1.4375-0.65675 1.4375-1.4688v-35.094c0-0.81-0.63-1.44-1.44-1.44h-35.125z" clip-path="url(#clipPath4130)" transform="matrix(0,1,-1,0,280,-784)"/>
  <path id="path4105" style="opacity:.1;fill:#fff" d="m6.4375 43c-0.8119 0-1.4375-0.626-1.4375-1.437v-1c0 0.8119 0.62555 1.4375 1.4375 1.4375h35.125c0.81195 0 1.4375-0.6256 1.4375-1.4375v1c0 0.8119-0.62555 1.4375-1.4375 1.4375h-35.125z"/>
 </g>
 <g id="layer2">
  <path id="path12530" style="fill:#8596cc;fill-rule:evenodd" d="m21.718 16.75-2.2188 10.75h2.625l1.25-5.9688h2.0625c0.9675 0 0.98205 0.4005 0.84375 1.0625l-0.96875 4.9062h2.75l0.96875-5.4375c0.2765-1.324-0.5385-2.3988-2.75-2.5312h-2.5l0.5625-2.7812h-2.625zm-9.8125 2.7812-2.2188 10.75h2.625l0.5625-2.7812h2.5c2.3496 0.1324 4.9688-1.7288 4.9688-4.9062 0-1.8536-1.101-2.9301-3.3125-3.0625h-5.125zm18.156 0-2.2188 10.75h2.625l0.5625-2.7812h2.5c2.3497 0.1324 4.9688-1.7288 4.9688-4.9062 0-1.8536-1.1011-2.9301-3.3125-3.0625h-5.125zm-15.938 2h1.7812c0.9675 0 1.6562 0.3931 1.6562 1.1875-0.1382 2.2507-1.2248 2.6488-2.4688 2.7812h-1.6562l0.6875-3.9688zm18.156 0h1.7812c0.9675 0 1.6875 0.3931 1.6875 1.1875-0.1382 2.2507-1.2561 2.6488-2.5 2.7812h-1.6562l0.6875-3.9688z"/>
  <g id="g4208" style="opacity:0.61;stroke:#2c3d72;fill:none" transform="translate(26.097 5.0166)">
   <path id="path4210" style="stroke:#2c3d72;fill:none" d="m-16.402 25.252 2.2115-10.724h5.1139c2.2115 0.1324 3.3172 1.1916 3.3172 3.0452 0 3.1775-2.6261 5.0311-4.9757 4.8987h-2.4879l-0.5529 2.7803h-2.6261zm3.7318-4.7663 0.6911-3.9719h1.7968c0.9675 0 1.6586 0.3972 1.6586 1.1916-0.1382 2.2507-1.2439 2.6479-2.4879 2.7803h-1.6586z"/>
   <path id="path4212" d="m-6.589 22.472 2.2115-10.724h2.626l-0.5528 2.7803h2.4878c2.2115 0.1324 3.0408 1.1916 2.7643 2.5156l-0.9675 5.4283h-2.7643l0.9675-4.8987c0.1383-0.662 0.1383-1.0592-0.8292-1.0592h-2.0733l-1.2439 5.9579h-2.6261z" style="stroke:#2c3d72;fill:none"/>
   <path id="path4214" d="m1.7597 25.252 2.2114-10.724h5.114c2.2114 0.1324 3.3172 1.1916 3.3172 3.0452 0 3.1775-2.6261 5.0311-4.9758 4.8987h-2.4878l-0.5529 2.7803h-2.6261zm3.7318-4.7663 0.6911-3.9719h1.7968c0.9675 0 1.6586 0.3972 1.6586 1.1916-0.1382 2.2507-1.244 2.6479-2.4879 2.7803h-1.6586z" style="stroke:#2c3d72;fill:none"/>
  </g>
 </g>
</svg>
