<?xml version="1.0" encoding="UTF-8" standalone="no"?>
<!-- Created with Inkscape (http://www.inkscape.org/) -->
<svg id="svg3759" xmlns:rdf="http://www.w3.org/1999/02/22-rdf-syntax-ns#" xmlns="http://www.w3.org/2000/svg" height="48" width="48" version="1.1" xmlns:cc="http://creativecommons.org/ns#" xmlns:xlink="http://www.w3.org/1999/xlink" xmlns:dc="http://purl.org/dc/elements/1.1/">
 <metadata id="metadata37">
  <rdf:RDF>
   <cc:Work rdf:about="">
    <dc:format>image/svg+xml</dc:format>
    <dc:type rdf:resource="http://purl.org/dc/dcmitype/StillImage"/>
    <dc:title/>
   </cc:Work>
  </rdf:RDF>
 </metadata>
 <defs id="defs3761">
  <linearGradient id="linearGradient4140" y2="256" gradientUnits="userSpaceOnUse" x2="827" y1="256" x1="789">
   <stop id="stop4136" style="stop-color:#fff" offset="0"/>
   <stop id="stop4138" style="stop-color:#fff;stop-opacity:0" offset="1"/>
  </linearGradient>
  <clipPath id="clipPath4130" clipPathUnits="userSpaceOnUse">
   <path id="path4132" style="fill:#ba2222" d="m790.44 237c-0.81 0-1.44 0.63-1.44 1.44v35.094c0 0.812 0.62555 1.4688 1.4375 1.4688h35.125c0.81195 0 1.4375-0.65675 1.4375-1.4688v-35.094c0-0.81-0.63-1.44-1.44-1.44h-35.125z"/>
  </clipPath>
  <linearGradient id="linearGradient3877" y2="-808" gradientUnits="userSpaceOnUse" x2="-984.86" gradientTransform="matrix(0 -1 -1 0 -784 -980.36)" y1="-808" x1="-1023.9">
   <stop id="stop3990-5" style="stop-color:#ededed" offset="0"/>
   <stop id="stop3992-0" style="stop-color:#fafafa" offset="1"/>
  </linearGradient>
  <linearGradient id="linearGradient3960">
   <stop id="stop3962" style="stop-opacity:0" offset="0"/>
   <stop id="stop3970" offset=".5"/>
   <stop id="stop3964" style="stop-opacity:0" offset="1"/>
  </linearGradient>
  <linearGradient id="linearGradient3952">
   <stop id="stop3954" offset="0"/>
   <stop id="stop3956" style="stop-opacity:0" offset="1"/>
  </linearGradient>
  <radialGradient id="radialGradient4202" xlink:href="#linearGradient3952" gradientUnits="userSpaceOnUse" cy="43.5" cx="9" gradientTransform="matrix(1.0571 0 0 1.25 -4.4 -10.875)" r="2"/>
  <radialGradient id="radialGradient4205" xlink:href="#linearGradient3952" gradientUnits="userSpaceOnUse" cy="43.5" cx="40" gradientTransform="matrix(1.0571 0 0 1.25 .6 -10.875)" r="2"/>
  <linearGradient id="linearGradient4208" y2="42" xlink:href="#linearGradient3960" gradientUnits="userSpaceOnUse" x2="25" gradientTransform="matrix(1.0571 0 0 1.6667 -5.4 -29)" y1="45" x1="25"/>
  <radialGradient id="radialGradient4211" xlink:href="#linearGradient3952" gradientUnits="userSpaceOnUse" cy="43.5" cx="9" gradientTransform="matrix(1 0 0 .75 -3 10.875)" r="2"/>
  <radialGradient id="radialGradient4214" xlink:href="#linearGradient3952" gradientUnits="userSpaceOnUse" cy="43.5" cx="40" gradientTransform="matrix(1 0 0 .75 2 10.875)" r="2"/>
  <linearGradient id="linearGradient4217" y2="42" xlink:href="#linearGradient3960" gradientUnits="userSpaceOnUse" x2="25" gradientTransform="translate(-4)" y1="45" x1="25"/>
  <linearGradient id="linearGradient4403" y2="273" gradientUnits="userSpaceOnUse" x2="307" gradientTransform="matrix(.875 0 0 .875 -309.37 -196.5)" y1="231" x1="307">
   <stop id="stop4691" style="stop-color:#5a9fd4" offset="0"/>
   <stop id="stop4693" style="stop-color:#306998" offset="1"/>
  </linearGradient>
  <linearGradient id="linearGradient4405" y2="273" gradientUnits="userSpaceOnUse" x2="349" gradientTransform="matrix(.875 0 0 .875 -262 -196.5)" y1="232" x1="349">
   <stop id="stop4673" style="stop-color:#ffec3b" offset="0"/>
   <stop id="stop4675" style="stop-color:#ffe62e" offset="1"/>
  </linearGradient>
 </defs>
 <g id="layer1">
  <path id="path3987" d="m42.886 41v5h0.52857c0.87849 0 1.5857-1.115 1.5857-2.5s-0.70723-2.5-1.5857-2.5h-0.52857z" style="opacity:0.12;fill:url(#radialGradient4205)"/>
  <path id="rect3940" style="opacity:0.12;fill:url(#radialGradient4214)" d="m42 42v3h0.5c0.831 0 1.5-0.669 1.5-1.5s-0.669-1.5-1.5-1.5h-0.5z"/>
  <path id="path3989" d="m4.4866 41c-0.8236 0-1.4866 1.045-1.4866 2.344v0.3125c0 1.2984 0.66303 2.3438 1.4866 2.3438h0.62768v-5h-0.62768z" style="opacity:0.12;fill:url(#radialGradient4202)"/>
  <path id="rect3942" style="opacity:0.12;fill:url(#radialGradient4211)" d="m5.4062 42c-0.77906 0-1.4062 0.62719-1.4062 1.4062v0.1875c0 0.77906 0.62719 1.4062 1.4062 1.4062h0.59375v-3h-0.59375z"/>
  <path id="rect3985" style="opacity:0.12;fill:url(#linearGradient4208)" d="m5.1141 41h37.772v5h-37.772z"/>
  <path id="rect3938" style="opacity:0.12;fill:url(#linearGradient4217)" d="m5.9999 42h36v3h-36z"/>
  <path id="rect4073" style="fill:url(#linearGradient3877)" d="m6.4375 5c-0.8119 0-1.4375 0.6256-1.4375 1.4375v35.124c0 0.812 0.6256 1.438 1.4375 1.438h35.124c0.812 0 1.438-0.626 1.438-1.438v-35.124c0-0.8124-0.626-1.438-1.438-1.438h-35.124z"/>
  <rect id="rect4085" ry="1.95" style="opacity:.41;stroke:#000;fill:none" rx="1.95" transform="matrix(0,-1,-1,0,0,0)" height="39" width="39" y="-43.5" x="-43.5"/>
  <path id="rect4089-4" style="opacity:.15;fill:#fff" d="m6.4375 5c-0.8119 0-1.4375 0.6256-1.4375 1.4375v1c0-0.8119 0.6256-1.4375 1.4375-1.4375h35.125c0.81195 0 1.4375 0.62555 1.4375 1.4375v-1c0-0.81195-0.62555-1.4375-1.4375-1.4375h-35.125z"/>
  <path id="path4128" style="opacity:.1;stroke:url(#linearGradient4140);stroke-width:2;fill:none" d="m790.44 237c-0.81 0-1.44 0.63-1.44 1.44v35.094c0 0.812 0.62555 1.4688 1.4375 1.4688h35.125c0.81195 0 1.4375-0.65675 1.4375-1.4688v-35.094c0-0.81-0.63-1.44-1.44-1.44h-35.125z" clip-path="url(#clipPath4130)" transform="matrix(0,1,-1,0,280,-784)"/>
  <path id="path4105" style="opacity:.1;fill:#fff" d="m6.4375 43c-0.8119 0-1.4375-0.626-1.4375-1.437v-1c0 0.8119 0.62555 1.4375 1.4375 1.4375h35.125c0.81195 0 1.4375-0.6256 1.4375-1.4375v1c0 0.8119-0.62555 1.4375-1.4375 1.4375h-35.125z"/>
 </g>
 <g id="layer2">
  <g id="g4394" transform="translate(46.417)">
   <path id="path9194" style="color:#000000;fill:url(#linearGradient4403)" d="m-23.242 10.5c-1.6008 0-3.0225 0.46694-4.0312 1.1875-1.0089 0.72056-1.5938 1.6635-1.5938 2.6875v2.125h4.75v1h-5.25-0.5-2.125c-1.0241 0-1.9669 0.55371-2.6875 1.5625s-1.1875 2.4617-1.1875 4.0625v1.75c0 1.6008 0.4669 3.0225 1.1875 4.0312 0.7206 1.0088 1.6634 1.5938 2.6875 1.5938h2.125v-3c0-2.2074 1.7926-4 4-4h7s0.7756-0.02838 1.5312-0.40625c0.7559-0.37787 1.4688-1.0104 1.4688-2.5938v-3.5-2.625c0-1.024-0.5849-1.9669-1.5938-2.6875-1.0086-0.72057-2.4304-1.1875-4.0312-1.1875h-1.75z"/>
   <path id="path9206" style="color:#000000;fill:#fff" d="m327 244.5c0 0.82843-0.67157 1.5-1.5 1.5s-1.5-0.67157-1.5-1.5 0.67157-1.5 1.5-1.5 1.5 0.67157 1.5 1.5z" transform="matrix(.875 0 0 .875 -309.37 -200)"/>
   <path id="path7034" style="opacity:0.61;color:#000000;stroke:#043683;fill:none" d="m-23.242 10.5c-1.6008 0-3.0225 0.46694-4.0312 1.1875-1.0089 0.72056-1.5938 1.6635-1.5938 2.6875v2.125h4.75v1h-5.25-0.5-2.125c-1.0241 0-1.9669 0.55371-2.6875 1.5625s-1.1875 2.4617-1.1875 4.0625v1.75c0 1.6008 0.4669 3.0225 1.1875 4.0312 0.7206 1.0088 1.6634 1.5938 2.6875 1.5938h2.125v-3c0-2.2074 1.7926-4 4-4h7s0.7756-0.02838 1.5312-0.40625c0.7559-0.37787 1.4688-1.0104 1.4688-2.5938v-3.5-2.625c0-1.024-0.5849-1.9669-1.5938-2.6875-1.0086-0.72057-2.4304-1.1875-4.0312-1.1875h-1.75z"/>
   <g id="g3171" transform="translate(-47.467 -0.1)">
    <path id="path9196" d="m32.5 17.5v3c0 2.2074-1.7926 4-4 4h-7s-0.7756-0.0029-1.5312 0.375c-0.756 0.378-1.469 1.042-1.469 2.625v3.5 2.625c0 1.024 0.5849 1.9669 1.5938 2.6875 1.0086 0.72057 2.4304 1.1875 4.0312 1.1875h1.75c1.6008 0 3.0225-0.46694 4.0312-1.1875 1.009-0.72 1.594-1.663 1.594-2.687v-2.125h-4.75v-1h5.25 0.5 2.125c1.0241 0 1.9669-0.58496 2.6875-1.5938 0.721-1.009 1.188-2.43 1.188-4.031v-1.75c0-1.6008-0.4669-3.0537-1.1875-4.0625-0.72-1.008-1.663-1.562-2.687-1.562h-2.125z" style="color:#000000;fill:url(#linearGradient4405)"/>
    <path id="path9208" style="color:#000000;fill:#fff" d="m327 244.5c0 0.82843-0.67157 1.5-1.5 1.5s-1.5-0.67157-1.5-1.5 0.67157-1.5 1.5-1.5 1.5 0.67157 1.5 1.5z" transform="matrix(.875 0 0 .875 -257.62 -179.88)"/>
    <path id="path7036" style="opacity:0.61;color:#000000;stroke:#766e00;fill:none" d="m32.5 17.5v3c0 2.2074-1.7926 4-4 4h-7s-0.7756-0.0029-1.5312 0.375c-0.756 0.378-1.469 1.042-1.469 2.625v3.5 2.625c0 1.024 0.5849 1.9669 1.5938 2.6875 1.0086 0.72057 2.4304 1.1875 4.0312 1.1875h1.75c1.6008 0 3.0225-0.46694 4.0312-1.1875 1.009-0.72 1.594-1.663 1.594-2.687v-2.125h-4.75v-1h5.25 0.5 2.125c1.0241 0 1.9669-0.58496 2.6875-1.5938 0.721-1.009 1.188-2.43 1.188-4.031v-1.75c0-1.6008-0.4669-3.0537-1.1875-4.0625-0.72-1.008-1.663-1.562-2.687-1.562h-2.125z"/>
   </g>
  </g>
 </g>
</svg>
