<?xml version="1.0" encoding="UTF-8" standalone="no"?>
<!-- Created with Inkscape (http://www.inkscape.org/) -->
<svg id="svg4045" xmlns:rdf="http://www.w3.org/1999/02/22-rdf-syntax-ns#" xmlns="http://www.w3.org/2000/svg" height="48" width="48" version="1.1" xmlns:cc="http://creativecommons.org/ns#" xmlns:xlink="http://www.w3.org/1999/xlink" xmlns:dc="http://purl.org/dc/elements/1.1/">
 <defs id="defs4047">
  <linearGradient id="linearGradient2346">
   <stop id="stop2348" style="stop-color:#eee" offset="0"/>
   <stop id="stop2350" style="stop-color:#d9d9da" offset="1"/>
  </linearGradient>
  <radialGradient id="radialGradient3013" gradientUnits="userSpaceOnUse" cy="43.5" cx="4.993" gradientTransform="matrix(2.0038 0 0 1.4 27.988 -17.4)" r="2.5">
   <stop id="stop2883" style="stop-color:#181818" offset="0"/>
   <stop id="stop2885" style="stop-color:#181818;stop-opacity:0" offset="1"/>
  </radialGradient>
  <radialGradient id="radialGradient3015" gradientUnits="userSpaceOnUse" cy="43.5" cx="4.993" gradientTransform="matrix(2.0038 0 0 1.4 -20.012 -104.4)" r="2.5">
   <stop id="stop2889" style="stop-color:#181818" offset="0"/>
   <stop id="stop2891" style="stop-color:#181818;stop-opacity:0" offset="1"/>
  </radialGradient>
  <linearGradient id="linearGradient4043" y2="39.999" gradientUnits="userSpaceOnUse" x2="25.058" y1="47.028" x1="25.058">
   <stop id="stop2895" style="stop-color:#181818;stop-opacity:0" offset="0"/>
   <stop id="stop2897" style="stop-color:#181818" offset=".5"/>
   <stop id="stop2899" style="stop-color:#181818;stop-opacity:0" offset="1"/>
  </linearGradient>
  <radialGradient id="radialGradient3075" gradientUnits="userSpaceOnUse" cy="8.4498" cx="7.4957" gradientTransform="matrix(1.9428e-8 2.4568 -2.4723 -4.5264e-8 46.89 -13.303)" r="20">
   <stop id="stop5430-8" style="stop-color:#5f5f5f" offset="0"/>
   <stop id="stop5432-3" style="stop-color:#4f4f4f" offset=".26238"/>
   <stop id="stop5434-1" style="stop-color:#3b3b3b" offset=".70495"/>
   <stop id="stop5436-8" style="stop-color:#2b2b2b" offset="1"/>
  </radialGradient>
  <linearGradient id="linearGradient3077" y2="3.899" gradientUnits="userSpaceOnUse" x2="24" gradientTransform="matrix(1 0 0 1.0513 2 -.23077)" y1="44" x1="24">
   <stop id="stop5440-4" style="stop-color:#272727" offset="0"/>
   <stop id="stop5442-3" style="stop-color:#454545" offset="1"/>
  </linearGradient>
  <radialGradient id="radialGradient3080" gradientUnits="userSpaceOnUse" cy="6.6476" cx="24.502" gradientTransform="matrix(0 2.7445 -3.1834 0 45.664 -113.07)" r="17.498">
   <stop id="stop3864-8-6-2" style="stop-color:#e5523c" offset="0"/>
   <stop id="stop3866-9-1-6" style="stop-color:#ed8879" offset="1"/>
  </radialGradient>
  <linearGradient id="linearGradient3082" y2="61.482" xlink:href="#outerBackgroundGradient" gradientUnits="userSpaceOnUse" x2="32.901" gradientTransform="matrix(.70071 0 0 .73713 2.0789 -49.124)" y1="4.6482" x1="32.901"/>
  <linearGradient id="linearGradient3085" y2="3" xlink:href="#linearGradient2346" gradientUnits="userSpaceOnUse" x2="10.654" gradientTransform="translate(0,1)" y1="1" x1="10.654"/>
  <linearGradient id="linearGradient3087" y2="3.899" gradientUnits="userSpaceOnUse" x2="24" gradientTransform="matrix(1 0 0 .10256 2.0003 1.0385)" y1="44" x1="24">
   <stop id="stop5440-4-8" style="stop-color:#272727" offset="0"/>
   <stop id="stop5442-3-8" style="stop-color:#454545" offset="1"/>
  </linearGradient>
  <linearGradient id="linearGradient3090" y2="4.8826" xlink:href="#linearGradient2346" gradientUnits="userSpaceOnUse" x2="24.64" gradientTransform="matrix(1.004 0 0 1.5381 1.2233 -3.04)" y1="3.1234" x1="24.627"/>
  <linearGradient id="linearGradient3092" y2=".065302" xlink:href="#outerBackgroundGradient" gradientUnits="userSpaceOnUse" x2="54.887" gradientTransform="matrix(.71628 0 0 .74716 2.1542 .94835)" y1=".065302" x1="5.2123"/>
  <linearGradient id="linearGradient3993" y2="24.5" gradientUnits="userSpaceOnUse" y1="25" gradientTransform="matrix(0 1 -1 0 46.975 2.123)" x2="42" x1="3">
   <stop id="stop4638" style="stop-color:#fff" offset="0"/>
   <stop id="stop4640" style="stop-color:#fff;stop-opacity:0" offset="1"/>
  </linearGradient>
  <linearGradient id="outerBackgroundGradient">
   <stop id="stop3864-8-6" style="stop-color:#c01914" offset="0"/>
   <stop id="stop3866-9-1" style="stop-color:#d4231e" offset="1"/>
  </linearGradient>
 </defs>
 <metadata id="metadata4050">
  <rdf:RDF>
   <cc:Work rdf:about="">
    <dc:format>image/svg+xml</dc:format>
    <dc:type rdf:resource="http://purl.org/dc/dcmitype/StillImage"/>
    <dc:title/>
   </cc:Work>
  </rdf:RDF>
 </metadata>
 <g id="g3712" style="opacity:.4" transform="matrix(1.0526 0 0 .57143 -1.2632 20.643)">
  <rect id="rect2801" style="fill:url(#radialGradient3013)" height="7" width="5" y="40" x="38"/>
  <rect id="rect3696" style="fill:url(#radialGradient3015)" transform="scale(-1)" height="7" width="5" y="-47" x="-10"/>
  <rect id="rect3700" style="fill:url(#linearGradient4043)" height="7" width="28" y="40" x="10"/>
 </g>
 <path id="path2723" style="stroke-linejoin:round;stroke:url(#linearGradient3092);stroke-miterlimit:0;stroke-width:1.0174;fill:url(#linearGradient3090)" d="m40.839 4.2172c-0.295-0.9913-0.111-1.7719-0.274-2.7172h-30.24l0.17848 3"/>
 <path id="rect5505-21-3-9" style="stroke-linejoin:round;color:#000000;stroke:url(#linearGradient3087);stroke-linecap:round;fill:url(#linearGradient3085)" d="m11.5 5.5h-4c-0.57085 0-1-0.042333-1-0.09756v-2.7964c0-0.88792 0.55903-1.106 1.2909-1.106h3.7091"/>
 <rect id="rect2719" style="stroke-linejoin:round;stroke:url(#linearGradient3082);stroke-linecap:round;stroke-miterlimit:0;stroke-width:1.019;fill:url(#radialGradient3080)" transform="scale(1,-1)" rx="1" ry="1" height="40.981" width="33.978" y="-45.49" x="7.5129"/>
 <path id="rect5505-21-3" style="stroke-linejoin:round;color:#000000;stroke:url(#linearGradient3077);stroke-linecap:round;fill:url(#radialGradient3075)" d="m11.5 4.5v41h-4c-0.57085 0-1-0.43395-1-1v-40z"/>
 <path id="path3893" style="opacity:.2;fill:url(#linearGradient3993)" d="m7 5v40h33 1v-40h-1zm1 1h32v38h-32z"/>
 <text id="context" style="font-size:18px;font-family:DejaVu Sans;enable-background:new;display:none;fill:#000000" xml:space="preserve" y="-157.75488" x="116.50684"><tspan id="tspan3933" y="-157.75488" x="116.50684" style="font-family:DejaVu Sans">apps</tspan></text>
 <text id="icon-name" style="font-size:18px;enable-background:new;font-family:DejaVu Sans;line-height:125%;font-weight:bold;display:none;fill:#000000" xml:space="preserve" y="-157.75488" x="223.98828"><tspan id="tspan3937" y="-157.75488" x="223.98828" style="font-size:18px;font-family:DejaVu Sans;font-weight:bold">mathematica</tspan></text>
 <rect id="rect16x16" style="display:none;fill:#eeeeec" height="16" width="16" y="-37.5" x="517.5"/>
 <rect id="rect24x24" style="display:none;fill:#d4d4d4" height="24" width="24" y="-77.5" x="517.5"/>
 <rect id="rect32x32" style="display:none;fill:#eeeeec" height="32" width="32" y="-125.5" x="517.5"/>
 <rect id="rect22x22" style="display:none;fill:#eeeeec" height="22" width="22" y="-76.5" x="518.5"/>
 <rect id="rect48x48" style="display:none;fill:#eeeeec" height="48" width="48" y="42.5" x="389.5"/>
 <rect id="rect256x256" style="display:none;fill:#eeeeec" height="256" width="256" y="-149.5" x="117.5"/>
 <rect id="rect64x64" style="display:none;fill:#eeeeec" height="64" width="64" y="-37.5" x="389.5"/>
 <rect id="rect96x96" style="display:none;fill:#eeeeec" height="96" width="96" y="-149.5" x="389.5"/>
 <g id="g4520" transform="matrix(.62069 0 0 .62069 4.06 9.3276)">
  <path id="path6338" style="opacity:.2;fill-rule:evenodd;enable-background:new" d="m35.62 11.75-3.0222 4.8593-5.4074-2.2815 0.6074 6.0296-5.4667 0.99259 4 4.1185-4.6815 4.4296 6.2074 0.99259-0.97778 6.2815 5.5407-2.9037 2.8889 5.4815 2.8889-5.4074 5.1704 2.7556l-0.118-5.899 5.6-0.682-3.941-4.681 3.822-4.489-5.422-1.052 0.489-5.778-5.467 2.149-2.711-4.919z"/>
  <path id="path6318" style="enable-background:new;fill:#fff;fill-rule:evenodd" d="m35.62 10.139-3.0222 4.8593-5.4074-2.2815 0.6074 6.0296-5.4667 0.99259 4 4.1185-4.6815 4.4296 6.2074 0.99259-0.97778 6.2815 5.5407-2.9037 2.8889 5.4815 2.8889-5.4074 5.1704 2.7556-0.11852-5.8963 5.6-0.68149-3.9407-4.6815 3.8222-4.4889-5.4222-1.0518 0.48889-5.7778-5.4667 2.1482-2.7111-4.9185z"/>
 </g>
</svg>
