<?xml version="1.0" encoding="UTF-8" standalone="no"?>
<!-- Created with Inkscape (http://www.inkscape.org/) -->
<svg id="svg3759" xmlns:rdf="http://www.w3.org/1999/02/22-rdf-syntax-ns#" xmlns="http://www.w3.org/2000/svg" height="48" width="48" version="1.1" xmlns:cc="http://creativecommons.org/ns#" xmlns:xlink="http://www.w3.org/1999/xlink" xmlns:dc="http://purl.org/dc/elements/1.1/">
 <metadata id="metadata37">
  <rdf:RDF>
   <cc:Work rdf:about="">
    <dc:format>image/svg+xml</dc:format>
    <dc:type rdf:resource="http://purl.org/dc/dcmitype/StillImage"/>
    <dc:title/>
   </cc:Work>
  </rdf:RDF>
 </metadata>
 <defs id="defs3761">
  <linearGradient id="linearGradient4140" y2="256" gradientUnits="userSpaceOnUse" x2="827" y1="256" x1="789">
   <stop id="stop4136" style="stop-color:#fff" offset="0"/>
   <stop id="stop4138" style="stop-color:#fff;stop-opacity:0" offset="1"/>
  </linearGradient>
  <clipPath id="clipPath4130" clipPathUnits="userSpaceOnUse">
   <path id="path4132" style="fill:#ba2222" d="m790.44 237c-0.81 0-1.44 0.63-1.44 1.44v35.094c0 0.812 0.62555 1.4688 1.4375 1.4688h35.125c0.81195 0 1.4375-0.65675 1.4375-1.4688v-35.094c0-0.81-0.63-1.44-1.44-1.44h-35.125z"/>
  </clipPath>
  <linearGradient id="linearGradient3877" y2="-808" gradientUnits="userSpaceOnUse" x2="-984.86" gradientTransform="matrix(0 -1 -1 0 -784 -980.36)" y1="-808" x1="-1023.9">
   <stop id="stop3990-5" style="stop-color:#ededed" offset="0"/>
   <stop id="stop3992-0" style="stop-color:#fafafa" offset="1"/>
  </linearGradient>
  <linearGradient id="linearGradient3960">
   <stop id="stop3962" style="stop-opacity:0" offset="0"/>
   <stop id="stop3970" offset=".5"/>
   <stop id="stop3964" style="stop-opacity:0" offset="1"/>
  </linearGradient>
  <linearGradient id="linearGradient3952">
   <stop id="stop3954" offset="0"/>
   <stop id="stop3956" style="stop-opacity:0" offset="1"/>
  </linearGradient>
  <radialGradient id="radialGradient4202" xlink:href="#linearGradient3952" gradientUnits="userSpaceOnUse" cy="43.5" cx="9" gradientTransform="matrix(1.0571 0 0 1.25 -4.4 -10.875)" r="2"/>
  <radialGradient id="radialGradient4205" xlink:href="#linearGradient3952" gradientUnits="userSpaceOnUse" cy="43.5" cx="40" gradientTransform="matrix(1.0571 0 0 1.25 .6 -10.875)" r="2"/>
  <linearGradient id="linearGradient4208" y2="42" xlink:href="#linearGradient3960" gradientUnits="userSpaceOnUse" x2="25" gradientTransform="matrix(1.0571 0 0 1.6667 -5.4 -29)" y1="45" x1="25"/>
  <radialGradient id="radialGradient4211" xlink:href="#linearGradient3952" gradientUnits="userSpaceOnUse" cy="43.5" cx="9" gradientTransform="matrix(1 0 0 .75 -3 10.875)" r="2"/>
  <radialGradient id="radialGradient4214" xlink:href="#linearGradient3952" gradientUnits="userSpaceOnUse" cy="43.5" cx="40" gradientTransform="matrix(1 0 0 .75 2 10.875)" r="2"/>
  <linearGradient id="linearGradient4217" y2="42" xlink:href="#linearGradient3960" gradientUnits="userSpaceOnUse" x2="25" gradientTransform="translate(-4)" y1="45" x1="25"/>
 </defs>
 <g id="layer1">
  <path id="path3987" d="m42.886 41v5h0.52857c0.87849 0 1.5857-1.115 1.5857-2.5s-0.70723-2.5-1.5857-2.5h-0.52857z" style="opacity:0.12;fill:url(#radialGradient4205)"/>
  <path id="rect3940" style="opacity:0.12;fill:url(#radialGradient4214)" d="m42 42v3h0.5c0.831 0 1.5-0.669 1.5-1.5s-0.669-1.5-1.5-1.5h-0.5z"/>
  <path id="path3989" d="m4.4866 41c-0.8236 0-1.4866 1.045-1.4866 2.344v0.3125c0 1.2984 0.66303 2.3438 1.4866 2.3438h0.62768v-5h-0.62768z" style="opacity:0.12;fill:url(#radialGradient4202)"/>
  <path id="rect3942" style="opacity:0.12;fill:url(#radialGradient4211)" d="m5.4062 42c-0.77906 0-1.4062 0.62719-1.4062 1.4062v0.1875c0 0.77906 0.62719 1.4062 1.4062 1.4062h0.59375v-3h-0.59375z"/>
  <path id="rect3985" style="opacity:0.12;fill:url(#linearGradient4208)" d="m5.1141 41h37.772v5h-37.772z"/>
  <path id="rect3938" style="opacity:0.12;fill:url(#linearGradient4217)" d="m5.9999 42h36v3h-36z"/>
  <path id="rect4073" style="fill:url(#linearGradient3877)" d="m6.4375 5c-0.8119 0-1.4375 0.6256-1.4375 1.4375v35.124c0 0.812 0.6256 1.438 1.4375 1.438h35.124c0.812 0 1.438-0.626 1.438-1.438v-35.124c0-0.8124-0.626-1.438-1.438-1.438h-35.124z"/>
  <rect id="rect4085" ry="1.95" style="opacity:.41;stroke:#000;fill:none" rx="1.95" transform="matrix(0,-1,-1,0,0,0)" height="39" width="39" y="-43.5" x="-43.5"/>
  <path id="rect4089-4" style="opacity:.15;fill:#fff" d="m6.4375 5c-0.8119 0-1.4375 0.6256-1.4375 1.4375v1c0-0.8119 0.6256-1.4375 1.4375-1.4375h35.125c0.81195 0 1.4375 0.62555 1.4375 1.4375v-1c0-0.81195-0.62555-1.4375-1.4375-1.4375h-35.125z"/>
  <path id="path4128" style="opacity:.1;stroke:url(#linearGradient4140);stroke-width:2;fill:none" d="m790.44 237c-0.81 0-1.44 0.63-1.44 1.44v35.094c0 0.812 0.62555 1.4688 1.4375 1.4688h35.125c0.81195 0 1.4375-0.65675 1.4375-1.4688v-35.094c0-0.81-0.63-1.44-1.44-1.44h-35.125z" clip-path="url(#clipPath4130)" transform="matrix(0,1,-1,0,280,-784)"/>
  <path id="path4105" style="opacity:.1;fill:#fff" d="m6.4375 43c-0.8119 0-1.4375-0.626-1.4375-1.437v-1c0 0.8119 0.62555 1.4375 1.4375 1.4375h35.125c0.81195 0 1.4375-0.6256 1.4375-1.4375v1c0 0.8119-0.62555 1.4375-1.4375 1.4375h-35.125z"/>
 </g>
 <g id="layer2">
  <text id="context" style="font-size:18px;font-family:DejaVu Sans;enable-background:new;display:none;fill:#000000" xml:space="preserve" y="-85.754883" x="-756.49316"><tspan id="tspan3933" y="-85.754883" x="-756.49316" style="font-family:DejaVu Sans">apps</tspan></text>
  <text id="icon-name" style="font-size:18px;enable-background:new;font-family:DejaVu Sans;line-height:125%;font-weight:bold;display:none;fill:#000000" xml:space="preserve" y="-85.754883" x="-649.01172"><tspan id="tspan3937" y="-85.754883" x="-649.01172" style="font-size:18px;font-family:DejaVu Sans;font-weight:bold">gba</tspan></text>
  <rect id="rect16x16" style="display:none;fill:#eeeeec" height="16" width="16" y="34.5" x="-355.5"/>
  <rect id="rect24x24" style="display:none;fill:#d4d4d4" height="24" width="24" y="-5.5" x="-355.5"/>
  <rect id="rect32x32" style="display:none;fill:#eeeeec" height="32" width="32" y="-53.5" x="-355.5"/>
  <rect id="rect22x22" style="display:none;fill:#eeeeec" height="22" width="22" y="-4.5" x="-354.5"/>
  <rect id="rect48x48" style="display:none;fill:#eeeeec" height="48" width="48" y="114.5" x="-483.5"/>
  <rect id="rect256x256" style="display:none;fill:#eeeeec" height="256" width="256" y="-77.5" x="-755.5"/>
  <rect id="rect64x64" style="display:none;fill:#eeeeec" height="64" width="64" y="34.5" x="-483.5"/>
  <rect id="rect96x96" style="display:none;fill:#eeeeec" height="96" width="96" y="-77.5" x="-483.5"/>
  <g id="g5011" transform="translate(41,-6)">
   <path id="path4240" d="m-19.656 18c-0.739 0-1.344 0.605-1.344 1.344v7.656h-7.656c-0.739 0-1.344 0.605-1.344 1.344v5.3125c0 0.739 0.605 1.344 1.344 1.344h7.656v7.6562c0 0.739 0.605 1.344 1.344 1.344h5.3438c0.738 0 1.312-0.605 1.312-1.344v-7.656h7.6875c0.7387 0 1.3125-0.60507 1.3125-1.3438v-5.3125c0-0.73868-0.5738-1.3438-1.3125-1.3438h-7.6875v-7.656c0-0.739-0.574-1.344-1.312-1.344h-5.3438zm0.656 3h4l-2 4-2-4zm-8 8 4 2-4 2v-4zm10 0c1.1046 0 2 0.8954 2 2s-0.8954 2-2 2-2-0.8954-2-2 0.8954-2 2-2zm10 0v4l-4-2 4-2zm-10 8l2 4h-4l2-4z" style="opacity:.4;color:#000000;fill:#fff"/>
   <path id="path4238" style="color:#000000;fill:#bbb" d="m-19.656 17c-0.739 0-1.344 0.605-1.344 1.344v7.656h-7.656c-0.739 0-1.344 0.605-1.344 1.344v5.3125c0 0.739 0.605 1.344 1.344 1.344h7.656v7.6562c0 0.739 0.605 1.344 1.344 1.344h5.3438c0.738 0 1.312-0.605 1.312-1.344v-7.656h7.6875c0.7387 0 1.3125-0.60507 1.3125-1.3438v-5.3125c0-0.73868-0.5738-1.3438-1.3125-1.3438h-7.6875v-7.656c0-0.739-0.574-1.344-1.312-1.344h-5.3438zm0.656 3h4l-2 4-2-4zm-8 8 4 2-4 2v-4zm10 0c1.1046 0 2 0.8954 2 2s-0.8954 2-2 2-2-0.8954-2-2 0.8954-2 2-2zm10 0v4l-4-2 4-2zm-10 8l2 4h-4l2-4z"/>
   <path id="path4227" d="m-19.656 17c-0.739 0-1.344 0.605-1.344 1.344v1c0-0.739 0.605-1.344 1.344-1.344h5.3438c0.738 0 1.312 0.605 1.312 1.344v-1c0-0.739-0.574-1.344-1.312-1.344h-5.3438zm0.656 4l2 4 2-4h-0.5l-1.5 3-1.5-3h-0.5zm-9.6562 5c-0.739 0-1.344 0.605-1.344 1.344v1c0-0.739 0.605-1.344 1.344-1.344h7.656v-1h-7.6562zm15.656 0v1h7.6875c0.7387 0 1.3125 0.605 1.3125 1.344v-1c0-0.739-0.5738-1.344-1.3125-1.344h-7.6875zm-11 4.5-3 1.5v1l4-2-1-0.5zm5.0625 0c-0.041 0.16-0.062 0.327-0.062 0.5 0 1.1046 0.8954 2 2 2s2-0.8954 2-2c0-0.17259-0.0214-0.34024-0.0625-0.5-0.22196 0.86271-1.0055 1.5-1.9375 1.5s-1.7155-0.63729-1.9375-1.5zm8.9375 0-1 0.5 4 2v-1l-3-1.5zm-8.5 9.5-0.5 1h4l-0.5-1h-3z" style="opacity:.1;color:#000000"/>
  </g>
 </g>
</svg>
