<?xml version="1.0" encoding="UTF-8" standalone="no"?>
<!-- Created with Inkscape (http://www.inkscape.org/) -->
<svg id="svg3759" xmlns:rdf="http://www.w3.org/1999/02/22-rdf-syntax-ns#" xmlns="http://www.w3.org/2000/svg" height="48" width="48" version="1.1" xmlns:cc="http://creativecommons.org/ns#" xmlns:xlink="http://www.w3.org/1999/xlink" xmlns:dc="http://purl.org/dc/elements/1.1/">
 <metadata id="metadata37">
  <rdf:RDF>
   <cc:Work rdf:about="">
    <dc:format>image/svg+xml</dc:format>
    <dc:type rdf:resource="http://purl.org/dc/dcmitype/StillImage"/>
    <dc:title/>
   </cc:Work>
  </rdf:RDF>
 </metadata>
 <defs id="defs3761">
  <linearGradient id="linearGradient3960">
   <stop id="stop3962" style="stop-opacity:0" offset="0"/>
   <stop id="stop3970" offset=".5"/>
   <stop id="stop3964" style="stop-opacity:0" offset="1"/>
  </linearGradient>
  <linearGradient id="linearGradient3952">
   <stop id="stop3954" offset="0"/>
   <stop id="stop3956" style="stop-opacity:0" offset="1"/>
  </linearGradient>
  <linearGradient id="linearGradient3142" y2="40" xlink:href="#linearGradient7742-6" gradientUnits="userSpaceOnUse" x2="144" gradientTransform="matrix(-.18047 0 0 .17949 49.988 -5.7308)" y1="280" x1="144"/>
  <linearGradient id="linearGradient3920" y2="48" gradientUnits="userSpaceOnUse" x2="24" x1="24">
   <stop id="stop3916" style="stop-color:#fff" offset="0"/>
   <stop id="stop3918" style="stop-color:#fff;stop-opacity:0" offset="1"/>
  </linearGradient>
  <radialGradient id="radialGradient3925" xlink:href="#linearGradient3952" gradientUnits="userSpaceOnUse" cy="43.5" cx="9" gradientTransform="matrix(1 0 0 .75 -1 10.875)" r="2"/>
  <radialGradient id="radialGradient3928" xlink:href="#linearGradient3952" gradientUnits="userSpaceOnUse" cy="43.5" cx="40" gradientTransform="matrix(1 0 0 .75 -3e-7 10.875)" r="2"/>
  <linearGradient id="linearGradient3931" y2="42" xlink:href="#linearGradient3960" gradientUnits="userSpaceOnUse" x2="25" gradientTransform="matrix(1.0305 0 0 1 -1.2476 0)" y1="45" x1="25"/>
  <radialGradient id="radialGradient3934" xlink:href="#linearGradient3952" gradientUnits="userSpaceOnUse" cy="43.5" cx="9" gradientTransform="matrix(1.0571 0 0 1.25 -2.4 -10.875)" r="2"/>
  <radialGradient id="radialGradient3937" xlink:href="#linearGradient3952" gradientUnits="userSpaceOnUse" cy="43.5" cx="40" gradientTransform="matrix(1.0571 0 0 1.25 -1.4 -10.875)" r="2"/>
  <linearGradient id="linearGradient3940" y2="42" xlink:href="#linearGradient3960" gradientUnits="userSpaceOnUse" x2="25" gradientTransform="matrix(1.0894 0 0 1.6667 -2.6903 -29)" y1="45" x1="25"/>
  <linearGradient id="linearGradient3816" y2="4" gradientUnits="userSpaceOnUse" x2="24" y1="42" x1="24.5">
   <stop id="stop3812" style="stop-color:#ffe8e8" offset="0"/>
   <stop id="stop3814" style="stop-color:#fff" offset="1"/>
  </linearGradient>
  <linearGradient id="linearGradient7742-6">
   <stop id="stop7744-1" style="stop-color:#ba1818" offset="0"/>
   <stop id="stop7746-9" style="stop-color:#c00" offset="1"/>
  </linearGradient>
  <clipPath id="clipPath5394" clipPathUnits="userSpaceOnUse">
   <path id="path5396" d="m41 3.5h-33v40h33z" style="color:#bebebe;fill:url(#linearGradient5398)"/>
  </clipPath>
  <linearGradient id="linearGradient5398" y2="40" xlink:href="#linearGradient7742-6" gradientUnits="userSpaceOnUse" x2="144" gradientTransform="matrix(-.18047 0 0 .17949 50.488 -5.7308)" y1="280" x1="144"/>
 </defs>
 <g id="layer1">
  <g id="g3942">
   <rect id="rect3985" style="opacity:0.12;fill:url(#linearGradient3940)" height="5" width="33.771" y="41" x="7.1143"/>
   <path id="path3987" style="opacity:0.12;fill:url(#radialGradient3937)" d="m40.886 41v5h0.52857c0.87849 0 1.5857-1.115 1.5857-2.5s-0.70723-2.5-1.5857-2.5h-0.52857z"/>
   <path id="path3989" style="opacity:0.12;fill:url(#radialGradient3934)" d="m6.4866 41c-0.8236 0-1.4866 1.045-1.4866 2.344v0.3125c0 1.2984 0.66303 2.3438 1.4866 2.3438h0.62768v-5h-0.62768z"/>
   <rect id="rect3938" style="opacity:0.12;fill:url(#linearGradient3931)" height="3" width="31.946" y="42" x="8.027"/>
   <path id="rect3940" style="opacity:0.12;fill:url(#radialGradient3928)" d="m40 42v3h0.5c0.831 0 1.5-0.669 1.5-1.5s-0.669-1.5-1.5-1.5h-0.5z"/>
   <path id="rect3942" style="opacity:0.12;fill:url(#radialGradient3925)" d="m7.4062 42c-0.77906 0-1.4062 0.62719-1.4062 1.4062v0.1875c0 0.77906 0.62719 1.4062 1.4062 1.4062h0.59375v-3h-0.59375z"/>
  </g>
  <path id="rect3882" style="color:#bebebe;fill:url(#linearGradient3142)" d="m40.5 3.5h-33v40h33z"/>
  <path id="path3893" style="opacity:.2;fill:url(#linearGradient3920)" d="m40 4h-32v39h32zm-1 1v37h-30v-37z"/>
  <rect id="rect3144" style="opacity:.2;fill:#fff" height="1" width="32" y="4" x="8"/>
  <rect id="rect3922" style="opacity:.1;fill:#fff" height="1" width="32" y="42" x="8"/>
  <path id="path4870" d="m40.5 3.5h-33v40h33z" style="opacity:.61;color:#bebebe;stroke:#450000;fill:none"/>
 </g>
 <g id="layer2">
  <g id="g3830" clip-path="url(#clipPath5394)" transform="translate(-.5)">
   <path id="path3820" style="opacity:.3;color:#bebebe" d="m21.195 1.5172c-1.0609 0-2.053 0.51928-2.293 1.3763-0.89134 3.2857 0.10636 8.3671 1.7699 14.699l-0.50192 1.2258c-1.274 3.105-2.867 6.198-4.267 8.942-5.781 11.311-10.278 17.415-13.277 17.842l-0.010559-0.12417c-0.064923-1.411 2.5388-5.0487 6.068-7.941 0.36808-0.29771 1.939-1.8175 1.939-1.8175s-2.1205 1.1193-2.5968 1.408c-4.4224 2.6397-6.623 5.2846-6.9821 7.0402-0.10645 0.52145-0.037427 1.1631 0.42268 1.4265l1.1307 0.56796c3.0782 1.5409 6.8634-2.5108 11.896-11.33 5.1207-1.6798 11.51-3.2614 17.327-4.1184 5.2073 2.9753 11.18 4.392 13.475 3.7803 0.43664-0.11548 0.89609-0.45826 1.1306-0.77401 0.18404-0.2905 0.44117-1.453 0.44117-1.453s-0.43178 0.5876-0.78724 0.76081c-1.4525 0.68565-6.0382-0.45826-10.744-2.7606 4.0688-0.43304 7.4582-0.44974 9.2698 0.12945 2.3005 0.73436 2.3026 1.4871 2.2719 1.6405 0.03063-0.12629 0.13415-0.63063 0.12152-0.84534-0.05227-0.55212-0.22249-1.0452-0.6393-1.4529-0.85164-0.83902-2.9544-1.2618-5.8197-1.2997-2.1598-0.02352-4.7494 0.1656-7.5606 0.56796-1.2883-0.73977-2.6476-1.553-3.7248-2.5598-2.7318-2.5513-5.0213-6.0936-6.4431-10.065 0.09744-0.38071 0.18994-0.75272 0.27474-1.128 0.39515-1.7773 0.67892-7.653 0.67892-7.653s-1.1255 4.4142-1.3024 5.08c-0.11366 0.42221-0.255 0.87287-0.41739 1.342-0.86246-3.0313-1.2997-5.9689-1.2997-8.1972 0-0.62972 0.05384-1.8551 0.23247-2.824 0.08667-0.69106 0.3372-1.0499 0.59703-1.2231 0.51423 0.12449 1.0899 0.91328 1.6907 2.2322 0.51604 1.1403 0.48343 2.461 0.48343 3.2784 0 0 0.55343-2.024 0.42532-3.2202-0.07768-0.71813-0.76127-2.5656-2.2138-2.544h-0.11887l-0.64722-0.00732zm0.494 18.352c1.503 3.0223 3.5761 5.8923 6.2952 8.1946 0.60625 0.51243 1.2513 0.99994 1.9153 1.4582-4.9384 0.91841-10.125 2.2104-14.944 4.2294 0.87148-1.5481 1.8138-3.2348 2.7791-5.0536 1.8693-3.5347 3.002-6.261 3.9546-8.8286z" clip-path="none" transform="translate(0,1)"/>
   <path id="rect3037" d="m21.195 1.5172c-1.0609 0-2.053 0.51928-2.293 1.3763-0.89134 3.2857 0.10636 8.3671 1.7699 14.699l-0.50192 1.2258c-1.274 3.105-2.867 6.198-4.267 8.942-5.781 11.311-10.278 17.415-13.277 17.842l-0.010559-0.12417c-0.064923-1.411 2.5388-5.0487 6.068-7.941 0.36808-0.29771 1.939-1.8175 1.939-1.8175s-2.1205 1.1193-2.5968 1.408c-4.4224 2.6397-6.623 5.2846-6.9821 7.0402-0.10645 0.52145-0.037427 1.1631 0.42268 1.4265l1.1307 0.56796c3.0782 1.5409 6.8634-2.5108 11.896-11.33 5.1207-1.6798 11.51-3.2614 17.327-4.1184 5.2073 2.9753 11.18 4.392 13.475 3.7803 0.43664-0.11548 0.89609-0.45826 1.1306-0.77401 0.18404-0.2905 0.44117-1.453 0.44117-1.453s-0.43178 0.5876-0.78724 0.76081c-1.4525 0.68565-6.0382-0.45826-10.744-2.7606 4.0688-0.43304 7.4582-0.44974 9.2698 0.12945 2.3005 0.73436 2.3026 1.4871 2.2719 1.6405 0.03063-0.12629 0.13415-0.63063 0.12152-0.84534-0.05227-0.55212-0.22249-1.0452-0.6393-1.4529-0.85164-0.83902-2.9544-1.2618-5.8197-1.2997-2.1598-0.02352-4.7494 0.1656-7.5606 0.56796-1.2883-0.73977-2.6476-1.553-3.7248-2.5598-2.7318-2.5513-5.0213-6.0936-6.4431-10.065 0.09744-0.38071 0.18994-0.75272 0.27474-1.128 0.39515-1.7773 0.67892-7.653 0.67892-7.653s-1.1255 4.4142-1.3024 5.08c-0.11366 0.42221-0.255 0.87287-0.41739 1.342-0.86246-3.0313-1.2997-5.9689-1.2997-8.1972 0-0.62972 0.05384-1.8551 0.23247-2.824 0.08667-0.69106 0.3372-1.0499 0.59703-1.2231 0.51423 0.12449 1.0899 0.91328 1.6907 2.2322 0.51604 1.1403 0.48343 2.461 0.48343 3.2784 0 0 0.55343-2.024 0.42532-3.2202-0.07768-0.71813-0.76127-2.5656-2.2138-2.544h-0.11887l-0.64722-0.00732zm0.494 18.352c1.503 3.0223 3.5761 5.8923 6.2952 8.1946 0.60625 0.51243 1.2513 0.99994 1.9153 1.4582-4.9384 0.91841-10.125 2.2104-14.944 4.2294 0.87148-1.5481 1.8138-3.2348 2.7791-5.0536 1.8693-3.5347 3.002-6.261 3.9546-8.8286z" style="color:#bebebe;fill:url(#linearGradient3816)" clip-path="none"/>
   <path id="path3825" d="m21.188 1.5312c-1.0609 0-2.0413 0.51795-2.2812 1.375-0.26571 0.97946-0.35012 2.1221-0.3125 3.4062 0.02741-0.88152 0.11815-1.6898 0.3125-2.4062 0.22982-0.82079 1.1469-1.302 2.1562-1.3438 0.0025-0.00871-0.0025-0.022691 0-0.03125 0.1192-0.40058 0.30513-0.62008 0.5-0.75 0.28585 0.069203 0.58867 0.35579 0.90625 0.8125 1.0612 0.33514 1.5868 1.7088 1.6875 2.375 0.026-0.3228 0.06-0.635 0.031-0.9061-0.078-0.7181-0.767-2.5529-2.219-2.5313h-0.125-0.65625zm-0.438 4.6876c-0.0067 0.19912 0 0.44793 0 0.59375 0 2.2283 0.41879 5.1875 1.2812 8.2188 0.16239-0.46912 0.32384-0.92154 0.4375-1.3438 0.16611-0.62545 1.0978-4.3068 1.2188-4.7812 0.02295-0.41786 0.0625-1.3125 0.0625-1.3125s-1.1044 4.428-1.2812 5.0938c-0.11366 0.42221-0.27511 0.87463-0.4375 1.3438-0.814-2.862-1.235-5.6365-1.281-7.8132zm2.2188 10.562c-0.04841 0.19845-0.10466 0.3922-0.15625 0.59375 1.4218 3.9713 3.7057 7.5112 6.4375 10.062 1.0772 1.0068 2.4304 1.8227 3.7188 2.5625 2.8111-0.40236 5.4027-0.58602 7.5625-0.5625 2.8653 0.03789 4.9921 0.47348 5.8438 1.3125 0.3126 0.30583 0.47304 0.64054 0.5625 1.0312 0.039-0.202 0.071-0.449 0.063-0.592-0.052-0.553-0.208-1.03-0.625-1.438-0.852-0.839-2.978-1.275-5.844-1.312-2.16-0.024-4.751 0.16-7.562 0.562-1.289-0.74-2.642-1.556-3.719-2.562-2.637-2.464-4.851-5.852-6.281-9.657zm-2.469 1.188-0.344 0.843c-1.2739 3.1053-2.8498 6.1931-4.25 8.9375-5.65 11.054-10.065 17.143-13.062 17.812-0.0821 0.215-0.1893 0.419-0.219 0.594-0.00153 0.009 0.00138 0.02238 0 0.03125 0.24146 0.11718 0.49958 0.16971 0.75 0.21875 2.979-1.2123 7.2039-7.2326 12.531-17.656 1.4002-2.7444 2.9761-5.8322 4.25-8.9375l0.5-1.2188c-0.058-0.219-0.1-0.407-0.156-0.624zm8.312 11.781c-4.372 0.857-8.888 2.003-13.156 3.719-0.217 0.388-0.446 0.846-0.656 1.219 0.183-0.059 0.377-0.13 0.562-0.188 4.649-1.879 9.61-3.088 14.344-3.969-0.363-0.25-0.745-0.514-1.094-0.781zm8.4062 1.375c-0.61701 0.04742-1.2189 0.08642-1.875 0.15625 4.7057 2.3023 9.2975 3.4357 10.75 2.75 0.07642-0.03724 0.14032-0.09066 0.21875-0.15625 0.05267-0.04405 0.07523-0.10692 0.125-0.15625 0.12611-0.19906 0.25525-0.69916 0.34375-1.0625-0.02639-0.04358-0.0534-0.10779-0.09375-0.15625-0.15528 0.18737-0.36005 0.41737-0.59375 0.53125-1.2571 0.59343-4.8774-0.19383-8.875-1.9062zm-26.593 4.594s-2.1174 1.1176-2.5938 1.4062c-4.4224 2.6397-6.6409 5.2756-7 7.0312-0.05968 0.29235-0.057378 0.62617 0.03125 0.90625 0.41255-1.7448 2.6105-4.2958 6.9062-6.875 0.02191-0.01929 0.040503-0.04325 0.0625-0.0625 0.22069-0.1931 0.4273-0.40612 0.65625-0.59375 0.36808-0.29771 1.9375-1.8125 1.9375-1.8125z" style="color:#bebebe;fill:#fff" clip-path="none"/>
  </g>
 </g>
</svg>
