<?xml version="1.0" encoding="UTF-8" standalone="no"?>
<!-- Created with Inkscape (http://www.inkscape.org/) -->
<svg id="svg4045" xmlns:rdf="http://www.w3.org/1999/02/22-rdf-syntax-ns#" xmlns="http://www.w3.org/2000/svg" height="48" width="48" version="1.1" xmlns:cc="http://creativecommons.org/ns#" xmlns:xlink="http://www.w3.org/1999/xlink" xmlns:dc="http://purl.org/dc/elements/1.1/">
 <defs id="defs4047">
  <linearGradient id="linearGradient3319">
   <stop id="stop3321" style="stop-color:#fc9501" offset="0"/>
   <stop id="stop3323" style="stop-color:#6b440d" offset="1"/>
  </linearGradient>
  <linearGradient id="linearGradient2346">
   <stop id="stop2348" style="stop-color:#eee" offset="0"/>
   <stop id="stop2350" style="stop-color:#d9d9da" offset="1"/>
  </linearGradient>
  <radialGradient id="radialGradient3013" gradientUnits="userSpaceOnUse" cy="43.5" cx="4.993" gradientTransform="matrix(2.0038 0 0 1.4 27.988 -17.4)" r="2.5">
   <stop id="stop2883" style="stop-color:#181818" offset="0"/>
   <stop id="stop2885" style="stop-color:#181818;stop-opacity:0" offset="1"/>
  </radialGradient>
  <radialGradient id="radialGradient3015" gradientUnits="userSpaceOnUse" cy="43.5" cx="4.993" gradientTransform="matrix(2.0038 0 0 1.4 -20.012 -104.4)" r="2.5">
   <stop id="stop2889" style="stop-color:#181818" offset="0"/>
   <stop id="stop2891" style="stop-color:#181818;stop-opacity:0" offset="1"/>
  </radialGradient>
  <linearGradient id="linearGradient4043" y2="39.999" gradientUnits="userSpaceOnUse" x2="25.058" y1="47.028" x1="25.058">
   <stop id="stop2895" style="stop-color:#181818;stop-opacity:0" offset="0"/>
   <stop id="stop2897" style="stop-color:#181818" offset=".5"/>
   <stop id="stop2899" style="stop-color:#181818;stop-opacity:0" offset="1"/>
  </linearGradient>
  <radialGradient id="radialGradient3075" gradientUnits="userSpaceOnUse" cy="8.4498" cx="7.4957" gradientTransform="matrix(1.9428e-8 2.4568 -2.4723 -4.5264e-8 46.89 -13.303)" r="20">
   <stop id="stop5430-8" style="stop-color:#5f5f5f" offset="0"/>
   <stop id="stop5432-3" style="stop-color:#4f4f4f" offset=".26238"/>
   <stop id="stop5434-1" style="stop-color:#3b3b3b" offset=".70495"/>
   <stop id="stop5436-8" style="stop-color:#2b2b2b" offset="1"/>
  </radialGradient>
  <linearGradient id="linearGradient3077" y2="3.899" gradientUnits="userSpaceOnUse" x2="24" gradientTransform="matrix(1 0 0 1.0513 2 -.23077)" y1="44" x1="24">
   <stop id="stop5440-4" style="stop-color:#272727" offset="0"/>
   <stop id="stop5442-3" style="stop-color:#454545" offset="1"/>
  </linearGradient>
  <radialGradient id="radialGradient3080" gradientUnits="userSpaceOnUse" cy="6.6476" cx="24.502" gradientTransform="matrix(0 2.7445 -3.1834 0 45.664 -63.071)" r="17.498">
   <stop id="stop8969" style="stop-color:#ffbd5d" offset="0"/>
   <stop id="stop8971" style="stop-color:#d17b01" offset="1"/>
  </radialGradient>
  <linearGradient id="linearGradient3082" y2="61.482" xlink:href="#linearGradient3319" gradientUnits="userSpaceOnUse" x2="32.901" gradientTransform="matrix(.70071 0 0 .73713 2.0789 .87557)" y1="4.6482" x1="32.901"/>
  <linearGradient id="linearGradient3085" y2="3" xlink:href="#linearGradient2346" gradientUnits="userSpaceOnUse" x2="10.654" gradientTransform="translate(0,1)" y1="1" x1="10.654"/>
  <linearGradient id="linearGradient3087" y2="3.899" gradientUnits="userSpaceOnUse" x2="24" gradientTransform="matrix(1 0 0 .10256 2.0003 1.0385)" y1="44" x1="24">
   <stop id="stop5440-4-8" style="stop-color:#272727" offset="0"/>
   <stop id="stop5442-3-8" style="stop-color:#454545" offset="1"/>
  </linearGradient>
  <linearGradient id="linearGradient3090" y2="4.8826" xlink:href="#linearGradient2346" gradientUnits="userSpaceOnUse" x2="24.64" gradientTransform="matrix(1.004 0 0 1.5381 1.2233 -3.04)" y1="3.1234" x1="24.627"/>
  <linearGradient id="linearGradient3092" y2=".065302" xlink:href="#linearGradient3319" gradientUnits="userSpaceOnUse" x2="54.887" gradientTransform="matrix(.71628 0 0 .74716 2.1542 .94835)" y1=".065302" x1="5.2123"/>
  <linearGradient id="linearGradient3993" y2="24.5" gradientUnits="userSpaceOnUse" y1="25" gradientTransform="matrix(0 1 -1 0 46.975 2.123)" x2="42" x1="3">
   <stop id="stop4638" style="stop-color:#fff" offset="0"/>
   <stop id="stop4640" style="stop-color:#fff;stop-opacity:0" offset="1"/>
  </linearGradient>
 </defs>
 <metadata id="metadata4050">
  <rdf:RDF>
   <cc:Work rdf:about="">
    <dc:format>image/svg+xml</dc:format>
    <dc:type rdf:resource="http://purl.org/dc/dcmitype/StillImage"/>
    <dc:title/>
   </cc:Work>
  </rdf:RDF>
 </metadata>
 <g id="g3712" style="opacity:.4" transform="matrix(1.0526 0 0 .57143 -1.2632 20.643)">
  <rect id="rect2801" style="fill:url(#radialGradient3013)" height="7" width="5" y="40" x="38"/>
  <rect id="rect3696" style="fill:url(#radialGradient3015)" transform="scale(-1)" height="7" width="5" y="-47" x="-10"/>
  <rect id="rect3700" style="fill:url(#linearGradient4043)" height="7" width="28" y="40" x="10"/>
 </g>
 <path id="path2723" style="stroke-linejoin:round;stroke:url(#linearGradient3092);stroke-miterlimit:0;stroke-width:1.0174;fill:url(#linearGradient3090)" d="m40.839 4.2172c-0.295-0.9913-0.111-1.7719-0.274-2.7172h-30.24l0.17848 3"/>
 <path id="rect5505-21-3-9" style="stroke-linejoin:round;color:#000000;stroke:url(#linearGradient3087);stroke-linecap:round;fill:url(#linearGradient3085)" d="m11.5 5.5h-4c-0.57085 0-1-0.042333-1-0.09756v-2.7964c0-0.88792 0.55903-1.106 1.2909-1.106h3.7091"/>
 <rect id="rect2719" style="stroke-linejoin:round;stroke:url(#linearGradient3082);stroke-linecap:round;stroke-miterlimit:0;stroke-width:1.019;fill:url(#radialGradient3080)" rx="1" ry="1" height="40.981" width="33.978" y="4.5095" x="7.5129"/>
 <path id="rect5505-21-3" style="stroke-linejoin:round;color:#000000;stroke:url(#linearGradient3077);stroke-linecap:round;fill:url(#radialGradient3075)" d="m11.5 4.5v41h-4c-0.57085 0-1-0.43395-1-1v-40z"/>
 <path id="path4095-2" style="opacity:.2" d="m25.391 12.031c-0.26133 0.0093-0.32827 0.03447-0.35806 0.06349-0.06148 0.05995-0.03256 0.84345-0.03256 13.309 0 10.657-0.0075 13.502 0.03256 13.541 0.0746 0.07276 3.9666 0.05417 3.9666 0.05417v-0.70471-0.57093s0.10552 0.15853 0.23244 0.30084c0.47955 0.53772 1.3818 0.94517 2.009 1.1111 0.37128 0.09822 1.1449 0.07711 1.5624-0.03175 0.93953-0.24499 1.5728-0.84899 1.8228-1.746 0.07192-0.25809 0.09766-0.45702 0.09766-9.1923s-0.02572-9.2974-0.09766-9.5555c-0.26111-0.93689-0.99155-1.6058-1.9856-1.8095-0.44086-0.09037-1.2895-0.05435-1.6275 0.06349-0.59826 0.20856-1.3627 0.61578-1.8137 1.1429-0.14955 0.17478-0.1496 0.31746-0.16795 0.31746-0.01836 0-0.0651-1.0542-0.0651-2.8968 0-3.269 0.01638-3.3225-0.0651-3.3651-0.05378-0.02808-0.85916-0.03175-2.0129-0.03175-0.78649 0-1.236-0.0093-1.4973 0zm4.6806 8.1764c0.49857-0.002 0.82953 0.30554 0.91142 0.92063 0.0554 0.41622 0.05559 13.728 0 14.145-0.0228 0.17131-0.0735 0.41887-0.1302 0.53968-0.37802 0.39317-0.81624 0.25207-1.3604 0.18068-0.29903-0.17045-0.45306-0.37255-0.49998-0.66666l0.0052-7.0653c-0.0081-5.0866-0.02947-7.1166 0.002-7.2615 0.0965-0.44454 0.62626-0.79029 1.072-0.79218z"/>
 <path id="path4095" style="fill:#fff" d="m25.391 11.031c-0.26133 0.0093-0.32827 0.03447-0.35806 0.06349-0.06148 0.05995-0.03256 0.84345-0.03256 13.309 0 10.657-0.0075 13.502 0.03256 13.541 0.075 0.075 3.967 0.056 3.967 0.056v-0.70471-0.57093s0.10552 0.15853 0.23244 0.30084c0.47955 0.53772 1.3818 0.94517 2.009 1.1111 0.37128 0.09822 1.1449 0.07711 1.5624-0.03175 0.93953-0.24499 1.5728-0.84899 1.8228-1.746 0.07192-0.25809 0.09766-0.45702 0.09766-9.1923s-0.02572-9.2974-0.09766-9.5555c-0.26111-0.93689-0.99155-1.6058-1.9856-1.8095-0.44086-0.09037-1.2895-0.05435-1.6275 0.06349-0.59826 0.20856-1.3627 0.61578-1.8137 1.1429-0.14955 0.17478-0.1496 0.31746-0.16795 0.31746-0.01836 0-0.0651-1.0542-0.0651-2.8968 0-3.269 0.01638-3.3225-0.0651-3.3651-0.05378-0.02808-0.85916-0.03175-2.0129-0.03175-0.78649 0-1.236-0.0093-1.4973 0zm4.6806 8.1764c0.49857-0.002 0.82953 0.30554 0.91142 0.92063 0.0554 0.41622 0.05559 13.728 0 14.145-0.0228 0.17131-0.0735 0.41887-0.1302 0.53968-0.37802 0.39317-0.81624 0.25207-1.3604 0.18068-0.29903-0.17045-0.45306-0.37255-0.49998-0.66666l0.0052-7.0653c-0.008-5.087-0.029-7.117 0.002-7.262 0.0965-0.44454 0.62626-0.79029 1.072-0.79218z"/>
 <path id="path4071-2" style="opacity:.2" d="m22.029 12.022c-1.1214 0.000038-1.8177 0.03923-2.2278 0.14248-0.83833 0.21106-1.4949 0.72072-1.7282 1.496-0.065 0.217-0.073 0.477-0.073 2.031v1.3091l-0.99021 0.0075-0.0098 2.9925h1v9.6323c0.006 5.2751 0 9.3677 0 9.3677h4v-9.3477-9.6528h0.50394c0.392-0.009 0.496 0 0.496 0s0.008-0.53099 0-1.5321v-1.4679l-0.45954 0.0075-0.54-0.008v-0.248c-0.01282-0.77239-0.04687-1.2845 0.10219-1.4529 0.12914-0.14584 0.30051-0.25637 0.69392-0.28495l0.3287-0.03563 0.03654-1.4248c0.0081-1.019-0.0014-1.4192-0.03654-1.4604-0.03908-0.04593-0.26575-0.07127-1.0957-0.07124z"/>
 <path id="path4071" style="fill:#fff" d="m22.029 11.022c-1.1214 0.000038-1.8177 0.03923-2.2278 0.14248-0.83833 0.21106-1.4949 0.72072-1.7282 1.496-0.065 0.218-0.073 0.477-0.073 2.031v1.309l-0.99 0.008-0.01 2.992h1v9.6323c0.006 5.275 0 9.368 0 9.368h4v-9.3477-9.6528h0.50394c0.392-0.009 0.496 0 0.496 0s0.008-0.53099 0-1.5321v-1.468l-0.46 0.008-0.54-0.008v-0.248c-0.01282-0.77239-0.04687-1.2845 0.10219-1.4529 0.12914-0.14584 0.30051-0.25637 0.69392-0.28495l0.3287-0.03563 0.03654-1.4248c0.0081-1.019-0.0014-1.4192-0.03654-1.4604-0.03908-0.04593-0.26575-0.07127-1.0957-0.07124z"/>
 <path id="path3893" style="opacity:.2;fill:url(#linearGradient3993)" d="m7 5v40h33 1v-40h-1zm1 1h32v38h-32z"/>
</svg>
