<?xml version="1.0" encoding="UTF-8" standalone="no"?>
<!-- Created with Inkscape (http://www.inkscape.org/) -->
<svg id="svg3759" xmlns:rdf="http://www.w3.org/1999/02/22-rdf-syntax-ns#" xmlns="http://www.w3.org/2000/svg" height="48" width="48" version="1.1" xmlns:cc="http://creativecommons.org/ns#" xmlns:xlink="http://www.w3.org/1999/xlink" xmlns:dc="http://purl.org/dc/elements/1.1/">
 <metadata id="metadata37">
  <rdf:RDF>
   <cc:Work rdf:about="">
    <dc:format>image/svg+xml</dc:format>
    <dc:type rdf:resource="http://purl.org/dc/dcmitype/StillImage"/>
    <dc:title/>
   </cc:Work>
  </rdf:RDF>
 </metadata>
 <defs id="defs3761">
  <linearGradient id="linearGradient4140" y2="256" gradientUnits="userSpaceOnUse" x2="827" y1="256" x1="789">
   <stop id="stop4136" style="stop-color:#fff" offset="0"/>
   <stop id="stop4138" style="stop-color:#fff;stop-opacity:0" offset="1"/>
  </linearGradient>
  <clipPath id="clipPath4130" clipPathUnits="userSpaceOnUse">
   <path id="path4132" style="fill:#ba2222" d="m790.44 237c-0.81 0-1.44 0.63-1.44 1.44v35.094c0 0.812 0.62555 1.4688 1.4375 1.4688h35.125c0.81195 0 1.4375-0.65675 1.4375-1.4688v-35.094c0-0.81-0.63-1.44-1.44-1.44h-35.125z"/>
  </clipPath>
  <linearGradient id="linearGradient3877" y2="-808" gradientUnits="userSpaceOnUse" x2="-984.86" gradientTransform="matrix(0 -1 -1 0 -784 -980.36)" y1="-808" x1="-1023.9">
   <stop id="stop3990-5" style="stop-color:#ededed" offset="0"/>
   <stop id="stop3992-0" style="stop-color:#fafafa" offset="1"/>
  </linearGradient>
  <linearGradient id="linearGradient3960">
   <stop id="stop3962" style="stop-opacity:0" offset="0"/>
   <stop id="stop3970" offset=".5"/>
   <stop id="stop3964" style="stop-opacity:0" offset="1"/>
  </linearGradient>
  <linearGradient id="linearGradient3952">
   <stop id="stop3954" offset="0"/>
   <stop id="stop3956" style="stop-opacity:0" offset="1"/>
  </linearGradient>
  <radialGradient id="radialGradient4202" xlink:href="#linearGradient3952" gradientUnits="userSpaceOnUse" cy="43.5" cx="9" gradientTransform="matrix(1.0571 0 0 1.25 -4.4 -10.875)" r="2"/>
  <radialGradient id="radialGradient4205" xlink:href="#linearGradient3952" gradientUnits="userSpaceOnUse" cy="43.5" cx="40" gradientTransform="matrix(1.0571 0 0 1.25 .6 -10.875)" r="2"/>
  <linearGradient id="linearGradient4208" y2="42" xlink:href="#linearGradient3960" gradientUnits="userSpaceOnUse" x2="25" gradientTransform="matrix(1.0571 0 0 1.6667 -5.4 -29)" y1="45" x1="25"/>
  <radialGradient id="radialGradient4211" xlink:href="#linearGradient3952" gradientUnits="userSpaceOnUse" cy="43.5" cx="9" gradientTransform="matrix(1 0 0 .75 -3 10.875)" r="2"/>
  <radialGradient id="radialGradient4214" xlink:href="#linearGradient3952" gradientUnits="userSpaceOnUse" cy="43.5" cx="40" gradientTransform="matrix(1 0 0 .75 2 10.875)" r="2"/>
  <linearGradient id="linearGradient4217" y2="42" xlink:href="#linearGradient3960" gradientUnits="userSpaceOnUse" x2="25" gradientTransform="translate(-4)" y1="45" x1="25"/>
 </defs>
 <g id="layer1">
  <path id="path3987" d="m42.886 41v5h0.52857c0.87849 0 1.5857-1.115 1.5857-2.5s-0.70723-2.5-1.5857-2.5h-0.52857z" style="opacity:0.12;fill:url(#radialGradient4205)"/>
  <path id="rect3940" style="opacity:0.12;fill:url(#radialGradient4214)" d="m42 42v3h0.5c0.831 0 1.5-0.669 1.5-1.5s-0.669-1.5-1.5-1.5h-0.5z"/>
  <path id="path3989" d="m4.4866 41c-0.8236 0-1.4866 1.045-1.4866 2.344v0.3125c0 1.2984 0.66303 2.3438 1.4866 2.3438h0.62768v-5h-0.62768z" style="opacity:0.12;fill:url(#radialGradient4202)"/>
  <path id="rect3942" style="opacity:0.12;fill:url(#radialGradient4211)" d="m5.4062 42c-0.77906 0-1.4062 0.62719-1.4062 1.4062v0.1875c0 0.77906 0.62719 1.4062 1.4062 1.4062h0.59375v-3h-0.59375z"/>
  <path id="rect3985" style="opacity:0.12;fill:url(#linearGradient4208)" d="m5.1141 41h37.772v5h-37.772z"/>
  <path id="rect3938" style="opacity:0.12;fill:url(#linearGradient4217)" d="m5.9999 42h36v3h-36z"/>
  <path id="rect4073" style="fill:url(#linearGradient3877)" d="m6.4375 5c-0.8119 0-1.4375 0.6256-1.4375 1.4375v35.124c0 0.812 0.6256 1.438 1.4375 1.438h35.124c0.812 0 1.438-0.626 1.438-1.438v-35.124c0-0.8124-0.626-1.438-1.438-1.438h-35.124z"/>
  <rect id="rect4085" ry="1.95" style="opacity:.41;stroke:#000;fill:none" rx="1.95" transform="matrix(0,-1,-1,0,0,0)" height="39" width="39" y="-43.5" x="-43.5"/>
  <path id="rect4089-4" style="opacity:.15;fill:#fff" d="m6.4375 5c-0.8119 0-1.4375 0.6256-1.4375 1.4375v1c0-0.8119 0.6256-1.4375 1.4375-1.4375h35.125c0.81195 0 1.4375 0.62555 1.4375 1.4375v-1c0-0.81195-0.62555-1.4375-1.4375-1.4375h-35.125z"/>
  <path id="path4128" style="opacity:.1;stroke:url(#linearGradient4140);stroke-width:2;fill:none" d="m790.44 237c-0.81 0-1.44 0.63-1.44 1.44v35.094c0 0.812 0.62555 1.4688 1.4375 1.4688h35.125c0.81195 0 1.4375-0.65675 1.4375-1.4688v-35.094c0-0.81-0.63-1.44-1.44-1.44h-35.125z" clip-path="url(#clipPath4130)" transform="matrix(0,1,-1,0,280,-784)"/>
  <path id="path4105" style="opacity:.1;fill:#fff" d="m6.4375 43c-0.8119 0-1.4375-0.626-1.4375-1.437v-1c0 0.8119 0.62555 1.4375 1.4375 1.4375h35.125c0.81195 0 1.4375-0.6256 1.4375-1.4375v1c0 0.8119-0.62555 1.4375-1.4375 1.4375h-35.125z"/>
 </g>
 <g id="layer2">
  <path id="path3898" style="opacity:.4;enable-background:new;fill:#fff" d="m23.594 12c-0.24042 0.02284-0.55561 0.07591-0.8125 0.1875 0 0-0.15526 0.54108-0.28125 1.9062-0.1543 1.6697-0.7997 2.1277-1.2812 2.4688-0.48153 0.34102-0.63209 0.41793-0.8125 0.5-0.94352 0.15839-1.8039 0.25899-3.0938-0.8125-1.0543-0.87595-1.5-1.1562-1.5-1.1562-0.52043 0.2044-0.96875 0.75-0.96875 0.75s-0.57604 0.44721-0.78125 0.96875c0 0 0.31157 0.47701 1.1875 1.5312 1.0715 1.2898 0.97057 2.1193 0.8125 3.0625-0.0817 0.17993-0.19025 0.33077-0.53125 0.8125-0.34098 0.48171-0.76785 1.1267-2.4375 1.2812-1.365 0.12626-1.875 0.28125-1.875 0.28125-0.224 0.515-0.219 1.219-0.219 1.219s-0.0041 0.70502 0.21875 1.2188c0 0 0.50985 0.15582 1.875 0.28125 1.6696 0.15449 2.0962 0.79976 2.4375 1.2812 0.3413 0.48147 0.44955 0.63233 0.53125 0.8125 0.15876 0.9435 0.25894 1.804-0.8125 3.0938-0.87593 1.0545-1.1875 1.5-1.1875 1.5 0.20596 0.5215 0.78125 1 0.78125 1s0.44738 0.54495 0.96875 0.75c0 0 0.44576-0.27972 1.5-1.1562 1.2899-1.0714 2.1504-0.96998 3.0938-0.8125 0.18048 0.08189 0.33064 0.15905 0.8125 0.5 0.48188 0.34089 1.1267 0.76791 1.2812 2.4375 0.12608 1.365 0.28125 1.875 0.28125 1.875 0.51449 0.22291 1.2188 0.21875 1.2188 0.21875s0.70523 0.0041 1.2188-0.21875c0 0 0.15564-0.50959 0.28125-1.875 0.15449-1.6696 0.78433-2.1007 1.5625-2.6562v-0.0625c0.1842-0.06889 0.35097-0.13705 0.53125-0.21875 0.94345-0.15876 1.7726-0.25899 3.0625 0.8125 1.0543 0.87595 1.5312 1.1562 1.5312 1.1562 0.5216-0.20616 0.96875-0.75 0.96875-0.75s0.5449-0.47857 0.75-1c0 0-0.27954-0.44572-1.1562-1.5-1.0715-1.2898-0.9702-2.1506-0.8125-3.0938 0.08189-0.18048 0.18111-0.31578 0.25-0.5h0.0625c0.55491-0.77923 0.98658-1.4392 2.6562-1.5938 1.3651-0.12608 1.9062-0.28125 1.9062-0.28125 0.224-0.515 0.188-1.219 0.188-1.219s0.03569-0.70475-0.1875-1.2188c0 0-0.54101-0.15545-1.9062-0.28125-1.6698-0.1543-2.1007-0.78366-2.6562-1.5625-0.06889-0.1842-0.23021-0.35112-0.3125-0.53125-0.15839-0.94315-0.25901-1.7726 0.8125-3.0625 0.87595-1.0543 1.1562-1.5312 1.1562-1.5312-0.20581-0.52138-0.75-0.96875-0.75-0.96875s-0.44734-0.5449-0.96875-0.75c0 0-0.4766 0.27974-1.5312 1.1562-1.2898 1.0716-2.0673 0.97035-3.2188 0.46875-1.1515-0.50158-1.7831-0.9552-1.9375-2.625-0.12626-1.365-0.28125-1.9062-0.28125-1.9062-0.51438-0.2236-1.2188-0.1875-1.2188-0.1875s-0.16588-0.02284-0.40625 0zm0.40625 7c3.3137 0 6 2.6863 6 6s-2.6863 6-6 6-6-2.6863-6-6 2.6863-6 6-6z"/>
  <path id="path3-8-5-9" style="enable-background:new;fill:#bbb" d="m23.594 11c-0.241 0.023-0.556 0.076-0.813 0.188 0 0-0.155 0.541-0.281 1.906-0.154 1.669-0.8 2.127-1.281 2.468-0.482 0.342-0.632 0.418-0.813 0.5-0.943 0.159-1.804 0.259-3.094-0.812-1.054-0.876-1.5-1.156-1.5-1.156-0.52 0.204-0.968 0.75-0.968 0.75s-0.576 0.447-0.782 0.968c0 0 0.312 0.478 1.188 1.532 1.072 1.29 0.971 2.119 0.812 3.062-0.081 0.18-0.19 0.331-0.531 0.813-0.341 0.481-0.768 1.126-2.437 1.281-1.365 0.126-1.875 0.281-1.875 0.281-0.224 0.515-0.219 1.219-0.219 1.219s-0.004 0.705 0.219 1.219c0 0 0.51 0.156 1.875 0.281 1.669 0.154 2.096 0.8 2.437 1.281 0.342 0.482 0.45 0.633 0.531 0.813 0.159 0.943 0.259 1.804-0.812 3.094-0.876 1.054-1.188 1.5-1.188 1.5 0.206 0.521 0.782 1 0.782 1s0.447 0.544 0.968 0.75c0 0 0.446-0.28 1.5-1.157 1.29-1.071 2.151-0.97 3.094-0.812 0.181 0.082 0.331 0.159 0.813 0.5s1.126 0.768 1.281 2.437c0.126 1.365 0.281 1.875 0.281 1.875 0.515 0.223 1.219 0.219 1.219 0.219s0.705 0.004 1.219-0.219c0 0 0.155-0.509 0.281-1.875 0.154-1.669 0.784-2.1 1.562-2.656v-0.062c0.185-0.069 0.351-0.138 0.532-0.219 0.943-0.159 1.772-0.259 3.062 0.812 1.055 0.876 1.532 1.157 1.532 1.157 0.521-0.207 0.968-0.75 0.968-0.75s0.545-0.479 0.75-1c0 0-0.279-0.446-1.156-1.5-1.072-1.29-0.97-2.151-0.812-3.094 0.081-0.181 0.181-0.316 0.25-0.5h0.062c0.555-0.779 0.987-1.439 2.656-1.594 1.365-0.126 1.906-0.281 1.906-0.281 0.224-0.515 0.188-1.219 0.188-1.219s0.036-0.705-0.188-1.219c0 0-0.541-0.155-1.906-0.281-1.67-0.154-2.1-0.784-2.656-1.562-0.069-0.185-0.23-0.352-0.312-0.532-0.159-0.943-0.26-1.772 0.812-3.062 0.876-1.055 1.156-1.532 1.156-1.532-0.206-0.521-0.75-0.968-0.75-0.968s-0.447-0.545-0.968-0.75c0 0-0.477 0.279-1.532 1.156-1.29 1.072-2.067 0.97-3.218 0.469-1.152-0.502-1.784-0.955-1.938-2.625-0.126-1.365-0.281-1.906-0.281-1.906-0.515-0.224-1.219-0.188-1.219-0.188s-0.166-0.023-0.406 0zm0.406 7c3.314 0 6 2.686 6 6s-2.686 6-6 6-6-2.686-6-6 2.686-6 6-6z"/>
  <path id="path3900" style="opacity:.1;enable-background:new" d="m23.594 11c-0.241 0.023-0.556 0.076-0.813 0.188 0 0-0.155 0.541-0.281 1.906-0.154 1.669-0.8 2.127-1.281 2.468-0.482 0.342-0.632 0.418-0.813 0.5-0.943 0.159-1.804 0.259-3.094-0.812-1.054-0.876-1.5-1.156-1.5-1.156-0.52 0.204-0.968 0.75-0.968 0.75s-0.576 0.447-0.782 0.968c0 0 0.119 0.17 0.344 0.469 0.219-0.258 0.438-0.437 0.438-0.437s0.448-0.546 0.968-0.75c0 0 0.446 0.28 1.5 1.156 1.29 1.071 2.151 0.971 3.094 0.812 0.181-0.082 0.331-0.158 0.813-0.5 0.481-0.341 1.127-0.799 1.281-2.468 0.126-1.365 0.281-1.906 0.281-1.906 0.257-0.112 0.572-0.165 0.813-0.188 0.24-0.023 0.406 0 0.406 0s0.704-0.036 1.219 0.188c0 0 0.155 0.541 0.281 1.906 0.154 1.67 0.786 2.123 1.938 2.625 1.151 0.501 1.928 0.603 3.218-0.469 1.055-0.877 1.532-1.156 1.532-1.156 0.521 0.205 0.968 0.75 0.968 0.75s0.226 0.175 0.438 0.437c0.211-0.292 0.312-0.469 0.312-0.469-0.206-0.521-0.75-0.968-0.75-0.968s-0.447-0.545-0.968-0.75c0 0-0.477 0.279-1.532 1.156-1.29 1.072-2.067 0.97-3.218 0.469-1.152-0.502-1.784-0.955-1.938-2.625-0.126-1.365-0.281-1.906-0.281-1.906-0.515-0.224-1.219-0.188-1.219-0.188s-0.166-0.023-0.406 0zm-7.469 9c-0.017 0.137-0.039 0.267-0.063 0.406-0.081 0.18-0.19 0.331-0.531 0.813-0.341 0.481-0.768 1.126-2.437 1.281-1.365 0.126-1.875 0.281-1.875 0.281-0.224 0.515-0.219 1.219-0.219 1.219s-0.006 0.218 0.031 0.5c0.03-0.225 0.089-0.49 0.188-0.719 0 0 0.51-0.155 1.875-0.281 1.669-0.155 2.096-0.8 2.437-1.281 0.341-0.482 0.45-0.633 0.531-0.813 0.08-0.471 0.152-0.92 0.063-1.406zm15.75 0c-0.089 0.486-0.017 0.935 0.063 1.406 0.082 0.18 0.243 0.347 0.312 0.532 0.556 0.778 0.986 1.408 2.656 1.562 1.365 0.126 1.906 0.281 1.906 0.281 0.1 0.228 0.165 0.494 0.188 0.719 0.029-0.282 0-0.5 0-0.5s0.036-0.705-0.188-1.219c0 0-0.541-0.155-1.906-0.281-1.67-0.154-2.1-0.784-2.656-1.562-0.069-0.185-0.23-0.352-0.312-0.532-0.024-0.139-0.046-0.269-0.063-0.406zm-13.844 4.625c-0.007 0.123-0.031 0.251-0.031 0.375 0 3.314 2.686 6 6 6s6-2.686 6-6c0-0.124-0.024-0.252-0.031-0.375-0.308 3.026-2.862 5.375-5.969 5.375s-5.661-2.349-5.969-5.375zm-1.906 4.406c-0.093 0.487-0.35 1.024-0.875 1.657-0.876 1.054-1.188 1.5-1.188 1.5 0.081 0.203 0.208 0.397 0.344 0.562 0.144-0.194 0.223-0.315 0.844-1.062 0.901-1.085 0.969-1.875 0.875-2.657zm15.75 0c-0.094 0.782-0.026 1.572 0.875 2.657 0.392 0.471 0.631 0.788 0.812 1.031 0.128-0.162 0.266-0.333 0.344-0.531 0 0-0.279-0.446-1.156-1.5-0.525-0.633-0.782-1.17-0.875-1.657z"/>
 </g>
</svg>
