<?xml version="1.0" encoding="UTF-8" standalone="no"?>
<!-- Created with Inkscape (http://www.inkscape.org/) -->
<svg id="svg4045" xmlns:rdf="http://www.w3.org/1999/02/22-rdf-syntax-ns#" xmlns="http://www.w3.org/2000/svg" height="48" width="48" version="1.1" xmlns:cc="http://creativecommons.org/ns#" xmlns:xlink="http://www.w3.org/1999/xlink" xmlns:dc="http://purl.org/dc/elements/1.1/">
 <defs id="defs4047">
  <linearGradient id="linearGradient3319">
   <stop id="stop3321" style="stop-color:#fc9501" offset="0"/>
   <stop id="stop3323" style="stop-color:#6b440d" offset="1"/>
  </linearGradient>
  <linearGradient id="linearGradient2346">
   <stop id="stop2348" style="stop-color:#eee" offset="0"/>
   <stop id="stop2350" style="stop-color:#d9d9da" offset="1"/>
  </linearGradient>
  <radialGradient id="radialGradient3013" gradientUnits="userSpaceOnUse" cy="43.5" cx="4.993" gradientTransform="matrix(2.0038 0 0 1.4 27.988 -17.4)" r="2.5">
   <stop id="stop2883" style="stop-color:#181818" offset="0"/>
   <stop id="stop2885" style="stop-color:#181818;stop-opacity:0" offset="1"/>
  </radialGradient>
  <radialGradient id="radialGradient3015" gradientUnits="userSpaceOnUse" cy="43.5" cx="4.993" gradientTransform="matrix(2.0038 0 0 1.4 -20.012 -104.4)" r="2.5">
   <stop id="stop2889" style="stop-color:#181818" offset="0"/>
   <stop id="stop2891" style="stop-color:#181818;stop-opacity:0" offset="1"/>
  </radialGradient>
  <linearGradient id="linearGradient4043" y2="39.999" gradientUnits="userSpaceOnUse" x2="25.058" y1="47.028" x1="25.058">
   <stop id="stop2895" style="stop-color:#181818;stop-opacity:0" offset="0"/>
   <stop id="stop2897" style="stop-color:#181818" offset=".5"/>
   <stop id="stop2899" style="stop-color:#181818;stop-opacity:0" offset="1"/>
  </linearGradient>
  <radialGradient id="radialGradient3075" gradientUnits="userSpaceOnUse" cy="8.4498" cx="7.4957" gradientTransform="matrix(1.9428e-8 2.4568 -2.4723 -4.5264e-8 46.89 -13.303)" r="20">
   <stop id="stop5430-8" style="stop-color:#5f5f5f" offset="0"/>
   <stop id="stop5432-3" style="stop-color:#4f4f4f" offset=".26238"/>
   <stop id="stop5434-1" style="stop-color:#3b3b3b" offset=".70495"/>
   <stop id="stop5436-8" style="stop-color:#2b2b2b" offset="1"/>
  </radialGradient>
  <linearGradient id="linearGradient3077" y2="3.899" gradientUnits="userSpaceOnUse" x2="24" gradientTransform="matrix(1 0 0 1.0513 2 -.23077)" y1="44" x1="24">
   <stop id="stop5440-4" style="stop-color:#272727" offset="0"/>
   <stop id="stop5442-3" style="stop-color:#454545" offset="1"/>
  </linearGradient>
  <radialGradient id="radialGradient3080" gradientUnits="userSpaceOnUse" cy="6.6476" cx="24.502" gradientTransform="matrix(0 2.7445 -3.1834 0 45.664 -63.071)" r="17.498">
   <stop id="stop8969" style="stop-color:#ffbd5d" offset="0"/>
   <stop id="stop8971" style="stop-color:#d17b01" offset="1"/>
  </radialGradient>
  <linearGradient id="linearGradient3082" y2="61.482" xlink:href="#linearGradient3319" gradientUnits="userSpaceOnUse" x2="32.901" gradientTransform="matrix(.70071 0 0 .73713 2.0789 .87557)" y1="4.6482" x1="32.901"/>
  <linearGradient id="linearGradient3085" y2="3" xlink:href="#linearGradient2346" gradientUnits="userSpaceOnUse" x2="10.654" gradientTransform="translate(0,1)" y1="1" x1="10.654"/>
  <linearGradient id="linearGradient3087" y2="3.899" gradientUnits="userSpaceOnUse" x2="24" gradientTransform="matrix(1 0 0 .10256 2.0003 1.0385)" y1="44" x1="24">
   <stop id="stop5440-4-8" style="stop-color:#272727" offset="0"/>
   <stop id="stop5442-3-8" style="stop-color:#454545" offset="1"/>
  </linearGradient>
  <linearGradient id="linearGradient3090" y2="4.8826" xlink:href="#linearGradient2346" gradientUnits="userSpaceOnUse" x2="24.64" gradientTransform="matrix(1.004 0 0 1.5381 1.2233 -3.04)" y1="3.1234" x1="24.627"/>
  <linearGradient id="linearGradient3092" y2=".065302" xlink:href="#linearGradient3319" gradientUnits="userSpaceOnUse" x2="54.887" gradientTransform="matrix(.71628 0 0 .74716 2.1542 .94835)" y1=".065302" x1="5.2123"/>
  <linearGradient id="linearGradient3993" y2="24.5" gradientUnits="userSpaceOnUse" y1="25" gradientTransform="matrix(0 1 -1 0 46.975 2.123)" x2="42" x1="3">
   <stop id="stop4638" style="stop-color:#fff" offset="0"/>
   <stop id="stop4640" style="stop-color:#fff;stop-opacity:0" offset="1"/>
  </linearGradient>
 </defs>
 <metadata id="metadata4050">
  <rdf:RDF>
   <cc:Work rdf:about="">
    <dc:format>image/svg+xml</dc:format>
    <dc:type rdf:resource="http://purl.org/dc/dcmitype/StillImage"/>
    <dc:title/>
   </cc:Work>
  </rdf:RDF>
 </metadata>
 <g id="g3712" style="opacity:.4" transform="matrix(1.0526 0 0 .57143 -1.2632 20.643)">
  <rect id="rect2801" style="fill:url(#radialGradient3013)" height="7" width="5" y="40" x="38"/>
  <rect id="rect3696" style="fill:url(#radialGradient3015)" transform="scale(-1)" height="7" width="5" y="-47" x="-10"/>
  <rect id="rect3700" style="fill:url(#linearGradient4043)" height="7" width="28" y="40" x="10"/>
 </g>
 <path id="path2723" style="stroke-linejoin:round;stroke:url(#linearGradient3092);stroke-miterlimit:0;stroke-width:1.0174;fill:url(#linearGradient3090)" d="m40.839 4.2172c-0.295-0.9913-0.111-1.7719-0.274-2.7172h-30.24l0.17848 3"/>
 <path id="rect5505-21-3-9" style="stroke-linejoin:round;color:#000000;stroke:url(#linearGradient3087);stroke-linecap:round;fill:url(#linearGradient3085)" d="m11.5 5.5h-4c-0.57085 0-1-0.042333-1-0.09756v-2.7964c0-0.88792 0.55903-1.106 1.2909-1.106h3.7091"/>
 <rect id="rect2719" style="stroke-linejoin:round;stroke:url(#linearGradient3082);stroke-linecap:round;stroke-miterlimit:0;stroke-width:1.019;fill:url(#radialGradient3080)" rx="1" ry="1" height="40.981" width="33.978" y="4.5095" x="7.5129"/>
 <path id="rect5505-21-3" style="stroke-linejoin:round;color:#000000;stroke:url(#linearGradient3077);stroke-linecap:round;fill:url(#radialGradient3075)" d="m11.5 4.5v41h-4c-0.57085 0-1-0.43395-1-1v-40z"/>
 <path id="path3893" style="opacity:.2;fill:url(#linearGradient3993)" d="m7 5v40h33 1v-40h-1zm1 1h32v38h-32z"/>
 <g id="g4458" style="opacity:.2" transform="matrix(.037182 0 0 .037182 16.421 16.643)">
  <path id="path4462" style="fill-rule:evenodd" d="m293.6 233.97c0 26.322 0.627 48.264-12.651 71.65-10.724 19.022-27.791 30.698-46.749 30.698-25.905 0-41.069-19.73-41.069-48.979 0-57.525 51.607-67.983 100.47-67.983v14.614zm68.105 164.68c-4.48 4.005-10.934 4.283-15.971 1.567-22.446-18.64-26.462-27.263-38.718-45.009-37.07 37.767-63.335 49.094-111.36 49.094-56.871 0-101.09-35.085-101.09-105.27 0-54.833 29.688-92.112 72.023-110.39 36.647-16.086 87.836-19.004 127.01-23.397v-8.774c0-16.074 1.253-35.091-8.218-48.979-8.217-12.43-24.013-17.542-37.905-17.542-25.76 0-48.67 13.196-54.288 40.552-1.178 6.094-5.612 12.11-11.745 12.425l-65.459-7.092c-5.524-1.241-11.676-5.682-10.074-14.119 15.04-79.423 86.77-103.42 151.04-103.42 32.857 0 75.823 8.774 101.73 33.63 32.857 30.71 29.7 71.65 29.7 116.25v105.22c0 31.65 13.138 45.543 25.487 62.615 4.317 6.128 5.292 13.44-0.209 17.92-13.8 11.571-38.324 32.869-51.811 44.87l-0.138-0.151zm92.56 18.722c-62.721 26.602-130.88 39.461-192.88 39.461-91.933 0-180.92-25.209-252.88-67.096-6.302-3.668-10.968 2.797-5.733 7.532 66.702 60.236 154.84 96.425 252.73 96.425 69.846 0 150.95-21.971 206.9-63.254 9.249-6.847 1.323-17.084-8.136-13.068zm16.701 50.278c-2.043 5.106 2.345 7.172 6.964 3.296 30.014-25.116 37.767-77.716 31.615-85.317-6.093-7.532-58.565-14.021-90.599 8.461-4.921 3.481-4.062 8.24 1.394 7.59 18.036-2.17 58.182-6.986 65.343 2.183 7.149 9.168-7.962 46.911-14.717 63.787z"/>
 </g>
 <g id="7935ec95c421cee6d86eb22ecd1149e3" style="fill:#fff" transform="matrix(.037182 0 0 .037182 16.421 15.644)">
  <path id="path3436" style="fill:#fff;fill-rule:evenodd" d="m293.6 233.97c0 26.322 0.627 48.264-12.651 71.65-10.724 19.022-27.791 30.698-46.749 30.698-25.905 0-41.069-19.73-41.069-48.979 0-57.525 51.607-67.983 100.47-67.983v14.614zm68.105 164.68c-4.48 4.005-10.934 4.283-15.971 1.567-22.446-18.64-26.462-27.263-38.718-45.009-37.07 37.767-63.335 49.094-111.36 49.094-56.871 0-101.09-35.085-101.09-105.27 0-54.833 29.688-92.112 72.023-110.39 36.647-16.086 87.836-19.004 127.01-23.397v-8.774c0-16.074 1.253-35.091-8.218-48.979-8.217-12.43-24.013-17.542-37.905-17.542-25.76 0-48.67 13.196-54.288 40.552-1.178 6.094-5.612 12.11-11.745 12.425l-65.459-7.092c-5.524-1.241-11.676-5.682-10.074-14.119 15.04-79.423 86.77-103.42 151.04-103.42 32.857 0 75.823 8.774 101.73 33.63 32.857 30.71 29.7 71.65 29.7 116.25v105.22c0 31.65 13.138 45.543 25.487 62.615 4.317 6.128 5.292 13.44-0.209 17.92-13.8 11.571-38.324 32.869-51.811 44.87l-0.138-0.151zm92.56 18.722c-62.721 26.602-130.88 39.461-192.88 39.461-91.933 0-180.92-25.209-252.88-67.096-6.302-3.668-10.968 2.797-5.733 7.532 66.702 60.236 154.84 96.425 252.73 96.425 69.846 0 150.95-21.971 206.9-63.254 9.249-6.847 1.323-17.084-8.136-13.068zm16.701 50.278c-2.043 5.106 2.345 7.172 6.964 3.296 30.014-25.116 37.767-77.716 31.615-85.317-6.093-7.532-58.565-14.021-90.599 8.461-4.921 3.481-4.062 8.24 1.394 7.59 18.036-2.17 58.182-6.986 65.343 2.183 7.149 9.168-7.962 46.911-14.717 63.787z"/>
 </g>
</svg>
