<?xml version="1.0" encoding="UTF-8" standalone="no"?>
<!-- Created with Inkscape (http://www.inkscape.org/) -->
<svg id="svg3759" xmlns:rdf="http://www.w3.org/1999/02/22-rdf-syntax-ns#" xmlns="http://www.w3.org/2000/svg" height="48" width="48" version="1.1" xmlns:cc="http://creativecommons.org/ns#" xmlns:xlink="http://www.w3.org/1999/xlink" xmlns:dc="http://purl.org/dc/elements/1.1/">
 <metadata id="metadata37">
  <rdf:RDF>
   <cc:Work rdf:about="">
    <dc:format>image/svg+xml</dc:format>
    <dc:type rdf:resource="http://purl.org/dc/dcmitype/StillImage"/>
    <dc:title/>
   </cc:Work>
  </rdf:RDF>
 </metadata>
 <defs id="defs3761">
  <linearGradient id="linearGradient4140" y2="256" gradientUnits="userSpaceOnUse" x2="827" y1="256" x1="789">
   <stop id="stop4136" style="stop-color:#fff" offset="0"/>
   <stop id="stop4138" style="stop-color:#fff;stop-opacity:0" offset="1"/>
  </linearGradient>
  <clipPath id="clipPath4130" clipPathUnits="userSpaceOnUse">
   <path id="path4132" style="fill:#ba2222" d="m790.44 237c-0.81 0-1.44 0.63-1.44 1.44v35.094c0 0.812 0.62555 1.4688 1.4375 1.4688h35.125c0.81195 0 1.4375-0.65675 1.4375-1.4688v-35.094c0-0.81-0.63-1.44-1.44-1.44h-35.125z"/>
  </clipPath>
  <linearGradient id="linearGradient3877" y2="-808" gradientUnits="userSpaceOnUse" x2="-984.86" gradientTransform="matrix(0 -1 -1 0 -784 -980.36)" y1="-808" x1="-1023.9">
   <stop id="stop3990-5" style="stop-color:#ededed" offset="0"/>
   <stop id="stop3992-0" style="stop-color:#fafafa" offset="1"/>
  </linearGradient>
  <linearGradient id="linearGradient3960">
   <stop id="stop3962" style="stop-opacity:0" offset="0"/>
   <stop id="stop3970" offset=".5"/>
   <stop id="stop3964" style="stop-opacity:0" offset="1"/>
  </linearGradient>
  <linearGradient id="linearGradient3952">
   <stop id="stop3954" offset="0"/>
   <stop id="stop3956" style="stop-opacity:0" offset="1"/>
  </linearGradient>
  <radialGradient id="radialGradient4202" xlink:href="#linearGradient3952" gradientUnits="userSpaceOnUse" cy="43.5" cx="9" gradientTransform="matrix(1.0571 0 0 1.25 -4.4 -10.875)" r="2"/>
  <radialGradient id="radialGradient4205" xlink:href="#linearGradient3952" gradientUnits="userSpaceOnUse" cy="43.5" cx="40" gradientTransform="matrix(1.0571 0 0 1.25 .6 -10.875)" r="2"/>
  <linearGradient id="linearGradient4208" y2="42" xlink:href="#linearGradient3960" gradientUnits="userSpaceOnUse" x2="25" gradientTransform="matrix(1.0571 0 0 1.6667 -5.4 -29)" y1="45" x1="25"/>
  <radialGradient id="radialGradient4211" xlink:href="#linearGradient3952" gradientUnits="userSpaceOnUse" cy="43.5" cx="9" gradientTransform="matrix(1 0 0 .75 -3 10.875)" r="2"/>
  <radialGradient id="radialGradient4214" xlink:href="#linearGradient3952" gradientUnits="userSpaceOnUse" cy="43.5" cx="40" gradientTransform="matrix(1 0 0 .75 2 10.875)" r="2"/>
  <linearGradient id="linearGradient4217" y2="42" xlink:href="#linearGradient3960" gradientUnits="userSpaceOnUse" x2="25" gradientTransform="translate(-4)" y1="45" x1="25"/>
 </defs>
 <g id="layer1">
  <path id="path3987" d="m42.886 41v5h0.52857c0.87849 0 1.5857-1.115 1.5857-2.5s-0.70723-2.5-1.5857-2.5h-0.52857z" style="opacity:0.12;fill:url(#radialGradient4205)"/>
  <path id="rect3940" style="opacity:0.12;fill:url(#radialGradient4214)" d="m42 42v3h0.5c0.831 0 1.5-0.669 1.5-1.5s-0.669-1.5-1.5-1.5h-0.5z"/>
  <path id="path3989" d="m4.4866 41c-0.8236 0-1.4866 1.045-1.4866 2.344v0.3125c0 1.2984 0.66303 2.3438 1.4866 2.3438h0.62768v-5h-0.62768z" style="opacity:0.12;fill:url(#radialGradient4202)"/>
  <path id="rect3942" style="opacity:0.12;fill:url(#radialGradient4211)" d="m5.4062 42c-0.77906 0-1.4062 0.62719-1.4062 1.4062v0.1875c0 0.77906 0.62719 1.4062 1.4062 1.4062h0.59375v-3h-0.59375z"/>
  <path id="rect3985" style="opacity:0.12;fill:url(#linearGradient4208)" d="m5.1141 41h37.772v5h-37.772z"/>
  <path id="rect3938" style="opacity:0.12;fill:url(#linearGradient4217)" d="m5.9999 42h36v3h-36z"/>
  <path id="rect4073" style="fill:url(#linearGradient3877)" d="m6.4375 5c-0.8119 0-1.4375 0.6256-1.4375 1.4375v35.124c0 0.812 0.6256 1.438 1.4375 1.438h35.124c0.812 0 1.438-0.626 1.438-1.438v-35.124c0-0.8124-0.626-1.438-1.438-1.438h-35.124z"/>
  <rect id="rect4085" ry="1.95" style="opacity:.41;stroke:#000;fill:none" rx="1.95" transform="matrix(0,-1,-1,0,0,0)" height="39" width="39" y="-43.5" x="-43.5"/>
  <path id="rect4089-4" style="opacity:.15;fill:#fff" d="m6.4375 5c-0.8119 0-1.4375 0.6256-1.4375 1.4375v1c0-0.8119 0.6256-1.4375 1.4375-1.4375h35.125c0.81195 0 1.4375 0.62555 1.4375 1.4375v-1c0-0.81195-0.62555-1.4375-1.4375-1.4375h-35.125z"/>
  <path id="path4128" style="opacity:.1;stroke:url(#linearGradient4140);stroke-width:2;fill:none" d="m790.44 237c-0.81 0-1.44 0.63-1.44 1.44v35.094c0 0.812 0.62555 1.4688 1.4375 1.4688h35.125c0.81195 0 1.4375-0.65675 1.4375-1.4688v-35.094c0-0.81-0.63-1.44-1.44-1.44h-35.125z" clip-path="url(#clipPath4130)" transform="matrix(0,1,-1,0,280,-784)"/>
  <path id="path4105" style="opacity:.1;fill:#fff" d="m6.4375 43c-0.8119 0-1.4375-0.626-1.4375-1.437v-1c0 0.8119 0.62555 1.4375 1.4375 1.4375h35.125c0.81195 0 1.4375-0.6256 1.4375-1.4375v1c0 0.8119-0.62555 1.4375-1.4375 1.4375h-35.125z"/>
 </g>
 <g id="layer2">
  <text id="context" style="font-size:18px;font-family:DejaVu Sans;enable-background:new;display:none;fill:#000000" xml:space="preserve" y="-144.75488" x="-758.49316"><tspan id="tspan3933" y="-144.75488" x="-758.49316" style="font-family:DejaVu Sans">apps</tspan></text>
  <text id="icon-name" style="font-size:18px;enable-background:new;font-family:DejaVu Sans;line-height:125%;font-weight:bold;display:none;fill:#000000" xml:space="preserve" y="-144.75488" x="-651.01172"><tspan id="tspan3937" y="-144.75488" x="-651.01172" style="font-size:18px;font-family:DejaVu Sans;font-weight:bold">zsnes</tspan></text>
  <rect id="rect16x16" style="display:none;fill:#eeeeec" height="16" width="16" y="-24.5" x="-357.5"/>
  <rect id="rect24x24" style="display:none;fill:#d4d4d4" height="24" width="24" y="-64.5" x="-357.5"/>
  <rect id="rect32x32" style="display:none;fill:#eeeeec" height="32" width="32" y="-112.5" x="-357.5"/>
  <rect id="rect22x22" style="display:none;fill:#eeeeec" height="22" width="22" y="-63.5" x="-356.5"/>
  <rect id="rect48x48" style="display:none;fill:#eeeeec" height="48" width="48" y="55.5" x="-485.5"/>
  <rect id="rect256x256" style="display:none;fill:#eeeeec" height="256" width="256" y="-136.5" x="-757.5"/>
  <rect id="rect64x64" style="display:none;fill:#eeeeec" height="64" width="64" y="-24.5" x="-485.5"/>
  <rect id="rect96x96" style="display:none;fill:#eeeeec" height="96" width="96" y="-136.5" x="-485.5"/>
  <g id="g4996" transform="translate(54.5)">
   <path id="path4221" style="opacity:.4;enable-background:new;fill:#fff" d="m-32.375 15.375c-2.4655 0.24812-4.4076 2.3171-4.4375 4.8438 0.06361-0.0037 0.1503 0 0.21875 0 2.7172 0 4.9062 2.2146 4.9062 4.9375v0.0625l0.25-0.03125 0.25-0.03125 0.21875-0.03125 0.25-0.0625 0.219-0.062 0.21875-0.0625 0.21875-0.09375 0.21875-0.0625 0.21875-0.125 0.21875-0.09375 0.1875-0.125 0.1875-0.125 0.1875-0.15625 0.1875-0.125 0.15625-0.15625 0.15625-0.15625 0.15625-0.1875 0.15625-0.1875 0.15625-0.1875 0.125-0.1875 0.125-0.1875 0.09375-0.1875 0.125-0.21875 0.09375-0.21875 0.0625-0.21875 0.09375-0.21875 0.0625-0.21875 0.03125-0.25 0.0625-0.21875 0.03125-0.25v-0.25l0.03125-0.25c0-2.7177-2.2196-4.9062-4.9375-4.9062-0.16873 0-0.33564-0.01654-0.5 0zm10.094 5.0938c-2.6259 0-4.7813 2.1276-4.8125 4.75 0.0624-0.0037 0.12334 0 0.1875 0 2.6432 0 4.8125 2.1329 4.8125 4.7812v0.0625h0.21875l0.25-0.03125 0.21875-0.03125 0.25-0.0625 0.21875-0.0625 0.21875-0.0625 0.21875-0.09375 0.1875-0.0625 0.21875-0.125 0.1875-0.09375 0.1875-0.125 0.1875-0.125 0.1875-0.125 0.1875-0.15625 0.156-0.156 0.15625-0.15625 0.15625-0.15625 0.15625-0.15625 0.125-0.1875 0.125-0.1875 0.125-0.1875 0.09375-0.1875 0.125-0.21875 0.09375-0.21875 0.0625-0.21875 0.0625-0.1875 0.0625-0.25 0.0625-0.21875 0.032-0.219 0.03125-0.25 0.03125-0.21875v-0.25c0-2.6484-2.1311-4.8125-4.7812-4.8125zm-16.031 3.281l-0.28125 0.03125h-0.25-0.25l-0.28125 0.03125-0.25 0.03125-0.21875 0.03125-0.25 0.0625-0.25 0.03125-0.21875 0.0625-0.21875 0.0625-0.21875 0.0625-0.21875 0.0625-0.1875 0.0625-0.21875 0.09375-0.1875 0.0625-0.15625 0.09375-0.1875 0.09375-0.15625 0.09375-0.15625 0.09375-0.15625 0.125-0.125 0.09375-0.125 0.09375-0.125 0.125-0.09375 0.125-0.09375 0.125-0.09375 0.09375-0.0625 0.125-0.0625 0.15625-0.03125 0.125-0.03125 0.125-0.03125 0.125v0.125c0 1.455 2.3242 2.625 5.1875 2.625 2.8675 0 5.1875-1.17 5.1875-2.625 0-1.4498-2.3193-2.625-5.1875-2.625zm9.2812 4.75-0.25 0.03125-0.28125 0.03125-0.28125 0.03125-0.25 0.03125-0.25 0.03125-0.25 0.0625-0.25 0.03125-0.21875 0.0625-0.21875 0.09375-0.21875 0.0625-0.21875 0.0625-0.21875 0.09375-0.1875 0.09375-0.1875 0.09375-0.1875 0.09375-0.15625 0.09375-0.1875 0.09375-0.125 0.125-0.15625 0.09375-0.125 0.125-0.125 0.125-0.125 0.125-0.09375 0.125-0.0625 0.125-0.09375 0.125-0.0625 0.125-0.03125 0.15625-0.03125 0.125-0.03125 0.15625v0.125c0 1.523 2.4273 2.75 5.4375 2.75 3.01 0 5.47-1.228 5.47-2.75 0-1.5239-2.4601-2.75-5.4688-2.75h-0.28125-0.28125z"/>
   <path id="path4212" d="m-32.375 14.375c-2.4655 0.24812-4.4076 2.3171-4.4375 4.8438 0.06361-0.0037 0.1503 0 0.21875 0 2.7172 0 4.9062 2.2146 4.9062 4.9375v0.0625l0.25-0.03125 0.25-0.03125 0.21875-0.03125 0.25-0.0625 0.219-0.062 0.21875-0.0625 0.21875-0.09375 0.21875-0.0625 0.21875-0.125 0.21875-0.09375 0.1875-0.125 0.1875-0.125 0.1875-0.15625 0.1875-0.125 0.15625-0.15625 0.15625-0.15625 0.15625-0.1875 0.15625-0.1875 0.15625-0.1875 0.125-0.1875 0.125-0.1875 0.09375-0.1875 0.125-0.21875 0.09375-0.21875 0.0625-0.21875 0.09375-0.21875 0.0625-0.21875 0.03125-0.25 0.0625-0.21875 0.03125-0.25v-0.25l0.03125-0.25c0-2.7177-2.2196-4.9062-4.9375-4.9062-0.16873 0-0.33564-0.01654-0.5 0zm10.094 5.0938c-2.6259 0-4.7813 2.1276-4.8125 4.75 0.0624-0.0037 0.12334 0 0.1875 0 2.6432 0 4.8125 2.1329 4.8125 4.7812v0.0625h0.21875l0.25-0.03125 0.21875-0.03125 0.25-0.0625 0.21875-0.0625 0.21875-0.0625 0.21875-0.09375 0.1875-0.0625 0.21875-0.125 0.1875-0.09375 0.1875-0.125 0.1875-0.125 0.1875-0.125 0.1875-0.15625 0.156-0.156 0.15625-0.15625 0.15625-0.15625 0.15625-0.15625 0.125-0.1875 0.125-0.1875 0.125-0.1875 0.09375-0.1875 0.125-0.21875 0.09375-0.21875 0.0625-0.21875 0.0625-0.1875 0.0625-0.25 0.0625-0.21875 0.032-0.219 0.03125-0.25 0.03125-0.21875v-0.25c0-2.6484-2.1311-4.8125-4.7812-4.8125zm-16.031 3.281l-0.28125 0.03125h-0.25-0.25l-0.28125 0.03125-0.25 0.03125-0.21875 0.03125-0.25 0.0625-0.25 0.03125-0.21875 0.0625-0.21875 0.0625-0.21875 0.0625-0.21875 0.0625-0.1875 0.0625-0.21875 0.09375-0.1875 0.0625-0.15625 0.09375-0.1875 0.09375-0.15625 0.09375-0.15625 0.09375-0.15625 0.125-0.125 0.09375-0.125 0.09375-0.125 0.125-0.09375 0.125-0.09375 0.125-0.09375 0.09375-0.0625 0.125-0.0625 0.15625-0.03125 0.125-0.03125 0.125-0.03125 0.125v0.125c0 1.455 2.3242 2.625 5.1875 2.625 2.8675 0 5.1875-1.17 5.1875-2.625 0-1.4498-2.3193-2.625-5.1875-2.625zm9.2812 4.75-0.25 0.03125-0.28125 0.03125-0.28125 0.03125-0.25 0.03125-0.25 0.03125-0.25 0.0625-0.25 0.03125-0.21875 0.0625-0.21875 0.09375-0.21875 0.0625-0.21875 0.0625-0.21875 0.09375-0.1875 0.09375-0.1875 0.09375-0.1875 0.09375-0.15625 0.09375-0.1875 0.09375-0.125 0.125-0.15625 0.09375-0.125 0.125-0.125 0.125-0.125 0.125-0.09375 0.125-0.0625 0.125-0.09375 0.125-0.0625 0.125-0.03125 0.15625-0.03125 0.125-0.03125 0.15625v0.125c0 1.523 2.4273 2.75 5.4375 2.75 3.01 0 5.47-1.228 5.47-2.75 0-1.5239-2.4601-2.75-5.4688-2.75h-0.28125-0.28125z" style="enable-background:new;fill:#bbb"/>
   <path id="path4223" d="m-32.375 14.375c-2.4655 0.24812-4.4076 2.3171-4.4375 4.8438 0.03635-0.0021 0.08129-0.000647 0.125 0 0.45-2.058 2.1793-3.6291 4.3125-3.8438 0.16436-0.01654 0.33127 0 0.5 0 2.548 0 4.6524 1.9265 4.9062 4.4062v-0.25l0.03125-0.25c0-2.7177-2.2196-4.9062-4.9375-4.9062-0.16873 0-0.33564-0.01654-0.5 0zm10.094 5.0938c-2.6259 0-4.7813 2.1276-4.8125 4.75 0.0312-0.0019 0.06269-0.000463 0.09375 0 0.48043-2.1494 2.4315-3.75 4.7188-3.75 2.5009 0 4.5283 1.9322 4.75 4.375v-0.09375l0.03125-0.21875v-0.25c0-2.6484-2.1311-4.8125-4.7812-4.8125zm-16.031 3.281l-0.28125 0.03125h-0.25-0.25l-0.28125 0.03125-0.25 0.03125-0.21875 0.03125-0.25 0.0625-0.25 0.03125-0.21875 0.0625-0.21875 0.0625-0.21875 0.0625-0.21875 0.0625-0.1875 0.0625-0.21875 0.09375-0.1875 0.0625-0.15625 0.09375-0.1875 0.09375-0.15625 0.09375-0.15625 0.09375-0.15625 0.125-0.125 0.09375-0.125 0.09375-0.125 0.125-0.09375 0.125-0.09375 0.125-0.09375 0.09375-0.0625 0.125-0.0625 0.15625-0.03125 0.125-0.03125 0.125-0.03125 0.125v0.125c0 0.17117 0.03232 0.33816 0.09375 0.5l0.0625-0.15625 0.0625-0.125 0.093-0.094 0.094-0.125 0.094-0.125 0.125-0.125 0.125-0.09375 0.125-0.09375 0.15625-0.125 0.15625-0.09375 0.15625-0.09375 0.1875-0.09375 0.15625-0.09375 0.1875-0.0625 0.21875-0.09375 0.1875-0.0625 0.21875-0.0625 0.21875-0.0625 0.21875-0.0625 0.21875-0.0625 0.25-0.03125 0.25-0.0625 0.21875-0.03125 0.25-0.03125 0.28125-0.03125h0.25 0.25l0.28125-0.03125c2.5097 0 4.6106 0.89757 5.0938 2.0938 0.05407-0.15235 0.09375-0.30828 0.09375-0.46875 0-1.4498-2.3193-2.625-5.1875-2.625zm9.2812 4.75-0.25 0.03125-0.28125 0.03125-0.28125 0.03125-0.25 0.03125-0.25 0.03125-0.25 0.0625-0.25 0.03125-0.21875 0.0625-0.21875 0.09375-0.21875 0.0625-0.21875 0.0625-0.21875 0.09375-0.1875 0.09375-0.1875 0.09375-0.1875 0.09375-0.15625 0.09375-0.1875 0.09375-0.125 0.125-0.15625 0.09375-0.125 0.125-0.125 0.125-0.125 0.125-0.09375 0.125-0.0625 0.125-0.09375 0.125-0.0625 0.125-0.03125 0.15625-0.03125 0.125-0.03125 0.15625v0.125c0 0.14913 0.04894 0.29492 0.09375 0.4375l0.0625-0.125 0.09375-0.125 0.0625-0.125 0.09375-0.125 0.125-0.125 0.125-0.125 0.125-0.125 0.15625-0.09375 0.125-0.125 0.1875-0.09375 0.15625-0.09375 0.1875-0.09375 0.1875-0.09375 0.1875-0.09375 0.21875-0.09375 0.21875-0.0625 0.21875-0.0625 0.21875-0.09375 0.21875-0.0625 0.25-0.03125 0.25-0.0625 0.25-0.03125 0.25-0.03125 0.28125-0.03125 0.28125-0.03125 0.25-0.03125h0.28125 0.28125c2.6765 0 4.9124 0.96294 5.375 2.25 0.058-0.16 0.094-0.332 0.094-0.5 0-1.5239-2.4601-2.75-5.4688-2.75h-0.28125-0.28125z" style="opacity:.1;enable-background:new"/>
  </g>
 </g>
</svg>
