<?xml version="1.0" encoding="UTF-8" standalone="no"?>
<!-- Created with Inkscape (http://www.inkscape.org/) -->
<svg id="svg3759" xmlns:rdf="http://www.w3.org/1999/02/22-rdf-syntax-ns#" xmlns="http://www.w3.org/2000/svg" height="48" width="48" version="1.1" xmlns:cc="http://creativecommons.org/ns#" xmlns:xlink="http://www.w3.org/1999/xlink" xmlns:dc="http://purl.org/dc/elements/1.1/">
 <metadata id="metadata37">
  <rdf:RDF>
   <cc:Work rdf:about="">
    <dc:format>image/svg+xml</dc:format>
    <dc:type rdf:resource="http://purl.org/dc/dcmitype/StillImage"/>
    <dc:title/>
   </cc:Work>
  </rdf:RDF>
 </metadata>
 <defs id="defs3761">
  <linearGradient id="linearGradient3960">
   <stop id="stop3962" style="stop-opacity:0" offset="0"/>
   <stop id="stop3970" offset=".5"/>
   <stop id="stop3964" style="stop-opacity:0" offset="1"/>
  </linearGradient>
  <linearGradient id="linearGradient3952">
   <stop id="stop3954" offset="0"/>
   <stop id="stop3956" style="stop-opacity:0" offset="1"/>
  </linearGradient>
  <linearGradient id="linearGradient3402" y2="-808" gradientUnits="userSpaceOnUse" y1="-808" gradientTransform="translate(975.86 788.5)" x2="-984.86" x1="-1023.9">
   <stop id="stop3864-8-6-9" style="stop-color:#ddd" offset="0"/>
   <stop id="stop3866-9-1-5" style="stop-color:#f2f2f2" offset="1"/>
  </linearGradient>
  <linearGradient id="linearGradient3909" y2="42" xlink:href="#linearGradient3960" gradientUnits="userSpaceOnUse" x2="25" gradientTransform="matrix(.90476 0 0 1 -1.3333 0)" y1="45" x1="25"/>
  <linearGradient id="linearGradient3912" y2="42" xlink:href="#linearGradient3960" gradientUnits="userSpaceOnUse" x2="25" gradientTransform="matrix(.95646 0 0 1.6667 -2.6 -29)" y1="45" x1="25"/>
  <radialGradient id="radialGradient3915" xlink:href="#linearGradient3952" gradientUnits="userSpaceOnUse" cy="43.5" cx="9" gradientTransform="matrix(.90476 0 0 .75 -.42857 10.875)" r="2"/>
  <radialGradient id="radialGradient3918" xlink:href="#linearGradient3952" gradientUnits="userSpaceOnUse" cy="43.5" cx="9" gradientTransform="matrix(.95646 0 0 1.25 -1.6952 -10.875)" r="2"/>
  <radialGradient id="radialGradient3921" xlink:href="#linearGradient3952" gradientUnits="userSpaceOnUse" cy="43.5" cx="40" gradientTransform="matrix(.90476 0 0 .75 4.0952 10.875)" r="2"/>
  <radialGradient id="radialGradient3924" xlink:href="#linearGradient3952" gradientUnits="userSpaceOnUse" cy="43.5" cx="40" gradientTransform="matrix(.95646 0 0 1.25 2.8286 -10.875)" r="2"/>
  <linearGradient id="linearGradient3954" y2="44" gradientUnits="userSpaceOnUse" x2="24" y1="3.875" x1="24.125">
   <stop id="stop3950" style="stop-color:#fff" offset="0"/>
   <stop id="stop3952" style="stop-color:#fff;stop-opacity:0" offset="1"/>
  </linearGradient>
  <linearGradient id="linearGradient3967" y2="40" gradientUnits="userSpaceOnUse" x2="24" gradientTransform="matrix(1 0 0 -1 0 48.844)" y1="8" x1="24">
   <stop id="stop3864-8-6-3" style="stop-color:#717171" offset="0"/>
   <stop id="stop3866-9-1-2" style="stop-color:#848484" offset="1"/>
  </linearGradient>
 </defs>
 <g id="layer1">
  <g id="g3926">
   <path id="path3987" style="opacity:0.12;fill:url(#radialGradient3924)" d="m41.087 41v5h0.47823c0.79482 0 1.4347-1.115 1.4347-2.5s-0.63987-2.5-1.4347-2.5h-0.47823z"/>
   <path id="rect3940" d="m40.286 42v3h0.45238c0.75186 0 1.3571-0.669 1.3571-1.5s-0.60529-1.5-1.3571-1.5h-0.45238z" style="opacity:0.12;fill:url(#radialGradient3921)"/>
   <path id="path3989" style="opacity:0.12;fill:url(#radialGradient3918)" d="m6.345 41c-0.7451 0-1.345 1.045-1.345 2.344v0.3125c0 1.2984 0.59988 2.3438 1.345 2.3438h0.5679v-5h-0.5679z"/>
   <path id="rect3942" d="m7.1771 42c-0.70487 0-1.2723 0.62719-1.2723 1.4062v0.1875c0 0.779 0.5674 1.406 1.2723 1.406h0.5372v-3h-0.5372z" style="opacity:0.12;fill:url(#radialGradient3915)"/>
   <path id="rect3985" d="m6.9128 41h34.174v5h-34.174z" style="opacity:0.12;fill:url(#linearGradient3912)"/>
   <path id="rect3938" d="m7.7142 42h32.572v3h-32.572z" style="opacity:0.12;fill:url(#linearGradient3909)"/>
  </g>
  <path id="rect4616" style="fill:url(#linearGradient3402)" d="m-41.55-41.5h35.1c1.0803 0 1.95 0.87 1.95 1.95v31.1c0 1.0803-0.8697 1.95-1.95 1.95h-35.1c-1.08 0-1.95-0.8697-1.95-1.95v-31.1c0-1.0803 0.8697-1.95 1.95-1.95z" transform="matrix(0,-1,-1,0,0,0)"/>
  <path id="rect4085" style="opacity:0.41;stroke:#000;fill:none" d="m-41.55-41.5h35.1c1.0803 0 1.95 0.87 1.95 1.95v31.1c0 1.0803-0.8697 1.95-1.95 1.95h-35.1c-1.08 0-1.95-0.8697-1.95-1.95v-31.1c0-1.0803 0.8697-1.95 1.95-1.95z" transform="matrix(0,-1,-1,0,0,0)"/>
  <path id="rect4089-4" style="opacity:.3;fill:#fff" d="m8.4375 5c-0.8119 0-1.4375 0.6256-1.4375 1.4375v1c0-0.8119 0.6256-1.4375 1.4375-1.4375h31.125c0.81195 0 1.4375 0.62555 1.4375 1.4375v-1c0-0.81195-0.62555-1.4375-1.4375-1.4375z"/>
  <path id="path4105" style="opacity:.1;fill:#fff" d="m8.4375 43c-0.8119 0-1.4375-0.626-1.4375-1.437v-1c0 0.8119 0.62555 1.4375 1.4375 1.4375h31.125c0.81195 0 1.4375-0.6256 1.4375-1.4375v1c0 0.8119-0.62555 1.4375-1.4375 1.4375z"/>
  <path id="path3934" style="opacity:.6;fill:url(#linearGradient3954)" d="m8.4375 5c-0.8119 0-1.4375 0.6256-1.4375 1.4375v35.124c0 0.812 0.6256 1.438 1.4375 1.438h31.124c0.812 0 1.438-0.626 1.438-1.438v-35.124c0-0.8124-0.626-1.438-1.438-1.438h-31.124zm-0.1563 1h31.438c0.156 0 0.281 0.0976 0.281 0.2188v35.562c0 0.121-0.125 0.219-0.281 0.219h-31.438c-0.1556 0-0.281-0.098-0.281-0.219v-35.562c0-0.1214 0.1254-0.219 0.2812-0.219z"/>
 </g>
 <g id="layer2">
  <path id="path3956" style="opacity:.5;color:#bebebe;fill:#fff" d="m34 16.344-13 2.0312v1l13-2.0312v-1zm1 14.156c0 2.491-2.009 4.5-4.5 4.5-2.319 0-4.186-1.75-4.438-4-0.018 0.167-0.062 0.328-0.062 0.5 0 2.4912 2.0088 4.5 4.5 4.5s4.5-2.0088 4.5-4.5v-1zm-14 2c0 2.491-2.009 4.5-4.5 4.5-2.319 0-4.186-1.75-4.438-4-0.018 0.167-0.062 0.328-0.062 0.5 0 2.4912 2.0088 4.5 4.5 4.5s4.5-2.0088 4.5-4.5v-1z"/>
  <path id="path5637" style="opacity:.8;color:#bebebe;fill:url(#linearGradient3967)" d="m35 11.844-15 2.3438v14.344 1l-0.8125-0.59375c-0.763-0.581-1.665-0.938-2.688-0.938-2.491 0-4.5 2.009-4.5 4.5 0 2.4912 2.0088 4.5 4.5 4.5s4.5-2.0088 4.5-4.5v-14.125l13-2.0312v10.188 1l-0.8125-0.59375c-0.763-0.581-1.665-0.938-2.688-0.938-2.491 0-4.5 2.009-4.5 4.5 0 2.4912 2.0088 4.5 4.5 4.5s4.5-2.0088 4.5-4.5z"/>
 </g>
</svg>
