<?xml version="1.0" encoding="UTF-8" standalone="no"?>
<!-- Created with Inkscape (http://www.inkscape.org/) -->
<svg id="svg3759" xmlns:rdf="http://www.w3.org/1999/02/22-rdf-syntax-ns#" xmlns="http://www.w3.org/2000/svg" height="48" width="48" version="1.1" xmlns:cc="http://creativecommons.org/ns#" xmlns:xlink="http://www.w3.org/1999/xlink" xmlns:dc="http://purl.org/dc/elements/1.1/">
 <metadata id="metadata37">
  <rdf:RDF>
   <cc:Work rdf:about="">
    <dc:format>image/svg+xml</dc:format>
    <dc:type rdf:resource="http://purl.org/dc/dcmitype/StillImage"/>
    <dc:title/>
   </cc:Work>
  </rdf:RDF>
 </metadata>
 <defs id="defs3761">
  <linearGradient id="linearGradient3960">
   <stop id="stop3962" style="stop-opacity:0" offset="0"/>
   <stop id="stop3970" offset=".5"/>
   <stop id="stop3964" style="stop-opacity:0" offset="1"/>
  </linearGradient>
  <linearGradient id="linearGradient3952">
   <stop id="stop3954" offset="0"/>
   <stop id="stop3956" style="stop-opacity:0" offset="1"/>
  </linearGradient>
  <linearGradient id="linearGradient3142" y2="40" gradientUnits="userSpaceOnUse" x2="144" gradientTransform="matrix(-.18047 0 0 .17949 49.988 -5.7308)" y1="280" x1="144">
   <stop id="stop7744" style="stop-color:#ffa622" offset="0"/>
   <stop id="stop7746" style="stop-color:#ffbd52" offset="1"/>
  </linearGradient>
  <linearGradient id="linearGradient3920" y2="48" gradientUnits="userSpaceOnUse" x2="24" x1="24">
   <stop id="stop3916" style="stop-color:#fff" offset="0"/>
   <stop id="stop3918" style="stop-color:#fff;stop-opacity:0" offset="1"/>
  </linearGradient>
  <radialGradient id="radialGradient3925" xlink:href="#linearGradient3952" gradientUnits="userSpaceOnUse" cy="43.5" cx="9" gradientTransform="matrix(1 0 0 .75 -1 10.875)" r="2"/>
  <radialGradient id="radialGradient3928" xlink:href="#linearGradient3952" gradientUnits="userSpaceOnUse" cy="43.5" cx="40" gradientTransform="matrix(1 0 0 .75 -3e-7 10.875)" r="2"/>
  <linearGradient id="linearGradient3931" y2="42" xlink:href="#linearGradient3960" gradientUnits="userSpaceOnUse" x2="25" gradientTransform="matrix(1.0305 0 0 1 -1.2476 0)" y1="45" x1="25"/>
  <radialGradient id="radialGradient3934" xlink:href="#linearGradient3952" gradientUnits="userSpaceOnUse" cy="43.5" cx="9" gradientTransform="matrix(1.0571 0 0 1.25 -2.4 -10.875)" r="2"/>
  <radialGradient id="radialGradient3937" xlink:href="#linearGradient3952" gradientUnits="userSpaceOnUse" cy="43.5" cx="40" gradientTransform="matrix(1.0571 0 0 1.25 -1.4 -10.875)" r="2"/>
  <linearGradient id="linearGradient3940" y2="42" xlink:href="#linearGradient3960" gradientUnits="userSpaceOnUse" x2="25" gradientTransform="matrix(1.0894 0 0 1.6667 -2.6903 -29)" y1="45" x1="25"/>
 </defs>
 <g id="layer1">
  <g id="g3942">
   <rect id="rect3985" style="opacity:0.12;fill:url(#linearGradient3940)" height="5" width="33.771" y="41" x="7.1143"/>
   <path id="path3987" style="opacity:0.12;fill:url(#radialGradient3937)" d="m40.886 41v5h0.52857c0.87849 0 1.5857-1.115 1.5857-2.5s-0.70723-2.5-1.5857-2.5h-0.52857z"/>
   <path id="path3989" style="opacity:0.12;fill:url(#radialGradient3934)" d="m6.4866 41c-0.8236 0-1.4866 1.045-1.4866 2.344v0.3125c0 1.2984 0.66303 2.3438 1.4866 2.3438h0.62768v-5h-0.62768z"/>
   <rect id="rect3938" style="opacity:0.12;fill:url(#linearGradient3931)" height="3" width="31.946" y="42" x="8.027"/>
   <path id="rect3940" style="opacity:0.12;fill:url(#radialGradient3928)" d="m40 42v3h0.5c0.831 0 1.5-0.669 1.5-1.5s-0.669-1.5-1.5-1.5h-0.5z"/>
   <path id="rect3942" style="opacity:0.12;fill:url(#radialGradient3925)" d="m7.4062 42c-0.77906 0-1.4062 0.62719-1.4062 1.4062v0.1875c0 0.77906 0.62719 1.4062 1.4062 1.4062h0.59375v-3h-0.59375z"/>
  </g>
  <path id="rect3882" style="color:#bebebe;fill:url(#linearGradient3142)" d="m40.5 3.5h-33v40h33z"/>
  <path id="path3893" style="opacity:.2;fill:url(#linearGradient3920)" d="m40 4h-32v39h32zm-1 1v37h-30v-37z"/>
  <rect id="rect3144" style="opacity:.2;fill:#fff" height="1" width="32" y="4" x="8"/>
  <rect id="rect3922" style="opacity:.1;fill:#fff" height="1" width="32" y="42" x="8"/>
  <path id="path4870" d="m40.5 3.5h-33v40h33z" style="opacity:.61;color:#bebebe;stroke:#7a4002;fill:none"/>
 </g>
 <g id="layer2">
  <path id="path4746" style="opacity:.2" d="m31.55 15.054c-1.2346 0.12699-1.9266 1.2225-1.5625 2.4375 0.12699 0.42596 0.64439 0.95141 1.0312 1.0625 0.39897 0.11499 1.1239 0.11569 1.4688 0 0.72794-0.24398 1.1848-0.87567 1.1875-1.625 0.004-1.2486-0.85682-2.006-2.125-1.875zm-13.125 1.1562-0.0625 0.84375c-0.05 0.93291 0.0917 0.4189-2.2188 8.3438-0.60794 2.0814-1.312 4.3994-1.5312 5.1562-0.21898 0.7569-0.52251 1.8496-0.6875 2.4062-0.14188 0.47902-0.21142 0.85892-0.21875 1h3.3125c0.0617-0.11013 0.26441-0.79189 0.5-1.6562 0.24397-0.8989 0.50076-1.8994 0.59375-2.2188l0.1875-0.59375h2.4688 2.4688l0.6875 2.2188c0.35751 1.1834 0.65621 2.1388 0.71875 2.25h3.625c-0.007-0.10173-0.24968-0.91746-0.53125-1.8438-0.28597-0.9409-1.2626-4.1476-2.1562-7.1562-0.89392-3.0089-1.8474-6.2263-2.125-7.125l-0.5-1.625h-2.2812-2.25zm2.3125 3.1562c0.01-0.01 0.11176 0.34954 0.21875 0.8125 0.10699 0.463 0.45428 1.8398 0.78125 3.0625 0.32697 1.2228 0.65375 2.4396 0.71875 2.7188l0.125 0.53125h-1.7812c-1.0721 0-1.75-0.04375-1.75-0.09375s0.30528-1.2474 0.65625-2.6563c0.34997-1.409 0.71051-2.942 0.8125-3.4375 0.10199-0.496 0.20475-0.92251 0.21875-0.9375zm9.2812 1.0625-0.0312 6.75c-0.01 3.6794 0.008 6.6681 0.0312 6.7812h3.4688c0.0638-0.21634 0.0817-2.0876 0.0625-6.8125v-6.7188h-1.7812-1.75z"/>
  <path id="path7752" style="fill:#fff" d="m31.55 14.054c-1.2346 0.12699-1.9266 1.2225-1.5625 2.4375 0.12699 0.42596 0.64439 0.95141 1.0312 1.0625 0.39897 0.11499 1.1239 0.11569 1.4688 0 0.72794-0.24398 1.1848-0.87567 1.1875-1.625 0.004-1.2486-0.85682-2.006-2.125-1.875zm-13.125 1.1562-0.0625 0.84375c-0.05 0.93291 0.0917 0.4189-2.2188 8.3438-0.60794 2.0814-1.312 4.3994-1.5312 5.1562-0.21898 0.7569-0.52251 1.8496-0.6875 2.4062-0.14188 0.47902-0.21142 0.85892-0.21875 1h3.3125c0.0617-0.11013 0.26441-0.79189 0.5-1.6562 0.24397-0.8989 0.50076-1.8994 0.59375-2.2188l0.1875-0.59375h2.4688 2.4688l0.6875 2.2188c0.35751 1.1834 0.65621 2.1388 0.71875 2.25h3.625c-0.007-0.10173-0.24968-0.91746-0.53125-1.8438-0.28597-0.9409-1.2626-4.1476-2.1562-7.1563-0.89392-3.0089-1.8474-6.2263-2.125-7.125l-0.5-1.625h-2.2812-2.25zm2.3125 3.1562c0.01-0.01 0.11176 0.34954 0.21875 0.8125 0.10699 0.463 0.45428 1.8398 0.78125 3.0625 0.32697 1.2228 0.65375 2.4396 0.71875 2.7188l0.125 0.53125h-1.7812c-1.0721 0-1.75-0.04375-1.75-0.09375s0.30528-1.2474 0.65625-2.6563c0.34997-1.409 0.71051-2.942 0.8125-3.4375 0.10199-0.496 0.20475-0.92251 0.21875-0.9375zm9.2812 1.0625-0.0312 6.75c-0.01 3.6794 0.008 6.6681 0.0312 6.7812h3.4688c0.0638-0.21634 0.0817-2.0876 0.0625-6.8125v-6.7188h-1.7812-1.75z"/>
 </g>
</svg>
