<?xml version="1.0" encoding="UTF-8" standalone="no"?>
<!-- Created with Inkscape (http://www.inkscape.org/) -->
<svg id="svg3759" xmlns:rdf="http://www.w3.org/1999/02/22-rdf-syntax-ns#" xmlns="http://www.w3.org/2000/svg" height="48" width="48" version="1.1" xmlns:cc="http://creativecommons.org/ns#" xmlns:xlink="http://www.w3.org/1999/xlink" xmlns:dc="http://purl.org/dc/elements/1.1/">
 <metadata id="metadata37">
  <rdf:RDF>
   <cc:Work rdf:about="">
    <dc:format>image/svg+xml</dc:format>
    <dc:type rdf:resource="http://purl.org/dc/dcmitype/StillImage"/>
    <dc:title/>
   </cc:Work>
  </rdf:RDF>
 </metadata>
 <defs id="defs3761">
  <linearGradient id="linearGradient3960">
   <stop id="stop3962" style="stop-opacity:0" offset="0"/>
   <stop id="stop3970" offset=".5"/>
   <stop id="stop3964" style="stop-opacity:0" offset="1"/>
  </linearGradient>
  <linearGradient id="linearGradient3952">
   <stop id="stop3954" offset="0"/>
   <stop id="stop3956" style="stop-opacity:0" offset="1"/>
  </linearGradient>
  <linearGradient id="linearGradient3899" y2="42" xlink:href="#linearGradient3960" gradientUnits="userSpaceOnUse" x2="25" gradientTransform="matrix(1.0571 0 0 1.6667 -5.4 -31)" y1="45" x1="25"/>
  <radialGradient id="radialGradient3901" xlink:href="#linearGradient3952" gradientUnits="userSpaceOnUse" cy="43.5" cx="40" gradientTransform="matrix(1.0571 0 0 1.25 2.6 -12.875)" r="2"/>
  <radialGradient id="radialGradient3903" xlink:href="#linearGradient3952" gradientUnits="userSpaceOnUse" cy="43.5" cx="9" gradientTransform="matrix(1.0571 0 0 1.25 -5.4 -12.875)" r="2"/>
  <linearGradient id="linearGradient3905" y2="42" xlink:href="#linearGradient3960" gradientUnits="userSpaceOnUse" x2="25" gradientTransform="translate(-4 -2)" y1="45" x1="25"/>
  <radialGradient id="radialGradient3907" xlink:href="#linearGradient3952" gradientUnits="userSpaceOnUse" cy="43.5" cx="40" gradientTransform="matrix(1 0 0 .75 4 8.875)" r="2"/>
  <radialGradient id="radialGradient3909" xlink:href="#linearGradient3952" gradientUnits="userSpaceOnUse" cy="43.5" cx="9" gradientTransform="matrix(1 0 0 .75 -4 8.875)" r="2"/>
  <linearGradient id="linearGradient3911" y2="40" gradientUnits="userSpaceOnUse" x2="144" gradientTransform="matrix(.175 0 0 .175 -.20002 -4)" y1="280" x1="144">
   <stop id="stop5620" style="stop-color:#555" offset="0"/>
   <stop id="stop5622" style="stop-color:#777" offset="1"/>
  </linearGradient>
  <linearGradient id="linearGradient3913" y2="40" gradientUnits="userSpaceOnUse" x2="144" gradientTransform="matrix(-.175 0 0 .175 49.2 -4)" y1="280" x1="144">
   <stop id="stop3990-5" style="stop-color:#f1f1f1" offset="0"/>
   <stop id="stop3992-0" style="stop-color:#f4f4f4" offset="1"/>
  </linearGradient>
 </defs>
 <g id="g3891" transform="translate(-.5 -.5)">
  <path id="rect3985" d="m4.1143 39h40.772v5h-40.772z" style="opacity:0.12;fill:url(#linearGradient3899)"/>
  <path id="path3987" style="opacity:0.12;fill:url(#radialGradient3901)" d="m44.886 39v5h0.52857c0.87849 0 1.5857-1.115 1.5857-2.5s-0.70723-2.5-1.5857-2.5h-0.52857z"/>
  <path id="path3989" style="opacity:0.12;fill:url(#radialGradient3903)" d="m3.4866 39c-0.8236 0-1.4866 1.045-1.4866 2.344v0.3125c0 1.299 0.663 2.344 1.4866 2.344h0.62768v-5h-0.62768z"/>
  <path id="rect3938" d="m5 40h39v3h-39z" style="opacity:0.12;fill:url(#linearGradient3905)"/>
  <path id="rect3940" d="m44 40v3h0.5c0.831 0 1.5-0.669 1.5-1.5s-0.669-1.5-1.5-1.5h-0.5z" style="opacity:0.12;fill:url(#radialGradient3907)"/>
  <path id="rect3942" d="m4.4062 40c-0.77906 0-1.4062 0.62719-1.4062 1.4062v0.1875c0 0.77906 0.62719 1.4062 1.4062 1.4062h0.59375v-3h-0.59375z" style="opacity:0.12;fill:url(#radialGradient3909)"/>
 </g>
 <path id="rect3886" style="opacity:.35;color:#bebebe" d="m3 8v32c0 0.554 0.446 1 1 1h40c0.554 0 1-0.446 1-1v-32c0-0.554-0.446-1-1-1h-40c-0.554 0-1 0.446-1 1z"/>
 <path id="rect3882" style="color:#bebebe;fill:url(#linearGradient3913)" d="m4 8v32h40v-32z"/>
 <path id="rect3383" style="color:#bebebe;fill:url(#linearGradient3911)" d="m42 10v28h-36v-28z"/>
 <path id="rect3888" style="opacity:.2" d="m6 10v28h36v-28zm1 1h34v26h-34z"/>
 <path id="path3893" style="opacity:.4;fill:#fff" d="m4 8v32h40v-32zm1 1h38v30h-38z"/>
 <path id="rect4018" style="opacity:.4;fill:#fff" d="m4 8h40v1h-40z"/>
</svg>
