<?xml version="1.0" encoding="UTF-8" standalone="no"?>
<!-- Created with Inkscape (http://www.inkscape.org/) -->
<svg id="svg3759" xmlns:rdf="http://www.w3.org/1999/02/22-rdf-syntax-ns#" xmlns="http://www.w3.org/2000/svg" height="48" width="48" version="1.1" xmlns:cc="http://creativecommons.org/ns#" xmlns:xlink="http://www.w3.org/1999/xlink" xmlns:dc="http://purl.org/dc/elements/1.1/">
 <metadata id="metadata37">
  <rdf:RDF>
   <cc:Work rdf:about="">
    <dc:format>image/svg+xml</dc:format>
    <dc:type rdf:resource="http://purl.org/dc/dcmitype/StillImage"/>
    <dc:title/>
   </cc:Work>
  </rdf:RDF>
 </metadata>
 <defs id="defs3761">
  <linearGradient id="linearGradient4091">
   <stop id="stop4093" style="stop-color:#c84f4e" offset="0"/>
   <stop id="stop4095" style="stop-color:#933b3b" offset=".5"/>
   <stop id="stop4097" style="stop-color:#c84f4e" offset="1"/>
  </linearGradient>
  <linearGradient id="linearGradient4057">
   <stop id="stop4059" style="stop-color:#c84f4e" offset="0"/>
   <stop id="stop4065" style="stop-color:#ff8886" offset=".5"/>
   <stop id="stop4061" style="stop-color:#c84f4e" offset="1"/>
  </linearGradient>
  <linearGradient id="linearGradient4226">
   <stop id="stop4228" style="stop-color:#df7575" offset="0"/>
   <stop id="stop4231" style="stop-color:#e4a0a0" offset="1"/>
  </linearGradient>
  <radialGradient id="radialGradient4013" gradientUnits="userSpaceOnUse" cy="6" cx="27.552" gradientTransform="matrix(1.2 0 0 .6 -7 6.5687)" r="20">
   <stop id="stop4151" style="stop-color:#fbd6d6" offset="0"/>
   <stop id="stop4153" style="stop-color:#f2c6c7" offset="1"/>
  </radialGradient>
  <linearGradient id="linearGradient4143" y2="20" xlink:href="#linearGradient4226" gradientUnits="userSpaceOnUse" x2="16" gradientTransform="matrix(-1 0 0 1 48 .66875)" y1="42.586" x1="5.3934"/>
  <linearGradient id="linearGradient4145" y2="45.75" gradientUnits="userSpaceOnUse" x2="10.5" gradientTransform="translate(0 -.33125)" y1="20.25" x1="16.5">
   <stop id="stop4019" style="stop-color:#f8d2d9" offset="0"/>
   <stop id="stop4021" style="stop-color:#f3b1b3" offset="1"/>
  </linearGradient>
  <linearGradient id="linearGradient4329" y2="4" gradientUnits="userSpaceOnUse" x2="9" gradientTransform="translate(0 -.33125)" y1="37" x1="40">
   <stop id="stop4279" style="stop-color:#ad2f2e" offset="0"/>
   <stop id="stop4281" style="stop-color:#c14240" offset="1"/>
  </linearGradient>
  <radialGradient id="radialGradient4363" gradientUnits="userSpaceOnUse" cy="13.919" cx="23.277" gradientTransform="matrix(1 0 0 1.1576 0 1.1044)" r="19.438">
   <stop id="stop4367" style="stop-color:#ffc5c4" offset="0"/>
   <stop id="stop4369" style="stop-color:#e97574" offset=".33923"/>
   <stop id="stop4371" style="stop-color:#c84f4e" offset="1"/>
  </radialGradient>
  <linearGradient id="linearGradient4015" y2="20" xlink:href="#linearGradient4226" gradientUnits="userSpaceOnUse" x2="16" gradientTransform="matrix(-1 0 0 1 48 -.33125)" y1="42.586" x1="5.3934"/>
  <linearGradient id="linearGradient4289" y2="11" xlink:href="#linearGradient4091" gradientUnits="userSpaceOnUse" x2="24" gradientTransform="translate(.5)" y1="11" x1="8"/>
  <linearGradient id="linearGradient4291" y2="9" xlink:href="#linearGradient4057" gradientUnits="userSpaceOnUse" x2="23" gradientTransform="translate(.5)" y1="9" x1="8"/>
  <linearGradient id="linearGradient4293" y2="9" xlink:href="#linearGradient4057" gradientUnits="userSpaceOnUse" x2="23" gradientTransform="matrix(-.89782 0 0 .89782 46.048 1.1418)" y1="9" x1="8"/>
  <linearGradient id="linearGradient4295" y2="11" xlink:href="#linearGradient4091" gradientUnits="userSpaceOnUse" x2="24" gradientTransform="matrix(-.89782 0 0 .89782 46.048 1.5907)" y1="11" x1="8"/>
  <radialGradient id="radialGradient4307" gradientUnits="userSpaceOnUse" cy="38" cx="24" gradientTransform="matrix(1 0 0 .41667 0 22.167)" r="24">
   <stop id="stop4303" offset="0"/>
   <stop id="stop4309" style="stop-opacity:0.275" offset=".43836"/>
   <stop id="stop4305" style="stop-opacity:0" offset="1"/>
  </radialGradient>
 </defs>
 <g id="layer1">
  <path id="path4299" style="opacity:.3;fill:url(#radialGradient4307)" d="m48 38a24 10 0 1 1 -48 0 24 10 0 1 1 48 0z" transform="matrix(-1.1667 0 0 1.2 52 -9.6)"/>
  <path id="path3965" style="fill:url(#radialGradient4013)" d="m24.5 26.669-20.999-8v-4l20.999-8.5003 20 8.5003v4z"/>
  <path id="path3173" style="fill:url(#linearGradient4145)" d="m3.5001 14.669v5.9562l0.9999 0.625v15.419l20 8.5v-22.5z"/>
  <path id="path3955" d="m44.5 14.669v4.047l-1 1.2929v16.66l-19 8.5v-22.5z" style="fill:url(#linearGradient4143)"/>
  <path id="path3225" style="opacity:.3;fill:#fff" d="m24.5 6.656-20.5 8.344 1.2376 0.453 19.262-7.797l18.138 7.7088 1.2424-0.47198z"/>
  <path id="path4033" d="m43.011 15.418 1-0.44523v21.312l-1 0.44523z" style="opacity:.1;fill:#fff"/>
  <g id="g4018" transform="translate(0,1)">
   <path id="path4004" style="fill:#f8d2d9" d="m3.5 13.656v5.6875l21 8v-5.6875l-21-8z"/>
   <path id="path4013" style="fill:url(#linearGradient4015)" d="m44.5 13.656-20 8v5.6875l20-8v-5.6875z"/>
  </g>
  <path id="path4035" style="opacity:0.91;block-progression:tb;text-indent:0;color:#000000;text-transform:none;fill:url(#linearGradient4329)" d="m24.5 5.6375-0.1875 0.0625l-21 8.5-0.312 0.125v0.34375 6l1 1.331v14.669 0.34375l0.3125 0.125 20 8.5 0.1875 0.0625 0.1875-0.0625 19-8.5 0.3125-0.125v-0.34375-15.669l1-1.3312v-4.9996-0.34375l-0.3125-0.125-20-8.5zm0 1.0625 19.5 8.4063v4.5621l-1 1.3312v15.326l-18.438 8.094-19.562-8.094v-14.325l-1-1.331 0.0938-5.641z"/>
  <path id="path4317" style="fill:url(#radialGradient4363)" d="m24.09 23-20.125-8.001 20.514 7.222 19.376-7.211-18.761 8.128-0.063 21.07-0.503 0.274-0.488-0.242z"/>
  <path id="path4242" d="m30.875 9.5437-19.8 7.9563 3.925 1.5 19.8-7.956z" style="block-progression:tb;text-indent:0;color:#000000;text-transform:none;fill:#c84f4e"/>
  <path id="path4000" style="block-progression:tb;text-indent:0;color:#000000;text-transform:none;fill:#df5c5b" d="m16.619 9.4402 20.381 8.5598-3.925 1.5-20.381-8.56z"/>
  <path id="path4036" d="m43.011 35.284v1l-18 7.8946v-1z" style="opacity:.1;fill:#fff"/>
  <path id="path4034" d="m35.974 39.459-3.848 1.7513-0.08795-15.148 0.99297-1.2366-0.03144-5.2574 3.9803-1.5316-0.0015 5.772-1.0006 0.97227z" style="opacity:.8;fill:#b62b2b"/>
  <path id="path4014" style="opacity:.1;fill:#fff" d="m24 23.084-1-0.44523v21.312l1 0.44523z"/>
  <g id="g4027" transform="translate(0,1)">
   <path id="rect4005" style="opacity:.1;fill:#fff" d="m-5.4732 12.184h1.0946v21.312h-1.0946z" transform="matrix(-.91355 -.40674 0 1 0 0)"/>
   <path id="rect4016" style="opacity:.1;fill:#fff" d="m5 34.656v1l18 7.1875v-1l-18-7.1875z"/>
  </g>
  <path id="path4059" style="opacity:.8;fill:#b62b2b" d="m12.006 39.388 3.848 1.3977 0.08795-15.148-0.99297-1.2366 0.03144-5.2574l-3.98-1.531 0.0015 5.772 1.0006 0.97227z"/>
  <g id="g4269" transform="translate(0 .44194)">
   <path id="path4079" style="fill:url(#linearGradient4289)" d="m7.5 8v4s1.5 3 9 3 8-3 8-3v-2s-0.5 1-8 1-9-3-9-3z"/>
   <path id="path4055" d="m7.5 12v-4s0.5-5 8-5 9 7 9 7v2s-1-4-8.5-4-8.5 4-8.5 4z" style="fill:url(#linearGradient4291)"/>
   <path id="path4067" style="fill:url(#linearGradient4293)" d="m39.5 11.916v-3.5913s-0.18594-4.4891-6.9196-4.4891-8.0804 6.2848-8.0804 6.2848v1.7956s0.89782-4.2261 7.6315-4.2261 7.3685 4.2261 7.3685 4.2261z"/>
   <path id="path4231" d="m39.5 8.7733v2.6935s-1.0838 3.5913-7.8174 3.5913c-6.734 0-7.183-2.693-7.183-2.693v-1.7956s0.44891 1.612 7.1826 1.612 7.8174-3.4077 7.8174-3.4077z" style="fill:url(#linearGradient4295)"/>
   <path id="path4253" d="m7.5 8v4s1.5 3 9 3 8-3 8-3v-2s-0.5 1-8 1-9-3-9-3z" style="opacity:0.81;stroke-linejoin:round;stroke:#b72f2c;fill:none"/>
   <path id="path4255" style="opacity:0.81;stroke-linejoin:round;stroke:#b72f2c;fill:none" d="m7.5 12v-4s0.5-5 8-5 9 7 9 7v2s-1-4-8.5-4-8.5 4-8.5 4z"/>
   <path id="path4257" d="m39.5 11.916v-3.5913s-0.18594-4.4891-6.9196-4.4891-8.0804 6.2848-8.0804 6.2848v1.7956s0.89782-4.2261 7.6315-4.2261 7.3685 4.2261 7.3685 4.2261z" style="opacity:0.81;stroke-linejoin:round;stroke:#b72f2c;fill:none"/>
   <path id="path4259" style="opacity:0.81;stroke-linejoin:round;stroke:#b72f2c;fill:none" d="m39.5 8.7733v2.6935s-1.0838 3.5913-7.8174 3.5913c-6.734 0-7.183-2.693-7.183-2.693v-1.7956s0.44891 1.612 7.1826 1.612 7.8174-3.4077 7.8174-3.4077z"/>
   <path id="path4265" style="opacity:0.81;stroke-linejoin:round;stroke:#b72f2c;stroke-width:2;fill:#f8d2d9" d="m25 11.5c0 0.27614-0.44772 0.5-1 0.5s-1-0.22386-1-0.5 0.44772-0.5 1-0.5 1 0.22386 1 0.5z"/>
   <path id="path4267" style="opacity:.2;fill:#f8d2d9" d="m25 11c0 0.55228-0.44772 1-1 1s-1-0.44772-1-1 0.44772-1 1-1 1 0.44772 1 1z"/>
  </g>
  <path id="path4024" style="opacity:.5;fill:#a00" d="m3.5 20.781 0.8125 1.125 20.188 7.875 19-7.5938v-1l-19 7.5938z"/>
 </g>
</svg>
