<?xml version="1.0" encoding="UTF-8" standalone="no"?>
<!-- Created with Inkscape (http://www.inkscape.org/) -->
<svg id="svg3759" xmlns:rdf="http://www.w3.org/1999/02/22-rdf-syntax-ns#" xmlns="http://www.w3.org/2000/svg" height="48" width="48" version="1.1" xmlns:cc="http://creativecommons.org/ns#" xmlns:xlink="http://www.w3.org/1999/xlink" xmlns:dc="http://purl.org/dc/elements/1.1/">
 <metadata id="metadata37">
  <rdf:RDF>
   <cc:Work rdf:about="">
    <dc:format>image/svg+xml</dc:format>
    <dc:type rdf:resource="http://purl.org/dc/dcmitype/StillImage"/>
    <dc:title/>
   </cc:Work>
  </rdf:RDF>
 </metadata>
 <defs id="defs3761">
  <radialGradient id="radialGradient4013" gradientUnits="userSpaceOnUse" cy="6" cx="27.552" gradientTransform="matrix(1.2 0 0 .6 -7 5.5687)" r="20">
   <stop id="stop4151" style="stop-color:#fae4ba" offset="0"/>
   <stop id="stop4153" style="stop-color:#dcb98b" offset="1"/>
  </radialGradient>
  <linearGradient id="linearGradient4143" y2="20" gradientUnits="userSpaceOnUse" x2="16" gradientTransform="matrix(-1 0 0 1 48 -.33125)" y1="42.586" x1="5.3934">
   <stop id="stop4228" style="stop-color:#95724c" offset="0"/>
   <stop id="stop4231" style="stop-color:#c4975c" offset="1"/>
  </linearGradient>
  <linearGradient id="linearGradient4145" y2="45.75" gradientUnits="userSpaceOnUse" x2="10.5" gradientTransform="translate(0 -1.3313)" y1="20.25" x1="16.5">
   <stop id="stop4019" style="stop-color:#dcb98b" offset="0"/>
   <stop id="stop4021" style="stop-color:#be9d72" offset="1"/>
  </linearGradient>
  <linearGradient id="linearGradient4259" y2="17" gradientUnits="userSpaceOnUse" x2="13" gradientTransform="translate(0 -1.3313)" y1="23" x1="13">
   <stop id="stop4255" style="stop-color:#fff" offset="0"/>
   <stop id="stop4257" style="stop-color:#fff;stop-opacity:.52910" offset="1"/>
  </linearGradient>
  <linearGradient id="linearGradient4275" y2="16.745" gradientUnits="userSpaceOnUse" x2="16.277" gradientTransform="translate(0 -1.3313)" y1="3.6967" x1="36.182">
   <stop id="stop4271" style="stop-color:#fff" offset="0"/>
   <stop id="stop4273" style="stop-color:#fff;stop-opacity:0.575" offset="1"/>
  </linearGradient>
  <linearGradient id="linearGradient4329" y2="4" gradientUnits="userSpaceOnUse" x2="9" gradientTransform="translate(0 -1.3313)" y1="37" x1="40">
   <stop id="stop4279" style="stop-color:#5c2f00" offset="0"/>
   <stop id="stop4281" style="stop-color:#794a18" offset="1"/>
  </linearGradient>
  <radialGradient id="radialGradient4363" gradientUnits="userSpaceOnUse" cy="13.919" cx="23.277" gradientTransform="matrix(1 0 0 1.1576 0 .10444)" r="19.438">
   <stop id="stop4367" style="stop-color:#f0d0b1" offset="0"/>
   <stop id="stop4369" style="stop-color:#dfbe93" offset=".33923"/>
   <stop id="stop4371" style="stop-color:#805d27" offset="1"/>
  </radialGradient>
  <radialGradient id="radialGradient4327" gradientUnits="userSpaceOnUse" cx="24" cy="38" r="24" gradientTransform="matrix(1 0 0 .41667 0 22.167)">
   <stop id="stop4303" offset="0"/>
   <stop id="stop4309" style="stop-opacity:0.275" offset=".43836"/>
   <stop id="stop4305" style="stop-opacity:0" offset="1"/>
  </radialGradient>
 </defs>
 <g id="layer1">
  <path id="path4299" style="fill:url(#radialGradient4327)" d="m48 38a24 10 0 1 1 -48 0 24 10 0 1 1 48 0z" transform="matrix(-.83333 0 0 1 44 -3)"/>
  <path id="path3965" style="fill:url(#radialGradient4013)" d="m24.5 25.669-20.999-8v-4l20.999-8.5003 20 8.5003v4z"/>
  <path id="path3173" style="fill:url(#linearGradient4145)" d="m3.5001 13.669v22l20.999 8.5v-22.5z"/>
  <path id="path3955" d="m44.5 13.669v22l-20 8.5v-22.5z" style="fill:url(#linearGradient4143)"/>
  <path id="path4052" style="opacity:.8;block-progression:tb;text-indent:0;color:#000000;text-transform:none;fill:#b19065" d="m32.449 9.3051-18.9 8.181 0.57813 0.10984 18.9-8.181z"/>
  <path id="path4035" style="opacity:0.61;block-progression:tb;text-indent:0;color:#000000;text-transform:none;fill:url(#linearGradient4329)" d="m24.5 4.6375-0.1875 0.0625l-21 8.5-0.312 0.125v0.34375 4 18 0.34375l0.3125 0.125 21 8.5 0.1875 0.0625 0.1875-0.0625 20-8.5 0.3125-0.125v-0.34375-18-4-0.34375l-0.3125-0.125-20-8.5zm0 1.0625l19.5 8.406v3.563 17.656l-19.438 8.094-20.562-8.094v-17.656l0.0938-3.641z"/>
  <path id="path4059" style="opacity:.4;fill:url(#linearGradient4259)" d="m11.418 22.394 0.68027-0.6525 0.58857 1.0039 0.91193-0.84556 0.33234 1.1814 0.77648-0.30972 0.5584 1.0202 0.12679-5.1998-3.9804-1.5316z"/>
  <path id="path4242" d="m30.875 8.5437-19.44 8.5285 3.9248 1.5 19.44-8.5285z" style="opacity:.4;block-progression:tb;text-indent:0;color:#000000;text-transform:none;fill:url(#linearGradient4275)"/>
  <path id="path4317" style="fill:url(#radialGradient4363)" d="m24.09 22-20.125-8.001 20.514 7.222 19.376-7.211-18.761 8.128l0.0625 21.656-1.1164-0.55341z"/>
  <g id="g5963" style="enable-background:new" transform="matrix(.5 -.22261 0 .5 -94.5 61.383)">
   <path id="path2987" style="opacity:.5;fill:#502d16" d="m266 31.469-2.4688 3.5625h0.46875 1v1 4.9688h2v-4.9688-1h1 0.4375l-2.4375-3.5625z"/>
   <rect id="rect6034" style="color:#bebebe;enable-background:new;fill:none" transform="matrix(0,1,1,0,0,0)" height="16" width="16" y="261" x="29"/>
   <path id="path4177" style="opacity:.5;fill:#502d16" d="m263 43.016v1.9686h12l-0.005-1.9686z"/>
   <path id="path5714" d="m272 31.469-2.4688 3.5625h0.46875 1v1 4.9688h2v-4.9688-1h1 0.4375l-2.4375-3.5625z" style="opacity:.5;fill:#502d16"/>
  </g>
  <path id="path3225" style="opacity:.3;fill:#fff" d="m24.5 5.656-20.5 8.344 1.2376 0.453 19.262-7.797l18.138 7.7088 1.2424-0.47198z"/>
  <path id="path4033" d="m43.011 14.418 1-0.44523v21.312l-1 0.44523z" style="opacity:.1;fill:#fff"/>
  <path id="path4036" d="m43.011 34.726v1l-18 7.1875v-1l18-7.1875z" style="opacity:.1;fill:#fff"/>
  <path id="path4014" style="opacity:.1;fill:#fff" d="m24 22.084-1-0.44523v21.312l1 0.44523z"/>
  <g id="g4027">
   <path id="rect4005" style="opacity:.1;fill:#fff" d="m-5.4732 12.184h1.0946v21.312h-1.0946z" transform="matrix(-.91355 -.40674 0 1 0 0)"/>
   <path id="rect4016" style="opacity:.1;fill:#fff" d="m5 34.656v1l18 7.188v-1l-18-7.188z"/>
  </g>
 </g>
</svg>
