<?xml version="1.0" encoding="UTF-8" standalone="no"?>
<!-- Created with Inkscape (http://www.inkscape.org/) -->
<svg id="svg3759" xmlns:rdf="http://www.w3.org/1999/02/22-rdf-syntax-ns#" xmlns="http://www.w3.org/2000/svg" height="48" width="48" version="1.1" xmlns:cc="http://creativecommons.org/ns#" xmlns:xlink="http://www.w3.org/1999/xlink" xmlns:dc="http://purl.org/dc/elements/1.1/">
 <metadata id="metadata37">
  <rdf:RDF>
   <cc:Work rdf:about="">
    <dc:format>image/svg+xml</dc:format>
    <dc:type rdf:resource="http://purl.org/dc/dcmitype/StillImage"/>
    <dc:title/>
   </cc:Work>
  </rdf:RDF>
 </metadata>
 <defs id="defs3761">
  <linearGradient id="linearGradient3960">
   <stop id="stop3962" style="stop-opacity:0" offset="0"/>
   <stop id="stop3970" offset=".5"/>
   <stop id="stop3964" style="stop-opacity:0" offset="1"/>
  </linearGradient>
  <linearGradient id="linearGradient3952">
   <stop id="stop3954" offset="0"/>
   <stop id="stop3956" style="stop-opacity:0" offset="1"/>
  </linearGradient>
  <linearGradient id="linearGradient3142" y2="40" gradientUnits="userSpaceOnUse" x2="144" gradientTransform="matrix(-.175 0 0 .175 49.2 -5)" y1="280" x1="144">
   <stop id="stop3990-5" style="stop-color:#e8e8e8" offset="0"/>
   <stop id="stop3992-0" style="stop-color:#f0f0f0" offset="1"/>
  </linearGradient>
  <linearGradient id="linearGradient3920" y2="48" gradientUnits="userSpaceOnUse" x2="24" x1="24">
   <stop id="stop3916" style="stop-color:#fff" offset="0"/>
   <stop id="stop3918" style="stop-color:#fff;stop-opacity:0" offset="1"/>
  </linearGradient>
  <radialGradient id="radialGradient3925" xlink:href="#linearGradient3952" gradientUnits="userSpaceOnUse" cy="43.5" cx="9" gradientTransform="matrix(1 0 0 .75 -1 10.875)" r="2"/>
  <radialGradient id="radialGradient3928" xlink:href="#linearGradient3952" gradientUnits="userSpaceOnUse" cy="43.5" cx="40" gradientTransform="matrix(1 0 0 .75 -3e-7 10.875)" r="2"/>
  <linearGradient id="linearGradient3931" y2="42" xlink:href="#linearGradient3960" gradientUnits="userSpaceOnUse" x2="25" gradientTransform="matrix(1.0305 0 0 1 -1.2476 0)" y1="45" x1="25"/>
  <radialGradient id="radialGradient3934" xlink:href="#linearGradient3952" gradientUnits="userSpaceOnUse" cy="43.5" cx="9" gradientTransform="matrix(1.0571 0 0 1.25 -2.4 -10.875)" r="2"/>
  <radialGradient id="radialGradient3937" xlink:href="#linearGradient3952" gradientUnits="userSpaceOnUse" cy="43.5" cx="40" gradientTransform="matrix(1.0571 0 0 1.25 -1.4 -10.875)" r="2"/>
  <linearGradient id="linearGradient3940" y2="42" xlink:href="#linearGradient3960" gradientUnits="userSpaceOnUse" x2="25" gradientTransform="matrix(1.0894 0 0 1.6667 -2.6903 -29)" y1="45" x1="25"/>
 </defs>
 <g id="layer1">
  <g id="g3942">
   <rect id="rect3985" style="opacity:0.12;fill:url(#linearGradient3940)" height="5" width="33.771" y="41" x="7.1143"/>
   <path id="path3987" style="opacity:0.12;fill:url(#radialGradient3937)" d="m40.886 41v5h0.52857c0.87849 0 1.5857-1.115 1.5857-2.5s-0.70723-2.5-1.5857-2.5h-0.52857z"/>
   <path id="path3989" style="opacity:0.12;fill:url(#radialGradient3934)" d="m6.4866 41c-0.8236 0-1.4866 1.045-1.4866 2.344v0.3125c0 1.2984 0.66303 2.3438 1.4866 2.3438h0.62768v-5h-0.62768z"/>
   <rect id="rect3938" style="opacity:0.12;fill:url(#linearGradient3931)" height="3" width="31.946" y="42" x="8.027"/>
   <path id="rect3940" style="opacity:0.12;fill:url(#radialGradient3928)" d="m40 42v3h0.5c0.831 0 1.5-0.669 1.5-1.5s-0.669-1.5-1.5-1.5h-0.5z"/>
   <path id="rect3942" style="opacity:0.12;fill:url(#radialGradient3925)" d="m7.4062 42c-0.77906 0-1.4062 0.62719-1.4062 1.4062v0.1875c0 0.77906 0.62719 1.4062 1.4062 1.4062h0.59375v-3h-0.59375z"/>
  </g>
  <path id="rect3886" style="opacity:.35;color:#bebebe" d="m40 3h-32c-0.554 0-1 0.446-1 1v39c0 0.554 0.446 1 1 1h32c0.554 0 1-0.446 1-1v-39c0-0.554-0.446-1-1-1z"/>
  <path id="rect3882" style="color:#bebebe;fill:url(#linearGradient3142)" d="m40 4h-32v39h32z"/>
  <path id="path3893" style="opacity:.4;fill:url(#linearGradient3920)" d="m40 4h-32v39h32zm-1 1v37h-30v-37z"/>
  <rect id="rect3144" style="opacity:.4;fill:#fff" height="1" width="32" y="4" x="8"/>
  <rect id="rect3922" style="opacity:.2;fill:#fff" height="1" width="32" y="42" x="8"/>
 </g>
 <g id="layer2">
  <g id="g4662" transform="translate(-40)">
   <path id="path4508" style="opacity:.4;fill:#fff" d="m67.062 17.437v0.46875h0.3125c0.83206 0 1.1188 0.10765 1.4062 0.53125l2.7812 4.2188-2.5 3.6562c-0.2118 0.30257-0.65953 1-2.1875 1v0.46875l1.6875-0.0625c0.55975 0 1.3929 0.01711 1.9375 0.0625v-0.46875c-0.69591-0.01513-0.96875-0.44644-0.96875-0.71875 0-0.13616 0.05036-0.17734 0.15625-0.34375l2.1562-3.1875 2.375 3.625c0.03026 0.06051 0.09375 0.11086 0.09375 0.15625 0 0.18154-0.34948 0.45362-1 0.46875v0.46875c0.5295-0.04539 1.6439-0.0625 2.2188-0.0625l1.968 0.063v-0.46875h-0.28125c-0.78668 0-1.1198-0.09352-1.4375-0.5625l-3.1875-4.8125 2.0625-3.0312c0.33283-0.48411 0.87232-0.98487 2.2188-1v-0.46875l-1.6875 0.0625c-0.60514 0-1.3324-0.01711-1.9375-0.0625v0.46875c0.60514 0.01513 0.9375 0.33955 0.9375 0.6875 0 0.15128-0.0191 0.20859-0.125 0.375l-1.75 2.5312-1.9375-2.9062c-0.03026-0.04539-0.09375-0.15824-0.09375-0.21875 0-0.18154 0.31823-0.45362 0.96875-0.46875v-0.46875c-0.5295 0.04539-1.6439 0.0625-2.2188 0.0625l-1.968-0.065zm-16.281 0.094-0.281 3.406h0.375c0.2118-2.4357 0.43436-2.9375 2.7188-2.9375 0.27231 0 0.66122 0.00099 0.8125 0.03125 0.3177 0.06051 0.34375 0.21455 0.34375 0.5625v7.9688c0 0.51437-0.0053 0.75-1.5938 0.75h-0.625v0.46875c0.62027-0.04539 2.1791-0.0625 2.875-0.0625 0.69591 0 2.2547 0.01711 2.875 0.0625v-0.46875h-0.625c-1.5885 0-1.5625-0.23563-1.5625-0.75v-7.9688c0-0.30257-0.02231-0.50199 0.25-0.5625 0.16641-0.03026 0.58756-0.03125 0.875-0.03125 2.2844 0 2.507 0.50182 2.7188 2.9375h0.375l-0.28125-3.4062h-9.25zm8.1875 3.9688v0.46875h0.375c1.1649 0 1.1875 0.14288 1.1875 0.6875v7.9375c0 0.54462-0.02261 0.71875-1.1875 0.71875h-0.375v0.46875h8.7188l0.65625-3.9062h-0.40625c-0.37821 2.3298-0.71041 3.4375-3.3125 3.4375h-2c-0.71104 0-0.75-0.12576-0.75-0.625v-4.0312h1.3438c1.4675 0 1.6562 0.49533 1.6562 1.7812h0.375v-4.0312h-0.375c0 1.301-0.18879 1.7812-1.6562 1.7812h-1.3438v-3.625c0-0.49924 0.03897-0.59375 0.75-0.59375h1.9375c2.3146 0 2.7267 0.8034 2.9688 2.9062h0.375l-0.4375-3.375h-8.5z"/>
   <path id="path4447" d="m67.062 16.438v0.46875h0.3125c0.83206 0 1.1188 0.10765 1.4062 0.53125l2.7812 4.2188-2.5 3.6562c-0.2118 0.30257-0.65953 1-2.1875 1v0.46875l1.6875-0.0625c0.55975 0 1.3929 0.01711 1.9375 0.0625v-0.46875c-0.69591-0.01513-0.96875-0.44644-0.96875-0.71875 0-0.13616 0.05036-0.17734 0.15625-0.34375l2.1562-3.1875 2.375 3.625c0.03026 0.06051 0.09375 0.11086 0.09375 0.15625 0 0.18154-0.34948 0.45362-1 0.46875v0.46875c0.5295-0.04539 1.6439-0.0625 2.2188-0.0625l1.9688 0.0625v-0.46875h-0.28125c-0.78668 0-1.1198-0.09352-1.4375-0.5625l-3.1875-4.8125 2.0625-3.0312c0.33283-0.48411 0.87232-0.98487 2.2188-1v-0.46875l-1.6875 0.0625c-0.60514 0-1.3324-0.01711-1.9375-0.0625v0.46875c0.60514 0.01513 0.9375 0.33955 0.9375 0.6875 0 0.15128-0.0191 0.20859-0.125 0.375l-1.75 2.528-1.937-2.906c-0.03026-0.04539-0.09375-0.15824-0.09375-0.21875 0-0.18154 0.31823-0.45362 0.96875-0.46875v-0.46875c-0.529 0.046-1.644 0.063-2.219 0.063l-1.969-0.062zm-16.281 0.093-0.281 3.407h0.375c0.212-2.436 0.434-2.938 2.719-2.938 0.27231 0 0.66122 0.00099 0.8125 0.03125 0.3177 0.06051 0.34375 0.21455 0.34375 0.5625v7.9688c0 0.51437-0.0053 0.75-1.5938 0.75h-0.625v0.46875c0.62027-0.04539 2.1791-0.0625 2.875-0.0625 0.69591 0 2.2547 0.01711 2.875 0.0625v-0.46875h-0.625c-1.5885 0-1.5625-0.23563-1.5625-0.75v-7.9688c0-0.30257-0.02231-0.50199 0.25-0.5625 0.166-0.031 0.587-0.032 0.875-0.032 2.2844 0 2.507 0.50182 2.7188 2.9375h0.375l-0.28125-3.4062h-9.25zm8.1875 3.9688v0.46875h0.375c1.1649 0 1.1875 0.14288 1.1875 0.6875v7.9375c0 0.54462-0.02261 0.71875-1.1875 0.71875h-0.375v0.46875h8.7188l0.65625-3.9062h-0.40625c-0.37821 2.3298-0.71041 3.4375-3.3125 3.4375h-2c-0.71104 0-0.75-0.12576-0.75-0.625v-4.0312h1.3438c1.4675 0 1.6562 0.49533 1.6562 1.7812h0.375v-4.0312h-0.375c0 1.301-0.18879 1.7812-1.6562 1.7812h-1.3438v-3.625c0-0.49924 0.03897-0.59375 0.75-0.59375h1.9375c2.3146 0 2.7267 0.8034 2.9688 2.9062h0.375l-0.4375-3.375h-8.5z" style="fill:#ccc"/>
   <path id="path4558" style="opacity:.1" d="m67.062 16.438v0.46875h0.3125c0.83206 0 1.1188 0.10765 1.4062 0.53125l0.03125 0.0625h0.21875c0.33194 0 0.80603-0.01769 1.2812-0.03125-0.01489-0.03447-0.03125-0.06871-0.03125-0.09375 0-0.18154 0.31823-0.45362 0.96875-0.46875v-0.46875c-0.528 0.046-1.643 0.063-2.218 0.063l-1.969-0.062zm6.1875 0v0.46875c0.5295 0.01324 0.83436 0.2671 0.90625 0.5625 0.3115 0.01 0.61629 0.0302 0.90625 0.03125 0.35767-0.31258 0.87348-0.5832 1.8125-0.59375v-0.46875l-1.6875 0.0625c-0.60514 0-1.3324-0.01711-1.9375-0.0625zm-22.469 0.093-0.281 3.407h0.09375l0.1875-2.4062h0.71875c0.371-0.404 0.982-0.532 2.094-0.532 0.27231 0 0.66122 0.00099 0.8125 0.03125 0.295 0.05619 0.33904 0.20215 0.34375 0.5h1.3438c-0.0014-0.26164 0.000226-0.44449 0.25-0.5 0.166-0.03 0.587-0.031 0.875-0.031 1.1122 0 1.7223 0.12806 2.0938 0.53125h0.71875l0.1875 2.4062h0.09375l-0.28125-3.4062h-9.25zm19.875 1.5c-0.2387 0.09922-0.375 0.23331-0.375 0.34375 0 0.06051 0.06349 0.17336 0.09375 0.21875l1.937 2.906 0.344-0.469-0.062-0.093 1.594-2.344c0-0.17398-0.09127-0.34226-0.25-0.46875l-1.626 2.375-1.656-2.469zm-11.687 2.469v0.46875h0.375c1.0336 0 1.1704 0.12544 1.1875 0.53125h1.3438c0.0051-0.43716 0.07417-0.53125 0.75-0.53125h1.9375c1.027 0 1.6645 0.17161 2.0938 0.53125h0.8125l0.3125 2.375h0.125l-0.4375-3.375h-7.1875l0.03125 0.4375h-0.375c-0.016-0.165-0.049-0.291-0.064-0.438h-0.90625zm13.969 0.9375-0.34375 0.5 3.1562 4.7812 1.75 0.0625v-0.46875h-0.28125c-0.78668 0-1.1198-0.09352-1.4375-0.5625l-2.844-4.312zm-1.7188 0.71875-2.1562 3.1562c-0.2118 0.30257-0.65953 1-2.1875 1v0.46875l1.6875-0.0625c0.03607 0 0.0868-0.000145 0.125 0 0.16653-0.15495 0.30127-0.30092 0.375-0.40625l0.46875-0.6875c-0.0006-0.0093 0-0.02226 0-0.03125 0-0.13616 0.05036-0.17734 0.15625-0.34375l1.811-2.689-0.281-0.406zm-6.3438 1.25c0 1.301-0.18879 1.7812-1.6562 1.7812h-1.3438v0.46875h1.3438c0.6064 0 0.97214 0.09125 1.2188 0.28125 0.3642-0.26451 0.4375-0.75636 0.4375-1.5312h0.375v-1h-0.375zm-10.125 2.155c0 0.51437-0.0053 0.75-1.5938 0.75h-0.625v0.46875c0.47875-0.03503 1.4501-0.05603 2.2188-0.0625 0.0024-0.05095 0-0.09828 0-0.15625v-1zm1.3438 0v1c0 0.05797-0.0017 0.1053 0 0.15625 0.76516 0.0067 1.7155 0.02796 2.1875 0.0625v-0.46875h-0.625c-1.5885 0-1.5625-0.23563-1.5625-0.75zm13.718 0.532-0.124 0.156c-0.10589 0.16641-0.15625 0.20759-0.15625 0.34375 0 0.04753 0.01383 0.1021 0.03125 0.15625 0.33498 0.01 0.67396 0.0093 0.9375 0.03125v-0.46875c-0.31316-0.0068-0.53199-0.0958-0.6875-0.21875zm4.0938 0.09375c-0.15672 0.05962-0.3498 0.11933-0.59375 0.125v0.46875c0.224-0.02 0.59-0.022 0.938-0.032-0.016-0.02-0.02-0.039-0.031-0.062l-0.3125-0.5zm-5.968 0.687c-0.01821 0.11217-0.04425 0.20598-0.0625 0.3125 0.17566-0.04959 0.3083-0.11908 0.4375-0.1875l0.03125-0.125h-0.40625zm0.25 0.84375-0.40625 0.03125c-0.35294 1.7301-0.90643 2.5625-3.1562 2.5625h-2c-0.71104 0-0.75-0.12576-0.75-0.625v1c0 0.03707-0.000689 0.06069 0 0.09375h4.9062c0.70807-0.54021 0.92742-1.4967 1.1562-2.9062h0.25v-0.15625zm-7.6562 1.875c0 0.54462-0.02261 0.71875-1.1875 0.71875h-0.375v0.46875h1.5312c0.0037-0.06132 0.03125-0.11273 0.03125-0.1875v-1z"/>
  </g>
  <text id="context" style="font-size:18px;font-family:DejaVu Sans;enable-background:new;display:none;fill:#000000" xml:space="preserve" y="-182.75488" x="-775.49316"><tspan id="tspan3933" y="-182.75488" x="-775.49316" style="font-family:DejaVu Sans">apps</tspan></text>
  <text id="icon-name" style="font-size:18px;enable-background:new;font-family:DejaVu Sans;line-height:125%;font-weight:bold;display:none;fill:#000000" xml:space="preserve" y="-182.75488" x="-668.01172"><tspan id="tspan3937" y="-182.75488" x="-668.01172" style="font-size:18px;font-family:DejaVu Sans;font-weight:bold">texstudio</tspan></text>
  <rect id="rect16x16" style="display:none;fill:#eeeeec" height="16" width="16" y="-62.5" x="-374.5"/>
  <rect id="rect24x24" style="display:none;fill:#d4d4d4" height="24" width="24" y="-102.5" x="-374.5"/>
  <rect id="rect32x32" style="display:none;fill:#eeeeec" height="32" width="32" y="-150.5" x="-374.5"/>
  <rect id="rect22x22" style="display:none;fill:#eeeeec" height="22" width="22" y="-101.5" x="-373.5"/>
  <rect id="rect48x48" style="display:none;fill:#eeeeec" height="48" width="48" y="17.5" x="-502.5"/>
  <rect id="rect256x256" style="display:none;fill:#eeeeec" height="256" width="256" y="-174.5" x="-774.5"/>
  <rect id="rect64x64" style="display:none;fill:#eeeeec" height="64" width="64" y="-62.5" x="-502.5"/>
  <rect id="rect96x96" style="display:none;fill:#eeeeec" height="96" width="96" y="-174.5" x="-502.5"/>
 </g>
</svg>
