<?xml version="1.0" encoding="UTF-8" standalone="no"?>
<!-- Created with Inkscape (http://www.inkscape.org/) -->
<svg id="svg3759" xmlns:rdf="http://www.w3.org/1999/02/22-rdf-syntax-ns#" xmlns="http://www.w3.org/2000/svg" height="48" width="48" version="1.1" xmlns:cc="http://creativecommons.org/ns#" xmlns:xlink="http://www.w3.org/1999/xlink" xmlns:dc="http://purl.org/dc/elements/1.1/">
 <metadata id="metadata37">
  <rdf:RDF>
   <cc:Work rdf:about="">
    <dc:format>image/svg+xml</dc:format>
    <dc:type rdf:resource="http://purl.org/dc/dcmitype/StillImage"/>
    <dc:title/>
   </cc:Work>
  </rdf:RDF>
 </metadata>
 <defs id="defs3761">
  <linearGradient id="linearGradient3960">
   <stop id="stop3962" style="stop-opacity:0" offset="0"/>
   <stop id="stop3970" offset=".5"/>
   <stop id="stop3964" style="stop-opacity:0" offset="1"/>
  </linearGradient>
  <linearGradient id="linearGradient3952">
   <stop id="stop3954" offset="0"/>
   <stop id="stop3956" style="stop-opacity:0" offset="1"/>
  </linearGradient>
  <linearGradient id="linearGradient3142" y2="40" gradientUnits="userSpaceOnUse" x2="144" gradientTransform="matrix(-.175 0 0 .175 49.2 -5)" y1="280" x1="144">
   <stop id="stop3990-5" style="stop-color:#e8e8e8" offset="0"/>
   <stop id="stop3992-0" style="stop-color:#f0f0f0" offset="1"/>
  </linearGradient>
  <linearGradient id="linearGradient3920" y2="48" gradientUnits="userSpaceOnUse" x2="24" x1="24">
   <stop id="stop3916" style="stop-color:#fff" offset="0"/>
   <stop id="stop3918" style="stop-color:#fff;stop-opacity:0" offset="1"/>
  </linearGradient>
  <radialGradient id="radialGradient3925" xlink:href="#linearGradient3952" gradientUnits="userSpaceOnUse" cy="43.5" cx="9" gradientTransform="matrix(1 0 0 .75 -1 10.875)" r="2"/>
  <radialGradient id="radialGradient3928" xlink:href="#linearGradient3952" gradientUnits="userSpaceOnUse" cy="43.5" cx="40" gradientTransform="matrix(1 0 0 .75 -3e-7 10.875)" r="2"/>
  <linearGradient id="linearGradient3931" y2="42" xlink:href="#linearGradient3960" gradientUnits="userSpaceOnUse" x2="25" gradientTransform="matrix(1.0305 0 0 1 -1.2476 0)" y1="45" x1="25"/>
  <radialGradient id="radialGradient3934" xlink:href="#linearGradient3952" gradientUnits="userSpaceOnUse" cy="43.5" cx="9" gradientTransform="matrix(1.0571 0 0 1.25 -2.4 -10.875)" r="2"/>
  <radialGradient id="radialGradient3937" xlink:href="#linearGradient3952" gradientUnits="userSpaceOnUse" cy="43.5" cx="40" gradientTransform="matrix(1.0571 0 0 1.25 -1.4 -10.875)" r="2"/>
  <linearGradient id="linearGradient3940" y2="42" xlink:href="#linearGradient3960" gradientUnits="userSpaceOnUse" x2="25" gradientTransform="matrix(1.0894 0 0 1.6667 -2.6903 -29)" y1="45" x1="25"/>
 </defs>
 <g id="layer1">
  <g id="g3942">
   <rect id="rect3985" style="opacity:0.12;fill:url(#linearGradient3940)" height="5" width="33.771" y="41" x="7.1143"/>
   <path id="path3987" style="opacity:0.12;fill:url(#radialGradient3937)" d="m40.886 41v5h0.52857c0.87849 0 1.5857-1.115 1.5857-2.5s-0.70723-2.5-1.5857-2.5h-0.52857z"/>
   <path id="path3989" style="opacity:0.12;fill:url(#radialGradient3934)" d="m6.4866 41c-0.8236 0-1.4866 1.045-1.4866 2.344v0.3125c0 1.2984 0.66303 2.3438 1.4866 2.3438h0.62768v-5h-0.62768z"/>
   <rect id="rect3938" style="opacity:0.12;fill:url(#linearGradient3931)" height="3" width="31.946" y="42" x="8.027"/>
   <path id="rect3940" style="opacity:0.12;fill:url(#radialGradient3928)" d="m40 42v3h0.5c0.831 0 1.5-0.669 1.5-1.5s-0.669-1.5-1.5-1.5h-0.5z"/>
   <path id="rect3942" style="opacity:0.12;fill:url(#radialGradient3925)" d="m7.4062 42c-0.77906 0-1.4062 0.62719-1.4062 1.4062v0.1875c0 0.77906 0.62719 1.4062 1.4062 1.4062h0.59375v-3h-0.59375z"/>
  </g>
  <path id="rect3886" style="opacity:.35;color:#bebebe" d="m40 3h-32c-0.554 0-1 0.446-1 1v39c0 0.554 0.446 1 1 1h32c0.554 0 1-0.446 1-1v-39c0-0.554-0.446-1-1-1z"/>
  <path id="rect3882" style="color:#bebebe;fill:url(#linearGradient3142)" d="m40 4h-32v39h32z"/>
  <path id="path3893" style="opacity:.4;fill:url(#linearGradient3920)" d="m40 4h-32v39h32zm-1 1v37h-30v-37z"/>
  <rect id="rect3144" style="opacity:.4;fill:#fff" height="1" width="32" y="4" x="8"/>
  <rect id="rect3922" style="opacity:.2;fill:#fff" height="1" width="32" y="42" x="8"/>
 </g>
 <g id="layer2">
  <path id="path4741" d="m25.987 13c1.3255 0 2.4 1.0745 2.4 2.4s-1.0745 2.4-2.4 2.4-2.4-1.0745-2.4-2.4c0.001-1.325 1.075-2.4 2.4-2.4zm-1.2 7.2c1.3296 0 2.4 1.0704 2.4 2.4 0 2.4-2.4 7.2-2.4 9.6 0 1.7027 0.91152 0.67167 1.65 0.15l1.125 1.65c-1.415 1.749-3.512 2.97-5.174 3-1.3296 0-2.4-1.0704-2.4-2.4 0-2.4 2.4-7.2 2.4-9.6 0-1.7027-0.91149-0.67167-1.65-0.15l-1.126-1.65c1.4153-1.7493 3.5123-2.9703 5.175-3z" style="opacity:.4;enable-background:new;fill:#fff"/>
  <path id="path3861" style="enable-background:new;fill:#ccc" d="m25.987 12c1.3255 0 2.4 1.0745 2.4 2.4s-1.0745 2.4-2.4 2.4-2.4-1.0745-2.4-2.4c0.001-1.325 1.075-2.4 2.4-2.4zm-1.2 7.2c1.3296 0 2.4 1.0704 2.4 2.4 0 2.4-2.4 7.2-2.4 9.6 0 1.7027 0.91152 0.67167 1.65 0.15l1.125 1.65c-1.415 1.749-3.512 2.97-5.174 3-1.3296 0-2.4-1.0704-2.4-2.4 0-2.4 2.4-7.2 2.4-9.6 0-1.7027-0.91149-0.67167-1.65-0.15l-1.126-1.65c1.4153-1.7493 3.5123-2.9703 5.175-3z"/>
  <path id="path4129" style="opacity:.1;enable-background:new" d="m26 12c-1.3255 0-2.4062 1.0808-2.4062 2.4062 0 0.16568-0.00072 0.31252 0.0312 0.46875 0.23506-1.0788 1.2257-1.875 2.375-1.875s2.1087 0.79617 2.3438 1.875c0.032-0.15623 0.0312-0.30307 0.0312-0.46875 0-1.325-1.05-2.406-2.375-2.406zm-1.2188 7.1875c-1.6627 0.0297-3.741 1.2507-5.1562 3l0.375 0.562c1.3934-1.5123 3.2609-2.5353 4.7812-2.5625 1.1634 0 2.1207 0.84189 2.3438 1.9375 0.0198-0.17958 0.0625-0.37152 0.0625-0.53125 0-1.3296-1.0766-2.4062-2.4062-2.4062zm-2.4375 5.2812c-0.249 2.508-2.344 6.865-2.344 9.125 0 0.1662-0.00062 0.34348 0.0312 0.5 0.26301-2.5134 2.3438-6.8433 2.3438-9.0938 0-0.21284-0.005-0.39751-0.0312-0.53125zm4.0938 6.875c-0.64615 0.45646-1.4092 1.3112-1.5938 0.375-0.0155 0.15631-0.0625 0.32798-0.0625 0.46875 0 1.7027 0.91779 0.67792 1.6562 0.15625l0.75 1.0938c0.13-0.142 0.253-0.288 0.374-0.438l-1.125-1.6562z"/>
 </g>
</svg>
