<?xml version="1.0" encoding="UTF-8" standalone="no"?>
<!-- Created with Inkscape (http://www.inkscape.org/) -->
<svg id="svg3759" xmlns:rdf="http://www.w3.org/1999/02/22-rdf-syntax-ns#" xmlns="http://www.w3.org/2000/svg" height="48" width="48" version="1.1" xmlns:cc="http://creativecommons.org/ns#" xmlns:xlink="http://www.w3.org/1999/xlink" xmlns:dc="http://purl.org/dc/elements/1.1/">
 <metadata id="metadata37">
  <rdf:RDF>
   <cc:Work rdf:about="">
    <dc:format>image/svg+xml</dc:format>
    <dc:type rdf:resource="http://purl.org/dc/dcmitype/StillImage"/>
    <dc:title/>
   </cc:Work>
  </rdf:RDF>
 </metadata>
 <defs id="defs3761">
  <linearGradient id="linearGradient3960">
   <stop id="stop3962" style="stop-opacity:0" offset="0"/>
   <stop id="stop3970" offset=".5"/>
   <stop id="stop3964" style="stop-opacity:0" offset="1"/>
  </linearGradient>
  <linearGradient id="linearGradient3952">
   <stop id="stop3954" offset="0"/>
   <stop id="stop3956" style="stop-opacity:0" offset="1"/>
  </linearGradient>
  <linearGradient id="linearGradient3142" y2="40" gradientUnits="userSpaceOnUse" x2="144" gradientTransform="matrix(-.175 0 0 .175 49.2 -5)" y1="280" x1="144">
   <stop id="stop3990-5" style="stop-color:#e8e8e8" offset="0"/>
   <stop id="stop3992-0" style="stop-color:#f0f0f0" offset="1"/>
  </linearGradient>
  <linearGradient id="linearGradient3920" y2="48" gradientUnits="userSpaceOnUse" x2="24" x1="24">
   <stop id="stop3916" style="stop-color:#fff" offset="0"/>
   <stop id="stop3918" style="stop-color:#fff;stop-opacity:0" offset="1"/>
  </linearGradient>
  <radialGradient id="radialGradient3925" xlink:href="#linearGradient3952" gradientUnits="userSpaceOnUse" cy="43.5" cx="9" gradientTransform="matrix(1 0 0 .75 -1 10.875)" r="2"/>
  <radialGradient id="radialGradient3928" xlink:href="#linearGradient3952" gradientUnits="userSpaceOnUse" cy="43.5" cx="40" gradientTransform="matrix(1 0 0 .75 -3e-7 10.875)" r="2"/>
  <linearGradient id="linearGradient3931" y2="42" xlink:href="#linearGradient3960" gradientUnits="userSpaceOnUse" x2="25" gradientTransform="matrix(1.0305 0 0 1 -1.2476 0)" y1="45" x1="25"/>
  <radialGradient id="radialGradient3934" xlink:href="#linearGradient3952" gradientUnits="userSpaceOnUse" cy="43.5" cx="9" gradientTransform="matrix(1.0571 0 0 1.25 -2.4 -10.875)" r="2"/>
  <radialGradient id="radialGradient3937" xlink:href="#linearGradient3952" gradientUnits="userSpaceOnUse" cy="43.5" cx="40" gradientTransform="matrix(1.0571 0 0 1.25 -1.4 -10.875)" r="2"/>
  <linearGradient id="linearGradient3940" y2="42" xlink:href="#linearGradient3960" gradientUnits="userSpaceOnUse" x2="25" gradientTransform="matrix(1.0894 0 0 1.6667 -2.6903 -29)" y1="45" x1="25"/>
 </defs>
 <g id="layer1">
  <g id="g3942">
   <rect id="rect3985" style="opacity:0.12;fill:url(#linearGradient3940)" height="5" width="33.771" y="41" x="7.1143"/>
   <path id="path3987" style="opacity:0.12;fill:url(#radialGradient3937)" d="m40.886 41v5h0.52857c0.87849 0 1.5857-1.115 1.5857-2.5s-0.70723-2.5-1.5857-2.5h-0.52857z"/>
   <path id="path3989" style="opacity:0.12;fill:url(#radialGradient3934)" d="m6.4866 41c-0.8236 0-1.4866 1.045-1.4866 2.344v0.3125c0 1.2984 0.66303 2.3438 1.4866 2.3438h0.62768v-5h-0.62768z"/>
   <rect id="rect3938" style="opacity:0.12;fill:url(#linearGradient3931)" height="3" width="31.946" y="42" x="8.027"/>
   <path id="rect3940" style="opacity:0.12;fill:url(#radialGradient3928)" d="m40 42v3h0.5c0.831 0 1.5-0.669 1.5-1.5s-0.669-1.5-1.5-1.5h-0.5z"/>
   <path id="rect3942" style="opacity:0.12;fill:url(#radialGradient3925)" d="m7.4062 42c-0.77906 0-1.4062 0.62719-1.4062 1.4062v0.1875c0 0.77906 0.62719 1.4062 1.4062 1.4062h0.59375v-3h-0.59375z"/>
  </g>
  <path id="rect3886" style="opacity:.35;color:#bebebe" d="m40 3h-32c-0.554 0-1 0.446-1 1v39c0 0.554 0.446 1 1 1h32c0.554 0 1-0.446 1-1v-39c0-0.554-0.446-1-1-1z"/>
  <path id="rect3882" style="color:#bebebe;fill:url(#linearGradient3142)" d="m40 4h-32v39h32z"/>
  <path id="path3893" style="opacity:.4;fill:url(#linearGradient3920)" d="m40 4h-32v39h32zm-1 1v37h-30v-37z"/>
  <rect id="rect3144" style="opacity:.4;fill:#fff" height="1" width="32" y="4" x="8"/>
  <rect id="rect3922" style="opacity:.2;fill:#fff" height="1" width="32" y="42" x="8"/>
 </g>
 <g id="layer2">
  <path id="path3961" d="m24 15.275c-2.9455 0-5.3333 2.3878-5.3333 5.3333s2.3878 5.3333 5.3333 5.3333 5.3333-2.3878 5.3333-5.3333-2.3878-5.3333-5.3333-5.3333zm-4.278 10.388c-2.998 1.553-3.722 4.669-3.722 8.278h16c0-3.609-0.696-6.725-3.694-8.278-1.167 0.998-2.661 1.612-4.306 1.612-1.6452 0-3.1117-0.61355-4.2778-1.6111z" style="opacity:.4;color:#bebebe;fill:#fff"/>
  <path id="path6751-4" style="color:#bebebe;fill:#ccc" d="m24 14.333c-2.9455 0-5.3333 2.3878-5.3333 5.3333 0 2.946 2.387 5.334 5.333 5.334 2.9455 0 5.3333-2.3878 5.3333-5.3333s-2.3878-5.3333-5.3333-5.3333zm-4.278 10.389c-2.998 1.553-3.722 4.669-3.722 8.278h16c0-3.6095-0.69623-6.725-3.6944-8.2778-1.1661 0.99756-2.6603 1.6111-4.3056 1.6111-1.6452 0-3.1117-0.61355-4.2778-1.6111z"/>
  <path id="path3956" style="opacity:.1;color:#bebebe" d="m24 14.324c-2.9455 0-5.3235 2.4074-5.3235 5.3529 0 0.13312 0.01983 0.25168 0.02942 0.38235 0.27312-2.6894 2.5327-4.7941 5.2941-4.7941s5.021 2.1048 5.2941 4.7941c0.0096-0.13067 0.02942-0.24924 0.02942-0.38235 0-2.9455-2.378-5.3529-5.3235-5.3529zm-4.265 10.411c-2.998 1.553-3.735 4.656-3.735 8.265h0.02941c0.12846-3.2008 0.97423-5.9088 3.7059-7.3235 1.1661 0.99756 2.6195 1.5882 4.2647 1.5882s3.128-0.59067 4.2941-1.5882c2.7317 1.4147 3.5521 4.1227 3.6765 7.3235h0.02942c0-3.6095-0.70767-6.712-3.7059-8.2647-1.1661 0.99756-2.6489 1.5882-4.2941 1.5882s-3.0986-0.59068-4.2647-1.5882z"/>
 </g>
</svg>
