<?xml version="1.0" encoding="UTF-8" standalone="no"?>
<!-- Created with Inkscape (http://www.inkscape.org/) -->
<svg id="svg3759" xmlns:rdf="http://www.w3.org/1999/02/22-rdf-syntax-ns#" xmlns="http://www.w3.org/2000/svg" height="48" width="48" version="1.1" xmlns:cc="http://creativecommons.org/ns#" xmlns:xlink="http://www.w3.org/1999/xlink" xmlns:dc="http://purl.org/dc/elements/1.1/">
 <metadata id="metadata37">
  <rdf:RDF>
   <cc:Work rdf:about="">
    <dc:format>image/svg+xml</dc:format>
    <dc:type rdf:resource="http://purl.org/dc/dcmitype/StillImage"/>
    <dc:title/>
   </cc:Work>
  </rdf:RDF>
 </metadata>
 <defs id="defs3761">
  <linearGradient id="linearGradient3960">
   <stop id="stop3962" style="stop-opacity:0" offset="0"/>
   <stop id="stop3970" offset=".5"/>
   <stop id="stop3964" style="stop-opacity:0" offset="1"/>
  </linearGradient>
  <linearGradient id="linearGradient3952">
   <stop id="stop3954" offset="0"/>
   <stop id="stop3956" style="stop-opacity:0" offset="1"/>
  </linearGradient>
  <linearGradient id="linearGradient3142" y2="40" gradientUnits="userSpaceOnUse" x2="144" gradientTransform="matrix(-.175 0 0 .175 49.2 -5)" y1="280" x1="144">
   <stop id="stop3990-5" style="stop-color:#e8e8e8" offset="0"/>
   <stop id="stop3992-0" style="stop-color:#f0f0f0" offset="1"/>
  </linearGradient>
  <linearGradient id="linearGradient3920" y2="48" gradientUnits="userSpaceOnUse" x2="24" x1="24">
   <stop id="stop3916" style="stop-color:#fff" offset="0"/>
   <stop id="stop3918" style="stop-color:#fff;stop-opacity:0" offset="1"/>
  </linearGradient>
  <radialGradient id="radialGradient3925" xlink:href="#linearGradient3952" gradientUnits="userSpaceOnUse" cy="43.5" cx="9" gradientTransform="matrix(1 0 0 .75 -1 10.875)" r="2"/>
  <radialGradient id="radialGradient3928" xlink:href="#linearGradient3952" gradientUnits="userSpaceOnUse" cy="43.5" cx="40" gradientTransform="matrix(1 0 0 .75 -3e-7 10.875)" r="2"/>
  <linearGradient id="linearGradient3931" y2="42" xlink:href="#linearGradient3960" gradientUnits="userSpaceOnUse" x2="25" gradientTransform="matrix(1.0305 0 0 1 -1.2476 0)" y1="45" x1="25"/>
  <radialGradient id="radialGradient3934" xlink:href="#linearGradient3952" gradientUnits="userSpaceOnUse" cy="43.5" cx="9" gradientTransform="matrix(1.0571 0 0 1.25 -2.4 -10.875)" r="2"/>
  <radialGradient id="radialGradient3937" xlink:href="#linearGradient3952" gradientUnits="userSpaceOnUse" cy="43.5" cx="40" gradientTransform="matrix(1.0571 0 0 1.25 -1.4 -10.875)" r="2"/>
  <linearGradient id="linearGradient3940" y2="42" xlink:href="#linearGradient3960" gradientUnits="userSpaceOnUse" x2="25" gradientTransform="matrix(1.0894 0 0 1.6667 -2.6903 -29)" y1="45" x1="25"/>
  <linearGradient id="linearGradient4093" y2="-92" gradientUnits="userSpaceOnUse" x2="1304" gradientTransform="matrix(.96429 0 0 .96429 -1218 92.929)" y1="-50" x1="1304">
   <stop id="stop8087" style="stop-color:#37a12e" offset="0"/>
   <stop id="stop8089" style="stop-color:#54bc43" offset="1"/>
  </linearGradient>
 </defs>
 <g id="layer1">
  <g id="g3942">
   <rect id="rect3985" style="opacity:0.12;fill:url(#linearGradient3940)" height="5" width="33.771" y="41" x="7.1143"/>
   <path id="path3987" style="opacity:0.12;fill:url(#radialGradient3937)" d="m40.886 41v5h0.52857c0.87849 0 1.5857-1.115 1.5857-2.5s-0.70723-2.5-1.5857-2.5h-0.52857z"/>
   <path id="path3989" style="opacity:0.12;fill:url(#radialGradient3934)" d="m6.4866 41c-0.8236 0-1.4866 1.045-1.4866 2.344v0.3125c0 1.2984 0.66303 2.3438 1.4866 2.3438h0.62768v-5h-0.62768z"/>
   <rect id="rect3938" style="opacity:0.12;fill:url(#linearGradient3931)" height="3" width="31.946" y="42" x="8.027"/>
   <path id="rect3940" style="opacity:0.12;fill:url(#radialGradient3928)" d="m40 42v3h0.5c0.831 0 1.5-0.669 1.5-1.5s-0.669-1.5-1.5-1.5h-0.5z"/>
   <path id="rect3942" style="opacity:0.12;fill:url(#radialGradient3925)" d="m7.4062 42c-0.77906 0-1.4062 0.62719-1.4062 1.4062v0.1875c0 0.77906 0.62719 1.4062 1.4062 1.4062h0.59375v-3h-0.59375z"/>
  </g>
  <path id="rect3886" style="opacity:.35;color:#bebebe" d="m40 3h-32c-0.554 0-1 0.446-1 1v39c0 0.554 0.446 1 1 1h32c0.554 0 1-0.446 1-1v-39c0-0.554-0.446-1-1-1z"/>
  <path id="rect3882" style="color:#bebebe;fill:url(#linearGradient3142)" d="m40 4h-32v39h32z"/>
  <path id="path3893" style="opacity:.4;fill:url(#linearGradient3920)" d="m40 4h-32v39h32zm-1 1v37h-30v-37z"/>
  <rect id="rect3144" style="opacity:.4;fill:#fff" height="1" width="32" y="4" x="8"/>
  <rect id="rect3922" style="opacity:.2;fill:#fff" height="1" width="32" y="42" x="8"/>
 </g>
 <g id="layer2">
  <path id="path4109" style="opacity:0.41;stroke:#fff;fill:#fff" d="m16 18.468c-1.1196 0.000011-2.0706 0.2259-2.9062 0.71875-0.83035 0.48751-1.4929 1.2036-1.9375 2.125-0.444 0.916-0.656 1.998-0.656 3.219 0 1.9393 0.43838 3.4295 1.3438 4.4688 0.90537 1.0339 2.2285 1.5312 3.9375 1.5312 1.1893-0.000001 2.2545-0.19196 3.2188-0.59375v-2.0938c-1.1732 0.4125-2.175 0.625-3 0.625-1.9661 0.000002-2.9375-1.3179-2.9375-3.9375 0-1.2589 0.267-2.2357 0.78125-2.9375 0.51425-0.70713 1.2188-1.0625 2.1562-1.0625 0.42862 0.00001 0.86777 0.09465 1.3125 0.25 0.44463 0.15537 0.90442 0.32233 1.3438 0.53125l0.782-2.031c-1.152-0.552-2.297-0.812-3.438-0.813zm8.9062 0c-1.2429 0.000011-2.2303 0.28037-2.9375 0.875-0.70171 0.59465-1.0625 1.4295-1.0625 2.4688 0 0.55179 0.12948 1.025 0.34375 1.4375 0.21426 0.41251 0.48475 0.78304 0.84375 1.0938 0.35891 0.31072 0.90709 0.63126 1.625 0.96875 0.76603 0.36429 1.2535 0.61518 1.5 0.78125 0.25178 0.16608 0.46521 0.34911 0.59375 0.53125 0.12825 0.17679 0.1875 0.39465 0.1875 0.625 0 0.4125-0.14281 0.69732-0.4375 0.90625-0.28929 0.20893-0.70354 0.3125-1.25 0.3125-0.45534 0.000002-0.97939-0.0741-1.5312-0.21875-0.54636-0.14464-1.2072-0.36518-2-0.71875v2.3125c0.96429 0.47143 2.0589 0.6875 3.3125 0.6875 1.3607-0.000001 2.4268-0.29554 3.1875-0.90625 0.76603-0.61071 1.1562-1.4393 1.1562-2.5 0-0.76607-0.21788-1.4125-0.625-1.9375-0.40712-0.53035-1.1519-1.0687-2.25-1.5938-0.83-0.395-1.368-0.661-1.593-0.811-0.22-0.155-0.367-0.308-0.469-0.469-0.102-0.166-0.156-0.374-0.156-0.594 0-0.35356 0.12322-0.6241 0.375-0.84375 0.25178-0.21963 0.62231-0.34374 1.0938-0.34375 0.39642 0.00001 0.81163 0.05448 1.2188 0.15625 0.41252 0.1018 0.90446 0.27412 1.5312 0.53125l0.812-1.937c-0.60538-0.26249-1.1928-0.4491-1.75-0.59375-0.55176-0.14463-1.1081-0.21874-1.7188-0.21875zm9.0625 0c-1.2429 0.000011-2.2303 0.28037-2.9375 0.875-0.70171 0.59465-1.0625 1.4295-1.0625 2.4688 0 0.55179 0.12949 1.025 0.34375 1.4375 0.21426 0.41251 0.48475 0.78304 0.84375 1.0938 0.35891 0.31072 0.90709 0.63126 1.625 0.96875 0.76603 0.36429 1.2535 0.61518 1.5 0.78125 0.25178 0.16608 0.46521 0.34911 0.59375 0.53125 0.12825 0.17679 0.1875 0.39465 0.1875 0.625 0 0.4125-0.14281 0.69732-0.4375 0.90625-0.28929 0.20893-0.70354 0.3125-1.25 0.3125-0.45534 0.000002-0.97939-0.0741-1.5312-0.21875-0.54636-0.14464-1.2072-0.36518-2-0.71875v2.3125c0.96428 0.47143 2.0589 0.6875 3.3125 0.6875 1.3607-0.000001 2.4268-0.29554 3.1875-0.90625 0.76603-0.61071 1.1562-1.4393 1.1562-2.5 0-0.76607-0.21788-1.4125-0.625-1.9375-0.40712-0.53035-1.1519-1.0687-2.25-1.5938-0.83035-0.39642-1.3375-0.66249-1.5625-0.8125-0.21966-0.15535-0.39817-0.30803-0.5-0.46875-0.10154-0.16606-0.15625-0.3741-0.15625-0.59375 0-0.35356 0.12322-0.6241 0.375-0.84375 0.25178-0.21963 0.62231-0.34374 1.0938-0.34375 0.39642 0.00001 0.81163 0.05448 1.2188 0.15625 0.41252 0.1018 0.90446 0.27412 1.5312 0.53125l0.8125-1.9375c-0.60538-0.26249-1.1928-0.4491-1.75-0.59375-0.55176-0.14463-1.1081-0.21874-1.7188-0.21875z"/>
  <path id="path9908" style="fill:url(#linearGradient4093)" d="m16 17.469c-1.1196 0.000011-2.0706 0.2259-2.9062 0.71875-0.83035 0.48751-1.4929 1.2036-1.9375 2.125-0.444 0.916-0.656 1.997-0.656 3.218 0 1.9393 0.43838 3.4295 1.3438 4.4688 0.90537 1.0339 2.2285 1.5312 3.9375 1.5312 1.1893-0.000001 2.2545-0.19196 3.2188-0.59375v-2.0938c-1.1732 0.4125-2.175 0.625-3 0.625-1.9661 0.000002-2.9375-1.3179-2.9375-3.9375 0-1.2589 0.267-2.2357 0.78125-2.9375 0.51425-0.70713 1.2188-1.0625 2.1562-1.0625 0.42862 0.00001 0.86777 0.09465 1.3125 0.25 0.44463 0.15537 0.90442 0.32233 1.3438 0.53125l0.782-2.031c-1.152-0.552-2.297-0.812-3.438-0.812zm8.9062 0c-1.2429 0.000011-2.2303 0.28037-2.9375 0.875-0.70171 0.59465-1.0625 1.4295-1.0625 2.4688 0 0.55179 0.12948 1.025 0.34375 1.4375 0.21426 0.41251 0.48475 0.78304 0.84375 1.0938 0.35891 0.31072 0.90709 0.63126 1.625 0.96875 0.76603 0.36429 1.2535 0.61518 1.5 0.78125 0.25178 0.16608 0.46521 0.34911 0.59375 0.53125 0.129 0.177 0.188 0.395 0.188 0.625 0 0.4125-0.14281 0.69732-0.4375 0.90625-0.28929 0.20893-0.70354 0.3125-1.25 0.3125-0.45534 0.000002-0.97939-0.0741-1.5312-0.21875-0.54636-0.14464-1.2072-0.36518-2-0.71875v2.3125c0.96429 0.47143 2.0589 0.6875 3.3125 0.6875 1.3607-0.000001 2.4268-0.29554 3.1875-0.90625 0.76603-0.61071 1.1562-1.4393 1.1562-2.5 0-0.76607-0.21788-1.4125-0.625-1.9375-0.40712-0.53035-1.1519-1.0687-2.25-1.5938-0.83035-0.39642-1.3688-0.66249-1.5938-0.8125-0.219-0.155-0.366-0.308-0.468-0.469-0.10154-0.16606-0.15625-0.3741-0.15625-0.59375 0-0.35356 0.12322-0.6241 0.375-0.84375 0.25178-0.21963 0.62231-0.34374 1.0938-0.34375 0.39642 0.00001 0.81163 0.05448 1.2188 0.15625 0.41252 0.1018 0.90446 0.27412 1.5312 0.53125l0.8125-1.9375c-0.60538-0.26249-1.1928-0.4491-1.75-0.59375-0.55176-0.14463-1.1081-0.21874-1.7188-0.21875zm9.0625 0c-1.2429 0.000011-2.2303 0.28037-2.9375 0.875-0.70171 0.59465-1.0625 1.4295-1.0625 2.4688 0 0.55179 0.12949 1.025 0.34375 1.4375 0.21426 0.41251 0.48475 0.78304 0.84375 1.0938 0.35891 0.31072 0.90709 0.63126 1.625 0.96875 0.76603 0.36429 1.2535 0.61518 1.5 0.78125 0.25178 0.16608 0.46521 0.34911 0.59375 0.53125 0.12825 0.17679 0.1875 0.39465 0.1875 0.625 0 0.4125-0.14281 0.69732-0.4375 0.90625-0.28929 0.20893-0.70354 0.3125-1.25 0.3125-0.45534 0.000002-0.97939-0.0741-1.5312-0.21875-0.54636-0.14464-1.2072-0.36518-2-0.71875v2.3125c0.96428 0.47143 2.0589 0.6875 3.3125 0.6875 1.3607-0.000001 2.4268-0.29554 3.1875-0.90625 0.76603-0.61071 1.1562-1.4393 1.1562-2.5 0-0.76607-0.21788-1.4125-0.625-1.9375-0.40712-0.53035-1.1519-1.0687-2.25-1.5938-0.83035-0.39642-1.3375-0.66249-1.5625-0.8125-0.21966-0.15535-0.39817-0.30803-0.5-0.46875-0.10154-0.16606-0.15625-0.3741-0.15625-0.59375 0-0.35356 0.12322-0.6241 0.375-0.84375 0.25178-0.21963 0.62231-0.34374 1.0938-0.34375 0.39642 0.00001 0.81163 0.05448 1.2188 0.15625 0.41252 0.1018 0.90446 0.27412 1.5312 0.53125l0.8125-1.9375c-0.60538-0.26249-1.1928-0.4491-1.75-0.59375-0.55176-0.14463-1.1081-0.21874-1.7188-0.21875z"/>
  <path id="path4107" d="m16 17.469c-1.1196 0.000011-2.0706 0.2259-2.9062 0.71875-0.83035 0.48751-1.4929 1.2036-1.9375 2.125-0.444 0.916-0.656 1.997-0.656 3.218 0 1.9393 0.43838 3.4295 1.3438 4.4688 0.90537 1.0339 2.2285 1.5312 3.9375 1.5312 1.1893-0.000001 2.2545-0.19196 3.2188-0.59375v-2.0938c-1.1732 0.4125-2.175 0.625-3 0.625-1.9661 0.000002-2.9375-1.3179-2.9375-3.9375 0-1.2589 0.267-2.2357 0.78125-2.9375 0.51425-0.70713 1.2188-1.0625 2.1562-1.0625 0.42862 0.00001 0.86777 0.09465 1.3125 0.25 0.44463 0.15537 0.90442 0.32233 1.3438 0.53125l0.782-2.031c-1.152-0.552-2.297-0.812-3.438-0.812zm8.9062 0c-1.2429 0.000011-2.2303 0.28037-2.9375 0.875-0.70171 0.59465-1.0625 1.4295-1.0625 2.4688 0 0.55179 0.12948 1.025 0.34375 1.4375 0.21426 0.41251 0.48475 0.78304 0.84375 1.0938 0.35891 0.31072 0.90709 0.63126 1.625 0.96875 0.76603 0.36429 1.2535 0.61518 1.5 0.78125 0.25178 0.16608 0.46521 0.34911 0.59375 0.53125 0.129 0.177 0.188 0.395 0.188 0.625 0 0.4125-0.14281 0.69732-0.4375 0.90625-0.28929 0.20893-0.70354 0.3125-1.25 0.3125-0.45534 0.000002-0.97939-0.0741-1.5312-0.21875-0.54636-0.14464-1.2072-0.36518-2-0.71875v2.3125c0.96429 0.47143 2.0589 0.6875 3.3125 0.6875 1.3607-0.000001 2.4268-0.29554 3.1875-0.90625 0.76603-0.61071 1.1562-1.4393 1.1562-2.5 0-0.76607-0.21788-1.4125-0.625-1.9375-0.40712-0.53035-1.1519-1.0687-2.25-1.5938-0.83035-0.39642-1.3688-0.66249-1.5938-0.8125-0.219-0.155-0.366-0.308-0.468-0.469-0.10154-0.16606-0.15625-0.3741-0.15625-0.59375 0-0.35356 0.12322-0.6241 0.375-0.84375 0.25178-0.21963 0.62231-0.34374 1.0938-0.34375 0.39642 0.00001 0.81163 0.05448 1.2188 0.15625 0.41252 0.1018 0.90446 0.27412 1.5312 0.53125l0.8125-1.9375c-0.60538-0.26249-1.1928-0.4491-1.75-0.59375-0.55176-0.14463-1.1081-0.21874-1.7188-0.21875zm9.0625 0c-1.2429 0.000011-2.2303 0.28037-2.9375 0.875-0.70171 0.59465-1.0625 1.4295-1.0625 2.4688 0 0.55179 0.12949 1.025 0.34375 1.4375 0.21426 0.41251 0.48475 0.78304 0.84375 1.0938 0.35891 0.31072 0.90709 0.63126 1.625 0.96875 0.76603 0.36429 1.2535 0.61518 1.5 0.78125 0.25178 0.16608 0.46521 0.34911 0.59375 0.53125 0.12825 0.17679 0.1875 0.39465 0.1875 0.625 0 0.4125-0.14281 0.69732-0.4375 0.90625-0.28929 0.20893-0.70354 0.3125-1.25 0.3125-0.45534 0.000002-0.97939-0.0741-1.5312-0.21875-0.54636-0.14464-1.2072-0.36518-2-0.71875v2.3125c0.96428 0.47143 2.0589 0.6875 3.3125 0.6875 1.3607-0.000001 2.4268-0.29554 3.1875-0.90625 0.76603-0.61071 1.1562-1.4393 1.1562-2.5 0-0.76607-0.21788-1.4125-0.625-1.9375-0.40712-0.53035-1.1519-1.0687-2.25-1.5938-0.83035-0.39642-1.3375-0.66249-1.5625-0.8125-0.21966-0.15535-0.39817-0.30803-0.5-0.46875-0.10154-0.16606-0.15625-0.3741-0.15625-0.59375 0-0.35356 0.12322-0.6241 0.375-0.84375 0.25178-0.21963 0.62231-0.34374 1.0938-0.34375 0.39642 0.00001 0.81163 0.05448 1.2188 0.15625 0.41252 0.1018 0.90446 0.27412 1.5312 0.53125l0.8125-1.9375c-0.60538-0.26249-1.1928-0.4491-1.75-0.59375-0.55176-0.14463-1.1081-0.21874-1.7188-0.21875z" style="opacity:0.61;stroke:#070;fill:none"/>
 </g>
</svg>
