<?xml version="1.0" encoding="UTF-8" standalone="no"?>
<!-- Created with Inkscape (http://www.inkscape.org/) -->
<svg id="svg3759" xmlns:rdf="http://www.w3.org/1999/02/22-rdf-syntax-ns#" xmlns="http://www.w3.org/2000/svg" height="48" width="48" version="1.1" xmlns:cc="http://creativecommons.org/ns#" xmlns:xlink="http://www.w3.org/1999/xlink" xmlns:dc="http://purl.org/dc/elements/1.1/">
 <metadata id="metadata37">
  <rdf:RDF>
   <cc:Work rdf:about="">
    <dc:format>image/svg+xml</dc:format>
    <dc:type rdf:resource="http://purl.org/dc/dcmitype/StillImage"/>
    <dc:title/>
   </cc:Work>
  </rdf:RDF>
 </metadata>
 <defs id="defs3761">
  <linearGradient id="linearGradient3960">
   <stop id="stop3962" style="stop-opacity:0" offset="0"/>
   <stop id="stop3970" offset=".5"/>
   <stop id="stop3964" style="stop-opacity:0" offset="1"/>
  </linearGradient>
  <linearGradient id="linearGradient3952">
   <stop id="stop3954" offset="0"/>
   <stop id="stop3956" style="stop-opacity:0" offset="1"/>
  </linearGradient>
  <linearGradient id="linearGradient3142" y2="40" gradientUnits="userSpaceOnUse" x2="144" gradientTransform="matrix(-.175 0 0 .175 49.2 -5)" y1="280" x1="144">
   <stop id="stop3990-5" style="stop-color:#e8e8e8" offset="0"/>
   <stop id="stop3992-0" style="stop-color:#f0f0f0" offset="1"/>
  </linearGradient>
  <linearGradient id="linearGradient3920" y2="48" gradientUnits="userSpaceOnUse" x2="24" x1="24">
   <stop id="stop3916" style="stop-color:#fff" offset="0"/>
   <stop id="stop3918" style="stop-color:#fff;stop-opacity:0" offset="1"/>
  </linearGradient>
  <radialGradient id="radialGradient3925" xlink:href="#linearGradient3952" gradientUnits="userSpaceOnUse" cy="43.5" cx="9" gradientTransform="matrix(1 0 0 .75 -1 10.875)" r="2"/>
  <radialGradient id="radialGradient3928" xlink:href="#linearGradient3952" gradientUnits="userSpaceOnUse" cy="43.5" cx="40" gradientTransform="matrix(1 0 0 .75 -3e-7 10.875)" r="2"/>
  <linearGradient id="linearGradient3931" y2="42" xlink:href="#linearGradient3960" gradientUnits="userSpaceOnUse" x2="25" gradientTransform="matrix(1.0305 0 0 1 -1.2476 0)" y1="45" x1="25"/>
  <radialGradient id="radialGradient3934" xlink:href="#linearGradient3952" gradientUnits="userSpaceOnUse" cy="43.5" cx="9" gradientTransform="matrix(1.0571 0 0 1.25 -2.4 -10.875)" r="2"/>
  <radialGradient id="radialGradient3937" xlink:href="#linearGradient3952" gradientUnits="userSpaceOnUse" cy="43.5" cx="40" gradientTransform="matrix(1.0571 0 0 1.25 -1.4 -10.875)" r="2"/>
  <linearGradient id="linearGradient3940" y2="42" xlink:href="#linearGradient3960" gradientUnits="userSpaceOnUse" x2="25" gradientTransform="matrix(1.0894 0 0 1.6667 -2.6903 -29)" y1="45" x1="25"/>
 </defs>
 <g id="layer1">
  <g id="g3942">
   <rect id="rect3985" style="opacity:0.12;fill:url(#linearGradient3940)" height="5" width="33.771" y="41" x="7.1143"/>
   <path id="path3987" style="opacity:0.12;fill:url(#radialGradient3937)" d="m40.886 41v5h0.52857c0.87849 0 1.5857-1.115 1.5857-2.5s-0.70723-2.5-1.5857-2.5h-0.52857z"/>
   <path id="path3989" style="opacity:0.12;fill:url(#radialGradient3934)" d="m6.4866 41c-0.8236 0-1.4866 1.045-1.4866 2.344v0.3125c0 1.2984 0.66303 2.3438 1.4866 2.3438h0.62768v-5h-0.62768z"/>
   <rect id="rect3938" style="opacity:0.12;fill:url(#linearGradient3931)" height="3" width="31.946" y="42" x="8.027"/>
   <path id="rect3940" style="opacity:0.12;fill:url(#radialGradient3928)" d="m40 42v3h0.5c0.831 0 1.5-0.669 1.5-1.5s-0.669-1.5-1.5-1.5h-0.5z"/>
   <path id="rect3942" style="opacity:0.12;fill:url(#radialGradient3925)" d="m7.4062 42c-0.77906 0-1.4062 0.62719-1.4062 1.4062v0.1875c0 0.77906 0.62719 1.4062 1.4062 1.4062h0.59375v-3h-0.59375z"/>
  </g>
  <path id="rect3886" style="opacity:.35;color:#bebebe" d="m40 3h-32c-0.554 0-1 0.446-1 1v39c0 0.554 0.446 1 1 1h32c0.554 0 1-0.446 1-1v-39c0-0.554-0.446-1-1-1z"/>
  <path id="rect3882" style="color:#bebebe;fill:url(#linearGradient3142)" d="m40 4h-32v39h32z"/>
  <path id="path3893" style="opacity:.4;fill:url(#linearGradient3920)" d="m40 4h-32v39h32zm-1 1v37h-30v-37z"/>
  <rect id="rect3144" style="opacity:.4;fill:#fff" height="1" width="32" y="4" x="8"/>
  <rect id="rect3922" style="opacity:.2;fill:#fff" height="1" width="32" y="42" x="8"/>
 </g>
 <g id="layer2">
  <path id="path3975" style="opacity:.5;enable-background:new;fill:#fff" d="m24.629 20.958c-0.94594 0.00001-1.6773 0.36083-2.1942 1.0824-0.51686 0.72165-0.77528 1.7212-0.77527 2.9987-0.00001 2.7305 0.9898 4.0958 2.9694 4.0957 0.55583 0.00001 1.1556-0.0731 1.7992-0.21942 0.6436-0.14626 1.2433-0.3608 1.7992-0.64361v2.7939c-1.1702 0.55586-2.399 0.83378-3.6862 0.83378-1.9894 0-3.5302-0.60948-4.6223-1.8285-1.0922-1.219-1.6383-2.906-1.6383-5.0612 0-2.1454 0.53634-3.8129 1.609-5.0027 1.0824-1.1994 2.594-1.7992 4.5346-1.7992 1.453 0.00002 2.9401 0.38033 4.4614 1.141l-1.0824 2.4574c-1.102-0.56559-2.16-0.84839-3.1742-0.8484m-11.629 4.081c0-1.9504 0.48758-3.7788 1.4628-5.4854 0.97518-1.7065 2.316-3.0523 4.0226-4.0372 1.7066-0.98491 3.5448-1.4774 5.5146-1.4774 1.9503 0.00003 3.7788 0.48761 5.4854 1.4628 1.7065 0.9752 3.0523 2.3161 4.0372 4.0226 0.98491 1.7066 1.4774 3.5448 1.4774 5.5146-0.00003 1.9211-0.47299 3.7252-1.4189 5.4122-0.94594 1.6871-2.2722 3.0377-3.9787 4.0519-1.7066 1.0142-3.574 1.5213-5.6024 1.5213-2.0186 0-3.8812-0.50222-5.5878-1.5066-1.705-1.014-3.036-2.364-3.992-4.051-0.946-1.687-1.419-3.496-1.419-5.427m2.0771 0c-0.00001 1.5993 0.39981 3.0913 1.1995 4.4761 0.79964 1.375 1.8918 2.4623 3.2766 3.262 1.3847 0.78989 2.867 1.1848 4.4468 1.1848 1.5993 0 3.0864-0.39982 4.4614-1.1995 1.3847-0.79964 2.4721-1.8918 3.262-3.2766 0.79963-1.3847 1.1994-2.867 1.1995-4.4468-0.00002-1.5993-0.39984-3.0864-1.1995-4.4614-0.799-1.385-1.891-2.473-3.276-3.263-1.385-0.799-2.867-1.199-4.447-1.199-1.5993 0.00002-3.0913 0.39984-4.4761 1.1995-1.375 0.79966-2.4623 1.8919-3.262 3.2766-0.7899 1.3848-1.1848 2.867-1.1848 4.4468"/>
  <path id="path7356" d="m24.629 19.957c-0.94594 0.00001-1.6773 0.36083-2.1942 1.0824-0.51686 0.72165-0.77528 1.7212-0.77527 2.9987-0.00001 2.7305 0.9898 4.0958 2.9694 4.0957 0.55583 0.00001 1.1556-0.0731 1.7992-0.21942 0.6436-0.14626 1.2433-0.3608 1.7992-0.64361v2.7939c-1.1702 0.55586-2.399 0.83378-3.6862 0.83378-1.9894 0-3.5302-0.60948-4.6223-1.8285-1.0922-1.219-1.6383-2.906-1.6383-5.0612 0-2.1454 0.53634-3.8129 1.609-5.0027 1.0824-1.1994 2.594-1.7992 4.5346-1.7992 1.453 0.00002 2.9401 0.38033 4.4614 1.141l-1.0824 2.4574c-1.102-0.56559-2.16-0.84839-3.1742-0.8484m-11.629 4.082c0-1.9504 0.48758-3.7788 1.4628-5.4854 0.97518-1.7065 2.316-3.0523 4.0226-4.0372 1.7066-0.98491 3.5448-1.4774 5.5146-1.4774 1.9503 0.00003 3.7788 0.48761 5.4854 1.4628 1.7065 0.9752 3.0523 2.3161 4.0372 4.0226 0.98491 1.7066 1.4774 3.5448 1.4774 5.5146-0.00003 1.9211-0.47299 3.7252-1.4189 5.4122-0.94594 1.6871-2.2722 3.0377-3.9787 4.0519-1.7066 1.0142-3.574 1.5213-5.6024 1.5213-2.0186 0-3.8812-0.50222-5.5878-1.5066-1.7066-1.0142-3.0377-2.3648-3.9934-4.0519-0.945-1.688-1.418-3.497-1.418-5.427m2.0771 0c-0.00001 1.5993 0.39981 3.0913 1.1995 4.4761 0.79964 1.375 1.8918 2.4623 3.2766 3.262 1.3847 0.78989 2.867 1.1848 4.4468 1.1848 1.5993 0 3.0864-0.39982 4.4614-1.1995 1.3847-0.79964 2.4721-1.8918 3.262-3.2766 0.79963-1.3847 1.1994-2.867 1.1995-4.4468-0.00002-1.5993-0.39984-3.0864-1.1995-4.4614-0.799-1.386-1.891-2.473-3.276-3.263-1.385-0.799-2.867-1.199-4.447-1.199-1.5993 0.00002-3.0913 0.39984-4.4761 1.1995-1.375 0.79966-2.4623 1.8919-3.262 3.2766-0.7899 1.3848-1.1848 2.867-1.1848 4.4468" style="enable-background:new;fill:#ccc"/>
  <path id="path3970" style="opacity:.1;enable-background:new" d="m24 13.031c-1.9699 0.00003-3.7934 0.51509-5.5 1.5-1.7066 0.98495-3.0561 2.3247-4.0312 4.0312-0.975 1.707-1.469 3.519-1.469 5.469 0 0.16787 0.0241 0.33397 0.03125 0.5 0.07741-1.7614 0.5471-3.4105 1.4375-4.9688 0.97518-1.7065 2.3247-3.0463 4.0312-4.0312 1.7066-0.98491 3.5301-1.5 5.5-1.5 1.9503 0.00003 3.7934 0.49359 5.5 1.4688 1.7065 0.9752 3.0463 2.3247 4.0312 4.0312 0.89928 1.5582 1.3593 3.2223 1.4375 5 0.0072-0.16525 0.03125-0.33298 0.03125-0.5-0.00003-1.9698-0.48384-3.7934-1.4688-5.5-0.984-1.706-2.323-3.056-4.03-4.031s-3.55-1.469-5.5-1.469zm0.4375 4.1875c-1.9406 0.00002-3.4801 0.5818-4.5625 1.7812-1.0727 1.1897-1.5938 2.8546-1.5938 5 0 0.17257 0.02425 0.33344 0.03125 0.5 0.07901-1.9032 0.57568-3.4055 1.5625-4.5 1.0824-1.1994 2.6219-1.7812 4.5625-1.7812 1.3332 0.000018 2.6718 0.32841 4.0625 0.96875l0.375-0.84375c-1.5213-0.76063-2.9845-1.125-4.4375-1.125zm-9.3438 7.3125c-0.0092 0.16826-0.03125 0.32947-0.03125 0.5-0.00001 1.5993 0.4191 3.084 1.2188 4.4688 0.79964 1.375 1.8965 2.4816 3.2812 3.2812 1.3847 0.78989 2.8577 1.1875 4.4375 1.1875 1.5993 0 3.0937-0.4191 4.4688-1.2188 1.3847-0.79964 2.4601-1.8652 3.25-3.25 0.79963-1.3847 1.2187-2.889 1.2188-4.4688-0.000002-0.17264-0.02193-0.32998-0.03125-0.5-0.07524 1.3954-0.47193 2.7296-1.1875 3.9688-0.78991 1.3848-1.8653 2.4504-3.25 3.25-1.375 0.79965-2.8695 1.2188-4.4688 1.2188-1.5798 0-3.0528-0.39761-4.4375-1.1875-1.386-0.798-2.483-1.905-3.283-3.28-0.715-1.239-1.112-2.558-1.187-3.969zm6.5938 0.03125c-0.0086 0.15587-0.03125 0.30358-0.03125 0.46875-0.00001 2.7305 0.98913 4.0938 2.9688 4.0938 0.55583 0.00001 1.1689-0.07243 1.8125-0.21875 0.6436-0.14626 1.2254-0.34219 1.7812-0.625v-1c-0.55587 0.28281-1.1376 0.47874-1.7812 0.625-0.64363 0.14632-1.2567 0.21876-1.8125 0.21875-1.844 0.000009-2.8112-1.1934-2.9375-3.5625z"/>
 </g>
</svg>
