<?xml version="1.0" encoding="UTF-8" standalone="no"?>
<!-- Created with Inkscape (http://www.inkscape.org/) -->
<svg id="svg3759" xmlns:rdf="http://www.w3.org/1999/02/22-rdf-syntax-ns#" xmlns="http://www.w3.org/2000/svg" height="48" width="48" version="1.1" xmlns:cc="http://creativecommons.org/ns#" xmlns:xlink="http://www.w3.org/1999/xlink" xmlns:dc="http://purl.org/dc/elements/1.1/">
 <metadata id="metadata37">
  <rdf:RDF>
   <cc:Work rdf:about="">
    <dc:format>image/svg+xml</dc:format>
    <dc:type rdf:resource="http://purl.org/dc/dcmitype/StillImage"/>
    <dc:title/>
   </cc:Work>
  </rdf:RDF>
 </metadata>
 <defs id="defs3761">
  <linearGradient id="linearGradient3960">
   <stop id="stop3962" style="stop-opacity:0" offset="0"/>
   <stop id="stop3970" offset=".5"/>
   <stop id="stop3964" style="stop-opacity:0" offset="1"/>
  </linearGradient>
  <linearGradient id="linearGradient3952">
   <stop id="stop3954" offset="0"/>
   <stop id="stop3956" style="stop-opacity:0" offset="1"/>
  </linearGradient>
  <linearGradient id="linearGradient3158" y2="40" gradientUnits="userSpaceOnUse" x2="144" gradientTransform="matrix(.175 0 0 .175 -1.2 -6)" y1="280" x1="144">
   <stop id="stop3990-5" style="stop-color:#ededed" offset="0"/>
   <stop id="stop3992-0" style="stop-color:#fafafa" offset="1"/>
  </linearGradient>
  <radialGradient id="radialGradient3950" xlink:href="#linearGradient3952" gradientUnits="userSpaceOnUse" cy="43.5" cx="9" gradientTransform="matrix(1 0 0 .75 0 10.875)" r="2"/>
  <radialGradient id="radialGradient3958" xlink:href="#linearGradient3952" gradientUnits="userSpaceOnUse" cy="43.5" cx="40" gradientTransform="matrix(1 0 0 .75 0 10.875)" r="2"/>
  <linearGradient id="linearGradient3968" y2="42" xlink:href="#linearGradient3960" gradientUnits="userSpaceOnUse" x2="25" y1="45" x1="25"/>
 </defs>
 <g id="layer1">
  <g id="g3983" style="opacity:.2" transform="matrix(1.0571 0 0 1.6667 -1.4 -29)">
   <rect id="rect3985" style="opacity:.6;fill:url(#linearGradient3968)" height="3" width="31" y="42" x="9"/>
   <path id="path3987" style="opacity:.6;fill:url(#radialGradient3958)" d="m40 42v3h0.5c0.831 0 1.5-0.669 1.5-1.5s-0.669-1.5-1.5-1.5h-0.5z"/>
   <path id="path3989" style="opacity:.6;fill:url(#radialGradient3950)" d="m8.4062 42c-0.779 0-1.4062 0.627-1.4062 1.406v0.1875c0 0.779 0.6272 1.406 1.4062 1.406h0.5938v-3h-0.5938z"/>
  </g>
  <g id="g3978" style="opacity:.2">
   <rect id="rect3938" style="opacity:.6;fill:url(#linearGradient3968)" height="3" width="31" y="42" x="9"/>
   <path id="rect3940" style="opacity:.6;fill:url(#radialGradient3958)" d="m40 42v3h0.5c0.831 0 1.5-0.669 1.5-1.5s-0.669-1.5-1.5-1.5h-0.5z"/>
   <path id="rect3942" style="opacity:.6;fill:url(#radialGradient3950)" d="m8.4062 42c-0.779 0-1.4062 0.627-1.4062 1.406v0.188c0 0.779 0.6272 1.406 1.4062 1.406h0.5938v-3h-0.5938z"/>
  </g>
  <g id="g4204" transform="matrix(0,1,-1,0,48,-1)">
   <g id="g4020" transform="translate(2,-1)">
    <rect id="rect3886" style="opacity:.35;color:#bebebe" transform="matrix(0,1,1,0,0,0)" ry="1" height="41" width="33" y="2" x="8"/>
    <rect id="rect3882" ry="0" style="color:#bebebe;fill:url(#linearGradient3158)" transform="matrix(0,1,1,0,0,0)" height="39" width="31" y="3" x="9"/>
    <path id="path3893" style="opacity:.4;fill:#fff" d="m3 9v31h39v-31zm1 1h37v29h-37z"/>
    <rect id="rect4018" style="opacity:.4;fill:#fff" height="1" width="39" y="9" x="3"/>
   </g>
  </g>
 </g>
 <g id="layer2">
  <g id="flowRoot25580" style="opacity:.2" transform="translate(-303.5,71.75)">
   <path id="path26173" d="m315.79-63.75v-0.85938h-1.2891v0.85938h1.2891"/>
   <path id="path26175" d="m317.04-63.75v-0.85938h-1.2891v0.85938h1.2891"/>
   <path id="path26177" d="m318.29-63.75v-0.85938h-1.2891v0.85938h1.2891"/>
   <path id="path26179" d="m319.54-63.75v-0.85938h-1.2891v0.85938h1.2891"/>
   <path id="path26181" d="m320.79-63.75v-0.85938h-1.2891v0.85938h1.2891"/>
   <path id="path26183" d="m324.55-63.75v-0.85938h-1.2891v0.85938h1.2891"/>
   <path id="path26185" d="m325.8-63.75v-0.85938h-1.2891v0.85938h1.2891"/>
   <path id="path26187" d="m327.05-63.75v-0.85938h-1.2891v0.85938h1.2891"/>
   <path id="path26189" d="m328.3-63.75v-0.85938h-1.2891v0.85938h1.2891"/>
   <path id="path26191" d="m329.55-63.75v-0.85938h-1.2891v0.85938h1.2891"/>
   <path id="path26193" d="m333.3-63.75v-0.85938h-1.2891v0.85938h1.2891"/>
   <path id="path26195" d="m334.55-63.75v-0.85938h-1.2891v0.85938h1.2891"/>
   <path id="path26197" d="m335.8-63.75v-0.85938h-1.2891v0.85938h1.2891"/>
   <path id="path26199" d="m337.05-63.75v-0.85938h-1.2891v0.85938h1.2891"/>
   <path id="path26201" d="m338.3-63.75v-0.85938h-1.2891v0.85938h1.2891"/>
   <path id="path26203" d="m315.79-61.75v-0.85938h-1.2891v0.85938h1.2891"/>
   <path id="path26205" d="m317.04-61.75v-0.85938h-1.2891v0.85938h1.2891"/>
   <path id="path26207" d="m318.29-61.75v-0.85938h-1.2891v0.85938h1.2891"/>
   <path id="path26209" d="m322.05-61.75v-0.85938h-1.2891v0.85938h1.2891"/>
   <path id="path26211" d="m323.3-61.75v-0.85938h-1.2891v0.85938h1.2891"/>
   <path id="path26213" d="m324.55-61.75v-0.85938h-1.2891v0.85938h1.2891"/>
   <path id="path26215" d="m325.8-61.75v-0.85938h-1.2891v0.85938h1.2891"/>
   <path id="path26217" d="m327.05-61.75v-0.85938h-1.2891v0.85938h1.2891"/>
   <path id="path26219" d="m315.79-59.75v-0.85938h-1.2891v0.85938h1.2891"/>
   <path id="path26221" d="m317.04-59.75v-0.85938h-1.2891v0.85938h1.2891"/>
   <path id="path26223" d="m318.29-59.75v-0.85938h-1.2891v0.85938h1.2891"/>
   <path id="path26225" d="m319.54-59.75v-0.85938h-1.2891v0.85938h1.2891"/>
   <path id="path26227" d="m320.79-59.75v-0.85938h-1.2891v0.85938h1.2891"/>
   <path id="path26229" d="m322.04-59.75v-0.85938h-1.2891v0.85938h1.2891"/>
   <path id="path26231" d="m323.29-59.75v-0.85938h-1.2891v0.85938h1.2891"/>
   <path id="path26233" d="m324.54-59.75v-0.85938h-1.2891v0.85938h1.2891"/>
   <path id="path26235" d="m325.79-59.75v-0.85938h-1.2891v0.85938h1.2891"/>
   <path id="path26237" d="m327.04-59.75v-0.85938h-1.2891v0.85938h1.2891"/>
   <path id="path26239" d="m328.29-59.75v-0.85938h-1.2891v0.85938h1.2891"/>
   <path id="path26241" d="m315.79-57.75v-0.85938h-1.2891v0.85938h1.2891"/>
   <path id="path26243" d="m317.04-57.75v-0.85938h-1.2891v0.85938h1.2891"/>
   <path id="path26245" d="m318.29-57.75v-0.85938h-1.2891v0.85938h1.2891"/>
   <path id="path26247" d="m319.54-57.75v-0.85938h-1.2891v0.85938h1.2891"/>
   <path id="path26249" d="m320.79-57.75v-0.85938h-1.2891v0.85938h1.2891"/>
   <path id="path26251" d="m322.04-57.75v-0.85938h-1.2891v0.85938h1.2891"/>
   <path id="path26253" d="m323.29-57.75v-0.85938h-1.2891v0.85938h1.2891"/>
   <path id="path26255" d="m324.54-57.75v-0.85938h-1.2891v0.85938h1.2891"/>
   <path id="path26257" d="m325.79-57.75v-0.85938h-1.2891v0.85938h1.2891"/>
   <path id="path26259" d="m327.04-57.75v-0.85938h-1.2891v0.85938h1.2891"/>
   <path id="path26261" d="m330.8-57.75v-0.85938h-1.2891v0.85938h1.2891"/>
   <path id="path26263" d="m332.05-57.75v-0.85938h-1.2891v0.85938h1.2891"/>
   <path id="path26265" d="m333.3-57.75v-0.85938h-1.2891v0.85938h1.2891"/>
   <path id="path26267" d="m334.55-57.75v-0.85938h-1.2891v0.85938h1.2891"/>
   <path id="path26269" d="m335.8-57.75v-0.85938h-1.2891v0.85938h1.2891"/>
   <path id="path26271" d="m315.79-55.75v-0.85938h-1.2891v0.85938h1.2891"/>
   <path id="path26273" d="m317.04-55.75v-0.85938h-1.2891v0.85938h1.2891"/>
   <path id="path26275" d="m318.29-55.75v-0.85938h-1.2891v0.85938h1.2891"/>
   <path id="path26277" d="m322.05-55.75v-0.85938h-1.2891v0.85938h1.2891"/>
   <path id="path26279" d="m323.3-55.75v-0.85938h-1.2891v0.85938h1.2891"/>
   <path id="path26281" d="m324.55-55.75v-0.85938h-1.2891v0.85938h1.2891"/>
   <path id="path26283" d="m325.8-55.75v-0.85938h-1.2891v0.85938h1.2891"/>
   <path id="path26285" d="m327.05-55.75v-0.85938h-1.2891v0.85938h1.2891"/>
   <path id="path26287" d="m328.3-55.75v-0.85938h-1.2891v0.85938h1.2891"/>
   <path id="path26289" d="m329.55-55.75v-0.85938h-1.2891v0.85938h1.2891"/>
   <path id="path26291" d="m330.8-55.75v-0.85938h-1.2891v0.85938h1.2891"/>
   <path id="path26293" d="m334.55-55.75v-0.85938h-1.2891v0.85938h1.2891"/>
   <path id="path26295" d="m335.8-55.75v-0.85938h-1.2891v0.85938h1.2891"/>
   <path id="path26297" d="m337.05-55.75v-0.85938h-1.2891v0.85938h1.2891"/>
   <path id="path26299" d="m338.3-55.75v-0.85938h-1.2891v0.85938h1.2891"/>
   <path id="path26301" d="m339.55-55.75v-0.85938h-1.2891v0.85938h1.2891"/>
   <path id="path26303" d="m315.79-53.75v-0.85938h-1.2891v0.85938h1.2891"/>
   <path id="path26305" d="m317.04-53.75v-0.85938h-1.2891v0.85938h1.2891"/>
   <path id="path26307" d="m318.29-53.75v-0.85938h-1.2891v0.85938h1.2891"/>
   <path id="path26309" d="m319.54-53.75v-0.85938h-1.2891v0.85938h1.2891"/>
   <path id="path26311" d="m323.3-53.75v-0.85938h-1.2891v0.85938h1.2891"/>
   <path id="path26313" d="m324.55-53.75v-0.85938h-1.2891v0.85938h1.2891"/>
   <path id="path26315" d="m325.8-53.75v-0.85938h-1.2891v0.85938h1.2891"/>
   <path id="path26317" d="m329.55-53.75v-0.85938h-1.2891v0.85938h1.2891"/>
   <path id="path26319" d="m330.8-53.75v-0.85938h-1.2891v0.85938h1.2891"/>
   <path id="path26321" d="m332.05-53.75v-0.85938h-1.2891v0.85938h1.2891"/>
   <path id="path26323" d="m333.3-53.75v-0.85938h-1.2891v0.85938h1.2891"/>
   <path id="path26325" d="m334.55-53.75v-0.85938h-1.2891v0.85938h1.2891"/>
   <path id="path26327" d="m335.8-53.75v-0.85938h-1.2891v0.85938h1.2891"/>
   <path id="path26329" d="m337.05-53.75v-0.85938h-1.2891v0.85938h1.2891"/>
   <path id="path26331" d="m338.3-53.75v-0.85938h-1.2891v0.85938h1.2891"/>
   <path id="path26333" d="m339.55-53.75v-0.85938h-1.2891v0.85938h1.2891"/>
   <path id="path26335" d="m315.79-51.75v-0.85938h-1.2891v0.85938h1.2891"/>
   <path id="path26337" d="m317.04-51.75v-0.85938h-1.2891v0.85938h1.2891"/>
   <path id="path26339" d="m318.29-51.75v-0.85938h-1.2891v0.85938h1.2891"/>
   <path id="path26341" d="m319.54-51.75v-0.85938h-1.2891v0.85938h1.2891"/>
   <path id="path26343" d="m323.3-51.75v-0.85938h-1.2891v0.85938h1.2891"/>
   <path id="path26345" d="m324.55-51.75v-0.85938h-1.2891v0.85938h1.2891"/>
   <path id="path26347" d="m325.8-51.75v-0.85938h-1.2891v0.85938h1.2891"/>
   <path id="path26349" d="m327.05-51.75v-0.85938h-1.2891v0.85938h1.2891"/>
   <path id="path26351" d="m328.3-51.75v-0.85938h-1.2891v0.85938h1.2891"/>
   <path id="path26353" d="m329.55-51.75v-0.85938h-1.2891v0.85938h1.2891"/>
   <path id="path26355" d="m330.8-51.75v-0.85938h-1.2891v0.85938h1.2891"/>
   <path id="path26357" d="m332.05-51.75v-0.85938h-1.2891v0.85938h1.2891"/>
   <path id="path26359" d="m333.3-51.75v-0.85938h-1.2891v0.85938h1.2891"/>
   <path id="path26361" d="m334.55-51.75v-0.85938h-1.2891v0.85938h1.2891"/>
   <path id="path26363" d="m335.8-51.75v-0.85938h-1.2891v0.85938h1.2891"/>
   <path id="path26365" d="m315.79-49.75v-0.85938h-1.2891v0.85938h1.2891"/>
   <path id="path26367" d="m317.04-49.75v-0.85938h-1.2891v0.85938h1.2891"/>
   <path id="path26369" d="m318.29-49.75v-0.85938h-1.2891v0.85938h1.2891"/>
   <path id="path26371" d="m322.05-49.75v-0.85938h-1.2891v0.85938h1.2891"/>
   <path id="path26373" d="m323.3-49.75v-0.85938h-1.2891v0.85938h1.2891"/>
   <path id="path26375" d="m324.55-49.75v-0.85938h-1.2891v0.85938h1.2891"/>
   <path id="path26377" d="m325.8-49.75v-0.85938h-1.2891v0.85938h1.2891"/>
   <path id="path26379" d="m327.05-49.75v-0.85938h-1.2891v0.85938h1.2891"/>
   <path id="path26381" d="m328.3-49.75v-0.85938h-1.2891v0.85938h1.2891"/>
   <path id="path26383" d="m329.55-49.75v-0.85938h-1.2891v0.85938h1.2891"/>
   <path id="path26385" d="m333.3-49.75v-0.85938h-1.2891v0.85938h1.2891"/>
   <path id="path26387" d="m334.55-49.75v-0.85938h-1.2891v0.85938h1.2891"/>
   <path id="path26389" d="m335.8-49.75v-0.85938h-1.2891v0.85938h1.2891"/>
   <path id="path26391" d="m337.05-49.75v-0.85938h-1.2891v0.85938h1.2891"/>
   <path id="path26393" d="m315.79-47.75v-0.85938h-1.2891v0.85938h1.2891"/>
   <path id="path26395" d="m317.04-47.75v-0.85938h-1.2891v0.85938h1.2891"/>
   <path id="path26397" d="m318.29-47.75v-0.85938h-1.2891v0.85938h1.2891"/>
   <path id="path26399" d="m319.54-47.75v-0.85938h-1.2891v0.85938h1.2891"/>
   <path id="path26401" d="m320.79-47.75v-0.85938h-1.2891v0.85938h1.2891"/>
   <path id="path26403" d="m324.55-47.75v-0.85938h-1.2891v0.85938h1.2891"/>
   <path id="path26405" d="m325.8-47.75v-0.85938h-1.2891v0.85938h1.2891"/>
   <path id="path26407" d="m327.05-47.75v-0.85938h-1.2891v0.85938h1.2891"/>
   <path id="path26409" d="m328.3-47.75v-0.85938h-1.2891v0.85938h1.2891"/>
   <path id="path26411" d="m329.55-47.75v-0.85938h-1.2891v0.85938h1.2891"/>
   <path id="path26413" d="m330.8-47.75v-0.85938h-1.2891v0.85938h1.2891"/>
   <path id="path26415" d="m332.05-47.75v-0.85938h-1.2891v0.85938h1.2891"/>
   <path id="path26417" d="m335.8-47.75v-0.85938h-1.2891v0.85938h1.2891"/>
   <path id="path26419" d="m337.05-47.75v-0.85938h-1.2891v0.85938h1.2891"/>
   <path id="path26421" d="m315.79-45.75v-0.85938h-1.2891v0.85938h1.2891"/>
   <path id="path26423" d="m317.04-45.75v-0.85938h-1.2891v0.85938h1.2891"/>
   <path id="path26425" d="m318.29-45.75v-0.85938h-1.2891v0.85938h1.2891"/>
   <path id="path26427" d="m319.54-45.75v-0.85938h-1.2891v0.85938h1.2891"/>
   <path id="path26429" d="m320.79-45.75v-0.85938h-1.2891v0.85938h1.2891"/>
   <path id="path26431" d="m322.04-45.75v-0.85938h-1.2891v0.85938h1.2891"/>
   <path id="path26433" d="m323.29-45.75v-0.85938h-1.2891v0.85938h1.2891"/>
   <path id="path26435" d="m324.54-45.75v-0.85938h-1.2891v0.85938h1.2891"/>
   <path id="path26437" d="m325.79-45.75v-0.85938h-1.2891v0.85938h1.2891"/>
   <path id="path26439" d="m329.55-45.75v-0.85938h-1.2891v0.85938h1.2891"/>
   <path id="path26441" d="m330.8-45.75v-0.85938h-1.2891v0.85938h1.2891"/>
   <path id="path26443" d="m315.79-43.75v-0.85938h-1.2891v0.85938h1.2891"/>
   <path id="path26445" d="m317.04-43.75v-0.85938h-1.2891v0.85938h1.2891"/>
   <path id="path26447" d="m318.29-43.75v-0.85938h-1.2891v0.85938h1.2891"/>
   <path id="path26449" d="m319.54-43.75v-0.85938h-1.2891v0.85938h1.2891"/>
   <path id="path26451" d="m320.79-43.75v-0.85938h-1.2891v0.85938h1.2891"/>
   <path id="path26453" d="m322.04-43.75v-0.85938h-1.2891v0.85938h1.2891"/>
   <path id="path26455" d="m323.29-43.75v-0.85938h-1.2891v0.85938h1.2891"/>
   <path id="path26457" d="m324.54-43.75v-0.85938h-1.2891v0.85938h1.2891"/>
   <path id="path26459" d="m325.79-43.75v-0.85938h-1.2891v0.85938h1.2891"/>
   <path id="path26461" d="m327.04-43.75v-0.85938h-1.2891v0.85938h1.2891"/>
   <path id="path26463" d="m328.29-43.75v-0.85938h-1.2891v0.85938h1.2891"/>
   <path id="path26465" d="m332.05-43.75v-0.85938h-1.2891v0.85938h1.2891"/>
   <path id="path26467" d="m333.3-43.75v-0.85938h-1.2891v0.85938h1.2891"/>
   <path id="path26469" d="m315.79-41.75v-0.85938h-1.2891v0.85938h1.2891"/>
   <path id="path26471" d="m317.04-41.75v-0.85938h-1.2891v0.85938h1.2891"/>
   <path id="path26473" d="m318.29-41.75v-0.85938h-1.2891v0.85938h1.2891"/>
   <path id="path26475" d="m319.54-41.75v-0.85938h-1.2891v0.85938h1.2891"/>
   <path id="path26477" d="m320.79-41.75v-0.85938h-1.2891v0.85938h1.2891"/>
   <path id="path26479" d="m324.55-41.75v-0.85938h-1.2891v0.85938h1.2891"/>
   <path id="path26481" d="m325.8-41.75v-0.85938h-1.2891v0.85938h1.2891"/>
   <path id="path26483" d="m327.05-41.75v-0.85938h-1.2891v0.85938h1.2891"/>
   <path id="path26485" d="m328.3-41.75v-0.85938h-1.2891v0.85938h1.2891"/>
   <path id="path26487" d="m329.55-41.75v-0.85938h-1.2891v0.85938h1.2891"/>
   <path id="path26489" d="m330.8-41.75v-0.85938h-1.2891v0.85938h1.2891"/>
   <path id="path26491" d="m332.05-41.75v-0.85938h-1.2891v0.85938h1.2891"/>
   <path id="path26493" d="m333.3-41.75v-0.85938h-1.2891v0.85938h1.2891"/>
   <path id="path26495" d="m334.55-41.75v-0.85938h-1.2891v0.85938h1.2891"/>
   <path id="path26497" d="m338.3-41.75v-0.85938h-1.2891v0.85938h1.2891"/>
   <path id="path26499" d="m339.55-41.75v-0.85938h-1.2891v0.85938h1.2891"/>
   <path id="path26501" d="m315.79-39.75v-0.85938h-1.2891v0.85938h1.2891"/>
   <path id="path26503" d="m317.04-39.75v-0.85938h-1.2891v0.85938h1.2891"/>
   <path id="path26505" d="m318.29-39.75v-0.85938h-1.2891v0.85938h1.2891"/>
   <path id="path26507" d="m319.54-39.75v-0.85938h-1.2891v0.85938h1.2891"/>
   <path id="path26509" d="m320.79-39.75v-0.85938h-1.2891v0.85938h1.2891"/>
   <path id="path26511" d="m322.04-39.75v-0.85938h-1.2891v0.85938h1.2891"/>
   <path id="path26513" d="m325.8-39.75v-0.85938h-1.2891v0.85938h1.2891"/>
   <path id="path26515" d="m329.55-39.75v-0.85938h-1.2891v0.85938h1.2891"/>
   <path id="path26517" d="m330.8-39.75v-0.85938h-1.2891v0.85938h1.2891"/>
   <path id="path26519" d="m332.05-39.75v-0.85938h-1.2891v0.85938h1.2891"/>
   <path id="path26521" d="m333.3-39.75v-0.85938h-1.2891v0.85938h1.2891"/>
   <path id="path26523" d="m334.55-39.75v-0.85938h-1.2891v0.85938h1.2891"/>
   <path id="path26525" d="m335.8-39.75v-0.85938h-1.2891v0.85938h1.2891"/>
   <path id="path26527" d="m315.79-37.75v-0.85938h-1.2891v0.85938h1.2891"/>
   <path id="path26529" d="m317.04-37.75v-0.85938h-1.2891v0.85938h1.2891"/>
   <path id="path26531" d="m318.29-37.75v-0.85938h-1.2891v0.85938h1.2891"/>
   <path id="path26533" d="m319.54-37.75v-0.85938h-1.2891v0.85938h1.2891"/>
   <path id="path26535" d="m320.79-37.75v-0.85938h-1.2891v0.85938h1.2891"/>
   <path id="path26537" d="m322.04-37.75v-0.85938h-1.2891v0.85938h1.2891"/>
   <path id="path26539" d="m323.29-37.75v-0.85938h-1.2891v0.85938h1.2891"/>
   <path id="path26541" d="m324.54-37.75v-0.85938h-1.2891v0.85938h1.2891"/>
   <path id="path26543" d="m328.3-37.75v-0.85938h-1.2891v0.85938h1.2891"/>
   <path id="path26545" d="m329.55-37.75v-0.85938h-1.2891v0.85938h1.2891"/>
   <path id="path26547" d="m330.8-37.75v-0.85938h-1.2891v0.85938h1.2891"/>
   <path id="path26549" d="m332.05-37.75v-0.85938h-1.2891v0.85938h1.2891"/>
   <path id="path26551" d="m333.3-37.75v-0.85938h-1.2891v0.85938h1.2891"/>
   <path id="path26553" d="m334.55-37.75v-0.85938h-1.2891v0.85938h1.2891"/>
   <path id="path26555" d="m335.8-37.75v-0.85938h-1.2891v0.85938h1.2891"/>
   <path id="path26557" d="m337.05-37.75v-0.85938h-1.2891v0.85938h1.2891"/>
  </g>
 </g>
</svg>
