<?xml version="1.0" encoding="UTF-8" standalone="no"?>
<!-- Created with Inkscape (http://www.inkscape.org/) -->
<svg id="svg3759" xmlns:rdf="http://www.w3.org/1999/02/22-rdf-syntax-ns#" xmlns="http://www.w3.org/2000/svg" height="48" width="48" version="1.1" xmlns:cc="http://creativecommons.org/ns#" xmlns:xlink="http://www.w3.org/1999/xlink" xmlns:dc="http://purl.org/dc/elements/1.1/">
 <metadata id="metadata37">
  <rdf:RDF>
   <cc:Work rdf:about="">
    <dc:format>image/svg+xml</dc:format>
    <dc:type rdf:resource="http://purl.org/dc/dcmitype/StillImage"/>
    <dc:title/>
   </cc:Work>
  </rdf:RDF>
 </metadata>
 <defs id="defs3761">
  <linearGradient id="linearGradient3960">
   <stop id="stop3962" style="stop-opacity:0" offset="0"/>
   <stop id="stop3970" offset=".5"/>
   <stop id="stop3964" style="stop-opacity:0" offset="1"/>
  </linearGradient>
  <linearGradient id="linearGradient3952">
   <stop id="stop3954" offset="0"/>
   <stop id="stop3956" style="stop-opacity:0" offset="1"/>
  </linearGradient>
  <linearGradient id="linearGradient3142" y2="40" gradientUnits="userSpaceOnUse" x2="144" gradientTransform="matrix(-.175 0 0 .175 49.2 -5)" y1="280" x1="144">
   <stop id="stop3990-5" style="stop-color:#e8e8e8" offset="0"/>
   <stop id="stop3992-0" style="stop-color:#f0f0f0" offset="1"/>
  </linearGradient>
  <linearGradient id="linearGradient3920" y2="48" gradientUnits="userSpaceOnUse" x2="24" x1="24">
   <stop id="stop3916" style="stop-color:#fff" offset="0"/>
   <stop id="stop3918" style="stop-color:#fff;stop-opacity:0" offset="1"/>
  </linearGradient>
  <radialGradient id="radialGradient3925" xlink:href="#linearGradient3952" gradientUnits="userSpaceOnUse" cy="43.5" cx="9" gradientTransform="matrix(1 0 0 .75 -1 10.875)" r="2"/>
  <radialGradient id="radialGradient3928" xlink:href="#linearGradient3952" gradientUnits="userSpaceOnUse" cy="43.5" cx="40" gradientTransform="matrix(1 0 0 .75 -3e-7 10.875)" r="2"/>
  <linearGradient id="linearGradient3931" y2="42" xlink:href="#linearGradient3960" gradientUnits="userSpaceOnUse" x2="25" gradientTransform="matrix(1.0305 0 0 1 -1.2476 0)" y1="45" x1="25"/>
  <radialGradient id="radialGradient3934" xlink:href="#linearGradient3952" gradientUnits="userSpaceOnUse" cy="43.5" cx="9" gradientTransform="matrix(1.0571 0 0 1.25 -2.4 -10.875)" r="2"/>
  <radialGradient id="radialGradient3937" xlink:href="#linearGradient3952" gradientUnits="userSpaceOnUse" cy="43.5" cx="40" gradientTransform="matrix(1.0571 0 0 1.25 -1.4 -10.875)" r="2"/>
  <linearGradient id="linearGradient3940" y2="42" xlink:href="#linearGradient3960" gradientUnits="userSpaceOnUse" x2="25" gradientTransform="matrix(1.0894 0 0 1.6667 -2.6903 -29)" y1="45" x1="25"/>
 </defs>
 <g id="layer1">
  <g id="g3942">
   <rect id="rect3985" style="opacity:0.12;fill:url(#linearGradient3940)" height="5" width="33.771" y="41" x="7.1143"/>
   <path id="path3987" style="opacity:0.12;fill:url(#radialGradient3937)" d="m40.886 41v5h0.52857c0.87849 0 1.5857-1.115 1.5857-2.5s-0.70723-2.5-1.5857-2.5h-0.52857z"/>
   <path id="path3989" style="opacity:0.12;fill:url(#radialGradient3934)" d="m6.4866 41c-0.8236 0-1.4866 1.045-1.4866 2.344v0.3125c0 1.2984 0.66303 2.3438 1.4866 2.3438h0.62768v-5h-0.62768z"/>
   <rect id="rect3938" style="opacity:0.12;fill:url(#linearGradient3931)" height="3" width="31.946" y="42" x="8.027"/>
   <path id="rect3940" style="opacity:0.12;fill:url(#radialGradient3928)" d="m40 42v3h0.5c0.831 0 1.5-0.669 1.5-1.5s-0.669-1.5-1.5-1.5h-0.5z"/>
   <path id="rect3942" style="opacity:0.12;fill:url(#radialGradient3925)" d="m7.4062 42c-0.77906 0-1.4062 0.62719-1.4062 1.4062v0.1875c0 0.77906 0.62719 1.4062 1.4062 1.4062h0.59375v-3h-0.59375z"/>
  </g>
  <path id="rect3886" style="opacity:.35;color:#bebebe" d="m40 3h-32c-0.554 0-1 0.446-1 1v39c0 0.554 0.446 1 1 1h32c0.554 0 1-0.446 1-1v-39c0-0.554-0.446-1-1-1z"/>
  <path id="rect3882" style="color:#bebebe;fill:url(#linearGradient3142)" d="m40 4h-32v39h32z"/>
  <path id="path3893" style="opacity:.4;fill:url(#linearGradient3920)" d="m40 4h-32v39h32zm-1 1v37h-30v-37z"/>
  <rect id="rect3144" style="opacity:.4;fill:#fff" height="1" width="32" y="4" x="8"/>
  <rect id="rect3922" style="opacity:.2;fill:#fff" height="1" width="32" y="42" x="8"/>
 </g>
 <g id="layer2">
  <path id="path26173" style="fill:#89adc2" d="m12.289 8v-0.85938h-1.289v0.8594h1.289"/>
  <path id="path26175" style="fill:#89adc2" d="m13.539 8v-0.85938h-1.2891v0.85938h1.2891"/>
  <path id="path26177" style="fill:#89adc2" d="m14.789 8v-0.85938h-1.2891v0.85938h1.2891"/>
  <path id="path26179" style="fill:#89adc2" d="m16.039 8v-0.85938h-1.2891v0.85938h1.2891"/>
  <path id="path26181" style="fill:#89adc2" d="m17.289 8v-0.85938h-1.289v0.8594h1.289"/>
  <path id="path26183" style="fill:#89adc2" d="m18.547 8v-0.85938h-1.2891v0.85938h1.2891"/>
  <path id="path26185" style="fill:#89adc2" d="m19.797 8v-0.85938h-1.2891v0.85938h1.2891"/>
  <path id="path26203" style="fill:#89adc2" d="m12.289 10v-0.85938h-1.2891v0.85938h1.2891"/>
  <path id="path26205" style="fill:#89adc2" d="m13.539 10v-0.85938h-1.2891v0.85938h1.2891"/>
  <path id="path26207" style="fill:#89adc2" d="m14.789 10v-0.85938h-1.2891v0.85938h1.2891"/>
  <path id="path26209" style="fill:#89adc2" d="m18.547 10v-0.85938h-1.2891v0.85938h1.2891"/>
  <path id="path26211" style="fill:#89adc2" d="m19.797 10v-0.85938h-1.2891v0.85938h1.2891"/>
  <path id="path26213" style="fill:#89adc2" d="m21.047 10v-0.85938h-1.2891v0.85938h1.2891"/>
  <path id="path26215" style="fill:#89adc2" d="m22.297 10v-0.85938h-1.2891v0.85938h1.2891"/>
  <path id="path26219" style="fill:#89adc2" d="m12.289 12v-0.85938h-1.2891v0.85938h1.2891"/>
  <path id="path26221" style="fill:#89adc2" d="m13.539 12v-0.85938h-1.2891v0.85938h1.2891"/>
  <path id="path26223" style="fill:#89adc2" d="m14.789 12v-0.85938h-1.2891v0.85938h1.2891"/>
  <path id="path26225" style="fill:#89adc2" d="m16.039 12v-0.85938h-1.2891v0.85938h1.2891"/>
  <path id="path26227" style="fill:#89adc2" d="m17.289 12v-0.85938h-1.2891v0.85938h1.2891"/>
  <path id="path26229" style="fill:#89adc2" d="m18.539 12v-0.85938h-1.2891v0.85938h1.2891"/>
  <path id="path26231" style="fill:#89adc2" d="m19.789 12v-0.85938h-1.2891v0.85938h1.2891"/>
  <path id="path26233" style="fill:#89adc2" d="m21.039 12v-0.85938h-1.2891v0.85938h1.2891"/>
  <path id="path26235" style="fill:#89adc2" d="m22.289 12v-0.85938h-1.2891v0.85938h1.2891"/>
  <path id="path26237" style="fill:#89adc2" d="m23.539 12v-0.85938h-1.2891v0.85938h1.2891"/>
  <path id="path26239" style="fill:#89adc2" d="m24.789 12v-0.85938h-1.2891v0.85938h1.2891"/>
  <path id="path26271" style="fill:#b78ed4" d="m12.289 16v-0.85938h-1.2891v0.85938h1.2891"/>
  <path id="path26273" style="fill:#b78ed4" d="m13.539 16v-0.85938h-1.2891v0.85938h1.2891"/>
  <path id="path26275" style="fill:#b78ed4" d="m14.789 16v-0.85938h-1.2891v0.85938h1.2891"/>
  <path id="path26277" style="fill:#d48eb3" d="m18.547 16v-0.85938h-1.2891v0.85938h1.2891"/>
  <path id="path26279" style="fill:#d48eb3" d="m19.797 16v-0.85938h-1.2891v0.85938h1.2891"/>
  <path id="path26281" style="fill:#d48eb3" d="m21.047 16v-0.85938h-1.2891v0.85938h1.2891"/>
  <path id="path26283" style="fill:#d48eb3" d="m22.297 16v-0.85938h-1.2891v0.85938h1.2891"/>
  <path id="path26285" style="fill:#d48eb3" d="m23.547 16v-0.85938h-1.2891v0.85938h1.2891"/>
  <path id="path26287" style="fill:#d48eb3" d="m24.797 16v-0.85938h-1.2891v0.85938h1.2891"/>
  <path id="path26289" style="fill:#d48eb3" d="m26.047 16v-0.85938h-1.2891v0.85938h1.2891"/>
  <path id="path26291" style="fill:#d48eb3" d="m27.297 16v-0.85938h-1.2891v0.85938h1.2891"/>
  <path id="path26303" style="fill:#b78ed4" d="m12.289 18v-0.85938h-1.2891v0.85938h1.2891"/>
  <path id="path26305" style="fill:#b78ed4" d="m13.539 18v-0.85938h-1.2891v0.85938h1.2891"/>
  <path id="path26307" style="fill:#b78ed4" d="m14.789 18v-0.85938h-1.2891v0.85938h1.2891"/>
  <path id="path26311" style="fill:#d48eb3" d="m19.797 18v-0.85938h-1.2891v0.85938h1.2891"/>
  <path id="path26313" style="fill:#d48eb3" d="m21.047 18v-0.85938h-1.2891v0.85938h1.2891"/>
  <path id="path26315" style="fill:#d48eb3" d="m22.297 18v-0.85938h-1.2891v0.85938h1.2891"/>
  <path id="path26317" style="fill:#d48eb3" d="m23.524 18v-0.85938h-1.2891v0.85938h1.2891"/>
  <path id="path26319" style="fill:#d48eb3" d="m24.774 18v-0.85938h-1.2891v0.85938h1.2891"/>
  <path id="path26321" style="fill:#89adc2" d="m28.555 18v-0.85938h-1.2891v0.85938h1.2891"/>
  <path id="path26323" style="fill:#89adc2" d="m29.805 18v-0.85938h-1.2891v0.85938h1.2891"/>
  <path id="path26325" style="fill:#89adc2" d="m31.055 18v-0.85938h-1.2891v0.85938h1.2891"/>
  <path id="path26329" style="fill:#89adc2" d="m33.555 18v-0.85938h-1.2891v0.85938h1.2891"/>
  <path id="path26331" style="fill:#89adc2" d="m34.805 18v-0.85938h-1.2891v0.85938h1.2891"/>
  <path id="path26365" style="fill:#94d48e" d="m12.289 22v-0.85938h-1.2891v0.85938h1.2891"/>
  <path id="path26367" style="fill:#94d48e" d="m13.539 22v-0.85938h-1.2891v0.85938h1.2891"/>
  <path id="path26369" style="fill:#94d48e" d="m14.789 22v-0.85938h-1.2891v0.85938h1.2891"/>
  <path id="path26371" style="fill:#c0c0c0" d="m18.547 22v-0.85938h-1.2891v0.85938h1.2891"/>
  <path id="path26373" style="fill:#c0c0c0" d="m19.797 22v-0.85938h-1.2891v0.85938h1.2891"/>
  <path id="path26383" style="fill:#c0c0c0" d="m17.297 22v-0.85938h-1.2891v0.85938h1.2891"/>
  <path id="path26393" style="fill:#94d48e" d="m12.289 24v-0.85938h-1.2891v0.85938h1.2891"/>
  <path id="path26395" style="fill:#94d48e" d="m13.539 24v-0.85938h-1.2891v0.85938h1.2891"/>
  <path id="path26397" style="fill:#94d48e" d="m14.789 24v-0.85938h-1.2891v0.85938h1.2891"/>
  <path id="path26403" style="fill:#c0c0c0" d="m21.047 24v-0.85938h-1.2891v0.85938h1.2891"/>
  <path id="path26405" style="fill:#c0c0c0" d="m19.797 24v-0.85938h-1.2891v0.85938h1.2891"/>
  <path id="path26421" style="fill:#c0c0c0" d="m12.289 26v-0.85938h-1.2891v0.85938h1.2891"/>
  <path id="path26443" style="fill:#94d48e" d="m12.289 28v-0.85938h-1.2891v0.85938h1.2891"/>
  <path id="path26445" style="fill:#94d48e" d="m13.539 28v-0.85938h-1.2891v0.85938h1.2891"/>
  <path id="path26449" style="fill:#c0c0c0" d="m16.039 28v-0.85938h-1.2891v0.85938h1.2891"/>
  <path id="path26451" style="fill:#c0c0c0" d="m17.289 28v-0.85938h-1.2891v0.85938h1.2891"/>
  <path id="path26453" style="fill:#c0c0c0" d="m18.539 28v-0.85938h-1.2891v0.85938h1.2891"/>
  <path id="path26457" style="fill:#89adc2" d="m21.039 28v-0.85938h-1.2891v0.85938h1.2891"/>
  <path id="path26459" style="fill:#89adc2" d="m22.289 28v-0.85938h-1.2891v0.85938h1.2891"/>
  <path id="path26461" style="fill:#89adc2" d="m23.539 28v-0.85938h-1.2891v0.85938h1.2891"/>
  <path id="path26463" style="fill:#89adc2" d="m24.789 28v-0.85938h-1.2891v0.85938h1.2891"/>
  <path id="path26465" style="fill:#89adc2" d="m28.547 28v-0.85938h-1.2891v0.85938h1.2891"/>
  <path id="path26467" style="fill:#89adc2" d="m29.797 28v-0.85938h-1.2891v0.85938h1.2891"/>
  <path id="path26469" style="fill:#94d48e" d="m12.289 30v-0.85938h-1.2891v0.85938h1.2891"/>
  <path id="path26471" style="fill:#94d48e" d="m13.539 30v-0.85938h-1.2891v0.85938h1.2891"/>
  <path id="path26473" style="fill:#94d48e" d="m14.789 30v-0.85938h-1.2891v0.85938h1.2891"/>
  <path id="path26477" style="fill:#c0c0c0" d="m17.289 30v-0.85938h-1.2891v0.85938h1.2891"/>
  <path id="path26479" style="fill:#89adc2" d="m21.047 30v-0.85938h-1.2891v0.85938h1.2891"/>
  <path id="path26481" style="fill:#89adc2" d="m22.297 30v-0.85938h-1.2891v0.85938h1.2891"/>
  <path id="path26483" style="fill:#89adc2" d="m23.547 30v-0.85938h-1.2891v0.85938h1.2891"/>
  <path id="path26485" style="fill:#89adc2" d="m24.797 30v-0.85938h-1.2891v0.85938h1.2891"/>
  <path id="path26487" style="fill:#89adc2" d="m26.047 30v-0.85938h-1.2891v0.85938h1.2891"/>
  <path id="path26489" style="fill:#89adc2" d="m27.297 30v-0.85938h-1.2891v0.85938h1.2891"/>
  <path id="path26491" style="fill:#89adc2" d="m28.547 30v-0.85938h-1.2891v0.85938h1.2891"/>
  <path id="path26493" style="fill:#89adc2" d="m29.797 30v-0.85938h-1.2891v0.85938h1.2891"/>
  <path id="path26495" style="fill:#89adc2" d="m31.047 30v-0.85938h-1.2891v0.85938h1.2891"/>
  <path id="path26501" style="fill:#94d48e" d="m12.289 32v-0.85938h-1.2891v0.85938h1.2891"/>
  <path id="path26503" style="fill:#94d48e" d="m13.539 32v-0.85938h-1.2891v0.85938h1.2891"/>
  <path id="path26505" style="fill:#94d48e" d="m14.038 32v-0.85938h-1.2891v0.85938h1.2891"/>
  <path id="path26509" style="fill:#c0c0c0" d="m17.289 32v-0.85938h-1.2891v0.85938h1.2891"/>
  <path id="path26511" style="fill:#c0c0c0" d="m18.539 32v-0.85938h-1.2891v0.85938h1.2891"/>
  <path id="path26513" style="fill:#89adc2" d="m22.297 32v-0.85938h-1.2891v0.85938h1.2891"/>
  <path id="path26515" style="fill:#89adc2" d="m26.055 32v-0.85938h-1.2891v0.85938h1.2891"/>
  <path id="path26517" style="fill:#89adc2" d="m27.305 32v-0.85938h-1.2891v0.85938h1.2891"/>
  <path id="path26519" style="fill:#89adc2" d="m28.555 32v-0.85938h-1.2891v0.85938h1.2891"/>
  <path id="path26521" style="fill:#89adc2" d="m29.805 32v-0.85938h-1.2891v0.85938h1.2891"/>
  <path id="path26527" style="fill:#94d48e" d="m12.289 34v-0.85938h-1.2891v0.85938h1.2891"/>
  <path id="path26529" style="fill:#94d48e" d="m13.539 34v-0.85938h-1.2891v0.85938h1.2891"/>
  <path id="path26533" style="fill:#c0c0c0" d="m16.039 34v-0.85938h-1.2891v0.85938h1.2891"/>
  <path id="path26535" style="fill:#c0c0c0" d="m17.289 34v-0.85938h-1.2891v0.85938h1.2891"/>
  <path id="path26537" style="fill:#c0c0c0" d="m18.539 34v-0.85938h-1.2891v0.85938h1.2891"/>
  <path id="path26541" style="fill:#89adc2" d="m21.039 34v-0.85938h-1.2891v0.85938h1.2891"/>
  <path id="path26543" style="fill:#89adc2" d="m24.797 34v-0.85938h-1.2891v0.85938h1.2891"/>
  <path id="path26545" style="fill:#89adc2" d="m26.047 34v-0.85938h-1.2891v0.85938h1.2891"/>
  <path id="path26547" style="fill:#89adc2" d="m27.297 34v-0.85938h-1.2891v0.85938h1.2891"/>
  <path id="path26549" style="fill:#89adc2" d="m28.547 34v-0.85938h-1.2891v0.85938h1.2891"/>
  <path id="path26553" style="fill:#89adc2" d="m31.047 34v-0.85938h-1.2891v0.85938h1.2891"/>
  <path id="path26555" style="fill:#89adc2" d="m32.297 34v-0.85938h-1.2891v0.85938h1.2891"/>
  <path id="path3513" style="fill:#d48eb3" d="m18.547 18v-0.85938h-1.2891v0.85938h1.2891"/>
  <path id="path3515" style="fill:#c0c0c0" d="m18.547 24v-0.85938h-1.2891v0.85938h1.2891"/>
  <path id="path3517" style="fill:#c0c0c0" d="m17.297 24v-0.85938h-1.2891v0.85938h1.2891"/>
  <path id="path4287" style="fill:#89adc2" d="m21.047 32v-0.85938h-1.2891v0.85938h1.2891"/>
  <path id="path4289" style="fill:#89adc2" d="m24.817 32v-0.85938h-1.2891v0.85938h1.2891"/>
  <path id="path4291" style="fill:#89adc2" d="m23.559 34v-0.85938h-1.2891v0.85938h1.2891"/>
  <path id="path4323" style="fill:#c0c0c0" d="m12.289 38v-0.85938h-1.2891v0.85938h1.2891"/>
  <path id="path4325" style="fill:#c0c0c0" d="m13.539 38v-0.85938h-1.2891v0.85938h1.2891"/>
  <path id="path4327" style="fill:#c0c0c0" d="m14.038 38v-0.85938h-1.2891v0.85938h1.2891"/>
  <path id="path4329" style="fill:#d48eb3" d="m31.016 38v-0.85938h1.289v0.85938h-1.289"/>
  <path id="path4331" style="fill:#d48eb3" d="m29.766 38v-0.85938h1.289v0.85938h-1.289"/>
  <path id="path4333" style="fill:#d48eb3" d="m26.008 38v-0.85938h1.2891v0.85938h-1.2891"/>
  <path id="path4335" style="fill:#d48eb3" d="m22.25 38v-0.85938h1.2891v0.85938h-1.2891"/>
  <path id="path4337" style="fill:#d48eb3" d="m21 38v-0.85938h1.2891v0.85938h-1.289"/>
  <path id="path4339" style="fill:#d48eb3" d="m19.75 38v-0.85938h1.2891v0.85938h-1.2891"/>
  <path id="path4341" style="fill:#d48eb3" d="m18.5 38v-0.85938h1.2891v0.85938h-1.289"/>
  <path id="path4343" style="fill:#d48eb3" d="m17.25 38v-0.85938h1.2891v0.85938h-1.2891"/>
  <path id="path4345" style="fill:#d48eb3" d="m16 38v-0.85938h1.2891v0.85938h-1.289"/>
  <path id="path4347" style="fill:#de6161" d="m12.289 40v-0.85938h-1.2891v0.85938h1.2891"/>
  <path id="path4349" style="fill:#de6161" d="m13.539 40v-0.85938h-1.2891v0.85938h1.2891"/>
  <path id="path4351" style="fill:#c0c0c0" d="m16.039 40v-0.85938h-1.2891v0.85938h1.2891"/>
  <path id="path4353" style="fill:#c0c0c0" d="m17.289 40v-0.85938h-1.2891v0.85938h1.2891"/>
  <path id="path4355" style="fill:#c0c0c0" d="m18.539 40v-0.85938h-1.2891v0.85938h1.2891"/>
  <path id="path4357" style="fill:#89adc2" d="m21.039 40v-0.85938h-1.2891v0.85938h1.2891"/>
  <path id="path4359" style="fill:#89adc2" d="m23.283 40v-0.85938h-1.2891v0.85938h1.2891"/>
  <path id="path4361" style="fill:#89adc2" d="m26.047 40v-0.85938h-1.2891v0.85938h1.2891"/>
  <path id="path4363" style="fill:#89adc2" d="m27.297 40v-0.85938h-1.2891v0.85938h1.2891"/>
  <path id="path4365" style="fill:#89adc2" d="m28.547 40v-0.85938h-1.2891v0.85938h1.2891"/>
  <path id="path4367" style="fill:#89adc2" d="m29.797 40v-0.85938h-1.2891v0.85938h1.2891"/>
  <path id="path4369" style="fill:#89adc2" d="m31.047 40v-0.85938h-1.2891v0.85938h1.2891"/>
  <path id="path4375" style="fill:#d48eb3" d="m27.258 38v-0.85938h1.2891v0.85938h-1.2891"/>
  <path id="path4377" style="fill:#d48eb3" d="m23.487 38v-0.85938h1.2891v0.85938h-1.2891"/>
  <path id="path4379" style="fill:#89adc2" d="m22.267 40v-0.85938h-1.2891v0.85938h1.2891"/>
  <path id="path4400" style="fill:#89adc2" d="m17.265 10v-0.85938h-1.2891v0.85938h1.2891"/>
 </g>
</svg>
