<?xml version="1.0" encoding="UTF-8" standalone="no"?>
<!-- Created with Inkscape (http://www.inkscape.org/) -->
<svg id="svg3759" xmlns:rdf="http://www.w3.org/1999/02/22-rdf-syntax-ns#" xmlns="http://www.w3.org/2000/svg" height="48" width="48" version="1.1" xmlns:cc="http://creativecommons.org/ns#" xmlns:xlink="http://www.w3.org/1999/xlink" xmlns:dc="http://purl.org/dc/elements/1.1/">
 <metadata id="metadata37">
  <rdf:RDF>
   <cc:Work rdf:about="">
    <dc:format>image/svg+xml</dc:format>
    <dc:type rdf:resource="http://purl.org/dc/dcmitype/StillImage"/>
    <dc:title/>
   </cc:Work>
  </rdf:RDF>
 </metadata>
 <defs id="defs3761">
  <linearGradient id="linearGradient3960">
   <stop id="stop3962" style="stop-opacity:0" offset="0"/>
   <stop id="stop3970" offset=".5"/>
   <stop id="stop3964" style="stop-opacity:0" offset="1"/>
  </linearGradient>
  <linearGradient id="linearGradient3952">
   <stop id="stop3954" offset="0"/>
   <stop id="stop3956" style="stop-opacity:0" offset="1"/>
  </linearGradient>
  <linearGradient id="linearGradient3142" y2="40" gradientUnits="userSpaceOnUse" x2="144" gradientTransform="matrix(-.175 0 0 .175 49.2 -5)" y1="280" x1="144">
   <stop id="stop3990-5" style="stop-color:#e8e8e8" offset="0"/>
   <stop id="stop3992-0" style="stop-color:#f0f0f0" offset="1"/>
  </linearGradient>
  <linearGradient id="linearGradient3920" y2="48" gradientUnits="userSpaceOnUse" x2="24" x1="24">
   <stop id="stop3916" style="stop-color:#fff" offset="0"/>
   <stop id="stop3918" style="stop-color:#fff;stop-opacity:0" offset="1"/>
  </linearGradient>
  <radialGradient id="radialGradient3925" xlink:href="#linearGradient3952" gradientUnits="userSpaceOnUse" cy="43.5" cx="9" gradientTransform="matrix(1 0 0 .75 -1 10.875)" r="2"/>
  <radialGradient id="radialGradient3928" xlink:href="#linearGradient3952" gradientUnits="userSpaceOnUse" cy="43.5" cx="40" gradientTransform="matrix(1 0 0 .75 -3e-7 10.875)" r="2"/>
  <linearGradient id="linearGradient3931" y2="42" xlink:href="#linearGradient3960" gradientUnits="userSpaceOnUse" x2="25" gradientTransform="matrix(1.0305 0 0 1 -1.2476 0)" y1="45" x1="25"/>
  <radialGradient id="radialGradient3934" xlink:href="#linearGradient3952" gradientUnits="userSpaceOnUse" cy="43.5" cx="9" gradientTransform="matrix(1.0571 0 0 1.25 -2.4 -10.875)" r="2"/>
  <radialGradient id="radialGradient3937" xlink:href="#linearGradient3952" gradientUnits="userSpaceOnUse" cy="43.5" cx="40" gradientTransform="matrix(1.0571 0 0 1.25 -1.4 -10.875)" r="2"/>
  <linearGradient id="linearGradient3940" y2="42" xlink:href="#linearGradient3960" gradientUnits="userSpaceOnUse" x2="25" gradientTransform="matrix(1.0894 0 0 1.6667 -2.6903 -29)" y1="45" x1="25"/>
 </defs>
 <g id="layer1">
  <g id="g3942">
   <rect id="rect3985" style="opacity:0.12;fill:url(#linearGradient3940)" height="5" width="33.771" y="41" x="7.1143"/>
   <path id="path3987" style="opacity:0.12;fill:url(#radialGradient3937)" d="m40.886 41v5h0.52857c0.87849 0 1.5857-1.115 1.5857-2.5s-0.70723-2.5-1.5857-2.5h-0.52857z"/>
   <path id="path3989" style="opacity:0.12;fill:url(#radialGradient3934)" d="m6.4866 41c-0.8236 0-1.4866 1.045-1.4866 2.344v0.3125c0 1.2984 0.66303 2.3438 1.4866 2.3438h0.62768v-5h-0.62768z"/>
   <rect id="rect3938" style="opacity:0.12;fill:url(#linearGradient3931)" height="3" width="31.946" y="42" x="8.027"/>
   <path id="rect3940" style="opacity:0.12;fill:url(#radialGradient3928)" d="m40 42v3h0.5c0.831 0 1.5-0.669 1.5-1.5s-0.669-1.5-1.5-1.5h-0.5z"/>
   <path id="rect3942" style="opacity:0.12;fill:url(#radialGradient3925)" d="m7.4062 42c-0.77906 0-1.4062 0.62719-1.4062 1.4062v0.1875c0 0.77906 0.62719 1.4062 1.4062 1.4062h0.59375v-3h-0.59375z"/>
  </g>
  <path id="rect3886" style="opacity:.35;color:#bebebe" d="m40 3h-32c-0.554 0-1 0.446-1 1v39c0 0.554 0.446 1 1 1h32c0.554 0 1-0.446 1-1v-39c0-0.554-0.446-1-1-1z"/>
  <path id="rect3882" style="color:#bebebe;fill:url(#linearGradient3142)" d="m40 4h-32v39h32z"/>
  <path id="path3893" style="opacity:.4;fill:url(#linearGradient3920)" d="m40 4h-32v39h32zm-1 1v37h-30v-37z"/>
  <rect id="rect3144" style="opacity:.4;fill:#fff" height="1" width="32" y="4" x="8"/>
  <rect id="rect3922" style="opacity:.2;fill:#fff" height="1" width="32" y="42" x="8"/>
 </g>
 <g id="layer2">
  <path id="path4231" style="opacity:.4;enable-background:new;fill:#fff" d="m20.44 34.297c0-0.49815 0.07148-0.91904 0.21448-1.2638 0.14298-0.34363 0.34131-0.62154 0.59616-0.83371 0.25369-0.21218 0.5535-0.36554 0.89829-0.46124 0.34363-0.09456 0.71148-0.14299 1.1035-0.14299 0.37131 0 0.72417 0.04843 1.0574 0.14299 0.33326 0.0957 0.62731 0.24907 0.88215 0.46124 0.25369 0.21217 0.45434 0.49008 0.60309 0.83371 0.14875 0.34479 0.22255 0.76568 0.22255 1.2638 0 0.47739-0.0738 0.8856-0.22255 1.2246-0.14875 0.33787-0.3494 0.62038-0.60309 0.84294-0.25484 0.2214-0.54889 0.38284-0.88215 0.48431-0.334 0.1-0.686 0.151-1.058 0.151-0.39206 0-0.75991-0.05074-1.1035-0.15106-0.34479-0.10147-0.6446-0.26291-0.89829-0.48431-0.25485-0.22256-0.45318-0.50507-0.59616-0.84294-0.14299-0.33902-0.21448-0.74722-0.21448-1.2246m0.52467-5.4358v-1.175c0-0.54082 0.05538-1.0309 0.1672-1.4702 0.1107-0.44049 0.28021-0.85792 0.50853-1.2558 0.22716-0.39667 0.52121-0.78412 0.88098-1.16 0.36093-0.37592 0.79566-0.76568 1.3042-1.1681 0.44511-0.3494 0.82102-0.6619 1.1278-0.93865 0.30789-0.27444 0.5558-0.54773 0.74723-0.81872 0.19026-0.26983 0.32864-0.55234 0.41282-0.8487 0.08528-0.2975 0.128-0.64229 0.128-1.0332 0-0.60424-0.20526-1.1035-0.61231-1.4945-0.40821-0.39207-1.0309-0.58809-1.8681-0.58809-0.72993 0-1.5175 0.15336-2.3604 0.4601-0.84063 0.30788-1.7135 0.6838-2.6141 1.1289l-1.621-3.512c0.45433-0.26522 0.95018-0.5166 1.4852-0.75414 0.5362-0.23871 1.092-0.45087 1.6686-0.63652 0.57771-0.1845 1.1635-0.33095 1.7562-0.43704 0.594-0.106 1.176-0.159 1.749-0.159 1.0805 0 2.0549 0.1303 2.9232 0.38975 0.86946 0.25946 1.6063 0.63768 2.2094 1.1358 0.60539 0.49815 1.0678 1.1035 1.3907 1.8127 0.32403 0.71032 0.48546 1.5198 0.48546 2.4308 0 0.66766-0.07495 1.2638-0.22254 1.7885-0.1476 0.52468-0.369 1.0124-0.65844 1.4622-0.2929 0.45087-0.65844 0.8856-1.0978 1.303-0.43934 0.41858-0.95133 0.86138-1.5337 1.3273-0.4451 0.34939-0.80834 0.65497-1.0897 0.91442-0.28021 0.25946-0.50046 0.50623-0.65843 0.738-0.15914 0.23408-0.26753 0.4751-0.32634 0.72417-0.05768 0.24793-0.08764 0.54197-0.08764 0.881v0.95363h-4.1951z"/>
  <path id="path4055" d="m20.44 33.297c0-0.49815 0.07148-0.91904 0.21448-1.2638 0.14298-0.34363 0.34131-0.62154 0.59616-0.83371 0.25369-0.21218 0.5535-0.36554 0.89829-0.46124 0.34363-0.09456 0.71148-0.14299 1.1035-0.14299 0.37131 0 0.72417 0.04843 1.0574 0.14299 0.33326 0.0957 0.62731 0.24907 0.88215 0.46124 0.25369 0.21217 0.45434 0.49008 0.60309 0.83371 0.14875 0.34479 0.22255 0.76568 0.22255 1.2638 0 0.47739-0.0738 0.8856-0.22255 1.2246-0.14875 0.33787-0.3494 0.62038-0.60309 0.84294-0.25484 0.2214-0.54889 0.38284-0.88215 0.48431-0.334 0.1-0.686 0.151-1.058 0.151-0.39206 0-0.75991-0.05074-1.1035-0.15106-0.34479-0.10147-0.6446-0.26291-0.89829-0.48431-0.25485-0.22256-0.45318-0.50507-0.59616-0.84294-0.14299-0.33902-0.21448-0.74722-0.21448-1.2246m0.52467-5.4358v-1.175c0-0.54082 0.05538-1.0309 0.1672-1.4702 0.1107-0.44049 0.28021-0.85792 0.50853-1.2558 0.22716-0.39667 0.52121-0.78412 0.88098-1.16 0.36093-0.37592 0.79566-0.76568 1.3042-1.1681 0.44511-0.3494 0.82102-0.6619 1.1278-0.93865 0.30789-0.27444 0.5558-0.54773 0.74723-0.81872 0.19026-0.26983 0.32864-0.55234 0.41282-0.8487 0.08528-0.2975 0.128-0.64229 0.128-1.0332 0-0.60424-0.20526-1.1035-0.61231-1.4945-0.40821-0.39207-1.0309-0.58809-1.8681-0.58809-0.72993 0-1.5175 0.15336-2.3604 0.4601-0.84063 0.30788-1.7135 0.6838-2.6141 1.1289l-1.621-3.512c0.45433-0.26522 0.95018-0.5166 1.4852-0.75414 0.5362-0.23871 1.092-0.45087 1.6686-0.63652 0.57771-0.1845 1.1635-0.33095 1.7562-0.43704 0.594-0.106 1.176-0.159 1.749-0.159 1.0805 0 2.0549 0.1303 2.9232 0.38975 0.86946 0.25946 1.6063 0.63768 2.2094 1.1358 0.60539 0.49815 1.0678 1.1035 1.3907 1.8127 0.32403 0.71032 0.48546 1.5198 0.48546 2.4308 0 0.66766-0.07495 1.2638-0.22254 1.7885-0.1476 0.52468-0.369 1.0124-0.65844 1.4622-0.2929 0.45087-0.65844 0.8856-1.0978 1.303-0.43934 0.41858-0.95133 0.86138-1.5337 1.3273-0.4451 0.34939-0.80834 0.65497-1.0897 0.91442-0.28021 0.25946-0.50046 0.50623-0.65843 0.738-0.15914 0.23408-0.26753 0.4751-0.32634 0.72417-0.05768 0.24793-0.08764 0.54197-0.08764 0.881v0.95363h-4.1951z" style="enable-background:new;fill:#ccc"/>
  <path id="path3973" style="opacity:.1;enable-background:new" d="m23.812 12c-0.573 0-1.156 0.05-1.75 0.156-0.592 0.106-1.172 0.253-1.75 0.438-0.576 0.185-1.12 0.386-1.656 0.625-0.535 0.237-1.045 0.516-1.5 0.781l0.375 0.812c0.357-0.194 0.723-0.415 1.125-0.593 0.536-0.239 1.08-0.44 1.656-0.625 0.578-0.185 1.158-0.332 1.75-0.438 0.594-0.106 1.177-0.156 1.75-0.156 1.081 0 2.07 0.116 2.938 0.375 0.869 0.259 1.616 0.658 2.219 1.156 0.605 0.498 1.052 1.104 1.375 1.813 0.243 0.532 0.408 1.104 0.468 1.75 0.005-0.108 0.032-0.201 0.032-0.313 0-0.911-0.176-1.727-0.5-2.437-0.323-0.709-0.77-1.315-1.375-1.813-0.603-0.498-1.35-0.897-2.219-1.156-0.868-0.259-1.857-0.375-2.938-0.375zm2.376 6.625c-0.021 0.135-0.029 0.286-0.063 0.406-0.084 0.297-0.247 0.574-0.437 0.844-0.192 0.271-0.443 0.538-0.75 0.813-0.307 0.276-0.68 0.588-1.126 0.937-0.508 0.402-0.92 0.812-1.281 1.187-0.36 0.376-0.679 0.76-0.906 1.157-0.228 0.398-0.389 0.809-0.5 1.25-0.112 0.439-0.156 0.928-0.156 1.469v1c0-0.541 0.044-1.03 0.156-1.469 0.111-0.441 0.272-0.852 0.5-1.25 0.227-0.397 0.546-0.781 0.906-1.157 0.361-0.375 0.773-0.785 1.281-1.187 0.446-0.349 0.819-0.661 1.126-0.937 0.307-0.275 0.558-0.542 0.75-0.813 0.19-0.27 0.353-0.547 0.437-0.844 0.085-0.297 0.125-0.64 0.125-1.031 0-0.13-0.044-0.255-0.062-0.375zm-2.938 11.969c-0.392 0-0.75 0.061-1.094 0.156-0.345 0.096-0.652 0.225-0.906 0.438-0.255 0.212-0.451 0.5-0.594 0.843-0.143 0.345-0.218 0.783-0.218 1.281 0 0.171 0.013 0.317 0.031 0.469 0.033-0.278 0.097-0.532 0.187-0.75 0.143-0.343 0.339-0.631 0.594-0.843 0.254-0.213 0.561-0.342 0.906-0.438 0.344-0.095 0.702-0.156 1.094-0.156 0.371 0 0.729 0.061 1.062 0.156 0.334 0.096 0.621 0.225 0.876 0.438 0.253 0.212 0.445 0.5 0.593 0.843 0.094 0.218 0.185 0.472 0.219 0.75 0.019-0.152 0.031-0.298 0.031-0.469 0-0.498-0.101-0.936-0.25-1.281-0.148-0.343-0.34-0.631-0.593-0.843-0.255-0.213-0.542-0.342-0.876-0.438-0.333-0.095-0.691-0.156-1.062-0.156z"/>
 </g>
</svg>
