<?xml version="1.0" encoding="UTF-8" standalone="no"?>
<!-- Created with Inkscape (http://www.inkscape.org/) -->
<svg id="svg3759" xmlns:rdf="http://www.w3.org/1999/02/22-rdf-syntax-ns#" xmlns="http://www.w3.org/2000/svg" height="48" width="48" version="1.1" xmlns:cc="http://creativecommons.org/ns#" xmlns:xlink="http://www.w3.org/1999/xlink" xmlns:dc="http://purl.org/dc/elements/1.1/">
 <metadata id="metadata37">
  <rdf:RDF>
   <cc:Work rdf:about="">
    <dc:format>image/svg+xml</dc:format>
    <dc:type rdf:resource="http://purl.org/dc/dcmitype/StillImage"/>
    <dc:title/>
   </cc:Work>
  </rdf:RDF>
 </metadata>
 <defs id="defs3761">
  <linearGradient id="linearGradient4140" y2="256" gradientUnits="userSpaceOnUse" x2="827" y1="256" x1="789">
   <stop id="stop4136" style="stop-color:#fff" offset="0"/>
   <stop id="stop4138" style="stop-color:#fff;stop-opacity:0" offset="1"/>
  </linearGradient>
  <clipPath id="clipPath4130" clipPathUnits="userSpaceOnUse">
   <path id="path4132" style="fill:#ba2222" d="m790.44 237c-0.81 0-1.44 0.63-1.44 1.44v35.094c0 0.812 0.62555 1.4688 1.4375 1.4688h35.125c0.81195 0 1.4375-0.65675 1.4375-1.4688v-35.094c0-0.81-0.63-1.44-1.44-1.44h-35.125z"/>
  </clipPath>
  <linearGradient id="linearGradient3960">
   <stop id="stop3962" style="stop-opacity:0" offset="0"/>
   <stop id="stop3970" offset=".5"/>
   <stop id="stop3964" style="stop-opacity:0" offset="1"/>
  </linearGradient>
  <linearGradient id="linearGradient3952">
   <stop id="stop3954" offset="0"/>
   <stop id="stop3956" style="stop-opacity:0" offset="1"/>
  </linearGradient>
  <linearGradient id="linearGradient3048" y2="-808" gradientUnits="userSpaceOnUse" y1="-808" gradientTransform="translate(980.36 784)" x2="-984.86" x1="-1023.9">
   <stop id="stop3864-8-6-7" style="stop-color:#4b384c" offset="0"/>
   <stop id="stop3866-9-1-1" style="stop-color:#615962" offset="1"/>
  </linearGradient>
  <radialGradient id="radialGradient3167" xlink:href="#linearGradient3952" gradientUnits="userSpaceOnUse" cy="43.5" cx="40" gradientTransform="matrix(1.0571 0 0 1.25 .6 -10.875)" r="2"/>
  <radialGradient id="radialGradient3169" xlink:href="#linearGradient3952" gradientUnits="userSpaceOnUse" cy="43.5" cx="40" gradientTransform="matrix(1 0 0 .75 2 10.875)" r="2"/>
  <radialGradient id="radialGradient3171" xlink:href="#linearGradient3952" gradientUnits="userSpaceOnUse" cy="43.5" cx="9" gradientTransform="matrix(1.0571 0 0 1.25 -4.4 -10.875)" r="2"/>
  <radialGradient id="radialGradient3173" xlink:href="#linearGradient3952" gradientUnits="userSpaceOnUse" cy="43.5" cx="9" gradientTransform="matrix(1 0 0 .75 -3 10.875)" r="2"/>
  <linearGradient id="linearGradient3175" y2="42" xlink:href="#linearGradient3960" gradientUnits="userSpaceOnUse" x2="25" gradientTransform="matrix(1.0571 0 0 1.6667 -5.4 -29)" y1="45" x1="25"/>
  <linearGradient id="linearGradient3178" y2="42" xlink:href="#linearGradient3960" gradientUnits="userSpaceOnUse" x2="25" gradientTransform="translate(-4)" y1="45" x1="25"/>
 </defs>
 <g id="layer1">
  <g id="g3145" transform="translate(0,-2)">
   <path id="path3987" style="opacity:0.12;fill:url(#radialGradient3167)" d="m42.886 41v5h0.52857c0.87849 0 1.5857-1.115 1.5857-2.5s-0.70723-2.5-1.5857-2.5h-0.52857z"/>
   <path id="rect3940" d="m42 42v3h0.5c0.831 0 1.5-0.669 1.5-1.5s-0.669-1.5-1.5-1.5h-0.5z" style="opacity:0.12;fill:url(#radialGradient3169)"/>
   <path id="path3989" style="opacity:0.12;fill:url(#radialGradient3171)" d="m4.4866 41c-0.8236 0-1.4866 1.045-1.4866 2.344v0.3125c0 1.2984 0.66303 2.3438 1.4866 2.3438h0.62768v-5h-0.62768z"/>
   <path id="rect3942" d="m5.4062 42c-0.77906 0-1.4062 0.62719-1.4062 1.4062v0.1875c0 0.77906 0.62719 1.4062 1.4062 1.4062h0.59375v-3h-0.59375z" style="opacity:0.12;fill:url(#radialGradient3173)"/>
   <path id="rect3985" d="m5.1141 41h37.772v5h-37.772z" style="opacity:0.12;fill:url(#linearGradient3175)"/>
   <path id="rect3938" d="m5.9999 42h36v3h-36z" style="opacity:0.12;fill:url(#linearGradient3178)"/>
  </g>
  <path id="rect4073-3" style="fill:url(#linearGradient3048)" d="m-39.55-43.5h31.1c1.0803 0 1.95 0.87 1.95 1.95v35.1c0 1.0803-0.8697 1.95-1.95 1.95h-31.1c-1.08 0-1.95-0.8697-1.95-1.95v-35.1c0-1.0803 0.8697-1.95 1.95-1.95z" transform="matrix(0,-1,-1,0,0,0)"/>
  <path id="rect4085" style="opacity:0.61;stroke:#000;fill:none" d="m-39.55-43.5h31.1c1.0803 0 1.95 0.87 1.95 1.95v35.1c0 1.0803-0.8697 1.95-1.95 1.95h-31.1c-1.08 0-1.95-0.8697-1.95-1.95v-35.1c0-1.0803 0.8697-1.95 1.95-1.95z" transform="matrix(0,-1,-1,0,0,0)"/>
  <path id="rect4089-4" style="opacity:.15;fill:#fff" d="m6.4375 7c-0.8119 0-1.4375 0.6256-1.4375 1.4375v1c0-0.8119 0.6256-1.4375 1.4375-1.4375h35.125c0.81195 0 1.4375 0.62555 1.4375 1.4375v-1c0-0.81195-0.62555-1.4375-1.4375-1.4375z"/>
  <path id="path4128" style="opacity:.1;stroke:url(#linearGradient4140);stroke-width:2;fill:none" d="m792.44 237c-0.81 0-1.44 0.63-1.44 1.44v35.094c0 0.812 0.62555 1.4688 1.4375 1.4688h31.125c0.81195 0 1.4375-0.65675 1.4375-1.4688v-35.094c0-0.81-0.63-1.44-1.44-1.44z" clip-path="url(#clipPath4130)" transform="matrix(0,1,-1,0,280,-784)"/>
  <path id="path4105" style="opacity:.1;fill:#fff" d="m6.4375 41c-0.8119 0-1.4375-0.626-1.4375-1.437v-1c0 0.8119 0.62555 1.4375 1.4375 1.4375h35.125c0.81195 0 1.4375-0.6256 1.4375-1.4375v1c0 0.8119-0.62555 1.4375-1.4375 1.4375z"/>
 </g>
 <g id="layer2">
  <path id="path4775" d="m16 32v-16l16 8z" style="opacity:.05;stroke-linejoin:round;stroke:#fff;stroke-width:4;fill:none"/>
  <path id="path4789" style="opacity:.1;stroke-linejoin:round;stroke:#fff;stroke-width:2;fill:none" d="m16 32v-16l16 8z"/>
  <path id="path4733" style="fill:#fff" d="m16 32v-16l16 8z"/>
 </g>
</svg>
