<?xml version="1.0" encoding="UTF-8" standalone="no"?>
<!-- Created with Inkscape (http://www.inkscape.org/) -->
<svg id="svg5014" xmlns:rdf="http://www.w3.org/1999/02/22-rdf-syntax-ns#" xmlns="http://www.w3.org/2000/svg" height="32px" width="32px" version="1.1" xmlns:cc="http://creativecommons.org/ns#" xmlns:xlink="http://www.w3.org/1999/xlink" xmlns:dc="http://purl.org/dc/elements/1.1/">
 <defs id="defs5016">
  <radialGradient id="radialGradient3100" gradientUnits="userSpaceOnUse" cy="43.5" cx="9" gradientTransform="matrix(1 0 0 .75 -7 -5.125)" r="2">
   <stop id="stop3946-4" offset="0"/>
   <stop id="stop3948-8" style="stop-opacity:0" offset="1"/>
  </radialGradient>
  <radialGradient id="radialGradient3103" gradientUnits="userSpaceOnUse" cy="43.5" cx="40" gradientTransform="matrix(1 0 0 .75 -10 -5.125)" r="2">
   <stop id="stop3954-8" offset="0"/>
   <stop id="stop3956-9" style="stop-opacity:0" offset="1"/>
  </radialGradient>
  <radialGradient id="radialGradient3109" gradientUnits="userSpaceOnUse" cy="43.5" cx="9" gradientTransform="matrix(1 0 0 .75 -3 -2.125)" r="2">
   <stop id="stop3946" offset="0"/>
   <stop id="stop3948" style="stop-opacity:0" offset="1"/>
  </radialGradient>
  <linearGradient id="linearGradient3120" y2="10.239" gradientUnits="userSpaceOnUse" x2="30.096" gradientTransform="matrix(.74092 0 0 -.40221 -2.299 39.118)" y1="40.074" x1="30.096">
   <stop id="stop3947" style="stop-color:#a7a7a7" offset="0"/>
   <stop id="stop3949" style="stop-color:#e6e6e6" offset="0.25"/>
   <stop id="stop3951" style="stop-color:#f2f2f2" offset="1"/>
  </linearGradient>
  <linearGradient id="linearGradient3129" y2="9" gradientUnits="userSpaceOnUse" x2="11" gradientTransform="matrix(1.5254 0 0 1.5254 -.77118 -1.0342)" y1="19" x1="11">
   <stop id="stop3109" style="stop-color:#232323" offset="0"/>
   <stop id="stop3111" style="stop-color:#535353" offset=".78331"/>
   <stop id="stop3113" style="stop-color:#676767" offset=".78331"/>
   <stop id="stop3115" style="stop-color:#676767" offset="1"/>
  </linearGradient>
  <linearGradient id="linearGradient3163" y2="35.51" gradientUnits="userSpaceOnUse" x2="138.81" gradientTransform="matrix(.12419 0 0 .12564 -1.2387 -4.4616)" y1="162.86" x1="138.81">
   <stop id="stop3971" style="stop-color:#a7a7a7" offset="0"/>
   <stop id="stop3973" style="stop-color:#e6e6e6" offset="0.125"/>
   <stop id="stop3975" style="stop-color:#f2f2f2" offset="1"/>
  </linearGradient>
  <linearGradient id="linearGradient3165" y2="42" gradientUnits="userSpaceOnUse" x2="25" gradientTransform="translate(-3,-13)" y1="45" x1="25">
   <stop id="stop3962" style="stop-opacity:0" offset="0"/>
   <stop id="stop3970" offset=".5"/>
   <stop id="stop3964" style="stop-opacity:0" offset="1"/>
  </linearGradient>
  <linearGradient id="linearGradient3167" y2="42" gradientUnits="userSpaceOnUse" x2="25" gradientTransform="matrix(1.2727 0 0 1 -9.4545 -16)" y1="45" x1="25">
   <stop id="stop3962-7" style="stop-opacity:0" offset="0"/>
   <stop id="stop3970-0" offset=".5"/>
   <stop id="stop3964-8" style="stop-opacity:0" offset="1"/>
  </linearGradient>
  <linearGradient id="linearGradient3157" y2="5.2916" gradientUnits="userSpaceOnUse" y1="18.358" gradientTransform="matrix(1.4619 0 0 1.5254 .31694 2.9345)" x2="10.421" x1="10.359">
   <stop id="stop3932" style="stop-color:#d7d7d7" offset="0"/>
   <stop id="stop3934" style="stop-color:#c5c5c5" offset=".75103"/>
   <stop id="stop3936" style="stop-color:#b6b6b6" offset=".75260"/>
   <stop id="stop3938" style="stop-color:#9b9b9b" offset="1"/>
  </linearGradient>
  <radialGradient id="radialGradient3905" gradientUnits="userSpaceOnUse" cy="19" cx="4.6722" gradientTransform="matrix(-6e-7 -1.7925 2.0966 -7.0181e-7 -32.82 25.867)" r="1">
   <stop id="stop4027" style="stop-color:#fff" offset="0"/>
   <stop id="stop4029" style="stop-color:#00ff4c" offset="1"/>
  </radialGradient>
  <radialGradient id="radialGradient3912" gradientUnits="userSpaceOnUse" cy="43.618" cx="39.116" gradientTransform="matrix(1 0 0 .75 -14 -2.125)" r="2">
   <stop id="stop3954" offset="0"/>
   <stop id="stop3956" style="stop-opacity:0" offset="1"/>
  </radialGradient>
  <linearGradient id="linearGradient3967" y2="35.51" gradientUnits="userSpaceOnUse" x2="138.81" gradientTransform="matrix(.12419 0 0 .12564 -1.2387 -4.4616)" y1="138.98" x1="138.81">
   <stop id="stop3939" style="stop-color:#a7a7a7" offset="0"/>
   <stop id="stop3941" style="stop-color:#e6e6e6" offset=".31250"/>
   <stop id="stop3943" style="stop-color:#f2f2f2" offset="1"/>
  </linearGradient>
 </defs>
 <metadata id="metadata5019">
  <rdf:RDF>
   <cc:Work rdf:about="">
    <dc:format>image/svg+xml</dc:format>
    <dc:type rdf:resource="http://purl.org/dc/dcmitype/StillImage"/>
    <dc:title/>
   </cc:Work>
  </rdf:RDF>
 </metadata>
 <g id="layer1">
  <path id="rect3938-8" style="opacity:.4;fill:url(#linearGradient3167)" d="m2 26h28v3h-28z"/>
  <path id="rect3940-0" style="opacity:.4;fill:url(#radialGradient3103)" d="m30 26v3h0.5c0.831 0 1.5-0.669 1.5-1.5s-0.669-1.5-1.5-1.5z"/>
  <path id="rect3942-3" style="opacity:.4;fill:url(#radialGradient3100)" d="m1.4062 26c-0.77901 0-1.4062 0.627-1.4062 1.406v0.1875c0 0.779 0.62719 1.406 1.4062 1.406h0.5938v-3z"/>
  <g id="g3907">
   <path id="rect3938" d="m6 29h19v3h-19z" style="opacity:.2;fill:url(#linearGradient3165)"/>
   <path id="rect3940" d="m25 29v3h0.5c0.831 0 2.5-0.669 2.5-1.5s-1.669-1.5-2.5-1.5z" style="opacity:.2;fill:url(#radialGradient3912)"/>
   <path id="rect3942" d="m5.4062 29c-0.779 0-1.4062 0.627-1.4062 1.406v0.1875c0 0.779 0.6272 1.406 1.4062 1.406h0.5938v-3z" style="opacity:.2;fill:url(#radialGradient3109)"/>
  </g>
  <path id="path5908" style="opacity:.4;color:#bebebe;fill:#fff" d="m7 4v1h18v-1z"/>
  <path id="rect3145" style="fill:url(#linearGradient3129)" d="m1.5 15.5v10.5c0.0692 1.453 1.5 1.5 1.5 1.5h26s1.5158 0.05338 1.5-1.5v-10.5l-3.5-4h-22z"/>
  <path id="path3916" d="m1.5 15.5v10.5c0.0692 1.453 1.5 1.5 1.5 1.5h26s1.5158 0.05338 1.5-1.5v-10.5l-3.5-4h-22z" style="opacity:.71;stroke:#000;fill:none"/>
  <path id="path3160" d="m3.5 16v5.5h7.2292l6.1693-2h11.602v-3.5l-3.2583-4.5h-18.483z" style="fill:url(#linearGradient3157)"/>
  <path id="path3129" style="opacity:0.41;stroke:#000;fill:none" d="m3.5 16v5.5h7.2292l6.1693-2h11.602v-3.5l-3.2583-4.5h-18.483z"/>
  <path id="rect3937" style="opacity:.4;fill:#fff" d="m4 16h24v-1h-24z"/>
  <path id="rect3950" style="fill:#505050" d="m6 25h20v-1h-20z"/>
  <path id="rect3952" style="opacity:.4" d="m7 23h18v1h-18z"/>
  <path id="rect3954" style="opacity:.4" d="m6 25h20v1h-20z"/>
  <path id="path3953" d="m25.5 30s-0.5-2-0.57615-6h-17.831c-0.093 4-0.593 6-0.593 6z" style="opacity:0.41;stroke:#000;stroke-width:2;fill:none"/>
  <path id="path4030" style="fill:url(#linearGradient3120)" d="m25.5 30s-0.5-2-0.57615-6h-17.831c-0.093 4-0.593 6-0.593 6z"/>
  <path id="path3961" d="m7 4h18v10h-18z" style="opacity:.41;stroke-width:2;color:#bebebe;stroke:#000;fill:none"/>
  <path id="rect3882" style="color:#bebebe;fill:url(#linearGradient3967)" d="m7 4h18v10h-18z"/>
  <path id="rect3921" style="opacity:.4;color:#bebebe;fill:#fff" d="m7 4v1h18v-1z"/>
  <g id="g3899" transform="matrix(.74419 0 0 .74419 1.2791 4.1163)">
   <path id="path4031" d="m7.0156 19.484c-0.82843 0-1.5-0.67157-1.5-1.5s0.67157-1.5 1.5-1.5 1.5 0.67157 1.5 1.5-0.67157 1.5-1.5 1.5z" style="fill:url(#radialGradient3905)"/>
   <path id="path4041" d="m9.0312 17.984c0-1.098-0.9169-2.015-2.0156-2.015-1.0986 0-2.0156 0.917-2.0156 2.015 0 1.099 0.917 2.016 2.0156 2.016 1.0987 0 2.0156-0.917 2.0156-2.016zm-1.0312 0c0 0.559-0.4262 0.985-0.9844 0.985s-0.9844-0.426-0.9844-0.985c0-0.558 0.4262-0.984 0.9844-0.984s0.9844 0.426 0.9844 0.984z" style="opacity:0.61;block-progression:tb;text-indent:0;color:#000000;text-transform:none"/>
  </g>
  <rect id="rect3957" style="opacity:0.41" ry="0" height="1" width="1" y="16" x="9"/>
  <rect id="rect3959" style="opacity:0.41" ry="0" height="1" width="1" y="16" x="11"/>
  <path id="path3965" d="m7 12h18v2h-18z" style="color:#bebebe;fill:url(#linearGradient3163)"/>
  <rect id="rect3977" style="opacity:0.41" height="1" width="18" y="11" x="7"/>
  <rect id="rect4150" style="opacity:.3" height="1" width="9" y="25" x="9"/>
  <rect id="rect4152" style="opacity:.3" height="1" width="5" y="27" x="8.6023"/>
  <rect id="rect4154" style="opacity:.3" height="1" width="7" y="27" x="15"/>
 </g>
</svg>
