<?xml version="1.0" encoding="UTF-8" standalone="no"?>
<!-- Created with Inkscape (http://www.inkscape.org/) -->
<svg id="svg7384" xmlns:rdf="http://www.w3.org/1999/02/22-rdf-syntax-ns#" style="enable-background:new" xmlns="http://www.w3.org/2000/svg" xmlns:osb="http://www.openswatchbook.org/uri/2009/osb" height="16" width="16" version="1.1" xmlns:cc="http://creativecommons.org/ns#" xmlns:dc="http://purl.org/dc/elements/1.1/">
 <metadata id="metadata90">
  <rdf:RDF>
   <cc:Work rdf:about="">
    <dc:format>image/svg+xml</dc:format>
    <dc:type rdf:resource="http://purl.org/dc/dcmitype/StillImage"/>
    <dc:title>Moka Symbolic Icon Theme</dc:title>
   </cc:Work>
  </rdf:RDF>
 </metadata>
 <title id="title8473">Moka Symbolic Icon Theme</title>
 <defs id="defs7386">
  <filter id="filter7554" style="color-interpolation-filters:sRGB">
   <feBlend id="feBlend7556" in2="BackgroundImage" mode="darken"/>
  </filter>
 </defs>
 <g id="layer10" style="filter:url(#filter7554)" transform="translate(-502 135)">
  <rect id="rect5981" style="fill:none" transform="rotate(90)" height="16" width="16" y="-518" x="-135"/>
  <path id="path5983" style="fill:#bebebe" d="m504-132c-1 0-1 1-1 1v9s0 1 1 1h11 1v-1h2v-9h-2v-1h-1-11zm0 1h11v9h-11v-9zm4 1v2 2.0938c-0.15432-0.0536-0.32741-0.0937-0.5-0.0937-0.82843 0-1.5 0.67157-1.5 1.5s0.67157 1.5 1.5 1.5 1.5-0.67157 1.5-1.5v-3.5h3v2.0938c-0.15432-0.0536-0.32741-0.0937-0.5-0.0937-0.82843 0-1.5 0.67157-1.5 1.5s0.67157 1.5 1.5 1.5 1.5-0.67157 1.5-1.5v-5.5h-1-3-1zm8 0h1v1h-1v-1zm0 2h1v1h-1v-1zm0 2h1v1h-1v-1zm0 2h1v1h-1v-1z"/>
 </g>
</svg>
