<?xml version="1.0" encoding="UTF-8" standalone="no"?>
<!-- Created with Inkscape (http://www.inkscape.org/) -->
<svg id="svg5400" xmlns:rdf="http://www.w3.org/1999/02/22-rdf-syntax-ns#" xmlns="http://www.w3.org/2000/svg" height="16px" width="16px" version="1.1" xmlns:cc="http://creativecommons.org/ns#" xmlns:xlink="http://www.w3.org/1999/xlink" xmlns:dc="http://purl.org/dc/elements/1.1/">
 <defs id="defs5402">
  <linearGradient id="linearGradient7048" y2="16" gradientUnits="userSpaceOnUse" x2="16" y1="-2.8422e-14" x1="16">
   <stop id="stop3762" style="stop-color:#e44343" offset="0"/>
   <stop id="stop3764" style="stop-color:#ac0808" offset="1"/>
  </linearGradient>
 </defs>
 <metadata id="metadata5405">
  <rdf:RDF>
   <cc:Work rdf:about="">
    <dc:format>image/svg+xml</dc:format>
    <dc:type rdf:resource="http://purl.org/dc/dcmitype/StillImage"/>
    <dc:title/>
   </cc:Work>
  </rdf:RDF>
 </metadata>
 <g id="layer1">
  <path id="path2555-7" d="m8 0.5c-4.1382 0-7.5 3.3618-7.5 7.5s3.3618 7.5 7.5 7.5 7.5-3.3618 7.5-7.5-3.362-7.5-7.5-7.5z" style="color:#000000;fill:url(#linearGradient7048)"/>
  <path id="path7037" style="opacity:.81;stroke-linejoin:round;color:#000000;stroke:#790000;stroke-linecap:round;fill:none" d="m8 15.5c4.1382 0 7.5-3.3618 7.5-7.5s-3.362-7.5-7.5-7.5c-4.1382 0-7.5 3.3618-7.5 7.5s3.3618 7.5 7.5 7.5z"/>
  <path id="path3805" style="opacity:.2;color:#000000" d="m8 16c-3.8674 0-7-3.133-7-7 0-0.1683 0.0196-0.3347 0.0312-0.5 0.2565 3.634 3.2697 6.5 6.9688 6.5 3.699 0 6.712-2.866 6.969-6.5 0.011 0.1653 0.031 0.3317 0.031 0.5 0 3.8674-3.1326 7-7 7z"/>
  <path id="path3021" style="opacity:.2;color:#000000;fill:#fff" d="m8 1c-3.8674 0-7 3.1326-7 7 0 0.1683 0.0196 0.3347 0.0312 0.5 0.2565-3.6336 3.2697-6.5 6.9688-6.5 3.699 0 6.712 2.8664 6.969 6.5 0.011-0.1653 0.031-0.3317 0.031-0.5 0-3.8674-3.133-7-7-7z"/>
 </g>
 <g id="layer2">
  <rect id="rect3859" style="opacity:.3" height="2" width="10" y="8" x="3"/>
  <rect id="rect3857" style="fill:#fff" height="2" width="10" y="7" x="3"/>
 </g>
</svg>
