<?xml version="1.0" encoding="UTF-8" standalone="no"?>
<!-- Created with Inkscape (http://www.inkscape.org/) -->
<svg id="svg5400" xmlns:rdf="http://www.w3.org/1999/02/22-rdf-syntax-ns#" xmlns="http://www.w3.org/2000/svg" height="16px" width="16px" version="1.1" xmlns:cc="http://creativecommons.org/ns#" xmlns:xlink="http://www.w3.org/1999/xlink" xmlns:dc="http://purl.org/dc/elements/1.1/">
 <defs id="defs5402">
  <linearGradient id="linearGradient7546" y2="132" gradientUnits="userSpaceOnUse" x2="1888" gradientTransform="matrix(0,1,-1,0,140,-1872)" y1="132" x1="1872">
   <stop id="stop3906" style="stop-color:#234683" offset="0"/>
   <stop id="stop3908" style="stop-color:#30589e" offset="1"/>
  </linearGradient>
  <linearGradient id="linearGradient7048" y2="16" gradientUnits="userSpaceOnUse" x2="16" gradientTransform="matrix(1,0,0,-1,0,16)" y1="-2.8422e-14" x1="16">
   <stop id="stop3864-8-6-3" style="stop-color:#1c6aba" offset="0"/>
   <stop id="stop3866-9-1-7" style="stop-color:#4195ec" offset="1"/>
  </linearGradient>
 </defs>
 <metadata id="metadata5405">
  <rdf:RDF>
   <cc:Work rdf:about="">
    <dc:format>image/svg+xml</dc:format>
    <dc:type rdf:resource="http://purl.org/dc/dcmitype/StillImage"/>
    <dc:title/>
   </cc:Work>
  </rdf:RDF>
 </metadata>
 <g id="layer1">
  <path id="path2555-7" d="m8 15.5c-4.1382 0-7.5-3.362-7.5-7.5 0-4.1382 3.3618-7.5 7.5-7.5s7.5 3.3618 7.5 7.5-3.3618 7.5-7.5 7.5z" style="color:#000000;fill:url(#linearGradient7048)"/>
  <path id="path7037" style="opacity:.81;stroke-linejoin:round;color:#000000;stroke:url(#linearGradient7546);stroke-linecap:round;fill:none" d="m8 15.5c4.1382 0 7.5-3.3618 7.5-7.5s-3.362-7.5-7.5-7.5c-4.1382 0-7.5 3.3618-7.5 7.5s3.3618 7.5 7.5 7.5z"/>
  <path id="path3805" style="opacity:.2;color:#000000" d="m8 16c-3.8674 0-7-3.133-7-7 0-0.1683 0.0196-0.3347 0.0312-0.5 0.2565 3.634 3.2697 6.5 6.9688 6.5 3.699 0 6.712-2.866 6.969-6.5 0.011 0.1653 0.031 0.3317 0.031 0.5 0 3.8674-3.1326 7-7 7z"/>
  <path id="path3021" style="opacity:.2;color:#000000;fill:#fff" d="m8 1c-3.8674 0-7 3.1326-7 7 0 0.1683 0.0196 0.3347 0.0312 0.5 0.2565-3.6336 3.2697-6.5 6.9688-6.5 3.699 0 6.712 2.8664 6.969 6.5 0.011-0.1653 0.031-0.3317 0.031-0.5 0-3.8674-3.133-7-7-7z"/>
 </g>
 <g id="layer2">
  <path id="path3814" style="opacity:.3;enable-background:new" d="m8.8281 4c0.55229 0 1 0.44772 1 1s-0.44772 1-1 1-0.99999-0.44772-0.99999-1c0-0.5523 0.4477-1 1-1zm-0.5 3c0.554 0 0.99999 0.446 0.99999 1 0 1-0.99999 3-0.99999 4 0 0.70946 0.3798 0.27986 0.68749 0.0625l0.46875 0.6875c-0.5897 0.729-1.4635 1.238-2.1563 1.25-0.554 0-1-0.446-1-1 0-1 1-3 1-4 0-0.70946-0.37979-0.27986-0.6875-0.0625l-0.4687-0.6875c0.5897-0.7289 1.4634-1.2376 2.1562-1.25z"/>
  <path id="path3861" d="m8.8281 3c0.55229 0 1 0.44772 1 1s-0.44772 1-1 1-0.99999-0.44772-0.99999-1c0-0.5523 0.4477-1 1-1zm-0.5 3c0.554 0 0.99999 0.446 0.99999 1 0 1-0.99999 3-0.99999 4 0 0.70946 0.3798 0.27986 0.68749 0.0625l0.46875 0.6875c-0.5897 0.729-1.4635 1.238-2.1563 1.25-0.554 0-1-0.446-1-1 0-1 1-3 1-4 0-0.70946-0.37979-0.27986-0.6875-0.0625l-0.4687-0.6875c0.5897-0.7289 1.4634-1.2376 2.1562-1.25z" style="enable-background:new;fill:#fff"/>
 </g>
</svg>
