<?xml version="1.0" encoding="UTF-8" standalone="no"?>
<!-- Created with Inkscape (http://www.inkscape.org/) -->
<svg id="svg3759" xmlns:rdf="http://www.w3.org/1999/02/22-rdf-syntax-ns#" xmlns="http://www.w3.org/2000/svg" height="16" width="16" version="1.1" xmlns:cc="http://creativecommons.org/ns#" xmlns:xlink="http://www.w3.org/1999/xlink" xmlns:dc="http://purl.org/dc/elements/1.1/">
 <metadata id="metadata37">
  <rdf:RDF>
   <cc:Work rdf:about="">
    <dc:format>image/svg+xml</dc:format>
    <dc:type rdf:resource="http://purl.org/dc/dcmitype/StillImage"/>
    <dc:title/>
   </cc:Work>
  </rdf:RDF>
 </metadata>
 <defs id="defs3761">
  <linearGradient id="linearGradient4287" y2="54.67" gradientUnits="userSpaceOnUse" x2="24" gradientTransform="matrix(.33335 0 0 .33232 -.00033072 32.696)" y1="-14.604" x1="24">
   <stop id="stop3848-7" style="stop-color:#fff3cb" offset="0"/>
   <stop id="stop3850-5" style="stop-color:#fdde76" offset=".26238"/>
   <stop id="stop3852-9" style="stop-color:#f9c440" offset=".66094"/>
   <stop id="stop3854-2" style="stop-color:#e48b20" offset="1"/>
  </linearGradient>
 </defs>
 <g id="layer1" transform="translate(0,-32)">
  <path id="path11155-5" d="m15.393 45.988-6.5101-12.248c-0.18713-0.34021-0.52573-0.52922-0.90283-0.52922s-0.71743 0.22681-0.9074 0.56702l-6.4619 12.248c-0.1521 0.30241-0.15384 0.71823 0.033443 1.0206 0.18731 0.302 0.48836 0.453 0.86546 0.453h12.972c0.3771 0 0.71728-0.18901 0.86938-0.49142 0.18981-0.30241 0.19139-0.68043 0.04197-1.0206z" style="fill:url(#linearGradient4287)"/>
  <path id="path11155-8" d="m15.393 45.988-6.5101-12.248c-0.18713-0.34021-0.52573-0.52922-0.90283-0.52922s-0.71743 0.22681-0.9074 0.56702l-6.4619 12.248c-0.1521 0.30241-0.15384 0.71823 0.033443 1.0206 0.18731 0.302 0.48836 0.453 0.86546 0.453h12.972c0.3771 0 0.71728-0.18901 0.86938-0.49142 0.18981-0.30241 0.19139-0.68043 0.04197-1.0206z" style="opacity:0.81;stroke:#744000;fill:none"/>
 </g>
 <g id="layer2" transform="translate(0,-32)">
  <path id="path3884" style="opacity:.3;fill:#fff" d="m7 37v4l0.5 3h1l0.5-3v-4zm0 8v2h2v-2z"/>
  <path id="rect3870" style="fill:#1a1a1a" d="m7 4v4l0.5 3h1l0.5-3v-4zm0 8v2h2v-2z" transform="translate(0,32)"/>
 </g>
</svg>
