<?xml version="1.0" encoding="UTF-8" standalone="no"?>
<!-- Created with Inkscape (http://www.inkscape.org/) -->
<svg id="svg5400" xmlns:rdf="http://www.w3.org/1999/02/22-rdf-syntax-ns#" xmlns="http://www.w3.org/2000/svg" height="16px" width="16px" version="1.1" xmlns:cc="http://creativecommons.org/ns#" xmlns:xlink="http://www.w3.org/1999/xlink" xmlns:dc="http://purl.org/dc/elements/1.1/">
 <defs id="defs5402">
  <linearGradient id="linearGradient7546" y2="132" gradientUnits="userSpaceOnUse" x2="1888" gradientTransform="matrix(0,1,-1,0,140,-1872)" y1="132" x1="1872">
   <stop id="stop3906" style="stop-color:#234683" offset="0"/>
   <stop id="stop3908" style="stop-color:#30589e" offset="1"/>
  </linearGradient>
  <linearGradient id="linearGradient7048" y2="16" gradientUnits="userSpaceOnUse" x2="16" gradientTransform="matrix(1,0,0,-1,0,16)" y1="-2.8422e-14" x1="16">
   <stop id="stop3864-8-6-3" style="stop-color:#1c6aba" offset="0"/>
   <stop id="stop3866-9-1-7" style="stop-color:#4195ec" offset="1"/>
  </linearGradient>
 </defs>
 <metadata id="metadata5405">
  <rdf:RDF>
   <cc:Work rdf:about="">
    <dc:format>image/svg+xml</dc:format>
    <dc:type rdf:resource="http://purl.org/dc/dcmitype/StillImage"/>
    <dc:title/>
   </cc:Work>
  </rdf:RDF>
 </metadata>
 <g id="layer1">
  <path id="path2555-7" d="m8 15.5c-4.1382 0-7.5-3.362-7.5-7.5 0-4.1382 3.3618-7.5 7.5-7.5s7.5 3.3618 7.5 7.5-3.3618 7.5-7.5 7.5z" style="color:#000000;fill:url(#linearGradient7048)"/>
  <path id="path7037" style="opacity:.81;stroke-linejoin:round;color:#000000;stroke:url(#linearGradient7546);stroke-linecap:round;fill:none" d="m8 15.5c4.1382 0 7.5-3.3618 7.5-7.5s-3.362-7.5-7.5-7.5c-4.1382 0-7.5 3.3618-7.5 7.5s3.3618 7.5 7.5 7.5z"/>
  <path id="path3805" style="opacity:.2;color:#000000" d="m8 16c-3.8674 0-7-3.133-7-7 0-0.1683 0.0196-0.3347 0.0312-0.5 0.2565 3.634 3.2697 6.5 6.9688 6.5 3.699 0 6.712-2.866 6.969-6.5 0.011 0.1653 0.031 0.3317 0.031 0.5 0 3.8674-3.1326 7-7 7z"/>
  <path id="path3021" style="opacity:.2;color:#000000;fill:#fff" d="m8 1c-3.8674 0-7 3.1326-7 7 0 0.1683 0.0196 0.3347 0.0312 0.5 0.2565-3.6336 3.2697-6.5 6.9688-6.5 3.699 0 6.712 2.8664 6.969 6.5 0.011-0.1653 0.031-0.3317 0.031-0.5 0-3.8674-3.133-7-7-7z"/>
 </g>
 <g id="layer2">
  <path id="path3845" style="opacity:.3;enable-background:new" d="m6.7817 12.874c0-0.20756 0.029783-0.38293 0.089368-0.52659 0.059575-0.14318 0.14221-0.25898 0.2484-0.34738 0.1057-0.08841 0.23062-0.15231 0.37429-0.19218 0.14318-0.0394 0.29645-0.05958 0.45981-0.05958 0.15471 0 0.30174 0.02018 0.44059 0.05958 0.13886 0.03988 0.26138 0.10378 0.36756 0.19218 0.1057 0.0884 0.18931 0.2042 0.25129 0.34738 0.061975 0.14366 0.092728 0.31903 0.092728 0.52659 0 0.19891-0.03075 0.369-0.092728 0.51026-0.061975 0.14078-0.14558 0.25849-0.25129 0.35122-0.10618 0.09225-0.2287 0.15952-0.36756 0.2018-0.1389 0.042-0.2859 0.063-0.4406 0.063-0.1634 0-0.3166-0.021-0.4598-0.063-0.1437-0.042-0.2686-0.109-0.3743-0.202-0.10619-0.09273-0.18882-0.21045-0.2484-0.35122-0.059575-0.14126-0.089368-0.31134-0.089368-0.51026m0.21861-2.2649v-0.4896c0-0.22534 0.023075-0.42954 0.069667-0.6126 0.0461-0.1833 0.1167-0.3572 0.2119-0.523 0.0946-0.1653 0.2172-0.3267 0.3671-0.4833 0.1503-0.1567 0.3315-0.3191 0.5434-0.4867 0.1854-0.1456 0.3421-0.2758 0.4699-0.3911 0.1283-0.1144 0.2316-0.2283 0.3113-0.3412 0.0793-0.1124 0.1369-0.2301 0.172-0.3536 0.035533-0.12396 0.053333-0.26762 0.053333-0.4305 0-0.25177-0.085525-0.45981-0.25513-0.62269-0.1701-0.1634-0.4295-0.245-0.7783-0.245-0.30414 0-0.6323 0.0639-0.98352 0.19171-0.3503 0.1283-0.714 0.2849-1.0893 0.4704l-0.675-1.4636c0.1893-0.1105 0.3959-0.2152 0.6188-0.3142 0.2234-0.0994 0.455-0.1878 0.6952-0.2652 0.2408-0.0769 0.4848-0.1379 0.7318-0.1821 0.2474-0.0442 0.4901-0.0663 0.7289-0.0663 0.4502 0 0.85619 0.054292 1.218 0.1624 0.36228 0.10811 0.6693 0.2657 0.92058 0.47326 0.25224 0.20756 0.44491 0.45981 0.57944 0.7553 0.13501 0.29597 0.20228 0.63326 0.20228 1.0128 0 0.27819-0.03123 0.52659-0.09273 0.74521-0.0615 0.21861-0.15375 0.42185-0.27435 0.60924-0.12204 0.18786-0.27435 0.369-0.45741 0.54293-0.18306 0.17441-0.39639 0.35891-0.63902 0.55302-0.18546 0.14558-0.33681 0.2729-0.45404 0.38101-0.1168 0.1082-0.2086 0.211-0.2744 0.3076-0.0663 0.0975-0.1115 0.1979-0.136 0.3017-0.024033 0.1033-0.036517 0.22582-0.036517 0.36708v0.39735h-1.7479z"/>
  <path id="path4055" d="m6.7817 11.874c0-0.20756 0.029783-0.38293 0.089368-0.52659 0.059575-0.14318 0.14221-0.25898 0.2484-0.34738 0.1057-0.08841 0.23062-0.15231 0.37429-0.19218 0.14318-0.0394 0.29645-0.05958 0.45981-0.05958 0.15471 0 0.30174 0.02018 0.44059 0.05958 0.13886 0.03988 0.26138 0.10378 0.36756 0.19218 0.1057 0.0884 0.18931 0.2042 0.25129 0.34738 0.061975 0.14366 0.092728 0.31903 0.092728 0.52659 0 0.19891-0.03075 0.369-0.092728 0.51026-0.061975 0.14078-0.14558 0.25849-0.25129 0.35122-0.10618 0.09225-0.2287 0.15952-0.36756 0.2018-0.1389 0.042-0.2859 0.063-0.4406 0.063-0.1634 0-0.3166-0.021-0.4598-0.063-0.1437-0.042-0.2686-0.109-0.3743-0.202-0.10619-0.09273-0.18882-0.21045-0.2484-0.35122-0.059575-0.14126-0.089368-0.31134-0.089368-0.51026m0.21861-2.2649v-0.4896c0-0.22534 0.023075-0.42954 0.069667-0.6126 0.0461-0.1838 0.1167-0.3577 0.2119-0.5235 0.0946-0.1653 0.2172-0.3267 0.3671-0.4833 0.1503-0.1567 0.3315-0.3191 0.5434-0.4867 0.1854-0.1456 0.3421-0.2758 0.4699-0.3911 0.1283-0.1144 0.2316-0.2283 0.3113-0.3412 0.0793-0.1124 0.1369-0.2301 0.172-0.3536 0.035533-0.12396 0.053333-0.26762 0.053333-0.4305 0-0.25177-0.085525-0.45981-0.25513-0.62269-0.1701-0.1634-0.4295-0.245-0.7783-0.245-0.30414 0-0.6323 0.0639-0.98352 0.19171-0.3503 0.1283-0.714 0.2849-1.0893 0.4704l-0.675-1.4636c0.1893-0.1105 0.3959-0.2152 0.6188-0.3142 0.2234-0.0994 0.455-0.1878 0.6952-0.2652 0.2408-0.0769 0.4848-0.1379 0.7318-0.1821 0.2474-0.0442 0.4901-0.0663 0.7289-0.0663 0.4502 0 0.85619 0.054292 1.218 0.1624 0.36228 0.10811 0.6693 0.2657 0.92058 0.47326 0.25224 0.20756 0.44491 0.45981 0.57944 0.7553 0.13501 0.29597 0.20228 0.63326 0.20228 1.0128 0 0.27819-0.03123 0.52659-0.09273 0.74521-0.0615 0.21861-0.15375 0.42185-0.27435 0.60924-0.12204 0.18786-0.27435 0.369-0.45741 0.54293-0.18306 0.17441-0.39639 0.35891-0.63902 0.55302-0.18546 0.14558-0.33681 0.2729-0.45404 0.38101-0.1168 0.1082-0.2086 0.211-0.2744 0.3076-0.0663 0.0975-0.1115 0.1979-0.136 0.3017-0.024 0.1033-0.0365 0.2258-0.0365 0.3671v0.39735h-1.7479z" style="enable-background:new;fill:#fff"/>
 </g>
</svg>
