<?xml version="1.0" encoding="UTF-8" standalone="no"?>
<!-- Created with Inkscape (http://www.inkscape.org/) -->
<svg id="svg5400" xmlns:rdf="http://www.w3.org/1999/02/22-rdf-syntax-ns#" xmlns="http://www.w3.org/2000/svg" height="16px" width="16px" version="1.1" xmlns:cc="http://creativecommons.org/ns#" xmlns:xlink="http://www.w3.org/1999/xlink" xmlns:dc="http://purl.org/dc/elements/1.1/">
 <defs id="defs5402">
  <linearGradient id="linearGradient3819" y2="4" gradientUnits="userSpaceOnUse" x2="8" y1="12" x1="8">
   <stop id="stop3815" style="stop-color:#5a5a5a" offset="0"/>
   <stop id="stop3817" style="stop-color:#8c8c8c" offset="1"/>
  </linearGradient>
  <linearGradient id="linearGradient3097" y2="264" gradientUnits="userSpaceOnUse" y1="280" gradientTransform="matrix(.42857 0 0 -.42857 -59.5 129.07)" x2="168" x1="168">
   <stop id="stop3762-7" style="stop-color:#e44343" offset="0"/>
   <stop id="stop3764-8" style="stop-color:#ac0808" offset="1"/>
  </linearGradient>
  <linearGradient id="linearGradient3914" y2="14" gradientUnits="userSpaceOnUse" x2="5" gradientTransform="translate(2,1)" y1="1" x1="5">
   <stop id="stop3806" style="stop-color:#fff" offset="0"/>
   <stop id="stop3808" style="stop-color:#fff;stop-opacity:0" offset="1"/>
  </linearGradient>
  <linearGradient id="linearGradient3917" y2="40" gradientUnits="userSpaceOnUse" x2="144" gradientTransform="matrix(.055556 0 0 .057143 0 -1.1429)" y1="280" x1="144">
   <stop id="stop3864-8-6-6" style="stop-color:#f0f0f0" offset="0"/>
   <stop id="stop3866-9-1-7" style="stop-color:#f9f9f9" offset="1"/>
  </linearGradient>
 </defs>
 <metadata id="metadata5405">
  <rdf:RDF>
   <cc:Work rdf:about="">
    <dc:format>image/svg+xml</dc:format>
    <dc:type rdf:resource="http://purl.org/dc/dcmitype/StillImage"/>
    <dc:title/>
   </cc:Work>
  </rdf:RDF>
 </metadata>
 <g id="layer1">
  <g id="g3920" style="opacity:.5">
   <path id="path3029" style="opacity:0.41;stroke-linejoin:round;stroke-width:2;color:#bebebe;stroke:#000;fill:none" d="m14 3v10h-12v-10z"/>
   <path id="rect3373-6" d="m14 3v10h-12v-10z" style="color:#bebebe;fill:url(#linearGradient3917)"/>
   <path id="path3799" style="color:#bebebe;fill:url(#linearGradient3914)" d="m14 3h-12v10h12v-10zm-1 1v8h-10v-8h10z"/>
   <rect id="rect3811" style="opacity:1;fill:url(#linearGradient3819)" height="8" width="10" y="4" x="3"/>
   <path id="rect3038" style="opacity:.2" d="m3 4v8h10v-8h-10zm1 1h8v6h-8v-6z"/>
  </g>
 </g>
 <g id="layer2">
  <path id="path2922-6-6-0" d="m12.5 15.5c-1.6569 0-3-1.3431-3-3s1.3431-3 3-3 3 1.3431 3 3-1.3431 3-3 3z" style="color:#000000;fill:url(#linearGradient3097)"/>
  <path id="path3907" style="opacity:.81;color:#000000;stroke:#790000;fill:none" d="m12.5 15.5c-1.6569 0-3-1.3431-3-3s1.3431-3 3-3 3 1.3431 3 3-1.3431 3-3 3z"/>
  <path id="path3909" style="stroke:#fff;stroke-width:1px;fill:none" d="m11 11 3 3"/>
  <path id="path3911" style="stroke:#fff;stroke-width:1px;fill:none" d="m11 14 3-3"/>
 </g>
</svg>
