<?xml version="1.0" encoding="UTF-8" standalone="no"?>
<!-- Created with Inkscape (http://www.inkscape.org/) -->
<svg id="svg4027" xmlns:rdf="http://www.w3.org/1999/02/22-rdf-syntax-ns#" xmlns="http://www.w3.org/2000/svg" height="16" width="16" version="1.1" xmlns:cc="http://creativecommons.org/ns#" xmlns:xlink="http://www.w3.org/1999/xlink" xmlns:dc="http://purl.org/dc/elements/1.1/">
 <metadata id="metadata23">
  <rdf:RDF>
   <cc:Work rdf:about="">
    <dc:format>image/svg+xml</dc:format>
    <dc:type rdf:resource="http://purl.org/dc/dcmitype/StillImage"/>
   </cc:Work>
  </rdf:RDF>
 </metadata>
 <defs id="defs4029">
  <linearGradient id="linearGradient2832" y2="5.4676" gradientUnits="userSpaceOnUse" x2="63.397" gradientTransform="matrix(.51455 0 0 .51454 -24.005 9.8065)" y1="-12.489" x1="63.397">
   <stop id="stop4875" style="stop-color:#fff" offset="0"/>
   <stop id="stop4877" style="stop-color:#fff;stop-opacity:0" offset="1"/>
  </linearGradient>
  <radialGradient id="radialGradient4023" gradientUnits="userSpaceOnUse" cy="3.99" cx="23.896" gradientTransform="matrix(0 .64524 -.85171 0 11.398 -13.334)" r="20.397">
   <stop id="stop3244-3" style="stop-color:#eef87e" offset="0"/>
   <stop id="stop3246-9" style="stop-color:#cde34f" offset=".26238"/>
   <stop id="stop3248-3" style="stop-color:#93b723" offset=".66094"/>
   <stop id="stop3250-3" style="stop-color:#5a7e0d" offset="1"/>
  </radialGradient>
  <linearGradient id="linearGradient4025" y2="3.0816" gradientUnits="userSpaceOnUse" x2="18.379" gradientTransform="matrix(.27035 0 0 .27035 1.5115 1.5115)" y1="44.98" x1="18.379">
   <stop id="stop2492-8" style="stop-color:#365f0e" offset="0"/>
   <stop id="stop2494-1" style="stop-color:#84a718" offset="1"/>
  </linearGradient>
 </defs>
 <g id="layer1" style="opacity:.4">
  <path id="path2555" style="stroke-linejoin:round;stroke:url(#linearGradient4025);stroke-linecap:round;fill:url(#radialGradient4023)" d="m8 2.5c-3.0347 0-5.5 2.4653-5.5 5.5 0 3.035 2.4653 5.5 5.5 5.5 3.035 0 5.5-2.465 5.5-5.5 0-3.0347-2.465-5.5-5.5-5.5z"/>
  <path id="path2463" style="opacity:.4;stroke:url(#linearGradient2832);fill:none" d="m12.5 7.9998c0 2.4852-2.015 4.5002-4.4999 4.5002-2.4853 0-4.5001-2.015-4.5001-4.5002s2.0148-4.4998 4.5001-4.4998c2.4849 0 4.4999 2.0146 4.4999 4.4998z"/>
 </g>
</svg>
