<?xml version="1.0" encoding="UTF-8" standalone="no"?>
<!-- Created with Inkscape (http://www.inkscape.org/) -->
<svg id="svg5014" xmlns:rdf="http://www.w3.org/1999/02/22-rdf-syntax-ns#" xmlns="http://www.w3.org/2000/svg" height="16" width="16" version="1.1" xmlns:cc="http://creativecommons.org/ns#" xmlns:xlink="http://www.w3.org/1999/xlink" xmlns:dc="http://purl.org/dc/elements/1.1/">
 <defs id="defs5016">
  <linearGradient id="linearGradient4037" y2="8" gradientUnits="userSpaceOnUse" x2="24" gradientTransform="matrix(.52229 0 0 .52229 -.35918 17.47)" y1="8" x1="8">
   <stop id="stop5084" style="stop-color:#fff" offset="0"/>
   <stop id="stop5086" style="stop-color:#fff;stop-opacity:.74902" offset=".46633"/>
   <stop id="stop5088" style="stop-color:#fff;stop-opacity:0" offset=".67678"/>
   <stop id="stop5090" style="stop-color:#fff;stop-opacity:0" offset="1"/>
  </linearGradient>
  <linearGradient id="linearGradient4039" y2="13" gradientUnits="userSpaceOnUse" x2="15" gradientTransform="matrix(.52229 0 0 .52229 -.35918 17.47)" y1="-1" x1="15">
   <stop id="stop5074" offset="0"/>
   <stop id="stop5076" style="stop-opacity:0" offset="1"/>
  </linearGradient>
  <linearGradient id="linearGradient4120" y2="4" gradientUnits="userSpaceOnUse" x2="12" gradientTransform="matrix(-1 0 0 1 16 16)" y1="13" x1="7.9996">
   <stop id="stop4937" style="stop-color:#e5cf08" offset="0"/>
   <stop id="stop4977" style="stop-color:#e9d414" offset=".5"/>
   <stop id="stop4939" style="stop-color:#fff279" offset="1"/>
  </linearGradient>
  <linearGradient id="linearGradient4124" y2="4" gradientUnits="userSpaceOnUse" x2="12" gradientTransform="matrix(-1 0 0 1 16 16)" y1="13" x1="7.9996">
   <stop id="stop4929" style="stop-color:#c09e06" offset="0"/>
   <stop id="stop4931" style="stop-color:#b99b13" offset="1"/>
  </linearGradient>
 </defs>
 <metadata id="metadata5019">
  <rdf:RDF>
   <cc:Work rdf:about="">
    <dc:format>image/svg+xml</dc:format>
    <dc:type rdf:resource="http://purl.org/dc/dcmitype/StillImage"/>
    <dc:title/>
   </cc:Work>
  </rdf:RDF>
 </metadata>
 <g id="layer1" transform="translate(0,-16)">
  <path id="path4122" style="stroke:url(#linearGradient4124);stroke-width:3;fill:none" d="m9.3746 20.75c0.61 0.38913 1.4265 0.61708 2.25 0.75 0.23251 0.03753 0.45462 0.07023 0.6875 0.09375 0.02081 0.0021 0.04172-0.002 0.0625 0 0.47353 0.04329 0.99809 0.09375 1.625 0.09375 0 0.16732 0.0049 0.31139 0 0.46875-0.15736 5.0515-2.7812 5.0625-2.7812 5.0625-0.22038 0.03758-0.41798-0.01222-0.625-0.0625-0.0993-0.01967-0.19118-0.03482-0.28125-0.0625-0.021-0.0083-0.04164-0.02234-0.0625-0.03125-0.0177-0.01329-0.04474-0.01758-0.0625-0.03125-0.04157-0.01482-0.0853-0.01499-0.125-0.03125-0.067995-0.02782-0.12452-0.06239-0.1875-0.09375-0.089904-0.04454-0.16895-0.07526-0.25-0.125-0.027404-0.01666-0.035978-0.04543-0.0625-0.0625-0.10014-0.06473-0.1916-0.12012-0.28125-0.1875-0.10187-0.0764-0.18814-0.14607-0.28125-0.21875-0.10622-0.08346-0.21128-0.14956-0.3125-0.21875-0.021739-0.01327-0.040944-0.01872-0.0625-0.03125-0.048576-0.03123-0.076023-0.06813-0.125-0.09375-0.050994-0.02788-0.10404-0.04191-0.15625-0.0625-0.010232-0.004-0.02106 0.0038-0.03125 0-0.10503-0.03837-0.19642-0.0625-0.3125-0.0625-0.44844 0.18905-0.77616 0.36897-1.0625 0.53125-0.0062 0.0035-0.025103-0.0035-0.03125 0-0.31785 0.24961-0.65651 0.52395-1.1562 0.6875 0.04609-0.03462 0.07858-0.08788 0.125-0.125-0.02915 0.01149-0.06369 0.02025-0.09375 0.03125-0.02261 0.0082-0.03932 0.02338-0.0625 0.03125-0.04011 0.01387-0.08318 0.01838-0.125 0.03125-0.06601 0.02118-0.11547 0.04499-0.1875 0.0625-0.06568 0.01638-0.11743 0.01766-0.1875 0.03125-0.25266 0.04757-0.53693 0.09127-0.90625 0.09375 0 0-2.1814-0.01098-2.3125-5.0625-0.0041-0.15736 0-0.30143 0-0.46875 0.48524 0 0.86433-0.03919 1.25-0.0625 0.30339-0.01379 0.58401-0.0308 0.875-0.0625 0.09079-0.01011 0.19693-0.02004 0.28125-0.03125 0.02056-0.0029 0.04199 0.0031 0.0625 0 0.0488-0.0067 0.07836-0.02418 0.125-0.03125 0.11562-0.01933 0.2296-0.03717 0.34375-0.0625 0.01143-0.0024 0.01996 0.0025 0.03125 0 0.0096-0.0022 0.02166 0.0022 0.03125 0 0.20454-0.04555 0.37155-0.10708 0.53125-0.15625 0.18293-0.06202 0.35072-0.13266 0.53125-0.21875 0.18052-0.08609 0.38358-0.198 0.5625-0.3125 0.057692 0 0.11028 0.03726 0.15625 0.0625 0.27584 0.15144 0.37079 0.69231 0.90625 0.84375 0.089243 0.02524 0.19712 0.03125 0.3125 0.03125s0.22326-0.006 0.3125-0.03125c0.17849-0.05048 0.29988-0.17308 0.40625-0.28125 0.053185-0.05409 0.11298-0.09856 0.15625-0.15625 0.17308-0.23077 0.26923-0.46875 0.5-0.46875z"/>
  <path id="path4112" style="stroke:url(#linearGradient4120);stroke-width:2;fill:none" d="m9.3746 20.75c0.61 0.38913 1.4265 0.61708 2.25 0.75 0.23251 0.03753 0.45462 0.07023 0.6875 0.09375 0.02081 0.0021 0.04172-0.002 0.0625 0 0.47353 0.04329 0.99809 0.09375 1.625 0.09375 0 0.16732 0.0049 0.31139 0 0.46875-0.15736 5.0515-2.7812 5.0625-2.7812 5.0625-0.22038 0.03758-0.41798-0.01222-0.625-0.0625-0.0993-0.01967-0.19118-0.03482-0.28125-0.0625-0.021-0.0083-0.04164-0.02234-0.0625-0.03125-0.0177-0.01329-0.04474-0.01758-0.0625-0.03125-0.04157-0.01482-0.0853-0.01499-0.125-0.03125-0.067995-0.02782-0.12452-0.06239-0.1875-0.09375-0.089904-0.04454-0.16895-0.07526-0.25-0.125-0.027404-0.01666-0.035978-0.04543-0.0625-0.0625-0.10014-0.06473-0.1916-0.12012-0.28125-0.1875-0.10187-0.0764-0.18814-0.14607-0.28125-0.21875-0.10622-0.08346-0.21128-0.14956-0.3125-0.21875-0.021739-0.01327-0.040944-0.01872-0.0625-0.03125-0.048576-0.03123-0.076023-0.06813-0.125-0.09375-0.050994-0.02788-0.10404-0.04191-0.15625-0.0625-0.010232-0.004-0.02106 0.0038-0.03125 0-0.10503-0.03837-0.19642-0.0625-0.3125-0.0625-0.44844 0.18905-0.77616 0.36897-1.0625 0.53125-0.0062 0.0035-0.025103-0.0035-0.03125 0-0.31785 0.24961-0.65651 0.52395-1.1562 0.6875 0.04609-0.03462 0.07858-0.08788 0.125-0.125-0.02915 0.01149-0.06369 0.02025-0.09375 0.03125-0.02261 0.0082-0.03932 0.02338-0.0625 0.03125-0.04011 0.01387-0.08318 0.01838-0.125 0.03125-0.06601 0.02118-0.11547 0.04499-0.1875 0.0625-0.06568 0.01638-0.11743 0.01766-0.1875 0.03125-0.25266 0.04757-0.53693 0.09127-0.90625 0.09375 0 0-2.1814-0.01098-2.3125-5.0625-0.0041-0.15736 0-0.30143 0-0.46875 0.48524 0 0.86433-0.03919 1.25-0.0625 0.30339-0.01379 0.58401-0.0308 0.875-0.0625 0.09079-0.01011 0.19693-0.02004 0.28125-0.03125 0.02056-0.0029 0.04199 0.0031 0.0625 0 0.0488-0.0067 0.07836-0.02418 0.125-0.03125 0.11562-0.01933 0.2296-0.03717 0.34375-0.0625 0.01143-0.0024 0.01996 0.0025 0.03125 0 0.0096-0.0022 0.02166 0.0022 0.03125 0 0.20454-0.04555 0.37155-0.10708 0.53125-0.15625 0.18293-0.06202 0.35072-0.13266 0.53125-0.21875 0.18052-0.08609 0.38358-0.198 0.5625-0.3125 0.057692 0 0.11028 0.03726 0.15625 0.0625 0.27584 0.15144 0.37079 0.69231 0.90625 0.84375 0.089243 0.02524 0.19712 0.03125 0.3125 0.03125s0.22326-0.006 0.3125-0.03125c0.17849-0.05048 0.29988-0.17308 0.40625-0.28125 0.053185-0.05409 0.11298-0.09856 0.15625-0.15625 0.17308-0.23077 0.26923-0.46875 0.5-0.46875z"/>
  <g id="g4024" transform="matrix(.88368 0 0 .88368 .93278 3.9363)">
   <path id="path4915" d="m6.4306 19.037s-1.0446 1.0446-5.2229 1.0446c0 6.2675 3.1338 6.2675 3.1338 6.2675 2.0892 0 2.6115-1.5669 3.656-1.5669 1.0446 0 1.5669 1.5669 4.1783 1.5669 0 0 2.6115 0 2.6115-6.2675-4.7006 0-5.2229-1.0446-5.2229-1.0446-0.52229 0-0.52229 1.0446-1.5669 1.0446s-1.0446-1.0446-1.5669-1.0446zm-2.2034 2.9869c0.71446-0.06842 1.583 0.22712 2.7257 1.1915-0.56339 0.561-1.2192 0.97418-2.0892 1.0446-1.321-0.11813-1.8052-0.77774-2.0892-1.5669 0.43641-0.3409 0.89693-0.61597 1.4526-0.66919zm7.2958 0c0.66596-0.01367 1.1987 0.27959 1.6974 0.66919-0.28399 0.78914-0.76816 1.4487-2.0892 1.5669-0.87001-0.0704-1.5258-0.48359-2.0892-1.0446 1.0157-0.8572 1.8149-1.1778 2.4809-1.1915z" style="fill:#a161ab"/>
   <path id="path4943" d="m6.4306 19.037s-0.45078 0.44205-1.8933 0.7508c0.70375 0.25429 2.5099 0.74292 2.9379 1.3384 1.0959 1.7011-0.57225 3.9572-2.0402 5.0597 1.2309-0.40284 1.7286-1.4037 2.5625-1.4037 0.83386 0 1.3316 1.0008 2.5625 1.4037-1.468-1.103-3.1361-3.359-2.0402-5.06 0.4279-0.596 2.2342-1.084 2.9382-1.338-1.443-0.309-1.8936-0.751-1.8936-0.751-0.52229 0-0.52229 1.0446-1.5669 1.0446s-1.0446-1.0446-1.5669-1.0446z" style="opacity:.5;fill:url(#linearGradient4037)"/>
   <path id="path4968" d="m4.2272 22.024c0.71446-0.06842 1.583 0.22712 2.7257 1.1915-0.56339 0.561-1.2192 0.97418-2.0892 1.0446-1.321-0.11813-1.8052-0.77774-2.0892-1.5669 0.43641-0.3409 0.89693-0.61597 1.4526-0.66919zm7.2958 0c0.66596-0.01367 1.1987 0.27959 1.6974 0.66919-0.28399 0.78914-0.76816 1.4487-2.0892 1.5669-0.87001-0.0704-1.5258-0.48359-2.0892-1.0446 1.0157-0.8572 1.8149-1.1778 2.4809-1.1915z" style="stroke:#4d1556;stroke-width:1.1316;fill:none"/>
   <path id="path4987" d="m5.4024 19.559c-0.23913 0.08132-0.51959 0.15456-0.86505 0.2285 0.70375 0.25429 2.5099 0.74292 2.9379 1.3384 0.18978 0.29459 0.28704 0.61133 0.32643 0.93033 0.0463-0.502-0.0327-0.997-0.3264-1.452-0.3005-0.419-1.2721-0.776-2.0728-1.045z" style="opacity:.2;fill:#fff"/>
   <path id="path4996" style="opacity:.1;fill:#fff" d="m10.511 19.575c0.23913 0.08133 0.51959 0.15457 0.86504 0.2285-0.70375 0.25429-2.5099 0.74293-2.9379 1.3384-0.18978 0.29459-0.28704 0.61133-0.32643 0.93033-0.046266-0.50269 0.032762-0.99676 0.32643-1.4526 0.30052-0.41813 1.2721-0.77595 2.0728-1.0446z"/>
   <path id="path5021" style="opacity:.4;block-progression:tb;text-indent:0;color:#000000;text-transform:none" d="m4.2598 22.285c-0.40681 0.03896-0.75745 0.27257-1.1099 0.52229 0.030002 0.06786 0.066339 0.13041 0.09793 0.19586 0.31986-0.22243 0.6429-0.42167 1.0119-0.45701 0.52513-0.05029 1.2129 0.1918 2.0728 0.81608 0.058248-0.04598 0.12271-0.08137 0.17954-0.13057-0.9524-0.734-1.6884-1.001-2.2522-0.947zm7.2631 0c-0.52515 0.01078-1.2001 0.29999-2.0402 0.94665 0.056828 0.04922 0.12129 0.08459 0.17954 0.13057 0.75402-0.54875 1.375-0.80611 1.8607-0.81608 0.46862-0.0096 0.85826 0.18126 1.2404 0.44068 0.03156-0.06497 0.06855-0.12797 0.09793-0.19586-0.41371-0.29352-0.82994-0.51641-1.3384-0.50597z"/>
   <path id="path5023" d="m2.6277 22.987c-0.00603 0.0047-0.010311 0.01162-0.016322 0.01632l-0.14689 0.13057 0.065287 0.16322c0.15016 0.41725 0.36692 0.84082 0.73447 1.1588 0.36755 0.31801 0.88257 0.52492 1.5832 0.58758h0.016322 0.016322c0.94137-0.07618 1.6626-0.53894 2.2524-1.1262l0.21218-0.19586-0.2285-0.17954c-0.028076-0.0237-0.053794-0.04233-0.081608-0.06529-0.46704 0.44419-1.01 0.8055-1.6811 0.96298-0.15173 0.0356-0.30859 0.06827-0.47333 0.08161h-0.016322c-0.00593-0.000575-0.010435 0.000575-0.016322 0-0.14013-0.01253-0.26614-0.04148-0.39172-0.06529-0.5025-0.096-0.8976-0.268-1.1917-0.523-0.3037-0.263-0.4912-0.603-0.6365-0.946zm10.74 0.01632c-0.14482 0.33897-0.33688 0.67106-0.63654 0.93033-0.29404 0.25441-0.68915 0.42707-1.1915 0.52229-0.12503 0.02864-0.25598 0.05091-0.40804 0.06528h-0.01632c-0.16474-0.01333-0.32159-0.046-0.47333-0.0816-0.6711-0.15748-1.2141-0.51879-1.6811-0.96298-0.027705 0.02287-0.053637 0.04168-0.081608 0.06529l-0.2285 0.17954 0.21218 0.19586c0.58976 0.58725 1.311 1.05 2.2524 1.1262h0.01632 0.01632c0.70063-0.06265 1.2156-0.26957 1.5832-0.58758 0.36755-0.31801 0.58432-0.74159 0.73447-1.1588l0.064-0.164-0.147-0.13c-0.0034-0.0026-0.01289 0.0026-0.01632 0z" style="opacity:.4;block-progression:tb;text-indent:0;color:#000000;text-transform:none;fill:#fff"/>
   <path id="path5069" d="m5.3697 19.559c-0.16442 0.0544-0.35902 0.1113-0.57126 0.16322 0.21454-0.05297 0.40544-0.10769 0.57126-0.16322zm-0.8324 0.2285c-0.78564 0.16815-1.8563 0.29379-3.3296 0.29379 0 6.2675 3.1338 6.2675 3.1338 6.2675 0.42145 0 0.78248-0.06142 1.0935-0.16322 0.00587-0.0044 0.010451-0.01188 0.016322-0.01632 1.4636-1.1073 3.1154-3.349 2.0239-5.0434-0.42796-0.59545-2.2341-1.0841-2.9379-1.3384zm6.8388 0.01632c-0.74216 0.25983-2.4403 0.74327-2.8563 1.3221-1.0473 1.6257 0.43007 3.7483 1.8443 4.8965 0.47213 0.19019 1.0466 0.32643 1.8117 0.32643 0 0 2.6115 0 2.6115-6.2675-1.5641 0-2.6377-0.12313-3.4112-0.27747zm-7.1489 2.2197c0.71446-0.06842 1.583 0.22712 2.7257 1.1915-0.56339 0.561-1.2192 0.97418-2.0892 1.0446-1.3209-0.118-1.805-0.778-2.089-1.567 0.4364-0.341 0.8969-0.616 1.4526-0.669zm7.2958 0c0.66596-0.01367 1.1987 0.27959 1.6974 0.66919-0.28399 0.78914-0.76816 1.4487-2.0892 1.5669-0.87001-0.0704-1.5258-0.48359-2.0892-1.0446 1.0157-0.8572 1.8149-1.1778 2.4809-1.1915z" style="opacity:.2;fill:url(#linearGradient4039)"/>
   <path id="path5093" d="m7.8669 24.782v-2.0937-2.0846" style="opacity:.5;stroke:#fff;stroke-width:.56582;fill:none"/>
   <path id="path5106" d="m1.2077 20.081c0 6.2675 3.1338 6.2675 3.1338 6.2675 1.4585 0.24871 2.6519-1.5234 3.656-1.5669 2.0738 0.87425 2.1226 1.5531 4.1783 1.5669 0 0 2.6115 0 2.6115-6.2675-0.0059 0-0.01045 0.000003-0.01632 0-0.14472 5.7306-2.5951 5.7452-2.5951 5.7452-2.0786 0.0362-2.5944-1.0658-4.1783-1.5669-1.5533 0.62879-2.0737 1.4517-3.656 1.5669 0 0-2.9438-0.01464-3.1174-5.7452-0.00583 0.000003-0.010477 0-0.016322 0z" style="opacity:.1"/>
   <path id="path5116" d="m6.4306 19.037c-1.3806 0.8807-3.6128 1.0394-5.2229 1.0446 0 0.18435 0.011059 0.34863 0.016322 0.52229 1.8091-0.08165 3.6534-0.04449 5.2066-1.0446 0.52229 0 0.52229 1.0446 1.5669 1.0446s1.0446-1.0446 1.5669-1.0446c1.4724 0.86637 3.2857 1.0376 5.2066 1.0446 0.0044-0.17366 0.01632-0.33794 0.01632-0.52229-1.9399-0.07861-3.6031-0.008-5.2229-1.0446-0.52229 0-0.52229 1.0446-1.5669 1.0446s-1.0446-1.0446-1.5669-1.0446zm-3.4928 4.0478c-0.0568 0.04115-0.10736 0.08694-0.16322 0.13057 0.28399 0.78914 0.76816 1.4487 2.0892 1.5669 0.87001-0.0704 1.5258-0.48359 2.0892-1.0446-0.1081-0.092-0.207-0.166-0.3102-0.245-0.494 0.414-1.0626 0.709-1.7791 0.767-1.0956-0.098-1.6183-0.568-1.9259-1.175zm10.103 0c-0.30804 0.60433-0.81843 1.0776-1.9096 1.1752-0.71651-0.05798-1.2851-0.35306-1.7791-0.76712-0.10068 0.07755-0.20488 0.15601-0.31011 0.24482 0.56339 0.561 1.2192 0.97418 2.0892 1.0446 1.321-0.11813 1.8052-0.77774 2.0892-1.5669-0.0593-0.04631-0.11911-0.08733-0.17954-0.13057zm-4.1621 1.828c0.12298 0.18909 0.26459 0.36368 0.40804 0.53861-0.1428-0.175-0.2856-0.353-0.408-0.539z" style="opacity:.1"/>
  </g>
  <path id="path4126" style="opacity:0.41;block-progression:tb;text-indent:0;color:#000000;stroke:#000;text-transform:none;fill:none" d="m6.1875 19.25-0.375 0.25c-0.11872 0.07597-0.28715 0.16196-0.40625 0.21875-0.12671 0.06043-0.20853 0.08815-0.3125 0.125-0.19992 0.06154-0.28557 0.10321-0.375 0.125-0.00676 0.0016-0.024654-0.0015-0.03125 0-0.018712 0.0032-0.011004-0.004-0.03125 0s-0.00944-0.005-0.03125 0c-0.04777 0.0106-0.14488 0.0449-0.25 0.0625-0.012449 0.0021-0.01794-0.0022-0.03125 0-0.12499 0.02172-0.25773 0.02251-0.09375 0v0.03125c0.16598-0.02509-0.059318 0.0055-0.03125 0 0.0421-0.008 0.2367-0.069-0.0313-0.031-0.0452 0.006-0.1212 0.021-0.2187 0.031-0.2453 0.027-0.4919 0.05-0.7813 0.063h-0.03125c-0.4276 0.026-0.7517 0.063-1.1562 0.063h-1.5v1.5c0 0.14282-0.005399 0.29278 0 0.5 0.071167 2.7414 0.71394 4.3817 1.5938 5.375 0.4399 0.49664 0.93266 0.80961 1.3438 0.96875 0.41109 0.15914 0.875 0.1875 0.875 0.1875 1.4698-0.07908 1.9414-0.21055 3.0625-0.90625 0.0001823-0.000054 0.068976-0.0075 0.125-0.03125 0.018385-0.01401 0.045069-0.04901 0.0625-0.0625 0.043285-0.01833 0.079193-0.02507 0.09375-0.03125 0.00428-0.0018 0.031217 0.000019 0.03125 0 0.11216-0.06357 0.25889-0.12641 0.375-0.1875 0.080863 0.06312 0.18565 0.12362 0.3125 0.21875 1.4876 0.94858 2.3196 1.0922 3.7188 0.84375 0.4293-0.13817 0.9551-0.39286 1.4688-0.875 1.0273-0.96427 1.8507-2.7149 1.9375-5.5 0.0068-0.21692 0-0.36196 0-0.5v-1.5h-1.5c-0.53508 0-1.0005-0.05091-1.4688-0.09375-0.15545-0.01496-0.02207-0.000465-0.03125 0-0.0092 0.000465-0.1678-0.01378-0.03125 0-0.19-0.019-0.375-0.027-0.594-0.063-0.711-0.115-1.365-0.325-1.687-0.531l-0.375-0.25h-0.4375c-0.63101 0-1.1972 0.43969-1.4062 0.6875-0.1098-0.16-0.0748-0.221-0.4693-0.438 0.077 0.042-0.1715-0.25-0.875-0.25z"/>
 </g>
</svg>
