<?xml version="1.0" encoding="UTF-8" standalone="no"?>
<!-- Created with Inkscape (http://www.inkscape.org/) -->
<svg id="svg12707" xmlns:rdf="http://www.w3.org/1999/02/22-rdf-syntax-ns#" xmlns="http://www.w3.org/2000/svg" height="24" width="24" version="1.1" xmlns:cc="http://creativecommons.org/ns#" xmlns:xlink="http://www.w3.org/1999/xlink" xmlns:dc="http://purl.org/dc/elements/1.1/">
 <defs id="defs12709">
  <linearGradient id="linearGradient4005">
   <stop id="stop4007" style="stop-color:#fff" offset="0"/>
   <stop id="stop4009" style="stop-color:#fff;stop-opacity:0" offset="1"/>
  </linearGradient>
  <linearGradient id="linearGradient4509" y2="43" gradientUnits="userSpaceOnUse" x2="12" gradientTransform="translate(-11 -15)" y1="13" x1="12">
   <stop id="stop5623" style="stop-color:#0b0b0b" offset="0"/>
   <stop id="stop5625" style="stop-color:#585858" offset="1"/>
  </linearGradient>
  <linearGradient id="linearGradient4011" y2="17" xlink:href="#linearGradient4005" gradientUnits="userSpaceOnUse" x2="8" y1="17" x1="4"/>
  <linearGradient id="linearGradient4013" y2="16" xlink:href="#linearGradient4005" gradientUnits="userSpaceOnUse" x2="18" y1="16" x1="14"/>
  <linearGradient id="linearGradient4027" y2="7" gradientUnits="userSpaceOnUse" x2="13.438" gradientTransform="translate(1,1)" y1="4" x1="13">
   <stop id="stop4023" style="stop-color:#fff" offset="0"/>
   <stop id="stop4025" style="stop-color:#fff;stop-opacity:0" offset="1"/>
  </linearGradient>
 </defs>
 <metadata id="metadata12712">
  <rdf:RDF>
   <cc:Work rdf:about="">
    <dc:format>image/svg+xml</dc:format>
    <dc:type rdf:resource="http://purl.org/dc/dcmitype/StillImage"/>
    <dc:title/>
   </cc:Work>
  </rdf:RDF>
 </metadata>
 <path id="path8432-5" style="color:#bebebe;fill:url(#linearGradient4509)" d="m20 4-11 1.25-0.0003 10.531c-0.5318-0.479-1.2277-0.781-2-0.781-1.6569 0-3 1.3431-3 3s1.3431 3 3 3c1.5037 0 2.7201-1.1195 2.9375-2.5625 0.0292-0.14271 0.05875-0.28706 0.0625-0.4375 0-0.02156 0.0004526-0.04105 0-0.0625l0.0003-8.938 9-0.9375v6.7185c-0.532-0.479-1.228-0.781-2-0.781-1.6569 0-3 1.3431-3 3s1.3431 3 3 3c1.3117 0 2.4048-0.85843 2.8125-2.0312 0.02467-0.07099 0.04312-0.14545 0.0625-0.21875 0.01715-0.05307 0.04949-0.10164 0.0625-0.15625 0.03372-0.1648 0.05701-0.32657 0.0625-0.5-0.000157-0.03164 0.0016-0.0618 0-0.09375 0-0.02156 0.000453-0.04105 0-0.0625z"/>
 <path id="path3993" style="opacity:.5;fill:url(#linearGradient4011)" d="m8 17a2 2 0 1 1 -4 0 2 2 0 1 1 4 0z" transform="matrix(0,1,-1,0,24,12)"/>
 <path id="path4003" style="opacity:.5;fill:url(#linearGradient4013)" d="m18 16a2 2 0 1 1 -4 0 2 2 0 1 1 4 0z" transform="matrix(0,1,-1,0,33,1)"/>
 <path id="path4015" style="opacity:.5;block-progression:tb;text-indent:0;color:#bebebe;text-transform:none;fill:url(#linearGradient4027)" d="m19 5.125v1.9375h-0.09375l-8.906 0.9375v-1.8438z"/>
</svg>
