<?xml version="1.0" encoding="UTF-8" standalone="no"?>
<!-- Created with Inkscape (http://www.inkscape.org/) -->
<svg id="svg3828" xmlns:rdf="http://www.w3.org/1999/02/22-rdf-syntax-ns#" xmlns="http://www.w3.org/2000/svg" height="24" width="24" version="1.1" xmlns:cc="http://creativecommons.org/ns#" xmlns:xlink="http://www.w3.org/1999/xlink" xmlns:dc="http://purl.org/dc/elements/1.1/">
 <defs id="defs3830">
  <linearGradient id="linearGradient3003" y2="47.013" gradientUnits="userSpaceOnUse" x2="25.132" gradientTransform="matrix(.48572 0 0 -.45630 .34283 21.651)" y1=".98521" x1="25.132">
   <stop id="stop21879" style="stop-color:#3fafe0" offset="0"/>
   <stop id="stop21881" style="stop-color:#84d5f9" offset="1"/>
  </linearGradient>
  <linearGradient id="linearGradient3807" y2="22" gradientUnits="userSpaceOnUse" x2="10" gradientTransform="translate(1,-1)" x1="10">
   <stop id="stop3803" style="stop-color:#fff" offset="0"/>
   <stop id="stop3805" style="stop-color:#fff;stop-opacity:0" offset="1"/>
  </linearGradient>
  <linearGradient id="linearGradient4262" y2="42" gradientUnits="userSpaceOnUse" x2="25" gradientTransform="translate(-8,-24)" y1="45" x1="25">
   <stop id="stop3962" style="stop-opacity:0" offset="0"/>
   <stop id="stop3970" offset=".5"/>
   <stop id="stop3964" style="stop-opacity:0" offset="1"/>
  </linearGradient>
  <radialGradient id="radialGradient4265" gradientUnits="userSpaceOnUse" cy="43.5" cx="9" gradientTransform="matrix(1 0 0 .75 -4 -13.125)" r="2">
   <stop id="stop3946" offset="0"/>
   <stop id="stop3948" style="stop-opacity:0" offset="1"/>
  </radialGradient>
  <radialGradient id="radialGradient4268" gradientUnits="userSpaceOnUse" cy="43.5" cx="40" gradientTransform="matrix(1 0 0 .75 -21 -13.125)" r="2">
   <stop id="stop3954" offset="0"/>
   <stop id="stop3956" style="stop-opacity:0" offset="1"/>
  </radialGradient>
  <linearGradient id="linearGradient3836" y2="1" gradientUnits="userSpaceOnUse" x2="11" gradientTransform="translate(1,-1)" y1="22" x1="11">
   <stop id="stop7572" style="stop-color:#347fa0" offset="0"/>
   <stop id="stop7574" style="stop-color:#489fc6" offset="1"/>
  </linearGradient>
 </defs>
 <metadata id="metadata3833">
  <rdf:RDF>
   <cc:Work rdf:about="">
    <dc:format>image/svg+xml</dc:format>
    <dc:type rdf:resource="http://purl.org/dc/dcmitype/StillImage"/>
    <dc:title/>
   </cc:Work>
  </rdf:RDF>
 </metadata>
 <g id="layer1" transform="translate(0,2)">
  <path id="rect3940" style="opacity:.2;fill:url(#radialGradient4268)" d="m19 18v3h0.5c0.831 0 1.5-0.669 1.5-1.5s-0.669-1.5-1.5-1.5h-0.5z"/>
  <path id="rect3942" style="opacity:.2;fill:url(#radialGradient4265)" d="m4.4062 18c-0.779 0-1.4062 0.627-1.4062 1.406v0.1875c0 0.779 0.6272 1.406 1.4062 1.406h0.5938v-3h-0.5938z"/>
  <path id="rect3938" style="opacity:.2;fill:url(#linearGradient4262)" d="m5 18h14v3h-14z"/>
  <path id="path4160-3" style="fill:url(#linearGradient3003)" d="m4.5 19.5c3.8956 0 15-0.0014 15-0.0014l0.000021-18.999h-15v19z"/>
  <path id="path4160-3-5" style="opacity:0.91;stroke-linejoin:round;stroke:url(#linearGradient3836);stroke-width:.99992;fill:none" d="m4.5 0.49996c3.8956 0 15 0.0014 15 0.0014l0.000021 18.999h-15v-19z"/>
  <path id="path3780" style="opacity:.4;fill:#fff" d="m5 1v1c4.158 0.0000752 13.293-0.0000752 14 0v-1c-0.70734-0.0000752-9.842 0.0000752-14 0z"/>
  <path id="rect3796" style="opacity:.4;fill:url(#linearGradient3807)" d="m5 1v18h14v-18zm1 1h12v16h-12z"/>
 </g>
 <g id="layer2" transform="translate(0,2)">
  <path id="path3848" style="opacity:.1;enable-background:new" d="m7 3v1h1v-1h-1zm0 1h-1v1h1v-1zm2-1v1h1v-1h-1zm2 0v1h1v-1h-1zm2 0v1h1v-1h-1zm2 0v1h1v-1h-1zm2 0v1h1v-1h-1zm0 2v1h1v-1h-1zm-11 1v1h1v-1h-1zm11 1v1h1v-1h-1zm-11 1v1h1v-1h-1zm11 1v1h1v-1h-1zm-11 1v1h1v-1h-1zm11 1v1h1v-1h-1zm-11 1v1h1v-1h-1zm11 1v1h1v-1h-1zm-11 1v1h1v-1h-1zm11 1v1h1v-1h-1zm-11 1v1h1v-1h-1zm11 1v1h1v-1h-1zm0 1h-1v1h1v-1zm-11 0v1h1v-1h-1zm2 0v1h1v-1h-1zm2 0v1h1v-1h-1zm2 0v1h1v-1h-1zm2 0v1h1v-1h-1z"/>
  <path id="rect7288" style="enable-background:new;fill:#fff" d="m7 2v1h1v-1h-1zm0 1h-1v1h1v-1zm2-1v1h1v-1h-1zm2 0v1h1v-1h-1zm2 0v1h1v-1h-1zm2 0v1h1v-1h-1zm2 0v1h1v-1h-1zm0 2v1h1v-1h-1zm-11 1v1h1v-1h-1zm11 1v1h1v-1h-1zm-11 1v1h1v-1h-1zm11 1v1h1v-1h-1zm-11 1v1h1v-1h-1zm11 1v1h1v-1h-1zm-11 1v1h1v-1h-1zm11 1v1h1v-1h-1zm-11 1v1h1v-1h-1zm11 1v1h1v-1h-1zm-11 1v1h1v-1h-1zm11 1v1h1v-1h-1zm0 1h-1v1h1v-1zm-11 0v1h1v-1h-1zm2 0v1h1v-1h-1zm2 0v1h1v-1h-1zm2 0v1h1v-1h-1zm2 0v1h1v-1h-1z"/>
 </g>
</svg>
