<?xml version="1.0" encoding="UTF-8" standalone="no"?>
<!-- Created with Inkscape (http://www.inkscape.org/) -->
<svg id="svg12707" xmlns:rdf="http://www.w3.org/1999/02/22-rdf-syntax-ns#" xmlns="http://www.w3.org/2000/svg" height="24" width="24" version="1.1" xmlns:cc="http://creativecommons.org/ns#" xmlns:xlink="http://www.w3.org/1999/xlink" xmlns:dc="http://purl.org/dc/elements/1.1/">
 <defs id="defs12709">
  <linearGradient id="linearGradient4239" y2="40" gradientUnits="userSpaceOnUse" x2="144" gradientTransform="matrix(.066667 0 0 .066667 4.4 -.66667)" y1="280" x1="144">
   <stop id="stop3864-8-6-6" style="stop-color:#f0f0f0" offset="0"/>
   <stop id="stop3866-9-1-7" style="stop-color:#f9f9f9" offset="1"/>
  </linearGradient>
  <radialGradient id="radialGradient4282" gradientUnits="userSpaceOnUse" cy="112.3" cx="102" gradientTransform="matrix(.12847 0 0 -.14049 4.7483 18.728)" r="139.56">
   <stop id="stop41" style="stop-color:#b7b8b9" offset="0"/>
   <stop id="stop47" style="stop-color:#ececec" offset=".18851"/>
   <stop id="stop49" style="stop-color:#fafafa;stop-opacity:0" offset=".25718"/>
   <stop id="stop51" style="stop-color:#fff;stop-opacity:0" offset=".30111"/>
   <stop id="stop53" style="stop-color:#fafafa;stop-opacity:0" offset=".53130"/>
   <stop id="stop55" style="stop-color:#ebecec;stop-opacity:0" offset=".84490"/>
   <stop id="stop57" style="stop-color:#e1e2e3;stop-opacity:0" offset="1"/>
  </radialGradient>
  <linearGradient id="linearGradient4284" y2="5.4565" gradientUnits="userSpaceOnUse" x2="36.358" gradientTransform="matrix(.34973 0 0 .35611 4.6431 1.3001)" y1="8.059" x1="32.892">
   <stop id="stop8591" style="stop-color:#fefefe" offset="0"/>
   <stop id="stop8593" style="stop-color:#cbcbcb" offset="1"/>
  </linearGradient>
  <clipPath id="clipPath4303" clipPathUnits="userSpaceOnUse">
   <path id="path4305" style="color:#bebebe;fill:#967362" d="m4 2v18h15v-14.094-0.03125h-0.03125v-0.03125l-3.907-3.8124-0.031-0.0312h-0.031-11z"/>
  </clipPath>
  <linearGradient id="linearGradient4313" y2="22" gradientUnits="userSpaceOnUse" x2="11" x1="11">
   <stop id="stop6584" style="stop-color:#fff" offset="0"/>
   <stop id="stop6586" style="stop-color:#fff;stop-opacity:0" offset="1"/>
  </linearGradient>
 </defs>
 <metadata id="metadata12712">
  <rdf:RDF>
   <cc:Work rdf:about="">
    <dc:format>image/svg+xml</dc:format>
    <dc:type rdf:resource="http://purl.org/dc/dcmitype/StillImage"/>
    <dc:title/>
   </cc:Work>
  </rdf:RDF>
 </metadata>
 <path id="rect3373-6" style="color:#bebebe;fill:url(#linearGradient4239)" d="m4.5 2.5v0.5 18 0.5h0.5 15 0.5v-0.5-14.1-0.25l-0.1875-0.15625-4-3.9001-0.156-0.0937h-0.156-11z"/>
 <path id="path4294" style="stroke-width:2;color:#bebebe;stroke:#fff;fill:url(#linearGradient4313)" d="m4 2v18h15v-14.094-0.03125h-0.03125v-0.03125l-3.907-3.8124-0.031-0.0312h-0.031-11z" clip-path="url(#clipPath4303)" transform="translate(1,1)"/>
 <path id="path4286" d="m4.5 2.5v0.5 18 0.5h0.5 15 0.5v-0.5-14.1-0.25l-0.1875-0.15625c-0.865-2.2051-3.093-3.4381-4.618-3.9l-0.156-0.0938h-0.157-10.381z" style="opacity:.4;color:#bebebe;stroke:#000;fill:none"/>
 <g id="g4276" transform="matrix(1.1547 0 0 1.1547 -1.3449 .20568)">
  <path id="path4191" style="enable-background:new;fill:url(#radialGradient4282)" d="m15.319 2.0186 3.6522 3.1875c0 11.152-12.057-3.1875-3.6522-3.1875z"/>
  <path id="path4474-4" style="opacity:0.17;fill-rule:evenodd;enable-background:new" d="m12.992 1.9938c1.117 0 1 4.0125 1 4.0125s5.0109-0.58127 5.0109 1c0-0.38528 0.0301-1.8063-0.0469-1.9265-0.55326-0.86374-2.9429-2.802-3.8059-3.056-0.69408-0.058-2.1581-0.0299-2.1581-0.0299z"/>
  <path id="path4474-4-2" style="opacity:.05;fill-rule:evenodd;enable-background:new" d="m12.164 2.0189c1.117 0 0.82796 4.9874 0.82796 4.9874s6.1005-0.69597 6.1005 0.8853c0-0.38528-0.0846-2.0357-0.1616-2.1559-0.554-0.8638-3.689-3.3755-4.552-3.6295-1.216-0.1281-2.215-0.0873-2.215-0.0873z"/>
  <path id="path4474" style="enable-background:new;fill:url(#linearGradient4284);fill-rule:evenodd" d="m13.992 1.9938c1.117 0 1 3.0125 1 3.0125s4.0109-0.58127 4.0109 1c0-0.38528 0.0301-0.8063-0.0469-0.92652-0.55326-0.86374-2.9429-2.802-3.8059-3.056-0.17779-0.005-0.98055-0.02-1.1581-0.0299z"/>
 </g>
</svg>
