<?xml version="1.0" encoding="UTF-8" standalone="no"?>
<!-- Created with Inkscape (http://www.inkscape.org/) -->
<svg id="svg12707" xmlns:rdf="http://www.w3.org/1999/02/22-rdf-syntax-ns#" xmlns="http://www.w3.org/2000/svg" height="24" width="24" version="1.1" xmlns:cc="http://creativecommons.org/ns#" xmlns:xlink="http://www.w3.org/1999/xlink" xmlns:dc="http://purl.org/dc/elements/1.1/">
 <defs id="defs12709">
  <linearGradient id="linearGradient3850">
   <stop id="stop3852" style="stop-color:#fff" offset="0"/>
   <stop id="stop3854" style="stop-color:#fff;stop-opacity:0" offset="1"/>
  </linearGradient>
  <linearGradient id="linearGradient3842" y2="-176" gradientUnits="userSpaceOnUse" x2="1888" gradientTransform="translate(-1869 180)" y1="-160" x1="1888">
   <stop id="stop5623-4" style="stop-color:#0b0b0b" offset="0"/>
   <stop id="stop5625-9" style="stop-color:#585858" offset="1"/>
  </linearGradient>
  <linearGradient id="linearGradient3856" y2="4.5" xlink:href="#linearGradient3850" gradientUnits="userSpaceOnUse" x2="18" y1="4.5" x1="13"/>
  <linearGradient id="linearGradient3858" y2="11.5" xlink:href="#linearGradient3850" gradientUnits="userSpaceOnUse" x2="8" y1="11.5" x1="3"/>
  <linearGradient id="linearGradient3860" y2="18.5" xlink:href="#linearGradient3850" gradientUnits="userSpaceOnUse" x2="18" y1="18.5" x1="13"/>
 </defs>
 <metadata id="metadata12712">
  <rdf:RDF>
   <cc:Work rdf:about="">
    <dc:format>image/svg+xml</dc:format>
    <dc:type rdf:resource="http://purl.org/dc/dcmitype/StillImage"/>
    <dc:title/>
   </cc:Work>
  </rdf:RDF>
 </metadata>
 <path id="path8436-3-3" style="color:#bebebe;fill:url(#linearGradient3842)" d="m16.5 1c-1.933 0-3.5 1.567-3.5 3.5 0 0.43838 0.10282 0.86328 0.25 1.25l-4.3125 3.25c-0.6307-0.6149-1.487-1-2.4375-1-1.933 0-3.5 1.567-3.5 3.5s1.567 3.5 3.5 3.5c0.9505 0 1.8068-0.385 2.4375-1l4.3125 3.25c-0.147 0.387-0.25 0.812-0.25 1.25 0 1.933 1.567 3.5 3.5 3.5s3.5-1.567 3.5-3.5-1.567-3.5-3.5-3.5c-0.95046 0-1.8068 0.38506-2.4375 1l-4.312-3.25c0.1472-0.387 0.25-0.812 0.25-1.25s-0.1028-0.863-0.25-1.25l4.312-3.25c0.631 0.6149 1.488 1 2.438 1 1.933 0 3.5-1.567 3.5-3.5s-1.567-3.5-3.5-3.5z"/>
 <path id="path3844" style="opacity:.6;fill:url(#linearGradient3858)" d="m8 11.5a2.5 2.5 0 1 1 -5 0 2.5 2.5 0 1 1 5 0z" transform="matrix(0,1,-1,0,18,6)"/>
 <path id="path3846" style="opacity:.6;fill:url(#linearGradient3856)" d="m18 4.5a2.5 2.5 0 1 1 -5 0 2.5 2.5 0 1 1 5 0z" transform="matrix(0,1,-1,0,21,-11)"/>
 <path id="path3848" style="opacity:.6;fill:url(#linearGradient3860)" d="m18 18.5a2.5 2.5 0 1 1 -5 0 2.5 2.5 0 1 1 5 0z" transform="matrix(0,1,-1,0,35,3)"/>
</svg>
