<?xml version="1.0" encoding="UTF-8" standalone="no"?>
<!-- Created with Inkscape (http://www.inkscape.org/) -->
<svg id="svg12707" xmlns:rdf="http://www.w3.org/1999/02/22-rdf-syntax-ns#" xmlns="http://www.w3.org/2000/svg" height="24" width="24" version="1.1" xmlns:cc="http://creativecommons.org/ns#" xmlns:xlink="http://www.w3.org/1999/xlink" xmlns:dc="http://purl.org/dc/elements/1.1/">
 <defs id="defs12709">
  <linearGradient id="linearGradient4124" y2="22" gradientUnits="userSpaceOnUse" x2="0" gradientTransform="matrix(1,0,0,-1,1.5,23.5)" y1="-3">
   <stop id="stop5620" style="stop-color:#1e1e1e" offset="0"/>
   <stop id="stop5622" style="stop-color:#535353" offset="1"/>
  </linearGradient>
 </defs>
 <metadata id="metadata12712">
  <rdf:RDF>
   <cc:Work rdf:about="">
    <dc:format>image/svg+xml</dc:format>
    <dc:type rdf:resource="http://purl.org/dc/dcmitype/StillImage"/>
    <dc:title/>
   </cc:Work>
  </rdf:RDF>
 </metadata>
 <path id="path5906" style="block-progression:tb;text-indent:0;color:#000000;text-transform:none;fill:url(#linearGradient4124)" d="m2.5 20.5c-0.53578 0-1-0.46422-1-1v-14c0-0.53578 0.46422-1 1-1h14c0.53578 0 1.0948 0.47267 1 1v5.5625l3.2812-3.2812c0.25968-0.26483 0.52056-0.28807 0.8125-0.25v-0.03125c0.03081 0.0042 0.06238-0.0061 0.09375 0h0.3125 0.5v0.5 0.3125 0.03125c0.0018 0.03407 0.0018 0.05968 0 0.09375-0.000593 0.01136 0.000988 0.0182 0 0.03125 0.000391 0.02531 0.000393 0.0059 0 0.03125v8 0.03125c0.000055 0.0076 0.000055 0.0236 0 0.03125-0.000055 0.0076 0.000165 0.0261 0 0.03125v0.40625 0.5h-0.5-0.3125-0.1875c-0.02592 0.0016-0.02084 0.000162-0.03125 0s-0.03637 0-0.03125 0c0.01024 0-0.01065 0.0032-0.0625 0h-0.03125-0.03125c-0.161-0.028-0.337-0.091-0.531-0.281l-3.281-3.281v5.562c0 0.53578-0.46422 1-1 1z"/>
 <path id="path4104" style="opacity:.6;block-progression:tb;text-indent:0;color:#000000;stroke:#000;text-transform:none;fill:none" d="m2.5 4.5c-0.554 0-1 0.446-1 1v14c0 0.554 0.446 1 1 1h14c0.554 0 1-0.446 1-1v-5.5625l3.2812 3.2812c0.23073 0.2353 0.58284 0.34458 0.90625 0.28125h0.8125v-0.8125c0.004-0.05198 0.004-0.10427 0-0.15625 0.00016-0.01042 0.00016-0.02083 0-0.03125v-8c0.001-0.03123 0.001-0.06252 0-0.09375v-0.9062h-0.812-0.188c-0.042-0.0026-0.083-0.0026-0.125 0-0.222 0.024-0.435 0.1248-0.594 0.2812l-3.281 3.2808v-5.562c0-0.554-0.446-1-1-1z"/>
 <path id="path6878" style="enable-background:new;fill:#fff" d="m7 9.5v6l6-3z"/>
 <path id="path4128" style="opacity:.1;block-progression:tb;text-indent:0;color:#000000;text-transform:none;fill:#fff" d="m2.5 5c-0.247 0-0.5 0.253-0.5 0.5v1c0-0.247 0.253-0.5 0.5-0.5h14c0.247 0 0.5 0.253 0.5 0.5v-1c0-0.247-0.253-0.5-0.5-0.5zm15.344 6.406-0.844 0.875v0.438l0.281 0.281 0.563-0.594c3.73-2.9286 3.156-3.406 3.844-3.406h0.312v-0.5-0.0312c0.000019-0.00265 0.000019-0.02858 0-0.03125v-0.0314-0.4062h-0.312c-0.688 0-2.395 1.9571-3.844 3.406z"/>
 <path id="path4140" style="opacity:.5;block-progression:tb;text-indent:0;color:#000000;text-transform:none" d="m2.5 21c-0.247 0-0.5-0.5-0.5-0.5v-1c0 0.247 0.253 0.5 0.5 0.5h14c0.24697 0 0.5-0.25303 0.5-0.5v1s-0.25303 0.5-0.5 0.5zm15.344-6.406-0.844-0.875v-0.438l0.281-0.281 0.5625 0.59375c3.487 2.586 3.156 3.406 4.156 3.406v0.5 0.03125c0.000019 0.0027 0.000019 0.02858 0 0.03125v0.032 0.406c-1 0-2.2792-1.5292-4.1562-3.4062z"/>
 <path id="path4142" style="opacity:.05;stroke-linejoin:round;stroke-width:2;stroke:#fff;enable-background:new;fill:none" d="m7 9.5v6l6-3z"/>
 <path id="path4144" style="opacity:.1;stroke-linejoin:round;stroke:#fff;enable-background:new;fill:none" d="m7 9.5v6l6-3z"/>
</svg>
