<?xml version="1.0" encoding="UTF-8" standalone="no"?>
<!-- Created with Inkscape (http://www.inkscape.org/) -->
<svg id="svg5318" xmlns:rdf="http://www.w3.org/1999/02/22-rdf-syntax-ns#" xmlns="http://www.w3.org/2000/svg" height="24" width="24" version="1.1" xmlns:cc="http://creativecommons.org/ns#" xmlns:xlink="http://www.w3.org/1999/xlink" xmlns:dc="http://purl.org/dc/elements/1.1/">
 <defs id="defs5320">
  <clipPath id="clipPath11923" clipPathUnits="userSpaceOnUse">
   <path id="path11925" style="block-progression:tb;text-indent:0;color:#000000;text-transform:none" d="m433 90v5 5 8s0 2 2 2h18s2 0 2-2v-8-5-2h-8.25c-2.75 0-2.75-3-5.75-3h-8z"/>
  </clipPath>
  <linearGradient id="linearGradient5281" y2="288.38" gradientUnits="userSpaceOnUse" x2="364.75" gradientTransform="matrix(.38091 0 0 .38091 -115.94 -78.847)" y1="230.62" x1="364.75">
   <stop id="stop4970" style="stop-color:#f1e6f4" offset="0"/>
   <stop id="stop4972" style="stop-color:#c9bcce" offset="1"/>
  </linearGradient>
  <linearGradient id="linearGradient5284" y2="97" gradientUnits="userSpaceOnUse" x2="437" gradientTransform="translate(-432,-77)" y1="87" x1="437">
   <stop id="stop11361" style="stop-color:#d5cbd7" offset="0"/>
   <stop id="stop11363" style="stop-color:#d9bfdf" offset="1"/>
  </linearGradient>
 </defs>
 <metadata id="metadata5323">
  <rdf:RDF>
   <cc:Work rdf:about="">
    <dc:format>image/svg+xml</dc:format>
    <dc:type rdf:resource="http://purl.org/dc/dcmitype/StillImage"/>
    <dc:title/>
   </cc:Work>
  </rdf:RDF>
 </metadata>
 <g id="layer1" transform="translate(0,-8)">
  <path id="path11573" style="block-progression:tb;text-indent:0;color:#000000;text-transform:none;fill:url(#linearGradient5284)" d="m1.5 10.5v9h21v-6h-7.75c-1.5568 0-2.4425-0.91148-3.1562-1.6562-0.714-0.745-1.261-1.344-2.594-1.344h-7.5z"/>
  <path id="path11602" style="block-progression:tb;text-indent:0;color:#000000;text-transform:none;fill:url(#linearGradient5281)" d="m1.5 15.5v12.5s-0.003 0.40051 0.1875 0.78125c0.19037 0.38074 0.47917 0.71875 1.3125 0.71875h18s0.40051 0.003 0.78125-0.1875c0.381-0.19 0.719-0.479 0.719-1.312v-12.5h-21z"/>
  <path id="path11914" style="opacity:0.41;block-progression:tb;text-indent:0;color:#000000;stroke:#000;stroke-width:2;text-transform:none;fill:none" d="m433 90v5 5 8s0 2 2 2h18s2 0 2-2v-8-5-2h-8.25c-2.75 0-2.75-3-5.75-3h-8z" clip-path="url(#clipPath11923)" transform="translate(-432 -80)"/>
  <rect id="rect11946" style="opacity:0.41;color:#000000" height="1" width="20" y="15" x="2"/>
  <rect id="rect5385" style="opacity:.1;fill:#fff" height="1" width="20" y="16" x="2"/>
 </g>
</svg>
