<?xml version="1.0" encoding="UTF-8" standalone="no"?>
<!-- Created with Inkscape (http://www.inkscape.org/) -->
<svg id="svg3786" xmlns:rdf="http://www.w3.org/1999/02/22-rdf-syntax-ns#" xmlns="http://www.w3.org/2000/svg" xmlns:osb="http://www.openswatchbook.org/uri/2009/osb" height="48" width="48" version="1.0" xmlns:cc="http://creativecommons.org/ns#" xmlns:xlink="http://www.w3.org/1999/xlink" xmlns:dc="http://purl.org/dc/elements/1.1/">
 <metadata id="metadata39">
  <rdf:RDF>
   <cc:Work rdf:about="">
    <dc:format>image/svg+xml</dc:format>
    <dc:type rdf:resource="http://purl.org/dc/dcmitype/StillImage"/>
    <dc:title/>
   </cc:Work>
  </rdf:RDF>
 </metadata>
 <defs id="defs3788">
  <linearGradient id="linearGradient5060">
   <stop id="stop5062" offset="0"/>
   <stop id="stop5064" style="stop-opacity:0" offset="1"/>
  </linearGradient>
  <linearGradient id="linearGradient4072" y2="15" gradientUnits="userSpaceOnUse" x2="25.25" gradientTransform="translate(-.25 1)" y1="39" x1="25.25">
   <stop id="stop4099" style="stop-color:#acacac" offset="0"/>
   <stop id="stop4101" style="stop-color:#b6b6b6" offset=".25"/>
   <stop id="stop4103" style="stop-color:#d9d9d9" offset=".25"/>
   <stop id="stop4105" style="stop-color:#d4d4d4" offset="1"/>
  </linearGradient>
  <radialGradient id="radialGradient4075" xlink:href="#linearGradient5060" gradientUnits="userSpaceOnUse" cy="486.65" cx="605.71" gradientTransform="matrix(-.044847 0 0 .020588 32.611 31.451)" r="117.14"/>
  <radialGradient id="radialGradient4078" xlink:href="#linearGradient5060" gradientUnits="userSpaceOnUse" cy="486.65" cx="605.71" gradientTransform="matrix(.044847 0 0 .020588 14.389 31.451)" r="117.14"/>
  <linearGradient id="linearGradient4081" y2="609.51" gradientUnits="userSpaceOnUse" x2="302.86" gradientTransform="matrix(.076357 0 0 .020588 -3.5974 31.451)" y1="366.65" x1="302.86">
   <stop id="stop5050" style="stop-opacity:0" offset="0"/>
   <stop id="stop5056" offset=".5"/>
   <stop id="stop5052" style="stop-opacity:0" offset="1"/>
  </linearGradient>
 </defs>
 <g id="layer1">
  <g id="g4092" transform="translate(0,-2)">
   <rect id="rect2723" style="opacity:.3;fill:url(#linearGradient4081)" height="4.9997" width="35.852" y="39" x="5.5653"/>
   <path id="path2725" style="opacity:.3;fill:url(#radialGradient4078)" d="m41.417 39v4.9997c2.309 0.009 5.583-1.12 5.583-2.5s-2.577-2.5-5.583-2.5z"/>
   <path id="path2727" style="opacity:.3;fill:url(#radialGradient4075)" d="m5.5833 39v4.9997c-2.3095 0.009-5.5833-1.12-5.5833-2.5s2.5773-2.5 5.5833-2.5z"/>
  </g>
  <path id="rect6431" style="fill:url(#linearGradient4072);enable-background:new;fill-rule:evenodd" d="m9.75 12.5c-0.8098 0-2.035 0.16781-2.2188 0.84375l-6.2812 20.656 1 5.5h42.094l0.90625-5.5312-6.7812-20.625c-0.16-0.548-1.06-0.844-1.719-0.844z"/>
  <path id="path3856" d="m10 12.5c-0.8098 0-2.035 0.16781-2.2188 0.84375l-6.2812 21.125 44 0.031-6.781-21.156c-0.16-0.548-1.06-0.844-1.719-0.844zm35.5 22h-44l1 6h42.094z" style="enable-background:new;fill:none"/>
  <path id="path3873" d="m9.75 12.5c-0.8098 0-2.035 0.16781-2.2188 0.84375l-6.2812 20.656 1 5.5h42.094l0.90625-5.5312-6.7812-20.625c-0.16-0.548-1.06-0.844-1.719-0.844z" style="opacity:0.41;stroke:#000;enable-background:new;fill:none"/>
  <rect id="rect3875" style="opacity:0.41;fill:#fff" ry=".5" height="1" width="44" y="33" x="2"/>
  <path id="path4161" style="opacity:.5;fill:#fff;enable-background:new;fill-rule:evenodd" d="m9.75 13c-0.3704 0-0.8618 0.051-1.2188 0.156-0.3569 0.105-0.5104 0.236-0.5312 0.313v0.031l-6.2188 20.5 0.125 0.625 6.0938-20.125v-0.031c0.0208-0.077 0.1743-0.208 0.5312-0.313 0.357-0.105 0.8484-0.156 1.2188-0.156h27c0.25465 0 0.59151 0.07771 0.84375 0.1875s0.39017 0.2262 0.40625 0.28125v0.031l6.625 20.125 0.094-0.656-6.719-20.469v-0.031c-0.016-0.055-0.154-0.172-0.406-0.281-0.252-0.11-0.589-0.188-0.844-0.188z"/>
  <path id="path3912" style="opacity:.4;color:#000000;text-indent:0;block-progression:tb;text-decoration-line:none;text-transform:none;fill:#fff" d="m9.5 14.375c-0.3437 0-0.625 0.2813-0.625 0.625s0.2813 0.625 0.625 0.625 0.625-0.2813 0.625-0.625-0.2813-0.625-0.625-0.625zm27 0c-0.3437 0-0.625 0.2813-0.625 0.625s0.2813 0.625 0.625 0.625 0.625-0.2813 0.625-0.625-0.2813-0.625-0.625-0.625zm-32 17c-0.3437 0-0.625 0.2813-0.625 0.625s0.2813 0.625 0.625 0.625 0.625-0.2813 0.625-0.625-0.2813-0.625-0.625-0.625zm37 0c-0.3437 0-0.625 0.2813-0.625 0.625s0.2813 0.625 0.625 0.625 0.625-0.2813 0.625-0.625-0.2813-0.625-0.625-0.625z"/>
  <path id="path3905" style="opacity:.4;color:#000000;text-indent:0;block-progression:tb;text-decoration-line:none;text-transform:none" d="m9.5 13.875c-0.3437 0-0.625 0.2813-0.625 0.625s0.2813 0.625 0.625 0.625 0.625-0.2813 0.625-0.625-0.2813-0.625-0.625-0.625zm27 0c-0.3437 0-0.625 0.2813-0.625 0.625s0.2813 0.625 0.625 0.625 0.625-0.2813 0.625-0.625-0.2813-0.625-0.625-0.625zm-32 17c-0.3437 0-0.625 0.2813-0.625 0.625s0.2813 0.625 0.625 0.625 0.625-0.2813 0.625-0.625-0.2813-0.625-0.625-0.625zm37 0c-0.3437 0-0.625 0.2813-0.625 0.625s0.2813 0.625 0.625 0.625 0.625-0.2813 0.625-0.625-0.2813-0.625-0.625-0.625z"/>
  <path id="path4407" style="opacity:.3;color:#000000;text-indent:0;block-progression:tb;text-decoration-line:none;text-transform:none;fill:#fff" d="m23 15.938c1.6569 0 3 0.7929 3 1.8125 0 0.8072-0.82718 1.4991-2 1.75v0.125 0.3125 0.0624l4.625 2.25 0.375 0.1874v0.3125 0.9377s1 0.18948 1 1.0625c0 0.67976-0.89544 1.25-2 1.25s-2-0.57024-2-1.25c0-0.4492 0.416-0.8476 1-1.0625v-0.7502l-3-1.4375v6.5h2l-3 3.9377-3-3.938h2v-5.25l-3 1.4375v0.375h1v2.4375h-4v-2.4375h1v-0.6875-0.25l0.375-0.125 4.625-2.25v-0.625-0.375-0.75s-2.0139-0.21783-2-1.75c0.0092-1.0196 1.3431-1.8125 3-1.8125z"/>
  <path id="path7158" d="m23 14.938c1.6569 0 3 0.7929 3 1.8125 0 0.8072-0.82718 1.4991-2 1.75v0.125 0.3125 0.0624l4.625 2.25 0.375 0.1874v0.3125 0.9377s1 0.18948 1 1.0625c0 0.67976-0.89544 1.25-2 1.25s-2-0.57024-2-1.25c0-0.4492 0.416-0.8476 1-1.0625v-0.7502l-3-1.4375v6.5h2l-3 3.9377-3-3.938h2v-5.25l-3 1.4375v0.375h1v2.4375h-4v-2.4375h1v-0.6875-0.25l0.375-0.125 4.625-2.25v-0.625-0.375-0.75s-2.0139-0.21783-2-1.75c0.0092-1.0196 1.3431-1.8125 3-1.8125z" style="opacity:.3;color:#000000;text-indent:0;block-progression:tb;text-decoration-line:none;text-transform:none"/>
 </g>
</svg>
