<?xml version="1.0" encoding="UTF-8" standalone="no"?>
<!-- Created with Inkscape (http://www.inkscape.org/) -->
<svg id="svg3786" xmlns:rdf="http://www.w3.org/1999/02/22-rdf-syntax-ns#" xmlns="http://www.w3.org/2000/svg" height="48" width="48" version="1.0" xmlns:cc="http://creativecommons.org/ns#" xmlns:xlink="http://www.w3.org/1999/xlink" xmlns:dc="http://purl.org/dc/elements/1.1/">
 <metadata id="metadata39">
  <rdf:RDF>
   <cc:Work rdf:about="">
    <dc:format>image/svg+xml</dc:format>
    <dc:type rdf:resource="http://purl.org/dc/dcmitype/StillImage"/>
    <dc:title/>
   </cc:Work>
  </rdf:RDF>
 </metadata>
 <defs id="defs3788">
  <linearGradient id="linearGradient5060">
   <stop id="stop5062" offset="0"/>
   <stop id="stop5064" style="stop-opacity:0" offset="1"/>
  </linearGradient>
  <linearGradient id="linearGradient4072" y2="15" gradientUnits="userSpaceOnUse" x2="25.25" gradientTransform="translate(-.25 1)" y1="39" x1="25.25">
   <stop id="stop4099" style="stop-color:#acacac" offset="0"/>
   <stop id="stop4101" style="stop-color:#b6b6b6" offset=".25"/>
   <stop id="stop4103" style="stop-color:#d9d9d9" offset=".25"/>
   <stop id="stop4105" style="stop-color:#d4d4d4" offset="1"/>
  </linearGradient>
  <radialGradient id="radialGradient4075" xlink:href="#linearGradient5060" gradientUnits="userSpaceOnUse" cy="486.65" cx="605.71" gradientTransform="matrix(-.044847 0 0 .020588 32.611 31.451)" r="117.14"/>
  <radialGradient id="radialGradient4078" xlink:href="#linearGradient5060" gradientUnits="userSpaceOnUse" cy="486.65" cx="605.71" gradientTransform="matrix(.044847 0 0 .020588 15.389 31.451)" r="117.14"/>
  <linearGradient id="linearGradient4081" y2="609.51" gradientUnits="userSpaceOnUse" x2="302.86" gradientTransform="matrix(.076357 0 0 .020588 -3.5974 31.451)" y1="366.65" x1="302.86">
   <stop id="stop5050" style="stop-opacity:0" offset="0"/>
   <stop id="stop5056" offset=".5"/>
   <stop id="stop5052" style="stop-opacity:0" offset="1"/>
  </linearGradient>
  <linearGradient id="linearGradient4176" y2="46.125" gradientUnits="userSpaceOnUse" x2="25" gradientTransform="translate(-1,-2)" y1="35.625" x1="25">
   <stop id="stop4111" offset="0"/>
   <stop id="stop4113" style="stop-opacity:0" offset="1"/>
  </linearGradient>
 </defs>
 <g id="layer1">
  <g id="g4092" transform="translate(0,-2)">
   <rect id="rect2723" style="opacity:.3;fill:url(#linearGradient4081)" height="5" width="36.869" y="39" x="5.5653"/>
   <path id="path2725" style="opacity:.3;fill:url(#radialGradient4078)" d="m42.417 39v4.9997c2.309 0.009 5.583-1.12 5.583-2.5s-2.577-2.5-5.583-2.5z"/>
   <path id="path2727" style="opacity:.3;fill:url(#radialGradient4075)" d="m5.5833 39v4.9997c-2.3095 0.009-5.5833-1.12-5.5833-2.5s2.5773-2.5 5.5833-2.5z"/>
  </g>
  <path id="rect6431" style="fill:url(#linearGradient4072);enable-background:new;fill-rule:evenodd" d="m9.75 12.5c-0.8098 0-2.035 0.16781-2.2188 0.84375l-6.2812 20.656 1 5.5h43.094l0.90625-5.5312-6.7812-20.625c-0.16-0.548-1.06-0.844-1.719-0.844z"/>
  <path id="path3856" d="m10 12.5c-0.8098 0-2.035 0.16781-2.2188 0.84375l-6.2812 21.125 45 0.031-6.781-21.156c-0.16-0.548-1.06-0.844-1.719-0.844zm36.5 22h-45l1 6h43.094z" style="enable-background:new;fill:none"/>
  <path id="path3873" d="m9.75 12.5c-0.8098 0-2.035 0.16781-2.2188 0.84375l-6.2812 20.656 1 5.5h43.094l0.90625-5.5312-6.7812-20.625c-0.16-0.548-1.06-0.844-1.719-0.844z" style="opacity:0.41;stroke:#000;enable-background:new;fill:none"/>
  <rect id="rect3875" style="opacity:0.41;fill:#fff" ry=".5" height="1" width="44" y="33" x="2"/>
  <path id="path4107" style="opacity:.8;fill:url(#linearGradient4176)" d="m4.3977 35 0.3523 2h37.942l0.308-2z"/>
  <path id="rect4138" style="opacity:.4;fill:#fff" d="m5.1174 36.5h36.765c0.20355 0 0.36742 0.16387 0.36742 0.36742v0.26517c0.001 0.204-0.163 0.368-0.366 0.368h-36.765c-0.2041 0-0.368-0.164-0.368-0.367v-0.26517c0-0.204 0.1639-0.368 0.3674-0.368z"/>
  <path id="path4161" style="opacity:.5;fill:#fff;enable-background:new;fill-rule:evenodd" d="m9.75 13c-0.3704 0-0.8618 0.051-1.2188 0.156-0.3569 0.105-0.5104 0.236-0.5312 0.313v0.031l-6.2188 20.5 0.125 0.625 6.0938-20.125v-0.031c0.0208-0.077 0.1743-0.208 0.5312-0.313 0.357-0.105 0.8484-0.156 1.2188-0.156h28c0.25465 0 0.59151 0.07771 0.84375 0.1875s0.39017 0.2262 0.40625 0.28125v0.031l6.625 20.125 0.094-0.656-6.719-20.469v-0.031c-0.016-0.055-0.154-0.172-0.406-0.281-0.252-0.11-0.589-0.188-0.844-0.188h-28z"/>
  <path id="path132" style="opacity:.1" d="m37.064 26-2.0188 2.2529h5zm-1.863 3.126 0.156 0.874h5l-0.15596-0.87356z"/>
  <path id="path3114" style="opacity:.1" d="m37.053 26-2.017 2.25h0.40625l1.5583-1.75 2.3167 1.75h0.71875l-2.983-2.25zm-1.8586 3.125 0.10387 0.5h4.8438l0.05447 0.375h0.15625l-0.15834-0.875h-5z"/>
 </g>
</svg>
