<?xml version="1.0" encoding="UTF-8" standalone="no"?>
<!-- Created with Inkscape (http://www.inkscape.org/) -->
<svg id="svg3786" xmlns:rdf="http://www.w3.org/1999/02/22-rdf-syntax-ns#" xmlns="http://www.w3.org/2000/svg" height="48" width="48" version="1.0" xmlns:cc="http://creativecommons.org/ns#" xmlns:xlink="http://www.w3.org/1999/xlink" xmlns:dc="http://purl.org/dc/elements/1.1/">
 <metadata id="metadata39">
  <rdf:RDF>
   <cc:Work rdf:about="">
    <dc:format>image/svg+xml</dc:format>
    <dc:type rdf:resource="http://purl.org/dc/dcmitype/StillImage"/>
    <dc:title/>
   </cc:Work>
  </rdf:RDF>
 </metadata>
 <defs id="defs3788">
  <linearGradient id="linearGradient5060">
   <stop id="stop5062" offset="0"/>
   <stop id="stop5064" style="stop-opacity:0" offset="1"/>
  </linearGradient>
  <radialGradient id="radialGradient3126" xlink:href="#linearGradient5060" gradientUnits="userSpaceOnUse" cy="486.65" cx="605.71" gradientTransform="matrix(-.044847 0 0 .020588 32.611 31.451)" r="117.14"/>
  <radialGradient id="radialGradient3129" xlink:href="#linearGradient5060" gradientUnits="userSpaceOnUse" cy="486.65" cx="605.71" gradientTransform="matrix(.044847 0 0 .020588 15.389 31.451)" r="117.14"/>
  <linearGradient id="linearGradient3141" y2="15" gradientUnits="userSpaceOnUse" x2="25.25" gradientTransform="translate(-.25 3)" y1="39" x1="25.25">
   <stop id="stop3187" style="stop-color:#acacac" offset="0"/>
   <stop id="stop3189" style="stop-color:#b6b6b6" offset=".20833"/>
   <stop id="stop3191" style="stop-color:#d9d9d9" offset=".20833"/>
   <stop id="stop3193" style="stop-color:#d4d4d4" offset="1"/>
  </linearGradient>
  <linearGradient id="linearGradient3150" y2="15" gradientUnits="userSpaceOnUse" x2="25.25" gradientTransform="translate(-.25 -4)" y1="39" x1="25.25">
   <stop id="stop3177" style="stop-color:#acacac" offset="0"/>
   <stop id="stop3179" style="stop-color:#b6b6b6" offset=".16667"/>
   <stop id="stop3181" style="stop-color:#d9d9d9" offset=".16667"/>
   <stop id="stop3183" style="stop-color:#d4d4d4" offset="1"/>
  </linearGradient>
  <linearGradient id="linearGradient3159" y2="15" gradientUnits="userSpaceOnUse" x2="25.25" gradientTransform="translate(-.25 -11)" y1="39" x1="25.25">
   <stop id="stop3167" style="stop-color:#acacac" offset="0"/>
   <stop id="stop3169" style="stop-color:#b6b6b6" offset=".125"/>
   <stop id="stop3171" style="stop-color:#d9d9d9" offset=".125"/>
   <stop id="stop3173" style="stop-color:#d4d4d4" offset="1"/>
  </linearGradient>
  <linearGradient id="linearGradient3195" y2="609.51" gradientUnits="userSpaceOnUse" x2="302.86" gradientTransform="matrix(.076357 0 0 .020588 -3.5974 31.451)" y1="366.65" x1="302.86">
   <stop id="stop5050" style="stop-opacity:0" offset="0"/>
   <stop id="stop5056" offset=".5"/>
   <stop id="stop5052" style="stop-opacity:0" offset="1"/>
  </linearGradient>
 </defs>
 <g id="layer1">
  <path id="rect2723" style="opacity:.3;fill:url(#linearGradient3195)" d="m5.5653 40h36.869v4h-36.869z"/>
  <path id="path2725" style="opacity:.3;fill:url(#radialGradient3129)" d="m42.417 40v3.9997c2.309 0.009 5.583-1.12 5.583-2.5s-2.577-1.5-5.583-1.5z"/>
  <path id="path2727" style="opacity:.3;fill:url(#radialGradient3126)" d="m5.5833 40v3.9997c-2.3095 0.009-5.5833-1.12-5.5833-2.5s2.5773-1.5 5.5833-1.5z"/>
  <path id="rect6431" style="fill:url(#linearGradient3141);enable-background:new;fill-rule:evenodd" d="m9.75 17.5c-0.8098 0-2.035 0.16781-2.2188 0.84375l-6.2812 18.656 1 4.5h43.094l0.90625-4.5312-6.7812-18.625c-0.16-0.548-1.06-0.844-1.719-0.844z"/>
  <path id="path3856" d="m10 17.5c-0.8098 0-2.035 0.16781-2.2188 0.84375l-6.2812 19.125 45 0.031-6.781-19.156c-0.16-0.548-1.06-0.844-1.719-0.844zm36.5 20h-45l1 5h43.094z" style="enable-background:new;fill:none"/>
  <path id="path3873" d="m9.75 17.5c-0.8098 0-2.035 0.16781-2.2188 0.84375l-6.2812 18.656 1 4.5h43.094l0.90625-4.5312-6.7812-18.625c-0.16-0.548-1.06-0.844-1.719-0.844z" style="opacity:0.41;stroke:#000;enable-background:new;fill:none"/>
  <path id="rect3875" style="opacity:0.41;fill:#fff" d="m2.5 36h43c0.277 0 0.5 0.223 0.5 0.5s-0.223 0.5-0.5 0.5h-43c-0.277 0-0.5-0.223-0.5-0.5s0.223-0.5 0.5-0.5z"/>
  <path id="path4161" style="opacity:.5;fill:#fff;enable-background:new;fill-rule:evenodd" d="m9.75 18c-0.3704 0-0.8618 0.051-1.2188 0.156-0.3569 0.105-0.5104 0.236-0.5312 0.313v0.031l-6.2188 18.5 0.125 0.625 6.0938-18.125v-0.031c0.0208-0.077 0.1743-0.208 0.5312-0.313 0.357-0.105 0.8484-0.156 1.2188-0.156h28c0.25465 0 0.59151 0.07771 0.84375 0.1875s0.39017 0.2262 0.40625 0.28125v0.031l6.625 18.125 0.094-0.656-6.719-18.469v-0.031c-0.016-0.055-0.154-0.172-0.406-0.281-0.252-0.11-0.589-0.188-0.844-0.188z"/>
  <path id="path3912" style="opacity:.4;block-progression:tb;text-indent:0;color:#000000;text-transform:none;fill:#fff" d="m9.5 19.375c-0.3437 0-0.625 0.2813-0.625 0.625s0.2813 0.625 0.625 0.625 0.625-0.2813 0.625-0.625-0.2813-0.625-0.625-0.625zm28 0c-0.3437 0-0.625 0.2813-0.625 0.625s0.2813 0.625 0.625 0.625 0.625-0.2813 0.625-0.625-0.2813-0.625-0.625-0.625zm-33 15c-0.3437 0-0.625 0.2813-0.625 0.625s0.2813 0.625 0.625 0.625 0.625-0.2813 0.625-0.625-0.2813-0.625-0.625-0.625zm38 0c-0.3437 0-0.625 0.2813-0.625 0.625s0.2813 0.625 0.625 0.625 0.625-0.2813 0.625-0.625-0.2813-0.625-0.625-0.625z"/>
  <path id="path3905" style="opacity:.4;block-progression:tb;text-indent:0;color:#000000;text-transform:none" d="m9.5 18.875c-0.3437 0-0.625 0.2813-0.625 0.625s0.2813 0.625 0.625 0.625 0.625-0.2813 0.625-0.625-0.2813-0.625-0.625-0.625zm28 0c-0.3437 0-0.625 0.2813-0.625 0.625s0.2813 0.625 0.625 0.625 0.625-0.2813 0.625-0.625-0.2813-0.625-0.625-0.625zm-33 15c-0.3437 0-0.625 0.2813-0.625 0.625s0.2813 0.625 0.625 0.625 0.625-0.2813 0.625-0.625-0.2813-0.625-0.625-0.625zm38 0c-0.3437 0-0.625 0.2813-0.625 0.625s0.2813 0.625 0.625 0.625 0.625-0.2813 0.625-0.625-0.2813-0.625-0.625-0.625z"/>
  <path id="path3117" d="m9.75 10.5c-0.8098 0-2.035 0.16781-2.2188 0.84375l-6.2812 19.656 1 4.5h43.094l0.90625-4.5312-6.7812-19.625c-0.16-0.548-1.06-0.844-1.719-0.844z" style="fill:url(#linearGradient3150);enable-background:new;fill-rule:evenodd"/>
  <path id="path3119" style="enable-background:new;fill:none" d="m10 10.5c-0.8098 0-2.035 0.16781-2.2188 0.84375l-6.2812 20.125 45 0.031-6.781-20.156c-0.16-0.548-1.06-0.844-1.719-0.844zm36.5 21h-45l1 5h43.094z"/>
  <path id="path3121" style="opacity:0.41;stroke:#000;enable-background:new;fill:none" d="m9.75 10.5c-0.8098 0-2.035 0.16781-2.2188 0.84375l-6.2812 19.656 1 4.5h43.094l0.90625-4.5312-6.7812-19.625c-0.16-0.548-1.06-0.844-1.719-0.844z"/>
  <path id="rect3123" style="opacity:0.41;fill:#fff" d="m2.5 30h43c0.277 0 0.5 0.223 0.5 0.5s-0.223 0.5-0.5 0.5h-43c-0.277 0-0.5-0.223-0.5-0.5s0.223-0.5 0.5-0.5z"/>
  <path id="path3125" d="m9.75 11c-0.3704 0-0.8618 0.051-1.2188 0.156-0.3569 0.105-0.5104 0.236-0.5312 0.313v0.031l-6.2188 19.5 0.125 0.625 6.0938-19.125v-0.031c0.0208-0.077 0.1743-0.208 0.5312-0.313 0.357-0.105 0.8484-0.156 1.2188-0.156h28c0.25465 0 0.59151 0.07771 0.84375 0.1875s0.39017 0.2262 0.40625 0.28125v0.031l6.625 19.125 0.094-0.656-6.719-19.469v-0.031c-0.016-0.055-0.154-0.172-0.406-0.281-0.252-0.11-0.589-0.188-0.844-0.188z" style="opacity:.5;fill:#fff;enable-background:new;fill-rule:evenodd"/>
  <path id="path3127" style="opacity:.4;block-progression:tb;text-indent:0;color:#000000;text-transform:none;fill:#fff" d="m9.5 12.375c-0.3437 0-0.625 0.2813-0.625 0.625s0.2813 0.625 0.625 0.625 0.625-0.2813 0.625-0.625-0.2813-0.625-0.625-0.625zm28 0c-0.3437 0-0.625 0.2813-0.625 0.625s0.2813 0.625 0.625 0.625 0.625-0.2813 0.625-0.625-0.2813-0.625-0.625-0.625zm-33 16c-0.3437 0-0.625 0.2813-0.625 0.625s0.2813 0.625 0.625 0.625 0.625-0.2813 0.625-0.625-0.2813-0.625-0.625-0.625zm38 0c-0.3437 0-0.625 0.2813-0.625 0.625s0.2813 0.625 0.625 0.625 0.625-0.2813 0.625-0.625-0.2813-0.625-0.625-0.625z"/>
  <path id="path3129" d="m9.5 11.875c-0.3437 0-0.625 0.2813-0.625 0.625s0.2813 0.625 0.625 0.625 0.625-0.2813 0.625-0.625-0.2813-0.625-0.625-0.625zm28 0c-0.3437 0-0.625 0.2813-0.625 0.625s0.2813 0.625 0.625 0.625 0.625-0.2813 0.625-0.625-0.2813-0.625-0.625-0.625zm-33 16c-0.3437 0-0.625 0.2813-0.625 0.625s0.2813 0.625 0.625 0.625 0.625-0.2813 0.625-0.625-0.2813-0.625-0.625-0.625zm38 0c-0.3437 0-0.625 0.2813-0.625 0.625s0.2813 0.625 0.625 0.625 0.625-0.2813 0.625-0.625-0.2813-0.625-0.625-0.625z" style="opacity:.4;block-progression:tb;text-indent:0;color:#000000;text-transform:none"/>
  <path id="path3135" style="fill:url(#linearGradient3159);enable-background:new;fill-rule:evenodd" d="m9.75 3.5c-0.8098 0-2.035 0.1678-2.2188 0.8438l-6.2812 20.656 1 4.5h43.094l0.906-4.531-6.781-20.625c-0.16-0.548-1.06-0.844-1.719-0.844z"/>
  <path id="path3137" d="m10 3.5c-0.8098 0-2.035 0.1678-2.2188 0.8438l-6.2812 21.125 45 0.031-6.781-21.156c-0.16-0.548-1.06-0.844-1.719-0.844zm36.5 22h-45l1 5h43.094z" style="enable-background:new;fill:none"/>
  <path id="path3139" d="m9.75 3.5c-0.8098 0-2.035 0.1678-2.2188 0.8438l-6.2812 20.656 1 4.5h43.094l0.906-4.531-6.781-20.625c-0.16-0.548-1.06-0.844-1.719-0.844z" style="opacity:0.41;stroke:#000;enable-background:new;fill:none"/>
  <path id="rect3141" style="opacity:0.41;fill:#fff" d="m2.5 24.125h43c0.277 0 0.5 0.223 0.5 0.5s-0.223 0.5-0.5 0.5h-43c-0.277 0-0.5-0.223-0.5-0.5s0.223-0.5 0.5-0.5z"/>
  <path id="path3143" style="opacity:.5;fill:#fff;enable-background:new;fill-rule:evenodd" d="m9.75 4c-0.3704 0-0.8618 0.0514-1.2188 0.1562-0.3569 0.1049-0.5104 0.2359-0.5312 0.3126v0.0312l-6.2188 20.5 0.125 0.625 6.0938-20.125v-0.0312c0.0208-0.0767 0.1743-0.2077 0.5312-0.3126 0.357-0.1048 0.8484-0.1562 1.2188-0.1562h28c0.25465 0 0.59151 0.07771 0.84375 0.1875 0.252 0.1098 0.39 0.2262 0.406 0.2813v0.0312l6.625 20.125 0.094-0.656-6.719-20.469v-0.0312c-0.016-0.0551-0.154-0.1715-0.406-0.2813s-0.589-0.1875-0.844-0.1875z"/>
  <path id="path3145" style="opacity:.4;block-progression:tb;text-indent:0;color:#000000;text-transform:none;fill:#fff" d="m9.5 5.375c-0.3437 0-0.625 0.2813-0.625 0.625s0.2813 0.625 0.625 0.625 0.625-0.2813 0.625-0.625-0.2813-0.625-0.625-0.625zm28 0c-0.3437 0-0.625 0.2813-0.625 0.625s0.2813 0.625 0.625 0.625 0.625-0.2813 0.625-0.625-0.2813-0.625-0.625-0.625zm-33 17c-0.3437 0-0.625 0.2813-0.625 0.625s0.2813 0.625 0.625 0.625 0.625-0.2813 0.625-0.625-0.2813-0.625-0.625-0.625zm38 0c-0.3437 0-0.625 0.2813-0.625 0.625s0.2813 0.625 0.625 0.625 0.625-0.2813 0.625-0.625-0.2813-0.625-0.625-0.625z"/>
  <path id="path3147" style="opacity:.4;block-progression:tb;text-indent:0;color:#000000;text-transform:none" d="m9.5 4.875c-0.3437 0-0.625 0.2813-0.625 0.625s0.2813 0.625 0.625 0.625 0.625-0.2813 0.625-0.625-0.2813-0.625-0.625-0.625zm28 0c-0.3437 0-0.625 0.2813-0.625 0.625s0.2813 0.625 0.625 0.625 0.625-0.2813 0.625-0.625-0.2813-0.625-0.625-0.625zm-33 17c-0.3437 0-0.625 0.2813-0.625 0.625s0.2813 0.625 0.625 0.625 0.625-0.2813 0.625-0.625-0.2813-0.625-0.625-0.625zm38 0c-0.3437 0-0.625 0.2813-0.625 0.625s0.2813 0.625 0.625 0.625 0.625-0.2813 0.625-0.625-0.2813-0.625-0.625-0.625z"/>
 </g>
</svg>
