<?xml version="1.0" encoding="UTF-8" standalone="no"?>
<!-- Created with Inkscape (http://www.inkscape.org/) -->
<svg id="svg5572" xmlns:rdf="http://www.w3.org/1999/02/22-rdf-syntax-ns#" xmlns="http://www.w3.org/2000/svg" height="48" width="48" version="1.1" xmlns:cc="http://creativecommons.org/ns#" xmlns:xlink="http://www.w3.org/1999/xlink" xmlns:dc="http://purl.org/dc/elements/1.1/">
 <metadata id="metadata33">
  <rdf:RDF>
   <cc:Work rdf:about="">
    <dc:format>image/svg+xml</dc:format>
    <dc:type rdf:resource="http://purl.org/dc/dcmitype/StillImage"/>
    <dc:title/>
   </cc:Work>
  </rdf:RDF>
 </metadata>
 <defs id="defs5574">
  <linearGradient id="linearGradient3200" y2="85.6" gradientUnits="userSpaceOnUse" x2="144.64" gradientTransform="matrix(.29102 0 0 .31054 -18.197 -21.456)" y1="107.6" x1="144.64">
   <stop id="stop5584" style="stop-color:#999ea0" offset="0"/>
   <stop id="stop5586" style="stop-color:#6b7373" offset=".32955"/>
   <stop id="stop5588" style="stop-color:#d8dadb" offset="1"/>
  </linearGradient>
  <radialGradient id="radialGradient3206" gradientUnits="userSpaceOnUse" cy="127.93" cx="117.08" gradientTransform="matrix(.49373 0 0 .29104 -39.345 -26.093)" r="60.606">
   <stop id="stop3602-2" style="stop-color:#f4f4f4" offset="0"/>
   <stop id="stop3604-5" style="stop-color:#dbdbdb" offset="1"/>
  </radialGradient>
  <radialGradient id="radialGradient3209" gradientUnits="userSpaceOnUse" cy="180.69" cx="108.33" gradientTransform="matrix(-.37380 -.037251 -.041029 .41172 79.823 -33.173)" r="31.872">
   <stop id="stop4085-4" style="stop-color:#676767" offset="0"/>
   <stop id="stop4087-9" style="stop-color:#2d2d2d" offset="1"/>
  </radialGradient>
  <radialGradient id="radialGradient3215" gradientUnits="userSpaceOnUse" cy="128.4" cx="144.73" gradientTransform="matrix(.48895 .014634 -.024191 .63790 -43.716 -74.983)" r="12.859">
   <stop id="stop4614-0" style="stop-color:#3d3d3d" offset="0"/>
   <stop id="stop4616-1" style="stop-color:#464646" offset="1"/>
  </radialGradient>
  <linearGradient id="linearGradient3856" y2="-3.8425" gradientUnits="userSpaceOnUse" x2="23.045" y1="21.122" x1="24.167">
   <stop id="stop4060" offset="0"/>
   <stop id="stop4062" style="stop-color:#fff" offset="1"/>
  </linearGradient>
  <radialGradient id="radialGradient3870" gradientUnits="userSpaceOnUse" cy="29.598" cx="28" gradientTransform="matrix(1.0421 .14887 -.34637 2.4246 9.0737 -39.931)" r="11.548">
   <stop id="stop3864" style="stop-color:#fff" offset="0"/>
   <stop id="stop3866" style="stop-color:#fff;stop-opacity:0" offset="1"/>
  </radialGradient>
 </defs>
 <path id="path4068" d="m24.228 1.0443c-2.1375 0.060625-5.9062 1.0548-8.1267 2.6299-1.7511 1.2421-3.601 3.3864-4.2895 5.42-0.82029 2.4231-0.52668 5.1916 0 7.6745 0 0 0.3409 3.1042 0.29926 4.6619-0.10257 3.8374-2.6862 5.0961-2.6088 7.9913 0.12809 4.7945 3.688 11.582 6.905 13.528 7.9169 4.7881 15.905 3.0348 20.905-6.9652 1.2952-2.5904 1.2276-12.163 1.125-16-0.041-1.557-1.437-3.062-1.437-4.562s0-4-0.3023-6.3276c-0.27651-2.1291-2.5383-4.1779-4.2895-5.42-2.2205-1.5751-5.9892-2.5693-8.1267-2.6299-0.01709-0.0004256-0.03633 0.0004256-0.0532 0z" style="opacity:.1;stroke-width:0;color:#000000"/>
 <path id="path4074" d="m24.228 1.5443c-2.1375 0.060625-5.9062 1.0548-8.1267 2.6299-1.7511 1.2421-3.601 3.3864-4.2895 5.42-0.82029 2.4231-0.52668 5.1916 0 7.6745 0 0 0.3409 3.1042 0.29926 4.6619-0.10257 3.8374-2.6862 5.0961-2.6088 7.9913 0.12809 4.7945 3.688 11.582 6.905 13.528 7.9169 4.7881 15.905 3.0348 20.905-6.9652 1.2952-2.5904 1.2276-12.163 1.125-16-0.041-1.557-1.437-3.062-1.437-4.562s0-4-0.3023-6.3276c-0.27651-2.1291-2.5383-4.1779-4.2895-5.42-2.2205-1.5751-5.9892-2.5693-8.1267-2.6299-0.01709-0.0004256-0.03633 0.0004256-0.0532 0z" style="opacity:.05;stroke-width:3;color:#000000;stroke:#000"/>
 <path id="path4072" d="m24.228 1.5443c-2.1375 0.060625-5.9062 1.0548-8.1267 2.6299-1.7511 1.2421-3.601 3.3864-4.2895 5.42-0.82029 2.4231-0.52668 5.1916 0 7.6745 0 0 0.3409 3.1042 0.29926 4.6619-0.10257 3.8374-2.6862 5.0961-2.6088 7.9913 0.12809 4.7945 3.688 11.582 6.905 13.528 7.9169 4.7881 15.905 3.0348 20.905-6.9652 1.2952-2.5904 1.2276-12.163 1.125-16-0.041-1.557-1.437-3.062-1.437-4.562s0-4-0.3023-6.3276c-0.27651-2.1291-2.5383-4.1779-4.2895-5.42-2.2205-1.5751-5.9892-2.5693-8.1267-2.6299-0.01709-0.0004256-0.03633 0.0004256-0.0532 0z" style="opacity:.2;color:#000000;stroke:#000"/>
 <path id="path4066" style="opacity:.1;stroke-width:2;color:#000000;stroke:#000" d="m24.228 1.5443c-2.1375 0.060625-5.9062 1.0548-8.1267 2.6299-1.7511 1.2421-3.601 3.3864-4.2895 5.42-0.82029 2.4231-0.52668 5.1916 0 7.6745 0 0 0.3409 3.1042 0.29926 4.6619-0.10257 3.8374-2.6862 5.0961-2.6088 7.9913 0.12809 4.7945 3.688 11.582 6.905 13.528 7.9169 4.7881 15.905 3.0348 20.905-6.9652 1.2952-2.5904 1.2276-12.163 1.125-16-0.041-1.557-1.437-3.062-1.437-4.562s0-4-0.3023-6.3276c-0.27651-2.1291-2.5383-4.1779-4.2895-5.42-2.2205-1.5751-5.9892-2.5693-8.1267-2.6299-0.01709-0.0004256-0.03633 0.0004256-0.0532 0z"/>
 <path id="use3906-1" style="color:#000000;fill:url(#radialGradient3209)" d="m24.228 0.62246c-2.1375 0.060625-5.9062 1.0548-8.1267 2.6299-1.7511 1.2421-3.601 3.3864-4.2895 5.42-0.82029 2.4231-0.52668 5.1916 0 7.6745 0 0 0.3409 3.1042 0.29926 4.6619-0.102 3.838-2.6857 5.097-2.6084 7.992 0.1281 4.795 3.6884 11.582 6.9054 13.528 7.916 4.788 15.904 3.034 20.904-6.966 1.2952-2.5904 1.2276-12.163 1.125-16-0.041-1.557-1.437-3.062-1.437-4.562s0-4-0.302-6.3276c-0.277-2.1291-2.539-4.1779-4.29-5.42-2.22-1.5751-5.989-2.5693-8.126-2.6299-0.01709-0.0004256-0.03633 0.0004256-0.0532 0z"/>
 <path id="path4010" style="opacity:.1;color:#000000;fill:#fff" d="m24.219 1.1206c-2.073 0.062519-5.7727 1.0888-7.8125 2.5357-1.6652 1.1812-3.4896 3.3105-4.125 5.1875-0.38579 1.1396-0.50815 2.3641-0.46875 3.625 0.03965-0.91172 0.18603-1.7899 0.46875-2.625 0.63543-1.877 2.4598-4.0063 4.125-5.1875 2.0398-1.4469 5.7395-2.4732 7.8125-2.5357 0.02165 0.0005456 0.02225 0.0001079 0.03125 0s0.03565 0.00011 0.03125 0c2.0682 0.058658 5.796 1.0832 7.8438 2.5357 1.7052 1.2096 3.8256 3.2694 4.0625 5.0938 0.1482 1.1411 0.24018 2.3165 0.28125 3.4062-0.025-1.357-0.08-2.865-0.28-4.407-0.237-1.8243-2.358-3.8842-4.063-5.0938-2.048-1.4525-5.776-2.477-7.844-2.5356 0.0044 0.00011-0.02225-0.0001079-0.03125 0s-0.0096 0.0005456-0.03125 0zm12.281 13.879c0.0024 0.31726 0 0.7363 0 1 0 0.9676 0.03657 1.6636 0.53125 2.2812 0.49468 0.61765 0.89096 1.7091 0.90625 2.2812 0.025 0.958 0.048 1.715 0.062 3.188-0.006-1.863-0.031-3.022-0.062-4.188-0.016-0.572-0.412-1.663-0.907-2.281-0.494-0.617-0.531-1.313-0.531-2.281zm-23.906 6.2188c-0.09457 1.9212-0.77397 3.2487-1.4062 4.375-0.654 1.164-1.2227 2.109-1.188 3.406 0.0035 0.13237 0.0221 0.27037 0.03125 0.40625 0.12257-1.0055 0.60775-1.8354 1.1562-2.8125 0.65374-1.1646 1.3833-2.5332 1.4375-4.5625 0.0062-0.23299-0.02361-0.53429-0.03125-0.8125z"/>
 <path id="path3860" d="m13 9c-1 4-0.31067 9.8901 0.99432 12.469 6.7631 13.367 4.3875 21.736 2.7058 20.713 4.6441 2.6842 10.44 3.0771 15.01 0-1.591-0.077-2.242-10.1 2.415-20.838 1.093-2.519 2.022-10.373 1.151-12.778-1.07-2.956-1.276-8.0079-11.276-8.0079-8.891-0.00004-10 4.4419-11 8.4419z" style="opacity:.2;color:#000000;fill:url(#radialGradient3870)"/>
 <path id="path4008" d="m24.228 0.62246c-2.1375 0.060625-5.9062 1.0548-8.1267 2.6299-1.7511 1.2421-3.601 3.3864-4.2895 5.42-0.82029 2.4231-0.52668 5.1916 0 7.6745 0 0 0.3409 3.1042 0.29926 4.6619-0.102 3.838-2.6857 5.097-2.6084 7.992 0.1281 4.795 3.6884 11.582 6.9054 13.528 7.916 4.788 15.904 3.034 20.904-6.966 1.2952-2.5904 1.2276-12.163 1.125-16-0.041-1.557-1.437-3.062-1.437-4.562s0-4-0.302-6.3276c-0.277-2.1291-2.539-4.1779-4.29-5.42-2.22-1.5751-5.989-2.5693-8.126-2.6299-0.01709-0.0004256-0.03633 0.0004256-0.0532 0z" style="opacity:0.61;color:#000000;stroke:#000;fill:none"/>
 <path id="path3896-4" style="color:#000000;fill:url(#radialGradient3206)" d="m13 9c-1 4-0.31067 9.8901 0.99432 12.469 6.7631 13.367 4.3875 21.736 2.7058 20.713 4.6441 2.6842 10.44 3.0771 15.01 0-1.591-0.077-2.242-10.1 2.415-20.838 1.093-2.519 2.022-10.373 1.151-12.778-1.07-2.956-1.276-8.0079-11.276-8.0079-8.891-0.00004-10 4.4419-11 8.4419z"/>
 <path id="path3858" d="m13 9c-1 4-0.31067 9.8901 0.99432 12.469 6.7631 13.367 4.3875 21.736 2.7058 20.713 4.6441 2.6842 10.44 3.0771 15.01 0-1.71-1.682-1.977-10.321 2.415-20.838 1.058-2.534 2.022-10.373 1.151-12.778-1.07-2.956-1.276-8.0079-11.276-8.0079-8.891-0.00004-10 4.4419-11 8.4419z" style="opacity:0.41;color:#000000;stroke:#000;fill:none"/>
 <path id="rect3898-2" style="color:#000000;fill:url(#radialGradient3215)" d="m24.065 0.93306c4.999 1.4207 3.034 7.7128 2.935 12.067l-1 9c-0.49155 4.4548-3.9004 3.2975-4 0l-1-9c0.102-3.2057-1.517-11.929 3.065-12.067z"/>
 <rect id="rect3900-7" style="opacity:.6;stroke-width:1.0991;color:#000000;stroke:#000;fill:url(#linearGradient3200)" rx="1.3675" ry="1.3675" height="8.0259" width="2.735" y="4.4246" x="22.715"/>
 <path id="path4041" style="opacity:.1;block-progression:tb;text-indent:0;color:#000000;text-transform:none;fill:url(#linearGradient3856)" d="m19.656 2.9375c-2.1156 0.93575-4.3313 1.4498-4.9375 3-0.58666 2.5858-1.5168 5.9232-1.0938 9.125 0.04599 1.2817 0.43973 2.456 0.625 3.5312s1.0959 3.795 1.8438 5.7812c0.74784 1.9863 6.281 6.059 4.9375-0.78125-0.993-6.086-1.857-14.632-1.375-20.656zm8.719 0.0625c0.30222 8.1685 0.15566 15.24-1.9688 21.188-0.99653 4.7544 4.2231 3.3188 5.2812 1.1875 1.8685-2.4604 2.5398-7.2034 2.8438-10.5 0.156-6.9741-0.582-10.135-6.156-11.876z"/>
 <path id="path3993" d="m24.065 0.93306c4.935 0.62504 3.034 7.7128 2.935 12.067l-1 9c-0.49155 4.4548-3.9004 3.2975-4 0l-1-9c0.102-3.2057-1.517-11.929 3.065-12.067z" style="opacity:0.41;color:#000000;stroke:#000;fill:none"/>
 <path id="path4023" style="opacity:.1;color:#000000;fill:#fff" d="m11.812 11.531c-0.05958 1.5569 0.17572 3.19 0.5 4.7188v0.03125s0.23482 2.2476 0.28125 3.9375c0.0032-0.06522 0.02947-0.12087 0.03125-0.1875 0.04406-1.6482-0.3125-4.75-0.3125-4.75v-0.03125c-0.25526-1.2034-0.45616-2.4775-0.5-3.7188zm26.032 15.469c-0.05016 1.5889-0.15298 3.1399-0.3125 4.4375s-0.38975 2.3732-0.65625 2.9062c-2.4552 4.9103-5.0843 7.318-8.7188 8.5-3.6344 1.182-7.6413 0.58374-11.5-1.75-1.4581-0.88187-3.1252-3.0131-4.4062-5.5-1.2067-2.3425-2.0702-4.9829-2.2188-7.1875-0.023 0.193-0.0366 0.385-0.031 0.594 0.06091 2.28 0.96894 5.1069 2.25 7.5938s2.9481 4.6181 4.4062 5.5c3.8587 2.3337 7.8656 2.932 11.5 1.75s6.2636-3.5897 8.7188-8.5c0.2665-0.533 0.49673-1.6087 0.65625-2.9062 0.15952-1.2976 0.26234-2.8486 0.3125-4.4375 0.01056-0.33445-0.0068-0.66373 0-1z"/>
</svg>
