<?xml version="1.0" encoding="UTF-8" standalone="no"?>
<!-- Created with Inkscape (http://www.inkscape.org/) -->
<svg id="svg3786" xmlns:rdf="http://www.w3.org/1999/02/22-rdf-syntax-ns#" xmlns="http://www.w3.org/2000/svg" height="48" width="48" version="1.0" xmlns:cc="http://creativecommons.org/ns#" xmlns:xlink="http://www.w3.org/1999/xlink" xmlns:dc="http://purl.org/dc/elements/1.1/">
 <metadata id="metadata39">
  <rdf:RDF>
   <cc:Work rdf:about="">
    <dc:format>image/svg+xml</dc:format>
    <dc:type rdf:resource="http://purl.org/dc/dcmitype/StillImage"/>
    <dc:title/>
   </cc:Work>
  </rdf:RDF>
 </metadata>
 <defs id="defs3788">
  <linearGradient id="linearGradient5060">
   <stop id="stop5062" offset="0"/>
   <stop id="stop5064" style="stop-opacity:0" offset="1"/>
  </linearGradient>
  <linearGradient id="linearGradient3859" y2="15" gradientUnits="userSpaceOnUse" x2="25.25" gradientTransform="translate(-.25 3)" y1="39" x1="25.25">
   <stop id="stop3863" style="stop-color:#2b2b2b" offset="0"/>
   <stop id="stop3865" style="stop-color:#373737" offset=".083474"/>
   <stop id="stop3867" style="stop-color:#1e1e1e" offset=".083474"/>
   <stop id="stop3869" style="stop-color:#444" offset="1"/>
  </linearGradient>
  <linearGradient id="linearGradient3943" y2="24" gradientUnits="userSpaceOnUse" x2="41" y1="13" x1="11">
   <stop id="stop3892" style="stop-color:#fff" offset="0"/>
   <stop id="stop3894" style="stop-color:#fff;stop-opacity:0" offset="1"/>
  </linearGradient>
  <radialGradient id="radialGradient3951" xlink:href="#linearGradient5060" gradientUnits="userSpaceOnUse" cy="486.65" cx="605.71" gradientTransform="matrix(-.044847 0 0 .020588 32.611 31.451)" r="117.14"/>
  <radialGradient id="radialGradient3954" xlink:href="#linearGradient5060" gradientUnits="userSpaceOnUse" cy="486.65" cx="605.71" gradientTransform="matrix(.044847 0 0 .020588 15.389 31.451)" r="117.14"/>
  <linearGradient id="linearGradient3957" y2="609.51" gradientUnits="userSpaceOnUse" x2="302.86" gradientTransform="matrix(.076357 0 0 .020588 -3.5974 31.451)" y1="366.65" x1="302.86">
   <stop id="stop5050" style="stop-opacity:0" offset="0"/>
   <stop id="stop5056" offset=".5"/>
   <stop id="stop5052" style="stop-opacity:0" offset="1"/>
  </linearGradient>
 </defs>
 <g id="g3959">
  <rect id="rect2723" style="opacity:.4;fill:url(#linearGradient3957)" height="5" width="36.869" y="39" x="5.5653"/>
  <path id="path2725" style="opacity:.4;fill:url(#radialGradient3954)" d="m42.417 39v4.9997c2.309 0.009 5.583-1.12 5.583-2.5s-2.577-2.5-5.583-2.5z"/>
  <path id="path2727" style="opacity:.4;fill:url(#radialGradient3951)" d="m5.5833 39v4.9997c-2.3095 0.009-5.5833-1.12-5.5833-2.5s2.5773-2.5 5.5833-2.5z"/>
 </g>
 <path id="rect6431" style="fill:url(#linearGradient3859);enable-background:new;fill-rule:evenodd" d="m9.75 16.5c-0.8098 0-2.035 0.16781-2.2188 0.84375l-6.2812 22.656 1 1.5h43.094l0.90625-1.5312-6.7812-22.625c-0.16-0.548-1.06-0.844-1.719-0.844z"/>
 <path id="path3856" style="enable-background:new;fill:none" d="m10 16.5c-0.8098 0-2.035 0.168-2.2188 0.844l-6.2812 23.125 45 0.031-6.781-23.156c-0.16-0.548-1.06-0.844-1.719-0.844h-28zm36.5 24h-45l1 2h43.094l0.906-2z"/>
 <path id="path3873" d="m9.75 16.5c-0.8098 0-2.035 0.16781-2.2188 0.84375l-6.2812 22.656 1 1.5h43.094l0.90625-1.5312-6.7812-22.625c-0.16-0.548-1.06-0.844-1.719-0.844z" style="opacity:.61;stroke:#000;enable-background:new;fill:none"/>
 <rect id="rect3875" style="opacity:.21;fill:#fff" ry=".5" height="1" width="44" y="39" x="2"/>
 <path id="path3907" style="opacity:.5;enable-background:new;fill-rule:evenodd" d="m9.5 18.531-4.7812 18.969h38.031l-5.016-19z"/>
 <path id="path3874" style="opacity:.2;fill:url(#linearGradient3943);enable-background:new;fill-rule:evenodd" d="m9.75 17c-0.3704 0-0.8618 0.051-1.2188 0.156-0.3569 0.105-0.5104 0.236-0.5312 0.313l-5.9688 21.531h10.438c8.94-4.52 19.359-9.94 28.562-14.781l-2.031-6.719v-0.031c-0.016-0.055-0.154-0.172-0.406-0.281-0.252-0.11-0.589-0.188-0.844-0.188h-28z"/>
 <rect id="rect3946" style="opacity:.6" ry="0" height="1" width="4" y="40" x="21"/>
 <rect id="rect3948" style="opacity:.6" ry="0" height="1" width="1" y="40" x="42"/>
</svg>
