<?xml version="1.0" encoding="UTF-8" standalone="no"?>
<!-- Created with Inkscape (http://www.inkscape.org/) -->
<svg id="svg4032" xmlns:rdf="http://www.w3.org/1999/02/22-rdf-syntax-ns#" xmlns="http://www.w3.org/2000/svg" height="48" width="48" version="1.1" xmlns:cc="http://creativecommons.org/ns#" xmlns:xlink="http://www.w3.org/1999/xlink" xmlns:dc="http://purl.org/dc/elements/1.1/">
 <metadata id="metadata41">
  <rdf:RDF>
   <cc:Work rdf:about="">
    <dc:format>image/svg+xml</dc:format>
    <dc:type rdf:resource="http://purl.org/dc/dcmitype/StillImage"/>
    <dc:title/>
   </cc:Work>
  </rdf:RDF>
 </metadata>
 <defs id="defs4034">
  <linearGradient id="linearGradient10691-1">
   <stop id="stop10693-3" offset="0"/>
   <stop id="stop10695-1" style="stop-opacity:0" offset="1"/>
  </linearGradient>
  <linearGradient id="linearGradient3811" y2="2" gradientUnits="userSpaceOnUse" x2="15" gradientTransform="translate(3,-1)" y1="24.619" x1="15">
   <stop id="stop3864-8-6-4" style="stop-color:#261e2b" offset="0"/>
   <stop id="stop3866-9-1-86" style="stop-color:#352f39" offset="1"/>
  </linearGradient>
  <linearGradient id="linearGradient3856" y2="2" gradientUnits="userSpaceOnUse" x2="15" gradientTransform="matrix(1 0 0 -1 3 26)" y1="24.619" x1="15">
   <stop id="stop3841" style="stop-color:#e3e3e3" offset="0"/>
   <stop id="stop3844" style="stop-color:#a2a2a2" offset="1"/>
  </linearGradient>
  <linearGradient id="linearGradient3887" y2="12" gradientUnits="userSpaceOnUse" x2="20" gradientTransform="translate(3,-1)" y1="-3" x1="10">
   <stop id="stop3883" style="stop-color:#fff" offset="0"/>
   <stop id="stop3885" style="stop-color:#fff;stop-opacity:0" offset="1"/>
  </linearGradient>
  <linearGradient id="linearGradient6429" y2="93.069" gradientUnits="userSpaceOnUse" y1="83.457" gradientTransform="matrix(1.2916 0 0 .70415 -389.23 -40.048)" x2="320.28" x1="320.28">
   <stop id="stop3949" style="stop-color:#4e4e4e" offset="0"/>
   <stop id="stop3951" style="stop-color:#aeaead" offset=".51385"/>
   <stop id="stop3953" style="stop-color:#dfdfdf" offset=".62803"/>
   <stop id="stop3955" style="stop-color:#fff" offset=".77233"/>
   <stop id="stop3957" style="stop-color:#a2a2a2" offset="1"/>
  </linearGradient>
  <radialGradient id="radialGradient3919" xlink:href="#linearGradient10691-1" gradientUnits="userSpaceOnUse" cy="73.616" cx="6.7027" gradientTransform="matrix(3.0435 0 0 .38044 3.6 -1.1316)" r="7.2284"/>
  <radialGradient id="radialGradient3921" xlink:href="#linearGradient10691-1" gradientUnits="userSpaceOnUse" cy="73.296" cx="8.0738" gradientTransform="matrix(1.712 0 0 .38044 11.15 .24342)" r="7.2284"/>
 </defs>
 <g id="layer1" transform="translate(0,16)">
  <g id="g3915" transform="translate(0,-2)">
   <path id="path4220" style="opacity:.1;fill:url(#radialGradient3919)" d="m46 26.875c0 1.5188-9.8497 2.75-22 2.75s-22-1.231-22-2.75 9.85-2.75 22-2.75 22 1.231 22 2.75z"/>
   <path id="path2589" style="opacity:.3;fill:url(#radialGradient3921)" d="m35 28.25c0 1.519-3.478 2.75-10.312 2.75-6.835 0-11.688-1.231-11.688-2.75s4.853-2.75 11.688-2.75c6.834 0 10.312 1.231 10.312 2.75z"/>
  </g>
  <path id="path2682-8" style="enable-background:new;fill:url(#linearGradient6429)" d="m17.506 18.044v4.929c-0.0286 1.2689-4.6167 1.5499-4.6167 1.5499-2.0792-0.0678-1.7563 2.0549 0.125 1.9708h21.965c2.1686 0.1353 1.9879-2.0352 0-1.9708 0 0-4.3306-0.28108-4.3591-1.5499v-4.929z"/>
  <path id="path3903" style="opacity:.41;stroke-linejoin:round;stroke-dashoffset:0.5;stroke:#000;stroke-linecap:round;enable-background:new;fill:none" d="m17.506 18.044v4.929c-0.0286 1.2689-4.6167 1.5499-4.6167 1.5499-2.0792-0.0678-1.7563 2.0549 0.125 1.9708h21.965c2.1686 0.1353 1.9879-2.0352 0-1.9708 0 0-4.3306-0.28108-4.3591-1.5499v-4.929z"/>
  <path id="rect3854" style="fill:url(#linearGradient3856)" d="m2.1889 19.5h43.622c0.38165 0 0.68889-0.29733 0.68889-0.66666v-28.666c0-0.36933-0.30725-0.66666-0.68889-0.66666h-43.622c-0.38165 0-0.68889 0.29733-0.68889 0.66666v28.666c0 0.36933 0.30725 0.66666 0.68889 0.66666z"/>
  <path id="rect3889" style="fill:#2b2b2b" d="m39 18h5v1.5h-5z"/>
  <path id="rect2722" style="fill:url(#linearGradient3811)" d="m3-9h42v25h-42z"/>
  <path id="rect3872" style="opacity:.2;fill:url(#linearGradient3887)" d="m3-9v20l42-15.125v-4.875z"/>
  <path id="rect3803" style="opacity:.41;stroke-linejoin:round;stroke-dashoffset:0.5;stroke:#000;stroke-linecap:round;fill:none" d="m2.1889-10.5h43.622c0.38165 0 0.68889 0.29733 0.68889 0.66666v28.666c0 0.36933-0.30725 0.66666-0.68889 0.66666h-43.622c-0.38165 0-0.68889-0.29733-0.68889-0.66666v-28.666c0-0.36933 0.30725-0.66666 0.68889-0.66666z"/>
  <path id="rect3815" style="opacity:.1;fill:#fff" d="m2.1875-10c-0.122 0-0.1875 0.0642-0.1875 0.1562v1c0-0.092 0.0655-0.1562 0.1875-0.1562h43.625c0.122 0 0.188 0.0642 0.188 0.1562v-1c0-0.092-0.066-0.1562-0.188-0.1562z"/>
  <path id="rect3868" style="opacity:.6;fill:#fff" d="m3 16h42v1h-42z"/>
  <path id="rect3870" style="opacity:.2" d="m3-9h42v1h-42z"/>
  <rect id="rect2694-8" style="opacity:.8;enable-background:new;fill:#fff" rx=".47825" ry=".47825" height=".95650" width="23.695" y="25.044" x="12.153"/>
  <path id="path3942" style="opacity:.2" d="m3-9v25h42v-25zm1 1h40v23h-40z"/>
 </g>
</svg>
