<svg xmlns="http://www.w3.org/2000/svg" viewBox="0 0 256 256" xmlns:xlink="http://www.w3.org/1999/xlink"><g transform="translate(0 -796.36)"><path d="m 193.83 817.84 c 225.34 191.12 -237.98 374.9 -190.37 79.31 10.438 -64.81 129.65 -130.81 190.37 -79.31 z" style="fill:#fff;color:#000"/><g transform="matrix(9.90927 0 0 9.8474 -120.39 704.77)" style="fill:#ff4500"><path d="m 18.312 18 c -0.316 0.032 -0.312 0.168 -0.312 0.688 v 5.312 c 0 -1.105 0.895 -2 2 -2 1.105 0 2 0.895 2 2 0 1.105 -0.895 2 -2 2 -1.105 0 -2 -0.895 -2 -2 v 5.25 c 0 0.753 0 0.75 0.75 0.75 h 5.25 c -1.105 0 -2 -0.895 -2 -2 0 -1.105 0.895 -2 2 -2 1.105 0 2 0.895 2 2 0 1.105 -0.895 2 -2 2 h 5.25 c 0.753 0 0.75 0 0.75 -0.75 v -10.5 c 0 -0.753 0 -0.75 -0.75 -0.75 h -10.5 c -0.188 0 -0.332 -0.011 -0.438 0 z"/><path transform="matrix(1.3333 0 0 1.4048 -6 -10.679)" d="m 24 18.992 c 0 0.786 -0.672 1.424 -1.5 1.424 -0.828 0 -1.5 -0.637 -1.5 -1.424 0 -0.786 0.672 -1.424 1.5 -1.424 0.828 0 1.5 0.637 1.5 1.424 z" id="0"/><use transform="translate(8 8)" xlink:href="#0"/></g></g></svg>