<svg xmlns="http://www.w3.org/2000/svg" viewBox="0 0 256 256"><g transform="translate(0 -796.36)" style="fill:#f5f5f5"><path d="m 3.25 953.66 c 49.981 239.91 393.86 -17.642 187.29 -139.59 -80.25 -52.27 -213 16.2 -187.29 139.59 z" style="fill:#fff;color:#000"/><path d="m 59.51 192.35 c -0.099 -0.258 -0.536 -0.469 -0.971 -0.469 -0.635 0 -0.791 -0.154 -0.791 -0.781 0 -0.486 -0.177 -0.781 -0.469 -0.781 -0.415 0 -0.469 -6.701 -0.469 -58.44 0 -51.736 0.054 -58.44 0.469 -58.44 0.258 0 0.469 -0.211 0.469 -0.469 0 -0.258 0.211 -0.469 0.469 -0.469 0.258 0 0.469 -0.211 0.469 -0.469 0 -0.258 0.211 -0.469 0.469 -0.469 0.258 0 0.469 -0.211 0.469 -0.469 0 -0.415 6.545 -0.469 57.03 -0.469 50.49 0 57.03 0.054 57.03 0.469 0 0.313 0.313 0.469 0.938 0.469 0.833 0 0.938 0.104 0.938 0.938 0 0.625 0.156 0.938 0.469 0.938 0.415 0 0.469 6.701 0.469 58.44 0 51.736 -0.054 58.44 -0.469 58.44 -0.288 0 -0.469 0.292 -0.469 0.756 0 0.586 -0.211 0.803 -0.938 0.962 -0.516 0.113 -0.938 0.335 -0.938 0.494 0 0.174 -22.487 0.288 -56.998 0.288 -50.38 0 -57.02 -0.054 -57.18 -0.469 z m 15.11 -50 c 0 -0.395 0.712 -0.469 4.531 -0.469 3.819 0 4.531 -0.074 4.531 -0.469 0 -0.36 0.399 -0.469 1.719 -0.469 1.319 0 1.719 -0.109 1.719 -0.469 0 -0.36 0.399 -0.469 1.719 -0.469 0.945 0 1.719 -0.141 1.719 -0.313 0 -0.174 0.833 -0.313 1.875 -0.313 1.373 0 1.875 -0.114 1.875 -0.425 0 -0.287 0.575 -0.484 1.768 -0.607 0.972 -0.1 1.851 -0.312 1.953 -0.47 0.102 -0.158 0.502 -0.387 0.889 -0.507 0.387 -0.121 0.703 -0.332 0.703 -0.47 0 -0.138 0.595 -0.33 1.321 -0.428 0.727 -0.097 1.371 -0.327 1.432 -0.51 0.061 -0.183 0.511 -0.333 1 -0.333 0.489 0 1.096 -0.207 1.349 -0.46 0.253 -0.253 1.037 -0.552 1.741 -0.665 0.705 -0.113 1.281 -0.327 1.281 -0.477 0 -0.15 0.211 -0.273 0.469 -0.273 0.258 0 0.469 -0.211 0.469 -0.469 0 -0.339 0.347 -0.469 1.25 -0.469 0.903 0 1.25 -0.13 1.25 -0.469 0 -0.347 0.365 -0.469 1.406 -0.469 1.042 0 1.406 -0.122 1.406 -0.469 0 -0.313 0.313 -0.469 0.938 -0.469 0.625 0 0.938 0.156 0.938 0.469 0 0.258 0.141 0.469 0.313 0.469 0.172 0 0.313 0.211 0.313 0.469 0 0.258 0.211 0.469 0.469 0.469 0.313 0 0.469 0.313 0.469 0.938 0 0.625 0.156 0.938 0.469 0.938 0.277 0 0.471 0.288 0.473 0.703 0.01 1.7 0.32 2.109 1.595 2.109 0.755 0 1.219 -0.147 1.227 -0.391 0.007 -0.215 0.429 -0.736 0.938 -1.157 0.508 -0.422 0.924 -0.949 0.924 -1.172 0 -0.223 0.138 -0.405 0.307 -0.405 0.169 0 0.395 -0.352 0.503 -0.781 0.108 -0.43 0.392 -0.781 0.631 -0.781 0.239 0 0.435 -0.211 0.435 -0.469 0 -0.258 0.141 -0.469 0.313 -0.469 0.172 0 0.313 -0.211 0.313 -0.469 0 -0.258 0.211 -0.469 0.469 -0.469 0.258 0 0.469 -0.211 0.469 -0.469 0 -0.258 0.211 -0.469 0.469 -0.469 0.313 0 0.469 -0.313 0.469 -0.938 0 -0.516 0.152 -0.938 0.338 -0.938 0.186 0 1.181 -0.844 2.213 -1.875 1.031 -1.031 2.075 -1.875 2.319 -1.875 0.244 0 0.444 -0.141 0.444 -0.313 0 -0.172 0.211 -0.313 0.469 -0.313 0.258 0 0.469 -0.211 0.469 -0.469 0 -0.364 0.414 -0.469 1.853 -0.469 1.23 0 2.01 -0.158 2.321 -0.469 0.382 -0.382 1.515 -0.469 6.138 -0.469 4.623 0 5.756 0.087 6.138 0.469 0.302 0.302 1.074 0.469 2.165 0.469 0.933 0 1.696 0.128 1.696 0.285 0 0.157 0.598 0.385 1.328 0.507 0.73 0.122 1.419 0.365 1.529 0.539 0.111 0.174 0.95 0.389 1.866 0.477 0.915 0.088 1.855 0.35 2.087 0.582 0.232 0.232 1.045 0.422 1.806 0.422 0.761 0 1.384 0.129 1.384 0.288 0 0.158 0.422 0.38 0.938 0.494 0.516 0.113 0.938 0.317 0.938 0.454 0 0.136 0.563 0.338 1.25 0.448 0.688 0.11 1.25 0.339 1.25 0.509 0 0.17 0.633 0.309 1.406 0.309 1.042 0 1.406 0.122 1.406 0.469 0 0.258 0.211 0.469 0.469 0.469 0.292 0 0.469 -0.295 0.469 -0.781 0 -0.43 0.141 -0.781 0.313 -0.781 0.206 0 0.313 -8.75 0.313 -25.625 0 -16.875 -0.107 -25.625 -0.313 -25.625 -0.172 0 -0.313 -0.282 -0.313 -0.626 0 -0.624 -0.157 -0.626 -55.39 -0.547 l -55.39 0.079 l -0.08 33.828 l -0.08 33.828 h 6.72 c 5.765 0 6.72 -0.067 6.72 -0.469 z" transform="translate(0 796.36)" style="fill:#ff4500;fill-rule:evenodd"/></g></svg>