<svg xmlns="http://www.w3.org/2000/svg" viewBox="0 0 256 256"><g transform="translate(0 -796.36)"><path d="m 209.84 834.36 c 198.6 265.32 -347.95 303.01 -172.55 32.18 39.986 -61.744 119.95 -102.45 172.55 -32.18 z" style="fill:#fff;color:#000"/><g style="fill:#ff4500;fill-rule:evenodd"><path d="m 87.94 1003.7 v -1.073 h -1.165 h -1.165 v -1.192 v -1.192 h -1.165 c -1.087 0 -1.165 -0.04 -1.165 -0.596 0 -0.477 -0.116 -0.596 -0.582 -0.596 -0.466 0 -0.582 -0.119 -0.582 -0.596 0 -0.437 -0.124 -0.596 -0.466 -0.596 -0.311 0 -0.466 -0.159 -0.466 -0.477 0 -0.413 -0.155 -0.477 -1.165 -0.477 -1.087 0 -1.165 -0.04 -1.165 -0.596 0 -0.477 -0.116 -0.596 -0.582 -0.596 -0.466 0 -0.582 -0.119 -0.582 -0.596 0 -0.557 -0.078 -0.596 -1.165 -0.596 -1.087 0 -1.165 -0.04 -1.165 -0.596 0 -0.437 -0.124 -0.596 -0.466 -0.596 -0.342 0 -0.466 -0.159 -0.466 -0.596 0 -0.472 -0.118 -0.596 -0.566 -0.596 -0.41 0 -0.587 -0.148 -0.641 -0.537 -0.064 -0.458 -0.237 -0.547 -1.181 -0.609 -0.999 -0.066 -1.107 -0.129 -1.107 -0.656 0 -0.463 -0.12 -0.583 -0.582 -0.583 -0.427 0 -0.582 -0.127 -0.582 -0.477 0 -0.35 -0.155 -0.477 -0.582 -0.477 -0.466 0 -0.582 -0.119 -0.582 -0.596 0 -0.548 0.085 -0.596 1.048 -0.596 0.963 0 1.048 0.049 1.048 0.596 0 0.557 0.078 0.596 1.165 0.596 1.087 0 1.165 0.04 1.165 0.596 0 0.477 0.116 0.596 0.582 0.596 0.466 0 0.582 0.119 0.582 0.596 0 0.477 0.116 0.596 0.582 0.596 0.466 0 0.582 0.119 0.582 0.596 0 0.556 0.078 0.596 1.165 0.596 1.01 0 1.165 0.064 1.165 0.477 0 0.35 0.155 0.477 0.582 0.477 0.466 0 0.582 0.119 0.582 0.596 0 0.437 0.124 0.596 0.466 0.596 0.342 0 0.466 0.159 0.466 0.596 0 0.556 0.078 0.596 1.165 0.596 1.087 0 1.165 0.04 1.165 0.596 0 0.477 0.116 0.596 0.582 0.596 0.469 0 0.582 0.118 0.582 0.609 0 0.578 0.057 0.606 1.107 0.537 l 1.107 -0.073 l 0.068 -1.729 c 0.068 -1.712 0.062 -1.729 -0.524 -1.729 h -0.593 v -2.385 c 0 -2.385 0 -2.385 -0.582 -2.385 -0.427 0 -0.582 -0.127 -0.582 -0.477 0 -0.35 -0.155 -0.477 -0.582 -0.477 -0.544 0 -0.582 -0.08 -0.582 -1.193 0 -1.022 -0.065 -1.193 -0.453 -1.193 -0.375 0 -0.465 -0.195 -0.524 -1.133 l -0.071 -1.133 l -1.107 -0.073 c -0.999 -0.066 -1.107 -0.129 -1.107 -0.656 0 -0.463 -0.12 -0.583 -0.582 -0.583 -0.535 0 -0.582 -0.087 -0.582 -1.073 0 -0.986 -0.047 -1.073 -0.582 -1.073 -0.466 0 -0.582 -0.119 -0.582 -0.596 0 -0.477 -0.116 -0.596 -0.582 -0.596 -0.427 0 -0.582 -0.127 -0.582 -0.477 0 -0.313 -0.155 -0.477 -0.45 -0.477 -0.318 0 -0.472 -0.193 -0.524 -0.656 -0.053 -0.47 -0.223 -0.678 -0.598 -0.732 -0.379 -0.055 -0.524 -0.236 -0.524 -0.656 0 -0.459 -0.121 -0.58 -0.582 -0.58 -0.427 0 -0.582 -0.127 -0.582 -0.477 0 -0.35 -0.155 -0.477 -0.582 -0.477 -0.466 0 -0.582 -0.119 -0.582 -0.596 0 -0.477 -0.116 -0.596 -0.582 -0.596 -0.466 0 -0.582 -0.119 -0.582 -0.596 0 -0.477 -0.116 -0.596 -0.582 -0.596 -0.466 0 -0.582 -0.119 -0.582 -0.596 0 -0.477 -0.116 -0.596 -0.582 -0.596 -0.466 0 -0.582 -0.119 -0.582 -0.596 0 -0.437 -0.124 -0.596 -0.466 -0.596 -0.342 0 -0.466 -0.159 -0.466 -0.596 0 -0.477 -0.116 -0.596 -0.582 -0.596 -0.466 0 -0.582 -0.119 -0.582 -0.596 0 -0.477 -0.116 -0.596 -0.582 -0.596 -0.427 0 -0.582 -0.127 -0.582 -0.477 0 -0.35 -0.155 -0.477 -0.582 -0.477 -0.466 0 -0.582 -0.119 -0.582 -0.596 0 -0.477 -0.116 -0.596 -0.582 -0.596 -0.535 0 -0.582 -0.087 -0.582 -1.073 0 -0.986 -0.047 -1.073 -0.582 -1.073 -0.492 0 -0.582 -0.111 -0.582 -0.716 0 -0.686 -0.042 -0.716 -1.022 -0.716 h -1.022 l -0.157 -1.073 l -0.157 -1.073 h -1.034 h -1.034 v -1.192 c 0 -1.113 0.039 -1.193 0.582 -1.193 0.535 0 0.582 -0.087 0.582 -1.073 0 -0.914 0.069 -1.073 0.466 -1.073 0.412 0 0.466 0.16 0.468 1.371 0.002 0.754 0.068 1.774 0.147 2.266 0.141 0.874 0.167 0.894 1.162 0.894 0.93 0 1.018 0.051 1.018 0.596 0 0.477 0.116 0.596 0.582 0.596 0.533 0 0.582 0.089 0.582 1.046 v 1.046 l 1.048 0.161 c 0.828 0.127 1.048 0.258 1.048 0.623 0 0.329 0.161 0.462 0.561 0.462 0.496 0 0.579 0.137 0.721 1.192 0.142 1.055 0.225 1.193 0.721 1.193 0.399 0 0.561 0.133 0.561 0.462 0 0.365 0.22 0.496 1.048 0.623 l 1.048 0.161 v 1.046 c 0 0.957 0.05 1.046 0.582 1.046 0.466 0 0.582 0.119 0.582 0.596 0 0.437 0.124 0.596 0.466 0.596 0.342 0 0.466 0.159 0.466 0.596 0 0.477 0.116 0.596 0.582 0.596 0.466 0 0.582 0.119 0.582 0.596 0 0.477 0.116 0.596 0.582 0.596 0.466 0 0.582 0.119 0.582 0.596 0 0.477 0.116 0.596 0.582 0.596 0.466 0 0.582 0.119 0.582 0.596 0 0.477 0.116 0.596 0.582 0.596 0.466 0 0.582 0.119 0.582 0.596 0 0.477 0.116 0.596 0.582 0.596 0.466 0 0.582 0.119 0.582 0.596 0 0.477 0.116 0.596 0.582 0.596 0.427 0 0.582 0.127 0.582 0.477 0 0.318 0.155 0.477 0.466 0.477 0.342 0 0.466 0.159 0.466 0.596 0 0.554 0.08 0.596 1.135 0.596 h 1.135 l 0.151 -0.968 c 0.175 -1.122 0.056 -1.417 -0.571 -1.417 -0.411 0 -0.452 -0.18 -0.455 -1.968 -0.004 -2.794 -0.19 -3.756 -0.727 -3.756 -0.309 0 -0.435 -0.173 -0.435 -0.596 0 -0.477 -0.116 -0.596 -0.582 -0.596 h -0.582 v -3.458 v -3.458 h -0.582 c -0.569 0 -0.582 -0.04 -0.582 -1.789 0 -1.749 -0.013 -1.789 -0.582 -1.789 -0.427 0 -0.582 -0.127 -0.582 -0.477 0 -0.318 -0.155 -0.477 -0.466 -0.477 -0.404 0 -0.466 -0.159 -0.466 -1.192 0 -1.113 -0.039 -1.193 -0.582 -1.193 -0.544 0 -0.582 -0.08 -0.582 -1.192 0 -1.098 -0.044 -1.193 -0.556 -1.193 -0.48 0 -0.577 -0.146 -0.713 -1.073 -0.137 -0.935 -0.231 -1.073 -0.725 -1.073 -0.451 0 -0.568 -0.123 -0.568 -0.596 0 -0.437 -0.124 -0.596 -0.466 -0.596 -0.342 0 -0.466 -0.159 -0.466 -0.596 v -0.596 h -2.795 c -2.64 0 -2.795 -0.026 -2.795 -0.477 0 -0.35 0.155 -0.477 0.582 -0.477 0.466 0 0.582 -0.119 0.582 -0.596 0 -0.579 0.047 -0.596 1.631 -0.596 1.579 0 1.631 -0.019 1.631 -0.589 v -0.589 l 2.854 -0.067 c 2.759 -0.065 2.856 -0.085 2.928 -0.604 0.048 -0.345 0.235 -0.537 0.524 -0.537 0.324 0 0.45 -0.166 0.45 -0.596 0 -0.477 0.116 -0.596 0.582 -0.596 0.58 0 0.582 -0.008 0.582 -2.266 0 -2.258 0.002 -2.266 0.582 -2.266 0.569 0 0.582 -0.04 0.582 -1.789 0 -1.749 0.013 -1.789 0.582 -1.789 0.466 0 0.582 -0.119 0.582 -0.596 0 -0.477 0.116 -0.596 0.582 -0.596 0.535 0 0.582 -0.087 0.582 -1.073 0 -0.986 0.047 -1.073 0.582 -1.073 0.427 0 0.582 0.127 0.582 0.477 0 0.318 0.155 0.477 0.466 0.477 0.342 0 0.466 0.159 0.466 0.596 0 0.477 0.116 0.596 0.582 0.596 0.466 0 0.582 0.119 0.582 0.596 0 0.477 0.116 0.596 0.582 0.596 0.466 0 0.582 0.119 0.582 0.596 0 0.43 0.125 0.596 0.45 0.596 0.289 0 0.476 0.192 0.524 0.537 0.064 0.458 0.237 0.547 1.181 0.609 0.999 0.066 1.107 0.129 1.107 0.656 0 0.463 0.12 0.583 0.582 0.583 0.466 0 0.582 0.119 0.582 0.596 0 0.477 0.116 0.596 0.582 0.596 0.427 0 0.582 0.127 0.582 0.477 0 0.35 0.155 0.477 0.582 0.477 0.466 0 0.582 0.119 0.582 0.596 0 0.477 0.116 0.596 0.582 0.596 0.466 0 0.582 0.119 0.582 0.596 0 0.548 0.085 0.596 1.048 0.596 0.963 0 1.048 0.049 1.048 0.596 0 0.477 0.116 0.596 0.582 0.596 0.466 0 0.582 0.119 0.582 0.596 0 0.477 0.116 0.596 0.582 0.596 0.466 0 0.582 0.119 0.582 0.596 0 0.556 0.078 0.596 1.165 0.596 1.087 0 1.165 0.04 1.165 0.596 0 0.548 0.085 0.596 1.048 0.596 0.893 0 1.048 0.071 1.048 0.477 0 0.371 0.155 0.477 0.699 0.477 0.59 0 0.699 0.093 0.699 0.596 v 0.596 h 2.795 h 2.795 v 0.596 c 0 0.579 0.047 0.596 1.631 0.596 1.584 0 1.631 -0.017 1.631 -0.596 0 -0.477 -0.116 -0.596 -0.582 -0.596 -0.466 0 -0.582 -0.119 -0.582 -0.596 0 -0.432 -0.125 -0.596 -0.453 -0.596 -0.375 0 -0.465 -0.195 -0.524 -1.133 -0.06 -0.957 -0.15 -1.144 -0.581 -1.207 -0.318 -0.046 -0.537 -0.271 -0.582 -0.596 -0.061 -0.441 -0.245 -0.533 -1.179 -0.595 -0.999 -0.066 -1.107 -0.129 -1.107 -0.656 0 -0.463 -0.12 -0.583 -0.582 -0.583 -0.535 0 -0.582 -0.087 -0.582 -1.073 0 -0.986 -0.047 -1.073 -0.582 -1.073 -0.466 0 -0.582 -0.119 -0.582 -0.596 0 -0.545 -0.087 -0.596 -1.022 -0.596 h -1.022 l -0.157 -1.073 c -0.122 -0.833 -0.255 -1.073 -0.593 -1.073 -0.303 0 -0.459 -0.201 -0.51 -0.656 -0.067 -0.601 -0.167 -0.662 -1.18 -0.729 -0.916 -0.06 -1.107 -0.152 -1.107 -0.537 0 -0.336 -0.161 -0.464 -0.582 -0.464 -0.544 0 -0.582 -0.08 -0.582 -1.193 v -1.192 h -1.048 c -0.963 0 -1.048 -0.048 -1.048 -0.596 0 -0.469 -0.118 -0.596 -0.556 -0.596 -0.48 0 -0.577 -0.146 -0.713 -1.073 -0.124 -0.848 -0.252 -1.073 -0.609 -1.073 -0.326 0 -0.452 -0.165 -0.452 -0.596 0 -0.556 -0.078 -0.596 -1.165 -0.596 h -1.165 v -1.192 v -1.192 h -2.213 c -2.058 0 -2.213 -0.034 -2.213 -0.477 0 -0.413 0.155 -0.477 1.165 -0.477 1.087 0 1.165 -0.04 1.165 -0.596 0 -0.437 0.124 -0.596 0.466 -0.596 0.342 0 0.466 -0.159 0.466 -0.596 0 -0.583 0.039 -0.596 1.747 -0.596 1.708 0 1.747 -0.013 1.747 -0.596 v -0.596 l 3.553 -0.002 c 4.359 -0.003 5.3 -0.135 5.3 -0.744 0 -0.396 0.196 -0.446 1.747 -0.446 1.708 0 1.747 0.013 1.747 0.596 v 0.596 h 4.426 h 4.426 v 0.596 c 0 0.596 0 0.596 2.33 0.596 2.33 0 2.33 0 2.33 0.596 0 0.557 0.078 0.596 1.165 0.596 1.087 0 1.165 0.04 1.165 0.596 v 0.596 h 2.795 c 2.64 0 2.795 0.026 2.795 0.477 0 0.451 0.155 0.477 2.795 0.477 h 2.795 v 0.596 c 0 0.583 0.039 0.596 1.747 0.596 h 1.747 v -2.117 c 0 -2.774 -0.168 -3.607 -0.728 -3.607 -0.311 0 -0.437 -0.172 -0.437 -0.596 0 -0.477 -0.116 -0.596 -0.582 -0.596 h -0.582 v -2.981 v -2.981 h -0.582 c -0.58 0 -0.582 -0.008 -0.582 -2.266 0 -2.096 -0.034 -2.266 -0.459 -2.266 -0.433 0 -0.463 -0.197 -0.524 -3.399 -0.062 -3.269 -0.084 -3.401 -0.564 -3.472 -0.396 -0.058 -0.532 -0.292 -0.655 -1.133 -0.122 -0.835 -0.251 -1.06 -0.607 -1.06 -0.417 0 -0.452 -0.184 -0.452 -2.385 0 -2.385 0 -2.385 -0.582 -2.385 h -0.582 v -6.32 v -6.32 h 0.582 c 0.534 0 0.582 -0.088 0.582 -1.06 v -1.06 l 1.107 -0.073 c 0.944 -0.062 1.117 -0.151 1.181 -0.609 0.048 -0.345 0.235 -0.537 0.524 -0.537 0.322 0 0.45 -0.166 0.45 -0.586 0 -0.562 0.069 -0.589 1.689 -0.656 1.55 -0.064 1.695 -0.114 1.763 -0.607 0.064 -0.464 0.214 -0.537 1.107 -0.537 0.946 0 1.032 0.05 1.032 0.596 0 0.583 0.039 0.596 1.747 0.596 1.708 0 1.747 0.013 1.747 0.596 0 0.477 0.116 0.596 0.582 0.596 0.466 0 0.582 0.119 0.582 0.596 0 0.594 0.008 0.596 2.213 0.596 2.058 0 2.213 0.034 2.213 0.477 0 0.432 0.155 0.477 1.631 0.477 1.584 0 1.631 0.017 1.631 0.596 0 0.596 0 0.596 2.33 0.596 2.33 0 2.33 0 2.33 -0.596 0 -0.477 -0.116 -0.596 -0.582 -0.596 -0.466 0 -0.582 -0.119 -0.582 -0.596 0 -0.437 -0.124 -0.596 -0.466 -0.596 -0.44 0 -0.466 -0.159 -0.466 -2.862 v -2.862 h -0.582 h -0.582 v -2.862 c 0 -2.846 -0.003 -2.862 -0.548 -2.862 -0.514 0 -0.557 -0.112 -0.698 -1.815 -0.082 -0.998 -0.083 -2.555 -0.001 -3.458 0.121 -1.338 0.224 -1.643 0.551 -1.643 0.42 0 0.688 -0.992 0.693 -2.564 0.002 -0.667 0.084 -0.775 0.585 -0.775 0.466 0 0.582 -0.119 0.582 -0.596 0 -0.437 0.124 -0.596 0.466 -0.596 0.342 0 0.466 -0.159 0.466 -0.596 0 -0.53 0.098 -0.597 0.874 -0.599 1.702 -0.006 2.621 -0.266 2.621 -0.744 0 -0.317 0.169 -0.446 0.582 -0.446 0.466 0 0.582 -0.119 0.582 -0.596 0 -0.548 0.085 -0.596 1.048 -0.596 0.963 0 1.048 0.049 1.048 0.596 0 0.477 0.116 0.596 0.582 0.596 0.466 0 0.582 0.119 0.582 0.596 0 0.594 0.009 0.596 2.197 0.596 2.101 0 2.2 0.023 2.271 0.537 0.072 0.517 0.173 0.539 2.812 0.604 l 2.737 0.067 v 0.589 c 0 0.469 0.118 0.589 0.582 0.589 0.427 0 0.582 0.127 0.582 0.477 0 0.445 0.155 0.477 2.33 0.477 2.33 0 2.33 0 2.33 0.596 0 0.579 0.047 0.596 1.631 0.596 1.584 0 1.631 0.017 1.631 0.596 0 0.583 0.039 0.596 1.747 0.596 1.571 0 1.747 0.047 1.747 0.46 0 0.296 0.187 0.488 0.524 0.537 0.327 0.048 0.551 0.268 0.595 0.586 0.084 0.606 0.817 0.802 2.987 0.802 1.429 0 1.485 0.023 1.485 0.596 0 0.594 0.008 0.596 2.213 0.596 h 2.213 v 1.073 v 1.073 h -5.01 h -5.01 v -0.596 c 0 -0.477 -0.116 -0.596 -0.582 -0.596 -0.466 0 -0.582 -0.119 -0.582 -0.596 v -0.596 h -2.795 h -2.795 v -0.596 v -0.596 h -2.912 c -2.757 0 -2.912 -0.025 -2.912 -0.477 0 -0.318 -0.155 -0.477 -0.466 -0.477 -0.397 0 -0.466 0.159 -0.466 1.073 0 0.914 0.069 1.073 0.466 1.073 0.342 0 0.466 0.159 0.466 0.596 0 0.477 0.116 0.596 0.582 0.596 0.466 0 0.582 0.119 0.582 0.596 0 0.477 0.116 0.596 0.582 0.596 0.466 0 0.582 0.119 0.582 0.596 0 0.477 0.116 0.596 0.582 0.596 0.466 0 0.582 0.119 0.582 0.596 0 0.477 0.116 0.596 0.582 0.596 0.466 0 0.582 0.119 0.582 0.596 0 0.477 0.116 0.596 0.582 0.596 0.466 0 0.582 0.119 0.582 0.596 0 0.437 0.124 0.596 0.466 0.596 0.311 0 0.466 0.159 0.466 0.477 0 0.35 0.155 0.477 0.582 0.477 0.466 0 0.582 0.119 0.582 0.596 0 0.477 0.116 0.596 0.582 0.596 0.466 0 0.582 0.119 0.582 0.596 0 0.477 0.116 0.596 0.582 0.596 0.466 0 0.582 0.119 0.582 0.596 0 0.477 0.116 0.596 0.582 0.596 0.466 0 0.582 0.119 0.582 0.596 0 0.477 0.116 0.596 0.582 0.596 0.466 0 0.582 0.119 0.582 0.596 0 0.437 0.124 0.596 0.466 0.596 0.342 0 0.466 0.159 0.466 0.596 0 0.477 0.116 0.596 0.582 0.596 0.427 0 0.582 0.127 0.582 0.477 0 0.35 0.155 0.477 0.582 0.477 0.466 0 0.582 0.119 0.582 0.596 0 0.477 0.116 0.596 0.582 0.596 0.466 0 0.582 0.119 0.582 0.596 0 0.477 0.116 0.596 0.582 0.596 0.466 0 0.582 0.119 0.582 0.596 0 0.477 0.116 0.596 0.582 0.596 0.466 0 0.582 0.119 0.582 0.596 0 0.477 0.116 0.596 0.582 0.596 0.466 0 0.582 0.119 0.582 0.596 0 0.437 0.124 0.596 0.466 0.596 0.311 0 0.466 0.159 0.466 0.477 0 0.445 0.155 0.477 2.33 0.477 2.33 0 2.33 0 2.33 0.596 0 0.557 -0.078 0.596 -1.165 0.596 -1.087 0 -1.165 0.04 -1.165 0.596 0 0.477 -0.116 0.596 -0.582 0.596 -0.427 0 -0.582 0.127 -0.582 0.477 0 0.444 -0.155 0.477 -2.213 0.477 -2.205 0 -2.213 0.002 -2.213 0.596 v 0.596 h -8.503 c -8.158 0 -8.503 -0.018 -8.503 -0.447 0 -0.641 -0.801 -0.745 -5.736 -0.745 h -4.28 v 1.312 c 0 1.24 0.032 1.312 0.582 1.312 h 0.582 v 3.339 c 0 3.18 0.022 3.339 0.466 3.339 0.362 0 0.466 0.159 0.466 0.716 0 0.604 0.091 0.716 0.582 0.716 h 0.582 v 10.852 v 10.852 h -0.582 c -0.466 0 -0.582 0.119 -0.582 0.596 0 0.437 -0.124 0.596 -0.466 0.596 -0.342 0 -0.466 0.159 -0.466 0.596 0 0.477 -0.116 0.596 -0.582 0.596 -0.533 0 -0.582 0.089 -0.582 1.051 v 1.051 l -1.165 0.164 l -1.165 0.164 v 1.051 c 0 0.962 -0.049 1.051 -0.582 1.051 -0.466 0 -0.582 0.119 -0.582 0.596 0 0.556 -0.078 0.596 -1.165 0.596 -1.087 0 -1.165 0.04 -1.165 0.596 v 0.596 h -5.01 h -5.01 v -0.596 c 0 -0.583 -0.039 -0.596 -1.747 -0.596 h -1.747 v 6.32 c 0 6.161 -0.012 6.32 -0.466 6.32 -0.424 0 -0.466 0.159 -0.466 1.789 v 1.789 h -1.165 h -1.165 v -1.192 c 0 -1.113 -0.039 -1.193 -0.582 -1.193 h -0.582 v -5.724 v -5.724 h -0.582 c -0.466 0 -0.582 -0.119 -0.582 -0.596 0 -0.437 -0.124 -0.596 -0.466 -0.596 -0.404 0 -0.466 -0.159 -0.466 -1.192 0 -1.166 -0.016 -1.193 -0.699 -1.193 -0.536 0 -0.699 -0.108 -0.699 -0.462 0 -0.365 -0.22 -0.496 -1.048 -0.623 -0.906 -0.139 -1.048 -0.238 -1.048 -0.73 v -0.569 h -3.378 c -3.222 0 -3.378 -0.022 -3.378 -0.477 0 -0.451 -0.155 -0.477 -2.795 -0.477 h -2.795 v -0.596 c 0 -0.477 -0.116 -0.596 -0.582 -0.596 -0.466 0 -0.582 -0.119 -0.582 -0.596 0 -0.477 -0.116 -0.596 -0.582 -0.596 -0.466 0 -0.582 0.119 -0.582 0.596 0 0.477 -0.116 0.596 -0.582 0.596 -0.535 0 -0.582 0.087 -0.582 1.073 0 0.986 0.047 1.073 0.582 1.073 0.46 0 0.582 0.121 0.582 0.574 0 0.508 0.134 0.593 1.165 0.738 l 1.165 0.164 v 1.051 v 1.051 h 1.048 c 0.963 0 1.048 0.048 1.048 0.596 0 0.473 0.117 0.596 0.57 0.596 0.514 0 0.577 0.11 0.641 1.133 l 0.071 1.133 l 1.107 0.073 c 0.999 0.066 1.107 0.129 1.107 0.656 0 0.463 0.12 0.583 0.582 0.583 0.466 0 0.582 0.119 0.582 0.596 0 0.437 0.124 0.596 0.466 0.596 0.397 0 0.466 0.159 0.466 1.073 v 1.073 h 1.165 c 1.087 0 1.165 0.04 1.165 0.596 0 0.477 0.116 0.596 0.582 0.596 0.544 0 0.582 0.08 0.582 1.193 v 1.192 h 1.165 c 1.087 0 1.165 0.04 1.165 0.596 0 0.437 0.124 0.596 0.466 0.596 0.397 0 0.466 0.159 0.466 1.073 v 1.073 h 1.165 c 1.087 0 1.165 0.04 1.165 0.596 0 0.579 -0.047 0.596 -1.631 0.596 -1.584 0 -1.631 -0.017 -1.631 -0.596 0 -0.477 -0.116 -0.596 -0.582 -0.596 -0.466 0 -0.582 -0.119 -0.582 -0.596 0 -0.477 -0.116 -0.596 -0.582 -0.596 -0.466 0 -0.582 -0.119 -0.582 -0.596 0 -0.437 -0.124 -0.596 -0.466 -0.596 -0.342 0 -0.466 -0.159 -0.466 -0.596 0 -0.477 -0.116 -0.596 -0.582 -0.596 -0.466 0 -0.582 -0.119 -0.582 -0.596 0 -0.477 -0.116 -0.596 -0.582 -0.596 -0.427 0 -0.582 -0.127 -0.582 -0.477 0 -0.35 -0.155 -0.477 -0.582 -0.477 -0.466 0 -0.582 -0.119 -0.582 -0.596 0 -0.477 -0.116 -0.596 -0.582 -0.596 -0.466 0 -0.582 -0.119 -0.582 -0.596 0 -0.477 -0.116 -0.596 -0.582 -0.596 -0.466 0 -0.582 -0.119 -0.582 -0.596 0 -0.437 -0.124 -0.596 -0.466 -0.596 -0.342 0 -0.466 -0.159 -0.466 -0.596 0 -0.477 -0.116 -0.596 -0.582 -0.596 -0.466 0 -0.582 -0.119 -0.582 -0.596 0 -0.477 -0.116 -0.596 -0.582 -0.596 -0.427 0 -0.582 -0.127 -0.582 -0.477 0 -0.35 -0.155 -0.477 -0.582 -0.477 -0.466 0 -0.582 -0.119 -0.582 -0.596 0 -0.477 -0.116 -0.596 -0.582 -0.596 -0.466 0 -0.582 -0.119 -0.582 -0.596 0 -0.477 -0.116 -0.596 -0.582 -0.596 -0.466 0 -0.582 -0.119 -0.582 -0.596 0 -0.477 -0.116 -0.596 -0.582 -0.596 -0.466 0 -0.582 -0.119 -0.582 -0.596 0 -0.437 -0.124 -0.596 -0.466 -0.596 -0.342 0 -0.466 -0.159 -0.466 -0.596 0 -0.477 -0.116 -0.596 -0.582 -0.596 -0.427 0 -0.582 -0.127 -0.582 -0.477 0 -0.35 -0.155 -0.477 -0.582 -0.477 -0.466 0 -0.582 -0.119 -0.582 -0.596 0 -0.477 -0.116 -0.596 -0.582 -0.596 -0.466 0 -0.582 -0.119 -0.582 -0.596 0 -0.477 -0.116 -0.596 -0.582 -0.596 -0.466 0 -0.582 -0.119 -0.582 -0.596 0 -0.594 -0.008 -0.596 -2.213 -0.596 -2.205 0 -2.213 -0.002 -2.213 -0.596 0 -0.591 -0.017 -0.596 -2.067 -0.596 -2.882 0 -3.523 0.157 -3.523 0.865 0 0.407 0.131 0.566 0.466 0.566 0.311 0 0.466 0.159 0.466 0.477 0 0.35 0.155 0.477 0.582 0.477 0.466 0 0.582 0.119 0.582 0.596 0 0.477 0.116 0.596 0.582 0.596 0.466 0 0.582 0.119 0.582 0.596 0 0.477 0.116 0.596 0.582 0.596 0.466 0 0.582 0.119 0.582 0.596 0 0.437 0.124 0.596 0.466 0.596 0.342 0 0.466 0.159 0.466 0.596 0 0.477 0.116 0.596 0.582 0.596 0.466 0 0.582 0.119 0.582 0.596 0 0.477 0.116 0.596 0.582 0.596 0.427 0 0.582 0.127 0.582 0.477 0 0.35 0.155 0.477 0.582 0.477 0.466 0 0.582 0.119 0.582 0.596 0 0.477 0.116 0.596 0.582 0.596 0.466 0 0.582 0.119 0.582 0.596 0 0.477 0.116 0.596 0.582 0.596 0.466 0 0.582 0.119 0.582 0.596 0 0.437 0.124 0.596 0.466 0.596 0.342 0 0.466 0.159 0.466 0.596 0 0.477 0.116 0.596 0.582 0.596 0.466 0 0.582 0.119 0.582 0.596 0 0.477 0.116 0.596 0.582 0.596 0.427 0 0.582 0.127 0.582 0.477 0 0.35 0.155 0.477 0.582 0.477 0.466 0 0.582 0.119 0.582 0.596 0 0.477 0.116 0.596 0.582 0.596 0.466 0 0.582 0.119 0.582 0.596 0 0.477 0.116 0.596 0.582 0.596 0.466 0 0.582 0.119 0.582 0.596 0 0.477 0.116 0.596 0.582 0.596 0.466 0 0.582 0.119 0.582 0.596 0 0.437 0.124 0.596 0.466 0.596 0.342 0 0.466 0.159 0.466 0.596 0 0.477 0.116 0.596 0.582 0.596 0.466 0 0.582 0.119 0.582 0.596 0 0.477 0.116 0.596 0.582 0.596 0.427 0 0.582 0.127 0.582 0.477 0 0.35 0.155 0.477 0.582 0.477 0.466 0 0.582 0.119 0.582 0.596 0 0.477 0.116 0.596 0.582 0.596 0.466 0 0.582 0.119 0.582 0.596 0 0.477 0.116 0.596 0.582 0.596 0.466 0 0.582 0.119 0.582 0.596 0 0.437 0.124 0.596 0.466 0.596 0.342 0 0.466 0.159 0.466 0.596 0 0.477 0.116 0.596 0.582 0.596 0.466 0 0.582 0.119 0.582 0.596 v 0.596 h 3.378 c 3.222 0 3.378 0.022 3.378 0.477 0 0.35 -0.155 0.477 -0.582 0.477 -0.466 0 -0.582 0.119 -0.582 0.596 0 0.548 -0.085 0.596 -1.048 0.596 -0.963 0 -1.048 0.048 -1.048 0.596 v 0.596 h -5.01 h -5.01 v -0.596 v -0.596 h -2.912 h -2.912 v -0.596 c 0 -0.477 -0.116 -0.596 -0.582 -0.596 -0.414 0 -0.582 -0.129 -0.582 -0.447 0 -0.593 -0.814 -0.745 -3.989 -0.745 h -2.533 v -0.596 v -0.596 h -2.912 h -2.912 v -0.596 c 0 -0.548 -0.085 -0.596 -1.048 -0.596 -0.893 0 -1.048 -0.071 -1.048 -0.477 0 -0.445 -0.155 -0.477 -2.329 -0.477 -2.33 0 -2.33 0 -2.33 -0.596 v -0.596 h -3.378 h -3.378 v -0.596 v -0.596 h -2.795 h -2.795 v -0.596 c 0 -0.556 -0.078 -0.596 -1.165 -0.596 -1.094 0 -1.165 -0.037 -1.165 -0.609 0 -0.578 -0.057 -0.606 -1.107 -0.537 -0.944 0.062 -1.117 0.151 -1.181 0.609 -0.054 0.388 -0.231 0.537 -0.641 0.537 -0.499 0 -0.566 0.105 -0.564 0.894 0.005 1.743 0.26 2.683 0.727 2.683 0.408 0 0.435 0.254 0.435 4.055 v 4.054 h 0.582 h 0.582 v 2.862 v 2.862 h 0.582 c 0.466 0 0.582 0.119 0.582 0.596 0 0.477 0.116 0.596 0.582 0.596 h 0.582 v 2.862 v 2.862 h 0.582 c 0.58 0 0.582 0.008 0.582 2.266 0 2.107 0.033 2.266 0.466 2.266 0.383 0 0.466 0.16 0.468 0.894 0.005 1.716 0.261 2.683 0.711 2.683 0.257 0 0.448 0.207 0.494 0.537 0.048 0.345 0.262 0.564 0.599 0.613 0.486 0.071 0.524 0.197 0.524 1.729 0 1.604 0.017 1.653 0.582 1.653 0.569 0 0.582 0.04 0.582 1.789 0 1.749 0.013 1.789 0.582 1.789 0.466 0 0.582 0.119 0.582 0.596 0 0.477 0.116 0.596 0.582 0.596 0.566 0 0.582 0.048 0.582 1.669 0 1.511 0.044 1.67 0.466 1.67 0.424 0 0.466 0.159 0.466 1.789 0 1.749 0.013 1.789 0.582 1.789 0.535 0 0.582 0.087 0.582 1.073 0 0.986 -0.047 1.073 -0.582 1.073 -0.544 0 -0.582 0.079 -0.582 1.192 0 1.034 -0.062 1.192 -0.466 1.192 -0.342 0 -0.466 0.159 -0.466 0.596 0 0.477 -0.116 0.596 -0.582 0.596 -0.427 0 -0.582 0.127 -0.582 0.477 0 0.406 -0.155 0.477 -1.048 0.477 h -1.048 v -1.073 z m 37.04 -48.42 c 0 -1.153 -0.056 -1.312 -0.466 -1.312 -0.397 0 -0.466 -0.159 -0.466 -1.073 v -1.073 h -1.165 c -1.087 0 -1.165 -0.04 -1.165 -0.596 0 -0.477 -0.116 -0.596 -0.582 -0.596 -0.535 0 -0.582 -0.087 -0.582 -1.073 0 -0.986 -0.048 -1.073 -0.582 -1.073 -0.46 0 -0.582 -0.121 -0.582 -0.574 0 -0.508 -0.134 -0.593 -1.165 -0.738 -1.031 -0.145 -1.165 -0.23 -1.165 -0.738 0 -0.409 -0.13 -0.574 -0.452 -0.574 -0.357 0 -0.485 -0.226 -0.609 -1.073 l -0.157 -1.073 h -1.022 c -0.935 0 -1.022 -0.051 -1.022 -0.596 0 -0.477 -0.116 -0.596 -0.582 -0.596 -0.533 0 -0.582 -0.089 -0.582 -1.051 v -1.051 l -1.165 -0.164 c -1.031 -0.145 -1.165 -0.23 -1.165 -0.738 0 -0.415 -0.129 -0.574 -0.466 -0.574 -0.311 0 -0.466 -0.159 -0.466 -0.477 0 -0.345 -0.155 -0.477 -0.561 -0.477 -0.496 0 -0.579 -0.137 -0.721 -1.192 l -0.16 -1.192 h -1.026 c -0.94 0 -1.026 -0.051 -1.026 -0.596 0 -0.477 -0.116 -0.596 -0.582 -0.596 -0.533 0 -0.582 -0.089 -0.582 -1.046 v -1.046 l -1.048 -0.161 c -0.828 -0.127 -1.048 -0.258 -1.048 -0.623 0 -0.334 -0.161 -0.462 -0.582 -0.462 -0.466 0 -0.582 -0.119 -0.582 -0.596 0 -0.469 -0.118 -0.596 -0.556 -0.596 -0.479 0 -0.577 -0.146 -0.711 -1.061 -0.152 -1.04 -0.175 -1.064 -1.191 -1.22 -0.893 -0.137 -1.036 -0.237 -1.036 -0.728 v -0.569 h -3.378 h -3.378 v 1.192 c 0 1.034 0.062 1.192 0.466 1.192 0.342 0 0.466 0.159 0.466 0.596 0 0.477 0.116 0.596 0.582 0.596 0.466 0 0.582 0.119 0.582 0.596 0 0.477 0.116 0.596 0.582 0.596 0.466 0 0.582 0.119 0.582 0.596 0 0.477 0.116 0.596 0.582 0.596 0.466 0 0.582 0.119 0.582 0.596 0 0.477 0.116 0.596 0.582 0.596 0.466 0 0.582 0.119 0.582 0.596 0 0.477 0.116 0.596 0.582 0.596 0.427 0 0.582 0.127 0.582 0.477 0 0.35 0.155 0.477 0.582 0.477 0.466 0 0.582 0.119 0.582 0.596 0 0.437 0.124 0.596 0.466 0.596 0.342 0 0.466 0.159 0.466 0.596 0 0.477 0.116 0.596 0.582 0.596 0.466 0 0.582 0.119 0.582 0.596 0 0.477 0.116 0.596 0.582 0.596 0.466 0 0.582 0.119 0.582 0.596 0 0.477 0.116 0.596 0.582 0.596 0.466 0 0.582 0.119 0.582 0.596 0 0.477 0.116 0.596 0.582 0.596 0.427 0 0.582 0.127 0.582 0.477 0 0.35 0.155 0.477 0.582 0.477 0.466 0 0.582 0.119 0.582 0.596 0 0.437 0.124 0.596 0.466 0.596 0.342 0 0.466 0.159 0.466 0.596 0 0.477 0.116 0.596 0.582 0.596 0.466 0 0.582 0.119 0.582 0.596 0 0.477 0.116 0.596 0.582 0.596 0.466 0 0.582 0.119 0.582 0.596 0 0.477 0.116 0.596 0.582 0.596 0.466 0 0.582 0.119 0.582 0.596 0 0.477 0.116 0.596 0.582 0.596 0.466 0 0.582 0.119 0.582 0.596 0 0.477 0.116 0.596 0.582 0.596 0.427 0 0.582 0.127 0.582 0.477 0 0.318 0.155 0.477 0.466 0.477 0.342 0 0.466 0.159 0.466 0.596 0 0.477 0.116 0.596 0.582 0.596 0.466 0 0.582 0.119 0.582 0.596 0 0.503 0.109 0.596 0.699 0.596 0.544 0 0.699 0.106 0.699 0.477 0 0.318 0.155 0.477 0.466 0.477 0.335 0 0.466 0.159 0.466 0.565 0 0.684 0.747 0.859 3.669 0.863 1.707 0.002 1.922 0.051 1.922 0.44 0 0.641 0.2 0.755 1.32 0.755 h 1.01 v -1.312 z m -49.33 -0.034 l 0.874 -0.148 v -2.831 v -2.831 h -0.582 c -0.469 0 -0.582 -0.119 -0.582 -0.607 0 -0.601 -0.017 -0.606 -1.689 -0.537 l -1.689 0.07 l -0.067 2.325 l -0.067 2.325 h 0.591 c 0.475 0 0.591 0.117 0.591 0.596 0 0.477 0.116 0.596 0.582 0.596 0.466 0 0.582 0.119 0.582 0.596 0 0.638 0.108 0.671 1.456 0.443 z m 16.668 -8.135 c 0.068 -1.202 0.047 -1.252 -0.524 -1.252 -0.439 0 -0.595 -0.125 -0.595 -0.477 0 -0.35 -0.155 -0.477 -0.582 -0.477 -0.466 0 -0.582 -0.119 -0.582 -0.596 0 -0.477 -0.116 -0.596 -0.582 -0.596 -0.466 0 -0.582 -0.119 -0.582 -0.596 0 -0.477 -0.116 -0.596 -0.582 -0.596 -0.42 0 -0.582 -0.128 -0.582 -0.46 0 -0.296 -0.187 -0.488 -0.524 -0.537 -0.333 -0.048 -0.551 -0.268 -0.597 -0.6 -0.058 -0.42 -0.278 -0.556 -1.107 -0.683 -0.891 -0.137 -1.034 -0.237 -1.034 -0.728 0 -0.448 -0.124 -0.569 -0.582 -0.569 -0.427 0 -0.582 -0.127 -0.582 -0.477 0 -0.35 -0.155 -0.477 -0.582 -0.477 -0.466 0 -0.582 -0.119 -0.582 -0.596 0 -0.556 -0.078 -0.596 -1.165 -0.596 h -1.165 v 2.385 c 0 2.201 -0.035 2.385 -0.452 2.385 -0.357 0 -0.485 0.226 -0.609 1.073 -0.086 0.59 -0.088 1.544 -0.004 2.119 0.136 0.929 0.233 1.062 0.871 1.192 0.395 0.081 1.124 0.147 1.62 0.147 0.808 0 0.903 0.063 0.903 0.596 v 0.596 h 3.378 h 3.378 v 0.607 c 0 0.601 0.017 0.606 1.689 0.537 l 1.689 -0.07 l 0.07 -1.252 z m 66.67 -14.847 c 0 -1.101 -0.043 -1.192 -0.561 -1.192 -0.496 0 -0.579 -0.137 -0.721 -1.192 l -0.16 -1.193 h -1.026 c -0.94 0 -1.026 -0.051 -1.026 -0.596 0 -0.477 -0.116 -0.596 -0.582 -0.596 -0.544 0 -0.582 -0.08 -0.582 -1.193 0 -1.113 -0.039 -1.193 -0.582 -1.193 -0.42 0 -0.582 -0.128 -0.582 -0.46 0 -0.296 -0.187 -0.488 -0.524 -0.537 -0.337 -0.049 -0.551 -0.268 -0.599 -0.613 -0.048 -0.345 -0.235 -0.537 -0.524 -0.537 -0.324 0 -0.45 -0.166 -0.45 -0.596 0 -0.477 -0.116 -0.596 -0.582 -0.596 -0.466 0 -0.582 -0.119 -0.582 -0.596 0 -0.477 -0.116 -0.596 -0.582 -0.596 -0.466 0 -0.582 -0.119 -0.582 -0.596 0 -0.477 -0.116 -0.596 -0.582 -0.596 -0.466 0 -0.582 -0.119 -0.582 -0.596 0 -0.477 -0.116 -0.596 -0.582 -0.596 -0.466 0 -0.582 -0.119 -0.582 -0.596 0 -0.437 -0.124 -0.596 -0.466 -0.596 -0.311 0 -0.466 -0.159 -0.466 -0.477 0 -0.35 -0.155 -0.477 -0.582 -0.477 -0.466 0 -0.582 -0.119 -0.582 -0.596 0 -0.477 -0.116 -0.596 -0.582 -0.596 -0.466 0 -0.582 -0.119 -0.582 -0.596 0 -0.477 -0.116 -0.596 -0.582 -0.596 -0.466 0 -0.582 -0.119 -0.582 -0.596 0 -0.477 -0.116 -0.596 -0.582 -0.596 -0.466 0 -0.582 -0.119 -0.582 -0.596 0 -0.477 -0.116 -0.596 -0.582 -0.596 -0.466 0 -0.582 -0.119 -0.582 -0.596 0 -0.477 -0.116 -0.596 -0.582 -0.596 -0.427 0 -0.582 -0.127 -0.582 -0.477 0 -0.307 -0.155 -0.477 -0.437 -0.477 -0.492 0 -0.728 0.821 -0.728 2.534 0 0.954 0.05 1.043 0.582 1.043 0.58 0 0.582 0.008 0.582 2.266 0 2.258 0.002 2.266 0.582 2.266 0.58 0 0.582 0.008 0.582 2.266 0 2.258 0.002 2.266 0.582 2.266 0.466 0 0.582 0.119 0.582 0.596 0 0.477 0.116 0.596 0.582 0.596 0.544 0 0.582 0.08 0.582 1.193 0 1.034 0.062 1.192 0.466 1.192 0.422 0 0.466 0.159 0.466 1.669 0 1.622 0.017 1.669 0.582 1.669 0.466 0 0.582 0.119 0.582 0.596 0 0.477 0.116 0.596 0.582 0.596 0.466 0 0.582 0.119 0.582 0.596 0 0.477 0.116 0.596 0.582 0.596 0.466 0 0.582 0.119 0.582 0.596 0 0.477 0.116 0.596 0.582 0.596 0.466 0 0.582 0.119 0.582 0.596 v 0.596 h 5.707 h 5.707 v -1.193 z m 3.261 -7.632 v -5.247 h -0.582 c -0.466 0 -0.582 -0.119 -0.582 -0.596 0 -0.477 -0.116 -0.596 -0.582 -0.596 -0.535 0 -0.582 -0.087 -0.582 -1.073 0 -0.897 -0.073 -1.073 -0.444 -1.073 -0.356 0 -0.476 -0.236 -0.604 -1.193 -0.126 -0.939 -0.251 -1.192 -0.588 -1.192 -0.266 0 -0.456 -0.203 -0.502 -0.537 -0.064 -0.458 -0.237 -0.547 -1.181 -0.609 -0.999 -0.066 -1.107 -0.129 -1.107 -0.656 0 -0.463 -0.12 -0.583 -0.582 -0.583 -0.535 0 -0.582 -0.087 -0.582 -1.073 0 -0.986 -0.047 -1.073 -0.582 -1.073 -0.466 0 -0.582 -0.119 -0.582 -0.596 0 -0.545 -0.087 -0.596 -1.022 -0.596 h -1.022 l -0.157 -1.073 c -0.122 -0.833 -0.255 -1.073 -0.593 -1.073 -0.303 0 -0.459 -0.201 -0.51 -0.656 -0.067 -0.601 -0.167 -0.662 -1.18 -0.729 -0.999 -0.066 -1.107 -0.129 -1.107 -0.656 0 -0.463 -0.12 -0.583 -0.582 -0.583 -0.535 0 -0.582 -0.087 -0.582 -1.073 0 -0.986 -0.048 -1.073 -0.582 -1.073 -0.466 0 -0.582 -0.119 -0.582 -0.596 0 -0.545 -0.087 -0.596 -1.022 -0.596 h -1.022 l -0.157 -1.073 c -0.124 -0.848 -0.252 -1.073 -0.609 -1.073 -0.347 0 -0.452 -0.167 -0.452 -0.716 0 -0.7 -0.026 -0.716 -1.165 -0.716 -1.087 0 -1.165 -0.04 -1.165 -0.596 0 -0.477 -0.116 -0.596 -0.582 -0.596 -0.535 0 -0.582 -0.087 -0.582 -1.073 v -1.073 h -1.022 h -1.022 l -0.157 -1.073 c -0.124 -0.848 -0.252 -1.073 -0.609 -1.073 -0.326 0 -0.452 -0.165 -0.452 -0.596 0 -0.548 0.085 -0.596 1.048 -0.596 0.963 0 1.048 0.049 1.048 0.596 0 0.477 0.116 0.596 0.582 0.596 0.427 0 0.582 0.127 0.582 0.477 0 0.35 0.155 0.477 0.582 0.477 0.466 0 0.582 0.119 0.582 0.596 0 0.477 0.116 0.596 0.582 0.596 0.466 0 0.582 0.119 0.582 0.596 0 0.477 0.116 0.596 0.582 0.596 0.466 0 0.582 0.119 0.582 0.596 0 0.437 0.124 0.596 0.466 0.596 0.342 0 0.466 0.159 0.466 0.596 0 0.469 0.118 0.596 0.556 0.596 0.48 0 0.577 0.146 0.713 1.073 l 0.157 1.073 h 1.034 c 0.948 0 1.034 0.05 1.034 0.596 0 0.477 0.116 0.596 0.582 0.596 0.466 0 0.582 0.119 0.582 0.596 0 0.477 0.116 0.596 0.582 0.596 0.466 0 0.582 0.119 0.582 0.596 0 0.437 0.124 0.596 0.466 0.596 0.342 0 0.466 0.159 0.466 0.596 0 0.477 0.116 0.596 0.582 0.596 0.466 0 0.582 0.119 0.582 0.596 0 0.469 0.118 0.596 0.556 0.596 0.48 0 0.577 0.146 0.713 1.073 l 0.157 1.073 h 1.034 c 0.948 0 1.034 0.05 1.034 0.596 0 0.477 0.116 0.596 0.582 0.596 0.534 0 0.582 0.089 0.582 1.057 0 0.914 0.071 1.067 0.524 1.133 0.326 0.048 0.551 0.268 0.595 0.584 0.074 0.53 0.92 0.796 2.55 0.802 0.653 0.002 0.757 -0.079 0.757 -0.594 0 -0.434 -0.125 -0.596 -0.459 -0.596 -0.428 0 -0.463 -0.197 -0.524 -2.922 -0.063 -2.825 -0.083 -2.924 -0.59 -2.998 -0.45 -0.066 -0.524 -0.22 -0.524 -1.097 0 -0.561 -0.068 -1.842 -0.151 -2.845 -0.129 -1.562 -0.213 -1.825 -0.582 -1.825 -0.305 0 -0.432 -0.175 -0.432 -0.596 0 -0.477 -0.116 -0.596 -0.582 -0.596 h -0.582 v -2.862 v -2.862 h -1.631 c -1.584 0 -1.631 -0.017 -1.631 -0.596 0 -0.596 0 -0.596 -2.33 -0.596 -2.33 0 -2.33 0 -2.33 -0.596 0 -0.477 -0.116 -0.596 -0.582 -0.596 -0.466 0 -0.582 -0.119 -0.582 -0.596 0 -0.594 -0.008 -0.596 -2.213 -0.596 -2.058 0 -2.213 -0.034 -2.213 -0.477 0 -0.444 -0.155 -0.477 -2.213 -0.477 -2.205 0 -2.213 -0.002 -2.213 -0.596 0 -0.583 -0.039 -0.596 -1.747 -0.596 -1.708 0 -1.747 0.013 -1.747 0.596 0 0.437 0.124 0.596 0.466 0.596 0.397 0 0.466 0.159 0.466 1.073 0 0.914 -0.069 1.073 -0.466 1.073 -0.311 0 -0.466 -0.159 -0.466 -0.477 0 -0.262 -0.131 -0.478 -0.291 -0.48 -0.16 -0.001 -0.684 -0.069 -1.165 -0.15 l -0.874 -0.148 v 3.01 v 3.01 h 0.582 c 0.466 0 0.582 0.119 0.582 0.596 0 0.477 0.116 0.596 0.582 0.596 0.58 0 0.582 0.008 0.582 2.266 0 2.107 0.033 2.266 0.466 2.266 0.424 0 0.466 0.159 0.466 1.789 0 1.749 0.013 1.789 0.582 1.789 0.466 0 0.582 0.119 0.582 0.596 0 0.477 0.116 0.596 0.582 0.596 0.466 0 0.582 0.119 0.582 0.596 0 0.477 0.116 0.596 0.582 0.596 0.535 0 0.582 0.087 0.582 1.073 0 0.986 0.048 1.073 0.582 1.073 0.466 0 0.582 0.119 0.582 0.596 0 0.556 0.078 0.596 1.165 0.596 h 1.165 v 1.073 c 0 0.914 0.069 1.073 0.466 1.073 0.362 0 0.466 0.159 0.466 0.716 0 0.636 0.078 0.716 0.699 0.716 0.544 0 0.699 0.106 0.699 0.477 0 0.35 0.155 0.477 0.582 0.477 0.466 0 0.582 0.119 0.582 0.596 0 0.437 0.124 0.596 0.466 0.596 0.342 0 0.466 0.159 0.466 0.596 0 0.477 0.116 0.596 0.582 0.596 0.466 0 0.582 0.119 0.582 0.596 0 0.477 0.116 0.596 0.582 0.596 0.466 0 0.582 0.119 0.582 0.596 0 0.437 0.124 0.596 0.466 0.596 0.342 0 0.466 0.159 0.466 0.596 0 0.477 0.116 0.596 0.582 0.596 0.427 0 0.582 0.127 0.582 0.477 0 0.35 0.155 0.477 0.582 0.477 0.466 0 0.582 0.119 0.582 0.596 0 0.477 0.116 0.596 0.582 0.596 0.466 0 0.582 0.119 0.582 0.596 0 0.477 0.116 0.596 0.582 0.596 0.466 0 0.582 0.119 0.582 0.596 0 0.477 0.116 0.596 0.582 0.596 0.534 0 0.582 0.088 0.582 1.059 v 1.059 l 1.025 0.157 c 1 0.154 1.029 0.182 1.179 1.207 0.121 0.826 0.25 1.05 0.605 1.05 0.326 0 0.452 0.165 0.452 0.596 0 0.583 0.039 0.596 1.747 0.596 h 1.747 v -5.247 z m 28.19 -32.913 c 0 -1.113 -0.039 -1.193 -0.582 -1.193 -0.466 0 -0.582 -0.119 -0.582 -0.596 0 -0.437 -0.124 -0.596 -0.466 -0.596 -0.342 0 -0.466 -0.159 -0.466 -0.596 0 -0.477 -0.116 -0.596 -0.582 -0.596 -0.427 0 -0.582 -0.127 -0.582 -0.477 0 -0.35 -0.155 -0.477 -0.582 -0.477 -0.466 0 -0.582 -0.119 -0.582 -0.596 0 -0.477 -0.116 -0.596 -0.582 -0.596 -0.466 0 -0.582 -0.119 -0.582 -0.596 0 -0.477 -0.116 -0.596 -0.582 -0.596 -0.466 0 -0.582 -0.119 -0.582 -0.596 0 -0.477 -0.116 -0.596 -0.582 -0.596 -0.466 0 -0.582 -0.119 -0.582 -0.596 0 -0.477 -0.116 -0.596 -0.582 -0.596 -0.466 0 -0.582 -0.119 -0.582 -0.596 0 -0.437 -0.124 -0.596 -0.466 -0.596 -0.311 0 -0.466 -0.159 -0.466 -0.477 0 -0.35 -0.155 -0.477 -0.582 -0.477 -0.466 0 -0.582 -0.119 -0.582 -0.596 0 -0.477 -0.116 -0.596 -0.582 -0.596 -0.466 0 -0.582 -0.119 -0.582 -0.596 0 -0.477 -0.116 -0.596 -0.582 -0.596 -0.466 0 -0.582 -0.119 -0.582 -0.596 0 -0.477 -0.116 -0.596 -0.582 -0.596 -0.466 0 -0.582 -0.119 -0.582 -0.596 0 -0.477 -0.116 -0.596 -0.582 -0.596 -0.466 0 -0.582 -0.119 -0.582 -0.596 0 -0.43 -0.125 -0.596 -0.45 -0.596 -0.289 0 -0.476 -0.192 -0.524 -0.537 -0.048 -0.345 -0.262 -0.564 -0.599 -0.613 -0.337 -0.049 -0.524 -0.241 -0.524 -0.537 0 -0.332 -0.162 -0.46 -0.582 -0.46 -0.466 0 -0.582 -0.119 -0.582 -0.596 0 -0.477 -0.116 -0.596 -0.582 -0.596 -0.466 0 -0.582 -0.119 -0.582 -0.596 0 -0.477 -0.116 -0.596 -0.582 -0.596 -0.466 0 -0.582 -0.119 -0.582 -0.596 0 -0.477 -0.116 -0.596 -0.582 -0.596 -0.466 0 -0.582 -0.119 -0.582 -0.596 0 -0.43 -0.125 -0.596 -0.45 -0.596 -0.289 0 -0.476 -0.192 -0.524 -0.537 -0.053 -0.384 -0.256 -0.558 -0.715 -0.612 -0.453 -0.053 -0.641 -0.211 -0.641 -0.537 0 -0.388 -0.167 -0.461 -1.048 -0.461 -0.963 0 -1.048 -0.049 -1.048 -0.596 0 -0.583 -0.039 -0.596 -1.747 -0.596 -1.708 0 -1.747 -0.013 -1.747 -0.596 0 -0.594 -0.008 -0.596 -2.213 -0.596 h -2.213 v 1.192 c 0 1.034 0.062 1.192 0.466 1.192 0.342 0 0.466 0.159 0.466 0.596 0 0.477 0.116 0.596 0.582 0.596 0.466 0 0.582 0.119 0.582 0.596 0 0.477 0.116 0.596 0.582 0.596 0.535 0 0.582 0.087 0.582 1.073 0 0.986 0.047 1.073 0.582 1.073 0.466 0 0.582 0.119 0.582 0.596 0 0.477 0.116 0.596 0.582 0.596 0.466 0 0.582 0.119 0.582 0.596 0 0.477 0.116 0.596 0.582 0.596 0.535 0 0.582 0.087 0.582 1.073 0 0.986 0.047 1.073 0.582 1.073 0.492 0 0.582 0.111 0.582 0.716 0 0.557 0.104 0.716 0.466 0.716 0.311 0 0.466 0.159 0.466 0.477 0 0.35 0.155 0.477 0.582 0.477 0.466 0 0.582 0.119 0.582 0.596 0 0.477 0.116 0.596 0.582 0.596 0.544 0 0.582 0.08 0.582 1.192 0 1.113 0.039 1.192 0.582 1.192 0.466 0 0.582 0.119 0.582 0.596 0 0.477 0.116 0.596 0.582 0.596 0.466 0 0.582 0.119 0.582 0.596 0 0.477 0.116 0.596 0.582 0.596 0.535 0 0.582 0.087 0.582 1.073 0 0.914 0.069 1.073 0.466 1.073 0.342 0 0.466 0.159 0.466 0.596 0 0.477 0.116 0.596 0.582 0.596 0.466 0 0.582 0.119 0.582 0.596 0 0.477 0.116 0.596 0.582 0.596 0.466 0 0.582 0.119 0.582 0.596 0 0.477 0.116 0.596 0.582 0.596 0.544 0 0.582 0.08 0.582 1.192 0 1.113 0.039 1.193 0.582 1.193 0.427 0 0.582 0.127 0.582 0.477 0 0.35 0.155 0.477 0.582 0.477 0.466 0 0.582 0.119 0.582 0.596 v 0.596 h 6.756 h 6.756 v -1.192 z m -17.01 -1.073 c 0 -0.902 -0.072 -1.073 -0.45 -1.073 -0.318 0 -0.472 -0.193 -0.524 -0.656 -0.053 -0.47 -0.223 -0.678 -0.598 -0.732 -0.337 -0.049 -0.524 -0.241 -0.524 -0.537 0 -0.332 -0.162 -0.46 -0.582 -0.46 -0.466 0 -0.582 -0.119 -0.582 -0.596 0 -0.477 -0.116 -0.596 -0.582 -0.596 -0.466 0 -0.582 -0.119 -0.582 -0.596 0 -0.477 -0.116 -0.596 -0.582 -0.596 -0.535 0 -0.582 -0.087 -0.582 -1.073 0 -0.914 -0.069 -1.073 -0.466 -1.073 -0.362 0 -0.466 -0.159 -0.466 -0.716 0 -0.604 -0.091 -0.716 -0.582 -0.716 -0.427 0 -0.582 -0.127 -0.582 -0.477 0 -0.35 -0.155 -0.477 -0.582 -0.477 -0.466 0 -0.582 -0.119 -0.582 -0.596 0 -0.477 -0.116 -0.596 -0.582 -0.596 -0.544 0 -0.582 -0.08 -0.582 -1.192 0 -1.113 -0.039 -1.193 -0.582 -1.193 -0.466 0 -0.582 -0.119 -0.582 -0.596 0 -0.477 -0.116 -0.596 -0.582 -0.596 -0.466 0 -0.582 -0.119 -0.582 -0.596 0 -0.477 -0.116 -0.596 -0.582 -0.596 -0.535 0 -0.582 -0.087 -0.582 -1.073 0 -0.914 -0.069 -1.073 -0.466 -1.073 -0.342 0 -0.466 -0.159 -0.466 -0.596 0 -0.477 -0.116 -0.596 -0.582 -0.596 -0.466 0 -0.582 -0.119 -0.582 -0.596 0 -0.503 -0.109 -0.596 -0.699 -0.596 -0.59 0 -0.699 0.093 -0.699 0.596 0 0.437 -0.124 0.596 -0.466 0.596 -0.421 0 -0.466 0.159 -0.466 1.653 0 1.533 0.038 1.658 0.524 1.729 0.337 0.049 0.551 0.268 0.599 0.613 0.048 0.345 0.235 0.537 0.524 0.537 0.414 0 0.45 0.188 0.45 2.385 0 2.385 0 2.385 0.582 2.385 0.574 0 0.582 0.029 0.585 1.968 0.003 2.794 0.19 3.756 0.727 3.756 0.309 0 0.435 0.173 0.435 0.596 0 0.477 0.116 0.596 0.582 0.596 0.544 0 0.582 0.08 0.582 1.193 v 1.192 h 1.165 c 0.997 0 1.165 0.067 1.165 0.462 0 0.365 0.22 0.496 1.048 0.623 0.816 0.125 1.048 0.26 1.048 0.611 0 0.423 0.235 0.45 3.96 0.45 h 3.96 v -1.073 z"/><path d="m 68.16 1009.83 c -0.046 -0.334 -0.25 -0.546 -0.571 -0.594 -0.362 -0.053 -0.5 -0.229 -0.5 -0.635 0 -0.52 -0.082 -0.562 -1.11 -0.562 -0.962 0 -1.11 -0.062 -1.11 -0.462 0 -0.308 -0.148 -0.462 -0.444 -0.462 -0.326 0 -0.444 -0.154 -0.444 -0.578 0 -0.462 -0.111 -0.578 -0.555 -0.578 -0.444 0 -0.555 -0.116 -0.555 -0.578 0 -0.458 -0.112 -0.578 -0.54 -0.578 -0.391 0 -0.559 -0.144 -0.611 -0.52 -0.046 -0.334 -0.25 -0.546 -0.571 -0.594 -0.463 -0.068 -0.5 -0.191 -0.5 -1.676 0 -1.554 -0.016 -1.602 -0.555 -1.602 -0.518 0 -0.555 -0.077 -0.555 -1.156 0 -1.078 -0.037 -1.155 -0.555 -1.155 h -0.555 v -3.351 c 0 -3.185 -0.022 -3.351 -0.439 -3.351 -0.42 0 -0.442 -0.191 -0.5 -4.449 -0.06 -4.416 -0.064 -4.45 -0.56 -4.523 -0.451 -0.067 -0.5 -0.202 -0.502 -1.387 -0.004 -2.122 -0.214 -3.046 -0.693 -3.046 -0.386 0 -0.415 -0.232 -0.415 -3.351 v -3.351 h 0.555 c 0.518 0 0.555 -0.077 0.555 -1.156 0 -0.976 0.065 -1.156 0.416 -1.156 0.556 0 0.694 -0.807 0.694 -4.073 0 -2.475 0.026 -2.629 0.444 -2.629 0.402 0 0.444 -0.154 0.444 -1.618 0 -1.572 0.016 -1.618 0.555 -1.618 0.444 0 0.555 -0.116 0.555 -0.578 0 -0.462 0.111 -0.578 0.555 -0.578 h 0.555 v 8.436 c 0 8.282 0.008 8.436 0.444 8.436 0.326 0 0.444 0.154 0.444 0.578 0 0.462 0.111 0.578 0.555 0.578 0.407 0 0.555 0.123 0.555 0.462 0 0.339 0.148 0.462 0.555 0.462 0.444 0 0.555 0.116 0.555 0.578 0 0.561 -0.044 0.578 -1.554 0.578 h -1.554 v 1.156 c 0 1 0.059 1.156 0.444 1.156 0.419 0 0.444 0.154 0.444 2.773 0 2.767 0.001 2.773 0.529 2.773 0.509 0 0.535 0.083 0.687 2.196 0.14 1.948 0.206 2.196 0.582 2.196 0.379 0 0.423 0.182 0.423 1.733 0 1.695 0.012 1.733 0.555 1.733 0.553 0 0.555 0.008 0.555 2.196 0 2.188 0.002 2.196 0.555 2.196 0.543 0 0.555 0.038 0.555 1.733 0 1.695 0.012 1.733 0.555 1.733 0.444 0 0.555 0.116 0.555 0.578 0 0.424 0.118 0.578 0.444 0.578 0.402 0 0.444 0.154 0.444 1.618 0 1.572 0.016 1.618 0.555 1.618 0.534 0 0.555 0.056 0.555 1.473 0 0.81 0.062 1.798 0.139 2.196 0.126 0.658 0.088 0.722 -0.429 0.722 -0.419 0 -0.586 -0.136 -0.638 -0.52 z"/><path d="m 86.41 988.63 c 0 -0.339 0.148 -0.462 0.555 -0.462 0.407 0 0.555 0.123 0.555 0.462 0 0.339 -0.148 0.462 -0.555 0.462 -0.407 0 -0.555 -0.123 -0.555 -0.462 z"/><path d="m 67.09 981.81 c 0 -0.424 0.118 -0.578 0.444 -0.578 0.296 0 0.444 -0.154 0.444 -0.462 0 -0.339 0.148 -0.462 0.555 -0.462 0.444 0 0.555 0.116 0.555 0.578 0 0.424 -0.118 0.578 -0.444 0.578 -0.296 0 -0.444 0.154 -0.444 0.462 0 0.339 -0.148 0.462 -0.555 0.462 -0.444 0 -0.555 -0.116 -0.555 -0.578 z"/><path d="m 137.15 950.75 c 0 -0.449 -0.07 -0.524 -0.547 -0.585 -0.435 -0.056 -0.388 -0.077 0.229 -0.099 0.427 -0.015 1.128 0.022 1.558 0.083 0.723 0.103 0.781 0.149 0.781 0.613 0 0.497 -0.011 0.502 -1.01 0.502 -1.01 0 -1.01 -0.002 -1.01 -0.515 z"/><path d="m 138.16 952.84 c 0 -0.467 0.056 -0.526 0.505 -0.526 0.449 0 0.505 0.058 0.505 0.526 0 0.467 -0.056 0.526 -0.505 0.526 -0.449 0 -0.505 -0.058 -0.505 -0.526 z"/><path d="m 118.31 946.36 c 0 -0.131 0.048 -0.604 0.107 -1.052 0.099 -0.752 0.143 -0.813 0.589 -0.813 0.477 0 0.482 0.011 0.482 1.052 v 1.052 h -0.589 c -0.385 0 -0.589 -0.083 -0.589 -0.238 z"/><path d="m 85.45 929.35 c 0 -0.467 0.056 -0.526 0.505 -0.526 0.449 0 0.505 0.058 0.505 0.526 0 0.467 -0.056 0.526 -0.505 0.526 -0.449 0 -0.505 -0.058 -0.505 -0.526 z"/><path d="m 87.64 928.3 c 0 -0.467 0.056 -0.526 0.505 -0.526 0.449 0 0.505 0.058 0.505 0.526 0 0.467 -0.056 0.526 -0.505 0.526 -0.449 0 -0.505 -0.058 -0.505 -0.526 z"/><path d="m 65.07 950.73 c 0 -0.467 0.056 -0.526 0.505 -0.526 0.449 0 0.505 0.058 0.505 0.526 0 0.467 -0.056 0.526 -0.505 0.526 -0.449 0 -0.505 -0.058 -0.505 -0.526 z"/><path d="m 63.895 951.79 c 0 -0.467 0.056 -0.526 0.505 -0.526 0.449 0 0.505 0.058 0.505 0.526 0 0.467 -0.056 0.526 -0.505 0.526 -0.449 0 -0.505 -0.058 -0.505 -0.526 z"/><path d="m 195.25 891.32 c 0 -0.526 0 -0.526 1.01 -0.526 1.01 0 1.01 0 1.01 0.526 0 0.526 0 0.526 -1.01 0.526 -1.01 0 -1.01 0 -1.01 -0.526 z"/><path d="m 66.08 980.88 v -0.526 h -1.095 h -1.095 v -1.052 v -1.052 h 1.095 h 1.095 v 0.526 c 0 0.467 0.056 0.526 0.505 0.526 0.449 0 0.505 0.058 0.505 0.526 0 0.444 0.065 0.526 0.421 0.526 0.259 0 0.421 0.1 0.421 0.258 0 0.321 -0.847 0.793 -1.423 0.793 -0.365 0 -0.429 -0.079 -0.429 -0.526 z"/><path d="m 71.01 984.79 c -0.478 -0.062 -0.547 -0.136 -0.547 -0.585 0 -0.471 -0.05 -0.515 -0.589 -0.515 -0.543 0 -0.589 -0.042 -0.589 -0.526 0 -0.47 -0.055 -0.526 -0.516 -0.526 -0.464 0 -0.511 -0.049 -0.463 -0.482 0.05 -0.456 0.105 -0.485 1.022 -0.535 l 0.968 -0.053 v 0.535 v 0.535 h 1.075 h 1.075 l 0.115 0.961 c 0.063 0.529 0.068 1.041 0.01 1.139 -0.105 0.176 -0.494 0.189 -1.56 0.052 z"/><path d="m 66.08 949.51 v -0.526 h 1.095 h 1.095 v 0.526 v 0.526 h -1.095 h -1.095 v -0.526 z"/><path d="m 63.1 953.42 c 0.162 -0.044 0.427 -0.044 0.589 0 0.162 0.044 0.029 0.08 -0.295 0.08 -0.324 0 -0.457 -0.036 -0.295 -0.08 z"/><path d="m 137.15 954.07 c 0 -0.467 0.056 -0.526 0.505 -0.526 0.449 0 0.505 0.058 0.505 0.526 0 0.467 -0.056 0.526 -0.505 0.526 -0.449 0 -0.505 -0.058 -0.505 -0.526 z"/><path d="m 85.45 931.63 c 0 -0.467 0.056 -0.526 0.505 -0.526 0.449 0 0.505 0.058 0.505 0.526 0 0.467 -0.056 0.526 -0.505 0.526 -0.449 0 -0.505 -0.058 -0.505 -0.526 z"/><path d="m 84.44 931.72 c 0 -0.565 0.04 -0.613 0.505 -0.613 0.465 0 0.505 0.049 0.505 0.613 0 0.565 -0.04 0.613 -0.505 0.613 -0.465 0 -0.505 -0.049 -0.505 -0.613 z"/><path d="m 86.63 929.35 c 0 -0.467 0.056 -0.526 0.505 -0.526 0.449 0 0.505 0.058 0.505 0.526 0 0.467 -0.056 0.526 -0.505 0.526 -0.449 0 -0.505 -0.058 -0.505 -0.526 z"/><path d="m 85.45 930.58 c 0 -0.467 0.056 -0.526 0.505 -0.526 0.449 0 0.505 0.058 0.505 0.526 0 0.467 -0.056 0.526 -0.505 0.526 -0.449 0 -0.505 -0.058 -0.505 -0.526 z"/><path d="m 62.885 952.93 c 0 -0.37 0.079 -0.438 0.505 -0.438 0.427 0 0.505 0.068 0.505 0.438 0 0.37 -0.079 0.438 -0.505 0.438 -0.427 0 -0.505 -0.068 -0.505 -0.438 z"/><path d="m 197.44 891.32 c 0 -0.467 0.056 -0.526 0.505 -0.526 0.449 0 0.505 0.058 0.505 0.526 0 0.467 -0.056 0.526 -0.505 0.526 -0.449 0 -0.505 -0.058 -0.505 -0.526 z"/><path d="m 197.44 890.26 c 0 -0.526 0 -0.526 1.01 -0.526 1.01 0 1.01 0 1.01 0.526 0 0.526 0 0.526 -1.01 0.526 -1.01 0 -1.01 0 -1.01 -0.526 z"/><path d="m 200.64 889.04 c 0 -0.467 0.056 -0.526 0.505 -0.526 0.449 0 0.505 0.058 0.505 0.526 0 0.467 -0.056 0.526 -0.505 0.526 -0.449 0 -0.505 -0.058 -0.505 -0.526 z"/><path d="m 199.68 889.62 c 0.162 -0.044 0.427 -0.044 0.589 0 0.162 0.044 0.03 0.08 -0.295 0.08 -0.324 0 -0.457 -0.036 -0.295 -0.08 z"/><path d="m 199.63 889.04 c 0 -0.467 0.056 -0.526 0.505 -0.526 0.449 0 0.505 0.058 0.505 0.526 0 0.467 -0.056 0.526 -0.505 0.526 -0.449 0 -0.505 -0.058 -0.505 -0.526 z"/><path d="m 195.46 892.95 c 0.162 -0.044 0.427 -0.044 0.589 0 0.162 0.044 0.03 0.08 -0.295 0.08 -0.324 0 -0.457 -0.036 -0.295 -0.08 z"/></g></g></svg>