<svg xmlns="http://www.w3.org/2000/svg" viewBox="0 0 256 256"><g transform="translate(0 -796.36)"><path d="m 26.373 992.2 c -92.05 -130.93 77.948 -263.6 186.39 -156.91 102.17 100.51 7.449 256.68 -119.69 207.86 -26.526 -10.185 -49.802 -26.914 -66.7 -50.948 z" style="fill:#fff;color:#000"/><path d="m 98.13 180.53 c 0 -0.527 -0.026 -0.554 -0.554 -0.554 -0.51 0 -0.554 -0.038 -0.554 -0.475 0 -0.422 -0.053 -0.475 -0.475 -0.475 -0.422 0 -0.475 -0.053 -0.475 -0.475 0 -0.422 -0.053 -0.475 -0.475 -0.475 h -0.475 v -1.028 v -1.028 h -0.475 c -0.422 0 -0.475 -0.053 -0.475 -0.475 0 -0.437 -0.044 -0.475 -0.554 -0.475 h -0.554 v -1.978 v -1.978 h -0.465 c -0.409 0 -0.471 -0.062 -0.514 -0.514 -0.041 -0.427 -0.123 -0.523 -0.481 -0.564 l -0.431 -0.05 l -0.044 -2.482 l -0.044 -2.482 l -0.514 -0.05 l -0.514 -0.05 v -1.968 v -1.968 h -0.475 h -0.475 l -0.001 -1.147 c -0.001 -0.631 -0.046 -1.521 -0.101 -1.978 -0.094 -0.785 -0.124 -0.831 -0.552 -0.831 c -0.397 0 -0.453 -0.058 -0.453 -0.475 c 0 -0.422 -0.053 -0.475 -0.475 -0.475 h -0.475 v -1.028 v -1.028 h -0.475 h -0.475 v -1.028 c 0 -1.026 -0.001 -1.028 -0.452 -1.028 h -0.452 l -0.085 -1.978 c -0.047 -1.088 -0.047 -2.868 0 -3.956 l 0.085 -1.978 h 0.452 c 0.447 0 0.452 -0.011 0.452 -0.949 0 -0.949 0 -0.949 0.475 -0.949 h 0.475 v -1.108 v -1.108 h 0.467 c 0.453 0 0.47 -0.028 0.574 -0.949 0.104 -0.915 0.124 -0.949 0.562 -0.949 h 0.454 v -3.01 v -3.01 h 0.475 h 0.475 v -3.01 v -3.01 h -0.467 c -0.463 0 -0.468 -0.01 -0.514 -0.989 -0.045 -0.948 -0.065 -0.991 -0.482 -1.039 -0.364 -0.042 -0.435 -0.125 -0.435 -0.514 v -0.464 h -2.532 h -2.532 v 0.465 c 0 0.409 -0.062 0.471 -0.514 0.514 -0.452 0.044 -0.52 0.112 -0.564 0.564 l -0.05 0.514 h -0.939 c -0.938 0 -0.939 0.001 -0.939 0.475 v 0.475 h -1.028 h -1.028 v 0.475 c 0 0.422 -0.053 0.475 -0.475 0.475 -0.437 0 -0.475 0.044 -0.475 0.554 0 0.527 -0.026 0.554 -0.554 0.554 -0.51 0 -0.554 0.038 -0.554 0.475 0 0.475 0 0.475 -0.949 0.475 -0.945 0 -0.949 0.002 -0.949 0.465 0 0.409 -0.062 0.471 -0.514 0.514 l -0.514 0.05 l -0.043 3.521 l -0.043 3.521 h -0.472 c -0.471 0 -0.472 0.001 -0.472 0.949 0 0.949 0 0.949 -0.475 0.949 -0.42 0 -0.475 0.054 -0.475 0.465 0 0.409 -0.062 0.471 -0.514 0.514 -0.452 0.044 -0.52 0.112 -0.564 0.564 -0.044 0.452 -0.106 0.514 -0.514 0.514 -0.462 0 -0.465 0.005 -0.465 0.949 0 0.949 0 0.949 -0.475 0.949 h -0.475 v 8.07 v 8.07 h 0.475 h 0.475 v 1.978 v 1.978 h 0.467 c 0.463 0 0.468 0.01 0.514 0.989 0.047 0.989 0.047 0.989 0.561 1.039 0.452 0.044 0.514 0.106 0.514 0.514 0 0.411 0.055 0.465 0.475 0.465 0.437 0 0.475 0.044 0.475 0.554 0 0.51 0.038 0.554 0.475 0.554 0.422 0 0.475 0.053 0.475 0.475 0 0.437 0.044 0.475 0.554 0.475 0.51 0 0.554 0.038 0.554 0.475 0 0.422 0.053 0.475 0.475 0.475 0.437 0 0.475 0.044 0.475 0.554 v 0.554 h 1.028 h 1.028 v 0.475 c 0 0.422 0.053 0.475 0.475 0.475 h 0.475 v 1.424 v 1.424 h -1.978 h -1.978 v -0.475 v -0.475 h -1.503 h -1.503 v -0.475 c 0 -0.42 -0.054 -0.475 -0.465 -0.475 -0.409 0 -0.471 -0.062 -0.514 -0.514 -0.044 -0.452 -0.112 -0.52 -0.564 -0.564 -0.426 -0.041 -0.514 -0.116 -0.514 -0.435 0 -0.323 -0.077 -0.386 -0.475 -0.386 -0.437 0 -0.475 -0.044 -0.475 -0.554 0 -0.51 -0.038 -0.554 -0.475 -0.554 h -0.475 v -1.028 v -1.028 h -0.469 h -0.469 l -0.045 -1.464 l -0.046 -1.464 l -0.514 -0.05 l -0.514 -0.05 v -4.499 v -4.499 h -0.475 h -0.475 v -6.228 c 0 -3.425 -0.045 -6.558 -0.101 -6.962 -0.087 -0.638 -0.15 -0.734 -0.475 -0.734 -0.355 0 -0.374 -0.053 -0.374 -1.028 v -1.028 h -0.554 h -0.554 v -1.414 v -1.414 l 0.514 -0.05 c 0.514 -0.05 0.514 -0.05 0.561 -1.038 0.047 -0.979 0.052 -0.989 0.514 -0.989 0.428 0 0.467 -0.046 0.467 -0.554 0 -0.51 0.038 -0.554 0.475 -0.554 0.475 0 0.475 0 0.475 -0.949 v -0.949 h 0.554 c 0.51 0 0.554 -0.038 0.554 -0.475 0 -0.422 0.053 -0.475 0.475 -0.475 0.437 0 0.475 -0.044 0.475 -0.554 0 -0.51 0.038 -0.554 0.475 -0.554 0.422 0 0.475 -0.053 0.475 -0.475 0 -0.437 0.044 -0.475 0.554 -0.475 0.51 0 0.554 -0.038 0.554 -0.475 0 -0.422 0.053 -0.475 0.475 -0.475 h 0.475 v -1.028 v -1.028 h 0.475 c 0.422 0 0.475 -0.053 0.475 -0.475 0 -0.422 0.053 -0.475 0.475 -0.475 0.437 0 0.475 -0.044 0.475 -0.554 0 -0.527 0.026 -0.554 0.554 -0.554 h 0.554 v -0.949 c 0 -0.949 0 -0.949 0.475 -0.949 h 0.475 v -1.028 v -1.028 h 0.475 h 0.475 v -2.057 v -2.057 h 0.467 c 0.453 0 0.47 -0.028 0.574 -0.949 0.104 -0.915 0.124 -0.949 0.562 -0.949 h 0.454 v -4.03 v -4.03 h 0.475 h 0.475 v -2.453 v -2.453 h 0.554 h 0.554 v -1.028 v -1.028 h 0.475 c 0.422 0 0.475 -0.053 0.475 -0.475 0 -0.422 0.053 -0.475 0.475 -0.475 0.475 0 0.475 0 0.475 -0.949 v -0.949 h 0.554 c 0.527 0 0.554 -0.026 0.554 -0.554 0 -0.51 0.038 -0.554 0.475 -0.554 0.422 0 0.475 -0.053 0.475 -0.475 0 -0.422 0.053 -0.475 0.475 -0.475 0.42 0 0.475 -0.054 0.475 -0.465 0 -0.409 0.062 -0.471 0.514 -0.514 0.452 -0.044 0.52 -0.112 0.564 -0.564 0.044 -0.452 0.106 -0.514 0.514 -0.514 0.411 0 0.465 -0.055 0.465 -0.475 v -0.475 h 1.028 h 1.028 v -0.475 c 0 -0.455 0.029 -0.475 0.69 -0.475 0.379 0 1.02 -0.045 1.424 -0.101 0.679 -0.093 0.734 -0.135 0.734 -0.554 0 -0.412 0.05 -0.453 0.554 -0.453 0.51 0 0.554 -0.038 0.554 -0.475 v -0.475 h 1.028 h 1.028 v -0.475 v -0.475 h 1.424 h 1.424 v -0.554 v -0.554 h 1.028 h 1.028 v -0.475 c 0 -0.422 0.053 -0.475 0.475 -0.475 0.422 0 0.475 -0.053 0.475 -0.475 v -0.475 h 1.028 h 1.028 v -0.554 c 0 -0.51 0.038 -0.554 0.475 -0.554 0.422 0 0.475 -0.053 0.475 -0.475 v -0.475 h 1.028 h 1.028 v -0.475 c 0 -0.422 0.053 -0.475 0.475 -0.475 0.437 0 0.475 -0.044 0.475 -0.554 0 -0.527 0.026 -0.554 0.554 -0.554 0.51 0 0.554 -0.038 0.554 -0.475 0 -0.475 0 -0.475 0.949 -0.475 0.946 0 0.949 -0.002 0.949 -0.467 0 -0.463 0.01 -0.468 0.989 -0.514 0.989 -0.047 0.989 -0.047 1.038 -0.561 l 0.05 -0.514 h 0.939 c 0.938 0 0.939 -0.001 0.939 -0.475 v -0.475 h 3.481 h 3.481 v 0.475 c 0 0.437 0.044 0.475 0.554 0.475 0.506 0 0.554 0.04 0.554 0.459 0 0.443 0.032 0.463 0.949 0.569 0.917 0.106 0.949 0.126 0.949 0.569 0 0.419 0.048 0.459 0.554 0.459 0.51 0 0.554 0.038 0.554 0.475 0 0.422 0.053 0.475 0.475 0.475 h 0.475 v 1.028 v 1.028 h 0.475 c 0.422 0 0.475 0.053 0.475 0.475 0 0.437 0.044 0.475 0.554 0.475 0.527 0 0.554 0.026 0.554 0.554 0 0.51 0.038 0.554 0.475 0.554 0.422 0 0.475 0.053 0.475 0.475 0 0.42 0.054 0.475 0.467 0.475 0.463 0 0.468 0.01 0.514 0.989 0.047 0.989 0.047 0.989 0.561 1.039 0.452 0.044 0.514 0.106 0.514 0.514 0 0.411 0.055 0.465 0.475 0.465 0.422 0 0.475 0.053 0.475 0.475 0 0.422 0.053 0.475 0.475 0.475 0.437 0 0.475 0.044 0.475 0.554 0 0.527 0.026 0.554 0.554 0.554 0.51 0 0.554 0.038 0.554 0.475 0 0.422 0.053 0.475 0.475 0.475 0.474 0 0.475 0.001 0.475 0.939 v 0.939 l 0.514 0.05 c 0.429 0.041 0.523 0.122 0.564 0.485 0.042 0.364 0.125 0.435 0.514 0.435 0.425 0 0.464 0.047 0.464 0.554 0 0.51 0.038 0.554 0.475 0.554 0.437 0 0.475 0.044 0.475 0.554 0 0.51 0.038 0.554 0.475 0.554 0.422 0 0.475 0.053 0.475 0.475 0 0.422 0.053 0.475 0.475 0.475 0.422 0 0.475 0.053 0.475 0.475 0 0.437 0.044 0.475 0.554 0.475 0.51 0 0.554 0.038 0.554 0.475 0 0.422 0.053 0.475 0.475 0.475 0.437 0 0.475 0.044 0.475 0.554 0 0.527 0.026 0.554 0.554 0.554 0.51 0 0.554 0.038 0.554 0.475 0 0.422 0.053 0.475 0.475 0.475 0.422 0 0.475 0.053 0.475 0.475 v 0.475 h 3.481 h 3.481 v -0.475 c 0 -0.437 0.044 -0.475 0.554 -0.475 0.51 0 0.554 -0.038 0.554 -0.475 0 -0.422 0.053 -0.475 0.475 -0.475 0.437 0 0.475 -0.044 0.475 -0.554 0 -0.51 0.038 -0.554 0.475 -0.554 0.422 0 0.475 -0.053 0.475 -0.475 0 -0.437 0.044 -0.475 0.554 -0.475 0.51 0 0.554 -0.038 0.554 -0.475 0 -0.422 0.053 -0.475 0.475 -0.475 h 0.475 v -1.028 v -1.028 h 0.475 c 0.437 0 0.475 -0.044 0.475 -0.554 0 -0.507 0.039 -0.554 0.464 -0.554 0.389 0 0.472 -0.071 0.514 -0.435 0.042 -0.363 0.136 -0.443 0.564 -0.485 l 0.514 -0.05 v -1.018 v -1.018 h 0.475 h 0.475 v -1.414 v -1.414 l 0.514 -0.05 l 0.514 -0.05 l 0.046 -1.464 l 0.046 -1.464 h 0.469 c 0.43 0 0.469 -0.046 0.469 -0.554 0 -0.51 0.038 -0.554 0.475 -0.554 h 0.475 v -1.503 v -1.503 h -1.503 h -1.503 v -0.949 v -0.949 h 0.554 c 0.51 0 0.554 -0.038 0.554 -0.475 0 -0.475 0 -0.475 0.949 -0.475 h 0.949 v -0.554 c 0 -0.527 0.026 -0.554 0.554 -0.554 0.51 0 0.554 -0.038 0.554 -0.475 0 -0.422 0.053 -0.475 0.475 -0.475 0.422 0 0.475 -0.053 0.475 -0.475 v -0.475 h 1.028 h 1.028 v -0.554 v -0.554 h 0.949 c 0.939 0 0.949 0.005 0.949 0.453 0 0.419 0.055 0.461 0.734 0.554 0.404 0.055 1.507 0.101 2.453 0.101 h 1.718 v 0.475 v 0.475 h 1.582 h 1.582 v 0.475 v 0.475 h 4.984 h 4.984 v 0.453 c 0 0.419 0.055 0.461 0.734 0.554 0.404 0.055 1.08 0.101 1.503 0.101 0.749 0 0.769 0.012 0.769 0.475 0 0.422 0.053 0.475 0.475 0.475 0.422 0 0.475 0.053 0.475 0.475 0 0.417 0.055 0.475 0.454 0.475 0.422 0 0.46 0.051 0.536 0.723 0.045 0.398 0.044 1.323 -0.002 2.057 l -0.083 1.334 h -0.452 h -0.452 v 1.424 v 1.424 h 0.475 c 0.422 0 0.475 0.053 0.475 0.475 0 0.475 0 0.475 -0.949 0.475 -0.949 0 -0.949 0 -0.949 -0.475 v -0.475 h -1.028 h -1.028 v -0.475 v -0.475 h -1.503 h -1.503 v 0.467 c 0 0.463 -0.01 0.468 -0.989 0.514 -0.989 0.047 -0.989 0.047 -1.039 0.561 -0.044 0.452 -0.106 0.514 -0.514 0.514 -0.462 0 -0.465 0.005 -0.465 0.942 v 0.942 l -0.989 0.047 c -0.939 0.045 -0.991 0.068 -1.038 0.468 -0.045 0.388 -0.121 0.429 -0.989 0.53 l -0.94 0.109 v 0.913 v 0.913 l -0.93 0.105 c -0.925 0.105 -0.93 0.108 -1.027 0.693 -0.053 0.323 -0.098 0.962 -0.099 1.418 -0.002 0.817 -0.01 0.831 -0.476 0.831 h -0.475 v 1.503 v 1.503 h -0.554 h -0.554 v 1.503 v 1.503 h -0.475 c -0.422 0 -0.475 0.053 -0.475 0.475 0 0.422 -0.053 0.475 -0.475 0.475 h -0.475 v 1.028 v 1.028 h -0.554 h -0.554 v 1.028 v 1.028 h -0.475 c -0.422 0 -0.475 0.053 -0.475 0.475 0 0.422 -0.053 0.475 -0.475 0.475 -0.422 0 -0.475 0.053 -0.475 0.475 0 0.437 -0.044 0.475 -0.554 0.475 -0.527 0 -0.554 0.026 -0.554 0.554 0 0.51 -0.038 0.554 -0.475 0.554 -0.422 0 -0.475 0.053 -0.475 0.475 0 0.475 0 0.475 -0.949 0.475 -0.945 0 -0.949 0.002 -0.949 0.465 0 0.409 -0.062 0.471 -0.514 0.514 -0.428 0.041 -0.523 0.122 -0.564 0.485 -0.042 0.364 -0.125 0.435 -0.514 0.435 -0.425 0 -0.464 0.047 -0.464 0.554 0 0.51 -0.038 0.554 -0.475 0.554 -0.422 0 -0.475 0.053 -0.475 0.475 0 0.462 -0.02 0.475 -0.769 0.475 -0.423 0 -1.099 0.045 -1.503 0.101 -0.679 0.093 -0.734 0.135 -0.734 0.554 0 0.412 -0.05 0.453 -0.554 0.453 -0.51 0 -0.554 0.038 -0.554 0.475 0 0.475 0 0.475 -0.949 0.475 -0.949 0 -0.949 0 -0.949 0.475 v 0.475 h -1.503 h -1.503 v 0.475 v 0.475 h -1.028 h -1.028 v 0.554 v 0.554 h -0.949 c -0.949 0 -0.949 0 -0.949 0.475 v 0.475 h -1.028 h -1.028 v 0.465 c 0 0.409 -0.062 0.471 -0.514 0.514 -0.514 0.05 -0.514 0.05 -0.561 1.039 -0.047 0.979 -0.052 0.989 -0.514 0.989 -0.428 0 -0.467 0.046 -0.467 0.554 0 0.51 -0.038 0.554 -0.475 0.554 h -0.475 v 3.481 v 3.481 h -0.451 h -0.451 l -0.103 1.448 c -0.056 0.797 -0.103 3.039 -0.103 4.984 v 3.536 h 0.554 h 0.554 v 1.028 v 1.028 h 0.949 c 0.949 0 0.949 0 0.949 0.475 0 0.437 0.044 0.475 0.554 0.475 h 0.554 v 6.487 v 6.487 h 0.475 h 0.475 v 1.244 c 0 0.684 0.045 1.574 0.101 1.978 0.087 0.638 0.15 0.734 0.475 0.734 0.322 0 0.374 0.077 0.374 0.554 0 0.527 0.026 0.554 0.554 0.554 h 0.554 v 1.028 v 1.028 h 0.475 c 0.422 0 0.475 0.053 0.475 0.475 0 0.422 0.053 0.475 0.475 0.475 0.422 0 0.475 0.053 0.475 0.475 0 0.437 0.044 0.475 0.554 0.475 0.527 0 0.554 0.026 0.554 0.554 0 0.51 0.038 0.554 0.475 0.554 0.422 0 0.475 0.053 0.475 0.475 0 0.42 0.054 0.475 0.467 0.475 0.463 0 0.468 0.01 0.514 0.989 0.047 0.989 0.047 0.989 0.561 1.038 0.419 0.04 0.514 0.118 0.514 0.42 0 0.335 0.091 0.381 0.949 0.48 0.917 0.106 0.949 0.126 0.949 0.569 0 0.419 0.048 0.459 0.554 0.459 h 0.554 v 0.934 v 0.934 l 0.949 0.11 c 0.917 0.106 0.949 0.126 0.949 0.569 0 0.419 0.048 0.459 0.554 0.459 h 0.554 v 0.939 v 0.939 l -0.514 0.05 c -0.452 0.044 -0.52 0.112 -0.564 0.564 l -0.05 0.514 h -2.443 h -2.442 v -0.554 v -0.554 h -1.028 h -1.028 v -0.475 c 0 -0.422 -0.053 -0.475 -0.475 -0.475 h -0.475 v -1.028 v -1.028 h -0.934 h -0.934 l -0.11 -0.949 c -0.106 -0.917 -0.126 -0.949 -0.569 -0.949 -0.405 0 -0.459 -0.056 -0.459 -0.475 0 -0.422 -0.053 -0.475 -0.475 -0.475 h -0.475 v -1.028 v -1.028 h -0.47 h -0.47 l -0.044 -2.02 l -0.044 -2.02 l -0.514 -0.05 l -0.514 -0.05 v -2.442 v -2.443 h -0.462 c -0.452 0 -0.465 -0.023 -0.572 -1.028 -0.101 -0.947 -0.14 -1.028 -0.487 -1.028 -0.355 0 -0.377 -0.055 -0.377 -0.949 v -0.949 h -0.554 h -0.554 v -1.503 v -1.503 h -0.456 c -0.445 0 -0.459 -0.026 -0.566 -1.028 -0.102 -0.952 -0.139 -1.028 -0.493 -1.028 -0.32 0 -0.383 -0.078 -0.383 -0.475 0 -0.437 -0.044 -0.475 -0.554 -0.475 -0.51 0 -0.554 -0.038 -0.554 -0.475 0 -0.42 -0.054 -0.475 -0.465 -0.475 -0.409 0 -0.471 -0.062 -0.514 -0.514 -0.041 -0.428 -0.122 -0.523 -0.485 -0.564 l -0.435 -0.05 v -3.471 v -3.47 h -0.554 h -0.554 v -1.028 v -1.028 h -0.475 c -0.475 0 -0.475 0 -0.475 -0.949 0 -0.949 0 -0.949 -0.475 -0.949 h -0.475 v -1.028 v -1.028 h -0.554 h -0.554 v -1.503 v -1.503 h -0.475 c -0.422 0 -0.475 -0.053 -0.475 -0.475 0 -0.422 -0.053 -0.475 -0.475 -0.475 -0.437 0 -0.475 -0.044 -0.475 -0.554 0 -0.527 -0.026 -0.554 -0.554 -0.554 -0.51 0 -0.554 -0.038 -0.554 -0.475 v -0.475 h -1.028 h -1.028 v 0.475 c 0 0.422 -0.053 0.475 -0.475 0.475 -0.437 0 -0.475 0.044 -0.475 0.554 0 0.51 -0.038 0.554 -0.475 0.554 h -0.475 v 1.503 v 1.503 h -0.554 h -0.554 v 1.978 v 1.978 h -0.475 h -0.475 v 2.057 v 2.057 h -0.475 c -0.475 0 -0.475 0 -0.475 0.949 0 0.949 0 0.949 0.475 0.949 h 0.475 v 2.453 v 2.453 h -0.475 c -0.437 0 -0.475 0.044 -0.475 0.554 0 0.527 -0.026 0.554 -0.554 0.554 -0.51 0 -0.554 0.038 -0.554 0.475 0 0.422 -0.053 0.475 -0.475 0.475 h -0.475 v 1.028 v 1.028 h -0.475 c -0.474 0 -0.475 0.001 -0.475 0.939 v 0.939 l -0.514 0.05 c -0.514 0.05 -0.514 0.05 -0.561 1.039 -0.044 0.922 -0.073 0.989 -0.423 0.989 -0.345 0 -0.384 0.083 -0.486 1.028 -0.107 1 -0.122 1.028 -0.566 1.028 h -0.456 v 1.503 v 1.503 h -0.554 h -0.554 v 3.222 c 0 1.772 0.045 3.552 0.101 3.956 0.093 0.679 0.135 0.734 0.554 0.734 0.412 0 0.453 0.05 0.453 0.554 v 0.554 h 0.949 c 0.949 0 0.949 0 0.949 0.475 0 0.437 0.044 0.475 0.554 0.475 0.527 0 0.554 0.026 0.554 0.554 0 0.51 0.038 0.554 0.475 0.554 0.401 0 0.475 0.061 0.475 0.396 v 0.396 h -3.481 h -3.481 v -0.949 c 0 -0.949 0 -0.949 -0.475 -0.949 h -0.475 v -1.244 c 0 -0.684 -0.045 -1.574 -0.101 -1.978 -0.087 -0.638 -0.15 -0.734 -0.475 -0.734 -0.367 0 -0.374 -0.029 -0.374 -1.493 v -1.493 l 0.435 -0.05 l 0.435 -0.05 l 0.044 -1.938 l 0.044 -1.938 h 0.47 h 0.47 v -1.028 v -1.028 h 0.554 h 0.554 v -1.028 c 0 -0.979 0.018 -1.028 0.378 -1.028 h 0.378 l 0.118 -3.125 c 0.065 -1.719 0.077 -3.995 0.027 -5.058 -0.05 -1.063 -0.049 -2.576 0.002 -3.362 l 0.093 -1.429 h 0.451 c 0.45 0 0.451 -0.003 0.451 -1.028 0 -1.026 0.001 -1.028 0.453 -1.028 0.419 0 0.461 -0.055 0.554 -0.734 0.055 -0.404 0.101 -1.721 0.101 -2.927 v -2.193 h 0.377 c 0.347 0 0.386 -0.081 0.487 -1.028 0.061 -0.566 0.061 -1.491 0 -2.057 -0.101 -0.947 -0.14 -1.028 -0.487 -1.028 -0.371 0 -0.377 -0.025 -0.377 -1.503 v -1.503 h -0.554 c -0.51 0 -0.554 -0.038 -0.554 -0.475 0 -0.437 -0.044 -0.475 -0.554 -0.475 -0.51 0 -0.554 -0.038 -0.554 -0.475 v -0.475 h -1.165 c -0.641 0 -1.495 -0.045 -1.899 -0.101 -0.679 -0.093 -0.734 -0.135 -0.734 -0.554 0 -0.452 -0.002 -0.453 -1.028 -0.453 h -1.028 v -0.475 v -0.475 h -1.028 h -1.028 v -0.459 c 0 -0.443 -0.032 -0.463 -0.949 -0.569 -0.917 -0.106 -0.949 -0.126 -0.949 -0.569 v -0.459 h -1.582 h -1.582 v 1.028 v 1.028 h -0.475 c -0.422 0 -0.475 0.053 -0.475 0.475 0 0.422 -0.053 0.475 -0.475 0.475 h -0.475 v 1.028 v 1.028 h -0.554 h -0.554 v 0.949 c 0 0.949 0 0.949 -0.475 0.949 h -0.475 v 1.028 v 1.028 h -0.475 c -0.42 0 -0.475 0.054 -0.475 0.465 0 0.409 -0.062 0.471 -0.514 0.514 -0.514 0.05 -0.514 0.05 -0.561 1.039 -0.047 0.979 -0.052 0.989 -0.514 0.989 h -0.467 v 1.028 v 1.028 h -0.475 h -0.475 v 1.028 v 1.028 h -0.464 c -0.389 0 -0.472 0.071 -0.514 0.435 -0.039 0.336 -0.145 0.446 -0.465 0.483 -0.363 0.042 -0.427 0.139 -0.514 0.774 -0.055 0.399 -0.099 1.036 -0.099 1.416 0 0.661 -0.02 0.69 -0.475 0.69 h -0.475 v 2.057 v 2.057 h 0.475 c 0.437 0 0.475 0.044 0.475 0.554 0 0.51 -0.038 0.554 -0.475 0.554 h -0.475 v 1.424 v 1.424 h -0.554 h -0.554 v 2.272 c 0 1.25 0.045 2.603 0.101 3.01 0.093 0.679 0.135 0.734 0.554 0.734 h 0.453 v 2.532 v 2.532 h 0.475 h 0.475 v 1.244 c 0 0.684 0.045 1.574 0.101 1.978 0.087 0.631 0.152 0.734 0.465 0.734 0.295 0 0.373 0.097 0.414 0.514 0.044 0.452 0.112 0.52 0.564 0.564 l 0.514 0.05 v 0.939 c 0 0.938 0.001 0.939 0.475 0.939 h 0.475 v 1.503 v 1.503 h 0.475 c 0.437 0 0.475 0.044 0.475 0.554 0 0.527 0.026 0.554 0.554 0.554 0.51 0 0.554 0.038 0.554 0.475 0 0.422 0.053 0.475 0.475 0.475 0.422 0 0.475 0.053 0.475 0.475 0 0.422 0.053 0.475 0.475 0.475 0.437 0 0.475 0.044 0.475 0.554 v 0.554 h 1.028 h 1.028 v 0.475 c 0 0.422 0.053 0.475 0.475 0.475 0.422 0 0.475 0.053 0.475 0.475 0 0.437 0.044 0.475 0.554 0.475 0.51 0 0.554 0.038 0.554 0.475 0 0.475 0 0.475 0.949 0.475 h 0.949 v 0.554 c 0 0.527 0.026 0.554 0.554 0.554 0.51 0 0.554 0.038 0.554 0.475 v 0.475 h -4.984 h -4.984 v -0.554 z" transform="translate(0 796.36)" style="fill:#ff4500;fill-rule:evenodd"/></g></svg>