<svg xmlns="http://www.w3.org/2000/svg" viewBox="0 0 256 256"><g transform="translate(0 -796.36)"><g transform="translate(663.08 -690.85)" style="color:#000"><path d="m -428.04 1689.47 c 82.81 -118.02 -103.69 -266.05 -201.24 -169.89 -91.91 90.6 26.87 259.81 141.24 215.81 23.862 -9.18 44.801 -24.26 60 -45.923 z" style="fill:#fff"/><rect ry="12.667" rx="12.236" y="1575.5" x="-604.39" height="87.77" width="137.17" style="fill:#dc143c"/></g><path d="m 117.34 943.98 c -7.314 -2.229 -10.857 -5.101 -34.444 -27.912 -14.442 -13.967 -23.2 -22.941 -23.2 -23.768 0 -2.361 2.931 -6.491 5.671 -7.991 2.659 -1.456 2.909 -1.462 60.52 -1.462 56.15 0 57.932 0.04 60.59 1.359 2.876 1.43 5.711 5.11 5.711 7.415 0 0.875 -8.204 9.283 -22.86 23.431 -23.82 22.994 -28.319 26.572 -36.37 28.934 -4.09 1.199 -11.664 1.196 -15.608 -0.006 z" style="fill:#ff4500"/></g></svg>