<svg xmlns="http://www.w3.org/2000/svg" viewBox="0 0 256 256"><g transform="translate(0 -796.36)" style="color:#000"><path d="m 20.17 998.21 c -80.938 -111.14 101.28 -269.46 200.9 -170.81 112.89 107.54 -74.19 307.54 -187.59 188.15 l -13.31 -17.342 z" style="fill:#fff"/><path d="m 68.94 879.25 c -3.02 0 -5.474 2.401 -5.474 5.407 v 87.95 c 0 3.01 2.45 5.442 5.474 5.442 3.02 0 5.474 -2.436 5.474 -5.442 v -38.16 h 32.735 v 38.16 c 0 3.01 2.415 5.442 5.438 5.442 3.02 0 5.474 -2.436 5.474 -5.442 v -38.16 h 32.735 v 38.16 c 0 3.01 2.45 5.442 5.474 5.442 3.02 0 5.438 -2.436 5.438 -5.442 v -38.16 h 37.854 c 0.378 0 0.746 -0.034 1.102 -0.106 h 0.391 c 2.398 0 4.336 -2.401 4.336 -5.407 v -44.28 c 0 -3.01 -1.938 -5.407 -4.336 -5.407 h -2.275 c -2.398 0 -4.301 2.401 -4.301 5.407 v 38.553 h -32.771 v -38.553 c 0 -3.01 -2.415 -5.407 -5.438 -5.407 -3.02 0 -5.474 2.401 -5.474 5.407 v 38.553 h -32.735 v -38.553 c 0 -3.01 -2.45 -5.407 -5.474 -5.407 -3.02 0 -5.438 2.401 -5.438 5.407 v 38.553 h -32.735 v -38.553 c 0 -3.01 -2.45 -5.407 -5.474 -5.407 z" style="fill:#ff4500"/></g></svg>