<svg xmlns="http://www.w3.org/2000/svg" viewBox="0 0 256 256"><g transform="translate(0 -796.36)" style="fill:#99f"><path d="m 45.508 1014.49 c -200.19 -264.22 350.73 -301.76 173.93 -32.05 -40.3 61.49 -120.9 102.03 -173.93 32.05 z" style="fill:#fff;color:#000"/><g style="fill:#ff4500;fill-rule:evenodd"><path d="m 138.8 989.23 c 0 -3.166 -0.036 -3.371 -0.593 -3.371 -0.395 0 -0.593 -0.204 -0.593 -0.613 0 -0.609 -0.198 -0.613 -31.869 -0.613 h -31.869 v -6.588 c 0 -6.05 0.042 -6.591 0.519 -6.631 0.285 -0.024 1.873 -0.009 3.527 0.032 3.591 0.09 5.441 -0.176 5.441 -0.782 0 -0.238 0.267 -0.433 0.593 -0.433 0.566 0 0.593 -0.204 0.593 -4.443 0 -4.239 0.027 -4.443 0.593 -4.443 0.395 0 0.593 -0.204 0.593 -0.613 0 -0.34 0.198 -0.613 0.445 -0.613 0.356 0 0.445 -0.46 0.445 -2.298 0 -2.094 0.053 -2.298 0.593 -2.298 0.521 0 0.593 -0.204 0.593 -1.685 0 -1.481 0.072 -1.685 0.593 -1.685 0.48 0 0.593 -0.204 0.593 -1.072 0 -0.749 0.134 -1.072 0.445 -1.072 0.247 0 0.445 -0.272 0.445 -0.613 0 -0.409 0.198 -0.613 0.593 -0.613 0.48 0 0.593 -0.204 0.593 -1.072 0 -0.868 0.113 -1.072 0.593 -1.072 0.395 0 0.593 -0.204 0.593 -0.613 0 -0.34 0.198 -0.613 0.445 -0.613 0.245 0 0.445 -0.207 0.445 -0.46 0 -0.255 0.264 -0.46 0.593 -0.46 0.383 0 0.593 -0.204 0.593 -0.577 0 -0.319 0.265 -0.649 0.593 -0.737 0.326 -0.088 0.593 -0.38 0.593 -0.649 0 -0.269 0.2 -0.488 0.445 -0.488 0.247 0 0.445 -0.272 0.445 -0.613 0 -0.409 0.198 -0.613 0.593 -0.613 0.329 0 0.593 -0.204 0.593 -0.46 0 -0.255 0.264 -0.46 0.593 -0.46 0.395 0 0.593 -0.204 0.593 -0.613 0 -0.496 0.198 -0.613 1.038 -0.613 0.988 0 1.038 -0.051 1.038 -1.072 v -1.072 h 1.631 c 1.433 0 1.631 -0.074 1.631 -0.613 0 -0.496 0.198 -0.613 1.038 -0.613 0.725 0 1.038 -0.139 1.038 -0.46 0 -0.353 0.379 -0.46 1.631 -0.46 1.433 0 1.631 -0.074 1.631 -0.613 0 -0.409 0.198 -0.613 0.593 -0.613 0.395 0 0.593 -0.204 0.593 -0.613 0 -0.576 0.198 -0.613 3.261 -0.613 2.701 0 3.261 -0.079 3.261 -0.46 0 -0.387 0.675 -0.46 4.299 -0.46 3.623 0 4.299 0.072 4.299 0.46 0 0.385 0.627 0.46 3.861 0.46 h 3.861 l -0.081 -5.592 l -0.081 -5.592 l -3.335 -0.087 c -2.696 -0.07 -3.335 -0.173 -3.335 -0.536 0 -0.295 -0.305 -0.45 -0.889 -0.45 h -0.889 v -2.298 v -2.298 h 1.631 c 1.252 0 1.631 -0.107 1.631 -0.46 0 -0.31 0.3 -0.46 0.917 -0.46 0.668 0 0.959 -0.167 1.072 -0.613 0.085 -0.337 0.34 -0.613 0.565 -0.613 0.334 0 0.41 -1.047 0.41 -5.669 0 -4.835 -0.065 -5.669 -0.445 -5.669 -0.286 0 -0.446 -0.3 -0.449 -0.843 -0.007 -1.666 -0.309 -2.197 -1.363 -2.401 -0.553 -0.107 -1 -0.37 -1 -0.585 0 -0.583 -1.01 -0.759 -4.373 -0.764 -2.502 -0.003 -3.039 -0.086 -3.039 -0.464 0 -0.381 -0.56 -0.46 -3.261 -0.46 -2.585 0 -3.261 -0.088 -3.261 -0.426 0 -0.241 -0.436 -0.51 -1 -0.62 -0.654 -0.127 -1.058 -0.406 -1.158 -0.8 -0.142 -0.562 -0.418 -0.605 -3.887 -0.605 -3.121 0 -3.734 -0.075 -3.734 -0.46 0 -0.368 -0.445 -0.46 -2.223 -0.46 h -2.223 v -1.072 c 0 -0.749 -0.134 -1.072 -0.445 -1.072 -0.343 0 -0.445 -0.401 -0.447 -1.762 -0.001 -0.969 -0.087 -2.486 -0.19 -3.371 l -0.187 -1.609 h 14.683 h 14.683 l 0.195 1.072 l 0.195 1.072 h 2.659 h 2.659 l -0.078 -8.963 l -0.078 -8.963 l -1.631 -0.096 c -0.897 -0.053 -2.059 -0.013 -2.583 0.088 -0.801 0.155 -0.983 0.353 -1.145 1.245 l -0.193 1.061 h -14.679 h -14.679 l 0.185 -0.958 c 0.102 -0.527 0.185 -2.043 0.185 -3.371 0 -1.941 0.087 -2.413 0.445 -2.413 0.311 0 0.445 -0.323 0.445 -1.072 v -1.072 h 2.223 c 2.026 0 2.223 -0.054 2.223 -0.613 0 -0.576 0.198 -0.613 3.261 -0.613 3.063 0 3.261 -0.037 3.261 -0.613 0 -0.496 0.198 -0.613 1.038 -0.613 0.725 0 1.038 -0.139 1.038 -0.46 0 -0.384 0.612 -0.46 3.734 -0.46 3.484 0 3.744 -0.041 3.889 -0.613 0.146 -0.577 0.404 -0.613 4.419 -0.613 4.066 0 4.264 -0.029 4.264 -0.613 0 -0.602 0.198 -0.613 10.821 -0.613 h 10.821 v 2.911 v 2.911 h 7.743 h 7.743 l -0.179 0.689 c -0.098 0.379 -0.181 1.069 -0.183 1.532 -0.003 0.758 -0.108 0.843 -1.042 0.843 -0.84 0 -1.038 0.117 -1.038 0.613 0 0.409 -0.198 0.613 -0.593 0.613 -0.395 0 -0.593 0.204 -0.593 0.613 0 0.34 -0.198 0.613 -0.445 0.613 -0.245 0 -0.445 0.207 -0.445 0.46 0 0.339 -0.342 0.46 -1.297 0.46 -1.887 0 -3.15 0.322 -3.15 0.804 0 0.326 -0.602 0.421 -2.668 0.421 -2.47 0 -2.668 0.045 -2.668 0.613 0 0.409 -0.198 0.613 -0.593 0.613 -0.326 0 -0.593 0.191 -0.593 0.424 0 0.233 -0.267 0.496 -0.593 0.584 -0.565 0.153 -0.593 0.418 -0.593 5.704 0 5.34 0.022 5.544 0.593 5.544 0.521 0 0.593 0.204 0.593 1.685 v 1.685 h 1.038 c 0.725 0 1.038 0.139 1.038 0.46 0 0.253 -0.2 0.46 -0.445 0.46 -0.376 0 -0.445 0.715 -0.445 4.596 0 3.881 0.069 4.596 0.445 4.596 0.247 0 0.445 0.272 0.445 0.613 0 0.558 0.198 0.613 2.223 0.613 2.026 0 2.223 -0.054 2.223 -0.613 0 -0.409 0.198 -0.613 0.593 -0.613 0.329 0 0.593 -0.204 0.593 -0.46 0 -0.375 0.494 -0.46 2.668 -0.46 h 2.668 v 5.516 v 5.516 h -3.261 h -3.261 v -1.226 c 0 -1.021 -0.099 -1.226 -0.593 -1.226 -0.329 0 -0.593 -0.204 -0.593 -0.46 0 -0.321 -0.313 -0.46 -1.038 -0.46 -0.725 0 -1.038 0.139 -1.038 0.46 0 0.255 -0.264 0.46 -0.593 0.46 -0.395 0 -0.593 0.204 -0.593 0.613 0 0.34 -0.198 0.613 -0.445 0.613 -0.384 0 -0.445 1.072 -0.445 7.814 0 7.609 -0.016 7.814 -0.593 7.814 -0.584 0 -0.593 0.204 -0.593 13.482 0 13.278 0.008 13.482 0.593 13.482 0.395 0 0.593 0.204 0.593 0.613 0 0.34 0.198 0.613 0.445 0.613 0.247 0 0.445 0.272 0.445 0.613 0 0.409 0.198 0.613 0.593 0.613 0.48 0 0.593 0.204 0.593 1.072 0 0.868 0.113 1.072 0.593 1.072 0.521 0 0.593 0.204 0.593 1.685 0 1.294 0.103 1.685 0.445 1.685 0.328 0 0.445 0.353 0.445 1.341 0 1.951 0.312 3.256 0.778 3.256 0.224 0 0.408 0.276 0.408 0.613 0 0.409 0.198 0.613 0.593 0.613 0.566 0 0.593 0.204 0.593 4.443 0 3.745 0.07 4.443 0.445 4.443 0.245 0 0.445 0.191 0.445 0.426 0 0.609 1.711 0.864 5.329 0.793 1.716 -0.034 3.42 -0.046 3.787 -0.027 l 0.667 0.034 v 6.588 v 6.588 h -11.858 c -11.661 0 -11.858 0.01 -11.858 0.613 0 0.409 -0.198 0.613 -0.593 0.613 -0.549 0 -0.593 0.204 -0.593 2.758 0 2.553 0.044 2.758 0.593 2.758 0.395 0 0.593 0.204 0.593 0.613 0 0.576 -0.198 0.613 -3.261 0.613 h -3.261 v -3.371 z m -7.449 -17.964 c 0.51 -0.105 0.926 -0.365 0.926 -0.577 0 -0.212 0.267 -0.458 0.593 -0.546 0.578 -0.156 0.593 -0.418 0.593 -10.301 0 -9.936 -0.012 -10.14 -0.593 -10.14 -0.48 0 -0.593 -0.204 -0.593 -1.072 0 -1.047 -0.028 -1.072 -1.186 -1.072 -0.812 0 -1.186 -0.134 -1.186 -0.424 0 -0.593 -0.948 -0.793 -3.78 -0.798 -1.975 -0.003 -2.446 -0.093 -2.446 -0.464 0 -0.368 -0.445 -0.46 -2.223 -0.46 -1.779 0 -2.223 0.092 -2.223 0.46 0 0.373 -0.488 0.46 -2.594 0.464 -2.977 0.004 -3.928 0.198 -3.928 0.798 0 0.282 -0.356 0.424 -1.065 0.424 -0.816 0 -1.102 0.143 -1.22 0.613 -0.085 0.337 -0.34 0.613 -0.565 0.613 -0.226 0 -0.41 0.207 -0.41 0.46 0 0.321 -0.313 0.46 -1.038 0.46 -0.84 0 -1.038 0.117 -1.038 0.613 0 0.409 -0.198 0.613 -0.593 0.613 -0.395 0 -0.593 0.204 -0.593 0.613 0 0.409 -0.198 0.613 -0.593 0.613 -0.329 0 -0.593 0.204 -0.593 0.46 0 0.253 -0.2 0.46 -0.445 0.46 -0.247 0 -0.445 0.272 -0.445 0.613 0 0.409 -0.198 0.613 -0.593 0.613 -0.48 0 -0.593 0.204 -0.593 1.072 0 0.868 -0.113 1.072 -0.593 1.072 -0.494 0 -0.593 0.204 -0.593 1.226 0 0.885 -0.124 1.226 -0.445 1.226 -0.245 0 -0.445 0.207 -0.445 0.46 0 0.255 -0.264 0.46 -0.593 0.46 -0.54 0 -0.593 0.204 -0.593 2.298 0 2.094 -0.053 2.298 -0.593 2.298 -0.551 0 -0.593 0.204 -0.593 2.911 0 2.707 0.042 2.911 0.593 2.911 0.326 0 0.593 0.197 0.593 0.438 0 0.241 0.3 0.498 0.667 0.571 1.069 0.213 29.996 0.236 31.02 0.025 z"/><path d="m 150.66 880.91 c 0 -0.255 0.264 -0.46 0.593 -0.46 0.563 0 0.593 -0.204 0.593 -3.983 v -3.983 h 1.038 c 0.84 0 1.038 0.117 1.038 0.613 0 0.558 0.198 0.613 2.223 0.613 2.026 0 2.223 0.054 2.223 0.613 0 0.496 0.198 0.613 1.038 0.613 0.725 0 1.038 0.139 1.038 0.46 0 0.321 0.313 0.46 1.038 0.46 0.84 0 1.038 0.117 1.038 0.613 0 0.409 0.198 0.613 0.593 0.613 0.395 0 0.593 0.204 0.593 0.613 0 0.496 0.198 0.613 1.038 0.613 0.988 0 1.038 0.051 1.038 1.072 0 0.868 0.113 1.072 0.593 1.072 0.329 0 0.593 0.204 0.593 0.46 0 0.397 -1.103 0.46 -8.153 0.46 -7.05 0 -8.153 -0.062 -8.153 -0.46 z"/><path d="m 150.66 876.49 c 0 -3.359 -0.072 -4.01 -0.445 -4.01 -0.682 0 -0.531 -0.564 0.371 -1.384 1 -0.91 1.26 -0.94 1.26 -0.148 0 0.409 0.198 0.613 0.593 0.613 0.329 0 0.593 0.204 0.593 0.46 0 0.255 -0.264 0.46 -0.593 0.46 -0.526 0 -0.597 0.216 -0.628 1.915 -0.06 3.318 -0.39 5.844 -0.781 5.977 -0.284 0.097 -0.371 -0.813 -0.371 -3.883 z"/><path d="m 149.5 886.51 c -0.444 -0.417 -0.665 -4.773 -0.545 -10.754 0.14 -6.978 0.239 -7.538 1.37 -7.787 0.979 -0.216 0.988 -0.185 0.123 0.386 -1.082 0.715 -1.069 1.218 0.038 1.384 0.487 0.073 0.971 0.279 1.157 0.491 0.359 0.41 0.453 8.704 0.156 13.643 l -0.169 2.805 h -0.975 c -0.536 0 -1.056 -0.076 -1.155 -0.168 z"/><path d="m 151.56 879.5 c 0.002 -0.436 0.057 -1.268 0.121 -1.849 l 0.118 -1.057 l -0.032 1.69 c -0.018 0.956 -0.071 1.759 -0.121 1.849 -0.067 0.119 -0.089 -0.039 -0.086 -0.634 z"/><path d="m 150.53 880.82 c 0 -0.505 0.019 -0.572 0.163 -0.572 0.225 0 0.262 0.177 0.076 0.369 -0.403 0.417 -0.078 0.609 1.165 0.689 l 0.938 0.06 l -1.171 0.014 l -1.171 0.014 v -0.572 z"/></g></g></svg>