<svg xmlns="http://www.w3.org/2000/svg" viewBox="0 0 256 256"><defs><clipPath><path transform="matrix(15.33333 0 0 11.5 415 -125.5)" d="m -24 13 c 0 1.105 -0.672 2 -1.5 2 -0.828 0 -1.5 -0.895 -1.5 -2 0 -1.105 0.672 -2 1.5 -2 0.828 0 1.5 0.895 1.5 2 z"/></clipPath></defs><g transform="translate(0 -796.36)" style="fill:#f5f5f5"><path d="m 130.42 1050.99 c -26.397 -2.057 -57.29 -14.72 -78.83 -32.31 -26.2 -21.399 -45.35 -54.22 -50.5 -86.57 -1.13 -7.092 -1.453 -23.445 -0.608 -30.714 3.512 -30.18 21.232 -60.19 47.08 -79.75 c 14.03 -10.613 32.581 -19.06 49.988 -22.755 45.3 -9.623 92.56 8.596 124.96 48.17 19.418 23.721 29.473 47.634 31.924 75.92 2.939 33.913 -10.415 70.28 -34.795 94.76 -19.15 19.229 -44.836 31.456 -69.22 32.951 -3.536 0.217 -7.875 0.498 -9.643 0.625 -1.768 0.127 -6.429 -0.02 -10.357 -0.326 z" style="fill:#fff"/><g transform="translate(0 796.36)" style="fill:#ff4500;fill-rule:evenodd"><path d="m 70.64 188.6 c -3.157 -1.925 -3.799 -4.04 -3.14 -10.335 0.537 -5.143 1.941 -9.826 4.625 -15.43 2.142 -4.473 10.668 -18.906 13.13 -22.22 2.229 -3.01 4.423 -6.787 4.897 -8.436 0.227 -0.792 0.514 -3.292 0.636 -5.556 0.69 -12.743 5.821 -23.499 14.895 -31.22 6.722 -5.723 14.367 -9.01 22.336 -9.596 3.058 -0.226 3.682 -0.42 5.761 -1.794 1.282 -0.847 3.813 -2.847 5.624 -4.444 7.516 -6.628 17.811 -13.817 24.28 -16.955 6.797 -3.298 13.745 -4.576 16.666 -3.065 1.645 0.851 3.142 2.937 3.699 5.156 1.035 4.12 -1.732 14.609 -6.223 23.589 -6.624 13.244 -20.838 33.02 -35.683 49.651 -19.02 21.303 -40.01 39.854 -53.15 46.98 -7.287 3.951 -15.28 5.555 -18.349 3.683 z m 25.644 -25.366 c 8.428 -3.15 17.491 -10.02 30.32 -22.986 16.658 -16.837 28 -33.18 33.12 -47.713 2.12 -6.02 1.64 -10.808 -1.267 -12.639 -1.739 -1.095 -4.807 -0.872 -8.831 0.643 -2.851 1.073 -8.786 4.519 -8.786 5.101 0 0.682 1.617 1.692 5.959 3.72 2.486 1.161 4.924 2.491 5.419 2.956 0.872 0.819 0.88 0.91 0.271 2.963 -1.238 4.169 -6.743 14.03 -11.87 21.26 -10.9 15.373 -23.417 27.759 -36.726 36.34 -3.253 2.098 -4.17 2.316 -5.088 1.212 -1.01 -1.212 -3.444 -5.487 -5.04 -8.848 -1.489 -3.134 -2.138 -3.677 -3.418 -2.863 -0.59 0.375 -2.553 4.896 -4.01 9.239 -1.056 3.144 -1.351 7.372 -0.684 9.771 0.808 2.904 5.581 3.731 10.632 1.844 z m 6.534 -30.896 c 5.624 -2.35 9.797 -8.336 11.475 -16.46 1.282 -6.206 0.515 -11.02 -2.125 -13.338 -1.298 -1.139 -1.734 -1.293 -3.201 -1.128 -7.07 0.797 -12.898 9.593 -13.678 20.641 -0.176 2.494 -0.063 3.944 0.438 5.612 0.99 3.296 1.764 4.051 5.454 5.317 0.029 0.01 0.766 -0.28 1.637 -0.644 z"/><path d="m 124.16 170.45 c -4.413 -0.648 -4.93 0.2 7.091 -11.65 14.74 -14.53 20.804 -21.62 32.632 -38.15 2.348 -3.282 4.329 -6.04 4.4 -6.139 0.261 -0.344 0.52 0.255 1.152 2.658 1.712 6.509 1.497 17.938 -0.454 24.16 -4.551 14.511 -16.862 25.939 -31.11 28.874 -3.283 0.677 -9.97 0.797 -13.715 0.246 z"/></g></g></svg>