<svg xmlns="http://www.w3.org/2000/svg" xmlns:xlink="http://www.w3.org/1999/xlink" viewBox="0 0 256 256"><defs><path d="m 245.46 129.52 l -97.89 -96.9 c -5.556 -5.502 -16.222 -11.873 -23.7 -14.16 l -39.518 -12.08 c -7.479 -2.286 -18.1 0.391 -23.599 5.948 l -13.441 13.578 c -5.5 5.559 -14.502 14.653 -20 20.21 l -13.44 13.579 c -5.5 5.558 -8.07 16.206 -5.706 23.658 l 12.483 39.39 c 2.363 7.456 8.843 18.06 14.399 23.556 l 97.89 96.9 c 5.558 5.502 14.605 5.455 20.1 -0.101 l 36.26 -36.63 c 5.504 -5.559 14.503 -14.651 20 -20.21 l 36.26 -36.629 c 5.502 -5.56 5.455 -14.606 -0.101 -20.11 z m -178.09 -50.74 c -7.198 0 -13.03 -5.835 -13.03 -13.03 0 -7.197 5.835 -13.03 13.03 -13.03 7.197 0 13.03 5.835 13.03 13.03 -0.001 7.198 -5.836 13.03 -13.03 13.03 z" id="0"/><use id="1" xlink:href="#0"/><clipPath id="2"><use xlink:href="#0"/></clipPath><clipPath style="clip-path:url(#2)"><use xlink:href="#1"/></clipPath><clipPath style="clip-path:url(#2)"><use xlink:href="#1"/></clipPath></defs><g transform="translate(0 -796.36)" style="fill:#2c2c2c"><path d="m 211.94 1003.24 c -103.59 136.25 -294.03 -46.613 -173.03 -165.93 103.41 -120.34 306.63 51.831 173.03 165.93 z" style="fill:#fff;color:#000"/><text x="128" y="923.97" line-height="125%" style="letter-spacing:0;word-spacing:0;font-size:40;font-family:Sans;fill:#000"><tspan x="128" y="923.97"/></text><path d="m 86.4 164.5 c 0 -0.21 -0.946 -0.382 -2.103 -0.382 -1.615 0 -2.103 -0.133 -2.103 -0.574 0 -0.357 -0.361 -0.574 -0.956 -0.574 -0.526 0 -0.956 -0.172 -0.956 -0.382 0 -0.21 -0.43 -0.382 -0.956 -0.382 -0.595 0 -0.956 -0.217 -0.956 -0.574 0 -0.315 -0.258 -0.574 -0.574 -0.574 -0.315 0 -0.574 -0.258 -0.574 -0.574 0 -0.315 -0.184 -0.574 -0.41 -0.574 -0.679 0 -1.502 -1.04 -1.502 -1.897 0 -0.442 -0.258 -0.903 -0.574 -1.024 -0.427 -0.164 -0.574 -0.844 -0.574 -2.665 0 -1.375 -0.167 -2.445 -0.382 -2.445 -0.21 0 -0.382 -0.602 -0.382 -1.338 0 -0.736 0.172 -1.338 0.382 -1.338 0.23 0 0.382 -1.539 0.382 -3.851 0 -2.913 0.14 -3.991 0.574 -4.425 0.337 -0.337 0.574 -1.272 0.574 -2.267 0 -0.931 0.172 -1.693 0.382 -1.693 0.21 0 0.382 -0.688 0.382 -1.53 0 -1.105 0.159 -1.53 0.574 -1.53 0.403 0 0.574 -0.407 0.574 -1.366 0 -0.751 0.258 -1.624 0.574 -1.939 0.315 -0.315 0.574 -0.991 0.574 -1.502 0 -0.511 0.172 -0.929 0.382 -0.929 0.21 0 0.382 -0.688 0.382 -1.53 0 -1.105 0.159 -1.53 0.574 -1.53 0.414 0 0.574 -0.425 0.574 -1.53 0 -1.105 0.159 -1.53 0.574 -1.53 0.401 0 0.574 -0.404 0.574 -1.338 0 -0.736 0.172 -1.338 0.382 -1.338 0.21 0 0.382 -0.932 0.382 -2.071 0 -1.292 0.176 -2.13 0.467 -2.227 0.295 -0.099 0.522 -1.234 0.615 -3.091 0.082 -1.614 0.301 -2.935 0.489 -2.935 0.187 0 0.341 -0.946 0.341 -2.103 0 -1.988 -0.052 -2.103 -0.956 -2.103 -0.562 0 -0.956 0.219 -0.956 0.532 0 0.293 -0.43 0.64 -0.956 0.772 -0.526 0.132 -0.956 0.409 -0.956 0.615 0 0.206 -0.258 0.375 -0.574 0.375 -0.315 0 -0.574 0.153 -0.574 0.341 0 0.188 -0.43 0.449 -0.956 0.581 -0.526 0.132 -0.956 0.409 -0.956 0.615 0 0.206 -0.258 0.375 -0.574 0.375 -0.315 0 -0.574 0.258 -0.574 0.574 0 0.315 -0.179 0.574 -0.399 0.574 -0.375 0 -0.808 0.299 -2.073 1.434 -0.293 0.263 -0.717 0.478 -0.943 0.478 -0.225 0 -0.41 0.172 -0.41 0.382 0 0.21 -0.258 0.382 -0.574 0.382 -0.315 0 -0.574 0.166 -0.574 0.369 0 0.5 -2.169 2.69 -2.664 2.69 -0.217 0 -0.395 0.258 -0.395 0.574 0 0.315 -0.184 0.574 -0.41 0.574 -0.529 0 -1.502 0.973 -1.502 1.502 0 0.225 -0.258 0.41 -0.574 0.41 -0.315 0 -0.574 0.184 -0.574 0.41 0 0.529 -0.973 1.502 -1.502 1.502 -0.225 0 -0.41 0.258 -0.41 0.574 0 0.315 -0.258 0.574 -0.574 0.574 -0.315 0 -0.574 0.178 -0.574 0.395 0 0.4 -2.147 2.664 -2.526 2.664 -0.365 0 -1.298 1.08 -1.298 1.502 0 0.225 -0.258 0.41 -0.574 0.41 -0.315 0 -0.574 0.184 -0.574 0.41 0 0.529 -0.973 1.502 -1.502 1.502 -0.225 0 -0.41 0.258 -0.41 0.574 0 0.357 -0.361 0.574 -0.956 0.574 -0.526 0 -0.956 0.184 -0.956 0.41 0 0.529 -0.973 1.502 -1.502 1.502 -0.225 0 -0.41 0.258 -0.41 0.574 0 0.315 -0.258 0.574 -0.574 0.574 -0.315 0 -0.574 0.172 -0.574 0.382 0 0.21 -0.43 0.382 -0.956 0.382 -0.595 0 -0.956 0.217 -0.956 0.574 0 0.382 -0.382 0.574 -1.147 0.574 -0.765 0 -1.147 0.191 -1.147 0.574 0 0.401 -0.404 0.574 -1.338 0.574 -0.736 0 -1.338 0.172 -1.338 0.382 0 0.233 -1.721 0.382 -4.397 0.382 -2.677 0 -4.397 -0.15 -4.397 -0.382 0 -0.21 -0.516 -0.382 -1.147 -0.382 -0.765 0 -1.147 -0.191 -1.147 -0.574 0 -0.315 -0.184 -0.574 -0.41 -0.574 -0.225 0 -0.65 -0.215 -0.943 -0.478 -1.245 -1.117 -1.695 -1.434 -2.032 -1.434 -0.196 0 -0.465 -0.43 -0.597 -0.956 -0.132 -0.526 -0.409 -0.956 -0.615 -0.956 -0.206 0 -0.375 -0.244 -0.375 -0.542 0 -0.298 -0.215 -0.613 -0.478 -0.701 -0.664 -0.221 -0.651 -7.622 0.013 -7.843 0.256 -0.085 0.465 -0.571 0.465 -1.079 0 -0.508 0.169 -0.924 0.375 -0.924 0.206 0 0.483 -0.43 0.615 -0.956 0.132 -0.526 0.479 -0.956 0.772 -0.956 0.293 0 0.532 -0.172 0.532 -0.382 0 -0.582 2.876 -3.332 3.786 -3.621 0.441 -0.14 0.803 -0.415 0.803 -0.611 0 -0.196 0.258 -0.357 0.574 -0.357 0.315 0 0.574 -0.258 0.574 -0.574 0 -0.357 0.361 -0.574 0.956 -0.574 0.526 0 0.956 -0.172 0.956 -0.382 0 -0.21 0.504 -0.382 1.12 -0.382 0.616 0 1.378 -0.258 1.693 -0.574 0.343 -0.343 1.278 -0.574 2.322 -0.574 1.299 0 1.748 -0.147 1.748 -0.574 0 -0.44 0.489 -0.574 2.103 -0.574 1.157 0 2.103 -0.172 2.103 -0.382 0 -0.21 0.676 -0.382 1.502 -0.382 0.826 0 1.76 -0.258 2.076 -0.574 0.359 -0.359 1.299 -0.574 2.513 -0.574 1.067 0 1.939 -0.172 1.939 -0.382 0 -0.21 0.934 -0.382 2.076 -0.382 1.239 0 2.285 -0.209 2.595 -0.519 0.286 -0.286 1.537 -0.604 2.78 -0.707 1.243 -0.103 2.327 -0.386 2.408 -0.628 0.084 -0.252 0.949 -0.44 2.027 -0.44 1.034 0 1.88 -0.172 1.88 -0.382 0 -0.21 0.504 -0.382 1.12 -0.382 0.616 0 1.378 -0.258 1.693 -0.574 0.315 -0.315 1.188 -0.574 1.939 -0.574 0.751 0 1.366 -0.172 1.366 -0.382 0 -0.21 0.416 -0.382 0.925 -0.382 1.32 0 2.134 -0.38 2.134 -0.997 0 -0.293 0.172 -0.533 0.382 -0.533 0.21 0 0.382 -0.172 0.382 -0.382 0 -0.21 -0.326 -0.382 -0.724 -0.382 -0.398 0 -0.823 -0.258 -0.944 -0.574 -0.121 -0.315 -0.656 -0.574 -1.188 -0.574 -0.532 0 -0.968 -0.172 -0.968 -0.382 0 -0.21 -0.602 -0.382 -1.338 -0.382 -0.935 0 -1.338 -0.173 -1.338 -0.574 0 -0.412 -0.42 -0.574 -1.489 -0.574 -0.97 0 -1.565 -0.2 -1.709 -0.574 -0.145 -0.379 -0.744 -0.574 -1.762 -0.574 -0.848 0 -1.542 -0.172 -1.542 -0.382 0 -0.212 -1.01 -0.382 -2.253 -0.382 -1.65 0 -2.312 -0.154 -2.474 -0.574 -0.155 -0.403 -0.783 -0.574 -2.112 -0.574 -1.107 0 -1.954 -0.186 -2.042 -0.448 -0.084 -0.252 -1.188 -0.523 -2.517 -0.62 -1.302 -0.094 -2.368 -0.323 -2.368 -0.508 0 -0.185 -0.873 -0.336 -1.939 -0.336 -1.214 0 -2.154 -0.215 -2.513 -0.574 -0.315 -0.315 -1.25 -0.574 -2.076 -0.574 -0.826 0 -1.502 -0.172 -1.502 -0.382 0 -0.21 -0.842 -0.382 -1.871 -0.382 -1.31 0 -1.937 -0.172 -2.091 -0.574 -0.138 -0.36 -0.723 -0.574 -1.57 -0.574 -0.945 0 -1.35 -0.172 -1.35 -0.574 0 -0.382 -0.382 -0.574 -1.147 -0.574 -0.631 0 -1.147 -0.172 -1.147 -0.382 0 -0.21 -0.43 -0.382 -0.956 -0.382 -0.526 0 -0.956 -0.16 -0.956 -0.357 0 -0.196 -0.379 -0.477 -0.843 -0.624 -0.984 -0.312 -1.834 -1.086 -1.834 -1.669 0 -0.225 -0.184 -0.41 -0.41 -0.41 -0.529 0 -1.502 -0.973 -1.502 -1.502 0 -0.225 -0.258 -0.41 -0.574 -0.41 -0.315 0 -0.574 -0.258 -0.574 -0.574 0 -0.315 -0.258 -0.574 -0.574 -0.574 -0.352 0 -0.574 -0.358 -0.574 -0.924 0 -0.508 -0.196 -0.989 -0.436 -1.069 -0.642 -0.214 -0.682 -8.403 -0.042 -8.617 0.263 -0.088 0.478 -0.576 0.478 -1.084 0 -0.567 0.222 -0.924 0.574 -0.924 0.315 0 0.574 -0.258 0.574 -0.574 0 -0.315 0.258 -0.574 0.574 -0.574 0.315 0 0.574 -0.184 0.574 -0.41 0 -0.675 1.038 -1.502 1.885 -1.502 0.449 0 0.792 -0.248 0.792 -0.574 0 -0.382 0.382 -0.574 1.147 -0.574 0.631 0 1.147 -0.172 1.147 -0.382 0 -0.229 1.53 -0.382 3.824 -0.382 2.294 0 3.824 0.153 3.824 0.382 0 0.21 0.688 0.382 1.53 0.382 1.105 0 1.53 0.159 1.53 0.574 0 0.382 0.382 0.574 1.147 0.574 0.631 0 1.147 0.172 1.147 0.382 0 0.21 0.43 0.382 0.956 0.382 0.526 0 0.956 0.169 0.956 0.375 0 0.206 0.43 0.483 0.956 0.615 0.526 0.132 0.956 0.479 0.956 0.772 0 0.293 0.258 0.532 0.574 0.532 0.315 0 0.574 0.172 0.574 0.382 0 0.21 0.266 0.382 0.592 0.382 0.326 0 0.991 0.43 1.478 0.956 0.487 0.526 1.081 0.956 1.32 0.956 0.239 0 0.434 0.258 0.434 0.574 0 0.315 0.184 0.574 0.41 0.574 0.529 0 1.502 0.973 1.502 1.502 0 0.225 0.185 0.41 0.412 0.41 0.535 0 2.647 2.112 2.647 2.647 0 0.226 0.184 0.412 0.41 0.412 0.529 0 1.502 0.973 1.502 1.502 0 0.225 0.258 0.41 0.574 0.41 0.315 0 0.574 0.183 0.574 0.407 0 0.531 4.03 4.564 4.564 4.564 0.224 0 0.407 0.258 0.407 0.574 0 0.315 0.184 0.574 0.41 0.574 0.529 0 1.502 0.973 1.502 1.502 0 0.225 0.258 0.41 0.574 0.41 0.315 0 0.574 0.169 0.574 0.375 0 0.206 0.43 0.483 0.956 0.615 0.526 0.132 0.956 0.406 0.956 0.608 0 0.496 0.992 1.461 1.502 1.461 0.225 0 0.41 0.153 0.41 0.341 0 0.188 0.43 0.449 0.956 0.581 0.526 0.132 0.956 0.409 0.956 0.615 0 0.206 0.258 0.375 0.574 0.375 0.315 0 0.574 0.258 0.574 0.574 0 0.357 0.361 0.574 0.956 0.574 0.595 0 0.956 0.217 0.956 0.574 0 0.315 0.258 0.574 0.574 0.574 0.315 0 0.574 0.172 0.574 0.382 0 0.21 0.43 0.382 0.956 0.382 0.922 0 0.956 -0.089 0.956 -2.486 0 -1.367 -0.153 -2.486 -0.341 -2.486 -0.187 0 -0.407 -1.321 -0.489 -2.935 -0.094 -1.857 -0.32 -2.993 -0.615 -3.091 -0.283 -0.094 -0.467 -0.895 -0.467 -2.036 0 -1.034 -0.172 -1.88 -0.382 -1.88 -0.21 0 -0.382 -0.688 -0.382 -1.53 0 -1.105 -0.159 -1.53 -0.574 -1.53 -0.379 0 -0.574 -0.379 -0.574 -1.12 0 -0.616 -0.258 -1.378 -0.574 -1.693 -0.315 -0.315 -0.574 -1.188 -0.574 -1.939 0 -0.751 -0.172 -1.366 -0.382 -1.366 -0.21 0 -0.382 -0.418 -0.382 -0.929 0 -0.511 -0.258 -1.187 -0.574 -1.502 -0.315 -0.315 -0.574 -1.188 -0.574 -1.939 0 -0.959 -0.171 -1.366 -0.574 -1.366 -0.425 0 -0.574 -0.446 -0.574 -1.721 0 -0.946 -0.15 -1.721 -0.333 -1.721 -0.183 0 -0.424 -0.812 -0.536 -1.804 -0.112 -0.992 -0.392 -1.867 -0.623 -1.944 -0.247 -0.082 -0.42 -1.151 -0.42 -2.594 0 -1.381 -0.167 -2.454 -0.382 -2.454 -0.21 0 -0.382 -0.602 -0.382 -1.338 0 -0.736 0.172 -1.338 0.382 -1.338 0.216 0 0.382 -1.093 0.382 -2.513 0 -1.724 0.18 -2.693 0.574 -3.086 0.315 -0.315 0.574 -0.991 0.574 -1.502 0 -0.511 0.172 -0.929 0.382 -0.929 0.21 0 0.382 -0.344 0.382 -0.765 0 -0.421 0.184 -0.765 0.408 -0.765 0.224 0 0.976 -0.602 1.67 -1.338 0.694 -0.736 1.457 -1.338 1.695 -1.338 0.238 0 0.433 -0.172 0.433 -0.382 0 -0.21 0.246 -0.382 0.546 -0.382 0.3 0 0.775 -0.229 1.055 -0.509 0.28 -0.28 1.368 -0.626 2.417 -0.77 1.05 -0.144 1.966 -0.431 2.036 -0.638 0.175 -0.519 1.496 -0.477 1.673 0.054 0.079 0.237 1.04 0.517 2.135 0.622 1.34 0.129 1.991 0.363 1.991 0.716 0 0.289 0.258 0.525 0.574 0.525 0.315 0 0.574 0.172 0.574 0.382 0 0.21 0.43 0.382 0.956 0.382 0.526 0 0.956 0.184 0.956 0.41 0 0.225 0.215 0.65 0.478 0.943 1.189 1.326 1.434 1.712 1.434 2.264 0 0.324 0.172 0.59 0.382 0.59 0.21 0 0.382 0.35 0.382 0.777 0 0.427 0.237 0.868 0.526 0.979 0.362 0.139 0.609 1.268 0.793 3.621 0.147 1.88 0.427 3.419 0.621 3.419 0.486 0 0.449 1.817 -0.041 1.98 -0.217 0.072 -0.504 1.676 -0.637 3.564 -0.145 2.053 -0.447 3.637 -0.753 3.943 -0.281 0.281 -0.51 1.186 -0.51 2.01 0 0.826 -0.172 1.502 -0.382 1.502 -0.21 0 -0.382 0.615 -0.382 1.366 0 0.751 -0.258 1.624 -0.574 1.939 -0.315 0.315 -0.574 1.078 -0.574 1.693 0 0.616 -0.172 1.12 -0.382 1.12 -0.21 0 -0.382 0.615 -0.382 1.366 0 0.751 -0.258 1.624 -0.574 1.939 -0.315 0.315 -0.574 1 -0.574 1.53 0 0.526 -0.258 1.214 -0.574 1.53 -0.315 0.315 -0.574 1.25 -0.574 2.076 0 0.826 -0.172 1.502 -0.382 1.502 -0.21 0 -0.382 0.846 -0.382 1.88 0 1.098 -0.187 1.942 -0.448 2.03 -0.252 0.084 -0.523 1.188 -0.62 2.517 -0.094 1.302 -0.323 2.368 -0.508 2.368 -0.185 0 -0.336 1.377 -0.336 3.059 0 3.608 0.151 3.707 2.471 1.625 0.293 -0.263 0.803 -0.478 1.134 -0.478 0.33 0 0.601 -0.258 0.601 -0.574 0 -0.319 0.34 -0.574 0.765 -0.574 0.421 0 0.765 -0.172 0.765 -0.382 0 -0.21 0.258 -0.382 0.574 -0.382 0.315 0 0.574 -0.258 0.574 -0.574 0 -0.32 0.34 -0.574 0.77 -0.574 0.423 0 1.626 -0.86 2.672 -1.912 1.046 -1.052 2.076 -1.912 2.289 -1.912 0.213 0 0.387 -0.258 0.387 -0.574 0 -0.315 0.258 -0.574 0.574 -0.574 0.315 0 0.574 -0.184 0.574 -0.41 0 -0.529 0.973 -1.502 1.502 -1.502 0.225 0 0.41 -0.258 0.41 -0.574 0 -0.315 0.184 -0.574 0.41 -0.574 0.424 0 1.502 -0.934 1.502 -1.301 0 -0.272 3.398 -3.67 3.67 -3.67 0.269 0 1.301 -1.029 1.301 -1.298 0 -0.379 2.264 -2.526 2.664 -2.526 0.217 0 0.395 -0.258 0.395 -0.574 0 -0.315 0.258 -0.574 0.574 -0.574 0.315 0 0.574 -0.184 0.574 -0.41 0 -0.529 0.973 -1.502 1.502 -1.502 0.225 0 0.41 -0.258 0.41 -0.574 0 -0.326 0.343 -0.574 0.794 -0.574 0.437 0 1.292 -0.473 1.9 -1.052 1.904 -1.811 2.219 -2.01 3.217 -2.01 0.535 0 0.972 -0.172 0.972 -0.382 0 -0.21 0.43 -0.382 0.956 -0.382 0.595 0 0.956 -0.217 0.956 -0.574 0 -0.462 0.595 -0.574 3.059 -0.574 1.784 0 3.059 -0.159 3.059 -0.382 0 -0.21 0.43 -0.382 0.956 -0.382 0.526 0 0.956 0.172 0.956 0.382 0 0.21 0.946 0.382 2.103 0.382 1.157 0 2.103 0.169 2.103 0.375 0 0.206 0.43 0.483 0.956 0.615 0.526 0.132 0.956 0.393 0.956 0.581 0 0.188 0.184 0.341 0.41 0.341 0.529 0 1.502 0.973 1.502 1.502 0 0.225 0.172 0.41 0.382 0.41 0.21 0 0.382 0.258 0.382 0.574 0 0.315 0.239 0.574 0.532 0.574 0.293 0 0.64 0.43 0.772 0.956 0.132 0.526 0.409 0.956 0.615 0.956 0.221 0 0.375 1.645 0.375 4.02 0 2.228 -0.159 4.02 -0.357 4.02 -0.196 0 -0.474 0.371 -0.618 0.824 -0.144 0.453 -0.672 1.205 -1.173 1.669 -0.501 0.464 -0.911 1.212 -0.911 1.661 0 0.471 -0.243 0.817 -0.574 0.817 -0.315 0 -0.574 0.258 -0.574 0.574 0 0.357 -0.361 0.574 -0.956 0.574 -0.526 0 -0.956 0.172 -0.956 0.382 0 0.21 -0.258 0.382 -0.574 0.382 -0.315 0 -0.574 0.258 -0.574 0.574 0 0.401 -0.404 0.574 -1.338 0.574 -0.736 0 -1.338 0.153 -1.338 0.341 0 0.188 -0.43 0.449 -0.956 0.581 -0.526 0.132 -0.956 0.409 -0.956 0.615 0 0.206 -0.504 0.375 -1.12 0.375 -0.616 0 -1.378 0.258 -1.693 0.574 -0.315 0.315 -1.188 0.574 -1.939 0.574 -0.751 0 -1.366 0.172 -1.366 0.382 0 0.21 -0.676 0.382 -1.502 0.382 -0.826 0 -1.76 0.258 -2.076 0.574 -0.359 0.359 -1.299 0.574 -2.513 0.574 -1.067 0 -1.939 0.172 -1.939 0.382 0 0.21 -0.676 0.382 -1.502 0.382 -0.826 0 -1.76 0.258 -2.076 0.574 -0.357 0.357 -1.296 0.574 -2.486 0.574 -1.19 0 -2.129 0.217 -2.486 0.574 -0.359 0.359 -1.299 0.574 -2.513 0.574 -1.067 0 -1.939 0.15 -1.939 0.334 0 0.184 -0.896 0.42 -1.991 0.525 -1.095 0.105 -2.056 0.385 -2.135 0.622 -0.079 0.237 -0.818 0.431 -1.641 0.431 -1.076 0 -1.498 0.161 -1.498 0.574 0 0.414 -0.425 0.574 -1.53 0.574 -0.841 0 -1.53 0.172 -1.53 0.382 0 0.21 -0.602 0.382 -1.338 0.382 -0.935 0 -1.338 0.173 -1.338 0.574 0 0.357 -0.361 0.574 -0.956 0.574 -0.526 0 -0.956 0.094 -0.956 0.209 0 0.564 2.133 2.085 2.924 2.085 0.495 0 0.9 0.172 0.9 0.382 0 0.21 0.442 0.382 0.983 0.382 0.541 0 1.241 0.258 1.557 0.574 0.315 0.315 0.991 0.574 1.502 0.574 0.511 0 0.929 0.172 0.929 0.382 0 0.21 0.842 0.382 1.871 0.382 1.31 0 1.937 0.172 2.091 0.574 0.152 0.395 0.768 0.574 1.98 0.574 1.055 0 1.99 0.23 2.334 0.574 0.369 0.369 1.314 0.574 2.649 0.574 1.142 0 2.076 0.172 2.076 0.382 0 0.216 1.093 0.382 2.513 0.382 1.724 0 2.693 0.18 3.086 0.574 0.315 0.315 1.25 0.574 2.076 0.574 0.826 0 1.502 0.172 1.502 0.382 0 0.21 0.86 0.382 1.912 0.382 1.445 0 1.912 0.14 1.912 0.574 0 0.403 0.407 0.574 1.366 0.574 0.751 0 1.624 0.258 1.939 0.574 0.315 0.315 1.078 0.574 1.693 0.574 0.616 0 1.12 0.172 1.12 0.382 0 0.21 0.688 0.382 1.53 0.382 1.105 0 1.53 0.159 1.53 0.574 0 0.315 0.184 0.574 0.41 0.574 0.225 0 0.65 0.215 0.943 0.478 1.265 1.135 1.698 1.434 2.073 1.434 0.219 0 0.399 0.172 0.399 0.382 0 0.21 0.258 0.382 0.574 0.382 0.315 0 0.574 0.258 0.574 0.574 0 0.315 0.184 0.574 0.41 0.574 0.542 0 1.502 0.978 1.502 1.53 0 0.24 0.215 0.677 0.478 0.97 1.168 1.302 1.418 1.7 1.651 2.63 0.136 0.544 0.402 0.989 0.589 0.989 0.188 0 0.341 1.272 0.341 2.827 0 2.16 -0.135 2.879 -0.574 3.047 -0.315 0.121 -0.574 0.551 -0.574 0.956 0 0.405 -0.258 0.835 -0.574 0.956 -0.315 0.121 -0.574 0.484 -0.574 0.806 0 0.322 -0.172 0.586 -0.382 0.586 -0.21 0 -0.382 0.326 -0.382 0.723 0 0.453 -0.358 0.813 -0.956 0.963 -0.526 0.132 -0.956 0.409 -0.956 0.615 0 0.206 -0.258 0.375 -0.574 0.375 -0.315 0 -0.574 0.258 -0.574 0.574 0 0.357 -0.361 0.574 -0.956 0.574 -0.526 0 -0.956 0.172 -0.956 0.382 0 0.233 -1.721 0.382 -4.397 0.382 -2.677 0 -4.397 -0.15 -4.397 -0.382 0 -0.21 -0.516 -0.382 -1.147 -0.382 -0.765 0 -1.147 -0.191 -1.147 -0.574 0 -0.397 -0.399 -0.574 -1.297 -0.574 -0.801 0 -1.382 -0.22 -1.518 -0.574 -0.121 -0.315 -0.656 -0.574 -1.188 -0.574 -0.532 0 -0.968 -0.172 -0.968 -0.382 0 -0.21 -0.258 -0.382 -0.574 -0.382 -0.315 0 -0.574 -0.16 -0.574 -0.357 0 -0.196 -0.344 -0.466 -0.765 -0.599 -0.421 -0.134 -0.765 -0.489 -0.765 -0.791 0 -0.301 -0.258 -0.548 -0.574 -0.548 -0.315 0 -0.574 -0.172 -0.574 -0.382 0 -0.21 -0.195 -0.382 -0.433 -0.382 -0.238 0 -0.98 -0.58 -1.649 -1.29 -0.669 -0.709 -1.593 -1.409 -2.053 -1.555 -0.46 -0.146 -0.836 -0.512 -0.836 -0.813 0 -0.301 -0.184 -0.548 -0.41 -0.548 -0.583 0 -1.356 -0.85 -1.669 -1.834 -0.147 -0.463 -0.514 -0.843 -0.815 -0.843 -0.301 0 -0.548 -0.22 -0.548 -0.489 0 -0.269 -0.344 -0.737 -0.765 -1.04 -0.421 -0.303 -0.765 -0.771 -0.765 -1.04 0 -0.269 -0.258 -0.489 -0.574 -0.489 -0.315 0 -0.574 -0.185 -0.574 -0.412 0 -0.535 -2.112 -2.647 -2.647 -2.647 -0.226 0 -0.412 -0.184 -0.412 -0.41 0 -0.529 -0.973 -1.502 -1.502 -1.502 -0.225 0 -0.41 -0.258 -0.41 -0.574 0 -0.315 -0.258 -0.574 -0.574 -0.574 -0.315 0 -0.574 -0.258 -0.574 -0.574 0 -0.315 -0.18 -0.574 -0.4 -0.574 -0.22 0 -0.83 -0.43 -1.356 -0.956 -0.526 -0.526 -1.206 -0.956 -1.512 -0.956 -0.306 0 -0.556 -0.172 -0.556 -0.382 0 -0.21 -0.258 -0.382 -0.574 -0.382 -0.315 0 -0.574 -0.258 -0.574 -0.574 0 -0.315 -0.179 -0.574 -0.399 -0.574 -0.375 0 -0.808 -0.299 -2.073 -1.434 -0.293 -0.263 -0.625 -0.478 -0.738 -0.478 -0.113 0 -0.733 -0.516 -1.379 -1.147 -2.054 -2.01 -2.294 -1.687 -2.294 3.059 0 2.549 0.151 4.206 0.382 4.206 0.21 0 0.382 0.848 0.382 1.885 0 1.165 0.219 2.104 0.574 2.458 0.322 0.322 0.574 1.256 0.574 2.13 0 0.856 0.172 1.557 0.382 1.557 0.21 0 0.382 0.608 0.382 1.35 0 0.848 0.214 1.432 0.574 1.57 0.355 0.136 0.574 0.718 0.574 1.53 0 0.811 0.218 1.393 0.574 1.53 0.389 0.149 0.574 0.76 0.574 1.9 0 0.924 0.149 1.68 0.332 1.68 0.183 0 0.43 0.728 0.549 1.617 0.119 0.889 0.4 1.678 0.624 1.753 0.224 0.075 0.407 0.982 0.407 2.02 0 1.034 0.15 1.88 0.334 1.88 0.184 0 0.418 0.879 0.521 1.953 0.103 1.074 0.357 2.063 0.564 2.199 0.207 0.135 0.487 1.708 0.621 3.495 0.134 1.787 0.419 3.307 0.632 3.378 0.499 0.166 0.506 1.874 0.008 2.041 -0.208 0.07 -0.491 1.203 -0.628 2.517 -0.171 1.636 -0.413 2.39 -0.769 2.39 -0.299 0 -0.519 0.406 -0.519 0.956 0 0.526 -0.172 0.956 -0.382 0.956 -0.21 0 -0.382 0.258 -0.382 0.574 0 0.315 -0.169 0.574 -0.375 0.574 -0.206 0 -0.483 0.43 -0.615 0.956 -0.132 0.526 -0.393 0.956 -0.581 0.956 -0.188 0 -0.341 0.258 -0.341 0.574 0 0.357 -0.361 0.574 -0.956 0.574 -0.526 0 -0.956 0.172 -0.956 0.382 0 0.21 -0.258 0.382 -0.574 0.382 -0.315 0 -0.574 0.258 -0.574 0.574 0 0.433 -0.467 0.574 -1.912 0.574 -1.052 0 -1.912 0.172 -1.912 0.382 0 0.21 -0.43 0.382 -0.956 0.382 -0.526 0 -0.956 -0.172 -0.956 -0.382 z" transform="translate(0 796.36)" style="fill:#ff4500;fill-rule:evenodd"/></g></svg>