<svg xmlns="http://www.w3.org/2000/svg" xmlns:xlink="http://www.w3.org/1999/xlink" viewBox="0 0 256 256"><defs><path id="0" d="m 245.46 129.52 l -97.89 -96.9 c -5.556 -5.502 -16.222 -11.873 -23.7 -14.16 l -39.518 -12.08 c -7.479 -2.286 -18.1 0.391 -23.599 5.948 l -13.441 13.578 c -5.5 5.559 -14.502 14.653 -20 20.21 l -13.44 13.579 c -5.5 5.558 -8.07 16.206 -5.706 23.658 l 12.483 39.39 c 2.363 7.456 8.843 18.06 14.399 23.556 l 97.89 96.9 c 5.558 5.502 14.605 5.455 20.1 -0.101 l 36.26 -36.63 c 5.504 -5.559 14.503 -14.651 20 -20.21 l 36.26 -36.629 c 5.502 -5.56 5.455 -14.606 -0.101 -20.11 z m -178.09 -50.74 c -7.198 0 -13.03 -5.835 -13.03 -13.03 0 -7.197 5.835 -13.03 13.03 -13.03 7.197 0 13.03 5.835 13.03 13.03 -0.001 7.198 -5.836 13.03 -13.03 13.03 z"/><use id="1" xlink:href="#0"/><clipPath id="2"><use xlink:href="#1"/></clipPath><clipPath style="clip-path:url(#2)"><use xlink:href="#0"/></clipPath><clipPath><path transform="matrix(15.33333 0 0 11.5 415 -125.5)" d="m -24 13 c 0 1.105 -0.672 2 -1.5 2 -0.828 0 -1.5 -0.895 -1.5 -2 0 -1.105 0.672 -2 1.5 -2 0.828 0 1.5 0.895 1.5 2 z"/></clipPath><clipPath style="clip-path:url(#2)"><use xlink:href="#0"/></clipPath></defs><path d="M 42.39,839.12 C 147.93,711.99 338.45,898.111 216.74,1010.61 112,1123.35 -91.3,947.39 42.39,839.12 z" transform="matrix(0.9814 0 0 1.01456 3.519 -806.71)" style="fill:#fff;color:#000"/><path d="m 136.34 191.49 v -0.499 h -4.986 h -4.986 v -0.499 v -0.499 h -1.911 h -1.911 v -0.499 v -0.499 h -3.49 h -3.49 v -0.499 v -0.499 h -2.493 h -2.493 v -0.582 c 0 -0.536 -0.04 -0.582 -0.499 -0.582 -0.443 0 -0.499 -0.055 -0.499 -0.499 v -0.499 h -1.402 h -1.402 l -0.053 -0.457 c -0.052 -0.456 -0.057 -0.457 -1.507 -0.505 l -1.454 -0.048 v -0.492 c 0 -0.491 -0.003 -0.492 -0.997 -0.492 -0.997 0 -0.997 0 -0.997 -0.499 0 -0.443 -0.055 -0.499 -0.499 -0.499 -0.443 0 -0.499 -0.055 -0.499 -0.499 0 -0.443 -0.055 -0.499 -0.499 -0.499 -0.443 0 -0.499 -0.055 -0.499 -0.499 0 -0.443 -0.055 -0.499 -0.499 -0.499 -0.499 0 -0.499 0 -0.499 -0.997 0 -0.997 0 -0.997 -0.499 -0.997 h -0.499 v -3.075 v -3.075 h -7.479 h -7.479 v -0.499 c 0 -0.443 -0.055 -0.499 -0.499 -0.499 -0.443 0 -0.499 -0.055 -0.499 -0.499 v -0.499 h -3.407 h -3.407 v -0.499 v -0.499 h -2.41 h -2.41 v -0.499 c 0 -0.498 -0.001 -0.499 -0.987 -0.499 h -0.987 l -0.052 -0.54 c -0.046 -0.475 -0.117 -0.546 -0.592 -0.592 -0.438 -0.042 -0.54 -0.124 -0.54 -0.435 0 -0.314 -0.113 -0.402 -0.623 -0.486 -0.343 -0.057 -0.978 -0.104 -1.413 -0.105 -0.766 -0.002 -0.789 -0.017 -0.789 -0.5 0 -0.499 0 -0.499 -0.997 -0.499 h -0.997 v -0.997 c 0 -0.997 0 -0.997 -0.499 -0.997 h -0.499 v -2.493 v -2.493 h 0.499 h 0.499 v -4.57 v -4.57 h 0.499 c 0.499 0 0.499 0 0.499 -0.997 0 -0.938 0.023 -0.997 0.393 -0.997 0.341 0 0.407 -0.101 0.499 -0.771 0.058 -0.424 0.106 -1.808 0.106 -3.075 v -2.304 h 0.499 c 0.443 0 0.499 -0.055 0.499 -0.499 0 -0.494 0.009 -0.499 0.914 -0.499 0.905 0 0.914 -0.005 0.914 -0.499 0 -0.459 0.046 -0.499 0.582 -0.499 0.536 0 0.582 -0.04 0.582 -0.499 0 -0.499 0 -0.499 0.997 -0.499 0.997 0 0.997 0 0.997 -0.499 v -0.499 h 1.413 h 1.413 v -0.499 c 0 -0.478 0.03 -0.499 0.725 -0.499 0.399 0 1.072 -0.048 1.496 -0.106 0.67 -0.092 0.771 -0.157 0.771 -0.499 0 -0.326 0.085 -0.393 0.499 -0.393 0.459 0 0.499 -0.046 0.499 -0.582 v -0.582 h 1.496 h 1.496 v -0.499 v -0.499 h 1.413 h 1.413 v -0.499 c 0 -0.498 0.002 -0.499 0.981 -0.499 h 0.981 l 0.116 -0.997 l 0.116 -0.997 h 1.479 h 1.479 v -6.648 v -6.648 h -0.499 c -0.478 0 -0.499 -0.03 -0.499 -0.725 0 -0.399 -0.048 -1.072 -0.106 -1.496 -0.09 -0.659 -0.16 -0.771 -0.482 -0.771 -0.337 0 -0.389 -0.106 -0.492 -0.997 l -0.116 -0.997 h -0.898 h -0.898 v -3.573 v -3.573 h -0.499 h -0.499 v -6.066 v -6.066 h 0.499 h 0.499 v -1.496 v -1.496 h 0.499 c 0.443 0 0.499 -0.055 0.499 -0.499 0 -0.443 0.055 -0.499 0.499 -0.499 0.459 0 0.499 -0.046 0.499 -0.582 0 -0.507 0.053 -0.582 0.407 -0.582 0.374 0 0.416 -0.08 0.52 -0.997 0.109 -0.961 0.13 -0.997 0.59 -0.997 0.419 0 0.477 -0.06 0.477 -0.499 0 -0.494 0.009 -0.499 0.914 -0.499 0.905 0 0.914 -0.005 0.914 -0.499 0 -0.443 0.055 -0.499 0.499 -0.499 0.443 0 0.499 -0.055 0.499 -0.499 0 -0.499 0 -0.499 0.997 -0.499 0.997 0 0.997 0 0.997 -0.499 v -0.499 h 5.401 h 5.401 v 0.499 c 0 0.499 0 0.499 0.997 0.499 0.997 0 0.997 0 0.997 0.499 0 0.443 0.055 0.499 0.499 0.499 0.443 0 0.499 0.055 0.499 0.499 0 0.499 0 0.499 0.997 0.499 0.997 0 0.997 0 0.997 0.499 0 0.499 0 0.499 0.997 0.499 h 0.997 v 1.08 v 1.08 h 0.499 c 0.499 0 0.499 0 0.499 0.997 0 0.997 0 0.997 0.499 0.997 h 0.499 v 1.994 v 1.994 h 0.499 c 0.443 0 0.499 0.055 0.499 0.499 0 0.443 0.055 0.499 0.499 0.499 h 0.499 v 4.072 v 4.072 h -0.499 c -0.499 0 -0.499 0 -0.499 0.997 0 0.997 0 0.997 -0.499 0.997 h -0.499 v 3.573 v 3.573 h -0.499 c -0.499 0 -0.499 0 -0.499 0.997 0 0.997 0 0.997 -0.499 0.997 -0.499 0 -0.499 0 -0.499 0.997 0 0.997 0 0.997 -0.499 0.997 -0.499 0 -0.499 0 -0.499 0.997 0 0.997 0 0.997 -0.499 0.997 h -0.499 v 5.651 v 5.651 h 0.499 c 0.443 0 0.499 0.055 0.499 0.499 0 0.499 0 0.499 0.997 0.499 0.997 0 0.997 0 0.997 0.499 0 0.443 0.055 0.499 0.499 0.499 0.443 0 0.499 0.055 0.499 0.499 0 0.499 0 0.499 0.997 0.499 0.997 0 0.997 0 0.997 0.499 0 0.499 0 0.499 0.997 0.499 0.997 0 0.997 0 0.997 0.499 v 0.499 h 1.402 h 1.402 l 0.052 0.54 c 0.043 0.447 0.129 0.549 0.499 0.592 0.345 0.04 0.459 0.153 0.499 0.499 0.051 0.443 0.066 0.447 1.495 0.495 1.433 0.048 1.444 0.051 1.496 0.499 l 0.052 0.451 l 2.95 0.045 l 2.95 0.045 v -0.502 v -0.502 h 0.997 c 0.997 0 0.997 0 0.997 -0.499 0 -0.443 0.055 -0.499 0.499 -0.499 0.459 0 0.499 -0.046 0.499 -0.582 0 -0.536 0.04 -0.582 0.499 -0.582 h 0.499 v -5.568 v -5.568 h -0.499 c -0.443 0 -0.499 -0.055 -0.499 -0.499 0 -0.443 -0.055 -0.499 -0.499 -0.499 -0.443 0 -0.499 -0.055 -0.499 -0.499 0 -0.443 -0.055 -0.499 -0.499 -0.499 -0.499 0 -0.499 0 -0.499 -0.997 0 -0.997 0 -0.997 -0.499 -0.997 -0.459 0 -0.499 -0.046 -0.499 -0.582 0 -0.536 -0.04 -0.582 -0.499 -0.582 -0.443 0 -0.499 -0.055 -0.499 -0.499 0 -0.443 -0.055 -0.499 -0.499 -0.499 -0.443 0 -0.499 -0.055 -0.499 -0.499 0 -0.443 -0.055 -0.499 -0.499 -0.499 h -0.499 v -1.496 v -1.496 h -0.499 h -0.499 v -1.994 v -1.994 h -0.415 c -0.414 0 -0.415 -0.006 -0.415 -1.579 v -1.579 h -0.499 h -0.499 l -0.002 -3.365 c -0.001 -1.851 -0.048 -3.643 -0.104 -3.983 -0.102 -0.614 -0.107 -0.618 -1.078 -0.728 -0.885 -0.1 -0.976 -0.147 -0.976 -0.504 0 -0.309 -0.089 -0.394 -0.415 -0.394 h -0.415 v -3.075 v -3.075 h -0.499 h -0.499 v -4.57 v -4.57 h -0.499 h -0.499 v -3.301 c 0 -1.815 -0.048 -3.648 -0.106 -4.072 l -0.106 -0.771 h 0.521 c 0.468 0 0.521 0.051 0.521 0.499 0 0.443 0.055 0.499 0.499 0.499 0.443 0 0.499 0.055 0.499 0.499 0 0.441 0.056 0.499 0.491 0.499 0.486 0 0.491 0.01 0.54 1.039 0.047 0.995 0.069 1.041 0.507 1.091 0.441 0.051 0.457 0.086 0.457 1.039 0 0.98 0.003 0.986 0.488 0.986 0.408 0 0.496 0.074 0.54 0.457 0.063 0.547 0.383 0.624 1.914 0.46 l 1.048 -0.112 v -1.399 v -1.399 h 0.499 c 0.439 0 0.499 -0.057 0.499 -0.482 0 -0.466 0.034 -0.486 0.997 -0.598 l 0.997 -0.116 v -0.981 v -0.981 h 0.997 c 0.997 0 0.997 0 0.997 -0.499 0 -0.443 0.055 -0.499 0.499 -0.499 0.443 0 0.499 -0.055 0.499 -0.499 0 -0.443 0.055 -0.499 0.499 -0.499 0.443 0 0.499 -0.055 0.499 -0.499 0 -0.499 0 -0.499 0.997 -0.499 0.997 0 0.997 0 0.997 -0.499 v -0.499 l 1.288 -0.002 c 2 -0.003 2.535 -0.13 2.535 -0.602 v -0.394 h 6.897 h 6.897 v 0.499 v 0.499 h 1.496 h 1.496 v 0.499 c 0 0.499 0 0.499 0.997 0.499 0.997 0 0.997 0 0.997 0.499 0 0.443 0.055 0.499 0.499 0.499 0.443 0 0.499 0.055 0.499 0.499 0 0.499 0 0.499 0.997 0.499 0.997 0 0.997 0 0.997 0.499 0 0.443 0.055 0.499 0.499 0.499 0.443 0 0.499 0.055 0.499 0.499 0 0.443 0.055 0.499 0.499 0.499 0.459 0 0.499 0.046 0.499 0.582 0 0.536 0.04 0.582 0.499 0.582 0.443 0 0.499 0.055 0.499 0.499 0 0.443 0.055 0.499 0.499 0.499 0.443 0 0.499 0.055 0.499 0.499 0 0.443 0.055 0.499 0.499 0.499 0.499 0 0.499 0 0.499 0.997 v 0.997 h 0.997 c 0.997 0 0.997 0 0.997 -0.499 0 -0.443 0.055 -0.499 0.499 -0.499 0.443 0 0.499 -0.055 0.499 -0.499 0 -0.443 0.055 -0.499 0.499 -0.499 0.499 0 0.499 0 0.499 -0.997 0 -0.997 0 -0.997 0.499 -0.997 h 0.499 v -1.08 v -1.08 h 0.499 c 0.443 0 0.499 -0.055 0.499 -0.499 0 -0.494 0.009 -0.499 0.914 -0.499 h 0.914 v 2.482 v 2.482 l -0.457 0.053 l -0.457 0.053 l -0.044 4.518 l -0.044 4.518 l -0.454 0.052 c -0.429 0.049 -0.457 0.105 -0.504 1.01 -0.046 0.873 -0.083 0.956 -0.434 0.956 -0.339 0 -0.396 0.102 -0.489 0.873 -0.058 0.48 -0.105 2.312 -0.106 4.072 l -0.001 3.199 h -0.914 h -0.914 v 2.576 v 2.576 h -0.499 c -0.443 0 -0.499 0.055 -0.499 0.499 0 0.443 -0.055 0.499 -0.499 0.499 h -0.499 v 3.573 v 3.573 h -0.499 h -0.499 v 1.994 v 1.994 h -0.499 c -0.459 0 -0.499 0.046 -0.499 0.582 0 0.536 -0.04 0.582 -0.499 0.582 -0.421 0 -0.499 0.065 -0.499 0.415 0 0.351 -0.078 0.415 -0.499 0.415 -0.499 0 -0.499 0 -0.499 0.997 0 0.997 0 0.997 -0.499 0.997 h -0.499 v 1.08 v 1.08 h -0.898 h -0.898 l -0.116 0.997 c -0.112 0.963 -0.132 0.997 -0.598 0.997 h -0.482 v 6.149 v 6.149 h 0.499 c 0.443 0 0.499 0.055 0.499 0.499 0 0.499 0 0.499 0.997 0.499 0.997 0 0.997 0 0.997 0.499 0 0.499 0 0.499 0.997 0.499 0.997 0 0.997 0 0.997 0.499 0 0.499 0 0.499 0.997 0.499 0.997 0 0.997 0 0.997 0.499 0 0.443 0.055 0.499 0.499 0.499 0.443 0 0.499 0.055 0.499 0.499 v 0.499 h 1.413 h 1.413 v 0.499 v 0.499 h 1.479 h 1.479 l 0.116 0.997 l 0.116 0.997 h 1.479 h 1.479 v 0.477 c 0 0.422 0.072 0.489 0.623 0.58 0.343 0.057 0.978 0.104 1.413 0.105 0.766 0.002 0.789 0.017 0.789 0.5 v 0.499 h 1.496 h 1.496 v 0.499 c 0 0.443 0.055 0.499 0.499 0.499 0.443 0 0.499 0.055 0.499 0.499 0 0.499 0 0.499 0.997 0.499 0.997 0 0.997 0 0.997 0.499 v 0.499 h 1.413 h 1.413 v 0.499 c 0 0.439 0.057 0.499 0.482 0.499 0.466 0 0.486 0.034 0.598 0.997 l 0.116 0.997 h 0.898 h 0.898 v 2.576 v 2.576 h 0.499 h 0.499 v 5.069 v 5.069 h 0.472 h 0.472 l 0.099 5.692 c 0.054 3.131 0.056 6.309 0.003 7.06 l -0.096 1.371 h -0.475 c -0.417 0 -0.475 0.061 -0.475 0.499 0 0.443 -0.055 0.499 -0.499 0.499 -0.443 0 -0.499 0.055 -0.499 0.499 0 0.443 -0.055 0.499 -0.499 0.499 -0.443 0 -0.499 0.055 -0.499 0.499 0 0.499 0 0.499 -0.997 0.499 -0.997 0 -0.997 0 -0.997 0.499 0 0.494 -0.009 0.499 -0.914 0.499 -0.905 0 -0.914 0.005 -0.914 0.499 v 0.499 h -1.223 c -0.673 0 -1.57 0.048 -1.994 0.106 -0.67 0.092 -0.771 0.157 -0.771 0.499 0 0.326 -0.085 0.393 -0.499 0.393 -0.459 0 -0.499 0.046 -0.499 0.582 v 0.582 h -2.493 h -2.493 v 0.499 v 0.499 h -3.407 h -3.407 v 0.499 v 0.499 h -1.994 h -1.994 v 0.499 v 0.499 h -4.986 h -4.986 v 0.499 v 0.499 h -9.307 h -9.307 v -0.499 z" style="fill:#ff4500;fill-rule:evenodd"/></svg>