<svg xmlns="http://www.w3.org/2000/svg" viewBox="0 0 256 256"><g transform="translate(0 -796.36)"><path d="m 203.22 1027.39 c -192.46 127.95 -311 -280.09 -62.2 -226.07 102.82 23.02 165.22 167.39 62.2 226.07 z" style="fill:#fff;color:#000"/><path d="m 76.18 1027.28 c -11.612 -4.235 -18.788 -10.762 -23.868 -21.708 l -3.01 -6.496 v -78.95 v -78.95 l 3.01 -6.496 c 6.983 -15.05 19.809 -23.417 35.887 -23.417 16.08 0 28.904 8.369 35.887 23.417 l 3.01 6.496 v 79 v 79 l -3.587 7.411 c -4.331 8.947 -9.91 14.513 -18.813 18.77 -5.418 2.59 -7.761 3.115 -15.06 3.373 -6.475 0.229 -9.853 -0.136 -13.46 -1.451 z m 125.88 -58.721 c -8.981 -1.655 -22.652 -6.28 -30.778 -10.411 -7.36 -3.742 -20.08 -12.401 -24.733 -16.835 l -3.602 -3.433 v -28.982 v -28.982 h 11.877 h 11.877 l 18.374 21.331 c 10.11 11.732 20.323 23.979 22.705 27.22 8.883 12.07 15.851 28.758 15.851 37.965 v 3.717 l -6.964 -0.088 c -3.83 -0.048 -10.403 -0.722 -14.607 -1.497 z m 1.158 -30.925 c 0.83 -0.847 -1.416 -3.88 -9.08 -12.259 -5.729 -6.265 -10.941 -11.133 -11.92 -11.133 -2.218 0 -4.145 6.776 -3.274 11.514 0.923 5.03 5.918 10.01 11.581 11.566 5.998 1.644 11.26 1.774 12.691 0.313 z m -62.19 -83.01 c 0 -15.287 -3.637 -26.07 -12.641 -37.478 l -4.641 -5.881 l 41.539 0.004 c 45.28 0.004 52.45 0.601 67.24 5.594 4.266 1.44 9.521 4 11.677 5.696 3.791 2.977 3.916 3.258 3.814 8.545 -0.191 9.939 -7.779 22.691 -18.05 30.334 -3.407 2.535 -4.473 2.788 -11.766 2.788 h -8.02 l -0.006 -8.091 c -0.01 -15.618 -2.244 -18.9 -12.825 -18.841 -5.29 0.03 -7.849 0.567 -11.183 2.348 -9.563 5.11 -15.263 11.66 -17.465 20.07 l -1.183 4.516 h -13.248 h -13.248 v -9.601 z" transform="matrix(0 -0.75315 0.71706 0 -525.35 1034.15)" style="fill:#ff4500"/></g></svg>