<svg xmlns="http://www.w3.org/2000/svg" viewBox="0 0 256 256"><g transform="translate(0 -796.36)"><path d="m 211.17 833.49 c 201.82 266.38 -353.59 304.22 -175.35 32.31 40.634 -61.991 121.89 -102.86 175.35 -32.31 z" style="fill:#fff;color:#000"/><path d="m 188.56 855.09 c -0.972 -2.814 -5.622 -3.234 -7.152 -0.534 0 0 -31.596 52.16 -45.983 79.23 -0.64 0.024 -1.259 0.104 -1.827 0.248 l 1.334 3.137 l -1.874 1.7 l -14.235 32.731 c -6.171 -0.446 -13.746 1.644 -20.13 6.336 -18.555 13.64 -22.01 38.874 -22.01 38.874 25.772 -14.684 50.17 -11.738 53.779 -32.22 0.576 -3.268 0.015 -5.925 -1.355 -7.974 l 21.03 -30.436 l 0.244 -2.334 l 3.659 -0.973 c -0.302 -0.429 -0.712 -0.892 -1.167 -1.352 17.13 -27.391 35.87 -85.1 35.87 -85.1 0.032 -0.498 -0.035 -0.929 -0.174 -1.332 z m -59.812 121.05 c -2.039 -2.65 -5.517 -4.178 -9.672 -4.525 3.919 -0.651 7.861 1.396 9.672 4.525 z" transform="matrix(1.06766 0 0 1.06644 -26.379 -76.3)" style="fill:#ff4500"/></g></svg>