<svg xmlns="http://www.w3.org/2000/svg" xmlns:xlink="http://www.w3.org/1999/xlink" viewBox="0 0 256 256"><defs><path d="m 245.46 129.52 l -97.89 -96.9 c -5.556 -5.502 -16.222 -11.873 -23.7 -14.16 l -39.518 -12.08 c -7.479 -2.286 -18.1 0.391 -23.599 5.948 l -13.441 13.578 c -5.5 5.559 -14.502 14.653 -20 20.21 l -13.44 13.579 c -5.5 5.558 -8.07 16.206 -5.706 23.658 l 12.483 39.39 c 2.363 7.456 8.843 18.06 14.399 23.556 l 97.89 96.9 c 5.558 5.502 14.605 5.455 20.1 -0.101 l 36.26 -36.63 c 5.504 -5.559 14.503 -14.651 20 -20.21 l 36.26 -36.629 c 5.502 -5.56 5.455 -14.606 -0.101 -20.11 z m -178.09 -50.74 c -7.198 0 -13.03 -5.835 -13.03 -13.03 0 -7.197 5.835 -13.03 13.03 -13.03 7.197 0 13.03 5.835 13.03 13.03 -0.001 7.198 -5.836 13.03 -13.03 13.03 z" id="0"/><use id="1" xlink:href="#0"/><clipPath id="2"><use xlink:href="#0"/></clipPath><clipPath style="clip-path:url(#2)"><use xlink:href="#1"/></clipPath><clipPath style="clip-path:url(#2)"><use xlink:href="#1"/></clipPath></defs><g transform="translate(0 -796.36)" style="fill:#2c2c2c"><path d="m 211.94 1004.03 c -103.59 136.25 -294.03 -46.613 -173.03 -165.93 103.41 -120.34 306.63 51.831 173.03 165.93 z" style="fill:#fff;color:#000"/><text x="128" y="923.97" line-height="125%" style="letter-spacing:0;word-spacing:0;font-size:40;font-family:Sans;fill:#000"><tspan x="128" y="923.97"/></text><g transform="translate(0 796.36)" style="fill:#ff4500;fill-rule:evenodd"><path d="m 157.69 160 c -0.957 -0.09 -1.426 -0.294 -1.426 -0.619 0 -0.266 -0.227 -0.484 -0.503 -0.484 -0.277 0 -0.503 -0.227 -0.503 -0.503 0 -0.277 -0.227 -0.503 -0.503 -0.503 -0.373 0 -0.503 -0.392 -0.503 -1.51 0 -1.119 -0.131 -1.51 -0.503 -1.51 -0.432 0 -0.503 -1.044 -0.503 -7.384 0 -6.34 0.071 -7.384 0.503 -7.384 0.438 0 0.503 -1.488 0.503 -11.375 0 -9.802 0.07 -11.402 0.503 -11.568 0.436 -0.167 0.503 -1.996 0.503 -13.629 0 -11.719 0.064 -13.435 0.503 -13.435 0.336 0 0.503 -0.336 0.503 -1.01 0 -0.554 0.151 -1.01 0.336 -1.01 0.185 0 0.336 -0.227 0.336 -0.503 0 -0.392 0.447 -0.503 2.01 -0.503 1.566 0 2.01 -0.112 2.01 -0.503 0 -0.434 1.175 -0.503 8.558 -0.503 7.384 0 8.558 0.069 8.558 0.503 0 0.364 0.373 0.503 1.342 0.503 0.97 0 1.343 0.14 1.343 0.503 0 0.336 0.336 0.503 1.01 0.503 0.671 0 1.01 0.168 1.01 0.503 0 0.336 0.336 0.503 1.01 0.503 0.671 0 1.01 0.168 1.01 0.503 0 0.336 0.336 0.503 1.01 0.503 0.671 0 1.01 0.168 1.01 0.503 0 0.277 0.227 0.503 0.503 0.503 0.277 0 0.503 0.227 0.503 0.503 0 0.277 0.227 0.503 0.503 0.503 0.277 0 0.503 0.227 0.503 0.503 0 0.277 0.227 0.503 0.503 0.503 0.277 0 0.503 0.227 0.503 0.503 0 0.277 0.227 0.503 0.503 0.503 0.277 0 0.503 0.227 0.503 0.503 0 0.277 0.227 0.503 0.503 0.503 0.277 0 0.503 0.227 0.503 0.503 0 0.277 0.227 0.503 0.503 0.503 0.277 0 0.503 0.227 0.503 0.503 0 0.277 0.227 0.503 0.503 0.503 0.336 0 0.503 0.336 0.503 1.01 0 0.671 0.168 1.01 0.503 1.01 0.336 0 0.503 0.336 0.503 1.01 0 0.671 0.168 1.01 0.503 1.01 0.43 0 0.503 0.932 0.503 6.377 0 5.445 -0.074 6.377 -0.503 6.377 -0.352 0 -0.503 0.354 -0.503 1.175 0 0.646 -0.148 1.175 -0.329 1.175 -0.181 0 -0.421 0.367 -0.534 0.815 -0.112 0.448 -0.417 0.896 -0.678 0.996 -0.26 0.1 -0.473 0.564 -0.473 1.031 0 0.531 -0.189 0.85 -0.503 0.85 -0.277 0 -0.503 0.227 -0.503 0.503 0 0.277 -0.227 0.503 -0.503 0.503 -0.277 0 -0.503 0.227 -0.503 0.503 0 0.277 -0.139 0.503 -0.309 0.503 -0.17 0 -0.408 0.453 -0.53 1.01 -0.184 0.838 -0.385 1.01 -1.201 1.01 -0.938 0 -0.98 0.065 -0.98 1.51 0 1.502 0.006 1.51 1.175 1.51 0.82 0 1.175 0.152 1.175 0.503 0 0.313 0.317 0.503 0.839 0.503 0.522 0 0.839 0.19 0.839 0.503 0 0.336 0.336 0.503 1.01 0.503 0.671 0 1.01 0.168 1.01 0.503 0 0.277 0.227 0.503 0.503 0.503 0.277 0 0.503 0.227 0.503 0.503 0 0.336 0.336 0.503 1.01 0.503 0.671 0 1.01 0.168 1.01 0.503 0 0.277 0.227 0.503 0.503 0.503 0.277 0 0.503 0.227 0.503 0.503 0 0.277 0.215 0.503 0.477 0.503 0.262 0 0.576 0.453 0.698 1.01 0.122 0.554 0.36 1.01 0.53 1.01 0.17 0 0.309 0.227 0.309 0.503 0 0.277 0.227 0.503 0.503 0.503 0.418 0 0.503 0.649 0.503 3.824 0 3.089 -0.097 3.861 -0.503 4.02 -0.277 0.106 -0.503 0.576 -0.503 1.043 0 0.531 -0.189 0.85 -0.503 0.85 -0.336 0 -0.503 0.336 -0.503 1.01 0 0.671 -0.168 1.01 -0.503 1.01 -0.277 0 -0.503 0.227 -0.503 0.503 0 0.277 -0.227 0.503 -0.503 0.503 -0.277 0 -0.503 0.227 -0.503 0.503 0 0.277 -0.227 0.503 -0.503 0.503 -0.277 0 -0.503 0.227 -0.503 0.503 0 0.315 -0.318 0.503 -0.85 0.503 -0.467 0 -0.937 0.227 -1.043 0.503 -0.106 0.277 -0.404 0.503 -0.661 0.503 -0.257 0 -0.468 0.227 -0.468 0.503 0 0.277 -0.227 0.503 -0.503 0.503 -0.277 0 -0.503 0.227 -0.503 0.503 0 0.336 -0.336 0.503 -1.01 0.503 -0.671 0 -1.01 0.168 -1.01 0.503 0 0.336 -0.336 0.503 -1.01 0.503 -0.671 0 -1.01 0.168 -1.01 0.503 0 0.336 -0.336 0.503 -1.01 0.503 -0.671 0 -1.01 0.168 -1.01 0.503 0 0.373 -0.392 0.503 -1.51 0.503 -1.119 0 -1.51 0.131 -1.51 0.503 0 0.386 -0.429 0.503 -1.846 0.503 -1.417 0 -1.846 0.117 -1.846 0.503 0 0.403 -0.503 0.503 -2.517 0.503 -2.01 0 -2.517 0.101 -2.517 0.503 0 0.431 -0.981 0.504 -6.796 0.508 -3.738 0.003 -7.098 0.054 -7.468 0.116 -0.369 0.061 -1.313 0.05 -2.098 -0.024 z m 16.362 -9.288 c 0 -0.341 0.644 -0.502 2.41 -0.602 1.476 -0.083 2.462 -0.293 2.545 -0.541 0.078 -0.235 0.758 -0.405 1.617 -0.405 1.094 0 1.482 -0.132 1.482 -0.503 0 -0.336 0.336 -0.503 1.01 -0.503 0.671 0 1.01 -0.168 1.01 -0.503 0 -0.336 0.336 -0.503 1.01 -0.503 0.671 0 1.01 -0.168 1.01 -0.503 0 -0.336 0.336 -0.503 1.01 -0.503 0.671 0 1.01 -0.168 1.01 -0.503 0 -0.277 0.227 -0.503 0.503 -0.503 0.277 0 0.503 -0.227 0.503 -0.503 0 -0.277 0.227 -0.503 0.503 -0.503 0.277 0 0.503 -0.227 0.503 -0.503 0 -0.277 0.227 -0.503 0.503 -0.503 0.277 0 0.503 -0.227 0.503 -0.503 0 -0.277 0.227 -0.503 0.503 -0.503 0.392 0 0.503 -0.447 0.503 -2.01 0 -1.566 -0.112 -2.01 -0.503 -2.01 -0.277 0 -0.503 -0.227 -0.503 -0.503 0 -0.277 -0.227 -0.503 -0.503 -0.503 -0.277 0 -0.503 -0.227 -0.503 -0.503 0 -0.277 -0.227 -0.503 -0.503 -0.503 -0.277 0 -0.503 -0.227 -0.503 -0.503 0 -0.336 -0.336 -0.503 -1.01 -0.503 -0.671 0 -1.01 -0.168 -1.01 -0.503 0 -0.352 -0.354 -0.503 -1.175 -0.503 -0.82 0 -1.175 -0.152 -1.175 -0.503 0 -0.364 -0.373 -0.503 -1.343 -0.503 -0.97 0 -1.342 -0.14 -1.342 -0.503 0 -0.373 -0.392 -0.503 -1.51 -0.503 -1.119 0 -1.51 -0.131 -1.51 -0.503 0 -0.403 -0.503 -0.503 -2.517 -0.503 -2.01 0 -2.517 -0.101 -2.517 -0.503 0 -0.403 -0.503 -0.503 -2.517 -0.503 -2.01 0 -2.517 0.101 -2.517 0.503 0 0.41 -0.559 0.503 -3.02 0.503 h -3.02 v 10.07 v 10.07 h 5.538 c 4.499 0 5.538 -0.087 5.538 -0.466 z m 2.01 -30.08 c 0 -0.185 0.68 -0.336 1.51 -0.336 1.119 0 1.51 -0.131 1.51 -0.503 0 -0.315 0.318 -0.503 0.85 -0.503 0.467 0 0.937 -0.227 1.043 -0.503 0.106 -0.277 0.404 -0.503 0.661 -0.503 0.257 0 0.468 -0.227 0.468 -0.503 0 -0.277 0.227 -0.503 0.503 -0.503 0.277 0 0.503 -0.227 0.503 -0.503 0 -0.277 0.227 -0.503 0.503 -0.503 0.277 0 0.503 -0.227 0.503 -0.503 0 -0.277 0.227 -0.503 0.503 -0.503 0.277 0 0.503 -0.227 0.503 -0.503 0 -0.277 0.227 -0.503 0.503 -0.503 0.336 0 0.503 -0.336 0.503 -1.01 0 -0.671 0.168 -1.01 0.503 -1.01 0.744 0 0.744 -9.109 0 -9.853 -0.277 -0.277 -0.503 -0.741 -0.503 -1.031 0 -0.29 -0.227 -0.527 -0.503 -0.527 -0.277 0 -0.503 -0.227 -0.503 -0.503 0 -0.277 -0.227 -0.503 -0.503 -0.503 -0.277 0 -0.503 -0.227 -0.503 -0.503 0 -0.277 -0.227 -0.503 -0.503 -0.503 -0.277 0 -0.503 -0.227 -0.503 -0.503 0 -0.277 -0.21 -0.503 -0.468 -0.503 -0.257 0 -0.554 -0.227 -0.661 -0.503 -0.106 -0.277 -0.576 -0.503 -1.043 -0.503 -0.467 0 -0.85 -0.151 -0.85 -0.336 0 -0.185 -0.453 -0.336 -1.01 -0.336 -0.671 0 -1.01 -0.168 -1.01 -0.503 0 -0.432 -1.01 -0.503 -7.05 -0.503 h -7.05 v 7.552 c 0 6.489 -0.071 7.552 -0.503 7.552 -0.427 0 -0.503 0.82 -0.503 5.37 v 5.37 h 6.545 c 4.139 0 6.545 -0.123 6.545 -0.336 z"/><path d="m 40.13 157.38 c 0 -0.277 -0.227 -0.503 -0.503 -0.503 -0.408 0 -0.503 -0.541 -0.503 -2.853 0 -2.312 0.095 -2.853 0.503 -2.853 0.373 0 0.503 -0.392 0.503 -1.51 0 -1.119 0.131 -1.51 0.503 -1.51 0.336 0 0.503 -0.336 0.503 -1.01 0 -0.671 0.168 -1.01 0.503 -1.01 0.336 0 0.503 -0.336 0.503 -1.01 0 -0.671 0.168 -1.01 0.503 -1.01 0.332 0 0.503 -0.333 0.503 -0.979 0 -0.538 0.161 -1.032 0.357 -1.098 0.197 -0.065 0.443 -0.758 0.548 -1.538 0.119 -0.884 0.363 -1.419 0.65 -1.419 0.359 0 0.459 -0.766 0.459 -3.524 0 -2.909 0.088 -3.524 0.503 -3.524 0.277 0 0.503 -0.227 0.503 -0.503 0 -0.277 0.227 -0.503 0.503 -0.503 0.277 0 0.503 -0.227 0.503 -0.503 0 -0.336 0.336 -0.503 1.01 -0.503 0.671 0 1.01 -0.168 1.01 -0.503 0 -0.277 0.227 -0.503 0.503 -0.503 0.336 0 0.503 -0.336 0.503 -1.01 0 -0.671 0.168 -1.01 0.503 -1.01 0.336 0 0.503 -0.336 0.503 -1.01 0 -0.671 0.168 -1.01 0.503 -1.01 0.336 0 0.503 -0.336 0.503 -1.01 0 -0.671 0.168 -1.01 0.503 -1.01 0.336 0 0.503 -0.336 0.503 -1.01 0 -0.671 0.168 -1.01 0.503 -1.01 0.313 0 0.503 -0.317 0.503 -0.839 0 -0.522 0.19 -0.839 0.503 -0.839 0.336 0 0.503 -0.336 0.503 -1.01 0 -0.671 0.168 -1.01 0.503 -1.01 0.336 0 0.503 -0.336 0.503 -1.01 0 -0.671 0.168 -1.01 0.503 -1.01 0.277 0 0.503 -0.21 0.503 -0.468 0 -0.257 0.227 -0.554 0.503 -0.661 0.277 -0.106 0.503 -0.576 0.503 -1.043 0 -0.531 0.189 -0.85 0.503 -0.85 0.336 0 0.503 -0.336 0.503 -1.01 0 -0.671 0.168 -1.01 0.503 -1.01 0.336 0 0.503 -0.336 0.503 -1.01 0 -0.671 0.168 -1.01 0.503 -1.01 0.336 0 0.503 -0.336 0.503 -1.01 0 -0.554 0.151 -1.01 0.336 -1.01 0.185 0 0.336 -0.227 0.336 -0.503 0 -0.277 0.227 -0.503 0.503 -0.503 0.28 0 0.503 -0.298 0.503 -0.671 0 -0.373 0.224 -0.671 0.503 -0.671 0.313 0 0.503 -0.317 0.503 -0.839 0 -0.522 0.19 -0.839 0.503 -0.839 0.277 0 0.503 -0.227 0.503 -0.503 0 -0.277 0.227 -0.503 0.503 -0.503 0.336 0 0.503 -0.336 0.503 -1.01 0 -0.671 0.168 -1.01 0.503 -1.01 0.277 0 0.503 -0.227 0.503 -0.503 0 -0.277 0.227 -0.503 0.503 -0.503 0.277 0 0.503 -0.227 0.503 -0.503 0 -0.277 0.227 -0.503 0.503 -0.503 0.336 0 0.503 -0.336 0.503 -1.01 0 -0.671 0.168 -1.01 0.503 -1.01 0.277 0 0.503 -0.227 0.503 -0.503 0 -0.277 0.227 -0.503 0.503 -0.503 0.277 0 0.503 -0.227 0.503 -0.503 0 -0.277 0.227 -0.503 0.503 -0.503 0.277 0 0.503 -0.227 0.503 -0.503 0 -0.277 0.227 -0.503 0.503 -0.503 0.277 0 0.503 -0.227 0.503 -0.503 0 -0.277 0.227 -0.503 0.503 -0.503 0.277 0 0.503 -0.227 0.503 -0.503 0 -0.277 0.227 -0.503 0.503 -0.503 0.277 0 0.503 -0.227 0.503 -0.503 0 -0.392 0.447 -0.503 2.01 -0.503 1.566 0 2.01 0.112 2.01 0.503 0 0.277 0.227 0.503 0.503 0.503 0.277 0 0.503 0.227 0.503 0.503 0 0.277 0.227 0.503 0.503 0.503 0.336 0 0.503 0.336 0.503 1.01 0 0.671 0.168 1.01 0.503 1.01 0.408 0 0.503 0.541 0.503 2.853 0 2.312 0.095 2.853 0.503 2.853 0.406 0 0.503 0.522 0.503 2.685 0 2.163 0.098 2.685 0.503 2.685 0.403 0 0.503 0.503 0.503 2.517 0 2.01 0.101 2.517 0.503 2.517 0.403 0 0.503 0.503 0.503 2.517 0 1.454 0.142 2.517 0.336 2.517 0.194 0 0.336 1.063 0.336 2.517 0 1.92 0.11 2.517 0.464 2.517 0.335 0 0.504 0.626 0.607 2.244 0.084 1.322 0.307 2.299 0.543 2.377 0.249 0.083 0.4 0.881 0.4 2.119 0 1.541 0.113 1.986 0.503 1.986 0.403 0 0.503 0.503 0.503 2.517 0 2.01 0.101 2.517 0.503 2.517 0.403 0 0.503 0.503 0.503 2.517 0 1.923 0.11 2.517 0.466 2.517 0.341 0 0.502 0.644 0.602 2.41 0.083 1.476 0.293 2.462 0.541 2.545 0.223 0.074 0.405 0.576 0.405 1.114 0 0.646 0.171 0.979 0.503 0.979 0.373 0 0.503 0.392 0.503 1.51 0 1.119 0.131 1.51 0.503 1.51 0.364 0 0.503 0.374 0.503 1.353 0 0.893 0.171 1.419 0.503 1.546 0.738 0.283 0.738 5.827 0 5.827 -0.277 0 -0.503 0.227 -0.503 0.503 0 0.4 -0.485 0.503 -2.349 0.503 -1.865 0 -2.349 -0.104 -2.349 -0.503 0 -0.277 -0.227 -0.503 -0.503 -0.503 -0.277 0 -0.503 -0.227 -0.503 -0.503 0 -0.277 -0.227 -0.503 -0.503 -0.503 -0.277 0 -0.503 -0.227 -0.503 -0.503 0 -0.277 -0.227 -0.503 -0.503 -0.503 -0.336 0 -0.503 -0.336 -0.503 -1.01 0 -0.671 -0.168 -1.01 -0.503 -1.01 -0.373 0 -0.503 -0.392 -0.503 -1.51 0 -1.119 -0.131 -1.51 -0.503 -1.51 -0.373 0 -0.503 -0.392 -0.503 -1.51 0 -1.119 -0.131 -1.51 -0.503 -1.51 -0.386 0 -0.503 -0.429 -0.503 -1.846 0 -1.417 -0.117 -1.846 -0.503 -1.846 -0.403 0 -0.503 -0.503 -0.503 -2.517 0 -2.01 -0.101 -2.517 -0.503 -2.517 -0.403 0 -0.503 -0.503 -0.503 -2.517 v -2.517 h -3.02 c -2.461 0 -3.02 0.093 -3.02 0.503 0 0.403 -0.503 0.503 -2.517 0.503 -2.01 0 -2.517 0.101 -2.517 0.503 0 0.403 -0.503 0.503 -2.517 0.503 -2.01 0 -2.517 0.101 -2.517 0.503 0 0.392 -0.447 0.503 -2.01 0.503 -1.566 0 -2.01 0.112 -2.01 0.503 0 0.403 -0.503 0.503 -2.517 0.503 -2.01 0 -2.517 0.101 -2.517 0.503 0 0.277 -0.227 0.503 -0.503 0.503 -0.277 0 -0.503 0.227 -0.503 0.503 0 0.277 -0.227 0.503 -0.503 0.503 -0.373 0 -0.503 0.392 -0.503 1.51 0 1.119 -0.131 1.51 -0.503 1.51 -0.313 0 -0.503 0.317 -0.503 0.839 0 0.522 -0.19 0.839 -0.503 0.839 -0.336 0 -0.503 0.336 -0.503 1.01 0 0.671 -0.168 1.01 -0.503 1.01 -0.336 0 -0.503 0.336 -0.503 1.01 0 0.671 -0.168 1.01 -0.503 1.01 -0.336 0 -0.503 0.336 -0.503 1.01 0 0.671 -0.168 1.01 -0.503 1.01 -0.336 0 -0.503 0.336 -0.503 1.01 0 0.671 -0.168 1.01 -0.503 1.01 -0.336 0 -0.503 0.336 -0.503 1.01 0 0.671 -0.168 1.01 -0.503 1.01 -0.336 0 -0.503 0.336 -0.503 1.01 0 0.671 -0.168 1.01 -0.503 1.01 -0.277 0 -0.503 0.227 -0.503 0.503 0 0.277 -0.227 0.503 -0.503 0.503 -0.277 0 -0.503 0.227 -0.503 0.503 0 0.4 -0.485 0.503 -2.349 0.503 -1.865 0 -2.349 -0.104 -2.349 -0.503 z m 25.843 -30.877 c 0 -0.403 0.503 -0.503 2.517 -0.503 2.01 0 2.517 -0.101 2.517 -0.503 0 -0.403 0.503 -0.503 2.517 -0.503 2.01 0 2.517 -0.101 2.517 -0.503 0 -0.373 0.392 -0.503 1.51 -0.503 1.454 0 1.51 -0.037 1.51 -1.01 0 -0.671 -0.168 -1.01 -0.503 -1.01 -0.403 0 -0.503 -0.503 -0.503 -2.517 0 -2.01 -0.101 -2.517 -0.503 -2.517 -0.403 0 -0.503 -0.503 -0.503 -2.517 0 -2.01 -0.101 -2.517 -0.503 -2.517 -0.403 0 -0.503 -0.503 -0.503 -2.517 0 -2.01 -0.101 -2.517 -0.503 -2.517 -0.336 0 -0.503 -0.336 -0.503 -1.01 0 -0.671 -0.168 -1.01 -0.503 -1.01 -0.277 0 -0.503 0.227 -0.503 0.503 0 0.277 -0.227 0.503 -0.503 0.503 -0.277 0 -0.503 0.227 -0.503 0.503 0 0.277 -0.227 0.503 -0.503 0.503 -0.336 0 -0.503 0.336 -0.503 1.01 0 0.671 -0.168 1.01 -0.503 1.01 -0.336 0 -0.503 0.336 -0.503 1.01 0 0.671 -0.168 1.01 -0.503 1.01 -0.277 0 -0.503 0.227 -0.503 0.503 0 0.277 -0.227 0.503 -0.503 0.503 -0.336 0 -0.503 0.336 -0.503 1.01 0 0.671 -0.168 1.01 -0.503 1.01 -0.336 0 -0.503 0.336 -0.503 1.01 0 0.671 -0.168 1.01 -0.503 1.01 -0.336 0 -0.503 0.336 -0.503 1.01 0 0.671 -0.168 1.01 -0.503 1.01 -0.277 0 -0.503 0.227 -0.503 0.503 0 0.277 -0.227 0.503 -0.503 0.503 -0.336 0 -0.503 0.336 -0.503 1.01 0 0.671 -0.168 1.01 -0.503 1.01 -0.336 0 -0.503 0.336 -0.503 1.01 0 0.671 -0.168 1.01 -0.503 1.01 -0.277 0 -0.503 0.227 -0.503 0.503 0 0.277 -0.227 0.503 -0.503 0.503 -0.336 0 -0.503 0.336 -0.503 1.01 0 0.671 -0.168 1.01 -0.503 1.01 -0.277 0 -0.503 0.227 -0.503 0.503 0 0.403 0.503 0.503 2.517 0.503 2.01 0 2.517 -0.101 2.517 -0.503 z"/><path d="m 111.96 136.57 c 0 -0.336 -0.336 -0.503 -1.01 -0.503 -0.671 0 -1.01 -0.168 -1.01 -0.503 0 -0.277 -0.151 -0.503 -0.336 -0.503 -0.194 0 -0.336 -1.063 -0.336 -2.517 0 -1.454 0.142 -2.517 0.336 -2.517 0.185 0 0.336 -0.227 0.336 -0.503 0 -0.336 0.336 -0.503 1.01 -0.503 0.671 0 1.01 -0.168 1.01 -0.503 0 -0.438 1.604 -0.503 12.418 -0.503 10.815 0 12.418 0.065 12.418 0.503 0 0.277 0.227 0.503 0.503 0.503 0.403 0 0.503 0.503 0.503 2.517 0 2.01 -0.101 2.517 -0.503 2.517 -0.277 0 -0.503 0.227 -0.503 0.503 0 0.313 -0.317 0.503 -0.839 0.503 -0.522 0 -0.839 0.19 -0.839 0.503 0 0.437 -1.398 0.503 -10.572 0.503 -9.174 0 -10.572 0.067 -10.572 0.503 0 0.336 -0.336 0.503 -1.01 0.503 -0.671 0 -1.01 -0.168 -1.01 -0.503 z"/></g></g></svg>