<svg xmlns="http://www.w3.org/2000/svg" xmlns:xlink="http://www.w3.org/1999/xlink" viewBox="0 0 256 256"><defs><path id="0" d="m 245.46 129.52 l -97.89 -96.9 c -5.556 -5.502 -16.222 -11.873 -23.7 -14.16 l -39.518 -12.08 c -7.479 -2.286 -18.1 0.391 -23.599 5.948 l -13.441 13.578 c -5.5 5.559 -14.502 14.653 -20 20.21 l -13.44 13.579 c -5.5 5.558 -8.07 16.206 -5.706 23.658 l 12.483 39.39 c 2.363 7.456 8.843 18.06 14.399 23.556 l 97.89 96.9 c 5.558 5.502 14.605 5.455 20.1 -0.101 l 36.26 -36.63 c 5.504 -5.559 14.503 -14.651 20 -20.21 l 36.26 -36.629 c 5.502 -5.56 5.455 -14.606 -0.101 -20.11 z m -178.09 -50.74 c -7.198 0 -13.03 -5.835 -13.03 -13.03 0 -7.197 5.835 -13.03 13.03 -13.03 7.197 0 13.03 5.835 13.03 13.03 -0.001 7.198 -5.836 13.03 -13.03 13.03 z"/><use id="1" xlink:href="#0"/><path d="m 40.19 12.219 c -1.266 0.064 -2.246 1.246 -2.188 2.625 0.059 1.379 1.14 2.439 2.406 2.375 h 18.969 v -5 h -18.969 c -0.071 -0.004 -0.148 -0.004 -0.219 0 z" id="3" style="fill:#ff4500;fill-rule:evenodd"/><clipPath id="2"><use xlink:href="#1"/></clipPath><clipPath style="clip-path:url(#2)"><use xlink:href="#0"/></clipPath><clipPath><path transform="matrix(15.33333 0 0 11.5 415 -125.5)" d="m -24 13 c 0 1.105 -0.672 2 -1.5 2 -0.828 0 -1.5 -0.895 -1.5 -2 0 -1.105 0.672 -2 1.5 -2 0.828 0 1.5 0.895 1.5 2 z"/></clipPath><clipPath style="clip-path:url(#2)"><use xlink:href="#0"/></clipPath></defs><g transform="translate(0 -796.36)" style="fill:#1e90ff"><path d="m 43.788 839.52 c 104.85 -128.33 294.12 59.55 173.21 173.1 -104.05 113.8 -306.02 -63.815 -173.21 -173.1 z" style="fill:#fff;color:#000"/><g style="fill:#ff4500"><g transform="translate(0 796.36)" style="fill-rule:evenodd"><path d="m 62.04 190.96 c 0 -0.786 -0.079 -0.943 -0.471 -0.943 -0.47 0 -0.471 -0.157 -0.471 -62.939 0 -62.782 0.001 -62.939 0.471 -62.939 0.314 0 0.471 -0.157 0.471 -0.471 0 -0.314 0.157 -0.471 0.471 -0.471 0.346 0 0.471 -0.157 0.471 -0.589 0 -0.432 0.126 -0.589 0.471 -0.589 0.314 0 0.471 -0.157 0.471 -0.471 0 -0.47 0.157 -0.471 62.939 -0.471 62.782 0 62.939 0.001 62.939 0.471 0 0.402 0.157 0.471 1.061 0.471 h 1.061 v 64.942 v 64.942 h -64.942 h -64.942 v -0.943 z m 126.82 -64 v -62.12 l -61.741 0.06 c -33.957 0.033 -61.829 0.149 -61.937 0.257 -0.203 0.203 -0.407 123.09 -0.206 123.62 0.09 0.235 12.707 0.295 61.998 0.295 h 61.885 v -62.12 z"/><path d="m 191.93 127.43 c 0 -62.43 0.001 -62.59 0.471 -62.59 0.47 0 0.471 0.157 0.471 62.59 0 62.43 -0.001 62.59 -0.471 62.59 -0.47 0 -0.471 -0.157 -0.471 -62.59 z"/></g><g transform="matrix(1.44692 0 0 1.34059 90.1 881.98)"><path d="m 1.466 16.745 l 5.646 -17.85 c 0.505 -1.573 0.924 -2.735 1.253 -3.486 0.33 -0.766 0.782 -1.408 1.359 -1.928 0.576 -0.533 1.329 -0.8 2.259 -0.8 0.953 0 1.723 0.267 2.311 0.8 0.6 0.533 1.071 1.204 1.411 2.01 0.353 0.794 0.764 1.928 1.235 3.404 l 5.629 17.85 c 0.353 1.08 0.582 1.914 0.688 2.503 0.118 0.575 0.176 1.156 0.176 1.743 0 0.848 -0.259 1.531 -0.777 2.051 -0.505 0.505 -1.183 0.758 -2.029 0.758 -0.589 0 -1.083 -0.137 -1.482 -0.41 -0.4 -0.274 -0.723 -0.657 -0.971 -1.149 -0.235 -0.493 -0.447 -1.095 -0.636 -1.804 l -0.706 -2.686 h -9.617 l -0.723 2.686 c -0.306 1.107 -0.676 1.949 -1.112 2.522 -0.424 0.56 -1.076 0.84 -1.958 0.84 -0.835 0 -1.518 -0.253 -2.047 -0.758 -0.518 -0.52 -0.777 -1.204 -0.777 -2.051 0 -0.505 0.047 -1.032 0.141 -1.579 c 0.105 -0.56 0.348 -1.449 0.723 -2.665 z m 13.623 -5.373 l -2.929 -11.05 h -0.071 l -3.141 11.05 z"/><g transform="matrix(-2.68147 0 0 0.61987 156.36 28.681)"><g><g transform="translate(0 -2.717)"><use xlink:href="#3" transform="translate(0 7.172)" width="1" height="1"/><use xlink:href="#3" transform="translate(0 -5.328)" width="1" height="1"/></g><g transform="translate(0 22.283)"><use xlink:href="#3" transform="translate(0 7.172)" width="1" height="1"/><use xlink:href="#3" transform="translate(0 -5.328)" width="1" height="1"/></g></g><use xlink:href="#3" transform="translate(0 41.955)" width="1" height="1"/></g></g><path d="m 139.23 886.77 v 6.743 h 11.973 c -0.227 0 0.387 0.577 0.387 0.317 v 3.163 h -4.12 c -7.07 0 -12.517 3.743 -12.62 8.325 -0.049 2.289 1.314 4.562 3.605 6.113 2.291 1.548 5.398 2.424 9.02 2.424 h 8.241 h 4.12 v -3.372 v -16.649 c 0 -3.915 -3.634 -7.01 -8.5 -7.06 h -0.128 h -11.973 z m 8.241 16.96 h 4.12 v 3.372 h -4.12 c -2.138 0 -3.214 -0.492 -3.733 -0.843 -0.519 -0.351 -0.651 -0.6 -0.643 -0.843 0.012 -0.486 0.383 -1.686 4.38 -1.686 z" style="color:#000"/></g></g></svg>