<svg xmlns="http://www.w3.org/2000/svg" viewBox="0 0 256 256"><g transform="translate(0 -796.36)"><path d="m 211.17 833.49 c 201.82 266.38 -353.59 304.22 -175.35 32.31 40.634 -61.991 121.89 -102.86 175.35 -32.31 z" style="fill:#fff;color:#000"/><g transform="matrix(1.26448 0 0 1.30233 63.54 856.39)" style="fill:#ff4500"><path d="m 86.07 0 c -24.602 0 -29.22 35.04 -15.377 35.04 13.838 0 39.98 -35.04 15.377 -35.04"/><path d="m 45.22 30.699 c 7.369 0.45 15.454 -28.12 1.604 -26.325 -13.845 1.797 -8.976 25.875 -1.604 26.325"/><path d="m 11.445 48.45 c 5.241 -2.307 0.675 -24.872 -8.237 -18.718 -8.908 6.155 2.996 21.02 8.237 18.718"/><path d="m 26.21 36.642 c 6.239 -1.272 6.581 -26.864 -4.545 -22.273 -11.128 4.592 -1.689 23.547 4.545 22.273 z"/><path d="m 58.791 93.91 c 1.107 8.454 -6.202 12.629 -13.36 7.179 c -22.787 -17.349 37.729 -26 33.74 -49.706 -3.311 -19.674 -63.68 -13.617 -70.55 17.17 -4.653 20.821 19.15 49.707 43.993 49.707 c 12.22 0 26.315 -11.03 28.952 -25.01 c 2.01 -10.659 -23.699 -6.388 -22.775 0.665 z"/></g></g></svg>