<svg xmlns="http://www.w3.org/2000/svg" viewBox="0 0 256 256"><defs><clipPath><path d="m 27.643 3.295 l 13.09 13.09 h -11.07 c -0.978 0 -2.01 -1.035 -2.01 -2.01 v -11.07 z"/></clipPath><clipPath><path d="m 47.41 6.348 v -1.75 c 0 -2.054 -1.664 -3.719 -3.719 -3.719 h -39.37 c -2.054 0 -3.719 1.664 -3.719 3.719 v 1.75" transform="matrix(0.99561 0 0 0.99561 0.105 0.016)"/></clipPath></defs><g transform="translate(1774.03 -1727.32)"><path d="m -1708.29 1748.52 c 329.42 -135.66 174.65 434.9 -40.478 157.85 -37.47 -49.706 -40.36 -133.17 40.478 -157.85 z" style="fill:#fff;color:#000"/><g transform="matrix(3.97026 0 0 3.76392 -1747.57 1754.43)" style="fill:#ff4500"><path d="m 27.442 9.889 h 4.983 v 33.828 h -4.983 z"/><path d="m 16.787 33.12 h 4.983 v 10.594 h -4.983 z"/><path d="m 11.409 25.19 h 4.983 v 18.526 h -4.983 z"/><path d="m 11.409 20.772 h 4.983 v 1.726 h -4.983 z"/><path d="m 22.1,21.693 h 4.983 v 22.02 H 22.1 z"/><path d="m 32.784 25.878 h 4.983 v 17.839 h -4.983 z"/><path d="m 38.16,14.511 h 4.983 v 29.21 H 38.16 z"/><path d="m 16.718 29.22 h 4.983 v 1.726 h -4.983 z"/><path d="m 22.03,17.487 h 4.983 v 1.726 H 22.03 z"/><path d="m 27.461 6.22 h 4.983 v 1.726 h -4.983 z"/><path d="m 32.644 21.883 h 4.983 v 1.726 h -4.983 z"/><path d="m 38.12,10.367 h 4.983 v 1.726 H 38.12 z"/></g></g></svg>