<?xml version="1.0" encoding="UTF-8" standalone="no"?>
<!-- Created with Inkscape (http://www.inkscape.org/) -->
<svg id="svg5014" xmlns:rdf="http://www.w3.org/1999/02/22-rdf-syntax-ns#" xmlns="http://www.w3.org/2000/svg" height="24" width="24" version="1.1" xmlns:cc="http://creativecommons.org/ns#" xmlns:xlink="http://www.w3.org/1999/xlink" xmlns:dc="http://purl.org/dc/elements/1.1/">
 <defs id="defs5016">
  <linearGradient id="linearGradient6149">
   <stop id="stop6151" style="stop-color:#fff" offset="0"/>
   <stop id="stop6153" style="stop-color:#585858" offset="1"/>
  </linearGradient>
  <linearGradient id="linearGradient6036">
   <stop id="stop6038" offset="0"/>
   <stop id="stop6040" style="stop-opacity:0" offset="1"/>
  </linearGradient>
  <linearGradient id="linearGradient4418">
   <stop id="stop4420" offset="0"/>
   <stop id="stop4422" style="stop-color:#3a3a3a" offset="1"/>
  </linearGradient>
  <linearGradient id="linearGradient4336">
   <stop id="stop4338" style="stop-color:#fff" offset="0"/>
   <stop id="stop4340" style="stop-color:#fff;stop-opacity:0" offset="1"/>
  </linearGradient>
  <clipPath id="clipPath5972" clipPathUnits="userSpaceOnUse">
   <path id="path5974" d="m25 5.5c-3.3415 0-4.4193 4.4661-5.4375 8h-5.4375s-4.0139-1-7.125-1c-2.0833 0-3.2259 0.5384-3.8438 1.1562-0.7111 0.887-0.972 1.986-1.155 2.906-0.2576 1.675-0.5 4.925-0.5 11.438v10s0.00489 1.3184 0.40625 2.6562c0.20068 0.66894 0.50421 1.3554 1 1.9062 0.48344 0.53716 1.1727 0.91841 2.0312 0.9375 0.02194 0.000488 0.040351 0 0.0625 0 6.5234 0.6312 10.057-0.75621 14.719-1h0.03125 23.25c1.2086 0 2.3039-0.35294 3.125-0.96875 0.821-0.616 1.375-1.521 1.375-2.531v-20c-0.402-2.358-1.864-5.742-6.5-5.5h-2.4062c-1.236-3.7428-2-8.0097-6.094-8z" style="fill:url(#linearGradient5976)"/>
  </clipPath>
  <linearGradient id="linearGradient5976" y2="16" xlink:href="#linearGradient4418" gradientUnits="userSpaceOnUse" x2="16" y1="40" x1="16"/>
  <clipPath id="clipPath5995" clipPathUnits="userSpaceOnUse">
   <path id="path5997" d="m25 5.5c-3.3415 0-4.4193 4.4661-5.4375 8h-5.4375s-4.0139-1-7.125-1c-2.0833 0-3.2259 0.5384-3.8438 1.1562-0.7111 0.887-0.972 1.986-1.155 2.906-0.2576 1.675-0.5 4.925-0.5 11.438v10s0.00489 1.3184 0.40625 2.6562c0.20068 0.66894 0.50421 1.3554 1 1.9062 0.48344 0.53716 1.1727 0.91841 2.0312 0.9375 0.02194 0.000488 0.040351 0 0.0625 0 6.5234 0.6312 10.057-0.75621 14.719-1h0.03125 23.25c1.2086 0 2.3039-0.35294 3.125-0.96875 0.821-0.616 1.375-1.521 1.375-2.531v-20c-0.402-2.358-1.864-5.742-6.5-5.5h-2.4062c-1.236-3.7428-2-8.0097-6.094-8z" style="fill:url(#linearGradient5976)"/>
  </clipPath>
  <clipPath id="clipPath6064" clipPathUnits="userSpaceOnUse">
   <path id="path6066" d="m25-10.5c-3.3415 0-4.4193 4.4661-5.4375 8h-5.4375s-4.0139-1-7.125-1c-2.0833 0-3.2259 0.5384-3.8438 1.1562-0.7111 0.8865-0.972 1.9855-1.155 2.9063-0.2576 1.6745-0.5 4.9247-0.5 11.438v10s0.00489 1.3184 0.40625 2.6562c0.20068 0.66894 0.50421 1.3554 1 1.9062 0.48344 0.53716 1.1727 0.91841 2.0312 0.9375 0.02194 0.000488 0.040351 0 0.0625 0 6.5234 0.6312 10.057-0.75621 14.719-1h0.03125 23.25c1.2086 0 2.3039-0.35294 3.125-0.96875 0.821-0.616 1.375-1.521 1.375-2.531v-20c-0.402-2.358-1.864-5.7422-6.5-5.5h-2.4062c-1.2362-3.7428-1.9996-8.0097-6.0938-8z" style="fill:url(#linearGradient6068)"/>
  </clipPath>
  <linearGradient id="linearGradient6068" y2="16" xlink:href="#linearGradient4418" gradientUnits="userSpaceOnUse" x2="16" gradientTransform="translate(0,-16)" y1="40" x1="16"/>
  <linearGradient id="linearGradient3960-3-8">
   <stop id="stop3962-1-1" style="stop-opacity:0" offset="0"/>
   <stop id="stop3970-3-4" offset=".5"/>
   <stop id="stop3964-2-4" style="stop-opacity:0" offset="1"/>
  </linearGradient>
  <clipPath id="clipPath6274" clipPathUnits="userSpaceOnUse">
   <path id="path6276" d="m25 5.5c-3.3415 0-4.4193 4.4661-5.4375 8h-5.4375s-4.0139-1-7.125-1c-2.0833 0-3.2259 0.5384-3.8438 1.1562-0.7111 0.887-0.972 1.986-1.155 2.906-0.2576 1.675-0.5 4.925-0.5 11.438v10s0.00489 1.3184 0.40625 2.6562c0.20068 0.66894 0.50421 1.3554 1 1.9062 0.48344 0.53716 1.1727 0.91841 2.0312 0.9375 0.02194 0.000488 0.040351 0 0.0625 0 6.5234 0.6312 10.057-0.75621 14.719-1h0.03125 23.25c1.2086 0 2.3039-0.35294 3.125-0.96875 0.821-0.616 1.375-1.521 1.375-2.531v-20c-0.402-2.358-1.864-5.742-6.5-5.5h-2.4062c-1.236-3.7428-2-8.0097-6.094-8z" style="fill:url(#linearGradient5976)"/>
  </clipPath>
  <radialGradient id="radialGradient3620" gradientUnits="userSpaceOnUse" cy="16.333" cx="15" gradientTransform="translate(0 -.0000051922)" r="2">
   <stop id="stop4472" style="stop-color:#fff" offset="0"/>
   <stop id="stop6328" style="stop-color:#e4e4e4" offset=".5"/>
   <stop id="stop4474" style="stop-color:#d9d9d9" offset="1"/>
  </radialGradient>
  <linearGradient id="linearGradient3648" y2="26" gradientUnits="userSpaceOnUse" x2="42" y1="26" x1="48">
   <stop id="stop6282" style="stop-color:#fff" offset="0"/>
   <stop id="stop6284" style="stop-color:#fff;stop-opacity:0" offset="1"/>
  </linearGradient>
  <radialGradient id="radialGradient3650" xlink:href="#linearGradient6149" gradientUnits="userSpaceOnUse" cy="13.49" cx="7.3571" gradientTransform="matrix(1.5714 1.4486e-7 -7.9015e-8 .85714 -4.2041 2.2226)" r="4.5"/>
  <radialGradient id="radialGradient3652" xlink:href="#linearGradient6149" gradientUnits="userSpaceOnUse" cy="13.023" cx="7" gradientTransform="matrix(1 0 0 .61111 0 5.5417)" r="4.5"/>
  <linearGradient id="linearGradient3654" y2="12" gradientUnits="userSpaceOnUse" x2="37" gradientTransform="matrix(.49474 0 0 .49332 9.8947e-7 7.72)" y1="12" x1="21">
   <stop id="stop6087" style="stop-color:#fff" offset="0"/>
   <stop id="stop6097" style="stop-color:#fff;stop-opacity:0" offset=".1875"/>
   <stop id="stop6095" style="stop-color:#fff;stop-opacity:0" offset=".4375"/>
   <stop id="stop6093" style="stop-color:#fff;stop-opacity:0" offset=".75"/>
   <stop id="stop6089" style="stop-color:#fff" offset="1"/>
  </linearGradient>
  <linearGradient id="linearGradient3656" y2="22" gradientUnits="userSpaceOnUse" x2="29" gradientTransform="matrix(.49474 0 0 .49332 9.8947e-7 7.72)" y1="5.5" x1="29.269">
   <stop id="stop6107" style="stop-color:#fff" offset="0"/>
   <stop id="stop6109" style="stop-color:#fff;stop-opacity:0" offset="1"/>
  </linearGradient>
  <linearGradient id="linearGradient3658" y2="15" xlink:href="#linearGradient6036" gradientUnits="userSpaceOnUse" x2="24" y1="11" x1="16"/>
  <linearGradient id="linearGradient3660" y2="15" xlink:href="#linearGradient6036" gradientUnits="userSpaceOnUse" x2="24" gradientTransform="matrix(-1,0,0,1,57.5,-16)" y1="11" x1="16"/>
  <radialGradient id="radialGradient3662" gradientUnits="userSpaceOnUse" cy="27.877" cx="-3.1" gradientTransform="matrix(-2.8235 1.9428e-8 -1.6046e-8 -16 5.2471 474.03)" r="4.25">
   <stop id="stop6022" offset="0"/>
   <stop id="stop6024" style="stop-color:#262626;stop-opacity:.36364" offset=".125"/>
   <stop id="stop6026" style="stop-color:#fff;stop-opacity:.74902" offset=".66667"/>
   <stop id="stop6028" style="stop-color:#3a3a3a" offset=".83333"/>
   <stop id="stop6030" offset="1"/>
  </radialGradient>
  <linearGradient id="linearGradient3664" y2="42.082" gradientUnits="userSpaceOnUse" x2="14.5" y1="42.082" x1="1.5">
   <stop id="stop5981" style="stop-color:#fff;stop-opacity:.43802" offset="0"/>
   <stop id="stop5989" style="stop-color:#fff" offset=".38462"/>
   <stop id="stop5987" style="stop-color:#fff;stop-opacity:.46281" offset=".65385"/>
   <stop id="stop5983" style="stop-color:#fff;stop-opacity:.43802" offset="1"/>
  </linearGradient>
  <linearGradient id="linearGradient3666" y2="16" xlink:href="#linearGradient4418" gradientUnits="userSpaceOnUse" x2="16" gradientTransform="matrix(.49474 0 0 .49332 9.8947e-7 7.72)" y1="40" x1="16"/>
  <linearGradient id="linearGradient3668" y2="13.25" gradientUnits="userSpaceOnUse" x2="18.5" y1="13.25" x1="13">
   <stop id="stop5948" style="stop-color:#696969" offset="0"/>
   <stop id="stop5958" style="stop-color:#919191" offset=".125"/>
   <stop id="stop5956" style="stop-color:#fff" offset=".25"/>
   <stop id="stop5954" style="stop-color:#919191" offset=".5"/>
   <stop id="stop5950" style="stop-color:#3c3c3c" offset="1"/>
  </linearGradient>
  <radialGradient id="radialGradient3670" gradientUnits="userSpaceOnUse" cy="11.521" cx="15.062" gradientTransform="matrix(1 0 0 .27273 0 8.5455)" r="2.75">
   <stop id="stop5930" style="stop-color:#fff" offset="0"/>
   <stop id="stop5966" style="stop-color:#e7e7e7" offset=".5"/>
   <stop id="stop5932" style="stop-color:#b1b1b1" offset="1"/>
  </radialGradient>
  <radialGradient id="radialGradient3685" gradientUnits="userSpaceOnUse" cy="42.5" cx="9.5" gradientTransform="matrix(1 0 0 .29412 0 30)" r="8.5">
   <stop id="stop6254" offset="0"/>
   <stop id="stop6256" style="stop-opacity:0" offset="1"/>
  </radialGradient>
  <linearGradient id="linearGradient4481" y2="29.35" gradientUnits="userSpaceOnUse" x2="42.25" y1="29.35" x1="14.672">
   <stop id="stop4164" style="stop-color:#323232" offset="0"/>
   <stop id="stop4166" style="stop-color:#1c1c1c" offset="1"/>
  </linearGradient>
  <linearGradient id="linearGradient4483" y2="17.325" gradientUnits="userSpaceOnUse" x2="41.051" y1="37.939" x1="19.468">
   <stop id="stop4194" offset="0"/>
   <stop id="stop4196" style="stop-opacity:0" offset="1"/>
  </linearGradient>
  <linearGradient id="linearGradient4485" y2="29.5" gradientUnits="userSpaceOnUse" x2="35.5" y1="29.5" x1="21.5">
   <stop id="stop4094" style="stop-color:#050505" offset="0"/>
   <stop id="stop4096" style="stop-color:#0f0f0f" offset="1"/>
  </linearGradient>
  <radialGradient id="radialGradient4487" gradientUnits="userSpaceOnUse" cy="29" cx="28" gradientTransform="matrix(1.2,0,0,1.2,-5.6,-5.8)" r="2.5">
   <stop id="stop4076" style="stop-color:#be87ce" offset="0"/>
   <stop id="stop4112" style="stop-color:#581969" offset=".25"/>
   <stop id="stop4110" style="stop-color:#4b1658" offset=".5"/>
   <stop id="stop4078" offset="1"/>
  </radialGradient>
  <linearGradient id="linearGradient4489" y2="23.491" gradientUnits="userSpaceOnUse" x2="33.501" y1="33.491" x1="23.501">
   <stop id="stop4250" style="stop-color:#fff" offset="0"/>
   <stop id="stop4252" style="stop-color:#fff;stop-opacity:0" offset="1"/>
  </linearGradient>
  <linearGradient id="linearGradient4491" y2="27" xlink:href="#linearGradient4336" gradientUnits="userSpaceOnUse" x2="31" y1="31.286" x1="26"/>
  <linearGradient id="linearGradient4493" y2="31.545" xlink:href="#linearGradient4336" gradientUnits="userSpaceOnUse" x2="30.545" y1="27.455" x1="26"/>
  <linearGradient id="linearGradient4495" y2="27" gradientUnits="userSpaceOnUse" x2="31" y1="31.286" x1="26">
   <stop id="stop4124" offset="0"/>
   <stop id="stop4126" style="stop-opacity:0" offset="1"/>
  </linearGradient>
  <linearGradient id="linearGradient4497" y2="24" gradientUnits="userSpaceOnUse" x2="34" y1="35.25" x1="22.75">
   <stop id="stop4132" style="stop-color:#373737" offset="0"/>
   <stop id="stop4134" style="stop-color:#353535" offset="1"/>
  </linearGradient>
  <radialGradient id="radialGradient4499" gradientUnits="userSpaceOnUse" cy="24" cx="23" r="8.5">
   <stop id="stop4144" style="stop-color:#fff" offset="0"/>
   <stop id="stop4152" style="stop-color:#78de54;stop-opacity:.74902" offset=".25"/>
   <stop id="stop4150" style="stop-color:#69ca46;stop-opacity:.49804" offset=".5"/>
   <stop id="stop4146" style="stop-color:#080808;stop-opacity:0" offset="1"/>
  </radialGradient>
  <linearGradient id="linearGradient4501" y2="29.35" gradientUnits="userSpaceOnUse" x2="42.75" y1="29.35" x1="14.172">
   <stop id="stop4204" style="stop-color:#fff" offset="0"/>
   <stop id="stop4206" style="stop-color:#fff;stop-opacity:0" offset="1"/>
  </linearGradient>
  <linearGradient id="linearGradient4503" y2="34.567" gradientUnits="userSpaceOnUse" x2="24.062" y1="23.787" x1="34.208">
   <stop id="stop4302" style="stop-color:#fff" offset="0"/>
   <stop id="stop4304" style="stop-color:#fff;stop-opacity:0" offset="1"/>
  </linearGradient>
  <linearGradient id="linearGradient4505" y2="41.048" xlink:href="#linearGradient4336" gradientUnits="userSpaceOnUse" x2="28.462" y1="42.999" x1="28.462"/>
  <linearGradient id="linearGradient4509" y2="29.351" xlink:href="#linearGradient4336" gradientUnits="userSpaceOnUse" x2="16.216" y1="29.35" x1="14.373"/>
  <radialGradient id="radialGradient4535" xlink:href="#linearGradient6036" gradientUnits="userSpaceOnUse" cy="43.5" cx="9" gradientTransform="matrix(.49474 0 0 .36999 -2.9684 12.592)" r="2"/>
  <radialGradient id="radialGradient4538" xlink:href="#linearGradient6036" gradientUnits="userSpaceOnUse" cy="43.5" cx="40" gradientTransform="matrix(.49474 0 0 .36999 2.4737 12.592)" r="2"/>
  <linearGradient id="linearGradient4541" y2="42" xlink:href="#linearGradient3960-3-8" gradientUnits="userSpaceOnUse" x2="25" gradientTransform="matrix(.66580 0 0 .49332 -4.3624 7.2267)" y1="45" x1="25"/>
  <radialGradient id="radialGradient4544" xlink:href="#linearGradient6036" gradientUnits="userSpaceOnUse" cy="43.5" cx="9" gradientTransform="matrix(.52301 0 0 .61665 -3.661 1.8619)" r="2"/>
  <radialGradient id="radialGradient4547" xlink:href="#linearGradient6036" gradientUnits="userSpaceOnUse" cy="43.5" cx="40" gradientTransform="matrix(.52301 0 0 .61665 1.781 1.8619)" r="2"/>
  <linearGradient id="linearGradient4550" y2="42" xlink:href="#linearGradient3960-3-8" gradientUnits="userSpaceOnUse" x2="25" gradientTransform="matrix(.69680 0 0 .82219 -5.2251 -7.0795)" y1="45" x1="25"/>
 </defs>
 <metadata id="metadata5019">
  <rdf:RDF>
   <cc:Work rdf:about="">
    <dc:format>image/svg+xml</dc:format>
    <dc:type rdf:resource="http://purl.org/dc/dcmitype/StillImage"/>
    <dc:title/>
   </cc:Work>
  </rdf:RDF>
 </metadata>
 <g id="layer1" transform="translate(0,-8)">
  <g id="layer5">
   <path id="path6250" style="opacity:.5;fill:url(#radialGradient3685)" d="m18 42.5a8.5 2.5 0 1 1 -17 0 8.5 2.5 0 1 1 17 0z" transform="matrix(.49474 0 0 .49332 9.8947e-7 8.2133)"/>
   <rect id="rect3615" style="opacity:.5;fill:url(#linearGradient4550)" height="2.4666" width="21.601" y="27.453" x="1.046"/>
   <path id="path3617" style="opacity:.5;fill:url(#radialGradient4547)" d="m22.701 27.453v2.4666h0.2615c0.43462 0 0.78451-0.55005 0.78451-1.2333 0-0.68324-0.34989-1.2333-0.78451-1.2333h-0.2615z"/>
   <path id="path3619" style="opacity:.5;fill:url(#radialGradient4544)" d="m0.73548 27.453c-0.40746 0-0.73548 0.515-0.73548 1.156v0.15416c0 0.64054 0.32802 1.1562 0.73548 1.1562h0.31054v-2.4666h-0.31054z"/>
   <rect id="rect3623" style="opacity:.5;fill:url(#linearGradient4541)" height="1.4799" width="20.64" y="27.946" x="1.6298"/>
   <path id="path3625" d="m22.263 27.946v1.4799h0.24737c0.41113 0 0.7421-0.33003 0.7421-0.73998 0-0.40994-0.33098-0.73997-0.7421-0.73997h-0.24737z" style="opacity:.5;fill:url(#radialGradient4538)"/>
   <path id="path3627" d="m1.1905 27.946c-0.38543 0-0.69572 0.3094-0.69572 0.69373v0.0925c0 0.38432 0.31029 0.69373 0.69572 0.69373h0.29375v-1.4799h-0.29375z" style="opacity:.5;fill:url(#radialGradient4535)"/>
   <path id="rect4348" style="fill:url(#linearGradient3666)" d="m11.368 10.433c-1.6532 0-2.1864 2.2032-2.6901 3.9465h-2.6901s-0.98582-0.49332-2.525-0.49332c-1.0307 0-1.596 0.2656-1.9016 0.5704-0.35241 0.43732-0.48153 0.97944-0.57204 1.4337-0.12745 0.82606-0.24737 2.4294-0.24737 5.6423v4.7785s0.002419 0.65038 0.20099 1.3104c0.099284 0.33 0.24945 0.66862 0.49474 0.94038 0.23918 0.26499 0.58017 0.45307 1.0049 0.46248 0.010854 0.000241 0.019964 0 0.030921 0 3.2274 0.31138 4.9753-0.37305 7.2819-0.49332h0.01546 11.503c0.59795 0 1.1398-0.17411 1.546-0.4779 0.40622-0.30379 0.68026-0.75051 0.68026-1.2487v-9.7116c-0.198-1.163-0.921-2.833-3.215-2.713h-1.1905c-0.61161-1.8464-0.98926-3.9513-3.0148-3.9465z"/>
   <path id="rect5968" style="opacity:.4;fill:url(#linearGradient3664)" d="m0.61872 38.887c4.5803 0.281 9.1842 0.421 13.881 0v5.9706h-13.881z" clip-path="url(#clipPath5972)" transform="matrix(.49474 0 0 .49332 9.8947e-7 7.72)"/>
   <path id="rect5991" style="opacity:.4;fill:url(#radialGradient3662)" d="m-4 12h14c-1.6305 12.518-1.9525 22.877-0.25 37.061h-12.5z" clip-path="url(#clipPath5995)" transform="matrix(.49474 0 0 .49332 9.8947e-7 7.72)"/>
   <g id="g6052" transform="matrix(.49474 0 0 .49332 9.8947e-7 15.613)" clip-path="url(#clipPath6064)">
    <path id="path6034" style="fill:url(#linearGradient3658)" d="m16 26 6-22 1 5-6 17z" transform="translate(0,-16)"/>
    <path id="path6044" style="fill:url(#linearGradient3660)" d="m41 8c-1.195-6.0186-2.422-12.059-5-19l-1.5 4 6 17z"/>
   </g>
   <path id="path6266" d="m8.1526 14.38-1.7316 6.166" style="opacity:.1;stroke:#fff;stroke-linecap:round;stroke-width:1px;fill:none"/>
   <path id="path6070" style="opacity:.8;stroke:#000;stroke-linecap:round;stroke-width:1px;fill:none" d="m8.4 14.38-1.7316 6.166"/>
   <path id="path6268" style="opacity:.2;stroke:#fff;stroke-linecap:round;stroke-width:1px;fill:none" d="m19.295 14.626 1.7271 6.0426"/>
   <path id="path6072" d="m19.047 14.626 1.7271 6.0426" style="opacity:.8;stroke:#000;stroke-linecap:round;stroke-width:1px;fill:none"/>
   <path id="path6296" style="opacity:0.41;stroke:#fff;stroke-width:2.0242;fill:none" d="m45.5 27.25a2.75 2.75 0 1 1 -5.5 0 2.75 2.75 0 1 1 5.5 0z" transform="matrix(.49474 0 0 .49332 -.24737 7.9667)"/>
   <path id="path4482" style="opacity:.2;stroke:url(#linearGradient3656);stroke-width:.5;fill:none" d="m7.6365 19.016 2.7425-6.856s1.2474-0.49332 3.721-0.49332c2.4737 0 2.9684 0.49332 2.9684 0.49332l2.5222 6.9214"/>
   <path id="path6075" d="m7.6365 19.016 2.7425-6.856s1.2474-0.49332 3.721-0.49332c2.4737 0 2.9684 0.49332 2.9684 0.49332l2.5222 6.9214" style="opacity:.2;fill:url(#linearGradient3654)"/>
   <path id="path6101" d="m7.6365 19.016 1.753-3.65s2.4842-0.73998 4.9579-0.73998 3.4632 0.73998 3.4632 0.73998l1.7801 3.7148"/>
   <path id="path6103" d="m7.6365 19.016 1.753-3.6494s2.4842-0.73998 4.9579-0.73998 3.4632 0.73998 3.4632 0.73998l1.78 3.7148" style="opacity:.3;stroke:#fff;stroke-width:.5;fill:none"/>
   <g id="g5960" transform="matrix(.49474 0 0 .49332 -1 15.613)">
    <rect id="rect5936" style="fill:url(#linearGradient3668)" transform="translate(0,-16)" rx="0" ry="2.5" height="2.5" width="5.5" y="12" x="13"/>
    <path id="path5926" style="fill:url(#radialGradient3670)" d="m18.5 11.75c0 0.41421-1.2312 0.75-2.75 0.75-1.519 0-2.75-0.336-2.75-0.75s1.231-0.75 2.75-0.75c1.5188 0 2.75 0.33579 2.75 0.75z" transform="translate(0,-16)"/>
   </g>
   <rect id="rect6270" ry="0" style="opacity:.2;fill:url(#linearGradient3648)" clip-path="url(#clipPath6274)" transform="matrix(.49474 0 0 .49332 9.8947e-7 7.72)" height="44" width="12" y="4" x="42"/>
   <path id="path6290" style="fill:#585858" d="m45.5 27.25a2.75 2.75 0 1 1 -5.5 0 2.75 2.75 0 1 1 5.5 0z" transform="matrix(.49474 0 0 .49332 -.24737 8.2133)"/>
   <path id="path6292" style="stroke:#171717;stroke-width:2.0242;fill:none" d="m45.5 27.25a2.75 2.75 0 1 1 -5.5 0 2.75 2.75 0 1 1 5.5 0z" transform="matrix(.49474 0 0 .49332 -.24737 8.2133)"/>
   <path id="path6294" style="opacity:0.41;stroke:#000;stroke-width:5.5665;fill:none" d="m45.5 27.25a2.75 2.75 0 1 1 -5.5 0 2.75 2.75 0 1 1 5.5 0z" transform="matrix(.17990 0 0 .17939 13.335 16.645)"/>
   <rect id="rect6300" style="fill:#6e6e6e" height=".98663" width=".49474" y="9.9399" x="11.368"/>
   <rect id="rect6302" style="fill:#6e6e6e" height=".98663" width=".49474" y="9.9399" x="15.832"/>
   <rect id="rect6304" style="opacity:.3;fill:#fff" height=".98663" width=".24737" y="9.9399" x="11.368"/>
   <rect id="rect6306" style="opacity:.3;fill:#fff" height=".98663" width=".24737" y="9.9399" x="16.079"/>
   <g id="g4228" style="opacity:.3" transform="matrix(.49474 0 0 .49332 -.59989 15.363)">
    <path id="path4230" d="m25.806-5.4897c-0.37195 0-0.67339-0.30158-0.67339-0.67362s0.30144-0.67335 0.67339-0.67335c0.1311 0 0.25353 0.03739 0.3569 0.1022l-0.3569 0.57115 0.67187-0.38796c-0.073-0.1163-0.178-0.2165-0.304-0.2926-0.161-0.0964-0.385-0.1561-0.633-0.1561-0.354 0-0.664 0.1284-0.837 0.3208-0.128 0.1422-0.204 0.3212-0.204 0.5159 0 0.19479 0.07623 0.37394 0.20427 0.51622 0.17339 0.19264 0.47888 0.32036 0.82656 0.32036 0.34755 0 0.65294-0.12782 0.82647-0.32036 0.0095-0.01061 0.01865-0.0213 0.02741-0.03235l-0.02625-0.09825c-0.12183 0.17402-0.32372 0.28801-0.55226 0.28801"/>
    <path id="path4232" d="m31.197-5.3673-0.28202-1.052c-0.04531-0.16998-0.20009-0.29493-0.38436-0.29493-0.04778 0-0.09362 0.00854-0.13609 0.024l-0.6071 0.22076h0.62436l0.10674 0.39848c-0.10355-0.08908-0.2383-0.14328-0.38593-0.14328-0.29308 0-0.53039 0.19641-0.53039 0.43874 0 0.24225 0.2373 0.43893 0.53039 0.43893 0.21105 0 0.39762-0.10328 0.51267-0.26193l0.06189 0.23128h0.48984m-0.86018-0.16343c-0.13519 0-0.24481-0.10948-0.24481-0.24485 0-0.13528 0.10962-0.24485 0.24481-0.24485 0.13523 0 0.24485 0.10957 0.24485 0.24485 0 0.13537-0.10962 0.24485-0.24485 0.24485z"/>
    <path id="path4234" d="m29.184-6.7141c-0.03694 0-0.072 0.00818-0.10319 0.02283l-0.3898 0.18166c-0.01923-0.11604-0.12004-0.20449-0.24162-0.20449-0.03686 0-0.07191 0.00818-0.10355 0.02283l-0.47591 0.22175h0.33461v1.1022h0.48984v-0.9796c0-0.06759 0.0547-0.12261 0.12243-0.12261 0.06746 0 0.12252 0.05502 0.12252 0.12261v0.9796h0.48966v-1.1022c0-0.13518-0.10971-0.24458-0.24499-0.24458"/>
    <path id="path4236" d="m32.344-6.7141c-0.03708 0-0.07223 0.00818-0.10391 0.02283l-0.38944 0.18166c-0.01924-0.11604-0.12005-0.20449-0.24162-0.20449-0.03681 0-0.07187 0.00818-0.10354 0.02283l-0.47578 0.22175h0.33452v1.1022h0.48976v-0.9796c0-0.06759 0.05474-0.12261 0.1226-0.12261 0.06756 0 0.12221 0.05502 0.12221 0.12261v0.9796h0.49005v-1.1022c0-0.13518-0.10979-0.24458-0.24485-0.24458"/>
    <path id="path4238" d="m27.915-6.0204c0 0.38311-0.31047 0.69366-0.69353 0.69366-0.38328 0-0.69394-0.31056-0.69394-0.69366 0-0.38301 0.31065-0.69366 0.69394-0.69366 0.38306 0 0.69353 0.31066 0.69353 0.69366m-0.66481-0.48314c-0.02176-0.08162-0.10571-0.13007-0.18732-0.10813-0.08145 0.02185-0.13016 0.1058-0.10823 0.18741l0.23784 0.88701c0.02198 0.08171 0.10576 0.13007 0.18729 0.10841 0.08166-0.02202 0.13016-0.10598 0.10827-0.1876l-0.23785-0.8871z"/>
   </g>
   <g id="g4221" transform="matrix(.49474 0 0 .49332 -.59989 15.613)">
    <path id="path11" style="fill:#fff" d="m25.806-5.4897c-0.37195 0-0.67339-0.30158-0.67339-0.67362s0.30144-0.67335 0.67339-0.67335c0.1311 0 0.25353 0.03739 0.3569 0.1022l-0.3569 0.57115 0.67187-0.38796c-0.073-0.1163-0.178-0.2165-0.304-0.2926-0.161-0.0964-0.385-0.1561-0.633-0.1561-0.354 0-0.664 0.1284-0.837 0.3208-0.128 0.1422-0.204 0.3212-0.204 0.5159 0 0.19479 0.07623 0.37394 0.20427 0.51622 0.17339 0.19264 0.47888 0.32036 0.82656 0.32036 0.34755 0 0.65294-0.12782 0.82647-0.32036 0.0095-0.01061 0.01865-0.0213 0.02741-0.03235l-0.02625-0.09825c-0.12183 0.17402-0.32372 0.28801-0.55226 0.28801"/>
    <path id="path13" style="fill:#fff" d="m31.197-5.3673-0.28202-1.052c-0.04531-0.16998-0.20009-0.29493-0.38436-0.29493-0.04778 0-0.09362 0.00854-0.13609 0.024l-0.6071 0.22076h0.62436l0.10674 0.39848c-0.10355-0.08908-0.2383-0.14328-0.38593-0.14328-0.29308 0-0.53039 0.19641-0.53039 0.43874 0 0.24225 0.2373 0.43893 0.53039 0.43893 0.21105 0 0.39762-0.10328 0.51267-0.26193l0.06189 0.23128h0.48984m-0.86018-0.16343c-0.13519 0-0.24481-0.10948-0.24481-0.24485 0-0.13528 0.10962-0.24485 0.24481-0.24485 0.13523 0 0.24485 0.10957 0.24485 0.24485 0 0.13537-0.10962 0.24485-0.24485 0.24485z"/>
    <path id="path15" style="fill:#fff" d="m29.184-6.7141c-0.03694 0-0.072 0.00818-0.10319 0.02283l-0.3898 0.18166c-0.01923-0.11604-0.12004-0.20449-0.24162-0.20449-0.03686 0-0.07191 0.00818-0.10355 0.02283l-0.47591 0.22175h0.33461v1.1022h0.48984v-0.9796c0-0.06759 0.0547-0.12261 0.12243-0.12261 0.06746 0 0.12252 0.05502 0.12252 0.12261v0.9796h0.48966v-1.1022c0-0.13518-0.10971-0.24458-0.24499-0.24458"/>
    <path id="path17" style="fill:#fff" d="m32.344-6.7141c-0.03708 0-0.07223 0.00818-0.10391 0.02283l-0.38944 0.18166c-0.01924-0.11604-0.12005-0.20449-0.24162-0.20449-0.03681 0-0.07187 0.00818-0.10354 0.02283l-0.47578 0.22175h0.33452v1.1022h0.48976v-0.9796c0-0.06759 0.05474-0.12261 0.1226-0.12261 0.06756 0 0.12221 0.05502 0.12221 0.12261v0.9796h0.49005v-1.1022c0-0.13518-0.10979-0.24458-0.24485-0.24458"/>
    <path id="path19" style="fill:#fff" d="m27.915-6.0204c0 0.38311-0.31047 0.69366-0.69353 0.69366-0.38328 0-0.69394-0.31056-0.69394-0.69366 0-0.38301 0.31065-0.69366 0.69394-0.69366 0.38306 0 0.69353 0.31066 0.69353 0.69366m-0.66481-0.48314c-0.02176-0.08162-0.10571-0.13007-0.18732-0.10813-0.08145 0.02185-0.13016 0.1058-0.10823 0.18741l0.23784 0.88701c0.02198 0.08171 0.10576 0.13007 0.18729 0.10841 0.08166-0.02202 0.13016-0.10598 0.10827-0.1876l-0.23785-0.8871z"/>
   </g>
   <path id="path6264" style="opacity:.2;stroke:#fff;stroke-linecap:round;stroke-width:1px" d="m6.4316 14.873h1.721"/>
   <path id="path6288" d="m19.047 14.873s1.1648-0.10884 1.7316 0c0.43603 0.08373 1.2368 0.49332 1.2368 0.49332" style="opacity:.2;stroke:#fff;stroke-linecap:round;stroke-width:1px"/>
   <path id="path6308" d="m10.874 10.927h5.7" style="opacity:.2;stroke:#fff;stroke-linecap:round;stroke-width:1px"/>
   <path id="path6173" d="m11.368 10.433c-1.6532 0-2.1864 2.2032-2.6901 3.9465-1.0522 0.26978-1.1133 0.45942-2.2467 0 0 0-1.4295-0.6934-2.9687-0.6934-1.0307 0-1.596 0.2656-1.9016 0.5704-0.3521 0.438-0.72328 0.947-0.81379 1.402-0.12746 0.826-0.24711 2.629-0.24711 5.842v4.7785s0.044064 0.68324 0.24263 1.3432c0.099284 0.33 0.24945 0.66862 0.49474 0.94038 0.23918 0.26499 0.78063 0.45307 1.2054 0.46248 0.010854 0.00024 0.019963 0 0.03092 0 3.2274 0.31138 4.9753-0.37305 7.2819-0.49332h0.01546 11.503c0.59795 0 1.1398-0.17411 1.5461-0.4779 0.40622-0.30379 0.68026-0.7505 0.68026-1.2487v-9.7116c-0.199-1.162-0.922-2.832-3.216-2.712h-1.1905c-0.61161-1.8464-0.98926-3.9513-3.0148-3.9465z" style="opacity:0.81;stroke:#000;fill:none"/>
   <path id="path6161" style="opacity:0.41;stroke:#000;stroke-width:4.0484;fill:none" d="m12.5 14.25a4.5 1.75 0 1 1 -9 0 4.5 1.75 0 1 1 9 0z" transform="matrix(.49474 0 0 .49332 9.8947e-7 7.72)"/>
   <path id="path6137" style="fill:url(#radialGradient3652)" d="m12.5 14.25a4.5 1.75 0 1 1 -9 0 4.5 1.75 0 1 1 9 0z" transform="matrix(.49474 0 0 .49332 9.8947e-7 7.72)"/>
   <path id="path6163" style="opacity:0.41;stroke:#000;stroke-width:2.6025;fill:none" d="m12.5 14.25a4.5 1.75 0 1 1 -9 0 4.5 1.75 0 1 1 9 0z" transform="matrix(.38479 0 0 .38369 .87953 8.8437)"/>
   <path id="path6157" style="fill:url(#radialGradient3650)" d="m12.5 14.25a4.5 1.75 0 1 1 -9 0 4.5 1.75 0 1 1 9 0z" transform="matrix(.38479 0 0 .38369 .87953 8.8437)"/>
  </g>
  <g id="layer4">
   <path id="path4468" style="opacity:0.61;stroke:#000;stroke-width:4.0069;fill:none" d="m17 17a2 2 0 1 1 -4 0 2 2 0 1 1 4 0z" transform="matrix(.25 0 0 .24914 3.25 11.263)"/>
   <path id="path6032" style="fill:url(#radialGradient3620)" d="m17 17a2 2 0 1 1 -4 0 2 2 0 1 1 4 0z" transform="matrix(.25 0 0 .24914 3.25 11.263)"/>
   <g id="g4458" transform="matrix(.97319 0 0 .97319 -.16369 1.1908)">
    <path id="path3284" style="fill:url(#linearGradient4481)" d="m42.25 29.35c0 7.2735-6.1734 13.17-13.789 13.17-7.6152 0-13.789-5.8963-13.789-13.17 0-7.2735 6.1734-13.17 13.789-13.17 7.6152 0 13.789 5.8963 13.789 13.17z" transform="matrix(0 .48299 -.50714 0 29.439 7.6542)"/>
    <path id="path4180" style="opacity:.8;fill:url(#linearGradient4483)" d="m42.25 29.35c0 7.2735-6.1734 13.17-13.789 13.17-7.6152 0-13.789-5.8963-13.789-13.17 0-7.2735 6.1734-13.17 13.789-13.17 7.6152 0 13.789 5.8963 13.789 13.17z" transform="matrix(0 .39355 -.41322 0 26.687 10.2)"/>
    <path id="path4170" d="m14.555 15.234c-3.4154 0-6.1842 2.7608-6.1842 6.1665 0 3.4056 2.7688 6.1664 6.1842 6.1664s6.1842-2.7608 6.1842-6.1664-2.7688-6.1665-6.1842-6.1665zm0 0.24666c3.2788 0 5.9368 2.6504 5.9368 5.9198s-2.658 5.9198-5.9368 5.9198-5.9368-2.6504-5.9368-5.9198 2.658-5.9198 5.9368-5.9198z" style="opacity:.8"/>
    <path id="path4138" style="fill:#080808" d="m37 29.5c0 4.694-3.806 8.5-8.5 8.5s-8.5-3.806-8.5-8.5 3.806-8.5 8.5-8.5c4.6944 0 8.5 3.8056 8.5 8.5z" transform="matrix(.49474 0 0 .49332 .45478 6.8479)"/>
    <path id="path4090" style="fill:url(#linearGradient4485)" d="m35 29.5c0 3.59-2.91 6.5-6.5 6.5s-6.5-2.91-6.5-6.5 2.91-6.5 6.5-6.5c3.5899 0 6.5 2.9101 6.5 6.5z" transform="matrix(0 .49332 -.49474 0 29.149 7.3412)"/>
    <path id="path4072" style="fill:url(#radialGradient4487)" d="m31 29.5c0 1.381-1.119 2.5-2.5 2.5s-2.5-1.119-2.5-2.5 1.119-2.5 2.5-2.5c1.3807 0 2.5 1.1193 2.5 2.5z" transform="matrix(.29684 0 0 .29599 6.0948 12.669)"/>
    <path id="path4084" style="opacity:0.61;stroke:#000;stroke-width:1.7333;fill:none" d="m31 29.5c0 1.381-1.119 2.5-2.5 2.5s-2.5-1.119-2.5-2.5 1.119-2.5 2.5-2.5c1.3807 0 2.5 1.1193 2.5 2.5z" transform="matrix(.29684 0 0 .29599 6.0948 12.669)"/>
    <path id="path4246" style="opacity:.1;fill:url(#linearGradient4489)" d="m35 29.5c0 3.59-2.91 6.5-6.5 6.5s-6.5-2.91-6.5-6.5 2.91-6.5 6.5-6.5c3.5899 0 6.5 2.9101 6.5 6.5z" transform="matrix(0 .49332 -.49474 0 29.149 7.3412)"/>
    <path id="path4100" style="opacity:.1;stroke:url(#linearGradient4491);stroke-width:.74284;fill:none" d="m31 29.5c0 1.381-1.119 2.5-2.5 2.5s-2.5-1.119-2.5-2.5 1.119-2.5 2.5-2.5c1.3807 0 2.5 1.1193 2.5 2.5z" transform="matrix(0 .69064 -.69263 0 34.987 1.7174)"/>
    <path id="path4114" style="opacity:.1;stroke:url(#linearGradient4493);stroke-width:.47271;fill:none" d="m31 29.5c0 1.381-1.119 2.5-2.5 2.5s-2.5-1.119-2.5-2.5 1.119-2.5 2.5-2.5c1.3807 0 2.5 1.1193 2.5 2.5z" transform="matrix(-1.0884 0 0 -1.0853 45.575 53.417)"/>
    <path id="path4118" style="opacity:.2;stroke:url(#linearGradient4495);stroke-width:.86664;fill:none" d="m31 29.5c0 1.381-1.119 2.5-2.5 2.5s-2.5-1.119-2.5-2.5 1.119-2.5 2.5-2.5c1.3807 0 2.5 1.1193 2.5 2.5z" transform="matrix(0 .59198 -.59368 0 32.068 4.5293)"/>
    <path id="path4128" style="stroke:url(#linearGradient4497);stroke-width:1.04;fill:none" d="m35 29.5c0 3.59-2.91 6.5-6.5 6.5s-6.5-2.91-6.5-6.5 2.91-6.5 6.5-6.5c3.5899 0 6.5 2.9101 6.5 6.5z" transform="matrix(0 .49332 -.49474 0 29.149 7.3412)"/>
    <path id="path4513" style="opacity:0.61;stroke:#000;stroke-width:6.2286;fill:none" d="m42.25 29.35c0 7.2735-6.1734 13.17-13.789 13.17-7.6152 0-13.789-5.8963-13.789-13.17 0-7.2735 6.1734-13.17 13.789-13.17 7.6152 0 13.789 5.8963 13.789 13.17z" transform="matrix(0 .48299 .50714 0 -.32977 7.6542)"/>
    <path id="path4140" style="opacity:.6;fill:url(#radialGradient4499)" d="m37 29.5c0 4.694-3.806 8.5-8.5 8.5s-8.5-3.806-8.5-8.5 3.806-8.5 8.5-8.5c4.6944 0 8.5 3.8056 8.5 8.5z" transform="matrix(.49474 0 0 .49332 .45478 6.8479)"/>
    <path id="path4154" style="stroke:#000;stroke-width:2.0799;fill:none" d="m37 29.5c0 4.694-3.806 8.5-8.5 8.5s-8.5-3.806-8.5-8.5 3.806-8.5 8.5-8.5c4.6944 0 8.5 3.8056 8.5 8.5z" transform="matrix(.49474 0 0 .49332 .45478 6.8479)"/>
    <path id="path4200" style="opacity:.3;stroke:url(#linearGradient4501);stroke-width:2.0803;fill:none" d="m42.25 29.35c0 7.2735-6.1734 13.17-13.789 13.17-7.6152 0-13.789-5.8963-13.789-13.17 0-7.2735 6.1734-13.17 13.789-13.17 7.6152 0 13.789 5.8963 13.789 13.17z" transform="matrix(0 .48299 -.50714 0 29.439 7.6542)"/>
    <path id="path4296" style="opacity:.4;stroke:url(#linearGradient4503);stroke-width:.65949;fill:none" d="m35 29.5c0 3.59-2.91 6.5-6.5 6.5s-6.5-2.91-6.5-6.5 2.91-6.5 6.5-6.5c3.5899 0 6.5 2.9101 6.5 6.5z" transform="matrix(0 .77792 -.78016 0 37.569 -.77008)"/>
    <path id="path4310" style="opacity:.3;stroke:#fff;stroke-width:1.2457;fill:none" d="m42.25 29.35c0 7.2735-6.1734 13.17-13.789 13.17-7.6152 0-13.789-5.8963-13.789-13.17 0-7.2735 6.1734-13.17 13.789-13.17 7.6152 0 13.789 5.8963 13.789 13.17z" transform="matrix(0 .40249 -.42261 0 26.959 9.9453)"/>
    <path id="path4312" style="opacity:.3;stroke:url(#linearGradient4505);stroke-width:2.0803;fill:none" d="m42.25 29.35c0 7.2735-6.1734 13.17-13.789 13.17-7.6152 0-13.789-5.8963-13.789-13.17 0-7.2735 6.1734-13.17 13.789-13.17 7.6152 0 13.789 5.8963 13.789 13.17z" transform="matrix(0 .48299 -.50714 0 29.439 7.6542)"/>
    <path id="path4330" style="opacity:.3;stroke:url(#linearGradient4505);stroke-width:2.0803;fill:none" d="m42.25 29.35c0 7.2735-6.1734 13.17-13.789 13.17-7.6152 0-13.789-5.8963-13.789-13.17 0-7.2735 6.1734-13.17 13.789-13.17 7.6152 0 13.789 5.8963 13.789 13.17z" transform="matrix(0 .48299 .50714 0 -.32977 7.6542)"/>
    <path id="path4334" style="opacity:.3;stroke:url(#linearGradient4509);stroke-width:1.2457;fill:none" d="m42.25 29.35c0 7.2735-6.1734 13.17-13.789 13.17-7.6152 0-13.789-5.8963-13.789-13.17 0-7.2735 6.1734-13.17 13.789-13.17 7.6152 0 13.789 5.8963 13.789 13.17z" transform="matrix(.40365 0 0 .42140 3.0664 9.0325)"/>
    <path id="path4344" style="opacity:.3;stroke:url(#linearGradient4509);stroke-width:1.2457;fill:none" d="m42.25 29.35c0 7.2735-6.1734 13.17-13.789 13.17-7.6152 0-13.789-5.8963-13.789-13.17 0-7.2735 6.1734-13.17 13.789-13.17 7.6152 0 13.789 5.8963 13.789 13.17z" transform="matrix(-.40365 0 0 .42140 26.043 9.0325)"/>
   </g>
  </g>
 </g>
</svg>
