<?xml version="1.0" encoding="UTF-8" standalone="no"?>
<!-- Created with Inkscape (http://www.inkscape.org/) -->
<svg id="svg3828" xmlns:rdf="http://www.w3.org/1999/02/22-rdf-syntax-ns#" xmlns="http://www.w3.org/2000/svg" height="24" width="24" version="1.1" xmlns:cc="http://creativecommons.org/ns#" xmlns:xlink="http://www.w3.org/1999/xlink" xmlns:dc="http://purl.org/dc/elements/1.1/">
 <defs id="defs3830">
  <linearGradient id="linearGradient3988-5">
   <stop id="stop3990-5" style="stop-color:#ededed" offset="0"/>
   <stop id="stop3992-0" style="stop-color:#fafafa" offset="1"/>
  </linearGradient>
  <linearGradient id="linearGradient3129" y2="22" gradientUnits="userSpaceOnUse" x2="10" gradientTransform="translate(-1,-4)" x1="10">
   <stop id="stop3803" style="stop-color:#fff" offset="0"/>
   <stop id="stop3805" style="stop-color:#fff;stop-opacity:0" offset="1"/>
  </linearGradient>
  <linearGradient id="linearGradient3134" y2="47.013" xlink:href="#linearGradient3988-5" gradientUnits="userSpaceOnUse" x2="25.132" gradientTransform="matrix(.48572 0 0 -.25857 -1.6572 11.219)" y1=".98521" x1="25.132"/>
  <linearGradient id="linearGradient3922" y2="9" gradientUnits="userSpaceOnUse" x2="11" y1="19" x1="11">
   <stop id="stop3918" style="stop-color:#232323" offset="0"/>
   <stop id="stop3926" style="stop-color:#535353" offset="0.8"/>
   <stop id="stop3924" style="stop-color:#676767" offset="0.8"/>
   <stop id="stop3920" style="stop-color:#676767" offset="1"/>
  </linearGradient>
  <linearGradient id="linearGradient4032" y2="47.013" xlink:href="#linearGradient3988-5" gradientUnits="userSpaceOnUse" x2="25.132" gradientTransform="matrix(.48572 0 0 -.25857 -1.6571 25.719)" y1=".98521" x1="25.132"/>
 </defs>
 <metadata id="metadata3833">
  <rdf:RDF>
   <cc:Work rdf:about="">
    <dc:format>image/svg+xml</dc:format>
    <dc:type rdf:resource="http://purl.org/dc/dcmitype/StillImage"/>
    <dc:title/>
   </cc:Work>
  </rdf:RDF>
 </metadata>
 <g id="layer1" transform="translate(0,2)">
  <path id="path4291" d="m5 1v1c4.158 0.0000752 13.293-0.0000752 14 0v-1c-0.70734-0.0000752-9.842 0.0000752-14 0z" style="opacity:.4;fill:#fff"/>
  <path id="path4293" d="m5 1v15h14v-15zm1 1h12v13h-12z" style="opacity:.4;fill:url(#linearGradient3129)"/>
  <path id="rect3145" style="fill:url(#linearGradient3922)" d="m3.7812 8.5-0.125 0.15625-2 2l-0.1562 0.125v0.219 7 0.5h0.5 20 0.5v-0.5-7-0.21875l-0.15625-0.125-2-2-0.125-0.1562h-0.219-16z"/>
  <path id="path3935" style="opacity:0.71;stroke:#000;fill:none" d="m3.7812 8.5-0.125 0.15625-2 2l-0.1562 0.125v0.219 7 0.5h0.5 20 0.5v-0.5-7-0.21875l-0.15625-0.125-2-2-0.125-0.1562h-0.219-16z"/>
  <path id="path4287" d="m4.5 10c3.8955 0 15-0.0008 15-0.0008l0.000021-9.4992h-15v9.5z" style="fill:url(#linearGradient3134)"/>
  <path id="rect3937" style="opacity:.2;fill:#fff" d="m2 11h20v1h-20z"/>
  <path id="path4289" style="opacity:0.41;block-progression:tb;text-indent:0;color:#000000;text-transform:none" d="m4.3438 0c-0.2066 0.06765-0.3546 0.28294-0.3438 0.5v7.5h1v-7c3.9461 0.0000956 13.373-0.0000956 14 0v7h1v-7.5c0-0.2618-0.238-0.49999-0.5-0.5h-15c-0.0312-0.00293-0.0626-0.00293-0.0938 0-0.0208-0.0013-0.0416-0.0013-0.0624 0z"/>
  <path id="rect3948" style="opacity:.4" d="m4.5 10h15v1h-15z"/>
  <path id="rect3950" style="fill:#505050" d="m4 17h16v-1h-16z"/>
  <path id="rect3952" style="opacity:.2" d="m5 15h14v1h-14z"/>
  <path id="rect3954" style="opacity:.4" d="m4 17h16v1h-16z"/>
  <path id="path4030" style="fill:url(#linearGradient4032)" d="m20 20.5-0.49992-4.5h-15l-0.5 4.5z"/>
  <path id="path4034" style="opacity:0.61;block-progression:tb;text-indent:0;color:#000000;text-transform:none" d="m4 15.875-0.5 4.5c-0.0774 0.299 0.1909 0.635 0.5 0.625h16c0.30915 0.0098 0.57744-0.32555 0.5-0.625l-0.5-4.5v0.125h-0.90625v0.5l0.25 3.5h-0.25v0.03125h-13.094v-0.031h-1.3438l0.25-3.5v-0.5h-0.9062z"/>
  <path id="rect4046" style="opacity:.2" d="m6 17h11v1h-11z"/>
 </g>
</svg>
