<svg xmlns="http://www.w3.org/2000/svg" viewBox="0 0 256 256"><g style="fill:#fff"><g transform="translate(0 -796.36)"><g transform="matrix(0.98243 0 0 0.98243 2.25 16.249)" style="color:#000"><path d="m 115.38 952.82 v 13.656 h -15.281 c -2.771 0 -5 2.229 -5 5 0 2.771 2.229 5 5 5 h 55.813 c 2.771 0 5 -2.229 5 -5 0 -2.771 -2.229 -5 -5 -5 h -15.281 v -13.656 h -25.25 z"/><path d="m 63.19 872.63 c -2.348 0 -4.25 1.902 -4.25 4.25 v 76.875 c 0 2.348 1.902 4.219 4.25 4.219 h 129.63 c 2.348 0 4.25 -1.871 4.25 -4.219 v -76.875 c 0 -2.348 -1.902 -4.25 -4.25 -4.25 z m 8.288 11.215 h 113.05 v 62.913 h -113.05 z"/></g><path d="m 104.05 1051.78 c -46.03 -5.557 -83.35 -37.847 -97.42 -84.3 -4.202 -13.867 -5.952 -33.07 -4.349 -47.73 2.313 -21.15 10.539 -42.855 23.16 -61.11 c 7.99 -11.556 22.18 -26.555 32.992 -34.861 18.425 -14.161 37.679 -22.447 60.01 -25.824 7.771 -1.175 23.681 -1.184 32.14 -0.017 20.884 2.881 41.525 11.5 59.24 24.735 6.218 4.646 18.989 17.413 23.599 23.593 12.876 17.259 20.05 34.788 22.958 56.06 0.747 5.475 0.747 20.604 0 26.516 -1.975 15.626 -6.301 29.25 -14.12 44.45 -9.345 18.17 -22.679 34.914 -36.939 46.39 -19.99 16.08 -45.644 27.475 -70.71 31.406 -6.325 0.992 -24.654 1.41 -30.557 0.697 z m 55.26 -76.44 c 2.907 -1.503 3.319 -6.289 0.717 -8.336 -1.2 -0.944 -2.02 -1.032 -9.578 -1.032 h -8.266 v -4.03 v -4.03 l 26.561 -0.139 l 26.561 -0.139 l 0.965 -1.192 c 0.932 -1.151 0.965 -2.554 0.965 -40.491 0 -21.614 -0.141 -39.667 -0.314 -40.12 -0.906 -2.361 1.027 -2.295 -67.885 -2.295 h -64.714 l -1.476 1.476 l -1.476 1.476 v 38.906 c 0 27.438 0.165 39.27 0.561 40.14 0.308 0.677 1.115 1.483 1.792 1.792 0.851 0.388 9.248 0.561 27.22 0.561 h 25.988 v 4.04 v 4.04 h -8.352 c -9.345 0 -10.36 0.293 -11.343 3.274 -0.736 2.23 -0.216 4.03 1.606 5.567 l 1.499 1.261 h 28.776 c 24.18 0 29 -0.117 30.19 -0.734 z"/></g><rect width="145.36" height="114.98" x="61.831" y="66.17" rx="3.983"/></g><path d="m 183.68 67.836 h -112.44 c -7.153 0 -12.973 6.627 -12.973 14.77 v 64 c 0 8.143 5.821 14.77 12.973 14.77 h 112.44 c 7.153 0 12.973 -6.627 12.973 -14.77 v -64 c 0 -8.143 -5.821 -14.77 -12.973 -14.77 m 4.324 78.77 c 0 2.713 -1.937 4.923 -4.324 4.923 h -112.44 c -2.387 0 -4.324 -2.211 -4.324 -4.923 v -64 c 0 -2.713 1.937 -4.923 4.324 -4.923 h 112.44 c 2.387 0 4.324 2.211 4.324 4.923 v 64 m 2.162 24.617 h -45.41 c 0 2.718 -1.933 4.923 -4.324 4.923 h -25.947 c -2.391 0 -4.324 -2.206 -4.324 -4.923 h -45.41 c -3.581 0 -6.487 3.308 -6.487 7.385 0 4.076 2.906 7.385 6.487 7.385 h 125.41 c 3.581 0 6.487 -3.308 6.487 -7.385 0 -4.077 -2.906 -7.385 -6.487 -7.385" style="fill:#ff4500"/></svg>