<svg xmlns="http://www.w3.org/2000/svg" viewBox="0 0 256 256"><g transform="translate(0 -796.36)" style="color:#000"><path d="m 229.63 992.2 c 92.05 -130.93 -77.948 -263.6 -186.39 -156.91 -102.17 100.51 -7.449 256.68 119.69 207.86 c 26.526 -10.185 49.802 -26.914 66.7 -50.948 z" style="fill:#fff"/><g transform="matrix(1.08452 0 0 1.17045 -8.106 -151.08)" style="fill:#ff4500"><path d="m 115.38,952.82 v 13.656 h -15.281 c -2.771,0 -5,2.229 -5,5 0,2.771 2.229,5 5,5 h 55.813 c 2.771,0 5,-2.229 5,-5 0,-2.771 -2.229,-5 -5,-5 H 140.631 V 952.82 h -25.25 z"/><path d="m 63.19,872.63 c -2.348,0 -4.25,1.902 -4.25,4.25 v 76.875 c 0,2.348 1.902,4.219 4.25,4.219 h 129.63 c 2.348,0 4.25,-1.871 4.25,-4.219 V 876.88 c 0,-2.348 -1.902,-4.25 -4.25,-4.25 z m 8.288,11.215 h 113.05 v 62.913 H 71.478 z"/></g><path d="m 69.64 123.88 v -36.34 h 60.746 h 60.746 v 36.34 v 36.34 h -60.746 h -60.746 v -36.34 z" transform="translate(0 796.36)" style="fill:#ffe4c4;fill-rule:evenodd"/></g></svg>