<svg xmlns="http://www.w3.org/2000/svg" viewBox="0 0 256 256"><g transform="translate(0 -796.36)"><path d="m 47.48 939.23 h 44.45 l 14.584 -54.43 l 27.982 104.43 l 16.352 -61.02 h 51.19" style="fill:none;stroke:#fff;stroke-linecap:round;stroke-linejoin:round;stroke-width:10"/><g style="fill:#fff"><path d="m 109.29 1051.94 c -30.24 -2.59 -57.6 -14.867 -74.72 -33.53 -11.547 -12.591 -23.293 -34.866 -29.63 -56.19 -6.523 -21.951 -6.59 -45.662 -0.185 -65.52 2.421 -7.507 8.963 -20.259 14.402 -28.07 15.311 -21.999 44.6 -46.18 71.837 -59.3 19.613 -9.452 33.666 -12.932 52.35 -12.962 39.06 -0.064 73.15 24.25 94.67 67.53 22.06 44.34 24.04 98.33 4.786 130.5 -4.683 7.829 -17.07 20.846 -26.5 27.852 -9.576 7.114 -29.441 17.07 -42.469 21.294 -21.22 6.873 -45.501 10.03 -64.54 8.404 z m 28.714 -59 c 1.086 -1.091 4.747 -12.945 9.398 -30.427 l 7.619 -28.639 l 25.2 -0.302 c 27.26 -0.327 27.11 -0.293 27.14 -5.94 0.03 -4.935 -0.536 -5.03 -30.523 -5.03 -25.476 0 -28.25 0.166 -29.691 1.778 -0.876 0.978 -4.089 11.149 -7.14 22.602 -5.181 19.45 -5.613 20.59 -6.54 17.269 -0.546 -1.956 -5.751 -21.33 -11.567 -43.05 -9.149 -34.17 -10.899 -39.712 -12.979 -41.08 -2.112 -1.389 -2.72 -1.404 -5.01 -0.118 -2.686 1.509 -2.636 1.352 -14.997 47.43 l -1.703 6.349 h -21.16 c -22.916 0 -24.354 0.331 -24.354 5.602 0 5.04 2.576 5.573 26.907 5.558 12.314 -0.01 23.362 -0.275 24.552 -0.594 28.22 -87.45 25.374 60.751 44.846 48.596 z"/><g transform="translate(0 796.36)"><path d="m 131.29 192.28 c -2.712 -5.316 -5.202 -14.844 -10.138 -38.788 -5.966 -28.946 -8.973 -35.773 -14.621 -33.2 -2.668 1.216 -7.57 10.157 -11.597 21.16 l -2.312 6.313 h -22.538 c -12.396 0 -23.704 -0.443 -25.13 -0.985 -1.964 -0.747 -2.591 -1.698 -2.591 -3.932 0 -1.839 0.664 -3.237 1.768 -3.719 0.972 -0.425 11.185 -0.979 22.695 -1.232 18.268 -0.402 20.988 -0.67 21.401 -2.114 0.26 -0.91 3.328 -12.11 6.816 -24.886 6.799 -24.905 8.784 -29.01 12.944 -26.785 2.529 1.354 6.207 13.604 23.301 77.61 1.441 5.398 2.593 8.06 3.219 7.431 0.536 -0.536 3.239 -8.839 6.01 -18.451 2.768 -9.612 5.677 -18.723 6.465 -20.247 1.963 -3.796 5.568 -4.2 33.574 -3.762 24.12 0.377 26.458 0.81 26.458 4.907 0 4.138 -2.242 4.531 -27.841 4.876 l -24.505 0.331 l -2.17 8.255 c -5.066 19.272 -12.227 44.36 -13.599 47.645 -2.05 4.906 -4.968 4.743 -7.605 -0.426 z"/><path d="m 48.23 129.17 c 0.882 3.571 2.085 7.05 3.176 10.558 0.926 2.92 2.131 5.736 3.218 8.596 0.776 2.273 1.36 4.607 2.086 6.895 0.661 1.972 1.174 4 1.954 5.934 0.106 0.165 0.17 0.366 0.318 0.494 0.279 0.242 0.517 0.049 0.778 -0.057 -4.156 2.192 -8.242 4.523 -12.469 6.575 -0.383 0.186 0.626 -0.587 0.863 -0.94 0.306 -0.456 0.502 -0.976 0.752 -1.465 1.67 -4.12 2.665 -8.482 3.404 -12.855 0.489 -3.067 0.615 -6.173 0.659 -9.274 -0.024 -0.4 -0.035 -0.8 -0.071 -1.199 -0.068 -0.742 -0.154 -1.531 -0.41 -2.24 -0.065 -0.181 -0.24 -0.687 -0.287 -0.5 -0.085 0.34 -0.169 1.186 0.151 1.042 4.247 -1.911 8.194 -4.428 12.291 -6.642 -1.388 5.851 -1.419 11.965 -1.457 17.956 0.144 6.552 1.407 3.263 -13.274 7.728 -0.51 0.155 0.024 -1.067 0.033 -1.6 0.024 -1.46 0.028 -2.413 0.04 -3.887 -0.098 -3.393 0.278 -6.826 -0.379 -10.176 -0.131 -0.243 -0.506 -3.4 -0.42 -3.448 13.484 -7.493 10.349 -10.676 14.24 -6.178 1.57 2.182 2.651 4.646 3.903 7.01 1.535 2.498 3.147 5.01 5.073 7.227 1.129 1.676 2.542 2.473 4.486 2.784 0.937 -0.166 0.525 0.021 1.247 -0.534 -4.128 2.326 -8.224 4.709 -12.385 6.977 -0.22 0.12 0.421 -0.301 0.541 -0.521 0.4 -0.736 0.499 -1.979 0.614 -2.742 0.281 -4.58 -0.971 -9.07 -2.319 -13.405 -0.21 -0.635 -0.406 -1.276 -0.63 -1.906 -0.429 -1.207 -0.646 -1.757 -1.217 -2.834 -0.09 -0.169 -0.469 -0.389 -0.304 -0.488 13.388 -8.03 11.04 -11.746 13.86 -6.02 3.454 5.987 6.384 12.245 9.08 18.604 1.542 3.508 2.987 7.06 4.438 10.603 0.582 1.423 1.195 2.76 1.362 4.289 -4.511 2.418 -8.811 5.282 -13.534 7.253 -0.477 0.199 -0.661 -0.794 -0.988 -1.194 -2.134 -2.611 -4.293 -5.16 -6.61 -7.613 -4.061 -4.156 -8.94 -7.329 -13.637 -10.696 -3.041 -2.347 -6.401 -4.214 -9.591 -6.333 -1.248 -0.877 -3.02 -1.318 -3.864 -2.659 4.447 -2.538 8.705 -5.438 13.34 -7.613 0.418 -0.196 0.741 0.552 1.107 0.833 0.626 0.48 1.238 0.978 1.87 1.448 3.744 2.785 7.589 5.427 11.439 8.06 9.556 6.068 18.805 12.663 28.605 18.338 0.74 0.299 1.439 0.734 2.221 0.896 0.472 0.098 0.96 -0.091 1.44 -0.137 -3.99 2.114 -7.88 4.429 -11.97 6.341 -0.425 0.199 0.665 -0.698 0.833 -1.136 0.612 -1.597 0.351 -3.228 0.296 -4.88 -0.77 -7.254 -2.852 -14.272 -5.05 -21.2 -0.625 -2.117 -1.346 -4.214 -2.194 -6.252 -0.155 -0.373 -0.305 -0.751 -0.507 -1.1 -0.08 -0.138 -0.324 -0.506 -0.332 -0.347 -0.017 0.341 0.2 0.652 0.3 0.979 16.693 -10.33 12.612 -11.466 12.226 -5 -0.105 1.765 -0.115 3.537 -0.144 5.304 0 3.626 -0.076 7.257 0.122 10.879 0.975 5.203 0.363 1.389 -13.382 6.993 -0.35 0.143 -0.149 -0.741 -0.239 -1.108 -0.124 -0.504 -0.262 -1 -0.403 -1.504 -0.181 -0.643 -0.376 -1.282 -0.564 -1.922 -0.201 -0.719 -0.401 -1.437 -0.602 -2.156 -1.192 -3.341 -1.757 -7.139 -3.869 -10.07 -0.101 -0.035 -0.269 -0.204 -0.304 -0.103 -0.074 0.214 -0.094 0.776 0.108 0.672 4.324 -2.245 8.397 -4.946 12.662 -7.301 0.145 -0.08 -0.183 0.282 -0.233 0.44 -0.131 0.417 -0.168 1.155 -0.204 1.567 -0.096 2.01 -0.067 4.02 -0.058 6.03 0.119 2.183 1.111 1.951 2.907 1.81 0.28 -0.101 0.58 -0.159 0.84 -0.302 0.249 -0.137 0.918 -0.668 0.669 -0.53 -4.07 2.256 -8.03 4.716 -12.142 6.89 -0.283 0.149 0.426 -0.488 0.566 -0.775 0.365 -0.75 0.625 -2.149 0.796 -2.901 0.503 -3.358 1.376 -6.629 2.23 -9.908 0.509 -2.404 1.219 -4.749 1.612 -7.176 0.275 -1.768 0.834 -3.455 1.5 -5.106 0.703 -1.899 1.214 -3.837 1.531 -5.836 0.287 -2.092 0.321 -4.206 0.345 -6.314 0.105 -2.22 0.644 -4.374 1.3 -6.487 0.681 -1.893 1.347 -3.795 1.949 -5.714 0.585 -1.932 1.222 -3.84 1.932 -5.729 0.485 -1.594 1.093 -3.137 1.566 -4.734 0.33 -1.319 1.297 -2.348 1.661 -3.645 15.393 -7.549 12.399 -10.16 15.878 -0.835 0.939 3.03 2.39 5.838 3.869 8.63 1.346 2.113 2.222 4.452 3.211 6.738 0.663 1.798 1.129 3.663 1.716 5.487 0.623 1.99 1.166 4.01 1.693 6.03 0.919 2.516 1.271 5.147 1.482 7.801 0.177 4.434 0.144 8.866 0.416 13.297 0.265 4.278 1.099 8.46 2.385 12.538 0.716 2.283 1.531 4.535 2.348 6.784 0.78 2.253 1.526 4.517 2.3 6.771 0.818 2.396 1.558 4.817 2.388 7.209 0.063 0.075 1.548 5.217 1.671 3.845 -4.328 2.251 -8.656 4.502 -12.984 6.753 0.156 -0.083 0.364 -0.105 0.467 -0.248 0.193 -0.267 0.286 -0.597 0.373 -0.914 0.481 -1.751 0.636 -3.66 0.902 -5.449 0.577 -3.764 1.336 -7.501 2.301 -11.185 0.47 -2.117 1.314 -4.112 1.97 -6.168 0.364 -1.555 1.256 -2.87 1.968 -4.271 1.184 -1.75 2.505 -3.402 3.717 -5.132 1.64 -2.718 3.467 -5.341 4.861 -8.198 0.814 -1.749 1.577 -3.546 3.01 -4.87 5.923 -3.868 -14.851 9.68 14.251 -8.328 3.969 -2.456 -8.08 4.681 -12.13 6.991 -0.231 0.131 0.425 -0.321 0.655 -0.454 13.546 -7.841 8.519 -6.458 14.362 -7.976 1.864 -0.358 3.772 -0.357 5.663 -0.374 2.588 -0.046 5.073 0.788 7.57 1.358 2.163 0.487 4.376 0.612 6.584 0.674 2.824 0.06 5.649 0.058 8.473 0.051 2.837 -0.025 5.642 0.506 8.463 0.764 2.418 0.132 4.774 0.105 7.116 0.767 2.739 0.963 5.482 1.69 7.898 3.343 2.179 2.241 3.26 5.29 4.432 8.136 0.667 1.837 0.916 3.8 -0.626 5.218 -5.537 4.417 -11.91 7.734 -18.31 10.728 -1.836 0.535 -3.496 1.417 -5.401 1.696 -3.728 -0.464 -7.251 -1.78 -10.823 -2.866 -15.392 -4.678 7.155 2.316 -10.03 -3.042 -8.942 -2.289 -17.871 -5.788 -27.19 -6.093 -0.57 0.098 -1.161 0.114 -1.71 0.295 -0.39 0.128 -1.425 0.816 -1.066 0.617 4.02 -2.23 7.964 -4.588 12.04 -6.71 0.262 -0.137 -0.393 0.45 -0.525 0.714 -0.327 0.65 -0.352 1.353 -0.446 2.056 0.175 3.28 0.628 6.542 0.868 9.821 0.293 3.712 0.292 7.415 -0.228 11.1 -0.423 2.922 -1.175 5.772 -1.955 8.614 -0.878 2.693 -1.208 5.491 -1.398 8.303 -0.157 2.499 -0.884 4.895 -1.58 7.284 -0.661 1.955 -1.234 3.939 -1.803 5.922 -0.663 2.256 -1.508 4.451 -2.11 6.725 -1.795 6.492 -2.684 4.327 -14.335 8.803 -0.38 0.146 -0.266 -0.77 -0.376 -1.162 -0.139 -0.498 -0.246 -1 -0.369 -1.507 -0.985 -3.938 -2.369 -7.753 -3.617 -11.609 -0.738 -2.509 -1.591 -4.987 -2.491 -7.443 -0.846 -2.623 -1.772 -5.228 -2.984 -7.705 -1.619 -3.22 -3.679 -6.19 -5.515 -9.285 -2.038 -3.446 -3.567 -7.147 -4.871 -10.923 -1.057 -3.062 -2.127 -6.12 -3.179 -9.184 -0.73 -2.283 -1.428 -4.576 -2.336 -6.795 -0.751 -2.036 -1.536 -4.06 -2.204 -6.125 -0.659 -2.119 -0.856 -4.327 -0.964 -6.531 -0.091 -1.62 0.259 -3.03 -1.771 -2.306 -5.411 3.11 6.389 -3.676 10.636 -5.959 0.487 -0.262 -0.914 0.627 -1.33 0.992 -1.614 1.415 -2.943 3.173 -4.318 4.809 -2.191 2.397 -3.583 5.267 -4.921 8.18 -0.545 1 -0.869 2.726 -1 3.543 -4.363 2.079 -8.589 4.471 -13.09 6.236 -0.386 0.151 0.216 -0.803 0.281 -1.213 0.092 -0.588 0.142 -1.183 0.189 -1.776 0.191 -2.371 0.218 -4.751 0.249 -7.128 0.041 -3.691 -0.025 -7.381 -0.072 -11.07 -0.029 -2.177 -0.037 -4.354 -0.042 -6.531 -0.035 -2.274 -0.118 -4.518 0.699 -6.67 3.03 -4.768 12.05 -7.658 14.941 -8.921 0.513 -0.224 1.013 0.489 1.47 0.813 2.02 1.436 4.455 3.844 6.139 5.402 14.233 13.685 27.522 28.348 42.23 41.538 3.672 3.292 7.502 6.402 11.253 9.603 9.256 7.227 18.932 13.933 29.11 19.796 3.052 1.758 8.03 4.422 11.529 5.773 1.127 0.436 2.318 0.681 3.478 1.021 0.761 -0.002 1.535 0.137 2.283 -0.006 0.497 -0.095 1.794 -0.932 1.351 -0.689 -3.953 2.171 -7.817 4.516 -11.88 6.473 -0.362 0.174 0.468 -0.664 0.605 -1.042 0.347 -0.955 0.341 -2.067 0.403 -3.058 -0.025 -3.78 -1.902 -7.094 -3.966 -10.136 -2.674 -3.72 -6.098 -6.77 -9.699 -9.561 -3.959 -2.974 -8.132 -5.643 -12.263 -8.369 -4.144 -2.67 -8.237 -5.423 -12.428 -8.02 -3.747 -2.377 -7.378 -4.917 -10.511 -8.07 -2.269 -2.553 -4.237 -5.367 -6.671 -7.769 -1.4 -1.33 -2.625 -2.726 -1.73 -4.657 5.861 -3.796 10.931 -9.112 17.916 -8.04 3.02 0.78 6.01 1.663 8.913 2.796 3.926 1.495 7.514 3.656 11.127 5.766 3.467 2.191 6.9 4.463 10.203 6.897 1.921 1.478 3.85 2.754 6.228 3.299 2.219 0.572 4.354 1.341 6.523 2.07 2.54 1.142 5.259 1.718 8.01 2.044 0.285 0.023 1.967 0.168 2.275 0.147 0.272 -0.018 0.567 -0.038 0.797 -0.185 0.172 -0.109 0.494 -0.625 0.317 -0.524 -12.563 7.185 -12.969 12.365 -12.511 7.283 -1.5 -2.459 -3.722 -4.403 -5.852 -6.305 -3.082 -2.597 -6.581 -4.628 -9.968 -6.792 -0.518 -0.35 -1.031 -0.708 -1.554 -1.05 -0.098 -0.064 -1.648 -1.125 -2.055 -1.107 -0.142 0.006 -0.29 0.463 -0.166 0.394 13.346 -7.439 10.886 -12.04 13.382 -6.213 3.03 6.29 6.958 12.08 10.166 18.276 0.376 1.435 1.023 2.622 0.232 4.086 -0.319 0.59 -0.835 1.105 -1.429 1.416 -5.076 2.657 -10.1 5.508 -15.494 7.443 -0.736 0.264 -8.974 -1.375 -9.01 -1.382 -13.02 -2.569 -25.669 -6.619 -38.41 -10.259 -7.804 -2.298 -15.713 -4.237 -23.501 -6.588 -2 -0.692 -4.26 -1.158 -6.075 -2.327 -0.785 -0.505 -1.476 -1.142 -2.227 -1.697 -3.576 -3.271 -7.336 -6.338 -11.212 -9.245 -3.534 -2.915 -7.847 -4.46 -11.823 -6.605 -2.503 -1.692 -2 -4.424 -1.34 -6.967 1.292 -3.767 2.695 -7.496 3.959 -11.273 1.493 -5.899 8.579 -18.566 15.837 -11.09 2.538 3.063 4.703 6.413 6.989 9.662 2.338 3.122 4.222 6.545 6.428 9.753 0.096 1.767 0.724 -0.006 0.557 0.079 -4.308 2.205 -8.404 4.819 -12.769 6.908 -0.289 0.138 0.208 -0.608 0.262 -0.923 0.161 -0.946 0.203 -2.582 0.246 -3.477 -0.228 -6.01 -1.928 -11.839 -3.541 -17.598 -1.202 -4.12 -2.01 -8.328 -2.441 -12.594 -0.696 -6.527 -1.65 -2.156 13.178 -8.475 0.295 -0.126 0.1 0.633 0.154 0.949 0.078 0.457 0.161 0.913 0.241 1.37 1.451 5.521 3.044 10.963 4.051 16.593 0.919 4.651 0.994 9.41 1.61 14.09 1.287 5.603 5.386 0.312 -12.719 7.04 -0.382 0.142 0.15 -0.801 0.2 -1.206 0.131 -1.069 0.156 -2.043 0.208 -3.122 0.133 -4.122 0.112 -8.247 0.076 -12.37 -0.117 -3.01 -0.133 -5.993 0.427 -8.963 1.721 -7.582 4.125 -7.082 14.674 -11.643 0.5 -0.216 0.601 0.91 0.902 1.364 2.387 5.255 3.944 10.843 5.608 16.357 1.553 5.137 3.559 10.123 4.926 15.316 0.347 1.329 0.527 2.687 0.688 4.047 0 0 -13.215 6.896 -13.215 6.896 c -0.1 -1.314 -0.216 -2.628 -0.488 -3.921 -1.131 -5.25 -2.968 -10.294 -4.552 -15.418 -1.637 -5.307 -3.157 -10.76 -5.852 -15.645 -4.871 -1.037 -0.372 -0.05 12.397 -7.475 0.179 -0.104 -0.328 0.261 -0.448 0.429 -0.675 0.946 -0.948 2.132 -1.241 3.23 -0.743 2.864 -0.74 5.785 -0.696 8.731 -0.016 4.128 0.013 8.257 0.008 12.385 -0.005 0.318 -0.075 4.446 -0.167 4.509 -10.04 6.857 -12.771 13.03 -13.89 6.356 -0.504 -4.721 -0.293 -9.521 -1.216 -14.207 -0.987 -5.595 -2.578 -10.972 -4.391 -16.348 -0.227 -0.879 -0.56 -2.138 -0.531 -2.156 14.635 -9.428 12.996 -12.279 13.221 -5.563 0.268 4.228 0.921 8.413 2.031 12.508 1.55 5.895 3.322 11.776 3.941 17.864 0 0.207 -0.016 4.738 -0.031 4.748 -7.438 5.205 -10.594 12.182 -14.294 6.835 -1.952 -3.34 -3.885 -6.692 -6.175 -9.818 -2.188 -3.1 -4.29 -6.364 -7.02 -9.02 -2.586 4.403 -0.156 0.175 12.253 -7.164 0.204 -0.121 -0.413 0.245 -0.574 0.419 -0.873 0.947 -1.119 2.28 -1.469 3.465 -1.27 3.75 -2.722 7.432 -3.955 11.194 -0.606 1.945 -1.567 3.858 0.401 5.225 3.888 2.314 8.162 3.997 11.679 6.924 3.885 2.928 7.659 5.994 11.427 9.07 2.418 1.69 4.986 2.982 7.862 3.751 7.569 2.473 15.218 4.701 22.839 7.01 12.706 3.799 25.386 7.841 38.51 9.975 1.716 0.228 3.423 0.543 5.148 0.683 1.328 0.108 4.886 -0.935 3.998 0.059 -2.652 2.969 -6.766 4.216 -9.951 6.605 -0.491 0.368 1.262 -0.143 1.778 -0.475 1.285 -0.827 0.709 -1.97 0.565 -3.158 -2.875 -6.379 -6.822 -12.12 -10.425 -18.09 -3.338 -5.713 -1.558 -1.604 11.657 -10.09 0.012 -0.008 2.402 1.616 2.523 1.7 0.502 0.349 1.01 0.687 1.515 1.031 3.438 2.219 6.98 4.318 10.1 6.988 2.336 2.09 4.779 4.193 6.483 6.853 2.906 7.01 -10.499 10.291 -16.22 9.09 -2.793 -0.469 -5.515 -1.221 -8.145 -2.283 -2.161 -0.735 -4.356 -1.322 -6.543 -1.973 -2.404 -0.821 -4.434 -2.239 -6.405 -3.825 -3.219 -2.435 -6.582 -4.695 -10.01 -6.818 -3.576 -2.068 -7.176 -4.103 -11.08 -5.497 -2.85 -1.017 -5.772 -1.962 -8.778 -2.368 -0.942 0.022 -1.863 0.06 -2.782 0.297 -1.099 0.283 -1.493 0.676 -1.346 0.588 4.08 -2.433 8.164 -4.859 12.246 -7.289 -0.102 0.03 -1.026 0.318 -1.058 0.482 -0.155 0.777 1.296 1.686 1.56 2.182 2.339 2.479 4.322 5.257 6.603 7.787 3.07 3.03 6.512 5.617 10.193 7.875 4.192 2.628 8.364 5.295 12.483 8.03 4.152 2.757 8.332 5.474 12.32 8.468 3.704 2.912 7.212 6.087 10.02 9.903 2.236 3.274 4.202 6.898 4.475 10.929 -0.01 0.64 -0.022 4.693 -0.492 5.03 -4.336 3.082 -8.97 5.733 -13.614 8.329 -0.454 0.254 -1.035 0.188 -1.553 0.149 -0.768 -0.058 -1.511 -0.293 -2.267 -0.439 -5.07 -2.115 -9.496 -4.757 -14.13 -7.749 -9.795 -6.326 -19.252 -13.176 -28.318 -20.509 -3.752 -3.221 -7.561 -6.375 -11.255 -9.662 -14.866 -13.225 -28.624 -27.669 -43.92 -40.41 -1.354 -1.04 -2.661 -2.143 -4.061 -3.119 -0.771 -0.537 -1.574 -1.047 -2.439 -1.413 -0.322 -0.136 -1.343 0.131 -1.048 -0.059 19.78 -12.737 15.263 -8.67 10.606 -6.289 -1.373 1.761 -1.043 3.885 -1.031 6 -0.001 2.187 -0.004 4.375 -0.023 6.562 -0.033 3.731 -0.089 7.463 -0.12 11.194 -0.039 2.985 -0.034 5.973 -0.15 8.957 -0.018 0.466 0.321 1.138 -0.067 1.397 -4.32 2.888 -9.03 5.138 -13.552 7.706 -0.771 -1.537 0.046 -3.351 0.511 -4.887 1.361 -3.047 2.786 -6.082 4.979 -8.641 5.547 -6.725 10.48 -13.04 20.627 -14.406 2.422 0.497 2.995 1.935 2.952 4.291 0.066 2.083 0.18 4.178 0.753 6.195 0.627 2.041 1.471 4 2.185 6.01 0.885 2.264 1.578 4.593 2.279 6.92 1.019 3.078 2.1 6.136 3.12 9.214 1.228 3.693 2.68 7.323 4.666 10.682 1.869 3.117 4.04 6.06 5.689 9.305 1.295 2.498 2.18 5.178 3.082 7.838 0.941 2.476 1.832 4.984 2.461 7.559 1.138 3.9 2.461 7.744 3.675 11.621 0.148 0.466 0.295 0.932 0.444 1.397 0.065 0.203 0.381 0.501 0.197 0.609 -4.293 2.539 -8.802 4.696 -13.187 7.07 -0.121 0.065 0.289 -0.042 0.388 -0.137 0.342 -0.327 0.607 -1.163 0.755 -1.534 0.525 -2.298 1.333 -4.507 2.07 -6.74 0.506 -2.03 1.158 -4.02 1.789 -6.02 0.853 -2.231 1.398 -4.608 1.792 -6.961 0.184 -2.888 0.38 -5.804 1.258 -8.581 0.812 -2.804 1.609 -5.616 2.09 -8.497 0.685 -3.572 0.686 -7.18 0.4 -10.8 -0.228 -3.338 -0.625 -6.65 -1.075 -9.964 0.015 -0.496 0.093 -3.396 0.513 -3.682 7.255 -4.943 9.669 -8.527 16.439 -8.463 9.153 1.166 17.894 4.54 26.825 6.716 7.49 2.147 3.266 0.97 10.288 2.86 3.532 0.951 7.206 2.261 10.917 1.886 1.759 -0.544 3.483 -1.233 5.171 -1.961 4.676 -2.4 10.185 -5.921 -9.757 5.845 -0.608 0.358 1.227 -0.707 1.78 -1.144 0.232 -0.183 0.471 -0.357 0.707 -0.535 0.214 -0.144 0.428 -0.287 0.643 -0.431 0.225 -0.061 0.479 -0.055 0.674 -0.182 0.857 -0.558 0.393 -2.236 0.214 -2.946 -0.899 -2.601 -1.937 -5.391 -3.965 -7.323 -2.33 -1.439 -4.984 -2.146 -7.593 -2.921 -2.326 -0.418 -4.685 -0.321 -7.03 -0.599 -2.763 -0.317 -5.523 -0.795 -8.315 -0.68 -2.865 -0.001 -5.731 0.034 -8.595 -0.042 -2.257 -0.128 -4.508 -0.371 -6.704 -0.935 -2.43 -0.59 -4.877 -1.212 -7.403 -1.015 -1.818 0.061 -3.679 0.111 -5.392 0.791 -4.9 2.417 -1.045 0.536 11.409 -6.691 0.227 -0.132 -0.452 0.269 -0.679 0.402 -4.485 2.64 -9.08 5.107 -13.457 7.917 -3.672 2.355 16.881 -10.235 11.342 -6.529 -0.435 0.181 -1.121 0.41 -1.466 0.773 -0.886 0.933 -1.245 2.306 -1.961 3.353 -1.277 2.991 -3.255 5.564 -4.79 8.422 -1.094 1.75 -2.299 3.441 -3.598 5.04 -0.905 1.168 -1.474 2.603 -2.179 3.898 -0.528 2.14 -1.589 4.075 -2.077 6.231 -1.142 3.601 -1.881 7.323 -2.513 11.04 -0.262 2.231 -0.495 4.467 -0.781 6.694 -0.039 0.303 0.137 0.752 -0.126 0.906 -4.413 2.599 -9.06 4.78 -13.588 7.17 -1.287 -1.384 -1.568 -3.306 -2.182 -5.04 -0.848 -2.388 -1.522 -4.836 -2.34 -7.234 -0.806 -2.236 -1.613 -4.474 -2.357 -6.73 -0.809 -2.284 -1.637 -4.566 -2.293 -6.9 -1.229 -4.228 -2.01 -8.539 -2.357 -12.934 -0.306 -4.393 -0.422 -8.783 -0.592 -13.182 -0.207 -2.561 -0.517 -5.114 -1.465 -7.525 -0.492 -1.99 -1.067 -3.96 -1.645 -5.925 -0.619 -1.775 -1.072 -3.604 -1.67 -5.385 -0.928 -2.272 -1.721 -4.602 -3.038 -6.693 -1.471 -2.857 -3.02 -5.683 -3.968 -8.772 -3.506 -8.956 -4.03 -4.12 10.992 -12.247 -0.572 0.153 -1.601 2.541 -1.967 3.196 -0.371 0.765 -0.47 1.532 -0.747 2.331 -0.174 0.502 -0.468 0.956 -0.642 1.459 -0.102 0.297 -0.145 0.61 -0.218 0.916 -0.614 1.906 -1.458 3.719 -1.993 5.656 -0.498 1.987 -1.259 3.885 -1.92 5.823 -0.813 1.919 -1.179 3.971 -1.505 6.02 -0.016 2.168 -0.039 4.341 -0.275 6.499 -0.263 2.076 -0.673 4.105 -1.335 6.086 -0.537 1.638 -1.35 3.152 -1.691 4.864 -0.34 2.501 -1.022 4.896 -1.617 7.338 -0.78 3.286 -1.964 6.483 -2.292 9.87 -0.081 0.442 -0.587 4.141 -0.884 4.344 -4.393 3.01 -9.377 8.25 -15.278 8.488 -2.294 -0.238 -3.914 -1.337 -4.106 -3.783 -0.01 -2.03 -0.03 -4.061 -0.008 -6.091 0.005 -0.248 -0.116 -2.405 0.08 -2.537 7.179 -4.856 10.09 -11.868 14.191 -6.987 1.82 3.289 2.643 7.03 3.845 10.562 3.03 10.266 4.86 5.343 -11.09 13.899 -0.11 0.059 0.035 -0.248 0.052 -0.372 0.164 -3.661 0.083 -7.327 0.074 -10.99 -0.026 -2.205 -0.042 -4.406 0.002 -6.611 0.008 -0.39 -0.292 -0.934 0.019 -1.169 4.111 -3.104 8.578 -5.707 12.867 -8.561 2.394 2.275 2.479 6.175 3.601 9.12 2.042 7.07 4.127 14.159 5.251 21.453 0.091 0.798 0.78 6.625 -0.178 7.264 -10.02 6.691 -10.655 10.143 -17.686 6.173 -9.364 -6.277 -18.522 -12.869 -28.23 -18.625 -1.641 -1.049 -3.282 -2.097 -4.923 -3.146 -1.354 -0.874 -2.706 -1.752 -4.063 -2.622 -1.688 -1.082 -3.353 -2.202 -5.079 -3.222 -0.375 -0.222 -1.505 -0.335 -1.16 -0.6 3.914 -3.01 8.284 -5.372 12.426 -8.06 -0.065 -0.081 -0.291 -0.275 -0.194 -0.242 0.297 0.102 0.451 0.442 0.71 0.62 0.864 0.592 1.85 0.992 2.673 1.65 3.151 2.146 6.367 4.199 9.397 6.52 4.711 3.472 9.614 6.738 13.715 10.955 1.901 1.965 3.702 4 5.562 6.01 0.439 0.472 0.868 0.956 1.34 1.396 0.222 0.208 0.986 0.369 0.735 0.542 -4.02 2.776 -8.345 5.068 -12.518 7.602 0.14 -0.069 0.399 -0.052 0.42 -0.206 0.088 -0.636 -0.789 -3.26 -0.852 -3.448 -1.212 -3.629 -2.656 -7.182 -4.16 -10.696 -2.753 -6.25 -5.749 -12.448 -9.578 -18.12 -3.512 -5.05 -1.345 -1.239 12.134 -8.798 0.166 -0.093 0.082 0.372 0.148 0.55 0.623 1.654 1.393 3.259 1.779 4.998 1.347 4.512 2.642 9.135 2.712 13.874 -0.025 0.344 -0.265 4.098 -0.495 4.249 -5.86 3.845 -9.196 8.718 -15.1 7.667 -2.097 -0.631 -3.704 -1.798 -4.942 -3.633 -1.911 -2.363 -3.591 -4.929 -5.165 -7.525 -1.197 -2.207 -2.232 -4.542 -3.841 -6.49 -4.647 -2.441 0.204 0.21 12.569 -7.306 0.174 -0.106 -0.289 -0.391 -0.492 -0.365 -0.1 0.013 -0.226 0.76 -0.19 1.251 0.028 0.385 0.124 0.761 0.186 1.142 0.753 3.457 0.333 6.989 0.41 10.503 0.008 1.272 0.259 5.261 0.081 5.387 -15.676 11.142 -13.611 12.482 -13.1 5.679 0.344 -6.094 0.555 -12.198 1.03 -18.284 10.783 -7.292 14.02 -14.01 15.13 -3.489 -0.07 3.194 -0.249 6.388 -0.717 9.552 -0.761 4.444 -1.769 8.855 -3.18 13.14 -0.14 0.387 -1.01 2.886 -1.171 2.987 -2.041 1.277 -12.289 12.186 -15.579 5.877 -0.791 -1.964 -1.321 -4.03 -1.977 -6.04 -0.751 -2.262 -1.278 -4.595 -2 -6.867 -1.071 -2.903 -2.285 -5.753 -3.175 -8.722 -1.07 -3.53 -2.202 -7.04 -3.373 -10.54 0 0 13.147 -7.11 13.147 -7.11 z"/></g></g><path d="m 173.56 1002.68 c -1.492 -0.478 -4.514 -0.917 -6.716 -0.977 -2.202 -0.059 -4.305 -0.596 -4.674 -1.193 -0.369 -0.597 -1.665 -1.085 -2.88 -1.085 -1.215 0 -3.505 -0.658 -5.089 -1.462 -1.584 -0.804 -4.832 -2.363 -7.218 -3.464 -2.386 -1.101 -5.893 -3.127 -7.792 -4.504 -1.899 -1.376 -3.706 -2.502 -4.02 -2.502 -3.294 0 -30.381 -24.1 -39.672 -35.29 -4.02 -4.844 -15.534 -22.288 -17.536 -26.567 -0.969 -2.071 -3.044 -6.373 -4.61 -9.561 -1.566 -3.187 -2.848 -6.911 -2.848 -8.274 0 -1.363 -0.674 -3.039 -1.499 -3.723 -0.824 -0.684 -1.799 -4.04 -2.167 -7.455 -0.367 -3.416 -0.959 -8.229 -1.315 -10.694 -0.398 -2.757 -0.19 -4.766 0.539 -5.217 0.653 -0.403 1.187 -1.925 1.187 -3.381 0 -1.456 0.429 -2.648 0.953 -2.648 0.524 0 1.516 -1.358 2.203 -3.02 1.588 -3.834 5.354 -8.197 8.525 -9.878 2.954 -1.565 7.478 0.209 9.371 3.675 0.652 1.193 1.478 2.414 1.837 2.712 2.114 1.758 9.544 16.33 11.655 22.857 2.552 7.892 0.556 14.02 -4.566 14.02 -2.116 0 -7.106 2.978 -9.06 5.409 -3.227 4.01 0.457 10.925 10.176 19.1 8.385 7.05 22.905 21.599 26.956 27.01 4.32 5.768 10.83 13.03 16.8 18.733 4.402 4.207 5.342 4.635 9.567 4.362 5.058 -0.327 5.732 -1.057 9.559 -10.337 1.899 -4.606 1.907 -4.61 7.659 -4.61 3.167 0 5.757 0.449 5.757 0.999 0 0.549 1.586 1.343 3.525 1.763 1.939 0.421 3.769 1.07 4.068 1.442 0.298 0.372 2.251 1.557 4.339 2.632 5.895 3.035 17.356 12.554 17.356 14.414 0 2.19 -11.295 13.461 -13.489 13.461 -0.934 0 -1.698 0.369 -1.698 0.821 0 1 -7.913 3.56 -10.559 3.41 -1.053 -0.06 -3.136 -0.499 -4.627 -0.977 z" style="fill:#ff4500;fill-rule:evenodd"/></g></svg>