<svg xmlns="http://www.w3.org/2000/svg" viewBox="0 0 256 256"><defs><clipPath><path transform="matrix(15.33333 0 0 11.5 415 -125.5)" d="m -24 13 c 0 1.105 -0.672 2 -1.5 2 -0.828 0 -1.5 -0.895 -1.5 -2 0 -1.105 0.672 -2 1.5 -2 0.828 0 1.5 0.895 1.5 2 z"/></clipPath></defs><g transform="translate(0 -796.36)"><path d="m 26.373 992.2 c -92.05 -130.93 77.948 -263.6 186.39 -156.91 102.17 100.51 7.449 256.68 -119.69 207.86 -26.526 -10.185 -49.802 -26.914 -66.7 -50.948 z" style="fill:#fff;color:#000"/><g transform="matrix(0.82831 0 0 0.82843 27.617 156.16)" style="fill:#ff4ff4500"><path d="m 70.74 1021.82 c -5.444 -2.824 -7.087 -4.404 -10 -9.62 l -2.498 -4.469 v -88.67 c 0 -67.64 0.285 -88.96 1.2 -89.87 0.9 -0.9 13.343 -1.2 49.842 -1.2 h 48.642 l 19.658 19.658 l 19.658 19.658 l -0.079 70.59 l -0.079 70.59 l -2.725 4.5 c -1.767 2.918 -4.623 5.642 -8.127 7.75 l -5.403 3.25 l -53.04 -0.044 c -51.685 -0.043 -53.15 -0.097 -57.04 -2.119 z m 25.5 -38.837 v -16 h -6.5 h -6.5 v 16 v 16 h 6.5 h 6.5 v -16 z m 38 9.5 v -6.5 h -6.5 h -6.5 v 6.5 v 6.5 h 6.5 h 6.5 v -6.5 z m 38 -9.5 v -16 h -6.5 h -6.5 v 16 v 16 h 6.5 h 6.5 v -16 z m -38 -38 v -16 h -6.5 h -6.5 v 16 v 16 h 6.5 h 6.5 v -16 z m -38 -9.5 v -6.5 h -6.5 h -6.5 v 6.5 v 6.5 h 6.5 h 6.5 v -6.5 z m 76 0 v -6.5 h -6.5 h -6.5 v 6.5 v 6.5 h 6.5 h 6.5 v -6.5 z"/><path d="m 71.74 1021.25 c -4.336 -2.198 -8.402 -6.22 -10.592 -10.477 -1.835 -3.568 -1.908 -7.078 -1.908 -91.55 0 -66.987 0.285 -88.12 1.2 -89.04 0.9 -0.9 13.154 -1.2 48.994 -1.2 h 47.794 l 19.506 19.506 l 19.506 19.506 v 69.53 c 0 66.46 -0.084 69.7 -1.908 73.24 -2.275 4.423 -6.33 8.321 -10.995 10.57 -3.03 1.461 -9.154 1.629 -56 1.534 -44.941 -0.091 -53.03 -0.327 -55.6 -1.627 z m 25.5 -38.27 v -17 h -7.5 h -7.5 v 17 v 17 h 7.5 h 7.5 v -17 z m 38 9.5 v -7.5 h -7.5 h -7.5 v 7.5 v 7.5 h 7.5 h 7.5 v -7.5 z m 38 -9.5 v -17 h -7.5 h -7.5 v 17 v 17 h 7.5 h 7.5 v -17 z m -38 -38 v -17 h -7.5 h -7.5 v 17 v 17 h 7.5 h 7.5 v -17 z m -38 -9.5 v -7.5 h -7.5 h -7.5 v 7.5 v 7.5 h 7.5 h 7.5 v -7.5 z m 76 0 v -7.5 h -7.5 h -7.5 v 7.5 v 7.5 h 7.5 h 7.5 v -7.5 z"/><path d="m 70.74 1019.91 c -4.774 -2.381 -5.686 -3.271 -8.413 -8.207 -2.074 -3.754 -2.089 -4.396 -2.089 -92.75 v -88.97 h 48.76 h 48.76 l 18.74 18.76 l 18.74 18.76 v 70.21 c 0 69.29 -0.027 70.26 -2.085 73.99 -2.409 4.367 -5.04 6.736 -9.787 8.808 -2.833 1.237 -11.789 1.466 -56 1.433 -50.53 -0.038 -52.787 -0.119 -56.626 -2.034 z m 26.298 -20.13 c 1.68 -1.68 1.68 -31.92 0 -33.6 -0.671 -0.671 -3.889 -1.2 -7.3 -1.2 -3.411 0 -6.629 0.529 -7.3 1.2 -1.68 1.68 -1.68 31.92 0 33.6 0.671 0.671 3.889 1.2 7.3 1.2 3.411 0 6.629 -0.529 7.3 -1.2 z m 38 0 c 0.671 -0.671 1.2 -3.889 1.2 -7.3 0 -3.411 -0.529 -6.629 -1.2 -7.3 -0.671 -0.671 -3.889 -1.2 -7.3 -1.2 -3.411 0 -6.629 0.529 -7.3 1.2 -1.566 1.566 -1.566 13.03 0 14.6 0.671 0.671 3.889 1.2 7.3 1.2 3.411 0 6.629 -0.529 7.3 -1.2 z m 38 0 c 0.831 -0.831 1.2 -6 1.2 -16.8 0 -10.8 -0.369 -15.969 -1.2 -16.8 -0.671 -0.671 -3.889 -1.2 -7.3 -1.2 -3.411 0 -6.629 0.529 -7.3 1.2 -0.831 0.831 -1.2 6 -1.2 16.8 0 10.8 0.369 15.969 1.2 16.8 0.671 0.671 3.889 1.2 7.3 1.2 3.411 0 6.629 -0.529 7.3 -1.2 z m -38 -38 c 0.831 -0.831 1.2 -6 1.2 -16.8 0 -10.8 -0.369 -15.969 -1.2 -16.8 -0.671 -0.671 -3.889 -1.2 -7.3 -1.2 -3.411 0 -6.629 0.529 -7.3 1.2 -1.68 1.68 -1.68 31.92 0 33.6 0.671 0.671 3.889 1.2 7.3 1.2 3.411 0 6.629 -0.529 7.3 -1.2 z m -38 -19 c 1.566 -1.566 1.566 -13.03 0 -14.6 -0.671 -0.671 -3.889 -1.2 -7.3 -1.2 -3.411 0 -6.629 0.529 -7.3 1.2 -0.671 0.671 -1.2 3.889 -1.2 7.3 0 3.411 0.529 6.629 1.2 7.3 1.566 1.566 13.03 1.566 14.6 0 z m 76 0 c 0.671 -0.671 1.2 -3.889 1.2 -7.3 0 -3.411 -0.529 -6.629 -1.2 -7.3 -0.671 -0.671 -3.889 -1.2 -7.3 -1.2 -3.411 0 -6.629 0.529 -7.3 1.2 -0.671 0.671 -1.2 3.889 -1.2 7.3 0 3.411 0.529 6.629 1.2 7.3 1.566 1.566 13.03 1.566 14.6 0 z"/><path d="m 72.24 1020.32 c -4.583 -1.972 -7.753 -4.97 -10.1 -9.551 -1.841 -3.59 -1.899 -6.832 -1.653 -92 l 0.255 -88.28 l 48.15 -0.26 l 48.15 -0.26 l 19.1 19.1 l 19.1 19.1 v 69.45 c 0 67.15 -0.065 69.58 -1.972 73.31 -2.198 4.308 -5.84 7.531 -10.9 9.646 -5.154 2.154 -105.07 1.918 -110.13 -0.26 z m 25.5 -37.33 v -17.5 h -8 h -8 l -0.276 16.462 c -0.152 9.05 -0.046 17.06 0.235 17.792 0.378 0.986 2.522 1.255 8.276 1.038 l 7.765 -0.292 v -17.5 z m 38 9.5 v -8 h -8 h -8 l -0.299 6.901 c -0.428 9.864 -0.546 9.733 8.534 9.392 l 7.765 -0.292 v -8 z m 38 -9.5 v -17.5 h -8 h -8 l -0.276 16.462 c -0.152 9.05 -0.046 17.06 0.235 17.792 0.378 0.986 2.522 1.255 8.276 1.038 l 7.765 -0.292 v -17.5 z m -38 -38 v -17.5 h -8 h -8 l -0.276 16.462 c -0.152 9.05 -0.046 17.06 0.235 17.792 0.378 0.986 2.522 1.255 8.276 1.038 l 7.765 -0.292 v -17.5 z m -38 -9.5 v -8 h -8 h -8 l -0.299 6.901 c -0.428 9.864 -0.546 9.733 8.534 9.392 l 7.765 -0.292 v -8 z m 76 0 v -8 h -8 h -8 l -0.299 6.901 c -0.428 9.864 -0.546 9.733 8.534 9.392 l 7.765 -0.292 v -8 z"/><path d="m 71.74 1019.32 c -4.409 -2.33 -6.487 -4.393 -8.606 -8.545 -1.816 -3.558 -1.894 -7.332 -1.894 -91.75 v -88.04 h 47.847 h 47.847 l 18.653 18.653 l 18.653 18.653 v 69.4 c 0 61.997 -0.173 69.74 -1.621 72.6 -2.301 4.545 -4.346 6.641 -8.59 8.807 -3.505 1.789 -6.627 1.891 -56.5 1.854 -46.2 -0.035 -53.16 -0.238 -55.79 -1.625 z m 26.3 -18.535 c 1.684 -1.684 1.684 -33.916 0 -35.6 -1.593 -1.593 -15.01 -1.593 -16.6 0 -1.684 1.684 -1.684 33.916 0 35.6 0.708 0.708 4.111 1.2 8.3 1.2 4.189 0 7.592 -0.492 8.3 -1.2 z m 38 0 c 0.708 -0.708 1.2 -4.111 1.2 -8.3 0 -4.189 -0.492 -7.592 -1.2 -8.3 -0.708 -0.708 -4.111 -1.2 -8.3 -1.2 -4.189 0 -7.592 0.492 -8.3 1.2 -1.593 1.593 -1.593 15.01 0 16.6 0.708 0.708 4.111 1.2 8.3 1.2 4.189 0 7.592 -0.492 8.3 -1.2 z m 38 0 c 0.837 -0.837 1.2 -6.222 1.2 -17.8 0 -11.578 -0.363 -16.963 -1.2 -17.8 -1.593 -1.593 -15.01 -1.593 -16.6 0 -0.837 0.837 -1.2 6.222 -1.2 17.8 0 11.578 0.363 16.963 1.2 17.8 0.708 0.708 4.111 1.2 8.3 1.2 4.189 0 7.592 -0.492 8.3 -1.2 z m -38 -38 c 0.837 -0.837 1.2 -6.222 1.2 -17.8 0 -11.578 -0.363 -16.963 -1.2 -17.8 -1.593 -1.593 -15.01 -1.593 -16.6 0 -1.684 1.684 -1.684 33.916 0 35.6 0.708 0.708 4.111 1.2 8.3 1.2 4.189 0 7.592 -0.492 8.3 -1.2 z m -38 -19 c 0.708 -0.708 1.2 -4.111 1.2 -8.3 0 -4.189 -0.492 -7.592 -1.2 -8.3 -0.708 -0.708 -4.111 -1.2 -8.3 -1.2 -4.189 0 -7.592 0.492 -8.3 1.2 -1.593 1.593 -1.593 15.01 0 16.6 0.708 0.708 4.111 1.2 8.3 1.2 4.189 0 7.592 -0.492 8.3 -1.2 z m 76 0 c 0.708 -0.708 1.2 -4.111 1.2 -8.3 0 -4.189 -0.492 -7.592 -1.2 -8.3 -0.708 -0.708 -4.111 -1.2 -8.3 -1.2 -4.189 0 -7.592 0.492 -8.3 1.2 -0.708 0.708 -1.2 4.111 -1.2 8.3 0 4.189 0.492 7.592 1.2 8.3 0.708 0.708 4.111 1.2 8.3 1.2 4.189 0 7.592 -0.492 8.3 -1.2 z"/><path d="m 72.74 1019.33 c -4.395 -2.317 -7.447 -5.355 -9.603 -9.559 -1.841 -3.589 -1.899 -6.815 -1.653 -91 l 0.255 -87.28 l 47.31 -0.26 l 47.31 -0.26 l 18.945 18.945 l 18.945 18.945 v 68.61 c 0 61.21 -0.174 68.96 -1.617 71.815 -2.282 4.517 -5.294 7.593 -9.593 9.798 -3.509 1.8 -6.516 1.901 -55.5 1.863 -45.24 -0.035 -52.17 -0.24 -54.79 -1.622 z m 26 -36.34 v -18.5 h -9 h -9 l -0.275 17.465 c -0.151 9.606 -0.046 18.06 0.234 18.789 0.38 0.991 2.711 1.252 9.275 1.035 l 8.766 -0.289 v -18.5 z m 38 9.5 v -9 h -9 h -9 l -0.295 7.912 c -0.162 4.351 -0.057 8.532 0.234 9.289 0.406 1.057 2.569 1.31 9.295 1.088 l 8.766 -0.289 v -9 z m 38 -9.5 v -18.5 h -9 h -9 l -0.275 17.465 c -0.151 9.606 -0.046 18.06 0.234 18.789 0.38 0.991 2.711 1.252 9.275 1.035 l 8.766 -0.289 v -18.5 z m -38 -38 v -18.5 h -9 h -9 l -0.275 17.465 c -0.151 9.606 -0.046 18.06 0.234 18.789 0.38 0.991 2.711 1.252 9.275 1.035 l 8.766 -0.289 v -18.5 z m -38 -9.5 v -9 h -9 h -9 l -0.295 7.912 c -0.162 4.351 -0.057 8.532 0.234 9.289 0.406 1.057 2.569 1.31 9.295 1.088 l 8.766 -0.289 v -9 z m 76 0 v -9 h -9 h -9 l -0.295 7.912 c -0.162 4.351 -0.057 8.532 0.234 9.289 0.406 1.057 2.569 1.31 9.295 1.088 l 8.766 -0.289 v -9 z"/></g></g></svg>