<svg xmlns="http://www.w3.org/2000/svg" viewBox="0 0 256 256"><defs><clipPath><path transform="matrix(15.33333 0 0 11.5 415 -125.5)" d="m -24 13 c 0 1.105 -0.672 2 -1.5 2 -0.828 0 -1.5 -0.895 -1.5 -2 0 -1.105 0.672 -2 1.5 -2 0.828 0 1.5 0.895 1.5 2 z"/></clipPath></defs><g transform="translate(0 -796.36)"><path d="m 0.818 935.85 c 0.185 -26.476 10.631 -58.19 26.655 -80.918 19.493 -27.649 50.879 -49.07 82.78 -56.5 6.994 -1.629 23.283 -3.108 30.594 -2.778 30.352 1.369 61.54 16.922 82.88 41.33 11.578 13.244 21.314 31.15 26.23 48.25 12.802 44.51 -2.029 92.94 -39.21 128.05 -22.289 21.05 -45.43 32.768 -73.47 37.21 -33.62 5.33 -70.842 -5.419 -96.98 -28.01 c -20.535 -17.743 -34.548 -42.499 -37.764 -66.72 -0.466 -3.512 -1.054 -7.82 -1.305 -9.575 -0.252 -1.754 -0.435 -6.414 -0.407 -10.354 z" style="fill:#ffb6c1"/><g transform="matrix(2.60865 2.41997 -2.24836 2.42366 2377.17 -1626.76)"><path d="m 37 1010.36 c 0 -1.108 -0.892 -2 -2 -2 h -20 c -1.108 0 -2 0.892 -2 2 v 38 c 0 1.108 0.892 2 2 2 h 20 c 1.108 0 2 -0.892 2 -2 z m -2 0 v 34 h -20 v -34 z" style="opacity:0.1"/><path transform="matrix(0 1 -1 0 0 0)" d="m 1009.36 -34 h 35 v 20 h -35 z" style="fill:#fff"/><path d="m 36 1009.36 c 0 -1.108 -0.892 -2 -2 -2 h -20 c -1.108 0 -2 0.892 -2 2 v 38 c 0 1.108 0.892 2 2 2 h 20 c 1.108 0 2 -0.892 2 -2 z m -2 0 v 34 h -20 v -34 z" style="fill:#808080"/><ellipse transform="matrix(1 0 0 1.33333 0 989.7)" cx="24" cy="42.5" rx="2" ry="1.5" style="fill:#bdbdbd"/><g transform="translate(0 1004.36)"><path d="M 17,34 H18 V37 H17 z" style="fill:#d3d3d3"/><path d="M 16,35 H17 V36 H16 z" style="fill:#dcdcdc"/></g><path d="m 29 1038.36 v 3 h 3 v -3 z m 1 1 h 1 v 1 h -1 z" style="fill:#dcdcdc"/><path d="m 23 1038.36 h 1 v 1 h -1 z" style="fill:#212121"/><path d="m 22 1039.36 h 1 v 1 h -1 z" style="fill:#dcdcdc"/><path d="m 23 1040.36 h 1 v 1 h -1 z" style="fill:#212121"/><path d="m 24 1039.36 h 1 v 1 h -1 z" style="fill:#dcdcdc"/><g transform="translate(0 1004.36)"><path d="M 31.34375,8.25 19.625,19.15625 34,34.625 34,11.125 31.34375,8.25 Z" style="fill:#f5f5f5"/><path d="m 14 18.625 v 14.03 l 7 -6.594 l -7 -7.438" style="fill:#c0c0c0"/></g></g></g></svg>