<svg xmlns="http://www.w3.org/2000/svg" xmlns:xlink="http://www.w3.org/1999/xlink" viewBox="0 0 256 256"><g transform="translate(0 -796.36)"><path d="M 62.17,1033.69 C -163.17,840.28 300.15,654.3 252.54,953.43 c -10.438,65.59 -129.65,132.38 -190.37,80.26 z" style="fill:#fff;color:#000"/><g transform="matrix(11.46545 0 0 9.20339 -5385.67 2977.07)" style="fill:#ff4500"><path d="m 476.63 -228.99 c -1.454 0 -2.625 1.038 -2.625 2.492 v 7.875 c 0 1.454 1.171 2.625 2.625 2.625 h 8.75 c 1.454 0 2.625 -1.171 2.625 -2.625 v -7.875 c 0 -1.454 -1.171 -2.492 -2.625 -2.492 z m 0.875 0.992 h 7 c 2 0.537 1.981 6.857 0 8 h -7 c -2.319 -1.577 -1.586 -7.084 0 -8 z m 7.523 11.05 h -1.046 v -1.046 h 1.046 z"/><path transform="translate(473 -562)" d="m 6 331 c 0 0.552 -0.448 1 -1 1 -0.552 0 -1 -0.448 -1 -1 0 -0.552 0.448 -1 1 -1 0.552 0 1 0.448 1 1 z" id="0" style="fill:#ff4500;color:#000"/><use transform="translate(5.988)" xlink:href="#0" width="256" height="256"/><path d="m 478.34,-231.34 -0.688,0.688 2.469,2.5 0.125,0.156 h 0.219 1.094 l 0.219,-0.031 0.125,-0.125 2.438,-2.5 -0.688,-0.688 -2.344,2.344 h -0.656 l -2.313,-2.344 z" style="color:#000"/></g></g></svg>