<?xml version="1.0" encoding="UTF-8" standalone="no"?>
<!-- Created with Inkscape (http://www.inkscape.org/) -->
<svg id="svg5014" xmlns:rdf="http://www.w3.org/1999/02/22-rdf-syntax-ns#" xmlns="http://www.w3.org/2000/svg" height="32px" width="32px" version="1.1" xmlns:cc="http://creativecommons.org/ns#" xmlns:xlink="http://www.w3.org/1999/xlink" xmlns:dc="http://purl.org/dc/elements/1.1/">
 <defs id="defs5016">
  <linearGradient id="linearGradient5128" y2="35.51" gradientUnits="userSpaceOnUse" x2="146.86" gradientTransform="matrix(.12419 0 0 .12564 -34.239 -4.4616)" y1="290.2" x1="146.86">
   <stop id="stop3990-5" style="stop-color:#ededed" offset="0"/>
   <stop id="stop3992-0" style="stop-color:#fafafa" offset="1"/>
  </linearGradient>
  <radialGradient id="radialGradient5914" gradientUnits="userSpaceOnUse" cy="43.5" cx="9" gradientTransform="matrix(1 0 0 .75 -4 -2.125)" r="2">
   <stop id="stop3946" offset="0"/>
   <stop id="stop3948" style="stop-opacity:0" offset="1"/>
  </radialGradient>
  <radialGradient id="radialGradient5917" gradientUnits="userSpaceOnUse" cy="43.5" cx="40" gradientTransform="matrix(1 0 0 .75 -13 -2.125)" r="2">
   <stop id="stop3954" offset="0"/>
   <stop id="stop3956" style="stop-opacity:0" offset="1"/>
  </radialGradient>
  <linearGradient id="linearGradient5920" y2="42" gradientUnits="userSpaceOnUse" x2="25" gradientTransform="translate(-4,-13)" y1="45" x1="25">
   <stop id="stop3962" style="stop-opacity:0" offset="0"/>
   <stop id="stop3970" offset=".5"/>
   <stop id="stop3964" style="stop-opacity:0" offset="1"/>
  </linearGradient>
 </defs>
 <metadata id="metadata5019">
  <rdf:RDF>
   <cc:Work rdf:about="">
    <dc:format>image/svg+xml</dc:format>
    <dc:type rdf:resource="http://purl.org/dc/dcmitype/StillImage"/>
    <dc:title/>
   </cc:Work>
  </rdf:RDF>
 </metadata>
 <g id="layer1">
  <g id="g5922">
   <rect id="rect3938" style="opacity:.4;fill:url(#linearGradient5920)" height="3" width="22" y="29" x="5"/>
   <path id="rect3940" d="m27 29v3h0.5c0.831 0 1.5-0.669 1.5-1.5s-0.669-1.5-1.5-1.5h-0.5z" style="opacity:.4;fill:url(#radialGradient5917)"/>
   <path id="rect3942" d="m4.4062 29c-0.779 0-1.4062 0.627-1.4062 1.406v0.1875c0 0.779 0.6272 1.406 1.4062 1.406h0.5938v-3h-0.5938z" style="opacity:.4;fill:url(#radialGradient5914)"/>
  </g>
  <rect id="rect5133" style="opacity:.41;stroke-linejoin:round;stroke-width:2;color:#bebebe;stroke:#000;fill:none" transform="scale(-1,1)" ry="0" height="28" width="22" y="2" x="-27"/>
  <rect id="rect3882" ry="0" style="color:#bebebe;fill:url(#linearGradient5128)" transform="scale(-1,1)" height="28" width="22" y="2" x="-27"/>
  <path id="rect5903" style="opacity:.4;color:#bebebe;fill:#fff" d="m5 2v28h22v-28h-22zm1 1h20v26h-20v-26z"/>
  <path id="path5908" style="opacity:.4;color:#bebebe;fill:#fff" d="m5 2v1h1 20 1v-1h-22z"/>
 </g>
</svg>
