<?xml version="1.0" encoding="UTF-8" standalone="no"?>
<!-- Created with Inkscape (http://www.inkscape.org/) -->
<svg id="svg4248" xmlns:rdf="http://www.w3.org/1999/02/22-rdf-syntax-ns#" xmlns="http://www.w3.org/2000/svg" height="32" width="32" version="1.1" xmlns:cc="http://creativecommons.org/ns#" xmlns:xlink="http://www.w3.org/1999/xlink" xmlns:dc="http://purl.org/dc/elements/1.1/">
 <defs id="defs4250">
  <linearGradient id="linearGradient3921" y2="42" gradientUnits="userSpaceOnUse" x2="25" gradientTransform="translate(-7 -14)" y1="45" x1="25">
   <stop id="stop3962" style="stop-opacity:0" offset="0"/>
   <stop id="stop3970" offset=".5"/>
   <stop id="stop3964" style="stop-opacity:0" offset="1"/>
  </linearGradient>
  <radialGradient id="radialGradient3924" gradientUnits="userSpaceOnUse" cy="43.5" cx="9" gradientTransform="matrix(1 0 0 .75 -6 -3.125)" r="2">
   <stop id="stop3946" offset="0"/>
   <stop id="stop3948" style="stop-opacity:0" offset="1"/>
  </radialGradient>
  <radialGradient id="radialGradient3927" gradientUnits="userSpaceOnUse" cy="43.5" cx="40" gradientTransform="matrix(1 0 0 .75 -11 -3.125)" r="2">
   <stop id="stop3954" offset="0"/>
   <stop id="stop3956" style="stop-opacity:0" offset="1"/>
  </radialGradient>
  <linearGradient id="linearGradient4271" y2="16" gradientUnits="userSpaceOnUse" x2="29.5" gradientTransform="matrix(0,-1,1,0,0,32)" y1="16" x1="2.5">
   <stop id="stop3415" style="stop-color:#ddd" offset="0"/>
   <stop id="stop3417" style="stop-color:#f2f2f2" offset="1"/>
  </linearGradient>
  <linearGradient id="linearGradient4286" y2="16" gradientUnits="userSpaceOnUse" x2="29.5" gradientTransform="matrix(0,-1,1,0,0,32)" y1="16" x1="2.5">
   <stop id="stop3864-8-6-0-7" style="stop-color:#c23021" offset="0"/>
   <stop id="stop3866-9-1-7-6" style="stop-color:#e74c3c" offset="1"/>
  </linearGradient>
 </defs>
 <metadata id="metadata4253">
  <rdf:RDF>
   <cc:Work rdf:about="">
    <dc:format>image/svg+xml</dc:format>
    <dc:type rdf:resource="http://purl.org/dc/dcmitype/StillImage"/>
    <dc:title/>
   </cc:Work>
  </rdf:RDF>
 </metadata>
 <g id="layer1">
  <g id="g3930">
   <path id="rect3940" d="m29 28v3h0.5c0.831 0 1.5-0.669 1.5-1.5s-0.669-1.5-1.5-1.5h-0.5z" style="opacity:.3;fill:url(#radialGradient3927)"/>
   <path id="rect3942" d="m2.4062 28c-0.779 0-1.4062 0.627-1.4062 1.406v0.1875c0 0.77906 0.62719 1.4062 1.4062 1.4062h0.59375v-3h-0.59375z" style="opacity:.3;fill:url(#radialGradient3924)"/>
   <path id="rect3938" d="m2.9999 28h26v3l-26-0.000001z" style="opacity:.3;fill:url(#linearGradient3921)"/>
  </g>
  <path id="path4269" style="fill:url(#linearGradient4271);fill-rule:evenodd" d="m2.5 9v19c0 0.831 0.669 1.5 1.5 1.5h24c0.831 0 1.5-0.669 1.5-1.5v-19h-27z"/>
  <path id="path3951" style="opacity:.1;fill:#fff;fill-rule:evenodd" d="m4 3c-0.5626 0-1 0.4374-1 1v24c0 0.563 0.4374 1 1 1h24c0.563 0 1-0.437 1-1v-24c0-0.5626-0.437-1-1-1h-24zm0 1h24v24h-24v-24z"/>
  <path id="path3949" style="opacity:.1;fill:#fff;fill-rule:evenodd" d="m4 29c-0.5626 0-1-0.437-1-1v-1c0 0.56265 0.43735 1 1 1h24c0.56265 0 1-0.43735 1-1v1c0 0.56265-0.43735 1-1 1h-24z"/>
  <path id="path4275" style="opacity:0.41;block-progression:tb;text-indent:0;color:#000000;text-transform:none" d="m2 9v19c0 1.099 0.9006 2 2 2h24c1.099 0 2-0.901 2-2v-19h-1v19c0 0.563-0.437 1-1 1h-24c-0.5626 0-1-0.437-1-1v-19h-1z"/>
  <path id="rect3894" style="fill:url(#linearGradient4286);fill-rule:evenodd" d="m4 2.5c-0.831 0-1.5 0.669-1.5 1.5v5h27v-5c0-0.831-0.669-1.5-1.5-1.5h-24z"/>
  <path id="path3935" style="opacity:.1;fill:#fff;fill-rule:evenodd" d="m4 3c-0.5626 0-1 0.4374-1 1v1c0-0.5626 0.4374-1 1-1h24c0.563 0 1 0.4374 1 1v-1c0-0.5626-0.437-1-1-1h-24z"/>
  <path id="path3906" style="opacity:.61;block-progression:tb;text-indent:0;color:#000000;text-transform:none;fill:#8f0202" d="m4 2c-1.0994 0-2 0.9006-2 2v5h1v-5c0-0.5626 0.4374-1 1-1h24c0.563 0 1 0.4374 1 1v5h1v-5c0-1.0994-0.901-2-2-2h-24z"/>
  <g id="g3925" transform="translate(3,-24)">
   <path id="path3863" style="opacity:.2;fill:#fff" d="m10 9c0 0.5523-0.4477 1-1 1s-1-0.4477-1-1 0.4477-1 1-1c0.55228 0 1 0.44772 1 1z" transform="matrix(.5 0 0 .5 -1 26)"/>
   <path id="path3859" style="fill:#ad3125" d="m10 9c0 0.5523-0.4477 1-1 1s-1-0.4477-1-1 0.4477-1 1-1c0.55228 0 1 0.44772 1 1z" transform="matrix(.5 0 0 .5 -1 25)"/>
  </g>
  <rect id="rect3921" style="fill:#ad3125" rx="0" ry="1" height="1" width="27" y="8" x="2.5"/>
  <rect id="rect3923" style="opacity:.4;fill:#fff" rx="0" ry="1" height="1" width="27" y="9" x="2.5"/>
  <g id="g3929" transform="translate(23,-24)">
   <path id="path3931" style="opacity:.2;fill:#fff" d="m10 9c0 0.5523-0.4477 1-1 1s-1-0.4477-1-1 0.4477-1 1-1c0.55228 0 1 0.44772 1 1z" transform="matrix(.5 0 0 .5 -1 26)"/>
   <path id="path3933" style="fill:#ad3125" d="m10 9c0 0.5523-0.4477 1-1 1s-1-0.4477-1-1 0.4477-1 1-1c0.55228 0 1 0.44772 1 1z" transform="matrix(.5 0 0 .5 -1 25)"/>
  </g>
 </g>
 <g id="layer2">
  <path id="path4340" style="opacity:.2;fill:#fff" d="m6 13v13h20v-1-2-1-2-1-2-1-2-1zm1 1h3v2h-3zm4 0h2v2h-2zm3 0h2v2h-2zm3 0h2v2h-2zm3 0h2v2h-2zm3 0h2v2h-2zm-16 3h3v2h-3zm4 0h2v2h-2zm3 0h2v2h-2zm3 0h2v2h-2zm3 0h2v2h-2zm3 0h2v2h-2zm-16 3h3v2h-3zm4 0h2v2h-2zm3 0h2v2h-2zm3 0h2v2h-2zm3 0h2v2h-2zm3 0h2v2h-2zm-16 3h3v2h-3zm4 0h2v2h-2zm3 0h2v2h-2zm3 0h2v2h-2zm3 0h2v2h-2zm3 0h2v2h-2z"/>
  <path id="rect4307" style="fill:#bbb" d="m6 12v13h20v-1-2-1-2-1-2-1-2-1zm1 1h3v2h-3zm4 0h2v2h-2zm3 0h2v2h-2zm3 0h2v2h-2zm3 0h2v2h-2zm3 0h2v2h-2zm-16 3h3v2h-3zm4 0h2v2h-2zm3 0h2v2h-2zm3 0h2v2h-2zm3 0h2v2h-2zm3 0h2v2h-2zm-16 3h3v2h-3zm4 0h2v2h-2zm3 0h2v2h-2zm3 0h2v2h-2zm3 0h2v2h-2zm3 0h2v2h-2zm-16 3h3v2h-3zm4 0h2v2h-2zm3 0h2v2h-2zm3 0h2v2h-2zm3 0h2v2h-2zm3 0h2v2h-2z"/>
 </g>
</svg>
