<?xml version="1.0" encoding="UTF-8" standalone="no"?>
<!-- Created with Inkscape (http://www.inkscape.org/) -->
<svg id="svg3495" xmlns:rdf="http://www.w3.org/1999/02/22-rdf-syntax-ns#" xmlns="http://www.w3.org/2000/svg" height="24" width="24" version="1.1" xmlns:cc="http://creativecommons.org/ns#" xmlns:xlink="http://www.w3.org/1999/xlink" xmlns:dc="http://purl.org/dc/elements/1.1/">
 <defs id="defs3497">
  <linearGradient id="linearGradient3869" y2="11" gradientUnits="userSpaceOnUse" x2="20.5" gradientTransform="matrix(0,-1,1,0,1,47)" y1="11" x1="1.5">
   <stop id="stop3415" style="stop-color:#ddd" offset="0"/>
   <stop id="stop3417" style="stop-color:#f2f2f2" offset="1"/>
  </linearGradient>
  <linearGradient id="linearGradient3911" y2="11" gradientUnits="userSpaceOnUse" x2="20.5" gradientTransform="matrix(0,-1,1,0,1,47)" y1="11" x1="1.5">
   <stop id="stop3864-8-6-0" style="stop-color:#c23021" offset="0"/>
   <stop id="stop3866-9-1-7" style="stop-color:#e74c3c" offset="1"/>
  </linearGradient>
  <linearGradient id="linearGradient4733" y2="42" gradientUnits="userSpaceOnUse" x2="25" gradientTransform="translate(-8 3)" y1="45" x1="25">
   <stop id="stop3962" style="stop-opacity:0" offset="0"/>
   <stop id="stop3970" offset=".5"/>
   <stop id="stop3964" style="stop-opacity:0" offset="1"/>
  </linearGradient>
  <radialGradient id="radialGradient4736" gradientUnits="userSpaceOnUse" cy="43.5" cx="9" gradientTransform="matrix(1 0 0 .75 -7 13.875)" r="2">
   <stop id="stop3946" offset="0"/>
   <stop id="stop3948" style="stop-opacity:0" offset="1"/>
  </radialGradient>
  <radialGradient id="radialGradient4739" gradientUnits="userSpaceOnUse" cy="43.5" cx="40" gradientTransform="matrix(1 0 0 .75 -20 13.875)" r="2">
   <stop id="stop3954" offset="0"/>
   <stop id="stop3956" style="stop-opacity:0" offset="1"/>
  </radialGradient>
  <linearGradient id="linearGradient3067" y2="10.349" gradientUnits="userSpaceOnUse" y1="27.801" gradientTransform="matrix(.49220 0 0 .45839 -3.4907 6.2667)" x2="29.441" x1="29.441">
   <stop id="stop3864-8-6-0-5-4" style="stop-color:#c23021" offset="0"/>
   <stop id="stop3866-9-1-7-0-3" style="stop-color:#e74c3c" offset="1"/>
  </linearGradient>
 </defs>
 <metadata id="metadata3500">
  <rdf:RDF>
   <cc:Work rdf:about="">
    <dc:format>image/svg+xml</dc:format>
    <dc:type rdf:resource="http://purl.org/dc/dcmitype/StillImage"/>
    <dc:title/>
   </cc:Work>
  </rdf:RDF>
 </metadata>
 <g id="layer1" transform="translate(0,-24)">
  <g id="g4741" transform="translate(1,-1)">
   <path id="rect3940" d="m20 45v3h0.5c0.831 0 1.5-0.669 1.5-1.5s-0.669-1.5-1.5-1.5h-0.5z" style="opacity:.3;fill:url(#radialGradient4739)"/>
   <path id="rect3942" d="m1.4062 45c-0.77901 0-1.4062 0.627-1.4062 1.406v0.1875c0 0.77906 0.62719 1.4062 1.4062 1.4062h0.59375v-3h-0.59375z" style="opacity:.3;fill:url(#radialGradient4736)"/>
   <path id="rect3938" d="m1.9999 45h18v3l-18-0.000001z" style="opacity:.3;fill:url(#linearGradient4733)"/>
  </g>
  <path id="rect3847" style="fill:url(#linearGradient3869)" d="m2.5 31v13.5c0 1 1 1 1 1h17s1 0 1-1v-13.5z"/>
  <path id="path3909" style="fill:url(#linearGradient3911)" d="m3.5 26.5c-1 0-1 1-1 1v3.5h19v-3.5s0-1-1-1z"/>
  <g id="g3925" transform="translate(2,-1)">
   <path id="path3863" style="opacity:.2;fill:#fff" d="m10 9c0 0.5523-0.4477 1-1 1s-1-0.4477-1-1 0.4477-1 1-1c0.55228 0 1 0.44772 1 1z" transform="matrix(.5 0 0 .5 -1 26)"/>
   <path id="path3859" style="fill:#ad3125" d="m10 9c0 0.5523-0.4477 1-1 1s-1-0.4477-1-1 0.4477-1 1-1c0.55228 0 1 0.44772 1 1z" transform="matrix(.5 0 0 .5 -1 25)"/>
  </g>
  <rect id="rect3921" style="fill:#ad3125" rx="0" ry="1" height="1" width="19" y="30" x="2.5"/>
  <rect id="rect3923" style="opacity:.4;fill:#fff" rx="0" ry="1" height="1" width="19" y="31" x="2.5"/>
  <path id="path3818" style="opacity:.1;fill:#fff" d="m3.5 27c-0.3333 0-0.3721 0.088-0.4375 0.219-0.0654 0.13-0.0625 0.281-0.0625 0.281v3.5 13.5c0 0.33333 0.088007 0.37213 0.21875 0.4375 0.1307 0.065 0.2812 0.062 0.2812 0.062h17s0.15051 0.0029 0.28125-0.0625c0.131-0.066 0.219-0.105 0.219-0.438v-13.5-3.5s0.0029-0.15051-0.0625-0.28125c-0.066-0.131-0.105-0.219-0.438-0.219h-17zm0.5 1h16v16h-16v-16z"/>
  <g id="g3929" transform="translate(15,-1)">
   <path id="path3931" style="opacity:.2;fill:#fff" d="m10 9c0 0.5523-0.4477 1-1 1s-1-0.4477-1-1 0.4477-1 1-1c0.55228 0 1 0.44772 1 1z" transform="matrix(.5 0 0 .5 -1 26)"/>
   <path id="path3933" style="fill:#ad3125" d="m10 9c0 0.5523-0.4477 1-1 1s-1-0.4477-1-1 0.4477-1 1-1c0.55228 0 1 0.44772 1 1z" transform="matrix(.5 0 0 .5 -1 25)"/>
  </g>
  <path id="path3024" style="opacity:0.61;block-progression:tb;text-indent:0;color:#000000;text-transform:none;fill:#8f0202" d="m3.5 26c-0.6667 0-1.1279 0.412-1.3125 0.781-0.1846 0.37-0.1875 0.719-0.1875 0.719v3.5h1v-3.5s-0.0029-0.151 0.0625-0.281c0.0654-0.131 0.1042-0.219 0.4375-0.219h17c0.33333 0 0.37213 0.08801 0.4375 0.21875 0.065 0.13 0.062 0.281 0.062 0.281v3.5h1v-3.5s-0.0029-0.34949-0.1875-0.71875c-0.184-0.369-0.645-0.781-1.312-0.781h-17z"/>
  <path id="path3799" style="opacity:.1;fill:#fff" d="m3.5 27c-0.3333 0-0.3721 0.088-0.4375 0.219-0.0654 0.13-0.0625 0.281-0.0625 0.281v0.90625c0.0074-0.054 0.0298-0.122 0.0625-0.187 0.0654-0.131 0.1042-0.219 0.4375-0.219h17c0.33333 0 0.37213 0.08801 0.4375 0.21875 0.0327 0.06537 0.05505 0.13353 0.0625 0.1875v-0.906s0.0029-0.15051-0.0625-0.28125c-0.066-0.131-0.105-0.219-0.438-0.219h-17z"/>
  <path id="path3992" style="opacity:0.41;block-progression:tb;text-indent:0;color:#000000;text-transform:none" d="m2 31v13.5c0 0.66667 0.41199 1.1279 0.78125 1.3125 0.3693 0.185 0.7188 0.188 0.7188 0.188h17s0.34949-0.0029 0.71875-0.1875c0.369-0.184 0.781-0.645 0.781-1.312v-13.5h-1v13.5c0 0.33333-0.08801 0.37213-0.21875 0.4375-0.13 0.065-0.281 0.062-0.281 0.062h-17s-0.1505 0.003-0.2812-0.062c-0.1308-0.066-0.2188-0.105-0.2188-0.438v-13.5h-1z"/>
 </g>
 <g id="layer2" transform="translate(0,2)">
  <path id="path3947" d="m5 9v0.5 8 0.5h0.5 13 0.5v-0.5-8-0.5h-0.5-13zm1 1h1.5v1h-1.5zm2.5 0h1.5v1h-1.5zm2.5 0h1.5938v1h-1.594zm2.5938 0h1.3906v1h-1.3906zm2.406 0h2v1h-2zm-10 2h1.5v1h-1.5zm2.5 0h1.5v1h-1.5zm2.5 0h1.5938v1h-1.594zm2.5938 0h1.3906v1h-1.3906zm2.406 0h2v1h-2zm-10 2h1.5v1h-1.5zm2.5 0h1.5v1h-1.5zm2.5 0h1.625v1h-1.625zm2.625 0h1.3906v1h-1.3906zm2.4062 0h1.9688v1h-1.9688zm-10.031 2h1.5v1h-1.5zm2.5 0h1.5v1h-1.5zm2.5 0h1.625v1h-1.625zm2.625 0h1.3906v1h-1.3906zm2.4062 0h1.9688v1h-1.9688z" style="opacity:.2;block-progression:tb;text-indent:0;color:#000000;text-transform:none;fill:#fff"/>
  <rect id="rect4347" style="fill:#969696" height="3" width="4" y="12" x="15"/>
  <path id="path3063" style="opacity:.2;block-progression:tb;text-indent:0;color:#000000;text-transform:none" d="m5 8v0.5 8 0.5h0.5 13 0.5v-0.5-8-0.5h-0.5-13zm1 1h1.5v1h-1.5zm2.5 0h1.5v1h-1.5zm2.5 0h1.5938v1h-1.594zm2.5938 0h1.3906v1h-1.3906zm2.406 0h2v1h-2zm-10 2h1.5v1h-1.5zm2.5 0h1.5v1h-1.5zm2.5 0h1.5938v1h-1.594zm2.5938 0h1.3906v1h-1.3906zm2.406 0h2v1h-2zm-10 2h1.5v1h-1.5zm2.5 0h1.5v1h-1.5zm2.5 0h1.625v1h-1.625zm2.625 0h1.3906v1h-1.3906zm2.4062 0h1.9688v1h-1.9688zm-10.031 2h1.5v1h-1.5zm2.5 0h1.5v1h-1.5zm2.5 0h1.625v1h-1.625zm2.625 0h1.3906v1h-1.3906zm2.4062 0h1.9688v1h-1.9688z"/>
  <path id="path3288-2-2" d="m7.5 19.282 7-5.673-7-5.696v3.6474h-6v4h6z" style="color:#000000;display:block;fill:url(#linearGradient3067)"/>
  <path id="path3288-2-2-80" d="m7.5 19.282 7-5.673-7-5.696v3.6474h-6v4h6z" style="opacity:0.81;color:#000000;stroke:#ad3125;stroke-miterlimit:7;display:block;fill:none"/>
  <path id="path3992-0" style="opacity:.4;color:#000000;display:block;fill:#fff" d="m8 8.9685v1l5.0938 4.1562 0.625-0.5zm-6 3.0938v0.9375h5.5 0.5v-0.4375-0.5h-0.5z"/>
 </g>
</svg>
