<?xml version="1.0" encoding="UTF-8" standalone="no"?>
<!-- Created with Inkscape (http://www.inkscape.org/) -->
<svg id="svg3828" xmlns:rdf="http://www.w3.org/1999/02/22-rdf-syntax-ns#" xmlns="http://www.w3.org/2000/svg" height="24" width="24" version="1.1" xmlns:cc="http://creativecommons.org/ns#" xmlns:xlink="http://www.w3.org/1999/xlink" xmlns:dc="http://purl.org/dc/elements/1.1/">
 <defs id="defs3830">
  <linearGradient id="linearGradient3003" y2="47.013" gradientUnits="userSpaceOnUse" x2="25.132" gradientTransform="matrix(.48572 0 0 -.45630 .34283 21.651)" y1=".98521" x1="25.132">
   <stop id="stop3990-5" style="stop-color:#ededed" offset="0"/>
   <stop id="stop3992-0" style="stop-color:#fafafa" offset="1"/>
  </linearGradient>
  <linearGradient id="linearGradient3807" y2="22" gradientUnits="userSpaceOnUse" x2="10" gradientTransform="translate(1,-1)" x1="10">
   <stop id="stop3803" style="stop-color:#fff" offset="0"/>
   <stop id="stop3805" style="stop-color:#fff;stop-opacity:0" offset="1"/>
  </linearGradient>
  <linearGradient id="linearGradient3043" y2="42" gradientUnits="userSpaceOnUse" x2="25" gradientTransform="matrix(1.1429 0 0 1 -10.857 -23)" y1="45" x1="25">
   <stop id="stop3962" style="stop-opacity:0" offset="0"/>
   <stop id="stop3970" offset=".5"/>
   <stop id="stop3964" style="stop-opacity:0" offset="1"/>
  </linearGradient>
  <radialGradient id="radialGradient3046" gradientUnits="userSpaceOnUse" cy="43.5" cx="9" gradientTransform="matrix(1 0 0 .75 -5 -12.125)" r="2">
   <stop id="stop3946" offset="0"/>
   <stop id="stop3948" style="stop-opacity:0" offset="1"/>
  </radialGradient>
  <linearGradient id="linearGradient3021" y2="13" gradientUnits="userSpaceOnUse" y1="13" x2="15" x1="11">
   <stop id="stop3864-8-6-6" style="stop-color:#f0f0f0" offset="0"/>
   <stop id="stop3866-9-1-7" style="stop-color:#f9f9f9" offset="1"/>
  </linearGradient>
  <radialGradient id="radialGradient3074" gradientUnits="userSpaceOnUse" cx="16.5" cy="20.5" r="5.5" gradientTransform="matrix(1 0 0 .27273 0 14.909)">
   <stop id="stop3868" offset="0"/>
   <stop id="stop3870" style="stop-opacity:0" offset="1"/>
  </radialGradient>
 </defs>
 <metadata id="metadata3833">
  <rdf:RDF>
   <cc:Work rdf:about="">
    <dc:format>image/svg+xml</dc:format>
    <dc:type rdf:resource="http://purl.org/dc/dcmitype/StillImage"/>
    <dc:title/>
   </cc:Work>
  </rdf:RDF>
 </metadata>
 <g id="layer1" transform="translate(0,2)">
  <path id="rect3942" style="opacity:.2;fill:url(#radialGradient3046)" d="m3.4062 19c-0.779 0-1.4062 0.627-1.4062 1.406v0.1875c0 0.779 0.6272 1.406 1.4062 1.406h0.5938v-3h-0.5938z"/>
  <path id="rect3938" style="opacity:.2;fill:url(#linearGradient3043)" d="m4 19h16v3h-16z"/>
  <path id="path4160-3" style="fill:url(#linearGradient3003)" d="m3.5 20.5c3.8956 0 17-0.0014 17-0.0014l0.000021-20.999h-17v21z"/>
  <path id="path4160-3-5" style="opacity:0.41;stroke-linejoin:round;stroke:#000;stroke-width:.99992;fill:none" d="m3.5-0.50004c3.8956 0 17 0.0014 17 0.0014l0.000021 20.999h-17v-21z"/>
  <path id="path3780" style="opacity:.4;fill:#fff" d="m4 0v1c4.158 0.0000752 15.293-0.0000752 16 0v-1c-0.707-0.0000752-11.842 0.0000752-16 0z"/>
  <path id="rect3796" style="opacity:.4;fill:url(#linearGradient3807)" d="m4 0v20h16v-20zm1 1h14v18h-14z"/>
  <path id="path3864" style="opacity:.4;fill:url(#radialGradient3074)" d="m22 20.5a5.5 1.5 0 1 1 -11 0 5.5 1.5 0 1 1 11 0z" transform="matrix(.81818 0 0 1 5 -4.5393e-7)"/>
  <path id="path3042" style="fill:url(#linearGradient3021)" d="m15 13a2 2 0 1 1 -4 0 2 2 0 1 1 4 0z" transform="matrix(0 -2.5 2.5 0 -14 49)"/>
  <path id="path3814" style="opacity:0.41;stroke:#000;stroke-width:0.4;fill:none" d="m15 13a2 2 0 1 1 -4 0 2 2 0 1 1 4 0z" transform="matrix(2.5 0 0 2.5 -14 -16)"/>
  <path id="path3825" style="opacity:.6;stroke:#000;stroke-linecap:round;fill:none" d="m18.5 13.643v2.8571h2.1428"/>
 </g>
</svg>
