<?xml version="1.0" encoding="UTF-8" standalone="no"?>
<!-- Created with Inkscape (http://www.inkscape.org/) -->
<svg id="svg3828" xmlns:rdf="http://www.w3.org/1999/02/22-rdf-syntax-ns#" xmlns="http://www.w3.org/2000/svg" height="24" width="24" version="1.1" xmlns:cc="http://creativecommons.org/ns#" xmlns:xlink="http://www.w3.org/1999/xlink" xmlns:dc="http://purl.org/dc/elements/1.1/">
 <defs id="defs3830">
  <linearGradient id="linearGradient3003" y2="47.013" gradientUnits="userSpaceOnUse" x2="25.132" gradientTransform="matrix(.48572 0 0 -.45630 .34283 21.651)" y1=".98521" x1="25.132">
   <stop id="stop3990-5" style="stop-color:#ededed" offset="0"/>
   <stop id="stop3992-0" style="stop-color:#fafafa" offset="1"/>
  </linearGradient>
  <linearGradient id="linearGradient3807" y2="22" gradientUnits="userSpaceOnUse" x2="10" gradientTransform="translate(1,-1)" x1="10">
   <stop id="stop3803" style="stop-color:#fff" offset="0"/>
   <stop id="stop3805" style="stop-color:#fff;stop-opacity:0" offset="1"/>
  </linearGradient>
  <linearGradient id="linearGradient3043" y2="42" gradientUnits="userSpaceOnUse" x2="25" gradientTransform="matrix(1.1429 0 0 1 -10.857 -23)" y1="45" x1="25">
   <stop id="stop3962" style="stop-opacity:0" offset="0"/>
   <stop id="stop3970" offset=".5"/>
   <stop id="stop3964" style="stop-opacity:0" offset="1"/>
  </linearGradient>
  <radialGradient id="radialGradient3046" gradientUnits="userSpaceOnUse" cy="43.5" cx="9" gradientTransform="matrix(1 0 0 .75 -5 -12.125)" r="2">
   <stop id="stop3946" offset="0"/>
   <stop id="stop3948" style="stop-opacity:0" offset="1"/>
  </radialGradient>
  <radialGradient id="radialGradient4009" cx="311.47" gradientUnits="userSpaceOnUse" cy="828.53" r="3.2812">
   <stop id="stop6559-2" style="stop-color:#fce94f" offset="0"/>
   <stop id="stop6565-2" style="stop-color:#fce94f" offset=".67301"/>
   <stop id="stop6561-7" style="stop-color:#fce94f;stop-opacity:0" offset="1"/>
  </radialGradient>
  <radialGradient id="radialGradient3085" gradientUnits="userSpaceOnUse" cx="316.09" cy="785.16" r="5.5" gradientTransform="matrix(2.173 0 0 1.9594 -672.26 -1534.8)">
   <stop id="stop6622-7" style="stop-color:#fff" offset="0"/>
   <stop id="stop6624-4" style="stop-color:#fff" offset=".32993"/>
   <stop id="stop6626-5" style="stop-color:#fce94f" offset="1"/>
  </radialGradient>
  <radialGradient id="radialGradient3087" gradientUnits="userSpaceOnUse" cx="309.37" cy="816.91" r="5.2189" gradientTransform="matrix(4.5697 -.0030490 0 4.2378 -1400.2 -3458.4)">
   <stop id="stop6635" style="stop-color:#edd400" offset="0"/>
   <stop id="stop6637" style="stop-color:#c4a000" offset="1"/>
  </radialGradient>
 </defs>
 <metadata id="metadata3833">
  <rdf:RDF>
   <cc:Work rdf:about="">
    <dc:format>image/svg+xml</dc:format>
    <dc:type rdf:resource="http://purl.org/dc/dcmitype/StillImage"/>
    <dc:title/>
   </cc:Work>
  </rdf:RDF>
 </metadata>
 <g id="layer1" transform="translate(0,2)">
  <path id="rect3942" style="opacity:.2;fill:url(#radialGradient3046)" d="m3.4062 19c-0.779 0-1.4062 0.627-1.4062 1.406v0.1875c0 0.779 0.6272 1.406 1.4062 1.406h0.5938v-3h-0.5938z"/>
  <path id="rect3938" style="opacity:.2;fill:url(#linearGradient3043)" d="m4 19h16v3h-16z"/>
  <path id="path4160-3" style="fill:url(#linearGradient3003)" d="m3.5 20.5c3.8956 0 17-0.0014 17-0.0014l0.000021-20.999h-17v21z"/>
  <path id="path4160-3-5" style="opacity:0.41;stroke-linejoin:round;stroke:#000;stroke-width:.99992;fill:none" d="m3.5-0.50004c3.8956 0 17 0.0014 17 0.0014l0.000021 20.999h-17v-21z"/>
  <path id="path3780" style="opacity:.4;fill:#fff" d="m4 0v1c4.158 0.0000752 15.293-0.0000752 16 0v-1c-0.707-0.0000752-11.842 0.0000752-16 0z"/>
  <path id="rect3796" style="opacity:.4;fill:url(#linearGradient3807)" d="m4 0v20h16v-20zm1 1h14v18h-14z"/>
 </g>
 <g id="layer2" transform="translate(0,2)">
  <g id="g3064" transform="translate(2 -2)">
   <path id="path5780" style="fill:url(#radialGradient4009);fill-rule:evenodd" d="m314.75 828.53c0 1.8122-1.4691 3.2812-3.2812 3.2812-1.8122 0-3.2812-1.4691-3.2812-3.2812 0-1.8122 1.4691-3.2812 3.2812-3.2812 1.8122 0 3.2812 1.4691 3.2812 3.2812z" transform="matrix(2.1333 0 0 1.981 -648.47 -1634.8)"/>
   <path id="path5784" d="m16.545 0.63453c-0.58763-0.27486-1.2876-0.0285-1.5723 0.55351l-0.92013 2.1676-2.0255 0.26363c-0.44396 0.0691-0.8109 0.38217-0.94824 0.80908-0.13738 0.42691-0.02168 0.89462 0.29896 1.2087l1.4194 1.4119-0.36769 1.9745c-0.09463 0.44908 0.07896 0.91233 0.44558 1.1894 0.36662 0.277 0.86051 0.31805 1.268 0.10538l1.8501-0.93192 1.7568 0.95245c0.39672 0.21052 0.87853 0.17975 1.2451-0.0795 0.36659-0.25925 0.55526-0.7027 0.4876-1.146l-0.33097-1.9869 1.4619-1.4236c0.32923-0.3166 0.4472-0.79363 0.30342-1.2267-0.14378-0.4331-0.52386-0.74547-0.97739-0.80331l-1.9913-0.29303-0.83277-2.1617c-0.116-0.25591-0.318-0.46264-0.572-0.58373v-0.00001z" style="stroke-linejoin:round;fill-rule:evenodd;stroke-dashoffset:.3612;stroke:url(#radialGradient3087);stroke-linecap:round;stroke-width:1.0445;fill:url(#radialGradient3085)"/>
  </g>
 </g>
</svg>
