<?xml version="1.0" encoding="UTF-8" standalone="no"?>
<!-- Created with Inkscape (http://www.inkscape.org/) -->
<svg id="svg3828" xmlns:rdf="http://www.w3.org/1999/02/22-rdf-syntax-ns#" xmlns="http://www.w3.org/2000/svg" height="24" width="24" version="1.1" xmlns:cc="http://creativecommons.org/ns#" xmlns:xlink="http://www.w3.org/1999/xlink" xmlns:dc="http://purl.org/dc/elements/1.1/">
 <defs id="defs3830">
  <linearGradient id="linearGradient3003" y2="47.013" gradientUnits="userSpaceOnUse" x2="25.132" gradientTransform="matrix(.48572 0 0 -.45630 .34283 21.651)" y1=".98521" x1="25.132">
   <stop id="stop3990-5" style="stop-color:#ededed" offset="0"/>
   <stop id="stop3992-0" style="stop-color:#fafafa" offset="1"/>
  </linearGradient>
  <linearGradient id="linearGradient3807" y2="22" gradientUnits="userSpaceOnUse" x2="10" gradientTransform="translate(1,-1)" x1="10">
   <stop id="stop3803" style="stop-color:#fff" offset="0"/>
   <stop id="stop3805" style="stop-color:#fff;stop-opacity:0" offset="1"/>
  </linearGradient>
  <linearGradient id="linearGradient3043" y2="42" gradientUnits="userSpaceOnUse" x2="25" gradientTransform="matrix(1.1429 0 0 1 -10.857 -23)" y1="45" x1="25">
   <stop id="stop3962" style="stop-opacity:0" offset="0"/>
   <stop id="stop3970" offset=".5"/>
   <stop id="stop3964" style="stop-opacity:0" offset="1"/>
  </linearGradient>
  <radialGradient id="radialGradient3046" gradientUnits="userSpaceOnUse" cy="43.5" cx="9" gradientTransform="matrix(1 0 0 .75 -5 -12.125)" r="2">
   <stop id="stop3946" offset="0"/>
   <stop id="stop3948" style="stop-opacity:0" offset="1"/>
  </radialGradient>
 </defs>
 <metadata id="metadata3833">
  <rdf:RDF>
   <cc:Work rdf:about="">
    <dc:format>image/svg+xml</dc:format>
    <dc:type rdf:resource="http://purl.org/dc/dcmitype/StillImage"/>
    <dc:title/>
   </cc:Work>
  </rdf:RDF>
 </metadata>
 <g id="layer1" transform="translate(0,2)">
  <path id="rect3942" style="opacity:.2;fill:url(#radialGradient3046)" d="m3.4062 19c-0.779 0-1.4062 0.627-1.4062 1.406v0.1875c0 0.779 0.6272 1.406 1.4062 1.406h0.5938v-3h-0.5938z"/>
  <path id="rect3938" style="opacity:.2;fill:url(#linearGradient3043)" d="m4 19h16v3h-16z"/>
  <path id="path4160-3" style="fill:url(#linearGradient3003)" d="m3.5 20.5c3.8956 0 17-0.0014 17-0.0014l0.000021-20.999h-17v21z"/>
  <path id="path4160-3-5" style="opacity:0.41;stroke-linejoin:round;stroke:#000;stroke-width:.99992;fill:none" d="m3.5-0.50004c3.8956 0 17 0.0014 17 0.0014l0.000021 20.999h-17v-21z"/>
  <path id="path3780" style="opacity:.4;fill:#fff" d="m4 0v1c4.158 0.0000752 15.293-0.0000752 16 0v-1c-0.707-0.0000752-11.842 0.0000752-16 0z"/>
  <path id="rect3796" style="opacity:.4;fill:url(#linearGradient3807)" d="m4 0v20h16v-20zm1 1h14v18h-14z"/>
  <g id="g4037">
   <path id="path26173" style="opacity:.2" d="m7.2891 3v-0.85938h-1.2891v0.8594h1.2891"/>
   <path id="path26177" style="opacity:.2" d="m9.7891 3v-0.85938h-1.2891v0.8594h1.2891"/>
   <path id="path26179" style="opacity:.2" d="m11.039 3v-0.85938h-1.2891l0.0001 0.8594h1.289"/>
   <path id="path26181" style="opacity:.2" d="m12.289 3v-0.85938h-1.2891v0.8594h1.289"/>
   <path id="path26183" style="opacity:.2" d="m16.047 3v-0.85938h-1.2891v0.85938h1.2891"/>
   <path id="path26203" style="opacity:.2" d="m7.2891 5v-0.85938h-1.2891v0.8594h1.2891"/>
   <path id="path26205" style="opacity:.2" d="m8.5391 5v-0.85938h-1.2891v0.8594h1.2891"/>
   <path id="path26207" style="opacity:.2" d="m9.7891 5v-0.85938h-1.2891v0.8594h1.2891"/>
   <path id="path26209" style="opacity:.2" d="m13.547 5v-0.85938h-1.2891v0.85938h1.2891"/>
   <path id="path26211" style="opacity:.2" d="m14.797 5v-0.85938h-1.2891v0.85938h1.2891"/>
   <path id="path26213" style="opacity:.2" d="m16.047 5v-0.85938h-1.2891v0.85938h1.2891"/>
   <path id="path26219" style="opacity:.2" d="m7.2891 7v-0.85938h-1.2891v0.8594h1.2891"/>
   <path id="path26223" style="opacity:.2" d="m9.7891 7v-0.85938h-1.2891v0.8594h1.2891"/>
   <path id="path26225" style="opacity:.2" d="m11.039 7v-0.85938h-1.2891l0.0001 0.8594h1.289"/>
   <path id="path26227" style="opacity:.2" d="m12.289 7v-0.85938h-1.2891v0.8594h1.289"/>
   <path id="path26229" style="opacity:.2" d="m13.539 7v-0.85938h-1.2891v0.85938h1.2891"/>
   <path id="path26231" style="opacity:.2" d="m14.789 7v-0.85938h-1.2891v0.8594h1.289"/>
   <path id="path26241" style="opacity:.2" d="m7.2891 9v-0.85938h-1.2891v0.8594h1.2891"/>
   <path id="path26243" style="opacity:.2" d="m8.5391 9v-0.85938h-1.2891v0.8594h1.2891"/>
   <path id="path26247" style="opacity:.2" d="m11.039 9v-0.85938h-1.2891l0.0001 0.8594h1.289"/>
   <path id="path26249" style="opacity:.2" d="m12.289 9v-0.85938h-1.2891v0.8594h1.289"/>
   <path id="path26251" style="opacity:.2" d="m13.539 9v-0.85938h-1.2891v0.85938h1.2891"/>
   <path id="path26255" style="opacity:.2" d="m16.039 9v-0.85938h-1.2891v0.85938h1.2891"/>
   <path id="path26271" style="opacity:.2" d="m7.2891 11v-0.85938h-1.2891v0.859h1.2891"/>
   <path id="path26273" style="opacity:.2" d="m8.5391 11v-0.85938h-1.2891v0.85938h1.2891"/>
   <path id="path26275" style="opacity:.2" d="m9.7891 11v-0.85938h-1.2891v0.859h1.2891"/>
   <path id="path26277" style="opacity:.2" d="m13.547 11v-0.85938h-1.2891v0.85938h1.2891"/>
   <path id="path26279" style="opacity:.2" d="m14.797 11v-0.85938h-1.2891v0.85938h1.2891"/>
   <path id="path26303" style="opacity:.2" d="m7.2891 13v-0.85938h-1.2891v0.859h1.2891"/>
   <path id="path26305" style="opacity:.2" d="m8.5391 13v-0.85938h-1.2891v0.85938h1.2891"/>
   <path id="path26307" style="opacity:.2" d="m9.7891 13v-0.85938h-1.2891v0.859h1.2891"/>
   <path id="path26311" style="opacity:.2" d="m14.797 13v-0.85938h-1.2891v0.85938h1.2891"/>
   <path id="path26313" style="opacity:.2" d="m16.047 13v-0.85938h-1.2891v0.85938h1.2891"/>
   <path id="path26335" style="opacity:.2" d="m7.2891 15v-0.85938h-1.2891v0.859h1.2891"/>
   <path id="path26337" style="opacity:.2" d="m8.5391 15v-0.85938h-1.2891v0.85938h1.2891"/>
   <path id="path26339" style="opacity:.2" d="m9.7891 15v-0.85938h-1.2891v0.859h1.2891"/>
   <path id="path26341" style="opacity:.2" d="m11.039 15v-0.85938h-1.2891v0.85938h1.2891"/>
   <path id="path4457" style="opacity:.2" d="m14.797 3v-0.85938h-1.2891v0.85938h1.2891"/>
   <path id="path4459" style="opacity:.2" d="m12.289 5v-0.85938h-1.2891v0.8594h1.289"/>
   <path id="path4461" style="opacity:.2" d="m11.039 11v-0.85938h-1.2891v0.85938h1.2891"/>
   <path id="path4463" style="opacity:.2" d="m13.547 15v-0.85938h-1.2891v0.85938h1.2891"/>
   <path id="path4465" style="opacity:.2" d="m12.289 13v-0.85938h-1.2891v0.859h1.2891"/>
   <path id="path4638" style="opacity:.2" d="m7.2891 17v-0.85938h-1.2891v0.859h1.2891"/>
   <path id="path4640" style="opacity:.2" d="m8.5391 17v-0.85938h-1.2891v0.85938h1.2891"/>
   <path id="path4644" style="opacity:.2" d="m11.039 17v-0.85938h-1.2891v0.85938h1.2891"/>
   <path id="path4646" style="opacity:.2" d="m13.547 17v-0.85938h-1.2891v0.85938h1.2891"/>
   <path id="path4648" style="opacity:.2" d="m12.289 17v-0.85938h-1.2891v0.859h1.2891"/>
   <path id="path3501" style="opacity:.2" d="m17.296 5v-0.85938h-1.2891v0.85938h1.2891"/>
   <path id="path3503" style="opacity:.2" d="m17.296 7v-0.85938h-1.2891v0.85938h1.2891"/>
   <path id="path3505" style="opacity:.2" d="m17.296 9v-0.85938h-1.2891v0.85938h1.2891"/>
   <path id="path3507" style="opacity:.2" d="m17.296 11v-0.85938h-1.2891v0.85938h1.2891"/>
   <path id="path3509" style="opacity:.2" d="m17.296 13v-0.85938h-1.2891v0.85938h1.2891"/>
   <path id="path3511" style="opacity:.2" d="m14.797 15v-0.85938h-1.2891v0.85938h1.2891"/>
   <path id="path3513" style="opacity:.2" d="m16.047 17v-0.85938h-1.2891v0.85938h1.2891"/>
   <path id="path3515" style="opacity:.2" d="m16.047 15v-0.85938h-1.2891v0.85938h1.2891"/>
   <path id="path3517" style="opacity:.2" d="m17.296 3v-0.85938h-1.2891v0.85938h1.2891"/>
  </g>
 </g>
 <g id="layer2" transform="translate(0,2)">
  <path id="path3410" style="opacity:.5;fill:#a348b1;fill-rule:evenodd" d="m22.5 8.4688l-16 12h16v-12zm-3 6.0312v2.969h-3.969l3.969-2.969z" transform="translate(0,-2)"/>
  <rect id="rect3910" style="opacity:.4;fill:#a348b1" transform="scale(-1,1)" height="1" width="15" y="19" x="-21"/>
  <path id="path4161" d="m22.5 8.4688l-16 12h16v-12zm-3 6.0312v2.969h-3.969l3.969-2.969z" style="opacity:.41;stroke:#4a0056;fill:none" transform="translate(0,-2)"/>
  <path id="path4163" style="opacity:.4;fill:#fff;fill-rule:evenodd" d="m22 9.5l-13.969 10.469h1.344l12.625-9.469v-1zm-6.656 8.469l-0.125 0.093-1.188 0.907h1.5 3.969 0.5v-0.5-0.5h-0.5-3.969-0.187z" transform="translate(0,-2)"/>
 </g>
</svg>
