<?xml version="1.0" encoding="UTF-8" standalone="no"?>
<!-- Created with Inkscape (http://www.inkscape.org/) -->
<svg id="svg3828" xmlns:rdf="http://www.w3.org/1999/02/22-rdf-syntax-ns#" xmlns="http://www.w3.org/2000/svg" height="24" width="24" version="1.1" xmlns:cc="http://creativecommons.org/ns#" xmlns:xlink="http://www.w3.org/1999/xlink" xmlns:dc="http://purl.org/dc/elements/1.1/">
 <defs id="defs3830">
  <linearGradient id="linearGradient3003" y2="47.013" gradientUnits="userSpaceOnUse" x2="25.132" gradientTransform="matrix(.48572 0 0 -.45630 .34283 21.651)" y1=".98521" x1="25.132">
   <stop id="stop3990-5" style="stop-color:#ededed" offset="0"/>
   <stop id="stop3992-0" style="stop-color:#fafafa" offset="1"/>
  </linearGradient>
  <linearGradient id="linearGradient3807" y2="22" gradientUnits="userSpaceOnUse" x2="10" gradientTransform="translate(1,-1)" x1="10">
   <stop id="stop3803" style="stop-color:#fff" offset="0"/>
   <stop id="stop3805" style="stop-color:#fff;stop-opacity:0" offset="1"/>
  </linearGradient>
  <linearGradient id="linearGradient3043" y2="42" gradientUnits="userSpaceOnUse" x2="25" gradientTransform="matrix(1.1429 0 0 1 -10.857 -23)" y1="45" x1="25">
   <stop id="stop3962" style="stop-opacity:0" offset="0"/>
   <stop id="stop3970" offset=".5"/>
   <stop id="stop3964" style="stop-opacity:0" offset="1"/>
  </linearGradient>
  <radialGradient id="radialGradient3046" gradientUnits="userSpaceOnUse" cy="43.5" cx="9" gradientTransform="matrix(1 0 0 .75 -5 -12.125)" r="2">
   <stop id="stop3946" offset="0"/>
   <stop id="stop3948" style="stop-opacity:0" offset="1"/>
  </radialGradient>
  <radialGradient id="radialGradient3050" gradientUnits="userSpaceOnUse" cy="43.5" cx="40" gradientTransform="matrix(1 0 0 .75 -20 -12.125)" r="2">
   <stop id="stop3954" offset="0"/>
   <stop id="stop3956" style="stop-opacity:0" offset="1"/>
  </radialGradient>
  <linearGradient id="linearGradient3242" y2="9" gradientUnits="userSpaceOnUse" x2="12" gradientTransform="translate(0,6)" y1="16" x1="12">
   <stop id="stop3922" style="stop-color:#f8f8f8" offset="0"/>
   <stop id="stop3924" style="stop-color:#e6e6e6" offset="1"/>
  </linearGradient>
 </defs>
 <metadata id="metadata3833">
  <rdf:RDF>
   <cc:Work rdf:about="">
    <dc:format>image/svg+xml</dc:format>
    <dc:type rdf:resource="http://purl.org/dc/dcmitype/StillImage"/>
    <dc:title/>
   </cc:Work>
  </rdf:RDF>
 </metadata>
 <g id="layer1" transform="translate(0,2)">
  <path id="rect3940" style="opacity:.2;fill:url(#radialGradient3050)" d="m20 19v3h0.5c0.831 0 1.5-0.669 1.5-1.5s-0.669-1.5-1.5-1.5h-0.5z"/>
  <path id="rect3942" style="opacity:.2;fill:url(#radialGradient3046)" d="m3.4062 19c-0.779 0-1.4062 0.627-1.4062 1.406v0.1875c0 0.779 0.6272 1.406 1.4062 1.406h0.5938v-3h-0.5938z"/>
  <path id="rect3938" style="opacity:.2;fill:url(#linearGradient3043)" d="m4 19h16v3h-16z"/>
  <path id="path4160-3" style="fill:url(#linearGradient3003)" d="m3.5 20.5c3.8956 0 17-0.0014 17-0.0014l0.000021-20.999h-17v21z"/>
  <path id="path4160-3-5" style="opacity:0.41;stroke-linejoin:round;stroke:#000;stroke-width:.99992;fill:none" d="m3.5-0.50004c3.8956 0 17 0.0014 17 0.0014l0.000021 20.999h-17v-21z"/>
  <path id="path3780" style="opacity:.4;fill:#fff" d="m4 0v1c4.158 0.0000752 15.293-0.0000752 16 0v-1c-0.707-0.0000752-11.842 0.0000752-16 0z"/>
  <path id="rect3796" style="opacity:.4;fill:url(#linearGradient3807)" d="m4 0v20h16v-20zm1 1h14v18h-14z"/>
 </g>
 <g id="layer2" transform="translate(0,2)">
  <path id="path3842" style="opacity:.4;color:#000000;fill:#fff" d="m14.05 5v5.9998h2.5002l-4.5 6-4.5-6h2.5002v-5.9998z"/>
  <path id="rect3005" d="m14.05 4v5.9998h2.5002l-4.5 6.0002-4.5-6.0002h2.5002v-5.9998z" style="color:#000000;fill:#bbb"/>
  <path id="path3422" style="opacity:.1;color:#000000" d="m10.062 4v1h4v-1h-4zm-2.5 6 0.75 1h1.75v-1h-2.5zm6.5 0v1h1.75l0.75-1h-2.5z"/>
  <g id="g3059" transform="translate(1,-1)">
   <path id="path3244" style="opacity:0.31;block-progression:tb;text-indent:0;color:#000000;text-transform:none" d="m11 14.5c-1.097 0-2 0.90297-2 2v4c0 1.097 0.90297 2 2 2h9c1.097 0 2-0.90297 2-2v-4c0-1.097-0.90297-2-2-2zm0 1h9c0.54767 0 1 0.45233 1 1v4c0 0.54767-0.45233 1-1 1h-9c-0.54767 0-1-0.45233-1-1v-4c0-0.54767 0.45233-1 1-1z"/>
   <path id="rect3140" d="m11 14.5c-0.82235 0-1.5 0.67765-1.5 1.5v4c0 0.82235 0.67765 1.5 1.5 1.5h9c0.82235 0 1.5-0.67765 1.5-1.5v-4c0-0.82235-0.67765-1.5-1.5-1.5z" style="fill:url(#linearGradient3242);fill-rule:evenodd"/>
   <path id="path3925" d="m11 14c-1.097 0-2 0.90297-2 2v4c0 1.097 0.90297 2 2 2h9c1.097 0 2-0.90297 2-2v-4c0-1.097-0.90297-2-2-2zm0 1h9c0.54767 0 1 0.45233 1 1v4c0 0.54767-0.45233 1-1 1h-9c-0.54767 0-1-0.45233-1-1v-4c0-0.54767 0.45233-1 1-1z" style="opacity:0.31;block-progression:tb;text-indent:0;color:#000000;text-transform:none"/>
   <rect id="rect3951" style="opacity:.1" ry="0" height="6" width="6" y="15" x="10"/>
   <path id="rect3956" d="m11 16v0.5h1v3h-1v0.5h3v-0.5h-1v-3h1v-0.5z" style="opacity:.2"/>
  </g>
 </g>
</svg>
