<?xml version="1.0" encoding="UTF-8" standalone="no"?>
<!-- Created with Inkscape (http://www.inkscape.org/) -->
<svg id="svg3495" xmlns:rdf="http://www.w3.org/1999/02/22-rdf-syntax-ns#" xmlns="http://www.w3.org/2000/svg" height="24" width="24" version="1.1" xmlns:cc="http://creativecommons.org/ns#" xmlns:xlink="http://www.w3.org/1999/xlink" xmlns:dc="http://purl.org/dc/elements/1.1/">
 <defs id="defs3497">
  <linearGradient id="linearGradient3802" y2="22" gradientUnits="userSpaceOnUse" x2="11" gradientTransform="translate(1,25)" x1="11">
   <stop id="stop3762" style="stop-color:#e44343" offset="0"/>
   <stop id="stop3764" style="stop-color:#ac0808" offset="1"/>
  </linearGradient>
  <radialGradient id="radialGradient3993" xlink:href="#linearGradient3949-1" gradientUnits="userSpaceOnUse" cy="20" cx="11" gradientTransform="matrix(1 0 0 .22222 0 15.556)" r="9"/>
  <linearGradient id="linearGradient3949-1">
   <stop id="stop3951-0" offset="0"/>
   <stop id="stop3953-7" style="stop-opacity:0" offset="1"/>
  </linearGradient>
 </defs>
 <metadata id="metadata3500">
  <rdf:RDF>
   <cc:Work rdf:about="">
    <dc:format>image/svg+xml</dc:format>
    <dc:type rdf:resource="http://purl.org/dc/dcmitype/StillImage"/>
    <dc:title/>
   </cc:Work>
  </rdf:RDF>
 </metadata>
 <g id="layer1" transform="translate(0,-24)">
  <g id="g4507" transform="translate(1,-1)">
   <path id="path3163" style="opacity:.4;fill:url(#radialGradient3993)" d="m20 20c0 1.1046-4.0294 2-9 2s-9-0.89543-9-2 4.0294-2 9-2 9 0.89543 9 2z" transform="matrix(1,0,0,1.5,0,15)"/>
   <path id="path3995" style="opacity:.8;fill:url(#radialGradient3993)" d="m20 20c0 1.1046-4.0294 2-9 2s-9-0.89543-9-2 4.0294-2 9-2 9 0.89543 9 2z" transform="matrix(.66667 0 0 1 3.6667 26)"/>
  </g>
  <path id="path4791" style="fill:url(#linearGradient3802);fill-rule:evenodd" d="m12 26.5c-5.2408 0-9.5 4.2592-9.5 9.5s4.2592 9.5 9.5 9.5 9.5-4.2592 9.5-9.5-4.2592-9.5-9.5-9.5z"/>
  <path id="path3804" style="opacity:0.81;stroke:#790000;fill:none" d="m12 26.5c-5.2408 0-9.5 4.2592-9.5 9.5s4.2592 9.5 9.5 9.5 9.5-4.2592 9.5-9.5-4.2592-9.5-9.5-9.5z"/>
  <path id="path3806" style="opacity:.2;fill:#fff;fill-rule:evenodd" d="m12 27c-4.9699 0-9 4.0301-9 9 0 0.17154 0.021774 0.33083 0.03125 0.5 0.2651-4.732 4.1705-8.5 8.9688-8.5s8.7037 3.7678 8.9688 8.5c0.009-0.169 0.031-0.328 0.031-0.5 0-4.97-4.03-9-9-9z"/>
  <path id="path3820" style="opacity:.2;fill-rule:evenodd" d="m12 46c-4.9699 0-9-4.03-9-9 0-0.172 0.0218-0.331 0.0312-0.5 0.2651 4.732 4.1705 8.5 8.9688 8.5 4.798 0 8.704-3.768 8.969-8.5 0.009 0.169 0.031 0.328 0.031 0.5 0 4.9699-4.0301 9-9 9z"/>
 </g>
 <g id="layer2" transform="translate(0,2)">
  <path id="path3830" d="m8 5v1c0 0.2761 0.1003 0.5378 0.2812 0.7188l2.2808 2.2812-2.2808 2.281c-0.1809 0.181-0.2812 0.443-0.2812 0.719v1h1c0.27614 0 0.53779-0.10028 0.71875-0.28125l2.2812-2.281 2.281 2.281c0.181 0.181 0.447 0.235 0.719 0.281h1v-1c0-0.27614-0.10029-0.53778-0.28125-0.71875l-2.281-2.281 2.281-2.2812c0.181-0.181 0.281-0.4427 0.281-0.7188v-1h-1c-0.276 0-0.538 0.1003-0.719 0.2812l-2.281 2.2813-2.2812-2.2813c-0.181-0.1809-0.4427-0.2812-0.7188-0.2812z" style="opacity:.3;color:#000000;enable-background:new"/>
  <path id="path5757" style="color:#000000;enable-background:new;fill:#fff" d="m8 6v1c0 0.2761 0.1003 0.5378 0.2812 0.7188l2.2808 2.2812-2.2808 2.281c-0.1809 0.181-0.2812 0.443-0.2812 0.719v1h1c0.27614 0 0.53779-0.10028 0.71875-0.28125l2.2812-2.281 2.281 2.281c0.181 0.181 0.447 0.235 0.719 0.281h1v-1c0-0.27614-0.10029-0.53778-0.28125-0.71875l-2.281-2.281 2.281-2.2812c0.181-0.181 0.281-0.4427 0.281-0.7188v-1h-1c-0.276 0-0.538 0.1003-0.719 0.2812l-2.281 2.2813-2.2812-2.2813c-0.181-0.1809-0.4427-0.2812-0.7188-0.2812z"/>
 </g>
</svg>
