<?xml version="1.0" encoding="UTF-8" standalone="no"?>
<!-- Created with Inkscape (http://www.inkscape.org/) -->
<svg id="svg3495" xmlns:rdf="http://www.w3.org/1999/02/22-rdf-syntax-ns#" xmlns="http://www.w3.org/2000/svg" height="24" width="24" version="1.1" xmlns:cc="http://creativecommons.org/ns#" xmlns:xlink="http://www.w3.org/1999/xlink" xmlns:dc="http://purl.org/dc/elements/1.1/">
 <defs id="defs3497">
  <linearGradient id="linearGradient3761" gradientUnits="userSpaceOnUse" x2="12" gradientTransform="translate(1,25)" y1="22" x1="12">
   <stop id="stop3757" style="stop-color:#555" offset="0"/>
   <stop id="stop3759" style="stop-color:#666" offset="1"/>
  </linearGradient>
 </defs>
 <metadata id="metadata3500">
  <rdf:RDF>
   <cc:Work rdf:about="">
    <dc:format>image/svg+xml</dc:format>
    <dc:type rdf:resource="http://purl.org/dc/dcmitype/StillImage"/>
    <dc:title/>
   </cc:Work>
  </rdf:RDF>
 </metadata>
 <g id="layer1" transform="translate(0,-24)">
  <path id="path2993" style="color:#000000;fill:url(#linearGradient3761)" d="m15 25.5c-4.1362 0-7.5 3.3638-7.5 7.5 0 1.5243 0.49912 2.9134 1.2812 4.0938l-5.8438 5.8438h-0.03125l-0.6875 0.71875-0.3125 0.343 0.3438 0.344 1.4062 1.406 0.3438 0.344 0.34375-0.3125 0.71875-0.6875v-0.03125l5.8438-5.8438c1.181 0.782 2.57 1.281 4.094 1.281 4.1362 0 7.5-3.3638 7.5-7.5s-3.3638-7.5-7.5-7.5zm0 3c2.4912 0 4.5 2.0088 4.5 4.5s-2.0088 4.5-4.5 4.5-4.5-2.0088-4.5-4.5 2.0088-4.5 4.5-4.5z"/>
  <path id="path3770" style="opacity:0.61;color:#000000;stroke:#000;fill:none" d="m15 25.5c-4.1362 0-7.5 3.3638-7.5 7.5 0 1.5243 0.49912 2.9134 1.2812 4.0938l-5.8438 5.8438h-0.03125l-0.6875 0.71875-0.3125 0.343 0.3438 0.344 1.4062 1.406 0.3438 0.344 0.34375-0.3125 0.71875-0.6875v-0.03125l5.8438-5.8438c1.181 0.782 2.57 1.281 4.094 1.281 4.1362 0 7.5-3.3638 7.5-7.5s-3.3638-7.5-7.5-7.5zm0 3c2.4912 0 4.5 2.0088 4.5 4.5s-2.0088 4.5-4.5 4.5-4.5-2.0088-4.5-4.5 2.0088-4.5 4.5-4.5z"/>
  <path id="path3772" style="opacity:.2;color:#000000;fill:#fff" d="m15 26c-3.8651 0-7 3.1349-7 7 0 0.09667 0.027094 0.1858 0.03125 0.28125 0.3586-3.529 3.3448-6.281 6.9688-6.281 3.6969 0 6.7122 2.8682 6.9688 6.5 0.011-0.165 0.031-0.332 0.031-0.5 0-3.865-3.135-7-7-7zm-4.9688 7.5c-0.017 0.168-0.031 0.328-0.031 0.5 0 2.76 2.24 5 5 5s5-2.24 5-5c0-0.1725-0.01417-0.33198-0.03125-0.5-0.256 2.52-2.382 4.5-4.969 4.5s-4.713-1.98-4.969-4.5zm-1 4.0312-5.75 5.75l-0.156 0.157-0.5312 0.562 0.5 0.5 0.0312-0.062 0.1562-0.157 5.8438-5.843 0.3125-0.282-0.25-0.344c-0.0588-0.088-0.1012-0.19-0.1563-0.281z"/>
 </g>
</svg>
