<?xml version="1.0" encoding="UTF-8" standalone="no"?>
<!-- Created with Inkscape (http://www.inkscape.org/) -->
<svg id="svg3495" xmlns:rdf="http://www.w3.org/1999/02/22-rdf-syntax-ns#" xmlns="http://www.w3.org/2000/svg" height="24" width="24" version="1.1" xmlns:cc="http://creativecommons.org/ns#" xmlns:xlink="http://www.w3.org/1999/xlink" xmlns:dc="http://purl.org/dc/elements/1.1/">
 <defs id="defs3497">
  <linearGradient id="linearGradient3793" y2="-2" gradientUnits="userSpaceOnUse" x2="12" gradientTransform="translate(1,25)" y1="22" x1="12">
   <stop id="stop3823" style="stop-color:#555" offset="0"/>
   <stop id="stop3825" style="stop-color:#666" offset="1"/>
  </linearGradient>
 </defs>
 <metadata id="metadata3500">
  <rdf:RDF>
   <cc:Work rdf:about="">
    <dc:format>image/svg+xml</dc:format>
    <dc:type rdf:resource="http://purl.org/dc/dcmitype/StillImage"/>
    <dc:title/>
   </cc:Work>
  </rdf:RDF>
 </metadata>
 <g id="layer1" transform="translate(0,-24)">
  <path id="path2987" style="block-progression:tb;text-indent:0;color:#bebebe;text-transform:none;fill:url(#linearGradient3793)" d="m14.5 26.531 0.75 0.4375 6.0312 3.5938l0.719 0.438-0.719 0.438-6.031 3.624-0.75 0.438v-0.875-2.125h-4.5c-2.5152 0-4.5 1.9848-4.5 4.5s1.9848 4.5 4.5 4.5h7 0.5v0.5 2 0.5h-0.5-7c-4.1286 0-7.5-3.371-7.5-7.5s3.3714-7.5 7.5-7.5h4.5v-2.0938-0.875z"/>
  <path id="path4400" style="opacity:.2;block-progression:tb;text-indent:0;color:#bebebe;text-transform:none;fill:#fff" d="m15 27.406 6.031 3.594-0.843 0.5-5.188-3.094v-1zm0 2.594v0.5 0.5h-0.5-4.5c-3.6891 0-6.7115 2.875-6.9688 6.5-0.0117-0.165-0.0312-0.332-0.0312-0.5 0-3.857 3.1431-7 7-7h4.5 0.5zm-9.9688 7.5c0.254 2.535 2.3615 4.5 4.9688 4.5h7v1h-7c-2.7811 0-5-2.219-5-5 0-0.174 0.0143-0.331 0.0312-0.5z"/>
  <path id="path3764" style="opacity:0.61;block-progression:tb;text-indent:0;color:#bebebe;stroke:#000;text-transform:none;fill:none" d="m14.5 26.531 0.75 0.4375 6.0312 3.5938l0.719 0.438-0.719 0.438-6.031 3.624-0.75 0.438v-0.875-2.125h-4.5c-2.5152 0-4.5 1.9848-4.5 4.5s1.9848 4.5 4.5 4.5h7 0.5v0.5 2 0.5h-0.5-7c-4.1286 0-7.5-3.371-7.5-7.5s3.3714-7.5 7.5-7.5h4.5v-2.0938-0.875z"/>
 </g>
</svg>
