<?xml version="1.0" encoding="UTF-8" standalone="no"?>
<!-- Created with Inkscape (http://www.inkscape.org/) -->
<svg id="svg3828" xmlns:rdf="http://www.w3.org/1999/02/22-rdf-syntax-ns#" xmlns="http://www.w3.org/2000/svg" height="24" width="24" version="1.1" xmlns:cc="http://creativecommons.org/ns#" xmlns:xlink="http://www.w3.org/1999/xlink" xmlns:dc="http://purl.org/dc/elements/1.1/">
 <defs id="defs3830">
  <radialGradient id="radialGradient4358" gradientUnits="userSpaceOnUse" cy="43.5" cx="40" gradientTransform="matrix(1 0 0 .75 -25 -14.125)" r="2">
   <stop id="stop3954" offset="0"/>
   <stop id="stop3956" style="stop-opacity:0" offset="1"/>
  </radialGradient>
  <radialGradient id="radialGradient4360" gradientUnits="userSpaceOnUse" cy="43.5" cx="9" gradientTransform="matrix(1 0 0 .75 -6 -14.125)" r="2">
   <stop id="stop3946" offset="0"/>
   <stop id="stop3948" style="stop-opacity:0" offset="1"/>
  </radialGradient>
  <linearGradient id="linearGradient4362" y2="42" gradientUnits="userSpaceOnUse" x2="25" gradientTransform="translate(-12,-25)" y1="45" x1="25">
   <stop id="stop3962" style="stop-opacity:0" offset="0"/>
   <stop id="stop3970" offset=".5"/>
   <stop id="stop3964" style="stop-opacity:0" offset="1"/>
  </linearGradient>
  <linearGradient id="linearGradient4364" y2="47.013" gradientUnits="userSpaceOnUse" x2="25.132" gradientTransform="matrix(.48572 0 0 -.45630 -3.6572 20.651)" y1=".98521" x1="25.132">
   <stop id="stop3990-5" style="stop-color:#ededed" offset="0"/>
   <stop id="stop3992-0" style="stop-color:#fafafa" offset="1"/>
  </linearGradient>
  <linearGradient id="linearGradient4366" y2="22" gradientUnits="userSpaceOnUse" x2="10" gradientTransform="translate(-3,-2)" x1="10">
   <stop id="stop3803" style="stop-color:#fff" offset="0"/>
   <stop id="stop3805" style="stop-color:#fff;stop-opacity:0" offset="1"/>
  </linearGradient>
  <radialGradient id="radialGradient3875" gradientUnits="userSpaceOnUse" cy="20" cx="14" gradientTransform="matrix(1 0 0 .16667 0 16.667)" r="6">
   <stop id="stop3973-8" offset="0"/>
   <stop id="stop3975-5" style="stop-opacity:0" offset="1"/>
  </radialGradient>
  <linearGradient id="linearGradient3899" y2="4" gradientUnits="userSpaceOnUse" x2="19" gradientTransform="translate(-5.7114 -2.4896)" y1="18" x1="19">
   <stop id="stop3918-2" style="stop-color:#d24b4b" offset="0"/>
   <stop id="stop3920-5" style="stop-color:#ec6d6d" offset="1"/>
  </linearGradient>
  <linearGradient id="linearGradient3901" y2="6" gradientUnits="userSpaceOnUse" x2="11" gradientTransform="translate(-5.7114 -2.4896)" y1="16" x1="11">
   <stop id="stop3908-9" style="stop-color:#b4b4b4" offset="0"/>
   <stop id="stop3910-3" style="stop-color:#f7f7f7" offset="1"/>
  </linearGradient>
 </defs>
 <metadata id="metadata3833">
  <rdf:RDF>
   <cc:Work rdf:about="">
    <dc:format>image/svg+xml</dc:format>
    <dc:type rdf:resource="http://purl.org/dc/dcmitype/StillImage"/>
    <dc:title/>
   </cc:Work>
  </rdf:RDF>
 </metadata>
 <g id="layer1" transform="translate(0,2)">
  <g id="g4349" transform="translate(2,-2)">
   <path id="path4281" style="opacity:.2;fill:url(#radialGradient4358)" d="m15 17v3h0.5c0.831 0 1.5-0.669 1.5-1.5s-0.669-1.5-1.5-1.5z"/>
   <path id="path4283" style="opacity:.2;fill:url(#radialGradient4360)" d="m2.4062 17c-0.779 0-1.4062 0.627-1.4062 1.406v0.1875c0 0.779 0.6272 1.406 1.4062 1.406h0.5938v-3z"/>
   <path id="path4285" style="opacity:.2;fill:url(#linearGradient4362)" d="m3 17h12v3h-12z"/>
   <path id="path4287" style="fill:url(#linearGradient4364)" d="m2.5 18.5c3.8956 0 13-0.0014 13-0.0014l0.000021-14.999h-13v15z"/>
   <path id="path4289" style="opacity:0.41;stroke-linejoin:round;stroke:#000;stroke-width:.99992;fill:none" d="m2.5 3.5c3.8956 0 13 0.0014 13 0.0014l0.000021 14.999h-13v-15z"/>
   <path id="path4291" style="opacity:.4;fill:#fff" d="m3 4v1c4.158 0.0000752 11.293-0.0000752 12 0v-1c-0.70734-0.0000752-7.842 0.0000752-12 0z"/>
   <path id="path4293" style="opacity:.4;fill:url(#linearGradient4366)" d="m3 4v14h12v-14zm1 1h10v12h-10z"/>
  </g>
  <g id="g3207" transform="translate(-2,-4)">
   <path id="path3209" style="opacity:.2" d="m10 9v-0.85938h-1.2891v0.8594h1.2891"/>
   <path id="path3211" style="opacity:.2" d="m12.5 9v-0.85938h-1.2891v0.8594h1.289"/>
   <path id="path3213" style="opacity:.2" d="m13.75 9v-0.85938h-1.2891v0.85938h1.2891"/>
   <path id="path3215" style="opacity:.2" d="m15 9v-0.85938h-1.2891v0.8594h1.289"/>
   <path id="path3217" style="opacity:.2" d="m10 11v-0.85938h-1.2891v0.85938h1.2891"/>
   <path id="path3219" style="opacity:.2" d="m11.25 11v-0.85938h-1.2891v0.85938h1.2891"/>
   <path id="path3221" style="opacity:.2" d="m12.5 11v-0.85938h-1.2891v0.85938h1.2891"/>
   <path id="path3223" style="opacity:.2" d="m16.258 11v-0.85938h-1.2891v0.85938h1.2891"/>
   <path id="path3225" style="opacity:.2" d="m17.508 11v-0.85938h-1.2891v0.85938h1.2891"/>
   <path id="path3227" style="opacity:.2" d="m10 13v-0.85938h-1.2891v0.85938h1.2891"/>
   <path id="path3229" style="opacity:.2" d="m12.5 13v-0.85938h-1.2891v0.85938h1.2891"/>
   <path id="path3231" style="opacity:.2" d="m13.75 13v-0.85938h-1.2891v0.85938h1.2891"/>
   <path id="path3233" style="opacity:.2" d="m15 13v-0.85938h-1.2891v0.85938h1.2891"/>
   <path id="path3235" style="opacity:.2" d="m16.25 13v-0.85938h-1.2891v0.85938h1.2891"/>
   <path id="path3237" style="opacity:.2" d="m17.5 13v-0.85938h-1.2891v0.85938h1.2891"/>
   <path id="path3239" style="opacity:.2" d="m10 15v-0.85938h-1.2891v0.85938h1.2891"/>
   <path id="path3241" style="opacity:.2" d="m11.25 15v-0.85938h-1.2891v0.85938h1.2891"/>
   <path id="path3243" style="opacity:.2" d="m13.75 15v-0.85938h-1.2891v0.85938h1.2891"/>
   <path id="path3245" style="opacity:.2" d="m15 15v-0.85938h-1.2891v0.85938h1.2891"/>
   <path id="path3247" style="opacity:.2" d="m16.25 15v-0.85938h-1.2891v0.85938h1.2891"/>
   <path id="path3249" style="opacity:.2" d="m10 17v-0.85938h-1.2891v0.85938h1.2891"/>
   <path id="path3251" style="opacity:.2" d="m11.25 17v-0.85938h-1.2891v0.85938h1.2891"/>
   <path id="path3253" style="opacity:.2" d="m12.5 17v-0.85938h-1.2891v0.85938h1.2891"/>
   <path id="path3255" style="opacity:.2" d="m17.508 15v-0.85938h-1.2891v0.85938h1.2891"/>
   <path id="path3257" style="opacity:.2" d="m17.508 9v-0.85938h-1.2891v0.85938h1.2891"/>
   <path id="path3259" style="opacity:.2" d="m15 11v-0.85938h-1.2891v0.85938h1.2891"/>
   <path id="path3261" style="opacity:.2" d="m13.75 17v-0.85938h-1.2891v0.85938h1.2891"/>
   <path id="path3263" style="opacity:.2" d="m11.25 13v-0.85938h-1.2891v0.85938h1.2891"/>
   <path id="path3265" style="opacity:.2" d="m11.25 9v-0.85938h-1.2891v0.85938h1.2891"/>
  </g>
  <g id="g4136" transform="translate(6.9905 -1.9998)">
   <g id="g3878">
    <path id="path3969-1" style="opacity:.2;fill:url(#radialGradient3875)" d="m20 20c0 0.55228-2.6863 1-6 1s-6-0.44772-6-1 2.6863-1 6-1 6 0.44772 6 1z" transform="translate(-6.0005 .92969)"/>
   </g>
   <g id="g3887" transform="matrix(.97164 0 0 .97164 -.055342 .12382)">
    <path id="path4050" style="fill:url(#linearGradient3899)" d="m6.4375 9.0625c-0.3575 0.3543-0.7044 0.6124-1.0625 0.9063-0.33377 0.24264-0.82564 0.55939-1.4062 0.875-0.23232 0.12628-0.39912 0.21831-0.5625 0.3125-0.19283 0.1082-0.33114 0.2127-0.40625 0.25-0.32747 0.16663-0.67192 0.4509-0.9375 0.8125-0.77445 1.0572-0.52553 2.5383 0.53125 3.3125 0.3959 0.289 0.8582 0.469 1.375 0.469 0.76551 0 1.485-0.36444 1.9375-0.96875 0.18195-0.24516 0.30335-0.52615 0.375-0.8125 0.00167-0.0067-0.00701-0.02678 0-0.03125 0.066021-0.19007 0.1291-0.33801 0.15625-0.5 0.036065-0.20491 0.064757-0.38177 0.25-0.84375 0.16858-0.42057 0.41572-0.82881 0.625-1.125 0.2713-0.44111 0.57193-0.61702 0.96875-0.875 0.53593 0.26325 0.63829 0.44961 0.96875 0.875 0.21042 0.29675 0.45636 0.70411 0.625 1.125 0.18578 0.46329 0.21748 0.64641 0.25 0.84375 0.01751 0.10809 0.05233 0.27854 0.125 0.5 0.0025 0.01015-0.0026 0.0212 0 0.03125 0.08458 0.32414 0.23787 0.57819 0.40625 0.8125v0.03125c0.459 0.61 1.188 0.938 1.938 0.938 0.517 0 1.011-0.178 1.406-0.469 0.657-0.483 0.998-1.259 0.969-2.031-0.018-0.47-0.184-0.894-0.469-1.281-0.26526-0.36538-0.6113-0.64652-0.9375-0.8125-0.08078-0.04011-0.22078-0.14293-0.40625-0.25-0.15585-0.08703-0.32739-0.1847-0.5625-0.3125-0.583-0.317-1.071-0.639-1.406-0.8752-0.441-0.2633-0.744-0.5819-1.063-0.9063-0.097 0.2124-0.4906-0.0544-2.125-0.0625s-1.4607 0.2696-1.5625 0.0625zm-2.4375 3.7185c0.17451 0 0.32721 0.05171 0.46875 0.15625 0.18134 0.13269 0.28084 0.32448 0.3125 0.53125 0.03167 0.20678 0.0093 0.44285-0.125 0.625-0.1519 0.21-0.3964 0.344-0.6562 0.344-0.1745 0-0.3577-0.051-0.5-0.157-0.1761-0.128-0.2811-0.346-0.3125-0.562-0.0354-0.215-0.0037-0.417 0.125-0.594 0.1528-0.209 0.4277-0.344 0.6875-0.344zm8.5625 0c0.25975 0 0.5339 0.13466 0.6875 0.34375 0.06554 0.08846 0.09997 0.17801 0.125 0.28125s0.01608 0.20514 0 0.3125c-0.03458 0.21632-0.13799 0.43383-0.3125 0.5625-0.14234 0.10535-0.3263 0.15625-0.5 0.15625-0.25975 0-0.50346-0.13386-0.65625-0.34375-0.12867-0.17692-0.15958-0.40707-0.125-0.625 0.03217-0.21391 0.13558-0.40258 0.3125-0.53125 0.14154-0.10454 0.29424-0.15625 0.46875-0.15625z" transform="translate(0,6)"/>
    <path id="path3870" style="opacity:0.61;stroke-linejoin:round;stroke:#900;stroke-width:1.0292;fill:none" d="m6.4375 9.0625c-0.3575 0.3543-0.7044 0.6124-1.0625 0.9063-0.33377 0.24264-0.82564 0.55939-1.4062 0.875-0.23232 0.12628-0.39912 0.21831-0.5625 0.3125-0.19283 0.1082-0.33114 0.2127-0.40625 0.25-0.32747 0.16663-0.67192 0.4509-0.9375 0.8125-0.77445 1.0572-0.52553 2.5383 0.53125 3.3125 0.3959 0.289 0.8582 0.469 1.375 0.469 0.76551 0 1.485-0.36444 1.9375-0.96875 0.18195-0.24516 0.30335-0.52615 0.375-0.8125 0.00167-0.0067-0.00701-0.02678 0-0.03125 0.066021-0.19007 0.1291-0.33801 0.15625-0.5 0.036065-0.20491 0.064757-0.38177 0.25-0.84375 0.16858-0.42057 0.41572-0.82881 0.625-1.125 0.2713-0.44111 0.57193-0.61702 0.96875-0.875 0.53593 0.26325 0.63829 0.44961 0.96875 0.875 0.21042 0.29675 0.45636 0.70411 0.625 1.125 0.18578 0.46329 0.21748 0.64641 0.25 0.84375 0.01751 0.10809 0.05233 0.27854 0.125 0.5 0.0025 0.01015-0.0026 0.0212 0 0.03125 0.08458 0.32414 0.23787 0.57819 0.40625 0.8125v0.03125c0.459 0.61 1.188 0.938 1.938 0.938 0.517 0 1.011-0.178 1.406-0.469 0.657-0.483 0.998-1.259 0.969-2.031-0.018-0.47-0.184-0.894-0.469-1.281-0.26526-0.36538-0.6113-0.64652-0.9375-0.8125-0.08078-0.04011-0.22078-0.14293-0.40625-0.25-0.15585-0.08703-0.32739-0.1847-0.5625-0.3125-0.583-0.317-1.071-0.639-1.406-0.8752-0.441-0.2633-0.744-0.5819-1.063-0.9063-0.097 0.2124-0.4906-0.0544-2.125-0.0625s-1.4607 0.2696-1.5625 0.0625zm-2.4375 3.7185c0.17451 0 0.32721 0.05171 0.46875 0.15625 0.18134 0.13269 0.28084 0.32448 0.3125 0.53125 0.03167 0.20678 0.0093 0.44285-0.125 0.625-0.1519 0.21-0.3964 0.344-0.6562 0.344-0.1745 0-0.3577-0.051-0.5-0.157-0.1761-0.128-0.2811-0.346-0.3125-0.562-0.0354-0.215-0.0037-0.417 0.125-0.594 0.1528-0.209 0.4277-0.344 0.6875-0.344zm8.5625 0c0.25975 0 0.5339 0.13466 0.6875 0.34375 0.06554 0.08846 0.09997 0.17801 0.125 0.28125s0.01608 0.20514 0 0.3125c-0.03458 0.21632-0.13799 0.43383-0.3125 0.5625-0.14234 0.10535-0.3263 0.15625-0.5 0.15625-0.25975 0-0.50346-0.13386-0.65625-0.34375-0.12867-0.17692-0.15958-0.40707-0.125-0.625 0.03217-0.21391 0.13558-0.40258 0.3125-0.53125 0.14154-0.10454 0.29424-0.15625 0.46875-0.15625z" transform="translate(0,6)"/>
    <path id="path4052" style="fill:url(#linearGradient3901)" d="m4.7812 0.5625c-0.284 0.42074-0.576 0.9185-0.8124 1.3125-0.1119 0.2571-0.2296 0.645-0.125 1.0625 0.0523 0.2108 0.1607 0.4069 0.3124 0.7813 0.1518 0.3743 0.3312 0.8568 0.5626 1.4062 0.4626 1.0989 1.0432 2.4238 1.3563 3.1175 0.3131 0.6936 0.4822 1.12 0.7687 1.5075 0.2864 0.388 0.7708 0.75 1.4374 0.75 0.6667 0 1.1688-0.359 1.4688-0.75 0.3-0.3915 0.467-0.823 0.562-1.0625 0.488-1.1385 1.038-2.464 1.5-3.5625 0.232-0.5492 0.442-1.0318 0.594-1.4062 0.152-0.3745 0.229-0.5768 0.282-0.7813 0.064-0.2563 0.049-0.4607 0.031-0.5937-0.036-0.2651-0.136-0.4718-0.219-0.625-0.257-0.3756-0.399-0.6156-0.719-1.1563l-0.437 0.6875-0.156 0.25-2.9068 4.7812-2.9062-4.7812h-0.0312l-0.1563-0.25z" transform="translate(0,6)"/>
    <path id="path3868" style="opacity:0.41;stroke-linejoin:round;stroke:#000;stroke-width:1.0292;fill:none" d="m4.7812 0.5625c-0.284 0.42074-0.576 0.9185-0.8124 1.3125-0.1119 0.2571-0.2296 0.645-0.125 1.0625 0.0523 0.2108 0.1607 0.4069 0.3124 0.7813 0.1518 0.3743 0.3312 0.8568 0.5626 1.4062 0.4626 1.0989 1.0432 2.4238 1.3563 3.1175 0.3131 0.6936 0.4822 1.12 0.7687 1.5075 0.2864 0.388 0.7708 0.75 1.4374 0.75 0.6667 0 1.1688-0.359 1.4688-0.75 0.3-0.3915 0.467-0.823 0.562-1.0625 0.488-1.1385 1.038-2.464 1.5-3.5625 0.232-0.5492 0.442-1.0318 0.594-1.4062 0.152-0.3745 0.229-0.5768 0.282-0.7813 0.064-0.2563 0.049-0.4607 0.031-0.5937-0.036-0.2651-0.136-0.4718-0.219-0.625-0.257-0.3756-0.399-0.6156-0.719-1.1563l-0.437 0.6875-0.156 0.25-2.9068 4.7812-2.9062-4.7812h-0.0312l-0.1563-0.25z" transform="translate(0,6)"/>
    <path id="path3928" style="opacity:0.41" d="m14 6.5c0 0.2761-0.224 0.5-0.5 0.5s-0.5-0.2239-0.5-0.5 0.224-0.5 0.5-0.5 0.5 0.2239 0.5 0.5z" transform="matrix(0 1.5 -1.5 0 18.027 -5.3258)"/>
    <path id="path3881" style="opacity:0.41;block-progression:tb;text-indent:0;color:#000000;text-transform:none" d="m8.8674 12.252-0.6007 1.052 1.2355 1.96 0.5348-1.106z"/>
   </g>
  </g>
 </g>
</svg>
