<?xml version="1.0" encoding="UTF-8" standalone="no"?>
<!-- Created with Inkscape (http://www.inkscape.org/) -->
<svg id="svg3828" xmlns:rdf="http://www.w3.org/1999/02/22-rdf-syntax-ns#" xmlns="http://www.w3.org/2000/svg" height="24" width="24" version="1.1" xmlns:cc="http://creativecommons.org/ns#" xmlns:xlink="http://www.w3.org/1999/xlink" xmlns:dc="http://purl.org/dc/elements/1.1/">
 <defs id="defs3830">
  <linearGradient id="linearGradient3801">
   <stop id="stop3803" style="stop-color:#fff" offset="0"/>
   <stop id="stop3805" style="stop-color:#fff;stop-opacity:0" offset="1"/>
  </linearGradient>
  <linearGradient id="linearGradient3988-5">
   <stop id="stop3990-5" style="stop-color:#ededed" offset="0"/>
   <stop id="stop3992-0" style="stop-color:#fafafa" offset="1"/>
  </linearGradient>
  <linearGradient id="linearGradient3952">
   <stop id="stop3954" offset="0"/>
   <stop id="stop3956" style="stop-opacity:0" offset="1"/>
  </linearGradient>
  <linearGradient id="linearGradient3960">
   <stop id="stop3962" style="stop-opacity:0" offset="0"/>
   <stop id="stop3970" offset=".5"/>
   <stop id="stop3964" style="stop-opacity:0" offset="1"/>
  </linearGradient>
  <linearGradient id="linearGradient4316" y2="22" xlink:href="#linearGradient3801" gradientUnits="userSpaceOnUse" x2="10" gradientTransform="translate(2,-1)" x1="10"/>
  <linearGradient id="linearGradient4321" y2="47.013" xlink:href="#linearGradient3988-5" gradientUnits="userSpaceOnUse" x2="25.132" gradientTransform="matrix(.48572 0 0 -.45630 1.3428 21.651)" y1=".98521" x1="25.132"/>
  <linearGradient id="linearGradient4324" y2="42" xlink:href="#linearGradient3960" gradientUnits="userSpaceOnUse" x2="25" gradientTransform="translate(-7,-24)" y1="45" x1="25"/>
  <radialGradient id="radialGradient4327" xlink:href="#linearGradient3952" gradientUnits="userSpaceOnUse" cy="43.5" cx="9" gradientTransform="matrix(1 0 0 .75 -1 -13.125)" r="2"/>
  <radialGradient id="radialGradient4330" xlink:href="#linearGradient3952" gradientUnits="userSpaceOnUse" cy="43.5" cx="40" gradientTransform="matrix(1 0 0 .75 -20 -13.125)" r="2"/>
  <radialGradient id="radialGradient4358" xlink:href="#linearGradient3952" gradientUnits="userSpaceOnUse" cy="43.5" cx="40" gradientTransform="matrix(1 0 0 .75 -25 -14.125)" r="2"/>
  <radialGradient id="radialGradient4360" xlink:href="#linearGradient3952" gradientUnits="userSpaceOnUse" cy="43.5" cx="9" gradientTransform="matrix(1 0 0 .75 -6 -14.125)" r="2"/>
  <linearGradient id="linearGradient4362" y2="42" xlink:href="#linearGradient3960" gradientUnits="userSpaceOnUse" x2="25" gradientTransform="translate(-12,-25)" y1="45" x1="25"/>
  <linearGradient id="linearGradient4364" y2="47.013" xlink:href="#linearGradient3988-5" gradientUnits="userSpaceOnUse" x2="25.132" gradientTransform="matrix(.48572 0 0 -.45630 -3.6572 20.651)" y1=".98521" x1="25.132"/>
  <linearGradient id="linearGradient4366" y2="22" xlink:href="#linearGradient3801" gradientUnits="userSpaceOnUse" x2="10" gradientTransform="translate(-3,-2)" x1="10"/>
 </defs>
 <metadata id="metadata3833">
  <rdf:RDF>
   <cc:Work rdf:about="">
    <dc:format>image/svg+xml</dc:format>
    <dc:type rdf:resource="http://purl.org/dc/dcmitype/StillImage"/>
    <dc:title/>
   </cc:Work>
  </rdf:RDF>
 </metadata>
 <g id="layer1" transform="translate(0,2)">
  <g id="g4349" transform="translate(1,-3)">
   <path id="path4281" style="opacity:.2;fill:url(#radialGradient4358)" d="m15 17v3h0.5c0.831 0 1.5-0.669 1.5-1.5s-0.669-1.5-1.5-1.5z"/>
   <path id="path4283" style="opacity:.2;fill:url(#radialGradient4360)" d="m2.4062 17c-0.779 0-1.4062 0.627-1.4062 1.406v0.1875c0 0.779 0.6272 1.406 1.4062 1.406h0.5938v-3z"/>
   <path id="path4285" style="opacity:.2;fill:url(#linearGradient4362)" d="m3 17h12v3h-12z"/>
   <path id="path4287" style="fill:url(#linearGradient4364)" d="m2.5 18.5c3.8956 0 13-0.0014 13-0.0014l0.000021-14.999h-13v15z"/>
   <path id="path4289" style="opacity:0.41;stroke-linejoin:round;stroke:#000;stroke-width:.99992;fill:none" d="m2.5 3.5c3.8956 0 13 0.0014 13 0.0014l0.000021 14.999h-13v-15z"/>
   <path id="path4291" style="opacity:.4;fill:#fff" d="m3 4v1c4.158 0.0000752 11.293-0.0000752 12 0v-1c-0.70734-0.0000752-7.842 0.0000752-12 0z"/>
   <path id="path4293" style="opacity:.4;fill:url(#linearGradient4366)" d="m3 4v14h12v-14zm1 1h10v12h-10z"/>
  </g>
  <g id="g3207" transform="translate(-3,-5)">
   <path id="path3209" style="opacity:.2" d="m10 9v-0.85938h-1.2891v0.8594h1.2891"/>
   <path id="path3211" style="opacity:.2" d="m12.5 9v-0.85938h-1.2891v0.8594h1.289"/>
   <path id="path3213" style="opacity:.2" d="m13.75 9v-0.85938h-1.2891v0.85938h1.2891"/>
   <path id="path3215" style="opacity:.2" d="m15 9v-0.85938h-1.2891v0.8594h1.289"/>
   <path id="path3217" style="opacity:.2" d="m10 11v-0.85938h-1.2891v0.85938h1.2891"/>
   <path id="path3219" style="opacity:.2" d="m11.25 11v-0.85938h-1.2891v0.85938h1.2891"/>
   <path id="path3221" style="opacity:.2" d="m12.5 11v-0.85938h-1.2891v0.85938h1.2891"/>
   <path id="path3223" style="opacity:.2" d="m16.258 11v-0.85938h-1.2891v0.85938h1.2891"/>
   <path id="path3225" style="opacity:.2" d="m17.508 11v-0.85938h-1.2891v0.85938h1.2891"/>
   <path id="path3227" style="opacity:.2" d="m10 13v-0.85938h-1.2891v0.85938h1.2891"/>
   <path id="path3229" style="opacity:.2" d="m12.5 13v-0.85938h-1.2891v0.85938h1.2891"/>
   <path id="path3231" style="opacity:.2" d="m13.75 13v-0.85938h-1.2891v0.85938h1.2891"/>
   <path id="path3233" style="opacity:.2" d="m15 13v-0.85938h-1.2891v0.85938h1.2891"/>
   <path id="path3235" style="opacity:.2" d="m16.25 13v-0.85938h-1.2891v0.85938h1.2891"/>
   <path id="path3237" style="opacity:.2" d="m17.5 13v-0.85938h-1.2891v0.85938h1.2891"/>
   <path id="path3239" style="opacity:.2" d="m10 15v-0.85938h-1.2891v0.85938h1.2891"/>
   <path id="path3241" style="opacity:.2" d="m11.25 15v-0.85938h-1.2891v0.85938h1.2891"/>
   <path id="path3243" style="opacity:.2" d="m13.75 15v-0.85938h-1.2891v0.85938h1.2891"/>
   <path id="path3245" style="opacity:.2" d="m15 15v-0.85938h-1.2891v0.85938h1.2891"/>
   <path id="path3247" style="opacity:.2" d="m16.25 15v-0.85938h-1.2891v0.85938h1.2891"/>
   <path id="path3249" style="opacity:.2" d="m10 17v-0.85938h-1.2891v0.85938h1.2891"/>
   <path id="path3251" style="opacity:.2" d="m11.25 17v-0.85938h-1.2891v0.85938h1.2891"/>
   <path id="path3253" style="opacity:.2" d="m12.5 17v-0.85938h-1.2891v0.85938h1.2891"/>
   <path id="path3255" style="opacity:.2" d="m17.508 15v-0.85938h-1.2891v0.85938h1.2891"/>
   <path id="path3257" style="opacity:.2" d="m17.508 9v-0.85938h-1.2891v0.85938h1.2891"/>
   <path id="path3259" style="opacity:.2" d="m15 11v-0.85938h-1.2891v0.85938h1.2891"/>
   <path id="path3261" style="opacity:.2" d="m13.75 17v-0.85938h-1.2891v0.85938h1.2891"/>
   <path id="path3263" style="opacity:.2" d="m11.25 13v-0.85938h-1.2891v0.85938h1.2891"/>
   <path id="path3265" style="opacity:.2" d="m11.25 9v-0.85938h-1.2891v0.85938h1.2891"/>
  </g>
  <path id="rect3940" style="opacity:.2;fill:url(#radialGradient4330)" d="m20 18v3h0.5c0.831 0 1.5-0.669 1.5-1.5s-0.669-1.5-1.5-1.5z"/>
  <path id="rect3942" style="opacity:.2;fill:url(#radialGradient4327)" d="m7.4062 18c-0.779 0-1.4062 0.627-1.4062 1.406v0.1875c0 0.779 0.6272 1.406 1.4062 1.406h0.5938v-3z"/>
  <path id="rect3938" style="opacity:.2;fill:url(#linearGradient4324)" d="m8 18h12v3h-12z"/>
  <path id="path4160-3" style="fill:url(#linearGradient4321)" d="m7.5 19.5c3.8956 0 13-0.0014 13-0.0014l0.000021-14.999h-13v15z"/>
  <path id="path4160-3-5" style="opacity:0.41;stroke-linejoin:round;stroke:#000;stroke-width:.99992;fill:none" d="m7.5 4.5c3.8956 0 13 0.0014 13 0.0014l0.000021 14.999h-13v-15z"/>
  <path id="path3780" style="opacity:.4;fill:#fff" d="m8 5v1c4.158 0.0000752 11.293-0.0000752 12 0v-1c-0.70734-0.0000752-7.842 0.0000752-12 0z"/>
  <path id="rect3796" style="opacity:.4;fill:url(#linearGradient4316)" d="m8 5v14h12v-14zm1 1h10v12h-10z"/>
 </g>
 <g id="layer2" transform="translate(0,2)">
  <g id="g3176" transform="translate(1,-1)">
   <path id="path26173" style="opacity:.2" d="m10 9v-0.85938h-1.2891v0.8594h1.2891"/>
   <path id="path26177" style="opacity:.2" d="m12.5 9v-0.85938h-1.2891v0.8594h1.289"/>
   <path id="path26179" style="opacity:.2" d="m13.75 9v-0.85938h-1.2891v0.85938h1.2891"/>
   <path id="path26181" style="opacity:.2" d="m15 9v-0.85938h-1.2891v0.8594h1.289"/>
   <path id="path26203" style="opacity:.2" d="m10 11v-0.85938h-1.2891v0.85938h1.2891"/>
   <path id="path26205" style="opacity:.2" d="m11.25 11v-0.85938h-1.2891v0.85938h1.2891"/>
   <path id="path26207" style="opacity:.2" d="m12.5 11v-0.85938h-1.2891v0.85938h1.2891"/>
   <path id="path26209" style="opacity:.2" d="m16.258 11v-0.85938h-1.2891v0.85938h1.2891"/>
   <path id="path26211" style="opacity:.2" d="m17.508 11v-0.85938h-1.2891v0.85938h1.2891"/>
   <path id="path26219" style="opacity:.2" d="m10 13v-0.85938h-1.2891v0.85938h1.2891"/>
   <path id="path26223" style="opacity:.2" d="m12.5 13v-0.85938h-1.2891v0.85938h1.2891"/>
   <path id="path26225" style="opacity:.2" d="m13.75 13v-0.85938h-1.2891v0.85938h1.2891"/>
   <path id="path26227" style="opacity:.2" d="m15 13v-0.85938h-1.2891v0.85938h1.2891"/>
   <path id="path26229" style="opacity:.2" d="m16.25 13v-0.85938h-1.2891v0.85938h1.2891"/>
   <path id="path26231" style="opacity:.2" d="m17.5 13v-0.85938h-1.2891v0.85938h1.2891"/>
   <path id="path26241" style="opacity:.2" d="m10 15v-0.85938h-1.2891v0.85938h1.2891"/>
   <path id="path26243" style="opacity:.2" d="m11.25 15v-0.85938h-1.2891v0.85938h1.2891"/>
   <path id="path26247" style="opacity:.2" d="m13.75 15v-0.85938h-1.2891v0.85938h1.2891"/>
   <path id="path26249" style="opacity:.2" d="m15 15v-0.85938h-1.2891v0.85938h1.2891"/>
   <path id="path26251" style="opacity:.2" d="m16.25 15v-0.85938h-1.2891v0.85938h1.2891"/>
   <path id="path26271" style="opacity:.2" d="m10 17v-0.85938h-1.2891v0.85938h1.2891"/>
   <path id="path26273" style="opacity:.2" d="m11.25 17v-0.85938h-1.2891v0.85938h1.2891"/>
   <path id="path26275" style="opacity:.2" d="m12.5 17v-0.85938h-1.2891v0.85938h1.2891"/>
   <path id="path26279" style="opacity:.2" d="m17.508 15v-0.85938h-1.2891v0.85938h1.2891"/>
   <path id="path4457" style="opacity:.2" d="m17.508 9v-0.85938h-1.2891v0.85938h1.2891"/>
   <path id="path4459" style="opacity:.2" d="m15 11v-0.85938h-1.2891v0.85938h1.2891"/>
   <path id="path4461" style="opacity:.2" d="m13.75 17v-0.85938h-1.2891v0.85938h1.2891"/>
   <path id="path3172" style="opacity:.2" d="m11.25 13v-0.85938h-1.2891v0.85938h1.2891"/>
   <path id="path3174" style="opacity:.2" d="m11.25 9v-0.85938h-1.2891v0.85938h1.2891"/>
  </g>
 </g>
</svg>
