<?xml version="1.0" encoding="UTF-8" standalone="no"?>
<!-- Created with Inkscape (http://www.inkscape.org/) -->
<svg id="svg3495" xmlns:rdf="http://www.w3.org/1999/02/22-rdf-syntax-ns#" xmlns="http://www.w3.org/2000/svg" height="24" width="24" version="1.1" xmlns:cc="http://creativecommons.org/ns#" xmlns:xlink="http://www.w3.org/1999/xlink" xmlns:dc="http://purl.org/dc/elements/1.1/">
 <defs id="defs3497">
  <linearGradient id="linearGradient3821">
   <stop id="stop3823" style="stop-color:#555" offset="0"/>
   <stop id="stop3825" style="stop-color:#666" offset="1"/>
  </linearGradient>
  <linearGradient id="linearGradient3824" xlink:href="#linearGradient3821" gradientUnits="userSpaceOnUse" x2="12" y1="22" x1="12"/>
  <linearGradient id="linearGradient3952-38">
   <stop id="stop3954-7" offset="0"/>
   <stop id="stop3956-2" style="stop-opacity:0" offset="1"/>
  </linearGradient>
  <linearGradient id="linearGradient3960-2">
   <stop id="stop3962-9" style="stop-opacity:0" offset="0"/>
   <stop id="stop3970-8" offset=".5"/>
   <stop id="stop3964-7" style="stop-opacity:0" offset="1"/>
  </linearGradient>
  <linearGradient id="linearGradient3052" y2="42" xlink:href="#linearGradient3960-2" gradientUnits="userSpaceOnUse" x2="25" gradientTransform="translate(-10,2.5)" y1="45" x1="25"/>
  <radialGradient id="radialGradient3055" xlink:href="#linearGradient3952-38" gradientUnits="userSpaceOnUse" cy="43.5" cx="9" gradientTransform="matrix(1 0 0 .75 -5 13.375)" r="2"/>
  <radialGradient id="radialGradient3058" xlink:href="#linearGradient3952-38" gradientUnits="userSpaceOnUse" cy="43.5" cx="40" gradientTransform="matrix(1 0 0 .75 -22 13.375)" r="2"/>
 </defs>
 <metadata id="metadata3500">
  <rdf:RDF>
   <cc:Work rdf:about="">
    <dc:format>image/svg+xml</dc:format>
    <dc:type rdf:resource="http://purl.org/dc/dcmitype/StillImage"/>
    <dc:title/>
   </cc:Work>
  </rdf:RDF>
 </metadata>
 <g id="layer1" transform="translate(0,-24)">
  <g id="g3849" transform="translate(1,7)">
   <path id="rect3816" d="m1.5 8.5v0.5 2 0.5h0.5 18 0.5v-0.5-2-0.5h-0.5-18-0.5z" style="fill:url(#linearGradient3824)" transform="translate(0,26)"/>
   <path id="path3833" style="opacity:0.61;stroke:#000;fill:none" d="m1.5 8.5v0.5 2 0.5h0.5 18 0.5v-0.5-2-0.5h-0.5-18-0.5z" transform="translate(0,26)"/>
   <path id="path3835" d="m2 9v1h18v-1h-18z" style="opacity:.2;fill:#fff" transform="translate(0,26)"/>
  </g>
  <g id="g3060" transform="translate(1,-1)">
   <path id="rect3940-4" d="m18 44.5v3h0.5c0.831 0 1.5-0.669 1.5-1.5s-0.669-1.5-1.5-1.5h-0.5z" style="opacity:.2;fill:url(#radialGradient3058)"/>
   <path id="rect3942-9" d="m3.4062 44.5c-0.779 0-1.4062 0.627-1.4062 1.406v0.1875c0 0.779 0.6272 1.406 1.4062 1.406h0.5938v-3h-0.59375z" style="opacity:.2;fill:url(#radialGradient3055)"/>
   <path id="rect3938-7" d="m4 44.5h14v3h-14z" style="opacity:.2;fill:url(#linearGradient3052)"/>
  </g>
  <g id="g3065" transform="translate(1,2)">
   <path id="path3067" style="fill:url(#linearGradient3824)" transform="translate(0,26)" d="m1.5 8.5v0.5 2 0.5h0.5 18 0.5v-0.5-2-0.5h-0.5-18-0.5z"/>
   <path id="path3069" d="m1.5 8.5v0.5 2 0.5h0.5 18 0.5v-0.5-2-0.5h-0.5-18-0.5z" style="opacity:0.61;stroke:#000;fill:none" transform="translate(0,26)"/>
   <path id="path3071" style="opacity:.2;fill:#fff" transform="translate(0,26)" d="m2 9v1h18v-1h-18z"/>
  </g>
  <g id="g3073" transform="translate(1,-6)">
   <path id="path3075" style="opacity:.2;fill:url(#radialGradient3058)" d="m18 44.5v3h0.5c0.831 0 1.5-0.669 1.5-1.5s-0.669-1.5-1.5-1.5h-0.5z"/>
   <path id="path3077" style="opacity:.2;fill:url(#radialGradient3055)" d="m3.4062 44.5c-0.779 0-1.4062 0.627-1.4062 1.406v0.1875c0 0.779 0.6272 1.406 1.4062 1.406h0.5938v-3h-0.59375z"/>
   <path id="path3079" style="opacity:.2;fill:url(#linearGradient3052)" d="m4 44.5h14v3h-14z"/>
  </g>
  <g id="g3089" transform="translate(1,-3)">
   <path id="path3091" d="m1.5 8.5v0.5 2 0.5h0.5 18 0.5v-0.5-2-0.5h-0.5-18-0.5z" style="fill:url(#linearGradient3824)" transform="translate(0,26)"/>
   <path id="path3093" style="opacity:0.61;stroke:#000;fill:none" d="m1.5 8.5v0.5 2 0.5h0.5 18 0.5v-0.5-2-0.5h-0.5-18-0.5z" transform="translate(0,26)"/>
   <path id="path3095" d="m2 9v1h18v-1h-18z" style="opacity:.2;fill:#fff" transform="translate(0,26)"/>
  </g>
  <g id="g3097" transform="translate(1,-11)">
   <path id="path3099" d="m18 44.5v3h0.5c0.831 0 1.5-0.669 1.5-1.5s-0.669-1.5-1.5-1.5h-0.5z" style="opacity:.2;fill:url(#radialGradient3058)"/>
   <path id="path3101" d="m3.4062 44.5c-0.779 0-1.4062 0.627-1.4062 1.406v0.1875c0 0.779 0.6272 1.406 1.4062 1.406h0.5938v-3h-0.59375z" style="opacity:.2;fill:url(#radialGradient3055)"/>
   <path id="path3103" d="m4 44.5h14v3h-14z" style="opacity:.2;fill:url(#linearGradient3052)"/>
  </g>
  <g id="g3113" transform="translate(1,-8)">
   <path id="path3115" style="fill:url(#linearGradient3824)" transform="translate(0,26)" d="m1.5 8.5v0.5 2 0.5h0.5 18 0.5v-0.5-2-0.5h-0.5-18-0.5z"/>
   <path id="path3117" d="m1.5 8.5v0.5 2 0.5h0.5 18 0.5v-0.5-2-0.5h-0.5-18-0.5z" style="opacity:0.61;stroke:#000;fill:none" transform="translate(0,26)"/>
   <path id="path3119" style="opacity:.2;fill:#fff" transform="translate(0,26)" d="m2 9v1h18v-1h-18z"/>
  </g>
  <g id="g3121" transform="translate(1,-16)">
   <path id="path3123" style="opacity:.2;fill:url(#radialGradient3058)" d="m18 44.5v3h0.5c0.831 0 1.5-0.669 1.5-1.5s-0.669-1.5-1.5-1.5h-0.5z"/>
   <path id="path3125" style="opacity:.2;fill:url(#radialGradient3055)" d="m3.4062 44.5c-0.779 0-1.4062 0.627-1.4062 1.406v0.1875c0 0.779 0.6272 1.406 1.4062 1.406h0.5938v-3h-0.59375z"/>
   <path id="path3127" style="opacity:.2;fill:url(#linearGradient3052)" d="m4 44.5h14v3h-14z"/>
  </g>
 </g>
</svg>
