<?xml version="1.0" encoding="UTF-8" standalone="no"?>
<!-- Created with Inkscape (http://www.inkscape.org/) -->
<svg id="svg3495" xmlns:rdf="http://www.w3.org/1999/02/22-rdf-syntax-ns#" xmlns="http://www.w3.org/2000/svg" height="24" width="24" version="1.1" xmlns:cc="http://creativecommons.org/ns#" xmlns:xlink="http://www.w3.org/1999/xlink" xmlns:dc="http://purl.org/dc/elements/1.1/">
 <defs id="defs3497">
  <linearGradient id="linearGradient3800" gradientUnits="userSpaceOnUse" x2="12" gradientTransform="translate(1,25)" y1="22" x1="12">
   <stop id="stop3823" style="stop-color:#555" offset="0"/>
   <stop id="stop3825" style="stop-color:#666" offset="1"/>
  </linearGradient>
  <radialGradient id="radialGradient4051" gradientUnits="userSpaceOnUse" cy="43.5" cx="40" gradientTransform="matrix(1 0 0 .75 -22 9.875)" r="2">
   <stop id="stop3954" offset="0"/>
   <stop id="stop3956" style="stop-opacity:0" offset="1"/>
  </radialGradient>
  <radialGradient id="radialGradient4053" gradientUnits="userSpaceOnUse" cy="43.5" cx="9" gradientTransform="matrix(1 0 0 .75 -4 9.875)" r="2">
   <stop id="stop3946" offset="0"/>
   <stop id="stop3948" style="stop-opacity:0" offset="1"/>
  </radialGradient>
  <linearGradient id="linearGradient4125" y2="42" gradientUnits="userSpaceOnUse" y1="45" gradientTransform="translate(-9,-1)" x2="25" x1="25">
   <stop id="stop3962" style="stop-opacity:0" offset="0"/>
   <stop id="stop3970" offset=".5"/>
   <stop id="stop3964" style="stop-opacity:0" offset="1"/>
  </linearGradient>
 </defs>
 <metadata id="metadata3500">
  <rdf:RDF>
   <cc:Work rdf:about="">
    <dc:format>image/svg+xml</dc:format>
    <dc:type rdf:resource="http://purl.org/dc/dcmitype/StillImage"/>
    <dc:title/>
   </cc:Work>
  </rdf:RDF>
 </metadata>
 <g id="layer1" transform="translate(0,-24)">
  <path id="path11643-3-5" style="block-progression:tb;text-indent:0;color:#000000;text-transform:none;fill:#555" d="m7.5 27.5v0.5 3 0.5h0.5 9c0.21706 0 0.24018 0.04724 0.25 0.0625 0.0098 0.01526 0.04061 0.11565-0.03125 0.375l-0.407 1.562h-7.5c-3.0025 0-5.1027 2.205-5.7182 4.5-0.3082 1.149-0.296 2.471 0.4062 3.625 0.727 1.195 2.1723 1.875 3.6875 1.875h9c1.4112-0.00002 1.9062-1.4062 1.9062-1.4062v-0.03125l2.5-9c0.738-2.665-1.234-5.563-4.094-5.563h-9-0.5zm1.8125 10h6.375l-0.5625 2h-7.4375c-0.21585 0-0.26568-0.02884-0.28125-0.03125-0.00538-0.01823 0.00219 0.01741 0-0.03125-0.0053-0.098-0.0175-0.26 0.0303-0.438 0.1912-0.713 0.8635-1.5 1.875-1.5z"/>
  <path id="path3791" style="opacity:0.61;block-progression:tb;text-indent:0;color:#000000;stroke:#000;text-transform:none;fill:url(#linearGradient3800)" d="m7.5 27.5v0.5 3 0.5h0.5 9c0.21706 0 0.24018 0.04724 0.25 0.0625 0.0098 0.01526 0.04061 0.11565-0.03125 0.375l-0.407 1.562h-7.5c-3.0025 0-5.1027 2.205-5.7182 4.5-0.3082 1.149-0.296 2.471 0.4062 3.625 0.727 1.195 2.1723 1.875 3.6875 1.875h9c1.4112-0.00002 1.9062-1.4062 1.9062-1.4062v-0.03125l2.5-9c0.738-2.665-1.234-5.563-4.094-5.563h-9-0.5zm1.8125 10h6.375l-0.5625 2h-7.4375c-0.21585 0-0.26568-0.02884-0.28125-0.03125-0.00538-0.01823 0.00219 0.01741 0-0.03125-0.0053-0.098-0.0175-0.26 0.0303-0.438 0.1912-0.713 0.8635-1.5 1.875-1.5z"/>
  <path id="path3802" style="opacity:.2;block-progression:tb;text-indent:0;color:#000000;text-transform:none;fill:#fff" d="m8 28v1h9c1.9883 0 3.4873 1.6048 3.7188 3.4375 0.294-2.203-1.377-4.438-3.719-4.438h-9zm9.625 4.25-0.34375 1.375-0.09375 0.375h-0.375-7.5c-2.7582 0-4.6874 2.0275-5.25 4.125-0.14698 0.54799-0.18883 1.1422-0.125 1.7188 0.0286-0.242 0.0632-0.487 0.1255-0.719 0.5626-2.098 2.4918-4.125 5.25-4.125h7.5 0.375l0.09375-0.375 0.40625-1.5625c0.04527-0.16339 0.06239-0.28973 0.0625-0.40625 0.000054-0.05826 0.01094-0.10195 0-0.15625s-0.02097-0.10542-0.09375-0.21875c0.0049 0.0076-0.02649-0.02017-0.03125-0.03125zm-1.563 5.75-0.468 1.625-0.094 0.375h-0.375-7.4375c-0.10443 0-0.18084-0.01954-0.25-0.03125-0.00256 0.009 0.0024 0.02225 0 0.03125-0.047812 0.17822-0.035627 0.34018-0.03125 0.4375v0.03125l-0.5-0.03125c0.0000898 0.0055 0.0000445 0.03224 0 0.03125 0.00386 0.03704-0.0000124 0.12495 0 0.125 0.000019 0.00007 0.02467 0.0115 0.03125 0.03125 0.00264 0.0073 0.0000826 0.03143 0 0.03125 0.000027 0.00007 0.02339 0.01636 0.03125 0.03125 0.0052 0.0085-0.0062 0.02112 0 0.03125l0.0313 0.031c0.00396 0.0065 0.000005 0.03126 0 0.03125l0.03125 0.125 0.25 0.0625c0.01563 0.0046 0.038505-0.0054 0.0625 0 0.011998 0.0027 0.018157-0.0024 0.03125 0 0.00606 0.0016 0.031243 0 0.03125 0 0.0741 0.013 0.164 0.032 0.2813 0.032h7.4375 0.375l0.09375-0.375 0.5625-2 0.188-0.625h-0.282zm-8.6558 0.969c-0.1125 0.15-0.2046 0.306-0.2812 0.469l0.28125 0.03125v-0.03125c-0.0043-0.098-0.0165-0.26 0.0313-0.438 0.0024-0.009-0.00256-0.02226 0-0.03125-0.013005 0.000712-0.031257 0-0.03125 0zm-0.4062 0.812c-0.0095 0.031-0.023 0.063-0.0312 0.094-0.0498 0.186-0.0338 0.292-0.0313 0.406-0.0001 0 0.0626-0.094 0.0625-0.093-0.0000622 0.000093 0.12506-0.12504 0.125-0.125-0.0000501 0.000036 0.15106-0.07015 0.21875-0.09375-0.023995-0.0054-0.04687 0.0046-0.0625 0l-0.25-0.0625-0.0312-0.125z"/>
  <g id="g4046" transform="translate(0,1.5)">
   <path id="rect3940" d="m18 41v3h0.5c0.831 0 1.5-0.669 1.5-1.5s-0.669-1.5-1.5-1.5h-0.5z" style="opacity:.2;fill:url(#radialGradient4051)"/>
   <path id="rect3942" d="m4.4062 41c-0.779 0-1.4062 0.627-1.4062 1.406v0.1875c0 0.779 0.6272 1.406 1.4062 1.406h0.5938v-3h-0.5938z" style="opacity:.2;fill:url(#radialGradient4053)"/>
   <path id="rect3938" d="m5 41h13v3h-13z" style="opacity:.2;fill:url(#linearGradient4125)"/>
  </g>
 </g>
</svg>
