<?xml version="1.0" encoding="UTF-8" standalone="no"?>
<!-- Created with Inkscape (http://www.inkscape.org/) -->
<svg id="svg3495" xmlns:rdf="http://www.w3.org/1999/02/22-rdf-syntax-ns#" xmlns="http://www.w3.org/2000/svg" height="24" width="24" version="1.1" xmlns:cc="http://creativecommons.org/ns#" xmlns:xlink="http://www.w3.org/1999/xlink" xmlns:dc="http://purl.org/dc/elements/1.1/">
 <defs id="defs3497">
  <linearGradient id="linearGradient3809" gradientUnits="userSpaceOnUse" x2="10" gradientTransform="translate(1,25)" y1="22" x1="10">
   <stop id="stop3823" style="stop-color:#555" offset="0"/>
   <stop id="stop3825" style="stop-color:#666" offset="1"/>
  </linearGradient>
 </defs>
 <metadata id="metadata3500">
  <rdf:RDF>
   <cc:Work rdf:about="">
    <dc:format>image/svg+xml</dc:format>
    <dc:type rdf:resource="http://purl.org/dc/dcmitype/StillImage"/>
    <dc:title/>
   </cc:Work>
  </rdf:RDF>
 </metadata>
 <g id="layer1" transform="translate(0,-24)">
  <path id="path3014" style="block-progression:tb;text-indent:0;color:#000000;text-transform:none;fill:url(#linearGradient3809)" d="m3.2812 37 0.375 0.375 8 8l0.344 0.344 0.34375-0.34375 8-8 0.375-0.375-0.375-0.34375-1.375-1.375-0.34375-0.375-0.375 0.375-4.7188 4.75v-12-0.5h-0.5-2-0.5v0.5 12.031l-4.781-4.78-0.375-0.375-0.34375 0.375-1.375 1.375-0.375 0.34375z"/>
  <path id="path3821" style="opacity:0.61;block-progression:tb;text-indent:0;color:#000000;stroke:#000;text-transform:none;fill:none" d="m3.2812 37 0.375 0.375 8 8l0.344 0.344 0.34375-0.34375 8-8 0.375-0.375-0.375-0.34375-1.375-1.375-0.34375-0.375-0.375 0.375-4.7188 4.75v-12-0.5h-0.5-2-0.5v0.5 12.031l-4.781-4.78-0.375-0.375-0.34375 0.375-1.375 1.375-0.375 0.34375z"/>
  <path id="path3940" style="opacity:.2;block-progression:tb;text-indent:0;color:#000000;text-transform:none;fill:#fff" d="m11.031 28.031v1h2v-1h-2zm-5.656 7.594-1.375 1.375v0.031l0.5 0.469 0.875-0.875h0.03125l4.7812 4.7812 0.84375 0.875v-1l-0.84375-0.875-4.7812-4.7812h-0.03125zm13.219 0-4.7188 4.75-0.84375 0.875v1l0.84375-0.875 4.7188-4.75h0.03125l0.875 0.875 0.5-0.469v-0.031l-1.375-1.375h-0.03125z"/>
 </g>
</svg>
