<?xml version="1.0" encoding="UTF-8" standalone="no"?>
<!-- Created with Inkscape (http://www.inkscape.org/) -->
<svg id="svg3495" xmlns:rdf="http://www.w3.org/1999/02/22-rdf-syntax-ns#" xmlns="http://www.w3.org/2000/svg" height="24" width="24" version="1.1" xmlns:cc="http://creativecommons.org/ns#" xmlns:xlink="http://www.w3.org/1999/xlink" xmlns:dc="http://purl.org/dc/elements/1.1/">
 <defs id="defs3497">
  <linearGradient id="linearGradient3873" y2="25.115" gradientUnits="userSpaceOnUse" x2="10.639" gradientTransform="matrix(0 -.75568 .75568 0 4.021 33.04)" y1="25.115" x1="-18.474">
   <stop id="stop3823" style="stop-color:#555" offset="0"/>
   <stop id="stop3825" style="stop-color:#666" offset="1"/>
  </linearGradient>
 </defs>
 <metadata id="metadata3500">
  <rdf:RDF>
   <cc:Work rdf:about="">
    <dc:format>image/svg+xml</dc:format>
    <dc:type rdf:resource="http://purl.org/dc/dcmitype/StillImage"/>
    <dc:title/>
   </cc:Work>
  </rdf:RDF>
 </metadata>
 <g id="layer1" transform="translate(0,-24)">
  <path id="path4769" style="fill:url(#linearGradient3873)" d="m1.5 36c0 1.3748 1.1252 2.5 2.5 2.5s2.5-1.1252 2.5-2.5-1.1252-2.5-2.5-2.5-2.5 1.1252-2.5 2.5zm5.7812 0 0.375 0.34375 7 7 0.34375 0.375 0.34375-0.375 1.375-1.375 0.375-0.34375-0.375-0.34375l-3.781-3.812 9.062 0.031h0.5v-0.5-2-0.5h-0.5l-9.0625-0.03125 3.7812-3.75 0.375-0.34375-0.375-0.34375-1.375-1.375-0.34375-0.375-0.34375 0.375-7 7-0.3748 0.344z"/>
  <path id="path3857" style="opacity:0.61;stroke:#000;fill:none" d="m1.5 36c0 1.3748 1.1252 2.5 2.5 2.5s2.5-1.1252 2.5-2.5-1.1252-2.5-2.5-2.5-2.5 1.1252-2.5 2.5zm5.7812 0 0.375 0.34375 7 7 0.34375 0.375 0.34375-0.375 1.375-1.375 0.375-0.34375-0.375-0.34375l-3.781-3.812 9.062 0.031h0.5v-0.5-2-0.5h-0.5l-9.0625-0.03125 3.7812-3.75 0.375-0.34375-0.375-0.34375-1.375-1.375-0.34375-0.375-0.34375 0.375-7 7-0.3748 0.344z"/>
  <path id="path3924" style="opacity:.2;fill:#fff" d="m15.031 29 1.3438 1.3438v0.03125l-0.5 0.46875-0.844-0.844h-0.031-0.03125l-6.5 6.5-0.4688-0.469v-0.031-0.031l6.969-6.969h0.031 0.031zm-11.031 5c1.102 0 2 0.89803 2 2 0 0.17218-0.021299 0.34042-0.0625 0.5-0.2225-0.862-1.0077-1.5-1.9375-1.5s-1.715 0.638-1.9375 1.5c-0.0412-0.16-0.0625-0.328-0.0625-0.5 0-1.102 0.898-2 2-2zm8.938 0.969 9.062 0.031v1l-9.0625-0.03125h-1.2188l0.875-0.84375 0.15625-0.15625h0.1875zm-0.1875 3 3.625 3.625v0.03125 0.03125l-0.46875 0.46875-3.3125-3.3125-0.875-0.84375h1.0312z"/>
 </g>
</svg>
