<?xml version="1.0" encoding="UTF-8" standalone="no"?>
<!-- Created with Inkscape (http://www.inkscape.org/) -->
<svg id="svg3495" xmlns:rdf="http://www.w3.org/1999/02/22-rdf-syntax-ns#" xmlns="http://www.w3.org/2000/svg" height="24" width="24" version="1.1" xmlns:cc="http://creativecommons.org/ns#" xmlns:xlink="http://www.w3.org/1999/xlink" xmlns:dc="http://purl.org/dc/elements/1.1/">
 <defs id="defs3497">
  <linearGradient id="linearGradient3793" y2="-2" gradientUnits="userSpaceOnUse" x2="12" gradientTransform="translate(1,25)" y1="22" x1="12">
   <stop id="stop3823" style="stop-color:#555" offset="0"/>
   <stop id="stop3825" style="stop-color:#666" offset="1"/>
  </linearGradient>
 </defs>
 <metadata id="metadata3500">
  <rdf:RDF>
   <cc:Work rdf:about="">
    <dc:format>image/svg+xml</dc:format>
    <dc:type rdf:resource="http://purl.org/dc/dcmitype/StillImage"/>
    <dc:title/>
   </cc:Work>
  </rdf:RDF>
 </metadata>
 <g id="layer1" transform="translate(0,-24)">
  <path id="path2987" style="block-progression:tb;text-indent:0;color:#bebebe;text-transform:none;fill:url(#linearGradient3793)" d="m2.5282 37.547 0.4375 0.75 3.5938 6.0312 0.4375 0.71875 0.4375-0.71875 3.625-6.0312 0.4375-0.75h-0.875-2.125v-4.5c0-2.5152 1.9848-4.5 4.5-4.5s4.5 1.9848 4.5 4.5v7 0.5h0.5 2 0.5v-0.5-7c0-4.1286-3.3714-7.5-7.5-7.5s-7.5 3.3714-7.5 7.5v4.5h-2.0938-0.875z"/>
  <path id="path3764" style="opacity:0.61;block-progression:tb;text-indent:0;color:#bebebe;stroke:#000;text-transform:none;fill:none" d="m2.5282 37.547 0.4375 0.75 3.5938 6.0312 0.4375 0.71875 0.4375-0.71875 3.625-6.0312 0.4375-0.75h-0.875-2.125v-4.5c0-2.5152 1.9848-4.5 4.5-4.5s4.5 1.9848 4.5 4.5v7 0.5h0.5 2 0.5v-0.5-7c0-4.1286-3.3714-7.5-7.5-7.5s-7.5 3.3714-7.5 7.5v4.5h-2.0938-0.875z"/>
  <path id="path2994" style="opacity:.2;block-progression:tb;text-indent:0;color:#bebebe;text-transform:none;fill:#fff" d="m13 26.062c-3.8564 0-7 3.1436-7 7v1c0-3.8564 3.1436-7 7-7s7 3.1436 7 7v-1c0-3.8564-3.1436-7-7-7zm-9.5625 12 0.59375 1h1.4688 0.5v-0.5-0.5h-0.5-2.0625zm4.5625 0v0.5 0.5h0.5 1.5l0.59375-1h-2.0938-0.5z"/>
 </g>
</svg>
