<?xml version="1.0" encoding="UTF-8" standalone="no"?>
<!-- Created with Inkscape (http://www.inkscape.org/) -->
<svg id="svg3495" xmlns:rdf="http://www.w3.org/1999/02/22-rdf-syntax-ns#" xmlns="http://www.w3.org/2000/svg" height="24" width="24" version="1.1" xmlns:cc="http://creativecommons.org/ns#" xmlns:xlink="http://www.w3.org/1999/xlink" xmlns:dc="http://purl.org/dc/elements/1.1/">
 <defs id="defs3497">
  <linearGradient id="linearGradient3809" gradientUnits="userSpaceOnUse" x2="10" gradientTransform="translate(1,25)" y1="22" x1="10">
   <stop id="stop3823" style="stop-color:#555" offset="0"/>
   <stop id="stop3825" style="stop-color:#666" offset="1"/>
  </linearGradient>
 </defs>
 <metadata id="metadata3500">
  <rdf:RDF>
   <cc:Work rdf:about="">
    <dc:format>image/svg+xml</dc:format>
    <dc:type rdf:resource="http://purl.org/dc/dcmitype/StillImage"/>
    <dc:title/>
   </cc:Work>
  </rdf:RDF>
 </metadata>
 <g id="layer1" transform="translate(0,-24)">
  <g id="g4629" transform="matrix(.5 0 0 -.5 -.55690 48.021)">
   <g id="g4767" transform="matrix(1.5114 0 0 -1.5114 23.009 40)">
    <path id="path4769" d="m0.052933-0.027812 1.833 1.834-7.456 7.457h17.522l-0.000274 2.6466h-17.522l7.4563 7.4024-1.833 1.833-10.587-10.586z" style="fill:#555"/>
    <path id="path3784" style="fill:#555" d="m0.052933-0.027812 1.833 1.834-7.456 7.457h17.522l-0.000274 2.6466h-17.522l7.4563 7.4024-1.833 1.833-10.587-10.586z"/>
   </g>
  </g>
  <path id="path3014" style="block-progression:tb;text-indent:0;color:#000000;text-transform:none;fill:url(#linearGradient3809)" d="m11 27.281-0.375 0.375-8 8l-0.3438 0.344 0.3438 0.344 8 8 0.375 0.375 0.34375-0.375 1.375-1.375 0.375-0.34375-0.375-0.375-4.75-4.7188h12 0.5v-0.5-2-0.5h-0.5-12.031l4.7812-4.7812 0.375-0.375-0.375-0.34375-1.375-1.375-0.344-0.375z"/>
  <g id="g3794" style="fill:#fff" transform="matrix(.5 0 0 -.5 -.55690 48.021)">
   <g id="g3796" style="fill:#fff" transform="matrix(1.5114 0 0 -1.5114 23.009 40)">
    <path id="path3798" style="opacity:.2;fill:#fff" d="m10 3-8 8 0.5 0.5 7.5-7.5l0.875 0.875 0.5-0.5-1.375-1.375zm-3.25 7.0312-1 1h13.219v-1h-12.219zm-1 3 5.125 5.0938 0.5-0.5-4.625-4.5938h-1z" transform="matrix(1.3233 0 0 1.3233 -13.163 -3.9977)"/>
   </g>
  </g>
  <path id="path3821" style="opacity:0.61;block-progression:tb;text-indent:0;color:#000000;stroke:#000;text-transform:none;fill:none" d="m11 27.281-0.375 0.375-8 8l-0.3438 0.344 0.3438 0.344 8 8 0.375 0.375 0.34375-0.375 1.375-1.375 0.375-0.34375-0.375-0.375-4.75-4.7188h12 0.5v-0.5-2-0.5h-0.5-12.031l4.7812-4.7812 0.375-0.375-0.375-0.34375-1.375-1.375-0.344-0.375z"/>
 </g>
</svg>
