<?xml version="1.0" encoding="UTF-8" standalone="no"?>
<!-- Created with Inkscape (http://www.inkscape.org/) -->
<svg id="svg3495" xmlns:rdf="http://www.w3.org/1999/02/22-rdf-syntax-ns#" xmlns="http://www.w3.org/2000/svg" height="24" width="24" version="1.1" xmlns:cc="http://creativecommons.org/ns#" xmlns:xlink="http://www.w3.org/1999/xlink" xmlns:dc="http://purl.org/dc/elements/1.1/">
 <defs id="defs3497">
  <linearGradient id="linearGradient3854" y2="22.468" gradientUnits="userSpaceOnUse" x2="-18.474" gradientTransform="matrix(0 .75568 .75568 0 4.021 38.96)" y1="22.468" x1="10.639">
   <stop id="stop3823" style="stop-color:#555" offset="0"/>
   <stop id="stop3825" style="stop-color:#666" offset="1"/>
  </linearGradient>
 </defs>
 <metadata id="metadata3500">
  <rdf:RDF>
   <cc:Work rdf:about="">
    <dc:format>image/svg+xml</dc:format>
    <dc:type rdf:resource="http://purl.org/dc/dcmitype/StillImage"/>
    <dc:title/>
   </cc:Work>
  </rdf:RDF>
 </metadata>
 <g id="layer1" transform="translate(0,-24)">
  <path id="path4769" style="fill:url(#linearGradient3854)" d="m12 25.5c-1.3748 0-2.5 1.1252-2.5 2.5s1.1252 2.5 2.5 2.5 2.5-1.1252 2.5-2.5-1.1252-2.5-2.5-2.5zm0 5.7812-0.34375 0.375-7 7-0.375 0.34375 0.375 0.34375 1.375 1.375 0.34375 0.375 0.34375-0.375 3.8125-3.7812l-0.031 9.062v0.5h0.5 2 0.5v-0.5l0.03125-9.0625 3.75 3.7812 0.34375 0.375 0.34375-0.375 1.375-1.375 0.375-0.34375-0.375-0.34375-7-7-0.344-0.375z"/>
  <path id="path3857" style="opacity:0.61;stroke:#000;fill:none" d="m12 25.5c-1.3748 0-2.5 1.1252-2.5 2.5s1.1252 2.5 2.5 2.5 2.5-1.1252 2.5-2.5-1.1252-2.5-2.5-2.5zm0 5.7812-0.34375 0.375-7 7-0.375 0.34375 0.375 0.34375 1.375 1.375 0.34375 0.375 0.34375-0.375 3.8125-3.7812l-0.031 9.062v0.5h0.5 2 0.5v-0.5l0.03125-9.0625 3.75 3.7812 0.34375 0.375 0.34375-0.375 1.375-1.375 0.375-0.34375-0.375-0.34375-7-7-0.344-0.375z"/>
  <path id="path3859" style="opacity:.2;fill:#fff" d="m12 26c-1.102 0-2 0.89803-2 2 0 0.17218 0.0213 0.34042 0.0625 0.5 0.223-0.862 1.008-1.5 1.938-1.5 0.92979 0 1.715 0.63828 1.9375 1.5 0.041-0.16 0.062-0.328 0.062-0.5 0-1.102-0.898-2-2-2zm-0.031 6-6.969 6.969v0.031 0.031l0.4688 0.469 6.5002-6.5h0.031 0.03125l6.5 6.5 0.469-0.469v-0.031-0.031l-6.969-6.969h-0.031-0.031z"/>
 </g>
</svg>
