<?xml version="1.0" encoding="UTF-8" standalone="no"?>
<!-- Created with Inkscape (http://www.inkscape.org/) -->
<svg id="svg3495" xmlns:rdf="http://www.w3.org/1999/02/22-rdf-syntax-ns#" xmlns="http://www.w3.org/2000/svg" height="24" width="24" version="1.1" xmlns:cc="http://creativecommons.org/ns#" xmlns:xlink="http://www.w3.org/1999/xlink" xmlns:dc="http://purl.org/dc/elements/1.1/">
 <defs id="defs3497">
  <linearGradient id="linearGradient3802" y2="22" gradientUnits="userSpaceOnUse" x2="11" gradientTransform="matrix(1,0,0,-1,1,47)" x1="11">
   <stop id="stop3864-8-6-3" style="stop-color:#1c6aba" offset="0"/>
   <stop id="stop3866-9-1-7" style="stop-color:#4195ec" offset="1"/>
  </linearGradient>
  <linearGradient id="linearGradient3839" y2="11" gradientUnits="userSpaceOnUse" x2="21" gradientTransform="matrix(0,-1,1,0,1,47)" y1="11" x1="1">
   <stop id="stop3906" style="stop-color:#234683" offset="0"/>
   <stop id="stop3908" style="stop-color:#30589e" offset="1"/>
  </linearGradient>
  <radialGradient id="radialGradient3993" xlink:href="#linearGradient3949" gradientUnits="userSpaceOnUse" cy="20" cx="11" gradientTransform="matrix(1 0 0 .22222 0 15.556)" r="9"/>
  <linearGradient id="linearGradient3949">
   <stop id="stop3951" offset="0"/>
   <stop id="stop3953" style="stop-opacity:0" offset="1"/>
  </linearGradient>
 </defs>
 <metadata id="metadata3500">
  <rdf:RDF>
   <cc:Work rdf:about="">
    <dc:format>image/svg+xml</dc:format>
    <dc:type rdf:resource="http://purl.org/dc/dcmitype/StillImage"/>
    <dc:title/>
   </cc:Work>
  </rdf:RDF>
 </metadata>
 <g id="layer1" transform="translate(0,-24)">
  <g id="g4507" transform="translate(1,-1)">
   <path id="path3163" style="opacity:.4;fill:url(#radialGradient3993)" d="m20 20c0 1.1046-4.0294 2-9 2s-9-0.89543-9-2 4.0294-2 9-2 9 0.89543 9 2z" transform="matrix(1,0,0,1.5,0,15)"/>
   <path id="path3995" style="opacity:.8;fill:url(#radialGradient3993)" d="m20 20c0 1.1046-4.0294 2-9 2s-9-0.89543-9-2 4.0294-2 9-2 9 0.89543 9 2z" transform="matrix(.66667 0 0 1 3.6667 26)"/>
  </g>
  <path id="path4791" style="fill:url(#linearGradient3802);fill-rule:evenodd" d="m12 45.5c-5.2408 0-9.5-4.2592-9.5-9.5s4.2592-9.5 9.5-9.5 9.5 4.2592 9.5 9.5-4.2592 9.5-9.5 9.5z"/>
  <path id="path3804" style="opacity:0.81;stroke:url(#linearGradient3839);fill:none" d="m2.5 36c0 5.2408 4.2592 9.5 9.5 9.5s9.5-4.2592 9.5-9.5-4.2592-9.5-9.5-9.5-9.5 4.2592-9.5 9.5z"/>
  <path id="path3806" style="opacity:.2;fill:#fff;fill-rule:evenodd" d="m12 27c-4.9699 0-9 4.0301-9 9 0 0.17154 0.021774 0.33083 0.03125 0.5 0.2651-4.732 4.1705-8.5 8.9688-8.5s8.7037 3.7678 8.9688 8.5c0.009-0.169 0.031-0.328 0.031-0.5 0-4.97-4.03-9-9-9z"/>
  <path id="path3820" style="opacity:.2;fill-rule:evenodd" d="m12 46c-4.9699 0-9-4.03-9-9 0-0.172 0.0218-0.331 0.0312-0.5 0.2651 4.732 4.1705 8.5 8.9688 8.5 4.798 0 8.704-3.768 8.969-8.5 0.009 0.169 0.031 0.328 0.031 0.5 0 4.9699-4.0301 9-9 9z"/>
 </g>
 <g id="layer2" transform="translate(0,2)">
  <path id="path3915" style="opacity:.3;enable-background:new" d="m10.47 13.649c0-0.24907 0.03574-0.45952 0.10724-0.63191 0.07149-0.17181 0.17066-0.31077 0.29808-0.41685 0.12684-0.10609 0.27675-0.18277 0.44914-0.23062 0.17181-0.04728 0.35574-0.0715 0.55177-0.0715 0.18566 0 0.36208 0.02421 0.52871 0.0715 0.16663 0.04785 0.31365 0.12453 0.44107 0.23062 0.12684 0.10608 0.22717 0.24504 0.30154 0.41685 0.07437 0.17239 0.11127 0.38284 0.11127 0.63191 0 0.2387-0.0369 0.4428-0.11127 0.61231-0.07437 0.16893-0.1747 0.31019-0.30154 0.42147-0.12742 0.1107-0.27444 0.19142-0.44107 0.24216-0.167 0.05-0.343 0.075-0.529 0.075-0.196 0-0.38-0.025-0.552-0.076-0.172-0.05-0.322-0.131-0.449-0.242s-0.226-0.252-0.298-0.421c-0.071-0.17-0.107-0.374-0.107-0.612m0.26233-2.7179v-0.58752c0-0.27041 0.02769-0.51545 0.0836-0.73512 0.05535-0.22025 0.1401-0.42896 0.25427-0.62788 0.11358-0.19834 0.26061-0.39206 0.44049-0.58002 0.18047-0.18796 0.39783-0.38284 0.6521-0.58406 0.22255-0.1747 0.41051-0.33095 0.56388-0.46932 0.15395-0.13722 0.2779-0.27386 0.37362-0.40936 0.09513-0.13491 0.16432-0.27617 0.20641-0.42435 0.04264-0.14875 0.06399-0.32115 0.06399-0.5166 0-0.30212-0.10263-0.55177-0.30615-0.74723-0.2041-0.19603-0.51545-0.29404-0.93403-0.29404-0.36497 0-0.75876 0.07668-1.1802 0.23005-0.42031 0.15394-0.85677 0.3419-1.3071 0.56445l-0.8099-1.756c0.22716-0.13261 0.47509-0.2583 0.74262-0.37707 0.2681-0.11935 0.546-0.22544 0.83428-0.31826 0.28886-0.09225 0.58176-0.16548 0.8781-0.21852 0.29694-0.05304 0.5881-0.079564 0.87466-0.079564 0.54024 0 1.0274 0.065151 1.4616 0.19488 0.43473 0.12973 0.80316 0.31884 1.1047 0.56792 0.30269 0.24907 0.53389 0.55177 0.69533 0.90636 0.16201 0.35516 0.24273 0.75991 0.24273 1.2154 0 0.33383-0.03748 0.63191-0.11127 0.89425-0.0738 0.26234-0.1845 0.50622-0.32922 0.73108-0.14645 0.22543-0.32922 0.4428-0.54889 0.65151-0.21967 0.20929-0.47567 0.43069-0.76683 0.66362-0.22255 0.1747-0.40417 0.32748-0.54485 0.45721-0.1401 0.12973-0.25023 0.25311-0.32922 0.369-0.07957 0.11704-0.13377 0.23755-0.16317 0.36208-0.02884 0.12396-0.04382 0.27098-0.04382 0.4405v0.47682h-2.0975z"/>
  <path id="path4055" d="m10.47 14.649c0-0.24907 0.03574-0.45952 0.10724-0.63191 0.07149-0.17181 0.17066-0.31077 0.29808-0.41685 0.12684-0.10609 0.27675-0.18277 0.44914-0.23062 0.17181-0.04728 0.35574-0.0715 0.55177-0.0715 0.18566 0 0.36208 0.02421 0.52871 0.0715 0.16663 0.04785 0.31365 0.12453 0.44107 0.23062 0.12684 0.10608 0.22717 0.24504 0.30154 0.41685 0.07437 0.17239 0.11127 0.38284 0.11127 0.63191 0 0.2387-0.0369 0.4428-0.11127 0.61231-0.07437 0.16893-0.1747 0.31019-0.30154 0.42147-0.12742 0.1107-0.27444 0.19142-0.44107 0.24216-0.167 0.05-0.343 0.075-0.529 0.075-0.196 0-0.38-0.025-0.552-0.076-0.172-0.05-0.322-0.131-0.449-0.242s-0.226-0.252-0.298-0.421c-0.071-0.17-0.107-0.374-0.107-0.612m0.26233-2.7179v-0.58752c0-0.27041 0.02769-0.51545 0.0836-0.73512 0.05535-0.22025 0.1401-0.42896 0.25427-0.62788 0.11358-0.19834 0.26061-0.39206 0.44049-0.58002 0.18047-0.18796 0.39783-0.38284 0.6521-0.58406 0.22255-0.1747 0.41051-0.33095 0.56388-0.46932 0.15395-0.13722 0.2779-0.27386 0.37362-0.40936 0.09513-0.13491 0.16432-0.27617 0.20641-0.42435 0.04264-0.14875 0.06399-0.32115 0.06399-0.5166 0-0.30212-0.10263-0.55177-0.30615-0.74723-0.2041-0.19603-0.51545-0.29404-0.93403-0.29404-0.36497 0-0.75876 0.07668-1.1802 0.23005-0.42031 0.15394-0.85677 0.3419-1.3071 0.56445l-0.8099-1.756c0.22716-0.13261 0.47509-0.2583 0.74262-0.37707 0.2681-0.11935 0.546-0.22544 0.83428-0.31826 0.28886-0.09225 0.58176-0.16548 0.8781-0.21852 0.29694-0.05304 0.5881-0.079564 0.87466-0.079564 0.54024 0 1.0274 0.065151 1.4616 0.19488 0.43473 0.12973 0.80316 0.31884 1.1047 0.56792 0.30269 0.24907 0.53389 0.55177 0.69533 0.90636 0.16201 0.35516 0.24273 0.75991 0.24273 1.2154 0 0.33383-0.03748 0.63191-0.11127 0.89425-0.0738 0.26234-0.1845 0.50622-0.32922 0.73108-0.14645 0.22543-0.32922 0.4428-0.54889 0.65151-0.21967 0.20929-0.47567 0.43069-0.76683 0.66362-0.22255 0.1747-0.40417 0.32748-0.54485 0.45721-0.1401 0.12973-0.25023 0.25311-0.32922 0.369-0.07957 0.11704-0.13377 0.23755-0.16317 0.36208-0.02884 0.12396-0.04382 0.27098-0.04382 0.4405v0.47682h-2.0975z" style="enable-background:new;fill:#fff"/>
 </g>
</svg>
