<?xml version="1.0" encoding="UTF-8" standalone="no"?>
<!-- Created with Inkscape (http://www.inkscape.org/) -->
<svg id="svg3495" xmlns:rdf="http://www.w3.org/1999/02/22-rdf-syntax-ns#" xmlns="http://www.w3.org/2000/svg" height="24" width="24" version="1.1" xmlns:cc="http://creativecommons.org/ns#" xmlns:xlink="http://www.w3.org/1999/xlink" xmlns:dc="http://purl.org/dc/elements/1.1/">
 <defs id="defs3497">
  <linearGradient id="linearGradient3802" y2="22" gradientUnits="userSpaceOnUse" x2="11" gradientTransform="matrix(1,0,0,-1,1,47)" x1="11">
   <stop id="stop3864-8-6-3" style="stop-color:#414141" offset="0"/>
   <stop id="stop3866-9-1-7" style="stop-color:#9d9d9d" offset="1"/>
  </linearGradient>
  <radialGradient id="radialGradient3787" gradientUnits="userSpaceOnUse" cy="12" cx="12" r="3">
   <stop id="stop3781" style="stop-color:#f6b8b9" offset="0"/>
   <stop id="stop3878" style="stop-color:#d9262a" offset=".84110"/>
   <stop id="stop3783" style="stop-color:#800002" offset="1"/>
  </radialGradient>
  <radialGradient id="radialGradient3993" xlink:href="#linearGradient3949" gradientUnits="userSpaceOnUse" cy="20" cx="11" gradientTransform="matrix(1 0 0 .22222 0 15.556)" r="9"/>
  <linearGradient id="linearGradient3949">
   <stop id="stop3951" offset="0"/>
   <stop id="stop3953" style="stop-opacity:0" offset="1"/>
  </linearGradient>
 </defs>
 <metadata id="metadata3500">
  <rdf:RDF>
   <cc:Work rdf:about="">
    <dc:format>image/svg+xml</dc:format>
    <dc:type rdf:resource="http://purl.org/dc/dcmitype/StillImage"/>
    <dc:title/>
   </cc:Work>
  </rdf:RDF>
 </metadata>
 <g id="layer1" transform="translate(0,-24)">
  <g id="g4507" transform="translate(1,-1)">
   <path id="path3163" style="opacity:.4;fill:url(#radialGradient3993)" d="m20 20c0 1.1046-4.0294 2-9 2s-9-0.89543-9-2 4.0294-2 9-2 9 0.89543 9 2z" transform="matrix(1,0,0,1.5,0,15)"/>
   <path id="path3995" style="opacity:.8;fill:url(#radialGradient3993)" d="m20 20c0 1.1046-4.0294 2-9 2s-9-0.89543-9-2 4.0294-2 9-2 9 0.89543 9 2z" transform="matrix(.66667 0 0 1 3.6667 26)"/>
  </g>
  <path id="path4791" style="fill:url(#linearGradient3802);fill-rule:evenodd" d="m12 45.5c-5.2408 0-9.5-4.2592-9.5-9.5s4.2592-9.5 9.5-9.5 9.5 4.2592 9.5 9.5-4.2592 9.5-9.5 9.5z"/>
  <path id="path3804" style="opacity:.61;stroke:#000;fill:none" d="m2.5 36c0 5.2408 4.2592 9.5 9.5 9.5s9.5-4.2592 9.5-9.5-4.2592-9.5-9.5-9.5-9.5 4.2592-9.5 9.5z"/>
  <path id="path3022" style="opacity:.4;fill:#fff;fill-rule:evenodd" d="m12 27c-4.9699 0-9 4.0301-9 9 0 0.17154 0.021774 0.33083 0.03125 0.5 0.2651-4.732 4.1705-8.5 8.9688-8.5s8.7037 3.7678 8.9688 8.5c0.009-0.169 0.031-0.328 0.031-0.5 0-4.97-4.03-9-9-9z"/>
 </g>
 <g id="layer2" transform="translate(0,2)">
  <path id="path3777" style="opacity:.8;fill:url(#radialGradient3787)" d="m15 12c0 1.6569-1.3431 3-3 3s-3-1.3431-3-3 1.3431-3 3-3 3 1.3431 3 3z" transform="matrix(1.5,0,0,1.5,-6,-8)"/>
  <path id="path3795" style="opacity:.4;stroke:#860200;stroke-width:.66667;fill:none" d="m15 12c0 1.6569-1.3431 3-3 3s-3-1.3431-3-3 1.3431-3 3-3 3 1.3431 3 3z" transform="matrix(1.5,0,0,1.5,-6,-8)"/>
  <path id="path3793" style="opacity:.3" d="m11.531 3.0625-0.125 2.6875 0.656-0.0938-0.531-2.5937zm2.844 0.7187-1.156 1.875 0.687 0.2188 0.469-2.0938zm-5.8125 0.9376 0.7813 1.875 0.7812-0.4688-1.5625-1.4062zm9.5312 0.53125-3.1875 1.5938 0.875 1.0938 2.3125-2.6875zm-12.125 2.0938 1.25 0.625 0.15625-0.5-1.4062-0.125zm10.625 1.6875 0.125 0.84375 2.5938-0.75-2.7188-0.09375zm-9.2188 1.3125-2.125 0.5h2.1562l-0.03125-0.5zm9.1875 1.3438-0.15625 0.75 1.875 0.34375l-1.72-1.094zm-8.313 0.687-1.9688 1.969 2.75-1.156-0.7812-0.813zm6.75 1.0625-0.5 0.40625 1.625 1.9375l-1.125-2.344zm-5.25 0.687-0.4688 2.125 1.3438-1.75-0.875-0.375zm3.25 0.063-1.375 0.093 0.906 3.407 0.469-3.5z"/>
  <path id="path3880" style="opacity:.2" d="m9.524 1.3572 0.832 4.9668 1.147-0.4674-1.979-4.4994zm3.7881 0.53664-1.3574 3.8348 1.3071 0.13748 0.05022-3.9722zm-6.6027 2.9051 1.9641 2.7773 1.0908-1.0306-3.0549-1.7467zm11.08-1.6842-3.989 3.18 1.548 1.2685 2.441-4.4485zm-13.541 5.4341 2.8841 0.7927 0.1089-1.1413-2.993 0.3486zm11.686-0.631 0.537 1.3235 4.044-2.1694-4.581 0.8459zm-8.2375 3.0292-4.2113 1.981 4.4934-0.955-0.2821-1.026zm8.8798-0.60954-0.02629 1.3794 3.4988-0.07279-3.4725-1.3066zm-7.8282 2.399-2.3589 3.632 3.8111-2.663-1.4522-0.969zm6.9151-0.38361-0.76108 0.92853 3.6751 2.8609-2.914-3.7894zm-5.2609 1.8531-0.02999 3.6165 1.566-3.304-1.536-0.31247zm3.6635-0.65094-1.9238 0.56866 2.3345 4.5197-0.41065-5.0883z"/>
 </g>
</svg>
