<?xml version="1.0" encoding="UTF-8" standalone="no"?>
<!-- Created with Inkscape (http://www.inkscape.org/) -->
<svg id="svg4708" xmlns:rdf="http://www.w3.org/1999/02/22-rdf-syntax-ns#" xmlns="http://www.w3.org/2000/svg" height="24" width="24" version="1.1" xmlns:cc="http://creativecommons.org/ns#" xmlns:xlink="http://www.w3.org/1999/xlink" xmlns:dc="http://purl.org/dc/elements/1.1/">
 <defs id="defs4710">
  <radialGradient id="radialGradient4643" gradientUnits="userSpaceOnUse" cx="6.7027" cy="73.616" r="7.2284" gradientTransform="matrix(1.6601 0 0 .36315 .87285 1.6414)">
   <stop id="stop10693-1" offset="0"/>
   <stop id="stop10695-4" style="stop-opacity:0" offset="1"/>
  </radialGradient>
  <linearGradient id="linearGradient4428-9-7" y2="44.42" gradientUnits="userSpaceOnUse" y1="10.625" gradientTransform="matrix(.45946 0 0 .45946 .46036 9.1181)" x2="24.1" x1="24.1">
   <stop id="stop4096-1-4-9" style="stop-color:#fff" offset="0"/>
   <stop id="stop4098-7-7-6" style="stop-color:#fff;stop-opacity:.23529" offset=".019667"/>
   <stop id="stop4100-0-5-8" style="stop-color:#fff;stop-opacity:.15686" offset=".99149"/>
   <stop id="stop4102-4-3-5" style="stop-color:#fff;stop-opacity:.39216" offset="1"/>
  </linearGradient>
  <linearGradient id="linearGradient4494" y2="20" gradientUnits="userSpaceOnUse" x2="10" gradientTransform="matrix(-1,0,0,-1,24,32)" y1="2" x1="10">
   <stop id="stop4192-42" style="stop-color:#fad4a1" offset="0"/>
   <stop id="stop4194-6" style="stop-color:#e6b481" offset="1"/>
  </linearGradient>
  <linearGradient id="linearGradient4428-9" y2="38.919" gradientUnits="userSpaceOnUse" y1="6.2724" gradientTransform="matrix(.45946 0 0 .45946 .46036 9.1181)" x2="24.1" x1="24.1">
   <stop id="stop4096-1-4" style="stop-color:#fff" offset="0"/>
   <stop id="stop4098-7-7" style="stop-color:#fff;stop-opacity:.23529" offset=".019667"/>
   <stop id="stop4100-0-5" style="stop-color:#fff;stop-opacity:.15686" offset=".99149"/>
   <stop id="stop4102-4-3" style="stop-color:#fff;stop-opacity:.39216" offset="1"/>
  </linearGradient>
  <linearGradient id="linearGradient4706" y2="20" gradientUnits="userSpaceOnUse" y1="2" gradientTransform="translate(0,8)" x2="10" x1="10">
   <stop id="stop4192" style="stop-color:#fad4a1" offset="0"/>
   <stop id="stop4194" style="stop-color:#e6b481" offset="1"/>
  </linearGradient>
 </defs>
 <metadata id="metadata4713">
  <rdf:RDF>
   <cc:Work rdf:about="">
    <dc:format>image/svg+xml</dc:format>
    <dc:type rdf:resource="http://purl.org/dc/dcmitype/StillImage"/>
    <dc:title/>
   </cc:Work>
  </rdf:RDF>
 </metadata>
 <g id="layer1" transform="translate(0,-8)">
  <path id="rect4169" style="color:#000000;fill:url(#linearGradient4706)" d="m4.5 9.5v15 3h3 15v-3h-15v-15z"/>
  <path id="rect4169-5" style="opacity:.61;color:#000000;stroke:#a1550a;fill:none" d="m4.5 9.5v15 3h3 15v-3h-15v-15z"/>
  <path id="path4537" style="opacity:.5;stroke-linejoin:round;color:#000000;stroke:#fff;fill:none" d="m22 25.5h-15"/>
  <path id="path4357" style="opacity:.5;color:#000000;stroke:url(#linearGradient4428-9);fill:none" d="m7 10.5h-1.5v16.5"/>
  <path id="rect4169-9" style="color:#000000;fill:url(#linearGradient4494)" d="m4 12.5h-2.5v3h2.5m4 0h8.5v15h3v-15-3h-11.5"/>
  <path id="rect4169-5-8" style="opacity:.61;color:#000000;stroke:#a1550a;fill:none" d="m4 12.5h-2.5v3h2.5m4 0h8.5v15h3v-15-3h-3-8.5"/>
  <path id="path10689" d="m24 28.375c0 1.45-5.373 2.625-12 2.625-6.6273 0-12-1.175-12-2.625 0.000135-1.45 5.3727-2.625 12-2.625s12 1.1753 12 2.625z" style="opacity:.2;fill:url(#radialGradient4643)"/>
  <path id="rect4240" style="opacity:.3;color:#000000;fill:#a1550a" d="m6 4v1h2v-1zm0 2v1h2v1h1v-2h-1zm2 2h-2v1h2zm2-2v2h1v-2zm2 0v2h1v-2zm2 0v2h1v-2zm2 3v1h2v-1zm-10 1v1h2v-1zm10 1v1h2v-1zm-10 1v1h2v-1zm10 1v1h2v-1zm-10 1v1h2v-1zm12 2v-1h-2v1m-1 0v2h3v-1h-2v-1zm-6 0v2h1v-2zm2 0v2h1v-2zm2 0v2h1v-2zm3 3v1h2v-1z" transform="translate(0,8)"/>
  <path id="path4357-2" d="m2 13.5h2m4 0h11m-1.465 16.5-0.035-15" style="opacity:.5;stroke-linejoin:round;color:#000000;stroke:url(#linearGradient4428-9-7);fill:none"/>
 </g>
</svg>
