<?xml version="1.0" encoding="UTF-8" standalone="no"?>
<!-- Created with Inkscape (http://www.inkscape.org/) -->
<svg id="svg3828" xmlns:rdf="http://www.w3.org/1999/02/22-rdf-syntax-ns#" xmlns="http://www.w3.org/2000/svg" height="24" width="24" version="1.1" xmlns:cc="http://creativecommons.org/ns#" xmlns:xlink="http://www.w3.org/1999/xlink" xmlns:dc="http://purl.org/dc/elements/1.1/">
 <defs id="defs3830">
  <linearGradient id="linearGradient3003" y2="47.013" gradientUnits="userSpaceOnUse" x2="25.132" gradientTransform="matrix(.48572 0 0 -.45630 .34283 21.651)" y1=".98521" x1="25.132">
   <stop id="stop3990-5" style="stop-color:#ededed" offset="0"/>
   <stop id="stop3992-0" style="stop-color:#fafafa" offset="1"/>
  </linearGradient>
  <linearGradient id="linearGradient3807" y2="22" gradientUnits="userSpaceOnUse" x2="10" gradientTransform="translate(1,-1)" x1="10">
   <stop id="stop3803" style="stop-color:#fff" offset="0"/>
   <stop id="stop3805" style="stop-color:#fff;stop-opacity:0" offset="1"/>
  </linearGradient>
  <linearGradient id="linearGradient3059" y2="42" gradientUnits="userSpaceOnUse" x2="25" gradientTransform="translate(-11,-24.5)" y1="45" x1="25">
   <stop id="stop3962" style="stop-opacity:0" offset="0"/>
   <stop id="stop3970" offset=".5"/>
   <stop id="stop3964" style="stop-opacity:0" offset="1"/>
  </linearGradient>
  <radialGradient id="radialGradient3062" gradientUnits="userSpaceOnUse" cy="43.5" cx="9" gradientTransform="matrix(1 0 0 .75 -7 -13.625)" r="2">
   <stop id="stop3946" offset="0"/>
   <stop id="stop3948" style="stop-opacity:0" offset="1"/>
  </radialGradient>
  <radialGradient id="radialGradient3065" gradientUnits="userSpaceOnUse" cy="43.5" cx="40" gradientTransform="matrix(1 0 0 .75 -20 -13.625)" r="2">
   <stop id="stop3954" offset="0"/>
   <stop id="stop3956" style="stop-opacity:0" offset="1"/>
  </radialGradient>
  <linearGradient id="linearGradient4279" y2="8" gradientUnits="userSpaceOnUse" x2="15.5" gradientTransform="matrix(0,1,-1,0,45.5,7.5)" y1="8" x1=".5">
   <stop id="stop3762" style="stop-color:#e44343" offset="0"/>
   <stop id="stop3764" style="stop-color:#ac0808" offset="1"/>
  </linearGradient>
 </defs>
 <metadata id="metadata3833">
  <rdf:RDF>
   <cc:Work rdf:about="">
    <dc:format>image/svg+xml</dc:format>
    <dc:type rdf:resource="http://purl.org/dc/dcmitype/StillImage"/>
    <dc:title/>
   </cc:Work>
  </rdf:RDF>
 </metadata>
 <g id="layer1" transform="translate(0,2)">
  <g id="g3067" transform="translate(1,-1)">
   <path id="rect3940" d="m20 17.5v3h0.5c0.831 0 1.5-0.669 1.5-1.5s-0.669-1.5-1.5-1.5h-0.5z" style="opacity:.2;fill:url(#radialGradient3065)"/>
   <path id="rect3942" d="m1.4062 17.5c-0.77901 0-1.4062 0.627-1.4062 1.406v0.1875c0 0.779 0.62719 1.406 1.4062 1.406h0.5938v-3h-0.59375z" style="opacity:.2;fill:url(#radialGradient3062)"/>
   <path id="rect3938" d="m2 17.5h18v3h-18z" style="opacity:.2;fill:url(#linearGradient3059)"/>
  </g>
  <path id="path4160-3" style="fill:url(#linearGradient3003)" d="m2.5 2.5c0 3.8956 0.0014 15 0.0014 15l18.999 0.000021v-15h-19z"/>
  <path id="path4160-3-5" style="opacity:0.41;stroke-linejoin:round;stroke:#000;stroke-width:.99992;fill:none" d="m21.5 2.5c0 3.8956-0.0014 15-0.0014 15l-18.999 0.000021v-15h19z"/>
  <path id="path3780" style="opacity:.4;fill:#fff" d="m3 3v1c4.158 0.0000752 17.293-0.0000752 18 0v-1c-0.707-0.0001-13.842 0.0001-18 0z"/>
  <path id="rect3796" style="opacity:.4;fill:url(#linearGradient3807)" d="m3 3v14h18v-14zm1 1h16v12h-16z"/>
  <path id="path3886" style="opacity:.4;block-progression:tb;text-indent:0;color:#000000;text-transform:none" d="m4.6624 5.0458a0.21426 0.21426 0 0 0 -0.02678 0.02678 0.21426 0.21426 0 0 0 -0.053559 0.02678 0.21426 0.21426 0 0 0 -0.02678 0.02678 0.21426 0.21426 0 0 0 -0.02678 0.02678 0.21426 0.21426 0 0 0 -0.02678 0.053559 0.21426 0.21426 0 0 0 0 0.053559 0.21426 0.21426 0 0 0 0 0.053559 0.21426 0.21426 0 0 0 0.053559 0.080339 0.21426 0.21426 0 0 0 0.02678 0.02678l4.9275 4.6597-4.5793 4.499a0.21426 0.21426 0 0 0 -0.02678 0.02679 0.21426 0.21426 0 0 0 -0.02678 0.05356 0.21426 0.21426 0 0 0 0 0.05356 0.21426 0.21426 0 0 0 0 0.05356 0.21426 0.21426 0 0 0 0.02678 0.08034 0.21426 0.21426 0 0 0 0.080339 0.08034 0.21426 0.21426 0 0 0 0.053559 0.02678 0.21426 0.21426 0 0 0 0.053559 0 0.21426 0.21426 0 0 0 0.080339 -0.02678 0.21426 0.21426 0 0 0 0.053559 -0.02678l4.8739-4.3115 1.5264 1.3122 0.24102 0.18746a0.21426 0.21426 0 0 0 0.02678 0.02678 0.21426 0.21426 0 0 0 0.05356 0.02679 0.21426 0.21426 0 0 0 0.05356 0 0.21426 0.21426 0 0 0 0.05356 0 0.21426 0.21426 0 0 0 0.05356 -0.02679 0.21426 0.21426 0 0 0 0.02678 -0.02678l0.24102-0.18746 1.5264-1.3122 4.8739 4.3115a0.21426 0.21426 0 0 0 0.02678 0.02678 0.21426 0.21426 0 0 0 0.05356 0.02678 0.21426 0.21426 0 0 0 0.02678 0 0.21426 0.21426 0 0 0 0.05356 0 0.21426 0.21426 0 0 0 0.05356 -0.02678 0.21426 0.21426 0 0 0 0.05356 -0.02678 0.21426 0.21426 0 0 0 0.05356 -0.05356 0.21426 0.21426 0 0 0 0.02678 -0.10712 0.21426 0.21426 0 0 0 0 -0.05356 0.21426 0.21426 0 0 0 0 -0.02678 0.21426 0.21426 0 0 0 -0.05356 -0.05356 0.21426 0.21426 0 0 0 0 -0.02679l-4.579-4.499 4.927-4.6593a0.21426 0.21426 0 0 0 0.02679 -0.02678 0.21426 0.21426 0 0 0 0.02678 -0.02678 0.21426 0.21426 0 0 0 0.02678 -0.080339 0.21426 0.21426 0 0 0 0 -0.02678 0.21426 0.21426 0 0 0 0 -0.053559 0.21426 0.21426 0 0 0 -0.02678 -0.053559 0.21426 0.21426 0 0 0 -0.02678 -0.02678 0.21426 0.21426 0 0 0 -0.02679 -0.02678 0.21426 0.21426 0 0 0 -0.02678 -0.02678 0.21426 0.21426 0 0 0 -0.08033 -0.02678 0.21426 0.21426 0 0 0 -0.05356 0 0.21426 0.21426 0 0 0 -0.05356 0.02678 0.21426 0.21426 0 0 0 -0.05356 0.02678l-7.15 5.5967-7.1502-5.5967a0.21426 0.21426 0 0 0 -0.02678 -0.02678 0.21426 0.21426 0 0 0 -0.080339 -0.02678 0.21426 0.21426 0 0 0 -0.053559 0 0.21426 0.21426 0 0 0 -0.02678 0z"/>
 </g>
 <g id="layer2" transform="translate(0,2)">
  <g id="g4271" transform="translate(-19,1)">
   <path id="rect2987" d="m35.5 10.5-3 3v4l3 3h4l3-3v-4l-3-3h-4z" style="fill:url(#linearGradient4279)"/>
   <g id="g3839" style="opacity:.3;enable-background:new" transform="matrix(.5 0 0 .5 -127 -112)">
    <path id="path3841" d="m424 146c0 3.3488 0.003 2.3152 0 3h1c-0.005-2-0.009-1 0-3zm0 4v1h1v-1z" transform="matrix(2,0,0,2,-520,-40)"/>
   </g>
   <g id="g3982" style="enable-background:new;fill:#fff" transform="matrix(.5 0 0 .5 -127 -113)">
    <path id="path3984" style="fill:#fff" d="m424 146c0 3.3488 0.003 2.3152 0 3h1c-0.005-2-0.009-1 0-3zm0 4v1h1v-1z" transform="matrix(2,0,0,2,-520,-40)"/>
   </g>
   <path id="path4267" style="opacity:0.81;stroke:#790000;fill:none" d="m35.5 10.5-3 3v4l3 3h4l3-3v-4l-3-3h-4z"/>
  </g>
 </g>
</svg>
