<?xml version="1.0" encoding="UTF-8" standalone="no"?>
<!-- Created with Inkscape (http://www.inkscape.org/) -->
<svg id="svg3495" xmlns:rdf="http://www.w3.org/1999/02/22-rdf-syntax-ns#" xmlns="http://www.w3.org/2000/svg" height="24" width="24" version="1.1" xmlns:cc="http://creativecommons.org/ns#" xmlns:xlink="http://www.w3.org/1999/xlink" xmlns:dc="http://purl.org/dc/elements/1.1/">
 <defs id="defs3497">
  <linearGradient id="linearGradient3871" y2="26" gradientUnits="userSpaceOnUse" x2="12" gradientTransform="matrix(-1,0,0,1,23,-1)" y1="48" x1="12">
   <stop id="stop3867" style="stop-color:#555" offset="0"/>
   <stop id="stop3869" style="stop-color:#666" offset="1"/>
  </linearGradient>
 </defs>
 <metadata id="metadata3500">
  <rdf:RDF>
   <cc:Work rdf:about="">
    <dc:format>image/svg+xml</dc:format>
    <dc:type rdf:resource="http://purl.org/dc/dcmitype/StillImage"/>
    <dc:title/>
   </cc:Work>
  </rdf:RDF>
 </metadata>
 <g id="layer1" transform="translate(0,-24)">
  <path id="path5181" style="fill:url(#linearGradient3871)" d="m13.5 30.156-0.75 0.406-8.25 4.594v-4.156-0.5h-0.5-2-0.5v0.5 10 0.5h0.5 2 0.5v-0.5-4.1562l8.25 4.5938 0.75 0.40625v-0.84375-4.1562l8.25 4.5938 0.75 0.40625v-0.84375-10-0.84375l-0.75 0.40625-8.25 4.5938v-4.1562-0.84375z"/>
  <path id="path3762" style="opacity:0.61;stroke:#000;fill:none" d="m13.5 30.156-0.75 0.406-8.25 4.594v-4.156-0.5h-0.5-2-0.5v0.5 10 0.5h0.5 2 0.5v-0.5-4.1562l8.25 4.5938 0.75 0.40625v-0.84375-4.1562l8.25 4.5938 0.75 0.40625v-0.84375-10-0.84375l-0.75 0.40625-8.25 4.5938v-4.1562-0.84375z"/>
  <path id="path3764" style="opacity:.2;fill:#fff" d="m2 31v1h2v-1h-2zm11 0-8.25 4.594-0.75 0.406 0.75 0.406 0.1562 0.094 8.0938-4.5v-1zm9 0-8.25 4.5938l-0.75 0.406 0.75 0.406 0.156 0.094 8.094-4.5v-1z"/>
 </g>
</svg>
