<?xml version="1.0" encoding="UTF-8" standalone="no"?>
<!-- Created with Inkscape (http://www.inkscape.org/) -->
<svg id="svg3495" xmlns:rdf="http://www.w3.org/1999/02/22-rdf-syntax-ns#" xmlns="http://www.w3.org/2000/svg" height="24" width="24" version="1.1" xmlns:cc="http://creativecommons.org/ns#" xmlns:xlink="http://www.w3.org/1999/xlink" xmlns:dc="http://purl.org/dc/elements/1.1/">
 <defs id="defs3497">
  <linearGradient id="linearGradient3768" gradientUnits="userSpaceOnUse" x2="12" gradientTransform="translate(1,25)" y1="22" x1="12">
   <stop id="stop3764" style="stop-color:#555" offset="0"/>
   <stop id="stop3766" style="stop-color:#666" offset="1"/>
  </linearGradient>
 </defs>
 <metadata id="metadata3500">
  <rdf:RDF>
   <cc:Work rdf:about="">
    <dc:format>image/svg+xml</dc:format>
    <dc:type rdf:resource="http://purl.org/dc/dcmitype/StillImage"/>
    <dc:title/>
   </cc:Work>
  </rdf:RDF>
 </metadata>
 <g id="layer1" transform="translate(0,-24)">
  <path id="path696" style="color:#000000;display:block;fill:url(#linearGradient3768)" d="m12 27.781-0.34375 0.375-7 7-0.15625 0.125v0.21875 0.5 0.5h0.5 14 0.5v-0.5-0.5-0.21875l-0.15625-0.125-7-7zm-7.5 11.719v0.5 3 0.5h0.5 14 0.5v-0.5-3-0.5h-0.5-14z"/>
  <path id="path3770" style="opacity:0.61;color:#000000;stroke:#000;display:block;fill:none" d="m12 27.781-0.34375 0.375-7 7-0.15625 0.125v0.21875 0.5 0.5h0.5 14 0.5v-0.5-0.5-0.21875l-0.15625-0.125-7-7zm-7.5 11.719v0.5 3 0.5h0.5 14 0.5v-0.5-3-0.5h-0.5-14z"/>
  <path id="path3772" style="opacity:.2;color:#000000;display:block;fill:#fff" d="m11.969 28.5-6.969 7v0.031 0.969l6.9688-7h0.03125 0.03125l6.969 7v-0.969-0.031l-6.969-7h-0.031zm-6.969 11.5v1h14v-1z"/>
 </g>
</svg>
