<?xml version="1.0" encoding="UTF-8" standalone="no"?>
<!-- Created with Inkscape (http://www.inkscape.org/) -->
<svg id="svg3495" xmlns:rdf="http://www.w3.org/1999/02/22-rdf-syntax-ns#" xmlns="http://www.w3.org/2000/svg" height="24" width="24" version="1.1" xmlns:cc="http://creativecommons.org/ns#" xmlns:xlink="http://www.w3.org/1999/xlink" xmlns:dc="http://purl.org/dc/elements/1.1/">
 <defs id="defs3497">
  <linearGradient id="linearGradient3261" y2="10" gradientUnits="userSpaceOnUse" x2="0" gradientTransform="translate(1,22)" y1="10" x1="22">
   <stop id="stop3823" style="stop-color:#ccc;stop-opacity:0" offset="0"/>
   <stop id="stop4356" style="stop-color:#ccc" offset=".1"/>
   <stop id="stop4354" style="stop-color:#ccc" offset="0.9"/>
   <stop id="stop3825" style="stop-color:#ccc;stop-opacity:0" offset="1"/>
  </linearGradient>
  <linearGradient id="linearGradient4348" y2="37.5" gradientUnits="userSpaceOnUse" x2="21" gradientTransform="translate(1,-5)" y1="37.5" x1="1">
   <stop id="stop4344" style="stop-opacity:0" offset="0"/>
   <stop id="stop4352" offset=".1"/>
   <stop id="stop4350" offset="0.9"/>
   <stop id="stop4346" style="stop-opacity:0" offset="1"/>
  </linearGradient>
  <linearGradient id="linearGradient4374" y2="37.5" gradientUnits="userSpaceOnUse" x2="13.5" gradientTransform="translate(22,-50)" y1="37.5" x1="7.5">
   <stop id="stop4370" style="stop-color:#a0a0a0" offset="0"/>
   <stop id="stop4372" style="stop-color:#fff" offset="1"/>
  </linearGradient>
  <linearGradient id="linearGradient3902" y2="8" gradientUnits="userSpaceOnUse" x2="12" gradientTransform="matrix(1.49 0 0 1.49 .1525 23.15)" y1="16" x1="12">
   <stop id="stop3906" style="stop-color:#104b88" offset="0"/>
   <stop id="stop3908" style="stop-color:#0e7398" offset="1"/>
  </linearGradient>
  <linearGradient id="linearGradient3040" y2="9" gradientUnits="userSpaceOnUse" y1="15" gradientTransform="matrix(1.49 0 0 1.49 .1525 23.15)" x2="12" x1="12">
   <stop id="stop3888" style="stop-color:#5097e1" offset="0"/>
   <stop id="stop3890" style="stop-color:#53d0ff" offset="1"/>
  </linearGradient>
  <radialGradient id="radialGradient3934" gradientUnits="userSpaceOnUse" cx="11" cy="10.5" r="10" gradientTransform="matrix(1 0 0 .25 0 7.875)">
   <stop id="stop3913" offset="0"/>
   <stop id="stop3915" style="stop-opacity:0" offset="1"/>
  </radialGradient>
 </defs>
 <metadata id="metadata3500">
  <rdf:RDF>
   <cc:Work rdf:about="">
    <dc:format>image/svg+xml</dc:format>
    <dc:type rdf:resource="http://purl.org/dc/dcmitype/StillImage"/>
    <dc:title/>
   </cc:Work>
  </rdf:RDF>
 </metadata>
 <g id="layer1" transform="translate(0,-24)">
  <path id="path3141" style="opacity:.3;fill:url(#radialGradient3934);stroke-width:0" d="m21 10.5c0 1.381-4.477 2.5-10 2.5-5.5228 0-10-1.119-10-2.5 0-1.3807 4.4772-2.5 10-2.5s10 1.1193 10 2.5z" transform="translate(1,24)"/>
  <path id="path3091" style="fill:url(#linearGradient3261)" d="m2.5 31.5v0.5 1 0.5h0.5 18 0.5v-0.5-1-0.5h-0.5-18z"/>
  <path id="path3093" d="m2.5 31.5v0.5 1 0.5h0.5 18 0.5v-0.5-1-0.5h-0.5-18z" style="opacity:0.61;stroke:url(#linearGradient4348);fill:none"/>
  <rect id="rect4358" style="fill:url(#linearGradient4374)" transform="rotate(90)" height="6" width="6" y="-15.5" x="29.5"/>
  <rect id="rect4360" style="opacity:0.41;stroke:#000;fill:none" height="6" width="6" y="29.5" x="9.5"/>
  <path id="rect4366" style="opacity:.4;fill:#fff" d="m10 30v1h1 4v-1h-4z"/>
  <path id="rect3881" style="fill:url(#linearGradient3040)" d="m16.5 36.5v3h-3v3h3v3h3v-3h3v-3h-3v-3z"/>
  <path id="path3894" d="m16.5 36.5v3h-3v3h3v3h3v-3h3v-3h-3v-3z" style="opacity:0.81;stroke:url(#linearGradient3902);fill:none"/>
  <path id="path4487" style="opacity:.4;fill:#fff" d="m17 37v1h2v-1h-2zm-3 3v1h2.5 0.5v-0.5-0.5h-0.5-2.5zm5 0v0.5 0.5h0.5 2.5v-1h-2.5-0.5z"/>
 </g>
</svg>
