<?xml version="1.0" encoding="UTF-8" standalone="no"?>
<!-- Created with Inkscape (http://www.inkscape.org/) -->
<svg id="svg3495" xmlns:rdf="http://www.w3.org/1999/02/22-rdf-syntax-ns#" xmlns="http://www.w3.org/2000/svg" height="24" width="24" version="1.1" xmlns:cc="http://creativecommons.org/ns#" xmlns:xlink="http://www.w3.org/1999/xlink" xmlns:dc="http://purl.org/dc/elements/1.1/">
 <defs id="defs3497">
  <linearGradient id="linearGradient4014">
   <stop id="stop4016" offset="0"/>
   <stop id="stop4018" style="stop-opacity:0" offset="1"/>
  </linearGradient>
  <linearGradient id="linearGradient4368">
   <stop id="stop4370" style="stop-color:#a0a0a0" offset="0"/>
   <stop id="stop4372" style="stop-color:#fff" offset="1"/>
  </linearGradient>
  <linearGradient id="linearGradient4342">
   <stop id="stop4344" style="stop-opacity:0" offset="0"/>
   <stop id="stop4352" offset=".1"/>
   <stop id="stop4350" offset="0.9"/>
   <stop id="stop4346" style="stop-opacity:0" offset="1"/>
  </linearGradient>
  <linearGradient id="linearGradient3821">
   <stop id="stop3823" style="stop-color:#ccc;stop-opacity:0" offset="0"/>
   <stop id="stop4356" style="stop-color:#ccc" offset=".1"/>
   <stop id="stop4354" style="stop-color:#ccc" offset="0.9"/>
   <stop id="stop3825" style="stop-color:#ccc;stop-opacity:0" offset="1"/>
  </linearGradient>
  <linearGradient id="linearGradient3933" gradientUnits="userSpaceOnUse" x2="11" gradientTransform="translate(0,1)" y1="22" x1="11">
   <stop id="stop3929" style="stop-color:#555" offset="0"/>
   <stop id="stop3931" style="stop-color:#666" offset="1"/>
  </linearGradient>
  <radialGradient id="radialGradient4020" xlink:href="#linearGradient4014" gradientUnits="userSpaceOnUse" cy="20" cx="5.5" gradientTransform="matrix(1 0 0 .44444 0 11.111)" r="4.5"/>
  <linearGradient id="linearGradient3240" y2="10" xlink:href="#linearGradient3821" gradientUnits="userSpaceOnUse" x2="0" gradientTransform="translate(0,-5)" y1="10" x1="23"/>
  <linearGradient id="linearGradient3242" y2="37.5" xlink:href="#linearGradient4342" gradientUnits="userSpaceOnUse" x2="22" gradientTransform="translate(0,-32)" y1="37.5" x1="1"/>
  <linearGradient id="linearGradient3244" y2="37.5" xlink:href="#linearGradient4368" gradientUnits="userSpaceOnUse" x2="13.5" gradientTransform="translate(21,-44)" y1="37.5" x1="7.5"/>
  <linearGradient id="linearGradient3246" y2="37.5" xlink:href="#linearGradient4368" gradientUnits="userSpaceOnUse" x2="13.5" gradientTransform="translate(21,-54)" y1="37.5" x1="7.5"/>
  <linearGradient id="linearGradient3248" y2="10" xlink:href="#linearGradient3821" gradientUnits="userSpaceOnUse" x2="0" gradientTransform="translate(0,32)" y1="10" x1="23"/>
  <linearGradient id="linearGradient3250" y2="37.5" xlink:href="#linearGradient4342" gradientUnits="userSpaceOnUse" x2="22" gradientTransform="translate(0,5)" y1="37.5" x1="1"/>
  <linearGradient id="linearGradient3252" y2="37.5" xlink:href="#linearGradient4368" gradientUnits="userSpaceOnUse" x2="13.5" gradientTransform="translate(32,-44)" y1="37.5" x1="7.5"/>
  <linearGradient id="linearGradient3254" y2="37.5" xlink:href="#linearGradient4368" gradientUnits="userSpaceOnUse" x2="13.5" gradientTransform="translate(32,-54)" y1="37.5" x1="7.5"/>
 </defs>
 <metadata id="metadata3500">
  <rdf:RDF>
   <cc:Work rdf:about="">
    <dc:format>image/svg+xml</dc:format>
    <dc:type rdf:resource="http://purl.org/dc/dcmitype/StillImage"/>
    <dc:title/>
   </cc:Work>
  </rdf:RDF>
 </metadata>
 <g id="layer1" transform="translate(0,-24)">
  <path id="path4012" style="opacity:.2;fill:url(#radialGradient4020);stroke-width:0" d="m10 20c0 1.105-2.0147 2-4.5 2s-4.5-0.895-4.5-2 2.0147-2 4.5-2 4.5 0.895 4.5 2z" transform="matrix(1.1111 0 0 1 .88889 26)"/>
  <path id="path4022" style="opacity:.2;stroke-width:0;fill:url(#radialGradient4020)" d="m10 20c0 1.105-2.0147 2-4.5 2s-4.5-0.895-4.5-2 2.0147-2 4.5-2 4.5 0.895 4.5 2z" transform="matrix(1.1111 0 0 1 11.889 26)"/>
  <g id="g3954" transform="translate(1,1)">
   <path id="path3091" style="fill:url(#linearGradient3248)" d="m1.5 41.5v0.5 1 0.5h0.5 19 0.5v-0.5-1-0.5h-0.5-19z"/>
   <path id="path3093" style="opacity:0.61;stroke:url(#linearGradient3250);fill:none" d="m1.5 41.5v0.5 1 0.5h0.5 19 0.5v-0.5-1-0.5h-0.5-19z"/>
   <rect id="rect4358" style="fill:url(#linearGradient3252)" transform="rotate(90)" height="6" width="6" y="-9.5" x="39.5"/>
   <rect id="rect4360" style="opacity:0.41;stroke:#000;fill:none" height="6" width="6" y="39.5" x="3.5"/>
   <path id="rect4366" d="m4 40v1h1 4v-1h-4z" style="opacity:.4;fill:#fff"/>
   <rect id="rect3100" style="fill:url(#linearGradient3254)" transform="rotate(90)" height="6" width="6" y="-19.5" x="39.5"/>
   <rect id="rect3102" style="opacity:0.41;stroke:#000;fill:none" height="6" width="6" y="39.5" x="13.5"/>
   <path id="path3104" style="opacity:.4;fill:#fff" d="m14 40v1h1 4v-1h-4z"/>
  </g>
  <g id="g3121" style="opacity:.5" transform="translate(1,-2)">
   <path id="path3070" style="fill:url(#linearGradient3240)" d="m1.5 4.5v0.5 1 0.5h0.5 5v-2h-5zm14.5 0v2h5 0.5v-0.5-1-0.5h-0.5z" transform="translate(0,26)"/>
   <path id="path3072" style="opacity:0.61;stroke:url(#linearGradient3242);fill:none" d="m1.5 4.5v0.5 1 0.5h0.5 5v-2h-5zm14.5 0v2h5 0.5v-0.5-1-0.5h-0.5z" transform="translate(0,26)"/>
   <rect id="rect3074" style="fill:url(#linearGradient3244)" transform="rotate(90)" height="6" width="6" y="-9.5" x="28.5"/>
   <rect id="rect3076" style="opacity:0.41;stroke:#000;fill:none" height="6" width="6" y="28.5" x="3.5"/>
   <path id="path3078" style="opacity:.4;fill:#fff" d="m4 29v1h1 4v-1h-4z"/>
   <rect id="rect3088" style="fill:url(#linearGradient3246)" transform="rotate(90)" height="6" width="6" y="-19.5" x="28.5"/>
   <rect id="rect3090" style="opacity:0.41;stroke:#000;fill:none" height="6" width="6" y="28.5" x="13.5"/>
   <path id="path3092" d="m14 29v1h1 4v-1h-4z" style="opacity:.4;fill:#fff"/>
  </g>
  <g id="g3922" transform="translate(1,-2)">
   <path id="path3131" d="m9.5 7.5v0.5 3.5h-1.5-1.0938l0.71875 0.84375 3.5 4 0.375 0.40625 0.375-0.40625 3.5-4 0.719-0.844h-1.094-1.5v-3.5-0.5h-0.5-3-0.5z" style="fill:url(#linearGradient3933)" transform="translate(0,26)"/>
   <path id="path3908" style="opacity:0.61;stroke:#000;fill:none" d="m9.5 7.5v0.5 3.5h-1.5-1.0938l0.71875 0.84375 3.5 4 0.375 0.40625 0.375-0.40625 3.5-4 0.719-0.844h-1.094-1.5v-3.5-0.5h-0.5-3-0.5z" transform="translate(0,26)"/>
   <path id="path3910" d="m10 8v1h3v-1h-3zm-2 4v0.031l0.8438 0.969h0.6562 0.5v-0.5-0.5h-0.5-1.5zm5 0v0.5 0.5h0.5 0.65625l0.844-0.969v-0.031h-1.5-0.5z" style="opacity:.2;fill:#fff" transform="translate(0,26)"/>
  </g>
 </g>
</svg>
