<?xml version="1.0" encoding="UTF-8" standalone="no"?>
<!-- Created with Inkscape (http://www.inkscape.org/) -->
<svg id="svg3495" xmlns:rdf="http://www.w3.org/1999/02/22-rdf-syntax-ns#" xmlns="http://www.w3.org/2000/svg" height="24" width="24" version="1.1" xmlns:cc="http://creativecommons.org/ns#" xmlns:xlink="http://www.w3.org/1999/xlink" xmlns:dc="http://purl.org/dc/elements/1.1/">
 <defs id="defs3497">
  <linearGradient id="linearGradient4113">
   <stop id="stop4115" offset="0"/>
   <stop id="stop4117" style="stop-opacity:0" offset="1"/>
  </linearGradient>
  <linearGradient id="linearGradient4368">
   <stop id="stop4370" style="stop-color:#a0a0a0" offset="0"/>
   <stop id="stop4372" style="stop-color:#fff" offset="1"/>
  </linearGradient>
  <linearGradient id="linearGradient3259" y2="37.5" xlink:href="#linearGradient4368" gradientUnits="userSpaceOnUse" x2="13.5" gradientTransform="translate(20,-55)" y1="37.5" x1="7.5"/>
  <linearGradient id="linearGradient3264" y2="37.5" xlink:href="#linearGradient4368" gradientUnits="userSpaceOnUse" x2="13.5" gradientTransform="translate(31,-44)" y1="37.5" x1="7.5"/>
  <linearGradient id="linearGradient4064" y2="2" gradientUnits="userSpaceOnUse" x2="22" gradientTransform="translate(0,24)" y1="22" x1="2">
   <stop id="stop3823" style="stop-color:#ccc;stop-opacity:0" offset="0"/>
   <stop id="stop4356" style="stop-color:#ccc" offset=".1"/>
   <stop id="stop4354" style="stop-color:#ccc" offset="0.9"/>
   <stop id="stop3825" style="stop-color:#ccc;stop-opacity:0" offset="1"/>
  </linearGradient>
  <linearGradient id="linearGradient4074" y2="26" gradientUnits="userSpaceOnUse" x2="22" y1="46" x1="2">
   <stop id="stop4344" style="stop-opacity:0" offset="0"/>
   <stop id="stop4352" offset=".1"/>
   <stop id="stop4350" offset="0.9"/>
   <stop id="stop4346" style="stop-opacity:0" offset="1"/>
  </linearGradient>
  <radialGradient id="radialGradient4119" xlink:href="#linearGradient4113" gradientUnits="userSpaceOnUse" cy="20.5" cx="6.5" gradientTransform="matrix(1 0 0 .33333 0 13.667)" r="4.5"/>
 </defs>
 <metadata id="metadata3500">
  <rdf:RDF>
   <cc:Work rdf:about="">
    <dc:format>image/svg+xml</dc:format>
    <dc:type rdf:resource="http://purl.org/dc/dcmitype/StillImage"/>
    <dc:title/>
   </cc:Work>
  </rdf:RDF>
 </metadata>
 <g id="layer1" transform="translate(0,-24)">
  <path id="path4121" style="opacity:.2;fill:url(#radialGradient4119)" d="m11 20.5a4.5 1.5 0 1 1 -9 0 4.5 1.5 0 1 1 9 0z" transform="translate(11,13)"/>
  <path id="path4095" style="opacity:.2;fill:url(#radialGradient4119)" d="m11 20.5a4.5 1.5 0 1 1 -9 0 4.5 1.5 0 1 1 9 0z" transform="translate(0,24)"/>
  <path id="path4040" style="block-progression:tb;text-indent:0;color:#000000;text-transform:none;fill:url(#linearGradient4064)" d="m17.281 29.281-12 12 1.4375 1.4375 12-12z"/>
  <path id="path4066" d="m17.281 29.281-12 12 1.4375 1.4375 12-12z" style="opacity:0.61;block-progression:tb;text-indent:0;color:#000000;stroke:url(#linearGradient4074);text-transform:none;fill:none"/>
  <rect id="rect4358" style="fill:url(#linearGradient3264)" transform="rotate(90)" height="6" width="6" y="-9.5" x="38.5"/>
  <rect id="rect4360" style="opacity:0.41;stroke:#000;fill:none" height="6" width="6" y="38.5" x="3.5"/>
  <path id="rect4366" style="opacity:.4;fill:#fff" d="m4 39v1h1 4v-1h-4z"/>
  <rect id="rect3100" style="fill:url(#linearGradient3259)" transform="rotate(90)" height="6" width="6" y="-20.5" x="27.5"/>
  <rect id="rect3102" style="opacity:0.41;stroke:#000;fill:none" height="6" width="6" y="27.5" x="14.5"/>
  <path id="path3104" d="m15 28v1h1 4v-1h-4z" style="opacity:.4;fill:#fff"/>
 </g>
</svg>
