<?xml version="1.0" encoding="UTF-8" standalone="no"?>
<!-- Created with Inkscape (http://www.inkscape.org/) -->
<svg id="svg3495" xmlns:rdf="http://www.w3.org/1999/02/22-rdf-syntax-ns#" xmlns="http://www.w3.org/2000/svg" height="24" width="24" version="1.1" xmlns:cc="http://creativecommons.org/ns#" xmlns:xlink="http://www.w3.org/1999/xlink" xmlns:dc="http://purl.org/dc/elements/1.1/">
 <defs id="defs3497">
  <linearGradient id="linearGradient3798" gradientUnits="userSpaceOnUse" x2="11" gradientTransform="translate(1,47)" y1="22" x1="11">
   <stop id="stop3823" style="stop-color:#555" offset="0"/>
   <stop id="stop3825" style="stop-color:#666" offset="1"/>
  </linearGradient>
  <radialGradient id="radialGradient3993" xlink:href="#linearGradient3949" gradientUnits="userSpaceOnUse" cy="20" cx="11" gradientTransform="matrix(1 0 0 .22222 0 15.556)" r="9"/>
  <linearGradient id="linearGradient3949">
   <stop id="stop3951" offset="0"/>
   <stop id="stop3953" style="stop-opacity:0" offset="1"/>
  </linearGradient>
  <linearGradient id="linearGradient3799" gradientUnits="userSpaceOnUse" x2="11" gradientTransform="translate(1,47)" y1="22" x1="11">
   <stop id="stop3795" style="stop-color:#956494" offset="0"/>
   <stop id="stop3797" style="stop-color:#a367a2" offset="1"/>
  </linearGradient>
 </defs>
 <metadata id="metadata3500">
  <rdf:RDF>
   <cc:Work rdf:about="">
    <dc:format>image/svg+xml</dc:format>
    <dc:type rdf:resource="http://purl.org/dc/dcmitype/StillImage"/>
    <dc:title/>
   </cc:Work>
  </rdf:RDF>
 </metadata>
 <g id="layer1" transform="translate(0,-46)">
  <g id="g4507" transform="translate(1,20)">
   <path id="path3163" style="opacity:.4;fill:url(#radialGradient3993)" d="m20 20c0 1.1046-4.0294 2-9 2s-9-0.89543-9-2 4.0294-2 9-2 9 0.89543 9 2z" transform="matrix(1,0,0,1.5,0,15)"/>
   <path id="path3995" style="opacity:.8;fill:url(#radialGradient3993)" d="m20 20c0 1.1046-4.0294 2-9 2s-9-0.89543-9-2 4.0294-2 9-2 9 0.89543 9 2z" transform="matrix(.66667 0 0 1 3.6667 26)"/>
  </g>
  <path id="path3010" style="block-progression:tb;text-indent:0;color:#000000;text-transform:none;fill:url(#linearGradient3799)" d="m11.812 49.531c-0.81031 0.01735-1.622 0.12124-2.4062 0.375-1.0848 0.35-2.1027 0.908-2.9683 1.656-0.869 0.748-1.5582 1.636-2.0625 2.657-0.4835 0.985-0.7628 2.056-0.8438 3.156-0.0155 0.21-0.0312 0.416-0.0312 0.625 0 0.88649 0.13575 1.7519 0.40625 2.5938 0.3485 1.0853 0.90922 2.1019 1.6562 2.9688 0.74707 0.86704 1.6359 1.557 2.6562 2.0625 0.98622 0.48688 2.0587 0.76274 3.1562 0.84375 0.197 0.014 0.393 0.031 0.594 0.031h0.031c0.87579 0 1.7654-0.14092 2.5938-0.40625 0.0087-0.0028 0.02256 0.0028 0.03125 0 1.0737-0.34832 2.0755-0.91459 2.9375-1.6562 0.86768-0.74862 1.5588-1.6341 2.0625-2.6562l0.21875-0.46875-0.4375-0.21875-2.0312-1-0.4375-0.21875-0.21875 0.4375c-0.31088 0.62512-0.74631 1.1626-1.2812 1.625-0.53661 0.46129-1.1176 0.81586-1.7812 1.0312-0.51845 0.167-1.0554 0.25-1.5938 0.25-0.13785-0.0014-0.28568-0.0216-0.40625-0.03125-0.68408-0.0504-1.3354-0.23421-1.9375-0.53125-0.62288-0.30709-1.1606-0.71219-1.625-1.25-0.4615-0.533-0.8162-1.149-1.0316-1.812-0.1646-0.513-0.25-1.046-0.25-1.594 0-0.12958 0.021166-0.27179 0.03125-0.40625 0.049628-0.67467 0.23259-1.3022 0.53125-1.9062 0.3087-0.62543 0.71609-1.1637 1.25-1.625 0.53488-0.46164 1.1495-0.81673 1.8125-1.0312 0.61712-0.19774 1.285-0.25707 2-0.21875 0.65824 0.04868 1.3137 0.2064 1.9062 0.5 0.28771 0.14199 0.5664 0.3771 0.84375 0.59375l-0.96875 0.84375-0.75 0.65625 0.96875 0.21875 5.0312 1.1875 0.65625 0.15625-0.0625-0.6875-0.375-5.1562-0.0625-0.96875-0.75 0.625-1.1562 1c-0.587-0.543-1.214-1.05-1.938-1.406-0.984-0.489-2.049-0.762-3.156-0.844-0.26687-0.01568-0.5424-0.0058-0.8125 0z"/>
  <path id="path3814" style="opacity:0.61;block-progression:tb;text-indent:0;color:#000000;stroke:#430041;text-transform:none;fill:none" d="m11.812 49.531c-0.81031 0.01735-1.622 0.12124-2.4062 0.375-1.0848 0.35-2.1027 0.908-2.9683 1.656-0.869 0.748-1.5582 1.636-2.0625 2.657-0.4835 0.985-0.7628 2.056-0.8438 3.156-0.0155 0.21-0.0312 0.416-0.0312 0.625 0 0.88649 0.13575 1.7519 0.40625 2.5938 0.3485 1.0853 0.90922 2.1019 1.6562 2.9688 0.74707 0.86704 1.6359 1.557 2.6562 2.0625 0.98622 0.48688 2.0587 0.76274 3.1562 0.84375 0.197 0.014 0.393 0.031 0.594 0.031h0.031c0.87579 0 1.7654-0.14092 2.5938-0.40625 0.0087-0.0028 0.02256 0.0028 0.03125 0 1.0737-0.34832 2.0755-0.91459 2.9375-1.6562 0.86768-0.74862 1.5588-1.6341 2.0625-2.6562l0.21875-0.46875-0.4375-0.21875-2.0312-1-0.4375-0.21875-0.21875 0.4375c-0.31088 0.62512-0.74631 1.1626-1.2812 1.625-0.53661 0.46129-1.1176 0.81586-1.7812 1.0312-0.51845 0.167-1.0554 0.25-1.5938 0.25-0.13785-0.0014-0.28568-0.0216-0.40625-0.03125-0.68408-0.0504-1.3354-0.23421-1.9375-0.53125-0.62288-0.30709-1.1606-0.71219-1.625-1.25-0.4615-0.533-0.8162-1.149-1.0316-1.812-0.1646-0.513-0.25-1.046-0.25-1.594 0-0.12958 0.021166-0.27179 0.03125-0.40625 0.049628-0.67467 0.23259-1.3022 0.53125-1.9062 0.3087-0.62543 0.71609-1.1637 1.25-1.625 0.53488-0.46164 1.1495-0.81673 1.8125-1.0312 0.61712-0.19774 1.285-0.25707 2-0.21875 0.65824 0.04868 1.3137 0.2064 1.9062 0.5 0.28771 0.14199 0.5664 0.3771 0.84375 0.59375l-0.96875 0.84375-0.75 0.65625 0.96875 0.21875 5.0312 1.1875 0.65625 0.15625-0.0625-0.6875-0.375-5.1562-0.0625-0.96875-0.75 0.625-1.1562 1c-0.587-0.543-1.214-1.05-1.938-1.406-0.984-0.489-2.049-0.762-3.156-0.844-0.26687-0.01568-0.5424-0.0058-0.8125 0z"/>
  <path id="path3816" style="opacity:.4;block-progression:tb;text-indent:0;color:#000000;text-transform:none;fill:#fff" d="m11.812 50.031c-0.77475 0.01659-1.5239 0.10879-2.25 0.34375-1.0244 0.3302-2.0006 0.86024-2.8125 1.5625-0.81961 0.70501-1.4623 1.5385-1.9375 2.5-0.4534 0.925-0.7042 1.929-0.7808 2.969-0.0156 0.21-0.0312 0.41-0.0312 0.594 0 0.13578 0.024841 0.27183 0.03125 0.40625 0.07656-1.0402 0.32737-2.0442 0.78125-2.9688 0.47522-0.96146 1.1179-1.795 1.9375-2.5 0.81188-0.70226 1.7881-1.2323 2.8125-1.5625 0.72612-0.23496 1.4752-0.32716 2.25-0.34375 0.27503-0.0059 0.54679-0.01377 0.78125 0 1.0491 0.07741 2.047 0.32328 2.9688 0.78125 0.65731 0.32356 1.2428 0.81619 1.8125 1.3438l0.34375 0.28125 0.3125-0.28125 1.1562-1 0.3125 4.125 0.0625 0.03125-0.375-5.1562-1.1562 1-0.3125 0.28125-0.34375-0.28125c-0.56972-0.52756-1.1552-1.0202-1.8125-1.3438-0.92178-0.45797-1.9196-0.70384-2.9688-0.78125-0.23446-0.01377-0.50622-0.0059-0.78125 0zm3.5625 4.375-0.8125 0.71875 0.90625 0.21875 0.0625-0.0625l0.439-0.407-0.469-0.375c-0.039-0.03-0.085-0.063-0.125-0.094zm-9.0302 4.156c-0.0082 0.109-0.0313 0.254-0.0313 0.438 0 0.59948 0.10112 1.1891 0.28125 1.75 0.23717 0.73071 0.62249 1.3872 1.125 1.9688 0.50803 0.58828 1.1043 1.0413 1.7812 1.375 0.65703 0.32412 1.3753 0.53851 2.125 0.59375 0.09765 0.0078 0.25444 0.02939 0.4375 0.03125 0.5897 0 1.1817-0.09818 1.75-0.28125 0.73536-0.23868 1.3616-0.62996 1.9375-1.125 0.57843-0.49995 1.0634-1.0918 1.4062-1.7812l1.594 0.781c0.15753-0.24654 0.30616-0.48346 0.4375-0.75v-0.03125l-2.0312-1c-0.34288 0.68947-0.82782 1.2813-1.4062 1.7812-0.57586 0.49504-1.2021 0.88632-1.9375 1.125-0.56834 0.18307-1.1603 0.28125-1.75 0.28125-0.184-0.001-0.34-0.023-0.438-0.03-0.75-0.056-1.468-0.27-2.125-0.594-0.6769-0.334-1.2732-0.787-1.7812-1.375-0.5026-0.582-0.8879-1.238-1.125-1.969-0.1223-0.381-0.2075-0.786-0.25-1.188z"/>
  <path id="path3017" d="m12 56.5c-0.8225 0-1.5 0.6775-1.5 1.5s0.6775 1.5 1.5 1.5 1.5-0.6775 1.5-1.5-0.6775-1.5-1.5-1.5z" style="block-progression:tb;text-indent:0;color:#000000;text-transform:none;fill:url(#linearGradient3798)"/>
  <path id="path3021" style="opacity:0.61;block-progression:tb;text-indent:0;color:#000000;stroke:#000;text-transform:none;fill:none" d="m12 56.5c-0.8225 0-1.5 0.6775-1.5 1.5s0.6775 1.5 1.5 1.5 1.5-0.6775 1.5-1.5-0.6775-1.5-1.5-1.5z"/>
  <path id="path3023" d="m12 57c-0.54794 0-1 0.45206-1 1 0 0.18585 0.06614 0.35011 0.15625 0.5 0.176-0.292 0.482-0.5 0.844-0.5 0.36209 0 0.66818 0.20796 0.84375 0.5 0.09-0.15 0.156-0.314 0.156-0.5 0-0.548-0.452-1-1-1z" style="opacity:.2;block-progression:tb;text-indent:0;color:#000000;text-transform:none;fill:#fff"/>
 </g>
</svg>
