<?xml version="1.0" encoding="UTF-8" standalone="no"?>
<!-- Created with Inkscape (http://www.inkscape.org/) -->
<svg id="svg3495" xmlns:rdf="http://www.w3.org/1999/02/22-rdf-syntax-ns#" xmlns="http://www.w3.org/2000/svg" height="24" width="24" version="1.1" xmlns:cc="http://creativecommons.org/ns#" xmlns:xlink="http://www.w3.org/1999/xlink" xmlns:dc="http://purl.org/dc/elements/1.1/">
 <defs id="defs3497">
  <linearGradient id="linearGradient4158" y2="12.5" gradientUnits="userSpaceOnUse" x2="23" gradientTransform="translate(0,-2)" y1="12.5" x1="1">
   <stop id="stop3883" style="stop-opacity:0" offset="0"/>
   <stop id="stop3891" offset=".077562"/>
   <stop id="stop3889" offset=".91667"/>
   <stop id="stop3885" style="stop-opacity:0" offset="1"/>
  </linearGradient>
  <linearGradient id="linearGradient4160" y2="14" gradientUnits="userSpaceOnUse" x2="0" gradientTransform="translate(1,-2)" y1="14" x1="9">
   <stop id="stop3415" style="stop-color:#ddd" offset="0"/>
   <stop id="stop3417" style="stop-color:#f2f2f2" offset="1"/>
  </linearGradient>
 </defs>
 <metadata id="metadata3500">
  <rdf:RDF>
   <cc:Work rdf:about="">
    <dc:format>image/svg+xml</dc:format>
    <dc:type rdf:resource="http://purl.org/dc/dcmitype/StillImage"/>
    <dc:title/>
   </cc:Work>
  </rdf:RDF>
 </metadata>
 <g id="layer2" transform="translate(0,2)">
  <g id="g4150" transform="matrix(0,-1,1,0,2,22)">
   <path id="rect3859" style="opacity:0.61;fill:url(#linearGradient4158)" d="m0.5 9v0.5 1 0.5h0.5 1.5 0.5v-0.5-1-0.5h-0.5-1.5-0.5zm3.5 0v0.5 1 0.5h0.5 2 0.5v-0.5-1-0.5h-0.5-2-0.5zm4 0v0.5 1 0.5h0.5 2 0.5v-0.5-1-0.5h-0.5-2-0.5zm4 0v0.5 1 0.5h0.5 2 0.5v-0.5-1-0.5h-0.5-2-0.5zm4 0v0.5 1 0.5h0.5 2 0.5v-0.5-1-0.5h-0.5-2-0.5zm4 0v2h3v-2h-3z"/>
   <g id="g3907" transform="matrix(0,1,-1,0,22,-2)">
    <path id="path3878" style="fill:url(#linearGradient4160)" d="m1.5 18.5 8-18v18z"/>
    <path id="path3890" d="m1.5 18.5 8-18v18z" style="opacity:0.41;stroke-linejoin:round;stroke:#000;fill:none"/>
    <path id="path3892" style="opacity:.6;fill:#fff" d="m9 4.875-6.7188 15.125h0.4376l6.2812-14.125v-1z" transform="translate(0,-2)"/>
   </g>
   <path id="path3916" d="m3.5 20.5 18-8h-18z" style="opacity:.8;stroke-linejoin:round;stroke-dashoffset:.8;stroke:#000;stroke-dasharray:1, 1;fill:none"/>
  </g>
 </g>
</svg>
