<?xml version="1.0" encoding="UTF-8" standalone="no"?>
<!-- Created with Inkscape (http://www.inkscape.org/) -->
<svg id="svg3495" xmlns:rdf="http://www.w3.org/1999/02/22-rdf-syntax-ns#" xmlns="http://www.w3.org/2000/svg" height="24" width="24" version="1.1" xmlns:cc="http://creativecommons.org/ns#" xmlns:xlink="http://www.w3.org/1999/xlink" xmlns:dc="http://purl.org/dc/elements/1.1/">
 <defs id="defs3497">
  <linearGradient id="linearGradient3949">
   <stop id="stop3951" offset="0"/>
   <stop id="stop3953" style="stop-opacity:0" offset="1"/>
  </linearGradient>
  <linearGradient id="linearGradient3799" gradientUnits="userSpaceOnUse" x2="11" gradientTransform="matrix(-1,0,0,1,23,47)" y1="22" x1="11">
   <stop id="stop3795" style="stop-color:#956494" offset="0"/>
   <stop id="stop3797" style="stop-color:#a367a2" offset="1"/>
  </linearGradient>
  <radialGradient id="radialGradient3801" xlink:href="#linearGradient3949" gradientUnits="userSpaceOnUse" cy="20" cx="11" gradientTransform="matrix(1 0 0 .22222 0 15.556)" r="9"/>
  <linearGradient id="linearGradient3805" gradientUnits="userSpaceOnUse" x2="11" gradientTransform="matrix(-1,0,0,1,23,47)" y1="22" x1="11">
   <stop id="stop3823" style="stop-color:#555" offset="0"/>
   <stop id="stop3825" style="stop-color:#666" offset="1"/>
  </linearGradient>
 </defs>
 <metadata id="metadata3500">
  <rdf:RDF>
   <cc:Work rdf:about="">
    <dc:format>image/svg+xml</dc:format>
    <dc:type rdf:resource="http://purl.org/dc/dcmitype/StillImage"/>
    <dc:title/>
   </cc:Work>
  </rdf:RDF>
 </metadata>
 <g id="layer1" transform="translate(0,-46)">
  <g id="g4507" transform="matrix(-1,0,0,1,23,20)">
   <path id="path3163" style="opacity:.4;fill:url(#radialGradient3801)" d="m20 20c0 1.1046-4.0294 2-9 2s-9-0.89543-9-2 4.0294-2 9-2 9 0.89543 9 2z" transform="matrix(1,0,0,1.5,0,15)"/>
   <path id="path3995" style="opacity:.8;fill:url(#radialGradient3801)" d="m20 20c0 1.1046-4.0294 2-9 2s-9-0.89543-9-2 4.0294-2 9-2 9 0.89543 9 2z" transform="matrix(.66667 0 0 1 3.6667 26)"/>
  </g>
  <path id="path3010" style="block-progression:tb;text-indent:0;color:#000000;text-transform:none;fill:url(#linearGradient3799)" d="m12.188 49.531c0.81031 0.01735 1.622 0.12124 2.4062 0.375 1.0852 0.3498 2.1031 0.90748 2.9688 1.6562 0.86901 0.74751 1.5582 1.6359 2.0625 2.6562 0.4835 0.98491 0.76276 2.0558 0.84375 3.1562 0.015 0.21 0.031 0.416 0.031 0.625 0 0.88649-0.13576 1.7519-0.40625 2.5938-0.3485 1.0853-0.90922 2.1019-1.6562 2.9688-0.74707 0.86704-1.6359 1.557-2.6562 2.0625-0.98622 0.48688-2.0587 0.76274-3.1562 0.84375-0.197 0.014-0.393 0.031-0.594 0.031h-0.031c-0.87579 0-1.7654-0.14092-2.5938-0.40625-0.0087-0.0028-0.02256 0.0028-0.03125 0-1.0737-0.349-2.0755-0.915-2.9375-1.656-0.8677-0.749-1.5589-1.635-2.0625-2.657l-0.21875-0.46875 0.4375-0.21875 2.0312-1 0.4375-0.21875 0.21875 0.4375c0.31088 0.62512 0.74631 1.1626 1.2812 1.625 0.53661 0.46129 1.1176 0.81586 1.7812 1.0312 0.51845 0.167 1.0554 0.25 1.5938 0.25 0.13785-0.0014 0.28568-0.0216 0.40625-0.03125 0.68408-0.0504 1.3354-0.23421 1.9375-0.53125 0.62288-0.30709 1.1606-0.71219 1.625-1.25 0.46116-0.53365 0.81583-1.1488 1.0312-1.8125 0.16463-0.51262 0.25-1.0462 0.25-1.5938 0-0.12958-0.02117-0.27179-0.03125-0.40625-0.04963-0.67467-0.23259-1.3022-0.53125-1.9062-0.3087-0.62543-0.71609-1.1637-1.25-1.625-0.53488-0.46164-1.1495-0.81673-1.8125-1.0312-0.61712-0.19774-1.285-0.25707-2-0.21875-0.65824 0.04868-1.3137 0.2064-1.9062 0.5-0.28771 0.14199-0.5664 0.3771-0.84375 0.59375l0.96875 0.84375 0.75 0.65625-0.9685 0.219-5.0313 1.187-0.6562 0.157 0.0625-0.688 0.375-5.156 0.0625-0.969 0.75 0.625 1.1562 1c0.58637-0.54298 1.2142-1.0502 1.9375-1.4062 0.98406-0.48891 2.049-0.76205 3.1562-0.84375 0.26687-0.01568 0.5424-0.0058 0.8125 0z"/>
  <path id="path3814" style="opacity:0.61;block-progression:tb;text-indent:0;color:#000000;stroke:#430041;text-transform:none;fill:none" d="m12.188 49.531c0.81031 0.01735 1.622 0.12124 2.4062 0.375 1.0852 0.3498 2.1031 0.90748 2.9688 1.6562 0.86901 0.74751 1.5582 1.6359 2.0625 2.6562 0.4835 0.98491 0.76276 2.0558 0.84375 3.1562 0.015 0.21 0.031 0.416 0.031 0.625 0 0.88649-0.13576 1.7519-0.40625 2.5938-0.3485 1.0853-0.90922 2.1019-1.6562 2.9688-0.74707 0.86704-1.6359 1.557-2.6562 2.0625-0.98622 0.48688-2.0587 0.76274-3.1562 0.84375-0.197 0.014-0.393 0.031-0.594 0.031h-0.031c-0.87579 0-1.7654-0.14092-2.5938-0.40625-0.0087-0.0028-0.02256 0.0028-0.03125 0-1.0737-0.349-2.0755-0.915-2.9375-1.656-0.8677-0.749-1.5589-1.635-2.0625-2.657l-0.21875-0.46875 0.4375-0.21875 2.0312-1 0.4375-0.21875 0.21875 0.4375c0.31088 0.62512 0.74631 1.1626 1.2812 1.625 0.53661 0.46129 1.1176 0.81586 1.7812 1.0312 0.51845 0.167 1.0554 0.25 1.5938 0.25 0.13785-0.0014 0.28568-0.0216 0.40625-0.03125 0.68408-0.0504 1.3354-0.23421 1.9375-0.53125 0.62288-0.30709 1.1606-0.71219 1.625-1.25 0.46116-0.53365 0.81583-1.1488 1.0312-1.8125 0.16463-0.51262 0.25-1.0462 0.25-1.5938 0-0.12958-0.02117-0.27179-0.03125-0.40625-0.04963-0.67467-0.23259-1.3022-0.53125-1.9062-0.3087-0.62543-0.71609-1.1637-1.25-1.625-0.53488-0.46164-1.1495-0.81673-1.8125-1.0312-0.61712-0.19774-1.285-0.25707-2-0.21875-0.65824 0.04868-1.3137 0.2064-1.9062 0.5-0.28771 0.14199-0.5664 0.3771-0.84375 0.59375l0.96875 0.84375 0.75 0.65625-0.9685 0.219-5.0313 1.187-0.6562 0.157 0.0625-0.688 0.375-5.156 0.0625-0.969 0.75 0.625 1.1562 1c0.58637-0.54298 1.2142-1.0502 1.9375-1.4062 0.98406-0.48891 2.049-0.76205 3.1562-0.84375 0.26687-0.01568 0.5424-0.0058 0.8125 0z"/>
  <path id="path3816" style="opacity:.4;block-progression:tb;text-indent:0;color:#000000;text-transform:none;fill:#fff" d="m12.188 50.031c0.77475 0.01659 1.5239 0.10879 2.25 0.34375 1.0244 0.3302 2.0006 0.86024 2.8125 1.5625 0.81961 0.70501 1.4623 1.5385 1.9375 2.5 0.45388 0.92457 0.70469 1.9286 0.78125 2.9688 0.015 0.21 0.031 0.41 0.031 0.594 0 0.13578-0.02484 0.27183-0.03125 0.40625-0.07656-1.0402-0.32737-2.0442-0.78125-2.9688-0.47522-0.96146-1.1179-1.795-1.9375-2.5-0.81188-0.70226-1.7881-1.2323-2.8125-1.5625-0.72612-0.23496-1.4752-0.32716-2.25-0.34375-0.27503-0.0059-0.54679-0.01377-0.78125 0-1.0491 0.07741-2.047 0.32328-2.9688 0.78125-0.65731 0.32356-1.2428 0.81619-1.8125 1.3438l-0.34375 0.28125-0.3125-0.28125-1.1562-1-0.3125 4.125-0.0625 0.03125 0.375-5.1562 1.1562 1 0.3125 0.28125 0.34375-0.28125c0.56972-0.52756 1.1552-1.0202 1.8125-1.3438 0.92178-0.45797 1.9196-0.70384 2.9688-0.78125 0.23446-0.01377 0.50622-0.0059 0.78125 0zm-3.563 4.375 0.8125 0.719-0.9063 0.219-0.0624-0.063-0.4376-0.406 0.4688-0.375c0.0388-0.03031 0.08466-0.0626 0.125-0.09375zm9.0312 4.1562c0.0081 0.10864 0.03125 0.25348 0.03125 0.4375 0 0.59948-0.10112 1.1891-0.28125 1.75-0.23717 0.73071-0.62249 1.3872-1.125 1.9688-0.50803 0.58828-1.1043 1.0413-1.7812 1.375-0.65703 0.32412-1.3753 0.53851-2.125 0.59375-0.09765 0.0078-0.25444 0.02939-0.4375 0.03125-0.5897 0-1.1817-0.09818-1.75-0.28125-0.7349-0.238-1.3611-0.629-1.937-1.125-0.5784-0.499-1.0634-1.091-1.4062-1.781l-1.5938 0.781c-0.1575-0.246-0.3062-0.483-0.4375-0.75v-0.03125l2.0312-1c0.34288 0.68947 0.82782 1.2813 1.4062 1.7812 0.57586 0.49504 1.2021 0.88632 1.9375 1.125 0.56834 0.18307 1.1603 0.28125 1.75 0.28125 0.18306-0.0019 0.33985-0.02345 0.4375-0.03125 0.74973-0.05524 1.468-0.26963 2.125-0.59375 0.67694-0.33374 1.2732-0.78672 1.7812-1.375 0.50251-0.58151 0.88783-1.238 1.125-1.9688 0.12229-0.3808 0.20746-0.78611 0.25-1.1875z"/>
  <path id="path3017" d="m12 56.5c0.8225 0 1.5 0.6775 1.5 1.5s-0.6775 1.5-1.5 1.5-1.5-0.6775-1.5-1.5 0.6775-1.5 1.5-1.5z" style="block-progression:tb;text-indent:0;color:#000000;text-transform:none;fill:url(#linearGradient3805)"/>
  <path id="path3021" style="opacity:0.61;block-progression:tb;text-indent:0;color:#000000;stroke:#000;text-transform:none;fill:none" d="m12 56.5c0.8225 0 1.5 0.6775 1.5 1.5s-0.6775 1.5-1.5 1.5-1.5-0.6775-1.5-1.5 0.6775-1.5 1.5-1.5z"/>
  <path id="path3023" d="m12 57c0.54794 0 1 0.45206 1 1 0 0.18585-0.06614 0.35011-0.15625 0.5-0.176-0.292-0.482-0.5-0.844-0.5s-0.668 0.208-0.844 0.5c-0.09-0.15-0.156-0.314-0.156-0.5 0-0.54794 0.45206-1 1-1z" style="opacity:.2;block-progression:tb;text-indent:0;color:#000000;text-transform:none;fill:#fff"/>
 </g>
</svg>
