<?xml version="1.0" encoding="UTF-8" standalone="no"?>
<!-- Created with Inkscape (http://www.inkscape.org/) -->
<svg id="svg3495" xmlns:rdf="http://www.w3.org/1999/02/22-rdf-syntax-ns#" xmlns="http://www.w3.org/2000/svg" height="24" width="24" version="1.1" xmlns:cc="http://creativecommons.org/ns#" xmlns:xlink="http://www.w3.org/1999/xlink" xmlns:dc="http://purl.org/dc/elements/1.1/">
 <defs id="defs3497">
  <linearGradient id="linearGradient4181" gradientUnits="userSpaceOnUse" x2="12" y1="24" x1="12">
   <stop id="stop4177" style="stop-color:#555" offset="0"/>
   <stop id="stop4179" style="stop-color:#666" offset="1"/>
  </linearGradient>
 </defs>
 <metadata id="metadata3500">
  <rdf:RDF>
   <cc:Work rdf:about="">
    <dc:format>image/svg+xml</dc:format>
    <dc:type rdf:resource="http://purl.org/dc/dcmitype/StillImage"/>
    <dc:title/>
   </cc:Work>
  </rdf:RDF>
 </metadata>
 <g id="layer1" transform="translate(0,-24)">
  <path id="path3847" style="enable-background:new;fill:url(#linearGradient4181)" d="m11.844 3.1562c-4.7819 0.3182-7.9777 3.6514-8.5628 8.3128h-1.2812-0.9375l0.5313 0.781 2.6562 4 0.4062 0.625 0.4376-0.625 2.6562-4 0.5312-0.781h-0.9374-1.0626c0.3205-2.8618 2.713-5.2487 5.6878-5.3128 1.209-0.011 2.367 0.3572 3.375 1.0626 0.673 0.4724 1.626 0.295 2.094-0.375 0.466-0.6661 0.298-1.6224-0.376-2.0938-1.5-1.0512-3.239-1.5938-5.031-1.5938h-0.031-0.031-0.094-0.031zm7.5 3.9376l-0.438 0.625-2.656 4.0002-0.531 0.781h0.937 1.094c-0.297 2.955-2.675 5.209-5.688 5.312-1.217 0.017-2.3897-0.319-3.4058-1.031-0.6701-0.471-1.617-0.337-2.0937 0.344-0.4741 0.678-0.2992 1.62 0.375 2.094 1.5001 1.051 3.2345 1.625 5.0315 1.625h0.031c4.715-0.267 8.177-3.552 8.719-8.344h1.281 0.938l-0.532-0.781-2.656-4.0002-0.406-0.625z" transform="translate(0,24)"/>
  <path id="path4161" d="m11.844 3.1562c-4.7819 0.3182-7.9777 3.6514-8.5628 8.3128h-1.2812-0.9375l0.5313 0.781 2.6562 4 0.4062 0.625 0.4376-0.625 2.6562-4 0.5312-0.781h-0.9374-1.0626c0.3205-2.8618 2.713-5.2487 5.6878-5.3128 1.209-0.011 2.367 0.3572 3.375 1.0626 0.673 0.4724 1.626 0.295 2.094-0.375 0.466-0.6661 0.298-1.6224-0.376-2.0938-1.5-1.0512-3.239-1.5938-5.031-1.5938h-0.031-0.031-0.094-0.031zm7.5 3.9376l-0.438 0.625-2.656 4.0002-0.531 0.781h0.937 1.094c-0.297 2.955-2.675 5.209-5.688 5.312-1.217 0.017-2.3897-0.319-3.4058-1.031-0.6701-0.471-1.617-0.337-2.0937 0.344-0.4741 0.678-0.2992 1.62 0.375 2.094 1.5001 1.051 3.2345 1.625 5.0315 1.625h0.031c4.715-0.267 8.177-3.552 8.719-8.344h1.281 0.938l-0.532-0.781-2.656-4.0002-0.406-0.625z" style="opacity:.61;stroke:#000;enable-background:new;fill:none" transform="translate(0,24)"/>
  <path id="path4163" style="opacity:.2;enable-background:new;fill:#fff" d="m11.844 3.6562c-4.5474 0.3164-7.5034 3.4185-8.0628 7.8748l-0.0624 0.438h-0.4376-1.2812l0.6562 1h0.625 0.4376l0.0624-0.438c0.5594-4.4563 3.5154-7.5584 8.0628-7.8748h0.031 0.094 0.031 0.031c1.691 0 3.332 0.5066 4.75 1.5 0.112 0.078 0.213 0.1689 0.281 0.2813 0.222-0.4307 0.13-0.9941-0.281-1.2813-1.418-0.9934-3.059-1.5-4.75-1.5h-0.031-0.031-0.094-0.031zm7.468 4.3438l-2.656 4h0.656l2-3h0.032l2 3h0.656l-2.656-4h-0.032zm-13.468 3.969c-0.0273 0.147-0.0457 0.287-0.0626 0.437l-0.0624 0.563h0.5624 0.4063l0.6563-1h-1.0626-0.4374zm12.344 1.031c-0.502 2.978-2.991 5.206-6.094 5.312h-0.032c-1.314 0.018-2.5835-0.351-3.687-1.124-0.4524-0.319-1.0903-0.233-1.4062 0.218-0.2312 0.331-0.2241 0.763-0.0313 1.094 0.016-0.029 0.0121-0.066 0.0313-0.094 0.3159-0.451 0.9538-0.537 1.4062-0.218 1.1035 0.773 2.373 1.142 3.687 1.124h0.032c3.252-0.111 5.835-2.556 6.156-5.75l0.062-0.562h-0.124z" transform="translate(0,24)"/>
 </g>
</svg>
