<?xml version="1.0" encoding="UTF-8" standalone="no"?>
<!-- Created with Inkscape (http://www.inkscape.org/) -->
<svg id="svg3495" xmlns:rdf="http://www.w3.org/1999/02/22-rdf-syntax-ns#" xmlns="http://www.w3.org/2000/svg" height="24" width="24" version="1.1" xmlns:cc="http://creativecommons.org/ns#" xmlns:xlink="http://www.w3.org/1999/xlink" xmlns:dc="http://purl.org/dc/elements/1.1/">
 <defs id="defs3497">
  <linearGradient id="linearGradient3798" gradientUnits="userSpaceOnUse" x2="11" gradientTransform="translate(1,25)" y1="22" x1="11">
   <stop id="stop3823" style="stop-color:#555" offset="0"/>
   <stop id="stop3825" style="stop-color:#666" offset="1"/>
  </linearGradient>
  <radialGradient id="radialGradient3993" xlink:href="#linearGradient3949" gradientUnits="userSpaceOnUse" cy="20" cx="11" gradientTransform="matrix(1 0 0 .22222 0 15.556)" r="9"/>
  <linearGradient id="linearGradient3949">
   <stop id="stop3951" offset="0"/>
   <stop id="stop3953" style="stop-opacity:0" offset="1"/>
  </linearGradient>
 </defs>
 <metadata id="metadata3500">
  <rdf:RDF>
   <cc:Work rdf:about="">
    <dc:format>image/svg+xml</dc:format>
    <dc:type rdf:resource="http://purl.org/dc/dcmitype/StillImage"/>
    <dc:title/>
   </cc:Work>
  </rdf:RDF>
 </metadata>
 <g id="layer1" transform="translate(0,-24)">
  <g id="g4507" transform="translate(1,-2)">
   <path id="path3163" style="opacity:.4;fill:url(#radialGradient3993)" d="m20 20c0 1.1046-4.0294 2-9 2s-9-0.89543-9-2 4.0294-2 9-2 9 0.89543 9 2z" transform="matrix(1,0,0,1.5,0,15)"/>
   <path id="path3995" style="opacity:.8;fill:url(#radialGradient3993)" d="m20 20c0 1.1046-4.0294 2-9 2s-9-0.89543-9-2 4.0294-2 9-2 9 0.89543 9 2z" transform="matrix(.66667 0 0 1 3.6667 26)"/>
  </g>
  <path id="path3010" style="block-progression:tb;text-indent:0;color:#000000;text-transform:none;fill:url(#linearGradient3798)" d="m11.812 27.531c-0.81031 0.01735-1.622 0.12124-2.4062 0.375-1.0848 0.35-2.1027 0.908-2.9683 1.656-0.869 0.748-1.5582 1.636-2.0625 2.657-0.4835 0.985-0.7628 2.056-0.8438 3.156-0.0155 0.21-0.0312 0.416-0.0312 0.625 0 0.88649 0.13575 1.7519 0.40625 2.5938 0.3485 1.0853 0.90922 2.1019 1.6562 2.9688 0.74707 0.86704 1.6359 1.557 2.6562 2.0625 0.98622 0.48688 2.0587 0.76274 3.1562 0.84375 0.197 0.014 0.393 0.031 0.594 0.031h0.031c0.87579 0 1.7654-0.14092 2.5938-0.40625 0.0087-0.0028 0.02256 0.0028 0.03125 0 1.0737-0.34832 2.0755-0.91459 2.9375-1.6562 0.86768-0.74862 1.5588-1.6341 2.0625-2.6562l0.21875-0.46875-0.4375-0.21875-2.0312-1-0.4375-0.21875-0.21875 0.4375c-0.31088 0.62512-0.74631 1.1626-1.2812 1.625-0.53661 0.46129-1.1176 0.81586-1.7812 1.0312-0.51845 0.167-1.0554 0.25-1.5938 0.25-0.13785-0.0014-0.28568-0.0216-0.40625-0.03125-0.68408-0.0504-1.3354-0.23421-1.9375-0.53125-0.62288-0.30709-1.1606-0.71219-1.625-1.25-0.4615-0.533-0.8162-1.149-1.0316-1.812-0.1646-0.513-0.25-1.046-0.25-1.594 0-0.12958 0.021166-0.27179 0.03125-0.40625 0.049628-0.67467 0.23259-1.3022 0.53125-1.9062 0.3087-0.62543 0.71609-1.1637 1.25-1.625 0.53488-0.46164 1.1495-0.81673 1.8125-1.0312 0.61712-0.19774 1.285-0.25707 2-0.21875 0.65824 0.04868 1.3137 0.2064 1.9062 0.5 0.28771 0.14199 0.5664 0.3771 0.84375 0.59375l-0.96875 0.84375-0.75 0.65625 0.96875 0.21875 5.0312 1.1875 0.65625 0.15625-0.0625-0.6875-0.375-5.1562-0.0625-0.96875-0.75 0.625-1.1562 1c-0.587-0.543-1.214-1.05-1.938-1.406-0.984-0.489-2.049-0.762-3.156-0.844-0.26687-0.01568-0.5424-0.0058-0.8125 0z"/>
  <g id="g4772" transform="matrix(.5 0 0 .5 -1e-7 24)">
   <path id="path4373" style="opacity:.2;fill:#fff" d="m10.812 3c-0.767 0.0199-1.5162 0.1377-2.2495 0.375-1.0225 0.3296-1.9657 0.8571-2.7813 1.5625-0.8191 0.7047-1.4938 1.5391-1.9687 2.5-0.4558 0.9286-0.7049 1.9316-0.7813 2.9685-0.0146 0.198-0.0312 0.397-0.0312 0.594 0 0.136 0.0244 0.271 0.0312 0.406 0.0764-1.037 0.3255-2.0399 0.7813-2.9685 0.4749-0.9609 1.1496-1.7953 1.9687-2.5 0.8156-0.7054 1.7588-1.2329 2.7813-1.5625 0.9777-0.3164 2.0195-0.4032 3.0315-0.3438 1.0445 0.077074 2.0424 0.32101 2.9688 0.78125 0.80524 0.39638 1.5257 0.98126 2.1562 1.625v-0.03125l1.4688-1.25 0.3125 4.1562 0.0625 0.03125-0.375-5.1875-1.4688 1.25v0.03125c-0.631-0.6436-1.351-1.2285-2.157-1.6249-0.926-0.4602-1.924-0.7042-2.968-0.7813-0.253-0.0148-0.526-0.0378-0.782-0.0312zm3.5938 4.4062-0.875 0.71875 0.9375 0.21875l0.532-0.4376c-0.17894-0.16996-0.38496-0.34353-0.59375-0.5zm-9.0625 4.0312c-0.00409 0.04264 0.00315 0.08216 0 0.125-0.0108 0.147-0.031 0.296-0.031 0.438 0 0.59897 0.10068 1.1877 0.28125 1.75 0.23562 0.72596 0.62072 1.3852 1.125 1.9688 0.50648 0.58649 1.0979 1.0693 1.7812 1.4062 0.65916 0.32518 1.3778 0.50745 2.125 0.5625 0.13726 0.01102 0.2929 0.0298 0.4375 0.03125 0.5909 0 1.1513-0.09848 1.7188-0.28125 0.72596-0.23562 1.4142-0.62145 2-1.125 0.58429-0.50502 1.0351-1.0979 1.375-1.7812l1.594 0.781c0.15534-0.24377 0.30853-0.51952 0.4375-0.78125l-2.0312-1c-0.33986 0.68338-0.79071 1.2762-1.375 1.7812-0.58576 0.50355-1.274 0.88938-2 1.125-0.56741 0.18277-1.1279 0.28125-1.7188 0.28125-0.145-0.001-0.301-0.019-0.438-0.03-0.7472-0.056-1.4658-0.238-2.125-0.563-0.6834-0.337-1.2748-0.82-1.7812-1.406-0.5043-0.584-0.8894-1.243-1.125-1.969-0.1357-0.422-0.2157-0.867-0.25-1.312z" transform="matrix(2 0 0 2 2 2)"/>
  </g>
  <path id="path3800" style="opacity:0.61;block-progression:tb;text-indent:0;color:#000000;stroke:#000;text-transform:none;fill:none" d="m11.812 27.531c-0.81031 0.01735-1.622 0.12124-2.4062 0.375-1.0848 0.35-2.1027 0.908-2.9683 1.656-0.869 0.748-1.5582 1.636-2.0625 2.657-0.4835 0.985-0.7628 2.056-0.8438 3.156-0.0155 0.21-0.0312 0.416-0.0312 0.625 0 0.88649 0.13575 1.7519 0.40625 2.5938 0.3485 1.0853 0.90922 2.1019 1.6562 2.9688 0.74707 0.86704 1.6359 1.557 2.6562 2.0625 0.98622 0.48688 2.0587 0.76274 3.1562 0.84375 0.197 0.014 0.393 0.031 0.594 0.031h0.031c0.87579 0 1.7654-0.14092 2.5938-0.40625 0.0087-0.0028 0.02256 0.0028 0.03125 0 1.0737-0.34832 2.0755-0.91459 2.9375-1.6562 0.86768-0.74862 1.5588-1.6341 2.0625-2.6562l0.21875-0.46875-0.4375-0.21875-2.0312-1-0.4375-0.21875-0.21875 0.4375c-0.31088 0.62512-0.74631 1.1626-1.2812 1.625-0.53661 0.46129-1.1176 0.81586-1.7812 1.0312-0.51845 0.167-1.0554 0.25-1.5938 0.25-0.13785-0.0014-0.28568-0.0216-0.40625-0.03125-0.68408-0.0504-1.3354-0.23421-1.9375-0.53125-0.62288-0.30709-1.1606-0.71219-1.625-1.25-0.4615-0.533-0.8162-1.149-1.0316-1.812-0.1646-0.513-0.25-1.046-0.25-1.594 0-0.12958 0.021166-0.27179 0.03125-0.40625 0.049628-0.67467 0.23259-1.3022 0.53125-1.9062 0.3087-0.62543 0.71609-1.1637 1.25-1.625 0.53488-0.46164 1.1495-0.81673 1.8125-1.0312 0.61712-0.19774 1.285-0.25707 2-0.21875 0.65824 0.04868 1.3137 0.2064 1.9062 0.5 0.28771 0.14199 0.5664 0.3771 0.84375 0.59375l-0.96875 0.84375-0.75 0.65625 0.96875 0.21875 5.0312 1.1875 0.65625 0.15625-0.0625-0.6875-0.375-5.1562-0.0625-0.96875-0.75 0.625-1.1562 1c-0.587-0.543-1.214-1.05-1.938-1.406-0.984-0.489-2.049-0.762-3.156-0.844-0.26687-0.01568-0.5424-0.0058-0.8125 0z"/>
 </g>
</svg>
