<?xml version="1.0" encoding="UTF-8" standalone="no"?>
<!-- Created with Inkscape (http://www.inkscape.org/) -->
<svg id="svg3495" xmlns:rdf="http://www.w3.org/1999/02/22-rdf-syntax-ns#" xmlns="http://www.w3.org/2000/svg" height="22" width="22" version="1.1" xmlns:cc="http://creativecommons.org/ns#" xmlns:xlink="http://www.w3.org/1999/xlink" xmlns:dc="http://purl.org/dc/elements/1.1/">
 <defs id="defs3497">
  <linearGradient id="linearGradient3821">
   <stop id="stop3823" style="stop-color:#555" offset="0"/>
   <stop id="stop3825" style="stop-color:#666" offset="1"/>
  </linearGradient>
  <linearGradient id="linearGradient3793" y2="-2" xlink:href="#linearGradient3821" gradientUnits="userSpaceOnUse" x2="12" gradientTransform="matrix(1,0,0,-1,2e-7,46.047)" y1="22" x1="12"/>
  <linearGradient id="linearGradient3791" xlink:href="#linearGradient3821" gradientUnits="userSpaceOnUse" x2="5" gradientTransform="translate(1,25)" y1="22" x1="5"/>
 </defs>
 <metadata id="metadata3500">
  <rdf:RDF>
   <cc:Work rdf:about="">
    <dc:format>image/svg+xml</dc:format>
    <dc:type rdf:resource="http://purl.org/dc/dcmitype/StillImage"/>
    <dc:title/>
   </cc:Work>
  </rdf:RDF>
 </metadata>
 <g id="layer1" transform="translate(0,-26)">
  <path id="path2987" style="block-progression:tb;text-indent:0;color:#bebebe;text-transform:none;fill:url(#linearGradient3793)" d="m20.469 33.5-0.4375-0.75-3.5938-6.0312-0.4375-0.71875-0.4375 0.71875-3.625 6.0312-0.4375 0.75h0.875 2.125v12h3v-12h2.0938z"/>
  <path id="path2994" d="m20.469 33.5-0.4375-0.75-3.5938-6.0312-0.4375-0.71875-0.4375 0.71875-3.625 6.0312-0.4375 0.75h0.875 2.125v12h3v-12h2.0938z" style="opacity:0.61;block-progression:tb;text-indent:0;color:#bebebe;stroke:#000;text-transform:none;fill:none"/>
  <path id="path3778" style="fill:url(#linearGradient3791)" d="m6 26.5c-1.3748 0-2.5 1.1252-2.5 2.5s1.1252 2.5 2.5 2.5 2.5-1.1252 2.5-2.5-1.1252-2.5-2.5-2.5zm0 7c-1.3748 0-2.5 1.1252-2.5 2.5s1.1252 2.5 2.5 2.5 2.5-1.1252 2.5-2.5-1.1252-2.5-2.5-2.5zm0 7c-1.3748 0-2.5 1.1252-2.5 2.5s1.1252 2.5 2.5 2.5 2.5-1.1252 2.5-2.5-1.1252-2.5-2.5-2.5z"/>
  <path id="path3800" style="opacity:0.61;stroke:#000;stroke-linecap:square;fill:none" d="m6 26.5c-1.3748 0-2.5 1.1252-2.5 2.5s1.1252 2.5 2.5 2.5 2.5-1.1252 2.5-2.5-1.1252-2.5-2.5-2.5zm0 7c-1.3748 0-2.5 1.1252-2.5 2.5s1.1252 2.5 2.5 2.5 2.5-1.1252 2.5-2.5-1.1252-2.5-2.5-2.5zm0 7c-1.3748 0-2.5 1.1252-2.5 2.5s1.1252 2.5 2.5 2.5 2.5-1.1252 2.5-2.5-1.1252-2.5-2.5-2.5z"/>
  <path id="path3802" style="opacity:.2;fill:#fff" d="m6 27c-1.102 0-2 0.89803-2 2 0 0.17218 0.021299 0.34042 0.0625 0.5 0.2225-0.862 1.0077-1.5 1.9375-1.5s1.715 0.638 1.9375 1.5c0.0412-0.16 0.0625-0.328 0.0625-0.5 0-1.102-0.898-2-2-2zm0 7c-1.102 0-2 0.89803-2 2 0 0.17218 0.021299 0.34042 0.0625 0.5 0.2225-0.862 1.0077-1.5 1.9375-1.5s1.715 0.638 1.9375 1.5c0.0412-0.16 0.0625-0.328 0.0625-0.5 0-1.102-0.898-2-2-2zm0 7c-1.102 0-2 0.89803-2 2 0 0.17218 0.021299 0.34042 0.0625 0.5 0.2225-0.862 1.0077-1.5 1.9375-1.5s1.715 0.638 1.9375 1.5c0.0412-0.16 0.0625-0.328 0.0625-0.5 0-1.102-0.898-2-2-2z"/>
  <path id="path3837" style="opacity:.2;block-progression:tb;text-indent:0;color:#bebebe;text-transform:none;fill:#fff" d="m16 26.969-3.625 6.031h0.594l3.031-5.031 3 5.031h0.594l-3.594-6.031z"/>
 </g>
</svg>
