<?xml version="1.0" encoding="UTF-8" standalone="no"?>
<!-- Created with Inkscape (http://www.inkscape.org/) -->
<svg id="svg3495" xmlns:rdf="http://www.w3.org/1999/02/22-rdf-syntax-ns#" xmlns="http://www.w3.org/2000/svg" height="24" width="24" version="1.1" xmlns:cc="http://creativecommons.org/ns#" xmlns:xlink="http://www.w3.org/1999/xlink" xmlns:dc="http://purl.org/dc/elements/1.1/">
 <defs id="defs3497">
  <linearGradient id="linearGradient3883" gradientUnits="userSpaceOnUse" x2="12" gradientTransform="translate(1,25)" y1="22" x1="12">
   <stop id="stop3879" style="stop-color:#555" offset="0"/>
   <stop id="stop3881" style="stop-color:#666" offset="1"/>
  </linearGradient>
 </defs>
 <metadata id="metadata3500">
  <rdf:RDF>
   <cc:Work rdf:about="">
    <dc:format>image/svg+xml</dc:format>
    <dc:type rdf:resource="http://purl.org/dc/dcmitype/StillImage"/>
    <dc:title/>
   </cc:Work>
  </rdf:RDF>
 </metadata>
 <g id="layer1" transform="translate(0,-24)">
  <path id="path4197" style="fill:url(#linearGradient3883)" d="m3 27 0.9375 6.188 1.6563-1.657 3.3437 3.344 1.9375-1.969-3.3125-3.312 1.625-1.656-6.1875-0.938zm18 0-6.1875 0.9375 1.6562 1.6562-3.3438 3.3438 1.9688 1.9375 3.3125-3.3125 1.625 1.625l0.969-6.189zm-12.094 10.125-3.3124 3.313-1.6563-1.626-0.9375 6.188 6.1875-0.938-1.6563-1.656 3.3438-3.344-1.9688-1.937zm6.1562 0-1.9375 1.9688 3.3125 3.3125-1.625 1.6562l6.189 0.938-0.938-6.188-1.656 1.657-3.344-3.344z"/>
  <path id="path3863" style="opacity:0.61;stroke:#000;fill:none" d="m3 27 0.9375 6.188 1.6563-1.657 3.3437 3.344 1.9375-1.969-3.3125-3.312 1.625-1.656-6.1875-0.938zm18 0-6.1875 0.9375 1.6562 1.6562-3.3438 3.3438 1.9688 1.9375 3.3125-3.3125 1.625 1.625l0.969-6.189zm-12.094 10.125-3.3124 3.313-1.6563-1.626-0.9375 6.188 6.1875-0.938-1.6563-1.656 3.3438-3.344-1.9688-1.937zm6.1562 0-1.9375 1.9688 3.3125 3.3125-1.625 1.6562l6.189 0.938-0.938-6.188-1.656 1.657-3.344-3.344z"/>
  <path id="path3865" style="opacity:.2;fill:#fff" d="m3.5938 27.594 0.1562 1.031l3.5625 0.53125 0.84375-0.875-4.5625-0.6875zm16.812 0-4.5625 0.6875 0.875 0.875l3.531-0.532 0.156-1.031zm-13.031 2.5-0.15625 0.15625-0.375 0.34375 0.375 0.34375 2.4688 2.4688 0.5-0.5-2.8125-2.8125zm9.2812 0-2.8438 2.8438 0.5 0.5 2.5-2.5 0.375-0.34375-0.375-0.34375-0.15625-0.15625zm-7.75 7.7188-2.9688 2.9688-0.34375 0.375l-0.3434-0.376-0.9688-0.937-0.6874 4.562 0.1562-0.031 0.5312-3.531 0.9688 0.937 0.34375 0.375 0.34375-0.375 2.9688-2.9688 0.78125 0.75 0.5-0.5-1.2812-1.25zm6.1562 0-1.25 1.2812 0.5 0.5 0.75-0.78125 3 3 0.34375 0.375 0.34375-0.375 0.96875-0.96875 0.53125 3.5312 0.15625 0.03125-0.6875-4.5625-0.96875 0.96875-0.34375 0.375-0.34375-0.375-3-3zm-7.7188 5.0938-0.15625 0.15625-0.375 0.34375 0.375 0.34375 0.09375 0.09375 0.875-0.125-0.8125-0.8125zm9.2812 0-0.78125 0.8125 0.84375 0.125 0.09375-0.09375 0.375-0.34375-0.375-0.34375-0.15625-0.15625z"/>
 </g>
</svg>
