<?xml version="1.0" encoding="UTF-8" standalone="no"?>
<!-- Created with Inkscape (http://www.inkscape.org/) -->
<svg id="svg3495" xmlns:rdf="http://www.w3.org/1999/02/22-rdf-syntax-ns#" xmlns="http://www.w3.org/2000/svg" height="24" width="24" version="1.1" xmlns:cc="http://creativecommons.org/ns#" xmlns:xlink="http://www.w3.org/1999/xlink" xmlns:dc="http://purl.org/dc/elements/1.1/">
 <defs id="defs3497">
  <linearGradient id="linearGradient3823" gradientUnits="userSpaceOnUse" x2="10" gradientTransform="translate(1,25)" y1="22" x1="10">
   <stop id="stop3819" style="stop-color:#555" offset="0"/>
   <stop id="stop3821" style="stop-color:#666" offset="1"/>
  </linearGradient>
 </defs>
 <metadata id="metadata3500">
  <rdf:RDF>
   <cc:Work rdf:about="">
    <dc:format>image/svg+xml</dc:format>
    <dc:type rdf:resource="http://purl.org/dc/dcmitype/StillImage"/>
    <dc:title/>
   </cc:Work>
  </rdf:RDF>
 </metadata>
 <g id="layer1" transform="translate(0,-24)">
  <path id="path4197" style="fill:url(#linearGradient3823)" d="m4.9375 27-1.9375 1.938 3.3125 3.343-1.625 1.625 6.1875 0.969-0.9375-6.187-1.6563 1.656-3.3437-3.344zm14.125 0-3.3438 3.3438-1.625-1.6562l-0.968 6.187 6.187-0.937-1.624-1.657 3.312-3.343-1.938-1.938zm-8.187 10.125-6.1875 0.937 1.6563 1.657-3.3438 3.343 1.9375 1.938 3.3437-3.344 1.625 1.656 0.9688-6.187zm2.25 0 0.9375 6.1875 1.6562-1.625l3.344 3.313 1.938-1.938-3.312-3.343 1.624-1.625-6.187-0.969z"/>
  <path id="path3035" style="opacity:0.61;stroke:#000;fill:none" d="m4.9375 27-1.9375 1.938 3.3125 3.343-1.625 1.625 6.1875 0.969-0.9375-6.187-1.6563 1.656-3.3437-3.344zm14.125 0-3.3438 3.3438-1.625-1.6562l-0.968 6.187 6.187-0.937-1.624-1.657 3.312-3.343-1.938-1.938zm-8.187 10.125-6.1875 0.937 1.6563 1.657-3.3438 3.343 1.9375 1.938 3.3437-3.344 1.625 1.656 0.9688-6.187zm2.25 0 0.9375 6.1875 1.6562-1.625l3.344 3.313 1.938-1.938-3.312-3.343 1.624-1.625-6.187-0.969z"/>
  <path id="path3805" style="opacity:.2;fill:#fff" d="m4.9375 27.688-1.25 1.25 0.5 0.5 0.75-0.75 3 3 0.34375 0.375 0.34375-0.375 0.96875-0.96875 0.53125 3.5312 0.15625 0.03125-0.6875-4.5625-0.96875 0.96875-0.34375 0.375-0.34375-0.375-3-3zm14.125 0-3 3-0.34375 0.375-0.34375-0.375-0.9375-0.96875-0.71875 4.5625 0.15625-0.03125 0.5625-3.5312 0.9375 0.96875 0.34375 0.375 0.34375-0.375 3-3 0.75 0.75 0.5-0.5-1.25-1.25zm-12.562 5.093-0.7812 0.781l0.875 0.125 0.0625-0.0625 0.375-0.34375-0.3751-0.343-0.1562-0.157zm11 0l-0.156 0.157-0.344 0.343 0.344 0.344 0.094 0.094 0.843-0.125-0.781-0.813zm-7.2188 4.9375-4.5625 0.6875 0.875 0.875l3.5315-0.531 0.156-1.031zm3.4375 0 0.15625 1.0312 3.5312 0.5625 0.875-0.875-4.5625-0.71875zm-7.1875 2.5-2.8438 2.8438 0.5 0.5 2.5-2.5 0.375-0.34375l-0.3742-0.343-0.1563-0.156zm10.969 0-0.15625 0.15625-0.375 0.34375 0.375 0.34375 2.4688 2.5 0.5-0.5l-2.813-2.843z"/>
 </g>
</svg>
