<?xml version="1.0" encoding="UTF-8" standalone="no"?>
<!-- Created with Inkscape (http://www.inkscape.org/) -->
<svg id="svg3495" xmlns:rdf="http://www.w3.org/1999/02/22-rdf-syntax-ns#" xmlns="http://www.w3.org/2000/svg" height="24" width="24" version="1.1" xmlns:cc="http://creativecommons.org/ns#" xmlns:xlink="http://www.w3.org/1999/xlink" xmlns:dc="http://purl.org/dc/elements/1.1/">
 <defs id="defs3497">
  <linearGradient id="linearGradient3779" y2="-3" gradientUnits="userSpaceOnUse" x2="8" gradientTransform="translate(4,28)" y1="19" x1="8">
   <stop id="stop3785" style="stop-color:#555" offset="0"/>
   <stop id="stop3787" style="stop-color:#666" offset="1"/>
  </linearGradient>
 </defs>
 <metadata id="metadata3500">
  <rdf:RDF>
   <cc:Work rdf:about="">
    <dc:format>image/svg+xml</dc:format>
    <dc:type rdf:resource="http://purl.org/dc/dcmitype/StillImage"/>
    <dc:title/>
   </cc:Work>
  </rdf:RDF>
 </metadata>
 <g id="layer1" transform="translate(0,-24)">
  <path id="path2992" style="block-progression:tb;text-indent:0;color:#000000;text-transform:none;fill:url(#linearGradient3779)" d="m5 26.875-2.125 2.125 1.0625 1.062 5.9375 5.938-5.9375 5.938-1.0625 1.062 2.125 2.125 1.0625-1.063 5.9375-5.937 5.938 5.937 1.062 1.063 2.125-2.125-1.063-1.062-5.937-5.938 5.937-5.938 1.063-1.062-2.125-2.125-1.062 1.063-5.938 5.937-5.9375-5.937z"/>
  <path id="path3781" style="opacity:0.61;block-progression:tb;text-indent:0;color:#000000;stroke:#000;text-transform:none;fill:none" d="m5 26.875-2.125 2.125 1.0625 1.062 5.9375 5.938-5.9375 5.938-1.0625 1.062 2.125 2.125 1.0625-1.063 5.9375-5.937 5.938 5.937 1.062 1.063 2.125-2.125-1.063-1.062-5.937-5.938 5.937-5.938 1.063-1.062-2.125-2.125-1.062 1.063-5.938 5.937-5.9375-5.937z"/>
  <path id="path3783" style="opacity:.2;block-progression:tb;text-indent:0;color:#000000;text-transform:none;fill:#fff" d="m5 27.562-1.4375 1.438 0.5 0.5 0.9375-0.938l0.71875 0.71875 5.9375 5.9375 0.34375 0.375 0.34375-0.375 5.9375-5.9375 0.719-0.719 0.938 0.938 0.5-0.5-1.438-1.438-0.71875 0.71875-5.9375 5.9375-0.34375 0.375-0.34375-0.375-5.9375-5.9375zm5.062 8.938-5.7808 5.781-0.7187 0.719l0.5 0.5 0.21875-0.21875 5.9375-5.9375 0.375-0.34375-0.375-0.34375zm3.875 0-0.15625 0.15625-0.375 0.34375 0.375 0.34375 5.9375 5.9375 0.21875 0.21875 0.5-0.5-0.71875-0.71875z"/>
 </g>
</svg>
