<?xml version="1.0" encoding="UTF-8" standalone="no"?>
<svg
   xmlns:dc="http://purl.org/dc/elements/1.1/"
   xmlns:cc="http://creativecommons.org/ns#"
   xmlns:rdf="http://www.w3.org/1999/02/22-rdf-syntax-ns#"
   xmlns:svg="http://www.w3.org/2000/svg"
   xmlns="http://www.w3.org/2000/svg"
   xmlns:sodipodi="http://sodipodi.sourceforge.net/DTD/sodipodi-0.dtd"
   xmlns:inkscape="http://www.inkscape.org/namespaces/inkscape"
   viewBox="0 0 256 256"
   id="svg2"
   version="1.1"
   inkscape:version="0.91 r13725"
   sodipodi:docname="add-to-call.svg">
  <metadata
     id="metadata46">
    <rdf:RDF>
      <cc:Work
         rdf:about="">
        <dc:format>image/svg+xml</dc:format>
        <dc:type
           rdf:resource="http://purl.org/dc/dcmitype/StillImage" />
      </cc:Work>
    </rdf:RDF>
  </metadata>
  <sodipodi:namedview
     pagecolor="#ffffff"
     bordercolor="#666666"
     borderopacity="1"
     objecttolerance="10"
     gridtolerance="10"
     guidetolerance="10"
     inkscape:pageopacity="0"
     inkscape:pageshadow="2"
     inkscape:window-width="1280"
     inkscape:window-height="910"
     id="namedview44"
     showgrid="false"
     inkscape:zoom="0.921875"
     inkscape:cx="128"
     inkscape:cy="128"
     inkscape:window-x="0"
     inkscape:window-y="25"
     inkscape:window-maximized="1"
     inkscape:current-layer="g30" />
  <defs
     id="defs4">
    <clipPath
       id="clipPath6">
      <rect
         x="6"
         y="6"
         width="84"
         height="80"
         rx="6"
         style="fill:#fff"
         id="rect8" />
    </clipPath>
    <clipPath
       id="clipPath10">
      <rect
         x="6"
         y="6"
         width="84"
         height="80"
         rx="6"
         style="fill:#fff"
         id="rect12" />
    </clipPath>
    <clipPath
       id="clipPath14">
      <path
         d="m 171 132 h 54.625 v 24 h -54.625"
         id="path16" />
    </clipPath>
    <clipPath
       id="clipPath18">
      <path
         d="m 74 56.824 h 129 v 139.69 h -129"
         id="path20" />
    </clipPath>
    <clipPath
       id="clipPath22">
      <path
         d="m 148 97 h 77.63 v 24 h -77.62"
         id="path24" />
    </clipPath>
    <clipPath
       id="clipPath26">
      <path
         d="m 27.707 56.824 h 82.29 v 139.69 h -82.29"
         id="path28" />
    </clipPath>
  </defs>
  <g
     transform="translate(0 -796.36)"
     style="color:#000"
     id="g30">
    <path
       d="m 60.17 822.74 c 130.93 -92.05 263.6 77.948 156.91 186.39 -100.51 102.17 -256.68 7.449 -207.86 -119.69 10.185 -26.526 26.914 -49.802 50.948 -66.7 z"
       style="fill:#a9a9a9;fill-opacity:1"
       id="path32" />
    <g
       transform="matrix(0 -1.474 -1.47458 0 708.04 1505.7)"
       style="fill:#fff"
       id="g34">
      <g
         style="stroke:#fff;stroke-width:7.5"
         id="g36">
        <path
           d="m 384.98 371.36 l 1 -4 h -40.02 v 4 z"
           id="path38" />
        <path
           transform="scale(-1 1)"
           d="m -367.98 349.36 h 4 v 40 h -4 z"
           id="path40" />
      </g>
      <path
         d="m 454.09 381.18 c -1.905 -7.999 -4.738 -21.673 -17.541 -18.04 -16.272 4.619 -31.08 17.637 -42.41 28.409 c -0.012 0.011 -0.023 0.021 -0.034 0.032 -0.011 0.011 -0.022 0.021 -0.034 0.032 c -11.328 10.776 -25.02 24.856 -29.877 40.33 -3.822 12.174 10.558 14.868 18.971 16.679 l 11.949 -25.838 l -5.742 -10.124 c 2.514 -3.747 8.821 -10.215 13.03 -14.216 4.208 -3.998 11.01 -9.996 14.951 -12.386 l 9.57 6.484 l 27.17 -11.362 z"
         id="path42" />
    </g>
  </g>
</svg>
