<?xml version="1.0" encoding="UTF-8" standalone="no"?>
<svg
   xmlns:dc="http://purl.org/dc/elements/1.1/"
   xmlns:cc="http://creativecommons.org/ns#"
   xmlns:rdf="http://www.w3.org/1999/02/22-rdf-syntax-ns#"
   xmlns:svg="http://www.w3.org/2000/svg"
   xmlns="http://www.w3.org/2000/svg"
   xmlns:sodipodi="http://sodipodi.sourceforge.net/DTD/sodipodi-0.dtd"
   xmlns:inkscape="http://www.inkscape.org/namespaces/inkscape"
   viewBox="0 0 256 256"
   id="svg2"
   version="1.1"
   inkscape:version="0.91 r13725"
   sodipodi:docname="add_milestone.svg">
  <metadata
     id="metadata24">
    <rdf:RDF>
      <cc:Work
         rdf:about="">
        <dc:format>image/svg+xml</dc:format>
        <dc:type
           rdf:resource="http://purl.org/dc/dcmitype/StillImage" />
      </cc:Work>
    </rdf:RDF>
  </metadata>
  <defs
     id="defs22" />
  <sodipodi:namedview
     pagecolor="#ffffff"
     bordercolor="#666666"
     borderopacity="1"
     objecttolerance="10"
     gridtolerance="10"
     guidetolerance="10"
     inkscape:pageopacity="0"
     inkscape:pageshadow="2"
     inkscape:window-width="1280"
     inkscape:window-height="910"
     id="namedview20"
     showgrid="false"
     inkscape:zoom="0.921875"
     inkscape:cx="128"
     inkscape:cy="128"
     inkscape:window-x="0"
     inkscape:window-y="25"
     inkscape:window-maximized="1"
     inkscape:current-layer="g10" />
  <path
     transform="translate(0 -796.36)"
     d="m 229.63 992.2 c 92.05 -130.93 -77.948 -263.6 -186.39 -156.91 -102.17 100.51 -7.449 256.68 119.69 207.86 c 26.526 -10.185 49.802 -26.914 66.7 -50.948 z"
     style="fill:#a9a9a9;color:#000;fill-opacity:1"
     id="path4" />
  <g
     transform="matrix(3.08451 0 0 2.93964 32.753 37.1)"
     id="g6">
    <g
       style="stroke-linejoin:round"
       id="g8">
      <g
         style="stroke-linecap:round"
         id="g10">
        <path
           d="m 30.982 5.093 c -0.544 -0.544 -1.42 -0.544 -1.964 0 l -23.925 23.925 c -0.544 0.544 -0.544 1.42 0 1.964 l 23.925 23.925 c 0.544 0.544 1.42 0.544 1.964 0 l 23.925 -23.925 c 0.544 -0.544 0.544 -1.42 0 -1.964 l -23.925 -23.925 z"
           style="fill:none;stroke:#fff;stroke-width:8.125"
           id="path12" />
        <path
           d="m 30.982 5.093 c -0.544 -0.544 -1.42 -0.544 -1.964 0 l -23.925 23.925 c -0.544 0.544 -0.544 1.42 0 1.964 l 23.925 23.925 c 0.544 0.544 1.42 0.544 1.964 0 l 23.925 -23.925 c 0.544 -0.544 0.544 -1.42 0 -1.964 l -23.925 -23.925 z"
           style="stroke:#a9a9a9;stroke-opacity:1;fill:#ffffff;fill-opacity:1"
           id="path14" />
      </g>
      <path
         d="m 38.745 38.594 v -7.717 c 0 -1.08 0.295 -1.957 0.886 -2.631 0.59 -0.692 1.434 -1.037 2.53 -1.037 1.096 0 1.94 0.346 2.53 1.037 0.607 0.675 0.911 1.552 0.911 2.631 v 7.717 h 7.616 c 1.113 0 1.99 0.304 2.631 0.911 0.658 0.59 0.987 1.425 0.987 2.505 0 1.096 -0.329 1.948 -0.987 2.555 -0.641 0.607 -1.518 0.911 -2.631 0.911 h -7.616 v 7.692 c 0 1.096 -0.304 1.982 -0.911 2.657 -0.607 0.675 -1.451 1.012 -2.53 1.012 -1.08 0 -1.923 -0.337 -2.53 -1.012 -0.59 -0.675 -0.886 -1.56 -0.886 -2.657 v -7.692 h -7.616 c -1.08 0 -1.957 -0.329 -2.631 -0.987 -0.658 -0.675 -0.987 -1.501 -0.987 -2.48 0 -1.08 0.32 -1.914 0.961 -2.505 0.658 -0.607 1.543 -0.911 2.657 -0.911 h 7.616 z"
         style="fill:none;stroke:#fff;stroke-width:5"
         id="path16" />
    </g>
    <path
       d="m 38.764 39.05 v -7.927 c 0 -1.109 0.303 -2.01 0.91 -2.703 0.606 -0.71 1.473 -1.066 2.599 -1.066 1.126 0 1.993 0.355 2.599 1.066 0.624 0.693 0.936 1.594 0.936 2.703 v 7.927 h 7.823 c 1.144 0 2.045 0.312 2.703 0.936 0.676 0.606 1.014 1.464 1.014 2.573 0 1.126 -0.338 2 -1.014 2.625 -0.658 0.624 -1.559 0.936 -2.703 0.936 h -7.823 v 7.901 c 0 1.126 -0.312 2.036 -0.936 2.729 -0.624 0.693 -1.49 1.04 -2.599 1.04 -1.109 0 -1.975 -0.347 -2.599 -1.04 -0.606 -0.693 -0.91 -1.603 -0.91 -2.729 v -7.901 h -7.823 c -1.109 0 -2.01 -0.338 -2.703 -1.014 -0.676 -0.693 -1.014 -1.542 -1.014 -2.547 0 -1.109 0.329 -1.967 0.988 -2.573 0.676 -0.624 1.585 -0.936 2.729 -0.936 h 7.823 z"
       transform="matrix(0.97351 0 0 0.97351 1.01 0.582)"
       style="fill:#a9a9a9;fill-opacity:1"
       id="path18" />
  </g>
</svg>
