<?xml version="1.0" encoding="UTF-8" standalone="no"?>
<svg
   xmlns:dc="http://purl.org/dc/elements/1.1/"
   xmlns:cc="http://creativecommons.org/ns#"
   xmlns:rdf="http://www.w3.org/1999/02/22-rdf-syntax-ns#"
   xmlns:svg="http://www.w3.org/2000/svg"
   xmlns="http://www.w3.org/2000/svg"
   xmlns:sodipodi="http://sodipodi.sourceforge.net/DTD/sodipodi-0.dtd"
   xmlns:inkscape="http://www.inkscape.org/namespaces/inkscape"
   viewBox="0 0 256 256"
   id="svg2"
   version="1.1"
   inkscape:version="0.91 r13725"
   sodipodi:docname="add_task.svg">
  <metadata
     id="metadata36">
    <rdf:RDF>
      <cc:Work
         rdf:about="">
        <dc:format>image/svg+xml</dc:format>
        <dc:type
           rdf:resource="http://purl.org/dc/dcmitype/StillImage" />
      </cc:Work>
    </rdf:RDF>
  </metadata>
  <sodipodi:namedview
     pagecolor="#ffffff"
     bordercolor="#666666"
     borderopacity="1"
     objecttolerance="10"
     gridtolerance="10"
     guidetolerance="10"
     inkscape:pageopacity="0"
     inkscape:pageshadow="2"
     inkscape:window-width="1280"
     inkscape:window-height="910"
     id="namedview34"
     showgrid="false"
     inkscape:zoom="0.921875"
     inkscape:cx="-111.18644"
     inkscape:cy="128"
     inkscape:window-x="0"
     inkscape:window-y="25"
     inkscape:window-maximized="1"
     inkscape:current-layer="g14" />
  <defs
     id="defs4">
    <clipPath
       id="clipPath6">
      <path
         d="m -24 13 c 0 1.105 -0.672 2 -1.5 2 -0.828 0 -1.5 -0.895 -1.5 -2 0 -1.105 0.672 -2 1.5 -2 0.828 0 1.5 0.895 1.5 2 z"
         transform="matrix(15.33333 0 0 11.5 415 -125.5)"
         id="path8" />
    </clipPath>
  </defs>
  <path
     transform="translate(0.508 2.624)"
     d="m 222.65 37.868 c 145.18 221.56 -251.35 307.3 -219.76 79.37 12.881 -92.96 164.23 -164.13 219.76 -79.37 z"
     style="fill:#a9a9a9;color:#000;fill-opacity:1"
     id="path10" />
  <g
     transform="matrix(3.61655 0 0 2.61917 19.503 58.1)"
     style="stroke-linejoin:round"
     id="g12">
    <g
       style="fill:none"
       id="g14">
      <g
         style="stroke:#fff"
         id="g16">
        <path
           d="m 30 16.06 v 25.593"
           style="stroke-linecap:round;stroke-width:10"
           id="path18" />
        <g
           style="stroke-width:8.125"
           id="g20">
          <path
             d="m 15.288 4.688 c -0.697 0 -1.259 0.561 -1.259 1.259 v 13.381 c 0 0.697 0.561 1.259 1.259 1.259 h 29.424 c 0.697 0 1.259 -0.561 1.259 -1.259 v -13.381 c 0 -0.697 -0.561 -1.259 -1.259 -1.259 h -29.424 z"
             id="path22" />
          <path
             d="m 15.288 39.41 c -0.697 0 -1.259 0.561 -1.259 1.259 v 13.381 c 0 0.697 0.561 1.259 1.259 1.259 h 29.424 c 0.697 0 1.259 -0.561 1.259 -1.259 v -13.381 c 0 -0.697 -0.561 -1.259 -1.259 -1.259 h -29.424 z"
             style="stroke-linecap:round"
             id="path24" />
        </g>
      </g>
      <path
         d="m 30 17.14 v 29.22"
         style="stroke-dasharray:55;stroke:#a9a9a9;stroke-linecap:round;stroke-width:5;stroke-opacity:1"
         id="path26" />
    </g>
    <g
       style="stroke:#a9a9a9;fill-rule:evenodd;stroke-opacity:1"
       id="g28">
      <path
         d="m 8.945 6.736 c -0.868 0 -1.567 0.699 -1.567 1.567 v 16.659 c 0 0.868 0.699 1.567 1.567 1.567 h 36.633 c 0.868 0 1.567 -0.699 1.567 -1.567 v -16.659 c 0 -0.868 -0.699 -1.567 -1.567 -1.567 h -36.633 z"
         transform="matrix(0.80321 0 0 0.80321 8.103 -0.722)"
         style="fill:#fff;stroke-width:3.891;stroke:#a9a9a9;stroke-opacity:1"
         id="path30" />
      <path
         d="m 14.657 39.612 c -0.692 0 -1.248 0.557 -1.248 1.248 v 13.268 c 0 0.692 0.557 1.248 1.248 1.248 h 29.18 c 0.692 0 1.248 -0.557 1.248 -1.248 v -13.268 c 0 -0.692 -0.557 -1.248 -1.248 -1.248 h -29.18 z"
         transform="matrix(1.0085 0 0 1.0085 0.506 -0.536)"
         style="fill:#a9a9a9;fill-opacity:1;stroke:#a9a9a9;stroke-opacity:1"
         id="path32" />
    </g>
  </g>
</svg>
