<?xml version="1.0" encoding="UTF-8" standalone="no"?>
<svg
   xmlns:dc="http://purl.org/dc/elements/1.1/"
   xmlns:cc="http://creativecommons.org/ns#"
   xmlns:rdf="http://www.w3.org/1999/02/22-rdf-syntax-ns#"
   xmlns:svg="http://www.w3.org/2000/svg"
   xmlns="http://www.w3.org/2000/svg"
   xmlns:sodipodi="http://sodipodi.sourceforge.net/DTD/sodipodi-0.dtd"
   xmlns:inkscape="http://www.inkscape.org/namespaces/inkscape"
   viewBox="0 0 256 256"
   id="svg2"
   version="1.1"
   inkscape:version="0.91 r13725"
   sodipodi:docname="addpoint.svg">
  <metadata
     id="metadata46">
    <rdf:RDF>
      <cc:Work
         rdf:about="">
        <dc:format>image/svg+xml</dc:format>
        <dc:type
           rdf:resource="http://purl.org/dc/dcmitype/StillImage" />
      </cc:Work>
    </rdf:RDF>
  </metadata>
  <sodipodi:namedview
     pagecolor="#ffffff"
     bordercolor="#666666"
     borderopacity="1"
     objecttolerance="10"
     gridtolerance="10"
     guidetolerance="10"
     inkscape:pageopacity="0"
     inkscape:pageshadow="2"
     inkscape:window-width="1280"
     inkscape:window-height="910"
     id="namedview44"
     showgrid="false"
     inkscape:zoom="0.921875"
     inkscape:cx="-111.18644"
     inkscape:cy="128"
     inkscape:window-x="0"
     inkscape:window-y="25"
     inkscape:window-maximized="1"
     inkscape:current-layer="g26" />
  <defs
     id="defs4">
    <clipPath
       id="clipPath6">
      <path
         d="m 74 56.824 h 129 v 139.69 h -129"
         id="path8" />
    </clipPath>
    <clipPath
       id="clipPath10">
      <path
         d="m 27.707 56.824 h 82.29 v 139.69 h -82.29"
         id="path12" />
    </clipPath>
    <clipPath
       id="clipPath14">
      <path
         d="m 171 132 h 54.625 v 24 h -54.625"
         id="path16" />
    </clipPath>
    <clipPath
       id="clipPath18">
      <path
         d="m 148 97 h 77.63 v 24 h -77.62"
         id="path20" />
    </clipPath>
    <clipPath
       id="clipPath22">
      <path
         transform="matrix(15.33333 0 0 11.5 415 -125.5)"
         d="m -24 13 c 0 1.105 -0.672 2 -1.5 2 -0.828 0 -1.5 -0.895 -1.5 -2 0 -1.105 0.672 -2 1.5 -2 0.828 0 1.5 0.895 1.5 2 z"
         id="path24" />
    </clipPath>
  </defs>
  <g
     transform="translate(1.348 -793.37)"
     style="color:#000"
     id="g26">
    <path
       d="m 129.75 802.64 c 351.89 122.36 -157.77 430.08 -129.24 84.27 6.675 -52.07 70.44 -105.14 129.24 -84.27 z"
       style="fill:#a9a9a9;fill-opacity:1"
       id="path28" />
    <g
       transform="matrix(4.19957 0 0 4.51111 -2221.43 -1678.62)"
       style="fill:#fff;stroke:#fff"
       id="g30">
      <path
         d="m 544.95 590.27 l 24.379 -12.64 l -24.379 -11.738 z"
         style="stroke-width:0.414"
         id="path32" />
      <path
         d="m 566.9 575.17 h 4.757 v 4.716 h -4.757 z"
         style="stroke-width:0.203"
         id="path34" />
      <path
         d="m 543.03 588.26 h 4.46 v 4.421 h -4.46 z"
         style="stroke-width:0.191"
         id="path36" />
      <path
         d="m 543.05 563.35 h 4.756 v 4.715 h -4.756 z"
         style="stroke-width:0.203"
         id="path38" />
      <path
         d="m 566.96 564.32 h 1.622 v 8.359 h -1.622 z"
         id="path40" />
      <path
         transform="matrix(-0.00575 -0.99998 0.99998 -0.00575 0 0)"
         d="m -572.57 560.32 h 1.622 v 8.359 h -1.622 z"
         id="path42" />
    </g>
  </g>
</svg>
