<?xml version="1.0" encoding="UTF-8" standalone="no"?>
<svg
   xmlns:dc="http://purl.org/dc/elements/1.1/"
   xmlns:cc="http://creativecommons.org/ns#"
   xmlns:rdf="http://www.w3.org/1999/02/22-rdf-syntax-ns#"
   xmlns:svg="http://www.w3.org/2000/svg"
   xmlns="http://www.w3.org/2000/svg"
   xmlns:sodipodi="http://sodipodi.sourceforge.net/DTD/sodipodi-0.dtd"
   xmlns:inkscape="http://www.inkscape.org/namespaces/inkscape"
   viewBox="0 0 256 256"
   id="svg2"
   version="1.1"
   inkscape:version="0.91 r13725"
   sodipodi:docname="airbrush.svg">
  <metadata
     id="metadata44">
    <rdf:RDF>
      <cc:Work
         rdf:about="">
        <dc:format>image/svg+xml</dc:format>
        <dc:type
           rdf:resource="http://purl.org/dc/dcmitype/StillImage" />
      </cc:Work>
    </rdf:RDF>
  </metadata>
  <defs
     id="defs42" />
  <sodipodi:namedview
     pagecolor="#ffffff"
     bordercolor="#666666"
     borderopacity="1"
     objecttolerance="10"
     gridtolerance="10"
     guidetolerance="10"
     inkscape:pageopacity="0"
     inkscape:pageshadow="2"
     inkscape:window-width="1280"
     inkscape:window-height="910"
     id="namedview40"
     showgrid="false"
     inkscape:zoom="0.921875"
     inkscape:cx="-111.18644"
     inkscape:cy="128"
     inkscape:window-x="0"
     inkscape:window-y="25"
     inkscape:window-maximized="1"
     inkscape:current-layer="g6" />
  <path
     d="M 229.63,195.84 C 321.68,64.91 151.682,-67.76 43.24,38.93 -58.93,139.44 35.791,295.61 162.93,246.79 c 26.526,-10.185 49.802,-26.914 66.7,-50.948 z"
     style="fill:#a9a9a9;color:#000;fill-opacity:1"
     id="path4" />
  <g
     transform="matrix(2.6482 0 0 3.09004 57.25 32.572)"
     id="g6">
    <g
       style="stroke-linecap:round;stroke-linejoin:round"
       id="g8">
      <g
         style="fill:none;stroke:#fff"
         id="g10">
        <path
           d="m 21.19 19.19 c -8.838 0 -16.03 1.857 -16.03 4.156 v 27.719 c 5.682 5.554 25.454 5.812 31.781 0 0 -1.55 0.25 -27.538 0.25 -27.719 0 -2.299 -7.162 -4.156 -16 -4.156 z"
           style="stroke-width:8.125"
           id="path12" />
        <path
           d="m 19.568 11.766 c -1.687 0 -3.045 1.358 -3.045 3.045 v 5.276 c 0 1.687 1.358 3.045 3.045 3.045 h 3.209 c 1.687 0 3.045 -1.358 3.045 -3.045 v -5.276 c 0 -1.687 -1.358 -3.045 -3.045 -3.045 h -3.209 z"
           style="stroke-width:6.875"
           id="path14" />
      </g>
      <path
         d="m 3.816 23.527 v 28.881 c 6.05 5.914 27.09 6.189 33.826 0 0 -1.65 0.275 -18.765 0.275 -28.943 l -34.1 0.062 z"
         transform="matrix(0.93915 0 0 0.93915 1.578 1.831)"
         style="fill:#fff;stroke:#a9a9a9;fill-rule:evenodd;stroke-width:3.327;stroke-opacity:1"
         id="path16" />
    </g>
    <g
       style="fill:#a9a9a9;fill-opacity:1;stroke:#a9a9a9;stroke-opacity:1"
       id="g18">
      <path
         d="m 30.22 8.374 v -13.992 c 0 -0.516 0.168 -0.945 0.504 -1.289 0.336 -0.344 0.77 -0.516 1.301 -0.516 0.531 0 0.961 0.16 1.289 0.48 0.336 0.32 0.504 0.762 0.504 1.324 v 5.227 l 5.906 -6.352 c 0.414 -0.453 0.879 -0.68 1.395 -0.68 0.477 0 0.891 0.164 1.242 0.492 0.359 0.32 0.539 0.742 0.539 1.266 0 0.297 -0.094 0.59 -0.281 0.879 -0.188 0.281 -0.488 0.629 -0.902 1.043 l -4.535 4.512 l 5.543 5.848 c 0.32 0.305 0.566 0.602 0.738 0.891 0.18 0.281 0.27 0.594 0.27 0.938 0 0.547 -0.18 0.965 -0.539 1.254 -0.359 0.281 -0.805 0.422 -1.336 0.422 -0.313 0 -0.598 -0.086 -0.855 -0.258 c -0.25 -0.172 -0.57 -0.461 -0.961 -0.867 l -6.223 -6.797 v 6.176 c 0 0.492 -0.168 0.906 -0.504 1.242 -0.336 0.336 -0.766 0.504 -1.289 0.504 -0.523 0 -0.957 -0.16 -1.301 -0.48 c -0.336 -0.32 -0.504 -0.742 -0.504 -1.266"
         transform="matrix(0.78721 0 0 0.78721 -4.29 36.13)"
         id="path20"
         style="fill:#a9a9a9;fill-opacity:1;stroke:#a9a9a9;stroke-opacity:1" />
      <g
         style="stroke:#a9a9a9;fill-rule:evenodd;stroke-linecap:round;stroke-linejoin:round;fill:#a9a9a9;fill-opacity:1;stroke-opacity:1"
         id="g22">
        <path
           d="m 42.573 30.21 l 4.585 4.803 l 7.422 -5.02 l 5.894 2.62 l 1.965 8.605 l 6.331 -0.058 l 1.746 -8.829 l 5.894 -2.337 l 7.422 4.803 l 3.493 -4.803 l -8.424 -7.95 c -21.591 19.803 -40.25 -10.718 -21.703 -23.487 v -4.585 l -2.183 1.092 l -6.768 -4.302 l -4.675 3.839 l 4.238 7.231 l -2.401 5.894 l -8.27 1.374 l -0.026 6.267 l 8.514 2.183 l 2.347 5.731 l -5.403 6.931 z"
           transform="matrix(0.39583 0 0 0.39583 -4.29 36.13)"
           style="stroke-width:0.632;fill:#a9a9a9;fill-opacity:1;stroke:#a9a9a9;stroke-opacity:1"
           id="path24" />
        <path
           d="m 54.46 21.828 c 0 2.248 -7.01 4.072 -15.651 4.072 -8.639 0 -15.651 -1.824 -15.651 -4.072 0 -2.248 7.01 -4.072 15.651 -4.072 8.639 0 15.651 1.824 15.651 4.072 z"
           transform="matrix(1.02302 0 0 1.02302 -18.529 1.023)"
           style="stroke-width:3.055;fill:#a9a9a9;fill-opacity:1;stroke:#a9a9a9;stroke-opacity:1"
           id="path26" />
      </g>
    </g>
    <g
       transform="matrix(0.93915 0 0 0.93915 1.573 2.07)"
       style="stroke:#a9a9a9;fill-rule:evenodd;stroke-linecap:round;stroke-linejoin:round"
       id="g28">
      <path
         d="m 37.1 10.631 c -1.662 0 -3 1.338 -3 3 v 5.197 c 0 1.662 1.338 3 3 3 h 3.161 c 1.662 0 3 -1.338 3 -3 v -5.197 c 0 -1.662 -1.338 -3 -3 -3 h -3.161 z"
         transform="matrix(1.08086 0 0 1.08086 -20.939 -1.165)"
         style="fill:#fff;stroke-width:1.847;stroke:#a9a9a9;stroke-opacity:1"
         id="path30" />
      <path
         d="m 22.14 14.702 c 0 0.843 -0.684 1.527 -1.527 1.527 -0.843 0 -1.527 -0.684 -1.527 -1.527 0 -0.843 0.684 -1.527 1.527 -1.527 0.843 0 1.527 0.684 1.527 1.527 z"
         transform="matrix(1.08086 0 0 1.08086 -1.41 -0.89)"
         style="fill:#a9a9a9;stroke-width:1.231"
         id="path32" />
    </g>
    <g
       style="fill:none;stroke-linecap:round;stroke-linejoin:round"
       id="g34">
      <path
         d="m 41.626 10.5 l -20.33 5.736 l 30.32 3.824 m -9.743 -15.994 l -19.97 11.453 l 33.563 -1.673"
         style="stroke:#fff;stroke-width:6.875"
         id="path36" />
      <path
         d="m 42.498 8.976 l -21.504 6.108 l 32.06 4.072 m -10.306 -17.03 l -21.12 12.195 l 35.5 -1.781"
         transform="matrix(0.94544 0 0 0.93915 1.446 2.07)"
         style="stroke-dasharray:1.98997152, 1.98997152000000010;stroke:#a9a9a9;stroke-width:1.98997152;stroke-miterlimit:4;stroke-dashoffset:0;stroke-opacity:1"
         id="path38" />
    </g>
  </g>
</svg>
