<?xml version="1.0" encoding="UTF-8" standalone="no"?>
<svg
   xmlns:dc="http://purl.org/dc/elements/1.1/"
   xmlns:cc="http://creativecommons.org/ns#"
   xmlns:rdf="http://www.w3.org/1999/02/22-rdf-syntax-ns#"
   xmlns:svg="http://www.w3.org/2000/svg"
   xmlns="http://www.w3.org/2000/svg"
   xmlns:sodipodi="http://sodipodi.sourceforge.net/DTD/sodipodi-0.dtd"
   xmlns:inkscape="http://www.inkscape.org/namespaces/inkscape"
   viewBox="0 0 256 256"
   id="svg2"
   version="1.1"
   inkscape:version="0.91 r13725"
   sodipodi:docname="bell.svg">
  <metadata
     id="metadata14">
    <rdf:RDF>
      <cc:Work
         rdf:about="">
        <dc:format>image/svg+xml</dc:format>
        <dc:type
           rdf:resource="http://purl.org/dc/dcmitype/StillImage" />
      </cc:Work>
    </rdf:RDF>
  </metadata>
  <defs
     id="defs12" />
  <sodipodi:namedview
     pagecolor="#ffffff"
     bordercolor="#666666"
     borderopacity="1"
     objecttolerance="10"
     gridtolerance="10"
     guidetolerance="10"
     inkscape:pageopacity="0"
     inkscape:pageshadow="2"
     inkscape:window-width="1280"
     inkscape:window-height="910"
     id="namedview10"
     showgrid="false"
     inkscape:zoom="0.921875"
     inkscape:cx="-111.18644"
     inkscape:cy="128"
     inkscape:window-x="0"
     inkscape:window-y="25"
     inkscape:window-maximized="1"
     inkscape:current-layer="g4" />
  <g
     transform="matrix(0.98637 0 0 0.98183 2.231 -779.47)"
     id="g4">
    <path
       d="M 211.17,833.49 C 412.99,1099.87 -142.42,1137.71 35.82,865.8 76.454,803.81 157.71,762.94 211.17,833.49 z"
       style="fill:#a9a9a9;color:#000;fill-opacity:1"
       id="path6" />
    <path
       transform="matrix(8.43886 0 0 8.0272 62.3 871.17)"
       d="m 7.785 -1.373 c -0.554 0 -1 0.446 -1 1 v 1.1 c -2.287 0.461 -4 2.473 -4 4.9 v 4 c -1.108 0 -2 0.892 -2 2 v 1 h 6 v 1 c 0 0.554 0.446 1 1 1 0.554 0 1 -0.446 1 -1 v -1 h 6 v -1 c 0 -1.108 -0.892 -2 -2 -2 v -4 c 0 -2.427 -1.713 -4.439 -4 -4.9 v -1.1 c 0 -0.554 -0.446 -1 -1 -1 z"
       style="fill:#fff"
       id="path8" />
  </g>
</svg>
