<?xml version="1.0" encoding="UTF-8" standalone="no"?>
<svg
   xmlns:dc="http://purl.org/dc/elements/1.1/"
   xmlns:cc="http://creativecommons.org/ns#"
   xmlns:rdf="http://www.w3.org/1999/02/22-rdf-syntax-ns#"
   xmlns:svg="http://www.w3.org/2000/svg"
   xmlns="http://www.w3.org/2000/svg"
   xmlns:sodipodi="http://sodipodi.sourceforge.net/DTD/sodipodi-0.dtd"
   xmlns:inkscape="http://www.inkscape.org/namespaces/inkscape"
   viewBox="0 0 256 256"
   id="svg2"
   version="1.1"
   inkscape:version="0.91 r13725"
   sodipodi:docname="bookmark-web.svg">
  <metadata
     id="metadata139">
    <rdf:RDF>
      <cc:Work
         rdf:about="">
        <dc:format>image/svg+xml</dc:format>
        <dc:type
           rdf:resource="http://purl.org/dc/dcmitype/StillImage" />
      </cc:Work>
    </rdf:RDF>
  </metadata>
  <sodipodi:namedview
     pagecolor="#ffffff"
     bordercolor="#666666"
     borderopacity="1"
     objecttolerance="10"
     gridtolerance="10"
     guidetolerance="10"
     inkscape:pageopacity="0"
     inkscape:pageshadow="2"
     inkscape:window-width="1280"
     inkscape:window-height="910"
     id="namedview137"
     showgrid="false"
     inkscape:zoom="0.921875"
     inkscape:cx="-111.18644"
     inkscape:cy="128"
     inkscape:window-x="0"
     inkscape:window-y="25"
     inkscape:window-maximized="1"
     inkscape:current-layer="g125" />
  <defs
     id="defs4">
    <clipPath
       id="clipPath6">
      <g
         transform="translate(0 -1004.36)"
         id="g8">
        <rect
           fill="#1890d0"
           width="46"
           height="46"
           x="1"
           y="1005.36"
           rx="4"
           id="rect10" />
      </g>
    </clipPath>
    <clipPath
       id="clipPath12">
      <g
         transform="translate(0 -1004.36)"
         id="g14">
        <rect
           fill="#1890d0"
           width="46"
           height="46"
           x="1"
           y="1005.36"
           rx="4"
           id="rect16" />
      </g>
    </clipPath>
    <clipPath
       id="clipPath18">
      <g
         transform="translate(0 -1004.36)"
         id="g20">
        <rect
           fill="#1890d0"
           width="46"
           height="46"
           x="1"
           y="1005.36"
           rx="4"
           id="rect22" />
      </g>
    </clipPath>
    <clipPath
       id="clipPath24">
      <g
         transform="translate(0 -1004.36)"
         id="g26">
        <rect
           fill="#1890d0"
           width="46"
           height="46"
           x="1"
           y="1005.36"
           rx="4"
           id="rect28" />
      </g>
    </clipPath>
    <clipPath
       id="clipPath30">
      <g
         transform="translate(0 -1004.36)"
         id="g32">
        <rect
           fill="#1890d0"
           width="46"
           height="46"
           x="1"
           y="1005.36"
           rx="4"
           id="rect34" />
      </g>
    </clipPath>
    <clipPath
       id="clipPath36">
      <g
         transform="translate(0 -1004.36)"
         id="g38">
        <rect
           fill="#1890d0"
           width="46"
           height="46"
           x="1"
           y="1005.36"
           rx="4"
           id="rect40" />
      </g>
    </clipPath>
    <clipPath
       id="0">
      <g
         transform="translate(0 -1004.36)"
         id="g43">
        <rect
           fill="#1890d0"
           width="46"
           height="46"
           x="1"
           y="1005.36"
           rx="4"
           id="rect45" />
      </g>
    </clipPath>
    <clipPath
       id="clipPath47">
      <g
         transform="translate(0 -1004.36)"
         id="g49">
        <rect
           fill="#1890d0"
           width="46"
           height="46"
           x="1"
           y="1005.36"
           rx="4"
           id="rect51" />
      </g>
    </clipPath>
    <clipPath
       id="clipPath53">
      <g
         transform="translate(0 -1004.36)"
         id="g55">
        <rect
           fill="#1890d0"
           width="46"
           height="46"
           x="1"
           y="1005.36"
           rx="4"
           id="rect57" />
      </g>
    </clipPath>
    <clipPath
       id="clipPath59">
      <g
         transform="translate(0 -1004.36)"
         id="g61">
        <rect
           fill="#1890d0"
           width="46"
           height="46"
           x="1"
           y="1005.36"
           rx="4"
           id="rect63" />
      </g>
    </clipPath>
    <clipPath
       id="clipPath65">
      <g
         transform="translate(0 -1004.36)"
         id="g67">
        <rect
           fill="#1890d0"
           width="46"
           height="46"
           x="1"
           y="1005.36"
           rx="4"
           id="rect69" />
      </g>
    </clipPath>
    <clipPath
       id="clipPath71">
      <g
         transform="translate(0 -1004.36)"
         id="g73">
        <rect
           fill="#1890d0"
           width="46"
           height="46"
           x="1"
           y="1005.36"
           rx="4"
           id="rect75" />
      </g>
    </clipPath>
    <clipPath
       id="clipPath77">
      <g
         transform="translate(0 -1004.36)"
         id="g79">
        <rect
           fill="#1890d0"
           width="46"
           height="46"
           x="1"
           y="1005.36"
           rx="4"
           id="rect81" />
      </g>
    </clipPath>
    <clipPath
       id="clipPath83">
      <g
         transform="translate(0 -1004.36)"
         id="g85">
        <rect
           fill="#1890d0"
           width="46"
           height="46"
           x="1"
           y="1005.36"
           rx="4"
           id="rect87" />
      </g>
    </clipPath>
    <clipPath
       id="clipPath89">
      <g
         transform="translate(0 -1004.36)"
         id="g91">
        <rect
           fill="#1890d0"
           width="46"
           height="46"
           x="1"
           y="1005.36"
           rx="4"
           id="rect93" />
      </g>
    </clipPath>
    <clipPath
       id="clipPath95">
      <g
         transform="translate(0 -1004.36)"
         id="g97">
        <rect
           fill="#1890d0"
           width="46"
           height="46"
           x="1"
           y="1005.36"
           rx="4"
           id="rect99" />
      </g>
    </clipPath>
    <clipPath
       id="clipPath101">
      <g
         transform="translate(0 -1004.36)"
         id="g103">
        <rect
           fill="#1890d0"
           width="46"
           height="46"
           x="1"
           y="1005.36"
           rx="4"
           id="rect105" />
      </g>
    </clipPath>
    <clipPath
       id="clipPath107">
      <g
         transform="translate(0 -1004.36)"
         id="g109">
        <rect
           fill="#1890d0"
           width="46"
           height="46"
           x="1"
           y="1005.36"
           rx="4"
           id="rect111" />
      </g>
    </clipPath>
    <clipPath
       id="clipPath113">
      <g
         transform="translate(0 -1004.36)"
         id="g115">
        <rect
           fill="#1890d0"
           width="46"
           height="46"
           x="1"
           y="1005.36"
           rx="4"
           id="rect117" />
      </g>
    </clipPath>
    <clipPath
       id="clipPath119">
      <g
         transform="translate(0 -1004.36)"
         id="g121">
        <rect
           fill="#1890d0"
           width="46"
           height="46"
           x="1"
           y="1005.36"
           rx="4"
           id="rect123" />
      </g>
    </clipPath>
  </defs>
  <g
     transform="translate(0 -796.36)"
     id="g125">
    <path
       d="m -1374.42 1658.71 c 127.95 -192.46 -280.09 -311 -226.07 -62.2 23.02 102.82 167.39 165.22 226.07 62.2 z"
       color="#000"
       transform="matrix(0 1 -1 0 1711.59 2401.81)"
       fill="#ffa500"
       id="path127"
       style="fill:#a9a9a9;fill-opacity:1" />
    <g
       clip-path="url(#0)"
       fill="#fff"
       transform="matrix(5.53077 0 0 4.87741 -5.531 850.32)"
       id="g129">
      <g
         fill="#fff"
         transform="translate(0 -1)"
         id="g131">
        <path
           d="m 16,0 0,33 0.055,0 L 24,25.187 31.945,33 32,33 32,0 m -8,11 2,4 5,0 -4,4 2,5 -5,-3.5 -5,3.5 2,-5 -4,-4 5,0 m 2,-4"
           id="path133" />
        <path
           d="m 16,21 0,12 0.063,0 7.938,-7.813 7.938,7.813 0.066,0 0,-12 -4.191,0 1.191,3 -4.281,-3 -1.441,0 -4.27,3 1.188,-3 m -4.188,0"
           id="path135" />
      </g>
    </g>
  </g>
</svg>
