<?xml version="1.0" encoding="UTF-8" standalone="no"?>
<svg
   xmlns:dc="http://purl.org/dc/elements/1.1/"
   xmlns:cc="http://creativecommons.org/ns#"
   xmlns:rdf="http://www.w3.org/1999/02/22-rdf-syntax-ns#"
   xmlns:svg="http://www.w3.org/2000/svg"
   xmlns="http://www.w3.org/2000/svg"
   xmlns:sodipodi="http://sodipodi.sourceforge.net/DTD/sodipodi-0.dtd"
   xmlns:inkscape="http://www.inkscape.org/namespaces/inkscape"
   viewBox="0 0 256 256"
   id="svg2"
   version="1.1"
   inkscape:version="0.91 r13725"
   sodipodi:docname="distribute-horizontal-page.svg">
  <metadata
     id="metadata46">
    <rdf:RDF>
      <cc:Work
         rdf:about="">
        <dc:format>image/svg+xml</dc:format>
        <dc:type
           rdf:resource="http://purl.org/dc/dcmitype/StillImage" />
      </cc:Work>
    </rdf:RDF>
  </metadata>
  <sodipodi:namedview
     pagecolor="#ffffff"
     bordercolor="#666666"
     borderopacity="1"
     objecttolerance="10"
     gridtolerance="10"
     guidetolerance="10"
     inkscape:pageopacity="0"
     inkscape:pageshadow="2"
     inkscape:window-width="1280"
     inkscape:window-height="910"
     id="namedview44"
     showgrid="false"
     inkscape:zoom="0.921875"
     inkscape:cx="-111.18644"
     inkscape:cy="128"
     inkscape:window-x="0"
     inkscape:window-y="25"
     inkscape:window-maximized="1"
     inkscape:current-layer="g26" />
  <defs
     id="defs4">
    <clipPath
       id="clipPath6">
      <path
         d="m 171 132 h 54.625 v 24 h -54.625"
         id="path8" />
    </clipPath>
    <clipPath
       id="clipPath10">
      <path
         d="m 148 97 h 77.63 v 24 h -77.62"
         id="path12" />
    </clipPath>
    <clipPath
       id="clipPath14">
      <path
         d="m 27.707 56.824 h 82.29 v 139.69 h -82.29"
         id="path16" />
    </clipPath>
    <clipPath
       id="clipPath18">
      <path
         d="m 74 56.824 h 129 v 139.69 h -129"
         id="path20" />
    </clipPath>
  </defs>
  <g
     transform="translate(0 -796.36)"
     id="g22">
    <path
       d="m 60.17 822.74 c 130.93 -92.05 263.6 77.948 156.91 186.39 -100.51 102.17 -256.68 7.449 -207.86 -119.69 10.185 -26.526 26.914 -49.802 50.948 -66.7 z"
       style="fill:#a9a9a9;color:#000"
       id="path24" />
    <g
       transform="matrix(4.5435 0 0 4.91171 24.38 809.86)"
       style="fill:#fff;fill-rule:evenodd"
       id="g26">
      <g
         style="fill:#fff"
         id="g28">
        <path
           transform="matrix(0 -1 1 0 0 0)"
           d="m -26 9 h 4 v 30 h -4 z"
           id="path30" />
        <g
           transform="scale(-1 1)"
           id="g32">
          <path
             d="m -35 14 h 9 v 4 h -9 z"
             id="path34" />
          <path
             d="m -22.1 9 h 9 v 9 h -9 z"
             id="path36" />
        </g>
      </g>
      <g
         transform="scale(-1 -1)"
         style="fill:#ffffff;fill-opacity:1"
         id="g38">
        <path
           d="m -35 -33.949 h 9 v 4 h -9 z"
           id="path40"
           style="fill:#ffffff;fill-opacity:1" />
        <path
           d="m -22.1 -38.949 h 9 v 9 h -9 z"
           id="path42"
           style="fill:#ffffff;fill-opacity:1" />
      </g>
    </g>
  </g>
</svg>
