<?xml version="1.0" encoding="UTF-8" standalone="no"?>
<svg
   xmlns:dc="http://purl.org/dc/elements/1.1/"
   xmlns:cc="http://creativecommons.org/ns#"
   xmlns:rdf="http://www.w3.org/1999/02/22-rdf-syntax-ns#"
   xmlns:svg="http://www.w3.org/2000/svg"
   xmlns="http://www.w3.org/2000/svg"
   xmlns:sodipodi="http://sodipodi.sourceforge.net/DTD/sodipodi-0.dtd"
   xmlns:inkscape="http://www.inkscape.org/namespaces/inkscape"
   viewBox="0 0 256 256"
   id="svg2"
   version="1.1"
   inkscape:version="0.91 r13725"
   sodipodi:docname="edit-flag.svg">
  <metadata
     id="metadata38">
    <rdf:RDF>
      <cc:Work
         rdf:about="">
        <dc:format>image/svg+xml</dc:format>
        <dc:type
           rdf:resource="http://purl.org/dc/dcmitype/StillImage" />
      </cc:Work>
    </rdf:RDF>
  </metadata>
  <sodipodi:namedview
     pagecolor="#ffffff"
     bordercolor="#666666"
     borderopacity="1"
     objecttolerance="10"
     gridtolerance="10"
     guidetolerance="10"
     inkscape:pageopacity="0"
     inkscape:pageshadow="2"
     inkscape:window-width="1280"
     inkscape:window-height="910"
     id="namedview36"
     showgrid="false"
     inkscape:zoom="0.921875"
     inkscape:cx="128"
     inkscape:cy="128"
     inkscape:window-x="0"
     inkscape:window-y="25"
     inkscape:window-maximized="1"
     inkscape:current-layer="g30" />
  <defs
     id="defs4">
    <clipPath
       id="clipPath6">
      <path
         d="m 74 56.824 h 129 v 139.69 h -129"
         id="path8" />
    </clipPath>
    <clipPath
       id="clipPath10">
      <path
         d="m 27.707 56.824 h 82.29 v 139.69 h -82.29"
         id="path12" />
    </clipPath>
    <clipPath
       id="clipPath14">
      <path
         d="m 171 132 h 54.625 v 24 h -54.625"
         id="path16" />
    </clipPath>
    <clipPath
       id="clipPath18">
      <path
         d="m 148 97 h 77.63 v 24 h -77.62"
         id="path20" />
    </clipPath>
    <clipPath
       id="clipPath22">
      <path
         transform="matrix(15.33333 0 0 11.5 415 -125.5)"
         d="m -24 13 c 0 1.105 -0.672 2 -1.5 2 -0.828 0 -1.5 -0.895 -1.5 -2 0 -1.105 0.672 -2 1.5 -2 0.828 0 1.5 0.895 1.5 2 z"
         id="path24" />
    </clipPath>
  </defs>
  <g
     transform="matrix(-0.99153 0 0 0.98729 254.92 -784.07)"
     style="fill:#a9a9a9;color:#000"
     id="g26">
    <path
       d="m 203.23 1027.39 c -192.46 127.95 -311 -280.09 -62.2 -226.07 102.82 23.02 165.22 167.39 62.2 226.07 z"
       style="fill:#a9a9a9;fill-opacity:1"
       id="path28" />
    <g
       transform="matrix(-3.74359 0 0 3.59036 216.76 841.68)"
       style="fill-rule:evenodd"
       id="g30">
      <path
         d="m 36 4 h -24 v 38.36 l 12 -12.365 l 12 12.365 z"
         style="fill:#ffffff;fill-opacity:1"
         id="path32" />
      <path
         d="m 12 4 v 38.36 l 4 -4.112 v -34.25 z m 20 0 v 34.24 l 4 4.12 v -38.36 z"
         style="fill-opacity:0.1"
         id="path34" />
    </g>
  </g>
</svg>
