<svg xmlns="http://www.w3.org/2000/svg" viewBox="0 0 256 256"><defs><clipPath><path d="m 148 97 h 77.63 v 24 h -77.62"/></clipPath><clipPath><path d="m 171 132 h 54.625 v 24 h -54.625"/></clipPath><clipPath><path d="m 74 56.824 h 129 v 139.69 h -129"/></clipPath><clipPath><path d="m 27.707 56.824 h 82.29 v 139.69 h -82.29"/></clipPath></defs><path d="m 260.02 66.64 c -48.541 -88.14 -200.63 -53.931 -226.36 18.64 -30.66 86.45 49.14 250.63 184.3 154.45 45.527 -33.585 90.6 -84.949 42.05 -173.09 z" transform="translate(-26.04 -13.02)" style="fill:#a9a9a9;color:#000"/><g transform="matrix(12.1222 0 0 10.70663 -5082.63 -5654.77)"><path d="m 425.71 534.79 h 2 v 10 h -2 z" style="fill:#f27935"/><path d="m 429.71 534.79 h 2 v 10 h -2 z" style="fill:#04896a"/><path d="m 433.71 534.79 h 2 v 10 h -2 z" style="fill:#3a539b"/><path d="m 423.71 534.79 h 2 v 10 h -2 z" style="fill:#fdd285"/><path d="m 431.71 534.79 h 2 v 10 h -2 z" style="fill:#1d99f3"/><path d="m 427.71 534.79 h 2 v 10 h -2 z" style="fill:#7fcc74"/></g></svg>