<?xml version="1.0" encoding="UTF-8" standalone="no"?>
<svg
   xmlns:dc="http://purl.org/dc/elements/1.1/"
   xmlns:cc="http://creativecommons.org/ns#"
   xmlns:rdf="http://www.w3.org/1999/02/22-rdf-syntax-ns#"
   xmlns:svg="http://www.w3.org/2000/svg"
   xmlns="http://www.w3.org/2000/svg"
   xmlns:xlink="http://www.w3.org/1999/xlink"
   xmlns:sodipodi="http://sodipodi.sourceforge.net/DTD/sodipodi-0.dtd"
   xmlns:inkscape="http://www.inkscape.org/namespaces/inkscape"
   viewBox="0 0 256 256"
   id="svg2"
   version="1.1"
   inkscape:version="0.91 r13725"
   sodipodi:docname="folder-video.svg">
  <metadata
     id="metadata47">
    <rdf:RDF>
      <cc:Work
         rdf:about="">
        <dc:format>image/svg+xml</dc:format>
        <dc:type
           rdf:resource="http://purl.org/dc/dcmitype/StillImage" />
      </cc:Work>
    </rdf:RDF>
  </metadata>
  <sodipodi:namedview
     pagecolor="#ffffff"
     bordercolor="#666666"
     borderopacity="1"
     objecttolerance="10"
     gridtolerance="10"
     guidetolerance="10"
     inkscape:pageopacity="0"
     inkscape:pageshadow="2"
     inkscape:window-width="1280"
     inkscape:window-height="910"
     id="namedview45"
     showgrid="false"
     inkscape:zoom="0.921875"
     inkscape:cx="128"
     inkscape:cy="128"
     inkscape:window-x="0"
     inkscape:window-y="25"
     inkscape:window-maximized="1"
     inkscape:current-layer="g38" />
  <defs
     id="defs4">
    <clipPath
       id="clipPath6">
      <path
         d="m 171 132 h 54.625 v 24 h -54.625"
         id="path8" />
    </clipPath>
    <clipPath
       id="clipPath10">
      <path
         d="m 74 56.824 h 129 v 139.69 h -129"
         id="path12" />
    </clipPath>
    <clipPath
       id="clipPath14">
      <path
         d="m 148 97 h 77.63 v 24 h -77.62"
         id="path16" />
    </clipPath>
    <clipPath
       id="clipPath18">
      <path
         d="m 27.707 56.824 h 82.29 v 139.69 h -82.29"
         id="path20" />
    </clipPath>
    <clipPath
       id="clipPath22">
      <path
         d="m 148 97 h 77.63 v 24 h -77.62 Z"
         id="path24" />
    </clipPath>
    <clipPath
       id="clipPath26">
      <path
         d="m 74 56.824 h 129 v 139.69 h -129 Z"
         id="path28" />
    </clipPath>
    <clipPath
       id="clipPath30">
      <path
         d="m 171 132 h 54.625 v 24 h -54.625 Z"
         id="path32" />
    </clipPath>
    <clipPath
       id="clipPath34">
      <path
         d="m 27.707 56.824 h 82.29 v 139.69 h -82.29 Z"
         id="path36" />
    </clipPath>
  </defs>
  <g
     transform="translate(0 -796.36)"
     id="g38">
    <path
       d="m 60.17 822.74 c 130.93 -92.05 263.6 77.948 156.91 186.39 -100.51 102.17 -256.68 7.449 -207.86 -119.69 10.185 -26.526 26.914 -49.802 50.948 -66.7 z"
       style="fill:#a9a9a9;color:#000;fill-opacity:1"
       id="path40" />
    <path
       d="m 80.66 864.9 v 8.307 c 0 0.935 -1.525 1.704 -3.381 1.704 h -9.721 c -1.856 0 -3.381 -0.769 -3.381 -1.704 v -6.923 c -2.086 0.965 -3.381 2.39 -3.381 3.941 v 128.44 c 0 1.55 1.295 2.976 3.381 3.941 v -6.923 c 0 -0.935 1.525 -1.704 3.381 -1.704 h 9.721 c 1.856 0 3.381 0.769 3.381 1.704 v 8.307 h 7.185 v -7.455 c 0 -2.784 5.158 -5.112 11.623 -5.112 h 57.27 c 6.465 0 11.834 2.328 11.834 5.112 v 7.455 h 6.551 v -8.307 c 0 -0.935 1.525 -1.704 3.381 -1.704 h 9.721 c 1.856 0 3.381 0.769 3.381 1.704 v 6.923 c 2.145 -0.967 3.593 -2.365 3.593 -3.941 v -128.44 c 0 -1.576 -1.447 -2.974 -3.593 -3.941 v 6.923 c 0 0.935 -1.525 1.704 -3.381 1.704 h -9.721 c -1.856 0 -3.381 -0.769 -3.381 -1.704 v -8.307 h -6.551 v 7.562 c 0 2.784 -5.369 5.01 -11.834 5.01 h -57.27 c -6.465 0 -11.623 -2.222 -11.623 -5.01 v -7.562 h -7.185 z m -13.1 12.04 h 9.721 c 1.856 0 3.381 0.769 3.381 1.704 v 11.289 c 0 0.935 -1.525 1.704 -3.381 1.704 h -9.721 c -1.856 0 -3.381 -0.769 -3.381 -1.704 v -11.289 c 0 -0.935 1.525 -1.704 3.381 -1.704 z m 110.95 0 h 9.721 c 1.856 0 3.381 0.769 3.381 1.704 v 11.289 c 0 0.935 -1.525 1.704 -3.381 1.704 h -9.721 c -1.856 0 -3.381 -0.769 -3.381 -1.704 v -11.289 c 0 -0.935 1.525 -1.704 3.381 -1.704 z m -110.95 16.721 h 9.721 c 1.856 0 3.381 0.769 3.381 1.704 v 11.289 c 0 0.935 -1.525 1.704 -3.381 1.704 h -9.721 c -1.856 0 -3.381 -0.769 -3.381 -1.704 v -11.289 c 0 -0.935 1.525 -1.704 3.381 -1.704 z m 31.91 0 h 57.27 c 6.465 0 11.834 2.222 11.834 5.01 v 22.685 c 0 2.784 -5.369 5.01 -11.834 5.01 h -57.27 c -6.465 0 -11.623 -2.222 -11.623 -5.01 v -22.685 c 0 -2.784 5.158 -5.01 11.623 -5.01 z m 79.04 0 h 9.721 c 1.856 0 3.381 0.769 3.381 1.704 v 11.289 c 0 0.935 -1.525 1.704 -3.381 1.704 h -9.721 c -1.856 0 -3.381 -0.769 -3.381 -1.704 v -11.289 c 0 -0.935 1.525 -1.704 3.381 -1.704 z m -110.95 16.721 h 9.721 c 1.856 0 3.381 0.769 3.381 1.704 v 11.289 c 0 0.935 -1.525 1.704 -3.381 1.704 h -9.721 c -1.856 0 -3.381 -0.769 -3.381 -1.704 v -11.289 c 0 -0.935 1.525 -1.704 3.381 -1.704 z m 110.95 0 h 9.721 c 1.856 0 3.381 0.769 3.381 1.704 v 11.289 c 0 0.935 -1.525 1.704 -3.381 1.704 h -9.721 c -1.856 0 -3.381 -0.769 -3.381 -1.704 v -11.289 c 0 -0.935 1.525 -1.704 3.381 -1.704 z m -110.95 16.721 h 9.721 c 1.856 0 3.381 0.769 3.381 1.704 v 11.289 c 0 0.935 -1.525 1.704 -3.381 1.704 h -9.721 c -1.856 0 -3.381 -0.769 -3.381 -1.704 v -11.289 c 0 -0.935 1.525 -1.704 3.381 -1.704 z m 110.95 0 h 9.721 c 1.856 0 3.381 0.769 3.381 1.704 v 11.289 c 0 0.935 -1.525 1.704 -3.381 1.704 h -9.721 c -1.856 0 -3.381 -0.769 -3.381 -1.704 v -11.289 c 0 -0.935 1.525 -1.704 3.381 -1.704 z m -79.04 15.55 h 57.27 c 6.465 0 11.834 2.222 11.834 5.01 v 22.579 c 0 2.784 -5.369 5.01 -11.834 5.01 h -57.27 c -6.465 0 -11.623 -2.222 -11.623 -5.01 v -22.579 c 0 -2.784 5.158 -5.01 11.623 -5.01 z m -31.91 1.172 h 9.721 c 1.856 0 3.381 0.769 3.381 1.704 v 11.289 c 0 0.936 -1.525 1.704 -3.381 1.704 h -9.721 c -1.856 0 -3.381 -0.769 -3.381 -1.704 v -11.289 c 0 -0.935 1.525 -1.704 3.381 -1.704 z m 110.95 0 h 9.721 c 1.856 0 3.381 0.769 3.381 1.704 v 11.289 c 0 0.936 -1.525 1.704 -3.381 1.704 h -9.721 c -1.856 0 -3.381 -0.769 -3.381 -1.704 v -11.289 c 0 -0.935 1.525 -1.704 3.381 -1.704 z m -110.95 16.721 h 9.721 c 1.856 0 3.381 0.769 3.381 1.704 v 11.289 c 0 0.935 -1.525 1.704 -3.381 1.704 h -9.721 c -1.856 0 -3.381 -0.769 -3.381 -1.704 v -11.289 c 0 -0.935 1.525 -1.704 3.381 -1.704 z m 110.95 0 h 9.721 c 1.856 0 3.381 0.769 3.381 1.704 v 11.289 c 0 0.935 -1.525 1.704 -3.381 1.704 h -9.721 c -1.856 0 -3.381 -0.769 -3.381 -1.704 v -11.289 c 0 -0.935 1.525 -1.704 3.381 -1.704 z m -110.95 16.721 h 9.721 c 1.856 0 3.381 0.769 3.381 1.704 v 11.289 c 0 0.936 -1.525 1.704 -3.381 1.704 h -9.721 c -1.856 0 -3.381 -0.769 -3.381 -1.704 v -11.289 c 0 -0.935 1.525 -1.704 3.381 -1.704 z m 110.95 0 h 9.721 c 1.856 0 3.381 0.769 3.381 1.704 v 11.289 c 0 0.936 -1.525 1.704 -3.381 1.704 h -9.721 c -1.856 0 -3.381 -0.769 -3.381 -1.704 v -11.289 c 0 -0.935 1.525 -1.704 3.381 -1.704 z"
       id="0"
       style="fill:#fff" />
    <use
       xlink:href="#0"
       id="use43" />
  </g>
</svg>
