<?xml version="1.0" encoding="UTF-8" standalone="no"?>
<svg
   xmlns:dc="http://purl.org/dc/elements/1.1/"
   xmlns:cc="http://creativecommons.org/ns#"
   xmlns:rdf="http://www.w3.org/1999/02/22-rdf-syntax-ns#"
   xmlns:svg="http://www.w3.org/2000/svg"
   xmlns="http://www.w3.org/2000/svg"
   xmlns:sodipodi="http://sodipodi.sourceforge.net/DTD/sodipodi-0.dtd"
   xmlns:inkscape="http://www.inkscape.org/namespaces/inkscape"
   viewBox="0 0 256 256"
   id="svg2"
   version="1.1"
   inkscape:version="0.91 r13725"
   sodipodi:docname="folder-downloads.svg">
  <metadata
     id="metadata34">
    <rdf:RDF>
      <cc:Work
         rdf:about="">
        <dc:format>image/svg+xml</dc:format>
        <dc:type
           rdf:resource="http://purl.org/dc/dcmitype/StillImage" />
      </cc:Work>
    </rdf:RDF>
  </metadata>
  <sodipodi:namedview
     pagecolor="#ffffff"
     bordercolor="#666666"
     borderopacity="1"
     objecttolerance="10"
     gridtolerance="10"
     guidetolerance="10"
     inkscape:pageopacity="0"
     inkscape:pageshadow="2"
     inkscape:window-width="1280"
     inkscape:window-height="910"
     id="namedview32"
     showgrid="false"
     inkscape:zoom="0.921875"
     inkscape:cx="-111.18644"
     inkscape:cy="128"
     inkscape:window-x="0"
     inkscape:window-y="25"
     inkscape:window-maximized="1"
     inkscape:current-layer="g22" />
  <defs
     id="defs4">
    <clipPath
       id="clipPath6">
      <path
         d="m 27.707 56.824 h 82.29 v 139.69 h -82.29"
         id="path8" />
    </clipPath>
    <clipPath
       id="clipPath10">
      <path
         d="m 74 56.824 h 129 v 139.69 h -129"
         id="path12" />
    </clipPath>
    <clipPath
       id="clipPath14">
      <path
         d="m 148 97 h 77.63 v 24 h -77.62"
         id="path16" />
    </clipPath>
    <clipPath
       id="clipPath18">
      <path
         d="m 171 132 h 54.625 v 24 h -54.625"
         id="path20" />
    </clipPath>
  </defs>
  <g
     transform="translate(0 -796.36)"
     id="g22">
    <path
       d="m 60.17 822.74 c 130.93 -92.05 263.6 77.948 156.91 186.39 -100.51 102.17 -256.68 7.449 -207.86 -119.69 10.185 -26.526 26.914 -49.802 50.948 -66.7 z"
       style="fill:#a9a9a9;color:#000;fill-opacity:1"
       id="path24" />
    <g
       transform="matrix(9.82876 0 0 9.69289 49.638 849.82)"
       style="fill:#fff;color:#bebebe"
       id="g26">
      <path
         d="M 8,0 C 3.582,0 0,3.582 0,8 c 0,4.418 3.582,8 8,8 4.418,0 8,-3.582 8,-8 C 16,3.582 12.418,0 8,0 z m 0,2 c 3.314,0 6,2.686 6,6 0,3.314 -2.686,6 -6,6 C 4.686,14 2,11.314 2,8 2,4.686 4.686,2 8,2 z"
         id="path28" />
      <path
         d="M 7,4 7,8 4,8 8,12 12,8 9,8 9,4 z"
         id="path30" />
    </g>
  </g>
</svg>
