<?xml version="1.0" encoding="UTF-8" standalone="no"?>
<svg
   xmlns:dc="http://purl.org/dc/elements/1.1/"
   xmlns:cc="http://creativecommons.org/ns#"
   xmlns:rdf="http://www.w3.org/1999/02/22-rdf-syntax-ns#"
   xmlns:svg="http://www.w3.org/2000/svg"
   xmlns="http://www.w3.org/2000/svg"
   xmlns:sodipodi="http://sodipodi.sourceforge.net/DTD/sodipodi-0.dtd"
   xmlns:inkscape="http://www.inkscape.org/namespaces/inkscape"
   viewBox="0 0 256 256"
   id="svg2"
   version="1.1"
   inkscape:version="0.91 r13725"
   sodipodi:docname="folder-music.svg">
  <metadata
     id="metadata30">
    <rdf:RDF>
      <cc:Work
         rdf:about="">
        <dc:format>image/svg+xml</dc:format>
        <dc:type
           rdf:resource="http://purl.org/dc/dcmitype/StillImage" />
      </cc:Work>
    </rdf:RDF>
  </metadata>
  <sodipodi:namedview
     pagecolor="#ffffff"
     bordercolor="#666666"
     borderopacity="1"
     objecttolerance="10"
     gridtolerance="10"
     guidetolerance="10"
     inkscape:pageopacity="0"
     inkscape:pageshadow="2"
     inkscape:window-width="1280"
     inkscape:window-height="910"
     id="namedview28"
     showgrid="false"
     inkscape:zoom="0.921875"
     inkscape:cx="128"
     inkscape:cy="128"
     inkscape:window-x="0"
     inkscape:window-y="25"
     inkscape:window-maximized="1"
     inkscape:current-layer="g22" />
  <defs
     id="defs4">
    <clipPath
       id="clipPath6">
      <path
         d="m 148 97 h 77.63 v 24 h -77.62 Z"
         id="path8" />
    </clipPath>
    <clipPath
       id="clipPath10">
      <path
         d="m 171 132 h 54.625 v 24 h -54.625 Z"
         id="path12" />
    </clipPath>
    <clipPath
       id="clipPath14">
      <path
         d="m 74 56.824 h 129 v 139.69 h -129 Z"
         id="path16" />
    </clipPath>
    <clipPath
       id="clipPath18">
      <path
         d="m 27.707 56.824 h 82.29 v 139.69 h -82.29 Z"
         id="path20" />
    </clipPath>
  </defs>
  <g
     transform="translate(0 -796.36)"
     id="g22">
    <path
       d="m 60.17 822.74 c 130.93 -92.05 263.6 77.948 156.91 186.39 -100.51 102.17 -256.68 7.449 -207.86 -119.69 10.185 -26.526 26.914 -49.802 50.948 -66.7 z"
       style="fill:#a9a9a9;color:#000;fill-opacity:1"
       id="path24" />
    <path
       d="m 13.375 0 l -7.375 1.906 c -0.554 0.148 -1 0.739 -1 1.313 v 9.09 c -0.562 -0.294 -1.283 -0.413 -2.031 -0.219 -1.35 0.351 -2.196 1.484 -1.906 2.531 0.289 1.047 1.619 1.632 2.969 1.281 1.077 -0.28 1.819 -1.071 1.938 -1.906 l 0.031 -8.594 l 7 -1.875 v 6.781 c -0.562 -0.294 -1.283 -0.413 -2.031 -0.219 -1.35 0.351 -2.196 1.484 -1.906 2.531 c 0.289 1.047 1.619 1.632 2.969 1.281 c 1.077 -0.28 1.819 -1.071 1.938 -1.906 l 0.031 -11.188 c 0 -0.43 -0.266 -0.752 -0.625 -0.813 z"
       transform="matrix(8.69575 0 0 7.51839 51.06 866.1)"
       style="fill:#fff;color:#bebebe"
       id="path26" />
  </g>
</svg>
