<?xml version="1.0" encoding="UTF-8" standalone="no"?>
<svg
   xmlns:dc="http://purl.org/dc/elements/1.1/"
   xmlns:cc="http://creativecommons.org/ns#"
   xmlns:rdf="http://www.w3.org/1999/02/22-rdf-syntax-ns#"
   xmlns:svg="http://www.w3.org/2000/svg"
   xmlns="http://www.w3.org/2000/svg"
   xmlns:sodipodi="http://sodipodi.sourceforge.net/DTD/sodipodi-0.dtd"
   xmlns:inkscape="http://www.inkscape.org/namespaces/inkscape"
   viewBox="0 0 256 256"
   id="svg2"
   version="1.1"
   inkscape:version="0.91 r13725"
   sodipodi:docname="folder-recent.svg">
  <metadata
     id="metadata34">
    <rdf:RDF>
      <cc:Work
         rdf:about="">
        <dc:format>image/svg+xml</dc:format>
        <dc:type
           rdf:resource="http://purl.org/dc/dcmitype/StillImage" />
      </cc:Work>
    </rdf:RDF>
  </metadata>
  <sodipodi:namedview
     pagecolor="#ffffff"
     bordercolor="#666666"
     borderopacity="1"
     objecttolerance="10"
     gridtolerance="10"
     guidetolerance="10"
     inkscape:pageopacity="0"
     inkscape:pageshadow="2"
     inkscape:window-width="1280"
     inkscape:window-height="910"
     id="namedview32"
     showgrid="false"
     inkscape:zoom="0.921875"
     inkscape:cx="128"
     inkscape:cy="128"
     inkscape:window-x="0"
     inkscape:window-y="25"
     inkscape:window-maximized="1"
     inkscape:current-layer="g22" />
  <defs
     id="defs4">
    <clipPath
       id="clipPath6">
      <path
         d="m 148 97 h 77.63 v 24 h -77.62 Z"
         id="path8" />
    </clipPath>
    <clipPath
       id="clipPath10">
      <path
         d="m 171 132 h 54.625 v 24 h -54.625 Z"
         id="path12" />
    </clipPath>
    <clipPath
       id="clipPath14">
      <path
         d="m 74 56.824 h 129 v 139.69 h -129 Z"
         id="path16" />
    </clipPath>
    <clipPath
       id="clipPath18">
      <path
         d="m 27.707 56.824 h 82.29 v 139.69 h -82.29 Z"
         id="path20" />
    </clipPath>
  </defs>
  <g
     transform="translate(0 -796.36)"
     id="g22">
    <path
       d="m 60.17 822.74 c 130.93 -92.05 263.6 77.948 156.91 186.39 -100.51 102.17 -256.68 7.449 -207.86 -119.69 10.185 -26.526 26.914 -49.802 50.948 -66.7 z"
       style="fill:#a9a9a9;color:#000;fill-opacity:1"
       id="path24" />
    <g
       transform="matrix(3.06306 0 0 3.68361 -108.13 831.73)"
       style="fill:#fff;color:#bebebe"
       id="g26">
      <path
         d="m 77.57 6.945 c -11.317 0 -20.631 6.319 -21.649 15.54 h -5.49 l 8.108 8.633 l 8.108 -8.633 h -5.293 c 1 -6.722 7.89 -11.04 16.215 -11.04 9.01 0 16.328 6.104 16.328 13.625 0 7.521 -7.315 13.625 -16.328 13.625 -4.89 0 -9.281 -1.8 -12.274 -4.645 l -3.969 3.069 c 3.982 3.736 9.784 6.081 16.244 6.081 11.997 0 21.733 -8.122 21.733 -18.13 0 -10.01 -9.736 -18.13 -21.733 -18.13 z"
         id="path28" />
      <path
         d="m 78.94 13.852 h -2.036 l -2.036 12.09 l 10.182 6.907 v -1.727 l -6.109 -6.907 v -10.36 z"
         id="path30" />
    </g>
  </g>
</svg>
