<?xml version="1.0" encoding="UTF-8" standalone="no"?>
<svg
   xmlns:dc="http://purl.org/dc/elements/1.1/"
   xmlns:cc="http://creativecommons.org/ns#"
   xmlns:rdf="http://www.w3.org/1999/02/22-rdf-syntax-ns#"
   xmlns:svg="http://www.w3.org/2000/svg"
   xmlns="http://www.w3.org/2000/svg"
   xmlns:sodipodi="http://sodipodi.sourceforge.net/DTD/sodipodi-0.dtd"
   xmlns:inkscape="http://www.inkscape.org/namespaces/inkscape"
   viewBox="0 0 256 256"
   id="svg2"
   version="1.1"
   inkscape:version="0.91 r13725"
   sodipodi:docname="kdesvnnewfolder.svg">
  <metadata
     id="metadata32">
    <rdf:RDF>
      <cc:Work
         rdf:about="">
        <dc:format>image/svg+xml</dc:format>
        <dc:type
           rdf:resource="http://purl.org/dc/dcmitype/StillImage" />
      </cc:Work>
    </rdf:RDF>
  </metadata>
  <sodipodi:namedview
     pagecolor="#ffffff"
     bordercolor="#666666"
     borderopacity="1"
     objecttolerance="10"
     gridtolerance="10"
     guidetolerance="10"
     inkscape:pageopacity="0"
     inkscape:pageshadow="2"
     inkscape:window-width="796"
     inkscape:window-height="480"
     id="namedview30"
     showgrid="false"
     inkscape:zoom="0.921875"
     inkscape:cx="128"
     inkscape:cy="128"
     inkscape:window-x="0"
     inkscape:window-y="25"
     inkscape:window-maximized="0"
     inkscape:current-layer="g10" />
  <defs
     id="defs4">
    <clipPath
       id="clipPath6">
      <path
         transform="matrix(15.33333 0 0 11.5 415 -125.5)"
         d="m -24 13 c 0 1.105 -0.672 2 -1.5 2 -0.828 0 -1.5 -0.895 -1.5 -2 0 -1.105 0.672 -2 1.5 -2 0.828 0 1.5 0.895 1.5 2 z"
         id="path8" />
    </clipPath>
  </defs>
  <g
     transform="matrix(1 0 0 0.99601 0.613 -792.78)"
     id="g10">
    <g
       transform="translate(0 12.143)"
       style="color:#000"
       id="g12">
      <path
         d="m 227.81 832.08 c 87.44 110.84 -44.799 278.58 -174.02 176.43 -122.38 -96.74 -16.907 -267.55 126.43 -214.19 c 19.694 7.333 34.821 21.566 47.595 37.758 z"
         style="fill:#f60"
         id="path14" />
      <path
         d="m 75.11 855.5 h 54.86 l 7.272 10.965 h 50.52 c 6.776 0 12.231 5.63 12.231 12.624 v 55.38 c 0 6.994 -5.455 12.624 -12.231 12.624 h -112.65 c -6.776 0 -12.231 -5.63 -12.231 -12.624 v -66.35 c 0 -6.994 5.455 -12.624 12.231 -12.624 z"
         style="fill:#eeb5ac"
         id="path16" />
      <rect
         rx="12.231"
         y="882.61"
         x="65.02"
         height="84.74"
         width="137.11"
         style="fill:#fff"
         id="rect18" />
    </g>
    <path
       d="m 122.17 1050.66 c -37.542 -5.136 -77.05 -30.841 -100.79 -65.58 -5.01 -7.328 -12.485 -22.546 -14.935 -30.396 -4.238 -13.579 -5.04 -19.248 -5.02 -35.685 c 0.013 -12.994 0.246 -16.315 1.568 -22.359 3.468 -15.853 9.786 -30.663 18.814 -44.1 7.395 -11 22.295 -25.783 33.374 -33.1 35.628 -23.534 79.51 -27.908 122.93 -12.253 17.907 6.457 33.428 18.261 48.01 36.513 20.799 26.04 30.25 53.699 29.09 85.2 -0.594 16.241 -3.339 29.21 -9.325 44.06 -21.23 52.663 -72.29 84.73 -123.72 77.69 z m 74.59 -84.929 c 5.737 -3.782 5.582 -2.55 5.582 -44.25 v -36.91 l -1.674 -2.822 c -3.859 -6.505 -4.586 -6.644 -35.07 -6.707 l -26.06 -0.054 l -3.757 -5.36 l -3.757 -5.36 l -29.03 0.214 l -29.03 0.214 l -3.03 1.999 c -5.931 3.911 -5.736 2.226 -5.754 49.71 -0.017 45.27 -0.098 44.27 3.876 47.994 3.833 3.587 2.915 3.54 65.995 3.374 l 58.842 -0.155 l 2.865 -1.889 z"
       style="fill:#a9a9a9;fill-opacity:1;stroke:#000000;stroke-opacity:1"
       id="path20" />
    <rect
       width="137.11"
       height="84.74"
       x="230.73"
       y="696.18"
       rx="12.231"
       transform="translate(-166.57 193.71)"
       style="fill:#fff;color:#000;stroke-width:1;stroke:none;stroke-opacity:1"
       id="rect22" />
  </g>
  <g
     style="fill:#9acd32;fill-rule:evenodd"
     id="g24">
    <rect
       width="71.45"
       height="22.456"
       x="127.59"
       y="138.62"
       rx="13.59"
       ry="11.228"
       id="rect26" />
    <rect
       ry="11.228"
       rx="13.59"
       y="-174.55"
       x="114.12"
       height="22.456"
       width="71.45"
       transform="matrix(0 1 -1 0 0 0)"
       id="rect28" />
  </g>
</svg>
