<?xml version="1.0" encoding="UTF-8" standalone="no"?>
<svg
   xmlns:dc="http://purl.org/dc/elements/1.1/"
   xmlns:cc="http://creativecommons.org/ns#"
   xmlns:rdf="http://www.w3.org/1999/02/22-rdf-syntax-ns#"
   xmlns:svg="http://www.w3.org/2000/svg"
   xmlns="http://www.w3.org/2000/svg"
   xmlns:sodipodi="http://sodipodi.sourceforge.net/DTD/sodipodi-0.dtd"
   xmlns:inkscape="http://www.inkscape.org/namespaces/inkscape"
   viewBox="0 0 256 256"
   id="svg2"
   version="1.1"
   inkscape:version="0.91 r13725"
   sodipodi:docname="mail-signed-part.svg">
  <metadata
     id="metadata22">
    <rdf:RDF>
      <cc:Work
         rdf:about="">
        <dc:format>image/svg+xml</dc:format>
        <dc:type
           rdf:resource="http://purl.org/dc/dcmitype/StillImage" />
      </cc:Work>
    </rdf:RDF>
  </metadata>
  <sodipodi:namedview
     pagecolor="#ffffff"
     bordercolor="#666666"
     borderopacity="1"
     objecttolerance="10"
     gridtolerance="10"
     guidetolerance="10"
     inkscape:pageopacity="0"
     inkscape:pageshadow="2"
     inkscape:window-width="1280"
     inkscape:window-height="910"
     id="namedview20"
     showgrid="false"
     inkscape:zoom="0.921875"
     inkscape:cx="128"
     inkscape:cy="128"
     inkscape:window-x="0"
     inkscape:window-y="25"
     inkscape:window-maximized="1"
     inkscape:current-layer="g10" />
  <defs
     id="defs4">
    <clipPath
       id="clipPath6">
      <path
         d="M 0,64 H64 V128 H0 z"
         id="path8" />
    </clipPath>
  </defs>
  <g
     style="color:#000"
     id="g10">
    <path
       d="m 8.283 163.17 c -47.8 -133.41 123.97 -198.28 188.51 -143.97 64.53 54.31 86.58 147.39 13.487 194.22 -73.09 46.832 -154.2 83.16 -202 -50.27 z"
       style="fill:#a9a9a9;fill-opacity:1"
       id="path12" />
    <g
       transform="matrix(7.18288 0 0 8.11845 52.24 40.33)"
       style="fill:#fff"
       id="g14">
      <path
         d="m 1,3 v 1 8 6 0.41406 0.586 h 1 6 3 v -1 H 8 2 v -0.58594 l 0.46289,-0.46289 6.2676,-6.2676 1.4531,1.4512 0.81445,0.81445 h 0.002 l 0.81641,-0.81445 1.4531,-1.4512 1.317,1.316 h 1.414 l -2.023,-2.0234 5.752,-5.7539 0.222,-0.2227 h 0.049 v 0.2227 5.7773 h 1 v -7 h -0.049 -0.951 -0.463 -17.074 -0.463 z M 2,4 H 2.0488 L 2.2715,4.2227 8.0234,9.9766 2,16 V 12 4.2227 z m 1.4629,0 h 15.074 l -7.537,7.537 z"
         id="path16" />
      <path
         d="M 19,11 18.004,11.994 18,11.99 13,16.988 13.008,16.996 13.004,18 H 13 V 18.99 19 h 2 l 0.006,-0.006 0.004,-0.004 c 0.004,0 0.006,0.002 0.01,0.002 L 15.014,18.986 16,18 l 4,-3.996 -0.705,-0.709 -4.99,4.986 -0.594,-0.592 4.992,-4.988 0.592,0.594 0.705,0.703 1,-1 L 19,11 z"
         id="path18" />
    </g>
  </g>
</svg>
