<?xml version="1.0" encoding="UTF-8" standalone="no"?>
<svg
   xmlns:dc="http://purl.org/dc/elements/1.1/"
   xmlns:cc="http://creativecommons.org/ns#"
   xmlns:rdf="http://www.w3.org/1999/02/22-rdf-syntax-ns#"
   xmlns:svg="http://www.w3.org/2000/svg"
   xmlns="http://www.w3.org/2000/svg"
   xmlns:sodipodi="http://sodipodi.sourceforge.net/DTD/sodipodi-0.dtd"
   xmlns:inkscape="http://www.inkscape.org/namespaces/inkscape"
   viewBox="0 0 256 256"
   id="svg2"
   version="1.1"
   inkscape:version="0.91 r13725"
   sodipodi:docname="media-playback-record.svg">
  <metadata
     id="metadata34">
    <rdf:RDF>
      <cc:Work
         rdf:about="">
        <dc:format>image/svg+xml</dc:format>
        <dc:type
           rdf:resource="http://purl.org/dc/dcmitype/StillImage" />
      </cc:Work>
    </rdf:RDF>
  </metadata>
  <sodipodi:namedview
     pagecolor="#ffffff"
     bordercolor="#666666"
     borderopacity="1"
     objecttolerance="10"
     gridtolerance="10"
     guidetolerance="10"
     inkscape:pageopacity="0"
     inkscape:pageshadow="2"
     inkscape:window-width="796"
     inkscape:window-height="480"
     id="namedview32"
     showgrid="false"
     inkscape:zoom="0.921875"
     inkscape:cx="128"
     inkscape:cy="128"
     inkscape:window-x="0"
     inkscape:window-y="25"
     inkscape:window-maximized="0"
     inkscape:current-layer="g26" />
  <defs
     id="defs4">
    <clipPath
       id="clipPath6">
      <path
         d="m 74 56.824 h 129 v 139.69 h -129"
         id="path8" />
    </clipPath>
    <clipPath
       id="clipPath10">
      <path
         d="m 27.707 56.824 h 82.29 v 139.69 h -82.29"
         id="path12" />
    </clipPath>
    <clipPath
       id="clipPath14">
      <path
         d="m 171 132 h 54.625 v 24 h -54.625"
         id="path16" />
    </clipPath>
    <clipPath
       id="clipPath18">
      <path
         d="m 148 97 h 77.63 v 24 h -77.62"
         id="path20" />
    </clipPath>
    <clipPath
       id="clipPath22">
      <path
         transform="matrix(15.33333 0 0 11.5 415 -125.5)"
         d="m -24 13 c 0 1.105 -0.672 2 -1.5 2 -0.828 0 -1.5 -0.895 -1.5 -2 0 -1.105 0.672 -2 1.5 -2 0.828 0 1.5 0.895 1.5 2 z"
         id="path24" />
    </clipPath>
  </defs>
  <g
     transform="matrix(-0.99153 0 0 0.98729 254.92 -784.07)"
     style="fill:#a9a9a9;color:#000"
     id="g26">
    <path
       d="m 203.23 1027.39 c -192.46 127.95 -311 -280.09 -62.2 -226.07 102.82 23.02 165.22 167.39 62.2 226.07 z"
       style="fill:#a9a9a9"
       id="path28" />
    <path
       d="m 68.929 926.02 c 0.004 33.979 27.19 61.52 60.718 61.52 33.531 0 60.714 -27.542 60.718 -61.52 0.004 -33.984 -27.18 -61.54 -60.718 -61.54 -33.537 0 -60.722 27.551 -60.718 61.54 z"
       style="fill:#ffffff;fill-rule:evenodd;fill-opacity:1"
       id="path30" />
  </g>
</svg>
