<?xml version="1.0" encoding="UTF-8" standalone="no"?>
<svg
   xmlns:dc="http://purl.org/dc/elements/1.1/"
   xmlns:cc="http://creativecommons.org/ns#"
   xmlns:rdf="http://www.w3.org/1999/02/22-rdf-syntax-ns#"
   xmlns:svg="http://www.w3.org/2000/svg"
   xmlns="http://www.w3.org/2000/svg"
   xmlns:sodipodi="http://sodipodi.sourceforge.net/DTD/sodipodi-0.dtd"
   xmlns:inkscape="http://www.inkscape.org/namespaces/inkscape"
   viewBox="0 0 256 256"
   id="svg2"
   version="1.1"
   inkscape:version="0.91 r13725"
   sodipodi:docname="media-playlist-shuffle-insensitive.svg">
  <metadata
     id="metadata30">
    <rdf:RDF>
      <cc:Work
         rdf:about="">
        <dc:format>image/svg+xml</dc:format>
        <dc:type
           rdf:resource="http://purl.org/dc/dcmitype/StillImage" />
      </cc:Work>
    </rdf:RDF>
  </metadata>
  <sodipodi:namedview
     pagecolor="#ffffff"
     bordercolor="#666666"
     borderopacity="1"
     objecttolerance="10"
     gridtolerance="10"
     guidetolerance="10"
     inkscape:pageopacity="0"
     inkscape:pageshadow="2"
     inkscape:window-width="796"
     inkscape:window-height="480"
     id="namedview28"
     showgrid="false"
     inkscape:zoom="0.921875"
     inkscape:cx="128"
     inkscape:cy="128"
     inkscape:window-x="0"
     inkscape:window-y="25"
     inkscape:window-maximized="0"
     inkscape:current-layer="g22" />
  <defs
     id="defs4">
    <clipPath
       id="clipPath6">
      <path
         d="m 148 97 h 77.63 v 24 h -77.62"
         id="path8" />
    </clipPath>
    <clipPath
       id="clipPath10">
      <path
         d="m 171 132 h 54.625 v 24 h -54.625"
         id="path12" />
    </clipPath>
    <clipPath
       id="clipPath14">
      <path
         d="m 27.707 56.824 h 82.29 v 139.69 h -82.29"
         id="path16" />
    </clipPath>
    <clipPath
       id="clipPath18">
      <path
         d="m 74 56.824 h 129 v 139.69 h -129"
         id="path20" />
    </clipPath>
  </defs>
  <g
     transform="matrix(0.99576 0 0 0.98305 1.104 -779.63)"
     id="g22">
    <path
       d="M 60.17,822.74 C 191.1,730.69 323.77,900.688 217.08,1009.13 116.57,1111.3 -39.6,1016.579 9.22,889.44 19.405,862.914 36.134,839.638 60.168,822.74 z"
       style="fill:#696969;color:#000;fill-opacity:1"
       id="path24" />
    <path
       d="m 159.1,862.93 v 22.2 c -30.644,0 -61.926,66.61 -82.24,66.61 H 56.301 v 22.2 H 76.86 c 30.773,0 61.63,-66.61 82.24,-66.61 v 22.2 l 41.12,-33.3 z m -102.8,22.2 v 22.2 h 20.559 c 5.978,0 12.975,6.079 20.559,14.224 1.238,-1.457 2.588,-2.772 3.855,-4.163 3.158,-3.611 6.451,-7.365 9.637,-11.1 -11.02,-11.709 -22.511,-21.16 -34.05,-21.16 H 56.301 z m 102.8,44.41 v 22.2 c -6.079,0 -13.281,-6.05 -20.88,-14.224 -4.358,5.05 -8.811,10.169 -13.171,15.265 11.06,11.709 22.56,21.16 34.05,21.16 v 22.2 l 41.12,-33.3 -41.12,-33.3 z"
       style="fill:#fff;color:#bebebe"
       id="path26" />
  </g>
</svg>
