<?xml version="1.0" encoding="UTF-8" standalone="no"?>
<svg
   xmlns:dc="http://purl.org/dc/elements/1.1/"
   xmlns:cc="http://creativecommons.org/ns#"
   xmlns:rdf="http://www.w3.org/1999/02/22-rdf-syntax-ns#"
   xmlns:svg="http://www.w3.org/2000/svg"
   xmlns="http://www.w3.org/2000/svg"
   xmlns:sodipodi="http://sodipodi.sourceforge.net/DTD/sodipodi-0.dtd"
   xmlns:inkscape="http://www.inkscape.org/namespaces/inkscape"
   viewBox="0 0 256 256"
   id="svg2"
   version="1.1"
   inkscape:version="0.91 r13725"
   sodipodi:docname="media-record-insensitive.svg">
  <metadata
     id="metadata36">
    <rdf:RDF>
      <cc:Work
         rdf:about="">
        <dc:format>image/svg+xml</dc:format>
        <dc:type
           rdf:resource="http://purl.org/dc/dcmitype/StillImage" />
      </cc:Work>
    </rdf:RDF>
  </metadata>
  <sodipodi:namedview
     pagecolor="#ffffff"
     bordercolor="#666666"
     borderopacity="1"
     objecttolerance="10"
     gridtolerance="10"
     guidetolerance="10"
     inkscape:pageopacity="0"
     inkscape:pageshadow="2"
     inkscape:window-width="796"
     inkscape:window-height="480"
     id="namedview34"
     showgrid="false"
     inkscape:zoom="0.921875"
     inkscape:cx="128"
     inkscape:cy="128"
     inkscape:window-x="10"
     inkscape:window-y="35"
     inkscape:window-maximized="0"
     inkscape:current-layer="g22" />
  <defs
     id="defs4">
    <clipPath
       id="clipPath6">
      <path
         d="m 27.707 56.824 h 82.29 v 139.69 h -82.29"
         id="path8" />
    </clipPath>
    <clipPath
       id="clipPath10">
      <path
         d="m 74 56.824 h 129 v 139.69 h -129"
         id="path12" />
    </clipPath>
    <clipPath
       id="clipPath14">
      <path
         d="m 148 97 h 77.63 v 24 h -77.62"
         id="path16" />
    </clipPath>
    <clipPath
       id="clipPath18">
      <path
         d="m 171 132 h 54.625 v 24 h -54.625"
         id="path20" />
    </clipPath>
  </defs>
  <g
     transform="matrix(0.9818 0 0 0.9818 2.481 -779.69)"
     id="g22">
    <g
       transform="matrix(0 -1 1 0 -796.37 1052.37)"
       style="fill:#696969;color:#000;fill-opacity:1"
       id="g24">
      <path
         d="m 231.03 999.59 c 127.95 -192.46 -280.09 -311 -226.07 -62.2 23.02 102.82 167.39 165.22 226.07 62.2 z"
         id="path26"
         style="fill:#696969;fill-opacity:1" />
      <path
         d="m 125.84,850.43 c -0.138,0.002 -0.277,0.011 -0.414,0.024 -1.45,0.051 -2.843,0.714 -3.579,1.704 l -20.866,28.658 -20.891,28.658 c -0.755,1.048 -0.749,2.415 0.016,3.459 0.765,1.044 2.259,1.726 3.783,1.728 h 23.25 v 65.16 c 0,4.36 3.529,7.865 7.889,7.865 h 21.232 c 4.36,0 7.889,-3.504 7.889,-7.865 v -65.16 h 23.25 c 1.524,-10e-4 3.02,-0.683 3.783,-1.728 0.765,-1.044 0.771,-2.41 0.016,-3.459 l -20.891,-28.658 -20.866,-28.658 c -0.733,-1 -2.14,-1.679 -3.604,-1.729 z"
         id="path28"
         style="fill:#696969;fill-opacity:1" />
      <path
         d="m 125.83,850.43 c -0.138,0.002 -0.279,0.014 -0.417,0.028 -1.45,0.051 -2.847,0.732 -3.584,1.722 l -20.864,28.642 -20.891,28.67 c -0.755,1.048 -0.737,2.401 0.028,3.445 0.765,1.044 2.254,1.721 3.778,1.722 h 23.25 v 65.17 c 0,4.36 3.53,7.862 7.89,7.862 h 10.862 v -137.27 c -0.018,-0.001 -0.037,10e-4 -0.055,0 z"
         id="path30"
         style="fill:#696969;fill-opacity:1" />
    </g>
    <path
       transform="matrix(10.32881 0 0 10.87119 -4303.06 1087.97)"
       d="m 429 -20 c -2.759 0 -5 2.241 -5 5 0 2.759 2.241 5 5 5 2.759 0 5 -2.241 5 -5 0 -2.759 -2.241 -5 -5 -5 z"
       style="fill:#fff"
       id="path32" />
  </g>
</svg>
