<?xml version="1.0" encoding="UTF-8" standalone="no"?>
<svg
   xmlns:dc="http://purl.org/dc/elements/1.1/"
   xmlns:cc="http://creativecommons.org/ns#"
   xmlns:rdf="http://www.w3.org/1999/02/22-rdf-syntax-ns#"
   xmlns:svg="http://www.w3.org/2000/svg"
   xmlns="http://www.w3.org/2000/svg"
   xmlns:sodipodi="http://sodipodi.sourceforge.net/DTD/sodipodi-0.dtd"
   xmlns:inkscape="http://www.inkscape.org/namespaces/inkscape"
   viewBox="0 0 256 256"
   id="svg2"
   version="1.1"
   inkscape:version="0.91 r13725"
   sodipodi:docname="network.svg">
  <metadata
     id="metadata18">
    <rdf:RDF>
      <cc:Work
         rdf:about="">
        <dc:format>image/svg+xml</dc:format>
        <dc:type
           rdf:resource="http://purl.org/dc/dcmitype/StillImage" />
      </cc:Work>
    </rdf:RDF>
  </metadata>
  <defs
     id="defs16" />
  <sodipodi:namedview
     pagecolor="#ffffff"
     bordercolor="#666666"
     borderopacity="1"
     objecttolerance="10"
     gridtolerance="10"
     guidetolerance="10"
     inkscape:pageopacity="0"
     inkscape:pageshadow="2"
     inkscape:window-width="1280"
     inkscape:window-height="910"
     id="namedview14"
     showgrid="false"
     inkscape:zoom="0.921875"
     inkscape:cx="128"
     inkscape:cy="128"
     inkscape:window-x="0"
     inkscape:window-y="25"
     inkscape:window-maximized="1"
     inkscape:current-layer="g4" />
  <g
     transform="translate(0 -796.36)"
     style="color:#000"
     id="g4">
    <path
       d="m 182.83 797.33 c -368.15 -25.644 -92.2 469.58 64.2 143.49 21.558 -50.25 5.804 -125.18 -64.2 -143.49 z"
       style="fill:#a9a9a9;fill-opacity:1"
       id="path6" />
    <g
       transform="matrix(1.02924 0 0 1.05521 -7.01 -18.834)"
       style="fill:#fff"
       id="g8">
      <path
         d="m 145.46 128 c 0 9.644 -7.818 17.462 -17.462 17.462 -9.644 0 -17.462 -7.818 -17.462 -17.462 0 -9.644 7.818 -17.462 17.462 -17.462 9.644 0 17.462 7.818 17.462 17.462 z"
         transform="matrix(0.7703 0 0 0.7714 29.1 792.4)"
         id="path10" />
      <path
         d="m 54.42 891.14 c 0 20.19 8.243 38.494 21.531 51.75 l 7.03 -7.03 c -11.465 -11.431 -18.563 -27.23 -18.563 -44.719 0 -17.489 7.098 -33.29 18.563 -44.719 l -7.03 -7.03 c -13.289 13.256 -21.531 31.56 -21.531 51.75 z m 19.688 0 c 0 14.756 6.01 28.15 15.719 37.844 h 0.031 l 7 -7.03 c -7.88 -7.869 -12.75 -18.757 -12.75 -30.813 0 -12.06 4.87 -22.944 12.75 -30.813 l -7 -7.03 c -0.005 0.005 -0.026 -0.005 -0.031 0 -9.704 9.694 -15.719 23.09 -15.719 37.844 z m 19.625 0 c 0 9.339 3.815 17.827 9.969 23.969 h 0.031 l 7 -7.03 c -4.322 -4.317 -6.969 -10.299 -6.969 -16.938 0 -6.639 2.646 -12.621 6.969 -16.938 l -7 -7.03 c -0.005 0.005 -0.026 -0.005 -0.031 0 -6.154 6.142 -9.969 14.63 -9.969 23.969 z m 50.938 16.938 l 7 7.03 c 0.005 -0.005 0.026 0.005 0.031 0 6.154 -6.142 9.969 -14.63 9.969 -23.969 0 -9.339 -3.815 -17.827 -9.969 -23.969 -0.005 -0.005 -0.026 0.005 -0.031 0 l -7 7.03 c 4.322 4.317 6.969 10.299 6.969 16.938 0 6.639 -2.646 12.621 -6.969 16.938 z m 13.875 13.875 l 7 7.03 h 0.031 c 9.704 -9.694 15.719 -23.09 15.719 -37.844 0 -14.756 -6.01 -28.15 -15.719 -37.844 -0.005 -0.005 -0.026 0.005 -0.031 0 l -7 7.03 c 7.88 7.869 12.75 18.757 12.75 30.813 0 12.06 -4.87 22.944 -12.75 30.813 z m 13.875 13.906 l 7.03 7.03 c 13.289 -13.256 21.531 -31.56 21.531 -51.75 0 -20.19 -8.243 -38.494 -21.531 -51.75 l -7.03 7.03 c 11.465 11.431 18.563 27.23 18.563 44.719 0 17.489 -7.098 33.29 -18.563 44.719 z"
         id="path12" />
    </g>
  </g>
</svg>
