<?xml version="1.0" encoding="UTF-8" standalone="no"?>
<svg
   xmlns:dc="http://purl.org/dc/elements/1.1/"
   xmlns:cc="http://creativecommons.org/ns#"
   xmlns:rdf="http://www.w3.org/1999/02/22-rdf-syntax-ns#"
   xmlns:svg="http://www.w3.org/2000/svg"
   xmlns="http://www.w3.org/2000/svg"
   xmlns:sodipodi="http://sodipodi.sourceforge.net/DTD/sodipodi-0.dtd"
   xmlns:inkscape="http://www.inkscape.org/namespaces/inkscape"
   viewBox="0 0 256 256"
   id="svg2"
   version="1.1"
   inkscape:version="0.91 r13725"
   sodipodi:docname="list-remove.svg">
  <metadata
     id="metadata30">
    <rdf:RDF>
      <cc:Work
         rdf:about="">
        <dc:format>image/svg+xml</dc:format>
        <dc:type
           rdf:resource="http://purl.org/dc/dcmitype/StillImage" />
      </cc:Work>
    </rdf:RDF>
  </metadata>
  <sodipodi:namedview
     pagecolor="#ffffff"
     bordercolor="#666666"
     borderopacity="1"
     objecttolerance="10"
     gridtolerance="10"
     guidetolerance="10"
     inkscape:pageopacity="0"
     inkscape:pageshadow="2"
     inkscape:window-width="796"
     inkscape:window-height="480"
     id="namedview28"
     showgrid="false"
     inkscape:zoom="0.921875"
     inkscape:cx="164.33898"
     inkscape:cy="128"
     inkscape:window-x="0"
     inkscape:window-y="25"
     inkscape:window-maximized="0"
     inkscape:current-layer="g22" />
  <defs
     id="defs4">
    <clipPath
       id="clipPath6">
      <path
         fill="#bbb"
         d="M 0,64 H64 V128 H0 z"
         id="path8" />
    </clipPath>
    <clipPath
       id="clipPath10">
      <path
         fill="#bbb"
         d="M 0,64 H64 V128 H0 z"
         id="path12" />
    </clipPath>
    <clipPath
       id="clipPath14">
      <path
         fill="#bbb"
         d="M 0,64 H64 V128 H0 z"
         id="path16" />
    </clipPath>
    <clipPath
       id="clipPath18">
      <path
         fill="#bbb"
         d="M 0,64 H64 V128 H0 z"
         id="path20" />
    </clipPath>
  </defs>
  <g
     color="#000"
     id="g22">
    <path
       d="m -1360.14 1641.33 c 46.11 -98.28 -119.59 -146.07 -181.85 -106.06 -62.25 40.01 -83.52 108.58 -13.01 143.08 70.51 34.501 148.75 61.26 194.86 -37.03 z"
       transform="matrix(0 -1.03665 -1.35742 0 2320.79 -1401.71)"
       fill="#ffd700"
       id="path24"
       style="fill:#a9a9a9;fill-opacity:1" />
    <path
       d="m -9369.308,4842.1988 0,5 0,0 0,2 0,0 0,5 2,0 0,-5 0,0 0,-2 0,0 0,-5 z"
       fill="#fff"
       transform="matrix(0 -10.59596 10.34343 0 -50019.02 -99138.22)"
       id="path26" />
  </g>
</svg>
