<?xml version="1.0" encoding="UTF-8" standalone="no"?>
<svg
   xmlns:dc="http://purl.org/dc/elements/1.1/"
   xmlns:cc="http://creativecommons.org/ns#"
   xmlns:rdf="http://www.w3.org/1999/02/22-rdf-syntax-ns#"
   xmlns:svg="http://www.w3.org/2000/svg"
   xmlns="http://www.w3.org/2000/svg"
   xmlns:sodipodi="http://sodipodi.sourceforge.net/DTD/sodipodi-0.dtd"
   xmlns:inkscape="http://www.inkscape.org/namespaces/inkscape"
   viewBox="0 0 256 256"
   id="svg2"
   version="1.1"
   inkscape:version="0.91 r13725"
   sodipodi:docname="stock_navigator-insert-as-copy.svg">
  <metadata
     id="metadata30">
    <rdf:RDF>
      <cc:Work
         rdf:about="">
        <dc:format>image/svg+xml</dc:format>
        <dc:type
           rdf:resource="http://purl.org/dc/dcmitype/StillImage" />
      </cc:Work>
    </rdf:RDF>
  </metadata>
  <sodipodi:namedview
     pagecolor="#ffffff"
     bordercolor="#666666"
     borderopacity="1"
     objecttolerance="10"
     gridtolerance="10"
     guidetolerance="10"
     inkscape:pageopacity="0"
     inkscape:pageshadow="2"
     inkscape:window-width="796"
     inkscape:window-height="480"
     id="namedview28"
     showgrid="false"
     inkscape:zoom="0.921875"
     inkscape:cx="128"
     inkscape:cy="128"
     inkscape:window-x="0"
     inkscape:window-y="25"
     inkscape:window-maximized="0"
     inkscape:current-layer="g22" />
  <defs
     id="defs4">
    <clipPath
       id="clipPath6">
      <path
         d="m 27.707 56.824 h 82.29 v 139.69 h -82.29"
         id="path8" />
    </clipPath>
    <clipPath
       id="clipPath10">
      <path
         d="m 74 56.824 h 129 v 139.69 h -129"
         id="path12" />
    </clipPath>
    <clipPath
       id="clipPath14">
      <path
         d="m 148 97 h 77.63 v 24 h -77.62"
         id="path16" />
    </clipPath>
    <clipPath
       id="clipPath18">
      <path
         d="m 171 132 h 54.625 v 24 h -54.625"
         id="path20" />
    </clipPath>
  </defs>
  <g
     transform="matrix(0.99576 0 0 0.99576 0 -791.9)"
     style="color:#000"
     id="g22">
    <path
       d="m 3.605 930.79 c 154.26 347.01 431.5 -162.11 87.84 -133.24 c -51.745 6.753 -106.08 60.23 -87.84 133.24 z"
       style="fill:#a9a9a9;fill-opacity:1"
       id="path24" />
    <path
       d="m -9380.31 4843.2 v 13 h 10 v -13 z m 2 2 h 6 v 9 h -6 z m 9 1 v 2 h 1 v 9 h -8 v 2 h 10 v -13 z"
       transform="matrix(8.56706 0 0 8.9214 80432.99 -42355.12)"
       style="fill:#fff"
       id="path26" />
  </g>
</svg>
