<?xml version="1.0" encoding="UTF-8" standalone="no"?>
<svg
   xmlns:dc="http://purl.org/dc/elements/1.1/"
   xmlns:cc="http://creativecommons.org/ns#"
   xmlns:rdf="http://www.w3.org/1999/02/22-rdf-syntax-ns#"
   xmlns:svg="http://www.w3.org/2000/svg"
   xmlns="http://www.w3.org/2000/svg"
   xmlns:sodipodi="http://sodipodi.sourceforge.net/DTD/sodipodi-0.dtd"
   xmlns:inkscape="http://www.inkscape.org/namespaces/inkscape"
   viewBox="0 0 256 256"
   id="svg2"
   version="1.1"
   inkscape:version="0.91 r13725"
   sodipodi:docname="reboot.svg">
  <metadata
     id="metadata41">
    <rdf:RDF>
      <cc:Work
         rdf:about="">
        <dc:format>image/svg+xml</dc:format>
        <dc:type
           rdf:resource="http://purl.org/dc/dcmitype/StillImage" />
      </cc:Work>
    </rdf:RDF>
  </metadata>
  <sodipodi:namedview
     pagecolor="#ffffff"
     bordercolor="#666666"
     borderopacity="1"
     objecttolerance="10"
     gridtolerance="10"
     guidetolerance="10"
     inkscape:pageopacity="0"
     inkscape:pageshadow="2"
     inkscape:window-width="1280"
     inkscape:window-height="910"
     id="namedview39"
     showgrid="false"
     inkscape:zoom="0.921875"
     inkscape:cx="128"
     inkscape:cy="128"
     inkscape:window-x="0"
     inkscape:window-y="25"
     inkscape:window-maximized="1"
     inkscape:current-layer="svg2" />
  <defs
     id="defs4">
    <clipPath
       id="clipPath6">
      <path
         fill="#bbb"
         d="M 0,64 H64 V128 H0 z"
         id="path8" />
    </clipPath>
    <clipPath
       id="clipPath10">
      <path
         fill="#bbb"
         d="M 0,64 H64 V128 H0 z"
         id="path12" />
    </clipPath>
    <clipPath
       id="clipPath14">
      <path
         fill="#bbb"
         d="M 0,64 H64 V128 H0 z"
         id="path16" />
    </clipPath>
    <clipPath
       id="clipPath18">
      <path
         fill="#bbb"
         d="M 0,64 H64 V128 H0 z"
         id="path20" />
    </clipPath>
    <filter
       id="0"
       x="0"
       y="0"
       width="1"
       height="1"
       color-interpolation-filters="sRGB">
      <feFlood
         result="result1"
         flood-opacity="0"
         flood-color="#808080"
         id="feFlood23" />
      <feBlend
         in2="SourceGraphic"
         mode="normal"
         result="result2"
         id="feBlend25" />
      <feComposite
         in2="SourceGraphic"
         k2="1"
         operator="arithmetic"
         result="result3"
         id="feComposite27" />
      <feComposite
         in2="SourceGraphic"
         operator="in"
         result="fbSourceGraphic"
         id="feComposite29" />
      <feColorMatrix
         result="fbSourceGraphicAlpha"
         in="fbSourceGraphic"
         values="0 0 0 -1 0 0 0 0 -1 0 0 0 0 -1 0 0 0 0 1 0"
         id="feColorMatrix31" />
      <feColorMatrix
         type="hueRotate"
         values="180"
         result="result1"
         in="fbSourceGraphic"
         id="feColorMatrix33" />
    </filter>
  </defs>
  <path
     d="m -1360.14 1641.33 c 46.11 -98.28 -119.59 -146.07 -181.85 -106.06 -62.25 40.01 -83.52 108.58 -13.01 143.08 70.51 34.501 148.75 61.26 194.86 -37.03 z"
     color="#000"
     transform="matrix(0 1.03665 1.35742 0 -2064.79 1657.71)"
     fill="#ffd700"
     id="path35"
     style="fill:#a9a9a9;fill-opacity:1" />
  <path
     d="m -221.82 -51.2 c -20.13 2.714 -38.12 14.763 -48.43 32.81 -18.21 31.884 -7.327 72.73 24.21 91.14 31.54 18.408 71.947 7.406 90.16 -24.477 16.218 -28.396 9.293 -63.937 -14.683 -84.37 l 12.88 -14.06 h -40.18 v 40.622 l 13.395 -12.499 l 2.061 -2.083 c 19.03 15.11 24.563 42.25 12.11 64.06 -13.657 23.913 -43.834 32.03 -67.49 18.228 -23.655 -13.806 -31.689 -44.31 -18.03 -68.22 7.425 -13 20.18 -21.737 34.517 -24.22 v -16.926 c -0.169 0.022 -0.346 -0.023 -0.515 0 z m 0.516 41.14 v 49.996 h 16.486 v -49.996 z"
     transform="matrix(1.09948 0 0 1.07602 358.23 116.67)"
     fill="#fff"
     filter="url(#0)"
     id="path37" />
</svg>
