<?xml version="1.0" encoding="UTF-8" standalone="no"?>
<svg
   xmlns:dc="http://purl.org/dc/elements/1.1/"
   xmlns:cc="http://creativecommons.org/ns#"
   xmlns:rdf="http://www.w3.org/1999/02/22-rdf-syntax-ns#"
   xmlns:svg="http://www.w3.org/2000/svg"
   xmlns="http://www.w3.org/2000/svg"
   xmlns:xlink="http://www.w3.org/1999/xlink"
   xmlns:sodipodi="http://sodipodi.sourceforge.net/DTD/sodipodi-0.dtd"
   xmlns:inkscape="http://www.inkscape.org/namespaces/inkscape"
   viewBox="0 0 256 256"
   id="svg2"
   version="1.1"
   inkscape:version="0.91 r13725"
   sodipodi:docname="stock_video-conferencing.svg">
  <metadata
     id="metadata33">
    <rdf:RDF>
      <cc:Work
         rdf:about="">
        <dc:format>image/svg+xml</dc:format>
        <dc:type
           rdf:resource="http://purl.org/dc/dcmitype/StillImage" />
      </cc:Work>
    </rdf:RDF>
  </metadata>
  <sodipodi:namedview
     pagecolor="#ffffff"
     bordercolor="#666666"
     borderopacity="1"
     objecttolerance="10"
     gridtolerance="10"
     guidetolerance="10"
     inkscape:pageopacity="0"
     inkscape:pageshadow="2"
     inkscape:window-width="796"
     inkscape:window-height="480"
     id="namedview31"
     showgrid="false"
     inkscape:zoom="0.921875"
     inkscape:cx="128"
     inkscape:cy="128"
     inkscape:window-x="0"
     inkscape:window-y="25"
     inkscape:window-maximized="0"
     inkscape:current-layer="g19" />
  <defs
     id="defs4">
    <path
       d="m 245.46 129.52 l -97.89 -96.9 c -5.556 -5.502 -16.222 -11.873 -23.7 -14.16 l -39.518 -12.08 c -7.479 -2.286 -18.1 0.391 -23.599 5.948 l -13.441 13.578 c -5.5 5.559 -14.502 14.653 -20 20.21 l -13.44 13.579 c -5.5 5.558 -8.07 16.206 -5.706 23.658 l 12.483 39.39 c 2.363 7.456 8.843 18.06 14.399 23.556 l 97.89 96.9 c 5.558 5.502 14.605 5.455 20.1 -0.101 l 36.26 -36.63 c 5.504 -5.559 14.503 -14.651 20 -20.21 l 36.26 -36.629 c 5.502 -5.56 5.455 -14.606 -0.101 -20.11 z m -178.09 -50.74 c -7.198 0 -13.03 -5.835 -13.03 -13.03 0 -7.197 5.835 -13.03 13.03 -13.03 7.197 0 13.03 5.835 13.03 13.03 -0.001 7.198 -5.836 13.03 -13.03 13.03 z"
       id="0" />
    <use
       id="1"
       xlink:href="#0" />
    <clipPath
       id="2">
      <use
         xlink:href="#0"
         id="use9" />
    </clipPath>
    <clipPath
       style="clip-path:url(#2)"
       id="clipPath11"
       clip-path="url(#2)">
      <use
         xlink:href="#1"
         id="use13" />
    </clipPath>
    <clipPath
       style="clip-path:url(#2)"
       id="clipPath15"
       clip-path="url(#2)">
      <use
         xlink:href="#1"
         id="use17" />
    </clipPath>
  </defs>
  <g
     transform="translate(-0.281 -795.28)"
     style="color:#000"
     id="g19">
    <path
       d="m 227.5 1007.38 c 62.847 -96.45 12.134 -184.31 -59.01 -205.16 -95.7 -28.04 -225.64 45.648 -140.02 197.52 34.03 60.36 154.26 76.34 199.03 7.642 z"
       style="fill:#a9a9a9;fill-opacity:1"
       id="path21" />
    <g
       transform="translate(0 796.36)"
       style="fill:#fff"
       id="g23">
      <path
         d="m 125,56 c -32.776,0 -59.34,26.568 -59.34,59.34 0,32.776 26.568,59.34 59.34,59.34 32.776,0 59.34,-26.568 59.34,-59.34 C 184.34,82.564 157.772,56 125,56 z m 0,30.28 c 16.04,0 29.06,13.02 29.06,29.06 0,16.04 -13.02,29.03 -29.06,29.03 -16.04,0 -29.03,-12.992 -29.03,-29.03 0,-16.04 12.992,-29.06 29.03,-29.06 z"
         id="path25" />
      <path
         d="m 125 93.88 c -11.851 0 -21.469 9.618 -21.469 21.469 0 11.851 9.618 21.469 21.469 21.469 11.851 0 21.469 -9.618 21.469 -21.469 0 -11.851 -9.618 -21.469 -21.469 -21.469 z m 0 12.625 c 4.877 0 8.844 3.966 8.844 8.844 0 4.877 -3.966 8.844 -8.844 8.844 -4.877 0 -8.844 -3.966 -8.844 -8.844 0 -4.877 3.966 -8.844 8.844 -8.844 z"
         id="path27" />
      <path
         d="m 102.78 160.81 c -2.066 0 -4.04 0.404 -5.844 1.125 8.182 4.928 17.79 7.75 28.06 7.75 10.273 0 19.88 -2.822 28.06 -7.75 -1.802 -0.721 -3.778 -1.125 -5.844 -1.125 h -44.44 z m -13.625 7.938 c -1.284 2.274 -2.031 4.911 -2.031 7.719 0 8.674 6.982 15.656 15.656 15.656 h 44.44 c 8.674 0 15.656 -6.982 15.656 -15.656 0 -2.808 -0.748 -5.445 -2.031 -7.719 -10.252 6.906 -22.58 10.938 -35.844 10.938 -13.264 0 -25.591 -4.03 -35.844 -10.938 z"
         id="path29" />
    </g>
  </g>
</svg>
