<svg xmlns="http://www.w3.org/2000/svg" viewBox="0 0 256 256"><defs><clipPath><path d="M 0,64 H64 V128 H0 z"/></clipPath></defs><path d="m -1360.14 1641.33 c 46.11 -98.28 -119.59 -146.07 -181.85 -106.06 -62.25 40.01 -83.52 108.58 -13.01 143.08 70.51 34.501 148.75 61.26 194.86 -37.03 z" transform="matrix(-1.03665 0 0 1.35742 -1401.71 -2064.79)" style="fill:#a9a9a9;color:#000"/><path transform="matrix(4.13668 0 0 4.23355 26.19 26.898)" d="m 9 9 v 2.828 v 1.172 v 7 h 4 v -4.172 l 4.172 4.172 l 2.828 -2.828 l -4.172 -4.172 h 4.172 v -4 h -7 h -1.172 h -2.828 z m 19 0 v 4 h 4.172 l -4.172 4.172 l 2.828 2.828 l 4.172 -4.172 v 4.172 h 4 v -8.172 v -2.828 h -2.828 h -8.172 z m -19 19 v 8.172 v 2.828 h 2.828 h 1.172 h 7 v -4 h -4.172 l 4.172 -4.172 l -2.828 -2.828 l -4.172 4.172 v -4.172 h -4 z m 21.828 0 l -2.828 2.828 l 4.172 4.172 h -4.172 v 4 h 8.172 h 2.828 v -2.828 v -1.172 v -7 h -4 v 4.172 l -4.172 -4.172 z" style="fill:#fff"/></svg>