<?xml version="1.0" encoding="UTF-8" standalone="no"?>
<!-- Created with Inkscape (http://www.inkscape.org/) -->
<svg id="svg5356" xmlns:rdf="http://www.w3.org/1999/02/22-rdf-syntax-ns#" xmlns="http://www.w3.org/2000/svg" height="96" width="96" version="1.1" xmlns:cc="http://creativecommons.org/ns#" xmlns:xlink="http://www.w3.org/1999/xlink" xmlns:dc="http://purl.org/dc/elements/1.1/">
 <defs id="defs5358">
  <linearGradient id="linearGradient5300" y2="212" xlink:href="#linearGradient4968" gradientUnits="userSpaceOnUse" x2="368" gradientTransform="matrix(1.4667 0 0 1.4667 -444.8 -215.86)" y1="148" x1="368"/>
  <linearGradient id="linearGradient4968">
   <stop id="stop4970" style="stop-color:#f1e6f4" offset="0"/>
   <stop id="stop4972" style="stop-color:#c9bcce" offset="1"/>
  </linearGradient>
  <linearGradient id="linearGradient5303" y2="180" gradientUnits="userSpaceOnUse" x2="336" gradientTransform="matrix(1.4667 0 0 1.4667 -444.8 -221.73)" y1="164" x1="336">
   <stop id="stop11361" style="stop-color:#d5cbd7" offset="0"/>
   <stop id="stop11363" style="stop-color:#d9bfdf" offset="1"/>
  </linearGradient>
  <clipPath id="clipPath4275" clipPathUnits="userSpaceOnUse">
   <path id="path4277" style="color:#000000;text-indent:0;block-progression:tb;text-decoration-line:none;text-transform:none;fill:url(#linearGradient5300)" d="m6 32.5c-0.83333 0-1.1124 0.34191-1.3027 0.72266-0.18891 0.37782-0.1952 0.76548-0.19531 0.77148l2.998 49.99v0.016s0.00689 0.3966 0.19727 0.77734c0.1903 0.381 0.4694 0.723 1.3027 0.723h78c0.83333 0 1.1124-0.34191 1.3027-0.72266 0.19-0.38 0.197-0.777 0.197-0.777v-0.02539l0.002-0.02539c0.0015-0.0148 2.9933-49.908 2.9961-49.955-0.000115-0.006-0.0064-0.39367-0.19531-0.77148-0.191-0.381-0.47-0.723-1.303-0.723h-84z"/>
  </clipPath>
  <linearGradient id="linearGradient4297" y2="84" gradientUnits="userSpaceOnUse" x2="48" y1="36" x1="48">
   <stop id="stop4293" style="stop-color:#fff" offset="0"/>
   <stop id="stop4295" style="stop-color:#fff;stop-opacity:0" offset="1"/>
  </linearGradient>
 </defs>
 <metadata id="metadata5361">
  <rdf:RDF>
   <cc:Work rdf:about="">
    <dc:format>image/svg+xml</dc:format>
    <dc:type rdf:resource="http://purl.org/dc/dcmitype/StillImage"/>
    <dc:title/>
   </cc:Work>
  </rdf:RDF>
 </metadata>
 <g id="layer1" transform="translate(0,32)">
  <path id="path12179" style="color:#000000;text-indent:0;block-progression:tb;text-decoration-line:none;text-transform:none;fill:url(#linearGradient5303)" d="m11 12.5c-0.833 0-1.1124 0.342-1.3027 0.723-0.1904 0.38-0.1973 0.777-0.1973 0.777v27.5h77v-21.5c0-0.833-0.342-1.112-0.723-1.303-0.38-0.19-0.777-0.197-0.777-0.197h-29c-4.125 0-6.301-1.6-8.301-3.1s-3.824-2.9-7.699-2.9h-29z" transform="translate(0,-32)"/>
  <path id="path4242" d="m4 3 3 50s0 2 2 2h78c2 0 2-2 2-2 0.0015-0.01481 3-50 3-50s0-2-2-2h-84c-2 0-2 2-2 2z" style="opacity:.2;color:#000000;text-indent:0;block-progression:tb;text-decoration-line:none;text-transform:none"/>
  <path id="path4253" d="m11 12.5c-0.833 0-1.1124 0.342-1.3027 0.723-0.1904 0.38-0.1973 0.777-0.1973 0.777v27.5h77v-21.5c0-0.833-0.342-1.112-0.723-1.303-0.38-0.19-0.777-0.197-0.777-0.197h-29c-4.125 0-6.301-1.6-8.301-3.1s-3.824-2.9-7.699-2.9h-29z" style="opacity:.41;color:#000000;text-indent:0;block-progression:tb;stroke:#000;text-decoration-line:none;text-transform:none;fill:none" transform="translate(0,-32)"/>
  <path id="path12181" style="color:#000000;text-indent:0;block-progression:tb;text-decoration-line:none;text-transform:none;fill:url(#linearGradient5300)" d="m6 32.5c-0.8333 0-1.1124 0.342-1.3027 0.723-0.1889 0.377-0.1952 0.765-0.1953 0.771l2.998 49.99v0.016s0.0069 0.397 0.1973 0.777c0.1903 0.381 0.4694 0.723 1.3027 0.723h78c0.833 0 1.112-0.342 1.303-0.723 0.19-0.38 0.197-0.777 0.197-0.777v-0.025l0.002-0.026c0.001-0.015 2.993-49.908 2.996-49.955 0-0.006-0.006-0.394-0.195-0.771-0.191-0.381-0.47-0.723-1.303-0.723h-84z" transform="translate(0,-32)"/>
  <path id="path4267" d="m6 32.5c-0.8333 0-1.1124 0.342-1.3027 0.723-0.1889 0.377-0.1952 0.765-0.1953 0.771l2.998 49.99v0.016s0.0069 0.397 0.1973 0.777c0.1903 0.381 0.4694 0.723 1.3027 0.723h78c0.833 0 1.112-0.342 1.303-0.723 0.19-0.38 0.197-0.777 0.197-0.777v-0.025l0.002-0.026c0.001-0.015 2.993-49.908 2.996-49.955 0-0.006-0.006-0.394-0.195-0.771-0.191-0.381-0.47-0.723-1.303-0.723h-84z" style="opacity:.41;color:#000000;text-indent:0;block-progression:tb;stroke:#000;text-decoration-line:none;text-transform:none;fill:none" transform="translate(0,-32)"/>
  <path id="path4271" d="m6 32.5c-0.8333 0-1.1124 0.342-1.3027 0.723-0.1889 0.377-0.1952 0.765-0.1953 0.771l2.998 49.99v0.016s0.0069 0.397 0.1973 0.777c0.1903 0.381 0.4694 0.723 1.3027 0.723h78c0.833 0 1.112-0.342 1.303-0.723 0.19-0.38 0.197-0.777 0.197-0.777v-0.025l0.002-0.026c0.001-0.015 2.993-49.908 2.996-49.955 0-0.006-0.006-0.394-0.195-0.771-0.191-0.381-0.47-0.723-1.303-0.723h-84z" style="opacity:.2;color:#000000;text-indent:0;block-progression:tb;stroke:url(#linearGradient4297);text-decoration-line:none;stroke-width:3;text-transform:none;fill:none" clip-path="url(#clipPath4275)" transform="translate(0,-32)"/>
 </g>
</svg>
