<?xml version="1.0" encoding="UTF-8" standalone="no"?>
<!-- Created with Inkscape (http://www.inkscape.org/) -->
<svg id="svg3759" xmlns:rdf="http://www.w3.org/1999/02/22-rdf-syntax-ns#" xmlns="http://www.w3.org/2000/svg" height="24" width="24" version="1.1" xmlns:cc="http://creativecommons.org/ns#" xmlns:xlink="http://www.w3.org/1999/xlink" xmlns:dc="http://purl.org/dc/elements/1.1/">
 <metadata id="metadata37">
  <rdf:RDF>
   <cc:Work rdf:about="">
    <dc:format>image/svg+xml</dc:format>
    <dc:type rdf:resource="http://purl.org/dc/dcmitype/StillImage"/>
    <dc:title/>
   </cc:Work>
  </rdf:RDF>
 </metadata>
 <defs id="defs3761">
  <radialGradient id="radialGradient4013" gradientUnits="userSpaceOnUse" cy="6" cx="27.552" gradientTransform="matrix(1.2 0 0 .6 -7 9.5687)" r="20">
   <stop id="stop4151" style="stop-color:#fae4ba" offset="0"/>
   <stop id="stop4153" style="stop-color:#dcb98b" offset="1"/>
  </radialGradient>
  <linearGradient id="linearGradient4143" y2="20" gradientUnits="userSpaceOnUse" x2="16" gradientTransform="matrix(-1 0 0 1 48 3.6687)" y1="42.586" x1="5.3934">
   <stop id="stop4228" style="stop-color:#95724c" offset="0"/>
   <stop id="stop4231" style="stop-color:#c4975c" offset="1"/>
  </linearGradient>
  <linearGradient id="linearGradient4145" y2="45.75" gradientUnits="userSpaceOnUse" x2="10.5" gradientTransform="translate(0 2.6687)" y1="20.25" x1="16.5">
   <stop id="stop4019" style="stop-color:#dcb98b" offset="0"/>
   <stop id="stop4021" style="stop-color:#be9d72" offset="1"/>
  </linearGradient>
  <linearGradient id="linearGradient4329" y2="4" gradientUnits="userSpaceOnUse" x2="9" gradientTransform="translate(0 2.6687)" y1="37" x1="40">
   <stop id="stop4279" style="stop-color:#5c2f00" offset="0"/>
   <stop id="stop4281" style="stop-color:#794a18" offset="1"/>
  </linearGradient>
  <radialGradient id="radialGradient4363" gradientUnits="userSpaceOnUse" cy="15.37" cx="26.724" gradientTransform="matrix(1 0 0 1.1576 0 4.1044)" r="19.438">
   <stop id="stop4367" style="stop-color:#f0d0b1" offset="0"/>
   <stop id="stop4369" style="stop-color:#dfbe93" offset=".33923"/>
   <stop id="stop4371" style="stop-color:#805d27" offset="1"/>
  </radialGradient>
  <radialGradient id="radialGradient4018" gradientUnits="userSpaceOnUse" cy="19.5" cx="12.5" gradientTransform="matrix(1 0 0 .39130 0 11.87)" r="11.5">
   <stop id="stop4014" offset="0"/>
   <stop id="stop4016" style="stop-opacity:0" offset="1"/>
  </radialGradient>
 </defs>
 <g id="layer1" transform="translate(0,-24)">
  <path id="path3242" style="opacity:.3;fill:url(#radialGradient4018)" d="m24 19.5a11.5 4.5 0 1 1 -23 0 11.5 4.5 0 1 1 23 0z" transform="translate(0,24)"/>
  <path id="path3965" style="fill:url(#radialGradient4013)" d="m12.5 38.669-9.9994-4v-4l9.9994-4.5 10 4.5v4z"/>
  <path id="path3173" style="fill:url(#linearGradient4145)" d="m2.5001 30.669v11l9.9994 4.5v-10.5z"/>
  <path id="path3955" d="m22.5 30.669v11l-10 4.5v-10.5z" style="fill:url(#linearGradient4143)"/>
  <path id="path4035" style="opacity:0.61;block-progression:tb;text-indent:0;color:#000000;text-transform:none;fill:url(#linearGradient4329)" d="m12.5 25.637-0.1875 0.0625l-9.9995 4.5-0.3125 0.125v0.34375 4 7 0.34375l0.3125 0.125 10 4.5 0.1875 0.0625 0.1875-0.0625 10-4.5 0.3125-0.125v-0.34375-7-4-0.34375l-0.3125-0.125-10-4.5zm0 1.0625 9.5 4.4063v3.5625 6.6562l-9.4375 4.0938-9.562-4.093v-6.656l0.0938-3.641z"/>
  <path id="path4317" style="fill:url(#radialGradient4363)" d="m12.09 36-9.1251-5.0008 9.514 4.2218 9.3767-4.2109-8.7615 5.1279 0.0625 9.6562-1.1164-0.55341z"/>
  <path id="path3225" style="opacity:.3;fill:#fff" d="m12.5 26.656-9.5 4.344 1.2376 0.453 8.2624-3.797l8.1383 3.7088 1.2424-0.47198z"/>
  <path id="path4033" d="m21.011 31.418 1-0.44523v10.312l-1 0.44523z" style="opacity:.1;fill:#fff"/>
  <path id="path4036" d="m21.011 40.726v1l-7.875 3.375v-1z" style="opacity:.1;fill:#fff"/>
  <path id="path4014" style="opacity:.1;fill:#fff" d="m12 36.084-1-0.44523v9.3125l1 0.44523z"/>
  <g id="g4027" transform="translate(0,4)">
   <path id="rect4005" style="opacity:.1;fill:#fff" d="m3 27.969v9.3125l1 0.4375v-0.0625l7 3.1872v-1l-7-3.1872v-8.25z"/>
  </g>
  <g id="g5963" style="enable-background:new" transform="matrix(.25 -.11131 0 .25 -47.782 55.362)">
   <path id="path2987" style="opacity:.5;fill:#502d16" d="m266 31.469-2.4688 3.5625h0.46875 1v1 4.9688h2v-4.9688-1h1 0.4375l-2.4375-3.5625z"/>
   <rect id="rect6034" style="color:#bebebe;enable-background:new;fill:none" transform="matrix(0,1,1,0,0,0)" height="16" width="16" y="261" x="29"/>
   <path id="path4177" style="opacity:.5;fill:#502d16" d="m263 43.016v1.9686h12l-0.005-1.9686z"/>
   <path id="path5714" d="m272 31.469-2.4688 3.5625h0.46875 1v1 4.9688h2v-4.9688-1h1 0.4375l-2.4375-3.5625z" style="opacity:.5;fill:#502d16"/>
  </g>
 </g>
</svg>
