<?xml version="1.0" encoding="UTF-8" standalone="no"?>
<!-- Created with Inkscape (http://www.inkscape.org/) -->

<svg
   xmlns:dc="http://purl.org/dc/elements/1.1/"
   xmlns:cc="http://creativecommons.org/ns#"
   xmlns:rdf="http://www.w3.org/1999/02/22-rdf-syntax-ns#"
   xmlns:svg="http://www.w3.org/2000/svg"
   xmlns="http://www.w3.org/2000/svg"
   xmlns:xlink="http://www.w3.org/1999/xlink"
   xmlns:sodipodi="http://sodipodi.sourceforge.net/DTD/sodipodi-0.dtd"
   xmlns:inkscape="http://www.inkscape.org/namespaces/inkscape"
   width="256"
   height="256"
   id="svg10914"
   version="1.1"
   inkscape:version="0.48.4 r9939"
   sodipodi:docname="amazon.svg">
  <defs
     id="defs10916">
    <radialGradient
       inkscape:collect="always"
       xlink:href="#linearGradient9879-4"
       id="radialGradient220922"
       gradientUnits="userSpaceOnUse"
       gradientTransform="matrix(1,0,0,1.1280507,0,-15.592641)"
       cx="-170.8718"
       cy="127.7508"
       fx="-170.8718"
       fy="127.7508"
       r="12.49998" />
    <linearGradient
       inkscape:collect="always"
       id="linearGradient9879-4">
      <stop
         style="stop-color:#ffffff;stop-opacity:1"
         offset="0"
         id="stop9881-6" />
      <stop
         style="stop-color:#e4e4e1;stop-opacity:1"
         offset="1"
         id="stop9883-2" />
    </linearGradient>
  </defs>
  <sodipodi:namedview
     id="base"
     pagecolor="#ffffff"
     bordercolor="#666666"
     borderopacity="1.0"
     inkscape:pageopacity="0.0"
     inkscape:pageshadow="2"
     inkscape:zoom="1.979899"
     inkscape:cx="147.73107"
     inkscape:cy="190.0003"
     inkscape:document-units="px"
     inkscape:current-layer="layer1"
     showgrid="false"
     inkscape:showpageshadow="false"
     inkscape:snap-page="true"
     inkscape:snap-bbox="true"
     inkscape:window-width="1280"
     inkscape:window-height="948"
     inkscape:window-x="0"
     inkscape:window-y="24"
     inkscape:window-maximized="1"
     inkscape:object-nodes="true"
     inkscape:bbox-nodes="true"
     inkscape:bbox-paths="true"
     inkscape:snap-midpoints="true"
     inkscape:snap-object-midpoints="true"
     inkscape:snap-global="true" />
  <metadata
     id="metadata10919">
    <rdf:RDF>
      <cc:Work
         rdf:about="">
        <dc:format>image/svg+xml</dc:format>
        <dc:type
           rdf:resource="http://purl.org/dc/dcmitype/StillImage" />
        <dc:title></dc:title>
      </cc:Work>
    </rdf:RDF>
  </metadata>
  <g
     inkscape:label="Layer 1"
     inkscape:groupmode="layer"
     id="layer1"
     transform="translate(0,-796.36218)">
    <path
       style="fill:#ff8c00;fill-opacity:1"
       d="m 136.06381,255.30844 c -0.83338,-0.11426 -3.67443,-0.45393 -6.31346,-0.75481 C 111.46409,252.46874 89.888372,245.35587 71.548644,235.36627 37.503414,216.82191 11.992323,187.59761 3.6812151,157.62053 1.1137304,148.35996 0.73678999,145.33123 0.72682271,133.88195 0.71620268,121.68283 1.4157538,116.98524 4.7661299,106.75745 17.024789,69.335086 54.606244,35.088273 113.50747,7.6648521 c 8.92284,-4.1543283 12.93263,-5.2847235 23.56649,-6.6436184 6.64793,-0.84953433 20.16689,-0.72182579 27.22054,0.2571421 34.86311,4.8386115 65.17562,27.3640362 80.94026,60.1472312 8.25362,17.163744 10.28197,28.555815 10.27754,57.723043 -0.005,33.95817 -5.53416,60.55896 -17.23468,82.9186 -15.19531,29.03815 -40.39676,47.12016 -72.91939,52.31954 -4.79236,0.76615 -25.64375,1.42217 -29.29442,0.92165 l 0,0 z m 19.43512,-64.98422 c 4.78767,-2.44638 5.19149,-4.48204 4.97281,-25.06836 -0.16322,-15.36443 -0.17228,-15.47799 -1.40772,-17.63554 -0.6839,-1.19434 -2.04761,-2.67169 -3.03046,-3.28299 -1.76703,-1.09905 -2.06087,-1.1133 -26.28321,-1.27495 -26.22994,-0.17505 -28.55429,-0.009 -30.949427,2.21197 -2.953803,2.73892 -2.939671,2.62422 -2.782365,22.58362 l 0.144225,18.29937 1.212723,1.70036 c 0.666999,0.93519 2.144347,2.12344 3.282994,2.64056 1.92949,0.87626 3.78894,0.94095 27.34334,0.95129 25.22397,0.0111 25.27738,0.009 27.49709,-1.12533 z M 89.925621,155.96435 c 0.165019,-8.17135 0.257912,-8.88587 1.458317,-11.21736 0.819896,-1.59244 2.179596,-3.13479 3.771778,-4.27846 l 2.489708,-1.78836 30.320866,0 30.32087,0 2.14147,1.39207 c 2.5819,1.67838 4.44579,4.37615 5.14499,7.44677 0.28464,1.25006 0.52309,5.65648 0.52988,9.79205 l 0.0124,7.51921 5.93465,-0.26187 c 4.36406,-0.19256 6.6902,-0.5498 8.78961,-1.34989 5.45204,-2.07779 9.92554,-6.53372 12.13458,-12.08692 1.08746,-2.73372 1.14352,-3.61104 1.3201,-20.65866 0.10929,-10.55111 -0.0246,-19.14598 -0.32858,-21.09873 -1.30105,-8.35693 -6.80846,-14.772805 -14.68378,-17.105929 -2.02646,-0.600349 -4.87811,-0.812729 -10.91253,-0.812729 l -8.16918,0 -0.28205,3.729231 c -0.15512,2.051074 -0.63433,4.410488 -1.06491,5.243137 -1.0722,2.0734 -3.54878,4.05932 -5.50598,4.41514 -0.89465,0.16264 -12.91756,0.22851 -26.71759,0.14636 -24.54845,-0.14612 -25.1218,-0.17219 -26.51651,-1.20594 -2.859887,-2.11971 -3.698379,-4.015549 -3.698379,-8.362008 l 0,-3.96592 -8.494625,0 c -6.087371,0 -9.21896,0.215107 -11.05064,0.759054 -7.963163,2.364808 -13.650645,8.903894 -14.828726,17.049104 -0.627628,4.3394 -0.58801,33.71296 0.05092,37.75023 1.347296,8.51337 7.97619,15.51308 16.229368,17.13724 1.201092,0.23637 4.263693,0.45465 6.805782,0.48509 l 4.621978,0.0553 0.176246,-8.72725 z m 61.534639,-54.83732 c 0.959,-0.51432 2.20552,-1.553331 2.77004,-2.308915 0.97099,-1.299617 1.03436,-2.204648 1.17372,-16.762613 0.14283,-14.92073 0.11449,-15.447207 -0.9315,-17.308287 -2.22374,-3.956631 -1.48148,-3.848787 -26.48993,-3.848787 -25.00845,0 -24.26619,-0.107844 -26.48994,3.848787 -1.04566,1.860504 -1.07428,2.38939 -0.93149,17.218086 0.14321,14.872587 0.17851,15.342358 1.26766,16.869249 2.29531,3.21782 2.17804,3.2034 26.16165,3.21609 20.19331,0.0107 21.84918,-0.0545 23.46979,-0.92361 z"
       id="path2990"
       inkscape:connector-curvature="0"
       transform="translate(0,796.36218)" />
    <g
       id="g3051"
       transform="matrix(0.38917644,0,0,0.39433917,41.560151,821.19643)">
      <rect
         ry="47.974415"
         y="31"
         x="31"
         height="450"
         width="450"
         id="rect2986"
         style="fill:#f64747;fill-opacity:0.99607843;fill-rule:evenodd;stroke:none" />
      <path
         style="opacity:0.3;fill:#000000;fill-opacity:1"
         id="path70-9"
         inkscape:connector-curvature="0"
         d="m 198.74939,86.859946 c -17.1203,-0.29944 -31.89528,16.728534 -28.27573,33.740674 2.43633,25.99505 19.19784,47.08973 32.2778,68.55507 1.47078,7.99361 -2.74499,15.77485 -3.02728,23.71041 -8.52782,46.5898 -21.53788,92.92898 -41.55357,135.68028 -24.76698,11.40209 -52.81582,22.66174 -67.299282,47.23614 -9.19397,17.05038 3.75146,40.06169 22.754082,41.85959 17.62944,2.41128 30.71468,-12.69612 40.35186,-25.35398 10.06192,-13.61551 16.68369,-29.82828 25.05588,-44.46081 50.66573,-20.40481 103.96963,-34.66535 158.38156,-40.08016 22.00089,15.74583 45.31031,34.32239 73.52274,35.44492 16.39876,-0.24403 29.66868,-16.16265 27.87209,-32.33058 -1.05658,-14.72089 -14.1339,-25.044 -27.68215,-27.80614 -21.85051,-6.58219 -45.25755,-2.97715 -67.484,-2.81755 -42.77239,-34.17729 -82.25764,-73.50029 -113.36016,-118.4927 2.30838,-27.35369 6.94362,-57.61069 -7.29977,-82.49508 -5.40821,-7.848514 -14.57579,-13.230344 -24.23539,-12.383494 m 0.81518,24.842184 c 4.81596,0.92863 5.13649,8.10177 6.48459,11.93764 1.26895,7.81818 1.13045,15.79596 1.03812,23.69195 -5.73535,-10.72014 -13.1855,-21.9191 -11.85851,-34.62578 1.51166,-0.0593 2.85053,-0.82574 4.3358,-1.00117 m 26.53983,106.67377 c 25.49248,31.69741 53.8091,60.88859 84.71112,87.34927 -40.7476,6.21417 -81.22876,16.62433 -119.99643,30.66855 14.86865,-38.86001 26.18896,-79.00745 33.64833,-119.98325 0.54346,0.65557 1.08692,1.30984 1.63038,1.96543 m 159.01475,106.55504 c 9.88385,0.95369 21.2899,0.3812 29.20437,7.19292 0.74264,6.14822 -6.77874,7.04519 -10.78346,4.81991 -8.35635,-2.78985 -16.62301,-6.29727 -23.717,-11.64217 1.76756,-0.10949 3.52853,-0.33636 5.30269,-0.37066 m -246.99718,64.66115 c -4.69987,8.74153 -11.54193,16.98313 -18.67681,23.17355 -2.37434,3.8438 -8.89056,-3.2634 -5.89229,-6.26561 6.1904,-9.68994 16.99891,-14.82643 26.56618,-20.61454 -0.66745,1.23597 -1.33226,2.47194 -2.00104,3.70792" />
      <path
         style="fill:#ffffff"
         id="path70"
         inkscape:connector-curvature="0"
         d="m 192.74939,80.859944 c -17.1203,-0.299437 -31.89528,16.728532 -28.27573,33.740676 2.43633,25.99505 19.19784,47.08973 32.2778,68.55507 1.47078,7.99361 -2.74499,15.77485 -3.02728,23.71041 -8.52782,46.5898 -21.53788,92.92898 -41.55357,135.68028 -24.76698,11.40209 -52.815817,22.66174 -67.299284,47.23614 -9.19397,17.05038 3.751458,40.06169 22.754084,41.85959 17.62944,2.41128 30.71468,-12.69612 40.35186,-25.35398 10.06192,-13.61551 16.68369,-29.82828 25.05588,-44.46081 50.66573,-20.40481 103.96963,-34.66535 158.38156,-40.08016 22.00089,15.74583 45.31031,34.32239 73.52274,35.44492 16.39876,-0.24403 29.66868,-16.16265 27.87209,-32.33058 -1.05658,-14.72089 -14.1339,-25.044 -27.68215,-27.80614 -21.85051,-6.58219 -45.25755,-2.97715 -67.484,-2.81755 -42.77239,-34.17729 -82.25764,-73.50029 -113.36016,-118.4927 2.30838,-27.35369 6.94362,-57.61069 -7.29977,-82.495082 -5.40821,-7.848507 -14.57579,-13.23034 -24.23539,-12.383493 m 0.81518,24.842185 c 4.81596,0.92863 5.13649,8.10177 6.48459,11.93764 1.26895,7.81818 1.13045,15.79596 1.03812,23.69195 -5.73535,-10.72014 -13.1855,-21.9191 -11.85851,-34.62578 1.51166,-0.0593 2.85053,-0.82574 4.3358,-1.00117 m 26.53983,106.67377 c 25.49248,31.69741 53.8091,60.88859 84.71112,87.34927 -40.7476,6.21417 -81.22876,16.62433 -119.99643,30.66855 14.86865,-38.86001 26.18896,-79.00745 33.64833,-119.98325 0.54346,0.65557 1.08692,1.30984 1.63038,1.96543 m 159.01475,106.55504 c 9.88385,0.95369 21.2899,0.3812 29.20437,7.19292 0.74264,6.14822 -6.77874,7.04519 -10.78346,4.81991 -8.35635,-2.78985 -16.62301,-6.29727 -23.717,-11.64217 1.76756,-0.10949 3.52853,-0.33636 5.30269,-0.37066 m -246.99718,64.66115 c -4.69987,8.74153 -11.54193,16.98313 -18.67681,23.17355 -2.37434,3.8438 -8.89056,-3.2634 -5.89229,-6.26561 6.1904,-9.68994 16.99891,-14.82643 26.56618,-20.61454 -0.66745,1.23597 -1.33226,2.47194 -2.00104,3.70792" />
    </g>
    <path
       style="fill:#f64747;fill-opacity:0.99607843"
       d="M 131.51812,254.552 C 111.15484,251.69572 94.303653,246.49341 76.499578,237.56663 52.259215,225.41276 30.971155,206.91845 17.324413,186.15734 8.6712856,172.99314 2.8368947,157.83498 1.3832498,144.74109 0.58296315,137.5324 1.1537502,121.72745 2.4138405,116.20428 10.656928,80.073593 40.596511,47.377192 91.11202,19.33883 99.518979,14.672592 117.87529,5.8776609 122.35854,4.3679074 c 7.66462,-2.581098 14.54109,-3.46721079 26.83725,-3.45828912 8.88778,0.006449 12.37526,0.21916182 17.42513,1.06281782 29.22631,4.8826853 54.72362,21.7867589 71.35904,47.3092379 8.39306,12.876854 13.82386,26.790771 15.82574,40.546184 1.67858,11.533842 1.65463,42.687962 -0.0439,57.186072 -4.74722,40.51944 -19.54543,70.24753 -44.22554,88.84455 -13.88067,10.4594 -32.36706,17.37511 -50.05156,18.72415 -7.86936,0.60031 -23.59116,0.58309 -27.96652,-0.0306 l -2e-5,-2e-5 z m 83.33759,-40.54278 c 1.38896,-0.37012 3.29855,-1.07295 4.24355,-1.56185 2.7129,-1.40355 6.55392,-5.58395 8.03577,-8.7458 l 1.35774,-2.89702 0,-75.00382 0,-75.003827 -1.34371,-2.866382 c -1.88123,-4.013004 -4.98487,-7.183165 -8.93766,-9.129213 l -3.33413,-1.641464 -72.46295,-0.133041 C 61.903535,36.878987 67.010973,36.67413 61.718784,40.263454 c -3.073329,2.084424 -4.753889,4.1498 -6.624753,8.141678 l -1.357655,2.896847 0,74.498751 0,74.49875 1.357655,2.89684 c 1.882278,4.01624 3.600669,6.11986 6.655502,8.14755 5.264354,3.49427 0.06579,3.27683 79.112497,3.30911 58.00214,0.0237 71.94413,-0.0976 73.99368,-0.64376 z"
       id="path3056"
       inkscape:connector-curvature="0"
       transform="translate(0,796.36218)" />
  </g>
</svg>
