<svg xmlns="http://www.w3.org/2000/svg" xmlns:xlink="http://www.w3.org/1999/xlink" viewBox="0 0 256 256"><defs><clipPath><path d="m24 7.03c-9.363 0-16.97 7.606-16.97 16.97 0 9.363 7.606 16.97 16.97 16.97 9.363 0 16.97-7.606 16.97-16.97 0-9.363-7.606-16.97-16.97-16.97"/></clipPath><clipPath><path d="m24 6.917c-9.426 0-17.08 7.657-17.08 17.08 0 9.426 7.657 17.08 17.08 17.08 9.426 0 17.08-7.657 17.08-17.08 0-9.426-7.657-17.08-17.08-17.08"/></clipPath><radialGradient gradientTransform="matrix(0 1.23165-1.62575 0 18.487-28.722)" gradientUnits="userSpaceOnUse" id="0" r="20.397" cy="3.99" cx="23.896"><stop stop-color="#fadc65"/><stop offset=".848" stop-color="#fecb31"/><stop offset="1" stop-color="#f0c003"/></radialGradient><radialGradient r="20.397" cy="4.03" cx="26.562" gradientTransform="matrix(0 1.37869-1.27196 0 29-23.568)" gradientUnits="userSpaceOnUse" xlink:href="#0"/></defs><g transform="translate(0-796.36)"><path d="m182.83 797.33c-368.15-25.644-92.2 469.58 64.2 143.49 21.558-50.25 5.804-125.18-64.2-143.49" fill="#ff69b4" color="#000"/><g transform="matrix(5.83881 0 0 6.44623 12.02 736.32)" fill="#fff"><circle r="2" cy="18" cx="12"/><circle cx="17" cy="18" r="2"/><circle r="2" cy="18" cx="22"/><circle cx="27" cy="18" r="2"/><g transform="translate(0 5)"><circle cx="12" cy="18" r="2"/><circle r="2" cy="18" cx="17"/><circle cx="22" cy="18" r="2"/><circle r="2" cy="18" cx="27"/></g><circle cx="27" cy="18" r="2" transform="translate(5 5)"/><circle r="2" cy="18" cx="27" transform="translate(-20 5)"/><circle cx="27" cy="18" r="2" transform="translate(-20 10)"/><circle r="2" cy="18" cx="27" transform="translate(-15 10)"/><circle cx="27" cy="18" r="2" transform="translate(5 10)"/><circle r="2" cy="18" cx="27" transform="translate(0 10)"/></g></g></svg>