<svg xmlns="http://www.w3.org/2000/svg" viewBox="0 0 256 256"><path d="m 233.98 203.4688 c -48.541 88.14 -200.63 53.931 -226.36 -18.64 -30.66 -86.449996 49.14 -250.629996 184.3 -154.449996 45.527 33.585 90.6 84.948996 42.05 173.089996 z" style="fill:#ff8c00;color:#000"/><path d="m 55.304871 147.99104 c 0 -44.04251 0.02266 -44.62585 1.734081 -44.62585 1.156048 0 1.734073 -0.58335 1.734073 -1.75003 0 -1.16669 -0.578025 -1.750033 -1.734073 -1.750033 -1.445064 0 -1.734081 -0.583351 -1.734081 -3.500074 0 -1.942323 0.420547 -3.500067 0.944908 -3.500067 1.336839 0 5.99139 4.586293 5.99139 5.903523 0 0.603138 0.330472 1.096618 0.734372 1.096618 0.403911 0 1.612383 0.768493 2.685494 1.707763 1.679418 1.46996 2.003537 2.77983 2.327554 9.40643 0.476946 9.7543 0.895364 11.63624 2.587126 11.63624 0.750864 0 1.569276 0.78751 1.818684 1.75003 0.249408 0.96253 0.892065 1.75004 1.428137 1.75004 0.536064 0 3.124182 2.2866 5.751378 5.08131 2.627188 2.79473 5.459498 5.3418 6.294026 5.66016 0.834519 0.31835 1.517314 1.15528 1.517314 1.85984 0 0.70457 0.766774 1.52662 1.703953 1.82681 1.919343 0.61479 2.849982 4.19394 2.505216 9.63484 -0.121981 1.92503 -0.143526 8.91423 -0.04787 15.53154 0.172542 11.93771 0.18952 12.03149 2.177899 12.03149 h 2.004006 l -0.383322 -17.62566 l -0.383324 -17.62565 l -4.221787 -4.23829 c -2.321988 -2.33105 -4.221796 -4.63719 -4.221796 -5.12477 0 -0.48758 -0.405697 -0.88651 -0.901554 -0.88651 -0.495857 0 -3.445814 -2.64461 -6.555462 -5.87693 l -5.653891 -5.87692 l 0.19783 -9.33106 l 0.19783 -9.33104 l -4.913858 -4.841613 c -6.128529 -6.038429 -6.337243 -7.618258 -1.006462 -7.618258 3.087292 0 4.302979 -0.459138 5.792107 -2.187541 1.571559 -1.824093 2.65587 -2.187542 6.526266 -2.187542 4.014237 0 4.985219 -0.354788 7.184234 -2.625049 2.085806 -2.153386 3.248967 -2.625051 6.47356 -2.625051 2.161989 0 3.930882 0.393758 3.930882 0.875016 0 0.48126 1.36559 0.875017 3.034639 0.875017 1.66905 0 3.03463 -0.393757 3.03463 -0.875017 0 -0.481258 1.1705 -0.875016 2.60111 -0.875016 2.3121 0 2.60111 0.291672 2.60111 2.625051 0 2.216708 0.33718 2.625049 2.16759 2.625049 1.73408 0 2.16759 -0.437509 2.16759 -2.187541 0 -1.203149 -0.48771 -2.194345 -1.08379 -2.202661 -0.5961 -0.0083 -1.97424 -0.962948 -3.06257 -2.121409 -1.77399 -1.888327 -2.4828 -2.053793 -6.84943 -1.598969 -4.097377 0.426779 -5.056518 0.250808 -6.041324 -1.10839 -1.719893 -2.373743 -1.536742 -9.069537 0.267194 -9.768142 1.745306 -0.675899 12.94684 -12.067959 13.62827 -13.860064 0.38735 -1.018734 2.51183 -1.278477 10.4569 -1.278477 h 9.97076 l 6.83455 7.000134 c 3.75899 3.850074 7.25651 7.000135 7.77227 7.000135 0.51575 0 1.1854 -0.787515 1.4881 -1.750034 0.41093 -1.306629 1.31186 -1.750033 3.5558 -1.750033 2.1963 0 3.68997 -0.706721 5.54809 -2.625051 2.42739 -2.506035 2.87393 -2.625049 9.84895 -2.625049 8.45711 0 9.97507 1.232587 6.20436 5.037989 -2.62784 2.652023 -2.79395 4.589191 -0.44664 5.208676 0.95375 0.251704 1.73407 0.741449 1.73407 1.088322 0 0.94588 12.98966 14.040497 13.92796 14.040497 0.44642 0 0.81168 0.984395 0.81168 2.187542 0 2.009298 -0.31791 2.187542 -3.90167 2.187542 -3.39589 0 -4.35124 0.453712 -7.36981 3.500066 -1.90749 1.925038 -3.46816 3.893825 -3.46816 4.375085 0 1.32358 -6.58154 1.048198 -7.70879 -0.322548 -0.56361 -0.685351 -0.88714 -3.505668 -0.75645 -6.593952 0.12562 -2.968011 -0.16178 -5.677608 -0.63864 -6.021322 -0.47687 -0.343716 -1.29903 -1.412453 -1.82701 -2.374971 -0.52798 -0.962519 -1.63637 -1.884232 -2.4631 -2.048251 -1.64669 -0.326704 -4.81379 -3.204387 -4.81379 -4.373921 0 -0.404011 -0.9754 -1.183084 -2.16759 -1.731275 -1.19217 -0.548191 -2.16759 -1.595788 -2.16759 -2.327995 0 -0.747939 -0.75984 -1.331285 -1.73407 -1.331285 -0.95374 0 -1.72167 0.29532 -1.70651 0.656264 0.0499 1.186067 2.31056 3.718821 3.3194 3.718821 0.54352 0 0.98822 0.393757 0.98822 0.875016 0 0.481259 2.341 3.237562 5.20223 6.125117 3.58374 3.616735 5.20221 5.930669 5.20221 7.437642 0 1.203148 -0.39016 2.187543 -0.86703 2.187543 -0.47687 0 -0.86704 0.590636 -0.86704 1.312524 0 0.721889 -0.55334 1.312525 -1.22965 1.312525 -2.17907 0 -3.97258 -1.029874 -3.97258 -2.281159 0 -1.61753 -2.52237 -1.569115 -3.14194 0.06031 -0.26751 0.703569 -1.23069 1.517619 -2.14037 1.809 -2.30709 0.738977 -2.06244 3.186993 0.51361 5.139326 1.65658 1.255488 2.16759 2.439025 2.16759 5.020284 v 3.377503 h 4.77367 c 4.51894 0 4.9816 0.21286 8.67037 3.98903 3.56232 3.64673 3.89671 4.3614 3.89671 8.32813 0 3.83801 -0.36314 4.69497 -3.14462 7.42101 -1.72954 1.69507 -2.92943 3.2991 -2.66645 3.5645 0.92388 0.93237 3.9941 -0.66023 4.52459 -2.34702 0.29496 -0.9379 0.91222 -1.70528 1.37169 -1.70528 0.45947 0 2.08868 -1.37816 3.62048 -3.06256 2.23517 -2.45785 3.42826 -3.06256 6.04248 -3.06256 1.79155 0 3.25739 -0.42188 3.25739 -0.93752 0 -1.3667 -2.27041 -3.43756 -3.76882 -3.43756 -2.10341 0 -4.03451 -0.98963 -4.03451 -2.06756 0 -0.55292 -1.07297 -1.48549 -2.38436 -2.07238 -2.48064 -1.11017 -5.08446 -5.65781 -4.13095 -7.21483 1.01922 -1.664307 5.48705 -1.036523 6.08178 0.85456 0.64484 2.05042 1.568 2.22096 2.94674 0.5444 0.77902 -0.94731 0.61597 -1.30476 -0.76086 -1.66813 -1.21304 -0.32013 -1.75235 -1.190143 -1.75235 -2.826788 0 -2.504866 -0.24033 -2.473378 5.85249 -0.766861 1.44188 0.403849 1.95084 0.177346 1.95084 -0.868178 0 -0.778018 -0.39017 -1.414579 -0.86704 -1.414579 -0.47687 0 -0.86704 -0.417527 -0.86704 -0.927837 0 -0.537104 1.36923 -0.81347 3.25139 -0.656262 2.61171 0.218143 3.3059 0.658919 3.52846 2.240362 0.40577 2.88331 3.6246 2.689045 3.6246 -0.218754 0 -1.847259 0.40462 -2.187543 2.60111 -2.187543 1.73407 0 2.60111 0.437508 2.60111 1.312526 0 0.721888 0.78033 2.10004 1.73407 3.062558 1.69087 1.706419 1.73408 2.916726 1.73408 48.563446 v 46.81338 h -72.39761 h -72.397598 v -44.62585 z m 62.426689 38.50074 c 0 -1.62039 -0.57803 -1.75003 -7.80334 -1.75003 -7.22531 0 -7.80334 0.12964 -7.80334 1.75003 0 1.62039 0.57803 1.75003 7.80334 1.75003 7.22531 0 7.80334 -0.12964 7.80334 -1.75003 z m -17.34075 -4.40254 c 0 -0.97763 -0.602075 -2.01067 -1.337953 -2.29564 -1.811537 -0.70155 -2.403308 0.0761 -1.717418 2.25716 0.734809 2.33647 3.055371 2.36569 3.055371 0.0385 v -0.00003 z m 22.13019 -0.0385 c 0.68589 -2.18097 0.0941 -2.95871 -1.71742 -2.25716 -1.68641 0.65311 -1.76687 4.07314 -0.0958 4.07314 0.68317 0 1.49913 -0.81718 1.81324 -1.81597 v -0.00001 z m 5.61501 -5.18415 c 0 -0.70465 -2.11406 -1.75003 -3.53906 -1.75003 -1.19964 0 -0.956 2.42294 0.28766 2.86075 1.3378 0.47094 3.2514 -0.18276 3.2514 -1.11072 z m -5.20223 -4.81259 c 0 -2.44696 -2.10098 -3.01491 -2.94468 -0.79606 -0.65807 1.73071 0.0538 2.9836 1.69529 2.9836 0.75466 0 1.24939 -0.86622 1.24939 -2.18754 z m 6.13735 -5.55111 c 1.87003 -1.84996 3.40006 -3.81875 3.40006 -4.37509 0 -1.69583 -2.73384 -1.12582 -3.19837 0.66688 -0.23919 0.92312 -1.56824 2.15215 -2.95345 2.73121 -1.51611 0.63377 -2.51854 1.70712 -2.51854 2.6967 0 2.48885 1.51619 1.99411 5.2703 -1.7197 z m 20.7408 -3.63656 c 0 -1.57055 -0.57803 -1.75004 -5.63574 -1.75004 -5.05772 0 -5.63574 0.17949 -5.63574 1.75004 0 1.57054 0.57802 1.75002 5.63574 1.75002 5.05771 0 5.63574 -0.17948 5.63574 -1.75002 z m -13.01883 -3.71881 c -0.008 -0.60158 -0.39747 -1.6844 -0.86704 -2.40629 -0.7589 -1.16668 -0.94862 -1.16668 -1.70752 0 -1.36227 2.09428 -1.01937 3.50006 0.85376 3.50006 0.95374 0 1.7281 -0.49219 1.7208 -1.09377 z m 17.69477 -0.29032 c 0.81992 -2.15631 0.62973 -2.99099 -0.6815 -2.99099 -1.13605 0 -2.26036 1.77655 -2.26036 3.57163 0 1.35873 2.38332 0.88834 2.94186 -0.58064 z m 4.53695 -5.14967 c 0.86905 -2.28554 -0.004 -3.24416 -1.76878 -1.94192 -0.90252 0.66602 -1.36229 1.66316 -1.02262 2.21783 0.85397 1.39446 2.20713 1.26071 2.7914 -0.27591 z m -44.97383 -0.68513 c -0.54914 -1.6828 -4.12277 -1.92518 -4.12277 -0.27961 0 0.89341 0.78278 1.37339 2.23984 1.37339 1.40422 0 2.10669 -0.40806 1.88293 -1.09378 z m -4.12277 -3.28031 c 0 -0.94856 -6.39298 -7.87614 -7.26835 -7.87614 -0.29424 0 -0.53499 0.93846 -0.53499 2.08548 0 1.34959 0.6119 2.24697 1.73408 2.54314 0.95374 0.2517 1.73408 1.05627 1.73408 1.78792 0 1.14875 1.13018 1.83335 3.68491 2.23212 0.35765 0.0558 0.65027 -0.2918 0.65027 -0.77252 z m 58.35955 -0.94095 c 0.25866 -0.99823 1.26666 -2.02514 2.24 -2.28201 0.97333 -0.25689 2.00729 -1.22254 2.29769 -2.14592 0.2904 -0.92338 1.49651 -2.31931 2.68026 -3.10206 3.72115 -2.46064 7.25363 -6.1771 7.25363 -7.63142 0 -2.14142 -1.65015 -1.67472 -4.33519 1.22608 -1.33638 1.44377 -2.83138 2.62505 -3.32219 2.62505 -0.49082 0 -1.01707 0.88595 -1.16946 1.96879 -0.17805 1.26524 -0.97419 2.0687 -2.22789 2.2484 -1.07296 0.15378 -1.95083 0.67411 -1.95083 1.15627 0 1.89098 -2.64317 3.37671 -6.00733 3.37671 -2.9009 0 -3.53008 0.29892 -3.53008 1.67712 0 1.94105 1.09914 2.53264 4.88434 2.62887 2.05231 0.0522 2.83177 -0.37479 3.18705 -1.74588 z m -8.16299 -5.22616 c 1.72413 -1.82075 3.27555 -2.58406 5.2521 -2.58406 2.03465 0 2.92447 -0.46034 3.23945 -1.67592 0.23884 -0.92175 1.37282 -1.91365 2.51994 -2.2042 2.73173 -0.69195 3.03337 -4.87004 0.35159 -4.87004 -0.95374 0 -1.73711 0.29532 -1.74083 0.65627 -0.008 0.76227 -4.18664 2.8438 -5.70908 2.8438 -0.56921 0 -1.25951 0.59063 -1.534 1.31252 -0.27449 0.72189 -1.26377 1.31253 -2.19843 1.31253 -0.93464 0 -2.31448 0.62078 -3.06628 1.37952 -1.96623 1.98431 -8.08434 1.93969 -12.3904 -0.0904 -2.0144 -0.94968 -3.68558 -2.12044 -3.71375 -2.6017 -0.10098 -1.72519 -3.12067 -4.53649 -5.52762 -5.14616 -1.36935 -0.34684 -2.64793 -1.37634 -2.89538 -2.33132 -0.24373 -0.9406 -1.17798 -1.71019 -2.0761 -1.71019 -1.21006 0 -1.6258 0.62316 -1.60538 2.4063 0.0334 2.92012 1.49048 5.004 4.07826 5.83289 1.06236 0.34029 4.1822 2.94317 6.93297 5.78416 l 5.00139 5.16548 l 6.3173 -0.44775 c 5.57526 -0.39515 6.60474 -0.75127 8.76425 -3.03178 z m -60.221681 -6.31486 c -0.02984 -1.31687 -0.127342 -4.75686 -0.216758 -7.64441 l -0.162565 -5.2501 h -3.901668 c -2.89013 0 -3.901669 0.34028 -3.901669 1.31252 0 0.7219 0.330462 1.31253 0.734373 1.31253 0.403901 0 1.574406 0.73526 2.601112 1.63391 1.503696 1.31616 1.866739 2.60492 1.866739 6.62679 0 4.28411 0.215391 4.95101 1.517315 4.69797 1.021799 -0.19859 1.499617 -1.0768 1.463121 -2.68921 z m 62.911961 -7.86317 c -0.003 -1.81317 -0.39649 -1.96878 -4.98845 -1.96878 -4.54705 0 -5.23576 -0.2638 -7.82228 -2.99614 -1.55994 -1.64789 -3.06992 -3.93578 -3.35554 -5.08421 -0.85451 -3.43603 0.29395 -9.03785 2.22516 -10.85362 0.99277 -0.9334 1.80502 -2.07552 1.80502 -2.53803 0 -1.66899 -1.79472 -0.78008 -4.69908 2.32741 -2.53776 2.71526 -2.89121 3.60368 -2.47169 6.21269 0.31407 1.95321 0.10478 3.28433 -0.58394 3.7139 -0.74533 0.46487 0.61489 2.4245 4.44982 6.41071 5.67027 5.89394 5.41414 5.77259 13.92609 6.59777 1.03929 0.10075 1.51656 -0.47319 1.51489 -1.8217 z m 24.90137 -2.85537 c 0.24215 -5.6092 -0.35382 -8.30108 -1.83785 -8.30108 -1.46313 0 -2.22487 2.7024 -2.24036 7.94806 -0.0129 4.37494 0.49865 5.37459 2.547 4.9771 0.9663 -0.18752 1.39565 -1.48414 1.53121 -4.62408 z m -59.58042 -1.96549 c 0 -1.46692 -0.68058 -2.84351 -1.73407 -3.50747 -0.95375 -0.60111 -1.73409 -1.99522 -1.73409 -3.09804 0 -3.60912 -4.59914 -5.83437 -5.75821 -2.78606 -1.61963 4.2595 2.71856 11.80614 6.78676 11.80614 2.08539 0 2.43961 -0.35058 2.43961 -2.41457 z m -38.149644 -8.9521 c 0 -6.90771 -0.02077 -6.97359 -1.73408 -5.49314 -2.753529 2.37935 -2.327545 12.48471 0.526284 12.48471 0.931596 0 1.207796 -1.59885 1.207796 -6.99157 z m 10.205754 0.15551 c 0.18875 -0.5715 -0.274565 -1.03909 -1.02961 -1.03909 -0.755045 0 -1.372815 0.62345 -1.372815 1.38545 0 1.5452 1.866527 1.27611 2.402425 -0.34636 z m 3.80582 -9.78927 c 0.63325 -1.44377 1.55466 -2.62504 2.04757 -2.62504 1.07772 0 3.88271 -3.16794 3.88271 -4.385088 0 -0.475759 -0.39016 -0.865015 -0.86704 -0.865015 -0.49586 0 -0.86704 -2.635313 -0.86704 -6.155903 0 -5.884756 -0.0764 -6.11465 -1.73406 -5.219314 -1.53611 0.829664 -1.73408 1.83213 -1.73408 8.780954 v 7.844366 h -5.462335 c -5.013783 0 -7.543226 0.93893 -7.543226 2.80004 0 0.38502 1.95083 0.70002 4.335184 0.70002 2.384355 0 4.335187 0.39376 4.335187 0.87502 0 1.93546 2.52875 0.70861 3.60713 -1.75004 z m 82.70977 -3.57629 c 0.89349 -1.45903 -1.11607 -3.132142 -2.31215 -1.92505 -1.00049 1.0097 -0.37432 2.8763 0.9649 2.8763 0.42058 0 1.02684 -0.42807 1.34725 -0.95125 z m 8.55276 0.42012 c 1.75706 -0.68045 1.75382 -1.75861 -0.007 -2.44065 -1.84027 -0.712683 -2.99508 0.10182 -2.39224 1.68728 0.55786 1.46713 0.55713 1.46689 2.39956 0.75337 h -0.00038 z m -57.11412 -7.741757 c 2.57928 -2.603037 2.72387 -4.543629 0.3941 -5.289875 -0.95374 -0.305491 -1.73407 -1.119541 -1.73407 -1.808999 0 -0.689457 -0.78034 -1.253559 -1.73408 -1.253559 -0.95374 0 -1.73407 0.564102 -1.73407 1.253559 0 0.689458 -0.78033 1.503508 -1.73408 1.808999 -2.27513 0.728746 -2.19644 2.626721 0.21676 5.22785 2.50115 2.695917 3.70387 2.70771 6.32544 0.06201 v 0.000004 z m -10.01034 -22.446318 c 0 -2.021308 -1.38431 -2.134409 -3.23718 -0.264483 -1.11539 1.125652 -1.16005 1.528648 -0.23346 2.106586 1.66145 1.036278 3.47064 0.07602 3.47064 -1.842103 z m 7.80333 0.531125 c 0 -1.203148 -0.34842 -2.187541 -0.77428 -2.187541 -1.01119 0 -1.97162 2.555742 -1.34496 3.579029 0.94445 1.542209 2.11924 0.770843 2.11924 -1.391488 z m 10.40445 -0.437508 c 0 -0.972241 -0.57803 -1.750033 -1.30056 -1.750033 -0.72252 0 -1.30056 0.777792 -1.30056 1.750033 0 0.972241 0.57804 1.750034 1.30056 1.750034 0.72253 0 1.30056 -0.777793 1.30056 -1.750034 z m -14.4791 -2.923155 c 0.60897 -1.60156 -0.71032 -3.565491 -1.89767 -2.824916 -1.38264 0.862379 -1.19141 3.998038 0.24381 3.998038 0.66429 0 1.40852 -0.527905 1.65386 -1.173122 z" style="fill:#fff;fill-rule:evenodd"/></svg>