<svg xmlns="http://www.w3.org/2000/svg" viewBox="0 0 256 256"><defs><clipPath id="0"><rect y="7.472" x="202.61" height="121.2" width="117.84" fill="#fff" rx="27.03"/></clipPath><clipPath><rect y="10.03" x="173.22" height="103.73" width="103.73" fill="#fff" rx="14.885"/></clipPath><clipPath><rect y="1.449" x="165.87" height="119.32" width="119.32" fill="#fff" rx="24.569"/></clipPath></defs><g transform="translate(0 -796.36)"><path d="m 229.63 992.2 c 92.05 -130.93 -77.948 -263.6 -186.39 -156.91 -102.17 100.51 -7.449 256.68 119.69 207.86 c 26.526 -10.185 49.802 -26.914 66.7 -50.948 z" fill="#629045" color="#000"/><g transform="matrix(1.56176 0 0 1.48698 30.22 815.92)"><rect width="99.23" height="101.63" x="13.902" y="13.425" fill="#fff" rx="27.03"/><path d="m 189.5 68.37 v -71.864 h 71.864 h 71.864 v 71.864 v 71.864 h -71.864 h -71.864 v -71.864 z m 105.2 18.878 c 0.04 -10.538 0.145 -19.16 0.235 -19.16 0.09 0 1.131 0.833 2.314 1.852 2.362 2.033 2.972 2.359 4.429 2.359 2.175 0 3.758 -1.547 3.758 -3.674 0 -2.566 2.266 -0.498 -27.23 -24.849 -8.415 -6.947 -15.603 -12.839 -15.974 -13.09 -0.499 -0.343 -0.813 -0.39 -1.204 -0.181 -0.291 0.156 -8.261 6.663 -17.712 14.46 -29.01 23.932 -26.307 21.482 -26.307 23.864 0 1.451 0.085 1.661 1.067 2.643 2.092 2.092 3.86 1.732 7.706 -1.565 l 2.176 -1.865 v 18.918 c 0 14.376 0.081 19 0.338 19.256 0.261 0.261 7.903 0.322 33.34 0.267 l 32.998 -0.071 l 0.072 -19.16 z m -27.23 11.227 c -1.748 -1.084 -2.025 -3.518 -0.56 -4.912 2.684 -2.553 6.676 0.44 4.975 3.73 -0.803 1.552 -2.909 2.116 -4.415 1.183 z m 8.424 0.053 c -1.484 -0.805 -2.01 -2.758 -1.178 -4.369 0.422 -0.816 1.839 -1.648 2.807 -1.648 0.88 0 2.395 0.924 2.801 1.708 1.481 2.865 -1.589 5.851 -4.43 4.309 z m 8.702 0.015 c -2.223 -1.25 -2.058 -4.683 0.271 -5.656 2.167 -0.905 4.35 0.502 4.4 2.837 0.023 1.062 -0.114 1.409 -0.841 2.136 -1.047 1.047 -2.668 1.337 -3.83 0.683 z m -16.967 -8.731 c -1.866 -0.92 -2.241 -3.504 -0.718 -4.952 2.684 -2.553 6.676 0.44 4.975 3.73 -0.471 0.91 -1.722 1.679 -2.718 1.669 -0.355 -0.004 -1.047 -0.204 -1.538 -0.446 z m 8.265 0.013 c -1.484 -0.805 -2.01 -2.758 -1.178 -4.369 0.422 -0.816 1.839 -1.648 2.807 -1.648 0.88 0 2.395 0.924 2.801 1.708 1.481 2.865 -1.589 5.851 -4.43 4.309 z m 8.702 0.015 c -2.223 -1.25 -2.058 -4.683 0.271 -5.656 1.34 -0.56 2.588 -0.294 3.606 0.769 1.778 1.856 0.598 4.902 -2.01 5.196 -0.678 0.076 -1.39 -0.041 -1.865 -0.309 z m -16.967 -8.731 c -1.866 -0.92 -2.241 -3.504 -0.718 -4.952 2.684 -2.553 6.676 0.44 4.975 3.73 -0.471 0.91 -1.722 1.679 -2.718 1.669 -0.355 -0.004 -1.047 -0.204 -1.538 -0.446 z m 8.265 0.013 c -1.484 -0.805 -2.01 -2.758 -1.178 -4.369 0.422 -0.816 1.839 -1.648 2.807 -1.648 0.88 0 2.395 0.924 2.801 1.708 1.481 2.865 -1.589 5.851 -4.43 4.309 z m 8.702 0.015 c -2.223 -1.25 -2.058 -4.683 0.271 -5.656 1.34 -0.56 2.588 -0.294 3.606 0.769 1.778 1.856 0.598 4.902 -2.01 5.196 -0.678 0.076 -1.39 -0.041 -1.865 -0.309 z" clip-path="url(#0)" transform="translate(-198.75 -3.356)" fill="#629045"/></g></g></svg>