<svg xmlns="http://www.w3.org/2000/svg" viewBox="0 0 256 256"><defs><clipPath><path transform="matrix(15.33333 0 0 11.5 415 -125.5)" d="m -24 13 c 0 1.105 -0.672 2 -1.5 2 -0.828 0 -1.5 -0.895 -1.5 -2 0 -1.105 0.672 -2 1.5 -2 0.828 0 1.5 0.895 1.5 2 z"/></clipPath></defs><path d="m 199.12 26.665 c -189.78 -126.21 -303.39 264.3 -55.871 226.25 106.85 -7.476 157.46 -168.37 55.871 -226.25 z" style="fill:#090000;color:#000"/><path d="m 253.47 140.14 a 79.957 81.05 0 1 1 -159.91 0 79.957 81.05 0 1 1 159.91 0 z" transform="matrix(1.0138 0 0 0.92637 -48.08 -6.542)" style="fill:#dcb480;stroke:#000;fill-rule:evenodd"/><g transform="matrix(0.87338 0 0 0.87205 29.582 20.676)"><path d="m 16.12 126.36 v -102 h 94.49 h 94.49 v 102 v 102 h -94.5 h -94.5 v -102 z m 99.18 62.5 c 3.384 -1.375 6.695 -2.5 7.358 -2.5 1.579 0 3.928 -2.855 3.062 -3.722 -0.37 -0.37 -1.966 0.091 -3.547 1.024 -1.58 0.934 -3.614 1.697 -4.519 1.697 -0.905 0 -3.02 0.712 -4.703 1.581 -3.605 1.864 -6.127 1.394 -11.281 -2.104 -2.086 -1.415 -5.203 -2.809 -6.927 -3.097 -2.98 -0.497 -2.937 -0.428 0.865 1.407 2.2 1.062 4.9 2.947 6 4.189 1.819 2.055 4.798 3.797 6.77 3.96 0.423 0.035 3.539 -1.062 6.922 -2.437 z m -26.397 -6.352 c 0.911 -0.578 -0.036 -1.528 -3.198 -3.206 -3.124 -1.657 -4.937 -3.46 -5.948 -5.913 l -1.454 -3.529 l -0.097 3.215 c -0.068 2.261 0.824 4.264 3.01 6.75 3.084 3.513 5.213 4.255 7.692 2.682 z m 63.705 -3.02 c 7.05 -1.356 11.02 -3.294 13.285 -6.478 2.134 -3 2.144 -3.127 0.296 -3.811 -1.051 -0.389 -2.321 -1.44 -2.822 -2.336 -0.789 -1.41 -1.606 -1.082 -6.06 2.436 -2.829 2.236 -6.079 4.066 -7.223 4.066 -2.909 0 -7.61 2.595 -8.392 4.633 -0.853 2.222 1.243 3.569 4.413 2.837 1.375 -0.318 4.3 -0.924 6.5 -1.347 z m -89.39 -5.411 c -0.612 -0.612 -1.112 -1.923 -1.112 -2.912 0 -0.99 -0.675 -1.8 -1.5 -1.8 -1.99 0 -1.901 0.615 0.691 4.809 1.246 2.02 2.373 2.999 2.612 2.281 0.232 -0.696 -0.079 -1.765 -0.691 -2.377 z m 13.817 -6.463 c -0.254 -2.705 -2.11 -4.758 -5.984 -6.617 -4.225 -2.027 -4.522 -2.452 -5.978 -8.56 -1.654 -6.942 -3.968 -9.365 -3.968 -4.156 0 2.622 -0.374 3.083 -2.5 3.083 -1.375 0 -2.5 0.193 -2.5 0.429 0 0.236 1.8 3.139 4 6.451 2.2 3.312 4 6.719 4 7.571 0 1.749 1.335 1.975 3.817 0.647 1.084 -0.58 2.755 -0.431 4.684 0.419 3.583 1.578 4.523 1.733 4.429 0.733 z m 94.21 -10.75 c 3.459 -3.802 5.313 -4.376 6.25 -1.937 1.394 3.633 2.378 -0.18 2.399 -9.299 0.027 -11.597 -0.242 -12.889 -2.818 -13.563 -1.082 -0.283 -1.967 -1.231 -1.967 -2.108 0 -2.267 -1.622 -1.971 -3.443 0.629 -2.353 3.359 -1.883 6.325 1.443 9.124 1.65 1.388 3 3.398 3 4.466 0 2.443 -2.737 4.784 -5.12 4.38 -1.292 -0.219 -1.983 0.499 -2.407 2.5 -0.327 1.544 -0.74 3.482 -0.92 4.307 -0.179 0.825 -0.651 2.287 -1.047 3.25 -1.2 2.914 1.217 2 4.63 -1.75 z m -122.65 -4.915 c 2.744 -4.134 3.441 -6.03 2.945 -8 -0.357 -1.422 -0.847 -2.585 -1.09 -2.585 -1.231 0 -6.073 3.045 -7.698 4.841 -1.778 1.965 -1.783 2.227 -0.112 6.602 0.957 2.506 1.88 4.556 2.051 4.556 0.171 0 1.928 -2.437 3.905 -5.415 z m 8.542 -16.585 c 1.131 0 3.971 -5.328 3.971 -7.45 0 -1.07 -0.97 -1.55 -3.132 -1.55 -3.067 0 -3.121 0.081 -2.604 3.933 0.378 2.82 0.132 4.085 -0.868 4.469 -1.606 0.616 -1.882 4.18 -0.396 5.098 0.55 0.34 1.081 1.604 1.18 2.809 0.099 1.205 0.349 0.054 0.555 -2.559 0.206 -2.613 0.788 -4.75 1.294 -4.75 z m -5.03 -8.5 c 0 -0.825 -0.661 -1.5 -1.469 -1.5 -0.895 0 -1.244 0.586 -0.893 1.5 0.317 0.825 0.977 1.5 1.469 1.5 0.491 0 0.893 -0.675 0.893 -1.5 z m 131 -2.559 c 0 -0.518 -0.675 -0.941 -1.5 -0.941 -1.546 0 -1.987 1.18 -0.861 2.306 0.799 0.799 2.361 -0.104 2.361 -1.365 z m -140.68 -3.912 c -0.74 -0.813 -2.219 2.325 -1.582 3.357 0.334 0.54 0.922 0.111 1.308 -0.952 0.386 -1.063 0.509 -2.146 0.273 -2.405 z m 152.11 -2.587 c 0.352 -1.404 0.004 -3.654 -0.805 -5.197 l -1.426 -2.721 l -1.666 3.493 c -1.321 2.769 -1.441 4.084 -0.581 6.347 0.866 2.278 1.364 2.622 2.47 1.704 0.762 -0.632 1.665 -2.264 2.01 -3.625 z m -7.88 -6.311 c -1.509 -10.812 -1.628 -11.132 -4.157 -11.132 -1.996 0 -2.389 0.501 -2.389 3.048 0 1.966 0.887 3.87 2.5 5.365 1.661 1.54 2.5 3.388 2.5 5.511 0 2.061 0.389 2.954 1.096 2.517 0.698 -0.431 0.861 -2.359 0.45 -5.309 z m -145.39 0.118 c 1.235 -2.612 2.44 -5.151 2.677 -5.641 0.918 -1.896 -4.753 0.518 -7.713 3.282 -3.505 3.274 -3.62 3.622 -1.867 5.613 2.372 2.694 4.583 1.651 6.902 -3.254 z m 12.848 -8.25 c 0 -0.55 -0.675 -1 -1.5 -1 -0.825 0 -1.5 0.45 -1.5 1 0 0.55 0.675 1 1.5 1 0.825 0 1.5 -0.45 1.5 -1 z m 125.4 -11.911 c -0.514 -3.217 -1.316 -4.512 -3.483 -5.634 -1.549 -0.801 -3.486 -1.456 -4.306 -1.456 -2.624 0 -2.814 1.972 -0.283 2.934 1.346 0.512 3.735 2.723 5.31 4.915 1.575 2.191 2.991 3.857 3.147 3.701 0.156 -0.156 -0.018 -2.163 -0.385 -4.46 z m -128.6 -4.236 c -2.569 -1.63 -3.957 -1.021 -2.763 1.211 0.901 1.684 1.377 1.839 2.583 0.838 1.188 -0.986 1.223 -1.388 0.18 -2.049 z m 111.03 -1.407 c 1.038 0.329 2.599 0.326 3.468 -0.008 2.148 -0.824 0.345 -4.824 -2.826 -6.269 -2.462 -1.122 -3.474 -0.013 -3.474 3.805 0 0.996 -0.675 2.07 -1.5 2.387 -0.825 0.317 -1.485 1.377 -1.467 2.357 0.029 1.529 0.308 1.451 1.972 -0.545 1.292 -1.55 2.568 -2.126 3.826 -1.727 z m -124.24 0.054 c 1.274 -1.375 2.737 -2.5 3.25 -2.5 0.513 0 1.625 -1.056 2.47 -2.347 1.485 -2.266 1.452 -2.33 -0.967 -1.868 -1.378 0.263 -2.782 1.201 -3.121 2.084 -0.339 0.883 -1.977 2.848 -3.641 4.368 -1.664 1.52 -2.414 2.763 -1.667 2.763 0.747 0 2.401 -1.125 3.675 -2.5 z m 34.12 -1.93 c -0.088 -3.12 -0.272 -3.323 -2.023 -2.25 -1.059 0.649 -2.869 1.721 -4.02 2.381 -2.085 1.195 -2.083 1.207 0.372 2.187 4.662 1.861 5.779 1.404 5.674 -2.318 z m 1.454 -14.626 c -0.516 -5.073 -5.376 -8.05 -6.448 -3.944 -0.326 1.248 -0.031 2 0.786 2 0.72 0 1.793 1.391 2.386 3.09 1.431 4.105 3.729 3.301 3.277 -1.146 z m 69.27 -0.496 c 0.589 -1.063 2.109 -3.238 3.378 -4.834 1.697 -2.135 2.01 -3.194 1.188 -4.01 -0.819 -0.81 -1.383 -0.638 -2.106 0.644 -1.443 2.558 -3.372 2.151 -6.299 -1.327 -2.552 -3.03 -3.601 -8.923 -1.589 -8.923 0.55 0 1 -0.45 1 -1 0 -0.55 -0.942 -1 -2.092 -1 -1.151 0 -3.221 -0.888 -4.601 -1.973 -2.307 -1.815 -2.741 -1.853 -5.408 -0.474 -2.02 1.043 -2.899 2.254 -2.899 3.982 0 2.234 0.201 2.357 2 1.232 1.391 -0.868 2.491 -0.944 3.597 -0.246 2.224 1.403 7.399 11.475 7.399 14.401 0 2.651 2.762 6.325 4.356 5.794 0.551 -0.184 1.484 -1.204 2.073 -2.266 z m 22.267 1.199 c -0.222 -0.631 -1.102 -1.025 -1.957 -0.875 -1.124 0.197 -1.749 -0.911 -2.255 -4 -0.832 -5.076 -2.941 -7.773 -6.079 -7.773 -3.357 0 -3.744 1.547 -0.86 3.437 1.39 0.911 3.446 3.547 4.57 5.859 1.527 3.142 2.667 4.241 4.514 4.351 1.474 0.088 2.308 -0.316 2.068 -1 z m -46.895 -4.847 c 1.623 -1.623 1.511 -2.8 -0.265 -2.8 -0.806 0 -3 -1.35 -4.882 -3 -1.879 -1.65 -3.647 -3 -3.929 -3 -0.282 0 0.049 1.903 0.736 4.23 0.9 3.047 1.919 4.417 3.644 4.9 3.471 0.972 3.388 0.978 4.696 -0.33 z m -28.26 -0.867 c 1.144 -1.851 -0.284 -2.173 -4.077 -0.921 -3.273 1.08 -3.98 0.983 -6.527 -0.9 -2.622 -1.938 -5.937 -2.831 -5.937 -1.598 c 0 0.282 0.558 1.407 1.241 2.5 1.037 1.661 2.339 1.986 7.941 1.986 3.685 0 6.997 -0.48 7.36 -1.067 z m 6.307 -14.448 c 0.823 -0.823 -1.121 -2.485 -2.907 -2.485 -2.189 0 -2.493 -1.048 -0.796 -2.745 0.86 -0.86 0.474 -1.313 -1.547 -1.82 -3.129 -0.785 -4.482 0.081 -2.781 1.781 0.651 0.651 1.183 2.143 1.183 3.317 0 1.173 0.324 2.457 0.72 2.853 0.648 0.648 5.257 -0.03 6.128 -0.901 z m 8.652 0.515 c -0.34 -0.55 -1.041 -1 -1.559 -1 -0.518 0 -0.941 0.45 -0.941 1 0 0.55 0.702 1 1.559 1 0.857 0 1.281 -0.45 0.941 -1 z" style="fill:#2895e4"/><path d="m 16.12 126.36 v -102 h 94.49 h 94.49 v 102 v 102 h -94.5 h -94.5 v -102 z m 99.18 62.5 c 3.384 -1.375 6.695 -2.5 7.358 -2.5 1.579 0 3.928 -2.855 3.062 -3.722 -0.37 -0.37 -1.966 0.091 -3.547 1.024 -1.58 0.934 -3.614 1.697 -4.519 1.697 -0.905 0 -3.02 0.712 -4.703 1.581 -3.605 1.864 -6.127 1.394 -11.281 -2.104 -2.086 -1.415 -5.203 -2.809 -6.927 -3.097 -2.98 -0.497 -2.937 -0.428 0.865 1.407 2.2 1.062 4.9 2.947 6 4.189 1.819 2.055 4.798 3.797 6.77 3.96 0.423 0.035 3.539 -1.062 6.922 -2.437 z m -26.397 -6.352 c 0.911 -0.578 -0.036 -1.528 -3.198 -3.206 -3.124 -1.657 -4.937 -3.46 -5.948 -5.913 l -1.454 -3.529 l -0.097 3.215 c -0.068 2.261 0.824 4.264 3.01 6.75 3.084 3.513 5.213 4.255 7.692 2.682 z m 63.705 -3.02 c 7.05 -1.356 11.02 -3.294 13.285 -6.478 2.134 -3 2.144 -3.127 0.296 -3.811 -1.051 -0.389 -2.321 -1.44 -2.822 -2.336 -0.789 -1.41 -1.606 -1.082 -6.06 2.436 -2.829 2.236 -6.079 4.066 -7.223 4.066 -2.909 0 -7.61 2.595 -8.392 4.633 -0.853 2.222 1.243 3.569 4.413 2.837 1.375 -0.318 4.3 -0.924 6.5 -1.347 z m -89.39 -5.411 c -0.612 -0.612 -1.112 -1.923 -1.112 -2.912 0 -0.99 -0.675 -1.8 -1.5 -1.8 -1.99 0 -1.901 0.615 0.691 4.809 1.246 2.02 2.373 2.999 2.612 2.281 0.232 -0.696 -0.079 -1.765 -0.691 -2.377 z m 42.888 1.91 c 0 -1.971 2.984 -4.177 5.154 -3.81 1.016 0.172 1.846 -0.154 1.846 -0.724 0 -0.57 1.365 -1.743 3.03 -2.605 3.742 -1.935 3 -3.483 -1.657 -3.483 -4.569 0 -7 -1.376 -8.891 -5.03 -1.812 -3.503 -3.743 -3.925 -3.298 -0.72 0.283 2.033 -0.062 2.227 -3.567 2.01 -5.738 -0.348 -6.714 -1.606 -6.32 -8.153 0.353 -5.875 -1.287 -10.112 -3.915 -10.112 -1.946 0 -1.728 1.01 0.802 3.699 1.687 1.796 1.916 2.599 1 3.514 -1.404 1.404 -1.562 6.217 -0.282 8.609 0.498 0.93 1.078 3.938 1.289 6.684 0.369 4.797 0.495 4.982 3.181 4.693 1.538 -0.166 3.482 0.267 4.319 0.962 1.248 1.036 1.746 0.958 2.763 -0.433 1.631 -2.23 2.543 -1.176 2.543 2.939 0 1.833 0.45 3.333 1 3.333 0.55 0 1 -0.62 1 -1.378 z m -7.557 -10.04 c -1.067 -0.78 -1.59 -1.768 -1.163 -2.194 0.427 -0.427 1.764 0.211 2.971 1.418 2.446 2.446 1.205 2.979 -1.807 0.776 z m 34.582 1.853 c 1.29 -3.392 1.23 -4.09 -0.225 -2.635 -0.66 0.66 -2.685 1.2 -4.5 1.2 -2.083 0 -3.3 0.492 -3.3 1.333 0 2.01 1.037 2.667 4.191 2.667 2.148 0 3.1 -0.637 3.833 -2.565 z m -56.1 -0.185 c -0.254 -2.705 -2.11 -4.758 -5.984 -6.617 -4.225 -2.027 -4.522 -2.452 -5.978 -8.56 -1.654 -6.942 -3.968 -9.365 -3.968 -4.156 0 2.622 -0.374 3.083 -2.5 3.083 -1.375 0 -2.5 0.193 -2.5 0.429 0 0.236 1.8 3.139 4 6.451 2.2 3.312 4 6.719 4 7.571 0 1.749 1.335 1.975 3.817 0.647 1.084 -0.58 2.755 -0.431 4.684 0.419 3.583 1.578 4.523 1.733 4.429 0.733 z m 45 -5.821 c -2.447 -2.604 -4.408 -3.087 -5.482 -1.349 -0.643 1.04 2.335 3.759 5.516 5.04 2.461 0.988 2.442 -1.052 -0.034 -3.687 z m 11.844 -1.254 c -0.302 -1.828 0.136 -1.891 4.973 -0.715 1.787 0.435 3.25 1.184 3.25 1.665 0 1.49 3.682 0.963 5.086 -0.729 0.732 -0.882 2.362 -1.996 3.622 -2.475 2.833 -1.077 2.943 -3.03 0.265 -4.705 -1.769 -1.105 -2.312 -0.933 -4.274 1.347 -1.962 2.281 -2.728 2.523 -6.04 1.901 -2.943 -0.552 -4.339 -1.578 -6.239 -4.588 -2.63 -4.166 -5.422 -5.132 -5.422 -1.876 0 1.111 -0.667 2 -1.5 2 -1.672 0 -2.064 -3.533 -0.5 -4.5 1.833 -1.133 1.031 -2.364 -1.75 -2.684 -2.053 -0.236 -2.838 -0.943 -3.099 -2.789 -0.192 -1.36 -1.654 -3.808 -3.25 -5.44 -2.748 -2.811 -2.901 -2.852 -2.901 -0.778 0 1.204 0.45 2.19 1 2.19 0.55 0 1 0.629 1 1.398 0 0.769 1.12 3.356 2.488 5.75 1.368 2.394 2.493 5.05 2.5 5.902 0.022 2.887 2.068 3.959 4.506 2.362 1.952 -1.279 2.375 -1.276 3.454 0.024 0.754 0.909 0.973 2.648 0.567 4.498 -0.364 1.659 -0.373 3.485 -0.019 4.057 0.927 1.499 2.608 0.16 2.282 -1.817 z m 37.36 -3.675 c 3.459 -3.802 5.313 -4.376 6.25 -1.937 1.394 3.633 2.378 -0.18 2.399 -9.299 0.027 -11.597 -0.242 -12.889 -2.818 -13.563 -1.082 -0.283 -1.967 -1.231 -1.967 -2.108 0 -2.267 -1.622 -1.971 -3.443 0.629 -2.353 3.359 -1.883 6.325 1.443 9.124 1.65 1.388 3 3.398 3 4.466 0 2.443 -2.737 4.784 -5.12 4.38 -1.292 -0.219 -1.983 0.499 -2.407 2.5 -0.327 1.544 -0.74 3.482 -0.92 4.307 -0.179 0.825 -0.651 2.287 -1.047 3.25 -1.2 2.914 1.217 2 4.63 -1.75 z m -89.14 1.7 c 0 -1.052 -2.172 -3.2 -3.235 -3.2 -0.459 0 -0.354 0.9 0.235 2 1.057 1.975 3 2.752 3 1.2 z m -33.513 -6.615 c 2.744 -4.134 3.441 -6.03 2.945 -8 -0.357 -1.422 -0.847 -2.585 -1.09 -2.585 -1.231 0 -6.073 3.045 -7.698 4.841 -1.778 1.965 -1.783 2.227 -0.112 6.602 0.957 2.506 1.88 4.556 2.051 4.556 0.171 0 1.928 -2.437 3.905 -5.415 z m 68.04 2.415 c 3.445 0 3.721 -1.262 1.439 -6.585 -1.124 -2.621 -1.816 -5.357 -1.538 -6.08 0.277 -0.723 -0.602 -2.421 -1.954 -3.773 l -2.459 -2.459 l -0.443 2.198 c -1.247 6.185 -1.482 10.824 -0.654 12.894 0.507 1.267 1.236 3.204 1.62 4.304 0.437 1.253 0.872 1.533 1.165 0.75 0.257 -0.688 1.528 -1.25 2.825 -1.25 z m -3.524 -8.5 c 0 -0.825 0.436 -1.5 0.969 -1.5 0.533 0 0.71 0.675 0.393 1.5 -0.317 0.825 -0.752 1.5 -0.969 1.5 -0.216 0 -0.393 -0.675 -0.393 -1.5 z m -4.485 5.452 c 0.358 -1.126 0.204 -2.589 -0.341 -3.25 -0.545 -0.661 -0.814 -4.062 -0.597 -7.557 l 0.394 -6.355 l -2.581 0.648 c -1.419 0.356 -3.124 0.197 -3.787 -0.353 -1.567 -1.3 -5.602 -0.24 -5.602 1.473 0 1.864 1.974 2.868 3.21 1.633 0.698 -0.698 1.749 -0.71 3.223 -0.039 l 2.188 0.997 l -2.426 4.903 c -2.702 5.46 -2.437 8.09 0.732 7.258 1.325 -0.347 2.268 0.034 2.668 1.078 0.85 2.215 2.14 2.023 2.92 -0.435 z m -26.6 -1.375 c 5.698 -0.128 5.057 -4.522 -0.665 -4.561 -1.421 -0.01 -2.25 -0.625 -2.25 -1.67 0 -1.54 -0.127 -1.54 -1.829 0 -1.01 0.91 -2.356 1.655 -3 1.655 -0.644 0 -1.171 1.399 -1.171 3.108 0 2.914 0.172 3.059 2.75 2.327 1.513 -0.43 4.287 -0.816 6.165 -0.858 z m 73.38 -3.831 c 5.101 -0.542 8.709 -2.942 8.709 -5.793 0 -0.956 -0.675 -1.997 -1.5 -2.314 -1 -0.384 -1.5 0.04 -1.5 1.271 0 3.058 -2.631 4.58 -5.587 3.233 -2.908 -1.325 -5.755 -0.24 -7.39 2.815 -1.661 3.104 -1.282 4.579 0.727 2.825 0.963 -0.84 3.906 -1.757 6.541 -2.037 z m -14.291 1.421 c 0 -1.409 -1.126 -2.055 -2.598 -1.491 -2.087 0.801 -1.695 2.324 0.598 2.324 1.1 0 2 -0.375 2 -0.833 z m -43 -3.75 c 0 -1.766 -2.153 -1.458 -2.771 0.396 -0.218 0.653 0.317 1.188 1.188 1.188 0.871 0 1.583 -0.713 1.583 -1.583 z m 38 0.083 c 0 -1.883 1.021 -1.889 4.612 -0.026 3.107 1.612 4.778 0.79 4.226 -2.078 -0.397 -2.06 -6.746 -3.845 -8.288 -2.329 -1.684 1.655 -4.717 1.01 -5.275 -1.123 -0.296 -1.131 -1.102 -1.84 -1.792 -1.575 -0.69 0.265 -2.235 -0.206 -3.433 -1.045 -4.45 -3.117 -3.252 -0.114 1.875 4.699 5.371 5.04 8.07 6.207 8.07 3.478 z m -78.971 -8.5 c 1.131 0 3.971 -5.328 3.971 -7.45 0 -1.07 -0.97 -1.55 -3.132 -1.55 -3.067 0 -3.121 0.081 -2.604 3.933 0.378 2.82 0.132 4.085 -0.868 4.469 -1.606 0.616 -1.882 4.18 -0.396 5.098 0.55 0.34 1.081 1.604 1.18 2.809 0.099 1.205 0.349 0.054 0.555 -2.559 0.206 -2.613 0.788 -4.75 1.294 -4.75 z m 95.29 0.102 c 1.218 -2.896 1.22 -2.897 3.563 -1 3.054 2.473 4.475 2.426 3.122 -0.102 -1.489 -2.782 0.182 -5.52 4.229 -6.928 1.799 -0.626 4.734 -2.78 6.521 -4.787 5.274 -5.921 3.808 -12.226 -2.52 -10.836 -1.568 0.344 -3.813 0.271 -4.989 -0.164 -2.056 -0.761 -2.077 -0.915 -0.539 -4.09 0.879 -1.815 2.905 -3.975 4.503 -4.801 2.602 -1.346 2.873 -1.939 2.6 -5.698 -0.292 -4.02 -0.456 -4.209 -3.856 -4.494 -4.736 -0.398 -7.696 2.534 -5.916 5.86 0.777 1.452 0.964 4.247 0.537 8.02 -0.58 5.13 -0.428 5.919 1.321 6.855 1.088 0.582 3.371 1.058 5.074 1.058 3.81 0 4.669 1.872 2.65 5.776 -2.048 3.96 -11.381 7.955 -14.582 6.242 -2.794 -1.495 -12.03 1.345 -12.03 3.698 0 1.268 -0.831 1.442 -4.5 0.939 -4.439 -0.608 -6.437 0.808 -2.75 1.949 0.963 0.298 2.531 0.959 3.486 1.469 3.272 1.747 6.598 1.113 6.944 -1.323 0.414 -2.913 4.82 -3.845 4.82 -1.02 0 1.028 -0.501 2.37 -1.113 2.982 -1.191 1.191 -0.414 3.287 1.22 3.287 0.544 0 1.538 -1.304 2.208 -2.898 z m -74.64 -3.069 c 0.672 -1.347 2.179 -2.803 3.349 -3.236 3.499 -1.294 2.094 -4.288 -2.038 -4.343 -3.101 -0.041 -3.519 -0.369 -3.82 -3 -0.186 -1.625 -0.754 -3.457 -1.262 -4.071 -0.592 -0.716 -0.38 -1.568 0.588 -2.372 0.832 -0.69 1.512 -2.264 1.512 -3.498 0 -1.233 0.901 -3.388 2 -4.787 1.639 -2.084 2.823 -2.532 6.539 -2.476 2.496 0.038 4.772 0.447 5.058 0.91 0.844 1.366 4.402 0.959 4.402 -0.504 0 -1.663 -3.431 -4.891 -4.288 -4.03 -0.344 0.344 -1.433 0.313 -2.419 -0.069 -1.696 -0.657 -1.688 -0.772 0.148 -2.124 1.068 -0.786 3.437 -1.429 5.265 -1.429 2.666 0 3.725 -0.643 5.355 -3.25 2.126 -3.4 2.085 -7.605 -0.129 -13.43 l -1.063 -2.797 l -1.752 2.322 c -2.281 3.02 -7.166 2.68 -8.607 -0.605 -1.536 -3.501 -4.26 -3.802 -7.06 -0.779 l -2.439 2.632 l 1.995 2.142 c 1.098 1.178 1.995 2.507 1.995 2.953 0 1.424 1.992 0.877 5.056 -1.388 2.812 -2.079 3.069 -2.105 4.693 -0.481 2.354 2.354 0.52 5.18 -3.362 5.18 -2.514 0 -2.837 0.322 -2.503 2.5 1.057 6.906 0.851 7.399 -3.382 8.114 -2.2 0.371 -4.15 0.272 -4.333 -0.219 -0.183 -0.492 -1.421 -0.894 -2.75 -0.894 -1.329 0 -2.417 -0.342 -2.417 -0.76 0 -2.06 -5.304 -6.24 -7.918 -6.24 -3.86 0 -5.141 1.861 -4.404 6.4 0.672 4.141 3.04 5.855 4.496 3.254 1.358 -2.427 4.19 -2.151 3.537 0.345 -0.288 1.099 -0.106 2.257 0.404 2.572 0.524 0.324 0.645 3.32 0.279 6.898 -0.579 5.655 -0.438 6.437 1.337 7.387 1.666 0.892 1.913 1.831 1.54 5.853 -0.821 8.846 3.295 13.556 6.401 7.324 z m -3.671 -25.827 c 0 -1.078 0.713 -2.553 1.585 -3.276 1.392 -1.155 1.544 -0.966 1.25 1.55 -0.381 3.26 -2.835 4.754 -2.835 1.726 z m -11 -10.122 c 0 -1.228 0.646 -2.083 1.573 -2.083 0.931 0 1.441 0.68 1.25 1.667 -0.487 2.509 -2.823 2.853 -2.823 0.416 z m 32.737 33.905 c 0.143 -0.819 -0.169 -2.157 -0.694 -2.975 -0.809 -1.26 -1.287 -1.13 -3.136 0.856 -1.782 1.913 -1.928 2.506 -0.795 3.235 1.928 1.24 4.314 0.665 4.625 -1.116 z m 33.26 0.071 c 0 -0.518 -0.45 -1.219 -1 -1.559 -0.55 -0.34 -1 0.083 -1 0.941 0 0.857 0.45 1.559 1 1.559 0.55 0 1 -0.423 1 -0.941 z m -77 -3.559 c 0 -0.825 -0.661 -1.5 -1.469 -1.5 -0.895 0 -1.244 0.586 -0.893 1.5 0.317 0.825 0.977 1.5 1.469 1.5 0.491 0 0.893 -0.675 0.893 -1.5 z m 131 -2.559 c 0 -0.518 -0.675 -0.941 -1.5 -0.941 -1.546 0 -1.987 1.18 -0.861 2.306 0.799 0.799 2.361 -0.104 2.361 -1.365 z m -38 -2.133 c 3.03 -1.077 6.588 -2.037 7.917 -2.133 1.329 -0.096 2.601 -0.729 2.827 -1.406 0.564 -1.694 -14.454 -0.785 -20.402 1.234 -2.427 0.824 -5.071 1.498 -5.877 1.498 -0.806 0 -1.465 0.702 -1.465 1.559 0 0.857 0.359 1.337 0.798 1.066 0.439 -0.271 1.451 -0.08 2.25 0.424 1.787 1.129 6.706 0.339 13.952 -2.242 z m -102.68 -1.779 c -0.74 -0.813 -2.219 2.325 -1.582 3.357 0.334 0.54 0.922 0.111 1.308 -0.952 0.386 -1.063 0.509 -2.146 0.273 -2.405 z m 75.68 2.971 c 0 -0.55 -0.45 -1 -1 -1 -0.55 0 -1 0.45 -1 1 0 0.55 0.45 1 1 1 0.55 0 1 -0.45 1 -1 z m -13.804 -3.132 c 0.692 -1.986 2.343 -3.455 5.4 -4.807 2.422 -1.071 4.404 -2.423 4.404 -3 0 -1.352 -1.687 -1.372 -2.516 -0.03 -0.349 0.565 -1.163 0.926 -1.809 0.804 -2.142 -0.406 -5.675 1.282 -5.675 2.711 0 1.516 -4.916 4.458 -7.45 4.458 -0.852 0 -1.55 0.614 -1.55 1.364 0 0.93 1.304 1.364 4.1 1.364 3.611 0 4.218 -0.341 5.096 -2.859 z m 4.408 0.403 c -1.017 -1.017 -1.855 0.514 -1.021 1.863 0.63 1.019 0.866 1.02 1.204 0.004 0.232 -0.695 0.149 -1.535 -0.183 -1.867 z m -26.797 -3.099 c 0.319 -4.331 -1.01 -5.528 -2.679 -2.412 -1.19 2.224 -0.254 7.446 1.246 6.953 0.619 -0.203 1.264 -2.247 1.433 -4.542 z m 112.62 0.27 c 0.352 -1.404 0.004 -3.654 -0.805 -5.197 l -1.426 -2.721 l -1.666 3.493 c -1.321 2.769 -1.441 4.084 -0.581 6.347 0.866 2.278 1.364 2.622 2.47 1.704 0.762 -0.632 1.665 -2.264 2.01 -3.625 z m -93.11 -1.094 c 0.358 -0.358 -0.518 -1.258 -1.948 -2 -3.11 -1.614 -3.371 -1.641 -3.371 -0.348 0 0.55 0.675 1 1.5 1 0.825 0 1.5 0.45 1.5 1 0 1.13 1.336 1.331 2.318 0.348 z m 85.23 -5.217 c -1.509 -10.812 -1.628 -11.132 -4.157 -11.132 -1.996 0 -2.389 0.501 -2.389 3.048 0 1.966 0.887 3.87 2.5 5.365 1.661 1.54 2.5 3.388 2.5 5.511 0 2.061 0.389 2.954 1.096 2.517 0.698 -0.431 0.861 -2.359 0.45 -5.309 z m -145.39 0.118 c 1.235 -2.612 2.44 -5.151 2.677 -5.641 0.918 -1.896 -4.753 0.518 -7.713 3.282 -3.505 3.274 -3.62 3.622 -1.867 5.613 2.372 2.694 4.583 1.651 6.902 -3.254 z m 82.71 2.199 c 0.316 -1.631 0.148 -1.705 -1.25 -0.545 -1.911 1.586 -2.149 3.44 -0.365 2.846 0.688 -0.229 1.414 -1.265 1.615 -2.302 z m 8.135 1.718 c 0 -1.302 -1.189 -2.168 -2.156 -1.57 -1.034 0.639 -0.142 2.404 1.215 2.404 0.518 0 0.941 -0.375 0.941 -0.833 z m -37.575 -4.288 c -0.648 -1.049 -2.425 -0.207 -2.425 1.149 0 0.5 0.672 0.652 1.494 0.336 0.822 -0.315 1.241 -0.984 0.931 -1.485 z m 22.575 0.121 c 0 -0.55 -0.477 -1 -1.059 -1 -0.582 0 -0.781 0.45 -0.441 1 0.34 0.55 0.816 1 1.059 1 0.243 0 0.441 -0.45 0.441 -1 z m 22 -0.301 c 0 -1.947 -2.376 -6.683 -3.357 -6.692 -0.471 -0.004 -0.584 0.704 -0.25 1.574 0.334 0.87 0.607 2.67 0.607 4 0 1.483 0.58 2.418 1.5 2.418 0.825 0 1.5 -0.585 1.5 -1.301 z m 15.602 -0.864 c 0.314 -0.508 0.022 -1.584 -0.648 -2.392 -1.489 -1.794 -3.953 -0.183 -3.953 2.585 0 1.296 0.551 1.64 2.02 1.257 1.109 -0.29 2.272 -0.942 2.586 -1.45 z m -50.602 -0.776 c 0 -0.518 -0.45 -1.219 -1 -1.559 -0.55 -0.34 -1 0.084 -1 0.941 0 0.857 0.45 1.559 1 1.559 0.55 0 1 -0.423 1 -0.941 z m 24 -3.681 c 0 -2.105 -2.698 -1.639 -3.275 0.565 -0.279 1.068 -0.261 2.189 0.041 2.491 0.817 0.817 3.233 -1.467 3.233 -3.056 z m -74 -2.378 c 0 -0.55 -0.675 -1 -1.5 -1 -0.825 0 -1.5 0.45 -1.5 1 0 0.55 0.675 1 1.5 1 0.825 0 1.5 -0.45 1.5 -1 z m 92 -2.363 c 3.328 -0.851 6.649 -5.387 5.088 -6.949 -0.85 -0.85 -1.633 -0.828 -3.099 0.087 -2.53 1.58 -2.989 1.543 -2.989 -0.24 0 -0.806 0.945 -1.97 2.1 -2.589 1.581 -0.846 1.972 -1.781 1.584 -3.785 -0.311 -1.603 0.079 -3.324 0.98 -4.328 1.873 -2.087 0.219 -5.833 -2.576 -5.833 -1.013 0 -2.398 -0.67 -3.078 -1.489 -0.68 -0.819 -1.703 -1.2 -2.274 -0.847 -0.661 0.408 -0.497 1.041 0.45 1.739 2.176 1.605 4.01 5.465 3.217 6.756 -0.38 0.615 -0.845 2.932 -1.033 5.15 -0.193 2.272 -1.221 4.969 -2.356 6.176 -2.915 3.103 -2.562 9.954 0.394 7.644 0.601 -0.469 2.217 -1.141 3.592 -1.493 z m -30 -1.621 c 0 -0.424 -0.675 -1.331 -1.5 -2.02 -0.825 -0.685 -1.5 -1.879 -1.5 -2.654 0 -0.775 0.675 -1.668 1.5 -1.985 0.825 -0.317 1.5 -1.661 1.5 -2.988 0 -2.676 -4.461 -10.373 -6.01 -10.373 -1.19 0 -1.193 0.409 -0.041 5.373 0.589 2.538 0.526 4.691 -0.183 6.246 -0.859 1.885 -0.74 2.75 0.578 4.206 0.912 1.01 1.659 2.51 1.659 3.337 0 0.828 0.269 1.774 0.598 2.102 0.754 0.754 3.402 -0.218 3.402 -1.249 z m 17.82 -0.765 c 0.246 -1.729 -0.174 -2.25 -1.809 -2.25 -1.171 0 -1.88 0.403 -1.575 0.895 0.304 0.492 -0.148 1.164 -1 1.493 -2.209 0.848 -0.674 2.788 1.913 2.419 1.352 -0.193 2.275 -1.146 2.475 -2.557 z m 45.579 -7.161 c -0.514 -3.217 -1.316 -4.512 -3.483 -5.634 -1.549 -0.801 -3.486 -1.456 -4.306 -1.456 -2.624 0 -2.814 1.972 -0.283 2.934 1.346 0.512 3.735 2.723 5.31 4.915 1.575 2.191 2.991 3.857 3.147 3.701 0.156 -0.156 -0.018 -2.163 -0.385 -4.46 z m -42.4 1.47 c 0 -2.322 -1.585 -4.308 -2.615 -3.277 -0.761 0.761 0.733 5.718 1.724 5.718 0.49 0 0.892 -1.098 0.892 -2.441 z m -86.2 -5.705 c -2.569 -1.63 -3.957 -1.021 -2.763 1.211 0.901 1.684 1.377 1.839 2.583 0.838 1.188 -0.986 1.223 -1.388 0.18 -2.049 z m 82.76 -0.604 c 1.451 -1.513 3.213 -4.059 3.917 -5.658 1.204 -2.738 1.066 -3.13 -2.348 -6.704 -1.994 -2.088 -4.623 -4.942 -5.84 -6.342 -2.753 -3.165 -6.736 -3.541 -5.786 -0.546 0.357 1.126 0.18 2 -0.407 2 -1.12 0 -4.093 5.139 -4.093 7.08 0 0.764 1.018 0.971 2.913 0.592 3.494 -0.699 4.599 0.462 5.4 5.672 0.507 3.299 2.157 6.661 3.269 6.661 0.185 0 1.524 -1.237 2.975 -2.75 z m -4.557 -8.25 c 0 -0.55 0.45 -1 1 -1 0.55 0 1 0.45 1 1 0 0.55 -0.45 1 -1 1 -0.55 0 -1 -0.45 -1 -1 z m 32.831 7.446 c 1.038 0.329 2.599 0.326 3.468 -0.008 2.148 -0.824 0.345 -4.824 -2.826 -6.269 -2.462 -1.122 -3.474 -0.013 -3.474 3.805 0 0.996 -0.675 2.07 -1.5 2.387 -0.825 0.317 -1.485 1.377 -1.467 2.357 0.029 1.529 0.308 1.451 1.972 -0.545 1.292 -1.55 2.568 -2.126 3.826 -1.727 z m -124.24 0.054 c 1.274 -1.375 2.737 -2.5 3.25 -2.5 0.513 0 1.625 -1.056 2.47 -2.347 1.485 -2.266 1.452 -2.33 -0.967 -1.868 -1.378 0.263 -2.782 1.201 -3.121 2.084 -0.339 0.883 -1.977 2.848 -3.641 4.368 -1.664 1.52 -2.414 2.763 -1.667 2.763 0.747 0 2.401 -1.125 3.675 -2.5 z m 34.12 -1.93 c -0.088 -3.12 -0.272 -3.323 -2.023 -2.25 -1.059 0.649 -2.869 1.721 -4.02 2.381 -2.085 1.195 -2.083 1.207 0.372 2.187 4.662 1.861 5.779 1.404 5.674 -2.318 z m 47.795 0.43 c 1.081 -1.749 -0.522 -3.227 -2.089 -1.926 -0.776 0.644 -1.411 1.566 -1.411 2.049 0 1.206 2.738 1.11 3.5 -0.122 z m -12.02 -11.25 c -1.026 -3.528 -4.288 -5.823 -7.333 -5.16 -4.579 0.998 -5.147 1.309 -5.147 2.819 0 2.185 1.665 2.816 3.843 1.456 1.594 -0.995 2.417 -0.835 4.791 0.934 3.691 2.751 4.658 2.738 3.847 -0.05 z m -34.32 -3.806 c -0.516 -5.073 -5.376 -8.05 -6.448 -3.944 -0.326 1.248 -0.031 2 0.786 2 0.72 0 1.793 1.391 2.386 3.09 1.431 4.105 3.729 3.301 3.277 -1.146 z m 77.66 2.389 c -0.487 -2.509 -2.823 -2.853 -2.823 -0.416 0 1.228 0.646 2.083 1.573 2.083 0.931 0 1.441 -0.68 1.25 -1.667 z m -8.395 -2.884 c 0.589 -1.063 2.109 -3.238 3.378 -4.834 1.697 -2.135 2.01 -3.194 1.188 -4.01 -0.819 -0.81 -1.383 -0.638 -2.106 0.644 -1.443 2.558 -3.372 2.151 -6.299 -1.327 -2.552 -3.03 -3.601 -8.923 -1.589 -8.923 0.55 0 1 -0.45 1 -1 0 -0.55 -0.942 -1 -2.092 -1 -1.151 0 -3.221 -0.888 -4.601 -1.973 -2.307 -1.815 -2.741 -1.853 -5.408 -0.474 -2.02 1.043 -2.899 2.254 -2.899 3.982 0 2.234 0.201 2.357 2 1.232 1.391 -0.868 2.491 -0.944 3.597 -0.246 2.224 1.403 7.399 11.475 7.399 14.401 0 2.651 2.762 6.325 4.356 5.794 0.551 -0.184 1.484 -1.204 2.073 -2.266 z m 22.267 1.199 c -0.222 -0.631 -1.102 -1.025 -1.957 -0.875 -1.124 0.197 -1.749 -0.911 -2.255 -4 -0.832 -5.076 -2.941 -7.773 -6.079 -7.773 -3.357 0 -3.744 1.547 -0.86 3.437 1.39 0.911 3.446 3.547 4.57 5.859 1.527 3.142 2.667 4.241 4.514 4.351 1.474 0.088 2.308 -0.316 2.068 -1 z m -46.895 -4.847 c 1.623 -1.623 1.511 -2.8 -0.265 -2.8 -0.806 0 -3 -1.35 -4.882 -3 -1.879 -1.65 -3.647 -3 -3.929 -3 -0.282 0 0.049 1.903 0.736 4.23 0.9 3.047 1.919 4.417 3.644 4.9 3.471 0.972 3.388 0.978 4.696 -0.33 z m -28.26 -0.867 c 1.144 -1.851 -0.284 -2.173 -4.077 -0.921 -3.273 1.08 -3.98 0.983 -6.527 -0.9 -2.622 -1.938 -5.937 -2.831 -5.937 -1.598 c 0 0.282 0.558 1.407 1.241 2.5 1.037 1.661 2.339 1.986 7.941 1.986 3.685 0 6.997 -0.48 7.36 -1.067 z m 6.307 -14.448 c 0.823 -0.823 -1.121 -2.485 -2.907 -2.485 -2.189 0 -2.493 -1.048 -0.796 -2.745 0.86 -0.86 0.474 -1.313 -1.547 -1.82 -3.129 -0.785 -4.482 0.081 -2.781 1.781 0.651 0.651 1.183 2.143 1.183 3.317 0 1.173 0.324 2.457 0.72 2.853 0.648 0.648 5.257 -0.03 6.128 -0.901 z m 8.652 0.515 c -0.34 -0.55 -1.041 -1 -1.559 -1 -0.518 0 -0.941 0.45 -0.941 1 0 0.55 0.702 1 1.559 1 0.857 0 1.281 -0.45 0.941 -1 z" style="fill:#5161de"/><path d="m 16.12 126.36 v -102 h 94.48 h 94.48 l 0.025 102 l 0.025 102 h -94.5 h -94.5 v -102 z m 99.18 62.5 c 3.384 -1.375 6.695 -2.5 7.358 -2.5 1.579 0 3.928 -2.855 3.062 -3.722 -0.37 -0.37 -1.966 0.091 -3.547 1.024 -1.58 0.934 -3.614 1.697 -4.519 1.697 -0.905 0 -3.02 0.712 -4.703 1.581 -3.605 1.864 -6.127 1.394 -11.281 -2.104 -2.086 -1.415 -5.203 -2.809 -6.927 -3.097 -2.98 -0.497 -2.937 -0.428 0.865 1.407 2.2 1.062 4.9 2.947 6 4.189 1.819 2.055 4.798 3.797 6.77 3.96 0.423 0.035 3.539 -1.062 6.922 -2.437 z m -26.397 -6.352 c 0.911 -0.578 -0.036 -1.528 -3.198 -3.206 -3.124 -1.657 -4.937 -3.46 -5.948 -5.913 l -1.454 -3.529 l -0.097 3.215 c -0.068 2.261 0.824 4.264 3.01 6.75 3.084 3.513 5.213 4.255 7.692 2.682 z m 23.378 -2.153 c -2.86 -2.384 -2.056 -3.995 1.994 -3.995 2.757 0 2.989 -0.241 2.419 -2.511 -0.515 -2.05 -0.147 -2.732 2 -3.71 2.271 -1.035 2.824 -0.935 4.04 0.725 1.269 1.736 1.15 2.058 -1.22 3.3 -1.862 0.976 -2.316 1.687 -1.559 2.444 0.757 0.757 1.534 0.681 2.67 -0.261 0.992 -0.823 3.768 -1.256 7.292 -1.138 5.523 0.186 10.197 -1.389 7.441 -2.508 -1.756 -0.712 -1.557 -4.89 0.321 -6.769 0.99 -0.99 3.339 -1.571 6.345 -1.571 3.295 0 5.249 -0.542 6.308 -1.75 2.734 -3.119 5.133 -8.683 4.939 -11.458 -0.165 -2.357 0.316 -2.844 3.707 -3.757 2.143 -0.577 4.439 -1.703 5.103 -2.503 1.47 -1.772 2.654 -9.689 1.414 -9.46 -2.361 0.437 -4.233 -0.226 -4.798 -1.699 -0.763 -1.988 1.054 -4.373 3.33 -4.373 1.844 0 8.166 -6.179 10.02 -9.793 0.936 -1.824 0.838 -3.461 -0.476 -8 -0.909 -3.139 -2.117 -6.272 -2.685 -6.962 -0.59 -0.717 -0.757 -2.977 -0.39 -5.27 0.44 -2.749 0.154 -4.958 -0.905 -7.01 -1.312 -2.537 -1.959 -2.895 -4.265 -2.361 -1.495 0.347 -3.779 1.293 -5.075 2.104 -2.379 1.488 -2.427 2.138 -0.66 8.788 0.302 1.137 -0.265 3.02 -1.313 4.36 -1.656 2.119 -2.072 2.221 -4.072 1 -1.999 -1.22 -2.427 -1.117 -4.163 1 -3.253 3.969 -1.948 10.05 1.536 7.163 0.995 -0.826 2.457 -0.863 5.206 -0.132 2.103 0.559 5.08 1.275 6.616 1.592 1.536 0.316 3.053 1.254 3.371 2.083 0.8 2.084 -2.479 5.433 -5.319 5.433 -1.29 0 -2.345 0.508 -2.345 1.129 0 0.773 -1.539 0.925 -4.875 0.482 -3.743 -0.497 -5.975 -0.175 -9.612 1.384 -4.212 1.805 -4.586 2.214 -3.375 3.683 1.244 1.509 0.949 1.597 -3.388 1.01 -2.964 -0.403 -4.75 -0.266 -4.75 0.366 0 0.557 0.787 1.256 1.75 1.554 0.963 0.298 2.531 0.959 3.486 1.469 2.649 1.414 6.764 1.13 6.764 -0.466 0 -1.793 3.034 -2.973 4.325 -1.682 0.654 0.654 0.543 1.529 -0.325 2.575 -1.038 1.25 -1.057 1.84 -0.09 2.792 0.959 0.945 1.519 0.809 2.581 -0.629 1.303 -1.765 1.479 -1.746 4.49 0.481 1.724 1.274 2.643 2.481 2.043 2.681 -0.6 0.2 -1.663 -0.11 -2.361 -0.69 -0.917 -0.761 -2.208 -0.482 -4.656 1.01 -3.152 1.917 -3.473 1.942 -4.622 0.371 -0.679 -0.929 -2.956 -2.089 -5.06 -2.577 -5.342 -1.24 -6.325 -1.152 -6.325 0.565 0 0.825 -0.648 1.5 -1.441 1.5 -2.08 0 -2.955 -1.911 -1.186 -2.59 1.806 -0.693 1 -3.41 -1.012 -3.41 -0.783 0 -1.69 0.691 -2.01 1.536 -0.526 1.371 -0.855 1.362 -3.055 -0.08 -4.615 -3.02 -3.687 -0.428 1.633 4.566 5.01 4.705 8.07 6.214 8.07 3.978 0 -0.55 0.809 -1 1.797 -1 2.57 0 9.472 7.36 9.04 9.639 -0.46 2.421 -5.593 3.159 -6.449 0.928 -0.331 -0.862 -1.37 -1.567 -2.31 -1.567 -0.94 0 -3.079 -1.463 -4.754 -3.25 -5.852 -6.245 -10.979 -10.75 -12.236 -10.75 -0.697 0 -2.111 -1.012 -3.144 -2.25 -1.605 -1.924 -1.882 -1.996 -1.91 -0.5 -0.038 2.02 -1.13 2.253 -2.778 0.605 -0.86 -0.86 -1.267 -0.548 -1.637 1.25 -1.289 6.271 -1.543 10.991 -0.703 13.09 0.507 1.267 1.208 3.191 1.557 4.276 0.511 1.587 0.805 1.697 1.505 0.564 0.697 -1.129 1.166 -1.162 2.36 -0.171 1.269 1.053 1.292 1.619 0.155 3.81 -0.734 1.415 -1.097 3.192 -0.807 3.949 0.686 1.789 -4.665 1.887 -6.867 0.126 -2.237 -1.788 -2.833 -5.359 -1.245 -7.454 1.774 -2.339 1.913 -13.932 0.176 -14.637 -0.974 -0.395 -0.982 -0.698 -0.038 -1.369 1.687 -1.199 0.427 -5.29 -1.629 -5.29 -0.926 0 -2.223 -0.54 -2.883 -1.2 -0.66 -0.66 -1.2 -0.773 -1.201 -0.25 0 0.523 -1.156 1.017 -2.568 1.098 -1.824 0.105 -2.412 -0.257 -2.031 -1.25 0.295 -0.769 0.153 -1.398 -0.315 -1.398 -1.616 0 -2.078 -4.424 -0.552 -5.279 0.806 -0.451 1.466 -1.482 1.466 -2.29 0 -1.07 0.683 -1.298 2.513 -0.839 2.146 0.539 2.669 0.185 3.577 -2.42 0.699 -2.01 1.551 -2.864 2.487 -2.505 0.783 0.3 1.423 0.023 1.423 -0.617 0 -0.64 2.025 -2.059 4.5 -3.154 4.839 -2.14 5.513 -3.736 2.75 -6.513 -1.669 -1.677 -1.766 -1.646 -2.096 0.679 -0.411 2.899 -1.987 5.03 -3.538 4.787 -2.508 -0.395 -6.466 1.378 -5.969 2.674 0.516 1.344 -4.283 4.476 -6.857 4.476 -0.72 0 -1.871 0.9 -2.558 2 -0.687 1.1 -2.145 2 -3.241 2 -2.46 0 -2.587 1.55 -0.242 2.932 1.527 0.9 1.559 1.161 0.25 2.05 -1.333 0.905 -1.333 1.128 0 2 0.825 0.542 2.02 0.992 2.652 1 0.634 0.008 1.623 1.365 2.198 3.02 0.575 1.65 1.576 3 2.224 3 0.648 0 -0.527 1.561 -2.61 3.47 l -3.788 3.47 l -4.088 -3.639 c -6.552 -5.833 -7.17 -7.271 -5.05 -11.745 1.429 -3.01 1.557 -4.169 0.628 -5.657 -1.713 -2.743 -1.434 -5.287 0.873 -7.946 l 2.041 -2.353 l -2.583 -1.354 c -1.421 -0.744 -3.474 -1.071 -4.562 -0.725 -1.95 0.619 -1.952 0.58 -0.129 -2.696 2.228 -4 6.526 -4.843 11.855 -2.314 1.913 0.908 4.105 1.41 4.871 1.116 0.766 -0.294 2.262 0.57 3.324 1.92 2.234 2.84 3.676 3.115 4.539 0.864 0.775 -2.02 -0.09 -3.465 -1.701 -2.846 -0.682 0.262 -3.194 -1.515 -5.582 -3.948 -4.152 -4.231 -4.252 -4.471 -2.293 -5.52 1.126 -0.603 2.753 -1.096 3.614 -1.096 0.967 0 1.566 -0.879 1.566 -2.3 0 -1.265 0.429 -2.729 0.953 -3.253 1.102 -1.102 -0.889 -14.447 -2.156 -14.447 -0.438 0 -0.797 -0.725 -0.797 -1.611 0 -1.317 0.685 -1.486 3.75 -0.927 4.577 0.835 5.446 1.721 7.691 7.837 1.475 4.02 1.561 5.283 0.528 7.776 -1.025 2.474 -0.979 3.268 0.268 4.701 0.826 0.948 1.935 3.074 2.465 4.724 0.53 1.65 1.777 3.158 2.772 3.351 1.591 0.308 1.746 -0.204 1.29 -4.25 -0.395 -3.508 -0.189 -4.601 0.87 -4.601 1.054 0 1.239 -0.939 0.766 -3.897 -0.54 -3.377 -0.341 -3.987 1.488 -4.567 2.355 -0.747 2.727 -2.519 0.911 -4.335 -2.01 -2.01 0.572 -3.807 3.525 -2.462 2.7 1.23 4.03 7.276 3.01 13.616 -0.469 2.892 -0.268 3.646 0.972 3.646 0.86 0 1.874 -1.013 2.253 -2.25 0.379 -1.237 2.131 -4.05 3.893 -6.25 1.762 -2.2 4.054 -5.463 5.094 -7.25 3.188 -5.481 5.333 -3.403 4.903 4.75 -0.317 6.02 -3.645 13.473 -7.927 17.755 -2.302 2.302 -2.403 2.714 -1.034 4.226 0.834 0.922 1.517 2.428 1.517 3.347 0 0.919 0.731 1.671 1.625 1.671 1.254 0 1.495 -0.652 1.055 -2.852 -0.467 -2.337 -0.045 -3.241 2.334 -5 1.598 -1.181 3.745 -2.148 4.771 -2.148 1.026 0 2.923 -1.125 4.215 -2.5 1.292 -1.375 3.17 -2.5 4.174 -2.5 2.522 0 2.301 -0.753 -1.174 -4 -2.918 -2.726 -4.047 -7.235 -2.11 -8.432 0.489 -0.302 1.127 -2.02 1.417 -3.809 0.29 -1.793 1.057 -5.427 1.706 -8.08 1.027 -4.198 0.959 -5.058 -0.527 -6.701 -1.586 -1.753 -1.876 -1.773 -4.146 -0.285 -1.342 0.88 -3.071 2.819 -3.842 4.31 -0.771 1.491 -2.773 3.279 -4.45 3.973 -3.628 1.503 -4.695 0.843 -9.179 -5.673 -2.649 -3.85 -3.383 -4.308 -6.916 -4.308 -3.245 0 -3.952 0.347 -3.952 1.941 0 1.068 -0.391 2.182 -0.868 2.478 -0.478 0.295 -1.171 2.818 -1.541 5.606 -0.759 5.725 -2.396 6.989 -5.995 4.63 -1.559 -1.022 -2.844 -3.342 -3.701 -6.686 -0.831 -3.244 -2.061 -5.507 -3.354 -6.174 -1.123 -0.579 -2.825 -1.735 -3.782 -2.57 -1.654 -1.443 -1.654 -1.582 0 -2.81 1.645 -1.221 1.637 -1.368 -0.145 -2.689 -2.01 -1.487 -6.221 -1.172 -7.282 0.545 -0.351 0.568 0.218 1.667 1.265 2.442 1.725 1.278 1.753 1.522 0.298 2.602 -2.585 1.92 -3.152 5.287 -1.447 8.585 2.02 3.907 2.052 3.789 -1.539 5.647 -2.753 1.424 -3.272 1.434 -4.752 0.095 -0.913 -0.827 -2.978 -2 -4.587 -2.616 -2.647 -1.01 -3.145 -0.846 -5.212 1.68 -3.041 3.715 -2.931 5.142 0.742 9.598 3.896 4.727 3.458 8.133 -1.166 9.06 -2.348 0.47 -3.855 0.046 -6.263 -1.763 -4.931 -3.703 -9.333 -4.267 -12.211 -1.563 -1.307 1.228 -3.407 2.339 -4.668 2.47 -3.571 0.371 -3.792 0.444 -3.792 1.257 0 0.42 1.8 1.544 4 2.497 2.556 1.107 4 2.387 4 3.543 0 1.151 1.456 2.453 4 3.575 4.467 1.971 4.95 3.45 2 6.12 -2.712 2.454 -2.564 3.103 1.608 7.04 3.22 3.037 3.549 3.809 3.062 7.183 -1.895 13.13 -1.908 13.838 -0.277 15.191 1.419 1.178 1.607 0.96 1.607 -1.856 0 -2.76 0.276 -3.102 2.048 -2.54 1.126 0.357 2.661 0.141 3.411 -0.481 2.161 -1.793 2.488 0.152 0.667 3.966 -1.279 2.679 -2.193 3.427 -3.899 3.187 -1.763 -0.248 -2.228 0.18 -2.228 2.05 0 1.3 -0.488 2.851 -1.085 3.448 -1.393 1.393 3.01 8.517 4.845 7.837 2.074 -0.768 13.195 8.646 13.219 11.189 0.028 3.074 3.038 5.567 8.703 7.209 2.649 0.768 6.295 2.675 8.102 4.238 2.175 1.882 4.371 2.831 6.5 2.809 l 3.215 -0.033 l -2.326 -1.939 z m 13.207 -15.745 c -0.306 -0.963 -1.417 -3.386 -2.469 -5.386 -1.052 -2 -1.912 -4.385 -1.912 -5.3 0 -0.915 -0.702 -3.02 -1.561 -4.682 -0.858 -1.66 -1.406 -4 -1.218 -5.2 0.29 -1.847 0.683 -1.536 2.561 2.028 1.22 2.316 2.218 4.848 2.218 5.628 0 2.105 2.428 3.835 3.657 2.606 0.555 -0.555 1.778 -0.714 2.719 -0.353 1.392 0.534 1.592 1.444 1.075 4.89 -0.51 3.403 -0.31 4.359 1.021 4.87 2.475 0.95 0.832 2.649 -2.562 2.649 -1.952 0 -3.163 -0.601 -3.529 -1.75 z m -29.824 -8.473 c -2.395 -3.42 -1.907 -6.612 1.443 -9.431 1.65 -1.388 3 -3.09 3 -3.78 0 -1.196 3.082 -4.566 4.176 -4.566 0.285 0 -0.59 2.24 -1.945 4.977 -2.74 5.537 -2.486 8.164 0.708 7.329 3.116 -0.815 2.567 1.805 -1.042 4.972 -3.758 3.297 -4.349 3.344 -6.34 0.5 z m 30.443 -5.277 c 0 -0.825 0.45 -1.5 1 -1.5 0.55 0 1 0.675 1 1.5 0 0.825 -0.45 1.5 -1 1.5 -0.55 0 -1 -0.675 -1 -1.5 z m -13 -5 c 0 -0.825 0.436 -1.5 0.969 -1.5 0.533 0 0.71 0.675 0.393 1.5 -0.317 0.825 -0.752 1.5 -0.969 1.5 -0.216 0 -0.393 -0.675 -0.393 -1.5 z m 9.729 -1.104 c -0.401 -0.401 -0.729 -1.419 -0.729 -2.262 0 -1.126 0.296 -1.238 1.112 -0.421 0.612 0.612 0.94 1.63 0.729 2.262 -0.211 0.632 -0.711 0.822 -1.112 0.421 z m -6.091 -4.896 c -0.317 -0.825 -0.14 -1.5 0.393 -1.5 0.533 0 0.969 0.675 0.969 1.5 0 0.825 -0.177 1.5 -0.393 1.5 -0.216 0 -0.652 -0.675 -0.969 -1.5 z m -41.452 -19.673 c 0.453 -4.584 2.813 -4.929 2.813 -0.41 0 2.583 -0.436 3.583 -1.563 3.583 -1.155 0 -1.482 -0.828 -1.25 -3.173 z m -10.999 -16.89 c 0.241 -0.722 1.028 -1.509 1.75 -1.75 0.75 -0.25 1.125 0.125 0.875 0.875 -0.241 0.722 -1.028 1.509 -1.75 1.75 -0.75 0.25 -1.125 -0.125 -0.875 -0.875 z m 22.308 -15.945 c -0.342 -0.554 0.101 -1.284 0.984 -1.624 1.915 -0.735 2.982 0.075 2.061 1.564 -0.83 1.344 -2.235 1.371 -3.045 0.059 z m 66 92.13 c 7.05 -1.356 11.02 -3.294 13.285 -6.478 2.134 -3 2.144 -3.127 0.296 -3.811 -1.051 -0.389 -2.321 -1.44 -2.822 -2.336 -0.789 -1.41 -1.606 -1.082 -6.06 2.436 -2.829 2.236 -6.079 4.066 -7.223 4.066 -2.909 0 -7.61 2.595 -8.392 4.633 -0.853 2.222 1.243 3.569 4.413 2.837 1.375 -0.318 4.3 -0.924 6.5 -1.347 z m -89.39 -5.411 c -0.612 -0.612 -1.112 -1.923 -1.112 -2.912 0 -0.99 -0.675 -1.8 -1.5 -1.8 -1.99 0 -1.901 0.615 0.691 4.809 1.246 2.02 2.373 2.999 2.612 2.281 0.232 -0.696 -0.079 -1.765 -0.691 -2.377 z m 13.817 -6.463 c -0.254 -2.705 -2.11 -4.758 -5.984 -6.617 -4.225 -2.027 -4.522 -2.452 -5.978 -8.56 -1.654 -6.942 -3.968 -9.365 -3.968 -4.156 0 2.622 -0.374 3.083 -2.5 3.083 -1.375 0 -2.5 0.193 -2.5 0.429 0 0.236 1.8 3.139 4 6.451 2.2 3.312 4 6.719 4 7.571 0 1.749 1.335 1.975 3.817 0.647 1.084 -0.58 2.755 -0.431 4.684 0.419 3.583 1.578 4.523 1.733 4.429 0.733 z m 94.21 -10.75 c 3.459 -3.802 5.313 -4.376 6.25 -1.937 1.394 3.633 2.378 -0.18 2.399 -9.299 0.027 -11.597 -0.242 -12.889 -2.818 -13.563 -1.082 -0.283 -1.967 -1.231 -1.967 -2.108 0 -2.267 -1.622 -1.971 -3.443 0.629 -2.353 3.359 -1.883 6.325 1.443 9.124 1.65 1.388 3 3.398 3 4.466 0 2.443 -2.737 4.784 -5.12 4.38 -1.292 -0.219 -1.983 0.499 -2.407 2.5 -0.327 1.544 -0.74 3.482 -0.92 4.307 -0.179 0.825 -0.651 2.287 -1.047 3.25 -1.2 2.914 1.217 2 4.63 -1.75 z m -122.65 -4.915 c 2.744 -4.134 3.441 -6.03 2.945 -8 -0.357 -1.422 -0.847 -2.585 -1.09 -2.585 -1.231 0 -6.073 3.045 -7.698 4.841 -1.778 1.965 -1.783 2.227 -0.112 6.602 0.957 2.506 1.88 4.556 2.051 4.556 0.171 0 1.928 -2.437 3.905 -5.415 z m 92.51 -4.419 c 0 -1.409 -1.126 -2.055 -2.598 -1.491 -2.087 0.801 -1.695 2.324 0.598 2.324 1.1 0 2 -0.375 2 -0.833 z m -83.971 -12.167 c 1.131 0 3.971 -5.328 3.971 -7.45 0 -1.07 -0.97 -1.55 -3.132 -1.55 -3.067 0 -3.121 0.081 -2.604 3.933 0.378 2.82 0.132 4.085 -0.868 4.469 -1.606 0.616 -1.882 4.18 -0.396 5.098 0.55 0.34 1.081 1.604 1.18 2.809 0.099 1.205 0.349 0.054 0.555 -2.559 0.206 -2.613 0.788 -4.75 1.294 -4.75 z m 32.971 -0.531 c 0 -0.842 -0.675 -1.79 -1.5 -2.107 -0.825 -0.317 -1.5 -1.202 -1.5 -1.969 0 -1.922 -1.924 -1.754 -2.687 0.235 -0.401 1.045 0.236 2.29 1.781 3.478 2.949 2.267 3.906 2.356 3.906 0.363 z m 39 -4.41 c 0 -0.518 -0.45 -1.219 -1 -1.559 -0.55 -0.34 -1 0.083 -1 0.941 0 0.857 0.45 1.559 1 1.559 0.55 0 1 -0.423 1 -0.941 z m 9.504 -2.066 c 0.342 -0.554 -0.101 -1.284 -0.984 -1.624 -1.915 -0.735 -2.982 0.075 -2.061 1.564 0.83 1.344 2.235 1.371 3.045 0.06 z m -86.5 -1.493 c 0 -0.825 -0.661 -1.5 -1.469 -1.5 -0.895 0 -1.244 0.586 -0.893 1.5 0.317 0.825 0.977 1.5 1.469 1.5 0.491 0 0.893 -0.675 0.893 -1.5 z m 79 0.5 c 0 -0.55 -0.45 -1 -1 -1 -0.55 0 -1 0.45 -1 1 0 0.55 0.45 1 1 1 0.55 0 1 -0.45 1 -1 z m -7 -1 c 0 -0.55 -0.45 -1 -1 -1 -0.55 0 -1 0.45 -1 1 0 0.55 0.45 1 1 1 0.55 0 1 -0.45 1 -1 z m 59 -2.059 c 0 -0.518 -0.675 -0.941 -1.5 -0.941 -1.546 0 -1.987 1.18 -0.861 2.306 0.799 0.799 2.361 -0.104 2.361 -1.365 z m -38 -2.133 c 3.03 -1.077 6.588 -2.037 7.917 -2.133 1.329 -0.096 2.601 -0.729 2.827 -1.406 0.564 -1.694 -14.454 -0.785 -20.402 1.234 -2.427 0.824 -5.071 1.498 -5.877 1.498 -0.806 0 -1.465 0.702 -1.465 1.559 0 0.857 0.359 1.337 0.798 1.066 0.439 -0.271 1.451 -0.08 2.25 0.424 1.787 1.129 6.706 0.339 13.952 -2.242 z m -102.68 -1.779 c -0.74 -0.813 -2.219 2.325 -1.582 3.357 0.334 0.54 0.922 0.111 1.308 -0.952 0.386 -1.063 0.509 -2.146 0.273 -2.405 z m 75.68 2.971 c 0 -0.55 -0.45 -1 -1 -1 -0.55 0 -1 0.45 -1 1 0 0.55 0.45 1 1 1 0.55 0 1 -0.45 1 -1 z m -60.21 -4.25 c 0.946 -2.226 0.909 -2.75 -0.193 -2.75 -1.304 0 -2.553 2.878 -2.582 5.95 -0.017 1.853 1.248 0.393 2.775 -3.2 z m 30.23 2.726 c 0.696 -0.838 0.995 -1.794 0.666 -2.124 -1.024 -1.024 -3.686 0.504 -3.686 2.116 0 1.959 1.398 1.962 3.02 0.007 z m 20.584 -1.205 c -1.017 -1.017 -1.855 0.514 -1.021 1.863 0.63 1.019 0.866 1.02 1.204 0.004 0.232 -0.695 0.149 -1.535 -0.183 -1.867 z m 85.82 -2.828 c 0.352 -1.404 0.004 -3.654 -0.805 -5.197 l -1.426 -2.721 l -1.666 3.493 c -1.321 2.769 -1.441 4.084 -0.581 6.347 0.866 2.278 1.364 2.622 2.47 1.704 0.762 -0.632 1.665 -2.264 2.01 -3.625 z m -95.02 -3.078 c -3.24 -1.681 -3.062 -1.69 -3.788 0.201 -0.461 1.202 -0.137 1.418 1.393 0.933 1.455 -0.462 1.994 -0.176 1.994 1.057 0 1.396 0.263 1.471 1.516 0.432 1.319 -1.094 1.174 -1.435 -1.114 -2.622 z m 24.599 -0.079 c 0 -2.501 -0.127 -2.587 -1.618 -1.096 -0.89 0.89 -1.314 2.112 -0.941 2.714 1.227 1.986 2.559 1.143 2.559 -1.618 z m 62.55 -3.154 c -1.509 -10.812 -1.628 -11.132 -4.157 -11.132 -1.996 0 -2.389 0.501 -2.389 3.048 0 1.966 0.887 3.87 2.5 5.365 1.661 1.54 2.5 3.388 2.5 5.511 0 2.061 0.389 2.954 1.096 2.517 0.698 -0.431 0.861 -2.359 0.45 -5.309 z m -145.39 0.118 c 1.235 -2.612 2.44 -5.151 2.677 -5.641 0.918 -1.896 -4.753 0.518 -7.713 3.282 -3.505 3.274 -3.62 3.622 -1.867 5.613 2.372 2.694 4.583 1.651 6.902 -3.254 z m 90.85 3.917 c 0 -1.302 -1.189 -2.168 -2.156 -1.57 -1.034 0.639 -0.142 2.404 1.215 2.404 0.518 0 0.941 -0.375 0.941 -0.833 z m -37.575 -4.288 c -0.648 -1.049 -2.425 -0.207 -2.425 1.149 0 0.5 0.672 0.652 1.494 0.336 0.822 -0.315 1.241 -0.984 0.931 -1.485 z m 36.575 -0.879 c 0 -0.55 -0.423 -1 -0.941 -1 -0.518 0 -1.219 0.45 -1.559 1 -0.34 0.55 0.083 1 0.941 1 0.857 0 1.559 -0.45 1.559 -1 z m -3 -4.622 c 0 -2.105 -2.698 -1.639 -3.275 0.565 -0.279 1.068 -0.261 2.189 0.041 2.491 0.817 0.817 3.233 -1.467 3.233 -3.056 z m -74 -2.378 c 0 -0.55 -0.675 -1 -1.5 -1 -0.825 0 -1.5 0.45 -1.5 1 0 0.55 0.675 1 1.5 1 0.825 0 1.5 -0.45 1.5 -1 z m 50 -3.893 c 0 -2.108 -2.59 -3.58 -3.554 -2.02 -0.673 1.089 1.259 3.913 2.677 3.913 0.483 0 0.878 -0.852 0.878 -1.893 z m 29.82 -0.857 c 0.246 -1.729 -0.174 -2.25 -1.809 -2.25 -1.171 0 -1.88 0.403 -1.575 0.895 0.304 0.492 -0.148 1.164 -1 1.493 -2.209 0.848 -0.674 2.788 1.913 2.419 1.352 -0.193 2.275 -1.146 2.475 -2.557 z m 45.579 -7.161 c -0.514 -3.217 -1.316 -4.512 -3.483 -5.634 -1.549 -0.801 -3.486 -1.456 -4.306 -1.456 -2.624 0 -2.814 1.972 -0.283 2.934 1.346 0.512 3.735 2.723 5.31 4.915 1.575 2.191 2.991 3.857 3.147 3.701 0.156 -0.156 -0.018 -2.163 -0.385 -4.46 z m -42.4 1.47 c 0 -2.322 -1.585 -4.308 -2.615 -3.277 -0.761 0.761 0.733 5.718 1.724 5.718 0.49 0 0.892 -1.098 0.892 -2.441 z m -86.2 -5.705 c -2.569 -1.63 -3.957 -1.021 -2.763 1.211 0.901 1.684 1.377 1.839 2.583 0.838 1.188 -0.986 1.223 -1.388 0.18 -2.049 z m 111.03 -1.407 c 1.038 0.329 2.599 0.326 3.468 -0.008 2.148 -0.824 0.345 -4.824 -2.826 -6.269 -2.462 -1.122 -3.474 -0.013 -3.474 3.805 0 0.996 -0.675 2.07 -1.5 2.387 -0.825 0.317 -1.485 1.377 -1.467 2.357 0.029 1.529 0.308 1.451 1.972 -0.545 1.292 -1.55 2.568 -2.126 3.826 -1.727 z m -124.24 0.054 c 1.274 -1.375 2.737 -2.5 3.25 -2.5 0.513 0 1.625 -1.056 2.47 -2.347 1.485 -2.266 1.452 -2.33 -0.967 -1.868 -1.378 0.263 -2.782 1.201 -3.121 2.084 -0.339 0.883 -1.977 2.848 -3.641 4.368 -1.664 1.52 -2.414 2.763 -1.667 2.763 0.747 0 2.401 -1.125 3.675 -2.5 z m 34.12 -1.93 c -0.088 -3.12 -0.272 -3.323 -2.023 -2.25 -1.059 0.649 -2.869 1.721 -4.02 2.381 -2.085 1.195 -2.083 1.207 0.372 2.187 4.662 1.861 5.779 1.404 5.674 -2.318 z m 1.454 -14.626 c -0.516 -5.073 -5.376 -8.05 -6.448 -3.944 -0.326 1.248 -0.031 2 0.786 2 0.72 0 1.793 1.391 2.386 3.09 1.431 4.105 3.729 3.301 3.277 -1.146 z m 69.27 -0.496 c 0.589 -1.063 2.109 -3.238 3.378 -4.834 1.697 -2.135 2.01 -3.194 1.188 -4.01 -0.819 -0.81 -1.383 -0.638 -2.106 0.644 -1.443 2.558 -3.372 2.151 -6.299 -1.327 -2.552 -3.03 -3.601 -8.923 -1.589 -8.923 0.55 0 1 -0.45 1 -1 0 -0.55 -0.942 -1 -2.092 -1 -1.151 0 -3.221 -0.888 -4.601 -1.973 -2.307 -1.815 -2.741 -1.853 -5.408 -0.474 -2.02 1.043 -2.899 2.254 -2.899 3.982 0 2.234 0.201 2.357 2 1.232 1.391 -0.868 2.491 -0.944 3.597 -0.246 2.224 1.403 7.399 11.475 7.399 14.401 0 2.651 2.762 6.325 4.356 5.794 0.551 -0.184 1.484 -1.204 2.073 -2.266 z m 22.267 1.199 c -0.222 -0.631 -1.102 -1.025 -1.957 -0.875 -1.124 0.197 -1.749 -0.911 -2.255 -4 -0.832 -5.076 -2.941 -7.773 -6.079 -7.773 -3.357 0 -3.744 1.547 -0.86 3.437 1.39 0.911 3.446 3.547 4.57 5.859 1.527 3.142 2.667 4.241 4.514 4.351 1.474 0.088 2.308 -0.316 2.068 -1 z m -46.895 -4.847 c 1.623 -1.623 1.511 -2.8 -0.265 -2.8 -0.806 0 -3 -1.35 -4.882 -3 -1.879 -1.65 -3.647 -3 -3.929 -3 -0.282 0 0.049 1.903 0.736 4.23 0.9 3.047 1.919 4.417 3.644 4.9 3.471 0.972 3.388 0.978 4.696 -0.33 z m -28.26 -0.867 c 1.144 -1.851 -0.284 -2.173 -4.077 -0.921 -3.273 1.08 -3.98 0.983 -6.527 -0.9 -2.622 -1.938 -5.937 -2.831 -5.937 -1.598 c 0 0.282 0.558 1.407 1.241 2.5 1.037 1.661 2.339 1.986 7.941 1.986 3.685 0 6.997 -0.48 7.36 -1.067 z m 6.307 -14.448 c 0.823 -0.823 -1.121 -2.485 -2.907 -2.485 -2.189 0 -2.493 -1.048 -0.796 -2.745 0.86 -0.86 0.474 -1.313 -1.547 -1.82 -3.129 -0.785 -4.482 0.081 -2.781 1.781 0.651 0.651 1.183 2.143 1.183 3.317 0 1.173 0.324 2.457 0.72 2.853 0.648 0.648 5.257 -0.03 6.128 -0.901 z m 8.652 0.515 c -0.34 -0.55 -1.041 -1 -1.559 -1 -0.518 0 -0.941 0.45 -0.941 1 0 0.55 0.702 1 1.559 1 0.857 0 1.281 -0.45 0.941 -1 z" style="fill:#906f56"/><path d="m 16.13 126.36 l -0.022 -102 h 94.48 h 94.48 l 0.025 102 l 0.025 102 h -94.48 h -94.48 l -0.022 -102 z m 64.976 70 c 0 -0.55 -0.45 -1 -1 -1 -0.55 0 -1 0.45 -1 1 0 0.55 0.45 1 1 1 0.55 0 1 -0.45 1 -1 z m 33.556 -5.474 c 4.972 -3.374 9.113 -3.978 14.475 -2.111 6.248 2.175 6.714 2.089 13.853 -2.576 6.01 -3.925 14.85 -7.07 19.866 -7.06 1.561 0.003 2.25 -0.589 2.25 -1.933 0 -1.065 2.137 -4.241 4.75 -7.06 4.07 -4.386 4.392 -5.01 2.25 -4.376 -6.303 1.872 -7 1.868 -7 -0.041 0 -1.02 2.08 -3.738 4.623 -6.04 4.102 -3.713 4.893 -4.061 7.03 -3.089 1.681 0.766 2.721 0.779 3.455 0.045 1.151 -1.151 1.411 -18.03 0.363 -23.61 -0.437 -2.332 -0.232 -3.713 0.632 -4.248 0.741 -0.458 1.446 -0.295 1.673 0.385 0.58 1.741 2.915 1.428 3.651 -0.49 0.352 -0.917 0.175 -2.132 -0.393 -2.7 -1.565 -1.565 -1.236 -5.618 0.51 -6.288 2.099 -0.805 2.536 -0.175 3.173 4.572 0.632 4.71 1.944 5.309 2.923 1.333 0.372 -1.513 1.339 -3.772 2.148 -5.02 1.762 -2.722 1.109 -9.762 -1.113 -11.983 -1.305 -1.305 -1.612 -1.231 -2.612 0.638 -0.623 1.164 -1.53 2.117 -2.01 2.117 -1.045 0 -3.298 -9.785 -2.537 -11.02 0.289 -0.468 -0.237 -2.757 -1.17 -5.087 -1.285 -3.212 -1.844 -3.814 -2.308 -2.489 -0.525 1.498 -0.815 1.37 -2.027 -0.894 -1.182 -2.208 -1.192 -2.779 -0.064 -3.476 0.742 -0.459 1.084 -1.525 0.761 -2.369 -0.413 -1.076 -2.691 -1.742 -7.618 -2.227 -5.55 -0.547 -7.151 -1.076 -7.608 -2.515 -0.318 -1 -1.482 -2.109 -2.585 -2.459 -3.036 -0.963 -2.257 -6.086 0.859 -5.652 1.238 0.172 2.25 -0.195 2.25 -0.816 0 -2.088 -2.058 -4.997 -3.535 -4.997 -0.81 0 -1.465 -0.916 -1.465 -2.05 0 -2.832 -2.59 -7.579 -4.545 -8.329 -2.814 -1.08 -6.165 -0.676 -7.474 0.901 -1.131 1.363 -1.506 1.363 -3.587 0 -3.03 -1.987 -3.394 -1.927 -3.394 0.561 0 2.638 -1.794 2.073 -4.369 -1.376 -1.737 -2.326 -1.823 -2.98 -0.678 -5.119 1.822 -3.404 0.681 -5.964 -2.322 -5.21 -1.617 0.406 -2.911 -0.029 -4.146 -1.394 -4.345 -4.801 -9.571 -0.993 -10.274 7.485 -0.483 5.825 -2.717 9.04 -5.531 7.962 -0.885 -0.34 -3.184 -2.99 -5.109 -5.89 -2.793 -4.208 -4.823 -5.931 -10.05 -8.532 -3.605 -1.792 -6.797 -3.653 -7.094 -4.134 -0.736 -1.191 -7.158 -1.112 -7.905 0.097 -0.33 0.534 0.045 1.997 0.835 3.25 2.047 3.248 3.12 13.504 1.604 15.331 -1.55 1.868 -6.03 1.857 -8.515 -0.021 -2.561 -1.937 -4.93 -1.886 -10.839 0.233 -6.333 2.272 -7.946 4.668 -4.852 7.208 1.237 1.016 2.25 2.316 2.25 2.888 0 0.572 0.787 1.516 1.75 2.098 1.583 0.957 1.435 1.33 -1.542 3.907 -5.306 4.593 -13.354 8.25 -16.754 7.612 -2.51 -0.47 -3.295 -0.06 -5.223 2.734 -1.873 2.714 -2 3.344 -0.75 3.611 3.71 0.79 -0.044 13.177 -3.993 13.177 -0.756 0 -1.983 0.867 -2.725 1.927 -0.742 1.06 -2.568 2.482 -4.057 3.161 -3.244 1.478 -3.297 1.892 -0.675 5.226 1.472 1.871 1.844 3.332 1.35 5.299 -0.578 2.304 -0.418 2.615 1.058 2.048 2.794 -1.072 3.215 -0.116 2.562 5.818 -0.407 3.696 -0.226 5.921 0.533 6.55 1.63 1.353 2.465 0.143 2.465 -3.573 0 -1.766 0.589 -3.7 1.31 -4.298 2.265 -1.88 6.659 0.101 8.892 4.01 2.978 5.21 1.936 7.877 -4.666 11.947 -5.23 3.224 -5.496 3.589 -5.515 7.556 -0.011 2.293 -0.255 4.78 -0.543 5.529 -0.287 0.748 0.086 2.192 0.829 3.208 1.726 2.36 4.784 0.942 7.356 -3.413 1.938 -3.281 3.794 -3.85 4.716 -1.446 0.326 0.851 1.361 1.413 2.298 1.25 1.106 -0.193 2.51 1.108 3.997 3.703 2.654 4.63 3.03 8.5 0.825 8.5 -2.318 0 -1.807 4.084 1.036 8.268 4.264 6.275 6.814 4.476 3.923 -2.768 -0.78 -1.956 -0.751 -1.959 1.308 -0.152 2.674 2.346 4.689 1.374 3.143 -1.516 -0.8 -1.494 -0.791 -2.351 0.033 -3.175 1.994 -1.994 6.427 1.384 7.507 5.722 0.523 2.098 2.567 5.636 4.543 7.863 3.531 3.979 3.657 4.03 7.262 2.838 3.094 -1.021 4.223 -0.948 7.207 0.468 1.946 0.923 3.538 2.052 3.538 2.508 0 1.178 8.16 5.922 10.206 5.933 0.938 0.005 3.346 -1.104 5.351 -2.464 z m 15.694 -4.747 c -2.42 -1.167 -2.848 -2.292 -1.25 -3.28 2.01 -1.243 0.918 -2.365 -2.25 -2.305 -1.787 0.034 -3.999 0.713 -4.914 1.511 -0.915 0.797 -2.49 1.318 -3.5 1.158 -1.01 -0.16 -3.079 0.535 -4.597 1.545 -3.45 2.294 -7.727 1.6 -12.481 -2.026 -2.396 -1.828 -4.933 -2.704 -8.538 -2.949 -2.976 -0.202 -6.198 -1.139 -7.674 -2.232 -3.215 -2.378 -7.114 -10.03 -6.525 -12.812 0.553 -2.606 -2.58 -5.688 -4.884 -4.805 -3.356 1.288 -6.176 -2 -7.412 -8.652 -0.642 -3.452 -1.6 -6.709 -2.129 -7.238 -1.59 -1.59 -4.096 0.071 -4.096 2.714 0 3.454 -1.806 4.21 -2.591 1.084 -0.936 -3.731 0.325 -10.21 2.593 -13.316 1.075 -1.473 2.077 -4.253 2.227 -6.178 l 0.271 -3.5 l -5.652 -0.162 c -3.109 -0.089 -6.564 -0.65 -7.678 -1.246 -1.114 -0.596 -2.733 -0.812 -3.598 -0.481 -1.216 0.466 -1.572 -0.081 -1.572 -2.41 0 -2.599 -0.298 -2.935 -2.169 -2.446 -1.825 0.477 -2.045 0.264 -1.387 -1.344 0.43 -1.051 1.02 -2.811 1.31 -3.911 0.29 -1.1 1.084 -2.675 1.765 -3.5 0.68 -0.825 1.48 -2.85 1.777 -4.5 1.889 -10.505 5.449 -16.179 12.01 -19.14 3.616 -1.631 3.966 -1.638 4.826 -0.1 1.519 2.714 7.835 3.991 10.641 2.152 3.119 -2.043 2.804 -7.445 -0.519 -8.903 -3.076 -1.349 -2.838 -2.234 1.25 -4.645 3.369 -1.988 4.584 -3.867 2.5 -3.867 -0.55 0 -1 -0.675 -1 -1.5 0 -1.099 1.27 -1.546 4.75 -1.671 4.442 -0.16 7.158 -0.349 9.893 -0.687 1.747 -0.216 2.406 -2.884 1.379 -5.583 -0.794 -2.088 -0.357 -2.989 3.146 -6.491 4.523 -4.523 5.05 -4.719 6.832 -2.567 0.685 0.825 1.844 1.5 2.576 1.5 1.335 0 5.424 8.03 5.424 10.652 0 0.769 1.013 1.776 2.25 2.239 6.267 2.344 6.429 2.318 8.633 -1.418 1.164 -1.973 2.117 -4.912 2.117 -6.53 0 -1.949 0.506 -2.943 1.5 -2.943 0.825 0 1.5 -0.675 1.5 -1.5 0 -0.833 0.889 -1.5 2 -1.5 1.431 0 2 0.667 2 2.345 0 1.29 0.907 3.166 2.02 4.169 1.108 1 2.286 3.519 2.618 5.591 1.079 6.745 7.37 10.188 9.842 5.386 2.212 -4.297 5.986 -8.491 7.641 -8.491 6.264 0 10.226 17.666 5.02 22.379 -2.228 2.02 -2.793 8.621 -0.738 8.621 0.802 0 2.344 -1.125 3.425 -2.5 1.492 -1.896 2.898 -2.499 5.823 -2.496 7.248 0.007 12.472 5.05 13.77 13.281 0.322 2.043 0.835 5.313 1.14 7.265 0.47 3.01 0.862 3.452 2.575 2.909 1.897 -0.602 1.977 -0.346 1.319 4.2 -0.787 5.438 -2.122 7.68 -4.116 6.915 -1.051 -0.403 -1.207 0.356 -0.712 3.454 0.685 4.281 0.379 4.613 -2.56 2.777 -1.469 -0.917 -2.509 -0.922 -4.486 -0.021 -2.257 1.028 -2.574 1.778 -2.574 6.087 0 3.446 0.448 5.086 1.5 5.49 2.236 0.858 1.814 3.994 -0.876 6.522 -1.388 1.304 -2.59 3.83 -2.891 6.073 -0.584 4.357 -6.946 13.443 -12.238 17.479 -1.892 1.443 -4.681 2.564 -6.38 2.564 -3.33 0 -10.115 5.991 -10.115 8.931 0 2.168 -2.812 6.086 -4.307 6 -0.656 -0.037 -2.206 -0.556 -3.443 -1.153 z m -18.08 -5.785 c -2.86 -2.384 -2.056 -3.995 1.994 -3.995 2.757 0 2.989 -0.241 2.419 -2.511 -0.515 -2.05 -0.147 -2.732 2 -3.71 2.271 -1.035 2.824 -0.935 4.04 0.725 1.269 1.736 1.15 2.058 -1.22 3.3 -1.862 0.976 -2.316 1.687 -1.559 2.444 0.757 0.757 1.534 0.681 2.67 -0.261 0.992 -0.823 3.768 -1.256 7.292 -1.138 5.523 0.186 10.197 -1.389 7.441 -2.508 -1.756 -0.712 -1.557 -4.89 0.321 -6.769 0.99 -0.99 3.339 -1.571 6.345 -1.571 3.295 0 5.249 -0.542 6.308 -1.75 2.734 -3.119 5.133 -8.683 4.939 -11.458 -0.165 -2.357 0.316 -2.844 3.707 -3.757 2.143 -0.577 4.439 -1.703 5.103 -2.503 1.47 -1.772 2.654 -9.689 1.414 -9.46 -2.361 0.437 -4.233 -0.226 -4.798 -1.699 -0.763 -1.988 1.054 -4.373 3.33 -4.373 1.844 0 8.166 -6.179 10.02 -9.793 0.936 -1.824 0.838 -3.461 -0.476 -8 -0.909 -3.139 -2.117 -6.272 -2.685 -6.962 -0.59 -0.717 -0.757 -2.977 -0.39 -5.27 0.44 -2.749 0.154 -4.958 -0.905 -7.01 -1.312 -2.537 -1.959 -2.895 -4.265 -2.361 -1.495 0.347 -3.779 1.293 -5.075 2.104 -2.379 1.488 -2.427 2.138 -0.66 8.788 0.302 1.137 -0.265 3.02 -1.313 4.36 -1.656 2.119 -2.072 2.221 -4.072 1 -1.999 -1.22 -2.427 -1.117 -4.163 1 -3.253 3.969 -1.948 10.05 1.536 7.163 0.995 -0.826 2.457 -0.863 5.206 -0.132 2.103 0.559 5.08 1.275 6.616 1.592 1.536 0.316 3.053 1.254 3.371 2.083 0.8 2.084 -2.479 5.433 -5.319 5.433 -1.29 0 -2.345 0.508 -2.345 1.129 0 0.773 -1.539 0.925 -4.875 0.482 -3.743 -0.497 -5.975 -0.175 -9.612 1.384 -4.212 1.805 -4.586 2.214 -3.375 3.683 1.244 1.509 0.949 1.597 -3.388 1.01 -2.964 -0.403 -4.75 -0.266 -4.75 0.366 0 0.557 0.787 1.256 1.75 1.554 0.963 0.298 2.531 0.959 3.486 1.469 2.649 1.414 6.764 1.13 6.764 -0.466 0 -1.793 3.034 -2.973 4.325 -1.682 0.654 0.654 0.543 1.529 -0.325 2.575 -1.038 1.25 -1.057 1.84 -0.09 2.792 0.959 0.945 1.519 0.809 2.581 -0.629 1.303 -1.765 1.479 -1.746 4.49 0.481 1.724 1.274 2.643 2.481 2.043 2.681 -0.6 0.2 -1.663 -0.11 -2.361 -0.69 -0.917 -0.761 -2.208 -0.482 -4.656 1.01 -3.152 1.917 -3.473 1.942 -4.622 0.371 -0.679 -0.929 -2.956 -2.089 -5.06 -2.577 -5.342 -1.24 -6.325 -1.152 -6.325 0.565 0 0.825 -0.648 1.5 -1.441 1.5 -2.08 0 -2.955 -1.911 -1.186 -2.59 1.806 -0.693 1 -3.41 -1.012 -3.41 -0.783 0 -1.69 0.691 -2.01 1.536 -0.526 1.371 -0.855 1.362 -3.055 -0.08 -4.615 -3.02 -3.687 -0.428 1.633 4.566 5.01 4.705 8.07 6.214 8.07 3.978 0 -0.55 0.809 -1 1.797 -1 2.57 0 9.472 7.36 9.04 9.639 -0.46 2.421 -5.593 3.159 -6.449 0.928 -0.331 -0.862 -1.37 -1.567 -2.31 -1.567 -0.94 0 -3.079 -1.463 -4.754 -3.25 -5.852 -6.245 -10.979 -10.75 -12.236 -10.75 -0.697 0 -2.111 -1.012 -3.144 -2.25 -1.605 -1.924 -1.882 -1.996 -1.91 -0.5 -0.038 2.02 -1.13 2.253 -2.778 0.605 -0.86 -0.86 -1.267 -0.548 -1.637 1.25 -1.289 6.271 -1.543 10.991 -0.703 13.09 0.507 1.267 1.208 3.191 1.557 4.276 0.511 1.587 0.805 1.697 1.505 0.564 0.697 -1.129 1.166 -1.162 2.36 -0.171 1.269 1.053 1.292 1.619 0.155 3.81 -0.734 1.415 -1.097 3.192 -0.807 3.949 0.686 1.789 -4.665 1.887 -6.867 0.126 -2.237 -1.788 -2.833 -5.359 -1.245 -7.454 1.774 -2.339 1.913 -13.932 0.176 -14.637 -0.974 -0.395 -0.982 -0.698 -0.038 -1.369 1.687 -1.199 0.427 -5.29 -1.629 -5.29 -0.926 0 -2.223 -0.54 -2.883 -1.2 -0.66 -0.66 -1.2 -0.773 -1.201 -0.25 0 0.523 -1.156 1.017 -2.568 1.098 -1.824 0.105 -2.412 -0.257 -2.031 -1.25 0.295 -0.769 0.153 -1.398 -0.315 -1.398 -1.616 0 -2.078 -4.424 -0.552 -5.279 0.806 -0.451 1.466 -1.482 1.466 -2.29 0 -1.07 0.683 -1.298 2.513 -0.839 2.146 0.539 2.669 0.185 3.577 -2.42 0.699 -2.01 1.551 -2.864 2.487 -2.505 0.783 0.3 1.423 0.023 1.423 -0.617 0 -0.64 2.025 -2.059 4.5 -3.154 4.839 -2.14 5.513 -3.736 2.75 -6.513 -1.669 -1.677 -1.766 -1.646 -2.096 0.679 -0.411 2.899 -1.987 5.03 -3.538 4.787 -2.508 -0.395 -6.466 1.378 -5.969 2.674 0.516 1.344 -4.283 4.476 -6.857 4.476 -0.72 0 -1.871 0.9 -2.558 2 -0.687 1.1 -2.145 2 -3.241 2 -2.46 0 -2.587 1.55 -0.242 2.932 1.527 0.9 1.559 1.161 0.25 2.05 -1.333 0.905 -1.333 1.128 0 2 0.825 0.542 2.02 0.992 2.652 1 0.634 0.008 1.623 1.365 2.198 3.02 0.575 1.65 1.576 3 2.224 3 0.648 0 -0.527 1.561 -2.61 3.47 l -3.788 3.47 l -4.088 -3.639 c -6.552 -5.833 -7.17 -7.271 -5.05 -11.745 1.429 -3.01 1.557 -4.169 0.628 -5.657 -1.713 -2.743 -1.434 -5.287 0.873 -7.946 l 2.041 -2.353 l -2.583 -1.354 c -1.421 -0.744 -3.474 -1.071 -4.562 -0.725 -1.95 0.619 -1.952 0.58 -0.129 -2.696 2.228 -4 6.526 -4.843 11.855 -2.314 1.913 0.908 4.105 1.41 4.871 1.116 0.766 -0.294 2.262 0.57 3.324 1.92 2.234 2.84 3.676 3.115 4.539 0.864 0.775 -2.02 -0.09 -3.465 -1.701 -2.846 -0.682 0.262 -3.194 -1.515 -5.582 -3.948 -4.152 -4.231 -4.252 -4.471 -2.293 -5.52 1.126 -0.603 2.753 -1.096 3.614 -1.096 0.967 0 1.566 -0.879 1.566 -2.3 0 -1.265 0.429 -2.729 0.953 -3.253 1.102 -1.102 -0.889 -14.447 -2.156 -14.447 -0.438 0 -0.797 -0.725 -0.797 -1.611 0 -1.317 0.685 -1.486 3.75 -0.927 4.577 0.835 5.446 1.721 7.691 7.837 1.475 4.02 1.561 5.283 0.528 7.776 -1.025 2.474 -0.979 3.268 0.268 4.701 0.826 0.948 1.935 3.074 2.465 4.724 0.53 1.65 1.777 3.158 2.772 3.351 1.591 0.308 1.746 -0.204 1.29 -4.25 -0.395 -3.508 -0.189 -4.601 0.87 -4.601 1.054 0 1.239 -0.939 0.766 -3.897 -0.54 -3.377 -0.341 -3.987 1.488 -4.567 2.355 -0.747 2.727 -2.519 0.911 -4.335 -2.01 -2.01 0.572 -3.807 3.525 -2.462 2.7 1.23 4.03 7.276 3.01 13.616 -0.469 2.892 -0.268 3.646 0.972 3.646 0.86 0 1.874 -1.013 2.253 -2.25 0.379 -1.237 2.131 -4.05 3.893 -6.25 1.762 -2.2 4.054 -5.463 5.094 -7.25 3.188 -5.481 5.333 -3.403 4.903 4.75 -0.317 6.02 -3.645 13.473 -7.927 17.755 -2.302 2.302 -2.403 2.714 -1.034 4.226 0.834 0.922 1.517 2.428 1.517 3.347 0 0.919 0.731 1.671 1.625 1.671 1.254 0 1.495 -0.652 1.055 -2.852 -0.467 -2.337 -0.045 -3.241 2.334 -5 1.598 -1.181 3.745 -2.148 4.771 -2.148 1.026 0 2.923 -1.125 4.215 -2.5 1.292 -1.375 3.17 -2.5 4.174 -2.5 2.522 0 2.301 -0.753 -1.174 -4 -2.918 -2.726 -4.047 -7.235 -2.11 -8.432 0.489 -0.302 1.127 -2.02 1.417 -3.809 0.29 -1.793 1.057 -5.427 1.706 -8.08 1.027 -4.198 0.959 -5.058 -0.527 -6.701 -1.586 -1.753 -1.876 -1.773 -4.146 -0.285 -1.342 0.88 -3.071 2.819 -3.842 4.31 -0.771 1.491 -2.773 3.279 -4.45 3.973 -3.628 1.503 -4.695 0.843 -9.179 -5.673 -2.649 -3.85 -3.383 -4.308 -6.916 -4.308 -3.245 0 -3.952 0.347 -3.952 1.941 0 1.068 -0.391 2.182 -0.868 2.478 -0.478 0.295 -1.171 2.818 -1.541 5.606 -0.759 5.725 -2.396 6.989 -5.995 4.63 -1.559 -1.022 -2.844 -3.342 -3.701 -6.686 -0.831 -3.244 -2.061 -5.507 -3.354 -6.174 -1.123 -0.579 -2.825 -1.735 -3.782 -2.57 -1.654 -1.443 -1.654 -1.582 0 -2.81 1.645 -1.221 1.637 -1.368 -0.145 -2.689 -2.01 -1.487 -6.221 -1.172 -7.282 0.545 -0.351 0.568 0.218 1.667 1.265 2.442 1.725 1.278 1.753 1.522 0.298 2.602 -2.585 1.92 -3.152 5.287 -1.447 8.585 2.02 3.907 2.052 3.789 -1.539 5.647 -2.753 1.424 -3.272 1.434 -4.752 0.095 -0.913 -0.827 -2.978 -2 -4.587 -2.616 -2.647 -1.01 -3.145 -0.846 -5.212 1.68 -3.041 3.715 -2.931 5.142 0.742 9.598 3.896 4.727 3.458 8.133 -1.166 9.06 -2.348 0.47 -3.855 0.046 -6.263 -1.763 -4.931 -3.703 -9.333 -4.267 -12.211 -1.563 -1.307 1.228 -3.407 2.339 -4.668 2.47 -3.571 0.371 -3.792 0.444 -3.792 1.257 0 0.42 1.8 1.544 4 2.497 2.556 1.107 4 2.387 4 3.543 0 1.151 1.456 2.453 4 3.575 4.467 1.971 4.95 3.45 2 6.12 -2.712 2.454 -2.564 3.103 1.608 7.04 3.22 3.037 3.549 3.809 3.062 7.183 -1.895 13.13 -1.908 13.838 -0.277 15.191 1.419 1.178 1.607 0.96 1.607 -1.856 0 -2.76 0.276 -3.102 2.048 -2.54 1.126 0.357 2.661 0.141 3.411 -0.481 2.161 -1.793 2.488 0.152 0.667 3.966 -1.279 2.679 -2.193 3.427 -3.899 3.187 -1.763 -0.248 -2.228 0.18 -2.228 2.05 0 1.3 -0.488 2.851 -1.085 3.448 -1.393 1.393 3.01 8.517 4.845 7.837 2.074 -0.768 13.195 8.646 13.219 11.189 0.028 3.074 3.038 5.567 8.703 7.209 2.649 0.768 6.295 2.675 8.102 4.238 2.175 1.882 4.371 2.831 6.5 2.809 l 3.215 -0.033 l -2.326 -1.939 z m 13.207 -15.745 c -0.306 -0.963 -1.417 -3.386 -2.469 -5.386 -1.052 -2 -1.912 -4.385 -1.912 -5.3 0 -0.915 -0.702 -3.02 -1.561 -4.682 -0.858 -1.66 -1.406 -4 -1.218 -5.2 0.29 -1.847 0.683 -1.536 2.561 2.028 1.22 2.316 2.218 4.848 2.218 5.628 0 2.105 2.428 3.835 3.657 2.606 0.555 -0.555 1.778 -0.714 2.719 -0.353 1.392 0.534 1.592 1.444 1.075 4.89 -0.51 3.403 -0.31 4.359 1.021 4.87 2.475 0.95 0.832 2.649 -2.562 2.649 -1.952 0 -3.163 -0.601 -3.529 -1.75 z m -29.824 -8.473 c -2.395 -3.42 -1.907 -6.612 1.443 -9.431 1.65 -1.388 3 -3.09 3 -3.78 0 -1.196 3.082 -4.566 4.176 -4.566 0.285 0 -0.59 2.24 -1.945 4.977 -2.74 5.537 -2.486 8.164 0.708 7.329 3.116 -0.815 2.567 1.805 -1.042 4.972 -3.758 3.297 -4.349 3.344 -6.34 0.5 z m 30.443 -5.277 c 0 -0.825 0.45 -1.5 1 -1.5 0.55 0 1 0.675 1 1.5 0 0.825 -0.45 1.5 -1 1.5 -0.55 0 -1 -0.675 -1 -1.5 z m -13 -5 c 0 -0.825 0.436 -1.5 0.969 -1.5 0.533 0 0.71 0.675 0.393 1.5 -0.317 0.825 -0.752 1.5 -0.969 1.5 -0.216 0 -0.393 -0.675 -0.393 -1.5 z m 9.729 -1.104 c -0.401 -0.401 -0.729 -1.419 -0.729 -2.262 0 -1.126 0.296 -1.238 1.112 -0.421 0.612 0.612 0.94 1.63 0.729 2.262 -0.211 0.632 -0.711 0.822 -1.112 0.421 z m -6.091 -4.896 c -0.317 -0.825 -0.14 -1.5 0.393 -1.5 0.533 0 0.969 0.675 0.969 1.5 0 0.825 -0.177 1.5 -0.393 1.5 -0.216 0 -0.652 -0.675 -0.969 -1.5 z m -41.452 -19.673 c 0.453 -4.584 2.813 -4.929 2.813 -0.41 0 2.583 -0.436 3.583 -1.563 3.583 -1.155 0 -1.482 -0.828 -1.25 -3.173 z m -10.999 -16.89 c 0.241 -0.722 1.028 -1.509 1.75 -1.75 0.75 -0.25 1.125 0.125 0.875 0.875 -0.241 0.722 -1.028 1.509 -1.75 1.75 -0.75 0.25 -1.125 -0.125 -0.875 -0.875 z m 22.308 -15.945 c -0.342 -0.554 0.101 -1.284 0.984 -1.624 1.915 -0.735 2.982 0.075 2.061 1.564 -0.83 1.344 -2.235 1.371 -3.045 0.059 z m 75 68.01 c 0.34 -0.55 -0.057 -1 -0.882 -1 -0.825 0 -1.778 0.45 -2.118 1 -0.34 0.55 0.057 1 0.882 1 0.825 0 1.778 -0.45 2.118 -1 z m -20.5 -7.833 c 0 -1.409 -1.126 -2.055 -2.598 -1.491 -2.087 0.801 -1.695 2.324 0.598 2.324 1.1 0 2 -0.375 2 -0.833 z m -51 -12.698 c 0 -0.842 -0.675 -1.79 -1.5 -2.107 -0.825 -0.317 -1.5 -1.202 -1.5 -1.969 0 -1.922 -1.924 -1.754 -2.687 0.235 -0.401 1.045 0.236 2.29 1.781 3.478 2.949 2.267 3.906 2.356 3.906 0.363 z m 39 -4.41 c 0 -0.518 -0.45 -1.219 -1 -1.559 -0.55 -0.34 -1 0.083 -1 0.941 0 0.857 0.45 1.559 1 1.559 0.55 0 1 -0.423 1 -0.941 z m 9.504 -2.066 c 0.342 -0.554 -0.101 -1.284 -0.984 -1.624 -1.915 -0.735 -2.982 0.075 -2.061 1.564 0.83 1.344 2.235 1.371 3.045 0.06 z m -7.504 -0.993 c 0 -0.55 -0.45 -1 -1 -1 -0.55 0 -1 0.45 -1 1 0 0.55 0.45 1 1 1 0.55 0 1 -0.45 1 -1 z m -7 -1 c 0 -0.55 -0.45 -1 -1 -1 -0.55 0 -1 0.45 -1 1 0 0.55 0.45 1 1 1 0.55 0 1 -0.45 1 -1 z m 21 -4.192 c 3.03 -1.077 6.588 -2.037 7.917 -2.133 1.329 -0.096 2.601 -0.729 2.827 -1.406 0.564 -1.694 -14.454 -0.785 -20.402 1.234 -2.427 0.824 -5.071 1.498 -5.877 1.498 -0.806 0 -1.465 0.702 -1.465 1.559 0 0.857 0.359 1.337 0.798 1.066 0.439 -0.271 1.451 -0.08 2.25 0.424 1.787 1.129 6.706 0.339 13.952 -2.242 z m -27 1.192 c 0 -0.55 -0.45 -1 -1 -1 -0.55 0 -1 0.45 -1 1 0 0.55 0.45 1 1 1 0.55 0 1 -0.45 1 -1 z m -60.21 -4.25 c 0.946 -2.226 0.909 -2.75 -0.193 -2.75 -1.304 0 -2.553 2.878 -2.582 5.95 -0.017 1.853 1.248 0.393 2.775 -3.2 z m 30.23 2.726 c 0.696 -0.838 0.995 -1.794 0.666 -2.124 -1.024 -1.024 -3.686 0.504 -3.686 2.116 0 1.959 1.398 1.962 3.02 0.007 z m 20.584 -1.205 c -1.017 -1.017 -1.855 0.514 -1.021 1.863 0.63 1.019 0.866 1.02 1.204 0.004 0.232 -0.695 0.149 -1.535 -0.183 -1.867 z m -9.203 -5.906 c -3.24 -1.681 -3.062 -1.69 -3.788 0.201 -0.461 1.202 -0.137 1.418 1.393 0.933 1.455 -0.462 1.994 -0.176 1.994 1.057 0 1.396 0.263 1.471 1.516 0.432 1.319 -1.094 1.174 -1.435 -1.114 -2.622 z m 24.599 -0.079 c 0 -2.501 -0.127 -2.587 -1.618 -1.096 -0.89 0.89 -1.314 2.112 -0.941 2.714 1.227 1.986 2.559 1.143 2.559 -1.618 z m 8 0.881 c 0 -1.302 -1.189 -2.168 -2.156 -1.57 -1.034 0.639 -0.142 2.404 1.215 2.404 0.518 0 0.941 -0.375 0.941 -0.833 z m -75 -6.444 c 0 -6.996 -4.675 -11.229 -7.989 -7.235 -1.653 1.992 -0.559 4.513 1.958 4.513 1.564 0 2.031 0.652 2.031 2.833 0 3.131 0.663 4.167 2.667 4.167 0.903 0 1.333 -1.38 1.333 -4.277 z m 37.425 2.156 c -0.648 -1.049 -2.425 -0.207 -2.425 1.149 0 0.5 0.672 0.652 1.494 0.336 0.822 -0.315 1.241 -0.984 0.931 -1.485 z m 36.575 -0.879 c 0 -0.55 -0.423 -1 -0.941 -1 -0.518 0 -1.219 0.45 -1.559 1 -0.34 0.55 0.083 1 0.941 1 0.857 0 1.559 -0.45 1.559 -1 z m -3 -4.622 c 0 -2.105 -2.698 -1.639 -3.275 0.565 -0.279 1.068 -0.261 2.189 0.041 2.491 0.817 0.817 3.233 -1.467 3.233 -3.056 z m 48 -0.578 c 0 -1.615 -0.296 -1.904 -1.113 -1.087 -0.612 0.612 -0.811 1.602 -0.441 2.2 1.034 1.674 1.554 1.302 1.554 -1.113 z m -72 -5.693 c 0 -2.108 -2.59 -3.58 -3.554 -2.02 -0.673 1.089 1.259 3.913 2.677 3.913 0.483 0 0.878 -0.852 0.878 -1.893 z m 29.82 -0.857 c 0.231 -1.63 -0.185 -2.25 -1.509 -2.25 -1.953 0 -4.628 3.349 -3.542 4.434 1.427 1.427 4.742 -0.006 5.05 -2.184 z m 3.18 -5.691 c 0 -2.322 -1.585 -4.308 -2.615 -3.277 -0.761 0.761 0.733 5.718 1.724 5.718 0.49 0 0.892 -1.098 0.892 -2.441 z m -84.32 59.791 c -1 -1 -0.834 -6.35 0.2 -6.35 1.154 0 2.183 5.272 1.223 6.267 -0.407 0.422 -1.047 0.459 -1.423 0.083 z m 13.337 -71.874 c 0.696 -0.838 1.471 -1.318 1.723 -1.067 0.693 0.693 -0.716 2.591 -1.924 2.591 -0.663 0 -0.587 -0.574 0.202 -1.524 z m -9.04 107.77 c -0.012 -0.412 -0.848 -1.824 -1.857 -3.136 -2.189 -2.847 -3.847 -1.25 -1.914 1.845 1.223 1.959 3.817 2.847 3.771 1.291 z m -6.31 -12.828 c 0.617 -1.607 -2.15 -5.274 -3.193 -4.231 -0.84 0.84 0.584 5.808 1.665 5.808 0.508 0 1.195 -0.71 1.528 -1.578 z m -9.668 -34.863 c 0 -2.668 -1.487 -4.198 -2.495 -2.566 -0.813 1.315 0.34 5.01 1.563 5.01 0.513 0 0.933 -1.098 0.933 -2.441 z m -2.918 -52.745 c 5.306 -4.264 9.409 -9.724 8.208 -10.924 -2.574 -2.574 -14.29 7.281 -14.29 12.02 0 2.886 1.453 2.625 6.082 -1.095 z" style="fill:#090000"/></g></svg>