<svg xmlns="http://www.w3.org/2000/svg" viewBox="0 0 256 256"><g transform="translate(0 -796.36)"><path d="m -461.56 1509.46 c -118.52 -82.81 -267.18 103.69 -170.61 201.24 90.99 91.91 260.92 -26.87 216.73 -141.24 -9.219 -23.862 -24.363 -44.801 -46.12 -60 z" color="#000" transform="matrix(0 -1 -1 0 1744.15 388.62)" fill="#9acd32"/><g transform="matrix(5.19426 0 0 5.28573 2.512 -4511.55)" fill="none" stroke="#fff"><path d="m 20.797 1024.1 v 8.99 l 7.917 -4.495 l -7.917 -4.495 z" stroke-width="1.055"/><path transform="matrix(0.83333 0 0 0.83333 4 1008.36)" d="m 42 24 c 0 9.941 -8.06 18 -18 18 -9.941 0 -18 -8.06 -18 -18 0 -9.941 8.06 -18 18 -18 c 9.941 0 18 8.06 18 18 z" opacity="0.481" stroke-dasharray="1.2 1.2" stroke-width="1.2"/></g></g></svg>