<svg xmlns="http://www.w3.org/2000/svg" xmlns:xlink="http://www.w3.org/1999/xlink" viewBox="0 0 256 256"><defs><clipPath><path d="m 27.643 3.295 l 13.09 13.09 h -11.07 c -0.978 0 -2.01 -1.035 -2.01 -2.01 v -11.07 z"/></clipPath><clipPath><path transform="matrix(0.99561 0 0 0.99561 0.105 0.016)" d="m 47.41 6.348 v -1.75 c 0 -2.054 -1.664 -3.719 -3.719 -3.719 h -39.37 c -2.054 0 -3.719 1.664 -3.719 3.719 v 1.75"/></clipPath><linearGradient id="0" gradientUnits="userSpaceOnUse" gradientTransform="matrix(-0.06858 0 0 0.06855 201.4 -4.88)" x1="3254.91" y1="-242.48" x2="2664.16" y2="287.26"><stop style="stop-color:#535353"/><stop offset="1" style="stop-color:#bdbdbd;stop-opacity:0"/></linearGradient></defs><g transform="matrix(0 -1 0.95339 0 -1639.22 -1516.94)"><path d="m -1539.23 1793.07 c 135.66 329.42 -434.9 174.65 -157.85 -40.478 49.706 -37.47 133.17 -40.36 157.85 40.478 z" style="color:#000"/><g transform="matrix(2.39326 0 0 3.0144 -1742.29 1788.71)"><rect rx="4.661" y="0.014" x="-0.005" height="47.984" width="48" style="opacity:0.966"/><path d="M 39.769,0.015 C 19.381,1.677 2.948,17.31 0.065,37.325 V 4.681 c 0,-2.582 2.08,-4.661 4.663,-4.661 h 35.04 z" style="fill:url(#0);opacity:0.966"/><g transform="matrix(1.13492 0 0 0.96855 -2.02 0.81)"><g style="fill:#f5f5f5"><rect rx="2.359" y="8.888" x="10.924" height="33.73" width="7.243" style="opacity:0.99"/><rect rx="2.359" width="9.718" height="33.73" x="18.339" y="8.888" id="2" style="opacity:0.99"/></g><rect rx="1.752" y="8.888" x="13.866" height="25.06" width="9.03" style="fill:#151515;opacity:0.99"/><g style="fill:#fff"><rect rx="2.359" width="7.243" height="33.73" x="10.924" y="8.888"/><use xlink:href="#2"/></g><rect id="1" rx="1.752" width="7.753" height="25.06" x="14.409" y="8.888"/><g style="fill:#fff"><rect rx="2.359" width="9.718" height="33.73" x="28.14" y="8.888" style="opacity:0.99"/><rect rx="2.359" y="8.888" x="37.962" height="33.73" width="9.718" style="opacity:0.99"/></g><g style="fill:#f5f5f5"><rect rx="2.359" width="9.718" height="33.73" x="47.921" y="8.888" style="opacity:0.99"/><rect rx="2.359" y="8.888" x="57.811" height="33.73" width="9.718" id="3" style="opacity:0.99"/></g><rect rx="1.752" width="9.03" height="25.06" x="53.34" y="8.888" style="fill:#151515;opacity:0.99"/><g style="fill:#fff"><rect rx="2.359" y="8.888" x="47.921" height="33.73" width="9.718"/><use xlink:href="#3"/></g><rect rx="1.752" y="8.888" x="24.297" height="25.06" width="7.753"/><rect rx="1.752" width="7.753" height="25.06" x="34.15" y="8.888"/><rect rx="1.752" y="8.888" x="44.22" height="25.06" width="7.753"/><rect rx="1.752" width="7.753" height="25.06" x="53.663" y="8.888"/><use xlink:href="#1" width="1" height="1"/></g></g></g></svg>