<svg xmlns="http://www.w3.org/2000/svg" xmlns:xlink="http://www.w3.org/1999/xlink" viewBox="0 0 256 256"><defs><path d="m 143.84 37.759 a 1.876 1.446 0 1 1 -0.03 -0.26" id="A"/><clipPath><rect x="6" y="6" width="84" height="84" rx="6" style="fill:#fff"/></clipPath><linearGradient id="E" gradientUnits="userSpaceOnUse" gradientTransform="matrix(1.1006 0 0 1.0696 -7.099 -6.17)" x1="46.37" y1="53.979" x2="46.41" y2="48.12"><stop style="stop-color:#96f8d3"/><stop offset="1" style="stop-color:#055235"/></linearGradient><linearGradient y1="20.221" x2="0" gradientUnits="userSpaceOnUse" y2="138.66" id="6"><stop style="stop-color:#fff"/><stop offset="1" style="stop-color:#fff;stop-opacity:0"/></linearGradient><linearGradient id="8"><stop style="stop-color:#e90101"/><stop offset="1" style="stop-color:#e90101;stop-opacity:0"/></linearGradient><linearGradient id="F" gradientUnits="userSpaceOnUse" gradientTransform="matrix(0.66039 0 0 1.0819 4.486 -6.454)" x1="31.18" y1="47.02" x2="31.841" y2="26.902"><stop style="stop-color:#097753"/><stop offset="1" style="stop-color:#065138;stop-opacity:0"/></linearGradient><linearGradient x1="64.5" y1="22.772" gradientTransform="matrix(1.07 0 0 1.0655 -5.45 -5.783)" x2="39.02" gradientUnits="userSpaceOnUse" y2="13.764" id="9"><stop style="stop-color:#6c0707"/><stop offset="1" style="stop-color:#650707;stop-opacity:0"/></linearGradient><linearGradient y1="92.54" gradientTransform="scale(1.0059 0.99417)" x2="0" gradientUnits="userSpaceOnUse" y2="7.02" id="7"><stop/><stop offset="1" style="stop-opacity:0.588"/></linearGradient><linearGradient xlink:href="#6" id="M" gradientUnits="userSpaceOnUse" gradientTransform="matrix(0.99864 0 0 1.0325 -0.384 -2.127)" y1="6" x2="0" y2="63.893"/><linearGradient xlink:href="#7" id="K" gradientUnits="userSpaceOnUse" y1="-90.87" x2="0" y2="-6.761"/><linearGradient xlink:href="#7" id="I" gradientUnits="userSpaceOnUse" gradientTransform="matrix(1.0238 0 0 -1.0005 -1.143 98.04)" y1="6.132" x2="0" y2="90.24"/><linearGradient xlink:href="#7" id="J" gradientUnits="userSpaceOnUse" gradientTransform="matrix(1.0238 0 0 1.0119 -1.143 -98.07)" y1="6.132" x2="0" y2="90.24"/><radialGradient xlink:href="#1" id="L" gradientUnits="userSpaceOnUse" gradientTransform="matrix(1.4421 -0.0092 0.00889 1.3725 -12.69 -36.677)" cx="29.417" cy="53.49" r="42"/><radialGradient xlink:href="#0" id="H" gradientUnits="userSpaceOnUse" gradientTransform="matrix(0.77061 -0.76367 1.9889 1.8952 -22.387 27.13)" cx="64.897" cy="18.456" r="6.302"/><radialGradient xlink:href="#2" id="G" gradientUnits="userSpaceOnUse" gradientTransform="matrix(1 0 0 0.77083 0 8.653)" cx="141.97" cy="37.759" r="1.876"/><radialGradient xlink:href="#8" id="B" gradientUnits="userSpaceOnUse" gradientTransform="matrix(1 0 0 1.0959 0 -4.622)" cx="183.77" cy="49.22" r="42"/><radialGradient r="42" gradientTransform="matrix(1.4421 -0.0092 0.00889 1.3725 -12.69 -36.677)" cx="29.417" cy="53.49" gradientUnits="userSpaceOnUse" id="1"><stop style="stop-color:#0fe999"/><stop offset="1"/></radialGradient><radialGradient r="1.876" gradientTransform="matrix(1 0 0 0.77083 0 8.653)" cx="141.97" cy="37.759" gradientUnits="userSpaceOnUse" id="2"><stop style="stop-color:#0fcb8f"/><stop offset="1" style="stop-color:#0fcb8f;stop-opacity:0"/></radialGradient><radialGradient xlink:href="#6" id="D" gradientUnits="userSpaceOnUse" gradientTransform="matrix(0.79706 -0.01164 0.01444 1.0006 7.962 0.949)" cx="49.19" cy="87.75" r="42"/><radialGradient r="5.275" gradientTransform="matrix(1.1006 0 0 1.8017 -7.271 -64.27)" cx="27.753" cy="76.13" gradientUnits="userSpaceOnUse" id="3"><stop style="stop-color:#033c28"/><stop offset="1" style="stop-color:#000a07"/></radialGradient><radialGradient r="1.173" gradientTransform="matrix(4.7693 0 0 1.9736 -635.23 -42.05)" cx="143.49" cy="36.489" gradientUnits="userSpaceOnUse" id="4"><stop style="stop-color:#e9fef7"/><stop offset="1" style="stop-color:#c3fce9"/></radialGradient><radialGradient xlink:href="#8" id="C" gradientUnits="userSpaceOnUse" gradientTransform="matrix(0.99859 -0.01307 0.2024 0.93056 -9.198 9.386)" cx="193.42" cy="44.3" r="42"/><radialGradient r="2.985" gradientTransform="matrix(2.2828 -0.01455 0.03349 4.9621 -82.993 313.78)" cx="66.29" cy="-77.75" gradientUnits="userSpaceOnUse" id="5"><stop style="stop-color:#860101"/><stop offset="1" style="stop-color:#8e1212;stop-opacity:0"/></radialGradient><radialGradient r="6.302" gradientTransform="matrix(0.77061 -0.76367 1.9889 1.8952 -22.387 27.13)" cx="64.897" cy="18.456" gradientUnits="userSpaceOnUse" id="0"><stop style="stop-color:#6c0707"/><stop offset="1" style="stop-color:#6c0707;stop-opacity:0"/></radialGradient></defs><path d="m 24.967 203.22 c -127.95 -192.46 280.09 -311 226.07 -62.2 -23.02 102.82 -167.39 165.22 -226.07 62.2 z" style="fill:#0ba76e;color:#000"/><g transform="matrix(1.74284 0 0 1.62637 46.03 48.598)"><g transform="matrix(0.99932 0 0 1.033 0.001 -2.829)"><path d="M 12,95.03 C 6.489,95.03 1.97,90.561 1.97,85.112 v -70.2 C 1.97,9.464 6.49,4.995 12,4.995 h 72 c 5.511,0 10.03,4.469 10.03,9.918 v 70.2 c 0,5.449 -4.52,9.918 -10.03,9.918 H 12 z" style="fill:url(#I);opacity:0.08"/><g style="fill:url(#J)"><path transform="scale(1 -1)" d="m 12,-94.03 c -4.972,0 -9.03,4.06 -9.03,9.03 v 71 c 0,4.972 4.06,9.03 9.03,9.03 h 72 c 4.972,0 9.03,-4.06 9.03,-9.03 v -71 c 0,-4.972 -4.06,-9.03 -9.03,-9.03 H 12 z" style="opacity:0.1"/><path transform="scale(1 -1)" d="m 12 -93 c -4.409 0 -8 3.591 -8 8 v 71 c 0 4.409 3.591 8 8 8 h 72 c 4.409 0 8 -3.591 8 -8 v -71 c 0 -4.409 -3.591 -8 -8 -8 h -72 z" style="opacity:0.2"/><rect x="5" y="-92" width="86" height="85" rx="7" transform="scale(1 -1)" style="opacity:0.3"/></g><rect x="6" y="-91" width="84" height="84" rx="6" transform="scale(1 -1)" style="fill:url(#K);opacity:0.45"/></g><rect x="6" y="6" width="84" height="84" rx="6" transform="matrix(0.99864 0 0 1.0268 -0.355 -2.094)" style="fill:url(#L)"/><rect transform="matrix(0 0.2458 -1.0097 0 96.71 43.42)" x="108.52" y="6.219" width="84" height="84" rx="6" style="fill:url(#B);opacity:0.52"/><rect x="108.52" y="9.07" width="84" height="80.47" ry="5.748" rx="6" transform="matrix(0.2458 0 0 1.0097 42.2 -2.103)" style="fill:url(#C);opacity:0.724"/><path d="M 11.11,90.6 C 7.791,90.6 5.118,87.911 5.118,84.57 V 82.56 14.23 12.22 c 0,-0.336 0.041,-0.654 0.094,-0.973 0.049,-0.297 0.097,-0.6 0.187,-0.879 C 5.409,10.337 5.42,10.304 5.43,10.274 5.529,9.986 5.665,9.725 5.805,9.459 5.949,9.184 6.12,8.921 6.304,8.674 6.488,8.427 6.677,8.198 6.897,7.983 7.336,7.553 7.839,7.165 8.395,6.884 8.673,6.744 8.968,6.636 9.269,6.539 9.013,6.64 8.783,6.776 8.551,6.916 8.544,6.92 8.527,6.911 8.52,6.916 8.488,6.935 8.458,6.959 8.426,6.979 8.306,7.056 8.195,7.143 8.083,7.23 7.977,7.311 7.87,7.392 7.771,7.481 7.593,7.643 7.424,7.828 7.272,8.015 7.165,8.146 7.054,8.282 6.96,8.423 6.935,8.462 6.922,8.509 6.898,8.549 6.833,8.653 6.768,8.755 6.711,8.863 6.61,9.059 6.506,9.281 6.43,9.491 6.422,9.513 6.406,9.532 6.399,9.554 6.367,9.646 6.363,9.742 6.337,9.837 6.307,9.944 6.267,10.041 6.243,10.152 6.17,10.495 6.118,10.853 6.118,11.219 v 2.01 68.33 2.01 c 0,2.795 2.215,5.02 4.993,5.02 h 1.997 67.908 1.997 c 2.778,0 4.993,-2.229 4.993,-5.02 v -2.01 -68.33 -2.01 c 0,-0.366 -0.052,-0.724 -0.125,-1.068 C 87.837,9.943 87.793,9.751 87.725,9.554 87.717,9.532 87.702,9.513 87.694,9.491 87.632,9.317 87.556,9.122 87.476,8.957 87.435,8.874 87.397,8.786 87.351,8.706 87.297,8.608 87.225,8.517 87.164,8.423 87.07,8.281 86.959,8.146 86.852,8.015 86.709,7.84 86.549,7.666 86.384,7.513 86.373,7.503 86.364,7.492 86.353,7.482 86.214,7.356 86.068,7.246 85.916,7.137 85.813,7.063 85.712,6.983 85.604,6.917 85.597,6.912 85.58,6.921 85.573,6.917 85.341,6.778 85.111,6.641 84.855,6.54 c 0.301,0.097 0.596,0.205 0.874,0.345 0.556,0.281 1.059,0.669 1.498,1.099 0.22,0.215 0.409,0.444 0.593,0.691 0.184,0.247 0.355,0.51 0.499,0.785 0.14,0.266 0.276,0.527 0.374,0.816 0.01,0.031 0.021,0.063 0.031,0.094 0.09,0.279 0.139,0.582 0.187,0.879 0.052,0.32 0.094,0.637 0.094,0.973 v 2.01 68.33 2.01 c 0,3.34 -2.672,6.03 -5.992,6.03 H 11.167 z" style="fill:url(#D);opacity:0.303"/><path d="m 11.599,4.068 c -3.319,0 -5.992,2.763 -5.992,6.195 v 2.065 70.21 2.065 c 0,0.346 0.041,0.672 0.094,1 0.049,0.305 0.097,0.616 0.187,0.903 0.01,0.031 0.021,0.066 0.031,0.097 0.099,0.297 0.235,0.565 0.374,0.839 0.144,0.282 0.315,0.553 0.499,0.807 0.184,0.254 0.373,0.489 0.593,0.71 0.439,0.442 0.942,0.841 1.498,1.129 0.278,0.144 0.573,0.255 0.874,0.355 C 9.501,90.34 9.271,90.199 9.039,90.056 9.032,90.052 9.015,90.061 9.008,90.056 8.976,90.036 8.946,90.012 8.914,89.991 8.794,89.911 8.684,89.822 8.571,89.732 8.465,89.649 8.358,89.566 8.259,89.474 8.081,89.307 7.912,89.118 7.76,88.926 7.653,88.791 7.542,88.652 7.448,88.506 7.423,88.467 7.41,88.418 7.386,88.377 7.321,88.271 7.256,88.166 7.199,88.054 7.098,87.853 6.994,87.625 6.918,87.409 6.91,87.386 6.894,87.367 6.887,87.344 6.855,87.249 6.851,87.151 6.825,87.054 6.795,86.944 6.755,86.844 6.731,86.731 6.658,86.378 6.606,86.01 6.606,85.634 v -2.065 -70.21 -2.065 c 0,-2.872 2.215,-5.163 4.993,-5.163 h 1.997 67.908 1.997 c 2.778,0 4.993,2.29 4.993,5.163 v 2.065 70.21 2.065 c 0,0.376 -0.052,0.744 -0.125,1.097 -0.044,0.214 -0.088,0.411 -0.156,0.613 -0.008,0.023 -0.023,0.042 -0.031,0.065 -0.063,0.179 -0.138,0.379 -0.218,0.549 -0.042,0.085 -0.079,0.175 -0.125,0.258 -0.055,0.1 -0.127,0.194 -0.187,0.29 -0.094,0.146 -0.205,0.285 -0.312,0.419 -0.143,0.18 -0.303,0.358 -0.468,0.516 -0.011,0.011 -0.02,0.022 -0.031,0.032 -0.138,0.13 -0.285,0.242 -0.437,0.355 -0.102,0.076 -0.204,0.158 -0.312,0.226 -0.007,0.005 -0.024,-0.004 -0.031,0 -0.232,0.143 -0.462,0.284 -0.718,0.387 0.301,-0.1 0.596,-0.211 0.874,-0.355 0.556,-0.288 1.059,-0.687 1.498,-1.129 0.22,-0.221 0.409,-0.456 0.593,-0.71 0.184,-0.254 0.355,-0.524 0.499,-0.807 0.14,-0.274 0.276,-0.542 0.374,-0.839 0.01,-0.032 0.021,-0.065 0.031,-0.097 0.09,-0.287 0.139,-0.598 0.187,-0.903 0.052,-0.328 0.094,-0.655 0.094,-1 v -2.065 -70.21 -2.065 c 0,-3.432 -2.672,-6.195 -5.992,-6.195 z" style="fill:url(#M);opacity:0.3"/><path d="m 23.1 45.916 l -0.451 35.881 h 43.32 v -35.687 z"/><path d="m 54.806 69.39 h 11.611 v 19.01 h -11.611 z" style="fill:#0a0a0a"/><path d="m 26.782 45.722 l 6.252 7.273 l 6.922 -6.982 l 5.359 6.788 l 8.485 -6.982 l 6.03 7.564 l 7.03 -7.661 z" style="fill:url(#E)"/><path d="m 22.428 2.859 l 0.223 43.06 l 48.01 0.388 l -1.34 -29.29 c 0 0 -2.233 -3.297 -4.243 -4.267 -2.01 -0.969 -12.504 -10.279 -12.504 -10.279 l -0.893 10.667 h -17.194 z" style="fill:#021f14"/><path d="m 22.592 18.464 h 6.571 v 27.51 h -6.571 z" style="fill:url(#F)"/><use xlink:href="#A" transform="matrix(5.4648 0 0 5.2155 -735.09 -160.71)" width="1" height="1" style="fill:url(#G)"/><path d="m 22.703 69.19 h 11.611 v 19.01 h -11.611 z" style="fill:url(#3)"/><path d="M 39.4,69.39 H 51.011 V 88.4 H 39.4 z"/><path d="m 35.888 34.507 l 7.084 -0.171 l 2.051 3.6 l -8.948 -0.171 z" style="fill:#edfcf9"/><g style="fill:url(#G)"><use xlink:href="#A" transform="matrix(5.4648 0 0 5.2155 -718.68 -161.22)" width="1" height="1"/><use xlink:href="#A" transform="matrix(5.4648 0 0 5.2155 -726.88 -167.22)" width="1" height="1"/></g><path d="m 63.1 34.507 l -7.084 -0.171 l -2.051 3.6 l 8.948 -0.171 z" style="fill:#edfcf9"/><path d="m 43.531,27.809 2.838,4.469 h 5.509 l 2.838,-4.629 z" style="fill:url(#4)"/><path d="m 69.3 46.33 l -1.111 -28.895 c 0 0 -1.571 -3.306 -5.985 -3.057 -3.071 0.174 -27.348 -0.043 -27.348 -0.043" style="fill:none;opacity:0.76;stroke:url(#9);stroke-width:2.883"/><path d="m 59.894 -87.9 h 6.571 v 18.982 h -6.571 z" transform="scale(1 -1)" style="fill:url(#5);opacity:0.882"/><path d="m 52.77,2.8554 -0.73,10.288 14.359,0.473 z" style="fill:url(#H)"/></g></svg>