<svg xmlns="http://www.w3.org/2000/svg" viewBox="0 0 256 256"><path d="m 22.010839 203.4688 c 48.541 88.14 200.630001 53.931 226.360001 -18.64 30.66 -86.449996 -49.14 -250.629996 -184.300001 -154.449996 -45.527 33.585 -90.6 84.948996 -42.05 173.089996 z" style="fill:#ff8c00;color:#000"/><a transform="matrix(1.7094237 0 0 1.5684068 45.240678 45.240678)" target="_parent" xlink:title="W3C SVG Working Group home page"><rect x="50" y="50" width="50" height="50" rx="4" style="fill:#de8500"/><g style="fill:#f90"><circle id="1" cx="50" cy="18.4" r="18.4"/><circle id="2" cx="72.400002" cy="27.6" r="18.4"/><circle id="3" cx="81.599998" cy="50" r="18.4"/><circle id="4" cx="72.400002" cy="72.400002" r="18.4"/><circle id="5" cx="50" cy="81.599998" r="18.4"/><circle id="6" cx="27.6" cy="72.400002" r="18.4"/><circle id="7" cx="18.4" cy="50" r="18.4"/><circle id="8" cx="27.6" cy="27.6" r="18.4"/></g><path d="m 63.086 18.385 c 0 -7.227 -5.859 -13.086 -13.1 -13.086 -7.235 0 -13.096 5.859 -13.096 13.086 -5.1 -5.11 -13.395 -5.11 -18.497 0 -5.119 5.12 -5.119 13.408 0 18.524 -7.234 0 -13.103 5.859 -13.103 13.085 0 7.23 5.87 13.098 13.103 13.098 -5.119 5.11 -5.119 13.395 0 18.515 5.102 5.104 13.397 5.104 18.497 0 0 7.228 5.86 13.083 13.096 13.083 7.24 0 13.1 -5.855 13.1 -13.083 5.118 5.104 13.416 5.104 18.513 0 5.101 -5.12 5.101 -13.41 0 -18.515 7.216 0 13.081 -5.869 13.081 -13.098 0 -7.227 -5.865 -13.085 -13.081 -13.085 5.101 -5.119 5.101 -13.406 0 -18.524 -5.097 -5.11 -13.393 -5.11 -18.513 0 z"/><path d="M 55.003,23.405 V 37.893 L 65.26,27.64 c 0,-1.812 0.691,-3.618 2.066,-5.005 2.78,-2.771 7.275,-2.771 10.024,0 2.771,2.766 2.771,7.255 0,10.027 -1.377,1.375 -3.195,2.072 -5.015,2.072 L 62.101,44.982 H 76.59 c 1.29,-1.28 3.054,-2.076 5.011,-2.076 3.9,0 7.078,3.179 7.078,7.087 0,3.906 -3.178,7.088 -7.078,7.088 -1.957,0 -3.721,-0.798 -5.011,-2.072 H 62.1 l 10.229,10.244 c 1.824,0 3.642,0.694 5.015,2.086 2.774,2.759 2.774,7.25 0,10.01 -2.75,2.774 -7.239,2.774 -10.025,0 -1.372,-1.372 -2.064,-3.192 -2.064,-5.003 L 55,62.094 v 14.499 c 1.271,1.276 2.084,3.054 2.084,5.013 0,3.906 -3.177,7.077 -7.098,7.077 -3.919,0 -7.094,-3.167 -7.094,-7.077 0,-1.959 0.811,-3.732 2.081,-5.013 V 62.094 L 34.738,72.346 c 0,1.812 -0.705,3.627 -2.084,5.003 -2.769,2.772 -7.251,2.772 -10.024,0 -2.775,-2.764 -2.775,-7.253 0,-10.012 1.377,-1.39 3.214,-2.086 5.012,-2.086 L 37.899,55.009 H 23.414 c -1.289,1.276 -3.072,2.072 -5.015,2.072 -3.917,0 -7.096,-3.18 -7.096,-7.088 0,-3.908 3.177,-7.087 7.096,-7.087 1.94,0 3.725,0.796 5.015,2.076 H 37.902 L 27.646,34.736 c -1.797,0 -3.632,-0.697 -5.012,-2.071 -2.775,-2.772 -2.775,-7.26 0,-10.027 2.773,-2.771 7.256,-2.771 10.027,0 1.375,1.386 2.083,3.195 2.083,5.005 L 44.979,37.895 V 23.407 c -1.27,-1.287 -2.082,-3.053 -2.082,-5.023 0,-3.908 3.175,-7.079 7.096,-7.079 3.919,0 7.097,3.168 7.097,7.079 -0.002,1.972 -0.816,3.735 -2.087,5.021 z" style="fill:#fff"/><path d="m 5.3,50 h 89.38 v 40 q 0,5 -5,5 H 10.3 q -5,0 -5,-5 z"/><path d="m 14.657,54.211 h 71.394 c 2.908,0 5.312,2.385 5.312,5.315 v 17.91 C 63.779,74.033 36.437,69.311 9.352,69.753 V 59.526 c 10e-4,-2.93 2.391,-5.315 5.305,-5.315 z" style="fill:#3f3f3f"/><path d="m 18.312 72.927 c -2.103 -2.107 -3.407 -5.028 -3.407 -8.253 0 -6.445 5.223 -11.672 11.666 -11.672 6.446 0 11.667 5.225 11.667 11.672 h -6.832 c 0 -2.674 -2.168 -4.837 -4.835 -4.837 -2.663 0 -4.838 2.163 -4.838 4.837 0 1.338 0.549 2.536 1.415 3.42 0.883 0.874 2.101 1.405 3.423 1.405 v 0.012 c 3.232 0 6.145 1.309 8.243 3.416 2.118 2.111 3.424 5.034 3.424 8.248 0 6.454 -5.221 11.68 -11.667 11.68 -6.442 0 -11.666 -5.222 -11.666 -11.68 h 6.828 c 0 2.679 2.175 4.835 4.838 4.835 2.667 0 4.835 -2.156 4.835 -4.835 0 -1.329 -0.545 -2.527 -1.429 -3.407 -0.864 -0.88 -2.082 -1.418 -3.406 -1.418 -3.23 0 -6.142 -1.314 -8.259 -3.423 z" style="fill:#fff;stroke:#000;stroke-width:0.50349998"/><path d="m 45.082,53.005 4.838,23.337 4.835,-23.337 h 6.833 l -8.244,39.849 h -6.85 L 38.236,53.005" style="fill:#fff;stroke:#000;stroke-width:0.50349998"/><path id="0" d="m 73.255,69.513 h 11.683 v 11.664 c 0,6.452 -5.226,11.678 -11.669,11.678 -6.441,0 -11.666,-5.226 -11.666,-11.678 V 64.676 H 61.586 C 61.586,58.229 66.827,53 73.253,53 c 6.459,0 11.683,5.225 11.683,11.676 h -6.849 c 0,-2.674 -2.152,-4.837 -4.834,-4.837 -2.647,0 -4.82,2.163 -4.82,4.837 v 16.501 c 0,2.675 2.173,4.837 4.82,4.837 2.682,0 4.834,-2.162 4.834,-4.827 v -0.012 -4.827 h -4.834 l 0.002,-6.835 z" style="fill:#fff;stroke:#000;stroke-width:0.50349998"/></a></svg>