<svg xmlns="http://www.w3.org/2000/svg" xmlns:xlink="http://www.w3.org/1999/xlink" viewBox="0 0 256 256"><defs><rect id="I" width="124.09" x="1.928" y="13.01" rx="7.07" height="101.53"/><clipPath><rect y="24" x="12" rx="5.02" height="72" width="88" style="fill:url(#D)"/></clipPath><clipPath id="E"><rect y="24" x="12" rx="5.02" height="72" width="88" style="fill:url(#D)"/></clipPath><clipPath id="B"><rect transform="scale(-1 1)" y="23" x="-100" rx="5.02" height="72" width="88" style="opacity:0.321"/></clipPath><clipPath><rect y="24" x="12" rx="5.02" height="72" width="88" style="fill:url(#C);opacity:0.653"/></clipPath><linearGradient gradientUnits="userSpaceOnUse" xlink:href="#G" id="C" y2="60" x2="0" y1="92.76"/><linearGradient id="G"><stop/><stop offset="1" style="stop-opacity:0"/></linearGradient><linearGradient id="F"><stop style="stop-color:#5e5e5e"/><stop offset="1" style="stop-color:#292929"/></linearGradient><linearGradient x2="119.98" x1="126.02" gradientUnits="userSpaceOnUse" id="9" xlink:href="#G"/><linearGradient x2="-7.696" x1="-1.928" gradientUnits="userSpaceOnUse" id="A" xlink:href="#G"/><linearGradient x2="-3.357" x1="99.73" gradientUnits="userSpaceOnUse" id="3" xlink:href="#H"/><linearGradient y2="63.777" x2="0" y1="109.98" gradientUnits="userSpaceOnUse" id="2" xlink:href="#G"/><linearGradient id="H"><stop style="stop-color:#ff0"/><stop offset="1" style="stop-color:#ff0;stop-opacity:0"/></linearGradient><linearGradient y2="-63.777" x2="0" y1="-17.577" gradientUnits="userSpaceOnUse" id="1" xlink:href="#G"/><linearGradient y2="21.826" x2="0" y1="13.01" gradientUnits="userSpaceOnUse" id="8" xlink:href="#G"/><linearGradient y2="49.89" x2="35.1" y1="17.411" x1="26.402" gradientUnits="userSpaceOnUse" id="7"><stop style="stop-color:#fff"/><stop offset="1" style="stop-color:#fff;stop-opacity:0"/></linearGradient><linearGradient y2="81.86" x2="0" y1="109.98" gradientUnits="userSpaceOnUse" id="6" xlink:href="#G"/><linearGradient x2="-35.976" x1="101.42" gradientUnits="userSpaceOnUse" id="4"><stop style="stop-color:#ffff1d"/><stop offset="1" style="stop-color:#ffff6f;stop-opacity:0"/></linearGradient><linearGradient x2="-17.198" x1="100.11" gradientUnits="userSpaceOnUse" id="5" xlink:href="#H"/><radialGradient r="44" fy="64.753" cy="65.962" cx="56" gradientTransform="matrix(3.11183 0 0 2.90165 -110.29 -171.62)" gradientUnits="userSpaceOnUse" id="0" xlink:href="#F"/><radialGradient gradientTransform="matrix(2.20676 0 0 2.05771 -67.58 -106.93)" gradientUnits="userSpaceOnUse" xlink:href="#F" id="D" fy="64.753" r="44" cy="65.962" cx="56"/></defs><g transform="translate(0 -796.36)"><path d="m 252.75 896.23 c -49.981 -234.82 -393.86 17.268 -187.29 136.63 80.25 51.16 213 -15.856 187.29 -136.63 z" style="color:#000"/><g transform="matrix(1.53432 0 0 1.20341 32.822 851.16)"><use xlink:href="#I" style="fill:url(#0)"/><g transform="matrix(1.41013 0 0 1.41013 -14.994 -20.831)" style="clip-path:url(#E);fill:#ff7e00;opacity:0.258;stroke:#d3d7cf;fill-rule:evenodd"><path d="m 24.5 19.5 v 80"/><path d="m 40.5 19.5 v 80"/><path d="m 56.5 19.5 v 80"/><path d="m 72.5 19.5 v 80"/><path d="m 88.5 19.5 v 80"/><path d="m 0.5 60.5 h 110.62"/><path d="m 0.5 79.5 h 110.62"/><path d="m 0.5 40.5 h 110.62"/></g><g style="stroke:none"><rect transform="scale(1 -1)" y="-114.54" x="1.928" rx="7.07" height="101.53" width="124.09" style="fill:url(#1);opacity:0.321"/><use xlink:href="#I" style="fill:url(#2);opacity:0.437"/></g><g transform="matrix(1.41013 0 0 1.41013 -14.994 -19.421)" style="clip-path:url(#B)"><path d="m 16.247 126.85 l -18.892 -28.08 l 14.645 -19.281 h 12 l 12 -24 h 16 l 12 16 h 12 l 8 -12 h 15.307 h 5.78 l -0.049 65.38" style="fill:url(#5);opacity:0.285;fill-rule:evenodd"/><g style="fill:none;stroke-linejoin:round"><path d="m 4,59.49 8,20 12,0 12,-24 16,0 12,16 12,0 8,-12 15.306836,0 8.693164,0" style="stroke:url(#4);stroke-width:2"/><path d="m 4,59.49 8,20 12,0 12,-24 16,0 12,16 12,0 8,-12 15.306836,0 8.693164,0" style="stroke:url(#3)"/></g></g><use xlink:href="#I" style="fill:url(#6);opacity:0.321"/><path d="m 9.02 13.01 c -3.919 0 -7.095 3.176 -7.095 7.095 v 30.626 c 23.751 -11.186 57.04 -18.16 93.91 -18.16 c 10.395 0 20.49 0.541 30.19 1.586 v -14.06 c 0 -3.919 -3.176 -7.095 -7.095 -7.095 h -109.9 z" style="fill:url(#7);opacity:0.225"/><rect transform="scale(-1 1)" y="13.01" x="-126.02" rx="7.07" height="101.53" width="124.09" style="fill:url(#8);opacity:0.321"/><use xlink:href="#I" style="fill:url(#9);opacity:0.321"/><rect transform="scale(-1 1)" y="13.01" x="-126.02" rx="7.07" height="101.53" width="124.09" style="fill:url(#A);opacity:0.321"/></g></g></svg>