<svg xmlns="http://www.w3.org/2000/svg" xmlns:xlink="http://www.w3.org/1999/xlink" viewBox="0 0 256 256"><defs><path d="m48.79 55.783a10.695 11.402 0 1 1 -21.39 0 10.695 11.402 0 1 1 21.39 0z" id="I"/><rect height="23.511" rx="0.589" y="-15.196" x="85.38" width="7.248" id="J"/><rect height="23.511" rx="0.589" y="94.03" x="16.925" width="7.248" id="K"/><rect height="23.511" rx="0.589" y="42.613" x="59.04" width="7.248" id="L"/><path d="m62.689 39.021c-16.334 0-29.594 12.287-29.594 27.438 0 15.15 13.26 27.438 29.594 27.438s29.562-12.287 29.562-27.438c0-15.15-13.229-27.438-29.562-27.438zm-0.09375 5.3125c12.672 0 22.938 9.8002 22.938 21.875s-10.265 21.844-22.938 21.844c-12.672 0-22.938-9.769-22.938-21.844s10.265-21.875 22.938-21.875z" id="M"/><path id="W" d="m 48.79 55.783 a 10.695 11.402 0 1 1 -21.39 0 10.695 11.402 0 1 1 21.39 0 z"/><clipPath><rect x="6" y="6" width="84" height="84" rx="6" style="fill:#fff"/></clipPath><clipPath><rect x="6" y="6" width="84" height="84" rx="6" style="fill:#fff"/></clipPath><linearGradient x1="47.49" y1="37.907" gradientTransform="matrix(0.90178 0 0 0.88692 -3.271 7.699)" x2="47.69" gradientUnits="userSpaceOnUse" y2="33.06" id="D"><stop style="stop-color:#2a2a2a"/><stop offset="1" style="stop-color:#3f3f3f"/></linearGradient><linearGradient x1="28.867" y1="40.39" gradientTransform="matrix(0.84457 0 0 0.87322 33.86 -3.923)" x2="28.326" gradientUnits="userSpaceOnUse" xlink:href="#5" y2="20.11" id="H"/><linearGradient x1="74.35" y1="1.046" gradientTransform="matrix(0.89164 0 0 0.8968 -94.18 72.795)" x2="75.46" gradientUnits="userSpaceOnUse" xlink:href="#4" y2="12.424" id="F"/><linearGradient x1="28.02" y1="41.563" gradientTransform="matrix(1.0493 0 0 1.0954 28.02 -10.431)" x2="28.688" gradientUnits="userSpaceOnUse" xlink:href="#9" y2="18.52" id="G"/><linearGradient id="S" gradientUnits="userSpaceOnUse" gradientTransform="matrix(0.95833 0 0 0.94792 2.052 5.954)" x1="80.29" x2="84.73"><stop style="stop-color:#8b8b8b"/><stop offset="1" style="stop-color:#202020"/></linearGradient><linearGradient xlink:href="#4" id="R" gradientUnits="userSpaceOnUse" gradientTransform="matrix(0.90177 0 0 0.88692 -107.78 -55.17)" x1="74.35" y1="1.046" x2="75.46" y2="12.424"/><linearGradient xlink:href="#8" id="N" gradientUnits="userSpaceOnUse" gradientTransform="matrix(1.0238 0 0 1.0119 -1.143 -98.07)" y1="6.132" x2="0" y2="90.24"/><linearGradient id="Q" gradientUnits="userSpaceOnUse" gradientTransform="matrix(0.95833 0 0 0.96302 1.585 -0.623)" x1="80.38" y1="47.17" x2="81.38" y2="73.843"><stop style="stop-color:#e3d4a0"/><stop offset="1" style="stop-color:#e3d4a0;stop-opacity:0"/></linearGradient><linearGradient xlink:href="#8" id="O" gradientUnits="userSpaceOnUse" y1="-90.87" x2="0" y2="-6.761"/><linearGradient xlink:href="#7" id="P" gradientUnits="userSpaceOnUse" x1="38.472" y1="46.695" x2="38.16" y2="58.89"/><linearGradient x1="74.35" y1="1.046" gradientTransform="matrix(0.89191 0 0 0.89715 4.683 9.708)" x2="75.46" gradientUnits="userSpaceOnUse" xlink:href="#4" y2="12.424" id="E"/><linearGradient id="6"><stop style="stop-color:#a6a6a6"/><stop offset="1" style="stop-color:#a6a6a6;stop-opacity:0"/></linearGradient><linearGradient y1="20.221" x2="0" gradientUnits="userSpaceOnUse" y2="138.66" id="7"><stop style="stop-color:#fff"/><stop offset="1" style="stop-color:#fff;stop-opacity:0"/></linearGradient><linearGradient id="5"><stop style="stop-color:#d1d1d1"/><stop offset="1" style="stop-color:#ebebeb"/></linearGradient><linearGradient xlink:href="#7" id="V" gradientUnits="userSpaceOnUse" x1="37.505" y1="30.381" x2="37.982" y2="51.18"/><linearGradient x1="28.02" y1="41.563" gradientTransform="matrix(1.0493 0 0 1.0954 -5.366 -10.431)" x2="28.688" gradientUnits="userSpaceOnUse" xlink:href="#9" y2="18.52" id="C"/><linearGradient id="4"><stop style="stop-color:#666"/><stop offset="1" style="stop-color:#666;stop-opacity:0"/></linearGradient><linearGradient x1="28.867" y1="40.39" gradientTransform="matrix(0.84457 0 0 0.87322 0.568 -3.923)" x2="28.326" gradientUnits="userSpaceOnUse" xlink:href="#5" y2="20.11" id="B"/><linearGradient y1="92.54" gradientTransform="scale(1.0059 0.99417)" x2="0" gradientUnits="userSpaceOnUse" y2="7.02" id="8"><stop/><stop offset="1" style="stop-opacity:0.588"/></linearGradient><linearGradient id="9"><stop style="stop-color:#4e4e4e"/><stop offset="1" style="stop-color:#b4b4b4"/></linearGradient><linearGradient xlink:href="#7" x1="47.36" y1="8.717" x2="47.46" gradientUnits="userSpaceOnUse" y2="18.19" id="A"/><radialGradient xlink:href="#2" id="U" gradientUnits="userSpaceOnUse" gradientTransform="matrix(0.55288 0 0 0.54688 37.445 23.11)" cx="78.47" cy="53.737" r="7.868"/><radialGradient xlink:href="#6" id="T" gradientUnits="userSpaceOnUse" gradientTransform="matrix(0.93677 0 0 0.88598 35.37 10.449)" cx="47.18" cy="60.866" r="6.541"/><radialGradient r="24.786" gradientTransform="matrix(1.2146 -0.0156 0.01953 1.5201 -9.763 -29.663)" cx="39.57" cy="59.55" gradientUnits="userSpaceOnUse" id="0"><stop style="stop-color:#8a8a8a"/><stop offset="1" style="stop-color:#8a8a8a;stop-opacity:0"/></radialGradient><radialGradient r="6.541" gradientTransform="matrix(1.0192 0 0 0.99832 -9.785 -3.32)" cx="48.26" cy="63.65" gradientUnits="userSpaceOnUse" xlink:href="#6" id="1"/><radialGradient r="7.868" gradientTransform="matrix(0.55288 0 0 0.54688 37.445 23.11)" cx="78.47" cy="53.737" gradientUnits="userSpaceOnUse" id="2"><stop/><stop offset="1" style="stop-opacity:0"/></radialGradient><radialGradient r="41.971" gradientTransform="matrix(1.067 0.00193 -0.00245 1.3502 -3.306 -3.322)" cx="43.495" cy="9.453" gradientUnits="userSpaceOnUse" id="3"><stop style="stop-color:#eddda5"/><stop offset="1" style="stop-color:#b19638"/></radialGradient></defs><path d="m 52.77 231.02 c 192.46 127.95 311 -280.09 62.2 -226.07 -102.82 23.02 -165.22 167.39 -62.2 226.07 z" style="fill:#b99f46;color:#000"/><g transform="matrix(1.74282 0 0 1.7033 48.538 46.649)"><g style="fill:url(#N)"><path transform="matrix(0.99932 0 0 -0.99931 -0.195 -0.113)" d="m 12 -95.03 c -5.511 0 -10.03 4.52 -10.03 10.03 v 71 c 0 5.511 4.52 10.03 10.03 10.03 h 72 c 5.511 0 10.03 -4.52 10.03 -10.03 v -71 c 0 -5.511 -4.52 -10.03 -10.03 -10.03 h -72 z" style="opacity:0.08"/><path transform="matrix(0.99932 0 0 -0.99931 -0.195 -0.113)" d="m 12,-94.03 c -4.972,0 -9.03,4.06 -9.03,9.03 v 71 c 0,4.972 4.06,9.03 9.03,9.03 h 72 c 4.972,0 9.03,-4.06 9.03,-9.03 v -71 c 0,-4.972 -4.06,-9.03 -9.03,-9.03 H 12 z" style="opacity:0.1"/><path transform="matrix(0.99932 0 0 -0.99931 -0.195 -0.113)" d="m 12 -93 c -4.409 0 -8 3.591 -8 8 v 71 c 0 4.409 3.591 8 8 8 h 72 c 4.409 0 8 -3.591 8 -8 v -71 c 0 -4.409 -3.591 -8 -8 -8 h -72 z" style="opacity:0.2"/><rect x="5" y="-92" width="86" height="85" rx="7" transform="matrix(0.99932 0 0 -0.99931 -0.195 -0.113)" style="opacity:0.3"/></g><rect x="6" y="-91" width="84" height="84" rx="6" transform="matrix(0.99932 0 0 -0.99931 -0.195 -0.113)" style="fill:url(#O);opacity:0.45"/><rect x="5.801" y="5.705" width="83.943" height="83.942" rx="5.996" style="fill:url(#3)"/><g transform="matrix(1.0343 0 0 1.0328 -108.78 -8.176)"><g transform="matrix(0.51471 0 0 0.52836 95.83 -5.02)" style="opacity:0.1"><use xlink:href="#M" width="1" height="1"/><use xlink:href="#I" transform="matrix(0.79339 0 0 0.75969 32 23.22)" width="1" height="1"/><use xlink:href="#L" width="1" height="1"/><use xlink:href="#J" transform="matrix(0.55066 0.83473 -0.83473 0.55066 0 0)" width="1" height="1"/><use xlink:href="#K" transform="matrix(-0.55067 0.83473 0.83473 0.55067 0 0)" width="1" height="1"/></g><g transform="matrix(0.49862 0 0 0.51857 96.87 -4.506)" style="opacity:0.2"><use xlink:href="#M" width="1" height="1"/><use xlink:href="#I" transform="matrix(0.79339 0 0 0.75969 32 23.22)" width="1" height="1"/><use xlink:href="#L" width="1" height="1"/><use xlink:href="#J" transform="matrix(0.55066 0.83473 -0.83473 0.55066 0 0)" width="1" height="1"/><use xlink:href="#K" transform="matrix(-0.55067 0.83473 0.83473 0.55067 0 0)" width="1" height="1"/></g><g transform="matrix(0.48145 0 0 0.50633 97.95 -3.76)" style="opacity:0.3"><use xlink:href="#M" width="1" height="1"/><use xlink:href="#I" transform="matrix(0.79339 0 0 0.75969 32 23.22)" width="1" height="1"/><use xlink:href="#L" width="1" height="1"/><use xlink:href="#J" transform="matrix(0.55066 0.83473 -0.83473 0.55066 0 0)" width="1" height="1"/><use xlink:href="#K" transform="matrix(-0.55067 0.83473 0.83473 0.55067 0 0)" width="1" height="1"/></g><g transform="matrix(0.46536 0 0 0.49042 98.99 -2.736)" style="opacity:0.45"><use xlink:href="#M" width="1" height="1"/><use xlink:href="#I" transform="matrix(0.79339 0 0 0.75969 32 23.22)" width="1" height="1"/><use xlink:href="#L" width="1" height="1"/><use xlink:href="#J" transform="matrix(0.55066 0.83473 -0.83473 0.55066 0 0)" width="1" height="1"/><use xlink:href="#K" transform="matrix(-0.55067 0.83473 0.83473 0.55067 0 0)" width="1" height="1"/></g></g><path d="m 49.11 54.04 a 9.619 7.93 0 1 1 -19.237 0 9.619 7.93 0 1 1 19.237 0 z" style="fill:url(#P);opacity:0.529"/><path d="m 47.944 54.32 a 8.453 7.373 0 1 1 -16.905 0 8.453 7.373 0 1 1 16.905 0 z"/><rect x="33.17" y="47.39" width="12.223" height="18.618" ry="2.883" rx="4.516" style="fill:#292929"/><g transform="matrix(0.96932 0 0 0.95289 -21.12 -1.55)" style="opacity:0.1"><use xlink:href="#M" width="1" height="1"/><use transform="matrix(0.79339 0 0 0.75969 32 23.22)" xlink:href="#W"/><use xlink:href="#L" width="1" height="1"/><rect rx="0.589" height="23.511" x="85.38" y="-15.196" width="7.248" transform="matrix(0.55066 0.83473 -0.83473 0.55066 0 0)"/><use xlink:href="#K" transform="matrix(-0.55067 0.83473 0.83473 0.55067 0 0)" width="1" height="1"/></g><g transform="matrix(0.93901 0 0 0.93524 -19.16 -0.618)" style="opacity:0.2"><use xlink:href="#M" width="1" height="1"/><use transform="matrix(0.79339 0 0 0.75969 32 23.22)" xlink:href="#W"/><use xlink:href="#L" width="1" height="1"/><use xlink:href="#J" transform="matrix(0.55066 0.83473 -0.83473 0.55066 0 0)" width="1" height="1"/><use xlink:href="#K" transform="matrix(-0.55067 0.83473 0.83473 0.55067 0 0)" width="1" height="1"/></g><g transform="matrix(0.90668 0 0 0.91316 -17.13 0.728)" style="opacity:0.3"><use xlink:href="#M" width="1" height="1"/><use transform="matrix(0.79339 0 0 0.75969 32 23.22)" xlink:href="#W"/><use xlink:href="#L" width="1" height="1"/><use xlink:href="#J" transform="matrix(0.55066 0.83473 -0.83473 0.55066 0 0)" width="1" height="1"/><use xlink:href="#K" transform="matrix(-0.55067 0.83473 0.83473 0.55067 0 0)" width="1" height="1"/></g><path d="M 11.796,5.705 C 8.474,5.705 5.8,8.379 5.8,11.701 v 1.999 67.953 1.999 c 0,0.334 0.041,0.65 0.094,0.968 0.049,0.295 0.097,0.597 0.187,0.874 0.01,0.03 0.021,0.064 0.031,0.094 0.099,0.288 0.235,0.547 0.375,0.812 0.144,0.273 0.315,0.535 0.5,0.781 0.184,0.245 0.374,0.473 0.593,0.687 0.44,0.428 0.942,0.814 1.499,1.093 0.278,0.14 0.573,0.247 0.874,0.344 C 9.697,89.205 9.467,89.069 9.235,88.93 9.228,88.926 9.211,88.934 9.204,88.93 9.172,88.911 9.142,88.888 9.11,88.868 8.99,88.792 8.88,88.705 8.767,88.618 8.661,88.538 8.554,88.457 8.455,88.369 8.277,88.207 8.108,88.023 7.955,87.838 7.848,87.707 7.737,87.573 7.643,87.432 7.618,87.393 7.605,87.346 7.58,87.307 7.515,87.204 7.45,87.102 7.393,86.994 7.292,86.8 7.187,86.579 7.112,86.37 7.104,86.348 7.088,86.329 7.081,86.308 7.049,86.216 7.045,86.121 7.019,86.027 6.989,85.92 6.949,85.824 6.925,85.715 6.852,85.374 6.8,85.017 6.8,84.653 V 82.654 14.701 12.702 c 0,-2.78 2.217,-4.997 4.997,-4.997 h 1.999 67.954 1.999 c 2.78,0 4.997,2.217 4.997,4.997 v 1.999 67.953 1.999 c 0,0.364 -0.052,0.72 -0.125,1.062 -0.044,0.207 -0.088,0.397 -0.156,0.593 -0.008,0.022 -0.023,0.041 -0.031,0.062 -0.063,0.174 -0.138,0.367 -0.219,0.531 -0.042,0.083 -0.079,0.17 -0.125,0.25 -0.055,0.097 -0.127,0.188 -0.187,0.281 -0.094,0.141 -0.205,0.276 -0.312,0.406 -0.143,0.174 -0.303,0.347 -0.468,0.5 -0.011,0.01 -0.02,0.021 -0.031,0.031 -0.138,0.125 -0.285,0.234 -0.437,0.344 -0.103,0.073 -0.204,0.153 -0.312,0.219 -0.007,0.004 -0.024,-0.004 -0.031,0 -0.232,0.139 -0.462,0.275 -0.718,0.375 0.301,-0.097 0.596,-0.204 0.874,-0.344 0.557,-0.279 1.059,-0.665 1.499,-1.093 0.22,-0.214 0.409,-0.442 0.593,-0.687 0.184,-0.245 0.355,-0.507 0.5,-0.781 0.14,-0.265 0.276,-0.524 0.375,-0.812 0.01,-0.031 0.021,-0.063 0.031,-0.094 0.09,-0.278 0.139,-0.579 0.187,-0.874 0.052,-0.318 0.094,-0.634 0.094,-0.968 V 81.655 13.702 11.703 c 0,-3.322 -2.674,-5.996 -5.996,-5.996 H 11.8 z" style="fill:url(#A);opacity:0.524"/><rect rx="1.753" x="74.65" y="43.22" width="12.44" height="34.48" style="fill:url(#Q)"/><path d="M 11.796,89.65 C 8.474,89.65 5.8,86.976 5.8,83.654 V 81.655 13.702 11.703 c 0,-0.334 0.041,-0.65 0.094,-0.968 C 5.943,10.44 5.991,10.138 6.081,9.861 6.091,9.831 6.102,9.797 6.112,9.767 6.211,9.479 6.347,9.22 6.487,8.955 6.632,8.682 6.803,8.42 6.987,8.175 7.171,7.93 7.36,7.702 7.58,7.488 8.02,7.06 8.522,6.674 9.079,6.395 9.357,6.255 9.652,6.148 9.953,6.051 9.697,6.151 9.467,6.287 9.235,6.426 9.228,6.43 9.211,6.422 9.204,6.426 9.172,6.445 9.142,6.468 9.11,6.488 8.99,6.565 8.879,6.651 8.766,6.738 8.66,6.819 8.553,6.899 8.454,6.988 8.276,7.149 8.107,7.333 7.954,7.519 7.847,7.649 7.736,7.784 7.642,7.925 7.617,7.963 7.604,8.011 7.58,8.05 7.515,8.153 7.45,8.254 7.393,8.362 7.292,8.557 7.187,8.777 7.112,8.987 7.104,9.009 7.088,9.028 7.081,9.049 7.049,9.141 7.045,9.236 7.019,9.33 6.989,9.437 6.949,9.533 6.925,9.642 6.852,9.983 6.8,10.34 6.8,10.704 v 1.999 67.953 1.999 c 0,2.78 2.217,4.997 4.997,4.997 h 1.999 67.954 1.999 c 2.78,0 4.997,-2.217 4.997,-4.997 V 80.656 12.703 10.704 c 0,-0.364 -0.052,-0.72 -0.125,-1.062 C 88.577,9.435 88.533,9.245 88.465,9.049 88.457,9.027 88.442,9.008 88.434,8.987 88.37,8.813 88.295,8.62 88.214,8.456 88.173,8.373 88.135,8.286 88.089,8.206 88.035,8.109 87.963,8.018 87.902,7.925 87.808,7.784 87.697,7.649 87.59,7.519 87.447,7.345 87.287,7.172 87.121,7.019 87.11,7.009 87.101,6.998 87.09,6.988 86.952,6.863 86.805,6.754 86.653,6.645 86.55,6.572 86.449,6.492 86.341,6.426 86.334,6.422 86.317,6.43 86.31,6.426 86.078,6.287 85.848,6.151 85.592,6.051 c 0.301,0.097 0.596,0.204 0.874,0.344 0.557,0.279 1.059,0.665 1.499,1.093 0.22,0.214 0.409,0.442 0.593,0.687 0.184,0.245 0.355,0.507 0.5,0.781 0.14,0.265 0.276,0.524 0.375,0.812 0.01,0.031 0.021,0.063 0.031,0.094 0.09,0.278 0.139,0.579 0.187,0.874 0.052,0.318 0.094,0.634 0.094,0.968 v 1.999 67.953 1.999 c 0,3.322 -2.674,5.996 -5.996,5.996 H 11.798 z" style="fill:#fff;opacity:0.166"/><path d="m 37.3 22.498 a 13.541 12.974 0 0 1 -27.08 0 13.541 12.974 0 1 1 27.08 0 z" style="fill:url(#C)"/><path d="m 35.36 22.485 a 11.504 10.634 0 0 1 -23.01 0 11.504 10.634 0 1 1 23.01 0 z" style="fill:none;opacity:0.457;stroke:#000;stroke-width:1.042"/><path d="m 34.907 22.328 a 10.899 10.342 0 0 1 -21.798 0 10.899 10.342 0 1 1 21.798 0 z" style="fill:url(#B)"/><path d="m 23.664 13.13 h 0.428 v 2.552 h -0.428 z"/><path d="m 31 26.916 c 0 0 3.419 -4.171 1.103 -7.739" style="fill:none;stroke:#ff1d1d;stroke-width:1.084"/><g transform="matrix(0 1 -1 0 0 0)"><path d="m 22.647 -33.405 h 0.412 v 2.853 h -0.412 z"/><path d="m 22.467 -17.594 h 0.412 v 2.786 h -0.412 z"/></g><path d="m -3.308 -25.05 h 0.42 v 1.676 h -0.42 z" transform="matrix(-0.74687 0.66497 -0.69306 -0.72088 0 0)"/><path d="m 0.996,-41.535 h 0.418 v 1.684 H 0.996 z" transform="matrix(-0.66224 0.74929 -0.77384 -0.63338 0 0)"/><path d="m 31.33 -9.344 h 0.42 v 1.678 h -0.42 z" transform="matrix(0.73211 0.68118 -0.70876 0.70545 0 0)"/><path d="m 31.348,3.134 h 0.418 V 4.82 h -0.418 z" transform="matrix(0.63226 0.77475 -0.79779 0.60294 0 0)"/><path d="m 10.777 -23.578 h 0.414 v 1.7 h -0.414 z" transform="matrix(-0.41109 0.9116 -0.92276 -0.38537 0 0)"/><path d="m 31.18,18.16 h 0.415 v 1.697 H 31.18 z" transform="matrix(0.47649 0.87918 0.89374 -0.44858 0 0)"/><g transform="matrix(0.87637 0 0 0.88447 -15.174 2.574)" style="opacity:0.45"><use xlink:href="#M" width="1" height="1"/><use xlink:href="#I" transform="matrix(0.79339 0 0 0.75969 32 23.22)" width="1" height="1"/><use xlink:href="#L" width="1" height="1"/><use xlink:href="#J" transform="matrix(0.55066 0.83473 -0.83473 0.55066 0 0)" width="1" height="1"/><use xlink:href="#K" transform="matrix(-0.55067 0.83473 0.83473 0.55067 0 0)" width="1" height="1"/></g><path d="m 39.789 37.884 c -13.687 0 -24.799 10.434 -24.799 23.299 0 12.865 11.11 23.299 24.799 23.299 13.687 0 24.773 -10.434 24.773 -23.299 0 -12.865 -11.09 -23.299 -24.773 -23.299 z m -0.079 4.511 c 10.619 0 19.221 8.322 19.221 18.575 0 10.253 -8.602 18.549 -19.221 18.549 -10.619 0 -19.221 -8.295 -19.221 -18.549 0 -10.253 8.602 -18.575 19.221 -18.575 z" style="fill:url(#D)"/><path d="m 25.02 22.64 a 1.235 1.271 0 1 1 -2.47 0 1.235 1.271 0 1 1 2.47 0 z"/><rect x="29.692" y="3.256" width="1.099" height="9.973" ry="0.369" rx="0.55" transform="matrix(0.93557 0.35315 -0.3467 0.93798 0 0)" style="fill:#ff1d1d"/><rect rx="0.547" x="22.05" y="26.315" width="3.493" height="5.361"/><path transform="matrix(0.98752 0 0 1.0964 -7.318 1.342)" d="m 32.31,26.1 v 0.729 H 31.629 V 26.1 H 30 v -0.536 l 1.512,-2.316 h 0.798 v 2.321 h 0.478 V 26.1 H 32.31 m -0.681,-1.703 c 0,-0.029 0,-0.066 0,-0.112 0.002,-0.047 0.003,-0.096 0.005,-0.145 0.003,-0.049 0.006,-0.096 0.008,-0.14 0.003,-0.046 0.007,-0.081 0.01,-0.107 -0.009,0.019 -0.022,0.046 -0.041,0.081 -0.019,0.034 -0.04,0.071 -0.064,0.112 -0.022,0.039 -0.046,0.078 -0.071,0.117 -0.024,0.039 -0.045,0.073 -0.064,0.102 l -0.831,1.263 h 1.047 v -1.172" style="fill:#ff1d1d"/><g transform="matrix(1.0343 0 0 1.0328 -75.44 -8.02)"><g transform="matrix(0.51471 0 0 0.52836 95.83 -5.02)" style="opacity:0.1"><use xlink:href="#M" width="1" height="1"/><use xlink:href="#I" transform="matrix(0.79339 0 0 0.75969 32 23.22)" width="1" height="1"/><use xlink:href="#L" width="1" height="1"/><use xlink:href="#J" transform="matrix(0.55066 0.83473 -0.83473 0.55066 0 0)" width="1" height="1"/><use xlink:href="#K" transform="matrix(-0.55067 0.83473 0.83473 0.55067 0 0)" width="1" height="1"/></g><g transform="matrix(0.49862 0 0 0.51857 96.87 -4.506)" style="opacity:0.2"><use xlink:href="#M" width="1" height="1"/><use xlink:href="#I" transform="matrix(0.79339 0 0 0.75969 32 23.22)" width="1" height="1"/><use xlink:href="#L" width="1" height="1"/><use xlink:href="#J" transform="matrix(0.55066 0.83473 -0.83473 0.55066 0 0)" width="1" height="1"/><use xlink:href="#K" transform="matrix(-0.55067 0.83473 0.83473 0.55067 0 0)" width="1" height="1"/></g><g transform="matrix(0.48145 0 0 0.50633 97.95 -3.76)" style="opacity:0.3"><use xlink:href="#M" width="1" height="1"/><use xlink:href="#I" transform="matrix(0.79339 0 0 0.75969 32 23.22)" width="1" height="1"/><use xlink:href="#L" width="1" height="1"/><use xlink:href="#J" transform="matrix(0.55066 0.83473 -0.83473 0.55066 0 0)" width="1" height="1"/><use xlink:href="#K" transform="matrix(-0.55067 0.83473 0.83473 0.55067 0 0)" width="1" height="1"/></g><g transform="matrix(0.46536 0 0 0.49042 98.99 -2.736)" style="opacity:0.45"><use xlink:href="#M" width="1" height="1"/><use xlink:href="#I" transform="matrix(0.79339 0 0 0.75969 32 23.22)" width="1" height="1"/><use xlink:href="#L" width="1" height="1"/><use xlink:href="#J" transform="matrix(0.55066 0.83473 -0.83473 0.55066 0 0)" width="1" height="1"/><use xlink:href="#K" transform="matrix(-0.55067 0.83473 0.83473 0.55067 0 0)" width="1" height="1"/></g></g><path d="m 70.68 22.498 a 13.541 12.974 0 0 1 -27.08 0 13.541 12.974 0 1 1 27.08 0 z" style="fill:url(#G)"/><path d="m 68.65 22.485 a 11.496 10.94 0 0 1 -22.992 0 11.496 10.94 0 1 1 22.992 0 z" style="fill:none;opacity:0.457;stroke:#000;stroke-width:1.056"/><path d="m 68.2 22.328 a 10.899 10.342 0 0 1 -21.798 0 10.899 10.342 0 1 1 21.798 0 z" style="fill:url(#H)"/><path d="m 56.955 13.13 h 0.428 v 2.552 h -0.428 z"/><g transform="matrix(0 1 -1 0 0 0)"><path d="m 22.647 -66.7 h 0.412 v 2.853 h -0.412 z"/><path d="m 22.467 -50.885 h 0.412 v 2.786 h -0.412 z"/></g><path d="m -27.325 -47.2 h 0.42 v 1.676 h -0.42 z" transform="matrix(-0.74687 0.66497 -0.69306 -0.72088 0 0)"/><path d="m -20.11 -66.5 h 0.418 v 1.684 h -0.418 z" transform="matrix(-0.66224 0.74929 -0.77384 -0.63338 0 0)"/><path d="m 54.834 -32.04 h 0.42 v 1.678 h -0.42 z" transform="matrix(0.73211 0.68118 -0.70876 0.70545 0 0)"/><path d="m 51.44,-22.676 h 0.418 v 1.686 H 51.44 z" transform="matrix(0.63226 0.77475 -0.79779 0.60294 0 0)"/><path d="m -2.057 -53.939 h 0.414 v 1.7 h -0.414 z" transform="matrix(-0.41109 0.9116 -0.92276 -0.38537 0 0)"/><path d="m 46.12,47.45 h 0.415 v 1.697 H 46.12 z" transform="matrix(0.47649 0.87918 0.89374 -0.44858 0 0)"/><path d="m 58.32 22.64 a 1.235 1.271 0 1 1 -2.47 0 1.235 1.271 0 1 1 2.47 0 z"/><rect x="21.839" y="-66.56" width="1.104" height="9.934" ry="0.368" rx="0.552" transform="matrix(-0.00709 0.99997 -1 -0.00315 0 0)" style="fill:#ff1d1d"/><g style="fill:#2a2a2a"><path d="m 46.511 60.45 a 7.111 7.355 0 0 1 -14.221 0 7.111 7.355 0 1 1 14.221 0 z"/><rect rx="0.5" x="36.734" y="40.935" width="6.074" height="19.965"/><rect rx="0.496" height="19.782" x="69.08" y="0.486" width="6.13" transform="matrix(0.54559 0.83805 -0.83135 0.55575 0 0)"/></g><rect rx="0.287" height="11.466" x="70.31" y="10.695" width="3.481" transform="matrix(0.58437 0.81149 -0.83301 0.55326 0 0)" style="fill:url(#E);opacity:0.688"/><rect rx="0.496" height="19.782" x="25.346" y="71.03" width="6.13" transform="matrix(-0.54559 0.83805 0.83135 0.55575 0 0)" style="fill:#2a2a2a"/><path d="m 39.945 37.728 c -13.687 0 -24.799 10.434 -24.799 23.299 0 12.865 11.11 23.299 24.799 23.299 13.687 0 24.773 -10.434 24.773 -23.299 0 -12.865 -11.09 -23.299 -24.773 -23.299 z m -0.079 4.511 c 10.619 0 19.221 8.322 19.221 18.575 0 10.253 -8.602 18.549 -19.221 18.549 -10.619 0 -19.221 -8.295 -19.221 -18.549 0 -10.253 8.602 -18.575 19.221 -18.575 z" style="fill:url(#0);opacity:0.507"/><path d="m 46.07 60.22 a 6.666 6.53 0 1 1 -13.332 0 6.666 6.53 0 1 1 13.332 0 z" style="fill:url(#1);opacity:0.602"/><rect rx="0.287" height="11.461" x="-28.572" y="73.78" width="3.48" transform="matrix(0.56831 -0.82281 0.81898 0.57383 0 0)" style="fill:url(#F);opacity:0.656"/><rect rx="0.284" height="11.335" x="-41.43" y="-54.19" width="3.519" transform="matrix(-0.99978 0.0209 0.00106 -1 0 0)" style="fill:url(#R);opacity:0.719"/><path d="m -33.599 -58.57 h 0.418 v 1.686 h -0.418 z" transform="matrix(-0.84573 0.53362 -0.56552 -0.82473 0 0)"/><path d="m 60.4,6.637 h 0.417 v 1.69 H 60.4 z" transform="matrix(0.92693 0.37523 -0.41054 0.91184 0 0)"/><path d="m 56.757 29.09 h 0.428 v 2.552 h -0.428 z"/><rect rx="1.623" x="76.16" y="44.709" width="9.569" height="31.911"/><rect rx="1.753" x="78.995" y="52.781" width="4.253" height="10.9" style="fill:url(#S)"/><path d="m 87.29 66.756 a 6.425 6.423 0 0 1 -12.85 0 6.425 6.423 0 1 1 12.85 0 z" style="fill:#353535"/><path d="m 86.7 66.842 a 6.127 5.795 0 1 1 -12.254 0 6.127 5.795 0 1 1 12.254 0 z" style="fill:url(#T);opacity:0.842"/><path d="m 85.18 52.49 a 4.35 4.303 0 1 1 -8.7 0 4.35 4.303 0 1 1 8.7 0 z" style="fill:url(#U)"/><path d="m 39.633 37.728 c -13.687 0 -24.799 10.434 -24.799 23.299 0 12.865 11.11 23.299 24.799 23.299 13.687 0 24.773 -10.434 24.773 -23.299 0 -12.865 -11.09 -23.299 -24.773 -23.299 z m -0.079 4.511 c 10.619 0 19.221 8.322 19.221 18.575 0 10.253 -8.602 18.549 -19.221 18.549 -10.619 0 -19.221 -8.295 -19.221 -18.549 0 -10.253 8.602 -18.575 19.221 -18.575 z" style="fill:url(#V);opacity:0.507"/></g></svg>