<svg xmlns="http://www.w3.org/2000/svg" xmlns:xlink="http://www.w3.org/1999/xlink" viewBox="0 0 256 256"><defs><path d="m 222.07 93.61 a 46.651 46.651 0 1 1 -93.3 0 46.651 46.651 0 1 1 93.3 0 z" id="1" style="fill:#9df6f0;fill-rule:evenodd"/><path d="m 222.07 93.61 a 46.651 46.651 0 1 1 -93.3 0 46.651 46.651 0 1 1 93.3 0 z" id="2" style="fill:#58bcee;fill-rule:evenodd"/><clipPath><use xlink:href="#1" transform="matrix(0.90148 0 0 0.90148 144.85 -2.372)"/></clipPath><clipPath><path transform="matrix(1.12896 0 0 1.12896 -266.77 -103.02)" d="m 455.38 420.08 a 94.75 94.75 0 1 1 -189.5 0 94.75 94.75 0 1 1 189.5 0 z"/></clipPath><clipPath><path d="m 398.41 222.99 l -91.24 1.267 c -3.981 0.431 -7.517 0.14 -11.278 -0.966 l -37.613 -11.06 c -5.092 -0.846 -5.633 -2.086 -7.486 -6.534 l -3.059 -7.343 c -2.855 -4.826 -0.169 -5.937 3.273 -9.723 l 18.255 -20.08 c 18.921 -26.807 37.803 -58.05 64.4 -70.15 38.791 -14.804 81.87 -6.077 110.06 22.977 19.501 20.1 26.947 50.01 27.26 80.12 l -69.3 32.2 c -1.878 -6.381 -3.276 -10.704 -3.276 -10.704 z"/></clipPath><clipPath><use transform="matrix(4.25438 0 0 4.25438 -467.55 -141.82)" xlink:href="#2"/></clipPath><clipPath><path d="m 295.5 170.71 c 0 0 10.917 -20.18 22.16 -22.802 9.4 -2.194 27.544 8.317 27.544 8.317 0 0 -11.654 14.214 -20.729 16.878 -9.163 2.689 -28.97 -2.393 -28.97 -2.393 z"/></clipPath><clipPath><use transform="matrix(3.56167 0 0 3.56167 -380.19 -41.771)" xlink:href="#1"/></clipPath><clipPath><path d="m 213.27 114.19 c 0.152 0.609 3.065 7.7 4.287 10.663 0.33 1.348 1.151 1.716 2.249 2.472 l 5.191 3.576 c 1.884 0.973 1.823 1.627 1.036 3.23 -1.748 2.473 -6.276 2.808 -11.222 2.82 -2.287 0.254 -2.921 -0.245 -4.489 -1.874 l -17.649 -13.562 z"/></clipPath><clipPath><use xlink:href="#2" transform="matrix(3.56167 0 0 3.56167 -380.19 -41.771)"/></clipPath><clipPath><path d="m 385.18 222.99 l 85.66 -27.13 c 0.76 18.658 -1.349 37.624 -5.147 54.59 -7.401 33.06 -61.707 84.7 -61.707 84.7 0 0 -1.662 -37.89 -4.781 -56.55 -3.152 -18.856 -14.02 -55.614 -14.02 -55.614 z"/></clipPath><linearGradient id="0" y1="1.37" x2="0" y2="-5.934" gradientUnits="userSpaceOnUse"><stop style="stop-color:#0976da"/><stop offset="1" style="stop-color:#5de5f0"/></linearGradient></defs><g transform="translate(-3.162 -795.67)"><path d="m 181.09 803.65 c -358.18 -69.03 -90.96 470.27 65.45 139.31 14.568 -62.823 5.723 -115.39 -65.45 -139.31 z" style="fill:#94db4d;color:#000"/><g transform="matrix(-0.3542 0 0 0.36533 222.17 819.52)"><path d="m 222.07 93.61 c 0 25.765 -20.886 46.651 -46.651 46.651 -25.765 0 -46.651 -20.886 -46.651 -46.651 0 -25.765 20.886 -46.651 46.651 -46.651 25.765 0 46.651 20.886 46.651 46.651 z" transform="matrix(4.25438 0 0 4.25438 -461.55 -147.82)" style="fill:#50b2f6;fill-rule:evenodd"/><path d="m 186.95 137.91 l -2.724 39.469 l 9.537 12.06 l 2.724 9.867 l -2.724 9.867 l 9.537 1.098 l 6.812 12.06 l -8.173 8.224 l 5.448 8.224 l 2.042 5.483 l 11.598 8.77 l 2.724 9.867 l 0.331 14.03 l -2.89 16.28 l -1.757 14.01 l 14.03 6.847 l -7.198 -7.38 l -1.229 -7.275 l 2.165 -6.977 l 4.578 -6.202 l 4.816 13.179 l 0.963 10.853 l 10.596 17.06 l 13.486 3.876 l 9.633 4.651 l 14.449 2.326 l 3.406 6.959 l -10.296 3.371 l -17.709 11.576 l -10.138 16.848 l -13.625 17.542 l -17.709 20.832 c 0 0 -20.245 9.16 -1.364 20.832 22.818 14.11 79.12 9.471 84.57 11.664 5.448 2.192 84.35 -23.723 84.35 -23.723 l -36.782 -46.05 l -21.03 -7.852 l -14.203 -17.558 l -9.718 -8.577 l -9.537 -18.637 l 8.674 -8.804 l -10.878 -4.611 l -10.496 1.436 l 4.524 11.207 l -10.897 -6.903 l -2.724 -4.385 v -13.157 l 4.088 -13.157 l 12.261 -14.252 l 45.618 -2.257 l 13.02 -9.449 l -8.627 -7.982 l -2.493 -11.25 l -15.528 -6.509 l -4.743 -8.599 l 19.582 4.853 l 21.289 -2.661 l -5.448 -19.735 l 5.448 -18.637 l 8.173 -16.444 c 0 0 2.724 -21.924 8.173 -25.22 5.448 -3.29 14.985 -71.26 14.985 -71.26 0 0 -32.666 -16.969 -66.17 -24.15 -26.33 -5.642 -63.47 -8.316 -100.41 1.022 -63.746 25.22 -57.85 42.06 -57.85 42.06 z" style="clip-path:url(#0);fill:#ffffe7"/><g style="fill-rule:evenodd"><path d="m 455.38 420.08 c 0 52.33 -42.42 94.75 -94.75 94.75 -52.33 0 -94.75 -42.42 -94.75 -94.75 0 -52.33 42.42 -94.75 94.75 -94.75 52.33 0 94.75 42.42 94.75 94.75 z" transform="matrix(1.12896 0 0 1.12896 -260.77 -109.02)" style="fill:#9acd32"/><path d="m 129.86,319.75 c -7.286,0 -13.144,5.872 -13.144,13.158 v 38.86 H 94.072 c -2.735,0 -5.413,1.633 -6.661,4.068 -1.248,2.434 -1.01,5.559 0.587,7.78 l 52.29,54.26 c 1.379,1.918 3.711,3.112 6.074,3.112 2.362,0 4.695,-1.194 6.074,-3.112 l 52.29,-54.26 c 1.596,-2.221 1.835,-5.346 0.587,-7.78 -1.248,-2.434 -3.926,-4.067 -6.661,-4.068 h -22.644 v -38.86 c 0,-7.286 -5.859,-13.158 -13.144,-13.158 z" style="fill:#1d9cf3;color:#000"/></g></g></g></svg>