<svg xmlns="http://www.w3.org/2000/svg" viewBox="0 0 256 256"><g transform="translate(0 -796.36)"><path d="m 23.93 1001.41 c -75.07 -93.1 40.957 -226.49 148.29 -202.13 115.57 27.07 106.03 194.65 5.404 236.01 -50.08 28.811 -126.76 23.449 -153.69 -33.886 z" fill="#87ceeb" color="#000"/><g transform="matrix(5.10223 0 0 5.0103 6.793 -4228.78)"><path d="m 29.448 1017.09 c -2.773 -0.201 -4.95 2.301 -5.571 4.802 -0.33 1.429 -1.392 2.971 -3.03 2.825 -1.85 0 -3.812 -1.096 -5.567 -0.051 -2.944 1.342 -4.33 5.562 -2.287 8.211 1.562 2.202 4.868 3.144 7.235 1.699 1.71 -0.211 3.218 1.22 3.78 2.723 0.378 1.305 0.522 2.873 1.755 3.696 2.401 2.192 6.829 1.73 8.418 -1.22 1.463 -2.408 0.836 -5.861 -1.509 -7.483 -1.647 -1.322 -3.903 -0.917 -5.796 -0.495 -1.331 0.131 -2.875 -0.364 -3.494 -1.636 -0.238 -1.797 1.924 -3.01 3.494 -2.509 1.776 0.455 3.869 0.922 5.471 -0.275 2.593 -1.609 3.61 -5.578 1.578 -8.01 -1.04 -1.378 -2.72 -2.337 -4.475 -2.271 z" opacity="0.2"/><path d="m 28.425 1015.71 c -2.773 -0.201 -4.95 2.301 -5.571 4.802 -0.33 1.429 -1.392 2.971 -3.03 2.825 -1.85 0 -3.812 -1.096 -5.567 -0.051 -2.944 1.342 -4.33 5.562 -2.287 8.211 1.562 2.202 4.868 3.144 7.235 1.699 1.71 -0.211 3.218 1.22 3.78 2.723 0.378 1.305 0.522 2.873 1.755 3.696 2.401 2.192 6.829 1.73 8.418 -1.22 1.463 -2.408 0.836 -5.861 -1.509 -7.483 -1.647 -1.322 -3.903 -0.917 -5.796 -0.495 -1.331 0.131 -2.875 -0.364 -3.494 -1.636 -0.238 -1.797 1.924 -3.01 3.494 -2.509 1.776 0.455 3.869 0.922 5.471 -0.275 2.593 -1.609 3.61 -5.578 1.578 -8.01 -1.04 -1.378 -2.72 -2.337 -4.475 -2.271 z" fill="#fff"/></g></g></svg>