<svg xmlns="http://www.w3.org/2000/svg" viewBox="0 0 256 256"><path d="m 125.73 798.56 c -111.92 -22.351 -154.42 130.95 -105.92 214.2 38.644 66.33 171.02 47.37 220.37 -42.17 49.35 -89.54 -24.617 -154.09 -114.45 -172.03 z" transform="translate(0 -796.36)" style="fill:#ffc0cb;color:#000"/><g transform="matrix(1.264471 0 0 1.3032631 -37.778371 -42.776746)"><path d="M 94.266762,181.75 C 91.592104,178.73667 87.29273,171.58576 80.889297,159.5 70.291492,139.49784 64.915253,128.68496 64.915253,127.37245 c 0,-3.85919 6.993141,-8.14806 43.832257,-26.88219 21.08274,-10.721394 39.37177,-19.754348 40.64229,-20.073229 3.80729,-0.955568 7.50368,1.774331 23.39979,17.281501 L 187.9623,112.5 l -0.0235,4.78872 c -0.0204,4.15405 -0.52054,5.30855 -3.77353,8.71089 -3.21394,3.36149 -36.31483,27.39247 -67.26635,48.83484 -13.89006,9.62264 -18.876793,11.14641 -22.632138,6.91555 z" style="fill:#b290c2"/><path d="m 93.492716,179.69045 c -4.342269,-5.69301 -27.49131,-49.38869 -27.542241,-51.9882 -0.06755,-3.44793 5.62878,-7.05934 29.838292,-18.91712 17.403523,-8.52421 24.681353,-11.630263 25.450003,-10.861616 1.63056,1.630561 2.50366,1.303136 2.85693,-1.071386 0.17576,-1.18133 0.99455,-2.461389 1.81955,-2.844574 0.825,-0.383186 2.5064,-1.216644 3.73643,-1.852128 C 130.88172,91.519942 132.37636,91 132.97311,91 c 0.59675,0 1.75354,-0.668543 2.57065,-1.485652 1.3142,-1.314203 1.77422,-1.296575 3.98618,0.152754 1.37529,0.901124 3.38716,3.376354 4.47082,5.500512 C 145.75081,98.597979 155.07669,109 156.40213,109 c 0.76612,0 0.48606,-5.20937 -0.40234,-7.48403 -0.42619,-1.09122 -0.56708,-2.778719 -0.31309,-3.750002 0.53774,-2.056308 3.22855,-2.407151 3.22855,-0.420956 0,0.739757 0.94293,2.198348 2.09539,3.241308 2.0631,1.86709 2.1231,1.86208 3.89412,-0.32504 1.56005,-1.926579 1.96174,-2.02495 3.02706,-0.741314 0.67558,0.814024 1.85936,1.480034 2.63063,1.480034 0.77126,0 1.83003,1.125 2.3528,2.5 0.63395,1.66742 1.71716,2.5 3.25256,2.5 2.46276,0 7.74744,5.21004 7.74744,7.63801 0,0.7878 -0.73421,2.5529 -1.63157,3.92244 -1.62508,2.48019 -1.6211,2.48611 1,1.48957 2.38718,-0.9076 2.63157,-0.77854 2.63157,1.38974 0,2.89119 -5.24153,7.6947 -19.43181,17.80792 -5.5375,3.94651 -14.11819,10.16268 -19.06819,13.81372 -14.03221,10.34993 -38.76377,27.50652 -42.24978,29.30921 -5.12824,2.65191 -8.768134,2.12799 -11.672754,-1.68016 z" style="fill:#aa88b5"/><path d="m 95.714922,181.75 c -2.02921,-1.60276 -6.091025,-8.14295 -11.334254,-18.25 -2.282584,-4.4 -7.146087,-13.66805 -10.807784,-20.59567 -3.661697,-6.92761 -6.657631,-13.76721 -6.657631,-15.19911 0,-1.76412 1.051832,-3.40571 3.262645,-5.09198 C 73.447383,120.11948 94.253548,110 96.111353,110 c 0.543643,0 2.120013,-0.89009 3.503044,-1.97799 1.873823,-1.47394 2.978563,-1.72968 4.335283,-1.00358 2.42798,1.29941 4.45283,0.40233 5.80868,-2.57344 1.69023,-3.70965 3.80138,-2.94277 5.71856,2.0773 0.94989,2.48727 1.84806,4.39977 1.99593,4.25 0.14786,-0.14976 -0.0966,-2.26651 -0.54331,-4.70388 -1.47542,-8.050763 1.63102,-9.850907 4.86361,-2.81841 1.45444,3.16411 1.97511,3.6902 2.03784,2.05902 0.11683,-3.03781 1.94096,-3.8741 3.61899,-1.65916 0.77092,1.01758 1.41598,1.34274 1.43347,0.72259 0.0175,-0.62016 -0.66618,-1.70683 -1.51926,-2.41483 -1.94418,-1.61353 -1.56868,-7.45762 0.47918,-7.45762 0.78546,0 2.58239,2.25 3.99318,5 2.40664,4.69118 2.58503,4.83015 2.88831,2.25 0.17778,-1.5125 0.72751,-2.75 1.22163,-2.75 1.2454,0 2.96876,3.44484 2.96876,5.93426 0,2.3562 -0.98151,2.62457 -2.98344,0.81574 -1.0055,-0.9085 -0.96417,-0.56701 0.15127,1.25 3.71408,6.05008 8.99662,21.47838 8.63879,25.23063 -0.27686,2.90318 -0.039,3.68878 0.99665,3.29137 0.74817,-0.2871 1.5485,-0.522 1.77852,-0.522 0.9737,0 0.23934,-3.45974 -2.58179,-12.16341 C 141.46718,112.19868 141.24204,110 143.6008,110 c 0.92705,0 2.70416,-0.95693 3.94912,-2.12651 1.28139,-1.20381 2.93651,-1.86829 3.81445,-1.53139 2.34499,0.89986 1.85958,4.26141 -0.91327,6.32449 l -2.46415,1.83341 3.62152,7.25 c 1.99183,3.9875 4.24153,7.25 4.99933,7.25 0.7578,0 2.50103,-0.73596 3.87384,-1.63546 1.37282,-0.8995 2.74344,-1.38804 3.04584,-1.08564 1.04632,1.04631 -1.58041,4.50823 -6.62571,8.73239 -2.78662,2.33309 -4.8691,4.43946 -4.62774,4.68082 0.65039,0.65039 11.77631,-5.14388 21.89139,-11.40081 4.88452,-3.02144 9.07891,-5.29555 9.32088,-5.05358 0.52747,0.52746 -6.62052,6.50172 -15.57105,13.01422 -3.575,2.60121 -13.7,10.06433 -22.5,16.58472 -8.8,6.52038 -17.8,13.03385 -20,14.47437 -2.2,1.44052 -6.82671,4.65795 -10.28157,7.14984 -11.11505,8.01693 -16.119157,9.8953 -19.418758,7.28913 z m 36.595318,-67.59653 c -2.46753,-7.52904 -2.90537,-8.26793 -3.36962,-5.68643 -0.35274,1.96139 0.23042,4.47614 1.72052,7.41948 1.23976,2.44884 2.25411,5.20117 2.25411,6.11629 0,2.09575 1.32902,3.51013 1.84468,1.96316 0.21249,-0.63747 -0.88987,-5.05309 -2.44969,-9.8125 z m -10.93769,5.91563 c 0.31643,-0.512 0.11799,-1.21355 -0.44098,-1.55902 -0.55898,-0.34546 -1.01632,0.0734 -1.01632,0.9309 0,1.75653 0.60006,2.01516 1.4573,0.62812 z m 31.97468,2.61424 c -0.27788,-0.72416 -0.60126,-2.63666 -0.71861,-4.25 -0.18236,-2.50703 0.144,-2.93334 2.24564,-2.93334 1.96157,0 2.59093,0.64507 3.11118,3.18881 0.67046,3.27815 -0.40194,5.31119 -2.80157,5.31119 -0.73226,0 -1.55875,-0.59249 -1.83664,-1.31666 z M 139.40264,98.37557 c -3.05697,-6.91236 -3.1399,-8.358966 -0.43868,-7.652581 2.34223,0.612506 7.37326,9.735001 6.55082,11.878241 -1.15421,3.00783 -3.68779,1.25622 -6.11214,-4.22566 z" style="fill:#9b76a5"/><path d="m 94.166177,179.48825 c -4.41938,-5.36148 -27.250924,-48.90564 -27.250924,-51.97277 0,-2.6709 8.744684,-8.00807 16.118919,-9.83792 3.197223,-0.79337 8.485566,3.31795 6.640779,5.16274 -0.776353,0.77636 0.588612,1.01195 4.829018,0.83351 l 5.911281,-0.24875 0,-7.36531 c 0,-8.39558 1.63199,-10.38145 3.95752,-4.81566 2.43374,5.82476 3.0032,13.12866 1.1439,14.67174 -2.0027,1.6621 -2.07082,6.0813 -0.13322,8.64304 1.37518,1.81815 1.47021,1.70156 1.5,-1.84026 0.0405,-4.81054 2.49912,-6.07446 5.10577,-2.6247 1.37841,1.82425 2.09903,2.12608 2.97998,1.24815 1.20555,-1.20141 -0.19269,-7.425 -2.25276,-10.02705 -0.51599,-0.65174 -1.15278,-4.81424 -1.41508,-9.25 C 110.92024,105.62003 111.10347,104 112.21355,104 c 1.48079,0 2.76885,3.68485 9.8994,28.32 4.06216,14.03426 4.40922,14.78978 6.54595,14.25 1.24099,-0.3135 3.38135,-0.84746 4.75635,-1.18658 3.48743,-0.8601 3.12251,0.66181 -1.25,5.21318 -3.44814,3.58919 -3.57946,3.92774 -1.6314,4.20573 1.16522,0.16628 6.01474,-1.4977 10.77671,-3.69773 4.76197,-2.20004 8.39208,-3.56959 8.06691,-3.04346 -1.90545,3.08307 -40.48093,31.21308 -45.91967,33.48553 -5.008755,2.09279 -6.062211,1.85941 -9.291623,-2.05842 z M 120.36845,147.6548 c -0.70706,-3.35987 -2.05836,-5.38298 -2.97992,-4.46141 -0.86043,0.86043 1.85097,8.72425 2.80482,8.13474 0.46145,-0.28519 0.54024,-1.93819 0.1751,-3.67333 z m -11.4532,-4.21382 c 0,-0.85746 -0.45734,-1.27636 -1.01631,-0.9309 -0.55897,0.34546 -0.75741,1.04702 -0.44098,1.55902 0.85724,1.38704 1.45729,1.12841 1.45729,-0.62812 z m 26.42572,-1.91401 c -0.79957,-1.22029 -2.48161,-2.68704 -3.73786,-3.25942 -1.7879,-0.81462 -2.58657,-2.49017 -3.67644,-7.71282 -0.76578,-3.66967 -1.75663,-6.89726 -2.20188,-7.17244 -0.44524,-0.27518 -0.80954,-1.43466 -0.80954,-2.57664 0,-1.14197 -1.09417,-3.09036 -2.4315,-4.32975 -2.78637,-2.58232 -4.84746,-9.14531 -4.33324,-13.79806 0.33716,-3.050767 0.47406,-2.917923 3.42361,3.32216 1.897,4.01331 3.95984,6.88257 5.39208,7.5 1.27582,0.55 2.7315,2.35 3.23485,4 1.6906,5.54187 5.8902,15.97917 7.36111,18.29463 0.80173,1.26205 2.60807,2.73201 4.01408,3.26658 2.01976,0.76791 2.31725,1.26009 1.41716,2.34462 -2.07594,2.50136 -6.05162,2.56429 -7.65243,0.12114 z m 3.96684,-9.94636 c -0.29957,-0.78066 -1.83225,-5.39316 -3.40596,-10.25 -5.00218,-15.43785 -6.25774,-18.79266 -7.63838,-20.40935 -1.66927,-1.95469 -1.77583,-5.230466 -0.15254,-4.689369 2.509,0.836335 15.80432,30.411569 15.80432,35.156479 0,2.01021 -3.84821,2.17077 -4.60744,0.19224 z m 9.06175,-2.33061 c -1.96715,-4.69105 -3.76077,-12.84432 -3.19001,-14.50086 0.48743,-1.4147 8.7357,14.38053 8.7357,16.72866 0,3.18404 -3.94,1.60127 -5.54569,-2.2278 z m 6.21236,-7.91667 c -0.36667,-0.36666 -0.66667,-1.75416 -0.66667,-3.08333 0,-3.2881 2.40871,-2.36691 2.81642,1.07712 0.30013,2.53523 -0.69347,3.46249 -2.14975,2.00621 z m -6.67683,-12.31434 c 1.23178,-2.30161 3.51016,-2.25985 3.51016,0.0643 0,0.77917 -1.04754,1.56506 -2.32786,1.74643 -2.09517,0.29679 -2.21336,0.11577 -1.1823,-1.81077 z m -22.40639,-1.66212 c -0.34679,-0.90372 -0.42487,-1.84878 -0.17352,-2.10013 0.79474,-0.79474 2.59007,0.80111 2.59007,2.30228 0,1.96152 -1.63888,1.82443 -2.41655,-0.20215 z m 16.76185,-6.04349 c -0.35231,-0.99736 -1.22617,-3.27588 -1.94191,-5.06338 -1.94271,-4.851783 -0.12908,-3.923393 2.3653,1.210789 1.29145,2.658191 1.77322,4.704301 1.1922,5.063381 -0.53626,0.33143 -1.26327,-0.21343 -1.61559,-1.21079 z" style="fill:#916a93"/><path d="m 93.942282,179.03796 c -4.923641,-6.91462 -26.027029,-47.99671 -26.027029,-50.66697 0,-1.71538 1.993074,-1.2971 8.5,1.78388 2.848742,1.34886 4.539003,3.06253 5.872744,5.95409 1.311267,2.84283 2.360619,3.9214 3.5,3.59748 4.247102,-1.20745 4.590734,-1.13461 4.923066,1.04356 0.342193,2.24279 3.20419,3.25517 3.20419,1.13342 0,-0.65179 1.040651,-0.91764 2.5,-0.63867 2.393063,0.45746 2.5,0.26715 2.5,-4.44916 0,-2.70989 0.507957,-5.8762 1.128797,-7.03624 1.05012,-1.96218 1.25044,-1.78869 2.87439,2.48945 0.96009,2.52925 2.05166,6.32046 2.42572,8.42491 0.89836,5.05418 3.58241,12.48622 5.12131,14.18071 0.95667,1.0534 2.25457,1.1359 5.83992,0.37123 3.55533,-0.75828 4.60986,-0.6958 4.60986,0.27313 0,0.69098 -0.62637,1.77617 -1.39193,2.41153 -0.76557,0.63537 -1.63949,2.10185 -1.94205,3.25885 -0.52612,2.0119 -0.29097,2.07655 5.39193,1.48257 3.26813,-0.34159 5.94205,-0.42739 5.94205,-0.19068 0,0.23672 -3.7125,3.32348 -8.25,6.85947 -17.31192,13.49087 -22.653059,15.4331 -26.722968,9.71744 z m 27.972968,-29.38902 c 0,-2.93556 -3.71059,-11.63191 -5.96548,-13.98104 -0.4393,-0.45766 -1.77918,-0.23266 -2.97752,0.5 -1.90615,1.1654 -2.35889,1.08918 -3.6179,-0.60903 C 107.43268,132.96682 107.48449,129 109.44,129 c 0.83862,0 1.95248,1.125 2.47525,2.5 1.12193,2.95089 2.55329,3.2032 3.8997,0.68743 0.67813,-1.26711 0.38199,-4.05079 -0.98406,-9.25 -2.42142,-9.21602 -3.60375,-18.48074 -2.2518,-17.64519 1.01274,0.62591 2.99448,6.5476 5.92604,17.70776 4.20008,15.98933 6.45851,23.66654 7.59409,25.81504 1.0021,1.89595 0.96043,2.48151 -0.23018,3.23468 -2.76094,1.74654 -3.95379,1.02223 -3.95379,-2.40078 z m -9.9565,-0.56766 C 110.80938,146.93365 111.5268,142 112.98848,142 c 1.36336,0 3.0818,3.90362 2.73956,6.22326 -0.42586,2.88652 -2.43848,3.34466 -3.76929,0.85802 z m 22.09805,-10.43524 c -2.31561,-2.3891 -3.66658,-5.1363 -4.69613,-9.54958 -1.68875,-7.23906 -3.51874,-11.07887 -6.88365,-14.44378 -1.33607,-1.33607 -2.72959,-4.03035 -3.09672,-5.98728 -1.1415,-6.08476 0.0522,-6.28249 2.43817,-0.40386 1.64026,4.04135 2.87816,5.71018 4.39951,5.93108 2.03403,0.29533 4.1922,4.86706 7.76027,16.43888 0.53107,1.72233 2.08415,4.77982 3.45129,6.79441 2.86174,4.21702 2.954,4.57409 1.18188,4.57409 -0.71711,0 -2.76669,-1.50928 -4.55462,-3.35396 z m 5.91723,-7.53622 c -0.57287,-1.0704 -1.69999,-4.34551 -2.50471,-7.27801 -0.80473,-2.93249 -2.6086,-8.38978 -4.00861,-12.1273 -3.28991,-8.78293 -3.22183,-10.18088 0.22647,-4.65029 2.93568,4.70841 9.22807,20.55315 9.22807,23.23701 0,2.47809 -1.78692,2.97542 -2.94122,0.81859 z m 8.50417,-3.58417 c -0.93983,-2.46089 -1.55746,-5.49839 -1.37252,-6.75 0.26974,-1.82554 0.87755,-1.15057 3.07291,3.41242 3.0854,6.41293 3.3312,7.81193 1.37252,7.81193 -0.75028,0 -2.13309,-2.01346 -3.07291,-4.47435 z m -46.14082,-9.51122 c -0.74808,-6.61213 -0.73615,-6.90508 0.29583,-7.26443 0.91065,-0.31709 3.10367,6.86711 3.20519,10.5 0.0495,1.77126 -0.43933,2.75 -1.37349,2.75 -1.03016,0 -1.64653,-1.73409 -2.12753,-5.98557 z M 154.55363,119.5 c -0.31659,-0.825 -0.13973,-1.5 0.39301,-1.5 0.53274,0 0.96861,0.675 0.96861,1.5 0,0.825 -0.17685,1.5 -0.39301,1.5 -0.21615,0 -0.65203,-0.675 -0.96861,-1.5 z m -25.59042,-18.94221 c -0.68037,-0.819801 -1.04489,-2.066977 -0.81005,-2.771505 0.27017,-0.810522 0.88553,-0.424163 1.67556,1.052025 1.47008,2.74687 0.91023,3.85911 -0.86551,1.71948 z" style="fill:#8c5986"/><path d="m 92.432035,176.45878 c -4.228963,-6.61093 -23.523193,-44.24643 -23.501905,-45.84303 0.0082,-0.61366 1.470682,0.57329 3.25,2.63768 4.340456,5.03585 9.613611,8.74657 12.429403,8.74657 1.291775,0 2.30572,0.60578 2.30572,1.37755 0,0.75766 0.646075,1.91375 1.435721,2.5691 0.789647,0.65535 1.730637,2.53429 2.09109,4.17542 0.79402,3.61515 3.049179,3.22542 2.784925,-0.48128 C 93.123444,148.18835 93.160158,147 93.308575,147 c 0.148417,0 1.727799,2.25 3.509738,5 1.781939,2.75 3.715867,5 4.297627,5 1.02111,0 0.79177,-5.33668 -0.8542,-19.87703 -0.98173,-8.67257 1.74896,-5.94891 4.46925,4.45774 3.37614,12.91567 4.09621,14.10012 9.68426,15.92986 1.8434,0.6036 1.73514,0.8781 -1.38252,3.50561 -5.88161,4.95693 -1.65846,7.64655 7.88912,5.02439 l 3.4934,-0.95944 -4.77041,4.39033 C 111.91419,176.58616 103.13661,182 99.332029,182 c -2.97695,0 -3.75504,-0.62487 -6.899994,-5.54122 z M 112.41525,148 c -0.8155,-1.31952 0.38021,-3.19207 1.5691,-2.4573 1.21462,0.75068 1.20672,3.4573 -0.0101,3.4573 -0.51754,0 -1.2191,-0.45 -1.55902,-1 z m 9.5,-4.04049 c 0,-0.57227 -0.88461,-2.25977 -1.9658,-3.75 -1.24639,-1.71794 -2.53202,-6.3691 -3.51305,-12.70951 -0.85098,-5.5 -1.79375,-11.35 -2.09503,-13 -0.45038,-2.46661 -0.35083,-2.68975 0.55992,-1.25504 0.60924,0.95973 1.27003,3.02756 1.46842,4.59519 0.1984,1.56762 1.47632,6.40738 2.83984,10.75503 2.65948,8.4799 4.25057,16.40482 3.2936,16.40482 -0.32334,0 -0.5879,-0.46822 -0.5879,-1.04049 z m 12.1174,-6.53739 c -2.26131,-2.8748 -4.51002,-9.81301 -3.80707,-11.74645 0.2351,-0.64662 0.98161,0.17433 1.65892,1.82433 0.67731,1.65 2.10689,4.96691 3.17686,7.37092 2.31522,5.20185 1.88857,6.25992 -1.02871,2.5512 z m -25.08492,-4.36143 c -0.73319,-1.36998 -0.7107,-2.14153 0.0766,-2.62812 1.17563,-0.72658 2.84971,1.20472 2.87559,3.31743 0.0234,1.91052 -1.78706,1.48779 -2.95221,-0.68931 z m 30.89289,-3.75052 c -0.58899,-1.54559 -1.33339,-4.11764 -1.65423,-5.71566 -0.88698,-4.41789 1.27114,-2.38609 3.06851,2.88889 1.67437,4.91403 0.37262,7.51588 -1.41428,2.82677 z m 10.10261,-0.73658 c -1.48596,-3.90837 -1.19186,-4.52375 0.59032,-1.23518 0.84602,1.56112 1.29059,3.08603 0.98794,3.38869 -0.30265,0.30265 -1.01287,-0.66643 -1.57826,-2.15351 z M 104.07315,121 c 0,-1.375 0.22697,-1.9375 0.50438,-1.25 0.27742,0.6875 0.27742,1.8125 0,2.5 -0.27741,0.6875 -0.50438,0.125 -0.50438,-1.25 z m 22.96734,-2.83565 c -1.40297,-2.54557 -0.74508,-4.1842 0.98521,-2.4539 0.59241,0.59241 0.90273,1.91241 0.68959,2.93333 -0.34778,1.66581 -0.51958,1.61663 -1.6748,-0.47943 z m 8.24411,-3.77122 c -0.37275,-1.04122 -0.8599,-2.23063 -1.08256,-2.64313 -0.22265,-0.4125 0.0192,-0.75 0.53756,-0.75 0.99747,0 2.40268,4.1063 1.65953,4.84946 -0.24024,0.24024 -0.74178,-0.41511 -1.11453,-1.45633 z" style="fill:#855478"/><path d="m 95.204208 180.07242 c -2.092211 -2.25434 -20.585105 -37.1096 -19.999605 -37.6951 0.218068 -0.21807 2.374873 2.08282 4.792899 5.11309 2.418025 3.03028 4.893967 5.50959 5.502093 5.50959 1.602765 0 4.415658 3.3807 4.415658 5.307 0 2.22796 10.532747 12.63415 14.017287 13.84887 1.88423 0.65685 4.15419 0.60577 6.98771 -0.15722 2.30829 -0.62155 4.38791 -0.93908 4.62138 -0.70561 0.48605 0.48605 -9.02548 7.88905 -12.31064 9.5816 -3.21291 1.65534 -6.004942 1.37629 -8.026782 -0.80222 z m 10.824332 -21.98124 c -1.46577 -0.92827 -4.08461 -12.5181 -3.9749 -17.59118 0.045 -2.07867 0.94607 -0.27005 2.93419 5.88915 1.57812 4.88903 3.62713 9.72653 4.55335 10.75 1.58613 1.75265 1.57328 1.85996 -0.22094 1.84554 -1.04774 -0.008 -2.52901 -0.41051 -3.2917 -0.89352 z m 13.045 -21.9572 c -1.39893 -4.6692 -1.45945 -5.84422 -0.2361 -4.58398 0.98357 1.01324 2.60945 8.45 1.84739 8.45 -0.24915 0 -0.97423 -1.73971 -1.61129 -3.86602 z m -9.57534 -2.99977 c -0.43077 -0.697 -0.51316 -1.53733 -0.18308 -1.86741 0.89496 -0.89496 1.87077 0.4213 1.38738 1.87145 -0.33872 1.01617 -0.57426 1.01538 -1.2043 -0.004 z" style="fill:#794b68"/></g></svg>