<?xml version="1.0" encoding="UTF-8" standalone="no"?>
<!-- Created with Inkscape (http://www.inkscape.org/) -->
<svg id="svg4248" xmlns:rdf="http://www.w3.org/1999/02/22-rdf-syntax-ns#" xmlns="http://www.w3.org/2000/svg" height="32" width="32" version="1.1" xmlns:cc="http://creativecommons.org/ns#" xmlns:xlink="http://www.w3.org/1999/xlink" xmlns:dc="http://purl.org/dc/elements/1.1/">
 <defs id="defs4250">
  <radialGradient id="radialGradient3805" gradientUnits="userSpaceOnUse" cy="8.4498" cx="11.105" gradientTransform="matrix(0 1.3257 -1.25 -1.4755e-8 26.562 -6.7226)" r="20">
   <stop id="stop3840" style="stop-color:#32a5dc" offset="0"/>
   <stop id="stop3843" style="stop-color:#248ec3" offset=".35666"/>
   <stop id="stop3845" style="stop-color:#1f5271" offset="0.74"/>
   <stop id="stop3847" style="stop-color:#020509" offset="1"/>
  </radialGradient>
  <radialGradient id="radialGradient3755" gradientUnits="userSpaceOnUse" cy="38.909" cx="24.85" gradientTransform="matrix(1 0 0 .37 0 24.512)" r="20.203">
   <stop id="stop26115-7-7-9" offset="0"/>
   <stop id="stop26117-3-7-8" style="stop-opacity:0" offset="1"/>
  </radialGradient>
  <radialGradient id="radialGradient3972" gradientUnits="userSpaceOnUse" cx="24.85" cy="38.909" r="20.203" gradientTransform="matrix(1.0085 0 0 .37315 -.21140 24.39)">
   <stop id="stop26123-4-7-8" offset="0"/>
   <stop id="stop26125-3-9-9" style="stop-opacity:0" offset="1"/>
  </radialGradient>
  <linearGradient id="linearGradient3902" y2="16" gradientUnits="userSpaceOnUse" x2="31" gradientTransform="matrix(0 1 1 0 5e-7 -5.0001e-7)" y1="16" x1="1">
   <stop id="stop3842" style="stop-color:#1e7488" offset="0"/>
   <stop id="stop3844" style="stop-color:#1e5976" offset=".5"/>
   <stop id="stop3846" style="stop-color:#122937" offset=".75"/>
   <stop id="stop3848" style="stop-color:#020509" offset="1"/>
  </linearGradient>
  <radialGradient id="radialGradient3820" gradientUnits="userSpaceOnUse" cy="13.948" cx="24" gradientTransform="matrix(-1.2312 -6.9585e-8 7.7307e-8 -1.3679 45.517 26.156)" r="19.326">
   <stop id="stop3816-8" style="stop-color:#fff" offset="0"/>
   <stop id="stop3833" style="stop-color:#f7f7f7" offset=".25"/>
   <stop id="stop3831" style="stop-color:#e8e8e8" offset=".5"/>
   <stop id="stop3818" style="stop-color:#7d7d7d" offset="1"/>
  </radialGradient>
 </defs>
 <metadata id="metadata4253">
  <rdf:RDF>
   <cc:Work rdf:about="">
    <dc:format>image/svg+xml</dc:format>
    <dc:type rdf:resource="http://purl.org/dc/dcmitype/StillImage"/>
    <dc:title/>
   </cc:Work>
  </rdf:RDF>
 </metadata>
 <g id="layer1">
  <path id="path8606" style="filter:url(#filter5927);enable-background:new;fill:url(#radialGradient3972)" d="m45.053 38.909a20.203 7.4751 0 1 1 -40.406 0 20.203 7.4751 0 1 1 40.406 0z" transform="matrix(.51082 0 0 .46596 3.1705 10.024)"/>
  <path id="path8608" style="opacity:.51837;filter:url(#filter5788);enable-background:new;fill:url(#radialGradient3755)" d="m45.053 38.909a20.203 7.4751 0 1 1 -40.406 0 20.203 7.4751 0 1 1 40.406 0z" transform="matrix(.69053 0 0 .62989 -1.2951 3.2833)"/>
  <path id="path2555-7" d="m16 1.5c-8.0006 0-14.5 6.4994-14.5 14.5 0 8.001 6.4994 14.5 14.5 14.5 8.001 0 14.5-6.499 14.5-14.5 0-8.0006-6.4994-14.5-14.5-14.5z" style="color:#000000;fill:url(#radialGradient3805)"/>
  <path id="path6534" style="color:#bebebe;fill:url(#radialGradient3820)" d="m15.935 1.5c-1.3186 0-2.605 0.18804-3.8192 0.51786 0.03459-0.00828 0.04174 0.030762 0.06473 0.064729 0.10254 0.15163-0.40349 0.2059-0.38839 0.38839 0.04598 0.55496 1.1046 0.47585 1.3594 0.97098 0.08886 0.17276 0.06898 0.40107 0 0.58259-0.09239 0.24288-0.48378 0.32501-0.51786 0.58259-0.0696 0.52614 0.20855 1.2563 0.71205 1.4241 0.18311 0.061108 0.37625-0.12781 0.51786-0.25893 0.27695-0.25646 0.2936-0.72817 0.58259-0.97098 0.6903-0.58 1.826-1.541 2.5246-0.97098 0.10171 0.083064-0.11693 0.26796-0.06473 0.38839 0.06193 0.14272 0.23283 0.2621 0.38839 0.25893 0.29342-0.00622 0.67587-0.22661 0.71205-0.51786 0.02072-0.16716-0.15867-0.35388-0.32366-0.38839-0.18892-0.039564-0.32735 0.28983-0.51786 0.25893-0.03003-0.00414-0.05831-0.035111-0.06473-0.064733-0.148-0.6733 1.003-1.3168 0.713-1.9419-0.107-0.229-0.798-0.0214-0.713-0.259-0.384-0.0305-0.773-0.0647-1.165-0.0647zm1.1652 0.06473c0.41666 0.033105 0.82552 0.127 1.2299 0.1942-0.40948-0.068485-0.80957-0.1608-1.2299-0.1942zm-5.1138 0.51786c-0.53518 0.15089-1.0454 0.30898-1.5536 0.51786 0.13464 0.021958 0.25557 0.16074 0.38839 0.12946 0.14852-0.035007 0.18995-0.25025 0.32366-0.32366 0.17441-0.0957 0.39324-0.068358 0.58259-0.12946 0.07809-0.025275 0.17669-0.13495 0.25893-0.1942zm-1.683 0.58259c-0.38951 0.16475-0.79394 0.32092-1.1652 0.51786 0.05676 0.031072 0.02713 0.13558 0 0.1942-0.0825 0.1806-0.3356 0.2274-0.4525 0.3883-0.1649 0.2269-0.4793 0.5434-0.3237 0.7768 0.11973 0.17959 0.46997 0.12284 0.64732 0 0.15142-0.10502 0.12066-0.34887 0.1942-0.51786-0.01243 0.24569 0.34988 0.37329 0.58259 0.45312 0.16323 0.055928 0.39579 0.12201 0.51786 0 0.12201-0.12201 0.09404-0.37313 0-0.51786-0.11579-0.17814-0.3706-0.27382-0.58259-0.25893-0.1015 0.00622-0.22088 0.010461-0.32366 0.064732 0.18353-0.20549 0.38614-0.40666 0.64732-0.45312 0.22179-0.039357 0.44532 0.094561 0.64732 0.1942 0.42961 0.21203 0.68678 0.86722 1.1652 0.84152 0.29-0.0166 0.703-0.2976 0.647-0.5826-0.048-0.2479-0.53-0.0832-0.712-0.2589-0.167-0.1618-0.074-0.5066-0.259-0.6473-0.311-0.2367-0.904 0.1618-1.165-0.1295-0.0145-0.016572 0-0.043189 0-0.064732-0.01873 0.00783-0.04603-0.00791-0.06473 0zm12.234 0.45312c0.50038 0.2599 1.0223 0.52579 1.4888 0.84152-0.48-0.3245-0.969-0.5754-1.488-0.8415zm0.32366 0.58259c-0.35537-0.018644-0.71193 0.11123-1.0357 0.25893-0.23964 0.10937-0.52569 0.21951-0.64732 0.45312-0.05987 0.11476 0.06193 0.27467 0 0.38839-0.2088 0.38379-0.94012 0.30562-1.1004 0.71205-0.1305 0.33103-0.07747 0.91959 0.25893 1.0357 0.23256 0.080164 0.33781-0.47782 0.58259-0.45312 0.19803 0.020716 0.23504 0.3264 0.38839 0.45312 0.13402 0.11082 0.29062 0.32101 0.45312 0.25893 0.25495-0.097358 0.253-0.50392 0.25893-0.77679 0.0042-0.15701-0.13754-0.29624-0.12946-0.45312 0.0062-0.116 0.06298-0.22838 0.12946-0.32366 0.16613-0.23807 0.3763-0.47858 0.64732-0.58259 0.08058-0.030864 0.21054-0.071464 0.25893 0 0.13029 0.19244-0.21497 0.41911-0.25893 0.64732-0.03667 0.19078-0.14811 0.45706 0 0.58259 0.20031 0.16965 0.67531-0.37155 0.77679-0.12946 0.11351 0.27065-0.55376 0.27072-0.71205 0.51786-0.05924 0.092593-0.0084 0.22889-0.06473 0.32366-0.18664 0.31649-0.4844 0.62553-0.84152 0.71205-0.27979 0.067734-0.6623 0.030971-0.84152-0.1942-0.10751-0.13506 0.15225-0.43641 0-0.51786-0.13713-0.073325-0.34406 0.10979-0.38839 0.25893-0.04682 0.15743 0.28476 0.31593 0.1942 0.45312-0.11869 0.18021-0.46135-0.10937-0.64732 0-0.1914 0.11269-0.19679 0.40022-0.32366 0.58259-0.11372 0.16323-0.21514 0.35537-0.38839 0.45312-0.22862 0.12905-0.69668-0.12056-0.77679 0.12946-0.06525 0.20341 0.34481 0.26902 0.45312 0.45313 0.07975 0.13547 0.22407 0.32772 0.12946 0.45312-0.11704 0.15494-0.39442-0.048058-0.58259 0-0.26197 0.0667-0.57403 0.15598-0.71205 0.38839-0.19824 0.33398-0.27463 0.89055 0 1.1652 0.07623 0.07623 0.22398-0.04122 0.32366 0 0.14086 0.05842 0.17359 0.29644 0.32366 0.32366 0.25655 0.04661 0.53501-0.13236 0.71205-0.32366 0.17152-0.18539 0.10005-0.51574 0.25893-0.71205 0.12802-0.15826 0.39817-0.15909 0.51786-0.32366 0.0522-0.07188 0.0013-0.19658 0.06473-0.25893 0.20548-0.20176 0.56759-0.28283 0.84152-0.1942 0.21827 0.070425 0.27161 0.37762 0.45312 0.51786 0.15266 0.11807 0.46081 0.07457 0.51786 0.25893 0.06567 0.21224-0.46178 0.40859-0.32366 0.58259 0.09756 0.12304 0.33456-0.02652 0.45312-0.12946 0.16033-0.13941 0.29222-0.37269 0.25893-0.58259-0.04557-0.28671-0.7007-0.38214-0.58259-0.64732 0.03501-0.078921 0.17814-0.03045 0.25893 0 0.2147 0.080579 0.40296 0.2546 0.51786 0.45312 0.1102 0.19036 0.03791 0.44724 0.12946 0.64732 0.10233 0.22369 0.21501 0.64446 0.45312 0.58259 0.27469-0.07126-0.0377-0.61217 0.12946-0.84152 0.05676-0.07789 0.16509-0.15204 0.25893-0.12946 0.39013 0.09425 0.36074 0.77691 0.71205 0.97098 0.2651 0.14645 0.62132-0.0378 0.90625 0.06473 0.17462 0.06297 0.41532 0.14189 0.45312 0.32366 0.02568 0.12325-0.11362 0.22713-0.1942 0.32366-0.14707 0.17607-0.30315 0.37244-0.51786 0.45312-0.22218 0.08348-0.47778 0.03791-0.71205 0-0.33677-0.05468-0.63118-0.29302-0.97098-0.32366-0.15204-0.0145-0.31666-0.004-0.45312 0.06473-0.16385 0.08182-0.20528 0.38839-0.38839 0.38839-0.48824 0-0.61343-0.79064-1.0357-1.0357-0.21278-0.12346-0.46665-0.1768-0.71205-0.1942-0.34705-0.02465-0.69422 0.06297-1.0357 0.12946-0.32878 0.06401-0.68898 0.07809-0.97098 0.25893-0.68382 0.43834-1.1414 1.1773-1.5536 1.8772-0.2704 0.45922-0.69171 0.96721-0.58259 1.4888 0.02507 0.11952 0.24689 0.13754 0.25893 0.25893 0.03066 0.30968-0.4894 0.4669-0.51786 0.77679-0.04516 0.49093 0.31935 0.94254 0.58259 1.3594 0.38369 0.60755 0.70795 1.5597 1.4241 1.6183 0.30564 0.02507 0.40708-0.61478 0.71205-0.58259 0.13734 0.0145 0.12304 0.29839 0.25893 0.32366 0.2947 0.05489 0.47949-0.49159 0.77679-0.45312 0.12097 0.01657 0.14624 0.21222 0.25893 0.25893 0.21928 0.09094 0.49592-0.09798 0.71205 0 0.20886 0.09487 0.40302 0.29402 0.45312 0.51786 0.06857 0.30657-0.32878 0.59995-0.25893 0.90625 0.05779 0.25334 0.43314 0.33696 0.51786 0.58259 0.11289 0.32702-0.14469 0.69913-0.06473 1.0357 0.06918 0.29168 0.44347 0.47717 0.45312 0.77679 0.0083 0.24111-0.26293 0.41385-0.32366 0.64732-0.11973 0.45988-0.13992 0.95487-0.06473 1.4241 0.10564 0.66085 0.55073 1.2277 0.71205 1.8772 0.08389 0.33766 0.10792 0.68846 0.12946 1.0357 0.01036 0.17234-0.12201 0.39579 0 0.51786 0.09156 0.09156 0.26363 0.03459 0.38839 0 0.2425-0.06712 0.40482-0.32122 0.64732-0.38839 0.22875-0.06338 0.49685 0.10005 0.71205 0 0.48596-0.22608 0.92357-0.7058 1.0357-1.2299 0.03293-0.1537-0.17566-0.30301-0.12946-0.45312 0.09922-0.32211 0.76152-0.31061 0.77678-0.64732 0.01243-0.27436-0.59777-0.30837-0.58259-0.58259 0.0145-0.27589 0.42046-0.36012 0.64732-0.51786 0.20652-0.14355 0.45785-0.2228 0.64732-0.38839 0.10399-0.09093 0.2309-0.18829 0.25893-0.32366 0.04992-0.24091-0.16168-0.4682-0.1942-0.71205-0.08017-0.59883-0.13174-1.2229 0-1.8125 0.08845-0.39564 0.29354-0.76276 0.51786-1.1004 0.16054-0.24182 0.42678-0.40238 0.58259-0.64732 0.32693-0.51398 0.59096-1.086 0.71205-1.683 0.03003-0.14811 0.11372-0.35363 0-0.45312-0.24567-0.2151-0.8194 0.41868-0.97098 0.12946-0.14894-0.28412 0.40757-0.49894 0.64732-0.71205 0.27747-0.24662 0.63017-0.39914 0.90625-0.64732 0.19326-0.17359 0.42551-0.33971 0.51786-0.58259 0.06898-0.18146 0.04102-0.39278 0-0.58259-0.05531-0.2548-0.06462-0.68156-0.32366-0.71205-0.24432-0.02879-0.20716 0.5876-0.45312 0.58259-0.1856-0.0042-0.19388-0.32037-0.32366-0.45312-0.1508-0.15432-0.42137-0.19534-0.51786-0.38839-0.11579-0.23159-0.24174-0.68403 0-0.77679 0.27103-0.10398 0.31185 0.54257 0.58259 0.64732 0.20217 0.0783 0.44167-0.13371 0.64732-0.06473 0.36202 0.12118 0.46135 0.81146 0.84152 0.77679 0.08596-0.0083 0.142-0.13765 0.1942-0.1942-0.52503-3.6526-2.3968-6.885-5.1138-9.1272 0.01864 0.25909-0.25804 0.5806-0.51786 0.58259-0.35125 0.00207-0.85349-0.45526-0.71205-0.77679 0.09549-0.21725 0.49277 0.090936 0.71205 0 0.05634-0.023407 0.06857-0.12677 0.12946-0.12946-0.185-0.1441-0.389-0.2559-0.582-0.3897-0.055 0.1912-0.391-0.0738-0.582-0.1295-0.243-0.0706-0.46-0.2458-0.712-0.2589zm-15.147 0.3884c-0.1536 0.1066-0.304 0.2114-0.4531 0.3236 0.0921 0.0707-0.039 0.2509-0.1295 0.3237-0.1023 0.0822-0.3368 0.1855-0.3884 0.0647-2.9733 2.4538-4.955 6.0807-5.2433 10.163 0.31119-0.06815 0.23214 0.61202 0.45312 0.84152 0.29518 0.30655 0.7087 0.48107 1.1004 0.64732 0.37108 0.15743 0.83605 0.09094 1.1652 0.32366 0.21506 0.15204 0.26997 0.45806 0.45312 0.64732 0.22508 0.23258 0.45731 0.53074 0.77679 0.58259 0.13464 0.02196 0.25274-0.14438 0.38839-0.12946 0.12512 0.0145 0.26166 0.08482 0.32366 0.1942 0.01036 0.01864 0.0042 0.0436 0 0.06473-0.06546 0.42491-0.19637 0.84527-0.38839 1.2299-0.08286 0.16613-0.28903 0.27078-0.32366 0.45312-0.01658 0.08742 0.06556 0.16986 0.06473 0.25893-0.0021 0.33495-0.30011 0.63856-0.25893 0.97098 0.08182 0.66141 0.56053 1.2227 0.97098 1.7478 0.27266 0.34881 0.6723 0.57944 0.97098 0.90625 0.16592 0.18166 0.37884 0.34806 0.45312 0.58259 0.13692 0.43247-0.15028 0.91385-0.06473 1.3594 0.04909 0.25605 0.29723 0.45267 0.32366 0.71205 0.0493 0.4843-0.26937 0.94034-0.32366 1.4241-0.0021 0.02154 0.02092 0.05976 0 0.06473 0.58408 0.41398 1.1689 0.77518 1.8125 1.1004-0.02196-0.10564 0.23413-0.08938 0.25893-0.1942 0.02217-0.09384-0.145-0.16364-0.12946-0.25893 0.03417-0.21085 0.34481-0.26902 0.45312-0.45312 0.07975-0.13547 0.01864-0.34272 0.12946-0.45312 0.17504-0.17296 0.53107-0.02765 0.71205-0.1942 0.37159-0.34214 0.52587-0.91905 0.51786-1.4241-0.0019-0.11621-0.13692-0.2077-0.12946-0.32366 0.0145-0.2217 0.14624-0.44898 0.32366-0.58259 0.22999-0.17317 0.62292-0.0063 0.84152-0.1942 0.26469-0.22684 0.33104-0.62715 0.38839-0.97098 0.07105-0.4262-0.18632-0.88-0.06473-1.2946 0.1044-0.35624 0.5215-0.55699 0.64732-0.90625 0.10254-0.28492 0.21216-0.64165 0.06473-0.90625-0.47419-0.85171-1.9069-0.66329-2.5893-1.3594-0.23643-0.24118-0.18974-0.69492-0.45312-0.90625-0.208-0.166-0.5763-0.018-0.7765-0.194-0.3126-0.275-0.0953-0.951-0.4531-1.165-0.2988-0.178-0.699 0.217-1.0357 0.13-0.3885-0.101-0.5703-0.736-0.971-0.712-0.44196 0.0261-0.79454 0.50021-0.97098 0.90625-0.01657 0.03957 0.03438 0.10357 0 0.12946-0.2508 0.188-0.6826-0.039-0.9062-0.26-0.1604-0.158-0.1617-0.424-0.1942-0.647-0.03128-0.21348 0.15991-0.50253 0-0.64732-0.16074-0.14542-0.49727 0.22137-0.64732 0.06473-0.31676-0.33041 0.4942-1.0136 0.1942-1.3594-0.08493-0.09777-0.2726-0.05779-0.38839 0-0.19306 0.09653-0.22274 0.37961-0.38839 0.51786-0.11124 0.0928-0.24381 0.20124-0.38839 0.1942-0.20341-0.01036-0.41043-0.1508-0.51786-0.32366-0.11455-0.18415-0.06307-0.43048-0.06473-0.64732-0.0021-0.25982-0.06515-0.55185 0.06473-0.77679 0.17069-0.29536 0.51587-0.48086 0.84152-0.58259 0.2059-0.06442 0.47229 0.12615 0.64732 0 0.11061-0.07975 0.01036-0.32273 0.12946-0.38839 0.23397-0.12843 0.55137 0.05147 0.77679 0.1942 0.25901 0.16426 0.28876 0.79988 0.58259 0.71205 0.39498-0.11807-0.06691-0.86749 0.12946-1.2299 0.212-0.391 0.7827-0.476 1.0358-0.842 0.1941-0.28 0.0913-0.721 0.3236-0.971 0.191-0.205 0.5539-0.153 0.7768-0.323 0.1956-0.15 0.2439-0.4537 0.4531-0.583 0.2808-0.1736 0.7024-0.0022 0.971-0.1942 0.244-0.1742 0.6025-0.5169 0.4535-0.7768-0.23643-0.41163-1.3287 0.46502-1.4241 0-0.06608-0.32194 0.58431-0.32231 0.90625-0.38839 0.21137-0.043292 0.43517 0.039358 0.64732 0 0.29549-0.054892 0.58153-0.47442 0.84152-0.32366 0.24551 0.14231-0.14769 0.78022 0.12946 0.84152 0.22788 0.050334 0.43046-0.35301 0.38839-0.58259-0.034-0.1825-0.401-0.1456-0.454-0.3237-0.032-0.1114 0.153-0.2098 0.13-0.3236-0.031-0.1496-0.188-0.2539-0.324-0.3237-0.116-0.0601-0.321 0.0475-0.388-0.0647-0.071-0.1169 0.142-0.2525 0.129-0.3884-0.02-0.2212-0.114-0.5082-0.323-0.5826-0.219-0.0779-0.4727 0.4117-0.6478 0.2589-0.134-0.117 0.1987-0.3539 0.1295-0.5178-0.1164-0.2763-0.4885-0.5354-0.7768-0.4532-0.3991 0.114-0.5227 0.6898-0.5826 1.1005-0.0165 0.1089 0.1155 0.2259 0.0648 0.3236-0.0978 0.1887-0.4313 0.1098-0.5826 0.259-0.22 0.2169-0.0823 0.8826-0.3884 0.8415-0.2602-0.035 0.0373-0.5741-0.1295-0.7768-0.2343-0.2847-0.7798-0.1228-1.0357-0.3884-0.1421-0.1475-0.2674-0.3914-0.1942-0.5826 0.1862-0.4875 0.9446-0.46 1.3594-0.7768 0.2182-0.1667 0.4661-0.3338 0.5826-0.5826 0.1011-0.2158 0.1726-0.4995 0.0647-0.712-0.057-0.1123-0.2024-0.1607-0.3237-0.1942-0.0416-0.0124-0.1174 0.0414-0.1294 0zm10.94 1.1652c-0.07229-0.00207-0.14862 0.018747-0.1942 0.064732-0.09156 0.091557-0.04288 0.26622 0 0.38839 0.04578 0.13029 0.21319 0.19326 0.25893 0.32366 0.06422 0.18332 0.0145 0.38895 0 0.58259-0.02175 0.28298-0.33458 0.64537-0.12946 0.84152 0.15909 0.15204 0.44996-0.032108 0.64732-0.12946 0.20569-0.1015 0.51024-0.22388 0.51786-0.45312 0.007-0.2135-0.334-0.2754-0.453-0.4532-0.22-0.33-0.123-0.8797-0.453-1.1004-0.054-0.036-0.122-0.0625-0.194-0.0647zm-0.97098 0.90625c-0.07208 0.025066-0.1567 0.0725-0.1942 0.12946-0.14314 0.21692-0.16437 0.65445 0.06473 0.77679 0.19596 0.10461 0.51214-0.11289 0.58259-0.32366 0.06732-0.20155-0.06442-0.49683-0.25893-0.58259-0.06235-0.02755-0.12211-0.025066-0.19419 0zm7.7679 6.9263c0.3033 0.04537 0.41797 0.45331 0.58259 0.71205 0.3212 0.50485 0.44728 1.1188 0.77679 1.6183 0.12636 0.1914 0.41878 0.29108 0.45312 0.51786 0.0319 0.21012-0.29075 0.37246-0.25893 0.58259 0.03438 0.22678 0.54791 0.30898 0.45312 0.51786-0.08016 0.1769-0.4223 0.10958-0.58259 0-0.6879-0.47057-0.47427-1.6176-0.90625-2.3304-0.1189-0.19616-0.34524-0.31544-0.45312-0.51786-0.15764-0.29559-0.37727-0.65762-0.25893-0.97098 0.02755-0.07271 0.11735-0.14106 0.1942-0.12946zm-11.263 17.284c0.573 0.069 1.155 0.129 1.747 0.129-0.587 0-1.178-0.061-1.747-0.129z"/>
  <path id="path3849" style="color:#bebebe;fill:#fff" d="m15.938 1.5c-1.319 0-2.599 0.2014-3.813 0.5312 0.035-0.0082 0.04 0.0286 0.063 0.0626 0.102 0.1516-0.422 0.1925-0.407 0.375 0.023 0.2774 0.323 0.3885 0.625 0.5 1.131-0.2839 2.315-0.4688 3.532-0.4688 0.391 0 0.772 0.032 1.156 0.0625-0.055 0.1521 0.213 0.1377 0.437 0.1563 0.216-0.3035 0.418-0.6122 0.281-0.9063-0.106-0.229-0.804-0.0124-0.718-0.25-0.384-0.0305-0.765-0.0625-1.156-0.0625zm-3.938 0.5938c-0.535 0.1508-1.054 0.2911-1.562 0.5 0.134 0.0219 0.242 0.1562 0.374 0.125 0.149-0.0351 0.211-0.2391 0.344-0.3126 0.175-0.0956 0.373-0.0638 0.563-0.125 0.078-0.0252 0.199-0.1282 0.281-0.1874zm-1.688 0.5624c-0.389 0.1648-0.8158 0.3344-1.187 0.5313 0.0568 0.0311 0.0271 0.1289 0 0.1875-0.0831 0.1806-0.3205 0.2141-0.4375 0.375-0.1649 0.2269-0.4681 0.5479-0.3125 0.7812 0.1197 0.1796 0.4476 0.1229 0.625 0 0.0189-0.0131 0.0487-0.0142 0.0625-0.0312 0.0186-0.0162 0.0162-0.0436 0.0313-0.0625 0.0103-0.0213 0.0241-0.0387 0.0312-0.0625 0.0081-0.0176-0.0062-0.0399 0-0.0625 0.0048-0.0224 0.0271-0.0396 0.0312-0.0625-0.0025-0.0238-0.0113-0.0516-0.0312-0.0625 0.0081-0.0043 0.0231 0.0043 0.0312 0 0.0105-0.0536 0.011-0.1095 0.0313-0.1563-0.0018 0.0361 0.0186 0.0626 0.0313 0.0938 0.2672-0.1351 0.5643-0.2591 0.8432-0.375-0.1042-0.0443-0.2373-0.0699-0.3432-0.0625-0.1016 0.0062-0.2098 0.0082-0.3126 0.0625 0.1836-0.2055 0.3639-0.391 0.6248-0.4375 0.222-0.0394 0.454 0.0879 0.657 0.1875 0.316-0.1201 0.642-0.2156 0.968-0.3125-0.02-0.124-0.032-0.2734-0.125-0.3437-0.311-0.2367-0.895 0.1662-1.156-0.125-0.015-0.0166 0-0.041 0-0.0626-0.019 0.0079-0.044-0.0079-0.063 0zm1.376 0.625c-0.183 0.0496-0.367 0.0344-0.532 0.125-0.089 0.049-0.152 0.1705-0.218 0.25 0.048 0.0434 0.079 0.1079 0.124 0.1563 0.176-0.0239 0.345-0.0636 0.469 0.0313 0.139 0.1055 0.135 0.3281 0.188 0.5 0.044 0.0099 0.077 0.0025 0.125 0 0.204-0.0117 0.474-0.1605 0.594-0.3438-0.306-0.1117-0.615-0.2327-0.657-0.5-0.007-0.007 0.007-0.0236 0-0.0312-0.045-0.0549-0.078-0.1122-0.093-0.1876zm5.937 0.2813c-0.187 0.2855-0.411 0.5795-0.5 0.875 0.053 0.0245 0.102 0.0324 0.156 0.0313 0.294-0.0063 0.683-0.2088 0.719-0.5 0.021-0.1672-0.148-0.3718-0.312-0.4063-0.023-0.0047-0.042-0.0044-0.063 0zm5.25 0.125c-0.355-0.0186-0.739 0.1336-1.063 0.2813-0.239 0.1093-0.503 0.2038-0.624 0.4374-0.06 0.1148 0.061 0.2926 0 0.4063-0.209 0.3838-0.965 0.2811-1.126 0.6875-0.1 0.2551-0.069 0.6481 0.094 0.875 0.25-0.2626 0.849-0.2267 1.032-0.5625 0.061-0.1137-0.06-0.2915 0-0.4063 0.121-0.2336 0.385-0.3281 0.624-0.4374 0.219-0.0999 0.481-0.1756 0.719-0.2188 0.046-0.0275 0.075-0.0746 0.125-0.0938 0.081-0.0308 0.233-0.0714 0.282 0 0.013 0.0193-0.005 0.0427 0 0.0626 0.222 0.0375 0.405 0.186 0.624 0.25 0.162 0.0471 0.42 0.2125 0.532 0.1562-0.163-0.1569-0.261-0.3643-0.188-0.5312 0.096-0.2173 0.468 0.0909 0.688 0 0.056-0.0235 0.095-0.1224 0.156-0.125-0.186-0.1428-0.401-0.2412-0.594-0.375-0.055 0.1911-0.403-0.0693-0.594-0.125-0.242-0.0707-0.435-0.2682-0.687-0.2813zm-15.156 0.4063c-0.1536 0.1065-0.3196 0.2002-0.4688 0.3124 0.0922 0.0707-0.0345 0.2709-0.125 0.3438-0.1023 0.0822-0.3234 0.1833-0.375 0.0625-2.9733 2.4538-4.9617 6.0735-5.25 10.156 0.0583-0.012 0.0895 0 0.125 0.032 0.4737-3.404 2.1237-6.4355 4.5312-8.6562 0.0638-0.167 0.2138-0.2631 0.375-0.3438 0.0732-0.0629 0.1444-0.1261 0.2188-0.1875 0.0258 0.0604 0.0784 0.0522 0.1562 0.0313 0.0779-0.021 0.1676-0.0527 0.2188-0.0938 0.0905-0.0729 0.2172-0.2731 0.125-0.3438 0.1492-0.1122 0.3152-0.2059 0.4688-0.3124 0.012 0.0414 0.0833-0.0125 0.125 0 0.0394 0.0109 0.0843 0.0155 0.125 0.0312 0.0365-0.0476 0.0994-0.0704 0.125-0.125 0.101-0.2158 0.1704-0.5062 0.0624-0.7188-0.0569-0.1122-0.1912-0.1539-0.3124-0.1874-0.0417-0.0125-0.113 0.0414-0.125 0zm5.2502 0.1562c-0.143 0.1093-0.322 0.1788-0.344 0.3438-0.032 0.2432 0.021 0.5577 0.125 0.8124 0.133-0.1264 0.342-0.2061 0.406-0.375 0.069-0.1815 0.089-0.4209 0-0.5937-0.041-0.0809-0.111-0.132-0.187-0.1875zm-2.938 0.0625c-0.115 0.0205-0.2164 0.0572-0.3122 0.125 0.0215 0.0076 0.0425 0.0244 0.0624 0.0313 0.1633 0.0559 0.4088 0.122 0.5308 0 0.037-0.0367 0.051-0.0716 0.063-0.125-0.109-0.0411-0.233-0.051-0.344-0.0313zm15.094 0.5c0.019 0.2591-0.271 0.5605-0.531 0.5625 0.05 0.0338 0.108 0.0567 0.156 0.0938-0.061 0.0026-0.1 0.1015-0.156 0.125-0.22 0.0909-0.592-0.2173-0.688 0-0.141 0.3215 0.336 0.7833 0.688 0.7812 0.26-0.002 0.55-0.3034 0.531-0.5625 2.511 2.0721 4.266 4.9995 4.937 8.3125 0.086-0.008 0.136-0.131 0.188-0.187-0.525-3.653-2.408-6.8832-5.125-9.1255zm-6.469 0.4375c-0.072-0.0021-0.142 0.0165-0.187 0.0625-0.092 0.0916-0.043 0.2841 0 0.4063 0.046 0.1302 0.204 0.1821 0.25 0.3124 0.028 0.0817 0.034 0.1626 0.031 0.25 0.033 0.0114 0.067 0.0133 0.094 0.0313 0.3 0.2008 0.252 0.6677 0.406 1 0.002 0.0038 0.029-0.0037 0.031 0 0.205-0.0992 0.462-0.2174 0.469-0.4375 0.006-0.2135-0.319-0.291-0.438-0.4688-0.22-0.33-0.139-0.873-0.468-1.0937-0.054-0.036-0.116-0.0602-0.188-0.0625zm-9.406 0.3125c-0.0772-0.017-0.1779 0.0107-0.25 0.0313-0.3991 0.1139-0.5026 0.683-0.5625 1.0937-0.0166 0.109 0.1133 0.2148 0.0625 0.3125-0.0978 0.1887-0.4424 0.1009-0.5938 0.25-0.22 0.2169-0.0688 0.8849-0.375 0.8438-0.2601-0.0351 0.0105-0.5786-0.1562-0.7813-0.1962-0.2384-0.5952-0.1559-0.875-0.2813-0.1436 0.0783-0.2851 0.159-0.3438 0.3126-0.0731 0.1912 0.0454 0.4462 0.1876 0.5937 0.2558 0.2656 0.7969 0.0903 1.0312 0.375 0.1667 0.2027-0.1039 0.7462 0.1562 0.7813 0.3062 0.0411 0.155-0.6269 0.375-0.8438 0.1514-0.1491 0.496-0.0613 0.5938-0.25 0.0508-0.0977-0.0791-0.2035-0.0625-0.3125 0.0599-0.4107 0.1634-0.9798 0.5625-1.0937 0.2883-0.0823 0.6648 0.1612 0.7812 0.4374 0.0692 0.164-0.259 0.4143-0.125 0.5313 0.1751 0.1528 0.4378-0.3591 0.6558-0.2813 0.21 0.0745 0.292 0.3726 0.313 0.5938 0.011 0.1132-0.117 0.2103-0.125 0.3125 0.176-0.1212 0.371-0.2489 0.531-0.1563 0.11 0.0634 0.06 0.2411 0.031 0.4063 0.075 0.0585 0.139 0.1318 0.157 0.2187 0.015 0.0745-0.05 0.1496-0.094 0.2188 0.009 0.0039 0.021-0.0023 0.031 0 0.228 0.0503 0.417-0.3642 0.375-0.5938-0.033-0.1824-0.385-0.1344-0.437-0.3124-0.033-0.1115 0.148-0.1987 0.125-0.3126-0.031-0.1495-0.208-0.2739-0.344-0.3437-0.117-0.0601-0.307 0.0498-0.375-0.0625-0.07-0.1168 0.138-0.2391 0.125-0.375-0.021-0.2212-0.103-0.5193-0.313-0.5938-0.218-0.0778-0.4807 0.4341-0.6558 0.2813-0.134-0.117 0.1942-0.3673 0.125-0.5313-0.0873-0.2071-0.2995-0.4176-0.5312-0.4687zm13.562 0.0625c-0.048 0.0051-0.115 0.0158-0.156 0.0312-0.022 0.0085-0.041 0.0211-0.062 0.0313-0.003 0.0814 0.003 0.1685 0.062 0.2187 0.063 0.0535 0.153 0.0097 0.25-0.0312 0.039-0.0751 0.078-0.1507 0.032-0.2188-0.025-0.0357-0.077-0.0363-0.126-0.0312zm-5.124 0.5312c-0.073 0.0251-0.151 0.0681-0.188 0.125-0.143 0.217-0.167 0.659 0.062 0.7813 0.196 0.1046 0.493-0.1017 0.563-0.3125 0.067-0.2016-0.055-0.508-0.25-0.5938-0.062-0.0275-0.115-0.025-0.187 0zm4.312 0.1563c-0.05 0.082-0.089 0.1562-0.094 0.25-0.001 0.0208 0.028 0.0423 0.032 0.0625 0.04-0.0929 0.053-0.1987 0.062-0.3125zm0.594 0.4063c-0.153 0.229-0.348 0.4179-0.594 0.5312-0.013 0.2385-0.055 0.4879-0.25 0.5625-0.163 0.0621-0.303-0.1392-0.438-0.25-0.076-0.0634-0.134-0.1864-0.187-0.2813-0.035-0.0616-0.076-0.1217-0.125-0.1562-0.026-0.0186-0.059-0.0276-0.094-0.0312-0.061-0.0062-0.108 0.0149-0.156 0.0624 0.043 0.0563 0.065 0.1049 0.031 0.1563-0.041 0.0624-0.108 0.0767-0.187 0.0625-0.077 0.1095-0.147 0.2232-0.25 0.1875-0.084-0.029-0.169-0.1108-0.219-0.1875-0.144 0.1296-0.198 0.366-0.313 0.5312-0.113 0.1633-0.201 0.371-0.374 0.4688-0.091 0.051-0.218 0.0131-0.344 0-0.147 0.0742-0.315 0.1704-0.438 0.125-0.065 0.2034 0.329 0.2534 0.438 0.4375 0.08 0.1355 0.251 0.3433 0.156 0.4687 0.065-0.0014 0.138-0.0035 0.188-0.0312 0.173-0.0978 0.261-0.3055 0.374-0.4688 0.127-0.1823 0.153-0.481 0.344-0.5937 0.186-0.1094 0.507 0.1802 0.625 0 0.091-0.1372-0.234-0.2801-0.187-0.4375 0.044-0.1491 0.269-0.3233 0.406-0.25 0.152 0.0814-0.108 0.3649 0 0.5 0.179 0.2252 0.533 0.2552 0.812 0.1875 0.358-0.0865 0.658-0.371 0.844-0.6875 0.057-0.0948 0.004-0.2512 0.063-0.3438 0.158-0.2471 0.832-0.2293 0.719-0.5-0.102-0.242-0.581 0.2947-0.782 0.125-0.052-0.0439-0.06-0.1183-0.062-0.1874zm-3.969 0.1874c-0.085 0.2089-0.17 0.4298-0.031 0.5626 0.04 0.038 0.072 0.0286 0.125 0.0312 0.018-0.158 0.051-0.3217 0-0.4688-0.018-0.0508-0.054-0.0866-0.094-0.125zm-9.0938 2.4688c-0.3085 0.0633-0.914 0.0603-0.9062 0.3438 0.2808-0.1736 0.7001 0.0045 0.9688-0.1876 0.0508-0.0362 0.1011-0.1076 0.1562-0.1562-0.076-0.0051-0.1448-0.0152-0.2188 0zm9.1248 0.0312c-0.262 0.0668-0.58 0.1426-0.718 0.375-0.186 0.3128-0.249 0.8048-0.032 1.0938 0.014-0.029 0.016-0.067 0.032-0.094 0.138-0.232 0.456-0.308 0.718-0.375 0.188-0.048 0.477 0.155 0.594 0 0.095-0.125-0.076-0.333-0.156-0.4685-0.109-0.1841-0.503-0.2341-0.438-0.4375 0.01-0.0313 0.011-0.0764 0.032-0.0938-0.01 0.0013-0.022-0.0024-0.032 0zm3.219 0.9998c-0.045 0.055-0.07 0.105-0.125 0.156 0.018 0.077 0.118 0.126 0.219 0.188 0.038-0.025 0.097-0.038 0.125-0.062 0.04-0.035 0.059-0.081 0.094-0.126-0.054-0.033-0.099-0.072-0.157-0.093-0.033-0.013-0.082-0.054-0.125-0.063-0.009-0.002-0.022 0.001-0.031 0zm-1.281 0.813c-0.347-0.025-0.69 0.058-1.032 0.125-0.019 0.004-0.042-0.004-0.062 0-0.084 0.195-0.042 0.437-0.188 0.594-0.177 0.191-0.462 0.39-0.718 0.343-0.15-0.027-0.172-0.285-0.313-0.343-0.042-0.018-0.106 0.018-0.156 0.031-0.437 0.425-0.785 0.975-1.094 1.5-0.27 0.459-0.671 0.978-0.562 1.5 0.015 0.074 0.086 0.111 0.156 0.156 0.122-0.228 0.282-0.446 0.406-0.656 0.412-0.7 0.879-1.437 1.563-1.875 0.282-0.181 0.64-0.186 0.968-0.25 0.342-0.067 0.685-0.15 1.032-0.125 0.245 0.017 0.506 0.064 0.718 0.187 0.423 0.245 0.544 1.032 1.032 1.032 0.183 0 0.211-0.294 0.375-0.376 0.136-0.068 0.316-0.076 0.469-0.062 0.339 0.031 0.631 0.258 0.968 0.312 0.235 0.038 0.497 0.084 0.719 0 0.215-0.08 0.353-0.292 0.5-0.468 0.081-0.097 0.244-0.19 0.219-0.313-0.038-0.182-0.294-0.249-0.469-0.312-0.03-0.011-0.062 0.005-0.094 0-0.05 0.036-0.098 0.072-0.156 0.093-0.222 0.084-0.484 0.038-0.719 0-0.326-0.052-0.611-0.27-0.937-0.312-0.008 0.077-0.017 0.136-0.094 0.156-0.099 0.026-0.186-0.033-0.25-0.125-0.053 0.011-0.109 0.008-0.156 0.031-0.164 0.082-0.192 0.376-0.375 0.376-0.291 0-0.453-0.284-0.625-0.563-0.038-0.002-0.07-0.032-0.094-0.063-0.035-0.043-0.029-0.078 0-0.124-0.085-0.123-0.196-0.214-0.313-0.282-0.212-0.123-0.473-0.17-0.718-0.187zm-14.532 2.187c-0.0078 0.013-0.0242 0.019-0.0313 0.032-0.0245 0.045-0.0243 0.1-0.0312 0.156 0.0357-0.046 0.0594-0.117 0.0625-0.188zm21.906 0.344c-0.242 0.093-0.116 0.55 0 0.781 0.096 0.193 0.38 0.252 0.531 0.407 0.13 0.132 0.127 0.433 0.312 0.437 0.246 0.005 0.225-0.591 0.469-0.563 0.167 0.02 0.212 0.179 0.25 0.376 0.019-0.033 0.049-0.058 0.063-0.094 0.034-0.091 0.034-0.182 0.031-0.282 0-0.009 0.001-0.021 0-0.031-0.118-0.183-0.225-0.377-0.406-0.437-0.103-0.035-0.233-0.004-0.344 0.031s-0.211 0.07-0.313 0.031c-0.27-0.105-0.322-0.76-0.593-0.656zm-2.531 0.344c-0.077-0.012-0.16 0.052-0.188 0.125-0.118 0.313 0.124 0.673 0.281 0.969 0.108 0.202 0.319 0.335 0.438 0.531 0.432 0.713 0.218 1.842 0.906 2.312 0.16 0.11 0.514 0.177 0.594 0 0.095-0.209-0.435-0.273-0.469-0.5-0.02-0.134 0.103-0.254 0.188-0.375-0.116-0.008-0.233-0.07-0.313-0.125-0.657-0.449-0.484-1.503-0.844-2.219-0.018-0.028-0.045-0.061-0.062-0.093-0.119-0.196-0.33-0.329-0.438-0.531-0.01-0.02-0.02-0.043-0.031-0.063-0.02-0.007-0.04-0.028-0.062-0.031zm-21 0.625c-0.072 0.005-0.1609 0.033-0.2187 0.062-0.1931 0.097-0.2094 0.362-0.375 0.5-0.1113 0.093-0.2617 0.195-0.4063 0.188-0.2034-0.011-0.3926-0.14-0.5-0.313-0.0463-0.074-0.0872-0.161-0.0937-0.25-0.037 0.189 0.0296 0.399 0.0312 0.594 0.0017 0.217-0.052 0.472 0.0625 0.656 0.1074 0.173 0.2966 0.302 0.5 0.313 0.1446 0.007 0.295-0.095 0.4063-0.188 0.1656-0.138 0.1819-0.403 0.375-0.5 0.0404-0.02 0.1057-0.02 0.1562-0.031 0.109-0.337 0.4299-0.725 0.2188-0.969-0.0425-0.049-0.0843-0.067-0.1563-0.062zm12.032 0.906c-0.13 0.117-0.267 0.22-0.281 0.375-0.023 0.245 0.069 0.492 0.187 0.719 0.158-0.152 0.363-0.304 0.344-0.5-0.012-0.122-0.225-0.131-0.25-0.25-0.023-0.111-0.018-0.235 0-0.344zm-11.563 0.406c-0.0798 0.016-0.1648 0.06-0.25 0.094-0.0732 0.26-0.2975 0.542-0.3124 0.781 0.0513 0.071 0.1138 0.17 0.1562 0.25 0.1683 0.017 0.4265-0.217 0.5625-0.094 0.1599 0.145-0.0313 0.443 0 0.657 0.0046 0.031 0.0274 0.061 0.0313 0.093 0.1115 0.089 0.2062 0.166 0.3437 0.188 0.1346 0.022 0.2706-0.14 0.4063-0.125 0.1251 0.015 0.2505 0.078 0.3124 0.187 0.0104 0.019 0.0042 0.042 0 0.063-0.0264 0.172-0.0773 0.363-0.125 0.531 0.0417-0.011 0.0896-0.004 0.125-0.031 0.0344-0.026-0.0165-0.085 0-0.125 0.1765-0.406 0.5268-0.88 0.9688-0.906 0.4007-0.024 0.5803 0.586 0.9688 0.687 0.3367 0.088 0.7324-0.303 1.0312-0.125 0.3578 0.214 0.1561 0.912 0.4688 1.188 0.2002 0.175 0.5732 0.02 0.7812 0.187 0.263 0.212 0.201 0.665 0.437 0.907 0.654 0.666 2.003 0.514 2.532 1.25 0.102-0.285 0.21-0.642 0.062-0.907-0.474-0.851-1.911-0.647-2.594-1.343-0.236-0.242-0.174-0.695-0.437-0.907-0.208-0.167-0.581-0.012-0.7812-0.187-0.3127-0.276-0.111-0.974-0.4688-1.188-0.2988-0.178-0.6945 0.213-1.0312 0.125-0.3885-0.101-0.5681-0.711-0.9688-0.687-0.442 0.026-0.7923 0.5-0.9688 0.906-0.0165 0.04 0.0344 0.099 0 0.125-0.2508 0.189-0.6826-0.061-0.9062-0.281-0.1603-0.159-0.155-0.402-0.1875-0.625-0.0313-0.214 0.1599-0.512 0-0.657-0.0402-0.036-0.0998-0.042-0.1563-0.031zm23.625 1.031c-0.125 0.081-0.264 0.152-0.375 0.25-0.239 0.214-0.774 0.435-0.625 0.719 0.128 0.244 0.534-0.15 0.813-0.156 0.06-0.174 0.12-0.351 0.156-0.531 0.019-0.094 0.033-0.183 0.031-0.282zm-22.594 1.844c-0.0561 0.159-0.0813 0.319-0.1563 0.469-0.0828 0.166-0.3091 0.255-0.3437 0.437-0.0166 0.088 0.0633 0.161 0.0625 0.25-0.0021 0.335-0.2912 0.668-0.25 1 0.0205 0.166 0.0622 0.315 0.125 0.469 0.0661-0.15 0.124-0.31 0.125-0.469 0.0008-0.089-0.0791-0.162-0.0625-0.25 0.0346-0.182 0.2609-0.271 0.3437-0.437 0.1921-0.385 0.3096-0.825 0.375-1.25 0.0042-0.021 0.0104-0.044 0-0.063-0.0464-0.082-0.1246-0.125-0.2187-0.156zm15.188 0.782c-0.032 0.083-0.019 0.165 0 0.25 0.026 0.112 0.121 0.206 0.219 0.281 0.014-0.057 0.044-0.13 0.031-0.188-0.032-0.145-0.132-0.241-0.25-0.343zm0.437 1.75c0.001 0.043-0.009 0.082 0 0.124 0.018 0.073 0.049 0.156 0.094 0.219 0.007-0.086-0.003-0.168-0.031-0.25-0.013-0.038-0.038-0.062-0.063-0.093zm5.063 0.687c-0.055 0.479-0.001 0.959 0.063 1.437 0.084-0.074 0.165-0.144 0.187-0.25 0.05-0.24-0.155-0.474-0.187-0.718-0.021-0.156-0.049-0.311-0.063-0.469zm-4.875 0.75c-0.021 0.039-0.052 0.083-0.062 0.125-0.12 0.46-0.138 0.937-0.063 1.406 0.018-0.141 0.027-0.27 0.063-0.406 0.06-0.233 0.352-0.415 0.343-0.656-0.006-0.18-0.157-0.324-0.281-0.469zm-9 0.594c-0.025 0.044-0.048 0.075-0.062 0.125-0.053 0.18-0.001 0.373 0.031 0.562 0.017-0.083 0.018-0.17 0.031-0.25 0.023-0.139 0.022-0.294 0-0.437zm13.125 1.593c-0.231 0.13-0.55 0.222-0.563 0.469 0 0.011-0.001 0.022 0 0.031 0.231-0.134 0.583-0.196 0.594-0.437 0.001-0.024-0.023-0.042-0.031-0.063zm-18.281 0.094c-0.0293 0.168-0.0312 0.338 0 0.5 0.009 0.048 0.0424 0.081 0.0624 0.125 0.0242-0.166 0.0499-0.342 0-0.5-0.0142-0.045-0.0394-0.084-0.0624-0.125zm3.7182 1.188c-0.048 0.094-0.087 0.211-0.093 0.312-0.001 0.01-0.002 0.022 0 0.032 0.033-0.108 0.077-0.233 0.093-0.344zm-3.5308 0.718c-0.0802 0.236-0.1603 0.477-0.1874 0.719-0.0022 0.022 0.0209 0.058 0 0.063 0.0742 0.052 0.1443 0.105 0.2187 0.156 0.0697-0.212 0.116-0.437 0.0937-0.656-0.011-0.108-0.0674-0.186-0.125-0.282z"/>
  <path id="path3866" style="opacity:0.91;color:#000000;stroke:url(#linearGradient3902);fill:none" d="m30.5 16c0-8.0006-6.4994-14.5-14.5-14.5s-14.5 6.4994-14.5 14.5 6.4994 14.5 14.5 14.5 14.5-6.4994 14.5-14.5z"/>
  <path id="path3101" style="opacity:.2;color:#000000;fill:#fff" d="m16 2c-7.7298 0-14 6.2702-14 14 0 0.168 0.0254 0.333 0.0312 0.5 0.2647-7.4973 6.4072-13.5 13.969-13.5 7.562 0 13.704 6.0027 13.969 13.5 0.006-0.167 0.031-0.332 0.031-0.5 0-7.7298-6.27-14-14-14z"/>
  <path id="path3856" style="opacity:.2;color:#bebebe" d="m17.531 2.7188c-0.243 0.3414-0.516 0.6747-0.437 1.0312 0.006 0.0296 0.032 0.0896 0.062 0.0938 0.168 0.0272 0.312-0.2485 0.469-0.2813 0.165-0.2522 0.302-0.5041 0.187-0.75-0.038-0.0824-0.154-0.0833-0.281-0.0937zm-5.125 0.25c-0.094 0.0237-0.187 0.037-0.281 0.0624 0.035-0.0082 0.04 0.0286 0.063 0.0626 0.102 0.1516-0.422 0.1925-0.407 0.375 0.007 0.0076-0.007 0.0242 0 0.0312 0.182 0.1757 0.671 0.0021 0.719 0.25 0.016 0.0841-0.012 0.1733-0.062 0.25 0.191 0.07 0.383 0.143 0.531 0.25 0.08-0.0614 0.154-0.1314 0.187-0.2188 0.069-0.1815 0.089-0.4209 0-0.5937-0.127-0.2476-0.448-0.3573-0.75-0.4687zm-0.406 0.125c-0.113 0.0319-0.232 0.0607-0.344 0.0937 0.006 0.0363 0.024 0.0582 0.032 0.0937 0.01-0.0027 0.021 0.0033 0.031 0 0.078-0.0252 0.199-0.1282 0.281-0.1874zm-1.312 0.4062c-0.085 0.0322-0.166 0.0589-0.25 0.0938 0.134 0.0219 0.242 0.1562 0.374 0.125 0.05-0.0117 0.092-0.0228 0.126-0.0626-0.073-0.0658-0.168-0.1153-0.25-0.1562zm-0.376 0.1562c-0.079 0.0338-0.169 0.0603-0.25 0.0938 0.105 0.0443 0.193 0.1297 0.25 0.2188 0.066 0.1013 0.091 0.2502 0.063 0.375 0.109 0.041 0.211 0.1064 0.313 0.1562 0.429 0.212 0.677 0.8695 1.156 0.8438 0.29-0.0166 0.711-0.3088 0.656-0.5938-0.048-0.2479-0.537-0.0743-0.719-0.25-0.041-0.0404-0.045-0.099-0.062-0.1562-0.254-0.0576-0.448-0.3106-0.657-0.5313-0.262 0.0357-0.531 0.0807-0.687-0.0937-0.015-0.0166 0-0.041 0-0.0626-0.019 0.0079-0.044-0.0079-0.063 0zm6.063 0c-0.646 0.057-1.42 0.7213-1.937 1.1563-0.289 0.2428-0.286 0.7123-0.563 0.9687-0.142 0.1312-0.348 0.3112-0.531 0.25-0.271-0.0902-0.473-0.3287-0.594-0.625-0.058 0.0555-0.115 0.109-0.125 0.1876-0.07 0.5261 0.215 1.2696 0.719 1.4374 0.183 0.0612 0.389-0.1188 0.531-0.25 0.277-0.2564 0.274-0.7259 0.563-0.9687 0.69-0.58 1.832-1.5387 2.531-0.9687 0.101 0.083-0.115 0.2545-0.063 0.375 0.062 0.1427 0.22 0.2531 0.375 0.25 0.294-0.0063 0.683-0.2088 0.719-0.5 0.021-0.1672-0.148-0.3718-0.312-0.4063-0.189-0.0396-0.341 0.3122-0.532 0.2813-0.03-0.0042-0.056-0.0642-0.062-0.0938-0.024-0.1088-0.001-0.2052 0.031-0.3125-0.098-0.0458-0.178-0.1258-0.219-0.2187-0.052-0.1205 0.164-0.292 0.063-0.375-0.175-0.1425-0.379-0.2065-0.594-0.1876zm-7.1562 0.4688c-0.024 0.0121-0.0389 0.0501-0.0626 0.0625-0.0039 0.0205 0.0038 0.0419 0 0.0625 0.0026 0.0238-0.024 0.0361-0.0312 0.0625-0.0062 0.0226 0.0081 0.0449 0 0.0625-0.0071 0.0238-0.0209 0.0412-0.0312 0.0625-0.0151 0.0189-0.0127 0.0463-0.0313 0.0625-0.0138 0.017-0.0436 0.0181-0.0625 0.0312-0.1061 0.0746-0.2377 0.1158-0.3125 0.2188-0.1649 0.2269-0.4681 0.5479-0.3125 0.7812 0.1197 0.1796 0.4476 0.1229 0.625 0 0.1514-0.105 0.114-0.331 0.1875-0.5-0.0124 0.2457 0.361 0.3577 0.5937 0.4376 0.1633 0.0559 0.4088 0.122 0.5308 0 0.123-0.1221 0.095-0.3553 0-0.5-0.115-0.1782-0.3813-0.2962-0.5932-0.2813-0.1016 0.0062-0.2098 0.0082-0.3126 0.0625 0.1026-0.1148 0.1912-0.2266 0.3126-0.3125-0.1929-0.068-0.4336-0.1493-0.5-0.3125zm13.656 0.5625c-0.115-0.006-0.23 0.0418-0.344 0.0625-0.203 0.122-0.364 0.3057-0.5 0.5-0.066 0.0953-0.119 0.1965-0.125 0.3125-0.008 0.1569 0.129 0.3117 0.125 0.4687-0.002 0.0817-0.024 0.1876-0.031 0.2813 0.012-0.0194 0.019-0.0443 0.031-0.0625 0.153-0.2188 0.323-0.4474 0.563-0.5625 0.003-0.1221 0.04-0.2605 0.062-0.375 0.04-0.2054 0.32-0.4147 0.282-0.5937-0.024-0.004-0.039-0.0301-0.063-0.0313zm1.281 0.4063c-0.008 0.0294-0.042 0.021-0.062 0.0312 0.15 0.1452 0.331 0.251 0.5 0.25-0.143-0.0965-0.295-0.1822-0.438-0.2812zm-16.187 0.0312c-0.1299 0.1692-0.2672 0.3386-0.4376 0.4688-0.1106 0.0845-0.264 0.1044-0.4062 0.1562-0.0512 0.0411-0.1409 0.0728-0.2188 0.0938-0.138 0.0454-0.2553 0.0963-0.375 0.1562-0.1292 0.1111-0.2497 0.2282-0.375 0.3438-0.0731 0.1912 0.0454 0.4462 0.1876 0.5937 0.0415 0.0432 0.1019 0.0694 0.1562 0.0937 0.3122-0.17 0.7472-0.2205 1.0312-0.4374 0.2183-0.1668 0.4461-0.3451 0.5626-0.5938 0.101-0.2158 0.1704-0.5062 0.0624-0.7188-0.0384-0.0757-0.103-0.1236-0.1874-0.1562zm15.343 0.5938c-0.107 0.0244-0.271 0.0997-0.406 0.1562-0.07 0.1374-0.221 0.29-0.25 0.4375-0.024 0.124-0.067 0.2778-0.062 0.4063 0.021-0.0316 0.043-0.0619 0.062-0.0938 0.057-0.0948 0.004-0.2512 0.063-0.3438 0.158-0.2471 0.832-0.2293 0.719-0.5-0.026-0.0605-0.064-0.0765-0.126-0.0624zm-2.406 0.375c-0.245-0.0247-0.33 0.5489-0.562 0.4687-0.071-0.0246-0.141-0.0962-0.188-0.1563-0.028 0.0331-0.077 0.0511-0.094 0.0938-0.094 0.2392-0.072 0.611 0.063 0.8438 0.011-0.0084 0.019-0.0243 0.031-0.0313 0.122-0.0715 0.289 0.0357 0.438 0.0625 0.052-0.075 0.098-0.1607 0.156-0.2188-0.071-0.0937-0.186-0.1828-0.156-0.2812 0.044-0.1491 0.269-0.3233 0.406-0.25 0.152 0.0814-0.108 0.3649 0 0.5 0.049 0.0345 0.09 0.0946 0.125 0.1562 0.198 0.1121 0.471 0.0838 0.687 0.0313 0.06-0.0144 0.132-0.0367 0.188-0.0625 0.004-0.0727 0.03-0.155 0.031-0.2188 0.004-0.1362-0.071-0.2736-0.093-0.4062-0.038 0.0863-0.102 0.1546-0.188 0.1875-0.163 0.0621-0.303-0.1392-0.438-0.25-0.153-0.1267-0.208-0.448-0.406-0.4687zm-2.25 0.1562c-0.072-0.0021-0.142 0.0165-0.187 0.0625-0.092 0.0916-0.043 0.2841 0 0.4063 0.028 0.0794 0.093 0.1275 0.156 0.1874 0.041-0.0997 0.087-0.1897 0.094-0.2812 0.008-0.1074 0.027-0.2348 0.031-0.3438-0.033-0.0113-0.058-0.0301-0.094-0.0312zm-0.968 0.9062c-0.073 0.0251-0.151 0.0681-0.188 0.125-0.143 0.217-0.167 0.659 0.062 0.7813 0.196 0.1046 0.493-0.1017 0.563-0.3125 0.067-0.2016-0.055-0.508-0.25-0.5938-0.062-0.0275-0.115-0.025-0.187 0zm1.562 0.1563c-0.148 0.073-0.373 0.1953-0.531 0.1875-0.005 0.039 0.003 0.0867 0 0.125-0.022 0.283-0.33 0.6476-0.125 0.8438 0.021 0.0201 0.037 0.0219 0.062 0.0312 0.049-0.1513 0.244-0.145 0.438-0.125 0.05-0.0256 0.112-0.0408 0.156-0.0625 0.206-0.1015 0.492-0.2083 0.5-0.4375 0.006-0.2135-0.319-0.291-0.438-0.4688-0.017-0.0263-0.017-0.0648-0.031-0.0937-0.002-0.0037-0.029 0.0038-0.031 0zm-8.75 0.875c-0.11 0.0759-0.199 0.1664-0.312 0.1875-0.2127 0.0394-0.4454-0.0433-0.6568 0-0.3219 0.0661-0.9723 0.0531-0.9062 0.375 0.0955 0.465 1.1698-0.4116 1.406 0 0.118 0.2058-0.0715 0.4402-0.281 0.625 0.1411 0.0094 0.3 0.0256 0.438 0 0.295-0.0549 0.552-0.4945 0.812-0.3438 0.246 0.1424-0.121 0.7825 0.156 0.8438 0.228 0.0503 0.417-0.3642 0.375-0.5938-0.033-0.1824-0.385-0.1344-0.437-0.3124-0.012-0.0386 0.008-0.0572 0.031-0.0938-0.118-0.0533-0.095-0.2455-0.063-0.4375-0.053-0.0421-0.13-0.0958-0.187-0.125-0.117-0.0601-0.307 0.0498-0.375-0.0625-0.012-0.0195-0.002-0.0421 0-0.0625zm8.281 1.1875c-0.029 0.0069-0.073 0.0139-0.093 0.0312 0.176-0.022 0.412 0.1087 0.531 0-0.155-0.0026-0.32-0.0588-0.438-0.0312zm3.094 0.0312c-0.05-0.006-0.107 0.0231-0.125 0.0626-0.118 0.2651 0.548 0.3382 0.594 0.6252 0.025 0.157-0.053 0.334-0.156 0.468 0.144 0.093 0.259 0.199 0.343 0.344 0.11 0.191 0.034 0.456 0.125 0.656 0.06 0.131 0.129 0.34 0.219 0.469 0.098-0.021 0.214-0.04 0.313-0.031 0.01 0.001 0.02-0.001 0.031 0 0.02-0.197-0.089-0.523 0.031-0.688 0.057-0.077 0.156-0.147 0.25-0.124 0.39 0.094 0.367 0.774 0.719 0.968 0.237 0.131 0.545 0.019 0.812 0.063 0.137-0.098 0.237-0.247 0.344-0.375 0.081-0.097 0.244-0.19 0.219-0.313-0.038-0.182-0.294-0.249-0.469-0.312-0.285-0.103-0.641 0.084-0.906-0.063-0.352-0.194-0.329-0.874-0.719-0.968-0.094-0.023-0.193 0.047-0.25 0.124-0.167 0.23 0.15 0.773-0.125 0.844-0.238 0.062-0.366-0.37-0.469-0.594-0.091-0.2-0.015-0.465-0.125-0.6558-0.115-0.1985-0.285-0.3569-0.5-0.4374-0.04-0.0153-0.106-0.0565-0.156-0.0626zm-1.344 0.0313c-0.15 0.0344-0.272 0.1179-0.375 0.2187-0.063 0.0624-0.01 0.1782-0.062 0.25-0.12 0.1648-0.403 0.1858-0.532 0.3438-0.158 0.196-0.078 0.502-0.25 0.688-0.177 0.191-0.462 0.39-0.718 0.343-0.15-0.027-0.172-0.285-0.313-0.343-0.099-0.042-0.267 0.076-0.343 0-0.018-0.018-0.017-0.044-0.032-0.063-0.163 0.337-0.221 0.81 0.032 1.063 0.044 0.044 0.118 0.048 0.187 0.031 0.146-0.142 0.298-0.266 0.469-0.375 0.265-0.17 0.594-0.195 0.906-0.25 0.015-0.036 0.038-0.064 0.062-0.094 0.129-0.158 0.412-0.179 0.532-0.344 0.052-0.072-0.001-0.187 0.062-0.25 0.206-0.202 0.539-0.276 0.813-0.187 0.218 0.07 0.287 0.36 0.469 0.5 0.152 0.118 0.474 0.097 0.531 0.281 0.049 0.159-0.257 0.299-0.344 0.438 0.039 0.056 0.057 0.127 0.094 0.187 0.113 0.005 0.286-0.11 0.375-0.187 0.16-0.14 0.283-0.384 0.25-0.594-0.025-0.155-0.213-0.244-0.375-0.344-0.123 0.082-0.269 0.157-0.344 0.062-0.062-0.078 0.032-0.163 0.125-0.25-0.007-0.028-0.015-0.06 0-0.093 0.018-0.04 0.075-0.069 0.125-0.063 0.009 0.001 0.022-0.002 0.031 0 0.038-0.051 0.079-0.103 0.063-0.156-0.057-0.184-0.379-0.163-0.531-0.2812-0.182-0.1403-0.251-0.4296-0.469-0.5-0.137-0.0444-0.287-0.0657-0.438-0.0313zm-10.781 0.2187c-0.4114 0.0512-1.0534 0.4428-1.125 0.0938-0.1933 0.1356-0.2793 0.418-0.4688 0.562-0.2229 0.171-0.559 0.108-0.75 0.313-0.2323 0.25-0.1496 0.688-0.3437 0.969-0.253 0.366-0.8193 0.452-1.0313 0.844-0.1375 0.253 0.0436 0.685 0.0313 0.968 0.2272-0.359 0.7554-0.459 1-0.812 0.1941-0.281 0.1114-0.719 0.3437-0.969 0.191-0.205 0.5271-0.142 0.75-0.313 0.1956-0.149 0.2595-0.464 0.4688-0.593 0.2808-0.174 0.7001 0.004 0.9688-0.188 0.2439-0.174 0.5872-0.521 0.4372-0.781-0.0589-0.1029-0.1439-0.1108-0.281-0.0938zm-5.0312 3.0628c-0.0662-0.001-0.1291-0.001-0.1876 0.031-0.1191 0.066-0.0143 0.326-0.125 0.406-0.175 0.126-0.419-0.064-0.625 0-0.3256 0.102-0.673 0.267-0.8437 0.563-0.1299 0.225-0.0646 0.521-0.0625 0.781 0.0009 0.119-0.0363 0.254-0.0312 0.375 0.0126-0.054 0.0656-0.108 0.0937-0.156 0.1707-0.296 0.5181-0.461 0.8437-0.563 0.206-0.064 0.45 0.126 0.625 0 0.1107-0.08 0.0059-0.34 0.125-0.406 0.234-0.128 0.5559 0.076 0.7813 0.219 0.259 0.164 0.2999 0.775 0.5937 0.687 0.3457-0.103 0.0453-0.674 0.0938-1.062-0.0256 0.032-0.0444 0.047-0.0938 0.062-0.2938 0.088-0.3347-0.523-0.5937-0.687-0.1691-0.107-0.3952-0.247-0.5937-0.25zm23.25 0.031c-0.242 0.093-0.116 0.55 0 0.781 0.096 0.193 0.38 0.252 0.531 0.407 0.13 0.132 0.127 0.433 0.312 0.437 0.019 0 0.048 0.006 0.063 0 0.191-0.075 0.18-0.589 0.406-0.563 0.259 0.031 0.257 0.433 0.313 0.688 0.018 0.086 0.025 0.192 0.031 0.281 0.001 0.01 0 0.022 0 0.031 0.113 0.175 0.255 0.33 0.437 0.313 0.086-0.008 0.136-0.131 0.188-0.187-0.04-0.278-0.132-0.541-0.188-0.813-0.38 0.035-0.481-0.66-0.843-0.781-0.206-0.069-0.454 0.141-0.657 0.062-0.27-0.105-0.322-0.76-0.593-0.656zm-2.531 0.344c-0.077-0.012-0.16 0.052-0.188 0.125-0.111 0.293 0.097 0.622 0.25 0.906 0.226 0.078 0.341 0.361 0.469 0.594 0.017 0.032 0.044 0.065 0.062 0.093 0.321 0.505 0.452 1.095 0.781 1.594 0.068 0.102 0.184 0.168 0.282 0.25-0.052-0.043-0.085-0.068-0.094-0.125-0.032-0.21 0.282-0.383 0.25-0.593-0.034-0.227-0.311-0.34-0.438-0.532-0.329-0.499-0.46-1.089-0.781-1.594-0.164-0.258-0.29-0.673-0.593-0.718zm1.656 3.562c0.086 0.073 0.14 0.175 0.156 0.282 0.011 0.075-0.015 0.151-0.062 0.218 0.115 0.009 0.241-0.036 0.281-0.125 0.071-0.156-0.221-0.246-0.375-0.375zm-25.469-1.656c-0.045 0.323-0.1017 0.639-0.125 0.969 0.3112-0.068 0.2165 0.614 0.4375 0.843 0.2952 0.307 0.7333 0.459 1.125 0.626 0.3711 0.157 0.8271 0.111 1.1563 0.343 0.215 0.152 0.2855 0.467 0.4687 0.657 0.2251 0.232 0.4305 0.51 0.75 0.562 0.1346 0.022 0.2706-0.14 0.4063-0.125 0.0312 0.004 0.0623 0.021 0.0937 0.031 0.0295-0.083 0.0696-0.164 0.0937-0.25-0.2526 0.069-0.5892-0.123-0.7812-0.312-0.1379-0.136-0.1326-0.332-0.1562-0.532-0.1477-0.117-0.2781-0.242-0.4063-0.374-0.076-0.079-0.1351-0.182-0.1875-0.282-0.0306-0.003-0.0707-0.007-0.0938-0.031-0.0593-0.062-0.0676-0.137-0.0624-0.219-0.0383-0.053-0.0713-0.087-0.125-0.125-0.3292-0.232-0.7852-0.186-1.1563-0.343-0.3917-0.167-0.8298-0.319-1.125-0.626-0.1795-0.186-0.1588-0.674-0.3125-0.812zm15 0.125c-0.088 0.164-0.128 0.33-0.156 0.5 0.129-0.117 0.265-0.251 0.25-0.406-0.005-0.046-0.052-0.067-0.094-0.094zm12.906 0.063c-0.11 0.189-0.304 0.352-0.469 0.5-0.276 0.248-0.628 0.378-0.906 0.624-0.239 0.214-0.774 0.435-0.625 0.719 0.152 0.289 0.723-0.34 0.969-0.125 0.042 0.037 0.03 0.099 0.031 0.156 0.188-0.121 0.366-0.226 0.531-0.374 0.194-0.174 0.439-0.351 0.532-0.594 0.069-0.182 0.041-0.404 0-0.594-0.02-0.091-0.041-0.204-0.063-0.312zm-25.094 0.531c-0.0217 0.001-0.0407 0.026-0.0625 0.031-0.0459 0.142-0.0626 0.277 0.0312 0.375 0.0596 0.062 0.1545 0.038 0.25 0 0.036-0.128 0.0179-0.251-0.0624-0.344-0.0425-0.049-0.0843-0.067-0.1563-0.062zm11.938 1c-0.091 0.087-0.177 0.168-0.187 0.281-0.046 0.491 0.33 0.927 0.593 1.344 0.384 0.607 0.69 1.566 1.407 1.625 0.305 0.025 0.413-0.595 0.718-0.563 0.138 0.015 0.146 0.287 0.282 0.313 0.294 0.055 0.452-0.507 0.75-0.469 0.12 0.017 0.168 0.235 0.281 0.281 0.219 0.091 0.471-0.098 0.687 0 0.074 0.034 0.155 0.101 0.219 0.157 0.085-0.218 0.3-0.435 0.25-0.657-0.05-0.224-0.26-0.405-0.469-0.5-0.216-0.098-0.468 0.091-0.687 0-0.113-0.046-0.161-0.264-0.281-0.281-0.298-0.038-0.456 0.524-0.75 0.469-0.136-0.026-0.144-0.298-0.282-0.313-0.305-0.032-0.413 0.588-0.718 0.563-0.717-0.059-1.023-1.018-1.407-1.625-0.131-0.209-0.288-0.399-0.406-0.625zm11.969 1.156c-0.14 0.405-0.334 0.797-0.563 1.156-0.156 0.245-0.433 0.415-0.593 0.657-0.225 0.337-0.412 0.698-0.5 1.093-0.098 0.437-0.104 0.894-0.063 1.344 0.013-0.111 0.038-0.235 0.063-0.344 0.088-0.395 0.275-0.756 0.5-1.093 0.16-0.242 0.437-0.412 0.593-0.657 0.327-0.514 0.598-1.09 0.719-1.687 0.03-0.148 0.114-0.338 0-0.438-0.038-0.033-0.105-0.032-0.156-0.031zm-7 2.344c-0.06 0.245-0.276 0.47-0.219 0.719 0.049 0.214 0.302 0.327 0.437 0.5-0.005-0.302 0.162-0.621 0.063-0.907-0.047-0.136-0.159-0.219-0.281-0.312zm-15.969 1.343c-0.0696 0.16-0.1456 0.334-0.125 0.5 0.0818 0.662 0.5583 1.194 0.9688 1.719 0.2726 0.349 0.67 0.58 0.9687 0.907 0.1342 0.146 0.3088 0.297 0.4063 0.468 0.051-0.293 0.1495-0.6 0.0624-0.875-0.0742-0.234-0.3028-0.412-0.4687-0.593-0.2987-0.327-0.6961-0.558-0.9687-0.907-0.3024-0.386-0.6533-0.767-0.8438-1.219zm7.969 0.126c-0.126 0.349-0.552 0.55-0.656 0.906-0.082 0.279 0.016 0.581 0.062 0.875 0.155-0.275 0.485-0.481 0.594-0.781 0.102-0.285 0.21-0.642 0.062-0.907-0.02-0.036-0.039-0.061-0.062-0.093zm8.312 0.093c-0.021 0.259-0.153 0.529-0.094 0.781 0.028 0.117 0.106 0.216 0.188 0.313 0.099-0.177 0.288-0.333 0.281-0.531-0.007-0.225-0.24-0.373-0.375-0.563zm5.032 1.813c-0.019 0.016-0.045 0.015-0.063 0.031-0.189 0.166-0.45 0.263-0.656 0.406-0.227 0.158-0.642 0.224-0.657 0.5-0.013 0.25 0.484 0.316 0.563 0.531 0.027-0.015 0.07-0.014 0.094-0.031 0.206-0.143 0.467-0.24 0.656-0.406 0.104-0.091 0.222-0.177 0.25-0.313 0.05-0.24-0.155-0.474-0.187-0.718zm-13.969 0.562c-0.055 0.275-0.141 0.545-0.344 0.719-0.219 0.188-0.614 0.014-0.844 0.187-0.177 0.134-0.298 0.373-0.312 0.594-0.008 0.116 0.123 0.197 0.125 0.313s-0.016 0.224-0.032 0.343c0.057-0.101 0.131-0.183 0.219-0.25 0.23-0.173 0.625 0.001 0.844-0.187 0.265-0.227 0.318-0.625 0.375-0.969 0.04-0.241 0.011-0.503-0.031-0.75zm8.906 0.282c-0.039 0.324-0.051 0.648 0 0.968 0.106 0.661 0.557 1.226 0.719 1.875 0.037 0.15 0.075 0.316 0.094 0.469-0.015-0.122 0.039-0.308 0.031-0.438-0.022-0.347-0.041-0.693-0.125-1.031-0.159-0.64-0.605-1.195-0.719-1.843zm3.687 1.124c-0.091 0.054-0.159 0.128-0.187 0.219-0.046 0.15 0.158 0.284 0.125 0.438-0.112 0.524-0.545 1.024-1.031 1.25-0.215 0.1-0.49-0.064-0.719 0-0.243 0.067-0.382 0.308-0.625 0.375-0.125 0.034-0.315 0.091-0.406 0-0.012-0.012-0.024-0.017-0.031-0.032 0.019 0.174 0.02 0.327 0.031 0.5 0.01 0.173-0.122 0.41 0 0.532 0.091 0.091 0.281 0.034 0.406 0 0.243-0.067 0.382-0.308 0.625-0.375 0.229-0.064 0.504 0.1 0.719 0 0.486-0.226 0.919-0.726 1.031-1.25 0.033-0.154-0.171-0.288-0.125-0.438 0.099-0.322 0.766-0.319 0.781-0.656 0.012-0.264-0.565-0.315-0.594-0.563zm-17.656 0.219c-0.0421 0.291-0.1169 0.592-0.0624 0.875 0.0286 0.15 0.1069 0.273 0.1874 0.406 0.0803-0.235 0.1497-0.476 0.125-0.718-0.0215-0.212-0.1617-0.369-0.25-0.563zm3.5628 0.907c-0.083 0.271-0.207 0.535-0.407 0.718-0.18 0.167-0.543 0.015-0.718 0.188-0.1111 0.11-0.046 0.302-0.1252 0.437-0.1084 0.184-0.4034 0.258-0.4376 0.469-0.0155 0.095 0.1472 0.156 0.125 0.25-0.0247 0.105-0.2719 0.082-0.25 0.188-0.5618-0.284-1.0829-0.588-1.5937-0.938-0.0845 0.258-0.189 0.516-0.2187 0.781-0.0022 0.022 0.0209 0.058 0 0.063 0.584 0.414 1.1688 0.768 1.8124 1.094-0.0219-0.106 0.2253-0.083 0.25-0.188 0.0222-0.094-0.1405-0.155-0.125-0.25 0.0342-0.211 0.3292-0.285 0.4376-0.469 0.0792-0.135 0.0141-0.327 0.1252-0.437 0.175-0.173 0.538-0.021 0.718-0.188 0.372-0.342 0.54-0.932 0.532-1.437-0.002-0.106-0.111-0.179-0.125-0.281z"/>
 </g>
</svg>
