<?xml version="1.0" encoding="UTF-8" standalone="no"?>
<!-- Created with Inkscape (http://www.inkscape.org/) -->
<svg id="svg4300" xmlns:rdf="http://www.w3.org/1999/02/22-rdf-syntax-ns#" xmlns="http://www.w3.org/2000/svg" height="32" width="32" version="1.1" xmlns:cc="http://creativecommons.org/ns#" xmlns:xlink="http://www.w3.org/1999/xlink" xmlns:dc="http://purl.org/dc/elements/1.1/">
 <defs id="defs4302">
  <linearGradient id="linearGradient3600-8-3">
   <stop id="stop3602-2-5" style="stop-color:#f4f4f4" offset="0"/>
   <stop id="stop3604-5-9" style="stop-color:#dbdbdb" offset="1"/>
  </linearGradient>
  <radialGradient id="radialGradient3163" gradientUnits="userSpaceOnUse" cy="43.5" cx="4.993" gradientTransform="matrix(2.0038 0 0 1.4 27.988 -17.4)" r="2.5">
   <stop id="stop2883" style="stop-color:#181818" offset="0"/>
   <stop id="stop2885" style="stop-color:#181818;stop-opacity:0" offset="1"/>
  </radialGradient>
  <radialGradient id="radialGradient3165" gradientUnits="userSpaceOnUse" cy="43.5" cx="4.993" gradientTransform="matrix(2.0038 0 0 1.4 -20.012 -104.4)" r="2.5">
   <stop id="stop2889" style="stop-color:#181818" offset="0"/>
   <stop id="stop2891" style="stop-color:#181818;stop-opacity:0" offset="1"/>
  </radialGradient>
  <linearGradient id="linearGradient3167" y2="39.999" gradientUnits="userSpaceOnUse" x2="25.058" y1="47.028" x1="25.058">
   <stop id="stop2895" style="stop-color:#181818;stop-opacity:0" offset="0"/>
   <stop id="stop2897" style="stop-color:#181818" offset=".5"/>
   <stop id="stop2899" style="stop-color:#181818;stop-opacity:0" offset="1"/>
  </linearGradient>
  <radialGradient id="radialGradient3826" gradientUnits="userSpaceOnUse" cy="41.636" cx="23.335" gradientTransform="matrix(.41984 0 0 .13257 .20312 22.48)" r="22.627">
   <stop id="stop23421-7-7" offset="0"/>
   <stop id="stop23423-0-7" style="stop-opacity:0" offset="1"/>
  </radialGradient>
  <linearGradient id="linearGradient3861" y2="8.4977" gradientUnits="userSpaceOnUse" x2="18.387" gradientTransform="translate(.10563)" y1="26.209" x1="18.387">
   <stop id="stop4101" style="stop-color:#a7a7a7" offset="0"/>
   <stop id="stop4103" style="stop-color:#d1d1d1" offset="1"/>
  </linearGradient>
  <linearGradient id="linearGradient3886" y2="27" gradientUnits="userSpaceOnUse" x2="21" y1="9" x1="21">
   <stop id="stop3882" style="stop-color:#fff" offset="0"/>
   <stop id="stop3884" style="stop-color:#fff;stop-opacity:0" offset="1"/>
  </linearGradient>
  <clipPath id="clipPath3925" clipPathUnits="userSpaceOnUse">
   <path id="path3927" style="color:#000000;fill:url(#linearGradient3929)" d="m9.9735 3.0002c-1.6532 0.039-3.5153 0.1391-5.1659 1.6634-1.6506 1.5242-1.3558 4.0188-1.6115 5.9324-0.00681 0.01239-0.013174 0.02503-0.019061 0.03788-0.29366 4.9035-0.27742 9.8755 0.47728 14.774-0.0001034 0.0063-0.0001034 0.01261 0 0.01891 0.24548 1.297 1.0594 2.6737 2.965 3.198 1.9056 0.52435 4.3613 0.52454 6.638 0.0031 1.1792-0.27048 2.4009-0.99518 2.8255-2.3109 0.0019-0.0054-0.0019-0.01328 0-0.01891 0.55424-1.5719 0.54351-3.19 0.78622-6.2913 0.244-3.101 0.223-7.861-0.384-12.574-0.084-0.6689-0.221-1.4047-0.554-2.084-0.33-0.6719-0.869-1.2796-1.967-1.7627s-2.611-0.5331-3.951-0.586c-0.012722-0.0004117-0.025458-0.0004117-0.03818 0z"/>
  </clipPath>
  <linearGradient id="linearGradient3929" y2="49.956" xlink:href="#linearGradient3600-8-3" gradientUnits="userSpaceOnUse" x2="18.601" gradientTransform="matrix(.61092 0 0 .54243 5.9403 2.2194)" y1=".85446" x1="18.601"/>
  <linearGradient id="linearGradient3937" y2="30" gradientUnits="userSpaceOnUse" x2="10" y1="1" x1="10">
   <stop id="stop3933" style="stop-color:#fff" offset="0"/>
   <stop id="stop3935" style="stop-color:#fff;stop-opacity:0" offset="1"/>
  </linearGradient>
  <linearGradient id="linearGradient3963" y2="15.234" gradientUnits="userSpaceOnUse" x2="15" y1=".73422" x1="5">
   <stop id="stop3959" style="stop-color:#fff" offset="0"/>
   <stop id="stop3961" style="stop-color:#fff;stop-opacity:0" offset="1"/>
  </linearGradient>
 </defs>
 <metadata id="metadata4305">
  <rdf:RDF>
   <cc:Work rdf:about="">
    <dc:format>image/svg+xml</dc:format>
    <dc:type rdf:resource="http://purl.org/dc/dcmitype/StillImage"/>
    <dc:title/>
   </cc:Work>
  </rdf:RDF>
 </metadata>
 <g id="g2036" style="opacity:.5" transform="matrix(.68789 0 0 .44444 1.385 8.1111)">
  <g id="g3712" style="opacity:.4" transform="matrix(1.0526 0 0 1.2857 -1.2632 -13.429)">
   <rect id="rect2801" style="fill:url(#radialGradient3163)" height="7" width="5" y="40" x="38"/>
   <rect id="rect3696" style="fill:url(#radialGradient3165)" transform="scale(-1)" height="7" width="5" y="-47" x="-10"/>
   <rect id="rect3700" style="fill:url(#linearGradient3167)" height="7" width="28" y="40" x="10"/>
  </g>
 </g>
 <path id="rect5505" style="color:#000000;fill:url(#linearGradient3861)" d="m7.9062 8.5c-0.7955 0-1.4062 0.706-1.4062 1.5v16c0 0.794 0.6107 1.5 1.4062 1.5h20.188c0.795 0 1.406-0.706 1.406-1.5v-16c0-0.794-0.611-1.5-1.406-1.5h-20.188z"/>
 <path id="rect3850" style="opacity:0.31;block-progression:tb;text-indent:0;color:#000000;text-transform:none" d="m7.875 8c-1.0956 0-1.875 0.966-1.875 2v16c0 1.034 0.77943 2 1.875 2h20.219c1.095 0 1.906-0.966 1.906-2v-16c0-1.034-0.811-2-1.906-2h-20.219zm0 1h20.219c0.495 0 0.906 0.446 0.906 1v16c0 0.554-0.41077 1-0.90625 1h-20.219c-0.4955 0-0.875-0.446-0.875-1v-16c0-0.554 0.3795-1 0.875-1z"/>
 <path id="rect3868" style="opacity:.1;color:#000000;fill:url(#linearGradient3886)" d="m7.9062 9c-0.4954 0-0.9062 0.446-0.9062 1v16c0 0.554 0.4108 1 0.9062 1h20.188c0.495 0 0.906-0.446 0.906-1v-16c0-0.554-0.411-1-0.906-1h-20.188zm0.0938 1h20v16h-20v-16z"/>
 <path id="rect3863" style="opacity:.1;color:#000000;fill:#fff" d="m7.9062 9c-0.4954 0-0.9062 0.446-0.9062 1v1c0-0.554 0.4108-1 0.9062-1h20.188c0.495 0 0.906 0.446 0.906 1v-1c0-0.554-0.411-1-0.906-1h-20.188z"/>
 <path id="path3888" style="opacity:.15;color:#000000;fill:#fff" d="m7.9062 27c-0.4954 0-0.9062-0.446-0.9062-1v-1c0 0.554 0.41077 1 0.90625 1h20.188c0.495 0 0.906-0.446 0.906-1v1c0 0.554-0.41077 1-0.90625 1h-20.188z"/>
 <path id="path23417-6" d="m19.5 28c0 1.657-4.253 3-9.5 3-5.2471 0-9.5005-1.343-9.5-3-0.00043-1.657 4.2529-3 9.5-3s9.5005 1.3432 9.5 3z" style="opacity:.3;fill-rule:evenodd;fill:url(#radialGradient3826)"/>
 <path id="path4487" style="color:#000000;fill:url(#linearGradient3929)" d="m9.9688 2.5c-1.6646 0.0392-3.7198 0.1373-5.5 1.7812-0.9361 0.8645-1.2955 2.0162-1.4688 3.125-0.1715 1.098-0.1955 2.1953-0.3125 3.0938-0.0012 0.009 0.0012 0.022 0 0.031v0.063c-0.2937 4.904-0.2842 9.884 0.4687 14.812-0.0001 0.012-0.0001 0.02 0 0.032 0.0016 0.01-0.0015 0.02 0 0.031v0.062c0.2711 1.432 1.2575 2.989 3.3438 3.563 2.0115 0.553 4.522 0.57 6.875 0.031 1.295-0.297 2.693-1.125 3.187-2.656 0.001-0.001 0.028-0.062 0.032-0.094 0.001-0.011-0.001-0.022 0-0.031 0.001-0.015-0.001-0.02 0-0.032v-0.031c0.53-1.617 0.548-3.27 0.781-6.25 0.246-3.143 0.206-7.901-0.406-12.656-0.087-0.6898-0.222-1.491-0.594-2.25-0.372-0.7584-1.034-1.479-2.219-2-1.158-0.5093-2.571-0.5452-3.844-0.5938v-0.0312h-0.281-0.0622z"/>
 <path id="path3911" style="opacity:.41;block-progression:tb;text-indent:0;color:#000000;text-transform:none" d="m9.9375 2c-1.676 0.0394-3.9025 0.1738-5.8125 1.9375-1.0469 0.9667-1.4431 2.2418-1.625 3.4063-0.1729 1.1066-0.1842 2.1359-0.2812 2.9682l-0.0313 0.063v0.187c-0.2931 4.895-0.2777 9.898 0.4687 14.844-0.0002 0.018-0.0002 0.014 0 0.032v0.093c0.0016 0.011-0.0015 0.021 0 0.031v0.063c0.2966 1.567 1.4205 3.345 3.6876 3.969 2.1174 0.582 4.6962 0.556 7.1252 0 1.399-0.321 2.955-1.22 3.531-2.938h0.031c0.003-0.009-0.003-0.022 0-0.031 0.007-0.019-0.006-0.043 0-0.063 0.013-0.052 0.028-0.088 0.031-0.124 0.002-0.013 0-0.021 0-0.032 0.007-0.059 0.033-0.089 0.032-0.125 0.516-1.664 0.555-3.304 0.781-6.187 0.249-3.185 0.212-7.986-0.406-12.782-0.09-0.7107-0.245-1.567-0.657-2.4058-0.414-0.8448-1.166-1.691-2.437-2.25-1.191-0.524-2.516-0.5795-3.719-0.625l-0.031-0.0312h-0.563-0.1245zm0.0313 1c0.0127-0.0004 0.0185-0.0004 0.0312 0 1.34 0.0529 2.87 0.1107 3.969 0.5938 1.098 0.483 1.639 1.0781 1.969 1.75 0.333 0.6792 0.447 1.4252 0.531 2.0937 0.607 4.7135 0.649 9.4615 0.406 12.562-0.243 3.101-0.227 4.741-0.781 6.312-0.425 1.316-1.665 2.043-2.844 2.313-2.277 0.521-4.7194 0.524-6.625 0s-2.7233-1.89-2.9688-3.187c-0.0001-0.007-0.0001-0.025 0-0.032-0.7547-4.899-0.7624-9.878-0.4687-14.781 0.0059-0.013-0.0068-0.019 0-0.031 0.2557-1.9136-0.0256-4.4135 1.625-5.9378 1.6506-1.5242 3.503-1.6173 5.1563-1.6562z"/>
 <path id="path3892" style="color:#000000;fill:none" d="m4.8076 4.6636c-1.6506 1.5242-1.3558 4.0188-1.6115 5.9322-0.00681 0.01239-0.013174 0.02503-0.019061 0.03788-0.29366 4.9035-0.27742 9.8755 0.47728 14.774-0.0001034 0.0063-0.0001034 0.01261 0 0.01891 0.24548 1.297 1.0594 2.6737 2.965 3.198 1.9056 0.52435 4.3613 0.52454 6.638 0.0031 1.1792-0.27048 2.4009-0.99518 2.8255-2.3109 0.0019-0.0054-0.0019-0.01328 0-0.01891 0.55424-1.5719 0.54351-3.19 0.70638-4.6596 0.0065-0.0062 0.01286-0.01246 0.01907-0.01891 0.304-4.713 0.283-9.473-0.324-14.186-0.084-0.6689-0.221-1.4047-0.554-2.084-0.33-0.6719-0.869-1.2796-1.967-1.7627s-2.611-0.5331-4.1271-0.5401c-1.5156-0.007-3.3777 0.0931-5.0283 1.6174z"/>
 <path id="path3905" clip-path="url(#clipPath3925)" style="opacity:.05;block-progression:tb;text-indent:0;color:#000000;text-transform:none;fill:url(#linearGradient3937)" d="m9.9375 2c-1.676 0.0394-3.9025 0.1738-5.8125 1.9375-1.0469 0.9667-1.4431 2.2418-1.625 3.4063-0.1729 1.1066-0.1842 2.1359-0.2812 2.9682l-0.03125 0.0625v0.1875c-0.29314 4.8948-0.27772 9.8971 0.46875 14.844-0.0002832 0.01725-0.0002832 0.014 0 0.03125v0.09375c0.00159 0.01034-0.00159 0.02091 0 0.03125v0.0625c0.29655 1.5668 1.4205 3.3449 3.6875 3.9688 2.1174 0.58264 4.6958 0.55639 7.125 0 1.3995-0.32104 2.9549-1.2201 3.5312-2.9375h0.03125c0.0029-0.0088-0.0028-0.02242 0-0.03125 0.0068-0.0192-0.0066-0.04332 0-0.0625 0.0132-0.05222 0.02727-0.08878 0.03125-0.125 0.0013-0.01201-0.000844-0.02022 0-0.03125 0.0063-0.05885 0.03255-0.08962 0.03125-0.125 0.51621-1.6647 0.55563-3.3045 0.78125-6.1875 0.25-3.183 0.213-7.984-0.405-12.78-0.09-0.7107-0.245-1.567-0.657-2.4058-0.414-0.8448-1.166-1.691-2.437-2.25-1.191-0.524-2.516-0.5795-3.719-0.625l-0.031-0.0312h-0.563-0.1245zm0.03125 2c0.00884 0.0002861 0.022408 0.0002861 0.03125 0 1.3346 0.053273 2.7578 0.14602 3.5625 0.5 0.92572 0.40719 1.224 0.78235 1.4688 1.2812 0.25496 0.51976 0.39005 1.1555 0.46875 1.7812 0.59675 4.632 0.61116 9.3574 0.375 12.375-0.245 3.1306-0.26868 4.6662-0.75 6.0312-0.000033 0.000099 0.0014 0.02579 0 0.03125-0.2854 0.88427-1.1473 1.4391-2.0938 1.6562-2.124 0.48649-4.4625 0.46606-6.1562 0-1.4956-0.41155-2.0106-1.3216-2.2188-2.3125v-0.03125-0.0625c-0.7381-4.788-0.7581-9.678-0.4689-14.529 0.00142-0.01065-0.00139-0.02059 0-0.03125 0.1377-1.0535 0.1355-2.1302 0.2813-3.063 0.1472-0.9423 0.4274-1.6612 1.0312-2.2188 1.3821-1.2762 2.8508-1.3675 4.4688-1.4062z"/>
 <path id="path3952" style="opacity:.4;color:#000000;fill:url(#linearGradient3963)" d="m9.9688 3c-1.6533 0.0389-3.5057 0.132-5.1563 1.6562-1.6506 1.5243-1.3693 4.0242-1.625 5.9378-0.0068 0.012 0.0059 0.018 0 0.031-0.0962 1.607-0.1417 3.227-0.1563 4.844 5.6123-3.393 8.8458-5.375 13.407-8.1878-0.086-0.6263-0.193-1.31-0.5-1.9374-0.33-0.6719-0.871-1.267-1.969-1.75-1.099-0.4831-2.629-0.5409-3.969-0.5938-0.0127-0.0004-0.0185-0.0004-0.0312 0z"/>
 <path id="path3941" style="opacity:.1;color:#000000;fill:#fff" d="m9.9688 3c-1.6533 0.0389-3.5057 0.132-5.1563 1.6562-1.6506 1.5243-1.3693 4.0242-1.625 5.9378-0.0068 0.012 0.0059 0.018 0 0.031-0.0932 1.556-0.1391 3.123-0.1563 4.687 0.028-1.232 0.0829-2.461 0.1563-3.687 0.0059-0.013-0.0068-0.019 0-0.031 0.2557-1.9136-0.0256-4.4135 1.625-5.9378 1.6506-1.5242 3.503-1.6173 5.1563-1.6562 0.0127-0.0004 0.0185-0.0004 0.0312 0 1.34 0.0529 2.87 0.1107 3.969 0.5938 1.098 0.483 1.639 1.0781 1.969 1.75 0.333 0.6792 0.447 1.4252 0.531 2.0937 0.303 2.3565 0.48 4.7085 0.531 6.8745-0.02-2.434-0.179-5.137-0.531-7.8745-0.084-0.6685-0.198-1.4145-0.531-2.0937-0.33-0.6719-0.871-1.267-1.969-1.75-1.099-0.4831-2.629-0.5409-3.969-0.5938-0.0127-0.0004-0.0185-0.0004-0.0312 0z"/>
 <path id="path3980" style="color:#000000;fill:#fff" d="m9.9688 3c-1.6533 0.0389-3.5057 0.132-5.1563 1.6562-1.6506 1.5243-1.3693 4.0242-1.625 5.9378-0.0068 0.012 0.0059 0.018 0 0.031-0.0932 1.556-0.138 3.122-0.1563 4.687 0.0288-1.232 0.0829-2.461 0.1563-3.687 0.0059-0.013-0.0068-0.019 0-0.031 0.2557-1.9136-0.0256-4.4135 1.625-5.9378 1.6506-1.5242 3.503-1.6173 5.1563-1.6562 0.0127-0.0004 0.0185-0.0004 0.0312 0 1.34 0.0529 2.87 0.1107 3.969 0.5938 1.098 0.483 1.639 1.0781 1.969 1.75 0.333 0.6792 0.447 1.4252 0.531 2.0937 0.303 2.3565 0.475 4.7115 0.531 6.8745-0.026-2.431-0.179-5.137-0.531-7.8745-0.084-0.6685-0.198-1.4145-0.531-2.0937-0.33-0.6719-0.871-1.267-1.969-1.75-1.099-0.4831-2.629-0.5409-3.969-0.5938-0.0127-0.0004-0.0185-0.0004-0.0312 0z"/>
 <path id="path3992" style="opacity:.6;color:#000000;fill:#fff" d="m17 16.406c-0.021 0.955-0.064 1.819-0.125 2.594-0.243 3.101-0.227 4.741-0.781 6.312-0.425 1.316-1.665 2.043-2.844 2.313-2.277 0.521-4.7194 0.524-6.625 0s-2.7233-1.89-2.9688-3.187c-0.0001-0.007-0.0001-0.025 0-0.032-0.3773-2.449-0.5654-4.905-0.625-7.375 0.0288 2.802 0.197 5.596 0.625 8.375-0.0001 0.007-0.0001 0.025 0 0.032 0.2455 1.297 1.0632 2.663 2.9688 3.187s4.348 0.521 6.625 0c1.179-0.27 2.419-0.997 2.844-2.313 0.554-1.571 0.538-3.211 0.781-6.312 0.08-1.026 0.117-2.268 0.125-3.594z"/>
</svg>
