<?xml version="1.0" encoding="UTF-8" standalone="no"?>
<!-- Created with Inkscape (http://www.inkscape.org/) -->
<svg id="svg4103" xmlns:rdf="http://www.w3.org/1999/02/22-rdf-syntax-ns#" xmlns="http://www.w3.org/2000/svg" height="32" width="32" version="1.1" xmlns:cc="http://creativecommons.org/ns#" xmlns:xlink="http://www.w3.org/1999/xlink" xmlns:dc="http://purl.org/dc/elements/1.1/">
 <defs id="defs4105">
  <linearGradient id="linearGradient3984" y2="243" gradientUnits="userSpaceOnUse" x2="328" gradientTransform="matrix(0,1,-1,0,259,-296)" y1="243" x1="296">
   <stop id="stop3849" style="stop-color:#fff" offset="0"/>
   <stop id="stop3851" style="stop-color:#e8e8e8" offset="1"/>
  </linearGradient>
  <linearGradient id="linearGradient4023" y2="32" gradientUnits="userSpaceOnUse" x2="17" x1="17">
   <stop id="stop4019" style="stop-color:#fff" offset="0"/>
   <stop id="stop4021" style="stop-color:#fff;stop-opacity:0" offset="1"/>
  </linearGradient>
 </defs>
 <metadata id="metadata4108">
  <rdf:RDF>
   <cc:Work rdf:about="">
    <dc:format>image/svg+xml</dc:format>
    <dc:type rdf:resource="http://purl.org/dc/dcmitype/StillImage"/>
    <dc:title/>
   </cc:Work>
  </rdf:RDF>
 </metadata>
 <g id="layer1">
  <path id="path4149" style="opacity:.4;color:#000000" d="m18 5c-2.197 0-4.176 0.8489-5.688 2.2188l-0.218 0.1874-0.282-0.0937c-0.571-0.1987-1.184-0.3125-1.812-0.3125-3.0435 0-5.5 2.4565-5.5 5.5 0 0.31364 0.040591 0.62747 0.09375 0.9375l0.0625 0.34375-0.3125 0.1875c-2.2882 1.285-3.8438 3.718-3.8438 6.531 0 4.148 3.3519 7.5 7.5 7.5h17c3.5958 0 6.5-2.9042 6.5-6.5 0-2.9823-1.9877-5.48-4.7188-6.25l-0.4375-0.09375 0.0625-0.4375c0.058-0.401 0.094-0.805 0.094-1.219 0-4.7003-3.8-8.5-8.5-8.5z"/>
  <path id="path4147" style="opacity:.2;color:#000000" d="m18 5.5c-2.1973 0-4.1764 0.84894-5.6875 2.2188l-0.218 0.1874-0.282-0.0937c-0.571-0.1987-1.184-0.3125-1.812-0.3125-3.0435 0-5.5 2.4565-5.5 5.5 0 0.31364 0.040591 0.62747 0.09375 0.9375l0.0625 0.34375-0.3125 0.1875c-2.2882 1.285-3.8438 3.718-3.8438 6.531 0 4.1481 3.3519 7.5 7.5 7.5h17c3.5958 0 6.5-2.9042 6.5-6.5 0-2.9823-1.9877-5.48-4.7188-6.25l-0.4375-0.09375 0.0625-0.4375c0.058-0.401 0.094-0.805 0.094-1.219 0-4.7003-3.8-8.5-8.5-8.5z"/>
  <path id="path3079" style="color:#000000;fill:url(#linearGradient3984)" d="m18 4.5c-2.197 0-4.176 0.8489-5.688 2.2188l-0.218 0.1874-0.282-0.0937c-0.571-0.1987-1.184-0.3125-1.812-0.3125-3.0435 0-5.5 2.4565-5.5 5.5 0 0.314 0.0406 0.627 0.0938 0.938l0.0624 0.343-0.3124 0.188c-2.2882 1.285-3.8438 3.718-3.8438 6.531 0 4.148 3.3519 7.5 7.5 7.5h17c3.596 0 6.5-2.904 6.5-6.5 0-2.982-1.988-5.48-4.719-6.25l-0.437-0.094 0.062-0.437c0.058-0.401 0.094-0.805 0.094-1.219 0-4.7003-3.8-8.5-8.5-8.5z"/>
  <path id="path3993" style="opacity:.41;color:#000000;stroke:#000;fill:none" d="m18 4.5c-2.197 0-4.176 0.8489-5.688 2.2188l-0.218 0.1874-0.282-0.0937c-0.571-0.1987-1.184-0.3125-1.812-0.3125-3.0435 0-5.5 2.4565-5.5 5.5 0 0.314 0.0406 0.627 0.0938 0.938l0.0624 0.343-0.3124 0.188c-2.2882 1.285-3.8438 3.718-3.8438 6.531 0 4.148 3.3519 7.5 7.5 7.5h17c3.596 0 6.5-2.904 6.5-6.5 0-2.982-1.988-5.48-4.719-6.25l-0.437-0.094 0.062-0.437c0.058-0.401 0.094-0.805 0.094-1.219 0-4.7003-3.8-8.5-8.5-8.5z"/>
  <path id="path3995" style="color:#000000;fill:url(#linearGradient4023)" d="m18 5c-2.069 0-3.917 0.8008-5.344 2.0938h-0.031l-0.219 0.1874-0.187 0.1876-0.281-0.0938-0.282-0.0938c-0.522-0.1816-1.088-0.2812-1.656-0.2812-2.7744 0-5 2.2256-5 5 0 0.27 0.0429 0.547 0.0938 0.844l0.0624 0.344 0.0626 0.343-0.3126 0.188-0.3124 0.187c-2.1377 1.201-3.5938 3.465-3.5938 6.094 0 3.879 3.1213 7 7 7h17c3.327 0 6-2.673 6-6 0-2.745-1.814-5.026-4.312-5.75l-0.438-0.094-0.469-0.094 0.063-0.468 0.062-0.438c0.055-0.383 0.094-0.771 0.094-1.156 0-4.4309-3.569-8-8-8zm0 1c3.894 0 7 3.1061 7 7 0 0.318-0.043 0.646-0.094 1l-0.062 0.438v0.031l-0.063 0.469-0.125 0.906 0.938 0.187 0.437 0.094h0.031l0.344 0.094c2.084 0.603 3.594 2.476 3.594 4.781 0 2.791-2.209 5-5 5h-17c-3.3422 0-6-2.658-6-6 0-2.26 1.255-4.186 3.0938-5.219v-0.031l0.3124-0.188 0.3126-0.187 0.5937-0.344-0.125-0.687-0.0625-0.344-0.0625-0.312h0.0313c-0.0492-0.287-0.0938-0.523-0.0938-0.688 0-2.2397 1.7603-4 4-4 0.451 0 0.894 0.0734 1.312 0.2188h0.032l0.281 0.0937 0.281 0.0937 0.594 0.2188 0.438-0.4375 0.093-0.0937 0.094-0.0938 0.156-0.1562h0.031c1.26-1.1422 2.878-1.8438 4.688-1.8438z"/>
 </g>
</svg>
