<?xml version="1.0" encoding="UTF-8" standalone="no"?>
<!-- Created with Inkscape (http://www.inkscape.org/) -->
<svg id="svg5014" xmlns:rdf="http://www.w3.org/1999/02/22-rdf-syntax-ns#" xmlns="http://www.w3.org/2000/svg" height="32px" width="32px" version="1.1" xmlns:cc="http://creativecommons.org/ns#" xmlns:xlink="http://www.w3.org/1999/xlink" xmlns:dc="http://purl.org/dc/elements/1.1/">
 <defs id="defs5016">
  <linearGradient id="linearGradient5200">
   <stop id="stop5202" offset="0"/>
   <stop id="stop5204" style="stop-opacity:0" offset="1"/>
  </linearGradient>
  <radialGradient id="radialGradient5206" xlink:href="#linearGradient5200" gradientUnits="userSpaceOnUse" cy="29.5" cx="17" gradientTransform="matrix(1 0 0 .25 0 22.125)" r="10"/>
  <linearGradient id="linearGradient5304" y2="13" gradientUnits="userSpaceOnUse" x2="15" gradientTransform="translate(0,6)" y1="-1" x1="15">
   <stop id="stop5074" offset="0"/>
   <stop id="stop5076" style="stop-opacity:0" offset="1"/>
  </linearGradient>
  <linearGradient id="linearGradient5312" y2="8" gradientUnits="userSpaceOnUse" x2="24" gradientTransform="translate(0,6)" y1="8" x1="8">
   <stop id="stop5084" style="stop-color:#fff" offset="0"/>
   <stop id="stop5086" style="stop-color:#fff;stop-opacity:.74902" offset=".46633"/>
   <stop id="stop5088" style="stop-color:#fff;stop-opacity:0" offset=".67678"/>
   <stop id="stop5090" style="stop-color:#fff;stop-opacity:0" offset="1"/>
  </linearGradient>
  <linearGradient id="linearGradient5316" gradientUnits="userSpaceOnUse" x2="20" gradientTransform="translate(0,6)" y1="20" x1="20">
   <stop id="stop4937" style="stop-color:#e5cf08" offset="0"/>
   <stop id="stop4977" style="stop-color:#e9d414" offset=".5"/>
   <stop id="stop4939" style="stop-color:#fff279" offset="1"/>
  </linearGradient>
  <linearGradient id="linearGradient5319" y2="12" gradientUnits="userSpaceOnUse" x2="0" gradientTransform="translate(0,6)" y1="12" x1="32">
   <stop id="stop4929" style="stop-color:#c09e06" offset="0"/>
   <stop id="stop4931" style="stop-color:#b99b13" offset="1"/>
  </linearGradient>
 </defs>
 <metadata id="metadata5019">
  <rdf:RDF>
   <cc:Work rdf:about="">
    <dc:format>image/svg+xml</dc:format>
    <dc:type rdf:resource="http://purl.org/dc/dcmitype/StillImage"/>
    <dc:title/>
   </cc:Work>
  </rdf:RDF>
 </metadata>
 <g id="layer1">
  <path id="path5198" style="opacity:.2;fill:url(#radialGradient5206)" d="m27 29.5a10 2.5 0 1 1 -20 0 10 2.5 0 1 1 20 0z" transform="matrix(1.25 0 0 .8 -4.75 1.4)"/>
  <path id="path5208" style="opacity:.2;fill:url(#radialGradient5206)" d="m27 29.5a10 2.5 0 1 1 -20 0 10 2.5 0 1 1 20 0z" transform="matrix(.9 0 0 .4 .7 13.2)"/>
  <path id="path4925" style="stroke:url(#linearGradient5319);stroke-width:3;fill:none" d="m13 9s-2 2-10 2c0 12 6 12 6 12 4 0 5-3 7-3s3 3 8 3c0 0 5 0 5-12-9 0-10-2-10-2-1 0-1 2-3 2s-2-2-3-2z"/>
  <path id="path4923" style="stroke:url(#linearGradient5316);stroke-width:2;fill:none" d="m13 9s-2 2-10 2c0 12 6 12 6 12 4 0 5-3 7-3s3 3 8 3c0 0 5 0 5-12-9 0-10-2-10-2-1 0-1 2-3 2s-2-2-3-2z"/>
  <path id="path4915" style="fill:#a161ab" d="m13 9s-2 2-10 2c0 12 6 12 6 12 4 0 5-3 7-3s3 3 8 3c0 0 5 0 5-12-9 0-10-2-10-2-1 0-1 2-3 2s-2-2-3-2zm-4.2188 5.719c1.3678-0.131 3.0308 0.435 5.2188 2.281-1.079 1.074-2.334 1.865-4 2-2.5292-0.226-3.4563-1.489-4-3 0.8356-0.653 1.7173-1.179 2.7812-1.281zm13.969 0c1.275-0.026 2.295 0.535 3.25 1.281-0.54375 1.5109-1.4708 2.7738-4 3-1.6658-0.1348-2.9213-0.92589-4-2 1.9447-1.6412 3.4749-2.2551 4.75-2.2812z"/>
  <path id="path4943" style="opacity:.5;fill:url(#linearGradient5312)" d="m13 9s-0.863 0.8464-3.625 1.438c1.347 0.486 4.806 1.422 5.625 2.562 2.098 3.257-1.096 7.577-3.906 9.688 2.357-0.772 3.309-2.688 4.906-2.688 1.5965 0 2.5494 1.9162 4.9062 2.6875-2.81-2.111-6.004-6.431-3.906-9.688 0.819-1.14 4.278-2.076 5.625-2.562-2.762-0.5916-3.625-1.438-3.625-1.438-1 0-1 2-3 2s-2-2-3-2z"/>
  <path id="path4968" style="stroke:#4d1556;fill:none" d="m8.7812 14.719c1.3678-0.131 3.0308 0.435 5.2188 2.281-1.079 1.074-2.334 1.865-4 2-2.5292-0.226-3.4563-1.489-4-3 0.8356-0.653 1.7173-1.179 2.7812-1.281zm13.969 0c1.275-0.026 2.295 0.535 3.25 1.281-0.54375 1.5109-1.4708 2.7738-4 3-1.6658-0.1348-2.9213-0.92589-4-2 1.9447-1.6412 3.4749-2.2551 4.75-2.2812z"/>
  <path id="path4987" style="opacity:.2;fill:#fff" d="m11.031 10c-0.458 0.156-0.995 0.296-1.656 0.438 1.347 0.486 4.806 1.422 5.625 2.562 0.36336 0.56404 0.54958 1.1705 0.625 1.7812 0.089-0.962-0.063-1.908-0.625-2.781-0.575-0.801-2.436-1.486-3.969-2z"/>
  <path id="path4996" d="m20.812 10.031c0.45785 0.15571 0.99483 0.29594 1.6562 0.4375-1.3474 0.48687-4.8056 1.4224-5.625 2.5625-0.36336 0.56404-0.54958 1.1705-0.625 1.7812-0.08858-0.96247 0.06273-1.9084 0.625-2.7812 0.57538-0.80056 2.4356-1.4857 3.9688-2z" style="opacity:.1;fill:#fff"/>
  <path id="path5021" style="opacity:.4;block-progression:tb;text-indent:0;color:#000000;text-transform:none" d="m8.8438 15.219c-0.7789 0.07459-1.4502 0.52187-2.125 1 0.057443 0.12993 0.12701 0.24969 0.1875 0.375 0.61241-0.42587 1.2309-0.80734 1.9375-0.875 1.0054-0.09628 2.3222 0.36723 3.9688 1.5625 0.11152-0.08804 0.23494-0.15578 0.34375-0.25-1.8239-1.4039-3.2332-1.9159-4.3125-1.8125zm13.906 0c-1.0055 0.02064-2.2978 0.57437-3.9062 1.8125 0.10881 0.09422 0.23223 0.16196 0.34375 0.25 1.4437-1.0507 2.6326-1.5434 3.5625-1.5625 0.89724-0.01842 1.6432 0.34705 2.375 0.84375 0.06043-0.12439 0.13124-0.24502 0.1875-0.375-0.79211-0.56198-1.589-0.98873-2.5625-0.96875z"/>
  <path id="path5023" style="opacity:.4;block-progression:tb;text-indent:0;color:#000000;text-transform:none;fill:#fff" d="m5.7188 16.562c-0.011543 0.009-0.019741 0.02226-0.03125 0.03125l-0.28125 0.25 0.125 0.3125c0.2875 0.79888 0.70252 1.6099 1.4062 2.2188 0.70373 0.60888 1.6898 1.005 3.0312 1.125h0.03125 0.03125c1.8024-0.14586 3.1833-1.0319 4.3125-2.1562l0.406-0.375-0.438-0.344c-0.053-0.045-0.102-0.081-0.156-0.125-0.894 0.85-1.934 1.542-3.218 1.844-0.291 0.068-0.591 0.13-0.907 0.156h-0.031c-0.0114-0.001-0.02 0.001-0.0312 0-0.2683-0.024-0.5096-0.079-0.75-0.125-0.9618-0.182-1.7183-0.513-2.2813-1-0.5816-0.503-0.9406-1.154-1.2187-1.813zm20.562 0.03125c-0.27729 0.64901-0.645 1.2848-1.2188 1.7812-0.56298 0.4871-1.3195 0.81768-2.2812 1-0.239 0.056-0.49 0.098-0.781 0.126h-0.03125c-0.316-0.026-0.616-0.088-0.907-0.156-1.284-0.302-2.324-0.994-3.218-1.844-0.053 0.044-0.103 0.08-0.156 0.125l-0.4375 0.34375 0.40625 0.375c1.1292 1.1244 2.5101 2.0104 4.3125 2.1562h0.03125 0.03125c1.3415-0.11996 2.3275-0.51612 3.0312-1.125 0.70373-0.60888 1.1188-1.4199 1.4062-2.2188l0.125-0.3125-0.28125-0.25c-0.0066-0.0051-0.02468 0.0051-0.03125 0z"/>
  <path id="path5069" style="opacity:.2;fill:url(#linearGradient5304)" d="m10.969 10c-0.315 0.104-0.688 0.213-1.094 0.312 0.411-0.101 0.776-0.206 1.094-0.312zm-1.594 0.438c-1.5042 0.321-3.5542 0.562-6.375 0.562 0 12 6 12 6 12 0.8069 0 1.498-0.118 2.094-0.312 0.011-0.009 0.02-0.023 0.031-0.032 2.802-2.12 5.965-6.412 3.875-9.656-0.819-1.14-4.278-2.076-5.625-2.562zm13.094 0.03125c-1.421 0.497-4.673 1.423-5.469 2.531-2.0052 3.1127 0.82343 7.1767 3.5312 9.375 0.904 0.364 2.004 0.625 3.469 0.625 0 0 5 0 5-12-2.9947 0-5.0502-0.23574-6.5312-0.53125zm-13.688 4.25c1.368-0.131 3.031 0.435 5.219 2.281-1.079 1.074-2.334 1.865-4 2-2.5292-0.226-3.4563-1.489-4-3 0.8356-0.653 1.7173-1.179 2.7812-1.281zm13.969 0c1.275-0.026 2.295 0.535 3.25 1.281-0.54375 1.5109-1.4708 2.7738-4 3-1.6658-0.1348-2.9213-0.92589-4-2 1.9447-1.6412 3.4749-2.2551 4.75-2.2812z"/>
  <path id="path5093" style="opacity:.5;stroke:#fff;stroke-width:.5;fill:none" d="m15.75 20v-4.0087-3.991"/>
  <path id="path5106" style="opacity:.1" d="m3 11c0 12 6 12 6 12 2.7925 0.47618 5.0775-2.9167 7-3 3.9706 1.6739 4.064 2.9735 8 3 0 0 5 0 5-12-0.01127 0-0.02001 0.000007-0.03125 0-0.277 10.972-4.969 11-4.969 11-3.98 0.069-4.967-2.041-8-3-2.974 1.204-3.97 2.779-7 3 0 0-5.6362-0.028-5.9688-11h-0.0312z"/>
  <path id="path5116" style="opacity:.1" d="m13 9c-2.6433 1.6862-6.9171 1.9901-10 2 0 0.35296 0.021174 0.6675 0.03125 1 3.4638-0.15633 6.9948-0.08517 9.9688-2 1 0 1 2 3 2s2-2 3-2c2.819 1.6588 6.291 1.9867 9.9688 2 0.008-0.333 0.031-0.647 0.031-1-3.714-0.151-6.899-0.015-10-2-1 0-1 2-3 2s-2-2-3-2zm-6.6875 7.75c-0.1088 0.079-0.2055 0.166-0.3125 0.25 0.54375 1.5109 1.4708 2.7738 4 3 1.6658-0.1348 2.9213-0.92589 4-2-0.207-0.175-0.396-0.317-0.594-0.469-0.946 0.793-2.034 1.358-3.406 1.469-2.0977-0.188-3.0986-1.086-3.6875-2.25zm19.344 0c-0.59 1.157-1.567 2.063-3.656 2.25-1.372-0.111-2.46-0.676-3.406-1.469-0.193 0.149-0.393 0.299-0.594 0.469 1.0787 1.0741 2.3342 1.8652 4 2 2.5292-0.22618 3.4563-1.4891 4-3-0.11353-0.08868-0.22806-0.16721-0.34375-0.25zm-7.9688 3.5c0.23546 0.36204 0.50659 0.69632 0.78125 1.0312-0.273-0.333-0.546-0.674-0.78-1.031z"/>
  <path id="path5330" d="m12.375 7.5-0.4375 0.4375s0.05537-0.033221-0.15625 0.09375-0.59487 0.31287-1.25 0.53125c-1.311 0.4368-3.657 0.9375-7.532 0.9375h-1.5v1.5c0 6.25 1.5839 9.7089 3.4375 11.562 0.92678 0.92678 1.904 1.4368 2.6562 1.6875 0.7523 0.251 1.4063 0.25 1.4063 0.25 2.375 0 4.0602-0.9905 5.1562-1.8125 0.548-0.411 0.97129-0.76949 1.2812-0.96875 0.31-0.2 0.438-0.219 0.563-0.219s0.2544 0.03937 0.59375 0.25 0.811 0.58233 1.4375 1c1.253 0.835 3.169 1.75 5.969 1.75 0 0 0.66156-0.0084 1.3438-0.28125 0.68219-0.27288 1.5301-0.81109 2.3125-1.75 1.565-1.878 2.844-5.261 2.844-11.469v-1.5h-1.5c-4.389 0-6.747-0.4961-7.875-0.9062-0.541-0.1966-0.782-0.3346-0.875-0.4063-0.0013-0.00101 0.0012-0.03028 0-0.03125-0.0027-0.00414-0.02889 0.00343-0.03125 0-0.041-0.032804-0.02469-0.061309 0-0.03125l-0.281-0.625h-0.938c-0.75 0-1.404 0.4692-1.719 0.8125-0.314 0.3433-0.454 0.5953-0.593 0.7813-0.28 0.372-0.188 0.4062-0.688 0.4062s-0.408-0.0342-0.688-0.4062c-0.139-0.186-0.279-0.438-0.593-0.7813-0.315-0.3433-0.969-0.8125-1.719-0.8125z" style="opacity:.41;block-progression:tb;text-indent:0;color:#000000;stroke:#000;text-transform:none;fill:none"/>
 </g>
</svg>
