<?xml version="1.0" encoding="UTF-8" standalone="no"?>
<!-- Created with Inkscape (http://www.inkscape.org/) -->
<svg id="svg4248" xmlns:rdf="http://www.w3.org/1999/02/22-rdf-syntax-ns#" xmlns="http://www.w3.org/2000/svg" height="32" width="32" version="1.1" xmlns:cc="http://creativecommons.org/ns#" xmlns:xlink="http://www.w3.org/1999/xlink" xmlns:dc="http://purl.org/dc/elements/1.1/">
 <defs id="defs4250">
  <linearGradient id="linearGradient3413">
   <stop id="stop3415" style="stop-color:#ddd" offset="0"/>
   <stop id="stop3417" style="stop-color:#f2f2f2" offset="1"/>
  </linearGradient>
  <linearGradient id="linearGradient3921" y2="42" gradientUnits="userSpaceOnUse" x2="25" gradientTransform="translate(-7 -14)" y1="45" x1="25">
   <stop id="stop3962" style="stop-opacity:0" offset="0"/>
   <stop id="stop3970" offset=".5"/>
   <stop id="stop3964" style="stop-opacity:0" offset="1"/>
  </linearGradient>
  <radialGradient id="radialGradient3924" gradientUnits="userSpaceOnUse" cy="43.5" cx="9" gradientTransform="matrix(1 0 0 .75 -6 -3.125)" r="2">
   <stop id="stop3946" offset="0"/>
   <stop id="stop3948" style="stop-opacity:0" offset="1"/>
  </radialGradient>
  <radialGradient id="radialGradient3927" gradientUnits="userSpaceOnUse" cy="43.5" cx="40" gradientTransform="matrix(1 0 0 .75 -11 -3.125)" r="2">
   <stop id="stop3954" offset="0"/>
   <stop id="stop3956" style="stop-opacity:0" offset="1"/>
  </radialGradient>
  <linearGradient id="linearGradient4271" y2="16" xlink:href="#linearGradient3413" gradientUnits="userSpaceOnUse" x2="29.5" gradientTransform="matrix(0,-1,1,0,0,32)" y1="16" x1="2.5"/>
  <linearGradient id="linearGradient4286" y2="16" gradientUnits="userSpaceOnUse" x2="29.5" gradientTransform="matrix(0,-1,1,0,0,32)" y1="16" x1="2.5">
   <stop id="stop3864-8-6-0-7" style="stop-color:#c23021" offset="0"/>
   <stop id="stop3866-9-1-7-6" style="stop-color:#e74c3c" offset="1"/>
  </linearGradient>
  <clipPath id="clipPath4307" clipPathUnits="userSpaceOnUse">
   <path id="path4309" style="color:#000000;fill:#36e12b" d="m168 265c-3.866 0-7 3.134-7 7s3.134 7 7 7 7-3.134 7-7-3.134-7-7-7zm3.3125 3.0625 1.5625 1.4062-5.25 6.9375-4.0625-3.5 1.3438-1.7812 2.375 2.0625 4.0312-5.125z"/>
  </clipPath>
  <linearGradient id="linearGradient3039" y2="264" xlink:href="#linearGradient3413" gradientUnits="userSpaceOnUse" y1="280" gradientTransform="matrix(.92857 0 0 .92857 -131 -227.57)" x2="168" x1="168"/>
 </defs>
 <metadata id="metadata4253">
  <rdf:RDF>
   <cc:Work rdf:about="">
    <dc:format>image/svg+xml</dc:format>
    <dc:type rdf:resource="http://purl.org/dc/dcmitype/StillImage"/>
    <dc:title/>
   </cc:Work>
  </rdf:RDF>
 </metadata>
 <g id="layer1">
  <g id="g3930">
   <path id="rect3940" d="m29 28v3h0.5c0.831 0 1.5-0.669 1.5-1.5s-0.669-1.5-1.5-1.5h-0.5z" style="opacity:.3;fill:url(#radialGradient3927)"/>
   <path id="rect3942" d="m2.4062 28c-0.779 0-1.4062 0.627-1.4062 1.406v0.1875c0 0.77906 0.62719 1.4062 1.4062 1.4062h0.59375v-3h-0.59375z" style="opacity:.3;fill:url(#radialGradient3924)"/>
   <path id="rect3938" d="m2.9999 28h26v3l-26-0.000001z" style="opacity:.3;fill:url(#linearGradient3921)"/>
  </g>
  <path id="path4269" style="fill:url(#linearGradient4271);fill-rule:evenodd" d="m2.5 9v19c0 0.831 0.669 1.5 1.5 1.5h24c0.831 0 1.5-0.669 1.5-1.5v-19h-27z"/>
  <path id="path3951" style="opacity:.1;fill:#fff;fill-rule:evenodd" d="m4 3c-0.5626 0-1 0.4374-1 1v24c0 0.563 0.4374 1 1 1h24c0.563 0 1-0.437 1-1v-24c0-0.5626-0.437-1-1-1h-24zm0 1h24v24h-24v-24z"/>
  <path id="path3949" style="opacity:.1;fill:#fff;fill-rule:evenodd" d="m4 29c-0.5626 0-1-0.437-1-1v-1c0 0.56265 0.43735 1 1 1h24c0.56265 0 1-0.43735 1-1v1c0 0.56265-0.43735 1-1 1h-24z"/>
  <path id="path4275" style="opacity:0.41;block-progression:tb;text-indent:0;color:#000000;text-transform:none" d="m2 9v19c0 1.099 0.9006 2 2 2h24c1.099 0 2-0.901 2-2v-19h-1v19c0 0.563-0.437 1-1 1h-24c-0.5626 0-1-0.437-1-1v-19h-1z"/>
  <path id="rect3894" style="fill:url(#linearGradient4286);fill-rule:evenodd" d="m4 2.5c-0.831 0-1.5 0.669-1.5 1.5v5h27v-5c0-0.831-0.669-1.5-1.5-1.5h-24z"/>
  <path id="path3935" style="opacity:.1;fill:#fff;fill-rule:evenodd" d="m4 3c-0.5626 0-1 0.4374-1 1v1c0-0.5626 0.4374-1 1-1h24c0.563 0 1 0.4374 1 1v-1c0-0.5626-0.437-1-1-1h-24z"/>
  <path id="path3906" style="opacity:.61;block-progression:tb;text-indent:0;color:#000000;text-transform:none;fill:#8f0202" d="m4 2c-1.0994 0-2 0.9006-2 2v5h1v-5c0-0.5626 0.4374-1 1-1h24c0.563 0 1 0.4374 1 1v5h1v-5c0-1.0994-0.901-2-2-2h-24z"/>
  <g id="g3925" transform="translate(3,-24)">
   <path id="path3863" style="opacity:.2;fill:#fff" d="m10 9c0 0.5523-0.4477 1-1 1s-1-0.4477-1-1 0.4477-1 1-1c0.55228 0 1 0.44772 1 1z" transform="matrix(.5 0 0 .5 -1 26)"/>
   <path id="path3859" style="fill:#ad3125" d="m10 9c0 0.5523-0.4477 1-1 1s-1-0.4477-1-1 0.4477-1 1-1c0.55228 0 1 0.44772 1 1z" transform="matrix(.5 0 0 .5 -1 25)"/>
  </g>
  <rect id="rect3921" style="fill:#ad3125" rx="0" ry="1" height="1" width="27" y="8" x="2.5"/>
  <rect id="rect3923" style="opacity:.4;fill:#fff" rx="0" ry="1" height="1" width="27" y="9" x="2.5"/>
  <g id="g3929" transform="translate(22,-24)">
   <path id="path3931" style="opacity:.2;fill:#fff" d="m10 9c0 0.5523-0.4477 1-1 1s-1-0.4477-1-1 0.4477-1 1-1c0.55228 0 1 0.44772 1 1z" transform="matrix(.5 0 0 .5 -1 26)"/>
   <path id="path3933" style="fill:#ad3125" d="m10 9c0 0.5523-0.4477 1-1 1s-1-0.4477-1-1 0.4477-1 1-1c0.55228 0 1 0.44772 1 1z" transform="matrix(.5 0 0 .5 -1 25)"/>
  </g>
 </g>
 <g id="layer2">
  <path id="path3106" style="opacity:.2;fill:#fff" d="m5 13v1 12h1 2 1 18v-1-2-1-2-1-2-1-2-1h-19-2-1zm1 1h2v2h-2v-2zm3 0h2v2h-2v-2zm3 0h2v2h-2v-2zm3 0h2v2h-2v-2zm3 0h2v2h-2v-2zm3 0h2v2h-2v-2zm3 0h2v2h-2v-2zm-18 3h2v2h-2v-2zm3 0h2v2h-2v-2zm3 0h2v2h-2v-2zm3 0h2v2h-2v-2zm3 0h2v2h-2v-2zm3 0h2v2h-2v-2zm3 0h2v2h-2v-2zm-18 3h2v2h-2v-2zm3 0h2v2h-2v-2zm3 0h2v2h-2v-2zm3 0h2v2h-2v-2zm3 0h2v2h-2v-2zm3 0h2v2h-2v-2zm3 0h2v2h-2v-2zm-18 3h2v2h-2v-2zm3 0h2v2h-2v-2zm3 0h2v2h-2v-2zm3 0h2v2h-2v-2zm3 0h2v2h-2v-2zm3 0h2v2h-2v-2zm3 0h2v2h-2v-2z"/>
  <path id="rect4307" style="fill:#bbb" d="m5 12v1 12h1 2 1 18v-1-2-1-2-1-2-1-2-1h-19-2-1zm1 1h2v2h-2v-2zm3 0h2v2h-2v-2zm3 0h2v2h-2v-2zm3 0h2v2h-2v-2zm3 0h2v2h-2v-2zm3 0h2v2h-2v-2zm3 0h2v2h-2v-2zm-18 3h2v2h-2v-2zm3 0h2v2h-2v-2zm3 0h2v2h-2v-2zm3 0h2v2h-2v-2zm3 0h2v2h-2v-2zm3 0h2v2h-2v-2zm3 0h2v2h-2v-2zm-18 3h2v2h-2v-2zm3 0h2v2h-2v-2zm3 0h2v2h-2v-2zm3 0h2v2h-2v-2zm3 0h2v2h-2v-2zm3 0h2v2h-2v-2zm3 0h2v2h-2v-2zm-18 3h2v2h-2v-2zm3 0h2v2h-2v-2zm3 0h2v2h-2v-2zm3 0h2v2h-2v-2zm3 0h2v2h-2v-2zm3 0h2v2h-2v-2zm3 0h2v2h-2v-2z"/>
  <path id="path2922-6-6-0" d="m25 18.5c-3.5898 0-6.5 2.9102-6.5 6.5s2.9102 6.5 6.5 6.5c3.5899 0 6.5-2.9102 6.5-6.5s-2.9101-6.5-6.5-6.5z" style="color:#000000;fill:url(#linearGradient3039)"/>
  <path id="path4303" style="opacity:.41;stroke-width:2;color:#000000;stroke:#000;fill:none" d="m168 265c-3.866 0-7 3.134-7 7s3.134 7 7 7 7-3.134 7-7-3.134-7-7-7z" clip-path="url(#clipPath4307)" transform="matrix(0,-1,-1,0,297,193)"/>
  <path id="path3837" style="opacity:.2;color:#000000" d="m25 32c-3.3256 0-6-2.6744-6-6 0-0.12492 0.02381-0.25203 0.03125-0.375 0.306 3.034 2.851 5.375 5.969 5.375s5.663-2.341 5.969-5.375c0.007 0.123 0.031 0.25 0.031 0.375 0 3.3256-2.6744 6-6 6z"/>
  <path id="path3822" style="opacity:.4;color:#000000;fill:#fff" d="m25 19c-3.3256 0-6 2.6744-6 6 0 0.12492 0.02381 0.25203 0.03125 0.375 0.306-3.034 2.851-5.375 5.969-5.375 3.1177 0 5.6627 2.341 5.9688 5.375 0.007-0.123 0.031-0.25 0.031-0.375 0-3.326-2.674-6-6-6z"/>
  <path id="path4417" style="opacity:.6;stroke:#000;stroke-linecap:round;stroke-width:.5;fill:none" d="m24.75 20.25v5h4"/>
 </g>
</svg>
