<?xml version="1.0" encoding="UTF-8" standalone="no"?>
<!-- Created with Inkscape (http://www.inkscape.org/) -->
<svg id="svg4248" xmlns:rdf="http://www.w3.org/1999/02/22-rdf-syntax-ns#" xmlns="http://www.w3.org/2000/svg" height="32" width="32" version="1.1" xmlns:cc="http://creativecommons.org/ns#" xmlns:xlink="http://www.w3.org/1999/xlink" xmlns:dc="http://purl.org/dc/elements/1.1/">
 <defs id="defs4250">
  <radialGradient id="radialGradient3755" gradientUnits="userSpaceOnUse" cy="38.909" cx="24.85" gradientTransform="matrix(1 0 0 .37 0 24.512)" r="20.203">
   <stop id="stop26115-7-7-9" offset="0"/>
   <stop id="stop26117-3-7-8" style="stop-opacity:0" offset="1"/>
  </radialGradient>
  <radialGradient id="radialGradient3972" gradientUnits="userSpaceOnUse" cx="24.85" cy="38.909" r="20.203" gradientTransform="matrix(1.0085 0 0 .37315 -.21140 24.39)">
   <stop id="stop26123-4-7-8" offset="0"/>
   <stop id="stop26125-3-9-9" style="stop-opacity:0" offset="1"/>
  </radialGradient>
  <linearGradient id="linearGradient3902" y2="16" gradientUnits="userSpaceOnUse" x2="31" gradientTransform="matrix(0 -1 1 0 5e-7 32)" y1="16" x1="1">
   <stop id="stop3906" style="stop-color:#234683" offset="0"/>
   <stop id="stop3908" style="stop-color:#30589e" offset="1"/>
  </linearGradient>
  <radialGradient id="radialGradient4393" gradientUnits="userSpaceOnUse" cx="24" cy="12" r="19.5" gradientTransform="matrix(-1.0677 0 0 -1.3557 41.625 23.345)">
   <stop id="stop3864-8-6-1-0" style="stop-color:#0097ff" offset="0"/>
   <stop id="stop4375-1" style="stop-color:#006cd9" offset=".75"/>
   <stop id="stop3866-9-1-1-7" style="stop-color:#1148c1" offset="1"/>
  </radialGradient>
 </defs>
 <metadata id="metadata4253">
  <rdf:RDF>
   <cc:Work rdf:about="">
    <dc:format>image/svg+xml</dc:format>
    <dc:type rdf:resource="http://purl.org/dc/dcmitype/StillImage"/>
    <dc:title/>
   </cc:Work>
  </rdf:RDF>
 </metadata>
 <g id="layer1">
  <path id="path8606" style="filter:url(#filter5927);enable-background:new;fill:url(#radialGradient3972)" d="m45.053 38.909a20.203 7.4751 0 1 1 -40.406 0 20.203 7.4751 0 1 1 40.406 0z" transform="matrix(.51082 0 0 .46596 3.1705 10.024)"/>
  <path id="path8608" style="opacity:.51837;filter:url(#filter5788);enable-background:new;fill:url(#radialGradient3755)" d="m45.053 38.909a20.203 7.4751 0 1 1 -40.406 0 20.203 7.4751 0 1 1 40.406 0z" transform="matrix(.69053 0 0 .62989 -1.2951 3.2833)"/>
  <path id="path6495" d="m1.5 15.999c0 8.009 6.4924 14.501 14.5 14.501 8.008 0 14.5-6.492 14.5-14.501 0-8.0075-6.492-14.499-14.5-14.499-8.0076 0-14.5 6.4915-14.5 14.499z" style="fill:url(#radialGradient4393)"/>
  <path id="path3866" style="opacity:.91;color:#000000;stroke:url(#linearGradient3902);fill:none" d="m30.5 16c0 8.0006-6.4994 14.5-14.5 14.5s-14.5-6.4994-14.5-14.5 6.4994-14.5 14.5-14.5 14.5 6.4994 14.5 14.5z"/>
  <path id="path3101" style="opacity:.2;color:#000000;fill:#fff" d="m16 2c-7.7298 0-14 6.2702-14 14 0 0.168 0.0254 0.333 0.0312 0.5 0.2647-7.4973 6.4072-13.5 13.969-13.5 7.562 0 13.704 6.0027 13.969 13.5 0.006-0.167 0.031-0.332 0.031-0.5 0-7.7298-6.27-14-14-14z"/>
 </g>
 <g id="layer2">
  <g id="g3053" transform="translate(-19.548,5.5)">
   <path id="path3850" d="m33.033 17.248c0-0.41512 0.05957-0.76586 0.17874-1.0532 0.11915-0.28636 0.28443-0.51795 0.4968-0.69476 0.21141-0.17682 0.46125-0.30462 0.74857-0.38437 0.28636-0.0788 0.5929-0.11916 0.91961-0.11916 0.30943 0 0.60347 0.04035 0.88118 0.11916 0.27772 0.07975 0.52276 0.20756 0.73512 0.38437 0.21141 0.17681 0.37862 0.4084 0.50257 0.69476 0.12396 0.28732 0.18546 0.63806 0.18546 1.0532 0 0.39783-0.0615 0.738-0.18546 1.0205-0.12396 0.28156-0.29116 0.51698-0.50257 0.70245-0.21236 0.1845-0.45741 0.31904-0.73512 0.40359-0.278 0.083-0.572 0.125-0.881 0.125-0.32671 0-0.63326-0.04228-0.91961-0.12588-0.28732-0.08456-0.53716-0.21909-0.74857-0.40359-0.21237-0.18546-0.37765-0.42089-0.4968-0.70245-0.11916-0.28252-0.17874-0.62269-0.17874-1.0205m0.43722-4.5299v-0.97919c0-0.45068 0.04615-0.85908 0.13934-1.2252 0.09225-0.36708 0.23351-0.71494 0.42378-1.0465 0.1893-0.33056 0.43434-0.65344 0.73415-0.9667 0.30078-0.31327 0.66305-0.63806 1.0868-0.97343 0.37092-0.29116 0.68418-0.55158 0.93979-0.78221 0.25658-0.2287 0.46317-0.45644 0.62269-0.68226 0.15855-0.22486 0.27386-0.46029 0.34402-0.70725 0.07107-0.24792 0.10666-0.53524 0.10666-0.861 0-0.50354-0.17105-0.91962-0.51026-1.2454-0.34017-0.32672-0.85908-0.49007-1.5567-0.49007-0.60828 0-1.2646 0.1278-1.967 0.38341-0.70052 0.25656-1.428 0.56984-2.1784 0.94075l-1.35-2.9273c0.37861-0.22101 0.79182-0.4305 1.2377-0.62845 0.44684-0.19892 0.91-0.37573 1.3905-0.53044 0.48143-0.15375 0.96959-0.27579 1.4635-0.3642 0.495-0.08839 0.98-0.1326 1.457-0.1326 0.90039 0 1.7124 0.10859 2.436 0.32479 0.72455 0.21621 1.3386 0.5314 1.8412 0.94653 0.50449 0.41512 0.88982 0.91961 1.1589 1.5106 0.27 0.5919 0.405 1.2665 0.405 2.0257 0 0.55638-0.06246 1.0532-0.18545 1.4904-0.123 0.43723-0.3075 0.84371-0.5487 1.2185-0.24408 0.37572-0.5487 0.738-0.91481 1.0859-0.36612 0.34882-0.79278 0.71782-1.278 1.106-0.37092 0.29116-0.67362 0.54581-0.90808 0.76202-0.23351 0.21622-0.41705 0.42186-0.54869 0.615-0.13261 0.19507-0.22294 0.39591-0.27195 0.60347-0.04807 0.20661-0.07303 0.45164-0.07303 0.73416v0.79469h-3.4959z" style="opacity:.3;enable-background:new"/>
   <path id="path4055" style="enable-background:new;fill:#fff" d="m33.033 18.248c0-0.41512 0.05957-0.76586 0.17874-1.0532 0.11915-0.28636 0.28443-0.51795 0.4968-0.69476 0.21141-0.17682 0.46125-0.30462 0.74857-0.38437 0.28636-0.0788 0.5929-0.11916 0.91961-0.11916 0.30943 0 0.60347 0.04035 0.88118 0.11916 0.27772 0.07975 0.52276 0.20756 0.73512 0.38437 0.21141 0.17681 0.37862 0.4084 0.50257 0.69476 0.12396 0.28732 0.18546 0.63806 0.18546 1.0532 0 0.39783-0.0615 0.738-0.18546 1.0205-0.12396 0.28156-0.29116 0.51698-0.50257 0.70245-0.21236 0.1845-0.45741 0.31904-0.73512 0.40359-0.278 0.083-0.572 0.125-0.881 0.125-0.32671 0-0.63326-0.04228-0.91961-0.12588-0.28732-0.08456-0.53716-0.21909-0.74857-0.40359-0.21237-0.18546-0.37765-0.42089-0.4968-0.70245-0.11916-0.28252-0.17874-0.62269-0.17874-1.0205m0.43722-4.5299v-0.97919c0-0.45068 0.04615-0.85908 0.13934-1.2252 0.09225-0.36708 0.23351-0.71494 0.42378-1.0465 0.1893-0.33056 0.43434-0.65344 0.73415-0.9667 0.30078-0.31327 0.66305-0.63806 1.0868-0.97343 0.37092-0.29116 0.68418-0.55158 0.93979-0.78221 0.25658-0.2287 0.46317-0.45644 0.62269-0.68226 0.15855-0.22486 0.27386-0.46029 0.34402-0.70725 0.07107-0.24792 0.10666-0.53524 0.10666-0.861 0-0.50354-0.17105-0.91962-0.51026-1.2454-0.34017-0.32672-0.85908-0.49007-1.5567-0.49007-0.60828 0-1.2646 0.1278-1.967 0.38341-0.70052 0.25656-1.428 0.56984-2.1784 0.94075l-1.35-2.9273c0.37861-0.22101 0.79182-0.4305 1.2377-0.62845 0.44684-0.19892 0.91-0.37573 1.3905-0.53044 0.48143-0.15375 0.96959-0.27579 1.4635-0.3642 0.495-0.08839 0.98-0.1326 1.457-0.1326 0.90039 0 1.7124 0.10859 2.436 0.32479 0.72455 0.21621 1.3386 0.5314 1.8412 0.94653 0.50449 0.41512 0.88982 0.91961 1.1589 1.5106 0.27 0.5919 0.405 1.2665 0.405 2.0257 0 0.55638-0.06246 1.0532-0.18545 1.4904-0.123 0.43723-0.3075 0.84371-0.5487 1.2185-0.24408 0.37572-0.5487 0.738-0.91481 1.0859-0.36612 0.34882-0.79278 0.71782-1.278 1.106-0.37092 0.29116-0.67362 0.54581-0.90808 0.76202-0.23351 0.21622-0.41705 0.42186-0.54869 0.615-0.13261 0.19507-0.22294 0.39591-0.27195 0.60347-0.04807 0.20661-0.07303 0.45164-0.07303 0.73416v0.79469h-3.4959z"/>
  </g>
 </g>
</svg>
