<svg xmlns="http://www.w3.org/2000/svg" viewBox="0 0 256 256"><g transform="translate(0 -796.36)"><path d="m 182.83 797.33 c -368.15 -25.644 -92.2 469.58 64.2 143.49 21.558 -50.25 5.804 -125.18 -64.2 -143.49 z" style="fill:#fff;color:#000"/><g transform="translate(0 796.36)" style="fill-rule:evenodd"><path d="m 142.19 157.55 c 0 -0.345 -0.207 -0.62 -0.465 -0.62 -0.256 0 -0.465 -0.209 -0.465 -0.465 0 -0.256 -0.209 -0.465 -0.465 -0.465 -0.256 0 -0.465 -0.209 -0.465 -0.465 0 -0.256 -0.209 -0.465 -0.465 -0.465 -0.256 0 -0.465 -0.209 -0.465 -0.465 0 -0.258 -0.276 -0.465 -0.62 -0.465 -0.414 0 -0.62 -0.207 -0.62 -0.62 0 -0.345 -0.207 -0.62 -0.465 -0.62 -0.256 0 -0.465 -0.209 -0.465 -0.465 0 -0.256 -0.209 -0.465 -0.465 -0.465 -0.256 0 -0.465 -0.209 -0.465 -0.465 0 -0.256 -0.209 -0.465 -0.465 -0.465 -0.256 0 -0.465 -0.209 -0.465 -0.465 0 -0.258 -0.276 -0.465 -0.62 -0.465 -0.345 0 -0.62 -0.207 -0.62 -0.465 0 -0.258 0.276 -0.465 0.62 -0.465 0.357 0 0.62 -0.207 0.62 -0.487 0 -0.268 0.209 -0.697 0.465 -0.953 0.256 -0.256 0.465 -0.734 0.465 -1.063 0 -0.329 0.209 -0.598 0.465 -0.598 0.256 0 0.465 -0.209 0.465 -0.465 0 -0.256 0.209 -0.465 0.465 -0.465 0.31 0 0.465 -0.31 0.465 -0.93 0 -0.724 0.138 -0.93 0.62 -0.93 0.502 0 0.62 -0.207 0.62 -1.085 0 -0.758 0.14 -1.085 0.465 -1.085 0.31 0 0.465 -0.31 0.465 -0.93 0 -0.62 0.155 -0.93 0.465 -0.93 0.351 0 0.465 -0.379 0.465 -1.551 0 -1.172 0.114 -1.551 0.465 -1.551 0.366 0 0.465 -0.431 0.465 -2.02 0 -1.585 0.099 -2.02 0.465 -2.02 0.398 0 0.465 -0.879 0.465 -6.05 0 -5.169 -0.068 -6.05 -0.465 -6.05 -0.366 0 -0.465 -0.431 -0.465 -2.02 0 -1.585 -0.099 -2.02 -0.465 -2.02 -0.351 0 -0.465 -0.379 -0.465 -1.551 0 -1.172 -0.114 -1.551 -0.465 -1.551 -0.31 0 -0.465 -0.31 -0.465 -0.93 0 -0.62 -0.155 -0.93 -0.465 -0.93 -0.31 0 -0.465 -0.31 -0.465 -0.93 0 -0.724 -0.138 -0.93 -0.62 -0.93 -0.502 0 -0.62 -0.207 -0.62 -1.085 0 -0.758 -0.14 -1.085 -0.465 -1.085 -0.256 0 -0.465 -0.209 -0.465 -0.465 0 -0.256 -0.198 -0.465 -0.441 -0.465 -0.242 0 -0.533 -0.419 -0.645 -0.93 -0.112 -0.512 -0.333 -0.93 -0.49 -0.93 -0.157 0 -0.285 -0.222 -0.285 -0.494 0 -0.272 -0.279 -0.567 -0.62 -0.656 -0.806 -0.211 -0.806 -1.02 0 -1.02 0.345 0 0.62 -0.207 0.62 -0.465 0 -0.256 0.209 -0.465 0.465 -0.465 0.256 0 0.465 -0.209 0.465 -0.465 0 -0.256 0.209 -0.465 0.465 -0.465 0.256 0 0.465 -0.209 0.465 -0.465 0 -0.256 0.209 -0.465 0.465 -0.465 0.256 0 0.465 -0.193 0.465 -0.429 0 -0.236 0.279 -0.502 0.62 -0.591 0.341 -0.089 0.62 -0.385 0.62 -0.656 0 -0.272 0.209 -0.494 0.465 -0.494 0.256 0 0.465 -0.209 0.465 -0.465 0 -0.256 0.209 -0.465 0.465 -0.465 0.256 0 0.465 -0.209 0.465 -0.465 0 -0.256 0.209 -0.465 0.465 -0.465 0.256 0 0.465 -0.209 0.465 -0.465 0 -0.307 0.307 -0.465 0.906 -0.465 0.754 0 0.94 0.156 1.11 0.93 0.112 0.512 0.333 0.93 0.49 0.93 0.157 0 0.285 0.209 0.285 0.465 0 0.258 0.276 0.465 0.62 0.465 0.414 0 0.62 0.207 0.62 0.62 0 0.345 0.207 0.62 0.465 0.62 0.256 0 0.465 0.209 0.465 0.465 0 0.256 0.209 0.465 0.465 0.465 0.31 0 0.465 0.31 0.465 0.93 0 0.597 0.158 0.93 0.441 0.93 0.242 0 0.533 0.419 0.645 0.93 0.112 0.512 0.333 0.93 0.49 0.93 0.157 0 0.285 0.279 0.285 0.62 0 0.414 0.207 0.62 0.62 0.62 0.482 0 0.62 0.207 0.62 0.93 0 0.62 0.155 0.93 0.465 0.93 0.325 0 0.465 0.327 0.465 1.085 0 0.758 0.14 1.085 0.465 1.085 0.351 0 0.465 0.379 0.465 1.551 0 1.172 0.114 1.551 0.465 1.551 0.345 0 0.465 0.362 0.465 1.396 0 1.189 0.092 1.396 0.62 1.396 0.569 0 0.62 0.207 0.62 2.481 0 1.999 0.09 2.481 0.465 2.481 0.4 0 0.465 0.982 0.465 6.978 0 5.996 -0.065 6.978 -0.465 6.978 -0.366 0 -0.465 0.431 -0.465 2.02 0 1.51 -0.108 2.02 -0.429 2.02 -0.52 0 -0.802 0.947 -0.807 2.714 -0.003 0.963 -0.13 1.318 -0.469 1.318 -0.325 0 -0.465 0.327 -0.465 1.085 0 0.758 -0.14 1.085 -0.465 1.085 -0.345 0 -0.465 0.362 -0.465 1.396 0 1.034 -0.121 1.396 -0.465 1.396 -0.31 0 -0.465 0.31 -0.465 0.93 0 0.724 -0.138 0.93 -0.62 0.93 -0.414 0 -0.62 0.207 -0.62 0.62 0 0.341 -0.128 0.62 -0.285 0.62 -0.157 0 -0.377 0.419 -0.49 0.93 -0.112 0.512 -0.403 0.93 -0.645 0.93 -0.283 0 -0.441 0.333 -0.441 0.93 0 0.62 -0.155 0.93 -0.465 0.93 -0.258 0 -0.465 0.276 -0.465 0.62 0 0.345 -0.207 0.62 -0.465 0.62 -0.256 0 -0.465 0.209 -0.465 0.465 0 0.258 -0.276 0.465 -0.62 0.465 -0.341 0 -0.62 0.194 -0.62 0.432 0 0.238 -0.209 0.512 -0.465 0.611 -0.256 0.098 -0.465 0.392 -0.465 0.653 0 0.261 -0.209 0.475 -0.465 0.475 -0.256 0 -0.465 0.209 -0.465 0.465 0 0.256 -0.209 0.465 -0.465 0.465 -0.258 0 -0.465 -0.276 -0.465 -0.62 z" style="fill:#ff4500"/><path d="m 178.58 194.44 c -1.333 -1.356 -2.425 -2.632 -2.425 -2.835 0 -0.204 -0.263 -0.47 -0.585 -0.592 -0.743 -0.281 -1.232 -0.77 -1.513 -1.513 -0.122 -0.322 -0.468 -0.585 -0.77 -0.585 -0.362 0 -0.479 -0.179 -0.345 -0.529 0.112 -0.291 0.203 -0.667 0.203 -0.836 0 -0.169 0.226 -0.307 0.502 -0.307 0.276 0 0.502 -0.226 0.502 -0.502 0 -0.276 0.226 -0.502 0.502 -0.502 0.279 0 0.502 -0.297 0.502 -0.669 0 -0.368 0.148 -0.669 0.328 -0.669 0.18 0 0.422 -0.376 0.538 -0.836 0.115 -0.46 0.419 -0.836 0.675 -0.836 0.256 0 0.465 -0.226 0.465 -0.502 0 -0.276 0.226 -0.502 0.502 -0.502 0.276 0 0.502 -0.226 0.502 -0.502 0 -0.276 0.226 -0.502 0.502 -0.502 0.276 0 0.502 -0.226 0.502 -0.502 0 -0.276 0.226 -0.502 0.502 -0.502 0.279 0 0.502 -0.297 0.502 -0.669 0 -0.368 0.148 -0.669 0.328 -0.669 0.18 0 0.422 -0.376 0.538 -0.836 0.115 -0.46 0.419 -0.836 0.675 -0.836 0.256 0 0.465 -0.21 0.465 -0.466 0 -0.256 0.226 -0.552 0.502 -0.658 0.276 -0.106 0.502 -0.573 0.502 -1.039 0 -0.53 0.188 -0.847 0.502 -0.847 0.279 0 0.502 -0.297 0.502 -0.669 0 -0.368 0.148 -0.669 0.328 -0.669 0.18 0 0.422 -0.376 0.538 -0.836 0.115 -0.46 0.419 -0.836 0.675 -0.836 0.294 0 0.465 -0.369 0.465 -1 0 -0.669 0.167 -1 0.502 -1 0.334 0 0.502 -0.334 0.502 -1 0 -0.669 0.167 -1 0.502 -1 0.334 0 0.502 -0.334 0.502 -1 0 -0.669 0.167 -1 0.502 -1 0.334 0 0.502 -0.334 0.502 -1 0 -0.669 0.167 -1 0.502 -1 0.334 0 0.502 -0.334 0.502 -1 0 -0.669 0.167 -1 0.502 -1 0.33 0 0.502 -0.33 0.502 -0.967 0 -0.551 0.216 -1.05 0.502 -1.16 0.331 -0.127 0.502 -0.651 0.502 -1.541 0 -0.975 0.139 -1.348 0.502 -1.348 0.372 0 0.502 -0.39 0.502 -1.505 0 -1.115 0.13 -1.505 0.502 -1.505 0.372 0 0.502 -0.39 0.502 -1.505 0 -1.115 0.13 -1.505 0.502 -1.505 0.39 0 0.502 -0.446 0.502 -2.01 0 -1.561 0.111 -2.01 0.502 -2.01 0.401 0 0.502 -0.502 0.502 -2.508 0 -2.01 0.1 -2.508 0.502 -2.508 0.421 0 0.502 -0.725 0.502 -4.515 0 -3.868 0.075 -4.515 0.522 -4.515 0.458 0 0.509 -0.78 0.418 -6.41 -0.077 -4.755 -0.212 -6.446 -0.522 -6.549 -0.303 -0.101 -0.418 -1.233 -0.418 -4.124 0 -3.319 -0.084 -3.985 -0.502 -3.985 -0.401 0 -0.502 -0.502 -0.502 -2.508 0 -2.01 -0.1 -2.508 -0.502 -2.508 -0.385 0 -0.502 -0.428 -0.502 -1.85 0 -1.336 -0.139 -1.903 -0.502 -2.042 -0.341 -0.131 -0.502 -0.664 -0.502 -1.662 0 -1.083 -0.132 -1.469 -0.502 -1.469 -0.372 0 -0.502 -0.39 -0.502 -1.505 0 -1.115 -0.13 -1.505 -0.502 -1.505 -0.363 0 -0.502 -0.373 -0.502 -1.348 0 -0.89 -0.171 -1.414 -0.502 -1.541 -0.286 -0.11 -0.502 -0.608 -0.502 -1.16 0 -0.637 -0.171 -0.967 -0.502 -0.967 -0.334 0 -0.502 -0.334 -0.502 -1 0 -0.669 -0.167 -1 -0.502 -1 -0.332 0 -0.502 -0.332 -0.502 -0.979 0 -0.539 -0.226 -1.205 -0.502 -1.481 -0.276 -0.276 -0.502 -0.738 -0.502 -1.027 0 -0.289 -0.226 -0.526 -0.502 -0.526 -0.334 0 -0.502 -0.334 -0.502 -1 0 -0.669 -0.167 -1 -0.502 -1 -0.334 0 -0.502 -0.334 -0.502 -1 0 -0.669 -0.167 -1 -0.502 -1 -0.314 0 -0.502 -0.317 -0.502 -0.847 0 -0.466 -0.226 -0.933 -0.502 -1.039 -0.276 -0.106 -0.502 -0.402 -0.502 -0.658 0 -0.256 -0.226 -0.466 -0.502 -0.466 -0.314 0 -0.502 -0.317 -0.502 -0.847 0 -0.466 -0.226 -0.933 -0.502 -1.039 -0.276 -0.106 -0.502 -0.402 -0.502 -0.658 0 -0.256 -0.209 -0.466 -0.465 -0.466 -0.256 0 -0.56 -0.376 -0.675 -0.836 -0.115 -0.46 -0.357 -0.836 -0.538 -0.836 -0.18 0 -0.328 -0.301 -0.328 -0.669 0 -0.372 -0.223 -0.669 -0.502 -0.669 -0.276 0 -0.502 -0.226 -0.502 -0.502 0 -0.276 -0.226 -0.502 -0.502 -0.502 -0.276 0 -0.502 -0.226 -0.502 -0.502 0 -0.276 -0.226 -0.502 -0.502 -0.502 -0.314 0 -0.502 -0.317 -0.502 -0.847 0 -0.466 -0.226 -0.933 -0.502 -1.039 -0.276 -0.106 -0.502 -0.402 -0.502 -0.658 0 -0.256 -0.226 -0.466 -0.502 -0.466 -0.276 0 -0.502 -0.226 -0.502 -0.502 0 -0.276 -0.226 -0.502 -0.502 -0.502 -0.276 0 -0.502 -0.226 -0.502 -0.502 0 -0.276 -0.208 -0.502 -0.463 -0.502 -0.254 0 -0.548 -0.325 -0.652 -0.723 -0.153 -0.584 0.507 -1.416 3.449 -4.347 2 -1.994 3.799 -3.625 3.996 -3.625 0.197 0 0.357 -0.226 0.357 -0.502 0 -0.276 0.226 -0.502 0.502 -0.502 0.276 0 0.502 0.226 0.502 0.502 0 0.276 0.226 0.502 0.502 0.502 0.276 0 0.502 0.226 0.502 0.502 0 0.276 0.226 0.502 0.502 0.502 0.276 0 0.502 0.226 0.502 0.502 0 0.276 0.226 0.502 0.502 0.502 0.276 0 0.502 0.226 0.502 0.502 0 0.276 0.226 0.502 0.502 0.502 0.276 0 0.502 0.226 0.502 0.502 0 0.276 0.226 0.502 0.502 0.502 0.314 0 0.502 0.317 0.502 0.847 0 0.466 0.226 0.933 0.502 1.039 0.276 0.106 0.502 0.402 0.502 0.658 0 0.256 0.226 0.466 0.502 0.466 0.276 0 0.502 0.226 0.502 0.502 0 0.276 0.209 0.502 0.465 0.502 0.256 0 0.56 0.376 0.675 0.836 0.115 0.46 0.357 0.836 0.538 0.836 0.18 0 0.328 0.301 0.328 0.669 0 0.372 0.223 0.669 0.502 0.669 0.276 0 0.502 0.226 0.502 0.502 0 0.276 0.226 0.502 0.502 0.502 0.314 0 0.502 0.317 0.502 0.847 0 0.466 0.226 0.933 0.502 1.039 0.276 0.106 0.502 0.402 0.502 0.658 0 0.256 0.226 0.466 0.502 0.466 0.334 0 0.502 0.334 0.502 1 0 0.669 0.167 1 0.502 1 0.276 0 0.502 0.226 0.502 0.502 0 0.276 0.226 0.502 0.502 0.502 0.334 0 0.502 0.334 0.502 1 0 0.669 0.167 1 0.502 1 0.334 0 0.502 0.334 0.502 1 0 0.669 0.167 1 0.502 1 0.334 0 0.502 0.334 0.502 1 0 0.669 0.167 1 0.502 1 0.334 0 0.502 0.334 0.502 1 0 0.669 0.167 1 0.502 1 0.334 0 0.502 0.334 0.502 1 0 0.669 0.167 1 0.502 1 0.334 0 0.502 0.334 0.502 1 0 0.669 0.167 1 0.502 1 0.332 0 0.502 0.332 0.502 0.979 0 0.539 0.226 1.205 0.502 1.481 0.276 0.276 0.502 0.964 0.502 1.529 0 0.69 0.165 1.027 0.502 1.027 0.372 0 0.502 0.39 0.502 1.505 0 1.115 0.13 1.505 0.502 1.505 0.372 0 0.502 0.39 0.502 1.505 0 1.115 0.13 1.505 0.502 1.505 0.385 0 0.502 0.428 0.502 1.85 0 1.336 0.139 1.903 0.502 2.042 0.361 0.138 0.502 0.703 0.502 2.01 0 1.304 0.141 1.868 0.502 2.01 0.379 0.145 0.502 0.757 0.502 2.498 0 1.826 0.104 2.305 0.502 2.305 0.424 0 0.502 0.78 0.502 5.02 0 4.236 0.078 5.02 0.502 5.02 0.427 0 0.502 0.892 0.502 6.02 0 5.128 -0.074 6.02 -0.502 6.02 -0.424 0 -0.502 0.78 -0.502 5.02 0 4.236 -0.078 5.02 -0.502 5.02 -0.401 0 -0.502 0.502 -0.502 2.508 0 2.01 -0.1 2.508 -0.502 2.508 -0.39 0 -0.502 0.446 -0.502 2.01 0 1.561 -0.111 2.01 -0.502 2.01 -0.385 0 -0.502 0.427 -0.502 1.839 0 1.412 -0.117 1.839 -0.502 1.839 -0.372 0 -0.502 0.39 -0.502 1.505 0 1.115 -0.13 1.505 -0.502 1.505 -0.372 0 -0.502 0.39 -0.502 1.505 0 1.115 -0.13 1.505 -0.502 1.505 -0.33 0 -0.502 0.33 -0.502 0.967 0 0.551 -0.216 1.05 -0.502 1.16 -0.331 0.127 -0.502 0.651 -0.502 1.541 0 0.975 -0.139 1.348 -0.502 1.348 -0.334 0 -0.502 0.334 -0.502 1 0 0.669 -0.167 1 -0.502 1 -0.334 0 -0.502 0.334 -0.502 1 0 0.669 -0.167 1 -0.502 1 -0.334 0 -0.502 0.334 -0.502 1 0 0.669 -0.167 1 -0.502 1 -0.334 0 -0.502 0.334 -0.502 1 0 0.669 -0.167 1 -0.502 1 -0.334 0 -0.502 0.334 -0.502 1 0 0.669 -0.167 1 -0.502 1 -0.279 0 -0.502 0.297 -0.502 0.669 0 0.368 -0.148 0.669 -0.328 0.669 -0.18 0 -0.422 0.376 -0.538 0.836 -0.115 0.46 -0.419 0.836 -0.675 0.836 -0.294 0 -0.465 0.369 -0.465 1 0 0.669 -0.167 1 -0.502 1 -0.276 0 -0.502 0.21 -0.502 0.466 0 0.256 -0.226 0.552 -0.502 0.658 -0.276 0.106 -0.502 0.573 -0.502 1.039 0 0.53 -0.188 0.847 -0.502 0.847 -0.276 0 -0.502 0.226 -0.502 0.502 0 0.276 -0.226 0.502 -0.502 0.502 -0.279 0 -0.502 0.297 -0.502 0.669 0 0.368 -0.148 0.669 -0.328 0.669 -0.18 0 -0.422 0.376 -0.538 0.836 -0.115 0.46 -0.419 0.836 -0.675 0.836 -0.256 0 -0.465 0.226 -0.465 0.502 0 0.276 -0.226 0.502 -0.502 0.502 -0.276 0 -0.508 0.188 -0.516 0.418 -0.008 0.23 -0.459 0.787 -1 1.238 -0.571 0.473 -0.989 1.145 -0.989 1.589 0 0.46 -0.201 0.768 -0.502 0.768 -0.276 0 -0.502 0.226 -0.502 0.502 0 0.276 -0.226 0.502 -0.502 0.502 -0.276 0 -0.502 0.226 -0.502 0.502 0 0.276 -0.226 0.502 -0.502 0.502 -0.276 0 -0.502 0.226 -0.502 0.502 0 0.276 -0.226 0.502 -0.502 0.502 -0.276 0 -0.502 0.226 -0.502 0.502 0 0.97 -0.859 0.443 -3.261 -1.999 z" style="fill:#ffb6c1"/><g style="fill:#ff4500"><path d="m 94.12 196.63 c 0 -0.171 -0.209 -0.31 -0.465 -0.31 -0.258 0 -0.465 -0.276 -0.465 -0.62 0 -0.414 -0.207 -0.62 -0.62 -0.62 -0.345 0 -0.62 -0.207 -0.62 -0.465 0 -0.256 -0.209 -0.465 -0.465 -0.465 -0.256 0 -0.465 -0.209 -0.465 -0.465 0 -0.256 -0.209 -0.465 -0.465 -0.465 -0.256 0 -0.465 -0.209 -0.465 -0.465 0 -0.256 -0.209 -0.465 -0.465 -0.465 -0.256 0 -0.465 -0.209 -0.465 -0.465 0 -0.256 -0.209 -0.465 -0.465 -0.465 -0.258 0 -0.465 -0.276 -0.465 -0.62 0 -0.414 -0.207 -0.62 -0.62 -0.62 -0.345 0 -0.62 -0.207 -0.62 -0.465 0 -0.256 -0.209 -0.465 -0.465 -0.465 -0.256 0 -0.465 -0.209 -0.465 -0.465 0 -0.256 -0.209 -0.465 -0.465 -0.465 -0.256 0 -0.465 -0.209 -0.465 -0.465 0 -0.256 -0.209 -0.465 -0.465 -0.465 -0.258 0 -0.465 -0.276 -0.465 -0.62 0 -0.414 -0.207 -0.62 -0.62 -0.62 -0.345 0 -0.62 -0.207 -0.62 -0.465 0 -0.256 -0.209 -0.465 -0.465 -0.465 -0.256 0 -0.465 -0.209 -0.465 -0.465 0 -0.256 -0.209 -0.465 -0.465 -0.465 -0.256 0 -0.465 -0.198 -0.465 -0.441 0 -0.242 -0.419 -0.533 -0.93 -0.645 -0.512 -0.112 -0.93 -0.403 -0.93 -0.645 0 -0.242 -0.209 -0.441 -0.465 -0.441 -0.256 0 -0.465 -0.209 -0.465 -0.465 0 -0.256 -0.209 -0.465 -0.465 -0.465 -0.256 0 -0.465 -0.209 -0.465 -0.465 0 -0.258 -0.276 -0.465 -0.62 -0.465 -0.414 0 -0.62 -0.207 -0.62 -0.62 0 -0.345 -0.207 -0.62 -0.465 -0.62 -0.256 0 -0.465 -0.209 -0.465 -0.465 0 -0.256 -0.209 -0.465 -0.465 -0.465 -0.256 0 -0.465 -0.209 -0.465 -0.465 0 -0.256 -0.209 -0.465 -0.465 -0.465 -0.256 0 -0.465 -0.209 -0.465 -0.465 0 -0.258 -0.276 -0.465 -0.62 -0.465 -0.414 0 -0.62 -0.207 -0.62 -0.62 0 -0.345 -0.207 -0.62 -0.465 -0.62 -0.256 0 -0.465 -0.209 -0.465 -0.465 0 -0.256 -0.209 -0.465 -0.465 -0.465 -0.256 0 -0.465 -0.209 -0.465 -0.465 0 -0.256 -0.209 -0.465 -0.465 -0.465 -0.256 0 -0.465 -0.209 -0.465 -0.465 0 -0.256 -0.209 -0.465 -0.465 -0.465 -0.256 0 -0.465 -0.209 -0.465 -0.465 0 -0.258 -0.276 -0.465 -0.62 -0.465 -0.414 0 -0.62 -0.207 -0.62 -0.62 0 -0.345 -0.207 -0.62 -0.465 -0.62 -0.256 0 -0.465 -0.209 -0.465 -0.465 0 -0.256 -0.209 -0.465 -0.465 -0.465 -0.256 0 -0.465 -0.209 -0.465 -0.465 0 -0.256 -0.209 -0.465 -0.465 -0.465 -0.256 0 -0.465 -0.209 -0.465 -0.465 0 -0.258 -0.276 -0.465 -0.62 -0.465 -0.414 0 -0.62 -0.207 -0.62 -0.62 0 -0.345 -0.207 -0.62 -0.465 -0.62 -0.256 0 -0.465 -0.209 -0.465 -0.465 0 -0.256 -0.209 -0.465 -0.465 -0.465 -0.256 0 -0.465 -0.209 -0.465 -0.465 0 -0.256 -0.209 -0.465 -0.465 -0.465 -0.256 0 -0.465 -0.209 -0.465 -0.465 0 -0.256 -0.209 -0.465 -0.465 -0.465 -0.258 0 -0.465 -0.276 -0.465 -0.62 0 -0.414 -0.207 -0.62 -0.62 -0.62 -0.345 0 -0.62 -0.207 -0.62 -0.465 0 -0.256 -0.209 -0.465 -0.465 -0.465 -0.256 0 -0.465 -0.209 -0.465 -0.465 0 -0.256 -0.209 -0.465 -0.465 -0.465 -0.256 0 -0.465 -0.209 -0.465 -0.465 0 -0.256 -0.209 -0.465 -0.465 -0.465 -0.256 0 -0.465 -0.209 -0.465 -0.465 0 -0.258 -0.276 -0.465 -0.62 -0.465 -0.502 0 -0.62 -0.207 -0.62 -1.085 0 -0.758 -0.14 -1.085 -0.465 -1.085 -0.256 0 -0.465 -0.209 -0.465 -0.465 0 -0.256 -0.209 -0.465 -0.465 -0.465 -0.256 0 -0.465 -0.209 -0.465 -0.465 0 -0.256 -0.209 -0.465 -0.465 -0.465 -0.258 0 -0.465 -0.276 -0.465 -0.62 0 -0.414 -0.207 -0.62 -0.62 -0.62 -0.482 0 -0.62 -0.207 -0.62 -0.93 0 -0.62 -0.155 -0.93 -0.465 -0.93 -0.256 0 -0.465 -0.209 -0.465 -0.465 0 -0.256 -0.209 -0.465 -0.465 -0.465 -0.325 0 -0.465 -0.327 -0.465 -1.085 0 -0.758 -0.14 -1.085 -0.465 -1.085 -0.256 0 -0.465 -0.209 -0.465 -0.465 0 -0.256 -0.209 -0.465 -0.465 -0.465 -0.31 0 -0.465 -0.31 -0.465 -0.93 0 -0.724 -0.138 -0.93 -0.62 -0.93 -0.538 0 -0.62 -0.207 -0.62 -1.551 0 -1.172 -0.114 -1.551 -0.465 -1.551 -0.351 0 -0.465 -0.379 -0.465 -1.551 0 -1.172 -0.114 -1.551 -0.465 -1.551 -0.366 0 -0.465 -0.431 -0.465 -2.02 0 -1.585 -0.099 -2.02 -0.465 -2.02 -0.401 0 -0.465 -1.083 -0.465 -7.883 0 -5.933 0.094 -7.914 0.379 -8.01 0.24 -0.08 0.423 -1 0.499 -2.507 0.089 -1.769 0.231 -2.381 0.552 -2.381 0.304 0 0.431 -0.411 0.431 -1.396 0 -1.034 0.121 -1.396 0.465 -1.396 0.325 0 0.465 -0.327 0.465 -1.085 0 -0.879 0.118 -1.085 0.62 -1.085 0.477 0 0.62 -0.207 0.62 -0.897 0 -0.511 0.2 -0.974 0.465 -1.076 0.272 -0.104 0.465 -0.569 0.465 -1.119 0 -0.629 0.154 -0.94 0.465 -0.94 0.31 0 0.465 -0.31 0.465 -0.93 0 -0.62 0.155 -0.93 0.465 -0.93 0.258 0 0.465 -0.276 0.465 -0.62 0 -0.345 0.207 -0.62 0.465 -0.62 0.31 0 0.465 -0.31 0.465 -0.93 0 -0.724 0.138 -0.93 0.62 -0.93 0.341 0 0.62 -0.194 0.62 -0.432 0 -0.238 0.209 -0.512 0.465 -0.611 0.272 -0.104 0.465 -0.569 0.465 -1.119 0 -0.629 0.154 -0.94 0.465 -0.94 0.256 0 0.465 -0.209 0.465 -0.465 0 -0.256 0.209 -0.465 0.465 -0.465 0.256 0 0.465 -0.209 0.465 -0.465 0 -0.258 0.276 -0.465 0.62 -0.465 0.341 0 0.62 -0.194 0.62 -0.432 0 -0.238 0.209 -0.512 0.465 -0.611 0.272 -0.104 0.465 -0.569 0.465 -1.119 0 -0.629 0.154 -0.94 0.465 -0.94 0.256 0 0.465 -0.209 0.465 -0.465 0 -0.256 0.209 -0.465 0.465 -0.465 0.256 0 0.465 -0.209 0.465 -0.465 0 -0.258 0.276 -0.465 0.62 -0.465 0.345 0 0.62 -0.207 0.62 -0.465 0 -0.256 0.209 -0.465 0.465 -0.465 0.258 0 0.465 -0.276 0.465 -0.62 0 -0.345 0.207 -0.62 0.465 -0.62 0.256 0 0.465 -0.209 0.465 -0.465 0 -0.256 0.209 -0.465 0.465 -0.465 0.256 0 0.465 -0.209 0.465 -0.465 0 -0.256 0.209 -0.465 0.465 -0.465 0.256 0 0.465 -0.209 0.465 -0.465 0 -0.258 0.276 -0.465 0.62 -0.465 0.414 0 0.62 -0.207 0.62 -0.62 0 -0.345 0.207 -0.62 0.465 -0.62 0.256 0 0.465 -0.209 0.465 -0.465 0 -0.256 0.209 -0.465 0.465 -0.465 0.256 0 0.465 -0.209 0.465 -0.465 0 -0.256 0.209 -0.465 0.465 -0.465 0.256 0 0.465 -0.209 0.465 -0.465 0 -0.258 0.276 -0.465 0.62 -0.465 0.345 0 0.62 -0.207 0.62 -0.465 0 -0.256 0.209 -0.465 0.465 -0.465 0.258 0 0.465 -0.276 0.465 -0.62 0 -0.345 0.207 -0.62 0.465 -0.62 0.256 0 0.465 -0.209 0.465 -0.465 0 -0.256 0.209 -0.465 0.465 -0.465 0.256 0 0.465 -0.209 0.465 -0.465 0 -0.256 0.209 -0.465 0.465 -0.465 0.256 0 0.465 -0.209 0.465 -0.465 0 -0.258 0.276 -0.465 0.62 -0.465 0.414 0 0.62 -0.207 0.62 -0.62 0 -0.345 0.207 -0.62 0.465 -0.62 0.256 0 0.465 -0.209 0.465 -0.465 0 -0.256 0.209 -0.465 0.465 -0.465 0.256 0 0.465 -0.209 0.465 -0.465 0 -0.256 0.209 -0.465 0.465 -0.465 0.256 0 0.465 -0.209 0.465 -0.465 0 -0.258 0.276 -0.465 0.62 -0.465 0.345 0 0.62 -0.207 0.62 -0.465 0 -0.256 0.209 -0.465 0.465 -0.465 0.258 0 0.465 -0.276 0.465 -0.62 0 -0.345 0.207 -0.62 0.465 -0.62 0.256 0 0.465 -0.209 0.465 -0.465 0 -0.256 0.209 -0.465 0.465 -0.465 0.256 0 0.465 -0.209 0.465 -0.465 0 -0.256 0.209 -0.465 0.465 -0.465 0.256 0 0.465 -0.209 0.465 -0.465 0 -0.258 0.276 -0.465 0.62 -0.465 0.414 0 0.62 -0.207 0.62 -0.62 0 -0.482 0.207 -0.62 0.93 -0.62 0.821 0 0.93 -0.106 0.93 -0.906 0 -0.757 0.155 -0.94 0.944 -1.113 0.723 -0.159 0.986 -0.418 1.124 -1.11 0.149 -0.746 0.336 -0.903 1.072 -0.903 0.784 0 0.892 -0.112 0.892 -0.93 0 -0.62 0.155 -0.93 0.465 -0.93 0.256 0 0.465 -0.209 0.465 -0.465 0 -0.256 0.209 -0.465 0.465 -0.465 0.256 0 0.465 -0.192 0.465 -0.426 0 -0.235 0.406 -0.508 0.903 -0.607 0.692 -0.138 0.951 -0.401 1.11 -1.124 0.114 -0.519 0.406 -0.944 0.648 -0.944 0.242 0 0.441 -0.209 0.441 -0.465 0 -0.31 0.31 -0.465 0.93 -0.465 0.62 0 0.93 0.155 0.93 0.465 0 0.256 0.209 0.465 0.465 0.465 0.256 0 0.465 0.209 0.465 0.465 0 0.258 0.276 0.465 0.62 0.465 0.414 0 0.62 0.207 0.62 0.62 0 0.345 0.207 0.62 0.465 0.62 0.31 0 0.465 0.31 0.465 0.93 0 0.62 0.155 0.93 0.465 0.93 0.256 0 0.465 0.209 0.465 0.465 0 0.256 0.209 0.465 0.465 0.465 0.256 0 0.465 0.209 0.465 0.465 0 0.256 0.209 0.465 0.465 0.465 0.258 0 0.465 0.276 0.465 0.62 0 0.414 0.207 0.62 0.62 0.62 0.345 0 0.62 0.207 0.62 0.465 0 0.256 0.209 0.465 0.465 0.465 0.31 0 0.465 0.31 0.465 0.93 0 0.62 0.155 0.93 0.465 0.93 0.258 0 0.465 0.276 0.465 0.62 0 0.345 0.207 0.62 0.465 0.62 0.256 0 0.465 0.209 0.465 0.465 0 0.258 0.276 0.465 0.62 0.465 0.482 0 0.62 0.207 0.62 0.93 0 0.62 0.155 0.93 0.465 0.93 0.258 0 0.465 0.276 0.465 0.62 0 0.345 0.207 0.62 0.465 0.62 0.31 0 0.465 0.31 0.465 0.93 0 0.62 0.155 0.93 0.465 0.93 0.31 0 0.465 0.31 0.465 0.93 0 0.62 0.155 0.93 0.465 0.93 0.258 0 0.465 0.276 0.465 0.62 0 0.414 0.207 0.62 0.62 0.62 0.482 0 0.62 0.207 0.62 0.93 0 0.62 0.155 0.93 0.465 0.93 0.325 0 0.465 0.327 0.465 1.085 0 0.758 0.14 1.085 0.465 1.085 0.31 0 0.465 0.31 0.465 0.93 0 0.62 0.155 0.93 0.465 0.93 0.31 0 0.465 0.31 0.465 0.93 0 0.724 0.138 0.93 0.62 0.93 0.502 0 0.62 0.207 0.62 1.085 0 0.758 0.14 1.085 0.465 1.085 0.351 0 0.465 0.379 0.465 1.551 0 1.105 0.122 1.551 0.424 1.551 0.264 0 0.491 0.494 0.6 1.311 0.097 0.721 0.324 1.361 0.506 1.421 0.182 0.061 0.33 0.587 0.33 1.17 0 0.853 0.121 1.06 0.62 1.06 0.551 0 0.62 0.207 0.62 1.861 0 1.447 0.103 1.861 0.465 1.861 0.351 0 0.465 0.379 0.465 1.551 0 1.172 0.114 1.551 0.465 1.551 0.375 0 0.465 0.482 0.465 2.481 0 1.999 0.091 2.481 0.465 2.481 0.377 0 0.465 0.5 0.465 2.636 0 2.136 0.088 2.636 0.465 2.636 0.394 0 0.465 0.744 0.465 4.836 0 4.575 0.034 4.845 0.62 4.998 0.587 0.154 0.62 0.423 0.62 5.088 0 4.719 -0.026 4.926 -0.62 4.926 -0.594 0 -0.62 0.207 -0.62 4.962 0 4.204 -0.071 4.962 -0.465 4.962 -0.375 0 -0.465 0.482 -0.465 2.481 0 1.999 -0.091 2.481 -0.465 2.481 -0.375 0 -0.465 0.482 -0.465 2.481 0 1.999 -0.091 2.481 -0.465 2.481 -0.351 0 -0.465 0.379 -0.465 1.551 0 1.172 -0.114 1.551 -0.465 1.551 -0.351 0 -0.465 0.379 -0.465 1.551 0 1.114 -0.121 1.551 -0.429 1.551 -0.453 0 -0.8 0.911 -0.807 2.116 -0.002 0.396 -0.214 0.929 -0.469 1.185 -0.256 0.256 -0.465 0.944 -0.465 1.529 0 0.738 -0.142 1.063 -0.465 1.063 -0.325 0 -0.465 0.327 -0.465 1.085 0 0.758 -0.14 1.085 -0.465 1.085 -0.345 0 -0.465 0.362 -0.465 1.396 0 1.189 -0.092 1.396 -0.62 1.396 -0.482 0 -0.62 0.207 -0.62 0.93 0 0.62 -0.155 0.93 -0.465 0.93 -0.325 0 -0.465 0.327 -0.465 1.085 0 0.758 -0.14 1.085 -0.465 1.085 -0.31 0 -0.465 0.31 -0.465 0.93 0 0.62 -0.155 0.93 -0.465 0.93 -0.258 0 -0.465 0.276 -0.465 0.62 0 0.341 -0.198 0.62 -0.441 0.62 -0.242 0 -0.533 0.419 -0.645 0.93 -0.112 0.512 -0.403 0.93 -0.645 0.93 -0.283 0 -0.441 0.333 -0.441 0.93 0 0.62 -0.155 0.93 -0.465 0.93 -0.258 0 -0.465 0.276 -0.465 0.62 0 0.345 -0.207 0.62 -0.465 0.62 -0.31 0 -0.465 0.31 -0.465 0.93 0 0.62 -0.155 0.93 -0.465 0.93 -0.258 0 -0.465 0.276 -0.465 0.62 0 0.349 -0.207 0.62 -0.473 0.62 -0.277 0 -0.55 0.385 -0.659 0.93 -0.102 0.512 -0.378 0.93 -0.613 0.93 -0.235 0 -0.426 0.209 -0.426 0.465 0 0.256 -0.209 0.465 -0.465 0.465 -0.31 0 -0.465 0.31 -0.465 0.93 0 0.62 -0.155 0.93 -0.465 0.93 -0.258 0 -0.465 0.276 -0.465 0.62 0 0.414 -0.207 0.62 -0.62 0.62 -0.345 0 -0.62 0.207 -0.62 0.465 0 0.256 -0.209 0.465 -0.465 0.465 -0.256 0 -0.465 0.209 -0.465 0.465 0 0.256 -0.209 0.465 -0.465 0.465 -0.256 0 -0.465 0.209 -0.465 0.465 0 0.256 -0.209 0.465 -0.465 0.465 -0.325 0 -0.465 0.327 -0.465 1.085 0 0.758 -0.14 1.085 -0.465 1.085 -0.256 0 -0.465 0.209 -0.465 0.465 0 0.258 -0.276 0.465 -0.62 0.465 -0.345 0 -0.62 0.207 -0.62 0.465 0 0.256 -0.209 0.465 -0.465 0.465 -0.256 0 -0.465 0.209 -0.465 0.465 0 0.256 -0.209 0.465 -0.465 0.465 -0.256 0 -0.465 -0.14 -0.465 -0.31 z"/><path d="m 160.68 176.54 c -0.319 -0.373 -0.581 -0.902 -0.581 -1.176 0 -0.274 -0.226 -0.498 -0.502 -0.498 -0.276 0 -0.502 -0.226 -0.502 -0.502 0 -0.276 -0.226 -0.502 -0.502 -0.502 -0.276 0 -0.502 -0.15 -0.502 -0.334 0 -0.184 -0.226 -0.334 -0.502 -0.334 -0.279 0 -0.502 -0.297 -0.502 -0.669 0 -0.372 -0.223 -0.669 -0.502 -0.669 -0.276 0 -0.502 -0.226 -0.502 -0.502 0 -0.276 -0.226 -0.502 -0.502 -0.502 -0.276 0 -0.502 -0.226 -0.502 -0.502 0 -0.276 -0.226 -0.502 -0.502 -0.502 -0.276 0 -0.502 -0.226 -0.502 -0.502 0 -0.276 -0.226 -0.502 -0.502 -0.502 -0.276 0 -0.502 -0.15 -0.502 -0.334 0 -0.184 0.226 -0.334 0.502 -0.334 0.276 0 0.502 -0.226 0.502 -0.502 0 -0.276 0.226 -0.502 0.502 -0.502 0.276 0 0.502 -0.226 0.502 -0.502 0 -0.276 0.226 -0.502 0.502 -0.502 0.276 0 0.502 -0.226 0.502 -0.502 0 -0.276 0.226 -0.502 0.502 -0.502 0.279 0 0.502 -0.297 0.502 -0.669 0 -0.372 0.223 -0.669 0.502 -0.669 0.312 0 0.502 -0.316 0.502 -0.836 0 -0.52 0.19 -0.836 0.502 -0.836 0.276 0 0.502 -0.226 0.502 -0.502 0 -0.276 0.226 -0.502 0.502 -0.502 0.334 0 0.502 -0.334 0.502 -1 0 -0.669 0.167 -1 0.502 -1 0.276 0 0.502 -0.21 0.502 -0.466 0 -0.256 0.226 -0.552 0.502 -0.658 0.276 -0.106 0.502 -0.573 0.502 -1.039 0 -0.53 0.188 -0.847 0.502 -0.847 0.334 0 0.502 -0.334 0.502 -1 0 -0.669 0.167 -1 0.502 -1 0.334 0 0.502 -0.334 0.502 -1 0 -0.669 0.167 -1 0.502 -1 0.334 0 0.502 -0.334 0.502 -1 0 -0.669 0.167 -1 0.502 -1 0.372 0 0.502 -0.39 0.502 -1.505 0 -1.115 0.13 -1.505 0.502 -1.505 0.331 0 0.502 -0.331 0.502 -0.975 0 -0.536 0.173 -1.033 0.385 -1.104 0.212 -0.071 0.456 -0.986 0.543 -2.034 0.109 -1.319 0.3 -1.906 0.618 -1.906 0.35 0 0.46 -0.602 0.46 -2.508 0 -2.01 0.1 -2.508 0.502 -2.508 0.435 0 0.502 -1.338 0.502 -10.03 0 -8.695 -0.067 -10.03 -0.502 -10.03 -0.401 0 -0.502 -0.502 -0.502 -2.508 0 -2.01 -0.1 -2.508 -0.502 -2.508 -0.39 0 -0.502 -0.446 -0.502 -2.01 0 -1.561 -0.111 -2.01 -0.502 -2.01 -0.332 0 -0.502 -0.332 -0.502 -0.979 0 -0.539 -0.226 -1.205 -0.502 -1.481 -0.276 -0.276 -0.502 -0.964 -0.502 -1.529 0 -0.69 -0.165 -1.027 -0.502 -1.027 -0.334 0 -0.502 -0.334 -0.502 -1 0 -0.669 -0.167 -1 -0.502 -1 -0.334 0 -0.502 -0.334 -0.502 -1 0 -0.669 -0.167 -1 -0.502 -1 -0.334 0 -0.502 -0.334 -0.502 -1 0 -0.669 -0.167 -1 -0.502 -1 -0.314 0 -0.502 -0.317 -0.502 -0.847 0 -0.466 -0.226 -0.933 -0.502 -1.039 -0.276 -0.106 -0.502 -0.402 -0.502 -0.658 0 -0.256 -0.226 -0.466 -0.502 -0.466 -0.334 0 -0.502 -0.334 -0.502 -1 0 -0.669 -0.167 -1 -0.502 -1 -0.276 0 -0.502 -0.226 -0.502 -0.502 0 -0.276 -0.226 -0.502 -0.502 -0.502 -0.334 0 -0.502 -0.334 -0.502 -1 0 -0.669 -0.167 -1 -0.502 -1 -0.276 0 -0.502 -0.226 -0.502 -0.502 0 -0.276 -0.226 -0.502 -0.502 -0.502 -0.276 0 -0.502 -0.226 -0.502 -0.502 0 -0.276 -0.226 -0.502 -0.502 -0.502 -0.276 0 -0.502 -0.226 -0.502 -0.502 0 -0.276 -0.226 -0.502 -0.502 -0.502 -0.276 0 -0.502 -0.226 -0.502 -0.502 0 -0.276 -0.226 -0.502 -0.502 -0.502 -0.276 0 -0.502 -0.226 -0.502 -0.502 0 -0.276 0.226 -0.502 0.502 -0.502 0.276 0 0.502 -0.15 0.502 -0.334 0 -0.184 0.226 -0.334 0.502 -0.334 0.279 0 0.502 -0.297 0.502 -0.669 0 -0.372 0.223 -0.669 0.502 -0.669 0.276 0 0.502 -0.226 0.502 -0.502 0 -0.276 0.226 -0.502 0.502 -0.502 0.276 0 0.502 -0.226 0.502 -0.502 0 -0.276 0.226 -0.502 0.502 -0.502 0.276 0 0.502 -0.226 0.502 -0.502 0 -0.276 0.226 -0.502 0.502 -0.502 0.276 0 0.502 -0.226 0.502 -0.502 0 -0.276 0.226 -0.502 0.502 -0.502 0.276 0 0.502 -0.157 0.502 -0.348 0 -0.192 0.269 -0.637 0.598 -0.99 0.667 -0.716 2.077 -0.575 2.077 0.207 0 0.254 0.226 0.463 0.502 0.463 0.276 0 0.502 0.226 0.502 0.502 0 0.276 0.226 0.502 0.502 0.502 0.276 0 0.502 0.226 0.502 0.502 0 0.276 0.226 0.502 0.502 0.502 0.276 0 0.502 0.226 0.502 0.502 0 0.276 0.226 0.502 0.502 0.502 0.276 0 0.502 0.226 0.502 0.502 0 0.276 0.226 0.502 0.502 0.502 0.314 0 0.502 0.317 0.502 0.847 0 0.466 0.226 0.933 0.502 1.039 0.276 0.106 0.502 0.402 0.502 0.658 0 0.256 0.209 0.466 0.465 0.466 0.256 0 0.56 0.376 0.675 0.836 0.115 0.46 0.357 0.836 0.538 0.836 0.18 0 0.328 0.301 0.328 0.669 0 0.372 0.223 0.669 0.502 0.669 0.314 0 0.502 0.317 0.502 0.847 0 0.466 0.226 0.933 0.502 1.039 0.276 0.106 0.502 0.402 0.502 0.658 0 0.256 0.226 0.466 0.502 0.466 0.334 0 0.502 0.334 0.502 1 0 0.669 0.167 1 0.502 1 0.334 0 0.502 0.334 0.502 1 0 0.669 0.167 1 0.502 1 0.334 0 0.502 0.334 0.502 1 0 0.669 0.167 1 0.502 1 0.334 0 0.502 0.334 0.502 1 0 0.669 0.167 1 0.502 1 0.363 0 0.502 0.373 0.502 1.348 0 0.89 0.171 1.414 0.502 1.541 0.282 0.108 0.502 0.606 0.502 1.136 0 0.519 0.226 1.169 0.502 1.445 0.282 0.282 0.502 1.099 0.502 1.863 0 0.933 0.145 1.362 0.46 1.362 0.318 0 0.509 0.588 0.618 1.906 0.087 1.048 0.331 1.964 0.543 2.034 0.244 0.081 0.385 1.035 0.385 2.609 0 1.982 0.101 2.48 0.502 2.48 0.436 0 0.502 1.449 0.502 11.04 0 9.587 -0.066 11.04 -0.502 11.04 -0.401 0 -0.502 0.502 -0.502 2.508 0 2.01 -0.1 2.508 -0.502 2.508 -0.39 0 -0.502 0.446 -0.502 2.01 0 1.561 -0.111 2.01 -0.502 2.01 -0.37 0 -0.502 0.387 -0.502 1.477 0 0.812 -0.16 1.53 -0.356 1.596 -0.196 0.065 -0.441 0.755 -0.546 1.533 -0.118 0.881 -0.362 1.414 -0.647 1.414 -0.311 0 -0.458 0.429 -0.458 1.338 0 0.966 -0.139 1.338 -0.502 1.338 -0.334 0 -0.502 0.334 -0.502 1 0 0.669 -0.167 1 -0.502 1 -0.334 0 -0.502 0.334 -0.502 1 0 0.669 -0.167 1 -0.502 1 -0.334 0 -0.502 0.334 -0.502 1 0 0.669 -0.167 1 -0.502 1 -0.334 0 -0.502 0.334 -0.502 1 0 0.669 -0.167 1 -0.502 1 -0.276 0 -0.502 0.21 -0.502 0.466 0 0.256 -0.226 0.552 -0.502 0.658 -0.276 0.106 -0.502 0.573 -0.502 1.039 0 0.53 -0.188 0.847 -0.502 0.847 -0.279 0 -0.502 0.297 -0.502 0.669 0 0.368 -0.148 0.669 -0.328 0.669 -0.18 0 -0.422 0.376 -0.538 0.836 -0.115 0.46 -0.419 0.836 -0.675 0.836 -0.256 0 -0.465 0.21 -0.465 0.466 0 0.256 -0.226 0.552 -0.502 0.658 -0.276 0.106 -0.502 0.423 -0.502 0.705 0 0.282 -0.148 0.512 -0.328 0.512 -0.18 0 -0.422 0.376 -0.538 0.836 -0.115 0.46 -0.419 0.836 -0.675 0.836 -0.256 0 -0.465 0.226 -0.465 0.502 0 0.276 -0.226 0.502 -0.502 0.502 -0.276 0 -0.502 0.226 -0.502 0.502 0 0.276 -0.226 0.502 -0.502 0.502 -0.276 0 -0.502 0.226 -0.502 0.502 0 0.276 -0.226 0.502 -0.502 0.502 -0.276 0 -0.502 0.226 -0.502 0.502 0 0.276 -0.138 0.502 -0.307 0.502 -0.169 0 -0.51 0.078 -0.757 0.173 -0.247 0.095 -0.711 -0.132 -1.031 -0.505 z"/></g></g></g></svg>