<svg xmlns="http://www.w3.org/2000/svg" viewBox="0 0 256 256"><g transform="translate(0 -796.36)"><path d="m 182.83 797.33 c -368.15 -25.644 -92.2 469.58 64.2 143.49 21.558 -50.25 5.804 -125.18 -64.2 -143.49 z" style="fill:#fff;color:#000"/><g transform="translate(0 796.36)" style="fill:#ff4500"><path d="m 142.07 157.55 c 0 -0.493 -0.906 -1.4 -1.4 -1.4 -0.21 0 -0.382 -0.24 -0.382 -0.534 0 -0.294 -0.24 -0.534 -0.534 -0.534 -0.294 0 -0.534 -0.24 -0.534 -0.534 0 -0.294 -0.24 -0.534 -0.534 -0.534 -0.294 0 -0.534 -0.24 -0.534 -0.534 0 -0.294 -0.24 -0.534 -0.534 -0.534 -0.294 0 -0.534 -0.172 -0.534 -0.382 0 -0.493 -0.906 -1.4 -1.4 -1.4 -0.21 0 -0.382 -0.24 -0.382 -0.534 0 -0.294 -0.24 -0.534 -0.534 -0.534 -0.294 0 -0.534 -0.143 -0.534 -0.318 0 -0.175 0.24 -0.41 0.534 -0.523 0.294 -0.113 0.534 -0.451 0.534 -0.751 0 -0.3 0.157 -0.546 0.349 -0.546 0.192 0 0.45 -0.401 0.573 -0.891 0.123 -0.49 0.366 -0.891 0.541 -0.891 0.175 0 0.318 -0.24 0.318 -0.534 0 -0.294 0.24 -0.534 0.534 -0.534 0.333 0 0.534 -0.336 0.534 -0.891 0 -0.554 0.202 -0.891 0.534 -0.891 0.356 0 0.534 -0.356 0.534 -1.069 0 -0.713 0.178 -1.069 0.534 -1.069 0.356 0 0.534 -0.356 0.534 -1.069 0 -0.713 0.178 -1.069 0.534 -1.069 0.386 0 0.534 -0.396 0.534 -1.425 0 -0.784 0.16 -1.425 0.356 -1.425 0.196 0 0.356 -0.882 0.356 -1.959 0 -1.504 0.124 -1.959 0.534 -1.959 0.454 0 0.534 -0.91 0.534 -6.06 0 -5.146 -0.08 -6.06 -0.534 -6.06 -0.416 0 -0.534 -0.475 -0.534 -2.138 0 -1.188 -0.158 -2.138 -0.356 -2.138 -0.196 0 -0.356 -0.641 -0.356 -1.425 0 -1.029 -0.148 -1.425 -0.534 -1.425 -0.356 0 -0.534 -0.356 -0.534 -1.069 0 -0.713 -0.178 -1.069 -0.534 -1.069 -0.333 0 -0.534 -0.336 -0.534 -0.891 0 -0.554 -0.202 -0.891 -0.534 -0.891 -0.356 0 -0.534 -0.356 -0.534 -1.069 0 -0.713 -0.178 -1.069 -0.534 -1.069 -0.294 0 -0.534 -0.24 -0.534 -0.534 0 -0.294 -0.143 -0.534 -0.318 -0.534 -0.175 0 -0.418 -0.401 -0.541 -0.891 -0.123 -0.49 -0.381 -0.891 -0.573 -0.891 -0.192 0 -0.349 -0.24 -0.349 -0.534 0 -0.294 -0.24 -0.534 -0.534 -0.534 -0.79 0 -0.678 -0.217 0.891 -1.74 0.784 -0.761 1.425 -1.562 1.425 -1.781 0 -0.219 0.24 -0.398 0.534 -0.398 0.294 0 0.534 -0.24 0.534 -0.534 0 -0.294 0.173 -0.534 0.384 -0.534 0.501 0 3.534 -3.034 3.534 -3.534 0 -0.211 0.481 -0.384 1.069 -0.384 0.903 0 1.069 0.139 1.069 0.891 0 0.49 0.16 0.891 0.356 0.891 0.196 0 0.356 0.321 0.356 0.713 0 0.396 0.238 0.713 0.534 0.713 0.294 0 0.534 0.16 0.534 0.356 0 0.196 0.24 0.356 0.534 0.356 0.294 0 0.534 0.24 0.534 0.534 0 0.294 0.24 0.534 0.534 0.534 0.356 0 0.534 0.356 0.534 1.069 0 0.713 0.178 1.069 0.534 1.069 0.333 0 0.534 0.336 0.534 0.891 0 0.49 0.16 0.891 0.356 0.891 0.196 0 0.356 0.24 0.356 0.534 0 0.294 0.24 0.534 0.534 0.534 0.356 0 0.534 0.356 0.534 1.069 0 0.713 0.178 1.069 0.534 1.069 0.333 0 0.534 0.336 0.534 0.891 0 0.554 0.202 0.891 0.534 0.891 0.396 0 0.534 0.416 0.534 1.603 0 1.188 0.139 1.603 0.534 1.603 0.386 0 0.534 0.396 0.534 1.425 0 0.784 0.16 1.425 0.356 1.425 0.204 0 0.356 1.069 0.356 2.494 0 1.979 0.11 2.494 0.534 2.494 0.457 0 0.534 1.01 0.534 6.947 0 5.938 -0.078 6.947 -0.534 6.947 -0.416 0 -0.534 0.475 -0.534 2.137 0 1.188 -0.158 2.138 -0.356 2.138 -0.196 0 -0.356 0.882 -0.356 1.959 0 1.504 -0.124 1.959 -0.534 1.959 -0.336 0 -0.534 0.339 -0.534 0.916 0 0.504 -0.24 1.157 -0.534 1.45 -0.294 0.294 -0.534 1 -0.534 1.578 0 0.69 -0.181 1.043 -0.534 1.043 -0.333 0 -0.534 0.336 -0.534 0.891 0 0.554 -0.202 0.891 -0.534 0.891 -0.297 0 -0.534 0.317 -0.534 0.713 0 0.392 -0.16 0.713 -0.356 0.713 -0.196 0 -0.356 0.401 -0.356 0.891 0 0.554 -0.202 0.891 -0.534 0.891 -0.333 0 -0.534 0.336 -0.534 0.891 0 0.554 -0.202 0.891 -0.534 0.891 -0.294 0 -0.534 0.24 -0.534 0.534 0 0.294 -0.24 0.534 -0.534 0.534 -0.294 0 -0.534 0.24 -0.534 0.534 0 0.294 -0.24 0.534 -0.534 0.534 -0.294 0 -0.534 0.24 -0.534 0.534 0 0.294 -0.16 0.534 -0.356 0.534 -0.196 0 -0.356 0.24 -0.356 0.534 0 0.294 -0.24 0.534 -0.534 0.534 -0.294 0 -0.534 0.16 -0.534 0.356 0 0.196 -0.24 0.356 -0.534 0.356 -0.294 0 -0.534 -0.172 -0.534 -0.382 z" style="fill-rule:evenodd"/><path d="m 157.77 173.24 l -4.04 -4.415 l 2.239 -2.443 c 3.507 -3.828 5.899 -7.672 8.272 -13.292 1.205 -2.854 2.461 -5.401 2.793 -5.66 2.859 -2.237 4.743 -23.63 2.932 -33.28 -1.224 -6.526 -8.68 -21.944 -13.12 -27.13 l -3.178 -3.713 l 4.073 -4.347 l 4.073 -4.347 l 4.072 4.496 c 2.24 2.473 4.95 6.228 6.02 8.345 1.073 2.117 2.259 4.061 2.636 4.321 1.245 0.858 3.535 6.04 5.628 12.736 2.857 9.14 3.643 26.636 1.633 36.35 -1.619 7.827 -4.884 17.236 -6.619 19.07 -0.612 0.648 -1.962 2.802 -2.998 4.785 -1.036 1.984 -3.795 5.707 -6.13 8.274 l -4.245 4.667 l -4.04 -4.415 z"/><path d="m 177.6 193.3 c -2.198 -2.306 -3.996 -4.519 -3.996 -4.917 0 -0.399 2.618 -3.915 5.818 -7.813 24.81 -30.23 24.527 -78.908 -0.636 -109.57 l -5.98 -7.288 l 4.227 -4.135 l 4.227 -4.135 l 3.842 4.245 c 2.113 2.335 4.814 5.339 6 6.675 3.451 3.881 11.371 19.582 13.764 27.29 1.209 3.892 2.461 7.288 2.782 7.547 1.492 1.204 3.144 14.81 3.094 25.472 -0.052 11.03 -1.59 23.444 -3.039 24.524 -0.351 0.262 -1.638 3.66 -2.859 7.551 -2.345 7.47 -9.785 22.857 -12.3 25.437 -1.415 1.451 -7.951 9.329 -9.993 12.04 -0.755 1 -1.8 0.388 -4.953 -2.92 z"/><path d="m 93.97 196.59 c 0 -0.294 -0.172 -0.534 -0.382 -0.534 -0.493 0 -1.4 -0.906 -1.4 -1.4 0 -0.21 -0.24 -0.382 -0.534 -0.382 -0.294 0 -0.534 -0.24 -0.534 -0.534 0 -0.294 -0.24 -0.534 -0.534 -0.534 -0.294 0 -0.534 -0.24 -0.534 -0.534 0 -0.294 -0.24 -0.534 -0.534 -0.534 -0.294 0 -0.534 -0.24 -0.534 -0.534 0 -0.294 -0.172 -0.534 -0.382 -0.534 -0.493 0 -1.4 -0.906 -1.4 -1.4 0 -0.21 -0.24 -0.382 -0.534 -0.382 -0.294 0 -0.534 -0.24 -0.534 -0.534 0 -0.294 -0.24 -0.534 -0.534 -0.534 -0.294 0 -0.534 -0.24 -0.534 -0.534 0 -0.294 -0.24 -0.534 -0.534 -0.534 -0.294 0 -0.534 -0.24 -0.534 -0.534 0 -0.294 -0.172 -0.534 -0.382 -0.534 -0.493 0 -1.4 -0.906 -1.4 -1.4 0 -0.21 -0.24 -0.382 -0.534 -0.382 -0.294 0 -0.534 -0.223 -0.534 -0.496 0 -0.273 -0.401 -0.596 -0.891 -0.719 -0.49 -0.123 -0.891 -0.381 -0.891 -0.573 0 -0.192 -0.24 -0.349 -0.534 -0.349 -0.294 0 -0.534 -0.24 -0.534 -0.534 0 -0.294 -0.24 -0.534 -0.534 -0.534 -0.294 0 -0.534 -0.24 -0.534 -0.534 0 -0.294 -0.24 -0.534 -0.534 -0.534 -0.294 0 -0.534 -0.24 -0.534 -0.534 0 -0.294 -0.24 -0.534 -0.534 -0.534 -0.294 0 -0.534 -0.172 -0.534 -0.382 0 -0.493 -0.906 -1.4 -1.4 -1.4 -0.21 0 -0.382 -0.24 -0.382 -0.534 0 -0.294 -0.24 -0.534 -0.534 -0.534 -0.294 0 -0.534 -0.24 -0.534 -0.534 0 -0.294 -0.24 -0.534 -0.534 -0.534 -0.294 0 -0.534 -0.24 -0.534 -0.534 0 -0.294 -0.24 -0.534 -0.534 -0.534 -0.294 0 -0.534 -0.172 -0.534 -0.382 0 -0.493 -0.906 -1.4 -1.4 -1.4 -0.21 0 -0.382 -0.24 -0.382 -0.534 0 -0.294 -0.24 -0.534 -0.534 -0.534 -0.294 0 -0.534 -0.24 -0.534 -0.534 0 -0.294 -0.24 -0.534 -0.534 -0.534 -0.294 0 -0.534 -0.24 -0.534 -0.534 0 -0.294 -0.24 -0.534 -0.534 -0.534 -0.294 0 -0.534 -0.172 -0.534 -0.382 0 -0.493 -0.906 -1.4 -1.4 -1.4 -0.21 0 -0.382 -0.24 -0.382 -0.534 0 -0.294 -0.24 -0.534 -0.534 -0.534 -0.294 0 -0.534 -0.24 -0.534 -0.534 0 -0.294 -0.24 -0.534 -0.534 -0.534 -0.294 0 -0.534 -0.24 -0.534 -0.534 0 -0.294 -0.24 -0.534 -0.534 -0.534 -0.294 0 -0.534 -0.24 -0.534 -0.534 0 -0.294 -0.172 -0.534 -0.382 -0.534 -0.493 0 -1.4 -0.906 -1.4 -1.4 0 -0.21 -0.24 -0.382 -0.534 -0.382 -0.294 0 -0.534 -0.24 -0.534 -0.534 0 -0.294 -0.24 -0.534 -0.534 -0.534 -0.294 0 -0.534 -0.24 -0.534 -0.534 0 -0.294 -0.24 -0.534 -0.534 -0.534 -0.294 0 -0.534 -0.24 -0.534 -0.534 0 -0.294 -0.24 -0.534 -0.534 -0.534 -0.333 0 -0.534 -0.336 -0.534 -0.891 0 -0.49 -0.16 -0.891 -0.356 -0.891 -0.196 0 -0.356 -0.24 -0.356 -0.534 0 -0.294 -0.24 -0.534 -0.534 -0.534 -0.294 0 -0.534 -0.24 -0.534 -0.534 0 -0.294 -0.24 -0.534 -0.534 -0.534 -0.294 0 -0.534 -0.24 -0.534 -0.534 0 -0.294 -0.24 -0.534 -0.534 -0.534 -0.333 0 -0.534 -0.336 -0.534 -0.891 0 -0.554 -0.202 -0.891 -0.534 -0.891 -0.294 0 -0.534 -0.24 -0.534 -0.534 0 -0.294 -0.16 -0.534 -0.356 -0.534 -0.196 0 -0.356 -0.406 -0.356 -0.902 0 -0.496 -0.24 -0.994 -0.534 -1.107 -0.294 -0.113 -0.534 -0.428 -0.534 -0.701 0 -0.273 -0.24 -0.496 -0.534 -0.496 -0.333 0 -0.534 -0.336 -0.534 -0.891 0 -0.554 -0.202 -0.891 -0.534 -0.891 -0.396 0 -0.534 -0.416 -0.534 -1.603 0 -1.188 -0.139 -1.603 -0.534 -1.603 -0.386 0 -0.534 -0.396 -0.534 -1.425 0 -0.784 -0.16 -1.425 -0.356 -1.425 -0.196 0 -0.356 -0.882 -0.356 -1.959 0 -1.504 -0.124 -1.959 -0.534 -1.959 -0.459 0 -0.534 -1.125 -0.534 -7.986 0 -5.86 0.113 -8.02 0.424 -8.127 0.25 -0.083 0.487 -1.12 0.576 -2.523 0.083 -1.31 0.293 -2.382 0.466 -2.382 0.173 0 0.315 -0.641 0.315 -1.425 0 -1.029 0.148 -1.425 0.534 -1.425 0.356 0 0.534 -0.356 0.534 -1.069 0 -0.713 0.178 -1.069 0.534 -1.069 0.326 0 0.534 -0.332 0.534 -0.853 0 -0.469 0.24 -0.945 0.534 -1.058 0.294 -0.113 0.534 -0.611 0.534 -1.107 0 -0.564 0.2 -0.902 0.534 -0.902 0.356 0 0.534 -0.356 0.534 -1.069 0 -0.588 0.16 -1.069 0.356 -1.069 0.196 0 0.356 -0.24 0.356 -0.534 0 -0.294 0.24 -0.534 0.534 -0.534 0.333 0 0.534 -0.336 0.534 -0.891 0 -0.554 0.202 -0.891 0.534 -0.891 0.294 0 0.534 -0.24 0.534 -0.534 0 -0.294 0.24 -0.534 0.534 -0.534 0.333 0 0.534 -0.336 0.534 -0.891 0 -0.554 0.202 -0.891 0.534 -0.891 0.294 0 0.534 -0.24 0.534 -0.534 0 -0.294 0.16 -0.534 0.356 -0.534 0.196 0 0.356 -0.24 0.356 -0.534 0 -0.294 0.24 -0.534 0.534 -0.534 0.294 0 0.534 -0.24 0.534 -0.534 0 -0.294 0.24 -0.534 0.534 -0.534 0.356 0 0.534 -0.356 0.534 -1.069 0 -0.713 0.178 -1.069 0.534 -1.069 0.294 0 0.534 -0.16 0.534 -0.356 0 -0.196 0.24 -0.356 0.534 -0.356 0.294 0 0.534 -0.24 0.534 -0.534 0 -0.294 0.16 -0.534 0.356 -0.534 0.196 0 0.356 -0.24 0.356 -0.534 0 -0.294 0.24 -0.534 0.534 -0.534 0.294 0 0.534 -0.24 0.534 -0.534 0 -0.294 0.24 -0.534 0.534 -0.534 0.294 0 0.534 -0.24 0.534 -0.534 0 -0.294 0.24 -0.534 0.534 -0.534 0.294 0 0.534 -0.16 0.534 -0.356 0 -0.196 0.24 -0.356 0.534 -0.356 0.294 0 0.534 -0.24 0.534 -0.534 0 -0.294 0.24 -0.534 0.534 -0.534 0.294 0 0.534 -0.24 0.534 -0.534 0 -0.294 0.16 -0.534 0.356 -0.534 0.196 0 0.356 -0.24 0.356 -0.534 0 -0.294 0.24 -0.534 0.534 -0.534 0.294 0 0.534 -0.24 0.534 -0.534 0 -0.294 0.24 -0.534 0.534 -0.534 0.294 0 0.534 -0.16 0.534 -0.356 0 -0.196 0.24 -0.356 0.534 -0.356 0.294 0 0.534 -0.24 0.534 -0.534 0 -0.294 0.24 -0.534 0.534 -0.534 0.294 0 0.534 -0.24 0.534 -0.534 0 -0.294 0.16 -0.534 0.356 -0.534 0.196 0 0.356 -0.24 0.356 -0.534 0 -0.294 0.24 -0.534 0.534 -0.534 0.294 0 0.534 -0.24 0.534 -0.534 0 -0.294 0.24 -0.534 0.534 -0.534 0.294 0 0.534 -0.16 0.534 -0.356 0 -0.196 0.24 -0.356 0.534 -0.356 0.294 0 0.534 -0.24 0.534 -0.534 0 -0.294 0.24 -0.534 0.534 -0.534 0.294 0 0.534 -0.24 0.534 -0.534 0 -0.294 0.16 -0.534 0.356 -0.534 0.196 0 0.356 -0.24 0.356 -0.534 0 -0.294 0.24 -0.534 0.534 -0.534 0.294 0 0.534 -0.24 0.534 -0.534 0 -0.294 0.24 -0.534 0.534 -0.534 0.294 0 0.534 -0.16 0.534 -0.356 0 -0.196 0.24 -0.356 0.534 -0.356 0.294 0 0.534 -0.24 0.534 -0.534 0 -0.294 0.24 -0.534 0.534 -0.534 0.294 0 0.534 -0.24 0.534 -0.534 0 -0.294 0.16 -0.534 0.356 -0.534 0.196 0 0.356 -0.24 0.356 -0.534 0 -0.294 0.24 -0.534 0.534 -0.534 0.294 0 0.534 -0.24 0.534 -0.534 0 -0.294 0.24 -0.534 0.534 -0.534 0.294 0 0.534 -0.24 0.534 -0.534 0 -0.331 0.336 -0.534 0.884 -0.534 0.646 0 0.944 -0.24 1.108 -0.894 0.136 -0.542 0.56 -0.978 1.076 -1.107 0.601 -0.151 0.851 -0.464 0.851 -1.066 0 -0.661 0.191 -0.852 0.852 -0.852 0.612 0 0.915 -0.251 1.076 -0.891 0.123 -0.49 0.461 -0.891 0.751 -0.891 0.29 0 0.528 -0.24 0.528 -0.534 0 -0.294 0.16 -0.534 0.356 -0.534 0.196 0 0.356 -0.24 0.356 -0.534 0 -0.356 0.356 -0.534 1.069 -0.534 0.95 0 1.069 -0.119 1.069 -1.069 0 -0.713 0.178 -1.069 0.534 -1.069 0.294 0 0.534 -0.16 0.534 -0.356 0 -0.196 0.401 -0.356 0.891 -0.356 0.49 0 0.891 0.16 0.891 0.356 0 0.196 0.24 0.356 0.534 0.356 0.294 0 0.534 0.24 0.534 0.534 0 0.294 0.24 0.534 0.534 0.534 0.294 0 0.534 0.24 0.534 0.534 0 0.294 0.143 0.534 0.318 0.534 0.175 0 0.418 0.401 0.541 0.891 0.123 0.49 0.381 0.891 0.573 0.891 0.192 0 0.349 0.24 0.349 0.534 0 0.294 0.24 0.534 0.534 0.534 0.294 0 0.534 0.24 0.534 0.534 0 0.294 0.24 0.534 0.534 0.534 0.294 0 0.534 0.24 0.534 0.534 0 0.294 0.24 0.534 0.534 0.534 0.294 0 0.534 0.24 0.534 0.534 0 0.294 0.16 0.534 0.356 0.534 0.196 0 0.356 0.401 0.356 0.891 0 0.554 0.202 0.891 0.534 0.891 0.294 0 0.534 0.24 0.534 0.534 0 0.294 0.24 0.534 0.534 0.534 0.294 0 0.534 0.24 0.534 0.534 0 0.294 0.24 0.534 0.534 0.534 0.356 0 0.534 0.356 0.534 1.069 0 0.713 0.178 1.069 0.534 1.069 0.294 0 0.534 0.24 0.534 0.534 0 0.294 0.24 0.534 0.534 0.534 0.332 0 0.534 0.336 0.534 0.891 0 0.49 0.16 0.891 0.356 0.891 0.196 0 0.356 0.406 0.356 0.902 0 0.496 0.24 0.994 0.534 1.107 0.294 0.113 0.534 0.428 0.534 0.701 0 0.273 0.24 0.496 0.534 0.496 0.332 0 0.534 0.336 0.534 0.891 0 0.554 0.202 0.891 0.534 0.891 0.356 0 0.534 0.356 0.534 1.069 0 0.713 0.178 1.069 0.534 1.069 0.332 0 0.534 0.336 0.534 0.891 0 0.49 0.16 0.891 0.356 0.891 0.196 0 0.356 0.481 0.356 1.069 0 0.713 0.178 1.069 0.534 1.069 0.356 0 0.534 0.356 0.534 1.069 0 0.713 0.178 1.069 0.534 1.069 0.386 0 0.534 0.396 0.534 1.425 0 1.029 0.148 1.425 0.534 1.425 0.386 0 0.534 0.396 0.534 1.425 0 1.029 0.148 1.425 0.534 1.425 0.356 0 0.534 0.356 0.534 1.069 0 0.588 0.16 1.069 0.356 1.069 0.196 0 0.356 0.71 0.356 1.578 0 0.927 0.22 1.798 0.534 2.112 0.3 0.3 0.534 1.171 0.534 1.985 0 1.052 0.147 1.45 0.534 1.45 0.409 0 0.534 0.452 0.534 1.934 0 1.244 0.191 2.125 0.534 2.468 0.374 0.374 0.534 1.289 0.534 3.054 0 2 0.11 2.519 0.534 2.519 0.45 0 0.534 0.792 0.534 4.988 0 3.088 0.136 4.988 0.356 4.988 0.22 0 0.356 1.841 0.356 4.809 0 2.969 -0.136 4.809 -0.356 4.809 -0.221 0 -0.356 1.959 -0.356 5.166 0 4.354 -0.084 5.166 -0.534 5.166 -0.421 0 -0.534 0.498 -0.534 2.341 0 1.606 -0.168 2.509 -0.534 2.875 -0.355 0.355 -0.534 1.244 -0.534 2.646 0 1.64 -0.119 2.112 -0.534 2.112 -0.383 0 -0.534 0.392 -0.534 1.387 0 0.904 -0.186 1.458 -0.534 1.592 -0.353 0.135 -0.534 0.693 -0.534 1.641 0 0.79 -0.16 1.436 -0.356 1.436 -0.196 0 -0.356 0.641 -0.356 1.425 0 1.029 -0.148 1.425 -0.534 1.425 -0.386 0 -0.534 0.396 -0.534 1.425 0 1.029 -0.148 1.425 -0.534 1.425 -0.356 0 -0.534 0.356 -0.534 1.069 0 0.588 -0.158 1.069 -0.352 1.069 -0.194 0 -0.455 0.641 -0.58 1.425 -0.137 0.859 -0.422 1.425 -0.717 1.425 -0.306 0 -0.489 0.4 -0.489 1.069 0 0.588 -0.16 1.069 -0.356 1.069 -0.196 0 -0.356 0.481 -0.356 1.069 0 0.713 -0.178 1.069 -0.534 1.069 -0.332 0 -0.534 0.336 -0.534 0.891 0 0.554 -0.202 0.891 -0.534 0.891 -0.297 0 -0.534 0.317 -0.534 0.713 0 0.392 -0.157 0.713 -0.349 0.713 -0.192 0 -0.45 0.401 -0.573 0.891 -0.123 0.49 -0.447 0.891 -0.719 0.891 -0.291 0 -0.496 0.367 -0.496 0.891 0 0.49 -0.16 0.891 -0.356 0.891 -0.196 0 -0.356 0.321 -0.356 0.713 0 0.396 -0.237 0.713 -0.534 0.713 -0.332 0 -0.534 0.336 -0.534 0.891 0 0.554 -0.202 0.891 -0.534 0.891 -0.294 0 -0.534 0.24 -0.534 0.534 0 0.294 -0.157 0.534 -0.349 0.534 -0.192 0 -0.45 0.401 -0.573 0.891 -0.123 0.49 -0.447 0.891 -0.719 0.891 -0.273 0 -0.496 0.24 -0.496 0.534 0 0.294 -0.24 0.534 -0.534 0.534 -0.332 0 -0.534 0.336 -0.534 0.891 0 0.49 -0.16 0.891 -0.356 0.891 -0.196 0 -0.356 0.24 -0.356 0.534 0 0.294 -0.24 0.534 -0.534 0.534 -0.294 0 -0.534 0.24 -0.534 0.534 0 0.294 -0.24 0.534 -0.534 0.534 -0.294 0 -0.534 0.24 -0.534 0.534 0 0.294 -0.24 0.534 -0.534 0.534 -0.294 0 -0.534 0.24 -0.534 0.534 0 0.294 -0.24 0.534 -0.534 0.534 -0.332 0 -0.534 0.336 -0.534 0.891 0 0.49 -0.16 0.891 -0.356 0.891 -0.196 0 -0.356 0.24 -0.356 0.534 0 0.294 -0.24 0.534 -0.534 0.534 -0.294 0 -0.534 0.24 -0.534 0.534 0 0.294 -0.24 0.534 -0.534 0.534 -0.294 0 -0.534 0.24 -0.534 0.534 0 0.294 -0.24 0.534 -0.534 0.534 -0.294 0 -0.534 -0.24 -0.534 -0.534 z" style="fill-rule:evenodd"/></g></g></svg>