<svg xmlns="http://www.w3.org/2000/svg" viewBox="0 0 256 256"><g transform="translate(0 -796.36)"><path d="m 211.17 833.49 c 201.82 266.38 -353.59 304.22 -175.35 32.31 40.634 -61.991 121.89 -102.86 175.35 -32.31 z" style="fill:#ffdead;color:#000"/><g transform="matrix(4.22993 0 0 4.0113 32.548 814.95)"><path d="M 29,12 29.062,12.062 29.219,12 29,12 z m 2,2 11,11 0,-11 -11,0 z" style="fill-opacity:0.196"/><path d="m 29 1 l 13 13 h -11 c -0.971 0 -2 -1.029 -2 -2 v -11 z" style="fill:#fff;fill-opacity:0.392"/></g><g transform="matrix(0.98783 -0.12913 0.15556 0.81996 -1.375 178.08)" style="fill:#ff4500;color:#000"><path d="m -16.08 952.5 c -6.621 20.661 -24.331 -1.371 -12.852 -15.572 9.942 -16.775 41.749 -31.623 28.359 -54.39 -15.238 -18.282 -27.554 18.707 -40.31 4.437 -8.976 -16.501 12.557 -26.12 25.773 -27.695 19.677 -3.394 41.907 11.48 40.66 32.727 0.245 20.06 -14.243 36.22 -30.03 46.655 -4.55 3.961 -8.829 8.419 -11.596 13.841 z"/><path d="m -12.861 988.64 c 2.64 25.98 -44.519 20.222 -31.16 -5.238 6.793 -14.196 32.32 -13.14 31.16 5.238 z"/></g></g></svg>