<svg xmlns="http://www.w3.org/2000/svg" viewBox="0 0 256 256"><g transform="translate(0 -796.36)"><path d="m 211.17 833.49 c 201.82 266.38 -353.59 304.22 -175.35 32.31 40.634 -61.991 121.89 -102.86 175.35 -32.31 z" style="fill:#fff;color:#000"/><g transform="matrix(4.22993 0 0 4.0113 26.482 828.09)"><path d="M 29,12 29.062,12.062 29.219,12 29,12 z m 2,2 11,11 0,-11 -11,0 z" style="fill-opacity:0.196"/><g style="fill:#ff4500"><path d="M 29,1 42,14 H 31 c -0.971,0 -2,-1.029 -2,-2 V 1" style="fill-opacity:0.392"/><path d="m 6.922,19.781 c -1.043,0.085 -1.935,1.026 -1.917,2.028 v 13.553 0.049 0.841 0.049 6.826 C 5.016,44.176 6,45.121 7.096,45.106 h 25.5 c 1.079,-0.016 2.02,-0.946 2.033,-1.979 v -21.32 c 0.016,-1.049 -0.937,-2.02 -2.033,-2.028 H 7.096 6.922 z m 1.801,3.166 h 22.19 V 36.55 c -0.161,-0.165 -0.239,-0.222 -0.407,-0.396 -1.651,-1.692 -3.539,-3.703 -5.809,-6.134 -0.454,0.385 -1,0.849 -1.743,1.434 -0.749,0.586 -1.639,1.291 -2.672,2.078 -0.131,0.123 -0.656,-0.345 -1.626,-1.385 -0.993,-1.045 -2.355,-2.64 -4.182,-4.848 -2.451,2.172 -4.218,3.727 -5.751,5.05 v -9.398 z"/></g></g></g></svg>