<svg xmlns="http://www.w3.org/2000/svg" viewBox="0 0 256 256"><path d="m 226.22 211.58 c 62.27 -95.76 12.03 -183 -58.47 -203.69 -94.83 -27.843 -223.59 45.32 -138.75 196.1 c 33.72 59.925 152.85 75.79 197.21 7.587 z" style="fill:#fff;color:#000"/><g transform="matrix(9.0581114 0 0 8.2316384 46.476997 -8448.5443)" style="fill:#ff4500;color:#fff"><rect x="5" y="1034.4" width="8" height="15" rx="1"/><path d="m 2.25,1035.4 c -0.1385,0 -0.25,0.1115 -0.25,0.25 v 0.5 c 0,0.1385 0.1115,0.25 0.25,0.25 H 4 v -1 H 2.25 z m 0,2 c -0.1385,0 -0.25,0.1115 -0.25,0.25 v 0.5 c 0,0.1385 0.1115,0.25 0.25,0.25 H 4 v -1 H 2.25 z m 0,2 c -0.1385,0 -0.25,0.1115 -0.25,0.25 v 0.5 c 0,0.1385 0.1115,0.25 0.25,0.25 H 4 v -1 H 2.25 z m 0,2 c -0.1385,0 -0.25,0.1115 -0.25,0.25 v 0.5 c 0,0.1385 0.1115,0.25 0.25,0.25 H 4 v -1 H 2.25 z m 0,2 c -0.1385,0 -0.25,0.1115 -0.25,0.25 v 0.5 c 0,0.1385 0.1115,0.25 0.25,0.25 H 4 v -1 H 2.25 z m 0,2 c -0.1385,0 -0.25,0.1115 -0.25,0.25 v 0.5 c 0,0.1385 0.1115,0.25 0.25,0.25 H 4 v -1 H 2.25 z m 0,2 c -0.1385,0 -0.25,0.1115 -0.25,0.25 v 0.5 c 0,0.1385 0.1115,0.25 0.25,0.25 H 4 v -1 H 2.25 z"/><path d="m 15.75,1035.4 c 0.1385,0 0.25,0.1115 0.25,0.25 v 0.5 c 0,0.1385 -0.1115,0.25 -0.25,0.25 H 14 v -1 h 1.75 z m 0,2 c 0.1385,0 0.25,0.1115 0.25,0.25 v 0.5 c 0,0.1385 -0.1115,0.25 -0.25,0.25 H 14 v -1 h 1.75 z m 0,2 c 0.1385,0 0.25,0.1115 0.25,0.25 v 0.5 c 0,0.1385 -0.1115,0.25 -0.25,0.25 H 14 v -1 h 1.75 z m 0,2 c 0.1385,0 0.25,0.1115 0.25,0.25 v 0.5 c 0,0.1385 -0.1115,0.25 -0.25,0.25 H 14 v -1 h 1.75 z m 0,2 c 0.1385,0 0.25,0.1115 0.25,0.25 v 0.5 c 0,0.1385 -0.1115,0.25 -0.25,0.25 H 14 v -1 h 1.75 z m 0,2 c 0.1385,0 0.25,0.1115 0.25,0.25 v 0.5 c 0,0.1385 -0.1115,0.25 -0.25,0.25 H 14 v -1 h 1.75 z m 0,2 c 0.1385,0 0.25,0.1115 0.25,0.25 v 0.5 c 0,0.1385 -0.1115,0.25 -0.25,0.25 H 14 v -1 h 1.75 z"/></g></svg>