<svg xmlns="http://www.w3.org/2000/svg" viewBox="0 0 256 256"><g transform="translate(0 -796.36)"><path d="m 211.17 833.49 c 201.82 266.38 -353.59 304.22 -175.35 32.31 40.634 -61.99 121.89 -102.86 175.35 -32.31" style="fill:#ffdead;color:#000"/><path d="m 7.785 -1.373 c -0.554 0 -1 0.446 -1 1 v 1.1 c -2.287 0.461 -4 2.473 -4 4.9 v 4 c -1.108 0 -2 0.892 -2 2 v 1 h 6 v 1 c 0 0.554 0.446 1 1 1 0.554 0 1 -0.446 1 -1 v -1 h 6 v -1 c 0 -1.108 -0.892 -2 -2 -2 v -4 c 0 -2.427 -1.713 -4.439 -4 -4.9 v -1.1 c 0 -0.554 -0.446 -1 -1 -1 z" transform="matrix(8.43886 0 0 8.0272 62.3 871.17)" style="fill:#ff4500"/></g></svg>