<svg xmlns="http://www.w3.org/2000/svg" viewBox="0 0 256 256"><path d="m 3.74 950.97 c 19.829 131.87 217.21 135.83 247.04 7.636 30.702 -103.78 -80.47 -188.63 -163.63 -154.63 -55.684 16.07 -100.67 81.83 -83.41 146.99 z" transform="translate(0 -796.36)" style="fill:#fff;color:#000"/><path d="m 77.825802,65.617176 c 0,0 -18.168204,0 -18.168204,20.349545 v 81.398159 c 0,20.34955 18.168204,20.34955 18.168204,20.34955 h 99.925128 c 0,0 18.16821,0 18.16821,-20.34955 V 85.966721 c 0,-20.349545 -18.16821,-20.349545 -18.16821,-20.349545 H 77.825802 z m 2.271024,20.349545 H 93.72299 c 1.25815,0 2.27102,1.13448 2.27102,2.543687 v 15.262162 c 0,1.40921 -1.01287,2.54369 -2.27102,2.54369 H 80.096826 c -1.258147,0 -2.271024,-1.13448 -2.271024,-2.54369 V 88.510408 c 0,-1.409207 1.012877,-2.543687 2.271024,-2.543687 z m 27.252314,0 h 13.62615 c 1.25815,0 2.27102,1.13448 2.27102,2.543687 v 15.262162 c 0,1.40921 -1.01287,2.54369 -2.27102,2.54369 h -13.62615 c -1.25815,0 -2.27103,-1.13448 -2.27103,-2.54369 V 88.510408 c 0,-1.409207 1.01288,-2.543687 2.27103,-2.543687 z m 27.2523,0 h 13.62616 c 1.25815,0 2.27103,1.13448 2.27103,2.543687 v 15.262162 c 0,1.40921 -1.01288,2.54369 -2.27103,2.54369 h -13.62616 c -1.25814,0 -2.27102,-1.13448 -2.27102,-2.54369 V 88.510408 c 0,-1.409207 1.01288,-2.543687 2.27102,-2.543687 z m 27.25232,0 h 13.62615 c 1.25815,0 2.27102,1.13448 2.27102,2.543687 v 15.262162 c 0,1.40921 -1.01287,2.54369 -2.27102,2.54369 h -13.62615 c -1.25815,0 -2.27103,-1.13448 -2.27103,-2.54369 V 88.510408 c 0,-1.409207 1.01288,-2.543687 2.27103,-2.543687 z M 80.096826,116.49103 H 93.72299 c 1.25815,0 2.27102,1.13449 2.27102,2.54369 v 15.26216 c 0,1.4092 -1.01287,2.5437 -2.27102,2.5437 H 80.096826 c -1.258147,0 -2.271024,-1.1345 -2.271024,-2.5437 v -15.26216 c 0,-1.4092 1.012877,-2.54369 2.271024,-2.54369 z m 27.252314,0 h 13.62615 c 1.25815,0 2.27102,1.13449 2.27102,2.54369 v 15.26216 c 0,1.4092 -1.01287,2.5437 -2.27102,2.5437 h -13.62615 c -1.25815,0 -2.27103,-1.1345 -2.27103,-2.5437 v -15.26216 c 0,-1.4092 1.01288,-2.54369 2.27103,-2.54369 z m 27.2523,0 h 13.62616 c 1.25815,0 2.27103,1.13449 2.27103,2.54369 v 15.26216 c 0,1.4092 -1.01288,2.5437 -2.27103,2.5437 h -13.62616 c -1.25814,0 -2.27102,-1.1345 -2.27102,-2.5437 v -15.26216 c 0,-1.4092 1.01288,-2.54369 2.27102,-2.54369 z m 27.25232,0 h 13.62615 c 1.25815,0 2.27102,1.13449 2.27102,2.54369 v 15.26216 c 0,1.4092 -1.01287,2.5437 -2.27102,2.5437 h -13.62615 c -1.25815,0 -2.27103,-1.1345 -2.27103,-2.5437 v -15.26216 c 0,-1.4092 1.01288,-2.54369 2.27103,-2.54369 z m -63.58873,30.52431 h 59.04667 c 1.25816,0 2.27103,1.13449 2.27103,2.54369 v 15.26215 c 0,1.40921 -1.01287,2.5437 -2.27103,2.5437 H 98.26503 c -1.25814,0 -2.27102,-1.13449 -2.27102,-2.5437 v -15.26215 c 0,-1.4092 1.01288,-2.54369 2.27102,-2.54369 z" style="fill:#ffa07a;color:#fff"/></svg>