<svg xmlns="http://www.w3.org/2000/svg" viewBox="0 0 256 256"><defs><clipPath><rect rx="4" y="1" x="1" height="46" width="46" style="fill:#1890d0"/></clipPath><clipPath><path d="m -100 -74 v 96 h 96 v -96 h -96 z m 48 16 c 17.664 0 32 14.336 32 32 0 17.664 -14.336 32 -32 32 -17.664 0 -32 -14.336 -32 -32 0 -17.664 14.336 -32 32 -32 z m 12.13 16.13 l -16.25 18.875 l -8 -7.25 l -7.75 8.375 l 15.75 15.625 l 24 -27.25 l -7.75 -8.375 z"/></clipPath><clipPath><rect rx="4" y="1" x="1" height="46" width="46" style="fill:#1890d0"/></clipPath><clipPath><rect rx="4" y="1" x="1" height="46" width="46" style="fill:#1890d0"/></clipPath><clipPath><path d="M 0,0 0,96 96,96 96,0 0,0 z m 12,6 72,0 c 3.324,0 6,2.676 6,6 l 0,72 c 0,3.324 -2.676,6 -6,6 L 12,90 C 8.676,90 6,87.324 6,84 L 6,12 C 6,8.676 8.676,6 12,6 z"/></clipPath><clipPath><rect rx="4" y="1" x="1" height="46" width="46" style="fill:#1890d0"/></clipPath><clipPath><rect rx="4" y="1" x="1" height="46" width="46" style="fill:#1890d0"/></clipPath><clipPath><rect rx="4" y="1" x="1" height="46" width="46" style="fill:#1890d0"/></clipPath><clipPath><rect rx="4" y="1" x="1" height="46" width="46" style="fill:#1890d0"/></clipPath><clipPath><rect rx="4" y="1" x="1" height="46" width="46" style="fill:#1890d0"/></clipPath><clipPath><rect rx="4" y="1" x="1" height="46" width="46" style="fill:#1890d0"/></clipPath><clipPath><rect rx="4" y="1" x="1" height="46" width="46" style="fill:#1890d0"/></clipPath><clipPath><rect rx="4" y="1" x="1" height="46" width="46" style="fill:#1890d0"/></clipPath><clipPath><rect rx="4" y="1" x="1" height="46" width="46" style="fill:#1890d0"/></clipPath><clipPath><rect rx="4" y="1" x="1" height="46" width="46" style="fill:#1890d0"/></clipPath><clipPath><rect rx="4" y="1" x="1" height="46" width="46" style="fill:#1890d0"/></clipPath></defs><g transform="matrix(0.98729 0 0 0.99153 2.173 -787.45)"><path d="m 203.22 821.34 c -192.46 -127.95 -311 280.09 -62.2 226.07 102.82 -23.02 165.22 -167.39 62.2 -226.07 z" style="fill:#fff;color:#000"/><rect ry="4.297" rx="0.6" y="863.53" x="57.08" height="110.77" width="139.8" style="fill:#ff4500"/><path d="m 58.693 839.69 c -7.606 0 -13.793 6.311 -13.793 14.09 v 143.09 c 0 7.77 6.178 14.09 13.793 14.09 h 140.07 c 7.606 0 13.793 -6.311 13.793 -14.09 v -143.09 c 0 -7.779 -6.178 -14.09 -13.793 -14.09 h -140.07 z m 80.04 41.987 c 11.967 -0.15 29.18 1.485 55.977 6.63 l -1.082 80.08 c -81.91 -36.1 -72.44 18.66 -130.84 -6.082 l 1.082 -80.08 c 51.05 16.176 39 -0.097 74.901 -0.548 z" style="fill:#fff"/></g></svg>