<svg xmlns="http://www.w3.org/2000/svg" viewBox="0 0 256 256"><defs><clipPath><rect rx="4" y="1" x="1" height="46" width="46" style="fill:#1890d0"/></clipPath><clipPath><rect rx="4" y="1" x="1" height="46" width="46" style="fill:#1890d0"/></clipPath><clipPath><rect rx="4" y="1" x="1" height="46" width="46" style="fill:#1890d0"/></clipPath><clipPath><rect rx="4" y="1" x="1" height="46" width="46" style="fill:#1890d0"/></clipPath><clipPath><rect rx="4" y="1" x="1" height="46" width="46" style="fill:#1890d0"/></clipPath><clipPath><rect rx="4" y="1" x="1" height="46" width="46" style="fill:#1890d0"/></clipPath><clipPath><rect rx="4" y="1" x="1" height="46" width="46" style="fill:#1890d0"/></clipPath><clipPath><rect rx="4" y="1" x="1" height="46" width="46" style="fill:#1890d0"/></clipPath><clipPath><rect rx="4" y="1" x="1" height="46" width="46" style="fill:#1890d0"/></clipPath><clipPath><rect rx="4" y="1" x="1" height="46" width="46" style="fill:#1890d0"/></clipPath><clipPath><rect rx="4" y="1" x="1" height="46" width="46" style="fill:#1890d0"/></clipPath><clipPath><rect rx="4" y="1" x="1" height="46" width="46" style="fill:#1890d0"/></clipPath><clipPath><rect rx="4" y="1" x="1" height="46" width="46" style="fill:#1890d0"/></clipPath><clipPath><rect rx="4" y="1" x="1" height="46" width="46" style="fill:#1890d0"/></clipPath></defs><g transform="translate(1.091 -1.088)"><path d="m 52.32 231.35 c 190.83 126.32 308.36 -276.53 61.673 -223.2 -101.95 22.727 -163.82 165.26 -61.673 223.2 z" style="fill:#fff;color:#000"/><path transform="matrix(8.83673 0 0 9.71671 -3695.52 -5091.33)" d="m 440.71,537.91 q 0,0.26 -0.19,0.45 -0.19,0.19 -0.45,0.19 h -2.24 q 0,1.71 -0.67,2.9 l 2.08,2.09 q 0.19,0.19 0.19,0.45 0,0.26 -0.19,0.45 -0.18,0.19 -0.45,0.19 -0.27,0 -0.45,-0.19 l -1.98,-1.97 q -0.05,0.05 -0.15,0.13 -0.1,0.08 -0.42,0.285 -0.32,0.205 -0.65,0.365 -0.33,0.16 -0.82,0.29 -0.49,0.13 -0.97,0.13 v -8.96 h -1.28 v 8.96 q -0.51,0 -1.015,-0.135 -0.505,-0.135 -0.87,-0.33 -0.365,-0.195 -0.66,-0.39 -0.295,-0.195 -0.435,-0.325 l -0.15,-0.14 -1.83,2.07 q -0.2,0.21 -0.48,0.21 -0.24,0 -0.43,-0.16 -0.19,-0.18 -0.205,-0.445 -0.015,-0.265 0.155,-0.465 l 2.02,-2.27 q -0.58,-1.14 -0.58,-2.74 h -2.24 q -0.26,0 -0.45,-0.19 -0.19,-0.19 -0.19,-0.45 0,-0.26 0.19,-0.45 0.19,-0.19 0.45,-0.19 h 2.24 v -2.94 l -1.73,-1.73 q -0.19,-0.19 -0.19,-0.45 0,-0.26 0.19,-0.45 0.19,-0.19 0.45,-0.19 0.26,0 0.45,0.19 l 1.73,1.73 h 8.44 l 1.73,-1.73 q 0.19,-0.19 0.45,-0.19 0.26,0 0.45,0.19 0.19,0.19 0.19,0.45 0,0.26 -0.19,0.45 l -1.73,1.73 v 2.94 h 2.24 q 0.26,0 0.45,0.19 0.19,0.19 0.19,0.45 z m -4.8,-5.76 h -6.4 q 0,-1.33 0.935,-2.265 0.935,-0.935 2.265,-0.935 1.33,0 2.265,0.935 0.935,0.935 0.935,2.265 z" style="fill:#ff4500"/></g></svg>