<svg xmlns="http://www.w3.org/2000/svg" viewBox="0 0 256 256"><defs><clipPath><path transform="matrix(15.33333 0 0 11.5 415 -125.5)" d="m -24 13 c 0 1.105 -0.672 2 -1.5 2 -0.828 0 -1.5 -0.895 -1.5 -2 0 -1.105 0.672 -2 1.5 -2 0.828 0 1.5 0.895 1.5 2 z" style="fill:#1890d0"/></clipPath></defs><g transform="translate(0 -796.36)"><path d="m 47.855 833.49 c -192.98 266.38 338.09 304.22 167.66 32.31 -38.854 -61.991 -116.55 -102.86 -167.66 -32.31 z" style="fill:#fff;color:#000"/><g transform="matrix(10.90222 0 0 10.37502 33.428 530.6)" style="fill:none;stroke:#ff4500;stroke-linecap:round"><path d="m 4.48 33.02 l 2.4 -2.4 v 10.03 c 0 -1.426 1.374 -2.834 2.8 -2.834 1.426 0 2.8 1.408 2.8 2.834 0 1.426 -1.374 2.766 -2.8 2.766 -1.426 0 -2.8 -1.34 -2.8 -2.766" style="stroke-miterlimit:10;stroke-linejoin:round;stroke-width:1.6"/><path transform="matrix(0.74287 0 0 0.74287 0.765 30.59)" d="M 11.444 6.522 A 7 7 0 1 1 5.167 11.98" style="stroke-width:2.154"/></g></g></svg>