<svg xmlns="http://www.w3.org/2000/svg" viewBox="0 0 256 256"><defs><clipPath><path transform="matrix(15.33333 0 0 11.5 415 -125.5)" d="m -24 13 c 0 1.105 -0.672 2 -1.5 2 -0.828 0 -1.5 -0.895 -1.5 -2 0 -1.105 0.672 -2 1.5 -2 0.828 0 1.5 0.895 1.5 2 z" style="fill:#1890d0"/></clipPath></defs><g transform="translate(0 -796.36)"><path d="m 47.855 833.49 c -192.98 266.38 338.09 304.22 167.66 32.31 -38.854 -61.991 -116.55 -102.86 -167.66 -32.31 z" style="fill:#fff;color:#000"/><g transform="matrix(11.24779 0 0 10.30007 25.908 534.09)" style="fill:none;stroke:#ff4500;stroke-linecap:round;stroke-width:1.6"><path d="m 4.48 33.02 l 2.4 -2.4 v 10.03 c 0 -1.426 1.374 -2.834 2.8 -2.834 1.426 0 2.8 1.408 2.8 2.834 0 1.426 -1.374 2.766 -2.8 2.766 -1.426 0 -2.8 -1.34 -2.8 -2.766" style="stroke-miterlimit:10;stroke-linejoin:round"/><path d="m 13.08 44.573 c -1.639 1.425 -4.206 1.655 -6.072 0.545 -1.866 -1.111 -2.888 -3.478 -2.416 -5.597" style="opacity:0.24"/><path d="m 9.257 35.466 c 2.165 -0.172 4.367 1.168 5.207 3.17 0.841 2 0.256 4.513 -1.383 5.937" style="opacity:0.42"/><path d="m 9.257 35.466 c 2.165 -0.172 4.367 1.168 5.207 3.17 0.841 2 0.256 4.513 -1.383 5.937"/></g></g></svg>