<svg xmlns="http://www.w3.org/2000/svg" viewBox="0 0 256 256"><path d="m 121.57 252.40206 c -347.01 -154.259999 162.10999 -431.5 133.24 -87.84 -6.753 51.745 -60.23001 106.08 -133.24 87.84 z" style="fill:#fff;color:#000"/><path d="m 130.71188,50.076267 c 45.41302,0 82.22033,31.427269 82.22033,70.191923 -0.0365,19.25131 -9.31831,37.62287 -25.69843,50.87511 l 7.42724,38.03466 -31.70965,-24.35192 c -10.19532,3.71549 -21.15802,5.62473 -32.23949,5.63407 -45.413034,0 -82.220354,-31.42725 -82.220354,-70.19192 0,-38.764654 36.81644,-70.191923 82.220354,-70.191923 z M 148.98304,96.870875 112.4407,115.58873 75.898306,96.870875 112.4407,143.6655 l 36.54234,-18.71785 36.54239,18.71785 z" style="fill:#ff4500"/></svg>