<svg xmlns="http://www.w3.org/2000/svg" xmlns:xlink="http://www.w3.org/1999/xlink" viewBox="0 0 256 256"><g transform="translate(0 -796.36)"><path d="m 252.46 930.68 c -151.66 341.13 -424.2 -159.36 -86.35 -130.98 50.869 6.639 104.28 59.21 86.35 130.98 z" style="fill:#fff;color:#000"/><path d="m 71.76 854.23 v 137.8 h 113.78 v -137.8 h -113.78 z m 56 15.311 c 2.837 -0.077 5.774 0.138 8.669 0.72 23.17 4.632 38.528 28.646 34.23 53.588 -0.206 1.179 -0.604 2.434 -0.889 3.59 l -27.335 -7.893 c 0.327 -1.286 0.448 -2.664 0.448 -4.065 0 -8.459 -6.365 -15.311 -14.222 -15.311 -7.858 0 -14.222 6.852 -14.222 15.311 0 7.479 4.971 13.734 11.556 15.07 l -5.113 30.15 c -23.17 -4.632 -38.528 -28.646 -34.23 -53.588 3.769 -21.826 21.27 -37.17 41.11 -37.557 z m 0.889 45.932 l 35.556 38.28 v 15.311 h -14.222 l -21.334 -53.588 z m -49.778 45.932 h 14.222 v 15.311 h -14.222 v -15.311 z" id="0" style="fill:#ff4500;fill-opacity:0.675;color:#000"/><use xlink:href="#0" width="256" height="256"/></g></svg>