<svg xmlns="http://www.w3.org/2000/svg" viewBox="0 0 256 256"><defs><clipPath><rect width="46" height="46" x="1" y="1" rx="4" style="fill:#1890d0"/></clipPath><clipPath><rect width="46" height="46" x="1" y="1" rx="4" style="fill:#1890d0"/></clipPath><clipPath><rect width="46" height="46" x="1" y="1" rx="4" style="fill:#1890d0"/></clipPath><clipPath><rect width="46" height="46" x="1" y="1" rx="4" style="fill:#1890d0"/></clipPath><clipPath><rect width="46" height="46" x="1" y="1" rx="4" style="fill:#1890d0"/></clipPath><clipPath><rect width="46" height="46" x="1" y="1" rx="4" style="fill:#1890d0"/></clipPath><clipPath><rect width="46" height="46" x="1" y="1" rx="4" style="fill:#1890d0"/></clipPath><clipPath><rect width="46" height="46" x="1" y="1" rx="4" style="fill:#1890d0"/></clipPath><clipPath><rect width="46" height="46" x="1" y="1" rx="4" style="fill:#1890d0"/></clipPath><clipPath><rect width="46" height="46" x="1" y="1" rx="4" style="fill:#1890d0"/></clipPath><clipPath><rect width="46" height="46" x="1" y="1" rx="4" style="fill:#1890d0"/></clipPath><clipPath><path transform="matrix(0 -1 1 0 0 0)" d="m -202 21 h 4 v 15 h -4 z"/></clipPath><clipPath><path d="M 27.375,221.875 H28.5 V226 H27.375 z"/></clipPath><clipPath><rect width="46" height="46" x="1" y="1" rx="4" style="fill:#1890d0"/></clipPath><clipPath><rect width="46" height="46" x="1" y="1" rx="4" style="fill:#1890d0"/></clipPath><clipPath><rect width="46" height="46" x="1" y="1" rx="4" style="fill:#1890d0"/></clipPath><clipPath><path d="m 27.545 222.49 v -0.58 h 1.739 v 4.057 h -1.739 v -0.58 h -0.58 v -2.898 h 0.58 z"/></clipPath></defs><g transform="translate(0.146 -795.34)"><path d="m 182.83 797.33 c -368.15 -25.644 -92.2 469.58 64.2 143.49 21.558 -50.25 5.804 -125.18 -64.2 -143.49 z" style="fill:#fff;color:#000"/><path d="m 125.67 895.07 c -19.424 0 -35.17 14.03 -35.17 31.34 0 17.31 15.75 31.34 35.17 31.34 19.409 0 35.16 -14.03 35.16 -31.34 0 -17.31 -15.75 -31.34 -35.16 -31.34 z m 0 52.23 c -12.95 0 -23.439 -9.355 -23.439 -20.887 0 -11.54 10.49 -20.894 23.439 -20.894 12.942 0 23.439 9.355 23.439 20.894 0 11.519 -10.497 20.887 -23.439 20.887 z m -23.447 34.805 h 46.878 v -13.925 h -46.878 v 13.925 z m 0 24.376 h 46.878 v -13.932 h -46.878 v 13.932 z m -6.421 -137.71 l -31.755 28.21 l 10.582 9.403 l 31.763 -28.21 l -10.59 -9.403 z m -21.17 -18.661 l -31.755 28.22 l 10.582 9.41 l 31.763 -28.374 l -10.59 -9.251 z m 106.09 -1.199 l -34.865 30.973 l 27.733 24.479 l 34.873 -30.662 l -27.74 -24.789 z" style="fill:#ff4500;stroke:#ff4500;stroke-width:7.302"/></g></svg>