<svg xmlns="http://www.w3.org/2000/svg" xmlns:xlink="http://www.w3.org/1999/xlink" viewBox="0 0 256 256"><defs><path d="m 245.46 129.52 l -97.89 -96.9 c -5.556 -5.502 -16.222 -11.873 -23.7 -14.16 l -39.518 -12.08 c -7.479 -2.286 -18.1 0.391 -23.599 5.948 l -13.441 13.578 c -5.5 5.559 -14.502 14.653 -20 20.21 l -13.44 13.579 c -5.5 5.558 -8.07 16.206 -5.706 23.658 l 12.483 39.39 c 2.363 7.456 8.843 18.06 14.399 23.556 l 97.89 96.9 c 5.558 5.502 14.605 5.455 20.1 -0.101 l 36.26 -36.63 c 5.504 -5.559 14.503 -14.651 20 -20.21 l 36.26 -36.629 c 5.502 -5.56 5.455 -14.606 -0.101 -20.11 z m -178.09 -50.74 c -7.198 0 -13.03 -5.835 -13.03 -13.03 0 -7.197 5.835 -13.03 13.03 -13.03 7.197 0 13.03 5.835 13.03 13.03 -0.001 7.198 -5.836 13.03 -13.03 13.03 z" id="0"/><use id="1" xlink:href="#0"/><clipPath><rect width="46" height="46" x="1" y="1" rx="4" style="fill:#1890d0"/></clipPath><clipPath><rect width="46" height="46" x="1" y="1" rx="4" style="fill:#1890d0"/></clipPath><clipPath><rect width="46" height="46" x="1" y="1" rx="4" style="fill:#1890d0"/></clipPath><clipPath><rect width="46" height="46" x="1" y="1" rx="4" style="fill:#1890d0"/></clipPath><clipPath><rect width="46" height="46" x="1" y="1" rx="4" style="fill:#1890d0"/></clipPath><clipPath><rect width="46" height="46" x="1" y="1" rx="4" style="fill:#1890d0"/></clipPath><clipPath><rect width="46" height="46" x="1" y="1" rx="4" style="fill:#1890d0"/></clipPath><clipPath><rect width="46" height="46" x="1" y="1" rx="4" style="fill:#1890d0"/></clipPath><clipPath><rect width="46" height="46" x="1" y="1" rx="4" style="fill:#1890d0"/></clipPath><clipPath id="2"><use xlink:href="#0"/></clipPath><clipPath style="clip-path:url(#2)"><use xlink:href="#1"/></clipPath><clipPath><rect width="46" height="46" x="1" y="1" rx="4" style="fill:#1890d0"/></clipPath><clipPath style="clip-path:url(#2)"><use xlink:href="#1"/></clipPath><clipPath><rect width="46" height="46" x="1" y="1" rx="4" style="fill:#1890d0"/></clipPath><clipPath><rect width="46" height="46" x="1" y="1" rx="4" style="fill:#1890d0"/></clipPath><clipPath><rect width="46" height="46" x="1" y="1" rx="4" style="fill:#1890d0"/></clipPath><clipPath><rect width="46" height="46" x="1" y="1" rx="4" style="fill:#1890d0"/></clipPath></defs><g transform="translate(0 -796.36)"><path d="m 89.38 859.15 l -29.08 31.26 h 58.16 v -31.26 z m 40.707 0 v 31.26 h 58.16 l -29.08 -31.26 z m -69.787 41.675 v 72.931 h 81.42 v -26.05 h 17.447 v -15.628 h 29.08 v -31.26 z m 110.5 41.674 v 15.628 h -17.447 v 15.628 h 17.447 v 15.628 h 17.447 v -15.628 h 17.447 v -15.628 h -17.447 v -15.628 z" style="fill:#fff"/><g transform="translate(-81.5 8.741)"><path d="m 109.82 848.62 c -91.27 130.38 77.29 262.48 184.81 156.25 101.3 -100.08 7.386 -255.59 -118.68 -206.98 -26.301 10.142 -49.38 26.8 -66.13 50.732 z" style="fill:#fff;color:#000"/><path d="m 227.99 965.19 h -15.175 v -79.42 h -20.341 l 4.197 -11.42 h 31.32 v 90.84 m -70.884 -113.46 c -11.584 0 -20.91 8.519 -20.91 19.1 v 98.89 c 0 10.581 9.326 19.1 20.91 19.1 h 108.26 c 11.584 0 20.91 -8.519 20.91 -19.1 v -98.89 c 0 -10.581 -9.326 -19.1 -20.91 -19.1 h -108.26 z m 3.13 11.233 h 101.71 c 6.462 0 11.676 4.742 11.676 10.645 v 92.93 c 0 5.903 -5.214 10.665 -11.676 10.665 h -101.71 c -6.462 0 -11.676 -4.762 -11.676 -10.665 v -92.93 c 0 -5.903 5.214 -10.645 11.676 -10.645 z" style="fill:#ff4500"/></g></g></svg>