<svg xmlns="http://www.w3.org/2000/svg" viewBox="0 0 256 256"><path d="m 29.586263 211.58 c -62.27 -95.76 -12.03 -183 58.47 -203.69 94.829997 -27.843 223.589997 45.32 138.749997 196.1 -33.72 59.925 -152.849997 75.79 -197.209997 7.587 z" style="fill:#fff;color:#000"/><g transform="matrix(8.0189431 0 0 8.2538746 26.252742 41.008943)" style="fill:#ff4500"><path d="m 5,9 h 3.1e-6 v 7 c 0,2 3.1e-6,2.9996 1.5,2.9998 1.5,0 1.5,-1 1.5,-3 -3.1e-6,2 -3.1e-6,3 1.5,2.9998 1.4999999,0 1.4999999,-1 1.4999999,-3 -3e-6,2 2e-6,2.9996 1.5,2.9998 1.5,0 1.5,-1 1.5,-3 -3e-6,2 2e-6,2.9996 1.5,2.9998 1.5,0 1.5,-1 1.5,-3 v -7 h -0.002 c 0.002,-3 -0.998,-6 -5.998,-6.0002 C 6.0000031,2.9988 5.0000031,5.9992 5.0000031,8.9992 z M 8.5,7.9998 c 0.831,0 1.5,0.669 1.5,1.5 0,0.831 -0.669,1.5 -1.5,1.5 -0.831,0 -1.5,-0.669 -1.5,-1.5 0,-0.831 0.669,-1.5 1.5,-1.5 z m 6,0 c 0.831,0 1.5,0.669 1.5,1.5 0,0.831 -0.669,1.5 -1.5,1.5 -0.831,0 -1.5,-0.669 -1.5,-1.5 0,-0.831 0.669,-1.5 1.5,-1.5 z" style="color:#fff"/><circle r="2" cx="20" cy="5" style="color:#5294e2"/></g></svg>