<svg xmlns="http://www.w3.org/2000/svg" viewBox="0 0 256 256"><defs><clipPath><path transform="matrix(15.33333 0 0 11.5 415 -125.5)" d="m -24 13 c 0 1.105 -0.672 2 -1.5 2 -0.828 0 -1.5 -0.895 -1.5 -2 0 -1.105 0.672 -2 1.5 -2 0.828 0 1.5 0.895 1.5 2 z"/></clipPath></defs><g transform="translate(-0.526 -796.94)"><path d="m 98.83 1049.66 c -238.88 -49.981 17.566 -393.86 138.99 -187.29 52.05 80.25 -16.13 213 -138.99 187.29 z" style="fill:#fff;color:#000"/><g transform="matrix(6.98627 0 0 7.41982 -36.15 751.63)" style="fill:#ff4500"><path d="m 33.878 23.1 l -9.489 -9.86 c -0.22 -0.22 -0.575 -0.205 -0.794 0.015 l -9.419 9.837 c -0.354 0.354 -0.108 0.908 0.394 0.908 l 5.428 0.003 v 8.995 c 0 0.552 0.513 1.01 1.066 1.01 h 6 c 0.552 0 0.934 -0.454 0.934 -1.01 v -8.994 l 5.478 -0.003 c 0.501 0 0.756 -0.546 0.402 -0.901 z"/><g style="fill:#fff"><path d="m 24.02 30.822 h -0.046 c -0.54 0 -0.977 -0.437 -0.977 -0.977 0 -0.54 0.437 -0.977 0.977 -0.977 h 0.046 c 0.54 0 0.977 0.437 0.977 0.977 0 0.54 -0.437 0.977 -0.977 0.977 z"/><path d="m 24.998 26.874 c 0 0.552 -0.448 1 -1 1 -0.552 0 -1 -0.448 -1 -1 v -6 c 0 -0.552 0.448 -1 1 -1 0.552 0 1 0.448 1 1 v 6 z"/></g></g></g></svg>