<svg xmlns="http://www.w3.org/2000/svg" viewBox="0 0 256 256"><defs><clipPath><path transform="matrix(15.33333 0 0 11.5 415 -125.5)" d="m -24 13 c 0 1.105 -0.672 2 -1.5 2 -0.828 0 -1.5 -0.895 -1.5 -2 0 -1.105 0.672 -2 1.5 -2 0.828 0 1.5 0.895 1.5 2 z"/></clipPath></defs><g transform="translate(-0.526 -796.94)"><path d="m 157.17 800.17 c 238.88 49.981 -17.566 393.86 -138.99 187.29 -52.05 -80.25 16.13 -213 138.99 -187.29 z" style="fill:#fff;color:#000"/><g transform="matrix(7.0109 0 0 7.8645 -46.02 736.6)" style="fill:#ff4500"><path d="m 33.47 24.09 l -5.438 -0.003 v -8.994 c 0 -0.552 -0.495 -1.01 -1.047 -1.01 h -6 c -0.552 0 -0.953 0.454 -0.953 1.01 v 8.994 l -5.469 0.003 c -0.501 0 -0.752 0.546 -0.398 0.901 l 9.492 9.859 c 0.22 0.22 0.576 0.205 0.796 -0.015 l 9.415 -9.837 c 0.354 -0.354 0.103 -0.908 -0.398 -0.908 z"/><g style="fill:#fff"><path d="m 24.05 29.965 h -0.046 c -0.54 0 -0.977 -0.437 -0.977 -0.977 0 -0.54 0.437 -0.977 0.977 -0.977 h 0.046 c 0.54 0 0.977 0.437 0.977 0.977 0 0.54 -0.438 0.977 -0.977 0.977 z"/><path d="m 25.02 26.02 c 0 0.552 -0.448 1 -1 1 -0.552 0 -1 -0.448 -1 -1 v -6 c 0 -0.552 0.448 -1 1 -1 0.552 0 1 0.448 1 1 v 6 z"/></g></g></g></svg>