<svg xmlns="http://www.w3.org/2000/svg" viewBox="0 0 256 256"><g transform="translate(-0.98787539 -1.1505424)"><path d="m 29.586263 211.58 c -62.27 -95.76 -12.03 -183 58.47 -203.69 94.829997 -27.843 223.589997 45.32 138.749997 196.1 -33.72 59.925 -152.849997 75.79 -197.209997 7.587 z" style="fill:#fff;color:#000"/><path d="m 11.000001,1032.3622 c -2.1276009,0 -4.084462,0.7343 -5.625002,1.9687 l -1.8125,-1.8125 -1.40625,1.4063 1.8125,1.8125 c -1.23433,1.5405 -1.96875,3.4974 -1.96875,5.625 0,4.9706 4.029437,9 9.000002,9 4.97057,0 9,-4.0294 9,-9 0,-2.1276 -0.73441,-4.0845 -1.96875,-5.625 l 1.8125,-1.8125 -1.40625,-1.4063 -1.8125,1.8125 c -1.54053,-1.2344 -3.4974,-1.9687 -5.625,-1.9687 z m 0,2 c 3.86599,0 7,3.134 7,7 0,3.866 -3.13401,7 -7,7 -3.8659949,0 -7.000002,-3.134 -7.000002,-7 0,-3.866 3.1340071,-7 7.000002,-7 z" transform="matrix(8.2316376 0 0 8.2316385 36.36724 -8439.7781)" style="fill:#ff4500"/><path transform="matrix(0.95338537 0 0 0.9647352 -18.878948 -13.665836)" d="m 199.59323 150.77966 c 0 25.16172 -20.64043 45.55933 -46.1017 45.55933 -25.46126 0 -46.10169 -20.39761 -46.10169 -45.55933 0 -25.16172 20.64043 -45.55932 46.10169 -45.55932 25.46127 0 46.1017 20.3976 46.1017 45.55932 z" style="fill:#8b0000;stroke:#8b0000;fill-rule:evenodd"/></g></svg>