<svg xmlns="http://www.w3.org/2000/svg" viewBox="0 0 256 256"><path d="M 5.7119986,122.20051 C 157.35742,-220.39837 429.89844,282.24981 92.063189,253.74679 41.195219,247.07964 -12.218851,194.28243 5.7119986,122.20051 z" style="fill:#fff;color:#000"/><path d="m 130.16949 48.406781 c -22.40557 0 -40.571426 17.940347 -40.571426 40.067789 v 20.03391 h -20.285715 a 10.142857 10.01695 0 0 0 -10.142857 10.01694 v 80.13559 a 10.142857 10.01695 0 0 0 10.142857 10.01696 h 121.714291 a 10.142857 10.01695 0 0 0 10.14285 -10.01696 v -80.13559 a 10.142857 10.01695 0 0 0 -10.14285 -10.01694 h -20.28572 v -20.03391 c 0 -22.127442 -18.16586 -40.067789 -40.57143 -40.067789 z m 0 20.033893 c 11.20786 0 20.28572 8.965164 20.28572 20.033896 0 4.717988 -1.02444 8.434283 -2.37344 11.088773 -1.349 2.654487 -4.35128 6.200487 -7.76942 8.945137 -3.33701 2.67452 -10.14286 6.08028 -10.14286 6.08028 0 0 3.10371 -3.71628 4.36143 -6.57112 -1.43014 0.32055 -2.89072 0.49084 -4.36143 0.49084 -11.20786 0.01 -20.28571 -8.965177 -20.28571 -20.03391 0 -11.068732 9.07785 -20.033896 20.28571 -20.033896 z m 0 50.084746 a 40.571428 40.067801 0 0 1 40.57143 40.0678 40.571428 40.067801 0 0 1 -40.57143 40.06779 40.571428 40.067801 0 0 1 -40.571426 -40.06779 40.571428 40.067801 0 0 1 40.571426 -40.0678 z m -10.14286 11.75991 a 30.428571 30.050851 0 0 0 -20.285709 28.30789 30.428571 30.050851 0 0 0 20.285709 28.28786 v -56.59575 z m 20.28572 0.02 v 56.59575 a 30.428571 30.050851 0 0 0 20.28571 -28.30789 30.428571 30.050851 0 0 0 -20.28571 -28.28786 z" style="fill:#ff4500;stroke-linecap:round;stroke-linejoin:round;stroke-width:0.70899999"/></svg>