<svg xmlns="http://www.w3.org/2000/svg" viewBox="0 0 256 256"><path d="m 226.22 211.58 c 62.27 -95.76 12.03 -183 -58.47 -203.69 -94.83 -27.843 -223.59 45.32 -138.75 196.1 c 33.72 59.925 152.85 75.79 197.21 7.587 z" style="fill:#fff;color:#000"/><path d="M 98.49153,57.084751 V 101.0678 H 53.830508 v 52.77966 H 98.49153 v 43.98305 h 53.59323 v -43.98305 h 44.66101 V 101.0678 H 152.08476 V 57.084751 H 98.49153 z m 26.79661,17.593219 c 4.94844,0 8.93221,3.923285 8.93221,8.796609 V 112.2351 a 17.864407,17.59322 0 0 1 6.51157,6.42592 h 29.21724 c 4.94844,0 8.9322,3.92329 8.9322,8.79662 0,4.87331 -3.98376,8.79661 -8.9322,8.79661 h -29.20831 a 17.864407,17.59322 0 0 1 -15.45271,8.79661 17.864407,17.59322 0 0 1 -17.8644,-17.59322 17.864407,17.59322 0 0 1 8.9322,-15.20495 V 83.474579 c 0,-4.873324 3.98377,-8.796609 8.9322,-8.796609 z" style="fill:#ff4500;color:#fff;fill-rule:evenodd"/></svg>