<svg xmlns="http://www.w3.org/2000/svg" viewBox="0 0 256 256"><defs><clipPath><path transform="matrix(15.33333 0 0 11.5 415 -125.5)" d="m -24 13 c 0 1.105 -0.672 2 -1.5 2 -0.828 0 -1.5 -0.895 -1.5 -2 0 -1.105 0.672 -2 1.5 -2 0.828 0 1.5 0.895 1.5 2 z"/></clipPath></defs><path d="m 46.627288 219.56923 c -200.109998 -265.250005 350.590002 -302.940005 173.860002 -32.17 -40.29 61.728 -120.860002 102.43 -173.860002 32.17 z" style="fill:#fff;color:#000"/><path d="m 98.911865 46.652543 v 0.170139 a 25.291525 29.000456 0 0 0 -25.291523 28.996106 v 2.627425 a 16.861017 19.333638 0 0 0 -8.430508 -2.627425 16.861017 19.333638 0 0 0 -16.861017 19.33704 h -4.215254 a 4.2152542 4.8334094 0 0 0 -4.215255 4.83899 4.2152542 4.8334094 0 0 0 4.215255 4.820102 h 6.504002 h 19.297956 c 5.870248 -11.479372 16.631324 -19.337062 28.996344 -19.337062 h 0.016 c 4.494555 0.008 8.851215 1.14342 12.925675 3.09998 2.77077 -7.210484 6.81436 -13.590388 11.78954 -18.732169 a 25.291525 29.000456 0 0 0 -24.731635 -23.193107 z m 54.798305 19.469352 v 0.03774 c -18.72248 0 -34.62331 15.711579 -37.44331 36.935075 -4.68788 -5.093476 -10.89723 -7.927396 -17.354995 -7.938996 -13.96851 0 -25.291523 12.979156 -25.291523 28.996106 0.0093 3.32153 0.516031 6.60941 1.498388 9.73469 -0.498243 -0.0968 -0.998206 -0.0948 -1.498388 -0.0948 -9.31234 0 -16.861017 8.65907 -16.861017 19.33704 0 10.6783 7.54893 19.33737 16.861017 19.33737 h 8.809213 c 3.12924 -0.99181 5.47104 -1.97269 8.15059 -4.63106 2.86435 -2.84301 29.486995 -53.20995 53.760965 -53.20994 12.8717 0.006 25.35382 7.23369 29.72083 27.06807 0.38586 1.85894 0.90879 5.45525 0.72451 6.5969 0 8.00799 -5.66167 14.51696 -12.64576 14.51696 -6.98408 0 -12.64576 -6.50897 -12.64576 -14.51696 -0.00071 -7.92776 5.55154 -14.38496 12.46464 -14.49805 -3.9491 -2.87782 -8.76444 -4.55749 -12.43171 -4.59326 -9.95643 -0.0968 -16.16115 9.87756 -17.04214 18.80778 -0.87171 8.83837 1.64871 19.11575 16.94335 24.45956 h 38.00313 c 11.64 0 21.07627 -10.82905 21.07627 -24.17603 -0.004 -12.47309 -8.28565 -22.8837 -19.11683 -24.04371 1.47635 -4.68636 2.23946 -9.62823 2.25581 -14.61147 0 -24.024946 -16.98494 -43.513076 -37.93728 -43.513076 z" style="fill:#ffa07a"/><path d="m 68.932484,170.7178 c -7.710215,-2.73155 -12.050169,-10.6391 -11.124786,-20.26975 0.284221,-2.95794 1.484046,-6.68409 2.666278,-8.28032 3.056137,-4.12636 8.820185,-7.7836 12.26745,-7.7836 2.945395,0 2.945622,-6.4e-4 1.954305,-5.45476 -1.231716,-6.77676 1.153055,-17.14867 5.146845,-22.3848 8.627394,-11.311096 22.502814,-13.82921 32.569544,-5.91072 3.94124,3.10018 4.42948,2.93701 5.31162,-1.775148 2.30471,-12.31112 12.95337,-25.367803 24.10712,-29.558536 8.36684,-3.143626 19.20853,-2.710891 26.686,1.065147 9.90193,5.000358 18.39606,16.607174 21.36123,29.189084 1.33174,5.650913 1.025,19.125133 -0.52497,23.060043 -0.5345,1.35695 0.23762,2.10072 3.19359,3.07627 12.94761,4.2731 19.0442,20.71057 12.61065,34.00051 -5.29135,10.93047 -11.47324,12.94243 -38.28522,12.46036 l -19.11719,-0.34373 -4.68332,-3.29454 c -7.22722,-5.08408 -9.60122,-9.35071 -9.57295,-17.20485 0.0413,-11.48846 5.59558,-19.82928 13.95078,-20.94995 4.21069,-0.56477 10.97455,1.21589 10.97455,2.88917 0,0.42342 -1.26198,1.44524 -2.80441,2.27072 -3.87334,2.07295 -6.12388,6.93696 -6.12388,13.23532 0,10.31986 9.09174,17.15632 17.38402,13.07176 2.17715,-1.07241 4.87665,-3.54558 5.9989,-5.49595 4.07917,-7.08927 1.44133,-21.57181 -5.73294,-31.4756 -6.83757,-9.439 -21.84684,-13.07308 -33.07487,-8.00818 -8.18731,3.69326 -23.16397,19.5994 -35.012334,37.18528 -10.725984,15.91999 -13.615356,18.36278 -21.611982,18.27158 -2.296276,-0.0262 -6.127589,-0.73935 -8.51403,-1.58481 z" style="fill:#ff4500;fill-rule:evenodd"/></svg>