<svg xmlns="http://www.w3.org/2000/svg" viewBox="0 0 256 256"><defs><clipPath><path transform="matrix(15.33333 0 0 11.5 415 -125.5)" d="m -24 13 c 0 1.105 -0.672 2 -1.5 2 -0.828 0 -1.5 -0.895 -1.5 -2 0 -1.105 0.672 -2 1.5 -2 0.828 0 1.5 0.895 1.5 2 z"/></clipPath></defs><g transform="translate(0 3.254)"><path d="m 105.54 251.95 c -1.925 -0.24 -4.4 -0.816 -5.5 -1.28 -1.1 -0.465 -4.7 -1.624 -8 -2.576 -14.931 -4.308 -30.62 -15.436 -42.494 -30.14 -9.661 -11.964 -23.05 -32.887 -29.81 -46.593 c -9.735 -19.731 -15.289 -37.641 -17.406 -56.13 -2.454 -21.438 4.908 -46.514 19.242 -65.54 17.469 -23.18 48.05 -40.874 82.968 -47.996 c 5.775 -1.178 12.75 -2.678 15.5 -3.333 6.571 -1.566 38.441 -1.564 45 0.003 2.75 0.657 8.375 1.889 12.5 2.737 15.473 3.183 32.858 10.214 44 17.795 23.595 16.05 37.507 44.532 35.504 72.68 -0.333 4.675 -1 9.85 -1.49 11.5 -0.487 1.65 -2.076 7.725 -3.531 13.5 -5.17 20.513 -15.602 42.34 -32.26 67.5 -6.791 10.257 -11.468 15.859 -22.17 26.55 -19.414 19.4 -36.728 30.535 -56.58 36.39 -4.938 1.457 -10.415 3.098 -12.172 3.648 -3.644 1.14 -18.07 1.936 -23.305 1.285 z" style="fill:#fff"/><path d="m 123.88 172.34 c -18.272 -14.984 -28.754 -34.395 -34.912 -64.65 -3.671 -18.03 -4.455 -16.448 10.63 -21.489 c 7.141 -2.386 17.08 -6.237 22.09 -8.558 l 9.111 -4.22 l 10.535 4.808 c 5.794 2.644 15.557 6.453 21.696 8.463 6.139 2.01 11.385 4.268 11.659 5.02 0.76 2.083 -2.278 18.379 -5.538 29.706 -3.693 12.831 -8.885 24.538 -14.435 32.548 -4.413 6.369 -18.562 21 -22.12 22.879 -1.504 0.793 -3.527 -0.253 -8.717 -4.509 z" style="fill:#ff4500;fill-rule:evenodd"/></g></svg>