<svg xmlns="http://www.w3.org/2000/svg" viewBox="0 0 256 256"><path d="m 260.02 66.64 c -48.541 -88.14 -200.63 -53.931 -226.36 18.64 -30.66 86.45 49.14 250.63 184.3 154.45 45.527 -33.585 90.6 -84.949 42.05 -173.09 z" transform="translate(-26.04 -13.02)" style="fill:#fff;color:#000"/><g transform="translate(-6.083 -4.718)" style="fill:#ff4500;fill-rule:evenodd"><path d="m 61.915 84.89 v -9.08 h 9.336 h 9.336 v -2.271 c 0 -1.346 0.103 -2.271 0.252 -2.271 0.144 0 0.252 -0.757 0.252 -1.766 0 -1.01 0.108 -1.766 0.252 -1.766 0.139 0 0.252 -0.397 0.252 -0.883 0 -0.486 0.114 -0.883 0.252 -0.883 0.139 0 0.252 -0.158 0.252 -0.352 0 -0.193 0.17 -0.417 0.379 -0.497 0.208 -0.08 0.379 -0.319 0.379 -0.532 0 -0.213 0.114 -0.386 0.252 -0.386 0.139 0 0.252 -0.17 0.252 -0.379 0 -0.208 0.114 -0.379 0.252 -0.379 0.139 0 0.252 -0.227 0.252 -0.505 0 -0.278 0.125 -0.505 0.277 -0.505 0.152 0 0.595 -0.341 0.984 -0.757 0.389 -0.416 0.873 -0.757 1.075 -0.757 0.202 0 0.581 -0.284 0.842 -0.631 0.261 -0.347 0.667 -0.631 0.904 -0.631 0.236 0 0.5 -0.114 0.586 -0.252 0.086 -0.139 0.376 -0.252 0.646 -0.252 0.269 0 0.49 -0.17 0.49 -0.379 0 -0.264 0.266 -0.379 0.883 -0.379 0.486 0 0.883 -0.114 0.883 -0.252 0 -0.167 12.827 -0.252 37.976 -0.252 25.15 0 37.976 0.085 37.976 0.252 0 0.143 0.721 0.252 1.658 0.252 1.137 0 1.777 0.119 2.037 0.379 0.208 0.208 0.654 0.379 0.991 0.379 0.337 0 0.613 0.114 0.613 0.252 0 0.139 0.227 0.252 0.505 0.252 0.278 0 0.505 0.114 0.505 0.252 0 0.139 0.284 0.252 0.631 0.252 0.371 0 0.631 0.145 0.631 0.351 0 0.193 0.271 0.419 0.601 0.502 0.679 0.171 2.174 1.475 2.174 1.898 0 0.152 0.17 0.277 0.379 0.277 0.21 0 0.379 0.224 0.379 0.505 0 0.278 0.114 0.505 0.252 0.505 0.139 0 0.252 0.17 0.252 0.379 0 0.208 0.114 0.379 0.252 0.379 0.139 0 0.252 0.227 0.252 0.505 0 0.28 0.168 0.505 0.379 0.505 0.236 0 0.379 0.238 0.379 0.631 0 0.347 0.114 0.631 0.252 0.631 0.139 0 0.252 0.341 0.252 0.757 0 0.416 0.114 0.757 0.252 0.757 0.144 0 0.252 0.757 0.252 1.766 0 1.01 0.108 1.766 0.252 1.766 0.144 0 0.252 0.757 0.252 1.766 v 1.766 h 9.336 h 9.336 v 9.08 v 9.08 h -69.27 h -69.27 v -9.08 z m 101.69 -13.752 v -4.668 h -32.425 h -32.425 v 4.668 v 4.668 h 32.425 h 32.425 v -4.668 z"/><path d="m 91.44 204.24 c 0 -0.146 -0.805 -0.252 -1.911 -0.252 -1.362 0 -2.02 -0.109 -2.289 -0.379 -0.208 -0.208 -0.654 -0.379 -0.991 -0.379 -0.337 0 -0.613 -0.114 -0.613 -0.252 0 -0.139 -0.349 -0.252 -0.775 -0.252 -0.773 0 -1.496 -0.479 -1.496 -0.991 0 -0.149 -0.231 -0.27 -0.513 -0.27 -0.526 0 -2.263 -1.543 -2.263 -2.01 0 -0.143 -0.125 -0.261 -0.277 -0.261 -0.152 0 -0.595 -0.341 -0.984 -0.757 -0.389 -0.416 -0.832 -0.757 -0.984 -0.757 -0.152 0 -0.277 -0.259 -0.277 -0.575 0 -0.316 -0.227 -0.739 -0.505 -0.939 -0.278 -0.2 -0.505 -0.509 -0.505 -0.687 0 -0.178 -0.114 -0.323 -0.252 -0.323 -0.139 0 -0.252 -0.227 -0.252 -0.505 0 -0.28 -0.168 -0.505 -0.379 -0.505 -0.236 0 -0.379 -0.238 -0.379 -0.631 0 -0.347 -0.114 -0.631 -0.252 -0.631 -0.139 0 -0.252 -0.227 -0.252 -0.505 0 -0.278 -0.114 -0.505 -0.252 -0.505 -0.139 0 -0.252 -0.174 -0.252 -0.386 0 -0.213 -0.17 -0.452 -0.379 -0.532 -0.208 -0.08 -0.379 -0.417 -0.379 -0.749 0 -0.332 -0.114 -0.604 -0.252 -0.604 -0.139 0 -0.252 -0.284 -0.252 -0.631 0 -0.347 -0.114 -0.631 -0.252 -0.631 -0.139 0 -0.252 -0.334 -0.252 -0.742 0 -0.408 -0.114 -0.812 -0.252 -0.898 -0.139 -0.086 -0.252 -0.376 -0.252 -0.646 0 -0.269 -0.17 -0.49 -0.379 -0.49 -0.236 0 -0.379 -0.238 -0.379 -0.631 0 -0.347 -0.114 -0.631 -0.252 -0.631 -0.139 0 -0.252 -0.397 -0.252 -0.883 0 -0.486 -0.114 -0.883 -0.252 -0.883 -0.139 0 -0.252 -0.397 -0.252 -0.883 0 -0.617 -0.114 -0.883 -0.379 -0.883 -0.252 0 -0.379 -0.252 -0.379 -0.757 0 -0.416 -0.114 -0.757 -0.252 -0.757 -0.139 0 -0.252 -0.397 -0.252 -0.883 0 -0.486 -0.114 -0.883 -0.252 -0.883 -0.139 0 -0.252 -0.397 -0.252 -0.883 0 -0.486 -0.114 -0.883 -0.252 -0.883 -0.139 0 -0.252 -0.397 -0.252 -0.883 0 -0.617 -0.114 -0.883 -0.379 -0.883 -0.28 0 -0.379 -0.294 -0.379 -1.136 0 -0.625 -0.114 -1.136 -0.252 -1.136 -0.139 0 -0.252 -0.397 -0.252 -0.883 0 -0.486 -0.114 -0.883 -0.252 -0.883 -0.139 0 -0.252 -0.511 -0.252 -1.136 0 -0.841 -0.098 -1.136 -0.379 -1.136 -0.28 0 -0.379 -0.294 -0.379 -1.136 0 -0.625 -0.114 -1.136 -0.252 -1.136 -0.139 0 -0.252 -0.511 -0.252 -1.136 0 -0.625 -0.103 -1.136 -0.228 -1.136 -0.125 0 -0.291 -0.539 -0.367 -1.199 -0.399 -3.43 -0.595 -4.455 -0.869 -4.547 -0.184 -0.061 -0.302 -0.631 -0.302 -1.467 0 -0.752 -0.114 -1.367 -0.252 -1.367 -0.151 0 -0.252 -1.01 -0.252 -2.523 0 -1.388 -0.103 -2.523 -0.229 -2.523 -0.126 0 -0.268 -1.665 -0.315 -3.701 -0.063 -2.673 -0.174 -3.73 -0.402 -3.806 -0.492 -0.164 -0.434 -4 0.063 -4.191 0.312 -0.12 0.379 -0.785 0.379 -3.812 0 -2.276 0.096 -3.667 0.252 -3.667 0.144 0 0.252 -0.757 0.252 -1.766 0 -1.01 0.108 -1.766 0.252 -1.766 0.142 0 0.252 -0.715 0.252 -1.64 0 -1.29 0.081 -1.64 0.378 -1.64 0.28 0 0.379 -0.294 0.379 -1.135 0 -0.625 0.114 -1.135 0.252 -1.135 0.139 0 0.252 -0.511 0.252 -1.135 0 -0.625 0.114 -1.135 0.252 -1.135 0.139 0 0.252 -0.397 0.252 -0.883 0 -0.486 0.114 -0.883 0.252 -0.883 0.139 0 0.252 -0.397 0.252 -0.883 0 -0.617 0.114 -0.883 0.379 -0.883 0.264 0 0.379 -0.266 0.379 -0.883 0 -0.486 0.114 -0.883 0.252 -0.883 0.139 0 0.252 -0.284 0.252 -0.631 0 -0.347 0.114 -0.631 0.252 -0.631 0.139 0 0.252 -0.341 0.252 -0.757 0 -0.477 0.129 -0.757 0.35 -0.757 0.193 0 0.423 -0.368 0.514 -0.82 0.394 -1.971 0.467 -2.208 0.679 -2.208 0.123 0 0.224 -0.227 0.224 -0.505 0 -0.278 0.114 -0.505 0.252 -0.505 0.139 0 0.252 -0.284 0.252 -0.631 0 -0.393 0.143 -0.631 0.379 -0.631 0.21 0 0.379 -0.224 0.379 -0.505 0 -0.278 0.114 -0.505 0.252 -0.505 0.139 0 0.252 -0.17 0.252 -0.379 0 -0.329 1.15 -0.379 8.832 -0.379 5.72 0 8.832 0.089 8.832 0.252 0 0.139 -0.114 0.252 -0.252 0.252 -0.139 0 -0.252 0.17 -0.252 0.379 0 0.208 -0.114 0.379 -0.252 0.379 -0.139 0 -0.252 0.227 -0.252 0.505 0 0.278 -0.114 0.505 -0.252 0.505 -0.139 0 -0.252 0.284 -0.252 0.631 0 0.393 -0.143 0.631 -0.379 0.631 -0.21 0 -0.379 0.224 -0.379 0.505 0 0.278 -0.114 0.505 -0.252 0.505 -0.139 0 -0.252 0.397 -0.252 0.883 0 0.486 -0.114 0.883 -0.252 0.883 -0.139 0 -0.252 0.284 -0.252 0.631 0 0.393 -0.143 0.631 -0.379 0.631 -0.21 0 -0.379 0.224 -0.379 0.505 0 0.278 -0.114 0.505 -0.252 0.505 -0.139 0 -0.252 0.397 -0.252 0.883 0 0.486 -0.114 0.883 -0.252 0.883 -0.139 0 -0.252 0.397 -0.252 0.883 0 0.486 -0.114 0.883 -0.252 0.883 -0.139 0 -0.252 0.397 -0.252 0.883 0 0.617 -0.114 0.883 -0.379 0.883 -0.264 0 -0.379 0.266 -0.379 0.883 0 0.486 -0.114 0.883 -0.252 0.883 -0.139 0 -0.252 0.511 -0.252 1.135 0 0.625 -0.114 1.135 -0.252 1.135 -0.139 0 -0.252 0.511 -0.252 1.135 0 0.841 -0.098 1.136 -0.379 1.136 -0.297 0 -0.379 0.349 -0.379 1.625 0 0.894 -0.114 1.695 -0.252 1.781 -0.141 0.087 -0.252 1.264 -0.252 2.664 0 1.504 -0.101 2.508 -0.252 2.508 -0.162 0 -0.252 2.397 -0.252 6.687 0 4.29 0.09 6.687 0.252 6.687 0.151 0 0.252 1.01 0.252 2.523 0 1.514 0.101 2.523 0.252 2.523 0.15 0 0.252 0.928 0.252 2.279 0 1.793 0.081 2.31 0.379 2.424 0.272 0.104 0.379 0.529 0.379 1.506 0 0.748 0.114 1.361 0.252 1.361 0.139 0 0.252 0.625 0.252 1.388 0 0.763 0.114 1.388 0.252 1.388 0.139 0 0.252 0.628 0.252 1.396 0 1.01 0.105 1.436 0.379 1.541 0.257 0.099 0.379 0.501 0.379 1.254 0 0.61 0.114 1.109 0.252 1.109 0.139 0 0.252 0.511 0.252 1.136 0 0.625 0.114 1.136 0.252 1.136 0.139 0 0.252 0.397 0.252 0.883 0 0.486 0.114 0.883 0.252 0.883 0.139 0 0.252 0.511 0.252 1.136 0 0.841 0.098 1.136 0.379 1.136 0.28 0 0.379 0.294 0.379 1.136 0 0.625 0.114 1.136 0.252 1.136 0.139 0 0.252 0.397 0.252 0.883 0 0.486 0.114 0.883 0.252 0.883 0.139 0 0.252 0.389 0.252 0.865 0 0.476 0.17 1.035 0.379 1.244 0.208 0.208 0.379 0.727 0.379 1.154 0 0.426 0.114 0.775 0.252 0.775 0.139 0 0.252 0.397 0.252 0.883 0 0.486 0.114 0.883 0.252 0.883 0.139 0 0.252 0.397 0.252 0.883 0 0.486 0.114 0.883 0.252 0.883 0.139 0 0.252 0.341 0.252 0.757 0 0.505 0.126 0.757 0.379 0.757 0.208 0 0.379 0.114 0.379 0.252 0 0.167 14 0.252 41.509 0.252 27.504 0 41.509 -0.085 41.509 -0.252 0 -0.139 0.17 -0.252 0.379 -0.252 0.252 0 0.379 -0.252 0.379 -0.757 0 -0.416 0.114 -0.757 0.252 -0.757 0.139 0 0.252 -0.397 0.252 -0.883 0 -0.486 0.114 -0.883 0.252 -0.883 0.139 0 0.252 -0.397 0.252 -0.883 0 -0.486 0.114 -0.883 0.252 -0.883 0.139 0 0.252 -0.397 0.252 -0.883 0 -0.617 0.114 -0.883 0.379 -0.883 0.264 0 0.379 -0.266 0.379 -0.883 0 -0.486 0.114 -0.883 0.252 -0.883 0.139 0 0.252 -0.397 0.252 -0.883 0 -0.486 0.114 -0.883 0.252 -0.883 0.139 0 0.252 -0.511 0.252 -1.136 0 -0.841 0.098 -1.136 0.379 -1.136 0.264 0 0.379 -0.266 0.379 -0.883 0 -0.486 0.114 -0.883 0.252 -0.883 0.139 0 0.252 -0.511 0.252 -1.136 0 -0.625 0.114 -1.136 0.252 -1.136 0.139 0 0.252 -0.511 0.252 -1.136 0 -0.625 0.114 -1.136 0.252 -1.136 0.139 0 0.252 -0.397 0.252 -0.883 0 -0.617 0.114 -0.883 0.379 -0.883 0.294 0 0.379 -0.336 0.379 -1.514 0 -0.841 0.112 -1.514 0.252 -1.514 0.142 0 0.252 -0.715 0.252 -1.64 0 -0.925 0.11 -1.64 0.252 -1.64 0.139 0 0.252 -0.625 0.252 -1.388 0 -1.065 0.088 -1.388 0.379 -1.388 0.308 0 0.379 -0.421 0.379 -2.271 0 -1.346 0.103 -2.271 0.252 -2.271 0.154 0 0.252 -1.136 0.252 -2.902 0 -1.766 0.099 -2.902 0.252 -2.902 0.161 0 0.252 -2.103 0.252 -5.804 0 -3.701 -0.091 -5.804 -0.252 -5.804 -0.152 0 -0.252 -1.046 -0.252 -2.635 0 -1.484 -0.11 -2.703 -0.252 -2.791 -0.139 -0.086 -0.252 -0.831 -0.252 -1.655 0 -1.164 -0.084 -1.499 -0.379 -1.499 -0.294 0 -0.379 -0.336 -0.379 -1.514 0 -0.841 -0.112 -1.514 -0.252 -1.514 -0.139 0 -0.252 -0.511 -0.252 -1.135 0 -0.625 -0.114 -1.135 -0.252 -1.135 -0.139 0 -0.252 -0.511 -0.252 -1.135 0 -0.841 -0.098 -1.135 -0.379 -1.135 -0.264 0 -0.379 -0.266 -0.379 -0.883 0 -0.486 -0.114 -0.883 -0.252 -0.883 -0.139 0 -0.252 -0.397 -0.252 -0.883 0 -0.486 -0.114 -0.883 -0.252 -0.883 -0.139 0 -0.252 -0.334 -0.252 -0.742 0 -0.408 -0.114 -0.812 -0.252 -0.898 -0.139 -0.086 -0.252 -0.376 -0.252 -0.646 0 -0.269 -0.17 -0.49 -0.379 -0.49 -0.252 0 -0.379 -0.252 -0.379 -0.757 0 -0.416 -0.114 -0.757 -0.252 -0.757 -0.139 0 -0.252 -0.284 -0.252 -0.631 0 -0.347 -0.114 -0.631 -0.252 -0.631 -0.139 0 -0.252 -0.284 -0.252 -0.631 0 -0.393 -0.143 -0.631 -0.379 -0.631 -0.236 0 -0.379 -0.238 -0.379 -0.631 0 -0.347 -0.114 -0.631 -0.252 -0.631 -0.139 0 -0.252 -0.227 -0.252 -0.505 0 -0.278 -0.114 -0.505 -0.252 -0.505 -0.139 0 -0.252 -0.284 -0.252 -0.631 0 -0.347 -0.114 -0.631 -0.252 -0.631 -0.139 0 -0.252 -0.114 -0.252 -0.252 0 -0.163 3.112 -0.252 8.832 -0.252 7.682 0 8.832 0.049 8.832 0.379 0 0.208 0.114 0.379 0.252 0.379 0.139 0 0.252 0.227 0.252 0.505 0 0.28 0.168 0.505 0.379 0.505 0.236 0 0.379 0.238 0.379 0.631 0 0.347 0.114 0.631 0.252 0.631 0.139 0 0.252 0.227 0.252 0.505 0 0.278 0.114 0.505 0.252 0.505 0.139 0 0.252 0.284 0.252 0.631 0 0.347 0.114 0.631 0.252 0.631 0.139 0 0.252 0.284 0.252 0.631 0 0.393 0.143 0.631 0.379 0.631 0.252 0 0.379 0.252 0.379 0.757 0 0.416 0.114 0.757 0.252 0.757 0.139 0 0.252 0.284 0.252 0.631 0 0.347 0.114 0.631 0.252 0.631 0.139 0 0.252 0.284 0.252 0.631 0 0.393 0.143 0.631 0.379 0.631 0.252 0 0.379 0.252 0.379 0.757 0 0.416 0.114 0.757 0.252 0.757 0.139 0 0.252 0.397 0.252 0.883 0 0.486 0.114 0.883 0.252 0.883 0.139 0 0.252 0.397 0.252 0.883 0 0.486 0.114 0.883 0.252 0.883 0.139 0 0.252 0.511 0.252 1.135 0 0.841 0.098 1.135 0.379 1.135 0.28 0 0.379 0.294 0.379 1.135 0 0.625 0.114 1.136 0.252 1.136 0.14 0 0.252 0.673 0.252 1.514 0 0.841 0.112 1.514 0.252 1.514 0.146 0 0.252 0.802 0.252 1.9 0 1.456 0.088 1.934 0.379 2.046 0.326 0.125 0.379 1.356 0.379 8.95 0 7.658 -0.049 8.805 -0.379 8.805 -0.311 0 -0.379 0.449 -0.379 2.523 0 1.514 -0.101 2.523 -0.252 2.523 -0.14 0 -0.252 0.673 -0.252 1.514 0 0.841 -0.112 1.514 -0.252 1.514 -0.139 0 -0.252 0.625 -0.252 1.388 0 1.065 -0.088 1.388 -0.379 1.388 -0.291 0 -0.379 0.322 -0.379 1.388 0 0.763 -0.114 1.388 -0.252 1.388 -0.139 0 -0.252 0.568 -0.252 1.262 0 0.694 -0.114 1.262 -0.252 1.262 -0.139 0 -0.252 0.341 -0.252 0.757 0 0.416 -0.114 0.757 -0.252 0.757 -0.139 0 -0.252 0.568 -0.252 1.262 0 0.953 -0.093 1.262 -0.379 1.262 -0.252 0 -0.379 0.252 -0.379 0.757 0 0.416 -0.114 0.757 -0.252 0.757 -0.139 0 -0.252 0.454 -0.252 1.01 0 0.555 -0.114 1.01 -0.252 1.01 -0.139 0 -0.252 0.454 -0.252 1.01 0 0.692 -0.11 1.01 -0.35 1.01 -0.192 0 -0.415 0.312 -0.495 0.694 -0.08 0.382 -0.219 1.063 -0.31 1.514 -0.09 0.451 -0.265 0.82 -0.388 0.82 -0.123 0 -0.224 0.397 -0.224 0.883 0 0.486 -0.114 0.883 -0.252 0.883 -0.139 0 -0.252 0.341 -0.252 0.757 0 0.505 -0.126 0.757 -0.379 0.757 -0.264 0 -0.379 0.266 -0.379 0.883 0 0.486 -0.114 0.883 -0.252 0.883 -0.139 0 -0.252 0.284 -0.252 0.631 0 0.347 -0.114 0.631 -0.252 0.631 -0.139 0 -0.252 0.397 -0.252 0.883 0 0.617 -0.114 0.883 -0.379 0.883 -0.21 0 -0.379 0.224 -0.379 0.505 0 0.278 -0.114 0.505 -0.252 0.505 -0.139 0 -0.252 0.284 -0.252 0.631 0 0.347 -0.114 0.631 -0.252 0.631 -0.139 0 -0.252 0.397 -0.252 0.883 0 0.486 -0.114 0.883 -0.252 0.883 -0.139 0 -0.252 0.227 -0.252 0.505 0 0.28 -0.168 0.505 -0.379 0.505 -0.236 0 -0.379 0.238 -0.379 0.631 0 0.347 -0.114 0.631 -0.252 0.631 -0.139 0 -0.252 0.227 -0.252 0.505 0 0.278 -0.114 0.505 -0.252 0.505 -0.139 0 -0.252 0.284 -0.252 0.631 0 0.347 -0.129 0.631 -0.288 0.631 -0.37 0 -0.956 0.77 -0.966 1.269 -0.004 0.212 -0.235 0.55 -0.513 0.75 -0.278 0.2 -0.505 0.623 -0.505 0.939 0 0.316 -0.125 0.575 -0.277 0.575 -0.152 0 -0.595 0.341 -0.984 0.757 -0.389 0.416 -0.832 0.757 -0.984 0.757 -0.152 0 -0.277 0.119 -0.277 0.264 0 0.371 -1.171 1.501 -1.566 1.511 -0.451 0.011 -1.21 0.617 -1.21 0.966 0 0.158 -0.284 0.288 -0.631 0.288 -0.347 0 -0.631 0.114 -0.631 0.252 0 0.139 -0.227 0.252 -0.505 0.252 -0.278 0 -0.505 0.114 -0.505 0.252 0 0.139 -0.397 0.252 -0.883 0.252 -0.617 0 -0.883 0.114 -0.883 0.379 0 0.305 -0.393 0.379 -2.02 0.379 -1.178 0 -2.02 0.105 -2.02 0.252 0 0.167 -13.416 0.252 -39.743 0.252 -26.327 0 -39.743 -0.085 -39.743 -0.252 z"/><path d="m 145.69 175.98 c 0 -0.416 0.114 -0.757 0.252 -0.757 0.139 0 0.252 -0.397 0.252 -0.883 0 -0.486 0.114 -0.883 0.252 -0.883 0.139 0 0.252 -0.397 0.252 -0.883 0 -0.617 0.114 -0.883 0.379 -0.883 0.252 0 0.379 -0.252 0.379 -0.757 0 -0.416 0.114 -0.757 0.252 -0.757 0.139 0 0.252 -0.397 0.252 -0.883 0 -0.486 0.114 -0.883 0.252 -0.883 0.139 0 0.252 -0.511 0.252 -1.136 0 -0.841 0.098 -1.136 0.379 -1.136 0.263 0 0.379 -0.265 0.379 -0.868 0 -0.478 0.114 -0.938 0.252 -1.024 0.139 -0.086 0.252 -0.603 0.252 -1.15 0 -0.547 0.114 -0.994 0.252 -0.994 0.139 0 0.252 -0.397 0.252 -0.883 0 -0.486 0.114 -0.883 0.252 -0.883 0.139 0 0.252 -0.499 0.252 -1.108 0 -0.753 0.122 -1.155 0.379 -1.254 0.273 -0.105 0.379 -0.533 0.379 -1.541 0 -0.768 0.114 -1.396 0.252 -1.396 0.139 0 0.252 -0.511 0.252 -1.136 0 -0.625 0.114 -1.136 0.252 -1.136 0.139 0 0.252 -0.625 0.252 -1.388 0 -1.065 0.088 -1.388 0.379 -1.388 0.305 0 0.379 -0.393 0.379 -2.02 0 -1.178 0.105 -2.02 0.252 -2.02 0.147 0 0.252 -0.841 0.252 -2.02 0 -1.178 0.105 -2.02 0.252 -2.02 0.163 0 0.252 -3.07 0.252 -8.706 0 -5.635 -0.089 -8.706 -0.252 -8.706 -0.142 0 -0.252 -0.71 -0.252 -1.625 0 -0.894 -0.114 -1.695 -0.252 -1.781 -0.139 -0.086 -0.252 -0.66 -0.252 -1.277 0 -0.828 -0.099 -1.121 -0.379 -1.121 -0.28 0 -0.379 -0.294 -0.379 -1.135 0 -0.625 -0.114 -1.135 -0.252 -1.135 -0.139 0 -0.252 -0.397 -0.252 -0.883 0 -0.486 -0.114 -0.883 -0.252 -0.883 -0.139 0 -0.252 -0.344 -0.252 -0.765 0 -0.447 -0.157 -0.825 -0.379 -0.91 -0.208 -0.08 -0.379 -0.36 -0.379 -0.623 0 -0.263 -0.114 -0.478 -0.252 -0.478 -0.139 0 -0.252 -0.284 -0.252 -0.631 0 -0.347 -0.114 -0.631 -0.252 -0.631 -0.139 0 -0.252 -0.227 -0.252 -0.505 0 -0.278 -0.114 -0.505 -0.252 -0.505 -0.139 0 -0.252 -0.284 -0.252 -0.631 0 -0.393 -0.143 -0.631 -0.379 -0.631 -0.21 0 -0.379 -0.224 -0.379 -0.505 0 -0.278 -0.114 -0.505 -0.252 -0.505 -0.139 0 -0.252 -0.235 -0.252 -0.523 0 -0.559 -0.546 -1.244 -0.991 -1.244 -0.149 0 -0.27 -0.227 -0.27 -0.505 0 -0.278 -0.114 -0.505 -0.252 -0.505 -0.139 0 -0.252 -0.17 -0.252 -0.379 0 -0.208 -0.114 -0.379 -0.252 -0.379 -0.139 0 -0.252 -0.114 -0.252 -0.252 0 -0.158 1.598 -0.252 4.29 -0.252 4.121 0 4.29 0.02 4.29 0.505 0 0.278 0.114 0.505 0.252 0.505 0.139 0 0.252 0.122 0.252 0.27 0 0.349 0.642 0.991 0.991 0.991 0.149 0 0.27 0.259 0.27 0.575 0 0.316 0.227 0.739 0.505 0.939 0.278 0.2 0.505 0.623 0.505 0.939 0 0.316 0.114 0.575 0.252 0.575 0.139 0 0.252 0.227 0.252 0.505 0 0.28 0.168 0.505 0.379 0.505 0.236 0 0.379 0.238 0.379 0.631 0 0.347 0.114 0.631 0.252 0.631 0.139 0 0.252 0.227 0.252 0.505 0 0.278 0.114 0.505 0.252 0.505 0.139 0 0.252 0.276 0.252 0.613 0 0.337 0.17 0.783 0.379 0.991 0.208 0.208 0.379 0.614 0.379 0.901 0 0.287 0.114 0.523 0.252 0.523 0.139 0 0.252 0.397 0.252 0.883 0 0.486 0.114 0.883 0.252 0.883 0.139 0 0.252 0.341 0.252 0.757 0 0.416 0.114 0.757 0.252 0.757 0.139 0 0.252 0.515 0.252 1.143 0 0.784 0.119 1.189 0.379 1.289 0.272 0.104 0.379 0.529 0.379 1.506 0 0.748 0.114 1.361 0.252 1.361 0.15 0 0.252 0.925 0.252 2.271 0 1.346 0.103 2.271 0.252 2.271 0.161 0 0.252 2.187 0.252 6.06 0 3.869 -0.091 6.06 -0.252 6.06 -0.147 0 -0.252 0.841 -0.252 2.02 0 1.178 -0.105 2.02 -0.252 2.02 -0.147 0 -0.252 0.841 -0.252 2.02 0 1.626 -0.074 2.02 -0.379 2.02 -0.298 0 -0.379 0.35 -0.379 1.64 0 0.925 -0.11 1.64 -0.252 1.64 -0.139 0 -0.252 0.511 -0.252 1.136 0 0.625 -0.114 1.136 -0.252 1.136 -0.139 0 -0.252 0.511 -0.252 1.136 0 0.625 -0.114 1.136 -0.252 1.136 -0.139 0 -0.252 0.519 -0.252 1.154 0 0.689 -0.152 1.306 -0.379 1.532 -0.208 0.208 -0.379 0.768 -0.379 1.244 0 0.476 -0.114 0.865 -0.252 0.865 -0.139 0 -0.252 0.341 -0.252 0.757 0 0.416 -0.114 0.757 -0.252 0.757 -0.139 0 -0.252 0.568 -0.252 1.262 0 0.953 -0.093 1.262 -0.379 1.262 -0.252 0 -0.379 0.252 -0.379 0.757 0 0.416 -0.114 0.757 -0.252 0.757 -0.139 0 -0.252 0.397 -0.252 0.883 0 0.486 -0.114 0.883 -0.252 0.883 -0.139 0 -0.252 0.397 -0.252 0.883 0 0.486 -0.114 0.883 -0.252 0.883 -0.139 0 -0.252 0.397 -0.252 0.883 0 0.617 -0.114 0.883 -0.379 0.883 -0.264 0 -0.379 0.266 -0.379 0.883 0 0.486 -0.114 0.883 -0.252 0.883 -0.139 0 -0.252 0.397 -0.252 0.883 0 0.486 -0.114 0.883 -0.252 0.883 -0.139 0 -0.252 0.341 -0.252 0.757 v 0.757 h -4.29 h -4.29 v -0.757 z"/><path d="m 108.85 176.48 c 0 -0.139 -0.17 -0.252 -0.379 -0.252 -0.264 0 -0.379 -0.266 -0.379 -0.883 0 -0.486 -0.114 -0.883 -0.252 -0.883 -0.139 0 -0.252 -0.341 -0.252 -0.757 0 -0.416 -0.114 -0.757 -0.252 -0.757 -0.139 0 -0.252 -0.276 -0.252 -0.613 0 -0.337 -0.17 -0.783 -0.379 -0.991 -0.208 -0.208 -0.379 -0.614 -0.379 -0.901 0 -0.287 -0.114 -0.523 -0.252 -0.523 -0.139 0 -0.252 -0.397 -0.252 -0.883 0 -0.486 -0.114 -0.883 -0.252 -0.883 -0.139 0 -0.252 -0.397 -0.252 -0.883 0 -0.486 -0.114 -0.883 -0.252 -0.883 -0.139 0 -0.252 -0.341 -0.252 -0.757 0 -0.505 -0.126 -0.757 -0.379 -0.757 -0.286 0 -0.379 -0.308 -0.379 -1.262 0 -0.694 -0.114 -1.262 -0.252 -1.262 -0.139 0 -0.252 -0.341 -0.252 -0.757 0 -0.416 -0.114 -0.757 -0.252 -0.757 -0.139 0 -0.252 -0.389 -0.252 -0.865 0 -0.476 -0.17 -1.035 -0.379 -1.244 -0.226 -0.226 -0.379 -0.843 -0.379 -1.532 0 -0.634 -0.114 -1.154 -0.252 -1.154 -0.139 0 -0.252 -0.511 -0.252 -1.136 0 -0.625 -0.114 -1.136 -0.252 -1.136 -0.139 0 -0.252 -0.511 -0.252 -1.136 0 -0.625 -0.114 -1.136 -0.252 -1.136 -0.142 0 -0.252 -0.709 -0.252 -1.622 0 -1.105 -0.121 -1.743 -0.379 -2 -0.27 -0.27 -0.379 -0.927 -0.379 -2.289 0 -1.105 -0.106 -1.911 -0.252 -1.911 -0.155 0 -0.252 -1.262 -0.252 -3.28 0 -2.02 -0.097 -3.28 -0.252 -3.28 -0.139 0 -0.252 -0.625 -0.252 -1.388 0 -0.763 0.114 -1.388 0.252 -1.388 0.158 0 0.252 -1.514 0.252 -4.04 0 -2.523 0.095 -4.04 0.252 -4.04 0.142 0 0.252 -0.715 0.252 -1.64 0 -1.29 0.081 -1.64 0.379 -1.64 0.28 0 0.379 -0.293 0.379 -1.121 0 -0.616 0.114 -1.191 0.252 -1.277 0.139 -0.086 0.252 -0.66 0.252 -1.277 0 -0.616 0.114 -1.121 0.252 -1.121 0.139 0 0.252 -0.341 0.252 -0.757 0 -0.416 0.114 -0.757 0.252 -0.757 0.139 0 0.252 -0.397 0.252 -0.883 0 -0.617 0.114 -0.883 0.379 -0.883 0.264 0 0.379 -0.266 0.379 -0.883 0 -0.486 0.114 -0.883 0.252 -0.883 0.139 0 0.252 -0.284 0.252 -0.631 0 -0.347 0.114 -0.631 0.252 -0.631 0.139 0 0.252 -0.227 0.252 -0.505 0 -0.28 0.168 -0.505 0.379 -0.505 0.236 0 0.379 -0.238 0.379 -0.631 0 -0.347 0.114 -0.631 0.252 -0.631 0.139 0 0.252 -0.227 0.252 -0.505 0 -0.278 0.114 -0.505 0.252 -0.505 0.139 0 0.252 -0.284 0.252 -0.631 0 -0.347 0.114 -0.631 0.252 -0.631 0.139 0 0.252 -0.158 0.252 -0.352 0 -0.193 0.17 -0.417 0.379 -0.497 0.208 -0.08 0.379 -0.319 0.379 -0.532 0 -0.213 0.114 -0.386 0.252 -0.386 0.139 0 0.252 -0.227 0.252 -0.505 0 -0.278 0.114 -0.505 0.252 -0.505 0.139 0 0.252 -0.17 0.252 -0.379 0 -0.208 0.17 -0.379 0.379 -0.379 0.208 0 0.379 -0.114 0.379 -0.252 0 -0.157 1.472 -0.252 3.911 -0.252 2.439 0 3.911 0.095 3.911 0.252 0 0.139 -0.114 0.252 -0.252 0.252 -0.139 0 -0.252 0.284 -0.252 0.631 0 0.347 -0.114 0.631 -0.252 0.631 -0.139 0 -0.252 0.227 -0.252 0.505 0 0.278 -0.122 0.505 -0.27 0.505 -0.445 0 -0.991 0.685 -0.991 1.244 0 0.287 -0.114 0.523 -0.252 0.523 -0.139 0 -0.252 0.235 -0.252 0.523 0 0.287 -0.17 0.693 -0.379 0.901 -0.208 0.208 -0.379 0.597 -0.379 0.865 0 0.268 -0.114 0.487 -0.252 0.487 -0.139 0 -0.252 0.284 -0.252 0.631 0 0.347 -0.114 0.631 -0.252 0.631 -0.139 0 -0.252 0.397 -0.252 0.883 0 0.486 -0.114 0.883 -0.252 0.883 -0.139 0 -0.252 0.235 -0.252 0.523 0 0.287 -0.17 0.693 -0.379 0.901 -0.208 0.208 -0.379 0.597 -0.379 0.865 0 0.268 -0.114 0.487 -0.252 0.487 -0.139 0 -0.252 0.511 -0.252 1.135 0 0.625 -0.114 1.135 -0.252 1.135 -0.139 0 -0.252 0.499 -0.252 1.109 0 0.753 -0.122 1.155 -0.379 1.254 -0.283 0.109 -0.379 0.561 -0.379 1.793 0 0.93 -0.11 1.648 -0.252 1.648 -0.15 0 -0.252 0.925 -0.252 2.271 0 1.346 -0.103 2.271 -0.252 2.271 -0.162 0 -0.252 2.313 -0.252 6.435 0 4.121 0.091 6.435 0.252 6.435 0.15 0 0.252 0.925 0.252 2.271 0 1.346 0.103 2.271 0.252 2.271 0.15 0 0.252 0.925 0.252 2.271 0 1.85 0.07 2.271 0.379 2.271 0.294 0 0.379 0.336 0.379 1.514 0 0.841 0.112 1.514 0.252 1.514 0.139 0 0.252 0.511 0.252 1.136 0 0.625 0.114 1.136 0.252 1.136 0.139 0 0.252 0.625 0.252 1.388 0 1.065 0.088 1.388 0.379 1.388 0.28 0 0.379 0.294 0.379 1.136 0 0.625 0.114 1.136 0.252 1.136 0.139 0 0.252 0.397 0.252 0.883 0 0.486 0.102 0.883 0.226 0.883 0.124 0 0.295 0.454 0.379 1.01 l 0.305 2.02 c 0.094 0.622 0.288 1.01 0.505 1.01 0.234 0 0.352 0.296 0.352 0.883 0 0.486 0.114 0.883 0.252 0.883 0.139 0 0.252 0.397 0.252 0.883 0 0.486 0.114 0.883 0.252 0.883 0.139 0 0.252 0.397 0.252 0.883 0 0.617 0.114 0.883 0.379 0.883 0.264 0 0.379 0.266 0.379 0.883 0 0.486 0.114 0.883 0.252 0.883 0.139 0 0.252 0.227 0.252 0.505 0 0.278 0.114 0.505 0.252 0.505 0.139 0 0.252 0.341 0.252 0.757 v 0.757 h -3.911 c -2.439 0 -3.911 -0.095 -3.911 -0.252 z"/><path d="m 127.27 140.02 v -36.715 h 4.04 h 4.04 v 36.715 v 36.715 h -4.04 h -4.04 v -36.715 z"/></g></svg>