<svg xmlns="http://www.w3.org/2000/svg" viewBox="0 0 256 256"><defs><clipPath><path d="M 27.375,221.875 H28.5 V226 H27.375 z"/></clipPath><clipPath><path transform="matrix(0 -1 1 0 0 0)" d="m -202 21 h 4 v 15 h -4 z"/></clipPath><clipPath><path d="m 27.545 222.49 v -0.58 h 1.739 v 4.057 h -1.739 v -0.58 h -0.58 v -2.898 h 0.58 z"/></clipPath></defs><g transform="translate(-1.085 -796.36)" style="color:#000"><path d="m 122.71 802.11 c -344.07 152.96 160.74 427.84 132.11 87.09 -6.696 -51.31 -59.716 -105.18 -132.11 -87.09 z" style="fill:#f00"/><path d="m 10 4 v 9 h 2 v -9 h -2 z m -4.656 1.938 l -1.406 1.406 l 1.906 2.594 c -0.295 0.491 -0.512 1.024 -0.656 1.594 l -3.188 0.469 v 2 l 3.188 0.469 c 0.143 0.569 0.364 1.103 0.656 1.594 l -1.906 2.594 l 1.406 1.406 l 2.594 -1.906 c 0.491 0.292 1.025 0.514 1.594 0.656 l 0.469 3.188 h 2 l 0.469 -3.188 c 0.569 -0.143 1.103 -0.364 1.594 -0.656 l 2.594 1.906 l 1.406 -1.406 l -1.906 -2.594 c 0.292 -0.491 0.514 -1.025 0.656 -1.594 l 3.188 -0.469 v -2 l -3.188 -0.469 c -0.145 -0.569 -0.361 -1.103 -0.656 -1.594 l 1.906 -2.594 l -1.406 -1.406 l -2.594 1.906 c -0.02 -0.012 -0.043 -0.02 -0.063 -0.031 v 0.094 l -0.063 0.031 l 0.063 0.063 v 2.344 c 0.624 0.705 1 1.641 1 2.656 0 2.209 -1.791 4 -4 4 c -2.209 0 -4 -1.791 -4 -4 0 -1.016 0.376 -1.951 1 -2.656 v -2.344 l 0.063 -0.063 l -0.063 -0.031 v -0.094 c -0.02 0.011 -0.043 0.02 -0.063 0.031 l -2.594 -1.906 z" transform="matrix(-7.08627 0 0 7.30966 213.03 829.34)" style="fill:#fff"/></g></svg>