<svg xmlns="http://www.w3.org/2000/svg" viewBox="0 0 256 256"><path d="m 3.6035936 121.57641 c 154.2599964 -347.01 431.4999964 162.11 87.8400004 133.24 -51.745 -6.753 -106.08 -60.23 -87.8400004 -133.24 z" style="fill:#fff;color:#000"/><g transform="matrix(33.01007 0 0 31.091395 19.449128 29.744291)"><ellipse ry="2.2579999" rx="2.2579999" cy="3.3870001" cx="3.3870001" style="fill:none;stroke:#ececec;stroke-linejoin:round;stroke-width:0.56400001"/><path d="M 1.693,3.387 2.54,2.54 l 0,0.564 1.693,0 0,-0.564 0.847,0.847 -0.847,0.847 0,-0.564 -1.693,0 0,0.564 z" style="fill:#ececec;fill-rule:evenodd"/></g><g style="fill:#ff4500;fill-rule:evenodd"><path d="m 88.979336,147.10039 -12.827164,-12.08299 13.09835,-12.27542 13.098348,-12.27543 0,8.22435 0,8.22435 28.70014,0 28.70013,0 0.31681,-8.08114 0.31682,-8.08115 12.91218,12.13066 12.91219,12.13065 -12.91219,12.18555 -12.91218,12.18554 -0.31682,-8.09946 -0.31681,-8.09946 -28.65451,0 -28.6545,0 -0.31682,7.99847 -0.31681,7.99847 -12.827164,-12.08299 z" style="opacity:0.97"/><path d="m 117.35183 212.65523 c -21.28912 -3.88752 -40.913938 -15.38849 -52.586555 -30.81792 -10.113985 -13.36916 -16.653691 -31.74164 -16.653691 -46.78646 c 0 -15.04482 6.539706 -33.41731 16.653691 -46.786468 9.772038 -12.917153 26.370978 -23.870538 43.611085 -28.778281 12.36144 -3.518934 33.25211 -3.548093 45.32506 -0.06327 28.18757 8.136277 48.35685 27.120086 57.30099 53.933089 2.13476 6.39964 2.5329 9.80988 2.5329 21.69492 0 11.88503 -0.39814 15.29528 -2.5329 21.69491 -8.87662 26.61056 -29.17065 45.836 -56.72458 53.73771 -8.92544 2.55958 -28.49823 3.71072 -36.926 2.17176 z m 36.85525 -19.84141 c 26.30435 -9.32154 42.51467 -31.34585 42.51467 -57.76297 0 -26.42008 -16.23461 -48.473524 -42.51467 -57.75284 -10.52427 -3.716054 -28.46779 -4.642296 -38.86189 -2.006047 -16.76826 4.252921 -31.05747 13.86557 -39.509047 26.578557 -7.97088 11.98992 -9.68496 17.86229 -9.68496 33.18033 0 15.31803 1.71408 21.19041 9.68496 33.18032 8.181228 12.30633 22.219366 21.96197 38.444937 26.44301 9.58585 2.64734 29.8733 1.70204 39.926 -1.86036 z" style="opacity:0.51"/></g></svg>