<svg xmlns="http://www.w3.org/2000/svg" viewBox="0 0 256 256"><g transform="translate(0 -796.36)" style="color:#000"><path d="m 20.17 998.21 c -80.938 -111.14 101.28 -269.46 200.9 -170.81 112.89 107.54 -74.19 307.54 -187.59 188.15 l -13.31 -17.342 z" style="fill:#fff"/><path d="m 62.68 877.82 c -3.115 0 -5.639 2.505 -5.639 5.641 v 91.77 c 0 3.136 2.524 5.678 5.639 5.678 3.115 0 5.639 -2.542 5.639 -5.678 v -39.82 h 33.724 v 39.82 c 0 3.136 2.488 5.678 5.602 5.678 3.115 0 5.639 -2.542 5.639 -5.678 v -39.82 h 33.724 v 39.82 c 0 3.136 2.524 5.678 5.639 5.678 3.115 0 5.602 -2.542 5.602 -5.678 v -39.82 h 38.997 c 0.389 0 0.768 -0.035 1.135 -0.111 h 0.403 c 2.47 0 4.467 -2.505 4.467 -5.641 v -46.2 c 0 -3.136 -1.997 -5.641 -4.467 -5.641 h -2.343 c -2.47 0 -4.431 2.505 -4.431 5.641 v 40.23 h -33.76 v -40.23 c 0 -3.136 -2.488 -5.641 -5.602 -5.641 -3.115 0 -5.639 2.505 -5.639 5.641 v 40.23 h -33.724 v -40.23 c 0 -3.136 -2.524 -5.641 -5.639 -5.641 -3.115 0 -5.602 2.505 -5.602 5.641 v 40.23 h -33.724 v -40.23 c 0 -3.136 -2.524 -5.641 -5.639 -5.641 z" style="fill:#ff4500"/></g></svg>