<svg xmlns="http://www.w3.org/2000/svg" viewBox="0 0 256 256"><g transform="translate(0 -796.36)" style="color:#000"><path d="m 52.774 1027.39 c 192.46 127.95 311 -280.09 62.2 -226.07 -102.82 23.02 -165.22 167.39 -62.2 226.07 z" style="fill:#87ceeb"/><g transform="translate(10.03 -35.604)" style="fill:#ff4ff4500"><path d="m 132.42 882.66 c -6.699 0.923 -12.983 4.561 -17.12 9.911 -4.135 5.35 -6.073 12.348 -5.278 19.06 -0.686 -4.758 -2.87 -9.289 -6.167 -12.788 -3.296 -3.499 -7.689 -5.95 -12.397 -6.918 -7.597 -1.562 -15.907 0.93 -21.392 6.414 -5.484 5.484 -7.976 13.795 -6.414 21.392 2.273 14.162 9.76 27.427 20.709 36.692 13.09 11.07 30.831 16.191 47.904 14.649 17.07 -1.542 33.34 -9.538 45.632 -21.491 7.498 -7.294 13.726 -16.374 15.521 -26.679 0.898 -5.153 0.647 -10.539 -1.021 -15.496 -1.667 -4.957 -4.785 -9.464 -9.02 -12.532 -3.682 -2.667 -8.167 -4.21 -12.71 -4.371 -4.543 -0.161 -9.127 1.059 -12.988 3.459 -2.713 -4.03 -6.575 -7.283 -11.01 -9.268 -4.436 -1.986 -9.433 -2.7 -14.248 -2.037"/><path d="m 85.78 975.15 c 0 6.352 -4.93 11.501 -11.01 11.501 -6.081 0 -11.01 -5.149 -11.01 -11.501 0 -6.352 10.393 -9.714 10.393 -9.714 0 0 11.629 3.362 11.629 9.714 z"/><path d="m 91.12 1027.37 c 0 6.352 -4.93 11.501 -11.01 11.501 -6.081 0 -11.01 -5.149 -11.01 -11.501 0 -6.352 10.393 -9.714 10.393 -9.714 0 0 11.629 3.362 11.629 9.714 z"/><path d="m 120.3 993.85 c 0 6.352 -4.93 11.501 -11.01 11.501 -6.081 0 -11.01 -5.149 -11.01 -11.501 0 -6.352 10.393 -9.714 10.393 -9.714 0 0 11.629 3.362 11.629 9.714 z"/></g><g style="fill:#ff4ff4500;color:#000"><path d="m 130.18 1026.81 c -6.377 0 -11.546 -6.33 -11.546 -14.14 0 -1.551 0.214 -3.038 0.59 -4.434 0.038 -0.142 0.069 -0.288 0.111 -0.428 0.294 -1.192 4.604 -18.511 10.857 -34.04 0 0 0 0.001 0 0.004 0 0.001 0 0.004 0 0.008 0 0.002 0 0.006 0 0.008 0 0.002 0 0.004 0 0.004 6.681 16.963 10.928 34.447 10.928 34.447 c 0.376 1.395 0.583 2.885 0.583 4.434 0 7.809 -5.169 14.14 -11.546 14.14 z"/><path d="m 168.15 993.19 c -6.377 0 -11.546 -6.33 -11.546 -14.14 0 -1.551 0.214 -3.038 0.59 -4.434 0.038 -0.142 0.069 -0.288 0.111 -0.428 0.294 -1.192 4.604 -18.511 10.857 -34.04 0 0 0 0.001 0 0.004 0 0.001 0 0.004 0 0.008 0 0.002 0 0.006 0 0.008 0 0.002 0 0.004 0 0.004 6.681 16.963 10.928 34.447 10.928 34.447 c 0.376 1.395 0.583 2.885 0.583 4.434 0 7.809 -5.169 14.14 -11.546 14.14 z"/></g></g></svg>