<svg xmlns="http://www.w3.org/2000/svg" viewBox="0 0 256 256"><g transform="translate(0 -796.36)" style="color:#000"><path d="m 52.774 1027.39 c 192.46 127.95 311 -280.09 62.2 -226.07 -102.82 23.02 -165.22 167.39 -62.2 226.07 z" style="fill:#87cefa"/><path d="m -8.32 -5.253 c 0 0 -0.158 2.777 -0.875 3.125 -0.717 0.348 -2.938 -1.375 -2.938 -1.375 0 0 1.304 2.537 0.813 3.156 -0.491 0.619 -3.25 0.281 -3.25 0.281 0 0 2.326 1.473 2.281 2.312 -0.045 0.839 -2.656 1.875 -2.656 1.875 0 0 2.75 0.185 3.125 0.875 0.375 0.69 -1.375 2.938 -1.375 2.938 0 0 2.511 -1.304 3.156 -0.813 0.646 0.491 0.281 3.25 0.281 3.25 0 0 1.446 -2.353 2.313 -2.281 0.866 0.071 1.875 2.656 1.875 2.656 0 0 0.104 -2.777 0.875 -3.125 0.771 -0.348 2.938 1.375 2.938 1.375 0 0 -1.331 -2.511 -0.813 -3.156 0.518 -0.646 3.25 -0.282 3.25 -0.282 0 0 -2.326 -1.58 -2.281 -2.312 0.044 -0.732 2.656 -1.875 2.656 -1.875 0 0 -2.777 -0.131 -3.125 -0.875 -0.348 -0.744 1.375 -2.938 1.375 -2.938 0 0 -2.591 1.25 -3.156 0.813 -0.566 -0.438 -0.282 -3.25 -0.282 -3.25 0 0 -1.526 2.353 -2.312 2.281 -0.786 -0.071 -1.875 -2.656 -1.875 -2.656 z" transform="matrix(9.0889 0 0 8.63933 178.78 892.53)" style="fill:#ff4500"/></g></svg>