<svg xmlns="http://www.w3.org/2000/svg" viewBox="0 0 256 256" xmlns:xlink="http://www.w3.org/1999/xlink"><g transform="translate(0 -796.36)" style="color:#000"><path d="m 52.774 1027.39 c 192.46 127.95 311 -280.09 62.2 -226.07 -102.82 23.02 -165.22 167.39 -62.2 226.07 z" style="fill:#87ceeb"/><g transform="matrix(1.94915 0 0 2.18644 166.7 647.22)"><g transform="matrix(0 -0.9996 -1 0 373.51 514.35)"><path d="m 367.97 391.36 l -0.8 4 h -4.937 l 2.669 4.62 l -3.465 2 l -2.669 -4.62 l -2.669 4.62 l -3.465 -2 l 2.669 -4.62 h -5.337 v -4 h 5.337 l -2.669 -4.62 l 3.465 -2 l 2.669 4.62 l 2.669 -4.62 l 3.465 2 l -2.669 4.62 h 5.737 z" id="0" style="fill:#ff4ff4500;color:#000"/><path d="m 372.37 409.43 l -0.551 2.754 h -3.4 l 1.838 3.182 l -2.386 1.377 l -1.838 -3.182 l -1.838 3.182 l -2.386 -1.377 l 1.838 -3.182 h -3.676 v -2.754 h 3.676 l -1.838 -3.182 l 2.386 -1.377 l 1.838 3.182 l 1.838 -3.182 l 2.386 1.377 l -1.838 3.182 h 3.951 z" id="1" style="fill:#ff4ff4500;color:#000"/><path d="m 415.61 384.36 c -3.976 0 -6.793 1.662 -8.158 3.982 -1.365 2.32 -1.457 4.909 -1.457 7.02 v 24 h 4 v -24 c 0 -1.905 0.214 -3.814 0.906 -4.99 0.692 -1.177 1.682 -2.01 4.709 -2.01 1.878 0 2.721 0.709 3.406 1.736 0.685 1.028 0.984 2.496 0.984 3.262 0 2.676 -2.619 3.467 -2.619 3.467 l 1.295 3.785 c 0 0 5.324 -1.928 5.324 -7.252 0 -1.561 -0.394 -3.59 -1.654 -5.48 -1.26 -1.89 -3.612 -3.52 -6.736 -3.52 z" id="2" style="fill:#ff4ff4500;color:#000"/><path d="m 403.6 349.36 c -3.976 0 -6.793 1.662 -8.158 3.982 -1.365 2.32 -1.457 4.909 -1.457 7.02 v 24 v 42 c 0 2 -0.084 4.03 -0.59 5.213 -0.506 1.179 -0.966 1.787 -3.412 1.787 -2.446 0 -2.908 -0.608 -3.414 -1.787 -0.506 -1.179 -0.588 -3.213 -0.588 -5.213 v -27 v -24 c 0 -2.109 -0.094 -4.698 -1.459 -7.02 -1.365 -2.32 -4.182 -3.982 -8.158 -3.982 -3.124 0 -5.474 1.629 -6.734 3.52 -1.26 1.89 -1.656 3.919 -1.656 5.48 0 5.324 5.326 7.252 5.326 7.252 l 1.293 -3.785 c 0 0 -2.617 -0.791 -2.617 -3.467 0 -0.766 0.298 -2.234 0.982 -3.262 0.685 -1.028 1.528 -1.736 3.406 -1.736 3.03 0 4.02 0.831 4.711 2.01 0.692 1.177 0.904 3.085 0.904 4.99 v 24 v 27 c 0 2 -0.083 4.468 0.912 6.789 0.995 2.321 3.535 4.213 7.092 4.213 3.557 0 6.095 -1.892 7.09 -4.213 0.995 -2.321 0.912 -4.789 0.912 -6.789 v -42 v -24 c 0 -1.905 0.212 -3.814 0.904 -4.99 0.692 -1.177 1.684 -2.01 4.711 -2.01 1.878 0 2.721 0.709 3.406 1.736 0.685 1.028 0.982 2.496 0.982 3.262 0 2.676 -2.617 3.467 -2.617 3.467 l 1.293 3.785 c 0 0 5.326 -1.928 5.326 -7.252 0 -1.561 -0.396 -3.59 -1.656 -5.48 -1.26 -1.89 -3.61 -3.52 -6.734 -3.52 z" id="3" style="fill:#ff4ff4500;color:#000"/></g><g transform="matrix(0 -0.9996 -1 0 375.17 512.36)"><use xlink:href="#0"/><use xlink:href="#1"/><use xlink:href="#2"/><use xlink:href="#3"/></g></g></g></svg>