<svg xmlns="http://www.w3.org/2000/svg" viewBox="0 0 256 256"><defs><clipPath><path transform="matrix(15.33333 0 0 11.5 415 -125.5)" d="m -24 13 c 0 1.105 -0.672 2 -1.5 2 -0.828 0 -1.5 -0.895 -1.5 -2 0 -1.105 0.672 -2 1.5 -2 0.828 0 1.5 0.895 1.5 2 z"/></clipPath></defs><path d="m 211.55 219.56923 c 200.11 -265.250005 -350.59 -302.940005 -173.859999 -32.17 40.29 61.728 120.859999 102.43 173.859999 32.17 z" style="fill:#fff;color:#000"/><g transform="matrix(9.4865404 0 0 9.2313061 21.616652 18.043377)" style="fill:#ff4500"><path d="M 10 3 A 7 6.5 0 0 0 3 9.5 7 6.5 0 0 0 5 14.046875 V 17 L 6.3203125 15.019531 a 7 6.5 0 0 0 2.2617187 0.833985 C 8.2131044 15.143061 8 14.348082 8 13.5 8 11.060117 9.7230409 9.0453833 12.048828 8.3066406 A 1 1 0 0 1 12 8 1 1 0 0 1 13 7 1 1 0 0 1 14 8 c 1.061383 0 2.066598 0.2619524 2.943359 0.7167969 A 7 6.5 0 0 0 10 3 z M 7 7 A 1 1 0 0 1 8 8 1 1 0 0 1 7 9 1 1 0 0 1 6 8 1 1 0 0 1 7 7 z m 7 2 a 5 4.5 0 0 0 -5 4.5 5 4.5 0 0 0 5 4.5 5 4.5 0 0 0 1.009766 -0.0957 C 15.06218 16.303725 16.387708 15 18 15 c 0.231334 0 0.454974 0.0314 0.671875 0.08203 A 5 4.5 0 0 0 19 13.5 5 4.5 0 0 0 14 9 z m -2 2 a 1 1 0 0 1 1 1 1 1 0 0 1 -1 1 1 1 0 0 1 -1 -1 1 1 0 0 1 1 -1 z m 4 0 a 1 1 0 0 1 1 1 1 1 0 0 1 -1 1 1 1 0 0 1 -1 -1 1 1 0 0 1 1 -1 z m 2 6 c -0.425919 0 -0.778472 0.248751 -0.925781 0.613281 L 18 19 V 17 z" style="color:#fff"/><circle r="2" cy="18" cx="18" style="fill:#f00;color:#5294e2"/></g></svg>