<svg xmlns="http://www.w3.org/2000/svg" xmlns:xlink="http://www.w3.org/1999/xlink" viewBox="0 0 256 256"><defs><path id="0" d="m 245.46 129.52 l -97.89 -96.9 c -5.556 -5.502 -16.222 -11.873 -23.7 -14.16 l -39.518 -12.08 c -7.479 -2.286 -18.1 0.391 -23.599 5.948 l -13.441 13.578 c -5.5 5.559 -14.502 14.653 -20 20.21 l -13.44 13.579 c -5.5 5.558 -8.07 16.206 -5.706 23.658 l 12.483 39.39 c 2.363 7.456 8.843 18.06 14.399 23.556 l 97.89 96.9 c 5.558 5.502 14.605 5.455 20.1 -0.101 l 36.26 -36.63 c 5.504 -5.559 14.503 -14.651 20 -20.21 l 36.26 -36.629 c 5.502 -5.56 5.455 -14.606 -0.101 -20.11 z m -178.09 -50.74 c -7.198 0 -13.03 -5.835 -13.03 -13.03 0 -7.197 5.835 -13.03 13.03 -13.03 7.197 0 13.03 5.835 13.03 13.03 -0.001 7.198 -5.836 13.03 -13.03 13.03 z"/><use id="1" xlink:href="#0"/><clipPath style="clip-path:url(#2)"><use xlink:href="#0"/></clipPath><clipPath style="clip-path:url(#2)"><use xlink:href="#0"/></clipPath><clipPath id="2"><use xlink:href="#1"/></clipPath></defs><path d="m 254.31122 128.58018 c 19.233 169.75 -256.0600046 167.39 -252.8000046 -3.02 -9.07 -158.490002 267.8000046 -172.790002 252.8000046 3.02 z" style="fill:#fff;color:#000"/><g transform="matrix(8.5043321 0 0 9.1758837 31.812806 26.720413)" style="fill:#ff4500;color:#fff"><path d="m 10.998,4 c 0,0 -3.7785,5.531e-4 -6.2969,0.18945 -0.35178,0.044 -1.1182,0.048016 -1.8027,0.79102 -0.53956,0.5664 -0.71484,1.8516 -0.71484,1.8516 0,0 -0.17709,1.511 -0.17969,3.0215 l -0.0039,2.2874 c -0.0026,1.5106 0.17969,3.0215 0.17969,3.0215 0,0 0.17528,1.2851 0.71484,1.8516 0.68457,0.7435 1.5839,0.72093 1.9844,0.79883 1.4397,0.143 6.1191,0.187 6.1191,0.187 0,0 1.2112,-0.01504 2.4082,-0.03906 -0.26,-0.604 -0.406,-1.265 -0.406,-1.961 0,-2.7495 2.2504,-5 5,-5 0.71006,0 1.3847,0.15382 1.998,0.42383 l 0.002,-1.5705 c 0.0026,-1.5105 -0.17969,-3.0215 -0.17969,-3.0215 0,0 -0.17524,-1.2852 -0.71484,-1.8516 -0.684,-0.7434 -1.452,-0.7474 -1.804,-0.7909 -2.518,-0.1889 -6.295,-0.1895 -6.295,-0.1895 h -0.0078 z M 8,7 14,11.014 8,15 V 7 z"/><path d="m 21.864,14.965 c -0.57174,-2.1338 -2.7651,-3.4002 -4.899,-2.8284 -2.1339,0.5718 -3.4001,2.7651 -2.8284,4.899 0.57174,2.1338 2.7651,3.4002 4.899,2.8284 2.1339,-0.5718 3.4001,-2.7651 2.8284,-4.899 z m -0.96591,0.25882 a 3,3 0 0 1 -2.1213,3.6743 l -0.25878,-0.96599 a 2,2 0 0 0 1.4143,-2.4495 l 0.96586,-0.25873 z m -3.6742,-2.1213 0.25878,0.96599 a 2,2 0 0 0 -1.4143,2.4495 l -0.96586,0.25873 a 3,3 0 0 1 2.1213,-3.6743 z"/></g></svg>