<svg xmlns="http://www.w3.org/2000/svg" xmlns:xlink="http://www.w3.org/1999/xlink" viewBox="0 0 256 256"><defs><path id="0" d="m 245.46 129.52 l -97.89 -96.9 c -5.556 -5.502 -16.222 -11.873 -23.7 -14.16 l -39.518 -12.08 c -7.479 -2.286 -18.1 0.391 -23.599 5.948 l -13.441 13.578 c -5.5 5.559 -14.502 14.653 -20 20.21 l -13.44 13.579 c -5.5 5.558 -8.07 16.206 -5.706 23.658 l 12.483 39.39 c 2.363 7.456 8.843 18.06 14.399 23.556 l 97.89 96.9 c 5.558 5.502 14.605 5.455 20.1 -0.101 l 36.26 -36.63 c 5.504 -5.559 14.503 -14.651 20 -20.21 l 36.26 -36.629 c 5.502 -5.56 5.455 -14.606 -0.101 -20.11 z m -178.09 -50.74 c -7.198 0 -13.03 -5.835 -13.03 -13.03 0 -7.197 5.835 -13.03 13.03 -13.03 7.197 0 13.03 5.835 13.03 13.03 -0.001 7.198 -5.836 13.03 -13.03 13.03 z"/><use id="1" xlink:href="#0"/><clipPath style="clip-path:url(#2)"><use xlink:href="#0"/></clipPath><clipPath style="clip-path:url(#2)"><use xlink:href="#0"/></clipPath><clipPath id="2"><use xlink:href="#1"/></clipPath></defs><path d="m 2.256 127.73 c -19.233 -169.75 256.06 -167.39 252.8 3.02 c 9.07 158.49 -267.8 172.79 -252.8 -3.02 z" style="fill:#fff;color:#000"/><g transform="matrix(8.1498515 0 0 7.9723933 32.52239 37.617158)" style="fill:#ff4500;color:#fff"><path transform="translate(-0.00000095)" d="m 10.998,4 c 0,0 -3.7785,5.531e-4 -6.2969,0.18945 -0.35178,0.044 -1.1182,0.048016 -1.8027,0.79102 -0.53956,0.5664 -0.71484,1.8516 -0.71484,1.8516 0,0 -0.17709,1.511 -0.17969,3.0215 l -0.0039,2.2874 c -0.0026,1.5106 0.17969,3.0215 0.17969,3.0215 0,0 0.17528,1.2851 0.71484,1.8516 0.68457,0.7435 1.5839,0.72093 1.9844,0.79883 1.4397,0.143 6.1191,0.187 6.1191,0.187 0,0 2.7662,-0.01494 5.1504,-0.13477 l -0.949,-1.265 c -0.494,-0.66 -0.023,-1.6 0.801,-1.6 h 1 v -3.1191 c 0,-0.40658 0.08709,-0.78972 0.30078,-1.1426 0.213,-0.353 0.642,-0.738 1.232,-0.738 h 0.93359 c 0.19921,0 0.37296,0.05334 0.5332,0.125 V 9.85395 c 0.0026,-1.5105 -0.17969,-3.0215 -0.17969,-3.0215 0,0 -0.17524,-1.2852 -0.71484,-1.8516 -0.684,-0.7434 -1.452,-0.7474 -1.804,-0.7909 -2.518,-0.1889 -6.295,-0.1895 -6.295,-0.1895 z M 8,7 14,11.014 8,15 z"/><path d="M 18.533,11 C 18.238,11 18,11.392 18,11.881 V 16 h -2 l 1.5,2 1.5,2 1.5,-2 1.5,-2 H 20 V 11.881 C 20,11.392 19.762,11 19.467,11 h -0.934 z"/></g></svg>